<svg width="833" height="750" viewBox="0 0 833 750" fill="none" xmlns="http://www.w3.org/2000/svg">
<g clip-path="url(#clip0_7838_50260)">
<g filter="url(#filter0_f_7838_50260)">
<ellipse cx="463.5" cy="369" rx="69.5" ry="69" fill="#00CBEC"/>
</g>
<g filter="url(#filter1_f_7838_50260)">
<ellipse cx="357" cy="393.5" rx="57" ry="56.5" fill="#A112FF"/>
</g>
<path d="M437.757 161.6L78.4459 402.5M455.066 173.119L95.7545 414.018M472.375 184.637L113.063 425.537M489.832 196.255L130.521 437.155M507.141 207.774L147.83 448.674M524.45 219.293L165.139 460.193M541.759 230.811L182.448 471.711M559.067 242.33L199.756 483.23M576.525 253.948L217.214 494.848M593.834 265.467L234.523 506.367M611.143 276.985L251.832 517.885M628.452 288.504L269.14 529.404M645.91 300.122L286.598 541.022M663.218 311.641L303.907 552.541M680.527 323.159L321.216 564.059M697.836 334.678L338.525 575.578M715.144 346.197L355.833 587.097M732.603 357.815L373.291 598.714M749.91 369.333L390.599 610.232M767.222 380.853L407.91 621.753M76.0579 380.795L440.138 623.084M93.3994 369.168L457.479 611.457M110.74 357.542L474.82 599.831M128.08 345.917L492.16 588.205M145.421 334.291L509.5 576.58M162.761 322.665L526.841 564.954M180.101 311.039L544.181 553.328M197.442 299.413L561.522 541.702M214.782 287.787L578.862 530.076M232.123 276.161L596.202 518.45M249.463 264.536L613.543 506.824M266.803 252.91L630.883 495.199M284.144 241.284L648.224 483.573M301.484 229.658L665.564 471.947M318.825 218.032L682.904 460.321M336.165 206.406L700.245 448.695M353.505 194.78L717.585 437.069M370.846 183.155L734.925 425.443M388.186 171.529L752.266 413.818M405.527 159.903L769.606 402.192" stroke="url(#paint0_radial_7838_50260)" stroke-opacity="0.1"/>
<rect opacity="0.9" x="0.000953645" y="0.555638" width="213.283" height="142.474" rx="7.5" transform="matrix(0.832792 0.554209 -0.830885 0.557066 264.936 261.182)" fill="white" stroke="#E4E9F4"/>
<rect opacity="0.9" x="0.000953645" y="0.555638" width="215.357" height="145.804" rx="7.5" transform="matrix(0.832792 0.554209 -0.830885 0.557066 401.365 170.547)" fill="white" stroke="#E4E9F4"/>
<rect opacity="0.9" x="0.000953645" y="0.555638" width="189.04" height="152.633" rx="7.5" transform="matrix(0.832792 0.554209 -0.830885 0.557066 535.674 356.9)" fill="white" stroke="#E4E9F4"/>
<g filter="url(#filter2_d_7838_50260)">
<rect x="0.000953645" y="0.555634" width="126.16" height="104.325" rx="7.5" transform="matrix(0.832786 0.554205 -0.830879 0.557063 552.349 394.423)" fill="white" stroke="#E4E9F4"/>
<rect width="68.4731" height="8.02782" rx="4.01391" transform="matrix(0.832786 0.554205 -0.830879 0.557063 550.009 405.646)" fill="#DBE2F0"/>
<rect width="31.167" height="8.02782" rx="4.01391" transform="matrix(0.832786 0.554205 -0.830879 0.557063 561.066 428.699)" fill="#A6B6D9"/>
<rect width="49.1117" height="8.02782" rx="4.01391" transform="matrix(0.832786 0.554205 -0.830879 0.557063 550.08 436.064)" fill="#DBE2F0"/>
<rect width="45.3339" height="8.02782" rx="4.01391" transform="matrix(0.832787 0.554205 -0.830879 0.557062 590.168 448.065)" fill="#DBE2F0"/>
<rect width="24.0836" height="8.02783" rx="4.01391" transform="matrix(0.832786 0.554206 -0.830879 0.557063 526.878 420.624)" fill="#DBE2F0"/>
<rect width="24.0836" height="8.02782" rx="4.01391" transform="matrix(0.832786 0.554205 -0.830879 0.557063 497.491 442.449)" fill="#A6B6D9"/>
<rect width="24.0836" height="8.02782" rx="4.01391" transform="matrix(0.832787 0.554205 -0.830879 0.557062 521.591 459.342)" fill="#DBE2F0"/>
<rect width="24.0836" height="8.02783" rx="4.01391" transform="matrix(0.832786 0.554206 -0.830879 0.557063 537.864 413.258)" fill="#A6B6D9"/>
</g>
<g filter="url(#filter3_d_7838_50260)">
<rect x="0.000953645" y="0.555634" width="151.167" height="83.1783" rx="7.5" transform="matrix(0.832786 0.554205 -0.830879 0.557063 289.055 294.741)" fill="white" stroke="#E4E9F4"/>
<rect width="9.71455" height="7.51724" rx="3.75862" transform="matrix(0.832787 0.554205 -0.830879 0.557062 266.089 322.653)" fill="#DBE2F0"/>
<rect width="69.9848" height="7.51724" rx="3.75862" transform="matrix(0.832786 0.554205 -0.830879 0.557063 276.044 329.278)" fill="#A6B6D9"/>
<rect width="16.0106" height="7.51724" rx="3.75862" transform="matrix(0.832786 0.554205 -0.830879 0.557063 314.242 326.504)" fill="#DBE2F0"/>
<rect width="16.3363" height="7.51725" rx="3.75862" transform="matrix(-0.832786 -0.554205 -0.830879 0.557063 344.244 346.47)" fill="#DBE2F0"/>
<rect width="58.7698" height="7.51724" rx="3.75862" transform="matrix(0.832787 0.554205 -0.830879 0.557062 303.955 333.401)" fill="#DBE2F0"/>
<rect width="54.249" height="7.51724" rx="3.75862" transform="matrix(0.832786 0.554205 -0.830879 0.557063 349.067 349.68)" fill="#DBE2F0"/>
<rect width="28.8198" height="7.51724" rx="3.75862" transform="matrix(0.832787 0.554205 -0.830879 0.557062 276.189 314.924)" fill="#DBE2F0"/>
<rect width="12.9199" height="7.51724" rx="3.75862" transform="matrix(0.832787 0.554205 -0.830879 0.557062 248.537 338.069)" fill="#DBE2F0"/>
<rect width="28.8198" height="7.51724" rx="3.75862" transform="matrix(0.832786 0.554205 -0.830879 0.557063 262.707 347.647)" fill="#DBE2F0"/>
<rect width="38.4417" height="7.51724" rx="3.75862" transform="matrix(-0.832786 -0.554205 -0.830879 0.557062 322.792 387.633)" fill="#DBE2F0"/>
<rect width="28.8198" height="7.51724" rx="3.75862" transform="matrix(0.832787 0.554205 -0.830879 0.557062 286.477 308.027)" fill="#DBE2F0"/>
</g>
<g clip-path="url(#clip1_7838_50260)">
<path d="M494.573 397.948C494.283 397.756 493.788 397.757 493.499 397.95L493.4 398.017L482.047 408.643C481.758 408.914 481.8 409.284 482.148 409.515L492.937 416.695C493.193 416.865 493.606 416.898 493.911 416.748L509.935 409.02C510.095 408.941 510.2 408.823 510.23 408.691C510.259 408.56 510.209 408.426 510.091 408.32C510.074 408.298 510.041 408.276 510.008 408.254L494.573 397.948ZM494.182 410.857L490.743 408.568L494.658 404.694L499.867 408.161L494.182 410.857Z" fill="#DBE2F0"/>
</g>
<g filter="url(#filter4_d_7838_50260)">
<rect x="0.000953674" y="0.555634" width="161.987" height="54.7225" rx="7.5" transform="matrix(0.832786 0.554205 -0.830879 0.557063 420.651 201.847)" fill="white" stroke="#E4E9F4"/>
<rect width="68.473" height="8.02782" rx="4.01391" transform="matrix(0.832786 0.554205 -0.830879 0.557063 449.741 232.305)" fill="#E4E9F4"/>
<rect width="45.4288" height="8.02782" rx="4.01391" transform="matrix(0.832786 0.554205 -0.830879 0.557063 448.922 247.454)" fill="#E4E9F4"/>
<rect width="49.1117" height="8.02782" rx="4.01391" transform="matrix(0.832787 0.554205 -0.830879 0.557062 450.576 263.253)" fill="#E4E9F4"/>
<rect width="45.3339" height="8.02782" rx="4.01391" transform="matrix(0.832786 0.554205 -0.830879 0.557063 489.9 274.725)" fill="#A6B6D9"/>
<rect width="11.4193" height="8.02782" rx="4.01391" transform="matrix(0.832786 0.554206 -0.830879 0.557063 426.61 247.283)" fill="#E4E9F4"/>
<rect width="11.4193" height="8.02782" rx="4.01391" transform="matrix(0.832786 0.554205 -0.830879 0.557063 438.287 255.231)" fill="#E4E9F4"/>
<rect width="10.2411" height="8.02782" rx="4.01391" transform="matrix(0.832787 0.554205 -0.830879 0.557062 437.597 239.917)" fill="#E4E9F4"/>
<g clip-path="url(#clip2_7838_50260)">
<path d="M417.076 225.204L421.149 227.915L421.139 222.48L417.076 225.204ZM417.064 218.287L422.988 222.23L422.998 228.158L414.133 234.102C413.741 234.365 413.209 234.513 412.654 234.514C412.099 234.515 411.567 234.369 411.174 234.108L402.288 228.194C401.895 227.933 401.674 227.578 401.673 227.207C401.673 226.836 401.893 226.48 402.284 226.218L414.105 218.292C414.925 217.743 416.242 217.74 417.064 218.287ZM411.908 230.648L413.385 229.657L406.721 225.222L405.243 226.213L411.908 230.648ZM417.084 230.145L418.562 229.154L409.676 223.241L408.198 224.231L417.084 230.145Z" fill="white" fill-opacity="0.4"/>
</g>
<path d="M410.887 249.058L444.445 226.411" stroke="white" stroke-opacity="0.2" stroke-linecap="round"/>
</g>
<g clip-path="url(#clip3_7838_50260)">
<path d="M363.455 230.751L365.581 227.946C365.611 227.926 365.63 227.9 365.65 227.874L369.932 222.232C370.036 222.084 370.07 221.919 370.029 221.758C369.988 221.598 369.875 221.449 369.704 221.333C369.35 221.098 368.79 221.053 368.359 221.198L360.34 223.947L354.117 219.805L358.193 214.433C358.301 214.287 358.339 214.122 358.302 213.961C358.265 213.801 358.154 213.651 357.985 213.534C357.621 213.292 357.061 213.247 356.629 213.392L348.189 216.28L348.179 216.287L343.91 217.744C343.262 217.968 342.899 218.434 343.028 218.913L345.511 229.358C345.56 229.548 345.777 229.692 346.071 229.718L361.708 231.344C362.425 231.428 363.122 231.184 363.455 230.751ZM352.506 219.979L347.274 226.862L348.967 217.623L352.506 219.979ZM349.781 228.544L359.655 225.168L360.077 225.017L363.626 227.379L351.107 228.43L349.781 228.544ZM368.547 222.123L364.872 226.963L361.313 224.595L368.547 222.123ZM359.103 224.369L351.939 226.821L347.669 228.278L353.48 220.627L359.103 224.369ZM356.808 214.31L353.133 219.151L349.584 216.789L356.808 214.31ZM344.314 218.773C344.294 218.668 344.373 218.563 344.51 218.523L347.67 217.442L346.085 226.149L344.314 218.773ZM361.913 230.484L350.873 229.336L350.922 229.329L363.893 228.238L362.286 230.352C362.227 230.444 362.07 230.497 361.913 230.484" fill="#DBE2F0"/>
</g>
<g filter="url(#filter5_d_7838_50260)">
<rect x="0.000953645" y="0.555634" width="161.987" height="54.7225" rx="7.5" transform="matrix(0.832786 0.554205 -0.830879 0.557062 367.976 238.786)" fill="white" stroke="#E4E9F4"/>
<rect width="53.7953" height="8.02782" rx="4.01391" transform="matrix(0.832786 0.554205 -0.830879 0.557063 409.29 277.378)" fill="#E4E9F4"/>
<rect width="10.4743" height="8.02782" rx="4.01391" transform="matrix(0.832787 0.554205 -0.830879 0.557062 397.066 269.243)" fill="#E4E9F4"/>
<rect width="31.167" height="8.02782" rx="4.01391" transform="matrix(0.832786 0.554205 -0.830879 0.557062 408.124 292.297)" fill="#E4E9F4"/>
<rect width="64.8638" height="8.02782" rx="4.01391" transform="matrix(0.832787 0.554205 -0.830879 0.557062 397.138 299.662)" fill="#E4E9F4"/>
<rect width="10.441" height="8.02782" rx="4.01391" transform="matrix(0.832786 0.554205 -0.830879 0.557062 437.226 311.663)" fill="#E4E9F4"/>
<rect width="18.7496" height="8.02782" rx="4.01391" transform="matrix(0.832786 0.554206 -0.830879 0.557063 449.148 319.598)" fill="#E4E9F4"/>
<rect width="24.0836" height="8.02782" rx="4.01391" transform="matrix(0.832786 0.554206 -0.830879 0.557063 373.936 284.222)" fill="#E4E9F4"/>
<rect width="24.0836" height="8.02782" rx="4.01391" transform="matrix(0.832786 0.554205 -0.830879 0.557062 384.922 276.855)" fill="#E4E9F4"/>
<g clip-path="url(#clip4_7838_50260)">
<path d="M363.667 262.005L367.74 264.715L367.73 259.281L363.667 262.005ZM363.655 255.088L369.579 259.03L369.589 264.959L360.723 270.903C360.332 271.166 359.8 271.314 359.245 271.315C358.69 271.316 358.158 271.17 357.765 270.908L348.879 264.995C348.486 264.733 348.265 264.378 348.264 264.008C348.264 263.637 348.483 263.281 348.875 263.019L360.696 255.093C361.516 254.543 362.833 254.541 363.655 255.088ZM358.498 267.449L359.976 266.458L353.312 262.023L351.834 263.013L358.498 267.449ZM363.675 266.946L365.153 265.955L356.267 260.041L354.789 261.032L363.675 266.946Z" fill="white" fill-opacity="0.4"/>
</g>
<path d="M358.083 285.582L391.641 262.935" stroke="white" stroke-opacity="0.2" stroke-linecap="round"/>
</g>
<g filter="url(#filter6_d_7838_50260)">
<rect x="0.000953674" y="0.555634" width="161.987" height="54.7225" rx="7.5" transform="matrix(0.832786 0.554205 -0.830879 0.557063 238.095 379.68)" fill="white" fill-opacity="0.9" stroke="#E4E9F4"/>
<rect width="50.5172" height="8.02782" rx="4.01391" transform="matrix(0.832787 0.554205 -0.830879 0.557062 279.408 418.272)" fill="#A6B6D9"/>
<rect width="34.4007" height="8.02782" rx="4.01391" transform="matrix(-0.832786 -0.554205 -0.830879 0.557063 352.856 467.151)" fill="#A6B6D9"/>
<rect width="10.4743" height="8.02782" rx="4.01391" transform="matrix(0.832787 0.554205 -0.830879 0.557062 267.185 410.139)" fill="#A6B6D9"/>
<rect width="31.1671" height="8.02782" rx="4.01391" transform="matrix(0.832786 0.554205 -0.830879 0.557063 278.242 433.191)" fill="#A6B6D9"/>
<rect width="59.0097" height="8.02782" rx="4.01391" transform="matrix(0.832786 0.554205 -0.830879 0.557062 272.132 443.802)" fill="#A6B6D9"/>
<rect width="13.35" height="8.02782" rx="4.01391" transform="matrix(-0.832787 -0.554205 -0.83088 0.557062 267.256 440.558)" fill="#A6B6D9"/>
<rect width="33.2407" height="8.02782" rx="4.01391" transform="matrix(0.832786 0.554205 -0.830879 0.557063 307.199 452.462)" fill="#A6B6D9"/>
<rect width="10.6703" height="8.02782" rx="4.01391" transform="matrix(0.832787 0.554205 -0.830879 0.557062 244.054 425.116)" fill="#A6B6D9"/>
<rect width="24.0836" height="8.02782" rx="4.01391" transform="matrix(0.832787 0.554205 -0.830879 0.557062 255.04 417.751)" fill="#A6B6D9"/>
<g clip-path="url(#clip5_7838_50260)">
<path d="M233.785 402.9L237.858 405.61L237.848 400.175L233.785 402.9ZM233.773 395.983L239.697 399.925L239.707 405.854L230.842 411.798C230.45 412.061 229.918 412.209 229.363 412.21C228.808 412.211 228.276 412.064 227.883 411.803L218.997 405.889C218.604 405.628 218.383 405.273 218.382 404.902C218.382 404.532 218.602 404.176 218.993 403.913L230.814 395.988C231.634 395.438 232.951 395.436 233.773 395.983ZM228.617 408.343L230.094 407.352L223.43 402.917L221.952 403.908L228.617 408.343ZM233.793 407.84L235.271 406.85L226.385 400.936L224.907 401.927L233.793 407.84Z" fill="#C5C5EC"/>
</g>
<path d="M228.201 426.477L261.759 403.83" stroke="white" stroke-opacity="0.2" stroke-linecap="round"/>
</g>
<path d="M480.74 343.85L490.611 350.536C492.642 351.912 495.307 351.913 497.339 350.538L521.861 333.942M531.786 307.285L538.92 312.072C542.424 314.423 542.471 319.56 539.011 321.975L521.861 333.942M521.861 333.942L531.722 340.684C535.246 343.094 535.197 348.309 531.629 350.652L484.522 381.595M484.522 381.595L530.25 412.262M484.522 381.595L449.753 404.798C446.242 407.14 446.184 412.28 449.64 414.702L488.211 441.734" stroke="#5E6E8C" stroke-dasharray="9 9"/>
<path d="M332.86 374.99L342.31 381.633C345.804 384.089 345.686 389.306 342.084 391.601L337.493 394.527C333.915 396.808 333.77 401.982 337.216 404.459L366.356 425.409C368.384 426.867 371.103 426.916 373.183 425.533L391.705 413.207M397.14 385.606L407.626 392.267C411.27 394.582 411.35 399.871 407.779 402.296L391.705 413.207M391.705 413.207L407.939 424.064C411.476 426.43 411.495 431.623 407.976 434.014L365 463.218" stroke="#5E6E8C" stroke-dasharray="9 9"/>
<path d="M366.597 298.558L324.824 326.449" stroke="#5E6E8C" stroke-dasharray="9 9"/>
<g clip-path="url(#clip6_7838_50260)">
<path d="M241.187 300.076C239.896 299.217 238.364 298.536 236.678 298.073C234.992 297.609 233.186 297.373 231.362 297.376C227.679 297.382 224.148 298.365 221.546 300.11C217.211 303.016 216.354 307.36 218.953 310.833C219.366 311.212 219.827 311.113 220.092 310.936L221.75 309.824C218.438 308.406 219.761 306.745 219.761 306.745C220.446 305.681 220.111 305.052 220.111 305.052C219.825 304.048 220.769 304.703 220.769 304.703C221.683 305.403 221.263 306.381 221.263 306.381C220.627 307.95 222.514 308.616 223.309 308.831C224.036 308.462 224.723 308.343 225.243 308.362C223.306 306.745 221.859 304.655 225.596 302.149C226.685 301.419 227.931 301.083 229.267 301.041C229.414 300.811 230.09 299.898 231.955 299.37C231.955 299.37 233.045 299.742 233.658 301.84C234.65 302.213 235.604 302.703 236.44 303.259C237.275 303.815 238.013 304.45 238.574 305.112C241.717 305.513 242.278 306.24 242.278 306.24C241.494 307.488 240.13 307.943 239.787 308.042C239.729 308.934 239.23 309.768 238.141 310.498C234.394 313.01 231.269 312.032 228.832 310.737C228.882 311.176 228.608 311.793 227.695 312.405L225.008 314.207C224.743 314.385 224.586 314.7 225.176 314.974C230.394 316.69 236.874 316.102 241.21 313.195C242.498 312.332 243.519 311.307 244.215 310.18C244.911 309.054 245.268 307.847 245.266 306.629C245.264 305.41 244.903 304.205 244.203 303.08C243.503 301.956 242.478 300.935 241.187 300.076V300.076Z" fill="#DBE2F0"/>
</g>
</g>
<defs>
<filter id="filter0_f_7838_50260" x="94" y="0" width="739" height="738" filterUnits="userSpaceOnUse" color-interpolation-filters="sRGB">
<feFlood flood-opacity="0" result="BackgroundImageFix"/>
<feBlend mode="normal" in="SourceGraphic" in2="BackgroundImageFix" result="shape"/>
<feGaussianBlur stdDeviation="150" result="effect1_foregroundBlur_7838_50260"/>
</filter>
<filter id="filter1_f_7838_50260" x="0" y="37" width="714" height="713" filterUnits="userSpaceOnUse" color-interpolation-filters="sRGB">
<feFlood flood-opacity="0" result="BackgroundImageFix"/>
<feBlend mode="normal" in="SourceGraphic" in2="BackgroundImageFix" result="shape"/>
<feGaussianBlur stdDeviation="150" result="effect1_foregroundBlur_7838_50260"/>
</filter>
<filter id="filter2_d_7838_50260" x="457.773" y="392.281" width="214.612" height="152.938" filterUnits="userSpaceOnUse" color-interpolation-filters="sRGB">
<feFlood flood-opacity="0" result="BackgroundImageFix"/>
<feColorMatrix in="SourceAlpha" type="matrix" values="0 0 0 0 0 0 0 0 0 0 0 0 0 0 0 0 0 0 127 0" result="hardAlpha"/>
<feOffset dx="4" dy="10"/>
<feGaussianBlur stdDeviation="7.25"/>
<feComposite in2="hardAlpha" operator="out"/>
<feColorMatrix type="matrix" values="0 0 0 0 0 0 0 0 0 0 0 0 0 0 0 0 0 0 0.15 0"/>
<feBlend mode="normal" in2="BackgroundImageFix" result="effect1_dropShadow_7838_50260"/>
<feBlend mode="normal" in="SourceGraphic" in2="effect1_dropShadow_7838_50260" result="shape"/>
</filter>
<filter id="filter3_d_7838_50260" x="211.549" y="292.099" width="218.868" height="156.017" filterUnits="userSpaceOnUse" color-interpolation-filters="sRGB">
<feFlood flood-opacity="0" result="BackgroundImageFix"/>
<feColorMatrix in="SourceAlpha" type="matrix" values="0 0 0 0 0 0 0 0 0 0 0 0 0 0 0 0 0 0 127 0" result="hardAlpha"/>
<feOffset dx="4" dy="10"/>
<feGaussianBlur stdDeviation="7.5"/>
<feComposite in2="hardAlpha" operator="out"/>
<feColorMatrix type="matrix" values="0 0 0 0 0 0 0 0 0 0 0 0 0 0 0 0 0 0 0.25 0"/>
<feBlend mode="normal" in2="BackgroundImageFix" result="effect1_dropShadow_7838_50260"/>
<feBlend mode="normal" in="SourceGraphic" in2="effect1_dropShadow_7838_50260" result="shape"/>
</filter>
<filter id="filter4_d_7838_50260" x="366.789" y="199.205" width="204.235" height="146.162" filterUnits="userSpaceOnUse" color-interpolation-filters="sRGB">
<feFlood flood-opacity="0" result="BackgroundImageFix"/>
<feColorMatrix in="SourceAlpha" type="matrix" values="0 0 0 0 0 0 0 0 0 0 0 0 0 0 0 0 0 0 127 0" result="hardAlpha"/>
<feOffset dx="4" dy="10"/>
<feGaussianBlur stdDeviation="7.5"/>
<feComposite in2="hardAlpha" operator="out"/>
<feColorMatrix type="matrix" values="0 0 0 0 0 0 0 0 0 0 0 0 0 0 0 0 0 0 0.25 0"/>
<feBlend mode="normal" in2="BackgroundImageFix" result="effect1_dropShadow_7838_50260"/>
<feBlend mode="normal" in="SourceGraphic" in2="effect1_dropShadow_7838_50260" result="shape"/>
</filter>
<filter id="filter5_d_7838_50260" x="314.114" y="236.144" width="204.235" height="146.162" filterUnits="userSpaceOnUse" color-interpolation-filters="sRGB">
<feFlood flood-opacity="0" result="BackgroundImageFix"/>
<feColorMatrix in="SourceAlpha" type="matrix" values="0 0 0 0 0 0 0 0 0 0 0 0 0 0 0 0 0 0 127 0" result="hardAlpha"/>
<feOffset dx="4" dy="10"/>
<feGaussianBlur stdDeviation="7.5"/>
<feComposite in2="hardAlpha" operator="out"/>
<feColorMatrix type="matrix" values="0 0 0 0 0 0 0 0 0 0 0 0 0 0 0 0 0 0 0.25 0"/>
<feBlend mode="normal" in2="BackgroundImageFix" result="effect1_dropShadow_7838_50260"/>
<feBlend mode="normal" in="SourceGraphic" in2="effect1_dropShadow_7838_50260" result="shape"/>
</filter>
<filter id="filter6_d_7838_50260" x="184.732" y="377.538" width="203.235" height="145.162" filterUnits="userSpaceOnUse" color-interpolation-filters="sRGB">
<feFlood flood-opacity="0" result="BackgroundImageFix"/>
<feColorMatrix in="SourceAlpha" type="matrix" values="0 0 0 0 0 0 0 0 0 0 0 0 0 0 0 0 0 0 127 0" result="hardAlpha"/>
<feOffset dx="4" dy="10"/>
<feGaussianBlur stdDeviation="7.25"/>
<feComposite in2="hardAlpha" operator="out"/>
<feColorMatrix type="matrix" values="0 0 0 0 0 0 0 0 0 0 0 0 0 0 0 0 0 0 0.15 0"/>
<feBlend mode="normal" in2="BackgroundImageFix" result="effect1_dropShadow_7838_50260"/>
<feBlend mode="normal" in="SourceGraphic" in2="effect1_dropShadow_7838_50260" result="shape"/>
</filter>
<radialGradient id="paint0_radial_7838_50260" cx="0" cy="0" r="1" gradientUnits="userSpaceOnUse" gradientTransform="translate(433.614 407.262) rotate(-174.504) scale(253.397 148.456)">
<stop stop-color="#5D5D5D"/>
<stop offset="1" stop-color="#78767A" stop-opacity="0"/>
</radialGradient>
<clipPath id="clip0_7838_50260">
<rect width="833" height="750" fill="white"/>
</clipPath>
<clipPath id="clip1_7838_50260">
<rect width="23.8341" height="23.8339" fill="white" transform="matrix(0.832505 0.554018 -0.830597 0.556873 494.855 394.831)"/>
</clipPath>
<clipPath id="clip2_7838_50260">
<rect width="21.3407" height="21.3405" fill="white" transform="matrix(0.832786 0.554205 -0.830879 0.557062 414.099 214.34)"/>
</clipPath>
<clipPath id="clip3_7838_50260">
<rect width="28.3433" height="28.3431" fill="white" transform="matrix(0.832505 0.554018 -0.830597 0.556874 353.566 208.562)"/>
</clipPath>
<clipPath id="clip4_7838_50260">
<rect width="21.3407" height="21.3405" fill="white" transform="matrix(0.832786 0.554205 -0.830879 0.557063 360.689 251.141)"/>
</clipPath>
<clipPath id="clip5_7838_50260">
<rect width="21.3407" height="21.3405" fill="white" transform="matrix(0.832786 0.554205 -0.830879 0.557063 230.808 392.035)"/>
</clipPath>
<clipPath id="clip6_7838_50260">
<rect width="28.3433" height="28.3431" fill="white" transform="matrix(0.832505 0.554018 -0.830597 0.556873 231.351 290.909)"/>
</clipPath>
</defs>
</svg>
