<svg width="64" height="64" viewBox="0 0 64 64" fill="none" xmlns="http://www.w3.org/2000/svg">
<rect width="64" height="64" fill="white"/>
<path d="M38 30H34V14H36C38.121 14.0024 40.1544 14.846 41.6542 16.3458C43.154 17.8456 43.9976 19.879 44 22C44 22.5304 44.2107 23.0391 44.5858 23.4142C44.9609 23.7893 45.4696 24 46 24C46.5304 24 47.0391 23.7893 47.4142 23.4142C47.7893 23.0391 48 22.5304 48 22C47.9964 18.8185 46.731 15.7683 44.4813 13.5187C42.2317 11.269 39.1815 10.0036 36 10H34V6C34 5.46957 33.7893 4.96086 33.4142 4.58579C33.0391 4.21071 32.5304 4 32 4C31.4696 4 30.9609 4.21071 30.5858 4.58579C30.2107 4.96086 30 5.46957 30 6V10H27C23.8174 10 20.7652 11.2643 18.5147 13.5147C16.2643 15.7652 15 18.8174 15 22C15 25.1826 16.2643 28.2348 18.5147 30.4853C20.7652 32.7357 23.8174 34 27 34H30V50H26C23.879 49.9976 21.8456 49.154 20.3458 47.6542C18.846 46.1544 18.0024 44.121 18 42C18 41.4696 17.7893 40.9609 17.4142 40.5858C17.0391 40.2107 16.5304 40 16 40C15.4696 40 14.9609 40.2107 14.5858 40.5858C14.2107 40.9609 14 41.4696 14 42C14.0036 45.1815 15.269 48.2317 17.5187 50.4813C19.7683 52.731 22.8185 53.9964 26 54H30V58C30 58.5304 30.2107 59.0391 30.5858 59.4142C30.9609 59.7893 31.4696 60 32 60C32.5304 60 33.0391 59.7893 33.4142 59.4142C33.7893 59.0391 34 58.5304 34 58V54H38C41.1826 54 44.2348 52.7357 46.4853 50.4853C48.7357 48.2348 50 45.1826 50 42C50 38.8174 48.7357 35.7652 46.4853 33.5147C44.2348 31.2643 41.1826 30 38 30ZM30 30H27C24.8783 30 22.8434 29.1571 21.3431 27.6569C19.8429 26.1566 19 24.1217 19 22C19 19.8783 19.8429 17.8434 21.3431 16.3431C22.8434 14.8429 24.8783 14 27 14H30V30ZM38 50H34V34H38C40.1217 34 42.1566 34.8429 43.6569 36.3431C45.1571 37.8434 46 39.8783 46 42C46 44.1217 45.1571 46.1566 43.6569 47.6569C42.1566 49.1571 40.1217 50 38 50Z" fill="black"/>
</svg>
