<svg width="64" height="64" viewBox="0 0 64 64" fill="none" xmlns="http://www.w3.org/2000/svg">
<rect width="64" height="64" fill="white"/>
<path d="M50.6802 15.547C48.2745 13.1454 45.4183 11.2425 42.2754 9.94743C39.1326 8.65234 35.7649 7.99058 32.3657 8.0001C32.3047 8.0001 32.2429 8.00035 32.1819 8.00071C28.7523 7.97673 25.3518 8.63151 22.1764 9.92735C19.001 11.2232 16.1133 13.1345 13.6797 15.5511C11.246 17.9678 9.3146 20.842 7.99658 24.0083C6.67856 27.1746 6 30.5704 6 34.0001V48.0001C6.00182 49.5908 6.63454 51.1159 7.75937 52.2407C8.88419 53.3656 10.4093 53.9983 12 54.0001H16C17.5907 53.9983 19.1158 53.3656 20.2406 52.2407C21.3655 51.1159 21.9982 49.5908 22 48.0001V38.0001C21.9982 36.4094 21.3655 34.8843 20.2406 33.7595C19.1158 32.6346 17.5907 32.0019 16 32.0001H10.0889C10.5915 26.5056 13.14 21.4005 17.2291 17.6964C21.3183 13.9922 26.6497 11.9594 32.167 12.0007C32.1772 12.0008 32.1865 12.0008 32.1968 12.0007C37.7141 11.9592 43.0457 13.992 47.1349 17.6961C51.2241 21.4003 53.7726 26.5056 54.2751 32.0001H48.364C46.7733 32.0019 45.2482 32.6346 44.1234 33.7595C42.9986 34.8843 42.3658 36.4094 42.364 38.0001V48.0001C42.3658 49.5908 42.9986 51.1159 44.1234 52.2407C45.2482 53.3656 46.7733 53.9983 48.364 54.0001H52.364C53.9548 53.9983 55.4798 53.3656 56.6046 52.2407C57.7295 51.1159 58.3622 49.5908 58.364 48.0001V34.0001C58.3739 30.568 57.6995 27.1683 56.3802 23.9998C55.0608 20.8314 53.1231 17.9578 50.6802 15.547V15.547Z" fill="black"/>
</svg>
