<svg width="64" height="64" viewBox="0 0 64 64" fill="none" xmlns="http://www.w3.org/2000/svg">
<rect width="64" height="64" fill="white"/>
<path d="M29.9999 14C29.9999 12.4178 30.4691 10.871 31.3482 9.55544C32.2272 8.23985 33.4767 7.21447 34.9385 6.60897C36.4003 6.00347 38.0088 5.84504 39.5606 6.15372C41.1125 6.4624 42.538 7.22433 43.6568 8.34315C44.7756 9.46197 45.5375 10.8874 45.8462 12.4393C46.1549 13.9911 45.9965 15.5997 45.391 17.0615C44.7855 18.5233 43.7601 19.7727 42.4445 20.6518C41.1289 21.5308 39.5822 22 37.9999 22C35.8789 21.9976 33.8455 21.1539 32.3458 19.6542C30.846 18.1544 30.0024 16.121 29.9999 14V14ZM55.9999 33.3878C56.0001 33.0435 55.9115 32.7051 55.7425 32.4052C55.5735 32.1054 55.3299 31.8542 55.0354 31.6761C54.7408 31.498 54.4053 31.399 54.0612 31.3887C53.7172 31.3783 53.3763 31.457 53.0716 31.6171L53.0712 31.6165L53.1003 31.6016C53.0844 31.6091 51.478 32.3655 48.5434 32.0642C45.7521 31.7793 41.1769 30.4631 35.2322 25.8125C31.4838 22.8799 25.6458 19.6477 19.122 20.9033C15.176 21.6626 12.8907 23.6897 12.643 23.9185C12.2519 24.2768 12.0193 24.7759 11.9961 25.3058C11.9847 25.5682 12.025 25.8302 12.1149 26.077C12.2047 26.3238 12.3423 26.5505 12.5197 26.7441C12.6971 26.9378 12.911 27.0946 13.149 27.2056C13.3871 27.3165 13.6446 27.3796 13.907 27.391C14.4369 27.4141 14.9543 27.2258 15.3454 26.8674C15.6147 26.6263 21.8014 21.28 31.4981 28.0264C30.3066 32.0033 28.4609 35.754 26.0368 39.1243C26.0303 39.1332 26.0236 39.1417 26.0173 39.1507C25.8242 39.4143 25.6273 39.6767 25.4238 39.9365C20.7031 45.9644 14.9079 48.6794 8.1989 48.01C7.93757 47.9839 7.67365 48.0095 7.42222 48.0853C7.17078 48.1612 6.93675 48.2859 6.73348 48.4522C6.32297 48.788 6.0627 49.2732 6.00993 49.801C5.95716 50.3288 6.11621 50.8559 6.45209 51.2664C6.78797 51.677 7.27317 51.9372 7.80095 51.99C8.61297 52.0713 9.4048 52.1114 10.1764 52.1104C18.3348 52.1104 24.3218 47.7475 28.4631 42.5374C33.3252 43.82 41.9999 47.5724 41.9999 58C41.9999 58.5304 42.2106 59.0391 42.5857 59.4142C42.9608 59.7893 43.4695 60 43.9999 60C44.5304 60 45.0391 59.7893 45.4141 59.4142C45.7892 59.0391 45.9999 58.5304 45.9999 58C45.9999 51.8367 43.4799 46.6619 38.7123 43.0352C36.3459 41.2861 33.7006 39.9499 30.8885 39.0831C32.5496 36.4002 33.8987 33.5363 34.9096 30.5471C41.34 35.0324 46.4562 36.1223 49.9081 36.1221C53.0134 36.1218 54.7726 35.2407 54.9286 35.1589L54.9283 35.1584C55.2515 34.9892 55.5222 34.7347 55.7111 34.4226C55.9 34.1105 55.9999 33.7526 55.9999 33.3878V33.3878Z" fill="black"/>
</svg>
