<svg width="64" height="64" viewBox="0 0 64 64" fill="none" xmlns="http://www.w3.org/2000/svg">
<rect width="64" height="64" fill="white"/>
<path d="M50.5402 50.2083C55.3206 45.3534 58 38.8134 58 32C58 25.1867 55.3206 18.6466 50.5402 13.7918C50.4441 13.6676 50.3327 13.5561 50.2085 13.4601C45.3536 8.67953 38.8135 6 32 6C25.1865 6 18.6464 8.67953 13.7915 13.4601C13.6673 13.5561 13.5559 13.6676 13.4598 13.7918C8.67943 18.6466 6 25.1867 6 32C6 38.8134 8.67943 45.3534 13.4598 50.2083C13.5082 50.2701 13.5601 50.329 13.6152 50.3848C13.6709 50.4399 13.7298 50.4918 13.7916 50.54C18.6465 55.3205 25.1866 58 32 58C38.8134 58 45.3535 55.3205 50.2084 50.54C50.2702 50.4918 50.329 50.4399 50.3848 50.3848C50.4399 50.329 50.4918 50.2701 50.5402 50.2083V50.2083ZM24 32C24 30.4178 24.4692 28.871 25.3482 27.5554C26.2273 26.2398 27.4767 25.2145 28.9385 24.609C30.4003 24.0035 32.0089 23.845 33.5607 24.1537C35.1126 24.4624 36.538 25.2243 37.6568 26.3431C38.7757 27.462 39.5376 28.8874 39.8463 30.4393C40.155 31.9911 39.9965 33.5997 39.391 35.0615C38.7855 36.5233 37.7601 37.7727 36.4446 38.6518C35.129 39.5308 33.5822 40 32 40C29.879 39.9976 27.8456 39.1539 26.3458 37.6542C24.8461 36.1544 24.0024 34.121 24 32V32ZM46.0702 15.1012L38.9469 22.2245C36.9194 20.7777 34.4908 20 32 20C29.5092 20 27.0806 20.7777 25.0531 22.2245L17.9298 15.1012C21.8777 11.8054 26.8572 10 32 10C37.1428 10 42.1223 11.8054 46.0702 15.1012V15.1012ZM17.9298 48.8988L25.0531 41.7755C27.0806 43.2223 29.5092 44 32 44C34.4908 44 36.9194 43.2223 38.9469 41.7755L46.0702 48.8988C42.1223 52.1946 37.1428 54 32 54C26.8572 54 21.8777 52.1946 17.9298 48.8988V48.8988Z" fill="black"/>
</svg>
