<svg width="64" height="64" viewBox="0 0 64 64" fill="none" xmlns="http://www.w3.org/2000/svg">
<rect width="64" height="64" fill="white"/>
<path d="M61.9993 29.9852C61.9991 29.9642 61.9969 29.9432 61.9961 29.9222C61.994 29.8667 61.9904 29.8115 61.9838 29.7572C61.981 29.7336 61.9768 29.7102 61.973 29.6866C61.9645 29.6326 61.9541 29.5793 61.9413 29.5267C61.9362 29.5056 61.9309 29.4846 61.9251 29.4635C61.9083 29.4033 61.8889 29.3443 61.8666 29.2865C61.8629 29.2768 61.8608 29.2668 61.8569 29.2572L61.8445 29.2263L61.8419 29.2195L58.3599 20.5144C58.0651 19.7706 57.5532 19.1329 56.8907 18.6844C56.2282 18.2359 55.446 17.9974 54.646 18H46V16C46 15.4696 45.7893 14.9609 45.4142 14.5858C45.0391 14.2107 44.5304 14 44 14H6C4.93951 14.0012 3.9228 14.423 3.17291 15.1729C2.42303 15.9228 2.00121 16.9395 2 18V46C2.00121 47.0605 2.42303 48.0772 3.17291 48.8271C3.9228 49.577 4.93951 49.9988 6 50H9.25317C9.69678 51.7173 10.6984 53.2385 12.1007 54.3246C13.5029 55.4107 15.2263 56 17 56C18.7737 56 20.4971 55.4107 21.8993 54.3246C23.3016 53.2385 24.3032 51.7173 24.7468 50H39.2532C39.6968 51.7173 40.6984 53.2385 42.1007 54.3246C43.5029 55.4107 45.2263 56 47 56C48.7737 56 50.4971 55.4107 51.8993 54.3246C53.3016 53.2385 54.3032 51.7173 54.7468 50H58C59.0605 49.9988 60.0772 49.577 60.8271 48.8271C61.577 48.0772 61.9988 47.0605 62 46V30C62 29.995 61.9993 29.9902 61.9993 29.9852ZM46 22H54.646L57.0459 28H46V22ZM6 18H42V34H6V18ZM17 52C16.2089 52 15.4355 51.7654 14.7777 51.3259C14.1199 50.8864 13.6072 50.2616 13.3045 49.5307C13.0017 48.7998 12.9225 47.9956 13.0769 47.2196C13.2312 46.4437 13.6122 45.731 14.1716 45.1716C14.731 44.6122 15.4437 44.2312 16.2196 44.0769C16.9956 43.9225 17.7998 44.0017 18.5307 44.3045C19.2616 44.6072 19.8864 45.1199 20.3259 45.7777C20.7654 46.4355 21 47.2089 21 48C20.9988 49.0605 20.577 50.0772 19.8271 50.8271C19.0772 51.577 18.0605 51.9988 17 52ZM47 52C46.2089 52 45.4355 51.7654 44.7777 51.3259C44.1199 50.8864 43.6072 50.2616 43.3045 49.5307C43.0017 48.7998 42.9225 47.9956 43.0769 47.2196C43.2312 46.4437 43.6122 45.731 44.1716 45.1716C44.731 44.6122 45.4437 44.2312 46.2196 44.0769C46.9956 43.9225 47.7998 44.0017 48.5307 44.3045C49.2616 44.6072 49.8864 45.1199 50.3259 45.7777C50.7654 46.4355 51 47.2089 51 48C50.9988 49.0605 50.577 50.0772 49.8271 50.8271C49.0772 51.577 48.0605 51.9988 47 52Z" fill="black"/>
</svg>
