<svg width="64" height="64" viewBox="0 0 64 64" fill="none" xmlns="http://www.w3.org/2000/svg">
<rect width="64" height="64" fill="white"/>
<path d="M58 26V38C57.9988 39.0605 57.577 40.0772 56.8271 40.8271C56.0772 41.577 55.0605 41.9988 54 42H42V54C41.9988 55.0605 41.577 56.0772 40.8271 56.8271C40.0772 57.577 39.0605 57.9988 38 58H26C24.9395 57.9988 23.9228 57.577 23.1729 56.8271C22.423 56.0772 22.0012 55.0605 22 54V42H10C8.93951 41.9988 7.9228 41.577 7.17291 40.8271C6.42303 40.0772 6.00121 39.0605 6 38V26C6.00121 24.9395 6.42303 23.9228 7.17291 23.1729C7.9228 22.423 8.93951 22.0012 10 22H22V10C22.0012 8.93951 22.423 7.9228 23.1729 7.17291C23.9228 6.42303 24.9395 6.00121 26 6H38C39.0605 6.00121 40.0772 6.42303 40.8271 7.17291C41.577 7.9228 41.9988 8.93951 42 10V22H54C55.0605 22.0012 56.0772 22.423 56.8271 23.1729C57.577 23.9228 57.9988 24.9395 58 26Z" fill="black"/>
</svg>
