<svg width="64" height="64" viewBox="0 0 64 64" fill="none" xmlns="http://www.w3.org/2000/svg">
<rect width="64" height="64" fill="white"/>
<path d="M44 4H20C18.4093 4.00182 16.8842 4.63454 15.7594 5.75937C14.6345 6.88419 14.0018 8.40926 14 10V54C14.0018 55.5907 14.6345 57.1158 15.7594 58.2406C16.8842 59.3655 18.4093 59.9982 20 60H44C45.5907 59.9982 47.1158 59.3655 48.2406 58.2406C49.3655 57.1158 49.9982 55.5907 50 54V10C49.9982 8.40926 49.3655 6.88419 48.2406 5.75937C47.1158 4.63454 45.5907 4.00182 44 4ZM20 8H44C44.5302 8.00061 45.0386 8.21151 45.4135 8.58646C45.7885 8.9614 45.9994 9.46975 46 10V12H18V10C18.0006 9.46975 18.2115 8.9614 18.5865 8.58646C18.9614 8.21151 19.4698 8.00061 20 8V8ZM44 56H20C19.4698 55.9994 18.9614 55.7885 18.5865 55.4135C18.2115 55.0386 18.0006 54.5302 18 54V52H46V54C45.9994 54.5302 45.7885 55.0386 45.4135 55.4135C45.0386 55.7885 44.5302 55.9994 44 56V56Z" fill="black"/>
</svg>
