<svg width="64" height="64" viewBox="0 0 64 64" fill="none" xmlns="http://www.w3.org/2000/svg">
<rect width="64" height="64" fill="white"/>
<path d="M54.6912 25.925L34.6895 7.74107C33.9548 7.06835 32.9948 6.69524 31.9986 6.69531C31.0025 6.69538 30.0425 7.06861 29.3079 7.74144L9.30959 25.9249C8.89758 26.3001 8.56833 26.7571 8.34289 27.2667C8.11745 27.7763 8.00075 28.3274 8.00027 28.8846V51.9084C7.9888 52.9137 8.34543 53.8884 9.00293 54.6489C9.37751 55.0746 9.83877 55.4154 10.3558 55.6484C10.8728 55.8814 11.4337 56.0012 12.0008 55.9997H23.9915C24.5219 55.9997 25.0306 55.789 25.4057 55.4139C25.7808 55.0389 25.9915 54.5302 25.9915 53.9997V41.9979C25.9915 41.4675 26.2022 40.9588 26.5773 40.5837C26.9523 40.2086 27.461 39.9979 27.9915 39.9979H35.9915C36.5219 39.9979 37.0306 40.2086 37.4057 40.5837C37.7808 40.9588 37.9915 41.4675 37.9915 41.9979V53.9997C37.9915 54.5302 38.2022 55.0389 38.5773 55.4139C38.9523 55.789 39.461 55.9997 39.9915 55.9997H52.0058C52.6629 56.0083 53.3113 55.8486 53.8893 55.5358C54.5273 55.1914 55.0602 54.681 55.4318 54.0585C55.8034 53.436 55.9998 52.7247 56.0003 51.9997V28.8847C55.9997 28.3275 55.8831 27.7765 55.6577 27.2669C55.4323 26.7573 55.1031 26.3003 54.6912 25.925V25.925Z" fill="black"/>
</svg>
