<svg width="64" height="64" viewBox="0 0 64 64" fill="none" xmlns="http://www.w3.org/2000/svg">
<rect width="64" height="64" fill="white"/>
<path d="M60 51.9951H57.9985V25.9951C57.9973 24.9346 57.5755 23.9179 56.8256 23.168C56.0757 22.4181 55.059 21.9963 53.9985 21.9951H37.9985V9.99512C37.9973 8.93462 37.5755 7.91791 36.8256 7.16803C36.0757 6.41815 35.059 5.99633 33.9985 5.99512H9.99854C8.93804 5.99633 7.92133 6.41815 7.17145 7.16803C6.42156 7.91791 5.99975 8.93462 5.99854 9.99512V51.9951H4C3.46957 51.9951 2.96086 52.2058 2.58579 52.5809C2.21071 52.956 2 53.4647 2 53.9951C2 54.5256 2.21071 55.0343 2.58579 55.4093C2.96086 55.7844 3.46957 55.9951 4 55.9951H60C60.5304 55.9951 61.0391 55.7844 61.4142 55.4093C61.7893 55.0343 62 54.5256 62 53.9951C62 53.4647 61.7893 52.956 61.4142 52.5809C61.0391 52.2058 60.5304 51.9951 60 51.9951ZM29.9985 33.9951C29.9985 34.5255 29.7878 35.0343 29.4127 35.4093C29.0377 35.7844 28.529 35.9951 27.9985 35.9951H19.9985C19.4681 35.9951 18.9594 35.7844 18.5843 35.4093C18.2092 35.0343 17.9985 34.5255 17.9985 33.9951C17.9985 33.4647 18.2092 32.956 18.5843 32.5809C18.9594 32.2058 19.4681 31.9951 19.9985 31.9951H27.9985C28.529 31.9951 29.0377 32.2058 29.4127 32.5809C29.7878 32.956 29.9985 33.4647 29.9985 33.9951ZM15.9985 15.9951H23.9985C24.529 15.9951 25.0377 16.2058 25.4127 16.5809C25.7878 16.956 25.9985 17.4647 25.9985 17.9951C25.9985 18.5256 25.7878 19.0343 25.4127 19.4093C25.0377 19.7844 24.529 19.9951 23.9985 19.9951H15.9985C15.4681 19.9951 14.9594 19.7844 14.5843 19.4093C14.2092 19.0343 13.9985 18.5256 13.9985 17.9951C13.9985 17.4647 14.2092 16.956 14.5843 16.5809C14.9594 16.2058 15.4681 15.9951 15.9985 15.9951V15.9951ZM15.9985 41.9951H23.9985C24.529 41.9951 25.0377 42.2058 25.4127 42.5809C25.7878 42.956 25.9985 43.4647 25.9985 43.9951C25.9985 44.5256 25.7878 45.0343 25.4127 45.4093C25.0377 45.7844 24.529 45.9951 23.9985 45.9951H15.9985C15.4681 45.9951 14.9594 45.7844 14.5843 45.4093C14.2092 45.0343 13.9985 44.5256 13.9985 43.9951C13.9985 43.4647 14.2092 42.956 14.5843 42.5809C14.9594 42.2058 15.4681 41.9951 15.9985 41.9951ZM37.9985 25.9951H53.9985V51.9951H37.9985V25.9951Z" fill="black"/>
<path d="M48 41.9951H44C43.4696 41.9951 42.9609 42.2058 42.5858 42.5809C42.2107 42.956 42 43.4647 42 43.9951C42 44.5256 42.2107 45.0343 42.5858 45.4093C42.9609 45.7844 43.4696 45.9951 44 45.9951H48C48.5304 45.9951 49.0391 45.7844 49.4142 45.4093C49.7893 45.0343 50 44.5256 50 43.9951C50 43.4647 49.7893 42.956 49.4142 42.5809C49.0391 42.2058 48.5304 41.9951 48 41.9951Z" fill="black"/>
<path d="M44 35.9951H48C48.5304 35.9951 49.0391 35.7844 49.4142 35.4093C49.7893 35.0343 50 34.5255 50 33.9951C50 33.4647 49.7893 32.956 49.4142 32.5809C49.0391 32.2058 48.5304 31.9951 48 31.9951H44C43.4696 31.9951 42.9609 32.2058 42.5858 32.5809C42.2107 32.956 42 33.4647 42 33.9951C42 34.5255 42.2107 35.0343 42.5858 35.4093C42.9609 35.7844 43.4696 35.9951 44 35.9951Z" fill="black"/>
</svg>
