<svg width="64" height="64" viewBox="0 0 64 64" fill="none" xmlns="http://www.w3.org/2000/svg">
<rect width="64" height="64" fill="white"/>
<path d="M32.9795 6.02052C30.0792 10.0936 29.9996 13.97 29.9991 14.0112C30.002 14.5407 30.2148 15.0474 30.5907 15.4203C30.9667 15.7931 31.4751 16.0017 32.0046 16.0002C32.5341 15.9988 33.0414 15.7874 33.4153 15.4125C33.7892 15.0376 33.9991 14.5297 33.9991 14.0002C33.9991 13.4698 34.2098 12.9611 34.5849 12.586C34.96 12.2109 35.4687 12.0002 35.9991 12.0002C36.5296 12.0002 37.0383 12.2109 37.4133 12.586C37.7884 12.9611 37.9991 13.4698 37.9991 14.0002C37.9991 15.5915 37.367 17.1176 36.2418 18.2428C35.1165 19.3681 33.5904 20.0002 31.9991 20.0002C30.4078 20.0002 28.8817 19.3681 27.7565 18.2428C26.6313 17.1176 25.9991 15.5915 25.9991 14.0002C25.9991 13.818 26.0304 10.394 28.1434 6.28651C21.5269 7.27412 15.5452 10.7726 11.4407 16.0553C7.33627 21.338 5.42463 27.9988 6.10287 34.6542C6.78111 41.3095 9.99711 47.4478 15.0828 51.7939C20.1686 56.14 26.7331 58.36 33.4128 57.9926C40.0925 57.6251 46.3739 54.6986 50.9523 49.821C55.5307 44.9433 58.054 38.4893 57.9983 31.7998C57.9425 25.1102 55.3119 18.6992 50.6528 13.8985C45.9937 9.09785 39.6644 6.27649 32.9795 6.02051V6.02052ZM19.9991 32.0002C19.9991 31.4068 20.1751 30.8268 20.5047 30.3335C20.8344 29.8401 21.3029 29.4556 21.8511 29.2286C22.3993 29.0015 23.0025 28.9421 23.5844 29.0578C24.1663 29.1736 24.7009 29.4593 25.1204 29.8789C25.54 30.2984 25.8257 30.833 25.9415 31.4149C26.0572 31.9969 25.9978 32.6001 25.7708 33.1482C25.5437 33.6964 25.1592 34.165 24.6658 34.4946C24.1725 34.8242 23.5925 35.0002 22.9991 35.0002C22.2035 35.0002 21.4404 34.6841 20.8778 34.1215C20.3152 33.5589 19.9991 32.7958 19.9991 32.0002ZM39.7408 43.6664C37.4458 45.1884 34.7531 46.0001 31.9993 46.0002C29.2456 46.0002 26.5528 45.1886 24.2578 43.6667C24.0391 43.5213 23.8511 43.3342 23.7047 43.1162C23.5583 42.8982 23.4562 42.6535 23.4044 42.396C23.3525 42.1385 23.3519 41.8734 23.4025 41.6156C23.4532 41.3579 23.554 41.1127 23.6994 40.894C23.9931 40.4523 24.4502 40.1453 24.9702 40.0406C25.2276 39.9887 25.4928 39.9881 25.7505 40.0387C26.0082 40.0893 26.2534 40.1902 26.4721 40.3356C28.1111 41.4213 30.0335 42.0002 31.9994 42.0002C33.9653 42.0001 35.8877 41.4211 37.5266 40.3354C37.7453 40.19 37.9905 40.0891 38.2482 40.0385C38.5059 39.9879 38.7711 39.9885 39.0286 40.0404C39.286 40.0922 39.5308 40.1943 39.7488 40.3407C39.9668 40.4871 40.1538 40.6751 40.2992 40.8938C40.4446 41.1125 40.5455 41.3577 40.5961 41.6154C40.6467 41.8731 40.6461 42.1383 40.5943 42.3958C40.5424 42.6532 40.4404 42.898 40.2939 43.116C40.1475 43.334 39.9595 43.5211 39.7408 43.6664V43.6664ZM40.9991 35.0002C40.4058 35.0002 39.8258 34.8242 39.3324 34.4946C38.8391 34.165 38.4545 33.6964 38.2275 33.1482C38.0004 32.6001 37.941 31.9969 38.0568 31.4149C38.1725 30.833 38.4582 30.2984 38.8778 29.8789C39.2974 29.4593 39.8319 29.1736 40.4139 29.0578C40.9958 28.9421 41.599 29.0015 42.1472 29.2286C42.6953 29.4556 43.1639 29.8401 43.4935 30.3335C43.8232 30.8268 43.9991 31.4068 43.9991 32.0002C43.9991 32.7958 43.6831 33.5589 43.1204 34.1215C42.5578 34.6841 41.7948 35.0002 40.9991 35.0002Z" fill="black"/>
</svg>
