<svg width="64" height="64" viewBox="0 0 64 64" fill="none" xmlns="http://www.w3.org/2000/svg">
<rect width="64" height="64" fill="white"/>
<path d="M19.4371 10.8983C19.2351 10.4084 19.2357 9.85839 19.4389 9.36897C19.6421 8.87956 20.0311 8.49077 20.5207 8.28799C21.0103 8.0852 21.5603 8.08499 22.05 8.2874C22.5398 8.48981 22.9292 8.8783 23.1327 9.36755L25.046 13.9869C25.147 14.2297 25.1991 14.4899 25.1994 14.7528C25.1997 15.0158 25.1482 15.2761 25.0478 15.5191C24.9474 15.7621 24.8 15.9829 24.6142 16.1688C24.4284 16.3548 24.2077 16.5023 23.9648 16.6029C23.7219 16.7035 23.4616 16.7553 23.1987 16.7552C22.9357 16.7551 22.6754 16.7031 22.4326 16.6023C22.1898 16.5015 21.9692 16.3539 21.7836 16.1678C21.5979 15.9816 21.4507 15.7607 21.3505 15.5177L19.4371 10.8983ZM5.36597 27.1341L9.98535 29.0475C10.2281 29.1484 10.4883 29.2005 10.7512 29.2008C11.014 29.2011 11.2744 29.1495 11.5173 29.0491C11.7602 28.9487 11.981 28.8013 12.1669 28.6155C12.3528 28.4297 12.5003 28.2091 12.6009 27.9662C12.7015 27.7234 12.7533 27.4631 12.7532 27.2002C12.7531 26.9374 12.7012 26.6771 12.6004 26.4343C12.4997 26.1915 12.352 25.971 12.166 25.7853C11.9799 25.5996 11.7591 25.4524 11.5161 25.3522L6.89673 23.4388C6.65401 23.3379 6.39379 23.2858 6.13092 23.2855C5.86806 23.2852 5.60772 23.3368 5.3648 23.4372C5.12187 23.5376 4.90113 23.685 4.71519 23.8708C4.52925 24.0566 4.38176 24.2772 4.28116 24.5201C4.18057 24.7629 4.12883 25.0232 4.12891 25.2861C4.129 25.5489 4.1809 25.8092 4.28165 26.052C4.38241 26.2948 4.53003 26.5153 4.71609 26.701C4.90215 26.8867 5.12299 27.0339 5.36598 27.1341L5.36597 27.1341ZM53.25 29.2003C53.5125 29.2002 53.7723 29.1483 54.0146 29.0475L58.634 27.1341C58.877 27.0339 59.0979 26.8867 59.2839 26.701C59.47 26.5153 59.6176 26.2948 59.7184 26.052C59.8191 25.8092 59.871 25.5489 59.8711 25.2861C59.8712 25.0232 59.8194 24.7629 59.7188 24.5201C59.6182 24.2772 59.4708 24.0566 59.2848 23.8708C59.0989 23.685 58.8781 23.5376 58.6352 23.4372C58.3923 23.3368 58.1319 23.2853 57.8691 23.2855C57.6062 23.2858 57.346 23.3379 57.1033 23.4388L52.4839 25.3522C52.0564 25.5293 51.7035 25.8492 51.4854 26.2574C51.2673 26.6656 51.1975 27.1367 51.2878 27.5906C51.3782 28.0445 51.6231 28.453 51.9809 28.7465C52.3387 29.04 52.7872 29.2004 53.25 29.2003ZM40.0364 16.6C40.279 16.7007 40.5391 16.7527 40.8018 16.7528C41.0645 16.7529 41.3247 16.7013 41.5674 16.6007C41.8101 16.5002 42.0306 16.3528 42.2163 16.167C42.402 15.9811 42.5492 15.7605 42.6495 15.5177L44.5629 10.8983C44.7649 10.4084 44.7643 9.85839 44.5611 9.36897C44.3579 8.87956 43.9689 8.49077 43.4793 8.28799C42.9897 8.0852 42.4397 8.08499 41.95 8.2874C41.4602 8.48981 41.0708 8.8783 40.8673 9.36755L38.954 13.9869C38.8535 14.2296 38.8017 14.4896 38.8017 14.7523C38.8017 15.0149 38.8534 15.275 38.954 15.5176C39.0545 15.7603 39.2018 15.9808 39.3875 16.1665C39.5732 16.3522 39.7937 16.4995 40.0364 16.6ZM60 38.0016H48.8808C49.1648 35.6163 48.94 33.198 48.2214 30.9059C47.5027 28.6138 46.3065 26.5001 44.7115 24.704C43.1165 22.9078 41.159 21.4701 38.968 20.4856C36.7769 19.501 34.4021 18.9919 32 18.9919C29.5979 18.9919 27.2231 19.501 25.032 20.4856C22.841 21.4701 20.8835 22.9078 19.2885 24.704C17.6935 26.5001 16.4973 28.6138 15.7786 30.9059C15.06 33.198 14.8352 35.6163 15.1192 38.0016H4C3.46957 38.0016 2.96086 38.2123 2.58579 38.5874C2.21071 38.9624 2 39.4711 2 40.0016C2 40.532 2.21071 41.0407 2.58579 41.4158C2.96086 41.7909 3.46957 42.0016 4 42.0016H46.4545L46.4618 42.0021L46.4677 42.0016H60C60.5304 42.0016 61.0391 41.7909 61.4142 41.4158C61.7893 41.0407 62 40.532 62 40.0016C62 39.4711 61.7893 38.9624 61.4142 38.5874C61.0391 38.2123 60.5304 38.0016 60 38.0016ZM52 48.0016H12C11.4696 48.0016 10.9609 48.2123 10.5858 48.5874C10.2107 48.9624 10 49.4711 10 50.0016C10 50.532 10.2107 51.0407 10.5858 51.4158C10.9609 51.7909 11.4696 52.0016 12 52.0016H52C52.5304 52.0016 53.0391 51.7909 53.4142 51.4158C53.7893 51.0407 54 50.532 54 50.0016C54 49.4711 53.7893 48.9624 53.4142 48.5874C53.0391 48.2123 52.5304 48.0016 52 48.0016Z" fill="black"/>
</svg>
