<svg width="64" height="64" viewBox="0 0 64 64" fill="none" xmlns="http://www.w3.org/2000/svg">
<rect width="64" height="64" fill="white"/>
<path d="M53.7546 21.5585L46.3027 28.5556L53.8523 49.3164C53.9823 49.6741 54.0076 50.0615 53.9252 50.4331C53.8427 50.8047 53.656 51.1451 53.3868 51.4143L47.3868 57.4143C47.179 57.6222 46.9278 57.7817 46.6513 57.8814C46.3747 57.9812 46.0796 58.0187 45.7868 57.9914C45.4941 57.9641 45.211 57.8725 44.9577 57.7233C44.7044 57.5741 44.4871 57.3709 44.3213 57.1281L33.6746 41.5439L28.9727 45.8766V50.9999C28.9727 51.5304 28.7619 52.0391 28.3868 52.4142L23.3868 57.4142C23.1464 57.6547 22.8486 57.8299 22.5217 57.9232C22.1947 58.0165 21.8493 58.025 21.5182 57.9477C21.187 57.8704 20.8811 57.71 20.6292 57.4816C20.3773 57.2532 20.1878 56.9643 20.0786 56.6423L16.8477 47.1142L7.33166 43.8945C7.00945 43.7854 6.72038 43.596 6.49177 43.3441C6.26316 43.0923 6.10255 42.7863 6.02514 42.455C5.94773 42.1238 5.95607 41.7783 6.04937 41.4512C6.14267 41.1241 6.31784 40.8262 6.55834 40.5856L11.5583 35.5856C11.9335 35.2106 12.4422 35 12.9727 34.9999H18.1443L22.8334 30.3107L6.86329 19.664C6.6171 19.4999 6.41038 19.2831 6.25806 19.0294C6.10574 18.7758 6.0116 18.4914 5.98243 18.197C5.95327 17.9025 5.98979 17.6052 6.08939 17.3266C6.18898 17.048 6.34915 16.7949 6.55836 16.5856L12.5584 10.5856C12.8276 10.3166 13.1679 10.1299 13.5395 10.0475C13.9111 9.96503 14.2984 9.99031 14.6561 10.1203L35.4218 17.6716L42.0733 10.6364C42.1446 10.5311 42.2259 10.4328 42.3159 10.343C43.7765 8.88253 45.7453 8.04357 47.8103 8.00165C49.8753 7.95973 51.8765 8.71808 53.3951 10.118C54.9137 11.518 55.8321 13.451 55.9579 15.5126C56.0838 17.5742 55.4075 19.6046 54.0705 21.1789C53.9812 21.318 53.8751 21.4455 53.7546 21.5585V21.5585Z" fill="black"/>
</svg>
