<svg width="64" height="64" viewBox="0 0 64 64" fill="none" xmlns="http://www.w3.org/2000/svg">
<g clip-path="url(#clip0_180:22230)">
<rect width="64" height="64" fill="white"/>
<path d="M45.2046 52.2603C46.59 51.6579 47.9273 50.9503 49.2046 50.1436V59.8622C49.2046 60.3927 48.9939 60.9014 48.6188 61.2765C48.2437 61.6515 47.735 61.8622 47.2046 61.8622C46.6742 61.8622 46.1654 61.6515 45.7904 61.2765C45.4153 60.9014 45.2046 60.3927 45.2046 59.8622V52.2603ZM30.4399 22.9211C30.3163 23.1528 30.2396 23.4066 30.2141 23.668C30.1886 23.9294 30.2148 24.1933 30.2913 24.4445C30.3678 24.6958 30.493 24.9295 30.6598 25.1324C30.8266 25.3353 31.0317 25.5033 31.2634 25.6269L42.9547 31.8622L47.2046 29.5956L33.1458 22.0976C32.914 21.9739 32.6602 21.8971 32.3988 21.8716C32.1374 21.8461 31.8735 21.8723 31.6222 21.9487C31.371 22.0252 31.1372 22.1505 30.9344 22.3173C30.7315 22.4841 30.5635 22.6893 30.4399 22.9211ZM63.1458 22.0976L33.1458 6.0976C32.8561 5.94311 32.5329 5.8623 32.2046 5.8623C31.8763 5.8623 31.5531 5.94311 31.2634 6.0976L1.26343 22.0976C0.943584 22.2682 0.676111 22.5225 0.489609 22.8333C0.303108 23.1441 0.20459 23.4998 0.20459 23.8622C0.20459 24.2247 0.303108 24.5804 0.489609 24.8912C0.676111 25.202 0.943584 25.4563 1.26343 25.6269L7.20459 28.7955V41.2258C7.20562 42.0903 7.4857 42.9315 8.00318 43.6241C9.98438 46.2604 17.5845 54.8622 32.2046 54.8622C36.6724 54.9031 41.0998 54.0129 45.2046 52.2484V33.0622L42.9547 31.8622L32.2046 37.5956L10.1637 25.8405L10.1494 25.8328L6.45459 23.8622L32.2046 10.1288L57.9546 23.8622L54.2598 25.8328L54.2455 25.8405L47.2046 29.5956L48.1458 30.0976C48.4638 30.2703 48.7297 30.5251 48.9159 30.8355C49.1022 31.1458 49.2018 31.5003 49.2046 31.8622V50.1289C51.9702 48.4029 54.4083 46.2007 56.4058 43.6243C56.9234 42.9317 57.2036 42.0905 57.2046 41.2258V28.7955L63.1458 25.6269C63.4656 25.4563 63.7331 25.202 63.9196 24.8912C64.1061 24.5804 64.2046 24.2247 64.2046 23.8622C64.2046 23.4997 64.1061 23.1441 63.9196 22.8333C63.7331 22.5224 63.4656 22.2682 63.1458 22.0976V22.0976Z" fill="black"/>
</g>
<defs>
<clipPath id="clip0_180:22230">
<rect width="64" height="64" fill="white"/>
</clipPath>
</defs>
</svg>
