<svg width="64" height="64" viewBox="0 0 64 64" fill="none" xmlns="http://www.w3.org/2000/svg">
<g clip-path="url(#clip0_180:22236)">
<rect width="64" height="64" fill="white"/>
<path fill-rule="evenodd" clip-rule="evenodd" d="M31.877 39.748C29.1256 39.748 26.48 40.8085 24.4903 42.709C23.6916 43.472 22.4256 43.4429 21.6626 42.6442C20.8997 41.8455 20.9287 40.5795 21.7275 39.8165C24.4613 37.2052 28.0964 35.748 31.877 35.748C35.6576 35.748 39.2927 37.2052 42.0266 39.8165C42.8253 40.5795 42.8543 41.8455 42.0914 42.6442C41.3284 43.4429 40.0624 43.472 39.2637 42.709C37.2741 40.8085 34.6285 39.748 31.877 39.748Z" fill="black"/>
<path fill-rule="evenodd" clip-rule="evenodd" d="M31.8779 27.748C25.9518 27.748 20.261 30.0666 16.0222 34.208C15.2321 34.98 13.9659 34.9652 13.194 34.1752C12.422 33.3851 12.4368 32.1189 13.2268 31.3469C18.2129 26.4754 24.9071 23.748 31.8779 23.748C38.8488 23.748 45.5429 26.4754 50.529 31.3469C51.3191 32.1189 51.3338 33.3851 50.5619 34.1752C49.79 34.9652 48.5237 34.98 47.7336 34.208C43.4949 30.0666 37.804 27.748 31.8779 27.748Z" fill="black"/>
<path fill-rule="evenodd" clip-rule="evenodd" d="M31.8771 15.748C22.7732 15.748 14.0346 19.3288 7.54844 25.7171C6.76148 26.4922 5.49518 26.4826 4.72009 25.6956C3.94501 24.9087 3.95464 23.6424 4.7416 22.8673C11.9761 15.742 21.7229 11.748 31.8771 11.748C42.0313 11.748 51.7781 15.742 59.0126 22.8673C59.7996 23.6424 59.8092 24.9087 59.0341 25.6956C58.2591 26.4826 56.9928 26.4922 56.2058 25.7171C49.7196 19.3288 40.981 15.748 31.8771 15.748Z" fill="black"/>
<path d="M31.8794 52.748C33.5362 52.748 34.8794 51.4049 34.8794 49.748C34.8794 48.0912 33.5362 46.748 31.8794 46.748C30.2225 46.748 28.8794 48.0912 28.8794 49.748C28.8794 51.4049 30.2225 52.748 31.8794 52.748Z" fill="black"/>
</g>
<defs>
<clipPath id="clip0_180:22236">
<rect width="64" height="64" fill="white"/>
</clipPath>
</defs>
</svg>
