<svg width="32" height="32" viewBox="0 0 32 32" fill="none" xmlns="http://www.w3.org/2000/svg">
<path d="M26.1908 10.0526L21.9844 14.0023L25.9844 25.0023L22.9844 28.0023L17.0084 19.2549L13.9844 22.0023V25.0023L10.9844 28.0023L9.21032 22.7706L3.98438 21.0023L6.98438 18.0023H9.98438L12.9844 15.0023L3.98438 9.00233L6.98438 6.00233L17.9844 10.0023L21.9482 5.80994L21.8631 5.88101C22.1415 5.60193 22.4723 5.38048 22.8364 5.22931C23.2005 5.07814 23.5908 5.00022 23.9851 5C24.3793 4.99978 24.7697 5.07728 25.134 5.22805C25.4983 5.37882 25.8293 5.59991 26.108 5.87868C26.3868 6.15745 26.6079 6.48844 26.7587 6.85271C26.9094 7.21699 26.9869 7.60741 26.9867 8.00165C26.9865 8.39589 26.9086 8.78623 26.7574 9.15034C26.6062 9.51444 26.3848 9.84519 26.1057 10.1237L26.1908 10.0526Z" stroke="black" stroke-width="1.5" stroke-linecap="round" stroke-linejoin="round"/>
</svg>
