<svg width="664" height="408" viewBox="0 0 664 408" fill="none" xmlns="http://www.w3.org/2000/svg">
<g clip-path="url(#clip0_517_7567)">
<path d="M17.9234 -413.644L-791.32 128.912M56.9058 -387.702L-752.337 154.854M95.889 -361.76L-713.354 180.797M135.208 -335.594L-674.035 206.963M174.19 -309.652L-635.053 232.905M213.173 -283.709L-596.069 258.848M252.157 -257.766L-557.086 284.79M291.139 -231.824L-518.104 310.732M330.458 -205.658L-478.785 336.898M369.441 -179.715L-439.802 362.841M408.424 -153.773L-400.819 388.783M447.407 -127.831L-361.836 414.726M486.726 -101.664L-322.517 440.892M525.709 -75.7218L-283.534 466.835M564.691 -49.7797L-244.552 492.777M603.675 -23.837L-205.568 518.719M642.657 2.10513L-166.586 544.662M681.977 28.2717L-127.267 570.828M720.957 54.2122L-88.2865 596.769M759.946 80.1588L-49.2973 622.715M-796.698 80.0277L23.2849 625.712M-757.641 53.8422L62.3408 599.527M-718.587 27.6584L101.396 573.343M-679.533 1.47453L140.45 547.159M-640.479 -24.7093L179.504 520.975M-601.425 -50.8931L218.558 494.792M-562.37 -77.077L257.612 468.608M-523.316 -103.261L296.666 442.424M-484.262 -129.445L335.721 416.24M-445.208 -155.628L374.775 390.056M-406.154 -181.812L413.829 363.872M-367.1 -207.996L452.883 337.689M-328.046 -234.18L491.937 311.505M-288.991 -260.364L530.991 285.321M-249.937 -286.548L570.046 259.137M-210.883 -312.731L609.1 232.953M-171.829 -338.915L648.154 206.769M-132.775 -365.099L687.208 180.586M-93.7207 -391.283L726.262 154.402M-54.6666 -417.467L765.316 128.218" stroke="url(#paint0_radial_517_7567)" stroke-opacity="0.8"/>
<path d="M17.9234 -413.644L-791.32 128.912M56.9058 -387.702L-752.337 154.854M95.889 -361.76L-713.354 180.797M135.208 -335.594L-674.035 206.963M174.19 -309.652L-635.053 232.905M213.173 -283.709L-596.069 258.848M252.157 -257.766L-557.086 284.79M291.139 -231.824L-518.104 310.732M330.458 -205.658L-478.785 336.898M369.441 -179.715L-439.802 362.841M408.424 -153.773L-400.819 388.783M447.407 -127.831L-361.836 414.726M486.726 -101.664L-322.517 440.892M525.709 -75.7218L-283.534 466.835M564.691 -49.7797L-244.552 492.777M603.675 -23.837L-205.568 518.719M642.657 2.10513L-166.586 544.662M681.977 28.2717L-127.267 570.828M720.957 54.2122L-88.2865 596.769M759.946 80.1588L-49.2973 622.715M-796.698 80.0277L23.2849 625.712M-757.641 53.8422L62.3408 599.527M-718.587 27.6584L101.396 573.343M-679.533 1.47453L140.45 547.159M-640.479 -24.7093L179.504 520.975M-601.425 -50.8931L218.558 494.792M-562.37 -77.077L257.612 468.608M-523.316 -103.261L296.666 442.424M-484.262 -129.445L335.721 416.24M-445.208 -155.628L374.775 390.056M-406.154 -181.812L413.829 363.872M-367.1 -207.996L452.883 337.689M-328.046 -234.18L491.937 311.505M-288.991 -260.364L530.991 285.321M-249.937 -286.548L570.046 259.137M-210.883 -312.731L609.1 232.953M-171.829 -338.915L648.154 206.769M-132.775 -365.099L687.208 180.586M-93.7207 -391.283L726.262 154.402M-54.6666 -417.467L765.316 128.218" stroke="url(#paint1_radial_517_7567)" stroke-opacity="0.7"/>
<path d="M252.171 148.135C255.383 145.982 260.597 145.973 263.816 148.115L345.041 202.169C348.26 204.311 348.266 207.794 345.054 209.948L264.016 264.279C260.804 266.433 255.59 266.442 252.37 264.299L171.146 210.246C167.926 208.104 167.92 204.621 171.132 202.467L252.171 148.135Z" fill="#F9FAFB" stroke="#C9C9C9" stroke-width="2"/>
<path d="M252.171 116.442C255.384 114.289 260.597 114.28 263.817 116.422L345.041 170.476C348.261 172.618 348.267 176.101 345.055 178.255L264.017 232.587C260.804 234.74 255.59 234.749 252.371 232.607L171.147 178.553C167.927 176.411 167.921 172.928 171.133 170.774L252.171 116.442Z" fill="#F9FAFB"/>
<path d="M252.171 116.442C255.384 114.289 260.597 114.28 263.817 116.422L345.041 170.476C348.261 172.618 348.267 176.101 345.055 178.255L264.017 232.587C260.804 234.74 255.59 234.749 252.371 232.607L171.147 178.553C167.927 176.411 167.921 172.928 171.133 170.774L252.171 116.442Z" fill="url(#paint2_linear_517_7567)" fill-opacity="0.7"/>
<path d="M252.171 116.442C255.384 114.289 260.597 114.28 263.817 116.422L345.041 170.476C348.261 172.618 348.267 176.101 345.055 178.255L264.017 232.587C260.804 234.74 255.59 234.749 252.371 232.607L171.147 178.553C167.927 176.411 167.921 172.928 171.133 170.774L252.171 116.442Z" fill="url(#paint3_radial_517_7567)"/>
<path d="M252.171 116.442C255.384 114.289 260.597 114.28 263.817 116.422L345.041 170.476C348.261 172.618 348.267 176.101 345.055 178.255L264.017 232.587C260.804 234.74 255.59 234.749 252.371 232.607L171.147 178.553C167.927 176.411 167.921 172.928 171.133 170.774L252.171 116.442Z" stroke="#C9C9C9" stroke-width="2"/>
<path d="M462.533 258.283C463.909 257.358 466.142 257.354 467.52 258.274L532.771 301.81C534.15 302.73 534.152 304.225 532.777 305.15L467.675 348.91C466.3 349.835 464.067 349.839 462.688 348.919L397.438 305.383C396.059 304.463 396.056 302.968 397.432 302.043L462.533 258.283Z" fill="#F9FAFB" stroke="url(#paint4_linear_517_7567)" stroke-width="2"/>
<path d="M462.689 231.198C463.29 230.794 464.133 230.561 465.026 230.56C465.919 230.558 466.762 230.788 467.365 231.19L533.477 275.3C534.071 275.697 534.234 276.116 534.234 276.406C534.235 276.697 534.073 277.117 533.481 277.515L467.52 321.853C466.919 322.257 466.076 322.49 465.183 322.491C464.29 322.493 463.446 322.263 462.844 321.861L396.732 277.751C396.138 277.354 395.975 276.935 395.975 276.645C395.974 276.354 396.135 275.934 396.728 275.536L462.689 231.198Z" fill="#F9FAFB" stroke="url(#paint5_linear_517_7567)" stroke-width="2"/>
<path d="M439.533 30.2828C440.909 29.3582 443.142 29.3543 444.52 30.2742L509.771 73.8102C511.15 74.73 511.152 76.2253 509.777 77.15L444.675 120.91C443.3 121.835 441.067 121.839 439.688 120.919L374.438 77.383C373.059 76.4631 373.056 74.9678 374.432 74.0432L439.533 30.2828Z" fill="#F9FAFB" stroke="url(#paint6_linear_517_7567)" stroke-width="2"/>
<path d="M439.689 3.19766C440.29 2.79361 441.133 2.56136 442.026 2.55982C442.919 2.55829 443.762 2.78764 444.365 3.18962L510.477 47.3002C511.071 47.6967 511.234 48.1161 511.234 48.4065C511.235 48.6968 511.073 49.1169 510.481 49.5154L444.52 93.8534C443.919 94.2574 443.076 94.4897 442.183 94.4912C441.29 94.4927 440.446 94.2634 439.844 93.8614L373.732 49.7508C373.138 49.3544 372.975 48.9349 372.975 48.6445C372.974 48.3542 373.135 47.9341 373.728 47.5357L439.689 3.19766Z" fill="#F9FAFB" stroke="url(#paint7_linear_517_7567)" stroke-width="2"/>
<g clip-path="url(#clip1_517_7567)">
<path d="M225.592 174.102C225.416 174.216 225.279 174.354 225.189 174.505C225.099 174.656 225.059 174.817 225.071 174.977C225.084 175.137 225.148 175.291 225.261 175.43C225.373 175.568 225.531 175.688 225.722 175.779L260.042 192.083C260.463 192.282 260.982 192.372 261.506 192.338C262.031 192.304 262.528 192.147 262.911 191.896L287.096 175.773C287.384 175.585 287.566 175.338 287.609 175.075C287.652 174.812 287.553 174.551 287.329 174.34L262.762 151.093C262.626 150.965 262.449 150.859 262.242 150.783C262.035 150.707 261.805 150.664 261.566 150.655C261.327 150.646 261.086 150.672 260.86 150.732C260.634 150.791 260.428 150.883 260.257 151L225.592 174.102ZM267.981 174.163L260.261 179.309L247.724 173.686L259.404 165.899L267.981 174.163Z" fill="#2684FF"/>
<path d="M270.549 158.469L259.404 165.899L267.98 174.163L260.261 179.309L261.497 192.337C262.025 192.305 262.526 192.149 262.911 191.896L287.102 175.769C287.39 175.582 287.572 175.334 287.615 175.071C287.658 174.808 287.558 174.547 287.335 174.336L270.549 158.469Z" fill="url(#paint8_linear_517_7567)"/>
</g>
</g>
<defs>
<radialGradient id="paint0_radial_517_7567" cx="0" cy="0" r="1" gradientUnits="userSpaceOnUse" gradientTransform="translate(-233.389 202.711) rotate(-168.068) scale(233.418 176.005)">
<stop stop-color="#CAD1DF"/>
<stop offset="1" stop-color="#DBE2F0" stop-opacity="0"/>
</radialGradient>
<radialGradient id="paint1_radial_517_7567" cx="0" cy="0" r="1" gradientUnits="userSpaceOnUse" gradientTransform="translate(310.688 244.364) rotate(-58.9283) scale(287.759 216.98)">
<stop stop-color="#BEC4D1"/>
<stop offset="1" stop-color="#DBE2F0" stop-opacity="0"/>
</radialGradient>
<linearGradient id="paint2_linear_517_7567" x1="195.105" y1="153.59" x2="256.117" y2="244.591" gradientUnits="userSpaceOnUse">
<stop stop-color="#7048E8"/>
<stop offset="0.308435" stop-color="#4AC1E8"/>
<stop offset="0.626149" stop-color="#A112FF"/>
<stop offset="1" stop-color="#FF5543"/>
</linearGradient>
<radialGradient id="paint3_radial_517_7567" cx="0" cy="0" r="1" gradientUnits="userSpaceOnUse" gradientTransform="translate(262.076 171) rotate(135.634) scale(95.8188 88.5549)">
<stop offset="0.300294" stop-color="#F9FAFB"/>
<stop offset="0.813568" stop-color="#F9FAFB" stop-opacity="0.818127"/>
<stop offset="1" stop-color="#F9FAFB" stop-opacity="0.6"/>
</radialGradient>
<linearGradient id="paint4_linear_517_7567" x1="512.213" y1="297.662" x2="427.754" y2="322.725" gradientUnits="userSpaceOnUse">
<stop stop-color="#C9C9C9" stop-opacity="0"/>
<stop offset="1" stop-color="#C9C9C9"/>
</linearGradient>
<linearGradient id="paint5_linear_517_7567" x1="528.076" y1="336" x2="405.576" y2="277" gradientUnits="userSpaceOnUse">
<stop stop-color="#C9C9C9" stop-opacity="0"/>
<stop offset="1" stop-color="#C9C9C9"/>
</linearGradient>
<linearGradient id="paint6_linear_517_7567" x1="489.213" y1="69.6619" x2="404.754" y2="94.7247" gradientUnits="userSpaceOnUse">
<stop stop-color="#C9C9C9" stop-opacity="0"/>
<stop offset="1" stop-color="#C9C9C9"/>
</linearGradient>
<linearGradient id="paint7_linear_517_7567" x1="479.576" y1="12" x2="442.104" y2="95.4912" gradientUnits="userSpaceOnUse">
<stop stop-color="#C9C9C9" stop-opacity="0"/>
<stop offset="1" stop-color="#C9C9C9"/>
</linearGradient>
<linearGradient id="paint8_linear_517_7567" x1="276.052" y1="158.716" x2="274.522" y2="180.453" gradientUnits="userSpaceOnUse">
<stop offset="0.18" stop-color="#0052CC"/>
<stop offset="1" stop-color="#2684FF"/>
</linearGradient>
<clipPath id="clip0_517_7567">
<rect width="664" height="408" fill="white"/>
</clipPath>
<clipPath id="clip1_517_7567">
<rect width="53.4096" height="51.2146" fill="white" transform="matrix(0.83205 -0.5547 0.830139 0.557556 215.371 173.803)"/>
</clipPath>
</defs>
</svg>
