<svg width="170" height="35" xmlns="http://www.w3.org/2000/svg" xmlns:xlink="http://www.w3.org/1999/xlink"><use xlink:href="#a" transform="translate(32.28 5.4)" fill="#233043"/><use xlink:href="#b" transform="translate(43.289 5.4)" fill="#233043"/><use xlink:href="#c" transform="translate(58.023 5.8)" fill="#233043"/><use xlink:href="#d" transform="translate(72.183 5.7)" fill="#233043"/><use xlink:href="#e" transform="translate(80.417 5.4)" fill="#233043"/><use xlink:href="#f" transform="translate(93.44 5.4)" fill="#233043"/><use xlink:href="#g" transform="translate(106.705 5.5)" fill="#233043"/><use xlink:href="#h" transform="translate(121.883 5.7)" fill="#233043"/><use xlink:href="#i" transform="translate(130.49 5.4)" fill="#233043"/><use xlink:href="#j" transform="translate(144.104 5.5)" fill="#233043"/><use xlink:href="#k" transform="translate(158.787)" fill="#233043"/><use xlink:href="#l" transform="translate(6.663 .1)" fill="#FF5543"/><use xlink:href="#m" transform="translate(2.766 2.3)" fill="#B200F8"/><use xlink:href="#n" transform="translate(0 6.5)" fill="#00CBEC"/><use xlink:href="#o" transform="translate(32 27.1)" fill="#FF5543"/><use xlink:href="#p" transform="translate(38.655 27.1)" fill="#FF5543"/><use xlink:href="#q" transform="translate(45.946 27.1)" fill="#FF5543"/><use xlink:href="#r" transform="translate(54.08 27.1)" fill="#FF5543"/><use xlink:href="#s" transform="translate(59.429 27.1)" fill="#FF5543"/><use xlink:href="#t" transform="translate(65.516 27.1)" fill="#FF5543"/><use xlink:href="#u" transform="translate(72.11 27.1)" fill="#FF5543"/><use xlink:href="#v" transform="translate(78.885 27.1)" fill="#FF5543"/><use xlink:href="#w" transform="translate(84.981 27.1)" fill="#FF5543"/><use xlink:href="#x" transform="translate(92.613 27)" fill="#FF5543"/><use xlink:href="#y" transform="translate(98.535 27)" fill="#FF5543"/><use xlink:href="#z" transform="translate(106.424 27)" fill="#FF5543"/><use xlink:href="#A" transform="translate(114.735 27.1)" fill="#FF5543"/><use xlink:href="#B" transform="translate(122.232 27.1)" fill="#FF5543"/><use xlink:href="#C" transform="translate(127.935 27.1)" fill="#FF5543"/><defs><path id="a" fill-rule="evenodd" d="M2.826 8.557c.033.48.232.91.595 1.29s.91.57 1.637.57c.546 0 .95-.12 1.217-.36.263-.238.396-.524.396-.854 0-.282-.1-.526-.299-.733-.198-.206-.537-.359-1.016-.459L3.744 7.64c-1.19-.264-2.06-.723-2.604-1.377a3.436 3.436 0 0 1-.82-2.27c0-.546.116-1.061.348-1.55.232-.487.55-.909.955-1.265.405-.355.885-.64 1.44-.855A5.013 5.013 0 0 1 4.884 0c.86 0 1.587.12 2.183.36.595.24 1.079.541 1.45.905.373.364.649.748.83 1.153.182.405.29.773.323 1.104l-2.752.62a3.098 3.098 0 0 0-.162-.558 1.563 1.563 0 0 0-.359-.534 1.847 1.847 0 0 0-.607-.397c-.24-.098-.533-.148-.88-.148-.43 0-.798.116-1.105.346-.305.233-.458.521-.458.868 0 .298.102.538.31.72.206.181.475.305.806.372l1.736.371c1.206.249 2.112.711 2.716 1.39.603.678.905 1.462.905 2.355 0 .497-.096.984-.285 1.463-.191.48-.484.91-.88 1.29-.397.381-.893.687-1.489.918-.595.23-1.289.347-2.083.347-.925 0-1.702-.133-2.33-.397-.63-.264-1.141-.587-1.539-.967-.397-.38-.69-.79-.88-1.227-.19-.44-.302-.83-.335-1.178l2.826-.619Z"/><path id="b" fill-rule="evenodd" d="M6.4 0c.908 0 1.756.16 2.541.483a6.151 6.151 0 0 1 2.035 1.34 6.115 6.115 0 0 1 1.339 2.045c.322.794.484 1.662.484 2.604 0 .943-.162 1.806-.484 2.592a6.263 6.263 0 0 1-1.34 2.046 6.03 6.03 0 0 1-2.034 1.352 6.627 6.627 0 0 1-2.542.484 6.62 6.62 0 0 1-2.542-.484 6.038 6.038 0 0 1-2.033-1.352 6.248 6.248 0 0 1-1.34-2.046C.16 8.278 0 7.415 0 6.472c0-.941.161-1.81.484-2.604a6.092 6.092 0 0 1 1.34-2.046A6.137 6.137 0 0 1 3.857.482 6.644 6.644 0 0 1 6.4 0Zm0 9.945a3.15 3.15 0 0 0 1.165-.223c.38-.148.711-.368.992-.657.28-.289.508-.649.683-1.079.174-.43.26-.934.26-1.513 0-.579-.086-1.083-.26-1.513a3.33 3.33 0 0 0-.683-1.079 2.793 2.793 0 0 0-.992-.657 3.169 3.169 0 0 0-2.331 0c-.38.148-.71.368-.992.657-.281.29-.508.65-.681 1.08-.174.43-.26.933-.26 1.512 0 .58.087 1.082.26 1.513.173.43.4.79.681 1.08.282.288.612.507.992.656.38.15.769.223 1.165.223Z"/><path id="c" fill-rule="evenodd" d="M8.11 12.203a3.3 3.3 0 0 1-.075-.572 10.722 10.722 0 0 1-.025-.744c-.331.58-.815.997-1.45 1.254a5.132 5.132 0 0 1-1.922.384c-.744 0-1.4-.13-1.972-.384a4.413 4.413 0 0 1-1.45-1.03A4.34 4.34 0 0 1 .31 9.586 5.603 5.603 0 0 1 0 7.714V0h3.299v7.044c0 .695.177 1.276.533 1.748.356.47.922.706 1.7.706.744 0 1.315-.222 1.711-.669.397-.446.595-1.025.595-1.737V0h3.299v9.995c0 .48.012.914.037 1.302.025.39.054.69.087.906H8.109Z"/><path id="d" fill-rule="evenodd" d="M7.44 3.372a5.03 5.03 0 0 0-.992-.1c-.43 0-.835.06-1.215.174-.38.117-.711.307-.992.57-.281.266-.509.617-.681 1.055-.174.438-.26.989-.26 1.649v5.58H0V.1h3.2v1.81c.181-.397.417-.722.706-.98.29-.255.595-.449.918-.582.322-.133.645-.223.967-.273C6.113.025 6.407 0 6.67 0a5.519 5.519 0 0 1 .768.05v3.322h.001Z"/><path id="e" fill-rule="evenodd" d="M6.4 3.05c-.43 0-.832.076-1.204.224a2.81 2.81 0 0 0-.979.657c-.281.29-.505.65-.67 1.08-.166.43-.247.917-.247 1.462 0 .546.081 1.034.247 1.463.165.431.393.793.682 1.092.289.298.62.521.991.669a3.21 3.21 0 0 0 1.203.223c.414 0 .782-.06 1.104-.186.322-.123.6-.285.832-.483.231-.2.417-.422.557-.67.14-.247.244-.487.31-.719l2.902.967a5.392 5.392 0 0 1-1.836 2.816 5.946 5.946 0 0 1-1.687.94c-.644.24-1.372.36-2.182.36a6.56 6.56 0 0 1-2.517-.483A6.178 6.178 0 0 1 .497 9.064C.167 8.28 0 7.415 0 6.472c0-.941.161-1.81.484-2.604a6.092 6.092 0 0 1 1.34-2.046A6.21 6.21 0 0 1 3.832.482 6.396 6.396 0 0 1 6.324 0c.828 0 1.567.12 2.22.36.653.24 1.22.55 1.7.93s.867.818 1.165 1.314c.297.497.512 1 .645 1.513l-2.951.992c-.15-.512-.435-.983-.857-1.413-.421-.43-1.037-.645-1.847-.645Z"/><path id="f" fill-rule="evenodd" d="M11.852 9.08a5.183 5.183 0 0 1-1.885 2.726 5.674 5.674 0 0 1-1.623.83c-.62.208-1.3.31-2.045.31a6.712 6.712 0 0 1-2.406-.433 5.832 5.832 0 0 1-2.009-1.277 6.11 6.11 0 0 1-1.376-2.06C.169 8.367 0 7.449 0 6.423c0-.975.164-1.86.496-2.653a6.168 6.168 0 0 1 1.327-2.02A5.937 5.937 0 0 1 3.746.46 5.757 5.757 0 0 1 6.002 0c1.9 0 3.38.563 4.44 1.687 1.058 1.124 1.586 2.67 1.586 4.637 0 .233-.008.45-.024.658a6.722 6.722 0 0 0-.024.36H3.25c.016.396.112.764.286 1.102.172.34.396.634.669.881.272.248.591.443.955.583.364.14.752.21 1.165.21.777 0 1.384-.174 1.823-.52.438-.347.757-.794.954-1.34l2.75.822ZM8.777 5.086a2.98 2.98 0 0 0-.185-.88 2.098 2.098 0 0 0-.495-.768 2.557 2.557 0 0 0-.844-.545c-.34-.14-.74-.211-1.204-.211a2.75 2.75 0 0 0-1.982.794 2.513 2.513 0 0 0-.744 1.611h5.454Z"/><path id="g" fill-rule="evenodd" d="M2.978 12.302c.114.678.421 1.231.917 1.662.497.43 1.141.644 1.935.644 1.04 0 1.843-.269 2.406-.805.562-.539.844-1.403.844-2.592v-.894c-.25.398-.655.758-1.218 1.08-.56.322-1.288.483-2.18.483a5.648 5.648 0 0 1-2.258-.446 5.353 5.353 0 0 1-1.798-1.24A5.84 5.84 0 0 1 .436 8.32C.145 7.602 0 6.813 0 5.953c0-.81.14-1.574.421-2.294A6.077 6.077 0 0 1 1.59 1.76 5.383 5.383 0 0 1 3.373.47C4.07.157 4.837 0 5.681 0c.976 0 1.744.174 2.304.52.563.347.953.728 1.167 1.14V.226h3.174v10.887c0 .844-.12 1.65-.358 2.418a5.595 5.595 0 0 1-1.129 2.035c-.513.586-1.176 1.057-1.983 1.413-.81.355-1.787.533-2.927.533-.844 0-1.609-.12-2.295-.359a6.127 6.127 0 0 1-1.798-.967 5.042 5.042 0 0 1-1.24-1.413A4.579 4.579 0 0 1 0 13.096l2.978-.795ZM6.25 9.054c.842 0 1.535-.282 2.07-.844.539-.562.807-1.314.807-2.257 0-.943-.282-1.69-.844-2.245a2.791 2.791 0 0 0-2.033-.831c-.414 0-.798.071-1.152.211-.357.14-.668.347-.933.62-.264.273-.47.6-.619.98-.148.38-.223.803-.223 1.265 0 .96.272 1.716.818 2.27.546.553 1.25.83 2.11.83Z"/><path id="h" fill-rule="evenodd" d="M7.441 3.372a5.03 5.03 0 0 0-.992-.1c-.429 0-.834.06-1.215.174-.381.116-.71.307-.992.57-.281.266-.508.617-.682 1.055-.173.438-.26.989-.26 1.649v5.58H0V.1h3.199v1.81c.183-.397.418-.722.708-.98.29-.255.594-.449.917-.582.323-.133.645-.223.968-.273A5.5 5.5 0 0 1 7.439.05v3.322h.002Z"/><path id="i" fill-rule="evenodd" d="M0 9.252c0-.546.096-1.03.285-1.452.19-.422.45-.79.78-1.103a3.763 3.763 0 0 1 1.153-.743 6.436 6.436 0 0 1 1.426-.398l3.002-.446c.347-.049.587-.153.718-.309a.834.834 0 0 0 .199-.559c0-.43-.17-.801-.508-1.116-.34-.314-.855-.472-1.55-.472-.728 0-1.285.2-1.675.596-.387.397-.607.86-.656 1.389l-2.927-.62a4.02 4.02 0 0 1 .446-1.44C.941 2.1 1.28 1.67 1.71 1.29 2.14.91 2.67.6 3.298.36 3.925.12 4.653 0 5.48 0c.958 0 1.778.128 2.456.384.677.256 1.226.595 1.649 1.017.421.421.727.914.916 1.475.192.563.288 1.15.288 1.76v6.003c0 .33.015.682.048 1.054.034.371.066.665.1.881H7.911a6.397 6.397 0 0 1-.086-.682 9.568 9.568 0 0 1-.037-.782c-.315.48-.766.902-1.352 1.265-.587.364-1.336.546-2.245.546-.645 0-1.227-.103-1.747-.311a4.165 4.165 0 0 1-1.328-.818 3.466 3.466 0 0 1-.83-1.166A3.428 3.428 0 0 1 0 9.252Zm4.886 1.215c.345 0 .681-.045 1.004-.136.322-.091.607-.248.857-.47.248-.224.444-.513.594-.87.148-.354.223-.806.223-1.35v-.545l-2.752.42c-.43.066-.792.22-1.079.46-.29.24-.434.6-.434 1.078 0 .365.131.692.397.98.264.288.66.433 1.19.433Z"/><path id="j" fill-rule="evenodd" d="M0 17.187V.273h3.2V1.76c.282-.48.743-.893 1.388-1.24C5.233.172 6.018 0 6.945 0c.892 0 1.685.16 2.38.483.695.322 1.285.77 1.775 1.34a5.76 5.76 0 0 1 1.102 2.01 8.17 8.17 0 0 1 .371 2.516c0 .927-.135 1.781-.409 2.567A5.998 5.998 0 0 1 11 10.95a5.34 5.34 0 0 1-1.824 1.339c-.71.322-1.497.485-2.355.485-.844 0-1.568-.145-2.172-.434-.602-.29-1.054-.641-1.351-1.054v5.902H0v-.001ZM9.326 6.374c0-1.092-.294-1.935-.88-2.531A2.896 2.896 0 0 0 6.3 2.95a2.96 2.96 0 0 0-1.19.236c-.364.158-.686.38-.968.67-.28.29-.499.645-.656 1.066-.158.421-.236.905-.236 1.452 0 .545.078 1.03.236 1.45.157.42.375.78.656 1.08A2.883 2.883 0 0 0 6.3 9.82c.844 0 1.559-.3 2.145-.904.588-.603.881-1.45.881-2.542Z"/><path id="k" fill-rule="evenodd" d="M3.299 17.957H0V0h3.299v6.77c.397-.48.901-.82 1.513-1.028a5.546 5.546 0 0 1 1.784-.31c.779 0 1.452.127 2.021.384a3.99 3.99 0 0 1 1.414 1.03c.373.43.649.942.83 1.538.182.595.274 1.223.274 1.884v7.689H7.836v-7.119c0-.695-.178-1.273-.534-1.736-.354-.463-.93-.694-1.723-.694-.695 0-1.24.226-1.637.681-.396.455-.612 1.022-.645 1.7v7.168h.002Z"/><path id="l" fill-rule="evenodd" d="m.086 3.027 5.183 18.977a2.391 2.391 0 0 0 2.936 1.678 2.396 2.396 0 0 0 1.674-2.941L4.695 1.762a2.39 2.39 0 1 0-4.61 1.265Z"/><path id="m" fill-rule="evenodd" d="M13.581.806.601 15.486a2.399 2.399 0 0 0 .204 3.38 2.386 2.386 0 0 0 3.373-.204l12.98-14.68a2.398 2.398 0 0 0-.204-3.38 2.386 2.386 0 0 0-3.373.204Z"/><path id="n" fill-rule="evenodd" d="M1.64 4.67 20.15 10.8a2.394 2.394 0 0 0 1.501-4.545L3.14.121A2.388 2.388 0 0 0 .122 1.643 2.396 2.396 0 0 0 1.64 4.67Z"/><path id="o" d="M3.43 1.104v5.818H2.254V1.104H0V0h5.694v1.104H3.43Z"/><path id="p" d="M4.439 6.922V3.964H1.176v2.958H0V0h1.176v2.861h3.263V0h1.186v6.922H4.439Z"/><path id="q" d="M0 6.922V0h4.293v1.094H1.177v1.835H4v1.064H1.177v1.835h3.116v1.094H0Z"/><path id="r" d="M0 6.922V0h4.322v1.104H1.176v1.943h2.823V4.13H1.176v2.792H0Z"/><path id="s" d="M2.589 7.068c-.365 0-.705-.055-1.019-.166a2.355 2.355 0 0 1-.819-.488 2.285 2.285 0 0 1-.549-.8A2.822 2.822 0 0 1 0 4.511V.001h1.166v4.442c0 .488.126.862.377 1.122.251.261.6.39 1.044.39.451 0 .801-.13 1.049-.39.249-.26.373-.634.373-1.122V0h1.177v4.51c0 .417-.067.784-.202 1.103a2.25 2.25 0 0 1-.549.8 2.316 2.316 0 0 1-.823.488 3.066 3.066 0 0 1-1.023.167Z"/><path id="t" d="M3.431 1.104v5.818H2.255V1.104H0V0h5.695v1.104H3.431Z"/><path id="u" d="M2.589 7.068c-.365 0-.705-.055-1.019-.166a2.355 2.355 0 0 1-.819-.488 2.285 2.285 0 0 1-.549-.8A2.822 2.822 0 0 1 0 4.511V.001h1.166v4.442c0 .488.126.862.377 1.122.251.261.6.39 1.044.39.451 0 .801-.13 1.049-.39.249-.26.373-.634.373-1.122V0h1.177v4.51c0 .417-.067.784-.202 1.103a2.25 2.25 0 0 1-.549.8 2.316 2.316 0 0 1-.823.488 3.057 3.057 0 0 1-1.023.167Z"/><path id="v" d="M2.45 3.153c.365 0 .656-.096.872-.288.216-.192.323-.447.323-.766 0-.325-.108-.584-.323-.776-.216-.192-.507-.288-.872-.288H1.186v2.118H2.45Zm-.402 1.035h-.862v2.734H0V0h2.666c.333 0 .635.054.906.162.271.107.5.257.686.449.186.192.33.415.431.669.101.254.152.527.152.82 0 .495-.139.918-.417 1.269-.279.351-.662.585-1.153.703l1.569 2.85H3.507L2.048 4.188Z"/><path id="w" d="M0 6.922V0h4.292v1.094H1.175v1.835h2.823v1.064H1.175v1.835h3.117v1.094H0Z"/><path id="x" d="M4.01 2.099a1.58 1.58 0 0 0-.113-.347 1.08 1.08 0 0 0-.245-.346 1.39 1.39 0 0 0-.407-.264 1.494 1.494 0 0 0-.598-.107c-.177 0-.338.028-.485.083a1.23 1.23 0 0 0-.377.219 1.013 1.013 0 0 0-.245.317.845.845 0 0 0-.089.376c0 .221.067.41.202.566.133.156.338.264.613.322l.999.205c.614.123 1.082.365 1.401.722.32.358.48.781.48 1.269a1.98 1.98 0 0 1-.636 1.455 2.36 2.36 0 0 1-.769.469 2.9 2.9 0 0 1-1.054.176c-.445 0-.828-.064-1.152-.19a2.532 2.532 0 0 1-.814-.498 2.219 2.219 0 0 1-.505-.688A2.368 2.368 0 0 1 0 5.087l1.098-.313c.019.182.065.356.137.522a1.3 1.3 0 0 0 .308.439c.134.126.296.23.485.307.189.078.408.117.656.117.418 0 .733-.091.946-.274a.864.864 0 0 0 .318-.683.819.819 0 0 0-.24-.59c-.161-.166-.39-.282-.691-.346l-.98-.206c-.529-.11-.955-.332-1.279-.664-.323-.332-.485-.758-.485-1.278 0-.293.062-.568.186-.825S.753.811.969.619A2.47 2.47 0 0 1 2.635 0c.412 0 .761.055 1.049.166.288.111.528.252.72.425.192.173.341.363.446.571.105.209.177.41.216.606l-1.056.331Z"/><path id="y" d="M1.205 3.602c0 .417.067.781.201 1.094.133.313.308.573.524.781.216.209.462.365.741.469.278.104.563.156.857.156.294 0 .581-.052.863-.156.281-.104.528-.26.745-.469a2.35 2.35 0 0 0 .524-.781c.133-.313.201-.677.201-1.094a2.76 2.76 0 0 0-.201-1.094 2.365 2.365 0 0 0-.524-.781 2.111 2.111 0 0 0-.745-.469 2.473 2.473 0 0 0-.863-.156c-.294 0-.58.052-.857.156a2.14 2.14 0 0 0-.741.469 2.35 2.35 0 0 0-.524.781 2.766 2.766 0 0 0-.201 1.094ZM0 3.602c0-.566.098-1.072.293-1.518A3.44 3.44 0 0 1 1.078.951 3.392 3.392 0 0 1 2.205.243 3.692 3.692 0 0 1 3.527 0c.457 0 .898.082 1.323.244.424.163.8.399 1.127.708.326.31.59.686.789 1.133.199.446.299.952.299 1.518 0 .566-.1 1.074-.299 1.523a3.5 3.5 0 0 1-.789 1.137 3.37 3.37 0 0 1-1.127.708 3.685 3.685 0 0 1-1.323.244 3.68 3.68 0 0 1-1.323-.244A3.36 3.36 0 0 1 .292 5.126 3.81 3.81 0 0 1 0 3.602Z"/><path id="z" d="M1.205 3.602c0 .417.067.781.201 1.094.133.313.308.573.524.781.216.209.462.365.741.469.278.104.563.156.857.156.294 0 .581-.052.863-.156.281-.104.528-.26.745-.469a2.35 2.35 0 0 0 .524-.781c.133-.313.201-.677.201-1.094a2.76 2.76 0 0 0-.201-1.094 2.365 2.365 0 0 0-.524-.781 2.111 2.111 0 0 0-.745-.469 2.473 2.473 0 0 0-.863-.156c-.294 0-.58.052-.857.156a2.14 2.14 0 0 0-.741.469 2.35 2.35 0 0 0-.524.781 2.766 2.766 0 0 0-.201 1.094ZM0 3.602c0-.566.098-1.072.293-1.518A3.44 3.44 0 0 1 1.078.951 3.392 3.392 0 0 1 2.205.243 3.696 3.696 0 0 1 4.85.244c.424.163.8.399 1.127.708.326.31.59.686.789 1.133.199.446.299.952.299 1.518 0 .566-.1 1.074-.299 1.523a3.5 3.5 0 0 1-.789 1.137 3.37 3.37 0 0 1-1.127.708 3.685 3.685 0 0 1-1.323.244 3.68 3.68 0 0 1-1.323-.244A3.36 3.36 0 0 1 .292 5.126 3.81 3.81 0 0 1 0 3.602Z"/><path id="A" d="M4.606 6.922 1.176 1.68v5.242H0V0h1.499l3.156 4.911V0h1.177v6.922H4.606Z"/><path id="B" d="M0 6.922V0h4.293v1.094H1.176v1.835h2.823v1.064H1.176v1.835h3.117v1.094H0Z"/><path id="C" d="M2.451 3.153c.365 0 .656-.096.872-.288.216-.192.323-.447.323-.766 0-.325-.108-.584-.323-.776-.216-.192-.507-.288-.872-.288H1.187v2.118h1.264Zm-.403 1.035h-.862v2.734H0V0h2.666c.333 0 .635.054.906.162.271.107.5.257.686.449.186.192.33.415.431.669.101.254.152.527.152.82 0 .495-.139.918-.417 1.269-.279.351-.662.586-1.152.703l1.569 2.85H3.508l-1.46-2.734Z"/></defs></svg>