<svg width="183" height="26" xmlns="http://www.w3.org/2000/svg" xmlns:xlink="http://www.w3.org/1999/xlink"><use xlink:href="#a" transform="translate(35.4 5.968)" fill="#151C28"/><use xlink:href="#b" transform="translate(47.2 5.968)" fill="#151C28"/><use xlink:href="#c" transform="translate(63 6.368)" fill="#151C28"/><use xlink:href="#d" transform="translate(78.2 6.262)" fill="#151C28"/><use xlink:href="#e" transform="translate(87 5.968)" fill="#151C28"/><use xlink:href="#f" transform="translate(101 5.966)" fill="#151C28"/><use xlink:href="#g" transform="translate(115.2 6.127)" fill="#151C28"/><use xlink:href="#h" transform="translate(131.5 6.262)" fill="#151C28"/><use xlink:href="#i" transform="translate(140.7 5.967)" fill="#151C28"/><use xlink:href="#j" transform="translate(155.3 6.075)" fill="#151C28"/><use xlink:href="#k" transform="translate(171.1 .2)" fill="#151C28"/><use xlink:href="#l" transform="translate(7.3 .325)" fill="#FF5543"/><use xlink:href="#m" transform="translate(3.2 2.628)" fill="#B200F8"/><use xlink:href="#n" transform="translate(.2 7.208)" fill="#00CBEC"/><defs><path id="a" fill-rule="evenodd" d="M3.03 9.172c.035.515.248.975.639 1.382.389.408.974.612 1.755.612.585 0 1.019-.128 1.304-.386.282-.256.425-.562.425-.916 0-.302-.107-.563-.32-.785-.213-.222-.577-.385-1.09-.492l-1.729-.4c-1.276-.282-2.207-.774-2.792-1.475a3.682 3.682 0 0 1-.878-2.433c0-.585.123-1.138.372-1.661a4.15 4.15 0 0 1 1.025-1.356C2.175.88 2.689.575 3.284.345A5.377 5.377 0 0 1 5.238 0c.922 0 1.702.129 2.34.386.638.257 1.157.58 1.555.97.4.39.696.802.89 1.236.195.434.31.828.347 1.183l-2.951.664a3.319 3.319 0 0 0-.173-.598 1.676 1.676 0 0 0-.385-.572 1.98 1.98 0 0 0-.652-.425c-.257-.106-.571-.16-.944-.16-.461 0-.855.125-1.184.372-.327.249-.492.559-.492.93 0 .32.11.576.333.772.221.194.51.327.865.398l1.86.398c1.294.267 2.265.763 2.913 1.49.647.727.97 1.567.97 2.524 0 .533-.103 1.055-.305 1.569a3.911 3.911 0 0 1-.944 1.382c-.425.409-.958.736-1.596.984-.638.247-1.382.372-2.234.372-.992 0-1.825-.142-2.499-.425-.674-.283-1.223-.63-1.649-1.038a4.068 4.068 0 0 1-.944-1.315c-.204-.47-.324-.89-.359-1.262l3.03-.663Z"/><path id="b" fill-rule="evenodd" d="M6.862 0c.974 0 1.883.172 2.725.518a6.596 6.596 0 0 1 2.182 1.435 6.554 6.554 0 0 1 1.436 2.193c.345.85.518 1.78.518 2.791 0 1.01-.173 1.936-.518 2.778a6.712 6.712 0 0 1-1.436 2.193 6.462 6.462 0 0 1-2.182 1.449 7.108 7.108 0 0 1-2.725.519 7.1 7.1 0 0 1-2.726-.519 6.473 6.473 0 0 1-2.18-1.449A6.697 6.697 0 0 1 .519 9.715C.173 8.873 0 7.948 0 6.937c0-1.01.173-1.94.519-2.791a6.53 6.53 0 0 1 1.437-2.193A6.58 6.58 0 0 1 4.136.518 7.126 7.126 0 0 1 6.862 0Zm0 10.66c.426 0 .842-.079 1.25-.24a2.974 2.974 0 0 0 1.064-.703c.3-.31.544-.696.732-1.157.186-.46.279-1.001.279-1.622 0-.62-.093-1.16-.28-1.621a3.57 3.57 0 0 0-.731-1.157 2.995 2.995 0 0 0-1.065-.705 3.4 3.4 0 0 0-2.499 0c-.407.16-.762.396-1.063.705a3.55 3.55 0 0 0-.731 1.157c-.186.46-.279 1.001-.279 1.621 0 .62.094 1.16.279 1.622.186.461.43.847.73 1.157.302.31.657.544 1.064.704.408.16.825.238 1.25.238Z"/><path id="c" fill-rule="evenodd" d="M8.695 13.08a3.537 3.537 0 0 1-.08-.613 11.482 11.482 0 0 1-.026-.798 3.054 3.054 0 0 1-1.555 1.344 5.505 5.505 0 0 1-2.061.412c-.798 0-1.502-.139-2.114-.412a4.73 4.73 0 0 1-1.556-1.104 4.651 4.651 0 0 1-.97-1.635A6.003 6.003 0 0 1 0 8.268V0h3.537v7.55c0 .744.19 1.368.572 1.873.381.504.988.758 1.822.758.798 0 1.41-.24 1.835-.718.426-.478.639-1.099.639-1.861V0h3.537v10.713c0 .514.013.98.04 1.396.026.417.057.74.092.97H8.695Z"/><path id="d" fill-rule="evenodd" d="M7.977 3.615a5.394 5.394 0 0 0-1.063-.107c-.461 0-.895.063-1.303.186a2.664 2.664 0 0 0-1.063.611c-.302.284-.546.66-.731 1.13-.186.47-.28 1.06-.28 1.768v5.981H0V.106h3.43v1.94c.195-.425.449-.774.758-1.05.31-.274.639-.482.985-.625A4.554 4.554 0 0 1 6.209.08C6.555.027 6.87 0 7.153 0a5.92 5.92 0 0 1 .823.054v3.56h.001Z"/><path id="e" fill-rule="evenodd" d="M6.862 3.27c-.461 0-.892.08-1.29.239-.4.16-.75.395-1.05.705a3.37 3.37 0 0 0-.719 1.156c-.178.461-.265.984-.265 1.568 0 .585.087 1.109.265 1.568.178.462.421.85.731 1.17.31.32.665.56 1.064.718.399.16.828.238 1.29.238.443 0 .837-.064 1.183-.198.345-.133.642-.306.892-.519.248-.213.447-.452.598-.717.15-.266.261-.523.332-.77l3.11 1.035a5.774 5.774 0 0 1-1.968 3.018 6.375 6.375 0 0 1-1.808 1.009c-.69.257-1.472.386-2.34.386a7.036 7.036 0 0 1-2.699-.519A6.623 6.623 0 0 1 .533 9.715C.178 8.874 0 7.948 0 6.937c0-1.01.173-1.94.519-2.791a6.53 6.53 0 0 1 1.437-2.193A6.658 6.658 0 0 1 4.109.518 6.86 6.86 0 0 1 6.781 0c.888 0 1.68.129 2.38.386s1.308.588 1.822.997c.515.407.93.877 1.25 1.409.319.532.55 1.072.692 1.621L9.76 5.476c-.16-.548-.466-1.054-.918-1.514C8.39 3.5 7.73 3.27 6.862 3.27"/><path id="f" fill-rule="evenodd" d="M12.708 9.732a5.559 5.559 0 0 1-2.02 2.922 6.084 6.084 0 0 1-1.74.89 6.881 6.881 0 0 1-2.194.333 7.201 7.201 0 0 1-2.58-.466 6.254 6.254 0 0 1-2.153-1.368A6.55 6.55 0 0 1 .545 9.835C.18 8.968 0 7.984 0 6.885 0 5.839.176 4.89.532 4.04a6.612 6.612 0 0 1 1.423-2.166A6.367 6.367 0 0 1 4.017.493 6.175 6.175 0 0 1 6.436 0c2.038 0 3.624.603 4.76 1.808 1.135 1.205 1.7 2.861 1.7 4.97 0 .25-.008.483-.025.706-.019.22-.026.35-.026.384h-9.36c.017.425.12.82.306 1.183.185.364.425.679.718.944a3.24 3.24 0 0 0 1.024.625c.39.15.806.225 1.25.225.832 0 1.483-.187 1.953-.558A3.15 3.15 0 0 0 9.76 8.85l2.95.88Zm-3.295-4.28a3.194 3.194 0 0 0-.198-.944 2.248 2.248 0 0 0-.532-.823c-.24-.24-.54-.434-.904-.585-.365-.15-.794-.226-1.291-.226a2.949 2.949 0 0 0-2.126.85 2.694 2.694 0 0 0-.798 1.728h5.85Z"/><path id="g" fill-rule="evenodd" d="M3.193 13.186c.123.727.452 1.32.983 1.781.533.46 1.224.69 2.075.69 1.116 0 1.977-.287 2.58-.863.603-.577.905-1.503.905-2.778v-.958c-.268.426-.702.812-1.306 1.158-.6.345-1.381.517-2.337.517a6.06 6.06 0 0 1-2.421-.478 5.74 5.74 0 0 1-1.928-1.33A6.257 6.257 0 0 1 .467 8.92C.155 8.15.001 7.303.001 6.381c0-.869.15-1.688.452-2.46a6.513 6.513 0 0 1 1.25-2.034A5.772 5.772 0 0 1 3.618.505C4.363.17 5.187 0 6.092 0c1.046 0 1.869.186 2.47.558.603.371 1.021.78 1.25 1.222V.24h3.405v11.67a8.71 8.71 0 0 1-.384 2.592 5.995 5.995 0 0 1-1.21 2.18c-.551.63-1.261 1.135-2.127 1.515-.869.381-1.916.572-3.139.572-.905 0-1.725-.128-2.46-.384a6.572 6.572 0 0 1-1.929-1.038A5.406 5.406 0 0 1 .64 15.833 4.907 4.907 0 0 1 0 14.038l3.193-.852Zm3.508-3.482c.903 0 1.645-.301 2.22-.904.577-.602.864-1.409.864-2.42 0-1.01-.302-1.811-.905-2.405a2.994 2.994 0 0 0-2.179-.891 3.33 3.33 0 0 0-1.236.226c-.382.15-.716.372-1 .665a3.132 3.132 0 0 0-.664 1.05c-.158.408-.239.86-.239 1.356 0 1.029.292 1.84.878 2.432.584.594 1.339.891 2.261.891Z"/><path id="h" fill-rule="evenodd" d="M7.979 3.615a5.394 5.394 0 0 0-1.064-.107c-.46 0-.894.063-1.303.186a2.652 2.652 0 0 0-1.063.611c-.302.284-.545.66-.732 1.13-.185.47-.278 1.06-.278 1.768v5.981H0V.106h3.43v1.94c.196-.425.449-.774.76-1.05a3.51 3.51 0 0 1 .982-.625A4.562 4.562 0 0 1 6.21.08C6.556.027 6.87 0 7.153 0a5.899 5.899 0 0 1 .823.054v3.56h.003Z"/><path id="i" fill-rule="evenodd" d="M0 9.916c0-.584.103-1.103.306-1.556.203-.452.482-.845.836-1.182a4.035 4.035 0 0 1 1.236-.796c.47-.195.98-.337 1.53-.426l3.218-.479c.372-.052.63-.163.77-.331a.893.893 0 0 0 .213-.599c0-.461-.18-.86-.544-1.197-.365-.336-.917-.505-1.663-.505-.78 0-1.377.213-1.795.638a2.399 2.399 0 0 0-.704 1.489L.265 4.307a4.307 4.307 0 0 1 .478-1.542 4.751 4.751 0 0 1 1.09-1.382c.462-.408 1.03-.74 1.703-.997S4.989 0 5.876 0C6.903 0 7.782.137 8.51.412c.725.274 1.314.638 1.767 1.09.452.451.78.979.983 1.58.205.604.308 1.232.308 1.888v6.433c0 .355.016.732.052 1.13.036.398.07.713.107.944H8.483a6.857 6.857 0 0 1-.093-.731c-.025-.31-.04-.589-.04-.838-.338.515-.82.966-1.45 1.356-.628.39-1.431.585-2.406.585-.692 0-1.316-.11-1.873-.334a4.466 4.466 0 0 1-1.424-.876 3.715 3.715 0 0 1-.89-1.25A3.673 3.673 0 0 1 0 9.917Zm5.24 1.303c.37 0 .73-.049 1.075-.146.346-.098.652-.266.92-.505.265-.24.476-.55.637-.93.158-.38.239-.865.239-1.449v-.584l-2.952.45c-.46.072-.848.236-1.156.493-.311.258-.466.644-.466 1.156 0 .391.141.742.426 1.05.283.31.707.465 1.277.465Z"/><path id="j" fill-rule="evenodd" d="M0 18.422V.292h3.432v1.595c.301-.514.796-.957 1.487-1.33C5.611.186 6.453 0 7.446 0 8.404 0 9.254.172 10 .518a5.57 5.57 0 0 1 1.902 1.436c.523.611.918 1.33 1.182 2.154.266.824.398 1.723.398 2.698 0 .993-.145 1.908-.438 2.751a6.427 6.427 0 0 1-1.249 2.18 5.725 5.725 0 0 1-1.955 1.435c-.762.345-1.605.52-2.525.52-.905 0-1.681-.156-2.329-.466-.645-.31-1.13-.687-1.45-1.13v6.327H0v-.001Zm9.998-11.59c0-1.17-.316-2.074-.945-2.713-.629-.638-1.394-.957-2.3-.957-.461 0-.886.084-1.276.253-.39.169-.736.408-1.037.718-.302.311-.536.69-.704 1.142-.17.452-.254.97-.254 1.556 0 .585.085 1.104.254 1.554.168.452.402.838.704 1.158a3.091 3.091 0 0 0 2.314.982c.905 0 1.67-.322 2.3-.97.63-.645.944-1.554.944-2.724Z"/><path id="k" fill-rule="evenodd" d="M3.537 19.247H0V0h3.537v7.257a3.53 3.53 0 0 1 1.622-1.103 5.948 5.948 0 0 1 1.914-.332c.834 0 1.556.137 2.166.411a4.279 4.279 0 0 1 1.517 1.105c.4.46.696 1.009.89 1.648.195.638.293 1.31.293 2.02v8.24H8.404v-7.629c0-.745-.192-1.364-.574-1.861-.38-.496-.997-.744-1.847-.744-.745 0-1.33.243-1.755.73-.425.488-.656 1.095-.692 1.821v7.684h.002Z"/><path id="l" fill-rule="evenodd" d="m.092 3.245 5.557 20.34a2.564 2.564 0 0 0 3.148 1.799 2.568 2.568 0 0 0 1.795-3.154L5.034 1.89A2.563 2.563 0 1 0 .092 3.244"/><path id="m" fill-rule="evenodd" d="M14.562.864.644 16.598a2.57 2.57 0 0 0 .22 3.624c1.059.94 2.678.841 3.616-.22L18.398 4.27a2.57 2.57 0 0 0-.22-3.623 2.559 2.559 0 0 0-3.616.218"/><path id="n" fill-rule="evenodd" d="m1.758 5.005 19.849 6.572a2.565 2.565 0 0 0 1.61-4.871L3.366.13a2.568 2.568 0 0 0-1.608 4.875"/></defs></svg>