<svg width="775" height="373" fill="none" xmlns="http://www.w3.org/2000/svg"><path d="M57.207 104.846c-5.37.927-10.55-2.411-11.509-7.604L31.12 20.282c-.96-5.193 2.493-10.2 7.864-11.128 5.371-.927 10.55 2.411 11.51 7.604l14.578 76.96c.96 5.193-2.685 10.2-7.865 11.128Z" fill="#FF5543"/><path d="M19.035 91.679c-3.453.556-6.906-.557-9.4-3.153-3.452-4.08-3.069-10.014 1.151-13.352l61.575-50.627c4.22-3.338 10.358-2.968 13.811 1.112 3.453 4.08 3.07 10.014-1.15 13.353L23.637 89.639c-1.342 1.112-3.069 1.854-4.603 2.04Z" fill="#A112FF"/><path d="M87.899 79.44c-1.727.37-3.453.185-4.987-.372L6.567 52.92C1.387 51.066-1.298 45.688.62 40.68c1.918-5.007 7.481-7.603 12.66-5.748L89.433 61.08c5.18 1.854 7.865 7.232 5.947 12.24-1.151 3.338-4.22 5.563-7.481 6.12Z" fill="#00CBEC"/><path d="M148.538 87.45V74.922H116v-6.438l27.492-41.934h10.44v43.5h10.614v4.872h-10.614V87.45h-5.394Zm-26.883-17.4h26.883V29.682h-1.044L121.655 69.18v.87ZM178.041 88.668c-1.45 0-2.639-.464-3.567-1.392-.928-.928-1.392-2.117-1.392-3.567 0-1.45.464-2.639 1.392-3.567.928-.928 2.117-1.392 3.567-1.392 1.45 0 2.639.464 3.567 1.392.928.928 1.392 2.117 1.392 3.567 0 1.45-.464 2.639-1.392 3.567-.928.928-2.117 1.392-3.567 1.392ZM215.431 88.668c-6.844 0-12.267-2.059-16.269-6.177-3.944-4.176-5.916-10.353-5.916-18.531V50.04c0-8.178 1.972-14.326 5.916-18.444 4.002-4.176 9.425-6.264 16.269-6.264 6.844 0 12.238 2.088 16.182 6.264 4.002 4.118 6.003 10.266 6.003 18.444v13.92c0 8.178-2.001 14.355-6.003 18.531-3.944 4.118-9.338 6.177-16.182 6.177Zm0-4.872c5.568 0 9.744-1.711 12.528-5.133 2.842-3.48 4.263-8.265 4.263-14.355V49.692c0-6.09-1.421-10.846-4.263-14.268-2.784-3.48-6.96-5.22-12.528-5.22-5.568 0-9.773 1.74-12.615 5.22-2.784 3.422-4.176 8.178-4.176 14.268v14.616c0 6.09 1.392 10.875 4.176 14.355 2.842 3.422 7.047 5.133 12.615 5.133Z" fill="#fff"/><path stroke="#fff" d="M270.116 13v88"/><g opacity=".5" filter="url(#a)"><path d="m302.036 73.416 36.116-2.94-7.979 144.465-9.43-114.648-9.888 114.648-8.819-141.525Z" fill="#6B59ED"/></g><g opacity=".5" filter="url(#b)"><path d="m530.913 73.416 36.116-2.94-7.979 144.465-10.079-75.172-9.239 75.172-8.819-141.525Z" fill="url(#c)"/></g><g filter="url(#d)"><path d="m710.988 335.469-2.854-272.552h6.547l-3.693 272.552Z" fill="#6B59ED"/></g><g filter="url(#e)"><path d="m666.548 354.367-2.928-288.09h6.719l-3.791 288.09Z" fill="#6B59ED"/></g><g filter="url(#f)"><path d="m478.407 354.367-2.929-288.09h6.719l-3.79 288.09Z" fill="#6B59ED"/></g><g filter="url(#g)"><path d="m499.448 235.939-5.491-169.663h12.599l-7.108 169.663Z" fill="#6B59ED"/></g><g filter="url(#h)"><path d="m621.774 358.566-1.83-288.09h4.2l-2.37 288.09Z" fill="#6B59ED"/></g><g filter="url(#i)"><path d="m593.583 358.566-2.197-288.09h5.04l-2.843 288.09Z" fill="#6B59ED"/></g><g filter="url(#j)"><path d="m735.42 230.06-2.928-192.34h6.719l-3.791 192.34Z" fill="#6B59ED"/></g><g opacity=".5" filter="url(#k)"><path d="M409.965 68.225 452.8 63.33l-9.463 240.643-11.534-255.334-11.378 255.334-10.46-235.746Z" fill="#6B59ED"/></g><g filter="url(#l)"><path d="m376.368 353.947-2.853-272.552h6.546l-3.693 272.552Z" fill="#6B59ED"/></g><g filter="url(#m)" fill="#00CBEC"><path d="m301.616 76.115 4.601-5.368c3.874 3.61 9.034 6.016 14.584 6.016 6.445 0 10.04-2.943 10.04-7.035 0-4.96-3.726-6.33-8.773-8.441l-7.19-3.129c-5.215-2.036-10.934-5.794-10.934-13.255C303.926 36.98 311.078 31 321.155 31c6.314 0 12.07 2.48 16.037 6.368l-4.042 4.962c-3.408-2.833-7.115-4.517-12.33-4.517-5.216 0-8.959 2.462-8.959 6.609 0 4.387 4.395 5.998 8.884 7.738l6.911 3.036c6.407 2.48 11.175 6.183 11.175 13.588 0 8.146-6.91 14.792-18.477 14.792-7.32 0-13.951-2.832-18.738-7.46ZM372.676 38.498H356.21v-6.572h40.773v6.572h-16.466v44.134h-7.841V38.497ZM426.729 31.925h9.127l16.856 50.707h-8.363l-8.214-27.603c-1.658-5.498-3.334-11.144-4.806-16.883h-.316c-1.528 5.739-3.111 11.404-4.768 16.883L417.9 82.632h-8.028l16.857-50.707ZM475.269 31.925h16.521c10.468 0 18.365 3.722 18.365 14.681 0 10.96-7.897 15.421-18.365 15.421h-8.605v20.586h-7.898V31.925h-.018Zm15.571 23.863c7.451 0 11.511-3.073 11.511-9.163 0-6.091-4.06-8.424-11.511-8.424h-7.674v17.587h7.674Zm5.271-.277 15.739 27.12h-8.828l-12.797-22.696 5.868-4.424h.018ZM529.918 76.115l4.601-5.368c3.874 3.61 9.033 6.016 14.584 6.016 6.445 0 10.039-2.943 10.039-7.035 0-4.96-3.725-6.33-8.772-8.441l-7.19-3.129c-5.216-2.036-10.934-5.794-10.934-13.255 0-7.905 7.153-13.884 17.23-13.884 6.314 0 12.069 2.48 16.037 6.368l-4.042 4.961c-3.409-2.832-7.115-4.517-12.331-4.517-5.215 0-8.959 2.462-8.959 6.61 0 4.387 4.396 5.997 8.885 7.737l6.91 3.037c6.407 2.48 11.176 6.183 11.176 13.588 0 8.145-6.911 14.791-18.477 14.791-7.321 0-13.951-2.832-18.738-7.46l-.019-.019ZM590.938 31.925h7.897v20.753h19.26V31.926h7.897v50.706h-7.897V59.509h-19.26v23.123h-7.897V31.925ZM650.467 76.078h12.479v-37.58h-12.479v-6.572h32.801v6.572h-12.48v37.58h12.48v6.554h-32.801v-6.554ZM708.338 31.925h16.093c11.232 0 19.185 3.833 19.185 15.274 0 11.44-8.084 16.087-19.185 16.087h-8.27v19.346h-7.842V31.925h.019Zm15.348 25.104c8.214 0 12.144-3.129 12.144-9.83 0-6.702-4.06-9.016-12.144-9.016h-7.506v18.846h7.506Z"/></g><g opacity=".8" filter="url(#n)"><path d="m301.616 105.512 4.601-5.368c3.874 3.61 9.034 6.016 14.584 6.016 6.445 0 10.04-2.943 10.04-7.034 0-4.962-3.726-6.332-8.773-8.442l-7.19-3.129c-5.215-2.036-10.934-5.794-10.934-13.255-.018-7.923 7.134-13.903 17.211-13.903 6.314 0 12.07 2.48 16.037 6.368l-4.042 4.962c-3.408-2.833-7.115-4.517-12.33-4.517-5.216 0-8.959 2.462-8.959 6.609 0 4.387 4.395 5.998 8.884 7.738l6.911 3.036c6.407 2.48 11.175 6.183 11.175 13.588 0 8.146-6.91 14.792-18.477 14.792-7.32 0-13.951-2.832-18.738-7.461Z" fill="url(#o)"/><path d="M372.676 67.895H356.21v-6.572h40.773v6.572h-16.466v44.134h-7.841V67.895Z" fill="url(#p)"/><path d="M426.729 61.323h9.127l16.856 50.706h-8.363l-8.214-27.602c-1.658-5.499-3.334-11.145-4.806-16.884h-.316c-1.528 5.739-3.111 11.404-4.768 16.884l-8.345 27.602h-8.028l16.857-50.706Z" fill="url(#q)"/><path d="M475.269 61.323h16.521c10.468 0 18.365 3.72 18.365 14.68 0 10.96-7.897 15.421-18.365 15.421h-8.605v20.587h-7.898V61.323h-.018Zm15.571 23.863c7.451 0 11.511-3.074 11.511-9.164s-4.06-8.423-11.511-8.423h-7.674v17.587h7.674Zm5.271-.278 15.739 27.121h-8.828l-12.797-22.697 5.868-4.424h.018Z" fill="url(#r)"/><path d="m529.918 105.513 4.601-5.369c3.874 3.61 9.033 6.017 14.584 6.017 6.445 0 10.039-2.944 10.039-7.035 0-4.962-3.725-6.332-8.772-8.442l-7.19-3.129c-5.216-2.036-10.934-5.794-10.934-13.255 0-7.905 7.153-13.884 17.23-13.884 6.314 0 12.069 2.48 16.037 6.368l-4.042 4.962c-3.409-2.833-7.115-4.518-12.331-4.518-5.215 0-8.959 2.463-8.959 6.61 0 4.387 4.396 5.998 8.885 7.738l6.91 3.036c6.407 2.48 11.176 6.183 11.176 13.588 0 8.146-6.911 14.792-18.477 14.792-7.321 0-13.951-2.833-18.738-7.461l-.019-.018Z" fill="url(#s)"/><path d="M590.938 61.323h7.897v20.753h19.26V61.323h7.897v50.706h-7.897V88.907h-19.26v23.122h-7.897V61.323Z" fill="url(#t)"/><path d="M650.467 105.476h12.479V67.895h-12.479v-6.572h32.801v6.572h-12.48v37.581h12.48v6.553h-32.801v-6.553Z" fill="url(#u)"/><path d="M708.338 61.323h16.093c11.232 0 19.185 3.832 19.185 15.273 0 11.44-8.084 16.087-19.185 16.087h-8.27v19.346h-7.842V61.323h.019Zm15.348 25.103c8.214 0 12.144-3.129 12.144-9.83 0-6.702-4.06-9.016-12.144-9.016h-7.506v18.846h7.506Z" fill="url(#v)"/></g><path d="m301.616 76.955 4.601-5.368c3.874 3.61 9.034 6.016 14.584 6.016 6.445 0 10.04-2.943 10.04-7.034 0-4.962-3.726-6.332-8.773-8.442l-7.19-3.129c-5.215-2.036-10.934-5.794-10.934-13.255-.018-7.924 7.134-13.903 17.211-13.903 6.314 0 12.07 2.48 16.037 6.368l-4.042 4.962c-3.408-2.833-7.115-4.517-12.33-4.517-5.216 0-8.959 2.462-8.959 6.609 0 4.387 4.395 5.998 8.884 7.738l6.911 3.036c6.407 2.48 11.175 6.183 11.175 13.588 0 8.146-6.91 14.792-18.477 14.792-7.32 0-13.951-2.832-18.738-7.46ZM372.676 39.337H356.21v-6.572h40.773v6.572h-16.466v44.135h-7.841V39.338ZM426.729 32.766h9.127l16.856 50.706h-8.363l-8.214-27.603c-1.658-5.498-3.334-11.144-4.806-16.883h-.316c-1.528 5.739-3.111 11.404-4.768 16.883L417.9 83.472h-8.028l16.857-50.706ZM475.269 32.766h16.521c10.468 0 18.365 3.72 18.365 14.68 0 10.96-7.897 15.421-18.365 15.421h-8.605v20.586h-7.898V32.765h-.018Zm15.571 23.862c7.451 0 11.511-3.073 11.511-9.163 0-6.091-4.06-8.424-11.511-8.424h-7.674v17.587h7.674Zm5.271-.277 15.739 27.12h-8.828l-12.797-22.696 5.868-4.424h.018ZM529.918 76.955l4.601-5.368c3.874 3.61 9.033 6.016 14.584 6.016 6.445 0 10.039-2.943 10.039-7.034 0-4.962-3.725-6.332-8.772-8.442l-7.19-3.129c-5.216-2.036-10.934-5.794-10.934-13.255 0-7.905 7.153-13.885 17.23-13.885 6.314 0 12.069 2.481 16.037 6.369l-4.042 4.961c-3.409-2.832-7.115-4.517-12.331-4.517-5.215 0-8.959 2.462-8.959 6.61 0 4.387 4.396 5.997 8.885 7.738l6.91 3.036c6.407 2.48 11.176 6.183 11.176 13.588 0 8.145-6.911 14.791-18.477 14.791-7.321 0-13.951-2.832-18.738-7.46l-.019-.019ZM590.938 32.766h7.897v20.752h19.26V32.766h7.897v50.706h-7.897V60.349h-19.26v23.123h-7.897V32.766ZM650.467 76.918h12.479v-37.58h-12.479v-6.572h32.801v6.572h-12.48v37.58h12.48v6.554h-32.801v-6.554ZM708.338 32.766h16.093c11.232 0 19.185 3.832 19.185 15.273 0 11.44-8.084 16.087-19.185 16.087h-8.27v19.346h-7.842V32.766h.019Zm15.348 25.103c8.214 0 12.144-3.129 12.144-9.83 0-6.702-4.06-9.016-12.144-9.016h-7.506v18.846h7.506Z" fill="#fff"/><defs><filter id="a" x="288.036" y="56.476" width="64.116" height="172.465" filterUnits="userSpaceOnUse" color-interpolation-filters="sRGB"><feFlood flood-opacity="0" result="BackgroundImageFix"/><feBlend in="SourceGraphic" in2="BackgroundImageFix" result="shape"/><feGaussianBlur stdDeviation="7" result="effect1_foregroundBlur_48_5202"/></filter><filter id="b" x="516.913" y="56.476" width="64.116" height="172.465" filterUnits="userSpaceOnUse" color-interpolation-filters="sRGB"><feFlood flood-opacity="0" result="BackgroundImageFix"/><feBlend in="SourceGraphic" in2="BackgroundImageFix" result="shape"/><feGaussianBlur stdDeviation="7" result="effect1_foregroundBlur_48_5202"/></filter><filter id="d" x="694.134" y="48.917" width="34.547" height="300.552" filterUnits="userSpaceOnUse" color-interpolation-filters="sRGB"><feFlood flood-opacity="0" result="BackgroundImageFix"/><feBlend in="SourceGraphic" in2="BackgroundImageFix" result="shape"/><feGaussianBlur stdDeviation="7" result="effect1_foregroundBlur_48_5202"/></filter><filter id="e" x="649.619" y="52.276" width="34.72" height="316.09" filterUnits="userSpaceOnUse" color-interpolation-filters="sRGB"><feFlood flood-opacity="0" result="BackgroundImageFix"/><feBlend in="SourceGraphic" in2="BackgroundImageFix" result="shape"/><feGaussianBlur stdDeviation="7" result="effect1_foregroundBlur_48_5202"/></filter><filter id="f" x="461.478" y="52.276" width="34.72" height="316.09" filterUnits="userSpaceOnUse" color-interpolation-filters="sRGB"><feFlood flood-opacity="0" result="BackgroundImageFix"/><feBlend in="SourceGraphic" in2="BackgroundImageFix" result="shape"/><feGaussianBlur stdDeviation="7" result="effect1_foregroundBlur_48_5202"/></filter><filter id="g" x="479.957" y="52.276" width="40.599" height="197.663" filterUnits="userSpaceOnUse" color-interpolation-filters="sRGB"><feFlood flood-opacity="0" result="BackgroundImageFix"/><feBlend in="SourceGraphic" in2="BackgroundImageFix" result="shape"/><feGaussianBlur stdDeviation="7" result="effect1_foregroundBlur_48_5202"/></filter><filter id="h" x="605.944" y="56.476" width="32.199" height="316.09" filterUnits="userSpaceOnUse" color-interpolation-filters="sRGB"><feFlood flood-opacity="0" result="BackgroundImageFix"/><feBlend in="SourceGraphic" in2="BackgroundImageFix" result="shape"/><feGaussianBlur stdDeviation="7" result="effect1_foregroundBlur_48_5202"/></filter><filter id="i" x="577.387" y="56.476" width="33.039" height="316.09" filterUnits="userSpaceOnUse" color-interpolation-filters="sRGB"><feFlood flood-opacity="0" result="BackgroundImageFix"/><feBlend in="SourceGraphic" in2="BackgroundImageFix" result="shape"/><feGaussianBlur stdDeviation="7" result="effect1_foregroundBlur_48_5202"/></filter><filter id="j" x="718.491" y="23.719" width="34.72" height="220.34" filterUnits="userSpaceOnUse" color-interpolation-filters="sRGB"><feFlood flood-opacity="0" result="BackgroundImageFix"/><feBlend in="SourceGraphic" in2="BackgroundImageFix" result="shape"/><feGaussianBlur stdDeviation="7" result="effect1_foregroundBlur_48_5202"/></filter><filter id="k" x="395.965" y="34.638" width="70.836" height="283.334" filterUnits="userSpaceOnUse" color-interpolation-filters="sRGB"><feFlood flood-opacity="0" result="BackgroundImageFix"/><feBlend in="SourceGraphic" in2="BackgroundImageFix" result="shape"/><feGaussianBlur stdDeviation="7" result="effect1_foregroundBlur_48_5202"/></filter><filter id="l" x="359.515" y="67.395" width="34.547" height="300.552" filterUnits="userSpaceOnUse" color-interpolation-filters="sRGB"><feFlood flood-opacity="0" result="BackgroundImageFix"/><feBlend in="SourceGraphic" in2="BackgroundImageFix" result="shape"/><feGaussianBlur stdDeviation="7" result="effect1_foregroundBlur_48_5202"/></filter><filter id="m" x="270.616" y="0" width="504" height="114.594" filterUnits="userSpaceOnUse" color-interpolation-filters="sRGB"><feFlood flood-opacity="0" result="BackgroundImageFix"/><feBlend in="SourceGraphic" in2="BackgroundImageFix" result="shape"/><feGaussianBlur stdDeviation="15.5" result="effect1_foregroundBlur_48_5202"/></filter><filter id="n" x="270.616" y="29.397" width="504" height="114.595" filterUnits="userSpaceOnUse" color-interpolation-filters="sRGB"><feFlood flood-opacity="0" result="BackgroundImageFix"/><feBlend in="SourceGraphic" in2="BackgroundImageFix" result="shape"/><feGaussianBlur stdDeviation="15.5" result="effect1_foregroundBlur_48_5202"/></filter><radialGradient id="o" cx="0" cy="0" r="1" gradientUnits="userSpaceOnUse" gradientTransform="matrix(-.00864 58.9332 -41.7152 -.00612 320.224 86.685)"><stop stop-color="#00CBEC"/><stop offset="1" stop-color="#00CBEC" stop-opacity="0"/></radialGradient><radialGradient id="p" cx="0" cy="0" r="1" gradientUnits="userSpaceOnUse" gradientTransform="matrix(-.00942 56.8374 -45.703 -.00758 376.596 86.676)"><stop stop-color="#00CBEC"/><stop offset="1" stop-color="#00CBEC" stop-opacity="0"/></radialGradient><radialGradient id="q" cx="0" cy="0" r="1" gradientUnits="userSpaceOnUse" gradientTransform="matrix(-.00992 56.8374 -48.0205 -.00838 431.292 86.676)"><stop stop-color="#00CBEC"/><stop offset="1" stop-color="#00CBEC" stop-opacity="0"/></radialGradient><radialGradient id="r" cx="0" cy="0" r="1" gradientUnits="userSpaceOnUse" gradientTransform="matrix(-.00853 56.8374 -41.0053 -.00615 493.559 86.676)"><stop stop-color="#00CBEC"/><stop offset="1" stop-color="#00CBEC" stop-opacity="0"/></radialGradient><radialGradient id="s" cx="0" cy="0" r="1" gradientUnits="userSpaceOnUse" gradientTransform="rotate(90.008 230.922 317.58) scale(58.9332 41.736)"><stop stop-color="#00CBEC"/><stop offset="1" stop-color="#00CBEC" stop-opacity="0"/></radialGradient><radialGradient id="t" cx="0" cy="0" r="1" gradientUnits="userSpaceOnUse" gradientTransform="rotate(90.008 260.9 347.527) scale(56.8374 39.2933)"><stop stop-color="#00CBEC"/><stop offset="1" stop-color="#00CBEC" stop-opacity="0"/></radialGradient><radialGradient id="u" cx="0" cy="0" r="1" gradientUnits="userSpaceOnUse" gradientTransform="rotate(90.008 290.101 376.727) scale(56.8374 36.767)"><stop stop-color="#00CBEC"/><stop offset="1" stop-color="#00CBEC" stop-opacity="0"/></radialGradient><radialGradient id="v" cx="0" cy="0" r="1" gradientUnits="userSpaceOnUse" gradientTransform="matrix(-.00823 56.8374 -39.5647 -.00573 725.968 86.676)"><stop stop-color="#00CBEC"/><stop offset="1" stop-color="#00CBEC" stop-opacity="0"/></radialGradient><linearGradient id="c" x1="548.971" y1="70.476" x2="549.391" y2="266.176" gradientUnits="userSpaceOnUse"><stop stop-color="#6B59ED"/><stop offset="1" stop-color="#6B59ED" stop-opacity="0"/></linearGradient></defs></svg>