<svg version="1.1" id="Layer_1" xmlns="http://www.w3.org/2000/svg" x="0" y="0" viewBox="0 0 53.4 55.5" style="enable-background:new 0 0 53.4 55.5" xml:space="preserve"><style>.st0{fill:#fff}</style><path d="M31.5 53.5c-2.8.5-5.5-1.3-6-4.1L17.8 7.9c-.5-2.8 1.3-5.5 4.1-6s5.5 1.3 6 4.1l7.6 41.5c.6 2.8-1.3 5.5-4 6z" style="fill:#ff5543"/><path d="M11.6 46.5c-1.7.3-3.6-.3-4.8-1.7-1.8-2.2-1.6-5.4.6-7.2l32.1-27.3c2.2-1.8 5.4-1.6 7.2.6 1.8 2.2 1.6 5.4-.6 7.2L14 45.3c-.7.6-1.6 1-2.4 1.2z" style="fill:#a112ff"/><path d="M47.5 39.8c-.9.2-1.8.1-2.6-.2L5.1 25.5c-2.7-1-4.1-3.9-3.1-6.6s3.9-4.1 6.6-3.1L48.3 30c2.7 1 4.1 3.9 3.1 6.6-.6 1.7-2.2 2.9-3.9 3.2z" style="fill:#00cbec"/></svg>