<svg width="280" height="39" fill="none" xmlns="http://www.w3.org/2000/svg"><path d="M22.694 38.306c-2.13.37-4.185-.964-4.566-3.04L12.345 4.51a3.81 3.81 0 0 1 3.12-4.447c2.13-.37 4.185.963 4.566 3.038l5.783 30.759c.38 2.075-1.065 4.076-3.12 4.447Z" fill="#FF5543"/><path d="M7.551 33.043a4.172 4.172 0 0 1-3.728-1.26c-1.37-1.63-1.218-4.002.456-5.336L28.706 6.213c1.674-1.334 4.11-1.186 5.479.445 1.37 1.63 1.218 4.002-.457 5.336L9.378 32.228c-.533.445-1.218.741-1.827.815Z" fill="#A112FF"/><path d="M34.87 28.152a3.567 3.567 0 0 1-1.979-.149L2.605 17.553c-2.055-.741-3.12-2.89-2.359-4.892a3.922 3.922 0 0 1 5.022-2.297l30.21 10.45c2.055.741 3.12 2.89 2.36 4.892-.457 1.334-1.675 2.223-2.968 2.446Z" fill="#00CBEC"/><path d="M57.453 24.572c0-.742-.293-1.335-.806-1.78a8.344 8.344 0 0 0-1.98-1.261c-.806-.371-1.686-.742-2.639-1.187-.952-.371-1.832-.89-2.638-1.484a7.18 7.18 0 0 1-1.98-2.225c-.513-.89-.806-2.002-.806-3.337 0-1.187.22-2.226.586-3.041.367-.89.953-1.558 1.686-2.151.733-.594 1.54-.965 2.566-1.261.953-.297 2.053-.445 3.299-.445 1.392 0 2.712.148 3.885.37 1.173.223 2.272.594 3.005 1.039l-1.466 3.931c-.513-.297-1.246-.593-2.272-.816-1.026-.297-2.053-.37-3.226-.37-1.1 0-1.905.222-2.492.667-.586.445-.88 1.038-.88 1.78 0 .667.294 1.26.807 1.706.513.445 1.173.89 1.979 1.26.806.372 1.686.817 2.639 1.187.953.445 1.833.89 2.639 1.484a7.84 7.84 0 0 1 1.98 2.15c.512.89.806 1.93.806 3.19 0 1.261-.22 2.374-.66 3.338-.44.964-1.026 1.706-1.76 2.3a7.616 7.616 0 0 1-2.785 1.409c-1.1.296-2.273.445-3.592.445-1.686 0-3.225-.149-4.472-.52-1.319-.296-2.272-.667-2.858-.964l1.466-4.005c.22.148.586.296.953.445.366.148.88.297 1.32.445.512.148 1.025.222 1.612.37.586.075 1.1.15 1.686.15 1.392 0 2.419-.223 3.152-.743.88-.445 1.246-1.112 1.246-2.076ZM64.124 22.42c0-2.892.733-5.191 2.125-6.749 1.393-1.557 3.372-2.373 5.938-2.373 1.393 0 2.566.222 3.519.667 1.026.445 1.832 1.039 2.492 1.854a7.685 7.685 0 0 1 1.466 2.893c.293 1.113.513 2.374.513 3.709 0 2.892-.733 5.192-2.126 6.75-1.392 1.557-3.372 2.373-5.937 2.373-1.393 0-2.566-.223-3.519-.668-1.026-.445-1.832-1.038-2.492-1.854a7.686 7.686 0 0 1-1.466-2.893c-.367-1.112-.513-2.373-.513-3.708Zm4.544 0c0 .742.074 1.484.22 2.077.147.668.367 1.187.587 1.706.293.52.66.89 1.1 1.113.44.297.952.37 1.612.37 1.173 0 2.053-.444 2.566-1.26.586-.816.88-2.225.88-4.005 0-1.558-.294-2.893-.807-3.857-.513-.965-1.393-1.484-2.639-1.484-1.1 0-1.98.445-2.566 1.261-.66.816-.953 2.151-.953 4.08ZM86.848 13.817v9.79c0 1.41.147 2.448.513 3.041.293.594.953.965 1.906.965.806 0 1.54-.223 2.126-.742.586-.52.953-1.113 1.246-1.854V13.89h4.398v12.016c0 .964.074 1.854.147 2.744.073.89.22 1.706.44 2.448h-3.372l-.807-2.522H93.3a5.615 5.615 0 0 1-2.2 2.15c-.952.594-2.052.89-3.298.89-.88 0-1.613-.148-2.346-.37-.66-.223-1.246-.593-1.686-1.113-.44-.519-.806-1.26-1.026-2.15-.22-.89-.367-2.078-.367-3.487v-10.68h4.472ZM109.865 17.97c-.733-.222-1.319-.37-1.906-.37-.806 0-1.466.222-1.979.667a3.581 3.581 0 0 0-1.099 1.632v11.125h-4.399V13.817h3.446l.513 2.299h.146a5.226 5.226 0 0 1 1.54-2.003c.66-.519 1.466-.667 2.346-.667.586 0 1.832.296 2.492.593l-1.1 3.931ZM124.233 29.986c-.66.52-1.539.89-2.492 1.187-.953.297-1.98.37-3.006.37-1.393 0-2.492-.222-3.445-.667-.953-.445-1.686-1.038-2.273-1.854a7.37 7.37 0 0 1-1.246-2.893c-.293-1.112-.366-2.373-.366-3.708 0-2.893.66-5.192 1.979-6.75 1.319-1.557 3.152-2.373 5.644-2.373 1.247 0 2.273.074 3.006.296.733.223 1.466.445 2.052.816l-1.026 3.635c-.513-.223-1.026-.446-1.539-.594-.513-.148-1.1-.222-1.76-.222-1.246 0-2.125.445-2.785 1.26-.66.816-.953 2.151-.953 3.932 0 .741.073 1.409.22 2.002.146.594.366 1.187.733 1.632.293.445.733.816 1.246 1.113.513.296 1.1.37 1.759.37.733 0 1.393-.074 1.906-.296a8.335 8.335 0 0 0 1.393-.742l.953 3.486ZM139.847 29.541c-.66.52-1.613 1.038-2.786 1.41-1.173.37-2.419.593-3.738.593-2.786 0-4.765-.816-6.011-2.448-1.246-1.632-1.906-3.857-1.906-6.675 0-3.041.733-5.34 2.126-6.824 1.392-1.483 3.445-2.3 6.011-2.3.879 0 1.686.149 2.492.371a6.184 6.184 0 0 1 2.199 1.113c.66.52 1.173 1.26 1.539 2.151.367.89.587 2.003.587 3.338 0 .519 0 .964-.074 1.557-.073.52-.146 1.113-.219 1.706h-10.263c.073 1.484.44 2.522 1.1 3.264.659.741 1.759 1.112 3.225 1.112.953 0 1.759-.148 2.492-.445.733-.296 1.32-.593 1.686-.89l1.54 2.967Zm-6.378-12.683c-1.173 0-2.052.37-2.565 1.038-.587.668-.88 1.632-1.027 2.819h6.304c.074-1.261-.073-2.225-.586-2.893-.366-.593-1.1-.964-2.126-.964ZM157.587 31.024c0 2.522-.66 4.376-1.98 5.563-1.319 1.187-3.225 1.78-5.644 1.78-1.613 0-2.932-.148-3.885-.37-.953-.223-1.686-.446-2.126-.742l.953-3.56c.513.222 1.1.444 1.833.593.733.148 1.539.297 2.565.297 1.54 0 2.566-.371 3.152-1.039.587-.667.807-1.632.807-2.818v-1.039h-.147c-.806 1.113-2.199 1.632-4.252 1.632-2.199 0-3.811-.668-4.911-2.077-1.1-1.409-1.613-3.56-1.613-6.453 0-3.115.733-5.414 2.199-6.972 1.467-1.557 3.592-2.373 6.305-2.373 1.466 0 2.785.074 3.885.296 1.099.223 2.052.445 2.785.742v16.54h.074Zm-7.477-3.337c.879 0 1.539-.223 1.979-.594.44-.37.806-.964 1.099-1.78V17.6c-.733-.296-1.612-.445-2.639-.445-1.172 0-2.052.445-2.639 1.261-.659.89-.952 2.225-.952 4.154 0 1.706.293 2.967.806 3.857.513.89 1.319 1.26 2.346 1.26ZM170.415 17.97c-.733-.222-1.32-.37-1.906-.37-.807 0-1.466.222-1.979.667-.514.445-.88.964-1.1 1.632v11.125h-4.398V13.817h3.445l.513 2.299h.147a5.214 5.214 0 0 1 1.539-2.003c.66-.519 1.466-.667 2.346-.667.586 0 1.246.148 1.979.37l-.586 4.154ZM172.54 14.633c.88-.445 1.54-.594 2.786-.816 1.246-.223 2.565-.371 3.885-.371 1.173 0 2.199.148 2.932.445.733.296 1.393.667 1.906 1.26.44.52.806 1.188.953 1.93.22.74.293 1.557.293 2.447 0 1.038 0 2.003-.073 3.04-.073 1.04-.073 2.003-.147 3.042 0 .964 0 1.928.074 2.893.073.964.219 1.78.513 2.67h-3.592l-.733-2.374c-.44.742-1.1 1.335-1.906 1.855-.807.519-1.833.741-3.152.741-.807 0-1.54-.148-2.126-.37-.66-.223-1.173-.594-1.613-1.039-.44-.445-.806-.964-1.026-1.558a5.83 5.83 0 0 1-.367-2.076c0-1.039.22-1.929.734-2.67.513-.742 1.099-1.336 1.979-1.78.879-.446 1.906-.742 3.152-.965 1.246-.222 2.565-.222 4.105-.148.146-1.261.073-2.225-.293-2.745-.367-.593-1.1-.816-2.273-.816-.879 0-1.832.075-2.785.297-.953.223-1.393.297-1.98.594l-1.246-3.486Zm5.205 12.98c.879 0 1.613-.223 2.126-.594.513-.37.879-.816 1.173-1.26v-2.226a9.488 9.488 0 0 0-2.053 0c-.66.074-1.246.148-1.686.297-.44.148-.88.37-1.173.667-.293.297-.44.668-.44 1.113 0 .667.22 1.112.587 1.483.293.371.806.52 1.466.52ZM188.741 13.817h3.225l.513 2.077h.147c.586-.89 1.319-1.484 2.126-1.929.806-.445 1.759-.593 2.932-.593 2.126 0 3.738.667 4.838 2.077 1.099 1.409 1.613 3.56 1.613 6.6 0 1.484-.147 2.82-.514 4.006-.366 1.187-.879 2.225-1.539 3.041-.66.816-1.466 1.483-2.419 1.928-.953.446-2.052.668-3.299.668-.733 0-1.319-.074-1.759-.148-.44-.074-.88-.297-1.393-.52v7.047h-4.398V13.817h-.073Zm7.55 3.263c-.88 0-1.539.223-2.052.668-.514.445-.88 1.112-1.173 2.002v7.195c.293.223.659.445 1.026.593.366.149.88.223 1.466.223 1.246 0 2.199-.445 2.859-1.335.66-.89.953-2.373.953-4.524 0-1.484-.22-2.67-.733-3.486-.44-.89-1.246-1.336-2.346-1.336ZM216.963 31.025v-9.791c0-1.41-.22-2.448-.587-3.041-.366-.593-1.099-.964-2.125-.964-.733 0-1.466.222-2.053.741-.66.52-1.026 1.187-1.246 2.003V30.95h-4.398V6.92h4.398v8.826h.147c.513-.741 1.246-1.335 1.979-1.78.806-.445 1.832-.667 3.005-.667.88 0 1.613.148 2.273.37.659.223 1.246.594 1.686 1.113.439.52.806 1.261.953 2.151.146.89.293 2.003.293 3.338v10.755h-4.325Z" fill="#fff"/><path d="M245.132 31.192v-4.94h-12.736v-2.54l10.761-16.536h4.086V24.33h4.155v1.921h-4.155v4.94h-2.111Zm-10.523-6.862h10.523V8.411h-.409l-10.114 15.576v.343ZM256.68 31.672c-.567 0-1.033-.183-1.396-.549-.363-.366-.545-.835-.545-1.407 0-.571.182-1.04.545-1.406.363-.366.829-.55 1.396-.55.568 0 1.033.184 1.397.55.363.366.545.835.545 1.406 0 .572-.182 1.041-.545 1.407-.364.366-.829.549-1.397.549ZM271.316 31.672c-2.679 0-4.802-.812-6.368-2.436-1.544-1.647-2.316-4.083-2.316-7.308V16.44c0-3.225.772-5.65 2.316-7.273 1.566-1.647 3.689-2.47 6.368-2.47 2.679 0 4.79.823 6.334 2.47 1.567 1.624 2.35 4.048 2.35 7.273v5.49c0 3.224-.783 5.66-2.35 7.307-1.544 1.624-3.655 2.436-6.334 2.436Zm0-1.921c2.18 0 3.814-.675 4.904-2.024 1.112-1.373 1.669-3.26 1.669-5.661v-5.764c0-2.402-.557-4.277-1.669-5.627-1.09-1.372-2.724-2.058-4.904-2.058-2.179 0-3.825.686-4.938 2.058-1.09 1.35-1.634 3.225-1.634 5.627v5.764c0 2.401.544 4.288 1.634 5.66 1.113 1.35 2.759 2.025 4.938 2.025Z" fill="#BFBFFF"/></svg>