<svg width="775" height="373" viewBox="0 0 775 373" fill="none" xmlns="http://www.w3.org/2000/svg">
<path d="M57.2074 104.846C51.8364 105.773 46.6573 102.435 45.6981 97.2422L31.1197 20.2813C30.1606 15.0888 33.6134 10.0817 38.9844 9.15443C44.3554 8.22719 49.5346 11.5653 50.4937 16.7578L65.0721 93.7187C66.0312 98.9112 62.3866 103.918 57.2074 104.846Z" fill="#FF5543"/>
<path d="M19.0346 91.6788C15.5818 92.2351 12.129 91.1224 9.63532 88.5262C6.18253 84.4463 6.56617 78.512 10.7863 75.1739L72.361 24.5466C76.5811 21.2086 82.7194 21.5795 86.1722 25.6593C89.625 29.7392 89.2413 35.6735 85.0213 39.0116L23.6383 89.6389C22.2956 90.7515 20.5692 91.4933 19.0346 91.6788Z" fill="#A112FF"/>
<path d="M87.8989 79.4392C86.1725 79.8101 84.4461 79.6247 82.9116 79.0683L6.56651 52.9202C1.38732 51.0657 -1.29818 45.6877 0.620036 40.6806C2.53825 35.6735 8.10108 33.0772 13.2803 34.9317L89.4335 61.0799C94.6127 62.9343 97.2982 68.3123 95.38 73.3194C94.229 76.6575 91.1599 78.8829 87.8989 79.4392Z" fill="#00CBEC"/>
<path d="M148.538 87.45V74.922H116V68.484L143.492 26.55H153.932V70.05H164.546V74.922H153.932V87.45H148.538ZM121.655 70.05H148.538V29.682H147.494L121.655 69.18V70.05Z" fill="white"/>
<path d="M178.041 88.668C176.591 88.668 175.402 88.204 174.474 87.276C173.546 86.348 173.082 85.159 173.082 83.709C173.082 82.259 173.546 81.07 174.474 80.142C175.402 79.214 176.591 78.75 178.041 78.75C179.491 78.75 180.68 79.214 181.608 80.142C182.536 81.07 183 82.259 183 83.709C183 85.159 182.536 86.348 181.608 87.276C180.68 88.204 179.491 88.668 178.041 88.668Z" fill="white"/>
<path d="M215.431 88.668C208.587 88.668 203.164 86.609 199.162 82.491C195.218 78.315 193.246 72.138 193.246 63.96V50.04C193.246 41.862 195.218 35.714 199.162 31.596C203.164 27.42 208.587 25.332 215.431 25.332C222.275 25.332 227.669 27.42 231.613 31.596C235.615 35.714 237.616 41.862 237.616 50.04V63.96C237.616 72.138 235.615 78.315 231.613 82.491C227.669 86.609 222.275 88.668 215.431 88.668ZM215.431 83.796C220.999 83.796 225.175 82.085 227.959 78.663C230.801 75.183 232.222 70.398 232.222 64.308V49.692C232.222 43.602 230.801 38.846 227.959 35.424C225.175 31.944 220.999 30.204 215.431 30.204C209.863 30.204 205.658 31.944 202.816 35.424C200.032 38.846 198.64 43.602 198.64 49.692V64.308C198.64 70.398 200.032 75.183 202.816 78.663C205.658 82.085 209.863 83.796 215.431 83.796Z" fill="white"/>
<line x1="270.116" y1="13" x2="270.116" y2="101" stroke="white"/>
<g opacity="0.5" filter="url(#filter0_f_48_5202)">
<path d="M302.036 73.4157L338.152 70.476L330.173 214.941L320.743 100.293L310.855 214.941L302.036 73.4157Z" fill="#6B59ED"/>
</g>
<g opacity="0.5" filter="url(#filter1_f_48_5202)">
<path d="M530.913 73.4157L567.029 70.476L559.05 214.941L548.971 139.769L539.732 214.941L530.913 73.4157Z" fill="url(#paint0_linear_48_5202)"/>
</g>
<g filter="url(#filter2_f_48_5202)">
<path d="M710.988 335.469L708.134 62.9167L714.681 62.9167L710.988 335.469Z" fill="#6B59ED"/>
</g>
<g filter="url(#filter3_f_48_5202)">
<path d="M666.548 354.367L663.62 66.2764L670.339 66.2764L666.548 354.367Z" fill="#6B59ED"/>
</g>
<g filter="url(#filter4_f_48_5202)">
<path d="M478.407 354.367L475.478 66.2764L482.197 66.2764L478.407 354.367Z" fill="#6B59ED"/>
</g>
<g filter="url(#filter5_f_48_5202)">
<path d="M499.448 235.939L493.957 66.2764L506.556 66.2764L499.448 235.939Z" fill="#6B59ED"/>
</g>
<g filter="url(#filter6_f_48_5202)">
<path d="M621.774 358.566L619.944 70.476L624.144 70.476L621.774 358.566Z" fill="#6B59ED"/>
</g>
<g filter="url(#filter7_f_48_5202)">
<path d="M593.583 358.566L591.386 70.476L596.426 70.476L593.583 358.566Z" fill="#6B59ED"/>
</g>
<g filter="url(#filter8_f_48_5202)">
<path d="M735.42 230.06L732.492 37.7193L739.211 37.7193L735.42 230.06Z" fill="#6B59ED"/>
</g>
<g opacity="0.5" filter="url(#filter9_f_48_5202)">
<path d="M409.965 68.2255L452.8 63.3287L443.337 303.972L431.803 48.6382L420.425 303.972L409.965 68.2255Z" fill="#6B59ED"/>
</g>
<g filter="url(#filter10_f_48_5202)">
<path d="M376.368 353.947L373.515 81.3947L380.061 81.3947L376.368 353.947Z" fill="#6B59ED"/>
</g>
<g filter="url(#filter11_f_48_5202)">
<path d="M301.616 76.1154L306.217 70.7467C310.091 74.3567 315.251 76.7633 320.801 76.7633C327.246 76.7633 330.841 73.8198 330.841 69.7285C330.841 64.7671 327.115 63.3972 322.068 61.2867L314.878 58.1581C309.663 56.1217 303.944 52.3636 303.944 44.903C303.926 36.9796 311.078 31 321.155 31C327.469 31 333.225 33.4807 337.192 37.3684L333.15 42.3298C329.742 39.4973 326.035 37.8127 320.82 37.8127C315.604 37.8127 311.861 40.2749 311.861 44.4217C311.861 48.8092 316.256 50.4198 320.745 52.16L327.656 55.1961C334.063 57.6768 338.831 61.3793 338.831 68.7844C338.831 76.93 331.921 83.576 320.354 83.576C313.034 83.576 306.403 80.7436 301.616 76.1154Z" fill="#00CBEC"/>
<path d="M372.676 38.4975H356.21V31.9255H396.983V38.4975H380.517V82.6317H372.676V38.4975Z" fill="#00CBEC"/>
<path d="M426.729 31.9255H435.856L452.712 82.6317H444.349L436.135 55.0293C434.477 49.5311 432.801 43.8847 431.329 38.1458H431.013C429.485 43.8847 427.902 49.5496 426.245 55.0293L417.9 82.6317H409.872L426.729 31.9255Z" fill="#00CBEC"/>
<path d="M475.269 31.9255H491.79C502.258 31.9255 510.155 35.6466 510.155 46.6061C510.155 57.5656 502.258 62.0271 491.79 62.0271H483.185V82.6132H475.287V31.9255H475.269ZM490.84 55.7884C498.291 55.7884 502.351 52.7152 502.351 46.6246C502.351 40.5339 498.291 38.2013 490.84 38.2013H483.166V55.7884H490.84ZM496.111 55.5107L511.85 82.6317H503.022L490.225 59.9352L496.093 55.5107H496.111Z" fill="#00CBEC"/>
<path d="M529.918 76.1154L534.519 70.7467C538.393 74.3567 543.552 76.7633 549.103 76.7633C555.548 76.7633 559.142 73.8198 559.142 69.7285C559.142 64.7671 555.417 63.3971 550.37 61.2867L543.18 58.1581C537.964 56.1217 532.246 52.3636 532.246 44.903C532.246 36.9981 539.399 31.0185 549.476 31.0185C555.79 31.0185 561.545 33.4992 565.513 37.3868L561.471 42.3482C558.062 39.5158 554.356 37.8311 549.14 37.8311C543.925 37.8311 540.181 40.2933 540.181 44.4402C540.181 48.8277 544.577 50.4383 549.066 52.1785L555.976 55.2145C562.383 57.6952 567.152 61.3978 567.152 68.8028C567.152 76.9484 560.241 83.5945 548.675 83.5945C541.354 83.5945 534.724 80.762 529.937 76.1339L529.918 76.1154Z" fill="#00CBEC"/>
<path d="M590.938 31.9255H598.835V52.6782H618.095V31.9255H625.992V82.6317H618.095V59.5094H598.835V82.6317H590.938V31.9255Z" fill="#00CBEC"/>
<path d="M650.467 76.0783H662.946V38.4975H650.467V31.9255H683.268V38.4975H670.788V76.0783H683.268V82.6317H650.467V76.0783Z" fill="#00CBEC"/>
<path d="M708.338 31.9255H724.431C735.663 31.9255 743.616 35.7576 743.616 47.1985C743.616 58.6393 735.532 63.286 724.431 63.286H716.161V82.6317H708.319V31.9255H708.338ZM723.686 57.0287C731.9 57.0287 735.83 53.9001 735.83 47.1985C735.83 40.4969 731.77 38.1828 723.686 38.1828H716.18V57.0287H723.686Z" fill="#00CBEC"/>
</g>
<g opacity="0.8" filter="url(#filter12_f_48_5202)">
<path d="M301.616 105.512L306.217 100.144C310.091 103.754 315.251 106.16 320.801 106.16C327.246 106.16 330.841 103.217 330.841 99.1256C330.841 94.1642 327.115 92.7943 322.068 90.6838L314.878 87.5552C309.663 85.5188 303.944 81.7607 303.944 74.3001C303.926 66.3767 311.078 60.3971 321.155 60.3971C327.469 60.3971 333.225 62.8778 337.192 66.7654L333.15 71.7268C329.742 68.8944 326.035 67.2097 320.82 67.2097C315.604 67.2097 311.861 69.6719 311.861 73.8188C311.861 78.2063 316.256 79.8169 320.745 81.5571L327.656 84.5931C334.063 87.0738 338.831 90.7764 338.831 98.1814C338.831 106.327 331.921 112.973 320.354 112.973C313.034 112.973 306.403 110.141 301.616 105.512Z" fill="url(#paint1_radial_48_5202)"/>
<path d="M372.676 67.8948H356.21V61.3228H396.983V67.8948H380.517V112.029H372.676V67.8948Z" fill="url(#paint2_radial_48_5202)"/>
<path d="M426.729 61.3228H435.856L452.712 112.029H444.349L436.135 84.4266C434.477 78.9283 432.801 73.282 431.329 67.543H431.013C429.485 73.282 427.902 78.9469 426.245 84.4266L417.9 112.029H409.872L426.729 61.3228Z" fill="url(#paint3_radial_48_5202)"/>
<path d="M475.269 61.3228H491.79C502.258 61.3228 510.155 65.0438 510.155 76.0033C510.155 86.9628 502.258 91.4244 491.79 91.4244H483.185V112.011H475.287V61.3228H475.269ZM490.84 85.1856C498.291 85.1856 502.351 82.1125 502.351 76.0219C502.351 69.9312 498.291 67.5986 490.84 67.5986H483.166V85.1856H490.84ZM496.111 84.9079L511.85 112.029H503.022L490.225 89.3325L496.093 84.9079H496.111Z" fill="url(#paint4_radial_48_5202)"/>
<path d="M529.918 105.513L534.519 100.144C538.393 103.754 543.552 106.161 549.103 106.161C555.548 106.161 559.142 103.217 559.142 99.1258C559.142 94.1644 555.417 92.7945 550.37 90.684L543.18 87.5554C537.964 85.519 532.246 81.7609 532.246 74.3003C532.246 66.3954 539.399 60.4158 549.476 60.4158C555.79 60.4158 561.545 62.8965 565.513 66.7841L561.471 71.7455C558.062 68.9131 554.356 67.2284 549.14 67.2284C543.925 67.2284 540.181 69.6906 540.181 73.8375C540.181 78.225 544.577 79.8356 549.066 81.5758L555.976 84.6118C562.383 87.0925 567.152 90.7951 567.152 98.2002C567.152 106.346 560.241 112.992 548.675 112.992C541.354 112.992 534.724 110.159 529.937 105.531L529.918 105.513Z" fill="url(#paint5_radial_48_5202)"/>
<path d="M590.938 61.3228H598.835V82.0755H618.095V61.3228H625.992V112.029H618.095V88.9067H598.835V112.029H590.938V61.3228Z" fill="url(#paint6_radial_48_5202)"/>
<path d="M650.467 105.476H662.946V67.8948H650.467V61.3228H683.268V67.8948H670.788V105.476H683.268V112.029H650.467V105.476Z" fill="url(#paint7_radial_48_5202)"/>
<path d="M708.338 61.3228H724.431C735.663 61.3228 743.616 65.1549 743.616 76.5957C743.616 88.0366 735.532 92.6833 724.431 92.6833H716.161V112.029H708.319V61.3228H708.338ZM723.686 86.426C731.9 86.426 735.83 83.2973 735.83 76.5957C735.83 69.8942 731.77 67.5801 723.686 67.5801H716.18V86.426H723.686Z" fill="url(#paint8_radial_48_5202)"/>
</g>
<path d="M301.616 76.9553L306.217 71.5867C310.091 75.1966 315.251 77.6033 320.801 77.6033C327.246 77.6033 330.841 74.6598 330.841 70.5685C330.841 65.6071 327.115 64.2371 322.068 62.1267L314.878 58.998C309.663 56.9616 303.944 53.2036 303.944 45.743C303.926 37.8195 311.078 31.8399 321.155 31.8399C327.469 31.8399 333.225 34.3206 337.192 38.2083L333.15 43.1697C329.742 40.3373 326.035 38.6526 320.82 38.6526C315.604 38.6526 311.861 41.1148 311.861 45.2616C311.861 49.6491 316.256 51.2597 320.745 52.9999L327.656 56.036C334.063 58.5167 338.831 62.2192 338.831 69.6243C338.831 77.7699 331.921 84.416 320.354 84.416C313.034 84.416 306.403 81.5835 301.616 76.9553Z" fill="white"/>
<path d="M372.676 39.3375H356.21V32.7655H396.983V39.3375H380.517V83.4718H372.676V39.3375Z" fill="white"/>
<path d="M426.729 32.7655H435.856L452.712 83.4718H444.349L436.135 55.8694C434.477 50.3711 432.801 44.7247 431.329 38.9858H431.013C429.485 44.7247 427.902 50.3896 426.245 55.8694L417.9 83.4718H409.872L426.729 32.7655Z" fill="white"/>
<path d="M475.269 32.7655H491.79C502.258 32.7655 510.155 36.4866 510.155 47.4461C510.155 58.4056 502.258 62.8672 491.79 62.8672H483.185V83.4533H475.287V32.7655H475.269ZM490.84 56.6284C498.291 56.6284 502.351 53.5553 502.351 47.4646C502.351 41.3739 498.291 39.0413 490.84 39.0413H483.166V56.6284H490.84ZM496.111 56.3507L511.85 83.4718H503.022L490.225 60.7752L496.093 56.3507H496.111Z" fill="white"/>
<path d="M529.918 76.9554L534.519 71.5867C538.393 75.1967 543.552 77.6034 549.103 77.6034C555.548 77.6034 559.142 74.6598 559.142 70.5685C559.142 65.6071 555.417 64.2372 550.37 62.1268L543.18 58.9981C537.964 56.9617 532.246 53.2036 532.246 45.743C532.246 37.8381 539.399 31.8585 549.476 31.8585C555.79 31.8585 561.545 34.3392 565.513 38.2269L561.471 43.1883C558.062 40.3558 554.356 38.6712 549.14 38.6712C543.925 38.6712 540.181 41.1334 540.181 45.2802C540.181 49.6677 544.577 51.2783 549.066 53.0185L555.976 56.0546C562.383 58.5353 567.152 62.2378 567.152 69.6429C567.152 77.7885 560.241 84.4345 548.675 84.4345C541.354 84.4345 534.724 81.6021 529.937 76.9739L529.918 76.9554Z" fill="white"/>
<path d="M590.938 32.7655H598.835V53.5182H618.095V32.7655H625.992V83.4718H618.095V60.3494H598.835V83.4718H590.938V32.7655Z" fill="white"/>
<path d="M650.467 76.9183H662.946V39.3375H650.467V32.7655H683.268V39.3375H670.788V76.9183H683.268V83.4718H650.467V76.9183Z" fill="white"/>
<path d="M708.338 32.7655H724.431C735.663 32.7655 743.616 36.5977 743.616 48.0385C743.616 59.4793 735.532 64.126 724.431 64.126H716.161V83.4718H708.319V32.7655H708.338ZM723.686 57.8687C731.9 57.8687 735.83 54.7401 735.83 48.0385C735.83 41.3369 731.77 39.0228 723.686 39.0228H716.18V57.8687H723.686Z" fill="white"/>
<defs>
<filter id="filter0_f_48_5202" x="288.036" y="56.476" width="64.1162" height="172.465" filterUnits="userSpaceOnUse" color-interpolation-filters="sRGB">
<feFlood flood-opacity="0" result="BackgroundImageFix"/>
<feBlend mode="normal" in="SourceGraphic" in2="BackgroundImageFix" result="shape"/>
<feGaussianBlur stdDeviation="7" result="effect1_foregroundBlur_48_5202"/>
</filter>
<filter id="filter1_f_48_5202" x="516.913" y="56.476" width="64.1162" height="172.465" filterUnits="userSpaceOnUse" color-interpolation-filters="sRGB">
<feFlood flood-opacity="0" result="BackgroundImageFix"/>
<feBlend mode="normal" in="SourceGraphic" in2="BackgroundImageFix" result="shape"/>
<feGaussianBlur stdDeviation="7" result="effect1_foregroundBlur_48_5202"/>
</filter>
<filter id="filter2_f_48_5202" x="694.134" y="48.9167" width="34.5469" height="300.552" filterUnits="userSpaceOnUse" color-interpolation-filters="sRGB">
<feFlood flood-opacity="0" result="BackgroundImageFix"/>
<feBlend mode="normal" in="SourceGraphic" in2="BackgroundImageFix" result="shape"/>
<feGaussianBlur stdDeviation="7" result="effect1_foregroundBlur_48_5202"/>
</filter>
<filter id="filter3_f_48_5202" x="649.619" y="52.2764" width="34.7197" height="316.09" filterUnits="userSpaceOnUse" color-interpolation-filters="sRGB">
<feFlood flood-opacity="0" result="BackgroundImageFix"/>
<feBlend mode="normal" in="SourceGraphic" in2="BackgroundImageFix" result="shape"/>
<feGaussianBlur stdDeviation="7" result="effect1_foregroundBlur_48_5202"/>
</filter>
<filter id="filter4_f_48_5202" x="461.478" y="52.2764" width="34.7197" height="316.09" filterUnits="userSpaceOnUse" color-interpolation-filters="sRGB">
<feFlood flood-opacity="0" result="BackgroundImageFix"/>
<feBlend mode="normal" in="SourceGraphic" in2="BackgroundImageFix" result="shape"/>
<feGaussianBlur stdDeviation="7" result="effect1_foregroundBlur_48_5202"/>
</filter>
<filter id="filter5_f_48_5202" x="479.957" y="52.2764" width="40.5986" height="197.663" filterUnits="userSpaceOnUse" color-interpolation-filters="sRGB">
<feFlood flood-opacity="0" result="BackgroundImageFix"/>
<feBlend mode="normal" in="SourceGraphic" in2="BackgroundImageFix" result="shape"/>
<feGaussianBlur stdDeviation="7" result="effect1_foregroundBlur_48_5202"/>
</filter>
<filter id="filter6_f_48_5202" x="605.944" y="56.476" width="32.1992" height="316.09" filterUnits="userSpaceOnUse" color-interpolation-filters="sRGB">
<feFlood flood-opacity="0" result="BackgroundImageFix"/>
<feBlend mode="normal" in="SourceGraphic" in2="BackgroundImageFix" result="shape"/>
<feGaussianBlur stdDeviation="7" result="effect1_foregroundBlur_48_5202"/>
</filter>
<filter id="filter7_f_48_5202" x="577.387" y="56.476" width="33.0391" height="316.09" filterUnits="userSpaceOnUse" color-interpolation-filters="sRGB">
<feFlood flood-opacity="0" result="BackgroundImageFix"/>
<feBlend mode="normal" in="SourceGraphic" in2="BackgroundImageFix" result="shape"/>
<feGaussianBlur stdDeviation="7" result="effect1_foregroundBlur_48_5202"/>
</filter>
<filter id="filter8_f_48_5202" x="718.491" y="23.7192" width="34.7197" height="220.34" filterUnits="userSpaceOnUse" color-interpolation-filters="sRGB">
<feFlood flood-opacity="0" result="BackgroundImageFix"/>
<feBlend mode="normal" in="SourceGraphic" in2="BackgroundImageFix" result="shape"/>
<feGaussianBlur stdDeviation="7" result="effect1_foregroundBlur_48_5202"/>
</filter>
<filter id="filter9_f_48_5202" x="395.965" y="34.6382" width="70.8359" height="283.334" filterUnits="userSpaceOnUse" color-interpolation-filters="sRGB">
<feFlood flood-opacity="0" result="BackgroundImageFix"/>
<feBlend mode="normal" in="SourceGraphic" in2="BackgroundImageFix" result="shape"/>
<feGaussianBlur stdDeviation="7" result="effect1_foregroundBlur_48_5202"/>
</filter>
<filter id="filter10_f_48_5202" x="359.515" y="67.3947" width="34.5469" height="300.552" filterUnits="userSpaceOnUse" color-interpolation-filters="sRGB">
<feFlood flood-opacity="0" result="BackgroundImageFix"/>
<feBlend mode="normal" in="SourceGraphic" in2="BackgroundImageFix" result="shape"/>
<feGaussianBlur stdDeviation="7" result="effect1_foregroundBlur_48_5202"/>
</filter>
<filter id="filter11_f_48_5202" x="270.616" y="0" width="504" height="114.594" filterUnits="userSpaceOnUse" color-interpolation-filters="sRGB">
<feFlood flood-opacity="0" result="BackgroundImageFix"/>
<feBlend mode="normal" in="SourceGraphic" in2="BackgroundImageFix" result="shape"/>
<feGaussianBlur stdDeviation="15.5" result="effect1_foregroundBlur_48_5202"/>
</filter>
<filter id="filter12_f_48_5202" x="270.616" y="29.3971" width="504" height="114.595" filterUnits="userSpaceOnUse" color-interpolation-filters="sRGB">
<feFlood flood-opacity="0" result="BackgroundImageFix"/>
<feBlend mode="normal" in="SourceGraphic" in2="BackgroundImageFix" result="shape"/>
<feGaussianBlur stdDeviation="15.5" result="effect1_foregroundBlur_48_5202"/>
</filter>
<linearGradient id="paint0_linear_48_5202" x1="548.971" y1="70.476" x2="549.391" y2="266.176" gradientUnits="userSpaceOnUse">
<stop stop-color="#6B59ED"/>
<stop offset="1" stop-color="#6B59ED" stop-opacity="0"/>
</linearGradient>
<radialGradient id="paint1_radial_48_5202" cx="0" cy="0" r="1" gradientUnits="userSpaceOnUse" gradientTransform="translate(320.224 86.6851) rotate(90.0084) scale(58.9332 41.7152)">
<stop stop-color="#00CBEC"/>
<stop offset="1" stop-color="#00CBEC" stop-opacity="0"/>
</radialGradient>
<radialGradient id="paint2_radial_48_5202" cx="0" cy="0" r="1" gradientUnits="userSpaceOnUse" gradientTransform="translate(376.596 86.6759) rotate(90.0095) scale(56.8374 45.703)">
<stop stop-color="#00CBEC"/>
<stop offset="1" stop-color="#00CBEC" stop-opacity="0"/>
</radialGradient>
<radialGradient id="paint3_radial_48_5202" cx="0" cy="0" r="1" gradientUnits="userSpaceOnUse" gradientTransform="translate(431.292 86.6759) rotate(90.01) scale(56.8374 48.0205)">
<stop stop-color="#00CBEC"/>
<stop offset="1" stop-color="#00CBEC" stop-opacity="0"/>
</radialGradient>
<radialGradient id="paint4_radial_48_5202" cx="0" cy="0" r="1" gradientUnits="userSpaceOnUse" gradientTransform="translate(493.559 86.6759) rotate(90.0086) scale(56.8374 41.0053)">
<stop stop-color="#00CBEC"/>
<stop offset="1" stop-color="#00CBEC" stop-opacity="0"/>
</radialGradient>
<radialGradient id="paint5_radial_48_5202" cx="0" cy="0" r="1" gradientUnits="userSpaceOnUse" gradientTransform="translate(548.535 86.7038) rotate(90.0084) scale(58.9332 41.736)">
<stop stop-color="#00CBEC"/>
<stop offset="1" stop-color="#00CBEC" stop-opacity="0"/>
</radialGradient>
<radialGradient id="paint6_radial_48_5202" cx="0" cy="0" r="1" gradientUnits="userSpaceOnUse" gradientTransform="translate(608.465 86.6759) rotate(90.0082) scale(56.8374 39.2933)">
<stop stop-color="#00CBEC"/>
<stop offset="1" stop-color="#00CBEC" stop-opacity="0"/>
</radialGradient>
<radialGradient id="paint7_radial_48_5202" cx="0" cy="0" r="1" gradientUnits="userSpaceOnUse" gradientTransform="translate(666.867 86.6759) rotate(90.0077) scale(56.8374 36.767)">
<stop stop-color="#00CBEC"/>
<stop offset="1" stop-color="#00CBEC" stop-opacity="0"/>
</radialGradient>
<radialGradient id="paint8_radial_48_5202" cx="0" cy="0" r="1" gradientUnits="userSpaceOnUse" gradientTransform="translate(725.968 86.6759) rotate(90.0083) scale(56.8374 39.5647)">
<stop stop-color="#00CBEC"/>
<stop offset="1" stop-color="#00CBEC" stop-opacity="0"/>
</radialGradient>
</defs>
</svg>
