<svg width="284" height="125" viewBox="0 0 284 125" fill="none" xmlns="http://www.w3.org/2000/svg">
<path d="M19.4636 56.6279C17.6362 56.9436 15.8741 55.8072 15.5478 54.0396L10.5878 27.8404C10.2615 26.0727 11.4362 24.3682 13.2636 24.0526C15.091 23.7369 16.8531 24.8733 17.1794 26.6409L22.1394 52.8401C22.4657 54.6077 21.2257 56.3123 19.4636 56.6279Z" fill="#FF5543"/>
<path d="M6.4762 52.1457C5.30146 52.3351 4.12672 51.9563 3.2783 51.0725C2.10356 49.6836 2.23409 47.6634 3.66988 46.5271L24.6194 29.2924C26.0552 28.1561 28.1436 28.2823 29.3184 29.6712C30.4931 31.0601 30.3626 33.0803 28.9268 34.2166L8.04253 51.4512C7.58568 51.83 6.99831 52.0825 6.4762 52.1457Z" fill="#A112FF"/>
<path d="M29.9058 47.9789C29.3184 48.1052 28.731 48.042 28.2089 47.8527L2.23412 38.9513C0.472007 38.3199 -0.441679 36.4892 0.210954 34.7846C0.863588 33.0801 2.75622 32.1963 4.51833 32.8276L30.4279 41.729C32.19 42.3603 33.1037 44.1911 32.451 45.8956C32.0595 47.032 31.0153 47.7895 29.9058 47.9789Z" fill="#00CBEC"/>
<path d="M50.5369 50.7061V46.4413H39.4666V44.2497L48.8201 29.9744H52.3721V44.7828H55.9833V46.4413H52.3721V50.7061H50.5369ZM41.3905 44.7828H50.5369V31.0406H50.1817L41.3905 44.4866V44.7828Z" fill="white"/>
<path d="M60.5748 51.1208C60.0814 51.1208 59.6769 50.9628 59.3612 50.6469C59.0454 50.331 58.8876 49.9262 58.8876 49.4326C58.8876 48.939 59.0454 48.5342 59.3612 48.2183C59.6769 47.9024 60.0814 47.7445 60.5748 47.7445C61.0681 47.7445 61.4726 47.9024 61.7884 48.2183C62.1041 48.5342 62.262 48.939 62.262 49.4326C62.262 49.9262 62.1041 50.331 61.7884 50.6469C61.4726 50.9628 61.0681 51.1208 60.5748 51.1208Z" fill="white"/>
<path d="M73.296 51.1208C70.9675 51.1208 69.1225 50.4198 67.7609 49.018C66.419 47.5964 65.7481 45.4936 65.7481 42.7096V37.971C65.7481 35.187 66.419 33.0941 67.7609 31.6922C69.1225 30.2706 70.9675 29.5598 73.296 29.5598C75.6246 29.5598 77.4598 30.2706 78.8016 31.6922C80.1632 33.0941 80.844 35.187 80.844 37.971V42.7096C80.844 45.4936 80.1632 47.5964 78.8016 49.018C77.4598 50.4198 75.6246 51.1208 73.296 51.1208ZM73.296 49.4622C75.1904 49.4622 76.6112 48.8798 77.5584 47.7148C78.5254 46.5302 79.0088 44.9013 79.0088 42.8281V37.8525C79.0088 35.7793 78.5254 34.1603 77.5584 32.9954C76.6112 31.8107 75.1904 31.2183 73.296 31.2183C71.4016 31.2183 69.971 31.8107 69.0041 32.9954C68.0569 34.1603 67.5833 35.7793 67.5833 37.8525V42.8281C67.5833 44.9013 68.0569 46.5302 69.0041 47.7148C69.971 48.8798 71.4016 49.4622 73.296 49.4622Z" fill="white"/>
<path fill-rule="evenodd" clip-rule="evenodd" d="M91.7314 55.3187L91.7314 25.3616L92.0717 25.3616L92.0717 55.3187L91.7314 55.3187Z" fill="white"/>
<g opacity="0.5" filter="url(#filter0_f_479_7700)">
<path d="M102.762 45.9285L115.049 44.9277L112.335 94.1068L109.126 55.0781L105.762 94.1068L102.762 45.9285Z" fill="#6B59ED"/>
</g>
<g opacity="0.5" filter="url(#filter1_f_479_7700)">
<path d="M180.632 45.9285L192.92 44.9277L190.205 94.1068L186.776 68.5165L183.633 94.1068L180.632 45.9285Z" fill="url(#paint0_linear_479_7700)"/>
</g>
<g filter="url(#filter2_f_479_7700)">
<path d="M241.899 135.137L240.928 42.3543L243.156 42.3543L241.899 135.137Z" fill="#6B59ED"/>
</g>
<g filter="url(#filter3_f_479_7700)">
<path d="M226.779 141.57L225.783 43.4981L228.069 43.4981L226.779 141.57Z" fill="#6B59ED"/>
</g>
<g filter="url(#filter4_f_479_7700)">
<path d="M162.768 141.57L161.772 43.4981L164.058 43.4981L162.768 141.57Z" fill="#6B59ED"/>
</g>
<g filter="url(#filter5_f_479_7700)">
<path d="M169.927 101.255L168.059 43.498L172.345 43.498L169.927 101.255Z" fill="#6B59ED"/>
</g>
<g filter="url(#filter6_f_479_7700)">
<path d="M211.546 143L210.923 44.9277L212.352 44.9277L211.546 143Z" fill="#6B59ED"/>
</g>
<g filter="url(#filter7_f_479_7700)">
<path d="M201.954 143L201.207 44.9277L202.922 44.9277L201.954 143Z" fill="#6B59ED"/>
</g>
<g filter="url(#filter8_f_479_7700)">
<path d="M250.212 99.2534L249.215 33.7766L251.501 33.7766L250.212 99.2534Z" fill="#6B59ED"/>
</g>
<g opacity="0.5" filter="url(#filter9_f_479_7700)">
<path d="M139.482 44.1616L154.056 42.4946L150.836 124.415L146.912 37.4937L143.041 124.415L139.482 44.1616Z" fill="#6B59ED"/>
</g>
<g filter="url(#filter10_f_479_7700)">
<path d="M128.052 141.427L127.081 48.6446L129.308 48.6446L128.052 141.427Z" fill="#6B59ED"/>
</g>
<g filter="url(#filter11_f_479_7700)">
<path d="M102.619 46.8475L104.184 45.0199C105.502 46.2488 107.258 47.0681 109.146 47.0681C111.339 47.0681 112.562 46.0661 112.562 44.6733C112.562 42.9843 111.294 42.518 109.577 41.7995L107.131 40.7345C105.356 40.0412 103.411 38.7619 103.411 36.2221C103.405 33.5248 105.838 31.4893 109.266 31.4893C111.415 31.4893 113.373 32.3337 114.723 33.6572L113.348 35.3462C112.188 34.3819 110.927 33.8084 109.152 33.8084C107.378 33.8084 106.104 34.6466 106.104 36.0583C106.104 37.5519 107.6 38.1002 109.127 38.6926L111.478 39.7261C113.658 40.5706 115.28 41.831 115.28 44.3519C115.28 47.1248 112.929 49.3873 108.994 49.3873C106.503 49.3873 104.247 48.4231 102.619 46.8475Z" fill="#00CBEC"/>
<path d="M126.795 34.0415H121.193V31.8042H135.065V34.0415H129.463V49.0657H126.795V34.0415Z" fill="#00CBEC"/>
<path d="M145.186 31.8042H148.291L154.026 49.0657H151.181L148.386 39.6692C147.822 37.7975 147.252 35.8754 146.751 33.9217H146.643C146.123 35.8754 145.585 37.8038 145.021 39.6692L142.182 49.0657H139.45L145.186 31.8042Z" fill="#00CBEC"/>
<path d="M161.7 31.8042H167.321C170.883 31.8042 173.57 33.0709 173.57 36.8018C173.57 40.5326 170.883 42.0514 167.321 42.0514H164.394V49.0594H161.707V31.8042H161.7ZM166.998 39.9276C169.533 39.9276 170.915 38.8815 170.915 36.8081C170.915 34.7347 169.533 33.9406 166.998 33.9406H164.387V39.9276H166.998ZM168.792 39.8331L174.147 49.0657H171.143L166.789 41.3393L168.785 39.8331H168.792Z" fill="#00CBEC"/>
<path d="M180.294 46.8476L181.859 45.02C183.177 46.2489 184.932 47.0681 186.821 47.0681C189.014 47.0681 190.237 46.0661 190.237 44.6733C190.237 42.9844 188.969 42.518 187.252 41.7996L184.806 40.7345C183.031 40.0413 181.086 38.7619 181.086 36.2222C181.086 33.5312 183.519 31.4956 186.948 31.4956C189.096 31.4956 191.054 32.3401 192.404 33.6635L191.029 35.3525C189.869 34.3883 188.608 33.8148 186.834 33.8148C185.059 33.8148 183.785 34.653 183.785 36.0646C183.785 37.5582 185.281 38.1065 186.808 38.6989L189.159 39.7325C191.339 40.577 192.962 41.8374 192.962 44.3582C192.962 47.1312 190.611 49.3936 186.675 49.3936C184.185 49.3936 181.929 48.4294 180.3 46.8539L180.294 46.8476Z" fill="#00CBEC"/>
<path d="M201.054 31.8042H203.741V38.8689H210.294V31.8042H212.981V49.0657H210.294V41.1944H203.741V49.0657H201.054V31.8042Z" fill="#00CBEC"/>
<path d="M221.308 46.8348H225.554V34.0415H221.308V31.8042H232.468V34.0415H228.222V46.8348H232.468V49.0657H221.308V46.8348Z" fill="#00CBEC"/>
<path d="M240.997 31.8042H246.473C250.294 31.8042 253 33.1087 253 37.0034C253 40.8982 250.25 42.48 246.473 42.48H243.659V49.0657H240.991V31.8042H240.997ZM246.219 40.3499C249.014 40.3499 250.351 39.2848 250.351 37.0034C250.351 34.7221 248.97 33.9343 246.219 33.9343H243.665V40.3499H246.219Z" fill="#00CBEC"/>
</g>
<g opacity="0.8" filter="url(#filter12_f_479_7700)">
<path d="M102.619 56.8548L104.184 55.0272C105.502 56.2561 107.258 57.0754 109.146 57.0754C111.339 57.0754 112.562 56.0734 112.562 54.6806C112.562 52.9916 111.294 52.5253 109.577 51.8068L107.131 50.7418C105.356 50.0486 103.411 48.7692 103.411 46.2295C103.405 43.5322 105.838 41.4966 109.266 41.4966C111.415 41.4966 113.373 42.3411 114.723 43.6645L113.348 45.3535C112.188 44.3893 110.927 43.8158 109.152 43.8158C107.378 43.8158 106.104 44.6539 106.104 46.0656C106.104 47.5592 107.6 48.1075 109.127 48.6999L111.478 49.7335C113.658 50.5779 115.28 51.8384 115.28 54.3592C115.28 57.1321 112.929 59.3946 108.994 59.3946C106.503 59.3946 104.247 58.4304 102.619 56.8548Z" fill="url(#paint1_radial_479_7700)"/>
<path d="M126.795 44.049H121.193V41.8118H135.065V44.049H129.463V59.0733H126.795V44.049Z" fill="url(#paint2_radial_479_7700)"/>
<path d="M145.186 41.8118H148.291L154.026 59.0733H151.181L148.386 49.6768C147.822 47.8051 147.252 45.8829 146.751 43.9293H146.643C146.123 45.8829 145.585 47.8114 145.021 49.6768L142.182 59.0733H139.45L145.186 41.8118Z" fill="url(#paint3_radial_479_7700)"/>
<path d="M161.7 41.8118H167.321C170.883 41.8118 173.57 43.0785 173.57 46.8093C173.57 50.5402 170.883 52.059 167.321 52.059H164.394V59.067H161.707V41.8118H161.7ZM166.998 49.9352C169.533 49.9352 170.915 48.889 170.915 46.8156C170.915 44.7423 169.533 43.9482 166.998 43.9482H164.387V49.9352H166.998ZM168.792 49.8407L174.147 59.0733H171.143L166.789 51.3469L168.785 49.8407H168.792Z" fill="url(#paint4_radial_479_7700)"/>
<path d="M180.294 56.8549L181.859 55.0273C183.177 56.2562 184.932 57.0755 186.821 57.0755C189.014 57.0755 190.237 56.0734 190.237 54.6807C190.237 52.9917 188.969 52.5253 187.252 51.8069L184.806 50.7418C183.031 50.0486 181.086 48.7693 181.086 46.2295C181.086 43.5385 183.519 41.5029 186.948 41.5029C189.096 41.5029 191.054 42.3474 192.404 43.6709L191.029 45.3598C189.869 44.3956 188.608 43.8221 186.834 43.8221C185.059 43.8221 183.785 44.6603 183.785 46.072C183.785 47.5656 185.281 48.1139 186.808 48.7063L189.159 49.7398C191.339 50.5843 192.962 51.8447 192.962 54.3656C192.962 57.1385 190.611 59.4009 186.675 59.4009C184.185 59.4009 181.929 58.4367 180.3 56.8612L180.294 56.8549Z" fill="url(#paint5_radial_479_7700)"/>
<path d="M201.054 41.8118H203.741V48.8764H210.294V41.8118H212.981V59.0733H210.294V51.2019H203.741V59.0733H201.054V41.8118Z" fill="url(#paint6_radial_479_7700)"/>
<path d="M221.308 56.8423H225.554V44.049H221.308V41.8118H232.468V44.049H228.222V56.8423H232.468V59.0733H221.308V56.8423Z" fill="url(#paint7_radial_479_7700)"/>
<path d="M240.997 41.8118H246.473C250.294 41.8118 253 43.1163 253 47.011C253 50.9057 250.25 52.4876 246.473 52.4876H243.659V59.0733H240.991V41.8118H240.997ZM246.219 50.3574C249.014 50.3574 250.351 49.2924 250.351 47.011C250.351 44.7296 248.97 43.9419 246.219 43.9419H243.665V50.3574H246.219Z" fill="url(#paint8_radial_479_7700)"/>
</g>
<path d="M102.619 47.1334L104.184 45.3058C105.502 46.5347 107.258 47.354 109.146 47.354C111.339 47.354 112.562 46.3519 112.562 44.9592C112.562 43.2702 111.294 42.8039 109.577 42.0854L107.131 41.0204C105.356 40.3271 103.411 39.0478 103.411 36.508C103.405 33.8107 105.838 31.7751 109.266 31.7751C111.415 31.7751 113.373 32.6196 114.723 33.9431L113.348 35.632C112.188 34.6678 110.927 34.0943 109.152 34.0943C107.378 34.0943 106.104 34.9325 106.104 36.3442C106.104 37.8378 107.6 38.3861 109.127 38.9785L111.478 40.012C113.658 40.8565 115.28 42.1169 115.28 44.6378C115.28 47.4107 112.929 49.6732 108.994 49.6732C106.503 49.6732 104.247 48.7089 102.619 47.1334Z" fill="white"/>
<path d="M126.795 34.3276H121.193V32.0903H135.065V34.3276H129.463V49.3518H126.795V34.3276Z" fill="white"/>
<path d="M145.186 32.0903H148.291L154.026 49.3518H151.181L148.386 39.9554C147.822 38.0836 147.252 36.1615 146.751 34.2078H146.643C146.123 36.1615 145.585 38.0899 145.021 39.9554L142.182 49.3518H139.45L145.186 32.0903Z" fill="white"/>
<path d="M161.7 32.0903H167.321C170.883 32.0903 173.57 33.3571 173.57 37.0879C173.57 40.8188 170.883 42.3376 167.321 42.3376H164.394V49.3455H161.707V32.0903H161.7ZM166.998 40.2138C169.533 40.2138 170.915 39.1676 170.915 37.0942C170.915 35.0208 169.533 34.2268 166.998 34.2268H164.387V40.2138H166.998ZM168.792 40.1192L174.147 49.3518H171.143L166.789 41.6254L168.785 40.1192H168.792Z" fill="white"/>
<path d="M180.294 47.1335L181.859 45.3058C183.177 46.5348 184.932 47.354 186.821 47.354C189.014 47.354 190.237 46.352 190.237 44.9592C190.237 43.2703 188.969 42.8039 187.252 42.0855L184.806 41.0204C183.031 40.3272 181.086 39.0478 181.086 36.5081C181.086 33.8171 183.519 31.7815 186.948 31.7815C189.096 31.7815 191.054 32.626 192.404 33.9494L191.029 35.6384C189.869 34.6742 188.608 34.1007 186.834 34.1007C185.059 34.1007 183.785 34.9389 183.785 36.3505C183.785 37.8441 185.281 38.3924 186.808 38.9848L189.159 40.0184C191.339 40.8628 192.962 42.1233 192.962 44.6441C192.962 47.4171 190.611 49.6795 186.675 49.6795C184.185 49.6795 181.929 48.7153 180.3 47.1398L180.294 47.1335Z" fill="white"/>
<path d="M201.054 32.0903H203.741V39.155H210.294V32.0903H212.981V49.3518H210.294V41.4805H203.741V49.3518H201.054V32.0903Z" fill="white"/>
<path d="M221.308 47.1209H225.554V34.3276H221.308V32.0903H232.468V34.3276H228.222V47.1209H232.468V49.3518H221.308V47.1209Z" fill="white"/>
<path d="M240.997 32.0903H246.473C250.294 32.0903 253 33.3949 253 37.2896C253 41.1843 250.25 42.7661 246.473 42.7661H243.659V49.3518H240.991V32.0903H240.997ZM246.219 40.636C249.014 40.636 250.351 39.5709 250.351 37.2896C250.351 35.0082 248.97 34.2204 246.219 34.2204H243.665V40.636H246.219Z" fill="white"/>
<defs>
<filter id="filter0_f_479_7700" x="88.7616" y="30.9277" width="40.2878" height="77.1792" filterUnits="userSpaceOnUse" color-interpolation-filters="sRGB">
<feFlood flood-opacity="0" result="BackgroundImageFix"/>
<feBlend mode="normal" in="SourceGraphic" in2="BackgroundImageFix" result="shape"/>
<feGaussianBlur stdDeviation="7" result="effect1_foregroundBlur_479_7700"/>
</filter>
<filter id="filter1_f_479_7700" x="166.632" y="30.9277" width="40.2878" height="77.1792" filterUnits="userSpaceOnUse" color-interpolation-filters="sRGB">
<feFlood flood-opacity="0" result="BackgroundImageFix"/>
<feBlend mode="normal" in="SourceGraphic" in2="BackgroundImageFix" result="shape"/>
<feGaussianBlur stdDeviation="7" result="effect1_foregroundBlur_479_7700"/>
</filter>
<filter id="filter2_f_479_7700" x="226.928" y="28.3542" width="30.2273" height="120.783" filterUnits="userSpaceOnUse" color-interpolation-filters="sRGB">
<feFlood flood-opacity="0" result="BackgroundImageFix"/>
<feBlend mode="normal" in="SourceGraphic" in2="BackgroundImageFix" result="shape"/>
<feGaussianBlur stdDeviation="7" result="effect1_foregroundBlur_479_7700"/>
</filter>
<filter id="filter3_f_479_7700" x="211.783" y="29.498" width="30.2861" height="126.072" filterUnits="userSpaceOnUse" color-interpolation-filters="sRGB">
<feFlood flood-opacity="0" result="BackgroundImageFix"/>
<feBlend mode="normal" in="SourceGraphic" in2="BackgroundImageFix" result="shape"/>
<feGaussianBlur stdDeviation="7" result="effect1_foregroundBlur_479_7700"/>
</filter>
<filter id="filter4_f_479_7700" x="147.772" y="29.498" width="30.2861" height="126.072" filterUnits="userSpaceOnUse" color-interpolation-filters="sRGB">
<feFlood flood-opacity="0" result="BackgroundImageFix"/>
<feBlend mode="normal" in="SourceGraphic" in2="BackgroundImageFix" result="shape"/>
<feGaussianBlur stdDeviation="7" result="effect1_foregroundBlur_479_7700"/>
</filter>
<filter id="filter5_f_479_7700" x="154.058" y="29.498" width="32.2865" height="85.7568" filterUnits="userSpaceOnUse" color-interpolation-filters="sRGB">
<feFlood flood-opacity="0" result="BackgroundImageFix"/>
<feBlend mode="normal" in="SourceGraphic" in2="BackgroundImageFix" result="shape"/>
<feGaussianBlur stdDeviation="7" result="effect1_foregroundBlur_479_7700"/>
</filter>
<filter id="filter6_f_479_7700" x="196.923" y="30.9277" width="29.4288" height="126.072" filterUnits="userSpaceOnUse" color-interpolation-filters="sRGB">
<feFlood flood-opacity="0" result="BackgroundImageFix"/>
<feBlend mode="normal" in="SourceGraphic" in2="BackgroundImageFix" result="shape"/>
<feGaussianBlur stdDeviation="7" result="effect1_foregroundBlur_479_7700"/>
</filter>
<filter id="filter7_f_479_7700" x="187.207" y="30.9277" width="29.7146" height="126.072" filterUnits="userSpaceOnUse" color-interpolation-filters="sRGB">
<feFlood flood-opacity="0" result="BackgroundImageFix"/>
<feBlend mode="normal" in="SourceGraphic" in2="BackgroundImageFix" result="shape"/>
<feGaussianBlur stdDeviation="7" result="effect1_foregroundBlur_479_7700"/>
</filter>
<filter id="filter8_f_479_7700" x="235.215" y="19.7766" width="30.2861" height="93.4768" filterUnits="userSpaceOnUse" color-interpolation-filters="sRGB">
<feFlood flood-opacity="0" result="BackgroundImageFix"/>
<feBlend mode="normal" in="SourceGraphic" in2="BackgroundImageFix" result="shape"/>
<feGaussianBlur stdDeviation="7" result="effect1_foregroundBlur_479_7700"/>
</filter>
<filter id="filter9_f_479_7700" x="125.482" y="23.4937" width="42.574" height="114.921" filterUnits="userSpaceOnUse" color-interpolation-filters="sRGB">
<feFlood flood-opacity="0" result="BackgroundImageFix"/>
<feBlend mode="normal" in="SourceGraphic" in2="BackgroundImageFix" result="shape"/>
<feGaussianBlur stdDeviation="7" result="effect1_foregroundBlur_479_7700"/>
</filter>
<filter id="filter10_f_479_7700" x="113.081" y="34.6445" width="30.2273" height="120.783" filterUnits="userSpaceOnUse" color-interpolation-filters="sRGB">
<feFlood flood-opacity="0" result="BackgroundImageFix"/>
<feBlend mode="normal" in="SourceGraphic" in2="BackgroundImageFix" result="shape"/>
<feGaussianBlur stdDeviation="7" result="effect1_foregroundBlur_479_7700"/>
</filter>
<filter id="filter11_f_479_7700" x="71.6188" y="0.489258" width="212.381" height="79.9043" filterUnits="userSpaceOnUse" color-interpolation-filters="sRGB">
<feFlood flood-opacity="0" result="BackgroundImageFix"/>
<feBlend mode="normal" in="SourceGraphic" in2="BackgroundImageFix" result="shape"/>
<feGaussianBlur stdDeviation="15.5" result="effect1_foregroundBlur_479_7700"/>
</filter>
<filter id="filter12_f_479_7700" x="71.6188" y="10.4966" width="212.381" height="79.9043" filterUnits="userSpaceOnUse" color-interpolation-filters="sRGB">
<feFlood flood-opacity="0" result="BackgroundImageFix"/>
<feBlend mode="normal" in="SourceGraphic" in2="BackgroundImageFix" result="shape"/>
<feGaussianBlur stdDeviation="15.5" result="effect1_foregroundBlur_479_7700"/>
</filter>
<linearGradient id="paint0_linear_479_7700" x1="186.776" y1="44.9277" x2="186.919" y2="111.548" gradientUnits="userSpaceOnUse">
<stop stop-color="#6B59ED"/>
<stop offset="1" stop-color="#6B59ED" stop-opacity="0"/>
</linearGradient>
<radialGradient id="paint1_radial_479_7700" cx="0" cy="0" r="1" gradientUnits="userSpaceOnUse" gradientTransform="translate(108.95 50.4456) rotate(90.0084) scale(20.0622 14.1927)">
<stop stop-color="#00CBEC"/>
<stop offset="1" stop-color="#00CBEC" stop-opacity="0"/>
</radialGradient>
<radialGradient id="paint2_radial_479_7700" cx="0" cy="0" r="1" gradientUnits="userSpaceOnUse" gradientTransform="translate(128.129 50.4425) rotate(90.0095) scale(19.3487 15.5495)">
<stop stop-color="#00CBEC"/>
<stop offset="1" stop-color="#00CBEC" stop-opacity="0"/>
</radialGradient>
<radialGradient id="paint3_radial_479_7700" cx="0" cy="0" r="1" gradientUnits="userSpaceOnUse" gradientTransform="translate(146.738 50.4425) rotate(90.01) scale(19.3487 16.338)">
<stop stop-color="#00CBEC"/>
<stop offset="1" stop-color="#00CBEC" stop-opacity="0"/>
</radialGradient>
<radialGradient id="paint4_radial_479_7700" cx="0" cy="0" r="1" gradientUnits="userSpaceOnUse" gradientTransform="translate(167.923 50.4425) rotate(90.0086) scale(19.3487 13.9512)">
<stop stop-color="#00CBEC"/>
<stop offset="1" stop-color="#00CBEC" stop-opacity="0"/>
</radialGradient>
<radialGradient id="paint5_radial_479_7700" cx="0" cy="0" r="1" gradientUnits="userSpaceOnUse" gradientTransform="translate(186.628 50.4519) rotate(90.0084) scale(20.0622 14.1998)">
<stop stop-color="#00CBEC"/>
<stop offset="1" stop-color="#00CBEC" stop-opacity="0"/>
</radialGradient>
<radialGradient id="paint6_radial_479_7700" cx="0" cy="0" r="1" gradientUnits="userSpaceOnUse" gradientTransform="translate(207.017 50.4425) rotate(90.0082) scale(19.3487 13.3687)">
<stop stop-color="#00CBEC"/>
<stop offset="1" stop-color="#00CBEC" stop-opacity="0"/>
</radialGradient>
<radialGradient id="paint7_radial_479_7700" cx="0" cy="0" r="1" gradientUnits="userSpaceOnUse" gradientTransform="translate(226.888 50.4425) rotate(90.0077) scale(19.3487 12.5092)">
<stop stop-color="#00CBEC"/>
<stop offset="1" stop-color="#00CBEC" stop-opacity="0"/>
</radialGradient>
<radialGradient id="paint8_radial_479_7700" cx="0" cy="0" r="1" gradientUnits="userSpaceOnUse" gradientTransform="translate(246.996 50.4425) rotate(90.0083) scale(19.3487 13.4611)">
<stop stop-color="#00CBEC"/>
<stop offset="1" stop-color="#00CBEC" stop-opacity="0"/>
</radialGradient>
</defs>
</svg>
