<?xml version="1.0" encoding="utf-8"?>
<!-- Generator: Adobe Illustrator 26.0.1, SVG Export Plug-In . SVG Version: 6.00 Build 0)  -->
<svg version="1.1" id="Layer_1" xmlns="http://www.w3.org/2000/svg" xmlns:xlink="http://www.w3.org/1999/xlink" x="0px" y="0px"
	 viewBox="0 0 458 320" style="enable-background:new 0 0 458 320;" xml:space="preserve">
<style type="text/css">
	.st0{fill:#6B59E9;}
	.st1{fill:#131112;}
	.st2{fill:#FF5543;}
</style>
<g>
	<path class="st0" d="M129.35,246.6c-3.5,0.33-6.9,1.22-10.35,1.82c-1.88,0.32-3.63,0.23-5.37-0.33c-0.63,0.15-1.22,0.29-1.68,0.39
		c-2.2-0.49-4.26-1.19-6.36-1.34c-2.03-0.14-3.78-1.24-5.79-1.3c-0.42-0.01-0.92-0.26-1.22-0.56c-1.34-1.33-3.48-1.23-4.71-2.71
		c-1.13-0.39-2.25-0.61-3-1.83c-0.52-0.85-1.72-1.24-2.5-1.96c-1.01-0.93-1.86-2.01-1.86-3.47c-0.83-0.15-1.41-0.26-2.19-0.4
		c-1.77-1.21-3.55-2.62-4.4-4.81c-0.96-0.64-1.84-1.23-2.53-1.69c-0.82-1.9-1.54-3.58-2.35-5.46c0.11-0.55,0.26-1.29,0.41-2.01
		c-0.02-0.73-0.74-0.91-1.06-1.37c-0.35-1.34-0.69-2.65-1.04-3.97c-0.51-2.51,0.27-5.19-1.1-7.64c0.29-0.75,0.56-1.46,0.83-2.17
		c0.41-0.82,1.79-0.73,1.72-2.44c-0.14-0.88-1.89-0.87-2.31-2.06c-0.38-0.92-0.21-1.83-0.08-2.81c0.33-0.41,0.69-0.87,1.06-1.34
		c-1.02-3.4-0.13-6.65,0.86-9.87c0.11-0.37,0.62-0.62,1.09-1.06c0.19-1.35,0.39-2.85,0.6-4.33c0.52-0.8,1.03-1.57,1.53-2.34
		c0.99-1.54,1.99-3.07,2.61-4.82c0.83-2.35,2.18-4.38,4.39-5.94c0.56-0.22,1.27-0.5,1.94-0.77c2.18-3.1,3.12-3.81,8.25-6.34
		c2.89-2.58,5.53-4.09,9.2-5.88c2.77-1.35,5.71-2.11,8.6-3.08c0.56-0.19,1.21-0.22,1.79-0.13c0.64,0.09,1.18-0.06,1.77-0.25
		c3.96-1.28,7.99-1.85,12.17-1.42c1.82,0.19,3.67,0.03,5.46,0.03c3.37,1.44,6.8,2.1,10.37,2.02c-0.07,0.44,0.02,1.07-0.24,1.28
		c-1.43,1.18-1.95,2.99-3.07,4.39c-1.19,1.49-1.81,3.44-2.66,5.16c-1,0.76-1.74,1.69-2.37,2.75c-0.85,1.43-1.78,2.81-3.21,3.74
		c-1.06-0.06-2.2,0.11-3.17-0.22c-1.34-0.46-2.66-0.63-4.05-0.6c-2.45,0.04-4.9,0.01-7.08,0.01c-1.87,0.64-3.46,1.18-5.18,1.78
		c-1.77,1.92-4.16,2.83-6.54,3.05c-3.65,2.31-6.34,5.28-9.13,7.68c-1.05,1.67-1.94,3.1-2.51,4.01c-0.92,2.57-1.64,4.57-2.44,6.8
		c0.11,1.29,0.44,2.81,0.3,4.29c-0.12,1.24-0.08,2.39,0.08,3.62c0.15,1.17-0.2,2.39-0.27,3.6c-0.03,0.45,0.01,0.94,0.16,1.36
		c0.91,2.45,0.82,5.13,1.91,7.83c0.47,0.63,1.1,1.49,1.75,2.34c1.61,2.09,3.5,3.83,5.88,5.05c1.21,0.62,2.23,1.58,3.44,2.46
		c1.17,0.46,2.5,0.86,3.72,1.48c3.06,1.54,6.44,1.96,9.71,2.57c3.52,0.66,6.91-0.45,10.15-1.88c0.6,0.04,1.2,0.08,1.92,0.12
		c1.7-2.14,3.71-4,5.88-5.68c1.58-1.22,2.95-2.65,4.15-4.27c0.9-1.23,1.9-2.42,2.98-3.5c1.59-1.59,2.57-3.4,2.74-5.65
		c0.03-0.43,0.33-0.84,0.49-1.23c0.66-0.46,1.27-0.9,1.82-1.29c0.42-0.89,0.81-1.71,1.14-2.39c0.07-3.8,0.14-7.46,0.21-10.91
		c-0.24-0.5-0.39-0.77-0.5-1.06c-0.81-1.97-1.46-4.03-2.47-5.9c-1.08-2-2.49-3.83-3.76-5.73c-2.2-1.61-3.76-4.02-6.36-5.14
		c-0.04-0.79,0.23-1.44,0.69-2.1c2.94-4.22,6.02-8.36,8.46-13.06c0.69-0.44,1.45-0.93,2.21-1.41c1.43,0.09,2.68,0.77,3.7,1.61
		c1.99,1.65,4.25,2.91,6.27,4.5c1.17,0.92,2.5,1.76,2.93,3.35c-1.43,0.2-2.71,0.61-3.13,2.37c0.11,0.48,0.24,1.07,0.33,1.44
		c0.85,1.34,2.41,1.82,2.66,3.42c-0.27,0.78-0.56,1.63-0.86,2.49c0.53,1,1.02,1.95,1.51,2.86c0.25,2.46,0.32,4.93,0.79,7.31
		c0.6,3.03,0.44,6.07,0.54,9.11c0.07,2.2-0.87,4.16-1.05,6.29c-0.16,1.82-0.42,3.69-1.06,5.38c-1.29,3.42-2.43,6.9-3.73,10.31
		c-0.61,1.6-1.69,2.87-2.44,4.35c-2.28,4.49-3.52,6.25-7.13,9.94c-0.74,0.75-1.26,1.71-1.74,2.38c-0.94,0.65-1.74,1.11-2.42,1.71
		c-2.31,2.01-4.86,3.67-7.51,5.19c-0.39,0.23-0.76,0.59-1.18,0.67c-2.62,0.51-4.18,2.39-5.77,4.17
		C129.48,245.7,129.41,246.15,129.35,246.6z"/>
	<path class="st1" d="M132.54,170.3c1.44-0.93,2.37-2.31,3.21-3.74c0.62-1.05,1.36-1.99,2.37-2.75c0.86-1.73,1.48-3.67,2.66-5.16
		c1.12-1.41,1.64-3.21,3.07-4.39c0.26-0.21,0.17-0.84,0.24-1.28c0.4-0.23,0.79-0.46,1.31-0.77c0.97-1.94,2.22-3.88,2.83-6.37
		c3.14-3.08,4.81-7.59,8.03-10.18c1.04-1.78,1.61-3.27,2.62-4.37c1.55-1.69,2.06-4.14,3.95-5.42c1-0.02,1.6,0.4,2.1,1.14
		c0.23,1.17-0.34,2.3-0.54,3.54c-0.85,1.21-1.73,2.46-2.57,3.66c-0.16,0.66-0.3,1.25-0.44,1.79c-0.21,0.29-0.36,0.56-0.57,0.78
		c-1.22,1.37-2.5,2.63-3.36,4.33c-0.59,1.16-1.87,1.97-2.76,3.01c-0.2,0.23-0.03,0.78-0.03,1.16c0.4,0.09,0.71,0.26,0.97,0.2
		c1.63-0.44,3.33-0.51,4.95-0.89c1.64-0.39,3.31-0.58,4.93-0.96c3.27-0.76,6.61-1.1,9.84-2.17c3.31-1.09,6.83-1.56,10.28-2.2
		c3.75-0.69,7.52-1.25,11.28-1.9c0.59-0.1,1.15-0.4,1.74-0.53c2.37-0.55,4.64-1.45,7.15-1.57c1.63-0.07,3.34-0.34,4.88-1.16
		c0.66-0.35,1.45-0.54,2.2-0.63c1.86-0.21,3.57-0.84,5.1-1.63c3.43,0.09,6.31-1.69,9.45-2.02c0.61-1.15,0.66-2.47,1.73-3.27
		c0.23-0.17,0.44-0.49,0.48-0.76c0.33-2.54,2.02-4.42,3.26-6.86c-0.17-2.84,2.13-5.33,2.26-8.4c-0.25-0.09-0.54-0.32-0.75-0.26
		c-2.35,0.67-4.67,1.49-7.17,1.37c-1.88,0.87-3.86,0.82-5.87,0.79c-0.59-0.01-1.22,0.18-1.76,0.42c-1.39,0.61-2.7,0.28-4.02-0.19
		c-0.15-1.19-0.29-2.38-0.42-3.43c1.55-2.67,4.57-2.72,6.39-4.47c1.04,0,1.96,0,2.73,0c1.08-0.56,1.74-1.43,2.87-1.71
		c1.17-0.29,2.3-0.86,3.33-1.5c2.73-1.69,5.52-3.23,8.43-4.59c1.21-0.57,2.62-0.95,3.5-2.16c0.25-0.35,0.7-0.72,1.1-0.78
		c1.64-0.22,2.7-1.43,3.96-2.26c0.89-0.59,1.7-1.25,2.7-1.71c1.08-0.49,2.01-1.31,2.74-1.81c0.82,0,1.28,0,1.74,0
		c1.01,1.17,1.9,2.35,2.01,4.01c0.05,0.72,0.52,1.42,0.7,1.87c0,2.4,0,4.53,0,6.49c-1.13,1.78-2.59,2.88-4.04,3.9
		c-1.91,0.75-3.7,1.73-5.61,2.13c-1.79,0.38-3.56,0.75-5.02,1.18c-2.03,1.29-2.95,3.03-3.66,4.92c-0.85,2.28-1.69,4.57-2.69,7.27
		c-0.03,0.3-0.12,1.06-0.19,1.67c-1.09,2.33-2.58,4.33-3.04,6.78l0.03-0.05c-0.44,0.18-0.65,0.55-0.33,0.88
		c0.38,0.38,0.65-0.03,0.84-0.36c0.35,0.05,0.56-0.08,0.65-0.41c0.42-0.17,0.84-0.48,1.26-0.49c2.32-0.05,4.52-0.68,6.67-1.44
		c2.74-0.97,5.67-1.12,8.39-2.11c2.79,0.28,5.39-0.85,8.14-1.06c2.23-0.17,4.49-0.54,6.72-0.89c2.11-0.33,4.14-1.01,6.21-1.54
		c1.89-0.49,3.8-0.89,5.89-1.61c0.98-1.82,2.61-3.5,3.01-5.84c1.77-2.66,2.98-5.66,5.04-8.15c0.56-0.68,1.06-1.44,1.28-2.17
		c-0.69-1.16-1.65-0.99-2.77-1.08c-0.8,0.29-1.8,0.65-3.02,1.09c-4.19-0.02-8.61,0.48-13.02-0.22c-0.35-0.36-0.65-0.69-0.96-1.02
		c0.44-1.01,1.11-1.83,2.13-2.29c1.1-0.5,2.23-0.95,3.34-1.43c0.97-0.42,2.05-0.7,2.89-1.3c1.41-1,2.99-1.57,4.59-1.97
		c2.39-0.6,4.5-1.74,6.27-2.71c1.73-0.27,3.17-0.24,4.41-0.72c3.95-1.54,8.09-2.58,11.94-4.4c2.22-1.05,4.55-1.71,7.04-1.62
		c0.31,0.53,0.61,1.05,1.04,1.78c0.08,5.35-2.13,9.58-6.88,12.48c-1.89,0.08-3.15,1.78-5,2.01c-1.82,0.22-3.65,0.39-5.58,0.6
		c-0.15,0.1-0.5,0.2-0.64,0.43c-1.17,1.97-2.33,3.93-3.94,5.6c-0.63,0.65-1.18,1.46-1.48,2.31c-0.38,1.05-1.03,1.86-1.72,2.68
		c-0.39,0.46-0.84,1-0.94,1.56c-0.51,2.76-2.17,5.04-3.17,7.54c1.65,1.92,3.3,3.71,4.2,6.03c0.62,0.48,1.23,0.95,1.83,1.41
		c1.6,3.4,3.81,6.43,5.92,9.52c0.68,0.99,1.18,2.14,2.02,2.96c0.97,0.94,1.35,2.35,2.57,3.06c0.04,0.3,0,0.66,0.15,0.9
		c2.08,3.38,4.09,6.8,7.07,9.52c0.67,0.61,1.33,1.3,1.78,2.09c0.92,1.62,1.99,3.09,3.42,4.29c0.86,0.72,1.25,1.72,1.73,2.68
		c0.13,0.26,0.15,0.58,0.23,0.87c-0.25,0.71-0.44,1.46-1.22,1.82c-3.14-0.07-5.78,1.67-8.58,2.39c-0.58-0.08-1.03-0.15-1.31-0.19
		c-2.8,0.81-5.41,1.83-8.11,2.26c-2.75,0.44-5.34,1.25-7.94,2.11c-0.45-0.03-0.93-0.19-1.33-0.08c-1.87,0.53-3.74,1.09-5.58,1.72
		c-1.73,0.59-3.49,0.9-5.3,0.97c-1.05,0.04-2.09,0.09-2.94,0.13c-0.85,0.46-1.54,0.78-1.77,1.59c-0.72-0.19-1.45-0.55-2.17-0.53
		c-1.04,0.03-2.07,0.34-3.22,0.55c-0.3-0.15-0.7-0.35-1.06-0.54c-1.94,0.77-3.9,1.54-6.05,2.39c-3.47-0.04-7.01,0.68-10.48,1.79
		c-0.42,0.14-0.9,0.11-1.35,0.16c-1.08-0.19-2.17-0.15-3.13,0.36c-1.19,0.63-2.4,0.06-3.32,0.19c-1.25,0.47-2.23,1.11-3.24,1.16
		c-3.07,0.16-5.96,1.17-8.91,1.61c-2.14-0.97-4.16-2.03-6.29-2.81c-2.33-0.85-3.95-2.81-6.23-3.69c-0.14-0.05-0.3-0.05-0.45-0.07
		c-0.78-0.46-1.51-1.11-2.35-1.35c-4.28-1.2-8.07-3.55-12.21-5.07c-2.03-1.39-4.46-1.85-6.62-2.95c-0.15-0.25-0.31-0.5-0.46-0.76
		c-0.13-0.09-0.24-0.2-0.38-0.26c-1.83-0.74-3.66-1.49-5.5-2.19c-0.41-0.15-0.93-0.04-1.3-0.24c-0.5-0.28-0.89-0.74-1.38-1.18
		c-1.12-0.22-2.3-0.45-3.53-0.68c-0.28-0.33-0.56-0.66-1.03-1.21c-0.96-0.19-2.14-0.42-3.6-0.7c-0.11-0.12-0.37-0.46-0.69-0.75
		c-0.8-0.73-1.74-1.22-2.81-1.45c-1.03-0.22-2.07-0.44-2.94-0.62c-0.31-0.59-0.52-0.98-0.7-1.33c-4.14-1.04-11.38-4.08-15.51-6.52
		c-0.27,0.09-0.65,0.11-0.78,0.29c-0.86,1.24-1.89,2.43-1.73,4.1c-0.76,0.49-1.52,0.97-2.21,1.41c-2.44,4.7-5.51,8.84-8.46,13.06
		c-0.46,0.66-0.73,1.31-0.69,2.1c-1.55,1.07-2.52,2.62-3.54,4.14c-2.64,3.92-5.22,7.89-7.96,11.73c-2.83,3.96-5.68,7.91-8.24,12.05
		c-0.16,0.26-0.35,0.5-0.54,0.74c-0.5,0.61-1.11,1.03-1.95,1.12c-1.18-0.03-1.93-0.7-2.49-1.96c0.13-0.4,0.17-1.11,0.54-1.49
		c0.64-0.67,1.26-1.26,1.44-2.24c0.07-0.41,0.41-0.8,0.69-1.15c0.93-1.21,1.92-2.37,2.8-3.61c0.98-1.36,2.12-2.67,2.73-4.19
		c0.58-1.46,1.94-2.25,2.48-3.76c0.6-1.69,1.81-3.17,3.34-4.27c0.4-2.05,2.06-3.36,2.98-5.1c0.13-0.25,0.48-0.37,0.69-0.59
		C131.51,173.16,132.25,171.84,132.54,170.3z M294.3,149.63c-0.07-0.43-0.02-0.95-0.24-1.29c-0.48-0.75-1.15-1.38-1.65-2.12
		c-0.84-1.25-1.43-2.7-2.44-3.78c-1.49-1.58-2.46-3.37-3.33-5.32c-0.73-1.64-1.78-3.15-3.42-4.1c0.04-1.11-1.24-1.35-1.49-2.14
		c-0.74-2.28-2.63-3.72-3.66-5.61c-0.99-0.44-1.83-0.81-2.66-1.18c-0.8,0.21-1.55,0.37-2.28,0.59c-1.76,0.53-3.53,1.04-5.26,1.65
		c-2.23,0.79-4.48,0.65-7.04,0.36c-2.93,1.04-6.29,1.4-9.53,2.33c-3.36,0.96-6.83,1.54-10.22,2.46c-3.18,0.86-6.55,1.07-9.85,2.16
		c-1.09,3,0.03,6.36-1.1,9.33c0.15,0.81,0.59,1.66,0.38,2.3c-0.76,2.41,0,4.85-0.34,7.22c-0.27,1.84-0.27,3.66-0.27,5.5
		c-0.01,3.06-0.06,6.13-0.15,9.19c-0.03,0.91-0.26,1.82-0.37,2.73c-0.09,0.75-0.13,1.51-0.19,2.27c-0.61,1.76,0.05,3.57-0.2,5.35
		c-0.03,0.22,0.25,0.49,0.39,0.73c0.85,0.43,1.75,0.23,2.63,0.21c1.05-0.03,2.1-0.12,3.11-0.19c1.8-0.84,3.53-1.79,5.56-1.77
		c1.48-0.15,2.94-0.59,4.32-0.23c0.51-0.33,0.86-0.65,1.28-0.8c0.56-0.21,1.16-0.34,1.75-0.41c2.72-0.3,5.39-0.86,8.02-1.6
		c1.16-0.33,2.25-0.87,3.42-1.14c1.32-0.31,2.69-0.41,4.04-0.63c0.59-0.09,1.17-0.23,1.45-0.29c0.73-0.57,1.19-0.93,1.65-1.29
		c0.64,0.4,1.23,0.91,2.15,0.8c0.55-0.37,1.17-0.78,1.65-1.1c1.79-0.27,3.48-0.36,5.06-0.81c1.63-0.47,3.34-0.36,4.9-0.83
		c1.79-0.54,3.59-0.43,5.37-0.71c1.32-0.32,2.69-0.52,3.96-0.99c1.63-0.6,3.26-0.69,4.92-0.53c0.71-0.33,1.4-0.64,2.1-0.97
		c1.98-0.1,3.95-0.16,5.92-0.32c0.74-0.06,1.48-0.34,2.18-0.6c0.2-0.08,0.27-0.47,0.46-0.83c-1.91-2.28-3.85-4.61-5.84-6.98
		c-0.11-0.37-0.15-0.86-0.39-1.23c-0.32-0.49-0.78-0.89-1.19-1.32C296.63,152.41,295.85,150.68,294.3,149.63z M224.38,171.78
		c0.25-0.87,0.66-1.74,0.72-2.62c0.13-1.68,0.19-3.38,0.05-5.06c-0.12-1.44,0.58-2.66,0.76-3.97c-0.72-1.64-0.99-3.3-0.48-4.97
		c0.23-0.76,0.06-1.44,0.05-2.17c-0.03-1.98-0.09-4.02,0.36-5.92c0.4-1.68,0.36-3.34,0.34-4.98c-0.03-1.99,0.05-3.97,0.24-5.94
		c0.05-0.56-0.27-0.82-0.53-1.11c-0.94-0.06-1.85-0.11-2.83-0.17c-1.82,0.52-3.5,1.83-5.62,1.59c-2.25,0.92-4.84,0.82-6.64,2.21
		c-2.1,0.19-3.93,0.35-5.45,0.49c-3.85,1.64-7.52,2.66-11.26,2.68c-0.69,0.35-1.24,0.62-1.55,0.78c-3.43,0.44-6.6,0.85-9.65,1.24
		c-1.09,0.46-2.08,0.86-2.93,1.22c-0.92-0.09-1.68-0.17-2.52-0.25c-1.9,0.76-3.67,2.15-5.94,2.06c-0.6-0.09-1.2-0.18-1.68-0.26
		c-2.43,0.86-4.72,1.6-7.2,1.77c-1.79,0.12-3.55,0.64-5.33,0.98c0.1,0.38,0.08,0.83,0.25,0.92c2.69,1.43,5.33,3.02,8.14,4.17
		c3.54,1.44,7.23,2.5,11.05,3.79c0.16,0.14,0.49,0.45,0.85,0.77c1.85,0.62,3.73,1.24,5.6,1.88c2.01,0.68,3.85,1.77,5.74,2.69
		c3.58,1.73,7.15,3.49,10.76,5.18c1.37,0.64,2.66,1.49,4.27,2.4c1.51,0.1,3.23,0.78,4.88,1.56c2.35,1.1,4.63,2.35,6.94,3.53
		c1.53,0.94,3.06,1.89,4.6,2.8c0.77,0.45,1.57,0.87,2.39,1.23c0.59,0.25,1.17,0.08,1.76-0.39c0.12-0.32,0.42-0.75,0.4-1.15
		c-0.1-1.93-0.16-3.86,0.04-5.8C225.01,172.58,224.59,172.17,224.38,171.78z"/>
	<path class="st0" d="M297.96,145.53c-1.22-0.7-1.59-2.12-2.57-3.06c-0.84-0.81-1.35-1.97-2.02-2.96c-2.11-3.09-4.32-6.12-5.92-9.52
		c2.33-1.92,5.08-2.75,8.01-3.01c2.12-0.19,4.23-0.53,6.39-0.42c1.49,0.07,2.94-0.6,4.49-0.55c1.38,0.04,2.72,0.04,4.06,0.52
		c2.3,0.82,4.79,0.84,7.1,1.65c-0.03,0.61-0.06,1.21-0.1,1.94c0.56,0.48,1.05,1.1,1.7,1.44c1.63,0.85,3.19,1.71,4.58,2.98
		c1.68,1.53,3.62,2.76,5.26,3.98c0.78,1.23,1.44,2.26,2.1,3.29c0.32,0.51,0.87,1,0.93,1.54c0.21,2.12,1.69,3.54,2.49,4.86
		c1.09,3.43,1.92,6.54,3.08,9.51c0.69,1.75,1.21,3.51,1.12,5.33c-0.08,1.61,0.61,2.97,0.81,3.81c0,2.78-0.02,4.93,0,7.07
		c0.02,2.17-1.03,4.13-1.04,6.15c-1.81,2.21-2.59,4.67-2.89,6.89c-1.13,1.57-2.26,2.71-2.87,4.08c-1.4,3.1-3.49,5.71-5.37,8.45
		c-1.1,0.88-2.3,1.62-3.2,2.63c-1.57,1.77-3.5,3.1-5.61,3.85c-2.18,0.77-4.1,2.03-6.42,2.83c-0.6,0.7-1.31,1.5-1.97,2.33
		c-0.18,0.23-0.24,0.56-0.36,0.84c-1.02,0.27-2.04,0.53-3.3,0.86c-0.49-0.28-1.13-0.65-1.89-1.09c-0.48,0.15-1.05,0.32-1.75,0.54
		c-3.24-0.35-6.33-1.52-9.3-3.14c-1.46-0.8-3.07-1.33-4.8-2.06c-1.74-1.87-3.95-3.47-6.19-5.02c-1.78-1.24-3.31-2.69-4.34-4.72
		c-1.48-0.92-3.13-1.81-3.35-3.94c-0.04-0.42-0.35-0.83-0.61-1.2c-1.05-1.5-2.02-3.02-2.35-4.89c-0.1-0.58-0.41-1.2-0.81-1.63
		c-1.64-1.75-1.72-4.17-2.74-6.19c-0.12-0.25-0.03-0.6-0.04-0.9c0.23-0.81,0.92-1.13,1.77-1.59c0.85-0.04,1.89-0.09,2.94-0.13
		c1.82-0.06,3.58-0.38,5.3-0.97c1.84-0.63,3.71-1.19,5.58-1.72c0.4-0.11,0.89,0.05,1.33,0.08c-0.02,0.79,0.41,1.45,0.63,2.16
		c0.27,0.86,0.28,1.8,0.39,2.57c2.03,3,4,5.9,6.09,9c0.82,0.74,2,1.53,2.82,2.59c0.79,1.01,1.75,1.71,2.8,2.33
		c1.32,0.77,2.69,1.45,3.94,2.12c2.27,0,4.41,0,6.57,0c0.81,0.36,1.64,0.73,2.32,1.04c3.41-0.19,3.85-0.32,7.99-2.28
		c2.85-2.42,4.73-5.6,6.82-8.6c0.5-0.73,0.7-1.67,1.02-2.52c0.27-0.71,0.47-1.45,0.78-2.14c0.89-1.95,1.82-3.88,2.41-5.14
		c0.45-2.37,0.82-4.02,1.07-5.68c0.38-2.6,0.42-5.19-0.8-7.64c-0.82-1.65-1.44-3.36-1.67-5.21c-0.07-0.59-0.37-1.15-0.59-1.72
		c-0.55-1.42-1.12-2.83-1.8-4.56c-1.9-1.79-4.02-3.78-5.89-5.55c-2.58-1.43-4.92-2.54-7.49-3.18c-2.12,0-4.27,0-6.41,0
		c-2.03,0.69-4.05,1.39-6.01,2.06C299.58,144.72,298.97,145.41,297.96,145.53z"/>
	<path class="st1" d="M309.73,211.98c0.12-0.28,0.18-0.61,0.36-0.84c0.66-0.83,1.37-1.63,1.97-2.33c2.31-0.8,4.24-2.06,6.42-2.83
		c2.11-0.75,4.04-2.09,5.61-3.85c0.9-1.01,2.11-1.75,3.2-2.63c1.87-2.73,3.97-5.35,5.37-8.45c0.61-1.37,1.74-2.5,2.87-4.08
		c0.29-2.22,1.08-4.68,2.89-6.89c0.01-2.02,1.06-3.98,1.04-6.15c-0.02-2.14,0-4.29,0-7.07c-0.19-0.84-0.89-2.19-0.81-3.81
		c0.09-1.82-0.43-3.57-1.12-5.33c-1.17-2.97-1.99-6.08-3.08-9.51c-0.8-1.33-2.28-2.74-2.49-4.86c-0.05-0.54-0.6-1.03-0.93-1.54
		c-0.66-1.03-1.31-2.06-2.1-3.29c-1.64-1.22-3.58-2.46-5.26-3.98c-1.39-1.27-2.95-2.13-4.58-2.98c-0.64-0.33-1.14-0.95-1.7-1.44
		c0.04-0.73,0.07-1.34,0.1-1.94c0.71-0.3,1.41-0.59,2.28-0.95c0.62,0.23,1.33,0.47,2.03,0.75c0.85,0.33,1.66,0.88,2.54,1
		c2.63,0.36,4.87,1.76,7.18,2.37c3.43,2.91,6.97,5.39,9.1,9.34c0.55,0.43,1.15,0.9,1.77,1.39c0.13,0.41,0.27,0.85,0.43,1.36
		c0.49,0.21,1.04,0.45,1.63,0.7c0.4,0.61,0.75,1.3,1.24,1.87c2.76,3.16,4.55,6.84,5.92,10.76c0.4,1.15,1.06,2.2,1.66,3.42
		c0.02,1.44,0.03,2.97,0.06,4.5c0.01,0.61-0.12,1.32,0.14,1.82c1.11,2.18,0.73,4.49,0.8,6.77c0.04,1.53,0.02,3.03-0.72,4.47
		c-0.33,0.64-0.23,1.49-0.31,2.09c-0.84,1.29-1.58,2.45-2.39,3.7c0.1,0.87,0.2,1.77,0.31,2.66c-1.15,3.09-2.91,5.93-3.74,9.33
		c1.53-0.2,2.91-0.64,4.22-0.49c1.43,0.16,2.72-0.03,4.04-0.4c2.66,0.7,5.43-0.35,8.12,0.6c1.11,0.39,2.43,0.15,3.66,0.22
		c0.91,0.06,1.87,0.02,2.73,0.29c2.1,0.65,4.24,0.56,6.48,0.62c1.24,0.37,2.54,0.84,3.88,1.14c1.91,0.43,3.36,1.43,4.37,3.09
		c0.31,0.51,0.61,1.04,0.83,1.41c-0.07,1.6-0.94,2.49-2.08,3.02c-1.81,0.82-3.69,1.47-5.4,2.14c-0.92,0-1.68,0-2.62,0
		c-1.07,0.53-2.31,1.13-3.47,1.7c-4.6,0.64-9.14,1.13-13.63,1.97c-1.94,0.36-3.94,0.36-5.92,0.49c-0.45,0.03-0.96-0.24-1.36-0.11
		c-3.11,0.99-6.31,0.92-9.51,0.83c-0.45-0.01-0.97-0.03-1.36,0.17c-1.98,1-4.24,0.3-6.27,1.13c-0.59,0.24-1.46-0.21-2.46-0.4
		c-0.96,0.24-2.14,0.53-3.34,0.83c-5.64-0.14-11.3,0.28-17.12-0.2C310.75,213.09,310.24,212.53,309.73,211.98z"/>
	<path class="st1" d="M129.35,246.6c0.06-0.45,0.13-0.9,0.21-1.45c1.59-1.78,3.16-3.66,5.77-4.17c0.42-0.08,0.78-0.44,1.18-0.67
		c2.65-1.52,5.2-3.18,7.51-5.19c0.68-0.59,1.48-1.05,2.42-1.71c0.48-0.66,1-1.62,1.74-2.38c3.6-3.69,4.85-5.45,7.13-9.94
		c0.75-1.48,1.83-2.74,2.44-4.35c1.3-3.42,2.44-6.89,3.73-10.31c0.64-1.69,0.9-3.57,1.06-5.38c0.19-2.13,1.12-4.09,1.05-6.29
		c-0.1-3.04,0.06-6.07-0.54-9.11c-0.47-2.38-0.54-4.85-0.79-7.31c-0.48-0.92-0.98-1.86-1.51-2.86c0.3-0.86,0.59-1.71,0.86-2.49
		c-0.25-1.6-1.81-2.08-2.66-3.42c-0.08-0.37-0.22-0.96-0.33-1.44c0.43-1.76,1.71-2.17,3.13-2.37c1.72,1.96,3.43,3.91,5.14,5.86
		c0.14,0.67,0.14,1.32,0.4,1.84c1.75,3.63,2.09,7.64,3.08,11.46c0.49,1.89,0.43,3.94,0.51,5.92c0.09,2.29-0.13,4.6,0.53,6.85
		c0.08,0.28,0.15,0.64,0.06,0.9c-0.75,2.09-0.24,4.25-0.41,6.37c-0.12,1.5,0,3.08-0.78,4.5c-0.2,0.37-0.22,0.9-0.16,1.33
		c0.29,2.25-0.67,4.23-1.43,6.2c-1.09,2.82-2.46,5.54-3.76,8.43c2-0.21,3.92-0.3,5.89,0c1.62,0.25,3.37,0.3,4.99-0.35
		c3.02,0.36,6.13,0.25,9.09,1.6c0.27,0.22,0.65,0.49,0.98,0.81c0.77,0.75,1.51,1.52,2.07,2.09c0.51,1.01,0.4,1.74,0.01,2.45
		c-4.5,3.63-4.96,3.87-9.29,4.83c-1.92,1.96-4.9,2.23-6.7,3.9c-3.32,0.8-6.37,1.15-9.2,2.38c-0.56,0.24-1.16,0.45-1.76,0.51
		c-3.65,0.33-7.12,1.75-10.82,1.8c-0.59,0.01-1.17,0.33-1.77,0.46c-0.75,0.16-1.53,0.45-2.26,0.37c-1.69-0.18-3.26,0.08-4.91,0.5
		c-1.61,0.41-3.35,0.22-5.03,0.41c-1.66,0.18-3.3,0.5-5.04,0.77C130.56,247.49,129.96,247.04,129.35,246.6z"/>
	<path class="st0" d="M142.12,103.33c4.38,0.49,8.38,0.34,12.32,0.79c3.78,0.43,7.6,0.46,11.47,1.01c0.17,1,0.32,1.88,0.49,2.89
		c1.03-0.45,1.07-1.73,2.52-2.45c2.53-0.64,5.05,1.16,7.85,1.95c0.5,0.94,1,1.87,1.43,2.69c0,1.37,0,2.59,0,3.63
		c-0.2,0.47-0.28,0.78-0.44,1.03c-1.23,1.94-2.54,3.83-3.71,5.8c-0.8,1.35-1.7,2.55-3.32,3.45c-0.52-0.03-1.31,0.06-2-0.15
		c-0.88-0.27-1.74-0.52-2.68-0.57c-2.32-0.14-4.04-1.26-5.18-3.33c0.22-0.72,0.45-1.43,0.71-2.25c-0.31-0.26-0.61-0.75-0.95-0.77
		c-1.53-0.11-3.06-0.07-4.59-0.1c-2.14-0.04-4.29-0.08-6.59-0.12c-0.28,0.1-0.71,0.25-1.19,0.41c-1.56-0.9-3.26-0.21-4.91-0.26
		c-1.68-0.06-3.37-0.01-5.13-0.01c-0.45,0.42-0.87,0.82-1.4,1.32c0.39,0.9,0.76,1.72,1.1,2.5c1.3,1.16,2.69,2.14,3.6,3.6
		c0.58,0.08,1.19,0.06,1.73,0.25c0.79,0.29,0.87,1.19,1.32,1.92c0.84,0.07,1.73,0.15,2.52,0.22c1.06,0.47,1.17,1.48,1.67,2.23
		c0.5,0.74,1.15,1.39,1.74,2.08c-0.25,0.54-0.33,1.09-0.65,1.32c-1.72,1.26-3.49,2.45-5.26,3.67c-5.05,0.13-9.85-0.23-13.67-4.16
		c-0.53-0.15-1.12-0.31-1.71-0.48c-0.12-0.09-0.31-0.16-0.34-0.28c-0.49-1.54-2.09-2.2-2.79-3.55c-0.91-1.75-2.2-3.31-2.47-5.38
		c-0.09-0.67-0.78-1.27-1.36-2.14c-0.24-1.66-0.51-3.62-0.79-5.59c0.3-1.15,0.62-2.33,0.95-3.56c1.78-1.6,3.6-3.23,5.38-4.83
		c2.5-0.91,5.19-0.85,7.57-2c0.51-0.24,1.2-0.06,1.81-0.13C138.77,103.76,140.44,103.54,142.12,103.33z"/>
	<path class="st2" d="M212.35,179.16c0.15,0.02,0.31,0.02,0.45,0.07c2.28,0.88,3.9,2.84,6.23,3.69c2.13,0.77,4.15,1.84,6.29,2.81
		c2.94-0.44,5.84-1.45,8.91-1.61c1.01-0.05,1.99-0.7,3.24-1.16c0.92-0.13,2.13,0.44,3.32-0.19c0.96-0.51,2.05-0.55,3.13-0.36
		c0.05,0.44,0.09,0.87,0.13,1.26c0.46,0.26,0.86,0.48,1.46,0.82c0.44,0.73,1,1.63,1.5,2.46c0.4,2.04,0.78,3.97,1.2,6.12
		c-0.23,0.68-0.52,1.53-0.83,2.44c0.12,0.54,0.25,1.14,0.4,1.82c-0.32,0.77-0.67,1.6-1.02,2.44c-0.6-0.08-1.31,0.01-1.79-0.28
		c-1.12-0.67-2.34-0.63-3.67-0.84c-1.9-1.05-3.91-2.16-6.09-3.36c-0.57-0.03-1.32-0.07-2.07-0.11c-0.35,0.43-0.66,0.76-0.92,1.13
		c-0.41,0.57-1,0.64-1.62,0.68c0.26-0.69,0.52-1.39,0.78-2.08c-0.64-1.54-2.11-1.51-3.26-1.91c-0.77,0.25-1.59,0.22-2.12,1.15
		c0.15,1.71,1.09,2.85,2.76,3.26c0.77-0.2,1.35-0.35,1.93-0.5c0.39,0.63,0.78,1.26,1.17,1.89c3.72,1.3,7.17,3.09,10.95,4.02
		c0.38,0.09,0.67,0.55,1,0.84c-2.67,3.52-6.23,5.77-10.38,7.19c-2.73,0-5.48,0-8.09,0c-3.03-1.5-6.2-2.08-9.5-3.41
		c-0.88-1.02-1.98-2.28-3.07-3.54c-0.4-0.46-0.73-1-1.19-1.39c-2.43-2.05-3.79-4.75-4.83-7.88c0-1.79,0-3.77,0-5.78
		c0.82-1.78,0.8-3.92,2.35-5.39c0.38-1.43,1.49-2.26,2.56-3.14C211.99,180.06,212.13,179.56,212.35,179.16z"/>
	<path class="st2" d="M309.74,85.57c-2.49-0.09-4.83,0.57-7.04,1.62c-3.85,1.83-7.98,2.86-11.94,4.4c-1.24,0.48-2.68,0.46-4.41,0.72
		c-1.77,0.97-3.88,2.11-6.27,2.71c-1.6,0.4-3.18,0.97-4.59,1.97c-0.85,0.6-1.92,0.88-2.89,1.3c-1.11,0.48-2.24,0.93-3.34,1.43
		c-1.02,0.46-1.68,1.28-2.13,2.29c-0.92-0.49-1.83-0.98-3.13-1.68c-0.17-0.28-0.57-0.92-0.92-1.47c0.54-3.27,2.1-5.79,4.43-7.92
		c1.57-1.44,3.04-2.98,4.65-4.56c0.89-0.36,1.87-0.75,3.14-1.26c1.91-1.52,4.11-3.15,6.65-4.24c0.55-0.24,1.1-0.55,1.54-0.95
		c3.3-3.03,7.21-5.04,11.28-6.79c0.7-0.3,1.33-0.75,2.05-1.16c0.99-0.17,2.04-0.36,3.32-0.59c1.12,0.18,2.47,0.41,3.95,0.65
		c1.15,1.13,2.34,2.31,3.55,3.51c0.74,2.12,1.49,4.26,2.4,6.86C309.97,83.16,309.85,84.36,309.74,85.57z"/>
	<path class="st2" d="M254.63,88.25c-0.46,0-0.92,0-1.74,0c-0.72,0.49-1.65,1.32-2.74,1.81c-1,0.45-1.81,1.12-2.7,1.71
		c-1.26,0.83-2.31,2.04-3.96,2.26c-0.4,0.05-0.85,0.43-1.1,0.78c-0.88,1.21-2.28,1.58-3.5,2.16c-2.91,1.37-5.7,2.91-8.43,4.59
		c-1.03,0.64-2.17,1.21-3.33,1.5c-1.13,0.28-1.79,1.15-2.87,1.71c-0.78,0-1.69,0-2.73,0c-1.82,1.75-4.84,1.8-6.39,4.47
		c0.13,1.04,0.28,2.23,0.42,3.43c-0.91-0.16-1.81-0.32-2.81-0.5c-0.93-0.62-1.93-1.29-2.93-1.97c-0.2-1.32-0.39-2.53-0.57-3.73
		c0.14-0.46,0.25-0.91,0.42-1.33c0.39-0.99,0.8-1.97,1.38-3.4c0.17-0.22,0.69-0.79,1.07-1.45c0.95-1.64,2.3-2.92,3.9-3.83
		c1.63-0.93,2.99-2.17,4.33-3.39c1.95-1.77,4.07-3.24,6.43-4.79c0.58-0.06,1.33-0.14,2.08-0.23c1.14-1,2.27-2,3.31-2.92
		c3.15-1.1,6.36-1.66,8.96-3.7c1.09-0.13,2.15-0.32,3.22-0.36c1.53-0.06,3.07-0.02,4.76-0.02c1.03,0.71,2.15,1.49,3.4,2.35
		c0.6,1.09,1.3,2.28,1.91,3.51C254.61,87.29,254.56,87.8,254.63,88.25z"/>
	<path class="st1" d="M230.61,196.99c0.62-0.03,1.21-0.1,1.62-0.68c0.26-0.36,0.56-0.7,0.92-1.13c0.75,0.04,1.5,0.08,2.07,0.11
		c2.17,1.2,4.18,2.31,6.09,3.36c1.32,0.21,2.55,0.17,3.67,0.84c0.48,0.29,1.19,0.2,1.79,0.28c2.89,1.79,6.1,2.86,9.27,4.06
		c1.49-0.37,2.95-0.98,4.44-1.04c1.35-0.06,2.64-0.53,4.06-0.26c1.49,0.28,3.05,0.19,4.76,0.28c1.26,0.51,2.67,1.09,3.91,1.6
		c1.59,1.41,2.48,2.97,2.65,5.03c-0.46,1.91-1.66,3.45-3.16,4.74c-2.39,0.23-3.97,2.18-6.34,2.49c-2.39,0.31-4.68,1.39-7.07,1.83
		c-2.24,0.41-4.54,0.43-7.04,0.65c-1.13-0.28-2.47-0.62-3.7-0.93c-1.64-1.36-3.13-2.68-3.91-4.72c-0.28-1.77-0.2-3.57,0.97-5.51
		c0.99-0.67,2.22-1.5,3.5-2.38c-1.86-0.68-3.58-1.31-5.29-1.94c-0.33-0.29-0.62-0.75-1-0.84c-3.78-0.94-7.23-2.72-10.95-4.02
		c-0.39-0.64-0.78-1.26-1.17-1.89L230.61,196.99z M253.56,215.06c1.33-0.28,2.24-0.69,3.11-0.6c2.53,0.27,4.75-0.8,7.08-1.38
		c1.18-0.29,2.32-0.75,3.47-1.15c0.28-0.1,0.56-0.23,0.76-0.32c1.03-0.78,1.99-1.51,2.92-2.22c-0.03-0.35-0.06-0.64-0.1-1.08
		c-1.36-0.83-2.98-1.26-4.42-1.91c-1.34,0.28-2.51,0.68-3.71,0.76c-3.07,0.2-5.93,1.23-8.86,1.99c-1.7,0.44-3.05,1.31-4.46,2.48
		c-0.04,0.5-0.09,1.07-0.14,1.62c0.52,0.33,0.87,0.64,1.27,0.8C251.49,214.41,252.51,214.71,253.56,215.06z"/>
	<path class="st0" d="M233.12,128.43l-0.03,0.05c0.4,0.02,0.79,0.04,1.19,0.06c-0.09,0.32-0.3,0.46-0.65,0.41
		C233.46,128.78,233.29,128.61,233.12,128.43z"/>
	<path class="st0" d="M266.62,170.13c0.02-1.84,0.03-3.67,0.05-5.51c0.01-0.92,0.1-1.8,0.37-2.71c0.39-1.3,0.53-2.67,0.89-4.61
		c0.71-1.67,2.04-3.76,2.46-6.21c0.05-0.29,0.15-0.61,0.31-0.85c2.61-3.75,4.32-8.05,7.07-11.73c1.57-2.1,3.29-4.01,5.46-5.49
		c1.64,0.95,2.69,2.46,3.42,4.1c0.87,1.95,1.84,3.74,3.33,5.32c1.01,1.07,1.6,2.53,2.44,3.78c0.5,0.74,1.17,1.37,1.65,2.12
		c0.22,0.34,0.17,0.85,0.24,1.29c-0.42,0.17-0.83,0.34-1.12,0.45c-0.97,1.32-1.71,2.68-2.77,3.71c-1.57,1.52-2.51,3.34-3.33,5.33
		c-0.11,1.01,0.04,2.17-0.38,3.08c-0.79,1.72-0.7,3.52-0.94,5.29c-1.78,0.28-3.58,0.17-5.37,0.71c-1.56,0.47-3.27,0.37-4.9,0.83
		c-1.58,0.45-3.27,0.54-5.06,0.81c-0.48,0.32-1.1,0.73-1.65,1.1C267.85,171.04,267.26,170.52,266.62,170.13z"/>
	<path class="st2" d="M229.19,172.17c1.37,0,2.75,0,3.8,0c1.91,0.62,3.09,1.91,4.8,2.28c1.12,0.24,2.32,0.83,2.9,2.06
		c-2.03-0.02-3.75,0.93-5.56,1.77c-1.02,0.06-2.06,0.16-3.11,0.19c-0.88,0.02-1.78,0.21-2.63-0.21c-0.14-0.25-0.42-0.51-0.39-0.73
		C229.24,175.75,228.58,173.94,229.19,172.17z"/>
	<path class="st2" d="M215.78,176.26c1.17-0.94,2.34-1.88,3.69-2.97c1.5-0.46,3.21-0.98,4.92-1.51c0.21,0.39,0.63,0.8,0.59,1.17
		c-0.19,1.94-0.14,3.86-0.04,5.8c0.02,0.41-0.28,0.83-0.4,1.15c-0.59,0.47-1.17,0.65-1.76,0.39c-0.82-0.36-1.62-0.78-2.39-1.23
		C218.83,178.14,217.31,177.19,215.78,176.26z"/>
	<path class="st0" d="M233.63,128.95c-0.2,0.33-0.46,0.74-0.84,0.36c-0.32-0.33-0.11-0.7,0.33-0.88
		C233.29,128.61,233.46,128.78,233.63,128.95z"/>
	<path class="st1" d="M232.59,199.06c-0.58,0.15-3.05-1.85-3.82-1.65c-1.66-0.41-2.6-1.55-2.76-3.26c0.53-0.93,1.35-0.9,2.12-1.15
		c1.16,0.41,7.44,2.16,8.08,3.7c-0.26,0.69-1.65,1.72-1.91,2.41C234.3,199.1,232.59,199.06,232.59,199.06z"/>
</g>
</svg>
