<svg width="86" height="84" viewBox="0 0 86 84" fill="none" xmlns="http://www.w3.org/2000/svg">
<g clip-path="url(#clip0_12_4544)">
<path d="M68.269 48.7631C68.269 48.5732 68.1742 48.2882 68.1742 48.0033V37.0808C68.1742 35.9411 68.9327 34.9913 69.9757 34.7064C69.9757 34.4214 69.9757 34.2315 69.9757 33.9465C70.2602 30.6223 72.7255 27.773 75.9493 26.9182C76.613 26.7282 77.2767 26.6332 78.0353 26.6332C71.6825 12.2915 57.3649 2.31882 40.7718 2.31882C18.2051 2.31882 0 20.6496 0 43.1594C0 65.7642 18.2999 84 40.7718 84C60.3991 84 76.7078 70.1332 80.6902 51.7074H72.0617C70.1654 51.8024 68.6483 50.5677 68.269 48.7631Z" fill="#1D6799"/>
<path d="M71.8722 36.5109C71.8722 36.321 71.8722 36.226 71.8722 36.036C71.8722 35.3712 71.8722 34.7064 71.8722 34.0415C72.1567 31.4771 73.9582 29.3876 76.4235 28.7227C80.0266 27.773 83.6297 30.1474 84.1986 33.7566C84.2934 34.2315 84.2934 34.7064 84.2934 35.0863C84.2934 35.5612 84.2934 35.9411 84.2934 36.416C84.3882 36.416 84.3882 36.416 84.483 36.416C84.7675 36.416 85.1468 36.416 85.4312 36.416C85.9053 36.416 86.0001 36.6059 86.0001 37.0808C86.0001 38.2205 86.0001 39.3603 86.0001 40.5C86.0001 42.9695 86.0001 45.4389 86.0001 47.9083C86.0001 48.3832 85.8105 48.8581 85.5261 49.238C85.1468 49.6179 84.6727 49.8079 84.1986 49.8079C82.1126 49.8079 80.0266 49.8079 77.9406 49.8079C75.9494 49.8079 73.9582 49.8079 71.9671 49.8079C71.0189 49.8079 70.3552 49.238 70.1655 48.2882C70.1655 48.1932 70.1655 48.0033 70.1655 47.9083C70.1655 44.2991 70.1655 40.595 70.1655 36.9858C70.1655 36.6059 70.3552 36.416 70.7344 36.416C71.0189 36.5109 71.493 36.5109 71.8722 36.5109ZM81.5437 36.5109C81.5437 36.416 81.5437 36.226 81.5437 36.131C81.5437 35.5612 81.5437 34.8963 81.5437 34.3264C81.3541 32.7118 80.0266 31.4771 78.4147 31.2871C76.3287 31.0972 74.622 32.7118 74.622 34.8013C74.622 35.2762 74.622 35.8461 74.622 36.321C74.622 36.416 74.622 36.416 74.622 36.5109C76.8976 36.5109 79.2681 36.5109 81.5437 36.5109ZM78.1302 46.2937C78.4147 46.2937 78.6991 46.2937 78.9836 46.2937C79.2681 46.2937 79.4577 46.1037 79.3629 45.8188C79.2681 45.059 79.1732 44.2991 79.0784 43.5393C79.0784 43.4443 79.0784 43.3494 79.1732 43.2544C79.9318 42.5895 79.9318 41.4498 79.2681 40.785C78.6043 40.0251 77.4665 40.0251 76.8028 40.785C76.1391 41.5448 76.2339 42.6845 76.8976 43.2544C76.9924 43.3494 76.9924 43.3494 76.9924 43.4443C76.8976 44.2042 76.8028 44.964 76.708 45.8188C76.708 46.1037 76.8028 46.2937 77.1821 46.2937C77.5613 46.2937 77.8458 46.2937 78.1302 46.2937Z" fill="#F7BC37"/>
<path d="M33.0915 0.0393408C34.4189 0.0393408 35.4619 1.17908 35.3671 2.50877C35.2723 4.59829 35.4619 17.3254 35.2723 24.0688C35.2723 24.7337 35.6516 25.0186 36.0308 25.3985C42.9526 32.4269 61.6317 52.6572 68.7431 59.0208C69.5016 59.6856 69.8809 60.7304 70.355 61.6802C70.8291 62.535 71.2083 63.4847 71.7773 64.1496C72.7254 65.0994 72.8203 66.524 72.0617 67.4738V67.5688C71.9669 67.7588 71.7772 67.9487 71.8721 68.1387C72.0617 69.7533 72.2513 71.3679 72.441 72.9826L70.5446 73.6474C70.1653 74.7871 70.7343 75.6419 71.398 76.4967C71.8721 76.9716 71.9669 77.5415 71.8721 78.2064V78.3013C71.6824 79.0612 70.8291 79.536 70.0705 79.0612C69.7861 78.8712 69.5016 78.7762 69.2172 78.7762C65.5193 78.9662 61.8214 79.2511 58.0286 79.4411C56.9856 79.536 55.9426 79.536 54.8048 79.536C54.6152 79.536 54.2359 79.4411 54.1411 79.2511C53.0033 77.6365 51.7706 76.0219 51.2966 74.0273C51.2017 73.6474 50.9173 73.3625 50.6328 73.0775C50.2535 72.6976 49.8743 72.4127 49.495 72.0328C48.6416 71.083 47.6935 70.6081 46.366 70.7981C45.9867 70.893 45.7971 70.7031 45.7023 70.2282C45.6075 69.6583 45.323 69.0885 45.2282 68.5186C45.1334 67.9487 44.8489 67.8537 44.3748 67.8537C43.3318 67.8537 42.2888 67.8537 41.2458 67.7588C40.9614 67.7588 40.6769 67.4738 40.4873 67.2839C39.6339 66.3341 38.8754 65.2893 38.022 64.3395C37.9272 64.1496 37.5479 64.1496 37.3583 64.1496C37.1687 64.1496 36.979 64.2446 36.7894 64.3395C35.7464 64.9094 34.6086 65.2893 33.4708 64.6245C33.2811 64.5295 32.9967 64.5295 32.7122 64.5295C31.6692 64.6245 31.1003 64.0546 31.0055 63.0098C31.0055 62.155 31.0055 61.3952 30.9107 60.6354C30.6262 58.8308 29.5832 57.3112 28.3506 56.0764C27.4024 55.0317 26.7387 53.9869 26.6439 52.6572C26.6439 52.2773 26.3594 51.8974 26.0749 51.6125C25.506 51.0426 25.0319 50.4727 24.463 49.9029C23.42 48.8581 23.42 47.1485 24.463 46.1037C24.463 46.1037 24.463 46.1037 24.463 46.0088C24.463 46.0088 19.5325 38.4105 19.3429 37.3657C19.248 36.321 18.6791 35.8461 17.5413 35.3712C15.9294 34.7064 16.4035 33.1867 16.4983 32.3319C16.4983 32.047 16.4035 31.6671 16.2139 31.5721C14.9812 30.4323 13.6538 29.3876 12.516 28.1529C11.9471 27.488 11.6626 26.5382 11.3781 25.5885C11.2833 25.3035 11.6626 24.7337 11.9471 24.4487C12.516 23.7839 12.4211 23.119 12.0419 22.2642C11.1885 19.5099 10.3351 18.0852 9.76624 16.9454C9.10251 15.7107 8.81806 14.2861 9.10251 12.8614C9.5766 10.107 10.43 6.21292 10.0507 5.26314C9.76624 4.50331 9.86106 4.1234 10.1455 2.69873C10.43 0.894143 10.6196 0.0393408 12.6108 0.0393408C14.602 0.0393408 17.8258 0.039343 22.2822 0.134321C26.549 0.039343 31.8588 -0.0556374 33.0915 0.0393408Z" fill="#29ABE2"/>
<path d="M15.4555 45.5338L19.5326 46.7686C19.2482 47.9083 18.8689 48.8581 18.2052 49.6179C17.5415 50.3777 16.8777 50.9476 16.0244 51.3275C15.171 51.7074 14.0332 51.8974 12.7057 51.8974C11.0938 51.8974 9.76639 51.7074 8.72339 51.2325C7.68039 50.7576 6.82703 49.9028 6.06848 48.7631C5.30994 47.5284 4.93066 46.0087 4.93066 44.2042C4.93066 41.7347 5.59439 39.8352 6.92184 38.5055C8.24929 37.1758 10.1457 36.5109 12.5161 36.5109C14.4125 36.5109 15.9296 36.8908 16.9726 37.6507C18.0156 38.4105 18.8689 39.5502 19.343 41.1649L15.2658 42.1146C15.0762 41.6397 14.9814 41.3548 14.7917 41.0699C14.5073 40.69 14.2228 40.405 13.8436 40.2151C13.4643 40.0251 13.085 39.9301 12.6109 39.9301C11.5679 39.9301 10.7146 40.3101 10.2405 41.1649C9.8612 41.8297 9.57675 42.7795 9.57675 44.1092C9.57675 45.8188 9.8612 46.9585 10.3353 47.5284C10.8094 48.0983 11.5679 48.4782 12.4213 48.4782C13.2747 48.4782 13.9384 48.1932 14.4125 47.7183C14.9814 47.1485 15.2658 46.4836 15.4555 45.5338Z" fill="white"/>
<path d="M31.2899 45.5338L35.3671 46.7686C35.0827 47.9083 34.7034 48.8581 34.0397 49.6179C33.3759 50.3777 32.7122 50.9476 31.8589 51.3275C31.0055 51.7074 29.8677 51.8974 28.5402 51.8974C26.9283 51.8974 25.6009 51.7074 24.5579 51.2325C23.5149 50.7576 22.6615 49.9028 21.903 48.7631C21.1444 47.5284 20.7651 46.0087 20.7651 44.2042C20.7651 41.7347 21.4289 39.8352 22.7563 38.5055C24.0838 37.1758 25.9801 36.5109 28.3506 36.5109C30.2469 36.5109 31.764 36.8908 32.807 37.6507C33.85 38.4105 34.7034 39.5502 35.1775 41.1649L31.1003 42.1146C30.9107 41.6397 30.8159 41.3548 30.6262 41.0699C30.3418 40.69 30.0573 40.405 29.678 40.2151C29.2988 40.0251 28.9195 39.9301 28.4454 39.9301C27.4024 39.9301 26.549 40.3101 26.075 41.1649C25.6957 41.8297 25.4112 42.7795 25.4112 44.1092C25.4112 45.8188 25.6957 46.9585 26.1698 47.5284C26.6439 48.0983 27.4024 48.4782 28.2558 48.4782C29.1091 48.4782 29.7729 48.1932 30.2469 47.7183C30.8159 47.1485 31.1003 46.4836 31.2899 45.5338Z" fill="white"/>
<path d="M37.1689 36.6059H44.8492C46.5559 36.6059 47.7886 36.9858 48.6419 37.8406C49.4953 38.6004 49.8746 39.7402 49.8746 41.2598C49.8746 42.7795 49.4005 43.9192 48.5471 44.774C47.5989 45.6288 46.2715 46.0087 44.3751 46.0087H41.815V51.6124H37.1689V36.6059ZM41.815 43.0644H42.9528C43.8062 43.0644 44.4699 42.8744 44.8492 42.5895C45.2285 42.3046 45.4181 41.9247 45.4181 41.3548C45.4181 40.8799 45.2285 40.5 44.944 40.1201C44.6596 39.8351 43.9958 39.6452 43.1425 39.6452H41.815V43.0644Z" fill="white"/>
<path d="M59.356 49.143H54.1411L53.3825 51.6124H48.6416L54.2359 36.6059H59.2612L64.8555 51.6124H60.0198L59.356 49.143ZM58.4079 45.9137L56.796 40.5L55.184 45.9137H58.4079Z" fill="white"/>
</g>
<defs>
<clipPath id="clip0_12_4544">
<rect width="86" height="84" fill="white"/>
</clipPath>
</defs>
</svg>
