<svg width="67" height="84" viewBox="0 0 67 84" fill="none" xmlns="http://www.w3.org/2000/svg">
<g clip-path="url(#clip0_12_4565)">
<path d="M33.1113 84L32.1003 83.5787C26.7081 81.3039 0 69.003 0 50.6359V12.9749L33.1113 0L66.2227 12.9749V50.6359C66.2227 69.003 39.4303 81.3039 34.1224 83.5787L33.1113 84ZM5.13942 16.4293V50.6359C5.13942 56.8706 9.35206 63.1896 17.6088 69.4243C23.675 73.9739 30.2467 77.1755 33.1956 78.4393C36.1444 77.0913 42.7162 73.9739 48.7824 69.4243C57.0391 63.1896 61.2518 56.8706 61.2518 50.6359V16.4293L33.1956 5.47643L5.13942 16.4293Z" fill="white"/>
<path d="M33.1113 2.69608V81.2197C37.998 79.1133 63.6951 67.4022 63.6951 50.6359C63.6951 32.016 63.6951 14.66 63.6951 14.66L33.1113 2.69608Z" fill="#1611D3"/>
<path d="M33.1111 2.69608V81.2197C28.2244 79.1133 2.52734 67.4022 2.52734 50.6359C2.52734 32.016 2.52734 14.66 2.52734 14.66L33.1111 2.69608Z" fill="#0D00A0"/>
<path d="M21.4002 46.5918C21.1474 46.7603 20.8104 46.9288 20.4734 47.0131C20.1364 47.1816 19.7994 47.2658 19.4623 47.3501C19.1253 47.4343 18.7041 47.5186 18.1985 47.6028C17.7773 47.6871 17.1875 47.6871 16.682 47.6871C16.008 47.6871 15.5025 47.6028 14.9127 47.4343C14.4072 47.2658 13.9017 47.013 13.5646 46.7603C13.2276 46.5075 12.8064 46.0863 12.5536 45.665C12.2166 45.2437 12.0481 44.8225 11.7953 44.317C11.5426 43.8114 11.4583 43.3059 11.3741 42.8004C11.2898 42.2949 11.2056 41.7051 11.2056 41.1996C11.2056 40.6098 11.2898 40.0201 11.3741 39.5146C11.4583 38.9248 11.6268 38.4193 11.8796 37.9138C12.1323 37.4082 12.3851 36.987 12.7221 36.5657C13.0591 36.1444 13.3961 35.8074 13.8174 35.4704C14.2387 35.1334 14.7442 34.9649 15.2497 34.7964C15.7552 34.6279 16.345 34.5436 16.9348 34.5436C17.2718 34.5436 17.5245 34.5436 17.7773 34.5436C18.03 34.5436 18.2828 34.6279 18.4513 34.6279C18.7041 34.6279 18.8726 34.7121 19.0411 34.7964C19.2096 34.8807 19.4623 34.9649 19.6308 35.0492C19.7993 35.1334 20.0521 35.3019 20.2206 35.4704C20.3891 35.6389 20.6419 35.8074 20.8946 35.9759L19.7151 37.5767C19.4623 37.324 19.2096 37.0712 18.9568 36.9027C18.7041 36.7342 18.4513 36.5657 18.2828 36.4815C18.03 36.3972 17.7773 36.313 17.5245 36.313C17.2718 36.313 17.019 36.2287 16.682 36.2287C16.1765 36.2287 15.671 36.3129 15.2497 36.5657C14.8284 36.8185 14.4914 37.1555 14.2387 37.5767C13.9859 37.998 13.7332 38.5035 13.5646 39.009C13.3961 39.5146 13.3119 40.1886 13.3119 40.8626C13.3119 41.5366 13.3961 42.2106 13.4804 42.8004C13.5646 43.3902 13.8174 43.98 14.0702 44.4012C14.3229 44.8225 14.6599 45.2437 15.1655 45.4965C15.5867 45.7493 16.0922 45.9178 16.7662 45.9178C16.9348 45.9178 17.1033 45.9178 17.2718 45.9178C17.4403 45.9178 17.693 45.9178 17.8615 45.8335C18.03 45.8335 18.2828 45.7493 18.4513 45.7493C18.6198 45.7493 18.7883 45.665 18.9568 45.665V41.3681H21.1474V46.5918H21.4002Z" fill="white"/>
<path d="M26.7922 34.7122C27.9717 34.7122 28.9828 34.8807 29.7411 35.2177C30.5836 35.5547 31.1734 35.9759 31.7631 36.5657C32.2686 37.1555 32.6057 37.7453 32.8584 38.5035C33.1112 39.2618 33.1954 40.0201 33.1954 40.8626C33.1954 41.4524 33.1112 42.0421 33.0269 42.5477C32.9427 43.0532 32.7742 43.6429 32.6056 44.1485C32.3529 44.654 32.1001 45.0752 31.7631 45.4965C31.4261 45.9178 31.0048 46.2548 30.4993 46.5075C29.9938 46.7603 29.4883 47.0131 28.8143 47.1816C28.1403 47.3501 27.4662 47.4343 26.6237 47.4343H23.5063V34.7964H26.7922V34.7122ZM25.8654 36.3972V45.7493H26.5395C27.1292 45.7493 27.719 45.665 28.3088 45.4123C28.8143 45.2438 29.3198 44.9067 29.6568 44.4855C30.0781 44.0642 30.3308 43.5587 30.5836 42.9689C30.8363 42.3792 30.9206 41.6209 30.9206 40.7784C30.9206 40.1886 30.8363 39.6831 30.6678 39.0933C30.4993 38.5878 30.2466 38.0823 29.9096 37.661C29.5726 37.2397 29.1513 36.9027 28.6458 36.65C28.1403 36.3972 27.4662 36.2287 26.708 36.2287H25.8654V36.3972Z" fill="white"/>
<path d="M37.6608 42.5477V47.4343H35.4702V34.7964H39.0931C39.9356 34.7964 40.6096 34.8807 41.1994 35.0492C41.7892 35.2177 42.2947 35.4704 42.6317 35.8074C43.053 36.1445 43.3057 36.5657 43.4742 36.987C43.6427 37.4083 43.727 37.9138 43.727 38.5035C43.727 38.672 43.727 38.9248 43.6427 39.2618C43.5585 39.5146 43.4742 39.8516 43.39 40.1043C43.2215 40.4414 43.053 40.6941 42.8002 40.9469C42.5474 41.1996 42.2947 41.4524 41.8734 41.7051C41.4522 41.9579 41.0309 42.1264 40.5254 42.2949C40.0199 42.4634 39.4301 42.4634 38.6718 42.4634H37.6608V42.5477ZM37.6608 40.8626H38.7561C39.1773 40.8626 39.5143 40.7784 39.8514 40.6941C40.1884 40.6099 40.4411 40.4414 40.6939 40.2728C40.9466 40.1043 41.1152 39.8516 41.2837 39.5146C41.4522 39.2618 41.4522 38.9248 41.4522 38.5035C41.4522 38.1665 41.3679 37.9138 41.2837 37.661C41.1994 37.4083 41.0309 37.1555 40.8624 36.987C40.6939 36.8185 40.3569 36.65 40.0199 36.4815C39.6829 36.3972 39.2616 36.313 38.7561 36.313H37.6608V40.8626Z" fill="white"/>
<path d="M47.8556 47.4343H45.665V34.7964H49.2879C50.1304 34.7964 50.8045 34.8807 51.3942 35.0492C51.984 35.2177 52.4895 35.4704 52.8265 35.7232C53.2478 36.0602 53.5005 36.3972 53.6691 36.8185C53.8376 37.2397 53.9218 37.7453 53.9218 38.2508C53.9218 38.5878 53.8376 39.0091 53.7533 39.3461C53.6691 39.6831 53.5005 40.1043 53.2478 40.4413C52.995 40.7784 52.7423 41.1154 52.321 41.3681C51.8997 41.6209 51.4785 41.8736 50.8887 42.0422L54.7643 47.4343H52.2368L48.8666 42.2949C48.6981 42.2949 48.6139 42.2949 48.4454 42.2949C48.2769 42.2949 48.1084 42.2949 47.8556 42.2107V47.4343ZM47.8556 40.5256C48.0241 40.5256 48.1926 40.5256 48.3611 40.5256C48.5296 40.5256 48.6981 40.5256 48.8666 40.5256C49.2879 40.5256 49.7092 40.4414 50.0462 40.3571C50.3832 40.2728 50.7202 40.1043 50.973 39.9358C51.2257 39.7673 51.3942 39.5146 51.5627 39.2618C51.7312 39.0091 51.7312 38.672 51.7312 38.335C51.7312 37.998 51.647 37.661 51.5627 37.4083C51.4785 37.1555 51.31 36.987 51.1415 36.8185C50.973 36.65 50.636 36.5657 50.2989 36.4815C49.9619 36.3972 49.4564 36.3972 48.9509 36.3972H47.9399V40.5256H47.8556Z" fill="white"/>
<path d="M33.1114 13.9017L34.0382 16.682H36.9028L34.628 18.3671L35.4705 21.0632L33.1114 19.3781L30.8366 21.0632L31.6791 18.3671L29.4043 16.682H32.2689L33.1114 13.9017Z" fill="#F7BC37"/>
<path d="M42.9691 16.5978L43.8959 19.2939H46.7605L44.4014 20.9789L45.3282 23.7593L42.9691 22.0742L40.6943 23.7593L41.5368 20.9789L39.1777 19.2939H42.1266L42.9691 16.5978Z" fill="#F7BC37"/>
<path d="M51.1415 23.7593L51.984 26.4554H54.8486L52.5738 28.1404L53.4163 30.9208L51.1415 29.2357L48.7824 30.9208L49.7092 28.1404L47.3501 26.4554H50.2147L51.1415 23.7593Z" fill="#F7BC37"/>
<path d="M33.1114 59.3139L34.0382 62.0943H36.9028L34.628 63.7793L35.4705 66.4754L33.1114 64.7904L30.8366 66.4754L31.6791 63.7793L29.4043 62.0943H32.2689L33.1114 59.3139Z" fill="#F7BC37"/>
<path d="M42.9691 56.9549L43.8959 59.651H46.7605L44.4014 61.336L45.3282 64.1163L42.9691 62.4313L40.6943 64.1163L41.5368 61.336L39.1777 59.651H42.1266L42.9691 56.9549Z" fill="#F7BC37"/>
<path d="M51.1415 51.0572L51.984 53.8375H54.8486L52.5738 55.5226L53.4163 58.2187L51.1415 56.5336L48.7824 58.2187L49.7092 55.5226L47.3501 53.8375H50.2147L51.1415 51.0572Z" fill="#F7BC37"/>
<path d="M23.3382 16.5978L22.4115 19.2939H19.5469L21.906 20.9789L20.9792 23.7593L23.3382 22.0742L25.6131 23.7593L24.7705 20.9789L27.0454 19.2939H24.1808L23.3382 16.5978Z" fill="#F7BC37"/>
<path d="M15.1656 23.7593L14.3231 26.4554H11.4585L13.7333 28.1404L12.8908 30.9208L15.1656 29.2357L17.5247 30.9208L16.5979 28.1404L18.957 26.4554H16.0924L15.1656 23.7593Z" fill="#F7BC37"/>
<path d="M23.3382 56.9549L22.4115 59.651H19.5469L21.906 61.336L20.9792 64.1163L23.3382 62.4313L25.6131 64.1163L24.7705 61.336L27.0454 59.651H24.1808L23.3382 56.9549Z" fill="#F7BC37"/>
<path d="M15.1656 51.0572L14.3231 53.8375H11.4585L13.7333 55.5226L12.8908 58.2187L15.1656 56.5336L17.5247 58.2187L16.5979 55.5226L18.957 53.8375H16.0924L15.1656 51.0572Z" fill="#F7BC37"/>
</g>
<defs>
<clipPath id="clip0_12_4565">
<rect width="66.2227" height="84" fill="white"/>
</clipPath>
</defs>
</svg>
