<svg version="1.1" xmlns="http://www.w3.org/2000/svg" viewBox="0 0 1370.978697909393 1129.468164720118">
  <!-- svg-source:excalidraw -->
  <defs>
    <style>
      @font-face {
        font-family: "Virgil";
        src: url("https://excalidraw.com/FG_Virgil.woff2");
      }
      @font-face {
        font-family: "Cascadia";
        src: url("https://excalidraw.com/Cascadia.woff2");
      }
    </style>
  </defs>
  <rect x="0" y="0" width="1370.978697909393" height="1129.468164720118" fill="#ffffff"></rect><g transform="translate(44.36948449549345 457.4115372474748) rotate(0 180.5 17)"><text x="0" y="27" font-family="Cascadia" font-size="28px" fill="#000000" text-anchor="start" style="white-space: pre;" direction="ltr">Sourcegraph deployment</text></g><g transform="translate(10 10) rotate(0 369 21.5)"><text x="0" y="35" font-family="Cascadia" font-size="36px" fill="#000000" text-anchor="start" style="white-space: pre;" direction="ltr">Sourcegraph monitoring architecture</text></g><g transform="translate(701.1062729529845 537.6228852889009) rotate(0 117 24)"><text x="117" y="19" font-family="Cascadia" font-size="20px" fill="#000000" text-anchor="middle" style="white-space: pre;" direction="ltr">sourcegraph/frontend</text><text x="117" y="43" font-family="Cascadia" font-size="20px" fill="#000000" text-anchor="middle" style="white-space: pre;" direction="ltr">(container)</text></g><g transform="translate(206.3929933940018 535.5241683952622) rotate(0 129 24)"><text x="129" y="19" font-family="Cascadia" font-size="20px" fill="#000000" text-anchor="middle" style="white-space: pre;" direction="ltr">sourcegraph/prometheus</text><text x="129" y="43" font-family="Cascadia" font-size="20px" fill="#000000" text-anchor="middle" style="white-space: pre;" direction="ltr">(container)</text></g><g transform="translate(52.15855075330961 1042.2971230158728) rotate(0 123 24)"><text x="123" y="19" font-family="Cascadia" font-size="20px" fill="#000000" text-anchor="middle" style="white-space: pre;" direction="ltr">sourcegraph/...svc...</text><text x="123" y="43" font-family="Cascadia" font-size="20px" fill="#000000" text-anchor="middle" style="white-space: pre;" direction="ltr">(metric exporters)</text></g><g transform="translate(201.7366881177369 103.14078961659612) rotate(0 164 17)"><text x="164" y="27" font-family="Cascadia" font-size="28px" fill="#000000" text-anchor="middle" style="white-space: pre;" direction="ltr">monitoring generator</text></g><g transform="translate(191.51793811773643 93.70636726811125) rotate(0 175.01775568181813 27.982954545454533)"><path d="M-0.09634413379165548 0.019575663454563675 C110.07533137768962 1.017974466428182, 218.3483049805383 -0.3466378101714982, 350.3514516329465 -0.9786532048817621 M0.3705762782412904 0.3827859285066929 C77.32879053065516 1.5235828413409414, 155.15935327771425 0.9797484570827627, 350.25931586141144 -0.5844036668480661 M349.44229436513365 0.8222652804106474 C349.5866924944592 12.799205072303508, 349.9329463067723 28.030430676574298, 349.92581898566664 57.00513211925596 M349.0728999035093 -0.21779178734868765 C351.3425815442486 17.688951300039076, 350.81991631182865 35.84216293143319, 349.24590152070255 56.709180837581755 M349.67642523383205 56.513700539420824 C228.07725559547703 56.532652063497075, 107.68518628278431 55.596905804155526, -1.1102355094342637 56.713216916850826 M350.2210339396819 55.77570028819941 C273.85100887408754 54.433642938485086, 197.97265356239748 54.96832270552478, 0.20022168102918547 55.63106480071885 M-1.3979487251490355 55.582997421818675 C0.5896368427704808 41.50678406376919, -0.13557006879339256 29.568035229035132, 0.5704124737530947 -1.619479464367032 M-0.6798525685444474 56.802572881887556 C0.5525099403060846 43.49995141822991, 0.6595997280277185 33.33912320560986, 0.3140547340735793 -0.2639315342530608" stroke="#000000" stroke-width="1" fill="none"></path></g><g transform="translate(517.7819059207677 267.8780055256869) rotate(0 117 12)"><text x="117" y="19" font-family="Cascadia" font-size="20px" fill="#000000" text-anchor="middle" style="white-space: pre;" direction="ltr">Alert solutions docs</text></g><g transform="translate(30.17489834500884 265.6052782529597) rotate(0 99.5 12)"><text x="99.5" y="19" font-family="Cascadia" font-size="20px" fill="#000000" text-anchor="middle" style="white-space: pre;" direction="ltr">Alert definitions</text></g><g transform="translate(261.21135667834244 267.03165135902043) rotate(0 105.5 12)"><text x="105.5" y="19" font-family="Cascadia" font-size="20px" fill="#000000" text-anchor="middle" style="white-space: pre;" direction="ltr">Grafana dashboards</text></g><g transform="translate(663.2668810803893 530.1708979677729) rotate(0 168.06236659752278 143.730236235119)"><path d="M0.1531293877421813 1.2760597815648116 C89.74720283587443 -1.6540801673509347, 180.70392159045113 -0.6673757124220118, 337.2604776511026 -0.2969784323123543 M0.48340161433569845 -0.10299942504602161 C129.9357630638987 -1.0432447837572658, 261.477397799381 -1.5452995751303402, 335.6490979241913 -0.5871968296910193 M335.1970245731477 -0.3474263544132985 C335.9088032082787 95.91952888955531, 335.99871712252946 190.69849966552354, 335.9702227033286 286.5635446039329 M336.428666320327 0.5569974260583029 C337.30859246860695 108.64458216970954, 337.69707481638807 218.16529873884826, 336.10319289149055 286.9690303874721 M337.1860876196867 287.8440761387452 C232.39656108865918 288.87647421957246, 129.11979211083346 287.4635677551537, 0.9574196461095528 286.61018982282116 M336.7938229785267 287.9605654981927 C223.31392427458147 287.81468741779395, 109.8243977073823 287.6265745302787, -0.0032474484342085662 286.85774947539187 M-0.4731959168313058 288.87503243663485 C-0.12926406602143126 175.60331658058013, -1.9092870419779309 65.43184995503077, -1.3591235350201034 -0.34754723442368785 M0.48675139667292056 287.24970997302387 C-0.5115700591667518 204.3158292736601, -1.3282807449803335 120.60860924511482, 0.014700728313977013 0.6756650265736112" stroke="#000000" stroke-width="1" fill="none"></path></g><g transform="translate(55.64318786099318 527.9954041907167) rotate(0 295.0028324540044 145.20860812364722)"><path d="M-0.20574786141514778 -0.45501837059855466 C125.64153701320743 -0.9170396574976479, 249.62674226746867 -1.7000926980021034, 589.2124806328287 0.2018527813255787 M-0.03829844854772091 0.09559015296399594 C149.95975848301543 -2.3484924922996875, 300.4103701173374 -2.2910439978653305, 589.6573403502425 -0.374727937951684 M590.7929684052749 1.1259781308298955 C588.8350824154196 108.44764864606373, 588.2730078320362 218.4529996836177, 590.9181277193359 291.0227103653841 M589.5121764811813 -0.49661416542595843 C588.9820783716694 94.97492432100691, 589.1625043503158 190.02340474975105, 589.415201299504 290.24922391038336 M590.0609477682581 290.1761633403342 C459.2017460737431 288.8874663955691, 329.1696737432418 287.85961812801384, 0.17837958857417108 289.778336311106 M590.1030105377158 290.188107832868 C366.6994807453983 290.05377753380054, 143.60116678865205 290.05717100504154, -0.1704250779002905 290.2282809223722 M0.5411648448442538 290.55525857735785 C1.143086457351719 209.56380476365214, 1.193532390207523 130.94405047643113, 0.4346221339545827 0.18067726939475454 M0.10429280268871222 291.1621837974952 C0.29149851702791163 202.96940537759932, 0.38094575879405745 116.09516553800978, 0.18364867848699054 -0.4168621574803848" stroke="#000000" stroke-width="1" fill="none"></path></g><g transform="translate(42.51800466745186 1032.440431096681) rotate(0 133.78829919357256 34.426047585227195)"><path d="M-1.1766784242506652 -0.9295331926229417 C70.51866474692329 0.5759513528228348, 142.52171623884863 -0.6170343327100666, 266.86653251651074 -1.2211743039964982 M0.48569324247070556 -0.432380616323573 C63.69645222014457 0.1617310531051837, 129.57214624363596 0.3023555872320785, 268.00650785340423 -0.47738786043279346 M269.2247942629537 0.06312115676701069 C266.41655133108696 19.788269815271505, 268.57192925552926 36.937813081319945, 267.76081329018683 69.08967989733934 M267.23802422446073 0.6865930622443557 C267.92355044147916 22.81232478194218, 266.42364840171285 45.25385907579772, 267.21655907195867 69.39431180576354 M267.05901911431323 68.57103885264475 C205.5122813332875 66.83100004596939, 141.67471192210016 68.8370137542037, -1.4740060117620293 70.35670935381766 M267.3081686048991 69.47578452483837 C205.26037534559228 69.4368071128352, 143.57917836980843 68.74857007418281, -0.5356191447778458 68.56346249222749 M0.332606328651309 68.09218549779176 C-2.2404507618974656 46.64578053615726, -1.4699719768594712 24.605825846129207, 0.7022091876715422 0.3396980930119753 M-0.27725212927907705 69.61456274012595 C-0.8091881197806704 41.999777531840806, 0.09451053320204139 16.38847800318213, -0.8633058285340667 -0.63564916793257" stroke="#000000" stroke-width="1" fill="none"></path></g><g transform="translate(251.90666917834244 256.0524846923537) rotate(0 115.77296401515162 23.01432291666667)"><path d="M-0.6508467460430156 0.9287534280355144 C93.31378770556164 0.7189692095075892, 184.776444007632 1.1170087404726243, 230.70047725606864 -0.2955398958120504 M-0.7573263534016443 -0.35572260760759983 C79.60553726477775 -0.9339145113937316, 158.87306387705513 -1.1708088378217425, 231.78790074677636 -0.2035219663484997 M233.0400907257856 0.7274736296385527 C231.4129889634071 15.379961711093838, 231.11714530257564 31.063835214302053, 232.839510426885 44.54451123190424 M231.79991686905782 0.2952355230227113 C230.90296554460892 13.0898836160474, 231.22558000579247 24.299091073390937, 230.7001638170616 46.144308446285635 M231.36560915412082 46.27960845005347 C181.64639952667693 44.99070962901797, 130.57517155544429 45.14896192975453, 0.8823866112444139 46.33858200790817 M232.25582335916246 46.49793657855213 C171.52645611637723 45.79280589592725, 110.54930027718682 45.08099036290004, 0.33066592303321357 46.10421308095399 M1.0908744502812624 47.629235360150545 C-1.6404998278758285 29.174476460426384, -1.057120618834233 12.806156693392651, 1.7271815109997988 0.7787174712866545 M-0.8750335806980729 45.28267195665589 C-1.2196654102038642 29.52654459691379, 0.6362685242462853 12.11936380852179, 0.8068124121055007 -0.3580552553758025" stroke="#000000" stroke-width="1" fill="none"></path></g><g><g transform="translate(369.3605044056154 148.15120628326275) rotate(0 -0.24144400209189598 51.0929386590015)"><path d="M1.0888828855007888 -0.9342339914292097 C0.9280084114521743 16.13948375335472, -0.30189510770142075 84.4485288719901, -0.4090002793818712 101.82024123042149 M0.20140767104923718 1.1896892177313565 C-0.20194719068706046 18.4826128903641, -1.5240089081972839 86.4032651361891, -1.571770889684558 103.1201113094322" stroke="#000000" stroke-width="1" fill="none"></path></g><g transform="translate(369.3605044056154 148.15120628326275) rotate(0 -0.24144400209189598 51.0929386590015)"><path d="M-13.03483551183614 74.12111721812991 C-8.947731503122348 85.26446616334458, -3.0570823221992782 93.55576406280666, 0.2848961055278778 102.29263720891696 M-11.464570759813219 74.37096211659966 C-8.546978661302585 85.20433958240365, -4.333985169484803 95.13488876286748, -1.165395145304501 103.2836682791568" stroke="#000000" stroke-width="1" fill="none"></path></g><g transform="translate(369.3605044056154 148.15120628326275) rotate(0 -0.24144400209189598 51.0929386590015)"><path d="M7.484757007886424 74.37865403178054 C4.466155562140962 85.6189993781739, 3.2497642494435253 93.82109840287987, 0.2848961055278778 102.29263720891696 M9.055021759909346 74.62849893025029 C4.793523532002998 85.50034144067178, 1.8270255216524642 95.34078242998497, -1.165395145304501 103.2836682791568" stroke="#000000" stroke-width="1" fill="none"></path></g></g><g><g transform="translate(369.3545858450094 149.45328961659612) rotate(0 81.52556395533637 47.071758234351876)"><path d="M-0.05809288211166863 -1.00151241235435 C27.118177734424513 14.796875476712984, 135.20882532651146 77.80462139037749, 162.30987354619705 93.74269090481103 M-1.5477303745597601 1.0870896258205174 C26.075452125330614 17.158998904849092, 137.42679524640164 79.89062440854808, 164.59885828523244 95.1450288810581" stroke="#000000" stroke-width="1" fill="none"></path></g><g transform="translate(369.3545858450094 149.45328961659612) rotate(0 81.52556395533637 47.071758234351876)"><path d="M133.3302598463505 88.91607652397296 C141.56335042149183 90.48899711655508, 150.07244968203238 92.12182433278544, 166.55929690739418 95.47775925070047 M134.8858006715908 90.42725169917038 C145.2287459567373 92.45295541362066, 156.7626013416261 94.45974972336535, 164.48357826145644 94.46300119001418" stroke="#000000" stroke-width="1" fill="none"></path></g><g transform="translate(369.3545858450094 149.45328961659612) rotate(0 81.52556395533637 47.071758234351876)"><path d="M143.39598964495653 71.03309338336429 C149.08045832521407 76.85170240935396, 155.1970595626033 82.73509095277987, 166.55929690739418 95.47775925070047 M144.95153047019684 72.54426855856171 C151.7466339533271 80.98326516351698, 159.6428991600706 89.4526771999191, 164.48357826145644 94.46300119001418" stroke="#000000" stroke-width="1" fill="none"></path></g></g><g transform="translate(507.75420705713077 256.18565230599) rotate(0 127.07445549242425 23.01432291666667)"><path d="M1.0538190020544025 -0.8639748205696369 C86.84592750320586 0.24093348997102115, 175.9906890307926 -1.9650330458739218, 254.3460307983862 -0.642411164906568 M0.07014968248151486 -0.0478419376363287 C62.90677900390964 -0.4031460015328489, 125.2457427743924 0.4684424880827476, 254.5488336852355 -0.642075673032115 M256.1443870649532 -0.37413726560771465 C254.2596976096961 18.128839486209475, 254.21110557869406 34.74889883385186, 255.76576185085332 45.03679875222346 M253.56530132282978 0.5780046945437789 C255.2941107327762 10.075365611207722, 254.051451849443 20.158884326638756, 254.95130782712704 46.52661946074417 M254.41870458015464 45.72140013425078 C185.65937137580946 46.76479535178203, 118.209713458205 46.66492682347038, -0.7714725305321161 46.85575359709847 M253.89067837159078 45.69022532374226 C181.7532738824995 45.39401604016629, 110.6149279424834 45.59154277254018, -0.44294614940906823 46.00429177922068 M0.36900014989078045 46.03488121119639 C0.893987293342434 31.675128892210832, 0.4127666307485924 16.199671083112968, -0.1942297089844942 0.3377176094800234 M-0.9584887241944671 46.81944024221352 C0.4624192126630078 27.827293017324948, -0.32640704432742496 10.060158571672218, -0.5488749658688903 -0.743477457202971" stroke="#000000" stroke-width="1" fill="none"></path></g><g transform="translate(25.009770504099833 254.5698852605355) rotate(0 105.0189393939394 23.94945549242426)"><path d="M0.2182587460588656 0.24705355295687176 C61.481912050540295 1.4934462435381297, 118.51012262703938 1.7888900468637583, 211.36600848030218 0.8483687873938741 M-0.6846682857829898 -0.4413514852436534 C73.49997813670257 0.3812660979497978, 147.48786309388143 0.9261497260483196, 210.07805761385475 -0.1292198607234234 M209.87304585500425 -0.6505027879029512 C210.0421896537991 12.33510016184202, 210.91916703788954 26.67923697083992, 209.15967869086927 48.302028237362286 M210.68864907118297 -0.6676546251401305 C210.05681829481222 11.396489537782402, 210.30400856165983 23.188181346273783, 210.62824843617892 47.63220407952078 M209.74284226399723 47.598799969774326 C149.9410304899989 44.686707134873494, 94.44434202283603 46.53493181198726, -0.8262828671637307 49.64635194258569 M209.92106644063935 47.872538843351236 C135.41818892226482 46.50582074570406, 59.25584067228448 48.06945222656055, -0.6364665733162743 47.740719162242684 M1.1255433727055788 47.00305485584297 C-0.3120240638349283 32.290326699961255, 0.43441056512854215 14.678686114269972, 0.21976669318974018 0.35804696194827557 M-0.30994769278913736 48.41383236039885 C-0.5698375514693359 35.35688152377023, -0.26881999885512387 23.11811553974171, 0.9727741545066237 0.7812121892347932" stroke="#000000" stroke-width="1" fill="none"></path></g><g><g transform="translate(370.8687903904639 148.25774037417187) rotate(0 -81.73369028189931 48.094202811842464)"><path d="M0.9079454619437455 1.0353934865444898 C-26.125674420951437 16.77629677151443, -135.89487011759795 78.7559060218335, -163.15374978137692 94.1819262654216 M-0.07452189987525348 0.5333711216412484 C-27.22844886768846 16.490978328763706, -137.15147258621892 79.98814321823053, -164.37532602574234 95.65503450204366" stroke="#000000" stroke-width="1" fill="none"></path></g><g transform="translate(370.8687903904639 148.25774037417187) rotate(0 -81.73369028189931 48.094202811842464)"><path d="M-143.35844593740654 71.81172545315297 C-149.595611820201 77.87479794464443, -154.83651183351822 83.37004729142605, -166.2311823679835 95.61353817862206 M-146.06698087382716 72.12180949342968 C-152.02696388915913 80.8385767962487, -158.57109088258542 89.62554439041178, -163.4376888093308 96.34110790305519" stroke="#000000" stroke-width="1" fill="none"></path></g><g transform="translate(370.8687903904639 148.25774037417187) rotate(0 -81.73369028189931 48.094202811842464)"><path d="M-133.10371712948847 89.58700433878215 C-141.56470320663985 91.80529989869194, -149.06845399313664 93.37818285985347, -166.2311823679835 95.61353817862206 M-135.8122520659091 89.89708837905886 C-145.2331225284843 92.53156206613637, -155.33101149318657 95.15853154471803, -163.4376888093308 96.34110790305519" stroke="#000000" stroke-width="1" fill="none"></path></g></g><g transform="translate(11.547067618388382 426.24674854948324) rotate(0 674.7158151455023 346.61070808531736)"><path d="M0.23081784769892694 -0.5916737250983716 C472.867895069551 -1.3852766198447726, 946.8393038038542 -1.0460174960425874, 1349.54754056405 -0.09520983025431634 M0.15441551543772222 0.19134569428861142 C290.83575329838766 3.4306898775744927, 582.1071824051902 2.980345326964904, 1349.78152163509 0.005070343241095543 M1349.041322798242 -0.5329831533133984 C1347.363932550654 199.22806415437088, 1346.6733043320032 398.90781950038524, 1349.1762984938518 692.9002358098704 M1349.485282068287 0.22494119666516782 C1351.686660925984 234.20074813943054, 1352.0790993257756 468.6000807017028, 1349.158190529381 693.2106828310717 M1349.130804604997 693.6647268911082 C847.0942638183876 692.432580336987, 343.18282602860455 692.8934993118634, 0.7493408970534802 693.455857839175 M1349.8069308209765 693.3532984354723 C955.460512280509 694.0908713687468, 561.9435649467067 694.1169161308813, 0.23849562741816044 692.8438472726573 M-0.5789838023483753 693.8942930122096 C0.627354044518691 489.8021950990836, -0.01757562676884561 286.53568998991256, 0.13840003535151482 0.7081064529716969 M0.13368062116205692 693.3186802842845 C1.3149696619881672 467.5567440637426, 1.429566112316994 241.3738754548951, -0.3620930161327124 -0.19198174215853214" stroke="#000000" stroke-width="1" fill="none"></path></g><g transform="translate(339.0336357739023 1041.800419090458) rotate(0 122.99999999999997 24)"><text x="123" y="19" font-family="Cascadia" font-size="20px" fill="#000000" text-anchor="middle" style="white-space: pre;" direction="ltr">sourcegraph/...svc...</text><text x="123" y="43" font-family="Cascadia" font-size="20px" fill="#000000" text-anchor="middle" style="white-space: pre;" direction="ltr">(metric exporter)</text></g><g transform="translate(329.39308968804363 1032.376204849838) rotate(0 133.78829919357256 34.426047585227195)"><path d="M1.4526781361796866 -1.1852742613643037 C78.99916419125118 1.6863593081207329, 159.73518725969987 0.6936950574622823, 266.32755616401 -1.3740918590891722 M-0.14833106228491832 -0.04306665455327306 C74.15387606697037 2.467031795430489, 148.98741139799688 2.595450998289458, 267.0856118276448 0.015967843900971394 M267.88618475005836 0.0433241855353117 C267.2890749727194 26.626512456770318, 266.5235142861311 55.6173678880395, 265.84871899888725 70.38614457523941 M267.10401295398236 -0.1714441990479827 C267.81499296944264 14.18820492956949, 267.10291943471555 27.797221772115186, 266.5984381017542 68.07695906566947 M267.8675839610525 68.91884083496792 C203.31776177415716 68.44939967234488, 138.3234419783077 67.98350813529497, -0.0912246790820098 68.13593712280898 M267.78802863976756 69.3354023802648 C174.03474836854815 67.42322370807572, 81.71253487033465 67.07159942928871, 0.06751778158628488 68.42640127562318 M1.9403824377804995 69.05274927294373 C1.4354984808193718 56.17558256633504, 0.21236867191663145 40.29629298069803, -0.14557193033397198 1.097350848838687 M-0.46224742475897074 69.70665463017791 C-0.23211355702638026 54.12304732564002, -0.15360443489312525 39.29936681706161, -0.9769336814060807 0.4342648470774293" stroke="#000000" stroke-width="1" fill="none"></path></g><g transform="translate(86.40209200661593 767.422788149351) rotate(0 58.5 12)"><text x="58.5" y="19" font-family="Cascadia" font-size="20px" fill="#000000" text-anchor="middle" style="white-space: pre;" direction="ltr">prometheus</text></g><g transform="translate(474.7648152209016 766.5299310064939) rotate(0 70.5 12)"><text x="70.5" y="19" font-family="Cascadia" font-size="20px" fill="#000000" text-anchor="middle" style="white-space: pre;" direction="ltr">alertmanager</text></g><g transform="translate(184.14539557804432 607.0363484172084) rotate(0 140.5 48)"><text x="140.5" y="19" font-family="Cascadia" font-size="20px" fill="#000000" text-anchor="middle" style="white-space: pre;" direction="ltr">prom-wrapper</text><text x="140.5" y="43" font-family="Cascadia" font-size="20px" fill="#000000" text-anchor="middle" style="white-space: pre;" direction="ltr"></text><text x="140.5" y="67" font-family="Cascadia" font-size="20px" fill="#000000" text-anchor="middle" style="white-space: pre;" direction="ltr">(configures alertmanager</text><text x="140.5" y="91" font-family="Cascadia" font-size="20px" fill="#000000" text-anchor="middle" style="white-space: pre;" direction="ltr">via site configuration)</text></g><g transform="translate(176.0265339709016 606.4149756493513) rotate(0 150.98005022321428 50.704520089285694)"><path d="M-0.949722390697556 -1.2800216139635407 C106.54819327961165 2.0520178310897164, 215.09486679739825 0.3443671213579795, 302.9366644178197 0.422180746722934 M0.21883120451267452 -0.288236181857036 C82.87260178721775 0.33634760970553584, 166.4682295815694 0.4096051949325741, 301.45772315506446 -0.2205152335407427 M301.12403099850883 -1.9083205331116915 C300.4375483733411 20.47174358642716, 299.9566918951268 41.76747047146894, 302.4152872474598 101.73111275716545 M301.98824084882756 0.365364202298224 C301.75463538543755 24.05742110129071, 301.684526763125 48.007054942727045, 301.81188104634305 100.71037865097495 M303.39588546090323 102.35326106910108 C185.35867697823335 102.95307083656773, 64.63855194983829 101.90646396693874, -1.2032005946162905 102.65366551364428 M301.483832235292 101.47349931192618 C190.5040850349657 102.04185465048214, 78.26484133409282 101.92804256292844, -0.1597050203427244 101.3721155363502 M0.4779579807072878 100.9187269000602 C-0.5807840472112464 65.273828359849, -0.9177692180524635 31.568396296078234, -0.5999530982226133 -0.33600430376827717 M0.7052550679072738 100.77642313058348 C1.1153886957572468 67.54004805310532, 0.9228378279613024 32.76126212510226, 0.8432091539725661 0.5490714097395539" stroke="#000000" stroke-width="1" fill="none"></path></g><g transform="translate(78.7120808459016 764.2344510957797) rotate(0 65.42619977678572 17.09333147321425)"><path d="M0.4779579807072878 -0.4903132785111666 C45.37133754222578 -0.5261352414226426, 90.31795692613197 0.8626830821895706, 130.25244645534883 -0.33600430376827717 M0.7052550679072738 -0.6326170479878783 C45.0152187308656 1.1602508797972015, 88.89541001680976 0.537311501774054, 131.695608707544 0.5490714097395539 M130.3441856330527 0.00584263913333416 C128.9470866914664 10.780839577439755, 131.20635968407734 23.176150160155355, 131.56090841947923 34.61812918127646 M130.6105736218659 0.8204506421461701 C131.1615938919611 9.197246091644175, 131.56924463091565 17.976851637882902, 131.68682784068267 34.87451009226163 M130.89121876417528 36.02877800406088 C104.50744130569821 35.71652883187827, 76.76442808367133 35.10106325046119, -1.0652416180819273 33.90851651371588 M131.31954330432097 33.68265537691434 C80.2213223271461 33.72474607001009, 31.10952770342581 33.10611539254847, -0.30092518869787455 34.22687931132634 M-1.8015358876436949 32.24783049763312 C-1.108920351748501 25.571493577530276, 1.4364358622979774 16.652555262774115, -0.9023446869105101 -1.0803818572312593 M-0.8095900351181626 34.46607775760015 C-0.06295670496826605 21.583787493694466, 0.17360676897162958 10.966428908560758, 0.6225430136546493 0.7738121235743165" stroke="#000000" stroke-width="1" fill="none"></path></g><g transform="translate(467.96291789947315 759.7771408279224) rotate(0 78.10407366071428 20.47293526785714)"><path d="M0.5588296223431826 -0.7352998722344637 C31.28005035800092 1.0024726704023117, 66.5311344512026 2.5097316220662824, 157.75577156857713 1.3700341116636992 M-0.06220721546560526 -0.8044977402314544 C54.11107704218659 -1.314597456537869, 108.0786794989965 -0.7979809034697081, 155.84146846418395 0.04488194826990366 M156.80672400311693 1.895001782104373 C157.73894018642625 13.474407974016573, 155.76005209200105 28.884027712681704, 158.11951040343507 40.3532020750323 M155.63583553915038 -0.06204234715551138 C155.7205027489192 10.85024581045765, 156.2025105206496 22.69955426988966, 155.23301241879477 40.20898550309778 M156.87534259871705 39.129100531605786 C110.81211469776692 41.120000908422995, 69.01080581842322 38.73100818162017, 1.9170715976506472 39.90896073010356 M155.7658819962026 40.35635655679346 C114.17460092598849 41.29518399430492, 73.19032116040083 40.839241572153355, -0.6059460276737809 41.325168694635636 M-1.568017227575183 39.18627825405986 C-0.9077569011984187 32.39319022392196, 1.043359124249427 22.11036945147449, 1.7340002823621035 1.9276299010962248 M-0.24839230719953775 40.80080970682741 C0.034838530758731834 27.69460150433721, 1.2435251507557563 14.64730081069711, -0.28953825775533915 -0.3012401079759002" stroke="#000000" stroke-width="1" fill="none"></path></g><g transform="translate(621.5234647744726 1024.1959466314938) rotate(0 58.5 36)"><text x="58.5" y="19" font-family="Cascadia" font-size="20px" fill="#000000" text-anchor="middle" style="white-space: pre;" direction="ltr">Slack,</text><text x="58.5" y="43" font-family="Cascadia" font-size="20px" fill="#000000" text-anchor="middle" style="white-space: pre;" direction="ltr">PagerDuty,</text><text x="58.5" y="67" font-family="Cascadia" font-size="20px" fill="#000000" text-anchor="middle" style="white-space: pre;" direction="ltr">etc</text></g><g transform="translate(612.0198375423299 1016.4317167207791) rotate(0 67.25725446428572 43.1640625)"><path d="M-0.11659602634608746 -0.20678775198757648 C40.93516518128985 -2.7255447334825607, 86.67780048865723 -2.7694675750314803, 135.41934226213823 1.2098446022719145 M-0.6653465563431382 -0.9436212396249175 C43.562946203472954 0.17640623921007714, 87.19743460385301 0.8364420580253085, 134.09334528672377 0.009844371117651463 M135.48033497988115 1.3893227707594633 C133.8186248297087 17.25928770744213, 133.20116022771515 38.59728357369023, 132.60004810749422 85.38983078114688 M135.47912776696364 -0.8840519702062011 C134.48459235948656 25.098130857288197, 135.49667329711053 47.42791748269519, 133.6489460192887 86.74093101266772 M133.36299089847932 85.40129442326725 C87.6015215293576 87.17076486595735, 38.53641942402983 86.00085401781664, -0.9962042402476072 86.55324400775135 M134.07938334571998 86.38111517671496 C102.66043951647538 86.06839463603605, 70.8861556832635 86.63831776869405, 0.6169625287875533 85.72635210398585 M0.5541378427296877 87.11593140475452 C0.9648710073488473 63.249640236208506, 1.6594906033533334 36.882996208165416, -0.9406776856631041 0.5474353563040495 M0.912611342035234 86.99021638277918 C0.0919181925310113 55.01604252849211, 1.0283098143590905 24.27307842914888, -0.5879977280274034 0.7616703892126679" stroke="#000000" stroke-width="1" fill="none"></path></g><g><g transform="translate(329.59796254233015 708.0890827922084) rotate(0 67.24720558071112 25.413173875103553)"><path d="M0.4961739856749774 -1.1855374831706285 C23.119096061489767 7.2507636181429085, 112.76715439658257 41.73377466545257, 135.19688456260732 50.603398291790526 M-0.7024734011851252 0.8064513928256929 C21.890247190068703 9.426891251725712, 112.16022015807796 43.76114780901749, 134.73191778103956 52.01188523337771" stroke="#000000" stroke-width="1" fill="none"></path></g><g transform="translate(329.59796254233015 708.0890827922084) rotate(0 67.24720558071112 25.413173875103553)"><path d="M102.75721030518537 53.278450835337146 C111.97182339222185 53.018604667715124, 122.00124400678366 50.909360727436436, 135.33895569968172 50.33925600924124 M104.41091213677203 51.119563354951545 C114.43541343291132 52.54822700340127, 124.35841199639744 52.18630947474686, 134.2169350574086 51.280832843077974" stroke="#000000" stroke-width="1" fill="none"></path></g><g transform="translate(329.59796254233015 708.0890827922084) rotate(0 67.24720558071112 25.413173875103553)"><path d="M109.94723454599693 34.05805661975505 C117.32647186910015 38.728102439890485, 125.52282449902242 41.5190212958304, 135.33895569968172 50.33925600924124 M111.6009363775836 31.899169139369448 C119.10382894342008 39.65086095191621, 126.68477715663931 45.54971939524803, 134.2169350574086 51.280832843077974" stroke="#000000" stroke-width="1" fill="none"></path></g></g><g><g transform="translate(334.5644803994729 708.4727323457797) rotate(0 -58.747553253413315 27.774082586312886)"><path d="M1.025075636431575 0.6260461885482071 C-18.745080359111586 9.46911238605599, -98.6703481844582 45.03842332486413, -118.5201821432582 54.14652515164437 M0.10410161621868608 -0.09088350780308252 C-19.303779479841747 9.463855620422168, -96.42775942047615 46.71064950276516, -116.29355471636568 55.639048680428886" stroke="#000000" stroke-width="1" fill="none"></path></g><g transform="translate(334.5644803994729 708.4727323457797) rotate(0 -58.747553253413315 27.774082586312886)"><path d="M-94.0776357983028 32.84450734909821 C-101.60038748601211 40.323722338194464, -106.24968768222791 46.97774449279791, -115.17631791028593 53.77691495581391 M-94.99567411157986 34.2170871518572 C-102.96860650640774 42.33028083673287, -109.19537864395181 49.72841485560194, -117.28310604355697 55.00693382951292" stroke="#000000" stroke-width="1" fill="none"></path></g><g transform="translate(334.5644803994729 708.4727323457797) rotate(0 -58.747553253413315 27.774082586312886)"><path d="M-85.36936946053004 51.42638292117793 C-95.74621246910277 53.24940757476329, -103.08110849883352 54.17285079670244, -115.17631791028593 53.77691495581391 M-86.2874077738071 52.798962723936924 C-97.14818898695086 54.47183671819677, -106.39802668804482 55.41929204061125, -117.28310604355697 55.00693382951292" stroke="#000000" stroke-width="1" fill="none"></path></g></g><g transform="translate(1043.403866165617 539.0332111103595) rotate(0 111.5 24)"><text x="111.5" y="19" font-family="Cascadia" font-size="20px" fill="#000000" text-anchor="middle" style="white-space: pre;" direction="ltr">sourcegraph/grafana</text><text x="111.5" y="43" font-family="Cascadia" font-size="20px" fill="#000000" text-anchor="middle" style="white-space: pre;" direction="ltr">(container)</text></g><g transform="translate(1012.4737934894504 530.7023175392317) rotate(0 142.12068132966567 57.21377418154762)"><path d="M1.1780618629271546 -0.5510830333430076 C113.65797465469237 3.4127014537825757, 224.00006035177194 1.2008285996265655, 284.5463027950426 -0.5171355032487648 M-0.23728235801592382 0.3155867422923033 C76.76275996732411 -0.30725240913806323, 152.9596453866286 -0.2874605601681505, 284.92447583227846 0.5156877462205851 M283.26157908148684 0.8669138681143522 C282.96535103943785 39.40598790146028, 283.4375337305351 81.19293905577788, 282.2615622133724 115.48022147755893 M283.8114638673849 0.3554139519110322 C284.9067835642521 43.92237945558568, 283.8251364363854 87.1242717552198, 283.81630886073776 114.65563645236017 M283.69214878366864 115.02413374235903 C199.14281926863865 114.51618823661568, 111.42434046592864 114.69675535902884, -0.550048127380836 114.25111488703592 M284.4120170771229 113.89380216076113 C206.80696867239953 113.0165750727595, 130.45060589242098 113.24964995846977, -0.6351273682156676 115.09424680753322 M0.27162559516727924 114.0666526828316 C-1.7824609529226716 83.90352003286365, -2.9477790247648654 56.19566196480489, -0.5666748117655516 -1.9598387349396944 M0.4802767103537917 113.86463385097505 C-1.3928564182191232 75.64979369600938, -0.5060644439130166 38.084345669034434, 0.13457963522523642 0.2935719573870301" stroke="#000000" stroke-width="1" fill="none"></path></g><g><g transform="translate(550.08819691733 800.6819957386365) rotate(0 65.14806414431126 104.09930029864296)"><path d="M-0.9309212822467088 1.0987846691161394 C0.38201671028066 18.591064639797303, -12.684407884893687 85.34209000308351, 7.6936914765941085 103.75592276661392 C28.071790838081903 122.16975553014433, 100.5157479778464 94.4227011723192, 121.33767488668005 111.58178125029862 C142.1596017955137 128.74086132827804, 130.74930327717394 190.93657910487786, 132.625252929596 206.71040323449046 M0.7812063152343036 0.6300426750630139 C1.9027592150263817 17.91251122053513, -13.59189655747798 83.98637568656639, 6.448896538178819 102.17945052220222 C26.489689633835617 120.37252535783804, 99.96997538020564 92.22364045554116, 121.0259648891751 109.78849168887794 C142.08195439814455 127.35334292221472, 131.1194436844084 191.51417671806354, 132.78483359199555 207.56855792222294" stroke="#000000" stroke-width="1" fill="none"></path></g><g transform="translate(550.08819691733 800.6819957386365) rotate(0 65.14806414431126 104.09930029864296)"><path d="M125.15838663405124 178.1563209086858 C127.46892556582054 188.71764621712964, 130.1711914048419 195.1038728764961, 132.00481390450688 207.23822315638634 M123.55973140554819 179.46978583803553 C125.14567508143308 185.9135383559702, 126.95256435789587 192.68403504027543, 131.95232363567294 207.48045627349737" stroke="#000000" stroke-width="1" fill="none"></path></g><g transform="translate(550.08819691733 800.6819957386365) rotate(0 65.14806414431126 104.09930029864296)"><path d="M145.67135676802047 178.73774903728432 C142.1482316975907 188.97442505685987, 139.01103012070928 195.1951354311898, 132.00481390450688 207.23822315638634 M144.07270153951742 180.05121396663404 C141.1404431430564 186.1630498978513, 138.42369090966469 192.8053266120426, 131.95232363567294 207.48045627349737" stroke="#000000" stroke-width="1" fill="none"></path></g></g><g transform="translate(576.5209536137584 876.9869622564938) rotate(0 35 12)"><text x="35" y="19" font-family="Cascadia" font-size="20px" fill="#000000" text-anchor="middle" style="white-space: pre;" direction="ltr">Alerts</text></g><g><g transform="translate(142.3767002042981 798.3661475243507) rotate(0 19.66334881378195 112.22108441592258)"><path d="M-1.0698349993675946 1.1947455268353224 C-1.0844142265193113 20.58927173941467, -7.115526801060679 78.50123806540017, 0.23712271887216008 115.44116299661302 C7.589772238805 152.38108792782586, 35.7487490373409 204.5879228012902, 43.04606212022944 222.8342951141124 M0.5693628966249524 0.7763829830847682 C0.32997606194168816 20.45288604033251, -7.878145171843264 79.80986201929022, -0.9412266641355751 116.95809583023616 C5.995691843572113 154.1063296411821, 34.58562726420598 205.99681180571068, 42.190873942871086 223.66578584876035" stroke="#000000" stroke-width="1" fill="none"></path></g><g transform="translate(142.3767002042981 798.3661475243507) rotate(0 19.66334881378195 112.22108441592258)"><path d="M22.7861289036845 201.9058317211932 C27.565113910779466 209.42108756515466, 33.08487876830534 217.92346173617486, 44.12319878635227 222.91830552894746 M19.983913764302912 202.17883863258274 C25.671509788094006 206.62306904057655, 31.0342382905217 211.05546550000173, 42.00765684114068 223.5930682203186" stroke="#000000" stroke-width="1" fill="none"></path></g><g transform="translate(142.3767002042981 798.3661475243507) rotate(0 19.66334881378195 112.22108441592258)"><path d="M41.30891083304872 193.07256777273918 C39.96186003870592 203.31160517575165, 39.42375202712699 214.70289690910357, 44.12319878635227 222.91830552894746 M38.50669569366713 193.3455746841287 C40.115784115584404 199.6203519055972, 41.42435510495595 205.98612119951332, 42.00765684114068 223.5930682203186" stroke="#000000" stroke-width="1" fill="none"></path></g></g><g><g transform="translate(142.69422370304437 799.0009131493507) rotate(0 166.69980332266002 112.64139362943246)"><path d="M-0.5226747293025255 1.1681418377906085 C21.93894408641473 19.5057024166277, 84.78981923416617 90.05848372724772, 135.8283350261727 109.97429093102572 C186.86685081817924 129.89009813480374, 272.72778973676975 101.68703482581589, 305.7084200227367 120.66298506045865 C338.6890503087036 139.63893529510142, 329.2057764681854 206.69152411126055, 333.71211674197434 223.8299923388823 M1.4037823084741832 0.7358123572915791 C24.170032448005824 18.762004780649242, 87.11569921315075 88.19094929260135, 138.21198185753613 108.39048767561673 C189.3082645019215 128.5900260586321, 275.3630949219387 102.5736281177244, 307.98147817478645 121.93304265538382 C340.5998614276342 141.29245719304325, 329.5205701835133 207.64895670809304, 333.92228137462257 224.54697490157326" stroke="#000000" stroke-width="1" fill="none"></path></g><g transform="translate(142.69422370304437 799.0009131493507) rotate(0 166.69980332266002 112.64139362943246)"><path d="M324.1269821704552 195.89819482711823 C328.4372556152942 205.7367516520982, 331.1348411932802 218.30970350089171, 332.6940962108117 222.82093258807203 M322.8342149689049 196.7326087923509 C324.1651740938216 202.54660699697985, 327.8573322443852 209.38944722942264, 333.403746067014 224.32914132950594" stroke="#000000" stroke-width="1" fill="none"></path></g><g transform="translate(142.69422370304437 799.0009131493507) rotate(0 166.69980332266002 112.64139362943246)"><path d="M344.6192732515781 194.80915459261306 C340.97359646570567 204.9812403067264, 335.7156953134229 217.97697773376672, 332.6940962108117 222.82093258807203 M343.3265060500278 195.64356855784573 C340.33464708405194 201.76794385927116, 339.71165642817607 208.8401079213183, 333.403746067014 224.32914132950594" stroke="#000000" stroke-width="1" fill="none"></path></g></g><g transform="translate(303.0788498191157 851.2704443993505) rotate(0 41 24)"><text x="41" y="19" font-family="Cascadia" font-size="20px" fill="#000000" text-anchor="middle" style="white-space: pre;" direction="ltr">scrape</text><text x="41" y="43" font-family="Cascadia" font-size="20px" fill="#000000" text-anchor="middle" style="white-space: pre;" direction="ltr">metrics</text></g><g transform="translate(679.8945585244728 603.4213930600649) rotate(0 64.5 12)"><text x="64.5" y="19" font-family="Cascadia" font-size="20px" fill="#000000" text-anchor="middle" style="white-space: pre;" direction="ltr">site config</text></g><g transform="translate(670.9989112030444 597.8893060064936) rotate(0 73.08523995535717 18.7744140625)"><path d="M0.7098982501775026 -0.5015656817704439 C40.102642550821415 1.2349225962183092, 79.43046261135302 0.7172162616273974, 145.0391309003213 0.6519193183630705 M0.2834148770198226 0.7195286238566041 C50.045285269335196 -0.183176888590749, 99.22552781588641 -1.714914484387334, 145.53235485524476 -0.9345525717362761 M145.93775484365017 -1.8717122543603182 C144.95022779919339 11.588440381051443, 147.95733404375744 23.677695723372384, 144.1792273859361 37.798204554244876 M145.25286176175416 -0.34566845651715994 C146.52439787270134 13.744303960655998, 145.67409878255432 29.318629443319878, 145.91464149326623 37.97257948759943 M144.54298499625713 36.7418123614043 C89.67648276853174 36.97847072710887, 33.52008071475653 39.55608986248866, 1.6750299502164125 36.91955502144992 M146.67711769909204 37.46151090506464 C98.81322538938356 36.15909944251968, 53.190153964379675 36.72249085978462, -0.5777611071243882 38.44242612365633 M-1.551254553720355 36.94026548974216 C0.38549509230824697 24.419784621332838, -1.2021748166921498 7.477991420770195, -0.2698917221277952 0.05668116919696331 M0.2425535386428237 37.850691952742636 C-1.0783810421303315 25.82065387406601, -1.0499627097919983 14.230840442911358, -0.5903738373890519 0.06449539307504892" stroke="#000000" stroke-width="1" fill="none"></path></g><g transform="translate(831.6827839709016 603.212129667208) rotate(0 76.00000000000006 24)"><text x="76" y="19" font-family="Cascadia" font-size="20px" fill="#000000" text-anchor="middle" style="white-space: pre;" direction="ltr">admin</text><text x="76" y="43" font-family="Cascadia" font-size="20px" fill="#000000" text-anchor="middle" style="white-space: pre;" direction="ltr">reverse proxy</text></g><g transform="translate(828.6300495959016 594.9247412743507) rotate(0 81.59877232142861 31.529017857142833)"><path d="M-1.7694166135042906 0.49064953438937664 C44.925462951689845 0.2353254918918023, 91.32293536661543 2.9163782362803827, 162.0539275064533 0.4572086464613676 M-0.9397358233109117 0.01207295898348093 C65.38838937260208 -1.0339699951917807, 128.39810083407903 -1.9463829068452994, 163.28281448794803 0.0606923783197999 M162.40886553669623 1.6708665024489164 C161.51386028487997 15.587686222842802, 163.9350919719489 35.77331812280212, 164.2696675314968 63.5019932349345 M162.4513118119379 0.5950186932459474 C163.06629426762714 13.803860288946963, 162.34711299821987 27.678665057560575, 162.6148434431692 63.48842557399928 M162.8578056349819 63.516386564554864 C125.91766912140318 63.790937390323656, 88.4356186216184 65.08818962812043, 1.5683823991566896 62.444825406851464 M162.81237061335048 62.32245739429652 C117.37912459914052 64.11348641648011, 68.99092920596328 64.05236706866937, 0.9360180860385299 63.58706688016116 M-0.5248302053660154 64.97919249135464 C0.43219973233707193 39.450147856428075, 0.798328117404058 12.471531612004433, 0.6198806334286928 -1.7419437635689974 M0.48313174303621054 62.310403815204495 C-1.4728963498024048 48.64812521619643, -0.3966731850055757 34.41041574713222, 0.5895173018798232 0.5896790409460664" stroke="#000000" stroke-width="1" fill="none"></path></g><g><g transform="translate(479.7949491494729 664.8466162743507) rotate(0 132.60532378100493 7.2017190700331355)"><path d="M0.7215244609862566 -0.09274373240768918 C24.391346752519407 4.604308498313742, 100.60372525270851 21.8292069745738, 143.11260544843972 28.008907437164886 C185.62148564417095 34.18860789975597, 236.2621371364487 45.94749476553076, 255.7748056353735 36.985459043138825 C275.2874741342983 28.023423320746886, 259.53417775277927 -15.071571703911465, 260.1886164419884 -25.763306897186727 M-0.3588139263354242 -1.1870381372608245 C23.594428935690473 3.6943723487277493, 102.85116858674036 23.266384026009955, 145.38738878274336 29.335237608522725 C187.92360897874636 35.4040911910355, 235.64558701113663 44.186395827076815, 254.8585072496826 35.226083357815796 C274.07142748822855 26.265770888554776, 260.1073196425191 -14.009412074912976, 260.6649102140191 -24.42663720704341" stroke="#000000" stroke-width="1" fill="none"></path></g><g transform="translate(479.7949491494729 664.8466162743507) rotate(0 132.60532378100493 7.2017190700331355)"><path d="M274.450442860648 0.7500327167427336 C268.5207364422642 -8.646826015084468, 265.58958641883095 -17.830919297348263, 261.40398577227916 -24.510364434567332 M274.00316083412616 1.9993304799636995 C271.8215824763976 -3.4583231891329658, 268.9661583862972 -9.917314833584161, 260.4865156346905 -23.7113759777295" stroke="#000000" stroke-width="1" fill="none"></path></g><g transform="translate(479.7949491494729 664.8466162743507) rotate(0 132.60532378100493 7.2017190700331355)"><path d="M254.1137366018866 3.495643929331404 C256.1424829463201 -7.097409864812841, 261.16581814143035 -17.355419617547106, 261.40398577227916 -24.510364434567332 M253.66645457536472 4.74494169255237 C255.97267856957717 -1.2937903239112556, 257.59438055830424 -8.357228303270105, 260.4865156346905 -23.7113759777295" stroke="#000000" stroke-width="1" fill="none"></path></g></g><g><g transform="translate(911.2193353101871 659.3778662743507) rotate(0 71.33077217526727 39.273740185298294)"><path d="M-1.099639169499278 0.1176491003483533 C6.601839623440586 12.84094859175384, 23.917160781100375 62.529848351205395, 46.15451086179485 75.43672264628113 C68.39186094248932 88.34359694135686, 116.0566825382944 91.70987817998088, 132.32446131466756 77.55889487080276 C148.59224009104074 63.40791156162464, 141.63912176505787 4.928789564949444, 143.76118352003385 -9.469177208787595 M0.5239115371741354 -0.8661890673078597 C8.128101462282771 12.0761713427864, 23.715363822225463 63.30884650037313, 45.54231992873495 76.5881929118 C67.36927603524444 89.86753932322685, 115.14634101457632 93.04418678411326, 131.48564817623105 78.80988940125332 C147.8249553378858 64.57559201839337, 141.51975183936892 5.7431066335374314, 143.57816289866332 -8.81759138535971" stroke="#000000" stroke-width="1" fill="none"></path></g><g transform="translate(911.2193353101871 659.3778662743507) rotate(0 71.33077217526727 39.273740185298294)"><path d="M153.4960901797711 20.629693810683264 C149.41582748729996 10.856537338093226, 147.5574825981458 1.3380702796294734, 142.14236903877918 -8.023001852820462 M153.64463984546802 19.270606666658594 C150.88461936866463 11.560225149088797, 148.42433600490932 3.546817196165202, 143.9451679255626 -9.11793793030346" stroke="#000000" stroke-width="1" fill="none"></path></g><g transform="translate(911.2193353101871 659.3778662743507) rotate(0 71.33077217526727 39.273740185298294)"><path d="M132.978603624056 20.23886415227591 C134.9576982075301 10.769201322745637, 139.16165182949632 1.3662126417054914, 142.14236903877918 -8.023001852820462 M133.12715328975293 18.87977700825124 C136.14357623591357 11.467836696543031, 139.46032482836736 3.5644731888745813, 143.9451679255626 -9.11793793030346" stroke="#000000" stroke-width="1" fill="none"></path></g></g><g><g transform="translate(1235.9478314013195 644.2132457386365) rotate(0 -546.1714814629743 116.91985594357936)"><path d="M-69.78086587372721 -0.5478024143725634 C-94.0389797156053 36.53966364560736, -132.82376767920778 189.49971908031114, -215.34445574863085 222.40971025553125 C-297.8651438180539 255.31970143075137, -441.70761120652446 201.68421179607853, -564.9049942902657 196.91214463694809 C-688.1023773740069 192.14007747781764, -878.4423545146802 199.93742993429652, -954.5287542510781 193.77730730074853 C-1030.6151539874759 187.61718466720055, -1009.9776441446018 165.6024962860736, -1021.4233927086527 159.95140883566012 M-70.88370967642888 1.7789973727427424 C-95.33782806339956 39.09106726866303, -133.6630085134551 191.24540912788447, -216.17193190571123 224.0081318284065 C-298.68085529796735 256.77085452892857, -442.85332479584633 203.21354164241225, -565.9372500299658 198.355333575875 C-689.0211752640852 193.49712550933774, -878.5713421400519 201.22576561866677, -954.6754833104278 194.85888342918292 C-1030.7796244808037 188.49200123969908, -1011.2758239082876 166.19712340342056, -1022.5620970522212 160.15404043897186" stroke="#000000" stroke-width="1" fill="none"></path></g><g transform="translate(1235.9478314013195 644.2132457386365) rotate(0 -546.1714814629743 116.91985594357936)"><path d="M-1000.3573208500982 179.65663898624956 C-1007.4463774440646 171.76488918385147, -1015.45499888715 164.56797222760622, -1022.6328423247832 161.20898860312198 M-999.6576411578224 179.89506483246117 C-1006.258993694951 173.89721058969445, -1012.4184715998139 168.53067638535308, -1022.4182614415112 159.24280502545778" stroke="#000000" stroke-width="1" fill="none"></path></g><g transform="translate(1235.9478314013195 644.2132457386365) rotate(0 -546.1714814629743 116.91985594357936)"><path d="M-1018.0558495048406 190.04326913481577 C-1018.8464360647753 178.3609260655982, -1020.5665487805051 167.4735094293373, -1022.6328423247832 161.20898860312198 M-1017.3561698125648 190.28169498102739 C-1019.0771449400357 181.54271639574824, -1020.4555142704463 173.3703214652573, -1022.4182614415112 159.24280502545778" stroke="#000000" stroke-width="1" fill="none"></path></g></g><g transform="translate(833.2140339709013 831.1906452922078) rotate(0 94 12)"><text x="94" y="19" font-family="Cascadia" font-size="20px" fill="#000000" text-anchor="middle" style="white-space: pre;" direction="ltr">prometheus query</text></g><g><g transform="translate(133.4164299242425 301.5539085410558) rotate(0 189.47429160373582 109.68966017639265)"><path d="M-0.2778212707489729 0.4894396763294935 C14.68393350211923 14.580559292207322, 33.28310009190228 70.32410778941247, 90.03046892356244 84.9242802520553 C146.7778377552226 99.52445271469813, 292.00706912676895 65.72690462097925, 340.206391719212 88.09047445218648 C388.405714311655 110.45404428339371, 372.89407488133713 197.09383896262014, 379.2264044782206 219.1056992392987 M1.7771838327683511 -0.29920843893662097 C16.570651450604394 13.442650619647315, 32.35628921474677 68.42625661566514, 89.1572969129507 83.33815601262174 C145.95830461115463 98.25005540957834, 294.71306116935887 66.44879247961964, 342.5832300219919 89.172187942803 C390.4533988746249 111.89558340598637, 370.68289931220886 197.77794157310018, 376.37831002874896 219.6785287917219" stroke="#000000" stroke-width="1" fill="none"></path></g><g transform="translate(133.4164299242425 301.5539085410558) rotate(0 189.47429160373582 109.68966017639265)"><path d="M366.29439795266404 191.96630741497998 C370.77562118817286 199.10152444132964, 371.8301150931132 211.52835370530943, 374.69249626091346 219.7621416044049 M364.9482503455834 192.07516602548336 C369.2010365424356 199.4984622368142, 372.777210876796 209.63360893514766, 376.2293900654711 219.1629814053513" stroke="#000000" stroke-width="1" fill="none"></path></g><g transform="translate(133.4164299242425 301.5539085410558) rotate(0 189.47429160373582 109.68966017639265)"><path d="M386.8102894136377 191.49918864272962 C384.69380604040776 198.7371619577374, 379.14912361529286 211.31424543567726, 374.69249626091346 219.7621416044049 M385.46414180655705 191.608047253233 C383.4860867638488 199.1200547174632, 380.8315017511943 209.3970672792373, 376.2293900654711 219.1629814053513" stroke="#000000" stroke-width="1" fill="none"></path></g></g><g><g transform="translate(368.87509927908116 301.6925174120235) rotate(0 396.82049354211864 111.8942538439269)"><path d="M1.138294180110097 0.9983680944889783 C22.36461227807185 11.984194887641781, 9.796486661485616 55.40381121295356, 127.63659722903554 66.49436326340565 C245.47670779658546 77.58491531385773, 597.2243525920975 41.40547422625289, 708.1789575854096 67.54168039720149 C819.1335625787218 93.67788656815009, 779.0707603988272 197.50602803633657, 793.3642271889087 223.3116002890972 M0.2767598953284325 0.47690739875659327 C21.340471742646454 11.076409368410673, 8.442798070530628 53.471837224670146, 126.80735353108307 64.79181939928586 C245.17190899163552 76.11180157390157, 599.4179641628618 42.31960659137161, 710.464092658643 68.39680044645087 C821.5102211544242 94.47399430153013, 778.8441570441831 195.5254960143484, 793.0841245057705 221.25498252976143" stroke="#000000" stroke-width="1" fill="none"></path></g><g transform="translate(368.87509927908116 301.6925174120235) rotate(0 396.82049354211864 111.8942538439269)"><path d="M782.2836176038866 194.344086113344 C786.1136697630477 200.73499268544128, 787.3412185819783 209.81598611400688, 794.6699065736208 220.5411797283163 M781.1192857998569 194.88357379842088 C785.5085849556751 202.9239702250556, 788.7529464866958 210.99573663215344, 792.7433200844276 220.28475988618487" stroke="#000000" stroke-width="1" fill="none"></path></g><g transform="translate(368.87509927908116 301.6925174120235) rotate(0 396.82049354211864 111.8942538439269)"><path d="M802.7401629572905 192.71627943257118 C799.9660272352012 199.82737866591702, 794.5815285456509 209.43451836805667, 794.6699065736208 220.5411797283163 M801.5758311532609 193.25576711764808 C799.8139913188646 201.58432665531177, 796.8958477717696 210.14646750067143, 792.7433200844276 220.28475988618487" stroke="#000000" stroke-width="1" fill="none"></path></g></g><g transform="translate(1075.692135569404 31.02719483137838) rotate(0 127.59261592741927 23.903729838709666)"><path d="M0.14285278137658605 -1.366747497428016 C74.89176672535278 -2.05396797011652, 149.20779981034292 -1.699098994110308, 254.74232018982087 -0.34036037062073743 M0.4978468929478425 0.29144708510301703 C53.24226663827261 -1.9208343009272837, 107.24481365959002 -1.3898235484906918, 255.04795915435542 -0.762229562505555 M256.9263473820662 1.3876147996634245 C257.0058747916146 19.48871521978975, 255.1500087766572 37.597946667137755, 253.52030939578765 48.33543882597117 M255.42796837974095 -0.8652064418420196 C254.59204053620388 9.334988554528886, 255.83054569105198 18.973577143734264, 255.97920772123837 47.81650665759919 M254.26412059646069 46.98871660899765 C159.515309213718 48.30974797908978, 66.64524918099721 46.45555251422598, -0.41879186894738835 48.246367437796 M254.56348991949955 47.729694862174966 C163.20484332060568 47.99817826972837, 71.36066269263354 47.427698974616696, 0.7720782288021414 47.390988946670575 M0.9683242607861757 49.787852086907904 C-0.37762325196625524 35.615382964574934, -1.0653259673631363 24.93969233040115, -0.8590050768107176 -1.0340627301484346 M0.2912329500541091 47.913191739319544 C-0.004338813569883082 30.66224221478642, 0.5107109122010672 16.47352661511902, -0.08375337067991495 -0.8589560901746154" stroke="#000000" stroke-width="1" fill="none"></path></g><g transform="translate(1087.8441012952107 42.431932734604004) rotate(0 117 12)"><text x="117" y="19" font-family="Cascadia" font-size="20px" fill="#000000" text-anchor="middle" style="white-space: pre;" direction="ltr">docs.sourcegraph.com</text></g><g><g transform="translate(636.6926396016618 302.7383843475074) rotate(0 289.9042755781477 -84.81170844868117)"><path d="M0.3292877633124589 -0.150377144291997 C19.59694978371087 3.734424623298228, 27.245762393309676 18.8735672477072, 114.7454202007397 22.80700060135174 C202.24507800816974 26.740433954996277, 447.65721696691867 62.59558014914149, 525.3272346078926 23.45022297757523 C602.9972522488665 -15.69513419399103, 571.508516918471 -172.8058651267241, 580.7655260465832 -212.06514242804582 M-0.9569748902879656 -1.274929090384394 C18.328140074031534 2.7809286921012704, 26.803877549472205 19.590270369201704, 114.39843037464534 23.881105200540752 C201.99298319981847 28.1719400318798, 446.90359462801655 63.67165900079289, 524.6103420607509 24.470079897649903 C602.3170894934852 -14.731499205493087, 570.9507649832161 -171.89953181032715, 580.6389149710515 -211.32836941831718" stroke="#000000" stroke-width="1" fill="none"></path></g><g transform="translate(636.6926396016618 302.7383843475074) rotate(0 289.9042755781477 -84.81170844868117)"><path d="M589.8639873010998 -180.95604906825764 C586.599604308958 -189.1812395237248, 584.9624241037511 -197.0199429781178, 579.4735566232332 -212.34117695332478 M589.8817874729593 -183.72395323532118 C586.7529295396839 -188.93609636104733, 585.219032770362 -195.8668891964871, 580.7904224147999 -211.91255223860006" stroke="#000000" stroke-width="1" fill="none"></path></g><g transform="translate(636.6926396016618 302.7383843475074) rotate(0 289.9042755781477 -84.81170844868117)"><path d="M569.3506547019228 -181.5245453843258 C570.7668285310709 -189.67624523982337, 573.8125824566436 -197.3851681824996, 579.4735566232332 -212.34117695332478 M569.3684548737824 -184.29244955138932 C571.1320364585342 -189.2237995617479, 574.4879824221817 -196.01907772318697, 580.7904224147999 -211.91255223860006" stroke="#000000" stroke-width="1" fill="none"></path></g></g></svg>