<svg width="59" height="59" viewBox="0 0 59 59" fill="none" xmlns="http://www.w3.org/2000/svg">
<path fill-rule="evenodd" clip-rule="evenodd" d="M11.6262 12.4642C13.593 12.4642 15.1874 10.8698 15.1874 8.90304C15.1874 6.93623 13.593 5.34182 11.6262 5.34182C9.65938 5.34182 8.06497 6.93623 8.06497 8.90304C8.06497 10.8698 9.65938 12.4642 11.6262 12.4642ZM11.6262 17.8061C16.5432 17.8061 20.5292 13.82 20.5292 8.90304C20.5292 3.98603 16.5432 0 11.6262 0C6.70917 0 2.72314 3.98603 2.72314 8.90304C2.72314 13.82 6.70917 17.8061 11.6262 17.8061ZM42.314 3.44255H56.5589V17.6874H42.314V3.44255ZM56.5589 24.099H42.314V38.3439H56.5589V24.099ZM42.314 44.7551H56.5589V59H42.314V44.7551ZM25.7002 8.01272C24.2251 8.01272 23.0293 9.20853 23.0293 10.6836C23.0293 12.1587 24.2251 13.3545 25.7002 13.3545H36.3838C37.8589 13.3545 39.0547 12.1587 39.0547 10.6836C39.0547 9.20853 37.8589 8.01272 36.3838 8.01272H25.7002ZM9.97885 23.0141L9.97646 23.0306L9.96584 23.1783C9.9632 23.2207 9.95988 23.2693 9.95615 23.3237C9.94902 23.4279 9.94041 23.5537 9.93224 23.7003C9.90733 24.1466 9.8796 24.7851 9.87212 25.5707C9.85364 27.1384 9.896 29.3153 10.1635 31.7619C10.6826 36.549 12.0835 42.8198 15.9078 47.4002C19.8377 52.1087 25.5008 53.7731 29.8442 54.3333C32.0519 54.6161 34.0208 54.6296 35.4395 54.5723C36.1522 54.5436 36.7309 54.4972 37.1416 54.4577C37.3469 54.4362 37.5112 54.419 37.6274 54.4029L37.7677 54.3862L37.8088 54.3819L37.8224 54.3782L37.8293 54.378L37.8327 54.378C39.2926 54.1621 40.3032 52.8032 40.0908 51.3467C39.8783 49.8867 38.523 48.8795 37.063 49.0919L36.9741 49.1041C36.9556 49.1062 36.9344 49.1087 36.9105 49.1116C36.8374 49.1204 36.7396 49.1321 36.6183 49.1424C36.2999 49.1732 35.8241 49.214 35.2244 49.2369C34.025 49.2862 32.3648 49.2731 30.525 49.0374C26.7766 48.5572 22.6942 47.1992 20.0062 43.977C17.2093 40.6302 15.9558 35.6596 15.4708 31.1873C15.4301 30.8089 15.3952 30.4373 15.3653 30.0741C16.9464 31.3551 18.9307 32.6202 21.3505 33.5748C25.1243 35.0634 29.1004 35.4888 32.0504 35.564C33.5414 35.6019 34.8088 35.5512 35.7104 35.4902C36.162 35.4597 36.524 35.4264 36.7788 35.4C36.9063 35.3868 37.0071 35.3753 37.0792 35.3667L37.1654 35.3561L37.1918 35.3527L37.2008 35.3515L37.2056 35.3509C38.6676 35.1545 39.6948 33.8099 39.4984 32.348C39.3021 30.8872 37.9597 29.8617 36.4991 30.056L36.4956 30.0565L36.4453 30.0626C36.4 30.068 36.3271 30.0764 36.2287 30.0866C36.0317 30.107 35.7331 30.1346 35.35 30.1606C34.5821 30.2125 33.4831 30.2569 32.1864 30.2239C29.5611 30.157 26.2769 29.7757 23.3108 28.6056C20.3951 27.4555 18.2913 25.7062 16.9124 24.2339C16.2248 23.4997 15.727 22.8444 15.4087 22.3862C15.25 22.1576 15.1371 21.9798 15.0686 21.8678C15.0554 21.846 15.0438 21.8268 15.0339 21.8102C15.0183 21.7841 15.0068 21.7645 14.9995 21.7518L14.9903 21.7357C14.2823 20.4486 12.6665 19.9742 11.3744 20.6767C10.4874 21.159 9.98291 22.071 9.97885 23.0141ZM36.8512 32.7036L37.2056 35.3509C37.2063 35.3508 37.2069 35.3507 36.8512 32.7036Z" fill="url(#paint0_linear_11170_845)"/>
<defs>
<linearGradient id="paint0_linear_11170_845" x1="1.90825" y1="0.752389" x2="50.3974" y2="62.3981" gradientUnits="userSpaceOnUse">
<stop offset="0.12479" stop-color="#7048E8"/>
<stop offset="0.308435" stop-color="#00CBEC"/>
<stop offset="0.642062" stop-color="#A112FF"/>
<stop offset="1" stop-color="#FF5543"/>
</linearGradient>
</defs>
</svg>
