<svg width="27" height="25" viewBox="0 0 27 25" fill="none" xmlns="http://www.w3.org/2000/svg">
<g clip-path="url(#clip0_11058_450)">
<path fill-rule="evenodd" clip-rule="evenodd" d="M20.0702 0C21.4427 0 22.5565 1.14469 22.5565 2.55266V8.39057C22.5565 9.79853 21.4427 10.9432 20.0702 10.9432C18.6977 10.9432 17.584 9.79853 17.584 8.39057V2.55266C17.584 1.14469 18.6977 0 20.0702 0Z" fill="url(#paint0_radial_11058_450)"/>
<path fill-rule="evenodd" clip-rule="evenodd" d="M1.59766 6.57054C1.59766 5.16257 2.71141 4.01788 4.08391 4.01788H9.76516C11.1377 4.01788 12.2514 5.16257 12.2514 6.57054C12.2514 7.97851 11.1377 9.12319 9.76516 9.12319H4.08391C2.71141 9.12319 1.59766 7.97851 1.59766 6.57054Z" fill="url(#paint1_linear_11058_450)"/>
<path fill-rule="evenodd" clip-rule="evenodd" d="M4.46611 15.7852C3.64486 14.6634 2.09236 14.446 0.989855 15.293C-0.112645 16.1401 -0.326395 17.7427 0.494855 18.8644C0.494855 18.8644 0.506105 18.8873 0.517355 18.8988C0.528605 18.9217 0.551105 18.9446 0.573605 18.9675C0.618605 19.0247 0.674855 19.1048 0.753605 19.1964C0.911105 19.3796 1.12486 19.6314 1.40611 19.9176C1.96861 20.4899 2.77861 21.2454 3.85861 21.9894C6.01861 23.489 9.24736 24.9771 13.4886 24.9771C17.7299 24.9771 20.9586 23.489 23.1186 21.9894C24.1986 21.2454 25.0086 20.4899 25.5711 19.9176C25.8524 19.6314 26.0661 19.3796 26.2236 19.1964C26.3024 19.1048 26.3586 19.0247 26.4036 18.9675C26.4261 18.9331 26.4711 18.8759 26.4936 18.853C26.4936 18.853 26.4936 18.853 26.4936 18.8644V18.853C27.3149 17.7198 27.0899 16.1172 25.9986 15.2701C24.9074 14.4231 23.3549 14.652 22.5224 15.7623C22.5111 15.7738 22.4886 15.8081 22.4436 15.8539C22.3649 15.9455 22.2299 16.1057 22.0499 16.2889C21.6786 16.6666 21.1049 17.1932 20.3399 17.7312C18.8211 18.7843 16.5374 19.8489 13.4886 19.8489C10.4399 19.8489 8.16736 18.7843 6.63736 17.7312C5.87236 17.2047 5.29861 16.6781 4.92736 16.2889C4.74736 16.0943 4.61236 15.9455 4.53361 15.8539C4.48861 15.8081 4.46611 15.7738 4.45486 15.7623L4.46611 15.7852Z" fill="url(#paint2_linear_11058_450)"/>
</g>
<defs>
<radialGradient id="paint0_radial_11058_450" cx="0" cy="0" r="1" gradientUnits="userSpaceOnUse" gradientTransform="translate(11.8619 11.6755) rotate(-9.94777) scale(11.9603 14.7992)">
<stop offset="0.5" stop-color="#FF291F"/>
<stop offset="0.88" stop-color="#FF5543"/>
</radialGradient>
<linearGradient id="paint1_linear_11058_450" x1="2.85097" y1="8.02916" x2="14.1649" y2="2.73604" gradientUnits="userSpaceOnUse">
<stop stop-color="#A112FF"/>
<stop offset="0.21" stop-color="#A213FB"/>
<stop offset="0.36" stop-color="#A716F2"/>
<stop offset="0.5" stop-color="#AF1CE2"/>
<stop offset="0.62" stop-color="#BA24CB"/>
<stop offset="0.74" stop-color="#C92FAD"/>
<stop offset="0.85" stop-color="#DB3C89"/>
<stop offset="0.96" stop-color="#F14B5F"/>
<stop offset="1" stop-color="#FA524E"/>
</linearGradient>
<linearGradient id="paint2_linear_11058_450" x1="0.47454" y1="20.9455" x2="27.4738" y2="20.7418" gradientUnits="userSpaceOnUse">
<stop offset="0.15" stop-color="#00CBEC"/>
<stop offset="0.98" stop-color="#7048E8"/>
</linearGradient>
<clipPath id="clip0_11058_450">
<rect width="27" height="25" fill="white"/>
</clipPath>
</defs>
</svg>
