<svg width="124" height="125" viewBox="0 0 124 125" fill="none" xmlns="http://www.w3.org/2000/svg">
<g filter="url(#filter0_d_2636_5257)">
<path d="M2 60.5C2 40.6783 2 30.7675 5.46908 23.0473C9.36588 14.3752 16.2564 7.42727 24.8568 3.49799C32.5132 0 42.3422 0 62 0C81.6578 0 91.4868 0 99.1432 3.49799C107.744 7.42727 114.634 14.3752 118.531 23.0473C122 30.7675 122 40.6783 122 60.5C122 80.3217 122 90.2325 118.531 97.9527C114.634 106.625 107.744 113.573 99.1432 117.502C91.4868 121 81.6578 121 62 121C42.3422 121 32.5132 121 24.8568 117.502C16.2564 113.573 9.36588 106.625 5.46908 97.9527C2 90.2325 2 80.3217 2 60.5Z" fill="white"/>
<path d="M2 60.5C2 40.6783 2 30.7675 5.46908 23.0473C9.36588 14.3752 16.2564 7.42727 24.8568 3.49799C32.5132 0 42.3422 0 62 0C81.6578 0 91.4868 0 99.1432 3.49799C107.744 7.42727 114.634 14.3752 118.531 23.0473C122 30.7675 122 40.6783 122 60.5C122 80.3217 122 90.2325 118.531 97.9527C114.634 106.625 107.744 113.573 99.1432 117.502C91.4868 121 81.6578 121 62 121C42.3422 121 32.5132 121 24.8568 117.502C16.2564 113.573 9.36588 106.625 5.46908 97.9527C2 90.2325 2 80.3217 2 60.5Z" fill="url(#paint0_radial_2636_5257)" fill-opacity="0.2"/>
</g>
<g filter="url(#filter1_d_2636_5257)">
<path fill-rule="evenodd" clip-rule="evenodd" d="M39.193 116.943C44.9012 117.368 52.1176 117.37 62 117.37C71.8824 117.37 79.0988 117.368 84.807 116.943C90.479 116.52 94.3758 115.695 97.6575 114.196C105.462 110.63 111.715 104.325 115.252 96.4546C116.739 93.1456 117.557 89.2163 117.976 83.497C118.398 77.7413 118.4 70.4647 118.4 60.5C118.4 50.5353 118.398 43.2587 117.976 37.503C117.557 31.7837 116.739 27.8544 115.252 24.5454C111.715 16.6755 105.462 10.3702 97.6575 6.80443C94.3758 5.30513 90.479 4.47978 84.807 4.05739C79.0988 3.6323 71.8824 3.63 62 3.63C52.1176 3.63 44.9012 3.6323 39.193 4.05739C33.521 4.47978 29.6242 5.30513 26.3426 6.80443C18.5377 10.3702 12.2845 16.6755 8.74819 24.5454C7.26129 27.8544 6.44276 31.7837 6.02386 37.503C5.60229 43.2587 5.6 50.5353 5.6 60.5C5.6 70.4647 5.60229 77.7413 6.02386 83.497C6.44276 89.2163 7.26129 93.1456 8.74819 96.4546C12.2845 104.325 18.5377 110.63 26.3426 114.196C29.6242 115.695 33.521 116.52 39.193 116.943ZM5.46908 23.0473C2 30.7675 2 40.6783 2 60.5C2 80.3217 2 90.2325 5.46908 97.9527C9.36588 106.625 16.2564 113.573 24.8568 117.502C32.5132 121 42.3422 121 62 121C81.6578 121 91.4868 121 99.1432 117.502C107.744 113.573 114.634 106.625 118.531 97.9527C122 90.2325 122 80.3217 122 60.5C122 40.6783 122 30.7675 118.531 23.0473C114.634 14.3752 107.744 7.42727 99.1432 3.49799C91.4868 0 81.6578 0 62 0C42.3422 0 32.5132 0 24.8568 3.49799C16.2564 7.42727 9.36588 14.3752 5.46908 23.0473Z" fill="black" fill-opacity="0.05" shape-rendering="crispEdges"/>
</g>
<g clip-path="url(#clip0_2636_5257)">
<path fill-rule="evenodd" clip-rule="evenodd" d="M78.968 31.46C82.262 31.46 84.935 34.2302 84.935 37.6374V51.7652C84.935 55.1725 82.262 57.9426 78.968 57.9426C75.674 57.9426 73.001 55.1725 73.001 51.7652V37.6374C73.001 34.2302 75.674 31.46 78.968 31.46Z" fill="url(#paint1_radial_2636_5257)"/>
<path fill-rule="evenodd" clip-rule="evenodd" d="M34.6338 47.3607C34.6338 43.9534 37.3068 41.1832 40.6008 41.1832H54.2358C57.5298 41.1832 60.2028 43.9534 60.2028 47.3607C60.2028 50.7679 57.5298 53.5381 54.2358 53.5381H40.6008C37.3068 53.5381 34.6338 50.7679 34.6338 47.3607Z" fill="url(#paint2_linear_2636_5257)"/>
<path fill-rule="evenodd" clip-rule="evenodd" d="M41.5188 69.6604C39.5478 66.9456 35.8218 66.4193 33.1758 68.4692C30.5298 70.5191 30.0168 74.3973 31.9878 77.112C31.9878 77.112 32.0148 77.1674 32.0418 77.1951C32.0688 77.2506 32.1228 77.306 32.1768 77.3614C32.2848 77.4999 32.4198 77.6938 32.6088 77.9154C32.9868 78.3586 33.4998 78.968 34.1748 79.6606C35.5248 81.0457 37.4688 82.8739 40.0608 84.6745C45.2449 88.3034 52.9939 91.9046 63.1729 91.9046C73.3519 91.9046 81.1009 88.3034 86.2849 84.6745C88.8769 82.8739 90.8209 81.0457 92.1709 79.6606C92.8459 78.968 93.3589 78.3586 93.7369 77.9154C93.9259 77.6938 94.0609 77.4999 94.1689 77.3614C94.2229 77.2783 94.3309 77.1397 94.3849 77.0843C94.3849 77.0843 94.3849 77.0843 94.3849 77.112V77.0843C96.3559 74.3419 95.8159 70.4637 93.1969 68.4138C90.5779 66.3639 86.8519 66.9179 84.8539 69.6049C84.8269 69.6327 84.7729 69.7158 84.6649 69.8266C84.4759 70.0482 84.1519 70.436 83.7199 70.8792C82.8289 71.7934 81.4519 73.0676 79.6159 74.3696C75.9709 76.9181 70.4899 79.4944 63.1729 79.4944C55.8559 79.4944 50.4019 76.9181 46.7299 74.3696C44.8938 73.0953 43.5168 71.8211 42.6258 70.8792C42.1938 70.4083 41.8698 70.0482 41.6808 69.8266C41.5728 69.7158 41.5188 69.6327 41.4918 69.6049L41.5188 69.6604Z" fill="url(#paint3_linear_2636_5257)"/>
</g>
<defs>
<filter id="filter0_d_2636_5257" x="0" y="0" width="124" height="125" filterUnits="userSpaceOnUse" color-interpolation-filters="sRGB">
<feFlood flood-opacity="0" result="BackgroundImageFix"/>
<feColorMatrix in="SourceAlpha" type="matrix" values="0 0 0 0 0 0 0 0 0 0 0 0 0 0 0 0 0 0 127 0" result="hardAlpha"/>
<feOffset dy="2"/>
<feGaussianBlur stdDeviation="1"/>
<feComposite in2="hardAlpha" operator="out"/>
<feColorMatrix type="matrix" values="0 0 0 0 0 0 0 0 0 0 0 0 0 0 0 0 0 0 0.05 0"/>
<feBlend mode="normal" in2="BackgroundImageFix" result="effect1_dropShadow_2636_5257"/>
<feBlend mode="normal" in="SourceGraphic" in2="effect1_dropShadow_2636_5257" result="shape"/>
</filter>
<filter id="filter1_d_2636_5257" x="0" y="0" width="124" height="125" filterUnits="userSpaceOnUse" color-interpolation-filters="sRGB">
<feFlood flood-opacity="0" result="BackgroundImageFix"/>
<feColorMatrix in="SourceAlpha" type="matrix" values="0 0 0 0 0 0 0 0 0 0 0 0 0 0 0 0 0 0 127 0" result="hardAlpha"/>
<feOffset dy="2"/>
<feGaussianBlur stdDeviation="1"/>
<feComposite in2="hardAlpha" operator="out"/>
<feColorMatrix type="matrix" values="0 0 0 0 0 0 0 0 0 0 0 0 0 0 0 0 0 0 0.05 0"/>
<feBlend mode="normal" in2="BackgroundImageFix" result="effect1_dropShadow_2636_5257"/>
<feBlend mode="normal" in="SourceGraphic" in2="effect1_dropShadow_2636_5257" result="shape"/>
</filter>
<radialGradient id="paint0_radial_2636_5257" cx="0" cy="0" r="1" gradientUnits="userSpaceOnUse" gradientTransform="translate(48.8466 -89.7161) rotate(77.1773) scale(117.354 116.48)">
<stop stop-color="#00DBFF"/>
<stop offset="1" stop-color="#00DBFF" stop-opacity="0"/>
</radialGradient>
<radialGradient id="paint1_radial_2636_5257" cx="0" cy="0" r="1" gradientUnits="userSpaceOnUse" gradientTransform="translate(59.2679 59.7146) rotate(-10.029) scale(28.712 35.8052)">
<stop offset="0.5" stop-color="#FF291F"/>
<stop offset="0.88" stop-color="#FF5543"/>
</radialGradient>
<linearGradient id="paint2_linear_2636_5257" x1="37.6417" y1="50.8905" x2="64.8757" y2="38.2547" gradientUnits="userSpaceOnUse">
<stop stop-color="#A112FF"/>
<stop offset="0.21" stop-color="#A213FB"/>
<stop offset="0.36" stop-color="#A716F2"/>
<stop offset="0.5" stop-color="#AF1CE2"/>
<stop offset="0.62" stop-color="#BA24CB"/>
<stop offset="0.74" stop-color="#C92FAD"/>
<stop offset="0.85" stop-color="#DB3C89"/>
<stop offset="0.96" stop-color="#F14B5F"/>
<stop offset="1" stop-color="#FA524E"/>
</linearGradient>
<linearGradient id="paint3_linear_2636_5257" x1="31.9391" y1="82.1483" x2="96.7374" y2="81.6633" gradientUnits="userSpaceOnUse">
<stop offset="0.15" stop-color="#00CBEC"/>
<stop offset="0.98" stop-color="#7048E8"/>
</linearGradient>
<clipPath id="clip0_2636_5257">
<rect width="64.8" height="60.5" fill="white" transform="translate(30.7998 31.46)"/>
</clipPath>
</defs>
</svg>
