<svg width="285" height="362" fill="none" xmlns="http://www.w3.org/2000/svg"><mask id="b" style="mask-type:alpha" maskUnits="userSpaceOnUse" x="0" y="0" width="285" height="362"><rect width="284.744" height="361.962" rx="4.107" fill="url(#a)"/></mask><g mask="url(#b)"><path d="M17.35 180.625-164.812-1.536" stroke="url(#c)" stroke-width=".329" stroke-dasharray="2.64 2.64"/><path d="m-35.272-112.354 346.269 346.269" stroke="url(#d)" stroke-width=".329" stroke-dasharray="2.64 2.64"/><rect x="265.285" y="116.051" width="173.998" height="173.998" rx=".33" transform="rotate(135 265.285 116.051)" stroke="url(#e)" stroke-width=".66" stroke-linejoin="round"/><g filter="url(#f)"><rect x="265.285" y="255.791" width="173.998" height="173.998" rx=".33" transform="rotate(135 265.285 255.791)" stroke="url(#g)" stroke-width=".66" stroke-linejoin="round"/></g><rect opacity=".4" x="265.285" y="255.791" width="173.998" height="173.998" rx=".33" transform="rotate(135 265.285 255.791)" stroke="url(#h)" stroke-width=".66" stroke-linejoin="round"/><g filter="url(#i)"><rect x="265.752" y="185.27" width="174.658" height="174.658" rx=".66" transform="rotate(135 265.752 185.27)" fill="#7010BE"/><mask id="k" style="mask-type:alpha" maskUnits="userSpaceOnUse" x="19" y="62" width="247" height="247"><mask id="j" fill="#fff"><rect x="265.752" y="185.27" width="174.658" height="174.658" rx=".66" transform="rotate(135 265.752 185.27)"/></mask><rect x="265.752" y="185.27" width="174.658" height="174.658" rx=".66" transform="rotate(135 265.752 185.27)" fill="#D9D9D9" stroke="#A112FF" stroke-width="2" stroke-linejoin="round" mask="url(#j)"/></mask><g mask="url(#k)" stroke="#A112FF"><path transform="matrix(.42013 .87064 -.21557 -.86448 -28.03 39.648)" d="M0-.5h371.144"/><path transform="matrix(.42013 .87064 -.21557 -.86448 -21.662 38.549)" d="M0-.5h371.144"/><path transform="matrix(.42013 .87064 -.21557 -.86448 -15.3 37.453)" d="M0-.5h371.144"/><path transform="matrix(.42013 .87064 -.21557 -.86448 -8.938 36.361)" d="M0-.5h371.144"/><path transform="matrix(.42013 .87064 -.21557 -.86448 -2.57 35.268)" d="M0-.5h371.144"/><path transform="matrix(.42013 .87064 -.21557 -.86448 3.793 34.172)" d="M0-.5h371.144"/><path transform="matrix(.42013 .87064 -.21557 -.86448 10.158 33.072)" d="M0-.5h371.144"/><path transform="matrix(.42013 .87064 -.21557 -.86448 16.521 31.979)" d="M0-.5h371.144"/><path transform="matrix(.42013 .87064 -.21557 -.86448 22.885 30.885)" d="M0-.5h371.144"/><path transform="matrix(.42013 .87064 -.21557 -.86448 29.25 29.791)" d="M0-.5h371.144"/><path transform="matrix(.42013 .87064 -.21557 -.86448 35.613 28.693)" d="M0-.5h371.144"/><path transform="matrix(.42013 .87064 -.21557 -.86448 41.977 27.596)" d="M0-.5h371.144"/><path transform="matrix(.42013 .87064 -.21557 -.86448 48.34 26.504)" d="M0-.5h371.144"/><path transform="matrix(.42013 .87064 -.21557 -.86448 54.707 25.41)" d="M0-.5h371.144"/><path transform="matrix(.42013 .87064 -.21557 -.86448 61.068 24.313)" d="M0-.5h371.144"/><path transform="matrix(.42013 .87064 -.21557 -.86448 67.434 23.217)" d="M0-.5h371.144"/><path transform="matrix(.42013 .87064 -.21557 -.86448 73.799 22.121)" d="M0-.5h371.144"/><path transform="matrix(.42013 .87064 -.21557 -.86448 80.162 21.027)" d="M0-.5h371.144"/><path transform="matrix(.42013 .87064 -.21557 -.86448 86.523 19.932)" d="M0-.5h371.144"/><path transform="matrix(.42013 .87064 -.21557 -.86448 92.89 18.836)" d="M0-.5h371.144"/><path transform="matrix(.42013 .87064 -.21557 -.86448 99.256 17.742)" d="M0-.5h371.144"/><path transform="matrix(.42013 .87064 -.21557 -.86448 105.619 16.648)" d="M0-.5h371.144"/><path transform="matrix(.42013 .87064 -.21557 -.86448 111.982 15.549)" d="M0-.5h371.144"/><path transform="matrix(.42013 .87064 -.21557 -.86448 118.346 14.455)" d="M0-.5h371.144"/><path transform="matrix(.42013 .87064 -.21557 -.86448 124.709 13.36)" d="M0-.5h371.144"/><path transform="matrix(.42013 .87064 -.21557 -.86448 131.078 12.266)" d="M0-.5h371.144"/><path transform="matrix(.42013 .87064 -.21557 -.86448 137.439 11.166)" d="M0-.5h371.144"/><path transform="matrix(.42013 .87064 -.21557 -.86448 143.803 10.074)" d="M0-.5h371.144"/><path transform="matrix(.42013 .87064 -.21557 -.86448 150.168 8.979)" d="M0-.5h371.144"/><path transform="matrix(.42013 .87064 -.21557 -.86448 156.531 7.883)" d="M0-.5h371.144"/><path transform="matrix(.42013 .87064 -.21557 -.86448 162.893 6.79)" d="M0-.5h371.144"/><path transform="matrix(.42013 .87064 -.21557 -.86448 169.256 5.691)" d="M0-.5h371.144"/><path transform="matrix(.42013 .87064 -.21557 -.86448 175.621 4.598)" d="M0-.5h371.144"/><path transform="matrix(.42013 .87064 -.21557 -.86448 181.988 3.498)" d="M0-.5h371.144"/><path transform="matrix(.42013 .87064 -.21557 -.86448 188.352 2.408)" d="M0-.5h371.144"/><path transform="matrix(.42013 .87064 -.21557 -.86448 194.715 1.309)" d="M0-.5h371.144"/><path transform="matrix(.42013 .87064 -.21557 -.86448 201.078 .215)" d="M0-.5h371.144"/><path transform="matrix(.42013 .87064 -.21557 -.86448 207.441 -.88)" d="M0-.5h371.144"/><path transform="matrix(.42013 .87064 -.21557 -.86448 213.809 -1.979)" d="M0-.5h371.144"/><path transform="matrix(.42013 .87064 -.21557 -.86448 220.172 -3.072)" d="M0-.5h371.144"/><path transform="matrix(.42013 .87064 -.21557 -.86448 226.535 -4.168)" d="M0-.5h371.144"/><path transform="matrix(.42013 .87064 -.21557 -.86448 232.9 -5.262)" d="M0-.5h371.144"/><path transform="matrix(.42013 .87064 -.21557 -.86448 -34.389 40.742)" d="M0-.5h371.144"/><path transform="matrix(.42013 .87064 -.21557 -.86448 -40.756 41.838)" d="M0-.5h371.144"/><path transform="matrix(.42013 .87064 -.21557 -.86448 -47.123 42.935)" d="M0-.5h371.144"/><path transform="matrix(.42013 .87064 -.21557 -.86448 -53.484 44.03)" d="M0-.5h371.144"/><path transform="matrix(.42013 .87064 -.21557 -.86448 -59.848 45.125)" d="M0-.5h371.144"/><path transform="matrix(.42013 .87064 -.21557 -.86448 -66.209 46.219)" d="M0-.5h371.144"/><path transform="matrix(.42013 .87064 -.21557 -.86448 -72.576 47.318)" d="M0-.5h371.144"/><path transform="matrix(.42013 .87064 -.21557 -.86448 -78.941 48.41)" d="M0-.5h371.144"/><path transform="matrix(.42013 .87064 -.21557 -.86448 -85.303 49.506)" d="M0-.5h371.144"/><path transform="matrix(.42013 .87064 -.21557 -.86448 -91.664 50.6)" d="M0-.5h371.144"/><path transform="matrix(.42013 .87064 -.21557 -.86448 -98.027 51.7)" d="M0-.5h371.144"/><path transform="matrix(.42013 .87064 -.21557 -.86448 -104.395 52.795)" d="M0-.5h371.144"/></g><rect x="265.285" y="185.27" width="173.998" height="173.998" rx=".33" transform="rotate(135 265.285 185.27)" stroke="#A112FF" stroke-width=".66" stroke-linejoin="round"/></g><path d="M328.668 492.939 146.506 310.778" stroke="url(#l)" stroke-width=".329" stroke-dasharray="2.64 2.64"/><g filter="url(#m)"><rect x="265.285" y="116.049" width="173.998" height="173.998" rx=".33" transform="rotate(135 265.285 116.049)" stroke="url(#n)" stroke-width=".66" stroke-linejoin="round"/></g></g><defs><linearGradient id="a" x1="284.744" y1="160.168" x2="0" y2="160.168" gradientUnits="userSpaceOnUse"><stop stop-color="#270741"/><stop offset="1" stop-color="#340957"/></linearGradient><linearGradient id="c" x1="16.852" y1="181.123" x2="-203.019" y2="92.302" gradientUnits="userSpaceOnUse"><stop stop-color="#A112FF"/><stop offset="1" stop-color="#FF5543"/></linearGradient><linearGradient id="d" x1="-35.77" y1="-111.855" x2="4.705" y2="267.079" gradientUnits="userSpaceOnUse"><stop stop-color="#00CBEC"/><stop offset="1" stop-color="#A112FF"/></linearGradient><linearGradient id="e" x1="353.081" y1="116.051" x2="353.081" y2="290.709" gradientUnits="userSpaceOnUse"><stop stop-color="#A112FF"/><stop offset="1" stop-color="#129BFF"/></linearGradient><linearGradient id="g" x1="353.081" y1="255.791" x2="353.081" y2="430.449" gradientUnits="userSpaceOnUse"><stop stop-color="#A112FF"/><stop offset="1" stop-color="#129BFF"/></linearGradient><linearGradient id="h" x1="353.081" y1="255.791" x2="353.081" y2="430.449" gradientUnits="userSpaceOnUse"><stop stop-color="#A112FF"/><stop offset="1" stop-color="#129BFF"/></linearGradient><linearGradient id="l" x1="329.166" y1="492.441" x2="240.345" y2="272.571" gradientUnits="userSpaceOnUse"><stop stop-color="#00CBEC"/><stop offset="1" stop-color="#A112FF"/></linearGradient><linearGradient id="n" x1="353.081" y1="116.049" x2="353.081" y2="290.707" gradientUnits="userSpaceOnUse"><stop stop-color="#A112FF"/><stop offset="1" stop-color="#129BFF"/></linearGradient><filter id="f" x="16.386" y="129.927" width="251.728" height="251.728" filterUnits="userSpaceOnUse" color-interpolation-filters="sRGB"><feFlood flood-opacity="0" result="BackgroundImageFix"/><feBlend in="SourceGraphic" in2="BackgroundImageFix" result="shape"/><feGaussianBlur stdDeviation="1.318" result="effect1_foregroundBlur_9465_40244"/></filter><filter id="i" x="-6.015" y="53.476" width="296.53" height="296.53" filterUnits="userSpaceOnUse" color-interpolation-filters="sRGB"><feFlood flood-opacity="0" result="BackgroundImageFix"/><feColorMatrix in="SourceAlpha" values="0 0 0 0 0 0 0 0 0 0 0 0 0 0 0 0 0 0 127 0" result="hardAlpha"/><feMorphology radius="7.906" in="SourceAlpha" result="effect1_dropShadow_9465_40244"/><feOffset dy="16.471"/><feGaussianBlur stdDeviation="16.471"/><feColorMatrix values="0 0 0 0 0 0 0 0 0 0 0 0 0 0 0 0 0 0 0.25 0"/><feBlend in2="BackgroundImageFix" result="effect1_dropShadow_9465_40244"/><feBlend in="SourceGraphic" in2="effect1_dropShadow_9465_40244" result="shape"/></filter><filter id="m" x="-6.015" y="-15.745" width="296.53" height="296.53" filterUnits="userSpaceOnUse" color-interpolation-filters="sRGB"><feFlood flood-opacity="0" result="BackgroundImageFix"/><feColorMatrix in="SourceAlpha" values="0 0 0 0 0 0 0 0 0 0 0 0 0 0 0 0 0 0 127 0" result="hardAlpha"/><feMorphology radius="7.906" in="SourceAlpha" result="effect1_dropShadow_9465_40244"/><feOffset dy="16.471"/><feGaussianBlur stdDeviation="16.471"/><feColorMatrix values="0 0 0 0 0 0 0 0 0 0 0 0 0 0 0 0 0 0 0.25 0"/><feBlend in2="BackgroundImageFix" result="effect1_dropShadow_9465_40244"/><feBlend in="SourceGraphic" in2="effect1_dropShadow_9465_40244" result="shape"/></filter></defs></svg>