<svg width="131" height="48" viewBox="0 0 131 48" fill="none" xmlns="http://www.w3.org/2000/svg">
<path d="M130.325 15.7466L129.947 20.3063H128.098C125.146 20.3063 123.612 22.6895 123.612 24.9735V35.2716H118.379V15.7466H123.335L123.448 18.1836C124.488 16.5125 126.308 15.7466 128.551 15.7466H130.325ZM94.0484 35.2715H88.8111V24.9497C88.8111 22.788 88.6257 20.0674 85.6066 20.0674C82.699 20.0674 81.5406 22.1805 81.5406 24.6412V35.2715H76.3052V15.7465H81.1592L81.2701 18.2426C82.3105 16.5714 84.2482 15.2702 87.1065 15.2702C92.383 15.2702 94.0484 19.0639 94.0484 23.012V35.2715ZM74.0216 30.7105L73.6554 35.1531C72.3997 35.4923 71.2847 35.614 69.9357 35.614C65.0012 35.614 63.57 33.3354 63.57 28.7557V10.2406H68.8066V15.7469H74.0175L73.6554 20.3059H68.8066V28.3591C68.8066 30.197 69.3072 31.1897 71.1791 31.1897C71.993 31.1897 72.8984 31.091 74.0216 30.7105ZM61.8506 15.7466L61.4451 20.3063H60.0221C57.0757 20.3063 55.6105 22.6865 55.6105 24.9735V35.2716H50.3733V15.7466H55.3317L55.435 18.1836C56.4807 16.5125 58.3004 15.7466 60.5473 15.7466H61.8506ZM26.7413 33.1084C23.1893 35.0218 19.6415 36.1257 14.9553 35.9886C6.26765 35.7215 0 30.289 0 21.113C0 11.9772 6.3281 6.13996 14.9594 6.00286C19.3346 5.93549 23.2498 7.05354 26.3099 9.77302L22.6236 13.5284C20.73 11.9027 17.9439 10.9525 14.6144 11.1044C9.18231 11.3591 5.90911 15.3343 5.83693 20.7998C5.76593 26.7216 9.37184 30.8025 15.0087 30.9515C17.661 31.0182 19.5611 30.6595 21.2053 29.9161V23.8632H15.3467L15.7422 18.8988H26.7413V33.1084ZM116.041 27.3646H101.683C102.092 29.8595 104.04 31.3605 106.465 31.4285C108.823 31.4929 110.142 30.7755 111.867 29.0169L115.284 31.6406C112.855 34.6526 109.941 35.7488 106.622 35.7488C100.783 35.7488 96.4091 31.6376 96.4091 25.5085C96.4091 19.3858 100.761 15.27 106.404 15.27C112.622 15.27 116.041 19.0638 116.041 25.7981V27.3646ZM110.795 23.2824C110.634 20.8159 108.799 19.2564 106.271 19.3557C103.728 19.4526 102.034 21.1208 101.683 23.2824H110.795ZM47.0765 22.486V35.2714H42.4595L42.3451 33.3462C40.9285 35.113 38.6288 35.7489 36.2611 35.7489C32.6957 35.7489 29.3268 33.9785 29.2564 29.8549C29.1502 23.3736 36.4999 22.9132 41.1157 22.9132H42.0382V22.6568C42.0382 20.5135 40.6298 19.3558 37.9781 19.3558C36.0745 19.3558 34.1955 20.1246 32.806 21.4365L29.7845 18.3453C32.5278 16.1057 35.3821 15.2701 38.4229 15.2701C44.4288 15.2701 47.0765 18.0652 47.0765 22.486ZM42.0382 26.7567H41.3099C38.8307 26.762 34.476 26.8849 34.4925 29.4956C34.5159 33.1736 42.0382 32.0047 42.0382 27.5692V26.7567ZM126.24 33.0002C126.24 31.7575 127.171 30.8209 128.365 30.8209C129.545 30.8209 130.478 31.7575 130.478 33.0002C130.478 34.2648 129.545 35.1985 128.365 35.1985C127.171 35.1985 126.24 34.2648 126.24 33.0002ZM128.365 35.6352C129.787 35.6352 131 34.5231 131 33.0002C131 31.4928 129.787 30.383 128.365 30.383C126.931 30.383 125.716 31.4928 125.716 33.0002C125.716 34.5231 126.931 35.6352 128.365 35.6352ZM127.813 33.2106H128.338L129.13 34.5231H129.642L128.787 33.1893C129.228 33.135 129.566 32.8962 129.566 32.3543C129.566 31.7575 129.214 31.4927 128.503 31.4927H127.359V34.5231H127.813V33.2106ZM127.813 32.82V31.8834H128.433C128.751 31.8834 129.089 31.9525 129.089 32.3277C129.089 32.7928 128.744 32.82 128.359 32.82H127.813Z" fill="#182954"/>
</svg>
