<svg width="214" height="43" viewBox="0 0 214 43" fill="none" xmlns="http://www.w3.org/2000/svg">
<g clip-path="url(#clip0_3984_5825)">
<mask id="mask0_3984_5825" style="mask-type:luminance" maskUnits="userSpaceOnUse" x="0" y="0" width="214" height="43">
<path d="M214 0.5H0V42.5H214V0.5Z" fill="white"/>
</mask>
<g mask="url(#mask0_3984_5825)">
<path fill-rule="evenodd" clip-rule="evenodd" d="M41.0248 21.4508C41.0248 9.88012 31.8506 0.5 20.5339 0.5C9.21718 0.5 0.0429688 9.88012 0.0429688 21.4508C0.0429688 33.022 9.21718 42.4015 20.5339 42.4015C31.8506 42.4015 41.0248 33.022 41.0248 21.4508ZM16.8043 9.81145C16.6432 10.1347 16.6432 10.5579 16.6432 11.4042V16.2011C16.6432 16.4125 16.6432 16.5182 16.6693 16.6159C16.6924 16.7025 16.7304 16.7842 16.7816 16.8571C16.8393 16.9395 16.9196 17.0061 17.08 17.1394L18.2668 18.1251C18.4602 18.2857 18.557 18.3661 18.5921 18.4628C18.6229 18.5476 18.6229 18.6409 18.5921 18.7258C18.557 18.8225 18.4602 18.9028 18.2668 19.0634L17.0801 20.0491C16.9196 20.1824 16.8393 20.2491 16.7816 20.3314C16.7304 20.4044 16.6924 20.486 16.6693 20.5726C16.6432 20.6704 16.6432 20.7761 16.6432 20.9875V31.4972C16.6432 32.3435 16.6432 32.7666 16.8043 33.0898C16.946 33.3744 17.1721 33.6054 17.4502 33.7502C17.7664 33.9151 18.1802 33.9151 19.008 33.9151H22.0597C22.8874 33.9151 23.3013 33.9151 23.6174 33.7502C23.8956 33.6054 24.1216 33.3744 24.2634 33.0898C24.4246 32.7666 24.4246 32.3435 24.4246 31.4972V26.7003C24.4246 26.4888 24.4246 26.3831 24.3984 26.2856C24.3752 26.1989 24.3373 26.1171 24.2861 26.0442C24.2285 25.9619 24.148 25.8953 23.9876 25.762L22.8009 24.7762C22.6075 24.6157 22.5108 24.5353 22.4757 24.4386C22.4448 24.3538 22.4448 24.2605 22.4757 24.1756C22.5108 24.0789 22.6075 23.9986 22.8009 23.8379L23.9876 22.8523C24.148 22.719 24.2285 22.6523 24.2861 22.57C24.3373 22.497 24.3752 22.4153 24.3984 22.3288C24.4246 22.231 24.4246 22.1253 24.4246 21.9139V11.4042C24.4246 10.5579 24.4246 10.1347 24.2634 9.81145C24.1216 9.5271 23.8956 9.29591 23.6174 9.15104C23.3013 8.98632 22.8874 8.98632 22.0597 8.98632H19.008C18.1802 8.98632 17.7664 8.98632 17.4502 9.15104C17.1721 9.29591 16.946 9.5271 16.8043 9.81145Z" fill="white" fill-opacity="0.8"/>
<path d="M57.4753 33.9839C57.6782 33.9839 57.8426 33.8157 57.8426 33.6081V8.99814C57.8426 8.79058 57.6782 8.62231 57.4753 8.62231H53.9279C53.7965 8.62231 53.6761 8.69504 53.6039 8.80733C52.7906 10.0718 51.2785 10.7087 49.2057 10.775C49.0028 10.7815 48.8379 10.949 48.8379 11.1566V14.8374C48.8379 15.045 49.0023 15.2133 49.2055 15.2133H52.0722C52.2753 15.2133 52.4398 15.3815 52.4398 15.5891V33.6081C52.4398 33.8157 52.6045 33.9839 52.8074 33.9839H57.4753Z" fill="white" fill-opacity="0.8"/>
<path d="M71.6357 13.7101C73.5492 13.7101 75.0875 14.7508 75.0875 17.3717C75.0875 19.9156 73.5492 21.0334 71.6357 21.0334H67.4708V13.7101H71.6357ZM71.6357 25.7741C77.2636 25.7741 80.5279 22.2668 80.5279 17.2175C80.5279 12.4381 77.2636 8.93066 71.6357 8.93066H62.4731C62.2699 8.93066 62.1055 9.09893 62.1055 9.30649V33.6081C62.1055 33.8157 62.2699 33.9839 62.4731 33.9839H67.1032C67.3063 33.9839 67.4708 33.8157 67.4708 33.6081V26.15C67.4708 25.9424 67.6355 25.7741 67.8384 25.7741H71.6357Z" fill="white" fill-opacity="0.8"/>
<path d="M88.8497 30.4381C87.2738 30.4381 86.2985 29.7057 86.2985 28.3953C86.2985 27.2388 86.9737 26.4681 88.5871 26.4681H92.977V26.8533C92.977 29.089 91.1011 30.4381 88.8497 30.4381ZM93.3897 33.6081C93.3897 33.8157 93.5544 33.9839 93.7573 33.9839H97.7872C97.9904 33.9839 98.1548 33.8157 98.1548 33.6081V22.7293C98.1548 17.4873 95.2657 14.4424 90.0504 14.4424C86.1781 14.4424 83.2135 16.5579 81.9979 19.959C81.925 20.1632 82.0463 20.3835 82.2527 20.4353L86.3131 21.4534C86.4964 21.4994 86.683 21.3953 86.7543 21.2165C87.371 19.6736 88.3976 18.7593 90.0504 18.7593C91.7763 18.7593 92.977 19.9156 92.977 21.9969V22.2667C92.977 22.8449 92.7895 23.0762 92.1142 23.0762H87.4241C83.5219 23.0762 81.1582 25.196 81.1582 28.5493C81.1582 32.134 83.8595 34.4466 87.6117 34.4466C89.4995 34.4466 91.3134 33.8118 92.5918 32.3983C92.843 32.1205 93.3897 32.2899 93.3897 32.6684V33.6081Z" fill="white" fill-opacity="0.8"/>
<path d="M108.137 30.5921C106.314 30.5921 104.982 29.818 104.325 28.3953C104.246 28.2227 104.061 28.1223 103.879 28.1691L100.085 29.152C99.8894 29.2024 99.7691 29.4047 99.8271 29.6019C100.788 32.8663 104.002 34.4466 107.949 34.4466C113.015 34.4466 115.904 31.7871 115.904 28.164C115.904 21.149 105.06 23.5387 105.06 20.0698C105.06 18.9135 105.998 18.1811 107.687 18.1811C109.367 18.1811 110.492 19.1207 111.032 20.5614C111.098 20.7401 111.278 20.8522 111.461 20.8166L115.335 20.0665C115.542 20.0264 115.674 19.8162 115.615 19.6095C114.726 16.5405 112.229 14.4424 107.724 14.4424C102.771 14.4424 100.145 17.1404 100.145 20.5323C100.145 27.7785 111.026 25.6201 111.026 28.6265C111.026 29.8213 110.051 30.5921 108.137 30.5921Z" fill="white" fill-opacity="0.8"/>
<path d="M124.994 30.5921C123.171 30.5921 121.839 29.818 121.183 28.3953C121.103 28.2227 120.918 28.1223 120.737 28.1691L116.942 29.152C116.747 29.2024 116.627 29.4047 116.685 29.6019C117.645 32.8663 120.859 34.4466 124.807 34.4466C129.872 34.4466 132.761 31.7871 132.761 28.164C132.761 21.149 121.918 23.5387 121.918 20.0698C121.918 18.9135 122.856 18.1811 124.544 18.1811C126.224 18.1811 127.35 19.1207 127.889 20.5614C127.956 20.7401 128.135 20.8522 128.319 20.8166L132.192 20.0665C132.399 20.0264 132.532 19.8162 132.472 19.6095C131.584 16.5405 129.086 14.4424 124.582 14.4424C119.629 14.4424 117.002 17.1404 117.002 20.5323C117.002 27.7785 127.883 25.6201 127.883 28.6265C127.883 29.8213 126.908 30.5921 124.994 30.5921Z" fill="white" fill-opacity="0.8"/>
<path d="M137.505 33.6969C137.545 33.8654 137.692 33.9839 137.862 33.9839H143.698C143.868 33.9839 144.017 33.8639 144.055 33.6943L147.028 20.7635L150.001 33.6943C150.04 33.8639 150.188 33.9839 150.358 33.9839H156.383C156.552 33.9839 156.699 33.8659 156.74 33.6976L161.137 15.3703C161.193 15.1335 161.018 14.9049 160.78 14.9049H156.632C156.458 14.9049 156.308 15.0301 156.272 15.2046L153.332 29.7441L149.688 15.1876C149.646 15.0212 149.499 14.9049 149.332 14.9049H144.692C144.522 14.9049 144.374 15.0244 144.334 15.1938L140.95 29.7441L138.046 15.2055C138.011 15.0306 137.86 14.9049 137.685 14.9049H133.501C133.262 14.9049 133.087 15.133 133.143 15.3696L137.505 33.6969Z" fill="white" fill-opacity="0.8"/>
<path d="M171.049 34.4466C176.677 34.4466 180.542 29.9756 180.542 24.4637C180.542 18.9135 176.677 14.4424 171.049 14.4424C165.459 14.4424 161.557 18.9135 161.557 24.4637C161.557 29.9756 165.459 34.4466 171.049 34.4466ZM171.049 29.86C168.723 29.86 166.922 27.8555 166.922 24.4637C166.922 21.0719 168.723 19.0291 171.049 19.0291C173.375 19.0291 175.214 21.0719 175.214 24.4637C175.214 27.8555 173.375 29.86 171.049 29.86Z" fill="white" fill-opacity="0.8"/>
<path d="M187.942 23.8856C187.942 20.6094 189.556 19.8385 192.032 19.8385C192.507 19.8385 193.028 19.8867 193.523 19.9831C193.732 20.0239 193.94 19.8872 193.977 19.6724L194.762 15.1334C194.79 14.9739 194.715 14.8123 194.57 14.7488C194.118 14.5523 193.56 14.4424 192.895 14.4424C190.381 14.4424 188.43 15.9456 187.492 18.9905V15.2807C187.492 15.0732 187.327 14.9049 187.124 14.9049H183.057C182.854 14.9049 182.689 15.0732 182.689 15.2807V33.6081C182.689 33.8157 182.854 33.9839 183.057 33.9839H187.575C187.778 33.9839 187.942 33.8157 187.942 33.6081V23.8856Z" fill="white" fill-opacity="0.8"/>
<path d="M204.471 29.9756C201.769 29.9756 200.344 27.7013 200.344 24.4637C200.344 21.226 201.769 18.9134 204.471 18.9134C207.172 18.9134 208.598 21.226 208.598 24.4637C208.598 27.7013 207.172 29.9756 204.471 29.9756ZM208.898 33.6081C208.898 33.8157 209.063 33.9839 209.266 33.9839H213.483C213.686 33.9839 213.851 33.8157 213.851 33.6081V9.36252C213.851 9.15496 213.686 8.98669 213.483 8.98669H209.116C208.913 8.98669 208.748 9.15496 208.748 9.36252V17.5644C207.585 15.3289 205.634 14.4424 203.158 14.4424C198.317 14.4424 195.016 18.7593 195.016 24.4637C195.016 30.1682 198.317 34.4466 203.158 34.4466C205.784 34.4466 207.81 33.3672 208.898 30.5921V33.6081Z" fill="white" fill-opacity="0.8"/>
</g>
</g>
<defs>
<clipPath id="clip0_3984_5825">
<rect width="214" height="42" fill="white" transform="translate(0 0.5)"/>
</clipPath>
</defs>
</svg>
