<svg width="209" height="40" viewBox="0 0 209 40" fill="none" xmlns="http://www.w3.org/2000/svg">
<g clip-path="url(#clip0_4786_7826)">
<mask id="mask0_4786_7826" style="mask-type:luminance" maskUnits="userSpaceOnUse" x="0" y="0" width="209" height="41">
<path d="M208.235 0.000244141H0V40.0002H208.235V0.000244141Z" fill="white"/>
</mask>
<g mask="url(#mask0_4786_7826)">
<path fill-rule="evenodd" clip-rule="evenodd" d="M39.8779 19.9534C39.8779 8.93369 30.9508 0.000244141 19.9389 0.000244141C8.9271 0.000244141 0 8.93369 0 19.9534C0 30.9736 8.9271 39.9065 19.9389 39.9065C30.9508 39.9065 39.8779 30.9736 39.8779 19.9534ZM16.3098 8.86829C16.153 9.17615 16.153 9.57919 16.153 10.3852V14.9536C16.153 15.155 16.153 15.2556 16.1784 15.3487C16.2009 15.4312 16.2379 15.509 16.2877 15.5785C16.3439 15.6569 16.422 15.7203 16.5781 15.8473L17.7329 16.786C17.9211 16.9391 18.0152 17.0156 18.0494 17.1077C18.0794 17.1885 18.0794 17.2773 18.0494 17.3581C18.0152 17.4502 17.9211 17.5267 17.7329 17.6797L16.5781 18.6185C16.422 18.7454 16.3439 18.8089 16.2877 18.8873C16.2379 18.9568 16.2009 19.0346 16.1784 19.117C16.153 19.2101 16.153 19.3108 16.153 19.5122V29.5214C16.153 30.3274 16.153 30.7304 16.3098 31.0382C16.4477 31.3092 16.6677 31.5292 16.9383 31.6674C17.246 31.8242 17.6487 31.8242 18.4542 31.8242H21.4236C22.2291 31.8242 22.6318 31.8242 22.9395 31.6674C23.2101 31.5292 23.43 31.3092 23.568 31.0382C23.7248 30.7304 23.7248 30.3274 23.7248 29.5214V24.9529C23.7248 24.7515 23.7248 24.6508 23.6993 24.5579C23.6768 24.4754 23.6399 24.3975 23.5901 24.3281C23.5338 24.2497 23.4557 24.1862 23.2996 24.0593L22.1449 23.1205C21.9567 22.9675 21.8625 22.891 21.8284 22.7989C21.7984 22.7181 21.7984 22.6293 21.8284 22.5485C21.8625 22.4564 21.9567 22.3799 22.1449 22.2268L23.2996 21.2881C23.4557 21.1612 23.5338 21.0977 23.5901 21.0193C23.6399 20.9498 23.6768 20.872 23.6993 20.7895C23.7248 20.6965 23.7248 20.5958 23.7248 20.3944V10.3852C23.7248 9.57919 23.7248 9.17615 23.568 8.86829C23.43 8.59749 23.2101 8.3773 22.9395 8.2393C22.6318 8.08245 22.2291 8.08245 21.4236 8.08245H18.4542C17.6487 8.08245 17.246 8.08245 16.9383 8.2393C16.6677 8.3773 16.4477 8.59749 16.3098 8.86829Z" fill="#270741"/>
<path d="M55.885 31.8898C56.0826 31.8898 56.2427 31.7295 56.2427 31.5318V8.09377C56.2427 7.89609 56.0826 7.73584 55.885 7.73584H52.4333C52.3055 7.73584 52.1884 7.8051 52.1181 7.91205C51.3267 9.1163 49.8553 9.72285 47.8384 9.786C47.641 9.79216 47.4805 9.95175 47.4805 10.1494V13.655C47.4805 13.8527 47.6405 14.0129 47.8382 14.0129H50.6276C50.8251 14.0129 50.9853 14.1732 50.9853 14.3709V31.5318C50.9853 31.7295 51.1454 31.8898 51.343 31.8898H55.885Z" fill="#270741"/>
<path d="M69.6641 12.5812C71.5261 12.5812 73.023 13.5724 73.023 16.0685C73.023 18.4913 71.5261 19.5558 69.6641 19.5558H65.6114V12.5812H69.6641ZM69.6641 24.0708C75.1404 24.0708 78.3168 20.7305 78.3168 15.9217C78.3168 11.3699 75.1404 8.02942 69.6641 8.02942H60.7483C60.5507 8.02942 60.3906 8.18967 60.3906 8.38735V31.5317C60.3906 31.7294 60.5507 31.8897 60.7483 31.8897H65.2537C65.4514 31.8897 65.6114 31.7294 65.6114 31.5317V24.4288C65.6114 24.2311 65.7717 24.0708 65.9691 24.0708H69.6641Z" fill="#270741"/>
<path d="M86.4142 28.5127C84.8808 28.5127 83.9317 27.8152 83.9317 26.5671C83.9317 25.4658 84.5888 24.7317 86.1587 24.7317H90.4304V25.0986C90.4304 27.2278 88.6049 28.5127 86.4142 28.5127ZM90.8319 31.5317C90.8319 31.7294 90.9922 31.8897 91.1896 31.8897H95.111C95.3086 31.8897 95.4687 31.7294 95.4687 31.5317V21.171C95.4687 16.1786 92.6574 13.2787 87.5826 13.2787C83.8146 13.2787 80.9298 15.2935 79.747 18.5326C79.6761 18.7271 79.7941 18.9369 79.995 18.9862L83.9459 19.9558C84.1243 19.9997 84.3057 19.9005 84.3753 19.7302C84.9752 18.2608 85.9743 17.39 87.5826 17.39C89.262 17.39 90.4304 18.4913 90.4304 20.4735V20.7305C90.4304 21.2811 90.2479 21.5013 89.5906 21.5013H85.0268C81.2299 21.5013 78.9297 23.5202 78.9297 26.7138C78.9297 30.1278 81.5585 32.3304 85.2096 32.3304C87.0465 32.3304 88.8116 31.7258 90.0555 30.3796C90.3 30.115 90.8319 30.2763 90.8319 30.6368V31.5317Z" fill="#270741"/>
<path d="M105.182 28.6593C103.408 28.6593 102.112 27.9221 101.473 26.5671C101.396 26.4028 101.216 26.3071 101.039 26.3517L97.3468 27.2878C97.1569 27.3359 97.0398 27.5285 97.0963 27.7163C98.0312 30.8253 101.158 32.3304 105 32.3304C109.929 32.3304 112.74 29.7975 112.74 26.3469C112.74 19.6659 102.189 21.9418 102.189 18.6381C102.189 17.5368 103.101 16.8394 104.744 16.8394C106.379 16.8394 107.474 17.7342 107.999 19.1063C108.064 19.2765 108.238 19.3833 108.417 19.3494L112.186 18.635C112.388 18.5968 112.517 18.3966 112.459 18.1998C111.594 15.2769 109.164 13.2787 104.781 13.2787C99.9613 13.2787 97.4055 15.8483 97.4055 19.0786C97.4055 25.9798 107.993 23.9242 107.993 26.7874C107.993 27.9253 107.044 28.6593 105.182 28.6593Z" fill="#270741"/>
<path d="M121.584 28.6593C119.81 28.6593 118.514 27.9221 117.875 26.5671C117.798 26.4028 117.618 26.3071 117.442 26.3517L113.749 27.2878C113.559 27.3359 113.442 27.5285 113.499 27.7163C114.434 30.8253 117.56 32.3304 121.402 32.3304C126.331 32.3304 129.142 29.7975 129.142 26.3469C129.142 19.6659 118.591 21.9418 118.591 18.6381C118.591 17.5368 119.503 16.8394 121.146 16.8394C122.782 16.8394 123.876 17.7342 124.401 19.1063C124.466 19.2765 124.64 19.3833 124.82 19.3494L128.588 18.635C128.79 18.5968 128.919 18.3966 128.861 18.1998C127.996 15.2769 125.566 13.2787 121.183 13.2787C116.364 13.2787 113.808 15.8483 113.808 19.0786C113.808 25.9798 124.396 23.9242 124.396 26.7874C124.396 27.9253 123.446 28.6593 121.584 28.6593Z" fill="#270741"/>
<path d="M133.758 31.6164C133.797 31.7768 133.94 31.8897 134.105 31.8897H139.784C139.95 31.8897 140.094 31.7755 140.132 31.6139L143.025 19.2989L145.917 31.6139C145.955 31.7755 146.1 31.8897 146.266 31.8897H152.127C152.292 31.8897 152.435 31.7773 152.475 31.6171L156.753 14.1625C156.809 13.9369 156.638 13.7192 156.406 13.7192H152.37C152.201 13.7192 152.055 13.8385 152.02 14.0047L149.158 27.8518L145.613 13.9884C145.572 13.83 145.43 13.7192 145.266 13.7192H140.752C140.586 13.7192 140.442 13.8331 140.404 13.9943L137.11 27.8518L134.284 14.0056C134.25 13.8389 134.104 13.7192 133.934 13.7192H129.862C129.63 13.7192 129.46 13.9364 129.514 14.1618L133.758 31.6164Z" fill="#270741"/>
<path d="M166.399 32.3304C171.875 32.3304 175.636 28.0722 175.636 22.8228C175.636 17.5368 171.875 13.2787 166.399 13.2787C160.959 13.2787 157.162 17.5368 157.162 22.8228C157.162 28.0722 160.959 32.3304 166.399 32.3304ZM166.399 27.9621C164.135 27.9621 162.383 26.0531 162.383 22.8228C162.383 19.5925 164.135 17.647 166.399 17.647C168.663 17.647 170.452 19.5925 170.452 22.8228C170.452 26.0531 168.663 27.9621 166.399 27.9621Z" fill="#270741"/>
<path d="M182.838 22.2722C182.838 19.152 184.408 18.4178 186.818 18.4178C187.279 18.4178 187.787 18.4637 188.268 18.5556C188.472 18.5945 188.674 18.4642 188.71 18.2597L189.474 13.9368C189.501 13.7849 189.428 13.631 189.287 13.5705C188.848 13.3833 188.304 13.2787 187.657 13.2787C185.211 13.2787 183.312 14.7103 182.4 17.6102V14.0771C182.4 13.8794 182.24 13.7192 182.042 13.7192H178.084C177.887 13.7192 177.727 13.8794 177.727 14.0771V31.5317C177.727 31.7294 177.887 31.8897 178.084 31.8897H182.48C182.678 31.8897 182.838 31.7294 182.838 31.5317V22.2722Z" fill="#270741"/>
<path d="M198.921 28.0722C196.292 28.0722 194.905 25.9062 194.905 22.8228C194.905 19.7393 196.292 17.5368 198.921 17.5368C201.55 17.5368 202.937 19.7393 202.937 22.8228C202.937 25.9062 201.55 28.0722 198.921 28.0722ZM203.229 31.5317C203.229 31.7294 203.39 31.8896 203.587 31.8896H207.691C207.889 31.8896 208.049 31.7294 208.049 31.5317V8.44069C208.049 8.24302 207.889 8.08276 207.691 8.08276H203.441C203.243 8.08276 203.083 8.24302 203.083 8.44069V16.252C201.951 14.1229 200.053 13.2786 197.643 13.2786C192.934 13.2786 189.721 17.39 189.721 22.8228C189.721 28.2556 192.934 32.3303 197.643 32.3303C200.199 32.3303 202.171 31.3023 203.229 28.6593V31.5317Z" fill="#270741"/>
</g>
</g>
<defs>
<clipPath id="clip0_4786_7826">
<rect width="208.235" height="40" fill="white" transform="translate(0 0.000244141)"/>
</clipPath>
</defs>
</svg>
