<svg width="206" height="30" viewBox="0 0 206 30" fill="none" xmlns="http://www.w3.org/2000/svg">
<g clip-path="url(#clip0_4786_7861)">
<path d="M29.9501 22.2065V16.8888L29.3243 16.5635L15.0908 24.1045L1.57552 16.9452L1.57841 13.8617L15.0908 20.9402L29.9501 13.1466V7.90956L29.3243 7.58426L15.0908 15.1252L2.13217 8.25904L15.0908 1.43586L25.5546 6.94442L26.3391 6.53309V5.92013L15.0908 0.000244141L0.234375 7.82084V8.59242L15.0908 16.4077L28.6061 9.29409V12.4126L15.0908 19.572L0.860244 12.0336L0.234375 12.3589V17.6738L15.0908 25.4675L28.6061 18.3782V21.478L15.0908 28.6372L0.860244 21.0962L0.234375 21.4215V22.2065L15.0908 30.0002L29.9501 22.2065Z" fill="#270741"/>
<path fill-rule="evenodd" clip-rule="evenodd" d="M58.2225 1.58089V25.6582H54.2452V23.8651C54.2452 23.7334 54.1557 23.6124 54.0201 23.5667C53.8875 23.521 53.7346 23.5587 53.6423 23.6608C52.2579 25.196 50.1583 26.075 47.8884 26.075C45.4916 26.075 43.2766 25.1798 41.6499 23.5532C40.0204 21.9214 39.1205 19.6901 39.1205 17.2731C39.1205 12.3399 42.9709 8.47397 47.8884 8.47397C50.2015 8.47397 52.2983 9.31813 53.6453 10.7887C53.7376 10.8882 53.8903 10.9258 54.0231 10.8801C54.1557 10.8344 54.2452 10.7134 54.2452 10.5817V1.58089H58.2225ZM43.1357 17.2762C43.1357 20.325 45.6161 22.715 48.7829 22.715C51.9497 22.715 54.4301 20.325 54.4301 17.2762C54.4301 14.2276 51.9497 11.8376 48.7829 11.8376C45.6161 11.8376 43.1357 14.2276 43.1357 17.2762Z" fill="#270741"/>
<path fill-rule="evenodd" clip-rule="evenodd" d="M79.4623 8.88827V25.6505H75.5197V23.8305C75.5197 23.6988 75.4302 23.5778 75.2946 23.5321C75.162 23.4864 75.0091 23.524 74.9168 23.6288C73.5381 25.1801 71.4414 26.07 69.1629 26.07C64.2454 26.07 60.395 22.204 60.395 17.2708C60.395 12.3375 64.2454 8.47157 69.1629 8.47157C71.5394 8.47157 73.5814 9.28886 74.9168 10.7755C75.0091 10.8777 75.159 10.9153 75.2946 10.8696C75.4302 10.8239 75.5197 10.7056 75.5197 10.5712V8.88827H79.4623ZM64.413 17.2717C64.413 20.3204 66.8934 22.7104 70.0602 22.7104C73.227 22.7104 75.7074 20.3204 75.7074 17.2717C75.7074 14.223 73.227 11.833 70.0602 11.833C66.8934 11.833 64.413 14.223 64.413 17.2717Z" fill="#270741"/>
<path fill-rule="evenodd" clip-rule="evenodd" d="M113.166 8.88827V25.6505H109.224V23.8305C109.224 23.6988 109.134 23.5778 108.999 23.5321C108.866 23.4864 108.713 23.5267 108.621 23.6288C107.242 25.1801 105.145 26.07 102.867 26.07C97.9494 26.07 94.0989 22.204 94.0989 17.2708C94.0989 12.3375 97.9494 8.47157 102.867 8.47157C105.244 8.47157 107.286 9.28886 108.621 10.7755C108.713 10.8777 108.863 10.9153 108.999 10.8696C109.134 10.8239 109.224 10.7056 109.224 10.5712V8.88827H113.166ZM98.1171 17.2717C98.1171 20.3204 100.597 22.7104 103.764 22.7104C106.931 22.7104 109.412 20.3204 109.412 17.2717C109.412 14.223 106.931 11.833 103.764 11.833C100.597 11.833 98.1171 14.223 98.1171 17.2717Z" fill="#270741"/>
<path fill-rule="evenodd" clip-rule="evenodd" d="M120.509 23.6468C120.469 23.6468 120.429 23.6522 120.391 23.6657C120.258 23.7087 120.169 23.8297 120.172 23.9587V25.6497H116.192L116.2 1.57494H120.178L120.169 10.6779C120.169 10.8123 120.258 10.9333 120.394 10.979C120.527 11.0247 120.679 10.9871 120.772 10.8849C122.156 9.34984 124.256 8.47073 126.526 8.47073C128.922 8.47073 131.138 9.36597 132.764 10.9925C134.397 12.6243 135.294 14.8557 135.294 17.2725C135.294 22.2058 131.443 26.0718 126.526 26.0718C124.213 26.0718 122.116 25.2277 120.769 23.7571C120.703 23.6871 120.61 23.6468 120.509 23.6468ZM125.628 11.833C122.462 11.833 119.981 14.223 119.981 17.2717C119.981 20.3204 122.462 22.7104 125.628 22.7104C128.795 22.7104 131.276 20.3204 131.276 17.2717C131.276 14.223 128.795 11.833 125.628 11.833Z" fill="#270741"/>
<path d="M146.742 12.3206C147.114 12.3206 147.463 12.3502 147.705 12.404V8.60526C147.575 8.57569 147.31 8.54342 147.042 8.54342C144.98 8.54342 143.073 9.52739 142.066 11.1109C141.989 11.2345 141.83 11.2937 141.683 11.256C141.533 11.2184 141.429 11.092 141.429 10.9496V8.89023H137.486V25.6525H141.464V18.2808C141.467 14.6058 143.488 12.3206 146.742 12.3206Z" fill="#270741"/>
<path d="M154.213 8.8894H150.195V25.6517H154.213V8.8894Z" fill="#270741"/>
<path d="M152.157 1.59762C150.813 1.59762 149.721 2.61653 149.721 3.86933C149.721 5.12213 150.813 6.14104 152.157 6.14104C153.502 6.14104 154.594 5.12213 154.594 3.86933C154.591 2.61653 153.499 1.59762 152.157 1.59762Z" fill="#270741"/>
<path d="M166.015 8.47157C160.5 8.47157 156.5 12.1735 156.5 17.2708C156.5 19.7495 157.436 21.9917 159.141 23.5858C160.854 25.1881 163.283 26.07 165.976 26.07C168.206 26.07 169.948 25.6585 173.221 23.4165L170.963 21.1958C169.354 22.1932 167.855 22.6771 166.387 22.6771C163.06 22.6771 160.552 20.3544 160.552 17.2734C160.552 14.1925 163.06 11.8697 166.387 11.8697C167.972 11.8697 169.443 12.3536 170.886 13.351L173.41 11.1223C170.479 8.74579 167.788 8.47157 166.015 8.47157Z" fill="#270741"/>
<path d="M180.213 18.2625C180.277 18.2087 180.36 18.1791 180.444 18.1791H180.464C180.563 18.1872 180.649 18.2302 180.709 18.2974L187.072 25.6502L191.967 25.653L183.735 16.3725C183.622 16.2462 183.631 16.0607 183.754 15.9451L191.322 8.89067H186.471L179.954 14.9934C179.859 15.0848 179.711 15.1117 179.582 15.0632C179.452 15.0122 179.372 14.8965 179.372 14.7702L179.379 1.58089H175.393V25.6557H179.372V19.1255C179.372 19.0368 179.412 18.9507 179.481 18.8915L180.213 18.2625Z" fill="#270741"/>
<path d="M198.453 26.0721C201.714 26.0721 205.017 24.2332 205.017 20.7195C205.017 18.4262 203.478 16.8455 200.31 15.8831L198.145 15.2217C196.687 14.7701 195.982 14.1194 195.982 13.2376C195.982 12.2295 196.954 11.5251 198.344 11.5251C199.667 11.5251 200.845 12.329 201.589 13.7323L204.784 12.13C203.618 9.87443 201.156 8.47646 198.344 8.47646C194.779 8.47646 192.189 10.6111 192.189 13.5522C192.189 15.875 193.68 17.4477 196.745 18.3537L198.953 19.0151C200.516 19.4748 201.153 20.0501 201.153 21.0018C201.153 22.4212 199.739 22.924 198.53 22.924C196.915 22.924 195.492 21.9481 194.788 20.3727L191.565 21.9401C192.631 24.4887 195.263 26.0721 198.453 26.0721Z" fill="#270741"/>
<path d="M90.4854 25.9001C91.74 25.9001 92.8793 25.798 93.5051 25.7038V22.4992C92.9802 22.5637 92.0804 22.6202 91.5094 22.6202C89.8941 22.6202 88.6598 22.3621 88.6598 19.1198V12.2295C88.6598 12.0547 88.8125 11.9122 89.0001 11.9122H92.8735L92.8707 8.88777L88.9971 8.89046C88.8097 8.89046 88.6568 8.74797 88.6568 8.57323V3.71257L84.7026 3.71526L84.7054 8.57323C84.7054 8.74797 84.5527 8.89046 84.3651 8.89046H81.5934L81.5964 11.9149L84.3651 11.9122C84.5527 11.9122 84.7054 12.0547 84.7054 12.2295V20.0367C84.7084 25.9001 88.9048 25.9001 90.4854 25.9001Z" fill="#270741"/>
</g>
<defs>
<clipPath id="clip0_4786_7861">
<rect width="204.783" height="30" fill="white" transform="translate(0.234375 0.000244141)"/>
</clipPath>
</defs>
</svg>
