<svg width="165" height="60" viewBox="0 0 165 60" fill="none" xmlns="http://www.w3.org/2000/svg">
<g clip-path="url(#clip0_4786_7865)">
<path d="M133.143 42.8397V59.7244C132.316 60.0193 128.46 60.0922 126.879 59.8703C126.85 59.8417 126.822 59.8132 126.799 59.7815C126.777 59.7498 126.749 59.7149 126.745 59.68C126.723 59.4042 126.688 59.1284 126.688 58.8558C126.688 43.6862 126.695 28.5166 126.701 13.347C126.701 13.236 126.761 13.125 126.79 13.0236C127.639 12.8017 131.172 12.7414 132.978 12.919C133.336 13.6893 133.101 14.5263 133.143 15.3347C133.184 16.1146 133.152 16.8976 133.152 17.7251C133.998 16.9452 134.736 16.1907 135.551 15.5217C137.54 13.8891 139.79 12.7668 142.344 12.3737C143.846 12.1423 145.379 11.8918 146.884 11.9552C152.198 12.1771 156.811 14.0698 160.36 18.1499C162.457 20.5624 163.737 23.4283 164.2 26.5637C164.71 30.0193 164.599 33.4812 163.446 36.848C162.036 40.9598 159.403 44.0222 155.601 46.1051C153.357 47.3351 150.981 48.0484 148.43 48.3718C143.687 48.9741 139.416 47.9026 135.579 45.1001C134.755 44.5009 134.071 43.7084 133.146 42.8397H133.143ZM145.477 18.004C144.302 18.1213 143.117 18.1657 141.957 18.375C139.102 18.8854 136.862 20.3722 135.202 22.7753C133.596 25.0959 133.231 27.7589 133.209 30.4377C133.196 31.8612 133.38 33.3353 133.83 34.7493C135.025 38.4933 137.404 41.0105 141.21 42.0884C143.805 42.8239 146.453 42.8112 149.064 42.2659C152.423 41.5653 154.945 39.6917 156.453 36.5309C157.163 35.0473 157.419 33.4843 157.638 31.8675C157.898 29.94 157.711 28.0727 157.271 26.2467C156.355 22.4646 153.988 19.9379 150.271 18.7269C148.719 18.2228 147.128 17.9692 145.477 18.0072V18.004Z" fill="#270741"/>
<path d="M80.1595 47.11C77.9415 47.0847 75.9391 47.1417 73.813 47.0657C73.5785 45.4805 73.8067 43.981 73.6451 42.3578C73.2458 42.7414 72.9322 43.0268 72.6343 43.3311C69.9792 46.0226 66.722 47.6046 63.0212 48.0104C58.4269 48.5113 54.0513 47.6585 50.1287 45.0335C48.0217 43.6228 46.3962 41.7745 45.1098 39.6029C42.9775 36.0047 42.2899 32.0768 42.5877 27.9713C42.8159 24.8169 43.7727 21.8591 45.5534 19.2056C47.5369 16.2541 50.2649 14.2315 53.5126 12.8841C55.6862 11.9806 57.9675 11.6192 60.328 11.6287C62.2291 11.635 64.1207 11.6762 65.9584 12.2088C68.6231 12.9792 70.9614 14.3266 72.9544 16.2699C73.1445 16.457 73.3473 16.6282 73.7211 16.9642V0.177778C75.8598 -0.139247 77.9003 0.123884 80.0676 0.000244141C80.1056 0.46944 80.1595 0.843529 80.1595 1.21762C80.169 3.55409 80.1626 5.89055 80.1626 8.22702C80.1626 20.6639 80.1626 33.1007 80.1626 45.5376C80.1626 46.0036 80.1626 46.4697 80.1626 47.11H80.1595ZM73.8289 29.7276C73.813 27.5243 73.3377 25.3241 72.4252 23.4537C71.7757 22.1222 70.8442 20.9492 69.6908 20.0235C67.4317 18.2133 64.7797 17.5729 61.9756 17.4271C60.1537 17.332 58.3414 17.5729 56.6177 18.1657C54.3998 18.9266 52.5082 20.2042 51.244 22.2332C49.9639 24.2875 49.3493 26.5764 49.2732 28.9794C49.2352 30.2348 49.3239 31.5093 49.5077 32.752C49.9734 35.9159 51.4658 38.4965 54.1907 40.2528C56.171 41.5304 58.4238 41.9521 60.7304 42.0694C62.5935 42.1645 64.4375 41.9425 66.2119 41.3529C68.7751 40.5033 70.8283 38.9784 72.1749 36.5848C73.3029 34.5812 73.8447 32.1528 73.8289 29.7276Z" fill="#270741"/>
<path d="M93.2294 48.0199H87.2473C87.184 47.9565 87.1554 47.928 87.1301 47.8963C87.1047 47.8677 87.0731 47.836 87.0635 47.8012C87.0382 47.687 87.0033 47.5697 87.0033 47.4524C87.0002 35.8874 87.0002 24.3223 87.0033 12.7573C87.0033 12.6051 87.0477 12.453 87.0667 12.3452C87.1333 12.2754 87.1554 12.2405 87.1871 12.2184C87.2188 12.1962 87.2568 12.1676 87.2885 12.1676C93.9772 12.1454 100.663 12.1264 107.351 12.1074C107.624 12.1074 107.899 12.1391 108.159 12.155C108.473 13.0394 108.495 16.8691 108.159 18.0389C107.006 18.1721 105.789 18.0833 104.579 18.0992C103.311 18.115 102.044 18.1023 100.78 18.1023H93.4385C93.0995 18.5842 93.2357 19.0724 93.2357 19.5289C93.2262 28.5197 93.2294 37.5105 93.2294 46.5014V48.0199Z" fill="#270741"/>
<path d="M30.4842 29.0492H35.6139C35.804 30.2729 35.8421 31.4712 35.6139 32.6157C35.0341 35.5482 34.0044 38.3031 32.135 40.7093C30.1198 43.2994 27.6009 45.1699 24.5845 46.4411C21.8026 47.6141 18.9034 47.798 15.9726 47.5444C13.9574 47.37 12.0437 46.6821 10.2377 45.7595C8.32074 44.7799 6.6161 43.4991 5.17128 41.8982C3.03256 39.53 1.65745 36.756 0.969887 33.6492C0.646704 32.1909 0.339362 30.7167 0.557986 29.214C0.589671 28.9858 2.79809 28.9763 3.0389 28.9731C3.52367 28.9636 4.01162 28.9731 4.49639 29.0016C4.76888 29.0175 5.6719 28.9509 5.86517 29.1443C6.05845 29.3377 6.01092 30.2444 6.04261 30.517C6.09964 30.9799 6.15667 31.4459 6.22321 31.9056C6.79037 35.8081 8.89423 38.6772 12.218 40.6903C14.1222 41.8443 16.2419 42.3959 18.444 42.2849C21.2196 42.1454 23.7607 41.2705 25.9248 39.4064C27.547 38.0083 28.7637 36.3629 29.5431 34.372C30.1135 32.9169 30.2117 31.3793 30.4081 29.8576C30.4367 29.6262 30.4493 29.3947 30.481 29.046L30.4842 29.0492Z" fill="#270741"/>
<path d="M113.356 12.4181H119.287C119.312 12.9031 119.357 13.3596 119.357 13.813C119.36 23.4822 119.357 33.1515 119.357 42.8175V46.7391C119.357 47.1259 119.357 47.5095 119.357 48.0453C118.289 48.0516 117.354 48.0579 116.416 48.0579C115.469 48.0579 114.522 48.0579 113.432 48.0579C113.403 47.5317 113.359 47.0752 113.359 46.6218C113.356 36.9526 113.359 27.2833 113.359 17.6173V13.6957C113.359 13.3089 113.359 12.9253 113.359 12.4181H113.356Z" fill="#270741"/>
<path d="M21.7297 12.1264C20.5289 10.4589 19.3787 8.86424 18.1652 7.18718C16.9421 8.88643 15.7698 10.5159 14.5943 12.1486H8.04191C8.48233 10.4494 15.9314 1.72486 18.1652 0.263374C19.8064 1.15738 27.6547 10.2021 28.4342 12.1296H21.7297V12.1264Z" fill="#270741"/>
<path d="M116.394 0.0129251C116.838 0.174607 117.322 0.329949 117.795 0.523334C120.057 1.4649 120.82 4.33714 119.075 6.59118C118.834 6.90186 118.539 7.17767 118.232 7.42178C117.116 8.30311 115.906 8.36017 114.721 7.59297C113.238 6.63556 112.345 4.49565 112.839 2.9771C113.273 1.6456 114.097 0.840358 115.323 0.34263C115.649 0.20948 115.998 0.133394 116.394 0.0129251Z" fill="#270741"/>
<path d="M28.6655 17.0657C28.9633 17.0688 29.2612 17.1196 29.5653 17.2273C30.1895 17.4461 30.8169 17.8043 31.308 18.2482C32.1001 18.9646 32.4898 20.0932 32.2966 21.1553C32.1286 22.0715 31.7516 23.0162 31.0038 23.6122C30.519 23.9958 29.9202 24.2019 29.3087 24.2843C28.4722 24.3953 27.5787 24.3509 26.8404 23.9007C25.2372 22.9211 24.6193 20.6575 25.4812 18.99C25.8012 18.375 26.267 17.8582 26.8911 17.538C27.4646 17.2464 28.0571 17.0593 28.6655 17.0657Z" fill="#270741"/>
<path d="M18.2222 16.9801C18.3204 16.9769 18.4187 16.9769 18.52 16.9801C20.757 17.1291 21.9293 19.3451 21.6885 21.374C21.5142 22.8418 20.1011 24.3604 18.1208 24.3414C16.2578 24.3223 14.7781 22.9369 14.5373 20.927C14.3693 19.5353 15.1868 18.3718 16.337 17.6712C16.9358 17.3066 17.5315 17.0054 18.2222 16.9737V16.9801Z" fill="#270741"/>
<path d="M11.2357 20.6892C11.4544 22.5407 9.50891 24.3509 7.70605 24.3636C6.04261 24.3731 4.02112 23.0004 4.04647 20.6861C4.06865 18.6983 5.6212 17.034 7.58565 16.9706C9.52476 16.9071 11.2294 18.6444 11.2357 20.6892Z" fill="#270741"/>
</g>
<defs>
<clipPath id="clip0_4786_7865">
<rect width="164" height="60" fill="white" transform="translate(0.488281 0.000244141)"/>
</clipPath>
</defs>
</svg>
