<svg width="111" height="41" viewBox="0 0 111 41" fill="none" xmlns="http://www.w3.org/2000/svg">
<g clip-path="url(#clip0_3980_15184)">
<path d="M89.7844 29.2737V40.8116C89.2247 41.0131 86.6148 41.0629 85.5447 40.9112C85.5254 40.8917 85.5061 40.8722 85.4911 40.8506C85.4761 40.8289 85.4568 40.8051 85.4546 40.7813C85.4396 40.5928 85.416 40.4043 85.416 40.218C85.416 29.8521 85.4203 19.4862 85.4246 9.12032C85.4246 9.04449 85.4653 8.96867 85.4846 8.89935C86.0594 8.74771 88.4505 8.70655 89.6729 8.82786C89.9152 9.35428 89.7565 9.92619 89.7844 10.4786C89.8123 11.0115 89.7908 11.5466 89.7908 12.112C90.3634 11.5791 90.8631 11.0635 91.4142 10.6064C92.761 9.49076 94.2836 8.72388 96.0121 8.45525C97.0286 8.29711 98.0665 8.12597 99.0851 8.1693C102.681 8.32094 105.804 9.61424 108.206 12.4023C109.625 14.0509 110.492 16.0093 110.805 18.1518C111.15 20.5131 111.075 22.8787 110.295 25.1793C109.34 27.9891 107.558 30.0817 104.985 31.505C103.466 32.3456 101.858 32.833 100.132 33.054C96.9213 33.4656 94.0305 32.7333 91.4335 30.8183C90.8759 30.4089 90.4127 29.8673 89.7865 29.2737H89.7844ZM98.133 12.3027C97.3374 12.3828 96.5353 12.4131 95.7504 12.5561C93.8182 12.9049 92.3021 13.9209 91.1783 15.563C90.0911 17.1487 89.8444 18.9685 89.8294 20.799C89.8208 21.7717 89.9452 22.779 90.2498 23.7452C91.0582 26.3037 92.6688 28.0237 95.2443 28.7603C97.0007 29.2629 98.7935 29.2542 100.561 28.8816C102.834 28.4028 104.541 27.1225 105.562 24.9627C106.042 23.9489 106.216 22.8809 106.364 21.776C106.539 20.4589 106.413 19.1829 106.115 17.9351C105.495 15.3507 103.893 13.6241 101.378 12.7966C100.327 12.4521 99.2503 12.2788 98.133 12.3048V12.3027Z" fill="white" fill-opacity="0.8"/>
<path d="M53.9235 32.1917C52.4224 32.1744 51.067 32.2134 49.6281 32.1614C49.4694 31.0782 49.6238 30.0535 49.5144 28.9444C49.2442 29.2065 49.0319 29.4015 48.8303 29.6094C47.0332 31.4486 44.8287 32.5296 42.3239 32.8069C39.2143 33.1492 36.2527 32.5665 33.5978 30.7727C32.1717 29.8087 31.0716 28.5458 30.2009 27.0618C28.7577 24.603 28.2923 21.9189 28.4939 19.1136C28.6483 16.958 29.2959 14.9369 30.5012 13.1236C31.8436 11.1068 33.6901 9.72466 35.8882 8.80397C37.3593 8.18657 38.9034 7.93961 40.501 7.94611C41.7877 7.95044 43.068 7.9786 44.3118 8.34254C46.1154 8.86896 47.698 9.78965 49.0469 11.1176C49.1756 11.2454 49.3128 11.3624 49.5659 11.592V0.121315C51.0134 -0.0953186 52.3945 0.084487 53.8613 0C53.8871 0.320617 53.9235 0.576244 53.9235 0.831872C53.93 2.42846 53.9257 4.02505 53.9257 5.62163C53.9257 14.1202 53.9257 22.6187 53.9257 31.1172C53.9257 31.4356 53.9257 31.7541 53.9257 32.1917H53.9235ZM49.6388 20.3137C49.6281 18.8081 49.3064 17.3047 48.6888 16.0265C48.2491 15.1167 47.6187 14.3151 46.8381 13.6826C45.309 12.4456 43.5141 12.008 41.6162 11.9083C40.3831 11.8433 39.1564 12.008 37.9898 12.4131C36.4886 12.933 35.2084 13.806 34.3527 15.1925C33.4863 16.5963 33.0703 18.1604 33.0188 19.8024C32.9931 20.6603 33.0531 21.5312 33.1775 22.3804C33.4928 24.5424 34.5028 26.3058 36.3471 27.5059C37.6874 28.379 39.2122 28.6671 40.7734 28.7472C42.0344 28.8122 43.2825 28.6606 44.4834 28.2576C46.2183 27.6771 47.6079 26.6351 48.5194 24.9995C49.2828 23.6304 49.6495 21.9709 49.6388 20.3137Z" fill="white" fill-opacity="0.8"/>
<path d="M62.7693 32.8134H58.7205C58.6776 32.7701 58.6583 32.7506 58.6411 32.7289C58.6239 32.7094 58.6025 32.6878 58.5961 32.6639C58.5789 32.5859 58.5553 32.5058 58.5553 32.4256C58.5532 24.5228 58.5532 16.6201 58.5553 8.71729C58.5553 8.61331 58.5853 8.50932 58.5982 8.43567C58.6432 8.38801 58.6583 8.36418 58.6797 8.34902C58.7011 8.33385 58.7269 8.31435 58.7483 8.31435C63.2754 8.29919 67.8003 8.28619 72.3274 8.27319C72.5118 8.27319 72.6984 8.29486 72.8742 8.30569C73.0865 8.9101 73.1016 11.527 72.8742 12.3264C72.0936 12.4174 71.2701 12.3567 70.4509 12.3676C69.5931 12.3784 68.7353 12.3697 67.8797 12.3697H62.9108C62.6814 12.699 62.7736 13.0326 62.7736 13.3446C62.7671 19.4883 62.7693 25.632 62.7693 31.7757V32.8134Z" fill="white" fill-opacity="0.8"/>
<path d="M20.3018 19.8501H23.7738C23.9025 20.6863 23.9282 21.5052 23.7738 22.2872C23.3813 24.2911 22.6844 26.1736 21.4191 27.8179C20.0552 29.5877 18.3503 30.8659 16.3087 31.7346C14.4259 32.5361 12.4636 32.6618 10.4799 32.4885C9.11604 32.3693 7.82075 31.8992 6.59838 31.2688C5.30095 30.5994 4.1472 29.7242 3.1693 28.6302C1.72176 27.012 0.791039 25.1164 0.325679 22.9934C0.106939 21.9969 -0.101079 20.9896 0.0468927 19.9627C0.0683378 19.8068 1.56306 19.8003 1.72605 19.7981C2.05416 19.7916 2.38441 19.7981 2.71252 19.8176C2.89695 19.8284 3.50814 19.7829 3.63895 19.9151C3.76977 20.0472 3.7376 20.6668 3.75905 20.8531C3.79765 21.1694 3.83625 21.4878 3.88128 21.8019C4.26515 24.4687 5.68911 26.4292 7.9387 27.8049C9.22756 28.5934 10.6622 28.9703 12.1527 28.8945C14.0313 28.7992 15.7512 28.2013 17.2159 26.9275C18.3139 25.9721 19.1374 24.8478 19.6649 23.4874C20.0509 22.493 20.1174 21.4423 20.2504 20.4025C20.2697 20.2444 20.2782 20.0862 20.2997 19.8479L20.3018 19.8501Z" fill="white" fill-opacity="0.8"/>
<path d="M76.3916 8.48547H80.4061C80.4233 8.81692 80.4533 9.12887 80.4533 9.43866C80.4555 16.046 80.4533 22.6533 80.4533 29.2584V31.9382C80.4533 32.2025 80.4533 32.4646 80.4533 32.8307C79.7306 32.835 79.098 32.8394 78.4632 32.8394C77.822 32.8394 77.1808 32.8394 76.4431 32.8394C76.4238 32.4798 76.3937 32.1678 76.3937 31.858C76.3916 25.2507 76.3937 18.6434 76.3937 12.0383V9.35851C76.3937 9.09421 76.3937 8.83209 76.3937 8.48547H76.3916Z" fill="white" fill-opacity="0.8"/>
<path d="M14.3766 8.28622C13.5638 7.14673 12.7854 6.05707 11.964 4.91108C11.1362 6.07223 10.3428 7.18573 9.54716 8.30139H5.1123C5.41039 7.14023 10.4521 1.17849 11.964 0.17981C13.0749 0.790715 18.3868 6.97126 18.9144 8.28839H14.3766V8.28622Z" fill="white" fill-opacity="0.8"/>
<path d="M78.448 0.00866699C78.7483 0.11915 79.0764 0.2253 79.3959 0.357446C80.9271 1.00085 81.4439 2.96354 80.2623 4.50381C80.0993 4.71611 79.8999 4.90458 79.6919 5.07138C78.937 5.67362 78.1178 5.71262 77.3157 5.18837C76.3121 4.53413 75.7074 3.07186 76.0419 2.03419C76.3357 1.12433 76.8933 0.57408 77.7232 0.233966C77.9441 0.14298 78.18 0.0909876 78.448 0.00866699Z" fill="white" fill-opacity="0.8"/>
<path d="M19.0713 11.6614C19.2729 11.6635 19.4745 11.6982 19.6804 11.7718C20.1028 11.9213 20.5274 12.1661 20.8598 12.4694C21.396 12.959 21.6597 13.7302 21.5289 14.4559C21.4153 15.082 21.1601 15.7276 20.654 16.1348C20.3259 16.397 19.9205 16.5378 19.5067 16.5941C18.9405 16.6699 18.3358 16.6396 17.8361 16.332C16.751 15.6626 16.3328 14.1158 16.9161 12.9763C17.1327 12.5561 17.4479 12.2029 17.8704 11.9841C18.2585 11.7848 18.6596 11.657 19.0713 11.6614Z" fill="white" fill-opacity="0.8"/>
<path d="M12.003 11.6028C12.0695 11.6007 12.136 11.6007 12.2046 11.6028C13.7186 11.7047 14.5121 13.2189 14.3491 14.6054C14.2312 15.6084 13.2747 16.6461 11.9344 16.6331C10.6734 16.6201 9.67194 15.6734 9.50895 14.2999C9.39529 13.3489 9.94858 12.5539 10.727 12.0751C11.1324 11.826 11.5355 11.6202 12.003 11.5985V11.6028Z" fill="white" fill-opacity="0.8"/>
<path d="M7.27426 14.1375C7.42224 15.4026 6.1055 16.6396 4.88528 16.6483C3.75941 16.6548 2.39121 15.7167 2.40836 14.1353C2.42337 12.777 3.47419 11.6397 4.80378 11.5964C6.11623 11.553 7.26997 12.7402 7.27426 14.1375Z" fill="white" fill-opacity="0.8"/>
</g>
<defs>
<clipPath id="clip0_3980_15184">
<rect width="111" height="41" fill="white"/>
</clipPath>
</defs>
</svg>
