<svg width="39" height="38" viewBox="0 0 39 38" fill="none" xmlns="http://www.w3.org/2000/svg">
<g clip-path="url(#clip0_1413_5535)">
<g opacity="0.405" filter="url(#filter0_f_1413_5535)">
<path d="M36.7237 19.0515C36.7237 28.7045 28.9776 36.5298 19.4222 36.5298C9.86685 36.5298 2.1207 28.7045 2.1207 19.0515C2.1207 9.39853 9.86685 1.57324 19.4222 1.57324C28.9776 1.57324 36.7237 9.39853 36.7237 19.0515Z" fill="#211F46" fill-opacity="0.996078"/>
<path d="M36.7237 19.0515C36.7237 28.7045 28.9776 36.5298 19.4222 36.5298C9.86685 36.5298 2.1207 28.7045 2.1207 19.0515C2.1207 9.39853 9.86685 1.57324 19.4222 1.57324C28.9776 1.57324 36.7237 9.39853 36.7237 19.0515Z" stroke="#0A0B1B" stroke-width="0.78948"/>
</g>
<path d="M36.7237 19.0515C36.7237 28.7045 28.9776 36.5298 19.4222 36.5298C9.86686 36.5298 2.1207 28.7045 2.1207 19.0515C2.1207 9.39853 9.86686 1.57324 19.4222 1.57324C28.9776 1.57324 36.7237 9.39853 36.7237 19.0515Z" fill="url(#paint0_linear_1413_5535)" stroke="url(#paint1_linear_1413_5535)" stroke-width="1.25045"/>
<path fill-rule="evenodd" clip-rule="evenodd" d="M13.4756 31.3285C13.4756 31.3285 14.9406 31.4321 16.8252 31.266C17.5884 31.1987 20.4862 30.9141 22.6526 30.439C22.6526 30.439 25.2941 29.8737 26.7072 29.3529C28.1858 28.808 28.9904 28.3455 29.3526 27.6902C29.3368 27.556 29.4641 27.0798 28.7822 26.7938C27.0389 26.0626 25.0171 26.1949 21.0164 26.1101C16.5798 25.9576 15.104 25.215 14.3178 24.6169C13.5639 24.0102 13.943 22.3315 17.1733 20.8529C18.8005 20.0655 25.1793 18.6125 25.1793 18.6125C23.031 17.5506 19.0252 15.6839 18.2017 15.2808C17.4795 14.9272 16.3238 14.3949 16.0733 13.7508C15.7892 13.1325 16.7441 12.5999 17.2774 12.4474C18.9952 11.9519 21.4202 11.6439 23.6272 11.6094C24.7366 11.592 24.9166 11.5206 24.9166 11.5206C26.4474 11.2667 27.455 10.2194 27.0352 8.56086C26.6583 6.8679 24.6705 5.87313 22.7814 6.21751C21.0025 6.54181 16.715 7.78724 16.715 7.78724C22.0147 7.74137 22.9018 7.82983 23.2979 8.38372C23.5319 8.71083 23.1916 9.15935 21.7782 9.3902C20.2394 9.64151 17.0407 9.94417 17.0407 9.94417C13.9722 10.1264 11.8107 10.1386 11.1624 11.5112C10.7388 12.4079 11.614 13.2006 11.9976 13.6968C13.6186 15.4995 15.96 16.4718 17.4672 17.1878C18.0342 17.4572 19.6981 17.9659 19.6981 17.9659C14.8087 17.697 11.2816 19.1983 9.21271 20.9269C6.87268 23.0913 7.90784 25.6713 12.7019 27.2598C15.5335 28.198 16.9378 28.6393 21.1615 28.2589C23.6493 28.1248 24.0415 28.2046 24.0663 28.4088C24.1012 28.6962 21.303 29.4101 20.5391 29.6305C18.5957 30.191 13.5011 31.323 13.4756 31.3285Z" fill="white"/>
</g>
<defs>
<filter id="filter0_f_1413_5535" x="0.100455" y="-0.44703" width="38.6435" height="38.9971" filterUnits="userSpaceOnUse" color-interpolation-filters="sRGB">
<feFlood flood-opacity="0" result="BackgroundImageFix"/>
<feBlend mode="normal" in="SourceGraphic" in2="BackgroundImageFix" result="shape"/>
<feGaussianBlur stdDeviation="0.812749" result="effect1_foregroundBlur_1413_5535"/>
</filter>
<linearGradient id="paint0_linear_1413_5535" x1="10.8201" y1="8.61226" x2="32.5536" y2="38.1768" gradientUnits="userSpaceOnUse">
<stop stop-color="#8381C5"/>
<stop offset="0.566394" stop-color="#7E55B3" stop-opacity="0.996078"/>
<stop offset="1" stop-color="#A52ECB" stop-opacity="0.992157"/>
</linearGradient>
<linearGradient id="paint1_linear_1413_5535" x1="33.5113" y1="29.2211" x2="13.4527" y2="5.00789" gradientUnits="userSpaceOnUse">
<stop stop-color="#411F5D"/>
<stop offset="1" stop-color="#5B2A85"/>
</linearGradient>
<clipPath id="clip0_1413_5535">
<rect width="38" height="38" fill="white" transform="translate(0.5)"/>
</clipPath>
</defs>
</svg>
