<svg width="147" height="48" viewBox="0 0 147 48" fill="none" xmlns="http://www.w3.org/2000/svg">
<path d="M0 14.0129C3.92925 14.0129 3.92925 14.0129 4.89711 14.926C5.10996 15.2335 5.10996 15.2335 5.2402 15.498C5.52161 16.0313 5.85072 16.4872 6.22612 16.959C6.33876 17.1073 6.451 17.2559 6.56289 17.4048C7.00005 17.9823 7.44405 18.5546 7.88738 19.1275C8.50502 19.9261 9.11737 20.727 9.70755 21.5457C10.2214 21.0723 10.6197 20.5458 11.0293 19.9835C11.578 19.2387 12.136 18.5035 12.7123 17.7793C13.3598 16.9646 13.9872 16.1369 14.6056 15.3003C14.6687 15.2149 14.7319 15.1295 14.797 15.0415C14.852 14.9667 14.9071 14.8919 14.9638 14.8148C15.1701 14.5428 15.3864 14.2783 15.6014 14.0129C16.8981 14.0129 18.1947 14.0129 19.5307 14.0129C19.5307 20.6041 19.5307 27.1953 19.5307 33.9862C18.1959 33.9862 16.8611 33.9862 15.4859 33.9862C15.4477 29.6172 15.4096 25.2482 15.3703 20.7468C14.9126 21.3494 14.455 21.952 13.9835 22.5729C13.2756 23.4503 13.2756 23.4503 12.9276 23.877C12.6223 24.252 12.3231 24.631 12.0261 25.0125C11.9343 25.1303 11.8426 25.2482 11.748 25.3696C11.5116 25.6752 11.2793 25.9835 11.0474 26.2925C10.9459 26.4265 10.9459 26.4265 10.8424 26.5631C10.7089 26.7396 10.5762 26.9167 10.4445 27.0945C10.3838 27.1744 10.3231 27.2543 10.2605 27.3366C10.2068 27.4084 10.153 27.4803 10.0976 27.5543C9.93868 27.7089 9.93868 27.7089 9.59198 27.7089C9.3622 27.4565 9.3622 27.4565 9.0936 27.0954C8.99003 26.9582 8.88635 26.821 8.78257 26.6839C8.72684 26.6097 8.6711 26.5355 8.61368 26.459C8.30049 26.046 7.97787 25.6403 7.65625 25.2336C7.51809 25.0584 7.37995 24.8832 7.24184 24.708C7.13754 24.5757 7.13754 24.5757 7.03113 24.4408C6.81645 24.1683 6.60205 23.8956 6.38773 23.6228C6.31708 23.533 6.24643 23.4431 6.17364 23.3505C6.04063 23.1813 5.90768 23.0121 5.7748 22.8428C5.28116 22.2151 4.77881 21.5958 4.27594 20.975C4.23781 25.2687 4.19967 29.5624 4.16038 33.9862C2.78745 33.9862 1.41453 33.9862 0 33.9862C0 27.395 0 20.8038 0 14.0129Z" fill="#1F1860"/>
<path d="M94.6486 14.0129C106.633 14.0129 106.633 14.0129 108.524 15.7111C109.578 16.8242 109.999 18.2191 110.019 19.7196C109.937 21.2106 109.404 22.3591 108.314 23.3901C108.048 23.6053 107.776 23.7758 107.476 23.9425C107.545 23.9866 107.613 24.0308 107.684 24.0763C107.775 24.1357 107.866 24.1951 107.96 24.2564C108.05 24.3146 108.14 24.3729 108.233 24.4329C109.213 25.1038 109.9 25.9977 110.2 27.1547C110.428 28.6372 110.308 30.3154 109.441 31.5894C108.38 32.9636 107.009 33.7148 105.281 33.9862C104.933 34.0021 104.587 34.0006 104.239 33.9991C104.134 33.9992 104.028 33.9992 103.92 33.9992C103.579 33.9991 103.239 33.9982 102.898 33.9973C102.688 33.9972 102.477 33.997 102.267 33.997C101.487 33.9964 100.708 33.9948 99.9285 33.9933C98.1861 33.991 96.4437 33.9886 94.6486 33.9862C94.6486 27.395 94.6486 20.8038 94.6486 14.0129ZM98.809 17.8935C98.809 19.2493 98.809 20.6053 98.809 22.0022C99.5348 22.0101 100.261 22.0169 100.986 22.021C101.233 22.0228 101.48 22.0251 101.727 22.0281C102.082 22.0322 102.437 22.0342 102.793 22.0357C102.902 22.0374 103.012 22.0392 103.125 22.041C104.039 22.0413 104.72 21.8525 105.396 21.2033C105.709 20.5719 105.713 19.9517 105.627 19.263C105.394 18.5995 105.025 18.292 104.401 17.9912C103.899 17.8132 103.399 17.8377 102.872 17.8489C102.755 17.8495 102.638 17.8502 102.518 17.8508C102.148 17.8534 101.779 17.8591 101.409 17.8649C101.157 17.8672 100.905 17.8693 100.654 17.8712C100.039 17.8758 99.4239 17.8847 98.809 17.8935ZM98.809 25.8827C98.809 27.314 98.809 28.7452 98.809 30.2198C99.5821 30.2303 100.355 30.2394 101.128 30.2449C101.391 30.2472 101.654 30.2503 101.916 30.2542C102.295 30.2598 102.674 30.2624 103.052 30.2644C103.169 30.2667 103.286 30.2691 103.406 30.2715C104.13 30.2718 104.678 30.1763 105.281 29.7633C105.765 29.2721 105.983 28.8113 106.01 28.1297C105.993 27.5264 105.884 26.9691 105.47 26.506C104.957 26.059 104.46 25.8533 103.781 25.8568C103.67 25.8569 103.559 25.8569 103.445 25.8569C103.327 25.8581 103.208 25.8593 103.086 25.8605C102.964 25.8608 102.842 25.8611 102.716 25.8614C102.326 25.8627 101.936 25.8656 101.546 25.8685C101.282 25.8696 101.017 25.8707 100.753 25.8716C100.105 25.8739 99.4569 25.8784 98.809 25.8827Z" fill="#1F1860"/>
<path d="M35.3632 14.0129C36.7743 14.0129 38.1853 14.0129 39.6392 14.0129C40.1655 14.7556 40.6841 15.4984 41.1871 16.2559C41.2547 16.3574 41.3223 16.4589 41.392 16.5635C41.5355 16.7791 41.679 16.9947 41.8225 17.2103C42.1988 17.7761 42.5757 18.3415 42.9526 18.9068C43.0267 19.0179 43.1007 19.129 43.177 19.2435C44.072 20.5855 44.9756 21.9216 45.8797 23.2577C46.6425 24.3876 47.4052 25.5175 48.191 26.6817C48.2292 22.501 48.2673 18.3203 48.3066 14.0129C49.6795 14.0129 51.0525 14.0129 52.467 14.0129C52.467 20.6041 52.467 27.1953 52.467 33.9862C51.0559 33.9862 49.6449 33.9862 48.191 33.9862C47.1517 32.5748 47.1517 32.5748 46.7632 31.9857C46.698 31.8873 46.698 31.8873 46.6315 31.7868C46.5378 31.6453 46.4444 31.5037 46.351 31.362C46.0899 30.9656 45.8276 30.5701 45.5655 30.1743C45.5089 30.0888 45.4523 30.0032 45.394 29.915C44.7005 28.8673 44.0029 27.8222 43.3052 26.7771C43.0896 26.454 42.874 26.1308 42.6585 25.8077C41.8867 24.651 41.1118 23.4964 40.3325 22.3446C40.1037 22.0057 39.8749 21.6667 39.6392 21.3174C39.601 25.4981 39.5629 29.6788 39.5236 33.9862C38.1507 33.9862 36.7777 33.9862 35.3632 33.9862C35.3632 27.395 35.3632 20.8038 35.3632 14.0129Z" fill="#1F1860"/>
<path d="M132.439 14.0129C137.244 14.0129 142.049 14.0129 147 14.0129C147 15.2935 147 16.5741 147 17.8935C143.568 17.8935 140.135 17.8935 136.599 17.8935C136.599 19.2493 136.599 20.6052 136.599 22.0022C139.879 22.0022 143.159 22.0022 146.538 22.0022C146.538 23.2828 146.538 24.5634 146.538 25.8827C143.258 25.8827 139.978 25.8827 136.599 25.8827C136.599 27.314 136.599 28.7452 136.599 30.2198C140.031 30.2198 143.464 30.2198 147 30.2198C147 31.4627 147 32.7056 147 33.9862C142.195 33.9862 137.39 33.9862 132.439 33.9862C132.439 27.395 132.439 20.8038 132.439 14.0129Z" fill="#1F1860"/>
<path d="M79.1485 14C79.3484 14 79.5483 14.0007 79.7482 14.0018C79.8532 14.002 79.9583 14.0021 80.0664 14.0023C80.4032 14.0029 80.74 14.0044 81.0768 14.0058C81.3045 14.0064 81.5323 14.0069 81.76 14.0074C82.3196 14.0087 82.8791 14.0106 83.4387 14.0129C83.9487 15.1536 84.3634 16.3244 84.7806 17.5004C84.9975 18.1114 85.2158 18.722 85.434 19.3326C85.5018 19.5223 85.5018 19.5223 85.5709 19.7159C86.0463 21.0459 86.5295 22.3731 87.014 23.7C87.0999 23.9353 87.1858 24.1708 87.2717 24.4061C87.6295 25.3863 87.9877 26.3663 88.3461 27.3463C88.5837 27.9963 88.8212 28.6463 89.0586 29.2964C89.1912 29.6593 89.324 30.0221 89.4569 30.3849C89.539 30.6097 89.6211 30.8345 89.7032 31.0593C89.7391 31.1572 89.775 31.255 89.812 31.3559C90.13 32.2283 90.4221 33.1056 90.7193 33.9862C89.3083 33.9862 87.8972 33.9862 86.4434 33.9862C86.1515 33.2655 85.8661 32.549 85.6055 31.8176C85.5746 31.7322 85.5436 31.6467 85.5116 31.5586C85.2877 30.9325 85.2877 30.9325 85.2877 30.6763C81.2262 30.7328 81.2262 30.7328 77.0825 30.7905C76.7012 31.8451 76.3198 32.8996 75.9269 33.9862C74.4396 33.9862 72.9522 33.9862 71.4198 33.9862C71.8098 32.7022 71.8098 32.7022 71.9744 32.2506C72.0117 32.1477 72.049 32.0449 72.0875 31.939C72.1271 31.8307 72.1667 31.7224 72.2076 31.6108C72.2501 31.4938 72.2926 31.3768 72.3365 31.2562C72.476 30.8726 72.616 30.4891 72.756 30.1057C72.8551 29.8336 72.9542 29.5616 73.0532 29.2896C73.3073 28.5917 73.5617 27.8939 73.8163 27.1962C74.0379 26.5884 74.2592 25.9806 74.4805 25.3727C74.8595 24.3318 75.2391 23.2911 75.6189 22.2505C75.902 21.4747 76.1846 20.6986 76.4668 19.9224C76.7028 19.2734 76.939 18.6245 77.1754 17.9756C77.32 17.5786 77.4645 17.1816 77.6087 16.7845C77.769 16.343 77.9298 15.9018 78.0906 15.4606C78.1632 15.2602 78.1632 15.2602 78.2373 15.0558C78.2815 14.9346 78.3258 14.8134 78.3714 14.6886C78.41 14.5824 78.4487 14.4761 78.4885 14.3667C78.6531 13.9576 78.6539 14.0143 79.1485 14ZM81.1274 19.263C80.7806 20.2283 80.434 21.1936 80.0877 22.159C79.9269 22.6072 79.766 23.0554 79.605 23.5035C79.4497 23.9356 79.2946 24.3678 79.1396 24.8C79.0804 24.9653 79.021 25.1305 78.9616 25.2957C78.8787 25.5263 78.796 25.757 78.7133 25.9877C78.6661 26.1193 78.6189 26.2508 78.5702 26.3863C78.4632 26.6478 78.4632 26.6478 78.4693 26.7958C80.2618 26.7958 82.0542 26.7958 83.9009 26.7958C83.6983 26.2309 83.4957 25.6659 83.287 25.0838C82.5939 23.1475 81.9153 21.2065 81.2429 19.263C81.2048 19.263 81.1666 19.263 81.1274 19.263Z" fill="#1F1860"/>
<path d="M56.3962 14.0129C61.4303 14.0129 66.4643 14.0129 71.6509 14.0129C71.6509 15.3312 71.6509 16.6494 71.6509 18.0076C69.8204 18.0076 67.9898 18.0076 66.1038 18.0076C66.1038 23.2805 66.1038 28.5535 66.1038 33.9862C64.6927 33.9862 63.2817 33.9862 61.8278 33.9862C61.8278 28.7133 61.8278 23.4403 61.8278 18.0076C60.0354 18.0076 58.243 18.0076 56.3962 18.0076C56.3962 16.6894 56.3962 15.3711 56.3962 14.0129Z" fill="#1F1860"/>
<path d="M115.219 14.0129C116.63 14.0129 118.041 14.0129 119.495 14.0129C119.495 19.3612 119.495 24.7095 119.495 30.2198C122.432 30.2198 125.368 30.2198 128.394 30.2198C128.394 31.4627 128.394 32.7056 128.394 33.9862C124.046 33.9862 119.699 33.9862 115.219 33.9862C115.219 27.395 115.219 20.8038 115.219 14.0129Z" fill="#1F1860"/>
<path d="M25.309 14.0129C26.72 14.0129 28.1311 14.0129 29.5849 14.0129C29.5849 20.6041 29.5849 27.1953 29.5849 33.9862C28.1738 33.9862 26.7628 33.9862 25.309 33.9862C25.309 27.395 25.309 20.8038 25.309 14.0129Z" fill="#1F1860"/>
</svg>
