<svg xmlns="http://www.w3.org/2000/svg" width="148" height="48" viewBox="0 0 148 48" fill="none">
<g clip-path="url(#clip0_225_1831)">
<path d="M0.5 14.0129C4.42925 14.0129 4.42925 14.0129 5.39711 14.926C5.60996 15.2335 5.60996 15.2335 5.7402 15.498C6.02161 16.0313 6.35072 16.4872 6.72612 16.959C6.83876 17.1073 6.951 17.2559 7.06289 17.4048C7.50005 17.9823 7.94405 18.5546 8.38738 19.1275C9.00502 19.9261 9.61737 20.727 10.2075 21.5457C10.7214 21.0723 11.1197 20.5458 11.5293 19.9835C12.078 19.2387 12.636 18.5035 13.2123 17.7793C13.8598 16.9646 14.4872 16.1369 15.1056 15.3003C15.1687 15.2149 15.2319 15.1295 15.297 15.0415C15.352 14.9667 15.4071 14.8919 15.4638 14.8148C15.6701 14.5428 15.8864 14.2783 16.1014 14.0129C17.3981 14.0129 18.6947 14.0129 20.0307 14.0129C20.0307 20.6041 20.0307 27.1953 20.0307 33.9862C18.6959 33.9862 17.3611 33.9862 15.9859 33.9862C15.9477 29.6172 15.9096 25.2482 15.8703 20.7468C15.4126 21.3494 14.955 21.952 14.4835 22.5729C13.7756 23.4503 13.7756 23.4503 13.4276 23.877C13.1223 24.252 12.8231 24.631 12.5261 25.0125C12.4343 25.1303 12.3426 25.2482 12.248 25.3696C12.0116 25.6752 11.7793 25.9835 11.5474 26.2925C11.4459 26.4265 11.4459 26.4265 11.3424 26.5631C11.2089 26.7396 11.0762 26.9167 10.9445 27.0945C10.8838 27.1744 10.8231 27.2543 10.7605 27.3366C10.7068 27.4084 10.653 27.4803 10.5976 27.5543C10.4387 27.7089 10.4387 27.7089 10.092 27.7089C9.8622 27.4565 9.8622 27.4565 9.5936 27.0954C9.49003 26.9582 9.38635 26.821 9.28257 26.6839C9.22684 26.6097 9.1711 26.5355 9.11368 26.459C8.80049 26.046 8.47787 25.6403 8.15625 25.2336C8.01809 25.0584 7.87995 24.8832 7.74184 24.708C7.63754 24.5757 7.63754 24.5757 7.53113 24.4408C7.31645 24.1683 7.10205 23.8956 6.88773 23.6228C6.81708 23.533 6.74643 23.4431 6.67364 23.3505C6.54063 23.1813 6.40768 23.0121 6.2748 22.8428C5.78116 22.2151 5.27881 21.5958 4.77594 20.975C4.73781 25.2687 4.69967 29.5624 4.66038 33.9862C3.28745 33.9862 1.91453 33.9862 0.5 33.9862C0.5 27.395 0.5 20.8038 0.5 14.0129Z" fill="#F9FAFB"/>
<path d="M95.1486 14.0129C107.133 14.0129 107.133 14.0129 109.024 15.7111C110.078 16.8242 110.499 18.2191 110.519 19.7196C110.437 21.2106 109.904 22.3591 108.814 23.3901C108.548 23.6053 108.276 23.7758 107.976 23.9425C108.045 23.9866 108.113 24.0308 108.184 24.0763C108.275 24.1357 108.366 24.1951 108.46 24.2564C108.55 24.3146 108.64 24.3729 108.733 24.4329C109.713 25.1038 110.4 25.9977 110.7 27.1547C110.928 28.6372 110.808 30.3154 109.941 31.5894C108.88 32.9636 107.509 33.7148 105.781 33.9862C105.433 34.0021 105.087 34.0006 104.739 33.9991C104.634 33.9992 104.528 33.9992 104.42 33.9992C104.079 33.9991 103.739 33.9982 103.398 33.9973C103.188 33.9972 102.977 33.997 102.767 33.997C101.987 33.9964 101.208 33.9948 100.428 33.9933C98.6861 33.991 96.9437 33.9886 95.1486 33.9862C95.1486 27.395 95.1486 20.8038 95.1486 14.0129ZM99.309 17.8935C99.309 19.2493 99.309 20.6053 99.309 22.0022C100.035 22.0101 100.761 22.0169 101.486 22.021C101.733 22.0228 101.98 22.0251 102.227 22.0281C102.582 22.0322 102.937 22.0342 103.293 22.0357C103.402 22.0374 103.512 22.0392 103.625 22.041C104.539 22.0413 105.22 21.8525 105.896 21.2033C106.209 20.5719 106.213 19.9517 106.127 19.263C105.894 18.5995 105.525 18.292 104.901 17.9912C104.399 17.8132 103.899 17.8377 103.372 17.8489C103.255 17.8495 103.138 17.8502 103.018 17.8508C102.648 17.8534 102.279 17.8591 101.909 17.8649C101.657 17.8672 101.405 17.8693 101.154 17.8712C100.539 17.8758 99.9239 17.8847 99.309 17.8935ZM99.309 25.8827C99.309 27.314 99.309 28.7452 99.309 30.2198C100.082 30.2303 100.855 30.2394 101.628 30.2449C101.891 30.2472 102.154 30.2503 102.416 30.2542C102.795 30.2598 103.174 30.2624 103.552 30.2644C103.669 30.2667 103.786 30.2691 103.906 30.2715C104.63 30.2718 105.178 30.1763 105.781 29.7633C106.265 29.2721 106.483 28.8113 106.51 28.1297C106.493 27.5264 106.384 26.9691 105.97 26.506C105.457 26.059 104.96 25.8533 104.281 25.8568C104.17 25.8569 104.059 25.8569 103.945 25.8569C103.827 25.8581 103.708 25.8593 103.586 25.8605C103.464 25.8608 103.342 25.8611 103.216 25.8614C102.826 25.8627 102.436 25.8656 102.046 25.8685C101.782 25.8696 101.517 25.8707 101.253 25.8716C100.605 25.8739 99.9569 25.8784 99.309 25.8827Z" fill="#F9FAFB"/>
<path d="M35.8632 14.0129C37.2743 14.0129 38.6853 14.0129 40.1392 14.0129C40.6655 14.7556 41.1841 15.4984 41.6871 16.2559C41.7547 16.3574 41.8223 16.4589 41.892 16.5635C42.0355 16.7791 42.179 16.9947 42.3225 17.2103C42.6988 17.7761 43.0757 18.3415 43.4526 18.9068C43.5267 19.0179 43.6007 19.129 43.677 19.2435C44.572 20.5855 45.4756 21.9216 46.3797 23.2577C47.1425 24.3876 47.9052 25.5175 48.691 26.6817C48.7292 22.501 48.7673 18.3203 48.8066 14.0129C50.1795 14.0129 51.5525 14.0129 52.967 14.0129C52.967 20.6041 52.967 27.1953 52.967 33.9862C51.5559 33.9862 50.1449 33.9862 48.691 33.9862C47.6517 32.5748 47.6517 32.5748 47.2632 31.9857C47.198 31.8873 47.198 31.8873 47.1315 31.7868C47.0378 31.6453 46.9444 31.5037 46.851 31.362C46.5899 30.9656 46.3276 30.5701 46.0655 30.1743C46.0089 30.0888 45.9523 30.0032 45.894 29.915C45.2005 28.8673 44.5029 27.8222 43.8052 26.7771C43.5896 26.454 43.374 26.1308 43.1585 25.8077C42.3867 24.651 41.6118 23.4964 40.8325 22.3446C40.6037 22.0057 40.3749 21.6667 40.1392 21.3174C40.101 25.4981 40.0629 29.6788 40.0236 33.9862C38.6507 33.9862 37.2777 33.9862 35.8632 33.9862C35.8632 27.395 35.8632 20.8038 35.8632 14.0129Z" fill="#F9FAFB"/>
<path d="M132.939 14.0129C137.744 14.0129 142.549 14.0129 147.5 14.0129C147.5 15.2935 147.5 16.5741 147.5 17.8935C144.068 17.8935 140.635 17.8935 137.099 17.8935C137.099 19.2493 137.099 20.6052 137.099 22.0022C140.379 22.0022 143.659 22.0022 147.038 22.0022C147.038 23.2828 147.038 24.5634 147.038 25.8827C143.758 25.8827 140.478 25.8827 137.099 25.8827C137.099 27.314 137.099 28.7452 137.099 30.2198C140.531 30.2198 143.964 30.2198 147.5 30.2198C147.5 31.4627 147.5 32.7056 147.5 33.9862C142.695 33.9862 137.89 33.9862 132.939 33.9862C132.939 27.395 132.939 20.8038 132.939 14.0129Z" fill="#F9FAFB"/>
<path d="M79.6485 14C79.8484 14 80.0483 14.0007 80.2482 14.0018C80.3532 14.002 80.4583 14.0021 80.5664 14.0023C80.9032 14.0029 81.24 14.0044 81.5768 14.0058C81.8045 14.0064 82.0323 14.0069 82.26 14.0074C82.8196 14.0087 83.3791 14.0106 83.9387 14.0129C84.4487 15.1536 84.8634 16.3244 85.2806 17.5004C85.4975 18.1114 85.7158 18.722 85.934 19.3326C86.0018 19.5223 86.0018 19.5223 86.0709 19.7159C86.5463 21.0459 87.0295 22.3731 87.514 23.7C87.5999 23.9353 87.6858 24.1708 87.7717 24.4061C88.1295 25.3863 88.4877 26.3663 88.8461 27.3463C89.0837 27.9963 89.3212 28.6463 89.5586 29.2964C89.6912 29.6593 89.824 30.0221 89.9569 30.3849C90.039 30.6097 90.1211 30.8345 90.2032 31.0593C90.2391 31.1572 90.275 31.255 90.312 31.3559C90.63 32.2283 90.9221 33.1056 91.2193 33.9862C89.8083 33.9862 88.3972 33.9862 86.9434 33.9862C86.6515 33.2655 86.3661 32.549 86.1055 31.8176C86.0746 31.7322 86.0436 31.6467 86.0116 31.5586C85.7877 30.9325 85.7877 30.9325 85.7877 30.6763C81.7262 30.7328 81.7262 30.7328 77.5825 30.7905C77.2012 31.8451 76.8198 32.8996 76.4269 33.9862C74.9396 33.9862 73.4522 33.9862 71.9198 33.9862C72.3098 32.7022 72.3098 32.7022 72.4744 32.2506C72.5117 32.1477 72.549 32.0449 72.5875 31.939C72.6271 31.8307 72.6667 31.7224 72.7076 31.6108C72.7501 31.4938 72.7926 31.3768 72.8365 31.2562C72.976 30.8726 73.116 30.4891 73.256 30.1057C73.3551 29.8336 73.4542 29.5616 73.5532 29.2896C73.8073 28.5917 74.0617 27.8939 74.3163 27.1962C74.5379 26.5884 74.7592 25.9806 74.9805 25.3727C75.3595 24.3318 75.7391 23.2911 76.1189 22.2505C76.402 21.4747 76.6846 20.6986 76.9668 19.9224C77.2028 19.2734 77.439 18.6245 77.6754 17.9756C77.82 17.5786 77.9645 17.1816 78.1087 16.7845C78.269 16.343 78.4298 15.9018 78.5906 15.4606C78.6632 15.2602 78.6632 15.2602 78.7373 15.0558C78.7815 14.9346 78.8258 14.8134 78.8714 14.6886C78.91 14.5824 78.9487 14.4761 78.9885 14.3667C79.1531 13.9576 79.1539 14.0143 79.6485 14ZM81.6274 19.263C81.2806 20.2283 80.934 21.1936 80.5877 22.159C80.4269 22.6072 80.266 23.0554 80.105 23.5035C79.9497 23.9356 79.7946 24.3678 79.6396 24.8C79.5804 24.9653 79.521 25.1305 79.4616 25.2957C79.3787 25.5263 79.296 25.757 79.2133 25.9877C79.1661 26.1193 79.1189 26.2508 79.0702 26.3863C78.9632 26.6478 78.9632 26.6478 78.9693 26.7958C80.7618 26.7958 82.5542 26.7958 84.4009 26.7958C84.1983 26.2309 83.9957 25.6659 83.787 25.0838C83.0939 23.1475 82.4153 21.2065 81.7429 19.263C81.7048 19.263 81.6666 19.263 81.6274 19.263Z" fill="#F9FAFB"/>
<path d="M56.8962 14.0129C61.9303 14.0129 66.9643 14.0129 72.1509 14.0129C72.1509 15.3312 72.1509 16.6494 72.1509 18.0076C70.3204 18.0076 68.4898 18.0076 66.6038 18.0076C66.6038 23.2805 66.6038 28.5535 66.6038 33.9862C65.1927 33.9862 63.7817 33.9862 62.3278 33.9862C62.3278 28.7133 62.3278 23.4403 62.3278 18.0076C60.5354 18.0076 58.743 18.0076 56.8962 18.0076C56.8962 16.6894 56.8962 15.3711 56.8962 14.0129Z" fill="#F9FAFB"/>
<path d="M115.719 14.0129C117.13 14.0129 118.541 14.0129 119.995 14.0129C119.995 19.3612 119.995 24.7095 119.995 30.2198C122.932 30.2198 125.868 30.2198 128.894 30.2198C128.894 31.4627 128.894 32.7056 128.894 33.9862C124.546 33.9862 120.199 33.9862 115.719 33.9862C115.719 27.395 115.719 20.8038 115.719 14.0129Z" fill="#F9FAFB"/>
<path d="M25.809 14.0129C27.22 14.0129 28.6311 14.0129 30.0849 14.0129C30.0849 20.6041 30.0849 27.1953 30.0849 33.9862C28.6738 33.9862 27.2628 33.9862 25.809 33.9862C25.809 27.395 25.809 20.8038 25.809 14.0129Z" fill="#F9FAFB"/>
</g>
<defs>
<clipPath id="clip0_225_1831">
<rect width="147" height="48" fill="white" transform="translate(0.5)"/>
</clipPath>
</defs>
</svg>