<svg width="64" height="78" viewBox="0 0 64 78" fill="none" xmlns="http://www.w3.org/2000/svg">
<g id="mintable-logo" clip-path="url(#clip0_4149_6714)">
<path id="Subtract" fill-rule="evenodd" clip-rule="evenodd" d="M7.00815 -0.00561992L6.74012 -0.0053526C6.6773 -0.00541331 6.61446 -0.00573331 6.5516 -0.00605337C6.20886 -0.0077985 5.86572 -0.00954564 5.52502 0.0307242C3.78666 0.292176 2.32596 1.13151 1.24777 2.51351L1.1663 2.62178C0.771297 3.14456 0.474918 3.74808 0.273015 4.36983L0.240521 4.47509C0.0270206 5.15571 -0.0188205 5.85361 -0.0164837 6.56157C-0.0161522 6.65484 -0.0160678 6.74811 -0.0161977 6.84138C-0.0168482 7.10156 -0.0170303 7.36174 -0.0166102 7.62192C-0.0161442 7.90762 -0.0162428 8.19332 -0.0165575 8.47902C-0.0171694 9.01342 -0.0172915 9.54781 -0.0169482 10.0822C-0.01659 10.6253 -0.0164123 11.1684 -0.0166675 11.7115L-0.0167189 11.8156L-0.0169278 12.2353C-0.0176108 13.5376 -0.0177427 14.8399 -0.0173851 16.1422L-0.0173528 16.2592L-0.0173206 16.3763C-0.0169932 17.5563 -0.0168616 18.7363 -0.0170161 19.9164L-0.0170464 20.1533L-0.0171697 21.1059L-0.0174121 23.768L-0.0174174 23.8905C-0.0174737 25.1779 -0.0173555 26.4653 -0.0170761 27.7527L-0.0170484 27.8793L-0.0165852 29.9142C-0.0159553 32.6056 -0.0159264 35.2971 -0.0165555 37.9885L-0.0170207 40.0244L-0.0170484 40.1511C-0.01733 41.4398 -0.0174757 42.7285 -0.0174227 44.0173L-0.0174174 44.1398L-0.0171861 46.8049L-0.0170616 47.7583L-0.0170319 47.9956C-0.0168769 49.176 -0.0169606 50.3563 -0.0172876 51.5367L-0.0173206 51.654L-0.0173528 51.7712C-0.0177154 53.0772 -0.0176676 54.3832 -0.0169832 55.6892L-0.0167697 56.1104L-0.0167189 56.2148C-0.0164514 56.7594 -0.0165253 57.3041 -0.0168824 57.8487C-0.0172371 58.3865 -0.0172536 58.9243 -0.0166596 59.4621L-0.01663 59.4879C-0.0163415 59.7393 -0.016053 59.9907 -0.0163387 60.2421C-0.0167729 60.5082 -0.0170716 60.7744 -0.0165693 61.0406L-0.0159987 61.3322C-0.0185767 62.0575 0.010112 62.7646 0.213594 63.4668L0.24322 63.5606C0.540905 64.5219 1.07069 65.4938 1.81221 66.1897L1.90044 66.2681C2.63548 66.9329 3.43715 67.4501 4.38877 67.7585L4.49423 67.791C5.16952 68.0034 5.88145 68.0493 6.58485 68.0466C6.67124 68.0462 6.75763 68.0461 6.84402 68.0462C7.08536 68.0468 7.32668 68.0469 7.56801 68.0464C7.83287 68.0459 8.09772 68.0459 8.36257 68.0461C8.85811 68.0466 9.35365 68.0466 9.84918 68.0461C10.3526 68.0456 10.856 68.0453 11.3594 68.0454L11.4559 68.0454L11.9433 68.0456C13.118 68.0459 14.2927 68.0457 15.4673 68.0451C16.6333 68.0444 17.7992 68.044 18.9652 68.044L19.1848 68.044L20.0677 68.0439L22.535 68.0438L22.6485 68.0438C24.4695 68.0436 26.2906 68.0429 28.1116 68.0422C30.6458 68.0412 33.1801 68.0405 35.7143 68.0404L35.951 68.0404L36.7782 68.0403L37.4847 68.0403L37.837 68.0403C40.2942 68.0401 42.7514 68.0396 45.2086 68.0391L47.5064 68.0387C49.0445 68.0385 50.5826 68.0382 52.1207 68.0375L52.5104 68.0373L52.6071 68.0373C53.1122 68.037 53.6172 68.0369 54.1223 68.0369C54.593 68.0369 55.0637 68.0368 55.5344 68.0365C55.6643 68.0364 55.7943 68.0363 55.9242 68.0362C56.0627 68.0361 56.2012 68.0361 56.3396 68.0361C56.5866 68.0362 56.8336 68.0362 57.0806 68.036L57.3494 68.0357H57.3584C57.4784 68.0358 57.5985 68.0359 57.7186 68.0358L57.8301 68.0355C58.7446 68.0381 59.6596 67.8132 60.4777 67.4068C62.005 66.6122 63.1909 65.3064 63.7276 63.6626L63.7601 63.5579C63.9797 62.8662 64.0195 62.1405 64.0169 61.4205C64.0165 61.3272 64.0164 61.234 64.0165 61.1408C64.0171 60.8807 64.0172 60.6205 64.0167 60.3604C64.0162 60.0748 64.0162 59.7892 64.0164 59.5036C64.0169 58.9693 64.0169 58.4351 64.0164 57.9008C64.0159 57.358 64.0156 56.8151 64.0157 56.2723L64.0157 56.1682L64.0159 55.6428C64.0162 54.3763 64.016 53.1098 64.0154 51.8433C64.0148 50.5862 64.0143 49.329 64.0143 48.0718L64.0143 47.835L64.0142 46.8832L64.0141 44.2233L64.0141 44.1009C64.0139 42.1374 64.0132 40.174 64.0125 38.2106C64.0115 35.4781 64.0108 32.7457 64.0107 30.0133L64.0107 29.758L64.0106 28.8662L64.0106 28.1044L64.0106 27.7246C64.0104 25.0755 64.0099 22.4263 64.0094 19.7772L64.009 17.2997C64.0088 15.6413 64.0085 13.9829 64.0078 12.3245L64.0076 11.9042L64.0076 11.8C64.0073 11.2554 64.0072 10.7108 64.0072 10.1662C64.0072 9.62881 64.007 9.09145 64.0067 8.55408C64.0065 8.29453 64.0064 8.03498 64.0064 7.77543C64.0065 7.5091 64.0065 7.24277 64.0062 6.97645L64.006 6.68674C64.0061 6.55398 64.0062 6.42123 64.006 6.28848L64.0058 6.16838C64.0062 6.03177 64.0059 5.89549 64.0003 5.75897C63.8686 4.24145 63.1727 2.69426 62.0012 1.68959L61.8842 1.59038C60.6074 0.438491 59.028 -0.0228003 57.3263 -0.0162094C57.2402 -0.0158525 57.1542 -0.0157447 57.0681 -0.0158486C56.8276 -0.0164252 56.5871 -0.016539 56.3466 -0.0160492C56.0827 -0.0155072 55.8188 -0.0155377 55.5549 -0.0157694C55.0611 -0.0162278 54.5673 -0.0162223 54.0735 -0.0157424C53.5719 -0.0152457 53.0704 -0.0149311 52.5688 -0.0150484L52.4726 -0.0150731L51.9868 -0.0152052C50.8163 -0.015552 49.6458 -0.0153362 48.4753 -0.0147076C47.3135 -0.0140811 46.1517 -0.013653 44.9899 -0.0136135L44.771 -0.013606L43.8911 -0.0135805L41.4323 -0.0134289L41.3191 -0.0134167C39.5045 -0.0132226 37.6898 -0.0125576 35.8751 -0.011838C33.3499 -0.0108362 30.8246 -0.0101882 28.2994 -0.0100357L28.0635 -0.0100213L27.2392 -0.00997102L26.5352 -0.00992828L26.1841 -0.00990703C23.7354 -0.00976124 21.2867 -0.00929781 18.838 -0.00875356L16.5483 -0.00832221C15.0156 -0.00811766 13.483 -0.00784302 11.9504 -0.00714263L11.5619 -0.00696678L11.4656 -0.00692378C10.9623 -0.00669791 10.4591 -0.00658406 9.95588 -0.00656246C9.48686 -0.00654281 9.01784 -0.00641477 8.54882 -0.00612691L8.4573 -0.00606311C8.22031 -0.00589684 7.98332 -0.00573056 7.74633 -0.0057584C7.50027 -0.00583029 7.25421 -0.00585892 7.00815 -0.00561992ZM39.7239 9.09521L39.5037 9.01431C38.7288 8.72151 38.2753 8.70381 37.5479 9.12762C37.401 9.21346 37.2536 9.29847 37.1059 9.38313L36.6802 9.62733C36.483 9.74066 36.2858 9.85399 36.0884 9.96715C35.5887 10.2536 35.0893 10.5405 34.5914 10.83C34.3209 10.9874 34.0501 11.1443 33.7785 11.2997C33.5854 11.4101 33.3925 11.5208 33.1997 11.6318L32.9504 11.7755C32.6741 11.9325 32.4111 12.0861 32.1785 12.3046C31.6926 12.8235 31.4972 13.3878 31.5047 14.0929C31.5054 14.1528 31.5057 14.2128 31.5058 14.2728C31.5055 14.4374 31.5058 14.6019 31.507 14.7665C31.5083 14.9408 31.5088 15.1152 31.509 15.2896C31.5094 15.6193 31.5105 15.949 31.5123 16.2787C31.5142 16.6567 31.5155 17.0347 31.5163 17.4127C31.5181 18.1944 31.521 18.976 31.5248 19.7577L31.5253 19.8548L31.2771 19.7677L31.1746 19.7317C30.9191 19.642 30.6637 19.552 30.4087 19.4608L30.2864 19.417C29.9613 19.3006 29.6367 19.183 29.3125 19.064L29.1488 19.004L29.0665 18.9738C28.7049 18.8412 28.3428 18.7111 27.9784 18.5864C27.5842 18.4521 27.1917 18.315 26.802 18.168C26.3901 18.0127 25.9768 17.8619 25.5626 17.7131L25.4605 17.6765L25.4142 17.6599C25.2709 17.6084 25.1275 17.5568 24.9841 17.5058C24.8564 17.4604 24.7287 17.415 24.6015 17.3684C24.5343 17.3437 24.4671 17.3191 24.3998 17.2947L24.3028 17.2595C24.1914 17.2179 24.0822 17.1815 23.9679 17.1474C23.8318 17.1381 23.7422 17.1321 23.6552 17.1443C23.4873 17.1678 23.3289 17.2592 22.8651 17.527C22.7934 17.5688 22.7216 17.6105 22.6498 17.6521L22.3425 17.8298C22.1247 17.9561 21.9065 18.0815 21.6881 18.2068L21.4096 18.3666L20.8464 18.6898L20.5627 18.8525L20.4214 18.9335C20.0553 19.1435 19.6901 19.3549 19.3256 19.5674C19.0894 19.7053 18.8533 19.8427 18.6127 19.9728C18.1665 20.2134 17.7311 20.4601 17.3517 20.7996C16.8732 21.3017 16.786 21.9028 16.7879 22.566C16.7881 22.6291 16.7882 22.6922 16.788 22.7553C16.7876 22.8922 16.7873 23.0291 16.7873 23.166C16.7875 23.3856 16.7872 23.6053 16.7865 23.8249C16.7844 24.4519 16.7831 25.0789 16.7829 25.7059C16.7827 26.056 16.7822 26.4061 16.7809 26.7563C16.78 26.9776 16.7792 27.1989 16.7797 27.4202C16.78 27.5599 16.7799 27.6996 16.7792 27.8394L16.7783 28.0357L16.7783 28.0455C16.78 28.3231 16.7817 28.5936 16.7205 28.8659C16.5644 29.3917 16.3141 29.731 15.8385 30.0069L15.752 30.056C15.6505 30.1146 15.5489 30.1732 15.4471 30.2314C15.3664 30.2775 15.2858 30.3238 15.2052 30.3701C14.922 30.5331 14.6386 30.6957 14.3552 30.8582L13.7819 31.1868L13.6414 31.2674C13.2816 31.4737 12.9227 31.6816 12.5644 31.8906C12.3001 32.0448 12.0349 32.1972 11.7669 32.345C11.6891 32.3878 11.6108 32.4302 11.5323 32.4728C11.0298 32.7452 10.52 33.0216 10.1029 33.4135C9.68005 33.8659 9.48335 34.4076 9.4783 35.0232L9.47965 35.1785C9.47898 35.3569 9.47844 35.5353 9.47925 35.7137C9.48 35.8778 9.47999 36.0419 9.47971 36.2061C9.47913 36.5281 9.47931 36.8501 9.4801 37.1721C9.48103 37.55 9.48127 37.928 9.48124 38.306C9.48116 38.9794 9.48176 39.6528 9.483 40.3262C9.48422 40.9818 9.48505 41.6374 9.48501 42.293L9.485 42.4157L9.48499 42.5383C9.48492 43.2883 9.48532 44.0384 9.48608 44.7884C9.48636 45.0528 9.48654 45.3173 9.48658 45.5817C9.48662 45.9069 9.48686 46.2321 9.48758 46.5572L9.48773 46.617C9.4881 46.763 9.48846 46.909 9.48845 47.0549C9.48835 47.2088 9.48833 47.3627 9.48886 47.5165L9.48945 47.6843L9.48905 47.8423L9.48989 47.9861C9.49008 48.1104 9.49008 48.1104 9.501 48.2184C9.52669 48.2828 9.54438 48.3271 9.56999 48.3662C9.62663 48.4528 9.72202 48.514 10.0284 48.7105L10.1164 48.7664C10.2179 48.8313 10.3194 48.8962 10.421 48.9609L10.6654 49.1165L11.0773 49.3788C11.4745 49.6315 11.871 49.8853 12.2665 50.1406C12.6695 50.4008 13.0729 50.6603 13.4776 50.9178C13.8169 51.1335 14.156 51.3493 14.4934 51.5679C14.8068 51.7712 15.1208 51.9735 15.436 52.1741C15.4875 52.2068 15.5389 52.2395 15.5904 52.2723C15.8646 52.4466 16.1387 52.6209 16.4121 52.7964L16.5024 52.8544C16.6465 52.9464 16.7904 53.0382 16.9305 53.1362L17.0191 53.199L17.1906 53.3191C17.2902 53.3929 17.3783 53.4465 17.4902 53.5044C17.7499 53.5469 17.9452 53.4804 18.1667 53.3515C18.4061 53.2003 18.6474 53.0534 18.8929 52.9121L18.9936 52.8544L19.2046 52.7334C19.4112 52.6149 19.6174 52.4956 19.8234 52.3761L19.9571 52.2984L19.9673 52.2925C20.1999 52.1575 20.4324 52.0226 20.6641 51.8861C21.0013 51.6875 21.3404 51.4931 21.6818 51.3019C21.939 51.158 22.1956 51.0135 22.4502 50.8651C22.6204 50.7656 22.7908 50.6665 22.9615 50.5678L22.9689 50.5635C23.0828 50.4978 23.1967 50.432 23.31 50.3653C23.4426 50.287 23.5754 50.209 23.7089 50.1322C23.7611 50.1023 23.8133 50.0723 23.8654 50.0422L24.0151 49.9528L24.1559 49.8728L24.2798 49.8005C24.3393 49.7769 24.3699 49.7647 24.4002 49.7656C24.4325 49.7665 24.4643 49.7822 24.5299 49.8145L24.6589 49.8945L24.7749 49.962L24.8934 50.0348L25.0282 50.1175L25.2462 50.2518C25.6027 50.4709 25.9582 50.6913 26.3134 50.9125C26.6323 51.1112 26.9515 51.3092 27.2716 51.5061C27.5483 51.6762 27.8245 51.8471 28.1002 52.0189C28.5112 52.2751 28.9231 52.5295 29.3364 52.7819C29.5988 52.9418 29.8609 53.1017 30.1193 53.268C30.1591 53.2937 30.1987 53.3195 30.2382 53.3453C30.6314 53.6017 31.0121 53.85 31.4991 53.8706L31.5955 53.8724C32.0242 53.8819 32.369 53.6959 32.734 53.4888L32.8559 53.4184L33.1201 53.2679C33.2465 53.1954 33.3729 53.1229 33.4997 53.051C33.9372 52.8037 34.373 52.5538 34.8074 52.3011C35.0936 52.1345 35.3801 51.9686 35.6682 51.8052C36.0764 51.5739 36.4829 51.3399 36.8885 51.104C37.1213 50.9687 37.3541 50.8334 37.5873 50.6988L37.6872 50.6412C37.8609 50.541 38.0346 50.4411 38.2092 50.3426L38.3342 50.2724L38.5806 50.1335C38.5995 50.123 38.6184 50.1125 38.6373 50.1021C38.8398 49.9897 39.039 49.8792 39.2122 49.7226C39.3356 49.5321 39.366 49.3891 39.3418 49.1639C39.3149 49.0852 39.2959 49.0297 39.2663 48.9806C39.1956 48.8632 39.064 48.7825 38.618 48.5086L38.5078 48.4414C38.384 48.3655 38.2602 48.2897 38.1364 48.214L37.8658 48.0485L37.4416 47.7887C37.0248 47.5336 36.6084 47.2778 36.1925 47.0214L35.6337 46.677L35.4065 46.537L34.8397 46.1879L34.613 46.0482L34.5803 46.028C34.3996 45.9166 34.2188 45.8052 34.0379 45.6942L33.9146 45.6186L33.6737 45.4707C33.4 45.3033 33.1302 45.1314 32.864 44.9523C33.1841 44.7718 33.5028 44.589 33.8204 44.4041C34.2234 44.1694 34.6273 43.9366 35.033 43.7065C35.4403 43.4756 35.8467 43.2433 36.2513 43.0077C36.5759 42.8186 36.9015 42.6314 37.2284 42.4463C37.451 42.3204 37.673 42.1939 37.8916 42.0613C38.1756 41.8889 38.4635 41.7233 38.7533 41.5606L38.9126 41.4713L39.0669 41.3838L39.2137 41.3021C39.2799 41.2638 39.312 41.2452 39.3451 41.2284C39.3765 41.2125 39.4087 41.1983 39.4713 41.1705L39.4857 41.1668C39.61 41.1343 39.6926 41.1127 39.8166 41.1613L39.8932 41.2162L39.9822 41.2771C40.045 41.3209 40.1089 41.3631 40.1738 41.4037L40.2761 41.466L40.3826 41.5315L40.6135 41.6737L40.7363 41.7493L41.3241 42.1114L41.5495 42.2502L41.663 42.3201L43.0233 43.1581L43.25 43.2978L43.2972 43.3268C43.4708 43.4338 43.6444 43.5409 43.8182 43.6477L44.048 43.7889L44.1623 43.8591C44.3854 43.9961 44.608 44.1338 44.8284 44.275C44.966 44.3631 45.104 44.4504 45.2429 44.5363L45.4308 44.6515C45.7212 44.8346 45.9839 44.9659 46.331 44.9828L46.4322 44.9846C46.5677 44.9876 46.6599 44.9896 46.7495 44.9754C46.9397 44.9453 47.1183 44.8421 47.6761 44.5199L47.8141 44.4393C47.916 44.3803 48.018 44.3212 48.1199 44.2621C48.1676 44.2344 48.2153 44.2066 48.2629 44.1789C48.4026 44.0975 48.5424 44.0162 48.6822 43.935L48.9423 43.7839C49.267 43.5951 49.5925 43.4078 49.9194 43.2226C50.1526 43.0904 50.3855 42.9577 50.6166 42.8217C50.9732 42.6115 51.3325 42.4061 51.6926 42.2019C52.0268 42.0125 52.3606 41.8226 52.6913 41.6271C52.838 41.5399 52.9848 41.4535 53.135 41.3723L53.2439 41.3144L53.4578 41.2001L53.459 41.1995C53.5795 41.1375 53.6979 41.0767 53.8087 40.9986C53.943 40.8258 53.9626 40.7006 53.9383 40.4829C53.914 40.4523 53.8983 40.4324 53.8806 40.4143C53.8478 40.3808 53.8083 40.3537 53.6957 40.2764L53.555 40.1875C53.2588 39.9999 52.9602 39.8161 52.6615 39.6326C52.4142 39.4807 52.1674 39.328 51.9211 39.1744C51.4649 38.89 51.0074 38.608 50.5488 38.3276C50.2933 38.1714 50.0379 38.015 49.783 37.8579L49.671 37.7889L49.2311 37.5176C48.7167 37.2002 48.2018 36.8836 47.6851 36.57L47.5469 36.4862C47.9559 36.2251 48.1605 36.0945 48.3686 35.9696C48.5769 35.8447 48.7886 35.7255 49.2122 35.487C49.5402 35.2991 49.8678 35.1106 50.1945 34.9206C50.5561 34.7101 50.9183 34.5008 51.2824 34.2945C51.6023 34.1133 51.9204 33.9293 52.2379 33.7439C52.4922 33.5952 52.7471 33.448 53.0054 33.3062L53.085 33.2626C53.1894 33.2053 53.2939 33.1481 53.3984 33.0912C53.4498 33.0635 53.502 33.0362 53.5544 33.0087C53.8125 32.8735 54.0764 32.7353 54.2837 32.5325C54.5094 32.222 54.5294 31.9176 54.5229 31.5438C54.5218 31.4794 54.521 31.4151 54.5207 31.3507C54.5203 31.2074 54.5197 31.0642 54.5181 30.9209C54.5152 30.6805 54.513 30.4401 54.5117 30.1997C54.5104 29.9305 54.509 29.6613 54.507 29.3921C54.5009 28.5939 54.4979 27.7958 54.497 26.9976L54.4961 26.3394L54.4959 26.1479C54.4948 25.2957 54.4925 24.4436 54.4901 23.5914L54.4886 23.0899L54.4883 22.9892C54.4868 22.4424 54.4856 21.8956 54.4847 21.3488C54.4838 20.7761 54.4825 20.2033 54.4806 19.6305C54.4794 19.2809 54.4785 18.9313 54.4782 18.5817C54.478 18.3427 54.4775 18.1038 54.4765 17.8648L54.4751 17.5325V17.5287C54.4753 17.376 54.4754 17.2234 54.4746 17.0708L54.4737 16.9311C54.4751 16.6523 54.4578 16.4162 54.361 16.1528C54.2943 15.9965 54.2335 15.8927 54.072 15.8223L53.9673 15.7858L53.8377 15.7404L53.6791 15.6862C53.417 15.5964 53.1546 15.5074 52.8921 15.4188L52.6272 15.3292L52.0693 15.1406C51.718 15.0218 51.3668 14.9029 51.0157 14.7839L50.5186 14.6155L50.5146 14.6141C50.1186 14.4801 49.7226 14.3461 49.3269 14.2111L48.7282 14.0071L48.4376 13.9081L48.4347 13.9071C48.2986 13.8605 48.1624 13.8139 48.0262 13.7675L47.8995 13.7245C47.6808 13.6492 47.4648 13.5786 47.2388 13.5284L47.0719 13.4945C47.0745 13.3582 47.0767 13.2219 47.0782 13.0856L47.08 12.917L47.0806 12.8848C47.087 12.5709 47.093 12.2797 46.9796 11.9812C46.8656 11.7465 46.7314 11.6411 46.4823 11.5532C46.4128 11.5288 46.3435 11.5037 46.2745 11.478C45.6795 11.2531 45.0821 11.0348 44.4834 10.8196L43.6809 10.5311L43.5121 10.4704C43.0259 10.2955 42.5398 10.12 42.0539 9.94395L42.0454 9.94087C41.8477 9.86919 41.6499 9.79751 41.452 9.72605C41.39 9.70367 41.328 9.68131 41.2659 9.65894C40.912 9.53137 40.5582 9.4038 40.2054 9.27306C40.045 9.21348 39.8845 9.15415 39.7239 9.09521Z" fill="white" fill-opacity="0.8"/>
<path id="Vector" d="M24.4269 17.7866C24.5208 17.8226 24.6147 17.8585 24.7086 17.8944C24.7818 17.9224 24.7818 17.9224 24.8565 17.951C25.0953 18.0411 25.3359 18.1261 25.5767 18.211C25.679 18.2472 25.7813 18.2834 25.8835 18.3196C25.9367 18.3384 25.9899 18.3572 26.0447 18.3766C26.3541 18.4863 26.6631 18.597 26.9721 18.7079C27.0047 18.7195 27.0372 18.7312 27.0708 18.7433C27.5972 18.9323 28.1219 19.1256 28.6461 19.3207C29.1066 19.492 29.5687 19.657 30.0348 19.8128C30.336 19.9142 30.6287 20.0307 30.9208 20.1556C30.7781 20.2741 30.6363 20.3717 30.4734 20.4608C30.4292 20.4852 30.385 20.5095 30.3394 20.5346C30.2926 20.5602 30.2457 20.5858 30.1975 20.6122C29.8834 20.7855 29.5697 20.9588 29.2609 21.1413C28.9599 21.3191 28.6573 21.4939 28.354 21.6678C28.3062 21.6952 28.2583 21.7227 28.209 21.751C27.9687 21.8888 27.7282 22.0265 27.4876 22.164C27.2551 22.297 27.0229 22.4305 26.7909 22.5644C26.6907 22.6222 26.5903 22.6797 26.4898 22.7371C26.358 22.8123 26.2266 22.8881 26.0954 22.9642C26.0221 23.0065 25.9485 23.0483 25.8749 23.0901C25.3552 23.3927 24.8901 23.7595 24.6952 24.3465C24.5878 24.7575 24.548 25.1449 24.5511 25.5695C24.551 25.635 24.5507 25.7004 24.5504 25.7659C24.5499 25.9053 24.5499 26.0446 24.5503 26.184C24.551 26.4048 24.5504 26.6256 24.5496 26.8463C24.5483 27.2748 24.5482 27.7033 24.5483 28.1318C24.5484 28.6782 24.5479 29.2245 24.5462 29.7709C24.5456 29.99 24.5456 30.2091 24.5461 30.4282C24.5463 30.5647 24.546 30.7012 24.5455 30.8376C24.5454 30.9005 24.5456 30.9634 24.5459 31.0263C24.5491 31.6109 24.4578 32.0655 24.0598 32.5083C23.8477 32.7078 23.5927 32.8442 23.3409 32.9873C23.2208 33.0556 23.1012 33.1245 22.9815 33.1935C22.741 33.3321 22.5001 33.4702 22.2591 33.6081C22.0225 33.7435 21.7861 33.8793 21.5497 34.0151C21.268 34.1768 20.9863 34.3386 20.7046 34.5001C20.4247 34.6605 20.1451 34.8212 19.8655 34.982C19.8197 35.0084 19.7739 35.0347 19.7267 35.0619C19.2946 35.3105 18.8626 35.5593 18.4377 35.8201C18.4112 35.8361 18.3848 35.8521 18.3575 35.8686C17.8057 36.2119 17.4885 36.6698 17.316 37.2924C17.2544 37.5738 17.2627 37.8567 17.264 38.1433C17.264 38.2065 17.2639 38.2698 17.2638 38.3331C17.2636 38.5061 17.2639 38.6792 17.2644 38.8523C17.2647 39.0392 17.2646 39.2261 17.2645 39.413C17.2645 39.7367 17.2648 40.0603 17.2653 40.3839C17.266 40.8517 17.2662 41.3196 17.2663 41.7875C17.2665 42.5466 17.2671 43.3058 17.2679 44.0649C17.2687 44.8022 17.2693 45.5396 17.2696 46.2769C17.2697 46.3451 17.2697 46.3451 17.2697 46.4147C17.2698 46.6428 17.2699 46.8709 17.27 47.099C17.2709 48.9906 17.2725 50.8822 17.2744 52.7738C17.1925 52.7266 17.1107 52.6793 17.0289 52.632C16.9606 52.5925 16.9606 52.5925 16.8909 52.5522C16.7001 52.4399 16.5147 52.3203 16.3297 52.199C16.2544 52.15 16.1791 52.1009 16.1038 52.0519C16.0677 52.0284 16.0315 52.0048 15.9943 51.9805C15.8574 51.8914 15.7198 51.8033 15.5821 51.7155C15.4009 51.5999 15.2201 51.4839 15.0395 51.3674C14.6985 51.1473 14.3564 50.9289 14.0139 50.711C13.56 50.4222 13.1073 50.1316 12.6553 49.8398C12.2165 49.5565 11.7764 49.2755 11.3357 48.9953C10.9968 48.7796 10.659 48.5621 10.3223 48.3429C10.2726 48.3106 10.2726 48.3106 10.2219 48.2777C10.1786 48.2495 10.1786 48.2495 10.1345 48.2207C10.0616 48.1732 10.0616 48.1732 9.97615 48.1325C9.93171 46.7008 9.92523 45.2694 9.92432 43.8372C9.9242 43.6493 9.92401 43.4614 9.92382 43.2735C9.9233 42.7501 9.92285 42.2266 9.9227 41.7032C9.92269 41.6701 9.92268 41.637 9.92267 41.603C9.92266 41.5698 9.92266 41.5367 9.92265 41.5026C9.92263 41.4355 9.92261 41.3684 9.92259 41.3013C9.92258 41.268 9.92257 41.2347 9.92256 41.2004C9.92239 40.6576 9.92163 40.1148 9.92063 39.572C9.9196 39.0106 9.91907 38.4492 9.91902 37.8878C9.91898 37.5742 9.91873 37.2606 9.91794 36.947C9.91721 36.6533 9.91714 36.3595 9.91752 36.0658C9.91755 35.9584 9.91737 35.851 9.91694 35.7436C9.91163 34.3289 9.91163 34.3289 10.4406 33.7369C10.7753 33.4092 11.2137 33.1939 11.6172 32.9622C11.706 32.911 11.7947 32.8597 11.8835 32.8084C12.1206 32.6719 12.358 32.536 12.5955 32.4002C12.8309 32.2656 13.0661 32.1304 13.3014 31.9953C13.3947 31.9417 13.488 31.8882 13.5812 31.8346C13.7712 31.7255 13.9612 31.6164 14.1511 31.5073C14.1986 31.48 14.246 31.4527 14.295 31.4246C14.3894 31.3703 14.4839 31.316 14.5784 31.2617C14.7983 31.1353 15.0184 31.0096 15.2395 30.8853C15.8387 30.5487 15.8387 30.5487 16.4107 30.1688C16.4396 30.1485 16.4685 30.1282 16.4982 30.1072C16.9073 29.7928 17.0859 29.3258 17.188 28.8366C17.21 28.6099 17.2108 28.3852 17.2089 28.1578C17.209 28.0921 17.2091 28.0265 17.2094 27.9608C17.2097 27.8207 17.2096 27.6806 17.209 27.5405C17.2081 27.3184 17.2086 27.0964 17.2092 26.8743C17.2103 26.403 17.2101 25.9317 17.2096 25.4603C17.2091 24.9512 17.2089 24.442 17.2104 23.9328C17.2109 23.7125 17.2107 23.4923 17.2098 23.2721C17.2094 23.1346 17.2097 22.9971 17.2102 22.8596C17.2103 22.7964 17.2101 22.7332 17.2096 22.67C17.2053 22.121 17.2711 21.5994 17.6631 21.187C17.6887 21.1582 17.7144 21.1295 17.7408 21.0999C18.0882 20.7504 18.5387 20.5411 18.9678 20.3077C19.1295 20.2189 19.2885 20.1261 19.4471 20.032C19.7997 19.8241 20.1549 19.6205 20.5101 19.417C20.8312 19.2329 21.1516 19.0473 21.4714 18.861C21.8577 18.6361 22.2462 18.4153 22.6362 18.197C22.8906 18.0546 23.1433 17.9101 23.3935 17.7606C23.7814 17.5479 24.0342 17.6318 24.4269 17.7866Z" fill="white" fill-opacity="0.8"/>
<path id="Vector_2" d="M39.1887 9.38275C39.2277 9.39726 39.2667 9.41177 39.3069 9.42672C39.3907 9.45795 39.4745 9.48935 39.5582 9.52089C39.7825 9.60542 40.0073 9.6887 40.2321 9.77221C40.2775 9.78914 40.323 9.80608 40.3698 9.82352C40.7804 9.97635 41.1926 10.1246 41.6055 10.2713C41.742 10.3198 41.8785 10.3684 42.0149 10.417C42.0666 10.4354 42.0666 10.4354 42.1194 10.4542C42.5791 10.6178 43.0384 10.7829 43.4976 10.9482C43.5408 10.9637 43.5839 10.9792 43.6284 10.9952C44.3022 11.2377 44.975 11.4826 45.646 11.7324C45.5064 11.8481 45.3684 11.9447 45.2093 12.0316C45.1453 12.0668 45.1453 12.0668 45.08 12.1028C45.0343 12.1277 44.9886 12.1526 44.9416 12.1783C44.5703 12.383 44.2011 12.5905 43.835 12.8041C43.4767 13.0131 43.1178 13.2209 42.758 13.4273C42.7117 13.4539 42.6653 13.4805 42.6175 13.5079C42.4265 13.6175 42.2354 13.727 42.0442 13.8365C41.9955 13.8644 41.9467 13.8924 41.8965 13.9212C41.8482 13.9489 41.7999 13.9765 41.7501 14.0051C41.6085 14.0863 41.4671 14.1678 41.3257 14.2494C41.1688 14.3397 41.0115 14.4288 40.853 14.5163C40.3274 14.809 39.8503 15.1451 39.557 15.6862C39.5403 15.717 39.5236 15.7478 39.5063 15.7795C39.2859 16.2278 39.2853 16.7045 39.2868 17.1941C39.2867 17.258 39.2865 17.3219 39.2863 17.3859C39.286 17.5227 39.2859 17.6595 39.286 17.7963C39.2861 18.0131 39.2855 18.2299 39.2847 18.4467C39.2827 19.063 39.2817 19.6792 39.2814 20.2955C39.2812 20.6365 39.2805 20.9775 39.279 21.3186C39.2782 21.5336 39.278 21.7486 39.2785 21.9636C39.2786 22.098 39.278 22.2324 39.2772 22.3667C39.277 22.4284 39.277 22.4902 39.2774 22.5519C39.2807 23.1138 39.2103 23.5848 38.8144 24.0056C38.4968 24.2776 38.1407 24.4862 37.7763 24.6898C37.6975 24.7339 37.6188 24.7782 37.5401 24.8226C37.4581 24.8689 37.3761 24.9151 37.2941 24.9613C37.0236 25.1136 36.7544 25.268 36.4854 25.4227C36.3926 25.4761 36.2999 25.5294 36.2071 25.5827C36.1613 25.609 36.1155 25.6354 36.0684 25.6625C35.8818 25.7697 35.6951 25.8769 35.5085 25.9841C35.4151 26.0376 35.3218 26.0912 35.2285 26.1448C34.9898 26.2819 34.7511 26.4188 34.5123 26.5557C34.4151 26.6114 34.318 26.6671 34.2209 26.7227C34.1742 26.7495 34.1275 26.7762 34.0794 26.8038C33.8719 26.9228 33.6649 27.0423 33.4593 27.1646C33.4089 27.1945 33.4089 27.1945 33.3574 27.225C33.2969 27.2611 33.2365 27.2973 33.1763 27.3338C32.7952 27.5609 32.7952 27.5609 32.5664 27.5312C32.521 27.5179 32.521 27.5179 32.4746 27.5043C32.3621 27.2067 32.3759 26.9079 32.3766 26.5937C32.3764 26.5318 32.3761 26.47 32.3759 26.4081C32.3754 26.2752 32.3751 26.1424 32.3751 26.0096C32.375 25.7991 32.3742 25.5886 32.3733 25.3781C32.3712 24.8553 32.3699 24.3324 32.369 23.8095C32.3682 23.4032 32.3673 22.9969 32.3654 22.5906C32.3644 22.3818 32.3641 22.1731 32.3642 21.9643C32.3641 21.8338 32.3635 21.7033 32.3627 21.5728C32.3625 21.5128 32.3625 21.4528 32.3627 21.3927C32.364 20.9803 32.3581 20.5468 32.1265 20.1905C32.0481 20.1102 32.0481 20.1102 31.9564 20.0696C31.9524 19.2564 31.9493 18.4431 31.9475 17.6298C31.9466 17.2521 31.9454 16.8744 31.9434 16.4967C31.9417 16.1673 31.9405 15.8379 31.9402 15.5085C31.9399 15.3343 31.9394 15.1601 31.9382 14.9858C31.937 14.8214 31.9366 14.657 31.9369 14.4925C31.9368 14.4326 31.9365 14.3727 31.9358 14.3128C31.9293 13.6975 32.0367 13.1272 32.4762 12.673C32.7005 12.464 32.942 12.3115 33.2088 12.1622C33.2692 12.1275 33.3295 12.0927 33.3898 12.0578C33.5668 11.9554 33.7441 11.8534 33.9214 11.7515C34.0897 11.6548 34.2579 11.558 34.426 11.4612C34.4595 11.4419 34.493 11.4226 34.5275 11.4028C34.8018 11.2447 35.0755 11.0857 35.3491 10.9267C35.8059 10.6612 36.2637 10.3977 36.7221 10.1351C36.8953 10.0359 37.0683 9.93629 37.241 9.83618C37.3181 9.79147 37.3953 9.74682 37.4725 9.7022C37.5695 9.64613 37.6664 9.58993 37.7632 9.53359C37.8854 9.46302 38.0082 9.3938 38.1319 9.32584C38.1604 9.30997 38.189 9.29409 38.2185 9.27774C38.5431 9.11635 38.8742 9.26285 39.1887 9.38275Z" fill="white" fill-opacity="0.8"/>
<path id="Vector_3" d="M31.7848 28.7937C31.9154 28.9611 31.931 29.0922 31.9329 29.3009C31.9334 29.33 31.9338 29.3592 31.9343 29.3892C31.9356 29.4874 31.9359 29.5857 31.9363 29.684C31.9371 29.7558 31.9378 29.8275 31.9387 29.8992C31.9408 30.0986 31.942 30.2979 31.9431 30.4973C31.9441 30.67 31.9456 30.8427 31.9471 31.0154C31.9675 33.4627 31.9625 35.9102 31.9606 38.3575C31.9603 38.8222 31.96 39.2868 31.9599 39.7514C31.9599 39.7847 31.9599 39.8179 31.9598 39.8522C31.9598 40.0191 31.9597 40.186 31.9597 40.3529C31.9592 41.7141 31.9585 43.0754 31.9575 44.4366C31.8822 44.389 31.8069 44.3414 31.7316 44.2938C31.6897 44.2673 31.6478 44.2407 31.6046 44.2134C31.4406 44.1092 31.2779 44.0031 31.1156 43.8964C31.0654 43.8635 31.0654 43.8635 31.0142 43.8299C30.9048 43.7582 30.7955 43.6865 30.6862 43.6147C30.6085 43.5637 30.5308 43.5127 30.453 43.4617C30.2896 43.3546 30.1262 43.2474 29.9629 43.1401C29.7134 42.9764 29.4637 42.8129 29.2141 42.6493C28.4089 42.1218 27.6044 41.5934 26.803 41.0602C26.6126 40.9335 26.4218 40.8073 26.2311 40.681C26.1226 40.6092 26.0142 40.5373 25.9057 40.4654C25.8344 40.4182 25.7632 40.3711 25.6919 40.3239C25.5927 40.2583 25.4935 40.1926 25.3944 40.1269C25.3643 40.107 25.3343 40.0871 25.3033 40.0666C25.096 39.9291 25.096 39.9291 25.0479 39.8813C25.0426 39.8123 25.0402 39.7431 25.0391 39.674C25.0382 39.6289 25.0373 39.5837 25.0364 39.5372C25.0357 39.487 25.035 39.4368 25.0343 39.385C25.0334 39.332 25.0325 39.279 25.0315 39.2244C25.0291 39.0769 25.0269 38.9294 25.0249 38.7818C25.0236 38.6889 25.0223 38.5959 25.0209 38.5029C25.0052 37.3988 24.9988 36.2946 24.9969 35.1904C24.9966 35.0683 24.9962 34.9462 24.9957 34.8241C24.995 34.6302 24.9948 34.4363 24.9948 34.2423C24.9948 34.1708 24.9946 34.0992 24.9943 34.0276C24.9916 33.3937 25.0214 32.8254 25.4744 32.3364C25.7046 32.1222 25.9652 31.9713 26.2379 31.8184C26.3576 31.751 26.4765 31.6825 26.5955 31.6139C26.836 31.4752 27.0769 31.3372 27.3179 31.1993C27.5564 31.0628 27.7947 30.9261 28.0331 30.7893C28.0796 30.7626 28.1262 30.7359 28.1742 30.7084C28.484 30.5305 28.7931 30.3513 29.1019 30.1716C29.6286 29.865 30.1583 29.5637 30.6887 29.2634C30.7928 29.2042 30.8968 29.1448 31.0006 29.0851C31.0281 29.0693 31.0556 29.0536 31.0838 29.0373C31.1367 29.007 31.1896 28.9765 31.2423 28.946C31.4224 28.8428 31.5734 28.7621 31.7848 28.7937Z" fill="white" fill-opacity="0.8"/>
<path id="Vector_4" d="M46.5095 20.3705C46.6415 20.5676 46.6445 20.7444 46.6459 20.9773C46.6463 21.0305 46.6468 21.0836 46.6472 21.1384C46.6474 21.1973 46.6477 21.2562 46.6479 21.3151C46.6484 21.3777 46.6488 21.4403 46.6492 21.503C46.6504 21.6751 46.6513 21.8472 46.6522 22.0192C46.6529 22.1668 46.6538 22.3143 46.6548 22.4618C46.6572 22.8629 46.6594 23.264 46.6614 23.6651C46.6629 23.96 46.6645 24.2548 46.6661 24.5496C46.6866 28.2706 46.687 31.9916 46.6823 35.7127C46.6001 35.6721 46.518 35.6315 46.4359 35.5908C46.3673 35.5569 46.3673 35.5569 46.2973 35.5223C46.1168 35.4309 45.9418 35.3315 45.7673 35.2292C45.7324 35.2089 45.6975 35.1887 45.6615 35.1678C45.5554 35.1061 45.4494 35.0441 45.3435 34.9821C45.312 34.9637 45.2806 34.9453 45.2481 34.9263C45.1275 34.8557 45.0069 34.7851 44.8864 34.7144C44.658 34.5804 44.4287 34.448 44.1991 34.316C43.9092 34.1493 43.6201 33.9812 43.3317 33.8119C43.1033 33.6779 42.874 33.5455 42.6445 33.4135C42.3597 33.2498 42.0757 33.0848 41.7924 32.9185C41.5661 32.7858 41.3392 32.654 41.1122 32.5225C40.7665 32.3222 40.4209 32.1219 40.0777 31.9174C40.0511 31.9017 40.0246 31.8859 39.9973 31.8697C39.8212 31.7643 39.8212 31.7643 39.7727 31.716C39.7658 31.6063 39.7617 31.4978 39.7594 31.388C39.7581 31.3357 39.7581 31.3357 39.7568 31.2823C39.7539 31.1641 39.7515 31.0459 39.7491 30.9277C39.7482 30.8863 39.7473 30.845 39.7464 30.8024C39.7236 29.7348 39.7199 28.6671 39.7191 27.5992C39.7189 27.3196 39.7178 27.04 39.7166 26.7604C39.7158 26.5418 39.7156 26.3232 39.7155 26.1045C39.7154 26.0013 39.715 25.8981 39.7145 25.7949C39.7137 25.6516 39.7138 25.5084 39.7141 25.3651C39.7137 25.3237 39.7133 25.2824 39.7129 25.2397C39.716 24.7245 39.8317 24.2716 40.1999 23.8974C40.4485 23.6708 40.7095 23.5095 41.0061 23.3519C41.1026 23.2995 41.1989 23.2469 41.2953 23.1943C41.3439 23.1679 41.3925 23.1414 41.4426 23.1142C41.6645 22.992 41.8833 22.8647 42.102 22.7368C42.1879 22.6867 42.2739 22.6366 42.3599 22.5864C42.4244 22.5488 42.4244 22.5488 42.4903 22.5104C42.7193 22.3773 42.9491 22.2455 43.1789 22.1137C43.2255 22.087 43.2722 22.0602 43.3202 22.0326C43.4148 21.9784 43.5094 21.9242 43.6039 21.87C43.7917 21.7623 43.9794 21.6545 44.1671 21.5467C44.2599 21.4935 44.3528 21.4402 44.4456 21.387C44.664 21.2617 44.8822 21.1362 45.1 21.01C45.2024 20.9507 45.3048 20.8915 45.4073 20.8323C45.4791 20.7907 45.5509 20.749 45.6226 20.7072C46.275 20.3305 46.275 20.3305 46.5095 20.3705Z" fill="white" fill-opacity="0.8"/>
<path id="Vector_5" d="M4.53516 70.4796C6.00344 70.4796 6.00344 70.4796 6.36512 70.8234C6.44465 70.9392 6.44465 70.9392 6.49332 71.0388C6.59848 71.2396 6.72146 71.4113 6.86174 71.5889C6.90383 71.6448 6.94578 71.7007 6.98759 71.7568C7.15095 71.9742 7.31686 72.1897 7.48252 72.4054C7.71333 72.7061 7.94215 73.0077 8.16269 73.316C8.3547 73.1377 8.50356 72.9395 8.65661 72.7278C8.86163 72.4473 9.07016 72.1705 9.28549 71.8978C9.52747 71.591 9.76193 71.2793 9.99298 70.9643C10.0166 70.9322 10.0402 70.9 10.0645 70.8669C10.0851 70.8387 10.1057 70.8106 10.1269 70.7816C10.2039 70.6791 10.2848 70.5795 10.3651 70.4796C10.8497 70.4796 11.3342 70.4796 11.8334 70.4796C11.8334 72.9614 11.8334 75.4433 11.8334 78.0003C11.3346 78.0003 10.8358 78.0003 10.3219 78.0003C10.3077 76.3552 10.2934 74.7101 10.2787 73.0152C10.1077 73.2421 9.93672 73.469 9.76053 73.7028C9.49602 74.0331 9.49602 74.0331 9.36596 74.1938C9.25187 74.335 9.14007 74.4777 9.02908 74.6213C8.99479 74.6657 8.9605 74.7101 8.92517 74.7558C8.83684 74.8709 8.75 74.987 8.66336 75.1033C8.62545 75.1538 8.62545 75.1538 8.58677 75.2052C8.53686 75.2717 8.48729 75.3383 8.43809 75.4053C8.4154 75.4354 8.39271 75.4655 8.36933 75.4965C8.34924 75.5235 8.32915 75.5506 8.30845 75.5784C8.24906 75.6366 8.24906 75.6366 8.1195 75.6366C8.03364 75.5416 8.03364 75.5416 7.93327 75.4056C7.89456 75.354 7.85582 75.3023 7.81704 75.2507C7.79621 75.2228 7.77539 75.1948 7.75393 75.166C7.6369 75.0105 7.51634 74.8577 7.39616 74.7046C7.34453 74.6386 7.29291 74.5727 7.2413 74.5067C7.20232 74.4569 7.20232 74.4569 7.16256 74.4061C7.08234 74.3035 7.00222 74.2008 6.92213 74.0981C6.89573 74.0643 6.86933 74.0304 6.84213 73.9956C6.79243 73.9318 6.74275 73.8681 6.69309 73.8044C6.50863 73.568 6.32091 73.3349 6.133 73.1011C6.11875 74.7178 6.1045 76.3346 6.08981 78.0003C5.57678 78.0003 5.06374 78.0003 4.53516 78.0003C4.53516 75.5185 4.53516 73.0366 4.53516 70.4796Z" fill="white" fill-opacity="0.8"/>
<path id="Vector_6" d="M39.9023 70.4796C44.3807 70.4796 44.3807 70.4796 45.0874 71.119C45.4813 71.5382 45.6384 72.0634 45.6459 72.6284C45.6153 73.1898 45.4163 73.6222 45.0088 74.0105C44.9094 74.0915 44.8077 74.1557 44.6959 74.2185C44.7214 74.2351 44.747 74.2517 44.7733 74.2688C44.8074 74.2912 44.8415 74.3136 44.8767 74.3366C44.9103 74.3586 44.9438 74.3805 44.9784 74.4031C45.3446 74.6557 45.6015 74.9923 45.7136 75.428C45.7988 75.9862 45.7539 76.6181 45.43 77.0978C45.0335 77.6152 44.5213 77.8981 43.8754 78.0003C43.7456 78.0063 43.616 78.0057 43.4861 78.0052C43.4467 78.0052 43.4073 78.0052 43.3667 78.0052C43.2395 78.0051 43.1124 78.0048 42.9852 78.0045C42.9065 78.0044 42.8278 78.0044 42.7492 78.0043C42.4579 78.0041 42.1666 78.0035 41.8754 78.003C41.2243 78.0021 40.5732 78.0012 39.9023 78.0003C39.9023 75.5185 39.9023 73.0366 39.9023 70.4796ZM41.457 71.9408C41.457 72.4513 41.457 72.9619 41.457 73.4879C41.7282 73.4908 41.9994 73.4934 42.2707 73.495C42.3629 73.4956 42.4551 73.4965 42.5472 73.4976C42.6801 73.4992 42.8129 73.4999 42.9457 73.5005C42.9866 73.5011 43.0276 73.5018 43.0698 73.5025C43.4114 73.5026 43.6657 73.4315 43.9185 73.1871C44.0353 72.9493 44.037 72.7158 44.0049 72.4565C43.9177 72.2066 43.7799 72.0908 43.5465 71.9776C43.3589 71.9106 43.1724 71.9198 42.9752 71.924C42.9316 71.9242 42.888 71.9245 42.8431 71.9247C42.7049 71.9257 42.5668 71.9278 42.4287 71.93C42.3345 71.9309 42.2404 71.9317 42.1463 71.9324C41.9165 71.9341 41.6868 71.9375 41.457 71.9408ZM41.457 74.949C41.457 75.4879 41.457 76.0269 41.457 76.5821C41.7459 76.5861 42.0347 76.5895 42.3236 76.5915C42.4218 76.5924 42.52 76.5936 42.6182 76.5951C42.7597 76.5972 42.9012 76.5981 43.0427 76.5989C43.0863 76.5998 43.1298 76.6007 43.1747 76.6016C43.4454 76.6017 43.65 76.5657 43.8754 76.4102C44.0564 76.2253 44.1378 76.0518 44.148 75.7951C44.1415 75.5679 44.101 75.3581 43.9462 75.1837C43.7543 75.0154 43.5688 74.9379 43.3151 74.9393C43.2736 74.9393 43.2321 74.9393 43.1894 74.9393C43.1451 74.9397 43.1009 74.9402 43.0553 74.9406C43.0096 74.9408 42.9639 74.9409 42.9168 74.941C42.7712 74.9415 42.6256 74.9426 42.4799 74.9437C42.3811 74.9441 42.2822 74.9445 42.1833 74.9448C41.9412 74.9457 41.6991 74.9474 41.457 74.949Z" fill="white" fill-opacity="0.8"/>
<path id="Vector_7" d="M17.748 70.4796C18.2753 70.4796 18.8026 70.4796 19.3459 70.4796C19.5426 70.7592 19.7364 71.0389 19.9243 71.3242C19.9496 71.3624 19.9749 71.4006 20.0009 71.44C20.0545 71.5212 20.1082 71.6023 20.1618 71.6835C20.3024 71.8966 20.4432 72.1095 20.5841 72.3223C20.6118 72.3642 20.6394 72.406 20.6679 72.4491C21.0024 72.9544 21.34 73.4575 21.6779 73.9606C21.9629 74.3861 22.2479 74.8115 22.5416 75.2499C22.5558 73.6757 22.5701 72.1015 22.5848 70.4796C23.0978 70.4796 23.6108 70.4796 24.1394 70.4796C24.1394 72.9614 24.1394 75.4433 24.1394 78.0003C23.6121 78.0003 23.0848 78.0003 22.5416 78.0003C22.1532 77.4688 22.1532 77.4688 22.008 77.247C21.9836 77.21 21.9836 77.21 21.9588 77.1721C21.9238 77.1188 21.8889 77.0655 21.854 77.0122C21.7564 76.8629 21.6584 76.714 21.5605 76.565C21.5393 76.5328 21.5182 76.5005 21.4964 76.4673C21.2372 76.0728 20.9765 75.6793 20.7158 75.2858C20.6353 75.1641 20.5547 75.0424 20.4741 74.9208C20.1857 74.4852 19.8962 74.0505 19.605 73.6168C19.5195 73.4892 19.434 73.3615 19.3459 73.23C19.3316 74.8042 19.3174 76.3784 19.3027 78.0003C18.7897 78.0003 18.2766 78.0003 17.748 78.0003C17.748 75.5185 17.748 73.0366 17.748 70.4796Z" fill="white" fill-opacity="0.8"/>
<path id="Vector_8" d="M39.7734 32.2747C39.9355 32.3392 40.0704 32.4026 40.2196 32.4889C40.2642 32.5146 40.3089 32.5403 40.3549 32.5668C40.4026 32.5945 40.4503 32.6222 40.4995 32.6507C40.5498 32.6798 40.6002 32.7088 40.6505 32.7379C40.7797 32.8125 40.9087 32.8872 41.0377 32.962C41.1083 33.003 41.1788 33.0439 41.2494 33.0847C41.5066 33.2337 41.7635 33.383 42.0204 33.5324C42.2358 33.6576 42.4513 33.7827 42.6668 33.9077C42.7532 33.9579 42.8396 34.008 42.9259 34.0581C42.9687 34.0829 43.0114 34.1078 43.0555 34.1333C43.768 34.547 43.768 34.547 44.4806 34.9606C44.5234 34.9855 44.5662 35.0103 44.6103 35.0359C44.6962 35.0858 44.782 35.1356 44.8679 35.1855C45.0913 35.3152 45.3148 35.4448 45.5383 35.5743C45.5844 35.6011 45.6306 35.6279 45.6781 35.6554C45.7656 35.7062 45.8531 35.7568 45.9406 35.8075C46.02 35.8536 46.0993 35.8998 46.1784 35.9464C46.2578 35.9923 46.338 36.0371 46.4187 36.0806C46.458 36.1024 46.4972 36.1241 46.5376 36.1465C46.5728 36.1654 46.6081 36.1843 46.6444 36.2038C46.7493 36.2904 46.7564 36.354 46.7694 36.4862C46.7305 36.5077 46.6917 36.5291 46.6516 36.5512C46.2708 36.7623 45.8942 36.9799 45.5193 37.2012C45.1809 37.401 44.8417 37.5992 44.5022 37.797C44.1347 38.0111 43.7674 38.2257 43.401 38.4416C43.0345 38.6575 42.6672 38.872 42.2998 39.0862C41.9243 39.3051 41.5489 39.5241 41.1742 39.7443C41.1366 39.7664 41.099 39.7885 41.0603 39.8112C40.8649 39.9262 40.6701 40.0421 40.476 40.1593C40.436 40.1834 40.396 40.2075 40.3548 40.2323C40.2784 40.2784 40.2022 40.3246 40.1261 40.371C40.0923 40.3914 40.0586 40.4117 40.0238 40.4327C39.9941 40.4508 39.9644 40.4688 39.9338 40.4874C39.8598 40.5259 39.8598 40.5259 39.7734 40.5259C39.7734 37.803 39.7734 35.0801 39.7734 32.2747Z" fill="white" fill-opacity="0.8"/>
<path id="Vector_9" d="M25.0469 40.4829C25.2023 40.5448 25.3173 40.5969 25.4548 40.6839C25.4932 40.7082 25.5317 40.7325 25.5713 40.7576C25.635 40.7985 25.635 40.7985 25.7 40.8401C25.7455 40.8692 25.791 40.8982 25.8379 40.9281C26.4077 41.2938 26.9681 41.6739 27.5292 42.0528C27.9312 42.3241 28.335 42.592 28.7435 42.8535C29.121 43.0953 29.4953 43.342 29.8701 43.5879C29.9117 43.6152 29.9533 43.6424 29.9962 43.6706C30.5958 44.0638 31.1934 44.4595 31.7837 44.8664C31.7277 45.0335 31.6714 45.0454 31.5177 45.1278C31.4706 45.1533 31.4235 45.1789 31.3749 45.2052C31.337 45.2254 31.337 45.2254 31.2983 45.2461C31.164 45.3178 31.0304 45.3908 30.8967 45.4637C30.8558 45.4859 30.8558 45.4859 30.8141 45.5086C30.5597 45.6472 30.309 45.7917 30.059 45.9381C29.6888 46.1544 29.3172 46.3683 28.9443 46.58C28.9191 46.5943 28.8939 46.6087 28.8679 46.6234C28.7397 46.6962 28.6115 46.7689 28.4832 46.8417C28.2284 46.9862 27.9736 47.1309 27.7189 47.2757C27.694 47.2899 27.669 47.3041 27.6433 47.3187C27.2748 47.5281 26.9069 47.7386 26.5395 47.9499C26.1852 48.1534 25.8309 48.357 25.476 48.5596C25.4375 48.5817 25.3989 48.6038 25.3591 48.6266C25.3067 48.6565 25.3067 48.6565 25.2532 48.687C25.2073 48.7132 25.2073 48.7132 25.1604 48.74C25.0901 48.7771 25.0901 48.7771 25.0469 48.7771C25.0469 46.04 25.0469 43.3029 25.0469 40.4829Z" fill="white" fill-opacity="0.8"/>
<path id="Vector_10" d="M54.0234 70.4796C55.8191 70.4796 57.6147 70.4796 59.4647 70.4796C59.4647 70.9618 59.4647 71.444 59.4647 71.9408C58.1821 71.9408 56.8996 71.9408 55.5781 71.9408C55.5781 72.4513 55.5781 72.9619 55.5781 73.4879C56.8037 73.4879 58.0293 73.4879 59.292 73.4879C59.292 73.9701 59.292 74.4522 59.292 74.949C58.0664 74.949 56.8408 74.949 55.5781 74.949C55.5781 75.4879 55.5781 76.0269 55.5781 76.5821C56.8607 76.5821 58.1433 76.5821 59.4647 76.5821C59.4647 77.0501 59.4647 77.5181 59.4647 78.0003C57.6691 78.0003 55.8735 78.0003 54.0234 78.0003C54.0234 75.5185 54.0234 73.0366 54.0234 70.4796Z" fill="white" fill-opacity="0.8"/>
<path id="Vector_11" d="M34.1107 70.4747C34.1854 70.4747 34.2601 70.475 34.3348 70.4754C34.3741 70.4755 34.4133 70.4755 34.4537 70.4756C34.5796 70.4758 34.7054 70.4764 34.8313 70.4769C34.9164 70.4771 35.0015 70.4773 35.0866 70.4775C35.2957 70.478 35.5048 70.4787 35.7139 70.4796C35.9045 70.9091 36.0594 71.35 36.2153 71.7928C36.2964 72.0228 36.378 72.2527 36.4595 72.4827C36.4848 72.5541 36.4848 72.5541 36.5106 72.627C36.6883 73.1278 36.8689 73.6275 37.0499 74.1271C37.082 74.2158 37.1141 74.3044 37.1462 74.393C37.2799 74.7621 37.4138 75.1311 37.5477 75.5001C37.6365 75.7448 37.7252 75.9896 37.814 76.2344C37.8635 76.371 37.9131 76.5077 37.9628 76.6443C37.9935 76.7289 38.0241 76.8135 38.0548 76.8982C38.0682 76.935 38.0816 76.9719 38.0955 77.0098C38.2143 77.3384 38.3235 77.6687 38.4345 78.0003C37.9072 78.0003 37.38 78.0003 36.8367 78.0003C36.7276 77.7289 36.621 77.4591 36.5236 77.1837C36.512 77.1516 36.5004 77.1194 36.4885 77.0862C36.4048 76.8504 36.4048 76.8504 36.4048 76.754C34.8871 76.7753 34.8871 76.7753 33.3387 76.797C33.1962 77.1941 33.0537 77.5911 32.9069 78.0003C32.3511 78.0003 31.7953 78.0003 31.2227 78.0003C31.3684 77.5168 31.3684 77.5168 31.4299 77.3467C31.4438 77.308 31.4578 77.2693 31.4721 77.2294C31.487 77.1886 31.5018 77.1479 31.517 77.1058C31.5329 77.0618 31.5488 77.0177 31.5652 76.9723C31.6174 76.8279 31.6697 76.6835 31.722 76.5391C31.759 76.4367 31.796 76.3343 31.833 76.2318C31.928 75.969 32.023 75.7063 32.1182 75.4436C32.201 75.2147 32.2837 74.9859 32.3664 74.757C32.508 74.365 32.6499 73.9732 32.7918 73.5813C32.8976 73.2892 33.0032 72.997 33.1086 72.7047C33.1968 72.4604 33.2851 72.216 33.3734 71.9717C33.4274 71.8222 33.4814 71.6727 33.5353 71.5232C33.5952 71.357 33.6553 71.1908 33.7154 71.0247C33.7425 70.9492 33.7425 70.9492 33.7702 70.8723C33.7868 70.8267 33.8033 70.781 33.8203 70.734C33.8348 70.694 33.8492 70.654 33.8641 70.6128C33.9256 70.4588 33.9259 70.4801 34.1107 70.4747ZM34.8502 72.4565C34.7206 72.8199 34.5911 73.1834 34.4617 73.5469C34.4016 73.7156 34.3415 73.8844 34.2813 74.0531C34.2233 74.2159 34.1653 74.3786 34.1074 74.5413C34.0853 74.6036 34.0631 74.6658 34.0409 74.728C34.0099 74.8148 33.979 74.9017 33.9481 74.9886C33.9305 75.0381 33.9128 75.0876 33.8946 75.1386C33.8546 75.2371 33.8546 75.2371 33.8569 75.2928C34.5267 75.2928 35.1965 75.2928 35.8866 75.2928C35.8109 75.0801 35.7352 74.8674 35.6572 74.6482C35.3982 73.9191 35.1446 73.1882 34.8934 72.4565C34.8791 72.4565 34.8649 72.4565 34.8502 72.4565Z" fill="white" fill-opacity="0.8"/>
<path id="Vector_12" d="M25.6094 70.4796C27.4905 70.4796 29.3716 70.4796 31.3098 70.4796C31.3098 70.976 31.3098 71.4723 31.3098 71.9837C30.6257 71.9837 29.9417 71.9837 29.2369 71.9837C29.2369 73.9692 29.2369 75.9547 29.2369 78.0003C28.7096 78.0003 28.1823 78.0003 27.6391 78.0003C27.6391 76.0148 27.6391 74.0294 27.6391 71.9837C26.9693 71.9837 26.2995 71.9837 25.6094 71.9837C25.6094 71.4874 25.6094 70.991 25.6094 70.4796Z" fill="white" fill-opacity="0.8"/>
<path id="Vector_13" d="M47.5898 70.4796C48.1171 70.4796 48.6444 70.4796 49.1877 70.4796C49.1877 72.4934 49.1877 74.5073 49.1877 76.5821C50.285 76.5821 51.3823 76.5821 52.5129 76.5821C52.5129 77.0501 52.5129 77.5181 52.5129 78.0003C50.8883 78.0003 49.2637 78.0003 47.5898 78.0003C47.5898 75.5185 47.5898 73.0366 47.5898 70.4796Z" fill="white" fill-opacity="0.8"/>
<path id="Vector_14" d="M47.0712 13.9672C47.3221 14.0339 47.5719 14.1008 47.8178 14.184C47.8658 14.2002 47.9137 14.2163 47.963 14.2329C48.0135 14.2501 48.064 14.2673 48.1161 14.2849C48.1706 14.3034 48.2252 14.3218 48.2797 14.3402C48.4246 14.3891 48.5695 14.4382 48.7143 14.4874C48.8651 14.5385 49.0159 14.5895 49.1667 14.6404C49.4647 14.7412 49.7627 14.8422 50.0607 14.9433C50.2099 14.9939 50.3591 15.0444 50.5083 15.0949C50.7463 15.1756 50.9843 15.2562 51.2223 15.337C51.2733 15.3543 51.2733 15.3543 51.3253 15.3719C51.8371 15.5456 52.3477 15.7227 52.858 15.901C52.858 15.9436 52.858 15.9861 52.858 16.03C52.8307 16.045 52.8034 16.0601 52.7753 16.0757C52.1814 16.4043 51.5912 16.7382 51.0049 17.0802C50.5918 17.321 50.1767 17.5583 49.7618 17.7961C49.57 17.9061 49.3784 18.0162 49.1867 18.1264C49.0925 18.1806 48.9982 18.2346 48.9038 18.2885C48.6808 18.4161 48.4585 18.5446 48.2379 18.6761C48.1971 18.7001 48.1564 18.7241 48.1144 18.7488C48.0389 18.7933 47.9637 18.8383 47.8889 18.8839C47.6545 19.0209 47.4728 19.0688 47.2008 19.0812C47.0416 18.8067 47.0652 18.499 47.0663 18.1922C47.0663 18.1465 47.0663 18.1007 47.0663 18.0536C47.0663 17.9029 47.0666 17.7523 47.067 17.6016C47.0671 17.4969 47.0671 17.3923 47.0672 17.2876C47.0673 17.0125 47.0678 16.7374 47.0682 16.4623C47.0687 16.1814 47.0689 15.9006 47.0691 15.6197C47.0696 15.0689 47.0703 14.518 47.0712 13.9672Z" fill="white" fill-opacity="0.8"/>
<path id="Vector_15" d="M13.9922 70.4796C14.5195 70.4796 15.0468 70.4796 15.59 70.4796C15.59 72.9614 15.59 75.4433 15.59 78.0003C15.0627 78.0003 14.5355 78.0003 13.9922 78.0003C13.9922 75.5185 13.9922 73.0366 13.9922 70.4796Z" fill="white" fill-opacity="0.8"/>
</g>
<defs>
<clipPath id="clip0_4149_6714">
<rect width="64" height="78" fill="white" transform="translate(0 0.000244141)"/>
</clipPath>
</defs>
</svg>
