<svg width="62" height="74" viewBox="0 0 62 74" fill="none" xmlns="http://www.w3.org/2000/svg">
<g id="Vector">
<path fill-rule="evenodd" clip-rule="evenodd" d="M7.24144 0.0104281L6.9882 0.0106817C6.92885 0.0106241 6.86947 0.0103206 6.81008 0.010017C6.48626 0.00836187 6.16207 0.00670478 5.84017 0.0448987C4.19777 0.292873 2.81769 1.08894 1.79902 2.3997L1.72204 2.50239C1.34885 2.99822 1.06883 3.57064 0.878068 4.16034L0.847368 4.26017C0.645653 4.9057 0.602342 5.56763 0.60455 6.23909C0.604863 6.32755 0.604943 6.41601 0.60482 6.50447C0.604205 6.75125 0.604033 6.99801 0.60443 7.24479C0.60487 7.51576 0.604777 7.78673 0.60448 8.0577C0.603902 8.56455 0.603786 9.0714 0.604111 9.57825C0.604449 10.0934 0.604617 10.6085 0.604376 11.1236L0.60413 11.6204C0.603485 12.8556 0.60336 14.0907 0.603698 15.3259L0.603759 15.5479C0.604068 16.6671 0.604193 17.7863 0.604047 18.9055L0.603902 20.0337C0.603789 20.8753 0.603711 21.7169 0.603672 22.5586L0.603667 22.6748C0.603614 23.8958 0.603726 25.1168 0.60399 26.3379L0.604454 28.3879C0.605049 30.9406 0.605076 33.4933 0.604482 36.046L0.604016 38.0971C0.60375 39.3194 0.603612 40.5417 0.603662 41.764L0.603667 41.8803C0.603704 42.7229 0.603774 43.5654 0.603886 44.408L0.604032 45.5373C0.604178 46.6568 0.604099 47.7763 0.60379 48.8958L0.603728 49.1182C0.603386 50.3569 0.603431 51.5956 0.604078 52.8343L0.604327 53.3328C0.60458 53.8493 0.60451 54.3659 0.604173 54.8825C0.603838 55.3925 0.603822 55.9026 0.604383 56.4127L0.604411 56.4372C0.604684 56.6756 0.604957 56.9141 0.604687 57.1525C0.604276 57.4049 0.603994 57.6574 0.604469 57.9098C0.604698 58.002 0.60488 58.0942 0.605008 58.1864C0.602572 58.8743 0.629677 59.545 0.821927 60.211L0.849918 60.3C1.13117 61.2117 1.63171 62.1335 2.33231 62.7935L2.41566 62.8678C3.11013 63.4984 3.86754 63.989 4.76664 64.2814L4.86628 64.3123C5.5043 64.5137 6.17693 64.5572 6.8415 64.5546C6.92312 64.5543 7.00474 64.5542 7.08637 64.5543C7.31438 64.5549 7.54238 64.555 7.77039 64.5545C8.02063 64.554 8.27086 64.554 8.5211 64.5542C8.98928 64.5547 9.45746 64.5547 9.92564 64.5542C10.4013 64.5537 10.8769 64.5534 11.3525 64.5535L11.9042 64.5537C13.014 64.554 14.1238 64.5538 15.2337 64.5532C16.3352 64.5526 17.4368 64.5522 18.5384 64.5522L19.5801 64.5522C20.3571 64.5521 21.1342 64.5521 21.9112 64.552L22.0185 64.552C23.739 64.5518 25.4595 64.5512 27.18 64.5505C29.5744 64.5496 31.9687 64.5489 34.363 64.5488L36.3686 64.5487C38.6902 64.5485 41.0117 64.5481 43.3332 64.5476C44.0569 64.5474 44.7806 64.5473 45.5042 64.5472C46.9574 64.547 48.4106 64.5467 49.8638 64.5461L50.3234 64.5458C50.8006 64.5456 51.2778 64.5455 51.755 64.5455C52.1997 64.5455 52.6444 64.5454 53.0891 64.5451C53.3427 64.5449 53.5963 64.5447 53.8499 64.5447C54.0832 64.5448 54.3166 64.5448 54.5499 64.5446L54.8039 64.5443C54.9202 64.5445 55.0364 64.5446 55.1527 64.5444L55.2581 64.5442C56.1221 64.5466 56.9866 64.3334 57.7595 63.9478C59.2025 63.1942 60.323 61.9558 60.83 60.3967L60.8607 60.2974C61.0682 59.6413 61.1058 58.953 61.1034 58.2701C61.103 58.1817 61.1029 58.0933 61.103 58.0049C61.1036 57.7582 61.1037 57.5114 61.1032 57.2647C61.1027 56.9938 61.1027 56.7229 61.103 56.4521C61.1034 55.9453 61.1034 55.4386 61.1029 54.9319C61.1025 54.417 61.1022 53.9022 61.1023 53.3873L61.1024 52.7903C61.1027 51.5891 61.1025 50.3879 61.1019 49.1867C61.1013 47.9943 61.1009 46.8019 61.1009 45.6095L61.1009 44.4822C61.1009 43.6413 61.1008 42.8003 61.1007 41.9594L61.1007 41.8433C61.1005 39.9811 61.0999 38.1189 61.0992 36.2567C61.0983 33.6651 61.0977 31.0735 61.0975 28.4819L61.0974 26.3112C61.0973 23.7986 61.0968 21.2861 61.0963 18.7735C61.0961 17.9902 61.096 17.207 61.0959 16.4237C61.0957 14.8508 61.0954 13.2778 61.0948 11.7049L61.0946 11.2075C61.0943 10.691 61.0942 10.1744 61.0942 9.65789C61.0942 9.14823 61.0941 8.63856 61.0938 8.12889L61.0937 8.09286C61.0936 7.8587 61.0934 7.62454 61.0934 7.39038C61.0935 7.13778 61.0935 6.88518 61.0933 6.63258L61.0931 6.35781C61.0932 6.2319 61.0933 6.10599 61.0931 5.98008L61.0929 5.86617C61.0932 5.7366 61.093 5.60734 61.0877 5.47787C60.9633 4.03857 60.3058 2.57113 59.1989 1.61825L59.0884 1.52416C57.8821 0.431646 56.3899 -0.00586661 54.7821 0.000384501C54.7008 0.000723082 54.6195 0.000825265 54.5382 0.000726741C54.3109 0.000179855 54.0837 7.19341e-05 53.8565 0.000536511C53.6071 0.00105056 53.3578 0.00102157 53.1085 0.000801807C52.6419 0.000367087 52.1754 0.000372259 51.7088 0.000827477C51.235 0.00129858 50.7611 0.00159692 50.2872 0.00148571L49.7374 0.00133694C48.6314 0.00100802 47.5255 0.00121271 46.4196 0.00180896C45.322 0.00240314 44.2243 0.00280914 43.1266 0.0028466L42.0885 0.00287791C41.3141 0.00289232 40.5398 0.00293944 39.7654 0.00302174L39.6585 0.00303328C37.944 0.00321739 36.2295 0.00384806 34.515 0.0045306C32.1291 0.00548079 29.7433 0.00609532 27.3574 0.00623998L25.3589 0.00636202C23.0454 0.0065003 20.7318 0.00693985 18.4183 0.00745604C17.6972 0.00761703 16.9761 0.00776799 16.2549 0.00786515C14.8069 0.00805916 13.3589 0.00831964 11.9109 0.00898392L11.4528 0.00919149C10.9774 0.00940572 10.5019 0.0095137 10.0264 0.00953419C9.58332 0.00955283 9.14019 0.00967427 8.69706 0.00994729L8.6106 0.0100078C8.38669 0.0101655 8.16278 0.0103232 7.93887 0.0102968C7.70639 0.0102286 7.47391 0.0102015 7.24144 0.0104281ZM38.1513 8.64217C38.0819 8.61667 38.0126 8.59109 37.9433 8.56544C37.2111 8.28774 36.7827 8.27095 36.0954 8.67291C35.9566 8.75432 35.8173 8.83496 35.6779 8.91524C35.5438 8.9924 35.4097 9.06957 35.2756 9.14686C35.0893 9.25435 34.903 9.36184 34.7165 9.46916C34.2444 9.74084 33.7726 10.0129 33.3022 10.2875C33.0466 10.4368 32.7907 10.5856 32.5341 10.733C32.3517 10.8378 32.1694 10.9427 31.9873 11.048C31.9088 11.0934 31.8302 11.1389 31.7517 11.1843C31.4906 11.3332 31.2422 11.4789 31.0224 11.6861C30.5634 12.1783 30.3788 12.7135 30.3858 13.3822C30.3864 13.4391 30.3868 13.496 30.3868 13.5529C30.3866 13.709 30.3869 13.865 30.388 14.0211C30.3892 14.1865 30.3897 14.3519 30.3899 14.5172C30.3903 14.8299 30.3913 15.1426 30.393 15.4553C30.3948 15.8139 30.396 16.1724 30.3968 16.5309C30.3985 17.2723 30.4012 18.0137 30.4048 18.755L30.4053 18.8471L30.0739 18.7304C29.8325 18.6453 29.5912 18.5599 29.3503 18.4734L29.2348 18.4319C28.9276 18.3215 28.6209 18.2099 28.3146 18.0971L28.0822 18.0116C27.7406 17.8858 27.3984 17.7623 27.0542 17.6441C26.6817 17.5167 26.3108 17.3867 25.9426 17.2473C25.5536 17.0999 25.1631 16.9569 24.7717 16.8159L24.6753 16.7811C24.5253 16.727 24.3753 16.6728 24.2251 16.6192C24.1045 16.5762 23.9839 16.5331 23.8637 16.4889C23.8002 16.4654 23.7367 16.4421 23.6731 16.419L23.5814 16.3856C23.4762 16.3461 23.373 16.3116 23.2651 16.2793C23.1366 16.2705 23.0519 16.2648 22.9697 16.2763C22.811 16.2986 22.6614 16.3853 22.2231 16.6393C22.1553 16.6789 22.0875 16.7186 22.0196 16.758C21.9229 16.8141 21.8261 16.8703 21.7294 16.9265C21.5236 17.0463 21.3174 17.1653 21.1111 17.2841L20.848 17.4356C20.6706 17.5378 20.4933 17.6401 20.3159 17.7422L19.9143 17.9733C19.5684 18.1725 19.2234 18.373 18.8789 18.5745C18.6558 18.7053 18.4327 18.8356 18.2054 18.9591C17.7838 19.1873 17.3725 19.4212 17.014 19.7432C16.5619 20.2195 16.4796 20.7895 16.4814 21.4186C16.4816 21.4784 16.4816 21.5383 16.4815 21.5981C16.4811 21.7279 16.4808 21.8578 16.4808 21.9876C16.481 22.1959 16.4807 22.4043 16.4801 22.6126C16.4781 23.2072 16.4769 23.8019 16.4766 24.3966C16.4764 24.7287 16.476 25.0608 16.4747 25.3928C16.4739 25.6027 16.4732 25.8126 16.4736 26.0225C16.4739 26.1551 16.4738 26.2876 16.4731 26.4201C16.4728 26.4822 16.4725 26.5442 16.4723 26.6063L16.4723 26.6157C16.4739 26.8789 16.4755 27.1355 16.4177 27.3937C16.2702 27.8924 16.0337 28.2142 15.5843 28.4759L15.5027 28.5225C15.4067 28.5781 15.3107 28.6336 15.2146 28.6888C15.1383 28.7326 15.0622 28.7764 14.986 28.8204C14.7185 28.9749 14.4507 29.1292 14.1829 29.2833C14.0023 29.3872 13.8218 29.4911 13.6412 29.595L13.5085 29.6714C13.1686 29.8671 12.8295 30.0643 12.491 30.2625C12.2413 30.4088 11.9907 30.5533 11.7375 30.6935C11.664 30.734 11.59 30.7743 11.5158 30.8147C11.0411 31.0731 10.5595 31.3352 10.1654 31.7069C9.76585 32.136 9.58001 32.6498 9.57524 33.2336L9.57651 33.3809C9.57588 33.5501 9.57537 33.7193 9.57613 33.8885C9.57685 34.0442 9.57684 34.1999 9.57657 34.3555C9.57602 34.6609 9.57619 34.9663 9.57694 35.2717C9.57782 35.6302 9.57804 35.9887 9.57801 36.3472C9.57794 36.9859 9.5785 37.6246 9.57968 38.2633C9.58083 38.8851 9.58161 39.5069 9.58158 40.1287L9.58156 40.3613C9.58149 41.0727 9.58187 41.7841 9.58259 42.4954C9.58285 42.7462 9.58302 42.9971 9.58305 43.2479C9.5831 43.5563 9.58332 43.8647 9.584 44.1731C9.58439 44.3304 9.58484 44.4878 9.58482 44.6451C9.58473 44.7911 9.58472 44.937 9.58522 45.0829L9.58577 45.2421L9.58539 45.3919L9.58619 45.5283C9.58628 45.5912 9.58633 45.6205 9.58792 45.6498C9.5893 45.6754 9.59187 45.7009 9.59669 45.7487C9.621 45.8098 9.63773 45.8519 9.66201 45.8891C9.71554 45.971 9.80577 46.0291 10.095 46.2153L10.1781 46.2684C10.274 46.3299 10.3699 46.3915 10.4659 46.4528L11.0859 46.8492C11.4612 47.0889 11.8359 47.3296 12.2096 47.5718C12.5903 47.8186 12.9714 48.0647 13.3538 48.3089C13.6743 48.5135 13.9948 48.7181 14.3135 48.9254C14.6096 49.1183 14.9063 49.3101 15.2041 49.5004C15.253 49.5317 15.302 49.5629 15.3509 49.5941C15.6096 49.7593 15.8683 49.9244 16.1263 50.0907L16.2116 50.1456C16.3477 50.2329 16.4837 50.32 16.6161 50.4129L16.6998 50.4725C16.7538 50.5104 16.8079 50.5484 16.8618 50.5864C16.9559 50.6564 17.0391 50.7072 17.1449 50.7621C17.3903 50.8024 17.5748 50.7394 17.784 50.6171C18.0102 50.4737 18.2382 50.3344 18.4701 50.2004L18.7647 50.0309C18.9599 49.9185 19.1547 49.8053 19.3493 49.692L19.4836 49.6137C19.7039 49.4854 19.9242 49.357 20.1436 49.2273C20.4621 49.0389 20.7826 48.8545 21.1052 48.6732C21.3481 48.5367 21.5906 48.3996 21.8311 48.2589C21.9919 48.1646 22.1529 48.0705 22.3142 47.9769L22.3196 47.9738C22.4278 47.9111 22.5359 47.8485 22.6434 47.7849C22.7687 47.7106 22.8942 47.6367 23.0203 47.5638C23.0696 47.5354 23.1189 47.507 23.1682 47.4784L23.3097 47.3937L23.4426 47.3178L23.5597 47.2492C23.6159 47.2268 23.6449 47.2152 23.6735 47.216C23.7039 47.2169 23.734 47.2318 23.796 47.2625L23.9179 47.3383L24.0275 47.4024L24.1394 47.4714L24.2668 47.5499C24.3354 47.5924 24.4041 47.6348 24.4727 47.6772C24.8095 47.885 25.1455 48.0941 25.4811 48.3038C25.7823 48.4923 26.084 48.6802 26.3864 48.8668C26.6478 49.0282 26.9088 49.1903 27.1693 49.3533C27.5575 49.5962 27.9467 49.8375 28.3372 50.0769C28.5851 50.2285 28.8328 50.3802 29.0768 50.538C29.1145 50.5623 29.1519 50.5868 29.1892 50.6112C29.5607 50.8545 29.9204 51.09 30.3805 51.1094L30.4716 51.1111C30.8766 51.1202 31.2024 50.9438 31.5472 50.7473L31.6625 50.6806L31.912 50.5378C32.0315 50.469 32.1509 50.4003 32.2707 50.3321C32.684 50.0976 33.0958 49.8605 33.5062 49.6209C33.7766 49.4629 34.0473 49.3055 34.3195 49.1505C34.7052 48.9312 35.0893 48.7092 35.4725 48.4855C35.6924 48.3571 35.9123 48.2288 36.1327 48.1012L36.2271 48.0465C36.3911 47.9515 36.5553 47.8567 36.7203 47.7633L37.0712 47.565C37.089 47.555 37.1069 47.5451 37.1247 47.5352C37.316 47.4286 37.5042 47.3238 37.6679 47.1753C37.7844 46.9946 37.8132 46.859 37.7903 46.6454C37.7648 46.5706 37.7469 46.5179 37.7188 46.4712C37.6519 46.3601 37.5275 46.2834 37.1065 46.0239L37.0023 45.9601C36.8854 45.8882 36.7684 45.8162 36.6514 45.7444C36.5662 45.6922 36.481 45.6398 36.3958 45.5875L35.995 45.3411C35.6012 45.0991 35.2078 44.8566 34.8148 44.6133C34.6389 44.5044 34.4629 44.3955 34.2869 44.2867L33.3226 43.6903C33.1415 43.5783 32.9604 43.4662 32.7791 43.3545L32.4351 43.1426C32.1765 42.9838 31.9216 42.8208 31.6701 42.6509C31.9725 42.4797 32.2736 42.3063 32.5737 42.1309C32.9544 41.9084 33.3361 41.6876 33.7193 41.4693C34.1042 41.2503 34.4882 41.03 34.8704 40.8065C35.1771 40.6272 35.4847 40.4496 35.7936 40.2741C36.0039 40.1547 36.2136 40.0347 36.4202 39.9089C36.6885 39.7454 36.9605 39.5883 37.2343 39.434L37.3848 39.3494L37.5306 39.2664L37.6693 39.1889C37.7318 39.1526 37.7622 39.1349 37.7935 39.119C37.8231 39.1039 37.8535 39.0904 37.9127 39.0641L37.9263 39.0605C38.0437 39.0297 38.1218 39.0092 38.2389 39.0553L38.3113 39.1074L38.3954 39.1652C38.4547 39.2067 38.5151 39.2467 38.5764 39.2852L38.6731 39.3443L41.525 41.1078C41.6898 41.2098 41.8547 41.3117 42.0196 41.4135L42.3447 41.6141C42.5555 41.744 42.7658 41.8746 42.9741 42.0085C43.1041 42.0921 43.2344 42.1748 43.3657 42.2564L43.5432 42.3656C43.8176 42.5392 44.0658 42.6638 44.3937 42.6799L44.4893 42.6815C44.6173 42.6843 44.7044 42.6863 44.7889 42.6728C44.9687 42.6443 45.1374 42.5465 45.6645 42.2408L45.795 42.1644C45.9364 42.0821 46.0778 41.9999 46.219 41.9173C46.351 41.8401 46.483 41.7631 46.6151 41.6861L46.8609 41.5428C47.1677 41.3636 47.4752 41.186 47.784 41.0103C48.0044 40.885 48.2244 40.7591 48.4427 40.6302C48.7797 40.4308 49.1191 40.236 49.4594 40.0423C49.7751 39.8626 50.0905 39.6825 50.4029 39.4971C50.5416 39.4144 50.6803 39.3325 50.8222 39.2555L50.9251 39.2005C50.9924 39.1643 51.0597 39.1281 51.1271 39.0921L51.1281 39.0916C51.242 39.0328 51.3539 38.9751 51.4587 38.901C51.5855 38.7371 51.604 38.6184 51.5811 38.4119C51.5581 38.3828 51.5432 38.3639 51.5265 38.3468C51.4955 38.315 51.4583 38.2893 51.3519 38.2161L51.219 38.1317C50.9391 37.9537 50.657 37.7795 50.3748 37.6054C50.1411 37.4614 49.908 37.3165 49.6752 37.1709C49.2443 36.9011 48.812 36.6336 48.3787 36.3677C48.1373 36.2195 47.896 36.0712 47.6551 35.9222L47.1337 35.5995C46.6477 35.2984 46.1613 34.9981 45.673 34.7007L45.5425 34.6212C45.929 34.3735 46.1223 34.2496 46.3189 34.1312C46.5157 34.0127 46.7157 33.8997 47.1159 33.6735C47.4257 33.4953 47.7352 33.3165 48.0439 33.1363C48.3856 32.9367 48.7278 32.7381 49.0718 32.5425C49.3741 32.3707 49.6746 32.1961 49.9745 32.0202C50.2148 31.8793 50.4557 31.7396 50.6997 31.6051L50.7749 31.5637C50.8736 31.5095 50.9722 31.4552 51.071 31.4012C51.1196 31.3749 51.1689 31.349 51.2184 31.323C51.4623 31.1947 51.7116 31.0636 51.9075 30.8713C52.1207 30.5768 52.1396 30.2881 52.1334 29.9336C52.1323 29.8725 52.1317 29.8115 52.1313 29.7504C52.131 29.6145 52.1304 29.4787 52.1289 29.3428C52.1262 29.1148 52.1241 28.8868 52.1229 28.6588C52.1216 28.4035 52.1203 28.1481 52.1184 27.8928C52.1126 27.1358 52.1098 26.3788 52.1089 25.6217L52.1079 24.8158C52.1069 24.0076 52.1047 23.1993 52.1024 22.3911L52.1008 21.82C52.0993 21.3014 52.0982 20.7828 52.0973 20.2641C52.0965 19.7209 52.0952 19.1777 52.0935 18.6344C52.0924 18.3028 52.0914 17.9712 52.0912 17.6397C52.091 17.413 52.0905 17.1864 52.0896 16.9597C52.0891 16.8546 52.0887 16.7496 52.0883 16.6445V16.6396C52.0884 16.4952 52.0885 16.351 52.0878 16.2066L52.0869 16.0742C52.0882 15.8097 52.0719 15.5858 51.9805 15.336C51.9174 15.1877 51.86 15.0893 51.7074 15.0225L51.6085 14.9878L51.4861 14.9448L51.3363 14.8934C51.0886 14.8083 50.8407 14.7238 50.5927 14.6398L49.8152 14.3759C49.4834 14.2633 49.1516 14.1505 48.8198 14.0376L48.81 14.0343C48.6567 13.9821 48.5034 13.93 48.3501 13.8779L48.3445 13.876C47.971 13.7491 47.5975 13.6222 47.2242 13.4944C47.0357 13.4298 46.8472 13.3653 46.6586 13.3008L46.384 13.207L46.3824 13.2064C46.2534 13.1621 46.1245 13.1177 45.9954 13.0736L45.8756 13.0328C45.669 12.9614 45.4649 12.8944 45.2514 12.8469L45.0937 12.8147C45.0962 12.6854 45.0982 12.5562 45.0997 12.4269L45.1013 12.2669L45.102 12.2364C45.108 11.9386 45.1137 11.6625 45.0065 11.3794C44.8988 11.1568 44.772 11.0569 44.5367 10.9734C44.471 10.9503 44.4056 10.9265 44.3404 10.9021C43.7782 10.6888 43.2137 10.4818 42.6481 10.2777C42.3954 10.1866 42.1426 10.0954 41.8899 10.0041L41.7305 9.9465C41.271 9.7806 40.8118 9.61416 40.3527 9.44715C40.1632 9.3782 39.9737 9.30923 39.7841 9.24049C39.7254 9.21926 39.6668 9.19804 39.6082 9.17683C39.2738 9.05584 38.9395 8.93485 38.6063 8.81085C38.4547 8.75435 38.3031 8.69807 38.1513 8.64217Z" fill="#270741"/>
<path d="M23.6986 16.8856C23.7873 16.9197 23.876 16.9538 23.9647 16.9878C24.0339 17.0144 24.0339 17.0144 24.1045 17.0415C24.3301 17.127 24.5574 17.2076 24.7849 17.2881C24.8815 17.3224 24.9782 17.3567 25.0748 17.3911C25.1251 17.4089 25.1753 17.4268 25.2271 17.4452C25.5194 17.5492 25.8114 17.6542 26.1033 17.7594C26.134 17.7704 26.1648 17.7815 26.1965 17.7929C26.6939 17.9722 27.1896 18.1556 27.6849 18.3406C28.12 18.503 28.5565 18.6596 28.9969 18.8073C29.2815 18.9035 29.558 19.014 29.834 19.1325C29.6992 19.2448 29.5652 19.3374 29.4114 19.4219C29.3696 19.445 29.3278 19.4681 29.2847 19.492C29.2405 19.5162 29.1962 19.5405 29.1506 19.5655C28.8539 19.7299 28.5575 19.8943 28.2657 20.0674C27.9814 20.236 27.6954 20.4018 27.4089 20.5667C27.3637 20.5927 27.3185 20.6188 27.2719 20.6456C27.0448 20.7763 26.8176 20.9069 26.5903 21.0373C26.3707 21.1635 26.1513 21.2901 25.9321 21.4171C25.8374 21.4719 25.7426 21.5265 25.6476 21.5809C25.5231 21.6522 25.399 21.7241 25.275 21.7962C25.2057 21.8364 25.1362 21.876 25.0667 21.9157C24.5757 22.2027 24.1362 22.5506 23.952 23.1073C23.8506 23.4971 23.813 23.8645 23.8159 24.2673C23.8158 24.3294 23.8156 24.3915 23.8153 24.4535C23.8148 24.5857 23.8148 24.7179 23.8152 24.8501C23.8158 25.0595 23.8153 25.2689 23.8145 25.4783C23.8133 25.8847 23.8132 26.2911 23.8133 26.6975C23.8134 27.2157 23.8129 27.7339 23.8113 28.2521C23.8107 28.4599 23.8107 28.6677 23.8112 28.8756C23.8114 29.005 23.8111 29.1344 23.8107 29.2639C23.8106 29.3235 23.8107 29.3831 23.811 29.4428C23.814 29.9973 23.7278 30.4284 23.3518 30.8484C23.1513 31.0376 22.9104 31.167 22.6725 31.3028C22.5591 31.3675 22.446 31.4329 22.333 31.4983C22.1057 31.6298 21.8781 31.7607 21.6504 31.8915C21.4269 32.0199 21.2036 32.1487 20.9802 32.2775C20.7141 32.4309 20.4479 32.5843 20.1817 32.7375C19.9173 32.8897 19.6531 33.0421 19.3889 33.1946C19.3457 33.2196 19.3024 33.2446 19.2578 33.2703C18.8496 33.5062 18.4414 33.7422 18.04 33.9894C18.015 34.0046 17.99 34.0198 17.9642 34.0355C17.4428 34.3611 17.1431 34.7954 16.9802 35.3859C16.922 35.6528 16.9299 35.9211 16.9311 36.1929C16.931 36.2529 16.931 36.3129 16.9309 36.3729C16.9307 36.5371 16.931 36.7012 16.9314 36.8654C16.9318 37.0426 16.9316 37.2199 16.9316 37.3972C16.9315 37.7041 16.9318 38.0111 16.9322 38.318C16.9329 38.7617 16.9331 39.2055 16.9332 39.6493C16.9334 40.3693 16.9339 41.0893 16.9347 41.8093C16.9355 42.5086 16.936 43.2079 16.9364 43.9072C16.9364 43.9719 16.9364 43.9719 16.9365 44.0379C16.9366 44.2543 16.9367 44.4706 16.9368 44.687C16.9376 46.4811 16.9391 48.2751 16.9409 50.0692C16.8635 50.0245 16.7862 49.9796 16.709 49.9348C16.6444 49.8973 16.6444 49.8973 16.5785 49.8591C16.3983 49.7526 16.2232 49.6391 16.0484 49.5241C15.9772 49.4776 15.9061 49.4311 15.8349 49.3846C15.8008 49.3622 15.7666 49.3399 15.7314 49.3168C15.6021 49.2324 15.4721 49.1488 15.342 49.0655C15.1708 48.9559 15 48.8458 14.8294 48.7353C14.5071 48.5266 14.184 48.3194 13.8604 48.1128C13.4315 47.8388 13.0038 47.5633 12.5767 47.2865C12.1622 47.0178 11.7464 46.7513 11.33 46.4855C11.0098 46.2809 10.6907 46.0746 10.3726 45.8668C10.3256 45.8361 10.3256 45.8361 10.2777 45.8049C10.2368 45.7781 10.2368 45.7781 10.1951 45.7508C10.1262 45.7058 10.1262 45.7058 10.0455 45.6672C10.0035 44.3093 9.99738 42.9517 9.99652 41.5933C9.9964 41.4151 9.99623 41.2369 9.99605 41.0587C9.99555 40.5622 9.99513 40.0658 9.99499 39.5693C9.99498 39.5379 9.99497 39.5066 9.99496 39.4742C9.99496 39.4428 9.99495 39.4114 9.99494 39.379C9.99492 39.3154 9.9949 39.2518 9.99488 39.1881C9.99487 39.1566 9.99486 39.125 9.99485 39.0925C9.99469 38.5777 9.99398 38.0628 9.99303 37.548C9.99206 37.0156 9.99155 36.4831 9.99151 35.9506C9.99147 35.6532 9.99124 35.3558 9.99049 35.0583C9.9898 34.7797 9.98973 34.5011 9.99009 34.2225C9.99012 34.1206 9.98995 34.0188 9.98954 33.9169C9.98453 32.5752 9.98453 32.5752 10.4843 32.0137C10.8005 31.7029 11.2147 31.4986 11.5959 31.2789C11.6798 31.2303 11.7637 31.1817 11.8476 31.1331C12.0715 31.0035 12.2958 30.8746 12.5202 30.7459C12.7427 30.6182 12.9649 30.49 13.1872 30.3618C13.2753 30.311 13.3634 30.2602 13.4516 30.2094C13.6311 30.106 13.8105 30.0025 13.99 29.899C14.0348 29.8731 14.0797 29.8472 14.1259 29.8206C14.2152 29.7691 14.3044 29.7175 14.3937 29.666C14.6014 29.5462 14.8094 29.4269 15.0183 29.3091C15.5844 28.9899 15.5844 28.9899 16.1249 28.6295C16.1522 28.6102 16.1794 28.5909 16.2076 28.5711C16.5941 28.2729 16.7627 27.8299 16.8593 27.366C16.88 27.1509 16.8808 26.9378 16.879 26.7221C16.879 26.6599 16.8792 26.5976 16.8794 26.5353C16.8798 26.4024 16.8796 26.2696 16.8791 26.1367C16.8783 25.9261 16.8787 25.7155 16.8793 25.5048C16.8804 25.0578 16.8801 24.6108 16.8797 24.1638C16.8792 23.6808 16.879 23.1979 16.8804 22.7149C16.8809 22.506 16.8807 22.2972 16.8798 22.0883C16.8795 21.9579 16.8798 21.8275 16.8803 21.697C16.8803 21.6371 16.8802 21.5772 16.8797 21.5173C16.8756 20.9966 16.9378 20.5018 17.3081 20.1107C17.3323 20.0834 17.3566 20.0562 17.3816 20.0281C17.7098 19.6966 18.1354 19.4981 18.5408 19.2767C18.6935 19.1925 18.8438 19.1044 18.9937 19.0153C19.3268 18.818 19.6623 18.6249 19.998 18.4319C20.3014 18.2573 20.604 18.0813 20.9062 17.9046C21.2712 17.6912 21.6382 17.4819 22.0068 17.2749C22.2471 17.1398 22.4858 17.0027 22.7222 16.8609C23.0887 16.6592 23.3276 16.7388 23.6986 16.8856Z" fill="#270741"/>
<path d="M37.6463 8.91493C37.6832 8.92869 37.72 8.94245 37.758 8.95663C37.8372 8.98625 37.9163 9.01603 37.9954 9.04595C38.2074 9.12612 38.4198 9.20511 38.6321 9.28431C38.6751 9.30037 38.718 9.31643 38.7622 9.33298C39.1502 9.47793 39.5397 9.61858 39.9298 9.75767C40.0587 9.80372 40.1876 9.8498 40.3166 9.89587C40.3654 9.91331 40.3654 9.91331 40.4153 9.93111C40.8496 10.0863 41.2835 10.2429 41.7174 10.3996C41.7582 10.4144 41.799 10.4291 41.841 10.4443C42.4776 10.6743 43.1132 10.9066 43.7472 11.1435C43.6153 11.2532 43.485 11.3448 43.3346 11.4272C43.2741 11.4606 43.2741 11.4606 43.2124 11.4947C43.1693 11.5184 43.1261 11.542 43.0817 11.5664C42.7309 11.7605 42.3821 11.9573 42.0361 12.16C41.6976 12.3581 41.3586 12.5553 41.0187 12.751C40.9748 12.7762 40.931 12.8014 40.8859 12.8274C40.7054 12.9314 40.5248 13.0352 40.3443 13.1391C40.2982 13.1656 40.2522 13.1921 40.2047 13.2194C40.159 13.2457 40.1134 13.2719 40.0664 13.299C39.9326 13.376 39.799 13.4533 39.6654 13.5307C39.5172 13.6163 39.3685 13.7009 39.2188 13.7838C38.7222 14.0615 38.2715 14.3802 37.9943 14.8934C37.9785 14.9226 37.9627 14.9518 37.9465 14.9819C37.7382 15.4071 37.7376 15.8592 37.739 16.3236C37.7389 16.3842 37.7388 16.4449 37.7386 16.5055C37.7383 16.6353 37.7382 16.765 37.7383 16.8948C37.7384 17.1004 37.7378 17.306 37.7371 17.5117C37.7352 18.0962 37.7342 18.6806 37.7339 19.2651C37.7338 19.5886 37.733 19.912 37.7317 20.2355C37.7309 20.4394 37.7308 20.6434 37.7312 20.8473C37.7313 20.9747 37.7307 21.1022 37.73 21.2296C37.7298 21.2881 37.7298 21.3467 37.7302 21.4052C37.7332 21.9382 37.6668 22.3849 37.2927 22.784C36.9926 23.042 36.6562 23.2398 36.3119 23.4329C36.2374 23.4747 36.1631 23.5168 36.0887 23.5589C36.0113 23.6028 35.9338 23.6466 35.8563 23.6904C35.6008 23.8348 35.3465 23.9813 35.0923 24.1281C35.0046 24.1787 34.917 24.2292 34.8293 24.2798C34.7861 24.3048 34.7428 24.3298 34.6983 24.3555C34.522 24.4572 34.3456 24.5588 34.1693 24.6605C34.0811 24.7113 33.9929 24.7621 33.9047 24.8129C33.6792 24.9429 33.4537 25.0729 33.228 25.2027C33.1363 25.2555 33.0445 25.3083 32.9528 25.3611C32.9087 25.3864 32.8645 25.4118 32.8191 25.4379C32.6231 25.5508 32.4274 25.6642 32.2332 25.7801C32.1855 25.8085 32.1855 25.8085 32.1369 25.8375C32.0798 25.8717 32.0227 25.906 31.9658 25.9407C31.6058 26.156 31.6058 26.156 31.3896 26.1279C31.3467 26.1153 31.3467 26.1153 31.3029 26.1024C31.1966 25.8201 31.2096 25.5367 31.2102 25.2387C31.21 25.18 31.2098 25.1213 31.2096 25.0626C31.2091 24.9367 31.2089 24.8107 31.2088 24.6847C31.2088 24.485 31.208 24.2854 31.2072 24.0858C31.2052 23.5899 31.2039 23.0939 31.203 22.598C31.2024 22.2126 31.2014 21.8273 31.1997 21.442C31.1988 21.2439 31.1984 21.0459 31.1985 20.8479C31.1985 20.7241 31.1979 20.6004 31.1972 20.4766C31.1969 20.4197 31.1969 20.3627 31.1971 20.3058C31.1984 19.9147 31.1928 19.5035 30.9739 19.1656C30.8999 19.0894 30.8999 19.0894 30.8133 19.0509C30.8094 18.2796 30.8066 17.5082 30.8048 16.7368C30.804 16.3786 30.8028 16.0204 30.801 15.6622C30.7993 15.3498 30.7983 15.0373 30.7979 14.7249C30.7977 14.5596 30.7972 14.3944 30.796 14.2292C30.7949 14.0732 30.7946 13.9173 30.7948 13.7613C30.7948 13.7045 30.7944 13.6477 30.7938 13.5909C30.7876 13.0073 30.8891 12.4663 31.3043 12.0356C31.5163 11.8373 31.7445 11.6927 31.9965 11.5511C32.0536 11.5182 32.1106 11.4852 32.1675 11.4521C32.3348 11.3549 32.5023 11.2582 32.6698 11.1615C32.8288 11.0698 32.9877 10.9781 33.1466 10.8862C33.1782 10.8679 33.2098 10.8496 33.2424 10.8308C33.5016 10.6809 33.7602 10.5301 34.0187 10.3793C34.4502 10.1275 34.8828 9.87759 35.3159 9.62854C35.4795 9.5344 35.643 9.43993 35.8061 9.34499C35.879 9.30258 35.952 9.26023 36.0249 9.21791C36.1165 9.16473 36.208 9.11143 36.2995 9.05799C36.415 8.99106 36.531 8.92541 36.6478 8.86095C36.6748 8.8459 36.7019 8.83084 36.7297 8.81533C37.0364 8.66226 37.3492 8.80121 37.6463 8.91493Z" fill="#270741"/>
<path d="M30.6501 27.3252C30.7735 27.484 30.7883 27.6084 30.7901 27.8063C30.7905 27.8339 30.7909 27.8615 30.7913 27.89C30.7925 27.9832 30.7929 28.0764 30.7933 28.1697C30.7939 28.2377 30.7947 28.3057 30.7955 28.3738C30.7974 28.5628 30.7986 28.7519 30.7996 28.941C30.8006 29.1048 30.802 29.2686 30.8034 29.4324C30.8227 31.7535 30.818 34.0749 30.8162 36.396C30.8159 36.8367 30.8157 37.2774 30.8155 37.7181C30.8155 37.7496 30.8155 37.7812 30.8155 37.8136C30.8154 37.9719 30.8154 38.1303 30.8153 38.2886C30.8149 39.5796 30.8142 40.8707 30.8133 42.1618C30.7421 42.1167 30.671 42.0715 30.5999 42.0263C30.5602 42.0012 30.5206 41.976 30.4798 41.9501C30.3249 41.8512 30.1712 41.7506 30.0178 41.6494C29.9704 41.6182 29.9704 41.6182 29.922 41.5864C29.8187 41.5184 29.7154 41.4503 29.6122 41.3823C29.5387 41.3339 29.4653 41.2855 29.3918 41.2372C29.2375 41.1355 29.0831 41.0338 28.9287 40.9321C28.693 40.7769 28.4571 40.6217 28.2213 40.4666C27.4606 39.9663 26.7004 39.4651 25.9433 38.9594C25.7634 38.8393 25.5832 38.7195 25.403 38.5998C25.3005 38.5316 25.198 38.4635 25.0955 38.3953C25.0282 38.3505 24.9608 38.3058 24.8935 38.2611C24.7998 38.1988 24.7061 38.1365 24.6124 38.0742C24.584 38.0553 24.5556 38.0365 24.5263 38.0171C24.3305 37.8867 24.3305 37.8867 24.2851 37.8413C24.28 37.7759 24.2778 37.7102 24.2767 37.6447C24.2759 37.6019 24.2751 37.5591 24.2742 37.515C24.2736 37.4673 24.2729 37.4197 24.2722 37.3706C24.2713 37.3203 24.2705 37.27 24.2696 37.2182C24.2673 37.0783 24.2653 36.9384 24.2633 36.7985C24.2621 36.7103 24.2609 36.6221 24.2596 36.534C24.2447 35.4868 24.2387 34.4395 24.2369 33.3922C24.2366 33.2764 24.2362 33.1606 24.2358 33.0447C24.2351 32.8608 24.2349 32.6769 24.2349 32.493C24.2349 32.4251 24.2347 32.3572 24.2344 32.2893C24.2318 31.6881 24.26 31.1491 24.688 30.6853C24.9055 30.4822 25.1518 30.339 25.4094 30.194C25.5224 30.1301 25.6349 30.0651 25.7472 30.0001C25.9745 29.8685 26.2021 29.7376 26.4298 29.6068C26.6551 29.4773 26.8803 29.3477 27.1055 29.218C27.1495 29.1926 27.1934 29.1673 27.2388 29.1412C27.5315 28.9725 27.8236 28.8025 28.1153 28.6321C28.613 28.3413 29.1134 28.0555 29.6145 27.7707C29.7129 27.7146 29.8111 27.6582 29.9092 27.6016C29.9352 27.5866 29.9611 27.5717 29.9878 27.5563C30.0378 27.5275 30.0877 27.4986 30.1376 27.4697C30.3077 27.3718 30.4504 27.2953 30.6501 27.3252Z" fill="#270741"/>
<path d="M44.5633 19.3363C44.688 19.5231 44.6908 19.6909 44.6921 19.9117C44.6925 19.9622 44.6929 20.0126 44.6933 20.0646C44.6936 20.1204 44.6938 20.1763 44.694 20.2321C44.6944 20.2915 44.6948 20.3509 44.6953 20.4103C44.6964 20.5735 44.6972 20.7368 44.698 20.9C44.6988 21.0399 44.6996 21.1798 44.7005 21.3198C44.7028 21.7002 44.7049 22.0806 44.7068 22.461C44.7082 22.7407 44.7097 23.0203 44.7112 23.2999C44.7306 26.8291 44.7309 30.3583 44.7265 33.8875C44.6488 33.8491 44.5713 33.8106 44.4937 33.772C44.4289 33.7398 44.4289 33.7398 44.3628 33.707C44.1922 33.6203 44.0269 33.526 43.862 33.429C43.829 33.4098 43.796 33.3905 43.762 33.3707C43.6618 33.3122 43.5617 33.2535 43.4616 33.1946C43.4319 33.1772 43.4021 33.1597 43.3715 33.1417C43.2575 33.0748 43.1436 33.0078 43.0298 32.9407C42.8139 32.8136 42.5973 32.688 42.3804 32.5628C42.1064 32.4048 41.8334 32.2453 41.5609 32.0847C41.345 31.9577 41.1284 31.8321 40.9115 31.7069C40.6425 31.5516 40.3742 31.3952 40.1065 31.2374C39.8927 31.1115 39.6784 30.9866 39.4639 30.8618C39.1372 30.6719 38.8107 30.4818 38.4864 30.2879C38.4614 30.273 38.4363 30.258 38.4105 30.2426C38.2441 30.1427 38.2441 30.1427 38.1983 30.0969C38.1917 29.9929 38.1879 29.8899 38.1857 29.7858C38.1845 29.7362 38.1845 29.7362 38.1832 29.6855C38.1806 29.5734 38.1782 29.4613 38.176 29.3492C38.1751 29.31 38.1743 29.2708 38.1734 29.2304C38.1519 28.2178 38.1484 27.2051 38.1477 26.1923C38.1474 25.9271 38.1464 25.662 38.1453 25.3968C38.1445 25.1894 38.1443 24.9821 38.1443 24.7747C38.1441 24.6768 38.1438 24.5789 38.1433 24.481C38.1426 24.3451 38.1427 24.2093 38.1429 24.0734C38.1426 24.0341 38.1422 23.9949 38.1418 23.9544C38.1447 23.4658 38.254 23.0362 38.6019 22.6813C38.8368 22.4664 39.0834 22.3134 39.3637 22.164C39.4548 22.1142 39.5458 22.0644 39.6368 22.0145C39.6828 21.9894 39.7287 21.9643 39.776 21.9385C39.9857 21.8226 40.1924 21.7019 40.399 21.5806C40.4802 21.533 40.5614 21.4855 40.6427 21.4379C40.7037 21.4022 40.7037 21.4022 40.7659 21.3658C40.9823 21.2396 41.1994 21.1146 41.4165 20.9896C41.4605 20.9642 41.5046 20.9388 41.55 20.9127C41.6394 20.8613 41.7287 20.8098 41.8181 20.7584C41.9955 20.6563 42.1728 20.5541 42.3502 20.4518C42.4379 20.4013 42.5256 20.3508 42.6133 20.3003C42.8196 20.1815 43.0258 20.0625 43.2316 19.9428C43.3283 19.8865 43.4251 19.8304 43.5218 19.7742C43.5897 19.7348 43.6575 19.6952 43.7253 19.6556C44.3417 19.2983 44.3417 19.2983 44.5633 19.3363Z" fill="#270741"/>
<path d="M4.90454 66.8623C6.29178 66.8623 6.29178 66.8623 6.63349 67.1884C6.70864 67.2982 6.70864 67.2982 6.75462 67.3927C6.85397 67.5831 6.97017 67.746 7.1027 67.9144C7.14247 67.9674 7.1821 68.0205 7.2216 68.0737C7.37594 68.2799 7.5327 68.4843 7.68922 68.6889C7.90728 68.9741 8.12347 69.2601 8.33184 69.5525C8.51325 69.3834 8.65389 69.1954 8.7985 68.9946C8.9922 68.7286 9.18922 68.466 9.39267 68.2074C9.62128 67.9164 9.84281 67.6208 10.0611 67.3221C10.0834 67.2916 10.1057 67.2611 10.1287 67.2296C10.1481 67.2029 10.1676 67.1762 10.1876 67.1487C10.2604 67.0515 10.3368 66.9571 10.4127 66.8623C10.8705 66.8623 11.3283 66.8623 11.7999 66.8623C11.7999 69.2162 11.7999 71.5701 11.7999 73.9953C11.3287 73.9953 10.8574 73.9953 10.3719 73.9953C10.3584 72.435 10.345 70.8747 10.3311 69.2672C10.1695 69.4824 10.0079 69.6976 9.84148 69.9193C9.59157 70.2327 9.59157 70.2327 9.46869 70.385C9.3609 70.519 9.25527 70.6543 9.15041 70.7906C9.11801 70.8326 9.08561 70.8747 9.05223 70.9181C8.96878 71.0272 8.88673 71.1373 8.80488 71.2477C8.76905 71.2955 8.76905 71.2955 8.73251 71.3443C8.68536 71.4073 8.63852 71.4706 8.59203 71.5341C8.5706 71.5626 8.54916 71.5912 8.52708 71.6206C8.50809 71.6462 8.48911 71.6719 8.46955 71.6983C8.41344 71.7535 8.41344 71.7535 8.29104 71.7535C8.20991 71.6634 8.20991 71.6634 8.11508 71.5344C8.07851 71.4854 8.04191 71.4364 8.00527 71.3875C7.98559 71.361 7.96591 71.3345 7.94564 71.3072C7.83507 71.1597 7.72117 71.0147 7.60762 70.8695C7.55884 70.807 7.51007 70.7444 7.46131 70.6818C7.42448 70.6346 7.42448 70.6346 7.38692 70.5864C7.31112 70.4891 7.23543 70.3917 7.15976 70.2943C7.13482 70.2622 7.10987 70.2301 7.08418 70.197C7.03722 70.1366 6.99028 70.0762 6.94336 70.0157C6.76908 69.7915 6.59172 69.5704 6.41418 69.3487C6.40072 70.8821 6.38725 72.4155 6.37338 73.9953C5.88866 73.9953 5.40395 73.9953 4.90454 73.9953C4.90454 71.6414 4.90454 69.2875 4.90454 66.8623Z" fill="#270741"/>
<path d="M38.3207 66.8623C42.5519 66.8623 42.5519 66.8623 43.2195 67.4688C43.5917 67.8663 43.7401 68.3644 43.7472 68.9003C43.7183 69.4328 43.5303 69.8429 43.1453 70.2112C43.0513 70.288 42.9552 70.3489 42.8496 70.4084C42.8737 70.4242 42.8979 70.44 42.9228 70.4562C42.955 70.4774 42.9872 70.4986 43.0205 70.5205C43.0522 70.5413 43.0839 70.5621 43.1166 70.5836C43.4625 70.8232 43.7053 71.1424 43.8111 71.5556C43.8916 72.0851 43.8492 72.6844 43.5432 73.1394C43.1686 73.6301 42.6847 73.8984 42.0744 73.9953C41.9518 74.001 41.8293 74.0005 41.7066 73.9999C41.6694 73.9999 41.6322 73.9999 41.5938 73.9999C41.4737 73.9999 41.3535 73.9996 41.2333 73.9993C41.159 73.9992 41.0847 73.9992 41.0103 73.9992C40.7352 73.9989 40.46 73.9984 40.1848 73.9978C39.5696 73.997 38.9545 73.9962 38.3207 73.9953C38.3207 71.6414 38.3207 69.2875 38.3207 66.8623ZM39.7895 68.2482C39.7895 68.7324 39.7895 69.2166 39.7895 69.7155C40.0458 69.7183 40.302 69.7208 40.5583 69.7222C40.6454 69.7228 40.7325 69.7237 40.8196 69.7247C40.9451 69.7262 41.0705 69.7269 41.196 69.7275C41.2347 69.7281 41.2734 69.7287 41.3133 69.7294C41.636 69.7294 41.8763 69.662 42.1152 69.4302C42.2255 69.2047 42.2271 68.9832 42.1968 68.7373C42.1144 68.5003 41.9842 68.3905 41.7637 68.2831C41.5865 68.2195 41.4102 68.2282 41.2239 68.2322C41.1827 68.2325 41.1415 68.2327 41.0991 68.2329C40.9686 68.2338 40.8381 68.2359 40.7075 68.238C40.6186 68.2388 40.5297 68.2395 40.4407 68.2402C40.2236 68.2418 40.0066 68.245 39.7895 68.2482ZM39.7895 71.1013C39.7895 71.6125 39.7895 72.1236 39.7895 72.6502C40.0625 72.654 40.3354 72.6572 40.6083 72.6592C40.7011 72.66 40.7938 72.6611 40.8866 72.6625C41.0203 72.6645 41.154 72.6654 41.2877 72.6661C41.3288 72.667 41.37 72.6678 41.4124 72.6687C41.6682 72.6688 41.8614 72.6347 42.0744 72.4872C42.2455 72.3118 42.3223 72.1472 42.3319 71.9038C42.3258 71.6883 42.2875 71.4893 42.1413 71.3239C41.96 71.1643 41.7848 71.0908 41.545 71.0921C41.5058 71.0921 41.4666 71.0921 41.4263 71.0921C41.3845 71.0925 41.3427 71.093 41.2996 71.0934C41.2565 71.0935 41.2133 71.0936 41.1688 71.0937C41.0312 71.0942 40.8936 71.0952 40.756 71.0963C40.6626 71.0967 40.5691 71.097 40.4757 71.0974C40.247 71.0982 40.0183 71.0998 39.7895 71.1013Z" fill="#270741"/>
<path d="M17.3897 66.8623C17.8879 66.8623 18.3861 66.8623 18.8993 66.8623C19.0852 67.1275 19.2683 67.3928 19.4458 67.6633C19.4697 67.6996 19.4936 67.7358 19.5182 67.7732C19.5689 67.8502 19.6195 67.9272 19.6702 68.0042C19.803 68.2062 19.9361 68.4081 20.0692 68.6101C20.0953 68.6497 20.1215 68.6894 20.1484 68.7303C20.4644 69.2096 20.7834 69.6867 21.1026 70.1639C21.3719 70.5674 21.6412 70.9709 21.9186 71.3867C21.9321 69.8936 21.9455 68.4006 21.9594 66.8623C22.4441 66.8623 22.9289 66.8623 23.4283 66.8623C23.4283 69.2162 23.4283 71.5701 23.4283 73.9953C22.9301 73.9953 22.4319 73.9953 21.9186 73.9953C21.5517 73.4912 21.5517 73.4912 21.4145 73.2809C21.3915 73.2457 21.3915 73.2457 21.368 73.2099C21.335 73.1593 21.3019 73.1087 21.269 73.0581C21.1768 72.9166 21.0842 72.7753 20.9917 72.634C20.9717 72.6034 20.9517 72.5729 20.9311 72.5414C20.6863 72.1672 20.44 71.794 20.1937 71.4207C20.1175 71.3053 20.0414 71.1899 19.9653 71.0745C19.6928 70.6615 19.4193 70.2491 19.1441 69.8378C19.0634 69.7167 18.9826 69.5957 18.8993 69.471C18.8859 70.964 18.8724 72.457 18.8585 73.9953C18.3738 73.9953 17.8891 73.9953 17.3897 73.9953C17.3897 71.6414 17.3897 69.2875 17.3897 66.8623Z" fill="#270741"/>
<path d="M38.1983 30.6267C38.3514 30.6879 38.4789 30.7481 38.6198 30.8299C38.662 30.8543 38.7042 30.8787 38.7476 30.9038C38.7927 30.9301 38.8378 30.9563 38.8842 30.9834C38.9318 31.011 38.9794 31.0385 39.0269 31.0661C39.149 31.1368 39.2709 31.2077 39.3928 31.2787C39.4594 31.3175 39.5261 31.3563 39.5928 31.3951C39.8357 31.5364 40.0785 31.6779 40.3212 31.8196C40.5247 31.9384 40.7284 32.057 40.9319 32.1756C41.0136 32.2232 41.0952 32.2707 41.1768 32.3183C41.2171 32.3418 41.2575 32.3654 41.2992 32.3896C41.9724 32.7819 41.9724 32.7819 42.6456 33.1742C42.686 33.1978 42.7265 33.2214 42.7681 33.2457C42.8493 33.2929 42.9304 33.3402 43.0116 33.3875C43.2226 33.5105 43.4337 33.6335 43.6449 33.7563C43.6885 33.7817 43.7321 33.8071 43.777 33.8332C43.8597 33.8814 43.9423 33.9294 44.025 33.9775C44.1 34.0212 44.1749 34.0651 44.2497 34.1092C44.3247 34.1528 44.4005 34.1952 44.4767 34.2365C44.5138 34.2571 44.5509 34.2777 44.5891 34.299C44.6224 34.3169 44.6557 34.3349 44.69 34.3533C44.7891 34.4355 44.7958 34.4958 44.8081 34.6212C44.7713 34.6416 44.7346 34.6619 44.6968 34.6828C44.337 34.8831 43.9812 35.0894 43.627 35.2994C43.3073 35.4888 42.9868 35.6768 42.666 35.8644C42.3188 36.0675 41.9718 36.271 41.6256 36.4758C41.2793 36.6805 40.9323 36.8841 40.5851 37.0872C40.2304 37.2948 39.8758 37.5025 39.5218 37.7113C39.4862 37.7323 39.4507 37.7532 39.4141 37.7748C39.2295 37.8838 39.0455 37.9938 38.8621 38.1049C38.8243 38.1278 38.7865 38.1507 38.7475 38.1742C38.6754 38.2179 38.6034 38.2617 38.5314 38.3057C38.4995 38.3251 38.4677 38.3444 38.4348 38.3643C38.4067 38.3814 38.3787 38.3985 38.3498 38.4162C38.2799 38.4527 38.2799 38.4527 38.1983 38.4527C38.1983 35.8701 38.1983 33.2876 38.1983 30.6267Z" fill="#270741"/>
<path d="M24.2851 38.4119C24.4319 38.4706 24.5406 38.52 24.6705 38.6025C24.7068 38.6256 24.7432 38.6486 24.7806 38.6724C24.8408 38.7112 24.8408 38.7112 24.9022 38.7507C24.9452 38.7783 24.9881 38.8058 25.0324 38.8342C25.5708 39.181 26.1003 39.5415 26.6304 39.9009C27.0102 40.1582 27.3917 40.4122 27.7777 40.6602C28.1343 40.8896 28.4879 41.1236 28.8421 41.3568C28.8814 41.3827 28.9207 41.4086 28.9612 41.4352C29.5277 41.8082 30.0923 42.1835 30.6501 42.5694C30.5972 42.7279 30.544 42.7392 30.3987 42.8173C30.3542 42.8416 30.3097 42.8658 30.2638 42.8908C30.228 42.91 30.228 42.91 30.1915 42.9295C30.0646 42.9975 29.9383 43.0668 29.812 43.1359C29.7734 43.157 29.7734 43.157 29.7339 43.1785C29.4936 43.31 29.2567 43.447 29.0206 43.5859C28.6708 43.791 28.3197 43.9939 27.9674 44.1947C27.9436 44.2083 27.9197 44.2219 27.8952 44.2359C27.7741 44.3049 27.6529 44.3739 27.5318 44.4429C27.291 44.58 27.0503 44.7172 26.8097 44.8545C26.7861 44.868 26.7625 44.8814 26.7382 44.8953C26.39 45.0939 26.0425 45.2936 25.6953 45.4939C25.3605 45.687 25.0258 45.88 24.6905 46.0722C24.6541 46.0932 24.6177 46.1142 24.5801 46.1358C24.5306 46.1641 24.5306 46.1641 24.48 46.1931C24.4366 46.218 24.4366 46.218 24.3923 46.2434C24.3259 46.2786 24.3259 46.2786 24.2851 46.2786C24.2851 43.6826 24.2851 41.0866 24.2851 38.4119Z" fill="#270741"/>
<path d="M51.6627 66.8623C53.3592 66.8623 55.0557 66.8623 56.8036 66.8623C56.8036 67.3196 56.8036 67.777 56.8036 68.2482C55.5918 68.2482 54.38 68.2482 53.1315 68.2482C53.1315 68.7324 53.1315 69.2166 53.1315 69.7155C54.2894 69.7155 55.4474 69.7155 56.6404 69.7155C56.6404 70.1728 56.6404 70.6302 56.6404 71.1013C55.4825 71.1013 54.3245 71.1013 53.1315 71.1013C53.1315 71.6125 53.1315 72.1236 53.1315 72.6502C54.3433 72.6502 55.5551 72.6502 56.8036 72.6502C56.8036 73.0941 56.8036 73.538 56.8036 73.9953C55.1071 73.9953 53.4106 73.9953 51.6627 73.9953C51.6627 71.6414 51.6627 69.2875 51.6627 66.8623Z" fill="#270741"/>
<path d="M32.8483 66.8577C32.9189 66.8577 32.9895 66.8579 33.06 66.8583C33.0971 66.8584 33.1342 66.8585 33.1724 66.8585C33.2913 66.8587 33.4102 66.8593 33.5291 66.8598C33.6095 66.86 33.6899 66.8602 33.7703 66.8603C33.9679 66.8608 34.1654 66.8615 34.363 66.8623C34.543 67.2697 34.6894 67.6878 34.8367 68.1078C34.9133 68.326 34.9904 68.5441 35.0674 68.7621C35.0913 68.8299 35.0913 68.8299 35.1157 68.899C35.2836 69.374 35.4542 69.848 35.6253 70.3218C35.6556 70.4059 35.6859 70.49 35.7162 70.574C35.8426 70.924 35.969 71.274 36.0955 71.624C36.1795 71.8561 36.2633 72.0883 36.3471 72.3205C36.3939 72.4501 36.4408 72.5796 36.4877 72.7092C36.5167 72.7895 36.5457 72.8698 36.5747 72.95C36.5874 72.985 36.6 73.0199 36.6131 73.0559C36.7254 73.3675 36.8285 73.6808 36.9334 73.9953C36.4353 73.9953 35.9371 73.9953 35.4238 73.9953C35.3207 73.7379 35.22 73.4821 35.128 73.2209C35.117 73.1903 35.1061 73.1598 35.0948 73.1284C35.0158 72.9047 35.0158 72.9047 35.0158 72.8133C33.5818 72.8334 33.5818 72.8335 32.1189 72.854C31.9843 73.2307 31.8496 73.6073 31.7109 73.9953C31.1858 73.9953 30.6607 73.9953 30.1196 73.9953C30.2574 73.5368 30.2574 73.5368 30.3155 73.3755C30.3286 73.3387 30.3418 73.302 30.3554 73.2642C30.3694 73.2255 30.3833 73.1868 30.3978 73.147C30.4128 73.1052 30.4278 73.0634 30.4433 73.0204C30.4926 72.8834 30.542 72.7464 30.5914 72.6095C30.6264 72.5123 30.6614 72.4152 30.6963 72.318C30.786 72.0688 30.8759 71.8196 30.9657 71.5704C31.044 71.3534 31.1221 71.1363 31.2002 70.9192C31.3341 70.5475 31.4681 70.1758 31.6022 69.8042C31.7021 69.5271 31.8019 69.25 31.9015 68.9728C31.9848 68.741 32.0682 68.5092 32.1517 68.2775C32.2027 68.1357 32.2537 67.9939 32.3047 67.8521C32.3612 67.6945 32.418 67.5369 32.4748 67.3793C32.5004 67.3078 32.5004 67.3078 32.5266 67.2348C32.5422 67.1915 32.5578 67.1482 32.5739 67.1036C32.5876 67.0657 32.6012 67.0277 32.6153 66.9887C32.6734 66.8426 32.6737 66.8628 32.8483 66.8577ZM33.5469 68.7373C33.4245 69.082 33.3022 69.4267 33.1799 69.7715C33.1231 69.9315 33.0663 70.0916 33.0095 70.2517C32.9546 70.406 32.8999 70.5603 32.8452 70.7147C32.8242 70.7737 32.8033 70.8327 32.7823 70.8917C32.753 70.9741 32.7238 71.0564 32.6947 71.1388C32.678 71.1858 32.6613 71.2328 32.6441 71.2812C32.6063 71.3746 32.6063 71.3746 32.6085 71.4274C33.2413 71.4274 33.8742 71.4274 34.5262 71.4274C34.4546 71.2257 34.3831 71.0239 34.3094 70.816C34.0647 70.1245 33.8251 69.4313 33.5877 68.7373C33.5743 68.7373 33.5608 68.7373 33.5469 68.7373Z" fill="#270741"/>
<path d="M24.8155 66.8623C26.5928 66.8623 28.3701 66.8623 30.2013 66.8623C30.2013 67.3331 30.2013 67.8039 30.2013 68.2889C29.555 68.2889 28.9087 68.2889 28.2428 68.2889C28.2428 70.172 28.2428 72.0551 28.2428 73.9953C27.7446 73.9953 27.2464 73.9953 26.7332 73.9953C26.7332 72.1122 26.7332 70.2291 26.7332 68.2889C26.1003 68.2889 25.4675 68.2889 24.8155 68.2889C24.8155 67.8181 24.8155 67.3474 24.8155 66.8623Z" fill="#270741"/>
<path d="M45.5833 66.8623C46.0815 66.8623 46.5796 66.8623 47.0929 66.8623C47.0929 68.7723 47.0929 70.6823 47.0929 72.6502C48.1297 72.6502 49.1664 72.6502 50.2346 72.6502C50.2346 73.0941 50.2346 73.538 50.2346 73.9953C48.6997 73.9953 47.1647 73.9953 45.5833 73.9953C45.5833 71.6414 45.5833 69.2875 45.5833 66.8623Z" fill="#270741"/>
<path d="M45.0937 13.263C45.3307 13.3263 45.5667 13.3898 45.7991 13.4687C45.8444 13.484 45.8896 13.4993 45.9363 13.5151C45.984 13.5314 46.0317 13.5476 46.0809 13.5644C46.1324 13.5819 46.1839 13.5994 46.2355 13.6168C46.3724 13.6632 46.5092 13.7098 46.6461 13.7564C46.7885 13.8049 46.931 13.8532 47.0735 13.9016C47.3551 13.9972 47.6366 14.093 47.9182 14.1888C48.0591 14.2368 48.2001 14.2848 48.341 14.3327C48.5659 14.4091 48.7908 14.4857 49.0157 14.5622C49.0638 14.5786 49.0638 14.5786 49.1129 14.5953C49.5965 14.7601 50.0789 14.9281 50.561 15.0972C50.561 15.1376 50.561 15.1779 50.561 15.2195C50.5352 15.2338 50.5095 15.2481 50.4829 15.2628C49.9218 15.5745 49.3642 15.8913 48.8102 16.2156C48.42 16.444 48.0277 16.669 47.6357 16.8946C47.4546 16.9989 47.2735 17.1034 47.0924 17.2079C47.0034 17.2592 46.9143 17.3105 46.8251 17.3616C46.6144 17.4826 46.4044 17.6045 46.1959 17.7293C46.1575 17.752 46.119 17.7747 46.0793 17.7982C46.008 17.8404 45.9369 17.883 45.8662 17.9263C45.6448 18.0563 45.4731 18.1017 45.2161 18.1135C45.0657 17.8531 45.088 17.5613 45.089 17.2703C45.089 17.2269 45.089 17.1835 45.089 17.1388C45.089 16.9959 45.0894 16.853 45.0897 16.7101C45.0898 16.6108 45.0898 16.5116 45.0899 16.4123C45.09 16.1514 45.0904 15.8905 45.0909 15.6295C45.0913 15.3631 45.0915 15.0968 45.0917 14.8304C45.0921 14.3079 45.0928 13.7855 45.0937 13.263Z" fill="#201960"/>
<path d="M13.84 66.8623C14.3382 66.8623 14.8364 66.8623 15.3496 66.8623C15.3496 69.2162 15.3496 71.5701 15.3496 73.9953C14.8515 73.9953 14.3533 73.9953 13.84 73.9953C13.84 71.6414 13.84 69.2875 13.84 66.8623Z" fill="#270741"/>
</g>
</svg>
