<svg width="174" height="38" viewBox="0 0 174 38" fill="none" xmlns="http://www.w3.org/2000/svg">
<g clip-path="url(#clip0_4786_7868)">
<path d="M0.488281 0.500244V22.3068L10.9135 37.5002H22.9883L16.6625 22.3068H30.914V0.500244H0.488281Z" fill="#270741"/>
<path d="M56.6359 23.8008H52.0054V32.0927H46.1268V5.92845H56.6359C61.9228 5.92845 65.8777 9.83456 65.8777 14.8832C65.8777 19.9318 61.9218 23.8008 56.6359 23.8008ZM56.3772 11.4557H52.0054V18.3101H56.3772C58.4842 18.3101 60.0001 16.7992 60.0001 14.8832C60.0001 12.9296 58.4842 11.4557 56.3772 11.4557Z" fill="#270741"/>
<path d="M66.9867 22.8796C66.9867 17.4625 71.3877 13.2594 76.7113 13.2594C82.0349 13.2594 86.4348 17.4604 86.4348 22.8775C86.4348 28.2946 82.0349 32.4956 76.7113 32.4956C71.3877 32.4956 66.9867 28.2951 66.9867 22.8796ZM80.8133 22.8796C80.8133 20.2632 79.0387 18.4573 76.7097 18.4573C74.3807 18.4573 72.6061 20.2632 72.6061 22.8796C72.6061 25.496 74.3807 27.3019 76.7097 27.3019C79.0387 27.3019 80.8133 25.496 80.8133 22.8796Z" fill="#270741"/>
<path d="M88.7633 22.8796C88.7633 17.6468 92.4967 13.2615 97.3402 13.2615C99.8168 13.2615 101.837 14.5147 102.577 15.5095V5.25926H108.159V32.0922H102.578V29.7129C101.778 31.1159 99.8163 32.4977 97.3418 32.4977C92.4983 32.4977 88.7649 28.1125 88.7649 22.8796M102.813 22.8796C102.813 20.2267 101.113 18.3101 98.5984 18.3101C96.0835 18.3101 94.3844 20.2267 94.3844 22.8796C94.3844 25.5326 96.084 27.4491 98.5984 27.4491C101.113 27.4491 102.813 25.5331 102.813 22.8796Z" fill="#270741"/>
<path d="M118.328 13.6671H112.746V32.0927H118.328V13.6671Z" fill="#270741"/>
<path d="M122.691 24.1698V13.6671H128.273V23.2126C128.273 25.9026 129.05 27.448 131.12 27.448C133.227 27.448 134.595 26.0112 134.595 22.6207V13.6671H140.177V32.0911H134.595V29.6764C133.775 31.3404 132.081 32.4977 129.678 32.4977C125.094 32.4977 122.691 29.1814 122.691 24.1698Z" fill="#270741"/>
<path d="M144.763 13.6671H150.345V16.0834C151.06 14.6354 152.894 13.2615 155.077 13.2615C157.74 13.2615 160.247 14.6163 161.055 17.0888C161.863 14.7106 163.892 13.2615 166.464 13.2615C170.974 13.2615 173.488 16.4677 173.488 21.5899V32.0927H167.906V22.5482C167.906 19.8577 167.129 18.3101 165.244 18.3101C163.285 18.3101 161.916 19.7841 161.916 23.138V32.0927H156.334V22.5482C156.334 19.8577 155.558 18.3101 153.672 18.3101C151.713 18.3101 150.345 19.7841 150.345 23.138V32.0927H144.763V13.6671Z" fill="#270741"/>
<path d="M118.329 5.25926H112.708V10.3243H118.329V5.25926Z" fill="#270741"/>
</g>
<defs>
<clipPath id="clip0_4786_7868">
<rect width="173" height="37" fill="white" transform="translate(0.488281 0.500244)"/>
</clipPath>
</defs>
</svg>
