<svg width="168" height="37" viewBox="0 0 168 37" fill="none" xmlns="http://www.w3.org/2000/svg">
<g clip-path="url(#clip0_3989_5944)">
<path d="M0 0.5V21.7172L10.1239 36.5H21.8498L15.7067 21.7172H29.5463V0.5H0Z" fill="white" fill-opacity="0.8"/>
<path d="M54.5247 23.1708H50.0281V31.2386H44.3193V5.78149H54.5247C59.6588 5.78149 63.4994 9.58203 63.4994 14.4942C63.4994 19.4063 59.6578 23.1708 54.5247 23.1708ZM54.2735 11.1593H50.0281V17.8285H54.2735C56.3196 17.8285 57.7917 16.3584 57.7917 14.4942C57.7917 12.5934 56.3196 11.1593 54.2735 11.1593Z" fill="white" fill-opacity="0.8"/>
<path d="M64.5762 22.2745C64.5762 17.0038 68.85 12.9143 74.0197 12.9143C79.1894 12.9143 83.4622 17.0018 83.4622 22.2724C83.4622 27.5431 79.1894 31.6306 74.0197 31.6306C68.85 31.6306 64.5762 27.5436 64.5762 22.2745ZM78.0031 22.2745C78.0031 19.7288 76.2799 17.9717 74.0182 17.9717C71.7564 17.9717 70.0332 19.7288 70.0332 22.2745C70.0332 24.8202 71.7564 26.5773 74.0182 26.5773C76.2799 26.5773 78.0031 24.8202 78.0031 22.2745Z" fill="white" fill-opacity="0.8"/>
<path d="M85.7236 22.2745C85.7236 17.1831 89.3491 12.9164 94.0526 12.9164C96.4577 12.9164 98.4197 14.1357 99.1377 15.1036V5.13037H104.559V31.2381H99.1392V28.9231C98.3625 30.2882 96.4572 31.6326 94.0541 31.6326C89.3506 31.6326 85.7252 27.3659 85.7252 22.2745M99.3672 22.2745C99.3672 19.6933 97.7167 17.8285 95.2745 17.8285C92.8322 17.8285 91.1822 19.6933 91.1822 22.2745C91.1822 24.8558 92.8327 26.7205 95.2745 26.7205C97.7162 26.7205 99.3672 24.8563 99.3672 22.2745Z" fill="white" fill-opacity="0.8"/>
<path d="M114.434 13.3109H109.013V31.2385H114.434V13.3109Z" fill="white" fill-opacity="0.8"/>
<path d="M118.671 23.5298V13.3109H124.092V22.5985C124.092 25.2158 124.846 26.7194 126.856 26.7194C128.903 26.7194 130.231 25.3214 130.231 22.0226V13.3109H135.652V31.237H130.231V28.8875C129.434 30.5066 127.79 31.6326 125.456 31.6326C121.004 31.6326 118.671 28.4059 118.671 23.5298Z" fill="white" fill-opacity="0.8"/>
<path d="M140.104 13.311H145.525V15.662C146.22 14.2531 148.001 12.9164 150.121 12.9164C152.706 12.9164 155.141 14.2346 155.926 16.6402C156.711 14.3263 158.681 12.9164 161.179 12.9164C165.559 12.9164 168 16.0359 168 21.0197V31.2386H162.579V21.9521C162.579 19.3342 161.825 17.8285 159.994 17.8285C158.091 17.8285 156.762 19.2626 156.762 22.5259V31.2386H151.341V21.9521C151.341 19.3342 150.587 17.8285 148.756 17.8285C146.854 17.8285 145.525 19.2626 145.525 22.5259V31.2386H140.104V13.311Z" fill="white" fill-opacity="0.8"/>
<path d="M114.435 5.13037H108.977V10.0585H114.435V5.13037Z" fill="white" fill-opacity="0.8"/>
</g>
<defs>
<clipPath id="clip0_3989_5944">
<rect width="168" height="36" fill="white" transform="translate(0 0.5)"/>
</clipPath>
</defs>
</svg>
