<svg width="172" height="56" viewBox="0 0 172 56" fill="none" xmlns="http://www.w3.org/2000/svg">
<g clip-path="url(#clip0_4786_7863)">
<path d="M56.7222 34.5708C55.6698 34.5708 55.4361 33.7494 55.4361 32.4588V19.0833C55.4361 14.5073 52.8639 11.8088 48.538 11.8088C43.3937 11.8088 41.0553 15.798 41.0553 19.6698V19.7872H44.5628V19.6698C44.5628 18.3792 45.0305 17.0887 45.8488 16.0327C46.5504 15.3287 47.4858 14.9766 48.421 14.9766C50.5255 14.9766 51.6947 16.6194 51.6947 19.3179V20.6085L47.6027 22.6031C42.926 24.8323 39.8861 26.5923 39.8861 31.1681C39.8861 35.1573 42.4584 37.9733 46.1996 37.9733C48.538 37.8559 50.6425 36.7999 51.9286 34.9227C52.3962 36.7999 54.033 37.9733 55.9037 37.9733C56.6052 37.9733 57.3068 37.8559 58.0082 37.504H58.1251V34.2187L57.8912 34.3361C57.5405 34.4534 57.1898 34.5708 56.7222 34.5708ZM51.6947 23.8937V31.7548C50.7594 33.5148 49.0056 34.5708 47.0181 34.8054C45.2642 34.9227 43.7444 33.5148 43.6274 31.7548C43.6274 31.6375 43.6274 31.4028 43.6274 31.2855C43.6274 28.2349 46.3166 26.5923 48.6549 25.419L51.6947 23.8937Z" fill="black"/>
<path d="M72.272 4.29989L72.1552 12.2783H68.8814V15.6809H72.1552V32.107C72.1552 35.7442 73.9088 37.8562 77.0656 37.8562C78.3517 37.8562 79.6377 37.5041 80.8069 36.8002H80.9238V33.3976L80.6901 33.6323C79.9885 34.2189 79.0531 34.6883 78.1179 34.6883C76.481 34.6883 76.1302 33.2802 76.1302 32.107V15.6809H81.5084V12.2783H76.1302V4.29989H72.272Z" fill="black"/>
<path d="M32.1697 31.5204C30.7667 33.6323 29.1298 34.6883 27.61 34.6883C25.6223 34.6883 24.804 32.6937 24.804 30.8165V12.2784H21.0626V31.0511C21.0626 35.3923 23.0501 37.9736 26.4408 37.9736C28.779 37.9736 30.8836 36.8002 32.1697 34.9229L32.2865 37.5043H35.911V12.2784H32.1697V31.5204Z" fill="black"/>
<path d="M12.8784 14.6247C11.9431 12.8647 10.0724 11.8088 7.96791 11.9261C5.7465 11.9261 3.75891 13.0994 2.47283 14.8594C0.835994 17.0885 0.0175781 20.4912 0.0175781 24.8323C0.0175781 34.4534 3.87582 37.8559 7.50024 37.8559C9.48782 37.8559 11.2416 37.0346 12.4107 35.5093V55.4553H16.1521V12.2781H12.8784V14.6247ZM12.5277 18.0273V31.7548C11.4754 33.632 10.1893 34.5706 8.5525 34.5706C5.51266 34.5706 3.87582 31.2855 3.87582 24.8323C3.87582 18.6138 5.62958 15.094 8.6694 15.094C10.4232 15.094 11.9431 16.3846 12.5277 18.0273Z" fill="black"/>
<path d="M64.9063 0.545288H61.165V37.3867H64.9063V0.545288Z" fill="black"/>
<path d="M102.787 12.2784H99.046V37.3869H102.787V12.2784Z" fill="black"/>
<path d="M102.904 4.29989H99.1628V8.64109H102.904V4.29989Z" fill="black"/>
<path d="M88.7572 15.2113L88.5234 12.2781H85.0159V37.504H88.7572V19.3179C90.3941 15.9154 92.6155 15.446 94.72 15.446L95.6553 15.5633V11.8088H94.6031C91.914 11.8088 90.511 12.6301 88.7572 15.2113Z" fill="black"/>
<path d="M133.419 22.4858C131.081 21.3124 129.444 20.2565 129.444 18.1445C129.444 16.502 130.73 15.094 132.367 15.094C132.485 15.094 132.601 15.094 132.718 15.094C133.653 15.094 134.589 15.446 135.173 16.1499C135.992 17.0887 136.342 18.3792 136.109 19.6698V19.9045H139.616V19.7872C139.85 17.6752 139.148 15.5633 137.745 13.9208C136.46 12.6301 134.589 11.8088 132.834 11.9261C128.86 11.9261 125.937 14.6247 125.937 18.4966C125.937 22.7205 129.327 24.4804 131.666 25.771C134.004 27.0616 136.342 28.3523 136.342 30.9335C136.46 32.9281 134.822 34.688 132.834 34.688C132.718 34.688 132.718 34.688 132.601 34.688C130.263 34.688 128.509 32.6934 128.392 29.7602V29.6429H124.885V29.7602C125.001 34.8053 127.924 37.9733 132.601 37.9733C136.46 38.208 139.733 35.2747 139.967 31.5202C139.967 31.2855 139.967 30.9335 139.967 30.6988C139.85 25.8883 136.46 24.1284 133.419 22.4858Z" fill="black"/>
<path d="M118.805 29.5258C118.805 31.0511 118.337 32.459 117.402 33.6323C116.817 34.219 115.999 34.571 115.18 34.571C112.258 34.571 110.738 31.1684 110.738 24.8326C110.738 18.4968 112.258 14.9769 115.18 14.9769C115.999 14.9769 116.7 15.329 117.285 15.7983C118.103 16.8543 118.571 18.2622 118.571 19.6701H122.079C122.195 17.4408 121.494 15.2116 119.974 13.569C118.688 12.2784 117.051 11.6917 115.297 11.6917C109.919 11.6917 106.996 16.2676 106.996 24.7153C106.996 33.163 109.802 37.7389 115.064 37.7389C119.273 37.7389 121.845 34.6883 122.195 29.4085L118.805 29.5258Z" fill="black"/>
<path d="M145.111 35.3923C145.227 35.275 145.227 35.0403 145.227 34.9229C145.227 34.6883 145.111 34.4536 144.994 34.3364C144.76 34.219 144.526 34.1017 144.293 34.1017H143.007V36.8003H143.708V35.7443H144.175L144.643 36.6829H145.345L144.76 35.6269C144.878 35.6269 144.994 35.5096 145.111 35.3923ZM144.526 35.1576C144.41 35.1576 144.293 35.275 144.175 35.275H143.708V34.571H144.175C144.293 34.571 144.41 34.571 144.526 34.6883C144.643 34.8057 144.643 34.8057 144.643 34.9229C144.643 35.0403 144.526 35.1576 144.526 35.1576Z" fill="black"/>
<path d="M146.281 34.4536C146.163 34.219 146.046 33.8669 145.813 33.7497C145.579 33.515 145.345 33.3976 145.111 33.2804C144.526 33.0457 143.826 33.0457 143.24 33.2804C143.007 33.3976 142.656 33.515 142.539 33.7497C142.304 33.9843 142.188 34.219 142.071 34.4536C141.838 35.0402 141.838 35.7443 142.071 36.4483C142.188 36.6829 142.304 37.0348 142.539 37.1522C142.772 37.3869 143.007 37.5041 143.24 37.6215C143.826 37.8562 144.526 37.8562 145.111 37.6215C145.345 37.5041 145.695 37.3869 145.813 37.1522C146.046 36.9176 146.163 36.6829 146.281 36.4483C146.514 35.7443 146.514 35.0402 146.281 34.4536ZM145.813 36.2136C145.695 36.4483 145.579 36.6829 145.462 36.8002C145.345 36.9176 145.111 37.1522 144.878 37.1522C144.41 37.3869 143.826 37.3869 143.358 37.1522C143.123 37.0348 142.89 36.9176 142.772 36.8002C142.656 36.5655 142.422 36.4483 142.422 36.2136C142.188 35.7443 142.188 35.1576 142.422 34.6883C142.539 34.4536 142.656 34.219 142.772 34.1016C142.89 33.9843 143.123 33.7497 143.358 33.7497C143.826 33.515 144.41 33.515 144.878 33.7497C145.111 33.8669 145.345 33.9843 145.462 34.1016C145.579 34.3362 145.813 34.4536 145.813 34.6883C146.046 35.1576 146.046 35.7443 145.813 36.2136Z" fill="black"/>
<path d="M167.046 4.15308L163.772 15.6514L160.264 4.15308H152.549L149.976 8.84626L147.17 4.15308H143.312L147.871 11.5448L142.844 19.7579H146.468L149.626 14.3607L152.899 19.7579H158.745V8.96356C158.861 9.43287 158.861 9.78487 158.979 10.1368C159.096 10.4888 159.096 10.7235 159.212 11.0755C159.329 11.3101 159.329 11.6621 159.447 11.8968C159.563 12.1315 159.563 12.3661 159.68 12.7181L162.019 19.8751H165.058L167.397 12.7181C167.514 12.1315 167.747 11.5448 167.865 11.0755C167.981 10.4888 168.098 9.90218 168.215 9.31554V19.9925H171.489V4.38768L167.046 4.15308ZM151.73 11.5448L155.822 4.73972V18.1152L151.73 11.5448Z" fill="#270741"/>
</g>
<defs>
<clipPath id="clip0_4786_7863">
<rect width="171.471" height="54.91" fill="white" transform="translate(0.0175781 0.545288)"/>
</clipPath>
</defs>
</svg>
