<svg width="158" height="51" viewBox="0 0 158 51" fill="none" xmlns="http://www.w3.org/2000/svg">
<g clip-path="url(#clip0_3785_7667)">
<path d="M52.1999 31.5351C51.2311 31.5351 51.016 30.7739 51.016 29.5777V17.1811C51.016 12.9401 48.6481 10.4391 44.6658 10.4391C39.9302 10.4391 37.7775 14.1363 37.7775 17.7248V17.8336H41.0064V17.7248C41.0064 16.5286 41.4369 15.3325 42.1903 14.3538C42.8362 13.7014 43.6972 13.3751 44.5581 13.3751C46.4955 13.3751 47.5718 14.8976 47.5718 17.3986V18.5947L43.8048 20.4433C39.4996 22.5094 36.7012 24.1406 36.7012 28.3815C36.7012 32.0787 39.0691 34.6886 42.5132 34.6886C44.6658 34.5798 46.6032 33.6011 47.7871 31.8612C48.2176 33.6011 49.7243 34.6886 51.4464 34.6886C52.0922 34.6886 52.738 34.5798 53.3838 34.2536H53.4914V31.2088L53.2761 31.3176C52.9532 31.4263 52.6303 31.5351 52.1999 31.5351ZM47.5718 21.6395V28.9252C46.7108 30.5564 45.0963 31.5351 43.2666 31.7526C41.6521 31.8612 40.253 30.5564 40.1453 28.9252C40.1453 28.8165 40.1453 28.5989 40.1453 28.4903C40.1453 25.6629 42.6209 24.1406 44.7734 23.0532L47.5718 21.6395Z" fill="white" fill-opacity="0.8"/>
<path d="M69.8513 3.47986H66.5148L66.4073 10.8743H63.3936V14.0278H66.4073V29.2517C66.4073 32.6227 68.0216 34.5801 70.9276 34.5801C72.1115 34.5801 73.2955 34.2538 74.3718 33.6014H74.4794V30.4479L74.2642 30.6654C73.6183 31.209 72.7573 31.6441 71.8964 31.6441C70.3895 31.6441 70.0666 30.3391 70.0666 29.2517V14.0278H75.0175V10.8743H70.0666V3.47986H69.8513Z" fill="white" fill-opacity="0.8"/>
<path d="M29.5978 28.708C28.3063 30.6653 26.7994 31.644 25.4003 31.644C23.5705 31.644 22.8172 29.7954 22.8172 28.0555V10.8743H19.373V28.273C19.373 32.2964 21.2027 34.6888 24.324 34.6888C26.4765 34.6888 28.4139 33.6013 29.5978 31.8615L29.7054 34.2539H33.042V10.8743H29.5978V28.708Z" fill="white" fill-opacity="0.8"/>
<path d="M11.8392 13.049C10.9782 11.4178 9.25613 10.4391 7.3188 10.5479C5.27385 10.5479 3.44415 11.6353 2.26022 13.2665C0.753406 15.3325 0 18.4861 0 22.5095C0 31.4264 3.55177 34.5799 6.88828 34.5799C8.71798 34.5799 10.3324 33.8186 11.4087 32.405V50.8911H14.8528V10.8741H11.8392V13.049ZM11.5164 16.2025V28.9253C10.5477 30.6651 9.36376 31.5351 7.85695 31.5351C5.05858 31.5351 3.55177 28.4904 3.55177 22.5095C3.55177 16.7461 5.16621 13.484 7.96458 13.484C9.57902 13.484 10.9782 14.68 11.5164 16.2025Z" fill="white" fill-opacity="0.8"/>
<path d="M59.7342 0H56.29V34.145H59.7342V0Z" fill="white" fill-opacity="0.8"/>
<path d="M94.6063 10.8743H91.1621V34.1451H94.6063V10.8743Z" fill="white" fill-opacity="0.8"/>
<path d="M94.7137 3.47986H91.2695V7.50332H94.7137V3.47986Z" fill="white" fill-opacity="0.8"/>
<path d="M81.6903 13.5926L81.475 10.8741H78.2461V34.2536H81.6903V17.3986C83.197 14.2451 85.242 13.81 87.1794 13.81L88.0404 13.9188V10.4391H87.0718C84.5963 10.4391 83.3048 11.2003 81.6903 13.5926Z" fill="white" fill-opacity="0.8"/>
<path d="M122.805 20.3347L122.697 20.4434L122.805 20.3347C120.653 19.2472 119.146 18.2686 119.146 16.3112C119.146 14.7888 120.33 13.484 121.836 13.484C121.945 13.484 122.052 13.484 122.159 13.484C123.02 13.484 123.882 13.8101 124.42 14.4626C125.173 15.3326 125.495 16.5287 125.281 17.7249V17.9423H128.509V17.8337C128.725 15.8762 128.079 13.9189 126.787 12.3966C125.604 11.2004 123.882 10.4392 122.267 10.5479C118.608 10.5479 115.917 13.049 115.917 16.6375C115.917 20.5522 119.038 22.1834 121.191 23.3794C123.344 24.5756 125.495 25.7718 125.495 28.1641C125.604 30.0127 124.096 31.6439 122.267 31.6439C122.159 31.6439 122.159 31.6439 122.052 31.6439C119.899 31.6439 118.285 29.7952 118.177 27.0767V26.968H114.948V27.0767C115.056 31.7525 117.747 34.6887 122.052 34.6887C125.604 34.9062 128.617 32.1876 128.833 28.7078C128.833 28.4904 128.833 28.1641 128.833 27.9466C128.725 23.4882 125.604 21.8571 122.805 20.3347Z" fill="white" fill-opacity="0.8"/>
<path d="M109.351 26.8593C109.351 28.273 108.921 29.5779 108.059 30.6653C107.521 31.209 106.768 31.5353 106.015 31.5353C103.324 31.5353 101.925 28.3817 101.925 22.5096C101.925 16.6376 103.324 13.3753 106.015 13.3753C106.768 13.3753 107.414 13.7016 107.952 14.1365C108.705 15.1153 109.136 16.4201 109.136 17.725H112.365C112.472 15.6589 111.827 13.5928 110.427 12.0704C109.243 10.8743 107.737 10.3306 106.122 10.3306C101.171 10.3306 98.4805 14.5715 98.4805 22.401C98.4805 30.2303 101.064 34.4713 105.907 34.4713C109.782 34.4713 112.149 31.644 112.472 26.7507L109.351 26.8593Z" fill="white" fill-opacity="0.8"/>
<path d="M133.568 32.2965C133.675 32.1879 133.675 31.9704 133.675 31.8616C133.675 31.6441 133.568 31.4266 133.461 31.3179C133.245 31.2091 133.03 31.1005 132.815 31.1005H131.631V33.6015H132.276V32.6228H132.707L133.137 33.4927H133.784L133.245 32.514C133.353 32.514 133.461 32.4053 133.568 32.2965ZM133.03 32.0791C132.923 32.0791 132.815 32.1879 132.707 32.1879H132.276V31.5354H132.707C132.815 31.5354 132.923 31.5354 133.03 31.6441C133.137 31.7529 133.137 31.7529 133.137 31.8616C133.137 31.9704 133.03 32.0791 133.03 32.0791Z" fill="white" fill-opacity="0.8"/>
<path d="M134.645 31.4265C134.536 31.209 134.429 30.8828 134.214 30.7741C133.998 30.5566 133.783 30.4478 133.568 30.3391C133.03 30.1217 132.384 30.1217 131.845 30.3391C131.631 30.4478 131.307 30.5566 131.2 30.7741C130.984 30.9916 130.877 31.209 130.769 31.4265C130.555 31.9702 130.555 32.6227 130.769 33.2752C130.877 33.4926 130.984 33.8188 131.2 33.9276C131.415 34.1451 131.631 34.2537 131.845 34.3625C132.384 34.58 133.03 34.58 133.568 34.3625C133.783 34.2537 134.106 34.1451 134.214 33.9276C134.429 33.7101 134.536 33.4926 134.645 33.2752C134.859 32.6227 134.859 31.9702 134.645 31.4265ZM134.214 33.0577C134.106 33.2752 133.998 33.4926 133.891 33.6013C133.783 33.7101 133.568 33.9276 133.353 33.9276C132.922 34.1451 132.384 34.1451 131.954 33.9276C131.738 33.8188 131.523 33.7101 131.415 33.6013C131.307 33.3838 131.093 33.2752 131.093 33.0577C130.877 32.6227 130.877 32.079 131.093 31.644C131.2 31.4265 131.307 31.209 131.415 31.1002C131.523 30.9916 131.738 30.7741 131.954 30.7741C132.384 30.5566 132.922 30.5566 133.353 30.7741C133.568 30.8828 133.783 30.9916 133.891 31.1002C133.998 31.3177 134.214 31.4265 134.214 31.644C134.429 32.079 134.429 32.6227 134.214 33.0577Z" fill="white" fill-opacity="0.8"/>
<path d="M153.761 3.34375L150.747 14.0005L147.518 3.34375H140.415L138.046 7.69343L135.464 3.34375H131.912L136.109 10.1945L131.481 17.8064H134.818L137.724 12.8043L140.737 17.8064H146.119V7.80215C146.226 8.23712 146.226 8.56334 146.335 8.88956C146.442 9.21579 146.442 9.43326 146.549 9.75949C146.657 9.97698 146.657 10.3032 146.765 10.5207C146.873 10.7382 146.873 10.9557 146.98 11.2819L149.133 17.9151H151.931L154.084 11.2819C154.191 10.7382 154.406 10.1945 154.514 9.75949C154.622 9.21578 154.729 8.67207 154.837 8.12836V18.0239H157.851V3.56118L153.761 3.34375ZM139.661 10.1945L143.428 3.88746V16.284L139.661 10.1945Z" fill="white" fill-opacity="0.8"/>
</g>
<defs>
<clipPath id="clip0_3785_7667">
<rect width="158" height="51" fill="white"/>
</clipPath>
</defs>
</svg>
