<svg width="276" height="62" viewBox="0 0 276 62" fill="none" xmlns="http://www.w3.org/2000/svg">
<g clip-path="url(#clip0_4786_7841)">
<path d="M36.093 0.935333C36.0637 1.06386 36.0674 1.11895 36.0417 1.16301C34.2361 4.26609 32.4305 7.37284 30.6432 10.4429C30.4157 10.553 30.2175 10.5163 30.0267 10.5163C27.8064 10.5163 25.5898 10.5163 23.3695 10.5163C21.4501 10.5163 19.5308 10.5163 17.6114 10.5163C17.4206 10.5163 17.2261 10.4906 17.0499 10.553C16.9765 10.7293 17.0756 10.8431 17.1416 10.9643C17.5563 11.6804 17.971 12.3965 18.3857 13.1126C20.8226 17.299 23.2594 21.4817 25.6962 25.6681C28.4229 30.3577 31.1497 35.0472 33.8764 39.733C34.2141 40.3132 34.5443 40.8934 34.882 41.47C34.9517 41.5875 35.0398 41.694 35.1169 41.8042C35.3297 41.7638 35.3701 41.5912 35.4435 41.4626C35.9719 40.5666 36.4894 39.6669 37.0105 38.7709C38.6326 35.9836 40.2511 33.2 41.8732 30.4127C41.9429 30.2916 42.0236 30.1777 42.075 30.0969C42.1264 30.0602 42.1411 30.0455 42.1557 30.0382C42.1704 30.0308 42.1888 30.0271 42.2071 30.0271C45.7633 30.0235 49.3194 30.0198 52.8792 30.0125C52.9673 30.0125 53.0517 30.0125 53.1178 30.0125C53.2315 30.1483 53.1471 30.2291 53.0994 30.3173C52.615 31.1545 52.1269 31.9918 51.6388 32.8291C50.1084 35.4621 48.5781 38.0952 47.0441 40.7319C45.2715 43.7762 43.4989 46.8205 41.73 49.8648C39.6492 53.4416 37.5684 57.0221 35.4912 60.5989C35.3958 60.7641 35.293 60.9221 35.1976 61.0763C35.1499 61.0579 35.1242 61.0579 35.1169 61.0469C23.5273 41.1285 11.934 21.2027 0.340802 1.28053C0.296763 1.20708 0.267404 1.12262 0.234375 1.06019C0.267404 0.924316 0.362822 0.931661 0.44723 0.927989C0.608706 0.924316 0.766512 0.924316 0.924318 0.924316C12.4221 0.924316 23.9236 0.924316 35.4215 0.924316C35.6306 0.924316 35.8398 0.931661 36.093 0.935333Z" fill="#270741"/>
<path d="M35.1837 32.0102C35.0956 31.9 35.0479 31.8523 35.0112 31.7935C33.1799 28.6427 31.3413 25.4955 29.5137 22.33C29.5944 22.1721 29.6605 22.0289 29.7375 21.893C30.8972 19.899 32.0569 17.9049 33.2166 15.9109C33.4845 15.4519 33.4845 15.4519 34.002 15.4519C35.9911 15.4519 37.9801 15.4519 39.9692 15.4519C43.2795 15.4519 46.5898 15.4519 49.9 15.4519H50.5055C50.7881 15.1911 50.9202 14.879 51.0854 14.5925C51.8341 13.2962 52.5717 11.9962 53.3094 10.6962C53.3204 10.6742 53.2983 10.6301 53.2873 10.5714C53.236 10.5567 53.1736 10.5273 53.1075 10.5237C52.9314 10.5163 52.7552 10.5163 52.579 10.5163C47.4192 10.5163 42.2593 10.5163 37.103 10.5163C36.8975 10.5163 36.6847 10.542 36.4975 10.4833C36.4241 10.3437 36.5122 10.2629 36.5599 10.1748C37.0774 9.27507 37.5985 8.37537 38.1233 7.47933C39.2903 5.47059 40.461 3.46185 41.6317 1.45311C41.7271 1.28786 41.8336 1.12261 41.918 0.983063C41.9657 0.964701 41.9804 0.953684 41.9987 0.950012C42.0171 0.942668 42.0317 0.938995 42.0501 0.938995C42.2262 0.935323 42.4024 0.927979 42.5785 0.927979C51.6983 0.927979 60.8217 0.927979 69.9414 0.927979C69.9744 0.927979 70.0111 0.938995 70.0441 0.94634C70.0625 0.950012 70.0772 0.961029 70.0919 0.968374C70.1469 1.10792 70.0515 1.2034 69.9928 1.30622C69.534 2.09944 69.0753 2.88898 68.6129 3.68219C66.3632 7.5491 64.1136 11.4123 61.8676 15.2793C60.0803 18.353 58.2931 21.4303 56.5022 24.504C56.1499 25.11 56.2379 25.0622 55.5113 25.0622C50.3698 25.0622 45.2282 25.0622 40.0867 25.0622C39.8738 25.0622 39.6646 25.0696 39.4518 25.0769C39.3197 25.0806 39.2169 25.1467 39.1472 25.2568C39.0811 25.3597 39.0187 25.4662 38.9563 25.5727C37.804 27.552 36.6516 29.5277 35.4993 31.5071C35.4112 31.6576 35.3158 31.8045 35.1837 32.0138V32.0102Z" fill="#270741"/>
<path d="M238.286 7.67765C238.378 7.65929 238.477 7.62624 238.58 7.62624C240.198 7.62624 241.82 7.62624 243.439 7.62624C243.523 7.62624 243.607 7.65195 243.714 7.66664C243.732 7.78048 243.758 7.87963 243.765 7.98245C243.773 8.122 243.765 8.26522 243.765 8.40477C243.765 16.0541 243.765 23.6998 243.765 31.3492V31.9845C243.648 32.1534 243.519 32.1424 243.398 32.1424C242.888 32.1461 242.378 32.1424 241.868 32.1424C241.094 32.1424 240.319 32.1314 239.545 32.1461C239.251 32.1534 239.06 32.0469 238.877 31.8192C237.479 30.0969 236.066 28.3857 234.657 26.6707C232.187 23.6631 229.72 20.6518 227.251 17.6442C227.174 17.5524 227.085 17.468 226.972 17.3468C226.931 17.4496 226.895 17.512 226.891 17.5708C226.88 17.7801 226.88 17.9931 226.88 18.2061C226.88 22.5945 226.88 26.9828 226.88 31.3675C226.88 31.5952 226.909 31.8229 226.821 32.0726C226.729 32.0947 226.63 32.1314 226.531 32.135C226.161 32.1424 225.794 32.1424 225.423 32.1424C224.278 32.1424 223.133 32.1424 221.988 32.1424C221.797 32.1424 221.606 32.1314 221.393 32.124C221.364 31.9992 221.331 31.9037 221.324 31.8045C221.313 31.6834 221.316 31.5585 221.316 31.4336C221.316 23.7329 221.316 16.0321 221.316 8.33132C221.316 8.122 221.291 7.90901 221.371 7.67765C221.485 7.65929 221.603 7.62624 221.716 7.62624C223.019 7.62257 224.322 7.62624 225.625 7.6189C225.882 7.6189 226.047 7.70703 226.205 7.90533C227.023 8.91888 227.852 9.92509 228.678 10.935C231.445 14.3171 234.209 17.6956 236.976 21.0778C237.277 21.445 237.578 21.8123 237.882 22.1795C237.945 22.2566 238.025 22.319 238.136 22.4219C238.165 22.2897 238.194 22.2089 238.198 22.1244C238.205 21.8967 238.205 21.6654 238.205 21.4377C238.205 17.086 238.205 12.7344 238.205 8.37906C238.205 8.15505 238.165 7.92002 238.279 7.68133L238.286 7.67765Z" fill="#270741"/>
<path d="M133.95 7.1819C136.16 7.13416 138.384 7.55647 140.321 8.44149C143.063 9.69374 145.144 11.64 146.483 14.3539C147.048 15.4996 147.393 16.7115 147.58 17.9747C147.738 19.0617 147.749 20.1561 147.65 21.2431C147.492 22.9984 146.979 24.6583 146.083 26.186C144.358 29.1238 141.815 31.004 138.582 31.9845C137.261 32.3848 135.899 32.55 134.519 32.5647C132.761 32.5831 131.044 32.3627 129.378 31.7788C127.334 31.0591 125.539 29.9464 124.075 28.3306C122.438 26.5201 121.429 24.4086 121.058 21.9885C120.871 20.7583 120.823 19.5281 120.985 18.3016C121.55 13.9683 123.785 10.7844 127.642 8.74261C129.532 7.74375 131.734 7.22229 133.95 7.17822V7.1819ZM126.611 19.9137C126.622 20.4241 126.644 20.9309 126.735 21.4377C127.224 24.1111 128.655 26.0574 131.154 27.1518C132.787 27.8642 134.501 27.978 136.222 27.5557C138.758 26.9351 140.534 25.3964 141.47 22.947C142.149 21.1659 142.2 19.3335 141.687 17.501C141.063 15.2683 139.698 13.6378 137.58 12.6866C135.848 11.9081 134.039 11.7943 132.211 12.2753C129.928 12.8739 128.288 14.2694 127.304 16.4214C126.798 17.5267 126.592 18.7018 126.611 19.9137Z" fill="#270741"/>
<path d="M86.9908 7.66296C87.4386 7.61154 92.4627 7.61155 92.9361 7.6703C93.2003 8.16239 93.3985 8.70588 93.6297 9.23469C93.8572 9.75248 94.0701 10.2703 94.2939 10.7881C94.5215 11.3242 94.749 11.8567 94.9766 12.3929C95.1968 12.9106 95.4206 13.4284 95.6445 13.9462C95.872 14.4824 96.0959 15.0149 96.3234 15.551C96.5436 16.0688 96.7601 16.5903 96.9803 17.1081C97.2079 17.6442 97.4354 18.1767 97.6666 18.7092C97.8868 19.227 98.107 19.7448 98.3272 20.2662C98.5547 20.8024 98.7823 21.3349 99.0135 21.8673C99.2337 22.3851 99.4575 22.9029 99.6777 23.4207C99.9016 23.9532 100.111 24.4967 100.36 24.9998C100.503 25.0365 100.544 24.9557 100.581 24.8749C100.867 24.2139 101.157 23.5492 101.439 22.8882C102.742 19.8659 104.045 16.84 105.351 13.8177C106.173 11.9118 106.999 10.0022 107.825 8.09629C107.887 7.95307 107.957 7.81352 108.016 7.68866C108.449 7.6042 111.737 7.56748 113.267 7.62623C113.352 7.62623 113.433 7.65194 113.499 7.66296C113.576 7.84657 113.473 7.96776 113.422 8.08894C112.853 9.41464 112.284 10.744 111.708 12.066C110.031 15.944 108.35 19.8219 106.673 23.6998C105.513 26.3806 104.35 29.065 103.186 31.7458C103.138 31.8596 103.083 31.9698 103.025 32.0983C102.907 32.113 102.79 32.1424 102.669 32.1424C101.047 32.1424 99.4282 32.1424 97.8061 32.1424C97.6849 32.1424 97.5638 32.1167 97.4574 32.1057C97.2225 31.7164 87.4863 9.22 86.9762 7.90166C86.9578 7.85392 86.9505 7.8025 86.9395 7.75109C86.9395 7.7364 86.9468 7.71804 86.9541 7.70335C86.9615 7.68866 86.9725 7.67397 86.9835 7.65928L86.9908 7.66296Z" fill="#270741"/>
<path d="M212.431 32.1094C212.306 32.124 212.204 32.1424 212.101 32.1461C210.743 32.1865 206.956 32.1608 206.468 32.1057C206.413 32.0065 206.339 31.889 206.284 31.7642C205.385 29.66 204.49 27.5557 203.594 25.4478C202.416 22.6789 201.234 19.91 200.053 17.1411C199.755 16.4434 199.462 15.7493 199.161 15.0516C199.113 14.9451 199.051 14.846 198.999 14.7505C198.952 14.7615 198.933 14.7615 198.915 14.7688C198.9 14.7762 198.886 14.7909 198.875 14.8019C198.856 14.8313 198.838 14.8607 198.823 14.8937C198.801 14.9414 198.779 14.9892 198.757 15.0369C196.313 20.6922 193.869 26.3475 191.425 32.0029C191.417 32.0176 191.41 32.0359 191.399 32.0469C191.388 32.0616 191.377 32.0726 191.351 32.102C191.3 32.113 191.23 32.1387 191.164 32.1387C189.472 32.1387 187.784 32.1387 186.092 32.1387C186.023 32.1387 185.957 32.1167 185.857 32.0983C185.883 31.9882 185.89 31.8854 185.931 31.7972C186.555 30.343 187.186 28.8888 187.813 27.4309C189.208 24.1993 190.606 20.9677 192.001 17.736C193.399 14.5044 194.797 11.2728 196.196 8.0449C196.251 7.91637 196.32 7.79518 196.39 7.66298C196.852 7.58219 197.308 7.6336 197.763 7.62626C198.236 7.61891 198.713 7.62626 199.19 7.62626C199.667 7.62626 200.108 7.61891 200.563 7.62626C201.018 7.6336 201.477 7.58953 201.935 7.65564C201.983 7.73643 202.034 7.80987 202.067 7.89066C205.521 15.9073 208.974 23.9275 212.424 31.9478C212.435 31.9772 212.424 32.0176 212.424 32.1094H212.431Z" fill="#270741"/>
<path d="M261.689 12.2534C261.138 12.1946 260.632 12.2313 260.122 12.224C259.612 12.2166 259.101 12.224 258.591 12.224H253.975C253.945 12.1101 253.901 12.011 253.901 11.9155C253.898 10.5935 253.898 9.27147 253.901 7.95312C253.901 7.86865 253.923 7.78419 253.934 7.68137C254.03 7.66301 254.11 7.6373 254.198 7.62996C254.356 7.62261 254.514 7.62628 254.672 7.62628C261.274 7.62628 267.876 7.62628 274.475 7.62628C274.633 7.62628 274.79 7.62261 274.948 7.63363C275.033 7.64097 275.113 7.67402 275.223 7.69973C275.231 9.187 275.223 10.6633 275.223 12.1028C275.073 12.2607 274.926 12.2203 274.79 12.224C273.946 12.2277 273.102 12.224 272.254 12.224C270.845 12.224 269.44 12.224 268.03 12.224C267.84 12.224 267.645 12.1983 267.498 12.2497C267.366 12.3599 267.388 12.47 267.384 12.5728C267.377 12.7675 267.384 12.9621 267.384 13.1531C267.384 19.2491 267.384 25.345 267.384 31.441C267.384 31.6504 267.41 31.8597 267.348 32.0506C267.175 32.1865 266.992 32.1461 266.823 32.1461C265.821 32.1498 264.815 32.1461 263.814 32.1461C263.322 32.1461 262.826 32.1461 262.335 32.1461C262.162 32.1461 261.982 32.1718 261.788 32.0763C261.773 31.9919 261.747 31.8927 261.744 31.7899C261.736 31.632 261.744 31.4741 261.744 31.3162C261.744 25.2018 261.744 19.0911 261.744 12.9768C261.744 12.7528 261.769 12.5214 261.696 12.2534H261.689Z" fill="#270741"/>
<path d="M159.112 7.63367C160.881 7.61531 162.621 7.62632 164.364 7.62632C164.448 7.62632 164.533 7.64836 164.647 7.66672C164.661 7.78423 164.68 7.88338 164.683 7.98254C164.691 8.14044 164.683 8.29835 164.683 8.45993C164.683 14.5743 164.683 20.6886 164.683 26.8067C164.683 27.0343 164.658 27.262 164.727 27.5117C164.826 27.5338 164.925 27.5631 165.028 27.5705C165.186 27.5815 165.344 27.5742 165.505 27.5742C169.098 27.5742 172.691 27.5742 176.284 27.5742C176.493 27.5742 176.702 27.5521 176.933 27.6146C176.948 27.7064 176.977 27.7872 176.977 27.8716C176.977 29.1936 176.977 30.5157 176.977 31.8377C176.977 31.9075 176.959 31.9772 176.948 32.0727C176.853 32.0984 176.757 32.1388 176.658 32.1462C176.5 32.1608 176.343 32.1535 176.185 32.1535C170.724 32.1535 165.267 32.1535 159.806 32.1535C159.578 32.1535 159.347 32.1902 159.105 32.0947C159.087 32.0029 159.057 31.9038 159.05 31.8046C159.039 31.6651 159.05 31.5219 159.05 31.3823C159.05 23.7146 159.05 16.0505 159.05 8.38281C159.05 8.15881 159.01 7.92745 159.123 7.64101L159.112 7.63367Z" fill="#270741"/>
<path d="M191.363 43.0968C191.833 43.0234 192.857 43.0161 193.4 43.0785C193.422 43.1629 193.455 43.2584 193.466 43.3576C193.477 43.4788 193.473 43.6036 193.473 43.7285C193.473 47.1657 193.473 50.5993 193.473 54.0366C193.473 54.2459 193.503 54.4589 193.425 54.6609C193.084 54.76 192.614 54.7784 191.719 54.7159C191.653 54.6462 191.568 54.558 191.491 54.4662C189.822 52.4171 188.155 50.3716 186.486 48.3225C186.163 47.9259 185.843 47.5293 185.517 47.1364C185.454 47.0592 185.374 46.9968 185.315 46.9417C185.187 46.9784 185.205 47.0629 185.205 47.1253C185.201 47.4412 185.201 47.7606 185.201 48.0765C185.201 50.0852 185.201 52.0939 185.201 54.1027C185.201 54.2936 185.227 54.4883 185.164 54.6682C184.801 54.7637 183.73 54.7784 183.142 54.6939C183.128 54.6021 183.106 54.503 183.102 54.4038C183.095 54.2459 183.102 54.088 183.102 53.9264C183.102 50.5259 183.102 47.1253 183.102 43.7248C183.102 43.5192 183.076 43.3062 183.15 43.0748C183.715 43.0087 184.273 43.0528 184.86 43.0454C185.924 44.3564 186.988 45.6674 188.056 46.9748C189.113 48.2674 190.159 49.5711 191.213 50.8417C191.345 50.8233 191.352 50.7499 191.352 50.6801C191.356 50.5222 191.356 50.3643 191.356 50.2027C191.356 48.0361 191.356 45.8694 191.356 43.7028C191.356 43.5118 191.359 43.3172 191.363 43.1005V43.0968Z" fill="#270741"/>
<path d="M214.637 54.7011C214.626 54.5726 214.611 54.4697 214.611 54.3669C214.552 51.6605 214.582 43.6328 214.659 43.0857C214.747 43.071 214.846 43.0416 214.949 43.0416C216.534 43.0416 218.12 43.0306 219.701 43.049C220.443 43.0563 221.173 43.1848 221.867 43.4602C222.329 43.6439 222.755 43.8826 223.133 44.2131C223.679 44.6905 224.046 45.2817 224.237 45.9794C224.461 46.7947 224.465 47.6099 224.23 48.4288C223.955 49.391 223.375 50.1107 222.505 50.6065C222.413 50.6579 222.318 50.702 222.223 50.7534C222.145 50.7938 222.068 50.8342 222.006 50.8672C221.933 51.0582 222.061 51.1537 222.138 51.2638C222.67 52.0314 223.206 52.7952 223.742 53.559C223.933 53.8344 224.127 54.1062 224.314 54.3816C224.373 54.4661 224.421 54.5579 224.469 54.635C224.45 54.6717 224.446 54.6901 224.435 54.7048C224.424 54.7158 224.41 54.7268 224.395 54.7268C224.307 54.7342 224.219 54.7452 224.131 54.7452C223.518 54.7452 222.901 54.7452 222.278 54.7452C222.112 54.5138 221.958 54.3008 221.808 54.0842C221.232 53.2616 220.655 52.4426 220.09 51.6127C219.958 51.4181 219.811 51.3299 219.569 51.3336C218.776 51.3483 217.984 51.3373 217.191 51.341C217.07 51.341 216.953 51.3593 216.857 51.3667C216.721 51.5099 216.754 51.6568 216.754 51.7927C216.751 52.5859 216.754 53.3791 216.751 54.1723C216.751 54.3449 216.787 54.5248 216.688 54.6864C216.321 54.7635 215.345 54.7782 214.633 54.7121L214.637 54.7011ZM216.853 49.5379C216.912 49.5452 216.997 49.5673 217.081 49.5673C217.925 49.5673 218.769 49.5746 219.61 49.5636C219.995 49.5562 220.38 49.4865 220.747 49.3579C221.316 49.1596 221.775 48.8181 222.021 48.2489C222.314 47.5732 222.311 46.8791 222.046 46.1961C221.867 45.7371 221.533 45.4066 221.085 45.1899C220.733 45.021 220.366 44.9181 219.977 44.8814C218.993 44.7933 218.009 44.8447 217.026 44.8447C216.96 44.8447 216.89 44.8741 216.831 44.8888C216.743 45.2266 216.721 46.4972 216.758 49.0531C216.758 49.2074 216.721 49.3689 216.857 49.5342L216.853 49.5379Z" fill="#270741"/>
<path d="M154.285 43.0602C154.443 43.0528 154.579 43.0381 154.718 43.0381C156.179 43.0381 157.643 43.0345 159.104 43.0381C159.9 43.0381 160.682 43.1593 161.43 43.4458C161.977 43.6551 162.476 43.9489 162.895 44.3675C163.544 45.0175 163.897 45.807 163.959 46.7214C163.996 47.2686 163.996 47.8121 163.849 48.3483C163.57 49.3728 162.968 50.1367 162.032 50.6398C161.878 50.7242 161.724 50.805 161.585 50.8821C161.559 51.0657 161.673 51.1649 161.75 51.2787C162.432 52.2629 163.122 53.2434 163.809 54.2239C163.908 54.3634 164.04 54.4883 164.058 54.6756C163.695 54.7564 162.726 54.7747 161.867 54.7123C161.067 53.6327 160.322 52.4832 159.507 51.3632C159.159 51.2898 158.806 51.3412 158.458 51.3301C158.124 51.3228 157.79 51.3265 157.452 51.3301C157.104 51.3338 156.755 51.3081 156.381 51.3632C156.366 51.5248 156.34 51.6606 156.34 51.7965C156.337 52.5714 156.34 53.3462 156.34 54.1247C156.34 54.301 156.34 54.4736 156.34 54.6609C156.252 54.6903 156.19 54.7307 156.124 54.7307C155.559 54.7344 154.997 54.7344 154.432 54.7307C154.384 54.7307 154.333 54.7013 154.267 54.6829C154.252 54.6168 154.226 54.5507 154.223 54.4846C154.215 54.3267 154.215 54.1688 154.215 54.0072C154.215 50.5883 154.215 47.1694 154.215 43.7506C154.215 43.5412 154.186 43.3282 154.278 43.0602H154.285ZM156.384 44.9073C156.322 45.1277 156.344 45.3407 156.344 45.55C156.344 46.7288 156.344 47.9113 156.344 49.0901C156.344 49.2406 156.304 49.4095 156.454 49.5454C156.513 49.5528 156.583 49.5711 156.652 49.5711C157.496 49.5711 158.34 49.5858 159.184 49.5638C159.515 49.5564 159.849 49.494 160.172 49.4059C161.115 49.1525 161.772 48.5245 161.838 47.3531C161.897 46.2881 161.452 45.5243 160.561 45.1313C160.252 44.9955 159.929 44.9147 159.595 44.8853C158.612 44.7972 157.625 44.8486 156.641 44.8449C156.557 44.8449 156.476 44.8853 156.388 44.9073H156.384Z" fill="#270741"/>
<path d="M202.222 52.9459C202.805 52.979 203.352 52.9569 203.895 52.9606C204.424 52.9643 204.952 52.9606 205.481 52.9606C206.009 52.9606 206.571 52.9606 207.118 52.9606C207.642 52.9606 208.167 52.9459 208.71 52.9753C208.82 53.2654 208.769 53.5482 208.773 53.8236C208.776 54.1027 208.802 54.3854 208.743 54.6498C208.589 54.7747 208.424 54.7343 208.274 54.7343C207.253 54.738 206.233 54.7343 205.209 54.7343C203.697 54.7343 202.182 54.7343 200.67 54.7343C200.479 54.7343 200.284 54.7674 200.068 54.6829C200.053 54.5948 200.035 54.4956 200.027 54.3928C200.02 54.3046 200.027 54.2165 200.027 54.1284C200.027 50.6397 200.027 47.151 200.027 43.666C200.027 43.4751 199.998 43.2805 200.053 43.1299C200.097 43.0895 200.108 43.0748 200.123 43.0638C200.137 43.0564 200.156 43.0528 200.174 43.0528C202.868 43.0491 205.562 43.0418 208.252 43.0381C208.321 43.0381 208.387 43.0528 208.446 43.0601C208.479 43.0968 208.516 43.1225 208.52 43.1519C208.567 43.6771 208.553 44.2022 208.527 44.7053C208.395 44.8485 208.248 44.8118 208.112 44.8155C207.375 44.8191 206.633 44.8155 205.896 44.8155C204.875 44.8155 203.855 44.8155 202.831 44.8155C202.64 44.8155 202.446 44.7898 202.233 44.8669C202.215 44.944 202.178 45.0248 202.174 45.1056C202.171 45.9502 202.174 46.7948 202.174 47.6431C202.174 47.7092 202.2 47.7753 202.215 47.8488C202.413 47.9332 202.607 47.9039 202.794 47.9039C204.255 47.9039 205.716 47.9039 207.176 47.9039C207.367 47.9039 207.562 47.8818 207.775 47.9479C207.855 48.4951 207.808 49.0313 207.811 49.549C207.631 49.7033 207.448 49.6519 207.279 49.6519C205.8 49.6555 204.321 49.6519 202.842 49.6519C202.651 49.6519 202.461 49.6629 202.244 49.6666C202.215 49.7657 202.171 49.8428 202.171 49.9236C202.167 50.838 202.167 51.7561 202.171 52.6705C202.171 52.7366 202.196 52.8064 202.222 52.9275V52.9459Z" fill="#270741"/>
<path d="M125.774 51.3631C125.656 51.5871 125.689 51.767 125.689 51.9396C125.689 52.6961 125.689 53.4563 125.689 54.2128C125.689 54.367 125.675 54.5212 125.664 54.6681C125.264 54.7599 124.133 54.7709 123.576 54.6938C123.561 54.602 123.535 54.5029 123.524 54.4C123.517 54.2935 123.524 54.187 123.524 54.0842C123.524 50.6139 123.524 47.1436 123.524 43.6733C123.524 43.4824 123.495 43.2877 123.583 43.0784C123.686 43.0674 123.788 43.0453 123.888 43.0453C125.455 43.0453 127.022 43.0343 128.589 43.049C129.348 43.0564 130.097 43.1812 130.805 43.475C131.114 43.6035 131.415 43.7578 131.69 43.9414C132.743 44.6575 133.246 45.682 133.301 46.9343C133.319 47.375 133.308 47.812 133.202 48.2453C132.949 49.2735 132.38 50.0631 131.47 50.6066C130.904 50.9444 130.288 51.1427 129.638 51.2529C129.187 51.33 128.732 51.3594 128.273 51.3594C127.624 51.3594 126.97 51.3594 126.321 51.3594C126.145 51.3594 125.972 51.3631 125.781 51.3667L125.774 51.3631ZM125.737 49.5012C125.818 49.5269 125.869 49.5526 125.917 49.5563C126.794 49.5563 127.675 49.5783 128.552 49.549C129.08 49.5343 129.598 49.4314 130.071 49.167C130.666 48.8402 131.026 48.3408 131.106 47.6688C131.143 47.375 131.143 47.0702 131.114 46.7764C131.037 46.0566 130.659 45.5388 130.016 45.2083C129.668 45.0284 129.297 44.9256 128.908 44.8925C127.924 44.8007 126.941 44.8521 125.957 44.8521C125.877 44.8521 125.8 44.8999 125.73 44.9182C125.667 45.4103 125.671 49.0532 125.734 49.5012H125.737Z" fill="#270741"/>
<path d="M140.021 52.0499C139.588 52.9239 139.272 53.8383 138.858 54.6903C138.421 54.749 137.338 54.7564 136.773 54.7086C136.678 54.5838 136.773 54.4736 136.821 54.3708C137.184 53.5482 137.555 52.7329 137.926 51.914C138.894 49.7621 139.86 47.6101 140.829 45.4581C141.14 44.7678 141.449 44.0774 141.761 43.387C141.812 43.2768 141.874 43.1703 141.948 43.0418C142.63 43.0418 143.313 43.0271 144.01 43.0491C144.098 43.2181 144.186 43.3686 144.26 43.5265C146.275 47.9222 149.134 54.3304 149.225 54.6572C149.218 54.6719 149.218 54.6939 149.207 54.7049C149.196 54.716 149.174 54.7196 149.156 54.7196C148.576 54.727 147.996 54.7343 147.412 54.7343C147.31 54.7343 147.203 54.716 147.075 54.7049C146.877 54.2569 146.682 53.8052 146.476 53.3572C146.282 52.9276 146.135 52.4722 145.878 52.0462C145.776 52.0352 145.673 52.0095 145.57 52.0095C143.845 52.0095 142.117 52.0095 140.392 52.0095C140.271 52.0095 140.15 52.0315 140.017 52.0462L140.021 52.0499ZM142.972 45.3113C142.931 45.337 142.887 45.348 142.876 45.3737C142.194 46.9528 141.515 48.5355 140.84 50.1183C140.821 50.1623 140.84 50.2211 140.84 50.2982C140.917 50.3129 141.001 50.346 141.082 50.346C142.348 50.346 143.614 50.346 144.876 50.346C144.957 50.346 145.034 50.3129 145.115 50.2945C145.009 49.8686 143.577 46.457 143.071 45.4141C143.052 45.3737 143.005 45.3443 142.975 45.3113H142.972Z" fill="#270741"/>
<path d="M238.044 43.9157C237.838 44.4775 237.64 44.999 237.38 45.5204C237.196 45.436 237.038 45.3625 236.884 45.2891C235.794 44.764 234.649 44.562 233.446 44.6868C233.038 44.7309 232.649 44.8301 232.297 45.0504C231.97 45.2524 231.743 45.5351 231.644 45.9134C231.515 46.4055 231.644 46.8204 232.029 47.1473C232.315 47.3896 232.653 47.5439 233.009 47.6467C233.446 47.7752 233.89 47.8854 234.33 48.0066C234.972 48.1865 235.622 48.3518 236.26 48.5501C236.84 48.73 237.35 49.0348 237.791 49.4571C238.261 49.9088 238.499 50.467 238.547 51.0986C238.646 52.4978 238.077 53.5554 236.844 54.2458C236.301 54.5506 235.714 54.7379 235.101 54.8223C233.574 55.0317 232.084 54.8848 230.638 54.3229C230.242 54.1687 229.864 53.9851 229.519 53.7353C229.434 53.6766 229.361 53.5995 229.295 53.5407C229.394 53.1111 229.757 52.2848 230.011 51.9176C230.095 51.969 230.183 52.0204 230.271 52.0755C231.299 52.7438 232.436 53.0743 233.651 53.1478C234.18 53.1772 234.704 53.1147 235.218 52.9715C235.526 52.8834 235.802 52.7365 236.044 52.5198C236.547 52.0608 236.653 51.1978 235.993 50.6727C235.71 50.4487 235.398 50.2981 235.057 50.1989C234.532 50.0484 234.003 49.9162 233.479 49.7693C232.855 49.593 232.227 49.4167 231.607 49.2184C231.079 49.0495 230.623 48.7521 230.231 48.3591C229.886 48.0139 229.651 47.61 229.559 47.1252C229.471 46.6552 229.456 46.1741 229.548 45.7077C229.695 44.9549 230.088 44.3416 230.697 43.8679C231.236 43.4493 231.849 43.1812 232.51 43.049C234.007 42.7552 235.486 42.8323 236.932 43.3428C237.314 43.4787 237.684 43.6292 238.044 43.9193V43.9157Z" fill="#270741"/>
<path d="M171.987 44.8632C171.745 44.8522 171.554 44.8412 171.363 44.8412C170.482 44.8412 169.605 44.8412 168.724 44.8412C168.552 44.8412 168.372 44.8669 168.21 44.7861C168.111 44.3821 168.108 43.5522 168.21 43.0821C168.335 43.0711 168.467 43.0454 168.603 43.0454C169.623 43.0454 170.644 43.0454 171.664 43.0454C173.565 43.0454 175.466 43.0454 177.363 43.0454H177.958C177.994 43.1482 178.046 43.2254 178.046 43.3061C178.053 43.7285 178.049 44.1508 178.046 44.5731C178.046 44.6392 178.016 44.7053 177.998 44.7787C177.804 44.8705 177.609 44.8448 177.422 44.8448C176.56 44.8448 175.697 44.8448 174.835 44.8448C174.644 44.8448 174.449 44.8155 174.229 44.9109C174.214 44.9954 174.185 45.0945 174.178 45.1937C174.167 45.3516 174.174 45.5095 174.174 45.6674C174.174 48.4841 174.174 51.3007 174.174 54.1173C174.174 54.3083 174.207 54.5029 174.13 54.6792C173.69 54.771 172.49 54.7673 172.064 54.6719C172.005 54.4956 172.027 54.301 172.027 54.11C172.027 51.5394 172.027 48.9688 172.027 46.3982C172.027 46.0273 172.027 45.6601 172.027 45.2892C172.027 45.168 172.009 45.0468 171.99 44.8669L171.987 44.8632Z" fill="#270741"/>
<path d="M86.8952 49.2626C86.8218 49.0202 86.8401 48.8109 86.8695 48.5722C86.9612 48.5465 87.0567 48.5098 87.1557 48.4988C87.2768 48.4841 87.4016 48.4951 87.5264 48.4951C97.1929 48.4951 106.863 48.4951 116.53 48.4951C116.735 48.4951 116.948 48.462 117.168 48.5502C117.245 48.7742 117.205 48.9982 117.198 49.2406C117.073 49.2699 116.974 49.2993 116.875 49.3103C116.754 49.3213 116.629 49.314 116.504 49.314C106.852 49.314 97.2039 49.314 87.5521 49.314C87.3429 49.314 87.1301 49.3434 86.8915 49.2626H86.8952Z" fill="#270741"/>
<path d="M275.198 48.5464C275.246 48.7815 275.246 49.0055 275.198 49.2515C275.099 49.2699 275 49.2993 274.901 49.3066C274.794 49.3176 274.688 49.3066 274.585 49.3066C264.919 49.3066 255.252 49.3066 245.582 49.3066C245.376 49.3066 245.16 49.3507 244.954 49.2442C244.87 49.0238 244.888 48.7998 244.943 48.5501C245.042 48.5317 245.141 48.5024 245.241 48.495C245.362 48.484 245.486 48.495 245.611 48.495C255.226 48.495 264.842 48.495 274.457 48.495C274.699 48.495 274.945 48.462 275.202 48.5464H275.198Z" fill="#270741"/>
</g>
<defs>
<clipPath id="clip0_4786_7841">
<rect width="275" height="60.152" fill="white" transform="translate(0.234375 0.924316)"/>
</clipPath>
</defs>
</svg>
