<svg width="173" height="39" viewBox="0 0 173 39" fill="none" xmlns="http://www.w3.org/2000/svg">
<g clip-path="url(#clip0_3984_5901)">
<path d="M22.5586 0.506959C22.5401 0.588151 22.5424 0.622947 22.5263 0.650784C21.3904 2.61098 20.2545 4.5735 19.1301 6.51282C18.987 6.58241 18.8623 6.55922 18.7423 6.55922C17.3455 6.55922 15.951 6.55922 14.5542 6.55922C13.3468 6.55922 12.1393 6.55922 10.9318 6.55922C10.8118 6.55922 10.6894 6.54298 10.5786 6.58241C10.5324 6.69376 10.5948 6.76567 10.6363 6.84223C10.8972 7.29458 11.1581 7.74693 11.419 8.19929C12.952 10.8438 14.485 13.486 16.018 16.1305C17.7333 19.0929 19.4487 22.0552 21.1641 25.0152C21.3765 25.3818 21.5843 25.7483 21.7967 26.1125C21.8406 26.1867 21.896 26.254 21.9445 26.3236C22.0784 26.2981 22.1038 26.189 22.1499 26.1078C22.4824 25.5418 22.8079 24.9735 23.1358 24.4075C24.1562 22.6468 25.1744 20.8884 26.1948 19.1277C26.2387 19.0511 26.2895 18.9792 26.3218 18.9282C26.3541 18.905 26.3634 18.8957 26.3726 18.8911C26.3818 18.8864 26.3934 18.8841 26.4049 18.8841C28.6421 18.8818 30.8792 18.8795 33.1187 18.8748C33.1741 18.8748 33.2272 18.8748 33.2688 18.8748C33.3404 18.9607 33.2873 19.0117 33.2572 19.0674C32.9525 19.5963 32.6454 20.1252 32.3384 20.6541C31.3756 22.3173 30.4129 23.9806 29.4478 25.6462C28.3327 27.5693 27.2176 29.4924 26.1048 31.4155C24.7957 33.6749 23.4867 35.9367 22.18 38.1961C22.1199 38.3005 22.0553 38.4002 21.9953 38.4977C21.9652 38.4861 21.9491 38.4861 21.9445 38.4791C14.6535 25.8967 7.36023 13.3097 0.0669531 0.725017C0.0392484 0.678622 0.0207786 0.625267 0 0.585831C0.0207786 0.5 0.0808055 0.50464 0.133906 0.50232C0.23549 0.5 0.334766 0.5 0.434041 0.5C7.66729 0.5 14.9028 0.5 22.1361 0.5C22.2677 0.5 22.3993 0.50464 22.5586 0.506959Z" fill="white" fill-opacity="0.8"/>
<path d="M21.9869 20.1368C21.9315 20.0672 21.9015 20.037 21.8784 19.9999C20.7263 18.0096 19.5697 16.0215 18.4199 14.0219C18.4707 13.9221 18.5123 13.8317 18.5608 13.7458C19.2903 12.4862 20.0199 11.2266 20.7494 9.96694C20.918 9.67697 20.918 9.67697 21.2435 9.67697C22.4948 9.67697 23.7462 9.67697 24.9975 9.67697C27.08 9.67697 29.1624 9.67697 31.2449 9.67697H31.6258C31.8036 9.51227 31.8867 9.31509 31.9906 9.13415C32.4616 8.31527 32.9257 7.49408 33.3897 6.67288C33.3966 6.65897 33.3828 6.63113 33.3759 6.59401C33.3435 6.58473 33.3043 6.56617 33.2627 6.56385C33.1519 6.55922 33.0411 6.55922 32.9303 6.55922C29.6842 6.55922 26.4381 6.55922 23.1944 6.55922C23.0651 6.55922 22.9312 6.57545 22.8134 6.53834C22.7673 6.45019 22.8227 6.39915 22.8527 6.34348C23.1782 5.77514 23.5061 5.20679 23.8362 4.64077C24.5704 3.37186 25.3069 2.10295 26.0433 0.834045C26.1034 0.729656 26.1703 0.625267 26.2234 0.537116C26.2534 0.525517 26.2627 0.518558 26.2742 0.516238C26.2858 0.511598 26.295 0.509279 26.3065 0.509279C26.4174 0.506959 26.5282 0.502319 26.639 0.502319C32.3762 0.502319 38.1157 0.502319 43.8529 0.502319C43.8737 0.502319 43.8967 0.509279 43.9175 0.513918C43.9291 0.516238 43.9383 0.523197 43.9475 0.527837C43.9822 0.615988 43.9221 0.676301 43.8852 0.741255C43.5966 1.24232 43.308 1.74107 43.0171 2.24214C41.6019 4.68485 40.1866 7.12524 38.7737 9.56795C37.6493 11.5096 36.525 13.4535 35.3983 15.3952C35.1767 15.7779 35.2321 15.7478 34.775 15.7478C31.5404 15.7478 28.3059 15.7478 25.0714 15.7478C24.9375 15.7478 24.8059 15.7524 24.672 15.7571C24.5888 15.7594 24.5242 15.8011 24.4803 15.8707C24.4388 15.9357 24.3995 16.003 24.3603 16.0702C23.6353 17.3206 22.9104 18.5686 22.1855 19.819C22.13 19.9141 22.07 20.0069 21.9869 20.1391V20.1368Z" fill="white" fill-opacity="0.8"/>
<path d="M149.758 4.766C149.816 4.7544 149.878 4.73352 149.943 4.73352C150.961 4.73352 151.981 4.73352 153 4.73352C153.053 4.73352 153.106 4.74976 153.173 4.75904C153.184 4.83095 153.2 4.89358 153.205 4.95854C153.21 5.04669 153.205 5.13716 153.205 5.22531C153.205 10.0574 153.205 14.8871 153.205 19.7192V20.1205C153.131 20.2272 153.05 20.2202 152.974 20.2202C152.653 20.2226 152.332 20.2202 152.011 20.2202C151.524 20.2202 151.037 20.2133 150.55 20.2226C150.365 20.2272 150.245 20.1599 150.13 20.0161C149.25 18.9281 148.361 17.8471 147.475 16.7638C145.921 14.8639 144.37 12.9617 142.816 11.0618C142.767 11.0038 142.712 10.9505 142.64 10.8739C142.615 10.9389 142.592 10.9783 142.589 11.0154C142.583 11.1477 142.583 11.2822 142.583 11.4168C142.583 14.1889 142.583 16.961 142.583 19.7308C142.583 19.8746 142.601 20.0184 142.546 20.1762C142.488 20.1901 142.426 20.2133 142.363 20.2156C142.13 20.2202 141.899 20.2202 141.666 20.2202C140.946 20.2202 140.225 20.2202 139.505 20.2202C139.385 20.2202 139.265 20.2133 139.131 20.2086C139.113 20.1298 139.092 20.0695 139.087 20.0068C139.08 19.9303 139.083 19.8514 139.083 19.7725C139.083 14.908 139.083 10.0435 139.083 5.17892C139.083 5.04669 139.066 4.91214 139.117 4.766C139.189 4.7544 139.263 4.73352 139.334 4.73352C140.154 4.7312 140.973 4.73352 141.793 4.72888C141.955 4.72888 142.058 4.78456 142.158 4.90982C142.673 5.55008 143.194 6.18569 143.714 6.82363C145.455 8.96013 147.193 11.0943 148.934 13.2308C149.123 13.4628 149.313 13.6948 149.504 13.9267C149.543 13.9754 149.594 14.0149 149.663 14.0798C149.682 13.9963 149.7 13.9453 149.703 13.8919C149.707 13.7481 149.707 13.602 149.707 13.4581C149.707 10.7092 149.707 7.96031 149.707 5.20907C149.707 5.06757 149.682 4.9191 149.753 4.76832L149.758 4.766Z" fill="white" fill-opacity="0.8"/>
<path d="M84.1207 4.45288C85.5106 4.42272 86.9096 4.6895 88.1287 5.24856C89.8533 6.0396 91.1623 7.26907 92.005 8.98337C92.3606 9.70714 92.5776 10.4727 92.6953 11.2707C92.7946 11.9573 92.8015 12.6486 92.7392 13.3352C92.6399 14.4441 92.3167 15.4926 91.7534 16.4576C90.6683 18.3135 89.0683 19.5012 87.0343 20.1205C86.2032 20.3734 85.3466 20.4778 84.4786 20.4871C83.3727 20.4987 82.2922 20.3595 81.244 19.9906C79.9581 19.536 78.8291 18.8331 77.9079 17.8124C76.8782 16.6687 76.2433 15.3349 76.0101 13.8062C75.8924 13.029 75.8624 12.2519 75.964 11.4771C76.3195 8.7398 77.7255 6.72857 80.152 5.43878C81.341 4.8078 82.7262 4.4784 84.1207 4.45056V4.45288ZM79.5032 12.4955C79.5102 12.8179 79.524 13.1381 79.5817 13.4582C79.8888 15.147 80.7892 16.3765 82.3614 17.0677C83.3888 17.5178 84.467 17.5897 85.5498 17.3229C87.1451 16.9309 88.2626 15.9589 88.8513 14.4116C89.2784 13.2865 89.3107 12.129 88.9875 10.9714C88.595 9.56099 87.7362 8.53102 86.404 7.9302C85.3143 7.43841 84.1761 7.3665 83.0264 7.67039C81.5903 8.04851 80.5583 8.93002 79.9396 10.2894C79.621 10.9876 79.4917 11.73 79.5032 12.4955Z" fill="white" fill-opacity="0.8"/>
<path d="M54.5792 4.75678C54.8609 4.7243 58.0215 4.7243 58.3193 4.76142C58.4856 5.07227 58.6102 5.41559 58.7557 5.74964C58.8988 6.07672 59.0327 6.40381 59.1736 6.7309C59.3167 7.06958 59.4599 7.40595 59.603 7.74463C59.7415 8.07172 59.8824 8.39881 60.0232 8.72589C60.1663 9.06458 60.3072 9.40094 60.4503 9.73963C60.5888 10.0667 60.725 10.3961 60.8636 10.7232C61.0067 11.0619 61.1498 11.3983 61.2953 11.7346C61.4338 12.0617 61.5723 12.3888 61.7109 12.7182C61.854 13.0569 61.9971 13.3933 62.1426 13.7296C62.2811 14.0567 62.422 14.3838 62.5605 14.7109C62.7013 15.0472 62.8329 15.3906 62.9899 15.7084C63.0799 15.7316 63.1053 15.6805 63.1284 15.6295C63.3085 15.2119 63.4909 14.7921 63.6687 14.3745C64.4883 12.4653 65.3079 10.5539 66.1298 8.6447C66.6469 7.44074 67.1664 6.23447 67.6859 5.03051C67.7251 4.94004 67.769 4.85189 67.8059 4.77302C68.0783 4.71967 70.147 4.69647 71.1097 4.73358C71.1628 4.73358 71.2136 4.74982 71.2552 4.75678C71.3036 4.87277 71.239 4.94932 71.2067 5.02587C70.8488 5.86331 70.491 6.70306 70.1285 7.53817C69.0734 9.98784 68.016 12.4375 66.9609 14.8872C66.2314 16.5806 65.4995 18.2763 64.7676 19.9698C64.7376 20.0417 64.703 20.1113 64.666 20.1925C64.5922 20.2017 64.5183 20.2203 64.4421 20.2203C63.4216 20.2203 62.4035 20.2203 61.383 20.2203C61.3068 20.2203 61.2307 20.2041 61.1637 20.1971C61.0159 19.9512 54.8909 5.74036 54.57 4.90757C54.5584 4.87741 54.5538 4.84493 54.5469 4.81246C54.5469 4.80318 54.5515 4.79158 54.5561 4.7823C54.5607 4.77302 54.5677 4.76374 54.5746 4.75446L54.5792 4.75678Z" fill="white" fill-opacity="0.8"/>
<path d="M133.493 20.1995C133.414 20.2087 133.35 20.2203 133.285 20.2227C132.431 20.2482 130.048 20.2319 129.741 20.1971C129.707 20.1345 129.66 20.0603 129.626 19.9814C129.06 18.6522 128.497 17.323 127.933 15.9914C127.192 14.2423 126.449 12.4932 125.706 10.7441C125.519 10.3034 125.334 9.86493 125.145 9.42418C125.115 9.3569 125.075 9.29427 125.043 9.23396C125.013 9.24092 125.001 9.24092 124.99 9.24556C124.981 9.2502 124.971 9.25948 124.964 9.26643C124.953 9.28499 124.941 9.30355 124.932 9.32443C124.918 9.35459 124.904 9.38474 124.891 9.4149C123.353 12.9873 121.815 16.5598 120.278 20.1322C120.273 20.1415 120.269 20.1531 120.262 20.16C120.255 20.1693 120.248 20.1763 120.232 20.1948C120.199 20.2018 120.155 20.218 120.114 20.218C119.049 20.218 117.987 20.218 116.923 20.218C116.879 20.218 116.838 20.2041 116.775 20.1925C116.792 20.1229 116.796 20.058 116.822 20.0023C117.214 19.0837 117.611 18.165 118.006 17.2441C118.883 15.2027 119.763 13.1613 120.64 11.1199C121.52 9.07853 122.399 7.03714 123.279 4.99807C123.314 4.91688 123.358 4.84033 123.401 4.75682C123.692 4.70578 123.979 4.73826 124.265 4.73362C124.563 4.72898 124.863 4.73362 125.163 4.73362C125.463 4.73362 125.74 4.72898 126.026 4.73362C126.313 4.73826 126.601 4.71042 126.89 4.75218C126.92 4.80321 126.952 4.84961 126.973 4.90064C129.146 9.96468 131.318 15.031 133.488 20.0974C133.495 20.116 133.488 20.1415 133.488 20.1995H133.493Z" fill="white" fill-opacity="0.8"/>
<path d="M164.481 7.65651C164.135 7.61939 163.816 7.64259 163.495 7.63795C163.174 7.63331 162.853 7.63795 162.532 7.63795H159.628C159.61 7.56604 159.582 7.50341 159.582 7.44309C159.58 6.60798 159.58 5.77286 159.582 4.94007C159.582 4.88672 159.596 4.83336 159.603 4.76841C159.663 4.75681 159.713 4.74057 159.769 4.73593C159.868 4.73129 159.967 4.73361 160.067 4.73361C164.22 4.73361 168.373 4.73361 172.525 4.73361C172.624 4.73361 172.723 4.73129 172.822 4.73825C172.875 4.74289 172.926 4.76377 172.996 4.78001C173 5.71951 172.996 6.65205 172.996 7.5614C172.901 7.66115 172.809 7.63563 172.723 7.63795C172.192 7.64027 171.661 7.63795 171.128 7.63795C170.241 7.63795 169.357 7.63795 168.47 7.63795C168.35 7.63795 168.228 7.62171 168.136 7.65419C168.053 7.72378 168.066 7.79338 168.064 7.85833C168.059 7.98128 168.064 8.10422 168.064 8.22485C168.064 12.0757 168.064 15.9265 168.064 19.7773C168.064 19.9095 168.08 20.0417 168.041 20.1623C167.932 20.2482 167.817 20.2227 167.711 20.2227C167.081 20.225 166.448 20.2227 165.818 20.2227C165.508 20.2227 165.197 20.2227 164.887 20.2227C164.779 20.2227 164.666 20.2389 164.543 20.1786C164.534 20.1252 164.518 20.0626 164.516 19.9976C164.511 19.8979 164.516 19.7981 164.516 19.6984C164.516 15.836 164.516 11.9759 164.516 8.1135C164.516 7.972 164.532 7.82585 164.486 7.65651H164.481Z" fill="white" fill-opacity="0.8"/>
<path d="M99.9499 4.73816C101.063 4.72656 102.157 4.73352 103.254 4.73352C103.307 4.73352 103.36 4.74743 103.431 4.75903C103.441 4.83327 103.452 4.8959 103.455 4.95853C103.459 5.05828 103.455 5.15803 103.455 5.2601C103.455 9.1225 103.455 12.9849 103.455 16.8496C103.455 16.9935 103.438 17.1373 103.482 17.295C103.545 17.3089 103.607 17.3275 103.672 17.3321C103.771 17.3391 103.87 17.3345 103.972 17.3345C106.232 17.3345 108.492 17.3345 110.752 17.3345C110.884 17.3345 111.016 17.3205 111.161 17.36C111.17 17.418 111.189 17.469 111.189 17.5224C111.189 18.3575 111.189 19.1926 111.189 20.0277C111.189 20.0718 111.177 20.1158 111.17 20.1762C111.11 20.1924 111.05 20.2179 110.988 20.2226C110.889 20.2318 110.789 20.2272 110.69 20.2272C107.255 20.2272 103.822 20.2272 100.386 20.2272C100.243 20.2272 100.098 20.2504 99.9453 20.1901C99.9337 20.1321 99.9152 20.0695 99.9106 20.0068C99.9037 19.9187 99.9106 19.8282 99.9106 19.74C99.9106 14.8964 99.9106 10.055 99.9106 5.21139C99.9106 5.06988 99.8852 4.92374 99.9568 4.7428L99.9499 4.73816Z" fill="white" fill-opacity="0.8"/>
<path d="M120.239 27.1401C120.534 27.0937 121.178 27.089 121.52 27.1285C121.534 27.1818 121.555 27.2422 121.562 27.3048C121.569 27.3813 121.566 27.4602 121.566 27.5391C121.566 29.7104 121.566 31.8794 121.566 34.0506C121.566 34.1829 121.585 34.3174 121.536 34.445C121.322 34.5076 121.026 34.5192 120.463 34.4798C120.421 34.4357 120.368 34.3801 120.32 34.3221C119.269 33.0276 118.221 31.7355 117.17 30.4411C116.967 30.1906 116.766 29.94 116.561 29.6918C116.522 29.6431 116.471 29.6037 116.434 29.5689C116.353 29.5921 116.365 29.6454 116.365 29.6849C116.362 29.8844 116.362 30.0862 116.362 30.2857C116.362 31.5546 116.362 32.8235 116.362 34.0924C116.362 34.213 116.379 34.336 116.339 34.4496C116.111 34.51 115.437 34.5192 115.067 34.4659C115.058 34.4079 115.044 34.3453 115.042 34.2826C115.037 34.1829 115.042 34.0831 115.042 33.9811C115.042 31.833 115.042 29.6849 115.042 27.5368C115.042 27.4069 115.026 27.2723 115.072 27.1262C115.427 27.0844 115.778 27.1122 116.148 27.1076C116.817 27.9358 117.487 28.7639 118.159 29.5897C118.823 30.4063 119.481 31.2298 120.144 32.0325C120.227 32.0209 120.232 31.9745 120.232 31.9304C120.234 31.8306 120.234 31.7309 120.234 31.6288C120.234 30.2602 120.234 28.8915 120.234 27.5228C120.234 27.4022 120.236 27.2793 120.239 27.1424V27.1401Z" fill="white" fill-opacity="0.8"/>
<path d="M134.881 34.4706C134.874 34.3894 134.865 34.3244 134.865 34.2595C134.828 32.5498 134.847 27.4788 134.895 27.1332C134.951 27.1239 135.013 27.1053 135.078 27.1053C136.075 27.1053 137.072 27.0984 138.067 27.11C138.534 27.1146 138.993 27.1958 139.43 27.3698C139.72 27.4858 139.988 27.6366 140.226 27.8453C140.57 28.1469 140.801 28.5204 140.921 28.9612C141.062 29.4761 141.064 29.9911 140.916 30.5084C140.743 31.1162 140.378 31.5709 139.831 31.884C139.774 31.9165 139.714 31.9444 139.654 31.9768C139.605 32.0024 139.557 32.0279 139.517 32.0488C139.471 32.1694 139.552 32.2297 139.6 32.2993C139.935 32.7841 140.272 33.2666 140.609 33.7491C140.729 33.9231 140.852 34.0948 140.97 34.2688C141.006 34.3221 141.036 34.3801 141.066 34.4288C141.055 34.452 141.053 34.4636 141.046 34.4729C141.039 34.4799 141.03 34.4868 141.02 34.4868C140.965 34.4915 140.909 34.4984 140.854 34.4984C140.469 34.4984 140.081 34.4984 139.688 34.4984C139.584 34.3523 139.487 34.2177 139.393 34.0809C139.03 33.5612 138.668 33.0439 138.312 32.5197C138.229 32.3967 138.137 32.341 137.984 32.3434C137.486 32.3526 136.987 32.3457 136.488 32.348C136.412 32.348 136.338 32.3596 136.278 32.3642C136.193 32.4547 136.214 32.5475 136.214 32.6333C136.211 33.1344 136.214 33.6355 136.211 34.1365C136.211 34.2456 136.234 34.3592 136.172 34.4613C135.941 34.51 135.327 34.5193 134.879 34.4775L134.881 34.4706ZM136.276 31.209C136.313 31.2136 136.366 31.2276 136.419 31.2276C136.95 31.2276 137.481 31.2322 138.01 31.2252C138.252 31.2206 138.495 31.1765 138.725 31.0953C139.083 30.9701 139.372 30.7543 139.527 30.3948C139.711 29.9679 139.709 29.5295 139.543 29.098C139.43 28.808 139.219 28.5993 138.938 28.4624C138.716 28.3557 138.485 28.2907 138.241 28.2675C137.622 28.2119 137.003 28.2443 136.384 28.2443C136.343 28.2443 136.299 28.2629 136.262 28.2722C136.207 28.4856 136.193 29.2882 136.216 30.9028C136.216 31.0002 136.193 31.1023 136.278 31.2067L136.276 31.209Z" fill="white" fill-opacity="0.8"/>
<path d="M96.9139 27.1169C97.0131 27.1122 97.0986 27.103 97.1863 27.103C98.1052 27.103 99.0264 27.1006 99.9452 27.103C100.446 27.103 100.938 27.1795 101.409 27.3605C101.753 27.4927 102.067 27.6783 102.33 27.9427C102.739 28.3533 102.96 28.8521 103 29.4297C103.023 29.7753 103.023 30.1186 102.93 30.4573C102.755 31.1045 102.376 31.5871 101.788 31.9049C101.691 31.9582 101.594 32.0093 101.506 32.058C101.49 32.174 101.561 32.2366 101.61 32.3085C102.039 32.9302 102.473 33.5496 102.905 34.169C102.967 34.2571 103.05 34.336 103.062 34.4543C102.833 34.5053 102.224 34.5169 101.684 34.4775C101.18 33.7955 100.712 33.0694 100.199 32.3619C99.9799 32.3155 99.7582 32.3479 99.5389 32.341C99.3288 32.3363 99.1187 32.3387 98.9063 32.341C98.687 32.3433 98.4676 32.3271 98.2322 32.3619C98.2229 32.4639 98.2068 32.5498 98.2068 32.6356C98.2044 33.1251 98.2068 33.6145 98.2068 34.1063C98.2068 34.2177 98.2068 34.3267 98.2068 34.445C98.1513 34.4636 98.1121 34.4891 98.0705 34.4891C97.715 34.4914 97.3618 34.4914 97.0062 34.4891C96.9762 34.4891 96.9439 34.4705 96.9023 34.4589C96.8931 34.4172 96.8769 34.3754 96.8746 34.3337C96.87 34.2339 96.87 34.1342 96.87 34.0321C96.87 31.8724 96.87 29.7127 96.87 27.553C96.87 27.4208 96.8515 27.2862 96.9093 27.1169H96.9139ZM98.2345 28.2837C98.1952 28.4229 98.2091 28.5574 98.2091 28.6897C98.2091 29.4343 98.2091 30.1813 98.2091 30.9259C98.2091 31.021 98.1837 31.1277 98.2783 31.2136C98.3153 31.2182 98.3591 31.2298 98.403 31.2298C98.934 31.2298 99.465 31.2391 99.996 31.2252C100.204 31.2205 100.414 31.1811 100.617 31.1254C101.21 30.9654 101.624 30.5687 101.665 29.8287C101.702 29.1559 101.423 28.6734 100.862 28.4252C100.668 28.3394 100.465 28.2884 100.255 28.2698C99.6359 28.2141 99.0148 28.2466 98.3961 28.2443C98.343 28.2443 98.2922 28.2698 98.2368 28.2837H98.2345Z" fill="white" fill-opacity="0.8"/>
<path d="M127.071 33.3617C127.438 33.3826 127.782 33.3687 128.124 33.371C128.456 33.3733 128.789 33.371 129.121 33.371C129.454 33.371 129.807 33.371 130.151 33.371C130.481 33.371 130.811 33.3617 131.153 33.3803C131.222 33.5636 131.19 33.7422 131.192 33.9162C131.194 34.0925 131.211 34.2711 131.174 34.4381C131.077 34.517 130.973 34.4915 130.878 34.4915C130.236 34.4938 129.595 34.4915 128.95 34.4915C127.999 34.4915 127.046 34.4915 126.094 34.4915C125.974 34.4915 125.852 34.5123 125.716 34.459C125.707 34.4033 125.695 34.3407 125.69 34.2757C125.686 34.2201 125.69 34.1644 125.69 34.1087C125.69 31.9049 125.69 29.7012 125.69 27.4997C125.69 27.3791 125.672 27.2561 125.707 27.161C125.734 27.1355 125.741 27.1262 125.75 27.1193C125.76 27.1146 125.771 27.1123 125.783 27.1123C127.477 27.11 129.172 27.1053 130.864 27.103C130.908 27.103 130.95 27.1123 130.987 27.1169C131.007 27.1401 131.031 27.1564 131.033 27.1749C131.063 27.5067 131.054 27.8384 131.037 28.1562C130.954 28.2467 130.862 28.2235 130.777 28.2258C130.313 28.2281 129.846 28.2258 129.382 28.2258C128.74 28.2258 128.098 28.2258 127.454 28.2258C127.334 28.2258 127.212 28.2096 127.078 28.2583C127.066 28.307 127.043 28.358 127.041 28.4091C127.039 28.9426 127.041 29.4761 127.041 30.012C127.041 30.0538 127.057 30.0955 127.066 30.1419C127.191 30.1953 127.314 30.1767 127.431 30.1767C128.35 30.1767 129.269 30.1767 130.188 30.1767C130.308 30.1767 130.43 30.1628 130.564 30.2045C130.615 30.5502 130.585 30.8889 130.587 31.216C130.474 31.3134 130.359 31.2809 130.253 31.2809C129.322 31.2832 128.392 31.2809 127.461 31.2809C127.341 31.2809 127.221 31.2879 127.085 31.2902C127.066 31.3528 127.039 31.4015 127.039 31.4526C127.036 32.0302 127.036 32.6101 127.039 33.1878C127.039 33.2295 127.055 33.2736 127.071 33.3501V33.3617Z" fill="white" fill-opacity="0.8"/>
<path d="M78.9768 32.3619C78.9029 32.5034 78.9237 32.617 78.9237 32.7261C78.9237 33.2039 78.9237 33.6841 78.9237 34.162C78.9237 34.2594 78.9145 34.3569 78.9075 34.4497C78.6559 34.5076 77.9448 34.5146 77.5939 34.4659C77.5846 34.4079 77.5685 34.3453 77.5616 34.2803C77.5569 34.213 77.5616 34.1458 77.5616 34.0808C77.5616 31.8886 77.5616 29.6965 77.5616 27.5043C77.5616 27.3837 77.5431 27.2607 77.5985 27.1285C77.6631 27.1215 77.7278 27.1076 77.7901 27.1076C78.7759 27.1076 79.7618 27.1006 80.7476 27.1099C81.2255 27.1146 81.6965 27.1934 82.1421 27.379C82.336 27.4602 82.5253 27.5576 82.6985 27.6736C83.3611 28.126 83.6774 28.7732 83.712 29.5642C83.7235 29.8426 83.7166 30.1187 83.6497 30.3924C83.4904 31.0419 83.1325 31.5407 82.56 31.884C82.2044 32.0974 81.8165 32.2227 81.4079 32.2923C81.1239 32.341 80.8376 32.3595 80.549 32.3595C80.1404 32.3595 79.7294 32.3595 79.3208 32.3595C79.21 32.3595 79.1015 32.3619 78.9814 32.3642L78.9768 32.3619ZM78.9537 31.1857C79.0045 31.202 79.0368 31.2182 79.0668 31.2205C79.6186 31.2205 80.1727 31.2345 80.7245 31.2159C81.057 31.2066 81.3825 31.1417 81.6803 30.9746C82.0543 30.7682 82.2806 30.4527 82.3314 30.0282C82.3545 29.8426 82.3545 29.6501 82.336 29.4645C82.2875 29.0098 82.0497 28.6827 81.6457 28.4739C81.4264 28.3603 81.1932 28.2953 80.9485 28.2744C80.3297 28.2165 79.711 28.2489 79.0922 28.2489C79.0414 28.2489 78.993 28.2791 78.9491 28.2907C78.9098 28.6015 78.9122 30.9027 78.9514 31.1857H78.9537Z" fill="white" fill-opacity="0.8"/>
<path d="M87.94 32.7957C87.6676 33.3478 87.469 33.9254 87.2081 34.4636C86.9334 34.5007 86.2523 34.5054 85.8968 34.4752C85.8368 34.3963 85.8968 34.3267 85.9268 34.2618C86.1554 33.7422 86.3885 33.2272 86.6217 32.7099C87.2312 31.3505 87.8384 29.9911 88.4479 28.6317C88.6442 28.1956 88.8381 27.7595 89.0343 27.3234C89.0667 27.2538 89.1059 27.1865 89.1521 27.1053C89.5815 27.1053 90.0109 27.096 90.4496 27.11C90.505 27.2167 90.5604 27.3118 90.6066 27.4115C91.8741 30.1883 93.6726 34.2363 93.7303 34.4427C93.7257 34.452 93.7257 34.4659 93.7188 34.4729C93.7118 34.4798 93.698 34.4822 93.6864 34.4822C93.3217 34.4868 92.9569 34.4914 92.5898 34.4914C92.5251 34.4914 92.4582 34.4798 92.3774 34.4729C92.2527 34.1899 92.1303 33.9045 92.0011 33.6215C91.8787 33.3501 91.7863 33.0625 91.6247 32.7934C91.5601 32.7864 91.4954 32.7702 91.4308 32.7702C90.3457 32.7702 89.2583 32.7702 88.1732 32.7702C88.097 32.7702 88.0208 32.7841 87.9377 32.7934L87.94 32.7957ZM89.7962 28.5389C89.7708 28.5552 89.7431 28.5621 89.7362 28.5784C89.3068 29.5759 88.8797 30.5757 88.4549 31.5755C88.4433 31.6033 88.4549 31.6405 88.4549 31.6892C88.5033 31.6985 88.5564 31.7193 88.6072 31.7193C89.4037 31.7193 90.2003 31.7193 90.9945 31.7193C91.0452 31.7193 91.0937 31.6985 91.1445 31.6869C91.0776 31.4178 90.1772 29.2627 89.8586 28.6039C89.847 28.5784 89.817 28.5598 89.7985 28.5389H89.7962Z" fill="white" fill-opacity="0.8"/>
<path d="M149.606 27.6575C149.476 28.0124 149.352 28.3418 149.188 28.6712C149.072 28.6178 148.973 28.5714 148.876 28.525C148.19 28.1933 147.47 28.0657 146.713 28.1446C146.456 28.1724 146.212 28.2351 145.99 28.3743C145.785 28.5018 145.641 28.6805 145.579 28.9194C145.498 29.2302 145.579 29.4924 145.822 29.6988C146.002 29.8519 146.214 29.9494 146.438 30.0143C146.713 30.0955 146.992 30.1651 147.269 30.2417C147.673 30.3553 148.082 30.4597 148.484 30.585C148.848 30.6987 149.169 30.8912 149.446 31.158C149.742 31.4433 149.892 31.7959 149.922 32.1949C149.984 33.0787 149.626 33.7468 148.851 34.1829C148.509 34.3755 148.14 34.4938 147.754 34.5471C146.794 34.6794 145.856 34.5866 144.947 34.2317C144.697 34.1342 144.459 34.0182 144.242 33.8605C144.189 33.8234 144.143 33.7747 144.102 33.7375C144.164 33.4661 144.392 32.9442 144.552 32.7122C144.605 32.7447 144.66 32.7772 144.716 32.812C145.362 33.2342 146.078 33.4429 146.842 33.4893C147.174 33.5079 147.505 33.4685 147.828 33.378C148.022 33.3223 148.195 33.2295 148.347 33.0926C148.664 32.8027 148.731 32.2575 148.315 31.9258C148.137 31.7843 147.941 31.6892 147.726 31.6266C147.396 31.5314 147.064 31.4479 146.734 31.3551C146.341 31.2438 145.946 31.1325 145.556 31.0072C145.224 30.9005 144.937 30.7126 144.69 30.4644C144.473 30.2463 144.326 29.9911 144.268 29.6849C144.212 29.388 144.203 29.0841 144.261 28.7895C144.353 28.3139 144.6 27.9265 144.983 27.6273C145.323 27.3628 145.708 27.1935 146.124 27.11C147.066 26.9244 147.996 26.9731 148.906 27.2956C149.146 27.3814 149.379 27.4765 149.606 27.6598V27.6575Z" fill="white" fill-opacity="0.8"/>
<path d="M108.048 28.2559C107.896 28.249 107.776 28.242 107.656 28.242C107.102 28.242 106.55 28.242 105.996 28.242C105.887 28.242 105.774 28.2583 105.673 28.2072C105.61 27.9521 105.608 27.4278 105.673 27.1309C105.751 27.1239 105.834 27.1077 105.92 27.1077C106.561 27.1077 107.203 27.1077 107.845 27.1077C109.041 27.1077 110.237 27.1077 111.431 27.1077H111.805C111.828 27.1726 111.86 27.2213 111.86 27.2724C111.865 27.5391 111.862 27.8059 111.86 28.0727C111.86 28.1144 111.842 28.1562 111.83 28.2026C111.708 28.2606 111.585 28.2443 111.468 28.2443C110.925 28.2443 110.382 28.2443 109.84 28.2443C109.72 28.2443 109.597 28.2258 109.459 28.2861C109.45 28.3395 109.431 28.4021 109.427 28.4647C109.42 28.5645 109.424 28.6642 109.424 28.764C109.424 30.5432 109.424 32.3225 109.424 34.1017C109.424 34.2224 109.445 34.3453 109.397 34.4567C109.12 34.5147 108.365 34.5123 108.097 34.452C108.06 34.3407 108.074 34.2177 108.074 34.0971C108.074 32.4733 108.074 30.8494 108.074 29.2256C108.074 28.9913 108.074 28.7593 108.074 28.525C108.074 28.4485 108.062 28.3719 108.051 28.2583L108.048 28.2559Z" fill="white" fill-opacity="0.8"/>
<path d="M54.5187 31.0351C54.4725 30.8819 54.4841 30.7497 54.5025 30.5989C54.5602 30.5827 54.6203 30.5595 54.6826 30.5525C54.7588 30.5433 54.8373 30.5502 54.9158 30.5502C60.997 30.5502 67.0805 30.5502 73.1617 30.5502C73.291 30.5502 73.4249 30.5293 73.5634 30.585C73.6119 30.7265 73.5865 30.868 73.5819 31.0211C73.5034 31.0397 73.441 31.0582 73.3787 31.0652C73.3025 31.0722 73.224 31.0675 73.1455 31.0675C67.0736 31.0675 61.0039 31.0675 54.9319 31.0675C54.8003 31.0675 54.6664 31.0861 54.5164 31.0351H54.5187Z" fill="white" fill-opacity="0.8"/>
<path d="M172.979 30.5826C173.009 30.7311 173.009 30.8726 172.979 31.028C172.916 31.0396 172.854 31.0582 172.792 31.0628C172.725 31.0698 172.658 31.0628 172.593 31.0628C166.512 31.0628 160.431 31.0628 154.347 31.0628C154.218 31.0628 154.082 31.0907 153.952 31.0234C153.899 30.8842 153.911 30.7427 153.945 30.585C154.008 30.5734 154.07 30.5548 154.132 30.5502C154.209 30.5432 154.287 30.5502 154.366 30.5502C160.415 30.5502 166.463 30.5502 172.512 30.5502C172.665 30.5502 172.819 30.5293 172.981 30.5826H172.979Z" fill="white" fill-opacity="0.8"/>
</g>
<defs>
<clipPath id="clip0_3984_5901">
<rect width="173" height="38" fill="white" transform="translate(0 0.5)"/>
</clipPath>
</defs>
</svg>
