<svg width="150" height="48" viewBox="0 0 150 48" fill="none" xmlns="http://www.w3.org/2000/svg">
<path d="M19.5593 7.66226C19.5432 7.73237 19.5452 7.76241 19.5312 7.78645C18.5464 9.47904 17.5615 11.1736 16.5866 12.8482C16.4625 12.9083 16.3544 12.8882 16.2503 12.8882C15.0393 12.8882 13.8302 12.8882 12.6191 12.8882C11.5722 12.8882 10.5253 12.8882 9.47836 12.8882C9.37427 12.8882 9.26818 12.8742 9.1721 12.9083C9.13206 13.0044 9.18611 13.0665 9.22214 13.1326C9.44834 13.5232 9.67454 13.9138 9.90074 14.3044C11.2299 16.5879 12.5591 18.8694 13.8883 21.1529C15.3756 23.7108 16.8629 26.2687 18.3502 28.8246C18.5344 29.1411 18.7145 29.4576 18.8987 29.7721C18.9367 29.8362 18.9848 29.8942 19.0268 29.9543C19.1429 29.9323 19.1649 29.8382 19.205 29.768C19.4932 29.2793 19.7755 28.7885 20.0597 28.2998C20.9445 26.7795 21.8273 25.2612 22.712 23.7408C22.7501 23.6747 22.7941 23.6126 22.8221 23.5686C22.8502 23.5485 22.8582 23.5405 22.8662 23.5365C22.8742 23.5325 22.8842 23.5305 22.8942 23.5305C24.8339 23.5285 26.7736 23.5265 28.7153 23.5225C28.7634 23.5225 28.8094 23.5225 28.8455 23.5225C28.9075 23.5966 28.8615 23.6407 28.8354 23.6888C28.5712 24.1455 28.305 24.6021 28.0387 25.0588C27.204 26.495 26.3693 27.9312 25.5325 29.3694C24.5657 31.03 23.5988 32.6905 22.634 34.3511C21.499 36.302 20.364 38.255 19.231 40.206C19.1789 40.2961 19.1229 40.3823 19.0708 40.4664C19.0448 40.4564 19.0308 40.4564 19.0268 40.4504C12.7052 29.5858 6.38163 18.7172 0.0580512 7.85055C0.03403 7.81049 0.0180159 7.76442 0 7.73036C0.0180159 7.65625 0.0700618 7.66026 0.116102 7.65825C0.20418 7.65625 0.290256 7.65625 0.376332 7.65625C6.64787 7.65625 12.9214 7.65625 19.1929 7.65625C19.307 7.65625 19.4211 7.66026 19.5593 7.66226Z" fill="#270741"/>
<path d="M19.0625 24.6121C19.0144 24.552 18.9884 24.526 18.9684 24.4939C17.9695 22.7753 16.9666 21.0587 15.9697 19.332C16.0138 19.2459 16.0498 19.1678 16.0918 19.0937C16.7244 18.006 17.357 16.9184 17.9895 15.8307C18.1356 15.5803 18.1356 15.5803 18.4179 15.5803C19.5028 15.5803 20.5878 15.5803 21.6728 15.5803C23.4784 15.5803 25.2839 15.5803 27.0895 15.5803H27.4198C27.574 15.4381 27.646 15.2678 27.7361 15.1116C28.1445 14.4045 28.5468 13.6954 28.9492 12.9863C28.9552 12.9743 28.9432 12.9503 28.9372 12.9182C28.9091 12.9102 28.8751 12.8942 28.8391 12.8922C28.743 12.8882 28.6469 12.8882 28.5508 12.8882C25.7363 12.8882 22.9219 12.8882 20.1094 12.8882C19.9973 12.8882 19.8812 12.9022 19.7791 12.8702C19.7391 12.7941 19.7871 12.75 19.8131 12.7019C20.0954 12.2112 20.3796 11.7204 20.6659 11.2317C21.3024 10.136 21.941 9.04032 22.5796 7.94464C22.6316 7.8545 22.6897 7.76437 22.7357 7.68825C22.7617 7.67823 22.7697 7.67222 22.7797 7.67022C22.7897 7.66622 22.7978 7.66421 22.8078 7.66421C22.9038 7.66221 22.9999 7.6582 23.096 7.6582C28.0704 7.6582 33.0468 7.6582 38.0212 7.6582C38.0392 7.6582 38.0592 7.66421 38.0772 7.66822C38.0872 7.67022 38.0953 7.67623 38.1033 7.68024C38.1333 7.75635 38.0812 7.80843 38.0492 7.86452C37.799 8.29718 37.5488 8.72784 37.2966 9.1605C36.0695 11.2697 34.8424 13.3769 33.6173 15.4862C32.6424 17.1627 31.6676 18.8413 30.6907 20.5179C30.4986 20.8484 30.5466 20.8223 30.1502 20.8223C27.3458 20.8223 24.5413 20.8223 21.7368 20.8223C21.6207 20.8223 21.5066 20.8263 21.3905 20.8303C21.3184 20.8323 21.2624 20.8684 21.2244 20.9285C21.1883 20.9846 21.1543 21.0427 21.1203 21.1007C20.4917 22.1804 19.8632 23.258 19.2346 24.3377C19.1866 24.4198 19.1345 24.4999 19.0625 24.6141V24.6121Z" fill="#270741"/>
<path d="M129.847 11.3397C129.897 11.3297 129.951 11.3116 130.007 11.3116C130.89 11.3116 131.775 11.3116 132.658 11.3116C132.704 11.3116 132.75 11.3256 132.808 11.3337C132.818 11.3958 132.832 11.4498 132.836 11.5059C132.84 11.582 132.836 11.6602 132.836 11.7363C132.836 15.9086 132.836 20.079 132.836 24.2514V24.5979C132.772 24.6901 132.702 24.6841 132.636 24.6841C132.357 24.6861 132.079 24.6841 131.801 24.6841C131.379 24.6841 130.956 24.6781 130.534 24.6861C130.374 24.6901 130.27 24.632 130.169 24.5078C129.407 23.5684 128.636 22.6349 127.867 21.6995C126.52 20.059 125.175 18.4165 123.828 16.776C123.786 16.7259 123.738 16.6798 123.676 16.6137C123.654 16.6698 123.634 16.7039 123.632 16.7359C123.626 16.8501 123.626 16.9663 123.626 17.0824C123.626 19.4761 123.626 21.8698 123.626 24.2614C123.626 24.3856 123.642 24.5098 123.594 24.646C123.544 24.658 123.49 24.6781 123.435 24.6801C123.233 24.6841 123.033 24.6841 122.831 24.6841C122.206 24.6841 121.582 24.6841 120.957 24.6841C120.853 24.6841 120.749 24.6781 120.633 24.674C120.617 24.6059 120.599 24.5539 120.595 24.4998C120.589 24.4337 120.591 24.3656 120.591 24.2975C120.591 20.0971 120.591 15.8966 120.591 11.6962C120.591 11.582 120.577 11.4659 120.621 11.3397C120.683 11.3297 120.747 11.3116 120.809 11.3116C121.52 11.3096 122.23 11.3116 122.941 11.3076C123.081 11.3076 123.171 11.3557 123.257 11.4639C123.704 12.0167 124.156 12.5655 124.607 13.1164C126.116 14.9612 127.623 16.804 129.133 18.6488C129.297 18.8491 129.461 19.0494 129.627 19.2498C129.661 19.2918 129.705 19.3259 129.765 19.382C129.781 19.3098 129.797 19.2658 129.799 19.2197C129.803 19.0955 129.803 18.9693 129.803 18.8451C129.803 16.4715 129.803 14.0979 129.803 11.7223C129.803 11.6001 129.781 11.4719 129.843 11.3417L129.847 11.3397Z" fill="#270741"/>
<path d="M72.9362 11.0694C74.1413 11.0433 75.3543 11.2737 76.4113 11.7564C77.9066 12.4395 79.0416 13.5011 79.7722 14.9814C80.0805 15.6063 80.2687 16.2673 80.3708 16.9564C80.4568 17.5493 80.4629 18.1462 80.4088 18.7391C80.3227 19.6966 80.0425 20.602 79.5541 21.4352C78.6132 23.0377 77.226 24.0632 75.4624 24.5981C74.7418 24.8164 73.9992 24.9065 73.2465 24.9145C72.2876 24.9246 71.3508 24.8044 70.442 24.4859C69.327 24.0933 68.3482 23.4864 67.5495 22.605C66.6567 21.6175 66.1062 20.4657 65.904 19.1457C65.8019 18.4747 65.7759 17.8037 65.864 17.1347C66.1722 14.771 67.3913 13.0344 69.4952 11.9207C70.5261 11.3759 71.7271 11.0914 72.9362 11.0674V11.0694ZM68.9327 18.014C68.9387 18.2924 68.9507 18.5688 69.0007 18.8453C69.267 20.3035 70.0477 21.3651 71.4109 21.962C72.3016 22.3506 73.2365 22.4127 74.1753 22.1824C75.5585 21.8439 76.5274 21.0046 77.0378 19.6685C77.4082 18.697 77.4362 17.6975 77.1559 16.698C76.8156 15.4801 76.071 14.5908 74.916 14.072C73.9711 13.6473 72.9843 13.5852 71.9874 13.8476C70.7423 14.1741 69.8475 14.9353 69.311 16.1091C69.0348 16.712 68.9227 17.353 68.9327 18.014Z" fill="#270741"/>
<path d="M47.321 11.3316C47.5652 11.3035 50.3056 11.3035 50.5639 11.3356C50.708 11.604 50.8161 11.9005 50.9422 12.1889C51.0663 12.4713 51.1824 12.7538 51.3045 13.0362C51.4286 13.3286 51.5527 13.6191 51.6768 13.9115C51.7969 14.194 51.9191 14.4764 52.0412 14.7588C52.1653 15.0513 52.2874 15.3417 52.4115 15.6342C52.5316 15.9166 52.6497 16.201 52.7698 16.4835C52.8939 16.7759 53.018 17.0663 53.1441 17.3568C53.2642 17.6392 53.3843 17.9217 53.5045 18.2061C53.6286 18.4985 53.7527 18.789 53.8788 19.0794C53.9989 19.3619 54.121 19.6443 54.2411 19.9267C54.3632 20.2172 54.4773 20.5136 54.6134 20.788C54.6915 20.8081 54.7135 20.764 54.7335 20.7199C54.8897 20.3594 55.0478 19.9968 55.2019 19.6363C55.9126 17.9878 56.6232 16.3372 57.3358 14.6887C57.7842 13.6491 58.2346 12.6075 58.685 11.5679C58.7191 11.4898 58.7571 11.4137 58.7891 11.3456C59.0253 11.2995 60.8189 11.2795 61.6536 11.3116C61.6997 11.3116 61.7437 11.3256 61.7798 11.3316C61.8218 11.4317 61.7657 11.4978 61.7377 11.5639C61.4274 12.287 61.1172 13.0122 60.8029 13.7333C59.8881 15.8485 58.9713 17.9637 58.0565 20.079C57.4239 21.5412 56.7894 23.0054 56.1548 24.4677C56.1288 24.5298 56.0987 24.5898 56.0667 24.66C56.0027 24.668 55.9386 24.684 55.8725 24.684C54.9878 24.684 54.105 24.684 53.2202 24.684C53.1541 24.684 53.0881 24.67 53.03 24.664C52.9019 24.4516 47.5912 12.1809 47.313 11.4618C47.303 11.4357 47.299 11.4077 47.293 11.3797C47.293 11.3716 47.297 11.3616 47.301 11.3536C47.305 11.3456 47.311 11.3376 47.317 11.3296L47.321 11.3316Z" fill="#270741"/>
<path d="M115.744 24.6662C115.676 24.6742 115.62 24.6842 115.564 24.6862C114.823 24.7083 112.757 24.6942 112.491 24.6642C112.461 24.6101 112.421 24.546 112.391 24.4779C111.9 23.3302 111.412 22.1824 110.924 21.0326C110.281 19.5223 109.636 18.012 108.992 16.5017C108.83 16.1211 108.67 15.7426 108.505 15.362C108.479 15.3039 108.445 15.2498 108.417 15.1977C108.391 15.2037 108.381 15.2037 108.371 15.2077C108.363 15.2117 108.355 15.2198 108.349 15.2258C108.339 15.2418 108.329 15.2578 108.321 15.2758C108.309 15.3019 108.297 15.3279 108.285 15.354C106.952 18.4387 105.619 21.5234 104.286 24.6081C104.282 24.6161 104.278 24.6261 104.272 24.6321C104.266 24.6402 104.26 24.6462 104.246 24.6622C104.218 24.6682 104.18 24.6822 104.144 24.6822C103.221 24.6822 102.3 24.6822 101.377 24.6822C101.339 24.6822 101.303 24.6702 101.249 24.6602C101.263 24.6001 101.267 24.544 101.289 24.4959C101.629 23.7027 101.974 22.9095 102.316 22.1143C103.077 20.3516 103.839 18.5889 104.6 16.8262C105.363 15.0635 106.125 13.3008 106.888 11.5401C106.918 11.47 106.956 11.4039 106.994 11.3318C107.246 11.2878 107.495 11.3158 107.743 11.3118C108.001 11.3078 108.261 11.3118 108.521 11.3118C108.782 11.3118 109.022 11.3078 109.27 11.3118C109.518 11.3158 109.769 11.2918 110.019 11.3278C110.045 11.3719 110.073 11.4119 110.091 11.456C111.974 15.8287 113.858 20.2034 115.74 24.5781C115.746 24.5941 115.74 24.6161 115.74 24.6662H115.744Z" fill="#270741"/>
<path d="M142.613 13.8359C142.312 13.8038 142.036 13.8239 141.758 13.8199C141.48 13.8159 141.201 13.8199 140.923 13.8199H138.405C138.389 13.7578 138.365 13.7037 138.365 13.6516C138.363 12.9305 138.363 12.2094 138.365 11.4903C138.365 11.4442 138.377 11.3982 138.383 11.3421C138.435 11.3321 138.479 11.318 138.527 11.314C138.613 11.31 138.699 11.312 138.785 11.312C142.386 11.312 145.988 11.312 149.587 11.312C149.673 11.312 149.759 11.31 149.845 11.316C149.891 11.32 149.935 11.3381 149.995 11.3521C149.999 12.1633 149.995 12.9686 149.995 13.7538C149.913 13.8399 149.833 13.8179 149.759 13.8199C149.298 13.8219 148.838 13.8199 148.376 13.8199C147.607 13.8199 146.84 13.8199 146.072 13.8199C145.967 13.8199 145.861 13.8058 145.781 13.8339C145.709 13.894 145.721 13.9541 145.719 14.0101C145.715 14.1163 145.719 14.2225 145.719 14.3266C145.719 17.6517 145.719 20.9768 145.719 24.3019C145.719 24.4161 145.733 24.5302 145.699 24.6344C145.605 24.7085 145.505 24.6865 145.413 24.6865C144.867 24.6885 144.318 24.6865 143.772 24.6865C143.503 24.6865 143.233 24.6865 142.965 24.6865C142.871 24.6865 142.773 24.7005 142.667 24.6484C142.659 24.6023 142.645 24.5483 142.643 24.4922C142.639 24.406 142.643 24.3199 142.643 24.2338C142.643 20.8987 142.643 17.5656 142.643 14.2305C142.643 14.1083 142.657 13.9821 142.617 13.8359H142.613Z" fill="#270741"/>
<path d="M86.6609 11.3163C87.6257 11.3063 88.5746 11.3123 89.5254 11.3123C89.5714 11.3123 89.6175 11.3244 89.6795 11.3344C89.6875 11.3985 89.6976 11.4525 89.6996 11.5066C89.7036 11.5928 89.6996 11.6789 89.6996 11.767C89.6996 15.1021 89.6996 18.4372 89.6996 21.7743C89.6996 21.8985 89.6855 22.0227 89.7236 22.1589C89.7776 22.1709 89.8317 22.187 89.8877 22.191C89.9738 22.197 90.0599 22.193 90.1479 22.193C92.1077 22.193 94.0674 22.193 96.0271 22.193C96.1412 22.193 96.2553 22.1809 96.3815 22.215C96.3895 22.2651 96.4055 22.3091 96.4055 22.3552C96.4055 23.0763 96.4055 23.7974 96.4055 24.5185C96.4055 24.5566 96.3955 24.5946 96.3895 24.6467C96.3374 24.6607 96.2854 24.6828 96.2313 24.6868C96.1452 24.6948 96.0592 24.6908 95.9731 24.6908C92.9945 24.6908 90.0178 24.6908 87.0392 24.6908C86.9151 24.6908 86.789 24.7108 86.6569 24.6587C86.6469 24.6087 86.6308 24.5546 86.6268 24.5005C86.6208 24.4244 86.6268 24.3463 86.6268 24.2701C86.6268 20.0877 86.6268 15.9074 86.6268 11.725C86.6268 11.6028 86.6048 11.4766 86.6669 11.3203L86.6609 11.3163Z" fill="#270741"/>
<path d="M104.252 30.659C104.509 30.619 105.067 30.615 105.363 30.649C105.375 30.6951 105.394 30.7472 105.4 30.8012C105.406 30.8673 105.404 30.9354 105.404 31.0036C105.404 32.8784 105.404 34.7513 105.404 36.6261C105.404 36.7403 105.42 36.8565 105.377 36.9667C105.191 37.0207 104.935 37.0308 104.447 36.9967C104.411 36.9587 104.365 36.9106 104.323 36.8605C103.412 35.7428 102.503 34.6271 101.592 33.5094C101.416 33.2931 101.242 33.0767 101.064 32.8624C101.03 32.8203 100.986 32.7863 100.954 32.7562C100.884 32.7763 100.894 32.8223 100.894 32.8564C100.892 33.0286 100.892 33.2029 100.892 33.3752C100.892 34.4708 100.892 35.5665 100.892 36.6622C100.892 36.7664 100.906 36.8725 100.872 36.9707C100.673 37.0228 100.089 37.0308 99.7685 36.9847C99.7605 36.9346 99.7485 36.8805 99.7465 36.8265C99.7425 36.7403 99.7465 36.6542 99.7465 36.5661C99.7465 34.7112 99.7465 32.8564 99.7465 31.0015C99.7465 30.8894 99.7325 30.7732 99.7725 30.647C100.081 30.611 100.385 30.635 100.705 30.631C101.286 31.3461 101.866 32.0612 102.449 32.7743C103.025 33.4793 103.596 34.1904 104.17 34.8835C104.242 34.8735 104.246 34.8334 104.246 34.7953C104.248 34.7092 104.248 34.6231 104.248 34.5349C104.248 33.3531 104.248 32.1713 104.248 30.9895C104.248 30.8854 104.25 30.7792 104.252 30.661V30.659Z" fill="#270741"/>
<path d="M116.947 36.9894C116.941 36.9193 116.933 36.8632 116.933 36.8072C116.901 35.3309 116.917 30.9522 116.959 30.6538C117.007 30.6457 117.061 30.6297 117.117 30.6297C117.982 30.6297 118.847 30.6237 119.709 30.6337C120.114 30.6377 120.512 30.7078 120.89 30.8581C121.143 30.9582 121.375 31.0884 121.581 31.2687C121.879 31.5291 122.079 31.8516 122.184 32.2322C122.306 32.6768 122.308 33.1215 122.18 33.5682C122.029 34.093 121.713 34.4856 121.239 34.756C121.189 34.7841 121.137 34.8081 121.085 34.8361C121.043 34.8582 121.001 34.8802 120.967 34.8982C120.926 35.0024 120.997 35.0545 121.039 35.1146C121.329 35.5332 121.621 35.9498 121.913 36.3665C122.017 36.5167 122.124 36.6649 122.226 36.8152C122.258 36.8612 122.284 36.9113 122.31 36.9534C122.3 36.9734 122.298 36.9834 122.292 36.9914C122.286 36.9974 122.278 37.0035 122.27 37.0035C122.222 37.0075 122.174 37.0135 122.126 37.0135C121.791 37.0135 121.455 37.0135 121.115 37.0135C121.025 36.8873 120.94 36.7711 120.858 36.6529C120.544 36.2042 120.23 35.7576 119.922 35.3049C119.85 35.1987 119.769 35.1506 119.637 35.1526C119.205 35.1606 118.773 35.1546 118.34 35.1566C118.274 35.1566 118.21 35.1667 118.158 35.1707C118.084 35.2488 118.102 35.3289 118.102 35.403C118.1 35.8357 118.102 36.2683 118.1 36.701C118.1 36.7951 118.12 36.8933 118.066 36.9814C117.866 37.0235 117.333 37.0315 116.945 36.9954L116.947 36.9894ZM118.156 34.1731C118.188 34.1771 118.234 34.1892 118.28 34.1892C118.741 34.1892 119.201 34.1932 119.659 34.1872C119.87 34.1831 120.08 34.1451 120.28 34.075C120.59 33.9668 120.84 33.7805 120.975 33.4701C121.135 33.1015 121.133 32.7229 120.989 32.3503C120.89 32.1 120.708 31.9197 120.464 31.8015C120.272 31.7094 120.072 31.6533 119.86 31.6333C119.323 31.5852 118.787 31.6132 118.25 31.6132C118.214 31.6132 118.176 31.6292 118.144 31.6373C118.096 31.8215 118.084 32.5146 118.104 33.9087C118.104 33.9929 118.084 34.081 118.158 34.1711L118.156 34.1731Z" fill="#270741"/>
<path d="M84.0288 30.6389C84.1148 30.6349 84.1889 30.6269 84.265 30.6269C85.0617 30.6269 85.8604 30.6249 86.6571 30.6269C87.0915 30.6269 87.5178 30.693 87.9262 30.8492C88.2245 30.9634 88.4967 31.1236 88.7249 31.352C89.0792 31.7065 89.2714 32.1372 89.3054 32.6359C89.3254 32.9344 89.3254 33.2308 89.2454 33.5233C89.0932 34.0821 88.7649 34.4988 88.2545 34.7732C88.1704 34.8193 88.0863 34.8633 88.0103 34.9054C87.9963 35.0056 88.0583 35.0596 88.1003 35.1217C88.4727 35.6586 88.849 36.1934 89.2233 36.7282C89.2774 36.8043 89.3495 36.8724 89.3595 36.9746C89.1613 37.0186 88.6328 37.0287 88.1644 36.9946C87.728 36.4057 87.3217 35.7787 86.8773 35.1678C86.6871 35.1277 86.4949 35.1558 86.3048 35.1498C86.1226 35.1458 85.9404 35.1478 85.7563 35.1498C85.5661 35.1518 85.3759 35.1378 85.1718 35.1678C85.1638 35.2559 85.1497 35.3301 85.1497 35.4042C85.1477 35.8268 85.1497 36.2495 85.1497 36.6741C85.1497 36.7703 85.1497 36.8644 85.1497 36.9666C85.1017 36.9826 85.0677 37.0046 85.0316 37.0046C84.7234 37.0066 84.4171 37.0066 84.1088 37.0046C84.0828 37.0046 84.0548 36.9886 84.0187 36.9786C84.0107 36.9425 83.9967 36.9065 83.9947 36.8704C83.9907 36.7843 83.9907 36.6981 83.9907 36.61C83.9907 34.7452 83.9907 32.8803 83.9907 31.0155C83.9907 30.9013 83.9747 30.7851 84.0248 30.6389H84.0288ZM85.1738 31.6464C85.1397 31.7666 85.1517 31.8828 85.1517 31.997C85.1517 32.6399 85.1517 33.2849 85.1517 33.9279C85.1517 34.01 85.1297 34.1022 85.2118 34.1763C85.2438 34.1803 85.2819 34.1903 85.3199 34.1903C85.7803 34.1903 86.2407 34.1983 86.7011 34.1863C86.8813 34.1823 87.0634 34.1482 87.2396 34.1002C87.754 33.962 88.1124 33.6194 88.1484 32.9805C88.1804 32.3996 87.9382 31.9829 87.4518 31.7686C87.2836 31.6945 87.1075 31.6504 86.9253 31.6344C86.3888 31.5863 85.8504 31.6144 85.3139 31.6124C85.2678 31.6124 85.2238 31.6344 85.1758 31.6464H85.1738Z" fill="#270741"/>
<path d="M110.175 36.0312C110.493 36.0492 110.792 36.0372 111.088 36.0392C111.376 36.0412 111.664 36.0392 111.953 36.0392C112.241 36.0392 112.547 36.0392 112.845 36.0392C113.132 36.0392 113.418 36.0312 113.714 36.0472C113.774 36.2055 113.746 36.3597 113.748 36.5099C113.75 36.6622 113.764 36.8164 113.732 36.9606C113.648 37.0287 113.558 37.0067 113.476 37.0067C112.919 37.0087 112.363 37.0067 111.804 37.0067C110.98 37.0067 110.153 37.0067 109.328 37.0067C109.224 37.0067 109.118 37.0247 109 36.9787C108.992 36.9306 108.982 36.8765 108.978 36.8204C108.974 36.7723 108.978 36.7243 108.978 36.6762C108.978 34.7733 108.978 32.8704 108.978 30.9695C108.978 30.8653 108.962 30.7592 108.992 30.677C109.016 30.655 109.022 30.647 109.03 30.641C109.038 30.637 109.048 30.635 109.058 30.635C110.527 30.633 111.997 30.629 113.464 30.627C113.502 30.627 113.538 30.635 113.57 30.639C113.588 30.659 113.608 30.673 113.61 30.689C113.636 30.9755 113.628 31.2619 113.614 31.5363C113.542 31.6145 113.462 31.5944 113.388 31.5964C112.985 31.5984 112.581 31.5964 112.179 31.5964C111.622 31.5964 111.066 31.5964 110.507 31.5964C110.403 31.5964 110.297 31.5824 110.181 31.6245C110.171 31.6665 110.151 31.7106 110.149 31.7547C110.147 32.2154 110.149 32.6761 110.149 33.1388C110.149 33.1748 110.163 33.2109 110.171 33.251C110.279 33.297 110.385 33.281 110.487 33.281C111.284 33.281 112.081 33.281 112.877 33.281C112.981 33.281 113.088 33.269 113.204 33.305C113.248 33.6035 113.222 33.8959 113.224 34.1784C113.126 34.2625 113.025 34.2345 112.933 34.2345C112.127 34.2365 111.32 34.2345 110.513 34.2345C110.409 34.2345 110.305 34.2405 110.187 34.2425C110.171 34.2966 110.147 34.3386 110.147 34.3827C110.145 34.8815 110.145 35.3822 110.147 35.881C110.147 35.917 110.161 35.9551 110.175 36.0212V36.0312Z" fill="#270741"/>
<path d="M68.4767 35.168C68.4127 35.2902 68.4307 35.3883 68.4307 35.4825C68.4307 35.8951 68.4307 36.3097 68.4307 36.7224C68.4307 36.8065 68.4227 36.8906 68.4167 36.9708C68.1985 37.0208 67.5819 37.0268 67.2777 36.9848C67.2696 36.9347 67.2556 36.8806 67.2496 36.8245C67.2456 36.7664 67.2496 36.7084 67.2496 36.6523C67.2496 34.7594 67.2496 32.8665 67.2496 30.9736C67.2496 30.8694 67.2336 30.7633 67.2817 30.6491C67.3377 30.6431 67.3938 30.6311 67.4478 30.6311C68.3026 30.6311 69.1573 30.6251 70.0121 30.6331C70.4264 30.6371 70.8348 30.7052 71.2211 30.8654C71.3893 30.9355 71.5534 31.0197 71.7036 31.1198C72.2781 31.5104 72.5523 32.0693 72.5823 32.7523C72.5923 32.9927 72.5863 33.231 72.5283 33.4674C72.3902 34.0283 72.0799 34.4589 71.5835 34.7554C71.2752 34.9397 70.9389 35.0478 70.5846 35.1079C70.3384 35.15 70.0901 35.166 69.8399 35.166C69.4856 35.166 69.1293 35.166 68.775 35.166C68.6789 35.166 68.5848 35.168 68.4807 35.17L68.4767 35.168ZM68.4567 34.1525C68.5007 34.1665 68.5288 34.1805 68.5548 34.1825C69.0332 34.1825 69.5136 34.1945 69.9921 34.1785C70.2803 34.1705 70.5626 34.1144 70.8208 33.9702C71.1451 33.7919 71.3412 33.5195 71.3853 33.1529C71.4053 32.9927 71.4053 32.8264 71.3893 32.6662C71.3472 32.2736 71.1411 31.9911 70.7908 31.8109C70.6006 31.7127 70.3984 31.6566 70.1862 31.6386C69.6497 31.5885 69.1133 31.6166 68.5768 31.6166C68.5328 31.6166 68.4907 31.6426 68.4527 31.6526C68.4187 31.921 68.4207 33.9081 68.4547 34.1525H68.4567Z" fill="#270741"/>
<path d="M76.247 35.5431C76.0108 36.0198 75.8386 36.5186 75.6124 36.9833C75.3742 37.0153 74.7837 37.0193 74.4754 36.9933C74.4233 36.9252 74.4754 36.8651 74.5014 36.809C74.6996 36.3603 74.9018 35.9156 75.104 35.469C75.6324 34.2952 76.1589 33.1214 76.6874 31.9476C76.8575 31.571 77.0257 31.1944 77.1958 30.8179C77.2238 30.7578 77.2579 30.6997 77.2979 30.6296C77.6702 30.6296 78.0425 30.6216 78.4229 30.6336C78.4709 30.7257 78.519 30.8078 78.559 30.894C79.658 33.2916 81.2173 36.787 81.2674 36.9653C81.2634 36.9733 81.2634 36.9853 81.2574 36.9913C81.2514 36.9973 81.2394 36.9993 81.2294 36.9993C80.9131 37.0033 80.5968 37.0073 80.2785 37.0073C80.2225 37.0073 80.1644 36.9973 80.0944 36.9913C79.9863 36.7469 79.8802 36.5005 79.7681 36.2562C79.662 36.0218 79.5819 35.7734 79.4418 35.5411C79.3857 35.5351 79.3297 35.521 79.2736 35.521C78.3328 35.521 77.39 35.521 76.4491 35.521C76.3831 35.521 76.317 35.5331 76.245 35.5411L76.247 35.5431ZM77.8564 31.8675C77.8344 31.8815 77.8103 31.8875 77.8043 31.9015C77.432 32.7628 77.0617 33.6262 76.6934 34.4895C76.6833 34.5135 76.6934 34.5456 76.6934 34.5876C76.7354 34.5956 76.7814 34.6137 76.8255 34.6137C77.5161 34.6137 78.2067 34.6137 78.8953 34.6137C78.9393 34.6137 78.9814 34.5956 79.0254 34.5856C78.9674 34.3533 78.1867 32.4924 77.9104 31.9235C77.9004 31.9015 77.8744 31.8855 77.8584 31.8675H77.8564Z" fill="#270741"/>
<path d="M129.715 31.1059C129.603 31.4124 129.494 31.6968 129.352 31.9813C129.252 31.9352 129.166 31.8951 129.082 31.8551C128.488 31.5686 127.863 31.4585 127.206 31.5266C126.984 31.5506 126.772 31.6047 126.58 31.7249C126.402 31.8351 126.278 31.9893 126.224 32.1956C126.153 32.464 126.224 32.6904 126.434 32.8686C126.59 33.0008 126.774 33.085 126.968 33.1411C127.206 33.2112 127.449 33.2713 127.689 33.3374C128.039 33.4355 128.393 33.5256 128.742 33.6338C129.058 33.732 129.336 33.8982 129.576 34.1286C129.833 34.3749 129.963 34.6794 129.989 35.0239C130.043 35.7871 129.733 36.364 129.06 36.7406C128.764 36.9068 128.443 37.009 128.109 37.055C127.276 37.1692 126.464 37.0891 125.675 36.7826C125.459 36.6985 125.253 36.5983 125.064 36.4621C125.018 36.4301 124.978 36.388 124.942 36.356C124.996 36.1216 125.195 35.6709 125.333 35.4706C125.379 35.4987 125.427 35.5267 125.475 35.5567C126.035 35.9213 126.656 36.1016 127.318 36.1416C127.607 36.1577 127.893 36.1236 128.173 36.0455C128.341 35.9974 128.492 35.9173 128.624 35.7991C128.898 35.5487 128.956 35.078 128.596 34.7916C128.441 34.6694 128.271 34.5873 128.085 34.5332C127.799 34.4511 127.511 34.3789 127.224 34.2988C126.884 34.2027 126.542 34.1065 126.204 33.9984C125.915 33.9062 125.667 33.744 125.453 33.5296C125.265 33.3414 125.137 33.121 125.087 32.8566C125.038 32.6002 125.03 32.3378 125.081 32.0834C125.161 31.6728 125.375 31.3383 125.707 31.0799C126.001 30.8516 126.336 30.7053 126.696 30.6332C127.513 30.473 128.319 30.515 129.108 30.7935C129.316 30.8676 129.518 30.9497 129.715 31.1079V31.1059Z" fill="#270741"/>
<path d="M93.6831 31.6234C93.551 31.6173 93.4469 31.6113 93.3428 31.6113C92.8624 31.6113 92.384 31.6113 91.9036 31.6113C91.8095 31.6113 91.7114 31.6254 91.6233 31.5813C91.5693 31.361 91.5673 30.9083 91.6233 30.6519C91.6914 30.6459 91.7634 30.6318 91.8375 30.6318C92.394 30.6318 92.9505 30.6318 93.507 30.6318C94.5439 30.6318 95.5808 30.6318 96.6157 30.6318H96.94C96.96 30.6879 96.9881 30.73 96.9881 30.7741C96.9921 31.0044 96.9901 31.2348 96.9881 31.4651C96.9881 31.5012 96.972 31.5372 96.962 31.5773C96.8559 31.6274 96.7498 31.6133 96.6478 31.6133C96.1773 31.6133 95.7069 31.6133 95.2365 31.6133C95.1324 31.6133 95.0263 31.5973 94.9062 31.6494C94.8982 31.6955 94.8822 31.7495 94.8782 31.8036C94.8722 31.8898 94.8762 31.9759 94.8762 32.062C94.8762 33.5984 94.8762 35.1347 94.8762 36.6711C94.8762 36.7752 94.8942 36.8814 94.8522 36.9775C94.612 37.0276 93.9574 37.0256 93.7252 36.9735C93.6931 36.8774 93.7052 36.7712 93.7052 36.6671C93.7052 35.2649 93.7052 33.8628 93.7052 32.4606C93.7052 32.2583 93.7052 32.058 93.7052 31.8557C93.7052 31.7896 93.6952 31.7235 93.6851 31.6254L93.6831 31.6234Z" fill="#270741"/>
<path d="M47.2702 34.0225C47.2302 33.8903 47.2402 33.7762 47.2562 33.646C47.3063 33.6319 47.3583 33.6119 47.4124 33.6059C47.4784 33.5979 47.5465 33.6039 47.6145 33.6039C52.8872 33.6039 58.1619 33.6039 63.4345 33.6039C63.5466 33.6039 63.6627 33.5859 63.7828 33.6339C63.8249 33.7561 63.8028 33.8783 63.7988 34.0105C63.7308 34.0265 63.6767 34.0426 63.6227 34.0486C63.5566 34.0546 63.4886 34.0506 63.4205 34.0506C58.1558 34.0506 52.8932 34.0506 47.6286 34.0506C47.5145 34.0506 47.3984 34.0666 47.2682 34.0225H47.2702Z" fill="#270741"/>
<path d="M149.98 33.6321C150.006 33.7603 150.006 33.8825 149.98 34.0167C149.926 34.0267 149.872 34.0427 149.818 34.0467C149.76 34.0527 149.702 34.0467 149.646 34.0467C144.373 34.0467 139.101 34.0467 133.826 34.0467C133.714 34.0467 133.596 34.0708 133.484 34.0127C133.438 33.8925 133.448 33.7703 133.478 33.6341C133.532 33.6241 133.586 33.6081 133.64 33.6041C133.706 33.5981 133.774 33.6041 133.842 33.6041C139.087 33.6041 144.331 33.6041 149.576 33.6041C149.708 33.6041 149.842 33.586 149.982 33.6321H149.98Z" fill="#270741"/>
</svg>
