<svg width="22" height="22" viewBox="0 0 22 22" fill="none" xmlns="http://www.w3.org/2000/svg">
<path d="M17 8H19C19.5304 8 20.0391 8.21071 20.4142 8.58579C20.7893 8.96086 21 9.46957 21 10V21L17 17H11C10.4696 17 9.96086 16.7893 9.58579 16.4142C9.21071 16.0391 9 15.5304 9 15V14M13 8C13 8.53043 12.7893 9.03914 12.4142 9.41421C12.0391 9.78929 11.5304 10 11 10H5L1 14V3C1 1.9 1.9 1 3 1H11C11.5304 1 12.0391 1.21071 12.4142 1.58579C12.7893 1.96086 13 2.46957 13 3V8Z" stroke="#111928" stroke-width="1.75" stroke-linecap="round" stroke-linejoin="round"/>
</svg>
