<svg width="50" height="36" viewBox="0 0 50 36" fill="none" xmlns="http://www.w3.org/2000/svg">
<path fill-rule="evenodd" clip-rule="evenodd" d="M0 0.59196H7.60101V21.362C7.60101 24.6563 9.06565 26.6124 10.2525 27.436C9.01518 28.5427 5.25252 29.5207 2.42424 27.1529C0.757577 25.763 0 23.4467 0 21.2848V0.59196ZM47.4495 17.8617V15.674H49.7727V8.03004H47.2222C46.2374 3.42306 42.2222 0 37.4242 0C31.8939 0 27.399 4.58124 27.399 10.2177V28.0537C28.9646 28.2853 30.8586 28.0279 32.4495 26.6639C34.1161 25.274 34.8737 22.9577 34.8737 20.7958V20.1266H38.6616V12.4826H34.8737V10.1662C34.8737 8.72496 36.0101 7.56678 37.4242 7.56678C38.8384 7.56678 39.9748 8.72496 39.9748 10.1662V17.836C39.9748 23.4724 44.4697 28.0537 50 28.0537V20.4354C48.5858 20.4354 47.4495 19.2773 47.4495 17.8617ZM18.7121 8.0043V19.2515C18.7121 19.8949 18.1818 20.4097 17.5505 20.4097C16.9192 20.4097 16.3889 19.8949 16.3889 19.2515V8.0043H8.88887V21.2075C8.88887 23.5754 9.67173 26.5867 13.2829 27.5647C16.8939 28.5427 18.9646 26.5094 18.9646 26.5094C18.7626 27.8478 17.5505 28.8258 15.5555 29.0317C14.0404 29.1861 12.1212 28.6714 11.1616 28.2596V35.2601C13.6111 36.0065 16.1868 36.2381 18.7374 35.7234C23.3333 34.8226 26.2374 30.9105 26.2374 25.6858V7.95282H18.7121V8.0043Z" fill="#FF00BF"/>
</svg>
