<svg width="88" height="87" viewBox="0 0 88 87" fill="none" xmlns="http://www.w3.org/2000/svg">
<g opacity="0.7">
<path fill-rule="evenodd" clip-rule="evenodd" d="M45.2494 47.3508L48.2162 48.3759L41.6622 67.2007L38.6954 66.1757L45.2494 47.3508ZM36.1166 52.2695L31.2918 57.1177L36.0208 61.9566L33.7686 64.1413L27.9654 58.2007C27.3686 57.5888 27.3733 56.6122 27.9764 56.0066L33.8864 50.066L36.1166 52.2695ZM59.4535 56.0066C60.0566 56.6122 60.0613 57.5888 59.4645 58.2007L53.6582 64.1413L51.4075 61.9566L56.1365 57.1177L51.3133 52.2695L53.5435 50.066L59.4535 56.0066ZM70.7239 62.3744L65.3086 65.0708C64.7777 65.3369 64.4416 65.8784 64.4416 66.4715V75.7955L51.6918 83.614L45.5949 80.1445V72.0537H42.4538V80.1445L36.3569 83.614L23.6071 75.7955V66.4699C23.6071 65.8768 23.271 65.3353 22.7386 65.0708L17.3248 62.3729L17.3233 56.2789L17.3248 49.4401L22.9883 45.1395C23.3778 44.8438 23.6071 44.3837 23.6071 43.8954V35.2005L35.2826 28.4149L42.4538 32.4039V42.3195H45.5949V32.4039L52.7645 28.4149L64.4416 35.2005V43.8954C64.4416 44.3837 64.6693 44.8438 65.0588 45.1395L70.7239 49.4385L70.7254 56.2789L70.7239 62.3744ZM73.2462 47.4197L67.5827 43.1192V34.3022C67.5827 33.7467 67.2859 33.2318 66.8037 32.9501L53.5733 25.2615C53.0928 24.9813 52.4991 24.9767 52.0169 25.2458L44.0243 29.6934L36.0318 25.2458C35.5465 24.9782 34.9544 24.9813 34.4753 25.2615L21.245 32.9501C20.7612 33.2318 20.466 33.7467 20.466 34.3022V43.1208L14.801 47.4197C14.4115 47.7155 14.1837 48.1771 14.1837 48.6654L14.1822 56.2789L14.1837 63.34C14.1837 63.9331 14.5198 64.4746 15.0507 64.7406L20.466 67.4371V76.6703C20.466 77.2133 20.7471 77.7173 21.212 78.0021L35.5041 86.7674C35.9925 87.0647 36.605 87.0757 37.106 86.7924L44.0243 82.855L50.9411 86.7924C51.183 86.9302 51.4515 86.999 51.7201 86.999C52.0059 86.999 52.2902 86.9208 52.5446 86.7674L66.8351 78.0021C67.3 77.7173 67.5827 77.2133 67.5827 76.6703V67.4386L72.9964 64.7406C73.5289 64.4762 73.865 63.9347 73.865 63.3416L73.8665 56.2789L73.865 48.6638C73.865 48.1756 73.6357 47.7155 73.2462 47.4197ZM28.3188 8.67293C28.3188 9.96872 27.2633 11.0204 25.9629 11.0204C24.6609 11.0204 23.6071 9.96872 23.6071 8.67293C23.6071 7.37559 24.6609 6.3255 25.9629 6.3255C27.2633 6.3255 28.3188 7.37559 28.3188 8.67293ZM20.466 8.67293C20.466 9.96872 19.4105 11.0204 18.1101 11.0204C16.8081 11.0204 15.7543 9.96872 15.7543 8.67293C15.7543 7.37559 16.8081 6.3255 18.1101 6.3255C19.4105 6.3255 20.466 7.37559 20.466 8.67293ZM12.6132 8.67293C12.6132 9.96872 11.5577 11.0204 10.2573 11.0204C8.95533 11.0204 7.90149 9.96872 7.90149 8.67293C7.90149 7.37559 8.95533 6.3255 10.2573 6.3255C11.5577 6.3255 12.6132 7.37559 12.6132 8.67293ZM3.18981 14.1503L3.19766 3.34113C3.19766 3.27227 3.27933 3.19559 3.39555 3.19559H84.661C84.7772 3.19559 84.8589 3.27227 84.8589 3.34113V14.1503H3.18981ZM84.661 0.0656738H3.3877C1.55014 0.0656738 0.0518307 1.5336 0.0486895 3.338L1.23943e-06 60.9487C-0.00156808 62.7453 1.48732 64.2164 3.32959 64.2289L9.47205 64.2258V61.099L3.38456 61.1005C3.26991 61.1005 3.18981 61.0239 3.18981 60.955L3.22593 17.2802H84.8589V60.9378C84.8589 61.0239 84.7678 61.0974 84.661 61.0974L78.5766 61.099V64.2289L84.661 64.2273C86.5017 64.2273 88 62.7516 88 60.9378V3.34113C88 1.53517 86.5017 0.0656738 84.661 0.0656738Z" fill="url(#paint0_linear_2_12510)"/>
</g>
<defs>
<linearGradient id="paint0_linear_2_12510" x1="87.3411" y1="-1434.32" x2="31.8325" y2="-1434.3" gradientUnits="userSpaceOnUse">
<stop stop-color="#6EB1FF"/>
<stop offset="1" stop-color="#DA8AF7"/>
</linearGradient>
</defs>
</svg>
