<svg fill="none" height="400" viewBox="0 0 400 400" width="400" xmlns="http://www.w3.org/2000/svg"><g clip-rule="evenodd" fill-rule="evenodd"><path d="m392.971 7.0293-192.971 192.9707 192.971 192.971c4.343-4.344 7.029-10.344 7.029-16.971v-352.0001c0-6.6274-2.686-12.6274-7.029-16.9706z" fill="#60d5c4"/><path d="m392.971 7.0294-192.971 192.9706-192.97058-192.9706c4.34318-4.3431 10.34318-7.0294 16.97058-7.0294h352c6.627 0 12.627 2.6863 16.971 7.0294z" fill="#71e9d8"/><path d="m7.02944 7.0293 192.97056 192.9707-192.97056 192.971c-4.34315-4.344-7.02944-10.344-7.02944-16.971v-352.0001c0-6.6274 2.68629-12.6274 7.02944-16.9706z" fill="#60d5c4"/><path d="m392.971 392.971-192.971-192.971-192.97058 192.971c4.34318 4.343 10.34318 7.029 16.97058 7.029h352c6.627 0 12.627-2.686 16.971-7.029z" fill="#71e9d8"/></g><path d="m348 50h-296c-1.1046 0-2 .8954-2 2v296c0 1.105.8954 2 2 2h296c1.105 0 2-.895 2-2v-296c0-1.1046-.895-2-2-2z" fill="#09b6a2"/><path d="m120.8 290.12c-19.56 0-29.34-9.78-29.34-29.34v-41.94c0-7.32-3.6-10.98-10.8-10.98-2.64 0-4.86-.84-6.66-2.52-1.68-1.68-2.52-3.84-2.52-6.48 0-2.76.84-4.98 2.52-6.66 1.8-1.68 4.02-2.52 6.66-2.52 7.2 0 10.8-3.66 10.8-10.98v-41.94c0-19.56 9.78-29.34 29.34-29.34 2.64 0 4.8.9 6.48 2.7s2.52 4.02 2.52 6.66-.84 4.8-2.52 6.48-3.84 2.52-6.48 2.52c-7.32 0-10.98 3.66-10.98 10.98v41.94c0 4.2-.48 7.98-1.44 11.34s-2.4 6.3-4.32 8.82c3.84 4.92 5.76 11.58 5.76 19.98v41.94c0 7.32 3.66 10.98 10.98 10.98 2.64 0 4.8.84 6.48 2.52s2.52 3.9 2.52 6.66c0 2.64-.84 4.8-2.52 6.48-1.68 1.8-3.84 2.7-6.48 2.7zm35.933-39.24c-3.36 0-6.3-1.2-8.82-3.6-2.4-2.52-3.6-5.46-3.6-8.82 0-3.48 1.2-6.42 3.6-8.82 2.52-2.52 5.46-3.78 8.82-3.78 3.48 0 6.42 1.26 8.82 3.78 2.4 2.4 3.6 5.34 3.6 8.82 0 3.36-1.2 6.3-3.6 8.82-2.4 2.4-5.34 3.6-8.82 3.6zm42.89 0c-3.36 0-6.3-1.2-8.82-3.6-2.4-2.52-3.6-5.46-3.6-8.82 0-3.48 1.2-6.42 3.6-8.82 2.52-2.52 5.46-3.78 8.82-3.78 3.48 0 6.42 1.26 8.82 3.78 2.4 2.4 3.6 5.34 3.6 8.82 0 3.36-1.2 6.3-3.6 8.82-2.4 2.4-5.34 3.6-8.82 3.6zm42.891 0c-3.36 0-6.3-1.2-8.82-3.6-2.4-2.52-3.6-5.46-3.6-8.82 0-3.48 1.2-6.42 3.6-8.82 2.52-2.52 5.46-3.78 8.82-3.78 3.48 0 6.42 1.26 8.82 3.78 2.4 2.4 3.6 5.34 3.6 8.82 0 3.36-1.2 6.3-3.6 8.82-2.4 2.4-5.34 3.6-8.82 3.6zm36.05 39.24c-2.64 0-4.8-.9-6.48-2.7-1.68-1.68-2.52-3.84-2.52-6.48 0-2.76.84-4.98 2.52-6.66s3.84-2.52 6.48-2.52c7.32 0 10.98-3.66 10.98-10.98v-41.94c0-8.4 1.92-15.06 5.76-19.98-1.92-2.52-3.36-5.46-4.32-8.82s-1.44-7.14-1.44-11.34v-41.94c0-7.32-3.66-10.98-10.98-10.98-2.64 0-4.8-.84-6.48-2.52s-2.52-3.84-2.52-6.48.84-4.86 2.52-6.66 3.84-2.7 6.48-2.7c19.56 0 29.34 9.78 29.34 29.34v41.94c0 7.32 3.6 10.98 10.8 10.98 2.64 0 4.8.84 6.48 2.52 1.8 1.68 2.7 3.9 2.7 6.66 0 2.64-.9 4.8-2.7 6.48-1.68 1.68-3.84 2.52-6.48 2.52-7.2 0-10.8 3.66-10.8 10.98v41.94c0 19.56-9.78 29.34-29.34 29.34z" fill="#fff"/></svg>