<svg width="144" height="143" viewBox="0 0 144 143" fill="none" xmlns="http://www.w3.org/2000/svg">
<g filter="url(#filter0_d_1_69)">
<path d="M6 66C6 44.376 6.00001 33.565 9.81601 25.142C14.102 15.682 21.682 8.10201 31.142 3.81601C39.565 9.53674e-06 50.376 0 72 0C93.624 0 104.435 9.53674e-06 112.858 3.81601C122.318 8.10201 129.898 15.682 134.184 25.142C138 33.565 138 44.376 138 66C138 87.624 138 98.435 134.184 106.858C129.898 116.318 122.318 123.898 112.858 128.184C104.435 132 93.624 132 72 132C50.376 132 39.565 132 31.142 128.184C21.682 123.898 14.102 116.318 9.81601 106.858C6.00001 98.435 6 87.624 6 66Z" fill="white"/>
<path d="M6 66C6 44.376 6.00001 33.565 9.81601 25.142C14.102 15.682 21.682 8.10201 31.142 3.81601C39.565 9.53674e-06 50.376 0 72 0C93.624 0 104.435 9.53674e-06 112.858 3.81601C122.318 8.10201 129.898 15.682 134.184 25.142C138 33.565 138 44.376 138 66C138 87.624 138 98.435 134.184 106.858C129.898 116.318 122.318 123.898 112.858 128.184C104.435 132 93.624 132 72 132C50.376 132 39.565 132 31.142 128.184C21.682 123.898 14.102 116.318 9.81601 106.858C6.00001 98.435 6 87.624 6 66Z" fill="url(#paint0_radial_1_69)" fill-opacity="0.2"/>
</g>
<g filter="url(#filter1_d_1_69)">
<path fill-rule="evenodd" clip-rule="evenodd" d="M46.912 127.574C53.191 128.037 61.129 128.04 72 128.04C82.871 128.04 90.809 128.037 97.088 127.574C103.327 127.113 107.613 126.213 111.223 124.577C119.809 120.687 126.687 113.809 130.577 105.223C132.213 101.613 133.113 97.327 133.574 91.088C134.037 84.809 134.04 76.871 134.04 66C134.04 55.129 134.037 47.191 133.574 40.912C133.113 34.673 132.213 30.387 130.577 26.777C126.687 18.191 119.809 11.313 111.223 7.423C107.613 5.787 103.327 4.88699 97.088 4.42599C90.809 3.96299 82.871 3.95999 72 3.95999C61.129 3.95999 53.191 3.96299 46.912 4.42599C40.673 4.88699 36.387 5.787 32.777 7.423C24.191 11.313 17.313 18.191 13.423 26.777C11.787 30.387 10.887 34.673 10.426 40.912C9.96299 47.191 9.95999 55.129 9.95999 66C9.95999 76.871 9.96299 84.809 10.426 91.088C10.887 97.327 11.787 101.613 13.423 105.223C17.313 113.809 24.191 120.687 32.777 124.577C36.387 126.213 40.673 127.113 46.912 127.574ZM9.81601 25.142C6.00001 33.565 6 44.376 6 66C6 87.624 6.00001 98.435 9.81601 106.858C14.102 116.318 21.682 123.898 31.142 128.184C39.565 132 50.376 132 72 132C93.624 132 104.435 132 112.858 128.184C122.318 123.898 129.898 116.318 134.184 106.858C138 98.435 138 87.624 138 66C138 44.376 138 33.565 134.184 25.142C129.898 15.682 122.318 8.10201 112.858 3.81601C104.435 9.53674e-06 93.624 0 72 0C50.376 0 39.565 9.53674e-06 31.142 3.81601C21.682 8.10201 14.102 15.682 9.81601 25.142Z" fill="black" fill-opacity="0.05"/>
</g>
<mask id="mask0_1_69" style="mask-type:luminance" maskUnits="userSpaceOnUse" x="40" y="34" width="64" height="64">
<path d="M104 34H40V98H104V34Z" fill="white"/>
</mask>
<g mask="url(#mask0_1_69)">
<path fill-rule="evenodd" clip-rule="evenodd" d="M72.001 35.333C64.404 35.337 57.056 38.028 51.272 42.924C45.487 47.82 41.642 54.603 40.425 62.059C39.209 69.515 40.699 77.158 44.629 83.622C48.56 90.086 54.674 94.949 61.88 97.341C63.47 97.636 64.068 96.651 64.068 95.813C64.068 94.976 64.036 92.547 64.026 89.891C55.124 91.814 53.243 86.135 53.243 86.135C51.791 82.447 49.692 81.477 49.692 81.477C46.789 79.507 49.91 79.544 49.91 79.544C53.126 79.77 54.816 82.826 54.816 82.826C57.667 87.689 62.304 86.282 64.127 85.46C64.413 83.4 65.245 81.999 66.161 81.203C59.05 80.402 51.579 77.673 51.579 65.481C51.535 62.319 52.715 59.262 54.875 56.941C54.546 56.14 53.449 52.905 55.187 48.511C55.187 48.511 57.874 47.657 63.989 51.772C69.234 50.346 74.768 50.346 80.013 51.772C86.122 47.657 88.804 48.511 88.804 48.511C90.547 52.894 89.45 56.129 89.121 56.941C91.288 59.262 92.471 62.325 92.423 65.492C92.423 77.71 84.935 80.402 77.814 81.187C78.958 82.178 79.981 84.112 79.981 87.083C79.981 91.34 79.944 94.765 79.944 95.813C79.944 96.662 80.521 97.652 82.143 97.341C89.349 94.949 95.465 90.085 99.395 83.62C103.325 77.155 104.815 69.51 103.596 62.054C102.378 54.597 98.532 47.814 92.745 42.919C86.958 38.024 79.609 35.335 72.011 35.333H72.001Z" fill="#191717"/>
<path d="M52.119 81.019C52.05 81.177 51.795 81.224 51.589 81.114C51.382 81.003 51.228 80.797 51.303 80.634C51.377 80.471 51.626 80.429 51.832 80.539C52.039 80.65 52.198 80.861 52.119 81.019Z" fill="#191717"/>
<path d="M53.417 82.457C53.307 82.512 53.182 82.528 53.062 82.501C52.942 82.474 52.835 82.406 52.76 82.31C52.553 82.088 52.511 81.783 52.67 81.646C52.829 81.509 53.115 81.572 53.321 81.793C53.528 82.015 53.576 82.32 53.417 82.457Z" fill="#191717"/>
<path d="M54.678 84.285C54.482 84.422 54.148 84.285 53.963 84.011C53.911 83.962 53.871 83.903 53.843 83.838C53.815 83.773 53.8 83.703 53.8 83.632C53.8 83.561 53.815 83.491 53.843 83.426C53.871 83.361 53.911 83.302 53.963 83.253C54.159 83.121 54.492 83.253 54.678 83.521C54.863 83.79 54.869 84.148 54.678 84.285Z" fill="#191717"/>
<path d="M56.389 86.055C56.215 86.25 55.86 86.198 55.568 85.934C55.277 85.671 55.208 85.313 55.383 85.123C55.558 84.933 55.913 84.986 56.215 85.244C56.517 85.502 56.575 85.866 56.389 86.055Z" fill="#191717"/>
<path d="M58.79 87.088C58.71 87.336 58.35 87.446 57.99 87.341C57.629 87.236 57.391 86.941 57.46 86.688C57.529 86.435 57.894 86.319 58.26 86.435C58.625 86.551 58.859 86.83 58.79 87.088Z" fill="#191717"/>
<path d="M61.408 87.267C61.408 87.526 61.111 87.747 60.729 87.752C60.348 87.757 60.035 87.547 60.035 87.289C60.035 87.03 60.332 86.809 60.713 86.804C61.095 86.799 61.408 87.004 61.408 87.267Z" fill="#191717"/>
<path d="M63.845 86.862C63.893 87.12 63.628 87.389 63.246 87.452C62.865 87.515 62.531 87.362 62.483 87.109C62.436 86.857 62.711 86.583 63.082 86.514C63.453 86.446 63.797 86.604 63.845 86.862Z" fill="#191717"/>
</g>
<defs>
<filter id="filter0_d_1_69" x="0.72" y="0" width="142.56" height="142.56" filterUnits="userSpaceOnUse" color-interpolation-filters="sRGB">
<feFlood flood-opacity="0" result="BackgroundImageFix"/>
<feColorMatrix in="SourceAlpha" type="matrix" values="0 0 0 0 0 0 0 0 0 0 0 0 0 0 0 0 0 0 127 0" result="hardAlpha"/>
<feOffset dy="5.28"/>
<feGaussianBlur stdDeviation="2.64"/>
<feComposite in2="hardAlpha" operator="out"/>
<feColorMatrix type="matrix" values="0 0 0 0 0 0 0 0 0 0 0 0 0 0 0 0 0 0 0.05 0"/>
<feBlend mode="normal" in2="BackgroundImageFix" result="effect1_dropShadow_1_69"/>
<feBlend mode="normal" in="SourceGraphic" in2="effect1_dropShadow_1_69" result="shape"/>
</filter>
<filter id="filter1_d_1_69" x="0.72" y="0" width="142.56" height="142.56" filterUnits="userSpaceOnUse" color-interpolation-filters="sRGB">
<feFlood flood-opacity="0" result="BackgroundImageFix"/>
<feColorMatrix in="SourceAlpha" type="matrix" values="0 0 0 0 0 0 0 0 0 0 0 0 0 0 0 0 0 0 127 0" result="hardAlpha"/>
<feOffset dy="5.28"/>
<feGaussianBlur stdDeviation="2.64"/>
<feComposite in2="hardAlpha" operator="out"/>
<feColorMatrix type="matrix" values="0 0 0 0 0 0 0 0 0 0 0 0 0 0 0 0 0 0 0.05 0"/>
<feBlend mode="normal" in2="BackgroundImageFix" result="effect1_dropShadow_1_69"/>
<feBlend mode="normal" in="SourceGraphic" in2="effect1_dropShadow_1_69" result="shape"/>
</filter>
<radialGradient id="paint0_radial_1_69" cx="0" cy="0" r="1" gradientUnits="userSpaceOnUse" gradientTransform="translate(57.531 -97.872) rotate(77.074) scale(128.076)">
<stop stop-color="#00DBFF"/>
<stop offset="1" stop-color="#00DBFF" stop-opacity="0"/>
</radialGradient>
</defs>
</svg>
