<svg width="145" height="144" viewBox="0 0 145 144" fill="none" xmlns="http://www.w3.org/2000/svg">
<g filter="url(#filter0_d_2_72)">
<path d="M4 68.5C4 46.057 4 34.836 7.961 26.095C12.409 16.276 20.276 8.409 30.095 3.961C38.836 -1.43051e-06 50.057 0 72.5 0C94.943 0 106.164 -1.43051e-06 114.905 3.961C124.724 8.409 132.591 16.276 137.039 26.095C141 34.836 141 46.057 141 68.5C141 90.943 141 102.164 137.039 110.905C132.591 120.724 124.724 128.591 114.905 133.039C106.164 137 94.943 137 72.5 137C50.057 137 38.836 137 30.095 133.039C20.276 128.591 12.409 120.724 7.961 110.905C4 102.164 4 90.943 4 68.5Z" fill="white"/>
</g>
<g filter="url(#filter1_d_2_72)">
<path fill-rule="evenodd" clip-rule="evenodd" d="M46.462 132.406C52.979 132.887 61.218 132.89 72.5 132.89C83.782 132.89 92.021 132.887 98.538 132.406C105.013 131.928 109.462 130.993 113.209 129.296C122.119 125.258 129.258 118.119 133.296 109.209C134.993 105.462 135.928 101.013 136.406 94.538C136.887 88.021 136.89 79.782 136.89 68.5C136.89 57.218 136.887 48.979 136.406 42.462C135.928 35.987 134.993 31.538 133.296 27.791C129.258 18.881 122.119 11.742 113.209 7.704C109.462 6.007 105.013 5.072 98.538 4.594C92.021 4.113 83.782 4.11 72.5 4.11C61.218 4.11 52.979 4.113 46.462 4.594C39.987 5.072 35.538 6.007 31.791 7.704C22.881 11.742 15.742 18.881 11.704 27.791C10.007 31.538 9.07199 35.987 8.59399 42.462C8.11299 48.979 8.11 57.218 8.11 68.5C8.11 79.782 8.11299 88.021 8.59399 94.538C9.07199 101.013 10.007 105.462 11.704 109.209C15.742 118.119 22.881 125.258 31.791 129.296C35.538 130.993 39.987 131.928 46.462 132.406ZM7.961 26.095C4 34.836 4 46.057 4 68.5C4 90.943 4 102.164 7.961 110.905C12.409 120.724 20.276 128.591 30.095 133.039C38.836 137 50.057 137 72.5 137C94.943 137 106.164 137 114.905 133.039C124.724 128.591 132.591 120.724 137.039 110.905C141 102.164 141 90.943 141 68.5C141 46.057 141 34.836 137.039 26.095C132.591 16.276 124.724 8.409 114.905 3.961C106.164 -1.43051e-06 94.943 0 72.5 0C50.057 0 38.836 -1.43051e-06 30.095 3.961C20.276 8.409 12.409 16.276 7.961 26.095Z" fill="black" fill-opacity="0.05"/>
</g>
<path d="M78.725 101.892C75.126 102.539 71.656 100.21 71.014 96.586L61.246 42.873C60.603 39.249 62.917 35.755 66.515 35.108C70.114 34.461 73.584 36.79 74.227 40.414L83.994 94.127C84.637 97.751 82.195 101.245 78.725 101.892Z" fill="#FF5543"/>
<path d="M53.1491 92.703C50.8361 93.091 48.5231 92.315 46.8521 90.503C44.5381 87.655 44.7951 83.514 47.6231 81.184L88.8781 45.85C91.7051 43.521 95.818 43.78 98.132 46.627C100.445 49.474 100.188 53.616 97.36 55.946L56.234 91.279C55.334 92.056 54.1771 92.574 53.1491 92.703Z" fill="#A112FF"/>
<path d="M99.288 84.161C98.131 84.419 96.975 84.29 95.947 83.902L44.795 65.652C41.325 64.358 39.526 60.605 40.811 57.11C42.097 53.616 45.824 51.804 49.294 53.098L100.316 71.347C103.786 72.642 105.586 76.395 104.3 79.889C103.529 82.219 101.473 83.772 99.288 84.161Z" fill="#00CBEC"/>
<defs>
<filter id="filter0_d_2_72" x="0.77648" y="0" width="143.447" height="143.447" filterUnits="userSpaceOnUse" color-interpolation-filters="sRGB">
<feFlood flood-opacity="0" result="BackgroundImageFix"/>
<feColorMatrix in="SourceAlpha" type="matrix" values="0 0 0 0 0 0 0 0 0 0 0 0 0 0 0 0 0 0 127 0" result="hardAlpha"/>
<feOffset dy="3.22353"/>
<feGaussianBlur stdDeviation="1.61176"/>
<feComposite in2="hardAlpha" operator="out"/>
<feColorMatrix type="matrix" values="0 0 0 0 0 0 0 0 0 0 0 0 0 0 0 0 0 0 0.05 0"/>
<feBlend mode="normal" in2="BackgroundImageFix" result="effect1_dropShadow_2_72"/>
<feBlend mode="normal" in="SourceGraphic" in2="effect1_dropShadow_2_72" result="shape"/>
</filter>
<filter id="filter1_d_2_72" x="0.77648" y="0" width="143.447" height="143.447" filterUnits="userSpaceOnUse" color-interpolation-filters="sRGB">
<feFlood flood-opacity="0" result="BackgroundImageFix"/>
<feColorMatrix in="SourceAlpha" type="matrix" values="0 0 0 0 0 0 0 0 0 0 0 0 0 0 0 0 0 0 127 0" result="hardAlpha"/>
<feOffset dy="3.22353"/>
<feGaussianBlur stdDeviation="1.61176"/>
<feComposite in2="hardAlpha" operator="out"/>
<feColorMatrix type="matrix" values="0 0 0 0 0 0 0 0 0 0 0 0 0 0 0 0 0 0 0.05 0"/>
<feBlend mode="normal" in2="BackgroundImageFix" result="effect1_dropShadow_2_72"/>
<feBlend mode="normal" in="SourceGraphic" in2="effect1_dropShadow_2_72" result="shape"/>
</filter>
</defs>
</svg>
