<svg width="44" height="26" viewBox="0 0 44 26" fill="none" xmlns="http://www.w3.org/2000/svg">
<path d="M14.698 25H8.59799L0.468994 0.815002H6.134L11.665 19.788H11.782L17.313 0.815002H22.827L14.698 25ZM23.967 18.112H28.844C29.078 20.106 31.157 21.413 33.838 21.413C36.537 21.413 38.38 20.123 38.38 18.346C38.38 16.771 37.224 15.899 34.308 15.246L31.157 14.559C26.699 13.603 24.503 11.341 24.503 7.804C24.503 3.346 28.358 0.395996 33.754 0.395996C39.386 0.395996 42.922 3.296 43.006 7.67H38.263C38.095 5.626 36.302 4.38499 33.771 4.38499C31.274 4.38499 29.598 5.575 29.598 7.369C29.598 8.86 30.771 9.69801 33.553 10.335L36.486 10.955C41.33 11.994 43.442 14.073 43.442 17.76C43.442 22.452 39.637 25.419 33.637 25.419C27.821 25.419 24.118 22.654 23.967 18.112Z" fill="#505154"/>
</svg>
