<svg width="131" height="130" viewBox="0 0 131 130" fill="none" xmlns="http://www.w3.org/2000/svg">
<rect x="0.832031" width="129.562" height="129.562" rx="15" fill="#503766"/>
<path d="M56.303 36.8399H73.3884L55.6521 89.3904C55.4698 89.9304 55.1228 90.3997 54.6598 90.7321C54.1969 91.0645 53.6413 91.2433 53.0714 91.2435H39.7748C39.343 91.2435 38.9174 91.1407 38.5332 90.9437C38.1489 90.7466 37.8172 90.4608 37.5653 90.1101C37.3134 89.7593 37.1487 89.3536 37.0847 88.9266C37.0207 88.4995 37.0594 88.0634 37.1974 87.6542L53.7217 38.6929C53.9039 38.1527 54.251 37.6832 54.7141 37.3507C55.1772 37.0182 55.7329 36.8399 56.303 36.8399Z" fill="white"/>
<path d="M81.1307 72.0873H54.0376C53.7857 72.087 53.5395 72.1626 53.3312 72.3042C53.1229 72.4458 52.9621 72.6469 52.8697 72.8812C52.7773 73.1155 52.7576 73.3722 52.8131 73.6179C52.8687 73.8636 52.997 74.0868 53.1813 74.2585L70.5907 90.5079C71.0976 90.9807 71.765 91.2436 72.4582 91.2435H87.7994L81.1307 72.0873Z" fill="white"/>
<path d="M56.3035 36.8399C55.7271 36.8377 55.1652 37.0198 54.6997 37.3597C54.2342 37.6995 53.8896 38.1793 53.7162 38.729L37.2182 87.6096C37.0708 88.0202 37.0246 88.4603 37.0833 88.8926C37.1421 89.3249 37.304 89.7367 37.5556 90.0932C37.8071 90.4496 38.1408 90.7403 38.5284 90.9405C38.9161 91.1407 39.3462 91.2446 39.7825 91.2434H53.4222C53.9302 91.1527 54.4051 90.9287 54.7982 90.5944C55.1913 90.26 55.4886 89.8274 55.6598 89.3405L58.9498 79.6443L70.7018 90.6056C71.1942 91.013 71.812 91.2382 72.4511 91.2434H87.7352L81.0318 72.0873L61.4905 72.0918L73.4505 36.8399H56.3035Z" fill="url(#paint0_linear_11784_5541)"/>
<path d="M78.1256 38.6902C77.9437 38.1509 77.5971 37.6822 77.1347 37.3503C76.6723 37.0183 76.1174 36.8398 75.5482 36.8398H56.5068C57.076 36.8399 57.6309 37.0184 58.0932 37.3504C58.5556 37.6823 58.9022 38.1509 59.0843 38.6902L75.6092 87.6535C75.7473 88.0627 75.7861 88.499 75.7221 88.9262C75.6582 89.3533 75.4935 89.7591 75.2416 90.11C74.9898 90.4609 74.658 90.7468 74.2737 90.944C73.8894 91.1412 73.4637 91.244 73.0318 91.2441H92.0738C92.5056 91.2439 92.9313 91.141 93.3155 90.9437C93.6997 90.7465 94.0314 90.4606 94.2832 90.1098C94.535 89.7589 94.6996 89.3531 94.7635 88.926C94.8274 88.4989 94.7887 88.0627 94.6506 87.6535L78.1256 38.6902Z" fill="white"/>
<defs>
<linearGradient id="paint0_linear_11784_5541" x1="68.0732" y1="65.2998" x2="63.9688" y2="66.6876" gradientUnits="userSpaceOnUse">
<stop stop-opacity="0.3"/>
<stop offset="0.071" stop-opacity="0.2"/>
<stop offset="0.321" stop-opacity="0.1"/>
<stop offset="0.623" stop-opacity="0.05"/>
<stop offset="1" stop-opacity="0"/>
</linearGradient>
</defs>
</svg>
