<svg width="131" height="131" viewBox="0 0 131 131" fill="none" xmlns="http://www.w3.org/2000/svg">
<rect x="1.33203" y="1.45361" width="128.562" height="128.562" rx="14.5" fill="#F5F7FB" stroke="#DBE2F0"/>
<path d="M56.303 37.7935H73.3884L55.6521 90.344C55.4698 90.884 55.1228 91.3533 54.6598 91.6857C54.1969 92.0181 53.6413 92.1969 53.0714 92.1971H39.7748C39.343 92.1971 38.9174 92.0944 38.5332 91.8973C38.1489 91.7002 37.8172 91.4144 37.5653 91.0637C37.3134 90.7129 37.1487 90.3072 37.0847 89.8802C37.0207 89.4531 37.0594 89.017 37.1974 88.6078L53.7217 39.6465C53.9039 39.1063 54.251 38.6369 54.7141 38.3043C55.1772 37.9718 55.7329 37.7935 56.303 37.7935Z" fill="url(#paint0_linear_11784_5555)"/>
<path d="M81.1307 73.0409H54.0376C53.7857 73.0406 53.5395 73.1162 53.3312 73.2578C53.1229 73.3994 52.9621 73.6005 52.8697 73.8348C52.7773 74.0691 52.7576 74.3258 52.8131 74.5715C52.8687 74.8172 52.997 75.0404 53.1813 75.2122L70.5907 91.4615C71.0976 91.9343 71.765 92.1972 72.4582 92.1971H87.7994L81.1307 73.0409Z" fill="#0078D4"/>
<path d="M56.3035 37.7935C55.7271 37.7913 55.1652 37.9734 54.6997 38.3133C54.2342 38.6531 53.8896 39.1329 53.7162 39.6826L37.2182 88.5632C37.0708 88.9738 37.0246 89.4139 37.0833 89.8462C37.1421 90.2785 37.304 90.6903 37.5556 91.0468C37.8071 91.4032 38.1408 91.6939 38.5284 91.8941C38.9161 92.0943 39.3462 92.1982 39.7825 92.197H53.4222C53.9302 92.1063 54.4051 91.8823 54.7982 91.548C55.1913 91.2137 55.4886 90.781 55.6598 90.2941L58.9498 80.598L70.7018 91.5592C71.1942 91.9666 71.812 92.1918 72.4511 92.197H87.7352L81.0318 73.0409L61.4905 73.0455L73.4505 37.7935H56.3035Z" fill="url(#paint1_linear_11784_5555)"/>
<path d="M78.1256 39.6439C77.9437 39.1045 77.5971 38.6358 77.1347 38.3039C76.6723 37.9719 76.1174 37.7934 75.5482 37.7935H56.5068C57.076 37.7935 57.6309 37.9721 58.0932 38.304C58.5556 38.6359 58.9022 39.1046 59.0843 39.6439L75.6092 88.6071C75.7473 89.0164 75.7861 89.4526 75.7221 89.8798C75.6582 90.3069 75.4935 90.7128 75.2416 91.0636C74.9898 91.4145 74.658 91.7004 74.2737 91.8976C73.8894 92.0948 73.4637 92.1977 73.0318 92.1977H92.0738C92.5056 92.1975 92.9313 92.0946 93.3155 91.8974C93.6997 91.7001 94.0314 91.4142 94.2832 91.0634C94.535 90.7125 94.6996 90.3067 94.7635 89.8796C94.8274 89.4525 94.7887 89.0163 94.6506 88.6071L78.1256 39.6439Z" fill="url(#paint2_linear_11784_5555)"/>
<defs>
<linearGradient id="paint0_linear_11784_5555" x1="62.5301" y1="41.825" x2="44.7866" y2="94.2437" gradientUnits="userSpaceOnUse">
<stop stop-color="#114A8B"/>
<stop offset="1" stop-color="#0669BC"/>
</linearGradient>
<linearGradient id="paint1_linear_11784_5555" x1="68.0732" y1="66.2535" x2="63.9688" y2="67.6413" gradientUnits="userSpaceOnUse">
<stop stop-opacity="0.3"/>
<stop offset="0.071" stop-opacity="0.2"/>
<stop offset="0.321" stop-opacity="0.1"/>
<stop offset="0.623" stop-opacity="0.05"/>
<stop offset="1" stop-opacity="0"/>
</linearGradient>
<linearGradient id="paint2_linear_11784_5555" x1="65.8159" y1="40.2961" x2="85.2929" y2="92.1865" gradientUnits="userSpaceOnUse">
<stop stop-color="#3CCBF4"/>
<stop offset="1" stop-color="#2892DF"/>
</linearGradient>
</defs>
</svg>
