<svg width="131" height="130" viewBox="0 0 131 130" fill="none" xmlns="http://www.w3.org/2000/svg">
<rect x="0.753906" width="129.562" height="129.562" rx="15" fill="#503766"/>
<g clip-path="url(#clip0_11784_5538)">
<path d="M72.6845 61.9653H95.2507C95.438 61.9653 95.5784 62.0601 95.6253 62.2496C96.5616 64.5234 97.9661 65.992 100.354 66.3709C104.052 66.9394 107.142 64.1445 107.096 60.3547C107.002 53.4857 97.8257 52.2067 95.6253 58.6493C95.5784 58.8388 95.438 58.9335 95.2039 58.9335H72.5441C72.4504 58.9335 72.3568 58.8388 72.3568 58.744V53.012C72.3568 52.8699 72.4504 52.7751 72.5909 52.7751H88.2749C88.4153 52.7751 88.5558 52.633 88.5558 52.4909V43.7744C88.5558 43.5376 88.6962 43.3007 88.9303 43.206C91.7862 42.1164 93.1439 40.0794 93.0503 37.095C92.863 31.9314 86.7299 29.6575 83.1249 33.1631C81.9544 34.3 81.3458 35.6738 81.3458 37.2371C81.299 39.9373 82.6099 41.9269 85.2317 43.1586C85.419 43.2533 85.5594 43.4428 85.5594 43.6797V49.2696C85.5594 49.5065 85.3722 49.6959 85.1381 49.6959H72.6377C72.4972 49.6959 72.4036 49.6012 72.4036 49.4591C72.4036 45.0061 72.4036 40.1741 72.4036 34.9632C72.4036 33.5894 72.0291 32.5472 70.8586 31.8366C67.9559 30.0365 65.1937 28.3785 62.5719 26.8152C61.9164 26.3888 61.0737 26.4362 60.3714 26.8152L43.0488 37.5687C42.5806 37.8529 42.2997 38.374 42.2997 38.9425V49.6959C42.2997 49.8381 42.2061 49.9802 42.0657 50.0749L34.1066 54.7174C33.6853 54.9543 33.4512 55.3806 33.4512 55.8543V74.2821C33.4512 74.7558 33.6853 75.1822 34.1066 75.419L42.1593 80.1089C42.2997 80.2036 42.3934 80.3457 42.3934 80.4878V91.2887C42.3934 91.7624 42.6275 92.2361 43.0488 92.5204L60.746 103.558C61.261 103.89 61.8696 103.89 62.3846 103.558C65.3809 101.758 68.19 100.053 70.765 98.4419C71.8886 97.7313 72.4972 96.6891 72.4972 95.3627C72.4972 90.5307 72.4972 85.6514 72.4972 80.8195C72.4972 80.5826 72.5909 80.4878 72.825 80.4878H81.4863C81.6735 80.4878 81.814 80.5826 81.814 80.8195V85.1777C81.814 85.3672 81.6735 85.5093 81.5331 85.604C77.0854 87.2147 76.0086 93.0888 79.754 96.0259C83.0313 98.6314 87.4321 97.1628 88.8835 93.3257C90.1008 90.1044 88.3217 86.6936 85.1381 85.5567C84.9508 85.5093 84.904 85.3672 84.904 85.1777L84.9508 79.1614C84.9508 78.0245 84.389 77.456 83.2654 77.456H72.7782C72.6377 77.456 72.5441 77.3613 72.5441 77.2192V71.6293C72.5441 71.5345 72.6377 71.4398 72.7313 71.4398H88.1344C88.3685 71.4398 88.6026 71.5345 88.743 71.724L90.9435 74.4716C91.0839 74.6137 91.0839 74.8032 90.9903 74.9927C89.5389 77.8824 90.3817 81.2932 93.0971 82.9986C95.7189 84.6092 99.1366 83.946 100.916 81.3879C103.35 77.8824 101.665 73.3347 97.6852 72.103C96.3275 71.6766 94.9698 71.8187 93.6121 72.482C93.4248 72.5767 93.2376 72.5293 93.1439 72.3872L90.3817 68.8817C90.1476 68.5501 89.773 68.4079 89.3985 68.4079H72.7782C72.6377 68.4079 72.5441 68.3132 72.5441 68.1711V62.3443C72.4036 62.1075 72.5441 61.9653 72.6845 61.9653ZM101.337 57.5124C102.929 57.5124 104.193 58.7914 104.193 60.4021C104.193 62.0127 102.929 63.2918 101.337 63.2918C99.7452 63.2918 98.4811 62.0127 98.4811 60.4021C98.4811 58.7914 99.7452 57.5124 101.337 57.5124ZM84.389 37.4739C84.389 35.8633 85.6531 34.5842 87.2449 34.5842C88.8367 34.5842 90.1008 35.8633 90.1008 37.4739C90.1008 39.0846 88.8367 40.3636 87.2449 40.3636C85.6531 40.3636 84.389 39.0846 84.389 37.4739ZM69.22 95.7417L61.7291 100.289C61.6355 100.337 61.4951 100.337 61.4014 100.289L55.5492 96.6891C55.5024 96.6891 55.5024 96.6417 55.5024 96.6417C55.4556 96.547 55.5024 96.4049 55.5492 96.3575L61.7291 92.6625C61.8696 92.5677 61.9164 92.4256 61.8228 92.2835L60.5119 89.9623C60.4182 89.8202 60.3246 89.7728 60.1373 89.8675L52.3188 94.5574C52.1783 94.6047 52.0379 94.6047 51.9442 94.5574L45.7174 90.6255C45.5302 90.4834 45.3897 90.2465 45.3897 90.0096V80.5352C45.3897 80.3931 45.4834 80.251 45.6238 80.1562L52.7869 75.798C52.9274 75.7033 52.9742 75.6085 52.8806 75.419L51.6633 73.2873C51.5697 73.0978 51.4292 73.0978 51.2419 73.1925L44.0788 77.5508C43.9852 77.5981 43.8447 77.5981 43.7043 77.5508L36.588 73.4294C36.4475 73.3347 36.3071 73.1452 36.3539 72.9557V66.4183C36.3539 66.1815 36.4475 65.992 36.6348 65.8972L43.9384 61.539C44.1725 61.3969 44.2193 61.2074 44.0788 60.9705L43.002 59.0283C42.8616 58.7914 42.6743 58.744 42.4402 58.8861L36.6816 62.3443C36.6348 62.3443 36.588 62.3917 36.5412 62.3917C36.4007 62.3917 36.3071 62.2969 36.3071 62.1548V57.2281C36.3071 57.0386 36.4007 56.9439 36.5412 56.8491L43.5638 52.7751C43.7511 52.6804 43.9852 52.6804 44.1725 52.7751L51.0079 56.707C51.2419 56.8491 51.3824 57.1334 51.3824 57.4176V63.8129C51.3824 64.0023 51.2888 64.1918 51.1015 64.3339L46.0452 67.7447C45.9047 67.8395 45.8579 67.9816 45.9515 68.1237L47.1688 70.2555C47.2624 70.3976 47.4965 70.445 47.637 70.3502L52.4124 67.0815C52.6465 66.892 52.9742 66.9394 53.2551 67.1289L57.4219 70.4923C57.5624 70.5871 57.7028 70.5871 57.7964 70.445L59.5287 68.5501C59.6223 68.4553 59.6223 68.3606 59.4819 68.2658L54.6128 64.4287C54.4256 64.2866 54.3319 64.0971 54.3319 63.9076V57.1808C54.3319 56.9913 54.4256 56.8491 54.566 56.7544L62.4782 52.1593C63.04 51.8277 63.2741 51.354 63.2741 50.7381V42.2585C63.2741 42.1164 63.2273 42.069 63.0869 42.069H60.5119C60.3714 42.069 60.3246 42.1164 60.3246 42.2585L60.3714 49.3643C60.3714 49.6959 60.1842 49.9802 59.9032 50.1697L52.9742 54.1489C52.8338 54.1963 52.7401 54.1963 52.5997 54.1489L45.6238 50.1223C45.4365 49.9802 45.2961 49.7907 45.2961 49.5538V40.0794C45.2961 39.8899 45.3897 39.7478 45.5302 39.6531L50.961 36.2423C51.0079 36.1949 51.0547 36.1949 51.1015 36.1949C51.242 36.1949 51.3824 36.337 51.3824 36.4791L51.3356 44.5324C51.3356 44.8166 51.476 45.0061 51.7569 45.0061H53.9574C54.1915 45.0061 54.3319 44.864 54.3319 44.6271V34.4421C54.3319 34.2526 54.4256 34.1105 54.566 34.0158L61.261 29.847C61.4014 29.7523 61.5419 29.7523 61.6823 29.847L68.8923 34.2526C69.1264 34.3947 69.2668 34.679 69.2668 34.9632V72.3398C69.2668 72.482 69.1732 72.6714 69.0327 72.7188L51.1483 83.4723C51.0547 83.5197 51.0547 83.6144 51.1015 83.6618L52.506 86.0304C52.5529 86.1251 52.5997 86.1251 52.6933 86.0778L69.0327 76.2717C69.0795 76.2717 69.0795 76.2244 69.1264 76.2244C69.22 76.2244 69.3136 76.3191 69.3136 76.4138V95.268C69.4541 95.5048 69.3605 95.6943 69.22 95.7417ZM83.2654 88.3516C84.8572 88.3516 86.1212 89.6307 86.1212 91.2413C86.1212 92.852 84.8572 94.131 83.2654 94.131C81.6735 94.131 80.4095 92.852 80.4095 91.2413C80.4095 89.6307 81.6735 88.3516 83.2654 88.3516ZM96.0466 74.9453C97.6384 74.9453 98.9025 76.2244 98.9025 77.835C98.9025 79.4457 97.6384 80.7247 96.0466 80.7247C94.4548 80.7247 93.1907 79.4457 93.1907 77.835C93.1439 76.2717 94.4548 74.9453 96.0466 74.9453Z" fill="white"/>
</g>
<defs>
<clipPath id="clip0_11784_5538">
<rect width="75.5906" height="77.6903" fill="white" transform="translate(32.4434 26.2467)"/>
</clipPath>
</defs>
</svg>
