<svg width="131" height="131" viewBox="0 0 131 131" fill="none" xmlns="http://www.w3.org/2000/svg">
<rect x="1.25391" y="1.45361" width="128.562" height="128.562" rx="14.5" fill="#F5F7FB" stroke="#DBE2F0"/>
<g clip-path="url(#clip0_11784_5552)">
<path d="M72.6845 62.9189H95.2507C95.438 62.9189 95.5784 63.0137 95.6253 63.2032C96.5616 65.477 97.9661 66.9456 100.354 67.3246C104.052 67.893 107.142 65.0981 107.096 61.3083C107.002 54.4393 97.8257 53.1603 95.6253 59.6029C95.5784 59.7924 95.438 59.8871 95.2039 59.8871H72.5441C72.4504 59.8871 72.3568 59.7924 72.3568 59.6976V53.9656C72.3568 53.8235 72.4504 53.7288 72.5909 53.7288H88.2749C88.4153 53.7288 88.5558 53.5866 88.5558 53.4445V44.728C88.5558 44.4912 88.6962 44.2543 88.9303 44.1596C91.7862 43.07 93.1439 41.033 93.0503 38.0486C92.863 32.885 86.7299 30.6111 83.1249 34.1167C81.9544 35.2536 81.3458 36.6274 81.3458 38.1907C81.299 40.8909 82.6099 42.8805 85.2317 44.1122C85.419 44.2069 85.5594 44.3964 85.5594 44.6333V50.2232C85.5594 50.4601 85.3722 50.6496 85.1381 50.6496H72.6377C72.4972 50.6496 72.4036 50.5548 72.4036 50.4127C72.4036 45.9597 72.4036 41.1278 72.4036 35.9168C72.4036 34.543 72.0291 33.5008 70.8586 32.7903C67.9559 30.9901 65.1937 29.3321 62.5719 27.7688C61.9164 27.3425 61.0737 27.3898 60.3714 27.7688L43.0488 38.5223C42.5806 38.8065 42.2997 39.3276 42.2997 39.8961V50.6496C42.2997 50.7917 42.2061 50.9338 42.0657 51.0285L34.1066 55.671C33.6853 55.9079 33.4512 56.3342 33.4512 56.8079V75.2357C33.4512 75.7094 33.6853 76.1358 34.1066 76.3726L42.1593 81.0625C42.2997 81.1572 42.3934 81.2993 42.3934 81.4415V92.2423C42.3934 92.716 42.6275 93.1897 43.0488 93.474L60.746 104.512C61.261 104.843 61.8696 104.843 62.3846 104.512C65.3809 102.712 68.19 101.006 70.765 99.3955C71.8886 98.6849 72.4972 97.6427 72.4972 96.3163C72.4972 91.4843 72.4972 86.605 72.4972 81.7731C72.4972 81.5362 72.5909 81.4415 72.825 81.4415H81.4863C81.6735 81.4415 81.814 81.5362 81.814 81.7731V86.1313C81.814 86.3208 81.6735 86.4629 81.5331 86.5577C77.0854 88.1683 76.0086 94.0425 79.754 96.9795C83.0313 99.585 87.4321 98.1165 88.8835 94.2793C90.1008 91.058 88.3217 87.6472 85.1381 86.5103C84.9508 86.4629 84.904 86.3208 84.904 86.1313L84.9508 80.115C84.9508 78.9781 84.389 78.4096 83.2654 78.4096H72.7782C72.6377 78.4096 72.5441 78.3149 72.5441 78.1728V72.5829C72.5441 72.4881 72.6377 72.3934 72.7313 72.3934H88.1344C88.3685 72.3934 88.6026 72.4881 88.743 72.6776L90.9435 75.4252C91.0839 75.5673 91.0839 75.7568 90.9903 75.9463C89.5389 78.836 90.3817 82.2468 93.0971 83.9522C95.7189 85.5628 99.1366 84.8996 100.916 82.3415C103.35 78.836 101.665 74.2883 97.6852 73.0566C96.3275 72.6302 94.9698 72.7724 93.6121 73.4356C93.4248 73.5303 93.2376 73.4829 93.1439 73.3408L90.3817 69.8353C90.1476 69.5037 89.773 69.3616 89.3985 69.3616H72.7782C72.6377 69.3616 72.5441 69.2668 72.5441 69.1247V63.2979C72.4036 63.0611 72.5441 62.9189 72.6845 62.9189ZM101.337 58.466C102.929 58.466 104.193 59.745 104.193 61.3557C104.193 62.9663 102.929 64.2454 101.337 64.2454C99.7452 64.2454 98.4811 62.9663 98.4811 61.3557C98.4811 59.745 99.7452 58.466 101.337 58.466ZM84.389 38.4275C84.389 36.8169 85.6531 35.5378 87.2449 35.5378C88.8367 35.5378 90.1008 36.8169 90.1008 38.4275C90.1008 40.0382 88.8367 41.3172 87.2449 41.3172C85.6531 41.3172 84.389 40.0382 84.389 38.4275ZM69.22 96.6953L61.7291 101.243C61.6355 101.29 61.4951 101.29 61.4014 101.243L55.5492 97.6427C55.5024 97.6427 55.5024 97.5954 55.5024 97.5954C55.4556 97.5006 55.5024 97.3585 55.5492 97.3111L61.7291 93.6161C61.8696 93.5214 61.9164 93.3792 61.8228 93.2371L60.5119 90.9159C60.4182 90.7738 60.3246 90.7264 60.1373 90.8211L52.3188 95.511C52.1783 95.5584 52.0379 95.5584 51.9442 95.511L45.7174 91.5791C45.5302 91.437 45.3897 91.2001 45.3897 90.9633V81.4888C45.3897 81.3467 45.4834 81.2046 45.6238 81.1099L52.7869 76.7516C52.9274 76.6569 52.9742 76.5621 52.8806 76.3726L51.6633 74.2409C51.5697 74.0514 51.4292 74.0514 51.2419 74.1462L44.0788 78.5044C43.9852 78.5518 43.8447 78.5518 43.7043 78.5044L36.588 74.383C36.4475 74.2883 36.3071 74.0988 36.3539 73.9093V67.3719C36.3539 67.1351 36.4475 66.9456 36.6348 66.8508L43.9384 62.4926C44.1725 62.3505 44.2193 62.161 44.0788 61.9241L43.002 59.9819C42.8616 59.745 42.6743 59.6976 42.4402 59.8398L36.6816 63.2979C36.6348 63.2979 36.588 63.3453 36.5412 63.3453C36.4007 63.3453 36.3071 63.2506 36.3071 63.1084V58.1817C36.3071 57.9922 36.4007 57.8975 36.5412 57.8028L43.5638 53.7288C43.7511 53.634 43.9852 53.634 44.1725 53.7288L51.0079 57.6606C51.2419 57.8028 51.3824 58.087 51.3824 58.3712V64.7665C51.3824 64.956 51.2888 65.1454 51.1015 65.2876L46.0452 68.6984C45.9047 68.7931 45.8579 68.9352 45.9515 69.0773L47.1688 71.2091C47.2624 71.3512 47.4965 71.3986 47.637 71.3038L52.4124 68.0351C52.6465 67.8457 52.9742 67.893 53.2551 68.0825L57.4219 71.4459C57.5624 71.5407 57.7028 71.5407 57.7964 71.3986L59.5287 69.5037C59.6223 69.4089 59.6223 69.3142 59.4819 69.2194L54.6128 65.3823C54.4256 65.2402 54.3319 65.0507 54.3319 64.8612V58.1344C54.3319 57.9449 54.4256 57.8028 54.566 57.708L62.4782 53.1129C63.04 52.7813 63.2741 52.3076 63.2741 51.6917V43.2121C63.2741 43.07 63.2273 43.0226 63.0869 43.0226H60.5119C60.3714 43.0226 60.3246 43.07 60.3246 43.2121L60.3714 50.318C60.3714 50.6496 60.1842 50.9338 59.9032 51.1233L52.9742 55.1025C52.8338 55.1499 52.7401 55.1499 52.5997 55.1025L45.6238 51.0759C45.4365 50.9338 45.2961 50.7443 45.2961 50.5074V41.033C45.2961 40.8435 45.3897 40.7014 45.5302 40.6067L50.961 37.1959C51.0079 37.1485 51.0547 37.1485 51.1015 37.1485C51.242 37.1485 51.3824 37.2906 51.3824 37.4327L51.3356 45.486C51.3356 45.7702 51.476 45.9597 51.7569 45.9597H53.9574C54.1915 45.9597 54.3319 45.8176 54.3319 45.5807V35.3957C54.3319 35.2062 54.4256 35.0641 54.566 34.9694L61.261 30.8006C61.4014 30.7059 61.5419 30.7059 61.6823 30.8006L68.8923 35.2062C69.1264 35.3484 69.2668 35.6326 69.2668 35.9168V73.2935C69.2668 73.4356 69.1732 73.6251 69.0327 73.6724L51.1483 84.4259C51.0547 84.4733 51.0547 84.568 51.1015 84.6154L52.506 86.984C52.5529 87.0787 52.5997 87.0787 52.6933 87.0314L69.0327 77.2253C69.0795 77.2253 69.0795 77.178 69.1264 77.178C69.22 77.178 69.3136 77.2727 69.3136 77.3675V96.2216C69.4541 96.4584 69.3605 96.6479 69.22 96.6953ZM83.2654 89.3052C84.8572 89.3052 86.1212 90.5843 86.1212 92.1949C86.1212 93.8056 84.8572 95.0846 83.2654 95.0846C81.6735 95.0846 80.4095 93.8056 80.4095 92.1949C80.4095 90.5843 81.6735 89.3052 83.2654 89.3052ZM96.0466 75.8989C97.6384 75.8989 98.9025 77.178 98.9025 78.7886C98.9025 80.3993 97.6384 81.6783 96.0466 81.6783C94.4548 81.6783 93.1907 80.3993 93.1907 78.7886C93.1439 77.2253 94.4548 75.8989 96.0466 75.8989Z" fill="black"/>
</g>
<defs>
<clipPath id="clip0_11784_5552">
<rect width="75.5906" height="77.6903" fill="white" transform="translate(32.4434 27.2003)"/>
</clipPath>
</defs>
</svg>
