<svg width="134" height="134" viewBox="0 0 134 134" fill="none" xmlns="http://www.w3.org/2000/svg">
<rect x="1.40723" y="1.45361" width="131.954" height="131.954" rx="14.5" fill="white"/>
<rect x="1.40723" y="1.45361" width="131.954" height="131.954" rx="14.5" fill="#F5F7FB"/>
<rect x="1.40723" y="1.45361" width="131.954" height="131.954" rx="14.5" stroke="#DBE2F0"/>
<path d="M36.9807 39.4574C36.6829 39.4536 36.3879 39.515 36.1164 39.6373C35.8449 39.7596 35.6035 39.9398 35.409 40.1654C35.2146 40.3909 35.0719 40.6563 34.9909 40.9429C34.91 41.2295 34.8927 41.5303 34.9404 41.8242L43.6016 94.4034C43.7095 95.0468 44.0406 95.6316 44.5369 96.0552C45.0332 96.4787 45.6628 96.7138 46.3152 96.7192H87.8664C88.3555 96.7255 88.8305 96.5559 89.205 96.2413C89.5795 95.9267 89.8285 95.4881 89.9067 95.0053L98.5679 41.8344C98.6156 41.5405 98.5983 41.2397 98.5174 40.9531C98.4364 40.6665 98.2937 40.4011 98.0993 40.1756C97.9048 39.95 97.6634 39.7698 97.3919 39.6475C97.1203 39.5252 96.8254 39.4638 96.5276 39.4676L36.9807 39.4574ZM73.4515 77.4585H60.1894L56.5984 58.6977H76.665L73.4515 77.4585Z" fill="#2684FF"/>
<path d="M95.8134 58.6979H76.6649L73.4514 77.4587H60.1893L44.5298 96.046C45.0261 96.4752 45.6589 96.7139 46.3151 96.7193H87.8765C88.3655 96.7256 88.8406 96.556 89.2151 96.2415C89.5896 95.9269 89.8386 95.4882 89.9168 95.0055L95.8134 58.6979Z" fill="url(#paint0_linear_11784_5544)"/>
<defs>
<linearGradient id="paint0_linear_11784_5544" x1="100.241" y1="63.9517" x2="68.5954" y2="88.6498" gradientUnits="userSpaceOnUse">
<stop offset="0.18" stop-color="#0052CC"/>
<stop offset="1" stop-color="#2684FF"/>
</linearGradient>
</defs>
</svg>
