<svg width="134" height="133" viewBox="0 0 134 133" fill="none" xmlns="http://www.w3.org/2000/svg">
<rect x="0.907227" width="132.954" height="132.954" rx="15" fill="#503766"/>
<path d="M36.9807 38.5038C36.6829 38.5 36.3879 38.5614 36.1164 38.6837C35.8449 38.806 35.6035 38.9862 35.409 39.2118C35.2146 39.4373 35.0719 39.7027 34.9909 39.9893C34.91 40.2758 34.8927 40.5767 34.9404 40.8706L43.6016 93.4498C43.7095 94.0932 44.0406 94.678 44.5369 95.1015C45.0332 95.525 45.6628 95.7602 46.3152 95.7656H87.8664C88.3555 95.7719 88.8305 95.6023 89.205 95.2877C89.5795 94.9731 89.8285 94.5345 89.9067 94.0517L98.5679 40.8808C98.6156 40.5869 98.5983 40.286 98.5174 39.9995C98.4364 39.7129 98.2937 39.4475 98.0993 39.222C97.9048 38.9964 97.6634 38.8162 97.3919 38.6939C97.1203 38.5716 96.8254 38.5102 96.5276 38.514L36.9807 38.5038ZM73.4515 76.5049H60.1894L56.5984 57.7441H76.665L73.4515 76.5049Z" fill="#2684FF"/>
<path d="M95.8134 57.7443H76.6649L73.4514 76.505H60.1893L44.5298 95.0924C45.0261 95.5216 45.6589 95.7602 46.3151 95.7657H87.8765C88.3655 95.772 88.8406 95.6024 89.2151 95.2878C89.5896 94.9733 89.8386 94.5346 89.9168 94.0518L95.8134 57.7443Z" fill="url(#paint0_linear_11784_5530)"/>
<defs>
<linearGradient id="paint0_linear_11784_5530" x1="100.241" y1="62.9981" x2="68.5954" y2="87.6962" gradientUnits="userSpaceOnUse">
<stop offset="0.18" stop-color="#0052CC"/>
<stop offset="1" stop-color="#2684FF"/>
</linearGradient>
</defs>
</svg>
