<svg width="134" height="134" viewBox="0 0 134 134" fill="none" xmlns="http://www.w3.org/2000/svg">
<rect x="1.22217" y="1.45361" width="131.954" height="131.954" rx="14.5" fill="white"/>
<rect x="1.22217" y="1.45361" width="131.954" height="131.954" rx="14.5" fill="#F5F7FB"/>
<rect x="1.22217" y="1.45361" width="131.954" height="131.954" rx="14.5" stroke="#DBE2F0"/>
<path d="M81.2241 29.9136H34.2397C30.9962 29.9136 28.3667 32.543 28.3667 35.7866V82.771C28.3667 86.0146 30.9962 88.6441 34.2397 88.6441H81.2241C84.4677 88.6441 87.0972 86.0146 87.0972 82.771V35.7866C87.0972 32.543 84.4677 29.9136 81.2241 29.9136Z" fill="#FFAAAA"/>
<path d="M98.8433 47.5327H51.8589C48.6153 47.5327 45.9858 50.1622 45.9858 53.4058V100.39C45.9858 103.634 48.6153 106.263 51.8589 106.263H98.8433C102.087 106.263 104.716 103.634 104.716 100.39V53.4058C104.716 50.1622 102.087 47.5327 98.8433 47.5327Z" fill="#AAFFAA"/>
<path d="M54.7954 62.2153H72.4146V68.0884H54.7954V62.2153Z" fill="#FF0000"/>
<path d="M78.2876 62.2153H95.9067V68.0884H78.2876V62.2153Z" fill="#FF0000"/>
<path d="M54.7954 82.771H60.6685V76.8979H66.5415V82.771H72.4146V88.644H66.5415V94.5171H60.6685V88.644H54.7954V82.771Z" fill="#008000"/>
<path d="M78.2876 82.771H84.1606V76.8979H90.0337V82.771H95.9067V88.644H90.0337V94.5171H84.1606V88.644H78.2876V82.771Z" fill="#008000"/>
</svg>
