<svg width="134" height="133" viewBox="0 0 134 133" fill="none" xmlns="http://www.w3.org/2000/svg">
<rect x="0.722168" width="132.954" height="132.954" rx="15" fill="#503766"/>
<path d="M81.2241 28.96H34.2397C30.9962 28.96 28.3667 31.5894 28.3667 34.833V81.8174C28.3667 85.061 30.9962 87.6904 34.2397 87.6904H81.2241C84.4677 87.6904 87.0972 85.061 87.0972 81.8174V34.833C87.0972 31.5894 84.4677 28.96 81.2241 28.96Z" fill="#FFAAAA"/>
<path d="M98.8433 46.5791H51.8589C48.6153 46.5791 45.9858 49.2086 45.9858 52.4522V99.4365C45.9858 102.68 48.6153 105.31 51.8589 105.31H98.8433C102.087 105.31 104.716 102.68 104.716 99.4365V52.4522C104.716 49.2086 102.087 46.5791 98.8433 46.5791Z" fill="#AAFFAA"/>
<path d="M54.7954 61.2617H72.4146V67.1348H54.7954V61.2617Z" fill="#FF0000"/>
<path d="M78.2876 61.2617H95.9067V67.1348H78.2876V61.2617Z" fill="#FF0000"/>
<path d="M54.7954 81.8174H60.6685V75.9443H66.5415V81.8174H72.4146V87.6904H66.5415V93.5635H60.6685V87.6904H54.7954V81.8174Z" fill="#008000"/>
<path d="M78.2876 81.8174H84.1606V75.9443H90.0337V81.8174H95.9067V87.6904H90.0337V93.5635H84.1606V87.6904H78.2876V81.8174Z" fill="#008000"/>
</svg>
