<svg width="133" height="134" viewBox="0 0 133 134" fill="none" xmlns="http://www.w3.org/2000/svg">
<rect x="0.5" y="1.45361" width="131.954" height="131.954" rx="14.5" fill="#F5F7FB" stroke="#DBE2F0"/>
<g clip-path="url(#clip0_11784_5542)">
<path fill-rule="evenodd" clip-rule="evenodd" d="M65.82 31.5042C56.7574 31.5089 47.9919 34.7187 41.091 40.5596C34.1901 46.4006 29.6037 54.4918 28.1519 63.3865C26.7001 72.2812 28.4776 81.3993 33.1665 89.1105C37.8555 96.8217 45.1501 102.623 53.7461 105.477C55.6425 105.829 56.3569 104.654 56.3569 103.655C56.3569 102.655 56.3189 99.7576 56.3063 96.5897C45.6864 98.8839 43.4423 92.1082 43.4423 92.1082C41.7102 87.7084 39.207 86.5519 39.207 86.5519C35.7428 84.2012 39.4662 84.2452 39.4662 84.2452C43.3032 84.5154 45.3198 88.161 45.3198 88.161C48.7207 93.9624 54.2518 92.2842 56.4264 91.3037C56.7677 88.8461 57.7602 87.1742 58.8538 86.2251C50.3705 85.2697 41.4574 82.0138 41.4574 67.4694C41.4048 63.6973 42.8125 60.0495 45.3893 57.2807C44.9974 56.3253 43.6888 52.466 45.7622 47.224C45.7622 47.224 48.9672 46.2058 56.2621 51.1147C62.5191 49.4133 69.1208 49.4133 75.3779 51.1147C82.6665 46.2058 85.8651 47.224 85.8651 47.224C87.9448 52.4535 86.6363 56.3127 86.2444 57.2807C88.8293 60.05 90.24 63.7041 90.1826 67.4819C90.1826 82.0578 81.2505 85.2697 72.7545 86.2062C74.1199 87.3879 75.34 89.6946 75.34 93.2396C75.34 98.3182 75.2957 102.404 75.2957 103.655C75.2957 104.667 75.9847 105.848 77.9191 105.477C86.5161 102.623 93.8115 96.8203 98.5003 89.1078C103.189 81.3953 104.966 72.2758 103.512 63.3803C102.059 54.4848 97.4702 46.3935 90.567 40.5535C83.6638 34.7136 74.8963 31.5059 65.8326 31.5042H65.82Z" fill="#191717"/>
<path d="M42.1016 86.0052C42.0194 86.1937 41.716 86.2503 41.4694 86.1183C41.2229 85.9863 41.0396 85.7412 41.1281 85.5463C41.2166 85.3515 41.5137 85.3012 41.7602 85.4332C42.0067 85.5652 42.1964 85.8166 42.1016 86.0052Z" fill="#191717"/>
<path d="M43.6501 87.7211C43.5191 87.7866 43.3694 87.8049 43.2264 87.7728C43.0834 87.7407 42.9561 87.6602 42.8662 87.5451C42.6197 87.2811 42.5691 86.9165 42.7587 86.7531C42.9484 86.5897 43.2897 86.6651 43.5363 86.9291C43.7828 87.1931 43.8397 87.5576 43.6501 87.7211Z" fill="#191717"/>
<path d="M45.1548 89.9021C44.9209 90.0655 44.5226 89.9021 44.3014 89.5753C44.2402 89.5166 44.1915 89.4463 44.1583 89.3686C44.1251 89.2908 44.1079 89.2072 44.1079 89.1227C44.1079 89.0382 44.1251 88.9546 44.1583 88.8768C44.1915 88.7991 44.2402 88.7288 44.3014 88.6702C44.5353 88.513 44.9335 88.6702 45.1548 88.9907C45.376 89.3113 45.3823 89.7387 45.1548 89.9021V89.9021Z" fill="#191717"/>
<path d="M47.1963 92.014C46.9877 92.2465 46.5642 92.1837 46.2165 91.8694C45.8689 91.5551 45.7867 91.1277 45.9953 90.9014C46.2039 90.6752 46.6274 90.738 46.9877 91.046C47.348 91.354 47.4176 91.7877 47.1963 92.014V92.014Z" fill="#191717"/>
<path d="M50.0603 93.2459C49.9655 93.5413 49.5356 93.6733 49.1058 93.5476C48.6759 93.4219 48.3914 93.0699 48.4736 92.7682C48.5558 92.4665 48.992 92.3282 49.4281 92.4665C49.8643 92.6048 50.1425 92.9379 50.0603 93.2459Z" fill="#191717"/>
<path d="M53.1831 93.4596C53.1831 93.7676 52.8291 94.0316 52.374 94.0379C51.9189 94.0442 51.5459 93.7927 51.5459 93.4847C51.5459 93.1768 51.8999 92.9128 52.355 92.9065C52.8102 92.9002 53.1831 93.1453 53.1831 93.4596Z" fill="#191717"/>
<path d="M56.091 92.9757C56.1479 93.2836 55.8318 93.6042 55.3767 93.6796C54.9215 93.7551 54.5233 93.5728 54.4664 93.2711C54.4095 92.9694 54.7382 92.6425 55.1807 92.5608C55.6232 92.4791 56.0341 92.6677 56.091 92.9757Z" fill="#191717"/>
</g>
<defs>
<clipPath id="clip0_11784_5542">
<rect x="27.6445" y="29.9136" width="76.3496" height="76.3496" rx="15" fill="white"/>
</clipPath>
</defs>
</svg>
