<svg width="133" height="133" viewBox="0 0 133 133" fill="none" xmlns="http://www.w3.org/2000/svg">
<rect width="132.954" height="132.954" rx="15" fill="#503766"/>
<g clip-path="url(#clip0_11784_5528)">
<path fill-rule="evenodd" clip-rule="evenodd" d="M65.82 30.5505C56.7574 30.5552 47.9919 33.765 41.091 39.606C34.1901 45.4469 29.6037 53.5382 28.1519 62.4329C26.7001 71.3276 28.4776 80.4457 33.1665 88.1569C37.8555 95.8681 45.1501 101.669 53.7461 104.524C55.6425 104.876 56.3569 103.7 56.3569 102.701C56.3569 101.702 56.3189 98.804 56.3063 95.6361C45.6864 97.9303 43.4423 91.1546 43.4423 91.1546C41.7102 86.7548 39.207 85.5983 39.207 85.5983C35.7428 83.2475 39.4662 83.2915 39.4662 83.2915C43.3032 83.5618 45.3198 87.2074 45.3198 87.2074C48.7207 93.0088 54.2518 91.3306 56.4264 90.3501C56.7677 87.8925 57.7602 86.2206 58.8538 85.2715C50.3705 84.3161 41.4574 81.0602 41.4574 66.5157C41.4048 62.7437 42.8125 59.0959 45.3893 56.3271C44.9974 55.3717 43.6888 51.5124 45.7622 46.2704C45.7622 46.2704 48.9672 45.2522 56.2621 50.1611C62.5191 48.4597 69.1208 48.4597 75.3779 50.1611C82.6665 45.2522 85.8651 46.2704 85.8651 46.2704C87.9448 51.4999 86.6363 55.3591 86.2444 56.3271C88.8293 59.0964 90.24 62.7505 90.1826 66.5283C90.1826 81.1042 81.2505 84.3161 72.7545 85.2526C74.1199 86.4343 75.34 88.741 75.34 92.286C75.34 97.3646 75.2957 101.45 75.2957 102.701C75.2957 103.713 75.9847 104.895 77.9191 104.524C86.5161 101.669 93.8115 95.8667 98.5003 88.1542C103.189 80.4417 104.966 71.3222 103.512 62.4267C102.059 53.5312 97.4702 45.4398 90.567 39.5999C83.6638 33.7599 74.8963 30.5523 65.8326 30.5505H65.82Z" fill="white"/>
<path d="M42.1016 85.0516C42.0194 85.2401 41.716 85.2967 41.4694 85.1647C41.2229 85.0327 41.0396 84.7876 41.1281 84.5927C41.2166 84.3979 41.5137 84.3476 41.7602 84.4796C42.0067 84.6116 42.1964 84.863 42.1016 85.0516Z" fill="white"/>
<path d="M43.6501 86.7674C43.5191 86.833 43.3694 86.8513 43.2264 86.8192C43.0834 86.7871 42.9561 86.7066 42.8662 86.5914C42.6197 86.3275 42.5691 85.9629 42.7587 85.7995C42.9484 85.6361 43.2897 85.7115 43.5363 85.9755C43.7828 86.2395 43.8397 86.604 43.6501 86.7674Z" fill="white"/>
<path d="M45.1548 88.9485C44.9209 89.1119 44.5226 88.9485 44.3014 88.6217C44.2402 88.563 44.1915 88.4927 44.1583 88.415C44.1251 88.3372 44.1079 88.2536 44.1079 88.1691C44.1079 88.0846 44.1251 88.001 44.1583 87.9232C44.1915 87.8455 44.2402 87.7752 44.3014 87.7166C44.5353 87.5594 44.9335 87.7166 45.1548 88.0371C45.376 88.3577 45.3823 88.7851 45.1548 88.9485V88.9485Z" fill="white"/>
<path d="M47.1963 91.0603C46.9877 91.2929 46.5642 91.2301 46.2165 90.9158C45.8689 90.6015 45.7867 90.1741 45.9953 89.9478C46.2039 89.7216 46.6274 89.7844 46.9877 90.0924C47.348 90.4004 47.4176 90.8341 47.1963 91.0603V91.0603Z" fill="white"/>
<path d="M50.0603 92.2923C49.9655 92.5877 49.5356 92.7197 49.1058 92.594C48.6759 92.4683 48.3914 92.1163 48.4736 91.8146C48.5558 91.5129 48.992 91.3746 49.4281 91.5129C49.8643 91.6512 50.1425 91.9843 50.0603 92.2923Z" fill="white"/>
<path d="M53.1831 92.506C53.1831 92.814 52.8291 93.078 52.374 93.0843C51.9189 93.0905 51.5459 92.8391 51.5459 92.5311C51.5459 92.2231 51.8999 91.9592 52.355 91.9529C52.8102 91.9466 53.1831 92.1917 53.1831 92.506Z" fill="white"/>
<path d="M56.091 92.022C56.1479 92.33 55.8318 92.6506 55.3767 92.726C54.9215 92.8014 54.5233 92.6192 54.4664 92.3175C54.4095 92.0158 54.7382 91.6889 55.1807 91.6072C55.6232 91.5255 56.0341 91.7141 56.091 92.022Z" fill="white"/>
</g>
<defs>
<clipPath id="clip0_11784_5528">
<rect x="27.6445" y="28.96" width="76.3496" height="76.3496" rx="15" fill="white"/>
</clipPath>
</defs>
</svg>
