<svg width="134" height="133" viewBox="0 0 134 133" fill="none" xmlns="http://www.w3.org/2000/svg">
<rect x="0.953613" width="132.954" height="132.954" rx="15" fill="#503766"/>
<path d="M103.674 59.1807L103.571 58.8957L93.1802 30.7484C92.9699 30.1957 92.5956 29.7268 92.1117 29.4097C91.7505 29.1697 91.3403 29.0208 90.9138 28.975C90.4873 28.9293 90.0564 28.988 89.6557 29.1463C89.2549 29.3046 88.8955 29.5583 88.6061 29.8869C88.3168 30.2155 88.1056 30.6099 87.9895 31.0385L80.9754 53.3375H52.5711L45.557 31.0385C45.44 30.6105 45.2283 30.2168 44.9388 29.8889C44.6493 29.5609 44.2901 29.3077 43.8896 29.1495C43.4892 28.9913 43.0588 28.9324 42.6325 28.9776C42.2063 29.0228 41.7962 29.1708 41.4348 29.4097C40.9508 29.7268 40.5766 30.1957 40.3663 30.7484L29.9799 58.9008L29.8721 59.1807C28.3768 63.2389 28.1926 67.692 29.3472 71.8685C30.5019 76.0449 32.9328 79.7183 36.2735 82.3348L36.3127 82.3653L36.4009 82.4366L52.2084 94.739L60.0508 100.893L64.8151 104.634C65.3741 105.072 66.0555 105.31 66.7561 105.31C67.4566 105.31 68.1381 105.072 68.6971 104.634L73.4614 100.893L81.3038 94.739L97.2239 82.3653L97.2681 82.3297C100.609 79.7142 103.04 76.042 104.195 71.8666C105.351 67.6912 105.168 63.2388 103.674 59.1807V59.1807Z" fill="#E24329"/>
<path d="M103.674 59.1808L103.571 58.8958C98.5083 59.9746 93.7379 62.2029 89.6018 65.421L66.7852 83.3376L81.3133 94.739L97.2334 82.3654L97.2775 82.3298C100.616 79.713 103.046 76.0401 104.199 71.8648C105.353 67.6895 105.169 63.2378 103.674 59.1808V59.1808Z" fill="#FC6D26"/>
<path d="M52.2085 94.7391L60.0509 100.893L64.8152 104.634C65.3742 105.072 66.0557 105.31 66.7562 105.31C67.4568 105.31 68.1382 105.072 68.6972 104.634L73.4615 100.893L81.3039 94.7391L66.7758 83.3376L52.2085 94.7391Z" fill="#FCA326"/>
<path d="M43.9444 65.4208C39.8097 62.2043 35.0409 59.9777 29.9799 58.9006L29.8721 59.1806C28.3768 63.2388 28.1926 67.6919 29.3472 71.8683C30.5019 76.0448 32.9328 79.7182 36.2735 82.3347L36.3127 82.3652L36.4009 82.4365L52.2084 94.7388L66.7463 83.3374L43.9444 65.4208Z" fill="#FC6D26"/>
</svg>
