<svg width="134" height="134" viewBox="0 0 134 134" fill="none" xmlns="http://www.w3.org/2000/svg">
<rect x="1.45361" y="1.45361" width="131.954" height="131.954" rx="14.5" fill="white"/>
<rect x="1.45361" y="1.45361" width="131.954" height="131.954" rx="14.5" fill="#F5F7FB"/>
<rect x="1.45361" y="1.45361" width="131.954" height="131.954" rx="14.5" stroke="#DBE2F0"/>
<path d="M103.674 60.1343L103.571 59.8493L93.1802 31.702C92.9699 31.1493 92.5956 30.6805 92.1117 30.3633C91.7505 30.1233 91.3403 29.9744 90.9138 29.9287C90.4873 29.8829 90.0564 29.9416 89.6557 30.0999C89.2549 30.2583 88.8955 30.5119 88.6061 30.8405C88.3168 31.1691 88.1056 31.5635 87.9895 31.9921L80.9754 54.2911H52.5711L45.557 31.9921C45.44 31.5641 45.2283 31.1705 44.9388 30.8425C44.6493 30.5145 44.2901 30.2613 43.8896 30.1031C43.4892 29.9449 43.0588 29.886 42.6325 29.9312C42.2063 29.9764 41.7962 30.1244 41.4348 30.3633C40.9508 30.6805 40.5766 31.1493 40.3663 31.702L29.9799 59.8544L29.8721 60.1343C28.3768 64.1926 28.1926 68.6456 29.3472 72.8221C30.5019 76.9985 32.9328 80.672 36.2735 83.2884L36.3127 83.319L36.4009 83.3902L52.2084 95.6926L60.0508 101.846L64.8151 105.587C65.3741 106.026 66.0555 106.263 66.7561 106.263C67.4566 106.263 68.1381 106.026 68.6971 105.587L73.4614 101.846L81.3038 95.6926L97.2239 83.319L97.2681 83.2833C100.609 80.6678 103.04 76.9956 104.195 72.8202C105.351 68.6448 105.168 64.1924 103.674 60.1343V60.1343Z" fill="#E24329"/>
<path d="M103.674 60.1344L103.571 59.8494C98.5083 60.9282 93.7379 63.1565 89.6018 66.3747L66.7852 84.2912L81.3133 95.6927L97.2334 83.319L97.2775 83.2834C100.616 80.6666 103.046 76.9937 104.199 72.8184C105.353 68.6431 105.169 64.1915 103.674 60.1344V60.1344Z" fill="#FC6D26"/>
<path d="M52.2085 95.6927L60.0509 101.846L64.8152 105.588C65.3742 106.026 66.0557 106.263 66.7562 106.263C67.4568 106.263 68.1382 106.026 68.6972 105.588L73.4615 101.846L81.3039 95.6927L66.7758 84.2913L52.2085 95.6927Z" fill="#FCA326"/>
<path d="M43.9444 66.3744C39.8097 63.1579 35.0409 60.9313 29.9799 59.8542L29.8721 60.1342C28.3768 64.1924 28.1926 68.6455 29.3472 72.8219C30.5019 76.9984 32.9328 80.6718 36.2735 83.2883L36.3127 83.3188L36.4009 83.3901L52.2084 95.6924L66.7463 84.291L43.9444 66.3744Z" fill="#FC6D26"/>
</svg>
