<svg width="136" height="123" viewBox="0 0 136 123" fill="none" xmlns="http://www.w3.org/2000/svg">
<rect x="0.59375" y="0.5" width="133.954" height="131" rx="15.5" fill="white"/>
<rect x="0.59375" y="0.5" width="133.954" height="131" rx="15.5" fill="#F5F7FB"/>
<rect x="0.59375" y="0.5" width="133.954" height="131" rx="15.5" stroke="#DBE2F0"/>
<g clip-path="url(#clip0_14869_37077)">
<path d="M86.7204 96.539L100.887 96.5371C103.571 96.5371 105.745 94.4101 105.745 91.7864V78.3644C105.745 76.9779 105.126 75.6599 104.049 74.7573L58.5239 36.6025C57.643 35.8648 56.5214 35.459 55.3616 35.459H41.1946C38.5112 35.459 36.3359 37.5859 36.3359 40.2097V53.6337C36.3359 55.0203 36.9558 56.3382 38.0323 57.2409L83.5568 95.3949C84.4375 96.1332 85.5599 96.539 86.7204 96.539Z" fill="#00D886"/>
<path d="M88.4241 96.5406H100.886C103.57 96.5406 105.745 94.4137 105.745 91.79V76.5178C105.745 76.2933 105.728 76.0686 105.696 75.846L99.4005 32.7526C99.0589 30.4126 97.0086 28.6738 94.5911 28.6738H75.8937C73.2097 28.6738 71.0344 30.8015 71.0352 33.4259L71.0408 55.0503C71.0408 55.5606 71.1247 56.0676 71.2899 56.5514L83.8154 93.2925C84.4769 95.2322 86.3329 96.5406 88.4241 96.5406Z" fill="url(#paint0_linear_14869_37077)"/>
<path d="M34.2531 103.327H74.776C76.7195 103.327 78.4763 102.195 79.2418 100.448L98.4104 56.7171C98.6693 56.1259 98.8033 55.4887 98.8033 54.8454V33.4245C98.8033 30.8008 96.628 28.6738 93.9447 28.6738H72.5119C71.5521 28.6738 70.6137 28.9521 69.8147 29.4733L31.558 54.4387C30.2073 55.3203 29.3966 56.8026 29.3966 58.39L29.3945 98.5767C29.3945 101.2 31.5698 103.327 34.2531 103.327Z" fill="url(#paint1_linear_14869_37077)"/>
<path d="M91.4295 42.6719H43.7109V89.3303H91.4295V42.6719Z" fill="black"/>
<path d="M52.9739 65.5628C54.3745 66.3519 55.9381 66.7473 57.6644 66.7473C59.3225 66.7473 60.8171 66.3863 62.1486 65.6634C63.4885 64.9405 64.5405 63.9544 65.3053 62.7024C66.0785 61.4429 66.465 60.0362 66.465 58.4818V57.0962H58.8241V59.8048H63.0185C62.9324 60.4586 62.6892 61.055 62.2901 61.594C61.8179 62.2319 61.178 62.7327 60.3704 63.0932C59.571 63.4543 58.6778 63.6351 57.6899 63.6351C56.6249 63.6351 55.6633 63.3753 54.8038 62.8542C53.9444 62.3331 53.27 61.6197 52.7807 60.7125C52.2994 59.798 52.0593 58.7681 52.0593 57.626C52.0593 56.484 52.2994 55.4587 52.7807 54.5515C53.2707 53.6363 53.9451 52.9181 54.8038 52.3971C55.6626 51.876 56.6249 51.6161 57.6899 51.6161C58.412 51.6161 59.0864 51.7295 59.7132 51.9563C60.3407 52.175 60.886 52.4902 61.3499 52.9012C61.8221 53.3042 62.1962 53.7834 62.471 54.3376H66.2338C65.9073 53.1868 65.3356 52.1709 64.5198 51.2888C63.7121 50.4066 62.7153 49.7216 61.5301 49.2349C60.3531 48.7483 59.0644 48.5039 57.6644 48.5039C55.9374 48.5039 54.3739 48.9021 52.9739 49.7006C51.5733 50.4897 50.4736 51.5824 49.675 52.9762C48.8763 54.3619 48.4766 55.9116 48.4766 57.6253C48.4766 59.339 48.8763 60.8935 49.675 62.2873C50.4743 63.6729 51.574 64.7644 52.9739 65.5628Z" fill="white"/>
<path fill-rule="evenodd" clip-rule="evenodd" d="M72.5605 65.5628C73.9694 66.3519 75.5371 66.7473 77.2634 66.7473C78.9981 66.7473 80.5665 66.3519 81.9665 65.5628C83.3753 64.7644 84.4791 63.6729 85.2778 62.2873C86.0765 60.8935 86.4761 59.339 86.4761 57.6253C86.4761 55.9116 86.0765 54.3619 85.2778 52.9762C84.4791 51.5824 83.3753 50.4897 81.9665 49.7006C80.5665 48.9021 78.9899 48.5039 77.2634 48.5039C75.5371 48.5039 73.9694 48.9021 72.5605 49.7006C71.1606 50.4897 70.0568 51.5824 69.2491 52.9762C68.4504 54.3619 68.0508 55.9116 68.0508 57.6253C68.0508 59.339 68.4504 60.8935 69.2491 62.2873C70.0562 63.6729 71.1606 64.7644 72.5605 65.5628ZM80.1503 62.9426C79.2998 63.4638 78.3418 63.7235 77.2766 63.7235C76.2115 63.7235 75.2492 63.4638 74.3904 62.9426C73.5401 62.4135 72.8698 61.6879 72.3803 60.7632C71.8992 59.8311 71.659 58.7849 71.659 57.626C71.659 56.4671 71.8992 55.4263 72.3803 54.5016C72.8698 53.5695 73.5401 52.8433 74.3904 52.3222C75.2492 51.793 76.2115 51.5284 77.2766 51.5284C78.3418 51.5284 79.2998 51.793 80.1503 52.3222C81.0008 52.8433 81.6662 53.5695 82.1473 54.5016C82.6284 55.4256 82.8687 56.4671 82.8687 57.626C82.8687 58.7849 82.6284 59.8311 82.1473 60.7632C81.6662 61.6872 81.0008 62.4135 80.1503 62.9426Z" fill="white"/>
<path d="M49.668 79.998H68.7554V83.4974H49.668V79.998Z" fill="white"/>
</g>
<defs>
<linearGradient id="paint0_linear_14869_37077" x1="105.31" y1="91.7153" x2="77.3579" y2="30.0561" gradientUnits="userSpaceOnUse">
<stop offset="0.24" stop-color="#00D886"/>
<stop offset="0.51" stop-color="#007DFE"/>
</linearGradient>
<linearGradient id="paint1_linear_14869_37077" x1="100.232" y1="33.7835" x2="31.7721" y2="103.799" gradientUnits="userSpaceOnUse">
<stop offset="0.27" stop-color="#007DFE"/>
<stop offset="0.7" stop-color="#D249FC"/>
</linearGradient>
<clipPath id="clip0_14869_37077">
<rect x="29.3945" y="28.6738" width="76.3496" height="74.6535" rx="15" fill="white"/>
</clipPath>
</defs>
</svg>
