<svg width="136" height="132" viewBox="0 0 136 132" fill="none" xmlns="http://www.w3.org/2000/svg">
<rect x="0.59375" y="0.5" width="133.954" height="131" rx="15.5" fill="white"/>
<rect x="0.59375" y="0.5" width="133.954" height="131" rx="15.5" fill="#F5F7FB"/>
<rect x="0.59375" y="0.5" width="133.954" height="131" rx="15.5" stroke="#DBE2F0"/>
<g clip-path="url(#clip0_14869_37075)">
<path d="M48.4194 36.2422L34.2525 36.2443C31.5691 36.2443 29.3945 38.4195 29.3945 41.1029V54.8299C29.3945 56.2479 30.0144 57.5957 31.0909 58.519L76.6153 97.5406C77.4962 98.295 78.6179 98.71 79.7777 98.71H93.9447C96.628 98.71 98.8033 96.5348 98.8033 93.8514V80.1225C98.8033 78.7044 98.1835 77.3565 97.107 76.4333L51.5825 37.4124C50.7017 36.6572 49.5799 36.2422 48.4194 36.2422Z" fill="#FF8100"/>
<path d="M46.7155 36.2422H34.2531C31.5698 36.2422 29.3945 38.4174 29.3945 41.1008V56.7199C29.3945 56.9496 29.4112 57.1794 29.4431 57.407L35.7385 101.479C36.0807 103.873 38.1303 105.651 40.5485 105.651H59.2458C61.9299 105.651 64.1051 103.475 64.1045 100.791L64.0989 78.6753C64.0989 78.1532 64.0149 77.6348 63.8497 77.1399L51.3242 39.5641C50.6628 37.5804 48.8068 36.2422 46.7155 36.2422Z" fill="url(#paint0_linear_14869_37075)"/>
<path d="M100.886 29.3027H60.3632C58.4198 29.3027 56.663 30.4612 55.8974 32.2471L36.7288 76.972C36.4699 77.5766 36.3359 78.2283 36.3359 78.8862V100.794C36.3359 103.477 38.5112 105.652 41.1946 105.652H62.6273C63.5872 105.652 64.5256 105.368 65.3245 104.835L103.581 79.3014C104.932 78.4004 105.743 76.8838 105.743 75.2603L105.745 34.1614C105.745 31.478 103.569 29.3027 100.886 29.3027Z" fill="url(#paint1_linear_14869_37075)"/>
<path d="M91.4295 43.6191H43.7109V91.3377H91.4295V43.6191Z" fill="black"/>
<path d="M49.6758 64.3595H53.2294V52.7029H49.6758V49.584H60.2204V52.7029H56.6668V64.3595H60.2204V67.4784H49.6758V64.3595Z" fill="white"/>
<path d="M62.0078 64.2577H64.5772C65.0966 64.2577 65.5594 64.147 65.964 63.9255C66.3687 63.704 66.6817 63.391 66.9031 62.9863C67.1247 62.5817 67.2354 62.1196 67.2354 61.5995V49.584H70.7247V61.8414C70.7247 62.9152 70.4773 63.8805 69.9831 64.7369C69.4889 65.5933 68.8075 66.2645 67.938 66.7498C67.0686 67.2358 66.0932 67.4784 65.0112 67.4784H62.0078V64.2577Z" fill="white"/>
<path d="M49.6758 81.793H68.7632V85.3719H49.6758V81.793Z" fill="white"/>
</g>
<defs>
<linearGradient id="paint0_linear_14869_37075" x1="28.5387" y1="38.3932" x2="58.1992" y2="102.367" gradientUnits="userSpaceOnUse">
<stop offset="0.1" stop-color="#FC801D"/>
<stop offset="0.59" stop-color="#FE2857"/>
</linearGradient>
<linearGradient id="paint1_linear_14869_37075" x1="34.4321" y1="100.903" x2="104.465" y2="30.8693" gradientUnits="userSpaceOnUse">
<stop offset="0.21" stop-color="#FE2857"/>
<stop offset="0.7" stop-color="#007EFF"/>
</linearGradient>
<clipPath id="clip0_14869_37075">
<rect x="29.3945" y="29.3027" width="76.3496" height="76.3496" rx="15" fill="white"/>
</clipPath>
</defs>
</svg>
