<svg width="136" height="136" viewBox="0 0 136 136" fill="none" xmlns="http://www.w3.org/2000/svg">
<rect x="0.81543" y="1.45361" width="133.954" height="133.954" rx="15.5" fill="white"/>
<rect x="0.81543" y="1.45361" width="133.954" height="133.954" rx="15.5" fill="#F5F7FB"/>
<rect x="0.81543" y="1.45361" width="133.954" height="133.954" rx="15.5" stroke="#DBE2F0"/>
<g clip-path="url(#clip0_11784_5553)">
<path fill-rule="evenodd" clip-rule="evenodd" d="M28.9717 47.4888L48.6902 31.2086V106.906L28.9717 90.8137V47.4888Z" fill="url(#paint0_linear_11784_5553)"/>
<path fill-rule="evenodd" clip-rule="evenodd" d="M105.163 47.6425L85.1742 31.2174L85.5794 106.906L105.298 90.8137L105.163 47.6425Z" fill="url(#paint1_linear_11784_5553)"/>
<path fill-rule="evenodd" clip-rule="evenodd" d="M48.6768 31.2216L99.9428 95.1947L85.597 106.926L34.3042 43.0942L48.6768 31.2216Z" fill="url(#paint2_linear_11784_5553)"/>
<path fill-rule="evenodd" clip-rule="evenodd" d="M48.6948 60.8941L48.6675 63.4138L32.8389 44.3041L34.3045 43.0831L48.6948 60.8941Z" fill="black" fill-opacity="0.13"/>
</g>
<defs>
<linearGradient id="paint0_linear_11784_5553" x1="1014.9" y1="31.2086" x2="1014.9" y2="7600.93" gradientUnits="userSpaceOnUse">
<stop stop-color="#16B0ED" stop-opacity="0.800236"/>
<stop offset="1" stop-color="#0F59B2" stop-opacity="0.837"/>
</linearGradient>
<linearGradient id="paint1_linear_11784_5553" x1="-900.886" y1="31.2174" x2="-900.886" y2="7600.06" gradientUnits="userSpaceOnUse">
<stop stop-color="#7DB643"/>
<stop offset="1" stop-color="#367533"/>
</linearGradient>
<linearGradient id="paint2_linear_11784_5553" x1="3316.24" y1="31.2216" x2="3316.24" y2="7601.64" gradientUnits="userSpaceOnUse">
<stop stop-color="#88C649" stop-opacity="0.8"/>
<stop offset="1" stop-color="#439240" stop-opacity="0.84"/>
</linearGradient>
<clipPath id="clip0_11784_5553">
<rect x="28.96" y="30.9136" width="76.3496" height="76.3496" rx="15" fill="white"/>
</clipPath>
</defs>
</svg>
