<svg width="130" height="130" viewBox="0 0 130 130" fill="none" xmlns="http://www.w3.org/2000/svg">
<rect x="0.269531" width="129.562" height="129.562" rx="15" fill="#F5F7FB" fill-opacity="0.2"/>
<rect x="0.269531" width="129.562" height="129.562" rx="15" fill="#503766"/>
<path d="M33.9834 109C33.2444 109 33.2444 102.197 33.3183 101.491C33.4661 99.5582 33.7987 97.4766 34.5377 95.6551C35.2768 93.8337 35.905 93.2018 34.8703 91.3432C32.5053 87.1427 32.1358 82.5705 32.764 77.8496C33.0966 75.4334 33.7248 73.1287 34.8333 70.9727C35.2029 70.2293 35.092 69.6345 34.6486 68.8911C31.3228 63.1666 31.2859 57.2562 33.7987 51.2714C34.6855 49.1526 36.0528 47.294 37.7896 45.8071C39.8589 44.06 39.8589 43.9857 39.4525 41.2721C38.7873 36.4769 39.1199 31.756 40.7458 27.221C41.2262 25.8456 41.9653 24.5074 42.8152 23.3179C44.8845 20.4185 48.6537 20.2326 51.1296 22.7975C52.349 24.0613 53.3098 25.5111 53.7902 27.1838C54.3445 29.1911 54.8249 31.2356 55.2683 33.2801C55.527 34.4324 55.6748 34.5811 56.7095 34.0979C58.7788 33.1314 60.8852 32.4251 63.1762 32.0905C66.2064 31.6445 69.0148 32.3507 71.7863 33.3916C72.4145 33.6518 73.0057 33.9863 73.597 34.2837C74.6686 34.767 74.7795 34.6926 74.9273 33.4659C75.149 31.2356 75.7033 29.0796 76.4793 26.9979C77.0706 25.3995 77.9574 23.987 79.103 22.7975C81.5788 20.2326 85.2741 20.4928 87.4543 23.3179C88.9694 25.2508 89.7824 27.5184 90.2997 29.8974C91.2605 34.2465 91.3344 38.5957 90.5953 42.9449C90.4845 43.6883 90.5953 44.0972 91.1127 44.5804C92.0365 45.4726 93.0342 46.3275 93.8472 47.294C97.4686 51.6803 98.5402 56.8101 97.8012 62.3859C97.5055 64.765 96.6187 66.921 95.4362 68.9654C95.0297 69.6345 94.9927 70.155 95.3623 70.8241C97.4316 74.913 98.0229 79.2993 97.6903 83.7972C97.4686 86.7338 96.6556 89.5217 95.0666 92.0123C94.6232 92.7185 94.5123 93.2761 94.9558 94.0196C96.2491 96.1756 96.7665 98.6289 96.9512 101.082C97.136 103.722 97.173 106.398 96.323 108.963H91.5192C91.5931 108.48 91.63 107.959 91.7409 107.513C92.9234 103.313 92.443 99.3352 90.4106 95.5065C90.2997 95.2834 90.1889 95.0604 90.078 94.8374C89.1172 93.3505 89.1911 91.9751 90.2997 90.5997C91.5561 89.0385 92.2582 87.1799 92.6647 85.2097C93.6624 80.4889 92.8495 76.0282 90.5584 71.7905C90.4106 71.5303 90.2258 71.2701 90.078 71.0099C89.5607 69.9319 89.5606 68.9283 90.3736 67.9246C92.5538 65.2482 93.6255 62.1258 93.4038 58.6316C92.9973 52.1636 88.5999 46.7364 82.9461 45.6213C81.8005 45.3982 80.618 45.3611 79.4725 45.4354C78.1422 45.5097 77.3662 45.1752 76.738 43.8742C74.8534 39.8967 71.3798 37.9638 67.315 36.8486C63.0654 35.6963 55.7487 38.7072 53.4946 43.5768C53.3468 43.9113 53.162 44.2459 53.0142 44.5804C52.7186 45.2124 52.2012 45.4726 51.4991 45.4726C51.0187 45.4726 50.5014 45.4726 50.021 45.4354C46.3996 45.2124 43.3325 46.5877 40.9306 49.1526C36.7918 53.539 35.7572 58.7059 37.7157 64.3933C38.1221 65.5828 38.8982 66.6979 39.6742 67.7016C40.7458 69.1141 40.9306 69.8948 40.0437 71.3816C37.9743 74.7272 37.0875 78.4072 37.2353 82.3475C37.3461 85.2469 38.1222 87.9605 39.785 90.3395C39.9328 90.5254 40.0437 90.7484 40.1915 90.9343C41.1153 92.0866 41.1153 93.2761 40.3763 94.54C39.3416 96.3614 38.4178 98.2572 38.1591 100.376C37.8635 102.718 37.7157 105.023 38.4547 107.327C38.6395 107.848 38.6395 108.405 38.7503 108.963C37.1614 108.963 35.5724 108.963 33.9465 108.963L33.9834 109ZM43.8129 37.0716C43.8868 38.1868 43.8868 39.302 44.0346 40.38C44.1455 41.2349 44.3672 41.3464 45.2541 41.2349C46.4735 41.0862 47.656 40.9004 48.8755 40.7517C50.4275 40.603 50.9448 40.1569 50.9818 38.5957C51.0557 35.0643 50.5383 31.6073 49.208 28.299C48.8016 27.3325 48.3951 26.0315 47.3234 25.9943C46.104 25.9943 45.7345 27.3325 45.3649 28.3733C44.3302 31.1612 43.8499 34.0607 43.8499 37.0716H43.8129ZM86.4566 37.2575C86.5305 34.0979 85.7545 30.3063 84.9415 28.3733C84.6459 27.7042 84.3133 27.0351 83.8699 26.4404C83.2786 25.6597 82.7983 25.6226 82.244 26.4032C81.6527 27.1838 81.1723 28.0388 80.8028 28.9681C79.879 31.2728 79.5834 33.7261 79.3247 36.1795C79.2138 37.1088 79.2138 38.0381 79.3247 38.9674C79.4355 40.2313 79.9898 40.6402 81.2093 40.7517C82.5026 40.9004 83.759 41.0862 85.0154 41.2349C85.9023 41.3464 86.124 41.2349 86.2349 40.38C86.3827 39.3391 86.3827 38.2983 86.4566 37.2575Z" fill="white"/>
<path d="M64.5802 79.002C62.8434 79.002 61.1066 78.8161 59.5176 78.3329C57.9286 77.8496 57.5591 77.6266 56.6353 77.1062C53.3465 75.1732 51.5358 72.311 51.7575 68.4079C51.9423 65.5084 53.3465 63.0922 55.5636 61.2708C57.7439 59.4493 60.2567 58.4829 63.0651 58.074C66.4278 57.6279 69.5319 58.1855 72.4881 59.7467C75.3704 61.308 77.3659 63.6126 78.2158 66.8466C79.2135 70.6754 77.4028 74.3554 74.89 76.2141C72.7468 77.8125 70.1231 78.5931 67.4625 78.8161C66.5017 78.8905 65.5409 78.9648 64.5432 78.9276L64.5802 79.002ZM65.0236 75.9538C65.467 75.9538 65.8735 75.9538 66.3169 75.9538C68.7928 75.768 71.1947 75.3591 73.1902 73.7235C75.1118 72.1994 75.9617 69.7089 75.2596 67.4414C74.7792 65.8802 73.9293 64.5419 72.5989 63.5011C69.6797 61.2708 66.3909 60.6017 62.8434 61.1593C60.5892 61.531 58.446 62.4603 56.857 64.2074C53.4573 67.9246 54.2703 72.1994 58.2243 74.4669C60.3306 75.6936 62.6586 75.8423 64.9867 75.9167L65.0236 75.9538Z" fill="white"/>
<path d="M51.2774 61.6053C51.2774 63.5383 49.8363 65.1367 48.0625 65.1738C46.2888 65.1738 45.0693 63.9472 45.0693 62.1629C45.1063 60.1556 46.4735 58.6315 48.2842 58.5944C50.058 58.5944 51.2405 59.7839 51.2405 61.6053H51.2774Z" fill="white"/>
<path d="M78.9922 61.6053C78.9922 59.7838 80.1747 58.5572 81.9484 58.5943C83.7591 58.5943 85.1264 60.1556 85.1633 62.1629C85.2003 63.9471 83.9808 65.1738 82.2071 65.1738C80.4333 65.1738 78.9922 63.5754 78.9922 61.6424V61.6053Z" fill="white"/>
<path d="M64.9134 71.8649C64.0265 71.8649 63.62 71.4932 63.7678 70.601C63.9526 69.5602 63.8417 68.8168 62.9179 68.222C62.4006 67.8875 61.9202 67.367 62.2897 66.6608C62.6592 65.9545 63.3613 65.8058 64.0265 66.1032C64.8025 66.4377 65.4307 66.2519 66.1698 66.0289C66.6871 65.8802 67.3153 65.8802 67.6479 66.4377C68.0174 67.0697 67.8696 67.7016 67.2783 68.0733C66.3915 68.6681 66.1328 69.3372 66.2806 70.4152C66.4284 71.4932 65.985 71.8649 64.8764 71.8277L64.9134 71.8649Z" fill="white"/>
</svg>
