<svg width="130" height="131" viewBox="0 0 130 131" fill="none" xmlns="http://www.w3.org/2000/svg">
<rect x="0.769531" y="1.45361" width="128.562" height="128.562" rx="14.5" fill="#F5F7FB" stroke="#DBE2F0"/>
<path d="M33.9834 109.954C33.2444 109.954 33.2444 103.151 33.3183 102.445C33.4661 100.512 33.7987 98.4302 34.5377 96.6088C35.2768 94.7873 35.905 94.1554 34.8703 92.2968C32.5053 88.0963 32.1358 83.5241 32.764 78.8032C33.0966 76.387 33.7248 74.0824 34.8333 71.9264C35.2029 71.1829 35.092 70.5882 34.6486 69.8447C31.3228 64.1202 31.2859 58.2098 33.7987 52.2251C34.6855 50.1062 36.0528 48.2476 37.7896 46.7607C39.8589 45.0136 39.8589 44.9393 39.4525 42.2257C38.7873 37.4305 39.1199 32.7096 40.7458 28.1746C41.2262 26.7992 41.9653 25.461 42.8152 24.2715C44.8845 21.3721 48.6537 21.1862 51.1296 23.7511C52.349 25.0149 53.3098 26.4647 53.7902 28.1374C54.3445 30.1447 54.8249 32.1892 55.2683 34.2337C55.527 35.386 55.6748 35.5347 56.7095 35.0515C58.7788 34.085 60.8852 33.3787 63.1762 33.0442C66.2064 32.5981 69.0148 33.3044 71.7863 34.3452C72.4145 34.6054 73.0057 34.9399 73.597 35.2373C74.6686 35.7206 74.7795 35.6462 74.9273 34.4195C75.149 32.1892 75.7033 30.0332 76.4793 27.9516C77.0706 26.3531 77.9574 24.9406 79.103 23.7511C81.5788 21.1862 85.2741 21.4464 87.4543 24.2715C88.9694 26.2045 89.7824 28.472 90.2997 30.851C91.2605 35.2001 91.3344 39.5493 90.5953 43.8985C90.4845 44.6419 90.5953 45.0508 91.1127 45.534C92.0365 46.4262 93.0342 47.2811 93.8472 48.2476C97.4686 52.634 98.5402 57.7637 97.8012 63.3396C97.5055 65.7186 96.6187 67.8746 95.4362 69.9191C95.0297 70.5882 94.9927 71.1086 95.3623 71.7777C97.4316 75.8666 98.0229 80.253 97.6903 84.7508C97.4686 87.6874 96.6556 90.4753 95.0666 92.9659C94.6232 93.6721 94.5123 94.2297 94.9558 94.9732C96.2491 97.1292 96.7665 99.5825 96.9512 102.036C97.136 104.675 97.173 107.352 96.323 109.916H91.5192C91.5931 109.433 91.63 108.913 91.7409 108.467C92.9234 104.266 92.443 100.289 90.4106 96.4601C90.2997 96.237 90.1889 96.014 90.078 95.791C89.1172 94.3041 89.1911 92.9287 90.2997 91.5533C91.5561 89.9921 92.2582 88.1335 92.6647 86.1634C93.6624 81.4425 92.8495 76.9818 90.5584 72.7442C90.4106 72.484 90.2258 72.2237 90.078 71.9635C89.5607 70.8855 89.5606 69.8819 90.3736 68.8782C92.5538 66.2018 93.6255 63.0794 93.4038 59.5852C92.9973 53.1172 88.5999 47.69 82.9461 46.5749C81.8005 46.3518 80.618 46.3147 79.4725 46.389C78.1422 46.4634 77.3662 46.1288 76.738 44.8278C74.8534 40.8503 71.3798 38.9174 67.315 37.8022C63.0654 36.6499 55.7487 39.6608 53.4946 44.5304C53.3468 44.8649 53.162 45.1995 53.0142 45.534C52.7186 46.166 52.2012 46.4262 51.4991 46.4262C51.0187 46.4262 50.5014 46.4262 50.021 46.389C46.3996 46.166 43.3325 47.5414 40.9306 50.1062C36.7918 54.4926 35.7572 59.6595 37.7157 65.3469C38.1221 66.5364 38.8982 67.6516 39.6742 68.6552C40.7458 70.0678 40.9306 70.8484 40.0437 72.3353C37.9743 75.6808 37.0875 79.3608 37.2353 83.3011C37.3461 86.2005 38.1222 88.9141 39.785 91.2931C39.9328 91.479 40.0437 91.702 40.1915 91.8879C41.1153 93.0402 41.1153 94.2297 40.3763 95.4936C39.3416 97.315 38.4178 99.2108 38.1591 101.33C37.8635 103.671 37.7157 105.976 38.4547 108.281C38.6395 108.801 38.6395 109.359 38.7503 109.916C37.1614 109.916 35.5724 109.916 33.9465 109.916L33.9834 109.954ZM43.8129 38.0252C43.8868 39.1404 43.8868 40.2556 44.0346 41.3336C44.1455 42.1885 44.3672 42.3001 45.2541 42.1885C46.4735 42.0398 47.656 41.854 48.8755 41.7053C50.4275 41.5566 50.9448 41.1105 50.9818 39.5493C51.0557 36.0179 50.5383 32.5609 49.208 29.2526C48.8016 28.2861 48.3951 26.9851 47.3234 26.9479C46.104 26.9479 45.7345 28.2861 45.3649 29.3269C44.3302 32.1148 43.8499 35.0143 43.8499 38.0252H43.8129ZM86.4566 38.2111C86.5305 35.0515 85.7545 31.2599 84.9415 29.3269C84.6459 28.6578 84.3133 27.9887 83.8699 27.394C83.2786 26.6134 82.7983 26.5762 82.244 27.3568C81.6527 28.1374 81.1723 28.9924 80.8028 29.9217C79.879 32.2264 79.5834 34.6797 79.3247 37.1331C79.2138 38.0624 79.2138 38.9917 79.3247 39.921C79.4355 41.1849 79.9898 41.5938 81.2093 41.7053C82.5026 41.854 83.759 42.0398 85.0154 42.1885C85.9023 42.3001 86.124 42.1885 86.2349 41.3336C86.3827 40.2928 86.3827 39.2519 86.4566 38.2111Z" fill="black"/>
<path d="M64.5802 79.9556C62.8434 79.9556 61.1066 79.7697 59.5176 79.2865C57.9286 78.8032 57.5591 78.5802 56.6353 78.0598C53.3465 76.1268 51.5358 73.2646 51.7575 69.3615C51.9423 66.462 53.3465 64.0458 55.5636 62.2244C57.7439 60.403 60.2567 59.4365 63.0651 59.0276C66.4278 58.5815 69.5319 59.1391 72.4881 60.7003C75.3704 62.2616 77.3659 64.5663 78.2158 67.8002C79.2135 71.629 77.4028 75.3091 74.89 77.1677C72.7468 78.7661 70.1231 79.5467 67.4625 79.7697C66.5017 79.8441 65.5409 79.9184 64.5432 79.8812L64.5802 79.9556ZM65.0236 76.9075C65.467 76.9075 65.8735 76.9075 66.3169 76.9075C68.7928 76.7216 71.1947 76.3127 73.1902 74.6771C75.1118 73.1531 75.9617 70.6625 75.2596 68.395C74.7792 66.8338 73.9293 65.4956 72.5989 64.4547C69.6797 62.2244 66.3909 61.5553 62.8434 62.1129C60.5892 62.4846 58.446 63.4139 56.857 65.161C53.4573 68.8782 54.2703 73.1531 58.2243 75.4206C60.3306 76.6472 62.6586 76.7959 64.9867 76.8703L65.0236 76.9075Z" fill="black"/>
<path d="M51.2774 62.5589C51.2774 64.4919 49.8363 66.0903 48.0625 66.1275C46.2888 66.1275 45.0693 64.9008 45.0693 63.1165C45.1063 61.1092 46.4735 59.5851 48.2842 59.548C50.058 59.548 51.2405 60.7375 51.2405 62.5589H51.2774Z" fill="black"/>
<path d="M78.9922 62.5589C78.9922 60.7375 80.1747 59.5108 81.9484 59.5479C83.7591 59.5479 85.1264 61.1092 85.1633 63.1165C85.2003 64.9008 83.9808 66.1274 82.2071 66.1274C80.4333 66.1274 78.9922 64.529 78.9922 62.5961V62.5589Z" fill="black"/>
<path d="M64.9134 72.8185C64.0265 72.8185 63.62 72.4468 63.7678 71.5546C63.9526 70.5138 63.8417 69.7704 62.9179 69.1756C62.4006 68.8411 61.9202 68.3207 62.2897 67.6144C62.6592 66.9081 63.3613 66.7594 64.0265 67.0568C64.8025 67.3914 65.4307 67.2055 66.1698 66.9825C66.6871 66.8338 67.3153 66.8338 67.6479 67.3914C68.0174 68.0233 67.8696 68.6552 67.2783 69.0269C66.3915 69.6217 66.1328 70.2908 66.2806 71.3688C66.4284 72.4468 65.985 72.8185 64.8764 72.7813L64.9134 72.8185Z" fill="black"/>
</svg>
