<svg width="131" height="131" viewBox="0 0 131 131" fill="none" xmlns="http://www.w3.org/2000/svg">
<rect x="1.12939" y="1.45361" width="128.562" height="128.562" rx="14.5" fill="#F5F7FB" stroke="#DBE2F0"/>
<g clip-path="url(#clip0_11784_5550)">
<path d="M95.3763 58.5189C96.9839 53.6577 96.4303 48.3323 93.8594 43.9106C89.9932 37.1285 82.2209 33.6392 74.6302 35.2812C71.2533 31.4484 66.4017 29.2688 61.3154 29.3C53.5563 29.2822 46.672 34.3152 44.2849 41.7532C39.3005 42.7817 34.998 45.9251 32.4803 50.3804C28.5853 57.1446 29.4732 65.6714 34.6769 71.4719C33.0693 76.3331 33.6229 81.6585 36.1937 86.0802C40.06 92.8623 47.8323 96.3516 55.423 94.7096C58.7977 98.5424 63.6515 100.722 68.7378 100.689C76.5013 100.709 83.3879 95.6711 85.7749 88.2264C90.7594 87.1979 95.0618 84.0545 97.5795 79.5993C101.47 72.835 100.58 64.315 95.3785 58.5145L95.3763 58.5189ZM68.7422 96.0236C65.6355 96.0281 62.6263 94.9327 60.2414 92.927C60.3499 92.869 60.5381 92.7642 60.6599 92.6883L74.7697 84.4784C75.4915 84.0657 75.9344 83.2915 75.93 82.4549V62.4142L81.8932 65.8833C81.9574 65.9146 81.9995 65.977 82.0083 66.0484V82.6445C81.9995 90.0246 76.0673 96.008 68.7422 96.0236ZM40.2128 83.7466C38.6561 81.0382 38.0959 77.8636 38.6295 74.7826C38.7336 74.8451 38.9174 74.9589 39.048 75.0347L53.1578 83.2447C53.873 83.6663 54.7587 83.6663 55.4762 83.2447L72.7015 73.2232V80.1615C72.7059 80.2329 72.6727 80.302 72.6173 80.3466L58.3548 88.6436C52.0019 92.3291 43.8886 90.1383 40.215 83.7466H40.2128ZM36.4993 52.7162C38.0494 50.0033 40.4962 47.9285 43.4103 46.851C43.4103 46.9737 43.4036 47.1901 43.4036 47.3418V63.7639C43.3992 64.5983 43.8421 65.3724 44.5617 65.7852L61.787 75.8044L55.8238 79.2736C55.764 79.3137 55.6887 79.3204 55.6223 79.2914L41.3576 70.9878C35.0179 67.2888 32.8435 59.1168 36.4971 52.7184L36.4993 52.7162ZM85.4937 64.2034L68.2684 54.1819L74.2316 50.715C74.2914 50.6749 74.3667 50.6682 74.4331 50.6972L88.6978 58.9941C95.0485 62.6908 97.2252 70.8762 93.5561 77.2746C92.0038 79.983 89.5592 82.0578 86.6474 83.1376V66.2247C86.654 65.3903 86.2133 64.6184 85.4959 64.2034H85.4937ZM91.4281 55.2037C91.324 55.139 91.1402 55.0275 91.0096 54.9516L76.8999 46.7417C76.1846 46.32 75.2989 46.32 74.5814 46.7417L57.3561 56.7632V49.8249C57.3517 49.7535 57.3849 49.6843 57.4403 49.6397L71.7028 41.3494C78.0557 37.6572 86.1779 39.8547 89.8404 46.2576C91.3882 48.9615 91.9485 52.1272 91.4237 55.2037H91.4281ZM54.1144 67.5699L48.1489 64.1008C48.0847 64.0696 48.0426 64.0071 48.0338 63.9357V47.3396C48.0382 39.9506 53.9881 33.9627 61.322 33.9672C64.4243 33.9672 67.4269 35.0648 69.8118 37.0638C69.7033 37.1218 69.5173 37.2266 69.3933 37.3025L55.2835 45.5124C54.5616 45.9251 54.1188 46.6971 54.1232 47.5337L54.1144 67.5655V67.5699ZM57.3539 60.5335L65.0266 56.0693L72.6993 60.5312V69.4573L65.0266 73.9192L57.3539 69.4573V60.5335Z" fill="black"/>
</g>
<defs>
<clipPath id="clip0_11784_5550">
<rect width="71.3911" height="71.3911" fill="white" transform="translate(29.5972 29.3)"/>
</clipPath>
</defs>
</svg>
