<svg width="131" height="130" viewBox="0 0 131 130" fill="none" xmlns="http://www.w3.org/2000/svg">
<rect x="0.629395" width="129.562" height="129.562" rx="15" fill="#F5F7FB" fill-opacity="0.2"/>
<rect x="0.629395" width="129.562" height="129.562" rx="15" fill="#503766"/>
<g clip-path="url(#clip0_11784_5536)">
<path d="M95.3763 57.5653C96.9839 52.704 96.4303 47.3787 93.8594 42.957C89.9932 36.1748 82.2209 32.6856 74.6302 34.3276C71.2533 30.4948 66.4017 28.3152 61.3154 28.3464C53.5563 28.3286 46.672 33.3616 44.2849 40.7996C39.3005 41.8281 34.998 44.9715 32.4803 49.4268C28.5853 56.191 29.4732 64.7178 34.6769 70.5183C33.0693 75.3795 33.6229 80.7048 36.1937 85.1266C40.06 91.9087 47.8323 95.398 55.423 93.756C58.7977 97.5888 63.6515 99.7684 68.7378 99.7349C76.5013 99.755 83.3879 94.7175 85.7749 87.2728C90.7594 86.2443 95.0618 83.1009 97.5795 78.6457C101.47 71.8814 100.58 63.3613 95.3785 57.5608L95.3763 57.5653ZM68.7422 95.07C65.6355 95.0745 62.6263 93.9791 60.2414 91.9734C60.3499 91.9154 60.5381 91.8106 60.6599 91.7347L74.7697 83.5248C75.4915 83.112 75.9344 82.3379 75.93 81.5013V61.4606L81.8932 64.9297C81.9574 64.9609 81.9995 65.0234 82.0083 65.0948V81.6909C81.9995 89.0709 76.0673 95.0544 68.7422 95.07ZM40.2128 82.793C38.6561 80.0846 38.0959 76.91 38.6295 73.829C38.7336 73.8915 38.9174 74.0053 39.048 74.0811L53.1578 82.2911C53.873 82.7127 54.7587 82.7127 55.4762 82.2911L72.7015 72.2696V79.2079C72.7059 79.2793 72.6727 79.3484 72.6173 79.393L58.3548 87.69C52.0019 91.3755 43.8886 89.1847 40.215 82.793H40.2128ZM36.4993 51.7626C38.0494 49.0497 40.4962 46.9749 43.4103 45.8974C43.4103 46.0201 43.4036 46.2365 43.4036 46.3882V62.8103C43.3992 63.6447 43.8421 64.4188 44.5617 64.8315L61.787 74.8508L55.8238 78.3199C55.764 78.3601 55.6887 78.3668 55.6223 78.3378L41.3576 70.0342C35.0179 66.3352 32.8435 58.1632 36.4971 51.7648L36.4993 51.7626ZM85.4937 63.2498L68.2684 53.2283L74.2316 49.7614C74.2914 49.7212 74.3667 49.7146 74.4331 49.7436L88.6978 58.0405C95.0485 61.7372 97.2252 69.9226 93.5561 76.321C92.0038 79.0294 89.5592 81.1042 86.6474 82.184V65.271C86.654 64.4367 86.2133 63.6648 85.4959 63.2498H85.4937ZM91.4281 54.2501C91.324 54.1854 91.1402 54.0739 91.0096 53.998L76.8999 45.7881C76.1846 45.3664 75.2989 45.3664 74.5814 45.7881L57.3561 55.8095V48.8712C57.3517 48.7999 57.3849 48.7307 57.4403 48.6861L71.7028 40.3958C78.0557 36.7036 86.1779 38.9011 89.8404 45.3039C91.3882 48.0079 91.9485 51.1736 91.4237 54.2501H91.4281ZM54.1144 66.6163L48.1489 63.1472C48.0847 63.1159 48.0426 63.0535 48.0338 62.9821V46.386C48.0382 38.997 53.9881 33.0091 61.322 33.0136C64.4243 33.0136 67.4269 34.1112 69.8118 36.1101C69.7033 36.1682 69.5173 36.273 69.3933 36.3489L55.2835 44.5588C54.5616 44.9715 54.1188 45.7434 54.1232 46.5801L54.1144 66.6119V66.6163ZM57.3539 59.5799L65.0266 55.1157L72.6993 59.5776V68.5037L65.0266 72.9656L57.3539 68.5037V59.5799Z" fill="white"/>
</g>
<defs>
<clipPath id="clip0_11784_5536">
<rect width="71.3911" height="71.3911" fill="white" transform="translate(29.5972 28.3464)"/>
</clipPath>
</defs>
</svg>
