<svg width="134" height="134" viewBox="0 0 134 134" fill="none" xmlns="http://www.w3.org/2000/svg">
<rect x="1.26855" y="1.45361" width="131.954" height="131.954" rx="14.5" fill="white"/>
<rect x="1.26855" y="1.45361" width="131.954" height="131.954" rx="14.5" fill="#F5F7FB"/>
<rect x="1.26855" y="1.45361" width="131.954" height="131.954" rx="14.5" stroke="#DBE2F0"/>
<g clip-path="url(#clip0_11784_5547)">
<path d="M40.3142 57.7653C40.836 56.4133 41.434 55.1122 42.1371 53.8874C41.4595 53.2639 39.7671 51.9373 39.8721 51.8323C48.6968 41.2643 60.2033 38.0894 70.3801 39.9345C72.4638 40.2208 74.5475 40.7171 76.6026 41.4711C91.1822 46.8855 98.5467 62.9444 93.0814 77.3681C92.5354 78.7785 91.8824 80.1451 91.1281 81.456C91.9361 82.1559 93.7049 83.4602 93.6031 83.5651C83.8145 95.148 70.7714 97.8298 59.917 94.604C58.8619 94.3392 57.8195 94.026 56.793 93.6656C42.2421 88.2511 34.8489 72.1891 40.3142 57.7653V57.7653ZM90.0369 33.0376C88.1886 34.8064 85.9745 36.941 84.8833 37.9049C83.1232 36.9089 81.286 36.0557 79.3894 35.3535C62.831 29.2106 45.3915 36.1616 35.7842 49.0965C30.761 56.5215 27.7929 65.658 28.5214 75.0553C28.5214 75.0553 28.55 92.7303 44.873 103.146C46.1995 101.32 47.8888 98.9782 49.0086 97.4671C50.8578 98.5345 52.791 99.4495 54.7889 100.203C73.5327 107.151 94.3062 98.2752 101.098 80.3903C101.098 80.3903 106.07 69.485 104.432 57.5617C104.432 57.5617 103.156 41.4742 90.0369 33.0408V33.0376Z" fill="#404040"/>
</g>
<defs>
<clipPath id="clip0_11784_5547">
<rect x="28.4131" y="29.9136" width="76.3496" height="76.3496" rx="15" fill="white"/>
</clipPath>
</defs>
</svg>
