<svg width="134" height="133" viewBox="0 0 134 133" fill="none" xmlns="http://www.w3.org/2000/svg">
<rect x="0.768555" width="132.954" height="132.954" rx="15" fill="#503766"/>
<g clip-path="url(#clip0_11784_5533)">
<path d="M40.3142 56.8117C40.836 55.4597 41.434 54.1586 42.1371 52.9338C41.4595 52.3103 39.7671 50.9837 39.8721 50.8787C48.6968 40.3107 60.2033 37.1358 70.3801 38.9809C72.4638 39.2672 74.5475 39.7635 76.6026 40.5174C91.1822 45.9319 98.5467 61.9908 93.0814 76.4145C92.5354 77.8249 91.8824 79.1915 91.1281 80.5024C91.9361 81.2022 93.7049 82.5066 93.6031 82.6115C83.8145 94.1944 70.7714 96.8762 59.917 93.6504C58.8619 93.3855 57.8195 93.0724 56.793 92.712C42.2421 87.2975 34.8489 71.2354 40.3142 56.8117V56.8117ZM90.0369 32.084C88.1886 33.8528 85.9745 35.9874 84.8833 36.9513C83.1232 35.9553 81.286 35.1021 79.3894 34.3999C62.831 28.257 45.3915 35.208 35.7842 48.1429C30.761 55.5679 27.7929 64.7044 28.5214 74.1017C28.5214 74.1017 28.55 91.7767 44.873 102.192C46.1995 100.366 47.8888 98.0246 49.0086 96.5135C50.8578 97.5809 52.791 98.4959 54.7889 99.2494C73.5327 106.197 94.3062 97.3216 101.098 79.4367C101.098 79.4367 106.07 68.5314 104.432 56.6081C104.432 56.6081 103.156 40.5206 90.0369 32.0872V32.084Z" fill="white"/>
</g>
<defs>
<clipPath id="clip0_11784_5533">
<rect x="28.4131" y="28.96" width="76.3496" height="76.3496" rx="15" fill="white"/>
</clipPath>
</defs>
</svg>
