<svg width="136" height="132" viewBox="0 0 136 132" fill="none" xmlns="http://www.w3.org/2000/svg">
<rect x="0.59375" y="0.5" width="133.954" height="131" rx="15.5" fill="white"/>
<rect x="0.59375" y="0.5" width="133.954" height="131" rx="15.5" fill="#F5F7FB"/>
<rect x="0.59375" y="0.5" width="133.954" height="131" rx="15.5" stroke="#DBE2F0"/>
<g clip-path="url(#clip0_14869_37076)">
<path d="M36.3359 86.6267L36.338 100.794C36.338 103.477 38.5133 105.652 41.1966 105.652H54.9236C56.3416 105.652 57.6896 105.032 58.6127 103.955L97.6335 58.4301C98.3881 57.5493 98.8031 56.4276 98.8031 55.2678V41.1008C98.8031 38.4174 96.6279 36.2422 93.9445 36.2422H80.2155C78.7974 36.2422 77.4496 36.862 76.5263 37.9385L37.5055 83.4637C36.7503 84.3446 36.3359 85.4662 36.3359 86.6267Z" fill="#00D886"/>
<path d="M36.3359 88.3342V100.797C36.3359 103.48 38.5112 105.655 41.1946 105.655H56.8136C57.0433 105.655 57.2731 105.639 57.5007 105.607L101.573 99.3112C103.967 98.9691 105.745 96.9195 105.745 94.5012V75.8039C105.745 73.1198 103.569 70.9446 100.885 70.9453L78.769 70.9508C78.247 70.9508 77.7286 71.0348 77.2336 71.2L39.6578 83.7255C37.6741 84.3869 36.3359 86.2429 36.3359 88.3342Z" fill="url(#paint0_linear_14869_37076)"/>
<path d="M29.3945 34.1614V74.6842C29.3945 76.6277 30.553 78.3845 32.3388 79.15L77.0638 98.3186C77.6684 98.5775 78.3201 98.7115 78.978 98.7115H100.886C103.569 98.7115 105.744 96.5362 105.744 93.8529V72.4201C105.744 71.4603 105.46 70.5219 104.927 69.7229L79.3939 31.4662C78.4922 30.1155 76.9763 29.3048 75.3528 29.3048L34.2531 29.3027C31.5698 29.3027 29.3945 31.478 29.3945 34.1614Z" fill="url(#paint1_linear_14869_37076)"/>
<path d="M91.4295 43.6191H43.7109V91.3377H91.4295V43.6191Z" fill="black"/>
<path fill-rule="evenodd" clip-rule="evenodd" d="M57.4726 49.5449H49.7891V67.4459H53.2798V60.6816H57.3712C58.6494 60.6816 59.7708 60.4515 60.7339 59.9911C61.7059 59.5226 62.4519 58.8657 62.9718 58.0218C63.4999 57.1779 63.7643 56.1805 63.7643 55.0811C63.7643 53.9817 63.504 53.0144 62.9841 52.1787C62.4724 51.3431 61.7395 50.6958 60.7846 50.2354C59.8296 49.775 58.7254 49.5449 57.4726 49.5449ZM58.7761 57.4601C58.3412 57.6731 57.8302 57.7799 57.2417 57.7799H53.2776V52.448H57.2417C57.8302 52.448 58.3412 52.5582 58.7761 52.7801C59.2193 52.9925 59.5598 53.2994 59.7989 53.7008C60.0379 54.0919 60.1571 54.57 60.1571 55.1071C60.1571 55.6442 60.0372 56.1174 59.7989 56.5264C59.5605 56.9278 59.2193 57.2381 58.7761 57.4601Z" fill="white"/>
<path d="M69.2167 66.5509C70.6066 67.3518 72.158 67.7531 73.8712 67.7531V67.7518C75.32 67.7518 76.6503 67.4832 77.8606 66.9461C79.071 66.4092 80.0766 65.6598 80.8781 64.696C81.6878 63.724 82.2295 62.6115 82.5022 61.3587H78.8449C78.6059 62.006 78.2483 62.578 77.7709 63.0719C77.3017 63.5581 76.7345 63.9336 76.0701 64.1973C75.4056 64.461 74.6809 64.5939 73.8965 64.5939C72.8396 64.5939 71.8847 64.3302 71.0326 63.8014C70.1797 63.2725 69.5105 62.5485 69.0248 61.6279C68.5474 60.6997 68.3091 59.6544 68.3091 58.4953C68.3091 57.3364 68.5474 56.2959 69.0248 55.3752C69.5112 54.4464 70.1797 53.7175 71.0326 53.1887C71.8847 52.6599 72.8396 52.3962 73.8965 52.3962C74.6802 52.3962 75.4049 52.5291 76.0701 52.7928C76.7352 53.0565 77.3017 53.4367 77.7709 53.9306C78.2483 54.4169 78.6059 54.9841 78.8449 55.6314H82.5022C82.2289 54.3785 81.6878 53.2709 80.8781 52.3071C80.0766 51.3352 79.071 50.581 77.8606 50.0439C76.6503 49.5068 75.32 49.2383 73.8712 49.2383C72.1573 49.2383 70.6059 49.6425 69.2167 50.4528C67.8269 51.2536 66.7357 52.3627 65.9431 53.7771C65.1506 55.1834 64.7539 56.7562 64.7539 58.4953C64.7539 60.2345 65.1506 61.8121 65.9431 63.2266C66.7363 64.633 67.8269 65.7405 69.2167 66.5509Z" fill="white"/>
<path d="M49.668 81.7949H68.7554V85.3738H49.668V81.7949Z" fill="white"/>
</g>
<defs>
<linearGradient id="paint0_linear_14869_37076" x1="38.4869" y1="106.511" x2="102.461" y2="76.8499" gradientUnits="userSpaceOnUse">
<stop offset="0.1" stop-color="#00D886"/>
<stop offset="0.59" stop-color="#F0EB18"/>
</linearGradient>
<linearGradient id="paint1_linear_14869_37076" x1="100.995" y1="100.615" x2="30.9611" y2="30.5819" gradientUnits="userSpaceOnUse">
<stop offset="0.3" stop-color="#F0EB18"/>
<stop offset="0.7" stop-color="#00C4F4"/>
</linearGradient>
<clipPath id="clip0_14869_37076">
<rect x="29.3945" y="29.3027" width="76.3496" height="76.3496" rx="15" fill="white"/>
</clipPath>
</defs>
</svg>
