<svg xmlns="http://www.w3.org/2000/svg" width="64" height="64" fill="none" viewBox="0 0 64 64">
  <defs>
    <linearGradient id="a" x1="60.0186" x2="1.31316" y1="59.7777" y2="1.07287" gradientUnits="userSpaceOnUse">
      <stop offset=".25" stop-color="#7256FF"/>
      <stop offset=".73" stop-color="#007DFE"/>
    </linearGradient>
    <linearGradient id="b" x1="7.62199" x2="62.0615" y1="64.7192" y2="39.4788" gradientUnits="userSpaceOnUse">
      <stop offset=".3" stop-color="#00D886"/>
      <stop offset=".54" stop-color="#7256FF"/>
    </linearGradient>
  </defs>
  <path fill="url(#a)" d="M0 4.07273V38.041c0 1.6291.971054 3.1017 2.46807 3.7434L39.9587 57.8525c.5067.217 1.0531.3293 1.6046.3293h18.364c2.2493 0 4.0727-1.8234 4.0727-4.0727v-17.966c0-.8046-.2386-1.5913-.6854-2.2609L41.9118 1.81353C41.1561.681309 39.8854.001745 38.5245.001745L4.07273 0C1.82342 0 0 1.82342 0 4.07273Z"/>
  <path fill="url(#b)" d="M5.81836 49.4825v10.4466c0 2.2493 1.82342 4.0727 4.07273 4.0727H22.9837c.1926 0 .3852-.014.576-.0407l36.9437-5.2771c2.0067-.2868 3.4968-2.005 3.4968-4.032V38.979c0-2.2499-1.824-4.0733-4.0739-4.0727l-18.5385.0046c-.4375 0-.8721.0704-1.287.2089L8.60294 45.6193c-1.66284.5544-2.78458 2.1108-2.78458 3.8638v-.0006Z"/>
  <path fill="#00D886" d="m5.81836 48.0512.00174 11.8755c0 2.2493 1.82342 4.0721 4.07273 4.0721H21.3994c1.1887 0 2.3186-.5196 3.0924-1.422l32.7098-38.1614c.6325-.7383.9804-1.6786.9804-2.6508V9.88913c0-2.24931-1.8234-4.07272-4.0727-4.07272H42.6009c-1.1887 0-2.3185.51956-3.0924 1.42196L6.7993 45.3998c-.63301.7383-.98036 1.6786-.98036 2.6514h-.00058Z"/>
  <path fill="#000" d="M52 12H12v40h40V12Z"/>
  <path fill="#fff" fill-rule="evenodd" d="M20.0825 31.2119c.8131.4642 1.694.7569 2.634.8992l.0011.1854c0 .6295.1286 1.1787.3857 1.6338.264.4688.6393.8304 1.1247 1.0714.493.2542 1.064.3885 1.7142.3885h2.4102V33.221h-1.8318c-.2284 0-.4212-.0396-.5784-.1205-.1573-.0804-.2783-.2009-.3644-.3616-.0855-.1606-.1286-.3483-.1286-.5755v-.085c.8746-.1521 1.6964-.4309 2.4533-.8659 1.1712-.6829 2.0889-1.6069 2.7528-2.785.664-1.1919.9962-2.5043.9962-3.9637 0-1.4593-.3322-2.7717-.9962-3.9504-.6639-1.1914-1.5821-2.1153-2.7528-2.785-1.1644-.6829-2.4676-1.0175-3.9097-1.0175-1.4422 0-2.7385.3346-3.9098 1.0175-1.1638.6697-2.0814 1.5936-2.7528 2.785-.6639 1.1787-.9962 2.4905-.9962 3.9504 0 1.4599.3323 2.7718.9962 3.9637.6714 1.1781 1.5885 2.1015 2.7523 2.7844Zm-.1498-9.3999c.4069-.8034.9641-1.4192 1.6711-1.8616.7139-.4419 1.5138-.6697 2.3993-.6697.8855 0 1.682.2272 2.389.6697.707.4419 1.2602 1.0576 1.6602 1.8616.4.7764.5997 1.6602.5997 2.6513 0 .991-.2003 1.8742-.5997 2.6644-.4.7896-.9532 1.406-1.6602 1.861-.707.4419-1.5035.656-2.389.656-.8855 0-1.6854-.2141-2.3993-.656-.707-.4556-1.2642-1.0714-1.6711-1.861-.4-.7902-.5997-1.674-.5997-2.6644 0-.9905.1997-1.8749.5997-2.6513Z" clip-rule="evenodd"/>
  <path fill="#fff" fill-rule="evenodd" d="M40.5126 16.9646h-3.17l-5.4098 14.9967h3.0099l1.1357-3.481h5.8379l1.2103 3.481h2.9456l-5.5596-14.9967Zm-3.7381 9.253 1.9069-5.7174.2141-.9509.225.9509 2.0245 5.7174h-4.3705Z" clip-rule="evenodd"/>
  <path fill="#fff" d="M16.9941 44.001h16v3h-16v-3Z"/>
</svg>
