<svg width="1440" height="748" viewBox="0 0 1440 748" fill="none" xmlns="http://www.w3.org/2000/svg">
<g clip-path="url(#clip0_524_1609)">
<rect width="1440" height="748" />
<circle cx="673" cy="706" r="10" fill="url(#paint0_linear_524_1609)"/>
<circle cx="789" cy="489" r="10" fill="url(#paint1_linear_524_1609)"/>
<circle cx="905" cy="540" r="10" fill="url(#paint2_linear_524_1609)"/>
<circle cx="1019" cy="429" r="10" fill="url(#paint3_linear_524_1609)"/>
<circle cx="1137" cy="550" r="10" fill="url(#paint4_linear_524_1609)"/>
<circle cx="1266" cy="324" r="10" fill="url(#paint5_linear_524_1609)"/>
<circle cx="1392" cy="359" r="10" fill="url(#paint6_linear_524_1609)"/>
<path d="M681 692.5L780.5 502" stroke="url(#paint7_linear_524_1609)" stroke-width="3" stroke-linecap="round"/>
<path d="M804 496.5L890 534" stroke="url(#paint8_linear_524_1609)" stroke-width="3" stroke-linecap="round"/>
<path d="M568 663L654 700.5" stroke="url(#paint9_linear_524_1609)" stroke-width="3" stroke-linecap="round"/>
<path d="M917.5 527.5L1004.5 442" stroke="url(#paint10_linear_524_1609)" stroke-width="3" stroke-linecap="round"/>
<path d="M1035 441L1121 539" stroke="url(#paint11_linear_524_1609)" stroke-width="3" stroke-linecap="round"/>
<path d="M1151 538L1254.5 340.5" stroke="url(#paint12_linear_524_1609)" stroke-width="3" stroke-linecap="round"/>
<path d="M1286 326L1373 357" stroke="url(#paint13_linear_524_1609)" stroke-width="3" stroke-linecap="round"/>
<circle cx="731" cy="207" r="10" fill="url(#paint14_linear_524_1609)"/>
<circle cx="930" cy="341" r="10" fill="url(#paint15_linear_524_1609)"/>
<circle cx="1129" cy="177" r="10" fill="url(#paint16_linear_524_1609)"/>
<path d="M1342.5 193L1462 124.5" stroke="url(#paint17_linear_524_1609)" stroke-width="3" stroke-linecap="round"/>
<circle cx="1328" cy="197" r="10" fill="url(#paint18_linear_524_1609)"/>
<path d="M746.5 209L911 332.5" stroke="url(#paint19_linear_524_1609)" stroke-width="3" stroke-linecap="round"/>
<path d="M584 314.5L713 214" stroke="url(#paint20_linear_524_1609)" stroke-width="3" stroke-linecap="round"/>
<path d="M944.5 332L1112.5 184" stroke="url(#paint21_linear_524_1609)" stroke-width="3" stroke-linecap="round"/>
<path d="M1147 175.5L1309 193.5" stroke="url(#paint22_linear_524_1609)" stroke-width="3" stroke-linecap="round"/>
<g opacity="0.4">
<path d="M954.38 737.134C903.981 678.589 872.866 605.925 865.276 529.049C857.686 452.173 873.99 374.827 911.966 307.557L1238.96 492.154L954.38 737.134Z" fill="url(#paint23_linear_524_1609)"/>
<path d="M924.35 291.607C973.736 205.127 1055.45 141.807 1151.53 115.577L1250.43 477.819L924.35 291.607Z" fill="url(#paint24_linear_524_1609)"/>
<path d="M1172.85 63.8184C1224.71 51.1912 1278.68 49.7692 1331.14 59.647L1261.66 428.663L1172.85 63.8184Z" fill="url(#paint25_linear_524_1609)"/>
<path d="M1613.04 355.657C1644.24 432.281 1649.26 517.064 1627.32 596.835C1605.38 676.606 1557.71 746.898 1491.72 796.793L1265.26 497.263L1613.04 355.657Z" fill="url(#paint26_linear_524_1609)"/>
<path d="M1474.26 804.637C1398.35 861.055 1303.95 886.751 1209.92 876.59C1115.89 866.428 1029.16 821.158 967.055 749.826L1250.26 503.263L1474.26 804.637Z" fill="url(#paint27_linear_524_1609)"/>
<path d="M1409.58 38.1605C1470.4 50.0183 1527.33 76.7403 1575.31 115.944C1623.29 155.148 1660.82 205.615 1684.56 262.846L1337.72 406.72L1409.58 38.1605Z" fill="url(#paint28_linear_524_1609)"/>
</g>
</g>
<defs>
<linearGradient id="paint0_linear_524_1609" x1="673" y1="696" x2="673" y2="716" gradientUnits="userSpaceOnUse">
<stop stop-color="white" stop-opacity="0.6"/>
<stop offset="1" stop-color="white" stop-opacity="0.3"/>
</linearGradient>
<linearGradient id="paint1_linear_524_1609" x1="789" y1="479" x2="789" y2="499" gradientUnits="userSpaceOnUse">
<stop stop-color="white" stop-opacity="0.6"/>
<stop offset="1" stop-color="white" stop-opacity="0.3"/>
</linearGradient>
<linearGradient id="paint2_linear_524_1609" x1="905" y1="530" x2="905" y2="550" gradientUnits="userSpaceOnUse">
<stop stop-color="white" stop-opacity="0.8"/>
<stop offset="1" stop-color="white" stop-opacity="0.5"/>
</linearGradient>
<linearGradient id="paint3_linear_524_1609" x1="1019" y1="419" x2="1019" y2="439" gradientUnits="userSpaceOnUse">
<stop stop-color="white" stop-opacity="0.8"/>
<stop offset="1" stop-color="white" stop-opacity="0.5"/>
</linearGradient>
<linearGradient id="paint4_linear_524_1609" x1="1137" y1="540" x2="1137" y2="560" gradientUnits="userSpaceOnUse">
<stop stop-color="white" stop-opacity="0.8"/>
<stop offset="1" stop-color="white" stop-opacity="0.5"/>
</linearGradient>
<linearGradient id="paint5_linear_524_1609" x1="1266" y1="314" x2="1266" y2="334" gradientUnits="userSpaceOnUse">
<stop stop-color="white" stop-opacity="0.6"/>
<stop offset="1" stop-color="white" stop-opacity="0.3"/>
</linearGradient>
<linearGradient id="paint6_linear_524_1609" x1="1392" y1="349" x2="1392" y2="369" gradientUnits="userSpaceOnUse">
<stop stop-color="white" stop-opacity="0.6"/>
<stop offset="1" stop-color="white" stop-opacity="0.3"/>
</linearGradient>
<linearGradient id="paint7_linear_524_1609" x1="792" y1="528.5" x2="760.123" y2="708.472" gradientUnits="userSpaceOnUse">
<stop stop-color="white" stop-opacity="0.6"/>
<stop offset="1" stop-color="white" stop-opacity="0.1"/>
</linearGradient>
<linearGradient id="paint8_linear_524_1609" x1="886.5" y1="540" x2="801.213" y2="531.518" gradientUnits="userSpaceOnUse">
<stop stop-color="white" stop-opacity="0.6"/>
<stop offset="1" stop-color="white" stop-opacity="0.1"/>
</linearGradient>
<linearGradient id="paint9_linear_524_1609" x1="650.5" y1="706.5" x2="565.213" y2="698.018" gradientUnits="userSpaceOnUse">
<stop stop-color="white" stop-opacity="0.6"/>
<stop offset="1" stop-color="white" stop-opacity="0.1"/>
</linearGradient>
<linearGradient id="paint10_linear_524_1609" x1="1016.5" y1="415" x2="969.049" y2="549.088" gradientUnits="userSpaceOnUse">
<stop stop-color="white" stop-opacity="0.6"/>
<stop offset="1" stop-color="white" stop-opacity="0.1"/>
</linearGradient>
<linearGradient id="paint11_linear_524_1609" x1="1116.5" y1="475" x2="1032.23" y2="474.183" gradientUnits="userSpaceOnUse">
<stop stop-color="white" stop-opacity="0.6"/>
<stop offset="1" stop-color="white" stop-opacity="0.1"/>
</linearGradient>
<linearGradient id="paint12_linear_524_1609" x1="1234.5" y1="590" x2="1150.23" y2="589.183" gradientUnits="userSpaceOnUse">
<stop stop-color="white" stop-opacity="0.6"/>
<stop offset="1" stop-color="white" stop-opacity="0.1"/>
</linearGradient>
<linearGradient id="paint13_linear_524_1609" x1="1369.5" y1="364" x2="1285.23" y2="363.183" gradientUnits="userSpaceOnUse">
<stop stop-color="white" stop-opacity="0.6"/>
<stop offset="1" stop-color="white" stop-opacity="0.1"/>
</linearGradient>
<linearGradient id="paint14_linear_524_1609" x1="731" y1="197" x2="731" y2="217" gradientUnits="userSpaceOnUse">
<stop stop-color="white" stop-opacity="0.9"/>
<stop offset="1" stop-color="white" stop-opacity="0.2"/>
<stop offset="1" stop-color="white" stop-opacity="0.7"/>
</linearGradient>
<linearGradient id="paint15_linear_524_1609" x1="930" y1="331" x2="930" y2="351" gradientUnits="userSpaceOnUse">
<stop stop-color="white" stop-opacity="0.9"/>
<stop offset="1" stop-color="white" stop-opacity="0.2"/>
<stop offset="1" stop-color="white" stop-opacity="0.7"/>
</linearGradient>
<linearGradient id="paint16_linear_524_1609" x1="1129" y1="167" x2="1129" y2="187" gradientUnits="userSpaceOnUse">
<stop stop-color="white" stop-opacity="0.9"/>
<stop offset="1" stop-color="white" stop-opacity="0.2"/>
<stop offset="1" stop-color="white" stop-opacity="0.7"/>
</linearGradient>
<linearGradient id="paint17_linear_524_1609" x1="1471.5" y1="133.5" x2="1368.9" y2="203.206" gradientUnits="userSpaceOnUse">
<stop stop-color="white"/>
<stop offset="1" stop-color="white" stop-opacity="0.1"/>
</linearGradient>
<linearGradient id="paint18_linear_524_1609" x1="1328" y1="187" x2="1328" y2="207" gradientUnits="userSpaceOnUse">
<stop stop-color="white" stop-opacity="0.9"/>
<stop offset="1" stop-color="white" stop-opacity="0.2"/>
<stop offset="1" stop-color="white" stop-opacity="0.7"/>
</linearGradient>
<linearGradient id="paint19_linear_524_1609" x1="909" y1="282.5" x2="743.062" y2="270.512" gradientUnits="userSpaceOnUse">
<stop stop-color="white"/>
<stop offset="1" stop-color="white" stop-opacity="0.1"/>
</linearGradient>
<linearGradient id="paint20_linear_524_1609" x1="715.5" y1="222.5" x2="665.333" y2="290.481" gradientUnits="userSpaceOnUse">
<stop stop-color="white" stop-opacity="0.5"/>
<stop offset="1" stop-color="white" stop-opacity="0.1"/>
</linearGradient>
<linearGradient id="paint21_linear_524_1609" x1="1121.5" y1="191.5" x2="1027.24" y2="312.466" gradientUnits="userSpaceOnUse">
<stop stop-color="white"/>
<stop offset="1" stop-color="white" stop-opacity="0.1"/>
</linearGradient>
<linearGradient id="paint22_linear_524_1609" x1="1304.5" y1="213" x2="1155.08" y2="237.587" gradientUnits="userSpaceOnUse">
<stop stop-color="white"/>
<stop offset="1" stop-color="white" stop-opacity="0.1"/>
</linearGradient>
<linearGradient id="paint23_linear_524_1609" x1="1235" y1="485" x2="867" y2="512.5" gradientUnits="userSpaceOnUse">
<stop stop-color="white" stop-opacity="0.7"/>
<stop offset="1" stop-color="white" stop-opacity="0.2"/>
</linearGradient>
<linearGradient id="paint24_linear_524_1609" x1="1041.5" y1="166" x2="1239.5" y2="456.5" gradientUnits="userSpaceOnUse">
<stop offset="0.112312" stop-color="white" stop-opacity="0.4"/>
<stop offset="1" stop-color="white" stop-opacity="0.6"/>
</linearGradient>
<linearGradient id="paint25_linear_524_1609" x1="1006.3" y1="153.366" x2="1517.03" y2="703.96" gradientUnits="userSpaceOnUse">
<stop stop-color="white" stop-opacity="0.4"/>
<stop offset="1" stop-color="white" stop-opacity="0.2"/>
</linearGradient>
<linearGradient id="paint26_linear_524_1609" x1="1265" y1="497" x2="1594" y2="677.5" gradientUnits="userSpaceOnUse">
<stop offset="0.00487076" stop-color="white"/>
<stop offset="1" stop-color="white" stop-opacity="0.2"/>
</linearGradient>
<linearGradient id="paint27_linear_524_1609" x1="1252.5" y1="511.5" x2="1197.55" y2="874.756" gradientUnits="userSpaceOnUse">
<stop offset="0.0225532" stop-color="white"/>
<stop offset="1" stop-color="white" stop-opacity="0"/>
</linearGradient>
<linearGradient id="paint28_linear_524_1609" x1="1623" y1="49.5001" x2="1338" y2="407" gradientUnits="userSpaceOnUse">
<stop stop-color="white" stop-opacity="0.4"/>
<stop offset="1" stop-color="white" stop-opacity="0.5"/>
</linearGradient>
<clipPath id="clip0_524_1609">
<rect width="1440" height="748" fill="white"/>
</clipPath>
</defs>
</svg>
