<?xml version="1.0" encoding="utf-8"?>
<!-- Generator: Adobe Illustrator 21.0.2, SVG Export Plug-In . SVG Version: 6.00 Build 0)  -->
<svg version="1.1" id="Layer_1" xmlns="http://www.w3.org/2000/svg" xmlns:xlink="http://www.w3.org/1999/xlink" x="0px" y="0px"
	 viewBox="0 0 721.1 606.8" style="enable-background:new 0 0 721.1 606.8;" xml:space="preserve">
<style type="text/css">
	.st0{fill:#FFFFFF;}
</style>
<g>
	<path d="M0,413.6c1.8-6.2,3.1-12.6,5.6-18.5c15.3-34.5,56.9-47.8,89.6-29c1,0.6,2,1.1,3.6,2c0.2-3.2,0.4-5.8,0.6-8.8
		c10.1,0,20,0,30.1,0c0,40.7,0,81.1,0,121.7c-10,0-19.8,0-30.1,0c-0.2-2.4-0.4-4.8-0.5-6.5c-7.8,2.7-15.4,6.3-23.4,8
		C40.6,490,6.9,466.6,1,431.2c-0.2-0.9-0.6-1.8-1-2.7C0,423.6,0,418.6,0,413.6z M64.9,386.1c-19.2,0-34.7,15.3-34.9,34.4
		c-0.1,19.3,15.6,35.1,34.9,35c19-0.1,34.7-15.8,34.6-34.8C99.4,401.6,84,386.1,64.9,386.1z"/>
	<path d="M431.9,0C493,105.8,554,211.4,615.3,317.5c-2.1,0.1-3.5,0.3-5,0.3c-44.2,0-88.3,0-132.5,0.1c-3.4,0-5.3-1-7-4
		c-47.5-82.7-95.1-165.3-142.7-248c-0.8-1.4-1.5-2.9-2.4-4.6C361.1,40.8,396.3,20.5,431.9,0z"/>
	<path d="M428.3,317.3c-2,0.1-4,0.4-5.9,0.4c-33,0-66,0-99,0c-2,0-3.9,0-6.4,0c0,10.2,0,19.9,0,30c-10.5,0-20.4,0-30.8,0
		c0-8.6,0.2-16.9-0.1-25.1c-0.1-3.2-0.9-6.6-2.5-9.3c-25.8-45.2-51.8-90.3-77.8-135.5c-0.9-1.6-1.8-3.2-2.9-5.2
		c35.4-20.3,70.8-40.6,106.5-61c6.6,11.3,13,22.3,19.3,33.4c32.7,56.6,65.4,113.2,98.1,169.8c0.5,0.9,0.9,1.8,1.3,2.7
		C428.1,317.4,428.3,317.3,428.3,317.3z"/>
	<path d="M241.2,317.3c10,0,19.9,0,30.3,0c0,54.8,0,109,0,163.7c-10,0-20.1,0-30.3,0c-0.1-2.4-0.2-4.7-0.4-7.6
		c-17.7,10.8-36.2,13.5-55.7,7.3c-13.6-4.4-24.4-12.7-32.4-24.6c-16.1-23.7-13.8-55.4,5.2-77.3c16.4-18.9,49.4-30.8,83.5-10.4
		c0-17.5,0-34.3,0-51.2L241.2,317.3z M241.2,421c0-19.4-15-34.7-34.2-34.9c-19.1-0.2-34.8,15.2-35,34.3
		c-0.2,19.4,15.4,35.2,34.6,35.2C225.6,455.6,241.1,440.1,241.2,421z"/>
	<path d="M428.1,317.4c10,0,20,0,30.3,0c0,54.6,0,108.8,0,163.5c-9.9,0-20,0-30.3,0c-0.1-2.4-0.2-4.6-0.4-7.6
		c-17.8,10.9-36.5,13.6-56.1,7.2c-13.3-4.3-23.8-12.5-31.7-23.9c-15.6-22.6-14.5-53.7,2.6-75.1c10.3-12.9,23.7-20.7,40-23.2
		c16.1-2.5,31,1,45.7,10.2c0-17.8,0-34.5,0-51.3C428.3,317.3,428.1,317.4,428.1,317.4z M428.2,420.8c0-19.3-15.3-34.6-34.5-34.7
		c-19.4,0-35,15.6-34.8,35c0.1,19.1,15.8,34.6,34.9,34.5C412.8,455.5,428.2,440,428.2,420.8z"/>
	<path d="M600.1,481.2c-10.2,0-19.8,0-29.7,0c-0.2-2.5-0.4-4.9-0.6-7.9c-17.2,10.7-35.3,13.4-54.3,7.9c-13.7-4-24.7-12.2-33-23.8
		c-16.6-23.2-15.2-55.1,3.2-77.4c15.5-18.8,48.7-33,84.1-12c0.2-2.9,0.3-5.6,0.5-8.6c9.9,0,19.6,0,29.9,0
		C600.1,399.9,600.1,440.4,600.1,481.2z M570.2,420.9c0.1-19.1-15.1-34.6-34.4-34.9c-19.1-0.2-34.8,15.2-34.9,34.3
		c-0.1,19.3,15,34.9,34.1,35.2C554.2,455.8,570,440.3,570.2,420.9z"/>
	<path d="M241.4,317.2c-1.8,0.2-3.6,0.5-5.4,0.5c-43.8,0-87.6,0-131.4,0.1c-3.9,0-5.9-1.2-7.7-4.5c-5.7-10.5-11.7-20.8-18-31.8
		c35.4-20.3,70.6-40.6,106.3-61.1c18.8,32.5,37.4,64.7,56,96.9C241.2,317.3,241.4,317.2,241.4,317.2z"/>
	<path d="M716.2,397.5c-10.2,0-19.9,0-29.7,0c-6.1-14.9-18.1-20.3-33.1-14.9c-4.6,1.6-8,4.5-8.2,9.6c-0.2,5.3,3.6,8,7.9,9
		c10.8,2.7,21.7,4.8,32.6,7.3c4.4,1,8.7,2.1,13,3.6c12.6,4.5,20.9,12.9,22.2,26.8c1.4,15.1-3.2,27.7-16.6,36
		c-14.6,9-30.8,9.9-47.3,8.1c-12.5-1.4-24-5.3-33.4-14.2c-7.6-7.2-11.6-16.1-12-27c10.3,0,20.5,0,30.7,0
		c4.7,16.6,24.8,24.5,40.1,15.8c3.8-2.1,6.1-5.2,5.8-9.7c-0.2-4.3-2.8-7.4-6.7-8.4c-8.8-2.3-17.8-4-26.7-6c-5.7-1.3-11.5-2.3-17-4.1
		c-23.8-7.8-31.7-34.6-16-54.4c8.5-10.8,20.2-15.3,33.4-16.9c15.8-1.8,31-0.2,44.5,8.9C709.9,374.1,715.9,385,716.2,397.5z"/>
	<path d="M316.6,481.1c-10.2,0-19.9,0-30.1,0c0-40.5,0-80.8,0-121.6c9.9,0,19.9,0,30.1,0C316.6,400,316.6,440.3,316.6,481.1z"/>
	<path d="M381.4,574c0-9.7,0-19.4,0-29.2c6,0,11.3,0,17,0c0,20,0,39.9,0,60.6c-6.1,0-12.3,0.2-18.6-0.2c-1.2-0.1-2.4-2-3.3-3.3
		c-5.3-8.6-10.5-17.2-16.7-25.6c0,9.5,0,19,0,28.9c-6,0-11.4,0-17.1,0c0-20.1,0-40,0-60.5c6.1,0,12.1-0.2,18,0.1
		c1.2,0.1,2.7,1.6,3.5,2.8c4.7,7.7,9.2,15.4,13.8,23.2c0.7,1.2,1.5,2.4,2.3,3.6C380.7,574.2,381.1,574.1,381.4,574z"/>
	<path d="M464.2,544.6c5.9,0,11.6-0.2,17.2,0.2c1.5,0.1,3.4,1.8,4.3,3.2c5.3,8.6,10.4,17.4,16.5,26c0-9.6,0-19.2,0-29.1
		c6.2,0,11.6,0,17.3,0c0,20,0,39.9,0,60.5c-6.1,0-12.2,0.2-18.3-0.1c-1.2-0.1-2.6-1.8-3.4-3.1c-5.3-8.6-10.5-17.3-16.5-27.4
		c0,11,0,20.4,0,30.3c-6,0-11.3,0-17.1,0C464.2,585.1,464.2,565.2,464.2,544.6z"/>
	<path d="M318.6,605.4c-6.1,0-12.1,0.2-18-0.2c-1.3-0.1-2.9-2-3.7-3.4c-5.4-8.7-10.6-17.5-16.8-26.1c0,9.7,0,19.4,0,29.3
		c-5.8,0-11,0-16.7,0c0-20,0-39.9,0-60.5c6,0,12.3-0.2,18.5,0.2c1.1,0.1,2.4,2.1,3.2,3.4c5.3,8.8,10.5,17.6,16.6,26.2
		c0-9.7,0-19.4,0-29.5c5.9,0,11.3,0,17,0C318.6,564.8,318.6,584.9,318.6,605.4z"/>
	<path d="M602.3,556.7c-4.7,3.4-9.2,6.5-13.6,9.7c-9.2-8.4-18.5-9.1-24.6-2c-5.7,6.7-5,17.6,1.6,22.9c6.3,5.2,15.4,4.3,20.7-2.8
		c-2.6,0-4.6,0-6.7,0c-2,0-4,0-6.3,0c0-4.6,0-9,0-13.8c10.8,0,21.6,0,32.5,0c3,14.8-6.5,30.3-21.1,34.6c-16.6,4.9-34-3-40.3-18.2
		c-6.2-15.1,0.1-32.7,14.6-40.2C574.2,539.2,593.6,543.3,602.3,556.7z"/>
	<path d="M132.8,605.2c-6.4,0-11.7,0-17.4,0c0-20.1,0-40.1,0-60.4c10.7,0,21.5-0.6,32.2,0.2c8.8,0.7,14.7,7,16.1,15.4
		c1.5,8.8-0.6,16.5-8.5,21.9c-1,0.6-2,1.2-3.6,2.2c5.4,6.7,10.8,13.3,16.8,20.8c-7.7,0-14.3,0.2-20.9-0.1c-1.3-0.1-2.8-1.6-3.7-2.8
		c-3.4-4.5-6.7-9.1-11-15C132.8,594.1,132.8,599.4,132.8,605.2z M132.8,572.4c4.7-0.3,9.5,1.4,12.3-3c1-1.5,0.9-4.9-0.2-6.4
		c-3-4-7.6-2.9-12-2.5C132.8,564.4,132.8,568,132.8,572.4z"/>
	<path d="M203.2,544.8c0,10.2,0,19.8,0,29.5c0,2.7,0.2,5.3,0.6,8c0.8,5.3,3.7,7.9,8.5,8.1c5.1,0.2,8.3-2.4,9.3-7.8
		c0.5-2.9,0.4-6,0.4-9c0-9.5,0-18.9,0-28.7c5.9,0,11.5,0,17.8,0c0,3.7,0.1,7.5,0,11.2c-0.2,10,0.1,20-0.8,29.9
		c-1,10.5-8,18-18.5,19.4c-6.2,0.8-13,0.5-19.1-1c-8.9-2.2-14.5-9.2-15-18c-0.9-13.7-0.2-27.5-0.2-41.6
		C191.7,544.8,197.2,544.8,203.2,544.8z"/>
	<path d="M422.4,605.1c0-20.4,0-40.1,0-60.2c5.8,0,11.3,0,17.3,0c0,19.9,0,40,0,60.2C433.9,605.1,428.4,605.1,422.4,605.1z"/>
	<path class="st0" d="M132.8,572.4c0-4.4,0-8,0-11.9c4.5-0.4,9-1.6,12,2.5c1.1,1.4,1.2,4.8,0.2,6.4
		C142.2,573.8,137.5,572.1,132.8,572.4z"/>
</g>
</svg>
