<?xml version="1.0" encoding="UTF-8"?>
<svg width="200px" height="61px" viewBox="0 0 200 61" version="1.1" xmlns="http://www.w3.org/2000/svg" xmlns:xlink="http://www.w3.org/1999/xlink">
    <!-- Generator: Sketch 50.2 (55047) - http://www.bohemiancoding.com/sketch -->
    <title>Amazon_logo_plain</title>
    <desc>Created with Sketch.</desc>
    <defs></defs>
    <g id="Page-1" stroke="none" stroke-width="1" fill="none" fill-rule="evenodd">
        <g id="Amazon_logo_plain" fill="#A2B0CD" fill-rule="nonzero">
            <path d="M124.048564,47.1588856 C112.440113,55.7152338 95.6143715,60.2803549 81.1277214,60.2803549 C60.8151012,60.2803549 42.5285307,52.7674693 28.6940332,40.2720763 C27.6071012,39.2894826 28.5809884,37.9503847 29.8853134,38.7155821 C44.8154328,47.4023615 63.2759237,52.6283416 82.3450912,52.6283416 C95.2056846,52.6283416 109.353217,49.9675224 122.361642,44.4459005 C124.326819,43.611131 125.970262,45.7328292 124.048564,47.1588856" id="path8"></path>
            <path d="M128.874554,41.6372637 C127.396318,39.7416517 119.06606,40.7416318 115.327008,41.1851012 C114.187897,41.3242289 114.013993,40.3329453 115.040053,39.6199104 C121.6747,34.9504444 132.561433,36.2982421 133.830972,37.8634262 C135.100504,39.4373101 133.500544,50.3501294 127.265887,55.5587098 C126.309386,56.3586932 125.396362,55.9326202 125.822444,54.8717678 C127.222411,51.3761891 130.361479,43.5415721 128.874554,41.6372637" id="path10"></path>
            <path d="M115.587874,6.65538308 L115.587874,2.11634826 C115.587874,1.4294063 116.109602,0.968547264 116.735675,0.968547264 L137.056985,0.968547264 C137.709151,0.968547264 138.230879,1.43810282 138.230879,2.11634826 L138.230879,6.00322388 C138.222189,6.65538308 137.674368,7.50753897 136.700471,8.85533665 L126.170259,23.8898076 C130.083224,23.7941625 134.213572,24.3767529 137.761323,26.3767131 C138.561307,26.8288756 138.778693,27.4897313 138.839562,28.1418972 L138.839562,32.9852736 C138.839562,33.6461294 138.109141,34.4200199 137.34394,34.0200332 C131.091894,30.7418375 122.787721,30.3853234 115.874823,34.0548159 C115.170491,34.4374163 114.431376,33.6722156 114.431376,33.0113599 L114.431376,28.4114561 C114.431376,27.6723416 114.440066,26.4114925 115.179181,25.2897778 L127.378929,7.79449088 L116.761761,7.79449088 C116.109602,7.79449088 115.587874,7.33363516 115.587874,6.65538308" id="path12"></path>
            <path d="M41.4589818,34.9765307 L35.2765041,34.9765307 C34.6852172,34.933058 34.2156584,34.4895887 34.1721791,33.9243781 L34.1721791,2.1946136 C34.1721791,1.55984411 34.7026036,1.05550249 35.3634594,1.05550249 L41.1285539,1.05550249 C41.7285473,1.08157214 42.2067927,1.54244776 42.2502753,2.11634826 L42.2502753,6.26409287 L42.3633167,6.26409287 C43.8676318,2.25547595 46.6936551,0.385950249 50.5022753,0.385950249 C54.3717579,0.385950249 56.7890978,2.25547595 58.5281924,6.26409287 C60.0238143,2.25547595 63.4237413,0.385950249 67.0671476,0.385950249 C69.658398,0.385950249 72.4931211,1.45549254 74.2235191,3.85544279 C76.18,6.52495191 75.7800066,10.403131 75.7800066,13.8030647 L75.7713167,33.828733 C75.7713167,34.4635025 75.2408922,34.9765307 74.5800365,34.9765307 L68.4062488,34.9765307 C67.7888756,34.933058 67.2932338,34.4374163 67.2932338,33.828733 L67.2932338,17.0116915 C67.2932338,15.6725904 67.4149652,12.333529 67.1193234,11.0639867 C66.6584643,8.93360199 65.2758839,8.33360862 63.4846136,8.33360862 C61.9889917,8.33360862 60.4238076,9.33358872 59.7890381,10.9335589 C59.1542687,12.5335257 59.2151376,15.2117247 59.2151376,17.0116915 L59.2151376,33.828733 C59.2151376,34.4635025 58.6847131,34.9765307 58.0238574,34.9765307 L51.8500763,34.9765307 C51.2240033,34.933058 50.7370547,34.4374163 50.7370547,33.828733 L50.7283582,17.0116915 C50.7283582,13.4726368 51.3109486,8.26404643 46.9197413,8.26404643 C42.4763516,8.26404643 42.650262,13.342199 42.650262,17.0116915 L42.650262,33.828733 C42.650262,34.4635025 42.1198375,34.9765307 41.4589818,34.9765307" id="path14"></path>
            <path d="M155.726166,0.385950249 C164.899887,0.385950249 169.864998,8.26404643 169.864998,18.2812305 C169.864998,27.9592869 164.378153,35.6373864 155.726166,35.6373864 C146.717655,35.6373864 141.813406,27.7592902 141.813406,17.9421061 C141.813406,8.06404975 146.778524,0.385950249 155.726166,0.385950249 M155.778335,6.8640796 C151.221914,6.8640796 150.934959,13.0726401 150.934959,16.9421294 C150.934959,20.8203085 150.87409,29.0983947 155.726166,29.0983947 C160.51737,29.0983947 160.743453,22.4202786 160.743453,18.3507894 C160.743453,15.6725904 160.630411,12.4726567 159.821728,9.93357546 C159.12609,7.72493201 157.743516,6.8640796 155.778335,6.8640796" id="path16"></path>
            <path d="M181.760405,34.9765307 L175.604013,34.9765307 C174.98663,34.933058 174.490988,34.4374163 174.490988,33.828733 L174.482299,2.09026202 C174.534471,1.50766501 175.047506,1.05550249 175.673579,1.05550249 L181.403897,1.05550249 C181.943012,1.08157214 182.386481,1.44679934 182.508222,1.94244113 L182.508222,6.79451078 L182.621257,6.79451078 C184.351662,2.45547264 186.777692,0.385950249 191.047167,0.385950249 C193.821022,0.385950249 196.525317,1.38593035 198.264411,4.12500166 C199.881768,6.6640796 199.881768,10.9335589 199.881768,14.0030547 L199.881768,33.9765572 C199.812206,34.5330614 199.299171,34.9765307 198.690494,34.9765307 L192.49062,34.9765307 C191.92541,34.933058 191.455854,34.515675 191.394992,33.9765572 L191.394992,16.7421327 C191.394992,13.2726401 191.794982,8.19448093 187.525502,8.19448093 C186.021191,8.19448093 184.638607,9.20316086 183.951665,10.7335589 C183.082123,12.6726534 182.969081,14.6030481 182.969081,16.7421327 L182.969081,33.828733 C182.960391,34.4635025 182.421267,34.9765307 181.760411,34.9765307" id="path18"></path>
            <g id="use28" transform="translate(81.050478, 0.000000)">
                <path d="M18.3377317,19.8203284 L18.3377317,18.4812272 C13.8682554,18.4812272 9.14661692,19.437728 9.14661692,24.7071808 C9.14661692,27.3766899 10.529194,29.1853532 12.903058,29.1853532 C14.6421526,29.1853532 16.1986401,28.1158109 17.1812338,26.3767131 C18.398594,24.2376252 18.3377317,22.2289718 18.3377317,19.8203284 M24.5723818,34.8895755 C24.1636952,35.2547861 23.5723983,35.2808723 23.1115393,35.037403 C21.0594133,33.3330912 20.6941993,32.5418043 19.5637881,30.9157512 C16.1725539,34.3765473 13.7726103,35.4113035 9.37269652,35.4113035 C4.17280265,35.4113035 0.120719735,32.2026766 0.120719735,25.7767297 C0.120719735,20.7594395 2.84240133,17.3421194 6.71188391,15.6725904 C10.068335,14.1943549 14.755194,13.9334959 18.3377317,13.5248093 L18.3377317,12.7248259 C18.3377317,11.2552869 18.4507731,9.51619237 17.5899207,8.24666003 C16.8334096,7.10754892 15.3899668,6.63799337 14.1204245,6.63799337 C11.7639569,6.63799337 9.65964842,7.84666335 9.14661692,10.3509585 C9.04226866,10.9074726 8.63358209,11.4552869 8.07707463,11.4813731 L2.07720066,10.8379038 C1.57286235,10.724869 1.01635158,10.3161758 1.15547927,9.54228524 C2.5380597,2.27287231 9.10313765,0.0816086235 14.9812803,0.0816086235 C17.9899075,0.0816086235 21.920259,0.88159204 24.2941231,3.15980431 C27.3027599,5.96844113 27.0158046,9.71618905 27.0158046,13.7943682 L27.0158046,23.4289486 C27.0158046,26.3245439 28.2157847,27.5940763 29.346196,29.159267 C29.7461861,29.7157711 29.8331413,30.3853234 29.328803,30.8027065 C28.0679605,31.8548624 25.824531,33.8113433 24.5897682,34.9069718 L24.5723818,34.8895589" id="path30"></path>
            </g>
            <path d="M18.3377317,19.8203284 L18.3377317,18.4812272 C13.8682554,18.4812272 9.14661692,19.437728 9.14661692,24.7071808 C9.14661692,27.3766899 10.529194,29.1853532 12.903058,29.1853532 C14.6421526,29.1853532 16.1986401,28.1158109 17.1812338,26.3767131 C18.398594,24.2376252 18.3377317,22.2289718 18.3377317,19.8203284 M24.5723818,34.8895755 C24.1636952,35.2547861 23.5723983,35.2808723 23.1115393,35.037403 C21.0594133,33.3330912 20.6941993,32.5418043 19.5637881,30.9157512 C16.1725539,34.3765473 13.7726103,35.4113035 9.37269652,35.4113035 C4.17280265,35.4113035 0.120719735,32.2026766 0.120719735,25.7767297 C0.120719735,20.7594395 2.84240133,17.3421194 6.71188391,15.6725904 C10.068335,14.1943549 14.755194,13.9334959 18.3377317,13.5248093 L18.3377317,12.7248259 C18.3377317,11.2552869 18.4507731,9.51619237 17.5899207,8.24666003 C16.8334096,7.10754892 15.3899668,6.63799337 14.1204245,6.63799337 C11.7639569,6.63799337 9.65964842,7.84666335 9.14661692,10.3509585 C9.04226866,10.9074726 8.63358209,11.4552869 8.07707463,11.4813731 L2.07720066,10.8379038 C1.57286235,10.724869 1.01635158,10.3161758 1.15547927,9.54228524 C2.5380597,2.27287231 9.10313765,0.0816086235 14.9812803,0.0816086235 C17.9899075,0.0816086235 21.920259,0.88159204 24.2941231,3.15980431 C27.3027599,5.96844113 27.0158046,9.71618905 27.0158046,13.7943682 L27.0158046,23.4289486 C27.0158046,26.3245439 28.2157847,27.5940763 29.346196,29.159267 C29.7461861,29.7157711 29.8331413,30.3853234 29.328803,30.8027065 C28.0679605,31.8548624 25.824531,33.8113433 24.5897682,34.9069718 L24.5723818,34.8895589" id="path30"></path>
        </g>
    </g>
</svg>