<?xml version="1.0" encoding="UTF-8"?>
<svg preserveAspectRatio="xMidYMid slice" width="220px" height="220px" xmlns="http://www.w3.org/2000/svg" xmlns:xlink="http://www.w3.org/1999/xlink" viewBox="0 0 220 220">
  <defs>
    <style>.cls-1{fill:none;}.cls-2{fill:#de1f26;}.cls-3{clip-path:url(#clip-path);}.cls-4{clip-path:url(#clip-path-2);}.cls-5{fill:#fff;}</style>
    <clipPath id="clip-path">
      <rect class="cls-1" x="22.61" y="85.57" width="174.79" height="49.44"></rect>
    </clipPath>
    <clipPath id="clip-path-2">
      <rect class="cls-1" x="22.61" y="85.57" width="174.79" height="49.14"></rect>
    </clipPath>
  </defs>
  <title>Asset 144</title>
  <g id="Layer_2" data-name="Layer 2">
    <g id="Layer_1-2" data-name="Layer 1">
      <rect class="cls-2" width="220" height="220"></rect>
      <g class="cls-3">
        <g class="cls-4">
          <path class="cls-5" d="M78.82,117.61H72.91V86.35h6c6.58,0,7.36,3.5,7.36,14.74,0,12.41-.52,16.52-7.41,16.52m0-25.51H77.72v19.8h1.06c2.5,0,2.59-4,2.59-10.46C81.37,94.17,80.92,92.1,78.8,92.1Z"></path>
          <polyline class="cls-5" points="88.55 117.61 88.55 86.35 99.16 86.35 99.16 91.97 93.4 91.97 93.4 99.1 98.4 99.1 98.4 104.42 93.4 104.42 93.4 111.99 99.16 111.99 99.16 117.61"></polyline>
          <polyline class="cls-5" points="110.11 117.61 103.91 117.61 99.83 86.35 104.89 86.35 107.28 109.96 110.11 86.35 114.87 86.35"></polyline>
          <polyline class="cls-5" points="116.43 117.61 116.43 86.35 127.04 86.35 127.04 91.97 121.29 91.97 121.29 99.1 126.29 99.1 126.29 104.42 121.29 104.42 121.29 111.99 127.04 111.99 127.04 117.61"></polyline>
          <polyline class="cls-5" points="129.13 117.61 129.13 86.35 133.98 86.35 133.98 111.86 139.22 111.86 139.22 117.61"></polyline>
          <path class="cls-5" d="M146.93,118.39c-5.33,0-6.86-2.94-6.86-16.09,0-12.62,1.22-16.73,6.86-16.73s6.86,4.19,6.86,16.73c0,13.06-1.53,16.09-6.86,16.09m0-27.11c-2,0-2,2.76-2,11.07,0,7.26,0,10.33,2,10.33s2-3,2-10.38C148.93,94,148.93,91.28,146.93,91.28Z"></path>
          <path class="cls-5" d="M163.42,106.11H161v11.5h-4.86V86.35h7c4.38,0,6.08,2.72,6.08,9.9,0,7.39-1.51,9.86-5.8,9.86m-1-14.1h-1.6v8.48h1.6c1.08,0,2-1.47,2-4.24S163.77,92,162.43,92Z"></path>
          <polyline class="cls-5" points="171.21 117.61 171.21 86.35 181.82 86.35 181.82 91.97 176.06 91.97 176.06 99.1 181.06 99.1 181.06 104.42 176.06 104.42 176.06 111.99 181.82 111.99 181.82 117.61"></polyline>
          <path class="cls-5" d="M192.25,117.61c-.12-1.43-.17-2.38-.17-4.06,0-6.53-.07-8.13-2.24-8.13h-1.08v12.19H183.9V86.35h7.17c3.11,0,5.92.91,5.92,8.43,0,4.32-.71,7-3.14,7.87,2.38.48,3.07,2,3.07,7,0,5.24,0,5.76.33,8M190,92h-1.34v8.21H190c1.53,0,2.19-1.55,2.19-3.89C192.22,92.84,191.38,92,190,92Z"></path>
          <polyline class="cls-5" points="82.51 131.64 82.51 122.5 80.8 131.64 77.24 131.64 75.54 122.41 75.54 131.64 72.87 131.64 72.87 120.44 77.91 120.44 79.07 128.14 80.33 120.44 85.4 120.44 85.4 131.64"></polyline>
          <path class="cls-5" d="M99.69,131.64l-.1-1.08a2.34,2.34,0,0,1-2.32,1.27c-1.64,0-2.65-.72-2.65-2.56,0-2.32,2.15-2.68,4.25-2.68h.57v-.46c0-.86-.14-1.15-.81-1.15-.47,0-.75.33-.75.9v.22h-3c0-2.16,2.5-2.45,3.77-2.45,2.26,0,3.78.48,3.78,2.82v3.17a12.31,12.31,0,0,0,.19,2m-3.18-3.83c-1.35,0-1.82.3-1.82,1.43,0,.68.25,1,.86,1s1-.53,1-1.55Z"></path>
          <path class="cls-5" d="M119.24,125.24v6.57c0,2.29-1.94,2.9-3.9,2.9-1.6,0-3.85-.13-3.85-2.23v-.14h3.05v.1a.86.86,0,0,0,.87.93c.83,0,.86-.68.86-1.81v-1a2.25,2.25,0,0,1-2.28,1.05c-2.33,0-2.61-1.38-2.61-3.57,0-2.59.14-4.37,2.66-4.37,1.19,0,1.87.26,2.31,1.11v-.93h2.91m-4,1.31c-.82,0-.89.74-.89,2.63,0,1.52.09,2.31.93,2.31s1-.58,1-2.36S116.18,125.14,115.26,125.14Z"></path>
          <path class="cls-5" d="M133.37,131.64l-.11-1.08a2.34,2.34,0,0,1-2.32,1.27c-1.64,0-2.65-.72-2.65-2.56,0-2.32,2.15-2.68,4.25-2.68h.58v-.46c0-.86-.15-1.15-.82-1.15-.47,0-.75.33-.75.9v.22h-3c0-2.16,2.5-2.45,3.77-2.45,2.26,0,3.78.48,3.78,2.82v3.17a12.31,12.31,0,0,0,.19,2m-3.17-3.83c-1.36,0-1.83.3-1.83,1.43,0,.68.25,1,.86,1s1-.53,1-1.55Z"></path>
          <polyline class="cls-5" points="144.93 131.64 144.93 130.03 148.08 125.38 145.16 125.38 145.16 123.83 151.46 123.83 151.46 125.37 148.3 130.08 151.46 130.08 151.46 131.64"></polyline>
          <path class="cls-5" d="M160.38,122.47v-2h3v2m-3,9.17v-7.81h3v7.81Z"></path>
          <path class="cls-5" d="M177.46,131.64v-5.11c0-1-.13-1.39-.78-1.39s-.86.35-.86,1.47v5h-3V125l0-1.2h3v.86a2.77,2.77,0,0,1,2.38-1c1.54,0,2.31.62,2.31,2.31v5.68"></path>
          <path class="cls-5" d="M192.5,128.11c0,1.49,0,2.32,1,2.32s.9-.73.9-1.41h3c0,1.95-1.4,2.81-3.81,2.81-2.94,0-4-1.15-4-4.09s1.29-4.09,4-4.09c3.09,0,3.85,1.41,3.85,4.23v.23M193.46,125c-.83,0-.91.9-.91,1.6h1.75C194.3,126,194.32,125,193.46,125Z"></path>
          <polygon class="cls-5" points="30.49 110.17 33.83 110.17 32.01 102.01 30.49 110.17"></polygon>
          <path class="cls-5" d="M47.67,106.21c-1.3,0-1.5,1.35-1.5,4.27,0,3.18.27,4.54,1.46,4.54,1.38,0,1.45-1.38,1.45-4.62C49.08,107.48,49,106.21,47.67,106.21Z"></path>
          <path class="cls-5" d="M61.91,106.21c-1.31,0-1.5,1.35-1.5,4.27,0,3.18.27,4.54,1.45,4.54,1.38,0,1.46-1.38,1.46-4.62C63.32,107.48,63.22,106.21,61.91,106.21Z"></path>
          <path class="cls-5" d="M65.13,85.57H27.75c-3.41,0-5.14,1.68-5.14,5.14v37.15c0,3.52,1.73,5.37,5.25,5.37H64.94c3.41,0,5.34-1.76,5.34-5.37V90.71C70.28,87.34,68.55,85.57,65.13,85.57Zm-9.51,18.5h4.6v1.56a3.45,3.45,0,0,1,3.36-1.88c3.88,0,4.39,2.64,4.39,6.63,0,3.65-.2,7.14-4.68,7.14a3.25,3.25,0,0,1-3-1.56v6.31H55.64v-16Zm-14.24,0H46v1.56a3.45,3.45,0,0,1,3.36-1.88c3.88,0,4.39,2.64,4.39,6.63,0,3.65-.2,7.14-4.68,7.14a3.25,3.25,0,0,1-3-1.56v6.31H41.4v-16Zm-.94,13.14H35.21l-.78-3.7H30.08l-.78,3.7H24.22l4.45-18.85h7Z"></path>
        </g>
      </g>
    </g>
  </g>
</svg>
