<svg xmlns="http://www.w3.org/2000/svg" viewBox="0 0 54 17"><path d="M7.6,3.49A3.17,3.17,0,0,0,4.87,4.81a6.18,6.18,0,0,0-1,3.69c0,3.27,1.24,4.91,3.7,4.91a11.56,11.56,0,0,0,3.75-.77v2.61a10.33,10.33,0,0,1-4,.76,6.15,6.15,0,0,1-4.9-2A8.19,8.19,0,0,1,.7,8.48a9.22,9.22,0,0,1,.83-4,6.12,6.12,0,0,1,2.4-2.65A7.12,7.12,0,0,1,7.6.89a9.91,9.91,0,0,1,4.3,1l-1,2.53a15.66,15.66,0,0,0-1.66-.68A5,5,0,0,0,7.6,3.49Z"/><path d="M22.94,15.81H14.47V1.1h8.47V3.66H17.59V6.89h5V9.44h-5v3.79h5.35Z"/><path d="M29.13,10.17v5.64H26V1.1h4.28a7.33,7.33,0,0,1,4.44,1.1,3.88,3.88,0,0,1,1.44,3.31,3.91,3.91,0,0,1-.72,2.31,4.7,4.7,0,0,1-2,1.58c2.21,3.31,3.66,5.44,4.33,6.41H34.3l-3.51-5.64Zm0-2.54h1a3.86,3.86,0,0,0,2.19-.49A1.79,1.79,0,0,0,33,5.59,1.61,1.61,0,0,0,32.3,4.1a4.42,4.42,0,0,0-2.23-.44h-.94Z"/><path d="M52.65,15.81h-4L42.29,4.69H42.2c.13,2,.19,3.36.19,4.2v6.92H39.61V1.1h3.93l6.38,11H50c-.1-1.91-.15-3.26-.15-4.06v-7h2.81Z"/></svg>