<svg xmlns="http://www.w3.org/2000/svg" viewBox="0 0 500 500"><defs><style>.a{fill:#fff;}</style></defs><path class="a" d="M105.19,218.93a32.26,32.26,0,0,1-18.87,5.69c-18.41,0-30.94-11.61-30.94-29.29s13.29-29.28,31.37-29.28a55.49,55.49,0,0,1,19.58,4.09,33,33,0,0,0-2,6.55l-.49.16c-3.48-3.85-9.07-7.18-17.34-7.18-10.49,0-22.58,8.5-22.58,25.45,0,16.5,12.31,25.27,23.32,25.27,9.89,0,14.62-4.61,18.87-8.2l.33.32Z"/><path class="a" d="M150.77,220.56a24.83,24.83,0,0,1,.2-3.13c-5.58.51-20.9,1-26.88,1.06-.1-1.49-.23-19.19-.08-21.93,2.39,0,15,.17,20.65.74a17.13,17.13,0,0,1-.24-2.85,20.13,20.13,0,0,1,.24-3.1c-4.82.41-11,.81-20.65.81,0-2,.16-17,.25-20.47,10.63,0,20.25.66,25.64,1.06a20.17,20.17,0,0,1-.2-2.82,17.9,17.9,0,0,1,.2-2.79c-2.84.19-12,.41-16.9.41s-12.48-.17-17.39-.41c.34,7,.66,14.07.66,21.1v14.07c0,7-.32,14.15-.66,21.26,5-.24,12.65-.41,17.64-.41H134c1.72,0,3.88,0,6.11.06,3.87.07,7.95.19,10.89.34h0A20.57,20.57,0,0,1,150.77,220.56Z"/><path class="a" d="M169.09,195.89v6.5c0,7,.33,14.15.66,21.18a36.4,36.4,0,0,0-8.85,0c.33-7,.66-14.15.66-21.18V188.33c0-7-.33-14.15-.66-21.19,3.11.24,7,.41,10.15.41s6.22-.41,9.33-.41c9.24,0,17.71,2.73,17.71,13,0,10.89-10.85,14.8-17.07,15.62,4,5,18.37,22.48,23.12,27.79a44.85,44.85,0,0,0-5.13-.27,43.87,43.87,0,0,0-5.12.27c-3.24-4.92-13.59-20.44-20.63-27.69Zm5.48-3c6.76-.14,15.63-2.28,15.63-11.62,0-8.13-7.12-10.72-12.68-10.72a76.24,76.24,0,0,0-7.93.41c-.26,6-.5,11.46-.5,17.36v4.49C169.91,192.93,173.74,192.91,174.57,192.9Z"/><path class="a" d="M261.51,167.11a20.38,20.38,0,0,1-3.58.3,20,20,0,0,1-3.49-.3c.36,6.7,1,19.11,1,27.23,0,6.12,0,11.46-.08,14.49-3-3.17-37.1-38.49-40.57-42.26l-2.68,0c.13,5.2.27,10.85.27,21.15,0,13.19-.18,27.23-.86,35.87a21.56,21.56,0,0,1,3.59-.29,21.3,21.3,0,0,1,3.49.29c-.36-6.69-1-19.1-1-27.23,0-6.11,0-12.41.09-15.43,3,3.17,37.29,39,40.56,43.4l2.68,0c-.12-5.21-.27-11.05-.27-21.36C260.65,189.79,260.84,175.76,261.51,167.11Z"/><path class="a" d="M112.63,314.46a135.93,135.93,0,0,1-21.28-68.78H83.92a143.41,143.41,0,0,0,16.72,63.07C103.25,310.86,109.41,313.55,112.63,314.46Z"/><path class="a" d="M412.78,60.91S228,59.44,169,59.47c-9.23,0-15.42.66-17.41.79C78.81,65,24.07,128.8,23.83,198.41c-.07,20.24,5.32,43,14.07,73.83C49.46,312.91,63,359.57,63,359.57h7.39l-27.3-92.09.21-.13c20,38.72,66.27,69.85,118.71,69.85,28.3,0,54.55-7.93,75.24-22.52l.18.17L116,444.05h9.49s85.25-90.7,114.24-121.5c22.23-23.6,33.77-38.8,38.61-46.69,5.53-9.05,23.15-35.14,22.48-73.56l.24,0,53.2,241.78h7.64s-44.64-197.89-53.3-239.28c-8.53-40.72-18.6-66-29.46-80.39a61.86,61.86,0,0,0-12.31-5.09c15.78,19.9,27.56,49.51,27.56,79.13C294.4,271,235.4,330,162.88,330S31.35,271,31.35,198.42,90.57,66.9,162.92,66.9a131.23,131.23,0,0,1,84.87,31.22,79.69,79.69,0,0,1,13.92,3.27l0-.07a137.39,137.39,0,0,0-59.89-35v-.19L412.78,67.4Z"/><path class="a" d="M131.08,337.85A64.36,64.36,0,0,1,117,334c15.83,18,37.62,32.44,59,40.53l5.61-6a133.35,133.35,0,0,1-50.51-30.7"/><path class="a" d="M324.58,327.33a131,131,0,0,1-101.81,48.06,127.9,127.9,0,0,1-25-2.48l-6,6.38a137.36,137.36,0,0,0,31.42,3.65,139,139,0,0,0,103.38-46.56l-2-9.05"/><path class="a" d="M373.5,93.89,360.83,224.7h-.24c-1.8-24.69-14.1-54.18-29.31-72.82-26.39-32.37-65.11-51.9-108.6-51.9-41.47,0-78.42,18.39-103.84,47.24l5.82,4.61c24-27.15,58.42-44.56,98-44.56,48.21,0,87.48,24.71,109.44,58.29,19.61,30,26.11,68.38,21.56,96.51A131.8,131.8,0,0,1,336,311l2.21,9.75c15.54-24.08,23.42-45.51,29.56-100.29,4.73-42,12.83-126.58,12.83-126.58Z"/></svg>