<svg xmlns="http://www.w3.org/2000/svg" viewBox="0 0 500 500"><defs><style>.a{fill:#fff;}</style></defs><path class="a" d="M113.18,209.19c-2.38,1.8-10.63,6.94-23.05,6.94-22.47,0-37.78-14.17-37.78-35.76s16.24-35.76,38.31-35.76a67.68,67.68,0,0,1,23.91,5,39.68,39.68,0,0,0-2.49,8l-.6.19c-4.25-4.7-11.07-8.77-21.17-8.77-12.82,0-27.57,10.39-27.57,31.08,0,20.15,15,30.86,28.47,30.86,12.08,0,17.85-5.62,23.05-10l.39.39Z"/><path class="a" d="M168.84,211.18a30.38,30.38,0,0,1,.24-3.82c-6.81.62-25.52,1.19-32.82,1.29-.13-1.82-.28-23.44-.1-26.78,2.92,0,18.33.2,25.22.9a21.4,21.4,0,0,1-.3-3.47,25.26,25.26,0,0,1,.3-3.79c-5.89.5-13.43,1-25.22,1,0-2.49.2-20.71.3-25,13,0,24.73.81,31.31,1.3a25.07,25.07,0,0,1-.23-3.45,23.13,23.13,0,0,1,.23-3.41c-3.46.24-14.64.5-20.63.5s-15.24-.2-21.23-.5c.4,8.49.8,17.19.8,25.78V188.9c0,8.59-.4,17.27-.8,26,6.09-.3,15.44-.5,21.54-.5h.88c2.09,0,4.73,0,7.46.08,4.72.09,9.7.24,13.29.42h0A26.31,26.31,0,0,1,168.84,211.18Z"/><path class="a" d="M191.21,181.05V189c0,8.59.4,17.28.81,25.87a44.43,44.43,0,0,0-10.81,0c.4-8.59.8-17.28.8-25.87V171.82c0-8.6-.4-17.28-.8-25.88,3.79.3,8.61.5,12.4.5s7.59-.5,11.39-.5c11.28,0,21.62,3.34,21.62,15.91,0,13.3-13.25,18.07-20.84,19.07,4.89,6.09,22.43,27.45,28.22,33.94a53.09,53.09,0,0,0-6.26-.33,52.06,52.06,0,0,0-6.25.33c-4-6-16.59-25-25.19-33.81Zm6.69-3.65c8.25-.17,19.09-2.78,19.09-14.19,0-9.93-8.7-13.09-15.49-13.09a91.53,91.53,0,0,0-9.69.51c-.3,7.29-.6,14-.6,21.19v5.49C192.2,177.44,196.89,177.41,197.9,177.4Z"/><path class="a" d="M304.06,145.91a25.54,25.54,0,0,1-4.37.37,24.69,24.69,0,0,1-4.26-.37c.44,8.18,1.19,23.33,1.19,33.25,0,7.47,0,14-.11,17.69-3.62-3.87-45.3-47-49.54-51.6l-3.26,0c.15,6.36.33,13.25.33,25.83,0,16.11-.23,33.25-1,43.81a24.72,24.72,0,0,1,4.38-.36,25,25,0,0,1,4.26.36c-.44-8.18-1.2-23.33-1.2-33.25,0-7.47,0-15.16.11-18.85,3.63,3.87,45.54,47.58,49.53,53l3.28,0c-.15-6.36-.34-13.5-.34-26.08C303,173.61,303.25,156.47,304.06,145.91Z"/><path class="a" d="M122.27,325.83a166,166,0,0,1-26-84H87.2a175.27,175.27,0,0,0,20.42,77C110.81,321.44,118.34,324.73,122.27,325.83Z"/><path class="a" d="M488.78,16.22s-225.7-1.79-297.66-1.75c-11.26,0-18.82.8-21.26,1C81,21.18,14.12,99.13,13.83,184.13c-.09,24.72,6.5,52.56,17.18,90.15,14.12,49.66,30.65,106.64,30.65,106.64h9L37.35,268.48l.25-.17c24.48,47.29,80.92,85.3,145,85.3,34.56,0,66.61-9.68,91.86-27.5l.23.21L126.39,484.09H138S242.08,373.33,277.49,335.72c27.14-28.81,41.23-47.38,47.14-57,6.75-11.05,28.26-42.9,27.45-89.82l.29,0,65,295.23h9.32s-54.51-241.65-65.08-292.19c-10.42-49.72-22.72-80.57-36-98.16a75.34,75.34,0,0,0-15-6.21c19.26,24.29,33.65,60.45,33.65,96.63,0,88.56-72.05,160.61-160.61,160.61S23,272.71,23,184.15,95.32,23.54,183.68,23.54A160.31,160.31,0,0,1,287.32,61.66a98.09,98.09,0,0,1,17,4l0-.08A167.68,167.68,0,0,0,231.2,22.79v-.23l257.58,1.6Z"/><path class="a" d="M144.79,354.41a79.64,79.64,0,0,1-17.23-4.73c19.34,22,45.94,39.61,72.06,49.49l6.85-7.28a163.06,163.06,0,0,1-61.68-37.48"/><path class="a" d="M381.07,341.56a160,160,0,0,1-124.31,58.69,156,156,0,0,1-30.51-3L218.91,405a167.61,167.61,0,0,0,38.37,4.47c52.6,0,97.6-24.56,126.23-56.87l-2.44-11"/><path class="a" d="M440.82,56.5,425.34,216.23h-.29c-2.2-30.15-17.22-66.16-35.79-88.92C357,87.79,309.76,63.93,256.65,63.93c-50.64,0-95.76,22.47-126.8,57.69l7.11,5.63c29.33-33.16,71.33-54.41,119.69-54.41,58.87,0,106.82,30.17,133.64,71.18,23.94,36.6,31.88,83.5,26.33,117.85a161.17,161.17,0,0,1-21.55,59.75l2.71,11.9c19-29.41,28.59-55.57,36.09-122.46,5.77-51.31,15.66-154.57,15.66-154.57Z"/></svg>