<svg xmlns="http://www.w3.org/2000/svg" xmlns:xlink="http://www.w3.org/1999/xlink" viewBox="0 0 600.06 164.03"><defs><style>.a{fill:#fff;}.b{fill:url(#a);}.c{fill:url(#b);}.d{fill:url(#c);}</style><linearGradient id="a" x1="85.91" y1="103.3" x2="649.06" y2="103.3" gradientTransform="matrix(1, 0, 0, -1, 0, 133.89)" gradientUnits="userSpaceOnUse"><stop offset="0" stop-color="#f68c21"/><stop offset="1" stop-color="#f16324"/></linearGradient><linearGradient id="b" x1="85.91" y1="-35.51" x2="649.06" y2="-35.51" xlink:href="#a"/><linearGradient id="c" x1="85.91" y1="34.15" x2="649.06" y2="34.15" xlink:href="#a"/></defs><path class="a" d="M131.25,180.89H115V83.59h16.3v11.9c5.8-8.3,15.5-13,26.8-13a37.53,37.53,0,0,1,5.8.4l1.2.2v17.4l-1.7-.4a42.4,42.4,0,0,0-8.7-.9c-13.7,0-23.3,10.1-23.3,24.6Z" transform="translate(-9.99 -17.99)"/><path class="a" d="M320.75,180.69c16.1,0,27.7-5,37.7-16.2l.9-1L349,152.69l-1,1c-7.4,7.8-14.2,12.4-27.1,12.4-18.1,0-30-11.7-31.2-30.5h73.5l.1-1.3c.2-2.7.2-5.7.2-5.8,0-13.3-4.1-25.4-11.6-34.2-7.9-9.3-18.7-14.2-31.3-14.2-27.9,0-47.3,21.2-47.3,51.6v.7C273.15,161.29,292.25,180.69,320.75,180.69Zm-30.2-59.5c1.6-14.2,14.7-25.6,29.9-25.6,14.1,0,25.6,11.3,26.3,25.6Z" transform="translate(-9.99 -17.99)"/><rect class="a" x="170.96" y="65.5" width="16.3" height="97.4"/><path class="a" d="M253.25,182c-5,0-12.4-.5-18.2-5-6.4-4.8-9.6-13.3-9.6-25.1v-91h16.3V83.4H263V98.8H241.8v53.1c0,12.3,4.3,14.7,11.3,14.7a45.21,45.21,0,0,0,8.3-.5l1.6-.3v15l-1,.3A31.84,31.84,0,0,1,253.25,182Z" transform="translate(-9.99 -17.99)"/><path class="a" d="M423.65,182a49.27,49.27,0,0,0,35.2-14.4,52.66,52.66,0,0,0,0-73,50.22,50.22,0,0,0-70.4,0,50.8,50.8,0,0,0-14.6,36.5,51.13,51.13,0,0,0,14.7,36.6A48.78,48.78,0,0,0,423.65,182Zm0-86.4a32.73,32.73,0,0,1,24,10.1c6.1,6.5,9.5,15.5,9.5,25.4s-3.4,18.9-9.5,25.4a33.59,33.59,0,0,1-47.4.6l-.6-.6c-6.1-6.5-9.5-15.5-9.5-25.4s3.4-18.9,9.5-25.4a32.7,32.7,0,0,1,24-10.11Z" transform="translate(-9.99 -17.99)"/><path class="a" d="M60.15,182a50.13,50.13,0,0,1-35.5-14.4A50.74,50.74,0,0,1,10,131.09a50.91,50.91,0,0,1,14.7-36.5,50,50,0,0,1,35.5-14.4c14.2,0,26.6,5,35.7,14.4l.9.9-10,11.9-1-1.1c-6.6-7-15.4-10.7-25.6-10.7A33.34,33.34,0,0,0,36,105.69c-6.2,6.5-9.6,15.5-9.6,25.4s3.4,18.9,9.6,25.4a32.93,32.93,0,0,0,24.2,10.1A34.42,34.42,0,0,0,85.65,156l1-1.1,10,11.8-.9.9C86.75,177.09,74.45,182,60.15,182Z" transform="translate(-9.99 -17.99)"/><path class="b" d="M189.05,43.19a12.6,12.6,0,1,1,12.5-12.7v.1a12.53,12.53,0,0,1-12.46,12.6Z" transform="translate(-9.99 -17.99)"/><path class="c" d="M597.55,182a12.6,12.6,0,1,1,12.5-12.7v.1A12.53,12.53,0,0,1,597.59,182Z" transform="translate(-9.99 -17.99)"/><path class="d" d="M562,163.49H528.8a15.53,15.53,0,0,1-15.5-15.56V50.09A25.37,25.37,0,0,0,488,24.69H224.9V36H486.4a15.51,15.51,0,0,1,15.5,15.5h0v97.8a25.46,25.46,0,0,0,25.4,25.5h34.6V163.5Z" transform="translate(-9.99 -17.99)"/></svg>