<svg width="157" height="24" viewBox="0 0 157 24" version="1.1" xmlns="http://www.w3.org/2000/svg" xmlns:xlink="http://www.w3.org/1999/xlink">
<title>logo-lightstep</title>
<desc>Created using Figma</desc>
<g id="Canvas" transform="translate(-2390 -1248)">
<g id="logo-lightstep">
<g id="Vector">
<use xlink:href="#path0_fill" transform="translate(2396.62 1259.81)" fill="#2B3E77"/>
</g>
<g id="Vector">
<use xlink:href="#path1_fill" transform="translate(2390 1253.53)" fill="#4A5984"/>
</g>
<g id="Vector">
<use xlink:href="#path2_fill" transform="translate(2393.69 1248)" fill="#6F7A9B"/>
</g>
<g id="Group">
<g id="Vector">
<use xlink:href="#path3_fill" transform="translate(2437.88 1253.2)" fill="#212529"/>
</g>
<g id="Vector">
<use xlink:href="#path4_fill" transform="translate(2449.04 1253.2)" fill="#212529"/>
</g>
<g id="Vector">
<use xlink:href="#path5_fill" transform="translate(2454.89 1252.98)" fill="#212529"/>
</g>
<g id="Vector">
<use xlink:href="#path6_fill" transform="translate(2471.13 1253.2)" fill="#212529"/>
</g>
<g id="Vector">
<use xlink:href="#path7_fill" transform="translate(2485.58 1253.2)" fill="#212529"/>
</g>
<g id="Vector">
<use xlink:href="#path8_fill" transform="translate(2498.24 1252.99)" fill="#212529"/>
</g>
<g id="Vector">
<use xlink:href="#path9_fill" transform="translate(2510.96 1253.19)" fill="#212529"/>
</g>
<g id="Vector">
<use xlink:href="#path10_fill" transform="translate(2524.21 1253.2)" fill="#212529"/>
</g>
<g id="Vector">
<use xlink:href="#path11_fill" transform="translate(2536.69 1253.2)" fill="#212529"/>
</g>
</g>
</g>
</g>
<defs>
<path id="path0_fill" d="M -1.14013e-07 12.1943L 12.3587 12.1943C 16.0498 12.1943 18.7248 10.0573 20.7123 7.18804C 21.9078 5.45454 23.1183 3.91532 25.4047 3.91532L 32.8917 3.91532L 32.8917 0L 22.5504 0C 20.264 0 19.0386 1.53923 17.8431 3.27273C 15.8555 6.14197 13.1806 8.27895 9.48941 8.27895L -1.14013e-07 8.27895L -1.14013e-07 12.1943Z"/>
<path id="path1_fill" d="M 0 13.1806L 15.3176 13.1806C 19.0087 13.1806 21.6837 11.0436 23.6712 8.17435C 24.8667 6.44085 26.0772 4.90162 28.3636 4.90162L 42.9191 4.90162L 42.9191 0L 28.3636 0C 23.8506 0 22.5056 2.1071 20.6376 4.55791C 19.2777 6.36613 17.7983 8.27895 15.3026 8.27895L 0 8.27895L 0 13.1806Z"/>
<path id="path2_fill" d="M 1.14013e-07 12.523L 10.655 12.523C 13.1656 12.523 14.6152 10.6102 15.99 8.80199C 17.8431 6.35118 19.203 4.24408 23.7161 4.24408L 31.8605 4.24408L 31.8605 0L 21.6239 0C 17.1108 0 15.7659 2.1071 13.8979 4.55791C 12.538 6.36613 11.0735 8.27895 8.56289 8.27895L 1.14013e-07 8.27895L 1.14013e-07 12.523Z"/>
<path id="path3_fill" d="M -9.12107e-07 13.1507L -9.12107e-07 -1.14013e-07L 2.30137 -1.14013e-07L 2.30137 11.1332L 8.09963 11.1332L 8.09963 13.1656L -9.12107e-07 13.1656L -9.12107e-07 13.1507Z"/>
<path id="path4_fill" d="M 9.12107e-07 13.1507L 9.12107e-07 -1.14013e-07L 2.30137 -1.14013e-07L 2.30137 13.1507L 9.12107e-07 13.1507Z"/>
<path id="path5_fill" d="M 1.82421e-06 6.7995C 1.82421e-06 2.67497 3.0934 -1.14013e-07 6.90411 -1.14013e-07C 9.47447 -1.14013e-07 11.1482 1.2254 12.2092 2.73474L 10.3113 3.79577C 9.62391 2.80946 8.38356 2.04732 6.90411 2.04732C 4.30386 2.04732 2.36115 4.04981 2.36115 6.7995C 2.36115 9.56413 4.28892 11.5666 6.90411 11.5666C 8.24907 11.5666 9.42964 10.939 10.0274 10.3861L 10.0274 8.33873L 6.09714 8.33873L 6.09714 6.30635L 12.3288 6.30635L 12.3288 11.2379C 11.0286 12.6725 9.19053 13.6289 6.90411 13.6289C 3.0934 13.6289 1.82421e-06 10.924 1.82421e-06 6.7995Z"/>
<path id="path6_fill" d="M 9.1457 13.1507L 9.1457 7.4122L 2.30137 7.4122L 2.30137 13.1507L 3.64843e-06 13.1507L 3.64843e-06 -1.14013e-07L 2.30137 -1.14013e-07L 2.30137 5.37983L 9.1457 5.37983L 9.1457 -1.14013e-07L 11.4471 -1.14013e-07L 11.4471 13.1507L 9.1457 13.1507L 9.1457 13.1507Z"/>
<path id="path7_fill" d="M 3.99004 13.1507L 3.99004 2.01743L -3.64843e-06 2.01743L -3.64843e-06 -1.14013e-07L 10.2814 -1.14013e-07L 10.2814 2.03238L 6.29141 2.03238L 6.29141 13.1656L 3.99004 13.1656L 3.99004 13.1507Z"/>
<path id="path8_fill" d="M -1.82421e-06 11.5068L 0.971355 10.2665C 1.83811 11.2379 3.25778 12.1345 5.11083 12.1345C 7.45704 12.1345 8.20424 10.8792 8.20424 9.86301C 8.20424 6.47073 0.418427 8.33873 0.418427 3.64633C 0.418427 1.47945 2.3462 2.28027e-07 4.9315 2.28027e-07C 6.94894 2.28027e-07 8.50311 0.672478 9.60896 1.83811L 8.62266 3.04857C 7.63636 1.95766 6.26152 1.46451 4.81195 1.46451C 3.2279 1.46451 2.1071 2.31631 2.1071 3.55666C 2.1071 6.51557 9.8929 4.81195 9.8929 9.72852C 9.8929 11.6413 8.59278 13.599 5.03611 13.599C 2.74969 13.599 1.07596 12.7323 -1.82421e-06 11.5068Z"/>
<path id="path9_fill" d="M 4.16936 13.1656L 4.16936 1.46451L 3.64843e-06 1.46451L 3.64843e-06 1.14013e-07L 9.98257 1.14013e-07L 9.98257 1.46451L 5.79826 1.46451L 5.79826 13.1656L 4.16936 13.1656Z"/>
<path id="path10_fill" d="M -3.64843e-06 13.1507L -3.64843e-06 -1.14013e-07L 8.62266 -1.14013e-07L 8.62266 1.46451L 1.62889 1.46451L 1.62889 5.70859L 8.47322 5.70859L 8.47322 7.1731L 1.62889 7.1731L 1.62889 11.6862L 8.60772 11.6862L 8.60772 13.1507L -3.64843e-06 13.1507Z"/>
<path id="path11_fill" d="M -3.64843e-06 13.1507L -3.64843e-06 -1.14013e-07L 5.29016 -1.14013e-07C 7.93524 -1.14013e-07 9.41469 1.80822 9.41469 3.96015C 9.41469 6.11208 7.89041 7.9203 5.29016 7.9203L 1.64383 7.9203L 1.64383 13.1507L -3.64843e-06 13.1507ZM 7.71108 3.96015C 7.71108 2.4807 6.65006 1.44956 5.08094 1.44956L 1.62889 1.44956L 1.62889 6.45579L 5.08094 6.45579C 6.65006 6.47073 7.71108 5.4396 7.71108 3.96015Z"/>
</defs>
</svg>
