<?xml version="1.0" encoding="UTF-8"?>
<svg width="200px" height="75px" viewBox="0 0 200 75" version="1.1" xmlns="http://www.w3.org/2000/svg" xmlns:xlink="http://www.w3.org/1999/xlink">
    <!-- Generator: Sketch 50.2 (55047) - http://www.bohemiancoding.com/sketch -->
    <title>plaid logo horizontal (Web)</title>
    <desc>Created with Sketch.</desc>
    <defs></defs>
    <g id="Page-1" stroke="none" stroke-width="1" fill="none" fill-rule="evenodd">
        <g id="plaid-logo-horizontal-(Web)" fill="#000000" fill-rule="nonzero">
            <g id="Group" transform="translate(87.188612, 23.487544)">
                <path d="M9.78647687,13.024911 L6.90391459,13.024911 L6.90391459,6.51245552 L9.50177936,6.51245552 C12.633452,6.51245552 14.2348754,7.61565836 14.2348754,9.78647687 C14.1992883,11.9572954 12.7402135,13.024911 9.78647687,13.024911 M17.7580071,2.31316726 C16.0854093,0.925266904 13.2384342,0.213523132 9.21708185,0.213523132 L0.106761566,0.213523132 L0.106761566,28.0427046 L6.90391459,28.0427046 L6.90391459,19.3238434 L9.96441281,19.3238434 C13.6654804,19.3238434 16.3701068,18.5053381 18.113879,16.9039146 C20.0711744,15.088968 21.0320285,12.7046263 21.0320285,9.6797153 C20.9964413,6.58362989 19.9288256,4.12811388 17.7580071,2.31316726" id="Shape"></path>
                <polygon id="Shape" points="32.6690391 0.213523132 25.5516014 0.213523132 25.5516014 28.0782918 40.8896797 28.0782918 40.8896797 21.7437722 32.6690391 21.7437722"></polygon>
                <path d="M54.6975089,18.3629893 L57.6156584,8.86120996 L60.4982206,18.3629893 L54.6975089,18.3629893 Z M54.7686833,0.213523132 L43.6298932,28.0427046 L51.2811388,28.0427046 L52.7402135,23.9857651 L62.4199288,23.9857651 L63.772242,28.0427046 L71.4946619,28.0427046 L60.4270463,0.213523132 L54.7686833,0.213523132 Z" id="Shape"></path>
                <rect id="Rectangle-path" x="75.0177936" y="0.213523132" width="7.08185053" height="27.8291815"></rect>
                <path d="M98.3274021,21.7437722 L95.2669039,21.7437722 L95.2669039,6.51245552 L98.3629893,6.51245552 C100.533808,6.51245552 102.206406,7.1886121 103.380783,8.54092527 C104.55516,9.89323843 105.124555,11.7793594 105.124555,14.2348754 C105.124555,19.252669 102.846975,21.7437722 98.3274021,21.7437722 M109.679715,5.44483986 C108.718861,4.09252669 107.615658,3.02491103 106.298932,2.24199288 C104.163701,0.889679715 101.245552,0.24911032 97.544484,0.24911032 L88.1850534,0.24911032 L88.1850534,28.0782918 L99.1103203,28.0782918 C103.060498,28.0782918 106.227758,26.797153 108.6121,24.2348754 C110.996441,21.6725979 112.206406,18.2918149 112.206406,14.0569395 C112.206406,10.6761566 111.352313,7.79359431 109.679715,5.44483986" id="Shape"></path>
            </g>
            <path d="M41.7437722,62.0284698 L49.4661922,54.4128114 L59.1459075,64.2704626 L47.0462633,67.4021352 L41.7437722,62.0284698 Z M15.1245552,63.9145907 L24.9822064,54.2348754 L32.5978648,61.9572954 L27.1886121,67.2597865 L15.1245552,63.9145907 Z M54.0925267,49.8932384 L61.8149466,42.2775801 L67.1174377,47.6512456 L63.772242,59.7153025 L54.0925267,49.8932384 Z M29.6085409,49.6797153 L37.3309609,42.0640569 L44.9466192,49.7864769 L37.2241993,57.4021352 L29.6085409,49.6797153 Z M7.43772242,47.1886121 L12.8113879,41.886121 L20.4270463,49.6085409 L10.569395,59.2882562 L7.43772242,47.1886121 Z M41.9572954,37.5088968 L49.6797153,29.8932384 L57.2953737,37.6156584 L49.5729537,45.2313167 L41.9572954,37.5088968 Z M17.4377224,37.3309609 L25.1601423,29.7153025 L32.7758007,37.4377224 L25.0533808,45.0533808 L17.4377224,37.3309609 Z M29.7864769,25.1601423 L37.5088968,17.544484 L45.1245552,25.2669039 L37.4021352,32.8825623 L29.7864769,25.1601423 Z M54.3060498,25.3736655 L64.1637011,15.6939502 L67.2953737,27.7935943 L61.9217082,33.0960854 L54.3060498,25.3736655 Z M7.58007117,27.2953737 L10.9252669,15.2313167 L20.6049822,25.088968 L12.8825623,32.7046263 L7.58007117,27.2953737 Z M42.1352313,13.024911 L47.5088968,7.72241993 L59.5729537,11.0676157 L49.7153025,20.747331 L42.1352313,13.024911 Z M15.5516014,10.7117438 L27.6512456,7.58007117 L32.9537367,12.9537367 L25.2313167,20.569395 L15.5516014,10.7117438 Z M29.6797153,0.320284698 L6.69039146,6.29893238 L0.355871886,29.1814947 L8.29181495,37.2241993 L0.24911032,45.1601423 L6.22775801,68.1494662 L29.1103203,74.4839858 L37.1530249,66.5480427 L45.088968,74.5907473 L68.0782918,68.6120996 L74.4128114,45.6939502 L66.4768683,37.7224199 L74.519573,29.7864769 L68.5409253,6.79715302 L45.658363,0.462633452 L37.6156584,8.39857651 L29.6797153,0.320284698 Z" id="Shape"></path>
        </g>
    </g>
</svg>
