<svg xmlns="http://www.w3.org/2000/svg" xmlns:xlink="http://www.w3.org/1999/xlink" width="146.807" height="46.87" viewBox="0 0 146.807 46.87">
  <defs>
    <linearGradient id="linear-gradient" x1="0.133" y1="0.008" x2="0.949" y2="1.101" gradientUnits="objectBoundingBox">
      <stop offset="0.042" stop-color="#21dbaa"/>
      <stop offset="0.358" stop-color="#00b4ef"/>
      <stop offset="0.433" stop-color="#01a7ec"/>
      <stop offset="0.568" stop-color="#0487e4"/>
      <stop offset="0.68" stop-color="#0768dd"/>
      <stop offset="0.965" stop-color="#5f1ae5"/>
    </linearGradient>
  </defs>
  <g id="Group_3" data-name="Group 3" transform="translate(-820.339 -532.825)">
    <g id="Group_2" data-name="Group 2" transform="translate(820.339 532.825)">
      <g id="Group_1" data-name="Group 1">
        <path id="Path_1" data-name="Path 1" d="M907.553,572.715c-.9,0-1.08-.664-1.08-1.811v-11.41c0-3.9-2.2-6.222-5.888-6.222-4.4,0-6.4,3.384-6.435,6.738v.138H897.1l0-.139a4.259,4.259,0,0,1,1.128-3.052,3.071,3.071,0,0,1,2.235-.929c1.762,0,2.814,1.375,2.814,3.678v1.07l-3.511,1.666c-3.981,1.862-6.59,3.376-6.59,7.305,0,3.449,2.17,5.766,5.4,5.766a6.457,6.457,0,0,0,4.947-2.557,3.3,3.3,0,0,0,3.36,2.557,4.834,4.834,0,0,0,1.817-.375l.084-.035v-2.786l-.2.11A1.866,1.866,0,0,1,907.553,572.715Zm-4.275-9.111v6.654a5.142,5.142,0,0,1-4,2.579,2.769,2.769,0,0,1-2.906-3.058c0-2.63,2.3-4.031,4.3-4.958Z" transform="translate(-859.033 -543.687)"/>
        <path id="Path_2" data-name="Path 2" d="M951.988,539.693H948.88l-.115,6.791H945.92v2.9h2.843v14.028c0,3.149,1.475,4.883,4.153,4.883a6.4,6.4,0,0,0,3.17-.9l.07-.039v-2.924l-.223.182a3.6,3.6,0,0,1-2.226.882c-1.421,0-1.719-1.183-1.719-2.176V549.389h4.579v-2.9h-4.579Z" transform="translate(-887.053 -536.473)"/>
        <path id="Path_3" data-name="Path 3" d="M868.346,570.553c-1.216,1.764-2.615,2.735-3.94,2.735-1.739,0-2.358-1.705-2.358-3.3V554.18h-3.195v15.959c0,3.722,1.68,5.857,4.61,5.857a6.138,6.138,0,0,0,4.947-2.558l.054,2.163h3.076V554.18h-3.195Z" transform="translate(-840.799 -544.17)"/>
        <path id="Path_4" data-name="Path 4" d="M831.374,555.678a4.507,4.507,0,0,0-4.163-2.341,5.782,5.782,0,0,0-4.653,2.5c-1.473,1.973-2.22,4.873-2.22,8.62,0,8.2,3.314,11.121,6.416,11.121a5.206,5.206,0,0,0,4.245-2v17.008h3.229V553.732h-2.767Zm-.374,2.96v11.718c-.889,1.607-1.967,2.356-3.393,2.356-2.64,0-3.978-2.788-3.978-8.285,0-5.284,1.506-8.315,4.13-8.315A3.487,3.487,0,0,1,831,558.638Z" transform="translate(-820.339 -543.722)"/>
        <rect id="Rectangle_2" data-name="Rectangle 2" width="3.194" height="31.431" transform="translate(52.343)"/>
        <rect id="Rectangle_3" data-name="Rectangle 3" width="3.194" height="21.42" transform="translate(84.73 10.011)"/>
        <rect id="Rectangle_4" data-name="Rectangle 4" width="3.164" height="3.709" transform="translate(84.76 3.191)"/>
        <path id="Path_5" data-name="Path 5" d="M978.622,556.234l-.161-2.5h-3.034v21.451h3.195v-15.44c1.448-2.939,3.32-3.345,5.116-3.346l.757.061v-3.121h-.867C981.353,553.337,980.1,554.048,978.622,556.234Z" transform="translate(-902.729 -543.722)"/>
        <path id="Path_6" data-name="Path 6" d="M1055.34,562.43l-.082.112h0l.064-.121h0c-2.005-1.035-3.425-1.907-3.425-3.712a2.543,2.543,0,0,1,2.754-2.613,2.8,2.8,0,0,1,2.148.885,3.914,3.914,0,0,1,.819,3.023l-.015.15h2.959l.007-.13a6.654,6.654,0,0,0-1.637-4.989,5.7,5.7,0,0,0-4.25-1.7c-3.449,0-5.857,2.283-5.857,5.552,0,3.562,2.856,5.09,4.94,6.206s4.036,2.191,4.036,4.413a3.131,3.131,0,0,1-3.241,3.233c-2.045,0-3.516-1.719-3.576-4.18l0-.134H1048l0,.14c.1,4.324,2.609,7.01,6.557,7.01a5.934,5.934,0,0,0,6.313-6.222C1060.872,565.358,1057.933,563.8,1055.34,562.43Z" transform="translate(-941.282 -543.722)"/>
        <path id="Path_7" data-name="Path 7" d="M1025.689,568.394a5.45,5.45,0,0,1-1.188,3.522,2.529,2.529,0,0,1-1.9.791c-2.459,0-3.758-2.865-3.758-8.284,0-5.393,1.345-8.364,3.788-8.364a2.371,2.371,0,0,1,1.77.735,5.089,5.089,0,0,1,1.129,3.268h3.024a7.541,7.541,0,0,0-1.773-5.221,5.348,5.348,0,0,0-4.028-1.569c-4.582,0-7.1,3.949-7.1,11.121s2.448,11.121,6.892,11.121c3.579,0,5.818-2.643,6.1-7.12Z" transform="translate(-924.098 -543.687)"/>
      </g>
      <path id="Path_8" data-name="Path 8" d="M1083.033,594.925a.831.831,0,0,0,.1-.412.694.694,0,0,0-.2-.531.842.842,0,0,0-.6-.193h-1.139v2.286h.565v-.816h.432l.385.816h.637l-.488-.887A.591.591,0,0,0,1083.033,594.925Zm-.565-.181a.649.649,0,0,1-.31.059h-.4v-.582h.4a.558.558,0,0,1,.31.071.26.26,0,0,1,.107.235A.223.223,0,0,1,1082.467,594.744Z" transform="translate(-958.916 -565.212)"/>
      <path id="Path_9" data-name="Path 9" d="M1082.74,593.085a1.923,1.923,0,0,0-.433-.64,1.967,1.967,0,0,0-.647-.416,2.248,2.248,0,0,0-1.61,0,1.98,1.98,0,0,0-.649.416,1.936,1.936,0,0,0-.432.64,2.279,2.279,0,0,0,0,1.661,1.959,1.959,0,0,0,.432.649,1.929,1.929,0,0,0,.649.42,2.248,2.248,0,0,0,1.61,0,1.917,1.917,0,0,0,.647-.42,1.947,1.947,0,0,0,.433-.649,2.281,2.281,0,0,0,0-1.661Zm-.394,1.5a1.61,1.61,0,0,1-.342.523,1.456,1.456,0,0,1-.51.338,1.731,1.731,0,0,1-1.257,0,1.452,1.452,0,0,1-.51-.338,1.607,1.607,0,0,1-.342-.523,1.828,1.828,0,0,1,0-1.335,1.6,1.6,0,0,1,.342-.523,1.463,1.463,0,0,1,.51-.338,1.731,1.731,0,0,1,1.257,0,1.467,1.467,0,0,1,.51.338,1.606,1.606,0,0,1,.342.523,1.83,1.83,0,0,1,0,1.335Z" transform="translate(-957.652 -564.198)"/>
    </g>
    <path id="Path_10" data-name="Path 10" d="M1101.683,539.393l-2.763,9.779h-.035l-2.964-9.779h-6.556l-2.245,3.991-2.377-3.991h-3.333l3.876,6.271-4.253,7.025h3.069l2.728-4.649,2.824,4.649h5.03v-9.218h.035q.105.579.2.991t.18.763c.058.234.121.456.188.667s.136.441.206.693l1.974,6.1h2.587l1.991-6.1q.219-.737.408-1.421a14.912,14.912,0,0,0,.329-1.544h.035v9.069h2.824v-13.3Zm-13.09,6.288,3.469-5.758v11.4Z" transform="translate(-138.492 -3.489)" fill="url(#linear-gradient)"/>
  </g>
</svg>
