<?xml version="1.0" encoding="utf-8"?>
<!-- Generator: Adobe Illustrator 24.0.1, SVG Export Plug-In . SVG Version: 6.00 Build 0)  -->
<svg version="1.1" id="Layer_1" xmlns="http://www.w3.org/2000/svg" xmlns:xlink="http://www.w3.org/1999/xlink" x="0px" y="0px"
	 viewBox="0 0 859 164" style="enable-background:new 0 0 859 164;" xml:space="preserve">
<style type="text/css">
	.st0{fill:#FFFFFF;}
	.st1{clip-path:url(#SVGID_2_);}
	.st2{clip-path:url(#SVGID_4_);fill:#373737;}
	.st3{fill:url(#SVGID_5_);}
</style>
<g>
	<path d="M413.2,45c-10.9,0-20.6,3.6-28.7,15.3h-0.4V47.7h-26v97h27.2V89.6c0-13.2,6.8-22.6,17.7-22.6c8.5,0,14.5,4.7,14.5,18.7
		v59.1h27.2V78.9C444.7,60.1,436.6,45,413.2,45z"/>
	<path d="M343.7,144.7v-12.1V96.3V76.4c0-22.3-20-31.3-44-31.3c-34,0-44.5,19.1-45.5,34h26c0.6-8.7,7.2-14.3,18.3-14.3
		c11.9,0,19.1,5.7,19.1,17.2v4.5L292.5,88c-37.9,2.3-41.3,19.4-41.3,29.8c0,22.1,18.7,29.6,34,29.6c11.3,0,24.2-3.4,33.2-15.3h0.4
		v12.6H343.7L343.7,144.7z M317.7,111.3c0,11.7-13.8,16.4-22.3,16.4c-9.1,0-17-2.6-17-11.3c0-7,4.2-10.8,16.6-11.9l22.6-2.1
		L317.7,111.3L317.7,111.3z"/>
	<path d="M739,73.4c0-5.9,7.2-8.7,14.3-8.7c10.4,0,16.2,4.9,16.6,13l27.2-0.6C795.6,56,779.2,45,754.3,45
		c-28.7,0-40.2,16.2-40.2,31.1c0,40,58.1,25.3,58.1,41.5c0,7.9-9.1,10-16,10c-8.1,0-16.4-3.8-16.8-13.2h-27.2
		c2.3,28.7,29.4,32.8,43,32.8c40,0,44.2-24.9,44.2-32.5C799.4,75.6,739,90.7,739,73.4z"/>
	<path d="M704,144.7v-12.1V96.3V76.4c0-22.3-20-31.3-44-31.3c-34,0-44.5,19.1-45.5,34h26c0.6-8.7,7.2-14.3,18.3-14.3
		c11.9,0,19.1,5.7,19.1,17.2v4.5L652.8,88c-37.9,2.3-41.3,19.4-41.3,29.8c0,22.1,18.7,29.6,34,29.6c11.3,0,24.2-3.4,33.2-15.3h0.4
		v12.6H704L704,144.7z M678,111.3c0,11.7-13.8,16.4-22.3,16.4c-9.1,0-17-2.6-17-11.3c0-7,4.2-10.8,16.6-11.9l22.6-2.1v8.9H678z"/>
	<path d="M579.4,110.6c-1.7,8.9-7,14.8-17,14.8c-14.2,0-18.7-14.3-18.7-27.2c0-12.5,2.1-30.2,18.9-30.2c7,0,14.7,3,15.6,15.7h26.5
		l1.8-0.1c-1.3-20.6-15.1-38.7-44-38.7c-29.4,0-47.2,21-47.2,52.1c0,29.8,16,50.2,47.8,50.2c26,0,38.9-15.4,43-36.7L579.4,110.6
		L579.4,110.6L579.4,110.6z"/>
	<path d="M452.8,48.1h12.6V19.8h27.5v28.3h14.5v21h-14.5v49.6c0,4.4,1.9,6.5,9,6.5c2.3,0,3.8-0.2,5.5-0.6v21.6
		c-4.4,0.6-8.8,1.1-13.2,1.1c-17.9,0-28.8-4.4-28.8-25.6V69h-12.6V48.1z"/>
	<path d="M802,48.1h12.6V19.8h27.5v28.3h14.5v21h-14.5v49.6c0,4.4,1.9,6.5,9,6.5c2.3,0,3.8-0.2,5.5-0.6v21.6
		c-4.4,0.6-8.8,1.1-13.2,1.1c-17.9,0-28.8-4.4-28.8-25.6V69H802V48.1z"/>
	<path d="M213.5,102.8c0,13.2-6.8,22.6-17.7,22.6c-8.5,0-14.5-4.7-14.5-18.7V47.6h-27.2v65.9c0,18.7,10.6,33.8,34,33.8
		c10.9,0,18.1-3.6,26.2-15.3h0.4v12.6h26v-97h-27.2L213.5,102.8L213.5,102.8z"/>
	<path d="M97.1,144.2l8.9,15.3h31.7l-16.8-29c15.2-13.8,23.1-34.1,23.1-54.3c0-35.6-24.4-71.7-71-71.7S2,40.6,2,76.2
		s24.4,71.7,71,71.7C81.7,147.9,89.8,146.6,97.1,144.2z M32.7,76.2c0-23.1,12.4-46.4,40.1-46.4s40.1,23.3,40.1,46.4
		c0,10-2.3,20.1-7.2,28.2H74l9.7,16.8c-3.3,0.9-7,1.4-10.9,1.4C45.1,122.6,32.7,99.3,32.7,76.2z"/>
</g>
</svg>
