<svg width="123" height="43" viewBox="0 0 123 43" fill="none" xmlns="http://www.w3.org/2000/svg">
<g clip-path="url(#clip0_437_1631)">
<path d="M107.227 15.5839C107.227 14.1409 108.385 12.9866 109.832 12.9866C111.279 12.9866 112.436 14.1409 112.436 15.5839C112.436 17.0268 111.279 18.1812 109.832 18.1812C108.385 18.1812 107.227 17.0268 107.227 15.5839Z" fill="black"/>
<path d="M72.0635 26.8389H62.9471C63.3812 29.1476 64.9729 30.8791 66.9988 30.8791C68.7353 30.8791 69.7482 30.0134 70.3271 29.4362C70.9059 29.0033 71.6294 28.859 72.353 29.2919C73.0765 29.8691 73.2212 30.8791 72.6424 31.6006C71.34 33.0436 69.6035 33.9093 67.1435 33.9093C63.2365 33.9093 60.0529 30.302 60.0529 25.9731C60.0529 21.6442 63.2365 18.0369 67.1435 18.0369C70.4718 18.0369 73.2212 20.6342 74.0894 23.953C74.0894 24.2416 74.2341 24.5302 74.2341 25.1073C74.0894 25.8288 73.3659 26.8389 72.0635 26.8389ZM62.9471 24.2416H70.9059C70.3271 22.3657 68.7353 20.9228 66.9988 20.9228C65.1177 20.9228 63.6706 22.2214 62.9471 24.2416Z" fill="black"/>
<path d="M59.9082 19.4798C59.9082 18.7584 59.3294 18.1812 58.6059 18.0369C56.58 17.7483 54.5541 18.4698 53.2518 20.057V19.9127C53.2518 19.0469 52.5282 18.4698 51.8047 18.4698C50.9365 18.4698 50.3576 19.1912 50.3576 19.9127V32.1778C50.3576 32.8993 50.9365 33.6208 51.8047 33.7651C52.6729 33.7651 53.3965 33.1879 53.3965 32.3221V25.9731C53.3965 23.2315 55.5671 20.9228 58.4612 21.2114H58.7506C59.3294 20.9228 59.9082 20.2013 59.9082 19.4798Z" fill="black"/>
<path d="M111.424 21.0671C111.279 20.2013 110.555 19.6241 109.832 19.7684C109.108 19.7684 108.529 20.3456 108.529 21.0671V32.0335C108.674 32.8993 109.398 33.4765 110.121 33.3322C110.845 33.3322 111.424 32.755 111.424 32.0335C111.424 31.8892 111.424 21.0671 111.424 21.0671Z" fill="black"/>
<path d="M89.1388 31.8892C89.1388 32.755 88.4153 33.3322 87.6917 33.3322C86.9682 33.3322 86.3894 32.755 86.2447 32.1778C85.2317 33.1879 83.9294 33.7651 82.3376 33.7651C78.4306 33.7651 75.247 30.1577 75.247 25.8288C75.247 21.5 78.4306 17.8926 82.3376 17.8926C83.9294 17.8926 85.087 18.3255 86.2447 19.3355V12.698C86.3894 11.8322 87.1129 11.255 87.8364 11.3993C88.56 11.3993 89.1388 11.9765 89.1388 12.698V31.8892ZM86.3894 25.8288C86.3894 23.0872 84.5082 20.7785 82.1929 20.7785C79.8776 20.7785 78.1412 23.0872 78.1412 25.8288C78.1412 28.5704 80.0223 30.7349 82.3376 30.7349C84.5082 30.8792 86.3894 28.5704 86.3894 25.8288Z" fill="black"/>
<path d="M104.767 31.8892C104.767 32.755 104.044 33.3322 103.32 33.3322C102.596 33.3322 102.018 32.755 101.873 32.1778C100.86 33.1879 99.5576 33.7651 97.9659 33.7651C94.0588 33.7651 90.8753 30.1577 90.8753 25.8288C90.8753 21.5 94.0588 17.8926 97.9659 17.8926C99.5576 17.8926 100.715 18.3255 101.873 19.3355V12.698C102.018 11.8322 102.741 11.255 103.465 11.3993C104.188 11.3993 104.767 11.9765 104.767 12.698V31.8892ZM102.018 25.8288C102.018 23.0872 100.136 20.7785 97.8212 20.7785C95.5059 20.7785 93.6247 22.9429 93.6247 25.8288C93.6247 28.5704 95.5059 30.7349 97.8212 30.7349C100.281 30.8792 102.018 28.5704 102.018 25.8288Z" fill="black"/>
<path d="M118.948 32.0335V20.9227H120.251C120.974 20.9227 121.553 20.3456 121.553 19.6241C121.553 18.9026 120.974 18.1811 120.251 18.1811C120.251 18.1811 120.251 18.1811 120.106 18.1811H118.804V16.0167C118.804 15.2952 118.225 14.5737 117.356 14.4294C116.488 14.4294 115.765 15.0066 115.765 15.8724V18.0368H114.462C113.739 18.0368 113.16 18.614 113.16 19.3355C113.16 20.057 113.739 20.7784 114.462 20.7784H115.765V31.8892C115.765 32.7549 116.488 33.3321 117.212 33.3321C118.369 33.4764 118.948 32.7549 118.948 32.0335Z" fill="black"/>
<path d="M-9.62462e-06 22.0772C-0.289421 10.5336 8.82705 1.01012 20.4035 0.721529C31.98 0.432938 41.5306 9.52354 41.82 21.0672C41.82 21.5001 41.82 21.7886 41.82 22.2215C41.5306 33.7652 31.8353 42.8558 20.2588 42.5672C9.26117 42.1343 0.289402 33.188 -9.62462e-06 22.0772Z" fill="black"/>
<path d="M33.1376 24.8188C33.1376 25.1074 33.1376 25.3959 33.1376 25.6845C33.1376 30.4463 27.6388 34.198 20.8376 34.198C14.0365 34.198 8.53764 30.4463 8.53764 25.6845C8.53764 25.3959 8.53764 25.1074 8.53764 24.8188C6.94588 24.0973 6.36705 22.3657 6.94588 20.7785C7.37999 19.6241 8.53764 18.9027 9.69529 19.047C10.5635 19.047 11.2871 19.3355 11.8659 19.9127C14.3259 18.3255 17.22 17.3154 20.1141 17.3154L21.7059 10.1006C21.7059 9.95635 21.8506 9.81205 21.8506 9.81205C21.9953 9.66776 22.14 9.66776 22.2847 9.66776L27.3494 10.8221C27.9282 9.81206 29.2306 9.23487 30.2435 9.81205C31.2565 10.3892 31.8353 11.6879 31.2565 12.698C30.6776 13.708 29.3753 14.2852 28.3623 13.708C27.6388 13.4194 27.2047 12.698 27.2047 11.8322L22.7188 10.8221L21.2718 17.3154C24.4553 17.4597 27.3494 18.4698 29.3753 19.9127C30.5329 18.7584 32.5588 18.7584 33.7165 19.9127C34.2953 20.4899 34.5847 21.2114 34.5847 22.0772C35.0188 23.3758 34.1506 24.3859 33.1376 24.8188ZM16.2071 26.406C17.3647 26.406 18.3776 25.3959 18.3776 24.2416C18.3776 23.0872 17.3647 22.0772 16.2071 22.0772C15.0494 22.0772 14.0365 23.0872 14.0365 24.2416C14.0365 25.3959 14.9047 26.406 16.2071 26.406ZM26.1918 29.1476C25.9023 28.859 25.6129 28.859 25.4682 29.1476C24.6 30.1577 22.5741 30.4463 21.1271 30.4463C19.68 30.4463 17.6541 30.1577 16.7859 29.1476C16.4965 28.859 16.2071 28.859 16.0623 29.1476C15.7729 29.4362 15.7729 29.7248 16.0623 29.8691C17.5094 31.3121 20.4035 31.4563 21.2718 31.4563C22.14 31.4563 24.8894 31.3121 26.4812 29.8691C26.3365 29.7248 26.3365 29.4362 26.1918 29.1476ZM27.9282 24.2416C27.9282 23.0872 26.9153 22.0772 25.7576 22.0772C24.6 22.0772 23.5871 23.0872 23.5871 24.2416C23.5871 25.3959 24.6 26.406 25.7576 26.406C26.9153 26.406 27.9282 25.3959 27.9282 24.2416Z" fill="white"/>
</g>
<defs>
<clipPath id="clip0_437_1631">
<rect width="123" height="43" fill="white"/>
</clipPath>
</defs>
</svg>
