<?xml version="1.0" encoding="UTF-8"?>
<svg width="200px" height="31px" viewBox="0 0 200 31" version="1.1" xmlns="http://www.w3.org/2000/svg" xmlns:xlink="http://www.w3.org/1999/xlink">
    <!-- Generator: Sketch 50.2 (55047) - http://www.bohemiancoding.com/sketch -->
    <title>lightstep-logo</title>
    <desc>Created with Sketch.</desc>
    <defs></defs>
    <g id="Page-1" stroke="none" stroke-width="1" fill="none" fill-rule="evenodd">
        <g id="lightstep-logo" fill="#A2B0CD" fill-rule="nonzero">
            <g id="right-side_light_text_1_" transform="translate(61.144578, 6.024096)">
                <path d="M0.0903614458,17.6204819 L12.1084337,17.6204819 L12.1084337,14.8795181 L3.10240964,14.8795181 L3.10240964,0.481927711 L0.0903614458,0.481927711 L0.0903614458,17.6204819 Z M15.4216867,0.481927711 L15.4216867,17.6204819 L18.4337349,17.6204819 L18.4337349,0.481927711 L15.4216867,0.481927711 Z M38.2831325,15.2409639 L38.2831325,8.04216867 L30.9939759,8.04216867 L30.9939759,10.6626506 L35.3915663,10.6626506 L35.3915663,13.8554217 C34.8795181,14.246988 34.246988,14.5481928 33.5542169,14.7891566 C32.8313253,15.0301205 32.0783133,15.1506024 31.2650602,15.1506024 C30.3915663,15.1506024 29.5783133,15 28.8855422,14.6987952 C28.1626506,14.3975904 27.560241,13.9457831 27.0481928,13.4036145 C26.5361446,12.8614458 26.1445783,12.1987952 25.873494,11.4457831 C25.6024096,10.6927711 25.4518072,9.87951807 25.4518072,9.0060241 C25.4518072,8.1626506 25.6024096,7.37951807 25.873494,6.65662651 C26.1445783,5.93373494 26.5361446,5.27108434 27.0481928,4.72891566 C27.560241,4.18674699 28.1325301,3.73493976 28.8253012,3.43373494 C29.4879518,3.10240964 30.2409639,2.95180723 31.0240964,2.95180723 C31.5662651,2.95180723 32.0481928,2.98192771 32.5,3.07228916 C32.9518072,3.1626506 33.373494,3.28313253 33.7349398,3.43373494 C34.0963855,3.58433735 34.4578313,3.79518072 34.8192771,4.0060241 C35.1506024,4.24698795 35.4819277,4.48795181 35.813253,4.75903614 L37.7108434,2.46987952 C37.2590361,2.10843373 36.8072289,1.77710843 36.3554217,1.47590361 C35.9036145,1.20481928 35.3915663,0.963855422 34.8795181,0.753012048 C34.3674699,0.542168675 33.7951807,0.391566265 33.1927711,0.301204819 C32.5903614,0.180722892 31.8975904,0.15060241 31.1445783,0.15060241 C29.8493976,0.15060241 28.6746988,0.391566265 27.5903614,0.873493976 C26.5060241,1.35542169 25.5722892,1.98795181 24.7891566,2.80120482 C24.0060241,3.61445783 23.4036145,4.54819277 22.9518072,5.63253012 C22.5301205,6.71686747 22.2891566,7.86144578 22.2891566,9.06626506 C22.2891566,10.3313253 22.5,11.4759036 22.9216867,12.560241 C23.3433735,13.6445783 23.9457831,14.5783133 24.7289157,15.3614458 C25.5120482,16.1445783 26.4457831,16.7771084 27.5301205,17.2289157 C28.6144578,17.6807229 29.8493976,17.8915663 31.1746988,17.8915663 C31.9277108,17.8915663 32.6506024,17.8313253 33.3433735,17.6807229 C34.0361446,17.5301205 34.6686747,17.3493976 35.2710843,17.1084337 C35.873494,16.8674699 36.4156627,16.5662651 36.9277108,16.2650602 C37.4096386,15.9638554 37.8614458,15.6024096 38.2831325,15.2409639 Z M53.4036145,10.3915663 L53.4036145,17.6204819 L56.4156627,17.6204819 L56.4156627,0.481927711 L53.4036145,0.481927711 L53.4036145,7.62048193 L45.2409639,7.62048193 L45.2409639,0.481927711 L42.2289157,0.481927711 L42.2289157,17.6204819 L45.2409639,17.6204819 L45.2409639,10.3915663 L53.4036145,10.3915663 Z M68.0722892,3.28313253 L73.4939759,3.28313253 L73.4939759,0.481927711 L59.5783133,0.481927711 L59.5783133,3.28313253 L65,3.28313253 L65,17.6204819 L68.0722892,17.6204819 L68.0722892,3.28313253 Z" id="Shape"></path>
                <path d="M79.6987952,4.78915663 C79.6987952,4.39759036 79.7891566,4.03614458 79.9698795,3.6746988 C80.1506024,3.34337349 80.3915663,3.04216867 80.6927711,2.80120482 C81.0240964,2.56024096 81.3855422,2.34939759 81.8373494,2.19879518 C82.2891566,2.04819277 82.8012048,1.98795181 83.3433735,1.98795181 C84.2168675,1.98795181 85.060241,2.13855422 85.873494,2.43975904 C86.686747,2.74096386 87.5,3.19277108 88.2831325,3.85542169 L89.3975904,2.34939759 C88.5240964,1.65662651 87.6204819,1.11445783 86.6566265,0.78313253 C85.7228916,0.421686747 84.6084337,0.271084337 83.373494,0.271084337 C82.560241,0.271084337 81.8072289,0.391566265 81.1144578,0.63253012 C80.4216867,0.873493976 79.8192771,1.20481928 79.3373494,1.62650602 C78.8253012,2.04819277 78.4337349,2.53012048 78.1626506,3.10240964 C77.8915663,3.6746988 77.7409639,4.30722892 77.7409639,5 C77.7409639,5.72289157 77.8614458,6.3253012 78.0722892,6.86746988 C78.313253,7.37951807 78.6445783,7.86144578 79.126506,8.25301205 C79.6084337,8.64457831 80.2108434,8.97590361 80.9337349,9.24698795 C81.6566265,9.51807229 82.5,9.75903614 83.4939759,9.96987952 C84.3975904,10.1807229 85.1204819,10.3614458 85.7228916,10.5722892 C86.2951807,10.7831325 86.746988,11.0240964 87.0783133,11.2951807 C87.4096386,11.5662651 87.6204819,11.8373494 87.7710843,12.1686747 C87.8915663,12.5 87.9819277,12.8614458 87.9819277,13.253012 C87.9819277,14.126506 87.6204819,14.8493976 86.9277108,15.3915663 C86.2349398,15.9337349 85.3012048,16.2048193 84.1566265,16.2048193 C82.9518072,16.2048193 81.8975904,15.9939759 80.9939759,15.6024096 C80.0903614,15.2108434 79.186747,14.6084337 78.2831325,13.7650602 L77.0783133,15.1807229 C78.1024096,16.1144578 79.186747,16.8072289 80.3313253,17.2590361 C81.4759036,17.7108434 82.7108434,17.9216867 84.0963855,17.9216867 C84.939759,17.9216867 85.7228916,17.8012048 86.4457831,17.5903614 C87.1686747,17.3493976 87.7710843,17.0481928 88.2831325,16.5963855 C88.7951807,16.1746988 89.186747,15.6626506 89.4879518,15.060241 C89.7891566,14.4578313 89.939759,13.7951807 89.939759,13.0421687 C89.939759,11.7168675 89.4879518,10.6927711 88.5843373,9.93975904 C87.6807229,9.18674699 86.2650602,8.61445783 84.3674699,8.1626506 C83.4337349,7.98192771 82.6506024,7.77108434 82.0481928,7.53012048 C81.4457831,7.31927711 80.9638554,7.07831325 80.6325301,6.80722892 C80.3012048,6.53614458 80.060241,6.23493976 79.9096386,5.90361446 C79.7590361,5.54216867 79.6987952,5.18072289 79.6987952,4.78915663 Z M100,2.28915663 L105.753012,2.28915663 L105.753012,0.512048193 L92.2891566,0.512048193 L92.2891566,2.28915663 L98.0421687,2.28915663 L98.0421687,17.6506024 L100,17.6506024 L100,2.28915663 Z M121.746988,0.481927711 L109.36747,0.481927711 L109.36747,17.6204819 L121.86747,17.6204819 L121.86747,15.8433735 L111.295181,15.8433735 L111.295181,9.84939759 L120.662651,9.84939759 L120.662651,8.07228916 L111.295181,8.07228916 L111.295181,2.22891566 L121.746988,2.22891566 L121.746988,0.481927711 Z M138.584337,5.96385542 C138.584337,5.12048193 138.433735,4.3373494 138.13253,3.6746988 C137.831325,3.01204819 137.409639,2.43975904 136.837349,1.95783133 C136.26506,1.5060241 135.60241,1.14457831 134.819277,0.873493976 C134.036145,0.63253012 133.162651,0.481927711 132.198795,0.481927711 L125.783133,0.481927711 L125.783133,17.6204819 L127.710843,17.6204819 L127.710843,11.5662651 L131.86747,11.5662651 C132.771084,11.5662651 133.644578,11.4457831 134.457831,11.2048193 C135.271084,10.9638554 135.993976,10.6024096 136.596386,10.1506024 C137.198795,9.6686747 137.680723,9.09638554 138.042169,8.37349398 C138.433735,7.71084337 138.584337,6.86746988 138.584337,5.96385542 Z M136.626506,6.02409639 C136.626506,6.59638554 136.506024,7.10843373 136.295181,7.59036145 C136.084337,8.04216867 135.753012,8.46385542 135.331325,8.79518072 C134.909639,9.12650602 134.427711,9.39759036 133.825301,9.57831325 C133.253012,9.75903614 132.590361,9.84939759 131.89759,9.84939759 L127.710843,9.84939759 L127.710843,2.31927711 L132.048193,2.31927711 C133.433735,2.31927711 134.548193,2.62048193 135.391566,3.25301205 C136.23494,3.85542169 136.626506,4.78915663 136.626506,6.02409639 Z" id="Shape"></path>
            </g>
            <g id="dark_logo">
                <path d="M8.6746988,30.6325301 L24.4277108,30.6325301 C29.126506,30.6325301 32.560241,27.9216867 35.0903614,24.246988 C36.5963855,22.0481928 38.1626506,20.0903614 41.0843373,20.0903614 L50.6024096,20.0903614 L50.6024096,15.0903614 L37.4096386,15.0903614 C34.4879518,15.0903614 32.9518072,17.0481928 31.4156627,19.246988 C28.8855422,22.9216867 25.4819277,25.6325301 20.753012,25.6325301 L8.6746988,25.6325301 L8.6746988,30.6325301 Z" id="Shape"></path>
                <path d="M0.240963855,23.8855422 L19.7590361,23.8855422 C24.4578313,23.8855422 27.8915663,21.1746988 30.4216867,17.5 C31.9277108,15.3012048 33.4939759,13.3433735 36.4156627,13.3433735 L54.939759,13.3433735 L54.939759,7.10843373 L36.4156627,7.10843373 C30.6626506,7.10843373 28.9457831,9.78915663 26.5662651,12.9216867 C24.8192771,15.2409639 22.9518072,17.6506024 19.7590361,17.6506024 L0.240963855,17.6506024 L0.240963855,23.8855422 Z" id="Shape"></path>
                <path d="M4.93975904,15.9939759 L18.5240964,15.9939759 C21.7168675,15.9939759 23.5843373,13.5542169 25.3313253,11.2650602 C27.7108434,8.13253012 29.4277108,5.45180723 35.1807229,5.45180723 L45.5722892,5.45180723 L45.5722892,0.0301204819 L32.5301205,0.0301204819 C26.7771084,0.0301204819 25.060241,2.71084337 22.6807229,5.84337349 C20.9337349,8.1626506 19.0662651,10.5722892 15.873494,10.5722892 L4.93975904,10.5722892 L4.93975904,15.9939759 Z" id="Shape"></path>
            </g>
        </g>
    </g>
</svg>