<svg xmlns="http://www.w3.org/2000/svg" viewBox="0 0 356.04 69.05"><defs><style>.a{fill:#00b9f2;}.b{fill:#f04923;}</style></defs><path class="a" d="M99.62,25.41a5.32,5.32,0,0,0-5.44,5.18v.11a5.25,5.25,0,0,0,5.2,5.3h.24a5.32,5.32,0,0,0,5.44-5.18v-.11a5.37,5.37,0,0,0-5.44-5.3Z" transform="translate(-35.49 -25.41)"/><rect class="b" x="227.44" y="1.67" width="8.89" height="8.96"/><polygon points="37.14 9.66 37.14 9.42 37.14 1.04 37.14 0.8 36.9 0.8 0.24 0.8 0 0.8 0 1.04 0 9.42 0 9.66 0.24 9.66 13.8 9.66 13.8 52.58 13.8 52.82 14.04 52.82 23.1 52.82 23.34 52.82 23.34 52.58 23.34 9.66 36.9 9.66 37.14 9.66"/><path d="M132.37,39.94c-5.29,0-9.16,1.89-11.82,5.79l-.59.86L119.22,41v-.21h-7.7V94.46h9V73.14l.73,1C123.4,77.2,127.56,79,132.39,79c9.93,0,17.41-8.42,17.41-19.6S142.3,39.94,132.37,39.94Zm-2,8.41c5.93,0,10.06,4.57,10.06,11.11s-4.23,11.19-10.06,11.19c-4.81,0-10-3.81-10.06-10.88v-.46c0-7.2,5-11,10-11Z" transform="translate(-35.49 -25.41)"/><path d="M179.77,26.36l-.06-.15H168.86l-.05.15-20,51.55-.13.32h10.39v-.15l4.32-11.55H185l4.32,11.55.06.15h10.38l-.12-.32ZM166.43,58.28l6.46-17.07,1.36-4.07,1.36,4.09,6.46,17.05Z" transform="translate(-35.49 -25.41)"/><path d="M339.12,39.94a10.85,10.85,0,0,0-10,5.6l-.56,1.06-.85-5.6v-.21h-7.63V78.23H329V58.41c0-7.2,3.72-9.76,7.2-9.76,3.76,0,5.83,2.58,5.83,7.27V78.23h9.09V53.8C351.1,45,346.73,39.94,339.12,39.94Z" transform="translate(-35.49 -25.41)"/><path d="M371.65,55.78c-5.93-1-7-2.45-7-4.77,0-2.53,1.82-4.17,4.63-4.17s4.46,1.4,4.74,4.16v.22H383V51c-.6-6.58-6.06-11-13.59-11-10.12,0-13.71,6.49-13.71,12,0,6.07,3.78,9.54,11.89,10.93,6.12,1.12,7.28,2.68,7.28,5.15s-2,4-5.16,4c-3.4,0-5.54-1.63-5.86-4.47V67.4h-8.86v.26c.52,7.13,5.94,11.39,14.51,11.39,13.35,0,14.39-9.22,14.39-12C383.77,60.51,380.26,57.25,371.65,55.78Z" transform="translate(-35.49 -25.41)"/><path d="M295.94,39.94c-11.54,0-19.6,8-19.6,19.52s8.24,19.6,19.6,19.6,19.75-8.24,19.75-19.6S307.57,39.94,295.94,39.94Zm.11,31c-6,0-10.36-4.8-10.36-11.42s4.36-11.42,10.36-11.42,10.29,4.7,10.29,11.42-4.23,11.4-10.29,11.4Z" transform="translate(-35.49 -25.41)"/><path d="M248.54,40.77l.08-9v-.24h-9.09v.24l-.07,8.64v8.91l-.15,17.81c0,4,.86,6.84,2.73,8.73s5.06,2.94,9.47,2.94a19,19,0,0,0,5.62-.66h.17v-7.8l-.29.07a14.2,14.2,0,0,1-3.31.33c-3.92,0-5.38-1.6-5.38-5.9L248.47,49h8.83v-8.2Z" transform="translate(-35.49 -25.41)"/><path d="M226.25,65.52h-.16l-.06.16a8.15,8.15,0,0,1-8,5.2c-5.74,0-9.91-4.77-9.91-11.34s4.07-11.49,9.68-11.49A8.3,8.3,0,0,1,226,53.33l.06.15h8.76l-.06-.28c-1.54-8.3-8-13.26-17.14-13.26-10.87,0-18.76,8.24-18.76,19.6s7.71,19.52,18.76,19.52c8.92,0,15.37-5,17.26-13.24l.07-.3h-8.65Z" transform="translate(-35.49 -25.41)"/><polygon points="59.87 15.36 59.63 15.36 59.63 15.6 59.63 52.58 59.63 52.82 59.87 52.82 68.4 52.82 68.64 52.82 68.64 52.58 68.64 15.6 68.64 15.36 68.4 15.36 59.87 15.36"/><rect x="227.44" y="15.36" width="9.01" height="37.46"/><path d="M80,46.63l-.54,1.44-1-7.09v-.21H70.7V78.23h9V59.16c.15-3.37,1.21-5.79,3.25-7.4a11.5,11.5,0,0,1,7.23-2.35h.24v-9h-.25C83.31,40.63,80.87,44.4,80,46.63Z" transform="translate(-35.49 -25.41)"/><path d="M391.53,43.37A3.35,3.35,0,1,1,388.2,40a3.24,3.24,0,0,1,3.33,3.17Zm-.66,0a2.69,2.69,0,1,0-2.67,2.81,2.63,2.63,0,0,0,2.68-2.56A2,2,0,0,0,390.87,43.37Zm-2,.33.81,1.48h-.76l-.72-1.37h-.48v1.37H387V41.57h1.22a1.12,1.12,0,0,1,1.24,1,1,1,0,0,1,0,.17,1,1,0,0,1-.64,1Zm-1.15-.43h.53a.54.54,0,0,0,.61-.47v-.08a.54.54,0,0,0-.51-.56h-.63Z" transform="translate(-35.49 -25.41)"/></svg>