<svg xmlns="http://www.w3.org/2000/svg" viewBox="0 0 650 160"><defs><style>.a{fill:#6c0;}</style></defs><path class="a" d="M159.3,8.9,123.2,119.1,107.9,68H83.4l28.1,80.8h26.1L186.7,8.9ZM66.1,119.1,48.8,68H24l28.1,81.1H80.7L92,114.6l-12.4-36Zm297.5-14.8,39.6-36.5h-33L344.7,91.7V31.5H321.4V148.8H345V116.5l31.6,32.3h31.6ZM313.3,92.1A20.65,20.65,0,0,0,302.1,90a17.14,17.14,0,0,0-13,6.1A28.75,28.75,0,0,0,285,113v35.8H260.5V68H285V79.5h.3a21.39,21.39,0,0,1,20.1-13,17.29,17.29,0,0,1,8.1,1.6Zm-105.4,59c-25.7,0-45.1-16.2-45.1-42.3s19.5-42.3,45.1-42.3S253,82.6,253,109,233.7,151.1,207.9,151.1Zm0-63.8c-11.5,0-18.5,9.1-18.5,21.1s6.8,21.1,18.5,21.1,18.5-9.1,18.5-21.1-6.8-21.2-18.5-21.2Zm405.6,61.5h-25l-.5-8.3a30.87,30.87,0,0,1-23.1,10.4c-14.3,0-29.5-7.7-29.5-25.9S552,100.8,567,100.1l20.4-.8V97.5c0-8.6-6.1-13.1-16.7-13.1a52.2,52.2,0,0,0-24.9,7.3l-6.9-17.2a81.23,81.23,0,0,1,34.5-8.1c15.2,0,23.9,3.5,30.3,9.5s9.5,13.9,9.5,27.6Zm-26.2-35.4-13,.8c-8.1.3-12.9,3.9-12.9,9.9s5.1,10,12.4,10a16.2,16.2,0,0,0,13.5-7.4ZM534.8,67.9l-33.4,80.8H477.3L444.1,67.9h27.3L489.8,119,508,67.8Zm-97.7,80.9H410.8V68h26.3ZM410.9,61.3V31.4h32.2ZM616,68a5.66,5.66,0,1,0-.2-.2h-.2Zm0-14.8a6.85,6.85,0,1,0,6.8,6.9,6.7,6.7,0,0,0-6.6-6.8h0Zm3.8,11.5h-2.2l-2-3.8h-1v3.8h-1.9V55.2h3.6c2.1,0,3.3,1.1,3.3,2.8a2.59,2.59,0,0,1-1.9,2.7ZM615.6,57h-1.1v2.6h1.1c.9,0,1.7,0,1.7-1.2s-.6-1.5-1.6-1.5Z"/></svg>