<?xml version="1.0" encoding="UTF-8"?>
<svg width="202px" height="99px" viewBox="0 0 202 99" version="1.1" xmlns="http://www.w3.org/2000/svg" xmlns:xlink="http://www.w3.org/1999/xlink">
    <!-- Generator: Sketch 50.2 (55047) - http://www.bohemiancoding.com/sketch -->
    <title>Yelp_Logo</title>
    <desc>Created with Sketch.</desc>
    <defs></defs>
    <g id="Page-1" stroke="none" stroke-width="1" fill="none" fill-rule="evenodd">
        <g id="Yelp_Logo" transform="translate(1.000000, 0.000000)">
            <g id="g1338" transform="translate(100.084842, 49.858913) scale(-1, 1) rotate(-180.000000) translate(-100.084842, -49.858913) translate(0.415968, 0.521165)">
                <g id="g1340-Clipped" transform="translate(-0.000000, 0.000000)">
                    <g id="g1340" transform="translate(0.000000, 0.048962)">
                        <g id="g1346" transform="translate(0.352312, 0.606782)" fill="#FFFFFF" fill-rule="nonzero">
                            <path d="M195.075545,43.0231459 C193.806511,43.9822611 193.597724,44.1290644 185.970475,46.6410328 C192.576626,48.2656565 192.860445,48.4385582 194.03161,49.2084602 C196.683857,51.0059857 198.099694,53.9877248 197.894169,57.2173984 L197.868071,57.5697264 C197.329792,62.7535157 190.651871,72.533881 186.156426,74.7294066 C183.190998,76.1452433 179.892816,75.9462432 177.296028,74.2009145 C176.072667,73.391865 175.909552,73.2809469 170.888878,66.4268617 C170.399533,74.4357999 169.456729,88.5582819 169.225106,89.879512 L169.176172,90.1829056 L169.101139,90.4765123 C168.243155,93.5789564 165.809482,95.9082361 162.586333,96.7172857 C157.206806,98.0580896 142.97993,94.0487271 139.163043,90.1143974 C136.921845,87.7753307 136.060599,84.6272145 136.833763,81.674836 L136.990354,81.0876227 L137.2546,80.5428191 C137.619977,79.7892286 138.582354,78.1939656 146.839227,65.2393857 L149.88295,60.4438097 C142.490586,63.4679587 142.196979,63.4777456 140.666962,63.4907948 C137.753731,63.6180243 134.833976,62.0586466 133.075598,59.3052682 L133.042975,59.2530715 C132.136056,57.7915626 131.574941,55.804824 131.225876,53.7234787 C128.844399,56.9335786 125.259135,59.5075306 119.824149,60.5743016 C115.971377,61.3474659 112.356752,60.8809575 108.950914,59.5042683 C105.832159,61.4942692 101.545501,61.7258923 97.960237,59.6804323 C96.8543185,59.0508091 96.0256952,58.3004809 95.3764981,57.5012182 L95.3764981,61.898794 L95.033957,64.5118936 L94.9295635,64.9816643 C94.2085959,67.8166001 92.0685294,70.2078635 89.2042329,71.3822903 L89.1781346,71.3953394 C86.0332806,72.6643728 82.506738,72.3609792 79.515212,70.5699784 C76.3279482,68.6876333 74.6935376,65.5623531 74.6935376,61.2887446 L74.6935376,52.3206912 C73.5582584,54.0888559 72.1554709,55.6221354 70.4949619,56.8813818 C66.019091,60.2741703 60.0164652,61.4192364 53.1460686,60.1860883 C49.1628044,59.4944814 45.8319996,57.7556773 43.1928016,55.2045614 C43.1503918,55.2861188 43.1079819,55.38725 43.0655721,55.4688074 C41.7247681,57.8698577 39.5488163,59.5205798 36.762815,60.2513342 C32.11078,61.5268922 26.2060232,59.9446784 23.7690876,51.625822 C23.7690876,51.625822 23.3743497,50.2817558 22.8328085,48.4450828 C21.7660375,50.4024608 18.99961,55.7493649 18.8854296,55.9092175 C16.393035,59.6869569 11.4017212,61.3246298 6.93889944,59.5499405 C2.62614332,57.9253168 0.13048642,54.1312658 0.13048642,49.6717063 C0.13048642,48.2656565 0.375158665,46.8008853 0.887339232,45.3132781 L1.0145688,44.9511632 C1.0145688,44.9511632 9.87496638,26.9041383 12.4391315,21.6812015 C8.3188509,20.5948567 5.38278396,17.5217733 4.90648865,13.3068861 C4.8575542,12.9056236 4.83145583,12.5010988 4.83145583,12.1030986 C4.83145583,9.42149082 5.94389897,6.86058798 7.98609665,4.98150514 C11.0852784,2.12047102 15.9004282,1.174405 21.5539882,2.33252029 C27.6968927,3.53957004 31.22996,7.24227669 33.7060431,15.0946246 L37.4739957,26.933499 C38.7006192,21.9487098 40.9320301,18.6929378 43.0492606,16.6050679 C46.0929833,13.5939682 51.6682482,10.2631633 60.8972853,11.5093606 C67.7546328,12.4684758 72.5012743,15.538297 75.0654395,19.146397 L75.2318166,18.2753638 C75.962571,15.7014118 77.9493097,13.4145419 80.6178683,12.1977052 C83.4071319,10.9058358 86.6368055,10.9286719 89.468479,12.2564266 C90.9462993,12.899099 92.1990212,13.9136732 93.1744479,15.1827066 L93.1744479,11.4506393 C93.1744479,5.28163643 96.7434004,2.65874996 98.8704178,1.64091341 C101.646632,0.244650467 104.970912,0.133732382 107.86457,1.38971658 C110.598374,2.57393024 112.627523,4.8281772 113.423523,7.56524405 L113.54749,7.98608031 L113.919392,10.5306717 C113.919392,10.5306717 113.919392,11.5126229 113.919392,11.623541 C117.628623,11.2451146 121.500969,11.8486395 124.910069,13.6168043 C126.41725,14.3997554 127.735218,15.3425592 128.912907,16.4256416 L131.418351,16.4256416 C132.781991,15.7079364 134.331582,15.2610017 135.998615,15.2610017 C137.672174,15.2610017 139.218502,15.7079364 140.57888,16.4256416 L147.844014,16.4256416 C152.655902,13.7179354 159.689413,11.6659509 163.454104,12.3118856 C166.696827,12.8860498 169.251205,14.9739196 170.331025,17.9001997 L170.386484,18.047003 C170.843206,19.3780201 170.918238,19.6259546 170.950861,27.1455483 C175.074404,20.4839386 175.289716,20.3077746 176.447831,19.3943315 C178.936963,17.4532651 182.209047,17.0259042 185.229934,18.2427408 C190.080969,20.1903319 197.492906,29.6118445 198.23671,34.7825846 C198.298694,35.2327816 198.334579,35.6895031 198.334579,36.1364377 C198.334579,38.8441439 197.166677,41.35285 195.075545,43.0231459 Z M119.798051,60.5808262 C119.807837,60.5743016 119.814362,60.5743016 119.824149,60.5743016 C119.830673,60.567777 119.837198,60.567777 119.846985,60.567777 L119.798051,60.5808262 Z M185.236458,18.2427408 L185.229934,18.2427408 C185.220147,18.2427408 185.216884,18.232954 185.207097,18.2296917 L185.236458,18.2427408 Z" id="path1348"></path>
                        </g>
                        <g id="g1350" transform="translate(0.352312, 0.606782)" stroke-linecap="round" stroke-linejoin="round" stroke-width="1.97042715">
                            <path d="M195.075545,43.0231459 C193.806511,43.9822611 193.597724,44.1290644 185.970475,46.6410328 C192.576626,48.2656565 192.860445,48.4385582 194.03161,49.2084602 C196.683857,51.0059857 198.099694,53.9877248 197.894169,57.2173984 L197.868071,57.5697264 C197.329792,62.7535157 190.651871,72.533881 186.156426,74.7294066 C183.190998,76.1452433 179.892816,75.9462432 177.296028,74.2009145 C176.072667,73.391865 175.909552,73.2809469 170.888878,66.4268617 C170.399533,74.4357999 169.456729,88.5582819 169.225106,89.879512 L169.176172,90.1829056 L169.101139,90.4765123 C168.243155,93.5789564 165.809482,95.9082361 162.586333,96.7172857 C157.206806,98.0580896 142.97993,94.0487271 139.163043,90.1143974 C136.921845,87.7753307 136.060599,84.6272145 136.833763,81.674836 L136.990354,81.0876227 L137.2546,80.5428191 C137.619977,79.7892286 138.582354,78.1939656 146.839227,65.2393857 L149.88295,60.4438097 C142.490586,63.4679587 142.196979,63.4777456 140.666962,63.4907948 C137.753731,63.6180243 134.833976,62.0586466 133.075598,59.3052682 C132.136056,57.7915626 131.574941,55.804824 131.225876,53.7234787 C128.844399,56.9335786 125.259135,59.5075306 119.824149,60.5743016 C115.971377,61.3474659 112.356752,60.8809575 108.950914,59.5042683 C105.832159,61.4942692 101.545501,61.7258923 97.960237,59.6804323 C96.8543185,59.0508091 96.0256952,58.3004809 95.3764981,57.5012182 L95.3764981,61.898794 L95.033957,64.5118936 L94.9295635,64.9816643 C94.2085959,67.8166001 92.0685294,70.2078635 89.2042329,71.3822903 C86.0332806,72.6643728 82.506738,72.3609792 79.515212,70.5699784 C76.3279482,68.6876333 74.6935376,65.5623531 74.6935376,61.2887446 L74.6935376,52.3206912 C73.5582584,54.0888559 72.1554709,55.6221354 70.4949619,56.8813818 C66.019091,60.2741703 60.0164652,61.4192364 53.1460686,60.1860883 C49.1628044,59.4944814 45.8319996,57.7556773 43.1928016,55.2045614 C41.7247681,57.8698577 39.5488163,59.5205798 36.762815,60.2513342 C32.11078,61.5268922 26.2060232,59.9446784 23.7690876,51.625822 C23.7690876,51.625822 23.3743497,50.2817558 22.8328085,48.4450828 C21.7660375,50.4024608 18.99961,55.7493649 18.8854296,55.9092175 C16.393035,59.6869569 11.4017212,61.3246298 6.93889944,59.5499405 C2.62614332,57.9253168 0.13048642,54.1312658 0.13048642,49.6717063 C0.13048642,48.2656565 0.375158665,46.8008853 0.887339232,45.3132781 L1.0145688,44.9511632 C1.0145688,44.9511632 9.87496638,26.9041383 12.4391315,21.6812015 C8.3188509,20.5948567 5.38278396,17.5217733 4.90648865,13.3068861 C4.8575542,12.9056236 4.83145583,12.5010988 4.83145583,12.1030986 C4.83145583,9.42149082 5.94389897,6.86058798 7.98609665,4.98150514 C11.0852784,2.12047102 15.9004282,1.174405 21.5539882,2.33252029 C27.6968927,3.53957004 31.22996,7.24227669 33.7060431,15.0946246 L37.4739957,26.933499 C38.7006192,21.9487098 40.9320301,18.6929378 43.0492606,16.6050679 C46.0929833,13.5939682 51.6682482,10.2631633 60.8972853,11.5093606 C67.7546328,12.4684758 72.5012743,15.538297 75.0654395,19.146397 L75.2318166,18.2753638 C75.962571,15.7014118 77.9493097,13.4145419 80.6178683,12.1977052 C83.4071319,10.9058358 86.6368055,10.9286719 89.468479,12.2564266 C90.9462993,12.899099 92.1990212,13.9136732 93.1744479,15.1827066 L93.1744479,11.4506393 C93.1744479,5.28163643 96.7434004,2.65874996 98.8704178,1.64091341 C101.646632,0.244650467 104.970912,0.133732382 107.86457,1.38971658 C110.598374,2.57393024 112.627523,4.8281772 113.423523,7.56524405 L113.54749,7.98608031 L113.919392,10.5306717 C113.919392,10.5306717 113.919392,11.5126229 113.919392,11.623541 C117.628623,11.2451146 121.500969,11.8486395 124.910069,13.6168043 C126.41725,14.3997554 127.735218,15.3425592 128.912907,16.4256416 L131.418351,16.4256416 C132.781991,15.7079364 134.331582,15.2610017 135.998615,15.2610017 C137.672174,15.2610017 139.218502,15.7079364 140.57888,16.4256416 L147.844014,16.4256416 C152.655902,13.7179354 159.689413,11.6659509 163.454104,12.3118856 C166.696827,12.8860498 169.251205,14.9739196 170.331025,17.9001997 C170.843206,19.3780201 170.918238,19.6259546 170.950861,27.1455483 C175.074404,20.4839386 175.289716,20.3077746 176.447831,19.3943315 C178.936963,17.4532651 182.209047,17.0259042 185.229934,18.2427408 C190.080969,20.1903319 197.492906,29.6118445 198.23671,34.7825846 C198.298694,35.2327816 198.334579,35.6895031 198.334579,36.1364377 C198.334579,38.8441439 197.166677,41.35285 195.075545,43.0231459 Z" id="path1352" stroke="#A2B0CD"></path>
                            <g id="g1354" transform="translate(119.798051, 17.557680)" stroke="#BDBCBC">
                                <path d="M0,43.0231459 C0.0130491864,43.0166213 0.016311483,43.0166213 0.0260983728,43.0166213 C0.0358852627,43.0100967 0.0391475593,43.0100967 0.0521967457,43.0100967 L0,43.0231459 Z" id="path1356"></path>
                                <g id="g1358" transform="translate(64.828380, 0.071771)">
                                    <path d="M0.613289983,0.613289983 L0.603503094,0.613289983 C0.5969785,0.613289983 0.593716204,0.603503094 0.583929314,0.600240797 L0.613289983,0.613289983 Z" id="path1360"></path>
                                </g>
                            </g>
                        </g>
                    </g>
                </g>
            </g>
            <g id="g1362" transform="translate(147.460807, 52.442984) scale(-1, 1) rotate(-180.000000) translate(-147.460807, -52.442984) translate(136.202529, 43.502587)" fill="#A2B0CD" fill-opacity="0.1" fill-rule="nonzero">
                <path d="M1.93779329,16.311483 C0.76010422,14.4258756 0.267497432,8.50154496 0.675284508,4.56395295 C0.815563262,3.2655589 1.04718632,2.18247643 1.39625206,1.539804 C1.86602277,0.642672431 2.65549855,0.107655788 3.55589241,0.0782951185 C4.12679432,0.0489344491 4.48890924,0.143541051 15.3458323,3.64398531 C15.3458323,3.64398531 20.170769,5.17726471 20.1968674,5.1870516 C21.390868,5.49696978 22.2064421,6.59962603 22.2847372,8.01220046 C22.3630323,9.46392245 21.6094418,10.7394804 20.3828183,11.2027265 C20.3828183,11.2027265 16.9769806,12.5924649 16.9769806,12.5924649 C5.30448339,17.4076147 4.78577823,17.5903033 4.19204025,17.5968279 C3.29490868,17.6392377 2.49564601,17.1792539 1.93779329,16.311483" id="path1364"></path>
            </g>
            <g id="g1366" transform="translate(155.919931, 71.610578) scale(-1, 1) rotate(-180.000000) translate(-155.919931, -71.610578) translate(147.310659, 60.352300)" fill="#A2B0CD" fill-opacity="0.1" fill-rule="nonzero">
                <path d="M16.924773,1.93779329 C17.1172485,2.48585912 17.1368223,2.86102323 17.166183,14.2660122 C17.166183,14.2660122 17.1955436,19.3062604 17.2053305,19.3617195 C17.277101,20.588343 16.4811007,21.7170976 15.1696574,22.2227536 C13.8223289,22.744721 12.370607,22.425016 11.5517705,21.4071794 C11.5517705,21.4071794 9.17681857,18.5885552 9.16703168,18.5852929 C0.994978686,8.97782937 0.652437543,8.54068163 0.456699746,7.96651742 C0.332732475,7.63376317 0.283798026,7.28143514 0.322945586,6.92258251 C0.375142331,6.41692653 0.600240797,5.90474597 0.988454093,5.44802444 C2.88058612,3.18725289 11.9726068,-0.156601126 14.8695262,0.339267958 C15.8775758,0.521956568 16.6148548,1.09612077 16.924773,1.93779329" id="path1368"></path>
            </g>
            <g id="g1370" transform="translate(181.207626, 67.309237) scale(-1, 1) rotate(-180.000000) translate(-181.207626, -67.309237) translate(170.280474, 57.044336)" fill="#A2B0CD" fill-opacity="0.1" fill-rule="nonzero">
                <path d="M12.3869348,0.613289983 C15.1337885,1.70615935 21.1168405,9.31383503 21.5344145,12.2368528 C21.6779555,13.2579516 21.3615127,14.1322471 20.6568567,14.6966244 C20.2033974,15.0424279 19.8412825,15.176182 9.00067089,18.7386099 C9.00067089,18.7386099 4.23445555,20.3110369 4.1822588,20.3371353 C3.02414351,20.7873322 1.71270027,20.3730205 0.828617893,19.2801512 C-0.0913497496,18.1611834 -0.2348908,16.6898877 0.505650529,15.5709199 L2.42061864,12.4554267 C8.86365443,1.98997915 9.34973663,1.25270012 9.81298275,0.887322898 C10.530688,0.329470179 11.4473933,0.228338984 12.3869348,0.613289983" id="path1372"></path>
            </g>
            <g id="g1374" transform="translate(180.530713, 41.369094) scale(-1, 1) rotate(-180.000000) translate(-180.530713, -41.369094) translate(169.272435, 31.435319)" fill="#A2B0CD" fill-opacity="0.1" fill-rule="nonzero">
                <path d="M7.80013485,1.27554164 C20.131616,4.25728074 20.604649,4.41387097 21.0939935,4.73357604 C21.8410594,5.24249431 22.209699,6.07764224 22.1477153,7.11179027 C22.1477153,7.14767553 22.1509776,7.1770362 22.1477153,7.21292146 C21.8280103,10.2370704 16.5267783,18.1155167 13.9136787,19.394337 C12.9839242,19.834747 12.0574319,19.8053864 11.2940545,19.2964681 C10.8177592,18.976763 10.4621689,18.5200415 3.86580514,9.4834799 C3.86580514,9.4834799 0.88080375,5.41865833 0.844918487,5.38277307 C0.058705005,4.43018246 0.0489181152,3.05675559 0.812295521,1.87906651 C1.6050336,0.662229877 2.95562439,0.0684918949 4.18877251,0.411033038 C4.18877251,0.411033038 4.13331347,0.326213327 4.12352658,0.306639547 C4.72705145,0.538262606 5.82318311,0.805770928 7.80013485,1.27554164" id="path1376"></path>
            </g>
            <g id="g1378" transform="translate(154.902002, 26.796513) scale(-1, 1) rotate(-180.000000) translate(-154.902002, -26.796513) translate(141.852815, 7.222733)" fill="#A2B0CD" fill-opacity="0.1" fill-rule="nonzero">
                <path d="M22.8360762,6.52459321 C22.6207647,11.4115135 21.1559935,33.1677696 20.9830918,34.1725569 C20.7318949,35.0925246 20.017452,35.7417216 18.9898285,35.999443 C15.8482369,36.7823942 3.81362473,33.4059172 1.58547615,31.1059981 C0.87429549,30.3621945 0.606787169,29.4389646 0.818836448,28.6233904 C1.16790218,27.9056852 16.0733354,4.45303487 16.0733354,4.45303487 C18.2786479,0.877557787 20.0761733,1.43541051 20.6633867,1.61809912 C21.2506001,1.80078773 23.0383386,2.35864045 22.8360762,6.52459321" id="path1380"></path>
            </g>
            <g id="g1382" transform="translate(148.446020, 49.976688) scale(-1, 1) rotate(-180.000000) translate(-148.446020, -49.976688) translate(137.187742, 41.036290)" fill="#A2B0CD" fill-rule="nonzero">
                <path d="M1.93779329,16.311483 C0.763366517,14.4291379 0.267497432,8.50154496 0.675284508,4.56721525 C0.818825559,3.2688212 1.05371091,2.18573873 1.39625206,1.539804 C1.86602277,0.645934728 2.65549855,0.114180381 3.55589241,0.0815574151 C4.13331891,0.0521967457 4.49217154,0.150065644 15.3490946,3.64072301 C15.3490946,3.64072301 20.1740313,5.18052701 20.1936051,5.1903139 C21.3973925,5.49696978 22.2064421,6.60288833 22.2847372,8.01546276 C22.3630323,9.46392245 21.6159664,10.7427427 20.3828183,11.2059888 C20.3828183,11.2059888 16.9802429,12.5924649 16.9737184,12.5924649 C5.30774569,17.4043524 4.78251594,17.5935656 4.19530255,17.6000902 C3.29490868,17.6359755 2.49564601,17.1825162 1.93779329,16.311483" id="path1384"></path>
            </g>
            <g id="g1386" transform="translate(156.908407, 69.137757) scale(-1, 1) rotate(-180.000000) translate(-156.908407, -69.137757) translate(148.299135, 57.879479)" fill="#A2B0CD" fill-rule="nonzero">
                <path d="M16.924773,1.93779329 C17.1139862,2.48585912 17.1368223,2.86102323 17.1694453,14.2660122 C17.1694453,14.2660122 17.1955436,19.3062604 17.1988059,19.3551949 C17.277101,20.5916053 16.4778384,21.7170976 15.1696574,22.2194913 C13.8223289,22.7381965 12.370607,22.4184914 11.5550328,21.4039171 C11.5550328,21.4039171 9.17355628,18.5787683 9.16703168,18.5787683 C0.994978686,8.97782937 0.652437543,8.53415703 0.45343745,7.96651742 C0.332732475,7.63376317 0.283798026,7.27491054 0.322945586,6.91932021 C0.371880035,6.41040194 0.603503094,5.90800826 0.985191797,5.43823755 C2.88058612,3.18725289 11.9693445,-0.156601126 14.8727884,0.339267958 C15.8808381,0.521956568 16.6148548,1.08959618 16.924773,1.93779329" id="path1388"></path>
            </g>
            <g id="g1390" transform="translate(182.202626, 64.836416) scale(-1, 1) rotate(-180.000000) translate(-182.202626, -64.836416) translate(171.275474, 54.571515)" fill="#A2B0CD" fill-rule="nonzero">
                <path d="M12.3869348,0.613289983 C15.1272639,1.70615935 21.1037913,9.31057273 21.5246276,12.2368528 C21.6714309,13.2546893 21.3517258,14.1322471 20.6503321,14.6933621 C20.1903482,15.0391656 19.8412825,15.1729197 8.990884,18.7353476 C8.990884,18.7353476 4.23119325,20.3077746 4.16920962,20.3371353 C3.01761892,20.7840699 1.70291338,20.3697582 0.818831003,19.2801512 C-0.101136639,18.1611834 -0.238153097,16.6833631 0.495863639,15.5676576 L2.41083175,12.4489021 C8.85060525,1.98997915 9.34321203,1.24943782 9.80645815,0.887322898 C10.5241634,0.322945586 11.4376065,0.231601281 12.3869348,0.613289983" id="path1392"></path>
            </g>
            <g id="g1394" transform="translate(181.512664, 38.902797) scale(-1, 1) rotate(-180.000000) translate(-181.512664, -38.902797) translate(170.254386, 28.969022)" fill="#A2B0CD" fill-rule="nonzero">
                <path d="M7.80013485,1.27554164 C20.131616,4.26380533 20.6079113,4.42039557 21.0939935,4.74010063 C21.8410594,5.24249431 22.2162236,6.08416684 22.1509776,7.10852797 C22.1509776,7.14115094 22.1575022,7.1770362 22.1509776,7.21292146 C21.8345348,10.2403327 16.5300406,18.1155167 13.916941,19.394337 C12.9904488,19.8380093 12.0639565,19.8086487 11.2940545,19.2932058 C10.8177592,18.9832876 10.4686935,18.5135169 3.86580514,9.4834799 C3.86580514,9.4834799 0.884066046,5.42192063 0.848180784,5.38277307 C0.0619673017,4.42692016 0.0489181152,3.05675559 0.818820114,1.88232881 C1.61482049,0.665492174 2.95888669,0.0717541915 4.1920348,0.414295335 C4.1920348,0.414295335 4.14310036,0.326213327 4.13005117,0.309901844 C4.73683834,0.538262606 5.82318311,0.805770928 7.80013485,1.27554164" id="path1396"></path>
            </g>
            <g id="g1398" transform="translate(154.761821, 25.029824) scale(-1, 1) rotate(-180.000000) translate(-154.761821, -25.029824) translate(143.503543, 7.480155)" fill="#A2B0CD" fill-rule="nonzero">
                <path d="M20.3175778,32.8545782 C20.0696433,33.7680213 19.3552003,34.4204806 18.3308392,34.678202 C15.182723,35.4578909 3.15137308,32.0879385 0.923224495,29.7880194 C0.205519242,29.0409535 -0.0587267835,28.1209859 0.156584792,27.3054117 C0.508912826,26.5844442 15.414346,3.13179385 15.414346,3.13179385 C17.6163962,-0.440420931 19.4139217,0.114169492 20.0043973,0.300120399 C20.5883484,0.479546712 22.376087,1.03413713 22.1738246,5.2000899 C21.9617753,10.0870102 20.4904795,31.8465286 20.3175778,32.8545782 Z" id="path1400"></path>
            </g>
            <g id="g1402" transform="translate(23.027060, 67.384172) scale(-1, 1) rotate(-180.000000) translate(-23.027060, -67.384172) translate(7.133020, 43.874238)" fill="#A2B0CD" fill-rule="nonzero">
                <path d="M13.9332634,0.818825559 C17.283642,1.48107177 19.3617249,2.97846591 21.3615127,9.336682 L31.3213043,40.628631 C31.8367471,42.28914 31.7975996,43.7310751 31.2071239,44.8011084 C30.7275663,45.6623547 29.9283036,46.2463058 28.799549,46.5464371 C27.0248596,47.0325193 24.8097602,46.9835848 23.4134973,42.2141072 L18.1872981,24.4639514 C18.1872981,24.4639514 12.3728647,35.44776 9.33586835,41.1811671 C8.26363114,43.2053949 7.5376022,44.5751587 7.53589972,44.5760099 C6.86386661,45.9200761 4.89343946,46.8824536 2.88712705,46.0864533 C0.270765174,45.0914528 -0.60026802,42.7393369 0.443666894,39.7086634 C0.443666894,39.7086634 13.3917221,13.3590937 13.4210828,13.2873232 C13.4210828,13.2873232 13.7734108,12.3477818 13.7734108,12.1944538 C13.7734108,12.1944538 13.8908535,11.4800109 13.8908535,11.4539125 C13.8647551,10.4393382 13.5254763,9.58461654 12.9186891,9.01371463 C12.3216888,8.45259962 11.4930655,8.15899292 10.5241634,8.19814048 C10.5241634,8.19814048 8.50480181,8.24381263 8.35147387,8.24381263 C6.27665323,7.9893535 4.97173458,6.79861524 4.7629476,4.95867995 C4.61614425,3.77446628 4.99783296,2.73379367 5.86234156,1.93779329 C7.41519474,0.499120491 10.3577863,0.0913334157 13.9332634,0.818825559 Z" id="path1404"></path>
            </g>
            <g id="g1406" transform="translate(58.065759, 62.585377) scale(-1, 1) rotate(-180.000000) translate(-58.065759, -62.585377) translate(43.165097, 43.711205)" fill="#A2B0CD" fill-rule="nonzero">
                <path d="M20.8493213,22.1738246 L6.9845607,22.1738246 C6.60939659,22.4478575 6.42670798,22.9078413 6.70726549,24.2910551 C6.8834295,25.0185472 7.07264271,25.6710065 7.62723313,26.5844496 C7.80665944,26.8584825 7.99261035,27.13904 8.17203666,27.4195975 C9.18661091,28.7016801 10.5600378,29.5237788 12.1226779,29.8891561 C16.996549,31.0798943 20.395862,28.6038112 20.9471902,24.3791371 C21.2114362,22.5359395 21.0385345,22.1738246 20.8493213,22.1738246 Z M29.37044,24.5879241 C28.9235054,29.1094672 27.1781767,32.6392721 24.3171426,34.8021747 C21.2701575,37.115143 16.9574014,37.8524221 11.8519072,36.938979 C5.45128129,35.8297982 1.60829589,31.2560583 0.727475809,23.6940548 C-0.355606664,14.6542309 1.13200059,7.8425556 5.04349422,3.9897833 C7.99261035,1.07655244 12.3543009,-0.0815628598 17.6587952,0.636142394 C25.224061,1.69965109 28.6266364,5.85255467 28.6266364,8.47870343 C28.6266364,10.409983 27.4587342,11.9302132 25.7427662,12.1618363 C24.7608149,12.3575741 23.9321916,12.1618363 22.0987809,10.5209011 C19.4563206,8.21771971 16.3930241,7.29122747 13.6787933,7.97957205 C11.6104973,8.50480181 9.99566047,9.93042542 9.26490603,11.8845411 C9.26490603,11.8845411 8.93867637,13.1764105 8.95825015,13.0328695 C8.73641398,14.1975094 8.63528278,15.3523624 9.35298804,15.8221331 L9.54546354,15.952625 L26.1636024,15.952625 C27.6968819,15.952625 28.4733084,16.1516251 28.9202431,16.6344449 C29.8336861,17.6490192 29.7619156,20.5459386 29.37044,24.5879241 Z" id="path1408"></path>
            </g>
            <g id="g1410" transform="translate(85.711991, 56.727877) scale(-1, 1) rotate(-180.000000) translate(-85.711991, -56.727877) translate(81.076230, 32.224566)" fill="#A2B0CD" fill-rule="nonzero">
                <path d="M2.42388638,47.8872464 C1.17116448,47.1467051 0.649197025,46.0179505 0.649197025,43.9790151 L0.649197025,4.35516052 C0.649197025,4.35516052 0.867770897,2.9393238 0.890606973,2.87734016 C1.17116448,1.88886429 1.90191892,1.04719177 2.91649317,0.587207944 C4.04198549,0.0652404875 5.34037954,0.0750273773 6.50175714,0.619830911 C7.94695453,1.24619186 8.79841395,2.69138926 8.79841395,4.48239009 L8.79841395,44.1812775 C8.79841395,44.1812775 8.54721711,46.0995079 8.54721711,46.1353932 C8.31559405,47.0553608 7.55547894,47.8513612 6.52459321,48.2721974 C5.20988768,48.8072141 3.72554272,48.663673 2.42388638,47.8872464 Z" id="path1412"></path>
            </g>
            <g id="g1414" transform="translate(115.278278, 67.614161) scale(-1, 1) rotate(-180.000000) translate(-115.278278, -67.614161) translate(100.046490, 43.110850)" fill="#A2B0CD" fill-rule="nonzero">
                <path d="M18.911528,18.911528 C13.4243451,18.911528 12.5500496,23.7821368 12.3771479,27.4587451 C12.367361,27.468532 12.3053774,29.6118608 12.3053774,29.6118608 C12.3053774,29.6118608 12.367361,31.2038616 12.367361,31.2658452 C12.7229513,37.6273236 14.0376569,40.1360297 17.3945601,40.8341612 C19.648807,41.3561286 21.3712996,41.1016695 22.6631691,40.0609969 C24.6042356,38.4983568 25.4589573,35.190388 25.3806621,29.6705822 C25.3252031,23.2079726 24.1997108,18.911528 18.911528,18.911528 Z M9.4737039,46.0766718 C9.4737039,46.0766718 9.13442505,45.8026389 9.00393319,45.7243438 L8.73316257,45.5873273 L7.90453923,45.2154255 L7.66965388,46.14518 L7.47065378,46.4811966 L7.40214555,46.6899836 C7.37930948,46.7519672 7.17704709,47.0227378 7.14768642,47.0651477 C6.27991552,48.4157385 3.92127508,49.0355748 1.79425769,47.8220005 C0.753585071,47.2315248 0.156584792,46.3996392 0.156584792,43.9170315 L0.156584792,5.02719363 C0.156584792,2.89691394 0.825355597,1.57242152 2.28686448,0.874290046 C3.52001259,0.254453691 4.90648865,0.205519242 6.09722691,0.717699809 C7.10853886,1.16137215 7.85234249,1.94432333 8.1296377,2.89691394 L8.37430994,4.56394751 L8.37430994,11.2940654 L8.30253942,12.3771479 L8.33190009,12.6968529 L8.37430994,12.8501809 L8.77557243,14.1322635 L9.99240906,13.3232139 C9.99240906,13.3232139 10.2990649,13.1209515 10.4295568,12.983935 L10.794934,12.7425251 C10.7981963,12.7392628 11.2190326,12.4945906 11.2190326,12.4945906 C11.2255572,12.4945906 11.6105082,12.3053774 11.6105082,12.3053774 C14.8728048,10.7655734 19.2377576,10.9449997 22.7512511,12.7555743 C27.1749253,15.0652803 29.360664,19.1627248 29.86632,26.0429084 C30.9233041,39.7934886 27.7588764,46.3637539 19.3193151,48.0046891 C15.6427068,48.7550173 12.4978529,48.1253941 9.4737039,46.0766718 Z" id="path1416"></path>
            </g>
            <g id="g1418" transform="translate(137.125780, 76.200705) scale(-1, 1) rotate(-180.000000) translate(-137.125780, -76.200705) translate(134.476774, 73.551699)" fill="#A2B0CD" fill-rule="nonzero">
                <path d="M1.93779329,2.60004495 L2.39125252,2.60004495 C2.75989204,2.60004495 3.10569548,2.61961873 3.10569548,3.0339304 C3.10569548,3.40583221 2.78925271,3.44497977 2.5054329,3.44497977 L1.93779329,3.44497977 L1.93779329,2.60004495 Z M1.56589148,3.77773403 L2.53805587,3.77773403 C3.17420371,3.77773403 3.4710727,3.54611097 3.4710727,3.01761892 C3.4710727,2.54132361 3.16767912,2.34232352 2.76967893,2.29991366 L3.53631863,1.12874918 L3.13505615,1.12874918 L2.4108263,2.2672907 L1.93779329,2.2672907 L1.93779329,1.12874918 L1.56589148,1.12874918 L1.56589148,3.77773403 Z M2.42387549,0.515437419 C3.49717107,0.515437419 4.36167967,1.36037224 4.36167967,2.47933998 C4.36167967,3.57873393 3.49717107,4.42693105 2.42387549,4.42693105 C1.34731761,4.42693105 0.482809008,3.57873393 0.482809008,2.4565039 C0.482809008,1.36037224 1.34731761,0.515437419 2.42387549,0.515437419 Z M4.73031919,2.47933998 C4.73031919,1.16463444 3.67659739,0.182683165 2.42387549,0.182683165 C1.1678913,0.182683165 0.117431789,1.16463444 0.117431789,2.4565039 C0.117431789,3.77120943 1.1678913,4.75642301 2.42387549,4.75642301 C3.67659739,4.75642301 4.73031919,3.77120943 4.73031919,2.47933998 Z" id="path1420"></path>
            </g>
        </g>
    </g>
</svg>