<svg width="50" height="51" viewBox="0 0 50 51" fill="none" xmlns="http://www.w3.org/2000/svg">
<g id="git">
<path id="Vector" d="M5.4165 23.028L17.4582 10.9655L20.979 14.5072C20.479 16.278 21.2915 18.2155 22.9165 19.153V30.6947C21.6665 31.403 20.8332 32.7572 20.8332 34.2989C20.8332 35.4039 21.2722 36.4637 22.0536 37.2451C22.835 38.0266 23.8948 38.4655 24.9998 38.4655C26.1049 38.4655 27.1647 38.0266 27.9461 37.2451C28.7275 36.4637 29.1665 35.4039 29.1665 34.2989C29.1665 32.7572 28.3332 31.403 27.0832 30.6947V20.5697L31.3957 24.9239C31.2498 25.2364 31.2498 25.5905 31.2498 25.9655C31.2498 27.0706 31.6888 28.1304 32.4702 28.9118C33.2516 29.6932 34.3114 30.1322 35.4165 30.1322C36.5216 30.1322 37.5814 29.6932 38.3628 28.9118C39.1442 28.1304 39.5832 27.0706 39.5832 25.9655C39.5832 24.8605 39.1442 23.8007 38.3628 23.0193C37.5814 22.2379 36.5216 21.7989 35.4165 21.7989C35.0415 21.7989 34.6873 21.7989 34.3748 21.9447L29.0207 16.5905C29.2794 15.6256 29.1791 14.5996 28.7384 13.703C28.2978 12.8064 27.5468 12.1002 26.6248 11.7155C25.729 11.3822 24.7915 11.2989 23.9582 11.528L20.4165 8.0072L22.0623 6.3822C23.6873 4.73637 26.3123 4.73637 27.9373 6.3822L44.5832 23.028C46.229 24.653 46.229 27.278 44.5832 28.903L27.9373 45.5489C26.3123 47.1947 23.6873 47.1947 22.0623 45.5489L5.4165 28.903C3.77067 27.278 3.77067 24.653 5.4165 23.028Z" fill="#343A4D"/>
</g>
</svg>
