<svg width="42" height="38" viewBox="0 0 42 38" fill="none" xmlns="http://www.w3.org/2000/svg">
<g id="Group 123">
<path id="Vector" d="M1.51991 0.215687C1.32491 0.213172 1.13172 0.253372 0.953912 0.333465C0.776102 0.413558 0.61798 0.531601 0.490646 0.679308C0.363312 0.827015 0.269855 1.0008 0.216835 1.18847C0.163814 1.37614 0.152517 1.57315 0.183736 1.76565L5.85579 36.1988C5.92646 36.6202 6.14334 37.0032 6.46833 37.2805C6.79333 37.5579 7.20566 37.7118 7.63289 37.7154H34.844C35.1643 37.7195 35.4754 37.6084 35.7206 37.4024C35.9659 37.1964 36.129 36.9091 36.1802 36.593L41.8523 1.77233C41.8835 1.57983 41.8722 1.38283 41.8192 1.19516C41.7661 1.00749 41.6727 0.833696 41.5454 0.685989C41.418 0.538282 41.2599 0.420239 41.0821 0.340146C40.9043 0.260053 40.7111 0.219853 40.5161 0.222368L1.51991 0.215687ZM25.404 25.1019H16.7189L14.3672 12.8158H27.5085L25.404 25.1019Z" fill="#2684FF"/>
<path id="Vector_2" d="M40.0481 12.8159H27.5081L25.4036 25.102H16.7185L6.46338 37.2745C6.78842 37.5556 7.20284 37.7119 7.63253 37.7155H34.8504C35.1706 37.7196 35.4817 37.6085 35.727 37.4025C35.9722 37.1965 36.1353 36.9093 36.1865 36.5931L40.0481 12.8159Z" fill="url(#paint0_linear_548_1363)"/>
</g>
<defs>
<linearGradient id="paint0_linear_548_1363" x1="42.9476" y1="16.2566" x2="22.2235" y2="32.4309" gradientUnits="userSpaceOnUse">
<stop offset="0.18" stop-color="#0052CC"/>
<stop offset="1" stop-color="#2684FF"/>
</linearGradient>
</defs>
</svg>
