<svg width="50" height="51" viewBox="0 0 50 51" fill="none" xmlns="http://www.w3.org/2000/svg">
<g id="Gerrit_icon 1" clip-path="url(#clip0_418_14526)">
<path id="Vector" d="M34.6154 0.965576H3.84615C1.72198 0.965576 0 2.68756 0 4.81173V35.581C0 37.7051 1.72198 39.4271 3.84615 39.4271H34.6154C36.7396 39.4271 38.4615 37.7051 38.4615 35.581V4.81173C38.4615 2.68756 36.7396 0.965576 34.6154 0.965576Z" fill="#FFAAAA"/>
<path id="Vector_2" d="M46.154 12.504H15.3847C13.2606 12.504 11.5386 14.226 11.5386 16.3502V47.1194C11.5386 49.2436 13.2606 50.9656 15.3847 50.9656H46.154C48.2781 50.9656 50.0001 49.2436 50.0001 47.1194V16.3502C50.0001 14.226 48.2781 12.504 46.154 12.504Z" fill="#AAFFAA"/>
<path id="Vector_3" d="M17.3076 22.1194H28.8461V25.9655H17.3076V22.1194Z" fill="#FF0000"/>
<path id="Vector_4" d="M32.6924 22.1194H44.2308V25.9655H32.6924V22.1194Z" fill="#FF0000"/>
<path id="Vector_5" d="M17.3076 35.581H21.1538V31.7349H24.9999V35.581H28.8461V39.4272H24.9999V43.2733H21.1538V39.4272H17.3076V35.581Z" fill="#008000"/>
<path id="Vector_6" d="M32.6924 35.581H36.5385V31.7349H40.3847V35.581H44.2308V39.4272H40.3847V43.2733H36.5385V39.4272H32.6924V35.581Z" fill="#008000"/>
</g>
<defs>
<clipPath id="clip0_418_14526">
<rect width="50" height="50" fill="white" transform="translate(0 0.965576)"/>
</clipPath>
</defs>
</svg>
