<svg width="51" height="51" viewBox="0 0 51 51" fill="none" xmlns="http://www.w3.org/2000/svg">
<g id="Github - Original" clip-path="url(#clip0_415_3834)">
<path id="Vector" fill-rule="evenodd" clip-rule="evenodd" d="M25.5004 2.0072C19.5655 2.01028 13.8251 4.11232 9.30584 7.93746C4.78655 11.7626 1.783 17.0614 0.832252 22.8864C-0.118495 28.7113 1.04555 34.6827 4.11626 39.7326C7.18698 44.7825 11.9641 48.5817 17.5935 50.4509C18.8354 50.6814 19.3032 49.9117 19.3032 49.2572C19.3032 48.6027 19.2783 46.7051 19.2701 44.6306C12.3153 46.133 10.8457 41.6957 10.8457 41.6957C9.71138 38.8144 8.07203 38.057 8.07203 38.057C5.80344 36.5175 8.24177 36.5463 8.24177 36.5463C10.7546 36.7233 12.0752 39.1107 12.0752 39.1107C14.3024 42.91 17.9246 41.811 19.3487 41.1688C19.5723 39.5594 20.2222 38.4645 20.9384 37.8429C15.3828 37.2173 9.54578 35.0851 9.54578 25.5602C9.51135 23.0899 10.4332 20.7011 12.1207 18.8878C11.8641 18.2621 11.0071 15.7348 12.365 12.3018C12.365 12.3018 14.4638 11.635 19.2411 14.8498C23.3388 13.7356 27.6621 13.7356 31.7597 14.8498C36.5329 11.635 38.6276 12.3018 38.6276 12.3018C39.9896 15.7265 39.1326 18.2539 38.876 18.8878C40.5688 20.7013 41.4926 23.0944 41.455 25.5684C41.455 35.1139 35.6056 37.2173 30.0417 37.8306C30.9359 38.6044 31.7349 40.1151 31.7349 42.4366C31.7349 45.7625 31.7059 48.4381 31.7059 49.2572C31.7059 49.9199 32.1571 50.6937 33.4239 50.4509C39.0539 48.5815 43.8315 44.7816 46.9022 39.7308C49.9729 34.68 51.1363 28.7078 50.1845 22.8823C49.2326 17.0568 46.2276 11.7579 41.7068 7.93346C37.186 4.10899 31.4443 2.00833 25.5087 2.0072H25.5004Z" fill="#191717"/>
<path id="Vector_2" d="M9.96775 37.6989C9.91393 37.8224 9.71522 37.8594 9.55377 37.773C9.39232 37.6865 9.27228 37.526 9.33024 37.3984C9.38819 37.2708 9.58276 37.2379 9.74421 37.3243C9.90566 37.4108 10.0298 37.5754 9.96775 37.6989Z" fill="#191717"/>
<path id="Vector_3" d="M10.9819 38.8227C10.8962 38.8656 10.7981 38.8776 10.7044 38.8566C10.6108 38.8355 10.5274 38.7828 10.4686 38.7074C10.3071 38.5345 10.274 38.2958 10.3982 38.1888C10.5224 38.0817 10.7459 38.1311 10.9074 38.304C11.0688 38.4769 11.1061 38.7156 10.9819 38.8227Z" fill="#191717"/>
<path id="Vector_4" d="M11.9673 40.251C11.8141 40.358 11.5533 40.251 11.4084 40.037C11.3684 39.9986 11.3365 39.9525 11.3147 39.9016C11.293 39.8507 11.2817 39.7959 11.2817 39.7406C11.2817 39.6853 11.293 39.6305 11.3147 39.5796C11.3365 39.5287 11.3684 39.4826 11.4084 39.4442C11.5616 39.3413 11.8224 39.4442 11.9673 39.6541C12.1122 39.8641 12.1163 40.144 11.9673 40.251Z" fill="#191717"/>
<path id="Vector_5" d="M13.3042 41.634C13.1676 41.7863 12.8902 41.7451 12.6625 41.5393C12.4349 41.3335 12.381 41.0536 12.5176 40.9054C12.6543 40.7573 12.9316 40.7984 13.1676 41.0001C13.4036 41.2018 13.4491 41.4858 13.3042 41.634Z" fill="#191717"/>
<path id="Vector_6" d="M15.1797 42.4408C15.1176 42.6342 14.8361 42.7207 14.5546 42.6383C14.2731 42.556 14.0868 42.3255 14.1406 42.1279C14.1944 41.9304 14.4801 41.8398 14.7657 41.9304C15.0514 42.0209 15.2335 42.2391 15.1797 42.4408Z" fill="#191717"/>
<path id="Vector_7" d="M17.2245 42.5807C17.2245 42.7824 16.9927 42.9553 16.6947 42.9594C16.3966 42.9635 16.1523 42.7988 16.1523 42.5972C16.1523 42.3955 16.3842 42.2226 16.6822 42.2185C16.9803 42.2143 17.2245 42.3749 17.2245 42.5807Z" fill="#191717"/>
<path id="Vector_8" d="M19.1292 42.2638C19.1664 42.4655 18.9594 42.6754 18.6614 42.7248C18.3633 42.7742 18.1025 42.6548 18.0652 42.4572C18.028 42.2597 18.2432 42.0456 18.533 41.9921C18.8228 41.9386 19.0919 42.0621 19.1292 42.2638Z" fill="#191717"/>
</g>
<defs>
<clipPath id="clip0_415_3834">
<rect width="50" height="50" fill="white" transform="translate(0.5 0.965576)"/>
</clipPath>
</defs>
</svg>
