<svg width="51" height="51" viewBox="0 0 51 51" fill="none" xmlns="http://www.w3.org/2000/svg">
<g id="gitlab-icon">
<path id="Vector" d="M49.6661 20.7566L49.5987 20.5699L42.7936 2.13677C42.6559 1.77483 42.4108 1.46779 42.0939 1.26011C41.8574 1.1029 41.5887 1.00541 41.3094 0.975454C41.0301 0.945497 40.7479 0.983906 40.4855 1.0876C40.223 1.1913 39.9876 1.3574 39.7981 1.57259C39.6087 1.78778 39.4704 2.04607 39.3943 2.32677L34.8009 16.93H16.1994L11.606 2.32677C11.5294 2.04649 11.3908 1.78868 11.2012 1.57391C11.0116 1.35913 10.7764 1.19332 10.5141 1.08971C10.2519 0.986099 9.96999 0.947548 9.69088 0.977132C9.41176 1.00672 9.14316 1.10362 8.9065 1.26011C8.58956 1.46779 8.34448 1.77483 8.20674 2.13677L1.40492 20.5733L1.3343 20.7566C0.355036 23.4143 0.234395 26.3305 0.990561 29.0656C1.74673 31.8007 3.33871 34.2063 5.52646 35.9198L5.55214 35.9398L5.60991 35.9865L15.9619 44.0431L21.0978 48.073L24.2178 50.523C24.5839 50.8102 25.0302 50.9655 25.4889 50.9655C25.9477 50.9655 26.394 50.8102 26.7601 50.523L29.8801 48.073L35.016 44.0431L45.4418 35.9398L45.4707 35.9165C47.6583 34.2036 49.2505 31.7988 50.0072 29.0643C50.7639 26.3299 50.6442 23.4142 49.6661 20.7566Z" fill="#E24329"/>
<path id="Vector_2" d="M49.6657 20.7566L49.5983 20.5699C46.2827 21.2765 43.1587 22.7357 40.45 24.8432L25.5078 36.5765L35.022 44.0431L45.4478 35.9398L45.4767 35.9165C47.6632 34.2028 49.2541 31.7975 50.0097 29.0631C50.7652 26.3288 50.6445 23.4135 49.6657 20.7566Z" fill="#FC6D26"/>
<path id="Vector_3" d="M15.9619 44.0431L21.0978 48.0731L24.2178 50.5231C24.5839 50.8102 25.0302 50.9656 25.489 50.9656C25.9477 50.9656 26.394 50.8102 26.7601 50.5231L29.8801 48.0731L35.016 44.0431L25.5018 36.5765L15.9619 44.0431Z" fill="#FCA326"/>
<path id="Vector_4" d="M10.55 24.8431C7.84228 22.7366 4.71928 21.2785 1.40492 20.5731L1.3343 20.7564C0.355036 23.4141 0.234395 26.3304 0.990561 29.0654C1.74673 31.8005 3.33871 34.2062 5.52646 35.9196L5.55214 35.9396L5.60992 35.9863L15.9619 44.0429L25.4825 36.5763L10.55 24.8431Z" fill="#FC6D26"/>
</g>
</svg>
