<svg width="51" height="51" viewBox="0 0 51 51" fill="none" xmlns="http://www.w3.org/2000/svg">
<g id="perforce" clip-path="url(#clip0_415_3847)">
<path id="Vector" d="M8.29352 19.2051C8.63519 18.3197 9.02685 17.4676 9.48727 16.6655C9.04352 16.2572 7.93519 15.3884 8.00394 15.3197C13.7831 8.39885 21.3185 6.31969 27.9831 7.52802C29.3477 7.71552 30.7123 8.04052 32.0581 8.53427C41.606 12.0801 46.4289 22.5968 42.8498 32.0426C42.4922 32.9662 42.0646 33.8612 41.5706 34.7197C42.0998 35.178 43.2581 36.0322 43.1914 36.1009C36.781 43.6863 28.2394 45.4426 21.131 43.3301C20.44 43.1566 19.7574 42.9516 19.0852 42.7155C9.55602 39.1697 4.71435 28.6509 8.29352 19.2051ZM40.856 3.01135C39.6456 4.16969 38.1956 5.5676 37.481 6.19885C36.3283 5.54659 35.1252 4.98785 33.8831 4.52802C23.0394 0.505103 11.6185 5.05719 5.32685 13.528C2.03727 18.3905 0.0935194 24.3738 0.570603 30.528C0.570603 30.528 0.589352 42.103 11.2789 48.9239C12.1477 47.728 13.2539 46.1947 13.9873 45.2051C15.1983 45.9041 16.4643 46.5033 17.7727 46.9968C30.0477 51.5468 43.6519 45.7343 48.0998 34.0218C48.0998 34.0218 51.356 26.8801 50.2831 19.0718C50.2831 19.0718 49.4477 8.53635 40.856 3.01344V3.01135Z" fill="#404040"/>
</g>
<defs>
<clipPath id="clip0_415_3847">
<rect width="50" height="50" fill="white" transform="translate(0.5 0.965576)"/>
</clipPath>
</defs>
</svg>
