<svg width="28" height="28" viewBox="0 0 28 28" fill="none" xmlns="http://www.w3.org/2000/svg">
<g clip-path="url(#clip0_7057_61059)">
<path d="M16.6663 11.333V14.6663C16.6663 15.1968 16.8771 15.7055 17.2521 16.0806C17.6272 16.4556 18.1359 16.6663 18.6663 16.6663C19.1968 16.6663 19.7055 16.4556 20.0806 16.0806C20.4556 15.7055 20.6663 15.1968 20.6663 14.6663V13.9997C20.6663 12.4979 20.1593 11.0401 19.2273 9.86246C18.2953 8.68484 16.993 7.8564 15.5314 7.51135C14.0697 7.16631 12.5344 7.32488 11.1742 7.96138C9.81395 8.59788 8.70846 9.67501 8.03683 11.0183C7.36521 12.3615 7.1668 13.8922 7.47375 15.3623C7.7807 16.8324 8.57503 18.1558 9.72803 19.118C10.881 20.0803 12.3252 20.6251 13.8265 20.6641C15.3278 20.7031 16.7982 20.2341 17.9997 19.333M16.6663 13.9997C16.6663 15.4724 15.4724 16.6663 13.9997 16.6663C12.5269 16.6663 11.333 15.4724 11.333 13.9997C11.333 12.5269 12.5269 11.333 13.9997 11.333C15.4724 11.333 16.6663 12.5269 16.6663 13.9997Z" stroke="#5E6E8C" stroke-width="1.25" stroke-linecap="round" stroke-linejoin="round"/>
</g>
<defs>
<clipPath id="clip0_7057_61059">
<rect width="16" height="16" fill="white" transform="translate(6 6)"/>
</clipPath>
</defs>
</svg>
