<svg width="40" height="40" viewBox="0 0 40 40" fill="none" xmlns="http://www.w3.org/2000/svg">
<mask id="path-1-inside-1_7216_2538" fill="white">
<path d="M0 0H40V40H0V0Z"/>
</mask>
<path d="M40 38.75H0V41.25H40V38.75Z" fill="#1C7ED6" mask="url(#path-1-inside-1_7216_2538)"/>
<g clip-path="url(#clip0_7216_2538)">
<path d="M25.0003 17.5003H26.667C27.109 17.5003 27.5329 17.6759 27.8455 17.9885C28.1581 18.301 28.3337 18.725 28.3337 19.167V28.3337L25.0003 25.0003H20.0003C19.5583 25.0003 19.1344 24.8247 18.8218 24.5122C18.5093 24.1996 18.3337 23.7757 18.3337 23.3337V22.5003M21.667 17.5003C21.667 17.9424 21.4914 18.3663 21.1788 18.6788C20.8663 18.9914 20.4424 19.167 20.0003 19.167H15.0003L11.667 22.5003V13.3337C11.667 12.417 12.417 11.667 13.3337 11.667H20.0003C20.4424 11.667 20.8663 11.8426 21.1788 12.1551C21.4914 12.4677 21.667 12.8916 21.667 13.3337V17.5003Z" stroke="#1C7ED6" stroke-width="1.5" stroke-linecap="round" stroke-linejoin="round"/>
</g>
<defs>
<clipPath id="clip0_7216_2538">
<rect width="20" height="20" fill="white" transform="translate(10 10)"/>
</clipPath>
</defs>
</svg>
