<svg width="40" height="40" viewBox="0 0 40 40" fill="none" xmlns="http://www.w3.org/2000/svg">
<path d="M12.5 20C12.5 21.4834 12.9399 22.9334 13.764 24.1668C14.5881 25.4001 15.7594 26.3614 17.1299 26.9291C18.5003 27.4968 20.0083 27.6453 21.4632 27.3559C22.918 27.0665 24.2544 26.3522 25.3033 25.3033C26.3522 24.2544 27.0665 22.918 27.3559 21.4632C27.6453 20.0083 27.4968 18.5003 26.9291 17.1299C26.3614 15.7594 25.4001 14.5881 24.1668 13.764C22.9334 12.9399 21.4834 12.5 20 12.5C17.9033 12.5079 15.8908 13.326 14.3833 14.7833L12.5 16.6667M12.5 16.6667V12.5M12.5 16.6667H16.6667M20 15.8333V20L23.3333 21.6667" stroke="#5E6E8C" stroke-width="1.5" stroke-linecap="round" stroke-linejoin="round"/>
</svg>
