<svg width="131" height="55" viewBox="0 0 131 55" fill="none" xmlns="http://www.w3.org/2000/svg">
<g opacity="0.8" clip-path="url(#clip0_7562_49193)">
<path d="M42.1787 14.9613L47.2443 13.7842V38.5511H42.1787V14.9613Z" fill="#270741"/>
<path d="M65.7824 35.7075C64.1608 37.7773 61.4922 38.9584 58.8551 38.9584C53.7855 38.9584 49.7354 35.5731 49.7354 30.3156C49.7354 25.0581 53.7894 21.6729 58.8551 21.6729C63.5901 21.6729 66.5618 25.0581 66.5618 30.3156V31.9114H54.801C55.2103 33.847 56.6627 35.0991 58.6229 35.0991C60.276 35.0991 61.3938 34.2499 62.2361 33.0965L65.7824 35.7114V35.7075ZM61.4922 28.4512C61.5276 26.7605 60.2091 25.3346 58.3828 25.3346C56.1589 25.3346 54.9388 26.8593 54.8049 28.4512H61.4961H61.4922Z" fill="#270741"/>
<path d="M94.6602 38.5502H89.9961V36.3777H89.9292C89.1538 37.5706 87.1897 38.9531 84.895 38.9531C80.0301 38.9531 76.8223 35.4257 76.8223 30.4407C76.8223 25.8666 79.6601 21.6637 84.3243 21.6637C86.4104 21.6637 88.3784 22.2364 89.5238 23.8323H89.5907V14.9525L94.6602 13.7754V38.5423V38.5502ZM85.9459 26.1431C83.4072 26.1431 81.8879 27.8376 81.8879 30.3104C81.8879 32.7831 83.4072 34.4777 85.9459 34.4777C88.4847 34.4777 89.9961 32.7831 89.9961 30.3104C89.9961 27.8376 88.4768 26.1431 85.9459 26.1431Z" fill="#270741"/>
<path d="M105.906 21.6729C110.968 21.6729 115.026 25.0581 115.026 30.3156C115.026 35.5731 110.968 38.9584 105.906 38.9584C100.844 38.9584 96.7783 35.5731 96.7783 30.3156C96.7783 25.0581 100.836 21.6729 105.906 21.6729ZM105.906 34.4829C108.433 34.4829 109.96 32.7883 109.96 30.3156C109.96 27.8429 108.437 26.1483 105.906 26.1483C103.375 26.1483 101.848 27.8429 101.848 30.3156C101.848 32.7883 103.367 34.4829 105.906 34.4829Z" fill="#270741"/>
<path d="M126.445 26.9264C125.701 26.0061 124.725 25.536 123.505 25.536C122.662 25.536 121.651 25.9073 121.651 26.8909C121.651 29.3281 130.196 27.2622 130.196 33.5349C130.196 37.7378 126.142 38.9544 122.627 38.9544C120.332 38.9544 117.801 38.3816 116.176 36.7187L119.25 33.294C120.194 34.4434 121.308 35.0952 122.832 35.0952C123.981 35.0952 125.13 34.791 125.13 33.9102C125.13 31.2636 116.585 33.5033 116.585 27.2266C116.585 23.3635 120.029 21.6729 123.477 21.6729C125.642 21.6729 128.035 22.214 129.558 23.8414L126.449 26.9264H126.445Z" fill="#270741"/>
<path d="M74.3635 22.0791H69.2979V38.5548H74.3635V22.0791Z" fill="#270741"/>
<path d="M74.3635 14.9844H69.2979V19.1991H74.3635V14.9844Z" fill="#270741"/>
<path d="M17.594 26.5699L34.9125 15.9521L12.7764 23.1729L17.594 26.5699Z" fill="#270741"/>
<path d="M8.71066 8.02051L6.93945 13.3768H34.0664L8.71066 8.02051Z" fill="#270741"/>
<path d="M2.89746 25.5627L11.0292 22.9083L5.14886 18.7646L2.89746 25.5627Z" fill="#270741"/>
<path d="M0 14.167L4.73501 17.5048L5.84497 14.167H0Z" fill="#270741"/>
<path d="M37.8173 14.167L6.6756 14.1709L5.4082 17.9828L11.9656 22.6043L37.8173 14.167Z" fill="#270741"/>
</g>
<defs>
<clipPath id="clip0_7562_49193">
<rect width="130.625" height="55" fill="white"/>
</clipPath>
</defs>
</svg>
