<svg width="172" height="55" viewBox="0 0 172 55" fill="none" xmlns="http://www.w3.org/2000/svg">
<g opacity="0.8">
<path d="M55.3682 14.9369L62.0178 13.7617V38.4881H55.3682V14.9369Z" fill="#270741"/>
<path d="M86.3521 35.6493C84.2234 37.7158 80.7203 38.8949 77.2585 38.8949C70.6037 38.8949 65.2871 35.5152 65.2871 30.2663C65.2871 25.0174 70.6089 21.6377 77.2585 21.6377C83.4742 21.6377 87.3751 25.0174 87.3751 30.2663V31.8595H71.9368C72.4741 33.7919 74.3806 35.042 76.9537 35.042C79.1238 35.042 80.5911 34.1941 81.6968 33.0426L86.3521 35.6533V35.6493ZM80.7203 28.4049C80.7668 26.7171 79.0359 25.2934 76.6385 25.2934C73.7193 25.2934 72.1176 26.8157 71.9419 28.4049H80.7255H80.7203Z" fill="#270741"/>
<path d="M124.261 38.4882H118.138V36.3192H118.05C117.032 37.5102 114.454 38.8905 111.442 38.8905C105.056 38.8905 100.845 35.3688 100.845 30.392C100.845 25.8253 104.57 21.6293 110.693 21.6293C113.431 21.6293 116.014 22.2011 117.518 23.7943H117.606V14.9291L124.261 13.7539V38.4803V38.4882ZM112.821 26.1013C109.489 26.1013 107.494 27.7931 107.494 30.2618C107.494 32.7305 109.489 34.4224 112.821 34.4224C116.154 34.4224 118.138 32.7305 118.138 30.2618C118.138 27.7931 116.144 26.1013 112.821 26.1013Z" fill="#270741"/>
<path d="M139.022 21.6377C145.666 21.6377 150.993 25.0174 150.993 30.2663C150.993 35.5152 145.666 38.8949 139.022 38.8949C132.377 38.8949 127.04 35.5152 127.04 30.2663C127.04 25.0174 132.367 21.6377 139.022 21.6377ZM139.022 34.4268C142.339 34.4268 144.344 32.735 144.344 30.2663C144.344 27.7976 142.344 26.1058 139.022 26.1058C135.7 26.1058 133.695 27.7976 133.695 30.2663C133.695 32.735 135.689 34.4268 139.022 34.4268Z" fill="#270741"/>
<path d="M165.983 26.8827C165.007 25.9638 163.725 25.4945 162.123 25.4945C161.018 25.4945 159.69 25.8652 159.69 26.8472C159.69 29.2804 170.907 27.2179 170.907 33.4803C170.907 37.6763 165.585 38.891 160.971 38.891C157.959 38.891 154.637 38.3192 152.503 36.6589L156.538 33.2398C157.778 34.3874 159.24 35.0381 161.24 35.0381C162.749 35.0381 164.257 34.7344 164.257 33.855C164.257 31.2128 153.04 33.4488 153.04 27.1824C153.04 23.3256 157.561 21.6377 162.087 21.6377C164.929 21.6377 168.07 22.178 170.07 23.8027L165.988 26.8827H165.983Z" fill="#270741"/>
<path d="M97.6164 22.0439H90.9668V38.4927H97.6164V22.0439Z" fill="#270741"/>
<path d="M97.6164 14.9609H90.9668V19.1688H97.6164V14.9609Z" fill="#270741"/>
<path d="M23.0956 26.5272L45.8295 15.9268L16.7715 23.1357L23.0956 26.5272Z" fill="#270741"/>
<path d="M11.4344 8.00781L9.10938 13.3553H44.7188L11.4344 8.00781Z" fill="#270741"/>
<path d="M3.80273 25.5213L14.4773 22.8712L6.75813 18.7344L3.80273 25.5213Z" fill="#270741"/>
<path d="M0 14.1436L6.21564 17.4759L7.67267 14.1436H0Z" fill="#270741"/>
<path d="M49.6419 14.1436L8.76234 14.1475L7.09863 17.9531L15.7065 22.5671L49.6419 14.1436Z" fill="#270741"/>
</g>
</svg>
