<svg width="20" height="20" viewBox="0 0 20 20" fill="none" xmlns="http://www.w3.org/2000/svg">
<path d="M9.99967 14.167H10.008M7.58309 7.50026C7.78307 6.94912 8.1704 6.4858 8.67737 6.19129C9.18433 5.89678 9.77868 5.78981 10.3565 5.8891C10.9343 5.98838 11.4589 6.2876 11.8385 6.73444C12.2181 7.18127 12.4285 7.74731 12.4331 8.3336C12.4331 10.0003 9.93309 10.8336 9.93309 10.8336M12.4997 1.66699H4.99967C4.55765 1.66699 4.13372 1.84259 3.82116 2.15515C3.5086 2.46771 3.33301 2.89163 3.33301 3.33366V16.667C3.33301 17.109 3.5086 17.5329 3.82116 17.8455C4.13372 18.1581 4.55765 18.3337 4.99967 18.3337H14.9997C15.4417 18.3337 15.8656 18.1581 16.1782 17.8455C16.4907 17.5329 16.6663 17.109 16.6663 16.667V5.83366L12.4997 1.66699Z" stroke="#181B26" stroke-opacity="0.7" stroke-width="1.5" stroke-linecap="round" stroke-linejoin="round"/>
</svg>
