<svg width="12" height="12" viewBox="0 0 12 12" fill="none" xmlns="http://www.w3.org/2000/svg">
<g clip-path="url(#clip0_7301_1935)">
<path fill-rule="evenodd" clip-rule="evenodd" d="M6.00024 0.478516C2.87396 0.478516 0.338867 3.01305 0.338867 6.13989C0.338867 8.64133 1.96102 10.7634 4.21046 11.512C4.4933 11.5645 4.59718 11.3892 4.59718 11.2397C4.59718 11.1047 4.59193 10.6587 4.58949 10.1857C3.01449 10.5281 2.68215 9.5177 2.68215 9.5177C2.42462 8.86333 2.05355 8.68933 2.05355 8.68933C1.5398 8.33795 2.09227 8.34527 2.09227 8.34527C2.66068 8.38511 2.96012 8.92867 2.96012 8.92867C3.46505 9.79398 4.28452 9.54386 4.60759 9.3993C4.6584 9.03339 4.80512 8.78355 4.96702 8.64217C3.70955 8.4992 2.38759 8.01367 2.38759 5.84439C2.38759 5.2263 2.60884 4.72127 2.97099 4.3247C2.91212 4.1822 2.71834 3.60639 3.02574 2.82658C3.02574 2.82658 3.50105 2.67442 4.58293 3.40689C5.03462 3.28136 5.51902 3.21827 6.00024 3.21611C6.48118 3.21827 6.96587 3.28117 7.4184 3.4067C8.49896 2.67423 8.97371 2.82639 8.97371 2.82639C9.28187 3.60611 9.08809 4.18202 9.0293 4.32452C9.3923 4.72108 9.61196 5.22611 9.61196 5.8442C9.61196 8.01864 8.28755 8.49733 7.0269 8.63758C7.23005 8.81327 7.41099 9.15789 7.41099 9.68598C7.41099 10.4435 7.40443 11.0531 7.40443 11.2396C7.40443 11.3903 7.50643 11.5668 7.7933 11.5112C10.0414 10.7618 11.6617 8.64039 11.6617 6.13989C11.6616 3.01323 9.1268 0.478516 6.00024 0.478516Z" fill="#181616"/>
<path d="M2.48278 8.60658C2.47031 8.6347 2.42606 8.64314 2.38574 8.62392C2.34449 8.60555 2.32153 8.5672 2.33484 8.53898C2.34703 8.50992 2.39137 8.50195 2.43234 8.52136C2.47359 8.53983 2.49703 8.57855 2.48268 8.60667L2.48278 8.60658ZM2.71209 8.86242C2.68518 8.88745 2.6324 8.87583 2.59659 8.83617C2.55946 8.7968 2.55253 8.74401 2.57999 8.71861C2.60793 8.69367 2.65912 8.70548 2.69624 8.74486C2.73318 8.7848 2.74049 8.83711 2.71218 8.86251L2.71209 8.86242ZM2.9354 9.18839C2.90071 9.21258 2.8439 9.18998 2.80884 9.13964C2.77415 9.0892 2.77415 9.02873 2.80978 9.00464C2.84474 8.98045 2.90071 9.0023 2.93634 9.05217C2.97084 9.10326 2.97084 9.16383 2.9354 9.18839ZM3.24112 9.50348C3.21018 9.5377 3.14399 9.52851 3.09562 9.48192C3.04621 9.43626 3.03243 9.3713 3.06346 9.33717C3.09496 9.30286 3.16143 9.31242 3.21009 9.35873C3.25949 9.4043 3.2744 9.46936 3.24131 9.50339L3.24112 9.50348ZM3.66299 9.68639C3.64921 9.73073 3.58565 9.75089 3.52143 9.73195C3.4574 9.71255 3.41549 9.6607 3.42862 9.61589C3.44174 9.57117 3.50578 9.55026 3.57037 9.57042C3.6344 9.58973 3.67631 9.6413 3.66299 9.68639ZM4.1264 9.72023C4.12799 9.76692 4.07362 9.80555 4.0064 9.80648C3.93862 9.80808 3.88378 9.7702 3.88312 9.72426C3.88312 9.67711 3.93637 9.63895 4.00406 9.63764C4.07128 9.63642 4.12649 9.67392 4.12649 9.72014L4.1264 9.72023ZM4.55746 9.64692C4.56553 9.69239 4.51874 9.73917 4.4519 9.75164C4.38628 9.76383 4.32534 9.73551 4.3169 9.69042C4.30884 9.64373 4.35646 9.59695 4.42209 9.58486C4.48903 9.57333 4.54903 9.6007 4.55746 9.64692Z" fill="#181616"/>
</g>
<defs>
<clipPath id="clip0_7301_1935">
<rect width="12" height="12" fill="white"/>
</clipPath>
</defs>
</svg>
