<svg width="20" height="20" viewBox="0 0 20 20" fill="none" xmlns="http://www.w3.org/2000/svg">
<path d="M12.5001 10.0002L5.52265 16.9777C5.19113 17.3092 4.74149 17.4954 4.27265 17.4954C3.80381 17.4954 3.35417 17.3092 3.02265 16.9777C2.69113 16.6461 2.50488 16.1965 2.50488 15.7277C2.50488 15.2588 2.69113 14.8092 3.02265 14.4777L10.0001 7.50016M15.0002 12.5002L18.3335 9.16683M17.9169 9.58346L16.3219 7.98846C16.0093 7.67598 15.8336 7.25212 15.8335 6.81013V5.83346L13.9502 3.95013C13.0207 3.02112 11.7627 2.49543 10.4485 2.4868L7.5002 2.4668L8.26687 3.15013C8.81142 3.63296 9.24745 4.22572 9.54622 4.88933C9.84499 5.55295 9.99972 6.27236 10.0002 7.00013V8.33346L11.6669 10.0001H12.6435C13.0855 10.0002 13.5094 10.1759 13.8219 10.4885L15.4169 12.0835" stroke="#181B26" stroke-opacity="0.7" stroke-width="1.5" stroke-linecap="round" stroke-linejoin="round"/>
</svg>
