<svg width="15" height="15" viewBox="0 0 15 15" fill="none" xmlns="http://www.w3.org/2000/svg">
<g clip-path="url(#clip0_7301_31596)">
<path d="M13.2129 1.25H10.7129V3.62222H13.2129V1.25Z" fill="black"/>
<path d="M14.4629 1.25H11.9629V3.62222H14.4629V1.25Z" fill="#F7D046"/>
<path d="M3.21289 1.25H0.712891V3.62222H3.21289V1.25Z" fill="black"/>
<path d="M3.21289 3.62207H0.712891V5.99429H3.21289V3.62207Z" fill="black"/>
<path d="M3.21289 5.99414H0.712891V8.36636H3.21289V5.99414Z" fill="black"/>
<path d="M3.21289 8.36621H0.712891V10.7384H3.21289V8.36621Z" fill="black"/>
<path d="M3.21289 10.7393H0.712891V13.1115H3.21289V10.7393Z" fill="black"/>
<path d="M4.46289 1.25H1.96289V3.62222H4.46289V1.25Z" fill="#F7D046"/>
<path d="M14.4629 3.62207H11.9629V5.99429H14.4629V3.62207Z" fill="#F2A73B"/>
<path d="M4.46289 3.62207H1.96289V5.99429H4.46289V3.62207Z" fill="#F2A73B"/>
<path d="M10.7129 3.62207H8.21289V5.99429H10.7129V3.62207Z" fill="black"/>
<path d="M11.9629 3.62207H9.46289V5.99429H11.9629V3.62207Z" fill="#F2A73B"/>
<path d="M6.96289 3.62207H4.46289V5.99429H6.96289V3.62207Z" fill="#F2A73B"/>
<path d="M9.46289 5.99414H6.96289V8.36636H9.46289V5.99414Z" fill="#EE792F"/>
<path d="M11.9629 5.99414H9.46289V8.36636H11.9629V5.99414Z" fill="#EE792F"/>
<path d="M6.96289 5.99414H4.46289V8.36636H6.96289V5.99414Z" fill="#EE792F"/>
<path d="M8.21289 8.36621H5.71289V10.7384H8.21289V8.36621Z" fill="black"/>
<path d="M9.46289 8.36621H6.96289V10.7384H9.46289V8.36621Z" fill="#EB5829"/>
<path d="M14.4629 5.99414H11.9629V8.36636H14.4629V5.99414Z" fill="#EE792F"/>
<path d="M4.46289 5.99414H1.96289V8.36636H4.46289V5.99414Z" fill="#EE792F"/>
<path d="M13.2129 8.36621H10.7129V10.7384H13.2129V8.36621Z" fill="black"/>
<path d="M14.4629 8.36621H11.9629V10.7384H14.4629V8.36621Z" fill="#EB5829"/>
<path d="M13.2129 10.7393H10.7129V13.1115H13.2129V10.7393Z" fill="black"/>
<path d="M4.46289 8.36621H1.96289V10.7384H4.46289V8.36621Z" fill="#EB5829"/>
<path d="M14.4629 10.7393H11.9629V13.1115H14.4629V10.7393Z" fill="#EA3326"/>
<path d="M4.46289 10.7393H1.96289V13.1115H4.46289V10.7393Z" fill="#EA3326"/>
</g>
<defs>
<clipPath id="clip0_7301_31596">
<rect width="13.75" height="11.875" fill="white" transform="translate(0.712891 1.25)"/>
</clipPath>
</defs>
</svg>
