<svg width="570" height="359" viewBox="0 0 570 359" fill="none" xmlns="http://www.w3.org/2000/svg">
<g clip-path="url(#clip0_4566_19010)">
<rect y="0.0102539" width="549" height="249" rx="8" fill="#270741"/>
<path d="M46.93 45.1851H36.89V43.4325H40.9892V33.1054H40.8308L36.8603 35.6897V33.6104L40.9991 30.8974H43.019V43.4325H46.93V45.1851ZM36.7712 64.9966C36.7712 62.4222 38.6921 60.6004 41.4149 60.6004C44.1378 60.6004 45.9894 62.244 45.9894 64.65C45.9894 66.155 45.2765 67.3828 42.9497 69.8185L39.7614 73.2147V73.383H46.2171V75.1851H36.8702V73.7692L41.6526 68.6007C43.5041 66.5907 43.9596 65.8382 43.9596 64.7589C43.9596 63.2935 42.9299 62.343 41.3555 62.343C39.7713 62.343 38.7218 63.4024 38.7218 64.9966V65.056H36.7712V64.9966ZM39.7515 98.6601V97.0164H41.3456C42.8903 97.0164 43.9596 96.0362 43.9596 94.6302C43.9596 93.2341 42.9299 92.3331 41.3753 92.3331C39.8208 92.3331 38.801 93.2341 38.6723 94.6995H36.7514C36.8999 92.1648 38.6921 90.6004 41.4447 90.6004C44.1081 90.6004 45.9696 92.1351 45.9696 94.3332C45.9696 96.0362 45.0487 97.2739 43.5041 97.6303V97.7887C45.4151 98.0363 46.5538 99.3532 46.5538 101.284C46.5538 103.749 44.4646 105.482 41.514 105.482C38.603 105.482 36.6029 103.829 36.4742 101.304H38.4049C38.5436 102.759 39.7416 103.69 41.4546 103.69C43.316 103.69 44.4844 102.73 44.4844 101.205C44.4844 99.6502 43.2863 98.6601 41.405 98.6601H39.7515ZM42.9992 135.185V132.254H36.5336V130.611L41.2367 120.897H43.3259L38.7119 130.383V130.522H43.0487V126.571H44.9002V130.522H47.0092V132.254H44.9101V135.185H42.9992ZM41.3852 165.472C38.6327 165.472 36.6821 163.789 36.5633 161.314H38.5436C38.7119 162.71 39.9 163.67 41.4744 163.67C43.2269 163.67 44.3953 162.442 44.3953 160.601C44.3953 158.759 43.217 157.512 41.4744 157.512C40.2664 157.512 39.2862 158.046 38.7416 159.017H36.7811L37.4841 150.897H45.5636V152.69H39.1178L38.7416 157.115H38.9099C39.5832 156.254 40.6228 155.799 41.9001 155.799C44.5438 155.799 46.3854 157.749 46.3854 160.551C46.3854 163.492 44.3755 165.472 41.3852 165.472Z" fill="#5E6E8C"/>
<path d="M78.4381 45.1851V36.0857H75.5469V34.452H78.4381V33.442C78.4381 31.2637 79.6857 30.3033 82.4185 30.3033C82.9333 30.3033 84.7354 30.3429 85.0324 30.3924V31.9271C84.6364 31.8875 82.9531 31.8479 82.4581 31.8479C81.1016 31.8479 80.3887 32.3727 80.3887 33.3727V34.452H85.0324V36.0857H80.4184V45.1851H78.4381ZM97.1715 34.3926V45.1851H95.2506V43.3137H95.112C94.5476 44.6405 93.3298 45.393 91.7158 45.393C89.3692 45.393 88.1018 43.987 88.1018 41.3928V34.3926H90.092V40.9077C90.092 42.7493 90.8346 43.6206 92.4287 43.6206C94.0823 43.6206 95.1912 42.4622 95.1912 40.7195V34.3926H97.1715ZM100.637 45.1851V34.3926H102.558V36.2738H102.696C103.261 34.9372 104.479 34.1847 106.093 34.1847C108.439 34.1847 109.707 35.5906 109.707 38.1848V45.1851H107.716V38.6799C107.716 36.8283 106.974 35.957 105.38 35.957C103.726 35.957 102.617 37.1155 102.617 38.8581V45.1851H100.637ZM122.321 37.868H120.36C120.172 36.6204 119.202 35.8778 117.885 35.8778C116.133 35.8778 115.162 37.1056 115.162 39.3235V40.2344C115.162 42.4523 116.133 43.6801 117.885 43.6801C119.212 43.6801 120.162 42.9573 120.36 41.7394H122.321C122.054 44.0365 120.42 45.393 117.905 45.393C114.905 45.393 113.172 43.5909 113.172 40.4423V39.1155C113.172 35.9669 114.905 34.1747 117.905 34.1747C120.42 34.1747 122.054 35.5312 122.321 37.868ZM128.282 31.442H130.242V34.452H134.51V36.0857H130.272V41.9176C130.272 42.987 131.014 43.5711 132.391 43.5711C132.896 43.5711 134.212 43.5513 134.45 43.5216V45.1455C134.232 45.1851 132.668 45.2247 132.252 45.2247C129.49 45.2247 128.282 44.2345 128.282 41.9176V36.0857H125.43V34.452H128.282V31.442ZM142.955 31.8677C142.074 31.8677 141.421 31.2538 141.421 30.4023C141.421 29.5409 142.074 28.927 142.955 28.927C143.846 28.927 144.49 29.5409 144.49 30.4023C144.49 31.2538 143.846 31.8677 142.955 31.8677ZM147.51 45.1851H138.45V43.581H142.084V35.9966H138.529V34.3926H144.025V43.581H147.51V45.1851ZM155.312 45.393C152.401 45.393 150.55 43.5315 150.55 40.6106V38.9769C150.55 36.0461 152.401 34.1946 155.312 34.1946C158.223 34.1946 160.075 36.0461 160.075 38.9769V40.6106C160.075 43.5315 158.223 45.393 155.312 45.393ZM155.312 35.8778C153.589 35.8778 152.51 37.1155 152.51 39.1155V40.472C152.51 42.4721 153.589 43.7098 155.312 43.7098C157.035 43.7098 158.114 42.4721 158.114 40.472V39.1155C158.114 37.1155 157.035 35.8778 155.312 35.8778ZM163.313 45.1851V34.3926H165.233V36.2738H165.372C165.936 34.9372 167.154 34.1847 168.768 34.1847C171.115 34.1847 172.382 35.5906 172.382 38.1848V45.1851H170.392V38.6799C170.392 36.8283 169.649 35.957 168.055 35.957C166.402 35.957 165.293 37.1155 165.293 38.8581V45.1851H163.313ZM371.875 45.1851L370.736 41.2443H365.983L364.835 45.1851H362.756L367.261 30.8974H369.558L374.063 45.1851H371.875ZM368.33 33.1846L366.469 39.571H370.251L368.399 33.1846H368.33ZM385.479 34.3926V45.1851H383.558V43.3137H383.42C382.855 44.6405 381.638 45.393 380.024 45.393C377.677 45.393 376.41 43.987 376.41 41.3928V34.3926H378.4V40.9077C378.4 42.7493 379.142 43.6206 380.736 43.6206C382.39 43.6206 383.499 42.4622 383.499 40.7195V34.3926H385.479ZM391.519 31.442H393.48V34.452H397.747V36.0857H393.509V41.9176C393.509 42.987 394.252 43.5711 395.628 43.5711C396.133 43.5711 397.45 43.5513 397.688 43.5216V45.1455C397.47 45.1851 395.905 45.2247 395.49 45.2247C392.727 45.2247 391.519 44.2345 391.519 41.9176V36.0857H388.667V34.452H391.519V31.442ZM401.46 45.1851V30.1845H403.381V36.2837H403.529C404.084 34.957 405.312 34.2045 406.945 34.2045C409.292 34.2045 410.569 35.6203 410.569 38.2046V45.1851H408.589V38.6898C408.589 36.858 407.827 35.9768 406.232 35.9768C404.559 35.9768 403.45 37.1353 403.45 38.8779V45.1851H401.46ZM451.155 34.3926H453.284L456.106 43.1553H456.244L459.046 34.3926H461.155L457.264 45.1851H455.056L451.155 34.3926ZM468.69 45.393C465.779 45.393 463.928 43.5315 463.928 40.6106V38.9769C463.928 36.0461 465.779 34.1946 468.69 34.1946C471.601 34.1946 473.453 36.0461 473.453 38.9769V40.6106C473.453 43.5315 471.601 45.393 468.69 45.393ZM468.69 35.8778C466.967 35.8778 465.888 37.1155 465.888 39.1155V40.472C465.888 42.4721 466.967 43.7098 468.69 43.7098C470.413 43.7098 471.492 42.4721 471.492 40.472V39.1155C471.492 37.1155 470.413 35.8778 468.69 35.8778ZM481.404 31.8677C480.522 31.8677 479.869 31.2538 479.869 30.4023C479.869 29.5409 480.522 28.927 481.404 28.927C482.295 28.927 482.938 29.5409 482.938 30.4023C482.938 31.2538 482.295 31.8677 481.404 31.8677ZM485.958 45.1851H476.898V43.581H480.532V35.9966H476.978V34.3926H482.473V43.581H485.958V45.1851ZM492.929 45.3633C490.444 45.3633 488.859 43.5909 488.859 40.7691V38.8086C488.859 35.9867 490.444 34.2144 492.929 34.2144C494.483 34.2144 495.622 34.8975 496.058 36.1055H496.246V30.1845H498.285V45.1851H496.295V43.482H496.107C495.592 44.6999 494.483 45.3633 492.929 45.3633ZM493.582 43.6008C495.246 43.6008 496.295 42.4325 496.295 40.5809V38.967C496.295 37.1056 495.246 35.9372 493.582 35.9372C491.919 35.9372 490.869 37.1155 490.869 38.967V40.5809C490.869 42.4325 491.919 43.6008 493.582 43.6008Z" fill="#C196FC"/>
<path d="M278.307 38.0363C278.307 34.5906 279.356 31.5905 281.357 29.333H283.367C281.287 32.3133 280.426 34.8678 280.426 38.0363C280.426 41.2146 281.287 43.7593 283.367 46.7396H281.357C279.356 44.4821 278.307 41.482 278.307 38.0363ZM292.001 45.3633C289.941 45.3633 288.575 44.0662 288.575 42.1156C288.575 40.1948 289.961 39.066 292.476 38.9175L295.308 38.769V37.8184C295.308 36.5808 294.535 35.8877 293.149 35.8877C292.001 35.8877 291.179 36.3828 290.921 37.2343H288.981C289.179 35.452 290.872 34.2441 293.189 34.2441C295.793 34.2441 297.278 35.551 297.278 37.8184V45.195H295.387V43.6206H295.199C294.684 44.7296 293.525 45.3633 292.001 45.3633ZM292.614 43.7098C294.159 43.7098 295.308 42.6899 295.308 41.3136V40.175L292.743 40.3037C291.307 40.3829 290.555 40.977 290.555 42.0265C290.555 43.0662 291.347 43.7098 292.614 43.7098ZM310.269 34.3926V45.1851H308.348V43.3137H308.209C307.645 44.6405 306.427 45.393 304.813 45.393C302.466 45.393 301.199 43.987 301.199 41.3928V34.3926H303.189V40.9077C303.189 42.7493 303.932 43.6206 305.526 43.6206C307.179 43.6206 308.288 42.4622 308.288 40.7195V34.3926H310.269ZM316.308 31.442H318.269V34.452H322.536V36.0857H318.299V41.9176C318.299 42.987 319.041 43.5711 320.417 43.5711C320.922 43.5711 322.239 43.5513 322.477 43.5216V45.1455C322.259 45.1851 320.695 45.2247 320.279 45.2247C317.516 45.2247 316.308 44.2345 316.308 41.9176V36.0857H313.457V34.452H316.308V31.442ZM326.249 45.1851V30.1845H328.17V36.2837H328.319C328.873 34.957 330.101 34.2045 331.735 34.2045C334.081 34.2045 335.359 35.6203 335.359 38.2046V45.1851H333.378V38.6898C333.378 36.858 332.616 35.9768 331.022 35.9768C329.348 35.9768 328.239 37.1353 328.239 38.8779V45.1851H326.249ZM343.339 37.6996C342.299 37.6996 341.438 36.8283 341.438 35.7689C341.438 34.6995 342.299 33.8282 343.339 33.8282C344.389 33.8282 345.24 34.6995 345.24 35.7689C345.24 36.8283 344.389 37.6996 343.339 37.6996ZM343.339 45.2841C342.299 45.2841 341.438 44.4029 341.438 43.3434C341.438 42.2741 342.299 41.4027 343.339 41.4027C344.389 41.4027 345.24 42.2741 345.24 43.3434C345.24 44.4029 344.389 45.2841 343.339 45.2841ZM420.906 38.0363C420.906 41.482 419.857 44.4821 417.857 46.7396H415.847C417.926 43.7593 418.787 41.2146 418.787 38.0363C418.787 34.8678 417.926 32.3133 415.847 29.333H417.857C419.857 31.5905 420.906 34.5906 420.906 38.0363ZM431.085 37.6996C430.045 37.6996 429.184 36.8283 429.184 35.7689C429.184 34.6995 430.045 33.8282 431.085 33.8282C432.134 33.8282 432.986 34.6995 432.986 35.7689C432.986 36.8283 432.134 37.6996 431.085 37.6996ZM431.085 45.2841C430.045 45.2841 429.184 44.4029 429.184 43.3434C429.184 42.2741 430.045 41.4027 431.085 41.4027C432.134 41.4027 432.986 42.2741 432.986 43.3434C432.986 44.4029 432.134 45.2841 431.085 45.2841ZM522.771 46.7693H521.356C518.811 46.7693 517.999 45.9574 517.999 43.4325V41.2245C517.999 39.6799 517.167 38.8779 514.89 39.066V37.0164C517.167 37.2046 517.999 36.4026 517.999 34.8678V32.6499C517.999 30.1251 518.811 29.3132 521.356 29.3132H522.771V30.8974H521.732C520.276 30.8974 519.989 31.2439 519.989 32.9371V35.6104C519.989 36.9867 518.969 37.8977 517.029 37.9571V38.1254C518.969 38.1848 519.989 39.0957 519.989 40.472V43.1454C519.989 44.8385 520.276 45.1851 521.732 45.1851H522.771V46.7693ZM76.1608 166.769V165.185H77.2004C78.6559 165.185 78.9431 164.839 78.9431 163.145V160.472C78.9431 159.096 79.9629 158.185 81.9036 158.125V157.957C79.9629 157.898 78.9431 156.987 78.9431 155.61V152.937C78.9431 151.244 78.6559 150.897 77.2004 150.897H76.1608V149.313H77.5767C80.1213 149.313 80.9333 150.125 80.9333 152.65V154.868C80.9333 156.403 81.765 157.205 84.0423 157.016V159.066C81.765 158.878 80.9333 159.68 80.9333 161.225V163.433C80.9333 165.957 80.1213 166.769 77.5767 166.769H76.1608Z" fill="#BDD3FF"/>
<path d="M188.858 37.3729C188.858 35.4421 190.472 34.1747 192.947 34.1747C195.304 34.1747 196.848 35.3035 197.027 37.1749H195.126C194.947 36.2936 194.106 35.7491 192.918 35.7491C191.65 35.7491 190.828 36.3431 190.828 37.2343C190.828 38.0066 191.353 38.4323 192.611 38.7096L194.175 39.0561C196.304 39.5314 197.264 40.4423 197.264 42.0265C197.264 44.0761 195.571 45.3831 192.937 45.3831C190.393 45.3831 188.749 44.2444 188.571 42.3434H190.571C190.789 43.2642 191.68 43.789 192.987 43.789C194.343 43.789 195.215 43.185 195.215 42.2444C195.215 41.4522 194.73 41.0463 193.423 40.7493L191.809 40.3829C189.838 39.9373 188.858 38.9472 188.858 37.3729ZM208.195 42.3335H210.096C209.809 44.1454 208.027 45.393 205.7 45.393C202.67 45.393 200.938 43.6107 200.938 40.5413V38.8977C200.938 36.056 202.789 34.1847 205.591 34.1847C208.413 34.1847 210.126 36.0461 210.126 39.1155V40.2839H202.888V40.7691C202.888 42.5909 203.987 43.7593 205.69 43.7593C206.968 43.7593 207.928 43.2147 208.195 42.3335ZM205.572 35.8085C203.898 35.8085 202.888 36.957 202.888 38.8878H208.176C208.176 36.9669 207.205 35.8085 205.572 35.8085ZM216.027 31.442H217.988V34.452H222.255V36.0857H218.018V41.9176C218.018 42.987 218.76 43.5711 220.136 43.5711C220.641 43.5711 221.958 43.5513 222.196 43.5216V45.1455C221.978 45.1851 220.414 45.2247 219.998 45.2247C217.235 45.2247 216.027 44.2345 216.027 41.9176V36.0857H213.176V34.452H216.027V31.442ZM233.988 45.1851L232.85 41.2443H228.097L226.949 45.1851H224.869L229.374 30.8974H231.672L236.177 45.1851H233.988ZM230.444 33.1846L228.582 39.571H232.365L230.513 33.1846H230.444ZM247.593 34.3926V45.1851H245.672V43.3137H245.533C244.969 44.6405 243.751 45.393 242.137 45.393C239.791 45.393 238.523 43.987 238.523 41.3928V34.3926H240.513V40.9077C240.513 42.7493 241.256 43.6206 242.85 43.6206C244.504 43.6206 245.613 42.4622 245.613 40.7195V34.3926H247.593ZM253.633 31.442H255.593V34.452H259.861V36.0857H255.623V41.9176C255.623 42.987 256.366 43.5711 257.742 43.5711C258.247 43.5711 259.564 43.5513 259.801 43.5216V45.1455C259.583 45.1851 258.019 45.2247 257.603 45.2247C254.841 45.2247 253.633 44.2345 253.633 41.9176V36.0857H250.781V34.452H253.633V31.442ZM263.574 45.1851V30.1845H265.495V36.2837H265.643C266.198 34.957 267.425 34.2045 269.059 34.2045C271.406 34.2045 272.683 35.6203 272.683 38.2046V45.1851H270.703V38.6898C270.703 36.858 269.94 35.9768 268.346 35.9768C266.673 35.9768 265.564 37.1353 265.564 38.8779V45.1851H263.574Z" fill="#0095AD"/>
<path d="M105.172 75.2841C104.122 75.2841 103.271 74.4029 103.271 73.3434C103.271 72.2741 104.122 71.4027 105.172 71.4027C106.221 71.4027 107.073 72.2741 107.073 73.3434C107.073 74.4029 106.221 75.2841 105.172 75.2841ZM117.707 75.2841C116.657 75.2841 115.806 74.4029 115.806 73.3434C115.806 72.2741 116.657 71.4027 117.707 71.4027C118.756 71.4027 119.608 72.2741 119.608 73.3434C119.608 74.4029 118.756 75.2841 117.707 75.2841ZM130.242 75.2841C129.192 75.2841 128.341 74.4029 128.341 73.3434C128.341 72.2741 129.192 71.4027 130.242 71.4027C131.292 71.4027 132.143 72.2741 132.143 73.3434C132.143 74.4029 131.292 75.2841 130.242 75.2841ZM105.172 105.284C104.122 105.284 103.271 104.403 103.271 103.343C103.271 102.274 104.122 101.403 105.172 101.403C106.221 101.403 107.073 102.274 107.073 103.343C107.073 104.403 106.221 105.284 105.172 105.284ZM117.707 105.284C116.657 105.284 115.806 104.403 115.806 103.343C115.806 102.274 116.657 101.403 117.707 101.403C118.756 101.403 119.608 102.274 119.608 103.343C119.608 104.403 118.756 105.284 117.707 105.284ZM130.242 105.284C129.192 105.284 128.341 104.403 128.341 103.343C128.341 102.274 129.192 101.403 130.242 101.403C131.292 101.403 132.143 102.274 132.143 103.343C132.143 104.403 131.292 105.284 130.242 105.284ZM105.172 135.284C104.122 135.284 103.271 134.403 103.271 133.343C103.271 132.274 104.122 131.403 105.172 131.403C106.221 131.403 107.073 132.274 107.073 133.343C107.073 134.403 106.221 135.284 105.172 135.284ZM117.707 135.284C116.657 135.284 115.806 134.403 115.806 133.343C115.806 132.274 116.657 131.403 117.707 131.403C118.756 131.403 119.608 132.274 119.608 133.343C119.608 134.403 118.756 135.284 117.707 135.284ZM130.242 135.284C129.192 135.284 128.341 134.403 128.341 133.343C128.341 132.274 129.192 131.403 130.242 131.403C131.292 131.403 132.143 132.274 132.143 133.343C132.143 134.403 131.292 135.284 130.242 135.284Z" fill="#5E6E8C"/>
</g>
<rect x="232.996" y="93.0103" width="336" height="264.267" rx="5" fill="white"/>
<rect x="232.996" y="93.0103" width="336" height="264.267" rx="5" stroke="#DBE2F0" stroke-width="2"/>
<path d="M268.672 135.232V119.506H278.655V121.609H271.113V126.209H278.252V128.236H271.113V133.129H278.655V135.232H268.672ZM286.229 135.429C283.254 135.429 281.325 133.042 281.325 129.325V129.304C281.325 125.555 283.221 123.19 286.229 123.19C287.853 123.19 289.237 123.996 289.869 125.271H290.055V118.754H292.409V135.232H290.055V133.369H289.869C289.183 134.666 287.886 135.429 286.229 135.429ZM286.905 133.412C288.878 133.412 290.087 131.854 290.087 129.325V129.304C290.087 126.775 288.867 125.217 286.905 125.217C284.921 125.217 283.733 126.764 283.733 129.304V129.325C283.733 131.865 284.921 133.412 286.905 133.412ZM297.16 121.282C296.343 121.282 295.678 120.618 295.678 119.811C295.678 118.994 296.343 118.329 297.16 118.329C297.967 118.329 298.643 118.994 298.643 119.811C298.643 120.618 297.967 121.282 297.16 121.282ZM295.972 135.232V123.397H298.326V135.232H295.972ZM306.239 135.309C303.634 135.309 302.566 134.393 302.566 132.115V125.26H300.713V123.397H302.566V120.411H304.975V123.397H307.514V125.26H304.975V131.549C304.975 132.824 305.454 133.347 306.62 133.347C306.98 133.347 307.187 133.336 307.514 133.303V135.189C307.132 135.254 306.696 135.309 306.239 135.309ZM323.099 135.614C318.728 135.614 316.004 132.453 316.004 127.386V127.364C316.004 122.285 318.717 119.125 323.088 119.125C326.553 119.125 329.213 121.315 329.627 124.443L329.616 124.497H327.196V124.465C326.739 122.536 325.158 121.282 323.088 121.282C320.265 121.282 318.499 123.626 318.499 127.364V127.386C318.499 131.113 320.265 133.456 323.099 133.456C325.18 133.456 326.739 132.344 327.186 130.568L327.207 130.524H329.627V130.59C329.169 133.609 326.608 135.614 323.099 135.614ZM337.583 135.461C334.106 135.461 331.981 133.14 331.981 129.325V129.304C331.981 125.5 334.117 123.168 337.583 123.168C341.037 123.168 343.174 125.489 343.174 129.304V129.325C343.174 133.14 341.048 135.461 337.583 135.461ZM337.583 133.489C339.61 133.489 340.765 131.941 340.765 129.325V129.304C340.765 126.677 339.61 125.14 337.583 125.14C335.545 125.14 334.4 126.677 334.4 129.304V129.325C334.4 131.952 335.545 133.489 337.583 133.489ZM350.312 135.429C347.337 135.429 345.408 133.042 345.408 129.325V129.304C345.408 125.555 347.304 123.19 350.312 123.19C351.936 123.19 353.32 123.996 353.952 125.271H354.137V118.754H356.491V135.232H354.137V133.369H353.952C353.266 134.666 351.969 135.429 350.312 135.429ZM350.988 133.412C352.96 133.412 354.17 131.854 354.17 129.325V129.304C354.17 126.775 352.949 125.217 350.988 125.217C349.004 125.217 347.816 126.764 347.816 129.304V129.325C347.816 131.865 349.004 133.412 350.988 133.412ZM364.981 135.461C361.516 135.461 359.423 133.096 359.423 129.347V129.336C359.423 125.642 361.559 123.168 364.861 123.168C368.164 123.168 370.191 125.555 370.191 129.108V129.936H361.799C361.843 132.203 363.085 133.521 365.036 133.521C366.551 133.521 367.455 132.769 367.739 132.159L367.782 132.072L370.06 132.061L370.038 132.159C369.646 133.718 368.011 135.461 364.981 135.461ZM364.872 125.108C363.259 125.108 362.039 126.209 361.832 128.247H367.848C367.662 126.132 366.474 125.108 364.872 125.108Z" fill="#0F111A"/>
<path d="M268.672 173.677V157.951H274.35C279.014 157.951 281.75 160.828 281.75 165.765V165.787C281.75 170.778 279.036 173.677 274.35 173.677H268.672ZM271.113 171.574H274.077C277.369 171.574 279.265 169.471 279.265 165.82V165.798C279.265 162.18 277.336 160.054 274.077 160.054H271.113V171.574ZM289.804 173.906C286.327 173.906 284.202 171.585 284.202 167.77V167.749C284.202 163.945 286.338 161.613 289.804 161.613C293.259 161.613 295.395 163.934 295.395 167.749V167.77C295.395 171.585 293.27 173.906 289.804 173.906ZM289.804 171.934C291.831 171.934 292.986 170.386 292.986 167.77V167.749C292.986 165.122 291.831 163.585 289.804 163.585C287.766 163.585 286.622 165.122 286.622 167.749V167.77C286.622 170.397 287.766 171.934 289.804 171.934ZM303.198 173.906C299.743 173.906 297.629 171.552 297.629 167.727V167.705C297.629 163.956 299.732 161.613 303.187 161.613C306.162 161.613 307.939 163.291 308.266 165.591V165.645L305.999 165.656L305.988 165.623C305.727 164.457 304.767 163.585 303.198 163.585C301.225 163.585 300.038 165.155 300.038 167.705V167.727C300.038 170.342 301.247 171.934 303.198 171.934C304.68 171.934 305.596 171.258 305.977 169.983L305.999 169.928H308.266L308.244 170.026C307.819 172.326 306.13 173.906 303.198 173.906ZM314.892 173.906C312.222 173.906 310.838 172.304 310.838 169.503V161.842H313.203V168.947C313.203 170.909 313.922 171.879 315.655 171.879C317.551 171.879 318.565 170.691 318.565 168.784V161.842H320.919V173.677H318.565V171.89H318.38C317.813 173.165 316.614 173.906 314.892 173.906ZM324.33 173.677V161.842H326.695V163.662H326.869C327.393 162.365 328.548 161.613 330.095 161.613C331.708 161.613 332.853 162.452 333.376 163.727H333.561C334.161 162.452 335.523 161.613 337.169 161.613C339.555 161.613 340.95 163.051 340.95 165.514V173.677H338.596V166.081C338.596 164.446 337.855 163.64 336.308 163.64C334.804 163.64 333.812 164.762 333.812 166.19V173.677H331.458V165.841C331.458 164.49 330.575 163.64 329.18 163.64C327.752 163.64 326.695 164.861 326.695 166.408V173.677H324.33ZM349.222 173.906C345.756 173.906 343.664 171.541 343.664 167.792V167.781C343.664 164.087 345.8 161.613 349.102 161.613C352.405 161.613 354.432 164 354.432 167.552V168.381H346.04C346.083 170.648 347.326 171.966 349.277 171.966C350.792 171.966 351.696 171.214 351.979 170.604L352.023 170.517L354.301 170.506L354.279 170.604C353.887 172.162 352.252 173.906 349.222 173.906ZM349.113 163.553C347.5 163.553 346.28 164.653 346.073 166.691H352.088C351.903 164.577 350.715 163.553 349.113 163.553ZM357.243 173.677V161.842H359.608V163.64H359.783C360.36 162.376 361.494 161.613 363.216 161.613C365.864 161.613 367.324 163.193 367.324 166.016V173.677H364.97V166.572C364.97 164.61 364.153 163.64 362.42 163.64C360.687 163.64 359.608 164.828 359.608 166.735V173.677H357.243ZM375.095 173.754C372.49 173.754 371.422 172.838 371.422 170.56V163.705H369.57V161.842H371.422V158.855H373.831V161.842H376.37V163.705H373.831V169.994C373.831 171.269 374.31 171.792 375.477 171.792C375.836 171.792 376.043 171.781 376.37 171.748V173.634C375.989 173.699 375.553 173.754 375.095 173.754ZM391.955 174.059C387.585 174.059 384.86 170.898 384.86 165.83V165.809C384.86 160.73 387.574 157.569 391.944 157.569C395.41 157.569 398.069 159.76 398.483 162.888L398.472 162.942H396.053V162.91C395.595 160.981 394.015 159.727 391.944 159.727C389.121 159.727 387.356 162.071 387.356 165.809V165.83C387.356 169.558 389.121 171.901 391.955 171.901C394.037 171.901 395.595 170.789 396.042 169.013L396.064 168.969H398.483V169.035C398.025 172.054 395.464 174.059 391.955 174.059ZM406.439 173.906C402.962 173.906 400.837 171.585 400.837 167.77V167.749C400.837 163.945 402.973 161.613 406.439 161.613C409.894 161.613 412.03 163.934 412.03 167.749V167.77C412.03 171.585 409.905 173.906 406.439 173.906ZM406.439 171.934C408.466 171.934 409.621 170.386 409.621 167.77V167.749C409.621 165.122 408.466 163.585 406.439 163.585C404.401 163.585 403.257 165.122 403.257 167.749V167.77C403.257 170.397 404.401 171.934 406.439 171.934ZM419.168 173.874C416.193 173.874 414.264 171.487 414.264 167.77V167.749C414.264 164 416.16 161.635 419.168 161.635C420.792 161.635 422.176 162.441 422.808 163.716H422.994V157.199H425.348V173.677H422.994V171.814H422.808C422.122 173.111 420.825 173.874 419.168 173.874ZM419.844 171.857C421.817 171.857 423.026 170.299 423.026 167.77V167.749C423.026 165.22 421.806 163.662 419.844 163.662C417.861 163.662 416.673 165.209 416.673 167.749V167.77C416.673 170.31 417.861 171.857 419.844 171.857ZM433.838 173.906C430.372 173.906 428.279 171.541 428.279 167.792V167.781C428.279 164.087 430.416 161.613 433.718 161.613C437.02 161.613 439.047 164 439.047 167.552V168.381H430.655C430.699 170.648 431.941 171.966 433.892 171.966C435.407 171.966 436.312 171.214 436.595 170.604L436.639 170.517L438.916 170.506L438.895 170.604C438.502 172.162 436.867 173.906 433.838 173.906ZM433.729 163.553C432.116 163.553 430.895 164.653 430.688 166.691H436.704C436.519 164.577 435.331 163.553 433.729 163.553Z" fill="#0F111A"/>
<path d="M275.298 212.503C270.841 212.503 268.029 209.321 268.029 204.264V204.242C268.029 199.251 270.873 196.014 275.276 196.014C278.851 196.014 281.39 198.041 281.957 201.082L281.979 201.191H279.538L279.505 201.082C278.938 199.218 277.434 198.172 275.276 198.172C272.366 198.172 270.525 200.526 270.525 204.231V204.253C270.525 208.013 272.377 210.345 275.331 210.345C277.903 210.345 279.657 208.722 279.679 206.302V205.953H275.636V203.981H282.088V205.932C282.088 209.92 279.418 212.503 275.298 212.503ZM290.153 212.351C286.687 212.351 284.594 209.986 284.594 206.237V206.226C284.594 202.531 286.731 200.057 290.033 200.057C293.335 200.057 295.362 202.444 295.362 205.997V206.825H286.97C287.014 209.092 288.256 210.411 290.207 210.411C291.722 210.411 292.627 209.659 292.91 209.048L292.954 208.961L295.231 208.95L295.21 209.048C294.817 210.607 293.182 212.351 290.153 212.351ZM290.044 201.997C288.431 201.997 287.21 203.098 287.003 205.136H293.019C292.834 203.022 291.646 201.997 290.044 201.997ZM298.174 212.122V200.286H300.539V202.084H300.713C301.291 200.82 302.424 200.057 304.146 200.057C306.795 200.057 308.255 201.638 308.255 204.46V212.122H305.901V205.016C305.901 203.054 305.084 202.084 303.351 202.084C301.618 202.084 300.539 203.272 300.539 205.18V212.122H298.174ZM316.527 212.351C313.061 212.351 310.969 209.986 310.969 206.237V206.226C310.969 202.531 313.105 200.057 316.407 200.057C319.709 200.057 321.736 202.444 321.736 205.997V206.825H313.345C313.388 209.092 314.631 210.411 316.581 210.411C318.096 210.411 319.001 209.659 319.284 209.048L319.328 208.961L321.606 208.95L321.584 209.048C321.191 210.607 319.557 212.351 316.527 212.351ZM316.418 201.997C314.805 201.997 313.584 203.098 313.377 205.136H319.393C319.208 203.022 318.02 201.997 316.418 201.997ZM324.548 212.122V200.286H326.913V202.073H327.087C327.513 200.82 328.613 200.079 330.194 200.079C330.575 200.079 330.989 200.134 331.229 200.188V202.368C330.804 202.281 330.401 202.226 329.954 202.226C328.145 202.226 326.913 203.338 326.913 205.049V212.122H324.548ZM336.645 212.318C334.389 212.318 332.722 210.945 332.722 208.798V208.776C332.722 206.662 334.313 205.43 337.136 205.256L340.34 205.071V204.024C340.34 202.727 339.523 202.008 337.921 202.008C336.613 202.008 335.752 202.488 335.468 203.327L335.457 203.37H333.18L333.191 203.294C333.474 201.354 335.338 200.057 338.029 200.057C341.005 200.057 342.683 201.539 342.683 204.024V212.122H340.34V210.443H340.155C339.457 211.642 338.215 212.318 336.645 212.318ZM335.076 208.7C335.076 209.79 336.002 210.433 337.278 210.433C339.043 210.433 340.34 209.277 340.34 207.752V206.738L337.452 206.923C335.817 207.021 335.076 207.61 335.076 208.678V208.7ZM350.486 212.198C347.882 212.198 346.814 211.283 346.814 209.005V202.15H344.961V200.286H346.814V197.3H349.222V200.286H351.762V202.15H349.222V208.438C349.222 209.713 349.702 210.236 350.868 210.236C351.227 210.236 351.435 210.225 351.762 210.193V212.078C351.38 212.144 350.944 212.198 350.486 212.198ZM359.358 212.351C355.892 212.351 353.8 209.986 353.8 206.237V206.226C353.8 202.531 355.936 200.057 359.238 200.057C362.54 200.057 364.567 202.444 364.567 205.997V206.825H356.175C356.219 209.092 357.461 210.411 359.412 210.411C360.927 210.411 361.832 209.659 362.115 209.048L362.159 208.961L364.436 208.95L364.415 209.048C364.022 210.607 362.387 212.351 359.358 212.351ZM359.249 201.997C357.636 201.997 356.415 203.098 356.208 205.136H362.224C362.039 203.022 360.851 201.997 359.249 201.997ZM380.108 212.503C376.163 212.503 373.733 210.16 373.733 206.705V196.395H376.174V206.52C376.174 208.798 377.602 210.345 380.108 210.345C382.615 210.345 384.032 208.798 384.032 206.52V196.395H386.473V206.705C386.473 210.16 384.064 212.503 380.108 212.503ZM390.135 212.122V200.286H392.5V202.084H392.674C393.252 200.82 394.385 200.057 396.107 200.057C398.756 200.057 400.216 201.638 400.216 204.46V212.122H397.862V205.016C397.862 203.054 397.045 202.084 395.312 202.084C393.579 202.084 392.5 203.272 392.5 205.18V212.122H390.135ZM404.75 198.172C403.932 198.172 403.268 197.507 403.268 196.701C403.268 195.883 403.932 195.218 404.75 195.218C405.556 195.218 406.232 195.883 406.232 196.701C406.232 197.507 405.556 198.172 404.75 198.172ZM403.562 212.122V200.286H405.916V212.122H403.562ZM413.828 212.198C411.223 212.198 410.155 211.283 410.155 209.005V202.15H408.303V200.286H410.155V197.3H412.564V200.286H415.103V202.15H412.564V208.438C412.564 209.713 413.043 210.236 414.21 210.236C414.569 210.236 414.776 210.225 415.103 210.193V212.078C414.722 212.144 414.286 212.198 413.828 212.198ZM428.225 212.122V198.499H423.277V196.395H435.603V198.499H430.666V212.122H428.225ZM441.161 212.351C437.696 212.351 435.603 209.986 435.603 206.237V206.226C435.603 202.531 437.739 200.057 441.042 200.057C444.344 200.057 446.371 202.444 446.371 205.997V206.825H437.979C438.023 209.092 439.265 210.411 441.216 210.411C442.731 210.411 443.635 209.659 443.919 209.048L443.962 208.961L446.24 208.95L446.218 209.048C445.826 210.607 444.191 212.351 441.161 212.351ZM441.052 201.997C439.439 201.997 438.219 203.098 438.012 205.136H444.028C443.842 203.022 442.654 201.997 441.052 201.997ZM453.488 212.351C450.632 212.351 448.823 211.01 448.594 209.027V209.016H450.959L450.97 209.027C451.264 209.92 452.125 210.52 453.531 210.52C454.992 210.52 456.005 209.855 456.005 208.885V208.863C456.005 208.122 455.449 207.621 454.076 207.305L452.191 206.869C449.956 206.357 448.921 205.343 448.921 203.61V203.599C448.921 201.539 450.839 200.057 453.52 200.057C456.223 200.057 457.956 201.409 458.163 203.338V203.349H455.907V203.327C455.678 202.499 454.839 201.877 453.509 201.877C452.212 201.877 451.275 202.52 451.275 203.468V203.49C451.275 204.231 451.82 204.689 453.15 205.005L455.024 205.43C457.302 205.964 458.392 206.934 458.392 208.645V208.667C458.392 210.858 456.299 212.351 453.488 212.351ZM465.596 212.198C462.991 212.198 461.923 211.283 461.923 209.005V202.15H460.07V200.286H461.923V197.3H464.331V200.286H466.871V202.15H464.331V208.438C464.331 209.713 464.811 210.236 465.977 210.236C466.337 210.236 466.544 210.225 466.871 210.193V212.078C466.489 212.144 466.053 212.198 465.596 212.198ZM473.759 212.351C470.903 212.351 469.094 211.01 468.865 209.027V209.016H471.23L471.241 209.027C471.535 209.92 472.396 210.52 473.802 210.52C475.263 210.52 476.276 209.855 476.276 208.885V208.863C476.276 208.122 475.72 207.621 474.347 207.305L472.462 206.869C470.228 206.357 469.192 205.343 469.192 203.61V203.599C469.192 201.539 471.11 200.057 473.791 200.057C476.494 200.057 478.227 201.409 478.434 203.338V203.349H476.178V203.327C475.949 202.499 475.11 201.877 473.78 201.877C472.484 201.877 471.546 202.52 471.546 203.468V203.49C471.546 204.231 472.091 204.689 473.421 205.005L475.295 205.43C477.573 205.964 478.663 206.934 478.663 208.645V208.667C478.663 210.858 476.57 212.351 473.759 212.351Z" fill="#0F111A"/>
<rect x="247.996" y="224.943" width="306" height="38.4446" rx="4" fill="#270741"/>
<path d="M268.672 252.165V236.439H278.655V238.542H271.113V243.141H278.252V245.168H271.113V250.062H278.655V252.165H268.672ZM280.998 252.165L284.932 246.269L280.965 240.329H283.701L286.251 244.558H286.436L288.965 240.329H291.58L287.668 246.171L291.624 252.165H288.932L286.338 247.893H286.164L283.57 252.165H280.998ZM294.076 256.11V240.329H296.441V242.193H296.615C297.302 240.896 298.599 240.122 300.256 240.122C303.242 240.122 305.16 242.509 305.16 246.236V246.258C305.16 250.007 303.263 252.361 300.256 252.361C298.632 252.361 297.248 251.566 296.615 250.291H296.441V256.11H294.076ZM299.591 250.345C301.563 250.345 302.751 248.798 302.751 246.258V246.236C302.751 243.686 301.563 242.149 299.591 242.149C297.618 242.149 296.397 243.708 296.397 246.236V246.258C296.397 248.787 297.618 250.345 299.591 250.345ZM308.113 252.165V235.687H310.478V252.165H308.113ZM317.246 252.361C314.99 252.361 313.323 250.988 313.323 248.841V248.819C313.323 246.705 314.914 245.474 317.737 245.299L320.941 245.114V244.068C320.941 242.771 320.123 242.051 318.521 242.051C317.213 242.051 316.352 242.531 316.069 243.37L316.058 243.414H313.78L313.791 243.337C314.075 241.398 315.938 240.101 318.63 240.101C321.606 240.101 323.284 241.583 323.284 244.068V252.165H320.941V250.487H320.755C320.058 251.686 318.816 252.361 317.246 252.361ZM315.677 248.743C315.677 249.833 316.603 250.476 317.878 250.476C319.644 250.476 320.941 249.321 320.941 247.795V246.781L318.053 246.967C316.418 247.065 315.677 247.653 315.677 248.721V248.743ZM327.85 238.215C327.033 238.215 326.368 237.55 326.368 236.744C326.368 235.926 327.033 235.262 327.85 235.262C328.657 235.262 329.333 235.926 329.333 236.744C329.333 237.55 328.657 238.215 327.85 238.215ZM326.662 252.165V240.329H329.016V252.165H326.662ZM332.46 252.165V240.329H334.825V242.128H335C335.577 240.863 336.711 240.101 338.433 240.101C341.081 240.101 342.541 241.681 342.541 244.504V252.165H340.187V245.059C340.187 243.098 339.37 242.128 337.637 242.128C335.904 242.128 334.825 243.316 334.825 245.223V252.165H332.46ZM356.927 252.394C353.473 252.394 351.358 250.04 351.358 246.215V246.193C351.358 242.444 353.462 240.101 356.916 240.101C359.892 240.101 361.668 241.779 361.995 244.079V244.133L359.728 244.144L359.717 244.111C359.456 242.945 358.497 242.073 356.927 242.073C354.955 242.073 353.767 243.643 353.767 246.193V246.215C353.767 248.83 354.977 250.421 356.927 250.421C358.41 250.421 359.325 249.746 359.706 248.471L359.728 248.416H361.995L361.973 248.514C361.548 250.814 359.859 252.394 356.927 252.394ZM369.689 252.394C366.213 252.394 364.088 250.073 364.088 246.258V246.236C364.088 242.433 366.224 240.101 369.689 240.101C373.144 240.101 375.28 242.422 375.28 246.236V246.258C375.28 250.073 373.155 252.394 369.689 252.394ZM369.689 250.421C371.717 250.421 372.872 248.874 372.872 246.258V246.236C372.872 243.61 371.717 242.073 369.689 242.073C367.651 242.073 366.507 243.61 366.507 246.236V246.258C366.507 248.885 367.651 250.421 369.689 250.421ZM382.419 252.361C379.444 252.361 377.515 249.975 377.515 246.258V246.236C377.515 242.487 379.411 240.122 382.419 240.122C384.043 240.122 385.427 240.929 386.059 242.204H386.244V235.687H388.598V252.165H386.244V250.302H386.059C385.372 251.598 384.075 252.361 382.419 252.361ZM383.095 250.345C385.067 250.345 386.277 248.787 386.277 246.258V246.236C386.277 243.708 385.056 242.149 383.095 242.149C381.111 242.149 379.923 243.697 379.923 246.236V246.258C379.923 248.798 381.111 250.345 383.095 250.345ZM397.088 252.394C393.622 252.394 391.53 250.029 391.53 246.28V246.269C391.53 242.575 393.666 240.101 396.968 240.101C400.27 240.101 402.298 242.487 402.298 246.04V246.869H393.906C393.949 249.135 395.192 250.454 397.143 250.454C398.658 250.454 399.562 249.702 399.845 249.092L399.889 249.005L402.167 248.994L402.145 249.092C401.753 250.65 400.118 252.394 397.088 252.394ZM396.979 242.041C395.366 242.041 394.146 243.141 393.938 245.179H399.954C399.769 243.065 398.581 242.041 396.979 242.041Z" fill="white"/>
<path d="M268.672 290.61V274.883H278.491V276.987H271.113V281.967H277.87V284.027H271.113V290.61H268.672ZM282.622 276.66C281.804 276.66 281.14 275.995 281.14 275.189C281.14 274.371 281.804 273.706 282.622 273.706C283.428 273.706 284.104 274.371 284.104 275.189C284.104 275.995 283.428 276.66 282.622 276.66ZM281.434 290.61V278.774H283.788V290.61H281.434ZM287.232 290.61V278.774H289.597V280.572H289.771C290.349 279.308 291.482 278.545 293.204 278.545C295.853 278.545 297.313 280.126 297.313 282.948V290.61H294.959V283.504C294.959 281.542 294.141 280.572 292.409 280.572C290.676 280.572 289.597 281.76 289.597 283.668V290.61H287.232ZM304.931 290.806C301.956 290.806 300.027 288.419 300.027 284.703V284.681C300.027 280.932 301.923 278.567 304.931 278.567C306.555 278.567 307.939 279.374 308.571 280.649H308.756V274.131H311.11V290.61H308.756V288.746H308.571C307.884 290.043 306.588 290.806 304.931 290.806ZM305.607 288.79C307.579 288.79 308.789 287.231 308.789 284.703V284.681C308.789 282.153 307.568 280.594 305.607 280.594C303.623 280.594 302.435 282.142 302.435 284.681V284.703C302.435 287.242 303.623 288.79 305.607 288.79ZM327.458 290.991C323.088 290.991 320.363 287.831 320.363 282.763V282.741C320.363 277.663 323.077 274.502 327.447 274.502C330.913 274.502 333.572 276.693 333.986 279.82L333.975 279.875H331.556V279.842C331.098 277.913 329.518 276.66 327.447 276.66C324.624 276.66 322.859 279.003 322.859 282.741V282.763C322.859 286.49 324.624 288.833 327.458 288.833C329.54 288.833 331.098 287.722 331.545 285.945L331.567 285.902H333.986V285.967C333.528 288.986 330.967 290.991 327.458 290.991ZM341.942 290.839C338.465 290.839 336.34 288.517 336.34 284.703V284.681C336.34 280.878 338.476 278.545 341.942 278.545C345.397 278.545 347.533 280.867 347.533 284.681V284.703C347.533 288.517 345.408 290.839 341.942 290.839ZM341.942 288.866C343.969 288.866 345.124 287.319 345.124 284.703V284.681C345.124 282.055 343.969 280.518 341.942 280.518C339.904 280.518 338.76 282.055 338.76 284.681V284.703C338.76 287.329 339.904 288.866 341.942 288.866ZM354.671 290.806C351.696 290.806 349.767 288.419 349.767 284.703V284.681C349.767 280.932 351.663 278.567 354.671 278.567C356.295 278.567 357.679 279.374 358.311 280.649H358.497V274.131H360.851V290.61H358.497V288.746H358.311C357.625 290.043 356.328 290.806 354.671 290.806ZM355.347 288.79C357.32 288.79 358.529 287.231 358.529 284.703V284.681C358.529 282.153 357.309 280.594 355.347 280.594C353.364 280.594 352.176 282.142 352.176 284.681V284.703C352.176 287.242 353.364 288.79 355.347 288.79ZM369.341 290.839C365.875 290.839 363.783 288.474 363.783 284.725V284.714C363.783 281.019 365.919 278.545 369.221 278.545C372.523 278.545 374.55 280.932 374.55 284.485V285.313H366.158C366.202 287.58 367.444 288.899 369.395 288.899C370.91 288.899 371.815 288.147 372.098 287.537L372.142 287.449L374.419 287.438L374.398 287.537C374.005 289.095 372.37 290.839 369.341 290.839ZM369.232 280.485C367.619 280.485 366.398 281.586 366.191 283.624H372.207C372.022 281.51 370.834 280.485 369.232 280.485ZM389.056 290.991C385.503 290.991 383.225 289.193 383.007 286.545L382.996 286.403H385.394L385.405 286.523C385.536 287.951 387.051 288.866 389.154 288.866C391.159 288.866 392.587 287.863 392.587 286.403V286.392C392.587 285.182 391.737 284.398 389.655 283.951L387.933 283.58C384.74 282.905 383.367 281.422 383.367 279.101V279.09C383.378 276.377 385.732 274.502 389.067 274.502C392.402 274.502 394.581 276.387 394.756 278.829L394.767 278.981H392.402L392.38 278.84C392.173 277.554 390.941 276.616 389.034 276.627C387.192 276.627 385.83 277.488 385.83 278.97V278.981C385.83 280.147 386.658 280.91 388.696 281.346L390.407 281.728C393.71 282.436 395.061 283.766 395.061 286.098V286.109C395.061 289.117 392.718 290.991 389.056 290.991ZM398.004 290.61V278.774H400.369V280.594H400.543C401.066 279.297 402.221 278.545 403.769 278.545C405.382 278.545 406.526 279.384 407.049 280.66H407.235C407.834 279.384 409.196 278.545 410.842 278.545C413.229 278.545 414.624 279.984 414.624 282.447V290.61H412.27V283.014C412.27 281.379 411.529 280.572 409.981 280.572C408.477 280.572 407.485 281.695 407.485 283.123V290.61H405.131V282.774C405.131 281.422 404.248 280.572 402.853 280.572C401.426 280.572 400.369 281.793 400.369 283.341V290.61H398.004ZM422.896 290.839C419.43 290.839 417.337 288.474 417.337 284.725V284.714C417.337 281.019 419.474 278.545 422.776 278.545C426.078 278.545 428.105 280.932 428.105 284.485V285.313H419.713C419.757 287.58 420.999 288.899 422.95 288.899C424.465 288.899 425.37 288.147 425.653 287.537L425.697 287.449L427.974 287.438L427.953 287.537C427.56 289.095 425.925 290.839 422.896 290.839ZM422.787 280.485C421.174 280.485 419.953 281.586 419.746 283.624H425.762C425.577 281.51 424.389 280.485 422.787 280.485ZM431.026 290.61V274.131H433.391V290.61H431.026ZM437.02 290.61V274.131H439.385V290.61H437.02ZM447.21 290.839C444.355 290.839 442.546 289.498 442.317 287.515V287.504H444.682L444.693 287.515C444.987 288.408 445.848 289.008 447.254 289.008C448.714 289.008 449.728 288.343 449.728 287.373V287.351C449.728 286.61 449.172 286.109 447.799 285.793L445.913 285.357C443.679 284.845 442.644 283.831 442.644 282.098V282.087C442.644 280.027 444.562 278.545 447.243 278.545C449.946 278.545 451.678 279.897 451.885 281.826V281.837H449.629V281.815C449.401 280.987 448.561 280.365 447.232 280.365C445.935 280.365 444.998 281.008 444.998 281.957V281.978C444.998 282.719 445.543 283.177 446.872 283.493L448.747 283.918C451.024 284.452 452.114 285.422 452.114 287.133V287.155C452.114 289.346 450.022 290.839 447.21 290.839Z" fill="#0F111A"/>
<mask id="path-13-inside-1_4566_19010" fill="white">
<path d="M247.996 301.832H553.996V342.277H247.996V301.832Z"/>
</mask>
<path d="M247.996 302.832H553.996V300.832H247.996V302.832Z" fill="#C9C9C9" mask="url(#path-13-inside-1_4566_19010)"/>
<path d="M277.246 322.804H272.746V327.304H271.246V322.804H266.746V321.304H271.246V316.804H272.746V321.304H277.246V322.804Z" fill="#A112FF"/>
<path d="M297.333 329.425C293.061 329.425 290.391 326.264 290.391 321.208V321.186C290.391 316.118 293.05 312.957 297.322 312.957C300.636 312.957 303.219 315.039 303.687 318.058L303.676 318.08H301.704L301.693 318.058C301.17 316.042 299.491 314.767 297.322 314.767C294.304 314.767 292.407 317.251 292.407 321.186V321.208C292.407 325.142 294.304 327.616 297.333 327.616C299.524 327.616 301.191 326.493 301.682 324.684L301.704 324.662H303.687V324.684C303.164 327.561 300.679 329.425 297.333 329.425ZM310.673 329.262C308.003 329.262 306.63 327.692 306.63 324.913V317.306H308.526V324.455C308.526 326.57 309.289 327.583 311.164 327.583C313.234 327.583 314.335 326.319 314.335 324.259V317.306H316.231V329.054H314.335V327.3H314.161C313.583 328.553 312.395 329.262 310.673 329.262ZM323.806 329.262C321.19 329.262 319.392 327.997 319.174 326.057H321.114C321.43 327.038 322.367 327.681 323.871 327.681C325.451 327.681 326.574 326.929 326.574 325.861V325.839C326.574 325.044 325.974 324.488 324.525 324.139L322.705 323.703C320.503 323.18 319.512 322.221 319.512 320.532V320.521C319.512 318.57 321.386 317.099 323.882 317.099C326.345 317.099 328.056 318.33 328.318 320.249H326.454C326.203 319.322 325.288 318.679 323.871 318.679C322.476 318.679 321.452 319.398 321.452 320.434V320.456C321.452 321.251 322.04 321.752 323.424 322.09L325.233 322.526C327.446 323.06 328.514 324.019 328.514 325.698V325.72C328.514 327.812 326.476 329.262 323.806 329.262ZM335.522 329.142C333.102 329.142 332.089 328.248 332.089 326.003V318.875H330.236V317.306H332.089V314.265H334.05V317.306H336.622V318.875H334.05V325.523C334.05 326.907 334.53 327.463 335.75 327.463C336.088 327.463 336.274 327.452 336.622 327.42V329.033C336.252 329.098 335.892 329.142 335.522 329.142ZM344.109 329.262C340.764 329.262 338.693 326.951 338.693 323.191V323.169C338.693 319.398 340.764 317.099 344.109 317.099C347.455 317.099 349.526 319.398 349.526 323.169V323.191C349.526 326.951 347.455 329.262 344.109 329.262ZM344.109 327.583C346.333 327.583 347.586 325.959 347.586 323.191V323.169C347.586 320.39 346.333 318.777 344.109 318.777C341.886 318.777 340.633 320.39 340.633 323.169V323.191C340.633 325.959 341.886 327.583 344.109 327.583ZM352.469 329.054V317.306H354.365V319.093H354.539C355.062 317.829 356.174 317.099 357.711 317.099C359.302 317.099 360.414 317.938 360.958 319.159H361.133C361.765 317.916 363.105 317.099 364.729 317.099C367.127 317.099 368.467 318.472 368.467 320.935V329.054H366.571V321.371C366.571 319.638 365.776 318.777 364.119 318.777C362.484 318.777 361.405 320.009 361.405 321.502V329.054H359.509V321.077C359.509 319.682 358.55 318.777 357.068 318.777C355.531 318.777 354.365 320.118 354.365 321.774V329.054H352.469ZM384.739 329.425C380.467 329.425 377.797 326.264 377.797 321.208V321.186C377.797 316.118 380.456 312.957 384.728 312.957C388.041 312.957 390.624 315.039 391.093 318.058L391.082 318.08H389.109L389.098 318.058C388.575 316.042 386.897 314.767 384.728 314.767C381.709 314.767 379.813 317.251 379.813 321.186V321.208C379.813 325.142 381.709 327.616 384.739 327.616C386.929 327.616 388.597 326.493 389.087 324.684L389.109 324.662H391.093V324.684C390.57 327.561 388.085 329.425 384.739 329.425ZM398.972 329.262C395.626 329.262 393.556 326.951 393.556 323.191V323.169C393.556 319.398 395.626 317.099 398.972 317.099C402.318 317.099 404.389 319.398 404.389 323.169V323.191C404.389 326.951 402.318 329.262 398.972 329.262ZM398.972 327.583C401.196 327.583 402.449 325.959 402.449 323.191V323.169C402.449 320.39 401.196 318.777 398.972 318.777C396.749 318.777 395.496 320.39 395.496 323.169V323.191C395.496 325.959 396.749 327.583 398.972 327.583ZM407.331 329.054V317.306H409.228V319.093H409.402C409.925 317.829 411.037 317.099 412.573 317.099C414.165 317.099 415.276 317.938 415.821 319.159H415.996C416.628 317.916 417.968 317.099 419.592 317.099C421.99 317.099 423.33 318.472 423.33 320.935V329.054H421.434V321.371C421.434 319.638 420.638 318.777 418.982 318.777C417.347 318.777 416.268 320.009 416.268 321.502V329.054H414.372V321.077C414.372 319.682 413.413 318.777 411.93 318.777C410.394 318.777 409.228 320.118 409.228 321.774V329.054H407.331ZM426.752 329.054V317.306H428.649V319.093H428.823C429.346 317.829 430.458 317.099 431.994 317.099C433.586 317.099 434.697 317.938 435.242 319.159H435.417C436.049 317.916 437.389 317.099 439.013 317.099C441.411 317.099 442.751 318.472 442.751 320.935V329.054H440.855V321.371C440.855 319.638 440.059 318.777 438.403 318.777C436.768 318.777 435.689 320.009 435.689 321.502V329.054H433.793V321.077C433.793 319.682 432.834 318.777 431.351 318.777C429.815 318.777 428.649 320.118 428.649 321.774V329.054H426.752ZM449.399 329.262C447.165 329.262 445.476 327.91 445.476 325.774V325.752C445.476 323.66 447.023 322.45 449.759 322.287L453.127 322.079V321.011C453.127 319.562 452.244 318.777 450.489 318.777C449.083 318.777 448.157 319.3 447.852 320.216L447.841 320.249H445.944L445.955 320.183C446.261 318.341 448.048 317.099 450.555 317.099C453.421 317.099 455.023 318.57 455.023 321.011V329.054H453.127V327.322H452.952C452.211 328.575 450.98 329.262 449.399 329.262ZM447.416 325.73C447.416 326.918 448.429 327.616 449.792 327.616C451.721 327.616 453.127 326.352 453.127 324.673V323.605L449.988 323.801C448.2 323.91 447.416 324.542 447.416 325.709V325.73ZM458.489 329.054V317.306H460.385V319.071H460.559C461.148 317.829 462.249 317.099 463.981 317.099C466.619 317.099 468.09 318.657 468.09 321.447V329.054H466.194V321.905C466.194 319.791 465.322 318.777 463.447 318.777C461.573 318.777 460.385 320.041 460.385 322.101V329.054H458.489ZM475.861 329.262C472.885 329.262 470.935 326.853 470.935 323.191V323.169C470.935 319.486 472.875 317.099 475.861 317.099C477.474 317.099 478.88 317.905 479.523 319.159H479.697V312.641H481.593V329.054H479.697V327.18H479.523C478.803 328.488 477.495 329.262 475.861 329.262ZM476.297 327.583C478.433 327.583 479.741 325.905 479.741 323.191V323.169C479.741 320.456 478.433 318.777 476.297 318.777C474.15 318.777 472.875 320.434 472.875 323.169V323.191C472.875 325.927 474.15 327.583 476.297 327.583ZM489.266 329.262C486.65 329.262 484.852 327.997 484.634 326.057H486.574C486.89 327.038 487.827 327.681 489.331 327.681C490.911 327.681 492.034 326.929 492.034 325.861V325.839C492.034 325.044 491.435 324.488 489.985 324.139L488.165 323.703C485.964 323.18 484.972 322.221 484.972 320.532V320.521C484.972 318.57 486.846 317.099 489.342 317.099C491.805 317.099 493.516 318.33 493.778 320.249H491.914C491.663 319.322 490.748 318.679 489.331 318.679C487.936 318.679 486.912 319.398 486.912 320.434V320.456C486.912 321.251 487.5 321.752 488.884 322.09L490.693 322.526C492.906 323.06 493.974 324.019 493.974 325.698V325.72C493.974 327.812 491.936 329.262 489.266 329.262Z" fill="#0F111A"/>
<path opacity="0.3" d="M178.18 28.6615C178.18 25.8833 180.432 23.6311 183.21 23.6311H271.702C274.48 23.6311 276.732 25.8833 276.732 28.6615V52.3581C276.732 55.1363 274.48 57.3885 271.702 57.3885H183.21C180.432 57.3885 178.18 55.1363 178.18 52.3581V28.6615Z" fill="#4CE6FF"/>
<defs>
<clipPath id="clip0_4566_19010">
<rect y="0.0102539" width="549" height="249" rx="8" fill="white"/>
</clipPath>
</defs>
</svg>
