<svg width="628" height="500" viewBox="0 0 628 500" fill="none" xmlns="http://www.w3.org/2000/svg">
<path d="M0 16C0 7.16345 7.16344 0 16 0H612C620.837 0 628 7.16344 628 16V484C628 492.837 620.837 500 612 500H16C7.16344 500 0 492.837 0 484V16Z" fill="url(#paint0_linear_7063_72308)"/>
<path d="M71.0938 144.078V179H64.9062V144.078H71.0938ZM82.0312 165.008V179H76.125V154.25H81.9375V160.555H80.7891C81.5859 158.336 82.7031 156.648 84.1406 155.492C85.5938 154.336 87.3906 153.758 89.5312 153.758C91.2656 153.758 92.7969 154.133 94.125 154.883C95.4531 155.617 96.4922 156.711 97.2422 158.164C97.9922 159.617 98.3672 161.406 98.3672 163.531V179H92.4375V164.469C92.4375 162.656 92 161.281 91.125 160.344C90.2656 159.406 89.0391 158.938 87.4453 158.938C86.4141 158.938 85.4922 159.148 84.6797 159.57C83.8672 159.992 83.2188 160.648 82.7344 161.539C82.2656 162.43 82.0312 163.586 82.0312 165.008ZM112.844 179.586C110.844 179.586 109.047 179.273 107.453 178.648C105.859 178.008 104.578 177.078 103.609 175.859C102.641 174.625 102.094 173.125 101.969 171.359H107.805C107.93 172.562 108.414 173.5 109.258 174.172C110.117 174.828 111.281 175.156 112.75 175.156C114.172 175.156 115.289 174.875 116.102 174.312C116.93 173.75 117.344 173.031 117.344 172.156C117.344 171.406 117.039 170.805 116.43 170.352C115.836 169.898 115.016 169.562 113.969 169.344L109.75 168.477C107.375 167.977 105.578 167.125 104.359 165.922C103.141 164.719 102.531 163.188 102.531 161.328C102.531 159.812 102.938 158.484 103.75 157.344C104.578 156.203 105.734 155.312 107.219 154.672C108.719 154.031 110.477 153.711 112.492 153.711C114.492 153.711 116.25 154.047 117.766 154.719C119.297 155.391 120.492 156.344 121.352 157.578C122.227 158.797 122.688 160.258 122.734 161.961H117.18C117.164 160.852 116.734 159.938 115.891 159.219C115.062 158.5 113.977 158.141 112.633 158.141C111.336 158.141 110.312 158.43 109.562 159.008C108.812 159.586 108.438 160.297 108.438 161.141C108.438 161.875 108.727 162.477 109.305 162.945C109.883 163.398 110.688 163.742 111.719 163.977L116.172 164.891C118.625 165.406 120.43 166.219 121.586 167.328C122.758 168.438 123.344 169.898 123.344 171.711C123.344 173.32 122.891 174.719 121.984 175.906C121.094 177.078 119.859 177.984 118.281 178.625C116.703 179.266 114.891 179.586 112.844 179.586ZM137.797 179.562C135.328 179.562 133.188 179.008 131.375 177.898C129.562 176.789 128.164 175.266 127.18 173.328C126.211 171.375 125.727 169.148 125.727 166.648C125.727 164.133 126.227 161.898 127.227 159.945C128.242 157.992 129.641 156.461 131.422 155.352C133.203 154.242 135.25 153.688 137.562 153.688C139.344 153.688 140.961 154 142.414 154.625C143.867 155.25 145.117 156.141 146.164 157.297C147.211 158.438 148.016 159.797 148.578 161.375C149.141 162.938 149.422 164.664 149.422 166.555V168.172H128.07V164.094H146.469L143.82 165.195C143.82 163.789 143.562 162.578 143.047 161.562C142.547 160.547 141.836 159.766 140.914 159.219C140.008 158.656 138.922 158.375 137.656 158.375C136.406 158.375 135.32 158.656 134.398 159.219C133.477 159.766 132.766 160.547 132.266 161.562C131.766 162.578 131.516 163.789 131.516 165.195V167.75C131.516 169.172 131.766 170.422 132.266 171.5C132.766 172.578 133.492 173.414 134.445 174.008C135.414 174.602 136.578 174.898 137.938 174.898C138.922 174.898 139.797 174.75 140.562 174.453C141.328 174.156 141.969 173.742 142.484 173.211C143 172.68 143.367 172.062 143.586 171.359H149.117C148.805 172.969 148.117 174.391 147.055 175.625C146.008 176.859 144.688 177.828 143.094 178.531C141.5 179.219 139.734 179.562 137.797 179.562ZM152.953 179V154.25H158.648V158.352H158.719C159.172 156.93 159.883 155.852 160.852 155.117C161.836 154.383 163.125 154.016 164.719 154.016C165.125 154.016 165.484 154.023 165.797 154.039C166.125 154.055 166.406 154.078 166.641 154.109V159.359C166.438 159.328 166.07 159.289 165.539 159.242C165.008 159.195 164.445 159.172 163.852 159.172C162.93 159.172 162.086 159.391 161.32 159.828C160.57 160.25 159.969 160.891 159.516 161.75C159.078 162.609 158.859 163.688 158.859 164.984V179H152.953ZM183.508 154.25V159.008H168.227V154.25H183.508ZM172.539 147.5H178.469V171.898C178.469 172.773 178.648 173.383 179.008 173.727C179.367 174.07 180.023 174.242 180.977 174.242C181.367 174.242 181.812 174.242 182.312 174.242C182.812 174.242 183.211 174.242 183.508 174.242V179C183.102 179 182.562 179 181.891 179C181.234 179 180.586 179 179.945 179C177.414 179 175.547 178.492 174.344 177.477C173.141 176.445 172.539 174.875 172.539 172.766V147.5ZM212.555 179.562C209.336 179.562 206.492 178.805 204.023 177.289C201.57 175.773 199.648 173.664 198.258 170.961C196.867 168.258 196.172 165.125 196.172 161.562C196.172 157.906 196.875 154.727 198.281 152.023C199.703 149.32 201.648 147.227 204.117 145.742C206.586 144.258 209.375 143.516 212.484 143.516C214.453 143.516 216.289 143.812 217.992 144.406C219.711 144.984 221.242 145.812 222.586 146.891C223.93 147.969 225.031 149.25 225.891 150.734C226.766 152.203 227.328 153.844 227.578 155.656H221.273C221.055 154.656 220.695 153.758 220.195 152.961C219.695 152.148 219.07 151.453 218.32 150.875C217.57 150.297 216.719 149.852 215.766 149.539C214.812 149.227 213.773 149.07 212.648 149.07C210.555 149.07 208.742 149.586 207.211 150.617C205.68 151.648 204.492 153.102 203.648 154.977C202.82 156.836 202.406 159.031 202.406 161.562C202.406 164.078 202.828 166.266 203.672 168.125C204.516 169.984 205.703 171.43 207.234 172.461C208.781 173.492 210.602 174.008 212.695 174.008C214.43 174.008 215.969 173.656 217.312 172.953C218.672 172.234 219.742 171.25 220.523 170C221.32 168.734 221.719 167.266 221.719 165.594L223.312 165.711H213.586V160.812H227.812V165.031C227.812 167.859 227.148 170.367 225.82 172.555C224.508 174.742 222.703 176.461 220.406 177.711C218.125 178.945 215.508 179.562 212.555 179.562ZM238.328 144.078V179H232.141V144.078H238.328ZM243.641 179V144.078H267.125V149.445H249.828V158.984H265.883V164.234H249.828V179H243.641ZM273.375 173.703C272.375 173.703 271.516 173.352 270.797 172.648C270.094 171.93 269.742 171.07 269.742 170.07C269.742 169.055 270.094 168.195 270.797 167.492C271.516 166.789 272.375 166.438 273.375 166.438C274.391 166.438 275.25 166.789 275.953 167.492C276.656 168.195 277.008 169.055 277.008 170.07C277.008 171.07 276.656 171.93 275.953 172.648C275.25 173.352 274.391 173.703 273.375 173.703ZM273.375 156.664C272.375 156.664 271.516 156.312 270.797 155.609C270.094 154.891 269.742 154.031 269.742 153.031C269.742 152.016 270.094 151.156 270.797 150.453C271.516 149.75 272.375 149.398 273.375 149.398C274.391 149.398 275.25 149.75 275.953 150.453C276.656 151.156 277.008 152.016 277.008 153.031C277.008 154.031 276.656 154.891 275.953 155.609C275.25 156.312 274.391 156.664 273.375 156.664ZM307.062 179.562C303.859 179.562 301.016 178.82 298.531 177.336C296.062 175.852 294.125 173.758 292.719 171.055C291.312 168.352 290.609 165.188 290.609 161.562C290.609 157.906 291.305 154.727 292.695 152.023C294.102 149.32 296.047 147.227 298.531 145.742C301.016 144.258 303.859 143.516 307.062 143.516C309.031 143.516 310.867 143.812 312.57 144.406C314.273 144.984 315.781 145.828 317.094 146.938C318.422 148.031 319.516 149.344 320.375 150.875C321.234 152.406 321.812 154.133 322.109 156.055H315.805C315.57 154.945 315.195 153.961 314.68 153.102C314.164 152.227 313.531 151.492 312.781 150.898C312.031 150.289 311.18 149.836 310.227 149.539C309.273 149.227 308.234 149.07 307.109 149.07C304.984 149.07 303.156 149.594 301.625 150.641C300.094 151.672 298.914 153.125 298.086 155C297.258 156.859 296.844 159.047 296.844 161.562C296.844 164.062 297.25 166.242 298.062 168.102C298.891 169.961 300.07 171.414 301.602 172.461C303.148 173.492 304.984 174.008 307.109 174.008C308.234 174.008 309.266 173.859 310.203 173.562C311.156 173.25 312.008 172.797 312.758 172.203C313.508 171.609 314.141 170.883 314.656 170.023C315.188 169.164 315.578 168.18 315.828 167.07H322.109C321.812 168.977 321.234 170.695 320.375 172.227C319.516 173.758 318.422 175.07 317.094 176.164C315.766 177.258 314.25 178.102 312.547 178.695C310.859 179.273 309.031 179.562 307.062 179.562ZM331.734 165.008V179H325.828V144.078H331.734V160.555H330.492C331.289 158.336 332.406 156.648 333.844 155.492C335.297 154.336 337.094 153.758 339.234 153.758C340.969 153.758 342.5 154.133 343.828 154.883C345.156 155.617 346.195 156.711 346.945 158.164C347.695 159.617 348.07 161.406 348.07 163.531V179H342.141V164.469C342.141 162.656 341.703 161.281 340.828 160.344C339.969 159.406 338.742 158.938 337.148 158.938C336.117 158.938 335.195 159.148 334.383 159.57C333.57 159.992 332.922 160.648 332.438 161.539C331.969 162.43 331.734 163.586 331.734 165.008ZM360.391 179.398C358.75 179.398 357.281 179.125 355.984 178.578C354.703 178.031 353.688 177.203 352.938 176.094C352.203 174.984 351.836 173.609 351.836 171.969C351.836 170.562 352.102 169.406 352.633 168.5C353.164 167.578 353.883 166.844 354.789 166.297C355.695 165.75 356.734 165.336 357.906 165.055C359.078 164.758 360.297 164.547 361.562 164.422C363.094 164.25 364.305 164.102 365.195 163.977C366.102 163.836 366.75 163.641 367.141 163.391C367.531 163.125 367.727 162.711 367.727 162.148V161.961C367.727 161.242 367.547 160.617 367.188 160.086C366.828 159.539 366.305 159.117 365.617 158.82C364.945 158.508 364.141 158.352 363.203 158.352C362.25 158.352 361.406 158.508 360.672 158.82C359.953 159.117 359.383 159.539 358.961 160.086C358.539 160.617 358.297 161.234 358.234 161.938H352.539C352.648 160.297 353.141 158.867 354.016 157.648C354.906 156.414 356.141 155.461 357.719 154.789C359.297 154.102 361.164 153.758 363.32 153.758C364.93 153.758 366.367 153.953 367.633 154.344C368.914 154.719 369.992 155.273 370.867 156.008C371.758 156.742 372.43 157.625 372.883 158.656C373.352 159.688 373.586 160.844 373.586 162.125V179H367.773V175.508H367.68C367.289 176.242 366.781 176.906 366.156 177.5C365.531 178.078 364.75 178.539 363.812 178.883C362.875 179.227 361.734 179.398 360.391 179.398ZM361.844 175.016C363.141 175.016 364.227 174.781 365.102 174.312C365.977 173.844 366.633 173.219 367.07 172.438C367.523 171.656 367.75 170.789 367.75 169.836V167.164C367.562 167.273 367.289 167.383 366.93 167.492C366.57 167.602 366.141 167.711 365.641 167.82C365.156 167.914 364.625 168.008 364.047 168.102C363.484 168.195 362.898 168.289 362.289 168.383C361.445 168.492 360.664 168.688 359.945 168.969C359.242 169.234 358.672 169.609 358.234 170.094C357.812 170.562 357.602 171.172 357.602 171.922C357.602 172.562 357.773 173.117 358.117 173.586C358.477 174.055 358.969 174.414 359.594 174.664C360.234 174.898 360.984 175.016 361.844 175.016ZM391.367 154.25V159.008H376.086V154.25H391.367ZM380.398 147.5H386.328V171.898C386.328 172.773 386.508 173.383 386.867 173.727C387.227 174.07 387.883 174.242 388.836 174.242C389.227 174.242 389.672 174.242 390.172 174.242C390.672 174.242 391.07 174.242 391.367 174.242V179C390.961 179 390.422 179 389.75 179C389.094 179 388.445 179 387.805 179C385.273 179 383.406 178.492 382.203 177.477C381 176.445 380.398 174.875 380.398 172.766V147.5ZM410.406 179L402.766 154.25H408.977L411.531 163.648C411.984 165.383 412.422 167.18 412.844 169.039C413.281 170.883 413.711 172.695 414.133 174.477H413.336C413.789 172.695 414.242 170.883 414.695 169.039C415.148 167.18 415.617 165.383 416.102 163.648L418.727 154.25H424.188L426.789 163.648C427.258 165.383 427.719 167.18 428.172 169.039C428.625 170.883 429.078 172.695 429.531 174.477H428.688C429.125 172.695 429.555 170.883 429.977 169.039C430.414 167.18 430.859 165.383 431.312 163.648L433.867 154.25H440.148L432.484 179H426.344L423.344 168.688C423.062 167.672 422.781 166.641 422.5 165.594C422.219 164.531 421.945 163.469 421.68 162.406C421.414 161.344 421.141 160.289 420.859 159.242H422.078C421.797 160.289 421.516 161.344 421.234 162.406C420.953 163.469 420.672 164.531 420.391 165.594C420.125 166.641 419.844 167.672 419.547 168.688L416.5 179H410.406ZM442.719 179V154.25H448.625V179H442.719ZM445.672 150.57C444.656 150.57 443.812 150.25 443.141 149.609C442.469 148.953 442.133 148.148 442.133 147.195C442.133 146.242 442.469 145.445 443.141 144.805C443.812 144.164 444.648 143.844 445.648 143.844C446.664 143.844 447.508 144.164 448.18 144.805C448.852 145.445 449.188 146.25 449.188 147.219C449.188 148.172 448.852 148.969 448.18 149.609C447.508 150.25 446.672 150.57 445.672 150.57ZM466.805 154.25V159.008H451.523V154.25H466.805ZM455.836 147.5H461.766V171.898C461.766 172.773 461.945 173.383 462.305 173.727C462.664 174.07 463.32 174.242 464.273 174.242C464.664 174.242 465.109 174.242 465.609 174.242C466.109 174.242 466.508 174.242 466.805 174.242V179C466.398 179 465.859 179 465.188 179C464.531 179 463.883 179 463.242 179C460.711 179 458.844 178.492 457.641 177.477C456.438 176.445 455.836 174.875 455.836 172.766V147.5ZM475.938 165.008V179H470.031V144.078H475.938V160.555H474.695C475.492 158.336 476.609 156.648 478.047 155.492C479.5 154.336 481.297 153.758 483.438 153.758C485.172 153.758 486.703 154.133 488.031 154.883C489.359 155.617 490.398 156.711 491.148 158.164C491.898 159.617 492.273 161.406 492.273 163.531V179H486.344V164.469C486.344 162.656 485.906 161.281 485.031 160.344C484.172 159.406 482.945 158.938 481.352 158.938C480.32 158.938 479.398 159.148 478.586 159.57C477.773 159.992 477.125 160.648 476.641 161.539C476.172 162.43 475.938 163.586 475.938 165.008ZM64.625 237V212.25H70.3438V217.641H69.8984C70.3516 216.328 70.9688 215.234 71.75 214.359C72.5469 213.484 73.4609 212.836 74.4922 212.414C75.5391 211.977 76.6406 211.758 77.7969 211.758C79.7031 211.758 81.3438 212.305 82.7188 213.398C84.0938 214.477 84.9375 215.891 85.25 217.641H84.4766C84.8047 216.469 85.3594 215.445 86.1406 214.57C86.9375 213.68 87.9062 212.992 89.0469 212.508C90.1875 212.008 91.4375 211.758 92.7969 211.758C94.3594 211.758 95.7656 212.094 97.0156 212.766C98.2656 213.438 99.2578 214.438 99.9922 215.766C100.727 217.094 101.094 218.727 101.094 220.664V237H95.1641V221.508C95.1641 219.883 94.7109 218.688 93.8047 217.922C92.9141 217.156 91.8359 216.773 90.5703 216.773C89.5859 216.773 88.7266 216.992 87.9922 217.43C87.2734 217.852 86.7109 218.438 86.3047 219.188C85.9141 219.938 85.7188 220.812 85.7188 221.812V237H79.9766V221.227C79.9766 219.883 79.5547 218.805 78.7109 217.992C77.8672 217.18 76.7891 216.773 75.4766 216.773C74.6016 216.773 73.7812 216.984 73.0156 217.406C72.2656 217.812 71.6641 218.422 71.2109 219.234C70.7578 220.047 70.5312 221.047 70.5312 222.234V237H64.625ZM116.906 237.562C114.484 237.562 112.352 237.023 110.508 235.945C108.68 234.852 107.25 233.336 106.219 231.398C105.203 229.461 104.695 227.211 104.695 224.648C104.695 222.086 105.203 219.836 106.219 217.898C107.25 215.945 108.68 214.422 110.508 213.328C112.352 212.234 114.484 211.688 116.906 211.688C119.344 211.688 121.477 212.234 123.305 213.328C125.133 214.422 126.555 215.945 127.57 217.898C128.602 219.836 129.117 222.086 129.117 224.648C129.117 227.211 128.602 229.461 127.57 231.398C126.555 233.336 125.133 234.852 123.305 235.945C121.477 237.023 119.344 237.562 116.906 237.562ZM116.906 232.617C118.172 232.617 119.266 232.297 120.188 231.656C121.125 231.016 121.844 230.102 122.344 228.914C122.859 227.711 123.117 226.289 123.117 224.648C123.117 222.992 122.859 221.57 122.344 220.383C121.844 219.18 121.125 218.258 120.188 217.617C119.266 216.961 118.172 216.633 116.906 216.633C115.641 216.633 114.539 216.961 113.602 217.617C112.664 218.258 111.938 219.18 111.422 220.383C110.922 221.57 110.672 222.992 110.672 224.648C110.672 226.305 110.922 227.727 111.422 228.914C111.938 230.102 112.664 231.016 113.602 231.656C114.539 232.297 115.641 232.617 116.906 232.617ZM142.281 237.492C140.141 237.492 138.258 236.953 136.633 235.875C135.023 234.797 133.773 233.289 132.883 231.352C132.008 229.414 131.57 227.164 131.57 224.602C131.57 222.07 132.016 219.836 132.906 217.898C133.797 215.961 135.047 214.453 136.656 213.375C138.266 212.297 140.125 211.758 142.234 211.758C143.312 211.758 144.312 211.906 145.234 212.203C146.172 212.484 147.016 212.922 147.766 213.516C148.516 214.109 149.156 214.859 149.688 215.766H149.734V202.078H155.641V237H149.828V233.227H149.781C149.266 234.18 148.625 234.977 147.859 235.617C147.109 236.242 146.258 236.711 145.305 237.023C144.367 237.336 143.359 237.492 142.281 237.492ZM143.664 232.547C144.961 232.547 146.086 232.227 147.039 231.586C147.992 230.93 148.734 230.008 149.266 228.82C149.797 227.617 150.062 226.211 150.062 224.602C150.062 222.992 149.797 221.594 149.266 220.406C148.734 219.219 147.992 218.297 147.039 217.641C146.086 216.984 144.961 216.656 143.664 216.656C142.461 216.656 141.398 216.969 140.477 217.594C139.555 218.203 138.836 219.102 138.32 220.289C137.805 221.461 137.547 222.898 137.547 224.602C137.547 226.305 137.805 227.75 138.32 228.938C138.836 230.125 139.555 231.023 140.477 231.633C141.398 232.242 142.461 232.547 143.664 232.547ZM171.312 237.562C168.844 237.562 166.703 237.008 164.891 235.898C163.078 234.789 161.68 233.266 160.695 231.328C159.727 229.375 159.242 227.148 159.242 224.648C159.242 222.133 159.742 219.898 160.742 217.945C161.758 215.992 163.156 214.461 164.938 213.352C166.719 212.242 168.766 211.688 171.078 211.688C172.859 211.688 174.477 212 175.93 212.625C177.383 213.25 178.633 214.141 179.68 215.297C180.727 216.438 181.531 217.797 182.094 219.375C182.656 220.938 182.938 222.664 182.938 224.555V226.172H161.586V222.094H179.984L177.336 223.195C177.336 221.789 177.078 220.578 176.562 219.562C176.062 218.547 175.352 217.766 174.43 217.219C173.523 216.656 172.438 216.375 171.172 216.375C169.922 216.375 168.836 216.656 167.914 217.219C166.992 217.766 166.281 218.547 165.781 219.562C165.281 220.578 165.031 221.789 165.031 223.195V225.75C165.031 227.172 165.281 228.422 165.781 229.5C166.281 230.578 167.008 231.414 167.961 232.008C168.93 232.602 170.094 232.898 171.453 232.898C172.438 232.898 173.312 232.75 174.078 232.453C174.844 232.156 175.484 231.742 176 231.211C176.516 230.68 176.883 230.062 177.102 229.359H182.633C182.32 230.969 181.633 232.391 180.57 233.625C179.523 234.859 178.203 235.828 176.609 236.531C175.016 237.219 173.25 237.562 171.312 237.562ZM192.375 202.078V237H186.469V202.078H192.375ZM217.062 237.492C214.922 237.492 213.039 236.953 211.414 235.875C209.805 234.797 208.555 233.289 207.664 231.352C206.789 229.414 206.352 227.164 206.352 224.602C206.352 222.07 206.797 219.836 207.688 217.898C208.578 215.961 209.828 214.453 211.438 213.375C213.047 212.297 214.906 211.758 217.016 211.758C218.094 211.758 219.094 211.906 220.016 212.203C220.953 212.484 221.797 212.922 222.547 213.516C223.297 214.109 223.938 214.859 224.469 215.766H224.516V202.078H230.422V237H224.609V233.227H224.562C224.047 234.18 223.406 234.977 222.641 235.617C221.891 236.242 221.039 236.711 220.086 237.023C219.148 237.336 218.141 237.492 217.062 237.492ZM218.445 232.547C219.742 232.547 220.867 232.227 221.82 231.586C222.773 230.93 223.516 230.008 224.047 228.82C224.578 227.617 224.844 226.211 224.844 224.602C224.844 222.992 224.578 221.594 224.047 220.406C223.516 219.219 222.773 218.297 221.82 217.641C220.867 216.984 219.742 216.656 218.445 216.656C217.242 216.656 216.18 216.969 215.258 217.594C214.336 218.203 213.617 219.102 213.102 220.289C212.586 221.461 212.328 222.898 212.328 224.602C212.328 226.305 212.586 227.75 213.102 228.938C213.617 230.125 214.336 231.023 215.258 231.633C216.18 232.242 217.242 232.547 218.445 232.547ZM235.172 237V212.25H240.867V216.352H240.938C241.391 214.93 242.102 213.852 243.07 213.117C244.055 212.383 245.344 212.016 246.938 212.016C247.344 212.016 247.703 212.023 248.016 212.039C248.344 212.055 248.625 212.078 248.859 212.109V217.359C248.656 217.328 248.289 217.289 247.758 217.242C247.227 217.195 246.664 217.172 246.07 217.172C245.148 217.172 244.305 217.391 243.539 217.828C242.789 218.25 242.188 218.891 241.734 219.75C241.297 220.609 241.078 221.688 241.078 222.984V237H235.172ZM262.562 237.562C260.141 237.562 258.008 237.023 256.164 235.945C254.336 234.852 252.906 233.336 251.875 231.398C250.859 229.461 250.352 227.211 250.352 224.648C250.352 222.086 250.859 219.836 251.875 217.898C252.906 215.945 254.336 214.422 256.164 213.328C258.008 212.234 260.141 211.688 262.562 211.688C265 211.688 267.133 212.234 268.961 213.328C270.789 214.422 272.211 215.945 273.227 217.898C274.258 219.836 274.773 222.086 274.773 224.648C274.773 227.211 274.258 229.461 273.227 231.398C272.211 233.336 270.789 234.852 268.961 235.945C267.133 237.023 265 237.562 262.562 237.562ZM262.562 232.617C263.828 232.617 264.922 232.297 265.844 231.656C266.781 231.016 267.5 230.102 268 228.914C268.516 227.711 268.773 226.289 268.773 224.648C268.773 222.992 268.516 221.57 268 220.383C267.5 219.18 266.781 218.258 265.844 217.617C264.922 216.961 263.828 216.633 262.562 216.633C261.297 216.633 260.195 216.961 259.258 217.617C258.32 218.258 257.594 219.18 257.078 220.383C256.578 221.57 256.328 222.992 256.328 224.648C256.328 226.305 256.578 227.727 257.078 228.914C257.594 230.102 258.32 231.016 259.258 231.656C260.195 232.297 261.297 232.617 262.562 232.617ZM278.375 246.797V212.25H284.188V215.695H284.258C284.773 214.82 285.414 214.094 286.18 213.516C286.945 212.922 287.797 212.484 288.734 212.203C289.688 211.906 290.695 211.758 291.758 211.758C293.898 211.758 295.766 212.297 297.359 213.375C298.969 214.453 300.219 215.961 301.109 217.898C302 219.836 302.445 222.07 302.445 224.602C302.445 227.164 302 229.414 301.109 231.352C300.234 233.289 298.992 234.797 297.383 235.875C295.773 236.953 293.891 237.492 291.734 237.492C290.656 237.492 289.656 237.336 288.734 237.023C287.812 236.711 286.977 236.242 286.227 235.617C285.492 234.992 284.867 234.211 284.352 233.273H284.281V246.797H278.375ZM290.352 232.547C291.57 232.547 292.633 232.242 293.539 231.633C294.461 231.023 295.18 230.125 295.695 228.938C296.211 227.75 296.469 226.305 296.469 224.602C296.469 222.898 296.211 221.461 295.695 220.289C295.18 219.102 294.461 218.203 293.539 217.594C292.633 216.969 291.57 216.656 290.352 216.656C289.055 216.656 287.93 216.984 286.977 217.641C286.023 218.297 285.281 219.219 284.75 220.406C284.219 221.594 283.953 222.992 283.953 224.602C283.953 226.211 284.219 227.617 284.75 228.82C285.281 230.008 286.023 230.93 286.977 231.586C287.93 232.227 289.055 232.547 290.352 232.547ZM315.609 237.492C313.469 237.492 311.586 236.953 309.961 235.875C308.352 234.797 307.102 233.289 306.211 231.352C305.336 229.414 304.898 227.164 304.898 224.602C304.898 222.07 305.344 219.836 306.234 217.898C307.125 215.961 308.375 214.453 309.984 213.375C311.594 212.297 313.453 211.758 315.562 211.758C316.641 211.758 317.641 211.906 318.562 212.203C319.5 212.484 320.344 212.922 321.094 213.516C321.844 214.109 322.484 214.859 323.016 215.766H323.062V202.078H328.969V237H323.156V233.227H323.109C322.594 234.18 321.953 234.977 321.188 235.617C320.438 236.242 319.586 236.711 318.633 237.023C317.695 237.336 316.688 237.492 315.609 237.492ZM316.992 232.547C318.289 232.547 319.414 232.227 320.367 231.586C321.32 230.93 322.062 230.008 322.594 228.82C323.125 227.617 323.391 226.211 323.391 224.602C323.391 222.992 323.125 221.594 322.594 220.406C322.062 219.219 321.32 218.297 320.367 217.641C319.414 216.984 318.289 216.656 316.992 216.656C315.789 216.656 314.727 216.969 313.805 217.594C312.883 218.203 312.164 219.102 311.648 220.289C311.133 221.461 310.875 222.898 310.875 224.602C310.875 226.305 311.133 227.75 311.648 228.938C312.164 230.125 312.883 231.023 313.805 231.633C314.727 232.242 315.789 232.547 316.992 232.547ZM344.781 237.562C342.359 237.562 340.227 237.023 338.383 235.945C336.555 234.852 335.125 233.336 334.094 231.398C333.078 229.461 332.57 227.211 332.57 224.648C332.57 222.086 333.078 219.836 334.094 217.898C335.125 215.945 336.555 214.422 338.383 213.328C340.227 212.234 342.359 211.688 344.781 211.688C347.219 211.688 349.352 212.234 351.18 213.328C353.008 214.422 354.43 215.945 355.445 217.898C356.477 219.836 356.992 222.086 356.992 224.648C356.992 227.211 356.477 229.461 355.445 231.398C354.43 233.336 353.008 234.852 351.18 235.945C349.352 237.023 347.219 237.562 344.781 237.562ZM344.781 232.617C346.047 232.617 347.141 232.297 348.062 231.656C349 231.016 349.719 230.102 350.219 228.914C350.734 227.711 350.992 226.289 350.992 224.648C350.992 222.992 350.734 221.57 350.219 220.383C349.719 219.18 349 218.258 348.062 217.617C347.141 216.961 346.047 216.633 344.781 216.633C343.516 216.633 342.414 216.961 341.477 217.617C340.539 218.258 339.812 219.18 339.297 220.383C338.797 221.57 338.547 222.992 338.547 224.648C338.547 226.305 338.797 227.727 339.297 228.914C339.812 230.102 340.539 231.016 341.477 231.656C342.414 232.297 343.516 232.617 344.781 232.617ZM365.281 237L357.641 212.25H363.852L366.406 221.648C366.859 223.383 367.297 225.18 367.719 227.039C368.156 228.883 368.586 230.695 369.008 232.477H368.211C368.664 230.695 369.117 228.883 369.57 227.039C370.023 225.18 370.492 223.383 370.977 221.648L373.602 212.25H379.062L381.664 221.648C382.133 223.383 382.594 225.18 383.047 227.039C383.5 228.883 383.953 230.695 384.406 232.477H383.562C384 230.695 384.43 228.883 384.852 227.039C385.289 225.18 385.734 223.383 386.188 221.648L388.742 212.25H395.023L387.359 237H381.219L378.219 226.688C377.938 225.672 377.656 224.641 377.375 223.594C377.094 222.531 376.82 221.469 376.555 220.406C376.289 219.344 376.016 218.289 375.734 217.242H376.953C376.672 218.289 376.391 219.344 376.109 220.406C375.828 221.469 375.547 222.531 375.266 223.594C375 224.641 374.719 225.672 374.422 226.688L371.375 237H365.281ZM403.5 223.008V237H397.594V212.25H403.406V218.555H402.258C403.055 216.336 404.172 214.648 405.609 213.492C407.062 212.336 408.859 211.758 411 211.758C412.734 211.758 414.266 212.133 415.594 212.883C416.922 213.617 417.961 214.711 418.711 216.164C419.461 217.617 419.836 219.406 419.836 221.531V237H413.906V222.469C413.906 220.656 413.469 219.281 412.594 218.344C411.734 217.406 410.508 216.938 408.914 216.938C407.883 216.938 406.961 217.148 406.148 217.57C405.336 217.992 404.688 218.648 404.203 219.539C403.734 220.43 403.5 221.586 403.5 223.008Z" fill="white"/>
<defs>
<linearGradient id="paint0_linear_7063_72308" x1="0.0119201" y1="514.522" x2="598.605" y2="35.4991" gradientUnits="userSpaceOnUse">
<stop stop-color="#D1CDF6"/>
<stop offset="0.308435" stop-color="#D7EAF7"/>
<stop offset="0.626149" stop-color="#F0ECFB"/>
<stop offset="1" stop-color="#FAFBFC"/>
</linearGradient>
</defs>
</svg>
