<svg width="504" height="359" viewBox="0 0 504 359" fill="none" xmlns="http://www.w3.org/2000/svg">
<g clip-path="url(#clip0_4582_14350)">
<rect y="0.152344" width="549" height="249" rx="8" fill="#270741"/>
<path d="M46.93 45.3271H36.89V43.5746H40.9892V33.2475H40.8308L36.8603 35.8317V33.7525L40.9991 31.0395H43.019V43.5746H46.93V45.3271ZM36.7712 65.1387C36.7712 62.5643 38.6921 60.7424 41.4149 60.7424C44.1378 60.7424 45.9894 62.3861 45.9894 64.7921C45.9894 66.2971 45.2765 67.5249 42.9497 69.9606L39.7614 73.3568V73.5251H46.2171V75.3271H36.8702V73.9113L41.6526 68.7427C43.5041 66.7328 43.9596 65.9803 43.9596 64.901C43.9596 63.4356 42.9299 62.4851 41.3555 62.4851C39.7713 62.4851 38.7218 63.5445 38.7218 65.1387V65.1981H36.7712V65.1387ZM39.7515 98.8022V97.1585H41.3456C42.8903 97.1585 43.9596 96.1783 43.9596 94.7723C43.9596 93.3762 42.9299 92.4752 41.3753 92.4752C39.8208 92.4752 38.801 93.3762 38.6723 94.8416H36.7514C36.8999 92.3069 38.6921 90.7424 41.4447 90.7424C44.1081 90.7424 45.9696 92.2772 45.9696 94.4753C45.9696 96.1783 45.0487 97.416 43.5041 97.7724V97.9308C45.4151 98.1784 46.5538 99.4952 46.5538 101.426C46.5538 103.891 44.4646 105.624 41.514 105.624C38.603 105.624 36.6029 103.971 36.4742 101.446H38.4049C38.5436 102.901 39.7416 103.832 41.4546 103.832C43.316 103.832 44.4844 102.872 44.4844 101.347C44.4844 99.7923 43.2863 98.8022 41.405 98.8022H39.7515ZM42.9992 135.327V132.396H36.5336V130.753L41.2367 121.039H43.3259L38.7119 130.525V130.664H43.0487V126.713H44.9002V130.664H47.0092V132.396H44.9101V135.327H42.9992ZM41.3852 165.614C38.6327 165.614 36.6821 163.931 36.5633 161.456H38.5436C38.7119 162.852 39.9 163.812 41.4744 163.812C43.2269 163.812 44.3953 162.584 44.3953 160.743C44.3953 158.901 43.217 157.654 41.4744 157.654C40.2664 157.654 39.2862 158.188 38.7416 159.159H36.7811L37.4841 151.039H45.5636V152.832H39.1178L38.7416 157.258H38.9099C39.5832 156.396 40.6228 155.941 41.9001 155.941C44.5438 155.941 46.3854 157.891 46.3854 160.693C46.3854 163.634 44.3755 165.614 41.3852 165.614Z" fill="#5E6E8C"/>
<path d="M78.4381 45.3271V36.2278H75.5469V34.5941H78.4381V33.5841C78.4381 31.4058 79.6857 30.4454 82.4185 30.4454C82.9333 30.4454 84.7354 30.485 85.0324 30.5345V32.0692C84.6364 32.0296 82.9531 31.99 82.4581 31.99C81.1016 31.99 80.3887 32.5148 80.3887 33.5148V34.5941H85.0324V36.2278H80.4184V45.3271H78.4381ZM97.1715 34.5347V45.3271H95.2506V43.4558H95.112C94.5476 44.7826 93.3298 45.5351 91.7158 45.5351C89.3692 45.5351 88.1018 44.1291 88.1018 41.5349V34.5347H90.092V41.0498C90.092 42.8914 90.8346 43.7627 92.4287 43.7627C94.0823 43.7627 95.1912 42.6043 95.1912 40.8616V34.5347H97.1715ZM100.637 45.3271V34.5347H102.558V36.4159H102.696C103.261 35.0792 104.479 34.3267 106.093 34.3267C108.439 34.3267 109.707 35.7327 109.707 38.3269V45.3271H107.716V38.822C107.716 36.9704 106.974 36.0991 105.38 36.0991C103.726 36.0991 102.617 37.2575 102.617 39.0002V45.3271H100.637ZM122.321 38.01H120.36C120.172 36.7625 119.202 36.0199 117.885 36.0199C116.133 36.0199 115.162 37.2476 115.162 39.4655V40.3765C115.162 42.5944 116.133 43.8221 117.885 43.8221C119.212 43.8221 120.162 43.0993 120.36 41.8815H122.321C122.054 44.1786 120.42 45.5351 117.905 45.5351C114.905 45.5351 113.172 43.733 113.172 40.5844V39.2576C113.172 36.109 114.905 34.3168 117.905 34.3168C120.42 34.3168 122.054 35.6733 122.321 38.01ZM128.282 31.5841H130.242V34.5941H134.51V36.2278H130.272V42.0597C130.272 43.129 131.014 43.7132 132.391 43.7132C132.896 43.7132 134.212 43.6934 134.45 43.6637V45.2875C134.232 45.3271 132.668 45.3668 132.252 45.3668C129.49 45.3668 128.282 44.3766 128.282 42.0597V36.2278H125.43V34.5941H128.282V31.5841ZM142.955 32.0098C142.074 32.0098 141.421 31.3959 141.421 30.5444C141.421 29.683 142.074 29.0691 142.955 29.0691C143.846 29.0691 144.49 29.683 144.49 30.5444C144.49 31.3959 143.846 32.0098 142.955 32.0098ZM147.51 45.3271H138.45V43.7231H142.084V36.1387H138.529V34.5347H144.025V43.7231H147.51V45.3271ZM155.312 45.5351C152.401 45.5351 150.55 43.6736 150.55 40.7527V39.119C150.55 36.1882 152.401 34.3366 155.312 34.3366C158.223 34.3366 160.075 36.1882 160.075 39.119V40.7527C160.075 43.6736 158.223 45.5351 155.312 45.5351ZM155.312 36.0199C153.589 36.0199 152.51 37.2575 152.51 39.2576V40.6141C152.51 42.6142 153.589 43.8518 155.312 43.8518C157.035 43.8518 158.114 42.6142 158.114 40.6141V39.2576C158.114 37.2575 157.035 36.0199 155.312 36.0199ZM163.313 45.3271V34.5347H165.233V36.4159H165.372C165.936 35.0792 167.154 34.3267 168.768 34.3267C171.115 34.3267 172.382 35.7327 172.382 38.3269V45.3271H170.392V38.822C170.392 36.9704 169.649 36.0991 168.055 36.0991C166.402 36.0991 165.293 37.2575 165.293 39.0002V45.3271H163.313ZM371.875 45.3271L370.736 41.3864H365.983L364.835 45.3271H362.756L367.261 31.0395H369.558L374.063 45.3271H371.875ZM368.33 33.3267L366.469 39.7131H370.251L368.399 33.3267H368.33ZM385.479 34.5347V45.3271H383.558V43.4558H383.42C382.855 44.7826 381.638 45.5351 380.024 45.5351C377.677 45.5351 376.41 44.1291 376.41 41.5349V34.5347H378.4V41.0498C378.4 42.8914 379.142 43.7627 380.736 43.7627C382.39 43.7627 383.499 42.6043 383.499 40.8616V34.5347H385.479ZM391.519 31.5841H393.48V34.5941H397.747V36.2278H393.509V42.0597C393.509 43.129 394.252 43.7132 395.628 43.7132C396.133 43.7132 397.45 43.6934 397.688 43.6637V45.2875C397.47 45.3271 395.905 45.3668 395.49 45.3668C392.727 45.3668 391.519 44.3766 391.519 42.0597V36.2278H388.667V34.5941H391.519V31.5841ZM401.46 45.3271V30.3266H403.381V36.4258H403.529C404.084 35.099 405.312 34.3465 406.945 34.3465C409.292 34.3465 410.569 35.7624 410.569 38.3467V45.3271H408.589V38.8319C408.589 37.0001 407.827 36.1189 406.232 36.1189C404.559 36.1189 403.45 37.2773 403.45 39.02V45.3271H401.46ZM451.155 34.5347H453.284L456.106 43.2974H456.244L459.046 34.5347H461.155L457.264 45.3271H455.056L451.155 34.5347ZM468.69 45.5351C465.779 45.5351 463.928 43.6736 463.928 40.7527V39.119C463.928 36.1882 465.779 34.3366 468.69 34.3366C471.601 34.3366 473.453 36.1882 473.453 39.119V40.7527C473.453 43.6736 471.601 45.5351 468.69 45.5351ZM468.69 36.0199C466.967 36.0199 465.888 37.2575 465.888 39.2576V40.6141C465.888 42.6142 466.967 43.8518 468.69 43.8518C470.413 43.8518 471.492 42.6142 471.492 40.6141V39.2576C471.492 37.2575 470.413 36.0199 468.69 36.0199ZM481.404 32.0098C480.522 32.0098 479.869 31.3959 479.869 30.5444C479.869 29.683 480.522 29.0691 481.404 29.0691C482.295 29.0691 482.938 29.683 482.938 30.5444C482.938 31.3959 482.295 32.0098 481.404 32.0098ZM485.958 45.3271H476.898V43.7231H480.532V36.1387H476.978V34.5347H482.473V43.7231H485.958V45.3271ZM492.929 45.5054C490.444 45.5054 488.859 43.733 488.859 40.9111V38.9507C488.859 36.1288 490.444 34.3564 492.929 34.3564C494.483 34.3564 495.622 35.0396 496.058 36.2476H496.246V30.3266H498.285V45.3271H496.295V43.6241H496.107C495.592 44.842 494.483 45.5054 492.929 45.5054ZM493.582 43.7429C495.246 43.7429 496.295 42.5746 496.295 40.723V39.1091C496.295 37.2476 495.246 36.0793 493.582 36.0793C491.919 36.0793 490.869 37.2575 490.869 39.1091V40.723C490.869 42.5746 491.919 43.7429 493.582 43.7429Z" fill="#C196FC"/>
<path d="M278.307 38.1784C278.307 34.7327 279.356 31.7326 281.357 29.4751H283.367C281.287 32.4554 280.426 35.0099 280.426 38.1784C280.426 41.3567 281.287 43.9014 283.367 46.8817H281.357C279.356 44.6242 278.307 41.624 278.307 38.1784ZM292.001 45.5054C289.941 45.5054 288.575 44.2083 288.575 42.2577C288.575 40.3369 289.961 39.2081 292.476 39.0596L295.308 38.9111V37.9605C295.308 36.7229 294.535 36.0298 293.149 36.0298C292.001 36.0298 291.179 36.5248 290.921 37.3764H288.981C289.179 35.5941 290.872 34.3861 293.189 34.3861C295.793 34.3861 297.278 35.6931 297.278 37.9605V45.337H295.387V43.7627H295.199C294.684 44.8717 293.525 45.5054 292.001 45.5054ZM292.614 43.8518C294.159 43.8518 295.308 42.832 295.308 41.4557V40.3171L292.743 40.4458C291.307 40.525 290.555 41.1191 290.555 42.1686C290.555 43.2083 291.347 43.8518 292.614 43.8518ZM310.269 34.5347V45.3271H308.348V43.4558H308.209C307.645 44.7826 306.427 45.5351 304.813 45.5351C302.466 45.5351 301.199 44.1291 301.199 41.5349V34.5347H303.189V41.0498C303.189 42.8914 303.932 43.7627 305.526 43.7627C307.179 43.7627 308.288 42.6043 308.288 40.8616V34.5347H310.269ZM316.308 31.5841H318.269V34.5941H322.536V36.2278H318.299V42.0597C318.299 43.129 319.041 43.7132 320.417 43.7132C320.922 43.7132 322.239 43.6934 322.477 43.6637V45.2875C322.259 45.3271 320.695 45.3668 320.279 45.3668C317.516 45.3668 316.308 44.3766 316.308 42.0597V36.2278H313.457V34.5941H316.308V31.5841ZM326.249 45.3271V30.3266H328.17V36.4258H328.319C328.873 35.099 330.101 34.3465 331.735 34.3465C334.081 34.3465 335.359 35.7624 335.359 38.3467V45.3271H333.378V38.8319C333.378 37.0001 332.616 36.1189 331.022 36.1189C329.348 36.1189 328.239 37.2773 328.239 39.02V45.3271H326.249ZM343.339 37.8417C342.299 37.8417 341.438 36.9704 341.438 35.911C341.438 34.8416 342.299 33.9703 343.339 33.9703C344.389 33.9703 345.24 34.8416 345.24 35.911C345.24 36.9704 344.389 37.8417 343.339 37.8417ZM343.339 45.4262C342.299 45.4262 341.438 44.5449 341.438 43.4855C341.438 42.4161 342.299 41.5448 343.339 41.5448C344.389 41.5448 345.24 42.4161 345.24 43.4855C345.24 44.5449 344.389 45.4262 343.339 45.4262ZM420.906 38.1784C420.906 41.624 419.857 44.6242 417.857 46.8817H415.847C417.926 43.9014 418.787 41.3567 418.787 38.1784C418.787 35.0099 417.926 32.4554 415.847 29.4751H417.857C419.857 31.7326 420.906 34.7327 420.906 38.1784ZM431.085 37.8417C430.045 37.8417 429.184 36.9704 429.184 35.911C429.184 34.8416 430.045 33.9703 431.085 33.9703C432.134 33.9703 432.986 34.8416 432.986 35.911C432.986 36.9704 432.134 37.8417 431.085 37.8417ZM431.085 45.4262C430.045 45.4262 429.184 44.5449 429.184 43.4855C429.184 42.4161 430.045 41.5448 431.085 41.5448C432.134 41.5448 432.986 42.4161 432.986 43.4855C432.986 44.5449 432.134 45.4262 431.085 45.4262ZM522.771 46.9114H521.356C518.811 46.9114 517.999 46.0995 517.999 43.5746V41.3666C517.999 39.822 517.167 39.02 514.89 39.2081V37.1585C517.167 37.3467 517.999 36.5446 517.999 35.0099V32.792C517.999 30.2672 518.811 29.4553 521.356 29.4553H522.771V31.0395H521.732C520.276 31.0395 519.989 31.386 519.989 33.0792V35.7525C519.989 37.1288 518.969 38.0397 517.029 38.0992V38.2675C518.969 38.3269 519.989 39.2378 519.989 40.6141V43.2875C519.989 44.9806 520.276 45.3271 521.732 45.3271H522.771V46.9114ZM76.1608 166.911V165.327H77.2004C78.6559 165.327 78.9431 164.981 78.9431 163.287V160.614C78.9431 159.238 79.9629 158.327 81.9036 158.267V158.099C79.9629 158.04 78.9431 157.129 78.9431 155.753V153.079C78.9431 151.386 78.6559 151.039 77.2004 151.039H76.1608V149.455H77.5767C80.1213 149.455 80.9333 150.267 80.9333 152.792V155.01C80.9333 156.545 81.765 157.347 84.0423 157.159V159.208C81.765 159.02 80.9333 159.822 80.9333 161.367V163.575C80.9333 166.099 80.1213 166.911 77.5767 166.911H76.1608Z" fill="#BDD3FF"/>
<path d="M188.858 37.515C188.858 35.5842 190.472 34.3168 192.947 34.3168C195.304 34.3168 196.848 35.4456 197.027 37.3169H195.126C194.947 36.4357 194.106 35.8912 192.918 35.8912C191.65 35.8912 190.828 36.4852 190.828 37.3764C190.828 38.1487 191.353 38.5744 192.611 38.8517L194.175 39.1982C196.304 39.6735 197.264 40.5844 197.264 42.1686C197.264 44.2182 195.571 45.5252 192.937 45.5252C190.393 45.5252 188.749 44.3865 188.571 42.4855H190.571C190.789 43.4063 191.68 43.9311 192.987 43.9311C194.343 43.9311 195.215 43.3271 195.215 42.3864C195.215 41.5943 194.73 41.1884 193.423 40.8913L191.809 40.525C189.838 40.0794 188.858 39.0893 188.858 37.515ZM208.195 42.4756H210.096C209.809 44.2875 208.027 45.5351 205.7 45.5351C202.67 45.5351 200.938 43.7528 200.938 40.6834V39.0398C200.938 36.1981 202.789 34.3267 205.591 34.3267C208.413 34.3267 210.126 36.1882 210.126 39.2576V40.426H202.888V40.9111C202.888 42.733 203.987 43.9014 205.69 43.9014C206.968 43.9014 207.928 43.3568 208.195 42.4756ZM205.572 35.9506C203.898 35.9506 202.888 37.0991 202.888 39.0299H208.176C208.176 37.109 207.205 35.9506 205.572 35.9506ZM216.027 31.5841H217.988V34.5941H222.255V36.2278H218.018V42.0597C218.018 43.129 218.76 43.7132 220.136 43.7132C220.641 43.7132 221.958 43.6934 222.196 43.6637V45.2875C221.978 45.3271 220.414 45.3668 219.998 45.3668C217.235 45.3668 216.027 44.3766 216.027 42.0597V36.2278H213.176V34.5941H216.027V31.5841ZM233.988 45.3271L232.85 41.3864H228.097L226.949 45.3271H224.869L229.374 31.0395H231.672L236.177 45.3271H233.988ZM230.444 33.3267L228.582 39.7131H232.365L230.513 33.3267H230.444ZM247.593 34.5347V45.3271H245.672V43.4558H245.533C244.969 44.7826 243.751 45.5351 242.137 45.5351C239.791 45.5351 238.523 44.1291 238.523 41.5349V34.5347H240.513V41.0498C240.513 42.8914 241.256 43.7627 242.85 43.7627C244.504 43.7627 245.613 42.6043 245.613 40.8616V34.5347H247.593ZM253.633 31.5841H255.593V34.5941H259.861V36.2278H255.623V42.0597C255.623 43.129 256.366 43.7132 257.742 43.7132C258.247 43.7132 259.564 43.6934 259.801 43.6637V45.2875C259.583 45.3271 258.019 45.3668 257.603 45.3668C254.841 45.3668 253.633 44.3766 253.633 42.0597V36.2278H250.781V34.5941H253.633V31.5841ZM263.574 45.3271V30.3266H265.495V36.4258H265.643C266.198 35.099 267.425 34.3465 269.059 34.3465C271.406 34.3465 272.683 35.7624 272.683 38.3467V45.3271H270.703V38.8319C270.703 37.0001 269.94 36.1189 268.346 36.1189C266.673 36.1189 265.564 37.2773 265.564 39.02V45.3271H263.574Z" fill="#0095AD"/>
<path d="M105.172 75.4262C104.122 75.4262 103.271 74.5449 103.271 73.4855C103.271 72.4161 104.122 71.5448 105.172 71.5448C106.221 71.5448 107.073 72.4161 107.073 73.4855C107.073 74.5449 106.221 75.4262 105.172 75.4262ZM117.707 75.4262C116.657 75.4262 115.806 74.5449 115.806 73.4855C115.806 72.4161 116.657 71.5448 117.707 71.5448C118.756 71.5448 119.608 72.4161 119.608 73.4855C119.608 74.5449 118.756 75.4262 117.707 75.4262ZM130.242 75.4262C129.192 75.4262 128.341 74.5449 128.341 73.4855C128.341 72.4161 129.192 71.5448 130.242 71.5448C131.292 71.5448 132.143 72.4161 132.143 73.4855C132.143 74.5449 131.292 75.4262 130.242 75.4262ZM105.172 105.426C104.122 105.426 103.271 104.545 103.271 103.485C103.271 102.416 104.122 101.545 105.172 101.545C106.221 101.545 107.073 102.416 107.073 103.485C107.073 104.545 106.221 105.426 105.172 105.426ZM117.707 105.426C116.657 105.426 115.806 104.545 115.806 103.485C115.806 102.416 116.657 101.545 117.707 101.545C118.756 101.545 119.608 102.416 119.608 103.485C119.608 104.545 118.756 105.426 117.707 105.426ZM130.242 105.426C129.192 105.426 128.341 104.545 128.341 103.485C128.341 102.416 129.192 101.545 130.242 101.545C131.292 101.545 132.143 102.416 132.143 103.485C132.143 104.545 131.292 105.426 130.242 105.426ZM105.172 135.426C104.122 135.426 103.271 134.545 103.271 133.485C103.271 132.416 104.122 131.545 105.172 131.545C106.221 131.545 107.073 132.416 107.073 133.485C107.073 134.545 106.221 135.426 105.172 135.426ZM117.707 135.426C116.657 135.426 115.806 134.545 115.806 133.485C115.806 132.416 116.657 131.545 117.707 131.545C118.756 131.545 119.608 132.416 119.608 133.485C119.608 134.545 118.756 135.426 117.707 135.426ZM130.242 135.426C129.192 135.426 128.341 134.545 128.341 133.485C128.341 132.416 129.192 131.545 130.242 131.545C131.292 131.545 132.143 132.416 132.143 133.485C132.143 134.545 131.292 135.426 130.242 135.426Z" fill="#5E6E8C"/>
</g>
<rect x="143" y="93.1523" width="336" height="264.267" rx="5" fill="white"/>
<rect x="143" y="93.1523" width="336" height="264.267" rx="5" stroke="#DBE2F0" stroke-width="2"/>
<path d="M178.676 135.375V119.648H188.659V121.751H181.117V126.351H188.255V128.378H181.117V133.271H188.659V135.375H178.676ZM196.233 135.571C193.258 135.571 191.329 133.184 191.329 129.468V129.446C191.329 125.697 193.225 123.332 196.233 123.332C197.857 123.332 199.241 124.138 199.873 125.413H200.058V118.896H202.413V135.375H200.058V133.511H199.873C199.187 134.808 197.89 135.571 196.233 135.571ZM196.909 133.554C198.881 133.554 200.091 131.996 200.091 129.468V129.446C200.091 126.917 198.871 125.359 196.909 125.359C194.925 125.359 193.737 126.906 193.737 129.446V129.468C193.737 132.007 194.925 133.554 196.909 133.554ZM207.164 121.425C206.347 121.425 205.682 120.76 205.682 119.953C205.682 119.136 206.347 118.471 207.164 118.471C207.971 118.471 208.646 119.136 208.646 119.953C208.646 120.76 207.971 121.425 207.164 121.425ZM205.976 135.375V123.539H208.33V135.375H205.976ZM216.243 135.451C213.638 135.451 212.57 134.535 212.57 132.258V125.402H210.717V123.539H212.57V120.553H214.978V123.539H217.518V125.402H214.978V131.691C214.978 132.966 215.458 133.489 216.624 133.489C216.984 133.489 217.191 133.478 217.518 133.445V135.331C217.136 135.396 216.7 135.451 216.243 135.451ZM233.103 135.756C228.732 135.756 226.008 132.595 226.008 127.528V127.506C226.008 122.427 228.721 119.267 233.092 119.267C236.557 119.267 239.217 121.457 239.631 124.585L239.62 124.64H237.2V124.607C236.743 122.678 235.162 121.425 233.092 121.425C230.269 121.425 228.503 123.768 228.503 127.506V127.528C228.503 131.255 230.269 133.598 233.103 133.598C235.184 133.598 236.743 132.486 237.189 130.71L237.211 130.666H239.631V130.732C239.173 133.751 236.612 135.756 233.103 135.756ZM247.587 135.603C244.11 135.603 241.985 133.282 241.985 129.468V129.446C241.985 125.642 244.121 123.31 247.587 123.31C251.041 123.31 253.177 125.631 253.177 129.446V129.468C253.177 133.282 251.052 135.603 247.587 135.603ZM247.587 133.631C249.614 133.631 250.769 132.083 250.769 129.468V129.446C250.769 126.819 249.614 125.283 247.587 125.283C245.549 125.283 244.404 126.819 244.404 129.446V129.468C244.404 132.094 245.549 133.631 247.587 133.631ZM260.316 135.571C257.341 135.571 255.412 133.184 255.412 129.468V129.446C255.412 125.697 257.308 123.332 260.316 123.332C261.94 123.332 263.324 124.138 263.956 125.413H264.141V118.896H266.495V135.375H264.141V133.511H263.956C263.269 134.808 261.972 135.571 260.316 135.571ZM260.992 133.554C262.964 133.554 264.174 131.996 264.174 129.468V129.446C264.174 126.917 262.953 125.359 260.992 125.359C259.008 125.359 257.82 126.906 257.82 129.446V129.468C257.82 132.007 259.008 133.554 260.992 133.554ZM274.985 135.603C271.52 135.603 269.427 133.238 269.427 129.489V129.478C269.427 125.784 271.563 123.31 274.865 123.31C278.168 123.31 280.195 125.697 280.195 129.25V130.078H271.803C271.846 132.345 273.089 133.663 275.04 133.663C276.555 133.663 277.459 132.911 277.743 132.301L277.786 132.214L280.064 132.203L280.042 132.301C279.65 133.86 278.015 135.603 274.985 135.603ZM274.876 125.25C273.263 125.25 272.043 126.351 271.836 128.389H277.852C277.666 126.274 276.478 125.25 274.876 125.25Z" fill="#0F111A"/>
<path d="M178.676 173.819V158.093H184.354C189.018 158.093 191.754 160.97 191.754 165.907V165.929C191.754 170.92 189.04 173.819 184.354 173.819H178.676ZM181.117 171.716H184.081C187.373 171.716 189.269 169.613 189.269 165.962V165.94C189.269 162.321 187.34 160.196 184.081 160.196H181.117V171.716ZM199.808 174.048C196.331 174.048 194.206 171.727 194.206 167.912V167.891C194.206 164.087 196.342 161.755 199.808 161.755C203.263 161.755 205.399 164.076 205.399 167.891V167.912C205.399 171.727 203.274 174.048 199.808 174.048ZM199.808 172.076C201.835 172.076 202.99 170.528 202.99 167.912V167.891C202.99 165.264 201.835 163.727 199.808 163.727C197.77 163.727 196.625 165.264 196.625 167.891V167.912C196.625 170.539 197.77 172.076 199.808 172.076ZM213.202 174.048C209.747 174.048 207.633 171.694 207.633 167.869V167.847C207.633 164.098 209.736 161.755 213.191 161.755C216.166 161.755 217.943 163.433 218.27 165.733V165.787L216.003 165.798L215.992 165.765C215.73 164.599 214.771 163.727 213.202 163.727C211.229 163.727 210.041 165.297 210.041 167.847V167.869C210.041 170.484 211.251 172.076 213.202 172.076C214.684 172.076 215.6 171.4 215.981 170.125L216.003 170.07H218.27L218.248 170.168C217.823 172.468 216.134 174.048 213.202 174.048ZM224.896 174.048C222.226 174.048 220.842 172.446 220.842 169.645V161.984H223.207V169.089C223.207 171.051 223.926 172.021 225.659 172.021C227.555 172.021 228.569 170.833 228.569 168.926V161.984H230.923V173.819H228.569V172.032H228.384C227.817 173.307 226.618 174.048 224.896 174.048ZM234.334 173.819V161.984H236.699V163.804H236.873C237.397 162.507 238.552 161.755 240.099 161.755C241.712 161.755 242.857 162.594 243.38 163.869H243.565C244.164 162.594 245.527 161.755 247.172 161.755C249.559 161.755 250.954 163.193 250.954 165.656V173.819H248.6V166.223C248.6 164.588 247.859 163.782 246.311 163.782C244.807 163.782 243.816 164.904 243.816 166.332V173.819H241.462V165.983C241.462 164.632 240.579 163.782 239.184 163.782C237.756 163.782 236.699 165.003 236.699 166.55V173.819H234.334ZM259.226 174.048C255.76 174.048 253.668 171.683 253.668 167.934V167.923C253.668 164.229 255.804 161.755 259.106 161.755C262.408 161.755 264.436 164.142 264.436 167.694V168.523H256.044C256.087 170.79 257.33 172.108 259.281 172.108C260.795 172.108 261.7 171.356 261.983 170.746L262.027 170.659L264.305 170.648L264.283 170.746C263.891 172.304 262.256 174.048 259.226 174.048ZM259.117 163.695C257.504 163.695 256.284 164.795 256.076 166.833H262.092C261.907 164.719 260.719 163.695 259.117 163.695ZM267.247 173.819V161.984H269.612V163.782H269.787C270.364 162.518 271.498 161.755 273.22 161.755C275.868 161.755 277.328 163.335 277.328 166.158V173.819H274.974V166.714C274.974 164.752 274.157 163.782 272.424 163.782C270.691 163.782 269.612 164.97 269.612 166.877V173.819H267.247ZM285.099 173.896C282.494 173.896 281.426 172.98 281.426 170.702V163.847H279.573V161.984H281.426V158.997H283.835V161.984H286.374V163.847H283.835V170.136C283.835 171.411 284.314 171.934 285.48 171.934C285.84 171.934 286.047 171.923 286.374 171.89V173.776C285.993 173.841 285.557 173.896 285.099 173.896ZM301.959 174.201C297.589 174.201 294.864 171.04 294.864 165.972V165.951C294.864 160.872 297.578 157.711 301.948 157.711C305.414 157.711 308.073 159.902 308.487 163.03L308.476 163.084H306.057V163.052C305.599 161.123 304.019 159.869 301.948 159.869C299.125 159.869 297.36 162.213 297.36 165.951V165.972C297.36 169.7 299.125 172.043 301.959 172.043C304.04 172.043 305.599 170.931 306.046 169.155L306.068 169.111H308.487V169.177C308.029 172.195 305.468 174.201 301.959 174.201ZM316.443 174.048C312.966 174.048 310.841 171.727 310.841 167.912V167.891C310.841 164.087 312.977 161.755 316.443 161.755C319.898 161.755 322.034 164.076 322.034 167.891V167.912C322.034 171.727 319.909 174.048 316.443 174.048ZM316.443 172.076C318.47 172.076 319.625 170.528 319.625 167.912V167.891C319.625 165.264 318.47 163.727 316.443 163.727C314.405 163.727 313.261 165.264 313.261 167.891V167.912C313.261 170.539 314.405 172.076 316.443 172.076ZM329.172 174.016C326.197 174.016 324.268 171.629 324.268 167.912V167.891C324.268 164.142 326.164 161.777 329.172 161.777C330.796 161.777 332.18 162.583 332.812 163.858H332.998V157.341H335.352V173.819H332.998V171.956H332.812C332.126 173.253 330.829 174.016 329.172 174.016ZM329.848 171.999C331.821 171.999 333.03 170.441 333.03 167.912V167.891C333.03 165.362 331.81 163.804 329.848 163.804C327.864 163.804 326.677 165.351 326.677 167.891V167.912C326.677 170.452 327.864 171.999 329.848 171.999ZM343.842 174.048C340.376 174.048 338.283 171.683 338.283 167.934V167.923C338.283 164.229 340.419 161.755 343.722 161.755C347.024 161.755 349.051 164.142 349.051 167.694V168.523H340.659C340.703 170.79 341.945 172.108 343.896 172.108C345.411 172.108 346.316 171.356 346.599 170.746L346.642 170.659L348.92 170.648L348.898 170.746C348.506 172.304 346.871 174.048 343.842 174.048ZM343.733 163.695C342.12 163.695 340.899 164.795 340.692 166.833H346.708C346.523 164.719 345.335 163.695 343.733 163.695Z" fill="#0F111A"/>
<path d="M185.302 212.646C180.845 212.646 178.033 209.463 178.033 204.406V204.385C178.033 199.393 180.877 196.156 185.28 196.156C188.855 196.156 191.394 198.183 191.961 201.224L191.983 201.333H189.541L189.509 201.224C188.942 199.36 187.438 198.314 185.28 198.314C182.37 198.314 180.528 200.668 180.528 204.374V204.395C180.528 208.155 182.381 210.488 185.335 210.488C187.907 210.488 189.661 208.864 189.683 206.444V206.096H185.64V204.123H192.092V206.074C192.092 210.063 189.422 212.646 185.302 212.646ZM200.157 212.493C196.691 212.493 194.598 210.128 194.598 206.379V206.368C194.598 202.674 196.734 200.2 200.037 200.2C203.339 200.2 205.366 202.586 205.366 206.139V206.968H196.974C197.018 209.234 198.26 210.553 200.211 210.553C201.726 210.553 202.631 209.801 202.914 209.191L202.957 209.104L205.235 209.093L205.213 209.191C204.821 210.749 203.186 212.493 200.157 212.493ZM200.048 202.14C198.435 202.14 197.214 203.24 197.007 205.278H203.023C202.838 203.164 201.65 202.14 200.048 202.14ZM208.178 212.264V200.428H210.543V202.227H210.717C211.295 200.962 212.428 200.2 214.15 200.2C216.798 200.2 218.259 201.78 218.259 204.603V212.264H215.905V205.158C215.905 203.197 215.087 202.227 213.355 202.227C211.622 202.227 210.543 203.415 210.543 205.322V212.264H208.178ZM226.531 212.493C223.065 212.493 220.973 210.128 220.973 206.379V206.368C220.973 202.674 223.109 200.2 226.411 200.2C229.713 200.2 231.74 202.586 231.74 206.139V206.968H223.348C223.392 209.234 224.634 210.553 226.585 210.553C228.1 210.553 229.005 209.801 229.288 209.191L229.332 209.104L231.609 209.093L231.588 209.191C231.195 210.749 229.561 212.493 226.531 212.493ZM226.422 202.14C224.809 202.14 223.588 203.24 223.381 205.278H229.397C229.212 203.164 228.024 202.14 226.422 202.14ZM234.552 212.264V200.428H236.917V202.216H237.091C237.516 200.962 238.617 200.221 240.197 200.221C240.579 200.221 240.993 200.276 241.233 200.33V202.51C240.808 202.423 240.404 202.368 239.958 202.368C238.149 202.368 236.917 203.48 236.917 205.191V212.264H234.552ZM246.649 212.46C244.393 212.46 242.726 211.087 242.726 208.94V208.918C242.726 206.804 244.317 205.573 247.14 205.398L250.344 205.213V204.167C250.344 202.87 249.526 202.15 247.924 202.15C246.617 202.15 245.756 202.63 245.472 203.469L245.461 203.513H243.184L243.194 203.436C243.478 201.497 245.341 200.2 248.033 200.2C251.009 200.2 252.687 201.682 252.687 204.167V212.264H250.344V210.586H250.159C249.461 211.785 248.219 212.46 246.649 212.46ZM245.08 208.842C245.08 209.932 246.006 210.575 247.281 210.575C249.047 210.575 250.344 209.42 250.344 207.894V206.88L247.456 207.066C245.821 207.164 245.08 207.752 245.08 208.82V208.842ZM260.49 212.34C257.886 212.34 256.818 211.425 256.818 209.147V202.292H254.965V200.428H256.818V197.442H259.226V200.428H261.765V202.292H259.226V208.58C259.226 209.856 259.706 210.379 260.872 210.379C261.231 210.379 261.438 210.368 261.765 210.335V212.221C261.384 212.286 260.948 212.34 260.49 212.34ZM269.362 212.493C265.896 212.493 263.803 210.128 263.803 206.379V206.368C263.803 202.674 265.94 200.2 269.242 200.2C272.544 200.2 274.571 202.586 274.571 206.139V206.968H266.179C266.223 209.234 267.465 210.553 269.416 210.553C270.931 210.553 271.836 209.801 272.119 209.191L272.163 209.104L274.44 209.093L274.419 209.191C274.026 210.749 272.391 212.493 269.362 212.493ZM269.253 202.14C267.64 202.14 266.419 203.24 266.212 205.278H272.228C272.043 203.164 270.855 202.14 269.253 202.14ZM290.112 212.646C286.167 212.646 283.737 210.302 283.737 206.848V196.538H286.178V206.662C286.178 208.94 287.606 210.488 290.112 210.488C292.619 210.488 294.036 208.94 294.036 206.662V196.538H296.477V206.848C296.477 210.302 294.068 212.646 290.112 212.646ZM300.139 212.264V200.428H302.504V202.227H302.678C303.256 200.962 304.389 200.2 306.111 200.2C308.759 200.2 310.22 201.78 310.22 204.603V212.264H307.866V205.158C307.866 203.197 307.048 202.227 305.316 202.227C303.583 202.227 302.504 203.415 302.504 205.322V212.264H300.139ZM314.754 198.314C313.936 198.314 313.271 197.649 313.271 196.843C313.271 196.025 313.936 195.361 314.754 195.361C315.56 195.361 316.236 196.025 316.236 196.843C316.236 197.649 315.56 198.314 314.754 198.314ZM313.566 212.264V200.428H315.92V212.264H313.566ZM323.832 212.34C321.227 212.34 320.159 211.425 320.159 209.147V202.292H318.307V200.428H320.159V197.442H322.568V200.428H325.107V202.292H322.568V208.58C322.568 209.856 323.047 210.379 324.213 210.379C324.573 210.379 324.78 210.368 325.107 210.335V212.221C324.726 212.286 324.29 212.34 323.832 212.34ZM338.229 212.264V198.641H333.281V196.538H345.607V198.641H340.67V212.264H338.229ZM351.165 212.493C347.7 212.493 345.607 210.128 345.607 206.379V206.368C345.607 202.674 347.743 200.2 351.045 200.2C354.348 200.2 356.375 202.586 356.375 206.139V206.968H347.983C348.027 209.234 349.269 210.553 351.22 210.553C352.735 210.553 353.639 209.801 353.923 209.191L353.966 209.104L356.244 209.093L356.222 209.191C355.83 210.749 354.195 212.493 351.165 212.493ZM351.056 202.14C349.443 202.14 348.223 203.24 348.016 205.278H354.032C353.846 203.164 352.658 202.14 351.056 202.14ZM363.491 212.493C360.636 212.493 358.827 211.153 358.598 209.169V209.158H360.963L360.974 209.169C361.268 210.063 362.129 210.662 363.535 210.662C364.995 210.662 366.009 209.997 366.009 209.027V209.006C366.009 208.264 365.453 207.763 364.08 207.447L362.195 207.011C359.96 206.499 358.925 205.485 358.925 203.752V203.742C358.925 201.682 360.843 200.2 363.524 200.2C366.227 200.2 367.96 201.551 368.167 203.48V203.491H365.911V203.469C365.682 202.641 364.843 202.02 363.513 202.02C362.216 202.02 361.279 202.663 361.279 203.611V203.633C361.279 204.374 361.824 204.831 363.154 205.147L365.028 205.573C367.306 206.107 368.396 207.077 368.396 208.788V208.809C368.396 211 366.303 212.493 363.491 212.493ZM375.6 212.34C372.995 212.34 371.927 211.425 371.927 209.147V202.292H370.074V200.428H371.927V197.442H374.335V200.428H376.875V202.292H374.335V208.58C374.335 209.856 374.815 210.379 375.981 210.379C376.341 210.379 376.548 210.368 376.875 210.335V212.221C376.493 212.286 376.057 212.34 375.6 212.34ZM383.763 212.493C380.907 212.493 379.098 211.153 378.869 209.169V209.158H381.234L381.245 209.169C381.539 210.063 382.4 210.662 383.806 210.662C385.267 210.662 386.28 209.997 386.28 209.027V209.006C386.28 208.264 385.724 207.763 384.351 207.447L382.466 207.011C380.231 206.499 379.196 205.485 379.196 203.752V203.742C379.196 201.682 381.114 200.2 383.795 200.2C386.498 200.2 388.231 201.551 388.438 203.48V203.491H386.182V203.469C385.953 202.641 385.114 202.02 383.784 202.02C382.487 202.02 381.55 202.663 381.55 203.611V203.633C381.55 204.374 382.095 204.831 383.425 205.147L385.299 205.573C387.577 206.107 388.667 207.077 388.667 208.788V208.809C388.667 211 386.574 212.493 383.763 212.493Z" fill="#0F111A"/>
<rect x="158" y="225.085" width="306" height="38.4446" rx="4" fill="#270741"/>
<path d="M178.676 252.307V236.581H188.659V238.684H181.117V243.283H188.255V245.31H181.117V250.204H188.659V252.307H178.676ZM191.002 252.307L194.936 246.411L190.969 240.471H193.705L196.255 244.7H196.44L198.969 240.471H201.584L197.672 246.313L201.628 252.307H198.936L196.342 248.035H196.168L193.574 252.307H191.002ZM204.08 256.252V240.471H206.445V242.335H206.619C207.306 241.038 208.603 240.264 210.259 240.264C213.246 240.264 215.164 242.651 215.164 246.378V246.4C215.164 250.149 213.267 252.503 210.259 252.503C208.636 252.503 207.251 251.708 206.619 250.433H206.445V256.252H204.08ZM209.595 250.487C211.567 250.487 212.755 248.94 212.755 246.4V246.378C212.755 243.828 211.567 242.291 209.595 242.291C207.622 242.291 206.401 243.85 206.401 246.378V246.4C206.401 248.929 207.622 250.487 209.595 250.487ZM218.117 252.307V235.829H220.482V252.307H218.117ZM227.25 252.503C224.994 252.503 223.327 251.13 223.327 248.983V248.961C223.327 246.847 224.918 245.615 227.741 245.441L230.945 245.256V244.21C230.945 242.913 230.127 242.193 228.525 242.193C227.217 242.193 226.356 242.673 226.073 243.512L226.062 243.556H223.784L223.795 243.479C224.079 241.539 225.942 240.243 228.634 240.243C231.609 240.243 233.288 241.725 233.288 244.21V252.307H230.945V250.629H230.759C230.062 251.828 228.819 252.503 227.25 252.503ZM225.681 248.885C225.681 249.975 226.607 250.618 227.882 250.618C229.648 250.618 230.945 249.463 230.945 247.937V246.923L228.057 247.109C226.422 247.207 225.681 247.795 225.681 248.863V248.885ZM237.854 238.357C237.037 238.357 236.372 237.692 236.372 236.886C236.372 236.068 237.037 235.404 237.854 235.404C238.661 235.404 239.336 236.068 239.336 236.886C239.336 237.692 238.661 238.357 237.854 238.357ZM236.666 252.307V240.471H239.02V252.307H236.666ZM242.464 252.307V240.471H244.829V242.27H245.004C245.581 241.005 246.715 240.243 248.437 240.243C251.085 240.243 252.545 241.823 252.545 244.646V252.307H250.191V245.201C250.191 243.24 249.374 242.27 247.641 242.27C245.908 242.27 244.829 243.458 244.829 245.365V252.307H242.464ZM266.931 252.536C263.476 252.536 261.362 250.182 261.362 246.357V246.335C261.362 242.586 263.466 240.243 266.92 240.243C269.896 240.243 271.672 241.921 271.999 244.22V244.275L269.732 244.286L269.721 244.253C269.46 243.087 268.501 242.215 266.931 242.215C264.959 242.215 263.771 243.785 263.771 246.335V246.357C263.771 248.972 264.98 250.563 266.931 250.563C268.413 250.563 269.329 249.888 269.71 248.613L269.732 248.558H271.999L271.977 248.656C271.552 250.956 269.863 252.536 266.931 252.536ZM279.693 252.536C276.217 252.536 274.092 250.215 274.092 246.4V246.378C274.092 242.575 276.228 240.243 279.693 240.243C283.148 240.243 285.284 242.564 285.284 246.378V246.4C285.284 250.215 283.159 252.536 279.693 252.536ZM279.693 250.563C281.72 250.563 282.876 249.016 282.876 246.4V246.378C282.876 243.752 281.72 242.215 279.693 242.215C277.655 242.215 276.511 243.752 276.511 246.378V246.4C276.511 249.027 277.655 250.563 279.693 250.563ZM292.423 252.503C289.447 252.503 287.518 250.117 287.518 246.4V246.378C287.518 242.629 289.415 240.264 292.423 240.264C294.047 240.264 295.431 241.071 296.063 242.346H296.248V235.829H298.602V252.307H296.248V250.443H296.063C295.376 251.74 294.079 252.503 292.423 252.503ZM293.098 250.487C295.071 250.487 296.281 248.929 296.281 246.4V246.378C296.281 243.85 295.06 242.291 293.098 242.291C291.115 242.291 289.927 243.839 289.927 246.378V246.4C289.927 248.94 291.115 250.487 293.098 250.487ZM307.092 252.536C303.626 252.536 301.534 250.171 301.534 246.422V246.411C301.534 242.717 303.67 240.243 306.972 240.243C310.274 240.243 312.301 242.629 312.301 246.182V247.01H303.91C303.953 249.277 305.196 250.596 307.147 250.596C308.661 250.596 309.566 249.844 309.849 249.234L309.893 249.147L312.171 249.136L312.149 249.234C311.757 250.792 310.122 252.536 307.092 252.536ZM306.983 242.182C305.37 242.182 304.149 243.283 303.942 245.321H309.958C309.773 243.207 308.585 242.182 306.983 242.182Z" fill="white"/>
<path d="M178.676 290.752V275.026H188.495V277.129H181.117V282.109H187.874V284.169H181.117V290.752H178.676ZM192.626 276.802C191.808 276.802 191.144 276.137 191.144 275.331C191.144 274.513 191.808 273.848 192.626 273.848C193.432 273.848 194.108 274.513 194.108 275.331C194.108 276.137 193.432 276.802 192.626 276.802ZM191.438 290.752V278.916H193.792V290.752H191.438ZM197.236 290.752V278.916H199.601V280.714H199.775C200.353 279.45 201.486 278.687 203.208 278.687C205.856 278.687 207.317 280.268 207.317 283.09V290.752H204.963V283.646C204.963 281.684 204.145 280.714 202.413 280.714C200.68 280.714 199.601 281.902 199.601 283.81V290.752H197.236ZM214.935 290.948C211.96 290.948 210.031 288.561 210.031 284.845V284.823C210.031 281.074 211.927 278.709 214.935 278.709C216.559 278.709 217.943 279.516 218.575 280.791H218.76V274.274H221.114V290.752H218.76V288.888H218.575C217.888 290.185 216.591 290.948 214.935 290.948ZM215.611 288.932C217.583 288.932 218.793 287.373 218.793 284.845V284.823C218.793 282.295 217.572 280.736 215.611 280.736C213.627 280.736 212.439 282.284 212.439 284.823V284.845C212.439 287.384 213.627 288.932 215.611 288.932ZM237.462 291.133C233.092 291.133 230.367 287.973 230.367 282.905V282.883C230.367 277.805 233.081 274.644 237.451 274.644C240.917 274.644 243.576 276.835 243.99 279.963L243.979 280.017H241.56V279.984C241.102 278.055 239.522 276.802 237.451 276.802C234.628 276.802 232.863 279.145 232.863 282.883V282.905C232.863 286.632 234.628 288.976 237.462 288.976C239.544 288.976 241.102 287.864 241.549 286.087L241.571 286.044H243.99V286.109C243.532 289.128 240.971 291.133 237.462 291.133ZM251.946 290.981C248.469 290.981 246.344 288.659 246.344 284.845V284.823C246.344 281.02 248.48 278.687 251.946 278.687C255.401 278.687 257.537 281.009 257.537 284.823V284.845C257.537 288.659 255.412 290.981 251.946 290.981ZM251.946 289.008C253.973 289.008 255.128 287.461 255.128 284.845V284.823C255.128 282.197 253.973 280.66 251.946 280.66C249.908 280.66 248.764 282.197 248.764 284.823V284.845C248.764 287.472 249.908 289.008 251.946 289.008ZM264.675 290.948C261.7 290.948 259.771 288.561 259.771 284.845V284.823C259.771 281.074 261.667 278.709 264.675 278.709C266.299 278.709 267.683 279.516 268.315 280.791H268.501V274.274H270.855V290.752H268.501V288.888H268.315C267.629 290.185 266.332 290.948 264.675 290.948ZM265.351 288.932C267.324 288.932 268.533 287.373 268.533 284.845V284.823C268.533 282.295 267.313 280.736 265.351 280.736C263.367 280.736 262.18 282.284 262.18 284.823V284.845C262.18 287.384 263.367 288.932 265.351 288.932ZM279.345 290.981C275.879 290.981 273.786 288.616 273.786 284.867V284.856C273.786 281.161 275.923 278.687 279.225 278.687C282.527 278.687 284.554 281.074 284.554 284.627V285.455H276.162C276.206 287.722 277.448 289.041 279.399 289.041C280.914 289.041 281.819 288.289 282.102 287.679L282.146 287.591L284.423 287.581L284.401 287.679C284.009 289.237 282.374 290.981 279.345 290.981ZM279.236 280.627C277.623 280.627 276.402 281.728 276.195 283.766H282.211C282.026 281.652 280.838 280.627 279.236 280.627ZM299.06 291.133C295.507 291.133 293.229 289.335 293.011 286.687L293 286.545H295.398L295.409 286.665C295.54 288.093 297.055 289.008 299.158 289.008C301.163 289.008 302.591 288.006 302.591 286.545V286.534C302.591 285.325 301.741 284.54 299.659 284.093L297.937 283.722C294.744 283.047 293.371 281.565 293.371 279.243V279.232C293.382 276.519 295.736 274.644 299.071 274.644C302.406 274.644 304.585 276.529 304.76 278.971L304.771 279.123H302.406L302.384 278.982C302.177 277.696 300.945 276.758 299.038 276.769C297.196 276.769 295.834 277.63 295.834 279.112V279.123C295.834 280.289 296.662 281.052 298.7 281.488L300.411 281.87C303.714 282.578 305.065 283.908 305.065 286.24V286.251C305.065 289.259 302.722 291.133 299.06 291.133ZM308.007 290.752V278.916H310.372V280.736H310.547C311.07 279.439 312.225 278.687 313.773 278.687C315.386 278.687 316.53 279.527 317.053 280.802H317.238C317.838 279.527 319.2 278.687 320.846 278.687C323.233 278.687 324.628 280.126 324.628 282.589V290.752H322.274V283.156C322.274 281.521 321.532 280.714 319.985 280.714C318.481 280.714 317.489 281.837 317.489 283.265V290.752H315.135V282.916C315.135 281.565 314.252 280.714 312.857 280.714C311.43 280.714 310.372 281.935 310.372 283.483V290.752H308.007ZM332.9 290.981C329.434 290.981 327.341 288.616 327.341 284.867V284.856C327.341 281.161 329.477 278.687 332.78 278.687C336.082 278.687 338.109 281.074 338.109 284.627V285.455H329.717C329.761 287.722 331.003 289.041 332.954 289.041C334.469 289.041 335.373 288.289 335.657 287.679L335.7 287.591L337.978 287.581L337.956 287.679C337.564 289.237 335.929 290.981 332.9 290.981ZM332.791 280.627C331.178 280.627 329.957 281.728 329.75 283.766H335.766C335.581 281.652 334.393 280.627 332.791 280.627ZM341.03 290.752V274.274H343.395V290.752H341.03ZM347.024 290.752V274.274H349.389V290.752H347.024ZM357.214 290.981C354.359 290.981 352.549 289.64 352.321 287.657V287.646H354.686L354.696 287.657C354.991 288.55 355.852 289.15 357.258 289.15C358.718 289.15 359.731 288.485 359.731 287.515V287.493C359.731 286.752 359.176 286.251 357.802 285.935L355.917 285.499C353.683 284.987 352.648 283.973 352.648 282.24V282.229C352.648 280.17 354.566 278.687 357.247 278.687C359.949 278.687 361.682 280.039 361.889 281.968V281.979H359.633V281.957C359.405 281.129 358.565 280.507 357.236 280.507C355.939 280.507 355.002 281.15 355.002 282.099V282.12C355.002 282.861 355.546 283.319 356.876 283.635L358.751 284.06C361.028 284.594 362.118 285.564 362.118 287.275V287.297C362.118 289.488 360.026 290.981 357.214 290.981Z" fill="#0F111A"/>
<mask id="path-13-inside-1_4582_14350" fill="white">
<path d="M158 301.974H464V342.419H158V301.974Z"/>
</mask>
<path d="M158 302.974H464V300.974H158V302.974Z" fill="#C9C9C9" mask="url(#path-13-inside-1_4582_14350)"/>
<path d="M187.25 322.946H182.75V327.446H181.25V322.946H176.75V321.446H181.25V316.946H182.75V321.446H187.25V322.946Z" fill="#A112FF"/>
<path d="M207.337 329.567C203.065 329.567 200.395 326.407 200.395 321.35V321.328C200.395 316.26 203.054 313.1 207.326 313.1C210.64 313.1 213.222 315.181 213.691 318.2L213.68 318.222H211.708L211.697 318.2C211.174 316.184 209.495 314.909 207.326 314.909C204.308 314.909 202.411 317.394 202.411 321.328V321.35C202.411 325.284 204.308 327.758 207.337 327.758C209.528 327.758 211.195 326.635 211.686 324.826L211.708 324.804H213.691V324.826C213.168 327.703 210.683 329.567 207.337 329.567ZM220.677 329.404C218.007 329.404 216.634 327.834 216.634 325.055V317.448H218.53V324.597C218.53 326.712 219.293 327.725 221.167 327.725C223.238 327.725 224.339 326.461 224.339 324.401V317.448H226.235V329.197H224.339V327.442H224.164C223.587 328.695 222.399 329.404 220.677 329.404ZM233.81 329.404C231.194 329.404 229.396 328.139 229.178 326.199H231.118C231.434 327.18 232.371 327.823 233.875 327.823C235.455 327.823 236.578 327.071 236.578 326.003V325.981C236.578 325.186 235.978 324.63 234.529 324.281L232.709 323.845C230.507 323.322 229.516 322.363 229.516 320.674V320.663C229.516 318.712 231.39 317.241 233.886 317.241C236.349 317.241 238.06 318.472 238.322 320.391H236.458C236.207 319.464 235.292 318.821 233.875 318.821C232.48 318.821 231.456 319.541 231.456 320.576V320.598C231.456 321.393 232.044 321.895 233.428 322.232L235.237 322.668C237.45 323.202 238.518 324.161 238.518 325.84V325.862C238.518 327.954 236.48 329.404 233.81 329.404ZM245.525 329.284C243.106 329.284 242.092 328.39 242.092 326.145V319.017H240.24V317.448H242.092V314.407H244.054V317.448H246.626V319.017H244.054V325.665C244.054 327.05 244.534 327.605 245.754 327.605C246.092 327.605 246.277 327.594 246.626 327.562V329.175C246.256 329.24 245.896 329.284 245.525 329.284ZM254.113 329.404C250.768 329.404 248.697 327.093 248.697 323.333V323.311C248.697 319.541 250.768 317.241 254.113 317.241C257.459 317.241 259.53 319.541 259.53 323.311V323.333C259.53 327.093 257.459 329.404 254.113 329.404ZM254.113 327.725C256.337 327.725 257.59 326.101 257.59 323.333V323.311C257.59 320.532 256.337 318.919 254.113 318.919C251.89 318.919 250.637 320.532 250.637 323.311V323.333C250.637 326.101 251.89 327.725 254.113 327.725ZM262.472 329.197V317.448H264.369V319.235H264.543C265.066 317.971 266.178 317.241 267.715 317.241C269.306 317.241 270.417 318.08 270.962 319.301H271.137C271.769 318.058 273.109 317.241 274.733 317.241C277.131 317.241 278.471 318.614 278.471 321.077V329.197H276.575V321.513C276.575 319.78 275.779 318.919 274.123 318.919C272.488 318.919 271.409 320.151 271.409 321.644V329.197H269.513V321.219C269.513 319.824 268.554 318.919 267.072 318.919C265.535 318.919 264.369 320.26 264.369 321.916V329.197H262.472ZM294.743 329.567C290.471 329.567 287.8 326.407 287.8 321.35V321.328C287.8 316.26 290.46 313.1 294.732 313.1C298.045 313.1 300.628 315.181 301.097 318.2L301.086 318.222H299.113L299.102 318.2C298.579 316.184 296.901 314.909 294.732 314.909C291.713 314.909 289.817 317.394 289.817 321.328V321.35C289.817 325.284 291.713 327.758 294.743 327.758C296.933 327.758 298.601 326.635 299.091 324.826L299.113 324.804H301.097V324.826C300.573 327.703 298.089 329.567 294.743 329.567ZM308.976 329.404C305.63 329.404 303.56 327.093 303.56 323.333V323.311C303.56 319.541 305.63 317.241 308.976 317.241C312.322 317.241 314.393 319.541 314.393 323.311V323.333C314.393 327.093 312.322 329.404 308.976 329.404ZM308.976 327.725C311.199 327.725 312.453 326.101 312.453 323.333V323.311C312.453 320.532 311.199 318.919 308.976 318.919C306.753 318.919 305.5 320.532 305.5 323.311V323.333C305.5 326.101 306.753 327.725 308.976 327.725ZM317.335 329.197V317.448H319.232V319.235H319.406C319.929 317.971 321.041 317.241 322.577 317.241C324.169 317.241 325.28 318.08 325.825 319.301H325.999C326.632 318.058 327.972 317.241 329.596 317.241C331.994 317.241 333.334 318.614 333.334 321.077V329.197H331.438V321.513C331.438 319.78 330.642 318.919 328.986 318.919C327.351 318.919 326.272 320.151 326.272 321.644V329.197H324.376V321.219C324.376 319.824 323.417 318.919 321.934 318.919C320.398 318.919 319.232 320.26 319.232 321.916V329.197H317.335ZM336.756 329.197V317.448H338.653V319.235H338.827C339.35 317.971 340.462 317.241 341.998 317.241C343.59 317.241 344.701 318.08 345.246 319.301H345.42C346.053 318.058 347.393 317.241 349.017 317.241C351.415 317.241 352.755 318.614 352.755 321.077V329.197H350.859V321.513C350.859 319.78 350.063 318.919 348.407 318.919C346.772 318.919 345.693 320.151 345.693 321.644V329.197H343.797V321.219C343.797 319.824 342.838 318.919 341.355 318.919C339.819 318.919 338.653 320.26 338.653 321.916V329.197H336.756ZM359.403 329.404C357.169 329.404 355.48 328.052 355.48 325.916V325.894C355.48 323.802 357.027 322.592 359.763 322.429L363.13 322.222V321.153C363.13 319.704 362.248 318.919 360.493 318.919C359.087 318.919 358.161 319.442 357.856 320.358L357.845 320.391H355.948L355.959 320.325C356.264 318.483 358.052 317.241 360.558 317.241C363.425 317.241 365.027 318.712 365.027 321.153V329.197H363.13V327.464H362.956C362.215 328.717 360.983 329.404 359.403 329.404ZM357.42 325.873C357.42 327.06 358.433 327.758 359.796 327.758C361.725 327.758 363.13 326.494 363.13 324.815V323.747L359.992 323.943C358.204 324.052 357.42 324.685 357.42 325.851V325.873ZM368.492 329.197V317.448H370.389V319.214H370.563C371.152 317.971 372.252 317.241 373.985 317.241C376.623 317.241 378.094 318.799 378.094 321.589V329.197H376.198V322.047C376.198 319.933 375.326 318.919 373.451 318.919C371.577 318.919 370.389 320.184 370.389 322.243V329.197H368.492ZM385.865 329.404C382.889 329.404 380.939 326.995 380.939 323.333V323.311C380.939 319.628 382.878 317.241 385.865 317.241C387.478 317.241 388.883 318.047 389.526 319.301H389.701V312.783H391.597V329.197H389.701V327.322H389.526C388.807 328.63 387.499 329.404 385.865 329.404ZM386.301 327.725C388.437 327.725 389.744 326.047 389.744 323.333V323.311C389.744 320.598 388.437 318.919 386.301 318.919C384.154 318.919 382.878 320.576 382.878 323.311V323.333C382.878 326.069 384.154 327.725 386.301 327.725ZM399.27 329.404C396.654 329.404 394.856 328.139 394.638 326.199H396.578C396.894 327.18 397.831 327.823 399.335 327.823C400.915 327.823 402.038 327.071 402.038 326.003V325.981C402.038 325.186 401.438 324.63 399.989 324.281L398.169 323.845C395.967 323.322 394.976 322.363 394.976 320.674V320.663C394.976 318.712 396.85 317.241 399.346 317.241C401.809 317.241 403.52 318.472 403.782 320.391H401.918C401.667 319.464 400.752 318.821 399.335 318.821C397.94 318.821 396.916 319.541 396.916 320.576V320.598C396.916 321.393 397.504 321.895 398.888 322.232L400.697 322.668C402.91 323.202 403.978 324.161 403.978 325.84V325.862C403.978 327.954 401.94 329.404 399.27 329.404Z" fill="#0F111A"/>
<path opacity="0.3" d="M178.18 28.8036C178.18 26.0254 180.432 23.7732 183.21 23.7732H271.702C274.48 23.7732 276.732 26.0254 276.732 28.8036V52.5002C276.732 55.2784 274.48 57.5306 271.702 57.5306H183.21C180.432 57.5306 178.18 55.2784 178.18 52.5002V28.8036Z" fill="#4CE6FF"/>
<defs>
<clipPath id="clip0_4582_14350">
<rect y="0.152344" width="549" height="249" rx="8" fill="white"/>
</clipPath>
</defs>
</svg>
