<svg width="24" height="24" viewBox="0 0 24 24" fill="none" xmlns="http://www.w3.org/2000/svg">
<g filter="url(#filter0_d_7057_61066)">
<path d="M2 11C2 5.47715 6.47715 1 12 1C17.5228 1 22 5.47715 22 11C22 16.5228 17.5228 21 12 21C6.47715 21 2 16.5228 2 11Z" fill="#1C7ED6"/>
<path d="M2.5 11C2.5 5.7533 6.7533 1.5 12 1.5C17.2467 1.5 21.5 5.7533 21.5 11C21.5 16.2467 17.2467 20.5 12 20.5C6.7533 20.5 2.5 16.2467 2.5 11Z" stroke="#1971C2"/>
<path d="M10.667 8.33301L14.667 10.9997L10.667 13.6663V8.33301Z" fill="#F9FAFB" stroke="#F9FAFB" stroke-width="1.75" stroke-linecap="round" stroke-linejoin="round"/>
</g>
<defs>
<filter id="filter0_d_7057_61066" x="0" y="0" width="24" height="24" filterUnits="userSpaceOnUse" color-interpolation-filters="sRGB">
<feFlood flood-opacity="0" result="BackgroundImageFix"/>
<feColorMatrix in="SourceAlpha" type="matrix" values="0 0 0 0 0 0 0 0 0 0 0 0 0 0 0 0 0 0 127 0" result="hardAlpha"/>
<feOffset dy="1"/>
<feGaussianBlur stdDeviation="1"/>
<feComposite in2="hardAlpha" operator="out"/>
<feColorMatrix type="matrix" values="0 0 0 0 0.0588235 0 0 0 0 0.0666667 0 0 0 0 0.101961 0 0 0 0.05 0"/>
<feBlend mode="normal" in2="BackgroundImageFix" result="effect1_dropShadow_7057_61066"/>
<feBlend mode="normal" in="SourceGraphic" in2="effect1_dropShadow_7057_61066" result="shape"/>
</filter>
</defs>
</svg>
