<svg width="12" height="12" viewBox="0 0 12 12" fill="none" xmlns="http://www.w3.org/2000/svg">
<g clip-path="url(#clip0_7301_1943)">
<path d="M10.3352 1.58685C9.22675 -0.00976417 7.01997 -0.477561 5.43353 0.529219L2.63692 2.31905C1.8742 2.79702 1.34539 3.58007 1.19285 4.46481C1.06064 5.20719 1.17251 5.9699 1.52844 6.63091C1.28437 6.99702 1.12166 7.4038 1.05048 7.83091C0.887763 8.736 1.10132 9.67159 1.63014 10.414C2.74878 12.0106 4.94539 12.4784 6.53183 11.4716L9.32844 9.69193C10.0912 9.21397 10.62 8.43091 10.7725 7.54617C10.9047 6.8038 10.7928 6.04108 10.4369 5.38007C10.681 5.01396 10.8437 4.60718 10.9149 4.18007C11.0878 3.26481 10.8742 2.32922 10.3352 1.58685Z" fill="#FF3E00"/>
<path d="M5.15964 10.5665C4.25456 10.8004 3.3088 10.4445 2.77998 9.6818C2.45456 9.23434 2.33253 8.67502 2.42405 8.12587C2.44439 8.03434 2.46473 7.95299 2.48507 7.86146L2.53592 7.69875L2.67829 7.80044C3.01388 8.04451 3.37998 8.22756 3.77659 8.3496L3.87829 8.38011L3.86812 8.4818C3.85795 8.62417 3.89863 8.77672 3.97998 8.89875C4.1427 9.13265 4.42744 9.24451 4.70202 9.17333C4.76303 9.15299 4.82405 9.13265 4.8749 9.10214L7.66134 7.32248C7.80371 7.23095 7.89524 7.09875 7.92575 6.93604C7.95625 6.77333 7.91558 6.60044 7.82405 6.46824C7.66134 6.23434 7.37659 6.13265 7.10202 6.20383C7.041 6.22417 6.97998 6.24451 6.92914 6.27502L5.86134 6.95638C5.68846 7.06824 5.49524 7.1496 5.29185 7.20045C4.38676 7.43434 3.441 7.07841 2.91219 6.3157C2.59693 5.86824 2.46473 5.30892 2.56642 4.75977C2.65795 4.23095 2.98337 3.75299 3.441 3.46824L6.23761 1.68858C6.41049 1.57672 6.60371 1.49536 6.8071 1.43434C7.71219 1.20044 8.65795 1.55638 9.18676 2.31909C9.51219 2.76655 9.63422 3.32587 9.5427 3.87502C9.52236 3.96655 9.50202 4.0479 9.47151 4.13943L9.42066 4.30214L9.27829 4.20044C8.9427 3.95638 8.57659 3.77333 8.17998 3.65129L8.07829 3.62078L8.08846 3.51909C8.09863 3.37672 8.05795 3.22417 7.97659 3.10214C7.81388 2.86824 7.52914 2.76655 7.25456 2.83773C7.19354 2.85807 7.13253 2.87841 7.08168 2.90892L4.29524 4.68858C4.15286 4.78011 4.06134 4.91231 4.03083 5.07502C4.00032 5.23773 4.041 5.41061 4.13253 5.54282C4.29524 5.77672 4.57998 5.87841 4.85456 5.80722C4.91558 5.78689 4.97659 5.76655 5.02744 5.73604L6.09524 5.05468C6.26812 4.94282 6.46134 4.86146 6.66473 4.80044C7.56981 4.56655 8.51558 4.92248 9.04439 5.68519C9.36981 6.13265 9.49185 6.69197 9.40032 7.24112C9.3088 7.76994 8.98337 8.2479 8.52575 8.53265L5.72914 10.3123C5.55625 10.4242 5.36303 10.5055 5.15964 10.5665Z" fill="white"/>
</g>
<defs>
<clipPath id="clip0_7301_1943">
<rect width="9.97627" height="12" fill="white" transform="translate(1)"/>
</clipPath>
</defs>
</svg>
