<svg width="20" height="20" viewBox="0 0 20 20" fill="none" xmlns="http://www.w3.org/2000/svg">
<g clip-path="url(#clip0_2_145)">
<path d="M5.83334 17.2183V15.8333C5.83334 15.3913 6.00893 14.9674 6.32149 14.6548C6.63405 14.3423 7.05798 14.1667 7.50001 14.1667H12.5C12.942 14.1667 13.366 14.3423 13.6785 14.6548C13.9911 14.9674 14.1667 15.3913 14.1667 15.8333V17.2183M18.3333 10C18.3333 14.6024 14.6024 18.3333 10 18.3333C5.39763 18.3333 1.66667 14.6024 1.66667 10C1.66667 5.39763 5.39763 1.66667 10 1.66667C14.6024 1.66667 18.3333 5.39763 18.3333 10ZM12.5 8.33334C12.5 9.71405 11.3807 10.8333 10 10.8333C8.61929 10.8333 7.50001 9.71405 7.50001 8.33334C7.50001 6.95263 8.61929 5.83334 10 5.83334C11.3807 5.83334 12.5 6.95263 12.5 8.33334Z" stroke="#5E6E8C" stroke-width="1.5" stroke-linecap="round" stroke-linejoin="round"/>
</g>
<defs>
<clipPath id="clip0_2_145">
<rect width="20" height="20" fill="white"/>
</clipPath>
</defs>
</svg>
