<svg width="238" height="237" viewBox="0 0 238 237" fill="none" xmlns="http://www.w3.org/2000/svg">
<path d="M119 -5.1798e-06C184.446 -8.04052e-06 237.5 53.0542 237.5 118.5C237.5 183.946 184.446 237 119 237C53.5543 237 0.499998 183.946 0.499995 118.5C0.499992 53.0543 53.5542 -2.31908e-06 119 -5.1798e-06ZM119 213.3C171.357 213.3 213.8 170.857 213.8 118.5C213.8 66.1434 171.357 23.7 119 23.7C66.6434 23.7 24.2 66.1434 24.2 118.5C24.2 170.857 66.6434 213.3 119 213.3Z" fill="#270741"/>
<path d="M119 -5.1798e-06C136.443 -5.94227e-06 153.672 3.85096 169.455 11.278C185.238 18.705 199.187 29.5249 210.306 42.9652L192.045 58.0722C183.15 47.3199 171.99 38.664 159.364 32.7224C146.737 26.7808 132.955 23.7 119 23.7L119 -5.1798e-06Z" fill="#A112FF"/>
<path d="M71.0179 144V137.232H81.2419V107.136H72.8179V101.952C75.0739 101.52 77.0419 101.016 78.7219 100.44C80.4019 99.816 81.9619 99.072 83.4019 98.208H89.5939V137.232H98.5939V144H71.0179ZM112.108 125.784H124.132V115.416C124.132 114.072 124.18 112.488 124.276 110.664C124.372 108.84 124.444 107.256 124.492 105.912H124.204C123.628 107.112 123.028 108.288 122.404 109.44C121.78 110.592 121.132 111.792 120.46 113.04L112.108 125.784ZM124.132 144V132.192H103.9V126.576L122.044 98.208H131.908V125.784H137.668V132.192H131.908V144H124.132ZM146.772 112.172C144.978 112.172 143.509 111.47 142.365 110.066C141.247 108.636 140.688 106.634 140.688 104.06C140.688 101.512 141.247 99.536 142.365 98.132C143.509 96.728 144.978 96.026 146.772 96.026C148.566 96.026 150.022 96.728 151.14 98.132C152.284 99.536 152.856 101.512 152.856 104.06C152.856 106.634 152.284 108.636 151.14 110.066C150.022 111.47 148.566 112.172 146.772 112.172ZM146.772 109.559C147.604 109.559 148.28 109.117 148.8 108.233C149.346 107.349 149.619 105.958 149.619 104.06C149.619 102.136 149.346 100.758 148.8 99.926C148.28 99.068 147.604 98.639 146.772 98.639C145.966 98.639 145.29 99.068 144.744 99.926C144.198 100.758 143.925 102.136 143.925 104.06C143.925 105.958 144.198 107.349 144.744 108.233C145.29 109.117 145.966 109.559 146.772 109.559ZM147.591 122.468L161.514 96.026H164.244L150.36 122.468H147.591ZM165.063 122.468C163.269 122.468 161.8 121.766 160.656 120.362C159.538 118.932 158.979 116.93 158.979 114.356C158.979 111.808 159.538 109.832 160.656 108.428C161.8 107.024 163.269 106.322 165.063 106.322C166.857 106.322 168.313 107.024 169.431 108.428C170.575 109.832 171.147 111.808 171.147 114.356C171.147 116.93 170.575 118.932 169.431 120.362C168.313 121.766 166.857 122.468 165.063 122.468ZM165.063 119.855C165.895 119.855 166.571 119.413 167.091 118.529C167.637 117.645 167.91 116.254 167.91 114.356C167.91 112.432 167.637 111.054 167.091 110.222C166.571 109.364 165.895 108.935 165.063 108.935C164.257 108.935 163.581 109.364 163.035 110.222C162.489 111.054 162.216 112.432 162.216 114.356C162.216 116.254 162.489 117.645 163.035 118.529C163.581 119.413 164.257 119.855 165.063 119.855Z" fill="#CE9CFF"/>
</svg>
