<svg width="238" height="237" viewBox="0 0 238 237" fill="none" xmlns="http://www.w3.org/2000/svg">
<path d="M119 -5.1798e-06C184.446 -8.04052e-06 237.5 53.0542 237.5 118.5C237.5 183.946 184.446 237 119 237C53.5543 237 0.499998 183.946 0.499995 118.5C0.499992 53.0543 53.5542 -2.31908e-06 119 -5.1798e-06ZM119 213.3C171.357 213.3 213.8 170.857 213.8 118.5C213.8 66.1434 171.357 23.7 119 23.7C66.6434 23.7 24.2 66.1434 24.2 118.5C24.2 170.857 66.6434 213.3 119 213.3Z" fill="#270741"/>
<path d="M119 -5.1798e-06C144.025 -6.27367e-06 168.407 7.92231 188.653 22.6315C208.898 37.3407 223.967 58.0815 231.7 81.8815L209.16 89.2052C202.974 70.1652 190.918 53.5725 174.722 41.8052C158.526 30.0378 139.02 23.7 119 23.7L119 -5.1798e-06Z" fill="#A112FF"/>
<path d="M68.4259 144V139.176C72.6979 135.048 76.3699 131.376 79.4419 128.16C82.5619 124.896 84.9619 121.944 86.6419 119.304C88.3219 116.616 89.1619 114.12 89.1619 111.816C89.1619 109.416 88.5139 107.496 87.2179 106.056C85.9219 104.616 84.0499 103.896 81.6019 103.896C79.8259 103.896 78.1939 104.4 76.7059 105.408C75.2659 106.416 73.9219 107.616 72.6739 109.008L68.0659 104.4C70.1779 102.144 72.3619 100.416 74.6179 99.216C76.8739 97.968 79.5619 97.344 82.6819 97.344C87.0979 97.344 90.6019 98.616 93.1939 101.16C95.8339 103.704 97.1539 107.112 97.1539 111.384C97.1539 114.072 96.3859 116.832 94.8499 119.664C93.3619 122.448 91.3459 125.304 88.8019 128.232C86.3059 131.16 83.5459 134.232 80.5219 137.448C81.7219 137.352 83.0179 137.256 84.4099 137.16C85.8019 137.016 87.0499 136.944 88.1539 136.944H99.3859V144H68.4259ZM121.036 144.864C116.284 144.864 112.492 142.8 109.66 138.672C106.876 134.544 105.484 128.616 105.484 120.888C105.484 113.16 106.876 107.304 109.66 103.32C112.492 99.336 116.284 97.344 121.036 97.344C125.788 97.344 129.556 99.336 132.34 103.32C135.172 107.304 136.588 113.16 136.588 120.888C136.588 128.616 135.172 134.544 132.34 138.672C129.556 142.8 125.788 144.864 121.036 144.864ZM121.036 138.384C122.524 138.384 123.844 137.832 124.996 136.728C126.148 135.576 127.036 133.728 127.66 131.184C128.332 128.64 128.668 125.208 128.668 120.888C128.668 116.568 128.332 113.16 127.66 110.664C127.036 108.168 126.148 106.416 124.996 105.408C123.844 104.352 122.524 103.824 121.036 103.824C119.596 103.824 118.3 104.352 117.148 105.408C115.996 106.416 115.084 108.168 114.412 110.664C113.74 113.16 113.404 116.568 113.404 120.888C113.404 125.208 113.74 128.64 114.412 131.184C115.084 133.728 115.996 135.576 117.148 136.728C118.3 137.832 119.596 138.384 121.036 138.384ZM146.772 112.172C144.978 112.172 143.509 111.47 142.365 110.066C141.247 108.636 140.688 106.634 140.688 104.06C140.688 101.512 141.247 99.536 142.365 98.132C143.509 96.728 144.978 96.026 146.772 96.026C148.566 96.026 150.022 96.728 151.14 98.132C152.284 99.536 152.856 101.512 152.856 104.06C152.856 106.634 152.284 108.636 151.14 110.066C150.022 111.47 148.566 112.172 146.772 112.172ZM146.772 109.559C147.604 109.559 148.28 109.117 148.8 108.233C149.346 107.349 149.619 105.958 149.619 104.06C149.619 102.136 149.346 100.758 148.8 99.926C148.28 99.068 147.604 98.639 146.772 98.639C145.966 98.639 145.29 99.068 144.744 99.926C144.198 100.758 143.925 102.136 143.925 104.06C143.925 105.958 144.198 107.349 144.744 108.233C145.29 109.117 145.966 109.559 146.772 109.559ZM147.591 122.468L161.514 96.026H164.244L150.36 122.468H147.591ZM165.063 122.468C163.269 122.468 161.8 121.766 160.656 120.362C159.538 118.932 158.979 116.93 158.979 114.356C158.979 111.808 159.538 109.832 160.656 108.428C161.8 107.024 163.269 106.322 165.063 106.322C166.857 106.322 168.313 107.024 169.431 108.428C170.575 109.832 171.147 111.808 171.147 114.356C171.147 116.93 170.575 118.932 169.431 120.362C168.313 121.766 166.857 122.468 165.063 122.468ZM165.063 119.855C165.895 119.855 166.571 119.413 167.091 118.529C167.637 117.645 167.91 116.254 167.91 114.356C167.91 112.432 167.637 111.054 167.091 110.222C166.571 109.364 165.895 108.935 165.063 108.935C164.257 108.935 163.581 109.364 163.035 110.222C162.489 111.054 162.216 112.432 162.216 114.356C162.216 116.254 162.489 117.645 163.035 118.529C163.581 119.413 164.257 119.855 165.063 119.855Z" fill="#CE9CFF"/>
</svg>
