<svg width="238" height="237" viewBox="0 0 238 237" fill="none" xmlns="http://www.w3.org/2000/svg">
<path d="M119 -5.1798e-06C184.446 -8.04052e-06 237.5 53.0542 237.5 118.5C237.5 183.946 184.446 237 119 237C53.5543 237 0.499998 183.946 0.499995 118.5C0.499992 53.0543 53.5542 -2.31908e-06 119 -5.1798e-06ZM119 213.3C171.357 213.3 213.8 170.857 213.8 118.5C213.8 66.1434 171.357 23.7 119 23.7C66.6434 23.7 24.2 66.1434 24.2 118.5C24.2 170.857 66.6434 213.3 119 213.3Z" fill="#270741"/>
<path d="M119 -5.1798e-06C143.072 -6.232e-06 166.572 7.33091 186.375 21.0171C206.177 34.7033 221.341 54.0956 229.85 76.6132C238.359 99.1308 239.808 123.706 234.005 147.067C228.202 170.429 215.422 191.469 197.365 207.388C179.309 223.307 156.833 233.349 132.928 236.179C109.023 239.008 84.8239 234.49 63.5503 223.226C42.2767 211.962 24.9379 194.487 13.8415 173.125C2.74512 151.764 -1.58257 127.53 1.4344 103.648L24.9475 106.618C22.5339 125.724 25.9961 145.111 34.8732 162.2C43.7503 179.29 57.6213 193.27 74.6402 202.281C91.6592 211.292 111.019 214.906 130.143 212.643C149.266 210.379 167.247 202.346 181.692 189.611C196.137 176.875 206.362 160.043 211.004 141.354C215.646 122.665 214.487 103.005 207.68 84.9906C200.873 66.9765 188.741 51.4626 172.9 40.5137C157.058 29.5647 138.257 23.7 119 23.7L119 -5.1798e-06Z" fill="#A112FF"/>
<path d="M77.7859 144C78.0739 138.576 78.6499 133.728 79.5139 129.456C80.3779 125.136 81.6979 121.032 83.4739 117.144C85.2499 113.256 87.6019 109.272 90.5299 105.192H68.8579V98.208H99.6019V103.248C96.9139 106.56 94.7299 109.728 93.0499 112.752C91.4179 115.776 90.1219 118.848 89.1619 121.968C88.2499 125.04 87.5779 128.376 87.1459 131.976C86.7139 135.528 86.4019 139.536 86.2099 144H77.7859ZM114.7 144C114.988 138.576 115.564 133.728 116.428 129.456C117.292 125.136 118.612 121.032 120.388 117.144C122.164 113.256 124.516 109.272 127.444 105.192H105.772V98.208H136.516V103.248C133.828 106.56 131.644 109.728 129.964 112.752C128.332 115.776 127.036 118.848 126.076 121.968C125.164 125.04 124.492 128.376 124.06 131.976C123.628 135.528 123.316 139.536 123.124 144H114.7ZM146.772 112.172C144.978 112.172 143.509 111.47 142.365 110.066C141.247 108.636 140.688 106.634 140.688 104.06C140.688 101.512 141.247 99.536 142.365 98.132C143.509 96.728 144.978 96.026 146.772 96.026C148.566 96.026 150.022 96.728 151.14 98.132C152.284 99.536 152.856 101.512 152.856 104.06C152.856 106.634 152.284 108.636 151.14 110.066C150.022 111.47 148.566 112.172 146.772 112.172ZM146.772 109.559C147.604 109.559 148.28 109.117 148.8 108.233C149.346 107.349 149.619 105.958 149.619 104.06C149.619 102.136 149.346 100.758 148.8 99.926C148.28 99.068 147.604 98.639 146.772 98.639C145.966 98.639 145.29 99.068 144.744 99.926C144.198 100.758 143.925 102.136 143.925 104.06C143.925 105.958 144.198 107.349 144.744 108.233C145.29 109.117 145.966 109.559 146.772 109.559ZM147.591 122.468L161.514 96.026H164.244L150.36 122.468H147.591ZM165.063 122.468C163.269 122.468 161.8 121.766 160.656 120.362C159.538 118.932 158.979 116.93 158.979 114.356C158.979 111.808 159.538 109.832 160.656 108.428C161.8 107.024 163.269 106.322 165.063 106.322C166.857 106.322 168.313 107.024 169.431 108.428C170.575 109.832 171.147 111.808 171.147 114.356C171.147 116.93 170.575 118.932 169.431 120.362C168.313 121.766 166.857 122.468 165.063 122.468ZM165.063 119.855C165.895 119.855 166.571 119.413 167.091 118.529C167.637 117.645 167.91 116.254 167.91 114.356C167.91 112.432 167.637 111.054 167.091 110.222C166.571 109.364 165.895 108.935 165.063 108.935C164.257 108.935 163.581 109.364 163.035 110.222C162.489 111.054 162.216 112.432 162.216 114.356C162.216 116.254 162.489 117.645 163.035 118.529C163.581 119.413 164.257 119.855 165.063 119.855Z" fill="#CE9CFF"/>
</svg>
