<svg width="238" height="237" viewBox="0 0 238 237" fill="none" xmlns="http://www.w3.org/2000/svg">
<path d="M119 -5.1798e-06C184.446 -8.04052e-06 237.5 53.0542 237.5 118.5C237.5 183.946 184.446 237 119 237C53.5543 237 0.499998 183.946 0.499995 118.5C0.499992 53.0543 53.5542 -2.31908e-06 119 -5.1798e-06ZM119 213.3C171.357 213.3 213.8 170.857 213.8 118.5C213.8 66.1434 171.357 23.7 119 23.7C66.6434 23.7 24.2 66.1434 24.2 118.5C24.2 170.857 66.6434 213.3 119 213.3Z" fill="#270741"/>
<path d="M119 -5.1798e-06C141.803 -6.17656e-06 164.122 6.57943 183.279 18.9489C202.436 31.3184 217.617 48.9525 227.001 69.7355C236.385 90.5186 239.573 113.568 236.183 136.118C232.793 158.668 222.968 179.76 207.888 196.865C192.808 213.97 173.113 226.361 151.166 232.551C129.219 238.741 105.951 238.467 84.1562 231.761C62.361 225.056 42.9632 212.205 28.2902 194.75C13.6173 177.294 4.29242 155.976 1.4344 133.352L24.9475 130.382C27.2339 148.48 34.6938 165.535 46.4322 179.5C58.1705 193.464 73.6888 203.745 91.125 209.109C108.561 214.473 127.175 214.693 144.733 209.741C162.29 204.789 178.046 194.876 190.111 181.192C202.175 167.508 210.034 150.634 212.746 132.594C215.459 114.554 212.908 96.1149 205.401 79.4884C197.894 62.862 185.749 48.7547 170.423 38.8591C155.098 28.9635 137.243 23.7 119 23.7L119 -5.1798e-06Z" fill="#A112FF"/>
<path d="M77.7859 144C78.0739 138.576 78.6499 133.728 79.5139 129.456C80.3779 125.136 81.6979 121.032 83.4739 117.144C85.2499 113.256 87.6019 109.272 90.5299 105.192H68.8579V98.208H99.6019V103.248C96.9139 106.56 94.7299 109.728 93.0499 112.752C91.4179 115.776 90.1219 118.848 89.1619 121.968C88.2499 125.04 87.5779 128.376 87.1459 131.976C86.7139 135.528 86.4019 139.536 86.2099 144H77.7859ZM119.884 144.864C116.188 144.864 113.068 144.24 110.524 142.992C108.028 141.696 105.964 140.16 104.332 138.384L108.292 133.056C109.684 134.448 111.268 135.648 113.044 136.656C114.82 137.616 116.86 138.096 119.164 138.096C121.66 138.096 123.676 137.496 125.212 136.296C126.796 135.048 127.588 133.344 127.588 131.184C127.588 129.6 127.18 128.232 126.364 127.08C125.596 125.88 124.228 124.968 122.26 124.344C120.34 123.72 117.628 123.408 114.124 123.408V117.36C118.636 117.36 121.756 116.664 123.484 115.272C125.212 113.88 126.076 112.128 126.076 110.016C126.076 108.096 125.476 106.608 124.276 105.552C123.076 104.448 121.42 103.896 119.308 103.896C117.532 103.896 115.9 104.304 114.412 105.12C112.924 105.888 111.484 106.92 110.092 108.216L105.844 103.104C107.812 101.376 109.9 99.984 112.108 98.928C114.364 97.872 116.86 97.344 119.596 97.344C124.012 97.344 127.588 98.4 130.324 100.512C133.06 102.576 134.428 105.552 134.428 109.44C134.428 111.984 133.708 114.144 132.268 115.92C130.876 117.648 128.932 118.992 126.436 119.952V120.24C129.124 120.96 131.38 122.28 133.204 124.2C135.028 126.12 135.94 128.592 135.94 131.616C135.94 134.4 135.196 136.776 133.708 138.744C132.268 140.712 130.324 142.224 127.876 143.28C125.476 144.336 122.812 144.864 119.884 144.864ZM146.772 112.172C144.978 112.172 143.509 111.47 142.365 110.066C141.247 108.636 140.688 106.634 140.688 104.06C140.688 101.512 141.247 99.536 142.365 98.132C143.509 96.728 144.978 96.026 146.772 96.026C148.566 96.026 150.022 96.728 151.14 98.132C152.284 99.536 152.856 101.512 152.856 104.06C152.856 106.634 152.284 108.636 151.14 110.066C150.022 111.47 148.566 112.172 146.772 112.172ZM146.772 109.559C147.604 109.559 148.28 109.117 148.8 108.233C149.346 107.349 149.619 105.958 149.619 104.06C149.619 102.136 149.346 100.758 148.8 99.926C148.28 99.068 147.604 98.639 146.772 98.639C145.966 98.639 145.29 99.068 144.744 99.926C144.198 100.758 143.925 102.136 143.925 104.06C143.925 105.958 144.198 107.349 144.744 108.233C145.29 109.117 145.966 109.559 146.772 109.559ZM147.591 122.468L161.514 96.026H164.244L150.36 122.468H147.591ZM165.063 122.468C163.269 122.468 161.8 121.766 160.656 120.362C159.538 118.932 158.979 116.93 158.979 114.356C158.979 111.808 159.538 109.832 160.656 108.428C161.8 107.024 163.269 106.322 165.063 106.322C166.857 106.322 168.313 107.024 169.431 108.428C170.575 109.832 171.147 111.808 171.147 114.356C171.147 116.93 170.575 118.932 169.431 120.362C168.313 121.766 166.857 122.468 165.063 122.468ZM165.063 119.855C165.895 119.855 166.571 119.413 167.091 118.529C167.637 117.645 167.91 116.254 167.91 114.356C167.91 112.432 167.637 111.054 167.091 110.222C166.571 109.364 165.895 108.935 165.063 108.935C164.257 108.935 163.581 109.364 163.035 110.222C162.489 111.054 162.216 112.432 162.216 114.356C162.216 116.254 162.489 117.645 163.035 118.529C163.581 119.413 164.257 119.855 165.063 119.855Z" fill="#CE9CFF"/>
</svg>
