<svg width="1440" height="1307" viewBox="0 0 1440 1307" fill="none" xmlns="http://www.w3.org/2000/svg">
<path d="M886.897 6.66292L-347.25 835.973M946.348 46.3161L-287.799 875.626M1005.8 85.9701L-228.347 915.28M1065.76 125.965L-168.384 955.275M1125.21 165.619L-108.933 994.928M1184.67 205.273L-49.4811 1034.58M1244.12 244.927L9.97083 1074.24M1303.57 284.58L69.4215 1113.89M1363.53 324.575L129.385 1153.88M1422.98 364.229L188.837 1193.54M1482.44 403.882L248.288 1233.19M1541.89 443.536L307.74 1272.85M1601.85 483.531L367.703 1312.84M1661.3 523.185L427.155 1352.5M1720.75 562.839L486.606 1392.15M1780.21 602.493L546.058 1431.8M1839.66 642.146L605.509 1471.46M1899.62 682.142L665.472 1511.45M1959.07 721.792L724.92 1551.1M2018.53 761.452L784.381 1590.76M-355.452 761.252L895.074 1595.34M-295.888 721.227L954.637 1555.32M-236.328 681.204L1014.2 1515.3M-176.768 641.182L1073.76 1475.27M-117.208 601.159L1133.32 1435.25M-57.6481 561.137L1192.88 1395.23M1.91201 521.114L1252.44 1355.21M61.4721 481.091L1312 1315.18M121.032 441.069L1371.56 1275.16M180.592 401.046L1431.12 1235.14M240.152 361.024L1490.68 1195.12M299.712 321.001L1550.24 1155.09M359.272 280.978L1609.8 1115.07M418.833 240.956L1669.36 1075.05M478.393 200.933L1728.92 1035.02M537.953 160.911L1788.48 995.002M597.513 120.888L1848.04 954.98M657.073 80.8656L1907.6 914.957M716.633 40.843L1967.16 874.934M776.193 0.820425L2026.72 834.912" stroke="url(#paint0_radial_201_3708)" stroke-opacity="0.5"/>
<defs>
<radialGradient id="paint0_radial_201_3708" cx="0" cy="0" r="1" gradientUnits="userSpaceOnUse" gradientTransform="translate(777.86 665.093) rotate(176.112) scale(894.392 525.168)">
<stop stop-color="#A6B6D9"/>
<stop offset="1" stop-color="#A6B6D9" stop-opacity="0"/>
</radialGradient>
</defs>
</svg>
