<svg xmlns="http://www.w3.org/2000/svg" fill="none" viewBox="-367.16 6.1 834.11 665.04">
<path d="M122.014 608.318C121.233 609.566 119.634 609.876 118.443 609.01C117.252 608.144 116.92 606.429 117.701 605.181C118.482 603.932 120.081 603.623 121.272 604.489C122.463 605.355 122.796 607.069 122.014 608.318ZM119.592 607.173L-363.583 255.823L-363.053 254.975L120.123 606.325L119.592 607.173Z" fill="#A112FF"/>
<path d="M41.9616 456.529C41.1801 457.777 39.5811 458.087 38.3902 457.22C37.1992 456.354 36.8673 454.639 37.6488 453.391C38.4303 452.143 40.0293 451.833 41.2202 452.7C42.4111 453.566 42.7431 455.28 41.9616 456.529ZM39.5399 455.384L-367.157 159.51L-366.626 158.662L40.0705 454.536L39.5399 455.384Z" fill="#A112FF"/>
<path d="M282.122 568.249C281.342 569.498 279.743 569.81 278.551 568.946C277.359 568.081 277.025 566.367 277.804 565.118C278.584 563.868 280.183 563.556 281.375 564.421C282.567 565.286 282.902 567 282.122 568.249ZM279.698 567.108L-305.687 142.559L-305.158 141.711L280.228 566.259L279.698 567.108Z" fill="#A112FF"/>
<path d="M287.84 540.511C287.059 541.761 285.461 542.072 284.269 541.207C283.077 540.342 282.743 538.628 283.523 537.379C284.303 536.13 285.902 535.818 287.094 536.683C288.286 537.548 288.62 539.262 287.84 540.511ZM285.417 539.369L-360.009 70.9021L-359.479 70.054L285.946 538.521L285.417 539.369Z" fill="#A112FF"/>
<path d="M350.74 555.148C349.962 556.398 348.363 556.712 347.17 555.848C345.977 554.985 345.641 553.272 346.42 552.021C347.198 550.771 348.796 550.458 349.989 551.321C351.183 552.185 351.519 553.898 350.74 555.148ZM348.316 554.009L-319.267 70.9025L-318.739 70.0537L348.844 553.16L348.316 554.009Z" fill="#A112FF"/>
<path d="M73.4114 323.23C72.6305 324.479 71.0317 324.789 69.8403 323.923C68.6489 323.058 68.3161 321.344 69.0969 320.095C69.8778 318.846 71.4766 318.536 72.668 319.401C73.8594 320.267 74.1922 321.981 73.4114 323.23ZM70.9891 322.086L-185.609 135.624L-185.078 134.776L71.5192 321.239L70.9891 322.086Z" fill="#A112FF"/>
<path d="M327.153 475.787C326.374 477.037 324.775 477.35 323.582 476.486C322.39 475.622 322.054 473.909 322.833 472.659C323.612 471.409 325.21 471.096 326.403 471.959C327.596 472.823 327.931 474.537 327.153 475.787ZM324.728 474.647L-143.438 135.625L-142.909 134.776L325.257 473.798L324.728 474.647Z" fill="#A112FF"/>
<path d="M217.081 365.604C216.302 366.854 214.704 367.168 213.511 366.304C212.318 365.441 211.982 363.728 212.76 362.477C213.539 361.227 215.137 360.914 216.33 361.777C217.523 362.641 217.859 364.354 217.081 365.604ZM214.656 364.465L-91.9745 142.56L-91.4459 141.711L215.185 363.616L214.656 364.465Z" fill="#A112FF"/>
<path d="M193.495 316.29C192.717 317.541 191.119 317.855 189.925 316.992C188.731 316.13 188.394 314.416 189.172 313.166C189.95 311.915 191.548 311.601 192.742 312.464C193.936 313.326 194.273 315.04 193.495 316.29ZM191.069 315.153L-114.847 94.0176L-114.318 93.1685L191.598 314.303L191.069 315.153Z" fill="#A112FF"/>
<path d="M115.576 230.007C114.791 231.253 113.191 231.558 112.003 230.688C110.815 229.817 110.488 228.102 111.273 226.856C112.058 225.61 113.658 225.305 114.846 226.175C116.035 227.045 116.361 228.761 115.576 230.007ZM113.158 228.854L-189.899 6.94895L-189.366 6.1029L113.691 228.008L113.158 228.854Z" fill="#A112FF"/>
<path d="M134.162 487.289C134.945 488.536 134.617 490.251 133.428 491.12C132.238 491.989 130.639 491.682 129.855 490.435C129.071 489.188 129.4 487.473 130.589 486.605C131.778 485.736 133.378 486.042 134.162 487.289ZM132.274 489.285L45.7888 552.467L45.2566 551.62L131.742 488.439L132.274 489.285Z" fill="#A112FF"/>
<path d="M207.785 608.318C207.004 609.566 205.405 609.876 204.214 609.01C203.023 608.143 202.691 606.429 203.472 605.181C204.254 603.932 205.853 603.623 207.044 604.489C208.235 605.355 208.567 607.07 207.785 608.318ZM205.364 607.173L88.8582 522.418L89.3889 521.57L205.894 606.325L205.364 607.173Z" fill="#A112FF"/>
<path d="M464.395 553.596C463.622 554.85 462.026 555.171 460.828 554.314C459.63 553.457 459.285 551.746 460.057 550.492C460.83 549.238 462.427 548.916 463.624 549.773C464.822 550.63 465.167 552.341 464.395 553.596ZM461.964 552.469L379.052 493.141L379.576 492.289L462.488 551.618L461.964 552.469Z" fill="#A112FF"/>
<path d="M466.549 511.974C465.784 513.233 464.189 513.565 462.986 512.715C461.783 511.866 461.427 510.157 462.192 508.898C462.957 507.64 464.552 507.308 465.755 508.157C466.958 509.007 467.314 510.716 466.549 511.974ZM464.111 510.864L302.576 396.829L303.095 395.974L464.63 510.009L464.111 510.864Z" fill="#A112FF"/>
<path d="M445.795 407.221C445.011 408.468 443.412 408.774 442.223 407.905C441.034 407.036 440.706 405.321 441.49 404.074C442.274 402.827 443.874 402.521 445.062 403.391C446.251 404.26 446.58 405.975 445.795 407.221ZM443.376 406.071L214.654 238.871L215.187 238.025L443.909 405.224L443.376 406.071Z" fill="#A112FF"/>
<path d="M445.811 295.454C446.583 296.708 446.239 298.419 445.041 299.277C443.844 300.134 442.247 299.812 441.474 298.558C440.702 297.305 441.046 295.593 442.244 294.736C443.441 293.879 445.038 294.2 445.811 295.454ZM443.905 297.432L260.927 428.418L260.403 427.566L443.38 296.581L443.905 297.432Z" fill="#A112FF"/>
<path d="M439.382 450.331C440.152 451.587 439.803 453.297 438.603 454.152C437.403 455.006 435.807 454.68 435.038 453.424C434.268 452.169 434.617 450.458 435.817 449.604C437.017 448.75 438.613 449.075 439.382 450.331ZM437.471 452.304L321.681 534.748L321.158 533.895L436.949 451.451L437.471 452.304Z" fill="#A112FF"/>
<path d="M279.986 196.057C280.759 197.31 280.417 199.022 279.22 199.88C278.024 200.739 276.426 200.419 275.653 199.166C274.879 197.913 275.221 196.201 276.418 195.343C277.614 194.484 279.212 194.804 279.986 196.057ZM278.082 198.037L25.7726 379.106L25.2471 378.255L277.556 197.186L278.082 198.037Z" fill="#A112FF"/>
<path d="M69.8486 192.976C70.6213 194.23 70.2772 195.942 69.0799 196.799C67.8826 197.657 66.2856 197.336 65.5128 196.082C64.74 194.828 65.0841 193.117 66.2814 192.259C67.4787 191.402 69.0758 191.723 69.8486 192.976ZM67.943 194.955L-40.7 272.776L-41.2247 271.925L67.4183 194.104L67.943 194.955Z" fill="#A112FF"/>
<path d="M-158.907 669.962C-159.691 668.715 -159.361 667 -158.172 666.132C-156.982 665.263 -155.383 665.571 -154.6 666.818C-153.816 668.065 -154.145 669.78 -155.335 670.648C-156.524 671.516 -158.124 671.209 -158.907 669.962ZM-157.019 667.966L24.5289 535.44L25.0608 536.286L-156.487 668.813L-157.019 667.966Z" fill="#A112FF"/>
</svg>