<svg xmlns="http://www.w3.org/2000/svg" width="820" height="268" viewBox="0 0 820 268" fill="none">
    <path
        d="M56.6107 -408V755M112.281 -408V755M167.952 -408V755M224.102 -408V755M279.772 -408V755M335.443 -408V755M391.114 -408V755M446.784 -408V755M502.935 -408V755M558.606 -408V755M614.276 -408V755M669.947 -408V755M726.097 -408V755M781.768 -408V755M837.438 -408V755M893.109 -408V755M948.779 -408V755M1004.93 -408L1004.93 755M1060.6 -408V755M1116.28 -408V755M0.5 706.262H1171.5M0.5 650.132L1171.5 650.134M0.5 594.006H1171.5M0.5 537.879H1171.5M0.5 481.753H1171.5M0.5 425.626H1171.5M0.5 369.5H1171.5M0.5 313.373H1171.5M0.5 257.247H1171.5M0.5 201.12H1171.5M0.5 144.994H1171.5M0.5 88.8674H1171.5M0.5 32.7408H1171.5M0.5 -23.3856H1171.5M0.5 -79.5122H1171.5M0.5 -135.639H1171.5M0.5 -191.765H1171.5M0.5 -247.892H1171.5M0.5 -304.018H1171.5M0.5 -360.145H1171.5"
        stroke="url(#paint0_radial_3031_1928)" stroke-opacity="0.5" />
    <defs>
        <radialGradient id="paint0_radial_3031_1928" cx="0" cy="0" r="1" gradientUnits="userSpaceOnUse"
            gradientTransform="translate(617 120.09) rotate(89.2898) scale(121.009 264.221)">
            <stop stop-color="#231231" stop-opacity="0" />
            <stop offset="0.989583" stop-color="white" />
        </radialGradient>
    </defs>
</svg>