<svg width="289" height="231" viewBox="0 0 289 231" fill="none" xmlns="http://www.w3.org/2000/svg">
<path d="M-305.124 -364V673.27M-255.639 -364V673.27M-206.154 -364V673.27M-156.243 -364V673.27M-106.758 -364V673.27M-57.2726 -364V673.27M-7.78719 -364V673.27M41.6972 -364V673.27M91.6086 -364V673.27M141.094 -364V673.27M190.579 -364V673.27M240.064 -364V673.27M289.975 -364V673.27M339.461 -364V673.27M388.945 -364V673.27M438.431 -364V673.27M487.915 -364V673.27M537.828 -364L537.827 673.27M587.309 -364V673.27M636.802 -364V673.27M-355 629.802H685.889M-355 579.74L685.889 579.741M-355 529.681H685.889M-355 479.622H685.889M-355 429.563H685.889M-355 379.505H685.889M-355 329.446H685.889M-355 279.387H685.889M-355 229.328H685.889M-355 179.27H685.889M-355 129.211H685.889M-355 79.1519H685.889M-355 29.0932H685.889M-355 -20.9656H685.889M-355 -71.0244H685.889M-355 -121.083H685.889M-355 -171.142H685.889M-355 -221.201H685.889M-355 -271.259H685.889M-355 -321.318H685.889" stroke="url(#paint0_radial_2643_6089)" stroke-opacity="0.5"/>
<defs>
<radialGradient id="paint0_radial_2643_6089" cx="0" cy="0" r="1" gradientUnits="userSpaceOnUse" gradientTransform="translate(193 106.999) rotate(92.2998) scale(124.601 166.925)">
<stop stop-color="#231231" stop-opacity="0"/>
<stop offset="0.989583" stop-color="white"/>
</radialGradient>
</defs>
</svg>
