<svg width="86" height="85" viewBox="0 0 86 85" fill="none" xmlns="http://www.w3.org/2000/svg">
<g filter="url(#filter0_d_11291_928)">
<path d="M4 39C4 26.2224 4 19.8336 6.2549 14.8569C8.78782 9.26665 13.2667 4.78782 18.8569 2.2549C23.8336 0 30.2224 0 43 0C55.7776 0 62.1664 0 67.1431 2.2549C72.7333 4.78782 77.2122 9.26665 79.7451 14.8569C82 19.8336 82 26.2224 82 39C82 51.7776 82 58.1664 79.7451 63.1431C77.2122 68.7333 72.7333 73.2122 67.1431 75.7451C62.1664 78 55.7776 78 43 78C30.2224 78 23.8336 78 18.8569 75.7451C13.2667 73.2122 8.78782 68.7333 6.2549 63.1431C4 58.1664 4 51.7776 4 39Z" fill="white"/>
<path d="M4 39C4 26.2224 4 19.8336 6.2549 14.8569C8.78782 9.26665 13.2667 4.78782 18.8569 2.2549C23.8336 0 30.2224 0 43 0C55.7776 0 62.1664 0 67.1431 2.2549C72.7333 4.78782 77.2122 9.26665 79.7451 14.8569C82 19.8336 82 26.2224 82 39C82 51.7776 82 58.1664 79.7451 63.1431C77.2122 68.7333 72.7333 73.2122 67.1431 75.7451C62.1664 78 55.7776 78 43 78C30.2224 78 23.8336 78 18.8569 75.7451C13.2667 73.2122 8.78782 68.7333 6.2549 63.1431C4 58.1664 4 51.7776 4 39Z" fill="url(#paint0_radial_11291_928)" fill-opacity="0.2"/>
</g>
<g filter="url(#filter1_d_11291_928)">
<path fill-rule="evenodd" clip-rule="evenodd" d="M28.187 75.2289C31.8902 75.5024 36.5741 75.504 43 75.504C49.4259 75.504 54.1098 75.5024 57.813 75.2289C61.4912 74.9573 64.0036 74.4273 66.113 73.4716C71.1517 71.1886 75.1886 67.1517 77.4716 62.113C78.4273 60.0036 78.9573 57.4912 79.2289 53.813C79.5024 50.1098 79.504 45.4259 79.504 39C79.504 32.5741 79.5024 27.8902 79.2289 24.187C78.9573 20.5088 78.4273 17.9964 77.4716 15.887C75.1886 10.8483 71.1517 6.81143 66.113 4.52842C64.0036 3.57266 61.4912 3.04273 57.813 2.77108C54.1098 2.49758 49.4259 2.496 43 2.496C36.5741 2.496 31.8902 2.49758 28.187 2.77108C24.5088 3.04273 21.9964 3.57266 19.887 4.52842C14.8483 6.81143 10.8114 10.8483 8.52842 15.887C7.57266 17.9964 7.04273 20.5088 6.77108 24.187C6.49758 27.8902 6.496 32.5741 6.496 39C6.496 45.4259 6.49758 50.1098 6.77108 53.813C7.04273 57.4912 7.57266 60.0036 8.52842 62.113C10.8114 67.1517 14.8483 71.1886 19.887 73.4716C21.9964 74.4273 24.5088 74.9573 28.187 75.2289ZM6.2549 14.8569C4 19.8336 4 26.2224 4 39C4 51.7776 4 58.1664 6.2549 63.1431C8.78782 68.7333 13.2667 73.2122 18.8569 75.7451C23.8336 78 30.2224 78 43 78C55.7776 78 62.1664 78 67.1431 75.7451C72.7333 73.2122 77.2122 68.7333 79.7451 63.1431C82 58.1664 82 51.7776 82 39C82 26.2224 82 19.8336 79.7451 14.8569C77.2122 9.26665 72.7333 4.78782 67.1431 2.2549C62.1664 0 55.7776 0 43 0C30.2224 0 23.8336 0 18.8569 2.2549C13.2667 4.78782 8.78782 9.26665 6.2549 14.8569Z" fill="black" fill-opacity="0.05" shape-rendering="crispEdges"/>
</g>
<g clip-path="url(#clip0_11291_928)">
<path d="M59.5526 59.28C60.1095 59.2421 60.6527 59.0226 61.072 58.6171C62.0023 57.7175 62.0183 56.2656 61.072 55.366L55.3617 49.9054C58.7943 46.5912 60.9276 42.0301 60.9276 36.9956C60.9276 26.9267 52.3942 18.72 41.8238 18.72C31.2533 18.72 22.72 26.9109 22.72 36.9956C22.72 47.0804 31.2533 55.2871 41.8238 55.2555C43.1712 55.2555 44.2459 54.2297 44.2459 52.9671C44.2459 51.7046 43.1551 50.6787 41.8238 50.6787C33.9641 50.6787 27.548 44.571 27.548 36.9956C27.548 29.4202 33.9641 23.3126 41.8238 23.3126C49.6835 23.3126 56.1316 29.436 56.1316 37.0114C56.1316 41.4935 53.886 45.4706 50.4053 47.9642C49.8599 48.3745 49.507 48.9743 49.4589 49.6371C49.4108 50.2999 49.6514 50.947 50.1487 51.4205L57.6554 58.6171C58.0861 59.0194 58.6398 59.2418 59.2029 59.28H59.5526Z" fill="url(#paint1_linear_11291_928)"/>
</g>
<defs>
<filter id="filter0_d_11291_928" x="0.8" y="0" width="84.4" height="84.4" filterUnits="userSpaceOnUse" color-interpolation-filters="sRGB">
<feFlood flood-opacity="0" result="BackgroundImageFix"/>
<feColorMatrix in="SourceAlpha" type="matrix" values="0 0 0 0 0 0 0 0 0 0 0 0 0 0 0 0 0 0 127 0" result="hardAlpha"/>
<feOffset dy="3.2"/>
<feGaussianBlur stdDeviation="1.6"/>
<feComposite in2="hardAlpha" operator="out"/>
<feColorMatrix type="matrix" values="0 0 0 0 0 0 0 0 0 0 0 0 0 0 0 0 0 0 0.05 0"/>
<feBlend mode="normal" in2="BackgroundImageFix" result="effect1_dropShadow_11291_928"/>
<feBlend mode="normal" in="SourceGraphic" in2="effect1_dropShadow_11291_928" result="shape"/>
</filter>
<filter id="filter1_d_11291_928" x="0.8" y="0" width="84.4" height="84.4" filterUnits="userSpaceOnUse" color-interpolation-filters="sRGB">
<feFlood flood-opacity="0" result="BackgroundImageFix"/>
<feColorMatrix in="SourceAlpha" type="matrix" values="0 0 0 0 0 0 0 0 0 0 0 0 0 0 0 0 0 0 127 0" result="hardAlpha"/>
<feOffset dy="3.2"/>
<feGaussianBlur stdDeviation="1.6"/>
<feComposite in2="hardAlpha" operator="out"/>
<feColorMatrix type="matrix" values="0 0 0 0 0 0 0 0 0 0 0 0 0 0 0 0 0 0 0.05 0"/>
<feBlend mode="normal" in2="BackgroundImageFix" result="effect1_dropShadow_11291_928"/>
<feBlend mode="normal" in="SourceGraphic" in2="effect1_dropShadow_11291_928" result="shape"/>
</filter>
<radialGradient id="paint0_radial_11291_928" cx="0" cy="0" r="1" gradientUnits="userSpaceOnUse" gradientTransform="translate(34.4503 -57.8335) rotate(77.074) scale(75.681)">
<stop stop-color="#00DBFF"/>
<stop offset="1" stop-color="#00DBFF" stop-opacity="0"/>
</radialGradient>
<linearGradient id="paint1_linear_11291_928" x1="13.36" y1="68.6394" x2="55.428" y2="73.0373" gradientUnits="userSpaceOnUse">
<stop stop-color="#7048E8"/>
<stop offset="0.035" stop-color="#607CE8"/>
<stop offset="0.185" stop-color="#4AC1E8"/>
<stop offset="0.35" stop-color="#59A3EC"/>
<stop offset="0.626149" stop-color="#A112FF"/>
<stop offset="1" stop-color="#FF5543"/>
</linearGradient>
<clipPath id="clip0_11291_928">
<rect width="39.0578" height="40.56" fill="white" transform="translate(22.72 18.72)"/>
</clipPath>
</defs>
</svg>
