<svg width="1388" height="2540" xmlns="http://www.w3.org/2000/svg" xmlns:xlink="http://www.w3.org/1999/xlink"><defs><path id="a" d="M0 0h1440v2876.118H0z"/></defs><g transform="translate(0 -337)" fill="none" fill-rule="evenodd"><mask id="b" fill="#fff"><use xlink:href="#a"/></mask><g opacity=".504" mask="url(#b)" stroke-linecap="round" stroke-width="29.4"><path d="m1349.96 584.293-60.182-92.669" stroke="#FF6B6B"/><path d="m1344.065 808.565-48.44-99.313" stroke="#CC5DE8"/><path d="m1277.012 1014.2 85.872-69.534" stroke="#329AF0"/><path d="m1351.403 1155.135-61.79 91.601" stroke="#F06595"/><path d="m1353.134 1466.064-66.5-88.243" stroke="#845EF7"/><path d="m1371.56 1622.361-102.45 41.392" stroke="#FCC419"/><path d="m1278.875 1900.376 82.116-73.938" stroke="#FF6B6B"/><path d="m1372.855 2067.978-105.089 34.144" stroke="#FF922B"/><path d="m1283.508 2264.359 73.938 82.116" stroke="#FCC419"/><path d="m1287.249 2482.31 66.496 88.247" stroke="#FF6B6B"/><path d="m1363.37 2713.186-85.875 69.537" stroke="#22B8CF"/><path d="m1075.42 453.02 44.945-100.943" stroke="#94D82D"/><path d="m1053.888 656.637 88.246-66.498" stroke="#329AF0"/><path d="m1068.642 891.333 58.554-93.704" stroke="#FF922B"/><path d="m1137.038 1105.013-78.132-78.132" stroke="#FF6B6B"/><path d="m1149.326 1307.716-102.453-41.39" stroke="#F06595"/><path d="m1127.844 1461.005-58.554 93.708" stroke="#FCC419"/><path d="m1078.801 1676.931 39.598 103.156" stroke="#FF6B6B"/><path d="m1052.116 1919.225 92.67 60.182" stroke="#FF922B"/><path d="m1107.264 2116.122-17.284 109.132" stroke="#FF6B6B"/><path d="m1049.281 2417.217 97.563-51.875" stroke="#CC5DE8"/><path d="m1067.832 2658.734 60.181-92.67" stroke="#845EF7"/><path d="m1148.07 2809.725-99.315 48.439" stroke="#51CF66"/><path d="m600.985 622.347 110.48 1.928" stroke="#FF6B6B"/><path d="m682.666 893.193-53.568-96.643" stroke="#CC5DE8"/><path d="m689.773 1021.781-66.497 88.247" stroke="#94D82D"/><path d="m635.877 1235.296 41.395 102.452M661.611 1562.64l-11.55-109.89" stroke="#FF6B6B"/><path d="m692.902 1769.961-73.937-82.116" stroke="#FF922B"/><path d="m707.226 1928.405-101.716 43.173" stroke="#CC5DE8"/><path d="m606.309 2146.93 100.144 46.698" stroke="#FF6B6B"/><path d="m602.752 2405.548 106.731-28.6" stroke="#94D82D"/><path d="m636.06 2664.05 39.599-103.155" stroke="#FCC419"/><path d="m694.177 2793.457-75.356 80.809" stroke="#CC5DE8"/><path d="m226.994 569.95-24.855 107.662" stroke="#F06595"/><path d="m172.244 880.64 83.394-72.49" stroke="#FF922B"/><path d="m221.309 1010.886-13.47 109.673" stroke="#F06595"/><path d="m171.5 1251.6 85.872 69.534" stroke="#20C997"/><path d="m264.427 1484.656-100.144 46.697" stroke="#FF6B6B"/><path d="m254.993 1765.9-82.116-73.934" stroke="#FF922B"/><path d="m230.9 2002.299-34.144-105.086M181.409 2215.099l64.95-89.392" stroke="#FF6B6B"/><path d="m158.948 2392.2 110.48-1.93" stroke="#CC5DE8"/><path d="m160.446 2599.808 107.667 24.855" stroke="#FF6B6B"/><path d="m215.542 2778.367-1.929 110.48" stroke="#94D82D"/><path d="m898.283 462.117-41.391 102.45" stroke="#FCC419"/><path d="m844.446 778.66 64.95-89.394" stroke="#845EF7"/><path d="m893.938 1007.84-34.145-105.085" stroke="#CC5DE8"/><path d="m828.723 1202.62 96.642-53.572" stroke="#FF6B6B"/><path d="m823.07 1386.242 108.466 21.085" stroke="#5C7CFA"/><path d="m906.833 1571.503-58.554 93.704" stroke="#51CF66"/><path d="m869.923 1784.377 15.376 109.42" stroke="#FF6B6B"/><path d="m895.58 2008.02-35.975 104.475" stroke="#5C7CFA"/><path d="m907.643 2234.997-60.181 92.67" stroke="#51CF66"/><path d="m824.282 2517.898 105.671-32.304M925.833 2749.378l-97.563-51.875" stroke="#FF6B6B"/><path d="m404.795 559.324 60.181-92.67" stroke="#CC5DE8"/><path d="m442.32 679.4-13.466 109.672" stroke="#94D82D"/><path d="m414.155 1006.261 41.391-102.449" stroke="#845EF7"/><path d="m381.461 1163.368 107.663 24.855" stroke="#F06595"/><path d="m464.159 1444.214-58.554-93.703" stroke="#FCC419"/><path d="m409.78 1667.203 50.166-98.454" stroke="#CC5DE8"/><path d="m441.558 1894.025-13.466-109.674" stroke="#22B8CF"/><path d="m488.42 2045.273-106.215 30.456" stroke="#FF6B6B"/><path d="m464.159 2328.178-58.558-93.704" stroke="#FF922B"/><path d="m457.328 2552.739-44.944-100.94M400.137 2765.796l69.541-85.871" stroke="#FF6B6B"/><path d="m48.184 518.395-110.075-9.63" stroke="#22B8CF"/><path d="M-24.255 786.614 9.89 681.527" stroke="#CC5DE8"/><path d="M-57.825 976.413 43.887 933.24" stroke="#5C7CFA"/><path d="m-47.486 1213.567 80.813-75.355" stroke="#94D82D"/><path d="m-16.983 1342.855 21.08 108.466" stroke="#329AF0"/><path d="m19.629 1666.658-53.568-96.642" stroke="#FCC419"/><path d="m-51.857 1807.14 90.515 63.378" stroke="#94D82D"/><path d="m-61.327 2051.11 109.136 17.284" stroke="#CC5DE8"/><path d="m17.92 2330.524-50.162-98.454" stroke="#22B8CF"/><path d="m-57.052 2525.115 100.144-46.697" stroke="#FF922B"/><path d="m19.629 2771.61-53.568-96.642" stroke="#FF6B6B"/></g></g></svg>