<svg width="1400" height="1530" fill="none" xmlns="http://www.w3.org/2000/svg"><g clip-path="url(#a)"><path fill="#fff" d="M0 0h1400v1530H0z"/><path fill="none" d="M1859.43 1987.71H-459V-373h2318.43z"/><path fill="none" d="m1859.43 31.412-415.823 1956.295-1902.605-404.41L-43.175-373z"/><path fill="none" d="m1739.2 65.617-398.267 1873.7-68.31-14.52 398.267-1873.7z"/><path fill="none" d="m1458.44 1384.07-2.866 13.484-67.417-14.33 2.866-13.484z"/><path fill="none" d="m1391.03 1369.74 67.417 14.33-2.866 13.484-67.417-14.33z"/><path fill-rule="evenodd" clip-rule="evenodd" d="M1389.59 1376.48c.79-3.72 4.45-6.1 8.18-5.31l53.93 11.46c3.72.8 6.1 4.46 5.31 8.18a6.893 6.893 0 0 1-8.17 5.31l-53.94-11.47a6.893 6.893 0 0 1-5.31-8.17Z" fill="#94D82D"/><path fill="none" d="m1429.81 1463.83-13.843 65.126-45.386-9.647 13.843-65.126z"/><path fill="none" d="m1372.01 1512.57 46.118-51.22 10.245 9.224-46.119 51.22z"/><path fill-rule="evenodd" clip-rule="evenodd" d="M1377.13 1517.18a6.894 6.894 0 0 1-.51-9.73l36.9-40.98c2.54-2.83 6.9-3.06 9.73-.51s3.06 6.9.51 9.73l-36.89 40.98a6.896 6.896 0 0 1-9.74.51Z" fill="#51CF66"/><path fill="none" d="m1524.34 16.685-400.432 1883.883-68.815-14.628L1455.524 2.057z"/><path fill="none" d="m1450.59 363.296-4.832 22.735-68.638-14.59 4.832-22.734z"/><path fill="none" d="m1447.75 376.648-68.755-4.808.961-13.751 68.756 4.808z"/><path fill-rule="evenodd" clip-rule="evenodd" d="M1448.24 369.773a6.897 6.897 0 0 1-7.36 6.395l-55-3.847c-3.8-.265-6.67-3.559-6.4-7.356a6.897 6.897 0 0 1 7.36-6.395l55 3.846a6.899 6.899 0 0 1 6.4 7.357Z" fill="#329AF0"/><path fill="none" d="m1417.75 445.77-14.257 67.073-39.739-8.447 14.257-67.073z"/><path fill="none" d="m1391.18 510.224-14.33-67.417 13.484-2.866 14.33 67.417z"/><path fill-rule="evenodd" clip-rule="evenodd" d="M1397.92 508.791a6.89 6.89 0 0 1-8.17-5.309l-11.47-53.933a6.897 6.897 0 0 1 5.31-8.175c3.72-.792 7.38 1.585 8.18 5.309l11.46 53.933a6.898 6.898 0 0 1-5.31 8.175Z" fill="#FF922B"/><path fill="none" d="m1405.3 576.235-6.016 28.304-68.722-14.608 6.016-28.303z"/><path fill="none" d="m1396.25 603.895-62.465-29.128 5.825-12.494 62.466 29.129z"/><path fill-rule="evenodd" clip-rule="evenodd" d="M1399.17 597.648a6.894 6.894 0 0 1-9.16 3.334l-49.97-23.303c-3.45-1.608-4.95-5.709-3.34-9.159a6.893 6.893 0 0 1 9.16-3.334l49.97 23.302c3.45 1.609 4.95 5.71 3.34 9.16Z" fill="#94D82D"/><path fill="none" d="m1375.37 663.498-13.671 64.318-47.16-10.024 13.67-64.318z"/><path fill="none" d="m1316.05 710.646 47.878-49.58 9.916 9.577-47.878 49.579z"/><path fill-rule="evenodd" clip-rule="evenodd" d="M1321.01 715.434c-2.74-2.644-2.81-7.007-.17-9.746l38.3-39.662a6.897 6.897 0 0 1 9.75-.171c2.74 2.645 2.81 7.008.17 9.746l-38.3 39.663a6.897 6.897 0 0 1-9.75.17Z" fill="#FCC419"/><path fill="none" d="m1358.54 795.882-4.348 20.457-68.457-14.55 4.348-20.458z"/><path fill="none" d="m1355.69 809.292-68.545-7.204 1.44-13.71 68.546 7.205z"/><path fill-rule="evenodd" clip-rule="evenodd" d="M1356.41 802.437c-.39 3.786-3.79 6.532-7.57 6.135l-54.84-5.764a6.892 6.892 0 0 1-6.13-7.575c.4-3.786 3.79-6.532 7.57-6.134l54.84 5.763a6.892 6.892 0 0 1 6.13 7.575Z" fill="#22B8CF"/><path fill="none" d="m1332.67 882.275-12.695 59.726-54.406-11.565 12.695-59.725z"/><path fill="none" d="m1267.45 921.591 55.044-41.479 8.296 11.01-55.044 41.478z"/><path fill-rule="evenodd" clip-rule="evenodd" d="M1271.6 927.095a6.883 6.883 0 0 1 1.35-9.652l44.04-33.183a6.888 6.888 0 0 1 9.65 1.357 6.893 6.893 0 0 1-1.36 9.652l-44.03 33.183a6.89 6.89 0 0 1-9.65-1.357Z" fill="#FF922B"/><path fill="none" d="m1309.43 989.772-12.82 60.312-53.664-11.407 12.82-60.312z"/><path fill="none" d="m1244.79 1030.01 54.312-42.433 8.487 10.862-54.312 42.434z"/><path fill-rule="evenodd" clip-rule="evenodd" d="M1249.03 1035.44a6.89 6.89 0 0 1 1.19-9.67l43.45-33.95a6.886 6.886 0 0 1 9.67 1.188c2.35 3 1.81 7.332-1.19 9.672l-43.44 33.95c-3 2.34-7.34 1.81-9.68-1.19Z" fill="#FF6B6B"/><path fill="none" d="m1290.72 1115.77-5.783 27.206-68.747-14.612 5.783-27.207z"/><path fill="none" d="m1224.78 1101.75 62.964 28.034-5.607 12.593-62.964-28.034z"/><path fill-rule="evenodd" clip-rule="evenodd" d="M1221.97 1108.05a6.89 6.89 0 0 1 9.1-3.49l50.37 22.42c3.48 1.55 5.05 5.62 3.5 9.1a6.903 6.903 0 0 1-9.1 3.5l-50.37-22.43c-3.48-1.55-5.05-5.62-3.5-9.1Z" fill="#CC5DE8"/><path fill="none" d="m1247.18 1197.97-14.525 68.335-19.308-4.104 14.525-68.335z"/><path fill="none" d="m1219.22 1263.45 8.4-68.41 13.682 1.68-8.4 68.41z"/><path fill-rule="evenodd" clip-rule="evenodd" d="M1226.06 1264.29a6.882 6.882 0 0 1-6-7.68l6.72-54.73c.46-3.78 3.9-6.46 7.68-6 3.78.46 6.46 3.9 6 7.68l-6.72 54.73c-.46 3.78-3.9 6.46-7.68 6Z" fill="#FF6B6B"/><path fill="none" d="m1240.29 1312.72-13.057 61.427-52.131-11.081 13.057-61.427z"/><path fill="none" d="m1198.78 1303.89 30.214 61.948-12.39 6.043-30.214-61.948z"/><path fill-rule="evenodd" clip-rule="evenodd" d="M1192.59 1306.91a6.897 6.897 0 0 1 9.21 3.18l24.17 49.56c1.67 3.42.25 7.54-3.17 9.21a6.896 6.896 0 0 1-9.22-3.17l-24.17-49.56c-1.67-3.42-.24-7.55 3.18-9.22Z" fill="#845EF7"/><path fill="none" d="m1219.12 1423.42-12.16 57.205-57.204-12.16 12.159-57.204z"/><path fill="none" d="m1197.42 1478.6-37.538-57.804 11.56-7.508 37.54 57.804z"/><path fill-rule="evenodd" clip-rule="evenodd" d="M1203.2 1474.84a6.882 6.882 0 0 1-9.53-2.02l-30.03-46.24a6.892 6.892 0 0 1 2.02-9.54c3.2-2.07 7.47-1.16 9.54 2.03l30.03 46.24c2.07 3.19 1.17 7.46-2.03 9.53Z" fill="#FF922B"/><path fill="none" d="m1185.05 1522.98-14.542 68.414-32.605-6.93 14.541-68.415z"/><path fill="none" d="m1157.61 1588.65-6.007-68.66 13.733-1.202 6.007 68.66z"/><path fill-rule="evenodd" clip-rule="evenodd" d="M1164.48 1588.05c-3.79.33-7.14-2.47-7.47-6.26l-4.8-54.93c-.33-3.79 2.47-7.14 6.26-7.47 3.79-.33 7.14 2.48 7.47 6.27l4.8 54.93c.34 3.79-2.47 7.13-6.26 7.46Z" fill="#CC5DE8"/><path fill="none" d="M1307.42-24.104 906.895 1860.22l-68.697-14.602L1238.724-38.705z"/><path fill="none" d="m1300.89-25.493-12.435 58.5-55.84-11.868 12.435-58.501z"/><path fill="none" d="m1278.59 30.912-35.498-59.078 11.816-7.1 35.498 59.078z"/><path fill-rule="evenodd" clip-rule="evenodd" d="M1284.5 27.362a6.895 6.895 0 0 1-9.46-2.358l-28.4-47.262a6.896 6.896 0 0 1 2.36-9.458 6.896 6.896 0 0 1 9.46 2.358l28.4 47.262a6.896 6.896 0 0 1-2.36 9.458Z" fill="#FF6B6B"/><path fill="none" d="m1281.61 96.183-7.154 33.656-68.283-14.514 7.153-33.657z"/><path fill="none" d="m1270.29 128.953-59.69-34.462 6.893-11.938 59.69 34.462z"/><path fill-rule="evenodd" clip-rule="evenodd" d="M1273.73 122.984a6.885 6.885 0 0 1-9.41 2.523l-47.75-27.57a6.883 6.883 0 0 1-2.52-9.414 6.885 6.885 0 0 1 9.41-2.523l47.75 27.569a6.883 6.883 0 0 1 2.52 9.415Z" fill="#FF6B6B"/><path fill="none" d="m1247.43 183.803-14.31 67.326-38.754-8.237 14.31-67.326z"/><path fill="none" d="m1195.49 237.623 39.533-56.458 11.292 7.906-39.533 56.459zM1235.31 303.964l-10.208 48.026-63.884-13.579 10.208-48.026z"/><path fill="none" d="m1178.77 291.946 48.736 48.736-9.748 9.747-48.735-48.736z"/><path fill-rule="evenodd" clip-rule="evenodd" d="M1173.9 296.82c2.69-2.692 7.05-2.692 9.75 0l38.98 38.988a6.878 6.878 0 0 1 0 9.748 6.885 6.885 0 0 1-9.74 0l-38.99-38.989a6.895 6.895 0 0 1 0-9.747Z" fill="#51CF66"/><path fill="none" d="m1194.06 397.299-14.59 68.638-22.734-4.833 14.589-68.637z"/><path fill="none" d="m1184.67 395.305-4.808 68.755-13.751-.961 4.808-68.756zM1165.54 642.72l-4.104 19.308-68.335-14.525 4.104-19.308z"/><path fill="none" d="m1162.69 656.152-68.41-8.4 1.68-13.682 68.41 8.4z"/><path fill-rule="evenodd" clip-rule="evenodd" d="M1163.53 649.311a6.888 6.888 0 0 1-7.68 6.001l-54.73-6.719a6.893 6.893 0 0 1-6-7.681 6.888 6.888 0 0 1 7.68-6.001l54.73 6.719a6.893 6.893 0 0 1 6 7.681Z" fill="#22B8CF"/><path fill="none" d="m1144.09 740.721-8.237 38.753-67.326-14.31 8.237-38.754z"/><path fill="none" d="m1130.59 778.354-56.458-39.533 7.906-11.292 56.459 39.533z"/><path fill-rule="evenodd" clip-rule="evenodd" d="M1134.54 772.709a6.892 6.892 0 0 1-9.6 1.692l-45.17-31.626a6.902 6.902 0 0 1-1.69-9.599 6.893 6.893 0 0 1 9.6-1.693l45.17 31.626a6.903 6.903 0 0 1 1.69 9.6Z" fill="#94D82D"/><path fill="none" d="m1100.59 828.594-14.525 68.335-19.308-4.104 14.525-68.335z"/><path fill="none" d="m1100.34 829.769-20.151 65.911-13.183-4.03 20.151-65.911z"/><path fill-rule="evenodd" clip-rule="evenodd" d="M1093.75 827.753a6.898 6.898 0 0 1 4.58 8.607l-16.12 52.729c-1.12 3.64-4.97 5.689-8.61 4.576a6.898 6.898 0 0 1-4.58-8.607l16.12-52.728c1.12-3.641 4.97-5.69 8.61-4.577Z" fill="#FCC419"/><path fill="none" d="m1097.46 963.697-5.072 23.864-68.697-14.602 5.073-23.864z"/><path fill="none" d="m1026.52 959.642 68.829 3.607-.722 13.766-68.828-3.607z"/><path fill-rule="evenodd" clip-rule="evenodd" d="M1026.16 966.525a6.89 6.89 0 0 1 7.24-6.523l55.07 2.886a6.89 6.89 0 0 1 6.52 7.244 6.89 6.89 0 0 1-7.24 6.522l-55.07-2.886a6.89 6.89 0 0 1-6.52-7.243Z" fill="#845EF7"/><path fill="none" d="m1071.32 1052.78-12.567 59.123-55.13-11.718 12.567-59.123z"/><path fill="none" d="m1048.73 1109.77-34.462-59.69 11.939-6.892 34.461 59.69z"/><path fill-rule="evenodd" clip-rule="evenodd" d="M1054.7 1106.33a6.89 6.89 0 0 1-9.41-2.53l-27.57-47.75a6.877 6.877 0 0 1 2.52-9.41 6.89 6.89 0 0 1 9.42 2.52l27.56 47.75a6.89 6.89 0 0 1-2.52 9.42Z" fill="#FF6B6B"/><path fill="none" d="m1047.51 1159.29-12.94 60.878-52.905-11.245 12.94-60.878z"/><path fill="none" d="m983.47 1200.43 53.563-43.375 8.675 10.713-53.563 43.375z"/><path fill-rule="evenodd" clip-rule="evenodd" d="M987.808 1205.79c-2.396-2.96-1.94-7.3 1.019-9.69l42.853-34.7c2.96-2.4 7.3-1.94 9.69 1.02 2.4 2.95 1.94 7.29-1.02 9.69l-42.848 34.7a6.887 6.887 0 0 1-9.694-1.02Z" fill="#329AF0"/><path fill="none" d="m1025.75 1268.9-12.435 58.501-55.84-11.869 12.435-58.501z"/><path fill="none" d="m1003.46 1325.31-35.498-59.079 11.816-7.1 35.498 59.08z"/><path fill-rule="evenodd" clip-rule="evenodd" d="M1009.37 1321.76c-3.27 1.96-7.5.9-9.461-2.36l-28.398-47.26a6.893 6.893 0 0 1 2.358-9.46 6.887 6.887 0 0 1 9.458 2.36l28.403 47.26c1.96 3.26.9 7.5-2.36 9.46Z" fill="#F06595"/><path fill="none" d="m1004.93 1397.97-3.859 18.153-68.192-14.494 3.858-18.154z"/><path fill="none" d="m937.68 1383.68 66.253 18.998-3.8 13.25-66.253-18.997z"/><path fill-rule="evenodd" clip-rule="evenodd" d="M935.78 1390.3a6.889 6.889 0 0 1 8.526-4.72l53.002 15.19a6.892 6.892 0 0 1 4.722 8.53 6.885 6.885 0 0 1-8.522 4.72l-53.002-15.19a6.898 6.898 0 0 1-4.726-8.53Z" fill="#5C7CFA"/><path fill="none" d="m982.137 1487.75-11.245 52.905-60.878-12.94 11.245-52.905z"/><path fill="none" d="m929.745 1476.61 43.375 53.563-10.713 8.675-43.375-53.563z"/><path fill-rule="evenodd" clip-rule="evenodd" d="M924.388 1480.95a6.887 6.887 0 0 1 9.694 1.02l34.7 42.85c2.395 2.95 1.939 7.29-1.019 9.69a6.887 6.887 0 0 1-9.694-1.02l-34.7-42.85c-2.395-2.96-1.939-7.3 1.019-9.69Z" fill="#20C997"/><path fill="none" d="M1092.56-74.013 690.976 1815.29l-68.747-14.612L1023.813-88.625z"/><path fill="none" d="m1063.35 60.344-2.866 13.484-67.417-14.33 2.866-13.484z"/><path fill="none" d="m1060.48 73.827-67.417-14.33 2.866-13.484 67.417 14.33z"/><path fill-rule="evenodd" clip-rule="evenodd" d="M1061.91 67.085a6.888 6.888 0 0 1-8.17 5.31L999.806 60.93a6.892 6.892 0 0 1-5.309-8.175 6.891 6.891 0 0 1 8.173-5.308l53.93 11.463a6.89 6.89 0 0 1 5.31 8.175Z" fill="#FF6B6B"/><path fill="none" d="m1032.16 138.176-14.257 67.073-39.739-8.447 14.257-67.073z"/><path fill="none" d="m979.332 191.317 40.512-55.76 11.152 8.103-40.512 55.76z"/><path fill-rule="evenodd" clip-rule="evenodd" d="M984.908 195.369a6.892 6.892 0 0 1-1.525-9.628l32.407-44.607a6.895 6.895 0 0 1 9.63-1.525 6.888 6.888 0 0 1 1.52 9.627l-32.405 44.608a6.893 6.893 0 0 1-9.627 1.525Z" fill="#94D82D"/><path fill="none" d="m921.234 679.917-13.671 64.318-47.16-10.024 13.67-64.318z"/><path fill="none" d="m919.715 687.062-47.878 49.58-9.916-9.577 47.878-49.579z"/><path fill-rule="evenodd" clip-rule="evenodd" d="M914.757 682.275a6.891 6.891 0 0 1 .17 9.746l-38.302 39.662a6.892 6.892 0 1 1-9.916-9.575l38.302-39.663a6.892 6.892 0 0 1 9.746-.17Z" fill="#FCC419"/><path fill="none" d="m893.517 784.788-14.405 67.771-36.748-7.811 14.405-67.771z"/><path fill="none" d="m869.357 779.652 10.782 68.074-13.615 2.157-10.782-68.075z"/><path fill-rule="evenodd" clip-rule="evenodd" d="M862.549 780.731a6.891 6.891 0 0 1 7.886 5.729l8.626 54.459a6.893 6.893 0 0 1-13.616 2.156l-8.625-54.459a6.892 6.892 0 0 1 5.729-7.885Z" fill="#FF6B6B"/><path fill="none" d="m882.006 905.306-10.208 48.026-63.884-13.579 10.208-48.026z"/><path fill="none" d="m825.465 893.288 48.736 48.736-9.748 9.747-48.735-48.736z"/><path fill-rule="evenodd" clip-rule="evenodd" d="M820.592 898.162a6.891 6.891 0 0 1 9.747 0l38.988 38.988a6.893 6.893 0 0 1-9.747 9.748l-38.988-38.989a6.891 6.891 0 0 1 0-9.747Z" fill="#FF922B"/><path fill="none" d="m841.309 998.787-14.602 68.696-23.864-5.072 14.602-68.696z"/><path fill="none" d="m840.86 1000.9-24.7 64.345-12.87-4.94 24.7-64.345z"/><path fill-rule="evenodd" clip-rule="evenodd" d="M834.426 998.426a6.894 6.894 0 0 1 3.964 8.904l-19.759 51.48c-1.365 3.55-5.351 5.33-8.905 3.96a6.887 6.887 0 0 1-3.965-8.9l19.76-51.48a6.893 6.893 0 0 1 8.905-3.964Z" fill="#FF6B6B"/><path fill="none" d="m836.474 1123.43-9.258 43.556-65.856-13.998 9.258-43.556z"/><path fill="none" d="m763.891 1141.09 66.253-18.998 3.8 13.251-66.253 18.998z"/><path fill-rule="evenodd" clip-rule="evenodd" d="M765.791 1147.71a6.887 6.887 0 0 1 4.726-8.52l53.002-15.2a6.888 6.888 0 0 1 8.525 4.72 6.898 6.898 0 0 1-4.726 8.53l-53.002 15.2a6.893 6.893 0 0 1-8.525-4.73Z" fill="#CC5DE8"/><path fill="none" d="m806.709 1219.29-13.579 63.884-48.026-10.208 13.579-63.884z"/><path fill="none" d="m746.665 1265.62 48.736-48.736 9.747 9.748-48.736 48.735z"/><path fill-rule="evenodd" clip-rule="evenodd" d="M751.539 1270.49a6.883 6.883 0 0 1 0-9.74l38.988-38.99a6.896 6.896 0 0 1 9.748 0c2.691 2.69 2.691 7.05 0 9.75l-38.989 38.98a6.877 6.877 0 0 1-9.747 0Z" fill="#845EF7"/><path fill="none" d="m790.842 1340.55-8.858 41.672-66.504-14.136 8.858-41.672z"/><path fill="none" d="m788.266 1352.67-66.876 16.674-3.335-13.376 66.876-16.674z"/><path fill-rule="evenodd" clip-rule="evenodd" d="M786.598 1345.98a6.888 6.888 0 0 1-5.02 8.35l-53.5 13.34a6.888 6.888 0 0 1-8.355-5.02 6.888 6.888 0 0 1 5.02-8.35l53.5-13.34a6.895 6.895 0 0 1 8.355 5.02Z" fill="#51CF66"/><path fill="none" d="m762.657 1436.67-13.057 61.427-52.131-11.081 13.057-61.427z"/><path fill="none" d="m699.233 1478.72 52.798-44.303 8.86 10.56-52.797 44.303z"/><path fill-rule="evenodd" clip-rule="evenodd" d="M703.664 1484c-2.447-2.92-2.067-7.27.849-9.71l42.238-35.44a6.895 6.895 0 0 1 9.711.84 6.904 6.904 0 0 1-.85 9.72l-42.238 35.44a6.904 6.904 0 0 1-9.71-.85Z" fill="#FF922B"/><path fill="none" d="M876.949-120.862 472.754 1780.725l-68.61-14.583L808.34-135.445z"/><path fill="none" d="M838.244-16.001 823.839 51.77l-36.748-7.811 14.405-67.771z"/><path fill="none" d="m837.217-11.169-37.538 57.804-11.561-7.508 37.538-57.804z"/><path fill-rule="evenodd" clip-rule="evenodd" d="M831.436-14.923a6.892 6.892 0 0 1 2.027 9.535l-30.03 46.242a6.893 6.893 0 0 1-11.561-7.508l30.03-46.242a6.892 6.892 0 0 1 9.534-2.027Z" fill="#FF6B6B"/><path fill="none" d="m820.56 94.834-13.579 63.884-48.026-10.208 13.579-63.884z"/><path fill="none" d="m783.842 87.03 24.7 64.344-12.87 4.94-24.7-64.345z"/><path fill-rule="evenodd" clip-rule="evenodd" d="M777.407 89.5a6.893 6.893 0 0 1 8.905 3.964l19.76 51.476a6.893 6.893 0 0 1-12.87 4.94l-19.759-51.476a6.891 6.891 0 0 1 3.964-8.905Z" fill="#22B8CF"/><path fill="none" d="m802.072 229.279-3.116 14.659-67.642-14.378 3.116-14.659z"/><path fill="none" d="m734.666 214.951 67.157 15.504-3.101 13.432-67.157-15.504zM692.254 628.997l-14.55 68.457-20.458-4.349 14.551-68.456z"/><path fill="none" d="m664.293 694.604 7.204-68.545 13.71 1.44-7.205 68.546z"/><path fill-rule="evenodd" clip-rule="evenodd" d="M671.148 695.324a6.893 6.893 0 0 1-6.135-7.575l5.764-54.836a6.892 6.892 0 0 1 7.575-6.134 6.892 6.892 0 0 1 6.134 7.575l-5.763 54.836a6.893 6.893 0 0 1-7.575 6.134Z" fill="#94D82D"/><path fill="none" d="m685.695 745.331-12.567 59.123-55.13-11.718 12.567-59.123z"/><path fill="none" d="m663.107 802.324-34.462-59.69 11.939-6.892 34.461 59.69z"/><path fill-rule="evenodd" clip-rule="evenodd" d="M669.076 798.878a6.892 6.892 0 0 1-9.415-2.523l-27.569-47.751a6.892 6.892 0 1 1 11.938-6.892l27.569 47.751a6.891 6.891 0 0 1-2.523 9.415Z" fill="#FF922B"/><path fill="none" d="m666.903 864.771-8.237 38.753-67.326-14.31 8.237-38.754z"/><path fill="none" d="m664.265 877.184-67.657 13.151-2.63-13.532 67.657-13.15z"/><path fill-rule="evenodd" clip-rule="evenodd" d="M662.95 870.418a6.894 6.894 0 0 1-5.451 8.081l-54.125 10.521a6.892 6.892 0 1 1-2.63-13.532l54.125-10.521a6.893 6.893 0 0 1 8.081 5.451Z" fill="#CC5DE8"/><path fill="none" d="m643.999 971.261-8.653 40.711-66.8-14.198 8.654-40.711z"/><path fill="none" d="m582.899 958.273 55.044 41.479-8.296 11.01-55.044-41.48z"/><path fill-rule="evenodd" clip-rule="evenodd" d="M578.751 963.778a6.893 6.893 0 0 1 9.652-1.357l44.036 33.183a6.896 6.896 0 0 1 1.356 9.656c-2.291 3.04-6.612 3.64-9.652 1.35l-44.035-33.18a6.89 6.89 0 0 1-1.357-9.652Z" fill="#FF6B6B"/><path fill="none" d="m620.763 1084.4-6.477 30.473-68.61-14.583 6.478-30.473z"/><path fill="none" d="m548.444 1087.27 68.829-3.607.721 13.766-68.829 3.607z"/><path fill-rule="evenodd" clip-rule="evenodd" d="M548.805 1094.15c-.199-3.8 2.721-7.05 6.522-7.25l55.063-2.88a6.89 6.89 0 0 1 7.243 6.52c.2 3.8-2.72 7.05-6.522 7.25l-55.062 2.88a6.89 6.89 0 0 1-7.244-6.52Z" fill="#94D82D"/><path fill="none" d="m585.718 1170.32-14.405 67.771-36.748-7.811 14.405-67.771z"/><path fill="none" d="m535.592 1225.45 37.538-57.804 11.561 7.508-37.538 57.804z"/><path fill-rule="evenodd" clip-rule="evenodd" d="M541.372 1229.2a6.887 6.887 0 0 1-2.026-9.53l30.03-46.25a6.887 6.887 0 0 1 9.534-2.02 6.887 6.887 0 0 1 2.027 9.53l-30.03 46.24a6.89 6.89 0 0 1-9.535 2.03Z" fill="#FCC419"/><path fill="none" d="m571.621 1285.11-12.435 58.501-55.84-11.869 12.435-58.501z"/><path fill="none" d="m569.667 1294.3-56.458 39.533-7.907-11.292 56.458-39.533z"/><path fill-rule="evenodd" clip-rule="evenodd" d="M565.713 1288.66a6.893 6.893 0 0 1-1.692 9.6l-45.167 31.62a6.884 6.884 0 0 1-9.599-1.69 6.894 6.894 0 0 1 1.692-9.6l45.167-31.62a6.884 6.884 0 0 1 9.599 1.69Z" fill="#CC5DE8"/><path fill="none" d="m537.333 1385.14-14.565 68.521-31.544-6.705 14.565-68.52z"/><path fill="none" d="m492.014 1443.24 32.357-60.855 12.172 6.471-32.358 60.856z"/><path fill-rule="evenodd" clip-rule="evenodd" d="M498.099 1446.47c-3.361-1.78-4.637-5.96-2.85-9.32l25.886-48.68a6.891 6.891 0 0 1 9.322-2.85 6.89 6.89 0 0 1 2.849 9.32l-25.885 48.68a6.883 6.883 0 0 1-9.322 2.85Z" fill="#F06595"/><path fill="none" d="m522.186 1497.03-13.579 63.884-48.026-10.208 13.579-63.884z"/><path fill="none" d="m462.142 1543.36 48.736-48.736 9.747 9.748-48.736 48.735z"/><path fill-rule="evenodd" clip-rule="evenodd" d="M467.016 1548.23c-2.692-2.69-2.692-7.05 0-9.75l38.988-38.98a6.878 6.878 0 0 1 9.748 0 6.885 6.885 0 0 1 0 9.74l-38.989 38.99a6.895 6.895 0 0 1-9.747 0Z" fill="#FF6B6B"/><path fill="none" d="M656.353-143.146 261.83 1712.938l-68.78-14.62L587.573-157.766z"/><path fill="none" d="M628.491-58.25 615.109 4.708 565.395-5.858l13.383-62.959z"/><path fill="none" d="m589.823-66.47 26.93 63.444-12.689 5.386-26.93-63.443z"/><path fill-rule="evenodd" clip-rule="evenodd" d="M583.478-63.777a6.893 6.893 0 0 1 9.038 3.652L614.06-9.37a6.893 6.893 0 1 1-12.689 5.386L579.827-54.74a6.892 6.892 0 0 1 3.651-9.038Z" fill="#FF6B6B"/><path fill="none" d="m606.605 50.63-13.057 61.427-52.131-11.081 13.057-61.427z"/><path fill="none" d="m565.099 41.808 30.214 61.947-12.39 6.043-30.214-61.947z"/><path fill-rule="evenodd" clip-rule="evenodd" d="M558.904 44.83a6.893 6.893 0 0 1 9.217 3.172l24.17 49.558a6.892 6.892 0 1 1-12.389 6.043l-24.171-49.558a6.892 6.892 0 0 1 3.173-9.216Z" fill="#FF922B"/><path fill="none" d="m572.541 152.479-14.607 68.722-28.304-6.016 14.607-68.722z"/><path fill="none" d="m571.896 155.513-29.128 62.465-12.494-5.825 29.129-62.466zM496.969 602.146l-8.653 40.711-66.8-14.198 8.654-40.711z"/><path fill="none" d="m494.372 614.367-67.157 15.504-3.1-13.431 67.156-15.505z"/><path fill-rule="evenodd" clip-rule="evenodd" d="M492.821 607.651a6.894 6.894 0 0 1-5.165 8.267l-53.725 12.403a6.892 6.892 0 1 1-3.101-13.432l53.725-12.403a6.892 6.892 0 0 1 8.266 5.165Z" fill="#FF6B6B"/><path fill="none" d="m471.539 701.912-11.718 55.13-59.123-12.567 11.718-55.13z"/><path fill="none" d="m450.798 755.125-40.512-55.76 11.152-8.102 40.512 55.76z"/><path fill-rule="evenodd" clip-rule="evenodd" d="M456.374 751.074a6.893 6.893 0 0 1-9.627-1.525l-32.41-44.608a6.893 6.893 0 0 1 11.152-8.102l32.41 44.607a6.893 6.893 0 0 1-1.525 9.628Z" fill="#FF922B"/><path fill="none" d="m437.24 800.403-14.514 68.284-33.656-7.154 14.514-68.284z"/><path fill="none" d="m409.902 865.961-7.204-68.545 13.71-1.441 7.203 68.545z"/><path fill-rule="evenodd" clip-rule="evenodd" d="M416.757 865.24a6.893 6.893 0 0 1-7.576-6.134l-5.763-54.836a6.892 6.892 0 0 1 13.709-1.441l5.764 54.836a6.892 6.892 0 0 1-6.134 7.575Z" fill="#FF6B6B"/><path fill="none" d="m422.196 912.811-13.278 62.466-50.535-10.741 13.278-62.467z"/><path fill="none" d="m360.068 956.61 51.22-46.118 9.224 10.244-51.22 46.118z"/><path fill-rule="evenodd" clip-rule="evenodd" d="M364.68 961.732a6.892 6.892 0 0 1 .51-9.734l40.975-36.894a6.892 6.892 0 1 1 9.224 10.244l-40.975 36.895a6.892 6.892 0 0 1-9.734-.511Z" fill="#FF6B6B"/><path fill="none" d="m402.905 1046.35-3.116 14.659-67.642-14.378 3.116-14.659z"/><path fill="none" d="m335.013 1033.15 67.657 13.151-2.63 13.532-67.657-13.151z"/><path fill-rule="evenodd" clip-rule="evenodd" d="M333.698 1039.92a6.902 6.902 0 0 1 8.081-5.46l54.125 10.53c3.737.72 6.177 4.34 5.451 8.08-.727 3.73-4.344 6.17-8.081 5.45L339.149 1048c-3.737-.73-6.177-4.35-5.451-8.08Z" fill="#CC5DE8"/><path fill="none" d="m382.012 1147.53-6.016 28.304-68.722-14.608 6.016-28.303z"/><path fill="none" d="m316.323 1133.56 62.465 29.128-5.825 12.494-62.466-29.129z"/><path fill-rule="evenodd" clip-rule="evenodd" d="M313.41 1139.81a6.89 6.89 0 0 1 9.16-3.33l49.972 23.3a6.89 6.89 0 1 1-5.826 12.49l-49.972-23.3a6.894 6.894 0 0 1-3.334-9.16Z" fill="#FF6B6B"/><path fill="none" d="m336.339 1230.19-14.378 67.642-14.658-3.116 14.377-67.642z"/><path fill="none" d="m336.289 1230.43-15.504 67.157-13.432-3.101 15.504-67.157z"/><path fill-rule="evenodd" clip-rule="evenodd" d="M329.573 1228.88c3.709.85 6.022 4.56 5.165 8.26l-12.403 53.73a6.885 6.885 0 0 1-8.266 5.16 6.883 6.883 0 0 1-5.166-8.26l12.404-53.73a6.885 6.885 0 0 1 8.266-5.16Z" fill="#94D82D"/><path fill="none" d="m325.517 1341.01-14.257 67.073-39.739-8.447 14.257-67.073z"/><path fill="none" d="m298.943 1405.46-14.33-67.417 13.484-2.866 14.33 67.417z"/><path fill-rule="evenodd" clip-rule="evenodd" d="M305.684 1404.03a6.896 6.896 0 0 1-8.174-5.31l-11.464-53.93a6.893 6.893 0 1 1 13.483-2.87l11.464 53.93a6.893 6.893 0 0 1-5.309 8.18Z" fill="#FF6B6B"/><path fill="none" d="m306.826 1451.49-13.483 63.43-48.877-10.388 13.483-63.431z"/><path fill="none" d="m246.069 1496.99 49.58-47.878 9.575 9.916-49.58 47.878z"/><path fill-rule="evenodd" clip-rule="evenodd" d="M250.857 1501.95a6.898 6.898 0 0 1 .17-9.75l39.663-38.3c2.738-2.64 7.102-2.57 9.746.17a6.898 6.898 0 0 1-.17 9.75l-39.663 38.3c-2.738 2.64-7.102 2.57-9.746-.17Z" fill="#FF6B6B"/><path fill="none" d="M445.39-212.026 41.187 1689.601l-68.676-14.598L376.714-226.623z"/><path fill="none" d="m394.011 10.166-11.245 52.905-60.878-12.94 11.245-52.905z"/><path fill="none" d="M374.281 61.268 330.906 7.704 341.62-.97l43.375 53.563z"/><path fill-rule="evenodd" clip-rule="evenodd" d="M379.637 56.93a6.893 6.893 0 0 1-9.694-1.019l-34.699-42.85a6.892 6.892 0 1 1 10.712-8.675l34.7 42.85a6.893 6.893 0 0 1-1.019 9.694Z" fill="#FF6B6B"/><path fill="none" d="m360.068 107.735-14.446 67.963-35.728-7.595 14.446-67.962z"/><path fill="none" d="m332.952 173.005-9.592-68.252 13.65-1.919 9.593 68.252z"/><path fill-rule="evenodd" clip-rule="evenodd" d="M339.777 172.046a6.894 6.894 0 0 1-7.785-5.866l-7.673-54.602a6.891 6.891 0 0 1 5.866-7.784 6.891 6.891 0 0 1 7.784 5.866l7.674 54.601a6.892 6.892 0 0 1-5.866 7.785Z" fill="#845EF7"/><path fill="none" d="m343.922 219.703-13.382 62.958-49.714-10.566 13.383-62.959z"/><path fill="none" d="m342.278 227.438-50.407 47.005-9.401-10.081 50.407-47.006z"/><path fill-rule="evenodd" clip-rule="evenodd" d="M337.577 222.397a6.891 6.891 0 0 1-.34 9.741l-40.325 37.604a6.893 6.893 0 0 1-9.401-10.081l40.325-37.604a6.891 6.891 0 0 1 9.741.34Z" fill="#FF922B"/><path fill="none" d="m304.139 450.661-7.594 35.728-67.963-14.446 7.594-35.728z"/><path fill="none" d="m231.275 459.273 68.252-9.592 1.919 13.65-68.252 9.593zM263.992 537.831l-14.613 68.751-26.1-5.548 14.613-68.75z"/><path fill="none" d="m263.445 540.404-26.93 63.444-12.69-5.386 26.93-63.444zM258.166 663.271l-8.858 41.672-66.504-14.136 8.858-41.672z"/><path fill="none" d="m185.38 678.689 66.876-16.674 3.335 13.376-66.876 16.674z"/><path fill-rule="evenodd" clip-rule="evenodd" d="M187.047 685.377a6.893 6.893 0 0 1 5.021-8.355l53.5-13.339a6.893 6.893 0 0 1 3.335 13.375l-53.501 13.339a6.892 6.892 0 0 1-8.355-5.02Z" fill="#FF922B"/><path fill="none" d="m233.177 784.576-3.364 15.828-67.847-14.42 3.365-15.83z"/><path fill="none" d="m230.312 798.052-67.876-11.968 2.394-13.576 67.876 11.968z"/><path fill-rule="evenodd" clip-rule="evenodd" d="M231.509 791.264a6.892 6.892 0 0 1-7.984 5.591l-54.301-9.575a6.892 6.892 0 0 1 2.394-13.575l54.3 9.574a6.893 6.893 0 0 1 5.591 7.985Z" fill="#F06595"/><path fill="none" d="m204.433 865.346-13.843 65.126-45.386-9.647 13.843-65.126z"/><path fill="none" d="m203 872.088-46.118 51.22-10.245-9.224 46.119-51.22z"/><path fill-rule="evenodd" clip-rule="evenodd" d="M197.878 867.476a6.892 6.892 0 0 1 .51 9.734l-36.895 40.975a6.892 6.892 0 1 1-10.244-9.223l36.895-40.976a6.892 6.892 0 0 1 9.734-.51Z" fill="#F06595"/><path fill="none" d="m189.423 986.732-9.06 42.62-66.19-14.068 9.06-42.621z"/><path fill="none" d="m186.869 998.746-66.575 17.839-3.567-13.316 66.574-17.838z"/><path fill-rule="evenodd" clip-rule="evenodd" d="M185.085 992.089a6.891 6.891 0 0 1-4.873 8.441l-53.259 14.27c-3.677.99-7.457-1.2-8.442-4.87-.985-3.68 1.197-7.46 4.874-8.44l53.259-14.275a6.892 6.892 0 0 1 8.441 4.874Z" fill="#CC5DE8"/><path fill="none" d="m160.951 1083.02-13.17 61.956-51.34-10.913 13.169-61.956z"/><path fill="none" d="m98.166 1125.95 52.017-45.218 9.043 10.404-52.016 45.218z"/><path fill-rule="evenodd" clip-rule="evenodd" d="M102.688 1131.15a6.888 6.888 0 0 1 .68-9.72l41.613-36.17a6.883 6.883 0 0 1 9.723.68 6.888 6.888 0 0 1-.68 9.72l-41.613 36.17a6.883 6.883 0 0 1-9.723-.68Z" fill="#FF6B6B"/><path fill="none" d="m142.316 1213.41-4.348 20.457-68.457-14.55 4.348-20.458z"/><path fill="none" d="m72.361 1205.91 68.546 7.204-1.441 13.71-68.546-7.205z"/><path fill-rule="evenodd" clip-rule="evenodd" d="M71.64 1212.76a6.892 6.892 0 0 1 7.576-6.13l54.836 5.76a6.896 6.896 0 0 1 6.134 7.58 6.892 6.892 0 0 1-7.575 6.13l-54.836-5.76a6.896 6.896 0 0 1-6.134-7.58Z" fill="#22B8CF"/><path fill="none" d="m105.152 1293.2-14.597 68.676-29.393-6.248 14.598-68.676z"/><path fill="none" d="m88.843 1289.73 2.405 68.881-13.776.481-2.406-68.88z"/><path fill-rule="evenodd" clip-rule="evenodd" d="M81.954 1289.97a6.899 6.899 0 0 1 7.13 6.65l1.924 55.11a6.886 6.886 0 0 1-6.648 7.12c-3.804.14-6.996-2.84-7.129-6.64l-1.924-55.11c-.133-3.8 2.843-6.99 6.647-7.13Z" fill="#FF6B6B"/><path fill="none" d="m91.763 1406.02-13.382 62.958-49.713-10.566 13.382-62.959z"/><path fill="none" d="m53.094 1397.8 26.93 63.444-12.688 5.386-26.93-63.444z"/><path fill-rule="evenodd" clip-rule="evenodd" d="M46.75 1400.49c3.504-1.49 7.55.15 9.038 3.65l21.544 50.76c1.487 3.5-.148 7.55-3.652 9.03a6.884 6.884 0 0 1-9.037-3.65l-21.544-50.75a6.894 6.894 0 0 1 3.651-9.04Z" fill="#FF6B6B"/><path fill="none" d="m74.488 1532.93-6.248 29.392-68.675-14.597 6.247-29.392z"/><path fill="none" d="m64.978 1561.63-61.947-30.214 6.043-12.39 61.947 30.214z"/><path fill-rule="evenodd" clip-rule="evenodd" d="M68 1555.43c-1.669 3.42-5.795 4.85-9.216 3.18l-49.558-24.17a6.897 6.897 0 0 1-3.173-9.22 6.891 6.891 0 0 1 9.216-3.17l49.557 24.17a6.886 6.886 0 0 1 3.174 9.21Z" fill="#FF6B6B"/><path fill="none" d="m229.486-257.109-404.041 1900.864-68.845-14.634L160.641-271.742z"/><path fill="none" d="M163.443-47.23 148.83 21.517l-27.206-5.783 14.613-68.747z"/><path fill="none" d="m162.847-44.427-28.034 62.964-12.593-5.606 28.034-62.965z"/><path fill-rule="evenodd" clip-rule="evenodd" d="M156.55-47.23a6.893 6.893 0 0 1 3.494 9.1l-22.427 50.37a6.893 6.893 0 0 1-12.593-5.606l22.426-50.371a6.893 6.893 0 0 1 9.1-3.493Z" fill="#F06595"/><path fill="none" d="m142.676 61.117-14.565 68.521-31.544-6.705 14.565-68.52z"/><path fill="none" d="m124.094 57.167 4.808 68.755-13.752.962-4.807-68.755z"/><path fill-rule="evenodd" clip-rule="evenodd" d="M117.218 57.648a6.893 6.893 0 0 1 7.357 6.395l3.846 55.003a6.894 6.894 0 0 1-13.752.962l-3.846-55.004a6.893 6.893 0 0 1 6.395-7.356Z" fill="#20C997"/><path fill="none" d="m133.725 183.463-9.837 46.28-64.732-13.76 9.837-46.28z"/><path fill="none" d="m61.613 204.426 65.168-22.44 4.488 13.035L66.1 217.46z"/><path fill-rule="evenodd" clip-rule="evenodd" d="M63.857 210.943a6.893 6.893 0 0 1 4.273-8.761l52.134-17.951a6.892 6.892 0 1 1 4.488 13.033l-52.134 17.952a6.893 6.893 0 0 1-8.761-4.273Z" fill="#FCC419"/><path fill="none" d="m105.307 281.987-13.278 62.466-50.535-10.741 13.278-62.467z"/><path fill="none" d="m81.12 342.136-28.033-62.964 12.594-5.607 28.033 62.964z"/><path fill-rule="evenodd" clip-rule="evenodd" d="M87.417 339.332a6.891 6.891 0 0 1-9.1-3.493l-22.426-50.371a6.893 6.893 0 0 1 12.593-5.607l22.427 50.371a6.892 6.892 0 0 1-3.494 9.1Z" fill="#51CF66"/><path fill="none" d="m71.749 384.154-14.613 68.747-27.206-5.783 14.612-68.747z"/><path fill="none" d="M57.732 381.175v68.923H43.947v-68.923z"/><path fill-rule="evenodd" clip-rule="evenodd" d="M50.84 381.175a6.892 6.892 0 0 1 6.892 6.892v55.138a6.893 6.893 0 1 1-13.785 0v-55.138a6.892 6.892 0 0 1 6.892-6.892Z" fill="#FF6B6B"/><path fill="none" d="m63.372 522.612-3.364 15.828-67.847-14.42 3.365-15.83z"/><path fill="none" d="m-4.004 508.291 66.876 16.674-3.335 13.376-66.876-16.674zM41.89 624.98l-5.783 27.206-68.747-14.612 5.782-27.207z"/><path fill="none" d="m-24.054 610.964 62.964 28.034-5.607 12.593-62.964-28.034z"/><path fill-rule="evenodd" clip-rule="evenodd" d="M-26.857 617.26a6.893 6.893 0 0 1 9.1-3.493l50.37 22.427a6.892 6.892 0 1 1-5.606 12.593l-50.371-22.427a6.892 6.892 0 0 1-3.493-9.1Z" fill="#329AF0"/><path fill="none" d="M18.902 722.63 8.878 769.79l-64.318-13.67 10.024-47.161z"/><path fill="none" d="m1.733 768.271-49.58-47.878 9.576-9.916 49.58 47.878z"/><path fill-rule="evenodd" clip-rule="evenodd" d="M6.52 763.313a6.892 6.892 0 0 1-9.745.171l-39.663-38.302a6.893 6.893 0 0 1 9.575-9.916L6.35 753.568a6.891 6.891 0 0 1 .17 9.745Z" fill="#329AF0"/><path fill="none" d="m1641.46-4.74-402.226 1892.325-68.457-14.55L1573.003-19.29z"/><path fill="none" d="m1430.98 983.419-3.116 14.659-67.642-14.378 3.116-14.659z"/><path fill="none" d="m1428.12 996.9-67.657-13.151 2.63-13.532 67.657 13.151z"/><path fill-rule="evenodd" clip-rule="evenodd" d="M1429.43 990.135a6.891 6.891 0 0 1-8.08 5.45l-54.13-10.521c-3.73-.726-6.17-4.344-5.45-8.081.73-3.736 4.35-6.176 8.08-5.45l54.13 10.521a6.886 6.886 0 0 1 5.45 8.081Z" fill="#CC5DE8"/><path fill="none" d="m1402.14 1063.56-13.843 65.126-45.386-9.647 13.843-65.126z"/><path fill="none" d="m1376.62 1126.2-21.298-65.55 13.11-4.26 21.298 65.55z"/><path fill-rule="evenodd" clip-rule="evenodd" d="M1383.18 1124.07a6.894 6.894 0 0 1-8.69-4.42l-17.03-52.44c-1.18-3.62.8-7.51 4.42-8.69 3.62-1.18 7.51.81 8.69 4.43l17.03 52.44c1.18 3.62-.8 7.5-4.42 8.68Z" fill="#CC5DE8"/><path fill="none" d="m1386.03 1196.52-4.104 19.308-68.335-14.525 4.104-19.308z"/><path fill="none" d="m1316.44 1187.87 68.41 8.4-1.68 13.682-68.41-8.4z"/><path fill-rule="evenodd" clip-rule="evenodd" d="M1315.6 1194.72c.47-3.78 3.91-6.47 7.68-6.01l54.73 6.72c3.78.47 6.47 3.91 6 7.68a6.896 6.896 0 0 1-7.68 6.01l-54.73-6.72c-3.77-.47-6.46-3.91-6-7.68Z" fill="#51CF66"/><path fill="none" d="m1351.28 1276.49-14.482 68.134-34.698-7.375 14.482-68.134z"/><path fill="none" d="m1303.03 1332.86 35.498-59.079 11.816 7.1-35.498 59.079z"/><path fill-rule="evenodd" clip-rule="evenodd" d="M1308.94 1336.41c-3.26-1.96-4.32-6.2-2.36-9.46l28.4-47.26c1.96-3.26 6.2-4.32 9.46-2.36 3.26 1.96 4.32 6.2 2.36 9.46l-28.4 47.26a6.897 6.897 0 0 1-9.46 2.36Z" fill="#FF922B"/><path fill="none" d="m1340.31 1412.07-4.348 20.457-68.457-14.55 4.348-20.458z"/><path fill="none" d="m1337.46 1425.48-68.545-7.204 1.44-13.71 68.546 7.205z"/><path fill-rule="evenodd" clip-rule="evenodd" d="M1338.18 1418.63c-.4 3.78-3.79 6.53-7.57 6.13l-54.84-5.76a6.888 6.888 0 0 1-6.13-7.58c.39-3.78 3.79-6.53 7.57-6.13l54.84 5.76c3.78.4 6.53 3.79 6.13 7.58Z" fill="#F06595"/><path fill="none" d="m1318.42 1506.3-9.837 46.28-64.732-13.76 9.837-46.28z"/><path fill="none" d="m1260.63 1494.02 50.407 47.005-9.401 10.082-50.407-47.005z"/><path fill-rule="evenodd" clip-rule="evenodd" d="M1255.93 1499.06c2.59-2.78 6.96-2.94 9.74-.34l40.32 37.6c2.79 2.6 2.94 6.96.34 9.74-2.59 2.79-6.95 2.94-9.74.34l-40.32-37.6a6.882 6.882 0 0 1-.34-9.74Z" fill="#20C997"/><path fill="none" d="m1424.57-44.522-400.265 1883.1-68.722-14.606 400.265-1883.1z"/><path fill="none" d="m1378.26 42.312-14.421 67.846-15.829-3.365 14.422-67.846z"/><path fill="none" d="m1350.36 107.293 11.968-67.876 13.576 2.394-11.968 67.876z"/><path fill-rule="evenodd" clip-rule="evenodd" d="M1357.15 108.49a6.892 6.892 0 0 1-5.59-7.985l9.57-54.3c.66-3.749 4.24-6.252 7.99-5.59a6.9 6.9 0 0 1 5.59 7.984l-9.58 54.3a6.887 6.887 0 0 1-7.98 5.591Z" fill="#FF6B6B"/><path fill="none" d="m1369.78 154.373-13.923 65.5-44.477-9.453 13.923-65.501z"/><path fill="none" d="m1337.09 147.426 20.151 65.911-13.183 4.03-20.15-65.91z"/><path fill-rule="evenodd" clip-rule="evenodd" d="M1330.5 149.441c3.64-1.113 7.49.936 8.61 4.576l16.12 52.729a6.897 6.897 0 0 1-13.19 4.03l-16.12-52.729a6.897 6.897 0 0 1 4.58-8.606Z" fill="#FCC419"/><path fill="none" d="m1354.42 285.51-5.072 23.864-68.697-14.602 5.073-23.864z"/><path fill="none" d="m1287.83 271.356 64.345 24.7-4.94 12.87-64.345-24.7z"/><path fill-rule="evenodd" clip-rule="evenodd" d="M1285.36 277.791a6.887 6.887 0 0 1 8.9-3.965l51.48 19.76a6.902 6.902 0 0 1 3.97 8.905c-1.37 3.554-5.36 5.329-8.91 3.964l-51.48-19.759c-3.55-1.364-5.32-5.351-3.96-8.905Z" fill="#22B8CF"/><path fill="none" d="m1285.7 473.815-14.33 67.417-13.484-2.866 14.33-67.417z"/><path fill="none" d="m1285.7 473.815-14.33 67.417-13.484-2.866 14.33-67.417z"/><path fill-rule="evenodd" clip-rule="evenodd" d="M1278.96 472.382a6.898 6.898 0 0 1 5.31 8.175l-11.46 53.933c-.8 3.724-4.46 6.101-8.18 5.309a6.897 6.897 0 0 1-5.31-8.175l11.47-53.933a6.89 6.89 0 0 1 8.17-5.309Z" fill="#F06595"/><path fill="none" d="m1245.93 690.108-14.613 68.751-26.1-5.548 14.613-68.75z"/><path fill="none" d="m1205.77 750.739 26.93-63.444 12.69 5.386-26.93 63.444z"/><path fill-rule="evenodd" clip-rule="evenodd" d="M1212.11 753.432a6.892 6.892 0 0 1-3.65-9.037l21.55-50.755a6.882 6.882 0 0 1 9.03-3.651 6.884 6.884 0 0 1 3.65 9.037l-21.54 50.755a6.893 6.893 0 0 1-9.04 3.651Z" fill="#CC5DE8"/><path fill="none" d="m1238.17 807.837-11.87 55.84-58.5-12.435 11.869-55.84z"/><path fill="none" d="m1188.86 797.356 39.533 56.458-11.292 7.907-39.533-56.458z"/><path fill-rule="evenodd" clip-rule="evenodd" d="M1183.22 801.31a6.893 6.893 0 0 1 9.6 1.692l31.62 45.167a6.884 6.884 0 0 1-1.69 9.599c-3.12 2.183-7.42 1.426-9.6-1.693l-31.63-45.166a6.895 6.895 0 0 1 1.7-9.599Z" fill="#22B8CF"/><path fill="none" d="m1205.64 907.64-14.405 67.771-36.748-7.811 14.405-67.771z"/><path fill="none" d="m1204.61 912.472-37.538 57.804-11.561-7.508 37.538-57.804z"/><path fill-rule="evenodd" clip-rule="evenodd" d="M1198.83 908.718a6.898 6.898 0 0 1 2.03 9.534l-30.03 46.243c-2.08 3.192-6.35 4.1-9.54 2.026a6.898 6.898 0 0 1-2.03-9.534l30.03-46.243c2.08-3.192 6.35-4.099 9.54-2.026Z" fill="#FF6B6B"/><path fill="none" d="m1192.62 1044.49-3.364 15.828-67.847-14.42 3.365-15.83z"/><path fill="none" d="m1125.25 1030.17 66.876 16.674-3.335 13.376-66.876-16.674z"/><path fill-rule="evenodd" clip-rule="evenodd" d="M1123.58 1036.86c.92-3.7 4.66-5.94 8.35-5.02l53.5 13.34c3.7.92 5.95 4.66 5.03 8.35a6.899 6.899 0 0 1-8.36 5.02l-53.5-13.34a6.892 6.892 0 0 1-5.02-8.35Z" fill="#FCC419"/><path fill="none" d="m1171.09 1135.42-10.39 48.877-63.43-13.483 10.39-48.877z"/><path fill="none" d="m1115.2 1123.54 47.878 49.58-9.916 9.575-47.878-49.58z"/><path fill-rule="evenodd" clip-rule="evenodd" d="M1110.24 1128.33a6.89 6.89 0 0 1 9.75.17l38.3 39.66c2.64 2.74 2.57 7.1-.17 9.74a6.89 6.89 0 0 1-9.75-.17l-38.3-39.66c-2.64-2.74-2.57-7.1.17-9.74Z" fill="#FF6B6B"/><path fill="none" d="m1146.85 1240.43-11.564 54.406-59.726-12.696 11.564-54.405z"/><path fill="none" d="m1144.69 1250.6-60.281 33.415-6.684-12.057 60.282-33.415z"/><path fill-rule="evenodd" clip-rule="evenodd" d="M1141.35 1244.57c1.84 3.33.64 7.53-2.69 9.37l-48.22 26.74c-3.33 1.84-7.53.64-9.37-2.69a6.893 6.893 0 0 1 2.68-9.37l48.23-26.73a6.887 6.887 0 0 1 9.37 2.68Z" fill="#94D82D"/><path fill="none" d="m1111.41 1338.16-14.565 68.521-31.544-6.705 14.565-68.52z"/><path fill="none" d="m1110.62 1341.88-32.357 60.855-12.172-6.471 32.358-60.856z"/><path fill-rule="evenodd" clip-rule="evenodd" d="M1104.54 1338.64a6.899 6.899 0 0 1 2.85 9.32l-25.89 48.69c-1.79 3.36-5.96 4.64-9.32 2.85-3.36-1.79-4.64-5.96-2.85-9.32l25.88-48.69c1.79-3.36 5.97-4.63 9.33-2.85Z" fill="#FF6B6B"/><path fill="none" d="m1100.78 1455.73-11.718 55.13-59.123-12.567 11.718-55.13z"/><path fill="none" d="m1098.65 1465.75-59.69 34.461-6.892-11.938 59.69-34.461z"/><path fill-rule="evenodd" clip-rule="evenodd" d="M1095.2 1459.78c1.9 3.3.78 7.51-2.52 9.42l-47.75 27.57a6.9 6.9 0 0 1-9.42-2.53 6.89 6.89 0 0 1 2.53-9.41l47.75-27.57a6.877 6.877 0 0 1 9.41 2.52Z" fill="#51CF66"/><path fill="none" d="M1211.34-102.396 812.38 1774.562l-68.734-14.61 398.96-1876.958z"/><path fill="none" d="m1184.96 21.502-6.248 29.392-68.675-14.597 6.247-29.392z"/><path fill="none" d="m1175.45 50.201-61.948-30.214 6.043-12.39 61.948 30.214z"/><path fill-rule="evenodd" clip-rule="evenodd" d="M1178.47 44.006a6.897 6.897 0 0 1-9.22 3.174l-49.55-24.171a6.886 6.886 0 0 1-3.18-9.216 6.897 6.897 0 0 1 9.22-3.174l49.56 24.171a6.891 6.891 0 0 1 3.17 9.216Z" fill="#FF6B6B"/><path fill="none" d="m1161.55 131.772-5.072 23.864-68.697-14.602 5.073-23.864z"/><path fill="none" d="m1090.61 127.717 68.829 3.607-.722 13.766-68.828-3.607z"/><path fill-rule="evenodd" clip-rule="evenodd" d="M1090.25 134.6a6.89 6.89 0 0 1 7.24-6.522l55.07 2.885a6.894 6.894 0 1 1-.73 13.766l-55.06-2.886a6.89 6.89 0 0 1-6.52-7.243Z" fill="#FF6B6B"/><path fill="none" d="m1139.05 228.509-9.647 45.386-65.126-13.843 9.647-45.386z"/><path fill="none" d="m1066.76 248.374 65.55-21.298 4.26 13.11-65.55 21.298z"/><path fill-rule="evenodd" clip-rule="evenodd" d="M1068.89 254.929c-1.18-3.62.81-7.509 4.43-8.685l52.44-17.038a6.888 6.888 0 0 1 8.68 4.425 6.887 6.887 0 0 1-4.42 8.685l-52.44 17.038a6.899 6.899 0 0 1-8.69-4.425Z" fill="#845EF7"/><path fill="none" d="m1039.42 647.758-13.923 65.5-44.477-9.453 13.923-65.501z"/><path fill="none" d="m1006.73 640.811 20.151 65.911-13.183 4.03-20.15-65.91z"/><path fill-rule="evenodd" clip-rule="evenodd" d="M1000.14 642.826c3.64-1.113 7.49.936 8.61 4.576l16.12 52.729a6.897 6.897 0 0 1-4.58 8.606 6.885 6.885 0 0 1-8.6-4.576l-16.125-52.729a6.892 6.892 0 0 1 4.575-8.606Z" fill="#F06595"/><path fill="none" d="m1016.44 755.843-13.923 65.5-44.477-9.453 13.923-65.501z"/><path fill="none" d="m983.758 748.896 20.151 65.911-13.183 4.03-20.15-65.91z"/><path fill-rule="evenodd" clip-rule="evenodd" d="M977.167 750.911a6.892 6.892 0 0 1 8.606 4.576l16.117 52.728a6.883 6.883 0 0 1-4.572 8.607 6.892 6.892 0 0 1-8.606-4.576l-16.121-52.729a6.892 6.892 0 0 1 4.576-8.606Z" fill="#94D82D"/><path fill="none" d="m1001.06 873.362-10.567 49.713-62.958-13.382 10.567-49.713z"/><path fill="none" d="m945.837 861.624 47.005 50.407-10.081 9.401-47.006-50.407z"/><path fill-rule="evenodd" clip-rule="evenodd" d="M940.797 866.325a6.892 6.892 0 0 1 9.741.34l37.604 40.325a6.893 6.893 0 1 1-10.082 9.401l-37.604-40.325a6.892 6.892 0 0 1 .341-9.741Z" fill="#845EF7"/><path fill="none" d="m978.261 994.145-5.31 24.986-68.734-14.61 5.31-24.986z"/><path fill="none" d="m907.039 991.241 68.881 2.405-.481 13.777-68.881-2.405z"/><path fill-rule="evenodd" clip-rule="evenodd" d="M906.798 998.129a6.892 6.892 0 0 1 7.129-6.647l55.104 1.924a6.892 6.892 0 0 1 6.648 7.124c-.133 3.81-3.325 6.79-7.129 6.65l-55.104-1.92c-3.805-.13-6.781-3.33-6.648-7.131Z" fill="#CC5DE8"/><path fill="none" d="m944.993 1077.96-14.31 67.326-38.754-8.237 14.31-67.326z"/><path fill="none" d="m943.873 1083.22-39.533 56.458-11.292-7.906 39.533-56.459z"/><path fill-rule="evenodd" clip-rule="evenodd" d="M938.227 1079.27a6.893 6.893 0 0 1 1.693 9.6l-31.626 45.17c-2.184 3.12-6.481 3.87-9.599 1.69-3.119-2.18-3.876-6.48-1.693-9.6l31.626-45.17a6.902 6.902 0 0 1 9.599-1.69Z" fill="#22B8CF"/><path fill="none" d="m912.69 1183.18-14.55 68.457-20.458-4.349 14.551-68.456z"/><path fill="none" d="m884.729 1248.79 7.204-68.545 13.71 1.44-7.205 68.546z"/><path fill-rule="evenodd" clip-rule="evenodd" d="M891.584 1249.51a6.897 6.897 0 0 1-6.135-7.58l5.764-54.83a6.9 6.9 0 0 1 7.575-6.14 6.895 6.895 0 0 1 6.134 7.58l-5.763 54.83c-.398 3.79-3.79 6.54-7.575 6.14Z" fill="#FCC419"/><path fill="none" d="m910.095 1310.54-8.447 39.74-67.072-14.258 8.446-39.739z"/><path fill="none" d="m896.164 1349.11-55.76-40.512 8.103-11.152 55.76 40.512z"/><path fill-rule="evenodd" clip-rule="evenodd" d="M900.215 1343.53c-2.237 3.08-6.547 3.77-9.627 1.53l-44.608-32.41a6.896 6.896 0 0 1-1.524-9.63 6.888 6.888 0 0 1 9.627-1.52l44.608 32.41c3.079 2.23 3.762 6.54 1.524 9.62Z" fill="#FF6B6B"/><path fill="none" d="m876.673 1401.79-14.257 67.073-39.739-8.447 14.257-67.073z"/><path fill="none" d="m875.507 1407.27-40.512 55.76-11.152-8.103 40.512-55.76z"/><path fill-rule="evenodd" clip-rule="evenodd" d="M869.931 1403.22a6.895 6.895 0 0 1 1.525 9.63l-32.409 44.61a6.896 6.896 0 0 1-11.152-8.11l32.409-44.6c2.237-3.08 6.548-3.77 9.627-1.53Z" fill="#FCC419"/><path fill="none" d="m863.945 1523.72-9.454 44.477-65.5-13.922 9.453-44.478z"/><path fill="none" d="m847.955 1566.81-52.017-45.218 9.044-10.403 52.017 45.217z"/><path fill-rule="evenodd" clip-rule="evenodd" d="M852.476 1561.61c-2.497 2.87-6.85 3.17-9.723.68l-41.613-36.18a6.892 6.892 0 0 1 9.043-10.4l41.613 36.17a6.9 6.9 0 0 1 .68 9.73Z" fill="#FF6B6B"/><path fill="none" d="m994.25-141.539-401.7 1889.85-68.812-14.627 401.7-1889.85z"/><path fill="none" d="m935.159 60.937-14.36 67.558-37.757-8.025 14.36-67.559z"/><path fill="none" d="m909.904 55.568 11.968 67.876-13.575 2.394-11.969-67.876z"/><path fill-rule="evenodd" clip-rule="evenodd" d="M903.117 56.765a6.892 6.892 0 0 1 7.984 5.591l9.575 54.3a6.893 6.893 0 1 1-13.576 2.394l-9.574-54.3a6.892 6.892 0 0 1 5.591-7.985Z" fill="#845EF7"/><path fill="none" d="m912.201 168.944-14.36 67.559-37.757-8.026 14.36-67.558z"/><path fill="none" d="m911.127 173.995-38.541 57.14-11.429-7.709 38.542-57.14zM831.499 624.148l-5.548 26.1-68.75-14.614 5.547-26.1z"/><path fill="none" d="m765.32 610.082 63.444 26.93-5.386 12.69-63.444-26.93z"/><path fill-rule="evenodd" clip-rule="evenodd" d="M762.627 616.427a6.894 6.894 0 0 1 9.038-3.652l50.755 21.544a6.893 6.893 0 0 1-5.387 12.689l-50.754-21.544a6.892 6.892 0 0 1-3.652-9.037Z" fill="#5C7CFA"/><path fill="none" d="m801.9 710.922-13.671 64.318-47.16-10.024 13.67-64.318z"/><path fill="none" d="m800.381 718.067-47.878 49.58-9.916-9.577 47.878-49.579z"/><path fill-rule="evenodd" clip-rule="evenodd" d="M795.423 713.279a6.891 6.891 0 0 1 .17 9.746l-38.302 39.663a6.89 6.89 0 0 1-9.745.17 6.89 6.89 0 0 1-.171-9.745l38.302-39.663a6.892 6.892 0 0 1 9.746-.171Z" fill="#51CF66"/><path fill="none" d="m767.271 813.91-14.59 68.638-22.734-4.833 14.589-68.637z"/><path fill="none" d="m757.888 811.916-4.808 68.755-13.751-.961 4.808-68.756z"/><path fill-rule="evenodd" clip-rule="evenodd" d="M751.013 811.435a6.892 6.892 0 0 1 6.394 7.357l-3.846 55.003a6.891 6.891 0 0 1-7.356 6.395 6.891 6.891 0 0 1-6.395-7.356l3.846-55.004a6.894 6.894 0 0 1 7.357-6.395Z" fill="#FF6B6B"/><path fill="none" d="m750.245 923.385-14.482 68.134-34.698-7.375 14.482-68.134z"/><path fill="none" d="m749.312 927.774-35.498 59.079-11.816-7.1 35.498-59.079z"/><path fill-rule="evenodd" clip-rule="evenodd" d="M743.404 924.225a6.893 6.893 0 0 1 2.358 9.457l-28.398 47.263a6.893 6.893 0 0 1-11.816-7.1l28.398-47.262a6.892 6.892 0 0 1 9.458-2.358Z" fill="#5C7CFA"/><path fill="none" d="m733.501 1034.83-13.579 63.884-48.026-10.208 13.579-63.884z"/><path fill="none" d="m731.94 1042.17-48.736 48.736-9.747-9.748 48.736-48.735z"/><path fill-rule="evenodd" clip-rule="evenodd" d="M727.067 1037.3c2.691 2.69 2.691 7.05 0 9.75l-38.989 38.98a6.877 6.877 0 0 1-9.747 0 6.883 6.883 0 0 1 0-9.74l38.988-38.99a6.896 6.896 0 0 1 9.748 0Z" fill="#51CF66"/><path fill="none" d="m717.29 1160.17-6.93 32.606-68.414-14.542 6.93-32.606z"/><path fill="none" d="m644.687 1165.34 68.66-6.007 1.202 13.733-68.66 6.007z"/><path fill-rule="evenodd" clip-rule="evenodd" d="M645.288 1172.21c-.332-3.79 2.473-7.14 6.265-7.47l54.928-4.8c3.792-.33 7.136 2.47 7.467 6.26a6.89 6.89 0 0 1-6.265 7.47l-54.928 4.81a6.898 6.898 0 0 1-7.467-6.27Z" fill="#FF6B6B"/><path fill="none" d="m694.142 1262.63-9.258 43.556-65.856-13.998 9.258-43.556z"/><path fill="none" d="m678.553 1304.84-52.798-44.303 8.86-10.56 52.799 44.303z"/><path fill-rule="evenodd" clip-rule="evenodd" d="M682.984 1299.56a6.887 6.887 0 0 1-9.711.85l-42.238-35.44a6.892 6.892 0 0 1-.849-9.71 6.886 6.886 0 0 1 9.71-.85l42.238 35.44c2.916 2.45 3.296 6.8.85 9.71Z" fill="#FF6B6B"/><path fill="none" d="m671.458 1374.65-7.594 35.728-67.963-14.446 7.594-35.728z"/><path fill="none" d="m659.251 1409.4-58.45-36.524 7.305-11.69 58.45 36.524z"/><path fill-rule="evenodd" clip-rule="evenodd" d="M662.904 1403.55a6.9 6.9 0 0 1-9.498 2.2l-46.759-29.22a6.896 6.896 0 0 1-2.193-9.5 6.888 6.888 0 0 1 9.498-2.19l46.759 29.22a6.884 6.884 0 0 1 2.193 9.49Z" fill="#CC5DE8"/><path fill="none" d="m626.987 1460.8-14.495 68.193-18.153-3.86 14.495-68.192z"/><path fill="none" d="m599.042 1526.14 9.592-68.252 13.651 1.918-9.592 68.253z"/><path fill-rule="evenodd" clip-rule="evenodd" d="M605.867 1527.09c-3.77-.52-6.396-4.01-5.866-7.78l7.673-54.6a6.896 6.896 0 0 1 7.785-5.87 6.897 6.897 0 0 1 5.866 7.79l-7.674 54.6a6.887 6.887 0 0 1-7.784 5.86Z" fill="#FF6B6B"/><path fill="none" d="M780.601-197.686 376.296 1704.42l-68.722-14.607L711.88-212.293z"/><path fill="none" d="m727.75 22.196-12.16 57.205-57.204-12.159 12.159-57.205z"/><path fill="none" d="m660.412 57.708 57.804-37.538 7.508 11.56-57.804 37.54z"/><path fill-rule="evenodd" clip-rule="evenodd" d="M664.166 63.489a6.892 6.892 0 0 1 2.026-9.535l46.243-30.03a6.892 6.892 0 1 1 7.507 11.56L673.7 65.516a6.892 6.892 0 0 1-9.534-2.026Z" fill="#FF6B6B"/><path fill="none" d="m700.911 125.772-13.579 63.884-48.026-10.208 13.579-63.884z"/><path fill="none" d="m640.867 172.104 48.736-48.736 9.747 9.748-48.736 48.735z"/><path fill-rule="evenodd" clip-rule="evenodd" d="M645.741 176.978a6.891 6.891 0 0 1 0-9.747l38.988-38.989a6.894 6.894 0 0 1 9.748 0 6.894 6.894 0 0 1 0 9.748l-38.989 38.988a6.891 6.891 0 0 1-9.747 0Z" fill="#CC5DE8"/><path fill="none" d="M550.573 767.943 536.001 836.5l-21.6-4.59 14.573-68.558z"/><path fill="none" d="m522.618 833.656 6.007-68.66 13.733 1.2-6.007 68.661z"/><path fill-rule="evenodd" clip-rule="evenodd" d="M529.484 834.257a6.894 6.894 0 0 1-6.266-7.467l4.806-54.928a6.892 6.892 0 1 1 13.732 1.201l-4.805 54.928a6.892 6.892 0 0 1-7.467 6.266Z" fill="#22B8CF"/><path fill="none" d="m547.377 899.511-6.705 31.544-68.521-14.564 6.705-31.545z"/><path fill="none" d="m544.623 912.472-68.755 4.808-.962-13.752 68.755-4.807z"/><path fill-rule="evenodd" clip-rule="evenodd" d="M544.142 905.596a6.893 6.893 0 0 1-6.395 7.356l-55.004 3.847a6.893 6.893 0 0 1-.961-13.752l55.003-3.846a6.894 6.894 0 0 1 7.357 6.395Z" fill="#FF6B6B"/><path fill="none" d="m517.059 988.594-13.671 64.318-47.16-10.024 13.67-64.318z"/><path fill="none" d="m491.953 1050.48-23.573-64.766 12.954-4.715 23.573 64.766z"/><path fill-rule="evenodd" clip-rule="evenodd" d="M498.43 1048.12c-3.577 1.31-7.532-.54-8.834-4.12l-18.859-51.808a6.893 6.893 0 0 1 12.954-4.715l18.858 51.813a6.886 6.886 0 0 1-4.119 8.83Z" fill="#FF922B"/><path fill="none" d="m490.706 1094.27-14.257 67.073-39.739-8.447 14.257-67.073z"/><path fill="none" d="m464.131 1158.72-14.33-67.417 13.484-2.866 14.33 67.417z"/><path fill-rule="evenodd" clip-rule="evenodd" d="M470.873 1157.29a6.898 6.898 0 0 1-8.175-5.31l-11.464-53.93a6.894 6.894 0 0 1 5.309-8.18 6.897 6.897 0 0 1 8.175 5.31l11.464 53.93a6.894 6.894 0 0 1-5.309 8.18Z" fill="#FF6B6B"/><path fill="none" d="m473.771 1206.44-12.94 60.878-52.905-11.245 12.94-60.878z"/><path fill="none" d="m409.729 1247.59 53.563-43.375 8.675 10.713-53.563 43.375z"/><path fill-rule="evenodd" clip-rule="evenodd" d="M414.066 1252.95a6.9 6.9 0 0 1 1.019-9.7l42.85-34.7a6.905 6.905 0 0 1 9.694 1.02 6.9 6.9 0 0 1-1.018 9.7l-42.851 34.7c-2.958 2.39-7.298 1.94-9.694-1.02Z" fill="#FF6B6B"/><path fill="none" d="m454.209 1319.56-11.08 52.131-61.428-13.056 11.081-52.132z"/><path fill="none" d="m383.961 1348.01 61.948-30.214 6.043 12.39-61.948 30.214z"/><path fill-rule="evenodd" clip-rule="evenodd" d="M386.982 1354.21a6.897 6.897 0 0 1 3.174-9.22l49.557-24.17a6.892 6.892 0 1 1 6.043 12.39l-49.558 24.17a6.89 6.89 0 0 1-9.216-3.17Z" fill="#5C7CFA"/><path fill="none" d="m431.495 1444.38-4.348 20.457-68.457-14.55 4.348-20.458z"/><path fill="none" d="m428.645 1457.79-68.545-7.204 1.44-13.71 68.546 7.205z"/><path fill-rule="evenodd" clip-rule="evenodd" d="M429.365 1450.93a6.892 6.892 0 0 1-7.575 6.14l-54.836-5.76a6.896 6.896 0 0 1-6.134-7.58 6.885 6.885 0 0 1 7.575-6.13l54.836 5.76c3.786.4 6.532 3.79 6.134 7.57Z" fill="#FF922B"/><path fill="none" d="M564.225-240.267 161.704 1653.446l-68.696-14.602 402.52-1893.713z"/><path fill="none" d="m513.958-19.78-10.742 50.535-62.466-13.278 10.742-50.535z"/><path fill="none" d="m443.069 6.568 62.964-28.033 5.607 12.593-62.964 28.034z"/><path fill-rule="evenodd" clip-rule="evenodd" d="M445.872 12.865a6.893 6.893 0 0 1 3.493-9.1l50.371-22.427a6.892 6.892 0 1 1 5.607 12.593l-50.371 22.427a6.893 6.893 0 0 1-9.1-3.493Z" fill="#FF6B6B"/><path fill="none" d="m490.668 104.682-4.104 19.308-68.335-14.525 4.104-19.308z"/><path fill="none" d="m485.389 123.74-65.911-20.151 4.03-13.183 65.911 20.151z"/><path fill-rule="evenodd" clip-rule="evenodd" d="M487.404 117.149a6.892 6.892 0 0 1-8.606 4.576l-52.729-16.121a6.892 6.892 0 0 1 4.03-13.182l52.729 16.121a6.892 6.892 0 0 1 4.576 8.606Z" fill="#22B8CF"/><path fill="none" d="m455.496 184.095-14.514 68.284-33.656-7.154 14.514-68.284z"/><path fill="none" d="m408.211 241.058 34.462-59.69 11.938 6.893-34.462 59.69zM353.841 735.79l-10.567 49.713-62.958-13.382 10.567-49.713z"/><path fill="none" d="m298.617 724.052 47.005 50.407-10.081 9.401-47.006-50.407z"/><path fill-rule="evenodd" clip-rule="evenodd" d="M293.576 728.752a6.892 6.892 0 0 1 9.741.341l37.604 40.325a6.892 6.892 0 1 1-10.081 9.401l-37.604-40.325a6.893 6.893 0 0 1 .34-9.742Z" fill="#94D82D"/><path fill="none" d="m330.964 857.143-5.072 23.864-68.697-14.602 5.073-23.864z"/><path fill="none" d="m264.377 842.989 64.345 24.7-4.94 12.87-64.345-24.7z"/><path fill-rule="evenodd" clip-rule="evenodd" d="M261.907 849.424a6.893 6.893 0 0 1 8.905-3.965l51.475 19.76a6.893 6.893 0 1 1-4.94 12.869l-51.475-19.759a6.893 6.893 0 0 1-3.965-8.905Z" fill="#CC5DE8"/><path fill="none" d="m299.244 941.303-14.07 66.19-42.62-9.06 14.07-66.19z"/><path fill="none" d="m273.16 1004.94-17.839-66.575 13.316-3.567 17.838 66.574z"/><path fill-rule="evenodd" clip-rule="evenodd" d="M279.818 1003.16a6.898 6.898 0 0 1-8.441-4.878l-14.271-53.259a6.893 6.893 0 0 1 13.315-3.568l14.271 53.259a6.9 6.9 0 0 1-4.874 8.446Z" fill="#22B8CF"/><path fill="none" d="m285.839 1064.24-8.653 40.711-66.8-14.198 8.654-40.711z"/><path fill="none" d="m212.984 1078.54 67.157-15.504 3.1 13.431-67.156 15.505z"/><path fill-rule="evenodd" clip-rule="evenodd" d="M214.534 1085.25a6.898 6.898 0 0 1 5.166-8.27l53.724-12.4a6.9 6.9 0 0 1 8.267 5.17 6.883 6.883 0 0 1-5.166 8.26l-53.724 12.41a6.9 6.9 0 0 1-8.267-5.17Z" fill="#FF922B"/><path fill="none" d="m254.245 1157.58-13.923 65.5-44.477-9.453 13.923-65.501z"/><path fill="none" d="m228.529 1220.58-20.151-65.911 13.183-4.03 20.15 65.91z"/><path fill-rule="evenodd" clip-rule="evenodd" d="M235.12 1218.56a6.883 6.883 0 0 1-8.606-4.57l-16.121-52.73c-1.113-3.64.936-7.5 4.576-8.61a6.898 6.898 0 0 1 8.607 4.58l16.12 52.73a6.884 6.884 0 0 1-4.576 8.6Z" fill="#FF6B6B"/><path fill="none" d="m238.353 1291.4-3.859 18.153-68.192-14.494 3.858-18.154z"/><path fill="none" d="m169.16 1281.61 68.252 9.592-1.918 13.651-68.253-9.592z"/><path fill-rule="evenodd" clip-rule="evenodd" d="M168.201 1288.43a6.888 6.888 0 0 1 7.785-5.86l54.601 7.67a6.888 6.888 0 0 1 5.866 7.78 6.895 6.895 0 0 1-7.785 5.87l-54.601-7.67a6.897 6.897 0 0 1-5.866-7.79Z" fill="#5C7CFA"/><path fill="none" d="m206.557 1371.93-14.257 67.073-39.739-8.447 14.257-67.073z"/><path fill="none" d="m179.136 1366.1 14.33 67.417-13.484 2.866-14.33-67.417z"/><path fill-rule="evenodd" clip-rule="evenodd" d="M172.395 1367.54a6.888 6.888 0 0 1 8.174 5.31l11.464 53.93a6.888 6.888 0 0 1-5.308 8.17 6.889 6.889 0 0 1-8.175-5.31l-11.464-53.93a6.888 6.888 0 0 1 5.309-8.17Z" fill="#FF6B6B"/><path fill="none" d="m179.33 1478.15-14.565 68.521-31.544-6.705 14.565-68.52z"/><path fill="none" d="m134.011 1536.25 32.357-60.855 12.172 6.471-32.358 60.856z"/><path fill-rule="evenodd" clip-rule="evenodd" d="M140.097 1539.49a6.892 6.892 0 0 1-2.85-9.32l25.886-48.69c1.787-3.36 5.96-4.63 9.321-2.85a6.892 6.892 0 0 1 2.85 9.32l-25.885 48.69a6.891 6.891 0 0 1-9.322 2.85Z" fill="#FF6B6B"/><path fill="none" d="M349.054-289.628-53.844 1605.856l-68.52-14.565L280.532-304.193z"/><path fill="none" d="m258.753 29.328-14.61 68.734-24.986-5.311 14.61-68.734z"/><path fill="none" d="m247.046 26.84-2.405 68.88-13.777-.48 2.405-68.881z"/><path fill-rule="evenodd" clip-rule="evenodd" d="M240.158 26.6a6.892 6.892 0 0 1 6.647 7.128l-1.924 55.104a6.892 6.892 0 1 1-13.776-.48l1.924-55.105a6.892 6.892 0 0 1 7.129-6.648Z" fill="#FCC419"/><path fill="none" d="m253.436 160.22-6.705 31.544L178.21 177.2l6.705-31.545z"/><path fill="none" d="m180.965 164.237 68.755-4.808.962 13.752-68.755 4.807zM213.993 245.361l-14.613 68.747-27.206-5.783 14.613-68.747z"/><path fill="none" d="m213.397 248.165-28.034 62.964-12.593-5.607 28.034-62.964zM178.778 466.229l-13.382 62.958-49.714-10.566 13.383-62.959z"/><path fill="none" d="m140.109 458.01 26.93 63.444-12.689 5.386-26.93-63.444z"/><path fill-rule="evenodd" clip-rule="evenodd" d="M133.764 460.703a6.893 6.893 0 0 1 9.038 3.651l21.544 50.755a6.893 6.893 0 0 1-12.689 5.386l-21.544-50.755a6.892 6.892 0 0 1 3.651-9.037Z" fill="#FCC419"/><path fill="none" d="m146.293 569.233-14.597 68.676-29.393-6.248 14.598-68.676z"/><path fill="none" d="m145.599 572.495-30.214 61.948-12.39-6.043 30.214-61.948z"/><path fill-rule="evenodd" clip-rule="evenodd" d="M139.404 569.474a6.891 6.891 0 0 1 3.174 9.216l-24.171 49.558a6.892 6.892 0 0 1-12.39-6.043l24.171-49.558a6.892 6.892 0 0 1 9.216-3.173Z" fill="#22B8CF"/><path fill="none" d="m128.35 679.032-14.257 67.073-39.739-8.447 14.257-67.073z"/><path fill="none" d="m127.185 684.517-40.512 55.76-11.152-8.103 40.512-55.76z"/><path fill-rule="evenodd" clip-rule="evenodd" d="M121.608 680.465a6.892 6.892 0 0 1 1.525 9.628L90.724 734.7a6.892 6.892 0 1 1-11.152-8.102l32.409-44.608a6.893 6.893 0 0 1 9.627-1.525Z" fill="#FF922B"/><path fill="none" d="m114.042 815.015-3.612 16.993-68.03-14.46 3.612-16.993z"/><path fill="none" d="m109.724 831.858-66.575-17.839 3.568-13.315 66.575 17.839z"/><path fill-rule="evenodd" clip-rule="evenodd" d="M111.508 825.201a6.894 6.894 0 0 1-8.442 4.874l-53.26-14.271a6.893 6.893 0 0 1 3.569-13.315l53.259 14.27a6.894 6.894 0 0 1 4.874 8.442Z" fill="#CC5DE8"/><path fill="none" d="m91.586 921.382-4.104 19.308-68.336-14.525 4.104-19.308z"/><path fill="none" d="m22.002 912.732 68.409 8.4-1.68 13.682-68.41-8.4z"/><path fill-rule="evenodd" clip-rule="evenodd" d="M21.162 919.573a6.892 6.892 0 0 1 7.68-6.001l54.728 6.72a6.893 6.893 0 0 1-1.68 13.682l-54.727-6.719a6.893 6.893 0 0 1-6.002-7.682Z" fill="#FF6B6B"/><path fill="none" d="m53.697 1000.4-14.607 68.722-28.304-6.016 14.607-68.722z"/><path fill="none" d="m11.43 1060.07 29.129-62.465 12.493 5.825-29.128 62.466z"/><path fill-rule="evenodd" clip-rule="evenodd" d="M17.677 1062.98a6.893 6.893 0 0 1-3.333-9.16l23.302-49.97a6.887 6.887 0 0 1 9.16-3.33c3.45 1.6 4.942 5.71 3.333 9.16l-23.302 49.97a6.89 6.89 0 0 1-9.16 3.33Z" fill="#329AF0"/><path fill="none" d="m40.904 1113.36-13.382 62.958-49.713-10.566 13.382-62.959z"/><path fill="none" d="m-20.548 1158.02 50.407-47.005 9.402 10.081-50.407 47.006z"/><path fill-rule="evenodd" clip-rule="evenodd" d="M-15.847 1163.06a6.903 6.903 0 0 1 .34-9.75l40.326-37.6c2.784-2.6 7.145-2.44 9.741.34 2.596 2.79 2.444 7.15-.34 9.74l-40.326 37.61a6.902 6.902 0 0 1-9.741-.34Z" fill="#FCC419"/><path fill="none" d="m129.966-319.861-400.941 1886.28-68.446-14.55L61.52-334.41z"/><path fill="none" d="M40.71-16.82 26.159 51.636 5.702 47.288l14.55-68.457z"/><path fill="none" d="m40.41-15.411-21.298 65.55-13.11-4.26L27.3-19.671z"/><path fill-rule="evenodd" clip-rule="evenodd" d="M33.855-17.541a6.892 6.892 0 0 1 4.425 8.685l-17.038 52.44a6.892 6.892 0 1 1-13.11-4.26l17.038-52.44a6.892 6.892 0 0 1 8.685-4.425Z" fill="#5C7CFA"/><path fill="none" d="m34.617 100.624-12.16 57.205-57.204-12.16 12.16-57.204z"/><path fill="none" d="m12.924 155.803-37.539-57.804 11.562-7.508 37.538 57.804z"/><path fill-rule="evenodd" clip-rule="evenodd" d="M18.704 152.049a6.892 6.892 0 0 1-9.534-2.027l-30.03-46.242A6.893 6.893 0 0 1-9.3 96.272l30.03 46.242a6.893 6.893 0 0 1-2.026 9.535Z" fill="#CC5DE8"/></g><defs><clipPath id="a"><path fill="#fff" d="M0 0h1400v1530H0z"/></clipPath></defs></svg>