<svg width="1400" height="1530" viewBox="0 0 1400 1530" fill="none" xmlns="http://www.w3.org/2000/svg">
<g id="sg-gh-xl-2" clip-path="url(#clip0)">
<rect width="1400" height="1530" fill="white"/>
<g id="background">
<rect width="2318.43" height="2360.71" fill="black" fill-opacity="0" transform="translate(1859.43 1987.71) rotate(-180)"/>
<g id="sprinkles">
<rect width="2000" height="1945.11" fill="black" fill-opacity="0" transform="translate(1859.43 31.4121) rotate(102)"/>
<g id="Group">
<rect width="1915.56" height="69.8356" fill="black" fill-opacity="0" transform="translate(1739.2 65.6172) rotate(102)"/>
<g id="Sprinkle Copy 12">
<rect width="13.7849" height="68.9228" fill="black" fill-opacity="0" transform="translate(1458.44 1384.07) rotate(102)"/>
<g id="Rotate">
<rect width="68.9228" height="13.7849" fill="black" fill-opacity="0" transform="translate(1391.03 1369.74) rotate(12)"/>
<path id="line (Stroke)" fill-rule="evenodd" clip-rule="evenodd" d="M1389.59 1376.48C1390.38 1372.76 1394.04 1370.38 1397.77 1371.17L1451.7 1382.63C1455.42 1383.43 1457.8 1387.09 1457.01 1390.81C1456.22 1394.53 1452.56 1396.91 1448.84 1396.12L1394.9 1384.65C1391.18 1383.86 1388.8 1380.2 1389.59 1376.48Z" fill="#94D82D"/>
</g>
</g>
<g id="Sprinkle Copy 14">
<rect width="66.5814" height="46.3995" fill="black" fill-opacity="0" transform="translate(1429.81 1463.83) rotate(102)"/>
<g id="Rotate_2">
<rect width="68.9228" height="13.7849" fill="black" fill-opacity="0" transform="translate(1372.01 1512.57) rotate(-48)"/>
<path id="line (Stroke)_2" fill-rule="evenodd" clip-rule="evenodd" d="M1377.13 1517.18C1374.3 1514.63 1374.08 1510.27 1376.62 1507.45L1413.52 1466.47C1416.06 1463.64 1420.42 1463.41 1423.25 1465.96C1426.08 1468.51 1426.31 1472.86 1423.76 1475.69L1386.87 1516.67C1384.32 1519.5 1379.96 1519.73 1377.13 1517.18Z" fill="#51CF66"/>
</g>
</g>
</g>
<g id="Group Copy 2">
<rect width="1925.97" height="70.3528" fill="black" fill-opacity="0" transform="translate(1524.34 16.6846) rotate(102)"/>
<g id="Sprinkle Copy 3">
<rect width="23.2429" height="70.1706" fill="black" fill-opacity="0" transform="translate(1450.59 363.296) rotate(102)"/>
<g id="Rotate_3">
<rect width="68.9228" height="13.7849" fill="black" fill-opacity="0" transform="translate(1447.75 376.648) rotate(-176)"/>
<path id="line (Stroke)_3" fill-rule="evenodd" clip-rule="evenodd" d="M1448.24 369.773C1447.97 373.57 1444.68 376.433 1440.88 376.168L1385.88 372.321C1382.08 372.056 1379.21 368.762 1379.48 364.965C1379.75 361.168 1383.04 358.305 1386.84 358.57L1441.84 362.416C1445.64 362.682 1448.5 365.975 1448.24 369.773Z" fill="#329AF0"/>
</g>
</g>
<g id="Sprinkle Copy 4">
<rect width="68.571" height="40.6265" fill="black" fill-opacity="0" transform="translate(1417.75 445.77) rotate(102)"/>
<g id="Rotate_4">
<rect width="68.9228" height="13.7849" fill="black" fill-opacity="0" transform="translate(1391.18 510.224) rotate(-102)"/>
<path id="line (Stroke)_4" fill-rule="evenodd" clip-rule="evenodd" d="M1397.92 508.791C1394.2 509.582 1390.54 507.205 1389.75 503.482L1378.28 449.549C1377.49 445.825 1379.87 442.165 1383.59 441.374C1387.31 440.582 1390.97 442.959 1391.77 446.683L1403.23 500.616C1404.02 504.339 1401.64 507.999 1397.92 508.791Z" fill="#FF922B"/>
</g>
</g>
<g id="Sprinkle Copy 5">
<rect width="28.9358" height="70.2573" fill="black" fill-opacity="0" transform="translate(1405.3 576.235) rotate(102)"/>
<g id="Rotate_5">
<rect width="68.9228" height="13.7849" fill="black" fill-opacity="0" transform="translate(1396.25 603.895) rotate(-155)"/>
<path id="line (Stroke)_5" fill-rule="evenodd" clip-rule="evenodd" d="M1399.17 597.648C1397.56 601.098 1393.46 602.59 1390.01 600.982L1340.04 577.679C1336.59 576.071 1335.09 571.97 1336.7 568.52C1338.31 565.07 1342.41 563.577 1345.86 565.186L1395.83 588.488C1399.28 590.097 1400.78 594.198 1399.17 597.648Z" fill="#94D82D"/>
</g>
</g>
<g id="Sprinkle Copy 6">
<rect width="65.7547" height="48.2138" fill="black" fill-opacity="0" transform="translate(1375.37 663.498) rotate(102)"/>
<g id="Rotate_6">
<rect width="68.9228" height="13.7849" fill="black" fill-opacity="0" transform="translate(1316.05 710.646) rotate(-46)"/>
<path id="line (Stroke)_6" fill-rule="evenodd" clip-rule="evenodd" d="M1321.01 715.434C1318.27 712.79 1318.2 708.427 1320.84 705.688L1359.14 666.026C1361.79 663.287 1366.15 663.211 1368.89 665.855C1371.63 668.5 1371.7 672.863 1369.06 675.601L1330.76 715.264C1328.11 718.002 1323.75 718.079 1321.01 715.434Z" fill="#FCC419"/>
</g>
</g>
<g id="Sprinkle Copy 7">
<rect width="20.9137" height="69.9862" fill="black" fill-opacity="0" transform="translate(1358.54 795.882) rotate(102)"/>
<g id="Rotate_7">
<rect width="68.9228" height="13.7849" fill="black" fill-opacity="0" transform="translate(1355.69 809.292) rotate(-174)"/>
<path id="line (Stroke)_7" fill-rule="evenodd" clip-rule="evenodd" d="M1356.41 802.437C1356.02 806.223 1352.62 808.969 1348.84 808.572L1294 802.808C1290.22 802.41 1287.47 799.019 1287.87 795.233C1288.27 791.447 1291.66 788.701 1295.44 789.099L1350.28 794.862C1354.06 795.26 1356.81 798.652 1356.41 802.437Z" fill="#22B8CF"/>
</g>
</g>
<g id="Sprinkle Copy 8">
<rect width="61.0604" height="55.621" fill="black" fill-opacity="0" transform="translate(1332.67 882.275) rotate(102)"/>
<g id="Rotate_8">
<rect width="68.9228" height="13.7849" fill="black" fill-opacity="0" transform="translate(1267.45 921.591) rotate(-37)"/>
<path id="line (Stroke)_8" fill-rule="evenodd" clip-rule="evenodd" d="M1271.6 927.095C1269.3 924.055 1269.91 919.734 1272.95 917.443L1316.99 884.26C1320.03 881.969 1324.35 882.576 1326.64 885.617C1328.93 888.657 1328.32 892.978 1325.28 895.269L1281.25 928.452C1278.21 930.743 1273.89 930.135 1271.6 927.095Z" fill="#FF922B"/>
</g>
</g>
<g id="Sprinkle Copy 9">
<rect width="61.6587" height="54.8626" fill="black" fill-opacity="0" transform="translate(1309.43 989.772) rotate(102)"/>
<g id="Rotate_9">
<rect width="68.9228" height="13.7849" fill="black" fill-opacity="0" transform="translate(1244.79 1030.01) rotate(-38)"/>
<path id="line (Stroke)_9" fill-rule="evenodd" clip-rule="evenodd" d="M1249.03 1035.44C1246.69 1032.44 1247.22 1028.11 1250.22 1025.77L1293.67 991.82C1296.67 989.476 1301 990.008 1303.34 993.008C1305.69 996.008 1305.15 1000.34 1302.15 1002.68L1258.71 1036.63C1255.71 1038.97 1251.37 1038.44 1249.03 1035.44Z" fill="#FF6B6B"/>
</g>
</g>
<g id="Sprinkle Copy 10">
<rect width="27.8135" height="70.2827" fill="black" fill-opacity="0" transform="translate(1290.72 1115.77) rotate(102)"/>
<g id="Rotate_10">
<rect width="68.9228" height="13.7849" fill="black" fill-opacity="0" transform="translate(1224.78 1101.75) rotate(24)"/>
<path id="line (Stroke)_10" fill-rule="evenodd" clip-rule="evenodd" d="M1221.97 1108.05C1223.52 1104.57 1227.6 1103.01 1231.07 1104.56L1281.44 1126.98C1284.92 1128.53 1286.49 1132.6 1284.94 1136.08C1283.39 1139.56 1279.31 1141.12 1275.84 1139.58L1225.47 1117.15C1221.99 1115.6 1220.42 1111.53 1221.97 1108.05Z" fill="#CC5DE8"/>
</g>
</g>
<g id="Sprinkle Copy 11">
<rect width="69.862" height="19.7394" fill="black" fill-opacity="0" transform="translate(1247.18 1197.97) rotate(102)"/>
<g id="Rotate_11">
<rect width="68.9228" height="13.7849" fill="black" fill-opacity="0" transform="translate(1219.22 1263.45) rotate(-83)"/>
<path id="line (Stroke)_11" fill-rule="evenodd" clip-rule="evenodd" d="M1226.06 1264.29C1222.28 1263.83 1219.59 1260.39 1220.06 1256.61L1226.78 1201.88C1227.24 1198.1 1230.68 1195.42 1234.46 1195.88C1238.24 1196.34 1240.92 1199.78 1240.46 1203.56L1233.74 1258.29C1233.28 1262.07 1229.84 1264.75 1226.06 1264.29Z" fill="#FF6B6B"/>
</g>
</g>
<g id="Sprinkle Copy 12_2">
<rect width="62.7987" height="53.2957" fill="black" fill-opacity="0" transform="translate(1240.29 1312.72) rotate(102)"/>
<g id="Rotate_12">
<rect width="68.9228" height="13.7849" fill="black" fill-opacity="0" transform="translate(1198.78 1303.89) rotate(64)"/>
<path id="line (Stroke)_12" fill-rule="evenodd" clip-rule="evenodd" d="M1192.59 1306.91C1196.01 1305.25 1200.13 1306.67 1201.8 1310.09L1225.97 1359.65C1227.64 1363.07 1226.22 1367.19 1222.8 1368.86C1219.38 1370.53 1215.25 1369.11 1213.58 1365.69L1189.41 1316.13C1187.74 1312.71 1189.17 1308.58 1192.59 1306.91Z" fill="#845EF7"/>
</g>
</g>
<g id="Sprinkle Copy 14_2">
<rect width="58.4832" height="58.4832" fill="black" fill-opacity="0" transform="translate(1219.12 1423.42) rotate(102)"/>
<g id="Rotate_13">
<rect width="68.9228" height="13.7849" fill="black" fill-opacity="0" transform="translate(1197.42 1478.6) rotate(-123)"/>
<path id="line (Stroke)_13" fill-rule="evenodd" clip-rule="evenodd" d="M1203.2 1474.84C1200.01 1476.92 1195.74 1476.01 1193.67 1472.82L1163.64 1426.58C1161.56 1423.38 1162.47 1419.11 1165.66 1417.04C1168.86 1414.97 1173.13 1415.88 1175.2 1419.07L1205.23 1465.31C1207.3 1468.5 1206.4 1472.77 1203.2 1474.84Z" fill="#FF922B"/>
</g>
</g>
<g id="Sprinkle Copy 15">
<rect width="69.9415" height="33.3336" fill="black" fill-opacity="0" transform="translate(1185.05 1522.98) rotate(102)"/>
<g id="Rotate_14">
<rect width="68.9228" height="13.7849" fill="black" fill-opacity="0" transform="translate(1157.61 1588.65) rotate(-95)"/>
<path id="line (Stroke)_14" fill-rule="evenodd" clip-rule="evenodd" d="M1164.48 1588.05C1160.69 1588.38 1157.34 1585.58 1157.01 1581.79L1152.21 1526.86C1151.88 1523.07 1154.68 1519.72 1158.47 1519.39C1162.26 1519.06 1165.61 1521.87 1165.94 1525.66L1170.74 1580.59C1171.08 1584.38 1168.27 1587.72 1164.48 1588.05Z" fill="#CC5DE8"/>
</g>
</g>
</g>
<g id="Group Copy 4">
<rect width="1926.42" height="70.2307" fill="black" fill-opacity="0" transform="translate(1307.42 -24.1035) rotate(102)"/>
<g id="Sprinkle">
<rect width="59.8082" height="57.0869" fill="black" fill-opacity="0" transform="translate(1300.89 -25.4932) rotate(102)"/>
<g id="Rotate_15">
<rect width="68.9228" height="13.7849" fill="black" fill-opacity="0" transform="translate(1278.59 30.9121) rotate(-121)"/>
<path id="line (Stroke)_15" fill-rule="evenodd" clip-rule="evenodd" d="M1284.5 27.3622C1281.24 29.3228 1277 28.267 1275.04 25.0041L1246.64 -22.2583C1244.68 -25.5212 1245.74 -29.7556 1249 -31.7162C1252.26 -33.6767 1256.5 -32.6209 1258.46 -29.3581L1286.86 17.9044C1288.82 21.1673 1287.76 25.4017 1284.5 27.3622Z" fill="#FF6B6B"/>
</g>
</g>
<g id="Sprinkle Copy">
<rect width="34.4085" height="69.8093" fill="black" fill-opacity="0" transform="translate(1281.61 96.1826) rotate(102)"/>
<g id="Rotate_16">
<rect width="68.9228" height="13.7849" fill="black" fill-opacity="0" transform="translate(1270.29 128.953) rotate(-150)"/>
<path id="line (Stroke)_16" fill-rule="evenodd" clip-rule="evenodd" d="M1273.73 122.984C1271.83 126.281 1267.62 127.41 1264.32 125.507L1216.57 97.9379C1213.27 96.0346 1212.14 91.8193 1214.05 88.5227C1215.95 85.2261 1220.16 84.0966 1223.46 85.9999L1271.21 113.569C1274.51 115.472 1275.64 119.688 1273.73 122.984Z" fill="#FF6B6B"/>
</g>
</g>
<g id="Sprinkle Copy 2">
<rect width="68.83" height="39.6193" fill="black" fill-opacity="0" transform="translate(1247.43 183.803) rotate(102)"/>
<g id="Rotate_17">
<rect width="68.9228" height="13.7849" fill="black" fill-opacity="0" transform="translate(1195.49 237.623) rotate(-55)"/>
</g>
</g>
<g id="Sprinkle Copy 3_2">
<rect width="49.099" height="65.3113" fill="black" fill-opacity="0" transform="translate(1235.31 303.964) rotate(102)"/>
<g id="Rotate_18">
<rect width="68.9228" height="13.7849" fill="black" fill-opacity="0" transform="translate(1178.77 291.946) rotate(45)"/>
<path id="line (Stroke)_17" fill-rule="evenodd" clip-rule="evenodd" d="M1173.9 296.82C1176.59 294.128 1180.95 294.128 1183.65 296.82L1222.63 335.808C1225.33 338.5 1225.33 342.864 1222.63 345.556C1219.94 348.247 1215.58 348.247 1212.89 345.556L1173.9 306.567C1171.21 303.876 1171.21 299.512 1173.9 296.82Z" fill="#51CF66"/>
</g>
</g>
<g id="Sprinkle Copy 4_2">
<rect width="70.1706" height="23.2429" fill="black" fill-opacity="0" transform="translate(1194.06 397.299) rotate(102)"/>
<g id="Rotate_19">
<rect width="68.9228" height="13.7849" fill="black" fill-opacity="0" transform="translate(1184.67 395.305) rotate(94)"/>
</g>
</g>
<g id="Sprinkle Copy 6_2">
<rect width="19.7394" height="69.862" fill="black" fill-opacity="0" transform="translate(1165.54 642.72) rotate(102)"/>
<g id="Rotate_20">
<rect width="68.9228" height="13.7849" fill="black" fill-opacity="0" transform="translate(1162.69 656.152) rotate(-173)"/>
<path id="line (Stroke)_18" fill-rule="evenodd" clip-rule="evenodd" d="M1163.53 649.311C1163.07 653.089 1159.63 655.776 1155.85 655.312L1101.12 648.593C1097.34 648.129 1094.66 644.69 1095.12 640.912C1095.58 637.133 1099.02 634.447 1102.8 634.911L1157.53 641.63C1161.31 642.094 1163.99 645.533 1163.53 649.311Z" fill="#22B8CF"/>
</g>
</g>
<g id="Sprinkle Copy 7_2">
<rect width="39.6193" height="68.83" fill="black" fill-opacity="0" transform="translate(1144.09 740.721) rotate(102)"/>
<g id="Rotate_21">
<rect width="68.9228" height="13.7849" fill="black" fill-opacity="0" transform="translate(1130.59 778.354) rotate(-145)"/>
<path id="line (Stroke)_19" fill-rule="evenodd" clip-rule="evenodd" d="M1134.54 772.709C1132.36 775.827 1128.06 776.585 1124.94 774.401L1079.77 742.775C1076.66 740.592 1075.9 736.294 1078.08 733.176C1080.26 730.058 1084.56 729.3 1087.68 731.483L1132.85 763.109C1135.96 765.293 1136.72 769.59 1134.54 772.709Z" fill="#94D82D"/>
</g>
</g>
<g id="Sprinkle Copy 8_2">
<rect width="69.862" height="19.7394" fill="black" fill-opacity="0" transform="translate(1100.59 828.594) rotate(102)"/>
<g id="Rotate_22">
<rect width="68.9228" height="13.7849" fill="black" fill-opacity="0" transform="translate(1100.34 829.769) rotate(107)"/>
<path id="line (Stroke)_20" fill-rule="evenodd" clip-rule="evenodd" d="M1093.75 827.753C1097.39 828.866 1099.44 832.72 1098.33 836.36L1082.21 889.089C1081.09 892.729 1077.24 894.778 1073.6 893.665C1069.96 892.552 1067.91 888.698 1069.02 885.058L1085.14 832.33C1086.26 828.689 1090.11 826.64 1093.75 827.753Z" fill="#FCC419"/>
</g>
</g>
<g id="Sprinkle Copy 9_2">
<rect width="24.3971" height="70.2307" fill="black" fill-opacity="0" transform="translate(1097.46 963.697) rotate(102)"/>
<g id="Rotate_23">
<rect width="68.9228" height="13.7849" fill="black" fill-opacity="0" transform="translate(1026.52 959.642) rotate(3)"/>
<path id="line (Stroke)_21" fill-rule="evenodd" clip-rule="evenodd" d="M1026.16 966.525C1026.36 962.723 1029.6 959.803 1033.4 960.002L1088.47 962.888C1092.27 963.087 1095.19 966.33 1094.99 970.132C1094.79 973.933 1091.55 976.853 1087.75 976.654L1032.68 973.768C1028.88 973.569 1025.96 970.326 1026.16 966.525Z" fill="#845EF7"/>
</g>
</g>
<g id="Sprinkle Copy 10_2">
<rect width="60.4435" height="56.3625" fill="black" fill-opacity="0" transform="translate(1071.32 1052.78) rotate(102)"/>
<g id="Rotate_24">
<rect width="68.9228" height="13.7849" fill="black" fill-opacity="0" transform="translate(1048.73 1109.77) rotate(-120)"/>
<path id="line (Stroke)_22" fill-rule="evenodd" clip-rule="evenodd" d="M1054.7 1106.33C1051.41 1108.23 1047.19 1107.1 1045.29 1103.8L1017.72 1056.05C1015.81 1052.76 1016.94 1048.54 1020.24 1046.64C1023.54 1044.73 1027.75 1045.86 1029.66 1049.16L1057.22 1096.91C1059.13 1100.21 1058 1104.42 1054.7 1106.33Z" fill="#FF6B6B"/>
</g>
</g>
<g id="Sprinkle Copy 11_2">
<rect width="62.2382" height="54.0874" fill="black" fill-opacity="0" transform="translate(1047.51 1159.29) rotate(102)"/>
<g id="Rotate_25">
<rect width="68.9228" height="13.7849" fill="black" fill-opacity="0" transform="translate(983.47 1200.43) rotate(-39)"/>
<path id="line (Stroke)_23" fill-rule="evenodd" clip-rule="evenodd" d="M987.808 1205.79C985.412 1202.83 985.868 1198.49 988.827 1196.1L1031.68 1161.4C1034.64 1159 1038.98 1159.46 1041.37 1162.42C1043.77 1165.37 1043.31 1169.71 1040.35 1172.11L997.502 1206.81C994.543 1209.21 990.203 1208.75 987.808 1205.79Z" fill="#329AF0"/>
</g>
</g>
<g id="Sprinkle Copy 12_3">
<rect width="59.8082" height="57.0869" fill="black" fill-opacity="0" transform="translate(1025.75 1268.9) rotate(102)"/>
<g id="Rotate_26">
<rect width="68.9228" height="13.7849" fill="black" fill-opacity="0" transform="translate(1003.46 1325.31) rotate(-121)"/>
<path id="line (Stroke)_24" fill-rule="evenodd" clip-rule="evenodd" d="M1009.37 1321.76C1006.1 1323.72 1001.87 1322.66 999.909 1319.4L971.511 1272.14C969.55 1268.87 970.606 1264.64 973.869 1262.68C977.132 1260.72 981.366 1261.77 983.327 1265.04L1011.73 1312.3C1013.69 1315.56 1012.63 1319.8 1009.37 1321.76Z" fill="#F06595"/>
</g>
</g>
<g id="Sprinkle Copy 14_3">
<rect width="18.5591" height="69.7165" fill="black" fill-opacity="0" transform="translate(1004.93 1397.97) rotate(102)"/>
<g id="Rotate_27">
<rect width="68.9228" height="13.7849" fill="black" fill-opacity="0" transform="translate(937.68 1383.68) rotate(16)"/>
<path id="line (Stroke)_25" fill-rule="evenodd" clip-rule="evenodd" d="M935.78 1390.3C936.83 1386.64 940.646 1384.53 944.306 1385.58L997.308 1400.77C1000.97 1401.82 1003.08 1405.64 1002.03 1409.3C1000.98 1412.96 997.167 1415.07 993.508 1414.02L940.506 1398.83C936.847 1397.78 934.731 1393.96 935.78 1390.3Z" fill="#5C7CFA"/>
</g>
</g>
<g id="Sprinkle Copy 15_2">
<rect width="54.0874" height="62.2382" fill="black" fill-opacity="0" transform="translate(982.137 1487.75) rotate(102)"/>
<g id="Rotate_28">
<rect width="68.9228" height="13.7849" fill="black" fill-opacity="0" transform="translate(929.745 1476.61) rotate(51)"/>
<path id="line (Stroke)_26" fill-rule="evenodd" clip-rule="evenodd" d="M924.388 1480.95C927.346 1478.55 931.687 1479.01 934.082 1481.97L968.782 1524.82C971.177 1527.77 970.721 1532.11 967.763 1534.51C964.804 1536.91 960.464 1536.45 958.069 1533.49L923.369 1490.64C920.974 1487.68 921.43 1483.34 924.388 1480.95Z" fill="#20C997"/>
</g>
</g>
</g>
<g id="Group Copy 6">
<rect width="1931.51" height="70.2827" fill="black" fill-opacity="0" transform="translate(1092.56 -74.0127) rotate(102)"/>
<g id="Sprinkle Copy_2">
<rect width="13.7849" height="68.9228" fill="black" fill-opacity="0" transform="translate(1063.35 60.3438) rotate(102)"/>
<g id="Rotate_29">
<rect width="68.9228" height="13.7849" fill="black" fill-opacity="0" transform="translate(1060.48 73.8271) rotate(-168)"/>
<path id="line (Stroke)_27" fill-rule="evenodd" clip-rule="evenodd" d="M1061.91 67.0853C1061.12 70.8087 1057.46 73.1856 1053.74 72.3941L999.806 60.9303C996.082 60.1389 993.705 56.4789 994.497 52.7555C995.288 49.0321 998.948 46.6552 1002.67 47.4467L1056.6 58.9105C1060.33 59.7019 1062.7 63.3619 1061.91 67.0853Z" fill="#FF6B6B"/>
</g>
</g>
<g id="Sprinkle Copy 2_2">
<rect width="68.571" height="40.6265" fill="black" fill-opacity="0" transform="translate(1032.16 138.176) rotate(102)"/>
<g id="Rotate_30">
<rect width="68.9228" height="13.7849" fill="black" fill-opacity="0" transform="translate(979.332 191.317) rotate(-54)"/>
<path id="line (Stroke)_28" fill-rule="evenodd" clip-rule="evenodd" d="M984.908 195.369C981.828 193.131 981.145 188.821 983.383 185.741L1015.79 141.134C1018.03 138.054 1022.34 137.371 1025.42 139.609C1028.5 141.846 1029.18 146.157 1026.94 149.236L994.535 193.844C992.298 196.923 987.987 197.606 984.908 195.369Z" fill="#94D82D"/>
</g>
</g>
<g id="Sprinkle Copy 7_3">
<rect width="65.7547" height="48.2138" fill="black" fill-opacity="0" transform="translate(921.234 679.917) rotate(102)"/>
<g id="Rotate_31">
<rect width="68.9228" height="13.7849" fill="black" fill-opacity="0" transform="translate(919.715 687.062) rotate(134)"/>
<path id="line (Stroke)_29" fill-rule="evenodd" clip-rule="evenodd" d="M914.757 682.275C917.496 684.919 917.572 689.282 914.927 692.021L876.625 731.683C873.981 734.422 869.618 734.498 866.88 731.854C864.141 729.209 864.065 724.846 866.709 722.108L905.011 682.445C907.656 679.707 912.019 679.63 914.757 682.275Z" fill="#FCC419"/>
</g>
</g>
<g id="Sprinkle Copy 8_3">
<rect width="69.2851" height="37.569" fill="black" fill-opacity="0" transform="translate(893.517 784.788) rotate(102)"/>
<g id="Rotate_32">
<rect width="68.9228" height="13.7849" fill="black" fill-opacity="0" transform="translate(869.357 779.652) rotate(81)"/>
<path id="line (Stroke)_30" fill-rule="evenodd" clip-rule="evenodd" d="M862.549 780.731C866.309 780.135 869.84 782.7 870.435 786.46L879.061 840.919C879.656 844.679 877.091 848.209 873.331 848.805C869.572 849.4 866.041 846.835 865.445 843.075L856.82 788.616C856.225 784.857 858.79 781.326 862.549 780.731Z" fill="#FF6B6B"/>
</g>
</g>
<g id="Sprinkle Copy 9_3">
<rect width="49.099" height="65.3113" fill="black" fill-opacity="0" transform="translate(882.006 905.306) rotate(102)"/>
<g id="Rotate_33">
<rect width="68.9228" height="13.7849" fill="black" fill-opacity="0" transform="translate(825.465 893.288) rotate(45)"/>
<path id="line (Stroke)_31" fill-rule="evenodd" clip-rule="evenodd" d="M820.592 898.162C823.283 895.47 827.647 895.47 830.339 898.162L869.327 937.15C872.019 939.842 872.019 944.206 869.327 946.898C866.636 949.589 862.272 949.589 859.58 946.898L820.592 907.909C817.9 905.217 817.9 900.853 820.592 898.162Z" fill="#FF922B"/>
</g>
</g>
<g id="Sprinkle Copy 10_3">
<rect width="70.2307" height="24.3971" fill="black" fill-opacity="0" transform="translate(841.309 998.787) rotate(102)"/>
<g id="Rotate_34">
<rect width="68.9228" height="13.7849" fill="black" fill-opacity="0" transform="translate(840.86 1000.9) rotate(111)"/>
<path id="line (Stroke)_32" fill-rule="evenodd" clip-rule="evenodd" d="M834.426 998.426C837.979 999.791 839.754 1003.78 838.39 1007.33L818.631 1058.81C817.266 1062.36 813.28 1064.14 809.726 1062.77C806.172 1061.41 804.397 1057.42 805.761 1053.87L825.521 1002.39C826.885 998.837 830.872 997.062 834.426 998.426Z" fill="#FF6B6B"/>
</g>
</g>
<g id="Sprinkle Copy 11_3">
<rect width="44.5286" height="67.3269" fill="black" fill-opacity="0" transform="translate(836.474 1123.43) rotate(102)"/>
<g id="Rotate_35">
<rect width="68.9228" height="13.7849" fill="black" fill-opacity="0" transform="translate(763.891 1141.09) rotate(-16)"/>
<path id="line (Stroke)_33" fill-rule="evenodd" clip-rule="evenodd" d="M765.791 1147.71C764.742 1144.05 766.857 1140.24 770.517 1139.19L823.519 1123.99C827.178 1122.94 830.995 1125.05 832.044 1128.71C833.093 1132.37 830.977 1136.19 827.318 1137.24L774.316 1152.44C770.657 1153.49 766.84 1151.37 765.791 1147.71Z" fill="#CC5DE8"/>
</g>
</g>
<g id="Sprinkle Copy 12_4">
<rect width="65.3113" height="49.099" fill="black" fill-opacity="0" transform="translate(806.709 1219.29) rotate(102)"/>
<g id="Rotate_36">
<rect width="68.9228" height="13.7849" fill="black" fill-opacity="0" transform="translate(746.665 1265.62) rotate(-45)"/>
<path id="line (Stroke)_34" fill-rule="evenodd" clip-rule="evenodd" d="M751.539 1270.49C748.847 1267.8 748.847 1263.44 751.539 1260.75L790.527 1221.76C793.219 1219.07 797.583 1219.07 800.275 1221.76C802.966 1224.45 802.966 1228.81 800.275 1231.51L761.286 1270.49C758.594 1273.19 754.23 1273.19 751.539 1270.49Z" fill="#845EF7"/>
</g>
</g>
<g id="Sprinkle Copy 14_4">
<rect width="42.6035" height="67.9903" fill="black" fill-opacity="0" transform="translate(790.842 1340.55) rotate(102)"/>
<g id="Rotate_37">
<rect width="68.9228" height="13.7849" fill="black" fill-opacity="0" transform="translate(788.266 1352.67) rotate(166)"/>
<path id="line (Stroke)_35" fill-rule="evenodd" clip-rule="evenodd" d="M786.598 1345.98C787.519 1349.67 785.271 1353.41 781.578 1354.33L728.078 1367.67C724.384 1368.59 720.644 1366.35 719.723 1362.65C718.802 1358.96 721.049 1355.22 724.743 1354.3L778.243 1340.96C781.937 1340.04 785.677 1342.29 786.598 1345.98Z" fill="#51CF66"/>
</g>
</g>
<g id="Sprinkle Copy 15_3">
<rect width="62.7987" height="53.2957" fill="black" fill-opacity="0" transform="translate(762.657 1436.67) rotate(102)"/>
<g id="Rotate_38">
<rect width="68.9228" height="13.7849" fill="black" fill-opacity="0" transform="translate(699.233 1478.72) rotate(-40)"/>
<path id="line (Stroke)_36" fill-rule="evenodd" clip-rule="evenodd" d="M703.664 1484C701.217 1481.08 701.597 1476.73 704.513 1474.29L746.751 1438.85C749.667 1436.4 754.015 1436.78 756.462 1439.69C758.909 1442.61 758.528 1446.96 755.612 1449.41L713.374 1484.85C710.458 1487.29 706.111 1486.91 703.664 1484Z" fill="#FF922B"/>
</g>
</g>
</g>
<g id="Group Copy 8">
<rect width="1944.07" height="70.1421" fill="black" fill-opacity="0" transform="translate(876.949 -120.862) rotate(102)"/>
<g id="Sprinkle Copy_3">
<rect width="69.2851" height="37.569" fill="black" fill-opacity="0" transform="translate(838.244 -16.001) rotate(102)"/>
<g id="Rotate_39">
<rect width="68.9228" height="13.7849" fill="black" fill-opacity="0" transform="translate(837.217 -11.1689) rotate(123)"/>
<path id="line (Stroke)_37" fill-rule="evenodd" clip-rule="evenodd" d="M831.436 -14.9228C834.629 -12.8496 835.536 -8.58094 833.463 -5.38847L803.433 40.8541C801.359 44.0466 797.091 44.9539 793.898 42.8807C790.706 40.8075 789.798 36.5388 791.872 33.3464L821.902 -12.8962C823.975 -16.0887 828.244 -16.996 831.436 -14.9228Z" fill="#FF6B6B"/>
</g>
</g>
<g id="Sprinkle Copy 2_3">
<rect width="65.3113" height="49.099" fill="black" fill-opacity="0" transform="translate(820.56 94.834) rotate(102)"/>
<g id="Rotate_40">
<rect width="68.9228" height="13.7849" fill="black" fill-opacity="0" transform="translate(783.842 87.0293) rotate(69)"/>
<path id="line (Stroke)_38" fill-rule="evenodd" clip-rule="evenodd" d="M777.407 89.4993C780.961 88.1352 784.948 89.9102 786.312 93.4639L806.072 144.94C807.436 148.493 805.661 152.48 802.107 153.844C798.553 155.208 794.566 153.433 793.202 149.88L773.443 98.404C772.078 94.8502 773.853 90.8635 777.407 89.4993Z" fill="#22B8CF"/>
</g>
</g>
<g id="Sprinkle Copy 3_3">
<rect width="14.9856" height="69.1529" fill="black" fill-opacity="0" transform="translate(802.072 229.279) rotate(102)"/>
<g id="Rotate_41">
<rect width="68.9228" height="13.7849" fill="black" fill-opacity="0" transform="translate(734.666 214.951) rotate(13)"/>
</g>
</g>
<g id="Sprinkle Copy 7_4">
<rect width="69.9862" height="20.9137" fill="black" fill-opacity="0" transform="translate(692.254 628.997) rotate(102)"/>
<g id="Rotate_42">
<rect width="68.9228" height="13.7849" fill="black" fill-opacity="0" transform="translate(664.293 694.604) rotate(-84)"/>
<path id="line (Stroke)_39" fill-rule="evenodd" clip-rule="evenodd" d="M671.148 695.324C667.362 694.926 664.616 691.535 665.013 687.749L670.777 632.913C671.175 629.127 674.566 626.381 678.352 626.779C682.138 627.177 684.884 630.568 684.486 634.354L678.723 689.19C678.325 692.975 674.933 695.722 671.148 695.324Z" fill="#94D82D"/>
</g>
</g>
<g id="Sprinkle Copy 8_4">
<rect width="60.4435" height="56.3625" fill="black" fill-opacity="0" transform="translate(685.695 745.331) rotate(102)"/>
<g id="Rotate_43">
<rect width="68.9228" height="13.7849" fill="black" fill-opacity="0" transform="translate(663.107 802.324) rotate(-120)"/>
<path id="line (Stroke)_40" fill-rule="evenodd" clip-rule="evenodd" d="M669.076 798.878C665.78 800.781 661.564 799.652 659.661 796.355L632.092 748.604C630.189 745.308 631.318 741.092 634.615 739.189C637.912 737.286 642.127 738.415 644.03 741.712L671.599 789.463C673.503 792.759 672.373 796.975 669.076 798.878Z" fill="#FF922B"/>
</g>
</g>
<g id="Sprinkle Copy 9_4">
<rect width="39.6193" height="68.83" fill="black" fill-opacity="0" transform="translate(666.903 864.771) rotate(102)"/>
<g id="Rotate_44">
<rect width="68.9228" height="13.7849" fill="black" fill-opacity="0" transform="translate(664.265 877.184) rotate(169)"/>
<path id="line (Stroke)_41" fill-rule="evenodd" clip-rule="evenodd" d="M662.95 870.418C663.676 874.154 661.235 877.772 657.499 878.499L603.374 889.02C599.637 889.746 596.019 887.306 595.293 883.569C594.567 879.832 597.007 876.214 600.744 875.488L654.869 864.967C658.605 864.241 662.223 866.681 662.95 870.418Z" fill="#CC5DE8"/>
</g>
</g>
<g id="Sprinkle Copy 10_4">
<rect width="41.6214" height="68.291" fill="black" fill-opacity="0" transform="translate(643.999 971.261) rotate(102)"/>
<g id="Rotate_45">
<rect width="68.9228" height="13.7849" fill="black" fill-opacity="0" transform="translate(582.899 958.273) rotate(37)"/>
<path id="line (Stroke)_42" fill-rule="evenodd" clip-rule="evenodd" d="M578.751 963.778C581.042 960.738 585.363 960.131 588.403 962.421L632.439 995.604C635.479 997.895 636.086 1002.22 633.795 1005.26C631.504 1008.3 627.183 1008.9 624.143 1006.61L580.108 973.43C577.067 971.14 576.46 966.818 578.751 963.778Z" fill="#FF6B6B"/>
</g>
</g>
<g id="Sprinkle Copy 11_4">
<rect width="31.1537" height="70.1421" fill="black" fill-opacity="0" transform="translate(620.763 1084.4) rotate(102)"/>
<g id="Rotate_46">
<rect width="68.9228" height="13.7849" fill="black" fill-opacity="0" transform="translate(548.444 1087.27) rotate(-3)"/>
<path id="line (Stroke)_43" fill-rule="evenodd" clip-rule="evenodd" d="M548.805 1094.15C548.606 1090.35 551.526 1087.1 555.327 1086.9L610.39 1084.02C614.191 1083.82 617.434 1086.74 617.633 1090.54C617.833 1094.34 614.913 1097.59 611.111 1097.79L556.049 1100.67C552.247 1100.87 549.004 1097.95 548.805 1094.15Z" fill="#94D82D"/>
</g>
</g>
<g id="Sprinkle Copy 12_5">
<rect width="69.2851" height="37.569" fill="black" fill-opacity="0" transform="translate(585.718 1170.32) rotate(102)"/>
<g id="Rotate_47">
<rect width="68.9228" height="13.7849" fill="black" fill-opacity="0" transform="translate(535.592 1225.45) rotate(-57)"/>
<path id="line (Stroke)_44" fill-rule="evenodd" clip-rule="evenodd" d="M541.372 1229.2C538.18 1227.13 537.272 1222.86 539.346 1219.67L569.376 1173.42C571.449 1170.23 575.718 1169.32 578.91 1171.4C582.103 1173.47 583.01 1177.74 580.937 1180.93L550.907 1227.17C548.833 1230.37 544.565 1231.27 541.372 1229.2Z" fill="#FCC419"/>
</g>
</g>
<g id="Sprinkle Copy 14_5">
<rect width="59.8082" height="57.0869" fill="black" fill-opacity="0" transform="translate(571.621 1285.11) rotate(102)"/>
<g id="Rotate_48">
<rect width="68.9228" height="13.7849" fill="black" fill-opacity="0" transform="translate(569.667 1294.3) rotate(145)"/>
<path id="line (Stroke)_45" fill-rule="evenodd" clip-rule="evenodd" d="M565.713 1288.66C567.897 1291.78 567.139 1296.07 564.021 1298.26L518.854 1329.88C515.736 1332.07 511.438 1331.31 509.255 1328.19C507.072 1325.07 507.829 1320.78 510.947 1318.59L556.114 1286.97C559.232 1284.78 563.53 1285.54 565.713 1288.66Z" fill="#CC5DE8"/>
</g>
</g>
<g id="Sprinkle Copy 15_4">
<rect width="70.0525" height="32.2486" fill="black" fill-opacity="0" transform="translate(537.333 1385.14) rotate(102)"/>
<g id="Rotate_49">
<rect width="68.9228" height="13.7849" fill="black" fill-opacity="0" transform="translate(492.014 1443.24) rotate(-62)"/>
<path id="line (Stroke)_46" fill-rule="evenodd" clip-rule="evenodd" d="M498.099 1446.47C494.738 1444.69 493.462 1440.51 495.249 1437.15L521.135 1388.47C522.922 1385.11 527.096 1383.83 530.457 1385.62C533.818 1387.41 535.094 1391.58 533.306 1394.94L507.421 1443.62C505.634 1446.99 501.46 1448.26 498.099 1446.47Z" fill="#F06595"/>
</g>
</g>
<g id="Sprinkle Copy 16">
<rect width="65.3113" height="49.099" fill="black" fill-opacity="0" transform="translate(522.186 1497.03) rotate(102)"/>
<g id="Rotate_50">
<rect width="68.9228" height="13.7849" fill="black" fill-opacity="0" transform="translate(462.142 1543.36) rotate(-45)"/>
<path id="line (Stroke)_47" fill-rule="evenodd" clip-rule="evenodd" d="M467.016 1548.23C464.324 1545.54 464.324 1541.18 467.016 1538.48L506.004 1499.5C508.696 1496.8 513.06 1496.8 515.752 1499.5C518.443 1502.19 518.443 1506.55 515.752 1509.24L476.763 1548.23C474.071 1550.92 469.707 1550.92 467.016 1548.23Z" fill="#FF6B6B"/>
</g>
</g>
</g>
<g id="Group Copy 10">
<rect width="1897.55" height="70.3166" fill="black" fill-opacity="0" transform="translate(656.353 -143.146) rotate(102)"/>
<g id="Sprinkle Copy_4">
<rect width="64.3649" height="50.8244" fill="black" fill-opacity="0" transform="translate(628.491 -58.25) rotate(102)"/>
<g id="Rotate_51">
<rect width="68.9228" height="13.7849" fill="black" fill-opacity="0" transform="translate(589.823 -66.4697) rotate(67)"/>
<path id="line (Stroke)_48" fill-rule="evenodd" clip-rule="evenodd" d="M583.478 -63.7766C586.982 -65.264 591.028 -63.6292 592.516 -60.1252L614.06 -9.37044C615.547 -5.86645 613.913 -1.82018 610.409 -0.332833C606.905 1.15452 602.858 -0.480279 601.371 -3.98426L579.827 -54.739C578.339 -58.243 579.974 -62.2893 583.478 -63.7766Z" fill="#FF6B6B"/>
</g>
</g>
<g id="Sprinkle Copy 2_4">
<rect width="62.7987" height="53.2957" fill="black" fill-opacity="0" transform="translate(606.605 50.6299) rotate(102)"/>
<g id="Rotate_52">
<rect width="68.9228" height="13.7849" fill="black" fill-opacity="0" transform="translate(565.099 41.8076) rotate(64)"/>
<path id="line (Stroke)_49" fill-rule="evenodd" clip-rule="evenodd" d="M558.904 44.8291C562.326 43.1604 566.452 44.5812 568.121 48.0025L592.291 97.5602C593.96 100.982 592.539 105.108 589.118 106.776C585.697 108.445 581.57 107.024 579.902 103.603L555.731 54.0454C554.062 50.624 555.483 46.4978 558.904 44.8291Z" fill="#FF922B"/>
</g>
</g>
<g id="Sprinkle Copy 3_4">
<rect width="70.2573" height="28.9358" fill="black" fill-opacity="0" transform="translate(572.541 152.479) rotate(102)"/>
<g id="Rotate_53">
<rect width="68.9228" height="13.7849" fill="black" fill-opacity="0" transform="translate(571.896 155.513) rotate(115)"/>
</g>
</g>
<g id="Sprinkle Copy 7_5">
<rect width="41.6214" height="68.291" fill="black" fill-opacity="0" transform="translate(496.969 602.146) rotate(102)"/>
<g id="Rotate_54">
<rect width="68.9228" height="13.7849" fill="black" fill-opacity="0" transform="translate(494.372 614.367) rotate(167)"/>
<path id="line (Stroke)_50" fill-rule="evenodd" clip-rule="evenodd" d="M492.821 607.651C493.677 611.36 491.365 615.061 487.656 615.918L433.931 628.321C430.222 629.177 426.521 626.865 425.665 623.156C424.808 619.447 427.121 615.746 430.83 614.889L484.555 602.486C488.264 601.63 491.965 603.942 492.821 607.651Z" fill="#FF6B6B"/>
</g>
</g>
<g id="Sprinkle Copy 8_5">
<rect width="56.3625" height="60.4435" fill="black" fill-opacity="0" transform="translate(471.539 701.912) rotate(102)"/>
<g id="Rotate_55">
<rect width="68.9228" height="13.7849" fill="black" fill-opacity="0" transform="translate(450.798 755.125) rotate(-126)"/>
<path id="line (Stroke)_51" fill-rule="evenodd" clip-rule="evenodd" d="M456.374 751.074C453.294 753.311 448.984 752.628 446.747 749.549L414.337 704.941C412.1 701.862 412.783 697.551 415.862 695.314C418.942 693.077 423.252 693.759 425.489 696.839L457.899 741.446C460.136 744.526 459.454 748.836 456.374 751.074Z" fill="#FF922B"/>
</g>
</g>
<g id="Sprinkle Copy 9_5">
<rect width="69.8093" height="34.4085" fill="black" fill-opacity="0" transform="translate(437.24 800.403) rotate(102)"/>
<g id="Rotate_56">
<rect width="68.9228" height="13.7849" fill="black" fill-opacity="0" transform="translate(409.902 865.961) rotate(-96)"/>
<path id="line (Stroke)_52" fill-rule="evenodd" clip-rule="evenodd" d="M416.757 865.24C412.971 865.638 409.579 862.892 409.181 859.106L403.418 804.27C403.02 800.485 405.766 797.093 409.552 796.695C413.338 796.297 416.729 799.044 417.127 802.829L422.891 857.665C423.289 861.451 420.542 864.843 416.757 865.24Z" fill="#FF6B6B"/>
</g>
</g>
<g id="Sprinkle Copy 10_5">
<rect width="63.8623" height="51.664" fill="black" fill-opacity="0" transform="translate(422.196 912.811) rotate(102)"/>
<g id="Rotate_57">
<rect width="68.9228" height="13.7849" fill="black" fill-opacity="0" transform="translate(360.068 956.61) rotate(-42)"/>
<path id="line (Stroke)_53" fill-rule="evenodd" clip-rule="evenodd" d="M364.68 961.732C362.132 958.904 362.361 954.546 365.19 951.998L406.165 915.104C408.994 912.557 413.352 912.785 415.899 915.614C418.446 918.443 418.218 922.801 415.389 925.348L374.414 962.243C371.585 964.79 367.227 964.561 364.68 961.732Z" fill="#FF6B6B"/>
</g>
</g>
<g id="Sprinkle Copy 11_5">
<rect width="14.9856" height="69.1529" fill="black" fill-opacity="0" transform="translate(402.905 1046.35) rotate(102)"/>
<g id="Rotate_58">
<rect width="68.9228" height="13.7849" fill="black" fill-opacity="0" transform="translate(335.013 1033.15) rotate(11)"/>
<path id="line (Stroke)_54" fill-rule="evenodd" clip-rule="evenodd" d="M333.698 1039.92C334.425 1036.18 338.043 1033.74 341.779 1034.46L395.904 1044.99C399.641 1045.71 402.081 1049.33 401.355 1053.07C400.628 1056.8 397.011 1059.24 393.274 1058.52L339.149 1048C335.412 1047.27 332.972 1043.65 333.698 1039.92Z" fill="#CC5DE8"/>
</g>
</g>
<g id="Sprinkle Copy 12_6">
<rect width="28.9358" height="70.2573" fill="black" fill-opacity="0" transform="translate(382.012 1147.53) rotate(102)"/>
<g id="Rotate_59">
<rect width="68.9228" height="13.7849" fill="black" fill-opacity="0" transform="translate(316.323 1133.56) rotate(25)"/>
<path id="line (Stroke)_55" fill-rule="evenodd" clip-rule="evenodd" d="M313.41 1139.81C315.019 1136.36 319.12 1134.87 322.57 1136.48L372.542 1159.78C375.992 1161.39 377.484 1165.49 375.876 1168.94C374.267 1172.39 370.166 1173.88 366.716 1172.27L316.744 1148.97C313.294 1147.36 311.802 1143.26 313.41 1139.81Z" fill="#FF6B6B"/>
</g>
</g>
<g id="Sprinkle Copy 14_6">
<rect width="69.1529" height="14.9856" fill="black" fill-opacity="0" transform="translate(336.339 1230.19) rotate(102)"/>
<g id="Rotate_60">
<rect width="68.9228" height="13.7849" fill="black" fill-opacity="0" transform="translate(336.289 1230.43) rotate(103)"/>
<path id="line (Stroke)_56" fill-rule="evenodd" clip-rule="evenodd" d="M329.573 1228.88C333.282 1229.73 335.595 1233.44 334.738 1237.14L322.335 1290.87C321.479 1294.58 317.778 1296.89 314.069 1296.03C310.36 1295.18 308.047 1291.48 308.903 1287.77L321.307 1234.04C322.163 1230.33 325.864 1228.02 329.573 1228.88Z" fill="#94D82D"/>
</g>
</g>
<g id="Sprinkle Copy 15_5">
<rect width="68.571" height="40.6265" fill="black" fill-opacity="0" transform="translate(325.517 1341.01) rotate(102)"/>
<g id="Rotate_61">
<rect width="68.9228" height="13.7849" fill="black" fill-opacity="0" transform="translate(298.943 1405.46) rotate(-102)"/>
<path id="line (Stroke)_57" fill-rule="evenodd" clip-rule="evenodd" d="M305.684 1404.03C301.961 1404.82 298.301 1402.44 297.51 1398.72L286.046 1344.79C285.254 1341.06 287.631 1337.4 291.355 1336.61C295.078 1335.82 298.738 1338.2 299.529 1341.92L310.993 1395.85C311.785 1399.58 309.408 1403.24 305.684 1404.03Z" fill="#FF6B6B"/>
</g>
</g>
<g id="Sprinkle Copy 16_2">
<rect width="64.848" height="49.9693" fill="black" fill-opacity="0" transform="translate(306.826 1451.49) rotate(102)"/>
<g id="Rotate_62">
<rect width="68.9228" height="13.7849" fill="black" fill-opacity="0" transform="translate(246.069 1496.99) rotate(-44)"/>
<path id="line (Stroke)_58" fill-rule="evenodd" clip-rule="evenodd" d="M250.857 1501.95C248.213 1499.21 248.289 1494.85 251.027 1492.2L290.69 1453.9C293.428 1451.26 297.792 1451.33 300.436 1454.07C303.08 1456.81 303.004 1461.17 300.266 1463.82L260.603 1502.12C257.865 1504.76 253.501 1504.69 250.857 1501.95Z" fill="#FF6B6B"/>
</g>
</g>
</g>
<g id="Group Copy 12">
<rect width="1944.11" height="70.2104" fill="black" fill-opacity="0" transform="translate(445.39 -212.026) rotate(102)"/>
<g id="Sprinkle Copy 2_5">
<rect width="54.0874" height="62.2382" fill="black" fill-opacity="0" transform="translate(394.011 10.166) rotate(102)"/>
<g id="Rotate_63">
<rect width="68.9228" height="13.7849" fill="black" fill-opacity="0" transform="translate(374.281 61.2676) rotate(-129)"/>
<path id="line (Stroke)_59" fill-rule="evenodd" clip-rule="evenodd" d="M379.637 56.93C376.679 59.3256 372.339 58.8694 369.943 55.9112L335.244 13.0609C332.848 10.1026 333.304 5.76249 336.262 3.36693C339.221 0.971364 343.561 1.42753 345.956 4.3858L380.656 47.2361C383.051 50.1943 382.595 54.5345 379.637 56.93Z" fill="#FF6B6B"/>
</g>
</g>
<g id="Sprinkle Copy 3_5">
<rect width="69.481" height="36.5265" fill="black" fill-opacity="0" transform="translate(360.068 107.735) rotate(102)"/>
<g id="Rotate_64">
<rect width="68.9228" height="13.7849" fill="black" fill-opacity="0" transform="translate(332.952 173.005) rotate(-98)"/>
<path id="line (Stroke)_60" fill-rule="evenodd" clip-rule="evenodd" d="M339.777 172.046C336.007 172.575 332.522 169.949 331.992 166.18L324.319 111.578C323.789 107.809 326.415 104.323 330.185 103.794C333.954 103.264 337.44 105.89 337.969 109.66L345.643 164.261C346.173 168.031 343.547 171.516 339.777 172.046Z" fill="#845EF7"/>
</g>
</g>
<g id="Sprinkle Copy 4_3">
<rect width="64.3649" height="50.8244" fill="black" fill-opacity="0" transform="translate(343.922 219.703) rotate(102)"/>
<g id="Rotate_65">
<rect width="68.9228" height="13.7849" fill="black" fill-opacity="0" transform="translate(342.278 227.438) rotate(137)"/>
<path id="line (Stroke)_61" fill-rule="evenodd" clip-rule="evenodd" d="M337.577 222.397C340.174 225.181 340.021 229.542 337.237 232.138L296.912 269.742C294.128 272.338 289.767 272.186 287.17 269.402C284.574 266.618 284.727 262.257 287.511 259.661L327.836 222.057C330.62 219.46 334.981 219.613 337.577 222.397Z" fill="#FF922B"/>
</g>
</g>
<g id="Sprinkle Copy 6_3">
<rect width="36.5265" height="69.481" fill="black" fill-opacity="0" transform="translate(304.139 450.661) rotate(102)"/>
<g id="Rotate_66">
<rect width="68.9228" height="13.7849" fill="black" fill-opacity="0" transform="translate(231.275 459.273) rotate(-8)"/>
</g>
</g>
<g id="Sprinkle Copy 7_6">
<rect width="70.2868" height="26.6827" fill="black" fill-opacity="0" transform="translate(263.992 537.831) rotate(102)"/>
<g id="Rotate_67">
<rect width="68.9228" height="13.7849" fill="black" fill-opacity="0" transform="translate(263.445 540.404) rotate(113)"/>
</g>
</g>
<g id="Sprinkle Copy 8_6">
<rect width="42.6035" height="67.9903" fill="black" fill-opacity="0" transform="translate(258.166 663.271) rotate(102)"/>
<g id="Rotate_68">
<rect width="68.9228" height="13.7849" fill="black" fill-opacity="0" transform="translate(185.38 678.689) rotate(-14)"/>
<path id="line (Stroke)_62" fill-rule="evenodd" clip-rule="evenodd" d="M187.047 685.377C186.126 681.684 188.374 677.943 192.068 677.022L245.568 663.683C249.261 662.762 253.002 665.01 253.923 668.703C254.844 672.397 252.596 676.137 248.903 677.058L195.402 690.397C191.709 691.318 187.968 689.071 187.047 685.377Z" fill="#FF922B"/>
</g>
</g>
<g id="Sprinkle Copy 9_6">
<rect width="16.1818" height="69.3619" fill="black" fill-opacity="0" transform="translate(233.177 784.576) rotate(102)"/>
<g id="Rotate_69">
<rect width="68.9228" height="13.7849" fill="black" fill-opacity="0" transform="translate(230.312 798.052) rotate(-170)"/>
<path id="line (Stroke)_63" fill-rule="evenodd" clip-rule="evenodd" d="M231.509 791.264C230.848 795.013 227.274 797.516 223.525 796.855L169.224 787.28C165.476 786.619 162.973 783.044 163.634 779.296C164.295 775.547 167.869 773.044 171.618 773.705L225.918 783.279C229.667 783.94 232.17 787.515 231.509 791.264Z" fill="#F06595"/>
</g>
</g>
<g id="Sprinkle Copy 10_6">
<rect width="66.5814" height="46.3995" fill="black" fill-opacity="0" transform="translate(204.433 865.346) rotate(102)"/>
<g id="Rotate_70">
<rect width="68.9228" height="13.7849" fill="black" fill-opacity="0" transform="translate(203 872.088) rotate(132)"/>
<path id="line (Stroke)_64" fill-rule="evenodd" clip-rule="evenodd" d="M197.878 867.476C200.707 870.023 200.935 874.381 198.388 877.21L161.493 918.185C158.946 921.014 154.588 921.243 151.759 918.696C148.93 916.148 148.702 911.79 151.249 908.962L188.144 867.986C190.691 865.157 195.049 864.929 197.878 867.476Z" fill="#F06595"/>
</g>
</g>
<g id="Sprinkle Copy 11_6">
<rect width="43.5727" height="67.6689" fill="black" fill-opacity="0" transform="translate(189.423 986.732) rotate(102)"/>
<g id="Rotate_71">
<rect width="68.9228" height="13.7849" fill="black" fill-opacity="0" transform="translate(186.869 998.746) rotate(165)"/>
<path id="line (Stroke)_65" fill-rule="evenodd" clip-rule="evenodd" d="M185.085 992.089C186.071 995.765 183.889 999.545 180.212 1000.53L126.953 1014.8C123.276 1015.79 119.496 1013.6 118.511 1009.93C117.526 1006.25 119.708 1002.47 123.385 1001.49L176.644 987.215C180.321 986.23 184.1 988.412 185.085 992.089Z" fill="#CC5DE8"/>
</g>
</g>
<g id="Sprinkle Copy 12_7">
<rect width="63.3402" height="52.4879" fill="black" fill-opacity="0" transform="translate(160.951 1083.02) rotate(102)"/>
<g id="Rotate_72">
<rect width="68.9228" height="13.7849" fill="black" fill-opacity="0" transform="translate(98.1658 1125.95) rotate(-41)"/>
<path id="line (Stroke)_66" fill-rule="evenodd" clip-rule="evenodd" d="M102.688 1131.15C100.19 1128.28 100.495 1123.93 103.368 1121.43L144.981 1085.26C147.854 1082.76 152.207 1083.06 154.704 1085.94C157.202 1088.81 156.897 1093.16 154.024 1095.66L112.411 1131.83C109.538 1134.33 105.185 1134.03 102.688 1131.15Z" fill="#FF6B6B"/>
</g>
</g>
<g id="Sprinkle Copy 14_7">
<rect width="20.9137" height="69.9862" fill="black" fill-opacity="0" transform="translate(142.316 1213.41) rotate(102)"/>
<g id="Rotate_73">
<rect width="68.9228" height="13.7849" fill="black" fill-opacity="0" transform="translate(72.3611 1205.91) rotate(6)"/>
<path id="line (Stroke)_67" fill-rule="evenodd" clip-rule="evenodd" d="M71.6406 1212.76C72.0385 1208.98 75.43 1206.23 79.2158 1206.63L134.052 1212.39C137.837 1212.79 140.584 1216.18 140.186 1219.97C139.788 1223.75 136.397 1226.5 132.611 1226.1L77.7748 1220.34C73.9891 1219.94 71.2427 1216.55 71.6406 1212.76Z" fill="#22B8CF"/>
</g>
</g>
<g id="Sprinkle Copy 15_6">
<rect width="70.2104" height="30.0493" fill="black" fill-opacity="0" transform="translate(105.152 1293.2) rotate(102)"/>
<g id="Rotate_74">
<rect width="68.9228" height="13.7849" fill="black" fill-opacity="0" transform="translate(88.8428 1289.73) rotate(88)"/>
<path id="line (Stroke)_68" fill-rule="evenodd" clip-rule="evenodd" d="M81.9545 1289.97C85.7588 1289.84 88.9505 1292.82 89.0833 1296.62L91.0076 1351.73C91.1405 1355.53 88.1642 1358.72 84.3599 1358.85C80.5556 1358.99 77.364 1356.01 77.2311 1352.21L75.3069 1297.1C75.174 1293.3 78.1503 1290.11 81.9545 1289.97Z" fill="#FF6B6B"/>
</g>
</g>
<g id="Sprinkle Copy 16_3">
<rect width="64.3649" height="50.8244" fill="black" fill-opacity="0" transform="translate(91.7632 1406.02) rotate(102)"/>
<g id="Rotate_75">
<rect width="68.9228" height="13.7849" fill="black" fill-opacity="0" transform="translate(53.0945 1397.8) rotate(67)"/>
<path id="line (Stroke)_69" fill-rule="evenodd" clip-rule="evenodd" d="M46.75 1400.49C50.2539 1399 54.3002 1400.64 55.7876 1404.14L77.3317 1454.9C78.819 1458.4 77.1842 1462.45 73.6803 1463.93C70.1763 1465.42 66.13 1463.79 64.6427 1460.28L43.0985 1409.53C41.6112 1406.02 43.246 1401.98 46.75 1400.49Z" fill="#FF6B6B"/>
</g>
</g>
<g id="Sprinkle Copy 17">
<rect width="30.0493" height="70.2104" fill="black" fill-opacity="0" transform="translate(74.488 1532.93) rotate(102)"/>
<g id="Rotate_76">
<rect width="68.9228" height="13.7849" fill="black" fill-opacity="0" transform="translate(64.9785 1561.63) rotate(-154)"/>
<path id="line (Stroke)_70" fill-rule="evenodd" clip-rule="evenodd" d="M68 1555.43C66.3313 1558.85 62.205 1560.28 58.7836 1558.61L9.22596 1534.44C5.80462 1532.77 4.38383 1528.64 6.05252 1525.22C7.72122 1521.8 11.8475 1520.38 15.2688 1522.05L64.8265 1546.22C68.2479 1547.89 69.6687 1552.01 68 1555.43Z" fill="#FF6B6B"/>
</g>
</g>
</g>
<g id="Group Copy 14">
<rect width="1943.33" height="70.3827" fill="black" fill-opacity="0" transform="translate(229.486 -257.109) rotate(102)"/>
<g id="Sprinkle Copy 2_6">
<rect width="70.2827" height="27.8135" fill="black" fill-opacity="0" transform="translate(163.443 -47.2305) rotate(102)"/>
<g id="Rotate_77">
<rect width="68.9228" height="13.7849" fill="black" fill-opacity="0" transform="translate(162.847 -44.4268) rotate(114)"/>
<path id="line (Stroke)_71" fill-rule="evenodd" clip-rule="evenodd" d="M156.55 -47.2302C160.028 -45.6819 161.592 -41.6077 160.044 -38.1302L137.617 12.2408C136.069 15.7183 131.994 17.2823 128.517 15.734C125.039 14.1857 123.476 10.1115 125.024 6.63403L147.45 -43.737C148.999 -47.2145 153.073 -48.7784 156.55 -47.2302Z" fill="#F06595"/>
</g>
</g>
<g id="Sprinkle Copy 3_6">
<rect width="70.0525" height="32.2486" fill="black" fill-opacity="0" transform="translate(142.676 61.1172) rotate(102)"/>
<g id="Rotate_78">
<rect width="68.9228" height="13.7849" fill="black" fill-opacity="0" transform="translate(124.094 57.167) rotate(86)"/>
<path id="line (Stroke)_72" fill-rule="evenodd" clip-rule="evenodd" d="M117.218 57.6478C121.015 57.3823 124.309 60.2453 124.575 64.0426L128.421 119.046C128.686 122.844 125.823 126.137 122.026 126.403C118.229 126.668 114.935 123.805 114.669 120.008L110.823 65.0042C110.558 61.2069 113.421 57.9133 117.218 57.6478Z" fill="#20C997"/>
</g>
</g>
<g id="Sprinkle Copy 4_4">
<rect width="47.3138" height="66.1781" fill="black" fill-opacity="0" transform="translate(133.725 183.463) rotate(102)"/>
<g id="Rotate_79">
<rect width="68.9228" height="13.7849" fill="black" fill-opacity="0" transform="translate(61.613 204.426) rotate(-19)"/>
<path id="line (Stroke)_73" fill-rule="evenodd" clip-rule="evenodd" d="M63.857 210.943C62.6177 207.344 64.5308 203.421 68.13 202.182L120.264 184.231C123.863 182.991 127.786 184.904 129.025 188.504C130.264 192.103 128.351 196.025 124.752 197.264L72.6179 215.216C69.0187 216.455 65.0963 214.542 63.857 210.943Z" fill="#FCC419"/>
</g>
</g>
<g id="Sprinkle Copy 5_2">
<rect width="63.8623" height="51.664" fill="black" fill-opacity="0" transform="translate(105.307 281.987) rotate(102)"/>
<g id="Rotate_80">
<rect width="68.9228" height="13.7849" fill="black" fill-opacity="0" transform="translate(81.1208 342.136) rotate(-114)"/>
<path id="line (Stroke)_74" fill-rule="evenodd" clip-rule="evenodd" d="M87.4174 339.332C83.9399 340.881 79.8657 339.317 78.3174 335.839L55.8908 285.468C54.3425 281.991 55.9065 277.916 59.384 276.368C62.8614 274.82 66.9356 276.384 68.4839 279.861L90.9105 330.232C92.4588 333.71 90.8949 337.784 87.4174 339.332Z" fill="#51CF66"/>
</g>
</g>
<g id="Sprinkle Copy 6_4">
<rect width="70.2827" height="27.8135" fill="black" fill-opacity="0" transform="translate(71.7485 384.154) rotate(102)"/>
<g id="Rotate_81">
<rect width="68.9228" height="13.7849" fill="black" fill-opacity="0" transform="translate(57.7319 381.175) rotate(90)"/>
<path id="line (Stroke)_75" fill-rule="evenodd" clip-rule="evenodd" d="M50.8395 381.175C54.6461 381.175 57.7319 384.261 57.7319 388.067V443.205C57.7319 447.012 54.6461 450.098 50.8395 450.098C47.0329 450.098 43.9471 447.012 43.9471 443.205V388.067C43.9471 384.261 47.0329 381.175 50.8395 381.175Z" fill="#FF6B6B"/>
</g>
</g>
<g id="Sprinkle Copy 7_7">
<rect width="16.1818" height="69.3619" fill="black" fill-opacity="0" transform="translate(63.3721 522.612) rotate(102)"/>
<g id="Rotate_82">
<rect width="68.9228" height="13.7849" fill="black" fill-opacity="0" transform="translate(-4.00366 508.291) rotate(14)"/>
</g>
</g>
<g id="Sprinkle Copy 8_7">
<rect width="27.8135" height="70.2828" fill="black" fill-opacity="0" transform="translate(41.8896 624.98) rotate(102)"/>
<g id="Rotate_83">
<rect width="68.9228" height="13.7849" fill="black" fill-opacity="0" transform="translate(-24.054 610.964) rotate(24)"/>
<path id="line (Stroke)_76" fill-rule="evenodd" clip-rule="evenodd" d="M-26.8574 617.26C-25.3091 613.783 -21.2349 612.219 -17.7574 613.767L32.6136 636.194C36.0911 637.742 37.6551 641.816 36.1068 645.294C34.5585 648.771 30.4843 650.335 27.0068 648.787L-23.3642 626.36C-26.8417 624.812 -28.4056 620.738 -26.8574 617.26Z" fill="#329AF0"/>
</g>
</g>
<g id="Sprinkle Copy 9_7">
<rect width="48.2138" height="65.7547" fill="black" fill-opacity="0" transform="translate(18.9021 722.63) rotate(102)"/>
<g id="Rotate_84">
<rect width="68.9228" height="13.7849" fill="black" fill-opacity="0" transform="translate(1.73267 768.271) rotate(-136)"/>
<path id="line (Stroke)_77" fill-rule="evenodd" clip-rule="evenodd" d="M6.52055 763.313C3.87628 766.052 -0.487106 766.128 -3.22533 763.484L-42.8883 725.182C-45.6265 722.537 -45.7027 718.174 -43.0584 715.436C-40.4141 712.697 -36.0507 712.621 -33.3125 715.266L6.35044 753.568C9.08866 756.212 9.16483 760.575 6.52055 763.313Z" fill="#329AF0"/>
</g>
</g>
</g>
<g id="Group Copy">
<rect width="1934.6" height="69.9862" fill="black" fill-opacity="0" transform="translate(1641.46 -4.73926) rotate(102)"/>
<g id="Sprinkle Copy 9_8">
<rect width="14.9856" height="69.1529" fill="black" fill-opacity="0" transform="translate(1430.98 983.419) rotate(102)"/>
<g id="Rotate_85">
<rect width="68.9228" height="13.7849" fill="black" fill-opacity="0" transform="translate(1428.12 996.9) rotate(-169)"/>
<path id="line (Stroke)_78" fill-rule="evenodd" clip-rule="evenodd" d="M1429.43 990.135C1428.7 993.871 1425.09 996.312 1421.35 995.585L1367.22 985.064C1363.49 984.338 1361.05 980.72 1361.77 976.983C1362.5 973.247 1366.12 970.807 1369.85 971.533L1423.98 982.054C1427.72 982.78 1430.16 986.398 1429.43 990.135Z" fill="#CC5DE8"/>
</g>
</g>
<g id="Sprinkle Copy 10_7">
<rect width="66.5814" height="46.3995" fill="black" fill-opacity="0" transform="translate(1402.14 1063.56) rotate(102)"/>
<g id="Rotate_86">
<rect width="68.9228" height="13.7849" fill="black" fill-opacity="0" transform="translate(1376.62 1126.2) rotate(-108)"/>
<path id="line (Stroke)_79" fill-rule="evenodd" clip-rule="evenodd" d="M1383.18 1124.07C1379.56 1125.25 1375.67 1123.27 1374.49 1119.65L1357.46 1067.21C1356.28 1063.59 1358.26 1059.7 1361.88 1058.52C1365.5 1057.34 1369.39 1059.33 1370.57 1062.95L1387.6 1115.39C1388.78 1119.01 1386.8 1122.89 1383.18 1124.07Z" fill="#CC5DE8"/>
</g>
</g>
<g id="Sprinkle Copy 11_7">
<rect width="19.7394" height="69.862" fill="black" fill-opacity="0" transform="translate(1386.03 1196.52) rotate(102)"/>
<g id="Rotate_87">
<rect width="68.9228" height="13.7849" fill="black" fill-opacity="0" transform="translate(1316.44 1187.87) rotate(7)"/>
<path id="line (Stroke)_80" fill-rule="evenodd" clip-rule="evenodd" d="M1315.6 1194.72C1316.07 1190.94 1319.51 1188.25 1323.28 1188.71L1378.01 1195.43C1381.79 1195.9 1384.48 1199.34 1384.01 1203.11C1383.55 1206.89 1380.11 1209.58 1376.33 1209.12L1321.6 1202.4C1317.83 1201.93 1315.14 1198.49 1315.6 1194.72Z" fill="#51CF66"/>
</g>
</g>
<g id="Sprinkle Copy 12_8">
<rect width="69.6557" height="35.4729" fill="black" fill-opacity="0" transform="translate(1351.28 1276.49) rotate(102)"/>
<g id="Rotate_88">
<rect width="68.9228" height="13.7849" fill="black" fill-opacity="0" transform="translate(1303.03 1332.86) rotate(-59)"/>
<path id="line (Stroke)_81" fill-rule="evenodd" clip-rule="evenodd" d="M1308.94 1336.41C1305.68 1334.45 1304.62 1330.21 1306.58 1326.95L1334.98 1279.69C1336.94 1276.43 1341.18 1275.37 1344.44 1277.33C1347.7 1279.29 1348.76 1283.53 1346.8 1286.79L1318.4 1334.05C1316.44 1337.31 1312.21 1338.37 1308.94 1336.41Z" fill="#FF922B"/>
</g>
</g>
<g id="Sprinkle Copy 14_8">
<rect width="20.9137" height="69.9862" fill="black" fill-opacity="0" transform="translate(1340.31 1412.07) rotate(102)"/>
<g id="Rotate_89">
<rect width="68.9228" height="13.7849" fill="black" fill-opacity="0" transform="translate(1337.46 1425.48) rotate(-174)"/>
<path id="line (Stroke)_82" fill-rule="evenodd" clip-rule="evenodd" d="M1338.18 1418.63C1337.78 1422.41 1334.39 1425.16 1330.61 1424.76L1275.77 1419C1271.98 1418.6 1269.24 1415.21 1269.64 1411.42C1270.03 1407.64 1273.43 1404.89 1277.21 1405.29L1332.05 1411.05C1335.83 1411.45 1338.58 1414.84 1338.18 1418.63Z" fill="#F06595"/>
</g>
</g>
<g id="Sprinkle Copy 15_7">
<rect width="47.3138" height="66.1781" fill="black" fill-opacity="0" transform="translate(1318.42 1506.3) rotate(102)"/>
<g id="Rotate_90">
<rect width="68.9228" height="13.7849" fill="black" fill-opacity="0" transform="translate(1260.63 1494.02) rotate(43)"/>
<path id="line (Stroke)_83" fill-rule="evenodd" clip-rule="evenodd" d="M1255.93 1499.06C1258.52 1496.28 1262.89 1496.12 1265.67 1498.72L1305.99 1536.32C1308.78 1538.92 1308.93 1543.28 1306.33 1546.06C1303.74 1548.85 1299.38 1549 1296.59 1546.4L1256.27 1508.8C1253.48 1506.2 1253.33 1501.84 1255.93 1499.06Z" fill="#20C997"/>
</g>
</g>
</g>
<g id="Group Copy 3">
<rect width="1925.17" height="70.2565" fill="black" fill-opacity="0" transform="translate(1424.57 -44.5215) rotate(102)"/>
<g id="Sprinkle Copy_5">
<rect width="69.3619" height="16.1818" fill="black" fill-opacity="0" transform="translate(1378.26 42.3115) rotate(102)"/>
<g id="Rotate_91">
<rect width="68.9228" height="13.7849" fill="black" fill-opacity="0" transform="translate(1350.36 107.293) rotate(-80)"/>
<path id="line (Stroke)_84" fill-rule="evenodd" clip-rule="evenodd" d="M1357.15 108.49C1353.4 107.829 1350.9 104.254 1351.56 100.505L1361.13 46.2049C1361.79 42.4562 1365.37 39.9531 1369.12 40.6141C1372.86 41.2751 1375.37 44.8499 1374.71 48.5987L1365.13 102.899C1364.47 106.648 1360.9 109.151 1357.15 108.49Z" fill="#FF6B6B"/>
</g>
</g>
<g id="Sprinkle Copy 2_7">
<rect width="66.9643" height="45.471" fill="black" fill-opacity="0" transform="translate(1369.78 154.373) rotate(102)"/>
<g id="Rotate_92">
<rect width="68.9228" height="13.7849" fill="black" fill-opacity="0" transform="translate(1337.09 147.426) rotate(73)"/>
<path id="line (Stroke)_85" fill-rule="evenodd" clip-rule="evenodd" d="M1330.5 149.441C1334.14 148.328 1337.99 150.377 1339.11 154.017L1355.23 206.746C1356.34 210.386 1354.29 214.239 1350.65 215.352C1347.01 216.465 1343.16 214.416 1342.04 210.776L1325.92 158.047C1324.81 154.407 1326.86 150.554 1330.5 149.441Z" fill="#FCC419"/>
</g>
</g>
<g id="Sprinkle Copy 3_7">
<rect width="24.3971" height="70.2307" fill="black" fill-opacity="0" transform="translate(1354.42 285.51) rotate(102)"/>
<g id="Rotate_93">
<rect width="68.9228" height="13.7849" fill="black" fill-opacity="0" transform="translate(1287.83 271.356) rotate(21)"/>
<path id="line (Stroke)_86" fill-rule="evenodd" clip-rule="evenodd" d="M1285.36 277.791C1286.72 274.237 1290.71 272.462 1294.26 273.826L1345.74 293.586C1349.29 294.95 1351.07 298.937 1349.71 302.491C1348.34 306.045 1344.35 307.82 1340.8 306.455L1289.32 286.696C1285.77 285.332 1284 281.345 1285.36 277.791Z" fill="#22B8CF"/>
</g>
</g>
<g id="Sprinkle Copy 5_3">
<rect width="68.9228" height="13.7849" fill="black" fill-opacity="0" transform="translate(1285.7 473.815) rotate(102)"/>
<g id="Rotate_94">
<rect width="68.9228" height="13.7849" fill="black" fill-opacity="0" transform="translate(1285.7 473.815) rotate(102)"/>
<path id="line (Stroke)_87" fill-rule="evenodd" clip-rule="evenodd" d="M1278.96 472.382C1282.68 473.174 1285.06 476.834 1284.27 480.557L1272.81 534.49C1272.01 538.214 1268.35 540.591 1264.63 539.799C1260.91 539.008 1258.53 535.348 1259.32 531.624L1270.79 477.691C1271.58 473.968 1275.24 471.591 1278.96 472.382Z" fill="#F06595"/>
</g>
</g>
<g id="Sprinkle Copy 7_8">
<rect width="70.2868" height="26.6827" fill="black" fill-opacity="0" transform="translate(1245.93 690.108) rotate(102)"/>
<g id="Rotate_95">
<rect width="68.9228" height="13.7849" fill="black" fill-opacity="0" transform="translate(1205.77 750.739) rotate(-67)"/>
<path id="line (Stroke)_88" fill-rule="evenodd" clip-rule="evenodd" d="M1212.11 753.432C1208.61 751.945 1206.97 747.899 1208.46 744.395L1230.01 693.64C1231.49 690.136 1235.54 688.501 1239.04 689.989C1242.55 691.476 1244.18 695.522 1242.69 699.026L1221.15 749.781C1219.66 753.285 1215.62 754.92 1212.11 753.432Z" fill="#CC5DE8"/>
</g>
</g>
<g id="Sprinkle Copy 8_8">
<rect width="57.0869" height="59.8082" fill="black" fill-opacity="0" transform="translate(1238.17 807.837) rotate(102)"/>
<g id="Rotate_96">
<rect width="68.9228" height="13.7849" fill="black" fill-opacity="0" transform="translate(1188.86 797.356) rotate(55)"/>
<path id="line (Stroke)_89" fill-rule="evenodd" clip-rule="evenodd" d="M1183.22 801.31C1186.34 799.126 1190.63 799.884 1192.82 803.002L1224.44 848.169C1226.63 851.287 1225.87 855.585 1222.75 857.768C1219.63 859.951 1215.33 859.194 1213.15 856.075L1181.52 810.909C1179.34 807.791 1180.1 803.493 1183.22 801.31Z" fill="#22B8CF"/>
</g>
</g>
<g id="Sprinkle Copy 9_9">
<rect width="69.2851" height="37.569" fill="black" fill-opacity="0" transform="translate(1205.64 907.64) rotate(102)"/>
<g id="Rotate_97">
<rect width="68.9228" height="13.7849" fill="black" fill-opacity="0" transform="translate(1204.61 912.472) rotate(123)"/>
<path id="line (Stroke)_90" fill-rule="evenodd" clip-rule="evenodd" d="M1198.83 908.718C1202.02 910.791 1202.93 915.06 1200.86 918.252L1170.83 964.495C1168.75 967.687 1164.48 968.595 1161.29 966.521C1158.1 964.448 1157.19 960.179 1159.26 956.987L1189.29 910.744C1191.37 907.552 1195.64 906.645 1198.83 908.718Z" fill="#FF6B6B"/>
</g>
</g>
<g id="Sprinkle Copy 10_8">
<rect width="16.1818" height="69.3619" fill="black" fill-opacity="0" transform="translate(1192.62 1044.49) rotate(102)"/>
<g id="Rotate_98">
<rect width="68.9228" height="13.7849" fill="black" fill-opacity="0" transform="translate(1125.25 1030.17) rotate(14)"/>
<path id="line (Stroke)_91" fill-rule="evenodd" clip-rule="evenodd" d="M1123.58 1036.86C1124.5 1033.16 1128.24 1030.92 1131.93 1031.84L1185.43 1045.18C1189.13 1046.1 1191.38 1049.84 1190.46 1053.53C1189.53 1057.23 1185.79 1059.47 1182.1 1058.55L1128.6 1045.21C1124.91 1044.29 1122.66 1040.55 1123.58 1036.86Z" fill="#FCC419"/>
</g>
</g>
<g id="Sprinkle Copy 11_8">
<rect width="49.9693" height="64.848" fill="black" fill-opacity="0" transform="translate(1171.09 1135.42) rotate(102)"/>
<g id="Rotate_99">
<rect width="68.9228" height="13.7849" fill="black" fill-opacity="0" transform="translate(1115.2 1123.54) rotate(46)"/>
<path id="line (Stroke)_92" fill-rule="evenodd" clip-rule="evenodd" d="M1110.24 1128.33C1112.98 1125.68 1117.34 1125.76 1119.99 1128.5L1158.29 1168.16C1160.93 1170.9 1160.86 1175.26 1158.12 1177.9C1155.38 1180.55 1151.02 1180.47 1148.37 1177.73L1110.07 1138.07C1107.43 1135.33 1107.5 1130.97 1110.24 1128.33Z" fill="#FF6B6B"/>
</g>
</g>
<g id="Sprinkle Copy 12_9">
<rect width="55.621" height="61.0604" fill="black" fill-opacity="0" transform="translate(1146.85 1240.43) rotate(102)"/>
<g id="Rotate_100">
<rect width="68.9228" height="13.7849" fill="black" fill-opacity="0" transform="translate(1144.69 1250.6) rotate(151)"/>
<path id="line (Stroke)_93" fill-rule="evenodd" clip-rule="evenodd" d="M1141.35 1244.57C1143.19 1247.9 1141.99 1252.1 1138.66 1253.94L1090.44 1280.68C1087.11 1282.52 1082.91 1281.32 1081.07 1277.99C1079.22 1274.66 1080.43 1270.46 1083.75 1268.62L1131.98 1241.89C1135.31 1240.04 1139.5 1241.24 1141.35 1244.57Z" fill="#94D82D"/>
</g>
</g>
<g id="Sprinkle Copy 13">
<rect width="70.0525" height="32.2486" fill="black" fill-opacity="0" transform="translate(1111.41 1338.16) rotate(102)"/>
<g id="Rotate_101">
<rect width="68.9228" height="13.7849" fill="black" fill-opacity="0" transform="translate(1110.62 1341.88) rotate(118)"/>
<path id="line (Stroke)_94" fill-rule="evenodd" clip-rule="evenodd" d="M1104.54 1338.64C1107.9 1340.43 1109.17 1344.6 1107.39 1347.96L1081.5 1396.65C1079.71 1400.01 1075.54 1401.29 1072.18 1399.5C1068.82 1397.71 1067.54 1393.54 1069.33 1390.18L1095.21 1341.49C1097 1338.13 1101.18 1336.86 1104.54 1338.64Z" fill="#FF6B6B"/>
</g>
</g>
<g id="Sprinkle Copy 14_9">
<rect width="56.3625" height="60.4435" fill="black" fill-opacity="0" transform="translate(1100.78 1455.73) rotate(102)"/>
<g id="Rotate_102">
<rect width="68.9228" height="13.7849" fill="black" fill-opacity="0" transform="translate(1098.65 1465.75) rotate(150)"/>
<path id="line (Stroke)_95" fill-rule="evenodd" clip-rule="evenodd" d="M1095.2 1459.78C1097.1 1463.08 1095.98 1467.29 1092.68 1469.2L1044.93 1496.77C1041.63 1498.67 1037.42 1497.54 1035.51 1494.24C1033.61 1490.95 1034.74 1486.73 1038.04 1484.83L1085.79 1457.26C1089.08 1455.35 1093.3 1456.48 1095.2 1459.78Z" fill="#51CF66"/>
</g>
</g>
</g>
<g id="Group Copy 5">
<rect width="1918.89" height="70.2701" fill="black" fill-opacity="0" transform="translate(1211.34 -102.396) rotate(102)"/>
<g id="Sprinkle Copy_6">
<rect width="30.0493" height="70.2104" fill="black" fill-opacity="0" transform="translate(1184.96 21.502) rotate(102)"/>
<g id="Rotate_103">
<rect width="68.9228" height="13.7849" fill="black" fill-opacity="0" transform="translate(1175.45 50.2012) rotate(-154)"/>
<path id="line (Stroke)_96" fill-rule="evenodd" clip-rule="evenodd" d="M1178.47 44.0063C1176.8 47.4276 1172.67 48.8484 1169.25 47.1797L1119.7 23.0088C1116.27 21.3401 1114.85 17.2138 1116.52 13.7925C1118.19 10.3712 1122.32 8.95038 1125.74 10.6191L1175.3 34.79C1178.72 36.4587 1180.14 40.585 1178.47 44.0063Z" fill="#FF6B6B"/>
</g>
</g>
<g id="Sprinkle Copy 2_8">
<rect width="24.3971" height="70.2307" fill="black" fill-opacity="0" transform="translate(1161.55 131.772) rotate(102)"/>
<g id="Rotate_104">
<rect width="68.9228" height="13.7849" fill="black" fill-opacity="0" transform="translate(1090.61 127.717) rotate(3)"/>
<path id="line (Stroke)_97" fill-rule="evenodd" clip-rule="evenodd" d="M1090.25 134.6C1090.45 130.798 1093.69 127.878 1097.49 128.078L1152.56 130.963C1156.36 131.162 1159.28 134.406 1159.08 138.207C1158.88 142.008 1155.64 144.928 1151.83 144.729L1096.77 141.843C1092.97 141.644 1090.05 138.401 1090.25 134.6Z" fill="#FF6B6B"/>
</g>
</g>
<g id="Sprinkle Copy 3_8">
<rect width="46.3995" height="66.5814" fill="black" fill-opacity="0" transform="translate(1139.05 228.509) rotate(102)"/>
<g id="Rotate_105">
<rect width="68.9228" height="13.7849" fill="black" fill-opacity="0" transform="translate(1066.76 248.374) rotate(-18)"/>
<path id="line (Stroke)_98" fill-rule="evenodd" clip-rule="evenodd" d="M1068.89 254.929C1067.71 251.309 1069.7 247.42 1073.32 246.244L1125.76 229.206C1129.38 228.029 1133.26 230.011 1134.44 233.631C1135.62 237.251 1133.64 241.139 1130.02 242.316L1077.58 259.354C1073.96 260.531 1070.07 258.549 1068.89 254.929Z" fill="#845EF7"/>
</g>
</g>
<g id="Sprinkle Copy 7_9">
<rect width="66.9643" height="45.471" fill="black" fill-opacity="0" transform="translate(1039.42 647.758) rotate(102)"/>
<g id="Rotate_106">
<rect width="68.9228" height="13.7849" fill="black" fill-opacity="0" transform="translate(1006.73 640.811) rotate(73)"/>
<path id="line (Stroke)_99" fill-rule="evenodd" clip-rule="evenodd" d="M1000.14 642.826C1003.78 641.713 1007.63 643.762 1008.75 647.402L1024.87 700.131C1025.98 703.771 1023.93 707.624 1020.29 708.737C1016.65 709.85 1012.8 707.801 1011.69 704.161L995.565 651.432C994.452 647.792 996.5 643.939 1000.14 642.826Z" fill="#F06595"/>
</g>
</g>
<g id="Sprinkle Copy 19">
<rect width="66.9643" height="45.471" fill="black" fill-opacity="0" transform="translate(1016.44 755.843) rotate(102)"/>
<g id="Rotate_107">
<rect width="68.9228" height="13.7849" fill="black" fill-opacity="0" transform="translate(983.758 748.896) rotate(73)"/>
<path id="line (Stroke)_100" fill-rule="evenodd" clip-rule="evenodd" d="M977.167 750.911C980.807 749.798 984.661 751.847 985.773 755.487L1001.89 808.215C1003.01 811.856 1000.96 815.709 997.318 816.822C993.678 817.935 989.825 815.886 988.712 812.246L972.591 759.517C971.478 755.877 973.527 752.024 977.167 750.911Z" fill="#94D82D"/>
</g>
</g>
<g id="Sprinkle Copy 9_10">
<rect width="50.8244" height="64.3649" fill="black" fill-opacity="0" transform="translate(1001.06 873.362) rotate(102)"/>
<g id="Rotate_108">
<rect width="68.9228" height="13.7849" fill="black" fill-opacity="0" transform="translate(945.837 861.624) rotate(47)"/>
<path id="line (Stroke)_101" fill-rule="evenodd" clip-rule="evenodd" d="M940.797 866.325C943.581 863.729 947.942 863.881 950.538 866.665L988.142 906.99C990.738 909.774 990.586 914.136 987.802 916.732C985.018 919.328 980.657 919.175 978.06 916.391L940.456 876.066C937.86 873.282 938.013 868.921 940.797 866.325Z" fill="#845EF7"/>
</g>
</g>
<g id="Sprinkle Copy 10_9">
<rect width="25.5438" height="70.2695" fill="black" fill-opacity="0" transform="translate(978.261 994.145) rotate(102)"/>
<g id="Rotate_109">
<rect width="68.9228" height="13.7849" fill="black" fill-opacity="0" transform="translate(907.039 991.241) rotate(2)"/>
<path id="line (Stroke)_102" fill-rule="evenodd" clip-rule="evenodd" d="M906.798 998.129C906.931 994.325 910.123 991.349 913.927 991.482L969.031 993.406C972.835 993.539 975.812 996.731 975.679 1000.53C975.546 1004.34 972.354 1007.32 968.55 1007.18L913.446 1005.26C909.641 1005.13 906.665 1001.93 906.798 998.129Z" fill="#CC5DE8"/>
</g>
</g>
<g id="Sprinkle Copy 11_9">
<rect width="68.83" height="39.6193" fill="black" fill-opacity="0" transform="translate(944.993 1077.96) rotate(102)"/>
<g id="Rotate_110">
<rect width="68.9228" height="13.7849" fill="black" fill-opacity="0" transform="translate(943.873 1083.22) rotate(125)"/>
<path id="line (Stroke)_103" fill-rule="evenodd" clip-rule="evenodd" d="M938.227 1079.27C941.345 1081.45 942.103 1085.75 939.92 1088.87L908.294 1134.04C906.11 1137.16 901.813 1137.91 898.695 1135.73C895.576 1133.55 894.819 1129.25 897.002 1126.13L928.628 1080.96C930.811 1077.85 935.109 1077.09 938.227 1079.27Z" fill="#22B8CF"/>
</g>
</g>
<g id="Sprinkle Copy 12_10">
<rect width="69.9862" height="20.9137" fill="black" fill-opacity="0" transform="translate(912.69 1183.18) rotate(102)"/>
<g id="Rotate_111">
<rect width="68.9228" height="13.7849" fill="black" fill-opacity="0" transform="translate(884.729 1248.79) rotate(-84)"/>
<path id="line (Stroke)_104" fill-rule="evenodd" clip-rule="evenodd" d="M891.584 1249.51C887.798 1249.11 885.052 1245.72 885.449 1241.93L891.213 1187.1C891.611 1183.31 895.002 1180.57 898.788 1180.96C902.574 1181.36 905.32 1184.75 904.922 1188.54L899.159 1243.37C898.761 1247.16 895.369 1249.91 891.584 1249.51Z" fill="#FCC419"/>
</g>
</g>
<g id="Sprinkle Copy 13_2">
<rect width="40.6265" height="68.571" fill="black" fill-opacity="0" transform="translate(910.095 1310.54) rotate(102)"/>
<g id="Rotate_112">
<rect width="68.9228" height="13.7849" fill="black" fill-opacity="0" transform="translate(896.164 1349.11) rotate(-144)"/>
<path id="line (Stroke)_105" fill-rule="evenodd" clip-rule="evenodd" d="M900.215 1343.53C897.978 1346.61 893.668 1347.3 890.588 1345.06L845.98 1312.65C842.901 1310.41 842.218 1306.1 844.456 1303.02C846.693 1299.94 851.003 1299.26 854.083 1301.5L898.691 1333.91C901.77 1336.14 902.453 1340.45 900.215 1343.53Z" fill="#FF6B6B"/>
</g>
</g>
<g id="Sprinkle Copy 14_10">
<rect width="68.571" height="40.6265" fill="black" fill-opacity="0" transform="translate(876.673 1401.79) rotate(102)"/>
<g id="Rotate_113">
<rect width="68.9228" height="13.7849" fill="black" fill-opacity="0" transform="translate(875.507 1407.27) rotate(126)"/>
<path id="line (Stroke)_106" fill-rule="evenodd" clip-rule="evenodd" d="M869.931 1403.22C873.011 1405.46 873.694 1409.77 871.456 1412.85L839.047 1457.46C836.809 1460.54 832.499 1461.22 829.419 1458.98C826.34 1456.74 825.657 1452.43 827.895 1449.35L860.304 1404.75C862.541 1401.67 866.852 1400.98 869.931 1403.22Z" fill="#FCC419"/>
</g>
</g>
<g id="Sprinkle Copy 15_8">
<rect width="45.471" height="66.9643" fill="black" fill-opacity="0" transform="translate(863.945 1523.72) rotate(102)"/>
<g id="Rotate_114">
<rect width="68.9228" height="13.7849" fill="black" fill-opacity="0" transform="translate(847.955 1566.81) rotate(-139)"/>
<path id="line (Stroke)_107" fill-rule="evenodd" clip-rule="evenodd" d="M852.476 1561.61C849.979 1564.48 845.626 1564.78 842.753 1562.29L801.14 1526.11C798.267 1523.62 797.962 1519.26 800.46 1516.39C802.957 1513.52 807.31 1513.21 810.183 1515.71L851.796 1551.88C854.669 1554.38 854.974 1558.73 852.476 1561.61Z" fill="#FF6B6B"/>
</g>
</g>
</g>
<g id="Group Copy 7">
<rect width="1932.07" height="70.3485" fill="black" fill-opacity="0" transform="translate(994.25 -141.539) rotate(102)"/>
<g id="Sprinkle Copy 2_9">
<rect width="69.068" height="38.6" fill="black" fill-opacity="0" transform="translate(935.159 60.9365) rotate(102)"/>
<g id="Rotate_115">
<rect width="68.9228" height="13.7849" fill="black" fill-opacity="0" transform="translate(909.904 55.5684) rotate(80)"/>
<path id="line (Stroke)_108" fill-rule="evenodd" clip-rule="evenodd" d="M903.117 56.7652C906.865 56.1042 910.44 58.6073 911.101 62.3561L920.676 116.656C921.337 120.405 918.834 123.98 915.085 124.641C911.336 125.302 907.761 122.799 907.1 119.05L897.526 64.7498C896.865 61.001 899.368 57.4262 903.117 56.7652Z" fill="#845EF7"/>
</g>
</g>
<g id="Sprinkle Copy 3_9">
<rect width="69.068" height="38.6" fill="black" fill-opacity="0" transform="translate(912.201 168.944) rotate(102)"/>
<g id="Rotate_116">
<rect width="68.9228" height="13.7849" fill="black" fill-opacity="0" transform="translate(911.127 173.995) rotate(124)"/>
</g>
</g>
<g id="Sprinkle Copy 7_10">
<rect width="26.6827" height="70.2868" fill="black" fill-opacity="0" transform="translate(831.499 624.148) rotate(102)"/>
<g id="Rotate_117">
<rect width="68.9228" height="13.7849" fill="black" fill-opacity="0" transform="translate(765.32 610.082) rotate(23)"/>
<path id="line (Stroke)_109" fill-rule="evenodd" clip-rule="evenodd" d="M762.627 616.427C764.115 612.923 768.161 611.288 771.665 612.775L822.42 634.319C825.924 635.807 827.558 639.853 826.071 643.357C824.584 646.861 820.537 648.496 817.033 647.008L766.279 625.464C762.775 623.977 761.14 619.931 762.627 616.427Z" fill="#5C7CFA"/>
</g>
</g>
<g id="Sprinkle Copy 8_9">
<rect width="65.7547" height="48.2138" fill="black" fill-opacity="0" transform="translate(801.9 710.922) rotate(102)"/>
<g id="Rotate_118">
<rect width="68.9228" height="13.7849" fill="black" fill-opacity="0" transform="translate(800.381 718.067) rotate(134)"/>
<path id="line (Stroke)_110" fill-rule="evenodd" clip-rule="evenodd" d="M795.423 713.279C798.162 715.924 798.238 720.287 795.593 723.025L757.291 762.688C754.647 765.427 750.284 765.503 747.546 762.858C744.807 760.214 744.731 755.851 747.375 753.113L785.677 713.45C788.322 710.711 792.685 710.635 795.423 713.279Z" fill="#51CF66"/>
</g>
</g>
<g id="Sprinkle Copy 9_11">
<rect width="70.1706" height="23.2429" fill="black" fill-opacity="0" transform="translate(767.271 813.91) rotate(102)"/>
<g id="Rotate_119">
<rect width="68.9228" height="13.7849" fill="black" fill-opacity="0" transform="translate(757.888 811.916) rotate(94)"/>
<path id="line (Stroke)_111" fill-rule="evenodd" clip-rule="evenodd" d="M751.013 811.435C754.81 811.701 757.673 814.994 757.407 818.792L753.561 873.795C753.296 877.593 750.002 880.456 746.205 880.19C742.407 879.925 739.544 876.631 739.81 872.834L743.656 817.83C743.922 814.033 747.215 811.17 751.013 811.435Z" fill="#FF6B6B"/>
</g>
</g>
<g id="Sprinkle Copy 10_10">
<rect width="69.6557" height="35.4729" fill="black" fill-opacity="0" transform="translate(750.245 923.385) rotate(102)"/>
<g id="Rotate_120">
<rect width="68.9228" height="13.7849" fill="black" fill-opacity="0" transform="translate(749.312 927.774) rotate(121)"/>
<path id="line (Stroke)_112" fill-rule="evenodd" clip-rule="evenodd" d="M743.404 924.225C746.666 926.185 747.722 930.42 745.762 933.682L717.364 980.945C715.403 984.208 711.169 985.263 707.906 983.303C704.643 981.342 703.587 977.108 705.548 973.845L733.946 926.583C735.906 923.32 740.141 922.264 743.404 924.225Z" fill="#5C7CFA"/>
</g>
</g>
<g id="Sprinkle Copy 11_10">
<rect width="65.3113" height="49.099" fill="black" fill-opacity="0" transform="translate(733.501 1034.83) rotate(102)"/>
<g id="Rotate_121">
<rect width="68.9228" height="13.7849" fill="black" fill-opacity="0" transform="translate(731.94 1042.17) rotate(135)"/>
<path id="line (Stroke)_113" fill-rule="evenodd" clip-rule="evenodd" d="M727.067 1037.3C729.758 1039.99 729.758 1044.35 727.067 1047.05L688.078 1086.03C685.387 1088.73 681.023 1088.73 678.331 1086.03C675.639 1083.34 675.639 1078.98 678.331 1076.29L717.319 1037.3C720.011 1034.61 724.375 1034.61 727.067 1037.3Z" fill="#51CF66"/>
</g>
</g>
<g id="Sprinkle Copy 12_11">
<rect width="33.3336" height="69.9415" fill="black" fill-opacity="0" transform="translate(717.29 1160.17) rotate(102)"/>
<g id="Rotate_122">
<rect width="68.9228" height="13.7849" fill="black" fill-opacity="0" transform="translate(644.687 1165.34) rotate(-5)"/>
<path id="line (Stroke)_114" fill-rule="evenodd" clip-rule="evenodd" d="M645.288 1172.21C644.956 1168.42 647.761 1165.07 651.553 1164.74L706.481 1159.94C710.273 1159.61 713.617 1162.41 713.948 1166.2C714.28 1170 711.475 1173.34 707.683 1173.67L652.755 1178.48C648.963 1178.81 645.619 1176 645.288 1172.21Z" fill="#FF6B6B"/>
</g>
</g>
<g id="Sprinkle Copy 13_3">
<rect width="44.5286" height="67.3269" fill="black" fill-opacity="0" transform="translate(694.142 1262.63) rotate(102)"/>
<g id="Rotate_123">
<rect width="68.9228" height="13.7849" fill="black" fill-opacity="0" transform="translate(678.553 1304.84) rotate(-140)"/>
<path id="line (Stroke)_115" fill-rule="evenodd" clip-rule="evenodd" d="M682.984 1299.56C680.537 1302.48 676.189 1302.86 673.273 1300.41L631.035 1264.97C628.119 1262.52 627.739 1258.18 630.186 1255.26C632.632 1252.34 636.98 1251.96 639.896 1254.41L682.134 1289.85C685.05 1292.3 685.43 1296.65 682.984 1299.56Z" fill="#FF6B6B"/>
</g>
</g>
<g id="Sprinkle Copy 14_11">
<rect width="36.5265" height="69.481" fill="black" fill-opacity="0" transform="translate(671.458 1374.65) rotate(102)"/>
<g id="Rotate_124">
<rect width="68.9228" height="13.7849" fill="black" fill-opacity="0" transform="translate(659.251 1409.4) rotate(-148)"/>
<path id="line (Stroke)_116" fill-rule="evenodd" clip-rule="evenodd" d="M662.904 1403.55C660.887 1406.78 656.635 1407.76 653.406 1405.75L606.647 1376.53C603.419 1374.51 602.437 1370.26 604.454 1367.03C606.471 1363.8 610.723 1362.82 613.952 1364.84L660.711 1394.06C663.939 1396.07 664.921 1400.33 662.904 1403.55Z" fill="#CC5DE8"/>
</g>
</g>
<g id="Sprinkle Copy 15_9">
<rect width="69.7165" height="18.5591" fill="black" fill-opacity="0" transform="translate(626.987 1460.8) rotate(102)"/>
<g id="Rotate_125">
<rect width="68.9228" height="13.7849" fill="black" fill-opacity="0" transform="translate(599.042 1526.14) rotate(-82)"/>
<path id="line (Stroke)_117" fill-rule="evenodd" clip-rule="evenodd" d="M605.867 1527.09C602.097 1526.57 599.471 1523.08 600.001 1519.31L607.674 1464.71C608.204 1460.94 611.69 1458.31 615.459 1458.84C619.229 1459.37 621.855 1462.86 621.325 1466.63L613.651 1521.23C613.122 1525 609.636 1527.62 605.867 1527.09Z" fill="#FF6B6B"/>
</g>
</g>
</g>
<g id="Group Copy 9">
<rect width="1944.6" height="70.2573" fill="black" fill-opacity="0" transform="translate(780.601 -197.686) rotate(102)"/>
<g id="Sprinkle Copy 2_10">
<rect width="58.4832" height="58.4832" fill="black" fill-opacity="0" transform="translate(727.75 22.1963) rotate(102)"/>
<g id="Rotate_126">
<rect width="68.9228" height="13.7849" fill="black" fill-opacity="0" transform="translate(660.412 57.708) rotate(-33)"/>
<path id="line (Stroke)_118" fill-rule="evenodd" clip-rule="evenodd" d="M664.166 63.4885C662.092 60.296 663 56.0273 666.192 53.9541L712.435 23.9238C715.627 21.8506 719.896 22.7579 721.969 25.9504C724.042 29.1429 723.135 33.4116 719.942 35.4848L673.7 65.5151C670.507 67.5883 666.239 66.681 664.166 63.4885Z" fill="#FF6B6B"/>
</g>
</g>
<g id="Sprinkle Copy 3_10">
<rect width="65.3113" height="49.099" fill="black" fill-opacity="0" transform="translate(700.911 125.772) rotate(102)"/>
<g id="Rotate_127">
<rect width="68.9228" height="13.7849" fill="black" fill-opacity="0" transform="translate(640.867 172.104) rotate(-45)"/>
<path id="line (Stroke)_119" fill-rule="evenodd" clip-rule="evenodd" d="M645.741 176.978C643.049 174.287 643.049 169.922 645.741 167.231L684.729 128.242C687.421 125.551 691.785 125.551 694.477 128.242C697.168 130.934 697.168 135.298 694.477 137.99L655.488 176.978C652.797 179.67 648.433 179.67 645.741 176.978Z" fill="#CC5DE8"/>
</g>
</g>
<g id="Sprinkle Copy 9_12">
<rect width="70.089" height="22.0817" fill="black" fill-opacity="0" transform="translate(550.573 767.943) rotate(102)"/>
<g id="Rotate_128">
<rect width="68.9228" height="13.7849" fill="black" fill-opacity="0" transform="translate(522.618 833.656) rotate(-85)"/>
<path id="line (Stroke)_120" fill-rule="evenodd" clip-rule="evenodd" d="M529.484 834.257C525.692 833.925 522.887 830.582 523.218 826.79L528.024 771.862C528.356 768.07 531.699 765.265 535.491 765.596C539.283 765.928 542.088 769.271 541.756 773.063L536.951 827.991C536.619 831.784 533.276 834.589 529.484 834.257Z" fill="#22B8CF"/>
</g>
</g>
<g id="Sprinkle Copy 10_11">
<rect width="32.2486" height="70.0525" fill="black" fill-opacity="0" transform="translate(547.377 899.511) rotate(102)"/>
<g id="Rotate_129">
<rect width="68.9228" height="13.7849" fill="black" fill-opacity="0" transform="translate(544.623 912.472) rotate(176)"/>
<path id="line (Stroke)_121" fill-rule="evenodd" clip-rule="evenodd" d="M544.142 905.596C544.407 909.393 541.544 912.687 537.747 912.952L482.743 916.799C478.946 917.064 475.652 914.201 475.387 910.404C475.121 906.607 477.984 903.313 481.782 903.047L536.785 899.201C540.583 898.936 543.876 901.799 544.142 905.596Z" fill="#FF6B6B"/>
</g>
</g>
<g id="Sprinkle Copy 11_11">
<rect width="65.7547" height="48.2138" fill="black" fill-opacity="0" transform="translate(517.059 988.594) rotate(102)"/>
<g id="Rotate_130">
<rect width="68.9228" height="13.7849" fill="black" fill-opacity="0" transform="translate(491.953 1050.48) rotate(-110)"/>
<path id="line (Stroke)_122" fill-rule="evenodd" clip-rule="evenodd" d="M498.43 1048.12C494.853 1049.43 490.898 1047.58 489.596 1044L470.737 992.192C469.436 988.615 471.28 984.66 474.857 983.358C478.434 982.056 482.389 983.9 483.691 987.477L502.549 1039.29C503.851 1042.87 502.007 1046.82 498.43 1048.12Z" fill="#FF922B"/>
</g>
</g>
<g id="Sprinkle Copy 12_12">
<rect width="68.571" height="40.6265" fill="black" fill-opacity="0" transform="translate(490.706 1094.27) rotate(102)"/>
<g id="Rotate_131">
<rect width="68.9228" height="13.7849" fill="black" fill-opacity="0" transform="translate(464.131 1158.72) rotate(-102)"/>
<path id="line (Stroke)_123" fill-rule="evenodd" clip-rule="evenodd" d="M470.873 1157.29C467.15 1158.08 463.49 1155.7 462.698 1151.98L451.234 1098.05C450.443 1094.32 452.82 1090.66 456.543 1089.87C460.267 1089.08 463.927 1091.46 464.718 1095.18L476.182 1149.11C476.973 1152.84 474.597 1156.5 470.873 1157.29Z" fill="#FF6B6B"/>
</g>
</g>
<g id="Sprinkle Copy 13_4">
<rect width="62.2382" height="54.0874" fill="black" fill-opacity="0" transform="translate(473.771 1206.44) rotate(102)"/>
<g id="Rotate_132">
<rect width="68.9228" height="13.7849" fill="black" fill-opacity="0" transform="translate(409.729 1247.59) rotate(-39)"/>
<path id="line (Stroke)_124" fill-rule="evenodd" clip-rule="evenodd" d="M414.066 1252.95C411.671 1249.99 412.127 1245.65 415.085 1243.25L457.935 1208.55C460.894 1206.16 465.234 1206.62 467.629 1209.57C470.025 1212.53 469.569 1216.87 466.611 1219.27L423.76 1253.97C420.802 1256.36 416.462 1255.91 414.066 1252.95Z" fill="#FF6B6B"/>
</g>
</g>
<g id="Sprinkle Copy 14_12">
<rect width="53.2957" height="62.7987" fill="black" fill-opacity="0" transform="translate(454.209 1319.56) rotate(102)"/>
<g id="Rotate_133">
<rect width="68.9228" height="13.7849" fill="black" fill-opacity="0" transform="translate(383.961 1348.01) rotate(-26)"/>
<path id="line (Stroke)_125" fill-rule="evenodd" clip-rule="evenodd" d="M386.982 1354.21C385.313 1350.79 386.734 1346.66 390.156 1344.99L439.713 1320.82C443.135 1319.15 447.261 1320.57 448.93 1323.99C450.598 1327.42 449.177 1331.54 445.756 1333.21L396.198 1357.38C392.777 1359.05 388.651 1357.63 386.982 1354.21Z" fill="#5C7CFA"/>
</g>
</g>
<g id="Sprinkle Copy 15_10">
<rect width="20.9137" height="69.9862" fill="black" fill-opacity="0" transform="translate(431.495 1444.38) rotate(102)"/>
<g id="Rotate_134">
<rect width="68.9228" height="13.7849" fill="black" fill-opacity="0" transform="translate(428.645 1457.79) rotate(-174)"/>
<path id="line (Stroke)_126" fill-rule="evenodd" clip-rule="evenodd" d="M429.365 1450.93C428.968 1454.72 425.576 1457.47 421.79 1457.07L366.954 1451.31C363.169 1450.91 360.422 1447.52 360.82 1443.73C361.218 1439.94 364.61 1437.2 368.395 1437.6L423.231 1443.36C427.017 1443.76 429.763 1447.15 429.365 1450.93Z" fill="#FF922B"/>
</g>
</g>
</g>
<g id="Group Copy 11">
<rect width="1936.02" height="70.2307" fill="black" fill-opacity="0" transform="translate(564.225 -240.267) rotate(102)"/>
<g id="Sprinkle Copy 2_11">
<rect width="51.664" height="63.8623" fill="black" fill-opacity="0" transform="translate(513.958 -19.7803) rotate(102)"/>
<g id="Rotate_135">
<rect width="68.9228" height="13.7849" fill="black" fill-opacity="0" transform="translate(443.069 6.56836) rotate(-24)"/>
<path id="line (Stroke)_127" fill-rule="evenodd" clip-rule="evenodd" d="M445.872 12.8649C444.324 9.38742 445.888 5.31323 449.365 3.76495L499.736 -18.6617C503.214 -20.21 507.288 -18.646 508.836 -15.1685C510.385 -11.691 508.821 -7.61686 505.343 -6.06858L454.972 16.3581C451.495 17.9063 447.421 16.3424 445.872 12.8649Z" fill="#FF6B6B"/>
</g>
</g>
<g id="Sprinkle Copy 3_11">
<rect width="19.7394" height="69.862" fill="black" fill-opacity="0" transform="translate(490.668 104.682) rotate(102)"/>
<g id="Rotate_136">
<rect width="68.9228" height="13.7849" fill="black" fill-opacity="0" transform="translate(485.389 123.74) rotate(-163)"/>
<path id="line (Stroke)_128" fill-rule="evenodd" clip-rule="evenodd" d="M487.404 117.149C486.291 120.789 482.438 122.838 478.798 121.725L426.069 105.604C422.429 104.491 420.38 100.638 421.493 96.9979C422.606 93.3576 426.459 91.3088 430.099 92.4218L482.828 108.543C486.468 109.655 488.517 113.509 487.404 117.149Z" fill="#22B8CF"/>
</g>
</g>
<g id="Sprinkle Copy 4_5">
<rect width="69.8093" height="34.4085" fill="black" fill-opacity="0" transform="translate(455.496 184.095) rotate(102)"/>
<g id="Rotate_137">
<rect width="68.9228" height="13.7849" fill="black" fill-opacity="0" transform="translate(408.211 241.058) rotate(-60)"/>
</g>
</g>
<g id="Sprinkle Copy 9_13">
<rect width="50.8244" height="64.3649" fill="black" fill-opacity="0" transform="translate(353.841 735.79) rotate(102)"/>
<g id="Rotate_138">
<rect width="68.9228" height="13.7849" fill="black" fill-opacity="0" transform="translate(298.617 724.052) rotate(47)"/>
<path id="line (Stroke)_129" fill-rule="evenodd" clip-rule="evenodd" d="M293.576 728.752C296.36 726.156 300.721 726.309 303.317 729.093L340.921 769.418C343.517 772.202 343.365 776.563 340.581 779.159C337.797 781.755 333.436 781.603 330.84 778.819L293.236 738.494C290.64 735.71 290.792 731.348 293.576 728.752Z" fill="#94D82D"/>
</g>
</g>
<g id="Sprinkle Copy 10_12">
<rect width="24.3971" height="70.2307" fill="black" fill-opacity="0" transform="translate(330.964 857.143) rotate(102)"/>
<g id="Rotate_139">
<rect width="68.9228" height="13.7849" fill="black" fill-opacity="0" transform="translate(264.377 842.989) rotate(21)"/>
<path id="line (Stroke)_130" fill-rule="evenodd" clip-rule="evenodd" d="M261.907 849.424C263.271 845.87 267.258 844.095 270.812 845.459L322.287 865.219C325.841 866.583 327.616 870.57 326.252 874.124C324.888 877.677 320.901 879.452 317.347 878.088L265.872 858.329C262.318 856.964 260.543 852.978 261.907 849.424Z" fill="#CC5DE8"/>
</g>
</g>
<g id="Sprinkle Copy 11_12">
<rect width="67.6689" height="43.5727" fill="black" fill-opacity="0" transform="translate(299.244 941.303) rotate(102)"/>
<g id="Rotate_140">
<rect width="68.9228" height="13.7849" fill="black" fill-opacity="0" transform="translate(273.16 1004.94) rotate(-105)"/>
<path id="line (Stroke)_131" fill-rule="evenodd" clip-rule="evenodd" d="M279.818 1003.16C276.141 1004.14 272.362 1001.96 271.377 998.282L257.106 945.023C256.121 941.346 258.303 937.566 261.979 936.581C265.656 935.596 269.436 937.778 270.421 941.455L284.692 994.714C285.677 998.391 283.495 1002.17 279.818 1003.16Z" fill="#22B8CF"/>
</g>
</g>
<g id="Sprinkle Copy 12_13">
<rect width="41.6214" height="68.291" fill="black" fill-opacity="0" transform="translate(285.839 1064.24) rotate(102)"/>
<g id="Rotate_141">
<rect width="68.9228" height="13.7849" fill="black" fill-opacity="0" transform="translate(212.984 1078.54) rotate(-13)"/>
<path id="line (Stroke)_132" fill-rule="evenodd" clip-rule="evenodd" d="M214.534 1085.25C213.678 1081.54 215.991 1077.84 219.7 1076.98L273.424 1064.58C277.133 1063.73 280.834 1066.04 281.691 1069.75C282.547 1073.46 280.234 1077.16 276.525 1078.01L222.801 1090.42C219.092 1091.27 215.391 1088.96 214.534 1085.25Z" fill="#FF922B"/>
</g>
</g>
<g id="Sprinkle Copy 13_5">
<rect width="66.9643" height="45.471" fill="black" fill-opacity="0" transform="translate(254.245 1157.58) rotate(102)"/>
<g id="Rotate_142">
<rect width="68.9228" height="13.7849" fill="black" fill-opacity="0" transform="translate(228.529 1220.58) rotate(-107)"/>
<path id="line (Stroke)_133" fill-rule="evenodd" clip-rule="evenodd" d="M235.12 1218.56C231.48 1219.68 227.627 1217.63 226.514 1213.99L210.393 1161.26C209.28 1157.62 211.329 1153.76 214.969 1152.65C218.609 1151.54 222.463 1153.59 223.576 1157.23L239.696 1209.96C240.809 1213.6 238.761 1217.45 235.12 1218.56Z" fill="#FF6B6B"/>
</g>
</g>
<g id="Sprinkle Copy 14_13">
<rect width="18.5591" height="69.7165" fill="black" fill-opacity="0" transform="translate(238.353 1291.4) rotate(102)"/>
<g id="Rotate_143">
<rect width="68.9228" height="13.7849" fill="black" fill-opacity="0" transform="translate(169.16 1281.61) rotate(8)"/>
<path id="line (Stroke)_134" fill-rule="evenodd" clip-rule="evenodd" d="M168.201 1288.43C168.731 1284.66 172.216 1282.04 175.986 1282.57L230.587 1290.24C234.356 1290.77 236.983 1294.25 236.453 1298.02C235.923 1301.79 232.438 1304.42 228.668 1303.89L174.067 1296.22C170.297 1295.69 167.671 1292.2 168.201 1288.43Z" fill="#5C7CFA"/>
</g>
</g>
<g id="Sprinkle Copy 15_11">
<rect width="68.571" height="40.6265" fill="black" fill-opacity="0" transform="translate(206.557 1371.93) rotate(102)"/>
<g id="Rotate_144">
<rect width="68.9228" height="13.7849" fill="black" fill-opacity="0" transform="translate(179.136 1366.1) rotate(78)"/>
<path id="line (Stroke)_135" fill-rule="evenodd" clip-rule="evenodd" d="M172.395 1367.54C176.118 1366.75 179.778 1369.12 180.569 1372.85L192.033 1426.78C192.825 1430.5 190.448 1434.16 186.725 1434.95C183.001 1435.74 179.341 1433.37 178.55 1429.64L167.086 1375.71C166.294 1371.99 168.671 1368.33 172.395 1367.54Z" fill="#FF6B6B"/>
</g>
</g>
<g id="Sprinkle Copy 16_4">
<rect width="70.0525" height="32.2486" fill="black" fill-opacity="0" transform="translate(179.33 1478.15) rotate(102)"/>
<g id="Rotate_145">
<rect width="68.9228" height="13.7849" fill="black" fill-opacity="0" transform="translate(134.011 1536.25) rotate(-62)"/>
<path id="line (Stroke)_136" fill-rule="evenodd" clip-rule="evenodd" d="M140.097 1539.49C136.736 1537.7 135.46 1533.53 137.247 1530.17L163.133 1481.48C164.92 1478.12 169.093 1476.85 172.454 1478.63C175.815 1480.42 177.091 1484.59 175.304 1487.95L149.419 1536.64C147.632 1540 143.458 1541.28 140.097 1539.49Z" fill="#FF6B6B"/>
</g>
</g>
</g>
<g id="Group Copy 13">
<rect width="1937.83" height="70.0525" fill="black" fill-opacity="0" transform="translate(349.054 -289.628) rotate(102)"/>
<g id="Sprinkle Copy 3_12">
<rect width="70.2695" height="25.5438" fill="black" fill-opacity="0" transform="translate(258.753 29.3281) rotate(102)"/>
<g id="Rotate_146">
<rect width="68.9228" height="13.7849" fill="black" fill-opacity="0" transform="translate(247.046 26.8398) rotate(92)"/>
<path id="line (Stroke)_137" fill-rule="evenodd" clip-rule="evenodd" d="M240.158 26.5993C243.962 26.7321 246.938 29.9238 246.805 33.7281L244.881 88.8325C244.748 92.6367 241.557 95.613 237.752 95.4802C233.948 95.3473 230.972 92.1556 231.105 88.3514L233.029 33.247C233.162 29.4427 236.353 26.4665 240.158 26.5993Z" fill="#FCC419"/>
</g>
</g>
<g id="Sprinkle Copy 4_6">
<rect width="32.2486" height="70.0525" fill="black" fill-opacity="0" transform="translate(253.436 160.22) rotate(102)"/>
<g id="Rotate_147">
<rect width="68.9228" height="13.7849" fill="black" fill-opacity="0" transform="translate(180.965 164.237) rotate(-4)"/>
</g>
</g>
<g id="Sprinkle Copy 5_4">
<rect width="70.2827" height="27.8135" fill="black" fill-opacity="0" transform="translate(213.993 245.361) rotate(102)"/>
<g id="Rotate_148">
<rect width="68.9228" height="13.7849" fill="black" fill-opacity="0" transform="translate(213.397 248.165) rotate(114)"/>
</g>
</g>
<g id="Sprinkle Copy 7_11">
<rect width="64.3649" height="50.8244" fill="black" fill-opacity="0" transform="translate(178.778 466.229) rotate(102)"/>
<g id="Rotate_149">
<rect width="68.9228" height="13.7849" fill="black" fill-opacity="0" transform="translate(140.109 458.01) rotate(67)"/>
<path id="line (Stroke)_138" fill-rule="evenodd" clip-rule="evenodd" d="M133.764 460.703C137.268 459.216 141.315 460.85 142.802 464.354L164.346 515.109C165.833 518.613 164.199 522.659 160.695 524.147C157.191 525.634 153.144 523.999 151.657 520.495L130.113 469.74C128.626 466.236 130.26 462.19 133.764 460.703Z" fill="#FCC419"/>
</g>
</g>
<g id="Sprinkle Copy 8_10">
<rect width="70.2104" height="30.0493" fill="black" fill-opacity="0" transform="translate(146.293 569.233) rotate(102)"/>
<g id="Rotate_150">
<rect width="68.9228" height="13.7849" fill="black" fill-opacity="0" transform="translate(145.599 572.495) rotate(116)"/>
<path id="line (Stroke)_139" fill-rule="evenodd" clip-rule="evenodd" d="M139.404 569.474C142.826 571.142 144.247 575.269 142.578 578.69L118.407 628.248C116.738 631.669 112.612 633.09 109.191 631.421C105.769 629.752 104.349 625.626 106.017 622.205L130.188 572.647C131.857 569.226 135.983 567.805 139.404 569.474Z" fill="#22B8CF"/>
</g>
</g>
<g id="Sprinkle Copy 9_14">
<rect width="68.571" height="40.6265" fill="black" fill-opacity="0" transform="translate(128.35 679.032) rotate(102)"/>
<g id="Rotate_151">
<rect width="68.9228" height="13.7849" fill="black" fill-opacity="0" transform="translate(127.185 684.517) rotate(126)"/>
<path id="line (Stroke)_140" fill-rule="evenodd" clip-rule="evenodd" d="M121.608 680.465C124.688 682.703 125.371 687.013 123.133 690.093L90.724 734.7C88.4866 737.78 84.1762 738.463 81.0967 736.225C78.0171 733.988 77.3344 729.677 79.5718 726.598L111.981 681.99C114.219 678.911 118.529 678.228 121.608 680.465Z" fill="#FF922B"/>
</g>
</g>
<g id="Sprinkle Copy 10_13">
<rect width="17.3731" height="69.5498" fill="black" fill-opacity="0" transform="translate(114.042 815.015) rotate(102)"/>
<g id="Rotate_152">
<rect width="68.9228" height="13.7849" fill="black" fill-opacity="0" transform="translate(109.724 831.858) rotate(-165)"/>
<path id="line (Stroke)_141" fill-rule="evenodd" clip-rule="evenodd" d="M111.508 825.201C110.522 828.878 106.743 831.06 103.066 830.075L49.8069 815.804C46.13 814.819 43.948 811.039 44.9332 807.362C45.9184 803.685 49.6978 801.503 53.3746 802.489L106.634 816.759C110.311 817.745 112.493 821.524 111.508 825.201Z" fill="#CC5DE8"/>
</g>
</g>
<g id="Sprinkle Copy 11_13">
<rect width="19.7394" height="69.862" fill="black" fill-opacity="0" transform="translate(91.5857 921.382) rotate(102)"/>
<g id="Rotate_153">
<rect width="68.9228" height="13.7849" fill="black" fill-opacity="0" transform="translate(22.0015 912.732) rotate(7)"/>
<path id="line (Stroke)_142" fill-rule="evenodd" clip-rule="evenodd" d="M21.1615 919.573C21.6254 915.795 25.0643 913.108 28.8425 913.572L83.5695 920.292C87.3477 920.756 90.0345 924.195 89.5706 927.973C89.1067 931.751 85.6678 934.438 81.8896 933.974L27.1626 927.255C23.3844 926.791 20.6976 923.352 21.1615 919.573Z" fill="#FF6B6B"/>
</g>
</g>
<g id="Sprinkle Copy 12_14">
<rect width="70.2573" height="28.9358" fill="black" fill-opacity="0" transform="translate(53.6968 1000.4) rotate(102)"/>
<g id="Rotate_154">
<rect width="68.9228" height="13.7849" fill="black" fill-opacity="0" transform="translate(11.4307 1060.07) rotate(-65)"/>
<path id="line (Stroke)_143" fill-rule="evenodd" clip-rule="evenodd" d="M17.6773 1062.98C14.2274 1061.37 12.7348 1057.27 14.3435 1053.82L37.6458 1003.85C39.2546 1000.4 43.3554 998.907 46.8054 1000.52C50.2553 1002.12 51.7479 1006.23 50.1392 1009.68L26.8369 1059.65C25.2281 1063.1 21.1273 1064.59 17.6773 1062.98Z" fill="#329AF0"/>
</g>
</g>
<g id="Sprinkle Copy 13_6">
<rect width="64.3649" height="50.8244" fill="black" fill-opacity="0" transform="translate(40.9045 1113.36) rotate(102)"/>
<g id="Rotate_155">
<rect width="68.9228" height="13.7849" fill="black" fill-opacity="0" transform="translate(-20.5476 1158.02) rotate(-43)"/>
<path id="line (Stroke)_144" fill-rule="evenodd" clip-rule="evenodd" d="M-15.847 1163.06C-18.4431 1160.27 -18.2908 1155.91 -15.5068 1153.31L24.8186 1115.71C27.6025 1113.11 31.9639 1113.27 34.56 1116.05C37.1561 1118.84 37.0038 1123.2 34.2198 1125.79L-6.10555 1163.4C-8.88951 1165.99 -13.2509 1165.84 -15.847 1163.06Z" fill="#FCC419"/>
</g>
</g>
</g>
<g id="Group Copy 15">
<rect width="1928.42" height="69.9746" fill="black" fill-opacity="0" transform="translate(129.966 -319.861) rotate(102)"/>
<g id="Sprinkle Copy 3_13">
<rect width="69.9862" height="20.9137" fill="black" fill-opacity="0" transform="translate(40.7097 -16.8203) rotate(102)"/>
<g id="Rotate_156">
<rect width="68.9228" height="13.7849" fill="black" fill-opacity="0" transform="translate(40.4102 -15.4111) rotate(108)"/>
<path id="line (Stroke)_145" fill-rule="evenodd" clip-rule="evenodd" d="M33.8551 -17.541C37.4753 -16.3647 39.4566 -12.4763 38.2803 -8.85604L21.2417 43.5833C20.0654 47.2036 16.177 49.1848 12.5567 48.0085C8.93646 46.8322 6.95522 42.9438 8.13152 39.3235L25.1701 -13.1158C26.3464 -16.7361 30.2348 -18.7173 33.8551 -17.541Z" fill="#5C7CFA"/>
</g>
</g>
<g id="Sprinkle Copy 4_7">
<rect width="58.4832" height="58.4832" fill="black" fill-opacity="0" transform="translate(34.6172 100.624) rotate(102)"/>
<g id="Rotate_157">
<rect width="68.9228" height="13.7849" fill="black" fill-opacity="0" transform="translate(12.9236 155.803) rotate(-123)"/>
<path id="line (Stroke)_146" fill-rule="evenodd" clip-rule="evenodd" d="M18.7041 152.049C15.5116 154.122 11.2429 153.215 9.1697 150.022L-20.8606 103.78C-22.9338 100.587 -22.0265 96.3185 -18.834 94.2453C-15.6415 92.1721 -11.3729 93.0794 -9.29964 96.2719L20.7307 142.514C22.8039 145.707 21.8965 149.976 18.7041 152.049Z" fill="#CC5DE8"/>
</g>
</g>
</g>
</g>
</g>
</g>
<defs>
<clipPath id="clip0">
<rect width="1400" height="1530" fill="white"/>
</clipPath>
</defs>
</svg>
