<svg width="28" height="27" viewBox="0 0 28 27" fill="none" xmlns="http://www.w3.org/2000/svg">
<path fill-rule="evenodd" clip-rule="evenodd" d="M19.0596 22.0909C17.0865 23.5101 14.6657 24.3459 12.0497 24.3459C5.41227 24.3459 0.0315552 18.9652 0.0315552 12.3277C0.0315552 5.69029 5.41227 0.30957 12.0497 0.30957C18.6872 0.30957 24.0679 5.69029 24.0679 12.3277C24.0679 14.5051 23.4889 16.5472 22.4764 18.3085L26.3755 22.2076C27.3695 23.2016 27.3695 24.8132 26.3755 25.8072C25.3815 26.8012 23.7699 26.8012 22.7759 25.8072L19.0596 22.0909ZM22.2498 12.3277C22.2498 17.9611 17.6831 22.5278 12.0497 22.5278C6.41637 22.5278 1.84964 17.9611 1.84964 12.3277C1.84964 6.69439 6.41637 2.12766 12.0497 2.12766C17.6831 2.12766 22.2498 6.69439 22.2498 12.3277Z" fill="black"/>
<path fill-rule="evenodd" clip-rule="evenodd" d="M6.76178 8.49466C6.76178 7.8922 7.25017 7.40381 7.85263 7.40381H16.2158C16.8183 7.40381 17.3067 7.8922 17.3067 8.49466C17.3067 9.09712 16.8183 9.58551 16.2158 9.58551H7.85263C7.25017 9.58551 6.76178 9.09712 6.76178 8.49466Z" fill="#A112FF"/>
<path fill-rule="evenodd" clip-rule="evenodd" d="M6.76178 12.1187C6.76178 11.5162 7.25017 11.0278 7.85263 11.0278H16.2158C16.8183 11.0278 17.3067 11.5162 17.3067 12.1187C17.3067 12.7211 16.8183 13.2095 16.2158 13.2095H7.85263C7.25017 13.2095 6.76178 12.7211 6.76178 12.1187Z" fill="#FF5543"/>
<path fill-rule="evenodd" clip-rule="evenodd" d="M6.76178 15.9488C6.76178 15.3463 7.25017 14.8579 7.85263 14.8579H16.2158C16.8183 14.8579 17.3067 15.3463 17.3067 15.9488C17.3067 16.5512 16.8183 17.0396 16.2158 17.0396H7.85263C7.25017 17.0396 6.76178 16.5512 6.76178 15.9488Z" fill="#00CBEC"/>
</svg>
