<?xml version="1.0" encoding="UTF-8"?><svg id="Layer_2" xmlns="http://www.w3.org/2000/svg" xmlns:xlink="http://www.w3.org/1999/xlink" viewBox="0 0 24 21.84"><defs><style>.cls-1{fill:url(#linear-gradient);}.cls-1,.cls-2,.cls-3{fill-rule:evenodd;stroke-width:0px;}.cls-2{fill:url(#radial-gradient);}.cls-3{fill:url(#linear-gradient-2);}</style><radialGradient id="radial-gradient" cx="-390.24" cy="408.92" fx="-390.24" fy="408.92" r=".92" gradientTransform="translate(5428.94 4910.43) rotate(-9.78) scale(11.55 -14.06)" gradientUnits="userSpaceOnUse"><stop offset=".5" stop-color="#ff291f"/><stop offset=".88" stop-color="#ff5543"/></radialGradient><linearGradient id="linear-gradient" x1="-470.08" y1="477.53" x2="-471" y2="476.84" gradientTransform="translate(-3524.41 -5397) rotate(-168.7) scale(9.61 -9.65)" gradientUnits="userSpaceOnUse"><stop offset="0" stop-color="#a112ff"/><stop offset=".21" stop-color="#a213fb"/><stop offset=".36" stop-color="#a716f2"/><stop offset=".5" stop-color="#af1ce2"/><stop offset=".62" stop-color="#ba24cb"/><stop offset=".74" stop-color="#c92fad"/><stop offset=".85" stop-color="#db3c89"/><stop offset=".96" stop-color="#f14b5f"/><stop offset="1" stop-color="#fa524e"/></linearGradient><linearGradient id="linear-gradient-2" x1="-386.19" y1="404.37" x2="-384.19" y2="404.37" gradientTransform="translate(4668.91 4454.91) rotate(-.44) scale(12 -11.06)" gradientUnits="userSpaceOnUse"><stop offset=".15" stop-color="#00cbec"/><stop offset=".98" stop-color="#7048e8"/></linearGradient></defs><g id="Layer_1-2"><path class="cls-2" d="m17.84,0c1.22,0,2.21,1,2.21,2.23v5.1c0,1.23-.99,2.23-2.21,2.23s-2.21-1-2.21-2.23V2.23c0-1.23.99-2.23,2.21-2.23Z"/><path class="cls-1" d="m1.42,5.74c0-1.23.99-2.23,2.21-2.23h5.05c1.22,0,2.21,1,2.21,2.23s-.99,2.23-2.21,2.23H3.63c-1.22,0-2.21-1-2.21-2.23Z"/><path class="cls-3" d="m3.97,13.79c-.73-.98-2.11-1.17-3.09-.43-.98.74-1.17,2.14-.44,3.12,0,0,0,0,0,0h0s0,0,0,0h0s.01.02.02.03c.01.02.03.04.05.06.04.05.09.12.16.2.14.16.33.38.58.63.5.5,1.22,1.16,2.18,1.81,1.92,1.31,4.79,2.61,8.56,2.61s6.64-1.3,8.56-2.61c.96-.65,1.68-1.31,2.18-1.81.25-.25.44-.47.58-.63.07-.08.12-.15.16-.2.02-.03.06-.08.08-.1,0,0,0,0,0,.01h0s0-.01,0-.01h0s0,0,0,0h0c.73-.99.53-2.39-.44-3.13-.97-.74-2.35-.54-3.09.43,0,0,0,0,0,0-.01.01-.03.04-.07.08-.07.08-.19.22-.35.38-.33.33-.84.79-1.52,1.26-1.35.92-3.38,1.85-6.09,1.85s-4.73-.93-6.09-1.85c-.68-.46-1.19-.92-1.52-1.26-.16-.17-.28-.3-.35-.38-.04-.04-.06-.07-.07-.08,0,0,0,0,0,0Zm16.05,0h0s0,0,0,0c0,0,0,0,0,0,0,0,0,0,0,0Z"/></g></svg>