<svg width="213" height="151" fill="none" xmlns="http://www.w3.org/2000/svg"><path d="M176.621 36.047a.825.825 0 0 1-.272.389c-.181.148-.33.33-.492.498-.084.09-.155.2-.246.278-.291.24-.627.42-.802.783-.369.181-.615.556-1.029.673l.013.013c.019-.104.039-.2.065-.337-.259-.026-.447.097-.647.143-.104.026-.149.161-.11.271.051.15.116.298.168.427-.168.246-.317.473-.472.686a.854.854 0 0 1-.136.162c-.298.259-.609.518-.9.783-.161.142-.304.31-.453.466-.064.065-.116.142-.194.188-.867.563-1.501 1.397-2.29 2.05a4.166 4.166 0 0 0-.537.538c-.201.24-.44.369-.751.375-.052 0-.104.026-.181.052-.097.304-.233.589-.583.776-.142-.032-.31-.064-.472-.103-.039.039-.084.064-.084.09.045.343-.116.544-.466.654-.084-.052-.188-.11-.285-.168-.038.032-.097.051-.09.07.019.324-.143.544-.382.732-.155.123-.304.252-.466.362-.22.15-.42.343-.718.363-.175.006-.298.123-.414.233-.479.44-1.01.802-1.566 1.139-.589.355-1.158.73-1.799.996-.084.032-.149.104-.22.155-.136.09-.259.2-.408.272-.161.084-.336.123-.498.207-.181.09-.297-.097-.479-.11.02.388-.252.55-.511.712-.168.11-.356.181-.53.265-.363.168-.732.31-1.055.557-.117.09-.298.097-.492.149-.136.31-.427.465-.77.575a1.515 1.515 0 0 0-.433.22.748.748 0 0 1-.453.162c-.285-.006-.427.265-.673.33-.24.058-.492.039-.699.24a1.21 1.21 0 0 1-.628.297c-.498.084-.912.337-1.339.563-.194.104-.395.162-.602.227-.466.142-.919.317-1.378.485-.408.149-.809.317-1.223.446-.479.143-.945.363-1.462.382-.097.007-.201.071-.298.123-.11.058-.22.13-.324.2-.349.227-.731.337-1.138.26-.376-.072-.693.051-.971.252-.408.297-.874.427-1.346.543-.53.123-1.068.201-1.572.415-.02.006-.033.012-.052.012-.984.013-1.883.531-2.879.486a.774.774 0 0 0-.214.026c-.556.187-1.139.18-1.708.297-.052.013-.11.013-.162.033a3.478 3.478 0 0 1-1.43.252.484.484 0 0 0-.213.045c-.363.207-.764.2-1.159.246-.446.052-.899.084-1.346.168-.368.072-.731.214-1.1.291-.582.123-1.164.253-1.766.233-.091 0-.181-.019-.272-.006-.595.065-1.184.142-1.779.207-.395.045-.79.071-1.184.11-.466.052-.932.162-1.398.155-.446-.013-.854.085-1.281.175-.155.032-.324.02-.485.026-.796.026-1.592.052-2.388.084a.876.876 0 0 0-.311.078c-.33.142-.673.136-1.016.136a.774.774 0 0 1-.317-.065c-.511-.22-1.035-.188-1.54-.039-.349.104-.673.11-.996-.052-.24-.116-.479-.174-.731-.051-.143.07-.279.058-.421.019-.123-.032-.246-.058-.369-.084-.336-.078-.679-.117-1.022-.046-.667.143-1.333.072-1.999-.012-.253-.033-.505-.046-.758-.072-.375-.032-.757-.006-1.125-.148-.097-.04-.214-.026-.324-.033-.505-.032-1.009-.058-1.514-.09-.104-.007-.207-.052-.317-.072-.091-.019-.175-.051-.265-.058-.376-.02-.757-.026-1.133-.039-.09-.006-.2.007-.265-.038-.246-.169-.511-.136-.783-.117a2.683 2.683 0 0 1-1.009-.116 4.075 4.075 0 0 0-1.34-.169c-.835.033-1.617-.168-2.407-.356-.084-.019-.162-.077-.252-.103-.26-.071-.524-.188-.783-.188-.524.007-.997-.161-1.469-.33-.24-.084-.466-.187-.705-.278a1.971 1.971 0 0 0-.26-.078 34.69 34.69 0 0 0-.795-.168c-.427-.077-.86-.116-1.236-.375a.517.517 0 0 0-.265-.058c-.505-.013-.945-.24-1.398-.42a2.986 2.986 0 0 0-.563-.176c-.382-.058-.705-.29-1.067-.381-.37-.09-.744-.097-1.094-.298-.226-.13-.511-.162-.738-.324-.097-.064-.239-.07-.368-.077a.93.93 0 0 1-.557-.175c-.103-.084-.265-.11-.401-.123a1.892 1.892 0 0 1-.718-.22c-.324-.162-.667-.278-.997-.42-.149-.065-.291-.15-.433-.22-.078-.04-.156-.091-.24-.117-.427-.136-.873-.233-1.294-.401a18.657 18.657 0 0 1-1.825-.841c-.258-.136-.44-.414-.66-.621-.103-.097-.213-.175-.362-.292-.006.11-.006.156-.013.208-.006.051-.02.096-.026.142-.045.013-.084.039-.116.032a3.97 3.97 0 0 1-1.378-.724 1.973 1.973 0 0 0-.304-.214c-.227-.117-.454-.214-.68-.324-.13-.064-.252-.174-.382-.194-.33-.045-.563-.246-.796-.44-.136-.116-.252-.252-.466-.2-.051.013-.142-.04-.187-.084-.304-.298-.692-.447-1.055-.635-.285-.148-.563-.317-.783-.569-.09-.11-.187-.226-.31-.298-.337-.187-.609-.453-.9-.692-.207-.168-.362-.401-.653-.466-.11-.026-.22-.136-.298-.226-.427-.53-.958-.926-1.52-1.288-.305-.2-.602-.408-.796-.725a.18.18 0 0 0-.078-.077c-.42-.162-.654-.557-1.016-.796-.265-.181-.511-.395-.79-.563a.862.862 0 0 1-.316-.291c-.123-.246-.33-.376-.537-.486-.026-.11-.04-.2-.065-.317-.337.04-.583-.129-.796-.368-.039-.04-.071-.085-.123-.11-.537-.26-.886-.738-1.3-1.133a1.53 1.53 0 0 0-.434-.317c-.259-.11-.414-.343-.557-.576a.733.733 0 0 0-.304-.29 16.46 16.46 0 0 1-1.029-.603c-.103-.064-.18-.174-.258-.278a3.733 3.733 0 0 0-1.087-.951c-.285-.175-.583-.363-.751-.673a.726.726 0 0 0-.46-.356c-.232-.065-.407-.207-.575-.388-.343-.369-.706-.731-1.14-.997-.284-.18-.523-.381-.562-.757-.278.02-.453-.13-.621-.297-.2-.207-.401-.414-.602-.615.045-.149.097-.285.116-.42.007-.052-.051-.143-.11-.162-.051-.02-.142.006-.187.045-.065.058-.09.149-.136.22-.045-.007-.097 0-.11-.02-.304-.491-.796-.77-1.23-1.112-.058-.046-.148-.065-.18-.117-.234-.382-.654-.57-.932-.886-.525-.596-1.146-1.087-1.644-1.709-.233-.29-.53-.537-.796-.802-.052-.052-.136-.09-.149-.149-.103-.414-.504-.614-.673-.977a2.188 2.188 0 0 1-.148-.408 1.025 1.025 0 0 0-.214-.427c-.375-.453-.395-.99-.298-1.546 0-.02.007-.039.02-.052.233-.427.433-.88.712-1.268.252-.343.575-.647.905-.912.376-.304.764-.609 1.197-.829.305-.155.596-.336.906-.491.123-.065.272-.091.414-.104.615-.052 1.23-.078 1.838-.142.356-.04.712-.143 1.074-.084.194.032.382.077.576.116l.117.395c.058.013.11.032.155.032.052 0 .11-.013.155-.032.337-.143.64-.104.893.168.11.117.253.13.388.168.22.052.414.15.453.408.04.252.279.317.447.485.09-.058.175-.13.265-.174.2-.104.33-.04.382.2.013.052.013.104.02.175.129-.013.258-.065.368-.033.13.04.252.136.362.227.169.136.318.278.531.362.214.084.382.265.582.389.576.375 1.165.724 1.728 1.119.44.31.912.589 1.294.983.065.065.117.13.181.201-.026.058-.032.123-.064.155-.136.117-.227.26-.162.427.078.201.188.389.304.563.02.026.181 0 .233-.045a.468.468 0 0 0 .155-.492c-.026-.097-.045-.2-.084-.362.155.052.265.058.343.116.31.22.608.453.906.686.045.033.071.09.116.11.376.117.635.414.958.608.168.104.324.233.479.35.058.045.097.116.162.142.491.207.776.628 1.074 1.03.045.018.09.044.11.038.356-.155.66.026.886.24.42.387.951.582 1.398.918.13.097.272.175.414.253.252.135.498.284.783.362.24.065.472.188.692.317.31.181.602.401.906.589.155.097.317.174.485.24.272.11.525.239.738.446.078.07.175.116.272.168.233.13.472.259.712.388.097.052.194.097.284.149.123.065.253.13.376.2.233.136.459.279.692.421.123.078.24.155.362.226.09.059.181.136.279.156.278.052.51.168.66.369.103 0 .161.013.207 0 .213-.065.394-.033.53.148.104.143.24.201.414.227.143.02.279.065.408.123.621.278 1.268.517 1.831.919.324.226.731.33 1.022.614.421.065.758.298 1.107.518.259.155.57.227.848.343.149.065.284.155.427.233.077.045.155.11.233.13.588.116 1.041.472 1.514.802.116.084.252.142.382.2.29.143.608.233.854.453a.475.475 0 0 0 .297.104c.363.006.667.136.945.362.11.09.246.149.375.2.712.273 1.43.512 2.136.803.381.162.73.395 1.087.608.155.09.297.194.498.156.097-.02.207.026.304.064.356.136.699.291 1.08.35.124.02.234.09.35.136.065.025.13.077.2.084.492.052.939.213 1.379.427.142.071.317.077.472.11.117.026.24.065.35.09-.013.37-.013.37.116.473.362-.35.362-.35.874-.181.187.064.375.135.563.2.459.155.886.408 1.391.414.155 0 .317.071.466.136.271.117.55.175.841.181.123 0 .259.026.362.084.324.188.68.24 1.042.279.272.026.537.064.75.265.143.136.337.103.518.071.188-.026.362-.026.505.123.11.123.265.104.407.11.292.02.583.02.868.065.317.045.666.071.789.472.563-.33 1.061-.11 1.553.032.175.052.336.117.524.117.776.013 1.553.071 2.323.207.142.026.285.02.433.013.169-.007.33 0 .466.103.11.085.22.085.356.059.194-.04.395-.046.596-.046 1.158-.013 2.316-.026 3.474-.019.395 0 .79.065 1.191.071.977.013 1.954.09 2.925-.078.122-.019.252-.019.381-.019.576.013 1.152-.116 1.728.02.433-.072.867 0 1.301-.033.556-.039 1.106-.155 1.656-.24.252-.038.498-.083.757-.025.084.02.181 0 .265-.007.253-.019.505-.032.757-.058.182-.02.356-.052.531-.09.298-.065.595-.15.893-.207a.904.904 0 0 1 .323.006c.182.039.35.052.525-.045.051-.026.135.006.207.013.051 0 .136.013.142-.007.097-.24.311-.24.505-.246.55-.013 1.067-.194 1.591-.33.615-.161 1.236-.265 1.858-.4.491-.11.996-.17 1.449-.422.181-.103.414-.122.628-.168.465-.09.905-.22 1.313-.479.408-.258.88-.414 1.359-.524a12.015 12.015 0 0 0 1.553-.485c.246-.09.472-.162.75-.078.292-.414.732-.563 1.185-.685.368-.097.705-.266 1.041-.447.427-.226.777-.602 1.269-.705.679-.143 1.261-.53 1.889-.803.239-.103.453-.29.647-.478.246-.227.531-.37.828-.505.33-.149.654-.31.977-.466.279-.13.557-.252.842-.375.064-.033.142-.04.2-.084.395-.317.867-.505 1.288-.79.427-.291.873-.556 1.313-.834a24.996 24.996 0 0 0 1.831-1.243 51.624 51.624 0 0 1 1.799-1.313c.266-.188.589-.272.822-.512.123-.129.278-.226.421-.342.291-.24.588-.473.938-.641.336-.168.653-.388.906-.68a11.5 11.5 0 0 1 .492-.51c.051-.053.097-.117.155-.15.543-.265.893-.77 1.404-1.08.408-.252.757-.615 1.132-.925a.431.431 0 0 0 .13-.175c.064-.24.246-.35.453-.434.187-.077.33-.207.472-.355.207-.22.466-.395.686-.609.168-.168.401-.142.615-.226.032-.104.058-.207.09-.304.026-.065.052-.169.104-.181.375-.136.537-.518.86-.712.214-.13.408-.337.706-.15.038-.517.388-.737.705-.957.472-.336.964-.64 1.449-.957.091-.059.181-.123.259-.194a5.637 5.637 0 0 1 1.76-1.042c.285-.11.563-.253.809-.427.239-.169.524-.26.751-.427.349-.26.737-.272 1.125-.311.149-.013.279-.039.415-.097.271-.104.543-.2.841-.149a.317.317 0 0 0 .239-.078c.142-.148.311-.168.498-.161.182.006.363.006.544.013.563.02 1.061.194 1.508.589-.013.077-.033.161-.046.245-.026.201.039.26.246.22.104-.019.207-.045.285-.064.207.116.246.297.323.46.078.16.162.33.272.458.175.201.272.428.337.673.077.298.123.602.174.906.046.246.123.492.136.744.02.44.13.887-.052 1.327a6.875 6.875 0 0 0-.446 1.56 1.028 1.028 0 0 1-.214.426c-.142.181-.233.363-.233.59 0 .239-.103.452-.22.66-.142.252-.284.51-.355.789a1.76 1.76 0 0 1-.525.867 1.723 1.723 0 0 0-.381.453c-.097.174-.214.336-.401.427-.02.006-.033.02-.046.032-.246.356-.589.628-.841.97-.201.272-.395.512-.705.654-.233.11-.395.285-.537.505-.149.24-.401.407-.609.614-.006-.084.007-.174-.012-.258-.046-.143-.188-.175-.292-.078-.084.078-.129.168-.084.278.052.117.156.136.266.11.09-.038.135-.077.181-.097Zm-116.51-.07c-.123 0-.22.07-.233.167a.273.273 0 0 0 .246.291c.117.007.233-.103.233-.233 0-.129-.103-.22-.246-.226Zm76.263 21.553c-.013-.201-.149-.33-.292-.292-.051.013-.116.098-.116.15-.019.168.11.31.246.278.071-.013.123-.098.162-.136Zm29.26-12.282c0-.168-.084-.252-.194-.245-.104.006-.156.07-.169.168-.019.136.104.265.22.226.065-.026.11-.11.143-.149Zm-16.487-3.131c.142-.02.2-.117.181-.253-.013-.097-.097-.174-.175-.155a.2.2 0 0 0-.142.246c.026.065.097.116.136.162ZM67.624 28.865c-.026.032-.084.078-.097.13-.026.103.077.22.18.2.053-.007.124-.071.137-.123.026-.104-.078-.214-.22-.207ZM144.06 56.1c.019-.04.071-.098.071-.15 0-.116-.13-.193-.227-.155a.195.195 0 0 0-.084.117c-.013.116.091.207.24.188Zm-.156-11.615c-.025-.136-.135-.194-.258-.142-.046.019-.104.103-.097.148.006.104.103.143.194.117.064-.02.116-.084.161-.123Zm19.205 2.407c-.071.11-.136.175-.142.24-.007.09.058.161.168.168.091 0 .181-.091.149-.175-.026-.071-.097-.13-.175-.233Zm-75.835-7.661c-.11-.078-.168-.143-.24-.162-.09-.026-.168.032-.2.123-.033.097.078.207.188.181.084-.006.142-.071.252-.142ZM59.658 23.112c-.084.098-.161.15-.174.214-.026.104.064.155.155.162.103.006.181-.052.168-.149-.006-.065-.078-.123-.149-.226Zm-2.827 9.855c.077-.097.155-.155.168-.226.013-.097-.071-.155-.175-.155-.097 0-.194.084-.168.161.026.071.09.123.175.22Zm90.827 9.447c.072-.07.149-.116.149-.162 0-.051-.052-.129-.103-.155-.078-.045-.201.045-.182.13.013.058.072.103.136.187Zm-91.65-9.511c.04.064.053.116.085.142.078.065.155.155.272.071a.055.055 0 0 0 .026-.045c0-.143-.11-.162-.207-.181-.052-.013-.104.006-.175.013Zm1.127.116c-.045.123-.084.194-.09.265 0 .026.064.078.103.09.084.014.168-.077.142-.167-.013-.052-.071-.09-.155-.188Zm7.583 6.859c-.103-.045-.168-.097-.213-.09-.052.012-.084.083-.123.129.052.038.103.103.155.103.039 0 .084-.065.181-.142Zm83.387 15.012c-.091-.052-.149-.11-.201-.104a.22.22 0 0 0-.142.11c-.026.078.084.168.162.142.058-.012.097-.07.181-.148Zm-52.063 2.29c-.064-.09-.097-.175-.142-.181-.052-.013-.136.02-.168.065-.045.064-.007.142.071.161.052.007.117-.025.24-.045Zm32.819 1.236c-.064.071-.129.104-.149.155-.025.078.078.169.169.136.051-.02.116-.084.116-.13 0-.044-.071-.09-.136-.16Zm50.697-34.909c.072-.09.149-.142.143-.18a.212.212 0 0 0-.117-.15c-.045-.013-.11.052-.162.078.039.078.072.142.136.252Zm-9.822 17.982c-.097-.045-.162-.097-.207-.084a.21.21 0 0 0-.129.13c-.02.077.097.161.174.122.052-.026.091-.09.162-.168Zm-89.928-5.377c-.117-.039-.175-.078-.233-.071-.032 0-.084.071-.09.11-.007.084.058.136.135.116.058-.02.097-.077.188-.155Zm13.42 6.335c.052-.059.11-.117.103-.13-.032-.051-.077-.11-.136-.116-.07-.013-.142.039-.116.116.02.045.09.078.149.13Zm75.097-13.828c.039-.084.085-.142.091-.194 0-.026-.065-.065-.104-.09-.038.051-.09.096-.11.155-.006.019.059.064.123.129ZM51.57 24.963c-.071-.045-.13-.097-.149-.084-.051.032-.11.084-.116.136-.013.078.058.13.13.097.044-.02.077-.084.135-.149Zm34.922 14.805c.071-.078.149-.123.149-.168 0-.046-.059-.13-.104-.136-.039-.007-.123.058-.136.097-.013.051.04.11.09.207Zm16.144 6.05c-.058-.045-.097-.104-.129-.097-.033 0-.065.058-.097.09.032.033.064.091.103.097.026 0 .065-.051.123-.09ZM74.664 32.715c-.059-.033-.104-.071-.136-.065-.04.007-.084.058-.097.104-.02.07.077.136.136.097.045-.033.064-.084.097-.136Zm57.756 14.688c-.058-.045-.097-.097-.129-.09-.039.006-.071.058-.104.09.033.032.065.09.097.097.039 0 .078-.052.136-.097Zm7.745 9.784c-.071-.02-.116-.046-.155-.04-.026 0-.065.066-.058.078.026.04.065.065.097.091.032-.032.065-.071.116-.13ZM69.52 30.19c-.078.052-.136.072-.15.11-.032.078.014.143.091.156.04.006.117-.04.117-.065.006-.058-.033-.116-.059-.2Zm-.764-.31c-.11-.084-.149-.136-.188-.136-.032 0-.09.052-.097.084-.013.078.046.123.123.11.046-.006.09-.032.162-.058Zm33.343 29.208c.039-.052.091-.084.091-.123 0-.032-.052-.097-.085-.097-.077-.013-.129.039-.116.117.006.038.058.064.11.103ZM58.927 23.332c-.026-.045-.039-.077-.058-.103-.039.02-.078.045-.117.065.013.026.033.077.046.077.045 0 .084-.025.13-.038Zm-.414 10.962c.045-.052.097-.084.09-.117 0-.032-.058-.09-.09-.09-.032 0-.09.051-.097.084 0 .032.052.071.097.123ZM161.79 47.94a.927.927 0 0 0-.175-.064c-.006 0-.045.058-.038.084.013.077.071.123.148.097.02-.007.033-.059.065-.117ZM75.822 33.88c-.032-.007-.058-.02-.09-.026 0 .026-.007.058-.007.084 0 .006.039.02.045.013.026-.026.039-.052.052-.071Zm79.219 18.227c-.013-.026-.026-.051-.039-.084-.025.013-.071.026-.071.039-.006.026.02.052.033.084a.427.427 0 0 0 .077-.039Zm-24.471 6.51c.025-.013.071-.02.077-.04.007-.019-.019-.05-.032-.077a.786.786 0 0 1-.104.052c.02.02.039.039.059.065Zm-55.7-25.384c-.012-.007-.025-.02-.038-.013-.007 0-.013.026-.02.038.013.007.026.02.04.013.012-.006.012-.026.019-.038Zm102.754 1.216a.088.088 0 0 1-.013-.045c-.013.006-.033.006-.039.02-.007.006.006.025.013.038a.14.14 0 0 0 .039-.013Zm-43.489 23.909c-.007-.013-.013-.032-.02-.039-.013-.007-.025.006-.038.006.013.02.019.04.032.059a.636.636 0 0 1 .026-.026ZM84.227 37.6c-.026-.006-.045-.02-.065-.026.007.013.013.026.013.04a.2.2 0 0 0 .052-.014Zm-.259.563c.013-.006.033-.006.033-.02.006-.006-.007-.025-.007-.038-.02.013-.039.02-.058.032.013.007.026.02.032.026Zm71.779.007c.006-.013.019-.033.019-.046-.006-.013-.026-.013-.045-.02-.007.014-.02.033-.02.046.007.007.033.013.046.02Zm-4.782 2.064.019-.04c-.013-.006-.026-.019-.039-.012-.006.006-.019.026-.019.039.006 0 .026.006.039.013Zm.899-.35a.393.393 0 0 0-.006-.045c-.026 0-.058 0-.084.007 0 .012.006.045.006.045.026 0 .058-.007.084-.007Z" fill="#FF5543"/><path d="m189.446 76.287-.233-.938c-.052-.2.155-.265.233-.42-.11-.143-.227-.266-.181-.505.032-.181-.097-.408-.182-.602-.071-.168-.071-.31.039-.46.123-.18.246-.355.104-.594-.033-.052.071-.188.116-.292-.039-.09-.103-.187-.123-.29-.026-.124-.026-.253-.026-.376 0-.285-.064-.57.013-.86.026-.091-.032-.208-.071-.298-.084-.201-.162-.402-.103-.628a.616.616 0 0 0 .013-.213c-.026-.272-.104-.538-.091-.803.013-.24.078-.485.065-.731-.007-.123-.013-.252-.033-.375a3.579 3.579 0 0 1-.051-.531 4.44 4.44 0 0 0-.175-1.003.862.862 0 0 1 .006-.57c.059-.168.072-.368.078-.55 0-.142.129-.161.149-.265-.02-.161-.188-.07-.285-.233 0-.019-.052-.135-.019-.226.129-.35.006-.673-.078-.996-.045-.169-.084-.311-.013-.473.207-.44.039-.886.039-1.326-.201-.317-.142-.673-.117-1.01.039-.472-.045-.9-.265-1.32.123-.24.22-.485.13-.763-.072-.233.051-.511-.169-.719-.032-.032 0-.135 0-.206 0-.162.039-.343-.013-.486-.142-.382-.084-.783-.155-1.165-.006-.032-.026-.077-.013-.103.104-.24.097-.453.013-.712-.071-.213-.006-.466-.026-.699a.996.996 0 0 0-.084-.304c-.09-.213-.078-.414-.013-.634.13-.433.188-.88.033-1.326-.052-.143-.078-.272 0-.414.019-.046.032-.117.012-.156-.142-.246-.077-.479.007-.725a.718.718 0 0 0-.007-.42 1.35 1.35 0 0 1-.019-.699c.071-.317-.019-.64.071-.958.039-.129-.071-.304-.123-.485.078-.097.162-.207.266-.336-.337-.35-.337-.777-.298-1.217.013-.142.026-.291.013-.433a.368.368 0 0 1 .084-.304c.065-.078.078-.169.013-.246-.136-.175-.123-.382-.104-.576.026-.343-.084-.686.052-1.023-.142-.53.013-1.067-.052-1.604-.051-.447-.013-.9-.006-1.353 0-.084.039-.174.078-.252a.314.314 0 0 0 .025-.252c-.129-.46-.11-.92-.045-1.392.026-.187-.039-.388-.065-.582-.019-.142-.064-.284-.064-.42.006-.415.039-.829.045-1.243 0-.123-.019-.252-.065-.369-.045-.116-.045-.207.02-.304.084-.136.052-.278.013-.42-.059-.207-.078-.434-.162-.628-.142-.33-.104-.595.194-.783-.039-.168-.168-.058-.278-.155-.078-.194-.227-.427-.091-.712.058-.116.007-.213-.052-.304-.213-.337-.213-.718-.232-1.1-.039-.738-.013-1.475-.104-2.213-.071-.608-.032-1.23-.039-1.838 0-.123.033-.252.058-.375.033-.181.149-.278.324-.33.181-.052.298-.02.362.136.117.285.22.576.317.867.013.045-.006.103-.006.155-.007.084-.026.175-.007.26.046.264.169.536.149.788-.026.272-.013.538.007.803.026.356.097.712.123 1.074.019.285.045.563.097.848.051.252.097.491.259.699.064.084.168.614.161.834 0 .544.091 1.074.259 1.586.117.368.149.744.071 1.119-.084.414-.071.835.026 1.23.11.452.033.899.091 1.345.026.22-.181.298-.285.479.045.058.091.136.142.2a.484.484 0 0 1 .097.408 4.094 4.094 0 0 0-.012.97c.006.053-.007.11.006.163.045.174.129.343.142.517.013.155-.077.317-.071.473a.968.968 0 0 1-.103.524c-.078.155-.117.33-.046.472.11.22.084.46.136.686.033.142.052.278-.026.42-.026.046-.032.11-.026.156.123.595-.019 1.178-.077 1.766-.007.084-.02.194.019.26.123.2.11.42.117.633.006.181-.026.356.09.524.033.046.02.143.007.207-.078.298-.117.59-.058.906.032.181-.039.395-.085.583-.051.226-.123.44.013.673.072.116.072.271.104.414.013.052.032.11.019.155-.142.608-.032 1.223-.013 1.831.013.369-.032.738-.013 1.107.007.064-.032.155 0 .2.11.169.091.363.072.53-.026.285-.013.544.084.823.064.187-.013.427-.026.64-.007.071-.045.162-.013.207.149.227.097.453.026.673a.307.307 0 0 0 .019.252.888.888 0 0 1 .084.253c.039.336.117.673.033 1.01a.406.406 0 0 0 .064.362.327.327 0 0 1 .059.149c.032.336-.072.672.11 1.002.161.298.045.634.077.952.033.304.007.614.007.918 0 .052-.039.117-.02.162.194.434.046.88.039 1.32 0 .052-.019.123.007.162.181.265.103.563.11.848.019.608 0 1.216.161 1.811.026.104.007.214.007.324.006.343-.02.686.077 1.022.039.13-.006.285-.012.427-.007.11-.059.233-.02.317.207.486.078.997.142 1.495.039.304.039.608.065.919.026.265.039.524 0 .802-.039.291.078.602.123.906.013.09.078.194.052.259-.142.317-.078.64-.026.958.097.556.11 1.112-.019 1.662-.059.24.116.37.142.557.032.194-.142.382-.013.576.142.207.123.446.129.68 0 .2-.013.4.013.595.046.388-.006.763-.123 1.125a.629.629 0 0 0 .039.518c.065.123.123.252.188.388-.117.02-.201.04-.298.052.007.071-.006.13.013.168.02.046.071.078.11.117.246.24.24.304-.077.511.077.194.161.388.232.589.033.103.072.213.065.317-.019.35.039.68.123 1.016.052.22.136.46.02.692.084.518-.007 1.042.11 1.566.097.434.135.886.084 1.333a.648.648 0 0 0 .032.317c.188.433.097.893.155 1.34.026.168-.051.355.052.523.019.026.026.085.007.104-.214.227-.072.479-.065.718.013.278-.065.57.136.816.019.019.019.077 0 .103-.097.155-.052.317-.013.472a.64.64 0 0 1-.11.576c.032.072.052.136.084.2.239.409.239.849.188 1.301-.013.091-.039.188-.013.266.123.323.051.666.116 1.003.065.369.026.75.045 1.126.02.336-.045.685.097 1.009-.071.485.136.958.033 1.45-.046.213.026.459.058.692.026.194.091.382.097.57.007.187-.019.381-.058.569-.052.233-.104.459.065.666.019.026.038.071.025.104-.097.304.013.608.026.912.013.466.046.932.071 1.43.123.006.233.045.324.019.298-.077.589-.148.899-.019.052.026.136-.013.207-.026.085-.019.188-.084.253-.058.213.078.407.058.621-.007.201-.058.414-.051.628-.123.239-.084.53-.032.796-.038.071 0 .155.045.213.019.304-.149.602-.026.906-.013.317.007.634.084.951-.019a.58.58 0 0 1 .259 0c.388.064.796.064 1.158.252a.294.294 0 0 0 .104.019c.828.026 1.067.085 1.753.376.13.058.266.11.408.116.272.02.53.046.77.194.052.033.142-.013.207 0 .123.026.291.033.349.11.214.291.537.337.822.486l.278-.13c.169.065.324.11.466.175.11.052.207.136.311.2.103.065.207.169.317.188.265.045.505.097.731.278.194.156.492.182.744.266.02.006.039.006.052.013.647.446 1.449.666 1.935 1.345.11.156.297.266.453.389.485.375.964.763 1.326 1.261.194.259.349.544.498.835.104.194.136.408-.039.608-.025.033.013.123.02.188.065-.019.129-.032.188-.052.168.188.33.369.491.557.071.226.149.466.22.705.149.479.304.964.44 1.45a.59.59 0 0 1-.026.317c-.071.252-.11.491.02.737.026.046.032.117.013.156-.117.258-.084.53-.117.795-.032.24-.103.492-.22.706-.136.258-.207.537-.278.815-.058.207-.142.421-.278.576-.33.382-.608.809-.932 1.197-.317.382-.537.802-.751 1.236a.71.71 0 0 1-.116.175c-.382.381-.738.795-1.152 1.138-.472.389-.86.861-1.339 1.243-.298.239-.576.498-.938.64-.285.11-.453.395-.751.499-.129.045-.239.148-.362.226-.091.058-.214.091-.272.168-.317.434-.841.537-1.268.796-.091.052-.227.065-.292.142-.265.311-.679.395-.97.667a.192.192 0 0 1-.091.058c-.446.071-.757.408-1.139.595-.291.143-.608.22-.899.35-.285.116-.55.259-.873.265-.143 0-.279.065-.421.11-.272.091-.55.13-.841.13-.136 0-.298.025-.408.097-.285.174-.602.239-.899.356-.194.077-.369-.039-.576.058-.285.136-.647.045-.925.246-.22-.072-.415.045-.622.084-.161.032-.343-.039-.569-.071-.149.2-.375.368-.699.31-.045-.006-.097.045-.149.058-.414.091-.809.311-1.261.233a.542.542 0 0 0-.266.046 1.651 1.651 0 0 1-.951.123.463.463 0 0 0-.265.032c-.44.246-.906.317-1.404.278-.175-.013-.356.045-.537.071l-.589.097a1.39 1.39 0 0 1-.9-.11c-.097.266-.362.285-.53.421-.253-.026-.479-.058-.718-.071-.143-.007-.318-.02-.421.052-.246.161-.505.168-.777.181-.265.013-.53.129-.802.032-.071-.026-.181-.006-.259.032-.239.123-.498.085-.744.072-.356-.026-.712-.11-1.061.051a.291.291 0 0 1-.104.02c-.232-.007-.472-.007-.705-.033-.239-.032-.427.162-.686.098-.149-.039-.336.09-.53.155-.046-.039-.11-.091-.194-.168-.065.045-.13.09-.22.155-.227-.104-.473-.097-.725-.052a.608.608 0 0 1-.265.007.765.765 0 0 0-.479.025.41.41 0 0 1-.266.02.652.652 0 0 0-.569.058.374.374 0 0 1-.265.026c-.233-.071-.421.123-.628.103-.188-.019-.362-.135-.569-.142a3.442 3.442 0 0 0-.854.11c-.065.013-.162.058-.201.032-.239-.161-.453-.038-.673.026-.207.059-.414.143-.634.046-.045-.02-.11-.013-.162 0-.44.097-.886-.007-1.333.084-.272.058-.569.039-.854.077-.2.026-.401.208-.608.013-.44.162-.9-.025-1.34.059a.581.581 0 0 0-.103.032c-.492.123-.99.104-1.488.078-.188-.007-.343-.007-.518.084a1.713 1.713 0 0 1-1.048.181 3.192 3.192 0 0 0-.744 0c-.421.045-.854.013-1.256-.181-.064.084-.135.161-.213.265-.058.006-.13.026-.194.019-.376-.051-.751-.09-1.133-.025-.116.019-.245-.026-.368-.026-.214-.007-.434-.02-.647.013-.143.019-.279.071-.415-.013-.045-.026-.103-.052-.155-.039-.498.097-1.016-.084-1.508.078-.064.019-.142.006-.213.006-.304-.013-.615-.045-.919-.039-.343.007-.679.052-1.022.084a.342.342 0 0 1-.162-.006c-.531-.149-1.074-.143-1.611-.117-.46.026-.887-.097-1.32-.207-.052-.013-.117-.058-.149-.039-.226.136-.466 0-.692.059-.22.058-.447.032-.641-.046-.265-.11-.524-.077-.789-.084-.24-.006-.466 0-.68-.129-.058-.032-.149-.071-.207-.058-.304.084-.608-.078-.906.032-.097.032-.246.039-.317-.019-.252-.201-.556-.104-.834-.188-.065-.078-.136-.155-.214-.246-.097.065-.181.129-.272.188a.466.466 0 0 1-.414.051c-.175-.051-.349-.09-.524-.142a3.709 3.709 0 0 0-.848-.123c-.368-.006-.744-.149-1.113-.239-.485-.117-.957-.298-1.481-.24-.156.02-.33-.123-.499-.181-.097-.032-.22-.097-.297-.065-.259.11-.466-.012-.667-.116-.181-.091-.343-.188-.55-.207a1.012 1.012 0 0 1-.401-.149c-.116-.065-.22-.123-.356-.11a.592.592 0 0 1-.537-.201c-.2-.226-.466-.336-.725-.433-.181-.071-.297-.33-.55-.214-.148-.09-.33-.135-.433-.304-.227-.362-.563-.608-.893-.86-.278-.214-.537-.427-.686-.751-.052-.11-.149-.2-.226-.304a1.803 1.803 0 0 1-.35-.66c-.045-.188-.174-.349-.252-.531-.175-.394-.24-.821-.265-1.248 0-.033.025-.078.013-.104-.175-.317-.059-.634.012-.938.072-.311.065-.654.305-.912.013-.013.025-.033.025-.046-.019-.388.292-.589.492-.854.13-.175.246-.356.382-.524.246-.311.492-.621.744-.925.058-.072.123-.162.194-.182.266-.051.376-.265.537-.433.162-.168.356-.311.518-.479.213-.22.543-.298.686-.595.343-.071.55-.388.873-.498.194-.065.343-.182.492-.317.155-.143.362-.227.55-.343.24-.156.447-.363.744-.434.11-.026.201-.142.304-.226.311-.253.654-.44 1.042-.563.362-.117.712-.253 1.068-.389.097-.038.174-.116.259-.181.349-.265.698-.517 1.158-.543a.585.585 0 0 0 .252-.078c.201-.123.408-.22.647-.259.117-.019.22-.11.337-.168.31-.149.621-.298.977-.298.194 0 .343-.084.498-.181.285-.174.569-.382.945-.336.077.006.174-.052.246-.097.213-.156.446-.233.711-.22.072.006.143-.02.214-.039.466-.13.932-.304 1.41-.369.318-.045.589-.265.926-.201.032.007.077-.013.097-.032.136-.168.323-.149.505-.136.33.02.601-.103.841-.317.051-.045.11-.097.142-.162.207-.375.343-.543.621-.75a.914.914 0 0 0 .201-.181c.162-.233.272-.499.563-.622.058-.025.071-.155.11-.239.084-.181.187-.33.401-.408.201-.071.388-.187.531-.362a.65.65 0 0 1 .122-.11 18.83 18.83 0 0 0 1.314-.958c.071-.058.201-.045.324-.064.058-.291.284-.427.55-.524.465-.188.938-.369 1.371-.628.059-.032.136-.045.201-.071.33-.117.712-.007 1.016-.246.045-.032.142-.007.213 0 .233.013.46.013.66-.149.084-.065.304 0 .35-.071.22-.337.595-.194.886-.311.291-.123.634-.103.958-.149.071-.006.155.013.213-.019.33-.168.699-.155 1.042-.246.317-.084.634-.052.945-.129.155-.039.317-.046.479-.071.246-.039.31-.007.459.245a.242.242 0 0 0 .065.078c.006.007.032-.006.077-.013.02-.103.033-.22.052-.33.181-.058.35-.11.524-.162a.64.64 0 0 1 .266-.032c.524.078 1.028-.026 1.54-.136.362-.077.744-.123 1.093-.22.369-.103.751-.032 1.113-.155.104-.032.246.026.356.065.116.038.226.11.362.187.175-.22.414-.233.667-.252.246-.02.498-.058.744-.13.272-.084.569-.09.854-.11.168-.013.22.026.472.266-.323.686-.828 1.132-1.617 1.197a3.379 3.379 0 0 0-.634.097c-.169.052-.305.026-.466-.02-.149-.038-.324-.006-.479.026-.214.046-.414.123-.641.091-.44-.058-.854.084-1.274.175-.156.032-.292.135-.473.09-.058-.013-.149.02-.2.065-.207.194-.453.149-.712.155-.427.013-.867-.032-1.281.13-.266.103-.531.051-.803-.052-.265.181-.55.272-.873.2-.084-.019-.181.007-.272.02-.356.045-.712.084-1.061.149-.337.064-.667.168-1.003.246-.194.045-.388.084-.582.129-.033.006-.078-.006-.11.006-.369.207-.77.272-1.185.33-.407.059-.802.208-1.197.343-.291.097-.563.24-.847.35-.136.052-.278.084-.408.149-.142.071-.298.142-.401.258a1.465 1.465 0 0 1-.576.395c-.149.058-.278.162-.408.259-.304.22-.608.44-.905.673-.098.078-.175.175-.253.272-.032.038-.045.103-.09.136-.175.123-.376.22-.531.362-.136.136-.207.336-.33.485a.649.649 0 0 1-.311.214c-.304.09-.42.336-.511.595-.071.207-.142.408-.31.556-.026.026-.072.052-.072.078.026.35-.271.576-.342.893-.02.084-.033.175-.065.259-.026.065-.084.11-.136.175.032.2.285.356.123.588.097.195.019.376 0 .576-.058.479-.097.964.078 1.437.032.084.012.181.032.265.052.298.071.608.298.848a.343.343 0 0 1 .077.2c.045.524.356.919.641 1.327.064.09.149.181.162.278.032.401.388.621.524.958.271.155.414.414.576.666.103.162.291.265.44.395.103.09.232.175.317.285.116.148.22.258.433.278.097.006.188.149.272.239.045.052.071.117.116.194.117-.032.214-.058.279-.071.368.162.718.311 1.061.466.239.11.466.252.705.362.181.085.375.136.557.201.232.091.498.045.724.188.194.123.401.233.602.343.091.045.207.116.298.097.375-.078.711.084 1.067.148.123.026.246.085.369.085.479-.007.925.129 1.365.291a.751.751 0 0 0 .266.045c.181.007.349.058.524.129.194.078.388.214.621.123.162.11.356.123.531.195.097.038.213.103.304.084.343-.065.679-.039 1.009.019.44.078.893.006 1.327.065.375.051.75.051 1.125.045.272-.006.538-.019.803.084.116.045.246.052.375.052.628 0 1.249.052 1.877.019.375-.019.763-.051 1.125.11.227-.045.46.007.686-.006.486-.026.964-.104 1.45.019a.672.672 0 0 0 .375-.032c.44-.149.899-.091 1.346-.091.162 0 .317.007.479-.026.052-.012.123.052.187.085-.051.019-.11.025-.148.058-.033.026-.046.084-.072.123.033.013.072.045.091.039a.22.22 0 0 0 .116-.078c.02-.045 0-.104-.006-.155.272-.007.544-.013.815-.026.181-.007.376.006.537-.059.369-.148.751-.142 1.12-.097.31.039.608.013.912-.025.304-.039.602-.143.912-.046.078.026.175-.039.266-.045.259-.026.498-.188.783-.045.116.058.31-.039.485-.065.032.045.071.097.123.162.718-.291 1.475-.369 2.245-.304.091.006.188.032.272.013.168-.039.33-.156.498-.156.168 0 .317-.006.479-.052.117-.038.239-.058.362-.077.356-.058.725.013 1.068-.13a.212.212 0 0 1 .11-.006c.362.071.705-.052 1.061-.097.123-.013.24-.052.363-.084.084-.026.181-.097.252-.078.388.091.751-.123 1.126-.09.44-.227.957-.097 1.404-.318.194-.097.459-.051.692-.058.408 0 .783-.11 1.146-.271.265-.117.524-.201.834-.136.175.032.395-.039.57-.117.265-.123.485-.097.692.11.019.02.065.02.116.033.272-.343.609-.589 1.068-.648.375-.278.854-.252 1.268-.414.421-.161.861-.258 1.282-.407.168-.059.317-.136.504-.149.13-.007.279-.104.363-.207a.637.637 0 0 1 .576-.246.592.592 0 0 0 .524-.214c.207-.22.466-.336.731-.453.116-.051.239-.09.336-.168.298-.239.621-.427.977-.576a1.86 1.86 0 0 0 .447-.297c.336-.298.679-.596.99-.919.187-.194.33-.427.485-.647.142-.207.265-.427.472-.589.149-.116.259-.278.24-.466-.02-.207.071-.349.2-.479a.69.69 0 0 0 .201-.427c.026-.265.129-.53.129-.796 0-.187.117-.284.182-.44-.072-.077-.149-.148-.214-.233-.039-.058-.097-.135-.078-.187.123-.434-.174-.757-.265-1.133-.065-.258-.175-.511-.259-.763-.013-.032-.013-.078-.032-.104-.336-.349-.459-.809-.641-1.229-.174-.401-.472-.692-.802-.925-.285-.201-.498-.46-.744-.68-.369-.336-.725-.692-1.094-1.029a.513.513 0 0 0-.343-.136c-.064-.006-.148-.045-.174-.097-.084-.181-.227-.226-.401-.213-.22.019-.376-.117-.55-.201-.24-.123-.453-.284-.732-.336-.239-.045-.465-.175-.698-.272-.117-.045-.246-.078-.35-.149a3.429 3.429 0 0 0-1.132-.492c-.117-.032-.227-.103-.343-.148-.065-.026-.162-.065-.201-.039-.187.129-.343.032-.498-.045-.336-.175-.673-.337-1.081-.292-.116.013-.284 0-.362-.077-.252-.246-.563-.214-.86-.259-.162-.019-.318-.052-.479-.071-.084-.007-.181-.02-.259.013-.272.11-.524.051-.796-.033a1.627 1.627 0 0 0-.582-.077c-.194.006-.389.084-.576-.052-.039-.032-.13.013-.201.019-.084 0-.181.02-.259-.006-.356-.143-.711-.11-1.061-.026-.285.065-.563.116-.86.103-.233-.012-.466-.012-.686.104-.104.052-.246.032-.376.039-.271.013-.537.019-.841.032-.013.136-.032.253-.045.395l-.369.136c.117.077.24.116.278.194.084.175.188.369.182.55-.013.408.148.776.174 1.171.007.091.058.194.026.265-.181.395.013.783.013 1.172 0 .09.007.187.045.265.104.194.078.382.039.582-.032.175-.045.356-.065.55-.064.039-.129.065-.187.104-.311.233-.304.226-.615.013-.078-.059-.194-.059-.298-.091l-.232-.589c-.188-.498-.156-1.016-.149-1.533.006-.395-.026-.79-.065-1.184-.013-.117-.11-.22-.181-.35.045-.077.103-.168.168-.272-.026-.032-.052-.084-.097-.11-.116-.058-.162-.135-.129-.258.045-.195.077-.389.148-.57.039-.11.13-.194.207-.31-.478-.305-.498-.783-.485-1.262.007-.272.013-.531-.058-.803a1.89 1.89 0 0 1-.032-.744c.038-.33.058-.679-.104-1.009-.045-.09-.006-.252.045-.356.084-.162.065-.304.02-.466a1.956 1.956 0 0 1-.084-.582c.026-.667-.02-1.333-.084-1.993a.622.622 0 0 1 .019-.31c.103-.279.052-.544-.065-.784-.103-.207-.11-.414-.097-.627.013-.194.078-.408.026-.583a1.054 1.054 0 0 1 .032-.73c.052-.143-.019-.357-.084-.512-.051-.13-.071-.233.007-.35.026-.038.045-.116.026-.148-.207-.33-.11-.706-.169-1.055-.019-.116.007-.246-.058-.362-.026-.058-.039-.162 0-.2.22-.234.104-.486.033-.713-.11-.368-.13-.724-.123-1.106.006-.42 0-.854-.078-1.268-.058-.304-.117-.576-.065-.893a1.543 1.543 0 0 0-.058-.803 2.75 2.75 0 0 1-.129-.692c-.013-.181.019-.369.284-.414-.039-.123-.103-.227-.11-.343-.013-.149-.129-.149-.207-.22-.026-.026-.019-.097-.019-.149.032-.79-.143-1.566-.117-2.355.007-.117-.071-.24-.097-.363-.051-.207-.09-.42-.149-.679.091-.045.188-.09.279-.136-.22-.407-.291-.763-.259-1.158.013-.233-.039-.466-.065-.699-.039-.356-.129-.705-.006-1.061a.341.341 0 0 0 .006-.162 3.71 3.71 0 0 1-.006-.97c.006-.091-.02-.182-.033-.272l-.013.006c.097.02.195.04.285.052.071-.13-.013-.175-.084-.213-.058-.033-.129-.052-.194-.072l.026-.026Zm22.265 37.627c.007-.052.019-.11.013-.162 0-.032-.026-.077-.045-.084-.026-.006-.084.013-.091.032-.019.039-.026.11-.006.136.032.039.097.046.142.065-.078.142-.162.278.013.414.155-.188.149-.187.188-.42l-.214.019Zm-21.825-47.688c.039-.007.058 0 .077-.013.046-.026.104-.052.117-.09.013-.033-.02-.104-.058-.124-.091-.058-.188-.11-.298-.045-.026.02-.071.052-.065.071 0 .045.02.11.052.136.058.039.129.045.175.065Zm14.798 55.013c.045-.02.097-.033.136-.065.032-.032.045-.084.065-.123-.046-.019-.091-.065-.13-.058a.55.55 0 0 0-.162.103c-.013.013-.013.072.007.091.013.026.052.032.084.052Zm6.671-6.976c-.045.065-.09.104-.084.143.007.045.039.11.078.136.032.019.097.013.136-.007.013-.006.032-.071.019-.09-.039-.059-.084-.104-.149-.182Zm.518-1.274c-.02.045-.033.064-.033.077-.006.097.026.175.123.194.033.007.078-.038.117-.064-.045-.065-.084-.136-.136-.201 0-.006-.026 0-.071-.006Zm-23.76-77.783c.039-.046.097-.09.123-.15.013-.031-.013-.115-.046-.128-.032-.02-.122-.007-.135.025a.357.357 0 0 0-.039.188c-.007.013.045.032.097.065Zm1.423 32.974c.052-.058.11-.11.104-.123-.032-.052-.071-.11-.13-.136-.058-.026-.148.065-.116.116.032.046.084.085.142.143Zm-1.009-25.164c-.078.084-.117.116-.149.149.039.026.071.07.11.07.039 0 .104-.044.104-.07.006-.046-.033-.091-.065-.15Zm23.618 70.691c.051-.019.097-.032.103-.039 0-.045-.013-.084-.026-.129-.026.013-.071.019-.077.038-.013.039-.007.078 0 .13Zm-14.799-11.188-.129-.129c-.032.039-.084.071-.091.116-.006.039.033.084.052.13.052-.033.097-.071.168-.117Zm-7.007-22.272c.032-.045.09-.084.084-.11-.007-.038-.052-.084-.091-.097-.064-.019-.155.072-.123.117.026.032.078.052.13.09Zm-2.084-45.915c-.065-.039-.11-.077-.142-.071-.026.006-.052.065-.065.104 0 .012.052.051.071.051.033-.013.071-.045.136-.084Zm6.975 88.421a.487.487 0 0 0 .033-.084c0-.007-.033-.033-.039-.026-.026.013-.045.039-.071.058a.453.453 0 0 1 .077.052Zm12.456-4.504c-.026-.013-.058-.026-.084-.045-.013.032-.032.058-.045.091.032.013.065.032.091.045.019-.026.025-.058.038-.091Zm-.375 2.22c-.006.032-.019.064-.019.09 0 .013.019.026.032.039.013-.026.039-.052.039-.084.006-.013-.033-.026-.052-.045Zm-46.899.601c-.019-.019-.032-.038-.052-.064-.012.013-.038.019-.032.032.007.026.02.052.026.084a.453.453 0 0 1 .058-.052Zm30.917-21.708c0 .013 0 .038.006.045a.128.128 0 0 0 .052.006c-.007-.019-.007-.045-.013-.064-.013.006-.026.013-.045.013Zm-3.85 27.435c-.02-.026-.033-.052-.052-.078 0 0-.039.02-.039.026 0 .026.013.058.02.084a.241.241 0 0 0 .071-.032Zm4.018-34.54c.032-.013.058-.032.091-.045-.013-.013-.02-.04-.033-.04-.032 0-.065.014-.09.02 0 .02.019.039.032.065Zm-30.269 36.3h-.033l.013.032.02-.032Zm29.687-47.119c-.033-.006-.059-.02-.085-.02-.012 0-.025.02-.038.033.026.013.051.039.077.039.013 0 .033-.032.046-.052ZM43.463 103.367h-.706c-.252 0-.504.007-.757-.006-.136-.007-.278-.078-.414-.071-.116.006-.233.097-.35.135-.083.026-.18.02-.27.026-.357.02-.713-.019-1.069.065-.258.058-.543.026-.815.032-.291.007-.582-.025-.867.02a2.531 2.531 0 0 1-.802-.033c-.143-.025-.285-.045-.447-.071-.065.046-.136.104-.213.143-.175.097-.35.174-.563.097a1.057 1.057 0 0 0-.375-.046 2.966 2.966 0 0 0-.473.072c-.065.013-.149.103-.188.084-.271-.123-.485.045-.718.123a1.214 1.214 0 0 1-.427.058c-.582-.039-1.139.084-1.695.213-.136.033-.194-.045-.298-.129-.304.382-.73.459-1.197.446a2.98 2.98 0 0 0-.86.091c-.292.084-.602.104-.9.162-.142.026-.272.071-.408.116-.064.02-.135.084-.2.078-.304-.019-.57.116-.828.233-.414.181-.835.323-1.262.466-.233.077-.44.246-.647.394-.194.143-.388.24-.628.285a1.181 1.181 0 0 0-.517.265c-.395.343-.829.641-1.133 1.075-.07.097-.18.168-.278.252-.22.181-.447.356-.537.66-.032.116-.13.22-.22.304-.401.375-.544.835-.46 1.385-.051.064-.11.136-.168.194-.097.097-.123.207-.116.343.006.272-.007.537-.007.809.007.233.026.459.13.686.084.194.13.394.149.621.026.356.187.692.381.996.181.285.376.563.524.874.15.323.389.608.615.886.142.175.246.382.44.531.175.136.265.382.388.582.13.214.246.434.376.667.13-.02.233-.039.343-.052.026.013.07.019.09.045.188.272.44.479.693.673.446.337.834.751 1.358.977.098.045.194.091.292.13.051.019.11.025.155.051.518.369 1.12.576 1.663.893.064.039.116.104.181.11.265.033.46.201.673.33.175.11.35.175.563.168.123-.006.252.02.375.059.324.11.64.233.958.362.11.045.207.052.31 0a.353.353 0 0 1 .408.065c.188.168.414.213.647.259.304.058.608.123.874.284.13.078.265.097.414.091.233-.007.466.026.686.136.278.136.582.162.886.194.479.052.97.026 1.45.168.297.091.634.078.95.065.195-.007.35.006.512.116.272.181.556.22.88.136a1.35 1.35 0 0 1 .75.007c.162.051.363.038.537.006.227-.039.447-.019.641.071.194.091.382.13.576.078.207-.058.395.013.589.045.103.02.194.13.323.227.11-.097.233-.285.48-.253.193.026.413-.032.595.033.304.103.614.077.905.045.402-.039.777.045 1.165.097.356.052.718.013 1.08.007.072 0 .143-.007.214-.02.252-.039.492-.039.706.142.161.13.304.039.414-.135.097.032.187.09.29.097.085.006.175-.046.26-.052.323-.032.647-.058.97-.078.427-.032.86.026 1.307-.09-.006.103-.032.174-.013.233.013.032.097.084.13.071.097-.039.174-.117.272-.156.414-.194.854-.09 1.28-.09.091 0 .182.039.266.026.472-.091.472-.091.854.039.278-.233.699.025 1.022-.324.065.117.11.194.143.252.07-.006.11 0 .136-.019.103-.071.2-.149.31-.214.175-.11.35-.161.57-.103.207.058.446.142.634.084.285-.097.576-.032.854-.129.13-.046.285-.046.427-.039.194.013.388.077.544-.123.032-.039.135-.039.2-.026.22.045.42.006.64-.052.24-.064.499-.058.745-.103.317-.059.634-.059.945-.181.342-.13.718-.175 1.093-.169.052 0 .11.007.162-.013.446-.136.893-.271 1.346-.407.103-.033.213-.097.31-.078.233.045.427.026.608-.136.026-.019.072-.039.097-.026.272.117.486 0 .7-.149.446.026.802-.323 1.255-.297.116.006.233-.084.355-.117.344-.084.68-.2 1.042-.213a.733.733 0 0 0 .253-.084c.33-.156.653-.311.977-.466.032-.013.064-.039.097-.045.407-.046.757-.24 1.106-.434.136-.078.24-.019.382.019.032-.071.058-.161.11-.226s.142-.162.2-.149c.234.039.344-.123.499-.239.362-.272.744-.499 1.126-.744.517-.337 1.029-.673 1.365-1.204.123-.194.213-.401.44-.518.097-.051.162-.187.22-.297a4.52 4.52 0 0 0 .252-.537c.078-.188.175-.35.35-.466.136-.084.246-.214.356-.324a.447.447 0 0 0 .11-.174 5.41 5.41 0 0 0 .258-1.437c.007-.123.052-.246.065-.369.013-.123.039-.259.007-.369-.059-.187-.169-.355-.059-.556-.239-.524-.233-1.113-.42-1.65-.026-.078-.104-.142-.149-.22-.175-.285-.479-.485-.556-.835-.317-.22-.434-.601-.719-.86-.602-.544-1.268-1.003-1.883-1.527-.504-.427-1.12-.641-1.682-.958-.175-.097-.375-.142-.498-.317-.02-.026-.059-.071-.078-.065-.388.052-.595-.31-.932-.388-.271-.065-.427-.414-.763-.311-.246-.116-.486-.239-.731-.349-.078-.032-.175-.032-.26-.058-.096-.033-.213-.058-.284-.13-.09-.084-.181-.077-.285-.097-.42-.071-.847-.103-1.274-.161-.214-.026-.401-.22-.628-.356-.233.187-.537.129-.79.045-.303-.104-.608-.065-.905-.117a4.242 4.242 0 0 0-.854-.058c-.53 0-1.074-.019-1.605-.136-.188-.045-.401-.077-.518-.265-.148-.246-.123-.524-.084-.789.013-.104.149-.194.22-.272.86-.039 1.682.058 2.498.22.278.052.576.032.867.032.453-.006.893.02 1.346.117.4.09.815.136 1.21.278.052.019.11.045.155.032a.514.514 0 0 1 .582.175c.02.026.065.039.097.039.466.006.861.252 1.288.395.408.135.796.336 1.19.504.033.013.065.052.098.046.4-.026.64.271.944.452.421.246.829.505 1.308.648.168.051.317.168.465.265.492.33 1.03.602 1.45 1.022.116.117.233.227.343.343.123.13.252.24.446.285a.6.6 0 0 1 .356.226c.175.266.466.44.576.764.032.097.11.207.194.252.382.181.518.537.68.874.058.129.116.259.174.394.143.33.35.628.408.997.052.31.291.576.336.899.013.091.072.188.046.259-.117.285.084.557.006.835-.006.013 0 .039.007.052.2.343-.007.692.013 1.041a.31.31 0 0 1-.04.156c-.148.168-.103.33.014.491.032.046.038.097.07.169-.42.614-.517 1.358-.763 2.051-.116.336-.233.679-.472.957a.437.437 0 0 0-.097.188c-.065.265-.194.498-.343.731a1.422 1.422 0 0 0-.188.447c-.09.427-.343.744-.64 1.035-.04.039-.09.065-.117.11-.29.634-.886.977-1.346 1.449-.038.039-.09.065-.116.11-.304.531-.906.693-1.34 1.055-.252-.019-.381.168-.53.324a.384.384 0 0 1-.13.097c-.685.284-1.223.834-1.915 1.113-.078.032-.13.123-.2.174-.13.097-.253.207-.402.266-.394.161-.394.149-.744.479-.35-.098-.66.097-.925.291-.31.226-.705.271-.996.524-.059.045-.175.045-.26.026-.226-.059-.42.019-.627.09-.194.065-.285.246-.446.343-.195-.194-.37.013-.55.039-.104.013-.201.071-.298.117-.052.019-.11.077-.142.064-.292-.129-.473.058-.693.246-.058-.129-.11-.233-.168-.362-.103.123-.168.226-.259.304-.077.071-.188.11-.272.175a.632.632 0 0 1-.4.123c-.143 0-.324.006-.415.09-.33.311-.744.233-1.126.298-.168.032-.336-.026-.524.045-.136.052-.31.007-.46.104-.045.032-.142.019-.206 0-.097-.033-.169-.02-.246.051-.24.227-.563.304-.854.447a.437.437 0 0 1-.2.045c-.176.013-.357.02-.564.026-.02-.045-.032-.11-.065-.168-.026-.046-.064-.078-.103-.13-.13.194-.259.382-.395.589-.46-.181-.873-.103-1.274.104-.143.071-.279.168-.453.051-.046-.025-.136.02-.208.026-.29.013-.588.078-.86.026-.259-.052-.498-.006-.738.046-.388.077-.77.168-1.17.161-.085 0-.17.046-.253.071-.065.02-.156.078-.188.052-.22-.162-.414.013-.621.02-.343.006-.686.019-1.01.155-.045.019-.11.032-.161.019-.46-.129-.932.039-1.392-.038-.077-.013-.168.045-.252.064-.142.026-.285.084-.42.058-.317-.058-.609.02-.9.123a1.193 1.193 0 0 1-.582.078c-.194-.026-.382-.078-.582.013-.072.032-.175-.019-.26-.032-.122-.02-.265-.084-.368-.046-.291.11-.596.091-.893.104-.291.013-.576-.007-.867 0-.104 0-.214.039-.317.071-.162.052-.31.091-.473-.006-.123-.072-.245-.013-.368.019-.35.091-.706.123-1.062 0-.18-.058-.368-.058-.517.052a.556.556 0 0 1-.466.09c-.298-.051-.602.078-.906-.071-.103-.052-.291.026-.408.091-.142.077-.265.071-.414.064-.265-.006-.537-.064-.809.007-.11.026-.252-.026-.362-.071a.817.817 0 0 0-.582-.026.804.804 0 0 1-.427.026c-.31-.058-.609-.013-.906.052-.22.045-.427.064-.64-.02a.493.493 0 0 0-.318-.026c-.304.11-.608.033-.906.039-.09 0-.2.013-.265-.032-.272-.207-.472-.052-.647.11-.162.032-.317-.181-.46.032-.038.058-.161.084-.239.084-.324-.006-.654-.006-.97-.052-.15-.019-.266-.038-.415.026-.194.091-.414.071-.627.078-.427.006-.848-.052-1.281.045-.26.058-.531.052-.79.149-.103.039-.252-.006-.362-.065-.143-.071-.272-.064-.42-.051-.299.032-.596.116-.907 0-.07-.026-.187.071-.31.116-.123-.039-.2-.239-.434-.136-.246.104-.485-.077-.712-.175-.142.059-.271.11-.407.162-.097-.071-.181-.136-.266-.2-.038 0-.084-.013-.103 0-.272.181-.576.2-.887.194-.304-.007-.601-.033-.905-.046-.182-.006-.356-.006-.538-.012-.11 0-.226.019-.317-.02-.252-.116-.524-.026-.789-.116-.226-.078-.498-.026-.75-.013-.169.006-.344.071-.512.058-.155-.013-.31-.097-.466-.142a.488.488 0 0 0-.213-.026c-.35.071-.673.006-.99-.143a.376.376 0 0 0-.369 0c-.136.078-.278.059-.42 0-.415-.161-.596-.161-1.062-.142-.278.013-.563-.058-.84-.091-.195-.019-.402-.058-.59-.025-.194.025-.356.019-.498-.123a.232.232 0 0 0-.246-.065c-.084.019-.181.019-.265.032-.259.052-.466 0-.582-.265-.013-.026-.059-.032-.098-.052-.207.091-.42.175-.672.278a23.054 23.054 0 0 0-.175-.22 1.914 1.914 0 0 1-1.249-.155c-.078-.032-.181-.065-.252-.039-.227.091-.434.007-.634-.051-.343-.098-.686-.214-1.042-.324l-.272.155c-.02 0-.045.013-.052 0-.297-.297-.718-.11-1.067-.278-.33-.162-.732-.207-1.1-.265-.434-.065-.783-.317-1.178-.479-.233-.097-.427-.265-.692-.285-.085-.006-.162-.071-.24-.116-.336-.207-.68-.414-1.01-.628-.122-.078-.226-.181-.336-.272-.18-.142-.31-.362-.563-.401-.368-.382-.854-.686-.886-1.3-.084-.046-.168-.085-.24-.143-.051-.039-.122-.097-.135-.155-.033-.162.045-.33-.15-.472-.11-.078-.129-.285-.167-.44-.072-.279-.123-.563-.318-.796-.038-.052-.045-.136-.058-.207-.07-.57.084-1.113.253-1.644.038-.123.168-.213.29-.349-.025-.033-.077-.097-.155-.194.188-.324.389-.667.583-1.003.291-.149.323-.492.524-.712.194-.207.356-.453.556-.66.188-.194.402-.362.615-.531.188-.142.395-.259.589-.394.09-.065.084-.065.116-.369.26-.22.537-.447.867-.596.085-.038.182-.071.233-.135.279-.317.686-.46.997-.725a.82.82 0 0 1 .278-.168c.298-.084.595-.162.764-.453.388-.123.698-.376 1.016-.609.025-.019.064-.051.097-.045.44.033.744-.259 1.074-.453.46-.265.944-.446 1.436-.621.104-.039.2-.084.291-.142.2-.123.395-.253.615-.389.065.026.13.052.188.085.09.051.187.051.246-.026.11-.162.258-.201.446-.246.278-.058.537-.201.822-.311.084.058.168.117.246.168.045-.012.084-.012.11-.032.498-.446.673-.53 1.326-.64.084-.013.168-.059.252-.085.156-.051.305-.129.46-.148.298-.039.556-.13.79-.324.116-.097.29-.142.446-.188.505-.148 1.01-.271 1.514-.42.414-.123.822-.278 1.236-.395.142-.039.31.013.505.026.019-.019.077-.065.103-.129.136-.292.226-.602.505-.822.103-.078.136-.246.207-.395.078.039.136.078.2.097.072.026.15.026.169-.071.025-.097-.052-.116-.123-.129-.033-.007-.065-.033-.123-.059.032-.058.045-.136.09-.168.181-.136.279-.33.376-.518.09-.168.213-.291.362-.394.103-.071.226-.13.304-.22.401-.473.906-.822 1.398-1.197.07-.052.155-.11.24-.117.206-.013.355-.136.536-.22.285-.136.518-.317.744-.53a.542.542 0 0 1 .181-.117c.402-.097.764-.323 1.191-.336.117-.007.233-.071.35-.11.187-.071.375-.13.556-.214.188-.09.35.026.55.039.052-.058.11-.129.181-.22.097.026.194.052.298.078.026-.013.052-.033.084-.052.162-.11.31-.246.492-.324.168-.077.369.065.563-.071.142-.097.343-.084.524-.065.052.098.103.188.149.272.18-.097-.013-.239.077-.349.375.045.731-.084 1.087-.201a1.81 1.81 0 0 1 .524-.09c.233-.007.473.013.693-.097a.523.523 0 0 1 .265-.033c.453.026.893-.09 1.346-.116a.897.897 0 0 0 .304-.097c.343-.169.699-.169 1.055-.059.142.046.233.052.317-.084.071-.116.2-.058.297-.045.525.065 1.036-.097 1.56-.039.259-.136.524-.09.796-.045.142.026.278.065.466.103a.704.704 0 0 1 .66-.135c.097.025.207.013.31.006.052 0 .117-.045.156-.026.355.181.698-.006 1.041-.013.608-.006 1.223-.006 1.812.207.214.078.324.22.382.421.032.11.026.213-.052.304-.136.11-.226.22-.362.388Zm9.084 24.86c-.032.168.007.272.188.304.078-.174.007-.258-.188-.304Zm-3.461.356c-.026-.052-.04-.078-.052-.11-.039.026-.084.045-.117.078-.006.006.033.084.046.077.045-.006.084-.032.123-.045Zm-36.236-.362c.072-.136.117-.181.11-.214-.006-.032-.064-.058-.097-.084-.026.039-.07.071-.077.11-.013.045.026.091.064.188Zm47.488-1.76c-.052-.039-.084-.084-.117-.084-.038 0-.07.045-.11.077.033.033.059.091.091.097.032.007.078-.045.136-.09Zm7.092-2.142c-.013-.026-.026-.071-.046-.078-.025-.006-.064.02-.09.033l.071.11a.296.296 0 0 1 .065-.065Zm-2.957-21.761c.026-.013.07-.013.084-.038.013-.02-.013-.052-.02-.085-.032.013-.07.026-.103.046l.039.077Zm-8.755 21.159c.013-.026.026-.052.039-.084-.026-.013-.058-.039-.084-.032-.02.006-.04.052-.033.077.013.026.052.033.078.039Zm15.076-18.758c-.025-.039-.038-.078-.058-.084a.112.112 0 0 0-.09.026c-.013.013.006.052.013.084.045-.007.09-.013.135-.026Zm-60.454 8.289c-.007-.013-.013-.026-.02-.045-.006.012-.026.025-.026.038 0 .013.013.026.013.046.013-.02.02-.026.033-.039Zm66.563-3.747.006-.032-.039.013.033.019Zm-74.56 10.78.038-.038c-.032-.013-.058-.033-.09-.046-.007 0-.027.026-.04.039a.636.636 0 0 0 .091.045Zm30.36 1.553c-.014.013-.02.026-.033.039.026.013.051.032.077.039.007 0 .02-.019.033-.032-.026-.013-.052-.033-.078-.046Zm33.27.046-.044-.02-.007.039.052-.019Zm-22.569-19.147v.039l.04-.013-.04-.026Zm.078 20.784c-.013-.013-.02-.039-.032-.033-.026.007-.059.02-.084.026.013.013.026.033.032.033.032-.007.058-.02.084-.026Zm-6.762-20.752c.013-.006.033-.012.04-.019.006-.013 0-.026-.007-.045-.02.006-.04.019-.052.026l.02.038Zm24.485 23.392c.013-.013.02-.026.032-.039l-.084-.039c-.006 0-.026.026-.038.032.032.02.058.033.09.046Zm1.204.614c-.026-.013-.052-.032-.084-.038-.007 0-.026.019-.04.032.027.013.059.032.085.045.013 0 .026-.026.039-.039Zm-42.803 1.586-.072.051c.013.013.026.039.033.039.032-.006.058-.019.09-.032-.019-.026-.038-.039-.051-.058Zm1.811.207c-.013.006-.032.006-.038.013-.007.013-.007.032-.013.051.026-.006.045-.013.07-.019 0-.019-.012-.032-.019-.045Zm21.211.31-.02-.039c-.006.013-.025.026-.025.039 0 .013.013.026.02.039.012-.013.018-.026.025-.039Z" fill="#000"/><path d="M179.131 58.17c.246.297.22.64.182.977-.033.304-.065.595.013.9.038.168.006.355.013.536.012.324.025.648.045.971.006.071.013.149.052.2.077.123.058.22.006.35-.091.252-.078.524-.052.783.052.518.117 1.035-.006 1.553-.007.032-.013.078.006.103.181.266.117.55.091.842a.86.86 0 0 0 .078.42c.122.259.155.498.032.777a.865.865 0 0 0-.032.53c.116.447.097.893.103 1.346.007.291.013.576.032.867.007.104.052.207.078.31.019.072.071.156.045.201-.194.35-.019.712-.045 1.068-.026.35.052.718.11 1.068.032.187.032.356-.039.524-.084.207-.09.407-.077.634.032.666.168 1.326.097 1.993a.535.535 0 0 0 .038.265c.149.285.065.57-.006.841-.045.181-.078.343-.039.53.026.124 0 .253.007.376.019.252.051.498.064.75.02.253.097.518.033.751-.156.563-.059 1.094.039 1.644.038.207.064.42.038.64-.038.356-.045.719-.058 1.081 0 .084.013.181.045.259a.396.396 0 0 1 .02.31c-.084.22-.013.434.032.641.078.35.084.343-.065.673.311.291.266.705.305 1.087.013.142-.11.291-.175.46.052.174.136.381.155.588.02.188-.058.382-.039.57.02.18.084.35.02.53-.026.065-.058.156-.033.2.207.402.026.868.201 1.276.039.097-.104.265-.058.356.09.187.039.33-.033.504a.74.74 0 0 0 .007.427c.155.544.136 1.1.155 1.657.013.517.007 1.035.104 1.56.071.355.09.75-.065 1.112.078.117.149.22.207.304-.026.227-.058.44-.078.647-.013.104.033.233-.019.31-.065.104-.045.15.032.22.033.033.078.11.065.137-.162.304.032.595.007.9-.013.154.071.31-.039.472-.026.038 0 .135.032.194.129.239.155.517.045.73-.161.33-.116.59.097.848-.045.175-.155.305-.116.512.097.563.142 1.138.013 1.714a.581.581 0 0 0 .006.259c.078.337.156.673.097 1.016-.058.362.085.705.11 1.055.02.291.033.576 0 .86a.716.716 0 0 0 .162.583c-.123.2-.168.401-.084.647.11.304.117.64.058.964-.039.207-.032.42.052.582a.748.748 0 0 1 0 .738l.421 1.1c.032.084.038.207.097.246.336.239.349.653.53.977.046.077.059.194.123.233.298.174.408.504.654.718.181.162.252.343.252.589.401.207.841.304 1.23.53.097.059.245.039.368.046.214.019.447-.033.589.194.233.039.46.103.693.116.705.033 1.41.071 2.083-.226.091-.039.22-.013.317-.052.11-.045.22-.116.311-.194.174-.155.336-.324.511-.479.052-.045.123-.11.181-.103.291.012.453-.188.647-.343.252-.201.537-.369.79-.576.323-.259.627-.537.951-.822.181.026.356.052.556.078.123.2.253.414.382.634-.207.621-.569 1.158-.88 1.727-.058.11-.168.188-.252.279-.195.207-.434.362-.602.601-.175.246-.485.298-.757.389-.22.077-.434.142-.621.304-.156.129-.389.168-.602.207-.084.013-.188-.091-.278-.143-.169.059-.33.136-.499.175a.538.538 0 0 0-.265.162c-.084.084-.213.188-.317.175-.304-.033-.615.064-.906-.078-.09-.045-.175-.052-.252.013-.201.162-.401.097-.602.019-.265-.103-.531-.2-.822-.304l-.162.22c-.032-.006-.077.007-.097-.013-.077-.071-.135-.162-.271-.103-.143.058-.292.051-.376-.104-.071-.116-.2-.065-.284-.116-.169-.097-.337-.214-.499-.324-.058-.039-.116-.123-.174-.123-.259-.006-.427-.187-.615-.323a7.413 7.413 0 0 1-.99-.816c-.065-.064-.129-.142-.207-.168-.252-.077-.375-.265-.505-.466-.064-.11-.136-.226-.239-.291-.259-.168-.35-.459-.537-.673-.046-.052-.078-.136-.065-.2.045-.24-.078-.427-.201-.596-.304-.401-.291-.847-.148-1.281.077-.239.097-.446.064-.686-.019-.123 0-.252-.006-.375-.007-.084-.007-.175-.026-.259-.045-.188-.155-.369-.026-.569.026-.046-.006-.143-.039-.201a.304.304 0 0 1-.013-.304c.02-.045.033-.11.013-.155-.246-.537-.123-1.1-.103-1.65a6.83 6.83 0 0 0-.058-1.023c-.046-.368-.156-.731-.072-1.119.039-.162-.026-.356-.071-.524a1.682 1.682 0 0 1-.006-1.01c.032-.11.039-.265-.013-.362-.097-.175-.065-.343-.071-.524-.02-.9.025-1.805-.033-2.705-.026-.427.033-.854-.019-1.287-.052-.408.026-.835 0-1.243-.026-.407.084-.815 0-1.223-.013-.051.013-.123-.013-.161-.22-.337-.045-.706-.11-1.055.11-.181.097-.343-.026-.524-.052-.078-.032-.207-.032-.317-.007-.123.006-.253-.007-.376-.026-.323-.032-.323.175-.666-.362-.31-.382-.731-.324-1.171.059-.427 0-.86.013-1.288a.446.446 0 0 0-.045-.207c-.188-.323-.11-.666-.058-.996a2.044 2.044 0 0 0-.007-.745 1.529 1.529 0 0 1-.019-.64 1.165 1.165 0 0 0-.175-.88c.052-.104.097-.2.155-.31-.22-.408-.194-.868-.168-1.314.02-.376.026-.757-.019-1.126-.052-.408-.013-.828-.104-1.23a.467.467 0 0 1-.013-.161c.052-.867-.077-1.734-.013-2.601.02-.285-.071-.557 0-.855.065-.271-.013-.576-.006-.86.013-.544.013-1.08 0-1.624-.007-.324-.123-.64-.019-.965.019-.058-.007-.148-.046-.207-.103-.148-.084-.304-.071-.472a4.28 4.28 0 0 0 0-.64c-.013-.15-.032-.279.065-.408.039-.045.045-.142.026-.2-.123-.402-.11-.816-.117-1.23 0-.246.065-.511-.077-.744-.007-.013-.02-.04-.013-.052.174-.466-.065-.919-.065-1.378 0-.253-.039-.505-.058-.75-.007-.053-.026-.11-.013-.163.116-.394.006-.789-.026-1.177a11.46 11.46 0 0 1-.039-1.243c.006-.647 0-1.3-.013-1.947a.718.718 0 0 0-.052-.317c-.077-.162-.013-.317-.019-.473-.007-.136-.065-.252-.007-.407.059-.143.02-.317.02-.48 0-.05-.026-.103-.039-.154-.026-.15.188-.233.104-.402-.065-.129-.143-.265-.156-.4a5.497 5.497 0 0 1 .007-.978 2.019 2.019 0 0 0 0-.479c-.033-.265-.11-.524-.026-.795.026-.078.026-.201-.013-.266-.136-.226-.045-.453-.039-.68.013-.362.039-.718.045-1.08 0-.084-.058-.168-.097-.272l.22-.278c-.019-.032-.026-.064-.045-.09-.052-.065-.149-.117-.162-.188-.045-.227-.071-.46-.097-.692-.006-.052.026-.123.007-.162-.214-.369-.039-.738-.02-1.107.007-.09.033-.18.033-.265-.007-.343.032-.692-.033-1.022-.11-.518-.103-1.036-.084-1.553.013-.26.097-.53-.058-.783.052-.2-.078-.447.175-.583-.305-.498-.259-1.028-.279-1.54-.019-.453-.026-.899-.051-1.352-.007-.103-.046-.213-.065-.317-.013-.071-.065-.155-.039-.2.123-.233.071-.447-.026-.673-.039-.091-.013-.214-.006-.324.019-.252.032-.505-.046-.75a.757.757 0 0 1-.019-.266c.026-.446.058-.9.078-1.346a.408.408 0 0 0-.026-.213c-.136-.285-.065-.608-.156-.9-.012-.045-.019-.123.007-.155.11-.13.071-.259.052-.408-.013-.13.116-.265-.007-.407-.019-.02-.019-.078-.006-.104.194-.433.045-.893.11-1.34.039-.271-.13-.504-.058-.782.071-.278.045-.576.058-.86.006-.273 0-.544-.007-.816 0-.09.026-.2-.019-.259-.22-.291-.162-.615-.13-.938.039-.414.039-.822-.116-1.223-.045-.123-.006-.285-.013-.42-.013-.272-.084-.55-.032-.81.051-.258-.007-.498.019-.744.026-.297.104-.595.013-.899-.019-.078.026-.175.052-.259.045-.149.013-.272-.033-.414-.077-.272-.097-.563-.155-.841-.032-.155.026-.285.091-.414.123-.227.343-.298.589-.188a.674.674 0 0 0 .343.058c.025.02.058.04.084.065.103.123.194.252.239.414.097.356.227.699.324 1.055.019.078-.026.175-.039.265-.052.427-.091.854.032 1.281.045.15.045.33.013.48-.052.239-.006.459.052.691.045.175.071.35.097.531a.935.935 0 0 1-.065.53c-.032.078-.071.195-.032.26.142.265.032.485-.058.724a.602.602 0 0 0-.052.317c.045.22.013.434-.007.647-.019.246.033.486.072.731.077.512.11 1.042.051 1.566-.013.143-.039.298 0 .428.104.388-.032.744-.09 1.112-.007.052-.046.098-.084.169.168.194.22.394.135.673-.103.349-.187.724-.025 1.1.084.194.084.414.071.634-.033.543-.026 1.087-.026 1.624 0 .071 0 .155.039.207.116.181.097.382.103.582.007.2 0 .395.084.583.039.09.033.213.013.317-.051.271-.077.53.033.795a.9.9 0 0 1 .051.318c-.006.433-.013.867-.045 1.3-.013.194-.045.382.065.57.058.097.039.245.052.375-.059.052-.13.103-.201.162.136.31.278.62.427.95a5.164 5.164 0 0 0-.226.169c.025.324.051.621.064.925.02.376.091.75.059 1.126-.013.194-.091.408-.039.583.09.317.019.647.11.964a.328.328 0 0 1-.026.207.515.515 0 0 0-.02.414c.033.11-.025.252 0 .369.065.297.123.595.026.893.123.194.013.375-.006.569-.013.188.084.382.123.576.045.246.064.498-.039.744-.097.116-.097.246-.117.369Zm1.767 52.528c-.117-.188-.188-.304-.259-.414-.013-.013-.052-.006-.09-.006-.059.155-.085.297.032.465.071-.013.149-.025.317-.045Zm-1.864-33.2c-.045-.065-.071-.098-.097-.13-.038.052-.077.097-.103.149-.007.013.026.052.045.084.045-.039.097-.065.155-.103Zm2.809 34.721c.058-.059.084-.091.116-.123-.045-.039-.09-.084-.149-.11-.013-.007-.09.064-.084.077.02.052.065.091.117.156Zm-.783-1.32c-.026.019-.065.032-.065.051-.006.026.019.052.032.085.033-.026.065-.052.097-.072-.019-.025-.045-.045-.064-.064Zm-3.378-73.914a.43.43 0 0 0-.045-.103c-.046.006-.084.026-.13.045.013.032.026.084.039.084.045 0 .084-.02.136-.026Zm.408 17.335c0 .02 0 .045-.007.065.007-.013.026-.02.026-.033.007-.013-.006-.02-.019-.032ZM45.818 88.608c.142.291.207.543.162.828-.039.227-.058.46.097.673.058.084.052.246.032.362a1.88 1.88 0 0 0 0 .686c.013.072.013.143.02.214.026.265-.11.517-.026.79.077.239.026.491.006.743-.013.188.02.35.117.518.11.188.136.382.077.621-.077.324-.032.673.033 1.01.013.051.032.116.013.155-.104.188-.013.35.039.524.084.272.103.53-.13.757.214.427.278.86.207 1.314-.045.265-.097.524.052.789a.532.532 0 0 1 .032.42c-.077.175.013.318-.013.466-.026.15-.07.272.013.408-.168.317.09.66-.065.99-.051.117-.019.291.014.427.064.253.129.492-.052.725-.026.032-.026.11-.007.155.13.414.078.841.11 1.262.02.298-.02.595.039.899.052.279.084.583.032.861-.07.382.072.712.162 1.055.007.032.046.071.039.103-.13.395.162.628.343.9.058.09.116.174.175.271-.084.11-.162.207-.233.298.038.039.058.071.084.078a.15.15 0 0 0 .103-.02c.169-.097.291-.052.434.078.362.323.744.621 1.12.932.11.09.226.174.33.278.265.278.595.459.944.589.414.149.744.44 1.132.634.09.045.194.103.291.116.376.052.751.117 1.133.059.136-.02.285.006.427.025.214.026.414 0 .712-.11.051-.019.103-.038.148-.038.402.013.777-.085 1.159-.182.317-.084.602-.168.847-.401.13-.123.311-.187.453-.297.162-.136.33-.104.486-.046.271-.174.53-.336.776-.517.246-.182.33-.524.64-.654.421.123.7.362.706.854-.039.071-.117.162-.136.266-.078.401-.362.653-.653.886-.097.078-.194.149-.26.265-.135.24-.336.408-.575.55-.395.22-.764.479-1.223.544a.608.608 0 0 0-.298.116c-.304.227-.66.272-1.016.33-.317.052-.647.039-.938.22-.032.02-.078.046-.103.033-.363-.136-.7.09-1.062.051-.362-.032-.711-.058-1.06-.168-.415-.123-.835-.213-1.256-.323a3.64 3.64 0 0 1-.744-.317c-.363-.195-.673-.479-1.08-.609-.182-.051-.35-.2-.486-.336a6.413 6.413 0 0 0-.932-.738c-.226-.149-.453-.317-.615-.53-.278-.376-.614-.712-.789-1.159-.058-.142-.181-.258-.317-.44-.02-.582-.071-1.229-.045-1.876-.155-.447.058-.932-.143-1.372.033-.395-.122-.783-.025-1.184.045-.207-.007-.433.019-.647.006-.091.09-.181.162-.304-.059-.104-.194-.201-.22-.401-.078-.609-.15-1.217-.084-1.831.012-.123-.02-.253-.033-.376-.006-.07-.058-.149-.039-.207.136-.35.02-.673-.032-1.016-.032-.207-.006-.427.006-.64.02-.317.085-.628-.012-.951a1.864 1.864 0 0 1-.026-.848c.064-.382-.007-.783-.02-1.171-.006-.181 0-.356 0-.576-.162-.09-.226-.272-.174-.485.077-.343.038-.686.006-1.03-.039-.394.045-.795-.11-1.177.116-.226-.02-.42-.065-.621a.78.78 0 0 1-.013-.324c.097-.4-.006-.783-.064-1.17-.013-.072-.072-.143-.059-.208.078-.304-.019-.602-.013-.893.014-.375-.045-.744-.025-1.12.006-.09.019-.193-.013-.271-.123-.285-.143-.556 0-.835-.117-.258.077-.55-.11-.815-.09-.13-.046-.35-.09-.518-.11-.388.032-.77-.014-1.158-.006-.052.026-.11.007-.155-.072-.181-.097-.376-.169-.557-.064-.161.059-.394.02-.576a2.877 2.877 0 0 1-.026-.912c.026-.188-.052-.388-.065-.582-.02-.285-.077-.557.007-.854.097-.324-.052-.673-.026-1.01a2.895 2.895 0 0 0-.117-1.055c-.02-.064-.032-.155 0-.207.104-.187.136-.368.026-.563-.006-.012-.02-.038-.013-.051.11-.427.013-.854 0-1.281-.006-.182.13-.363.227-.609a26.972 26.972 0 0 0-.304-.161c.213-.402.116-.745.077-1.1-.045-.395-.077-.803-.02-1.184.06-.376.053-.751.098-1.126.045-.324.045-.648.065-.971 0-.052.013-.11-.007-.162-.155-.446-.026-.9-.026-1.346 0-.11.026-.226-.006-.317-.181-.53-.117-1.054-.026-1.591a1.96 1.96 0 0 0-.039-.751c-.11-.434-.071-.848-.039-1.281.033-.447.117-.887.11-1.327-.006-.388.072-.79-.058-1.177.097-.46 0-.926.007-1.385.006-.556.038-1.113.084-1.67a2.432 2.432 0 0 0-.013-.485c-.033-.272-.084-.53-.026-.809.02-.084-.013-.18-.026-.265-.104-.68-.123-1.365-.136-2.051a3.536 3.536 0 0 0-.09-.738 1.663 1.663 0 0 1 .019-.854 1.97 1.97 0 0 0 .09-.64c-.019-.292.04-.531.35-.725-.175-.078-.298-.136-.414-.188-.188-.46-.026-.957-.155-1.423.096-.227.025-.46.045-.686a1.893 1.893 0 0 0-.033-.472c-.038-.24-.142-.486-.012-.732.038-.064-.014-.174-.014-.265-.019-.427.014-.854.072-1.281a2.251 2.251 0 0 0-.072-.906c-.096-.324.052-.654-.084-.964-.006-.013 0-.039.013-.052.24-.278.046-.453-.174-.595.045-.15.084-.246.103-.356.046-.265.09-.524.013-.79a1.187 1.187 0 0 1-.02-.478c.033-.26-.038-.537-.051-.803-.007-.142.02-.284.032-.42.013-.123.052-.253.026-.37-.032-.148-.065-.277.013-.413a.121.121 0 0 0 .013-.052c-.006-.298-.252-.582-.039-.886-.013-.305-.032-.609-.168-.893-.026-.059-.026-.136-.026-.208.013-.375.032-.75.045-1.125.007-.13.026-.26-.013-.376-.064-.2-.038-.375.02-.575.045-.143 0-.324-.039-.48-.065-.232-.052-.44 0-.679.084-.381.058-.79-.02-1.184a1.13 1.13 0 0 1-.012-.53c.045-.169.09-.356-.026-.525.032-.427.065-.86.103-1.287.007-.071.065-.143.046-.2-.117-.395 0-.79-.026-1.185-.013-.188.07-.35.09-.524.02-.149-.077-.31-.077-.472a9.18 9.18 0 0 1 .077-1.03c.02-.155.104-.303.169-.478-.026-.058-.072-.136-.098-.22-.038-.13-.012-.252.098-.343.148-.123.31-.246.478-.382.11.078.22.169.343.233.33.181.414.473.389.815-.026.356-.156.706-.072 1.068.013.058-.045.136-.051.207-.013.143-.072.317-.013.42.161.292.013.615.13.9.012.032.018.09 0 .104-.26.207-.072.46-.098.692-.026.278.032.556-.071.835-.13.343-.039.712.078 1.054-.078.117-.143.22-.195.298.033.22.065.414.091.608.039.266-.149.499-.058.796.084.266.045.57.064.86.02.273.052.538.059.81.006.187-.052.355-.298.407.09.117.181.207.227.31.038.098.025.214.038.318.02.142.046.278.065.42.006.052.02.11 0 .156-.168.336-.104.666 0 1.003a.502.502 0 0 1 .006.259.466.466 0 0 0 0 .31c.04.117.033.246.046.362.006.091-.013.195.026.266.18.336.097.666.013 1.003-.026.103-.059.207-.084.317.051.116.11.226.148.35.026.083.065.193.033.264-.2.466-.026.958-.097 1.437-.013.084.038.175.058.259.02.071.071.155.045.2-.142.324.071.622.046.932-.026.304-.04.608.07.913.04.097-.096.278-.051.349.155.226.078.408-.039.602-.026.038-.026.11-.013.155.084.2.052.395-.02.582-.077.2.091.343.104.53-.065.06-.13.124-.194.182.007.033 0 .065.013.097.045.097.11.188.13.285.058.278.103.563.148.847.007.052.02.117-.006.162-.104.188-.032.376-.032.57 0 .2.012.394.064.582.02.065.039.149.02.207-.117.265-.084.518-.033.79.039.22-.02.465-.065.692-.025.149-.064.291.04.414.096.117.051.24.051.362 0 .272.02.537-.013.803-.052.466.039.925.013 1.39 0 .04-.006.072 0 .11.045.292.207.564.162.874-.039.292.052.563.097.848.039.233.09.466-.084.673.084.369-.032.744 0 1.106.032.337.032.673.09 1.003.02.11-.084.233-.09.356-.032.447-.078.893.006 1.333.013.065-.013.143-.013.207-.02.304-.026.608 0 .913.026.317-.032.647-.045.97-.013.363-.045.725.084 1.074a.53.53 0 0 1 0 .317c-.123.37-.123.745-.071 1.126.02.123.007.246 0 .37 0 .09-.045.193-.013.264.181.421.02.842.02 1.262 0 .266-.033.537.097.796.058.11.045.291-.007.414-.123.317-.116.634-.052.958.02.084.033.181.013.265-.058.265-.13.524-.2.783.174.246.09.524.07.79-.006.103-.051.206-.064.316-.013.104-.039.233 0 .318.168.349.123.718.09 1.067-.025.227 0 .427.065.628.078.259.182.511.065.79a.234.234 0 0 0 .007.161c.11.272.038.53-.04.796a.715.715 0 0 0-.006.31c.059.421.169.842-.058 1.269.149.259.246.524.071.809.065.233-.136.485.065.705.026.032.032.123.013.149-.13.148-.11.272-.013.433a.372.372 0 0 1 0 .31c-.104.189-.026.33.02.505.103.421.18.842.142 1.282-.04.407.103.815.006 1.23-.006.031 0 .083.02.103.18.2.136.4.064.64-.038.15-.09.363.059.518-.013.375.252.718.116 1.106-.02.059.026.136.045.207.123.337.104.615-.058.887Zm-1.294-34.695c-.117-.059-.2-.097-.278-.136-.02.045-.065.116-.059.123a.778.778 0 0 0 .195.129c.026.013.07-.052.142-.116Zm5.487 56.197c-.052-.052-.09-.104-.142-.143-.02-.019-.091-.019-.091-.013-.013.046-.039.11-.02.136.04.046.11.071.169.091.013.013.039-.033.084-.071Zm6.18 1.294-.078.039c.013.013.026.032.032.032a.421.421 0 0 0 .078-.032.174.174 0 0 1-.033-.039Zm-9.894-7.144c0 .013 0 .033.006.039.013.007.026.007.046.007 0-.02-.007-.039-.007-.059-.02 0-.032.007-.045.013Zm-.414-1.307-.02-.039-.02.039h.04Zm-1.314-73.674c.007-.013.007-.026.013-.045-.02.006-.032.02-.052.026l.04.019Zm.35 60.48-.02-.038c-.013.006-.02.013-.032.02.013.019.026.038.039.051 0-.007.006-.02.013-.032Zm-.046-5.525h.033l-.013-.04-.02.04Zm1.424 21.353c-.02-.02-.039-.059-.058-.059-.026 0-.059.02-.084.033.019.019.032.065.051.065.026 0 .058-.026.09-.039Z" fill="#000"/><path d="M56.734 87.23c0-.272.006-.544-.007-.816-.006-.103-.045-.207-.064-.31-.02-.104-.065-.207-.046-.31.04-.247.123-.493.007-.745.174-.317-.046-.621-.04-.938.014-.427.053-.867-.09-1.288-.032-.09.04-.207.052-.31.007-.072.02-.156-.013-.208-.2-.278-.149-.588-.103-.886.02-.13.045-.24-.013-.362-.046-.09-.059-.207-.046-.31a1.541 1.541 0 0 0-.07-.641c-.053-.188-.078-.402-.027-.583.059-.2-.006-.388.013-.582.007-.046-.02-.117-.051-.13-.175-.07-.175-.207-.175-.362-.007-.414-.026-.828-.026-1.242 0-.194.052-.395.084-.634-.149-.22-.265-.499-.233-.822.007-.104-.026-.214-.045-.317-.123-.673-.007-1.366-.168-2.038-.04-.169.026-.356.019-.538a36.376 36.376 0 0 0-.103-1.449c-.014-.123-.065-.246-.085-.369-.02-.103-.064-.233-.026-.317.097-.2.04-.382 0-.576-.07-.336-.174-.666-.006-1.003-.071-.382.065-.77-.136-1.151-.13-.246-.142-.55-.11-.842.026-.213 0-.433.007-.647.006-.265-.15-.53-.007-.796-.11-.2-.039-.42-.071-.627-.045-.285-.078-.57-.123-.854-.058-.356-.02-.712.007-1.075.025-.265.064-.55-.233-.73.226-.454.148-.894.064-1.34-.026-.123-.064-.252-.039-.369.078-.317-.045-.64.033-.958.006-.032.013-.077 0-.103-.194-.375-.13-.77-.11-1.165.013-.2.006-.395-.065-.589-.039-.11-.065-.258-.026-.362.084-.233.039-.453 0-.68-.039-.232-.084-.459-.116-.692a.313.313 0 0 1 .006-.155c.123-.324.078-.64-.039-.958.072-.11.136-.213.207-.323-.207-.272-.271-.57-.245-.919.019-.304-.02-.608.038-.912.033-.162-.058-.35-.116-.524-.039-.13-.058-.24-.007-.37.026-.064.052-.155.026-.206-.116-.22-.194-.427.007-.647-.02-.253-.033-.505-.059-.751-.012-.142-.045-.285-.045-.427 0-.291.033-.582-.07-.86-.014-.033-.033-.078-.02-.104.136-.382 0-.75-.02-1.126-.013-.207.078-.42.084-.634.007-.214-.07-.434-.051-.64a3.287 3.287 0 0 0-.046-1.068c-.064-.292-.026-.609-.026-.913 0-.07.033-.142.02-.213-.123-.939-.033-1.877-.065-2.815a3.872 3.872 0 0 0-.052-.479c-.07-.356-.116-.712.02-1.067a.482.482 0 0 0-.033-.421c-.103-.168-.103-.337-.038-.518a.983.983 0 0 0-.033-.776c-.065-.136-.07-.266.026-.408.032-.045-.058-.162-.045-.24.02-.154.09-.303.097-.459.006-.142-.09-.29-.065-.42.097-.427.039-.841-.013-1.269a1.696 1.696 0 0 1 .13-.892c-.175-.272-.169-.576-.181-.88 0-.072.038-.15.025-.214-.058-.272.04-.492.253-.666-.072-.084-.13-.156-.207-.253l.252-.524c-.194-.653-.22-1.32.013-1.993.032-.097.039-.207.045-.31.007-.091-.02-.182-.02-.272 0-.136.033-.265.17-.317.148-.058.316-.104.459.032.077.078.142.162.194.227-.02.563-.052 1.1-.046 1.637 0 .213.104.42.11.634.007.595.13 1.177.2 1.766.027.22.033.434-.057.64a.625.625 0 0 0 .02.577.73.73 0 0 1 .057.317c.007.297-.123.582-.045.906.065.271.032.57.039.854.006.285.071.576-.052.86-.026.059.013.136.02.207.019.253.045.505.051.758.007.213 0 .414.058.634.072.284.02.608-.07.899-.046.142-.065.265-.014.414.046.13.013.285.026.427.013.214.033.434.04.647l.038 1.23c.006.194-.013.4.045.588.084.311.071.602-.026.906a.845.845 0 0 0 .026.628c.136.285.026.602 0 .9-.013.142-.039.265.013.413.09.272.2.55.065.842.136.284-.039.563-.032.84.006.273-.02.538.077.803.065.181.078.401.033.59-.104.433-.046.86 0 1.287.045.446.084.886.077 1.333-.006.323-.032.673.078 1.003.052.168.11.381.058.53-.13.337 0 .64.052.951.039.214.026.42.013.64-.033.383-.117.77.045 1.16.097.226.11.484.078.743a4.477 4.477 0 0 0 0 .977c.038.408-.072.835.136 1.223.013.033.019.072.013.104-.13.466.09.932.012 1.398a.345.345 0 0 0 .013.161c.156.382.117.783.091 1.178-.013.194-.052.388.026.582a.48.48 0 0 1 .013.272c-.104.556.026 1.113.026 1.67 0 .161.026.323.058.478.045.253.09.498-.065.731-.078.11-.032.24.013.363.058.149.123.304.13.46.019.633-.007 1.267.271 1.837-.09.103-.149.168-.207.233 0 .032-.006.077.013.097.117.136.252.259.162.472-.032.071.006.175.02.266.012.07.058.148.038.213-.142.42.045.815.058 1.23.007.142.04.284.059.426.026.195.07.389.084.59.051.828.09 1.65.142 2.478.013.18.026.368.09.53a.975.975 0 0 1-.012.75l.155.214a.376.376 0 0 1 .058.408c-.136.297-.116.595.007.893a.703.703 0 0 1-.007.582c-.142.278-.07.486.175.654-.039.297-.09.582.045.86.052.104.026.253-.006.376-.071.297-.032.576.09.847a.92.92 0 0 1 .072.473.794.794 0 0 0 .11.459c.136.246.077.53.013.796-.046.168-.026.304.006.466.058.297.071.608.065.919-.013.563-.033 1.119.058 1.675.039.233-.052.499-.11.745a.6.6 0 0 0-.013.304c.123.466.226.944.11 1.43-.013.064.02.136.032.2.046.246.097.492.136.744a.29.29 0 0 1-.026.15c-.161.297-.123.588 0 .88.104.239.123.485.117.743-.007.266-.136.53 0 .796.026.046-.026.136-.046.207-.012.052-.051.13-.038.15.246.226.058.51.103.763.02.09.02.18.052.265.149.382.188.77.136 1.171-.052.35.058.667.175.99.026.065.051.142.038.2-.116.46-.019.913.007 1.379.032.498.213.984.123 1.488-.007.046.02.104.045.149.11.2.117.401.084.628-.026.187.04.388.065.589.02.142.071.297.032.427-.097.355-.058.698.046 1.048.026.084-.007.181 0 .272.019.194.026.394.07.582.046.194.033.356-.103.472.007.071.007.11.02.143.226.388.317.776.213 1.235-.09.408.032.829.097 1.236.02.104.04.214.045.317.007.253.007.505 0 .757-.006.415-.116.783-.517 1.049-.155-.046-.324-.091-.473-.136-.064-.123-.096-.233-.161-.311-.117-.136-.136-.284-.143-.453-.006-.161-.013-.33-.058-.479-.065-.213-.13-.414.013-.621.026-.039-.006-.136-.02-.2a3.162 3.162 0 0 1-.096-1.074c.006-.143.058-.292-.117-.376-.026-.013-.045-.064-.045-.09.09-.486-.207-.958-.026-1.443-.032-.304-.071-.608-.104-.906a9.046 9.046 0 0 1-.045-.589c-.006-.362 0-.725 0-1.087 0-.11-.032-.214-.045-.324-.032-.265-.149-.517-.052-.795.032-.098-.045-.24-.078-.356-.032-.117-.084-.233-.129-.363.117-.084.207-.155.33-.24-.123-.077-.22-.141-.317-.206-.058-.356-.11-.712-.162-1.061 0-.02-.013-.046-.006-.052.226-.317.032-.615-.013-.925-.046-.317.032-.647-.065-.97-.058-.202.136-.312.259-.467-.078-.084-.136-.142-.188-.207-.038-.052-.097-.11-.103-.168-.039-.408-.13-.809-.2-1.21-.072-.382-.007-.79.012-1.19.007-.162.084-.318-.058-.46-.007-.447-.162-.874-.09-1.34.051-.343-.053-.711-.085-1.074-.013-.161-.078-.323.032-.472.085.045.162.097.246.149.033-.045.052-.058.052-.071-.006-.052-.013-.104-.032-.15-.013-.019-.065-.038-.09-.025-.11-.007-.169.039-.227.078Zm-1.566-40.92c-.104-.078-.155-.156-.227-.175-.11-.02-.2.084-.207.194 0 .097.084.207.156.175.09-.026.161-.104.278-.194Zm3.022 47.662c-.104-.071-.169-.123-.246-.162-.071-.039-.143-.02-.169.058-.012.04.014.117.046.136.11.052.213.136.369-.032Zm-3.514-52.696c-.058.064-.116.096-.123.129-.006.103.058.168.162.175.032 0 .11-.072.103-.084a1.135 1.135 0 0 0-.142-.22Zm1.204 25.506c-.059.059-.097.091-.13.124.045.045.084.096.136.122.02.007.11-.064.104-.084-.02-.052-.065-.097-.11-.162Zm-.337-5.875c-.006-.013-.013-.032-.026-.045-.07-.071-.149-.084-.22 0-.013.02-.013.071 0 .09.072.072.15.072.22 0 .013-.012.02-.032.026-.045Zm2.161 33.576c-.038-.045-.064-.103-.097-.11-.084-.02-.123.052-.11.123.007.032.065.084.097.084.033-.006.065-.058.11-.097Zm-.09-2.226c-.026.065-.039.104-.052.143.039.012.084.032.123.038.013 0 .045-.058.039-.07-.02-.04-.058-.066-.11-.11Zm-2.13-30.813c-.129-.077-.174-.123-.2-.11-.032.013-.058.065-.084.104.033.026.071.071.11.071.04 0 .084-.032.175-.065Zm-.99-18.24c-.057.038-.122.064-.122.097 0 .039.039.103.078.11.032.006.097-.033.116-.071.007-.026-.039-.078-.071-.136Zm.512-6.86c-.032-.012-.065-.032-.09-.025-.02.006-.026.052-.046.078.026.013.065.038.084.026.026-.007.04-.052.052-.078Zm.2 24.097.02-.026-.026-.006.007.032ZM39.613 6.735c.142-.504.246-1.022.498-1.482.33-.62.835-1.125 1.21-1.72.33-.175.53-.486.79-.732.142-.136.304-.259.478-.35.434-.22.88-.413 1.327-.608.149-.064.31-.09.46-.142.168-.058.336-.123.504-.188.065-.025.162-.09.2-.064.272.168.473-.026.706-.097.084-.026.181-.007.265 0 .2.013.395.02.576-.097.058-.033.149-.065.2-.046.227.097.421.02.622-.077a.286.286 0 0 1 .207 0c.246.103.492.07.75.058.175-.007.356.039.531.065.104.013.207.026.31.051.085.02.201.026.246.085.156.213.389.226.615.278.143.032.278.084.414.116.22.058.434.143.66.194.2.046.389.182.602.227.24.052.414.297.692.233.117.11.253.207.35.336.2.253.375.53.712.634.161.246.42.382.647.557.07.052.136.142.213.155.298.058.414.324.595.505.188.181.317.44.453.673.052.09.072.2.11.297.026.065.026.156.078.195.414.31.414.757.42 1.203.007.233 0 .46.098.686.103.246.148.518.187.783.026.175.02.369-.026.537a.673.673 0 0 0-.006.408c.052.161.032.355.006.53-.07.427-.155.854-.103 1.294.032.26-.142.473-.11.738.032.24-.149.433-.265.64-.052.098-.084.201-.123.298-.026.065-.033.149-.072.2-.161.234-.362.447-.498.693-.142.259-.31.479-.53.673-.188.168-.343.369-.518.544-.388.375-.77.757-1.178 1.113-.168.148-.394.245-.595.349-.142.078-.31.116-.44.2-.246.162-.498.285-.796.324a.841.841 0 0 0-.297.116c-.207.123-.427.156-.667.182-.246.026-.479.149-.712.233-.084.026-.18.09-.252.07-.518-.122-1.035 0-1.553-.006-.123 0-.246-.038-.369-.064-.246-.046-.492-.123-.737-.13-.518-.02-.732-.058-1.165-.297-.078-.046-.162-.104-.246-.104-.298-.013-.492-.213-.699-.382-.194-.155-.382-.343-.653-.362-.123-.007-.181-.097-.233-.2-.078-.162-.207-.253-.389-.246-.142.006-.226-.091-.323-.175-.259-.246-.511-.511-.802-.718a2.234 2.234 0 0 1-.686-.751c-.175-.324-.46-.556-.718-.802a1.976 1.976 0 0 1-.486-.641c-.142-.324-.356-.608-.53-.919-.117-.207-.033-.427-.143-.621-.103-.188-.213-.388-.246-.595-.058-.408-.064-.829-.084-1.243 0-.051.013-.11.046-.155.161-.265.161-.556.135-.841a1.54 1.54 0 0 1 .22-.984c.059-.097.117-.194.033-.297-.136-.169.013-.26.097-.37.02.072.026.15.065.201.032.046.11.059.174.078.007 0 .039-.026.033-.039-.02-.058-.033-.136-.078-.174-.058-.013-.136-.02-.207-.033Zm13.77-1.792c-.33.078-.473-.162-.635-.343-.162-.188-.278-.42-.576-.434-.045 0-.103-.051-.123-.097-.136-.284-.44-.362-.653-.563-.149-.142-.363-.22-.589-.252-.33-.058-.647-.181-.983-.252-.305-.065-.59-.188-.88-.24-.512-.09-1.042-.11-1.566-.149-.233-.012-.473.007-.706.007-.323 0-.647-.039-.938.162-.052.039-.136.039-.214.045-.873.078-1.604.518-2.329.945-.2.116-.382.278-.556.433-.104.09-.194.214-.266.33-.24.382-.433.796-.711 1.146a1.96 1.96 0 0 0-.376.763c-.168.68-.284 1.372-.498 2.038-.149.466-.084.945-.02 1.398.059.414.26.815.408 1.216.078.207.084.415.097.55.143.182.272.292.337.434.11.252.291.453.446.673.15.213.427.343.427.653 0 .026.04.059.072.078.258.226.453.518.776.673.13.058.233.168.343.265.213.194.395.408.712.466.155.026.278.22.433.304.156.084.343-.02.524.09.26.156.55.253.835.376.13-.064.259-.116.401-.013.117.084.24.15.356.214.13-.071.233-.13.317-.175.188.058.363.168.492.136.252-.058.472.026.692.065.266.045.505.006.744-.052.156-.039.285-.162.46-.071.02.006.078-.02.084-.04.078-.252.246-.135.369-.103.116-.123.207-.271.343-.349.18-.11.388-.188.595-.24.57-.142 1.048-.485 1.572-.711a.24.24 0 0 0 .11-.117c.194-.356.53-.51.893-.647a.55.55 0 0 0 .246-.194c.156-.22.252-.492.44-.68.214-.206.227-.478.35-.717.226-.44.33-.906.336-1.405 0-.239.02-.491.058-.724.026-.15.04-.279-.006-.42a1.058 1.058 0 0 1-.058-.318 7.352 7.352 0 0 0-.143-1.508c-.026-.136-.09-.278.033-.407.019-.02.013-.11-.02-.136-.188-.162-.136-.434-.304-.608-.155-.169-.233-.408-.382-.59-.142-.18-.29-.407-.492-.485-.194-.09-.206-.22-.278-.42Zm-5.449-2.847c-.026-.039-.052-.084-.084-.117-.013-.006-.065.013-.078.033-.038.064.007.142.084.136.02 0 .046-.033.078-.052ZM187.731 13.724h-.291c.026.097.051.174.077.258-.013.033-.019.078-.045.098-.421.336-.783.73-1.178 1.086-.142.13-.31.24-.472.356-.084.065-.188.117-.259.194-.213.24-.498.395-.789.46-.369.084-.686.31-1.074.33-.149.006-.291.136-.44.188-.11.038-.156-.052-.181-.175-.052.078-.078.181-.13.194-.505.155-.951.543-1.527.401-.446.071-.899 0-1.352.09-.253.046-.531-.058-.796-.103-.162-.026-.317-.103-.473-.103-.226 0-.427-.04-.621-.162a.354.354 0 0 0-.149-.058c-.355.006-.588-.194-.834-.427a6.073 6.073 0 0 0-.854-.66c-.33-.214-.492-.473-.369-.829-.091-.136-.181-.103-.265-.077-.123.045-.214-.013-.285-.097-.071-.084-.117-.181-.175-.272-.22-.33-.427-.667-.757-.912a1.036 1.036 0 0 1-.323-.486c-.11-.323-.272-.62-.428-.918-.226-.447-.459-.9-.569-1.398-.013-.052-.019-.11-.052-.155-.149-.233-.181-.486-.22-.758-.039-.252-.077-.491-.058-.75.007-.104-.039-.214-.065-.317-.064-.259-.136-.518-.2-.79.123-.045.22-.077.304-.11.039-.155-.045-.213-.155-.258-.207-.085-.246-.24-.214-.44.026-.162.045-.324.039-.486a.833.833 0 0 1 .103-.466c.13-.226.195-.459.097-.724-.025-.065.033-.169.065-.246.104-.227.246-.44.188-.718-.013-.059.032-.15.077-.195.182-.168.337-.381.609-.427 0-.116-.143-.226-.013-.343.407-.349.679-.854 1.216-1.054a.38.38 0 0 0 .13-.097c.226-.194.407-.466.763-.447.272-.278.647-.394.984-.57.537-.284 1.087-.562 1.714-.607.039 0 .078.006.11-.007.609-.323 1.269-.136 1.909-.194.343-.032.712.065 1.055.149.272.065.556.103.802.259.071.045.175.038.266.045.233.02.44.058.64.233.194.168.466.285.725.343.53.123.938.446 1.352.763a7.383 7.383 0 0 1 1.495 1.482c.052.071.149.136.162.214.071.381.336.627.55.912.2.272.369.57.543.854.007.013.033.032.026.045-.149.33.168.518.233.777.052.207.155.401.233.602.019.051.058.103.052.148-.097.512.22.932.33 1.418-.065.122-.136.265-.22.427.136.33.213.679.097 1.041-.013.052-.039.117-.026.156.129.323-.065.634-.013.957a.52.52 0 0 1-.104.356c-.213.285-.297.615-.394.945-.11.388-.272.75-.576 1.055Zm-6.186-11.9c-.233.162-.459.162-.699.117a2.13 2.13 0 0 0-.537-.046c-.369.026-.731.188-1.113.09-.045-.012-.11.02-.149.053-.155.123-.343.116-.517.103a.895.895 0 0 0-.654.207c-.336.279-.744.434-1.126.64-.576.311-1.236.531-1.579 1.166-.032.058-.122.07-.174.123-.162.168-.343.33-.466.524-.175.29-.291.614-.531.867-.032.343-.071.68-.103 1.022-.007.071-.039.142-.039.207-.007.084-.019.188.019.259.136.252.097.524.11.79.007.18-.026.381.046.53.174.369.304.731.278 1.139-.007.052.026.103.039.155l.369 1.068c.071.2.213.42.187.608-.039.291.22.35.291.537.026.065.039.142.072.207.045.097.097.194.161.278.188.24.447.447.563.719.123.284.427.44.486.757.012.058.09.11.142.161.272.24.543.473.809.719.252.232.485.485.834.582.085.026.182.071.227.142.162.246.433.24.666.304.194.052.389-.045.583-.058.207-.013.42.117.634.045.233-.084.459-.064.692-.013.311.072.608.059.887-.129a.919.919 0 0 1 .459-.149c.136-.006.298-.052.395-.142.181-.155.388-.168.602-.2.355-.059.711-.143 1.009-.344.311-.213.576-.485.867-.73.071-.059.129-.15.207-.175.311-.104.466-.389.705-.576.246-.188.389-.46.609-.667.071-.071.103-.188.135-.291.091-.317.085-.323.363-.42-.058-.305-.052-.305.039-.667.045-.175.084-.356.084-.53 0-.324-.052-.648-.033-.971.013-.337.013-.667-.006-1.01a2.924 2.924 0 0 0-.233-.996c-.065-.162-.136-.278-.026-.447.026-.038-.006-.148-.052-.18a.37.37 0 0 1-.148-.273.736.736 0 0 0-.098-.304c-.368-.64-.698-1.3-1.125-1.908-.104-.143-.123-.35-.233-.48-.292-.33-.544-.705-.997-.86a2.474 2.474 0 0 1-.627-.317c-.318-.22-.628-.427-1.016-.479-.033-.006-.084-.013-.097-.032-.22-.278-.57-.291-.861-.414-.155-.04-.214-.15-.33-.31Zm-7.008 9.531c.013.007.026.013.039.013.007 0 .007-.02.013-.032-.013-.007-.026-.013-.039-.013-.006 0-.013.02-.013.032Zm5.436 5.112.006-.032-.032.013.026.02Zm8.308-4.775c.013.006.026.013.045.02-.006-.02-.019-.04-.026-.059l-.019.039Zm-10.696 3.675-.006.039.045-.02-.039-.019ZM174.9 25.202c.052-.213.097-.395.155-.62.097-.053.24-.13.382-.201a.602.602 0 0 1 .414-.059c.168.033.369.02.531-.032.511-.175 1.035-.097 1.553-.155.123-.013.252.097.427.168.032-.052.084-.13.123-.188.414-.02.802.117 1.19 0 .078-.02.175.033.265.046.072.006.156.019.208-.014.129-.09.252-.096.407-.064.097.02.207-.045.311-.065.103-.026.226-.09.31-.058.246.097.466.02.686-.045.298-.084.602-.084.906-.084.427-.007.867.032 1.288-.104.052-.02.123-.039.155-.013.246.142.485.02.731 0 .11-.006.22-.039.324-.02.446.104.893-.045 1.339.059.33-.11.608.045.867.2.272.162.537.363.764.59.2.193.246.472.2.75-.207.136-.207.136-.343.395-.679.258-1.371.097-2.135.025-.077.033-.226.098-.388.136-.097.026-.227.046-.311.007-.181-.09-.356-.046-.53-.013-.272.045-.531.09-.796-.026a.447.447 0 0 0-.317-.013c-.227.09-.479-.026-.68.052-.233.09-.466.013-.692.077a.764.764 0 0 1-.272.013c-.796-.039-1.585.033-2.381.007-.142-.007-.298-.013-.427-.058-.375-.13-.731-.136-1.1.019-.11.045-.272.071-.362.026-.156-.084-.279-.143-.44-.026-.039.026-.13-.013-.201-.032-.052-.013-.116-.072-.142-.052-.298.162-.602.02-.9.039-.414.032-.737-.13-.977-.473-.045-.084-.11-.149-.142-.194Zm5.7.37c0-.014.007-.033.007-.046-.019.006-.039.006-.058.013.006.013.006.032.019.045 0-.006.02-.013.032-.013Zm3.022-1.496c.033.013.059.026.091.033.006 0 .019-.02.032-.033-.019-.019-.039-.045-.065-.045-.012-.006-.038.026-.058.045ZM194.59 135.927c.285-.31.285-.304.679-.252.285.039.55.129.848.116.194-.006.421.123.589.253.304.239.647.388 1.003.459.162.278.064.699.537.699 0 .356.006.66-.007.964a.5.5 0 0 1-.116.291c-.13.149-.259.324-.427.408-.382.194-.731.459-1.158.576-.175.045-.33.136-.512.039-.051-.026-.135.013-.2.019-.214.019-.427.065-.641.045-.155-.013-.297-.123-.433.065-.033.039-.175.026-.253 0-.265-.078-.524-.11-.796-.006-.09.032-.207.013-.31 0-.285-.052-.557-.11-.854-.084-.55.045-1.029-.188-1.456-.499-.136-.097-.22-.278-.324-.42-.051-.072-.09-.143-.136-.22-.025-.046-.077-.091-.071-.136.052-.453-.019-.945.317-1.327.072-.084.136-.2.227-.226.285-.091.505-.285.757-.414a.924.924 0 0 1 .414-.117c.226-.006.414-.071.608-.194.149-.097.317-.162.518-.103.09.025.207-.033.31-.052l.583-.117c.168-.026.233.11.304.233ZM45.424 24.27c.233-.07.11-.232.123-.355.032-.02.07-.058.09-.052.362.142.731.168 1.12.123a.774.774 0 0 1 .323.02c.46.161.925.058 1.391.032.207-.013.401-.052.628.045.233.097.53.052.796.065.271.006.53 0 .796.097.226.084.498.071.744.064.213-.006.427-.064.608.098.013.012.039.019.052.012.336-.116.666.007 1.003.013.2 0 .394.013.589.04.232.025.472 0 .698.032.337.045.673.09 1.016.09.168 0 .363.065.498.162.188.123.421.2.557.453-.09.039-.162.058-.214.097-.051.039-.116.104-.11.149.013.084.097.084.169.045.013-.006.032-.02.045-.026.136-.032.213.046.181.162a.624.624 0 0 1-.343.414 4.87 4.87 0 0 1-.265-.2c-.071.11-.142.206-.227.33-.07-.02-.155-.046-.239-.065-.168-.045-.337-.13-.511-.136-.156-.007-.317.078-.473.084-.213.007-.44.02-.64-.039a3.156 3.156 0 0 0-1.074-.09c-.414.025-.822.019-1.236-.098-.227-.064-.498-.012-.738.046-.24.058-.492.084-.692-.02-.317-.161-.628-.11-.951-.097-.466.02-.932.02-1.398-.064-.052-.007-.116-.046-.155-.033-.298.13-.608.04-.913.059-.174.012-.355.038-.53-.065a.233.233 0 0 0-.207-.007c-.15.072-.272.052-.414-.013a.467.467 0 0 0-.214-.012c-.336.032-.68.07-1.016.103-.33.032-.647-.065-.957-.149-.208-.058-.402-.142-.609-.2-.174-.046-.31-.227-.46-.337-.077-.744-.083-.744.59-.99.097-.039.207-.045.317-.058.427-.039.86-.026 1.281-.123.213-.052.576.11.822.31.07.04.123.065.149.085Zm-1.049.279c.02.02.04.032.059.052.006-.013.025-.033.025-.033-.019-.02-.038-.032-.058-.051a.115.115 0 0 0-.026.032Zm5.908.97c-.02.02-.032.046-.052.065.013.007.026.026.039.02.026-.007.045-.026.071-.033a.423.423 0 0 1-.058-.052ZM41.78 19.877c.123-.226.279-.355.57-.284.188.045.388-.007.582-.033.31-.038.667-.032.945.13.407.233.828.162 1.255.148.11-.006.22-.051.317-.032.356.065.712.097 1.068-.013.032-.013.071-.006.11 0 .479.078.964.143 1.443.233.149.026.272.046.42-.026.11-.052.26-.09.363-.052.395.15.809.085 1.21.136.317.04.647 0 .97.013.194.007.395.026.59.072.265.058.53.11.802.012.084-.032.187-.051.265-.032.55.175 1.12.09 1.67.09.368 0 .711.091 1.06.175.466.11.59.732.253 1.074-.233.24-.498.356-.829.233-.29-.103-.608-.032-.899-.168-.071-.039-.213.02-.304.071-.155.091-.31.098-.472.085-.285-.026-.57-.052-.848-.11-.155-.033-.272-.026-.408.058a.361.361 0 0 1-.258.045c-.531-.116-1.062-.09-1.592-.071a.343.343 0 0 1-.194-.058c-.059-.046-.104-.104-.181-.052-.15.11-.318.071-.473.052-.233-.033-.46-.046-.692.032-.188.065-.382.11-.576-.006-.052-.033-.136.006-.207.006-.343-.006-.68.045-1.023-.052a.551.551 0 0 0-.271-.013c-.253.052-.498.013-.75-.006-.376-.026-.758.006-1.133-.032a17.866 17.866 0 0 1-1.43-.253 3.387 3.387 0 0 1-.621-.168c-.453-.175-.732-.511-.893-1.01.045-.051.11-.135.174-.213.007.052.007.11.026.149.02.032.071.077.11.07.033-.006.065-.057.097-.09-.032-.032-.058-.07-.097-.084-.045-.02-.097-.02-.149-.026ZM186.087 19.58l.02.297c.265.078.427-.174.685-.22.259.072.557.15.822.31.395.24.434.564.117.887-.376.382-.893.466-1.385.227-.065-.032-.123-.065-.194-.104-.175.207-.337.401-.641.266-.058-.026-.142.006-.207.019-.246.045-.491.097-.75.078-.091-.007-.194-.013-.266.032-.181.11-.349.084-.511-.02-.155-.09-.291-.07-.459-.032-.337.065-.686.046-1.023.104-.271.052-.53.071-.795 0-.033-.007-.078-.02-.104-.007-.291.143-.563.058-.841-.032-.071-.026-.168.013-.253.026-.071.013-.148.052-.2.032-.149-.065-.278-.039-.414.026-.045.02-.11.026-.162.02-.162-.02-.317-.065-.479-.059-.155.007-.31.09-.472.097-.304.013-.621.097-.848-.168-.116.052-.181.084-.246.116-.394.227-.789.208-1.184-.006a1.164 1.164 0 0 0-.725-.155c-.271.032-.478-.143-.627-.363-.091-.129-.149-.284-.233-.44.188-.245.362-.504.744-.42.045.006.104-.026.149-.046.369-.161.725-.18 1.068.104.213-.24.478-.252.757-.252.323 0 .653.02.951-.15.039-.025.11-.025.155-.006.388.162.77-.026 1.158 0 .156.013.317-.026.479 0 .142.02.291.02.434.013.465-.032.931-.064 1.397-.11.376-.038.738-.09 1.126-.006.227.052.492-.065.731-.13a.841.841 0 0 1 .576.026c.162.065.369.11.524.065.369-.09.725-.058 1.126-.02ZM162.062 141.485l.149-.537c.013-.051.026-.123.065-.142.433-.272.666-.828 1.255-.88.226-.181.498-.207.77-.175.259.033.446-.116.653-.22.091.02.188.033.266.065.155.071.31.078.472.026.479-.149.919-.033 1.352.181.563.278.783.44 1.165.971-.019.064-.039.148-.065.245.084.059.169.117.253.182.09.297.123.588.006.886a.785.785 0 0 1-.239.35 5.734 5.734 0 0 0-.479.42c-.175.13-.427-.032-.589.188-.129.181-.414.071-.569.272-.071.09-.259.116-.395.129-.194.019-.395-.007-.595-.013-.227-.013-.44-.071-.686 0-.33.097-.634-.058-.828-.369-.149-.019-.292.11-.46-.013-.2-.142-.459-.207-.66-.356-.233-.168-.446-.362-.556-.647-.071-.181-.175-.349-.285-.563ZM64 138.205c-.077.039-.148.071-.24.116.04.104.072.201.11.298-.096.194-.258.291-.504.401a9.279 9.279 0 0 0-.24-.285c-.07.253-.232.421-.49.518-.299.116-.622.188-.868.421a.298.298 0 0 1-.252.051c-.26-.09-.511-.006-.744.052-.486.136-.958.11-1.443.032-.098-.019-.208.013-.337.02-.136-.097-.297-.207-.453-.33-.42-.337-.466-.958-.071-1.32.259-.24.492-.544.886-.576.499-.252 1.049-.349 1.56-.557a.44.44 0 0 1 .259-.012c.174.038.343.103.517-.026.033-.026.13.026.195.038.064.013.155.046.2.02.142-.091.272-.039.414-.026.33.032.621.188.912.33.35.155.557.434.59.835Zm-2.801-.499c.013-.012.032-.025.032-.032-.007-.026-.026-.052-.039-.078-.013.026-.026.052-.032.078 0 .013.026.026.039.032ZM92.031 112.808c-.2 0-.395.006-.595 0-.052 0-.117-.02-.143-.058-.084-.13-.194-.136-.33-.11-.24.051-.355-.091-.465-.279-.175-.297-.195-.621-.162-.938a.765.765 0 0 1 .595-.699c.447-.123.874-.317 1.34-.375.388-.052.75.019 1.106.149.168.065.31.181.375.362.039.097.104.188.162.278.168.272.168.395-.007.635a.304.304 0 0 1-.064.084c-.279.252-.57.491-.848.744a.746.746 0 0 1-.647.2c-.097-.006-.207.007-.317.007ZM177.449 150.577c-.097-.246-.343-.149-.524-.214-.019-.026-.051-.052-.071-.077-.09-.149-.285-.272-.252-.466.039-.207.142-.401.233-.596.026-.058.097-.11.155-.142.479-.285 1.016-.356 1.559-.362.104 0 .201.077.305.103.135.039.278.084.414.091.446.019.64.175.731.608.026.123.058.239.09.362-.336.447-.724.751-1.3.822-.214.026-.401.11-.615-.013-.097-.058-.246-.019-.369-.039-.116-.013-.239-.051-.356-.077ZM80.267 126.771c-.045.149-.123.266-.097.311.15.252.026.336-.187.433-.395.175-.777.376-1.23.343-.032 0-.077-.006-.103.007-.576.31-1.107.084-1.637-.149-.052-.019-.097-.052-.143-.078-.013-.006-.02-.026-.052-.064-.006-.363.195-.68.305-1.036.123.007.213.026.297.013.175-.026.37-.032.511-.123.596-.375 1.21-.265 1.819-.077.194.071.336.271.517.42Z" fill="#000"/><path d="M177.449 150.576c-.052 0-.097.007-.149.007-.039 0-.077-.007-.103-.071.084.026.168.045.252.064ZM189.446 76.508c-.046-.072-.123-.15 0-.22l-.007-.007c0 .078 0 .155-.006.233l.013-.006Z" fill="#000"/></svg>