<svg width="23" height="24" viewBox="0 0 23 24" fill="none" xmlns="http://www.w3.org/2000/svg">
<g clip-path="url(#clip0_275_15905)">
<mask id="mask0_275_15905" style="mask-type:luminance" maskUnits="userSpaceOnUse" x="1" y="0" width="22" height="24">
<path d="M22.0007 0H1.00073V24H22.0007V0Z" fill="white"/>
</mask>
<g mask="url(#mask0_275_15905)">
<path d="M11.3511 5.77969C11.398 5.80314 11.4355 5.85939 11.4918 5.85939C11.5433 5.85939 11.623 5.84064 11.6277 5.78907C11.6371 5.72344 11.5386 5.68126 11.4777 5.65314C11.398 5.62032 11.2949 5.60626 11.2199 5.64844C11.2011 5.65782 11.1824 5.68126 11.1918 5.70001C11.2058 5.76094 11.2996 5.75157 11.3511 5.77969ZM10.3246 5.85939C10.3808 5.85939 10.4183 5.80314 10.4652 5.77969C10.5168 5.75157 10.6105 5.76094 10.6293 5.70469C10.6386 5.68594 10.6199 5.66251 10.6011 5.65314C10.5261 5.61094 10.423 5.62501 10.3433 5.65782C10.2824 5.68594 10.1839 5.72814 10.1933 5.79376C10.198 5.84064 10.2777 5.86407 10.3246 5.85939ZM20.6886 18.9282C20.5198 18.7407 20.4402 18.3844 20.3511 18.0046C20.2668 17.625 20.1682 17.2171 19.8589 16.9546C19.798 16.9032 19.737 16.8562 19.6714 16.8187C19.6105 16.7812 19.5449 16.7484 19.4793 16.725C19.9106 15.4453 19.7418 14.1703 19.3057 13.0172C18.7715 11.6063 17.8386 10.3734 17.1261 9.52969C16.3245 8.52189 15.5465 7.56564 15.5606 6.15469C15.584 4.00314 15.7995 0.00470106 12.0074 1.3555e-05C7.20738 -0.00936144 8.40738 4.84689 8.35581 6.33751C8.27613 7.43439 8.05581 8.29689 7.30113 9.37032C6.41519 10.425 5.16831 12.1266 4.57769 13.9031C4.29644 14.7422 4.16519 15.5953 4.28706 16.4016C3.98238 16.6734 3.75269 17.0907 3.50894 17.3484C3.31206 17.55 3.02613 17.625 2.71206 17.7375C2.39801 17.85 2.05581 18.0187 1.84488 18.4171C1.74644 18.6 1.71363 18.7969 1.71363 18.9984C1.71363 19.1812 1.74176 19.3687 1.76988 19.5516C1.82613 19.9312 1.88706 20.2875 1.80738 20.5266C1.56363 21.2016 1.53081 21.6703 1.70426 22.0125C1.88238 22.3546 2.23863 22.5046 2.64644 22.5891C3.45738 22.7578 4.55894 22.7157 5.42613 23.175C6.35426 23.6625 7.29644 23.8359 8.04644 23.6625C8.59019 23.5407 9.0355 23.2125 9.2605 22.7157C9.84643 22.7109 10.4933 22.4625 11.5246 22.4062C12.223 22.35 13.0996 22.6546 14.1074 22.5984C14.1355 22.7062 14.173 22.8141 14.2246 22.9125V22.9171C14.6136 23.7 15.3402 24.0562 16.1136 23.9953C16.8918 23.9344 17.712 23.4796 18.3777 22.6875C19.0152 21.9187 20.0652 21.6 20.7636 21.1782C21.1105 20.9671 21.3918 20.7046 21.4152 20.3203C21.434 19.9359 21.209 19.5094 20.6886 18.9282ZM11.4871 4.0922C11.9464 3.05157 13.0902 3.07032 13.5496 4.07344C13.8543 4.73907 13.7183 5.52189 13.348 5.96719C13.273 5.92969 13.0714 5.84532 12.7574 5.73751C12.8089 5.68126 12.9027 5.61094 12.9402 5.52189C13.1652 4.96876 12.9308 4.25626 12.5136 4.24219C12.1714 4.21876 11.8621 4.74844 11.9605 5.32032C11.7683 5.22657 11.5199 5.15626 11.3511 5.11407C11.3043 4.79064 11.3371 4.42969 11.4871 4.0922ZM9.57926 3.55314C10.0527 3.55314 10.5543 4.21876 10.4746 5.12344C10.3105 5.17032 10.1418 5.24064 9.99644 5.33907C10.0527 4.92189 9.84176 4.39689 9.54644 4.42032C9.15269 4.45314 9.08706 5.41407 9.46206 5.73751C9.50894 5.77501 9.55113 5.72814 9.18551 5.99532C8.45426 5.31094 8.69331 3.55314 9.57926 3.55314ZM8.94176 6.39844C9.23238 6.18282 9.57926 5.92969 9.60268 5.90626C9.82301 5.70001 10.2355 5.24064 10.9105 5.24064C11.2433 5.24064 11.6418 5.34844 12.1246 5.65782C12.4199 5.85001 12.6543 5.86407 13.1839 6.09376C13.5777 6.25782 13.8261 6.54844 13.6761 6.94689C13.5543 7.27969 13.1605 7.62189 12.6121 7.79532C12.0918 7.96407 11.6839 8.54532 10.8214 8.49376C10.6386 8.48439 10.4933 8.44689 10.3714 8.39532C9.99644 8.23126 9.79956 7.90782 9.43394 7.69219C9.03081 7.46719 8.81519 7.20469 8.74488 6.97501C8.67926 6.74532 8.74488 6.55314 8.94176 6.39844ZM9.09644 22.0546C8.96988 23.7 7.03863 23.6671 5.56676 22.8984C4.16519 22.1578 2.35113 22.5937 1.98081 21.8719C1.86831 21.6516 1.86831 21.2766 2.10269 20.6344V20.625C2.21519 20.2687 2.13081 19.875 2.07456 19.5046C2.01831 19.1391 1.99019 18.8016 2.11676 18.5671C2.28081 18.2532 2.51519 18.1407 2.81051 18.0375C3.29331 17.8641 3.36363 17.8782 3.72926 17.5734C3.98706 17.3062 4.17456 16.9687 4.39956 16.7296C4.63863 16.4719 4.86831 16.35 5.22926 16.4062C5.60894 16.4625 5.93706 16.725 6.25581 17.1562L7.17456 18.825C7.61988 19.7578 9.19488 21.0937 9.09644 22.0546ZM9.03081 20.8407C8.83863 20.5312 8.58081 20.2032 8.35581 19.9219C8.68863 19.9219 9.02144 19.8187 9.13863 19.5046C9.24644 19.2141 9.13863 18.8062 8.79175 18.3375C8.15894 17.4844 6.99644 16.8141 6.99644 16.8141C6.36363 16.4203 6.00738 15.9375 5.84331 15.4125C5.67926 14.8875 5.70269 14.3203 5.82926 13.7625C6.07301 12.6891 6.70113 11.6438 7.10426 10.9875C7.21206 10.9078 7.14176 11.1375 6.69644 11.9625C6.29801 12.7172 5.55269 14.4609 6.57456 15.825C6.60269 14.8547 6.83238 13.8656 7.22144 12.9422C7.78394 11.6578 8.96988 9.43126 9.06363 7.65939C9.11518 7.69689 9.27925 7.80939 9.35425 7.85157C9.56988 7.97814 9.73394 8.16564 9.94488 8.33439C10.5261 8.80314 11.2808 8.76564 11.9324 8.39064C12.223 8.22657 12.4574 8.03907 12.6777 7.96876C13.1418 7.82344 13.5121 7.56564 13.723 7.26564C14.0839 8.69064 14.9277 10.7484 15.4668 11.7516C15.7527 12.2859 16.3245 13.4156 16.5731 14.7797C16.7277 14.775 16.9011 14.7984 17.084 14.8453C17.7308 13.1719 16.5355 11.3672 15.9918 10.8656C15.7715 10.65 15.762 10.5563 15.8699 10.5609C16.4606 11.0859 17.2386 12.1406 17.5199 13.3266C17.6511 13.8703 17.6745 14.4375 17.5386 15C18.3074 15.3187 19.2215 15.8391 18.9777 16.6312C18.8745 16.6266 18.8277 16.6312 18.7808 16.6312C18.9307 16.1578 18.598 15.8062 17.712 15.4078C16.7933 15.0046 16.0245 15.0046 15.9168 15.9937C15.3495 16.1907 15.059 16.6828 14.9136 17.2734C14.7824 17.7984 14.7449 18.4312 14.7074 19.1437C14.6839 19.5046 14.5386 19.9875 14.3886 20.5032C12.8839 21.5766 10.7933 22.0453 9.03081 20.8407ZM21.0964 20.3016C21.0543 21.0891 19.1652 21.2344 18.134 22.4812C17.5152 23.2171 16.7557 23.625 16.0902 23.6766C15.4245 23.7282 14.848 23.4516 14.5105 22.7719C14.2902 22.2516 14.398 21.6891 14.5621 21.0703C14.7355 20.4046 14.9933 19.7203 15.0261 19.1671C15.0636 18.4546 15.1058 17.8312 15.2231 17.3532C15.3448 16.8703 15.5324 16.5469 15.8652 16.3641C15.8793 16.3546 15.8981 16.35 15.912 16.3407C15.9495 16.9594 16.2543 17.5875 16.7933 17.7234C17.384 17.8782 18.2324 17.3719 18.5933 16.9594C19.0152 16.9453 19.3293 16.9171 19.6527 17.1984C20.1168 17.5969 19.9855 18.6187 20.4543 19.1484C20.9511 19.6921 21.1105 20.0625 21.0964 20.3016ZM9.12456 6.97032C9.21831 7.05939 9.34488 7.18126 9.49956 7.30314C9.80894 7.54689 10.2402 7.80001 10.7793 7.80001C11.323 7.80001 11.8339 7.52344 12.2699 7.29376C12.4996 7.17189 12.7808 6.96564 12.9636 6.80626C13.1464 6.64689 13.2402 6.51094 13.1089 6.49689C12.9777 6.48282 12.9871 6.61876 12.8277 6.73594C12.6214 6.88594 12.373 7.08282 12.1761 7.19532C11.8293 7.39219 11.2621 7.67344 10.7746 7.67344C10.2871 7.67344 9.89801 7.44844 9.60738 7.21876C9.46206 7.10157 9.34019 6.98439 9.24644 6.89532C9.17613 6.82969 9.15738 6.67969 9.04488 6.66564C8.97926 6.66094 8.96051 6.83907 9.12456 6.97032Z" fill="#0F111A"/>
</g>
</g>
<defs>
<clipPath id="clip0_275_15905">
<rect width="22.5" height="24" fill="white"/>
</clipPath>
</defs>
</svg>
