<svg width="1000" height="719" fill="none" xmlns="http://www.w3.org/2000/svg"><path fill="url(#a)" d="M0 0h1000v719H0z"/><g filter="url(#b)"><rect x="241" y="210" width="534" height="25" rx="2" fill="#fff"/><rect x="240.5" y="209.5" width="535" height="26" rx="2.5" stroke="#DAE2EA"/></g><path d="M717.07 216.404v12.872h4.334v-1.504h-2.474v-9.864h2.426v-1.504h-4.286Zm12.989 0h-4.28v1.504h2.42v9.864h-2.474v1.504h4.334v-12.872ZM697.01 227.416c.43 0 .772-.341.772-.772a.767.767 0 0 0-.772-.772.767.767 0 0 0-.772.772c0 .431.342.772.772.772ZM702.367 222.342l.395-.678-1.302-.749 1.302-.76-.389-.672-1.255.772.041-1.408h-.86l.041 1.402-1.261-.766-.378.672 1.285.755-1.29.748.377.684 1.267-.772-.047 1.414h.866l-.041-1.414 1.249.772ZM673.596 227.351h1.396l-3.07-8.504h-1.427l-3.07 8.504h1.373l.778-2.298h3.242l.778 2.298Zm-2.417-7.09h.036l1.267 3.731h-2.57l1.267-3.731ZM677.556 227.457c.814 0 1.598-.436 1.957-1.125h.03v1.019h1.22v-4.273c0-1.243-.961-2.039-2.464-2.039-1.532 0-2.487.825-2.558 1.945h1.202c.112-.554.572-.908 1.309-.908.778 0 1.243.413 1.243 1.103v.477l-1.697.1c-1.474.083-2.305.749-2.305 1.833 0 1.114.849 1.868 2.063 1.868Zm.354-1.007c-.684 0-1.132-.354-1.132-.896 0-.531.431-.867 1.191-.92l1.526-.094v.489c0 .808-.695 1.421-1.585 1.421Z" fill="#2B3750"/><path d="M746 210h26.668a2 2 0 0 1 2 2v21a2 2 0 0 1-2 2H746v-25Z" fill="#1C7CD6"/><path d="M758.591 217.167a4.078 4.078 0 0 1 4.087 4.086 3.94 3.94 0 0 1-1.006 2.641l.188.188h.503l3.144 3.144-.943.943-3.144-3.144v-.503l-.188-.188a3.94 3.94 0 0 1-2.641 1.006 4.079 4.079 0 0 1-4.086-4.087 4.078 4.078 0 0 1 4.086-4.086Zm0 1.257a2.818 2.818 0 0 0-2.829 2.829 2.817 2.817 0 0 0 2.829 2.829 2.817 2.817 0 0 0 2.829-2.829 2.817 2.817 0 0 0-2.829-2.829Z" fill="#F2F4F8"/><path d="M259.298 222.353c-.137-1.089-.938-1.753-2.11-1.753-1.44 0-2.28.883-2.28 2.402v.693c0 1.519.84 2.403 2.28 2.403 1.172 0 1.978-.66 2.11-1.739h-.82c-.103.606-.621.992-1.304.992-.923 0-1.436-.625-1.436-1.763v-.479c0-1.137.513-1.767 1.436-1.767.683 0 1.201.39 1.304 1.011h.82Zm3.974 3.745c1.402 0 2.295-.913 2.295-2.344v-.801c0-1.431-.893-2.344-2.295-2.344-1.401 0-2.294.913-2.294 2.344v.801c0 1.431.893 2.344 2.294 2.344Zm0-4.756c.909 0 1.475.644 1.475 1.684v.65c0 1.045-.566 1.684-1.475 1.684-.908 0-1.474-.639-1.474-1.684v-.65c0-1.04.566-1.684 1.474-1.684Zm4.014 4.658h.83v-3.12c0-.903.586-1.514 1.46-1.514.825 0 1.216.449 1.216 1.406V226h.83v-3.438c0-1.269-.625-1.958-1.777-1.958-.806 0-1.411.372-1.695 1.031h-.068v-.933h-.796V226Zm7.446-6.719v1.436h-1.411v.708h1.411v2.998c0 1.103.611 1.601 1.924 1.601.254 0 .899-.024 1.031-.048v-.704c-.142.015-.674.03-.972.03-.747 0-1.153-.313-1.153-.889v-2.988h2.139v-.708h-2.148v-1.436h-.821Zm8.516 5.352c-.146.464-.64.747-1.309.747-.903 0-1.479-.625-1.479-1.597v-.215h3.608v-.517c0-1.533-.81-2.447-2.187-2.447-1.348 0-2.241.918-2.241 2.315v.796c0 1.509.844 2.383 2.299 2.383 1.114 0 1.954-.591 2.115-1.465h-.806Zm-1.372-3.316c.854 0 1.372.611 1.372 1.621h-2.788c0-1.015.532-1.621 1.416-1.621Zm6.143 2.642 1.333 2.041h.961l-1.826-2.686 1.812-2.612h-.933l-1.313 2.007h-.069l-1.318-2.007h-.981l1.831 2.647-1.817 2.651h.918l1.338-2.041h.064Zm5.258-4.678v1.436h-1.411v.708h1.411v2.998c0 1.103.611 1.601 1.924 1.601.254 0 .899-.024 1.03-.048v-.704c-.141.015-.673.03-.971.03-.747 0-1.153-.313-1.153-.889v-2.988h2.139v-.708h-2.148v-1.436h-.821Zm7.085 2.998a.9.9 0 0 0 .884-.903.9.9 0 0 0-.884-.903.9.9 0 0 0-.883.903.9.9 0 0 0 .883.903Zm0 3.75a.897.897 0 0 0 .884-.903c0-.493-.4-.898-.884-.898a.896.896 0 0 0-.883.898c0 .498.4.903.883.903Z" fill="#1C7CD6"/><path d="M306.388 227.987c1.435 0 2.285-.742 2.285-1.987v-5.298h-.82v.82h-.093c-.23-.571-.811-.908-1.577-.908-1.241 0-2.051.879-2.051 2.241v.953c0 1.357.806 2.241 2.031 2.241.772 0 1.358-.337 1.592-.894h.088v.825c0 .85-.513 1.319-1.441 1.319-.708 0-1.24-.288-1.347-.728h-.821c.108.879.928 1.416 2.154 1.416Zm-1.421-4.297v-.727c0-.972.566-1.602 1.445-1.602.874 0 1.436.625 1.436 1.602v.727c0 .977-.562 1.607-1.436 1.607-.879 0-1.445-.635-1.445-1.607ZM315.04 226v-.688h-1.748v-6.69h-2.627v.689h1.797v6.001h-1.812V226h4.39Zm3.867.098c1.402 0 2.295-.913 2.295-2.344v-.801c0-1.431-.893-2.344-2.295-2.344-1.401 0-2.295.913-2.295 2.344v.801c0 1.431.894 2.344 2.295 2.344Zm0-4.756c.908 0 1.475.644 1.475 1.684v.65c0 1.045-.567 1.684-1.475 1.684-.908 0-1.474-.639-1.474-1.684v-.65c0-1.04.566-1.684 1.474-1.684Zm6.514 4.746c1.225 0 2.026-.884 2.026-2.246v-.987c0-1.357-.801-2.241-2.026-2.241-.767 0-1.328.327-1.563.908h-.087v-2.9h-.845V226h.815v-.811h.093c.273.586.83.899 1.587.899Zm-.244-.757c-.869 0-1.426-.625-1.426-1.606v-.762c0-.977.557-1.602 1.426-1.602.879 0 1.435.625 1.435 1.602v.762c0 .976-.556 1.606-1.435 1.606Zm5.556.762c.772 0 1.348-.318 1.602-.884h.083v.796h.791v-3.628c0-1.104-.713-1.738-1.958-1.738-1.084 0-1.904.581-2.002 1.43h.815c.137-.454.567-.713 1.177-.713.738 0 1.143.367 1.143 1.031v.478l-1.455.073c-1.206.064-1.88.621-1.88 1.558 0 .962.674 1.597 1.684 1.597Zm.24-.728c-.669 0-1.084-.342-1.084-.898 0-.552.39-.869 1.132-.904l1.363-.063v.625c0 .708-.611 1.24-1.411 1.24Zm8.794.635v-.688h-1.748v-6.69h-2.627v.689h1.796v6.001h-1.811V226h4.39Zm93.214-5.386c-.756 0-1.308.313-1.586.899h-.088v-.811h-.821v7.085h.845v-2.607h.093c.229.581.791.908 1.557.908 1.226 0 2.027-.884 2.027-2.241v-.987c0-1.362-.801-2.246-2.027-2.246Zm-.239.762c.874 0 1.431.625 1.431 1.602v.761c0 .977-.557 1.607-1.431 1.607s-1.43-.625-1.43-1.607v-.761c0-.977.556-1.602 1.43-1.602Zm8.257-.674h-.83v3.12c0 .904-.586 1.514-1.46 1.514-.825 0-1.216-.449-1.216-1.406v-3.228h-.83v3.438c0 1.269.625 1.958 1.777 1.958.806 0 1.412-.371 1.695-1.031h.068V226h.796v-5.298Zm4.346 5.386c1.225 0 2.026-.884 2.026-2.246v-.987c0-1.357-.801-2.241-2.026-2.241-.767 0-1.328.327-1.563.908h-.088v-2.9h-.844V226h.815v-.811h.093c.273.586.83.899 1.587.899Zm-.244-.757c-.87 0-1.426-.625-1.426-1.606v-.762c0-.977.556-1.602 1.426-1.602.878 0 1.435.625 1.435 1.602v.762c0 .976-.557 1.606-1.435 1.606Zm8.408.669v-.688h-1.748v-6.69h-2.627v.689h1.797v6.001h-1.812V226h4.39Zm3.96-6.597c.39 0 .688-.293.688-.683a.67.67 0 0 0-.688-.679.67.67 0 0 0-.689.679c0 .39.298.683.689.683ZM459.69 226v-.688h-1.752v-4.61h-2.623v.689h1.802v3.921h-1.816V226h4.389Zm6.075-3.647c-.137-1.089-.938-1.753-2.11-1.753-1.44 0-2.28.883-2.28 2.402v.693c0 1.519.84 2.403 2.28 2.403 1.172 0 1.978-.66 2.11-1.739h-.821c-.102.606-.62.992-1.303.992-.923 0-1.436-.625-1.436-1.763v-.479c0-1.137.513-1.767 1.436-1.767.683 0 1.201.39 1.303 1.011h.821Zm40.908 5.634c1.435 0 2.285-.742 2.285-1.987v-5.298h-.82v.82h-.093c-.23-.571-.811-.908-1.577-.908-1.24 0-2.051.879-2.051 2.241v.953c0 1.357.806 2.241 2.031 2.241.772 0 1.358-.337 1.592-.894h.088v.825c0 .85-.513 1.319-1.44 1.319-.709 0-1.241-.288-1.348-.728h-.82c.107.879.927 1.416 2.153 1.416Zm-1.421-4.297v-.727c0-.972.566-1.602 1.445-1.602.874 0 1.436.625 1.436 1.602v.727c0 .977-.562 1.607-1.436 1.607-.879 0-1.445-.635-1.445-1.607Zm7.759 2.408c1.401 0 2.295-.913 2.295-2.344v-.801c0-1.431-.894-2.344-2.295-2.344-1.402 0-2.295.913-2.295 2.344v.801c0 1.431.893 2.344 2.295 2.344Zm0-4.756c.908 0 1.474.644 1.474 1.684v.65c0 1.045-.566 1.684-1.474 1.684s-1.475-.639-1.475-1.684v-.65c0-1.04.567-1.684 1.475-1.684Zm11.826 4.751c.771 0 1.348-.318 1.601-.884h.083v.796h.791v-3.628c0-1.104-.712-1.738-1.958-1.738-1.083 0-1.904.581-2.001 1.43h.815c.137-.454.566-.713 1.177-.713.737 0 1.142.367 1.142 1.031v.478l-1.455.073c-1.206.064-1.88.621-1.88 1.558 0 .962.674 1.597 1.685 1.597Zm.239-.728c-.669 0-1.084-.342-1.084-.898 0-.552.391-.869 1.133-.904l1.362-.063v.625c0 .708-.61 1.24-1.411 1.24Zm8.867-.166h-3.339v-6.245h-.855V226h4.194v-.801Zm3.794.899c1.402 0 2.295-.913 2.295-2.344v-.801c0-1.431-.893-2.344-2.295-2.344-1.401 0-2.295.913-2.295 2.344v.801c0 1.431.894 2.344 2.295 2.344Zm0-4.756c.909 0 1.475.644 1.475 1.684v.65c0 1.045-.566 1.684-1.475 1.684-.908 0-1.474-.639-1.474-1.684v-.65c0-1.04.566-1.684 1.474-1.684Zm4.014 4.658h.83v-3.12c0-.903.586-1.514 1.46-1.514.825 0 1.216.449 1.216 1.406V226h.83v-3.438c0-1.269-.625-1.958-1.777-1.958-.806 0-1.412.372-1.695 1.031h-.068v-.933h-.796V226Zm8.193 1.987c1.436 0 2.285-.742 2.285-1.987v-5.298h-.82v.82h-.093c-.229-.571-.81-.908-1.577-.908-1.24 0-2.051.879-2.051 2.241v.953c0 1.357.806 2.241 2.032 2.241.771 0 1.357-.337 1.592-.894h.087v.825c0 .85-.512 1.319-1.44 1.319-.708 0-1.24-.288-1.348-.728h-.82c.107.879.928 1.416 2.153 1.416Zm-1.421-4.297v-.727c0-.972.567-1.602 1.446-1.602.874 0 1.435.625 1.435 1.602v.727c0 .977-.561 1.607-1.435 1.607-.879 0-1.446-.635-1.446-1.607Zm8.189 2.31v-6.255h2.129v-.791h-5.117v.791h2.129V226h.859Zm5.845-6.597c.39 0 .688-.293.688-.683a.67.67 0 0 0-.688-.679.67.67 0 0 0-.689.679c0 .39.298.683.689.683Zm2.221 6.597v-.688h-1.753v-4.61h-2.622v.689h1.802v3.921h-1.816V226h4.389Zm6.421-3.901c0-.982-.386-1.495-1.123-1.495-.532 0-.957.323-1.094.831h-.087c-.113-.523-.464-.831-.962-.831-.498 0-.879.313-1.011.845h-.088v-.747h-.742V226h.747v-3.574c0-.659.293-1.065.762-1.065.449 0 .683.337.683.977V226h.742v-3.574c0-.659.284-1.065.747-1.065.445 0 .679.337.679.982V226h.747v-3.901Zm5.059 2.534c-.147.464-.64.747-1.309.747-.903 0-1.479-.625-1.479-1.597v-.215h3.608v-.517c0-1.533-.81-2.447-2.187-2.447-1.348 0-2.242.918-2.242 2.315v.796c0 1.509.845 2.383 2.3 2.383 1.113 0 1.953-.591 2.114-1.465h-.805Zm-1.372-3.316c.854 0 1.372.611 1.372 1.621h-2.788c0-1.015.532-1.621 1.416-1.621ZM582.83 226h.908l-2.27-7.046h-.918L578.279 226h.874l.616-2.021h2.451l.61 2.021Zm-1.846-6.011h.025l.986 3.252h-2.002l.991-3.252Zm6.05 7.998c1.436 0 2.285-.742 2.285-1.987v-5.298h-.82v.82h-.093c-.229-.571-.81-.908-1.577-.908-1.24 0-2.051.879-2.051 2.241v.953c0 1.357.806 2.241 2.032 2.241.771 0 1.357-.337 1.591-.894h.088v.825c0 .85-.512 1.319-1.44 1.319-.708 0-1.24-.288-1.348-.728h-.82c.107.879.928 1.416 2.153 1.416Zm-1.421-4.297v-.727c0-.972.567-1.602 1.446-1.602.874 0 1.435.625 1.435 1.602v.727c0 .977-.561 1.607-1.435 1.607-.879 0-1.446-.635-1.446-1.607Zm7.759 2.408c1.401 0 2.295-.913 2.295-2.344v-.801c0-1.431-.894-2.344-2.295-2.344-1.401 0-2.295.913-2.295 2.344v.801c0 1.431.894 2.344 2.295 2.344Zm0-4.756c.908 0 1.475.644 1.475 1.684v.65c0 1.045-.567 1.684-1.475 1.684-.908 0-1.475-.639-1.475-1.684v-.65c0-1.04.567-1.684 1.475-1.684Z" fill="#2A3A51"/><path d="M351.585 229.302v-14.103h-1.066v14.103h1.066Z" fill="#2B3750" fill-opacity=".2"/><path d="m362.259 220.702 1.938 5.298h.913l1.934-5.298h-.884l-1.47 4.409h-.063l-1.48-4.409h-.888Zm8.667-1.299c.39 0 .688-.293.688-.683a.67.67 0 0 0-.688-.679.67.67 0 0 0-.689.679c0 .39.298.683.689.683Zm2.221 6.597v-.688h-1.752v-4.61h-2.623v.689h1.802v3.921h-1.816V226h4.389Zm1.939-3.867c0 .752.474 1.235 1.431 1.455l.786.181c.674.151.932.376.932.795 0 .508-.459.835-1.181.835-.684 0-1.153-.283-1.275-.771h-.844c.092.908.888 1.47 2.089 1.47 1.255 0 2.071-.635 2.071-1.612 0-.766-.469-1.215-1.499-1.45l-.747-.171c-.664-.146-.938-.376-.938-.781 0-.483.435-.796 1.109-.796.62 0 1.064.283 1.162.747h.8c-.097-.884-.844-1.435-1.948-1.435-1.167 0-1.948.615-1.948 1.533Zm8.203-2.73a.672.672 0 0 0 .689-.683.67.67 0 0 0-.689-.679.67.67 0 0 0-.688.679c0 .39.297.683.688.683Zm2.222 6.597v-.688h-1.753v-4.61h-2.622v.689h1.802v3.921h-1.817V226h4.39Zm4.199.088c1.226 0 2.026-.884 2.026-2.246v-.987c0-1.357-.8-2.241-2.026-2.241-.767 0-1.328.327-1.563.908h-.087v-2.9h-.845V226h.815v-.811h.093c.273.586.83.899 1.587.899Zm-.244-.757c-.869 0-1.426-.625-1.426-1.606v-.762c0-.977.557-1.602 1.426-1.602.879 0 1.435.625 1.435 1.602v.762c0 .976-.556 1.606-1.435 1.606Zm6.186-5.928a.672.672 0 0 0 .689-.683.67.67 0 0 0-.689-.679.67.67 0 0 0-.688.679c0 .39.298.683.688.683Zm2.222 6.597v-.688h-1.753v-4.61h-2.622v.689h1.802v3.921h-1.817V226h4.39Zm6.182 0v-.688h-1.748v-6.69h-2.627v.689h1.797v6.001h-1.812V226h4.39Zm3.96-6.597c.39 0 .688-.293.688-.683a.67.67 0 0 0-.688-.679.67.67 0 0 0-.689.679c0 .39.298.683.689.683Zm2.221 6.597v-.688h-1.753v-4.61h-2.622v.689h1.802v3.921h-1.816V226h4.389Zm2.964-6.719v1.436h-1.411v.708h1.411v2.998c0 1.103.611 1.601 1.924 1.601.254 0 .898-.024 1.03-.048v-.704c-.141.015-.674.03-.971.03-.747 0-1.153-.313-1.153-.889v-2.988h2.139v-.708h-2.149v-1.436h-.82Zm5.601 8.604c.981 0 1.426-.386 1.889-1.69l1.997-5.493h-.883l-1.48 4.434h-.063l-1.485-4.434h-.903l1.948 5.332-.093.288c-.219.616-.493.84-.991.84-.078 0-.229-.005-.293-.019v.727c.074.01.235.015.357.015Zm7.666-5.606a.9.9 0 0 0 .884-.903.9.9 0 0 0-.884-.903.9.9 0 0 0-.884.903.9.9 0 0 0 .884.903Zm0 3.75a.897.897 0 0 0 .884-.903.896.896 0 0 0-.884-.898.896.896 0 0 0-.884.898c0 .498.4.903.884.903Zm51.767-.029v-.688h-1.748v-6.69h-2.627v.689h1.797v6.001h-1.811V226h4.389Zm3.33.093c.772 0 1.348-.318 1.602-.884h.083v.796h.791v-3.628c0-1.104-.713-1.738-1.958-1.738-1.084 0-1.904.581-2.002 1.43h.815c.137-.454.567-.713 1.177-.713.738 0 1.143.367 1.143 1.031v.478l-1.455.073c-1.206.064-1.88.621-1.88 1.558 0 .962.674 1.597 1.684 1.597Zm.24-.728c-.669 0-1.084-.342-1.084-.898 0-.552.39-.869 1.133-.904l1.362-.063v.625c0 .708-.611 1.24-1.411 1.24Zm4.311.635h.83v-3.12c0-.903.586-1.514 1.46-1.514.825 0 1.216.449 1.216 1.406V226h.83v-3.438c0-1.269-.625-1.958-1.777-1.958-.806 0-1.411.372-1.695 1.031h-.068v-.933h-.796V226Zm8.194 1.987c1.435 0 2.285-.742 2.285-1.987v-5.298h-.821v.82h-.092c-.23-.571-.811-.908-1.578-.908-1.24 0-2.05.879-2.05 2.241v.953c0 1.357.805 2.241 2.031 2.241.771 0 1.357-.337 1.592-.894h.088v.825c0 .85-.513 1.319-1.441 1.319-.708 0-1.24-.288-1.347-.728h-.821c.108.879.928 1.416 2.154 1.416Zm-1.421-4.297v-.727c0-.972.566-1.602 1.445-1.602.874 0 1.436.625 1.436 1.602v.727c0 .977-.562 1.607-1.436 1.607-.879 0-1.445-.635-1.445-1.607Zm7.758-1.411a.9.9 0 0 0 .884-.903.9.9 0 0 0-.884-.903.9.9 0 0 0-.883.903.9.9 0 0 0 .883.903Zm0 3.75a.897.897 0 0 0 .884-.903c0-.493-.4-.898-.884-.898a.896.896 0 0 0-.883.898c0 .498.4.903.883.903Z" fill="#388CDB"/><path opacity=".74" d="m224.685 533.37 1.736 3.63h2.187l-1.975-3.951c1.073-.424 1.75-1.49 1.75-2.769 0-1.955-1.313-3.144-3.459-3.144h-3.582V537h1.934v-3.63h1.409Zm-1.409-4.648h1.395c1.094 0 1.736.588 1.736 1.565 0 .998-.656 1.593-1.757 1.593h-1.374v-3.158Zm9.051 8.401c.985 0 1.777-.417 2.147-1.128h.164V537h1.777v-5.113c0-1.648-1.087-2.571-3.021-2.571-1.791 0-3.029.882-3.165 2.249h1.818c.157-.471.642-.758 1.292-.758.772 0 1.223.382 1.223 1.039v.601l-1.763.11c-1.86.13-2.851.929-2.851 2.29 0 1.36.957 2.276 2.379 2.276Zm.643-1.497c-.725 0-1.176-.355-1.176-.916 0-.581.444-.916 1.319-.971l1.449-.089v.547c0 .841-.663 1.429-1.592 1.429Zm9.139-7.704c.766 0 1.286-.472 1.286-1.183 0-.711-.52-1.182-1.286-1.182-.765 0-1.278.471-1.278 1.182s.513 1.183 1.278 1.183Zm3.22 9.078v-1.49h-2.276v-6.05h-4.115v1.497h2.296v4.553h-2.42V537h6.515Zm8.654 0v-1.49h-2.249v-8.921h-4.142v1.49h2.269v7.431h-2.392V537h6.514Zm2.277-5.339c0 1.162.718 1.901 2.133 2.208l1.128.239c.792.171 1.08.376 1.08.8 0 .492-.493.814-1.258.814-.78 0-1.285-.287-1.402-.807h-1.845c.102 1.415 1.292 2.242 3.219 2.242 1.962 0 3.206-.964 3.206-2.488 0-1.148-.676-1.798-2.201-2.112l-1.169-.24c-.731-.15-1.046-.396-1.046-.806 0-.479.472-.8 1.183-.8.697 0 1.19.308 1.278.807h1.764c-.089-1.415-1.203-2.236-3.028-2.236-1.866 0-3.042.916-3.042 2.379ZM526.864 526.136V536h3.165c2.783 0 4.204-1.695 4.204-5.004 0-3.192-1.442-4.86-4.204-4.86h-3.165Zm1.942 1.675h.957c1.681 0 2.488 1.045 2.488 3.219 0 2.27-.779 3.295-2.488 3.295h-.957v-6.514Zm11.06-.889c.773 0 1.285-.472 1.285-1.183 0-.711-.512-1.182-1.285-1.182-.765 0-1.278.471-1.278 1.182s.513 1.183 1.278 1.183Zm1.012 1.538h-4.922v1.497h3.104v5.756c0 .779-.363 1.1-1.313 1.1-.191 0-1.709-.006-1.866-.02v1.647c.212.014 1.716.021 1.941.021 2.215 0 3.056-.745 3.056-2.762v-7.239Zm5.776 7.663c.985 0 1.778-.417 2.147-1.128h.164V536h1.777v-5.113c0-1.648-1.087-2.571-3.021-2.571-1.791 0-3.029.882-3.165 2.249h1.818c.157-.471.643-.758 1.292-.758.772 0 1.224.382 1.224 1.039v.601l-1.764.11c-1.859.13-2.851.929-2.851 2.29 0 1.36.957 2.276 2.379 2.276Zm.643-1.497c-.725 0-1.176-.355-1.176-.916 0-.581.444-.916 1.319-.971l1.45-.089v.547c0 .841-.663 1.429-1.593 1.429Zm5.674 1.374h1.866v-4.354c0-1.046.622-1.709 1.579-1.709.95 0 1.395.526 1.395 1.633V536h1.873v-4.874c0-1.839-.875-2.823-2.516-2.823-1.087 0-1.9.512-2.27 1.422h-.116v-1.265h-1.811V536Zm11.799 2.837c2.201 0 3.561-1.087 3.561-2.844v-7.533h-1.839v1.285h-.137c-.246-.854-1.086-1.408-2.18-1.408-1.805 0-2.864 1.183-2.864 3.24v1.142c0 2.037 1.039 3.24 2.775 3.24 1.121 0 1.996-.567 2.228-1.415h.144v1.483c0 .944-.574 1.436-1.661 1.436-.827 0-1.429-.308-1.559-.793h-1.825c.123 1.34 1.401 2.167 3.357 2.167Zm-1.545-6.173v-1.087c0-1.018.622-1.668 1.599-1.668.985 0 1.607.643 1.607 1.668v1.087c0 1.025-.622 1.668-1.607 1.668-.977 0-1.599-.643-1.599-1.668Zm10.411 3.5c2.126 0 3.466-1.292 3.466-3.35v-1.162c0-2.057-1.34-3.349-3.466-3.349-2.126 0-3.466 1.292-3.466 3.349v1.162c0 2.058 1.34 3.35 3.466 3.35Zm0-6.33c1.005 0 1.627.725 1.627 1.894v1.011c0 1.162-.622 1.894-1.627 1.894s-1.627-.732-1.627-1.894v-1.011c0-1.169.622-1.894 1.627-1.894ZM669.627 532.746l-.246-3.937h.143l1.511 4.874h1.313l1.51-4.874h.144l-.246 3.937V536h1.634v-9.864h-2.031l-1.606 5.646h-.116l-1.62-5.646h-2.024V536h1.634v-3.254Zm8.49 5.975c1.846 0 2.728-.684 3.377-2.625l2.598-7.636h-1.983l-1.668 5.817h-.116l-1.668-5.817h-2.064l2.652 7.595-.075.287c-.178.595-.595.854-1.354.854a3.7 3.7 0 0 1-.417-.02v1.531c.055.007.397.014.718.014Zm7.205-5.483c.069 1.846 1.47 2.96 3.705 2.96 2.304 0 3.699-1.176 3.699-3.124 0-1.511-.834-2.365-2.742-2.789l-1.011-.232c-1.067-.233-1.504-.615-1.504-1.313 0-.738.608-1.196 1.586-1.196.964 0 1.586.499 1.661 1.312h1.832c-.062-1.763-1.449-2.918-3.514-2.918-2.133 0-3.493 1.168-3.493 3.007 0 1.463.875 2.407 2.659 2.81l1.026.239c1.141.253 1.579.609 1.579 1.278 0 .8-.677 1.313-1.743 1.313-1.122 0-1.819-.492-1.908-1.347h-1.832Zm14.226 3.842h1.839l-1.108-1.873c.752-.752 1.169-1.907 1.169-3.384v-1.511c0-2.741-1.428-4.374-3.794-4.374-2.365 0-3.794 1.633-3.794 4.374v1.511c0 2.741 1.429 4.375 3.794 4.375a4.36 4.36 0 0 0 1.265-.177l.629 1.059Zm-1.894-2.495c-1.216 0-1.873-.923-1.873-2.755v-1.415c0-1.832.657-2.755 1.873-2.755 1.217 0 1.873.923 1.873 2.755v1.415c0 .677-.095 1.231-.266 1.661l-.383-.642h-1.839l1.005 1.702a2.42 2.42 0 0 1-.39.034Zm12.148-.301h-4.321v-8.148h-1.92V536h6.241v-1.716Z" fill="#6078A9" fill-opacity=".7"/><path d="M169.047 404h2.099l-2.96-9.864h-2.297l-2.96 9.864h1.941l.629-2.413h2.933l.615 2.413Zm-2.119-7.93h.089l1.025 3.999h-2.153l1.039-3.999Zm5.407 7.93h1.866v-4.354c0-1.046.622-1.709 1.579-1.709.95 0 1.395.526 1.395 1.633V404h1.873v-4.874c0-1.839-.875-2.823-2.516-2.823-1.087 0-1.9.512-2.269 1.422h-.117v-1.265h-1.811V404Zm11.177.116c1.107 0 1.852-.499 2.112-1.415h.144V404h1.927v-10.411h-1.955v4.156h-.136c-.253-.902-1.005-1.408-2.092-1.408-1.723 0-2.748 1.189-2.748 3.24v1.299c0 2.051 1.025 3.24 2.748 3.24Zm.724-1.62c-.97 0-1.565-.636-1.565-1.675v-1.244c0-1.039.595-1.668 1.565-1.668.964 0 1.552.629 1.552 1.668v1.244c0 1.039-.588 1.675-1.552 1.675Zm8.62-1.839c0-1.62.869-2.427 2.646-2.427.424 0 .916.089 1.258.219v-2.03c-.267-.103-.65-.157-1.073-.157-1.422 0-2.195.635-2.523 2.133h-.294v-1.935h-3.377v1.381h1.572v4.785h-1.435V404h5.414v-1.374h-2.188v-1.969Zm8.798 3.507c2.126 0 3.466-1.292 3.466-3.35v-1.162c0-2.057-1.34-3.349-3.466-3.349-2.126 0-3.466 1.292-3.466 3.349v1.162c0 2.058 1.34 3.35 3.466 3.35Zm0-6.33c1.005 0 1.627.725 1.627 1.894v1.011c0 1.162-.622 1.894-1.627 1.894s-1.627-.732-1.627-1.894v-1.011c0-1.169.622-1.894 1.627-1.894Zm8.764-2.912c.766 0 1.285-.472 1.285-1.183 0-.711-.519-1.182-1.285-1.182-.766 0-1.278.471-1.278 1.182s.512 1.183 1.278 1.183Zm3.22 9.078v-1.49h-2.277v-6.05h-4.115v1.497h2.297v4.553h-2.42V404h6.515Zm4.491.116c1.107 0 1.852-.499 2.112-1.415h.144V404h1.927v-10.411h-1.955v4.156h-.136c-.253-.902-1.005-1.408-2.092-1.408-1.723 0-2.748 1.189-2.748 3.24v1.299c0 2.051 1.025 3.24 2.748 3.24Zm.725-1.62c-.971 0-1.566-.636-1.566-1.675v-1.244c0-1.039.595-1.668 1.566-1.668.963 0 1.551.629 1.551 1.668v1.244c0 1.039-.588 1.675-1.551 1.675ZM388.185 402.284h-4.321v-8.148h-1.921V404h6.242v-1.716Zm5.27-7.362c.766 0 1.285-.472 1.285-1.183 0-.711-.519-1.182-1.285-1.182-.766 0-1.278.471-1.278 1.182s.512 1.183 1.278 1.183Zm3.22 9.078v-1.49h-2.277v-6.05h-4.115v1.497h2.297v4.553h-2.42V404h6.515Zm1.969 0h1.866v-4.354c0-1.046.622-1.709 1.579-1.709.95 0 1.394.526 1.394 1.633V404h1.873v-4.874c0-1.839-.875-2.823-2.515-2.823-1.087 0-1.901.512-2.27 1.422h-.116v-1.265h-1.811V404Zm15.367-7.54h-1.866v4.361c0 1.039-.623 1.702-1.58 1.702-.95 0-1.394-.526-1.394-1.633v-4.43h-1.873v4.881c0 1.839.875 2.823 2.515 2.823 1.087 0 1.901-.519 2.27-1.429h.116V404h1.812v-7.54Zm5.311 5.011 1.504 2.529h2.085l-2.42-3.814 2.406-3.726h-2.05l-1.436 2.543h-.116l-1.429-2.543h-2.16l2.413 3.808-2.392 3.732h1.982l1.504-2.529h.109ZM625.056 394.136V404h1.941v-3.131h1.572c2.126 0 3.48-1.306 3.48-3.356 0-2.072-1.313-3.377-3.384-3.377h-3.609Zm1.941 1.593h1.176c1.271 0 1.907.587 1.907 1.77 0 1.189-.636 1.771-1.907 1.771h-1.176v-3.541Zm7.793 10.992c1.846 0 2.728-.684 3.377-2.625l2.598-7.636h-1.983l-1.668 5.817h-.116l-1.668-5.817h-2.064l2.652 7.595-.075.287c-.178.595-.595.854-1.354.854a3.7 3.7 0 0 1-.417-.02v1.531c.055.007.397.014.718.014Zm9.324-12.414v2.228h-1.962v1.497h1.962v3.582c0 1.75.786 2.4 2.837 2.4.151 0 1.641-.014 1.716-.028v-1.476c-.082.007-1.388.013-1.565.013-.718 0-1.122-.321-1.122-.888v-3.603h2.776v-1.497h-2.81v-2.228h-1.832Zm6.829 9.693h1.867v-4.334c0-1.039.635-1.709 1.62-1.709.95 0 1.415.54 1.415 1.641V404h1.873v-4.86c0-1.819-.903-2.817-2.536-2.817-1.101 0-1.942.52-2.304 1.422h-.109v-4.156h-1.826V404Zm12.038.164c2.126 0 3.466-1.292 3.466-3.35v-1.162c0-2.057-1.34-3.349-3.466-3.349-2.126 0-3.465 1.292-3.465 3.349v1.162c0 2.058 1.339 3.35 3.465 3.35Zm0-6.33c1.005 0 1.627.725 1.627 1.894v1.011c0 1.162-.622 1.894-1.627 1.894-1.004 0-1.627-.732-1.627-1.894v-1.011c0-1.169.623-1.894 1.627-1.894Zm5.298 6.166h1.867v-4.354c0-1.046.622-1.709 1.579-1.709.95 0 1.394.526 1.394 1.633V404h1.873v-4.874c0-1.839-.875-2.823-2.515-2.823-1.087 0-1.901.512-2.27 1.422h-.116v-1.265h-1.812V404Z" fill="#6078A9"/><path d="m710.685 452.37 1.736 3.63h2.187l-1.975-3.951c1.073-.424 1.75-1.49 1.75-2.769 0-1.955-1.313-3.144-3.459-3.144h-3.582V456h1.934v-3.63h1.409Zm-1.409-4.648h1.395c1.094 0 1.736.588 1.736 1.565 0 .998-.656 1.593-1.757 1.593h-1.374v-3.158Zm11.703 6.159c-.136.492-.731.834-1.483.834-.977 0-1.613-.643-1.613-1.627v-.41h4.86v-1.039c0-2.024-1.278-3.336-3.274-3.336-2.051 0-3.418 1.305-3.418 3.281v1.21c0 2.14 1.258 3.37 3.452 3.37 1.75 0 3.083-.95 3.24-2.283h-1.764Zm-1.544-4.129c.943 0 1.503.649 1.503 1.729h-3.055c0-1.08.581-1.729 1.552-1.729Zm7.546 6.371c.985 0 1.778-.417 2.147-1.128h.164V456h1.777v-5.113c0-1.648-1.087-2.571-3.021-2.571-1.791 0-3.028.882-3.165 2.249h1.818c.157-.471.643-.758 1.292-.758.773 0 1.224.382 1.224 1.039v.601l-1.764.11c-1.859.13-2.85.929-2.85 2.29 0 1.36.957 2.276 2.378 2.276Zm.643-1.497c-.725 0-1.176-.355-1.176-.916 0-.581.445-.916 1.32-.971l1.449-.089v.547c0 .841-.663 1.429-1.593 1.429Zm12.441-3.534c-.177-1.846-1.312-2.817-3.26-2.817-2.222 0-3.452 1.258-3.452 3.548v.793c0 2.29 1.23 3.548 3.452 3.548 1.948 0 3.096-.957 3.26-2.755h-1.832c-.129.807-.622 1.196-1.442 1.196-1.005 0-1.559-.751-1.559-2.132v-.506c0-1.381.554-2.133 1.559-2.133.813 0 1.319.41 1.442 1.258h1.832Zm3.685-4.785v2.228h-1.962v1.497h1.962v3.582c0 1.75.786 2.4 2.837 2.4.15 0 1.641-.014 1.716-.028v-1.476c-.082.007-1.388.013-1.566.013-.717 0-1.121-.321-1.121-.888v-3.603h2.776v-1.497h-2.81v-2.228h-1.832ZM470.654 456.144v-3.001l.868-1.107 2.694 4.108h2.263l-3.617-5.509 3.398-4.355h-2.051l-3.452 4.491h-.103v-4.491h-1.845v9.864h1.845Zm13.412-7.54H482.2v4.362c0 1.039-.622 1.702-1.579 1.702-.95 0-1.394-.527-1.394-1.634v-4.43h-1.873v4.881c0 1.839.875 2.823 2.515 2.823 1.087 0 1.901-.519 2.27-1.428h.116v1.264h1.811v-7.54Zm6.132 7.656c1.73 0 2.748-1.189 2.748-3.24v-1.299c0-2.05-1.018-3.24-2.748-3.24-1.08 0-1.832.506-2.085 1.408h-.143v-4.156h-1.949v10.411h1.928v-1.299h.137c.267.916 1.012 1.415 2.112 1.415Zm-.718-1.62c-.963 0-1.558-.635-1.558-1.674v-1.245c0-1.039.595-1.668 1.558-1.668.971 0 1.559.629 1.559 1.668v1.245c0 1.039-.588 1.674-1.559 1.674Zm10.172-.615c-.136.492-.731.834-1.483.834-.978 0-1.613-.642-1.613-1.627v-.41h4.86v-1.039c0-2.023-1.278-3.336-3.274-3.336-2.051 0-3.418 1.306-3.418 3.281v1.21c0 2.14 1.257 3.37 3.452 3.37 1.75 0 3.083-.95 3.24-2.283h-1.764Zm-1.545-4.129c.944 0 1.504.65 1.504 1.73h-3.055c0-1.08.581-1.73 1.551-1.73Zm8.422 2.906c0-1.621.868-2.427 2.646-2.427.424 0 .916.089 1.258.219v-2.031c-.267-.102-.65-.157-1.074-.157-1.421 0-2.194.636-2.522 2.133h-.294v-1.935h-3.377v1.381h1.572v4.785h-1.435v1.374h5.414v-1.374h-2.188v-1.968Zm5.442 3.342h1.866v-4.354c0-1.046.622-1.709 1.579-1.709.95 0 1.395.526 1.395 1.634v4.429h1.873v-4.874c0-1.839-.875-2.823-2.516-2.823-1.087 0-1.9.513-2.27 1.422h-.116v-1.265h-1.811v7.54Zm13.644-2.119c-.136.492-.731.834-1.483.834-.978 0-1.613-.642-1.613-1.627v-.41h4.86v-1.039c0-2.023-1.278-3.336-3.275-3.336-2.05 0-3.417 1.306-3.417 3.281v1.21c0 2.14 1.257 3.37 3.452 3.37 1.75 0 3.083-.95 3.24-2.283h-1.764Zm-1.545-4.129c.944 0 1.504.65 1.504 1.73h-3.055c0-1.08.581-1.73 1.551-1.73Zm7.007-3.445v2.228h-1.962v1.498h1.962v3.582c0 1.75.786 2.399 2.837 2.399.15 0 1.641-.014 1.716-.027v-1.477c-.082.007-1.388.014-1.566.014-.717 0-1.121-.322-1.121-.889v-3.602h2.776v-1.498h-2.81v-2.228h-1.832Zm11.847 7.574c-.137.492-.732.834-1.484.834-.977 0-1.613-.642-1.613-1.627v-.41h4.861v-1.039c0-2.023-1.279-3.336-3.275-3.336-2.051 0-3.418 1.306-3.418 3.281v1.21c0 2.14 1.258 3.37 3.452 3.37 1.75 0 3.083-.95 3.241-2.283h-1.764Zm-1.545-4.129c.943 0 1.504.65 1.504 1.73h-3.056c0-1.08.581-1.73 1.552-1.73Zm5.517.909c0 1.163.717 1.901 2.132 2.208l1.128.24c.793.171 1.08.376 1.08.799 0 .493-.492.814-1.257.814-.78 0-1.286-.287-1.402-.807h-1.846c.103 1.415 1.292 2.243 3.22 2.243 1.962 0 3.206-.964 3.206-2.489 0-1.148-.677-1.798-2.201-2.112l-1.169-.239c-.731-.151-1.046-.397-1.046-.807 0-.478.472-.8 1.183-.8.697 0 1.189.308 1.278.807h1.764c-.089-1.415-1.203-2.235-3.028-2.235-1.867 0-3.042.916-3.042 2.378Z" fill="#6078A9" fill-opacity=".8"/><path d="M817.498 400.766c0 1.06-.629 1.689-1.668 1.689-1.224 0-1.852-.8-1.852-2.379v-2.017c0-1.572.622-2.379 1.825-2.379.964 0 1.64.677 1.688 1.716h1.976c-.055-2.153-1.429-3.459-3.61-3.459-2.433 0-3.855 1.511-3.855 4.122v2.017c0 2.611 1.422 4.122 3.855 4.122 2.181 0 3.617-1.333 3.617-3.391v-2.05h-3.815v1.462h1.839v.547Zm6.829 3.398c2.126 0 3.466-1.292 3.466-3.35v-1.162c0-2.058-1.34-3.35-3.466-3.35-2.126 0-3.466 1.292-3.466 3.35v1.162c0 2.058 1.34 3.35 3.466 3.35Zm0-6.33c1.005 0 1.627.724 1.627 1.893v1.012c0 1.162-.622 1.894-1.627 1.894s-1.627-.732-1.627-1.894v-1.012c0-1.169.622-1.893 1.627-1.893Z" fill="#6078A9"/><path d="M276.241 456v-6.597h.116l3.398 6.597h1.723v-9.864h-1.682v6.555h-.116l-3.391-6.555h-1.729V456h1.681Zm10.432.164c2.126 0 3.466-1.292 3.466-3.35v-1.162c0-2.057-1.34-3.349-3.466-3.349-2.126 0-3.466 1.292-3.466 3.349v1.162c0 2.058 1.34 3.35 3.466 3.35Zm0-6.33c1.005 0 1.627.725 1.627 1.894v1.011c0 1.162-.622 1.894-1.627 1.894s-1.627-.732-1.627-1.894v-1.011c0-1.169.622-1.894 1.627-1.894Zm7.82 6.282c1.108 0 1.853-.499 2.112-1.415h.144V456h1.928v-10.411h-1.955v4.156h-.137c-.253-.902-1.005-1.408-2.092-1.408-1.722 0-2.748 1.189-2.748 3.24v1.299c0 2.051 1.026 3.24 2.748 3.24Zm.725-1.62c-.971 0-1.566-.636-1.566-1.675v-1.244c0-1.039.595-1.668 1.566-1.668.964 0 1.552.629 1.552 1.668v1.244c0 1.039-.588 1.675-1.552 1.675Zm10.397-.615c-.136.492-.731.834-1.483.834-.978 0-1.613-.643-1.613-1.627v-.41h4.86v-1.039c0-2.024-1.278-3.336-3.275-3.336-2.05 0-3.417 1.305-3.417 3.281v1.21c0 2.14 1.257 3.37 3.452 3.37 1.75 0 3.083-.95 3.24-2.283h-1.764Zm-1.545-4.129c.944 0 1.504.649 1.504 1.729h-3.055c0-1.08.581-1.729 1.551-1.729Z" fill="#6078A9" fill-opacity=".8"/><path opacity=".74" d="M311.037 599.136V609h1.942v-3.131h1.572c2.126 0 3.479-1.306 3.479-3.356 0-2.072-1.312-3.377-3.384-3.377h-3.609Zm1.942 1.593h1.175c1.272 0 1.908.587 1.908 1.77 0 1.189-.636 1.771-1.908 1.771h-1.175v-3.541ZM326.521 609v-9.864h-1.908v4.019h-3.226v-4.019h-1.908V609h1.908v-4.17h3.226V609h1.908Zm1.825-9.864V609h1.941v-3.131h1.572c2.126 0 3.48-1.306 3.48-3.356 0-2.072-1.313-3.377-3.384-3.377h-3.609Zm1.941 1.593h1.176c1.271 0 1.907.587 1.907 1.77 0 1.189-.636 1.771-1.907 1.771h-1.176v-3.541ZM446.26 609v-6.597h.116l3.397 6.597h1.723v-9.864h-1.682v6.555h-.116l-3.39-6.555h-1.73V609h1.682Zm12.065-2.119c-.137.492-.731.834-1.483.834-.978 0-1.613-.643-1.613-1.627v-.41h4.86v-1.039c0-2.024-1.278-3.336-3.275-3.336-2.05 0-3.418 1.305-3.418 3.281v1.21c0 2.14 1.258 3.37 3.453 3.37 1.75 0 3.083-.95 3.24-2.283h-1.764Zm-1.545-4.129c.944 0 1.504.649 1.504 1.729h-3.055c0-1.08.581-1.729 1.551-1.729Zm8.579 3.719 1.504 2.529h2.085l-2.42-3.814 2.407-3.726h-2.051l-1.436 2.543h-.116l-1.429-2.543h-2.16l2.413 3.808-2.392 3.732h1.982l1.504-2.529h.109Zm7.082-7.164v2.228h-1.962v1.497h1.962v3.582c0 1.75.787 2.4 2.837 2.4.151 0 1.641-.014 1.716-.028v-1.476c-.082.007-1.388.013-1.565.013-.718 0-1.121-.321-1.121-.888v-3.603h2.775v-1.497h-2.81v-2.228h-1.832Zm10.213 9.823c.827 0 1.504-.697 1.504-1.538 0-.848-.677-1.545-1.504-1.545s-1.504.697-1.504 1.545c0 .841.677 1.538 1.504 1.538Zm9.502-9.208c.773 0 1.285-.472 1.285-1.183 0-.711-.512-1.182-1.285-1.182-.765 0-1.278.471-1.278 1.182s.513 1.183 1.278 1.183Zm1.012 1.538h-4.922v1.497h3.104v5.756c0 .779-.363 1.1-1.313 1.1-.191 0-1.709-.006-1.866-.02v1.647c.212.014 1.716.021 1.941.021 2.215 0 3.056-.745 3.056-2.762v-7.239Zm3.746 2.201c0 1.162.718 1.901 2.133 2.208l1.128.239c.793.171 1.08.376 1.08.8 0 .492-.492.814-1.258.814-.779 0-1.285-.287-1.401-.807h-1.846c.103 1.415 1.292 2.242 3.22 2.242 1.962 0 3.206-.964 3.206-2.488 0-1.148-.677-1.798-2.201-2.112l-1.169-.24c-.732-.15-1.046-.396-1.046-.806 0-.479.471-.8 1.182-.8.698 0 1.19.308 1.279.807h1.763c-.088-1.415-1.203-2.236-3.028-2.236-1.866 0-3.042.916-3.042 2.379ZM597.53 607.284h-4.32v-8.148h-1.921V609h6.241v-1.716Zm4.143 1.839c.984 0 1.777-.417 2.146-1.128h.164V609h1.778v-5.113c0-1.648-1.087-2.571-3.022-2.571-1.791 0-3.028.882-3.165 2.249h1.819c.157-.471.642-.758 1.292-.758.772 0 1.223.382 1.223 1.039v.601l-1.763.11c-1.86.13-2.851.929-2.851 2.29 0 1.36.957 2.276 2.379 2.276Zm.642-1.497c-.724 0-1.175-.355-1.175-.916 0-.581.444-.916 1.319-.971l1.449-.089v.547c0 .841-.663 1.429-1.593 1.429Zm8.887-1.969c0-1.62.868-2.427 2.646-2.427.423 0 .916.089 1.257.219v-2.03c-.266-.103-.649-.157-1.073-.157-1.422 0-2.194.635-2.522 2.133h-.294v-1.935h-3.377v1.381h1.572v4.785h-1.435V609h5.414v-1.374h-2.188v-1.969Zm7.779 3.466c.985 0 1.778-.417 2.147-1.128h.164V609h1.777v-5.113c0-1.648-1.087-2.571-3.021-2.571-1.791 0-3.028.882-3.165 2.249h1.818c.157-.471.643-.758 1.292-.758.773 0 1.224.382 1.224 1.039v.601l-1.764.11c-1.859.13-2.85.929-2.85 2.29 0 1.36.957 2.276 2.378 2.276Zm.643-1.497c-.725 0-1.176-.355-1.176-.916 0-.581.445-.916 1.32-.971l1.449-.089v.547c0 .841-.663 1.429-1.593 1.429Zm5.346-6.166 2.625 7.54h2.133l2.611-7.54h-1.976l-1.627 5.715h-.109l-1.648-5.715h-2.009Zm13.972 5.421c-.136.492-.731.834-1.483.834-.978 0-1.613-.643-1.613-1.627v-.41h4.86v-1.039c0-2.024-1.278-3.336-3.274-3.336-2.051 0-3.418 1.305-3.418 3.281v1.21c0 2.14 1.257 3.37 3.452 3.37 1.75 0 3.083-.95 3.24-2.283h-1.764Zm-1.545-4.129c.944 0 1.504.649 1.504 1.729h-3.055c0-1.08.581-1.729 1.551-1.729ZM649.292 609v-1.49h-2.249v-8.921H642.9v1.49h2.27v7.431h-2.393V609h6.515ZM747.374 609h2.099l-2.96-9.864h-2.297l-2.96 9.864h1.941l.629-2.413h2.933l.615 2.413Zm-2.119-7.93h.089l1.025 3.999h-2.153l1.039-3.999Zm9.604.274c-1.1 0-1.845.506-2.112 1.415h-.143v-1.299h-1.921v10.049h1.948v-3.787h.137c.253.902 1.004 1.408 2.091 1.408 1.73 0 2.748-1.19 2.748-3.247v-1.299c0-2.051-1.018-3.24-2.748-3.24Zm-.717 1.627c.963 0 1.558.635 1.558 1.668v1.251c0 1.032-.595 1.668-1.558 1.668-.971 0-1.559-.629-1.559-1.668v-1.251c0-1.039.588-1.668 1.559-1.668Zm7.512 6.152c.985 0 1.778-.417 2.147-1.128h.164V609h1.777v-5.113c0-1.648-1.087-2.571-3.021-2.571-1.791 0-3.029.882-3.165 2.249h1.818c.157-.471.643-.758 1.292-.758.772 0 1.224.382 1.224 1.039v.601l-1.764.11c-1.859.13-2.851.929-2.851 2.29 0 1.36.957 2.276 2.379 2.276Zm.643-1.497c-.725 0-1.176-.355-1.176-.916 0-.581.444-.916 1.319-.971l1.45-.089v.547c0 .841-.663 1.429-1.593 1.429Zm12.441-3.534c-.177-1.846-1.312-2.817-3.26-2.817-2.222 0-3.453 1.258-3.453 3.548v.793c0 2.29 1.231 3.548 3.453 3.548 1.948 0 3.096-.957 3.26-2.755h-1.832c-.13.807-.622 1.196-1.442 1.196-1.005 0-1.559-.751-1.559-2.132v-.506c0-1.381.554-2.133 1.559-2.133.813 0 1.319.41 1.442 1.258h1.832Zm1.86 4.908h1.866v-4.334c0-1.039.636-1.709 1.62-1.709.95 0 1.415.54 1.415 1.641V609h1.873v-4.86c0-1.819-.902-2.817-2.536-2.817-1.101 0-1.941.52-2.304 1.422h-.109v-4.156h-1.825V609Zm13.672-2.119c-.137.492-.732.834-1.484.834-.977 0-1.613-.643-1.613-1.627v-.41h4.86v-1.039c0-2.024-1.278-3.336-3.274-3.336-2.051 0-3.418 1.305-3.418 3.281v1.21c0 2.14 1.258 3.37 3.452 3.37 1.75 0 3.083-.95 3.24-2.283h-1.763Zm-1.545-4.129c.943 0 1.504.649 1.504 1.729h-3.056c0-1.08.581-1.729 1.552-1.729ZM381.914 537v-6.597h.116l3.398 6.597h1.722v-9.864h-1.681v6.555h-.116l-3.391-6.555h-1.73V537h1.682Zm12.257-3.233c0 1.059-.629 1.688-1.668 1.688-1.224 0-1.853-.8-1.853-2.379v-2.016c0-1.573.622-2.379 1.826-2.379.963 0 1.64.676 1.688 1.715h1.976c-.055-2.153-1.429-3.458-3.61-3.458-2.433 0-3.855 1.51-3.855 4.122v2.016c0 2.612 1.422 4.122 3.855 4.122 2.181 0 3.616-1.333 3.616-3.39v-2.051h-3.814v1.463h1.839v.547Zm9.844 3.233v-1.668h-2.044v-6.528h2.044v-1.668h-6.03v1.668h2.044v6.528h-2.044V537h6.03Zm3.862 0v-6.597h.116l3.398 6.597h1.722v-9.864h-1.681v6.555h-.117l-3.39-6.555h-1.73V537h1.682Zm6.316 0h1.949l2.057-3.418h.082l2.058 3.418h2.064l-2.987-4.942 3.008-4.922H420.4l-1.989 3.527h-.096l-1.982-3.527H414.2l2.919 4.894-2.926 4.97Z" fill="#6078A9" fill-opacity=".7"/><path d="M758 236v56.604H203V317" stroke="#DAE9F8" stroke-width="4"/><path d="M406 295v31" stroke="#1C7CD6" stroke-opacity=".15" stroke-width="4"/><path d="M294 295v102M242 295v184" stroke="#1C7CD6" stroke-opacity=".1" stroke-width="4"/><path d="M328 295v236M550 295v191M682 295v176M619 295v237M767 295v217M463 296v245" stroke="#1C7CD6" stroke-opacity=".05" stroke-width="4"/><path d="M387 295v177" stroke="#1C7CD6" stroke-opacity=".05" stroke-width="5"/><path d="M511 295v97" stroke="#1C7CD6" stroke-opacity=".15" stroke-width="4"/><path d="M728 295v96" stroke="#1C7CD6" stroke-opacity=".07" stroke-width="4"/><path d="M648 295v31" stroke="#1C7CD6" stroke-opacity=".15" stroke-width="4"/><path d="M758 236v56.604h63V318" stroke="#DAE9F8" stroke-width="4"/><g clip-path="url(#c)"><path d="M456.584 556.886h15.655v1.245h-14.22v9.363h13.373v1.245h-13.373v10.281h14.382v1.245h-15.817v-23.379Zm17.058 0h1.663l7.371 10.284 7.533-10.281 10.247-13.063-16.835 24.422 8.676 12.017h-1.73l-7.891-10.937-7.926 10.937h-1.695l8.739-12.017-8.152-11.362Zm19.274 1.245v-1.245h17.844v1.245h-8.219v22.134h-1.435v-22.134h-8.19ZM437 556.886h1.795l24.734 37.013-10.222-13.634-14.807-21.611-.065 21.611H437v-23.379Zm73.611 21.76a.532.532 0 0 1-.293-.084.527.527 0 0 1-.228-.535.518.518 0 0 1 .946-.194.528.528 0 0 1-.226.774.523.523 0 0 1-.199.039Zm1.41-1.372h.768c.01.417.315.696.761.696.499 0 .781-.3.781-.863v-3.566h.783v3.566c0 1.013-.587 1.597-1.556 1.597-.911.003-1.537-.562-1.537-1.43Zm4.116-.045h.783c.065.486.533.783 1.208.783.627 0 1.087-.324 1.087-.772 0-.384-.293-.616-.959-.773l-.649-.162c-.911-.213-1.326-.649-1.326-1.394 0-.898.733-1.495 1.832-1.495 1.023 0 1.769.597 1.814 1.446h-.76c-.073-.465-.478-.755-1.065-.755-.618 0-1.03.298-1.03.752 0 .36.266.566.923.72l.554.136c1.033.241 1.459.661 1.459 1.418 0 .965-.747 1.569-1.945 1.569-1.12.005-1.871-.57-1.926-1.473Z" fill="#1C7CD6" fill-opacity=".4"/></g><g clip-path="url(#d)" fill="#1C7CD6" fill-opacity=".7"><path d="m298.971 424.849-6.191-3.564a1.393 1.393 0 0 0-1.3 0l-6.192 3.564a1.29 1.29 0 0 0-.657 1.132v7.127a1.318 1.318 0 0 0 .657 1.132l1.622.937c.419.26.904.395 1.397.391a1.71 1.71 0 0 0 1.372-.531 1.723 1.723 0 0 0 .459-1.398v-6.988a.168.168 0 0 0-.168-.167h-.782a.18.18 0 0 0-.069.008.17.17 0 0 0-.113.159v7.072c0 .545-.573 1.09-1.495.615l-1.678-.964a.225.225 0 0 1-.097-.182v-7.128a.207.207 0 0 1 .097-.167l6.164-3.564a.164.164 0 0 1 .196 0l6.177 3.564a.185.185 0 0 1 .063.073.193.193 0 0 1 .021.094v7.128a.211.211 0 0 1-.084.182l-6.191 3.564a.24.24 0 0 1-.196 0l-1.593-.937a.16.16 0 0 0-.154 0 3.95 3.95 0 0 1-.937.434c-.097 0-.237.098 0 .265l2.069 1.216c.202.109.427.167.657.168.235-.008.464-.07.671-.182l6.191-3.564a1.253 1.253 0 0 0 .657-1.132v-7.128a1.318 1.318 0 0 0-.573-1.229Z"/><path d="M294.037 431.99c-1.635 0-2.012-.419-2.124-1.23 0-.083-.07-.139-.168-.139h-.796c-.126 0-.196.07-.196.167 0 1.049.559 2.278 3.27 2.278 1.943 0 3.075-.768 3.075-2.11 0-1.342-.894-1.705-2.795-1.957-1.901-.251-2.124-.391-2.124-.838 0-.447.167-.867 1.593-.867 1.425 0 1.747.266 1.942 1.118a.17.17 0 0 0 .058.101c.031.026.07.04.11.039h.811a.256.256 0 0 0 .14 0 .186.186 0 0 0 0-.14c-.112-1.397-1.091-2.152-3.075-2.152-1.985 0-2.795.727-2.795 1.985s1.048 1.733 2.795 1.9c2.026.21 2.18.504 2.18.895-.042.643-.643.95-1.901.95ZM301.976 425.589a.304.304 0 0 0 .251-.321c0-.364-.321-.364-.475-.364h-.433v1.398h.265v-.545h.224c.098 0 .112 0 .126.112.014.112 0 .363 0 .419h.349a1.754 1.754 0 0 1-.084-.363c-.028-.21-.028-.322-.223-.336Zm-.224-.084h-.21v-.377h.196s.196 0 .196.196a.18.18 0 0 1-.182.181Z"/><path d="M301.738 424.387a1.204 1.204 0 0 0-.85 2.052 1.202 1.202 0 0 0 2.052-.85 1.218 1.218 0 0 0-1.202-1.202Zm0 2.195a.993.993 0 1 1 .003-1.985.993.993 0 0 1-.003 1.985ZM272.542 409.349l-6.555-3.773a1.123 1.123 0 0 0-.349-.112h-.084a.632.632 0 0 0-.349.112l-6.555 3.773a.86.86 0 0 0-.391.699v10.175a.39.39 0 0 0 .587.335l3.885-2.236a.85.85 0 0 0 .391-.699v-4.738a.825.825 0 0 1 .392-.699l1.663-.964a.74.74 0 0 1 .783 0l1.649.964a.79.79 0 0 1 .391.699v4.738a.856.856 0 0 0 .391.699l3.914 2.236a.393.393 0 0 0 .391 0 .437.437 0 0 0 .182-.335v-10.175a.862.862 0 0 0-.336-.699ZM326.35 409.461l-6.513-3.788a.748.748 0 0 0-.797 0l-6.568 3.788a.807.807 0 0 0-.392.699v7.561a.857.857 0 0 0 .392.699l6.513 3.717a.815.815 0 0 0 .768 0l3.941-2.208a.361.361 0 0 0 .21-.335.347.347 0 0 0-.21-.336l-6.596-3.787a.375.375 0 0 1-.21-.336v-2.32a.336.336 0 0 1 .21-.335l2.04-1.188a.387.387 0 0 1 .392 0l2.054 1.188a.387.387 0 0 1 .142.142.384.384 0 0 1 .054.193v1.873a.379.379 0 0 0 .209.349.387.387 0 0 0 .392 0l3.969-2.292a.811.811 0 0 0 .391-.684v-1.901a.85.85 0 0 0-.391-.699ZM308.405 398.266l-3.9-2.222a.334.334 0 0 0-.391 0 .387.387 0 0 0-.142.142.387.387 0 0 0-.054.193v10.077a.315.315 0 0 1-.125.238.258.258 0 0 1-.28 0l-1.663-.937a.79.79 0 0 0-.783 0l-6.568 3.802a.781.781 0 0 0-.392.671v7.575a.82.82 0 0 0 .392.698l6.568 3.788a.725.725 0 0 0 .783 0l6.569-3.788a.79.79 0 0 0 .405-.698v-18.854a.77.77 0 0 0-.419-.685Zm-4.529 17.065a.204.204 0 0 1-.018.101.214.214 0 0 1-.065.081l-2.251 1.285a.192.192 0 0 1-.209 0l-2.25-1.285a.233.233 0 0 1-.071-.079.22.22 0 0 1-.027-.103v-2.6a.188.188 0 0 1 .024-.098.182.182 0 0 1 .074-.069l2.25-1.3a.192.192 0 0 1 .209 0l2.251 1.3a.164.164 0 0 1 .067.071.16.16 0 0 1 .016.096v2.6Z"/><path d="M319.488 412.312h-.154l-1.258.741s-.07.07-.07.126v1.397s0 .126.07.14l1.258.727a.158.158 0 0 0 .154 0l1.258-.727s.069-.084.069-.14v-1.397s0-.112-.069-.126l-1.258-.741ZM290.851 417.721v-7.547a.77.77 0 0 0-.392-.671l-6.54-3.774a.797.797 0 0 0-.392-.111.84.84 0 0 0-.391.111l-6.527 3.774a.78.78 0 0 0-.405.671v7.547a.752.752 0 0 0 .405.671l6.527 3.773a.78.78 0 0 0 .783 0l6.54-3.773a.776.776 0 0 0 .392-.671Z"/></g><path d="M175.683 343.399a4.661 4.661 0 0 0-.024.428v24.187c0 2.602 2.05 4.697 4.595 4.697h.183v9.569c0 .987.391 1.933 1.085 2.631a3.695 3.695 0 0 0 5.24 0 3.729 3.729 0 0 0 1.086-2.631v-9.569h9.306v9.569c0 .987.39 1.933 1.085 2.631a3.696 3.696 0 0 0 5.24 0 3.728 3.728 0 0 0 1.085-2.631v-9.569h.181c2.546 0 4.596-2.096 4.596-4.697v-24.187c0-.143-.005-.286-.018-.428h-33.64ZM215.294 345.552c-.983 0-1.925.392-2.62 1.09a3.735 3.735 0 0 0-1.085 2.632v15.964c0 .987.391 1.934 1.086 2.632a3.696 3.696 0 0 0 5.24 0 3.73 3.73 0 0 0 1.085-2.632v-15.966c0-.987-.391-1.933-1.086-2.631a3.697 3.697 0 0 0-2.62-1.089ZM169.706 345.552a3.693 3.693 0 0 0-2.62 1.089 3.729 3.729 0 0 0-1.086 2.631v15.965c0 .987.39 1.933 1.085 2.631a3.696 3.696 0 0 0 5.24 0 3.728 3.728 0 0 0 1.085-2.631v-15.965c0-.986-.39-1.933-1.084-2.63a3.696 3.696 0 0 0-2.62-1.09ZM209.208 341.81c-.049-3.589-1.582-6.866-4.088-9.386l3.139-5.459a.397.397 0 0 0-.148-.528.391.391 0 0 0-.528.136l-3.044 5.296c-2.636-2.39-6.195-3.997-10.177-4.383h-3.724c-3.982.386-7.541 1.993-10.177 4.383l-3.044-5.296a.38.38 0 0 0-.236-.183.397.397 0 0 0-.411.14.394.394 0 0 0-.028.435l3.137 5.459c-2.505 2.519-4.038 5.796-4.088 9.386h33.417Zm-11.21-6.658c-.003-1.039.853-1.883 1.911-1.886 1.059-.003 1.919.836 1.924 1.875v.011c.003 1.038-.853 1.883-1.912 1.886-1.059.002-1.919-.837-1.923-1.876v-.01Zm-14.31 0c-.002-1.039.853-1.883 1.912-1.886 1.058-.003 1.919.836 1.923 1.875v.011c.003 1.038-.852 1.883-1.911 1.886-1.06.002-1.92-.837-1.924-1.876v-.01Z" fill="#1C7CD6"/><path fill-rule="evenodd" clip-rule="evenodd" d="M393.691 338.912c-.205-6.806 2.438-9.811 7.932-9.909 5.486-.106 8.926 2.798 9.631 6.609.697 3.803.295 8.814 1.697 11.416 1.394 2.608 2.288 4.608 4.69 7.613 2.394 3.004 3.887 6.061 4.585 9.772.703 3.704 1.098 5.454-.698 7.362-1.795 1.902-4.985 5.005-7.38 1.499-1.204-1.757-1.333-3.94.697-4.404 1.296-.304 2.228-.205 3.19.297.971.502 1.198.266.038-.601-1.167-.868-1.401-.068-1-1.468.401-1.399.925-3.917-.167-6.685-.507-1.278-2.227-4.776-3.841-5.636-.144-.084-.568-.258-.28.099.432.54 2.757 3.978 3.417 6.023.704 2.199.803 4.298.439 5.628-.363 1.339-1 1.871-1.765 1.871-.765 0-1.462.365-1.462-1.399 0-1.772.182-4.442-.765-6.701-.948-2.251-2.098-3.803-2.349-4.753-.243-.951-.796-3.506-1.941-4.959-1.151-1.452-1.652-2.403-1.053-4.061.598-1.65.151-2.099-1.046-2.448-1.197-.349-2.796-.852-3.19-1.658-.401-.798-.151-2.403.743-2.799.902-.403 2.394.145 2.447 1.301.053 1.148-.5 1.749-.348 2 .153.251.947.654 1.349.206.393-.456.5-1.856.098-3.157-.402-1.3-.599-2.205-2.045-2.502-1.447-.304-2.098-.206-2.796.7-.698.896-1 2.349-.796 3.407.197 1.05-.204.448-.901.395-.697-.046-.5-.099-1.198-.046-.697.046-.445-.403-.5-1.156-.045-.753-.144-2.304-1.197-2.905-1.046-.601-2.841.099-2.796 2.609.052 2.502.902 3.704 1.402 2.799.5-.898.25-.448-.25-.852-.5-.395-.849-2.053-.303-2.548.553-.502 1.197-.502 1.553-.205.349.304.894 1.308.796 1.955-.099.654-.152.699-.796 1.155-.651.448-.901.852-1.652 1.346-.75.502-1.045 1.659-.446 1.955.599.304.652.251 1.145 1.004.499.753 1.348 1.103 3.447.753 2.091-.35 2.955-.851 4.538-1.407 1.152-.395.75-.35 1.152-.798.394-.448 1.046.197.446.6-.6.404-1.948.799-2.947 1.149-.993.357-2.145 1.354-4.236 1.255-2.098-.099-.651-.053-1.303-.099-.644-.053-.947.045-.25.547.705.503.652.654 1.25.852.599.206 1.394.206 2.349-.144.947-.358 3.342-1.407 4.091-1.909.742-.502 1.341.152.598.654-.75.502-.955.35-1.652.798-.697.457-1.993 1.202-2.841 2.008-.849.798-1.046.852-2.098.898-1.045.052-1.697-1.05-2.144-1.552-.448-.502-.402-.798-.948-1.4-.545-.601-.598-.456-.697.198-.099.654-.848 2.304-1.499 3.407-.644 1.103-.697 2.457-.599 3.408.099.95-.151 1.049-.894 2.152-.749 1.102-2 4.357-2.197 5.407-.196 1.05-.445 3.209-.348 4.457.098 1.255-.25 1.506-1.152.654-.894-.852-1.197-1.803-1.144-3.058.045-1.072.189-1.825.326-2.22.136-.396.007-.669-.281-.182-.614 1.064-.644 2.905-.492 3.559.144.646.197 1.802 1.841 3.354 1.652 1.551 4.046 3.704 6.039 5.156 2 1.453 2.698 3.255-.25 4.556 1.849 2.51 2.849 3.81 2.046 5.46 1.652-.95 1.015-3.194.219-3.795-.803-.601-.318-1.064.379-.608.697.448.947 1.346 3.698 1.301 2.742-.053 5.697-.327 7.35-2.738 1.643-2.403 1.962-.38 1.56 1.027-.394 1.399-1.379 4.563.167 4.266.197-1.856.651-3.46.651-5.46 0-2.009.197-2.975.046-5.879-.152-2.799 1.053-2.989 2.296-2.989 1.25 0 .848.805.052.752-.803-.052-1.645.251-1.697 2.305-.052 2.053 0 1.856.348 3.704.348 1.856.402 2.403.099 4.457-.296 2.053-.546 3.156.803 4.411 1.341 1.255 3.386.898 4.44.099 1.045-.799 3.038-2.654 4.834-3.255 1.803-.601 3.697-1.05 4.697-2.054.993-1.003.743-1.703-.303-2.251-1.045-.555-2.045-.304-2.841-1.202-.804-.905-1.198-2.905-.902-3.962.303-1.05.652-.601.652.152 0 .754.046 1.453.795 2.403.75.951 1.447 1.407 2.645 2.152 1.197.754 1.947 1.955.446 3.012-1.493 1.05-2.342 1.651-3.593 2.153-1.243.502-3.288 1.703-4.539 2.951-1.25 1.255-1.947 2.358-4.394 2.358-2.439 0-3.561-.594-4.288-2.054-.501-1.003-.751-.851-1.895-.904-1.152-.046-4.993-.099-7.986-.046-2.993.046-3.993.548-5.341 1.65-1.341 1.103-1.842 1.955-4.387 1.103-2.546-.852-3.895-1.803-7.684-2.555-3.796-.753-1.75-.403-4.046-.905-2.296-.495-2.144-1.597-1.841-2.502.296-.898 1.046-2.305.393-4.153-.644-1.856-.393-3.757 1.349-3.757 1.75 0 3.394.35 4.091-1.955.696-2.305.901-.502.697.099-.197.601-.296 2.251-1.842 2.502-1.545.252-1.894-.099-2.849-.099-.947 0-1.341.655-.848 1.757.5 1.103 1.053 2.251.955 3.202-.107.951-.205 1.301-.902 2.205-.697.898-.599 1.354.651 1.651 1.243.305 3.493.905 5.586 1.407 2.098.494 2.25.494 5.887 1.453 3.645.95 4.645-.753 4.94-2.807.303-2.053-1.098-4.008-2.394-5.963s-2.691-4.205-4.388-6.258c-1.698-2.054-2.698-2.206-3.546-1.757-.849.457-1 .357-1.046-.798-.052-1.149-.152-1.902.796-3.607.947-1.704 1.795-3.559 2.795-6.411 1.001-2.852 1.895-3.407 3.593-5.864 1.698-2.448.947-1.498 2.144-3.148 1.198-1.659.849-1.354.751-3.963-.099-2.601-.197-4.106-.296-7.514l.004-.001Zm-4.767 20.368c.258.312.622-.426 1.001-.707a1.317 1.317 0 0 0 .409-1.195c-.038-.236-.417-.159-.493-.076-.236.237-.182.617-.348.944-.19.395-.826.715-.569 1.034Zm21.45-10.466c.538.457.872.853 1.167.176.304-.677.304-.951-.424-1.225-.72-.282-1.046-.579-1.372-.951-.325-.38-.439.267-.174.898.326.776.515.868.803 1.102Zm-11.244-6.212c-.371-.076-.818-.046-1.068.251-.099.099-.053.38.121.456.227.099.379-.129.424-.304.023-.076.053-.175.129-.198.099-.052.243-.007.349-.052.121-.046.076-.153.045-.153Zm1.766.069c.151.227.424.227.651.326.122.053.372.13.446-.045.175-.555-.577-.38-.924-.38-.076 0-.25-.023-.174.099h.001Zm3.637-2.427c.341.015.803.624.848 1.331.008.106.296.099.357-.007.159-.281.045-.594-.03-.928-.062-.274-.387-.555-.66-.677a1.013 1.013 0 0 0-.614-.092c-.06.031-.272.35.099.373Zm-7.433-.175c-.311.022-.197.266-.182.463.432.244.469.791.56 1.225.008.167.258.091.281.038.189-.35-.046-.745-.129-1.156-.076-.213-.22-.456-.417-.601-.03-.03-.083.031-.113.031Zm9.531-7.674c-.311-.251-.796-.35-.939.06-.152.35-.092.708-.175 1.088 0 .122-.152.152-.234.266-.122.144-.092.327-.031.38.288.297.818-.289 1.205-.494.288-.183.704.053 1.023-.152.09-.061.12-.205.03-.32-.204-.357-.56-.562-.879-.828Z" fill="#1C7CD6"/><path d="M648.92 333c-13.256 0-12.428 5.736-12.428 5.736l.015 5.943h12.652v1.784h-17.677s-8.482-.96-8.482 12.385c0 13.346 7.403 12.873 7.403 12.873h4.421v-6.193s-.238-7.388 7.285-7.388h12.546s7.049.115 7.049-6.797v-11.427S662.774 333 648.92 333Zm-6.976 3.993a2.283 2.283 0 0 1 2.104 1.402 2.27 2.27 0 0 1-2.099 3.141h-.005a2.27 2.27 0 0 1-2.275-2.266v-.005a2.266 2.266 0 0 1 2.272-2.27l.003-.002Z" fill="#1C7CD6"/><path d="M649.08 385c13.257 0 12.429-5.733 12.429-5.733l-.014-5.942h-12.654v-1.784h17.676s8.483.96 8.483-12.387c0-13.346-7.405-12.875-7.405-12.875h-4.419v6.193s.238 7.387-7.286 7.387h-12.545s-7.049-.113-7.049 6.798v11.428S635.225 385 649.078 385h.002Zm6.972-3.993a2.28 2.28 0 0 1-1.608-.664 2.262 2.262 0 0 1-.667-1.603v-.005a2.248 2.248 0 0 1 .664-1.604 2.287 2.287 0 0 1 1.607-.666h.004a2.281 2.281 0 0 1 2.103 1.398c.114.276.173.571.174.869v.003a2.276 2.276 0 0 1-.665 1.605 2.264 2.264 0 0 1-.737.492 2.263 2.263 0 0 1-.87.174h-.005v.001ZM787.184 359.994l-.361 1.065a.374.374 0 0 1-.147.205.35.35 0 0 1-.24.06l-20.263.045c-.173 0-.216-.09-.13-.221l.9-1.199a.616.616 0 0 1 .473-.22h19.533c.191 0 .278.119.235.265Zm-1.156 3.811h-8.571a.544.544 0 0 0-.243.081.574.574 0 0 0-.183.184l-.6 1.12c-.087.135-.043.266.127.266l9.34.045a.32.32 0 0 0 .206-.097.339.339 0 0 0 .094-.214l.086-1.064c.011-.168-.086-.321-.256-.321Zm3.168-8.152h-15.293a.604.604 0 0 0-.473.221l-.9 1.195c-.086.135-.043.224.13.224l15.51.041a.643.643 0 0 0 .426-.265l.722-1.151c.094-.134.051-.265-.133-.265h.011Zm59.722 19.273c-2.792 2.923-6.377 4.902-10.279 5.674-1.16.221-2.315.266-3.428.4-3.901-.09-7.455-1.244-10.474-3.9a14 14 0 0 1-4.284-6.904 18.486 18.486 0 0 1-1.806 2.989c-3.059 4.221-7.069 6.836-12.187 7.546-4.197.579-8.094-.265-11.522-2.925a13.79 13.79 0 0 1-3.733-4.319 14.284 14.284 0 0 1-1.71-5.517c-.556-4.83.817-9.171 3.645-12.982 2.9-4.051 7.194-6.795 11.995-7.665 4.027-.748 7.881-.266 11.352 2.17a13.8 13.8 0 0 1 4.97 6.246c.256.4.087.624-.43.747-2.698.71-4.54 1.241-7.195 1.95-.643.176-.686.221-1.242-.444a5.774 5.774 0 0 0-2.016-1.681c-2.698-1.375-5.313-.975-7.754.665a9.293 9.293 0 0 0-3.293 3.593 9.702 9.702 0 0 0-1.078 4.823c.044 3.545 2.402 6.47 5.779 6.96 2.911.396 5.353-.665 7.282-2.925.386-.49.722-1.02 1.156-1.64h-8.268c-.899 0-1.112-.575-.813-1.33.557-1.375 1.586-3.68 2.167-4.83.093-.216.245-.399.438-.526.193-.126.418-.19.646-.184h13.79a19.053 19.053 0 0 1 2.962-5.761c3.128-4.251 6.899-6.47 11.995-7.4 4.37-.796 8.484-.355 12.212 2.26 3.384 2.395 5.483 5.63 6.039 9.881.726 5.992-.932 10.867-4.916 15.029Zm-3.511-11.831a12.766 12.766 0 0 0-.13-1.461c-.769-4.386-4.67-6.87-8.74-5.895-3.973.934-6.556 3.545-7.495 7.711a7.515 7.515 0 0 0 .509 4.923 7.16 7.16 0 0 0 3.432 3.452 7.614 7.614 0 0 0 6.981-.265c3.385-1.816 5.227-4.651 5.443-8.465Z" fill="#1C7CD6"/><g opacity=".8" fill="#1C7CD6" fill-opacity=".7"><path d="M750.988 416.25c0-3.01-3.733-5.866-9.455-7.636 1.324-5.895.733-10.585-1.854-12.087a3.992 3.992 0 0 0-2.045-.518V396c-2.522 0-5.823 1.816-9.162 4.967-3.338-3.132-6.638-4.93-9.156-4.93v.009a4.037 4.037 0 0 0-2.071.519c-2.577 1.501-3.156 6.182-1.826 12.058-5.705 1.783-9.419 4.625-9.419 7.627 0 3.003 3.733 5.867 9.455 7.637-1.324 5.896-.733 10.585 1.853 12.087a4 4 0 0 0 2.063.518c2.522 0 5.824-1.816 9.157-4.967 3.338 3.132 6.64 4.93 9.161 4.93a4.053 4.053 0 0 0 2.073-.518c2.577-1.502 3.155-6.182 1.825-12.059 5.687-1.766 9.401-4.617 9.401-7.628Zm-13.363-18.18v.01c.364-.011.724.072 1.046.241 1.247.723 1.788 3.475 1.367 7.016a29.107 29.107 0 0 1-.468 2.725 44.037 44.037 0 0 0-5.823-1.01 45.32 45.32 0 0 0-3.816-4.635c2.985-2.804 5.787-4.339 7.694-4.347Zm-4.988 25.419a47.032 47.032 0 0 1-4.146.185c-1.394 0-2.77-.064-4.127-.176a51.258 51.258 0 0 1-2.219-3.522 51.848 51.848 0 0 1-1.908-3.689 49.688 49.688 0 0 1 1.899-3.698 50.796 50.796 0 0 1 2.206-3.541 47.437 47.437 0 0 1 4.146-.185c1.394 0 2.77.065 4.127.177a51.231 51.231 0 0 1 2.219 3.521 51.649 51.649 0 0 1 1.908 3.689 53.618 53.618 0 0 1-1.899 3.699 49.028 49.028 0 0 1-2.206 3.536v.004Zm-12.272-2.484c.431.744.873 1.466 1.324 2.169a40.99 40.99 0 0 1-3.761-.733c.34-1.195.762-2.428 1.238-3.661.374.737.769 1.484 1.199 2.221v.004Zm-2.466-10.925a43.914 43.914 0 0 1 3.778-.733 59.76 59.76 0 0 0-1.324 2.198 48.831 48.831 0 0 0-1.192 2.229 42.957 42.957 0 0 1-1.26-3.701l-.002.007Zm18.718 10.9a55.78 55.78 0 0 0 1.192-2.23 40.229 40.229 0 0 1 1.266 3.689 41.15 41.15 0 0 1-3.778.742c.449-.725.898-1.458 1.32-2.208v.007Zm-.01-9.463a45.41 45.41 0 0 0-1.324-2.17c1.303.195 2.56.436 3.761.733a41.906 41.906 0 0 1-1.239 3.661 38.062 38.062 0 0 0-1.198-2.231v.007Zm-5.594-4.663a57.812 57.812 0 0 0-2.522-.064c-.853 0-1.715.019-2.549.064a35.847 35.847 0 0 1 2.522-2.965 38.01 38.01 0 0 1 2.549 2.959v.006Zm-12.757-8.489a2.02 2.02 0 0 1 1.055-.241v-.009c1.898 0 4.714 1.528 7.704 4.319a43.746 43.746 0 0 0-3.788 4.624 42.683 42.683 0 0 0-5.832 1.019 27.856 27.856 0 0 1-.477-2.686c-.431-3.548.1-6.301 1.338-7.033v.007Zm-2.317 23.532a28.382 28.382 0 0 1-2.567-.945c-3.246-1.4-5.347-3.233-5.347-4.69 0-1.458 2.096-3.299 5.347-4.69a28.999 28.999 0 0 1 2.538-.936 44.881 44.881 0 0 0 2.064 5.645 44.16 44.16 0 0 0-2.029 5.61l-.006.006Zm3.404 12.549a2.156 2.156 0 0 1-1.037-.251c-1.247-.722-1.788-3.475-1.366-7.015.1-.871.266-1.784.468-2.725 1.916.467 3.861.804 5.822 1.01a45.2 45.2 0 0 0 3.816 4.634c-2.984 2.802-5.79 4.341-7.698 4.341l-.005.006Zm9.161-5.812a38.1 38.1 0 0 1-2.549-2.965c.825.037 1.669.065 2.522.065.853 0 1.714-.018 2.549-.065a36.161 36.161 0 0 1-2.516 2.957l-.006.008Zm10.217 5.525a2.02 2.02 0 0 1-1.055.24c-1.898 0-4.714-1.528-7.704-4.319a43.746 43.746 0 0 0 3.788-4.624 42.53 42.53 0 0 0 5.832-1.019c.206.89.365 1.79.477 2.697.437 3.533-.095 6.285-1.333 7.018l-.005.007Zm4.869-13.207c-.789.342-1.655.649-2.537.935a44.79 44.79 0 0 0-2.063-5.643 44.133 44.133 0 0 0 2.035-5.617c.908.287 1.765.602 2.577.945 3.247 1.4 5.347 3.234 5.347 4.69 0 1.456-2.107 3.293-5.353 4.683l-.006.007Z"/><path d="M728.481 420.492c2.314 0 4.191-1.896 4.191-4.236 0-2.339-1.877-4.235-4.191-4.235-2.315 0-4.191 1.896-4.191 4.235 0 2.34 1.876 4.236 4.191 4.236Z"/></g><path fill-rule="evenodd" clip-rule="evenodd" d="M312.578 564.755h-3.25l-1.249 7.501h2.993c2.25-.25 4.254-1 4.499-5.251.007-1.499-1.242-2.25-2.993-2.25ZM346.079 564.755h-3.251l-1.25 7.501h3c2.249-.25 4.254-1 4.501-5.251 0-1.499-1.251-2.25-3-2.25Z" fill="#1C7CD6" fill-opacity=".4"/><path fill-rule="evenodd" clip-rule="evenodd" d="M327.578 551c-20.158 0-36.499 8.508-36.499 18.999S307.415 589 327.578 589c20.163 0 36.499-8.508 36.499-19.001 0-10.492-16.341-18.999-36.499-18.999Zm-15.996 24.999h-4.499l-1 5.25h-4.75l4.001-20.25h9.248c4.001.25 6.001 2.251 6.001 5.752-.006 6.003-4.746 9.503-9.001 9.253v-.005Zm18.821-11.25h-3.744l-2.249 11.25h-4.762l4.001-20.25h4.749l-1 5.25h4.501c3.999.25 5.499 2.251 4.999 4.751l-1.749 10.249h-5l1.75-9.248c.25-1.246.25-1.996-1.501-1.996l.005-.006Zm14.68 11.25h-4.504l-1.001 5.25h-4.749l3.999-20.25h9.25c4.001.25 6 2.251 6 5.752 0 6.003-4.749 9.503-9 9.253l.005-.005Z" fill="#1C7CD6" fill-opacity=".4"/><g clip-path="url(#e)"><path d="M372.442 510.967c-.471 0-.922-.187-1.255-.52l-10.511-10.51v9.255a1.776 1.776 0 0 1-1.777 1.851 1.78 1.78 0 0 1-1.662-1.148 1.776 1.776 0 0 1-.114-.703v-13.544a1.777 1.777 0 0 1 3.033-1.255l10.511 10.511v-9.259a1.78 1.78 0 0 1 1.776-1.705 1.78 1.78 0 0 1 1.777 1.705v13.544a1.776 1.776 0 0 1-1.778 1.778Zm8.238-17.079-.487.901-3.775 6.859-.489.868.489.865 3.775 6.637.508.901h9.88l.489-.997 2.82-5.685 1.265-2.574h-2.862l-7.208.021a1.771 1.771 0 0 0-1.304.494 1.779 1.779 0 0 0 1.304 3.059l4.352-.024-1.066 2.153h-5.595l-2.775-4.883 2.796-5.06h5.952l1.387 2.847h3.577l-2.255-5.406-.49-1H380.68v.024Zm17.994-.048a1.848 1.848 0 0 0-1.754 1.802v4.628h3.55v-4.607a1.845 1.845 0 0 0-1.802-1.802l.006-.021Zm5.7 17.157a1.776 1.776 0 0 1-1.778-1.775v-13.544a1.771 1.771 0 0 1 .494-1.304 1.779 1.779 0 0 1 3.059 1.304v9.256l10.511-10.511a1.772 1.772 0 0 1 2.735.267c.195.292.299.636.298.988v13.544a1.779 1.779 0 0 1-3.553 0v-9.252l-10.511 10.51c-.333.333-.784.52-1.255.52v-.003Zm28.476-8.559 5.525-5.505a1.775 1.775 0 1 0-2.507-2.516l-5.553 5.526-5.535-5.514a1.773 1.773 0 0 0-2.512.004 1.779 1.779 0 0 0 .005 2.512l5.525 5.505-5.507 5.49a1.764 1.764 0 0 0-.523 1.255 1.784 1.784 0 0 0 .518 1.257c.165.165.361.296.576.386.215.09.446.136.679.136.234.001.465-.045.68-.134.216-.088.412-.219.577-.384l5.517-5.498 5.517 5.495a1.762 1.762 0 0 0 1.936.382 1.784 1.784 0 0 0 .96-.963 1.784 1.784 0 0 0-.002-1.36 1.767 1.767 0 0 0-.387-.575l-5.507-5.49.018-.009Zm-34.188 8.52a1.841 1.841 0 0 1-1.754-1.802v-7.439h3.55v7.436a1.841 1.841 0 0 1-1.802 1.802" fill="#1C7CD6" fill-opacity=".4"/></g><path d="M526.771 494h-4.048v6.201a6.445 6.445 0 0 0-1.759-.211c-4.231 0-6.964 2.694-6.964 6.84 0 4.303 2.575 6.548 7.521 6.548 1.657 0 3.18-.157 5.256-.554L526.771 494Zm-4.048 15.998c-.46.07-.925.105-1.391.105-2.076 0-3.206-1.187-3.206-3.354 0-2.217 1.181-3.484 3.231-3.484.464-.01.927.061 1.366.211v6.522ZM573.822 503.535l1.385-2.934a25.354 25.354 0 0 0-5.282-.581c-5.912 0-9.245 2.614-9.245 7.243 0 3.724 2.26 6.073 5.807 6.073 1.052 0 1.84-.157 2.628-.554v.079c0 2.588-1.13 3.67-3.783 3.67a9.168 9.168 0 0 1-4.337-1.082v3.745c1.39.542 2.871.809 4.362.787 3.101 0 5.283-.976 6.544-2.957.867-1.346 1.156-2.992 1.156-6.47v-1.102c-.026-.554-.026-1.102-.053-1.665l-.026-2.217-.052-1.716v-.423c.802.075-.19-.109.896.104Zm-4.71 6.255a5.012 5.012 0 0 1-1.525.265c-1.786 0-2.786-1.162-2.786-3.197 0-1.425.5-2.429 1.471-2.991a4.43 4.43 0 0 1 2.332-.577h.42v.315l.027 1.347.026 1.875c0 .554.027 1.082.027 1.557l.008 1.406Z" fill="#1C7CD6" fill-opacity=".4"/><path d="M529.164 508.312c0 3.538-.184 4.881-.762 6.046-.553 1.137-1.42 1.875-3.206 2.721l3.761 1.795c1.786-.898 2.654-1.716 3.311-3.011.71-1.346.94-2.905.94-6.151v-9.427h-4.044v8.027ZM581.483 499.941c-4.126 0-6.702 2.666-6.702 6.944 0 4.119 2.496 6.681 6.544 6.681 4.099 0 6.675-2.666 6.675-6.919 0-4.144-2.471-6.706-6.517-6.706Zm-.08 10.352c-1.576 0-2.496-1.295-2.496-3.54s.92-3.538 2.523-3.538c1.549 0 2.444 1.321 2.444 3.538 0 2.245-.92 3.54-2.471 3.54ZM553.839 499.993c-1.998 0-3.968.292-6.359.925v12.305h4.046v-9.665a6.092 6.092 0 0 1 1.866-.29c1.445 0 1.971.581 1.971 2.139v7.816h4.043v-7.974c0-2.034-.262-2.991-1.097-3.856-.896-.924-2.394-1.4-4.47-1.4ZM533.211 494.026h-4.047v4.172h4.047v-4.172ZM541.015 499.993a12.113 12.113 0 0 0-5.361 1.216v3.149c1.578-.819 3.259-1.241 4.757-1.241 1.025 0 1.393.265 1.393 1.003v.898c-4.967.423-6.99 1.743-6.99 4.596 0 2.639 1.525 3.828 4.914 3.828a44.222 44.222 0 0 0 5.782-.449v-8.265c0-1.689-.105-2.481-.446-3.089-.607-1.091-1.973-1.646-4.049-1.646Zm.971 10.405c-.642.119-1.292.18-1.945.184-1.096 0-1.603-.37-1.603-1.162 0-1.056.869-1.478 3.55-1.743l-.002 2.721ZM710.448 520.798c-.339-.341-.681-.647-1.021-.985a16.162 16.162 0 0 0-3.541-3.43c-1.09-.746-3.478-1.766-3.916-3.02l-.069-.069a13.532 13.532 0 0 0 2.35-.544c1.159-.306 2.211-.237 3.406-.543.544-.136 1.089-.306 1.634-.474v-.306c-.614-.61-1.058-1.425-1.704-2.003a45.598 45.598 0 0 0-5.617-4.175c-1.058-.679-2.42-1.121-3.542-1.699-.408-.203-1.089-.289-1.327-.645-.614-.745-.956-1.734-1.397-2.6-.988-1.867-1.942-3.936-2.794-5.907-.612-1.323-.985-2.647-1.739-3.869-3.507-5.779-7.321-9.27-13.179-12.697-1.257-.714-2.756-1.02-4.347-1.393-.852-.035-1.704-.101-2.556-.136-.545-.237-1.09-.867-1.565-1.188-1.942-1.222-6.956-3.872-8.376-.372-.919 2.204 1.362 4.377 2.144 5.49.58.78 1.328 1.664 1.739 2.546.238.578.307 1.187.545 1.8.545 1.494 1.055 3.156 1.771 4.548.366.733.787 1.436 1.261 2.104.272.376.748.543.852 1.156-.478.679-.513 1.696-.786 2.546-1.226 3.837-.747 8.591.989 11.408.545.847 1.837 2.716 3.576 2.003 1.531-.613 1.191-2.546 1.632-4.245.104-.408.035-.679.241-.951v.069c.475.951.953 1.867 1.394 2.818 1.058 1.664 2.898 3.395 4.428 4.548.818.613 1.449 1.665 2.487 2.023v-.101h-.07a3.726 3.726 0 0 0-.782-.679 16.138 16.138 0 0 1-1.771-2.023 43.859 43.859 0 0 1-3.814-6.178c-.545-1.052-1.023-2.208-1.449-3.26-.206-.407-.206-1.02-.545-1.222-.51.745-1.261 1.393-1.635 2.312-.646 1.444-.716 3.259-.953 5.126-.137.035-.07 0-.137.066-1.089-.271-1.449-1.39-1.872-2.34-1.023-2.41-1.194-6.282-.307-9.065.238-.714 1.261-2.953.852-3.632-.206-.648-.887-1.02-1.261-1.529a13.662 13.662 0 0 1-1.226-2.173c-.817-1.901-1.226-4.005-2.11-5.907-.408-.884-1.124-1.8-1.704-2.6-.646-.916-1.362-1.561-1.872-2.647-.171-.373-.409-.986-.136-1.393a.54.54 0 0 1 .475-.442c.443-.373 1.704.104 2.148.306a17.557 17.557 0 0 1 3.37 1.696c.476.341.986.986 1.6 1.156h.716c1.09.237 2.319.067 3.336.373a21.798 21.798 0 0 1 4.904 2.344 30.154 30.154 0 0 1 10.625 11.61c.409.78.58 1.494.954 2.312.713 1.664 1.599 3.361 2.318 4.99.719 1.63 1.397 3.225 2.42 4.549.51.714 2.554 1.086 3.478 1.445.681.306 1.739.578 2.351.95 1.159.714 2.318 1.529 3.405 2.312.545.407 2.246 1.257 2.348 1.936-2.725-.066-4.834.205-6.605.951-.51.202-1.328.202-1.397.849.272.272.307.711.545 1.087a7.94 7.94 0 0 0 1.77 2.069c.716.543 1.432 1.086 2.18 1.563 1.327.815 2.826 1.289 4.121 2.104.748.477 1.499 1.086 2.247 1.595.373.272.614.714 1.089.884v-.101c-.272-.321-.342-.763-.579-1.101Z" fill="#1C7CD6" fill-opacity=".4"/><path d="M672.309 481.38a5.415 5.415 0 0 0-1.394.171v.069h.066c.273.543.751.916 1.09 1.39.273.543.51 1.087.783 1.63l.069-.067c.476-.341.716-.884.716-1.699a6.67 6.67 0 0 1-.408-.711c-.206-.341-.65-.511-.922-.783ZM783.801 526.629c.7-3.92-.688-5.717-.688-5.717s-1.757-2.821-3.825-1.61c-.999.586-2.672 2.269-4.67 4.7v-.007a96.09 96.09 0 0 0-2.05 2.622 96.755 96.755 0 0 0-1.95 2.696c-.612.877-1.237 1.797-1.85 2.733-.526.812-1.063 1.629-1.587 2.497-.025.037-.038.062-.063.1l-.113.187c-.55.912-1.112 1.835-1.65 2.784-.539.949-1.087 1.935-1.613 2.921a89.532 89.532 0 0 0-1.3 2.521c-.087.175-.162.337-.251.512a64.496 64.496 0 0 0-1.413 3.096 70.244 70.244 0 0 0-1.275 3.221c-.251.673-.462 1.309-.674 1.935a75.65 75.65 0 0 0-.476 1.585 44.83 44.83 0 0 0-.912 3.732.628.628 0 0 1-.025.161c-.3 1.493-.51 3.002-.628 4.519 0 .05-.012.1-.012.163-.753-1.198-2.751-2.36-2.751-2.36 1.438 2.073 2.526 4.136 2.688 6.154-.763.163-1.812-.075-3.037-.511 1.262 1.161 2.212 1.485 2.587 1.573-1.163.074-2.375.877-3.6 1.784 1.787-.724 3.225-1.011 4.267-.785-1.632 4.63-3.274 9.748-4.925 15.162a1.45 1.45 0 0 0 .975-.948c.288-.986 2.238-7.427 5.271-15.902.088-.237.176-.488.263-.725.025-.062.05-.136.075-.199.325-.887.65-1.798 1.004-2.722.075-.212.163-.423.237-.636v-.007l.013.007c.312-.849.637-1.698.975-2.572.088-.25.188-.486.275-.737.413-1.072.851-2.159 1.287-3.258.426-1.049.851-2.11 1.301-3.17.449-1.06.901-2.123 1.362-3.197a130.22 130.22 0 0 1 1.439-3.241c.494-1.068.975-2.122 1.474-3.171.176-.376.363-.761.55-1.136.313-.649.638-1.298.95-1.934.013-.038.038-.063.05-.101a171.455 171.455 0 0 1 1.55-2.97c.564-1.036 1.13-2.06 1.688-3.046a77.009 77.009 0 0 1 1.801-2.984.812.812 0 0 0 .094-.174c.6-.948 1.201-1.847 1.814-2.722a44.667 44.667 0 0 1 3.91-4.904c.101-.113.151-.163.151-.163-.05.05-.101.112-.151.163-.424.473-1.724 1.972-3.674 4.967l.045.01h-.045a70.052 70.052 0 0 0-1.757 2.821c-.037.05-.062.113-.1.163a97.218 97.218 0 0 0-1.738 3.032c-.524.95-1.075 1.973-1.65 3.084-.502.961-1.013 1.973-1.537 3.058h.007a4.776 4.776 0 0 0-.232.484c-.201.423-.413.861-.628 1.298-.225.474-.463.974-.687 1.472-.113.251-.237.513-.35.762-.363.773-.713 1.573-1.089 2.396a224.553 224.553 0 0 0-1.374 3.158c-.45 1.049-.901 2.123-1.35 3.246-.438 1.061-.879 2.16-1.313 3.283-.4 1.011-.801 2.035-1.2 3.108-.025.05-.037.1-.062.15-.401 1.061-.791 2.14-1.204 3.252-.012.024-.034.089-.046.114h.011-.011c-.063.138-.126.301-.189.462-.312.861-.637 1.749-.95 2.647 0 .013-.012.025-.012.038-.05.125-.087.25-.137.386-.213.612-.4 1.149-.826 2.397.701.324 1.263 1.16 1.801 2.121a3.749 3.749 0 0 0-1.255-2.631c3.463.149 6.45-.725 7.988-3.246a6.54 6.54 0 0 0 .377-.712c-.694.895-1.573 1.27-3.204 1.187 2.413-1.073 3.613-2.109 4.688-3.819.251-.413.502-.849.753-1.336-2.113 2.16-4.55 2.772-7.113 2.309-.038-.012-.06-.062-.098-.075 2.301-.287 5.363-2.005 7.351-4.135a18.632 18.632 0 0 0 2.51-3.483 29.828 29.828 0 0 0 1.612-3.358 44.665 44.665 0 0 0 1.288-3.509 6.995 6.995 0 0 1-1.8.627l-.362.074c-.126.025-.251.037-.363.062 2.15-.823 3.5-2.421 4.488-4.368a7.735 7.735 0 0 1-2.588 1.135c-.149.038-.3.063-.462.088-.037 0-.075.012-.113.012a8.689 8.689 0 0 0 1.925-1.074c.113-.086.225-.174.338-.274.162-.149.325-.299.476-.449.099-.1.187-.2.287-.313.219-.26.42-.535.6-.823.063-.088.112-.187.174-.275.076-.137.138-.274.201-.412.3-.599.537-1.135.724-1.61.101-.237.176-.449.251-.662.023-.081.052-.16.087-.237.075-.224.138-.424.188-.611.058-.206.103-.415.137-.627a1.872 1.872 0 0 1-.251.174c-.65.388-1.757.737-2.663.9-.126.024-.212.037-.313.062h-.013l.051-.039c1.757-.811 2.55-1.548 3.313-2.608.2-.288.413-.6.613-.912a35.774 35.774 0 0 0 1.779-3.093 34.767 34.767 0 0 0 1.351-2.959c.205-.523.383-1.057.532-1.6.112-.423.199-.823.262-1.198h-.033l.022-.01Z" fill="#1C7CD6" fill-opacity=".4"/><g clip-path="url(#f)" fill="#1C7CD6" fill-opacity=".7" opacity=".8"><path d="M516.412 414.826c-.272-.336-.242-.854.091-1.128l3.602-3.233c1.089 1.799 1.543 3.903 1.362 5.976l-4.692-1.372a.6.6 0 0 1-.363-.243ZM514.263 411.624c-.454 0-.787-.365-.817-.792l-.272-4.879c.333.061.635.122.968.183a9.215 9.215 0 0 1 4.51 2.501l-4.026 2.896a.714.714 0 0 1-.363.091ZM516.109 417.905l4.813.824a9.598 9.598 0 0 1-3.783 4.787l-1.846-4.482c-.061-.153-.061-.305-.03-.488a.815.815 0 0 1 .846-.641ZM513.325 416.534l-1.332.64-1.331-.64h-.001l-.302-1.433.908-1.159h1.483l.908 1.159-.333 1.433ZM510.389 411.289a.8.8 0 0 1-1.059.183l-3.965-2.835a9.161 9.161 0 0 1 5.448-2.654l-.273 4.971c-.03.122-.06.244-.151.335Z"/><path d="m490.081 419.339 3.783-16.557c.181-.853.787-1.585 1.573-1.982l15.315-7.348a2.943 2.943 0 0 1 1.241-.274c.424 0 .878.091 1.271.244l15.315 7.378c.788.366 1.363 1.098 1.574 1.982l3.784 16.557a3.08 3.08 0 0 1-.575 2.5l-10.593 13.264a2.878 2.878 0 0 1-2.271 1.097h-16.98a2.88 2.88 0 0 1-2.27-1.097l-10.593-13.264a2.867 2.867 0 0 1-.574-2.5Zm6.658.397c.091 0 .152 0 .243-.031.03-.03.06-.03.09-.03.061 0 .121-.031.182-.031.188-.052.37-.124.544-.213.091-.031.182-.092.272-.122h.031c.575-.214 1.089-.397 1.574-.457h.06c.182 0 .273.091.394.151.03 0 .03.03.061.03l.363-.061c.302.946.726 1.891 1.271 2.745 1.029 1.646 2.391 2.988 3.995 3.933l-.151.366c0 .03.03.03.03.061.03.152.091.274.03.488-.151.457-.454.914-.787 1.433v.03c-.06.092-.121.152-.181.244a2.761 2.761 0 0 0-.333.488.697.697 0 0 0-.091.152c0 .031-.03.031-.03.061a1.116 1.116 0 0 0-.061.763c.061.244.243.427.454.548.113.059.237.09.364.092.363 0 .726-.214.907-.58a.103.103 0 0 0 .031-.061c.03-.061.06-.091.091-.152.09-.183.121-.366.181-.549l.091-.274v-.03c.212-.58.394-1.098.635-1.525a.566.566 0 0 1 .395-.275c.03-.03.03-.03.06-.03l.182-.335c.514.184 1.04.337 1.573.457a10.94 10.94 0 0 0 2.634.305 11.748 11.748 0 0 0 4.237-.793l.212.397c.03.03.03.03.06.03.121.062.273.092.394.275.273.427.424.915.636 1.525l.091.274c.06.183.091.335.182.548.03.031.06.092.09.153a.099.099 0 0 1 .03.061c.182.335.545.579.908.579a.79.79 0 0 0 .363-.091c.454-.214.636-.793.394-1.311a.11.11 0 0 1-.03-.061.685.685 0 0 0-.09-.153c-.122-.183-.212-.335-.334-.487-.06-.092-.121-.153-.181-.244v-.031c-.333-.518-.606-.976-.787-1.433a.636.636 0 0 1 .06-.488c0-.03.031-.03.031-.061l-.182-.397c.454-.274.878-.548 1.302-.884a12.059 12.059 0 0 0 3.964-5.732l.423.062c.03 0 .03-.03.06-.03.091-.061.212-.153.395-.153h.06c.484.061.999.244 1.574.458h.03c.091.03.182.091.272.121.175.09.357.161.545.213.061 0 .121.031.182.031 0 .03.03.03.06.03a.656.656 0 0 0 .243.031c.484 0 .877-.275.968-.702.091-.487-.242-1.006-.787-1.128-.03-.03-.061-.03-.091-.03-.06 0-.121-.031-.181-.031-.212-.03-.395-.061-.575-.061-.091-.03-.212-.03-.303-.03h-.03c-.636-.061-1.181-.122-1.635-.275a.706.706 0 0 1-.333-.334c0-.03-.03-.03-.03-.061l-.394-.122c.394-2.805-.182-5.641-1.695-8.05-.031-.091-.091-.152-.152-.243l.303-.275v-.061c0-.152 0-.305.151-.457.364-.336.818-.61 1.362-.946.091-.061.182-.121.273-.152.178-.09.35-.192.514-.305.061-.03.091-.091.152-.122.03 0 .03-.03.06-.03.424-.368.515-.977.212-1.373-.151-.214-.424-.336-.696-.336a1.052 1.052 0 0 0-.665.245c0 .03-.031.03-.061.061-.06.061-.121.091-.151.122-.151.152-.273.274-.394.427-.091.061-.152.152-.212.213-.424.457-.817.854-1.211 1.128a.483.483 0 0 1-.272.092c-.061 0-.121-.031-.182-.031h-.059l-.303.214a11.641 11.641 0 0 0-5.992-3.415c-.545-.122-1.09-.183-1.635-.244l-.03-.397-.061-.061c-.091-.092-.212-.183-.242-.397-.06-.488.031-1.037.091-1.646v-.031c.03-.122.03-.213.06-.305a1.78 1.78 0 0 0 .091-.579v-.244a.972.972 0 0 0-.272-.701c-.182-.183-.424-.305-.666-.305-.515 0-.938.457-.938 1.006v.275c.03.213.06.397.091.579.03.091.06.213.06.305v.03c.06.61.121 1.159.091 1.647-.031.213-.151.305-.242.397l-.061.061-.03.397a12.037 12.037 0 0 0-6.326 2.53c-.424.366-.847.732-1.241 1.159l-.364-.245h-.06c-.06.03-.121.03-.182.03a.487.487 0 0 1-.272-.091c-.394-.274-.787-.64-1.211-1.098-.091-.061-.151-.152-.212-.213-.12-.153-.242-.275-.394-.427-.06-.03-.09-.092-.151-.122l-.06-.061c-.212-.153-.424-.244-.666-.244a.86.86 0 0 0-.696.335c-.303.397-.212 1.007.212 1.373 0 .03.03.03.06.061.061.061.121.091.151.122.165.112.337.214.515.304.091.061.181.092.272.153.544.335.999.609 1.362.945a.694.694 0 0 1 .151.458v.06l.302.275a12.622 12.622 0 0 0-1.694 3.994 12.171 12.171 0 0 0-.212 4.3l-.394.121c0 .031-.03.031-.03.061-.061.122-.121.244-.333.336-.484.152-.999.213-1.634.274h-.031c-.099.024-.2.034-.302.031-.182 0-.364.03-.575.061-.061 0-.121.03-.182.03 0 .031-.03.031-.06.031h-.031c-.544.152-.878.64-.878 1.006.123.396.517.701.97.701v.001Z"/><path d="M502.762 413.363a9.818 9.818 0 0 1 1.15-2.897l3.662 3.323c.089.094.152.21.182.336a.827.827 0 0 1-.575.976l-4.631 1.342a9.689 9.689 0 0 1 .212-3.079v-.001ZM511.69 419.979c.333-.183.726-.061.968.213l2.391 4.361c-.968.304-1.997.487-3.056.487a9.78 9.78 0 0 1-2.119-.244c-.303-.091-.606-.152-.878-.243l2.331-4.239c.098-.134.222-.248.363-.335ZM508.361 417.966c.363.183.515.58.424.946l-1.907 4.604c-1.15-.763-2.149-1.738-2.905-2.958a6.101 6.101 0 0 1-.878-1.86l4.842-.824a.96.96 0 0 1 .424.092Z"/></g><g clip-path="url(#g)" fill="#1C7CD6" fill-opacity=".4"><path d="M243.545 499.215h-4.623c-3.295 0-4.409 2.988-4.409 4.41V516h4.623v-2.963h4.338V516h4.481v-12.375c0-3.604-3.272-4.41-4.41-4.41Zm-.071 9.033h-4.362v-4.101s0-.925 1.446-.925h1.589c1.28 0 1.303.925 1.303.925v4.101h.024ZM232.308 504.953c0-5.358-5.026-5.857-5.026-5.857h-9.056V516h4.552v-4.078l3.936 4.078h6.732l-5.286-5.334s4.148-.356 4.148-5.713Zm-5.903 2.252h-3.627v-3.864h3.651s1.019.379 1.019 1.92-1.042 1.944-1.042 1.944h-.001ZM277.446 505.521h-3.864v-1.989h7.659v-4.317h-7.351c-1.896 0-4.433 1.565-4.433 4.481v1.494c0 2.916 2.513 4.409 4.433 4.409l2.154.01c-.305 0-1.409-.01 1.497-.01v2.086l-7.846.024V516h7.752c1.588 0 4.315-1.162 4.41-4.409v-1.66c-.001-2.774-2.277-4.41-4.411-4.41ZM254.877 499.215h-4.812V516h4.812v-16.785ZM261.634 499.215h-4.789V516h11.261v-4.338h-6.472v-12.447ZM228.776 485.229c-.213-.119-.806-.404-2.3-.83l-.094 1.564c.782.261 1.539.546 2.299.854l.095-1.588Z"/><path d="M240.938 497.058c.426-.355.829-.638.829-.638s-12.327-12.306-26.053-10.931c-6.923.617-15.41 6.899-20.388 15.196-4.978 8.298-5.666 15.315-5.666 15.315h18.728s-3.58-16.334 8.274-22.948c2.584-1.257 10.81-5.951 24.276 4.006ZM199.071 493.976l-1.683-1.469a40.574 40.574 0 0 0-1.754 1.778l1.826 1.564a24.343 24.343 0 0 1 1.611-1.873ZM191.912 504.573l-2.726-.996c-.451 1.02-.949 2.205-1.186 2.845l2.726.996c.309-.806.806-1.967 1.186-2.845ZM208.032 486.935l-1.066-1.636c-.593.309-1.209.639-1.85 1.02l1.092 1.66c.616-.38 1.208-.737 1.824-1.044Z"/><path d="M209.099 511.259c.032 1 .127 1.998.284 2.987l2.845 1.019a31.365 31.365 0 0 1-.568-3.082l-2.561-.924ZM217.658 484.446h.237L217.42 483c-.761.001-1.521.049-2.277.142l.45 1.399a20.07 20.07 0 0 1 2.065-.095ZM228.681 493.621l.095-1.47a16.696 16.696 0 0 0-2.347-.308l-.095 1.493c.789.025 1.575.12 2.347.285ZM219.341 494.806a15.002 15.002 0 0 1 2.062-.83l-.521-1.564c-.711.207-1.408.461-2.086.758l.545 1.636ZM212.892 497.604l1.138 1.707c.403-.593.878-1.138 1.399-1.683l-1.067-1.613a13.162 13.162 0 0 0-1.47 1.589ZM211.873 503.981l-1.707-1.352c-.308.878-.522 1.755-.711 2.608l1.92 1.517c.097-.935.263-1.862.498-2.773Z"/></g><g clip-path="url(#h)"><path d="M641.977 554.639a.687.687 0 0 1 .023.174v9.146a.67.67 0 0 1-.332.579l-7.604 4.419v8.76a.666.666 0 0 1-.33.578l-15.873 9.224a.722.722 0 0 1-.115.049c-.015.005-.029.014-.045.018a.65.65 0 0 1-.339 0 .577.577 0 0 1-.052-.022.736.736 0 0 1-.109-.045l-15.869-9.223a.664.664 0 0 1-.332-.579V550.28c0-.059.008-.118.023-.174.005-.02.017-.037.023-.056a.618.618 0 0 1 .042-.103.52.52 0 0 1 .046-.059.716.716 0 0 1 .058-.078.636.636 0 0 1 .066-.05.501.501 0 0 1 .072-.057l7.935-4.613a.665.665 0 0 1 .661 0l7.935 4.613h.002l.137.106a.773.773 0 0 1 .059.079.655.655 0 0 1 .045.059.72.72 0 0 1 .043.103c.006.019.018.036.023.056a.69.69 0 0 1 .023.175v17.137l6.612-3.844v-8.761a.729.729 0 0 1 .023-.174c.006-.02.017-.037.024-.056a.622.622 0 0 1 .043-.103c.012-.022.03-.039.044-.059a.577.577 0 0 1 .06-.078.523.523 0 0 1 .064-.05.573.573 0 0 1 .073-.057l7.935-4.613a.655.655 0 0 1 .661 0l7.935 4.613a.684.684 0 0 1 .074.056c.021.017.045.032.064.05a.65.65 0 0 1 .059.079.368.368 0 0 1 .045.059.622.622 0 0 1 .043.103.388.388 0 0 1 .023.056h.002Zm-1.3 8.934v-7.605l-2.777 1.614-3.836 2.229v7.605l6.614-3.843h-.001Zm-7.935 13.758v-7.61l-3.773 2.175-10.776 6.207v7.683l14.549-8.455Zm-30.419-25.897v25.897l14.547 8.455v-7.681l-7.6-4.342-.002-.001-.003-.002-.134-.103-.002-.002a.594.594 0 0 1-.054-.07.75.75 0 0 1-.05-.065v-.003a.537.537 0 0 1-.034-.083.493.493 0 0 1-.031-.075.537.537 0 0 1-.013-.098.482.482 0 0 1-.01-.075v-17.908l-3.837-2.231-2.777-1.612v-.001Zm7.274-4.996-6.611 3.841 6.609 3.843 6.611-3.843-6.611-3.841h.002Zm3.439 23.976 3.835-2.229v-16.751l-2.777 1.614-3.836 2.23v16.751l2.778-1.615Zm20.368-19.442-6.611 3.841 6.611 3.842 6.609-3.842-6.609-3.841Zm-.662 8.839-3.836-2.229-2.777-1.614v7.605l3.835 2.229 2.778 1.615v-7.606Zm-15.211 17.139 9.696-5.588 4.847-2.793-6.606-3.839-7.605 4.42-6.932 4.029 6.6 3.771Z" fill="#1C7CD6" fill-opacity=".4"/></g><defs><clipPath id="c"><path fill="#fff" transform="translate(437 543.826)" d="M0 0h83v50.072H0z"/></clipPath><clipPath id="d"><path fill="#fff" transform="translate(258.259 396.03)" d="M0 0h68.483v41.97H0z"/></clipPath><clipPath id="e"><path fill="#fff" transform="translate(357.123 493.864)" d="M0 0h81.754v17.136H0z"/></clipPath><clipPath id="f"><path fill="#fff" transform="matrix(-1 0 0 1 534 393.178)" d="M0 0h44v43.022H0z"/></clipPath><clipPath id="g"><path fill="#fff" transform="translate(188 483)" d="M0 0h93.856v33H0z"/></clipPath><clipPath id="h"><path fill="#fff" transform="translate(601 545)" d="M0 0h41v42.608H0z"/></clipPath><radialGradient id="a" cx="0" cy="0" r="1" gradientUnits="userSpaceOnUse" gradientTransform="matrix(0 276 -451.237 0 500 343)"><stop offset=".192" stop-color="#fff" stop-opacity=".69"/><stop offset=".774" stop-color="#fff" stop-opacity=".27"/><stop offset="1" stop-color="#fff" stop-opacity="0"/></radialGradient><filter id="b" x="211" y="184" width="594" height="85" filterUnits="userSpaceOnUse" color-interpolation-filters="sRGB"><feFlood flood-opacity="0" result="BackgroundImageFix"/><feColorMatrix in="SourceAlpha" values="0 0 0 0 0 0 0 0 0 0 0 0 0 0 0 0 0 0 127 0" result="hardAlpha"/><feOffset dy="4"/><feGaussianBlur stdDeviation="14.5"/><feColorMatrix values="0 0 0 0 0 0 0 0 0 0 0 0 0 0 0 0 0 0 0.15 0"/><feBlend in2="BackgroundImageFix" result="effect1_dropShadow"/><feBlend in="SourceGraphic" in2="effect1_dropShadow" result="shape"/></filter></defs></svg>