<svg width="24" height="24" viewBox="0 0 24 24" fill="none" xmlns="http://www.w3.org/2000/svg">
<g id="sentiment_very_satisfied_24px">
<path id="icon/social/sentiment_very_satisfied_24px" fill-rule="evenodd" clip-rule="evenodd" d="M11.99 2C6.47 2 2 6.47 2 12C2 17.53 6.47 22 11.99 22C17.51 22 22 17.53 22 12C22 6.47 17.52 2 11.99 2ZM8.88 9.94L9.94 11L11 9.94L8.88 7.82L6.76 9.94L7.82 11L8.88 9.94ZM12 17.5C14.33 17.5 16.31 16.04 17.11 14H6.89C7.69 16.04 9.67 17.5 12 17.5ZM14.06 11L13 9.94L15.12 7.82L17.24 9.94L16.18 11L15.12 9.94L14.06 11ZM4 12C4 16.42 7.58 20 12 20C16.42 20 20 16.42 20 12C20 7.58 16.42 4 12 4C7.58 4 4 7.58 4 12Z" fill="#0F111A"/>
</g>
</svg>
