<?xml version="1.0" encoding="utf-8"?>
<!-- Generator: Adobe Illustrator 21.0.2, SVG Export Plug-In . SVG Version: 6.00 Build 0)  -->
<svg version="1.1" id="Layer_1" xmlns="http://www.w3.org/2000/svg" xmlns:xlink="http://www.w3.org/1999/xlink" x="0px" y="0px"
	 viewBox="0 0 486 84" style="enable-background:new 0 0 486 84;" xml:space="preserve">
<style type="text/css">
	.st0{clip-path:url(#SVGID_2_);}
	.st1{fill:#FF5543;}
	.st2{fill:#B200F8;}
	.st3{fill:#00CBEC;}
	.st4{fill:#F2F4F8;}
</style>
<g>
	<defs>
		<rect id="SVGID_1_" width="486" height="84"/>
	</defs>
	<clipPath id="SVGID_2_">
		<use xlink:href="#SVGID_1_"  style="overflow:visible;"/>
	</clipPath>
	<g class="st0">
		<path class="st1" d="M24.3,10.8L43,77.6c1.3,4.5,6,7.1,10.6,5.9c4.6-1.2,7.3-5.9,6-10.4L40.9,6.4c-1.3-4.5-6-7.1-10.6-5.9
			C25.8,1.7,23.1,6.3,24.3,10.8z"/>
		<path class="st2" d="M58.9,10.3L12.1,62C9,65.5,9.3,70.9,12.9,74c3.6,3.1,9,2.8,12.2-0.7l46.8-51.7c3.2-3.5,2.8-8.8-0.7-11.9
			C67.5,6.5,62.1,6.9,58.9,10.3z"/>
		<path class="st3" d="M5.9,39.2l66.7,21.6c4.5,1.5,9.4-0.9,10.9-5.4c1.5-4.4-1-9.2-5.5-10.6L11.3,23.2c-4.5-1.5-9.4,0.9-10.9,5.4
			C-1.1,33,1.4,37.7,5.9,39.2z"/>
		<path class="st4" d="M127.1,52.5c0-1.5-0.6-2.8-1.7-3.7c-1.1-1-2.5-1.8-4.2-2.6c-1.7-0.8-3.5-1.6-5.5-2.4c-2-0.9-3.8-1.9-5.5-3.1
			c-1.7-1.2-3.1-2.8-4.2-4.6c-1.1-1.8-1.7-4.2-1.7-7c0-2.4,0.4-4.6,1.2-6.3c0.8-1.8,2-3.3,3.5-4.5c1.5-1.2,3.3-2.1,5.4-2.7
			c2.1-0.6,4.4-0.9,6.9-0.9c2.9,0,5.7,0.3,8.3,0.8c2.6,0.5,4.7,1.2,6.4,2.2l-3.1,8.3c-1.1-0.7-2.6-1.3-4.8-1.8
			c-2.1-0.6-4.4-0.9-6.8-0.9c-2.3,0-4.1,0.5-5.3,1.4c-1.2,0.9-1.8,2.1-1.8,3.7c0,1.4,0.6,2.6,1.7,3.6c1.2,1,2.6,1.8,4.2,2.7
			c1.7,0.8,3.6,1.7,5.5,2.5c2,0.9,3.9,1.9,5.5,3.2c1.7,1.2,3.1,2.7,4.2,4.5c1.2,1.8,1.7,4,1.7,6.7s-0.5,5-1.4,7
			c-0.9,1.9-2.1,3.5-3.7,4.8c-1.6,1.3-3.5,2.3-5.8,2.9c-2.3,0.6-4.8,0.9-7.5,0.9c-3.6,0-6.8-0.3-9.5-1s-4.8-1.3-6-2l3.2-8.4
			c0.5,0.3,1.2,0.6,2,0.9c0.9,0.3,1.8,0.6,2.9,0.9c1.1,0.3,2.2,0.5,3.3,0.7c1.2,0.2,2.4,0.3,3.7,0.3c2.9,0,5.2-0.5,6.7-1.4
			C126.3,56,127.1,54.5,127.1,52.5z M141.6,48c0-6.1,1.5-10.8,4.5-14c3-3.3,7.2-5,12.5-5c2.9,0,5.4,0.5,7.5,1.4
			c2.1,0.9,3.9,2.2,5.3,3.9c1.4,1.6,2.4,3.6,3.1,6c0.7,2.4,1.1,4.9,1.1,7.8c0,6.1-1.5,10.8-4.5,14.1c-2.9,3.3-7.1,4.9-12.5,4.9
			c-2.9,0-5.4-0.5-7.5-1.4s-3.9-2.2-5.3-3.8c-1.4-1.7-2.4-3.7-3.2-6C141.9,53.4,141.6,50.8,141.6,48z M151.2,48c0,1.6,0.1,3,0.4,4.4
			c0.3,1.3,0.7,2.5,1.3,3.5c0.6,1,1.3,1.8,2.2,2.4c1,0.5,2.1,0.8,3.4,0.8c2.4,0,4.3-0.9,5.5-2.7s1.8-4.6,1.8-8.4c0-3.3-0.6-6-1.7-8
			c-1.1-2.1-3-3.1-5.6-3.1c-2.3,0-4.1,0.9-5.4,2.6C151.9,41.2,151.2,44.1,151.2,48z M191,30v20.4c0,2.9,0.3,5,1,6.3
			c0.7,1.3,2.1,1.9,4.1,1.9c1.8,0,3.2-0.5,4.4-1.6c1.2-1.1,2.1-2.4,2.7-3.9V30h9.4v25.1c0,2,0.1,3.9,0.3,5.8
			c0.2,1.9,0.5,3.6,0.9,5.1h-7.1l-1.7-5.3h-0.3c-1.1,1.8-2.6,3.3-4.6,4.5s-4.3,1.8-7,1.8c-1.8,0-3.5-0.2-4.9-0.7
			c-1.4-0.5-2.6-1.3-3.6-2.4c-1-1.1-1.7-2.6-2.2-4.5c-0.5-1.9-0.7-4.2-0.7-7.1V30H191z M240.6,38.8c-1.5-0.5-2.8-0.8-4-0.8
			c-1.7,0-3.1,0.5-4.2,1.4c-1.1,0.9-1.8,2-2.2,3.4V66h-9.4V30h7.3l1.1,4.8h0.3c0.8-1.8,1.9-3.1,3.3-4.1c1.4-1,3-1.4,4.9-1.4
			c1.2,0,2.7,0.3,4.2,0.8L240.6,38.8z M271.4,63.8c-1.4,1.1-3.2,1.8-5.3,2.4c-2,0.6-4.1,0.9-6.3,0.9c-2.9,0-5.3-0.5-7.3-1.4
			c-2-0.9-3.6-2.2-4.8-3.8c-1.2-1.7-2.2-3.7-2.7-6c-0.5-2.4-0.8-4.9-0.8-7.8c0-6.1,1.4-10.8,4.1-14c2.7-3.3,6.7-5,12-5
			c2.6,0,4.8,0.2,6.3,0.6c1.6,0.4,3.1,1,4.4,1.7l-2.2,7.6c-1.1-0.5-2.2-0.9-3.3-1.2c-1.1-0.3-2.3-0.4-3.7-0.4
			c-2.6,0-4.6,0.9-5.9,2.6c-1.3,1.7-2,4.4-2,8.1c0,1.5,0.2,3,0.5,4.2c0.3,1.3,0.8,2.4,1.5,3.4c0.7,1,1.5,1.7,2.6,2.3
			c1.1,0.5,2.4,0.8,3.8,0.8c1.6,0,2.9-0.2,4-0.6c1.1-0.4,2.1-0.9,3-1.5L271.4,63.8z M304.7,62.9c-1.4,1.2-3.4,2.1-5.9,3
			c-2.4,0.8-5.1,1.2-7.8,1.2c-5.8,0-10.1-1.7-12.7-5c-2.7-3.4-4-8.1-4-14c0-6.3,1.5-11.1,4.5-14.3c3-3.2,7.3-4.8,12.7-4.8
			c1.8,0,3.6,0.2,5.3,0.7s3.3,1.3,4.6,2.4c1.3,1.1,2.4,2.6,3.2,4.5c0.8,1.9,1.2,4.2,1.2,7c0,1-0.1,2.1-0.2,3.2
			c-0.1,1.2-0.3,2.4-0.5,3.6h-21.6c0.1,3,0.9,5.3,2.3,6.8c1.4,1.5,3.7,2.3,6.9,2.3c2,0,3.7-0.3,5.3-0.9c1.6-0.6,2.8-1.2,3.6-1.9
			L304.7,62.9z M291.3,36.5c-2.4,0-4.3,0.7-5.5,2.2c-1.2,1.4-1.8,3.4-2.1,5.8h13.4c0.2-2.6-0.2-4.6-1.2-6
			C294.9,37.2,293.4,36.5,291.3,36.5z M342.6,66c0,5.2-1.4,9.1-4.2,11.5c-2.8,2.5-6.8,3.7-11.9,3.7c-3.5,0-6.2-0.2-8.2-0.7
			c-2-0.5-3.5-1-4.5-1.5l1.9-7.4c1.1,0.4,2.4,0.9,3.8,1.3c1.5,0.4,3.3,0.6,5.5,0.6c3.3,0,5.5-0.7,6.6-2.2c1.2-1.4,1.8-3.4,1.8-5.9
			v-2.3h-0.3c-1.7,2.3-4.7,3.4-8.9,3.4c-4.7,0-8.1-1.4-10.4-4.3c-2.3-2.9-3.4-7.4-3.4-13.5c0-6.4,1.5-11.3,4.6-14.6
			c3.1-3.3,7.5-5,13.4-5c3.1,0,5.8,0.2,8.2,0.6c2.4,0.4,4.4,0.9,6,1.5V66z M326.7,59.1c1.8,0,3.2-0.4,4.2-1.2c1-0.8,1.8-2,2.3-3.7
			V38c-1.5-0.6-3.3-0.9-5.5-0.9c-2.4,0-4.3,0.9-5.6,2.7c-1.3,1.8-2,4.6-2,8.6c0,3.5,0.6,6.2,1.7,8C322.9,58.2,324.6,59.1,326.7,59.1
			z M370.6,38.8c-1.5-0.5-2.8-0.8-4-0.8c-1.7,0-3.1,0.5-4.2,1.4c-1.1,0.9-1.8,2-2.2,3.4V66h-9.4V30h7.3l1.1,4.8h0.3
			c0.8-1.8,1.9-3.1,3.3-4.1c1.4-1,3-1.4,4.9-1.4c1.2,0,2.7,0.3,4.2,0.8L370.6,38.8z M375.7,32.1c1.9-0.9,4.2-1.5,6.8-2
			c2.6-0.5,5.4-0.8,8.3-0.8c2.5,0,4.6,0.3,6.3,0.9c1.7,0.6,3,1.4,4,2.5c1,1.1,1.7,2.4,2.1,4c0.4,1.5,0.6,3.3,0.6,5.2
			c0,2.1-0.1,4.2-0.2,6.4c-0.1,2.1-0.2,4.2-0.3,6.3c0,2.1,0.1,4.1,0.2,6c0.1,1.9,0.5,3.7,1.1,5.5H397l-1.5-5h-0.4
			c-1,1.5-2.3,2.8-4,3.9c-1.7,1.1-3.9,1.6-6.6,1.6c-1.7,0-3.2-0.2-4.5-0.7c-1.3-0.5-2.5-1.2-3.5-2.2c-1-1-1.7-2.1-2.2-3.3
			c-0.5-1.3-0.8-2.7-0.8-4.3c0-2.2,0.5-4.1,1.4-5.5c1-1.5,2.4-2.8,4.2-3.7c1.9-1,4.1-1.6,6.6-1.9c2.6-0.4,5.5-0.5,8.6-0.4
			c0.3-2.7,0.1-4.6-0.6-5.8c-0.7-1.2-2.3-1.8-4.8-1.8c-1.9,0-3.9,0.2-6,0.6c-2.1,0.4-3.8,0.9-5.1,1.5L375.7,32.1z M387.6,58.9
			c1.9,0,3.4-0.4,4.5-1.2c1.1-0.9,1.9-1.8,2.4-2.7v-4.7c-1.5-0.1-2.9-0.2-4.3-0.1c-1.3,0.1-2.5,0.3-3.6,0.6
			c-1.1,0.3-1.9,0.8-2.5,1.4c-0.6,0.6-0.9,1.4-0.9,2.4c0,1.3,0.4,2.4,1.2,3.2C385.1,58.5,386.2,58.9,387.6,58.9z M411.7,30h6.8
			l1.1,4.3h0.3c1.2-1.8,2.7-3.2,4.4-4c1.7-0.9,3.8-1.3,6.3-1.3c4.5,0,7.9,1.4,10.2,4.3c2.3,2.8,3.4,7.4,3.4,13.8
			c0,3.1-0.4,5.9-1.1,8.4c-0.7,2.4-1.8,4.5-3.2,6.3c-1.4,1.7-3.1,3-5.2,4c-2,0.9-4.3,1.4-7,1.4c-1.5,0-2.7-0.1-3.7-0.4
			c-1-0.2-1.9-0.5-2.9-1v14.8h-9.4V30z M427.7,36.9c-1.8,0-3.3,0.5-4.3,1.4c-1,0.9-1.8,2.3-2.4,4.1v15c0.7,0.5,1.4,1,2.2,1.3
			c0.8,0.3,1.9,0.4,3.2,0.4c2.7,0,4.7-0.9,6-2.8c1.3-1.9,2-5.1,2-9.4c0-3.2-0.5-5.6-1.6-7.3C431.8,37.8,430.1,36.9,427.7,36.9z
			 M472.6,66V45.6c0-2.9-0.4-5-1.2-6.3s-2.3-1.9-4.5-1.9c-1.6,0-3,0.6-4.4,1.7c-1.3,1.1-2.2,2.4-2.6,4.1v23h-9.4V15.6h9.4V34h0.3
			c1.2-1.5,2.6-2.8,4.2-3.7c1.7-0.9,3.8-1.4,6.4-1.4c1.8,0,3.4,0.2,4.8,0.7s2.5,1.3,3.5,2.4c1,1.1,1.7,2.6,2.1,4.5
			c0.5,1.9,0.7,4.2,0.7,7V66H472.6z"/>
	</g>
</g>
</svg>
