<svg width="1440" height="768" xmlns="http://www.w3.org/2000/svg" xmlns:xlink="http://www.w3.org/1999/xlink"><use xlink:href="#a" transform="rotate(45.5 43.935 41.114)" fill="#E4E9F1" fill-opacity=".5"/><use xlink:href="#a" transform="rotate(80.5 -136.121 161.848)" fill="#E4E9F1" fill-opacity=".5"/><use xlink:href="#a" transform="rotate(-170.5 114.501 129.509)" fill="#E4E9F1" fill-opacity=".5"/><use xlink:href="#a" transform="rotate(61.5 -4.454 317.47)" fill="#E4E9F1" fill-opacity=".5"/><use xlink:href="#a" transform="rotate(-161.5 238.58 53.963)" fill="#E4E9F1" fill-opacity=".5"/><use xlink:href="#a" transform="rotate(-162.5 295.136 20.889)" fill="#E4E9F1" fill-opacity=".5"/><use xlink:href="#a" transform="rotate(-100.5 369.267 -222.04)" fill="#E4E9F1" fill-opacity=".5"/><use xlink:href="#a" transform="rotate(152.5 409.752 98.241)" fill="#E4E9F1" fill-opacity=".5"/><use xlink:href="#a" transform="rotate(-30.5 1129.568 340.473)" fill="#E4E9F1" fill-opacity=".5"/><use xlink:href="#a" transform="rotate(100.5 -134.19 325.693)" fill="#E4E9F1" fill-opacity=".5"/><use xlink:href="#a" transform="rotate(62.5 -254.823 443.694)" fill="#E4E9F1" fill-opacity=".5"/><use xlink:href="#a" transform="rotate(90.5 -5.435 404.575)" fill="#E4E9F1" fill-opacity=".5"/><use xlink:href="#a" transform="rotate(-17.5 1562.304 -1324.12)" fill="#E4E9F1" fill-opacity=".5"/><use xlink:href="#a" transform="rotate(-121.5 434.658 14.866)" fill="#E4E9F1" fill-opacity=".5"/><use xlink:href="#a" transform="rotate(115.5 306.297 381.465)" fill="#E4E9F1" fill-opacity=".5"/><use xlink:href="#a" transform="rotate(-163.5 477.972 69.633)" fill="#E4E9F1" fill-opacity=".5"/><use xlink:href="#a" transform="rotate(114.5 459.322 413.853)" fill="#E4E9F1" fill-opacity=".5"/><use xlink:href="#a" transform="rotate(-108.5 633.845 -309.876)" fill="#E4E9F1" fill-opacity=".5"/><use xlink:href="#a" transform="rotate(-73.5 705.18 -752.208)" fill="#E4E9F1" fill-opacity=".5"/><use xlink:href="#a" transform="rotate(-116.5 717.564 -381.47)" fill="#E4E9F1" fill-opacity=".5"/><use xlink:href="#a" transform="rotate(112.5 -120.473 473.266)" fill="#E4E9F1" fill-opacity=".5"/><use xlink:href="#a" transform="rotate(89.5 -168.694 544.625)" fill="#E4E9F1" fill-opacity=".5"/><use xlink:href="#a" transform="rotate(9.5 -3890.624 3062.582)" fill="#E4E9F1" fill-opacity=".5"/><use xlink:href="#a" transform="rotate(-43.5 1129.905 -388.768)" fill="#E4E9F1" fill-opacity=".5"/><use xlink:href="#a" transform="rotate(-79.5 743.125 -114.338)" fill="#E4E9F1" fill-opacity=".5"/><use xlink:href="#a" transform="rotate(-13.5 2726.48 -3173.117)" fill="#E4E9F1" fill-opacity=".5"/><use xlink:href="#a" transform="rotate(-140.5 598.6 84.038)" fill="#E4E9F1" fill-opacity=".5"/><use xlink:href="#a" transform="rotate(-169.5 592.178 178.557)" fill="#E4E9F1" fill-opacity=".5"/><use xlink:href="#a" transform="rotate(41.5 122.47 1764.156)" fill="#E4E9F1" fill-opacity=".5"/><use xlink:href="#a" transform="rotate(-164.5 717.221 87.813)" fill="#E4E9F1" fill-opacity=".5"/><use xlink:href="#a" transform="rotate(-87.5 909.657 -79.362)" fill="#E4E9F1" fill-opacity=".5"/><use xlink:href="#a" transform="rotate(-127.5 742.277 118.353)" fill="#E4E9F1" fill-opacity=".5"/><use xlink:href="#a" transform="rotate(178.499 618.25 357.193)" fill="#E4E9F1" fill-opacity=".5"/><use xlink:href="#a" transform="rotate(20.5 -1062.34 3877.295)" fill="#E4E9F1" fill-opacity=".5"/><use xlink:href="#a" transform="rotate(173.5 728.48 338.897)" fill="#E4E9F1" fill-opacity=".5"/><use xlink:href="#a" transform="rotate(144.5 23.24 88.415)" fill="#E4E9F1" fill-opacity=".5"/><use xlink:href="#a" transform="rotate(10.5 -461.301 799.9)" fill="#E4E9F1" fill-opacity=".5"/><use xlink:href="#a" transform="rotate(-43.5 238.324 -287.815)" fill="#E4E9F1" fill-opacity=".5"/><use xlink:href="#a" transform="rotate(66.5 228.79 300.33)" fill="#E4E9F1" fill-opacity=".5"/><use xlink:href="#a" transform="rotate(-22.5 1170.447 252.492)" fill="#E4E9F1" fill-opacity=".5"/><use xlink:href="#a" transform="rotate(28.5 -688.775 434.589)" fill="#E4E9F1" fill-opacity=".5"/><use xlink:href="#a" transform="rotate(168.5 142.31 195.125)" fill="#E4E9F1" fill-opacity=".5"/><use xlink:href="#a" transform="rotate(-69.5 436.345 -101.128)" fill="#E4E9F1" fill-opacity=".5"/><use xlink:href="#a" transform="rotate(-1.501 9758.374 -18262.318)" fill="#E4E9F1" fill-opacity=".5"/><use xlink:href="#a" transform="rotate(-110.5 411.776 -102.228)" fill="#E4E9F1" fill-opacity=".5"/><use xlink:href="#a" transform="rotate(-78.5 494.259 -362.46)" fill="#E4E9F1" fill-opacity=".5"/><use xlink:href="#a" transform="rotate(26.5 261.338 1858.057)" fill="#E4E9F1" fill-opacity=".5"/><use xlink:href="#a" transform="rotate(-6.5 927.604 -8515.493)" fill="#E4E9F1" fill-opacity=".5"/><use xlink:href="#a" transform="rotate(25.5 599.081 2420.892)" fill="#E4E9F1" fill-opacity=".5"/><use xlink:href="#a" transform="rotate(-57.5 706.888 407.298)" fill="#E4E9F1" fill-opacity=".5"/><use xlink:href="#a" transform="rotate(40.5 -853.901 483.3)" fill="#E4E9F1" fill-opacity=".5"/><use xlink:href="#a" transform="rotate(9.5 -3728.973 1631.211)" fill="#E4E9F1" fill-opacity=".5"/><use xlink:href="#a" transform="rotate(-51.5 826.183 -45.187)" fill="#E4E9F1" fill-opacity=".5"/><use xlink:href="#a" transform="rotate(-51.5 834.827 -197.551)" fill="#E4E9F1" fill-opacity=".5"/><use xlink:href="#a" transform="rotate(-77.5 639.694 -108.326)" fill="#E4E9F1" fill-opacity=".5"/><use xlink:href="#a" transform="rotate(-122.5 515.167 36.059)" fill="#E4E9F1" fill-opacity=".5"/><use xlink:href="#a" transform="rotate(.499 -44389.748 95017.024)" fill="#E4E9F1" fill-opacity=".5"/><use xlink:href="#a" transform="rotate(151.5 472.924 299.444)" fill="#E4E9F1" fill-opacity=".5"/><use xlink:href="#a" transform="rotate(91.5 436.037 675.641)" fill="#E4E9F1" fill-opacity=".5"/><use xlink:href="#a" transform="rotate(1.501 -8505.633 45740.23)" fill="#E4E9F1" fill-opacity=".5"/><use xlink:href="#a" transform="rotate(96.5 615.329 690.372)" fill="#E4E9F1" fill-opacity=".5"/><use xlink:href="#a" transform="rotate(-30.5 1735.352 -877.693)" fill="#E4E9F1" fill-opacity=".5"/><use xlink:href="#a" transform="rotate(-3.5 11679.357 -12845.705)" fill="#E4E9F1" fill-opacity=".5"/><use xlink:href="#a" transform="rotate(10.5 -2954.324 5379.865)" fill="#E4E9F1" fill-opacity=".5"/><use xlink:href="#a" transform="rotate(-129.5 704.834 53.281)" fill="#E4E9F1" fill-opacity=".5"/><use xlink:href="#a" transform="rotate(95.5 385.171 808.625)" fill="#E4E9F1" fill-opacity=".5"/><use xlink:href="#a" transform="rotate(87.5 436.32 927.104)" fill="#E4E9F1" fill-opacity=".5"/><use xlink:href="#a" transform="rotate(153.5 699.201 392.068)" fill="#E4E9F1" fill-opacity=".5"/><use xlink:href="#a" transform="rotate(-150.5 835.623 188.867)" fill="#E4E9F1" fill-opacity=".5"/><defs><path id="a" fill-rule="evenodd" d="M0 8.27A8.27 8.27 0 0 1 8.27 0h66.166a8.27 8.27 0 0 1 0 16.542H8.271A8.27 8.27 0 0 1 0 8.27Z"/></defs></svg>