<svg width="12" height="13" fill="none" xmlns="http://www.w3.org/2000/svg"><path d="m6.207 9.44 2.364 1.498c.302.192.677-.093.588-.446l-.683-2.687a.41.41 0 0 1 .133-.416l2.12-1.764c.278-.232.134-.694-.223-.718l-2.77-.18a.395.395 0 0 1-.339-.25l-1.032-2.6a.39.39 0 0 0-.73 0l-1.032 2.6a.395.395 0 0 1-.34.25l-2.769.18c-.357.024-.501.486-.223.718l2.12 1.764a.41.41 0 0 1 .133.416l-.633 2.492c-.108.424.343.765.705.535l2.197-1.391a.385.385 0 0 1 .414 0v0Z" stroke="#fff" stroke-linecap="round" stroke-linejoin="round"/></svg>