<svg width="183" height="26" viewBox="0 0 183 26" version="1.1" xmlns="http://www.w3.org/2000/svg" xmlns:xlink="http://www.w3.org/1999/xlink">
<title>logo</title>
<desc>Created using Figma</desc>
<g id="Canvas" transform="translate(-19623 706)">
<g id="logo">
<g id="WordMark">
<g id="Shape">
<use xlink:href="#path0_fill" transform="translate(19658.4 -700.032)" fill="#151C28"/>
</g>
<g id="Shape">
<use xlink:href="#path1_fill" transform="translate(19670.2 -700.032)" fill="#151C28"/>
</g>
<g id="Shape">
<use xlink:href="#path2_fill" transform="translate(19686 -699.632)" fill="#151C28"/>
</g>
<g id="Shape">
<use xlink:href="#path3_fill" transform="translate(19701.2 -699.738)" fill="#151C28"/>
</g>
<g id="Shape">
<use xlink:href="#path4_fill" transform="translate(19710 -700.032)" fill="#151C28"/>
</g>
<g id="Shape">
<use xlink:href="#path5_fill" transform="translate(19724 -700.034)" fill="#151C28"/>
</g>
<g id="Shape">
<use xlink:href="#path6_fill" transform="translate(19738.2 -699.873)" fill="#151C28"/>
</g>
<g id="Shape">
<use xlink:href="#path7_fill" transform="translate(19754.5 -699.738)" fill="#151C28"/>
</g>
<g id="Shape">
<use xlink:href="#path8_fill" transform="translate(19763.7 -700.033)" fill="#151C28"/>
</g>
<g id="Shape">
<use xlink:href="#path9_fill" transform="translate(19778.3 -699.925)" fill="#151C28"/>
</g>
<g id="Shape">
<use xlink:href="#path10_fill" transform="translate(19794.1 -705.8)" fill="#151C28"/>
</g>
</g>
<g id="Group 22.1">
<g id="LogoMark">
<g id="Shape">
<use xlink:href="#path11_fill" transform="translate(19630.3 -705.675)" fill="#FF5543"/>
</g>
<g id="Shape">
<use xlink:href="#path12_fill" transform="translate(19626.2 -703.372)" fill="#B200F8"/>
</g>
<g id="Shape">
<use xlink:href="#path13_fill" transform="translate(19623.2 -698.792)" fill="#00CBEC"/>
</g>
</g>
</g>
</g>
</g>
<defs>
<path id="path0_fill" fill-rule="evenodd" d="M 3.03042 9.17219C 3.06542 9.68667 3.27849 10.1466 3.66862 10.5541C 4.05771 10.9616 4.64342 11.1663 5.42367 11.1663C 6.00937 11.1663 6.44273 11.0377 6.72786 10.7805C 7.0099 10.5242 7.15298 10.2176 7.15298 9.86365C 7.15298 9.56217 7.04593 9.30081 6.83285 9.07855C 6.61978 8.85733 6.25641 8.69372 5.74277 8.58671L 4.01448 8.18747C 2.73808 7.9045 1.80652 7.41266 1.22184 6.71193C 0.63717 6.01224 0.343804 5.20141 0.343804 4.27946C 0.343804 3.69398 0.467327 3.14143 0.71643 2.61769C 0.964505 2.09497 1.30522 1.64326 1.74064 1.26151C 2.17502 0.880793 2.68867 0.575191 3.28364 0.344703C 3.87758 0.115244 4.52813 0 5.23838 0C 6.15965 0 6.9399 0.128621 7.5781 0.385862C 8.2163 0.643103 8.7351 0.966198 9.13346 1.35618C 9.53285 1.74615 9.8293 2.15774 10.0238 2.59196C 10.2184 3.02618 10.3337 3.42028 10.3697 3.77527L 7.41855 4.43895C 7.38253 4.24448 7.32488 4.04486 7.24562 3.84112C 7.16636 3.63739 7.03769 3.44703 6.86064 3.26902C 6.68257 3.09204 6.4664 2.95004 6.20906 2.84406C 5.95172 2.73807 5.63777 2.68457 5.26515 2.68457C 4.80399 2.68457 4.40975 2.80907 4.08139 3.05602C 3.75405 3.30503 3.58936 3.61475 3.58936 3.98621C 3.58936 4.30519 3.6995 4.56243 3.92184 4.75793C 4.14315 4.95241 4.43137 5.08514 4.7865 5.15614L 6.64757 5.55435C 7.94147 5.82085 8.91215 6.31681 9.55961 7.04326C 10.2071 7.77074 10.5303 8.6114 10.5303 9.56834C 10.5303 10.1013 10.4274 10.623 10.2246 11.1365C 10.0197 11.651 9.70578 12.1109 9.28066 12.5194C 8.85553 12.9279 8.32336 13.2551 7.68516 13.5031C 7.04696 13.7501 6.30273 13.8746 5.45146 13.8746C 4.45916 13.8746 3.62641 13.7326 2.95219 13.4496C 2.27796 13.1666 1.72931 12.8199 1.30316 12.4124C 0.87701 12.0049 0.563057 11.5666 0.359245 11.0974C 0.155432 10.6271 0.034998 10.2073 0 9.83484L 3.03042 9.17219Z"/>
<path id="path1_fill" fill-rule="evenodd" d="M 6.86167 0C 7.83647 0 8.74539 0.171837 9.5874 0.517569C 10.4294 0.863301 11.1561 1.34177 11.7686 1.95297C 12.38 2.56418 12.8587 3.29577 13.2046 4.1457C 13.5504 4.99665 13.7233 5.92684 13.7233 6.93728C 13.7233 7.94772 13.5504 8.87276 13.2046 9.71548C 12.8587 10.5582 12.38 11.2888 11.7686 11.9082C 11.1572 12.5297 10.4294 13.0113 9.5874 13.357C 8.74539 13.7027 7.83647 13.8756 6.86167 13.8756C 5.88585 13.8756 4.97693 13.7027 4.13594 13.357C 3.29393 13.0113 2.56721 12.5287 1.95577 11.9082C 1.34331 11.2888 0.864657 10.5582 0.518794 9.71548C 0.172931 8.87276 0 7.94772 0 6.93728C 0 5.92786 0.172931 4.99665 0.518794 4.1457C 0.864657 3.29474 1.34331 2.56418 1.95577 1.95297C 2.56721 1.34177 3.29393 0.863301 4.13594 0.517569C 4.97796 0.172866 5.88688 0 6.86167 0L 6.86167 0ZM 6.86182 10.6592C 7.28797 10.6592 7.70383 10.581 8.11145 10.4205C 8.51908 10.262 8.8742 10.0264 9.1758 9.71664C 9.47638 9.40692 9.72033 9.02106 9.90767 8.56009C 10.094 8.09911 10.1866 7.5589 10.1866 6.93844C 10.1866 6.31797 10.094 5.77777 9.90767 5.31679C 9.72033 4.85684 9.47741 4.47098 9.1758 4.16024C 8.8742 3.85052 8.52011 3.61591 8.11145 3.45539C 7.70383 3.29591 7.28797 3.21667 6.86182 3.21667C 6.43669 3.21667 6.01981 3.29591 5.61218 3.45539C 5.20456 3.61488 4.85046 3.85052 4.54886 4.16024C 4.24726 4.47098 4.00433 4.85684 3.81802 5.31679C 3.6317 5.77777 3.53906 6.31797 3.53906 6.93844C 3.53906 7.5589 3.63273 8.09808 3.81802 8.56009C 4.00433 9.02106 4.24726 9.40692 4.54886 9.71664C 4.85046 10.0264 5.20456 10.261 5.61218 10.4205C 6.01981 10.581 6.43669 10.6592 6.86182 10.6592L 6.86182 10.6592Z"/>
<path id="path2_fill" fill-rule="evenodd" d="M 8.69495 13.0792C 8.65893 12.9361 8.63216 12.7334 8.61569 12.4669C 8.59716 12.2004 8.58893 11.935 8.58893 11.6695C 8.2338 12.291 7.71501 12.7376 7.03358 13.0133C 6.35008 13.287 5.66351 13.4249 4.97281 13.4249C 4.17506 13.4249 3.47098 13.286 2.85852 13.0133C 2.24708 12.7376 1.72829 12.3702 1.30316 11.9092C 0.87701 11.4483 0.553792 10.9029 0.332481 10.2742C 0.11117 9.64551 0 8.97566 0 8.26773L 0 0L 3.53686 0L 3.53686 7.54951C 3.53686 8.29448 3.72729 8.91804 4.10918 9.42326C 4.49004 9.92745 5.09736 10.1806 5.93114 10.1806C 6.72889 10.1806 7.34135 9.94185 7.76648 9.46339C 8.1916 8.98492 8.40468 8.36445 8.40468 7.60199L 8.40468 0L 11.9415 0L 11.9415 10.7125C 11.9415 11.227 11.9549 11.6921 11.9817 12.1089C 12.0084 12.5256 12.0393 12.8487 12.0743 13.0792L 8.69495 13.0792L 8.69495 13.0792Z"/>
<path id="path3_fill" fill-rule="evenodd" d="M 7.97749 3.61475C 7.6234 3.54375 7.2693 3.50774 6.91417 3.50774C 6.45302 3.50774 6.01863 3.57051 5.61101 3.69398C 5.20338 3.81849 4.84826 4.02222 4.54769 4.30519C 4.24609 4.58918 4.00213 4.96578 3.81684 5.43499C 3.63053 5.90523 3.53789 6.49482 3.53789 7.20275L 3.53789 13.1841L 0 13.1841L 0 0.105983L 3.43084 0.105983L 3.43084 2.04661C 3.62538 1.62062 3.87861 1.2718 4.18844 0.996038C 4.49828 0.722333 4.82664 0.514482 5.1725 0.371456C 5.51734 0.229459 5.86423 0.132736 6.20906 0.0792303C 6.55493 0.0267531 6.86991 0 7.15298 0C 7.29503 0 7.43194 0.00411586 7.56472 0.0133765C 7.69751 0.0226372 7.83544 0.0360138 7.97646 0.0535062L 7.97646 3.61475L 7.97749 3.61475Z"/>
<path id="path4_fill" fill-rule="evenodd" d="M 6.86167 3.27005C 6.40052 3.27005 5.97025 3.35031 5.57189 3.50877C 5.1725 3.66929 4.82252 3.90389 4.52195 4.21361C 4.22035 4.52436 3.98051 4.90919 3.80346 5.37017C 3.62538 5.83114 3.53789 6.35386 3.53789 6.93831C 3.53789 7.52276 3.62538 8.0465 3.80346 8.50645C 3.98051 8.96845 4.22447 9.35637 4.5343 9.67638C 4.84414 9.99639 5.19927 10.2351 5.59763 10.3936C 5.99702 10.5531 6.42626 10.6323 6.88741 10.6323C 7.33106 10.6323 7.7253 10.5675 8.07116 10.4337C 8.416 10.301 8.71348 10.1281 8.96258 9.9151C 9.21066 9.70211 9.41035 9.46339 9.56064 9.19791C 9.71092 8.93244 9.82209 8.6752 9.89312 8.42722L 13.0038 9.46339C 12.8618 10.0139 12.6271 10.551 12.2987 11.0717C 11.9704 11.5944 11.5494 12.0636 11.0357 12.4813C 10.521 12.897 9.91885 13.2335 9.22713 13.4897C 8.53643 13.747 7.75515 13.8756 6.88741 13.8756C 5.93011 13.8756 5.03045 13.7027 4.18844 13.357C 3.34643 13.0113 2.61559 12.5287 1.99489 11.9082C 1.37419 11.2888 0.887303 10.5572 0.533205 9.71548C 0.178078 8.87379 0 7.94772 0 6.93728C 0 5.92786 0.172931 4.99665 0.518794 4.1457C 0.864657 3.29474 1.34331 2.56418 1.95577 1.95297C 2.56721 1.34177 3.2857 0.863301 4.10918 0.517569C 4.93369 0.172866 5.82511 0 6.78138 0C 7.66869 0 8.46129 0.128621 9.16125 0.385862C 9.86121 0.643103 10.4685 0.974429 10.9832 1.38293C 11.4979 1.7904 11.9137 2.25961 12.2328 2.79158C 12.5519 3.32356 12.7825 3.86376 12.9246 4.41323L 9.76033 5.47615C 9.60078 4.92771 9.29404 4.42249 8.84215 3.96151C 8.39026 3.50054 7.72942 3.27005 6.86167 3.27005"/>
<path id="path5_fill" fill-rule="evenodd" d="M 12.7084 9.73194C 12.5499 10.2989 12.2987 10.834 11.9529 11.3392C 11.607 11.8434 11.185 12.2827 10.6878 12.6542C 10.1916 13.0267 9.61211 13.322 8.94714 13.5443C 8.28218 13.7665 7.55237 13.8766 6.75359 13.8766C 5.84879 13.8766 4.98928 13.7212 4.17403 13.4115C 3.35878 13.1008 2.64029 12.6449 2.02062 12.043C 1.39992 11.44 0.90789 10.7053 0.544528 9.83484C 0.181166 8.96845 0 7.98373 0 6.8848C 0 5.83937 0.17602 4.89067 0.532176 4.04074C 0.886274 3.18979 1.36081 2.46849 1.95474 1.87477C 2.54868 1.28106 3.23526 0.820085 4.01654 0.492874C 4.79576 0.164634 5.60277 0 6.43552 0C 8.47364 0 10.0599 0.602973 11.1963 1.80789C 12.3306 3.01281 12.8968 4.66944 12.8968 6.77882C 12.8968 7.02783 12.8885 7.2614 12.871 7.48366C 12.8525 7.70488 12.8453 7.83351 12.8453 7.86849L 3.48436 7.86849C 3.50186 8.29345 3.6048 8.68858 3.79111 9.05077C 3.97639 9.41502 4.21623 9.72989 4.50857 9.99536C 4.80091 10.2608 5.14265 10.4697 5.53278 10.6199C 5.9229 10.7702 6.33876 10.8453 6.78241 10.8453C 7.61516 10.8453 8.26571 10.658 8.73613 10.2866C 9.20654 9.9151 9.54829 9.43663 9.7593 8.85115L 12.7084 9.73194ZM 9.41324 5.45146C 9.39471 5.13248 9.33089 4.81762 9.21458 4.5079C 9.10032 4.19818 8.92327 3.92345 8.68343 3.68473C 8.44256 3.44498 8.14302 3.2505 7.77863 3.10027C 7.41424 2.95004 6.985 2.8739 6.48782 2.8739C 6.0277 2.8739 5.62007 2.95416 5.26598 3.11365C 4.91085 3.27314 4.60925 3.4779 4.3622 3.72485C 4.1131 3.97386 3.9237 4.24757 3.79091 4.54906C 3.65709 4.85054 3.58195 5.151 3.56445 5.45249L 9.41324 5.45249L 9.41324 5.45146Z"/>
<path id="path6_fill" fill-rule="evenodd" d="M 3.19306 13.1862C 3.31555 13.9126 3.64494 14.5053 4.17609 14.9673C 4.70929 15.4273 5.39999 15.6578 6.25127 15.6578C 7.36709 15.6578 8.22763 15.3696 8.83083 14.7945C 9.43403 14.2172 9.73563 13.2911 9.73563 12.0162L 9.73563 11.0583C 9.468 11.4843 9.03361 11.8701 8.43041 12.2159C 7.82927 12.5606 7.04902 12.7334 6.09275 12.7334C 5.22191 12.7334 4.41593 12.575 3.67171 12.255C 2.92542 11.936 2.28414 11.4935 1.74373 10.9255C 1.20331 10.3586 0.777162 9.68976 0.467327 8.91906C 0.155432 8.14837 0.00102935 7.30256 0.00102935 6.38061C 0.00102935 5.51216 0.151315 4.69311 0.452916 3.92138C 0.754516 3.15069 1.17038 2.4726 1.70358 1.88712C 2.23473 1.30267 2.87396 0.841693 3.61715 0.505222C 4.36343 0.16875 5.18691 0 6.09172 0C 7.13754 0 7.96102 0.186243 8.56217 0.557699C 9.16537 0.929155 9.58329 1.33765 9.81283 1.78011L 9.81283 0.240778L 13.2169 0.240778L 13.2169 11.9103C 13.2169 12.8147 13.0882 13.678 12.833 14.5022C 12.5756 15.3275 12.1711 16.0529 11.6224 16.6826C 11.0717 17.3113 10.3615 17.8165 9.49579 18.1972C 8.62702 18.578 7.58016 18.7693 6.35729 18.7693C 5.45249 18.7693 4.63209 18.6407 3.8961 18.3845C 3.16012 18.1273 2.51677 17.7815 1.96812 17.3473C 1.41948 16.9121 0.974798 16.4079 0.639229 15.8327C 0.301601 15.2554 0.0885244 14.6576 0 14.0382L 3.19306 13.1862ZM 6.701 9.7041C 7.60374 9.7041 8.34591 9.40261 8.92029 8.79964C 9.49775 8.19769 9.78494 7.39099 9.78494 6.38054C 9.78494 5.3701 9.48334 4.56854 8.88014 3.97482C 8.27694 3.38111 7.55125 3.08374 6.701 3.08374C 6.25632 3.08374 5.84458 3.15988 5.46475 3.31011C 5.08286 3.46034 4.74935 3.68157 4.46524 3.97482C 4.18217 4.26705 3.96086 4.61793 3.80131 5.0254C 3.64279 5.43287 3.5625 5.88561 3.5625 6.38054C 3.5625 7.40951 3.85381 8.22033 4.43951 8.81301C 5.02418 9.40673 5.7787 9.7041 6.701 9.7041L 6.701 9.7041Z"/>
<path id="path7_fill" fill-rule="evenodd" d="M 7.97852 3.61475C 7.62442 3.54375 7.27033 3.50774 6.9152 3.50774C 6.45508 3.50774 6.02069 3.57051 5.61204 3.69398C 5.20338 3.81746 4.85032 4.02222 4.54871 4.30519C 4.24711 4.58918 4.00419 4.96578 3.81684 5.43499C 3.63156 5.90523 3.53892 6.49482 3.53892 7.20275L 3.53892 13.1841L 0 13.1841L 0 0.105983L 3.42981 0.105983L 3.42981 2.04661C 3.62641 1.62062 3.87861 1.2718 4.18947 0.996038C 4.49931 0.722333 4.82664 0.514482 5.1725 0.371456C 5.51837 0.229459 5.86423 0.132736 6.21009 0.0792303C 6.55595 0.0267531 6.86991 0 7.15298 0C 7.29606 0 7.43193 0.00411586 7.56472 0.0133765C 7.69957 0.0226372 7.83647 0.0360138 7.97646 0.0535062L 7.97646 3.61475L 7.97852 3.61475Z"/>
<path id="path8_fill" fill-rule="evenodd" d="M 0 9.91613C 0 9.33168 0.102935 8.81308 0.305718 8.36034C 0.508501 7.90759 0.788485 7.51453 1.14155 7.17806C 1.49771 6.84158 1.90945 6.57611 2.37781 6.38164C 2.84822 6.18716 3.35878 6.04517 3.90743 5.95565L 7.12622 5.47718C 7.49781 5.4247 7.75515 5.31357 7.89617 5.14585C 8.03925 4.9771 8.10925 4.77851 8.10925 4.54699C 8.10925 4.08602 7.92808 3.68781 7.56472 3.35031C 7.20033 3.01384 6.64757 2.84509 5.90232 2.84509C 5.12207 2.84509 4.52504 3.05808 4.10712 3.48304C 3.69126 3.90904 3.45554 4.405 3.40304 4.97196L 0.264544 4.30725C 0.317041 3.79276 0.47762 3.27931 0.743194 2.76483C 1.00877 2.25137 1.37213 1.7904 1.83328 1.38293C 2.29546 0.975458 2.86263 0.643103 3.53583 0.385862C 4.20903 0.128621 4.98928 0 5.87555 0C 6.90285 0 7.78192 0.136852 8.50967 0.411586C 9.23536 0.686319 9.82415 1.04954 10.2771 1.50126C 10.729 1.95297 11.0573 2.48083 11.2601 3.08278C 11.4649 3.68575 11.5679 4.31445 11.5679 4.9699L 11.5679 11.403C 11.5679 11.758 11.5843 12.1346 11.6204 12.5328C 11.6564 12.931 11.6904 13.2459 11.7274 13.4774L 8.48291 13.4774C 8.44688 13.3004 8.41703 13.0565 8.39026 12.7458C 8.36453 12.4361 8.35012 12.1572 8.35012 11.9082C 8.01249 12.4227 7.52972 12.8744 6.90079 13.2644C 6.27185 13.6544 5.46896 13.8488 4.49416 13.8488C 3.80243 13.8488 3.17762 13.7387 2.62074 13.5154C 2.0618 13.2942 1.58726 13.003 1.19714 12.6388C 0.807013 12.2745 0.50953 11.8588 0.306747 11.3896C 0.103965 10.9204 0 10.4306 0 9.91613L 0 9.91613ZM 5.23966 11.2186C 5.6092 11.2186 5.96947 11.1703 6.31534 11.0725C 6.6612 10.9748 6.96692 10.8071 7.23455 10.5683C 7.50012 10.3286 7.71114 10.0189 7.87172 9.63712C 8.03024 9.25744 8.11053 8.77279 8.11053 8.18937L 8.11053 7.60492L 5.15937 8.05561C 4.69925 8.1266 4.31118 8.29124 4.00341 8.54848C 3.69151 8.80572 3.53711 9.19158 3.53711 9.70401C 3.53711 10.095 3.67813 10.4459 3.96326 10.7546C 4.24633 11.0633 4.67043 11.2186 5.23966 11.2186L 5.23966 11.2186Z"/>
<path id="path9_fill" fill-rule="evenodd" d="M 0 18.4216L 0 0.292226L 3.43187 0.292226L 3.43187 1.88712C 3.73347 1.37264 4.22756 0.930184 4.91928 0.557699C 5.61101 0.185214 6.45302 0 7.44635 0C 8.40365 0 9.25389 0.171837 9.99914 0.517569C 10.7434 0.863301 11.3764 1.3428 11.9014 1.954C 12.4243 2.56521 12.8185 3.28343 13.0831 4.10763C 13.3487 4.93183 13.4814 5.83114 13.4814 6.80557C 13.4814 7.79852 13.3363 8.7143 13.0429 9.55702C 12.7516 10.3977 12.3347 11.1252 11.7943 11.7364C 11.2519 12.3476 10.6023 12.8281 9.83857 13.1718C 9.07684 13.5175 8.2338 13.6914 7.31356 13.6914C 6.40876 13.6914 5.63263 13.536 4.98516 13.2263C 4.33976 12.9156 3.85493 12.539 3.53583 12.0965L 3.53583 18.4226L 0 18.4226L 0 18.4216ZM 9.99823 6.83121C 9.99823 5.66128 9.68222 4.75785 9.05329 4.11886C 8.42435 3.48091 7.65851 3.16193 6.75371 3.16193C 6.29153 3.16193 5.86743 3.2463 5.47731 3.41505C 5.08718 3.5838 4.74132 3.82252 4.43972 4.13327C 4.13812 4.44402 3.90446 4.8237 3.73564 5.27542C 3.56683 5.72713 3.48242 6.24573 3.48242 6.83121C 3.48242 7.41567 3.56683 7.93529 3.73564 8.38495C 3.90446 8.83667 4.13812 9.22253 4.43972 9.54253C 4.74132 9.86254 5.08718 10.1054 5.47731 10.2731C 5.86743 10.4429 6.29153 10.5252 6.75371 10.5252C 7.65851 10.5252 8.42435 10.2031 9.05329 9.55591C 9.68325 8.90972 9.99823 8.00115 9.99823 6.83121L 9.99823 6.83121Z"/>
<path id="path10_fill" fill-rule="evenodd" d="M 3.53686 19.2468L 0 19.2468L 0 0L 3.53686 0L 3.53686 7.25729C 3.96301 6.7428 4.50342 6.37649 5.15912 6.15424C 5.81482 5.93198 6.45405 5.82188 7.07269 5.82188C 7.9075 5.82188 8.62907 5.95873 9.23948 6.23347C 9.85298 6.5082 10.3574 6.87657 10.7557 7.33754C 11.1561 7.79852 11.4516 8.34696 11.6461 8.98595C 11.8407 9.6239 11.9395 10.2968 11.9395 11.0058L 11.9395 19.2468L 8.40262 19.2468L 8.40262 11.617C 8.40262 10.872 8.21116 10.2526 7.82927 9.75561C 7.44943 9.25965 6.83182 9.01167 5.98158 9.01167C 5.23735 9.01167 4.65268 9.25451 4.22653 9.74223C 3.80243 10.23 3.57083 10.8371 3.5348 11.5635L 3.5348 19.2468L 3.53686 19.2468Z"/>
<path id="path11_fill" fill-rule="evenodd" d="M 0.0917725 3.24499L 5.64921 23.5853C 6.02342 24.9519 7.43235 25.7568 8.79732 25.3838C 10.1623 25.0087 10.9654 23.597 10.5923 22.2305L 5.03374 1.88912C 4.65953 0.522523 3.2506 -0.282427 1.88564 0.0916444C 0.521742 0.465716 -0.282441 1.87733 0.0917725 3.24499"/>
<path id="path12_fill" fill-rule="evenodd" d="M 14.5621 0.864427L 0.644418 16.5979C -0.293795 17.6591 -0.196221 19.2818 0.863156 20.2218C 1.92253 21.1618 3.54162 21.0632 4.47983 20.0021L 18.3976 4.26858C 19.3358 3.20746 19.2382 1.58577 18.1788 0.645772C 17.1194 -0.294229 15.5014 -0.196692 14.5621 0.864427"/>
<path id="path13_fill" fill-rule="evenodd" d="M 1.75824 5.0047L 21.6065 11.5772C 22.9501 12.0231 24.3987 11.2921 24.8436 9.94695C 25.2886 8.60072 24.5584 7.14945 23.216 6.70571L 3.36661 0.129982C 2.02309 -0.313759 0.574486 0.415091 0.130577 1.76132C -0.314404 3.10755 0.414722 4.55882 1.75824 5.0047"/>
</defs>
</svg>
