<svg width="200" height="203" fill="none" xmlns="http://www.w3.org/2000/svg"><g clip-path="url(#bottom-right-lines-white-background__a)"><path d="m52.594 141.107.371-.372 61.594 61.594h-.743l-61.222-61.222Zm83.119 61.222h.744l-72.543-72.543-.372.372 72.171 72.171Zm10.949 0h.744l-78.017-78.017-.372.372 77.645 77.645Zm-21.898 0h.744L58.44 135.261l-.372.372 66.696 66.696Zm-21.897 0h.743l-56.12-56.12-.371.372 55.748 55.748Zm54.743 0h.744l-83.491-83.491-.372.372 83.119 83.119Zm32.846 0h.744l-99.914-99.914-.372.372 99.542 99.542Zm-21.897 0h.744l-88.965-88.965-.372.372 88.593 88.593Zm10.948 0h.744l-94.44-94.44-.372.372 94.068 94.068Zm-131.382 0h.743l-28.749-28.748-.371.372 28.377 28.376Zm-21.898 0h.743l-17.8-17.8-.37.372 17.427 17.428Zm65.692 0h.743l-50.646-50.645-.371.372 50.274 50.273Zm-87.589 0h.743L0 197.256v.743l4.33 4.33Zm195.283-1.792v-.744L96.76 96.941l-.372.372 103.225 103.224Zm-184.334 1.792h.743L3.697 190.004l-.371.372 11.953 11.953Zm65.691 0h.743l-45.171-45.171-.371.372 44.799 44.799Zm-10.949 0h.743l-39.697-39.697-.371.372 39.325 39.325Zm-32.845 0h.743l-23.274-23.274-.371.372 22.902 22.902Zm21.897 0h.743l-34.223-34.223-.371.372 33.851 33.851Zm140.54-144.123v-.744l-31.687-31.687-.372.372 32.059 32.059Zm0-10.949v-.744L173.4 20.301l-.372.372 26.585 26.584Zm0 21.897v-.744l-37.161-37.161-.372.372 37.533 37.533Zm0 10.949v-.744l-42.636-42.636-.372.372 43.008 43.008Zm0-54.743v-.744L184.349 9.352l-.372.372 15.636 15.636Zm0-10.949v-.744l-9.79-9.79-.372.372 10.162 10.162Zm0 175.178v-.744l-97.378-97.379-.372.372 97.75 97.751ZM196.894 0h-.744l3.463 3.463v-.744L196.894 0Zm2.719 91.051v-.744l-48.11-48.11-.372.372 48.482 48.482Zm0-54.743v-.744l-20.739-20.738-.372.372 21.111 21.11Zm0 109.486v-.744l-75.482-75.482-.372.372 75.854 75.854Zm0 21.897v-.744l-86.43-86.43-.372.372 86.802 86.802Zm0-10.948v-.744l-80.956-80.956-.372.372 81.328 81.328Zm0 21.897v-.744l-91.904-91.904-.372.372 92.276 92.276Zm0-43.794v-.744l-70.007-70.007-.372.372 70.379 70.379Zm0-32.846v-.744l-53.584-53.584-.372.372L199.613 102Zm0 10.949v-.744l-59.059-59.058-.372.372 59.431 59.43Zm0 10.948v-.744L135.08 58.621l-.372.372 64.905 64.904Z" fill="url(#bottom-right-lines-white-background__b)"/></g><defs><linearGradient id="bottom-right-lines-white-background__b" x1="80.436" y1="66.808" x2="168.137" y2="218.71" gradientUnits="userSpaceOnUse"><stop offset=".339" stop-color="#00CBEC"/><stop offset=".538" stop-color="#16A1E9"/><stop offset=".986" stop-color="#4E36E1"/><stop offset="1" stop-color="#5033E1"/></linearGradient><clipPath id="bottom-right-lines-white-background__a"><path fill="#fff" d="M0 0h199.613v202.329H0z"/></clipPath></defs></svg>
