<svg width="614" height="204" fill="none" xmlns="http://www.w3.org/2000/svg"><g clip-path="url(#rectangle-lines-white-background__a)"><path d="M0 14.258v-.995L13.264 0h.995L0 14.258ZM32.022 0h-.995L0 31.027v.995L32.022 0Zm17.763 0h-.995L0 48.791v.995L49.785 0Zm17.764 0h-.995L0 66.554v.995L67.549 0Zm17.763 0h-.995L0 84.317v.995L85.312 0Zm17.764 0h-.995L0 102.081v.995L103.076 0Zm17.763 0h-.995L0 119.845v.995L120.839 0Zm17.764 0h-.995L0 137.608v.995L138.603 0Zm17.763 0h-.995L0 155.371v.995L156.366 0Zm17.764 0h-.995L0 173.136v.995L174.13 0Zm17.764 0h-.995L0 190.899v.995L191.894 0Zm17.763 0h-.995L5.55 203.113h.995L209.657 0ZM23.313 203.113h.995L227.421 0h-.995L23.313 203.113ZM244.19 0 41.077 203.113h.995L245.184 0h-.994Zm18.758 0h-.995L58.84 203.113h.995L262.948 0Zm17.763 0h-.995L76.604 203.113h.995L280.711 0Zm17.764 0h-.995L94.367 203.113h.995L298.475 0Zm17.763 0h-.995L112.13 203.113h.995L316.238 0Zm17.763 0h-.995L129.894 203.113h.995L334.001 0Zm17.764 0h-.995L147.657 203.113h.995L351.765 0Zm17.763 0h-.995L165.421 203.113h.995L369.528 0Zm17.764 0h-.995L183.184 203.113h.995L387.292 0Zm17.763 0h-.995L200.948 203.113h.995L405.055 0Zm17.764 0h-.995L218.711 203.113h.995L422.819 0Zm17.763 0h-.995L236.475 203.113h.995L440.582 0Zm17.764 0h-.995L254.238 203.113h.995L458.346 0Zm17.763 0h-.995L272.001 203.113h.995L476.109 0Zm17.764 0h-.995L289.766 203.113h.995L493.873 0Zm17.764 0h-.995L307.529 203.113h.995L511.637 0ZM529.4 0h-.995L325.293 203.113h.995L529.4 0Zm17.764 0h-.995L343.056 203.113h.995L547.164 0Zm17.763 0h-.995L360.82 203.113h.995L564.927 0Zm17.764 0h-.995L378.583 203.113h.995L582.691 0Zm17.763 0h-.995L396.347 203.113h.995L600.454 0Zm12.7 5.064v-.995L414.11 203.113h.995L613.154 5.064Zm0 17.764v-.995l-181.28 181.28h.995L613.154 22.828Zm0 17.763v-.995L449.637 203.113h.995L613.154 40.591Zm0 17.763v-.994L467.4 203.113h.995L613.154 58.354Zm0 17.764v-.995l-127.99 127.99h.995L613.154 76.118Zm0 17.763v-.995L502.927 203.113h.995L613.154 93.881Zm0 17.764v-.995l-92.463 92.463h.995l91.468-91.468Zm0 17.763v-.995l-74.699 74.699h.995l73.704-73.704Zm0 17.764v-.995l-56.936 56.936h.995l55.941-55.941Zm0 17.763v-.995l-39.172 39.172h.995l38.177-38.177Zm0 17.763v-.995l-21.409 21.409h.995l20.414-20.414Zm0 17.764v-.995l-3.645 3.645h.995l2.65-2.65Z" fill="url(#rectangle-lines-white-background__b)"/></g><defs><linearGradient id="rectangle-lines-white-background__b" x1="0" y1="101.556" x2="613.153" y2="101.556" gradientUnits="userSpaceOnUse"><stop stop-color="#FF5543"/><stop offset=".106" stop-color="#FB524B"/><stop offset=".273" stop-color="#F04A62"/><stop offset=".481" stop-color="#DD3D87"/><stop offset=".72" stop-color="#C42BBA"/><stop offset=".984" stop-color="#A314FB"/><stop offset="1" stop-color="#A112FF"/></linearGradient><clipPath id="rectangle-lines-white-background__a"><path fill="#fff" d="M0 0h613.154v203.113H0z"/></clipPath></defs></svg>
