<svg width="167" height="170" fill="none" xmlns="http://www.w3.org/2000/svg"><g clip-path="url(#triangle-lines-black-background__a)"><path d="M71.736 169.169h-.622l51.5-51.499.31.311-51.188 51.188Zm42.034-60.343-.311-.311-60.654 60.653h.622l60.343-60.342Zm-4.578-4.577-.311-.311-65.23 65.231h.622l64.919-64.92Zm9.155 9.154-.311-.311-56.076 56.076h.622l55.765-55.765Zm9.154 9.155-.31-.311-46.922 46.922h.622l46.61-46.611Zm-22.886-22.886-.311-.311-69.808 69.808h.622l69.497-69.497ZM90.884 85.941l-.311-.311-83.539 83.539h.622l83.228-83.228Zm9.154 9.154-.311-.311-74.385 74.385h.622l74.074-74.074Zm-4.577-4.577-.311-.311-78.962 78.962h.622l78.651-78.651Zm54.925 54.925-.31-.311-24.037 24.037h.621l23.726-23.726Zm9.154 9.154-.31-.311-14.882 14.882h.621l14.571-14.571Zm-27.462-27.462-.31-.311-42.345 42.345h.622l42.033-42.034Zm34.82 38.413v-.621l-4.242 4.242h.621l3.621-3.621ZM86.307 81.364l-.311-.311L0 167.049v.622l86.307-86.307Zm77.81 77.81-.31-.311-10.305 10.305h.621l9.994-9.994Zm-27.462-27.462-.31-.311-37.768 37.768h.621l37.457-37.457Zm4.577 4.577-.31-.311-33.191 33.191h.621l32.88-32.88Zm13.731 13.731-.31-.311-19.459 19.459h.621l19.148-19.148Zm-9.154-9.154-.31-.311-28.614 28.614h.621l28.303-28.303ZM26.805 21.861l-.311-.311L0 48.044v.622l26.805-26.805Zm-4.577-4.577-.311-.311L0 38.89v.622l22.228-22.228Zm9.154 9.155-.311-.311L0 57.198v.622l31.382-31.381Zm4.577 4.577-.311-.311L0 66.353v.622l35.959-35.959ZM13.074 8.13l-.311-.311L0 20.582v.622L13.074 8.13ZM8.496 3.553l-.31-.311L0 11.428v.622l8.496-8.497ZM81.73 76.787l-.311-.311L0 157.895v.622l81.73-81.73ZM0 2.273v.622L2.895 0h-.622L0 2.273Zm40.536 33.32-.311-.311L0 75.507v.622l40.536-40.536ZM17.65 12.707l-.311-.311L0 29.736v.622l17.65-17.651Zm45.772 45.771-.311-.311L0 121.278v.622l63.422-63.422Zm9.154 9.154-.311-.311L0 139.586v.622l72.576-72.576Zm-4.577-4.577-.311-.311L0 130.432v.622l67.999-67.999Zm9.154 9.155-.311-.311L0 148.74v.622L77.153 72.21ZM58.844 53.901l-.311-.311L0 112.124v.622l58.844-58.845ZM45.113 40.17l-.311-.311L0 84.661v.622L45.113 40.17Zm4.577 4.577-.311-.311L0 93.815v.622l49.69-49.69Zm4.577 4.577-.311-.311L0 102.969v.622l54.267-54.267Z" fill="url(#triangle-lines-black-background__b)"/></g><defs><linearGradient id="triangle-lines-black-background__b" x1="99.645" y1="55.858" x2="26.317" y2="182.865" gradientUnits="userSpaceOnUse"><stop offset=".339" stop-color="#00CBEC"/><stop offset=".538" stop-color="#16A1E9"/><stop offset=".986" stop-color="#4E36E1"/><stop offset="1" stop-color="#5033E1"/></linearGradient><clipPath id="triangle-lines-black-background__a"><path fill="#fff" d="M0 0h166.898v169.169H0z"/></clipPath></defs></svg>
