<svg width="329" height="330" fill="none" xmlns="http://www.w3.org/2000/svg"><g clip-path="url(#triangle-lines-white-background__a)"><path d="M44.217 39.845 0 84.061V82.73l43.55-43.55.667.665ZM4.322 0 0 4.322v1.332L4.988.666 4.322 0Zm58.842 58.769L0 121.934v1.332l63.83-63.831-.666-.666Zm-9.807-9.794L0 102.332v1.332L54.023 49.64l-.666-.665Zm29.421 29.384L0 161.138v1.332l83.445-83.445-.667-.666ZM14.129 9.795 0 23.924v1.332L14.795 10.46l-.666-.665Zm19.614 19.59L0 63.128v1.332l34.409-34.41-.666-.665Zm-9.807-9.795L0 43.526v1.332l24.602-24.602-.666-.666Zm49.035 48.975L0 141.536v1.331L73.638 69.23l-.667-.665Zm78.456 78.358L0 298.351v1.332l152.094-152.094-.667-.666Zm-19.613-19.589L0 259.148v1.332L132.48 128l-.666-.666Zm9.807 9.795L0 278.749v1.332l142.287-142.287-.666-.665Zm19.614 19.59L0 317.953v1.332l161.901-161.901-.666-.665Zm-68.65-68.565L0 180.739v1.332l93.251-93.252-.666-.665Zm29.421 29.385L0 239.546v1.332l122.673-122.673-.667-.666Zm-19.613-19.59L0 200.341v1.332L103.059 98.615l-.666-.666Zm9.806 9.795L0 219.943v1.331l112.866-112.865-.667-.665Zm196.142 195.898-25.563 25.564h1.33l24.899-24.899-.666-.665Zm-68.649-68.564-94.128 94.128h1.331l93.463-93.463-.666-.665Zm19.614 19.59-74.538 74.538h1.331l73.873-73.873-.666-.665Zm-9.808-9.796-84.333 84.333h1.332l83.668-83.668-.667-.665Zm-29.421-29.384L106.359 329.206h1.332l113.053-113.053-.667-.665Zm-38.562-38.514-.666-.665L27.952 329.206h1.332l152.231-152.232Zm9.141 9.129L47.553 329.206h1.332l142.437-142.437-.666-.666Zm19.614 19.59L86.757 329.206h1.332l122.848-122.847-.667-.666Zm-9.807-9.795L67.155 329.206h1.332l132.642-132.642-.666-.666Zm29.421 29.385L125.961 329.206h1.332L230.55 225.948l-.666-.665Zm39.229 39.18-64.743 64.743h1.331l64.078-64.078-.666-.665ZM9.681 329.206l162.027-162.027-.667-.666L8.35 329.206h1.331Zm308.467-15.769-15.769 15.769h1.331l15.104-15.104-.666-.665Zm9.807 9.795-5.974 5.974h1.33l5.309-5.309-.665-.665Zm-29.421-29.385-35.358 35.358h1.331l34.693-34.693-.666-.665Zm-19.614-19.589-54.948 54.948h1.331l54.283-54.283-.666-.665Zm9.807 9.795-45.153 45.153h1.331l44.488-44.488-.666-.665Z" fill="url(#triangle-lines-white-background__b)"/></g><defs><linearGradient id="triangle-lines-white-background__b" x1="166.572" y1="161.848" x2="3.782" y2="324.638" gradientUnits="userSpaceOnUse"><stop offset=".339" stop-color="#00CBEC"/><stop offset=".538" stop-color="#16A1E9"/><stop offset=".986" stop-color="#4E36E1"/><stop offset="1" stop-color="#5033E1"/></linearGradient><clipPath id="triangle-lines-white-background__a"><path fill="#fff" d="M0 0h328.621v329.206H0z"/></clipPath></defs></svg>
