<svg width="408" height="150" fill="none" xmlns="http://www.w3.org/2000/svg"><g clip-path="url(#rectangle-lines-black-background__a)"><path d="M0 5.289V4.53L4.53 0h.759L0 5.289ZM18.847 0h-.759L0 18.087v.759L18.847 0Zm13.557 0h-.759L0 31.645v.759L32.404 0Zm13.558 0h-.759L0 45.203v.759L45.962 0ZM59.52 0h-.759L0 58.761v.759L59.52 0Zm13.558 0h-.759L0 72.319v.759L73.078 0Zm13.558 0h-.759L0 85.877v.759L86.636 0Zm13.558 0h-.759L0 99.435v.759L100.194 0Zm13.558 0h-.759L0 112.993v.759L113.752 0Zm13.558 0h-.759L0 126.551v.759L127.31 0Zm13.558 0h-.759L0 140.109v.759L140.868 0ZM3.764 149.902h.759L154.426 0h-.759L3.764 149.902ZM167.225 0 17.322 149.902h.759L167.984 0h-.759Zm14.317 0h-.759L30.88 149.902h.759L181.542 0ZM195.1 0h-.759L44.438 149.902h.759L195.1 0Zm13.557 0h-.759L57.996 149.902h.759L208.657 0Zm13.558 0h-.759L71.554 149.902h.759L222.215 0Zm13.558 0h-.759L85.112 149.902h.759L235.773 0Zm13.558 0h-.759L98.669 149.902h.759L249.331 0Zm13.557 0h-.759L112.227 149.902h.759L262.888 0Zm13.559 0h-.759L125.785 149.902h.759L276.447 0Zm13.557 0h-.759L139.343 149.902h.759L290.004 0Zm13.558 0h-.759L152.901 149.902h.759L303.562 0Zm13.558 0h-.759L166.459 149.902h.759L317.12 0Zm13.558 0h-.759L180.016 149.902h.759L330.678 0Zm13.558 0h-.759L193.574 149.902h.759L344.236 0Zm13.558 0h-.759L207.133 149.902h.759L357.794 0Zm13.558 0h-.759L220.691 149.902h.759L371.352 0Zm13.558 0h-.759L234.248 149.902h.759L384.91 0Zm13.558 0h-.759L247.806 149.902h.759L398.468 0Zm9.483 4.075v-.759L261.364 149.902h.759L407.951 4.075Zm0 13.558v-.759L274.922 149.902h.759l132.27-132.269Zm0 13.557v-.759L288.48 149.902h.759L407.951 31.19Zm0 13.558v-.759L302.038 149.902h.759L407.951 44.748Zm0 13.558v-.759l-92.355 92.355h.759l91.596-91.596Zm0 13.558v-.759l-78.798 78.798h.759l78.039-78.039Zm0 13.558v-.759l-65.24 65.24h.759l64.481-64.481Zm0 13.558v-.76l-51.682 51.682h.759l50.923-50.922Zm0 13.557v-.759l-38.124 38.124h.759l37.365-37.365Zm0 13.558v-.759l-24.566 24.566h.759l23.807-23.807Zm0 13.558v-.759l-11.008 11.008h.759l10.249-10.249Z" fill="url(#rectangle-lines-black-background__b)"/></g><defs><linearGradient id="rectangle-lines-black-background__b" x1="0" y1="74.951" x2="407.951" y2="74.951" gradientUnits="userSpaceOnUse"><stop stop-color="#A112FF"/><stop offset=".01" stop-color="#A212FD"/><stop offset=".337" stop-color="#B81BCB"/><stop offset=".623" stop-color="#C821A6"/><stop offset=".854" stop-color="#D2258F"/><stop offset="1" stop-color="#D62687"/></linearGradient><clipPath id="rectangle-lines-black-background__a"><path fill="#fff" d="M0 0h407.951v149.902H0z"/></clipPath></defs></svg>
