<svg width="498" height="234" fill="none" xmlns="http://www.w3.org/2000/svg"><g clip-path="url(#top-right-triangle-black-background__a)"><path d="m441.177 0-.57 176.882 56.474 56.475V0h-55.904Z" fill="url(#top-right-triangle-black-background__b)"/><path d="m263.725 0 176.882 176.882L441.177 0H263.725Z" fill="url(#top-right-triangle-black-background__c)"/><path d="M0 8.14v-.76L7.38 0h.76L0 8.14ZM21.697 0h-.759L0 20.938v.759L21.697 0Zm13.559 0h-.759L0 34.497v.759L35.256 0Zm13.558 0h-.759L0 48.055v.759L48.814 0Zm13.558 0h-.759L0 61.612v.759L62.372 0ZM0 75.17v.759L75.93 0h-.76L0 75.17ZM88.728 0 0 88.728v.759L89.487 0h-.759Zm14.317 0h-.759L0 102.286v.759L103.045 0Zm13.558 0h-.759L0 115.844v.759L116.603 0Zm13.558 0h-.759L0 129.402v.759L130.161 0Zm13.558 0h-.759L0 142.96v.759L143.719 0ZM6.615 149.902h.759L157.277 0h-.759L6.615 149.902ZM170.834 0h-.759L20.173 149.902h.759L170.834 0Zm13.558 0h-.759L33.731 149.902h.759L184.392 0Zm13.558 0h-.759L47.289 149.902h.759L197.95 0Zm13.558 0h-.759L60.846 149.902h.759L211.508 0Zm13.558 0h-.759L74.405 149.902h.759L225.066 0Zm13.558 0h-.759L87.962 149.902h.759L238.624 0Zm13.557 0h-.759L101.52 149.902h.759L252.181 0Zm10.731 2.828-.38-.379-147.454 147.453h.759L262.912 2.828Zm6.778 6.779-.38-.38-140.674 140.675h.759L269.69 9.607Zm6.779 6.779-.38-.38-133.895 133.896h.759L276.469 16.386Zm6.779 6.779-.38-.38-127.116 127.117h.759L283.248 23.165Zm6.78 6.779-.38-.38L169.31 149.902h.759L290.028 29.944Zm6.778 6.779-.38-.38-113.558 113.559h.759L296.806 36.723Zm6.779 6.779-.38-.38-106.78 106.78h.759l106.401-106.4Zm6.779 6.779-.38-.38-100 100.001h.759l99.621-99.621Zm6.779 6.779-.38-.38-93.222 93.222h.759l92.843-92.842Zm6.779 6.779-.38-.38-86.443 86.443h.759l86.064-86.063Zm6.779 6.778-.38-.38-79.664 79.664h.759l79.285-79.284Zm6.779 6.779-.38-.38-72.885 72.885h.759l72.506-72.505Zm6.779 6.779-.38-.38-66.107 66.107h.759l65.728-65.727Zm6.779 6.779-.38-.38-59.328 59.328h.759l58.949-58.948Zm6.779 6.779-.38-.38-52.549 52.549h.759l52.17-52.169Zm6.779 6.779-.38-.38-45.77 45.77h.759l45.391-45.39Zm6.779 6.779-.38-.38-38.991 38.991h.759l38.612-38.611Zm6.779 6.779-.38-.38-32.212 32.212h.759l31.833-31.832Zm6.778 6.779-.38-.38-25.433 25.433h.759l25.054-25.053Zm6.779 6.778-.38-.379-18.654 18.654h.759l18.275-18.275Zm6.779 6.78-.38-.38-11.875 11.875h.759l11.496-11.495Zm6.78 6.779-.38-.38-5.096 5.096h.759l4.717-4.716Z" fill="url(#top-right-triangle-black-background__d)"/><path d="M277.759 0H277l-5.731 5.731.38.379 6.11-6.11Zm.289 12.51.38.379L291.317 0h-.759l-12.51 12.51Zm6.779 6.778.38.38L304.875 0h-.759l-19.289 19.288Zm6.779 6.779.38.38L318.432 0h-.759l-26.067 26.067Zm6.779 6.779.379.38L331.99 0h-.759l-32.846 32.846Zm6.779 6.779.379.38L345.548 0h-.759l-39.625 39.625Zm6.779 6.779.379.379L359.106 0h-.759l-46.404 46.404Zm6.779 6.779.379.379L372.664 0h-.759l-53.183 53.183Zm6.779 6.779.379.379L386.222 0h-.759l-59.962 59.962Zm6.779 6.779.379.379L399.78 0h-.76l-66.74 66.741Zm6.779 6.779.379.379L413.337 0h-.759l-73.519 73.52Zm6.779 6.778.379.38L426.895 0h-.759l-80.298 80.298Zm6.779 6.78.379.38L440.453 0h-.759l-87.077 87.078Zm6.778 6.779.38.38L454.012 0h-.76l-93.857 93.857Zm6.779 6.779.38.38L467.569 0h-.759L366.174 100.636Zm6.779 6.779.38.379L481.127 0h-.759L372.953 107.415Zm6.779 6.779.38.379L494.685 0h-.759L379.732 114.194Zm6.779 6.779.38.379 110.19-110.19v-.759l-110.57 110.57Zm6.779 6.778.38.38L497.081 24.719v-.759L393.29 127.751Zm6.779 6.779.38.38 96.632-96.633v-.759l-97.012 97.012Zm6.779 6.779.38.38 89.853-89.854v-.759l-90.233 90.233Zm6.779 6.779.38.38 83.074-83.075v-.759l-83.454 83.454Zm6.779 6.779.379.38 76.296-76.296v-.759l-76.675 76.675Zm6.779 6.779.379.38 69.517-69.517v-.759l-69.896 69.896Zm6.779 6.779.379.379 62.738-62.738v-.759l-63.117 63.118Zm6.779 6.779.379.379 55.959-55.959v-.759l-56.338 56.339Zm6.779 6.779.379.379 49.18-49.18v-.759l-49.559 49.56Zm6.779 6.779.379.379 42.401-42.401v-.759l-42.78 42.781Zm6.779 6.779.379.379 35.622-35.622v-.759l-36.001 36.002Zm6.779 6.778.379.38 28.843-28.843v-.76l-29.222 29.223Zm6.778 6.78.38.38 22.064-22.065v-.759l-22.444 22.444Zm6.779 6.779.38.38 15.285-15.286v-.759l-15.665 15.665Zm15.665-1.348v-.759l-8.886 8.886.38.379 8.506-8.506Zm0 12.799-2.107 2.107.38.379 1.727-1.727v-.759Z" fill="#fff"/></g><defs><linearGradient id="top-right-triangle-black-background__b" x1="468.844" y1="233.357" x2="468.844" y2="0" gradientUnits="userSpaceOnUse"><stop offset=".167" stop-color="#FF5543"/><stop offset=".513" stop-color="#E03362"/><stop offset=".811" stop-color="#CB1C76"/><stop offset="1" stop-color="#C4147D"/></linearGradient><linearGradient id="top-right-triangle-black-background__c" x1="263.725" y1="88.441" x2="441.177" y2="88.441" gradientUnits="userSpaceOnUse"><stop stop-color="#A112FF"/><stop offset=".209" stop-color="#9E15FF"/><stop offset=".359" stop-color="#961EFE"/><stop offset=".491" stop-color="#892EFC"/><stop offset=".612" stop-color="#7544FA"/><stop offset=".726" stop-color="#5C61F7"/><stop offset=".834" stop-color="#3E84F3"/><stop offset=".936" stop-color="#1AADEF"/><stop offset="1" stop-color="#00CBEC"/></linearGradient><linearGradient id="top-right-triangle-black-background__d" x1="121.752" y1="216.376" x2="249.581" y2="-5.029" gradientUnits="userSpaceOnUse"><stop stop-color="#A112FF"/><stop offset=".005" stop-color="#A013FF"/><stop offset=".272" stop-color="#6854F8"/><stop offset=".514" stop-color="#3B87F3"/><stop offset=".724" stop-color="#1BACEF"/><stop offset=".893" stop-color="#07C3ED"/><stop offset="1" stop-color="#00CBEC"/></linearGradient><clipPath id="top-right-triangle-black-background__a"><path fill="#fff" d="M0 0h497.081v233.357H0z"/></clipPath></defs></svg>
