<svg width="41" height="38" viewBox="0 0 41 38" fill="none" xmlns="http://www.w3.org/2000/svg">
<path fill-rule="evenodd" clip-rule="evenodd" d="M24.76 6.95996C26.0849 6.95996 27.16 7.96415 27.16 9.19929V14.3206C27.16 15.5558 26.0849 16.56 24.76 16.56C23.4351 16.56 22.36 15.5558 22.36 14.3206V9.19929C22.36 7.96415 23.4351 6.95996 24.76 6.95996Z" fill="url(#paint0_radial_11291_933)"/>
<path fill-rule="evenodd" clip-rule="evenodd" d="M8.91998 12.72C8.91998 11.661 9.82321 10.8 10.9363 10.8H15.5437C16.6568 10.8 17.56 11.661 17.56 12.72C17.56 13.7791 16.6568 14.64 15.5437 14.64H10.9363C9.82321 14.64 8.91998 13.7791 8.91998 12.72Z" fill="url(#paint1_linear_11291_933)"/>
<path fill-rule="evenodd" clip-rule="evenodd" d="M10.9741 21.2688C10.2439 20.3204 8.86346 20.1366 7.88317 20.8527C6.90288 21.5688 6.71282 22.9237 7.44304 23.8721C7.44304 23.8721 7.45304 23.8914 7.46305 23.9011C7.47305 23.9205 7.49306 23.9398 7.51306 23.9592C7.55307 24.0076 7.60309 24.0753 7.67311 24.1527C7.81315 24.3076 8.00321 24.5205 8.25328 24.7624C8.75343 25.2463 9.47364 25.885 10.4339 26.5141C12.3545 27.7818 15.2254 29.0399 18.9965 29.0399C22.7676 29.0399 25.6384 27.7818 27.559 26.5141C28.5193 25.885 29.2395 25.2463 29.7397 24.7624C29.9897 24.5205 30.1798 24.3076 30.3198 24.1527C30.3899 24.0753 30.4399 24.0076 30.4799 23.9592C30.4999 23.9302 30.5399 23.8818 30.5599 23.8624C30.5599 23.8624 30.5599 23.8624 30.5599 23.8721V23.8624C31.2901 22.9043 31.0901 21.5495 30.1198 20.8333C29.1495 20.1172 27.7691 20.3108 27.0289 21.2495C27.0189 21.2592 26.9989 21.2882 26.9588 21.3269C26.8888 21.4043 26.7688 21.5398 26.6087 21.6946C26.2786 22.014 25.7685 22.4592 25.0883 22.914C23.7379 23.8043 21.7073 24.7044 18.9965 24.7044C16.2857 24.7044 14.2651 23.8043 12.9047 22.914C12.2245 22.4688 11.7143 22.0237 11.3842 21.6946C11.2242 21.5301 11.1041 21.4043 11.0341 21.3269C10.9941 21.2882 10.9741 21.2592 10.9641 21.2495L10.9741 21.2688Z" fill="url(#paint2_linear_11291_933)"/>
<defs>
<radialGradient id="paint0_radial_11291_933" cx="0" cy="0" r="1" gradientUnits="userSpaceOnUse" gradientTransform="translate(16.8364 17.2023) rotate(-9.05612) scale(11.5154 13.0166)">
<stop offset="0.5" stop-color="#374151"/>
<stop offset="0.88" stop-color="#374151"/>
</radialGradient>
<linearGradient id="paint1_linear_11291_933" x1="9.9364" y1="13.8172" x2="18.8516" y2="9.32007" gradientUnits="userSpaceOnUse">
<stop stop-color="#374151"/>
<stop offset="0.21" stop-color="#374151"/>
<stop offset="0.36" stop-color="#374151"/>
<stop offset="0.5" stop-color="#374151"/>
<stop offset="0.62" stop-color="#374151"/>
<stop offset="0.74" stop-color="#374151"/>
<stop offset="0.85" stop-color="#374151"/>
<stop offset="0.96" stop-color="#374151"/>
<stop offset="1" stop-color="#374151"/>
</linearGradient>
<linearGradient id="paint2_linear_11291_933" x1="7.42498" y1="25.6315" x2="31.4313" y2="25.4409" gradientUnits="userSpaceOnUse">
<stop offset="0.15" stop-color="#374151"/>
<stop offset="0.98" stop-color="#374151"/>
</linearGradient>
</defs>
</svg>
