<svg width="2500" height="2344" viewBox="0 0 2500 2344" fill="none" xmlns="http://www.w3.org/2000/svg">
<path d="M687.324 1494.62H305.273C355.859 1668.13 449.727 1823.65 587.148 1961.1C806.23 2180.21 1069.67 2289.62 1377.73 2289.62C1439.32 2289.62 1498.98 2285.03 1556.93 2276.29C1788.97 2241.26 1992.14 2136.35 2166.21 1961.1C2304.51 1823.7 2399.04 1668.13 2450.02 1494.62H687.324ZM476.66 975.732H277.08C269.639 1020.25 264.787 1065.17 262.549 1110.25H2493.01C2490.73 1064.36 2485.75 1019.58 2478.39 975.732M262.549 1235.18C264.805 1281.1 269.756 1325.87 277.08 1369.7H2478.43C2485.92 1325.18 2490.81 1280.26 2493.08 1235.18M2450.07 850.781C2399.14 676.787 2304.59 520.537 2166.21 382.129C1992.6 208.525 1790.02 104.365 1558.72 69.3262C1498.82 60.2689 1438.32 55.7444 1377.74 55.791C1069.68 55.791 806.221 164.609 587.158 382.139C449.687 520.537 355.762 676.787 305.215 850.781" fill="black"/>
<path d="M196.221 1172.75C196.221 583.525 638.74 93.9551 1214.42 7.8418C1200.15 7.32422 1185.79 6.74805 1171.37 6.74805C525.352 6.75781 1.60156 528.809 1.60156 1172.75C1.60156 1816.73 525.332 2338.74 1171.37 2338.74C1185.84 2338.74 1200.19 2338.19 1214.52 2337.67C638.74 2251.56 196.221 1761.98 196.221 1172.75Z" fill="black"/>
<path d="M2136.83 1110.22C2133.18 1064.78 2125.45 1019.76 2113.74 975.703H641.846C630.121 1019.76 622.388 1064.78 618.74 1110.22H2136.83Z" fill="black"/>
<path d="M2136.83 1235.17H618.76C622.393 1280.61 630.12 1325.64 641.846 1369.7H2113.76C2125.47 1325.64 2133.19 1280.61 2136.83 1235.17Z" fill="black"/>
<path d="M1377.79 1934.54C1683.46 1934.54 1946.95 1754.45 2068.28 1494.62H687.305C808.643 1754.45 1072.12 1934.54 1377.79 1934.54Z" fill="black"/>
</svg>
