<svg width="20" height="20" viewBox="0 0 20 20" fill="none" xmlns="http://www.w3.org/2000/svg">
<path fill-rule="evenodd" clip-rule="evenodd" d="M0 0H20V20H0V0ZM2.61739 3.94348C2.61847 4.00703 2.60352 4.06984 2.57391 4.12608C2.54565 4.18043 2.50435 4.22174 2.45217 4.25C2.4 4.27826 2.33913 4.29348 2.26956 4.29348H1.73913V4.94782H2.36304C2.55217 4.94782 2.71956 4.90869 2.86739 4.82826C3.01304 4.74782 3.12826 4.63695 3.20869 4.49348C3.28913 4.35 3.32826 4.18261 3.32826 3.99565V1.73913H2.61739V3.94348ZM8.69565 16.9565H1.73913V18.2609H8.69565V16.9565ZM6.11739 3.63913H4.60652V4.33043H6.31956V4.94782H3.91522V1.73913H6.27391V2.35869H4.60652V3.03913H6.11739V3.63913ZM6.57826 2.37608H7.53043V4.94782H8.23913V2.37608H9.18695V1.73913H6.57826V2.37608ZM3.88478 7.51957C3.82928 7.49063 3.77102 7.46732 3.71087 7.45C3.88116 7.40235 4.02715 7.29208 4.11956 7.14131C4.18751 7.02701 4.22215 6.89599 4.21956 6.76305C4.21956 6.6 4.17608 6.45435 4.08695 6.32609C3.99261 6.19329 3.86313 6.0894 3.71304 6.02609C3.55217 5.95435 3.36956 5.91739 3.16522 5.91739H1.73913V9.12609H3.19348C3.40869 9.12609 3.60217 9.08913 3.76956 9.01304C3.93913 8.93696 4.06956 8.83261 4.16304 8.69783C4.25652 8.56305 4.30217 8.41087 4.30217 8.23696C4.30217 8.07826 4.26522 7.93696 4.1913 7.81087C4.11871 7.68676 4.01243 7.58575 3.88478 7.51957ZM2.42826 6.45652H3.05869C3.14565 6.45652 3.22391 6.47174 3.28913 6.50435C3.3536 6.53262 3.40812 6.57957 3.44565 6.63913C3.48261 6.69783 3.50217 6.76522 3.50217 6.84348C3.50217 6.92174 3.48261 6.99565 3.44565 7.05652C3.40869 7.11739 3.35652 7.16304 3.28913 7.19565C3.22174 7.22826 3.14565 7.24565 3.05869 7.24565H2.42826V6.45652ZM3.51522 8.4C3.47266 8.46255 3.41305 8.51159 3.34348 8.54131C3.26956 8.57391 3.18478 8.59131 3.08695 8.59131H2.42826V7.76739H3.08695C3.18261 7.76739 3.26522 7.78478 3.3413 7.81957C3.41522 7.85435 3.47391 7.90435 3.51522 7.96739C3.55652 8.03044 3.57608 8.10435 3.57608 8.18696C3.57608 8.26957 3.55652 8.33913 3.51522 8.4ZM7.15652 7.46957C7.05869 7.62391 6.92174 7.74565 6.74348 7.83044L6.7413 7.82826L6.74129 7.82827C6.70651 7.84348 6.67173 7.8587 6.63478 7.87174L7.36739 9.12609H6.55652L5.90652 7.95652H5.44348V9.12609H4.73261V5.91739H6.13695C6.36956 5.91739 6.57391 5.9587 6.75 6.04348C6.92608 6.12826 7.06304 6.24565 7.15869 6.4C7.25435 6.55435 7.30217 6.72609 7.30217 6.93044C7.30217 7.13478 7.25434 7.31522 7.15652 7.46957ZM6.08478 6.49565H5.44565V7.38478H6.08478C6.18478 7.38478 6.26956 7.36739 6.34348 7.33044C6.41739 7.29565 6.47391 7.24348 6.51304 7.17609C6.55217 7.1087 6.57174 7.02826 6.57174 6.93913C6.57174 6.85 6.55217 6.77174 6.51304 6.70435C6.47326 6.63707 6.41419 6.5833 6.34348 6.55C6.26273 6.51177 6.17409 6.49315 6.08478 6.49565ZM8.58261 5.91957L7.43695 9.12826H8.15869L8.38478 8.41957H9.57391L9.81739 9.12826H10.5261L9.35217 5.91957H8.58261ZM8.54565 7.88261L8.91521 6.75L8.95869 6.54348L9.00217 6.75L9.39565 7.88261H8.54565ZM11.5804 5.91957H10.8478V9.12826H11.5804V5.91957ZM12.8739 5.91957L14.2543 8.08913V5.91957H14.9043V9.12826H14.2043L12.8304 6.95652V9.12826H12.1826V5.91957H12.8739ZM17.7109 7.73044C17.6413 7.59565 17.5435 7.48478 17.4196 7.39565C17.2935 7.30652 17.15 7.24565 16.9891 7.21522L16.4435 7.10218C16.3587 7.08261 16.2891 7.04783 16.2391 6.99565C16.1891 6.94348 16.163 6.88044 16.163 6.80435C16.1613 6.73993 16.1804 6.67666 16.2174 6.62391C16.2567 6.57051 16.3102 6.52911 16.3717 6.50435C16.4391 6.47609 16.5152 6.46087 16.6022 6.46087C16.6891 6.46087 16.7696 6.47609 16.837 6.50652C16.9043 6.53696 16.9565 6.57826 16.9935 6.63261C17.0304 6.68696 17.05 6.74783 17.05 6.81739H17.7609C17.7565 6.63044 17.7043 6.46522 17.6065 6.32174C17.5087 6.17826 17.3717 6.06522 17.1957 5.98478C17.0217 5.90435 16.8217 5.86305 16.5956 5.86305C16.3696 5.86305 16.1739 5.90435 16 5.98913C15.8261 6.07391 15.6891 6.18913 15.5935 6.33913C15.4957 6.48913 15.4478 6.6587 15.4478 6.85C15.4452 6.9946 15.4773 7.13771 15.5413 7.26739C15.6043 7.39131 15.6935 7.49565 15.8065 7.57826C15.9259 7.66231 16.0613 7.72078 16.2043 7.75L16.7826 7.86957C16.8783 7.89348 16.9522 7.93478 17.0065 7.99348C17.0609 8.05218 17.0891 8.12826 17.0891 8.21522C17.0891 8.28696 17.0696 8.35218 17.0283 8.4087C16.9848 8.46692 16.9261 8.51205 16.8587 8.53913C16.787 8.56957 16.7 8.58478 16.6022 8.58478C16.5043 8.58478 16.4109 8.56739 16.3326 8.53261C16.2522 8.49783 16.1913 8.45 16.1478 8.38696C16.1043 8.32391 16.0804 8.25 16.0804 8.16739H15.3696C15.3688 8.35633 15.4249 8.54112 15.5304 8.69783C15.6391 8.85424 15.7888 8.97762 15.963 9.05435C16.1457 9.13913 16.3565 9.18261 16.5935 9.18261C16.8304 9.18261 17.0435 9.13913 17.2283 9.05218C17.413 8.96522 17.5565 8.84565 17.6587 8.69131C17.7609 8.53696 17.813 8.36305 17.813 8.16957C17.813 8.01087 17.7783 7.86522 17.7087 7.73044H17.7109Z" fill="#374151"/>
</svg>
