<svg width="20" height="20" viewBox="0 0 20 20" fill="none" xmlns="http://www.w3.org/2000/svg">
<path d="M14.622 3.19926C14.8974 2.96342 15.2193 2.82037 15.549 2.75851C16.2239 2.63479 16.9492 2.8629 17.4263 3.4235C18.14 4.25861 18.0392 5.51126 17.2052 6.22265L14.2574 8.72796L11.2863 7.67635L9.9287 7.19693L14.6259 3.207L14.622 3.19926Z" fill="#374151"/>
<path d="M4.75831 16.8006C4.48292 17.0365 4.16099 17.1795 3.83129 17.2414C3.15639 17.3651 2.43106 17.137 1.95398 16.5764C1.24029 15.7413 1.34113 14.4886 2.17506 13.7772L5.12292 11.2719L8.09404 12.3235L9.45161 12.8029L4.75444 16.7929L4.75831 16.8006Z" fill="#374151"/>
<path d="M6.24776 2.34483C6.04994 1.26615 6.76363 0.23387 7.84193 0.0328267C8.9241 -0.164351 9.95973 0.547034 10.1614 1.62184L10.8635 5.41847L9.11416 6.90697L6.94981 6.14145L6.24776 2.34483Z" fill="#374151"/>
<path d="M13.1325 17.6551C13.3304 18.7337 12.6167 19.766 11.5384 19.9671C10.4562 20.1642 9.42057 19.4528 9.21888 18.378L8.51682 14.5814L10.2661 13.0929L12.4305 13.8584L13.1325 17.6551Z" fill="#374151"/>
<path d="M19.2726 13.3868C19.0244 14.0788 18.4348 14.5505 17.756 14.6742C17.4224 14.7361 17.0734 14.7129 16.732 14.593L12.2753 13.0156L10.9178 12.5362L7.13987 11.1985L5.78231 10.7191L1.32562 9.14164C0.28999 8.77435 -0.253036 7.64155 0.115446 6.60927C0.363686 5.91722 0.953257 5.44554 1.63204 5.32182C1.96561 5.25996 2.3147 5.28316 2.65603 5.40301L7.11272 6.98043L8.47028 7.45984L12.2482 8.79755L13.6058 9.27696L18.0624 10.8544C19.0981 11.2217 19.6411 12.3545 19.2726 13.3868Z" fill="#374151"/>
</svg>
