<svg width="20" height="20" viewBox="0 0 20 20" fill="none" xmlns="http://www.w3.org/2000/svg">
<g clip-path="url(#clip0_1545_239)">
<mask id="mask0_1545_239" style="mask-type:alpha" maskUnits="userSpaceOnUse" x="0" y="0" width="20" height="20">
<path fill-rule="evenodd" clip-rule="evenodd" d="M14.1823 19.8634C14.3415 19.9255 14.5117 19.9541 14.6824 19.9475C14.8531 19.941 15.0206 19.8994 15.1745 19.8253L19.2922 17.8439C19.5042 17.7418 19.6832 17.582 19.8084 17.3827C19.9336 17.1834 20 16.9528 20 16.7175V3.28266C20 3.04728 19.9336 2.81668 19.8084 2.61738C19.6832 2.41808 19.5043 2.25819 19.2922 2.15609L15.1745 0.174999C14.9419 0.0630472 14.6801 0.0261872 14.4256 0.0695209C14.1711 0.112855 13.9363 0.234239 13.7537 0.416874L5.87094 7.60844L2.4375 5.00203C2.28259 4.88449 2.09144 4.82486 1.89718 4.83348C1.70292 4.8421 1.51779 4.91842 1.37391 5.04922L0.272655 6.05094C0.186834 6.12899 0.118251 6.2241 0.0712916 6.33018C0.0243323 6.43626 3.12621e-05 6.55097 -5.69793e-05 6.66698C-0.000145221 6.78299 0.0239813 6.89774 0.0707791 7.00389C0.117577 7.11004 0.186016 7.20525 0.271718 7.28344L3.24937 10L0.271874 12.7167C0.186219 12.7949 0.117821 12.8901 0.0710521 12.9963C0.0242833 13.1024 0.000172508 13.2171 0.000260741 13.3331C0.000348973 13.4491 0.0246343 13.5638 0.0715645 13.6698C0.118495 13.7759 0.187037 13.871 0.272811 13.9491L1.37406 14.9508C1.51793 15.0816 1.70304 15.158 1.89731 15.1666C2.09157 15.1752 2.28273 15.1156 2.43765 14.9981L5.87109 12.3919L13.7539 19.5833C13.8759 19.7052 14.0217 19.8006 14.1823 19.8634ZM15.003 5.45984L9.02187 10L15.0031 14.5403L15.003 5.45984Z" fill="white"/>
</mask>
<g mask="url(#mask0_1545_239)">
<path d="M19.2923 2.15937L15.1714 0.174997C14.9387 0.0629008 14.6768 0.0259629 14.4221 0.0692997C14.1675 0.112636 13.9326 0.234103 13.75 0.416871L0.259679 12.7167C0.17396 12.7949 0.105505 12.8901 0.0586943 12.9962C0.0118841 13.1023 -0.0122493 13.2171 -0.012161 13.3331C-0.0120728 13.4491 0.0122352 13.5638 0.0592068 13.6699C0.106178 13.7759 0.174779 13.871 0.260617 13.9491L1.36249 14.9508C1.5064 15.0818 1.69164 15.1582 1.88604 15.1669C2.08044 15.1755 2.27174 15.1158 2.42671 14.9981L18.6722 2.6739C19.2172 2.26047 20 2.64922 20 3.33328V3.28547C20 3.05016 19.9336 2.81964 19.8084 2.6204C19.6832 2.42116 19.5043 2.26146 19.2923 2.15937Z" fill="#374151"/>
<g filter="url(#filter0_d_1545_239)">
<path d="M19.2923 17.8408L15.1714 19.8248C14.9387 19.937 14.6769 19.974 14.4222 19.9307C14.1675 19.8874 13.9326 19.766 13.75 19.5833L0.259687 7.28328C0.173968 7.20512 0.105512 7.10992 0.058702 7.00378C0.0118918 6.89765 -0.0122416 6.7829 -0.0121534 6.6669C-0.0120651 6.5509 0.0122428 6.43619 0.0592145 6.33012C0.106186 6.22405 0.174787 6.12896 0.260625 6.05093L1.3625 5.04922C1.50641 4.91824 1.69165 4.84179 1.88605 4.83314C2.08045 4.82449 2.27174 4.88419 2.42672 5.00187L18.6722 17.3259C19.2172 17.7395 20 17.3508 20 16.6667V16.7145C20 16.9498 19.9336 17.1804 19.8084 17.3796C19.6832 17.5788 19.5043 17.7387 19.2923 17.8408Z" fill="#374151"/>
</g>
<g filter="url(#filter1_d_1545_239)">
<path d="M15.1716 19.8253C14.9387 19.9372 14.6769 19.974 14.4222 19.9306C14.1676 19.8873 13.9327 19.7659 13.75 19.5833C14.2113 20.0445 15 19.7178 15 19.0655V0.934373C15 0.282029 14.2113 -0.0446893 13.75 0.416717C13.9327 0.23409 14.1676 0.112712 14.4222 0.0693556C14.6769 0.0259991 14.9387 0.0628044 15.1716 0.174686L19.2917 2.15625C19.5039 2.25827 19.6829 2.41814 19.8082 2.61745C19.9335 2.81675 20 3.04739 20 3.28281V16.7175C20 16.9529 19.9335 17.1836 19.8082 17.3829C19.6829 17.5822 19.5039 17.742 19.2917 17.8441L15.1716 19.8253Z" fill="#374151"/>
</g>
<path opacity="0.25" fill-rule="evenodd" clip-rule="evenodd" d="M14.1703 19.8634C14.3294 19.9254 14.4996 19.954 14.6703 19.9474C14.841 19.9409 15.0084 19.8993 15.1623 19.8252L19.28 17.8438C19.4921 17.7417 19.671 17.5818 19.7962 17.3825C19.9215 17.1832 19.9879 16.9526 19.9878 16.7173V3.28257C19.9879 3.0472 19.9215 2.8166 19.7962 2.6173C19.671 2.418 19.4921 2.2581 19.28 2.15601L15.1623 0.174915C14.9297 0.0629632 14.668 0.0261033 14.4134 0.0694369C14.1589 0.112771 13.9241 0.234155 13.7416 0.41679L5.85875 7.60835L2.42531 5.0021C2.27041 4.88456 2.07925 4.82493 1.88499 4.83355C1.69073 4.84217 1.50561 4.91849 1.36172 5.04929L0.260468 6.05101C0.174668 6.12908 0.106104 6.22419 0.0591586 6.33027C0.0122131 6.43635 -0.0120804 6.55105 -0.0121686 6.66705C-0.0122569 6.78305 0.0118621 6.8978 0.0586462 7.00394C0.10543 7.11009 0.17385 7.20531 0.25953 7.28351L3.23719 9.99992L0.259686 12.7165C0.173985 12.7947 0.105546 12.8899 0.058748 12.996C0.0119501 13.1022 -0.0121764 13.2169 -0.0120881 13.3329C-0.0119999 13.4489 0.0123011 13.5637 0.0592604 13.6697C0.10622 13.7758 0.174803 13.8709 0.260624 13.949L1.36187 14.9507C1.50574 15.0815 1.69086 15.1579 1.88512 15.1665C2.07938 15.1752 2.27054 15.1156 2.42547 14.998L5.85906 12.3916L13.7419 19.5832C13.8638 19.7051 14.0097 19.8005 14.1703 19.8634ZM14.9909 5.4596L9.00969 9.99992L14.9909 14.5401V5.4596Z" fill="#374151"/>
</g>
</g>
<defs>
<filter id="filter0_d_1545_239" x="-0.793466" y="4.051" width="21.5748" height="16.6786" filterUnits="userSpaceOnUse" color-interpolation-filters="sRGB">
<feFlood flood-opacity="0" result="BackgroundImageFix"/>
<feColorMatrix in="SourceAlpha" type="matrix" values="0 0 0 0 0 0 0 0 0 0 0 0 0 0 0 0 0 0 127 0" result="hardAlpha"/>
<feOffset/>
<feGaussianBlur stdDeviation="0.390656"/>
<feColorMatrix type="matrix" values="0 0 0 0 0 0 0 0 0 0 0 0 0 0 0 0 0 0 0.25 0"/>
<feBlend mode="overlay" in2="BackgroundImageFix" result="effect1_dropShadow_1545_239"/>
<feBlend mode="normal" in="SourceGraphic" in2="effect1_dropShadow_1545_239" result="shape"/>
</filter>
<filter id="filter1_d_1545_239" x="12.9687" y="-0.729646" width="7.81262" height="21.4593" filterUnits="userSpaceOnUse" color-interpolation-filters="sRGB">
<feFlood flood-opacity="0" result="BackgroundImageFix"/>
<feColorMatrix in="SourceAlpha" type="matrix" values="0 0 0 0 0 0 0 0 0 0 0 0 0 0 0 0 0 0 127 0" result="hardAlpha"/>
<feOffset/>
<feGaussianBlur stdDeviation="0.390656"/>
<feColorMatrix type="matrix" values="0 0 0 0 0 0 0 0 0 0 0 0 0 0 0 0 0 0 0.25 0"/>
<feBlend mode="overlay" in2="BackgroundImageFix" result="effect1_dropShadow_1545_239"/>
<feBlend mode="normal" in="SourceGraphic" in2="effect1_dropShadow_1545_239" result="shape"/>
</filter>
<clipPath id="clip0_1545_239">
<rect width="20" height="20" fill="white"/>
</clipPath>
</defs>
</svg>
