<svg width="564" height="310" viewBox="0 0 564 310" fill="none" xmlns="http://www.w3.org/2000/svg">
<g clip-path="url(#clip0_4187_17357)">
<path d="M361.757 -42.3903L2.44543 198.51M379.065 -30.8717L19.754 210.028M396.374 -19.3529L37.0629 221.547M413.832 -7.735L54.5208 233.165M431.141 3.78355L71.8293 244.684M448.449 15.3023L89.1382 256.202M465.758 26.8211L106.447 267.721M483.067 38.3397L123.756 279.24M500.525 49.9576L141.214 290.858M517.834 61.4764L158.522 302.376M535.142 72.9949L175.831 313.895M552.451 84.5137L193.14 325.414M569.909 96.1316L210.598 337.032M587.218 107.65L227.907 348.55M604.526 119.169L245.215 360.069M621.835 130.688L262.524 371.588M639.144 142.206L279.833 383.106M656.602 153.824L297.291 394.724M673.91 165.342L314.598 406.242M691.221 176.863L331.91 417.763M0.0574105 176.805L364.137 419.094M17.3989 165.178L381.478 407.467M34.7393 153.552L398.819 395.841M52.0797 141.926L416.159 384.215M69.4201 130.3L433.5 372.589M86.7605 118.675L450.84 360.964M104.101 107.049L468.181 349.338M121.441 95.4229L485.521 337.712M138.782 83.797L502.861 326.086M156.122 72.1712L520.202 314.46M173.462 60.5453L537.542 302.834M190.803 48.9195L554.883 291.208M208.143 37.2936L572.223 279.583M225.484 25.6677L589.563 267.957M242.824 14.0419L606.904 256.331M260.164 2.41603L624.244 244.705M277.505 -9.20983L641.585 233.079M294.845 -20.8357L658.925 221.453M312.186 -32.4615L676.265 209.827M329.526 -44.0874L693.606 198.202" stroke="url(#paint0_radial_4187_17357)" stroke-opacity="0.1"/>
<rect opacity="0.9" x="0.000953645" y="0.555638" width="213.283" height="142.474" rx="7.5" transform="matrix(0.832792 0.554209 -0.830885 0.557066 188.937 57.1919)" fill="white" stroke="#DBE2F0"/>
<rect opacity="0.9" x="0.000953645" y="0.555638" width="215.357" height="145.804" rx="7.5" transform="matrix(0.832792 0.554209 -0.830885 0.557066 325.365 -33.4429)" fill="white" stroke="#DBE2F0"/>
<rect opacity="0.9" x="0.000953645" y="0.555638" width="189.04" height="152.633" rx="7.5" transform="matrix(0.832792 0.554209 -0.830885 0.557066 459.674 152.909)" fill="white" stroke="#DBE2F0"/>
<g filter="url(#filter0_d_4187_17357)">
<rect x="0.000953645" y="0.555634" width="126.16" height="104.325" rx="7.5" transform="matrix(0.832786 0.554205 -0.830879 0.557063 476.349 190.432)" fill="white" stroke="#DBE2F0"/>
<rect width="68.4731" height="8.02782" rx="4.01391" transform="matrix(0.832786 0.554205 -0.830879 0.557063 474.008 201.655)" fill="#DBE2F0"/>
<rect width="31.167" height="8.02782" rx="4.01391" transform="matrix(0.832786 0.554205 -0.830879 0.557063 485.066 224.708)" fill="#A6B6D9"/>
<rect width="49.1117" height="8.02782" rx="4.01391" transform="matrix(0.832786 0.554205 -0.830879 0.557063 474.08 232.074)" fill="#DBE2F0"/>
<rect width="45.3339" height="8.02782" rx="4.01391" transform="matrix(0.832787 0.554205 -0.830879 0.557062 514.167 244.075)" fill="#DBE2F0"/>
<rect width="24.0836" height="8.02783" rx="4.01391" transform="matrix(0.832786 0.554206 -0.830879 0.557063 450.877 216.633)" fill="#DBE2F0"/>
<rect width="24.0836" height="8.02782" rx="4.01391" transform="matrix(0.832786 0.554205 -0.830879 0.557063 421.491 238.459)" fill="#A6B6D9"/>
<rect width="24.0836" height="8.02782" rx="4.01391" transform="matrix(0.832787 0.554205 -0.830879 0.557062 445.591 255.351)" fill="#DBE2F0"/>
<rect width="24.0836" height="8.02783" rx="4.01391" transform="matrix(0.832786 0.554206 -0.830879 0.557063 461.863 209.267)" fill="#A6B6D9"/>
</g>
<g filter="url(#filter1_d_4187_17357)">
<rect x="0.000953645" y="0.555634" width="151.167" height="83.1783" rx="7.5" transform="matrix(0.832786 0.554205 -0.830879 0.557063 213.055 90.75)" fill="white" stroke="#DBE2F0"/>
<rect width="9.71455" height="7.51724" rx="3.75862" transform="matrix(0.832787 0.554205 -0.830879 0.557062 190.09 118.669)" fill="#DBE2F0"/>
<rect width="69.9848" height="7.51724" rx="3.75862" transform="matrix(0.832786 0.554205 -0.830879 0.557063 200.045 125.294)" fill="#A6B6D9"/>
<rect width="16.0106" height="7.51724" rx="3.75862" transform="matrix(0.832786 0.554205 -0.830879 0.557063 238.244 122.52)" fill="#DBE2F0"/>
<rect width="16.3363" height="7.51725" rx="3.75862" transform="matrix(-0.832786 -0.554205 -0.830879 0.557063 268.245 142.486)" fill="#DBE2F0"/>
<rect width="58.7698" height="7.51724" rx="3.75862" transform="matrix(0.832787 0.554205 -0.830879 0.557062 227.956 129.417)" fill="#DBE2F0"/>
<rect width="54.249" height="7.51724" rx="3.75862" transform="matrix(0.832786 0.554205 -0.830879 0.557063 273.068 145.695)" fill="#DBE2F0"/>
<rect width="28.8198" height="7.51724" rx="3.75862" transform="matrix(0.832787 0.554205 -0.830879 0.557062 200.19 110.94)" fill="#DBE2F0"/>
<rect width="12.9199" height="7.51724" rx="3.75862" transform="matrix(0.832787 0.554205 -0.830879 0.557062 172.538 134.085)" fill="#DBE2F0"/>
<rect width="28.8198" height="7.51724" rx="3.75862" transform="matrix(0.832786 0.554205 -0.830879 0.557063 186.708 143.663)" fill="#DBE2F0"/>
<rect width="38.4417" height="7.51724" rx="3.75862" transform="matrix(-0.832786 -0.554205 -0.830879 0.557062 246.793 183.648)" fill="#DBE2F0"/>
<rect width="28.8198" height="7.51724" rx="3.75862" transform="matrix(0.832787 0.554205 -0.830879 0.557062 210.478 104.042)" fill="#DBE2F0"/>
</g>
<g clip-path="url(#clip1_4187_17357)">
<path d="M418.572 193.958C418.282 193.765 417.787 193.766 417.498 193.96L417.399 194.026L406.046 204.653C405.757 204.924 405.799 205.293 406.147 205.524L416.936 212.704C417.192 212.875 417.605 212.907 417.91 212.758L433.934 205.03C434.094 204.951 434.199 204.832 434.229 204.701C434.258 204.569 434.208 204.436 434.09 204.329C434.073 204.307 434.04 204.285 434.007 204.263L418.572 193.958ZM418.181 206.866L414.742 204.577L418.658 200.704L423.866 204.17L418.181 206.866Z" fill="#DBE2F0"/>
</g>
<g filter="url(#filter2_d_4187_17357)">
<rect x="0.000953674" y="0.555634" width="161.987" height="54.7225" rx="7.5" transform="matrix(0.832786 0.554205 -0.830879 0.557063 344.658 -2.14407)" fill="white" stroke="#DBE2F0"/>
<rect width="68.473" height="8.02782" rx="4.01391" transform="matrix(0.832786 0.554205 -0.830879 0.557063 373.748 28.3145)" fill="#DBE2F0"/>
<rect width="45.4288" height="8.02782" rx="4.01391" transform="matrix(0.832786 0.554205 -0.830879 0.557063 372.928 43.4639)" fill="#DBE2F0"/>
<rect width="49.1117" height="8.02782" rx="4.01391" transform="matrix(0.832787 0.554205 -0.830879 0.557062 374.582 59.2622)" fill="#DBE2F0"/>
<rect width="45.3339" height="8.02782" rx="4.01391" transform="matrix(0.832786 0.554205 -0.830879 0.557063 413.907 70.7344)" fill="#A6B6D9"/>
<rect width="11.4193" height="8.02782" rx="4.01391" transform="matrix(0.832786 0.554206 -0.830879 0.557063 350.616 43.2925)" fill="#DBE2F0"/>
<rect width="11.4193" height="8.02782" rx="4.01391" transform="matrix(0.832786 0.554205 -0.830879 0.557063 362.293 51.2417)" fill="#DBE2F0"/>
<rect width="10.2411" height="8.02782" rx="4.01391" transform="matrix(0.832787 0.554205 -0.830879 0.557062 361.603 35.9268)" fill="#DBE2F0"/>
<g clip-path="url(#clip2_4187_17357)">
<path d="M341.082 21.214L345.155 23.9244L345.145 18.4897L341.082 21.214ZM341.07 14.2971L346.994 18.2395L347.004 24.1683L338.138 30.1123C337.747 30.375 337.215 30.5231 336.66 30.5241C336.105 30.525 335.573 30.3787 335.18 30.1173L326.294 24.2038C325.901 23.9424 325.68 23.5873 325.679 23.2167C325.679 22.8461 325.898 22.4903 326.29 22.2275L338.111 14.3022C338.931 13.7524 340.248 13.7501 341.07 14.2971ZM335.914 26.6576L337.391 25.6669L330.727 21.2318L329.249 22.2224L335.914 26.6576ZM341.09 26.1547L342.568 25.164L333.682 19.2504L332.204 20.2411L341.09 26.1547Z" fill="white" fill-opacity="0.4"/>
</g>
<path d="M334.893 45.0679L368.451 22.4212" stroke="white" stroke-opacity="0.2" stroke-linecap="round"/>
</g>
<g clip-path="url(#clip3_4187_17357)">
<path d="M287.455 26.7604L289.582 23.9558C289.611 23.936 289.631 23.9098 289.65 23.8835L293.932 18.2414C294.036 18.094 294.07 17.9288 294.03 17.7682C293.989 17.6076 293.876 17.4592 293.705 17.3431C293.351 17.1076 292.791 17.0626 292.359 17.2077L284.341 19.9568L278.117 15.8152L282.193 10.4425C282.301 10.2965 282.34 10.1319 282.302 9.97111C282.265 9.8103 282.154 9.66118 281.985 9.54414C281.622 9.30206 281.062 9.2571 280.63 9.40215L272.189 12.2898L272.18 12.2963L267.91 13.7533C267.262 13.9775 266.9 14.4438 267.028 14.9225L269.511 25.3677C269.561 25.5579 269.777 25.7018 270.072 25.7275L285.708 27.3538C286.426 27.4378 287.122 27.1939 287.455 26.7604ZM276.507 15.9885L271.275 22.872L272.967 13.6331L276.507 15.9885ZM273.782 24.5536L283.655 21.1781L284.077 21.0265L287.626 23.3884L275.107 24.4398L273.782 24.5536ZM292.547 18.1323L288.873 22.973L285.314 20.6046L292.547 18.1323ZM283.104 20.3788L275.939 22.8312L271.67 24.2882L277.48 16.6363L283.104 20.3788ZM280.808 10.3202L277.134 15.161L273.585 12.799L280.808 10.3202ZM268.315 14.7825C268.295 14.6776 268.373 14.5725 268.511 14.5329L271.671 13.4517L270.085 22.1591L268.315 14.7825ZM285.913 26.4941L274.873 25.3454L274.922 25.3388L287.893 24.2473L286.286 26.3623C286.227 26.4542 286.07 26.5069 285.913 26.4941Z" fill="#DBE2F0"/>
</g>
<g filter="url(#filter3_d_4187_17357)">
<rect x="0.000953645" y="0.555634" width="161.987" height="54.7225" rx="7.5" transform="matrix(0.832786 0.554205 -0.830879 0.557062 291.983 34.7954)" fill="white" stroke="#DBE2F0"/>
<rect width="53.7953" height="8.02782" rx="4.01391" transform="matrix(0.832786 0.554205 -0.830879 0.557063 333.296 73.3882)" fill="#DBE2F0"/>
<rect width="10.4743" height="8.02782" rx="4.01391" transform="matrix(0.832787 0.554205 -0.830879 0.557062 321.073 65.2534)" fill="#DBE2F0"/>
<rect width="31.167" height="8.02782" rx="4.01391" transform="matrix(0.832786 0.554205 -0.830879 0.557062 332.13 88.3071)" fill="#DBE2F0"/>
<rect width="64.8638" height="8.02782" rx="4.01391" transform="matrix(0.832787 0.554205 -0.830879 0.557062 321.145 95.6729)" fill="#DBE2F0"/>
<rect width="10.441" height="8.02782" rx="4.01391" transform="matrix(0.832786 0.554205 -0.830879 0.557062 361.232 107.674)" fill="#DBE2F0"/>
<rect width="18.7496" height="8.02782" rx="4.01391" transform="matrix(0.832786 0.554206 -0.830879 0.557063 373.155 115.608)" fill="#DBE2F0"/>
<rect width="24.0836" height="8.02782" rx="4.01391" transform="matrix(0.832786 0.554206 -0.830879 0.557063 297.942 80.2319)" fill="#DBE2F0"/>
<rect width="24.0836" height="8.02782" rx="4.01391" transform="matrix(0.832786 0.554205 -0.830879 0.557062 308.928 72.8662)" fill="#DBE2F0"/>
<g clip-path="url(#clip4_4187_17357)">
<path d="M287.673 58.0148L291.746 60.7252L291.737 55.2905L287.673 58.0148ZM287.661 51.0979L293.585 55.0403L293.595 60.969L284.73 66.913C284.338 67.1758 283.806 67.3239 283.251 67.3249C282.696 67.3258 282.164 67.1795 281.771 66.9181L272.885 61.0046C272.492 60.7432 272.271 60.3881 272.271 60.0175C272.27 59.6469 272.49 59.291 272.882 59.0283L284.703 51.103C285.523 50.5532 286.839 50.5509 287.661 51.0979ZM282.505 63.4584L283.982 62.4677L277.318 58.0326L275.84 59.0232L282.505 63.4584ZM287.682 62.9554L289.159 61.9648L280.273 56.0512L278.796 57.0419L287.682 62.9554Z" fill="white" fill-opacity="0.4"/>
</g>
<path d="M282.089 81.5923L315.647 58.9456" stroke="white" stroke-opacity="0.2" stroke-linecap="round"/>
</g>
<g filter="url(#filter4_d_4187_17357)">
<rect x="0.000953674" y="0.555634" width="161.987" height="54.7225" rx="7.5" transform="matrix(0.832786 0.554205 -0.830879 0.557063 162.101 175.69)" fill="white" fill-opacity="0.9" stroke="#DBE2F0"/>
<rect width="50.5172" height="8.02782" rx="4.01391" transform="matrix(0.832787 0.554205 -0.830879 0.557062 203.414 214.282)" fill="#A6B6D9"/>
<rect width="34.4007" height="8.02782" rx="4.01391" transform="matrix(-0.832786 -0.554205 -0.830879 0.557063 276.862 263.161)" fill="#A6B6D9"/>
<rect width="10.4743" height="8.02782" rx="4.01391" transform="matrix(0.832787 0.554205 -0.830879 0.557062 191.19 206.148)" fill="#A6B6D9"/>
<rect width="31.1671" height="8.02782" rx="4.01391" transform="matrix(0.832786 0.554205 -0.830879 0.557063 202.248 229.201)" fill="#A6B6D9"/>
<rect width="59.0097" height="8.02782" rx="4.01391" transform="matrix(0.832786 0.554205 -0.830879 0.557062 196.137 239.811)" fill="#A6B6D9"/>
<rect width="13.35" height="8.02782" rx="4.01391" transform="matrix(-0.832787 -0.554205 -0.83088 0.557062 191.262 236.567)" fill="#A6B6D9"/>
<rect width="33.2407" height="8.02782" rx="4.01391" transform="matrix(0.832786 0.554205 -0.830879 0.557063 231.205 248.471)" fill="#A6B6D9"/>
<rect width="10.6703" height="8.02782" rx="4.01391" transform="matrix(0.832787 0.554205 -0.830879 0.557062 168.06 221.126)" fill="#A6B6D9"/>
<rect width="24.0836" height="8.02782" rx="4.01391" transform="matrix(0.832787 0.554205 -0.830879 0.557062 179.045 213.76)" fill="#A6B6D9"/>
<g clip-path="url(#clip5_4187_17357)">
<path d="M157.791 198.909L161.864 201.619L161.854 196.185L157.791 198.909ZM157.779 191.992L163.703 195.935L163.713 201.863L154.847 207.807C154.456 208.07 153.924 208.218 153.369 208.219C152.814 208.22 152.282 208.074 151.889 207.812L143.003 201.899C142.61 201.637 142.389 201.282 142.388 200.912C142.388 200.541 142.607 200.185 142.999 199.923L154.82 191.997C155.64 191.447 156.957 191.445 157.779 191.992ZM152.623 204.353L154.1 203.362L147.436 198.927L145.958 199.918L152.623 204.353ZM157.799 203.85L159.277 202.859L150.391 196.946L148.913 197.936L157.799 203.85Z" fill="#C5C5EC"/>
</g>
<path d="M152.207 222.486L185.764 199.84" stroke="white" stroke-opacity="0.2" stroke-linecap="round"/>
</g>
<path d="M404.74 139.86L414.611 146.546C416.642 147.922 419.307 147.923 421.339 146.548L445.861 129.952M455.786 103.295L462.92 108.082C466.424 110.433 466.471 115.571 463.011 117.985L445.861 129.952M445.861 129.952L455.722 136.695C459.246 139.104 459.197 144.319 455.629 146.663L408.522 177.605M408.522 177.605L454.25 208.272M408.522 177.605L373.753 200.808C370.242 203.151 370.184 208.29 373.64 210.712L412.211 237.744" stroke="#5E6E8C" stroke-dasharray="9 9"/>
<path d="M256.86 171L266.31 177.643C269.804 180.099 269.686 185.315 266.084 187.611L261.493 190.537C257.915 192.818 257.77 197.991 261.216 200.468L290.356 221.419C292.384 222.877 295.103 222.926 297.183 221.542L315.705 209.216M321.14 181.616L331.626 188.277C335.27 190.591 335.35 195.881 331.779 198.306L315.705 209.216M315.705 209.216L331.939 220.074C335.476 222.44 335.495 227.633 331.976 230.024L289 259.228" stroke="#5E6E8C" stroke-dasharray="9 9"/>
<path d="M290.597 94.5674L248.824 122.459" stroke="#5E6E8C" stroke-dasharray="9 9"/>
<g clip-path="url(#clip6_4187_17357)">
<path d="M165.187 96.0862C163.896 95.227 162.364 94.5463 160.678 94.083C158.992 93.6197 157.186 93.3829 155.362 93.386C151.679 93.3923 148.148 94.3757 145.546 96.1199C141.211 99.0267 140.354 103.371 142.953 106.843C143.366 107.223 143.827 107.123 144.092 106.946L145.75 105.834C142.438 104.417 143.761 102.755 143.761 102.755C144.446 101.691 144.111 101.062 144.111 101.062C143.825 100.059 144.769 100.713 144.769 100.713C145.683 101.413 145.263 102.391 145.263 102.391C144.627 103.96 146.514 104.626 147.309 104.841C148.036 104.473 148.723 104.353 149.243 104.372C147.306 102.755 145.859 100.665 149.596 98.1596C150.685 97.4296 151.931 97.0929 153.267 97.0513C153.414 96.8214 154.09 95.9085 155.955 95.3805C155.955 95.3805 157.045 95.7525 157.658 97.8506C158.65 98.2228 159.604 98.7131 160.44 99.2692C161.275 99.8254 162.013 100.46 162.574 101.122C165.717 101.523 166.278 102.25 166.278 102.25C165.494 103.498 164.13 103.953 163.787 104.052C163.729 104.944 163.23 105.778 162.141 106.508C158.394 109.02 155.269 108.042 152.832 106.747C152.882 107.187 152.608 107.804 151.695 108.415L149.008 110.217C148.743 110.395 148.586 110.71 149.176 110.984C154.394 112.701 160.874 112.112 165.21 109.205C166.498 108.342 167.519 107.317 168.215 106.191C168.911 105.064 169.268 103.857 169.266 102.639C169.264 101.421 168.903 100.215 168.203 99.0907C167.503 97.9663 166.478 96.9454 165.187 96.0862Z" fill="#DBE2F0"/>
</g>
</g>
<defs>
<filter id="filter0_d_4187_17357" x="381.773" y="188.291" width="214.613" height="152.938" filterUnits="userSpaceOnUse" color-interpolation-filters="sRGB">
<feFlood flood-opacity="0" result="BackgroundImageFix"/>
<feColorMatrix in="SourceAlpha" type="matrix" values="0 0 0 0 0 0 0 0 0 0 0 0 0 0 0 0 0 0 127 0" result="hardAlpha"/>
<feOffset dx="4" dy="10"/>
<feGaussianBlur stdDeviation="7.25"/>
<feComposite in2="hardAlpha" operator="out"/>
<feColorMatrix type="matrix" values="0 0 0 0 0 0 0 0 0 0 0 0 0 0 0 0 0 0 0.15 0"/>
<feBlend mode="normal" in2="BackgroundImageFix" result="effect1_dropShadow_4187_17357"/>
<feBlend mode="normal" in="SourceGraphic" in2="effect1_dropShadow_4187_17357" result="shape"/>
</filter>
<filter id="filter1_d_4187_17357" x="135.549" y="88.1084" width="218.868" height="156.017" filterUnits="userSpaceOnUse" color-interpolation-filters="sRGB">
<feFlood flood-opacity="0" result="BackgroundImageFix"/>
<feColorMatrix in="SourceAlpha" type="matrix" values="0 0 0 0 0 0 0 0 0 0 0 0 0 0 0 0 0 0 127 0" result="hardAlpha"/>
<feOffset dx="4" dy="10"/>
<feGaussianBlur stdDeviation="7.5"/>
<feComposite in2="hardAlpha" operator="out"/>
<feColorMatrix type="matrix" values="0 0 0 0 0 0 0 0 0 0 0 0 0 0 0 0 0 0 0.25 0"/>
<feBlend mode="normal" in2="BackgroundImageFix" result="effect1_dropShadow_4187_17357"/>
<feBlend mode="normal" in="SourceGraphic" in2="effect1_dropShadow_4187_17357" result="shape"/>
</filter>
<filter id="filter2_d_4187_17357" x="290.795" y="-4.78564" width="204.235" height="146.161" filterUnits="userSpaceOnUse" color-interpolation-filters="sRGB">
<feFlood flood-opacity="0" result="BackgroundImageFix"/>
<feColorMatrix in="SourceAlpha" type="matrix" values="0 0 0 0 0 0 0 0 0 0 0 0 0 0 0 0 0 0 127 0" result="hardAlpha"/>
<feOffset dx="4" dy="10"/>
<feGaussianBlur stdDeviation="7.5"/>
<feComposite in2="hardAlpha" operator="out"/>
<feColorMatrix type="matrix" values="0 0 0 0 0 0 0 0 0 0 0 0 0 0 0 0 0 0 0.25 0"/>
<feBlend mode="normal" in2="BackgroundImageFix" result="effect1_dropShadow_4187_17357"/>
<feBlend mode="normal" in="SourceGraphic" in2="effect1_dropShadow_4187_17357" result="shape"/>
</filter>
<filter id="filter3_d_4187_17357" x="238.121" y="32.1538" width="204.235" height="146.161" filterUnits="userSpaceOnUse" color-interpolation-filters="sRGB">
<feFlood flood-opacity="0" result="BackgroundImageFix"/>
<feColorMatrix in="SourceAlpha" type="matrix" values="0 0 0 0 0 0 0 0 0 0 0 0 0 0 0 0 0 0 127 0" result="hardAlpha"/>
<feOffset dx="4" dy="10"/>
<feGaussianBlur stdDeviation="7.5"/>
<feComposite in2="hardAlpha" operator="out"/>
<feColorMatrix type="matrix" values="0 0 0 0 0 0 0 0 0 0 0 0 0 0 0 0 0 0 0.25 0"/>
<feBlend mode="normal" in2="BackgroundImageFix" result="effect1_dropShadow_4187_17357"/>
<feBlend mode="normal" in="SourceGraphic" in2="effect1_dropShadow_4187_17357" result="shape"/>
</filter>
<filter id="filter4_d_4187_17357" x="108.739" y="173.548" width="203.235" height="145.161" filterUnits="userSpaceOnUse" color-interpolation-filters="sRGB">
<feFlood flood-opacity="0" result="BackgroundImageFix"/>
<feColorMatrix in="SourceAlpha" type="matrix" values="0 0 0 0 0 0 0 0 0 0 0 0 0 0 0 0 0 0 127 0" result="hardAlpha"/>
<feOffset dx="4" dy="10"/>
<feGaussianBlur stdDeviation="7.25"/>
<feComposite in2="hardAlpha" operator="out"/>
<feColorMatrix type="matrix" values="0 0 0 0 0 0 0 0 0 0 0 0 0 0 0 0 0 0 0.15 0"/>
<feBlend mode="normal" in2="BackgroundImageFix" result="effect1_dropShadow_4187_17357"/>
<feBlend mode="normal" in="SourceGraphic" in2="effect1_dropShadow_4187_17357" result="shape"/>
</filter>
<radialGradient id="paint0_radial_4187_17357" cx="0" cy="0" r="1" gradientUnits="userSpaceOnUse" gradientTransform="translate(357.613 203.272) rotate(-174.504) scale(253.397 148.456)">
<stop stop-color="#5D5D5D"/>
<stop offset="1" stop-color="#78767A" stop-opacity="0"/>
</radialGradient>
<clipPath id="clip0_4187_17357">
<rect width="608" height="473" fill="white" transform="translate(0 -42.9902)"/>
</clipPath>
<clipPath id="clip1_4187_17357">
<rect width="23.8341" height="23.8339" fill="white" transform="matrix(0.832505 0.554018 -0.830597 0.556873 418.855 190.841)"/>
</clipPath>
<clipPath id="clip2_4187_17357">
<rect width="21.3407" height="21.3405" fill="white" transform="matrix(0.832786 0.554205 -0.830879 0.557062 338.104 10.3496)"/>
</clipPath>
<clipPath id="clip3_4187_17357">
<rect width="28.3433" height="28.3431" fill="white" transform="matrix(0.832505 0.554018 -0.830597 0.556874 277.566 4.57275)"/>
</clipPath>
<clipPath id="clip4_4187_17357">
<rect width="21.3407" height="21.3405" fill="white" transform="matrix(0.832786 0.554205 -0.830879 0.557063 284.696 47.1504)"/>
</clipPath>
<clipPath id="clip5_4187_17357">
<rect width="21.3407" height="21.3405" fill="white" transform="matrix(0.832786 0.554205 -0.830879 0.557063 154.813 188.045)"/>
</clipPath>
<clipPath id="clip6_4187_17357">
<rect width="28.3433" height="28.3431" fill="white" transform="matrix(0.832505 0.554018 -0.830597 0.556873 155.351 86.9194)"/>
</clipPath>
</defs>
</svg>
