<svg width="608" height="473" viewBox="0 0 608 473" fill="none" xmlns="http://www.w3.org/2000/svg">
<g clip-path="url(#clip0_3584_28395)">
<path d="M351.78 -14.91L-62.7574 263.006M371.749 -1.62158L-42.7885 276.295M391.718 11.6672L-22.8192 289.584M411.859 25.0703L-2.67805 302.987M431.828 38.3588L17.2908 316.275M451.798 51.6475L37.2601 329.564M471.767 64.9363L57.2294 342.853M491.736 78.2247L77.1983 356.141M511.877 91.6279L97.3395 369.544M531.846 104.917L117.309 382.833M551.815 118.205L137.278 396.121M571.784 131.494L157.247 409.41M591.926 144.897L177.388 422.813M611.895 158.186L197.357 436.102M631.864 171.474L217.326 449.391M651.833 184.763L237.296 462.679M671.802 198.051L257.264 475.968M691.943 211.455L277.406 489.371M711.911 224.742L297.374 502.659M731.883 238.033L317.346 515.949M-65.5125 237.966L354.526 517.485M-45.5056 224.553L374.533 504.072M-25.4999 211.141L394.539 490.659M-5.49432 197.728L414.545 477.247M14.5113 184.316L434.55 463.835M34.5169 170.904L454.556 450.423M54.5226 157.492L474.561 437.01M74.5282 144.079L494.567 423.598M94.5338 130.667L514.573 410.186M114.539 117.255L534.578 396.773M134.545 103.842L554.584 383.361M154.551 90.4302L574.59 369.949M174.556 77.0179L594.595 356.537M194.562 63.6057L614.601 343.124M214.568 50.1934L634.606 329.712M234.573 36.7811L654.612 316.3M254.579 23.3689L674.618 302.888M274.584 9.95659L694.623 289.475M294.59 -3.45568L714.629 276.063M314.596 -16.868L734.635 262.651" stroke="url(#paint0_radial_3584_28395)" stroke-opacity="0.5"/>
<rect x="0.000953615" y="0.555624" width="246.216" height="164.524" rx="7.5" transform="matrix(0.832801 0.554195 -0.830894 0.557052 149.837 106.32)" fill="url(#paint1_linear_3584_28395)" stroke="url(#paint2_radial_3584_28395)"/>
<rect x="0.000953615" y="0.555624" width="248.608" height="168.365" rx="7.5" transform="matrix(0.832801 0.554195 -0.830894 0.557052 307.235 1.75852)" fill="url(#paint3_linear_3584_28395)" stroke="url(#paint4_radial_3584_28395)"/>
<rect x="0.000953615" y="0.555624" width="218.247" height="176.245" rx="7.5" transform="matrix(0.832801 0.554195 -0.830894 0.557052 462.187 216.746)" fill="url(#paint5_linear_3584_28395)" stroke="url(#paint6_radial_3584_28395)"/>
<g filter="url(#filter0_dd_3584_28395)">
<rect x="0.000953615" y="0.555624" width="145.702" height="120.511" rx="7.5" transform="matrix(0.832801 0.554195 -0.830894 0.557052 481.424 258.881)" fill="url(#paint7_linear_3584_28395)" stroke="url(#paint8_radial_3584_28395)"/>
<rect width="78.996" height="9.26153" rx="4.63077" transform="matrix(0.832801 0.554195 -0.830894 0.557052 478.796 271.865)" fill="#02182F"/>
<rect width="35.9568" height="9.26153" rx="4.63077" transform="matrix(0.832801 0.554195 -0.830894 0.557053 491.553 298.461)" fill="#005482"/>
<rect width="56.6592" height="9.26153" rx="4.63077" transform="matrix(0.832801 0.554195 -0.830894 0.557053 478.878 306.959)" fill="#02182F"/>
<rect width="52.3008" height="9.26153" rx="4.63076" transform="matrix(0.832802 0.554195 -0.830894 0.557052 525.127 320.804)" fill="#005482"/>
<rect width="27.7848" height="9.26154" rx="4.63077" transform="matrix(0.832801 0.554195 -0.830894 0.557053 452.109 289.145)" fill="#02182F"/>
<rect width="27.7848" height="9.26153" rx="4.63076" transform="matrix(0.832801 0.554195 -0.830894 0.557052 418.206 314.324)" fill="#005482"/>
<rect width="27.7848" height="9.26153" rx="4.63076" transform="matrix(0.832802 0.554195 -0.830894 0.557052 446.01 333.812)" fill="#005482"/>
<rect width="27.7848" height="9.26154" rx="4.63077" transform="matrix(0.832801 0.554195 -0.830894 0.557053 464.784 280.648)" fill="#005482"/>
</g>
<g filter="url(#filter1_dd_3584_28395)">
<rect x="0.000953615" y="0.555624" width="174.552" height="96.1148" rx="7.5" transform="matrix(0.832801 0.554195 -0.830894 0.557052 177.663 143.882)" fill="url(#paint9_linear_3584_28395)" stroke="url(#paint10_radial_3584_28395)"/>
<rect width="11.2075" height="8.67249" rx="4.33624" transform="matrix(0.832801 0.554195 -0.830894 0.557052 148.206 178.5)" fill="#005482"/>
<rect width="80.74" height="8.67249" rx="4.33624" transform="matrix(0.832801 0.554195 -0.830894 0.557052 159.691 186.143)" fill="#005482"/>
<rect width="18.4711" height="8.67249" rx="4.33624" transform="matrix(0.832801 0.554195 -0.830894 0.557052 206.794 180.571)" fill="#005482"/>
<rect width="18.8469" height="8.67249" rx="4.33625" transform="matrix(-0.832801 -0.554195 -0.830894 0.557053 241.406 203.604)" fill="#005482"/>
<rect width="67.8015" height="8.67249" rx="4.33624" transform="matrix(0.832802 0.554195 -0.830894 0.557052 194.925 188.528)" fill="#02182F"/>
<rect width="62.586" height="8.67248" rx="4.33624" transform="matrix(0.832801 0.554195 -0.830894 0.557052 246.971 207.307)" fill="#005482"/>
<rect width="33.2488" height="8.67249" rx="4.33624" transform="matrix(0.832802 0.554195 -0.830894 0.557052 162.892 167.211)" fill="#02182F"/>
<rect width="14.9054" height="8.67249" rx="4.33624" transform="matrix(0.832801 0.554195 -0.830894 0.557052 130.989 193.914)" fill="#02182F"/>
<rect width="33.2488" height="8.67249" rx="4.33624" transform="matrix(0.832801 0.554195 -0.830894 0.557053 147.337 204.962)" fill="#02182F"/>
<rect width="44.3493" height="8.67249" rx="4.33624" transform="matrix(-0.832801 -0.554195 -0.830894 0.557052 216.657 251.092)" fill="#02182F"/>
<rect width="33.2488" height="8.67249" rx="4.33624" transform="matrix(0.832802 0.554195 -0.830894 0.557052 174.76 159.254)" fill="#005482"/>
</g>
<g style="mix-blend-mode:screen" opacity="0.4" clip-path="url(#clip1_3584_28395)">
<path d="M414.838 262.986C414.504 262.763 413.933 262.764 413.6 262.988L413.486 263.064L400.388 275.324C400.055 275.636 400.103 276.063 400.504 276.329L412.951 284.612C413.247 284.809 413.723 284.847 414.075 284.674L432.562 275.759C432.746 275.667 432.868 275.531 432.902 275.379C432.936 275.228 432.878 275.073 432.742 274.95C432.722 274.925 432.684 274.9 432.646 274.874L414.838 262.986ZM414.388 277.877L410.42 275.237L414.937 270.768L420.946 274.767L414.388 277.877Z" fill="#DBE2F0"/>
</g>
<g filter="url(#filter2_d_3584_28395)">
<rect x="0.000953615" y="0.555624" width="187.034" height="63.2859" rx="7.5" transform="matrix(0.832801 0.554195 -0.830894 0.557052 329.492 36.7138)" fill="url(#paint11_linear_3584_28395)" stroke="url(#paint12_radial_3584_28395)"/>
<rect width="78.9959" height="9.26153" rx="4.63077" transform="matrix(0.832801 0.554195 -0.830894 0.557053 363.124 71.8899)" fill="#02182F"/>
<rect width="52.4103" height="9.26153" rx="4.63077" transform="matrix(0.832801 0.554195 -0.830894 0.557052 362.179 89.3674)" fill="#02182F"/>
<rect width="56.6592" height="9.26153" rx="4.63077" transform="matrix(0.832801 0.554195 -0.830894 0.557052 364.087 107.593)" fill="#02182F"/>
<rect width="52.3008" height="9.26153" rx="4.63077" transform="matrix(0.832801 0.554195 -0.830894 0.557053 409.456 120.828)" fill="#02182F"/>
<rect width="13.1742" height="9.26153" rx="4.63077" transform="matrix(0.832801 0.554195 -0.830894 0.557053 336.438 89.1697)" fill="#02182F"/>
<rect width="13.1742" height="9.26153" rx="4.63077" transform="matrix(0.832801 0.554195 -0.830894 0.557052 349.909 98.3401)" fill="#02182F"/>
<rect width="11.815" height="9.26153" rx="4.63077" transform="matrix(0.832802 0.554195 -0.830894 0.557052 349.112 80.6724)" fill="#02182F"/>
<g clip-path="url(#clip2_3584_28395)">
<path d="M325.438 63.6983L330.137 66.8252L330.126 60.5554L325.438 63.6983ZM325.424 55.7186L332.259 60.2667L332.271 67.1065L322.042 73.9639C321.59 74.267 320.977 74.4379 320.336 74.439C319.696 74.4401 319.082 74.2713 318.629 73.9697L308.377 67.1475C307.924 66.8459 307.669 66.4363 307.668 66.0087C307.667 65.5812 307.921 65.1707 308.373 64.8676L322.011 55.7244C322.957 55.0901 324.476 55.0875 325.424 55.7186ZM319.475 69.9784L321.18 68.8355L313.491 63.7188L311.787 64.8617L319.475 69.9784ZM325.448 69.3981L327.153 68.2553L316.901 61.433L315.196 62.5759L325.448 69.3981Z" fill="white" fill-opacity="0.4"/>
</g>
<path d="M318.298 91.2175L357.013 65.0909" stroke="white" stroke-opacity="0.2" stroke-linecap="round"/>
</g>
<g style="mix-blend-mode:screen" opacity="0.6" clip-path="url(#clip3_3584_28395)">
<path d="M263.569 70.0971L266.022 66.8615C266.056 66.8387 266.079 66.8084 266.101 66.7781L271.041 60.2691C271.161 60.099 271.201 59.9085 271.154 59.7232C271.107 59.5379 270.976 59.3667 270.779 59.2328C270.37 58.961 269.725 58.9092 269.226 59.0765L259.975 62.2481L252.795 57.4701L257.498 51.2717C257.623 51.1034 257.667 50.9135 257.624 50.728C257.581 50.5424 257.453 50.3704 257.258 50.2354C256.839 49.9561 256.193 49.9042 255.694 50.0716L245.957 53.4029L245.945 53.4105L241.02 55.0914C240.272 55.3499 239.854 55.8879 240.002 56.4401L242.867 68.4904C242.924 68.7098 243.173 68.8758 243.513 68.9055L261.554 70.7816C262.381 70.8785 263.185 70.5972 263.569 70.0971ZM250.938 57.67L244.901 65.6112L246.854 54.9527L250.938 57.67ZM247.794 67.5511L259.185 63.657L259.672 63.4821L263.766 66.207L249.323 67.4199L247.794 67.5511ZM269.443 60.1432L265.204 65.7277L261.098 62.9953L269.443 60.1432ZM258.549 62.7348L250.283 65.5641L245.357 67.245L252.061 58.4173L258.549 62.7348ZM255.9 51.1307L251.661 56.7153L247.566 53.9904L255.9 51.1307ZM241.486 56.2787C241.463 56.1576 241.554 56.0364 241.712 55.9907L245.358 54.7434L243.529 64.7887L241.486 56.2787ZM261.79 69.7898L249.053 68.4646L249.11 68.457L264.074 67.1978L262.22 69.6377C262.152 69.7438 261.971 69.8047 261.79 69.7898" fill="#DBE2F0"/>
</g>
<g filter="url(#filter3_dd_3584_28395)">
<rect x="0.000953615" y="0.555624" width="187.034" height="63.2859" rx="7.5" transform="matrix(0.832801 0.554195 -0.830894 0.557052 268.722 79.3291)" fill="url(#paint13_linear_3584_28395)" stroke="url(#paint14_radial_3584_28395)"/>
<rect width="62.0625" height="9.26153" rx="4.63077" transform="matrix(0.832801 0.554195 -0.830894 0.557053 316.456 123.89)" fill="#02182F"/>
<rect width="12.0839" height="9.26153" rx="4.63077" transform="matrix(0.832802 0.554195 -0.830894 0.557052 302.354 114.505)" fill="#02182F"/>
<rect width="35.9568" height="9.26153" rx="4.63076" transform="matrix(0.832801 0.554195 -0.830894 0.557052 315.111 141.101)" fill="#02182F"/>
<rect width="74.832" height="9.26153" rx="4.63077" transform="matrix(0.832801 0.554195 -0.830894 0.557052 302.436 149.599)" fill="#02182F"/>
<rect width="12.0456" height="9.26153" rx="4.63077" transform="matrix(0.832801 0.554195 -0.830894 0.557052 348.685 163.444)" fill="#02182F"/>
<rect width="21.631" height="9.26153" rx="4.63076" transform="matrix(0.832801 0.554196 -0.830894 0.557053 362.441 172.597)" fill="#02182F"/>
<rect width="27.7848" height="9.26153" rx="4.63076" transform="matrix(0.832801 0.554196 -0.830894 0.557053 275.667 131.785)" fill="#02182F"/>
<rect width="27.7848" height="9.26153" rx="4.63077" transform="matrix(0.832801 0.554195 -0.830894 0.557052 288.342 123.288)" fill="#02182F"/>
<g clip-path="url(#clip4_3584_28395)">
<path d="M263.82 106.154L268.519 109.281L268.508 103.011L263.82 106.154ZM263.806 98.1744L270.641 102.723L270.653 109.562L260.424 116.42C259.972 116.723 259.359 116.894 258.719 116.895C258.078 116.896 257.464 116.727 257.011 116.426L246.759 109.603C246.306 109.302 246.051 108.892 246.05 108.465C246.05 108.037 246.303 107.626 246.755 107.323L260.393 98.1802C261.339 97.5459 262.858 97.5433 263.806 98.1744ZM257.858 112.434L259.562 111.291L251.873 106.175L250.169 107.318L257.858 112.434ZM263.83 111.854L265.535 110.711L255.283 103.889L253.578 105.032L263.83 111.854Z" fill="white" fill-opacity="0.4"/>
</g>
<path d="M257.378 133.354L296.094 107.228" stroke="white" stroke-opacity="0.2" stroke-linecap="round"/>
</g>
<g filter="url(#filter4_dd_3584_28395)">
<rect x="0.000953615" y="0.555624" width="187.034" height="63.2859" rx="7.5" transform="matrix(0.832801 0.554195 -0.830894 0.557052 118.877 241.873)" fill="url(#paint15_linear_3584_28395)" stroke="url(#paint16_radial_3584_28395)"/>
<rect width="58.2807" height="9.26153" rx="4.63076" transform="matrix(0.832801 0.554195 -0.830894 0.557052 166.611 286.433)" fill="#02182F"/>
<rect width="39.6874" height="9.26153" rx="4.63077" transform="matrix(-0.832801 -0.554195 -0.830894 0.557053 251.348 342.823)" fill="#02182F"/>
<rect width="12.0839" height="9.26153" rx="4.63077" transform="matrix(0.832802 0.554195 -0.830894 0.557052 152.509 277.049)" fill="#02182F"/>
<rect width="35.9568" height="9.26153" rx="4.63077" transform="matrix(0.832801 0.554195 -0.830894 0.557052 165.266 303.645)" fill="#02182F"/>
<rect width="68.0783" height="9.26153" rx="4.63077" transform="matrix(0.832801 0.554195 -0.830894 0.557052 158.216 315.885)" fill="#02182F"/>
<rect width="15.4016" height="9.26153" rx="4.63076" transform="matrix(-0.832802 -0.554195 -0.830895 0.557052 152.591 312.142)" fill="#02182F"/>
<rect width="38.3491" height="9.26153" rx="4.63077" transform="matrix(0.832801 0.554195 -0.830894 0.557053 198.673 325.876)" fill="#02182F"/>
<rect width="12.3101" height="9.26153" rx="4.63076" transform="matrix(0.832802 0.554195 -0.830894 0.557052 125.822 294.329)" fill="#02182F"/>
<rect width="27.7848" height="9.26153" rx="4.63076" transform="matrix(0.832802 0.554195 -0.830894 0.557052 138.497 285.831)" fill="#02182F"/>
<g clip-path="url(#clip5_3584_28395)">
<path d="M113.975 268.698L118.674 271.825L118.663 265.555L113.975 268.698ZM113.961 260.718L120.796 265.266L120.808 272.106L110.579 278.963C110.127 279.266 109.514 279.437 108.874 279.438C108.233 279.44 107.619 279.271 107.166 278.969L96.9142 272.147C96.461 271.845 96.206 271.436 96.2053 271.008C96.2046 270.581 96.4582 270.17 96.9103 269.867L110.548 260.724C111.494 260.09 113.013 260.087 113.961 260.718ZM108.013 274.978L109.717 273.835L102.028 268.718L100.324 269.861L108.013 274.978ZM113.985 274.398L115.69 273.255L105.438 266.433L103.733 267.575L113.985 274.398Z" fill="white" fill-opacity="0.4"/>
</g>
<path d="M107.533 295.898L146.249 269.772" stroke="white" stroke-opacity="0.2" stroke-linecap="round"/>
</g>
<path d="M398.881 200.576L410.786 208.64C412.817 210.016 415.481 210.016 417.513 208.641L446.321 189.146M457.772 158.393L467.122 164.665C470.626 167.016 470.673 172.154 467.213 174.569L446.321 189.146M446.321 189.146L458.834 197.7C462.358 200.11 462.309 205.325 458.741 207.668L403.243 244.12M403.243 244.12L456 279.5M403.243 244.12L362.009 271.637C358.499 273.98 358.44 279.119 361.897 281.541L407.5 313.5" stroke="#A6B6D9" stroke-dasharray="5 5"/>
<path d="M228.272 236.5L240.3 244.955C243.794 247.411 243.676 252.628 240.074 254.923L232.469 259.771C228.891 262.052 228.746 267.225 232.192 269.702L267.434 295.039C269.462 296.497 272.181 296.546 274.261 295.162L296.161 280.589M302.431 248.747L315.714 257.184C319.358 259.499 319.438 264.788 315.866 267.213L296.161 280.589M296.161 280.589L316.027 293.875C319.564 296.24 319.583 301.434 316.064 303.825L265.352 338.285" stroke="#A6B6D9" stroke-dasharray="5 5"/>
<path d="M267.193 148.323L219 180.5" stroke="#A6B6D9" stroke-dasharray="5 5"/>
<g style="mix-blend-mode:screen" opacity="0.6" clip-path="url(#clip6_3584_28395)">
<path d="M122.508 150.075C121.019 149.084 119.251 148.299 117.306 147.764C115.361 147.23 113.277 146.956 111.173 146.96C106.924 146.967 102.85 148.102 99.8487 150.114C94.8467 153.468 93.8583 158.479 96.8563 162.485C97.3329 162.923 97.8652 162.808 98.1707 162.603L100.083 161.321C96.2623 159.686 97.7885 157.768 97.7885 157.768C98.5795 156.541 98.193 155.815 98.193 155.815C97.8625 154.658 98.9515 155.413 98.9515 155.413C100.007 156.221 99.5213 157.349 99.5213 157.349C98.788 159.159 100.965 159.927 101.883 160.175C102.72 159.75 103.513 159.613 104.114 159.634C101.879 157.769 100.209 155.358 104.521 152.467C105.777 151.625 107.215 151.237 108.756 151.189C108.925 150.923 109.705 149.87 111.857 149.261C111.857 149.261 113.115 149.69 113.822 152.111C114.967 152.54 116.067 153.106 117.031 153.747C117.995 154.389 118.846 155.122 119.493 155.885C123.119 156.348 123.767 157.187 123.767 157.187C122.863 158.626 121.289 159.151 120.892 159.265C120.826 160.294 120.25 161.256 118.994 162.099C114.671 164.997 111.066 163.868 108.254 162.374C108.311 162.881 107.995 163.593 106.943 164.299L103.842 166.378C103.537 166.582 103.356 166.946 104.036 167.263C110.056 169.243 117.532 168.564 122.534 165.21C124.02 164.214 125.199 163.032 126.002 161.732C126.804 160.433 127.217 159.04 127.214 157.635C127.212 156.229 126.795 154.838 125.987 153.541C125.18 152.244 123.998 151.066 122.508 150.075V150.075Z" fill="#DBE2F0"/>
</g>
</g>
<defs>
<filter id="filter0_dd_3584_28395" x="372.898" y="252.239" width="245.34" height="177.782" filterUnits="userSpaceOnUse" color-interpolation-filters="sRGB">
<feFlood flood-opacity="0" result="BackgroundImageFix"/>
<feColorMatrix in="SourceAlpha" type="matrix" values="0 0 0 0 0 0 0 0 0 0 0 0 0 0 0 0 0 0 127 0" result="hardAlpha"/>
<feMorphology radius="12" operator="erode" in="SourceAlpha" result="effect1_dropShadow_3584_28395"/>
<feOffset/>
<feGaussianBlur stdDeviation="10.5"/>
<feComposite in2="hardAlpha" operator="out"/>
<feColorMatrix type="matrix" values="0 0 0 0 0.631373 0 0 0 0 0.0705882 0 0 0 0 1 0 0 0 0.16 0"/>
<feBlend mode="normal" in2="BackgroundImageFix" result="effect1_dropShadow_3584_28395"/>
<feColorMatrix in="SourceAlpha" type="matrix" values="0 0 0 0 0 0 0 0 0 0 0 0 0 0 0 0 0 0 127 0" result="hardAlpha"/>
<feOffset dx="4" dy="10"/>
<feGaussianBlur stdDeviation="7.5"/>
<feComposite in2="hardAlpha" operator="out"/>
<feColorMatrix type="matrix" values="0 0 0 0 0 0 0 0 0 0 0 0 0 0 0 0 0 0 0.25 0"/>
<feBlend mode="normal" in2="effect1_dropShadow_3584_28395" result="effect2_dropShadow_3584_28395"/>
<feBlend mode="normal" in="SourceGraphic" in2="effect2_dropShadow_3584_28395" result="shape"/>
</filter>
<filter id="filter1_dd_3584_28395" x="89.4071" y="137.24" width="249.095" height="180.18" filterUnits="userSpaceOnUse" color-interpolation-filters="sRGB">
<feFlood flood-opacity="0" result="BackgroundImageFix"/>
<feColorMatrix in="SourceAlpha" type="matrix" values="0 0 0 0 0 0 0 0 0 0 0 0 0 0 0 0 0 0 127 0" result="hardAlpha"/>
<feMorphology radius="12" operator="erode" in="SourceAlpha" result="effect1_dropShadow_3584_28395"/>
<feOffset/>
<feGaussianBlur stdDeviation="10.5"/>
<feComposite in2="hardAlpha" operator="out"/>
<feColorMatrix type="matrix" values="0 0 0 0 0.631373 0 0 0 0 0.0705882 0 0 0 0 1 0 0 0 0.16 0"/>
<feBlend mode="normal" in2="BackgroundImageFix" result="effect1_dropShadow_3584_28395"/>
<feColorMatrix in="SourceAlpha" type="matrix" values="0 0 0 0 0 0 0 0 0 0 0 0 0 0 0 0 0 0 127 0" result="hardAlpha"/>
<feOffset dx="4" dy="10"/>
<feGaussianBlur stdDeviation="7.5"/>
<feComposite in2="hardAlpha" operator="out"/>
<feColorMatrix type="matrix" values="0 0 0 0 0 0 0 0 0 0 0 0 0 0 0 0 0 0 0.25 0"/>
<feBlend mode="normal" in2="effect1_dropShadow_3584_28395" result="effect2_dropShadow_3584_28395"/>
<feBlend mode="normal" in="SourceGraphic" in2="effect2_dropShadow_3584_28395" result="shape"/>
</filter>
<filter id="filter2_d_3584_28395" x="268.514" y="34.072" width="232.214" height="164.811" filterUnits="userSpaceOnUse" color-interpolation-filters="sRGB">
<feFlood flood-opacity="0" result="BackgroundImageFix"/>
<feColorMatrix in="SourceAlpha" type="matrix" values="0 0 0 0 0 0 0 0 0 0 0 0 0 0 0 0 0 0 127 0" result="hardAlpha"/>
<feOffset dx="4" dy="10"/>
<feGaussianBlur stdDeviation="7.5"/>
<feComposite in2="hardAlpha" operator="out"/>
<feColorMatrix type="matrix" values="0 0 0 0 0 0 0 0 0 0 0 0 0 0 0 0 0 0 0.25 0"/>
<feBlend mode="normal" in2="BackgroundImageFix" result="effect1_dropShadow_3584_28395"/>
<feBlend mode="normal" in="SourceGraphic" in2="effect1_dropShadow_3584_28395" result="shape"/>
</filter>
<filter id="filter3_dd_3584_28395" x="207.743" y="72.6873" width="232.214" height="168.811" filterUnits="userSpaceOnUse" color-interpolation-filters="sRGB">
<feFlood flood-opacity="0" result="BackgroundImageFix"/>
<feColorMatrix in="SourceAlpha" type="matrix" values="0 0 0 0 0 0 0 0 0 0 0 0 0 0 0 0 0 0 127 0" result="hardAlpha"/>
<feMorphology radius="12" operator="erode" in="SourceAlpha" result="effect1_dropShadow_3584_28395"/>
<feOffset/>
<feGaussianBlur stdDeviation="10.5"/>
<feComposite in2="hardAlpha" operator="out"/>
<feColorMatrix type="matrix" values="0 0 0 0 0.631373 0 0 0 0 0.0705882 0 0 0 0 1 0 0 0 0.16 0"/>
<feBlend mode="normal" in2="BackgroundImageFix" result="effect1_dropShadow_3584_28395"/>
<feColorMatrix in="SourceAlpha" type="matrix" values="0 0 0 0 0 0 0 0 0 0 0 0 0 0 0 0 0 0 127 0" result="hardAlpha"/>
<feOffset dx="4" dy="10"/>
<feGaussianBlur stdDeviation="7.5"/>
<feComposite in2="hardAlpha" operator="out"/>
<feColorMatrix type="matrix" values="0 0 0 0 0 0 0 0 0 0 0 0 0 0 0 0 0 0 0.25 0"/>
<feBlend mode="normal" in2="effect1_dropShadow_3584_28395" result="effect2_dropShadow_3584_28395"/>
<feBlend mode="normal" in="SourceGraphic" in2="effect2_dropShadow_3584_28395" result="shape"/>
</filter>
<filter id="filter4_dd_3584_28395" x="57.8984" y="235.231" width="232.214" height="168.811" filterUnits="userSpaceOnUse" color-interpolation-filters="sRGB">
<feFlood flood-opacity="0" result="BackgroundImageFix"/>
<feColorMatrix in="SourceAlpha" type="matrix" values="0 0 0 0 0 0 0 0 0 0 0 0 0 0 0 0 0 0 127 0" result="hardAlpha"/>
<feMorphology radius="12" operator="erode" in="SourceAlpha" result="effect1_dropShadow_3584_28395"/>
<feOffset/>
<feGaussianBlur stdDeviation="10.5"/>
<feComposite in2="hardAlpha" operator="out"/>
<feColorMatrix type="matrix" values="0 0 0 0 0.631373 0 0 0 0 0.0705882 0 0 0 0 1 0 0 0 0.16 0"/>
<feBlend mode="normal" in2="BackgroundImageFix" result="effect1_dropShadow_3584_28395"/>
<feColorMatrix in="SourceAlpha" type="matrix" values="0 0 0 0 0 0 0 0 0 0 0 0 0 0 0 0 0 0 127 0" result="hardAlpha"/>
<feOffset dx="4" dy="10"/>
<feGaussianBlur stdDeviation="7.5"/>
<feComposite in2="hardAlpha" operator="out"/>
<feColorMatrix type="matrix" values="0 0 0 0 0 0 0 0 0 0 0 0 0 0 0 0 0 0 0.25 0"/>
<feBlend mode="normal" in2="effect1_dropShadow_3584_28395" result="effect2_dropShadow_3584_28395"/>
<feBlend mode="normal" in="SourceGraphic" in2="effect2_dropShadow_3584_28395" result="shape"/>
</filter>
<radialGradient id="paint0_radial_3584_28395" cx="0" cy="0" r="1" gradientUnits="userSpaceOnUse" gradientTransform="translate(347 268.5) rotate(-174.504) scale(292.344 171.268)">
<stop stop-color="#DBE2F0" stop-opacity="0.2"/>
<stop offset="1" stop-color="#F5F7FB" stop-opacity="0"/>
</radialGradient>
<linearGradient id="paint1_linear_3584_28395" x1="123.608" y1="0" x2="123.608" y2="165.524" gradientUnits="userSpaceOnUse">
<stop stop-color="white" stop-opacity="0.17"/>
<stop offset="1" stop-color="white" stop-opacity="0.1"/>
</linearGradient>
<radialGradient id="paint2_radial_3584_28395" cx="0" cy="0" r="1" gradientUnits="userSpaceOnUse" gradientTransform="translate(60.121 51.0091) rotate(73.672) scale(127.567 193.645)">
<stop offset="0.00706081" stop-color="#5E6E8C"/>
<stop offset="0.196176" stop-color="#5E6E8C"/>
<stop offset="1" stop-color="#5E6E8C" stop-opacity="0"/>
</radialGradient>
<linearGradient id="paint3_linear_3584_28395" x1="124.804" y1="0" x2="124.804" y2="169.365" gradientUnits="userSpaceOnUse">
<stop stop-color="white" stop-opacity="0.17"/>
<stop offset="1" stop-color="white" stop-opacity="0.1"/>
</linearGradient>
<radialGradient id="paint4_radial_3584_28395" cx="0" cy="0" r="1" gradientUnits="userSpaceOnUse" gradientTransform="translate(60.7029 52.1927) rotate(73.8765) scale(130.391 195.722)">
<stop offset="0.00706081" stop-color="#5E6E8C"/>
<stop offset="0.196176" stop-color="#5E6E8C"/>
<stop offset="1" stop-color="#5E6E8C" stop-opacity="0"/>
</radialGradient>
<linearGradient id="paint5_linear_3584_28395" x1="109.624" y1="0" x2="109.624" y2="177.245" gradientUnits="userSpaceOnUse">
<stop stop-color="white" stop-opacity="0.17"/>
<stop offset="1" stop-color="white" stop-opacity="0.1"/>
</linearGradient>
<radialGradient id="paint6_radial_3584_28395" cx="0" cy="0" r="1" gradientUnits="userSpaceOnUse" gradientTransform="translate(53.3193 54.6209) rotate(76.3619) scale(134.894 173.909)">
<stop offset="0.00706081" stop-color="#5E6E8C"/>
<stop offset="0.196176" stop-color="#5E6E8C"/>
<stop offset="1" stop-color="#5E6E8C" stop-opacity="0"/>
</radialGradient>
<linearGradient id="paint7_linear_3584_28395" x1="73.3511" y1="0" x2="73.3511" y2="121.511" gradientUnits="userSpaceOnUse">
<stop stop-color="white" stop-opacity="0.17"/>
<stop offset="1" stop-color="white" stop-opacity="0.1"/>
</linearGradient>
<radialGradient id="paint8_radial_3584_28395" cx="0" cy="0" r="1" gradientUnits="userSpaceOnUse" gradientTransform="translate(35.6769 37.4455) rotate(76.6771) scale(92.3548 116.519)">
<stop offset="0.00706081" stop-color="#5E6E8C"/>
<stop offset="0.196176" stop-color="#5E6E8C"/>
<stop offset="1" stop-color="#5E6E8C" stop-opacity="0"/>
</radialGradient>
<linearGradient id="paint9_linear_3584_28395" x1="87.776" y1="0" x2="87.776" y2="97.1148" gradientUnits="userSpaceOnUse">
<stop stop-color="white" stop-opacity="0.17"/>
<stop offset="1" stop-color="white" stop-opacity="0.1"/>
</linearGradient>
<radialGradient id="paint10_radial_3584_28395" cx="0" cy="0" r="1" gradientUnits="userSpaceOnUse" gradientTransform="translate(42.6929 29.9275) rotate(70.477) scale(76.2074 135.052)">
<stop offset="0.00706081" stop-color="#5E6E8C"/>
<stop offset="0.196176" stop-color="#5E6E8C"/>
<stop offset="1" stop-color="#5E6E8C" stop-opacity="0"/>
</radialGradient>
<linearGradient id="paint11_linear_3584_28395" x1="94.0172" y1="0" x2="94.0172" y2="64.2859" gradientUnits="userSpaceOnUse">
<stop stop-color="white" stop-opacity="0.17"/>
<stop offset="1" stop-color="white" stop-opacity="0.1"/>
</linearGradient>
<radialGradient id="paint12_radial_3584_28395" cx="0" cy="0" r="1" gradientUnits="userSpaceOnUse" gradientTransform="translate(45.7286 19.8108) rotate(60.156) scale(54.8152 133.125)">
<stop offset="0.00706081" stop-color="#5E6E8C"/>
<stop offset="0.196176" stop-color="#5E6E8C"/>
<stop offset="1" stop-color="#5E6E8C" stop-opacity="0"/>
</radialGradient>
<linearGradient id="paint13_linear_3584_28395" x1="94.0172" y1="0" x2="94.0172" y2="64.2859" gradientUnits="userSpaceOnUse">
<stop stop-color="white" stop-opacity="0.17"/>
<stop offset="1" stop-color="white" stop-opacity="0.1"/>
</linearGradient>
<radialGradient id="paint14_radial_3584_28395" cx="0" cy="0" r="1" gradientUnits="userSpaceOnUse" gradientTransform="translate(45.7286 19.8108) rotate(60.156) scale(54.8152 133.125)">
<stop offset="0.00706081" stop-color="#5E6E8C"/>
<stop offset="0.196176" stop-color="#5E6E8C"/>
<stop offset="1" stop-color="#5E6E8C" stop-opacity="0"/>
</radialGradient>
<linearGradient id="paint15_linear_3584_28395" x1="94.0172" y1="0" x2="94.0172" y2="64.2859" gradientUnits="userSpaceOnUse">
<stop stop-color="white" stop-opacity="0.17"/>
<stop offset="1" stop-color="white" stop-opacity="0.1"/>
</linearGradient>
<radialGradient id="paint16_radial_3584_28395" cx="0" cy="0" r="1" gradientUnits="userSpaceOnUse" gradientTransform="translate(45.7286 19.8108) rotate(60.156) scale(54.8152 133.125)">
<stop offset="0.00706081" stop-color="#5E6E8C"/>
<stop offset="0.196176" stop-color="#5E6E8C"/>
<stop offset="1" stop-color="#5E6E8C" stop-opacity="0"/>
</radialGradient>
<clipPath id="clip0_3584_28395">
<rect width="608" height="473" fill="white"/>
</clipPath>
<clipPath id="clip1_3584_28395">
<rect width="27.4971" height="27.4969" fill="white" transform="matrix(0.832514 0.554004 -0.830607 0.55686 415.165 259.389)"/>
</clipPath>
<clipPath id="clip2_3584_28395">
<rect width="24.6203" height="24.6201" fill="white" transform="matrix(0.832801 0.554195 -0.830894 0.557052 322.003 51.1646)"/>
</clipPath>
<clipPath id="clip3_3584_28395">
<rect width="32.6993" height="32.6991" fill="white" transform="matrix(0.832514 0.554004 -0.830607 0.55686 252.16 44.5)"/>
</clipPath>
<clipPath id="clip4_3584_28395">
<rect width="24.6203" height="24.6201" fill="white" transform="matrix(0.832801 0.554195 -0.830894 0.557052 260.385 93.6204)"/>
</clipPath>
<clipPath id="clip5_3584_28395">
<rect width="24.6203" height="24.6201" fill="white" transform="matrix(0.832801 0.554195 -0.830894 0.557053 110.54 256.164)"/>
</clipPath>
<clipPath id="clip6_3584_28395">
<rect width="32.6993" height="32.6991" fill="white" transform="matrix(0.832514 0.554004 -0.830607 0.556859 111.16 139.5)"/>
</clipPath>
</defs>
</svg>
