<svg width="564" height="310" fill="none" xmlns="http://www.w3.org/2000/svg"><g clip-path="url(#a)"><path d="M299.757-41.4-59.555 199.5m376.62-229.381L-42.246 211.018m376.62-229.38L-24.937 222.536M351.832-6.745l-359.311 240.9M369.14 4.774 9.829 245.674M386.45 16.293l-359.31 240.9M403.757 27.811l-359.31 240.9M421.066 39.33 61.756 280.23M438.525 50.948l-359.311 240.9m376.62-229.381-359.312 240.9m376.62-229.382-359.311 240.9m376.62-229.381-359.311 240.9M507.909 97.122l-359.311 240.9m376.62-229.381-359.311 240.9m376.619-229.382-359.311 240.9m376.62-229.381-359.311 240.9m376.62-229.381-359.311 240.9m376.769-229.282L235.291 395.714M611.91 166.333 252.598 407.232m376.623-229.379-359.311 240.9M-61.943 177.795l364.08 242.289M-44.601 166.168l364.079 242.289M-27.261 154.542l364.08 242.289M-9.921 142.917l364.08 242.288M7.42 131.291 371.5 373.58M24.76 119.665l364.08 242.289M42.1 108.039l364.081 242.289M59.441 96.413l364.08 242.289M76.781 84.787l364.08 242.289M94.122 73.161l364.08 242.289M111.462 61.536l364.08 242.288M128.803 49.91l364.08 242.289M146.143 38.284l364.08 242.289M163.484 26.658l364.079 242.289M180.824 15.032l364.08 242.289M198.164 3.406l364.08 242.289M215.505-8.22l364.08 242.289M232.845-19.845l364.08 242.288M250.186-31.471l364.079 242.289M267.526-43.097l364.08 242.289" stroke="url(#b)" stroke-opacity=".1"/><rect opacity=".9" x=".001" y=".556" width="213.283" height="142.474" rx="7.5" transform="matrix(.8328 .5542 -.83088 .55707 126.937 58.182)" fill="#fff" stroke="#DBE2F0"/><rect opacity=".9" x=".001" y=".556" width="215.357" height="145.804" rx="7.5" transform="matrix(.8328 .5542 -.83088 .55707 263.365 -32.453)" fill="#fff" stroke="#DBE2F0"/><rect opacity=".9" x=".001" y=".556" width="189.04" height="152.633" rx="7.5" transform="matrix(.8328 .5542 -.83088 .55707 397.674 153.9)" fill="#fff" stroke="#DBE2F0"/><g filter="url(#c)"><rect x=".001" y=".556" width="126.16" height="104.325" rx="7.5" transform="matrix(.83279 .5542 -.83088 .55706 414.349 191.423)" fill="#fff" stroke="#DBE2F0"/><rect width="68.473" height="8.028" rx="4.014" transform="matrix(.83279 .5542 -.83088 .55706 412.008 202.645)" fill="#DBE2F0"/><rect width="31.167" height="8.028" rx="4.014" transform="matrix(.83279 .5542 -.83088 .55706 423.066 225.698)" fill="#A6B6D9"/><rect width="49.112" height="8.028" rx="4.014" transform="matrix(.83279 .5542 -.83088 .55706 412.08 233.064)" fill="#DBE2F0"/><rect width="45.334" height="8.028" rx="4.014" transform="matrix(.83279 .5542 -.83088 .55706 452.167 245.065)" fill="#DBE2F0"/><rect width="24.084" height="8.028" rx="4.014" transform="matrix(.83279 .5542 -.83088 .55706 388.877 217.623)" fill="#DBE2F0"/><rect width="24.084" height="8.028" rx="4.014" transform="matrix(.83279 .5542 -.83088 .55706 359.491 239.449)" fill="#A6B6D9"/><rect width="24.084" height="8.028" rx="4.014" transform="matrix(.83279 .5542 -.83088 .55706 383.591 256.341)" fill="#DBE2F0"/><rect width="24.084" height="8.028" rx="4.014" transform="matrix(.83279 .5542 -.83088 .55706 399.863 210.258)" fill="#A6B6D9"/></g><g filter="url(#d)"><rect x=".001" y=".556" width="151.167" height="83.178" rx="7.5" transform="matrix(.83279 .5542 -.83088 .55706 151.055 91.74)" fill="#fff" stroke="#DBE2F0"/><rect width="9.715" height="7.517" rx="3.759" transform="matrix(.83279 .5542 -.83088 .55706 128.09 119.659)" fill="#DBE2F0"/><rect width="69.985" height="7.517" rx="3.759" transform="matrix(.83279 .5542 -.83088 .55706 138.045 126.284)" fill="#A6B6D9"/><rect width="16.011" height="7.517" rx="3.759" transform="matrix(.83279 .5542 -.83088 .55706 176.244 123.51)" fill="#DBE2F0"/><rect width="16.336" height="7.517" rx="3.759" transform="matrix(-.83279 -.5542 -.83088 .55706 206.245 143.476)" fill="#DBE2F0"/><rect width="58.77" height="7.517" rx="3.759" transform="matrix(.83279 .5542 -.83088 .55706 165.956 130.407)" fill="#DBE2F0"/><rect width="54.249" height="7.517" rx="3.759" transform="matrix(.83279 .5542 -.83088 .55706 211.068 146.686)" fill="#DBE2F0"/><rect width="28.82" height="7.517" rx="3.759" transform="matrix(.83279 .5542 -.83088 .55706 138.19 111.93)" fill="#DBE2F0"/><rect width="12.92" height="7.517" rx="3.759" transform="matrix(.83279 .5542 -.83088 .55706 110.538 135.076)" fill="#DBE2F0"/><rect width="28.82" height="7.517" rx="3.759" transform="matrix(.83279 .5542 -.83088 .55706 124.708 144.653)" fill="#DBE2F0"/><rect width="38.442" height="7.517" rx="3.759" transform="matrix(-.83279 -.5542 -.83088 .55706 184.793 184.638)" fill="#DBE2F0"/><rect width="28.82" height="7.517" rx="3.759" transform="matrix(.83279 .5542 -.83088 .55706 148.478 105.033)" fill="#DBE2F0"/></g><g clip-path="url(#e)"><path d="M356.572 194.948c-.29-.192-.785-.192-1.074.002l-.099.066-11.353 10.627c-.289.271-.247.641.101.872l10.789 7.18c.256.17.669.203.974.053l16.024-7.728c.16-.079.265-.198.295-.329.029-.131-.021-.265-.139-.372a.375.375 0 0 0-.083-.066l-15.435-10.305zm-.391 12.908-3.439-2.288 3.916-3.874 5.208 3.466-5.685 2.696z" fill="#DBE2F0"/></g><g filter="url(#f)"><rect x=".001" y=".556" width="161.987" height="54.722" rx="7.5" transform="matrix(.83279 .5542 -.83088 .55706 282.658 -1.154)" fill="#fff" stroke="#DBE2F0"/><rect width="68.473" height="8.028" rx="4.014" transform="matrix(.83279 .5542 -.83088 .55706 311.748 29.305)" fill="#DBE2F0"/><rect width="45.429" height="8.028" rx="4.014" transform="matrix(.83279 .5542 -.83088 .55706 310.928 44.454)" fill="#DBE2F0"/><rect width="49.112" height="8.028" rx="4.014" transform="matrix(.83279 .5542 -.83088 .55706 312.582 60.252)" fill="#DBE2F0"/><rect width="45.334" height="8.028" rx="4.014" transform="matrix(.83279 .5542 -.83088 .55706 351.907 71.725)" fill="#A6B6D9"/><rect width="11.419" height="8.028" rx="4.014" transform="matrix(.83279 .5542 -.83088 .55706 288.616 44.283)" fill="#DBE2F0"/><rect width="11.419" height="8.028" rx="4.014" transform="matrix(.83279 .5542 -.83088 .55706 300.293 52.232)" fill="#DBE2F0"/><rect width="10.241" height="8.028" rx="4.014" transform="matrix(.83279 .5542 -.83088 .55706 299.603 36.917)" fill="#DBE2F0"/><g clip-path="url(#g)"><path d="m279.082 22.204 4.073 2.71-.01-5.434-4.063 2.724zm-.012-6.917 5.924 3.943.01 5.928-8.866 5.944c-.391.263-.923.411-1.478.412-.555.001-1.087-.145-1.48-.406l-8.886-5.914c-.393-.261-.614-.616-.615-.987 0-.37.219-.727.611-.99l11.821-7.925c.82-.55 2.137-.552 2.959-.005zm-5.156 12.36 1.477-.99-6.664-4.435-1.478.99 6.665 4.436zm5.176-.502 1.478-.99-8.886-5.914-1.478.99 8.886 5.914z" fill="#fff" fill-opacity=".4"/></g><path d="m272.893 46.058 33.558-22.647" stroke="#fff" stroke-opacity=".2" stroke-linecap="round"/></g><g clip-path="url(#h)"><path d="m225.455 27.75 2.127-2.804a.28.28 0 0 0 .068-.072l4.282-5.642a.568.568 0 0 0 .098-.473.754.754 0 0 0-.325-.426c-.354-.235-.914-.28-1.346-.135l-8.018 2.75-6.224-4.143 4.076-5.372a.563.563 0 0 0 .109-.472.736.736 0 0 0-.317-.427c-.363-.242-.923-.287-1.355-.142l-8.441 2.888-.009.007-4.27 1.457c-.648.224-1.01.69-.882 1.169l2.483 10.445c.05.19.266.334.561.36l15.636 1.626c.718.084 1.414-.16 1.747-.593zM214.507 16.98l-5.232 6.883 1.692-9.239 3.54 2.356zm-2.725 8.565 9.873-3.376.422-.151 3.549 2.362-12.519 1.051-1.325.114zm18.765-6.422-3.674 4.841-3.559-2.368 7.233-2.473zm-9.443 2.247-7.165 2.453-4.269 1.457 5.81-7.652 5.624 3.742zm-2.296-10.059-3.674 4.841-3.549-2.362 7.223-2.479zm-12.493 4.463c-.02-.105.058-.21.196-.25l3.16-1.081-1.586 8.707-1.77-7.376zm17.598 11.711-11.04-1.148.049-.007 12.971-1.091-1.607 2.114c-.059.092-.216.145-.373.132" fill="#DBE2F0"/></g><g filter="url(#i)"><rect x=".001" y=".556" width="161.987" height="54.722" rx="7.5" transform="matrix(.83279 .5542 -.83088 .55706 229.983 35.786)" fill="#fff" stroke="#DBE2F0"/><rect width="53.795" height="8.028" rx="4.014" transform="matrix(.83279 .5542 -.83088 .55706 271.296 74.378)" fill="#DBE2F0"/><rect width="10.474" height="8.028" rx="4.014" transform="matrix(.83279 .5542 -.83088 .55706 259.073 66.244)" fill="#DBE2F0"/><rect width="31.167" height="8.028" rx="4.014" transform="matrix(.83279 .5542 -.83088 .55706 270.13 89.297)" fill="#DBE2F0"/><rect width="64.864" height="8.028" rx="4.014" transform="matrix(.83279 .5542 -.83088 .55706 259.145 96.663)" fill="#DBE2F0"/><rect width="10.441" height="8.028" rx="4.014" transform="matrix(.83279 .5542 -.83088 .55706 299.232 108.664)" fill="#DBE2F0"/><rect width="18.75" height="8.028" rx="4.014" transform="matrix(.83279 .5542 -.83088 .55706 311.155 116.598)" fill="#DBE2F0"/><rect width="24.084" height="8.028" rx="4.014" transform="matrix(.83279 .5542 -.83088 .55706 235.942 81.222)" fill="#DBE2F0"/><rect width="24.084" height="8.028" rx="4.014" transform="matrix(.83279 .5542 -.83088 .55706 246.928 73.856)" fill="#DBE2F0"/><g clip-path="url(#j)"><path d="m225.673 59.005 4.073 2.71-.009-5.434-4.064 2.724zm-.012-6.917 5.924 3.943.01 5.928-8.865 5.944c-.392.263-.924.411-1.479.412-.555.001-1.087-.145-1.48-.407l-8.886-5.913c-.393-.262-.614-.617-.614-.987-.001-.37.219-.727.611-.99l11.821-7.925c.82-.55 2.136-.552 2.958-.005zm-5.156 12.36 1.477-.99-6.664-4.435-1.478.99 6.665 4.436zm5.177-.502 1.477-.991-8.886-5.913-1.477.99 8.886 5.914z" fill="#fff" fill-opacity=".4"/></g><path d="m220.089 82.582 33.558-22.646" stroke="#fff" stroke-opacity=".2" stroke-linecap="round"/></g><g filter="url(#k)"><rect x=".001" y=".556" width="161.987" height="54.722" rx="7.5" transform="matrix(.83279 .5542 -.83088 .55706 100.101 176.68)" fill="#fff" fill-opacity=".9" stroke="#DBE2F0"/><rect width="50.517" height="8.028" rx="4.014" transform="matrix(.83279 .5542 -.83088 .55706 141.414 215.273)" fill="#A6B6D9"/><rect width="34.401" height="8.028" rx="4.014" transform="matrix(-.83279 -.5542 -.83088 .55706 214.862 264.151)" fill="#A6B6D9"/><rect width="10.474" height="8.028" rx="4.014" transform="matrix(.83279 .5542 -.83088 .55706 129.19 207.138)" fill="#A6B6D9"/><rect width="31.167" height="8.028" rx="4.014" transform="matrix(.83279 .5542 -.83088 .55706 140.248 230.192)" fill="#A6B6D9"/><rect width="59.01" height="8.028" rx="4.014" transform="matrix(.83279 .5542 -.83088 .55706 134.137 240.802)" fill="#A6B6D9"/><rect width="13.35" height="8.028" rx="4.014" transform="matrix(-.83279 -.5542 -.83088 .55706 129.262 237.557)" fill="#A6B6D9"/><rect width="33.241" height="8.028" rx="4.014" transform="matrix(.83279 .5542 -.83088 .55706 169.205 249.462)" fill="#A6B6D9"/><rect width="10.67" height="8.028" rx="4.014" transform="matrix(.83279 .5542 -.83088 .55706 106.06 222.116)" fill="#A6B6D9"/><rect width="24.084" height="8.028" rx="4.014" transform="matrix(.83279 .5542 -.83088 .55706 117.045 214.751)" fill="#A6B6D9"/><g clip-path="url(#l)"><path d="m95.79 199.899 4.074 2.711-.01-5.435-4.063 2.724zm-.011-6.917 5.924 3.943.01 5.929-8.866 5.944c-.391.262-.923.41-1.478.411-.555.001-1.087-.145-1.48-.406l-8.886-5.914c-.393-.261-.614-.616-.615-.987 0-.371.22-.726.611-.989l11.821-7.926c.82-.549 2.137-.552 2.959-.005zm-5.156 12.361 1.477-.991-6.664-4.435-1.478.991 6.665 4.435zm5.176-.503 1.478-.991-8.886-5.913-1.478.99 8.886 5.914z" fill="#C5C5EC"/></g><path d="m90.207 223.477 33.557-22.647" stroke="#fff" stroke-opacity=".2" stroke-linecap="round"/></g><path d="m342.74 140.851 9.871 6.686a6 6 0 0 0 6.728.001l24.522-16.595m9.925-26.657 7.134 4.786c3.504 2.351 3.551 7.489.091 9.903l-17.15 11.968m0 0 9.861 6.742c3.524 2.409 3.475 7.624-.093 9.968l-47.107 30.942m0 0 45.728 30.668m-45.728-30.668-34.769 23.203c-3.511 2.343-3.569 7.482-.113 9.904l38.571 27.032M194.86 171.99l9.45 6.643c3.494 2.456 3.376 7.673-.226 9.968l-4.591 2.926c-3.578 2.281-3.723 7.455-.277 9.932l29.14 20.95a6.002 6.002 0 0 0 6.827.124l18.522-12.326m5.435-27.601 10.486 6.661c3.644 2.315 3.724 7.604.153 10.029l-16.074 10.911m0 0 16.234 10.857c3.537 2.366 3.556 7.559.037 9.95L227 260.218M228.597 95.558l-41.773 27.891" stroke="#5E6E8C" stroke-dasharray="9 9"/><g clip-path="url(#m)"><path d="M103.187 97.076c-1.291-.859-2.823-1.54-4.509-2.003a20.034 20.034 0 0 0-5.316-.697c-3.683.006-7.214.99-9.816 2.734-4.335 2.907-5.192 7.251-2.593 10.723a.895.895 0 0 0 1.139.103l1.658-1.111c-3.312-1.418-1.99-3.08-1.99-3.08.686-1.064.351-1.693.351-1.693-.286-1.003.658-.349.658-.349.914.701.494 1.679.494 1.679-.636 1.569 1.25 2.234 2.046 2.449.727-.368 1.414-.487 1.934-.469-1.937-1.617-3.384-3.707.353-6.212 1.089-.73 2.335-1.067 3.67-1.109.148-.23.824-1.142 2.689-1.67 0 0 1.09.372 1.703 2.47.992.372 1.946.862 2.781 1.418.836.557 1.574 1.192 2.135 1.853 3.143.402 3.704 1.129 3.704 1.129-.784 1.247-2.148 1.702-2.491 1.801-.058.892-.557 1.726-1.646 2.456-3.747 2.513-6.872 1.534-9.31.239.05.44-.223 1.057-1.136 1.668l-2.687 1.802c-.265.178-.422.493.168.768 5.218 1.716 11.698 1.128 16.034-1.779 1.288-.864 2.309-1.888 3.005-3.015.696-1.127 1.053-2.334 1.051-3.552-.002-1.218-.363-2.424-1.063-3.548s-1.725-2.145-3.016-3.005z" fill="#DBE2F0"/></g></g><defs><clipPath id="a"><path fill="#fff" d="M0 0h564v310H0z"/></clipPath><clipPath id="m"><path fill="#fff" transform="matrix(.8325 .55402 -.8306 .55687 93.351 87.91)" d="M0 0h28.343v28.343H0z"/></clipPath><clipPath id="l"><path fill="#fff" transform="matrix(.83279 .5542 -.83088 .55706 92.814 189.035)" d="M0 0h21.341v21.34H0z"/></clipPath><clipPath id="j"><path fill="#fff" transform="matrix(.83279 .5542 -.83088 .55706 222.696 48.14)" d="M0 0h21.341v21.34H0z"/></clipPath><clipPath id="h"><path fill="#fff" transform="matrix(.8325 .55402 -.8306 .55687 215.566 5.563)" d="M0 0h28.343v28.343H0z"/></clipPath><clipPath id="g"><path fill="#fff" transform="matrix(.83279 .5542 -.83088 .55706 276.104 11.34)" d="M0 0h21.341v21.34H0z"/></clipPath><clipPath id="e"><path fill="#fff" transform="matrix(.8325 .55402 -.8306 .55687 356.855 191.831)" d="M0 0h23.834v23.834H0z"/></clipPath><filter id="d" x="73.549" y="89.099" width="218.868" height="156.017" filterUnits="userSpaceOnUse" color-interpolation-filters="sRGB"><feFlood flood-opacity="0" result="BackgroundImageFix"/><feColorMatrix in="SourceAlpha" values="0 0 0 0 0 0 0 0 0 0 0 0 0 0 0 0 0 0 127 0" result="hardAlpha"/><feOffset dx="4" dy="10"/><feGaussianBlur stdDeviation="7.5"/><feComposite in2="hardAlpha" operator="out"/><feColorMatrix values="0 0 0 0 0 0 0 0 0 0 0 0 0 0 0 0 0 0 0.25 0"/><feBlend in2="BackgroundImageFix" result="effect1_dropShadow_4187_17357"/><feBlend in="SourceGraphic" in2="effect1_dropShadow_4187_17357" result="shape"/></filter><filter id="k" x="46.739" y="174.538" width="203.235" height="145.161" filterUnits="userSpaceOnUse" color-interpolation-filters="sRGB"><feFlood flood-opacity="0" result="BackgroundImageFix"/><feColorMatrix in="SourceAlpha" values="0 0 0 0 0 0 0 0 0 0 0 0 0 0 0 0 0 0 127 0" result="hardAlpha"/><feOffset dx="4" dy="10"/><feGaussianBlur stdDeviation="7.25"/><feComposite in2="hardAlpha" operator="out"/><feColorMatrix values="0 0 0 0 0 0 0 0 0 0 0 0 0 0 0 0 0 0 0.15 0"/><feBlend in2="BackgroundImageFix" result="effect1_dropShadow_4187_17357"/><feBlend in="SourceGraphic" in2="effect1_dropShadow_4187_17357" result="shape"/></filter><filter id="i" x="176.121" y="33.144" width="204.235" height="146.161" filterUnits="userSpaceOnUse" color-interpolation-filters="sRGB"><feFlood flood-opacity="0" result="BackgroundImageFix"/><feColorMatrix in="SourceAlpha" values="0 0 0 0 0 0 0 0 0 0 0 0 0 0 0 0 0 0 127 0" result="hardAlpha"/><feOffset dx="4" dy="10"/><feGaussianBlur stdDeviation="7.5"/><feComposite in2="hardAlpha" operator="out"/><feColorMatrix values="0 0 0 0 0 0 0 0 0 0 0 0 0 0 0 0 0 0 0.25 0"/><feBlend in2="BackgroundImageFix" result="effect1_dropShadow_4187_17357"/><feBlend in="SourceGraphic" in2="effect1_dropShadow_4187_17357" result="shape"/></filter><filter id="f" x="228.795" y="-3.795" width="204.235" height="146.161" filterUnits="userSpaceOnUse" color-interpolation-filters="sRGB"><feFlood flood-opacity="0" result="BackgroundImageFix"/><feColorMatrix in="SourceAlpha" values="0 0 0 0 0 0 0 0 0 0 0 0 0 0 0 0 0 0 127 0" result="hardAlpha"/><feOffset dx="4" dy="10"/><feGaussianBlur stdDeviation="7.5"/><feComposite in2="hardAlpha" operator="out"/><feColorMatrix values="0 0 0 0 0 0 0 0 0 0 0 0 0 0 0 0 0 0 0.25 0"/><feBlend in2="BackgroundImageFix" result="effect1_dropShadow_4187_17357"/><feBlend in="SourceGraphic" in2="effect1_dropShadow_4187_17357" result="shape"/></filter><filter id="c" x="319.773" y="189.281" width="214.613" height="152.938" filterUnits="userSpaceOnUse" color-interpolation-filters="sRGB"><feFlood flood-opacity="0" result="BackgroundImageFix"/><feColorMatrix in="SourceAlpha" values="0 0 0 0 0 0 0 0 0 0 0 0 0 0 0 0 0 0 127 0" result="hardAlpha"/><feOffset dx="4" dy="10"/><feGaussianBlur stdDeviation="7.25"/><feComposite in2="hardAlpha" operator="out"/><feColorMatrix values="0 0 0 0 0 0 0 0 0 0 0 0 0 0 0 0 0 0 0.15 0"/><feBlend in2="BackgroundImageFix" result="effect1_dropShadow_4187_17357"/><feBlend in="SourceGraphic" in2="effect1_dropShadow_4187_17357" result="shape"/></filter><radialGradient id="b" cx="0" cy="0" r="1" gradientUnits="userSpaceOnUse" gradientTransform="matrix(-252.2321 -24.26942 14.21856 -147.77353 295.613 204.262)"><stop stop-color="#5D5D5D"/><stop offset="1" stop-color="#78767A" stop-opacity="0"/></radialGradient></defs></svg>