<svg width="556" height="384" viewBox="0 0 556 384" fill="none" xmlns="http://www.w3.org/2000/svg">
<g clip-path="url(#clip0_3041_16716)">
<path d="M351.78 -59.41L-62.7574 218.506M371.749 -46.1216L-42.7885 231.795M391.718 -32.8328L-22.8192 245.084M411.859 -19.4297L-2.67805 258.487M431.828 -6.14123L17.2908 271.775M451.798 7.14752L37.2601 285.064M471.767 20.4363L57.2294 298.353M491.736 33.7247L77.1983 311.641M511.877 47.1279L97.3395 325.044M531.846 60.4166L117.309 338.333M551.815 73.7051L137.278 351.621M571.784 86.9938L157.247 364.91M591.926 100.397L177.388 378.313M611.895 113.686L197.357 391.602M631.864 126.974L217.326 404.891M651.833 140.263L237.296 418.179M671.802 153.551L257.264 431.468M691.943 166.955L277.406 444.871M711.911 180.242L297.374 458.159M731.883 193.533L317.346 471.449M-65.5125 193.466L354.526 472.985M-45.5056 180.053L374.533 459.572M-25.4999 166.641L394.539 446.159M-5.49432 153.228L414.545 432.747M14.5113 139.816L434.55 419.335M34.5169 126.404L454.556 405.923M54.5226 112.992L474.561 392.51M74.5282 99.5793L494.567 379.098M94.5338 86.167L514.573 365.686M114.539 72.7548L534.578 352.273M134.545 59.3425L554.584 338.861M154.551 45.9302L574.59 325.449M174.556 32.5179L594.595 312.037M194.562 19.1057L614.601 298.624M214.568 5.6934L634.606 285.212M234.573 -7.71887L654.612 271.8M254.579 -21.1311L674.618 258.388M274.584 -34.5434L694.623 244.975M294.59 -47.9557L714.629 231.563M314.596 -61.368L734.635 218.151" stroke="url(#paint0_radial_3041_16716)" stroke-opacity="0.5"/>
<g style="mix-blend-mode:screen" opacity="0.5">
<rect x="0.000953615" y="0.555624" width="246.216" height="164.524" rx="7.5" transform="matrix(0.832801 0.554195 -0.830894 0.557052 149.837 61.8203)" fill="#0F111A"/>
<rect x="0.000953615" y="0.555624" width="246.216" height="164.524" rx="7.5" transform="matrix(0.832801 0.554195 -0.830894 0.557052 149.837 61.8203)" stroke="url(#paint1_radial_3041_16716)"/>
</g>
<g style="mix-blend-mode:screen" opacity="0.5">
<rect x="0.000953615" y="0.555624" width="248.608" height="168.365" rx="7.5" transform="matrix(0.832801 0.554195 -0.830894 0.557052 307.235 -42.7415)" fill="#0F111A"/>
<rect x="0.000953615" y="0.555624" width="248.608" height="168.365" rx="7.5" transform="matrix(0.832801 0.554195 -0.830894 0.557052 307.235 -42.7415)" stroke="url(#paint2_radial_3041_16716)"/>
</g>
<g style="mix-blend-mode:screen" opacity="0.5">
<rect x="0.000953615" y="0.555624" width="218.247" height="176.245" rx="7.5" transform="matrix(0.832801 0.554195 -0.830894 0.557052 462.187 172.246)" fill="#0F111A"/>
<rect x="0.000953615" y="0.555624" width="218.247" height="176.245" rx="7.5" transform="matrix(0.832801 0.554195 -0.830894 0.557052 462.187 172.246)" stroke="url(#paint3_radial_3041_16716)"/>
</g>
<g filter="url(#filter0_dd_3041_16716)">
<g style="mix-blend-mode:screen">
<rect x="0.000953615" y="0.555624" width="145.702" height="120.511" rx="7.5" transform="matrix(0.832801 0.554195 -0.830894 0.557052 481.424 214.381)" fill="#0F111A"/>
<rect x="0.000953615" y="0.555624" width="145.702" height="120.511" rx="7.5" transform="matrix(0.832801 0.554195 -0.830894 0.557052 481.424 214.381)" stroke="url(#paint4_radial_3041_16716)"/>
</g>
<rect width="78.996" height="9.26153" rx="4.63077" transform="matrix(0.832801 0.554195 -0.830894 0.557052 478.796 227.365)" fill="#02182F"/>
<rect width="35.9568" height="9.26153" rx="4.63077" transform="matrix(0.832801 0.554195 -0.830894 0.557053 491.553 253.961)" fill="#005482"/>
<rect width="56.6592" height="9.26153" rx="4.63077" transform="matrix(0.832801 0.554195 -0.830894 0.557053 478.878 262.459)" fill="#02182F"/>
<rect width="52.3008" height="9.26153" rx="4.63076" transform="matrix(0.832802 0.554195 -0.830894 0.557052 525.127 276.304)" fill="#005482"/>
<rect width="27.7848" height="9.26154" rx="4.63077" transform="matrix(0.832801 0.554195 -0.830894 0.557053 452.109 244.645)" fill="#02182F"/>
<rect width="27.7848" height="9.26153" rx="4.63076" transform="matrix(0.832801 0.554195 -0.830894 0.557052 418.206 269.825)" fill="#005482"/>
<rect width="27.7848" height="9.26153" rx="4.63076" transform="matrix(0.832802 0.554195 -0.830894 0.557052 446.01 289.312)" fill="#005482"/>
<rect width="27.7848" height="9.26154" rx="4.63077" transform="matrix(0.832801 0.554195 -0.830894 0.557053 464.784 236.148)" fill="#005482"/>
</g>
<g filter="url(#filter1_dd_3041_16716)">
<g style="mix-blend-mode:screen">
<rect x="0.000953615" y="0.555624" width="174.552" height="96.1148" rx="7.5" transform="matrix(0.832801 0.554195 -0.830894 0.557052 177.663 99.3814)" fill="#0F111A"/>
<rect x="0.000953615" y="0.555624" width="174.552" height="96.1148" rx="7.5" transform="matrix(0.832801 0.554195 -0.830894 0.557052 177.663 99.3814)" stroke="url(#paint5_radial_3041_16716)"/>
</g>
<rect width="11.2075" height="8.67249" rx="4.33624" transform="matrix(0.832801 0.554195 -0.830894 0.557052 148.206 134)" fill="#005482"/>
<rect width="80.74" height="8.67249" rx="4.33624" transform="matrix(0.832801 0.554195 -0.830894 0.557052 159.691 141.643)" fill="#005482"/>
<rect width="18.4711" height="8.67249" rx="4.33624" transform="matrix(0.832801 0.554195 -0.830894 0.557052 206.794 136.071)" fill="#005482"/>
<rect width="18.8469" height="8.67249" rx="4.33625" transform="matrix(-0.832801 -0.554195 -0.830894 0.557053 241.406 159.104)" fill="#005482"/>
<rect width="67.8015" height="8.67249" rx="4.33624" transform="matrix(0.832802 0.554195 -0.830894 0.557052 194.925 144.028)" fill="#02182F"/>
<rect width="62.586" height="8.67248" rx="4.33624" transform="matrix(0.832801 0.554195 -0.830894 0.557052 246.971 162.807)" fill="#005482"/>
<rect width="33.2488" height="8.67249" rx="4.33624" transform="matrix(0.832802 0.554195 -0.830894 0.557052 162.892 122.711)" fill="#02182F"/>
<rect width="14.9054" height="8.67249" rx="4.33624" transform="matrix(0.832801 0.554195 -0.830894 0.557052 130.989 149.413)" fill="#02182F"/>
<rect width="33.2488" height="8.67249" rx="4.33624" transform="matrix(0.832801 0.554195 -0.830894 0.557053 147.337 160.462)" fill="#02182F"/>
<rect width="44.3493" height="8.67249" rx="4.33624" transform="matrix(-0.832801 -0.554195 -0.830894 0.557052 216.657 206.592)" fill="#02182F"/>
<rect width="33.2488" height="8.67249" rx="4.33624" transform="matrix(0.832802 0.554195 -0.830894 0.557052 174.76 114.754)" fill="#005482"/>
</g>
<g style="mix-blend-mode:screen" opacity="0.4" clip-path="url(#clip1_3041_16716)">
<path d="M414.838 218.486C414.504 218.264 413.933 218.265 413.6 218.488L413.486 218.564L400.388 230.824C400.055 231.137 400.103 231.563 400.504 231.829L412.951 240.113C413.247 240.309 413.723 240.347 414.075 240.174L432.562 231.259C432.746 231.167 432.868 231.031 432.902 230.879C432.936 230.728 432.878 230.574 432.742 230.45C432.722 230.425 432.684 230.4 432.646 230.374L414.838 218.486ZM414.388 233.377L410.42 230.737L414.937 226.268L420.946 230.267L414.388 233.377Z" fill="#DBE2F0"/>
</g>
<g filter="url(#filter2_d_3041_16716)">
<g style="mix-blend-mode:screen">
<rect x="0.000953615" y="0.555624" width="187.034" height="63.2859" rx="7.5" transform="matrix(0.832801 0.554195 -0.830894 0.557052 329.492 -7.78603)" fill="#0F111A"/>
<rect x="0.000953615" y="0.555624" width="187.034" height="63.2859" rx="7.5" transform="matrix(0.832801 0.554195 -0.830894 0.557052 329.492 -7.78603)" stroke="url(#paint6_radial_3041_16716)"/>
</g>
<rect width="78.9959" height="9.26153" rx="4.63077" transform="matrix(0.832801 0.554195 -0.830894 0.557053 363.124 27.39)" fill="#02182F"/>
<rect width="52.4103" height="9.26153" rx="4.63077" transform="matrix(0.832801 0.554195 -0.830894 0.557052 362.179 44.8674)" fill="#02182F"/>
<rect width="56.6592" height="9.26153" rx="4.63077" transform="matrix(0.832801 0.554195 -0.830894 0.557052 364.087 63.0931)" fill="#02182F"/>
<rect width="52.3008" height="9.26153" rx="4.63077" transform="matrix(0.832801 0.554195 -0.830894 0.557053 409.456 76.3284)" fill="#02182F"/>
<rect width="13.1742" height="9.26153" rx="4.63077" transform="matrix(0.832801 0.554195 -0.830894 0.557053 336.438 44.6697)" fill="#02182F"/>
<rect width="13.1742" height="9.26153" rx="4.63077" transform="matrix(0.832801 0.554195 -0.830894 0.557052 349.909 53.84)" fill="#02182F"/>
<rect width="11.815" height="9.26153" rx="4.63077" transform="matrix(0.832802 0.554195 -0.830894 0.557052 349.112 36.1722)" fill="#02182F"/>
<g clip-path="url(#clip2_3041_16716)">
<path d="M325.438 19.1983L330.137 22.3252L330.126 16.0554L325.438 19.1983ZM325.424 11.2186L332.259 15.7667L332.271 22.6065L322.042 29.4639C321.59 29.767 320.977 29.9379 320.336 29.939C319.696 29.9401 319.082 29.7713 318.629 29.4697L308.377 22.6475C307.924 22.3459 307.669 21.9363 307.668 21.5087C307.667 21.0812 307.921 20.6707 308.373 20.3676L322.011 11.2244C322.957 10.5901 324.476 10.5875 325.424 11.2186ZM319.475 25.4784L321.18 24.3355L313.491 19.2188L311.786 20.3617L319.475 25.4784ZM325.448 24.8981L327.153 23.7553L316.901 16.933L315.196 18.0759L325.448 24.8981Z" fill="white" fill-opacity="0.4"/>
</g>
<path d="M318.298 46.7175L357.013 20.5909" stroke="white" stroke-opacity="0.2" stroke-linecap="round"/>
</g>
<g style="mix-blend-mode:screen" opacity="0.6" clip-path="url(#clip3_3041_16716)">
<path d="M263.569 25.5972L266.022 22.3616C266.056 22.3388 266.079 22.3085 266.101 22.2782L271.041 15.7692C271.161 15.5991 271.2 15.4086 271.154 15.2233C271.107 15.038 270.976 14.8668 270.779 14.7329C270.37 14.4611 269.724 14.4093 269.226 14.5766L259.975 17.7482L252.795 12.9702L257.498 6.77185C257.623 6.60352 257.667 6.4136 257.624 6.22808C257.581 6.04257 257.453 5.87052 257.258 5.7355C256.838 5.45622 256.193 5.40436 255.694 5.5717L245.956 8.903L245.945 8.91059L241.02 10.5915C240.272 10.8501 239.854 11.3881 240.002 11.9403L242.867 23.9905C242.924 24.2099 243.173 24.3759 243.513 24.4056L261.553 26.2817C262.381 26.3787 263.185 26.0973 263.569 25.5972ZM250.938 13.1701L244.901 21.1113L246.854 10.4528L250.938 13.1701ZM247.794 23.0512L259.185 19.1571L259.671 18.9822L263.766 21.7071L249.323 22.92L247.794 23.0512ZM269.443 15.6433L265.204 21.2279L261.098 18.4954L269.443 15.6433ZM258.549 18.2349L250.283 21.0643L245.357 22.7452L252.06 13.9174L258.549 18.2349ZM255.9 6.63081L251.661 12.2154L247.566 9.49052L255.9 6.63081ZM241.486 11.7788C241.463 11.6577 241.554 11.5365 241.712 11.4908L245.358 10.2435L243.529 20.2888L241.486 11.7788ZM261.79 25.29L249.053 23.9648L249.109 23.9571L264.074 22.6979L262.22 25.1379C262.152 25.2439 261.971 25.3048 261.79 25.29Z" fill="#DBE2F0"/>
</g>
<g filter="url(#filter3_dd_3041_16716)">
<g style="mix-blend-mode:screen">
<rect x="0.000953615" y="0.555624" width="187.034" height="63.2859" rx="7.5" transform="matrix(0.832801 0.554195 -0.830894 0.557052 268.722 34.8292)" fill="#0F111A"/>
<rect x="0.000953615" y="0.555624" width="187.034" height="63.2859" rx="7.5" transform="matrix(0.832801 0.554195 -0.830894 0.557052 268.722 34.8292)" stroke="url(#paint7_radial_3041_16716)"/>
</g>
<rect width="62.0625" height="9.26153" rx="4.63077" transform="matrix(0.832801 0.554195 -0.830894 0.557053 316.456 79.3896)" fill="#02182F"/>
<rect width="12.0839" height="9.26153" rx="4.63077" transform="matrix(0.832802 0.554195 -0.830894 0.557052 302.354 70.0052)" fill="#02182F"/>
<rect width="35.9568" height="9.26153" rx="4.63076" transform="matrix(0.832801 0.554195 -0.830894 0.557052 315.111 96.6011)" fill="#02182F"/>
<rect width="74.832" height="9.26153" rx="4.63077" transform="matrix(0.832801 0.554195 -0.830894 0.557052 302.436 105.099)" fill="#02182F"/>
<rect width="12.0456" height="9.26153" rx="4.63077" transform="matrix(0.832801 0.554195 -0.830894 0.557052 348.685 118.944)" fill="#02182F"/>
<rect width="21.631" height="9.26153" rx="4.63076" transform="matrix(0.832801 0.554196 -0.830894 0.557053 362.44 128.097)" fill="#02182F"/>
<rect width="27.7848" height="9.26153" rx="4.63076" transform="matrix(0.832801 0.554196 -0.830894 0.557053 275.667 87.2849)" fill="#02182F"/>
<rect width="27.7848" height="9.26153" rx="4.63077" transform="matrix(0.832801 0.554195 -0.830894 0.557052 288.342 78.7875)" fill="#02182F"/>
<g clip-path="url(#clip4_3041_16716)">
<path d="M263.82 61.654L268.519 64.7809L268.508 58.5111L263.82 61.654ZM263.806 53.6743L270.641 58.2224L270.653 65.0622L260.424 71.9195C259.972 72.2227 259.359 72.3936 258.718 72.3947C258.078 72.3958 257.464 72.227 257.011 71.9254L246.759 65.1032C246.306 64.8016 246.051 64.392 246.05 63.9644C246.049 63.5369 246.303 63.1264 246.755 62.8232L260.393 53.6801C261.339 53.0458 262.858 53.0432 263.806 53.6743ZM257.857 67.9341L259.562 66.7912L251.873 61.6745L250.169 62.8174L257.857 67.9341ZM263.83 67.3538L265.535 66.2109L255.283 59.3887L253.578 60.5316L263.83 67.3538Z" fill="white" fill-opacity="0.4"/>
</g>
<path d="M257.378 88.8545L296.093 62.7279" stroke="white" stroke-opacity="0.2" stroke-linecap="round"/>
</g>
<g filter="url(#filter4_dd_3041_16716)">
<g style="mix-blend-mode:screen">
<rect x="0.000953615" y="0.555624" width="187.034" height="63.2859" rx="7.5" transform="matrix(0.832801 0.554195 -0.830894 0.557052 118.877 197.373)" fill="#0F111A"/>
<rect x="0.000953615" y="0.555624" width="187.034" height="63.2859" rx="7.5" transform="matrix(0.832801 0.554195 -0.830894 0.557052 118.877 197.373)" stroke="url(#paint8_radial_3041_16716)"/>
</g>
<rect width="58.2807" height="9.26153" rx="4.63076" transform="matrix(0.832801 0.554195 -0.830894 0.557052 166.611 241.933)" fill="#02182F"/>
<rect width="39.6874" height="9.26153" rx="4.63077" transform="matrix(-0.832801 -0.554195 -0.830894 0.557053 251.349 298.323)" fill="#02182F"/>
<rect width="12.0839" height="9.26153" rx="4.63077" transform="matrix(0.832802 0.554195 -0.830894 0.557052 152.509 232.549)" fill="#02182F"/>
<rect width="35.9568" height="9.26153" rx="4.63077" transform="matrix(0.832801 0.554195 -0.830894 0.557052 165.266 259.145)" fill="#02182F"/>
<rect width="68.0783" height="9.26153" rx="4.63077" transform="matrix(0.832801 0.554195 -0.830894 0.557052 158.216 271.385)" fill="#02182F"/>
<rect width="15.4016" height="9.26153" rx="4.63076" transform="matrix(-0.832802 -0.554195 -0.830895 0.557052 152.591 267.642)" fill="#02182F"/>
<rect width="38.3491" height="9.26153" rx="4.63077" transform="matrix(0.832801 0.554195 -0.830894 0.557053 198.673 281.376)" fill="#02182F"/>
<rect width="12.3101" height="9.26153" rx="4.63076" transform="matrix(0.832802 0.554195 -0.830894 0.557052 125.823 249.829)" fill="#02182F"/>
<rect width="27.7848" height="9.26153" rx="4.63076" transform="matrix(0.832802 0.554195 -0.830894 0.557052 138.497 241.331)" fill="#02182F"/>
<g clip-path="url(#clip5_3041_16716)">
<path d="M113.975 224.198L118.674 227.325L118.663 221.055L113.975 224.198ZM113.962 216.218L120.796 220.766L120.808 227.606L110.58 234.463C110.127 234.766 109.514 234.937 108.874 234.938C108.234 234.939 107.619 234.771 107.166 234.469L96.9143 227.647C96.4612 227.345 96.2062 226.936 96.2054 226.508C96.2047 226.081 96.4583 225.67 96.9104 225.367L110.548 216.224C111.494 215.59 113.013 215.587 113.962 216.218ZM108.013 230.478L109.717 229.335L102.029 224.218L100.324 225.361L108.013 230.478ZM113.985 229.898L115.69 228.755L105.438 221.932L103.733 223.075L113.985 229.898Z" fill="white" fill-opacity="0.4"/>
</g>
<path d="M107.533 251.398L146.249 225.271" stroke="white" stroke-opacity="0.2" stroke-linecap="round"/>
</g>
<path d="M398.881 156.076L410.786 164.14C412.817 165.516 415.481 165.516 417.513 164.141L446.321 144.646M457.772 113.892L467.122 120.165C470.626 122.516 470.673 127.654 467.213 130.068L446.321 144.646M446.321 144.646L458.834 153.2C462.358 155.61 462.309 160.825 458.741 163.168L403.243 199.62M403.243 199.62L456 235M403.243 199.62L362.009 227.137C358.499 229.48 358.44 234.619 361.896 237.041L407.5 269" stroke="#A6B6D9" stroke-dasharray="5 5"/>
<path d="M228.272 192L240.3 200.455C243.794 202.911 243.676 208.128 240.074 210.423L232.469 215.271C228.891 217.552 228.746 222.725 232.192 225.202L267.434 250.539C269.462 251.997 272.181 252.046 274.26 250.662L296.161 236.089M302.431 204.247L315.714 212.684C319.358 214.999 319.438 220.289 315.866 222.713L296.161 236.089M296.161 236.089L316.027 249.375C319.564 251.741 319.583 256.934 316.064 259.325L265.352 293.785" stroke="#A6B6D9" stroke-dasharray="5 5"/>
<path d="M267.193 103.823L219 136" stroke="#A6B6D9" stroke-dasharray="5 5"/>
<g style="mix-blend-mode:screen" opacity="0.6" clip-path="url(#clip6_3041_16716)">
<path d="M122.508 105.575C121.018 104.584 119.251 103.799 117.306 103.264C115.361 102.73 113.277 102.456 111.173 102.46C106.923 102.467 102.85 103.602 99.8486 105.614C94.8466 108.967 93.8582 113.979 96.8562 117.985C97.3328 118.423 97.8651 118.308 98.1706 118.103L100.083 116.821C96.2622 115.186 97.7884 113.268 97.7884 113.268C98.5794 112.041 98.1929 111.315 98.1929 111.315C97.8624 110.158 98.9513 110.913 98.9513 110.913C100.006 111.721 99.5211 112.849 99.5211 112.849C98.7878 114.659 100.964 115.427 101.883 115.675C102.72 115.25 103.513 115.113 104.114 115.134C101.878 113.269 100.209 110.858 104.52 107.967C105.777 107.125 107.215 106.736 108.756 106.688C108.925 106.423 109.705 105.37 111.857 104.761C111.857 104.761 113.115 105.19 113.822 107.611C114.967 108.04 116.067 108.606 117.031 109.247C117.995 109.889 118.846 110.621 119.493 111.385C123.119 111.848 123.767 112.686 123.767 112.686C122.863 114.126 121.289 114.651 120.892 114.765C120.826 115.794 120.25 116.756 118.994 117.598C114.671 120.497 111.066 119.368 108.254 117.874C108.311 118.381 107.995 119.093 106.943 119.799L103.842 121.877C103.536 122.082 103.356 122.446 104.036 122.763C110.056 124.742 117.532 124.064 122.534 120.71C124.02 119.714 125.198 118.532 126.001 117.232C126.804 115.932 127.216 114.54 127.214 113.135C127.212 111.729 126.795 110.338 125.987 109.041C125.18 107.744 123.998 106.566 122.508 105.575Z" fill="#DBE2F0"/>
</g>
</g>
<defs>
<filter id="filter0_dd_3041_16716" x="372.898" y="207.739" width="245.34" height="177.782" filterUnits="userSpaceOnUse" color-interpolation-filters="sRGB">
<feFlood flood-opacity="0" result="BackgroundImageFix"/>
<feColorMatrix in="SourceAlpha" type="matrix" values="0 0 0 0 0 0 0 0 0 0 0 0 0 0 0 0 0 0 127 0" result="hardAlpha"/>
<feMorphology radius="12" operator="erode" in="SourceAlpha" result="effect1_dropShadow_3041_16716"/>
<feOffset/>
<feGaussianBlur stdDeviation="10.5"/>
<feComposite in2="hardAlpha" operator="out"/>
<feColorMatrix type="matrix" values="0 0 0 0 0.631373 0 0 0 0 0.0705882 0 0 0 0 1 0 0 0 0.16 0"/>
<feBlend mode="normal" in2="BackgroundImageFix" result="effect1_dropShadow_3041_16716"/>
<feColorMatrix in="SourceAlpha" type="matrix" values="0 0 0 0 0 0 0 0 0 0 0 0 0 0 0 0 0 0 127 0" result="hardAlpha"/>
<feOffset dx="4" dy="10"/>
<feGaussianBlur stdDeviation="7.5"/>
<feComposite in2="hardAlpha" operator="out"/>
<feColorMatrix type="matrix" values="0 0 0 0 0 0 0 0 0 0 0 0 0 0 0 0 0 0 0.25 0"/>
<feBlend mode="normal" in2="effect1_dropShadow_3041_16716" result="effect2_dropShadow_3041_16716"/>
<feBlend mode="normal" in="SourceGraphic" in2="effect2_dropShadow_3041_16716" result="shape"/>
</filter>
<filter id="filter1_dd_3041_16716" x="89.4072" y="92.7396" width="249.095" height="180.181" filterUnits="userSpaceOnUse" color-interpolation-filters="sRGB">
<feFlood flood-opacity="0" result="BackgroundImageFix"/>
<feColorMatrix in="SourceAlpha" type="matrix" values="0 0 0 0 0 0 0 0 0 0 0 0 0 0 0 0 0 0 127 0" result="hardAlpha"/>
<feMorphology radius="12" operator="erode" in="SourceAlpha" result="effect1_dropShadow_3041_16716"/>
<feOffset/>
<feGaussianBlur stdDeviation="10.5"/>
<feComposite in2="hardAlpha" operator="out"/>
<feColorMatrix type="matrix" values="0 0 0 0 0.631373 0 0 0 0 0.0705882 0 0 0 0 1 0 0 0 0.16 0"/>
<feBlend mode="normal" in2="BackgroundImageFix" result="effect1_dropShadow_3041_16716"/>
<feColorMatrix in="SourceAlpha" type="matrix" values="0 0 0 0 0 0 0 0 0 0 0 0 0 0 0 0 0 0 127 0" result="hardAlpha"/>
<feOffset dx="4" dy="10"/>
<feGaussianBlur stdDeviation="7.5"/>
<feComposite in2="hardAlpha" operator="out"/>
<feColorMatrix type="matrix" values="0 0 0 0 0 0 0 0 0 0 0 0 0 0 0 0 0 0 0.25 0"/>
<feBlend mode="normal" in2="effect1_dropShadow_3041_16716" result="effect2_dropShadow_3041_16716"/>
<feBlend mode="normal" in="SourceGraphic" in2="effect2_dropShadow_3041_16716" result="shape"/>
</filter>
<filter id="filter2_d_3041_16716" x="268.514" y="-10.4279" width="232.214" height="164.811" filterUnits="userSpaceOnUse" color-interpolation-filters="sRGB">
<feFlood flood-opacity="0" result="BackgroundImageFix"/>
<feColorMatrix in="SourceAlpha" type="matrix" values="0 0 0 0 0 0 0 0 0 0 0 0 0 0 0 0 0 0 127 0" result="hardAlpha"/>
<feOffset dx="4" dy="10"/>
<feGaussianBlur stdDeviation="7.5"/>
<feComposite in2="hardAlpha" operator="out"/>
<feColorMatrix type="matrix" values="0 0 0 0 0 0 0 0 0 0 0 0 0 0 0 0 0 0 0.25 0"/>
<feBlend mode="normal" in2="BackgroundImageFix" result="effect1_dropShadow_3041_16716"/>
<feBlend mode="normal" in="SourceGraphic" in2="effect1_dropShadow_3041_16716" result="shape"/>
</filter>
<filter id="filter3_dd_3041_16716" x="207.743" y="28.1874" width="232.214" height="168.811" filterUnits="userSpaceOnUse" color-interpolation-filters="sRGB">
<feFlood flood-opacity="0" result="BackgroundImageFix"/>
<feColorMatrix in="SourceAlpha" type="matrix" values="0 0 0 0 0 0 0 0 0 0 0 0 0 0 0 0 0 0 127 0" result="hardAlpha"/>
<feMorphology radius="12" operator="erode" in="SourceAlpha" result="effect1_dropShadow_3041_16716"/>
<feOffset/>
<feGaussianBlur stdDeviation="10.5"/>
<feComposite in2="hardAlpha" operator="out"/>
<feColorMatrix type="matrix" values="0 0 0 0 0.631373 0 0 0 0 0.0705882 0 0 0 0 1 0 0 0 0.16 0"/>
<feBlend mode="normal" in2="BackgroundImageFix" result="effect1_dropShadow_3041_16716"/>
<feColorMatrix in="SourceAlpha" type="matrix" values="0 0 0 0 0 0 0 0 0 0 0 0 0 0 0 0 0 0 127 0" result="hardAlpha"/>
<feOffset dx="4" dy="10"/>
<feGaussianBlur stdDeviation="7.5"/>
<feComposite in2="hardAlpha" operator="out"/>
<feColorMatrix type="matrix" values="0 0 0 0 0 0 0 0 0 0 0 0 0 0 0 0 0 0 0.25 0"/>
<feBlend mode="normal" in2="effect1_dropShadow_3041_16716" result="effect2_dropShadow_3041_16716"/>
<feBlend mode="normal" in="SourceGraphic" in2="effect2_dropShadow_3041_16716" result="shape"/>
</filter>
<filter id="filter4_dd_3041_16716" x="57.8984" y="190.731" width="232.214" height="168.811" filterUnits="userSpaceOnUse" color-interpolation-filters="sRGB">
<feFlood flood-opacity="0" result="BackgroundImageFix"/>
<feColorMatrix in="SourceAlpha" type="matrix" values="0 0 0 0 0 0 0 0 0 0 0 0 0 0 0 0 0 0 127 0" result="hardAlpha"/>
<feMorphology radius="12" operator="erode" in="SourceAlpha" result="effect1_dropShadow_3041_16716"/>
<feOffset/>
<feGaussianBlur stdDeviation="10.5"/>
<feComposite in2="hardAlpha" operator="out"/>
<feColorMatrix type="matrix" values="0 0 0 0 0.631373 0 0 0 0 0.0705882 0 0 0 0 1 0 0 0 0.16 0"/>
<feBlend mode="normal" in2="BackgroundImageFix" result="effect1_dropShadow_3041_16716"/>
<feColorMatrix in="SourceAlpha" type="matrix" values="0 0 0 0 0 0 0 0 0 0 0 0 0 0 0 0 0 0 127 0" result="hardAlpha"/>
<feOffset dx="4" dy="10"/>
<feGaussianBlur stdDeviation="7.5"/>
<feComposite in2="hardAlpha" operator="out"/>
<feColorMatrix type="matrix" values="0 0 0 0 0 0 0 0 0 0 0 0 0 0 0 0 0 0 0.25 0"/>
<feBlend mode="normal" in2="effect1_dropShadow_3041_16716" result="effect2_dropShadow_3041_16716"/>
<feBlend mode="normal" in="SourceGraphic" in2="effect2_dropShadow_3041_16716" result="shape"/>
</filter>
<radialGradient id="paint0_radial_3041_16716" cx="0" cy="0" r="1" gradientUnits="userSpaceOnUse" gradientTransform="translate(347 224) rotate(-174.504) scale(292.344 171.268)">
<stop stop-color="#DBE2F0" stop-opacity="0.2"/>
<stop offset="1" stop-color="#F5F7FB" stop-opacity="0"/>
</radialGradient>
<radialGradient id="paint1_radial_3041_16716" cx="0" cy="0" r="1" gradientUnits="userSpaceOnUse" gradientTransform="translate(60.121 51.0091) rotate(73.672) scale(127.567 193.645)">
<stop offset="0.00706081" stop-color="#5E6E8C"/>
<stop offset="0.196176" stop-color="#5E6E8C"/>
<stop offset="1" stop-color="#5E6E8C" stop-opacity="0"/>
</radialGradient>
<radialGradient id="paint2_radial_3041_16716" cx="0" cy="0" r="1" gradientUnits="userSpaceOnUse" gradientTransform="translate(60.7029 52.1927) rotate(73.8765) scale(130.391 195.722)">
<stop offset="0.00706081" stop-color="#5E6E8C"/>
<stop offset="0.196176" stop-color="#5E6E8C"/>
<stop offset="1" stop-color="#5E6E8C" stop-opacity="0"/>
</radialGradient>
<radialGradient id="paint3_radial_3041_16716" cx="0" cy="0" r="1" gradientUnits="userSpaceOnUse" gradientTransform="translate(53.3193 54.6209) rotate(76.3619) scale(134.894 173.909)">
<stop offset="0.00706081" stop-color="#5E6E8C"/>
<stop offset="0.196176" stop-color="#5E6E8C"/>
<stop offset="1" stop-color="#5E6E8C" stop-opacity="0"/>
</radialGradient>
<radialGradient id="paint4_radial_3041_16716" cx="0" cy="0" r="1" gradientUnits="userSpaceOnUse" gradientTransform="translate(35.6769 37.4455) rotate(76.6771) scale(92.3548 116.519)">
<stop offset="0.00706081" stop-color="#5E6E8C"/>
<stop offset="0.196176" stop-color="#5E6E8C"/>
<stop offset="1" stop-color="#5E6E8C" stop-opacity="0"/>
</radialGradient>
<radialGradient id="paint5_radial_3041_16716" cx="0" cy="0" r="1" gradientUnits="userSpaceOnUse" gradientTransform="translate(42.6929 29.9275) rotate(70.477) scale(76.2074 135.052)">
<stop offset="0.00706081" stop-color="#5E6E8C"/>
<stop offset="0.196176" stop-color="#5E6E8C"/>
<stop offset="1" stop-color="#5E6E8C" stop-opacity="0"/>
</radialGradient>
<radialGradient id="paint6_radial_3041_16716" cx="0" cy="0" r="1" gradientUnits="userSpaceOnUse" gradientTransform="translate(45.7286 19.8108) rotate(60.156) scale(54.8152 133.125)">
<stop offset="0.00706081" stop-color="#5E6E8C"/>
<stop offset="0.196176" stop-color="#5E6E8C"/>
<stop offset="1" stop-color="#5E6E8C" stop-opacity="0"/>
</radialGradient>
<radialGradient id="paint7_radial_3041_16716" cx="0" cy="0" r="1" gradientUnits="userSpaceOnUse" gradientTransform="translate(45.7286 19.8108) rotate(60.156) scale(54.8152 133.125)">
<stop offset="0.00706081" stop-color="#5E6E8C"/>
<stop offset="0.196176" stop-color="#5E6E8C"/>
<stop offset="1" stop-color="#5E6E8C" stop-opacity="0"/>
</radialGradient>
<radialGradient id="paint8_radial_3041_16716" cx="0" cy="0" r="1" gradientUnits="userSpaceOnUse" gradientTransform="translate(45.7286 19.8108) rotate(60.156) scale(54.8152 133.125)">
<stop offset="0.00706081" stop-color="#5E6E8C"/>
<stop offset="0.196176" stop-color="#5E6E8C"/>
<stop offset="1" stop-color="#5E6E8C" stop-opacity="0"/>
</radialGradient>
<clipPath id="clip0_3041_16716">
<rect width="608" height="473" fill="white" transform="translate(0 -44.5)"/>
</clipPath>
<clipPath id="clip1_3041_16716">
<rect width="27.4971" height="27.4969" fill="white" transform="matrix(0.832514 0.554004 -0.830607 0.55686 415.165 214.889)"/>
</clipPath>
<clipPath id="clip2_3041_16716">
<rect width="24.6203" height="24.6201" fill="white" transform="matrix(0.832801 0.554195 -0.830894 0.557052 322.003 6.66455)"/>
</clipPath>
<clipPath id="clip3_3041_16716">
<rect width="32.6993" height="32.6991" fill="white" transform="matrix(0.832514 0.554004 -0.830607 0.55686 252.16 0)"/>
</clipPath>
<clipPath id="clip4_3041_16716">
<rect width="24.6203" height="24.6201" fill="white" transform="matrix(0.832801 0.554195 -0.830894 0.557052 260.385 49.1202)"/>
</clipPath>
<clipPath id="clip5_3041_16716">
<rect width="24.6203" height="24.6201" fill="white" transform="matrix(0.832801 0.554195 -0.830894 0.557053 110.54 211.664)"/>
</clipPath>
<clipPath id="clip6_3041_16716">
<rect width="32.6993" height="32.6991" fill="white" transform="matrix(0.832514 0.554004 -0.830607 0.556859 111.16 95)"/>
</clipPath>
</defs>
</svg>
