<svg width="17" height="17" viewBox="0 0 17 17" fill="none" xmlns="http://www.w3.org/2000/svg">
<rect width="17" height="17" rx="3" fill="#03284F"/>
<path fill-rule="evenodd" clip-rule="evenodd" d="M11.1562 3.1875C11.7431 3.1875 12.2187 3.68698 12.2187 4.30313L12.2187 6.85312C12.2187 7.46927 11.7431 7.96875 11.1562 7.96875C10.5694 7.96875 10.0937 7.46927 10.0937 6.85312L10.0937 4.30312C10.0937 3.68698 10.5694 3.1875 11.1562 3.1875Z" fill="#00A1C7"/>
<path fill-rule="evenodd" clip-rule="evenodd" d="M3.1875 5.84375C3.1875 5.25695 3.68698 4.78125 4.30313 4.78125L6.85312 4.78125C7.46927 4.78125 7.96875 5.25695 7.96875 5.84375C7.96875 6.43055 7.46927 6.90625 6.85312 6.90625H4.30313C3.68698 6.90625 3.1875 6.43055 3.1875 5.84375Z" fill="#00A1C7"/>
<path fill-rule="evenodd" clip-rule="evenodd" d="M4.58951 9.98174C4.23166 9.51734 3.56054 9.42444 3.0869 9.77506C2.61129 10.1271 2.5149 10.7931 2.87161 11.2625L2.8776 11.2703C2.8716 11.2625 2.87222 11.2633 2.87222 11.2633L2.87287 11.2642L2.87428 11.266L2.8776 11.2703C2.88001 11.2735 2.88283 11.2771 2.88608 11.2813C2.89258 11.2896 2.90076 11.2999 2.91062 11.312C2.93032 11.3364 2.95678 11.3683 2.98997 11.4066C3.05631 11.4832 3.14995 11.586 3.27089 11.7061C3.51218 11.9457 3.86588 12.2578 4.33213 12.5683C5.26799 13.1915 6.6658 13.8125 8.5 13.8125C10.3342 13.8125 11.732 13.1915 12.6679 12.5683C13.1341 12.2578 13.4878 11.9457 13.7291 11.7061C13.85 11.586 13.9437 11.4832 14.01 11.4066C14.0432 11.3683 14.0697 11.3364 14.0894 11.312C14.0992 11.2999 14.1074 11.2896 14.1139 11.2813C14.1172 11.2771 14.12 11.2735 14.1224 11.2703L14.1257 11.266L14.1271 11.2642L14.1278 11.2633L14.1284 11.2625C14.4851 10.7931 14.3887 10.1271 13.9131 9.77506C13.4395 9.42444 12.7683 9.51734 12.4105 9.98173C12.4105 9.98173 12.4088 9.98386 12.4072 9.98579C12.4018 9.99256 12.3904 10.0063 12.3733 10.0261C12.3391 10.0657 12.2819 10.1289 12.2022 10.208C12.0422 10.3669 11.7952 10.586 11.4637 10.8068C10.8041 11.246 9.81832 11.6875 8.5 11.6875C7.18168 11.6875 6.19588 11.246 5.53627 10.8068C5.20478 10.586 4.95777 10.3669 4.79778 10.208C4.71809 10.1289 4.66095 10.0657 4.62667 10.0261C4.60956 10.0063 4.59824 9.99256 4.59275 9.98579C4.5912 9.98387 4.58951 9.98174 4.58951 9.98174Z" fill="#00A1C7"/>
</svg>
