<svg width="87" height="70" viewBox="0 0 87 70" fill="none" xmlns="http://www.w3.org/2000/svg">
<g clip-path="url(#clip0_3391_19286)">
<g opacity="0.405" filter="url(#filter0_f_3391_19286)">
<path d="M60.7241 35.0515C60.7241 44.7045 52.978 52.5298 43.4226 52.5298C33.8672 52.5298 26.1211 44.7045 26.1211 35.0515C26.1211 25.3985 33.8672 17.5732 43.4226 17.5732C52.978 17.5732 60.7241 25.3985 60.7241 35.0515Z" fill="#211F46" fill-opacity="0.996078"/>
<path d="M60.7241 35.0515C60.7241 44.7045 52.978 52.5298 43.4226 52.5298C33.8672 52.5298 26.1211 44.7045 26.1211 35.0515C26.1211 25.3985 33.8672 17.5732 43.4226 17.5732C52.978 17.5732 60.7241 25.3985 60.7241 35.0515Z" stroke="#0A0B1B" stroke-width="0.78948"/>
</g>
<path d="M60.7241 35.0515C60.7241 44.7045 52.978 52.5298 43.4226 52.5298C33.8673 52.5298 26.1211 44.7045 26.1211 35.0515C26.1211 25.3985 33.8673 17.5732 43.4226 17.5732C52.978 17.5732 60.7241 25.3985 60.7241 35.0515Z" fill="url(#paint0_linear_3391_19286)" stroke="url(#paint1_linear_3391_19286)" stroke-width="1.25045"/>
<path fill-rule="evenodd" clip-rule="evenodd" d="M37.4759 47.3282C37.4759 47.3282 38.9408 47.4319 40.8254 47.2658C41.5887 47.1985 44.4864 46.9139 46.6529 46.4387C46.6529 46.4387 49.2943 45.8734 50.7074 45.3527C52.1861 44.8078 52.9907 44.3453 53.3528 43.69C53.337 43.5557 53.4643 43.0796 52.7825 42.7936C51.0392 42.0624 49.0174 42.1946 45.0167 42.1098C40.5801 41.9574 39.1042 41.2148 38.318 40.6167C37.5641 40.0099 37.9432 38.3313 41.1735 36.8527C42.8007 36.0653 49.1795 34.6122 49.1795 34.6122C47.0313 33.5504 43.0254 31.6836 42.202 31.2805C41.4798 30.927 40.324 30.3947 40.0735 29.7506C39.7895 29.1323 40.7443 28.5997 41.2777 28.4471C42.9955 27.9517 45.4204 27.6437 47.6275 27.6091C48.7368 27.5917 48.9169 27.5204 48.9169 27.5204C50.4476 27.2665 51.4553 26.2192 51.0354 24.5606C50.6585 22.8677 48.6707 21.8729 46.7817 22.2173C45.0028 22.5416 40.7152 23.787 40.7152 23.787C46.015 23.7411 46.902 23.8296 47.2982 24.3835C47.5321 24.7106 47.1919 25.1591 45.7784 25.39C44.2397 25.6413 41.041 25.9439 41.041 25.9439C37.9724 26.1262 35.8109 26.1384 35.1626 27.5109C34.7391 28.4076 35.6143 29.2004 35.9979 29.6966C37.6189 31.4993 39.9603 32.4716 41.4674 33.1875C42.0345 33.4569 43.6983 33.9656 43.6983 33.9656C38.8089 33.6967 35.2819 35.1981 33.213 36.9267C30.8729 39.0911 31.9081 41.671 36.7022 43.2595C39.5337 44.1978 40.938 44.639 45.1617 44.2587C47.6495 44.1246 48.0417 44.2044 48.0665 44.4085C48.1014 44.6959 45.3033 45.4099 44.5393 45.6302C42.5959 46.1908 37.5014 47.3227 37.4759 47.3282Z" fill="white"/>
</g>
<defs>
<filter id="filter0_f_3391_19286" x="24.1011" y="15.5532" width="38.6436" height="38.9966" filterUnits="userSpaceOnUse" color-interpolation-filters="sRGB">
<feFlood flood-opacity="0" result="BackgroundImageFix"/>
<feBlend mode="normal" in="SourceGraphic" in2="BackgroundImageFix" result="shape"/>
<feGaussianBlur stdDeviation="0.812749" result="effect1_foregroundBlur_3391_19286"/>
</filter>
<linearGradient id="paint0_linear_3391_19286" x1="34.8205" y1="24.6123" x2="56.554" y2="54.1768" gradientUnits="userSpaceOnUse">
<stop stop-color="#8381C5"/>
<stop offset="0.566394" stop-color="#7E55B3" stop-opacity="0.996078"/>
<stop offset="1" stop-color="#A52ECB" stop-opacity="0.992157"/>
</linearGradient>
<linearGradient id="paint1_linear_3391_19286" x1="57.5117" y1="45.2211" x2="37.4531" y2="21.0079" gradientUnits="userSpaceOnUse">
<stop stop-color="#411F5D"/>
<stop offset="1" stop-color="#5B2A85"/>
</linearGradient>
<clipPath id="clip0_3391_19286">
<rect width="38" height="38" fill="white" transform="translate(24.5 16)"/>
</clipPath>
</defs>
</svg>
