<svg width="528" height="415" viewBox="0 0 528 415" fill="none" xmlns="http://www.w3.org/2000/svg">
<g clip-path="url(#clip0_3506_30086)">
<path d="M-77.5706 -189V605M-39.4431 -189V605M-1.31481 -189V605M37.1417 -189V605M75.2692 -189V605M113.398 -189V605M151.526 -189V605M189.653 -189V605M228.11 -189V605M266.238 -189V605M304.366 -189V605M342.494 -189V605M380.95 -189V605M419.079 -189V605M457.206 -189V605M495.335 -189V605M533.462 -189V605M571.919 -189L571.919 605M610.044 -189V605M648.179 -189V605M-116 571.726H686M-116 533.405L686 533.406M-116 495.087H686M-116 456.768H686M-116 418.45H686M-116 380.131H686M-116 341.812H686M-116 303.494H686M-116 265.175H686M-116 226.857H686M-116 188.538H686M-116 150.22H686M-116 111.901H686M-116 73.5828H686M-116 35.2643H686M-116 -3.05424H686M-116 -41.3728H686M-116 -79.6913H686M-116 -118.01H686M-116 -156.328H686" stroke="url(#paint0_radial_3506_30086)"/>
<path d="M-77.5706 -189V605M-39.4431 -189V605M-1.31481 -189V605M37.1417 -189V605M75.2692 -189V605M113.398 -189V605M151.526 -189V605M189.653 -189V605M228.11 -189V605M266.238 -189V605M304.366 -189V605M342.494 -189V605M380.95 -189V605M419.079 -189V605M457.206 -189V605M495.335 -189V605M533.462 -189V605M571.919 -189L571.919 605M610.044 -189V605M648.179 -189V605M-116 571.726H686M-116 533.405L686 533.406M-116 495.087H686M-116 456.768H686M-116 418.45H686M-116 380.131H686M-116 341.812H686M-116 303.494H686M-116 265.175H686M-116 226.857H686M-116 188.538H686M-116 150.22H686M-116 111.901H686M-116 73.5828H686M-116 35.2643H686M-116 -3.05424H686M-116 -41.3728H686M-116 -79.6913H686M-116 -118.01H686M-116 -156.328H686" stroke="url(#paint1_radial_3506_30086)"/>
<path d="M-77.5706 -189V605M-39.4431 -189V605M-1.31481 -189V605M37.1417 -189V605M75.2692 -189V605M113.398 -189V605M151.526 -189V605M189.653 -189V605M228.11 -189V605M266.238 -189V605M304.366 -189V605M342.494 -189V605M380.95 -189V605M419.079 -189V605M457.206 -189V605M495.335 -189V605M533.462 -189V605M571.919 -189L571.919 605M610.044 -189V605M648.179 -189V605M-116 571.726H686M-116 533.405L686 533.406M-116 495.087H686M-116 456.768H686M-116 418.45H686M-116 380.131H686M-116 341.812H686M-116 303.494H686M-116 265.175H686M-116 226.857H686M-116 188.538H686M-116 150.22H686M-116 111.901H686M-116 73.5828H686M-116 35.2643H686M-116 -3.05424H686M-116 -41.3728H686M-116 -79.6913H686M-116 -118.01H686M-116 -156.328H686" stroke="url(#paint2_radial_3506_30086)"/>
<ellipse cx="275.5" cy="206.5" rx="502.5" ry="232.5" fill="url(#paint3_radial_3506_30086)" fill-opacity="0.4"/>
<rect x="38.05" y="119.83" width="455.904" height="144.205" rx="23" fill="#210E30"/>
<rect x="38.05" y="119.83" width="455.904" height="144.205" rx="23" fill="url(#paint4_linear_3506_30086)"/>
<rect x="38.05" y="119.83" width="455.904" height="144.205" rx="23" fill="url(#paint5_linear_3506_30086)" fill-opacity="0.24"/>
<rect x="38.55" y="120.33" width="454.904" height="143.205" rx="22.5" stroke="white" stroke-opacity="0.3"/>
<g filter="url(#filter0_f_3506_30086)">
<rect x="38.05" y="119.83" width="455.904" height="144.205" rx="23" fill="url(#paint6_linear_3506_30086)"/>
<rect x="38.55" y="120.33" width="454.904" height="143.205" rx="22.5" stroke="white" stroke-opacity="0.3"/>
</g>
<path d="M137.288 228.327C135.788 228.327 134.478 228.027 133.358 227.427C132.238 226.827 131.368 225.867 130.748 224.547C130.148 223.227 129.848 221.497 129.848 219.357V208.347H133.328V219.627C133.328 221.047 133.488 222.177 133.808 223.017C134.148 223.837 134.618 224.427 135.218 224.787C135.818 225.127 136.508 225.297 137.288 225.297C138.088 225.297 138.788 225.127 139.388 224.787C140.008 224.427 140.488 223.837 140.828 223.017C141.188 222.177 141.368 221.047 141.368 219.627V208.347H144.698V219.357C144.698 221.497 144.398 223.227 143.798 224.547C143.198 225.867 142.338 226.827 141.218 227.427C140.118 228.027 138.808 228.327 137.288 228.327ZM149.296 227.967V213.237H152.146L152.386 215.217H152.506C153.166 214.577 153.886 214.027 154.666 213.567C155.446 213.107 156.336 212.877 157.336 212.877C158.916 212.877 160.066 213.387 160.786 214.407C161.506 215.427 161.866 216.867 161.866 218.727V227.967H158.416V219.177C158.416 217.957 158.236 217.097 157.876 216.597C157.516 216.097 156.926 215.847 156.106 215.847C155.466 215.847 154.896 216.007 154.396 216.327C153.916 216.627 153.366 217.077 152.746 217.677V227.967H149.296ZM166.083 227.967V213.237H169.533V227.967H166.083ZM167.823 210.657C167.203 210.657 166.703 210.477 166.323 210.117C165.943 209.757 165.753 209.277 165.753 208.677C165.753 208.097 165.943 207.627 166.323 207.267C166.703 206.907 167.203 206.727 167.823 206.727C168.443 206.727 168.943 206.907 169.323 207.267C169.703 207.627 169.893 208.097 169.893 208.677C169.893 209.277 169.703 209.757 169.323 210.117C168.943 210.477 168.443 210.657 167.823 210.657ZM177.235 227.967L172.105 213.237H175.615L177.955 220.887C178.155 221.607 178.355 222.337 178.555 223.077C178.775 223.817 178.985 224.567 179.185 225.327H179.305C179.525 224.567 179.735 223.817 179.935 223.077C180.155 222.337 180.365 221.607 180.565 220.887L182.905 213.237H186.235L181.225 227.967H177.235ZM194.913 228.327C193.553 228.327 192.323 228.027 191.223 227.427C190.123 226.807 189.253 225.927 188.613 224.787C187.973 223.627 187.653 222.237 187.653 220.617C187.653 219.017 187.973 217.637 188.613 216.477C189.273 215.317 190.123 214.427 191.163 213.807C192.203 213.187 193.293 212.877 194.433 212.877C195.773 212.877 196.893 213.177 197.793 213.777C198.693 214.357 199.373 215.177 199.833 216.237C200.293 217.277 200.523 218.487 200.523 219.867C200.523 220.587 200.473 221.147 200.373 221.547H191.013C191.173 222.847 191.643 223.857 192.423 224.577C193.203 225.297 194.183 225.657 195.363 225.657C196.003 225.657 196.593 225.567 197.133 225.387C197.693 225.187 198.243 224.917 198.783 224.577L199.953 226.737C199.253 227.197 198.473 227.577 197.613 227.877C196.753 228.177 195.853 228.327 194.913 228.327ZM190.983 219.207H197.523C197.523 218.067 197.273 217.177 196.773 216.537C196.273 215.877 195.523 215.547 194.523 215.547C193.663 215.547 192.893 215.867 192.213 216.507C191.553 217.127 191.143 218.027 190.983 219.207ZM203.818 227.967V213.237H206.668L206.908 215.847H207.028C207.548 214.887 208.178 214.157 208.918 213.657C209.658 213.137 210.418 212.877 211.198 212.877C211.898 212.877 212.458 212.977 212.878 213.177L212.278 216.177C212.018 216.097 211.778 216.037 211.558 215.997C211.338 215.957 211.068 215.937 210.748 215.937C210.168 215.937 209.558 216.167 208.918 216.627C208.278 217.067 207.728 217.847 207.268 218.967V227.967H203.818ZM218.943 228.327C217.943 228.327 216.943 228.137 215.943 227.757C214.943 227.357 214.083 226.867 213.363 226.287L214.983 224.067C215.643 224.567 216.303 224.967 216.963 225.267C217.623 225.567 218.323 225.717 219.063 225.717C219.863 225.717 220.453 225.547 220.833 225.207C221.213 224.867 221.403 224.447 221.403 223.947C221.403 223.527 221.243 223.187 220.923 222.927C220.623 222.647 220.233 222.407 219.753 222.207C219.273 221.987 218.773 221.777 218.253 221.577C217.613 221.337 216.973 221.047 216.333 220.707C215.713 220.347 215.203 219.897 214.803 219.357C214.403 218.797 214.203 218.107 214.203 217.287C214.203 215.987 214.683 214.927 215.643 214.107C216.603 213.287 217.903 212.877 219.543 212.877C220.583 212.877 221.513 213.057 222.333 213.417C223.153 213.777 223.863 214.187 224.463 214.647L222.873 216.747C222.353 216.367 221.823 216.067 221.283 215.847C220.763 215.607 220.213 215.487 219.633 215.487C218.893 215.487 218.343 215.647 217.983 215.967C217.623 216.267 217.443 216.647 217.443 217.107C217.443 217.687 217.743 218.127 218.343 218.427C218.943 218.727 219.643 219.017 220.443 219.297C221.123 219.537 221.783 219.837 222.423 220.197C223.063 220.537 223.593 220.987 224.013 221.547C224.453 222.107 224.673 222.847 224.673 223.767C224.673 225.027 224.183 226.107 223.203 227.007C222.223 227.887 220.803 228.327 218.943 228.327ZM231.323 228.327C230.043 228.327 228.993 227.927 228.173 227.127C227.373 226.327 226.973 225.287 226.973 224.007C226.973 222.427 227.663 221.207 229.043 220.347C230.423 219.467 232.623 218.867 235.643 218.547C235.623 217.767 235.413 217.097 235.013 216.537C234.633 215.957 233.943 215.667 232.943 215.667C232.223 215.667 231.513 215.807 230.813 216.087C230.133 216.367 229.463 216.707 228.803 217.107L227.543 214.797C228.363 214.277 229.283 213.827 230.303 213.447C231.343 213.067 232.443 212.877 233.603 212.877C235.443 212.877 236.813 213.427 237.713 214.527C238.633 215.607 239.093 217.177 239.093 219.237V227.967H236.243L236.003 226.347H235.883C235.223 226.907 234.513 227.377 233.753 227.757C233.013 228.137 232.203 228.327 231.323 228.327ZM232.433 225.627C233.033 225.627 233.573 225.487 234.053 225.207C234.553 224.907 235.083 224.507 235.643 224.007V220.707C233.643 220.967 232.253 221.357 231.473 221.877C230.693 222.377 230.303 222.997 230.303 223.737C230.303 224.397 230.503 224.877 230.903 225.177C231.303 225.477 231.813 225.627 232.433 225.627ZM246.582 228.327C245.362 228.327 244.492 227.957 243.972 227.217C243.472 226.477 243.222 225.467 243.222 224.187V206.787H246.672V224.367C246.672 224.787 246.752 225.087 246.912 225.267C247.072 225.427 247.242 225.507 247.422 225.507C247.502 225.507 247.572 225.507 247.632 225.507C247.712 225.487 247.822 225.467 247.962 225.447L248.412 228.027C248.212 228.107 247.952 228.177 247.632 228.237C247.332 228.297 246.982 228.327 246.582 228.327ZM265.502 228.327C263.862 228.327 262.372 227.937 261.032 227.157C259.692 226.377 258.622 225.237 257.822 223.737C257.042 222.217 256.652 220.377 256.652 218.217C256.652 216.077 257.052 214.247 257.852 212.727C258.672 211.187 259.762 210.017 261.122 209.217C262.482 208.397 263.982 207.987 265.622 207.987C266.862 207.987 267.962 208.237 268.922 208.737C269.882 209.237 270.672 209.817 271.292 210.477L269.432 212.727C268.932 212.207 268.372 211.797 267.752 211.497C267.152 211.177 266.472 211.017 265.712 211.017C264.652 211.017 263.702 211.307 262.862 211.887C262.042 212.447 261.392 213.257 260.912 214.317C260.452 215.377 260.222 216.647 260.222 218.127C260.222 220.367 260.712 222.127 261.692 223.407C262.672 224.667 263.982 225.297 265.622 225.297C266.502 225.297 267.282 225.117 267.962 224.757C268.642 224.377 269.262 223.887 269.822 223.287L271.682 225.477C270.882 226.397 269.962 227.107 268.922 227.607C267.902 228.087 266.762 228.327 265.502 228.327ZM280.688 228.327C279.468 228.327 278.328 228.027 277.268 227.427C276.208 226.807 275.348 225.927 274.688 224.787C274.028 223.627 273.698 222.237 273.698 220.617C273.698 218.977 274.028 217.587 274.688 216.447C275.348 215.287 276.208 214.407 277.268 213.807C278.328 213.187 279.468 212.877 280.688 212.877C281.928 212.877 283.078 213.187 284.138 213.807C285.198 214.407 286.058 215.287 286.718 216.447C287.378 217.587 287.708 218.977 287.708 220.617C287.708 222.237 287.378 223.627 286.718 224.787C286.058 225.927 285.198 226.807 284.138 227.427C283.078 228.027 281.928 228.327 280.688 228.327ZM280.688 225.507C281.768 225.507 282.618 225.057 283.238 224.157C283.858 223.257 284.168 222.077 284.168 220.617C284.168 219.137 283.858 217.947 283.238 217.047C282.618 216.147 281.768 215.697 280.688 215.697C279.608 215.697 278.758 216.147 278.138 217.047C277.538 217.947 277.238 219.137 277.238 220.617C277.238 222.077 277.538 223.257 278.138 224.157C278.758 225.057 279.608 225.507 280.688 225.507ZM296.282 228.327C294.442 228.327 292.972 227.647 291.872 226.287C290.772 224.927 290.222 223.037 290.222 220.617C290.222 219.017 290.512 217.637 291.092 216.477C291.692 215.317 292.472 214.427 293.432 213.807C294.392 213.187 295.402 212.877 296.462 212.877C297.302 212.877 298.012 213.027 298.592 213.327C299.192 213.607 299.772 213.997 300.332 214.497L300.212 212.127V206.787H303.662V227.967H300.812L300.572 226.377H300.452C299.912 226.917 299.282 227.377 298.562 227.757C297.842 228.137 297.082 228.327 296.282 228.327ZM297.122 225.477C298.222 225.477 299.252 224.927 300.212 223.827V216.957C299.712 216.497 299.212 216.177 298.712 215.997C298.212 215.817 297.712 215.727 297.212 215.727C296.272 215.727 295.462 216.157 294.782 217.017C294.122 217.857 293.792 219.047 293.792 220.587C293.792 222.167 294.082 223.377 294.662 224.217C295.242 225.057 296.062 225.477 297.122 225.477ZM314.356 228.327C312.996 228.327 311.766 228.027 310.666 227.427C309.566 226.807 308.696 225.927 308.056 224.787C307.416 223.627 307.096 222.237 307.096 220.617C307.096 219.017 307.416 217.637 308.056 216.477C308.716 215.317 309.566 214.427 310.606 213.807C311.646 213.187 312.736 212.877 313.876 212.877C315.216 212.877 316.336 213.177 317.236 213.777C318.136 214.357 318.816 215.177 319.276 216.237C319.736 217.277 319.966 218.487 319.966 219.867C319.966 220.587 319.916 221.147 319.816 221.547H310.456C310.616 222.847 311.086 223.857 311.866 224.577C312.646 225.297 313.626 225.657 314.806 225.657C315.446 225.657 316.036 225.567 316.576 225.387C317.136 225.187 317.686 224.917 318.226 224.577L319.396 226.737C318.696 227.197 317.916 227.577 317.056 227.877C316.196 228.177 315.296 228.327 314.356 228.327ZM310.426 219.207H316.966C316.966 218.067 316.716 217.177 316.216 216.537C315.716 215.877 314.966 215.547 313.966 215.547C313.106 215.547 312.336 215.867 311.656 216.507C310.996 217.127 310.586 218.027 310.426 219.207ZM337.787 228.327C336.027 228.327 334.447 227.937 333.047 227.157C331.647 226.377 330.547 225.237 329.747 223.737C328.947 222.217 328.547 220.377 328.547 218.217C328.547 216.077 328.957 214.247 329.777 212.727C330.597 211.187 331.707 210.017 333.107 209.217C334.507 208.397 336.077 207.987 337.817 207.987C339.217 207.987 340.397 208.247 341.357 208.767C342.337 209.267 343.137 209.837 343.757 210.477L341.897 212.727C341.397 212.247 340.837 211.847 340.217 211.527C339.617 211.187 338.857 211.017 337.937 211.017C336.197 211.017 334.787 211.657 333.707 212.937C332.647 214.197 332.117 215.927 332.117 218.127C332.117 220.367 332.627 222.127 333.647 223.407C334.667 224.667 336.157 225.297 338.117 225.297C338.677 225.297 339.207 225.227 339.707 225.087C340.207 224.927 340.617 224.707 340.937 224.427V220.197H337.217V217.347H344.057V225.987C343.397 226.647 342.517 227.207 341.417 227.667C340.337 228.107 339.127 228.327 337.787 228.327ZM348.105 227.967V213.237H350.955L351.195 215.847H351.315C351.835 214.887 352.465 214.157 353.205 213.657C353.945 213.137 354.705 212.877 355.485 212.877C356.185 212.877 356.745 212.977 357.165 213.177L356.565 216.177C356.305 216.097 356.065 216.037 355.845 215.997C355.625 215.957 355.355 215.937 355.035 215.937C354.455 215.937 353.845 216.167 353.205 216.627C352.565 217.067 352.015 217.847 351.555 218.967V227.967H348.105ZM362.075 228.327C360.795 228.327 359.745 227.927 358.925 227.127C358.125 226.327 357.725 225.287 357.725 224.007C357.725 222.427 358.415 221.207 359.795 220.347C361.175 219.467 363.375 218.867 366.395 218.547C366.375 217.767 366.165 217.097 365.765 216.537C365.385 215.957 364.695 215.667 363.695 215.667C362.975 215.667 362.265 215.807 361.565 216.087C360.885 216.367 360.215 216.707 359.555 217.107L358.295 214.797C359.115 214.277 360.035 213.827 361.055 213.447C362.095 213.067 363.195 212.877 364.355 212.877C366.195 212.877 367.565 213.427 368.465 214.527C369.385 215.607 369.845 217.177 369.845 219.237V227.967H366.995L366.755 226.347H366.635C365.975 226.907 365.265 227.377 364.505 227.757C363.765 228.137 362.955 228.327 362.075 228.327ZM363.185 225.627C363.785 225.627 364.325 225.487 364.805 225.207C365.305 224.907 365.835 224.507 366.395 224.007V220.707C364.395 220.967 363.005 221.357 362.225 221.877C361.445 222.377 361.055 222.997 361.055 223.737C361.055 224.397 361.255 224.877 361.655 225.177C362.055 225.477 362.565 225.627 363.185 225.627ZM373.974 233.787V213.237H376.824L377.064 214.797H377.184C377.804 214.277 378.494 213.827 379.254 213.447C380.034 213.067 380.824 212.877 381.624 212.877C383.464 212.877 384.884 213.557 385.884 214.917C386.904 216.277 387.414 218.097 387.414 220.377C387.414 222.057 387.114 223.497 386.514 224.697C385.914 225.877 385.134 226.777 384.174 227.397C383.234 228.017 382.214 228.327 381.114 228.327C380.474 228.327 379.834 228.187 379.194 227.907C378.554 227.607 377.934 227.207 377.334 226.707L377.424 229.167V233.787H373.974ZM380.394 225.477C381.374 225.477 382.194 225.047 382.854 224.187C383.514 223.327 383.844 222.067 383.844 220.407C383.844 218.927 383.594 217.777 383.094 216.957C382.594 216.137 381.784 215.727 380.664 215.727C379.624 215.727 378.544 216.277 377.424 217.377V224.247C377.964 224.687 378.484 225.007 378.984 225.207C379.484 225.387 379.954 225.477 380.394 225.477ZM390.908 227.967V206.787H394.358V212.247L394.238 215.097C394.858 214.517 395.548 214.007 396.308 213.567C397.068 213.107 397.948 212.877 398.948 212.877C400.528 212.877 401.678 213.387 402.398 214.407C403.118 215.427 403.478 216.867 403.478 218.727V227.967H400.028V219.177C400.028 217.957 399.848 217.097 399.488 216.597C399.128 216.097 398.538 215.847 397.718 215.847C397.078 215.847 396.508 216.007 396.008 216.327C395.528 216.627 394.978 217.077 394.358 217.677V227.967H390.908Z" fill="white"/>
<g filter="url(#filter1_d_3506_30086)">
<rect x="38.05" y="278.377" width="223.026" height="42.0973" rx="15" fill="url(#paint7_linear_3506_30086)"/>
<rect x="38.55" y="278.877" width="222.026" height="41.0973" rx="14.5" stroke="white" stroke-opacity="0.3"/>
<path d="M134.254 306.659C133.161 306.659 132.167 306.399 131.274 305.879C130.381 305.359 129.667 304.599 129.134 303.599C128.614 302.586 128.354 301.359 128.354 299.919C128.354 298.493 128.621 297.273 129.154 296.259C129.701 295.233 130.427 294.453 131.334 293.919C132.241 293.373 133.241 293.099 134.334 293.099C135.161 293.099 135.894 293.266 136.534 293.599C137.174 293.933 137.701 294.319 138.114 294.759L136.874 296.259C136.541 295.913 136.167 295.639 135.754 295.439C135.354 295.226 134.901 295.119 134.394 295.119C133.687 295.119 133.054 295.313 132.494 295.699C131.947 296.073 131.514 296.613 131.194 297.319C130.887 298.026 130.734 298.873 130.734 299.859C130.734 301.353 131.061 302.526 131.714 303.379C132.367 304.219 133.241 304.639 134.334 304.639C134.921 304.639 135.441 304.519 135.894 304.279C136.347 304.026 136.761 303.699 137.134 303.299L138.374 304.759C137.841 305.373 137.227 305.846 136.534 306.179C135.854 306.499 135.094 306.659 134.254 306.659ZM144.377 306.659C143.564 306.659 142.804 306.459 142.097 306.059C141.391 305.646 140.817 305.059 140.377 304.299C139.937 303.526 139.717 302.599 139.717 301.519C139.717 300.426 139.937 299.499 140.377 298.739C140.817 297.966 141.391 297.379 142.097 296.979C142.804 296.566 143.564 296.359 144.377 296.359C145.204 296.359 145.971 296.566 146.677 296.979C147.384 297.379 147.957 297.966 148.397 298.739C148.837 299.499 149.057 300.426 149.057 301.519C149.057 302.599 148.837 303.526 148.397 304.299C147.957 305.059 147.384 305.646 146.677 306.059C145.971 306.459 145.204 306.659 144.377 306.659ZM144.377 304.779C145.097 304.779 145.664 304.479 146.077 303.879C146.491 303.279 146.697 302.493 146.697 301.519C146.697 300.533 146.491 299.739 146.077 299.139C145.664 298.539 145.097 298.239 144.377 298.239C143.657 298.239 143.091 298.539 142.677 299.139C142.277 299.739 142.077 300.533 142.077 301.519C142.077 302.493 142.277 303.279 142.677 303.879C143.091 304.479 143.657 304.779 144.377 304.779ZM154.774 306.659C153.547 306.659 152.567 306.206 151.834 305.299C151.101 304.393 150.734 303.133 150.734 301.519C150.734 300.453 150.927 299.533 151.314 298.759C151.714 297.986 152.234 297.393 152.874 296.979C153.514 296.566 154.187 296.359 154.894 296.359C155.454 296.359 155.927 296.459 156.314 296.659C156.714 296.846 157.101 297.106 157.474 297.439L157.394 295.859V292.299H159.694V306.419H157.794L157.634 305.359H157.554C157.194 305.719 156.774 306.026 156.294 306.279C155.814 306.533 155.307 306.659 154.774 306.659ZM155.334 304.759C156.067 304.759 156.754 304.393 157.394 303.659V299.079C157.061 298.773 156.727 298.559 156.394 298.439C156.061 298.319 155.727 298.259 155.394 298.259C154.767 298.259 154.227 298.546 153.774 299.119C153.334 299.679 153.114 300.473 153.114 301.499C153.114 302.553 153.307 303.359 153.694 303.919C154.081 304.479 154.627 304.759 155.334 304.759ZM166.823 306.659C165.916 306.659 165.096 306.459 164.363 306.059C163.63 305.646 163.05 305.059 162.623 304.299C162.196 303.526 161.983 302.599 161.983 301.519C161.983 300.453 162.196 299.533 162.623 298.759C163.063 297.986 163.63 297.393 164.323 296.979C165.016 296.566 165.743 296.359 166.503 296.359C167.396 296.359 168.143 296.559 168.743 296.959C169.343 297.346 169.796 297.893 170.103 298.599C170.41 299.293 170.563 300.099 170.563 301.019C170.563 301.499 170.53 301.873 170.463 302.139H164.223C164.33 303.006 164.643 303.679 165.163 304.159C165.683 304.639 166.336 304.879 167.123 304.879C167.55 304.879 167.943 304.819 168.303 304.699C168.676 304.566 169.043 304.386 169.403 304.159L170.183 305.599C169.716 305.906 169.196 306.159 168.623 306.359C168.05 306.559 167.45 306.659 166.823 306.659ZM164.203 300.579H168.563C168.563 299.819 168.396 299.226 168.063 298.799C167.73 298.359 167.23 298.139 166.563 298.139C165.99 298.139 165.476 298.353 165.023 298.779C164.583 299.193 164.31 299.793 164.203 300.579Z" fill="white"/>
</g>
<g filter="url(#filter2_d_3506_30086)">
<rect x="278.092" y="279.272" width="215.908" height="42.0973" rx="15" fill="url(#paint8_linear_3506_30086)"/>
<rect x="278.592" y="279.772" width="214.908" height="41.0973" rx="14.5" stroke="white" stroke-opacity="0.3"/>
<path d="M370.001 307.313V294.233H372.321V305.353H377.761V307.313H370.001ZM380.04 307.313V294.233H382.36V305.353H387.8V307.313H380.04ZM390.079 307.313V294.233H392.699L395.019 300.633C395.166 301.047 395.306 301.473 395.439 301.913C395.586 302.34 395.726 302.767 395.859 303.193H395.939C396.086 302.767 396.226 302.34 396.359 301.913C396.492 301.473 396.626 301.047 396.759 300.633L399.019 294.233H401.659V307.313H399.519V301.333C399.519 300.92 399.532 300.473 399.559 299.993C399.599 299.5 399.639 299.007 399.679 298.513C399.732 298.02 399.779 297.573 399.819 297.173H399.739L398.679 300.213L396.539 306.093H395.159L392.999 300.213L391.959 297.173H391.879C391.919 297.573 391.959 298.02 391.999 298.513C392.052 299.007 392.092 299.5 392.119 299.993C392.159 300.473 392.179 300.92 392.179 301.333V307.313H390.079Z" fill="white"/>
</g>
<g filter="url(#filter3_d_3506_30086)">
<rect x="64.9248" y="101.923" width="191.677" height="77.0291" rx="11" fill="url(#paint9_radial_3506_30086)" fill-opacity="0.9" shape-rendering="crispEdges"/>
<rect x="65.4248" y="102.423" width="190.677" height="76.0291" rx="10.5" stroke="url(#paint10_linear_3506_30086)" stroke-opacity="0.4" shape-rendering="crispEdges"/>
</g>
<path d="M156.56 147.672C155.148 147.672 153.864 147.337 152.71 146.666C151.555 145.995 150.634 145.014 149.944 143.723C149.272 142.416 148.937 140.833 148.937 138.975C148.937 137.133 149.281 135.559 149.97 134.251C150.677 132.927 151.616 131.92 152.787 131.232C153.959 130.526 155.251 130.173 156.664 130.173C157.732 130.173 158.68 130.389 159.507 130.819C160.334 131.249 161.014 131.748 161.548 132.316L159.946 134.251C159.515 133.804 159.033 133.451 158.499 133.193C157.982 132.918 157.396 132.78 156.741 132.78C155.828 132.78 155.01 133.03 154.286 133.529C153.58 134.011 153.02 134.707 152.606 135.619C152.21 136.531 152.012 137.624 152.012 138.897C152.012 140.824 152.434 142.338 153.278 143.44C154.122 144.524 155.251 145.066 156.664 145.066C157.422 145.066 158.094 144.911 158.68 144.601C159.265 144.274 159.799 143.853 160.282 143.336L161.884 145.22C161.195 146.012 160.402 146.623 159.507 147.053C158.628 147.466 157.646 147.672 156.56 147.672Z" fill="white"/>
<path d="M168.802 147.672C167.751 147.672 166.769 147.414 165.856 146.898C164.942 146.365 164.202 145.608 163.633 144.627C163.065 143.629 162.78 142.433 162.78 141.039C162.78 139.628 163.065 138.433 163.633 137.452C164.202 136.454 164.942 135.697 165.856 135.181C166.769 134.647 167.751 134.38 168.802 134.38C169.87 134.38 170.861 134.647 171.774 135.181C172.687 135.697 173.428 136.454 173.996 137.452C174.565 138.433 174.849 139.628 174.849 141.039C174.849 142.433 174.565 143.629 173.996 144.627C173.428 145.608 172.687 146.365 171.774 146.898C170.861 147.414 169.87 147.672 168.802 147.672ZM168.802 145.246C169.732 145.246 170.464 144.859 170.998 144.085C171.533 143.311 171.8 142.295 171.8 141.039C171.8 139.766 171.533 138.742 170.998 137.968C170.464 137.194 169.732 136.807 168.802 136.807C167.871 136.807 167.139 137.194 166.605 137.968C166.088 138.742 165.83 139.766 165.83 141.039C165.83 142.295 166.088 143.311 166.605 144.085C167.139 144.859 167.871 145.246 168.802 145.246Z" fill="white"/>
<path d="M181.461 147.672C179.876 147.672 178.609 147.087 177.662 145.917C176.714 144.747 176.24 143.121 176.24 141.039C176.24 139.663 176.49 138.476 176.99 137.478C177.507 136.48 178.179 135.714 179.006 135.181C179.833 134.647 180.703 134.38 181.616 134.38C182.339 134.38 182.951 134.509 183.451 134.768C183.968 135.008 184.467 135.344 184.95 135.774L184.846 133.735V129.141H187.818V147.363H185.363L185.156 145.995H185.053C184.588 146.459 184.045 146.855 183.425 147.182C182.805 147.509 182.15 147.672 181.461 147.672ZM182.184 145.22C183.132 145.22 184.019 144.747 184.846 143.801V137.891C184.416 137.495 183.985 137.219 183.554 137.065C183.123 136.91 182.693 136.832 182.262 136.832C181.452 136.832 180.754 137.202 180.169 137.942C179.6 138.665 179.316 139.689 179.316 141.013C179.316 142.373 179.566 143.414 180.065 144.136C180.565 144.859 181.271 145.22 182.184 145.22Z" fill="white"/>
<path d="M191.681 152.576C191.336 152.576 191.035 152.55 190.776 152.499C190.518 152.447 190.268 152.387 190.027 152.318L190.569 149.995C190.69 150.03 190.828 150.064 190.983 150.098C191.155 150.15 191.319 150.176 191.474 150.176C192.146 150.176 192.68 149.969 193.076 149.556C193.49 149.161 193.8 148.644 194.007 148.008L194.239 147.208L189.251 134.69H192.275L194.472 140.91C194.661 141.461 194.842 142.046 195.014 142.665C195.204 143.268 195.394 143.87 195.583 144.472H195.686C195.841 143.887 195.997 143.293 196.152 142.691C196.324 142.072 196.488 141.478 196.643 140.91L198.555 134.69H201.424L196.824 147.93C196.289 149.359 195.643 150.486 194.885 151.311C194.127 152.155 193.059 152.576 191.681 152.576Z" fill="white"/>
<path fill-rule="evenodd" clip-rule="evenodd" d="M136.168 130.195C137.23 130.195 138.091 131.11 138.091 132.239L138.091 136.895C138.091 138.024 137.23 138.939 136.168 138.939C135.105 138.939 134.244 138.024 134.244 136.895L134.244 132.239C134.244 131.11 135.105 130.195 136.168 130.195Z" fill="#FF5543"/>
<path fill-rule="evenodd" clip-rule="evenodd" d="M120.951 135.44C120.951 134.281 121.865 133.341 122.994 133.341H127.653C128.781 133.341 129.695 134.281 129.695 135.44C129.695 136.599 128.781 137.538 127.653 137.538H122.994C121.865 137.538 120.951 136.599 120.951 135.44Z" fill="#A112FF"/>
<path fill-rule="evenodd" clip-rule="evenodd" d="M123.264 142.875C122.577 141.995 121.289 141.82 120.381 142.485C119.468 143.153 119.284 144.416 119.97 145.306L121.621 144.096C119.97 145.306 119.97 145.307 119.971 145.308L119.972 145.309L119.975 145.313L119.981 145.321C119.986 145.327 119.991 145.334 119.997 145.342C120.01 145.357 120.025 145.377 120.044 145.4C120.082 145.446 120.133 145.506 120.196 145.579C120.324 145.724 120.503 145.918 120.735 146.145C121.197 146.598 121.874 147.188 122.767 147.775C124.56 148.953 127.236 150.126 130.748 150.126C134.26 150.126 136.937 148.953 138.729 147.775C139.622 147.188 140.3 146.598 140.762 146.145C140.994 145.918 141.173 145.724 141.3 145.579C141.364 145.506 141.414 145.446 141.452 145.4C141.471 145.377 141.487 145.357 141.499 145.342C141.505 145.334 141.511 145.327 141.516 145.321L141.522 145.313L141.525 145.309L141.526 145.308C141.526 145.307 141.527 145.306 139.875 144.096L141.527 145.306C142.212 144.416 142.028 143.153 141.116 142.485C140.208 141.82 138.92 141.995 138.233 142.875C138.231 142.876 138.229 142.879 138.226 142.883C138.216 142.895 138.194 142.921 138.162 142.959C138.096 143.033 137.987 143.153 137.834 143.302C137.528 143.602 137.056 144.016 136.421 144.433C135.159 145.262 133.272 146.096 130.748 146.096C128.225 146.096 126.338 145.262 125.075 144.433C124.441 144.016 123.968 143.602 123.662 143.302C123.51 143.153 123.4 143.033 123.335 142.959C123.302 142.921 123.281 142.895 123.27 142.883C123.267 142.879 123.265 142.876 123.264 142.875ZM138.226 142.883L138.226 142.883L138.226 142.884M138.234 142.874L138.234 142.874L138.234 142.874Z" fill="#00CBEC"/>
<g filter="url(#filter4_d_3506_30086)">
<rect x="278.092" y="101.923" width="191.677" height="77.0291" rx="11" fill="url(#paint11_radial_3506_30086)" fill-opacity="0.9" shape-rendering="crispEdges"/>
<rect x="278.592" y="102.423" width="190.677" height="76.0291" rx="10.5" stroke="url(#paint12_linear_3506_30086)" stroke-opacity="0.4" shape-rendering="crispEdges"/>
</g>
<path d="M334.316 149.34C333.005 149.34 331.813 149.028 330.741 148.404C329.67 147.781 328.814 146.869 328.174 145.669C327.55 144.454 327.238 142.982 327.238 141.255C327.238 139.543 327.558 138.079 328.198 136.864C328.854 135.632 329.726 134.697 330.813 134.057C331.901 133.401 333.101 133.073 334.412 133.073C335.404 133.073 336.284 133.273 337.051 133.673C337.819 134.073 338.451 134.537 338.947 135.064L337.459 136.864C337.059 136.448 336.611 136.12 336.116 135.88C335.636 135.624 335.092 135.496 334.484 135.496C333.636 135.496 332.877 135.728 332.205 136.192C331.549 136.64 331.029 137.288 330.645 138.135C330.277 138.983 330.093 139.999 330.093 141.183C330.093 142.974 330.485 144.382 331.269 145.405C332.053 146.413 333.101 146.917 334.412 146.917C335.116 146.917 335.74 146.773 336.284 146.485C336.827 146.181 337.323 145.789 337.771 145.309L339.259 147.061C338.619 147.797 337.883 148.364 337.051 148.764C336.236 149.148 335.324 149.34 334.316 149.34Z" fill="white"/>
<path d="M345.681 149.34C344.705 149.34 343.793 149.1 342.946 148.62C342.098 148.124 341.41 147.421 340.882 146.509C340.354 145.581 340.091 144.47 340.091 143.174C340.091 141.862 340.354 140.751 340.882 139.839C341.41 138.911 342.098 138.207 342.946 137.728C343.793 137.232 344.705 136.984 345.681 136.984C346.673 136.984 347.592 137.232 348.44 137.728C349.288 138.207 349.976 138.911 350.503 139.839C351.031 140.751 351.295 141.862 351.295 143.174C351.295 144.47 351.031 145.581 350.503 146.509C349.976 147.421 349.288 148.124 348.44 148.62C347.592 149.1 346.673 149.34 345.681 149.34ZM345.681 147.085C346.545 147.085 347.224 146.725 347.72 146.005C348.216 145.285 348.464 144.342 348.464 143.174C348.464 141.99 348.216 141.039 347.72 140.319C347.224 139.599 346.545 139.239 345.681 139.239C344.817 139.239 344.137 139.599 343.641 140.319C343.162 141.039 342.922 141.99 342.922 143.174C342.922 144.342 343.162 145.285 343.641 146.005C344.137 146.725 344.817 147.085 345.681 147.085Z" fill="white"/>
<path d="M357.373 149.34C355.902 149.34 354.726 148.796 353.846 147.709C352.967 146.621 352.527 145.109 352.527 143.174C352.527 141.894 352.759 140.791 353.222 139.863C353.702 138.935 354.326 138.223 355.094 137.728C355.862 137.232 356.669 136.984 357.517 136.984C358.189 136.984 358.757 137.104 359.221 137.344C359.701 137.568 360.164 137.88 360.612 138.279L360.516 136.384V132.113H363.275V149.052H360.996L360.804 147.781H360.708C360.276 148.212 359.773 148.58 359.197 148.884C358.621 149.188 358.013 149.34 357.373 149.34ZM358.045 147.061C358.925 147.061 359.749 146.621 360.516 145.741V140.247C360.116 139.879 359.717 139.623 359.317 139.479C358.917 139.335 358.517 139.263 358.117 139.263C357.365 139.263 356.717 139.607 356.174 140.295C355.646 140.967 355.382 141.918 355.382 143.15C355.382 144.414 355.614 145.381 356.078 146.053C356.541 146.725 357.197 147.061 358.045 147.061Z" fill="white"/>
<path d="M371.048 149.34C369.96 149.34 368.977 149.1 368.097 148.62C367.217 148.124 366.521 147.421 366.01 146.509C365.498 145.581 365.242 144.47 365.242 143.174C365.242 141.894 365.498 140.791 366.01 139.863C366.537 138.935 367.217 138.223 368.049 137.728C368.881 137.232 369.752 136.984 370.664 136.984C371.736 136.984 372.632 137.224 373.351 137.704C374.071 138.167 374.615 138.823 374.983 139.671C375.351 140.503 375.535 141.47 375.535 142.574C375.535 143.15 375.495 143.598 375.415 143.918H367.929C368.057 144.957 368.433 145.765 369.057 146.341C369.68 146.917 370.464 147.205 371.408 147.205C371.92 147.205 372.392 147.133 372.823 146.989C373.271 146.829 373.711 146.613 374.143 146.341L375.079 148.069C374.519 148.436 373.895 148.74 373.207 148.98C372.52 149.22 371.8 149.34 371.048 149.34ZM367.905 142.046H373.135C373.135 141.135 372.935 140.423 372.536 139.911C372.136 139.383 371.536 139.119 370.736 139.119C370.048 139.119 369.432 139.375 368.889 139.887C368.361 140.383 368.033 141.103 367.905 142.046Z" fill="white"/>
<path d="M386.236 149.34C385.181 149.34 384.157 149.14 383.165 148.74C382.189 148.34 381.326 147.773 380.574 147.037L382.205 145.141C382.765 145.669 383.405 146.101 384.125 146.437C384.845 146.757 385.564 146.917 386.284 146.917C387.18 146.917 387.86 146.733 388.324 146.365C388.787 145.997 389.019 145.509 389.019 144.901C389.019 144.246 388.787 143.774 388.324 143.486C387.876 143.198 387.3 142.902 386.596 142.598L384.437 141.662C383.925 141.438 383.421 141.151 382.925 140.799C382.445 140.447 382.045 139.999 381.726 139.455C381.422 138.911 381.27 138.255 381.27 137.488C381.27 136.656 381.494 135.912 381.941 135.256C382.405 134.585 383.029 134.057 383.813 133.673C384.613 133.273 385.524 133.073 386.548 133.073C387.46 133.073 388.34 133.257 389.187 133.625C390.035 133.977 390.763 134.457 391.371 135.064L389.955 136.84C389.459 136.424 388.931 136.096 388.372 135.856C387.828 135.616 387.22 135.496 386.548 135.496C385.812 135.496 385.213 135.664 384.749 136C384.301 136.32 384.077 136.768 384.077 137.344C384.077 137.744 384.189 138.079 384.413 138.351C384.653 138.607 384.965 138.831 385.348 139.023C385.732 139.199 386.14 139.375 386.572 139.551L388.707 140.439C389.635 140.839 390.395 141.367 390.987 142.022C391.579 142.662 391.875 143.55 391.875 144.686C391.875 145.533 391.651 146.309 391.203 147.013C390.755 147.717 390.107 148.284 389.259 148.716C388.428 149.132 387.42 149.34 386.236 149.34Z" fill="white"/>
<path d="M398.747 149.34C397.659 149.34 396.675 149.1 395.795 148.62C394.916 148.124 394.22 147.421 393.708 146.509C393.196 145.581 392.94 144.47 392.94 143.174C392.94 141.894 393.196 140.791 393.708 139.863C394.236 138.935 394.916 138.223 395.747 137.728C396.579 137.232 397.451 136.984 398.363 136.984C399.434 136.984 400.33 137.224 401.05 137.704C401.77 138.167 402.313 138.823 402.681 139.671C403.049 140.503 403.233 141.47 403.233 142.574C403.233 143.15 403.193 143.598 403.113 143.918H395.628C395.755 144.957 396.131 145.765 396.755 146.341C397.379 146.917 398.163 147.205 399.106 147.205C399.618 147.205 400.09 147.133 400.522 146.989C400.97 146.829 401.41 146.613 401.842 146.341L402.777 148.069C402.218 148.436 401.594 148.74 400.906 148.98C400.218 149.22 399.498 149.34 398.747 149.34ZM395.604 142.046H400.834C400.834 141.135 400.634 140.423 400.234 139.911C399.834 139.383 399.234 139.119 398.435 139.119C397.747 139.119 397.131 139.375 396.587 139.887C396.059 140.383 395.731 141.103 395.604 142.046Z" fill="white"/>
<path d="M407.663 149.34C406.639 149.34 405.799 149.02 405.143 148.38C404.504 147.741 404.184 146.909 404.184 145.885C404.184 144.622 404.736 143.646 405.839 142.958C406.943 142.254 408.702 141.774 411.118 141.518C411.102 140.895 410.934 140.359 410.614 139.911C410.31 139.447 409.758 139.215 408.958 139.215C408.382 139.215 407.815 139.327 407.255 139.551C406.711 139.775 406.175 140.047 405.647 140.367L404.64 138.519C405.295 138.103 406.031 137.744 406.847 137.44C407.679 137.136 408.558 136.984 409.486 136.984C410.958 136.984 412.053 137.424 412.773 138.303C413.509 139.167 413.877 140.423 413.877 142.07V149.052H411.598L411.406 147.757H411.31C410.782 148.204 410.214 148.58 409.606 148.884C409.014 149.188 408.366 149.34 407.663 149.34ZM408.55 147.181C409.03 147.181 409.462 147.069 409.846 146.845C410.246 146.605 410.67 146.285 411.118 145.885V143.246C409.518 143.454 408.406 143.766 407.783 144.182C407.159 144.582 406.847 145.077 406.847 145.669C406.847 146.197 407.007 146.581 407.327 146.821C407.647 147.061 408.055 147.181 408.55 147.181Z" fill="white"/>
<path d="M416.399 149.052V137.272H418.678L418.87 139.359H418.966C419.382 138.591 419.886 138.008 420.478 137.608C421.07 137.192 421.677 136.984 422.301 136.984C422.861 136.984 423.309 137.064 423.645 137.224L423.165 139.623C422.957 139.559 422.765 139.511 422.589 139.479C422.413 139.447 422.197 139.431 421.941 139.431C421.478 139.431 420.99 139.615 420.478 139.983C419.966 140.335 419.526 140.959 419.158 141.854V149.052H416.399Z" fill="white"/>
<path d="M429.254 149.34C428.182 149.34 427.215 149.1 426.351 148.62C425.503 148.124 424.823 147.421 424.311 146.509C423.816 145.581 423.568 144.47 423.568 143.174C423.568 141.862 423.84 140.751 424.383 139.839C424.927 138.911 425.647 138.207 426.543 137.728C427.455 137.232 428.43 136.984 429.47 136.984C430.222 136.984 430.877 137.112 431.437 137.368C431.997 137.624 432.493 137.936 432.925 138.303L431.581 140.103C431.277 139.831 430.965 139.623 430.646 139.479C430.326 139.319 429.982 139.239 429.614 139.239C428.67 139.239 427.894 139.599 427.287 140.319C426.695 141.039 426.399 141.99 426.399 143.174C426.399 144.342 426.687 145.285 427.263 146.005C427.854 146.725 428.614 147.085 429.542 147.085C430.006 147.085 430.438 146.989 430.838 146.797C431.253 146.589 431.629 146.349 431.965 146.077L433.093 147.901C432.549 148.38 431.941 148.74 431.269 148.98C430.598 149.22 429.926 149.34 429.254 149.34Z" fill="white"/>
<path d="M434.638 149.052V132.113H437.397V136.48L437.301 138.759C437.797 138.295 438.349 137.888 438.957 137.536C439.565 137.168 440.269 136.984 441.068 136.984C442.332 136.984 443.252 137.392 443.828 138.207C444.403 139.023 444.691 140.175 444.691 141.662V149.052H441.932V142.022C441.932 141.047 441.788 140.359 441.5 139.959C441.212 139.559 440.74 139.359 440.085 139.359C439.573 139.359 439.117 139.487 438.717 139.743C438.333 139.983 437.893 140.343 437.397 140.823V149.052H434.638Z" fill="white"/>
<path fill-rule="evenodd" clip-rule="evenodd" d="M315.371 148.443C313.839 149.545 311.958 150.194 309.927 150.194C304.771 150.194 300.592 146.015 300.592 140.86C300.592 135.705 304.771 131.526 309.927 131.526C315.082 131.526 319.261 135.705 319.261 140.86C319.261 142.551 318.811 144.137 318.025 145.505L321.053 148.534C321.825 149.306 321.825 150.557 321.053 151.329C320.281 152.101 319.029 152.101 318.257 151.329L315.371 148.443ZM317.849 140.86C317.849 145.235 314.302 148.782 309.927 148.782C305.551 148.782 302.004 145.235 302.004 140.86C302.004 136.485 305.551 132.938 309.927 132.938C314.302 132.938 317.849 136.485 317.849 140.86Z" fill="white"/>
<path fill-rule="evenodd" clip-rule="evenodd" d="M305.821 137.884C305.821 137.416 306.2 137.036 306.668 137.036H313.163C313.631 137.036 314.011 137.416 314.011 137.884C314.011 138.352 313.631 138.731 313.163 138.731H306.668C306.2 138.731 305.821 138.352 305.821 137.884Z" fill="#A112FF"/>
<path fill-rule="evenodd" clip-rule="evenodd" d="M305.821 140.698C305.821 140.23 306.2 139.85 306.668 139.85H313.163C313.631 139.85 314.011 140.23 314.011 140.698C314.011 141.166 313.631 141.545 313.163 141.545H306.668C306.2 141.545 305.821 141.166 305.821 140.698Z" fill="#FF5543"/>
<path fill-rule="evenodd" clip-rule="evenodd" d="M305.821 143.673C305.821 143.205 306.2 142.826 306.668 142.826H313.163C313.631 142.826 314.011 143.205 314.011 143.673C314.011 144.141 313.631 144.52 313.163 144.52H306.668C306.2 144.52 305.821 144.141 305.821 143.673Z" fill="#00CBEC"/>
</g>
<defs>
<filter id="filter0_f_3506_30086" x="33.05" y="114.83" width="465.904" height="154.206" filterUnits="userSpaceOnUse" color-interpolation-filters="sRGB">
<feFlood flood-opacity="0" result="BackgroundImageFix"/>
<feBlend mode="normal" in="SourceGraphic" in2="BackgroundImageFix" result="shape"/>
<feGaussianBlur stdDeviation="2.5" result="effect1_foregroundBlur_3506_30086"/>
</filter>
<filter id="filter1_d_3506_30086" x="34.05" y="278.377" width="231.026" height="50.0972" filterUnits="userSpaceOnUse" color-interpolation-filters="sRGB">
<feFlood flood-opacity="0" result="BackgroundImageFix"/>
<feColorMatrix in="SourceAlpha" type="matrix" values="0 0 0 0 0 0 0 0 0 0 0 0 0 0 0 0 0 0 127 0" result="hardAlpha"/>
<feOffset dy="4"/>
<feGaussianBlur stdDeviation="2"/>
<feComposite in2="hardAlpha" operator="out"/>
<feColorMatrix type="matrix" values="0 0 0 0 0 0 0 0 0 0 0 0 0 0 0 0 0 0 0.25 0"/>
<feBlend mode="normal" in2="BackgroundImageFix" result="effect1_dropShadow_3506_30086"/>
<feBlend mode="normal" in="SourceGraphic" in2="effect1_dropShadow_3506_30086" result="shape"/>
</filter>
<filter id="filter2_d_3506_30086" x="274.092" y="279.272" width="223.908" height="50.0972" filterUnits="userSpaceOnUse" color-interpolation-filters="sRGB">
<feFlood flood-opacity="0" result="BackgroundImageFix"/>
<feColorMatrix in="SourceAlpha" type="matrix" values="0 0 0 0 0 0 0 0 0 0 0 0 0 0 0 0 0 0 127 0" result="hardAlpha"/>
<feOffset dy="4"/>
<feGaussianBlur stdDeviation="2"/>
<feComposite in2="hardAlpha" operator="out"/>
<feColorMatrix type="matrix" values="0 0 0 0 0 0 0 0 0 0 0 0 0 0 0 0 0 0 0.25 0"/>
<feBlend mode="normal" in2="BackgroundImageFix" result="effect1_dropShadow_3506_30086"/>
<feBlend mode="normal" in="SourceGraphic" in2="effect1_dropShadow_3506_30086" result="shape"/>
</filter>
<filter id="filter3_d_3506_30086" x="40.9248" y="81.923" width="243.677" height="129.029" filterUnits="userSpaceOnUse" color-interpolation-filters="sRGB">
<feFlood flood-opacity="0" result="BackgroundImageFix"/>
<feColorMatrix in="SourceAlpha" type="matrix" values="0 0 0 0 0 0 0 0 0 0 0 0 0 0 0 0 0 0 127 0" result="hardAlpha"/>
<feOffset dx="2" dy="6"/>
<feGaussianBlur stdDeviation="13"/>
<feComposite in2="hardAlpha" operator="out"/>
<feColorMatrix type="matrix" values="0 0 0 0 0 0 0 0 0 0 0 0 0 0 0 0 0 0 0.65 0"/>
<feBlend mode="normal" in2="BackgroundImageFix" result="effect1_dropShadow_3506_30086"/>
<feBlend mode="normal" in="SourceGraphic" in2="effect1_dropShadow_3506_30086" result="shape"/>
</filter>
<filter id="filter4_d_3506_30086" x="254.092" y="81.923" width="243.677" height="129.029" filterUnits="userSpaceOnUse" color-interpolation-filters="sRGB">
<feFlood flood-opacity="0" result="BackgroundImageFix"/>
<feColorMatrix in="SourceAlpha" type="matrix" values="0 0 0 0 0 0 0 0 0 0 0 0 0 0 0 0 0 0 127 0" result="hardAlpha"/>
<feOffset dx="2" dy="6"/>
<feGaussianBlur stdDeviation="13"/>
<feComposite in2="hardAlpha" operator="out"/>
<feColorMatrix type="matrix" values="0 0 0 0 0 0 0 0 0 0 0 0 0 0 0 0 0 0 0.65 0"/>
<feBlend mode="normal" in2="BackgroundImageFix" result="effect1_dropShadow_3506_30086"/>
<feBlend mode="normal" in="SourceGraphic" in2="effect1_dropShadow_3506_30086" result="shape"/>
</filter>
<radialGradient id="paint0_radial_3506_30086" cx="0" cy="0" r="1" gradientUnits="userSpaceOnUse" gradientTransform="translate(452.5 247) rotate(77.7418) scale(183.688 185.539)">
<stop stop-color="#FF5543"/>
<stop offset="0.989583" stop-color="#270741" stop-opacity="0"/>
</radialGradient>
<radialGradient id="paint1_radial_3506_30086" cx="0" cy="0" r="1" gradientUnits="userSpaceOnUse" gradientTransform="translate(277.5 208) rotate(74.2548) scale(235.85 300.456)">
<stop stop-color="#A112FF"/>
<stop offset="0.989583" stop-color="#270741" stop-opacity="0"/>
</radialGradient>
<radialGradient id="paint2_radial_3506_30086" cx="0" cy="0" r="1" gradientUnits="userSpaceOnUse" gradientTransform="translate(128 199.5) rotate(72.8776) scale(213.984 216.14)">
<stop stop-color="#00CBEC"/>
<stop offset="0.989583" stop-color="#270741" stop-opacity="0"/>
</radialGradient>
<radialGradient id="paint3_radial_3506_30086" cx="0" cy="0" r="1" gradientUnits="userSpaceOnUse" gradientTransform="translate(275.5 206.5) rotate(90.1387) scale(206.501 427.227)">
<stop stop-color="#A112FF" stop-opacity="0.81"/>
<stop offset="0.885417" stop-color="#A112FF" stop-opacity="0"/>
</radialGradient>
<linearGradient id="paint4_linear_3506_30086" x1="254.312" y1="297.6" x2="260.607" y2="95.7136" gradientUnits="userSpaceOnUse">
<stop stop-color="#15171E" stop-opacity="0"/>
<stop offset="0.877552" stop-color="#343A4D" stop-opacity="0.49"/>
</linearGradient>
<linearGradient id="paint5_linear_3506_30086" x1="56.7538" y1="291.385" x2="344.376" y2="-20.791" gradientUnits="userSpaceOnUse">
<stop stop-color="#A112FF"/>
<stop offset="1" stop-color="#00CBEC"/>
</linearGradient>
<linearGradient id="paint6_linear_3506_30086" x1="45.064" y1="251.604" x2="419.483" y2="46.2233" gradientUnits="userSpaceOnUse">
<stop stop-color="#00CBEC"/>
<stop offset="0.244792" stop-color="#6952F8"/>
<stop offset="0.453125" stop-color="#A112FF"/>
<stop offset="0.5625" stop-color="#B621D6"/>
<stop offset="1" stop-color="#FF5543"/>
</linearGradient>
<linearGradient id="paint7_linear_3506_30086" x1="149.563" y1="278.377" x2="149.563" y2="320.474" gradientUnits="userSpaceOnUse">
<stop stop-color="#A6B6D9" stop-opacity="0.28"/>
<stop offset="1" stop-color="#6112A3" stop-opacity="0.44"/>
</linearGradient>
<linearGradient id="paint8_linear_3506_30086" x1="386.046" y1="279.272" x2="386.046" y2="321.369" gradientUnits="userSpaceOnUse">
<stop stop-color="#A6B6D9" stop-opacity="0.28"/>
<stop offset="1" stop-color="#6112A3" stop-opacity="0.44"/>
</linearGradient>
<radialGradient id="paint9_radial_3506_30086" cx="0" cy="0" r="1" gradientUnits="userSpaceOnUse" gradientTransform="translate(164.757 178.952) rotate(-95.5549) scale(103.133 224.165)">
<stop offset="0.145833" stop-color="#1E0632"/>
<stop offset="0.540416" stop-color="#270741"/>
<stop offset="0.979167" stop-color="#6112A3"/>
</radialGradient>
<linearGradient id="paint10_linear_3506_30086" x1="38.5021" y1="178.952" x2="271.38" y2="121.628" gradientUnits="userSpaceOnUse">
<stop stop-color="white"/>
<stop offset="1" stop-color="white"/>
</linearGradient>
<radialGradient id="paint11_radial_3506_30086" cx="0" cy="0" r="1" gradientUnits="userSpaceOnUse" gradientTransform="translate(377.924 178.952) rotate(-95.5549) scale(103.133 224.165)">
<stop offset="0.145833" stop-color="#1E0632"/>
<stop offset="0.540416" stop-color="#270741"/>
<stop offset="0.979167" stop-color="#6112A3"/>
</radialGradient>
<linearGradient id="paint12_linear_3506_30086" x1="251.669" y1="178.952" x2="484.548" y2="121.628" gradientUnits="userSpaceOnUse">
<stop stop-color="white"/>
<stop offset="1" stop-color="white"/>
</linearGradient>
<clipPath id="clip0_3506_30086">
<rect width="528" height="415" fill="white"/>
</clipPath>
</defs>
</svg>
