<svg width="859" height="462" viewBox="0 0 859 462" fill="none" xmlns="http://www.w3.org/2000/svg">
<g clip-path="url(#clip0_2007_16749)">
<path d="M85.9294 -167.806V626.194M124.057 -167.806V626.194M162.185 -167.806V626.194M200.642 -167.806V626.194M238.769 -167.806V626.194M276.898 -167.806V626.194M315.026 -167.806V626.194M353.153 -167.806V626.194M391.61 -167.806V626.194M429.738 -167.806V626.194M467.866 -167.806V626.194M505.994 -167.806V626.194M544.45 -167.806V626.194M582.579 -167.806V626.194M620.706 -167.806V626.194M658.835 -167.806V626.194M696.962 -167.806V626.194M735.419 -167.806L735.419 626.194M773.544 -167.806V626.194M811.679 -167.806V626.194M47.5 592.92H849.5M47.5 554.599L849.5 554.6M47.5 516.281H849.5M47.5 477.962H849.5M47.5 439.644H849.5M47.5 401.325H849.5M47.5 363.007H849.5M47.5 324.688H849.5M47.5 286.37H849.5M47.5 248.051H849.5M47.5 209.733H849.5M47.5 171.414H849.5M47.5 133.096H849.5M47.5 94.777H849.5M47.5 56.4585H849.5M47.5 18.14H849.5M47.5 -20.1786H849.5M47.5 -58.4971H849.5M47.5 -96.8156H849.5M47.5 -135.134H849.5" stroke="url(#paint0_radial_2007_16749)"/>
<path d="M85.9294 -167.806V626.194M124.057 -167.806V626.194M162.185 -167.806V626.194M200.642 -167.806V626.194M238.769 -167.806V626.194M276.898 -167.806V626.194M315.026 -167.806V626.194M353.153 -167.806V626.194M391.61 -167.806V626.194M429.738 -167.806V626.194M467.866 -167.806V626.194M505.994 -167.806V626.194M544.45 -167.806V626.194M582.579 -167.806V626.194M620.706 -167.806V626.194M658.835 -167.806V626.194M696.962 -167.806V626.194M735.419 -167.806L735.419 626.194M773.544 -167.806V626.194M811.679 -167.806V626.194M47.5 592.92H849.5M47.5 554.599L849.5 554.6M47.5 516.281H849.5M47.5 477.962H849.5M47.5 439.644H849.5M47.5 401.325H849.5M47.5 363.007H849.5M47.5 324.688H849.5M47.5 286.37H849.5M47.5 248.051H849.5M47.5 209.733H849.5M47.5 171.414H849.5M47.5 133.096H849.5M47.5 94.777H849.5M47.5 56.4585H849.5M47.5 18.14H849.5M47.5 -20.1786H849.5M47.5 -58.4971H849.5M47.5 -96.8156H849.5M47.5 -135.134H849.5" stroke="url(#paint1_radial_2007_16749)"/>
<path d="M85.9294 -167.806V626.194M124.057 -167.806V626.194M162.185 -167.806V626.194M200.642 -167.806V626.194M238.769 -167.806V626.194M276.898 -167.806V626.194M315.026 -167.806V626.194M353.153 -167.806V626.194M391.61 -167.806V626.194M429.738 -167.806V626.194M467.866 -167.806V626.194M505.994 -167.806V626.194M544.45 -167.806V626.194M582.579 -167.806V626.194M620.706 -167.806V626.194M658.835 -167.806V626.194M696.962 -167.806V626.194M735.419 -167.806L735.419 626.194M773.544 -167.806V626.194M811.679 -167.806V626.194M47.5 592.92H849.5M47.5 554.599L849.5 554.6M47.5 516.281H849.5M47.5 477.962H849.5M47.5 439.644H849.5M47.5 401.325H849.5M47.5 363.007H849.5M47.5 324.688H849.5M47.5 286.37H849.5M47.5 248.051H849.5M47.5 209.733H849.5M47.5 171.414H849.5M47.5 133.096H849.5M47.5 94.777H849.5M47.5 56.4585H849.5M47.5 18.14H849.5M47.5 -20.1786H849.5M47.5 -58.4971H849.5M47.5 -96.8156H849.5M47.5 -135.134H849.5" stroke="url(#paint2_radial_2007_16749)"/>
<ellipse cx="439" cy="227.694" rx="502.5" ry="232.5" fill="url(#paint3_radial_2007_16749)" fill-opacity="0.4"/>
<rect x="136" y="114.249" width="586.99" height="185.669" rx="23" fill="#210E30"/>
<rect x="136" y="114.249" width="586.99" height="185.669" rx="23" fill="url(#paint4_linear_2007_16749)"/>
<rect x="136" y="114.249" width="586.99" height="185.669" rx="23" fill="url(#paint5_linear_2007_16749)" fill-opacity="0.24"/>
<rect x="136.5" y="114.749" width="585.99" height="184.669" rx="22.5" stroke="white" stroke-opacity="0.3"/>
<g filter="url(#filter0_f_2007_16749)">
<rect x="136" y="114.249" width="586.99" height="185.669" rx="23" fill="url(#paint6_linear_2007_16749)"/>
<rect x="136.5" y="114.749" width="585.99" height="184.669" rx="22.5" stroke="white" stroke-opacity="0.3"/>
</g>
<path d="M300.91 244.638C299.41 244.638 298.1 244.338 296.98 243.738C295.86 243.138 294.99 242.178 294.37 240.858C293.77 239.538 293.47 237.808 293.47 235.668V224.658H296.95V235.938C296.95 237.358 297.11 238.488 297.43 239.328C297.77 240.148 298.24 240.738 298.84 241.098C299.44 241.438 300.13 241.608 300.91 241.608C301.71 241.608 302.41 241.438 303.01 241.098C303.63 240.738 304.11 240.148 304.45 239.328C304.81 238.488 304.99 237.358 304.99 235.938V224.658H308.32V235.668C308.32 237.808 308.02 239.538 307.42 240.858C306.82 242.178 305.96 243.138 304.84 243.738C303.74 244.338 302.43 244.638 300.91 244.638ZM312.918 244.278V229.548H315.768L316.008 231.528H316.128C316.788 230.888 317.508 230.338 318.288 229.878C319.068 229.418 319.958 229.188 320.958 229.188C322.538 229.188 323.688 229.698 324.408 230.718C325.128 231.738 325.488 233.178 325.488 235.038V244.278H322.038V235.488C322.038 234.268 321.858 233.408 321.498 232.908C321.138 232.408 320.548 232.158 319.728 232.158C319.088 232.158 318.518 232.318 318.018 232.638C317.538 232.938 316.988 233.388 316.368 233.988V244.278H312.918ZM329.705 244.278V229.548H333.155V244.278H329.705ZM331.445 226.968C330.825 226.968 330.325 226.788 329.945 226.428C329.565 226.068 329.375 225.588 329.375 224.988C329.375 224.408 329.565 223.938 329.945 223.578C330.325 223.218 330.825 223.038 331.445 223.038C332.065 223.038 332.565 223.218 332.945 223.578C333.325 223.938 333.515 224.408 333.515 224.988C333.515 225.588 333.325 226.068 332.945 226.428C332.565 226.788 332.065 226.968 331.445 226.968ZM340.857 244.278L335.727 229.548H339.237L341.577 237.198C341.777 237.918 341.977 238.648 342.177 239.388C342.397 240.128 342.607 240.878 342.807 241.638H342.927C343.147 240.878 343.357 240.128 343.557 239.388C343.777 238.648 343.987 237.918 344.187 237.198L346.527 229.548H349.857L344.847 244.278H340.857ZM358.534 244.638C357.174 244.638 355.944 244.338 354.844 243.738C353.744 243.118 352.874 242.238 352.234 241.098C351.594 239.938 351.274 238.548 351.274 236.928C351.274 235.328 351.594 233.948 352.234 232.788C352.894 231.628 353.744 230.738 354.784 230.118C355.824 229.498 356.914 229.188 358.054 229.188C359.394 229.188 360.514 229.488 361.414 230.088C362.314 230.668 362.994 231.488 363.454 232.548C363.914 233.588 364.144 234.798 364.144 236.178C364.144 236.898 364.094 237.458 363.994 237.858H354.634C354.794 239.158 355.264 240.168 356.044 240.888C356.824 241.608 357.804 241.968 358.984 241.968C359.624 241.968 360.214 241.878 360.754 241.698C361.314 241.498 361.864 241.228 362.404 240.888L363.574 243.048C362.874 243.508 362.094 243.888 361.234 244.188C360.374 244.488 359.474 244.638 358.534 244.638ZM354.604 235.518H361.144C361.144 234.378 360.894 233.488 360.394 232.848C359.894 232.188 359.144 231.858 358.144 231.858C357.284 231.858 356.514 232.178 355.834 232.818C355.174 233.438 354.764 234.338 354.604 235.518ZM367.439 244.278V229.548H370.289L370.529 232.158H370.649C371.169 231.198 371.799 230.468 372.539 229.968C373.279 229.448 374.039 229.188 374.819 229.188C375.519 229.188 376.079 229.288 376.499 229.488L375.899 232.488C375.639 232.408 375.399 232.348 375.179 232.308C374.959 232.268 374.689 232.248 374.369 232.248C373.789 232.248 373.179 232.478 372.539 232.938C371.899 233.378 371.349 234.158 370.889 235.278V244.278H367.439ZM382.565 244.638C381.565 244.638 380.565 244.448 379.565 244.068C378.565 243.668 377.705 243.178 376.985 242.598L378.605 240.378C379.265 240.878 379.925 241.278 380.585 241.578C381.245 241.878 381.945 242.028 382.685 242.028C383.485 242.028 384.075 241.858 384.455 241.518C384.835 241.178 385.025 240.758 385.025 240.258C385.025 239.838 384.865 239.498 384.545 239.238C384.245 238.958 383.855 238.718 383.375 238.518C382.895 238.298 382.395 238.088 381.875 237.888C381.235 237.648 380.595 237.358 379.955 237.018C379.335 236.658 378.825 236.208 378.425 235.668C378.025 235.108 377.825 234.418 377.825 233.598C377.825 232.298 378.305 231.238 379.265 230.418C380.225 229.598 381.525 229.188 383.165 229.188C384.205 229.188 385.135 229.368 385.955 229.728C386.775 230.088 387.485 230.498 388.085 230.958L386.495 233.058C385.975 232.678 385.445 232.378 384.905 232.158C384.385 231.918 383.835 231.798 383.255 231.798C382.515 231.798 381.965 231.958 381.605 232.278C381.245 232.578 381.065 232.958 381.065 233.418C381.065 233.998 381.365 234.438 381.965 234.738C382.565 235.038 383.265 235.328 384.065 235.608C384.745 235.848 385.405 236.148 386.045 236.508C386.685 236.848 387.215 237.298 387.635 237.858C388.075 238.418 388.295 239.158 388.295 240.078C388.295 241.338 387.805 242.418 386.825 243.318C385.845 244.198 384.425 244.638 382.565 244.638ZM394.945 244.638C393.665 244.638 392.615 244.238 391.795 243.438C390.995 242.638 390.595 241.598 390.595 240.318C390.595 238.738 391.285 237.518 392.665 236.658C394.045 235.778 396.245 235.178 399.265 234.858C399.245 234.078 399.035 233.408 398.635 232.848C398.255 232.268 397.565 231.978 396.565 231.978C395.845 231.978 395.135 232.118 394.435 232.398C393.755 232.678 393.085 233.018 392.425 233.418L391.165 231.108C391.985 230.588 392.905 230.138 393.925 229.758C394.965 229.378 396.065 229.188 397.225 229.188C399.065 229.188 400.435 229.738 401.335 230.838C402.255 231.918 402.715 233.488 402.715 235.548V244.278H399.865L399.625 242.658H399.505C398.845 243.218 398.135 243.688 397.375 244.068C396.635 244.448 395.825 244.638 394.945 244.638ZM396.055 241.938C396.655 241.938 397.195 241.798 397.675 241.518C398.175 241.218 398.705 240.818 399.265 240.318V237.018C397.265 237.278 395.875 237.668 395.095 238.188C394.315 238.688 393.925 239.308 393.925 240.048C393.925 240.708 394.125 241.188 394.525 241.488C394.925 241.788 395.435 241.938 396.055 241.938ZM410.204 244.638C408.984 244.638 408.114 244.268 407.594 243.528C407.094 242.788 406.844 241.778 406.844 240.498V223.098H410.294V240.678C410.294 241.098 410.374 241.398 410.534 241.578C410.694 241.738 410.864 241.818 411.044 241.818C411.124 241.818 411.194 241.818 411.254 241.818C411.334 241.798 411.444 241.778 411.584 241.758L412.034 244.338C411.834 244.418 411.574 244.488 411.254 244.548C410.954 244.608 410.604 244.638 410.204 244.638ZM429.124 244.638C427.484 244.638 425.994 244.248 424.654 243.468C423.314 242.688 422.244 241.548 421.444 240.048C420.664 238.528 420.274 236.688 420.274 234.528C420.274 232.388 420.674 230.558 421.474 229.038C422.294 227.498 423.384 226.328 424.744 225.528C426.104 224.708 427.604 224.298 429.244 224.298C430.484 224.298 431.584 224.548 432.544 225.048C433.504 225.548 434.294 226.128 434.914 226.788L433.054 229.038C432.554 228.518 431.994 228.108 431.374 227.808C430.774 227.488 430.094 227.328 429.334 227.328C428.274 227.328 427.324 227.618 426.484 228.198C425.664 228.758 425.014 229.568 424.534 230.628C424.074 231.688 423.844 232.958 423.844 234.438C423.844 236.678 424.334 238.438 425.314 239.718C426.294 240.978 427.604 241.608 429.244 241.608C430.124 241.608 430.904 241.428 431.584 241.068C432.264 240.688 432.884 240.198 433.444 239.598L435.304 241.788C434.504 242.708 433.584 243.418 432.544 243.918C431.524 244.398 430.384 244.638 429.124 244.638ZM444.309 244.638C443.089 244.638 441.949 244.338 440.889 243.738C439.829 243.118 438.969 242.238 438.309 241.098C437.649 239.938 437.319 238.548 437.319 236.928C437.319 235.288 437.649 233.898 438.309 232.758C438.969 231.598 439.829 230.718 440.889 230.118C441.949 229.498 443.089 229.188 444.309 229.188C445.549 229.188 446.699 229.498 447.759 230.118C448.819 230.718 449.679 231.598 450.339 232.758C450.999 233.898 451.329 235.288 451.329 236.928C451.329 238.548 450.999 239.938 450.339 241.098C449.679 242.238 448.819 243.118 447.759 243.738C446.699 244.338 445.549 244.638 444.309 244.638ZM444.309 241.818C445.389 241.818 446.239 241.368 446.859 240.468C447.479 239.568 447.789 238.388 447.789 236.928C447.789 235.448 447.479 234.258 446.859 233.358C446.239 232.458 445.389 232.008 444.309 232.008C443.229 232.008 442.379 232.458 441.759 233.358C441.159 234.258 440.859 235.448 440.859 236.928C440.859 238.388 441.159 239.568 441.759 240.468C442.379 241.368 443.229 241.818 444.309 241.818ZM459.904 244.638C458.064 244.638 456.594 243.958 455.494 242.598C454.394 241.238 453.844 239.348 453.844 236.928C453.844 235.328 454.134 233.948 454.714 232.788C455.314 231.628 456.094 230.738 457.054 230.118C458.014 229.498 459.024 229.188 460.084 229.188C460.924 229.188 461.634 229.338 462.214 229.638C462.814 229.918 463.394 230.308 463.954 230.808L463.834 228.438V223.098H467.284V244.278H464.434L464.194 242.688H464.074C463.534 243.228 462.904 243.688 462.184 244.068C461.464 244.448 460.704 244.638 459.904 244.638ZM460.744 241.788C461.844 241.788 462.874 241.238 463.834 240.138V233.268C463.334 232.808 462.834 232.488 462.334 232.308C461.834 232.128 461.334 232.038 460.834 232.038C459.894 232.038 459.084 232.468 458.404 233.328C457.744 234.168 457.414 235.358 457.414 236.898C457.414 238.478 457.704 239.688 458.284 240.528C458.864 241.368 459.684 241.788 460.744 241.788ZM477.978 244.638C476.618 244.638 475.388 244.338 474.288 243.738C473.188 243.118 472.318 242.238 471.678 241.098C471.038 239.938 470.718 238.548 470.718 236.928C470.718 235.328 471.038 233.948 471.678 232.788C472.338 231.628 473.188 230.738 474.228 230.118C475.268 229.498 476.358 229.188 477.498 229.188C478.838 229.188 479.958 229.488 480.858 230.088C481.758 230.668 482.438 231.488 482.898 232.548C483.358 233.588 483.588 234.798 483.588 236.178C483.588 236.898 483.538 237.458 483.438 237.858H474.078C474.238 239.158 474.708 240.168 475.488 240.888C476.268 241.608 477.248 241.968 478.428 241.968C479.068 241.968 479.658 241.878 480.198 241.698C480.758 241.498 481.308 241.228 481.848 240.888L483.018 243.048C482.318 243.508 481.538 243.888 480.678 244.188C479.818 244.488 478.918 244.638 477.978 244.638ZM474.048 235.518H480.588C480.588 234.378 480.338 233.488 479.838 232.848C479.338 232.188 478.588 231.858 477.588 231.858C476.728 231.858 475.958 232.178 475.278 232.818C474.618 233.438 474.208 234.338 474.048 235.518ZM501.409 244.638C499.649 244.638 498.069 244.248 496.669 243.468C495.269 242.688 494.169 241.548 493.369 240.048C492.569 238.528 492.169 236.688 492.169 234.528C492.169 232.388 492.579 230.558 493.399 229.038C494.219 227.498 495.329 226.328 496.729 225.528C498.129 224.708 499.699 224.298 501.439 224.298C502.839 224.298 504.019 224.558 504.979 225.078C505.959 225.578 506.759 226.148 507.379 226.788L505.519 229.038C505.019 228.558 504.459 228.158 503.839 227.838C503.239 227.498 502.479 227.328 501.559 227.328C499.819 227.328 498.409 227.968 497.329 229.248C496.269 230.508 495.739 232.238 495.739 234.438C495.739 236.678 496.249 238.438 497.269 239.718C498.289 240.978 499.779 241.608 501.739 241.608C502.299 241.608 502.829 241.538 503.329 241.398C503.829 241.238 504.239 241.018 504.559 240.738V236.508H500.839V233.658H507.679V242.298C507.019 242.958 506.139 243.518 505.039 243.978C503.959 244.418 502.749 244.638 501.409 244.638ZM511.727 244.278V229.548H514.577L514.817 232.158H514.937C515.457 231.198 516.087 230.468 516.827 229.968C517.567 229.448 518.327 229.188 519.107 229.188C519.807 229.188 520.367 229.288 520.787 229.488L520.187 232.488C519.927 232.408 519.687 232.348 519.467 232.308C519.247 232.268 518.977 232.248 518.657 232.248C518.077 232.248 517.467 232.478 516.827 232.938C516.187 233.378 515.637 234.158 515.177 235.278V244.278H511.727ZM525.697 244.638C524.417 244.638 523.367 244.238 522.547 243.438C521.747 242.638 521.347 241.598 521.347 240.318C521.347 238.738 522.037 237.518 523.417 236.658C524.797 235.778 526.997 235.178 530.017 234.858C529.997 234.078 529.787 233.408 529.387 232.848C529.007 232.268 528.317 231.978 527.317 231.978C526.597 231.978 525.887 232.118 525.187 232.398C524.507 232.678 523.837 233.018 523.177 233.418L521.917 231.108C522.737 230.588 523.657 230.138 524.677 229.758C525.717 229.378 526.817 229.188 527.977 229.188C529.817 229.188 531.187 229.738 532.087 230.838C533.007 231.918 533.467 233.488 533.467 235.548V244.278H530.617L530.377 242.658H530.257C529.597 243.218 528.887 243.688 528.127 244.068C527.387 244.448 526.577 244.638 525.697 244.638ZM526.807 241.938C527.407 241.938 527.947 241.798 528.427 241.518C528.927 241.218 529.457 240.818 530.017 240.318V237.018C528.017 237.278 526.627 237.668 525.847 238.188C525.067 238.688 524.677 239.308 524.677 240.048C524.677 240.708 524.877 241.188 525.277 241.488C525.677 241.788 526.187 241.938 526.807 241.938ZM537.596 250.098V229.548H540.446L540.686 231.108H540.806C541.426 230.588 542.116 230.138 542.876 229.758C543.656 229.378 544.446 229.188 545.246 229.188C547.086 229.188 548.506 229.868 549.506 231.228C550.526 232.588 551.036 234.408 551.036 236.688C551.036 238.368 550.736 239.808 550.136 241.008C549.536 242.188 548.756 243.088 547.796 243.708C546.856 244.328 545.836 244.638 544.736 244.638C544.096 244.638 543.456 244.498 542.816 244.218C542.176 243.918 541.556 243.518 540.956 243.018L541.046 245.478V250.098H537.596ZM544.016 241.788C544.996 241.788 545.816 241.358 546.476 240.498C547.136 239.638 547.466 238.378 547.466 236.718C547.466 235.238 547.216 234.088 546.716 233.268C546.216 232.448 545.406 232.038 544.286 232.038C543.246 232.038 542.166 232.588 541.046 233.688V240.558C541.586 240.998 542.106 241.318 542.606 241.518C543.106 241.698 543.576 241.788 544.016 241.788ZM554.529 244.278V223.098H557.979V228.558L557.859 231.408C558.479 230.828 559.169 230.318 559.929 229.878C560.689 229.418 561.569 229.188 562.569 229.188C564.149 229.188 565.299 229.698 566.019 230.718C566.739 231.738 567.099 233.178 567.099 235.038V244.278H563.649V235.488C563.649 234.268 563.469 233.408 563.109 232.908C562.749 232.408 562.159 232.158 561.339 232.158C560.699 232.158 560.129 232.318 559.629 232.638C559.149 232.938 558.599 233.388 557.979 233.988V244.278H554.529Z" fill="white"/>
<g filter="url(#filter1_d_2007_16749)">
<rect x="136" y="318.385" width="287.153" height="54.2015" rx="15" fill="url(#paint7_linear_2007_16749)"/>
<rect x="136.5" y="318.885" width="286.153" height="53.2015" rx="14.5" stroke="white" stroke-opacity="0.3"/>
<path d="M264.203 352.855C263.11 352.855 262.116 352.595 261.223 352.075C260.33 351.555 259.616 350.795 259.083 349.795C258.563 348.781 258.303 347.555 258.303 346.115C258.303 344.688 258.57 343.468 259.103 342.455C259.65 341.428 260.376 340.648 261.283 340.115C262.19 339.568 263.19 339.295 264.283 339.295C265.11 339.295 265.843 339.461 266.483 339.795C267.123 340.128 267.65 340.515 268.063 340.955L266.823 342.455C266.49 342.108 266.116 341.835 265.703 341.635C265.303 341.421 264.85 341.315 264.343 341.315C263.636 341.315 263.003 341.508 262.443 341.895C261.896 342.268 261.463 342.808 261.143 343.515C260.836 344.221 260.683 345.068 260.683 346.055C260.683 347.548 261.01 348.721 261.663 349.575C262.316 350.415 263.19 350.835 264.283 350.835C264.87 350.835 265.39 350.715 265.843 350.475C266.296 350.221 266.71 349.895 267.083 349.495L268.323 350.955C267.79 351.568 267.176 352.041 266.483 352.375C265.803 352.695 265.043 352.855 264.203 352.855ZM274.326 352.855C273.513 352.855 272.753 352.655 272.046 352.255C271.34 351.841 270.766 351.255 270.326 350.495C269.886 349.721 269.666 348.795 269.666 347.715C269.666 346.621 269.886 345.695 270.326 344.935C270.766 344.161 271.34 343.575 272.046 343.175C272.753 342.761 273.513 342.555 274.326 342.555C275.153 342.555 275.92 342.761 276.626 343.175C277.333 343.575 277.906 344.161 278.346 344.935C278.786 345.695 279.006 346.621 279.006 347.715C279.006 348.795 278.786 349.721 278.346 350.495C277.906 351.255 277.333 351.841 276.626 352.255C275.92 352.655 275.153 352.855 274.326 352.855ZM274.326 350.975C275.046 350.975 275.613 350.675 276.026 350.075C276.44 349.475 276.646 348.688 276.646 347.715C276.646 346.728 276.44 345.935 276.026 345.335C275.613 344.735 275.046 344.435 274.326 344.435C273.606 344.435 273.04 344.735 272.626 345.335C272.226 345.935 272.026 346.728 272.026 347.715C272.026 348.688 272.226 349.475 272.626 350.075C273.04 350.675 273.606 350.975 274.326 350.975ZM284.723 352.855C283.496 352.855 282.516 352.401 281.783 351.495C281.05 350.588 280.683 349.328 280.683 347.715C280.683 346.648 280.876 345.728 281.263 344.955C281.663 344.181 282.183 343.588 282.823 343.175C283.463 342.761 284.136 342.555 284.843 342.555C285.403 342.555 285.876 342.655 286.263 342.855C286.663 343.041 287.05 343.301 287.423 343.635L287.343 342.055V338.495H289.643V352.615H287.743L287.583 351.555H287.503C287.143 351.915 286.723 352.221 286.243 352.475C285.763 352.728 285.256 352.855 284.723 352.855ZM285.283 350.955C286.016 350.955 286.703 350.588 287.343 349.855V345.275C287.01 344.968 286.676 344.755 286.343 344.635C286.01 344.515 285.676 344.455 285.343 344.455C284.716 344.455 284.176 344.741 283.723 345.315C283.283 345.875 283.063 346.668 283.063 347.695C283.063 348.748 283.256 349.555 283.643 350.115C284.03 350.675 284.576 350.955 285.283 350.955ZM296.772 352.855C295.865 352.855 295.045 352.655 294.312 352.255C293.579 351.841 292.999 351.255 292.572 350.495C292.145 349.721 291.932 348.795 291.932 347.715C291.932 346.648 292.145 345.728 292.572 344.955C293.012 344.181 293.579 343.588 294.272 343.175C294.965 342.761 295.692 342.555 296.452 342.555C297.345 342.555 298.092 342.755 298.692 343.155C299.292 343.541 299.745 344.088 300.052 344.795C300.359 345.488 300.512 346.295 300.512 347.215C300.512 347.695 300.479 348.068 300.412 348.335H294.172C294.279 349.201 294.592 349.875 295.112 350.355C295.632 350.835 296.285 351.075 297.072 351.075C297.499 351.075 297.892 351.015 298.252 350.895C298.625 350.761 298.992 350.581 299.352 350.355L300.132 351.795C299.665 352.101 299.145 352.355 298.572 352.555C297.999 352.755 297.399 352.855 296.772 352.855ZM294.152 346.775H298.512C298.512 346.015 298.345 345.421 298.012 344.995C297.679 344.555 297.179 344.335 296.512 344.335C295.939 344.335 295.425 344.548 294.972 344.975C294.532 345.388 294.259 345.988 294.152 346.775Z" fill="white"/>
</g>
<g filter="url(#filter2_d_2007_16749)">
<rect x="445.062" y="319.537" width="277.988" height="54.2015" rx="15" fill="url(#paint8_linear_2007_16749)"/>
<rect x="445.562" y="320.037" width="276.988" height="53.2015" rx="14.5" stroke="white" stroke-opacity="0.3"/>
<path d="M567.948 353.765V340.685H570.268V351.805H575.708V353.765H567.948ZM577.987 353.765V340.685H580.307V351.805H585.747V353.765H577.987ZM588.026 353.765V340.685H590.646L592.966 347.085C593.113 347.499 593.253 347.925 593.386 348.365C593.533 348.792 593.673 349.219 593.806 349.645H593.886C594.033 349.219 594.173 348.792 594.306 348.365C594.44 347.925 594.573 347.499 594.706 347.085L596.966 340.685H599.606V353.765H597.466V347.785C597.466 347.372 597.48 346.925 597.506 346.445C597.546 345.952 597.586 345.459 597.626 344.965C597.68 344.472 597.726 344.025 597.766 343.625H597.686L596.626 346.665L594.486 352.545H593.106L590.946 346.665L589.906 343.625H589.826C589.866 344.025 589.906 344.472 589.946 344.965C590 345.459 590.04 345.952 590.066 346.445C590.106 346.925 590.126 347.372 590.126 347.785V353.765H588.026Z" fill="white"/>
</g>
<g filter="url(#filter3_d_2007_16749)">
<rect x="170.602" y="91.1942" width="246.79" height="99.1774" rx="11" fill="url(#paint9_radial_2007_16749)" fill-opacity="0.9"/>
<rect x="171.102" y="91.6942" width="245.79" height="98.1774" rx="10.5" stroke="url(#paint10_linear_2007_16749)" stroke-opacity="0.4"/>
<path d="M261.646 149.86C259.827 149.86 258.174 149.428 256.688 148.564C255.201 147.7 254.015 146.437 253.127 144.775C252.262 143.092 251.83 141.053 251.83 138.661C251.83 136.29 252.273 134.263 253.161 132.58C254.07 130.874 255.279 129.578 256.787 128.692C258.296 127.783 259.96 127.329 261.779 127.329C263.154 127.329 264.374 127.606 265.439 128.16C266.504 128.714 267.38 129.356 268.068 130.087L266.005 132.58C265.45 132.004 264.829 131.549 264.141 131.217C263.476 130.863 262.721 130.686 261.878 130.686C260.703 130.686 259.649 131.007 258.717 131.649C257.808 132.269 257.087 133.167 256.555 134.341C256.044 135.515 255.789 136.922 255.789 138.561C255.789 141.042 256.333 142.992 257.42 144.41C258.507 145.805 259.96 146.503 261.779 146.503C262.755 146.503 263.62 146.304 264.374 145.905C265.128 145.484 265.816 144.941 266.437 144.277L268.5 146.703C267.613 147.722 266.592 148.508 265.439 149.062C264.308 149.594 263.043 149.86 261.646 149.86Z" fill="white"/>
<path d="M277.407 149.86C276.054 149.86 274.789 149.527 273.613 148.863C272.438 148.176 271.484 147.201 270.752 145.938C270.02 144.653 269.654 143.114 269.654 141.319C269.654 139.503 270.02 137.963 270.752 136.7C271.484 135.415 272.438 134.441 273.613 133.776C274.789 133.089 276.054 132.746 277.407 132.746C278.782 132.746 280.058 133.089 281.233 133.776C282.409 134.441 283.363 135.415 284.095 136.7C284.827 137.963 285.193 139.503 285.193 141.319C285.193 143.114 284.827 144.653 284.095 145.938C283.363 147.201 282.409 148.176 281.233 148.863C280.058 149.527 278.782 149.86 277.407 149.86ZM277.407 146.736C278.605 146.736 279.547 146.237 280.235 145.24C280.923 144.244 281.267 142.936 281.267 141.319C281.267 139.68 280.923 138.362 280.235 137.365C279.547 136.368 278.605 135.869 277.407 135.869C276.209 135.869 275.266 136.368 274.578 137.365C273.913 138.362 273.58 139.68 273.58 141.319C273.58 142.936 273.913 144.244 274.578 145.24C275.266 146.237 276.209 146.736 277.407 146.736Z" fill="white"/>
<path d="M293.706 149.86C291.665 149.86 290.034 149.106 288.814 147.6C287.594 146.093 286.984 144 286.984 141.319C286.984 139.547 287.306 138.018 287.949 136.733C288.615 135.449 289.48 134.463 290.544 133.776C291.609 133.089 292.729 132.746 293.905 132.746C294.837 132.746 295.624 132.912 296.268 133.244C296.933 133.554 297.576 133.986 298.198 134.54L298.064 131.915V126H301.891V149.461H298.73L298.464 147.7H298.331C297.732 148.298 297.033 148.807 296.234 149.228C295.436 149.649 294.593 149.86 293.706 149.86ZM294.637 146.703C295.857 146.703 297 146.093 298.064 144.875V137.265C297.51 136.756 296.955 136.401 296.401 136.202C295.846 136.002 295.292 135.903 294.737 135.903C293.694 135.903 292.796 136.379 292.042 137.332C291.31 138.262 290.944 139.58 290.944 141.286C290.944 143.036 291.265 144.376 291.909 145.307C292.552 146.237 293.461 146.703 294.637 146.703Z" fill="white"/>
<path d="M306.864 156.173C306.42 156.173 306.032 156.14 305.699 156.074C305.367 156.007 305.045 155.93 304.734 155.841L305.433 152.85C305.588 152.895 305.766 152.939 305.966 152.983C306.187 153.05 306.398 153.083 306.598 153.083C307.463 153.083 308.151 152.817 308.661 152.285C309.193 151.776 309.593 151.111 309.859 150.292L310.158 149.261L303.736 133.145H307.629L310.458 141.153C310.702 141.862 310.935 142.615 311.156 143.413C311.4 144.188 311.644 144.964 311.888 145.739H312.022C312.221 144.986 312.421 144.221 312.62 143.446C312.842 142.648 313.053 141.884 313.253 141.153L315.715 133.145H319.408L313.486 150.192C312.798 152.031 311.966 153.482 310.99 154.545C310.014 155.631 308.639 156.173 306.864 156.173Z" fill="white"/>
<path fill-rule="evenodd" clip-rule="evenodd" d="M235.389 127.357C236.757 127.357 237.866 128.535 237.866 129.989L237.866 135.983C237.866 137.437 236.757 138.615 235.389 138.615C234.021 138.615 232.912 137.437 232.912 135.983L232.912 129.989C232.912 128.535 234.021 127.357 235.389 127.357Z" fill="#FF5543"/>
<path fill-rule="evenodd" clip-rule="evenodd" d="M215.797 134.109C215.797 132.616 216.975 131.407 218.427 131.407H224.426C225.879 131.407 227.056 132.616 227.056 134.109C227.056 135.601 225.879 136.811 224.426 136.811H218.427C216.975 136.811 215.797 135.601 215.797 134.109Z" fill="#A112FF"/>
<path fill-rule="evenodd" clip-rule="evenodd" d="M218.775 143.682C217.89 142.549 216.232 142.323 215.062 143.18C213.888 144.041 213.651 145.667 214.533 146.813L216.66 145.255C214.533 146.813 214.534 146.814 214.535 146.814L214.536 146.817L214.54 146.821L214.548 146.832C214.554 146.839 214.561 146.848 214.569 146.858C214.585 146.878 214.605 146.904 214.629 146.933C214.678 146.992 214.743 147.07 214.825 147.163C214.989 147.35 215.22 147.6 215.518 147.893C216.113 148.476 216.986 149.235 218.135 149.991C220.443 151.507 223.889 153.018 228.411 153.018C232.933 153.018 236.379 151.507 238.687 149.991C239.837 149.235 240.709 148.476 241.304 147.893C241.602 147.6 241.833 147.35 241.997 147.163C242.079 147.07 242.144 146.992 242.193 146.933C242.217 146.904 242.237 146.878 242.253 146.858C242.261 146.848 242.268 146.839 242.274 146.832L242.283 146.821L242.286 146.817L242.288 146.814C242.288 146.814 242.289 146.813 240.163 145.255L242.289 146.813C243.171 145.667 242.934 144.041 241.76 143.18C240.59 142.323 238.932 142.549 238.047 143.682C238.046 143.684 238.043 143.687 238.039 143.692C238.026 143.708 237.998 143.742 237.956 143.79C237.872 143.886 237.731 144.04 237.535 144.232C237.141 144.618 236.532 145.151 235.715 145.688C234.09 146.756 231.66 147.83 228.411 147.83C225.162 147.83 222.732 146.756 221.107 145.688C220.29 145.151 219.682 144.618 219.288 144.232C219.091 144.04 218.951 143.886 218.866 143.79C218.824 143.742 218.796 143.708 218.783 143.692C218.779 143.687 218.776 143.684 218.775 143.682ZM238.039 143.693L238.039 143.693L238.039 143.694M238.049 143.681L238.049 143.681L238.049 143.681Z" fill="#00CBEC"/>
<rect x="328.059" y="126.761" width="45" height="25" rx="6" fill="#DBE2F0"/>
<path d="M337.272 143.761V135.901H339.612C340.148 135.901 340.62 135.965 341.028 136.093C341.444 136.213 341.768 136.413 342 136.693C342.24 136.973 342.36 137.349 342.36 137.821C342.36 138.205 342.248 138.557 342.024 138.877C341.8 139.197 341.456 139.417 340.992 139.537V139.585C341.56 139.673 342 139.873 342.312 140.185C342.624 140.497 342.78 140.921 342.78 141.457C342.78 141.977 342.652 142.409 342.396 142.753C342.148 143.089 341.8 143.341 341.352 143.509C340.904 143.677 340.388 143.761 339.804 143.761H337.272ZM338.472 139.165H339.468C340.076 139.165 340.512 139.065 340.776 138.865C341.048 138.657 341.184 138.353 341.184 137.953C341.184 137.561 341.044 137.285 340.764 137.125C340.484 136.965 340.064 136.885 339.504 136.885H338.472V139.165ZM338.472 142.777H339.66C340.284 142.777 340.764 142.669 341.1 142.453C341.436 142.229 341.604 141.873 341.604 141.385C341.604 140.937 341.436 140.617 341.1 140.425C340.772 140.225 340.292 140.125 339.66 140.125H338.472V142.777ZM344.672 143.761V135.901H349.616V136.909H345.872V139.153H349.04V140.161H345.872V142.753H349.736V143.761H344.672ZM353.559 143.761V136.909H351.027V135.901H357.291V136.909H354.759V143.761H353.559ZM358.066 143.761L360.658 135.901H362.05L364.642 143.761H363.37L362.098 139.477C361.97 139.045 361.842 138.613 361.714 138.181C361.594 137.741 361.474 137.301 361.354 136.861H361.306C361.194 137.301 361.074 137.741 360.946 138.181C360.826 138.613 360.702 139.045 360.574 139.477L359.29 143.761H358.066ZM359.518 141.505V140.557H363.166V141.505H359.518Z" fill="#343A4D"/>
</g>
<g filter="url(#filter4_d_2007_16749)">
<rect x="445.062" y="91.1942" width="246.79" height="99.1774" rx="11" fill="url(#paint11_radial_2007_16749)" fill-opacity="0.9" shape-rendering="crispEdges"/>
<rect x="445.562" y="91.6942" width="245.79" height="98.1774" rx="10.5" stroke="url(#paint12_linear_2007_16749)" stroke-opacity="0.4" shape-rendering="crispEdges"/>
</g>
<path d="M517.453 152.245C515.764 152.245 514.23 151.844 512.85 151.041C511.47 150.238 510.368 149.064 509.545 147.519C508.741 145.954 508.34 144.059 508.34 141.835C508.34 139.631 508.752 137.747 509.576 136.182C510.42 134.596 511.542 133.391 512.943 132.568C514.343 131.723 515.888 131.301 517.576 131.301C518.853 131.301 519.986 131.558 520.974 132.073C521.963 132.588 522.776 133.185 523.415 133.865L521.5 136.182C520.985 135.646 520.408 135.224 519.77 134.915C519.152 134.586 518.452 134.421 517.669 134.421C516.578 134.421 515.599 134.72 514.734 135.317C513.89 135.894 513.221 136.728 512.726 137.819C512.253 138.911 512.016 140.218 512.016 141.742C512.016 144.049 512.52 145.861 513.53 147.179C514.539 148.477 515.888 149.125 517.576 149.125C518.483 149.125 519.286 148.94 519.986 148.569C520.686 148.178 521.325 147.674 521.901 147.056L523.816 149.311C522.993 150.258 522.045 150.989 520.974 151.504C519.924 151.998 518.75 152.245 517.453 152.245Z" fill="white"/>
<path d="M532.085 152.245C530.829 152.245 529.655 151.937 528.564 151.319C527.472 150.68 526.587 149.774 525.907 148.6C525.227 147.406 524.888 145.975 524.888 144.306C524.888 142.618 525.227 141.186 525.907 140.012C526.587 138.818 527.472 137.912 528.564 137.294C529.655 136.656 530.829 136.336 532.085 136.336C533.362 136.336 534.546 136.656 535.638 137.294C536.729 137.912 537.615 138.818 538.294 140.012C538.974 141.186 539.314 142.618 539.314 144.306C539.314 145.975 538.974 147.406 538.294 148.6C537.615 149.774 536.729 150.68 535.638 151.319C534.546 151.937 533.362 152.245 532.085 152.245ZM532.085 149.342C533.197 149.342 534.073 148.878 534.711 147.952C535.349 147.025 535.669 145.81 535.669 144.306C535.669 142.782 535.349 141.557 534.711 140.63C534.073 139.704 533.197 139.24 532.085 139.24C530.973 139.24 530.098 139.704 529.459 140.63C528.842 141.557 528.533 142.782 528.533 144.306C528.533 145.81 528.842 147.025 529.459 147.952C530.098 148.878 530.973 149.342 532.085 149.342Z" fill="white"/>
<path d="M547.14 152.245C545.245 152.245 543.731 151.545 542.598 150.145C541.466 148.744 540.899 146.798 540.899 144.306C540.899 142.659 541.198 141.238 541.795 140.043C542.413 138.849 543.216 137.932 544.205 137.294C545.193 136.656 546.233 136.336 547.325 136.336C548.19 136.336 548.921 136.491 549.518 136.8C550.136 137.088 550.733 137.49 551.31 138.004L551.186 135.564V130.065H554.739V151.875H551.804L551.557 150.238H551.433C550.877 150.794 550.229 151.267 549.487 151.659C548.746 152.05 547.963 152.245 547.14 152.245ZM548.005 149.311C549.137 149.311 550.198 148.744 551.186 147.612V140.538C550.671 140.064 550.157 139.734 549.642 139.549C549.127 139.364 548.612 139.271 548.097 139.271C547.129 139.271 546.295 139.714 545.595 140.599C544.915 141.464 544.576 142.69 544.576 144.275C544.576 145.902 544.874 147.148 545.471 148.013C546.069 148.878 546.913 149.311 548.005 149.311Z" fill="white"/>
<path d="M564.746 152.245C563.346 152.245 562.079 151.937 560.947 151.319C559.814 150.68 558.918 149.774 558.259 148.6C557.6 147.406 557.271 145.975 557.271 144.306C557.271 142.659 557.6 141.238 558.259 140.043C558.939 138.849 559.814 137.932 560.885 137.294C561.956 136.656 563.078 136.336 564.252 136.336C565.632 136.336 566.785 136.645 567.712 137.263C568.639 137.86 569.339 138.705 569.812 139.796C570.286 140.867 570.523 142.113 570.523 143.534C570.523 144.275 570.471 144.852 570.368 145.264H560.73C560.895 146.603 561.379 147.643 562.182 148.384C562.985 149.125 563.995 149.496 565.21 149.496C565.869 149.496 566.476 149.403 567.032 149.218C567.609 149.012 568.175 148.734 568.731 148.384L569.936 150.608C569.215 151.082 568.412 151.473 567.526 151.782C566.641 152.091 565.714 152.245 564.746 152.245ZM560.699 142.854H567.434C567.434 141.681 567.176 140.764 566.662 140.105C566.147 139.425 565.374 139.086 564.345 139.086C563.459 139.086 562.666 139.415 561.966 140.074C561.286 140.713 560.864 141.639 560.699 142.854Z" fill="white"/>
<path d="M584.302 152.245C582.942 152.245 581.624 151.988 580.347 151.473C579.091 150.958 577.979 150.227 577.011 149.28L579.112 146.839C579.833 147.519 580.656 148.075 581.583 148.508C582.51 148.919 583.437 149.125 584.363 149.125C585.517 149.125 586.392 148.889 586.989 148.415C587.586 147.941 587.885 147.313 587.885 146.531C587.885 145.686 587.586 145.079 586.989 144.708C586.412 144.337 585.671 143.956 584.765 143.565L581.985 142.36C581.326 142.072 580.677 141.701 580.038 141.248C579.421 140.795 578.906 140.218 578.494 139.518C578.103 138.818 577.907 137.974 577.907 136.985C577.907 135.914 578.195 134.957 578.772 134.112C579.369 133.247 580.172 132.568 581.181 132.073C582.211 131.558 583.385 131.301 584.703 131.301C585.877 131.301 587.01 131.538 588.101 132.012C589.193 132.465 590.13 133.082 590.912 133.865L589.09 136.151C588.451 135.616 587.772 135.193 587.051 134.884C586.351 134.576 585.568 134.421 584.703 134.421C583.756 134.421 582.983 134.637 582.386 135.07C581.81 135.482 581.521 136.058 581.521 136.8C581.521 137.315 581.665 137.747 581.954 138.097C582.263 138.427 582.664 138.715 583.159 138.962C583.653 139.189 584.178 139.415 584.734 139.642L587.483 140.785C588.678 141.3 589.656 141.979 590.418 142.824C591.18 143.647 591.561 144.79 591.561 146.253C591.561 147.344 591.273 148.343 590.696 149.249C590.119 150.155 589.285 150.886 588.194 151.442C587.123 151.978 585.825 152.245 584.302 152.245Z" fill="white"/>
<path d="M600.409 152.245C599.009 152.245 597.742 151.937 596.609 151.319C595.477 150.68 594.581 149.774 593.922 148.6C593.263 147.406 592.933 145.975 592.933 144.306C592.933 142.659 593.263 141.238 593.922 140.043C594.601 138.849 595.477 137.932 596.548 137.294C597.618 136.656 598.741 136.336 599.915 136.336C601.295 136.336 602.448 136.645 603.375 137.263C604.301 137.86 605.002 138.705 605.475 139.796C605.949 140.867 606.186 142.113 606.186 143.534C606.186 144.275 606.134 144.852 606.031 145.264H596.393C596.558 146.603 597.042 147.643 597.845 148.384C598.648 149.125 599.657 149.496 600.872 149.496C601.531 149.496 602.139 149.403 602.695 149.218C603.272 149.012 603.838 148.734 604.394 148.384L605.599 150.608C604.878 151.082 604.075 151.473 603.189 151.782C602.304 152.091 601.377 152.245 600.409 152.245ZM596.362 142.854H603.097C603.097 141.681 602.839 140.764 602.324 140.105C601.809 139.425 601.037 139.086 600.007 139.086C599.122 139.086 598.329 139.415 597.629 140.074C596.949 140.713 596.527 141.639 596.362 142.854Z" fill="white"/>
<path d="M611.889 152.245C610.571 152.245 609.49 151.834 608.645 151.01C607.821 150.186 607.41 149.115 607.41 147.797C607.41 146.17 608.12 144.914 609.541 144.028C610.962 143.122 613.227 142.504 616.337 142.175C616.317 141.372 616.1 140.682 615.688 140.105C615.297 139.508 614.587 139.209 613.557 139.209C612.816 139.209 612.084 139.353 611.364 139.642C610.663 139.93 609.974 140.28 609.294 140.692L607.996 138.313C608.841 137.778 609.788 137.315 610.839 136.923C611.909 136.532 613.042 136.336 614.237 136.336C616.131 136.336 617.542 136.903 618.469 138.035C619.416 139.147 619.89 140.764 619.89 142.885V151.875H616.955L616.708 150.207H616.584C615.905 150.783 615.174 151.267 614.391 151.659C613.629 152.05 612.795 152.245 611.889 152.245ZM613.032 149.465C613.65 149.465 614.206 149.321 614.7 149.033C615.215 148.724 615.761 148.312 616.337 147.797V144.399C614.278 144.667 612.846 145.068 612.043 145.604C611.24 146.119 610.839 146.757 610.839 147.519C610.839 148.199 611.044 148.693 611.456 149.002C611.868 149.311 612.393 149.465 613.032 149.465Z" fill="white"/>
<path d="M623.137 151.875V136.707H626.072L626.319 139.395H626.443C626.978 138.406 627.627 137.654 628.389 137.14C629.151 136.604 629.933 136.336 630.736 136.336C631.457 136.336 632.034 136.439 632.466 136.645L631.849 139.734C631.581 139.652 631.334 139.59 631.107 139.549C630.881 139.508 630.603 139.487 630.273 139.487C629.676 139.487 629.048 139.724 628.389 140.198C627.73 140.651 627.163 141.454 626.69 142.607V151.875H623.137Z" fill="white"/>
<path d="M639.688 152.245C638.308 152.245 637.062 151.937 635.95 151.319C634.859 150.68 633.984 149.774 633.325 148.6C632.686 147.406 632.367 145.975 632.367 144.306C632.367 142.618 632.717 141.186 633.417 140.012C634.117 138.818 635.044 137.912 636.198 137.294C637.371 136.656 638.628 136.336 639.966 136.336C640.934 136.336 641.779 136.501 642.499 136.831C643.22 137.16 643.859 137.562 644.415 138.035L642.685 140.352C642.293 140.002 641.892 139.734 641.48 139.549C641.068 139.343 640.625 139.24 640.152 139.24C638.937 139.24 637.938 139.704 637.155 140.63C636.393 141.557 636.012 142.782 636.012 144.306C636.012 145.81 636.383 147.025 637.124 147.952C637.886 148.878 638.864 149.342 640.059 149.342C640.656 149.342 641.212 149.218 641.727 148.971C642.263 148.703 642.747 148.394 643.179 148.044L644.631 150.392C643.931 151.01 643.148 151.473 642.283 151.782C641.418 152.091 640.553 152.245 639.688 152.245Z" fill="white"/>
<path d="M646.621 151.875V130.065H650.173V135.688L650.05 138.622C650.688 138.025 651.399 137.5 652.181 137.047C652.964 136.573 653.87 136.336 654.9 136.336C656.527 136.336 657.711 136.862 658.452 137.912C659.194 138.962 659.564 140.445 659.564 142.36V151.875H656.012V142.824C656.012 141.567 655.826 140.682 655.456 140.167C655.085 139.652 654.477 139.395 653.633 139.395C652.974 139.395 652.387 139.559 651.872 139.889C651.378 140.198 650.812 140.661 650.173 141.279V151.875H646.621Z" fill="white"/>
<path fill-rule="evenodd" clip-rule="evenodd" d="M493.06 151.091C491.087 152.51 488.666 153.346 486.05 153.346C479.412 153.346 474.032 147.965 474.032 141.328C474.032 134.69 479.412 129.309 486.05 129.309C492.687 129.309 498.068 134.69 498.068 141.328C498.068 143.505 497.489 145.547 496.477 147.308L500.376 151.207C501.37 152.201 501.37 153.813 500.376 154.807C499.382 155.801 497.77 155.801 496.776 154.807L493.06 151.091ZM496.25 141.328C496.25 146.961 491.683 151.528 486.05 151.528C480.417 151.528 475.85 146.961 475.85 141.328C475.85 135.694 480.417 131.127 486.05 131.127C491.683 131.127 496.25 135.694 496.25 141.328Z" fill="white"/>
<path fill-rule="evenodd" clip-rule="evenodd" d="M480.762 137.495C480.762 136.892 481.25 136.404 481.853 136.404H490.216C490.818 136.404 491.307 136.892 491.307 137.495C491.307 138.097 490.818 138.585 490.216 138.585H481.853C481.25 138.585 480.762 138.097 480.762 137.495Z" fill="#A112FF"/>
<path fill-rule="evenodd" clip-rule="evenodd" d="M480.762 141.118C480.762 140.516 481.25 140.027 481.853 140.027H490.216C490.818 140.027 491.307 140.516 491.307 141.118C491.307 141.721 490.818 142.209 490.216 142.209H481.853C481.25 142.209 480.762 141.721 480.762 141.118Z" fill="#FF5543"/>
<path fill-rule="evenodd" clip-rule="evenodd" d="M480.762 144.949C480.762 144.346 481.25 143.858 481.853 143.858H490.216C490.818 143.858 491.307 144.346 491.307 144.949C491.307 145.551 490.818 146.039 490.216 146.039H481.853C481.25 146.039 480.762 145.551 480.762 144.949Z" fill="#00CBEC"/>
</g>
<defs>
<filter id="filter0_f_2007_16749" x="131" y="109.249" width="596.99" height="195.669" filterUnits="userSpaceOnUse" color-interpolation-filters="sRGB">
<feFlood flood-opacity="0" result="BackgroundImageFix"/>
<feBlend mode="normal" in="SourceGraphic" in2="BackgroundImageFix" result="shape"/>
<feGaussianBlur stdDeviation="2.5" result="effect1_foregroundBlur_2007_16749"/>
</filter>
<filter id="filter1_d_2007_16749" x="132" y="318.385" width="295.152" height="62.2015" filterUnits="userSpaceOnUse" color-interpolation-filters="sRGB">
<feFlood flood-opacity="0" result="BackgroundImageFix"/>
<feColorMatrix in="SourceAlpha" type="matrix" values="0 0 0 0 0 0 0 0 0 0 0 0 0 0 0 0 0 0 127 0" result="hardAlpha"/>
<feOffset dy="4"/>
<feGaussianBlur stdDeviation="2"/>
<feComposite in2="hardAlpha" operator="out"/>
<feColorMatrix type="matrix" values="0 0 0 0 0 0 0 0 0 0 0 0 0 0 0 0 0 0 0.25 0"/>
<feBlend mode="normal" in2="BackgroundImageFix" result="effect1_dropShadow_2007_16749"/>
<feBlend mode="normal" in="SourceGraphic" in2="effect1_dropShadow_2007_16749" result="shape"/>
</filter>
<filter id="filter2_d_2007_16749" x="441.062" y="319.537" width="285.988" height="62.2015" filterUnits="userSpaceOnUse" color-interpolation-filters="sRGB">
<feFlood flood-opacity="0" result="BackgroundImageFix"/>
<feColorMatrix in="SourceAlpha" type="matrix" values="0 0 0 0 0 0 0 0 0 0 0 0 0 0 0 0 0 0 127 0" result="hardAlpha"/>
<feOffset dy="4"/>
<feGaussianBlur stdDeviation="2"/>
<feComposite in2="hardAlpha" operator="out"/>
<feColorMatrix type="matrix" values="0 0 0 0 0 0 0 0 0 0 0 0 0 0 0 0 0 0 0.25 0"/>
<feBlend mode="normal" in2="BackgroundImageFix" result="effect1_dropShadow_2007_16749"/>
<feBlend mode="normal" in="SourceGraphic" in2="effect1_dropShadow_2007_16749" result="shape"/>
</filter>
<filter id="filter3_d_2007_16749" x="166.602" y="91.1942" width="254.79" height="107.177" filterUnits="userSpaceOnUse" color-interpolation-filters="sRGB">
<feFlood flood-opacity="0" result="BackgroundImageFix"/>
<feColorMatrix in="SourceAlpha" type="matrix" values="0 0 0 0 0 0 0 0 0 0 0 0 0 0 0 0 0 0 127 0" result="hardAlpha"/>
<feOffset dy="4"/>
<feGaussianBlur stdDeviation="2"/>
<feComposite in2="hardAlpha" operator="out"/>
<feColorMatrix type="matrix" values="0 0 0 0 0 0 0 0 0 0 0 0 0 0 0 0 0 0 0.25 0"/>
<feBlend mode="normal" in2="BackgroundImageFix" result="effect1_dropShadow_2007_16749"/>
<feBlend mode="normal" in="SourceGraphic" in2="effect1_dropShadow_2007_16749" result="shape"/>
</filter>
<filter id="filter4_d_2007_16749" x="441.062" y="91.1942" width="254.79" height="107.177" filterUnits="userSpaceOnUse" color-interpolation-filters="sRGB">
<feFlood flood-opacity="0" result="BackgroundImageFix"/>
<feColorMatrix in="SourceAlpha" type="matrix" values="0 0 0 0 0 0 0 0 0 0 0 0 0 0 0 0 0 0 127 0" result="hardAlpha"/>
<feOffset dy="4"/>
<feGaussianBlur stdDeviation="2"/>
<feComposite in2="hardAlpha" operator="out"/>
<feColorMatrix type="matrix" values="0 0 0 0 0 0 0 0 0 0 0 0 0 0 0 0 0 0 0.25 0"/>
<feBlend mode="normal" in2="BackgroundImageFix" result="effect1_dropShadow_2007_16749"/>
<feBlend mode="normal" in="SourceGraphic" in2="effect1_dropShadow_2007_16749" result="shape"/>
</filter>
<radialGradient id="paint0_radial_2007_16749" cx="0" cy="0" r="1" gradientUnits="userSpaceOnUse" gradientTransform="translate(644 258.194) rotate(73.7825) scale(187.98 189.874)">
<stop stop-color="#FF5543"/>
<stop offset="0.989583" stop-color="#270741" stop-opacity="0"/>
</radialGradient>
<radialGradient id="paint1_radial_2007_16749" cx="0" cy="0" r="1" gradientUnits="userSpaceOnUse" gradientTransform="translate(441 229.194) rotate(74.2548) scale(235.85 300.456)">
<stop stop-color="#A112FF"/>
<stop offset="0.989583" stop-color="#270741" stop-opacity="0"/>
</radialGradient>
<radialGradient id="paint2_radial_2007_16749" cx="0" cy="0" r="1" gradientUnits="userSpaceOnUse" gradientTransform="translate(248 215.194) rotate(63.1085) scale(235.462 237.834)">
<stop stop-color="#00CBEC"/>
<stop offset="0.989583" stop-color="#270741" stop-opacity="0"/>
</radialGradient>
<radialGradient id="paint3_radial_2007_16749" cx="0" cy="0" r="1" gradientUnits="userSpaceOnUse" gradientTransform="translate(439 227.694) rotate(90.1387) scale(206.501 427.227)">
<stop stop-color="#A112FF" stop-opacity="0.81"/>
<stop offset="0.885417" stop-color="#A112FF" stop-opacity="0"/>
</radialGradient>
<linearGradient id="paint4_linear_2007_16749" x1="414.444" y1="343.134" x2="422.549" y2="83.1987" gradientUnits="userSpaceOnUse">
<stop stop-color="#15171E" stop-opacity="0"/>
<stop offset="0.877552" stop-color="#343A4D" stop-opacity="0.49"/>
</linearGradient>
<linearGradient id="paint5_linear_2007_16749" x1="160.082" y1="335.131" x2="530.404" y2="-66.8046" gradientUnits="userSpaceOnUse">
<stop stop-color="#A112FF"/>
<stop offset="1" stop-color="#00CBEC"/>
</linearGradient>
<linearGradient id="paint6_linear_2007_16749" x1="145.031" y1="283.912" x2="627.107" y2="19.4784" gradientUnits="userSpaceOnUse">
<stop stop-color="#00CBEC"/>
<stop offset="0.244792" stop-color="#6952F8"/>
<stop offset="0.453125" stop-color="#A112FF"/>
<stop offset="0.5625" stop-color="#B621D6"/>
<stop offset="1" stop-color="#FF5543"/>
</linearGradient>
<linearGradient id="paint7_linear_2007_16749" x1="279.576" y1="318.385" x2="279.576" y2="372.586" gradientUnits="userSpaceOnUse">
<stop stop-color="#A6B6D9" stop-opacity="0.28"/>
<stop offset="1" stop-color="#6112A3" stop-opacity="0.44"/>
</linearGradient>
<linearGradient id="paint8_linear_2007_16749" x1="584.056" y1="319.537" x2="584.056" y2="373.739" gradientUnits="userSpaceOnUse">
<stop stop-color="#A6B6D9" stop-opacity="0.28"/>
<stop offset="1" stop-color="#6112A3" stop-opacity="0.44"/>
</linearGradient>
<radialGradient id="paint9_radial_2007_16749" cx="0" cy="0" r="1" gradientUnits="userSpaceOnUse" gradientTransform="translate(299.139 190.372) rotate(-95.5549) scale(132.787 288.62)">
<stop offset="0.145833" stop-color="#1E0632"/>
<stop offset="0.540416" stop-color="#270741"/>
<stop offset="0.979167" stop-color="#6112A3"/>
</radialGradient>
<linearGradient id="paint10_linear_2007_16749" x1="136.582" y1="190.372" x2="436.42" y2="116.565" gradientUnits="userSpaceOnUse">
<stop stop-color="white"/>
<stop offset="1" stop-color="white"/>
</linearGradient>
<radialGradient id="paint11_radial_2007_16749" cx="0" cy="0" r="1" gradientUnits="userSpaceOnUse" gradientTransform="translate(573.598 190.372) rotate(-95.5549) scale(132.787 288.62)">
<stop offset="0.145833" stop-color="#1E0632"/>
<stop offset="0.540416" stop-color="#270741"/>
<stop offset="0.979167" stop-color="#6112A3"/>
</radialGradient>
<linearGradient id="paint12_linear_2007_16749" x1="411.041" y1="190.372" x2="710.88" y2="116.565" gradientUnits="userSpaceOnUse">
<stop stop-color="white"/>
<stop offset="1" stop-color="white"/>
</linearGradient>
<clipPath id="clip0_2007_16749">
<rect width="859" height="465" fill="white" transform="translate(0 0.194214)"/>
</clipPath>
</defs>
</svg>
