<svg width="859" height="461" viewBox="0 0 859 461" fill="none" xmlns="http://www.w3.org/2000/svg">
<g clip-path="url(#clip0_3544_19759)">
<path d="M85.9294 -168V626M124.057 -168V626M162.185 -168V626M200.642 -168V626M238.769 -168V626M276.898 -168V626M315.026 -168V626M353.153 -168V626M391.61 -168V626M429.738 -168V626M467.866 -168V626M505.994 -168V626M544.45 -168V626M582.579 -168V626M620.706 -168V626M658.835 -168V626M696.962 -168V626M735.419 -168L735.419 626M773.544 -168V626M811.679 -168V626M47.5 592.726H849.5M47.5 554.405L849.5 554.406M47.5 516.087H849.5M47.5 477.768H849.5M47.5 439.45H849.5M47.5 401.131H849.5M47.5 362.812H849.5M47.5 324.494H849.5M47.5 286.175H849.5M47.5 247.857H849.5M47.5 209.538H849.5M47.5 171.22H849.5M47.5 132.901H849.5M47.5 94.5828H849.5M47.5 56.2643H849.5M47.5 17.9458H849.5M47.5 -20.3728H849.5M47.5 -58.6913H849.5M47.5 -97.0098H849.5M47.5 -135.328H849.5" stroke="url(#paint0_radial_3544_19759)"/>
<path d="M85.9294 -168V626M124.057 -168V626M162.185 -168V626M200.642 -168V626M238.769 -168V626M276.898 -168V626M315.026 -168V626M353.153 -168V626M391.61 -168V626M429.738 -168V626M467.866 -168V626M505.994 -168V626M544.45 -168V626M582.579 -168V626M620.706 -168V626M658.835 -168V626M696.962 -168V626M735.419 -168L735.419 626M773.544 -168V626M811.679 -168V626M47.5 592.726H849.5M47.5 554.405L849.5 554.406M47.5 516.087H849.5M47.5 477.768H849.5M47.5 439.45H849.5M47.5 401.131H849.5M47.5 362.812H849.5M47.5 324.494H849.5M47.5 286.175H849.5M47.5 247.857H849.5M47.5 209.538H849.5M47.5 171.22H849.5M47.5 132.901H849.5M47.5 94.5828H849.5M47.5 56.2643H849.5M47.5 17.9458H849.5M47.5 -20.3728H849.5M47.5 -58.6913H849.5M47.5 -97.0098H849.5M47.5 -135.328H849.5" stroke="url(#paint1_radial_3544_19759)"/>
<path d="M85.9294 -168V626M124.057 -168V626M162.185 -168V626M200.642 -168V626M238.769 -168V626M276.898 -168V626M315.026 -168V626M353.153 -168V626M391.61 -168V626M429.738 -168V626M467.866 -168V626M505.994 -168V626M544.45 -168V626M582.579 -168V626M620.706 -168V626M658.835 -168V626M696.962 -168V626M735.419 -168L735.419 626M773.544 -168V626M811.679 -168V626M47.5 592.726H849.5M47.5 554.405L849.5 554.406M47.5 516.087H849.5M47.5 477.768H849.5M47.5 439.45H849.5M47.5 401.131H849.5M47.5 362.812H849.5M47.5 324.494H849.5M47.5 286.175H849.5M47.5 247.857H849.5M47.5 209.538H849.5M47.5 171.22H849.5M47.5 132.901H849.5M47.5 94.5828H849.5M47.5 56.2643H849.5M47.5 17.9458H849.5M47.5 -20.3728H849.5M47.5 -58.6913H849.5M47.5 -97.0098H849.5M47.5 -135.328H849.5" stroke="url(#paint2_radial_3544_19759)"/>
<ellipse cx="439" cy="227.5" rx="502.5" ry="232.5" fill="url(#paint3_radial_3544_19759)" fill-opacity="0.4"/>
<rect x="136" y="114.055" width="586.99" height="185.669" rx="23" fill="#210E30"/>
<rect x="136" y="114.055" width="586.99" height="185.669" rx="23" fill="url(#paint4_linear_3544_19759)"/>
<rect x="136" y="114.055" width="586.99" height="185.669" rx="23" fill="url(#paint5_linear_3544_19759)" fill-opacity="0.24"/>
<rect x="136.5" y="114.555" width="585.99" height="184.669" rx="22.5" stroke="white" stroke-opacity="0.3"/>
<g filter="url(#filter0_f_3544_19759)">
<rect x="136" y="114.055" width="586.99" height="185.669" rx="23" fill="url(#paint6_linear_3544_19759)"/>
<rect x="136.5" y="114.555" width="585.99" height="184.669" rx="22.5" stroke="white" stroke-opacity="0.3"/>
</g>
<path d="M300.91 244.444C299.41 244.444 298.1 244.144 296.98 243.544C295.86 242.944 294.99 241.984 294.37 240.664C293.77 239.344 293.47 237.614 293.47 235.474V224.464H296.95V235.744C296.95 237.164 297.11 238.294 297.43 239.134C297.77 239.954 298.24 240.544 298.84 240.904C299.44 241.244 300.13 241.414 300.91 241.414C301.71 241.414 302.41 241.244 303.01 240.904C303.63 240.544 304.11 239.954 304.45 239.134C304.81 238.294 304.99 237.164 304.99 235.744V224.464H308.32V235.474C308.32 237.614 308.02 239.344 307.42 240.664C306.82 241.984 305.96 242.944 304.84 243.544C303.74 244.144 302.43 244.444 300.91 244.444ZM312.918 244.084V229.354H315.768L316.008 231.334H316.128C316.788 230.694 317.508 230.144 318.288 229.684C319.068 229.224 319.958 228.994 320.958 228.994C322.538 228.994 323.688 229.504 324.408 230.524C325.128 231.544 325.488 232.984 325.488 234.844V244.084H322.038V235.294C322.038 234.074 321.858 233.214 321.498 232.714C321.138 232.214 320.548 231.964 319.728 231.964C319.088 231.964 318.518 232.124 318.018 232.444C317.538 232.744 316.988 233.194 316.368 233.794V244.084H312.918ZM329.705 244.084V229.354H333.155V244.084H329.705ZM331.445 226.774C330.825 226.774 330.325 226.594 329.945 226.234C329.565 225.874 329.375 225.394 329.375 224.794C329.375 224.214 329.565 223.744 329.945 223.384C330.325 223.024 330.825 222.844 331.445 222.844C332.065 222.844 332.565 223.024 332.945 223.384C333.325 223.744 333.515 224.214 333.515 224.794C333.515 225.394 333.325 225.874 332.945 226.234C332.565 226.594 332.065 226.774 331.445 226.774ZM340.856 244.084L335.726 229.354H339.236L341.576 237.004C341.776 237.724 341.976 238.454 342.176 239.194C342.396 239.934 342.606 240.684 342.806 241.444H342.926C343.146 240.684 343.356 239.934 343.556 239.194C343.776 238.454 343.986 237.724 344.186 237.004L346.526 229.354H349.856L344.846 244.084H340.856ZM358.534 244.444C357.174 244.444 355.944 244.144 354.844 243.544C353.744 242.924 352.874 242.044 352.234 240.904C351.594 239.744 351.274 238.354 351.274 236.734C351.274 235.134 351.594 233.754 352.234 232.594C352.894 231.434 353.744 230.544 354.784 229.924C355.824 229.304 356.914 228.994 358.054 228.994C359.394 228.994 360.514 229.294 361.414 229.894C362.314 230.474 362.994 231.294 363.454 232.354C363.914 233.394 364.144 234.604 364.144 235.984C364.144 236.704 364.094 237.264 363.994 237.664H354.634C354.794 238.964 355.264 239.974 356.044 240.694C356.824 241.414 357.804 241.774 358.984 241.774C359.624 241.774 360.214 241.684 360.754 241.504C361.314 241.304 361.864 241.034 362.404 240.694L363.574 242.854C362.874 243.314 362.094 243.694 361.234 243.994C360.374 244.294 359.474 244.444 358.534 244.444ZM354.604 235.324H361.144C361.144 234.184 360.894 233.294 360.394 232.654C359.894 231.994 359.144 231.664 358.144 231.664C357.284 231.664 356.514 231.984 355.834 232.624C355.174 233.244 354.764 234.144 354.604 235.324ZM367.439 244.084V229.354H370.289L370.529 231.964H370.649C371.169 231.004 371.799 230.274 372.539 229.774C373.279 229.254 374.039 228.994 374.819 228.994C375.519 228.994 376.079 229.094 376.499 229.294L375.899 232.294C375.639 232.214 375.399 232.154 375.179 232.114C374.959 232.074 374.689 232.054 374.369 232.054C373.789 232.054 373.179 232.284 372.539 232.744C371.899 233.184 371.349 233.964 370.889 235.084V244.084H367.439ZM382.565 244.444C381.565 244.444 380.565 244.254 379.565 243.874C378.565 243.474 377.705 242.984 376.985 242.404L378.605 240.184C379.265 240.684 379.925 241.084 380.585 241.384C381.245 241.684 381.945 241.834 382.685 241.834C383.485 241.834 384.075 241.664 384.455 241.324C384.835 240.984 385.025 240.564 385.025 240.064C385.025 239.644 384.865 239.304 384.545 239.044C384.245 238.764 383.855 238.524 383.375 238.324C382.895 238.104 382.395 237.894 381.875 237.694C381.235 237.454 380.595 237.164 379.955 236.824C379.335 236.464 378.825 236.014 378.425 235.474C378.025 234.914 377.825 234.224 377.825 233.404C377.825 232.104 378.305 231.044 379.265 230.224C380.225 229.404 381.525 228.994 383.165 228.994C384.205 228.994 385.135 229.174 385.955 229.534C386.775 229.894 387.485 230.304 388.085 230.764L386.495 232.864C385.975 232.484 385.445 232.184 384.905 231.964C384.385 231.724 383.835 231.604 383.255 231.604C382.515 231.604 381.965 231.764 381.605 232.084C381.245 232.384 381.065 232.764 381.065 233.224C381.065 233.804 381.365 234.244 381.965 234.544C382.565 234.844 383.265 235.134 384.065 235.414C384.745 235.654 385.405 235.954 386.045 236.314C386.685 236.654 387.215 237.104 387.635 237.664C388.075 238.224 388.295 238.964 388.295 239.884C388.295 241.144 387.805 242.224 386.825 243.124C385.845 244.004 384.425 244.444 382.565 244.444ZM394.945 244.444C393.665 244.444 392.615 244.044 391.795 243.244C390.995 242.444 390.595 241.404 390.595 240.124C390.595 238.544 391.285 237.324 392.665 236.464C394.045 235.584 396.245 234.984 399.265 234.664C399.245 233.884 399.035 233.214 398.635 232.654C398.255 232.074 397.565 231.784 396.565 231.784C395.845 231.784 395.135 231.924 394.435 232.204C393.755 232.484 393.085 232.824 392.425 233.224L391.165 230.914C391.985 230.394 392.905 229.944 393.925 229.564C394.965 229.184 396.065 228.994 397.225 228.994C399.065 228.994 400.435 229.544 401.335 230.644C402.255 231.724 402.715 233.294 402.715 235.354V244.084H399.865L399.625 242.464H399.505C398.845 243.024 398.135 243.494 397.375 243.874C396.635 244.254 395.825 244.444 394.945 244.444ZM396.055 241.744C396.655 241.744 397.195 241.604 397.675 241.324C398.175 241.024 398.705 240.624 399.265 240.124V236.824C397.265 237.084 395.875 237.474 395.095 237.994C394.315 238.494 393.925 239.114 393.925 239.854C393.925 240.514 394.125 240.994 394.525 241.294C394.925 241.594 395.435 241.744 396.055 241.744ZM410.204 244.444C408.984 244.444 408.114 244.074 407.594 243.334C407.094 242.594 406.844 241.584 406.844 240.304V222.904H410.294V240.484C410.294 240.904 410.374 241.204 410.534 241.384C410.694 241.544 410.864 241.624 411.044 241.624C411.124 241.624 411.194 241.624 411.254 241.624C411.334 241.604 411.444 241.584 411.584 241.564L412.034 244.144C411.834 244.224 411.574 244.294 411.254 244.354C410.954 244.414 410.604 244.444 410.204 244.444ZM429.124 244.444C427.484 244.444 425.994 244.054 424.654 243.274C423.314 242.494 422.244 241.354 421.444 239.854C420.664 238.334 420.274 236.494 420.274 234.334C420.274 232.194 420.674 230.364 421.474 228.844C422.294 227.304 423.384 226.134 424.744 225.334C426.104 224.514 427.604 224.104 429.244 224.104C430.484 224.104 431.584 224.354 432.544 224.854C433.504 225.354 434.294 225.934 434.914 226.594L433.054 228.844C432.554 228.324 431.994 227.914 431.374 227.614C430.774 227.294 430.094 227.134 429.334 227.134C428.274 227.134 427.324 227.424 426.484 228.004C425.664 228.564 425.014 229.374 424.534 230.434C424.074 231.494 423.844 232.764 423.844 234.244C423.844 236.484 424.334 238.244 425.314 239.524C426.294 240.784 427.604 241.414 429.244 241.414C430.124 241.414 430.904 241.234 431.584 240.874C432.264 240.494 432.884 240.004 433.444 239.404L435.304 241.594C434.504 242.514 433.584 243.224 432.544 243.724C431.524 244.204 430.384 244.444 429.124 244.444ZM444.309 244.444C443.089 244.444 441.949 244.144 440.889 243.544C439.829 242.924 438.969 242.044 438.309 240.904C437.649 239.744 437.319 238.354 437.319 236.734C437.319 235.094 437.649 233.704 438.309 232.564C438.969 231.404 439.829 230.524 440.889 229.924C441.949 229.304 443.089 228.994 444.309 228.994C445.549 228.994 446.699 229.304 447.759 229.924C448.819 230.524 449.679 231.404 450.339 232.564C450.999 233.704 451.329 235.094 451.329 236.734C451.329 238.354 450.999 239.744 450.339 240.904C449.679 242.044 448.819 242.924 447.759 243.544C446.699 244.144 445.549 244.444 444.309 244.444ZM444.309 241.624C445.389 241.624 446.239 241.174 446.859 240.274C447.479 239.374 447.789 238.194 447.789 236.734C447.789 235.254 447.479 234.064 446.859 233.164C446.239 232.264 445.389 231.814 444.309 231.814C443.229 231.814 442.379 232.264 441.759 233.164C441.159 234.064 440.859 235.254 440.859 236.734C440.859 238.194 441.159 239.374 441.759 240.274C442.379 241.174 443.229 241.624 444.309 241.624ZM459.904 244.444C458.064 244.444 456.594 243.764 455.494 242.404C454.394 241.044 453.844 239.154 453.844 236.734C453.844 235.134 454.134 233.754 454.714 232.594C455.314 231.434 456.094 230.544 457.054 229.924C458.014 229.304 459.024 228.994 460.084 228.994C460.924 228.994 461.634 229.144 462.214 229.444C462.814 229.724 463.394 230.114 463.954 230.614L463.834 228.244V222.904H467.284V244.084H464.434L464.194 242.494H464.074C463.534 243.034 462.904 243.494 462.184 243.874C461.464 244.254 460.704 244.444 459.904 244.444ZM460.744 241.594C461.844 241.594 462.874 241.044 463.834 239.944V233.074C463.334 232.614 462.834 232.294 462.334 232.114C461.834 231.934 461.334 231.844 460.834 231.844C459.894 231.844 459.084 232.274 458.404 233.134C457.744 233.974 457.414 235.164 457.414 236.704C457.414 238.284 457.704 239.494 458.284 240.334C458.864 241.174 459.684 241.594 460.744 241.594ZM477.978 244.444C476.618 244.444 475.388 244.144 474.288 243.544C473.188 242.924 472.318 242.044 471.678 240.904C471.038 239.744 470.718 238.354 470.718 236.734C470.718 235.134 471.038 233.754 471.678 232.594C472.338 231.434 473.188 230.544 474.228 229.924C475.268 229.304 476.358 228.994 477.498 228.994C478.838 228.994 479.958 229.294 480.858 229.894C481.758 230.474 482.438 231.294 482.898 232.354C483.358 233.394 483.588 234.604 483.588 235.984C483.588 236.704 483.538 237.264 483.438 237.664H474.078C474.238 238.964 474.708 239.974 475.488 240.694C476.268 241.414 477.248 241.774 478.428 241.774C479.068 241.774 479.658 241.684 480.198 241.504C480.758 241.304 481.308 241.034 481.848 240.694L483.018 242.854C482.318 243.314 481.538 243.694 480.678 243.994C479.818 244.294 478.918 244.444 477.978 244.444ZM474.048 235.324H480.588C480.588 234.184 480.338 233.294 479.838 232.654C479.338 231.994 478.588 231.664 477.588 231.664C476.728 231.664 475.958 231.984 475.278 232.624C474.618 233.244 474.208 234.144 474.048 235.324ZM501.408 244.444C499.648 244.444 498.068 244.054 496.668 243.274C495.268 242.494 494.168 241.354 493.368 239.854C492.568 238.334 492.168 236.494 492.168 234.334C492.168 232.194 492.578 230.364 493.398 228.844C494.218 227.304 495.328 226.134 496.728 225.334C498.128 224.514 499.698 224.104 501.438 224.104C502.838 224.104 504.018 224.364 504.978 224.884C505.958 225.384 506.758 225.954 507.378 226.594L505.518 228.844C505.018 228.364 504.458 227.964 503.838 227.644C503.238 227.304 502.478 227.134 501.558 227.134C499.818 227.134 498.408 227.774 497.328 229.054C496.268 230.314 495.738 232.044 495.738 234.244C495.738 236.484 496.248 238.244 497.268 239.524C498.288 240.784 499.778 241.414 501.738 241.414C502.298 241.414 502.828 241.344 503.328 241.204C503.828 241.044 504.238 240.824 504.558 240.544V236.314H500.838V233.464H507.678V242.104C507.018 242.764 506.138 243.324 505.038 243.784C503.958 244.224 502.748 244.444 501.408 244.444ZM511.726 244.084V229.354H514.576L514.816 231.964H514.936C515.456 231.004 516.086 230.274 516.826 229.774C517.566 229.254 518.326 228.994 519.106 228.994C519.806 228.994 520.366 229.094 520.786 229.294L520.186 232.294C519.926 232.214 519.686 232.154 519.466 232.114C519.246 232.074 518.976 232.054 518.656 232.054C518.076 232.054 517.466 232.284 516.826 232.744C516.186 233.184 515.636 233.964 515.176 235.084V244.084H511.726ZM525.697 244.444C524.417 244.444 523.367 244.044 522.547 243.244C521.747 242.444 521.347 241.404 521.347 240.124C521.347 238.544 522.037 237.324 523.417 236.464C524.797 235.584 526.997 234.984 530.017 234.664C529.997 233.884 529.787 233.214 529.387 232.654C529.007 232.074 528.317 231.784 527.317 231.784C526.597 231.784 525.887 231.924 525.187 232.204C524.507 232.484 523.837 232.824 523.177 233.224L521.917 230.914C522.737 230.394 523.657 229.944 524.677 229.564C525.717 229.184 526.817 228.994 527.977 228.994C529.817 228.994 531.187 229.544 532.087 230.644C533.007 231.724 533.467 233.294 533.467 235.354V244.084H530.617L530.377 242.464H530.257C529.597 243.024 528.887 243.494 528.127 243.874C527.387 244.254 526.577 244.444 525.697 244.444ZM526.807 241.744C527.407 241.744 527.947 241.604 528.427 241.324C528.927 241.024 529.457 240.624 530.017 240.124V236.824C528.017 237.084 526.627 237.474 525.847 237.994C525.067 238.494 524.677 239.114 524.677 239.854C524.677 240.514 524.877 240.994 525.277 241.294C525.677 241.594 526.187 241.744 526.807 241.744ZM537.596 249.904V229.354H540.446L540.686 230.914H540.806C541.426 230.394 542.116 229.944 542.876 229.564C543.656 229.184 544.446 228.994 545.246 228.994C547.086 228.994 548.506 229.674 549.506 231.034C550.526 232.394 551.036 234.214 551.036 236.494C551.036 238.174 550.736 239.614 550.136 240.814C549.536 241.994 548.756 242.894 547.796 243.514C546.856 244.134 545.836 244.444 544.736 244.444C544.096 244.444 543.456 244.304 542.816 244.024C542.176 243.724 541.556 243.324 540.956 242.824L541.046 245.284V249.904H537.596ZM544.016 241.594C544.996 241.594 545.816 241.164 546.476 240.304C547.136 239.444 547.466 238.184 547.466 236.524C547.466 235.044 547.216 233.894 546.716 233.074C546.216 232.254 545.406 231.844 544.286 231.844C543.246 231.844 542.166 232.394 541.046 233.494V240.364C541.586 240.804 542.106 241.124 542.606 241.324C543.106 241.504 543.576 241.594 544.016 241.594ZM554.529 244.084V222.904H557.979V228.364L557.859 231.214C558.479 230.634 559.169 230.124 559.929 229.684C560.689 229.224 561.569 228.994 562.569 228.994C564.149 228.994 565.299 229.504 566.019 230.524C566.739 231.544 567.099 232.984 567.099 234.844V244.084H563.649V235.294C563.649 234.074 563.469 233.214 563.109 232.714C562.749 232.214 562.159 231.964 561.339 231.964C560.699 231.964 560.129 232.124 559.629 232.444C559.149 232.744 558.599 233.194 557.979 233.794V244.084H554.529Z" fill="white"/>
<g filter="url(#filter1_d_3544_19759)">
<rect x="136" y="318.19" width="287.153" height="54.2015" rx="15" fill="url(#paint7_linear_3544_19759)"/>
<rect x="136.5" y="318.69" width="286.153" height="53.2015" rx="14.5" stroke="white" stroke-opacity="0.3"/>
<path d="M264.203 352.66C263.109 352.66 262.116 352.4 261.223 351.88C260.329 351.36 259.616 350.6 259.083 349.6C258.563 348.587 258.303 347.36 258.303 345.92C258.303 344.494 258.569 343.274 259.103 342.26C259.649 341.234 260.376 340.454 261.283 339.92C262.189 339.374 263.189 339.1 264.283 339.1C265.109 339.1 265.843 339.267 266.483 339.6C267.123 339.934 267.649 340.32 268.063 340.76L266.823 342.26C266.489 341.914 266.116 341.64 265.703 341.44C265.303 341.227 264.849 341.12 264.343 341.12C263.636 341.12 263.003 341.314 262.443 341.7C261.896 342.074 261.463 342.614 261.143 343.32C260.836 344.027 260.683 344.874 260.683 345.86C260.683 347.354 261.009 348.527 261.663 349.38C262.316 350.22 263.189 350.64 264.283 350.64C264.869 350.64 265.389 350.52 265.843 350.28C266.296 350.027 266.709 349.7 267.083 349.3L268.323 350.76C267.789 351.374 267.176 351.847 266.483 352.18C265.803 352.5 265.043 352.66 264.203 352.66ZM274.326 352.66C273.513 352.66 272.753 352.46 272.046 352.06C271.339 351.647 270.766 351.06 270.326 350.3C269.886 349.527 269.666 348.6 269.666 347.52C269.666 346.427 269.886 345.5 270.326 344.74C270.766 343.967 271.339 343.38 272.046 342.98C272.753 342.567 273.513 342.36 274.326 342.36C275.153 342.36 275.919 342.567 276.626 342.98C277.333 343.38 277.906 343.967 278.346 344.74C278.786 345.5 279.006 346.427 279.006 347.52C279.006 348.6 278.786 349.527 278.346 350.3C277.906 351.06 277.333 351.647 276.626 352.06C275.919 352.46 275.153 352.66 274.326 352.66ZM274.326 350.78C275.046 350.78 275.613 350.48 276.026 349.88C276.439 349.28 276.646 348.494 276.646 347.52C276.646 346.534 276.439 345.74 276.026 345.14C275.613 344.54 275.046 344.24 274.326 344.24C273.606 344.24 273.039 344.54 272.626 345.14C272.226 345.74 272.026 346.534 272.026 347.52C272.026 348.494 272.226 349.28 272.626 349.88C273.039 350.48 273.606 350.78 274.326 350.78ZM284.723 352.66C283.496 352.66 282.516 352.207 281.783 351.3C281.049 350.394 280.683 349.134 280.683 347.52C280.683 346.454 280.876 345.534 281.263 344.76C281.663 343.987 282.183 343.394 282.823 342.98C283.463 342.567 284.136 342.36 284.843 342.36C285.403 342.36 285.876 342.46 286.263 342.66C286.663 342.847 287.049 343.107 287.423 343.44L287.343 341.86V338.3H289.643V352.42H287.743L287.583 351.36H287.503C287.143 351.72 286.723 352.027 286.243 352.28C285.763 352.534 285.256 352.66 284.723 352.66ZM285.283 350.76C286.016 350.76 286.703 350.394 287.343 349.66V345.08C287.009 344.774 286.676 344.56 286.343 344.44C286.009 344.32 285.676 344.26 285.343 344.26C284.716 344.26 284.176 344.547 283.723 345.12C283.283 345.68 283.063 346.474 283.063 347.5C283.063 348.554 283.256 349.36 283.643 349.92C284.029 350.48 284.576 350.76 285.283 350.76ZM296.772 352.66C295.865 352.66 295.045 352.46 294.312 352.06C293.578 351.647 292.998 351.06 292.572 350.3C292.145 349.527 291.932 348.6 291.932 347.52C291.932 346.454 292.145 345.534 292.572 344.76C293.012 343.987 293.578 343.394 294.272 342.98C294.965 342.567 295.692 342.36 296.452 342.36C297.345 342.36 298.092 342.56 298.692 342.96C299.292 343.347 299.745 343.894 300.052 344.6C300.358 345.294 300.512 346.1 300.512 347.02C300.512 347.5 300.478 347.874 300.412 348.14H294.172C294.278 349.007 294.592 349.68 295.112 350.16C295.632 350.64 296.285 350.88 297.072 350.88C297.498 350.88 297.892 350.82 298.252 350.7C298.625 350.567 298.992 350.387 299.352 350.16L300.132 351.6C299.665 351.907 299.145 352.16 298.572 352.36C297.998 352.56 297.398 352.66 296.772 352.66ZM294.152 346.58H298.512C298.512 345.82 298.345 345.227 298.012 344.8C297.678 344.36 297.178 344.14 296.512 344.14C295.938 344.14 295.425 344.354 294.972 344.78C294.532 345.194 294.258 345.794 294.152 346.58Z" fill="white"/>
</g>
<g filter="url(#filter2_d_3544_19759)">
<rect x="445.062" y="319.343" width="277.988" height="54.2015" rx="15" fill="url(#paint8_linear_3544_19759)"/>
<rect x="445.562" y="319.843" width="276.988" height="53.2015" rx="14.5" stroke="white" stroke-opacity="0.3"/>
<path d="M567.948 353.571V340.491H570.268V351.611H575.708V353.571H567.948ZM577.987 353.571V340.491H580.307V351.611H585.747V353.571H577.987ZM588.026 353.571V340.491H590.646L592.966 346.891C593.113 347.304 593.253 347.731 593.386 348.171C593.533 348.598 593.673 349.024 593.806 349.451H593.886C594.033 349.024 594.173 348.598 594.306 348.171C594.44 347.731 594.573 347.304 594.706 346.891L596.966 340.491H599.606V353.571H597.466V347.591C597.466 347.178 597.48 346.731 597.506 346.251C597.546 345.758 597.586 345.264 597.626 344.771C597.68 344.278 597.726 343.831 597.766 343.431H597.686L596.626 346.471L594.486 352.351H593.106L590.946 346.471L589.906 343.431H589.826C589.866 343.831 589.906 344.278 589.946 344.771C590 345.264 590.04 345.758 590.066 346.251C590.106 346.731 590.126 347.178 590.126 347.591V353.571H588.026Z" fill="white"/>
</g>
<g filter="url(#filter3_d_3544_19759)">
<rect x="170.602" y="91" width="246.79" height="99.1774" rx="11" fill="url(#paint9_radial_3544_19759)" fill-opacity="0.9" shape-rendering="crispEdges"/>
<rect x="171.102" y="91.5" width="245.79" height="98.1774" rx="10.5" stroke="url(#paint10_linear_3544_19759)" stroke-opacity="0.4" shape-rendering="crispEdges"/>
</g>
<path d="M288.586 149.904C286.767 149.904 285.115 149.472 283.628 148.608C282.142 147.744 280.955 146.481 280.068 144.82C279.203 143.136 278.77 141.098 278.77 138.706C278.77 136.335 279.214 134.308 280.101 132.624C281.011 130.919 282.22 129.623 283.728 128.736C285.237 127.828 286.9 127.374 288.719 127.374C290.095 127.374 291.315 127.651 292.38 128.205C293.444 128.759 294.321 129.401 295.008 130.132L292.945 132.624C292.391 132.048 291.769 131.594 291.082 131.262C290.416 130.907 289.662 130.73 288.819 130.73C287.643 130.73 286.59 131.051 285.658 131.694C284.749 132.314 284.028 133.211 283.495 134.386C282.985 135.56 282.73 136.966 282.73 138.606C282.73 141.087 283.273 143.037 284.36 144.454C285.447 145.85 286.9 146.548 288.719 146.548C289.695 146.548 290.561 146.349 291.315 145.95C292.069 145.529 292.757 144.986 293.378 144.322L295.441 146.747C294.553 147.766 293.533 148.553 292.38 149.107C291.248 149.638 289.984 149.904 288.586 149.904Z" fill="white"/>
<path d="M304.347 149.904C302.994 149.904 301.73 149.572 300.554 148.907C299.378 148.221 298.425 147.246 297.693 145.983C296.96 144.698 296.594 143.158 296.594 141.364C296.594 139.547 296.96 138.008 297.693 136.745C298.425 135.46 299.378 134.485 300.554 133.821C301.73 133.134 302.994 132.791 304.347 132.791C305.723 132.791 306.998 133.134 308.174 133.821C309.35 134.485 310.304 135.46 311.036 136.745C311.768 138.008 312.134 139.547 312.134 141.364C312.134 143.158 311.768 144.698 311.036 145.983C310.304 147.246 309.35 148.221 308.174 148.907C306.998 149.572 305.723 149.904 304.347 149.904ZM304.347 146.781C305.545 146.781 306.488 146.282 307.176 145.285C307.863 144.288 308.207 142.981 308.207 141.364C308.207 139.725 307.863 138.406 307.176 137.41C306.488 136.413 305.545 135.914 304.347 135.914C303.15 135.914 302.207 136.413 301.519 137.41C300.854 138.406 300.521 139.725 300.521 141.364C300.521 142.981 300.854 144.288 301.519 145.285C302.207 146.282 303.15 146.781 304.347 146.781Z" fill="white"/>
<path d="M320.646 149.904C318.605 149.904 316.975 149.151 315.755 147.645C314.535 146.138 313.925 144.045 313.925 141.364C313.925 139.592 314.246 138.063 314.89 136.778C315.555 135.493 316.42 134.507 317.485 133.821C318.55 133.134 319.67 132.791 320.846 132.791C321.778 132.791 322.565 132.957 323.208 133.289C323.874 133.599 324.517 134.031 325.138 134.585L325.005 131.96V126.045H328.832V149.505H325.671L325.404 147.744H325.271C324.672 148.342 323.974 148.852 323.175 149.273C322.376 149.694 321.533 149.904 320.646 149.904ZM321.578 146.747C322.798 146.747 323.94 146.138 325.005 144.92V137.31C324.451 136.8 323.896 136.446 323.341 136.246C322.787 136.047 322.232 135.947 321.678 135.947C320.635 135.947 319.737 136.424 318.982 137.376C318.25 138.307 317.884 139.625 317.884 141.331C317.884 143.081 318.206 144.421 318.849 145.352C319.493 146.282 320.402 146.747 321.578 146.747Z" fill="white"/>
<path d="M333.805 156.218C333.361 156.218 332.973 156.185 332.64 156.118C332.307 156.052 331.986 155.974 331.675 155.886L332.374 152.895C332.529 152.939 332.707 152.984 332.906 153.028C333.128 153.094 333.339 153.128 333.538 153.128C334.404 153.128 335.091 152.862 335.601 152.33C336.134 151.821 336.533 151.156 336.799 150.336L337.099 149.306L330.677 133.189H334.57L337.398 141.198C337.642 141.907 337.875 142.66 338.097 143.458C338.341 144.233 338.585 145.008 338.829 145.784H338.962C339.162 145.03 339.362 144.266 339.561 143.491C339.783 142.693 339.994 141.929 340.193 141.198L342.656 133.189H346.349L340.426 150.237C339.739 152.075 338.907 153.526 337.931 154.59C336.955 155.675 335.579 156.218 333.805 156.218Z" fill="white"/>
<path fill-rule="evenodd" clip-rule="evenodd" d="M262.33 127.401C263.698 127.401 264.807 128.58 264.807 130.033L264.807 136.028C264.807 137.482 263.698 138.66 262.33 138.66C260.962 138.66 259.853 137.482 259.853 136.028L259.853 130.033C259.853 128.58 260.962 127.401 262.33 127.401Z" fill="#FF5543"/>
<path fill-rule="evenodd" clip-rule="evenodd" d="M242.738 134.153C242.738 132.661 243.916 131.451 245.368 131.451H251.367C252.819 131.451 253.997 132.661 253.997 134.153C253.997 135.646 252.819 136.855 251.367 136.855H245.368C243.916 136.855 242.738 135.646 242.738 134.153Z" fill="#A112FF"/>
<path fill-rule="evenodd" clip-rule="evenodd" d="M245.716 143.727C244.831 142.594 243.173 142.368 242.003 143.225C240.829 144.086 240.592 145.712 241.474 146.857L243.6 145.299C241.474 146.857 241.475 146.858 241.476 146.859L241.477 146.861L241.481 146.866L241.489 146.876C241.495 146.884 241.502 146.893 241.51 146.903C241.526 146.923 241.546 146.948 241.57 146.978C241.619 147.037 241.684 147.115 241.766 147.208C241.93 147.395 242.161 147.645 242.459 147.937C243.054 148.52 243.926 149.28 245.076 150.036C247.384 151.552 250.83 153.063 255.352 153.063C259.874 153.063 263.32 151.552 265.628 150.036C266.778 149.28 267.65 148.52 268.245 147.937C268.543 147.645 268.774 147.395 268.938 147.208C269.02 147.115 269.085 147.037 269.134 146.978C269.158 146.948 269.178 146.923 269.194 146.903C269.202 146.893 269.209 146.884 269.215 146.876L269.223 146.866L269.227 146.861L269.229 146.859C269.229 146.858 269.23 146.857 267.104 145.299L269.23 146.857C270.112 145.712 269.875 144.086 268.701 143.225C267.531 142.368 265.873 142.594 264.988 143.727C264.987 143.729 264.984 143.732 264.98 143.737C264.967 143.753 264.939 143.787 264.897 143.835C264.813 143.931 264.672 144.084 264.476 144.277C264.081 144.663 263.473 145.196 262.656 145.733C261.031 146.801 258.601 147.875 255.352 147.875C252.103 147.875 249.673 146.801 248.048 145.733C247.231 145.196 246.623 144.663 246.229 144.277C246.032 144.084 245.892 143.931 245.807 143.835C245.765 143.787 245.737 143.753 245.724 143.737C245.72 143.732 245.717 143.729 245.716 143.727ZM264.98 143.738L264.98 143.738L264.98 143.738M264.99 143.725L264.99 143.725L264.99 143.725Z" fill="#00CBEC"/>
<g filter="url(#filter4_d_3544_19759)">
<rect x="445.062" y="91" width="246.79" height="99.1774" rx="11" fill="url(#paint11_radial_3544_19759)" fill-opacity="0.9" shape-rendering="crispEdges"/>
<rect x="445.562" y="91.5" width="245.79" height="98.1774" rx="10.5" stroke="url(#paint12_linear_3544_19759)" stroke-opacity="0.4" shape-rendering="crispEdges"/>
</g>
<path d="M517.453 152.051C515.764 152.051 514.23 151.65 512.85 150.846C511.47 150.043 510.368 148.869 509.544 147.325C508.741 145.76 508.34 143.865 508.34 141.641C508.34 139.437 508.751 137.553 509.575 135.988C510.42 134.402 511.542 133.197 512.942 132.373C514.343 131.529 515.887 131.107 517.576 131.107C518.853 131.107 519.986 131.364 520.974 131.879C521.963 132.394 522.776 132.991 523.415 133.671L521.499 135.988C520.985 135.452 520.408 135.03 519.769 134.721C519.152 134.392 518.451 134.227 517.669 134.227C516.577 134.227 515.599 134.525 514.734 135.123C513.89 135.699 513.22 136.533 512.726 137.625C512.253 138.716 512.016 140.024 512.016 141.548C512.016 143.855 512.52 145.667 513.529 146.985C514.538 148.282 515.887 148.931 517.576 148.931C518.482 148.931 519.285 148.746 519.986 148.375C520.686 147.984 521.324 147.479 521.901 146.861L523.816 149.117C522.992 150.064 522.045 150.795 520.974 151.31C519.924 151.804 518.75 152.051 517.453 152.051Z" fill="white"/>
<path d="M532.085 152.051C530.829 152.051 529.655 151.742 528.563 151.124C527.472 150.486 526.586 149.58 525.907 148.406C525.227 147.212 524.887 145.78 524.887 144.112C524.887 142.423 525.227 140.992 525.907 139.818C526.586 138.624 527.472 137.718 528.563 137.1C529.655 136.461 530.829 136.142 532.085 136.142C533.362 136.142 534.546 136.461 535.638 137.1C536.729 137.718 537.615 138.624 538.294 139.818C538.974 140.992 539.314 142.423 539.314 144.112C539.314 145.78 538.974 147.212 538.294 148.406C537.615 149.58 536.729 150.486 535.638 151.124C534.546 151.742 533.362 152.051 532.085 152.051ZM532.085 149.147C533.197 149.147 534.072 148.684 534.711 147.757C535.349 146.831 535.668 145.616 535.668 144.112C535.668 142.588 535.349 141.363 534.711 140.436C534.072 139.509 533.197 139.046 532.085 139.046C530.973 139.046 530.098 139.509 529.459 140.436C528.841 141.363 528.532 142.588 528.532 144.112C528.532 145.616 528.841 146.831 529.459 147.757C530.098 148.684 530.973 149.147 532.085 149.147Z" fill="white"/>
<path d="M547.139 152.051C545.245 152.051 543.731 151.351 542.598 149.951C541.466 148.55 540.899 146.604 540.899 144.112C540.899 142.465 541.198 141.044 541.795 139.849C542.413 138.655 543.216 137.738 544.205 137.1C545.193 136.461 546.233 136.142 547.325 136.142C548.19 136.142 548.921 136.297 549.518 136.605C550.136 136.894 550.733 137.295 551.31 137.81L551.186 135.37V129.871H554.739V151.681H551.804L551.557 150.043H551.433C550.877 150.599 550.228 151.073 549.487 151.464C548.746 151.856 547.963 152.051 547.139 152.051ZM548.004 149.117C549.137 149.117 550.198 148.55 551.186 147.418V140.343C550.671 139.87 550.156 139.54 549.642 139.355C549.127 139.169 548.612 139.077 548.097 139.077C547.129 139.077 546.295 139.52 545.595 140.405C544.915 141.27 544.575 142.495 544.575 144.081C544.575 145.708 544.874 146.954 545.471 147.819C546.068 148.684 546.913 149.117 548.004 149.117Z" fill="white"/>
<path d="M564.746 152.051C563.346 152.051 562.079 151.742 560.946 151.124C559.814 150.486 558.918 149.58 558.259 148.406C557.6 147.212 557.27 145.78 557.27 144.112C557.27 142.465 557.6 141.044 558.259 139.849C558.938 138.655 559.814 137.738 560.885 137.1C561.955 136.461 563.078 136.142 564.252 136.142C565.632 136.142 566.785 136.451 567.712 137.069C568.638 137.666 569.339 138.51 569.812 139.602C570.286 140.673 570.523 141.919 570.523 143.34C570.523 144.081 570.471 144.658 570.368 145.07H560.73C560.895 146.408 561.379 147.448 562.182 148.19C562.985 148.931 563.994 149.302 565.209 149.302C565.868 149.302 566.476 149.209 567.032 149.024C567.609 148.818 568.175 148.54 568.731 148.19L569.936 150.414C569.215 150.888 568.412 151.279 567.526 151.588C566.641 151.897 565.714 152.051 564.746 152.051ZM560.699 142.66H567.434C567.434 141.486 567.176 140.57 566.661 139.911C566.146 139.231 565.374 138.891 564.344 138.891C563.459 138.891 562.666 139.221 561.966 139.88C561.286 140.518 560.864 141.445 560.699 142.66Z" fill="white"/>
<path d="M584.301 152.051C582.942 152.051 581.624 151.794 580.347 151.279C579.091 150.764 577.979 150.033 577.011 149.086L579.112 146.645C579.832 147.325 580.656 147.881 581.583 148.313C582.51 148.725 583.436 148.931 584.363 148.931C585.516 148.931 586.392 148.694 586.989 148.221C587.586 147.747 587.885 147.119 587.885 146.336C587.885 145.492 587.586 144.884 586.989 144.514C586.412 144.143 585.671 143.762 584.765 143.371L581.984 142.166C581.325 141.878 580.677 141.507 580.038 141.054C579.42 140.601 578.906 140.024 578.494 139.324C578.102 138.624 577.907 137.779 577.907 136.791C577.907 135.72 578.195 134.762 578.772 133.918C579.369 133.053 580.172 132.373 581.181 131.879C582.211 131.364 583.385 131.107 584.703 131.107C585.877 131.107 587.009 131.344 588.101 131.817C589.192 132.27 590.129 132.888 590.912 133.671L589.089 135.957C588.451 135.421 587.771 134.999 587.051 134.69C586.35 134.381 585.568 134.227 584.703 134.227C583.756 134.227 582.983 134.443 582.386 134.876C581.809 135.287 581.521 135.864 581.521 136.605C581.521 137.12 581.665 137.553 581.954 137.903C582.262 138.232 582.664 138.521 583.158 138.768C583.653 138.994 584.178 139.221 584.734 139.447L587.483 140.59C588.678 141.105 589.656 141.785 590.418 142.629C591.18 143.453 591.561 144.596 591.561 146.058C591.561 147.15 591.272 148.149 590.696 149.055C590.119 149.961 589.285 150.692 588.194 151.248C587.123 151.784 585.825 152.051 584.301 152.051Z" fill="white"/>
<path d="M600.409 152.051C599.008 152.051 597.742 151.742 596.609 151.124C595.476 150.486 594.581 149.58 593.922 148.406C593.263 147.212 592.933 145.78 592.933 144.112C592.933 142.465 593.263 141.044 593.922 139.849C594.601 138.655 595.476 137.738 596.547 137.1C597.618 136.461 598.741 136.142 599.914 136.142C601.294 136.142 602.448 136.451 603.374 137.069C604.301 137.666 605.001 138.51 605.475 139.602C605.949 140.673 606.185 141.919 606.185 143.34C606.185 144.081 606.134 144.658 606.031 145.07H596.393C596.558 146.408 597.042 147.448 597.845 148.19C598.648 148.931 599.657 149.302 600.872 149.302C601.531 149.302 602.139 149.209 602.695 149.024C603.271 148.818 603.838 148.54 604.394 148.19L605.599 150.414C604.878 150.888 604.075 151.279 603.189 151.588C602.303 151.897 601.377 152.051 600.409 152.051ZM596.362 142.66H603.096C603.096 141.486 602.839 140.57 602.324 139.911C601.809 139.231 601.037 138.891 600.007 138.891C599.122 138.891 598.329 139.221 597.629 139.88C596.949 140.518 596.527 141.445 596.362 142.66Z" fill="white"/>
<path d="M611.889 152.051C610.571 152.051 609.489 151.639 608.645 150.816C607.821 149.992 607.409 148.921 607.409 147.603C607.409 145.976 608.12 144.72 609.541 143.834C610.962 142.928 613.227 142.31 616.337 141.981C616.316 141.177 616.1 140.488 615.688 139.911C615.297 139.314 614.586 139.015 613.557 139.015C612.815 139.015 612.084 139.159 611.363 139.447C610.663 139.736 609.973 140.086 609.294 140.498L607.996 138.119C608.841 137.584 609.788 137.12 610.838 136.729C611.909 136.338 613.042 136.142 614.236 136.142C616.131 136.142 617.542 136.708 618.468 137.841C619.416 138.953 619.889 140.57 619.889 142.691V151.681H616.955L616.708 150.012H616.584C615.904 150.589 615.173 151.073 614.391 151.464C613.629 151.856 612.795 152.051 611.889 152.051ZM613.032 149.271C613.649 149.271 614.205 149.127 614.7 148.839C615.215 148.53 615.76 148.118 616.337 147.603V144.205C614.278 144.473 612.846 144.874 612.043 145.41C611.24 145.924 610.838 146.563 610.838 147.325C610.838 148.004 611.044 148.499 611.456 148.808C611.868 149.117 612.393 149.271 613.032 149.271Z" fill="white"/>
<path d="M623.137 151.681V136.513H626.072L626.319 139.2H626.442C626.978 138.212 627.626 137.46 628.388 136.945C629.15 136.41 629.933 136.142 630.736 136.142C631.457 136.142 632.034 136.245 632.466 136.451L631.848 139.54C631.581 139.458 631.333 139.396 631.107 139.355C630.88 139.314 630.602 139.293 630.273 139.293C629.676 139.293 629.048 139.53 628.388 140.004C627.729 140.457 627.163 141.26 626.689 142.413V151.681H623.137Z" fill="white"/>
<path d="M639.688 152.051C638.308 152.051 637.062 151.742 635.95 151.124C634.859 150.486 633.983 149.58 633.324 148.406C632.686 147.212 632.367 145.78 632.367 144.112C632.367 142.423 632.717 140.992 633.417 139.818C634.117 138.624 635.044 137.718 636.197 137.1C637.371 136.461 638.627 136.142 639.966 136.142C640.934 136.142 641.778 136.307 642.499 136.636C643.22 136.966 643.858 137.367 644.414 137.841L642.684 140.158C642.293 139.808 641.892 139.54 641.48 139.355C641.068 139.149 640.625 139.046 640.151 139.046C638.936 139.046 637.937 139.509 637.155 140.436C636.393 141.363 636.012 142.588 636.012 144.112C636.012 145.616 636.383 146.831 637.124 147.757C637.886 148.684 638.864 149.147 640.059 149.147C640.656 149.147 641.212 149.024 641.727 148.777C642.262 148.509 642.746 148.2 643.179 147.85L644.631 150.198C643.93 150.816 643.148 151.279 642.283 151.588C641.418 151.897 640.553 152.051 639.688 152.051Z" fill="white"/>
<path d="M646.62 151.681V129.871H650.173V135.493L650.049 138.428C650.688 137.831 651.398 137.306 652.181 136.853C652.964 136.379 653.87 136.142 654.899 136.142C656.526 136.142 657.711 136.667 658.452 137.718C659.193 138.768 659.564 140.251 659.564 142.166V151.681H656.012V142.629C656.012 141.373 655.826 140.488 655.455 139.973C655.085 139.458 654.477 139.2 653.633 139.2C652.974 139.2 652.387 139.365 651.872 139.695C651.378 140.004 650.811 140.467 650.173 141.085V151.681H646.62Z" fill="white"/>
<path fill-rule="evenodd" clip-rule="evenodd" d="M493.06 150.896C491.086 152.316 488.666 153.151 486.05 153.151C479.412 153.151 474.031 147.771 474.031 141.133C474.031 134.496 479.412 129.115 486.05 129.115C492.687 129.115 498.068 134.496 498.068 141.133C498.068 143.311 497.489 145.353 496.476 147.114L500.375 151.013C501.369 152.007 501.369 153.619 500.375 154.613C499.381 155.607 497.77 155.607 496.776 154.613L493.06 150.896ZM496.25 141.133C496.25 146.767 491.683 151.333 486.05 151.333C480.416 151.333 475.85 146.767 475.85 141.133C475.85 135.5 480.416 130.933 486.05 130.933C491.683 130.933 496.25 135.5 496.25 141.133Z" fill="white"/>
<path fill-rule="evenodd" clip-rule="evenodd" d="M480.762 137.3C480.762 136.698 481.25 136.209 481.853 136.209H490.216C490.818 136.209 491.307 136.698 491.307 137.3C491.307 137.903 490.818 138.391 490.216 138.391H481.853C481.25 138.391 480.762 137.903 480.762 137.3Z" fill="#A112FF"/>
<path fill-rule="evenodd" clip-rule="evenodd" d="M480.762 140.924C480.762 140.322 481.25 139.833 481.853 139.833H490.216C490.818 139.833 491.307 140.322 491.307 140.924C491.307 141.526 490.818 142.015 490.216 142.015H481.853C481.25 142.015 480.762 141.526 480.762 140.924Z" fill="#FF5543"/>
<path fill-rule="evenodd" clip-rule="evenodd" d="M480.762 144.754C480.762 144.152 481.25 143.664 481.853 143.664H490.216C490.818 143.664 491.307 144.152 491.307 144.754C491.307 145.357 490.818 145.845 490.216 145.845H481.853C481.25 145.845 480.762 145.357 480.762 144.754Z" fill="#00CBEC"/>
</g>
<defs>
<filter id="filter0_f_3544_19759" x="131" y="109.055" width="596.99" height="195.669" filterUnits="userSpaceOnUse" color-interpolation-filters="sRGB">
<feFlood flood-opacity="0" result="BackgroundImageFix"/>
<feBlend mode="normal" in="SourceGraphic" in2="BackgroundImageFix" result="shape"/>
<feGaussianBlur stdDeviation="2.5" result="effect1_foregroundBlur_3544_19759"/>
</filter>
<filter id="filter1_d_3544_19759" x="132" y="318.19" width="295.153" height="62.2015" filterUnits="userSpaceOnUse" color-interpolation-filters="sRGB">
<feFlood flood-opacity="0" result="BackgroundImageFix"/>
<feColorMatrix in="SourceAlpha" type="matrix" values="0 0 0 0 0 0 0 0 0 0 0 0 0 0 0 0 0 0 127 0" result="hardAlpha"/>
<feOffset dy="4"/>
<feGaussianBlur stdDeviation="2"/>
<feComposite in2="hardAlpha" operator="out"/>
<feColorMatrix type="matrix" values="0 0 0 0 0 0 0 0 0 0 0 0 0 0 0 0 0 0 0.25 0"/>
<feBlend mode="normal" in2="BackgroundImageFix" result="effect1_dropShadow_3544_19759"/>
<feBlend mode="normal" in="SourceGraphic" in2="effect1_dropShadow_3544_19759" result="shape"/>
</filter>
<filter id="filter2_d_3544_19759" x="441.062" y="319.343" width="285.988" height="62.2015" filterUnits="userSpaceOnUse" color-interpolation-filters="sRGB">
<feFlood flood-opacity="0" result="BackgroundImageFix"/>
<feColorMatrix in="SourceAlpha" type="matrix" values="0 0 0 0 0 0 0 0 0 0 0 0 0 0 0 0 0 0 127 0" result="hardAlpha"/>
<feOffset dy="4"/>
<feGaussianBlur stdDeviation="2"/>
<feComposite in2="hardAlpha" operator="out"/>
<feColorMatrix type="matrix" values="0 0 0 0 0 0 0 0 0 0 0 0 0 0 0 0 0 0 0.25 0"/>
<feBlend mode="normal" in2="BackgroundImageFix" result="effect1_dropShadow_3544_19759"/>
<feBlend mode="normal" in="SourceGraphic" in2="effect1_dropShadow_3544_19759" result="shape"/>
</filter>
<filter id="filter3_d_3544_19759" x="146.602" y="71" width="298.79" height="151.177" filterUnits="userSpaceOnUse" color-interpolation-filters="sRGB">
<feFlood flood-opacity="0" result="BackgroundImageFix"/>
<feColorMatrix in="SourceAlpha" type="matrix" values="0 0 0 0 0 0 0 0 0 0 0 0 0 0 0 0 0 0 127 0" result="hardAlpha"/>
<feOffset dx="2" dy="6"/>
<feGaussianBlur stdDeviation="13"/>
<feComposite in2="hardAlpha" operator="out"/>
<feColorMatrix type="matrix" values="0 0 0 0 0 0 0 0 0 0 0 0 0 0 0 0 0 0 0.65 0"/>
<feBlend mode="normal" in2="BackgroundImageFix" result="effect1_dropShadow_3544_19759"/>
<feBlend mode="normal" in="SourceGraphic" in2="effect1_dropShadow_3544_19759" result="shape"/>
</filter>
<filter id="filter4_d_3544_19759" x="421.062" y="71" width="298.79" height="151.177" filterUnits="userSpaceOnUse" color-interpolation-filters="sRGB">
<feFlood flood-opacity="0" result="BackgroundImageFix"/>
<feColorMatrix in="SourceAlpha" type="matrix" values="0 0 0 0 0 0 0 0 0 0 0 0 0 0 0 0 0 0 127 0" result="hardAlpha"/>
<feOffset dx="2" dy="6"/>
<feGaussianBlur stdDeviation="13"/>
<feComposite in2="hardAlpha" operator="out"/>
<feColorMatrix type="matrix" values="0 0 0 0 0 0 0 0 0 0 0 0 0 0 0 0 0 0 0.65 0"/>
<feBlend mode="normal" in2="BackgroundImageFix" result="effect1_dropShadow_3544_19759"/>
<feBlend mode="normal" in="SourceGraphic" in2="effect1_dropShadow_3544_19759" result="shape"/>
</filter>
<radialGradient id="paint0_radial_3544_19759" cx="0" cy="0" r="1" gradientUnits="userSpaceOnUse" gradientTransform="translate(644 258) rotate(73.7825) scale(187.98 189.874)">
<stop stop-color="#FF5543"/>
<stop offset="0.989583" stop-color="#270741" stop-opacity="0"/>
</radialGradient>
<radialGradient id="paint1_radial_3544_19759" cx="0" cy="0" r="1" gradientUnits="userSpaceOnUse" gradientTransform="translate(441 229) rotate(74.2548) scale(235.85 300.456)">
<stop stop-color="#A112FF"/>
<stop offset="0.989583" stop-color="#270741" stop-opacity="0"/>
</radialGradient>
<radialGradient id="paint2_radial_3544_19759" cx="0" cy="0" r="1" gradientUnits="userSpaceOnUse" gradientTransform="translate(248 215) rotate(63.1085) scale(235.462 237.834)">
<stop stop-color="#00CBEC"/>
<stop offset="0.989583" stop-color="#270741" stop-opacity="0"/>
</radialGradient>
<radialGradient id="paint3_radial_3544_19759" cx="0" cy="0" r="1" gradientUnits="userSpaceOnUse" gradientTransform="translate(439 227.5) rotate(90.1387) scale(206.501 427.227)">
<stop stop-color="#A112FF" stop-opacity="0.81"/>
<stop offset="0.885417" stop-color="#A112FF" stop-opacity="0"/>
</radialGradient>
<linearGradient id="paint4_linear_3544_19759" x1="414.444" y1="342.94" x2="422.549" y2="83.0045" gradientUnits="userSpaceOnUse">
<stop stop-color="#15171E" stop-opacity="0"/>
<stop offset="0.877552" stop-color="#343A4D" stop-opacity="0.49"/>
</linearGradient>
<linearGradient id="paint5_linear_3544_19759" x1="160.082" y1="334.937" x2="530.404" y2="-66.9988" gradientUnits="userSpaceOnUse">
<stop stop-color="#A112FF"/>
<stop offset="1" stop-color="#00CBEC"/>
</linearGradient>
<linearGradient id="paint6_linear_3544_19759" x1="145.031" y1="283.718" x2="627.107" y2="19.2842" gradientUnits="userSpaceOnUse">
<stop stop-color="#00CBEC"/>
<stop offset="0.244792" stop-color="#6952F8"/>
<stop offset="0.453125" stop-color="#A112FF"/>
<stop offset="0.5625" stop-color="#B621D6"/>
<stop offset="1" stop-color="#FF5543"/>
</linearGradient>
<linearGradient id="paint7_linear_3544_19759" x1="279.576" y1="318.19" x2="279.576" y2="372.392" gradientUnits="userSpaceOnUse">
<stop stop-color="#A6B6D9" stop-opacity="0.28"/>
<stop offset="1" stop-color="#6112A3" stop-opacity="0.44"/>
</linearGradient>
<linearGradient id="paint8_linear_3544_19759" x1="584.056" y1="319.343" x2="584.056" y2="373.544" gradientUnits="userSpaceOnUse">
<stop stop-color="#A6B6D9" stop-opacity="0.28"/>
<stop offset="1" stop-color="#6112A3" stop-opacity="0.44"/>
</linearGradient>
<radialGradient id="paint9_radial_3544_19759" cx="0" cy="0" r="1" gradientUnits="userSpaceOnUse" gradientTransform="translate(299.139 190.177) rotate(-95.5549) scale(132.787 288.62)">
<stop offset="0.145833" stop-color="#1E0632"/>
<stop offset="0.540416" stop-color="#270741"/>
<stop offset="0.979167" stop-color="#6112A3"/>
</radialGradient>
<linearGradient id="paint10_linear_3544_19759" x1="136.582" y1="190.177" x2="436.42" y2="116.371" gradientUnits="userSpaceOnUse">
<stop stop-color="white"/>
<stop offset="1" stop-color="white"/>
</linearGradient>
<radialGradient id="paint11_radial_3544_19759" cx="0" cy="0" r="1" gradientUnits="userSpaceOnUse" gradientTransform="translate(573.598 190.177) rotate(-95.5549) scale(132.787 288.62)">
<stop offset="0.145833" stop-color="#1E0632"/>
<stop offset="0.540416" stop-color="#270741"/>
<stop offset="0.979167" stop-color="#6112A3"/>
</radialGradient>
<linearGradient id="paint12_linear_3544_19759" x1="411.041" y1="190.177" x2="710.88" y2="116.371" gradientUnits="userSpaceOnUse">
<stop stop-color="white"/>
<stop offset="1" stop-color="white"/>
</linearGradient>
<clipPath id="clip0_3544_19759">
<rect width="859" height="465" fill="white"/>
</clipPath>
</defs>
</svg>
