<svg width="859" height="465" viewBox="0 0 859 465" fill="none" xmlns="http://www.w3.org/2000/svg">
<g clip-path="url(#clip0_3389_18543)">
<path d="M85.9294 -168V626M124.057 -168V626M162.185 -168V626M200.642 -168V626M238.769 -168V626M276.898 -168V626M315.026 -168V626M353.153 -168V626M391.61 -168V626M429.738 -168V626M467.866 -168V626M505.994 -168V626M544.45 -168V626M582.579 -168V626M620.706 -168V626M658.835 -168V626M696.962 -168V626M735.419 -168L735.419 626M773.544 -168V626M811.679 -168V626M47.5 592.726H849.5M47.5 554.405L849.5 554.406M47.5 516.087H849.5M47.5 477.768H849.5M47.5 439.45H849.5M47.5 401.131H849.5M47.5 362.812H849.5M47.5 324.494H849.5M47.5 286.175H849.5M47.5 247.857H849.5M47.5 209.538H849.5M47.5 171.22H849.5M47.5 132.901H849.5M47.5 94.5828H849.5M47.5 56.2643H849.5M47.5 17.9458H849.5M47.5 -20.3728H849.5M47.5 -58.6913H849.5M47.5 -97.0098H849.5M47.5 -135.328H849.5" stroke="url(#paint0_linear_3389_18543)" stroke-opacity="0.8"/>
<path d="M85.9294 -168V626M124.057 -168V626M162.185 -168V626M200.642 -168V626M238.769 -168V626M276.898 -168V626M315.026 -168V626M353.153 -168V626M391.61 -168V626M429.738 -168V626M467.866 -168V626M505.994 -168V626M544.45 -168V626M582.579 -168V626M620.706 -168V626M658.835 -168V626M696.962 -168V626M735.419 -168L735.419 626M773.544 -168V626M811.679 -168V626M47.5 592.726H849.5M47.5 554.405L849.5 554.406M47.5 516.087H849.5M47.5 477.768H849.5M47.5 439.45H849.5M47.5 401.131H849.5M47.5 362.812H849.5M47.5 324.494H849.5M47.5 286.175H849.5M47.5 247.857H849.5M47.5 209.538H849.5M47.5 171.22H849.5M47.5 132.901H849.5M47.5 94.5828H849.5M47.5 56.2643H849.5M47.5 17.9458H849.5M47.5 -20.3728H849.5M47.5 -58.6913H849.5M47.5 -97.0098H849.5M47.5 -135.328H849.5" stroke="url(#paint1_radial_3389_18543)"/>
<ellipse cx="429" cy="225.5" rx="502.5" ry="232.5" fill="url(#paint2_radial_3389_18543)" fill-opacity="0.4"/>
<rect x="183" y="135" width="509" height="161" rx="23" fill="#210E30"/>
<rect x="183" y="135" width="509" height="161" rx="23" fill="url(#paint3_linear_3389_18543)"/>
<rect x="183" y="135" width="509" height="161" rx="23" fill="url(#paint4_linear_3389_18543)" fill-opacity="0.24"/>
<rect x="183.5" y="135.5" width="508" height="160" rx="22.5" stroke="white" stroke-opacity="0.3"/>
<g filter="url(#filter0_f_3389_18543)">
<rect x="183" y="135" width="509" height="161" rx="23" fill="url(#paint5_linear_3389_18543)"/>
<rect x="183.5" y="135.5" width="508" height="160" rx="22.5" stroke="white" stroke-opacity="0.3"/>
</g>
<path d="M308.841 252.36C307.341 252.36 306.031 252.06 304.911 251.46C303.791 250.86 302.921 249.9 302.301 248.58C301.701 247.26 301.401 245.53 301.401 243.39V232.38H304.881V243.66C304.881 245.08 305.041 246.21 305.361 247.05C305.701 247.87 306.171 248.46 306.771 248.82C307.371 249.16 308.061 249.33 308.841 249.33C309.641 249.33 310.341 249.16 310.941 248.82C311.561 248.46 312.041 247.87 312.381 247.05C312.741 246.21 312.921 245.08 312.921 243.66V232.38H316.251V243.39C316.251 245.53 315.951 247.26 315.351 248.58C314.751 249.9 313.891 250.86 312.771 251.46C311.671 252.06 310.361 252.36 308.841 252.36ZM320.849 252V237.27H323.699L323.939 239.25H324.059C324.719 238.61 325.439 238.06 326.219 237.6C326.999 237.14 327.889 236.91 328.889 236.91C330.469 236.91 331.619 237.42 332.339 238.44C333.059 239.46 333.419 240.9 333.419 242.76V252H329.969V243.21C329.969 241.99 329.789 241.13 329.429 240.63C329.069 240.13 328.479 239.88 327.659 239.88C327.019 239.88 326.449 240.04 325.949 240.36C325.469 240.66 324.919 241.11 324.299 241.71V252H320.849ZM337.636 252V237.27H341.086V252H337.636ZM339.376 234.69C338.756 234.69 338.256 234.51 337.876 234.15C337.496 233.79 337.306 233.31 337.306 232.71C337.306 232.13 337.496 231.66 337.876 231.3C338.256 230.94 338.756 230.76 339.376 230.76C339.996 230.76 340.496 230.94 340.876 231.3C341.256 231.66 341.446 232.13 341.446 232.71C341.446 233.31 341.256 233.79 340.876 234.15C340.496 234.51 339.996 234.69 339.376 234.69ZM348.788 252L343.658 237.27H347.168L349.508 244.92C349.708 245.64 349.908 246.37 350.108 247.11C350.328 247.85 350.538 248.6 350.738 249.36H350.858C351.078 248.6 351.288 247.85 351.488 247.11C351.708 246.37 351.918 245.64 352.118 244.92L354.458 237.27H357.788L352.778 252H348.788ZM366.466 252.36C365.106 252.36 363.876 252.06 362.776 251.46C361.676 250.84 360.806 249.96 360.166 248.82C359.526 247.66 359.206 246.27 359.206 244.65C359.206 243.05 359.526 241.67 360.166 240.51C360.826 239.35 361.676 238.46 362.716 237.84C363.756 237.22 364.846 236.91 365.986 236.91C367.326 236.91 368.446 237.21 369.346 237.81C370.246 238.39 370.926 239.21 371.386 240.27C371.846 241.31 372.076 242.52 372.076 243.9C372.076 244.62 372.026 245.18 371.926 245.58H362.566C362.726 246.88 363.196 247.89 363.976 248.61C364.756 249.33 365.736 249.69 366.916 249.69C367.556 249.69 368.146 249.6 368.686 249.42C369.246 249.22 369.796 248.95 370.336 248.61L371.506 250.77C370.806 251.23 370.026 251.61 369.166 251.91C368.306 252.21 367.406 252.36 366.466 252.36ZM362.536 243.24H369.076C369.076 242.1 368.826 241.21 368.326 240.57C367.826 239.91 367.076 239.58 366.076 239.58C365.216 239.58 364.446 239.9 363.766 240.54C363.106 241.16 362.696 242.06 362.536 243.24ZM375.371 252V237.27H378.221L378.461 239.88H378.581C379.101 238.92 379.731 238.19 380.471 237.69C381.211 237.17 381.971 236.91 382.751 236.91C383.451 236.91 384.011 237.01 384.431 237.21L383.831 240.21C383.571 240.13 383.331 240.07 383.111 240.03C382.891 239.99 382.621 239.97 382.301 239.97C381.721 239.97 381.111 240.2 380.471 240.66C379.831 241.1 379.281 241.88 378.821 243V252H375.371ZM390.496 252.36C389.496 252.36 388.496 252.17 387.496 251.79C386.496 251.39 385.636 250.9 384.916 250.32L386.536 248.1C387.196 248.6 387.856 249 388.516 249.3C389.176 249.6 389.876 249.75 390.616 249.75C391.416 249.75 392.006 249.58 392.386 249.24C392.766 248.9 392.956 248.48 392.956 247.98C392.956 247.56 392.796 247.22 392.476 246.96C392.176 246.68 391.786 246.44 391.306 246.24C390.826 246.02 390.326 245.81 389.806 245.61C389.166 245.37 388.526 245.08 387.886 244.74C387.266 244.38 386.756 243.93 386.356 243.39C385.956 242.83 385.756 242.14 385.756 241.32C385.756 240.02 386.236 238.96 387.196 238.14C388.156 237.32 389.456 236.91 391.096 236.91C392.136 236.91 393.066 237.09 393.886 237.45C394.706 237.81 395.416 238.22 396.016 238.68L394.426 240.78C393.906 240.4 393.376 240.1 392.836 239.88C392.316 239.64 391.766 239.52 391.186 239.52C390.446 239.52 389.896 239.68 389.536 240C389.176 240.3 388.996 240.68 388.996 241.14C388.996 241.72 389.296 242.16 389.896 242.46C390.496 242.76 391.196 243.05 391.996 243.33C392.676 243.57 393.336 243.87 393.976 244.23C394.616 244.57 395.146 245.02 395.566 245.58C396.006 246.14 396.226 246.88 396.226 247.8C396.226 249.06 395.736 250.14 394.756 251.04C393.776 251.92 392.356 252.36 390.496 252.36ZM402.876 252.36C401.596 252.36 400.546 251.96 399.726 251.16C398.926 250.36 398.526 249.32 398.526 248.04C398.526 246.46 399.216 245.24 400.596 244.38C401.976 243.5 404.176 242.9 407.196 242.58C407.176 241.8 406.966 241.13 406.566 240.57C406.186 239.99 405.496 239.7 404.496 239.7C403.776 239.7 403.066 239.84 402.366 240.12C401.686 240.4 401.016 240.74 400.356 241.14L399.096 238.83C399.916 238.31 400.836 237.86 401.856 237.48C402.896 237.1 403.996 236.91 405.156 236.91C406.996 236.91 408.366 237.46 409.266 238.56C410.186 239.64 410.646 241.21 410.646 243.27V252H407.796L407.556 250.38H407.436C406.776 250.94 406.066 251.41 405.306 251.79C404.566 252.17 403.756 252.36 402.876 252.36ZM403.986 249.66C404.586 249.66 405.126 249.52 405.606 249.24C406.106 248.94 406.636 248.54 407.196 248.04V244.74C405.196 245 403.806 245.39 403.026 245.91C402.246 246.41 401.856 247.03 401.856 247.77C401.856 248.43 402.056 248.91 402.456 249.21C402.856 249.51 403.366 249.66 403.986 249.66ZM418.135 252.36C416.915 252.36 416.045 251.99 415.525 251.25C415.025 250.51 414.775 249.5 414.775 248.22V230.82H418.225V248.4C418.225 248.82 418.305 249.12 418.465 249.3C418.625 249.46 418.795 249.54 418.975 249.54C419.055 249.54 419.125 249.54 419.185 249.54C419.265 249.52 419.375 249.5 419.515 249.48L419.965 252.06C419.765 252.14 419.505 252.21 419.185 252.27C418.885 252.33 418.535 252.36 418.135 252.36ZM437.055 252.36C435.415 252.36 433.925 251.97 432.585 251.19C431.245 250.41 430.175 249.27 429.375 247.77C428.595 246.25 428.205 244.41 428.205 242.25C428.205 240.11 428.605 238.28 429.405 236.76C430.225 235.22 431.315 234.05 432.675 233.25C434.035 232.43 435.535 232.02 437.175 232.02C438.415 232.02 439.515 232.27 440.475 232.77C441.435 233.27 442.225 233.85 442.845 234.51L440.985 236.76C440.485 236.24 439.925 235.83 439.305 235.53C438.705 235.21 438.025 235.05 437.265 235.05C436.205 235.05 435.255 235.34 434.415 235.92C433.595 236.48 432.945 237.29 432.465 238.35C432.005 239.41 431.775 240.68 431.775 242.16C431.775 244.4 432.265 246.16 433.245 247.44C434.225 248.7 435.535 249.33 437.175 249.33C438.055 249.33 438.835 249.15 439.515 248.79C440.195 248.41 440.815 247.92 441.375 247.32L443.235 249.51C442.435 250.43 441.515 251.14 440.475 251.64C439.455 252.12 438.315 252.36 437.055 252.36ZM452.241 252.36C451.021 252.36 449.881 252.06 448.821 251.46C447.761 250.84 446.901 249.96 446.241 248.82C445.581 247.66 445.251 246.27 445.251 244.65C445.251 243.01 445.581 241.62 446.241 240.48C446.901 239.32 447.761 238.44 448.821 237.84C449.881 237.22 451.021 236.91 452.241 236.91C453.481 236.91 454.631 237.22 455.691 237.84C456.751 238.44 457.611 239.32 458.271 240.48C458.931 241.62 459.261 243.01 459.261 244.65C459.261 246.27 458.931 247.66 458.271 248.82C457.611 249.96 456.751 250.84 455.691 251.46C454.631 252.06 453.481 252.36 452.241 252.36ZM452.241 249.54C453.321 249.54 454.171 249.09 454.791 248.19C455.411 247.29 455.721 246.11 455.721 244.65C455.721 243.17 455.411 241.98 454.791 241.08C454.171 240.18 453.321 239.73 452.241 239.73C451.161 239.73 450.311 240.18 449.691 241.08C449.091 241.98 448.791 243.17 448.791 244.65C448.791 246.11 449.091 247.29 449.691 248.19C450.311 249.09 451.161 249.54 452.241 249.54ZM467.835 252.36C465.995 252.36 464.525 251.68 463.425 250.32C462.325 248.96 461.775 247.07 461.775 244.65C461.775 243.05 462.065 241.67 462.645 240.51C463.245 239.35 464.025 238.46 464.985 237.84C465.945 237.22 466.955 236.91 468.015 236.91C468.855 236.91 469.565 237.06 470.145 237.36C470.745 237.64 471.325 238.03 471.885 238.53L471.765 236.16V230.82H475.215V252H472.365L472.125 250.41H472.005C471.465 250.95 470.835 251.41 470.115 251.79C469.395 252.17 468.635 252.36 467.835 252.36ZM468.675 249.51C469.775 249.51 470.805 248.96 471.765 247.86V240.99C471.265 240.53 470.765 240.21 470.265 240.03C469.765 239.85 469.265 239.76 468.765 239.76C467.825 239.76 467.015 240.19 466.335 241.05C465.675 241.89 465.345 243.08 465.345 244.62C465.345 246.2 465.635 247.41 466.215 248.25C466.795 249.09 467.615 249.51 468.675 249.51ZM485.909 252.36C484.549 252.36 483.319 252.06 482.219 251.46C481.119 250.84 480.249 249.96 479.609 248.82C478.969 247.66 478.649 246.27 478.649 244.65C478.649 243.05 478.969 241.67 479.609 240.51C480.269 239.35 481.119 238.46 482.159 237.84C483.199 237.22 484.289 236.91 485.429 236.91C486.769 236.91 487.889 237.21 488.789 237.81C489.689 238.39 490.369 239.21 490.829 240.27C491.289 241.31 491.519 242.52 491.519 243.9C491.519 244.62 491.469 245.18 491.369 245.58H482.009C482.169 246.88 482.639 247.89 483.419 248.61C484.199 249.33 485.179 249.69 486.359 249.69C486.999 249.69 487.589 249.6 488.129 249.42C488.689 249.22 489.239 248.95 489.779 248.61L490.949 250.77C490.249 251.23 489.469 251.61 488.609 251.91C487.749 252.21 486.849 252.36 485.909 252.36ZM481.979 243.24H488.519C488.519 242.1 488.269 241.21 487.769 240.57C487.269 239.91 486.519 239.58 485.519 239.58C484.659 239.58 483.889 239.9 483.209 240.54C482.549 241.16 482.139 242.06 481.979 243.24ZM509.34 252.36C507.58 252.36 506 251.97 504.6 251.19C503.2 250.41 502.1 249.27 501.3 247.77C500.5 246.25 500.1 244.41 500.1 242.25C500.1 240.11 500.51 238.28 501.33 236.76C502.15 235.22 503.26 234.05 504.66 233.25C506.06 232.43 507.63 232.02 509.37 232.02C510.77 232.02 511.95 232.28 512.91 232.8C513.89 233.3 514.69 233.87 515.31 234.51L513.45 236.76C512.95 236.28 512.39 235.88 511.77 235.56C511.17 235.22 510.41 235.05 509.49 235.05C507.75 235.05 506.34 235.69 505.26 236.97C504.2 238.23 503.67 239.96 503.67 242.16C503.67 244.4 504.18 246.16 505.2 247.44C506.22 248.7 507.71 249.33 509.67 249.33C510.23 249.33 510.76 249.26 511.26 249.12C511.76 248.96 512.17 248.74 512.49 248.46V244.23H508.77V241.38H515.61V250.02C514.95 250.68 514.07 251.24 512.97 251.7C511.89 252.14 510.68 252.36 509.34 252.36ZM519.658 252V237.27H522.508L522.748 239.88H522.868C523.388 238.92 524.018 238.19 524.758 237.69C525.498 237.17 526.258 236.91 527.038 236.91C527.738 236.91 528.298 237.01 528.718 237.21L528.118 240.21C527.858 240.13 527.618 240.07 527.398 240.03C527.178 239.99 526.908 239.97 526.588 239.97C526.008 239.97 525.398 240.2 524.758 240.66C524.118 241.1 523.568 241.88 523.108 243V252H519.658ZM533.628 252.36C532.348 252.36 531.298 251.96 530.478 251.16C529.678 250.36 529.278 249.32 529.278 248.04C529.278 246.46 529.968 245.24 531.348 244.38C532.728 243.5 534.928 242.9 537.948 242.58C537.928 241.8 537.718 241.13 537.318 240.57C536.938 239.99 536.248 239.7 535.248 239.7C534.528 239.7 533.818 239.84 533.118 240.12C532.438 240.4 531.768 240.74 531.108 241.14L529.848 238.83C530.668 238.31 531.588 237.86 532.608 237.48C533.648 237.1 534.748 236.91 535.908 236.91C537.748 236.91 539.118 237.46 540.018 238.56C540.938 239.64 541.398 241.21 541.398 243.27V252H538.548L538.308 250.38H538.188C537.528 250.94 536.818 251.41 536.058 251.79C535.318 252.17 534.508 252.36 533.628 252.36ZM534.738 249.66C535.338 249.66 535.878 249.52 536.358 249.24C536.858 248.94 537.388 248.54 537.948 248.04V244.74C535.948 245 534.558 245.39 533.778 245.91C532.998 246.41 532.608 247.03 532.608 247.77C532.608 248.43 532.808 248.91 533.208 249.21C533.608 249.51 534.118 249.66 534.738 249.66ZM545.527 257.82V237.27H548.377L548.617 238.83H548.737C549.357 238.31 550.047 237.86 550.807 237.48C551.587 237.1 552.377 236.91 553.177 236.91C555.017 236.91 556.437 237.59 557.437 238.95C558.457 240.31 558.967 242.13 558.967 244.41C558.967 246.09 558.667 247.53 558.067 248.73C557.467 249.91 556.687 250.81 555.727 251.43C554.787 252.05 553.767 252.36 552.667 252.36C552.027 252.36 551.387 252.22 550.747 251.94C550.107 251.64 549.487 251.24 548.887 250.74L548.977 253.2V257.82H545.527ZM551.947 249.51C552.927 249.51 553.747 249.08 554.407 248.22C555.067 247.36 555.397 246.1 555.397 244.44C555.397 242.96 555.147 241.81 554.647 240.99C554.147 240.17 553.337 239.76 552.217 239.76C551.177 239.76 550.097 240.31 548.977 241.41V248.28C549.517 248.72 550.037 249.04 550.537 249.24C551.037 249.42 551.507 249.51 551.947 249.51ZM562.461 252V230.82H565.911V236.28L565.791 239.13C566.411 238.55 567.101 238.04 567.861 237.6C568.621 237.14 569.501 236.91 570.501 236.91C572.081 236.91 573.231 237.42 573.951 238.44C574.671 239.46 575.031 240.9 575.031 242.76V252H571.581V243.21C571.581 241.99 571.401 241.13 571.041 240.63C570.681 240.13 570.091 239.88 569.271 239.88C568.631 239.88 568.061 240.04 567.561 240.36C567.081 240.66 566.531 241.11 565.911 241.71V252H562.461Z" fill="white"/>
<g filter="url(#filter1_d_3389_18543)">
<rect x="183" y="312" width="249" height="47" rx="15" fill="url(#paint6_linear_3389_18543)"/>
<rect x="183.5" y="312.5" width="248" height="46" rx="14.5" stroke="white" stroke-opacity="0.3"/>
<path d="M295.184 341.335C294.31 341.335 293.515 341.127 292.8 340.711C292.086 340.295 291.515 339.687 291.088 338.887C290.672 338.076 290.464 337.095 290.464 335.943C290.464 334.802 290.678 333.826 291.104 333.015C291.542 332.194 292.123 331.57 292.848 331.143C293.574 330.706 294.374 330.487 295.248 330.487C295.91 330.487 296.496 330.62 297.008 330.887C297.52 331.154 297.942 331.463 298.272 331.815L297.28 333.015C297.014 332.738 296.715 332.519 296.384 332.359C296.064 332.188 295.702 332.103 295.296 332.103C294.731 332.103 294.224 332.258 293.776 332.567C293.339 332.866 292.992 333.298 292.736 333.863C292.491 334.428 292.368 335.106 292.368 335.895C292.368 337.09 292.63 338.028 293.152 338.711C293.675 339.383 294.374 339.719 295.248 339.719C295.718 339.719 296.134 339.623 296.496 339.431C296.859 339.228 297.19 338.967 297.488 338.647L298.48 339.815C298.054 340.306 297.563 340.684 297.008 340.951C296.464 341.207 295.856 341.335 295.184 341.335ZM303.283 341.335C302.632 341.335 302.024 341.175 301.459 340.855C300.894 340.524 300.435 340.055 300.083 339.447C299.731 338.828 299.555 338.087 299.555 337.223C299.555 336.348 299.731 335.607 300.083 334.999C300.435 334.38 300.894 333.911 301.459 333.591C302.024 333.26 302.632 333.095 303.283 333.095C303.944 333.095 304.558 333.26 305.123 333.591C305.688 333.911 306.147 334.38 306.499 334.999C306.851 335.607 307.027 336.348 307.027 337.223C307.027 338.087 306.851 338.828 306.499 339.447C306.147 340.055 305.688 340.524 305.123 340.855C304.558 341.175 303.944 341.335 303.283 341.335ZM303.283 339.831C303.859 339.831 304.312 339.591 304.643 339.111C304.974 338.631 305.139 338.002 305.139 337.223C305.139 336.434 304.974 335.799 304.643 335.319C304.312 334.839 303.859 334.599 303.283 334.599C302.707 334.599 302.254 334.839 301.923 335.319C301.603 335.799 301.443 336.434 301.443 337.223C301.443 338.002 301.603 338.631 301.923 339.111C302.254 339.591 302.707 339.831 303.283 339.831ZM311.6 341.335C310.619 341.335 309.835 340.972 309.248 340.247C308.662 339.522 308.368 338.514 308.368 337.223C308.368 336.37 308.523 335.634 308.832 335.015C309.152 334.396 309.568 333.922 310.08 333.591C310.592 333.26 311.131 333.095 311.696 333.095C312.144 333.095 312.523 333.175 312.832 333.335C313.152 333.484 313.462 333.692 313.76 333.959L313.696 332.695V329.847H315.536V341.143H314.016L313.888 340.295H313.824C313.536 340.583 313.2 340.828 312.816 341.031C312.432 341.234 312.027 341.335 311.6 341.335ZM312.048 339.815C312.635 339.815 313.184 339.522 313.696 338.935V335.271C313.43 335.026 313.163 334.855 312.896 334.759C312.63 334.663 312.363 334.615 312.096 334.615C311.595 334.615 311.163 334.844 310.8 335.303C310.448 335.751 310.272 336.386 310.272 337.207C310.272 338.05 310.427 338.695 310.736 339.143C311.046 339.591 311.483 339.815 312.048 339.815ZM321.24 341.335C320.514 341.335 319.858 341.175 319.272 340.855C318.685 340.524 318.221 340.055 317.88 339.447C317.538 338.828 317.368 338.087 317.368 337.223C317.368 336.37 317.538 335.634 317.88 335.015C318.232 334.396 318.685 333.922 319.24 333.591C319.794 333.26 320.376 333.095 320.984 333.095C321.698 333.095 322.296 333.255 322.776 333.575C323.256 333.884 323.618 334.322 323.864 334.887C324.109 335.442 324.232 336.087 324.232 336.823C324.232 337.207 324.205 337.506 324.152 337.719H319.16C319.245 338.412 319.496 338.951 319.912 339.335C320.328 339.719 320.85 339.911 321.48 339.911C321.821 339.911 322.136 339.863 322.424 339.767C322.722 339.66 323.016 339.516 323.304 339.335L323.928 340.487C323.554 340.732 323.138 340.935 322.68 341.095C322.221 341.255 321.741 341.335 321.24 341.335ZM319.144 336.471H322.632C322.632 335.863 322.498 335.388 322.232 335.047C321.965 334.695 321.565 334.519 321.032 334.519C320.573 334.519 320.162 334.69 319.8 335.031C319.448 335.362 319.229 335.842 319.144 336.471Z" fill="white"/>
</g>
<g filter="url(#filter2_d_3389_18543)">
<rect x="451" y="313" width="241.053" height="47" rx="15" fill="url(#paint7_linear_3389_18543)"/>
<rect x="451.5" y="313.5" width="240.053" height="46" rx="14.5" stroke="white" stroke-opacity="0.3"/>
<path d="M558.622 342.143V331.679H560.478V340.575H564.83V342.143H558.622ZM566.653 342.143V331.679H568.509V340.575H572.861V342.143H566.653ZM574.684 342.143V331.679H576.78L578.636 336.799C578.754 337.13 578.866 337.471 578.972 337.823C579.09 338.164 579.202 338.506 579.308 338.847H579.372C579.49 338.506 579.602 338.164 579.708 337.823C579.815 337.471 579.922 337.13 580.028 336.799L581.836 331.679H583.948V342.143H582.236V337.359C582.236 337.028 582.247 336.671 582.268 336.287C582.3 335.892 582.332 335.498 582.364 335.103C582.407 334.708 582.444 334.351 582.476 334.031H582.412L581.564 336.463L579.852 341.167H578.748L577.02 336.463L576.188 334.031H576.124C576.156 334.351 576.188 334.708 576.22 335.103C576.263 335.498 576.295 335.892 576.316 336.287C576.348 336.671 576.364 337.028 576.364 337.359V342.143H574.684Z" fill="white"/>
</g>
<g filter="url(#filter3_d_3389_18543)">
<rect x="213" y="115" width="214" height="86" rx="11" fill="url(#paint8_radial_3389_18543)" fill-opacity="0.9" shape-rendering="crispEdges"/>
<rect x="213.5" y="115.5" width="213" height="85" rx="10.5" stroke="url(#paint9_linear_3389_18543)" stroke-opacity="0.4" shape-rendering="crispEdges"/>
</g>
<path d="M315.314 166.082C313.737 166.082 312.304 165.707 311.015 164.958C309.727 164.209 308.697 163.114 307.928 161.673C307.178 160.213 306.803 158.446 306.803 156.371C306.803 154.316 307.187 152.558 307.957 151.098C308.746 149.619 309.794 148.495 311.102 147.727C312.41 146.939 313.853 146.545 315.43 146.545C316.623 146.545 317.68 146.785 318.604 147.266C319.527 147.746 320.287 148.303 320.883 148.937L319.094 151.098C318.613 150.599 318.075 150.205 317.479 149.917C316.901 149.609 316.247 149.456 315.516 149.456C314.497 149.456 313.583 149.734 312.775 150.291C311.987 150.829 311.362 151.607 310.9 152.625C310.458 153.643 310.236 154.863 310.236 156.285C310.236 158.436 310.708 160.127 311.65 161.356C312.593 162.567 313.853 163.172 315.43 163.172C316.276 163.172 317.026 162.999 317.68 162.653C318.334 162.288 318.931 161.817 319.469 161.241L321.258 163.345C320.489 164.228 319.604 164.91 318.604 165.39C317.623 165.851 316.526 166.082 315.314 166.082Z" fill="white"/>
<path d="M328.982 166.082C327.808 166.082 326.712 165.794 325.692 165.218C324.673 164.622 323.846 163.777 323.211 162.682C322.576 161.568 322.259 160.232 322.259 158.676C322.259 157.101 322.576 155.766 323.211 154.671C323.846 153.557 324.673 152.712 325.692 152.135C326.712 151.54 327.808 151.242 328.982 151.242C330.174 151.242 331.28 151.54 332.3 152.135C333.319 152.712 334.146 153.557 334.781 154.671C335.416 155.766 335.733 157.101 335.733 158.676C335.733 160.232 335.416 161.568 334.781 162.682C334.146 163.777 333.319 164.622 332.3 165.218C331.28 165.794 330.174 166.082 328.982 166.082ZM328.982 163.373C330.02 163.373 330.838 162.941 331.434 162.077C332.03 161.212 332.329 160.079 332.329 158.676C332.329 157.255 332.03 156.112 331.434 155.247C330.838 154.383 330.02 153.951 328.982 153.951C327.943 153.951 327.125 154.383 326.529 155.247C325.952 156.112 325.663 157.255 325.663 158.676C325.663 160.079 325.952 161.212 326.529 162.077C327.125 162.941 327.943 163.373 328.982 163.373Z" fill="white"/>
<path d="M343.115 166.082C341.345 166.082 339.931 165.429 338.873 164.123C337.815 162.816 337.286 161.001 337.286 158.676C337.286 157.14 337.565 155.814 338.123 154.7C338.7 153.586 339.45 152.731 340.374 152.135C341.297 151.54 342.268 151.242 343.288 151.242C344.096 151.242 344.779 151.386 345.337 151.674C345.914 151.943 346.471 152.318 347.01 152.798L346.895 150.522V145.393H350.213V165.736H347.472L347.241 164.209H347.125C346.606 164.728 346 165.169 345.308 165.534C344.615 165.899 343.884 166.082 343.115 166.082ZM343.923 163.345C344.981 163.345 345.971 162.816 346.895 161.76V155.161C346.414 154.719 345.933 154.412 345.452 154.239C344.971 154.066 344.49 153.98 344.009 153.98C343.105 153.98 342.326 154.393 341.672 155.219C341.037 156.025 340.72 157.168 340.72 158.648C340.72 160.165 340.999 161.327 341.557 162.134C342.115 162.941 342.903 163.345 343.923 163.345Z" fill="white"/>
<path d="M354.525 171.557C354.14 171.557 353.804 171.528 353.515 171.47C353.227 171.413 352.948 171.346 352.678 171.269L353.284 168.675C353.419 168.714 353.573 168.752 353.746 168.791C353.938 168.848 354.121 168.877 354.294 168.877C355.044 168.877 355.641 168.647 356.083 168.186C356.545 167.744 356.891 167.167 357.122 166.457L357.381 165.563L351.813 151.588H355.189L357.641 158.532C357.853 159.147 358.055 159.8 358.247 160.492C358.459 161.164 358.67 161.837 358.882 162.509H358.997C359.17 161.856 359.343 161.193 359.517 160.521C359.709 159.829 359.892 159.166 360.065 158.532L362.2 151.588H365.403L360.267 166.37C359.67 167.965 358.949 169.223 358.103 170.145C357.256 171.086 356.064 171.557 354.525 171.557Z" fill="white"/>
<path fill-rule="evenodd" clip-rule="evenodd" d="M292.549 146.564C293.736 146.564 294.697 147.586 294.697 148.847L294.697 154.045C294.697 155.305 293.736 156.327 292.549 156.327C291.363 156.327 290.402 155.305 290.402 154.045L290.402 148.847C290.402 147.586 291.363 146.564 292.549 146.564Z" fill="#FF5543"/>
<path fill-rule="evenodd" clip-rule="evenodd" d="M275.562 152.422C275.562 151.128 276.583 150.079 277.842 150.079H283.044C284.303 150.079 285.324 151.128 285.324 152.422C285.324 153.716 284.303 154.765 283.044 154.765H277.842C276.583 154.765 275.562 153.716 275.562 152.422Z" fill="#A112FF"/>
<path fill-rule="evenodd" clip-rule="evenodd" d="M278.141 160.728C277.373 159.745 275.935 159.55 274.921 160.293C273.903 161.039 273.697 162.449 274.462 163.442L276.306 162.091C274.462 163.442 274.463 163.443 274.464 163.444L274.465 163.446L274.468 163.45L274.475 163.459C274.48 163.466 274.486 163.473 274.493 163.482C274.507 163.5 274.525 163.521 274.546 163.547C274.588 163.598 274.645 163.666 274.716 163.747C274.858 163.908 275.058 164.125 275.316 164.379C275.833 164.885 276.589 165.543 277.586 166.198C279.587 167.513 282.575 168.824 286.496 168.824C290.417 168.824 293.406 167.513 295.407 166.198C296.404 165.543 297.16 164.885 297.676 164.379C297.935 164.125 298.135 163.908 298.277 163.747C298.348 163.666 298.405 163.598 298.447 163.547C298.468 163.521 298.486 163.5 298.499 163.482C298.506 163.473 298.512 163.466 298.518 163.459L298.525 163.45L298.528 163.446L298.529 163.444C298.53 163.443 298.53 163.442 296.687 162.091L298.53 163.442C299.295 162.449 299.09 161.039 298.072 160.293C297.057 159.55 295.62 159.745 294.852 160.728C294.851 160.73 294.849 160.733 294.845 160.737C294.834 160.751 294.81 160.78 294.773 160.821C294.7 160.905 294.578 161.038 294.408 161.205C294.066 161.54 293.538 162.002 292.83 162.467C291.421 163.393 289.314 164.325 286.496 164.325C283.679 164.325 281.572 163.393 280.163 162.467C279.455 162.002 278.927 161.54 278.585 161.205C278.415 161.038 278.293 160.905 278.22 160.821C278.183 160.78 278.159 160.751 278.147 160.737C278.144 160.733 278.142 160.73 278.141 160.728ZM294.845 160.737L294.845 160.737L294.845 160.738M294.853 160.727L294.853 160.727L294.853 160.727Z" fill="#00CBEC"/>
<g filter="url(#filter4_d_3389_18543)">
<rect x="451" y="115" width="214" height="86" rx="11" fill="url(#paint10_radial_3389_18543)" fill-opacity="0.9" shape-rendering="crispEdges"/>
<rect x="451.5" y="115.5" width="213" height="85" rx="10.5" stroke="url(#paint11_linear_3389_18543)" stroke-opacity="0.4" shape-rendering="crispEdges"/>
</g>
<path d="M513.77 167.933C512.306 167.933 510.976 167.585 509.779 166.888C508.583 166.192 507.627 165.174 506.913 163.834C506.216 162.477 505.868 160.834 505.868 158.906C505.868 156.995 506.225 155.361 506.94 154.004C507.672 152.629 508.645 151.584 509.859 150.869C511.074 150.137 512.413 149.771 513.878 149.771C514.985 149.771 515.967 149.994 516.824 150.441C517.681 150.887 518.387 151.405 518.94 151.995L517.279 154.004C516.833 153.539 516.333 153.173 515.779 152.905C515.244 152.62 514.636 152.477 513.958 152.477C513.011 152.477 512.163 152.736 511.413 153.254C510.681 153.754 510.101 154.477 509.672 155.423C509.261 156.37 509.056 157.504 509.056 158.825C509.056 160.825 509.493 162.397 510.368 163.54C511.243 164.665 512.413 165.227 513.878 165.227C514.663 165.227 515.36 165.067 515.967 164.745C516.574 164.406 517.128 163.968 517.628 163.433L519.288 165.388C518.574 166.21 517.753 166.844 516.824 167.29C515.913 167.719 514.895 167.933 513.77 167.933Z" fill="white"/>
<path d="M526.459 167.933C525.369 167.933 524.351 167.665 523.405 167.129C522.458 166.576 521.691 165.79 521.101 164.772C520.512 163.736 520.217 162.495 520.217 161.049C520.217 159.584 520.512 158.343 521.101 157.325C521.691 156.289 522.458 155.504 523.405 154.968C524.351 154.414 525.369 154.138 526.459 154.138C527.566 154.138 528.593 154.414 529.539 154.968C530.486 155.504 531.254 156.289 531.843 157.325C532.432 158.343 532.727 159.584 532.727 161.049C532.727 162.495 532.432 163.736 531.843 164.772C531.254 165.79 530.486 166.576 529.539 167.129C528.593 167.665 527.566 167.933 526.459 167.933ZM526.459 165.415C527.423 165.415 528.182 165.013 528.736 164.209C529.289 163.406 529.566 162.352 529.566 161.049C529.566 159.727 529.289 158.665 528.736 157.861C528.182 157.057 527.423 156.656 526.459 156.656C525.494 156.656 524.735 157.057 524.182 157.861C523.646 158.665 523.378 159.727 523.378 161.049C523.378 162.352 523.646 163.406 524.182 164.209C524.735 165.013 525.494 165.415 526.459 165.415Z" fill="white"/>
<path d="M539.513 167.933C537.87 167.933 536.557 167.326 535.575 166.111C534.593 164.897 534.102 163.209 534.102 161.049C534.102 159.62 534.361 158.388 534.879 157.352C535.414 156.316 536.111 155.522 536.968 154.968C537.825 154.414 538.727 154.138 539.673 154.138C540.424 154.138 541.057 154.271 541.575 154.539C542.111 154.789 542.629 155.138 543.129 155.584L543.022 153.468V148.7H546.102V167.611H543.558L543.343 166.192H543.236C542.754 166.674 542.191 167.085 541.549 167.424C540.906 167.763 540.227 167.933 539.513 167.933ZM540.263 165.388C541.245 165.388 542.165 164.897 543.022 163.915V157.781C542.575 157.37 542.129 157.084 541.682 156.923C541.236 156.763 540.79 156.682 540.343 156.682C539.504 156.682 538.781 157.066 538.173 157.834C537.584 158.584 537.289 159.647 537.289 161.022C537.289 162.433 537.548 163.513 538.066 164.263C538.584 165.013 539.316 165.388 540.263 165.388Z" fill="white"/>
<path d="M554.78 167.933C553.566 167.933 552.468 167.665 551.485 167.129C550.503 166.576 549.726 165.79 549.155 164.772C548.583 163.736 548.298 162.495 548.298 161.049C548.298 159.62 548.583 158.388 549.155 157.352C549.744 156.316 550.503 155.522 551.432 154.968C552.36 154.414 553.334 154.138 554.352 154.138C555.548 154.138 556.548 154.405 557.352 154.941C558.155 155.459 558.762 156.191 559.173 157.138C559.584 158.066 559.789 159.147 559.789 160.379C559.789 161.022 559.745 161.522 559.655 161.879H551.298C551.441 163.04 551.86 163.942 552.557 164.584C553.253 165.227 554.128 165.549 555.182 165.549C555.753 165.549 556.28 165.468 556.762 165.308C557.262 165.129 557.753 164.888 558.236 164.584L559.28 166.513C558.655 166.924 557.959 167.263 557.191 167.531C556.423 167.799 555.619 167.933 554.78 167.933ZM551.271 159.79H557.111C557.111 158.772 556.887 157.977 556.441 157.406C555.994 156.816 555.325 156.522 554.432 156.522C553.664 156.522 552.976 156.807 552.369 157.379C551.78 157.932 551.414 158.736 551.271 159.79Z" fill="white"/>
<path d="M571.737 167.933C570.559 167.933 569.416 167.71 568.308 167.263C567.219 166.817 566.255 166.183 565.415 165.361L567.237 163.245C567.862 163.834 568.576 164.317 569.38 164.692C570.184 165.049 570.987 165.227 571.791 165.227C572.791 165.227 573.55 165.022 574.068 164.611C574.586 164.201 574.844 163.656 574.844 162.977C574.844 162.245 574.586 161.718 574.068 161.397C573.568 161.075 572.925 160.745 572.139 160.406L569.728 159.361C569.157 159.111 568.594 158.79 568.041 158.397C567.505 158.004 567.058 157.504 566.701 156.897C566.362 156.289 566.192 155.557 566.192 154.7C566.192 153.771 566.442 152.941 566.942 152.209C567.46 151.459 568.157 150.869 569.032 150.441C569.925 149.994 570.943 149.771 572.085 149.771C573.103 149.771 574.086 149.977 575.032 150.387C575.978 150.78 576.791 151.316 577.47 151.995L575.889 153.977C575.336 153.512 574.746 153.146 574.121 152.879C573.514 152.611 572.835 152.477 572.085 152.477C571.264 152.477 570.594 152.664 570.076 153.039C569.576 153.396 569.326 153.896 569.326 154.539C569.326 154.986 569.451 155.361 569.701 155.664C569.969 155.95 570.317 156.2 570.746 156.414C571.175 156.611 571.63 156.807 572.112 157.004L574.496 157.995C575.532 158.441 576.38 159.031 577.041 159.763C577.702 160.477 578.032 161.468 578.032 162.736C578.032 163.683 577.782 164.549 577.282 165.335C576.782 166.12 576.059 166.754 575.112 167.236C574.184 167.701 573.059 167.933 571.737 167.933Z" fill="white"/>
<path d="M585.705 167.933C584.49 167.933 583.392 167.665 582.41 167.129C581.428 166.576 580.651 165.79 580.079 164.772C579.508 163.736 579.222 162.495 579.222 161.049C579.222 159.62 579.508 158.388 580.079 157.352C580.669 156.316 581.428 155.522 582.356 154.968C583.285 154.414 584.258 154.138 585.276 154.138C586.472 154.138 587.473 154.405 588.276 154.941C589.08 155.459 589.687 156.191 590.098 157.138C590.508 158.066 590.714 159.147 590.714 160.379C590.714 161.022 590.669 161.522 590.58 161.879H582.222C582.365 163.04 582.785 163.942 583.481 164.584C584.178 165.227 585.053 165.549 586.106 165.549C586.678 165.549 587.205 165.468 587.687 165.308C588.187 165.129 588.678 164.888 589.16 164.584L590.205 166.513C589.58 166.924 588.883 167.263 588.115 167.531C587.347 167.799 586.544 167.933 585.705 167.933ZM582.195 159.79H588.035C588.035 158.772 587.812 157.977 587.365 157.406C586.919 156.816 586.249 156.522 585.356 156.522C584.588 156.522 583.901 156.807 583.294 157.379C582.704 157.932 582.338 158.736 582.195 159.79Z" fill="white"/>
<path d="M595.659 167.933C594.516 167.933 593.579 167.576 592.846 166.861C592.132 166.147 591.775 165.218 591.775 164.076C591.775 162.665 592.391 161.575 593.623 160.807C594.855 160.022 596.82 159.486 599.516 159.2C599.499 158.504 599.311 157.906 598.954 157.406C598.615 156.888 597.999 156.629 597.106 156.629C596.463 156.629 595.829 156.754 595.204 157.004C594.597 157.254 593.998 157.557 593.409 157.914L592.284 155.852C593.016 155.388 593.838 154.986 594.748 154.646C595.677 154.307 596.659 154.138 597.695 154.138C599.338 154.138 600.561 154.629 601.365 155.611C602.186 156.575 602.597 157.977 602.597 159.816V167.611H600.052L599.838 166.165H599.731C599.141 166.665 598.507 167.085 597.829 167.424C597.168 167.763 596.445 167.933 595.659 167.933ZM596.65 165.522C597.186 165.522 597.668 165.397 598.097 165.147C598.543 164.879 599.016 164.522 599.516 164.076V161.129C597.731 161.361 596.49 161.709 595.793 162.174C595.097 162.62 594.748 163.174 594.748 163.834C594.748 164.424 594.927 164.852 595.284 165.12C595.641 165.388 596.097 165.522 596.65 165.522Z" fill="white"/>
<path d="M605.413 167.611V154.459H607.958L608.172 156.789H608.279C608.743 155.932 609.306 155.28 609.967 154.834C610.628 154.37 611.306 154.138 612.003 154.138C612.628 154.138 613.128 154.227 613.503 154.405L612.967 157.084C612.735 157.013 612.52 156.959 612.324 156.923C612.128 156.888 611.886 156.87 611.601 156.87C611.083 156.87 610.538 157.075 609.967 157.486C609.395 157.879 608.904 158.575 608.493 159.575V167.611H605.413Z" fill="white"/>
<path d="M619.765 167.933C618.568 167.933 617.488 167.665 616.524 167.129C615.577 166.576 614.818 165.79 614.247 164.772C613.693 163.736 613.416 162.495 613.416 161.049C613.416 159.584 613.72 158.343 614.327 157.325C614.934 156.289 615.738 155.504 616.738 154.968C617.756 154.414 618.845 154.138 620.006 154.138C620.845 154.138 621.578 154.28 622.203 154.566C622.828 154.852 623.381 155.2 623.863 155.611L622.363 157.62C622.024 157.316 621.676 157.084 621.319 156.923C620.961 156.745 620.578 156.656 620.167 156.656C619.113 156.656 618.247 157.057 617.568 157.861C616.908 158.665 616.577 159.727 616.577 161.049C616.577 162.352 616.899 163.406 617.542 164.209C618.202 165.013 619.051 165.415 620.086 165.415C620.604 165.415 621.086 165.308 621.533 165.093C621.997 164.861 622.417 164.593 622.792 164.29L624.051 166.326C623.444 166.861 622.765 167.263 622.015 167.531C621.265 167.799 620.515 167.933 619.765 167.933Z" fill="white"/>
<path d="M625.776 167.611V148.7H628.857V153.575L628.75 156.12C629.303 155.602 629.919 155.146 630.598 154.754C631.277 154.343 632.062 154.138 632.955 154.138C634.366 154.138 635.393 154.593 636.036 155.504C636.679 156.414 637 157.7 637 159.361V167.611H633.92V159.763C633.92 158.673 633.759 157.906 633.437 157.459C633.116 157.013 632.589 156.789 631.857 156.789C631.286 156.789 630.777 156.932 630.33 157.218C629.902 157.486 629.41 157.888 628.857 158.423V167.611H625.776Z" fill="white"/>
<path fill-rule="evenodd" clip-rule="evenodd" d="M492.62 166.937C490.909 168.168 488.81 168.893 486.541 168.893C480.786 168.893 476.12 164.227 476.12 158.471C476.12 152.716 480.786 148.05 486.541 148.05C492.297 148.05 496.963 152.716 496.963 158.471C496.963 160.359 496.461 162.13 495.583 163.657L498.964 167.038C499.826 167.9 499.826 169.298 498.964 170.16C498.102 171.022 496.704 171.022 495.843 170.16L492.62 166.937ZM495.386 158.471C495.386 163.356 491.426 167.316 486.541 167.316C481.657 167.316 477.697 163.356 477.697 158.471C477.697 153.586 481.657 149.626 486.541 149.626C491.426 149.626 495.386 153.586 495.386 158.471Z" fill="white"/>
<path fill-rule="evenodd" clip-rule="evenodd" d="M481.953 155.144C481.953 154.622 482.376 154.198 482.899 154.198H490.151C490.673 154.198 491.097 154.622 491.097 155.144C491.097 155.666 490.673 156.09 490.151 156.09H482.899C482.376 156.09 481.953 155.666 481.953 155.144Z" fill="#A112FF"/>
<path fill-rule="evenodd" clip-rule="evenodd" d="M481.953 158.297C481.953 157.775 482.376 157.351 482.899 157.351H490.151C490.673 157.351 491.097 157.775 491.097 158.297C491.097 158.819 490.673 159.243 490.151 159.243H482.899C482.376 159.243 481.953 158.819 481.953 158.297Z" fill="#FF5543"/>
<path fill-rule="evenodd" clip-rule="evenodd" d="M481.953 161.608C481.953 161.085 482.376 160.662 482.899 160.662H490.151C490.673 160.662 491.097 161.085 491.097 161.608C491.097 162.13 490.673 162.554 490.151 162.554H482.899C482.376 162.554 481.953 162.13 481.953 161.608Z" fill="#00CBEC"/>
</g>
<defs>
<filter id="filter0_f_3389_18543" x="178" y="130" width="519" height="171" filterUnits="userSpaceOnUse" color-interpolation-filters="sRGB">
<feFlood flood-opacity="0" result="BackgroundImageFix"/>
<feBlend mode="normal" in="SourceGraphic" in2="BackgroundImageFix" result="shape"/>
<feGaussianBlur stdDeviation="2.5" result="effect1_foregroundBlur_3389_18543"/>
</filter>
<filter id="filter1_d_3389_18543" x="179" y="312" width="257" height="55" filterUnits="userSpaceOnUse" color-interpolation-filters="sRGB">
<feFlood flood-opacity="0" result="BackgroundImageFix"/>
<feColorMatrix in="SourceAlpha" type="matrix" values="0 0 0 0 0 0 0 0 0 0 0 0 0 0 0 0 0 0 127 0" result="hardAlpha"/>
<feOffset dy="4"/>
<feGaussianBlur stdDeviation="2"/>
<feComposite in2="hardAlpha" operator="out"/>
<feColorMatrix type="matrix" values="0 0 0 0 0 0 0 0 0 0 0 0 0 0 0 0 0 0 0.25 0"/>
<feBlend mode="normal" in2="BackgroundImageFix" result="effect1_dropShadow_3389_18543"/>
<feBlend mode="normal" in="SourceGraphic" in2="effect1_dropShadow_3389_18543" result="shape"/>
</filter>
<filter id="filter2_d_3389_18543" x="447" y="313" width="249.053" height="55" filterUnits="userSpaceOnUse" color-interpolation-filters="sRGB">
<feFlood flood-opacity="0" result="BackgroundImageFix"/>
<feColorMatrix in="SourceAlpha" type="matrix" values="0 0 0 0 0 0 0 0 0 0 0 0 0 0 0 0 0 0 127 0" result="hardAlpha"/>
<feOffset dy="4"/>
<feGaussianBlur stdDeviation="2"/>
<feComposite in2="hardAlpha" operator="out"/>
<feColorMatrix type="matrix" values="0 0 0 0 0 0 0 0 0 0 0 0 0 0 0 0 0 0 0.25 0"/>
<feBlend mode="normal" in2="BackgroundImageFix" result="effect1_dropShadow_3389_18543"/>
<feBlend mode="normal" in="SourceGraphic" in2="effect1_dropShadow_3389_18543" result="shape"/>
</filter>
<filter id="filter3_d_3389_18543" x="189" y="95" width="266" height="138" filterUnits="userSpaceOnUse" color-interpolation-filters="sRGB">
<feFlood flood-opacity="0" result="BackgroundImageFix"/>
<feColorMatrix in="SourceAlpha" type="matrix" values="0 0 0 0 0 0 0 0 0 0 0 0 0 0 0 0 0 0 127 0" result="hardAlpha"/>
<feOffset dx="2" dy="6"/>
<feGaussianBlur stdDeviation="13"/>
<feComposite in2="hardAlpha" operator="out"/>
<feColorMatrix type="matrix" values="0 0 0 0 0 0 0 0 0 0 0 0 0 0 0 0 0 0 0.65 0"/>
<feBlend mode="normal" in2="BackgroundImageFix" result="effect1_dropShadow_3389_18543"/>
<feBlend mode="normal" in="SourceGraphic" in2="effect1_dropShadow_3389_18543" result="shape"/>
</filter>
<filter id="filter4_d_3389_18543" x="427" y="95" width="266" height="138" filterUnits="userSpaceOnUse" color-interpolation-filters="sRGB">
<feFlood flood-opacity="0" result="BackgroundImageFix"/>
<feColorMatrix in="SourceAlpha" type="matrix" values="0 0 0 0 0 0 0 0 0 0 0 0 0 0 0 0 0 0 127 0" result="hardAlpha"/>
<feOffset dx="2" dy="6"/>
<feGaussianBlur stdDeviation="13"/>
<feComposite in2="hardAlpha" operator="out"/>
<feColorMatrix type="matrix" values="0 0 0 0 0 0 0 0 0 0 0 0 0 0 0 0 0 0 0.65 0"/>
<feBlend mode="normal" in2="BackgroundImageFix" result="effect1_dropShadow_3389_18543"/>
<feBlend mode="normal" in="SourceGraphic" in2="effect1_dropShadow_3389_18543" result="shape"/>
</filter>
<linearGradient id="paint0_linear_3389_18543" x1="551" y1="337.5" x2="193" y2="135" gradientUnits="userSpaceOnUse">
<stop stop-color="#FF5543"/>
<stop offset="0.549461" stop-color="#A112FF"/>
<stop offset="0.924533" stop-color="#00CBEC"/>
</linearGradient>
<radialGradient id="paint1_radial_3389_18543" cx="0" cy="0" r="1" gradientUnits="userSpaceOnUse" gradientTransform="translate(448.5 229) rotate(90) scale(237.5 239.893)">
<stop stop-color="#231231" stop-opacity="0"/>
<stop offset="0.989583" stop-color="#270741"/>
</radialGradient>
<radialGradient id="paint2_radial_3389_18543" cx="0" cy="0" r="1" gradientUnits="userSpaceOnUse" gradientTransform="translate(429 225.5) rotate(90.1387) scale(206.501 427.227)">
<stop stop-color="#A112FF" stop-opacity="0.81"/>
<stop offset="1" stop-color="#A112FF" stop-opacity="0"/>
</radialGradient>
<linearGradient id="paint3_linear_3389_18543" x1="424.449" y1="333.474" x2="431.477" y2="108.075" gradientUnits="userSpaceOnUse">
<stop stop-color="#15171E" stop-opacity="0"/>
<stop offset="0.877552" stop-color="#343A4D" stop-opacity="0.49"/>
</linearGradient>
<linearGradient id="paint4_linear_3389_18543" x1="203.882" y1="326.534" x2="525.001" y2="-21.9983" gradientUnits="userSpaceOnUse">
<stop stop-color="#A112FF"/>
<stop offset="1" stop-color="#00CBEC"/>
</linearGradient>
<linearGradient id="paint5_linear_3389_18543" x1="190.831" y1="282.121" x2="608.856" y2="52.8206" gradientUnits="userSpaceOnUse">
<stop stop-color="#00CBEC"/>
<stop offset="0.244792" stop-color="#6952F8"/>
<stop offset="0.453125" stop-color="#A112FF"/>
<stop offset="0.5625" stop-color="#B621D6"/>
<stop offset="1" stop-color="#FF5543"/>
</linearGradient>
<linearGradient id="paint6_linear_3389_18543" x1="307.5" y1="312" x2="307.5" y2="359" gradientUnits="userSpaceOnUse">
<stop stop-color="#A6B6D9" stop-opacity="0.28"/>
<stop offset="1" stop-color="#6112A3" stop-opacity="0.44"/>
</linearGradient>
<linearGradient id="paint7_linear_3389_18543" x1="571.527" y1="313" x2="571.527" y2="360" gradientUnits="userSpaceOnUse">
<stop stop-color="#A6B6D9" stop-opacity="0.28"/>
<stop offset="1" stop-color="#6112A3" stop-opacity="0.44"/>
</linearGradient>
<radialGradient id="paint8_radial_3389_18543" cx="0" cy="0" r="1" gradientUnits="userSpaceOnUse" gradientTransform="translate(324.458 201) rotate(-95.5549) scale(115.144 250.272)">
<stop offset="0.145833" stop-color="#1E0632"/>
<stop offset="0.540416" stop-color="#270741"/>
<stop offset="0.979167" stop-color="#6112A3"/>
</radialGradient>
<linearGradient id="paint9_linear_3389_18543" x1="183.5" y1="201" x2="443.5" y2="137" gradientUnits="userSpaceOnUse">
<stop stop-color="white"/>
<stop offset="1" stop-color="white"/>
</linearGradient>
<radialGradient id="paint10_radial_3389_18543" cx="0" cy="0" r="1" gradientUnits="userSpaceOnUse" gradientTransform="translate(562.458 201) rotate(-95.5549) scale(115.144 250.272)">
<stop offset="0.145833" stop-color="#1E0632"/>
<stop offset="0.540416" stop-color="#270741"/>
<stop offset="0.979167" stop-color="#6112A3"/>
</radialGradient>
<linearGradient id="paint11_linear_3389_18543" x1="421.5" y1="201" x2="681.5" y2="137" gradientUnits="userSpaceOnUse">
<stop stop-color="white"/>
<stop offset="1" stop-color="white"/>
</linearGradient>
<clipPath id="clip0_3389_18543">
<rect width="859" height="465" fill="white"/>
</clipPath>
</defs>
</svg>
