<svg version="1.2" xmlns="http://www.w3.org/2000/svg" viewBox="0 0 1268 887" width="1268" height="887">
	<title>background1-svg</title>
	<defs>
		<radialGradient id="g1" cx="920.3" cy="554.3" r="425.6" gradientUnits="userSpaceOnUse">
			<stop offset="0" stop-color="#a6b6d9" stop-opacity="1"/>
			<stop offset="1" stop-color="#a6b6d9" stop-opacity="0"/>
		</radialGradient>
		<linearGradient id="g2" x1="1076.7" y1="182.4" x2="281.5" y2="752.2" gradientUnits="userSpaceOnUse">
			<stop offset="0" stop-color="#a112ff" stop-opacity="0"/>
			<stop offset=".168" stop-color="#a112ff" stop-opacity="1"/>
			<stop offset=".888" stop-color="#00cbec" stop-opacity=".02"/>
			<stop offset="1" stop-color="#00cbec" stop-opacity="0"/>
		</linearGradient>
		<filter x="-50%" y="-50%" width="200%" height="200%" id="f1"> <feGaussianBlur stdDeviation="5"/> </filter>
		<filter x="-50%" y="-50%" width="200%" height="200%" id="f2"> <feGaussianBlur stdDeviation="1.5"/> </filter>
		<filter x="-50%" y="-50%" width="200%" height="200%" id="f3"> <feGaussianBlur stdDeviation=".5"/> </filter>
		<radialGradient id="g3" cx="748.9" cy="655.5" r="1.7" gradientUnits="userSpaceOnUse">
			<stop offset=".781" stop-color="#ffffff" stop-opacity="1"/>
			<stop offset="1" stop-color="#ffc59b" stop-opacity="0"/>
		</radialGradient>
		<radialGradient id="g4" cx="663.9" cy="485.5" r="1.7" gradientUnits="userSpaceOnUse">
			<stop offset=".781" stop-color="#ffffff" stop-opacity="1"/>
			<stop offset="1" stop-color="#ffc59b" stop-opacity="0"/>
		</radialGradient>
		<radialGradient id="g5" cx="1081.9" cy="204.5" r="1.7" gradientUnits="userSpaceOnUse">
			<stop offset=".781" stop-color="#ffffff" stop-opacity="1"/>
			<stop offset="1" stop-color="#ffc59b" stop-opacity="0"/>
		</radialGradient>
		<linearGradient id="g6" x1="1087.4" y1="478.6" x2="509.8" y2="885" gradientUnits="userSpaceOnUse">
			<stop offset="0" stop-color="#a112ff" stop-opacity="0"/>
			<stop offset=".168" stop-color="#a112ff" stop-opacity="1"/>
			<stop offset=".888" stop-color="#00cbec" stop-opacity=".02"/>
			<stop offset="1" stop-color="#00cbec" stop-opacity="0"/>
		</linearGradient>
	</defs>
	<style>
		.s0 { fill: none;stroke: url(#g1);stroke-opacity: .5 } 
		.s1 { opacity: .6;fill: none;stroke: url(#g2);stroke-linecap: round;stroke-dasharray: 8 } 
		.s2 { filter: url(#f1);fill: #a112ff } 
		.s3 { filter: url(#f2);fill: #ffffff } 
		.s4 { filter: url(#f3);fill: url(#g3) } 
		.s5 { filter: url(#f3);fill: url(#g4) } 
		.s6 { filter: url(#f3);fill: url(#g5) } 
		.s7 { opacity: .6;fill: none;stroke: url(#g6);stroke-linecap: round;stroke-dasharray: 8 } 
	</style>
	<path id="Layer" class="s0" d="m972.2 241.1l-587.3 394.5m615.6-375.6l-587.4 394.4m615.7-375.6l-587.4 394.5m615.9-375.4l-587.3 394.4m615.6-375.6l-587.3 394.5m615.6-375.6l-587.3 394.4m615.6-375.6l-587.4 394.5m615.7-375.6l-587.4 394.5m615.9-375.5l-587.3 394.5m615.6-375.6l-587.3 394.4m615.6-375.6l-587.3 394.5m615.6-375.6l-587.3 394.5m615.8-375.5l-587.3 394.5m615.6-375.6l-587.3 394.5m615.6-375.6l-587.3 394.4m615.6-375.6l-587.3 394.5m615.6-375.6l-587.3 394.4m615.8-375.4l-587.3 394.5m615.6-375.6l-587.3 394.4m615.6-375.6l-587.3 394.5m-542.5-394.6l595.2 396.8m-566.8-415.8l595.1 396.7m-566.8-415.7l595.1 396.7m-566.7-415.8l595.1 396.8m-566.8-415.8l595.1 396.7m-566.7-415.8l595.1 396.8m-566.8-415.8l595.1 396.7m-566.7-415.7l595.1 396.7m-566.8-415.8l595.1 396.8m-566.8-415.8l595.2 396.7m-566.8-415.7l595.1 396.7m-566.8-415.8l595.1 396.8m-566.7-415.8l595.1 396.7m-566.8-415.7l595.1 396.7m-566.7-415.8l595.1 396.8m-566.8-415.8l595.1 396.7m-566.7-415.8l595.1 396.8m-566.8-415.8l595.1 396.7m-566.8-415.7l595.1 396.7m-566.7-415.8l595.1 396.8"/>
	<path id="Layer" class="s1" d="m266.1 752.3l843.2-564.4"/>
	<g id="Layer" style="opacity: .6">
		<path id="Layer" class="s2" d="m749.5 663c-4.1 0-7.5-3.4-7.5-7.5 0-4.1 3.4-7.5 7.5-7.5 4.1 0 7.5 3.4 7.5 7.5 0 4.1-3.4 7.5-7.5 7.5z"/>
	</g>
	<g id="Layer">
		<path id="Layer" class="s3" d="m748.9 657.8c-1.3 0-2.3-1-2.3-2.3 0-1.3 1-2.3 2.3-2.3 1.3 0 2.3 1 2.3 2.3 0 1.3-1 2.3-2.3 2.3z"/>
	</g>
	<g id="Layer">
		<path id="Layer" class="s4" d="m748.9 657.2c-0.9 0-1.7-0.7-1.7-1.7 0-1 0.8-1.7 1.7-1.7 1 0 1.8 0.7 1.8 1.7 0 1-0.8 1.7-1.8 1.7z"/>
	</g>
	<g id="Layer" style="opacity: .6">
		<path id="Layer" class="s2" d="m664.5 493c-4.1 0-7.5-3.4-7.5-7.5 0-4.1 3.4-7.5 7.5-7.5 4.1 0 7.5 3.4 7.5 7.5 0 4.1-3.4 7.5-7.5 7.5z"/>
	</g>
	<g id="Layer">
		<path id="Layer" class="s3" d="m663.9 487.8c-1.3 0-2.3-1-2.3-2.3 0-1.3 1-2.3 2.3-2.3 1.3 0 2.3 1 2.3 2.3 0 1.3-1 2.3-2.3 2.3z"/>
	</g>
	<g id="Layer">
		<path id="Layer" class="s5" d="m663.9 487.2c-0.9 0-1.7-0.7-1.7-1.7 0-1 0.8-1.7 1.7-1.7 1 0 1.8 0.7 1.8 1.7 0 1-0.8 1.7-1.8 1.7z"/>
	</g>
	<g id="Layer" style="opacity: .6">
		<path id="Layer" class="s2" d="m1082.5 212c-4.1 0-7.5-3.4-7.5-7.5 0-4.1 3.4-7.5 7.5-7.5 4.1 0 7.5 3.4 7.5 7.5 0 4.1-3.4 7.5-7.5 7.5z"/>
	</g>
	<g id="Layer">
		<path id="Layer" class="s3" d="m1081.9 206.8c-1.3 0-2.3-1-2.3-2.3 0-1.3 1-2.3 2.3-2.3 1.3 0 2.3 1 2.3 2.3 0 1.3-1 2.3-2.3 2.3z"/>
	</g>
	<g id="Layer">
		<path id="Layer" class="s6" d="m1081.9 206.2c-0.9 0-1.7-0.7-1.7-1.7 0-1 0.8-1.7 1.7-1.7 1 0 1.8 0.7 1.8 1.7 0 1-0.8 1.7-1.8 1.7z"/>
	</g>
	<path id="Layer" class="s7" d="m506.1 895.3l608.2-407.4"/>
</svg>