<svg width="859" height="465" viewBox="0 0 859 465" fill="none" xmlns="http://www.w3.org/2000/svg">
<path d="M85.9294 -168V626M124.057 -168V626M162.185 -168V626M200.642 -168V626M238.769 -168V626M276.898 -168V626M315.026 -168V626M353.153 -168V626M391.61 -168V626M429.738 -168V626M467.866 -168V626M505.994 -168V626M544.45 -168V626M582.579 -168V626M620.706 -168V626M658.835 -168V626M696.962 -168V626M735.419 -168L735.419 626M773.544 -168V626M811.679 -168V626M47.5 592.726H849.5M47.5 554.405L849.5 554.406M47.5 516.087H849.5M47.5 477.768H849.5M47.5 439.45H849.5M47.5 401.131H849.5M47.5 362.812H849.5M47.5 324.494H849.5M47.5 286.175H849.5M47.5 247.857H849.5M47.5 209.538H849.5M47.5 171.22H849.5M47.5 132.901H849.5M47.5 94.5828H849.5M47.5 56.2643H849.5M47.5 17.9458H849.5M47.5 -20.3728H849.5M47.5 -58.6913H849.5M47.5 -97.0098H849.5M47.5 -135.328H849.5" stroke="url(#paint0_radial_2592_19358)" stroke-opacity="0.3"/>
<ellipse cx="429" cy="225.5" rx="502.5" ry="232.5" fill="url(#paint1_radial_2592_19358)" fill-opacity="0.4"/>
<rect x="124.5" y="234" width="300" height="116" rx="23" fill="#210E30"/>
<rect x="124.5" y="234" width="300" height="116" rx="23" fill="url(#paint2_linear_2592_19358)"/>
<rect x="124.5" y="234" width="300" height="116" rx="23" fill="url(#paint3_linear_2592_19358)" fill-opacity="0.24"/>
<rect x="125" y="234.5" width="299" height="115" rx="22.5" stroke="white" stroke-opacity="0.3"/>
<g filter="url(#filter0_f_2592_19358)">
<rect x="124.5" y="234" width="300" height="116" rx="23" fill="url(#paint4_linear_2592_19358)"/>
<rect x="125" y="234.5" width="299" height="115" rx="22.5" stroke="white" stroke-opacity="0.3"/>
</g>
<path d="M146.004 325.192C145.129 325.192 144.335 324.984 143.62 324.568C142.905 324.152 142.335 323.544 141.908 322.744C141.492 321.933 141.284 320.952 141.284 319.8C141.284 318.659 141.497 317.683 141.924 316.872C142.361 316.051 142.943 315.427 143.668 315C144.393 314.563 145.193 314.344 146.068 314.344C146.729 314.344 147.316 314.477 147.828 314.744C148.34 315.011 148.761 315.32 149.092 315.672L148.1 316.872C147.833 316.595 147.535 316.376 147.204 316.216C146.884 316.045 146.521 315.96 146.116 315.96C145.551 315.96 145.044 316.115 144.596 316.424C144.159 316.723 143.812 317.155 143.556 317.72C143.311 318.285 143.188 318.963 143.188 319.752C143.188 320.947 143.449 321.885 143.972 322.568C144.495 323.24 145.193 323.576 146.068 323.576C146.537 323.576 146.953 323.48 147.316 323.288C147.679 323.085 148.009 322.824 148.308 322.504L149.3 323.672C148.873 324.163 148.383 324.541 147.828 324.808C147.284 325.064 146.676 325.192 146.004 325.192ZM154.103 325.192C153.452 325.192 152.844 325.032 152.279 324.712C151.713 324.381 151.255 323.912 150.903 323.304C150.551 322.685 150.375 321.944 150.375 321.08C150.375 320.205 150.551 319.464 150.903 318.856C151.255 318.237 151.713 317.768 152.279 317.448C152.844 317.117 153.452 316.952 154.103 316.952C154.764 316.952 155.377 317.117 155.943 317.448C156.508 317.768 156.967 318.237 157.319 318.856C157.671 319.464 157.847 320.205 157.847 321.08C157.847 321.944 157.671 322.685 157.319 323.304C156.967 323.912 156.508 324.381 155.943 324.712C155.377 325.032 154.764 325.192 154.103 325.192ZM154.103 323.688C154.679 323.688 155.132 323.448 155.463 322.968C155.793 322.488 155.959 321.859 155.959 321.08C155.959 320.291 155.793 319.656 155.463 319.176C155.132 318.696 154.679 318.456 154.103 318.456C153.527 318.456 153.073 318.696 152.743 319.176C152.423 319.656 152.263 320.291 152.263 321.08C152.263 321.859 152.423 322.488 152.743 322.968C153.073 323.448 153.527 323.688 154.103 323.688ZM162.42 325.192C161.439 325.192 160.655 324.829 160.068 324.104C159.481 323.379 159.188 322.371 159.188 321.08C159.188 320.227 159.343 319.491 159.652 318.872C159.972 318.253 160.388 317.779 160.9 317.448C161.412 317.117 161.951 316.952 162.516 316.952C162.964 316.952 163.343 317.032 163.652 317.192C163.972 317.341 164.281 317.549 164.58 317.816L164.516 316.552V313.704H166.356V325H164.836L164.708 324.152H164.644C164.356 324.44 164.02 324.685 163.636 324.888C163.252 325.091 162.847 325.192 162.42 325.192ZM162.868 323.672C163.455 323.672 164.004 323.379 164.516 322.792V319.128C164.249 318.883 163.983 318.712 163.716 318.616C163.449 318.52 163.183 318.472 162.916 318.472C162.415 318.472 161.983 318.701 161.62 319.16C161.268 319.608 161.092 320.243 161.092 321.064C161.092 321.907 161.247 322.552 161.556 323C161.865 323.448 162.303 323.672 162.868 323.672ZM172.059 325.192C171.334 325.192 170.678 325.032 170.091 324.712C169.505 324.381 169.041 323.912 168.699 323.304C168.358 322.685 168.187 321.944 168.187 321.08C168.187 320.227 168.358 319.491 168.699 318.872C169.051 318.253 169.505 317.779 170.059 317.448C170.614 317.117 171.195 316.952 171.803 316.952C172.518 316.952 173.115 317.112 173.595 317.432C174.075 317.741 174.438 318.179 174.683 318.744C174.929 319.299 175.051 319.944 175.051 320.68C175.051 321.064 175.025 321.363 174.971 321.576H169.979C170.065 322.269 170.315 322.808 170.731 323.192C171.147 323.576 171.67 323.768 172.299 323.768C172.641 323.768 172.955 323.72 173.243 323.624C173.542 323.517 173.835 323.373 174.123 323.192L174.747 324.344C174.374 324.589 173.958 324.792 173.499 324.952C173.041 325.112 172.561 325.192 172.059 325.192ZM169.963 320.328H173.451C173.451 319.72 173.318 319.245 173.051 318.904C172.785 318.552 172.385 318.376 171.851 318.376C171.393 318.376 170.982 318.547 170.619 318.888C170.267 319.219 170.049 319.699 169.963 320.328ZM182.748 328.472C182.129 328.472 181.569 328.397 181.068 328.248C180.577 328.099 180.188 327.869 179.9 327.56C179.622 327.261 179.484 326.883 179.484 326.424C179.484 325.773 179.857 325.213 180.604 324.744V324.68C180.401 324.552 180.23 324.381 180.092 324.168C179.964 323.955 179.9 323.688 179.9 323.368C179.9 323.059 179.985 322.781 180.156 322.536C180.337 322.28 180.54 322.072 180.764 321.912V321.848C180.497 321.645 180.257 321.363 180.044 321C179.841 320.637 179.74 320.227 179.74 319.768C179.74 319.16 179.884 318.648 180.172 318.232C180.46 317.816 180.838 317.501 181.308 317.288C181.788 317.064 182.3 316.952 182.844 316.952C183.057 316.952 183.26 316.973 183.452 317.016C183.654 317.048 183.836 317.091 183.996 317.144H186.812V318.504H185.372C185.5 318.653 185.606 318.845 185.692 319.08C185.777 319.304 185.82 319.555 185.82 319.832C185.82 320.408 185.686 320.899 185.42 321.304C185.153 321.699 184.796 321.997 184.348 322.2C183.9 322.403 183.398 322.504 182.844 322.504C182.673 322.504 182.497 322.488 182.316 322.456C182.134 322.424 181.953 322.371 181.772 322.296C181.654 322.403 181.558 322.509 181.484 322.616C181.42 322.723 181.388 322.867 181.388 323.048C181.388 323.272 181.478 323.448 181.66 323.576C181.852 323.704 182.188 323.768 182.668 323.768H184.06C185.009 323.768 185.724 323.923 186.204 324.232C186.694 324.531 186.94 325.021 186.94 325.704C186.94 326.216 186.769 326.68 186.428 327.096C186.086 327.523 185.601 327.859 184.972 328.104C184.342 328.349 183.601 328.472 182.748 328.472ZM182.844 321.352C183.217 321.352 183.537 321.213 183.804 320.936C184.07 320.659 184.204 320.269 184.204 319.768C184.204 319.277 184.07 318.899 183.804 318.632C183.548 318.355 183.228 318.216 182.844 318.216C182.46 318.216 182.134 318.349 181.868 318.616C181.601 318.883 181.468 319.267 181.468 319.768C181.468 320.269 181.601 320.659 181.868 320.936C182.134 321.213 182.46 321.352 182.844 321.352ZM183.036 327.272C183.665 327.272 184.177 327.144 184.572 326.888C184.966 326.632 185.164 326.339 185.164 326.008C185.164 325.699 185.041 325.491 184.796 325.384C184.561 325.277 184.22 325.224 183.772 325.224H182.7C182.273 325.224 181.916 325.187 181.628 325.112C181.222 325.421 181.02 325.768 181.02 326.152C181.02 326.504 181.201 326.776 181.564 326.968C181.926 327.171 182.417 327.272 183.036 327.272ZM188.324 325V317.144H189.844L189.972 318.536H190.036C190.314 318.024 190.65 317.635 191.044 317.368C191.439 317.091 191.844 316.952 192.26 316.952C192.634 316.952 192.932 317.005 193.156 317.112L192.836 318.712C192.698 318.669 192.57 318.637 192.452 318.616C192.335 318.595 192.191 318.584 192.02 318.584C191.711 318.584 191.386 318.707 191.044 318.952C190.703 319.187 190.41 319.603 190.164 320.2V325H188.324ZM195.775 325.192C195.092 325.192 194.532 324.979 194.095 324.552C193.668 324.125 193.455 323.571 193.455 322.888C193.455 322.045 193.823 321.395 194.559 320.936C195.295 320.467 196.468 320.147 198.079 319.976C198.068 319.56 197.956 319.203 197.743 318.904C197.54 318.595 197.172 318.44 196.639 318.44C196.255 318.44 195.876 318.515 195.503 318.664C195.14 318.813 194.783 318.995 194.431 319.208L193.759 317.976C194.196 317.699 194.687 317.459 195.231 317.256C195.786 317.053 196.372 316.952 196.991 316.952C197.972 316.952 198.703 317.245 199.183 317.832C199.674 318.408 199.919 319.245 199.919 320.344V325H198.399L198.271 324.136H198.207C197.855 324.435 197.476 324.685 197.071 324.888C196.676 325.091 196.244 325.192 195.775 325.192ZM196.367 323.752C196.687 323.752 196.975 323.677 197.231 323.528C197.498 323.368 197.78 323.155 198.079 322.888V321.128C197.012 321.267 196.271 321.475 195.855 321.752C195.439 322.019 195.231 322.349 195.231 322.744C195.231 323.096 195.338 323.352 195.551 323.512C195.764 323.672 196.036 323.752 196.367 323.752ZM202.121 328.104V317.144H203.641L203.769 317.976H203.833C204.164 317.699 204.532 317.459 204.937 317.256C205.353 317.053 205.774 316.952 206.201 316.952C207.182 316.952 207.94 317.315 208.473 318.04C209.017 318.765 209.289 319.736 209.289 320.952C209.289 321.848 209.129 322.616 208.809 323.256C208.489 323.885 208.073 324.365 207.561 324.696C207.06 325.027 206.516 325.192 205.929 325.192C205.588 325.192 205.246 325.117 204.905 324.968C204.564 324.808 204.233 324.595 203.913 324.328L203.961 325.64V328.104H202.121ZM205.545 323.672C206.068 323.672 206.505 323.443 206.857 322.984C207.209 322.525 207.385 321.853 207.385 320.968C207.385 320.179 207.252 319.565 206.985 319.128C206.718 318.691 206.286 318.472 205.689 318.472C205.134 318.472 204.558 318.765 203.961 319.352V323.016C204.249 323.251 204.526 323.421 204.793 323.528C205.06 323.624 205.31 323.672 205.545 323.672ZM211.152 325V313.704H212.992V316.616L212.928 318.136C213.259 317.827 213.627 317.555 214.032 317.32C214.438 317.075 214.907 316.952 215.44 316.952C216.283 316.952 216.896 317.224 217.28 317.768C217.664 318.312 217.856 319.08 217.856 320.072V325H216.016V320.312C216.016 319.661 215.92 319.203 215.728 318.936C215.536 318.669 215.222 318.536 214.784 318.536C214.443 318.536 214.139 318.621 213.872 318.792C213.616 318.952 213.323 319.192 212.992 319.512V325H211.152Z" fill="white"/>
<rect x="124.5" y="107" width="196.612" height="116" rx="23" fill="#A6B6D9"/>
<rect x="124.5" y="107" width="196.612" height="116" rx="23" fill="url(#paint5_linear_2592_19358)"/>
<rect x="125" y="107.5" width="195.612" height="115" rx="22.5" stroke="white" stroke-opacity="0.3"/>
<path d="M140.977 144V133.536H143.777C145.377 133.536 146.625 133.968 147.521 134.832C148.417 135.696 148.865 136.992 148.865 138.72C148.865 140.459 148.422 141.776 147.537 142.672C146.652 143.557 145.43 144 143.873 144H140.977ZM142.833 142.496H143.649C144.705 142.496 145.521 142.192 146.097 141.584C146.673 140.965 146.961 140.011 146.961 138.72C146.961 137.44 146.673 136.507 146.097 135.92C145.521 135.333 144.705 135.04 143.649 135.04H142.833V142.496ZM152.721 144.192C152.038 144.192 151.478 143.979 151.041 143.552C150.614 143.125 150.401 142.571 150.401 141.888C150.401 141.045 150.769 140.395 151.505 139.936C152.241 139.467 153.414 139.147 155.025 138.976C155.014 138.56 154.902 138.203 154.689 137.904C154.486 137.595 154.118 137.44 153.585 137.44C153.201 137.44 152.822 137.515 152.449 137.664C152.086 137.813 151.729 137.995 151.377 138.208L150.705 136.976C151.142 136.699 151.633 136.459 152.177 136.256C152.732 136.053 153.318 135.952 153.937 135.952C154.918 135.952 155.649 136.245 156.129 136.832C156.62 137.408 156.865 138.245 156.865 139.344V144H155.345L155.217 143.136H155.153C154.801 143.435 154.422 143.685 154.017 143.888C153.622 144.091 153.19 144.192 152.721 144.192ZM153.313 142.752C153.633 142.752 153.921 142.677 154.177 142.528C154.444 142.368 154.726 142.155 155.025 141.888V140.128C153.958 140.267 153.217 140.475 152.801 140.752C152.385 141.019 152.177 141.349 152.177 141.744C152.177 142.096 152.284 142.352 152.497 142.512C152.71 142.672 152.982 142.752 153.313 142.752ZM161.585 144.192C160.678 144.192 160.033 143.931 159.649 143.408C159.276 142.875 159.089 142.187 159.089 141.344V137.6H157.969V136.224L159.185 136.144L159.409 134H160.945V136.144H162.945V137.6H160.945V141.344C160.945 142.261 161.313 142.72 162.049 142.72C162.188 142.72 162.332 142.704 162.481 142.672C162.63 142.629 162.758 142.587 162.865 142.544L163.185 143.904C162.972 143.979 162.726 144.043 162.449 144.096C162.182 144.16 161.894 144.192 161.585 144.192ZM166.158 144.192C165.476 144.192 164.916 143.979 164.478 143.552C164.052 143.125 163.838 142.571 163.838 141.888C163.838 141.045 164.206 140.395 164.942 139.936C165.678 139.467 166.852 139.147 168.462 138.976C168.452 138.56 168.34 138.203 168.126 137.904C167.924 137.595 167.556 137.44 167.022 137.44C166.638 137.44 166.26 137.515 165.886 137.664C165.524 137.813 165.166 137.995 164.814 138.208L164.142 136.976C164.58 136.699 165.07 136.459 165.614 136.256C166.169 136.053 166.756 135.952 167.374 135.952C168.356 135.952 169.086 136.245 169.566 136.832C170.057 137.408 170.302 138.245 170.302 139.344V144H168.782L168.654 143.136H168.59C168.238 143.435 167.86 143.685 167.454 143.888C167.06 144.091 166.628 144.192 166.158 144.192ZM166.75 142.752C167.07 142.752 167.358 142.677 167.614 142.528C167.881 142.368 168.164 142.155 168.462 141.888V140.128C167.396 140.267 166.654 140.475 166.238 140.752C165.822 141.019 165.614 141.349 165.614 141.744C165.614 142.096 165.721 142.352 165.934 142.512C166.148 142.672 166.42 142.752 166.75 142.752ZM175.708 147.104V136.144H177.228L177.356 136.976H177.42C177.75 136.699 178.118 136.459 178.524 136.256C178.94 136.053 179.361 135.952 179.788 135.952C180.769 135.952 181.526 136.315 182.06 137.04C182.604 137.765 182.876 138.736 182.876 139.952C182.876 140.848 182.716 141.616 182.396 142.256C182.076 142.885 181.66 143.365 181.148 143.696C180.646 144.027 180.102 144.192 179.516 144.192C179.174 144.192 178.833 144.117 178.492 143.968C178.15 143.808 177.82 143.595 177.5 143.328L177.548 144.64V147.104H175.708ZM179.132 142.672C179.654 142.672 180.092 142.443 180.444 141.984C180.796 141.525 180.972 140.853 180.972 139.968C180.972 139.179 180.838 138.565 180.572 138.128C180.305 137.691 179.873 137.472 179.276 137.472C178.721 137.472 178.145 137.765 177.548 138.352V142.016C177.836 142.251 178.113 142.421 178.38 142.528C178.646 142.624 178.897 142.672 179.132 142.672ZM186.531 144.192C185.88 144.192 185.416 143.995 185.139 143.6C184.872 143.205 184.739 142.667 184.739 141.984V132.704H186.579V142.08C186.579 142.304 186.621 142.464 186.707 142.56C186.792 142.645 186.883 142.688 186.979 142.688C187.021 142.688 187.059 142.688 187.091 142.688C187.133 142.677 187.192 142.667 187.267 142.656L187.507 144.032C187.4 144.075 187.261 144.112 187.091 144.144C186.931 144.176 186.744 144.192 186.531 144.192ZM191.419 144.192C190.576 144.192 189.963 143.92 189.579 143.376C189.195 142.832 189.003 142.064 189.003 141.072V136.144H190.843V140.832C190.843 141.483 190.939 141.941 191.131 142.208C191.323 142.475 191.632 142.608 192.059 142.608C192.4 142.608 192.699 142.523 192.955 142.352C193.221 142.181 193.504 141.904 193.803 141.52V136.144H195.643V144H194.139L193.995 142.848H193.947C193.605 143.253 193.232 143.579 192.827 143.824C192.421 144.069 191.952 144.192 191.419 144.192ZM200.709 147.472C200.091 147.472 199.531 147.397 199.029 147.248C198.539 147.099 198.149 146.869 197.861 146.56C197.584 146.261 197.445 145.883 197.445 145.424C197.445 144.773 197.819 144.213 198.565 143.744V143.68C198.363 143.552 198.192 143.381 198.053 143.168C197.925 142.955 197.861 142.688 197.861 142.368C197.861 142.059 197.947 141.781 198.117 141.536C198.299 141.28 198.501 141.072 198.725 140.912V140.848C198.459 140.645 198.219 140.363 198.005 140C197.803 139.637 197.701 139.227 197.701 138.768C197.701 138.16 197.845 137.648 198.133 137.232C198.421 136.816 198.8 136.501 199.269 136.288C199.749 136.064 200.261 135.952 200.805 135.952C201.019 135.952 201.221 135.973 201.413 136.016C201.616 136.048 201.797 136.091 201.957 136.144H204.773V137.504H203.333C203.461 137.653 203.568 137.845 203.653 138.08C203.739 138.304 203.781 138.555 203.781 138.832C203.781 139.408 203.648 139.899 203.381 140.304C203.115 140.699 202.757 140.997 202.309 141.2C201.861 141.403 201.36 141.504 200.805 141.504C200.635 141.504 200.459 141.488 200.277 141.456C200.096 141.424 199.915 141.371 199.733 141.296C199.616 141.403 199.52 141.509 199.445 141.616C199.381 141.723 199.349 141.867 199.349 142.048C199.349 142.272 199.44 142.448 199.621 142.576C199.813 142.704 200.149 142.768 200.629 142.768H202.021C202.971 142.768 203.685 142.923 204.165 143.232C204.656 143.531 204.901 144.021 204.901 144.704C204.901 145.216 204.731 145.68 204.389 146.096C204.048 146.523 203.563 146.859 202.933 147.104C202.304 147.349 201.563 147.472 200.709 147.472ZM200.805 140.352C201.179 140.352 201.499 140.213 201.765 139.936C202.032 139.659 202.165 139.269 202.165 138.768C202.165 138.277 202.032 137.899 201.765 137.632C201.509 137.355 201.189 137.216 200.805 137.216C200.421 137.216 200.096 137.349 199.829 137.616C199.563 137.883 199.429 138.267 199.429 138.768C199.429 139.269 199.563 139.659 199.829 139.936C200.096 140.213 200.421 140.352 200.805 140.352ZM200.997 146.272C201.627 146.272 202.139 146.144 202.533 145.888C202.928 145.632 203.125 145.339 203.125 145.008C203.125 144.699 203.003 144.491 202.757 144.384C202.523 144.277 202.181 144.224 201.733 144.224H200.661C200.235 144.224 199.877 144.187 199.589 144.112C199.184 144.421 198.981 144.768 198.981 145.152C198.981 145.504 199.163 145.776 199.525 145.968C199.888 146.171 200.379 146.272 200.997 146.272ZM206.286 144V136.144H208.126V144H206.286ZM207.214 134.768C206.883 134.768 206.616 134.672 206.414 134.48C206.211 134.288 206.11 134.032 206.11 133.712C206.11 133.403 206.211 133.152 206.414 132.96C206.616 132.768 206.883 132.672 207.214 132.672C207.544 132.672 207.811 132.768 208.014 132.96C208.216 133.152 208.318 133.403 208.318 133.712C208.318 134.032 208.216 134.288 208.014 134.48C207.811 134.672 207.544 134.768 207.214 134.768ZM210.473 144V136.144H211.993L212.121 137.2H212.185C212.537 136.859 212.921 136.565 213.337 136.32C213.753 136.075 214.228 135.952 214.761 135.952C215.604 135.952 216.217 136.224 216.601 136.768C216.985 137.312 217.177 138.08 217.177 139.072V144H215.337V139.312C215.337 138.661 215.241 138.203 215.049 137.936C214.857 137.669 214.543 137.536 214.105 137.536C213.764 137.536 213.46 137.621 213.193 137.792C212.937 137.952 212.644 138.192 212.313 138.512V144H210.473ZM221.618 144.192C221.085 144.192 220.552 144.091 220.018 143.888C219.485 143.675 219.026 143.413 218.642 143.104L219.506 141.92C219.858 142.187 220.21 142.4 220.562 142.56C220.914 142.72 221.288 142.8 221.682 142.8C222.109 142.8 222.424 142.709 222.626 142.528C222.829 142.347 222.93 142.123 222.93 141.856C222.93 141.632 222.845 141.451 222.674 141.312C222.514 141.163 222.306 141.035 222.05 140.928C221.794 140.811 221.528 140.699 221.25 140.592C220.909 140.464 220.568 140.309 220.226 140.128C219.896 139.936 219.624 139.696 219.41 139.408C219.197 139.109 219.09 138.741 219.09 138.304C219.09 137.611 219.346 137.045 219.858 136.608C220.37 136.171 221.064 135.952 221.938 135.952C222.493 135.952 222.989 136.048 223.426 136.24C223.864 136.432 224.242 136.651 224.562 136.896L223.714 138.016C223.437 137.813 223.154 137.653 222.866 137.536C222.589 137.408 222.296 137.344 221.986 137.344C221.592 137.344 221.298 137.429 221.106 137.6C220.914 137.76 220.818 137.963 220.818 138.208C220.818 138.517 220.978 138.752 221.298 138.912C221.618 139.072 221.992 139.227 222.418 139.376C222.781 139.504 223.133 139.664 223.474 139.856C223.816 140.037 224.098 140.277 224.322 140.576C224.557 140.875 224.674 141.269 224.674 141.76C224.674 142.432 224.413 143.008 223.89 143.488C223.368 143.957 222.61 144.192 221.618 144.192Z" fill="white"/>
<rect x="331.194" y="107" width="196.612" height="116" rx="23" fill="#A6B6D9"/>
<rect x="331.194" y="107" width="196.612" height="116" rx="23" fill="url(#paint6_linear_2592_19358)"/>
<rect x="331.694" y="107.5" width="195.612" height="115" rx="22.5" stroke="white" stroke-opacity="0.3"/>
<path d="M351.831 138.432L351.463 139.712H354.135L353.767 138.432C353.597 137.877 353.431 137.307 353.271 136.72C353.122 136.133 352.973 135.552 352.823 134.976H352.759C352.621 135.563 352.471 136.149 352.311 136.736C352.162 137.312 352.002 137.877 351.831 138.432ZM348.327 144L351.735 133.536H353.911L357.319 144H355.367L354.551 141.168H351.031L350.215 144H348.327ZM358.609 144V133.536H361.905C362.684 133.536 363.377 133.637 363.985 133.84C364.593 134.043 365.073 134.379 365.425 134.848C365.777 135.317 365.953 135.957 365.953 136.768C365.953 137.536 365.777 138.171 365.425 138.672C365.073 139.173 364.599 139.547 364.001 139.792C363.404 140.037 362.727 140.16 361.969 140.16H360.465V144H358.609ZM360.465 138.672H361.825C363.361 138.672 364.129 138.037 364.129 136.768C364.129 136.107 363.927 135.653 363.521 135.408C363.127 135.152 362.54 135.024 361.761 135.024H360.465V138.672ZM367.922 144V133.536H369.778V144H367.922ZM374.469 144.192C373.936 144.192 373.403 144.091 372.869 143.888C372.336 143.675 371.877 143.413 371.493 143.104L372.357 141.92C372.709 142.187 373.061 142.4 373.413 142.56C373.765 142.72 374.139 142.8 374.533 142.8C374.96 142.8 375.275 142.709 375.477 142.528C375.68 142.347 375.781 142.123 375.781 141.856C375.781 141.632 375.696 141.451 375.525 141.312C375.365 141.163 375.157 141.035 374.901 140.928C374.645 140.811 374.379 140.699 374.101 140.592C373.76 140.464 373.419 140.309 373.077 140.128C372.747 139.936 372.475 139.696 372.261 139.408C372.048 139.109 371.941 138.741 371.941 138.304C371.941 137.611 372.197 137.045 372.709 136.608C373.221 136.171 373.915 135.952 374.789 135.952C375.344 135.952 375.84 136.048 376.277 136.24C376.715 136.432 377.093 136.651 377.413 136.896L376.565 138.016C376.288 137.813 376.005 137.653 375.717 137.536C375.44 137.408 375.147 137.344 374.837 137.344C374.443 137.344 374.149 137.429 373.957 137.6C373.765 137.76 373.669 137.963 373.669 138.208C373.669 138.517 373.829 138.752 374.149 138.912C374.469 139.072 374.843 139.227 375.269 139.376C375.632 139.504 375.984 139.664 376.325 139.856C376.667 140.037 376.949 140.277 377.173 140.576C377.408 140.875 377.525 141.269 377.525 141.76C377.525 142.432 377.264 143.008 376.741 143.488C376.219 143.957 375.461 144.192 374.469 144.192Z" fill="white"/>
<g filter="url(#filter1_f_2592_19358)">
<path d="M126.5 182H733.5V200C733.5 212.703 723.203 223 710.5 223H152.5C138.141 223 126.5 211.359 126.5 197V182Z" fill="url(#paint7_linear_2592_19358)" fill-opacity="0.54"/>
</g>
<rect x="434.5" y="234" width="300" height="116" rx="23" fill="#210E30"/>
<rect x="434.5" y="234" width="300" height="116" rx="23" fill="url(#paint8_linear_2592_19358)"/>
<rect x="434.5" y="234" width="300" height="116" rx="23" fill="url(#paint9_linear_2592_19358)" fill-opacity="0.24"/>
<rect x="435" y="234.5" width="299" height="115" rx="22.5" stroke="white" stroke-opacity="0.3"/>
<g filter="url(#filter2_f_2592_19358)">
<rect x="434.5" y="234" width="300" height="116" rx="23" fill="url(#paint10_linear_2592_19358)"/>
<rect x="435" y="234.5" width="299" height="115" rx="22.5" stroke="white" stroke-opacity="0.3"/>
</g>
<path d="M465.552 325V316.104H462.528V314.536H470.432V316.104H467.408V325H465.552ZM474.09 325.192C473.439 325.192 472.831 325.032 472.266 324.712C471.701 324.381 471.242 323.912 470.89 323.304C470.538 322.685 470.362 321.944 470.362 321.08C470.362 320.205 470.538 319.464 470.89 318.856C471.242 318.237 471.701 317.768 472.266 317.448C472.831 317.117 473.439 316.952 474.09 316.952C474.751 316.952 475.365 317.117 475.93 317.448C476.495 317.768 476.954 318.237 477.306 318.856C477.658 319.464 477.834 320.205 477.834 321.08C477.834 321.944 477.658 322.685 477.306 323.304C476.954 323.912 476.495 324.381 475.93 324.712C475.365 325.032 474.751 325.192 474.09 325.192ZM474.09 323.688C474.666 323.688 475.119 323.448 475.45 322.968C475.781 322.488 475.946 321.859 475.946 321.08C475.946 320.291 475.781 319.656 475.45 319.176C475.119 318.696 474.666 318.456 474.09 318.456C473.514 318.456 473.061 318.696 472.73 319.176C472.41 319.656 472.25 320.291 472.25 321.08C472.25 321.859 472.41 322.488 472.73 322.968C473.061 323.448 473.514 323.688 474.09 323.688ZM482.871 325.192C482.221 325.192 481.613 325.032 481.047 324.712C480.482 324.381 480.023 323.912 479.671 323.304C479.319 322.685 479.143 321.944 479.143 321.08C479.143 320.205 479.319 319.464 479.671 318.856C480.023 318.237 480.482 317.768 481.047 317.448C481.613 317.117 482.221 316.952 482.871 316.952C483.533 316.952 484.146 317.117 484.711 317.448C485.277 317.768 485.735 318.237 486.087 318.856C486.439 319.464 486.615 320.205 486.615 321.08C486.615 321.944 486.439 322.685 486.087 323.304C485.735 323.912 485.277 324.381 484.711 324.712C484.146 325.032 483.533 325.192 482.871 325.192ZM482.871 323.688C483.447 323.688 483.901 323.448 484.231 322.968C484.562 322.488 484.727 321.859 484.727 321.08C484.727 320.291 484.562 319.656 484.231 319.176C483.901 318.696 483.447 318.456 482.871 318.456C482.295 318.456 481.842 318.696 481.511 319.176C481.191 319.656 481.031 320.291 481.031 321.08C481.031 321.859 481.191 322.488 481.511 322.968C481.842 323.448 482.295 323.688 482.871 323.688ZM490.229 325.192C489.578 325.192 489.114 324.995 488.837 324.6C488.57 324.205 488.437 323.667 488.437 322.984V313.704H490.277V323.08C490.277 323.304 490.319 323.464 490.405 323.56C490.49 323.645 490.581 323.688 490.677 323.688C490.719 323.688 490.757 323.688 490.789 323.688C490.831 323.677 490.89 323.667 490.965 323.656L491.205 325.032C491.098 325.075 490.959 325.112 490.789 325.144C490.629 325.176 490.442 325.192 490.229 325.192ZM494.972 325.192C494.439 325.192 493.906 325.091 493.372 324.888C492.839 324.675 492.38 324.413 491.996 324.104L492.86 322.92C493.212 323.187 493.564 323.4 493.916 323.56C494.268 323.72 494.642 323.8 495.036 323.8C495.463 323.8 495.778 323.709 495.98 323.528C496.183 323.347 496.284 323.123 496.284 322.856C496.284 322.632 496.199 322.451 496.028 322.312C495.868 322.163 495.66 322.035 495.404 321.928C495.148 321.811 494.882 321.699 494.604 321.592C494.263 321.464 493.922 321.309 493.58 321.128C493.25 320.936 492.978 320.696 492.764 320.408C492.551 320.109 492.444 319.741 492.444 319.304C492.444 318.611 492.7 318.045 493.212 317.608C493.724 317.171 494.418 316.952 495.292 316.952C495.847 316.952 496.343 317.048 496.78 317.24C497.218 317.432 497.596 317.651 497.916 317.896L497.068 319.016C496.791 318.813 496.508 318.653 496.22 318.536C495.943 318.408 495.65 318.344 495.34 318.344C494.946 318.344 494.652 318.429 494.46 318.6C494.268 318.76 494.172 318.963 494.172 319.208C494.172 319.517 494.332 319.752 494.652 319.912C494.972 320.072 495.346 320.227 495.772 320.376C496.135 320.504 496.487 320.664 496.828 320.856C497.17 321.037 497.452 321.277 497.676 321.576C497.911 321.875 498.028 322.269 498.028 322.76C498.028 323.432 497.767 324.008 497.244 324.488C496.722 324.957 495.964 325.192 494.972 325.192ZM505.018 316.936C505.018 317.171 505.055 317.416 505.13 317.672C505.205 317.928 505.306 318.195 505.434 318.472C505.871 318.195 506.239 317.912 506.538 317.624C506.837 317.336 506.986 316.989 506.986 316.584C506.986 316.307 506.922 316.072 506.794 315.88C506.666 315.688 506.447 315.592 506.138 315.592C505.807 315.592 505.535 315.715 505.322 315.96C505.119 316.205 505.018 316.531 505.018 316.936ZM505.498 325.192C504.805 325.192 504.207 325.064 503.706 324.808C503.205 324.541 502.821 324.189 502.554 323.752C502.287 323.304 502.154 322.803 502.154 322.248C502.154 321.768 502.245 321.347 502.426 320.984C502.618 320.621 502.863 320.301 503.162 320.024C503.471 319.747 503.802 319.491 504.154 319.256C503.941 318.851 503.775 318.456 503.658 318.072C503.541 317.688 503.482 317.315 503.482 316.952C503.482 316.472 503.589 316.035 503.802 315.64C504.026 315.245 504.335 314.931 504.73 314.696C505.125 314.461 505.589 314.344 506.122 314.344C506.837 314.344 507.397 314.552 507.802 314.968C508.218 315.373 508.426 315.907 508.426 316.568C508.426 317.027 508.314 317.437 508.09 317.8C507.877 318.152 507.594 318.477 507.242 318.776C506.901 319.064 506.538 319.341 506.154 319.608C506.474 320.035 506.837 320.456 507.242 320.872C507.658 321.288 508.09 321.667 508.538 322.008C508.826 321.624 509.082 321.203 509.306 320.744C509.541 320.275 509.727 319.768 509.866 319.224H511.562C511.37 319.875 511.125 320.509 510.826 321.128C510.527 321.736 510.175 322.312 509.77 322.856C510.111 323.059 510.442 323.235 510.762 323.384C511.082 323.533 511.381 323.635 511.658 323.688L511.194 325.192C510.799 325.096 510.383 324.957 509.946 324.776C509.519 324.584 509.087 324.349 508.65 324.072C508.234 324.413 507.765 324.685 507.242 324.888C506.719 325.091 506.138 325.192 505.498 325.192ZM503.914 322.136C503.914 322.627 504.085 323.021 504.426 323.32C504.767 323.619 505.199 323.768 505.722 323.768C506.01 323.768 506.293 323.715 506.57 323.608C506.858 323.491 507.135 323.336 507.402 323.144C506.943 322.749 506.501 322.328 506.074 321.88C505.647 321.432 505.263 320.973 504.922 320.504C504.623 320.739 504.378 320.989 504.186 321.256C504.005 321.523 503.914 321.816 503.914 322.136ZM517.592 325L515.512 317.144H517.368L518.312 321.224C518.397 321.597 518.467 321.971 518.52 322.344C518.584 322.717 518.653 323.096 518.728 323.48H518.792C518.867 323.096 518.941 322.717 519.016 322.344C519.101 321.96 519.192 321.587 519.288 321.224L520.312 317.144H521.992L523.032 321.224C523.128 321.597 523.219 321.971 523.304 322.344C523.389 322.717 523.475 323.096 523.56 323.48H523.624C523.699 323.096 523.768 322.717 523.832 322.344C523.896 321.971 523.965 321.597 524.04 321.224L524.984 317.144H526.712L524.712 325H522.52L521.608 321.336C521.523 320.963 521.443 320.595 521.368 320.232C521.293 319.859 521.213 319.464 521.128 319.048H521.064C520.989 319.464 520.915 319.859 520.84 320.232C520.765 320.605 520.685 320.979 520.6 321.352L519.704 325H517.592ZM531.387 325.192C530.736 325.192 530.128 325.032 529.563 324.712C528.998 324.381 528.539 323.912 528.187 323.304C527.835 322.685 527.659 321.944 527.659 321.08C527.659 320.205 527.835 319.464 528.187 318.856C528.539 318.237 528.998 317.768 529.563 317.448C530.128 317.117 530.736 316.952 531.387 316.952C532.048 316.952 532.662 317.117 533.227 317.448C533.792 317.768 534.251 318.237 534.603 318.856C534.955 319.464 535.131 320.205 535.131 321.08C535.131 321.944 534.955 322.685 534.603 323.304C534.251 323.912 533.792 324.381 533.227 324.712C532.662 325.032 532.048 325.192 531.387 325.192ZM531.387 323.688C531.963 323.688 532.416 323.448 532.747 322.968C533.078 322.488 533.243 321.859 533.243 321.08C533.243 320.291 533.078 319.656 532.747 319.176C532.416 318.696 531.963 318.456 531.387 318.456C530.811 318.456 530.358 318.696 530.027 319.176C529.707 319.656 529.547 320.291 529.547 321.08C529.547 321.859 529.707 322.488 530.027 322.968C530.358 323.448 530.811 323.688 531.387 323.688ZM536.952 325V317.144H538.472L538.6 318.536H538.664C538.942 318.024 539.278 317.635 539.672 317.368C540.067 317.091 540.472 316.952 540.888 316.952C541.262 316.952 541.56 317.005 541.784 317.112L541.464 318.712C541.326 318.669 541.198 318.637 541.08 318.616C540.963 318.595 540.819 318.584 540.648 318.584C540.339 318.584 540.014 318.707 539.672 318.952C539.331 319.187 539.038 319.603 538.792 320.2V325H536.952ZM542.921 325V313.704H544.729V320.76H544.777L547.689 317.144H549.705L547.017 320.344L549.977 325H547.977L545.961 321.592L544.729 323V325H542.921ZM551.6 325V318.6H550.544V317.224L551.6 317.144V316.328C551.6 315.507 551.803 314.835 552.208 314.312C552.614 313.779 553.28 313.512 554.208 313.512C554.486 313.512 554.752 313.539 555.008 313.592C555.264 313.645 555.478 313.709 555.648 313.784L555.296 315.16C555.008 315.032 554.72 314.968 554.432 314.968C553.771 314.968 553.44 315.411 553.44 316.296V317.144H554.976V318.6H553.44V325H551.6ZM558.15 325.192C557.5 325.192 557.036 324.995 556.758 324.6C556.492 324.205 556.358 323.667 556.358 322.984V313.704H558.198V323.08C558.198 323.304 558.241 323.464 558.326 323.56C558.412 323.645 558.502 323.688 558.598 323.688C558.641 323.688 558.678 323.688 558.71 323.688C558.753 323.677 558.812 323.667 558.886 323.656L559.126 325.032C559.02 325.075 558.881 325.112 558.71 325.144C558.55 325.176 558.364 325.192 558.15 325.192ZM563.918 325.192C563.268 325.192 562.66 325.032 562.094 324.712C561.529 324.381 561.07 323.912 560.718 323.304C560.366 322.685 560.19 321.944 560.19 321.08C560.19 320.205 560.366 319.464 560.718 318.856C561.07 318.237 561.529 317.768 562.094 317.448C562.66 317.117 563.268 316.952 563.918 316.952C564.58 316.952 565.193 317.117 565.758 317.448C566.324 317.768 566.782 318.237 567.134 318.856C567.486 319.464 567.662 320.205 567.662 321.08C567.662 321.944 567.486 322.685 567.134 323.304C566.782 323.912 566.324 324.381 565.758 324.712C565.193 325.032 564.58 325.192 563.918 325.192ZM563.918 323.688C564.494 323.688 564.948 323.448 565.278 322.968C565.609 322.488 565.774 321.859 565.774 321.08C565.774 320.291 565.609 319.656 565.278 319.176C564.948 318.696 564.494 318.456 563.918 318.456C563.342 318.456 562.889 318.696 562.558 319.176C562.238 319.656 562.078 320.291 562.078 321.08C562.078 321.859 562.238 322.488 562.558 322.968C562.889 323.448 563.342 323.688 563.918 323.688ZM570.686 325L568.606 317.144H570.462L571.406 321.224C571.491 321.597 571.56 321.971 571.614 322.344C571.678 322.717 571.747 323.096 571.822 323.48H571.886C571.96 323.096 572.035 322.717 572.11 322.344C572.195 321.96 572.286 321.587 572.382 321.224L573.406 317.144H575.086L576.126 321.224C576.222 321.597 576.312 321.971 576.398 322.344C576.483 322.717 576.568 323.096 576.654 323.48H576.718C576.792 323.096 576.862 322.717 576.926 322.344C576.99 321.971 577.059 321.597 577.134 321.224L578.078 317.144H579.806L577.806 325H575.614L574.702 321.336C574.616 320.963 574.536 320.595 574.462 320.232C574.387 319.859 574.307 319.464 574.222 319.048H574.158C574.083 319.464 574.008 319.859 573.934 320.232C573.859 320.605 573.779 320.979 573.694 321.352L572.798 325H570.686ZM583.55 325.192C583.017 325.192 582.484 325.091 581.95 324.888C581.417 324.675 580.958 324.413 580.574 324.104L581.438 322.92C581.79 323.187 582.142 323.4 582.494 323.56C582.846 323.72 583.22 323.8 583.614 323.8C584.041 323.8 584.356 323.709 584.558 323.528C584.761 323.347 584.862 323.123 584.862 322.856C584.862 322.632 584.777 322.451 584.606 322.312C584.446 322.163 584.238 322.035 583.982 321.928C583.726 321.811 583.46 321.699 583.182 321.592C582.841 321.464 582.5 321.309 582.158 321.128C581.828 320.936 581.556 320.696 581.342 320.408C581.129 320.109 581.022 319.741 581.022 319.304C581.022 318.611 581.278 318.045 581.79 317.608C582.302 317.171 582.996 316.952 583.87 316.952C584.425 316.952 584.921 317.048 585.358 317.24C585.796 317.432 586.174 317.651 586.494 317.896L585.646 319.016C585.369 318.813 585.086 318.653 584.798 318.536C584.521 318.408 584.228 318.344 583.918 318.344C583.524 318.344 583.23 318.429 583.038 318.6C582.846 318.76 582.75 318.963 582.75 319.208C582.75 319.517 582.91 319.752 583.23 319.912C583.55 320.072 583.924 320.227 584.35 320.376C584.713 320.504 585.065 320.664 585.406 320.856C585.748 321.037 586.03 321.277 586.254 321.576C586.489 321.875 586.606 322.269 586.606 322.76C586.606 323.432 586.345 324.008 585.822 324.488C585.3 324.957 584.542 325.192 583.55 325.192Z" fill="white"/>
<rect x="537.889" y="107" width="196.612" height="116" rx="23" fill="#A6B6D9"/>
<rect x="537.889" y="107" width="196.612" height="116" rx="23" fill="url(#paint11_linear_2592_19358)"/>
<rect x="538.389" y="107.5" width="195.612" height="115" rx="22.5" stroke="white" stroke-opacity="0.3"/>
<path d="M560.415 144V133.536H562.271V142.432H566.623V144H560.415ZM570.19 144.192C569.507 144.192 568.947 143.979 568.51 143.552C568.083 143.125 567.87 142.571 567.87 141.888C567.87 141.045 568.238 140.395 568.974 139.936C569.71 139.467 570.883 139.147 572.494 138.976C572.483 138.56 572.371 138.203 572.158 137.904C571.955 137.595 571.587 137.44 571.054 137.44C570.67 137.44 570.291 137.515 569.918 137.664C569.555 137.813 569.198 137.995 568.846 138.208L568.174 136.976C568.611 136.699 569.102 136.459 569.646 136.256C570.201 136.053 570.787 135.952 571.406 135.952C572.387 135.952 573.118 136.245 573.598 136.832C574.089 137.408 574.334 138.245 574.334 139.344V144H572.814L572.686 143.136H572.622C572.27 143.435 571.891 143.685 571.486 143.888C571.091 144.091 570.659 144.192 570.19 144.192ZM570.782 142.752C571.102 142.752 571.39 142.677 571.646 142.528C571.913 142.368 572.195 142.155 572.494 141.888V140.128C571.427 140.267 570.686 140.475 570.27 140.752C569.854 141.019 569.646 141.349 569.646 141.744C569.646 142.096 569.753 142.352 569.966 142.512C570.179 142.672 570.451 142.752 570.782 142.752ZM576.536 144V136.144H578.056L578.184 137.2H578.248C578.6 136.859 578.984 136.565 579.4 136.32C579.816 136.075 580.291 135.952 580.824 135.952C581.667 135.952 582.28 136.224 582.664 136.768C583.048 137.312 583.24 138.08 583.24 139.072V144H581.4V139.312C581.4 138.661 581.304 138.203 581.112 137.936C580.92 137.669 580.605 137.536 580.168 137.536C579.827 137.536 579.523 137.621 579.256 137.792C579 137.952 578.707 138.192 578.376 138.512V144H576.536ZM588.225 147.472C587.607 147.472 587.047 147.397 586.545 147.248C586.055 147.099 585.665 146.869 585.377 146.56C585.1 146.261 584.961 145.883 584.961 145.424C584.961 144.773 585.335 144.213 586.081 143.744V143.68C585.879 143.552 585.708 143.381 585.569 143.168C585.441 142.955 585.377 142.688 585.377 142.368C585.377 142.059 585.463 141.781 585.633 141.536C585.815 141.28 586.017 141.072 586.241 140.912V140.848C585.975 140.645 585.735 140.363 585.521 140C585.319 139.637 585.217 139.227 585.217 138.768C585.217 138.16 585.361 137.648 585.649 137.232C585.937 136.816 586.316 136.501 586.785 136.288C587.265 136.064 587.777 135.952 588.321 135.952C588.535 135.952 588.737 135.973 588.929 136.016C589.132 136.048 589.313 136.091 589.473 136.144H592.289V137.504H590.849C590.977 137.653 591.084 137.845 591.169 138.08C591.255 138.304 591.297 138.555 591.297 138.832C591.297 139.408 591.164 139.899 590.897 140.304C590.631 140.699 590.273 140.997 589.825 141.2C589.377 141.403 588.876 141.504 588.321 141.504C588.151 141.504 587.975 141.488 587.793 141.456C587.612 141.424 587.431 141.371 587.249 141.296C587.132 141.403 587.036 141.509 586.961 141.616C586.897 141.723 586.865 141.867 586.865 142.048C586.865 142.272 586.956 142.448 587.137 142.576C587.329 142.704 587.665 142.768 588.145 142.768H589.537C590.487 142.768 591.201 142.923 591.681 143.232C592.172 143.531 592.417 144.021 592.417 144.704C592.417 145.216 592.247 145.68 591.905 146.096C591.564 146.523 591.079 146.859 590.449 147.104C589.82 147.349 589.079 147.472 588.225 147.472ZM588.321 140.352C588.695 140.352 589.015 140.213 589.281 139.936C589.548 139.659 589.681 139.269 589.681 138.768C589.681 138.277 589.548 137.899 589.281 137.632C589.025 137.355 588.705 137.216 588.321 137.216C587.937 137.216 587.612 137.349 587.345 137.616C587.079 137.883 586.945 138.267 586.945 138.768C586.945 139.269 587.079 139.659 587.345 139.936C587.612 140.213 587.937 140.352 588.321 140.352ZM588.513 146.272C589.143 146.272 589.655 146.144 590.049 145.888C590.444 145.632 590.641 145.339 590.641 145.008C590.641 144.699 590.519 144.491 590.273 144.384C590.039 144.277 589.697 144.224 589.249 144.224H588.177C587.751 144.224 587.393 144.187 587.105 144.112C586.7 144.421 586.497 144.768 586.497 145.152C586.497 145.504 586.679 145.776 587.041 145.968C587.404 146.171 587.895 146.272 588.513 146.272ZM596.138 144.192C595.295 144.192 594.682 143.92 594.298 143.376C593.914 142.832 593.722 142.064 593.722 141.072V136.144H595.562V140.832C595.562 141.483 595.658 141.941 595.85 142.208C596.042 142.475 596.351 142.608 596.778 142.608C597.119 142.608 597.418 142.523 597.674 142.352C597.94 142.181 598.223 141.904 598.522 141.52V136.144H600.362V144H598.858L598.714 142.848H598.666C598.324 143.253 597.951 143.579 597.546 143.824C597.14 144.069 596.671 144.192 596.138 144.192ZM604.596 144.192C603.914 144.192 603.354 143.979 602.916 143.552C602.49 143.125 602.276 142.571 602.276 141.888C602.276 141.045 602.644 140.395 603.38 139.936C604.116 139.467 605.29 139.147 606.9 138.976C606.89 138.56 606.778 138.203 606.564 137.904C606.362 137.595 605.994 137.44 605.46 137.44C605.076 137.44 604.698 137.515 604.324 137.664C603.962 137.813 603.604 137.995 603.252 138.208L602.58 136.976C603.018 136.699 603.508 136.459 604.052 136.256C604.607 136.053 605.194 135.952 605.812 135.952C606.794 135.952 607.524 136.245 608.004 136.832C608.495 137.408 608.74 138.245 608.74 139.344V144H607.22L607.092 143.136H607.028C606.676 143.435 606.298 143.685 605.892 143.888C605.498 144.091 605.066 144.192 604.596 144.192ZM605.188 142.752C605.508 142.752 605.796 142.677 606.052 142.528C606.319 142.368 606.602 142.155 606.9 141.888V140.128C605.834 140.267 605.092 140.475 604.676 140.752C604.26 141.019 604.052 141.349 604.052 141.744C604.052 142.096 604.159 142.352 604.372 142.512C604.586 142.672 604.858 142.752 605.188 142.752ZM613.678 147.472C613.06 147.472 612.5 147.397 611.998 147.248C611.508 147.099 611.118 146.869 610.83 146.56C610.553 146.261 610.414 145.883 610.414 145.424C610.414 144.773 610.788 144.213 611.534 143.744V143.68C611.332 143.552 611.161 143.381 611.022 143.168C610.894 142.955 610.83 142.688 610.83 142.368C610.83 142.059 610.916 141.781 611.086 141.536C611.268 141.28 611.47 141.072 611.694 140.912V140.848C611.428 140.645 611.188 140.363 610.974 140C610.772 139.637 610.67 139.227 610.67 138.768C610.67 138.16 610.814 137.648 611.102 137.232C611.39 136.816 611.769 136.501 612.238 136.288C612.718 136.064 613.23 135.952 613.774 135.952C613.988 135.952 614.19 135.973 614.382 136.016C614.585 136.048 614.766 136.091 614.926 136.144H617.742V137.504H616.302C616.43 137.653 616.537 137.845 616.622 138.08C616.708 138.304 616.75 138.555 616.75 138.832C616.75 139.408 616.617 139.899 616.35 140.304C616.084 140.699 615.726 140.997 615.278 141.2C614.83 141.403 614.329 141.504 613.774 141.504C613.604 141.504 613.428 141.488 613.246 141.456C613.065 141.424 612.884 141.371 612.702 141.296C612.585 141.403 612.489 141.509 612.414 141.616C612.35 141.723 612.318 141.867 612.318 142.048C612.318 142.272 612.409 142.448 612.59 142.576C612.782 142.704 613.118 142.768 613.598 142.768H614.99C615.94 142.768 616.654 142.923 617.134 143.232C617.625 143.531 617.87 144.021 617.87 144.704C617.87 145.216 617.7 145.68 617.358 146.096C617.017 146.523 616.532 146.859 615.902 147.104C615.273 147.349 614.532 147.472 613.678 147.472ZM613.774 140.352C614.148 140.352 614.468 140.213 614.734 139.936C615.001 139.659 615.134 139.269 615.134 138.768C615.134 138.277 615.001 137.899 614.734 137.632C614.478 137.355 614.158 137.216 613.774 137.216C613.39 137.216 613.065 137.349 612.798 137.616C612.532 137.883 612.398 138.267 612.398 138.768C612.398 139.269 612.532 139.659 612.798 139.936C613.065 140.213 613.39 140.352 613.774 140.352ZM613.966 146.272C614.596 146.272 615.108 146.144 615.502 145.888C615.897 145.632 616.094 145.339 616.094 145.008C616.094 144.699 615.972 144.491 615.726 144.384C615.492 144.277 615.15 144.224 614.702 144.224H613.63C613.204 144.224 612.846 144.187 612.558 144.112C612.153 144.421 611.95 144.768 611.95 145.152C611.95 145.504 612.132 145.776 612.494 145.968C612.857 146.171 613.348 146.272 613.966 146.272ZM622.365 144.192C621.64 144.192 620.984 144.032 620.397 143.712C619.81 143.381 619.346 142.912 619.005 142.304C618.664 141.685 618.493 140.944 618.493 140.08C618.493 139.227 618.664 138.491 619.005 137.872C619.357 137.253 619.81 136.779 620.365 136.448C620.92 136.117 621.501 135.952 622.109 135.952C622.824 135.952 623.421 136.112 623.901 136.432C624.381 136.741 624.744 137.179 624.989 137.744C625.234 138.299 625.357 138.944 625.357 139.68C625.357 140.064 625.33 140.363 625.277 140.576H620.285C620.37 141.269 620.621 141.808 621.037 142.192C621.453 142.576 621.976 142.768 622.605 142.768C622.946 142.768 623.261 142.72 623.549 142.624C623.848 142.517 624.141 142.373 624.429 142.192L625.053 143.344C624.68 143.589 624.264 143.792 623.805 143.952C623.346 144.112 622.866 144.192 622.365 144.192ZM620.269 139.328H623.757C623.757 138.72 623.624 138.245 623.357 137.904C623.09 137.552 622.69 137.376 622.157 137.376C621.698 137.376 621.288 137.547 620.925 137.888C620.573 138.219 620.354 138.699 620.269 139.328ZM630.317 144V136.144H631.837L631.965 137.216H632.029C632.36 136.864 632.717 136.565 633.101 136.32C633.496 136.075 633.939 135.952 634.429 135.952C635.005 135.952 635.464 136.08 635.805 136.336C636.157 136.581 636.424 136.923 636.605 137.36C636.979 136.955 637.368 136.619 637.773 136.352C638.189 136.085 638.643 135.952 639.133 135.952C639.965 135.952 640.579 136.224 640.973 136.768C641.368 137.312 641.565 138.08 641.565 139.072V144H639.709V139.312C639.709 138.661 639.608 138.203 639.405 137.936C639.213 137.669 638.915 137.536 638.509 137.536C638.019 137.536 637.469 137.861 636.861 138.512V144H635.021V139.312C635.021 138.661 634.92 138.203 634.717 137.936C634.525 137.669 634.221 137.536 633.805 137.536C633.315 137.536 632.765 137.861 632.157 138.512V144H630.317ZM647.018 144.192C646.367 144.192 645.759 144.032 645.194 143.712C644.628 143.381 644.17 142.912 643.818 142.304C643.466 141.685 643.29 140.944 643.29 140.08C643.29 139.205 643.466 138.464 643.818 137.856C644.17 137.237 644.628 136.768 645.194 136.448C645.759 136.117 646.367 135.952 647.018 135.952C647.679 135.952 648.292 136.117 648.858 136.448C649.423 136.768 649.882 137.237 650.234 137.856C650.586 138.464 650.762 139.205 650.762 140.08C650.762 140.944 650.586 141.685 650.234 142.304C649.882 142.912 649.423 143.381 648.858 143.712C648.292 144.032 647.679 144.192 647.018 144.192ZM647.018 142.688C647.594 142.688 648.047 142.448 648.378 141.968C648.708 141.488 648.874 140.859 648.874 140.08C648.874 139.291 648.708 138.656 648.378 138.176C648.047 137.696 647.594 137.456 647.018 137.456C646.442 137.456 645.988 137.696 645.658 138.176C645.338 138.656 645.178 139.291 645.178 140.08C645.178 140.859 645.338 141.488 645.658 141.968C645.988 142.448 646.442 142.688 647.018 142.688ZM655.335 144.192C654.354 144.192 653.57 143.829 652.983 143.104C652.396 142.379 652.103 141.371 652.103 140.08C652.103 139.227 652.258 138.491 652.567 137.872C652.887 137.253 653.303 136.779 653.815 136.448C654.327 136.117 654.866 135.952 655.431 135.952C655.879 135.952 656.258 136.032 656.567 136.192C656.887 136.341 657.196 136.549 657.495 136.816L657.431 135.552V132.704H659.271V144H657.751L657.623 143.152H657.559C657.271 143.44 656.935 143.685 656.551 143.888C656.167 144.091 655.762 144.192 655.335 144.192ZM655.783 142.672C656.37 142.672 656.919 142.379 657.431 141.792V138.128C657.164 137.883 656.898 137.712 656.631 137.616C656.364 137.52 656.098 137.472 655.831 137.472C655.33 137.472 654.898 137.701 654.535 138.16C654.183 138.608 654.007 139.243 654.007 140.064C654.007 140.907 654.162 141.552 654.471 142C654.78 142.448 655.218 142.672 655.783 142.672ZM664.974 144.192C664.249 144.192 663.593 144.032 663.006 143.712C662.42 143.381 661.956 142.912 661.614 142.304C661.273 141.685 661.102 140.944 661.102 140.08C661.102 139.227 661.273 138.491 661.614 137.872C661.966 137.253 662.42 136.779 662.974 136.448C663.529 136.117 664.11 135.952 664.718 135.952C665.433 135.952 666.03 136.112 666.51 136.432C666.99 136.741 667.353 137.179 667.598 137.744C667.844 138.299 667.966 138.944 667.966 139.68C667.966 140.064 667.94 140.363 667.886 140.576H662.894C662.98 141.269 663.23 141.808 663.646 142.192C664.062 142.576 664.585 142.768 665.214 142.768C665.556 142.768 665.87 142.72 666.158 142.624C666.457 142.517 666.75 142.373 667.038 142.192L667.662 143.344C667.289 143.589 666.873 143.792 666.414 143.952C665.956 144.112 665.476 144.192 664.974 144.192ZM662.878 139.328H666.366C666.366 138.72 666.233 138.245 665.966 137.904C665.7 137.552 665.3 137.376 664.766 137.376C664.308 137.376 663.897 137.547 663.534 137.888C663.182 138.219 662.964 138.699 662.878 139.328ZM671.516 144.192C670.865 144.192 670.401 143.995 670.124 143.6C669.857 143.205 669.724 142.667 669.724 141.984V132.704H671.564V142.08C671.564 142.304 671.606 142.464 671.692 142.56C671.777 142.645 671.868 142.688 671.964 142.688C672.006 142.688 672.044 142.688 672.076 142.688C672.118 142.677 672.177 142.667 672.252 142.656L672.492 144.032C672.385 144.075 672.246 144.112 672.076 144.144C671.916 144.176 671.729 144.192 671.516 144.192Z" fill="white"/>
<g filter="url(#filter3_d_2592_19358)">
<rect x="205.5" y="180" width="214" height="86" rx="11" fill="url(#paint12_radial_2592_19358)" fill-opacity="0.9" shape-rendering="crispEdges"/>
<rect x="206" y="180.5" width="213" height="85" rx="10.5" stroke="url(#paint13_linear_2592_19358)" stroke-opacity="0.4" shape-rendering="crispEdges"/>
</g>
<path d="M295.052 231.082C293.474 231.082 292.041 230.707 290.753 229.958C289.464 229.209 288.435 228.114 287.665 226.673C286.915 225.213 286.54 223.446 286.54 221.371C286.54 219.316 286.925 217.558 287.694 216.098C288.483 214.619 289.531 213.495 290.839 212.727C292.147 211.939 293.59 211.545 295.167 211.545C296.36 211.545 297.418 211.785 298.341 212.266C299.264 212.746 300.024 213.303 300.621 213.937L298.832 216.098C298.351 215.599 297.812 215.205 297.216 214.917C296.639 214.609 295.985 214.456 295.254 214.456C294.234 214.456 293.321 214.734 292.513 215.291C291.724 215.829 291.099 216.607 290.637 217.625C290.195 218.643 289.974 219.863 289.974 221.285C289.974 223.436 290.445 225.127 291.387 226.356C292.33 227.567 293.59 228.172 295.167 228.172C296.014 228.172 296.764 227.999 297.418 227.653C298.072 227.288 298.668 226.817 299.207 226.241L300.996 228.345C300.226 229.228 299.341 229.91 298.341 230.39C297.36 230.851 296.264 231.082 295.052 231.082Z" fill="white"/>
<path d="M308.719 231.082C307.545 231.082 306.449 230.794 305.43 230.218C304.41 229.622 303.583 228.777 302.948 227.682C302.313 226.568 301.996 225.232 301.996 223.676C301.996 222.101 302.313 220.766 302.948 219.671C303.583 218.557 304.41 217.712 305.43 217.135C306.449 216.54 307.545 216.242 308.719 216.242C309.911 216.242 311.018 216.54 312.037 217.135C313.056 217.712 313.884 218.557 314.518 219.671C315.153 220.766 315.471 222.101 315.471 223.676C315.471 225.232 315.153 226.568 314.518 227.682C313.884 228.777 313.056 229.622 312.037 230.218C311.018 230.794 309.911 231.082 308.719 231.082ZM308.719 228.373C309.758 228.373 310.575 227.941 311.171 227.077C311.768 226.212 312.066 225.079 312.066 223.676C312.066 222.255 311.768 221.112 311.171 220.247C310.575 219.383 309.758 218.951 308.719 218.951C307.68 218.951 306.863 219.383 306.266 220.247C305.689 221.112 305.401 222.255 305.401 223.676C305.401 225.079 305.689 226.212 306.266 227.077C306.863 227.941 307.68 228.373 308.719 228.373Z" fill="white"/>
<path d="M322.852 231.082C321.082 231.082 319.669 230.429 318.611 229.123C317.553 227.816 317.024 226.001 317.024 223.676C317.024 222.14 317.303 220.814 317.86 219.7C318.438 218.586 319.188 217.731 320.111 217.135C321.034 216.54 322.006 216.242 323.025 216.242C323.833 216.242 324.516 216.386 325.074 216.674C325.651 216.943 326.209 217.318 326.747 217.798L326.632 215.522V210.393H329.95V230.736H327.209L326.978 229.209H326.863C326.343 229.728 325.737 230.169 325.045 230.534C324.352 230.899 323.622 231.082 322.852 231.082ZM323.66 228.345C324.718 228.345 325.709 227.816 326.632 226.76V220.161C326.151 219.719 325.67 219.412 325.189 219.239C324.708 219.066 324.227 218.98 323.747 218.98C322.842 218.98 322.063 219.393 321.409 220.219C320.775 221.025 320.457 222.168 320.457 223.648C320.457 225.165 320.736 226.327 321.294 227.134C321.852 227.941 322.64 228.345 323.66 228.345Z" fill="white"/>
<path d="M334.262 236.557C333.878 236.557 333.541 236.528 333.252 236.47C332.964 236.413 332.685 236.346 332.416 236.269L333.022 233.675C333.156 233.714 333.31 233.752 333.483 233.791C333.676 233.848 333.858 233.877 334.031 233.877C334.782 233.877 335.378 233.647 335.82 233.186C336.282 232.744 336.628 232.167 336.859 231.457L337.119 230.563L331.55 216.588H334.926L337.378 223.532C337.59 224.147 337.792 224.8 337.984 225.492C338.196 226.164 338.408 226.837 338.619 227.509H338.735C338.908 226.856 339.081 226.193 339.254 225.521C339.446 224.829 339.629 224.166 339.802 223.532L341.937 216.588H345.14L340.004 231.37C339.408 232.965 338.686 234.223 337.84 235.145C336.994 236.086 335.801 236.557 334.262 236.557Z" fill="white"/>
<path d="M355.796 220.708L355.132 223.014H359.951L359.287 220.708C358.979 219.71 358.681 218.682 358.393 217.625C358.123 216.569 357.854 215.522 357.585 214.484H357.469C357.219 215.541 356.95 216.597 356.662 217.654C356.392 218.691 356.104 219.71 355.796 220.708ZM349.477 230.736L355.623 211.891H359.547L365.693 230.736H362.173L360.701 225.636H354.353L352.882 230.736H349.477Z" fill="white"/>
<path d="M367.153 230.736V211.891H370.5V230.736H367.153Z" fill="white"/>
<path fill-rule="evenodd" clip-rule="evenodd" d="M272.286 211.564C273.472 211.564 274.434 212.586 274.434 213.847L274.434 219.045C274.434 220.305 273.472 221.327 272.286 221.327C271.1 221.327 270.138 220.305 270.138 219.045L270.138 213.847C270.138 212.586 271.1 211.564 272.286 211.564Z" fill="#FF5543"/>
<path fill-rule="evenodd" clip-rule="evenodd" d="M255.299 217.422C255.299 216.128 256.32 215.079 257.58 215.079H262.781C264.041 215.079 265.062 216.128 265.062 217.422C265.062 218.716 264.041 219.765 262.781 219.765H257.58C256.32 219.765 255.299 218.716 255.299 217.422Z" fill="#A112FF"/>
<path fill-rule="evenodd" clip-rule="evenodd" d="M257.878 225.728C257.11 224.745 255.673 224.55 254.659 225.293C253.64 226.039 253.435 227.449 254.2 228.442L256.044 227.091C254.2 228.442 254.2 228.443 254.201 228.444L254.202 228.446L254.205 228.45L254.212 228.459C254.218 228.466 254.224 228.473 254.231 228.482C254.245 228.5 254.262 228.521 254.283 228.547C254.325 228.598 254.382 228.666 254.453 228.747C254.595 228.908 254.795 229.125 255.054 229.379C255.57 229.885 256.326 230.543 257.323 231.198C259.324 232.513 262.313 233.824 266.234 233.824C270.155 233.824 273.143 232.513 275.144 231.198C276.141 230.543 276.898 229.885 277.414 229.379C277.672 229.125 277.873 228.908 278.014 228.747C278.085 228.666 278.142 228.598 278.184 228.547C278.205 228.521 278.223 228.5 278.237 228.482C278.244 228.473 278.25 228.466 278.255 228.459L278.262 228.45L278.265 228.446L278.266 228.444C278.267 228.443 278.268 228.442 276.424 227.091L278.268 228.442C279.033 227.449 278.827 226.039 277.809 225.293C276.795 224.55 275.357 224.745 274.59 225.728C274.588 225.73 274.586 225.733 274.583 225.737C274.571 225.751 274.547 225.78 274.51 225.821C274.437 225.905 274.315 226.038 274.145 226.205C273.803 226.54 273.276 227.002 272.567 227.467C271.158 228.393 269.051 229.325 266.234 229.325C263.416 229.325 261.309 228.393 259.9 227.467C259.192 227.002 258.664 226.54 258.322 226.205C258.152 226.038 258.03 225.905 257.957 225.821C257.92 225.78 257.896 225.751 257.885 225.737C257.881 225.733 257.879 225.73 257.878 225.728ZM274.583 225.737L274.582 225.737L274.582 225.738M274.591 225.727L274.591 225.727Z" fill="#00CBEC"/>
<g filter="url(#filter4_d_2592_19358)">
<rect x="437.5" y="180" width="214" height="86" rx="11" fill="url(#paint14_radial_2592_19358)" fill-opacity="0.9" shape-rendering="crispEdges"/>
<rect x="438" y="180.5" width="213" height="85" rx="10.5" stroke="url(#paint15_linear_2592_19358)" stroke-opacity="0.4" shape-rendering="crispEdges"/>
</g>
<path d="M500.27 232.933C498.806 232.933 497.476 232.585 496.279 231.888C495.083 231.192 494.127 230.174 493.413 228.834C492.716 227.477 492.368 225.834 492.368 223.906C492.368 221.995 492.725 220.361 493.44 219.004C494.172 217.629 495.145 216.584 496.359 215.869C497.574 215.137 498.913 214.771 500.378 214.771C501.485 214.771 502.467 214.994 503.324 215.441C504.181 215.887 504.887 216.405 505.44 216.995L503.779 219.004C503.333 218.539 502.833 218.173 502.279 217.905C501.744 217.62 501.136 217.477 500.458 217.477C499.511 217.477 498.663 217.736 497.913 218.254C497.181 218.754 496.601 219.477 496.172 220.423C495.761 221.37 495.556 222.504 495.556 223.825C495.556 225.825 495.993 227.397 496.868 228.54C497.743 229.665 498.913 230.227 500.378 230.227C501.163 230.227 501.86 230.067 502.467 229.745C503.074 229.406 503.628 228.968 504.128 228.433L505.788 230.388C505.074 231.21 504.253 231.844 503.324 232.29C502.413 232.719 501.395 232.933 500.27 232.933Z" fill="white"/>
<path d="M512.959 232.933C511.869 232.933 510.851 232.665 509.905 232.129C508.958 231.576 508.191 230.79 507.601 229.772C507.012 228.736 506.717 227.495 506.717 226.049C506.717 224.584 507.012 223.343 507.601 222.325C508.191 221.289 508.958 220.504 509.905 219.968C510.851 219.414 511.869 219.138 512.959 219.138C514.066 219.138 515.093 219.414 516.039 219.968C516.986 220.504 517.754 221.289 518.343 222.325C518.932 223.343 519.227 224.584 519.227 226.049C519.227 227.495 518.932 228.736 518.343 229.772C517.754 230.79 516.986 231.576 516.039 232.129C515.093 232.665 514.066 232.933 512.959 232.933ZM512.959 230.415C513.923 230.415 514.682 230.013 515.236 229.209C515.789 228.406 516.066 227.352 516.066 226.049C516.066 224.727 515.789 223.665 515.236 222.861C514.682 222.057 513.923 221.656 512.959 221.656C511.994 221.656 511.235 222.057 510.682 222.861C510.146 223.665 509.878 224.727 509.878 226.049C509.878 227.352 510.146 228.406 510.682 229.209C511.235 230.013 511.994 230.415 512.959 230.415Z" fill="white"/>
<path d="M526.013 232.933C524.37 232.933 523.057 232.326 522.075 231.111C521.093 229.897 520.602 228.209 520.602 226.049C520.602 224.62 520.861 223.388 521.379 222.352C521.914 221.316 522.611 220.522 523.468 219.968C524.325 219.414 525.227 219.138 526.173 219.138C526.924 219.138 527.557 219.271 528.075 219.539C528.611 219.789 529.129 220.138 529.629 220.584L529.522 218.468V213.7H532.602V232.611H530.058L529.843 231.192H529.736C529.254 231.674 528.691 232.085 528.049 232.424C527.406 232.763 526.727 232.933 526.013 232.933ZM526.763 230.388C527.745 230.388 528.665 229.897 529.522 228.915V222.781C529.075 222.37 528.629 222.084 528.182 221.923C527.736 221.763 527.29 221.682 526.843 221.682C526.004 221.682 525.281 222.066 524.673 222.834C524.084 223.584 523.789 224.647 523.789 226.022C523.789 227.433 524.048 228.513 524.566 229.263C525.084 230.013 525.816 230.388 526.763 230.388Z" fill="white"/>
<path d="M541.28 232.933C540.066 232.933 538.968 232.665 537.985 232.129C537.003 231.576 536.226 230.79 535.655 229.772C535.083 228.736 534.798 227.495 534.798 226.049C534.798 224.62 535.083 223.388 535.655 222.352C536.244 221.316 537.003 220.522 537.932 219.968C538.86 219.414 539.834 219.138 540.852 219.138C542.048 219.138 543.048 219.405 543.852 219.941C544.655 220.459 545.262 221.191 545.673 222.138C546.084 223.066 546.289 224.147 546.289 225.379C546.289 226.022 546.245 226.522 546.155 226.879H537.798C537.941 228.04 538.36 228.942 539.057 229.584C539.753 230.227 540.628 230.549 541.682 230.549C542.253 230.549 542.78 230.468 543.262 230.308C543.762 230.129 544.253 229.888 544.736 229.584L545.78 231.513C545.155 231.924 544.459 232.263 543.691 232.531C542.923 232.799 542.119 232.933 541.28 232.933ZM537.771 224.79H543.611C543.611 223.772 543.387 222.977 542.941 222.406C542.494 221.816 541.825 221.522 540.932 221.522C540.164 221.522 539.476 221.807 538.869 222.379C538.28 222.932 537.914 223.736 537.771 224.79Z" fill="white"/>
<path d="M558.237 232.933C557.059 232.933 555.916 232.71 554.808 232.263C553.719 231.817 552.755 231.183 551.915 230.361L553.737 228.245C554.362 228.834 555.076 229.317 555.88 229.692C556.684 230.049 557.487 230.227 558.291 230.227C559.291 230.227 560.05 230.022 560.568 229.611C561.086 229.201 561.344 228.656 561.344 227.977C561.344 227.245 561.086 226.718 560.568 226.397C560.068 226.075 559.425 225.745 558.639 225.406L556.228 224.361C555.657 224.111 555.094 223.79 554.541 223.397C554.005 223.004 553.558 222.504 553.201 221.897C552.862 221.289 552.692 220.557 552.692 219.7C552.692 218.771 552.942 217.941 553.442 217.209C553.96 216.459 554.657 215.869 555.532 215.441C556.425 214.994 557.443 214.771 558.585 214.771C559.603 214.771 560.586 214.977 561.532 215.387C562.478 215.78 563.291 216.316 563.97 216.995L562.389 218.977C561.836 218.512 561.246 218.146 560.621 217.879C560.014 217.611 559.335 217.477 558.585 217.477C557.764 217.477 557.094 217.664 556.576 218.039C556.076 218.396 555.826 218.896 555.826 219.539C555.826 219.986 555.951 220.361 556.201 220.664C556.469 220.95 556.817 221.2 557.246 221.414C557.675 221.611 558.13 221.807 558.612 222.004L560.996 222.995C562.032 223.441 562.88 224.031 563.541 224.763C564.202 225.477 564.532 226.468 564.532 227.736C564.532 228.683 564.282 229.549 563.782 230.335C563.282 231.12 562.559 231.754 561.612 232.236C560.684 232.701 559.559 232.933 558.237 232.933Z" fill="white"/>
<path d="M572.205 232.933C570.99 232.933 569.892 232.665 568.91 232.129C567.928 231.576 567.151 230.79 566.579 229.772C566.008 228.736 565.722 227.495 565.722 226.049C565.722 224.62 566.008 223.388 566.579 222.352C567.169 221.316 567.928 220.522 568.856 219.968C569.785 219.414 570.758 219.138 571.776 219.138C572.972 219.138 573.973 219.405 574.776 219.941C575.58 220.459 576.187 221.191 576.598 222.138C577.008 223.066 577.214 224.147 577.214 225.379C577.214 226.022 577.169 226.522 577.08 226.879H568.722C568.865 228.04 569.285 228.942 569.981 229.584C570.678 230.227 571.553 230.549 572.606 230.549C573.178 230.549 573.705 230.468 574.187 230.308C574.687 230.129 575.178 229.888 575.66 229.584L576.705 231.513C576.08 231.924 575.383 232.263 574.615 232.531C573.847 232.799 573.044 232.933 572.205 232.933ZM568.695 224.79H574.535C574.535 223.772 574.312 222.977 573.865 222.406C573.419 221.816 572.749 221.522 571.856 221.522C571.088 221.522 570.401 221.807 569.794 222.379C569.204 222.932 568.838 223.736 568.695 224.79Z" fill="white"/>
<path d="M582.159 232.933C581.016 232.933 580.079 232.576 579.346 231.861C578.632 231.147 578.275 230.218 578.275 229.076C578.275 227.665 578.891 226.575 580.123 225.808C581.355 225.022 583.32 224.486 586.016 224.2C585.999 223.504 585.811 222.906 585.454 222.406C585.115 221.888 584.499 221.629 583.606 221.629C582.963 221.629 582.329 221.754 581.704 222.004C581.097 222.254 580.498 222.557 579.909 222.914L578.784 220.852C579.516 220.388 580.338 219.986 581.248 219.646C582.177 219.307 583.159 219.138 584.195 219.138C585.838 219.138 587.061 219.629 587.865 220.611C588.686 221.575 589.097 222.977 589.097 224.816V232.611H586.552L586.338 231.165H586.231C585.641 231.665 585.007 232.085 584.329 232.424C583.668 232.763 582.945 232.933 582.159 232.933ZM583.15 230.522C583.686 230.522 584.168 230.397 584.597 230.147C585.043 229.879 585.516 229.522 586.016 229.076V226.129C584.231 226.361 582.989 226.709 582.293 227.174C581.597 227.62 581.248 228.174 581.248 228.834C581.248 229.424 581.427 229.852 581.784 230.12C582.141 230.388 582.597 230.522 583.15 230.522Z" fill="white"/>
<path d="M591.913 232.611V219.459H594.458L594.672 221.789H594.779C595.243 220.932 595.806 220.28 596.467 219.834C597.128 219.37 597.806 219.138 598.503 219.138C599.128 219.138 599.628 219.227 600.003 219.405L599.467 222.084C599.235 222.013 599.02 221.959 598.824 221.923C598.628 221.888 598.386 221.87 598.101 221.87C597.583 221.87 597.038 222.075 596.467 222.486C595.895 222.879 595.404 223.575 594.993 224.575V232.611H591.913Z" fill="white"/>
<path d="M606.265 232.933C605.068 232.933 603.988 232.665 603.024 232.129C602.077 231.576 601.318 230.79 600.747 229.772C600.193 228.736 599.916 227.495 599.916 226.049C599.916 224.584 600.22 223.343 600.827 222.325C601.434 221.289 602.238 220.504 603.238 219.968C604.256 219.414 605.345 219.138 606.506 219.138C607.345 219.138 608.078 219.28 608.703 219.566C609.328 219.852 609.881 220.2 610.363 220.611L608.863 222.62C608.524 222.316 608.176 222.084 607.819 221.923C607.461 221.745 607.078 221.656 606.667 221.656C605.613 221.656 604.747 222.057 604.068 222.861C603.408 223.665 603.077 224.727 603.077 226.049C603.077 227.352 603.399 228.406 604.042 229.209C604.702 230.013 605.551 230.415 606.586 230.415C607.104 230.415 607.586 230.308 608.033 230.093C608.497 229.861 608.917 229.593 609.292 229.29L610.551 231.326C609.944 231.861 609.265 232.263 608.515 232.531C607.765 232.799 607.015 232.933 606.265 232.933Z" fill="white"/>
<path d="M612.276 232.611V213.7H615.357V218.575L615.25 221.12C615.803 220.602 616.419 220.146 617.098 219.754C617.777 219.343 618.562 219.138 619.455 219.138C620.866 219.138 621.893 219.593 622.536 220.504C623.179 221.414 623.5 222.7 623.5 224.361V232.611H620.42V224.763C620.42 223.673 620.259 222.906 619.937 222.459C619.616 222.013 619.089 221.789 618.357 221.789C617.786 221.789 617.277 221.932 616.83 222.218C616.402 222.486 615.91 222.888 615.357 223.423V232.611H612.276Z" fill="white"/>
<path fill-rule="evenodd" clip-rule="evenodd" d="M479.12 231.937C477.409 233.168 475.31 233.893 473.041 233.893C467.286 233.893 462.62 229.227 462.62 223.471C462.62 217.716 467.286 213.05 473.041 213.05C478.797 213.05 483.463 217.716 483.463 223.471C483.463 225.359 482.961 227.13 482.083 228.657L485.464 232.038C486.326 232.9 486.326 234.298 485.464 235.16C484.602 236.022 483.204 236.022 482.343 235.16L479.12 231.937ZM481.886 223.471C481.886 228.356 477.926 232.316 473.041 232.316C468.157 232.316 464.197 228.356 464.197 223.471C464.197 218.586 468.157 214.626 473.041 214.626C477.926 214.626 481.886 218.586 481.886 223.471Z" fill="white"/>
<path fill-rule="evenodd" clip-rule="evenodd" d="M468.453 220.144C468.453 219.622 468.876 219.198 469.399 219.198H476.651C477.173 219.198 477.596 219.622 477.596 220.144C477.596 220.666 477.173 221.09 476.651 221.09H469.399C468.876 221.09 468.453 220.666 468.453 220.144Z" fill="#A112FF"/>
<path fill-rule="evenodd" clip-rule="evenodd" d="M468.453 223.297C468.453 222.775 468.876 222.351 469.399 222.351H476.651C477.173 222.351 477.596 222.775 477.596 223.297C477.596 223.819 477.173 224.243 476.651 224.243H469.399C468.876 224.243 468.453 223.819 468.453 223.297Z" fill="#FF5543"/>
<path fill-rule="evenodd" clip-rule="evenodd" d="M468.453 226.608C468.453 226.085 468.876 225.662 469.399 225.662H476.651C477.173 225.662 477.596 226.085 477.596 226.608C477.596 227.13 477.173 227.554 476.651 227.554H469.399C468.876 227.554 468.453 227.13 468.453 226.608Z" fill="#00CBEC"/>
<defs>
<filter id="filter0_f_2592_19358" x="119.5" y="229" width="310" height="126" filterUnits="userSpaceOnUse" color-interpolation-filters="sRGB">
<feFlood flood-opacity="0" result="BackgroundImageFix"/>
<feBlend mode="normal" in="SourceGraphic" in2="BackgroundImageFix" result="shape"/>
<feGaussianBlur stdDeviation="2.5" result="effect1_foregroundBlur_2592_19358"/>
</filter>
<filter id="filter1_f_2592_19358" x="66.5" y="122" width="727" height="161" filterUnits="userSpaceOnUse" color-interpolation-filters="sRGB">
<feFlood flood-opacity="0" result="BackgroundImageFix"/>
<feBlend mode="normal" in="SourceGraphic" in2="BackgroundImageFix" result="shape"/>
<feGaussianBlur stdDeviation="30" result="effect1_foregroundBlur_2592_19358"/>
</filter>
<filter id="filter2_f_2592_19358" x="422.5" y="222" width="324" height="140" filterUnits="userSpaceOnUse" color-interpolation-filters="sRGB">
<feFlood flood-opacity="0" result="BackgroundImageFix"/>
<feBlend mode="normal" in="SourceGraphic" in2="BackgroundImageFix" result="shape"/>
<feGaussianBlur stdDeviation="6" result="effect1_foregroundBlur_2592_19358"/>
</filter>
<filter id="filter3_d_2592_19358" x="181.5" y="160" width="266" height="138" filterUnits="userSpaceOnUse" color-interpolation-filters="sRGB">
<feFlood flood-opacity="0" result="BackgroundImageFix"/>
<feColorMatrix in="SourceAlpha" type="matrix" values="0 0 0 0 0 0 0 0 0 0 0 0 0 0 0 0 0 0 127 0" result="hardAlpha"/>
<feOffset dx="2" dy="6"/>
<feGaussianBlur stdDeviation="13"/>
<feComposite in2="hardAlpha" operator="out"/>
<feColorMatrix type="matrix" values="0 0 0 0 0 0 0 0 0 0 0 0 0 0 0 0 0 0 0.65 0"/>
<feBlend mode="normal" in2="BackgroundImageFix" result="effect1_dropShadow_2592_19358"/>
<feBlend mode="normal" in="SourceGraphic" in2="effect1_dropShadow_2592_19358" result="shape"/>
</filter>
<filter id="filter4_d_2592_19358" x="413.5" y="160" width="266" height="138" filterUnits="userSpaceOnUse" color-interpolation-filters="sRGB">
<feFlood flood-opacity="0" result="BackgroundImageFix"/>
<feColorMatrix in="SourceAlpha" type="matrix" values="0 0 0 0 0 0 0 0 0 0 0 0 0 0 0 0 0 0 127 0" result="hardAlpha"/>
<feOffset dx="2" dy="6"/>
<feGaussianBlur stdDeviation="13"/>
<feComposite in2="hardAlpha" operator="out"/>
<feColorMatrix type="matrix" values="0 0 0 0 0 0 0 0 0 0 0 0 0 0 0 0 0 0 0.65 0"/>
<feBlend mode="normal" in2="BackgroundImageFix" result="effect1_dropShadow_2592_19358"/>
<feBlend mode="normal" in="SourceGraphic" in2="effect1_dropShadow_2592_19358" result="shape"/>
</filter>
<radialGradient id="paint0_radial_2592_19358" cx="0" cy="0" r="1" gradientUnits="userSpaceOnUse" gradientTransform="translate(433 229) rotate(-88.7326) scale(226.055 418.065)">
<stop offset="0.172603" stop-color="#FF5543"/>
<stop offset="0.494267" stop-color="#A112FF"/>
<stop offset="0.876392" stop-color="#00CBEC"/>
<stop offset="0.996863" stop-color="#00CBEC" stop-opacity="0.2"/>
</radialGradient>
<radialGradient id="paint1_radial_2592_19358" cx="0" cy="0" r="1" gradientUnits="userSpaceOnUse" gradientTransform="translate(429 225.5) rotate(90.1387) scale(206.501 427.227)">
<stop stop-color="#A112FF" stop-opacity="0.81"/>
<stop offset="1" stop-color="#A112FF" stop-opacity="0"/>
</radialGradient>
<linearGradient id="paint2_linear_2592_19358" x1="266.808" y1="377" x2="272.995" y2="214.679" gradientUnits="userSpaceOnUse">
<stop stop-color="#15171E" stop-opacity="0"/>
<stop offset="0.877552" stop-color="#343A4D" stop-opacity="0.49"/>
</linearGradient>
<linearGradient id="paint3_linear_2592_19358" x1="136.808" y1="372" x2="367.318" y2="167.337" gradientUnits="userSpaceOnUse">
<stop stop-color="#A112FF"/>
<stop offset="1" stop-color="#00CBEC"/>
</linearGradient>
<linearGradient id="paint4_linear_2592_19358" x1="129.115" y1="340" x2="395.91" y2="220.285" gradientUnits="userSpaceOnUse">
<stop stop-color="#00CBEC"/>
<stop offset="0.244792" stop-color="#6952F8"/>
<stop offset="0.453125" stop-color="#A112FF"/>
<stop offset="0.5625" stop-color="#B621D6"/>
<stop offset="1" stop-color="#FF5543"/>
</linearGradient>
<linearGradient id="paint5_linear_2592_19358" x1="222.806" y1="107" x2="222.806" y2="223" gradientUnits="userSpaceOnUse">
<stop stop-color="#A6B6D9"/>
<stop offset="1" stop-color="#6112A3" stop-opacity="0.44"/>
</linearGradient>
<linearGradient id="paint6_linear_2592_19358" x1="429.5" y1="107" x2="429.5" y2="223" gradientUnits="userSpaceOnUse">
<stop stop-color="#A6B6D9"/>
<stop offset="1" stop-color="#6112A3" stop-opacity="0.44"/>
</linearGradient>
<linearGradient id="paint7_linear_2592_19358" x1="126.5" y1="202.5" x2="723.502" y2="207.866" gradientUnits="userSpaceOnUse">
<stop stop-color="#477EE8"/>
<stop offset="0.0845033" stop-color="#6C50F9"/>
<stop offset="0.182352" stop-color="#8E18B7"/>
<stop offset="0.29219" stop-color="#A53543"/>
<stop offset="0.360674" stop-color="#2661A6"/>
<stop offset="0.425927" stop-color="#5B2DB5"/>
<stop offset="0.507447" stop-color="#921FA0"/>
<stop offset="0.643368" stop-color="#A2362F"/>
<stop offset="0.711872" stop-color="#25528F"/>
<stop offset="0.789094" stop-color="#5820A3"/>
<stop offset="0.892359" stop-color="#96267E"/>
<stop offset="1" stop-color="#F9534C"/>
</linearGradient>
<linearGradient id="paint8_linear_2592_19358" x1="576.808" y1="377" x2="582.995" y2="214.679" gradientUnits="userSpaceOnUse">
<stop stop-color="#15171E" stop-opacity="0"/>
<stop offset="0.877552" stop-color="#343A4D" stop-opacity="0.49"/>
</linearGradient>
<linearGradient id="paint9_linear_2592_19358" x1="446.808" y1="372" x2="677.318" y2="167.337" gradientUnits="userSpaceOnUse">
<stop stop-color="#A112FF"/>
<stop offset="1" stop-color="#00CBEC"/>
</linearGradient>
<linearGradient id="paint10_linear_2592_19358" x1="439.115" y1="340" x2="705.91" y2="220.285" gradientUnits="userSpaceOnUse">
<stop stop-color="#00CBEC"/>
<stop offset="0.244792" stop-color="#6952F8"/>
<stop offset="0.453125" stop-color="#A112FF"/>
<stop offset="0.5625" stop-color="#B621D6"/>
<stop offset="1" stop-color="#FF5543"/>
</linearGradient>
<linearGradient id="paint11_linear_2592_19358" x1="636.194" y1="107" x2="636.194" y2="223" gradientUnits="userSpaceOnUse">
<stop stop-color="#A6B6D9"/>
<stop offset="1" stop-color="#6112A3" stop-opacity="0.44"/>
</linearGradient>
<radialGradient id="paint12_radial_2592_19358" cx="0" cy="0" r="1" gradientUnits="userSpaceOnUse" gradientTransform="translate(316.958 266) rotate(-95.5549) scale(115.144 250.272)">
<stop offset="0.145833" stop-color="#1E0632"/>
<stop offset="0.540416" stop-color="#270741"/>
<stop offset="0.979167" stop-color="#6112A3"/>
</radialGradient>
<linearGradient id="paint13_linear_2592_19358" x1="176" y1="266" x2="436" y2="202" gradientUnits="userSpaceOnUse">
<stop stop-color="white"/>
<stop offset="1" stop-color="white"/>
</linearGradient>
<radialGradient id="paint14_radial_2592_19358" cx="0" cy="0" r="1" gradientUnits="userSpaceOnUse" gradientTransform="translate(548.958 266) rotate(-95.5549) scale(115.144 250.272)">
<stop offset="0.145833" stop-color="#1E0632"/>
<stop offset="0.540416" stop-color="#270741"/>
<stop offset="0.979167" stop-color="#6112A3"/>
</radialGradient>
<linearGradient id="paint15_linear_2592_19358" x1="408" y1="266" x2="668" y2="202" gradientUnits="userSpaceOnUse">
<stop stop-color="white"/>
<stop offset="1" stop-color="white"/>
</linearGradient>
</defs>
</svg>
