<svg width="860" height="465" viewBox="0 0 860 465" fill="none" xmlns="http://www.w3.org/2000/svg">
<g clip-path="url(#clip0_2676_18089)">
<path d="M86.4294 -168V626M124.557 -168V626M162.685 -168V626M201.142 -168V626M239.269 -168V626M277.398 -168V626M315.526 -168V626M353.653 -168V626M392.11 -168V626M430.238 -168V626M468.366 -168V626M506.494 -168V626M544.95 -168V626M583.079 -168V626M621.206 -168V626M659.335 -168V626M697.462 -168V626M735.919 -168L735.919 626M774.044 -168V626M812.179 -168V626M48 592.726H850M48 554.405L850 554.406M48 516.087H850M48 477.768H850M48 439.45H850M48 401.131H850M48 362.812H850M48 324.494H850M48 286.175H850M48 247.857H850M48 209.538H850M48 171.22H850M48 132.901H850M48 94.5828H850M48 56.2643H850M48 17.9458H850M48 -20.3728H850M48 -58.6913H850M48 -97.0098H850M48 -135.328H850" stroke="url(#paint0_linear_2676_18089)" stroke-opacity="0.8"/>
<path d="M86.4294 -168V626M124.557 -168V626M162.685 -168V626M201.142 -168V626M239.269 -168V626M277.398 -168V626M315.526 -168V626M353.653 -168V626M392.11 -168V626M430.238 -168V626M468.366 -168V626M506.494 -168V626M544.95 -168V626M583.079 -168V626M621.206 -168V626M659.335 -168V626M697.462 -168V626M735.919 -168L735.919 626M774.044 -168V626M812.179 -168V626M48 592.726H850M48 554.405L850 554.406M48 516.087H850M48 477.768H850M48 439.45H850M48 401.131H850M48 362.812H850M48 324.494H850M48 286.175H850M48 247.857H850M48 209.538H850M48 171.22H850M48 132.901H850M48 94.5828H850M48 56.2643H850M48 17.9458H850M48 -20.3728H850M48 -58.6913H850M48 -97.0098H850M48 -135.328H850" stroke="url(#paint1_radial_2676_18089)"/>
<ellipse cx="429.5" cy="225.5" rx="502.5" ry="232.5" fill="url(#paint2_radial_2676_18089)" fill-opacity="0.4"/>
<rect x="125" y="234" width="300" height="116" rx="23" fill="#210E30"/>
<rect x="125" y="234" width="300" height="116" rx="23" fill="url(#paint3_linear_2676_18089)"/>
<rect x="125" y="234" width="300" height="116" rx="23" fill="url(#paint4_linear_2676_18089)" fill-opacity="0.24"/>
<rect x="125.5" y="234.5" width="299" height="115" rx="22.5" stroke="white" stroke-opacity="0.3"/>
<g filter="url(#filter0_f_2676_18089)">
<rect x="125" y="234" width="300" height="116" rx="23" fill="url(#paint5_linear_2676_18089)"/>
<rect x="125.5" y="234.5" width="299" height="115" rx="22.5" stroke="white" stroke-opacity="0.3"/>
</g>
<path d="M146.504 325.192C145.629 325.192 144.835 324.984 144.12 324.568C143.405 324.152 142.835 323.544 142.408 322.744C141.992 321.933 141.784 320.952 141.784 319.8C141.784 318.659 141.997 317.683 142.424 316.872C142.861 316.051 143.443 315.427 144.168 315C144.893 314.563 145.693 314.344 146.568 314.344C147.229 314.344 147.816 314.477 148.328 314.744C148.84 315.011 149.261 315.32 149.592 315.672L148.6 316.872C148.333 316.595 148.035 316.376 147.704 316.216C147.384 316.045 147.021 315.96 146.616 315.96C146.051 315.96 145.544 316.115 145.096 316.424C144.659 316.723 144.312 317.155 144.056 317.72C143.811 318.285 143.688 318.963 143.688 319.752C143.688 320.947 143.949 321.885 144.472 322.568C144.995 323.24 145.693 323.576 146.568 323.576C147.037 323.576 147.453 323.48 147.816 323.288C148.179 323.085 148.509 322.824 148.808 322.504L149.8 323.672C149.373 324.163 148.883 324.541 148.328 324.808C147.784 325.064 147.176 325.192 146.504 325.192ZM154.603 325.192C153.952 325.192 153.344 325.032 152.779 324.712C152.213 324.381 151.755 323.912 151.403 323.304C151.051 322.685 150.875 321.944 150.875 321.08C150.875 320.205 151.051 319.464 151.403 318.856C151.755 318.237 152.213 317.768 152.779 317.448C153.344 317.117 153.952 316.952 154.603 316.952C155.264 316.952 155.877 317.117 156.443 317.448C157.008 317.768 157.467 318.237 157.819 318.856C158.171 319.464 158.347 320.205 158.347 321.08C158.347 321.944 158.171 322.685 157.819 323.304C157.467 323.912 157.008 324.381 156.443 324.712C155.877 325.032 155.264 325.192 154.603 325.192ZM154.603 323.688C155.179 323.688 155.632 323.448 155.963 322.968C156.293 322.488 156.459 321.859 156.459 321.08C156.459 320.291 156.293 319.656 155.963 319.176C155.632 318.696 155.179 318.456 154.603 318.456C154.027 318.456 153.573 318.696 153.243 319.176C152.923 319.656 152.763 320.291 152.763 321.08C152.763 321.859 152.923 322.488 153.243 322.968C153.573 323.448 154.027 323.688 154.603 323.688ZM162.92 325.192C161.939 325.192 161.155 324.829 160.568 324.104C159.981 323.379 159.688 322.371 159.688 321.08C159.688 320.227 159.843 319.491 160.152 318.872C160.472 318.253 160.888 317.779 161.4 317.448C161.912 317.117 162.451 316.952 163.016 316.952C163.464 316.952 163.843 317.032 164.152 317.192C164.472 317.341 164.781 317.549 165.08 317.816L165.016 316.552V313.704H166.856V325H165.336L165.208 324.152H165.144C164.856 324.44 164.52 324.685 164.136 324.888C163.752 325.091 163.347 325.192 162.92 325.192ZM163.368 323.672C163.955 323.672 164.504 323.379 165.016 322.792V319.128C164.749 318.883 164.483 318.712 164.216 318.616C163.949 318.52 163.683 318.472 163.416 318.472C162.915 318.472 162.483 318.701 162.12 319.16C161.768 319.608 161.592 320.243 161.592 321.064C161.592 321.907 161.747 322.552 162.056 323C162.365 323.448 162.803 323.672 163.368 323.672ZM172.559 325.192C171.834 325.192 171.178 325.032 170.591 324.712C170.005 324.381 169.541 323.912 169.199 323.304C168.858 322.685 168.687 321.944 168.687 321.08C168.687 320.227 168.858 319.491 169.199 318.872C169.551 318.253 170.005 317.779 170.559 317.448C171.114 317.117 171.695 316.952 172.303 316.952C173.018 316.952 173.615 317.112 174.095 317.432C174.575 317.741 174.938 318.179 175.183 318.744C175.429 319.299 175.551 319.944 175.551 320.68C175.551 321.064 175.525 321.363 175.471 321.576H170.479C170.565 322.269 170.815 322.808 171.231 323.192C171.647 323.576 172.17 323.768 172.799 323.768C173.141 323.768 173.455 323.72 173.743 323.624C174.042 323.517 174.335 323.373 174.623 323.192L175.247 324.344C174.874 324.589 174.458 324.792 173.999 324.952C173.541 325.112 173.061 325.192 172.559 325.192ZM170.463 320.328H173.951C173.951 319.72 173.818 319.245 173.551 318.904C173.285 318.552 172.885 318.376 172.351 318.376C171.893 318.376 171.482 318.547 171.119 318.888C170.767 319.219 170.549 319.699 170.463 320.328ZM183.248 328.472C182.629 328.472 182.069 328.397 181.568 328.248C181.077 328.099 180.688 327.869 180.4 327.56C180.122 327.261 179.984 326.883 179.984 326.424C179.984 325.773 180.357 325.213 181.104 324.744V324.68C180.901 324.552 180.73 324.381 180.592 324.168C180.464 323.955 180.4 323.688 180.4 323.368C180.4 323.059 180.485 322.781 180.656 322.536C180.837 322.28 181.04 322.072 181.264 321.912V321.848C180.997 321.645 180.757 321.363 180.544 321C180.341 320.637 180.24 320.227 180.24 319.768C180.24 319.16 180.384 318.648 180.672 318.232C180.96 317.816 181.338 317.501 181.808 317.288C182.288 317.064 182.8 316.952 183.344 316.952C183.557 316.952 183.76 316.973 183.952 317.016C184.154 317.048 184.336 317.091 184.496 317.144H187.312V318.504H185.872C186 318.653 186.106 318.845 186.192 319.08C186.277 319.304 186.32 319.555 186.32 319.832C186.32 320.408 186.186 320.899 185.92 321.304C185.653 321.699 185.296 321.997 184.848 322.2C184.4 322.403 183.898 322.504 183.344 322.504C183.173 322.504 182.997 322.488 182.816 322.456C182.634 322.424 182.453 322.371 182.272 322.296C182.154 322.403 182.058 322.509 181.984 322.616C181.92 322.723 181.888 322.867 181.888 323.048C181.888 323.272 181.978 323.448 182.16 323.576C182.352 323.704 182.688 323.768 183.168 323.768H184.56C185.509 323.768 186.224 323.923 186.704 324.232C187.194 324.531 187.44 325.021 187.44 325.704C187.44 326.216 187.269 326.68 186.928 327.096C186.586 327.523 186.101 327.859 185.472 328.104C184.842 328.349 184.101 328.472 183.248 328.472ZM183.344 321.352C183.717 321.352 184.037 321.213 184.304 320.936C184.57 320.659 184.704 320.269 184.704 319.768C184.704 319.277 184.57 318.899 184.304 318.632C184.048 318.355 183.728 318.216 183.344 318.216C182.96 318.216 182.634 318.349 182.368 318.616C182.101 318.883 181.968 319.267 181.968 319.768C181.968 320.269 182.101 320.659 182.368 320.936C182.634 321.213 182.96 321.352 183.344 321.352ZM183.536 327.272C184.165 327.272 184.677 327.144 185.072 326.888C185.466 326.632 185.664 326.339 185.664 326.008C185.664 325.699 185.541 325.491 185.296 325.384C185.061 325.277 184.72 325.224 184.272 325.224H183.2C182.773 325.224 182.416 325.187 182.128 325.112C181.722 325.421 181.52 325.768 181.52 326.152C181.52 326.504 181.701 326.776 182.064 326.968C182.426 327.171 182.917 327.272 183.536 327.272ZM188.824 325V317.144H190.344L190.472 318.536H190.536C190.814 318.024 191.15 317.635 191.544 317.368C191.939 317.091 192.344 316.952 192.76 316.952C193.134 316.952 193.432 317.005 193.656 317.112L193.336 318.712C193.198 318.669 193.07 318.637 192.952 318.616C192.835 318.595 192.691 318.584 192.52 318.584C192.211 318.584 191.886 318.707 191.544 318.952C191.203 319.187 190.91 319.603 190.664 320.2V325H188.824ZM196.275 325.192C195.592 325.192 195.032 324.979 194.595 324.552C194.168 324.125 193.955 323.571 193.955 322.888C193.955 322.045 194.323 321.395 195.059 320.936C195.795 320.467 196.968 320.147 198.579 319.976C198.568 319.56 198.456 319.203 198.243 318.904C198.04 318.595 197.672 318.44 197.139 318.44C196.755 318.44 196.376 318.515 196.003 318.664C195.64 318.813 195.283 318.995 194.931 319.208L194.259 317.976C194.696 317.699 195.187 317.459 195.731 317.256C196.286 317.053 196.872 316.952 197.491 316.952C198.472 316.952 199.203 317.245 199.683 317.832C200.174 318.408 200.419 319.245 200.419 320.344V325H198.899L198.771 324.136H198.707C198.355 324.435 197.976 324.685 197.571 324.888C197.176 325.091 196.744 325.192 196.275 325.192ZM196.867 323.752C197.187 323.752 197.475 323.677 197.731 323.528C197.998 323.368 198.28 323.155 198.579 322.888V321.128C197.512 321.267 196.771 321.475 196.355 321.752C195.939 322.019 195.731 322.349 195.731 322.744C195.731 323.096 195.838 323.352 196.051 323.512C196.264 323.672 196.536 323.752 196.867 323.752ZM202.621 328.104V317.144H204.141L204.269 317.976H204.333C204.664 317.699 205.032 317.459 205.437 317.256C205.853 317.053 206.274 316.952 206.701 316.952C207.682 316.952 208.44 317.315 208.973 318.04C209.517 318.765 209.789 319.736 209.789 320.952C209.789 321.848 209.629 322.616 209.309 323.256C208.989 323.885 208.573 324.365 208.061 324.696C207.56 325.027 207.016 325.192 206.429 325.192C206.088 325.192 205.746 325.117 205.405 324.968C205.064 324.808 204.733 324.595 204.413 324.328L204.461 325.64V328.104H202.621ZM206.045 323.672C206.568 323.672 207.005 323.443 207.357 322.984C207.709 322.525 207.885 321.853 207.885 320.968C207.885 320.179 207.752 319.565 207.485 319.128C207.218 318.691 206.786 318.472 206.189 318.472C205.634 318.472 205.058 318.765 204.461 319.352V323.016C204.749 323.251 205.026 323.421 205.293 323.528C205.56 323.624 205.81 323.672 206.045 323.672ZM211.652 325V313.704H213.492V316.616L213.428 318.136C213.759 317.827 214.127 317.555 214.532 317.32C214.938 317.075 215.407 316.952 215.94 316.952C216.783 316.952 217.396 317.224 217.78 317.768C218.164 318.312 218.356 319.08 218.356 320.072V325H216.516V320.312C216.516 319.661 216.42 319.203 216.228 318.936C216.036 318.669 215.722 318.536 215.284 318.536C214.943 318.536 214.639 318.621 214.372 318.792C214.116 318.952 213.823 319.192 213.492 319.512V325H211.652Z" fill="white"/>
<rect x="125" y="107" width="196.612" height="116" rx="23" fill="#A6B6D9"/>
<rect x="125" y="107" width="196.612" height="116" rx="23" fill="url(#paint6_linear_2676_18089)"/>
<rect x="125.5" y="107.5" width="195.612" height="115" rx="22.5" stroke="white" stroke-opacity="0.3"/>
<path d="M141.477 144V133.536H144.277C145.877 133.536 147.125 133.968 148.021 134.832C148.917 135.696 149.365 136.992 149.365 138.72C149.365 140.459 148.922 141.776 148.037 142.672C147.152 143.557 145.93 144 144.373 144H141.477ZM143.333 142.496H144.149C145.205 142.496 146.021 142.192 146.597 141.584C147.173 140.965 147.461 140.011 147.461 138.72C147.461 137.44 147.173 136.507 146.597 135.92C146.021 135.333 145.205 135.04 144.149 135.04H143.333V142.496ZM153.221 144.192C152.538 144.192 151.978 143.979 151.541 143.552C151.114 143.125 150.901 142.571 150.901 141.888C150.901 141.045 151.269 140.395 152.005 139.936C152.741 139.467 153.914 139.147 155.525 138.976C155.514 138.56 155.402 138.203 155.189 137.904C154.986 137.595 154.618 137.44 154.085 137.44C153.701 137.44 153.322 137.515 152.949 137.664C152.586 137.813 152.229 137.995 151.877 138.208L151.205 136.976C151.642 136.699 152.133 136.459 152.677 136.256C153.232 136.053 153.818 135.952 154.437 135.952C155.418 135.952 156.149 136.245 156.629 136.832C157.12 137.408 157.365 138.245 157.365 139.344V144H155.845L155.717 143.136H155.653C155.301 143.435 154.922 143.685 154.517 143.888C154.122 144.091 153.69 144.192 153.221 144.192ZM153.813 142.752C154.133 142.752 154.421 142.677 154.677 142.528C154.944 142.368 155.226 142.155 155.525 141.888V140.128C154.458 140.267 153.717 140.475 153.301 140.752C152.885 141.019 152.677 141.349 152.677 141.744C152.677 142.096 152.784 142.352 152.997 142.512C153.21 142.672 153.482 142.752 153.813 142.752ZM162.085 144.192C161.178 144.192 160.533 143.931 160.149 143.408C159.776 142.875 159.589 142.187 159.589 141.344V137.6H158.469V136.224L159.685 136.144L159.909 134H161.445V136.144H163.445V137.6H161.445V141.344C161.445 142.261 161.813 142.72 162.549 142.72C162.688 142.72 162.832 142.704 162.981 142.672C163.13 142.629 163.258 142.587 163.365 142.544L163.685 143.904C163.472 143.979 163.226 144.043 162.949 144.096C162.682 144.16 162.394 144.192 162.085 144.192ZM166.658 144.192C165.976 144.192 165.416 143.979 164.978 143.552C164.552 143.125 164.338 142.571 164.338 141.888C164.338 141.045 164.706 140.395 165.442 139.936C166.178 139.467 167.352 139.147 168.962 138.976C168.952 138.56 168.84 138.203 168.626 137.904C168.424 137.595 168.056 137.44 167.522 137.44C167.138 137.44 166.76 137.515 166.386 137.664C166.024 137.813 165.666 137.995 165.314 138.208L164.642 136.976C165.08 136.699 165.57 136.459 166.114 136.256C166.669 136.053 167.256 135.952 167.874 135.952C168.856 135.952 169.586 136.245 170.066 136.832C170.557 137.408 170.802 138.245 170.802 139.344V144H169.282L169.154 143.136H169.09C168.738 143.435 168.36 143.685 167.954 143.888C167.56 144.091 167.128 144.192 166.658 144.192ZM167.25 142.752C167.57 142.752 167.858 142.677 168.114 142.528C168.381 142.368 168.664 142.155 168.962 141.888V140.128C167.896 140.267 167.154 140.475 166.738 140.752C166.322 141.019 166.114 141.349 166.114 141.744C166.114 142.096 166.221 142.352 166.434 142.512C166.648 142.672 166.92 142.752 167.25 142.752ZM176.208 147.104V136.144H177.728L177.856 136.976H177.92C178.25 136.699 178.618 136.459 179.024 136.256C179.44 136.053 179.861 135.952 180.288 135.952C181.269 135.952 182.026 136.315 182.56 137.04C183.104 137.765 183.376 138.736 183.376 139.952C183.376 140.848 183.216 141.616 182.896 142.256C182.576 142.885 182.16 143.365 181.648 143.696C181.146 144.027 180.602 144.192 180.016 144.192C179.674 144.192 179.333 144.117 178.992 143.968C178.65 143.808 178.32 143.595 178 143.328L178.048 144.64V147.104H176.208ZM179.632 142.672C180.154 142.672 180.592 142.443 180.944 141.984C181.296 141.525 181.472 140.853 181.472 139.968C181.472 139.179 181.338 138.565 181.072 138.128C180.805 137.691 180.373 137.472 179.776 137.472C179.221 137.472 178.645 137.765 178.048 138.352V142.016C178.336 142.251 178.613 142.421 178.88 142.528C179.146 142.624 179.397 142.672 179.632 142.672ZM187.031 144.192C186.38 144.192 185.916 143.995 185.639 143.6C185.372 143.205 185.239 142.667 185.239 141.984V132.704H187.079V142.08C187.079 142.304 187.121 142.464 187.207 142.56C187.292 142.645 187.383 142.688 187.479 142.688C187.521 142.688 187.559 142.688 187.591 142.688C187.633 142.677 187.692 142.667 187.767 142.656L188.007 144.032C187.9 144.075 187.761 144.112 187.591 144.144C187.431 144.176 187.244 144.192 187.031 144.192ZM191.919 144.192C191.076 144.192 190.463 143.92 190.079 143.376C189.695 142.832 189.503 142.064 189.503 141.072V136.144H191.343V140.832C191.343 141.483 191.439 141.941 191.631 142.208C191.823 142.475 192.132 142.608 192.559 142.608C192.9 142.608 193.199 142.523 193.455 142.352C193.721 142.181 194.004 141.904 194.303 141.52V136.144H196.143V144H194.639L194.495 142.848H194.447C194.105 143.253 193.732 143.579 193.327 143.824C192.921 144.069 192.452 144.192 191.919 144.192ZM201.209 147.472C200.591 147.472 200.031 147.397 199.529 147.248C199.039 147.099 198.649 146.869 198.361 146.56C198.084 146.261 197.945 145.883 197.945 145.424C197.945 144.773 198.319 144.213 199.065 143.744V143.68C198.863 143.552 198.692 143.381 198.553 143.168C198.425 142.955 198.361 142.688 198.361 142.368C198.361 142.059 198.447 141.781 198.617 141.536C198.799 141.28 199.001 141.072 199.225 140.912V140.848C198.959 140.645 198.719 140.363 198.505 140C198.303 139.637 198.201 139.227 198.201 138.768C198.201 138.16 198.345 137.648 198.633 137.232C198.921 136.816 199.3 136.501 199.769 136.288C200.249 136.064 200.761 135.952 201.305 135.952C201.519 135.952 201.721 135.973 201.913 136.016C202.116 136.048 202.297 136.091 202.457 136.144H205.273V137.504H203.833C203.961 137.653 204.068 137.845 204.153 138.08C204.239 138.304 204.281 138.555 204.281 138.832C204.281 139.408 204.148 139.899 203.881 140.304C203.615 140.699 203.257 140.997 202.809 141.2C202.361 141.403 201.86 141.504 201.305 141.504C201.135 141.504 200.959 141.488 200.777 141.456C200.596 141.424 200.415 141.371 200.233 141.296C200.116 141.403 200.02 141.509 199.945 141.616C199.881 141.723 199.849 141.867 199.849 142.048C199.849 142.272 199.94 142.448 200.121 142.576C200.313 142.704 200.649 142.768 201.129 142.768H202.521C203.471 142.768 204.185 142.923 204.665 143.232C205.156 143.531 205.401 144.021 205.401 144.704C205.401 145.216 205.231 145.68 204.889 146.096C204.548 146.523 204.063 146.859 203.433 147.104C202.804 147.349 202.063 147.472 201.209 147.472ZM201.305 140.352C201.679 140.352 201.999 140.213 202.265 139.936C202.532 139.659 202.665 139.269 202.665 138.768C202.665 138.277 202.532 137.899 202.265 137.632C202.009 137.355 201.689 137.216 201.305 137.216C200.921 137.216 200.596 137.349 200.329 137.616C200.063 137.883 199.929 138.267 199.929 138.768C199.929 139.269 200.063 139.659 200.329 139.936C200.596 140.213 200.921 140.352 201.305 140.352ZM201.497 146.272C202.127 146.272 202.639 146.144 203.033 145.888C203.428 145.632 203.625 145.339 203.625 145.008C203.625 144.699 203.503 144.491 203.257 144.384C203.023 144.277 202.681 144.224 202.233 144.224H201.161C200.735 144.224 200.377 144.187 200.089 144.112C199.684 144.421 199.481 144.768 199.481 145.152C199.481 145.504 199.663 145.776 200.025 145.968C200.388 146.171 200.879 146.272 201.497 146.272ZM206.786 144V136.144H208.626V144H206.786ZM207.714 134.768C207.383 134.768 207.116 134.672 206.914 134.48C206.711 134.288 206.61 134.032 206.61 133.712C206.61 133.403 206.711 133.152 206.914 132.96C207.116 132.768 207.383 132.672 207.714 132.672C208.044 132.672 208.311 132.768 208.514 132.96C208.716 133.152 208.818 133.403 208.818 133.712C208.818 134.032 208.716 134.288 208.514 134.48C208.311 134.672 208.044 134.768 207.714 134.768ZM210.973 144V136.144H212.493L212.621 137.2H212.685C213.037 136.859 213.421 136.565 213.837 136.32C214.253 136.075 214.728 135.952 215.261 135.952C216.104 135.952 216.717 136.224 217.101 136.768C217.485 137.312 217.677 138.08 217.677 139.072V144H215.837V139.312C215.837 138.661 215.741 138.203 215.549 137.936C215.357 137.669 215.043 137.536 214.605 137.536C214.264 137.536 213.96 137.621 213.693 137.792C213.437 137.952 213.144 138.192 212.813 138.512V144H210.973ZM222.118 144.192C221.585 144.192 221.052 144.091 220.518 143.888C219.985 143.675 219.526 143.413 219.142 143.104L220.006 141.92C220.358 142.187 220.71 142.4 221.062 142.56C221.414 142.72 221.788 142.8 222.182 142.8C222.609 142.8 222.924 142.709 223.126 142.528C223.329 142.347 223.43 142.123 223.43 141.856C223.43 141.632 223.345 141.451 223.174 141.312C223.014 141.163 222.806 141.035 222.55 140.928C222.294 140.811 222.028 140.699 221.75 140.592C221.409 140.464 221.068 140.309 220.726 140.128C220.396 139.936 220.124 139.696 219.91 139.408C219.697 139.109 219.59 138.741 219.59 138.304C219.59 137.611 219.846 137.045 220.358 136.608C220.87 136.171 221.564 135.952 222.438 135.952C222.993 135.952 223.489 136.048 223.926 136.24C224.364 136.432 224.742 136.651 225.062 136.896L224.214 138.016C223.937 137.813 223.654 137.653 223.366 137.536C223.089 137.408 222.796 137.344 222.486 137.344C222.092 137.344 221.798 137.429 221.606 137.6C221.414 137.76 221.318 137.963 221.318 138.208C221.318 138.517 221.478 138.752 221.798 138.912C222.118 139.072 222.492 139.227 222.918 139.376C223.281 139.504 223.633 139.664 223.974 139.856C224.316 140.037 224.598 140.277 224.822 140.576C225.057 140.875 225.174 141.269 225.174 141.76C225.174 142.432 224.913 143.008 224.39 143.488C223.868 143.957 223.11 144.192 222.118 144.192Z" fill="white"/>
<rect x="331.694" y="107" width="196.612" height="116" rx="23" fill="#A6B6D9"/>
<rect x="331.694" y="107" width="196.612" height="116" rx="23" fill="url(#paint7_linear_2676_18089)"/>
<rect x="332.194" y="107.5" width="195.612" height="115" rx="22.5" stroke="white" stroke-opacity="0.3"/>
<path d="M352.331 138.432L351.963 139.712H354.635L354.267 138.432C354.097 137.877 353.931 137.307 353.771 136.72C353.622 136.133 353.473 135.552 353.323 134.976H353.259C353.121 135.563 352.971 136.149 352.811 136.736C352.662 137.312 352.502 137.877 352.331 138.432ZM348.827 144L352.235 133.536H354.411L357.819 144H355.867L355.051 141.168H351.531L350.715 144H348.827ZM359.109 144V133.536H362.405C363.184 133.536 363.877 133.637 364.485 133.84C365.093 134.043 365.573 134.379 365.925 134.848C366.277 135.317 366.453 135.957 366.453 136.768C366.453 137.536 366.277 138.171 365.925 138.672C365.573 139.173 365.099 139.547 364.501 139.792C363.904 140.037 363.227 140.16 362.469 140.16H360.965V144H359.109ZM360.965 138.672H362.325C363.861 138.672 364.629 138.037 364.629 136.768C364.629 136.107 364.427 135.653 364.021 135.408C363.627 135.152 363.04 135.024 362.261 135.024H360.965V138.672ZM368.422 144V133.536H370.278V144H368.422ZM374.969 144.192C374.436 144.192 373.903 144.091 373.369 143.888C372.836 143.675 372.377 143.413 371.993 143.104L372.857 141.92C373.209 142.187 373.561 142.4 373.913 142.56C374.265 142.72 374.639 142.8 375.033 142.8C375.46 142.8 375.775 142.709 375.977 142.528C376.18 142.347 376.281 142.123 376.281 141.856C376.281 141.632 376.196 141.451 376.025 141.312C375.865 141.163 375.657 141.035 375.401 140.928C375.145 140.811 374.879 140.699 374.601 140.592C374.26 140.464 373.919 140.309 373.577 140.128C373.247 139.936 372.975 139.696 372.761 139.408C372.548 139.109 372.441 138.741 372.441 138.304C372.441 137.611 372.697 137.045 373.209 136.608C373.721 136.171 374.415 135.952 375.289 135.952C375.844 135.952 376.34 136.048 376.777 136.24C377.215 136.432 377.593 136.651 377.913 136.896L377.065 138.016C376.788 137.813 376.505 137.653 376.217 137.536C375.94 137.408 375.647 137.344 375.337 137.344C374.943 137.344 374.649 137.429 374.457 137.6C374.265 137.76 374.169 137.963 374.169 138.208C374.169 138.517 374.329 138.752 374.649 138.912C374.969 139.072 375.343 139.227 375.769 139.376C376.132 139.504 376.484 139.664 376.825 139.856C377.167 140.037 377.449 140.277 377.673 140.576C377.908 140.875 378.025 141.269 378.025 141.76C378.025 142.432 377.764 143.008 377.241 143.488C376.719 143.957 375.961 144.192 374.969 144.192Z" fill="white"/>
<g filter="url(#filter1_f_2676_18089)">
<path d="M127 182H734V200C734 212.703 723.703 223 711 223H153C138.641 223 127 211.359 127 197V182Z" fill="url(#paint8_linear_2676_18089)" fill-opacity="0.54"/>
</g>
<rect x="435" y="234" width="300" height="116" rx="23" fill="#210E30"/>
<rect x="435" y="234" width="300" height="116" rx="23" fill="url(#paint9_linear_2676_18089)"/>
<rect x="435" y="234" width="300" height="116" rx="23" fill="url(#paint10_linear_2676_18089)" fill-opacity="0.24"/>
<rect x="435.5" y="234.5" width="299" height="115" rx="22.5" stroke="white" stroke-opacity="0.3"/>
<g filter="url(#filter2_f_2676_18089)">
<rect x="435" y="234" width="300" height="116" rx="23" fill="url(#paint11_linear_2676_18089)"/>
<rect x="435.5" y="234.5" width="299" height="115" rx="22.5" stroke="white" stroke-opacity="0.3"/>
</g>
<path d="M466.052 325V316.104H463.028V314.536H470.932V316.104H467.908V325H466.052ZM474.59 325.192C473.939 325.192 473.331 325.032 472.766 324.712C472.201 324.381 471.742 323.912 471.39 323.304C471.038 322.685 470.862 321.944 470.862 321.08C470.862 320.205 471.038 319.464 471.39 318.856C471.742 318.237 472.201 317.768 472.766 317.448C473.331 317.117 473.939 316.952 474.59 316.952C475.251 316.952 475.865 317.117 476.43 317.448C476.995 317.768 477.454 318.237 477.806 318.856C478.158 319.464 478.334 320.205 478.334 321.08C478.334 321.944 478.158 322.685 477.806 323.304C477.454 323.912 476.995 324.381 476.43 324.712C475.865 325.032 475.251 325.192 474.59 325.192ZM474.59 323.688C475.166 323.688 475.619 323.448 475.95 322.968C476.281 322.488 476.446 321.859 476.446 321.08C476.446 320.291 476.281 319.656 475.95 319.176C475.619 318.696 475.166 318.456 474.59 318.456C474.014 318.456 473.561 318.696 473.23 319.176C472.91 319.656 472.75 320.291 472.75 321.08C472.75 321.859 472.91 322.488 473.23 322.968C473.561 323.448 474.014 323.688 474.59 323.688ZM483.371 325.192C482.721 325.192 482.113 325.032 481.547 324.712C480.982 324.381 480.523 323.912 480.171 323.304C479.819 322.685 479.643 321.944 479.643 321.08C479.643 320.205 479.819 319.464 480.171 318.856C480.523 318.237 480.982 317.768 481.547 317.448C482.113 317.117 482.721 316.952 483.371 316.952C484.033 316.952 484.646 317.117 485.211 317.448C485.777 317.768 486.235 318.237 486.587 318.856C486.939 319.464 487.115 320.205 487.115 321.08C487.115 321.944 486.939 322.685 486.587 323.304C486.235 323.912 485.777 324.381 485.211 324.712C484.646 325.032 484.033 325.192 483.371 325.192ZM483.371 323.688C483.947 323.688 484.401 323.448 484.731 322.968C485.062 322.488 485.227 321.859 485.227 321.08C485.227 320.291 485.062 319.656 484.731 319.176C484.401 318.696 483.947 318.456 483.371 318.456C482.795 318.456 482.342 318.696 482.011 319.176C481.691 319.656 481.531 320.291 481.531 321.08C481.531 321.859 481.691 322.488 482.011 322.968C482.342 323.448 482.795 323.688 483.371 323.688ZM490.729 325.192C490.078 325.192 489.614 324.995 489.337 324.6C489.07 324.205 488.937 323.667 488.937 322.984V313.704H490.777V323.08C490.777 323.304 490.819 323.464 490.905 323.56C490.99 323.645 491.081 323.688 491.177 323.688C491.219 323.688 491.257 323.688 491.289 323.688C491.331 323.677 491.39 323.667 491.465 323.656L491.705 325.032C491.598 325.075 491.459 325.112 491.289 325.144C491.129 325.176 490.942 325.192 490.729 325.192ZM495.472 325.192C494.939 325.192 494.406 325.091 493.872 324.888C493.339 324.675 492.88 324.413 492.496 324.104L493.36 322.92C493.712 323.187 494.064 323.4 494.416 323.56C494.768 323.72 495.142 323.8 495.536 323.8C495.963 323.8 496.278 323.709 496.48 323.528C496.683 323.347 496.784 323.123 496.784 322.856C496.784 322.632 496.699 322.451 496.528 322.312C496.368 322.163 496.16 322.035 495.904 321.928C495.648 321.811 495.382 321.699 495.104 321.592C494.763 321.464 494.422 321.309 494.08 321.128C493.75 320.936 493.478 320.696 493.264 320.408C493.051 320.109 492.944 319.741 492.944 319.304C492.944 318.611 493.2 318.045 493.712 317.608C494.224 317.171 494.918 316.952 495.792 316.952C496.347 316.952 496.843 317.048 497.28 317.24C497.718 317.432 498.096 317.651 498.416 317.896L497.568 319.016C497.291 318.813 497.008 318.653 496.72 318.536C496.443 318.408 496.15 318.344 495.84 318.344C495.446 318.344 495.152 318.429 494.96 318.6C494.768 318.76 494.672 318.963 494.672 319.208C494.672 319.517 494.832 319.752 495.152 319.912C495.472 320.072 495.846 320.227 496.272 320.376C496.635 320.504 496.987 320.664 497.328 320.856C497.67 321.037 497.952 321.277 498.176 321.576C498.411 321.875 498.528 322.269 498.528 322.76C498.528 323.432 498.267 324.008 497.744 324.488C497.222 324.957 496.464 325.192 495.472 325.192ZM505.518 316.936C505.518 317.171 505.555 317.416 505.63 317.672C505.705 317.928 505.806 318.195 505.934 318.472C506.371 318.195 506.739 317.912 507.038 317.624C507.337 317.336 507.486 316.989 507.486 316.584C507.486 316.307 507.422 316.072 507.294 315.88C507.166 315.688 506.947 315.592 506.638 315.592C506.307 315.592 506.035 315.715 505.822 315.96C505.619 316.205 505.518 316.531 505.518 316.936ZM505.998 325.192C505.305 325.192 504.707 325.064 504.206 324.808C503.705 324.541 503.321 324.189 503.054 323.752C502.787 323.304 502.654 322.803 502.654 322.248C502.654 321.768 502.745 321.347 502.926 320.984C503.118 320.621 503.363 320.301 503.662 320.024C503.971 319.747 504.302 319.491 504.654 319.256C504.441 318.851 504.275 318.456 504.158 318.072C504.041 317.688 503.982 317.315 503.982 316.952C503.982 316.472 504.089 316.035 504.302 315.64C504.526 315.245 504.835 314.931 505.23 314.696C505.625 314.461 506.089 314.344 506.622 314.344C507.337 314.344 507.897 314.552 508.302 314.968C508.718 315.373 508.926 315.907 508.926 316.568C508.926 317.027 508.814 317.437 508.59 317.8C508.377 318.152 508.094 318.477 507.742 318.776C507.401 319.064 507.038 319.341 506.654 319.608C506.974 320.035 507.337 320.456 507.742 320.872C508.158 321.288 508.59 321.667 509.038 322.008C509.326 321.624 509.582 321.203 509.806 320.744C510.041 320.275 510.227 319.768 510.366 319.224H512.062C511.87 319.875 511.625 320.509 511.326 321.128C511.027 321.736 510.675 322.312 510.27 322.856C510.611 323.059 510.942 323.235 511.262 323.384C511.582 323.533 511.881 323.635 512.158 323.688L511.694 325.192C511.299 325.096 510.883 324.957 510.446 324.776C510.019 324.584 509.587 324.349 509.15 324.072C508.734 324.413 508.265 324.685 507.742 324.888C507.219 325.091 506.638 325.192 505.998 325.192ZM504.414 322.136C504.414 322.627 504.585 323.021 504.926 323.32C505.267 323.619 505.699 323.768 506.222 323.768C506.51 323.768 506.793 323.715 507.07 323.608C507.358 323.491 507.635 323.336 507.902 323.144C507.443 322.749 507.001 322.328 506.574 321.88C506.147 321.432 505.763 320.973 505.422 320.504C505.123 320.739 504.878 320.989 504.686 321.256C504.505 321.523 504.414 321.816 504.414 322.136ZM518.092 325L516.012 317.144H517.868L518.812 321.224C518.897 321.597 518.967 321.971 519.02 322.344C519.084 322.717 519.153 323.096 519.228 323.48H519.292C519.367 323.096 519.441 322.717 519.516 322.344C519.601 321.96 519.692 321.587 519.788 321.224L520.812 317.144H522.492L523.532 321.224C523.628 321.597 523.719 321.971 523.804 322.344C523.889 322.717 523.975 323.096 524.06 323.48H524.124C524.199 323.096 524.268 322.717 524.332 322.344C524.396 321.971 524.465 321.597 524.54 321.224L525.484 317.144H527.212L525.212 325H523.02L522.108 321.336C522.023 320.963 521.943 320.595 521.868 320.232C521.793 319.859 521.713 319.464 521.628 319.048H521.564C521.489 319.464 521.415 319.859 521.34 320.232C521.265 320.605 521.185 320.979 521.1 321.352L520.204 325H518.092ZM531.887 325.192C531.236 325.192 530.628 325.032 530.063 324.712C529.498 324.381 529.039 323.912 528.687 323.304C528.335 322.685 528.159 321.944 528.159 321.08C528.159 320.205 528.335 319.464 528.687 318.856C529.039 318.237 529.498 317.768 530.063 317.448C530.628 317.117 531.236 316.952 531.887 316.952C532.548 316.952 533.162 317.117 533.727 317.448C534.292 317.768 534.751 318.237 535.103 318.856C535.455 319.464 535.631 320.205 535.631 321.08C535.631 321.944 535.455 322.685 535.103 323.304C534.751 323.912 534.292 324.381 533.727 324.712C533.162 325.032 532.548 325.192 531.887 325.192ZM531.887 323.688C532.463 323.688 532.916 323.448 533.247 322.968C533.578 322.488 533.743 321.859 533.743 321.08C533.743 320.291 533.578 319.656 533.247 319.176C532.916 318.696 532.463 318.456 531.887 318.456C531.311 318.456 530.858 318.696 530.527 319.176C530.207 319.656 530.047 320.291 530.047 321.08C530.047 321.859 530.207 322.488 530.527 322.968C530.858 323.448 531.311 323.688 531.887 323.688ZM537.452 325V317.144H538.972L539.1 318.536H539.164C539.442 318.024 539.778 317.635 540.172 317.368C540.567 317.091 540.972 316.952 541.388 316.952C541.762 316.952 542.06 317.005 542.284 317.112L541.964 318.712C541.826 318.669 541.698 318.637 541.58 318.616C541.463 318.595 541.319 318.584 541.148 318.584C540.839 318.584 540.514 318.707 540.172 318.952C539.831 319.187 539.538 319.603 539.292 320.2V325H537.452ZM543.421 325V313.704H545.229V320.76H545.277L548.189 317.144H550.205L547.517 320.344L550.477 325H548.477L546.461 321.592L545.229 323V325H543.421ZM552.1 325V318.6H551.044V317.224L552.1 317.144V316.328C552.1 315.507 552.303 314.835 552.708 314.312C553.114 313.779 553.78 313.512 554.708 313.512C554.986 313.512 555.252 313.539 555.508 313.592C555.764 313.645 555.978 313.709 556.148 313.784L555.796 315.16C555.508 315.032 555.22 314.968 554.932 314.968C554.271 314.968 553.94 315.411 553.94 316.296V317.144H555.476V318.6H553.94V325H552.1ZM558.65 325.192C558 325.192 557.536 324.995 557.258 324.6C556.992 324.205 556.858 323.667 556.858 322.984V313.704H558.698V323.08C558.698 323.304 558.741 323.464 558.826 323.56C558.912 323.645 559.002 323.688 559.098 323.688C559.141 323.688 559.178 323.688 559.21 323.688C559.253 323.677 559.312 323.667 559.386 323.656L559.626 325.032C559.52 325.075 559.381 325.112 559.21 325.144C559.05 325.176 558.864 325.192 558.65 325.192ZM564.418 325.192C563.768 325.192 563.16 325.032 562.594 324.712C562.029 324.381 561.57 323.912 561.218 323.304C560.866 322.685 560.69 321.944 560.69 321.08C560.69 320.205 560.866 319.464 561.218 318.856C561.57 318.237 562.029 317.768 562.594 317.448C563.16 317.117 563.768 316.952 564.418 316.952C565.08 316.952 565.693 317.117 566.258 317.448C566.824 317.768 567.282 318.237 567.634 318.856C567.986 319.464 568.162 320.205 568.162 321.08C568.162 321.944 567.986 322.685 567.634 323.304C567.282 323.912 566.824 324.381 566.258 324.712C565.693 325.032 565.08 325.192 564.418 325.192ZM564.418 323.688C564.994 323.688 565.448 323.448 565.778 322.968C566.109 322.488 566.274 321.859 566.274 321.08C566.274 320.291 566.109 319.656 565.778 319.176C565.448 318.696 564.994 318.456 564.418 318.456C563.842 318.456 563.389 318.696 563.058 319.176C562.738 319.656 562.578 320.291 562.578 321.08C562.578 321.859 562.738 322.488 563.058 322.968C563.389 323.448 563.842 323.688 564.418 323.688ZM571.186 325L569.106 317.144H570.962L571.906 321.224C571.991 321.597 572.06 321.971 572.114 322.344C572.178 322.717 572.247 323.096 572.322 323.48H572.386C572.46 323.096 572.535 322.717 572.61 322.344C572.695 321.96 572.786 321.587 572.882 321.224L573.906 317.144H575.586L576.626 321.224C576.722 321.597 576.812 321.971 576.898 322.344C576.983 322.717 577.068 323.096 577.154 323.48H577.218C577.292 323.096 577.362 322.717 577.426 322.344C577.49 321.971 577.559 321.597 577.634 321.224L578.578 317.144H580.306L578.306 325H576.114L575.202 321.336C575.116 320.963 575.036 320.595 574.962 320.232C574.887 319.859 574.807 319.464 574.722 319.048H574.658C574.583 319.464 574.508 319.859 574.434 320.232C574.359 320.605 574.279 320.979 574.194 321.352L573.298 325H571.186ZM584.05 325.192C583.517 325.192 582.984 325.091 582.45 324.888C581.917 324.675 581.458 324.413 581.074 324.104L581.938 322.92C582.29 323.187 582.642 323.4 582.994 323.56C583.346 323.72 583.72 323.8 584.114 323.8C584.541 323.8 584.856 323.709 585.058 323.528C585.261 323.347 585.362 323.123 585.362 322.856C585.362 322.632 585.277 322.451 585.106 322.312C584.946 322.163 584.738 322.035 584.482 321.928C584.226 321.811 583.96 321.699 583.682 321.592C583.341 321.464 583 321.309 582.658 321.128C582.328 320.936 582.056 320.696 581.842 320.408C581.629 320.109 581.522 319.741 581.522 319.304C581.522 318.611 581.778 318.045 582.29 317.608C582.802 317.171 583.496 316.952 584.37 316.952C584.925 316.952 585.421 317.048 585.858 317.24C586.296 317.432 586.674 317.651 586.994 317.896L586.146 319.016C585.869 318.813 585.586 318.653 585.298 318.536C585.021 318.408 584.728 318.344 584.418 318.344C584.024 318.344 583.73 318.429 583.538 318.6C583.346 318.76 583.25 318.963 583.25 319.208C583.25 319.517 583.41 319.752 583.73 319.912C584.05 320.072 584.424 320.227 584.85 320.376C585.213 320.504 585.565 320.664 585.906 320.856C586.248 321.037 586.53 321.277 586.754 321.576C586.989 321.875 587.106 322.269 587.106 322.76C587.106 323.432 586.845 324.008 586.322 324.488C585.8 324.957 585.042 325.192 584.05 325.192Z" fill="white"/>
<rect x="538.389" y="107" width="196.612" height="116" rx="23" fill="#A6B6D9"/>
<rect x="538.389" y="107" width="196.612" height="116" rx="23" fill="url(#paint12_linear_2676_18089)"/>
<rect x="538.889" y="107.5" width="195.612" height="115" rx="22.5" stroke="white" stroke-opacity="0.3"/>
<path d="M560.915 144V133.536H562.771V142.432H567.123V144H560.915ZM570.69 144.192C570.007 144.192 569.447 143.979 569.01 143.552C568.583 143.125 568.37 142.571 568.37 141.888C568.37 141.045 568.738 140.395 569.474 139.936C570.21 139.467 571.383 139.147 572.994 138.976C572.983 138.56 572.871 138.203 572.658 137.904C572.455 137.595 572.087 137.44 571.554 137.44C571.17 137.44 570.791 137.515 570.418 137.664C570.055 137.813 569.698 137.995 569.346 138.208L568.674 136.976C569.111 136.699 569.602 136.459 570.146 136.256C570.701 136.053 571.287 135.952 571.906 135.952C572.887 135.952 573.618 136.245 574.098 136.832C574.589 137.408 574.834 138.245 574.834 139.344V144H573.314L573.186 143.136H573.122C572.77 143.435 572.391 143.685 571.986 143.888C571.591 144.091 571.159 144.192 570.69 144.192ZM571.282 142.752C571.602 142.752 571.89 142.677 572.146 142.528C572.413 142.368 572.695 142.155 572.994 141.888V140.128C571.927 140.267 571.186 140.475 570.77 140.752C570.354 141.019 570.146 141.349 570.146 141.744C570.146 142.096 570.253 142.352 570.466 142.512C570.679 142.672 570.951 142.752 571.282 142.752ZM577.036 144V136.144H578.556L578.684 137.2H578.748C579.1 136.859 579.484 136.565 579.9 136.32C580.316 136.075 580.791 135.952 581.324 135.952C582.167 135.952 582.78 136.224 583.164 136.768C583.548 137.312 583.74 138.08 583.74 139.072V144H581.9V139.312C581.9 138.661 581.804 138.203 581.612 137.936C581.42 137.669 581.105 137.536 580.668 137.536C580.327 137.536 580.023 137.621 579.756 137.792C579.5 137.952 579.207 138.192 578.876 138.512V144H577.036ZM588.725 147.472C588.107 147.472 587.547 147.397 587.045 147.248C586.555 147.099 586.165 146.869 585.877 146.56C585.6 146.261 585.461 145.883 585.461 145.424C585.461 144.773 585.835 144.213 586.581 143.744V143.68C586.379 143.552 586.208 143.381 586.069 143.168C585.941 142.955 585.877 142.688 585.877 142.368C585.877 142.059 585.963 141.781 586.133 141.536C586.315 141.28 586.517 141.072 586.741 140.912V140.848C586.475 140.645 586.235 140.363 586.021 140C585.819 139.637 585.717 139.227 585.717 138.768C585.717 138.16 585.861 137.648 586.149 137.232C586.437 136.816 586.816 136.501 587.285 136.288C587.765 136.064 588.277 135.952 588.821 135.952C589.035 135.952 589.237 135.973 589.429 136.016C589.632 136.048 589.813 136.091 589.973 136.144H592.789V137.504H591.349C591.477 137.653 591.584 137.845 591.669 138.08C591.755 138.304 591.797 138.555 591.797 138.832C591.797 139.408 591.664 139.899 591.397 140.304C591.131 140.699 590.773 140.997 590.325 141.2C589.877 141.403 589.376 141.504 588.821 141.504C588.651 141.504 588.475 141.488 588.293 141.456C588.112 141.424 587.931 141.371 587.749 141.296C587.632 141.403 587.536 141.509 587.461 141.616C587.397 141.723 587.365 141.867 587.365 142.048C587.365 142.272 587.456 142.448 587.637 142.576C587.829 142.704 588.165 142.768 588.645 142.768H590.037C590.987 142.768 591.701 142.923 592.181 143.232C592.672 143.531 592.917 144.021 592.917 144.704C592.917 145.216 592.747 145.68 592.405 146.096C592.064 146.523 591.579 146.859 590.949 147.104C590.32 147.349 589.579 147.472 588.725 147.472ZM588.821 140.352C589.195 140.352 589.515 140.213 589.781 139.936C590.048 139.659 590.181 139.269 590.181 138.768C590.181 138.277 590.048 137.899 589.781 137.632C589.525 137.355 589.205 137.216 588.821 137.216C588.437 137.216 588.112 137.349 587.845 137.616C587.579 137.883 587.445 138.267 587.445 138.768C587.445 139.269 587.579 139.659 587.845 139.936C588.112 140.213 588.437 140.352 588.821 140.352ZM589.013 146.272C589.643 146.272 590.155 146.144 590.549 145.888C590.944 145.632 591.141 145.339 591.141 145.008C591.141 144.699 591.019 144.491 590.773 144.384C590.539 144.277 590.197 144.224 589.749 144.224H588.677C588.251 144.224 587.893 144.187 587.605 144.112C587.2 144.421 586.997 144.768 586.997 145.152C586.997 145.504 587.179 145.776 587.541 145.968C587.904 146.171 588.395 146.272 589.013 146.272ZM596.638 144.192C595.795 144.192 595.182 143.92 594.798 143.376C594.414 142.832 594.222 142.064 594.222 141.072V136.144H596.062V140.832C596.062 141.483 596.158 141.941 596.35 142.208C596.542 142.475 596.851 142.608 597.278 142.608C597.619 142.608 597.918 142.523 598.174 142.352C598.44 142.181 598.723 141.904 599.022 141.52V136.144H600.862V144H599.358L599.214 142.848H599.166C598.824 143.253 598.451 143.579 598.046 143.824C597.64 144.069 597.171 144.192 596.638 144.192ZM605.096 144.192C604.414 144.192 603.854 143.979 603.416 143.552C602.99 143.125 602.776 142.571 602.776 141.888C602.776 141.045 603.144 140.395 603.88 139.936C604.616 139.467 605.79 139.147 607.4 138.976C607.39 138.56 607.278 138.203 607.064 137.904C606.862 137.595 606.494 137.44 605.96 137.44C605.576 137.44 605.198 137.515 604.824 137.664C604.462 137.813 604.104 137.995 603.752 138.208L603.08 136.976C603.518 136.699 604.008 136.459 604.552 136.256C605.107 136.053 605.694 135.952 606.312 135.952C607.294 135.952 608.024 136.245 608.504 136.832C608.995 137.408 609.24 138.245 609.24 139.344V144H607.72L607.592 143.136H607.528C607.176 143.435 606.798 143.685 606.392 143.888C605.998 144.091 605.566 144.192 605.096 144.192ZM605.688 142.752C606.008 142.752 606.296 142.677 606.552 142.528C606.819 142.368 607.102 142.155 607.4 141.888V140.128C606.334 140.267 605.592 140.475 605.176 140.752C604.76 141.019 604.552 141.349 604.552 141.744C604.552 142.096 604.659 142.352 604.872 142.512C605.086 142.672 605.358 142.752 605.688 142.752ZM614.178 147.472C613.56 147.472 613 147.397 612.498 147.248C612.008 147.099 611.618 146.869 611.33 146.56C611.053 146.261 610.914 145.883 610.914 145.424C610.914 144.773 611.288 144.213 612.034 143.744V143.68C611.832 143.552 611.661 143.381 611.522 143.168C611.394 142.955 611.33 142.688 611.33 142.368C611.33 142.059 611.416 141.781 611.586 141.536C611.768 141.28 611.97 141.072 612.194 140.912V140.848C611.928 140.645 611.688 140.363 611.474 140C611.272 139.637 611.17 139.227 611.17 138.768C611.17 138.16 611.314 137.648 611.602 137.232C611.89 136.816 612.269 136.501 612.738 136.288C613.218 136.064 613.73 135.952 614.274 135.952C614.488 135.952 614.69 135.973 614.882 136.016C615.085 136.048 615.266 136.091 615.426 136.144H618.242V137.504H616.802C616.93 137.653 617.037 137.845 617.122 138.08C617.208 138.304 617.25 138.555 617.25 138.832C617.25 139.408 617.117 139.899 616.85 140.304C616.584 140.699 616.226 140.997 615.778 141.2C615.33 141.403 614.829 141.504 614.274 141.504C614.104 141.504 613.928 141.488 613.746 141.456C613.565 141.424 613.384 141.371 613.202 141.296C613.085 141.403 612.989 141.509 612.914 141.616C612.85 141.723 612.818 141.867 612.818 142.048C612.818 142.272 612.909 142.448 613.09 142.576C613.282 142.704 613.618 142.768 614.098 142.768H615.49C616.44 142.768 617.154 142.923 617.634 143.232C618.125 143.531 618.37 144.021 618.37 144.704C618.37 145.216 618.2 145.68 617.858 146.096C617.517 146.523 617.032 146.859 616.402 147.104C615.773 147.349 615.032 147.472 614.178 147.472ZM614.274 140.352C614.648 140.352 614.968 140.213 615.234 139.936C615.501 139.659 615.634 139.269 615.634 138.768C615.634 138.277 615.501 137.899 615.234 137.632C614.978 137.355 614.658 137.216 614.274 137.216C613.89 137.216 613.565 137.349 613.298 137.616C613.032 137.883 612.898 138.267 612.898 138.768C612.898 139.269 613.032 139.659 613.298 139.936C613.565 140.213 613.89 140.352 614.274 140.352ZM614.466 146.272C615.096 146.272 615.608 146.144 616.002 145.888C616.397 145.632 616.594 145.339 616.594 145.008C616.594 144.699 616.472 144.491 616.226 144.384C615.992 144.277 615.65 144.224 615.202 144.224H614.13C613.704 144.224 613.346 144.187 613.058 144.112C612.653 144.421 612.45 144.768 612.45 145.152C612.45 145.504 612.632 145.776 612.994 145.968C613.357 146.171 613.848 146.272 614.466 146.272ZM622.865 144.192C622.14 144.192 621.484 144.032 620.897 143.712C620.31 143.381 619.846 142.912 619.505 142.304C619.164 141.685 618.993 140.944 618.993 140.08C618.993 139.227 619.164 138.491 619.505 137.872C619.857 137.253 620.31 136.779 620.865 136.448C621.42 136.117 622.001 135.952 622.609 135.952C623.324 135.952 623.921 136.112 624.401 136.432C624.881 136.741 625.244 137.179 625.489 137.744C625.734 138.299 625.857 138.944 625.857 139.68C625.857 140.064 625.83 140.363 625.777 140.576H620.785C620.87 141.269 621.121 141.808 621.537 142.192C621.953 142.576 622.476 142.768 623.105 142.768C623.446 142.768 623.761 142.72 624.049 142.624C624.348 142.517 624.641 142.373 624.929 142.192L625.553 143.344C625.18 143.589 624.764 143.792 624.305 143.952C623.846 144.112 623.366 144.192 622.865 144.192ZM620.769 139.328H624.257C624.257 138.72 624.124 138.245 623.857 137.904C623.59 137.552 623.19 137.376 622.657 137.376C622.198 137.376 621.788 137.547 621.425 137.888C621.073 138.219 620.854 138.699 620.769 139.328ZM630.817 144V136.144H632.337L632.465 137.216H632.529C632.86 136.864 633.217 136.565 633.601 136.32C633.996 136.075 634.439 135.952 634.929 135.952C635.505 135.952 635.964 136.08 636.305 136.336C636.657 136.581 636.924 136.923 637.105 137.36C637.479 136.955 637.868 136.619 638.273 136.352C638.689 136.085 639.143 135.952 639.633 135.952C640.465 135.952 641.079 136.224 641.473 136.768C641.868 137.312 642.065 138.08 642.065 139.072V144H640.209V139.312C640.209 138.661 640.108 138.203 639.905 137.936C639.713 137.669 639.415 137.536 639.009 137.536C638.519 137.536 637.969 137.861 637.361 138.512V144H635.521V139.312C635.521 138.661 635.42 138.203 635.217 137.936C635.025 137.669 634.721 137.536 634.305 137.536C633.815 137.536 633.265 137.861 632.657 138.512V144H630.817ZM647.518 144.192C646.867 144.192 646.259 144.032 645.694 143.712C645.128 143.381 644.67 142.912 644.318 142.304C643.966 141.685 643.79 140.944 643.79 140.08C643.79 139.205 643.966 138.464 644.318 137.856C644.67 137.237 645.128 136.768 645.694 136.448C646.259 136.117 646.867 135.952 647.518 135.952C648.179 135.952 648.792 136.117 649.358 136.448C649.923 136.768 650.382 137.237 650.734 137.856C651.086 138.464 651.262 139.205 651.262 140.08C651.262 140.944 651.086 141.685 650.734 142.304C650.382 142.912 649.923 143.381 649.358 143.712C648.792 144.032 648.179 144.192 647.518 144.192ZM647.518 142.688C648.094 142.688 648.547 142.448 648.878 141.968C649.208 141.488 649.374 140.859 649.374 140.08C649.374 139.291 649.208 138.656 648.878 138.176C648.547 137.696 648.094 137.456 647.518 137.456C646.942 137.456 646.488 137.696 646.158 138.176C645.838 138.656 645.678 139.291 645.678 140.08C645.678 140.859 645.838 141.488 646.158 141.968C646.488 142.448 646.942 142.688 647.518 142.688ZM655.835 144.192C654.854 144.192 654.07 143.829 653.483 143.104C652.896 142.379 652.603 141.371 652.603 140.08C652.603 139.227 652.758 138.491 653.067 137.872C653.387 137.253 653.803 136.779 654.315 136.448C654.827 136.117 655.366 135.952 655.931 135.952C656.379 135.952 656.758 136.032 657.067 136.192C657.387 136.341 657.696 136.549 657.995 136.816L657.931 135.552V132.704H659.771V144H658.251L658.123 143.152H658.059C657.771 143.44 657.435 143.685 657.051 143.888C656.667 144.091 656.262 144.192 655.835 144.192ZM656.283 142.672C656.87 142.672 657.419 142.379 657.931 141.792V138.128C657.664 137.883 657.398 137.712 657.131 137.616C656.864 137.52 656.598 137.472 656.331 137.472C655.83 137.472 655.398 137.701 655.035 138.16C654.683 138.608 654.507 139.243 654.507 140.064C654.507 140.907 654.662 141.552 654.971 142C655.28 142.448 655.718 142.672 656.283 142.672ZM665.474 144.192C664.749 144.192 664.093 144.032 663.506 143.712C662.92 143.381 662.456 142.912 662.114 142.304C661.773 141.685 661.602 140.944 661.602 140.08C661.602 139.227 661.773 138.491 662.114 137.872C662.466 137.253 662.92 136.779 663.474 136.448C664.029 136.117 664.61 135.952 665.218 135.952C665.933 135.952 666.53 136.112 667.01 136.432C667.49 136.741 667.853 137.179 668.098 137.744C668.344 138.299 668.466 138.944 668.466 139.68C668.466 140.064 668.44 140.363 668.386 140.576H663.394C663.48 141.269 663.73 141.808 664.146 142.192C664.562 142.576 665.085 142.768 665.714 142.768C666.056 142.768 666.37 142.72 666.658 142.624C666.957 142.517 667.25 142.373 667.538 142.192L668.162 143.344C667.789 143.589 667.373 143.792 666.914 143.952C666.456 144.112 665.976 144.192 665.474 144.192ZM663.378 139.328H666.866C666.866 138.72 666.733 138.245 666.466 137.904C666.2 137.552 665.8 137.376 665.266 137.376C664.808 137.376 664.397 137.547 664.034 137.888C663.682 138.219 663.464 138.699 663.378 139.328ZM672.016 144.192C671.365 144.192 670.901 143.995 670.624 143.6C670.357 143.205 670.224 142.667 670.224 141.984V132.704H672.064V142.08C672.064 142.304 672.106 142.464 672.192 142.56C672.277 142.645 672.368 142.688 672.464 142.688C672.506 142.688 672.544 142.688 672.576 142.688C672.618 142.677 672.677 142.667 672.752 142.656L672.992 144.032C672.885 144.075 672.746 144.112 672.576 144.144C672.416 144.176 672.229 144.192 672.016 144.192Z" fill="white"/>
<g filter="url(#filter3_d_2676_18089)">
<rect x="206" y="180" width="214" height="86" rx="11" fill="url(#paint13_radial_2676_18089)" fill-opacity="0.9" shape-rendering="crispEdges"/>
<rect x="206.5" y="180.5" width="213" height="85" rx="10.5" stroke="url(#paint14_linear_2676_18089)" stroke-opacity="0.4" shape-rendering="crispEdges"/>
</g>
<path d="M295.552 231.082C293.974 231.082 292.541 230.707 291.253 229.958C289.964 229.209 288.935 228.114 288.165 226.673C287.415 225.213 287.04 223.446 287.04 221.371C287.04 219.316 287.425 217.558 288.194 216.098C288.983 214.619 290.031 213.495 291.339 212.727C292.647 211.939 294.09 211.545 295.667 211.545C296.86 211.545 297.918 211.785 298.841 212.266C299.764 212.746 300.524 213.303 301.121 213.937L299.332 216.098C298.851 215.599 298.312 215.205 297.716 214.917C297.139 214.609 296.485 214.456 295.754 214.456C294.734 214.456 293.821 214.734 293.013 215.291C292.224 215.829 291.599 216.607 291.137 217.625C290.695 218.643 290.474 219.863 290.474 221.285C290.474 223.436 290.945 225.127 291.887 226.356C292.83 227.567 294.09 228.172 295.667 228.172C296.514 228.172 297.264 227.999 297.918 227.653C298.572 227.288 299.168 226.817 299.707 226.241L301.496 228.345C300.726 229.228 299.841 229.91 298.841 230.39C297.86 230.851 296.764 231.082 295.552 231.082Z" fill="white"/>
<path d="M309.219 231.082C308.045 231.082 306.949 230.794 305.93 230.218C304.91 229.622 304.083 228.777 303.448 227.682C302.813 226.568 302.496 225.232 302.496 223.676C302.496 222.101 302.813 220.766 303.448 219.671C304.083 218.557 304.91 217.712 305.93 217.135C306.949 216.54 308.045 216.242 309.219 216.242C310.411 216.242 311.518 216.54 312.537 217.135C313.556 217.712 314.384 218.557 315.018 219.671C315.653 220.766 315.971 222.101 315.971 223.676C315.971 225.232 315.653 226.568 315.018 227.682C314.384 228.777 313.556 229.622 312.537 230.218C311.518 230.794 310.411 231.082 309.219 231.082ZM309.219 228.373C310.258 228.373 311.075 227.941 311.671 227.077C312.268 226.212 312.566 225.079 312.566 223.676C312.566 222.255 312.268 221.112 311.671 220.247C311.075 219.383 310.258 218.951 309.219 218.951C308.18 218.951 307.363 219.383 306.766 220.247C306.189 221.112 305.901 222.255 305.901 223.676C305.901 225.079 306.189 226.212 306.766 227.077C307.363 227.941 308.18 228.373 309.219 228.373Z" fill="white"/>
<path d="M323.352 231.082C321.582 231.082 320.169 230.429 319.111 229.123C318.053 227.816 317.524 226.001 317.524 223.676C317.524 222.14 317.803 220.814 318.36 219.7C318.938 218.586 319.688 217.731 320.611 217.135C321.534 216.54 322.506 216.242 323.525 216.242C324.333 216.242 325.016 216.386 325.574 216.674C326.151 216.943 326.709 217.318 327.247 217.798L327.132 215.522V210.393H330.45V230.736H327.709L327.478 229.209H327.363C326.843 229.728 326.237 230.169 325.545 230.534C324.852 230.899 324.122 231.082 323.352 231.082ZM324.16 228.345C325.218 228.345 326.209 227.816 327.132 226.76V220.161C326.651 219.719 326.17 219.412 325.689 219.239C325.208 219.066 324.727 218.98 324.247 218.98C323.342 218.98 322.563 219.393 321.909 220.219C321.275 221.025 320.957 222.168 320.957 223.648C320.957 225.165 321.236 226.327 321.794 227.134C322.352 227.941 323.14 228.345 324.16 228.345Z" fill="white"/>
<path d="M334.762 236.557C334.378 236.557 334.041 236.528 333.752 236.47C333.464 236.413 333.185 236.346 332.916 236.269L333.522 233.675C333.656 233.714 333.81 233.752 333.983 233.791C334.176 233.848 334.358 233.877 334.531 233.877C335.282 233.877 335.878 233.647 336.32 233.186C336.782 232.744 337.128 232.167 337.359 231.457L337.619 230.563L332.05 216.588H335.426L337.878 223.532C338.09 224.147 338.292 224.8 338.484 225.492C338.696 226.164 338.908 226.837 339.119 227.509H339.235C339.408 226.856 339.581 226.193 339.754 225.521C339.946 224.829 340.129 224.166 340.302 223.532L342.437 216.588H345.64L340.504 231.37C339.908 232.965 339.186 234.223 338.34 235.145C337.494 236.086 336.301 236.557 334.762 236.557Z" fill="white"/>
<path d="M356.296 220.708L355.632 223.014H360.451L359.787 220.708C359.479 219.71 359.181 218.682 358.893 217.625C358.623 216.569 358.354 215.522 358.085 214.484H357.969C357.719 215.541 357.45 216.597 357.162 217.654C356.892 218.691 356.604 219.71 356.296 220.708ZM349.977 230.736L356.123 211.891H360.047L366.193 230.736H362.673L361.201 225.636H354.853L353.382 230.736H349.977Z" fill="white"/>
<path d="M367.653 230.736V211.891H371V230.736H367.653Z" fill="white"/>
<path fill-rule="evenodd" clip-rule="evenodd" d="M272.786 211.564C273.972 211.564 274.934 212.586 274.934 213.847L274.934 219.045C274.934 220.305 273.972 221.327 272.786 221.327C271.6 221.327 270.638 220.305 270.638 219.045L270.638 213.847C270.638 212.586 271.6 211.564 272.786 211.564Z" fill="#FF5543"/>
<path fill-rule="evenodd" clip-rule="evenodd" d="M255.799 217.422C255.799 216.128 256.82 215.079 258.08 215.079H263.281C264.541 215.079 265.562 216.128 265.562 217.422C265.562 218.716 264.541 219.765 263.281 219.765H258.08C256.82 219.765 255.799 218.716 255.799 217.422Z" fill="#A112FF"/>
<path fill-rule="evenodd" clip-rule="evenodd" d="M258.378 225.728C257.61 224.745 256.173 224.55 255.159 225.293C254.14 226.039 253.935 227.449 254.7 228.442L256.544 227.091C254.7 228.442 254.7 228.443 254.701 228.444L254.702 228.446L254.705 228.45L254.712 228.459C254.718 228.466 254.724 228.473 254.731 228.482C254.745 228.5 254.762 228.521 254.783 228.547C254.825 228.598 254.882 228.666 254.953 228.747C255.095 228.908 255.295 229.125 255.554 229.379C256.07 229.885 256.826 230.543 257.823 231.198C259.824 232.513 262.813 233.824 266.734 233.824C270.655 233.824 273.643 232.513 275.644 231.198C276.641 230.543 277.398 229.885 277.914 229.379C278.172 229.125 278.373 228.908 278.514 228.747C278.585 228.666 278.642 228.598 278.684 228.547C278.705 228.521 278.723 228.5 278.737 228.482C278.744 228.473 278.75 228.466 278.755 228.459L278.762 228.45L278.765 228.446L278.766 228.444C278.767 228.443 278.768 228.442 276.924 227.091L278.768 228.442C279.533 227.449 279.327 226.039 278.309 225.293C277.295 224.55 275.857 224.745 275.09 225.728C275.088 225.73 275.086 225.733 275.083 225.737C275.071 225.751 275.047 225.78 275.01 225.821C274.937 225.905 274.815 226.038 274.645 226.205C274.303 226.54 273.776 227.002 273.067 227.467C271.658 228.393 269.551 229.325 266.734 229.325C263.916 229.325 261.809 228.393 260.4 227.467C259.692 227.002 259.164 226.54 258.822 226.205C258.652 226.038 258.53 225.905 258.457 225.821C258.42 225.78 258.396 225.751 258.385 225.737C258.381 225.733 258.379 225.73 258.378 225.728ZM275.083 225.737L275.082 225.737L275.082 225.738M275.091 225.727L275.091 225.727L275.091 225.727Z" fill="#00CBEC"/>
<g filter="url(#filter4_d_2676_18089)">
<rect x="438" y="180" width="214" height="86" rx="11" fill="url(#paint15_radial_2676_18089)" fill-opacity="0.9" shape-rendering="crispEdges"/>
<rect x="438.5" y="180.5" width="213" height="85" rx="10.5" stroke="url(#paint16_linear_2676_18089)" stroke-opacity="0.4" shape-rendering="crispEdges"/>
</g>
<path d="M500.77 232.933C499.306 232.933 497.976 232.585 496.779 231.888C495.583 231.192 494.627 230.174 493.913 228.834C493.216 227.477 492.868 225.834 492.868 223.906C492.868 221.995 493.225 220.361 493.94 219.004C494.672 217.629 495.645 216.584 496.859 215.869C498.074 215.137 499.413 214.771 500.878 214.771C501.985 214.771 502.967 214.994 503.824 215.441C504.681 215.887 505.387 216.405 505.94 216.995L504.279 219.004C503.833 218.539 503.333 218.173 502.779 217.905C502.244 217.62 501.636 217.477 500.958 217.477C500.011 217.477 499.163 217.736 498.413 218.254C497.681 218.754 497.101 219.477 496.672 220.423C496.261 221.37 496.056 222.504 496.056 223.825C496.056 225.825 496.493 227.397 497.368 228.54C498.243 229.665 499.413 230.227 500.878 230.227C501.663 230.227 502.36 230.067 502.967 229.745C503.574 229.406 504.128 228.968 504.628 228.433L506.288 230.388C505.574 231.21 504.753 231.844 503.824 232.29C502.913 232.719 501.895 232.933 500.77 232.933Z" fill="white"/>
<path d="M513.459 232.933C512.369 232.933 511.351 232.665 510.405 232.129C509.458 231.576 508.691 230.79 508.101 229.772C507.512 228.736 507.217 227.495 507.217 226.049C507.217 224.584 507.512 223.343 508.101 222.325C508.691 221.289 509.458 220.504 510.405 219.968C511.351 219.414 512.369 219.138 513.459 219.138C514.566 219.138 515.593 219.414 516.539 219.968C517.486 220.504 518.254 221.289 518.843 222.325C519.432 223.343 519.727 224.584 519.727 226.049C519.727 227.495 519.432 228.736 518.843 229.772C518.254 230.79 517.486 231.576 516.539 232.129C515.593 232.665 514.566 232.933 513.459 232.933ZM513.459 230.415C514.423 230.415 515.182 230.013 515.736 229.209C516.289 228.406 516.566 227.352 516.566 226.049C516.566 224.727 516.289 223.665 515.736 222.861C515.182 222.057 514.423 221.656 513.459 221.656C512.494 221.656 511.735 222.057 511.182 222.861C510.646 223.665 510.378 224.727 510.378 226.049C510.378 227.352 510.646 228.406 511.182 229.209C511.735 230.013 512.494 230.415 513.459 230.415Z" fill="white"/>
<path d="M526.513 232.933C524.87 232.933 523.557 232.326 522.575 231.111C521.593 229.897 521.102 228.209 521.102 226.049C521.102 224.62 521.361 223.388 521.879 222.352C522.414 221.316 523.111 220.522 523.968 219.968C524.825 219.414 525.727 219.138 526.673 219.138C527.424 219.138 528.057 219.271 528.575 219.539C529.111 219.789 529.629 220.138 530.129 220.584L530.022 218.468V213.7H533.102V232.611H530.558L530.343 231.192H530.236C529.754 231.674 529.191 232.085 528.549 232.424C527.906 232.763 527.227 232.933 526.513 232.933ZM527.263 230.388C528.245 230.388 529.165 229.897 530.022 228.915V222.781C529.575 222.37 529.129 222.084 528.682 221.923C528.236 221.763 527.79 221.682 527.343 221.682C526.504 221.682 525.781 222.066 525.173 222.834C524.584 223.584 524.289 224.647 524.289 226.022C524.289 227.433 524.548 228.513 525.066 229.263C525.584 230.013 526.316 230.388 527.263 230.388Z" fill="white"/>
<path d="M541.78 232.933C540.566 232.933 539.468 232.665 538.485 232.129C537.503 231.576 536.726 230.79 536.155 229.772C535.583 228.736 535.298 227.495 535.298 226.049C535.298 224.62 535.583 223.388 536.155 222.352C536.744 221.316 537.503 220.522 538.432 219.968C539.36 219.414 540.334 219.138 541.352 219.138C542.548 219.138 543.548 219.405 544.352 219.941C545.155 220.459 545.762 221.191 546.173 222.138C546.584 223.066 546.789 224.147 546.789 225.379C546.789 226.022 546.745 226.522 546.655 226.879H538.298C538.441 228.04 538.86 228.942 539.557 229.584C540.253 230.227 541.128 230.549 542.182 230.549C542.753 230.549 543.28 230.468 543.762 230.308C544.262 230.129 544.753 229.888 545.236 229.584L546.28 231.513C545.655 231.924 544.959 232.263 544.191 232.531C543.423 232.799 542.619 232.933 541.78 232.933ZM538.271 224.79H544.111C544.111 223.772 543.887 222.977 543.441 222.406C542.994 221.816 542.325 221.522 541.432 221.522C540.664 221.522 539.976 221.807 539.369 222.379C538.78 222.932 538.414 223.736 538.271 224.79Z" fill="white"/>
<path d="M558.737 232.933C557.559 232.933 556.416 232.71 555.308 232.263C554.219 231.817 553.255 231.183 552.415 230.361L554.237 228.245C554.862 228.834 555.576 229.317 556.38 229.692C557.184 230.049 557.987 230.227 558.791 230.227C559.791 230.227 560.55 230.022 561.068 229.611C561.586 229.201 561.844 228.656 561.844 227.977C561.844 227.245 561.586 226.718 561.068 226.397C560.568 226.075 559.925 225.745 559.139 225.406L556.728 224.361C556.157 224.111 555.594 223.79 555.041 223.397C554.505 223.004 554.058 222.504 553.701 221.897C553.362 221.289 553.192 220.557 553.192 219.7C553.192 218.771 553.442 217.941 553.942 217.209C554.46 216.459 555.157 215.869 556.032 215.441C556.925 214.994 557.943 214.771 559.085 214.771C560.103 214.771 561.086 214.977 562.032 215.387C562.978 215.78 563.791 216.316 564.47 216.995L562.889 218.977C562.336 218.512 561.746 218.146 561.121 217.879C560.514 217.611 559.835 217.477 559.085 217.477C558.264 217.477 557.594 217.664 557.076 218.039C556.576 218.396 556.326 218.896 556.326 219.539C556.326 219.986 556.451 220.361 556.701 220.664C556.969 220.95 557.317 221.2 557.746 221.414C558.175 221.611 558.63 221.807 559.112 222.004L561.496 222.995C562.532 223.441 563.38 224.031 564.041 224.763C564.702 225.477 565.032 226.468 565.032 227.736C565.032 228.683 564.782 229.549 564.282 230.335C563.782 231.12 563.059 231.754 562.112 232.236C561.184 232.701 560.059 232.933 558.737 232.933Z" fill="white"/>
<path d="M572.705 232.933C571.49 232.933 570.392 232.665 569.41 232.129C568.428 231.576 567.651 230.79 567.079 229.772C566.508 228.736 566.222 227.495 566.222 226.049C566.222 224.62 566.508 223.388 567.079 222.352C567.669 221.316 568.428 220.522 569.356 219.968C570.285 219.414 571.258 219.138 572.276 219.138C573.472 219.138 574.473 219.405 575.276 219.941C576.08 220.459 576.687 221.191 577.098 222.138C577.508 223.066 577.714 224.147 577.714 225.379C577.714 226.022 577.669 226.522 577.58 226.879H569.222C569.365 228.04 569.785 228.942 570.481 229.584C571.178 230.227 572.053 230.549 573.106 230.549C573.678 230.549 574.205 230.468 574.687 230.308C575.187 230.129 575.678 229.888 576.16 229.584L577.205 231.513C576.58 231.924 575.883 232.263 575.115 232.531C574.347 232.799 573.544 232.933 572.705 232.933ZM569.195 224.79H575.035C575.035 223.772 574.812 222.977 574.365 222.406C573.919 221.816 573.249 221.522 572.356 221.522C571.588 221.522 570.901 221.807 570.294 222.379C569.704 222.932 569.338 223.736 569.195 224.79Z" fill="white"/>
<path d="M582.659 232.933C581.516 232.933 580.579 232.576 579.846 231.861C579.132 231.147 578.775 230.218 578.775 229.076C578.775 227.665 579.391 226.575 580.623 225.807C581.855 225.022 583.82 224.486 586.516 224.2C586.499 223.504 586.311 222.906 585.954 222.406C585.615 221.888 584.999 221.629 584.106 221.629C583.463 221.629 582.829 221.754 582.204 222.004C581.597 222.254 580.998 222.557 580.409 222.914L579.284 220.852C580.016 220.388 580.838 219.986 581.748 219.646C582.677 219.307 583.659 219.138 584.695 219.138C586.338 219.138 587.561 219.629 588.365 220.611C589.186 221.575 589.597 222.977 589.597 224.816V232.611H587.052L586.838 231.165H586.731C586.141 231.665 585.507 232.085 584.829 232.424C584.168 232.763 583.445 232.933 582.659 232.933ZM583.65 230.522C584.186 230.522 584.668 230.397 585.097 230.147C585.543 229.879 586.016 229.522 586.516 229.076V226.129C584.731 226.361 583.49 226.709 582.793 227.174C582.097 227.62 581.748 228.174 581.748 228.834C581.748 229.424 581.927 229.852 582.284 230.12C582.641 230.388 583.097 230.522 583.65 230.522Z" fill="white"/>
<path d="M592.413 232.611V219.459H594.958L595.172 221.789H595.279C595.743 220.932 596.306 220.28 596.967 219.834C597.628 219.37 598.306 219.138 599.003 219.138C599.628 219.138 600.128 219.227 600.503 219.405L599.967 222.084C599.735 222.013 599.52 221.959 599.324 221.923C599.128 221.888 598.886 221.87 598.601 221.87C598.083 221.87 597.538 222.075 596.967 222.486C596.395 222.879 595.904 223.575 595.493 224.575V232.611H592.413Z" fill="white"/>
<path d="M606.765 232.933C605.568 232.933 604.488 232.665 603.524 232.129C602.577 231.576 601.818 230.79 601.247 229.772C600.693 228.736 600.416 227.495 600.416 226.049C600.416 224.584 600.72 223.343 601.327 222.325C601.934 221.289 602.738 220.504 603.738 219.968C604.756 219.414 605.845 219.138 607.006 219.138C607.845 219.138 608.578 219.28 609.203 219.566C609.828 219.852 610.381 220.2 610.863 220.611L609.363 222.62C609.024 222.316 608.676 222.084 608.319 221.923C607.961 221.745 607.578 221.656 607.167 221.656C606.113 221.656 605.247 222.057 604.568 222.861C603.908 223.665 603.577 224.727 603.577 226.049C603.577 227.352 603.899 228.406 604.542 229.209C605.202 230.013 606.051 230.415 607.086 230.415C607.604 230.415 608.086 230.308 608.533 230.093C608.997 229.861 609.417 229.593 609.792 229.29L611.051 231.326C610.444 231.861 609.765 232.263 609.015 232.531C608.265 232.799 607.515 232.933 606.765 232.933Z" fill="white"/>
<path d="M612.776 232.611V213.7H615.857V218.575L615.75 221.12C616.303 220.602 616.919 220.146 617.598 219.754C618.277 219.343 619.062 219.138 619.955 219.138C621.366 219.138 622.393 219.593 623.036 220.504C623.679 221.414 624 222.7 624 224.361V232.611H620.92V224.763C620.92 223.673 620.759 222.906 620.437 222.459C620.116 222.013 619.589 221.789 618.857 221.789C618.286 221.789 617.777 221.932 617.33 222.218C616.902 222.486 616.41 222.888 615.857 223.423V232.611H612.776Z" fill="white"/>
<path fill-rule="evenodd" clip-rule="evenodd" d="M479.62 231.937C477.909 233.168 475.81 233.893 473.541 233.893C467.786 233.893 463.12 229.227 463.12 223.471C463.12 217.716 467.786 213.05 473.541 213.05C479.297 213.05 483.963 217.716 483.963 223.471C483.963 225.359 483.461 227.13 482.583 228.657L485.964 232.038C486.826 232.9 486.826 234.298 485.964 235.16C485.102 236.022 483.704 236.022 482.843 235.16L479.62 231.937ZM482.386 223.471C482.386 228.356 478.426 232.316 473.541 232.316C468.657 232.316 464.697 228.356 464.697 223.471C464.697 218.586 468.657 214.626 473.541 214.626C478.426 214.626 482.386 218.586 482.386 223.471Z" fill="white"/>
<path fill-rule="evenodd" clip-rule="evenodd" d="M468.953 220.144C468.953 219.622 469.376 219.198 469.899 219.198H477.151C477.673 219.198 478.096 219.622 478.096 220.144C478.096 220.666 477.673 221.09 477.151 221.09H469.899C469.376 221.09 468.953 220.666 468.953 220.144Z" fill="#A112FF"/>
<path fill-rule="evenodd" clip-rule="evenodd" d="M468.953 223.297C468.953 222.775 469.376 222.351 469.899 222.351H477.151C477.673 222.351 478.096 222.775 478.096 223.297C478.096 223.819 477.673 224.243 477.151 224.243H469.899C469.376 224.243 468.953 223.819 468.953 223.297Z" fill="#FF5543"/>
<path fill-rule="evenodd" clip-rule="evenodd" d="M468.953 226.608C468.953 226.085 469.376 225.662 469.899 225.662H477.151C477.673 225.662 478.096 226.085 478.096 226.608C478.096 227.13 477.673 227.554 477.151 227.554H469.899C469.376 227.554 468.953 227.13 468.953 226.608Z" fill="#00CBEC"/>
<rect x="231" y="129" width="67" height="17" rx="4" fill="#BFC8DA" fill-opacity="0.48"/>
<path d="M239.337 141.108C238.971 141.108 238.629 141.042 238.311 140.91C237.999 140.772 237.723 140.574 237.483 140.316C237.249 140.052 237.063 139.731 236.925 139.353C236.793 138.975 236.727 138.546 236.727 138.066C236.727 137.424 236.844 136.875 237.078 136.419C237.312 135.957 237.63 135.606 238.032 135.366C238.434 135.12 238.893 134.997 239.409 134.997C239.769 134.997 240.09 135.072 240.372 135.222C240.654 135.366 240.885 135.534 241.065 135.726L240.561 136.293C240.411 136.131 240.24 136.005 240.048 135.915C239.862 135.825 239.649 135.78 239.409 135.78C239.061 135.78 238.755 135.873 238.491 136.059C238.227 136.239 238.02 136.497 237.87 136.833C237.726 137.169 237.654 137.571 237.654 138.039C237.654 138.507 237.726 138.912 237.87 139.254C238.02 139.596 238.227 139.86 238.491 140.046C238.761 140.232 239.073 140.325 239.427 140.325C239.685 140.325 239.916 140.271 240.12 140.163C240.324 140.049 240.513 139.896 240.687 139.704L241.191 140.253C240.963 140.523 240.696 140.733 240.39 140.883C240.084 141.033 239.733 141.108 239.337 141.108ZM243.996 141.108C243.612 141.108 243.252 141.018 242.916 140.838C242.586 140.658 242.316 140.397 242.106 140.055C241.902 139.707 241.8 139.29 241.8 138.804C241.8 138.318 241.902 137.904 242.106 137.562C242.316 137.214 242.586 136.95 242.916 136.77C243.252 136.584 243.612 136.491 243.996 136.491C244.38 136.491 244.737 136.584 245.067 136.77C245.403 136.95 245.673 137.214 245.877 137.562C246.087 137.904 246.192 138.318 246.192 138.804C246.192 139.29 246.087 139.707 245.877 140.055C245.673 140.397 245.403 140.658 245.067 140.838C244.737 141.018 244.38 141.108 243.996 141.108ZM243.996 140.379C244.254 140.379 244.479 140.313 244.671 140.181C244.863 140.049 245.01 139.866 245.112 139.632C245.22 139.398 245.274 139.122 245.274 138.804C245.274 138.492 245.22 138.219 245.112 137.985C245.01 137.745 244.863 137.559 244.671 137.427C244.479 137.295 244.254 137.229 243.996 137.229C243.738 137.229 243.513 137.295 243.321 137.427C243.129 137.559 242.979 137.745 242.871 137.985C242.769 138.219 242.718 138.492 242.718 138.804C242.718 139.122 242.769 139.398 242.871 139.632C242.979 139.866 243.129 140.049 243.321 140.181C243.513 140.313 243.738 140.379 243.996 140.379ZM246.89 141V136.599H247.592L247.664 137.175H247.682C247.79 136.977 247.919 136.815 248.069 136.689C248.219 136.557 248.42 136.491 248.672 136.491C248.882 136.491 249.056 136.554 249.194 136.68C249.332 136.806 249.428 136.995 249.482 137.247C249.602 137.019 249.737 136.836 249.887 136.698C250.043 136.56 250.247 136.491 250.499 136.491C250.811 136.491 251.051 136.611 251.219 136.851C251.393 137.091 251.48 137.43 251.48 137.868V141H250.607V137.931C250.607 137.481 250.472 137.256 250.202 137.256C250.07 137.256 249.959 137.307 249.869 137.409C249.779 137.511 249.68 137.664 249.572 137.868V141H248.798V137.931C248.798 137.709 248.765 137.541 248.699 137.427C248.639 137.313 248.54 137.256 248.402 137.256C248.27 137.256 248.153 137.307 248.051 137.409C247.955 137.511 247.859 137.664 247.763 137.868V141H246.89ZM254.303 141V137.319H252.332V136.599H255.194V141H254.303ZM254.672 135.744C254.48 135.744 254.321 135.687 254.195 135.573C254.069 135.453 254.006 135.297 254.006 135.105C254.006 134.913 254.069 134.76 254.195 134.646C254.321 134.526 254.48 134.466 254.672 134.466C254.864 134.466 255.023 134.526 255.149 134.646C255.275 134.76 255.338 134.913 255.338 135.105C255.338 135.297 255.275 135.453 255.149 135.573C255.023 135.687 254.864 135.744 254.672 135.744ZM257.467 141V136.599H258.196L258.268 137.31H258.304C258.526 137.082 258.766 136.89 259.024 136.734C259.282 136.572 259.582 136.491 259.924 136.491C260.434 136.491 260.809 136.647 261.049 136.959C261.295 137.265 261.418 137.703 261.418 138.273V141H260.527V138.39C260.527 138.006 260.455 137.724 260.311 137.544C260.173 137.358 259.939 137.265 259.609 137.265C259.375 137.265 259.165 137.325 258.979 137.445C258.793 137.559 258.586 137.733 258.358 137.967V141H257.467ZM264.421 142.989C264.007 142.989 263.647 142.941 263.341 142.845C263.041 142.755 262.81 142.62 262.648 142.44C262.486 142.266 262.405 142.05 262.405 141.792C262.405 141.612 262.465 141.438 262.585 141.27C262.705 141.108 262.882 140.964 263.116 140.838V140.802C263.002 140.73 262.897 140.637 262.801 140.523C262.711 140.409 262.666 140.259 262.666 140.073C262.666 139.929 262.711 139.785 262.801 139.641C262.897 139.491 263.026 139.359 263.188 139.245V139.209C263.038 139.095 262.909 138.942 262.801 138.75C262.693 138.558 262.639 138.333 262.639 138.075C262.639 137.745 262.72 137.463 262.882 137.229C263.05 136.995 263.266 136.815 263.53 136.689C263.8 136.557 264.094 136.491 264.412 136.491C264.664 136.491 264.886 136.527 265.078 136.599H266.887V137.301H265.816C265.906 137.397 265.981 137.517 266.041 137.661C266.107 137.799 266.14 137.946 266.14 138.102C266.14 138.426 266.062 138.699 265.906 138.921C265.756 139.143 265.549 139.314 265.285 139.434C265.027 139.548 264.736 139.605 264.412 139.605C264.304 139.605 264.187 139.593 264.061 139.569C263.941 139.545 263.821 139.509 263.701 139.461C263.605 139.527 263.53 139.596 263.476 139.668C263.422 139.74 263.395 139.824 263.395 139.92C263.395 140.076 263.47 140.193 263.62 140.271C263.77 140.343 263.986 140.379 264.268 140.379H265.204C265.774 140.379 266.2 140.46 266.482 140.622C266.77 140.784 266.914 141.054 266.914 141.432C266.914 141.714 266.812 141.972 266.608 142.206C266.404 142.446 266.116 142.635 265.744 142.773C265.372 142.917 264.931 142.989 264.421 142.989ZM264.412 139.029C264.58 139.029 264.733 138.993 264.871 138.921C265.009 138.843 265.12 138.732 265.204 138.588C265.288 138.444 265.33 138.273 265.33 138.075C265.33 137.883 265.288 137.718 265.204 137.58C265.12 137.436 265.009 137.325 264.871 137.247C264.733 137.163 264.58 137.121 264.412 137.121C264.244 137.121 264.088 137.163 263.944 137.247C263.806 137.325 263.695 137.436 263.611 137.58C263.527 137.718 263.485 137.883 263.485 138.075C263.485 138.273 263.527 138.444 263.611 138.588C263.695 138.732 263.806 138.843 263.944 138.921C264.088 138.993 264.244 139.029 264.412 139.029ZM264.511 142.368C264.829 142.368 265.102 142.329 265.33 142.251C265.558 142.179 265.732 142.083 265.852 141.963C265.978 141.849 266.041 141.723 266.041 141.585C266.041 141.387 265.963 141.255 265.807 141.189C265.651 141.129 265.417 141.099 265.105 141.099H264.322C264.184 141.099 264.061 141.093 263.953 141.081C263.845 141.069 263.746 141.051 263.656 141.027C263.47 141.129 263.338 141.234 263.26 141.342C263.188 141.456 263.152 141.57 263.152 141.684C263.152 141.894 263.269 142.059 263.503 142.179C263.737 142.305 264.073 142.368 264.511 142.368ZM274.809 141.108C274.395 141.108 273.999 141.039 273.621 140.901C273.243 140.763 272.922 140.604 272.658 140.424L273.054 139.848C273.312 140.028 273.591 140.169 273.891 140.271C274.197 140.373 274.542 140.424 274.926 140.424C275.262 140.424 275.511 140.364 275.673 140.244C275.841 140.124 275.925 139.983 275.925 139.821C275.925 139.743 275.907 139.671 275.871 139.605C275.841 139.539 275.781 139.479 275.691 139.425C275.607 139.365 275.478 139.308 275.304 139.254C275.136 139.2 274.914 139.143 274.638 139.083C274.056 138.963 273.624 138.798 273.342 138.588C273.066 138.378 272.928 138.108 272.928 137.778C272.928 137.406 273.087 137.1 273.405 136.86C273.729 136.614 274.197 136.491 274.809 136.491C275.157 136.491 275.487 136.551 275.799 136.671C276.117 136.785 276.387 136.917 276.609 137.067L276.195 137.625C275.985 137.487 275.754 137.379 275.502 137.301C275.256 137.217 274.998 137.175 274.728 137.175C274.506 137.175 274.329 137.202 274.197 137.256C274.065 137.304 273.969 137.37 273.909 137.454C273.849 137.538 273.819 137.631 273.819 137.733C273.819 137.901 273.912 138.033 274.098 138.129C274.29 138.219 274.599 138.309 275.025 138.399C275.505 138.501 275.874 138.615 276.132 138.741C276.396 138.867 276.576 139.014 276.672 139.182C276.774 139.344 276.825 139.539 276.825 139.767C276.825 140.013 276.747 140.238 276.591 140.442C276.435 140.646 276.207 140.808 275.907 140.928C275.613 141.048 275.247 141.108 274.809 141.108ZM279.881 141.108C279.497 141.108 279.137 141.018 278.801 140.838C278.471 140.658 278.201 140.397 277.991 140.055C277.787 139.707 277.685 139.29 277.685 138.804C277.685 138.318 277.787 137.904 277.991 137.562C278.201 137.214 278.471 136.95 278.801 136.77C279.137 136.584 279.497 136.491 279.881 136.491C280.265 136.491 280.622 136.584 280.952 136.77C281.288 136.95 281.558 137.214 281.762 137.562C281.972 137.904 282.077 138.318 282.077 138.804C282.077 139.29 281.972 139.707 281.762 140.055C281.558 140.397 281.288 140.658 280.952 140.838C280.622 141.018 280.265 141.108 279.881 141.108ZM279.881 140.379C280.139 140.379 280.364 140.313 280.556 140.181C280.748 140.049 280.895 139.866 280.997 139.632C281.105 139.398 281.159 139.122 281.159 138.804C281.159 138.492 281.105 138.219 280.997 137.985C280.895 137.745 280.748 137.559 280.556 137.427C280.364 137.295 280.139 137.229 279.881 137.229C279.623 137.229 279.398 137.295 279.206 137.427C279.014 137.559 278.864 137.745 278.756 137.985C278.654 138.219 278.603 138.492 278.603 138.804C278.603 139.122 278.654 139.398 278.756 139.632C278.864 139.866 279.014 140.049 279.206 140.181C279.398 140.313 279.623 140.379 279.881 140.379ZM285.008 141.108C284.624 141.108 284.264 141.018 283.928 140.838C283.598 140.658 283.328 140.397 283.118 140.055C282.914 139.707 282.812 139.29 282.812 138.804C282.812 138.318 282.914 137.904 283.118 137.562C283.328 137.214 283.598 136.95 283.928 136.77C284.264 136.584 284.624 136.491 285.008 136.491C285.392 136.491 285.749 136.584 286.079 136.77C286.415 136.95 286.685 137.214 286.889 137.562C287.099 137.904 287.204 138.318 287.204 138.804C287.204 139.29 287.099 139.707 286.889 140.055C286.685 140.397 286.415 140.658 286.079 140.838C285.749 141.018 285.392 141.108 285.008 141.108ZM285.008 140.379C285.266 140.379 285.491 140.313 285.683 140.181C285.875 140.049 286.022 139.866 286.124 139.632C286.232 139.398 286.286 139.122 286.286 138.804C286.286 138.492 286.232 138.219 286.124 137.985C286.022 137.745 285.875 137.559 285.683 137.427C285.491 137.295 285.266 137.229 285.008 137.229C284.75 137.229 284.525 137.295 284.333 137.427C284.141 137.559 283.991 137.745 283.883 137.985C283.781 138.219 283.73 138.492 283.73 138.804C283.73 139.122 283.781 139.398 283.883 139.632C283.991 139.866 284.141 140.049 284.333 140.181C284.525 140.313 284.75 140.379 285.008 140.379ZM288.226 141V136.599H288.955L289.027 137.31H289.063C289.285 137.082 289.525 136.89 289.783 136.734C290.041 136.572 290.341 136.491 290.683 136.491C291.193 136.491 291.568 136.647 291.808 136.959C292.054 137.265 292.177 137.703 292.177 138.273V141H291.286V138.39C291.286 138.006 291.214 137.724 291.07 137.544C290.932 137.358 290.698 137.265 290.368 137.265C290.134 137.265 289.924 137.325 289.738 137.445C289.552 137.559 289.345 137.733 289.117 137.967V141H288.226Z" fill="white"/>
</g>
<defs>
<filter id="filter0_f_2676_18089" x="120" y="229" width="310" height="126" filterUnits="userSpaceOnUse" color-interpolation-filters="sRGB">
<feFlood flood-opacity="0" result="BackgroundImageFix"/>
<feBlend mode="normal" in="SourceGraphic" in2="BackgroundImageFix" result="shape"/>
<feGaussianBlur stdDeviation="2.5" result="effect1_foregroundBlur_2676_18089"/>
</filter>
<filter id="filter1_f_2676_18089" x="67" y="122" width="727" height="161" filterUnits="userSpaceOnUse" color-interpolation-filters="sRGB">
<feFlood flood-opacity="0" result="BackgroundImageFix"/>
<feBlend mode="normal" in="SourceGraphic" in2="BackgroundImageFix" result="shape"/>
<feGaussianBlur stdDeviation="30" result="effect1_foregroundBlur_2676_18089"/>
</filter>
<filter id="filter2_f_2676_18089" x="423" y="222" width="324" height="140" filterUnits="userSpaceOnUse" color-interpolation-filters="sRGB">
<feFlood flood-opacity="0" result="BackgroundImageFix"/>
<feBlend mode="normal" in="SourceGraphic" in2="BackgroundImageFix" result="shape"/>
<feGaussianBlur stdDeviation="6" result="effect1_foregroundBlur_2676_18089"/>
</filter>
<filter id="filter3_d_2676_18089" x="182" y="160" width="266" height="138" filterUnits="userSpaceOnUse" color-interpolation-filters="sRGB">
<feFlood flood-opacity="0" result="BackgroundImageFix"/>
<feColorMatrix in="SourceAlpha" type="matrix" values="0 0 0 0 0 0 0 0 0 0 0 0 0 0 0 0 0 0 127 0" result="hardAlpha"/>
<feOffset dx="2" dy="6"/>
<feGaussianBlur stdDeviation="13"/>
<feComposite in2="hardAlpha" operator="out"/>
<feColorMatrix type="matrix" values="0 0 0 0 0 0 0 0 0 0 0 0 0 0 0 0 0 0 0.65 0"/>
<feBlend mode="normal" in2="BackgroundImageFix" result="effect1_dropShadow_2676_18089"/>
<feBlend mode="normal" in="SourceGraphic" in2="effect1_dropShadow_2676_18089" result="shape"/>
</filter>
<filter id="filter4_d_2676_18089" x="414" y="160" width="266" height="138" filterUnits="userSpaceOnUse" color-interpolation-filters="sRGB">
<feFlood flood-opacity="0" result="BackgroundImageFix"/>
<feColorMatrix in="SourceAlpha" type="matrix" values="0 0 0 0 0 0 0 0 0 0 0 0 0 0 0 0 0 0 127 0" result="hardAlpha"/>
<feOffset dx="2" dy="6"/>
<feGaussianBlur stdDeviation="13"/>
<feComposite in2="hardAlpha" operator="out"/>
<feColorMatrix type="matrix" values="0 0 0 0 0 0 0 0 0 0 0 0 0 0 0 0 0 0 0.65 0"/>
<feBlend mode="normal" in2="BackgroundImageFix" result="effect1_dropShadow_2676_18089"/>
<feBlend mode="normal" in="SourceGraphic" in2="effect1_dropShadow_2676_18089" result="shape"/>
</filter>
<linearGradient id="paint0_linear_2676_18089" x1="551.5" y1="337.5" x2="193.5" y2="135" gradientUnits="userSpaceOnUse">
<stop stop-color="#FF5543"/>
<stop offset="0.549461" stop-color="#A112FF"/>
<stop offset="0.924533" stop-color="#00CBEC"/>
</linearGradient>
<radialGradient id="paint1_radial_2676_18089" cx="0" cy="0" r="1" gradientUnits="userSpaceOnUse" gradientTransform="translate(449 229) rotate(90) scale(237.5 239.893)">
<stop stop-color="#231231" stop-opacity="0"/>
<stop offset="0.989583" stop-color="#270741"/>
</radialGradient>
<radialGradient id="paint2_radial_2676_18089" cx="0" cy="0" r="1" gradientUnits="userSpaceOnUse" gradientTransform="translate(429.5 225.5) rotate(90.1387) scale(206.501 427.227)">
<stop stop-color="#A112FF" stop-opacity="0.81"/>
<stop offset="1" stop-color="#A112FF" stop-opacity="0"/>
</radialGradient>
<linearGradient id="paint3_linear_2676_18089" x1="267.308" y1="377" x2="273.495" y2="214.679" gradientUnits="userSpaceOnUse">
<stop stop-color="#15171E" stop-opacity="0"/>
<stop offset="0.877552" stop-color="#343A4D" stop-opacity="0.49"/>
</linearGradient>
<linearGradient id="paint4_linear_2676_18089" x1="137.308" y1="372" x2="367.818" y2="167.337" gradientUnits="userSpaceOnUse">
<stop stop-color="#A112FF"/>
<stop offset="1" stop-color="#00CBEC"/>
</linearGradient>
<linearGradient id="paint5_linear_2676_18089" x1="129.615" y1="340" x2="396.41" y2="220.285" gradientUnits="userSpaceOnUse">
<stop stop-color="#00CBEC"/>
<stop offset="0.244792" stop-color="#6952F8"/>
<stop offset="0.453125" stop-color="#A112FF"/>
<stop offset="0.5625" stop-color="#B621D6"/>
<stop offset="1" stop-color="#FF5543"/>
</linearGradient>
<linearGradient id="paint6_linear_2676_18089" x1="223.306" y1="107" x2="223.306" y2="223" gradientUnits="userSpaceOnUse">
<stop stop-color="#A6B6D9"/>
<stop offset="1" stop-color="#6112A3" stop-opacity="0.44"/>
</linearGradient>
<linearGradient id="paint7_linear_2676_18089" x1="430" y1="107" x2="430" y2="223" gradientUnits="userSpaceOnUse">
<stop stop-color="#A6B6D9"/>
<stop offset="1" stop-color="#6112A3" stop-opacity="0.44"/>
</linearGradient>
<linearGradient id="paint8_linear_2676_18089" x1="127" y1="202.5" x2="724.002" y2="207.866" gradientUnits="userSpaceOnUse">
<stop stop-color="#477EE8"/>
<stop offset="0.0845033" stop-color="#6C50F9"/>
<stop offset="0.182352" stop-color="#8E18B7"/>
<stop offset="0.29219" stop-color="#A53543"/>
<stop offset="0.360674" stop-color="#2661A6"/>
<stop offset="0.425927" stop-color="#5B2DB5"/>
<stop offset="0.507447" stop-color="#921FA0"/>
<stop offset="0.643368" stop-color="#A2362F"/>
<stop offset="0.711872" stop-color="#25528F"/>
<stop offset="0.789094" stop-color="#5820A3"/>
<stop offset="0.892359" stop-color="#96267E"/>
<stop offset="1" stop-color="#F9534C"/>
</linearGradient>
<linearGradient id="paint9_linear_2676_18089" x1="577.308" y1="377" x2="583.495" y2="214.679" gradientUnits="userSpaceOnUse">
<stop stop-color="#15171E" stop-opacity="0"/>
<stop offset="0.877552" stop-color="#343A4D" stop-opacity="0.49"/>
</linearGradient>
<linearGradient id="paint10_linear_2676_18089" x1="447.308" y1="372" x2="677.818" y2="167.337" gradientUnits="userSpaceOnUse">
<stop stop-color="#A112FF"/>
<stop offset="1" stop-color="#00CBEC"/>
</linearGradient>
<linearGradient id="paint11_linear_2676_18089" x1="439.615" y1="340" x2="706.41" y2="220.285" gradientUnits="userSpaceOnUse">
<stop stop-color="#00CBEC"/>
<stop offset="0.244792" stop-color="#6952F8"/>
<stop offset="0.453125" stop-color="#A112FF"/>
<stop offset="0.5625" stop-color="#B621D6"/>
<stop offset="1" stop-color="#FF5543"/>
</linearGradient>
<linearGradient id="paint12_linear_2676_18089" x1="636.694" y1="107" x2="636.694" y2="223" gradientUnits="userSpaceOnUse">
<stop stop-color="#A6B6D9"/>
<stop offset="1" stop-color="#6112A3" stop-opacity="0.44"/>
</linearGradient>
<radialGradient id="paint13_radial_2676_18089" cx="0" cy="0" r="1" gradientUnits="userSpaceOnUse" gradientTransform="translate(317.458 266) rotate(-95.5549) scale(115.144 250.272)">
<stop offset="0.145833" stop-color="#1E0632"/>
<stop offset="0.540416" stop-color="#270741"/>
<stop offset="0.979167" stop-color="#6112A3"/>
</radialGradient>
<linearGradient id="paint14_linear_2676_18089" x1="176.5" y1="266" x2="436.5" y2="202" gradientUnits="userSpaceOnUse">
<stop stop-color="white"/>
<stop offset="1" stop-color="white"/>
</linearGradient>
<radialGradient id="paint15_radial_2676_18089" cx="0" cy="0" r="1" gradientUnits="userSpaceOnUse" gradientTransform="translate(549.458 266) rotate(-95.5549) scale(115.144 250.272)">
<stop offset="0.145833" stop-color="#1E0632"/>
<stop offset="0.540416" stop-color="#270741"/>
<stop offset="0.979167" stop-color="#6112A3"/>
</radialGradient>
<linearGradient id="paint16_linear_2676_18089" x1="408.5" y1="266" x2="668.5" y2="202" gradientUnits="userSpaceOnUse">
<stop stop-color="white"/>
<stop offset="1" stop-color="white"/>
</linearGradient>
<clipPath id="clip0_2676_18089">
<rect width="859" height="465" fill="white" transform="translate(0.5)"/>
</clipPath>
</defs>
</svg>
