<svg xmlns="http://www.w3.org/2000/svg" fill="none" viewBox="0.31 0 527.39 285">
<mask id="mask0_2463_23650" style="mask-type:luminance" maskUnits="userSpaceOnUse" x="0" y="0" width="528" height="285">
<path d="M527.693 0H0.306885V285H527.693V0Z" fill="white"/>
</mask>
<g mask="url(#mask0_2463_23650)">
<path d="M53.0636 -102.968V383.677M76.4722 -102.968V383.677M99.881 -102.968V383.677M123.492 -102.968V383.677M146.9 -102.968V383.677M170.309 -102.968V383.677M193.718 -102.968V383.677M217.126 -102.968V383.677M240.737 -102.968V383.677M264.146 -102.968V383.677M287.555 -102.968V383.677M310.964 -102.968V383.677M334.574 -102.968V383.677M357.983 -102.968V383.677M381.392 -102.968V383.677M404.801 -102.968V383.677M428.209 -102.968V383.677M451.82 -102.968V383.677M475.227 -102.968V383.677M498.64 -102.968V383.677M29.4697 363.284H521.86M29.4697 339.797L521.86 339.797M29.4697 316.311H521.86M29.4697 292.826H521.86M29.4697 269.34H521.86M29.4697 245.854H521.86M29.4697 222.369H521.86M29.4697 198.883H521.86M29.4697 175.398H521.86M29.4697 151.912H521.86M29.4697 128.426H521.86M29.4697 104.941H521.86M29.4697 81.4554H521.86M29.4697 57.9701H521.86M29.4697 34.4845H521.86M29.4697 10.999H521.86M29.4697 -12.4866H521.86M29.4697 -35.9721H521.86M29.4697 -59.4577H521.86M29.4697 -82.943H521.86" stroke="url(#paint0_linear_2463_23650)" stroke-opacity="0.8"/>
<path d="M53.0636 -102.968V383.677M76.4722 -102.968V383.677M99.881 -102.968V383.677M123.492 -102.968V383.677M146.9 -102.968V383.677M170.309 -102.968V383.677M193.718 -102.968V383.677M217.126 -102.968V383.677M240.737 -102.968V383.677M264.146 -102.968V383.677M287.555 -102.968V383.677M310.964 -102.968V383.677M334.574 -102.968V383.677M357.983 -102.968V383.677M381.392 -102.968V383.677M404.801 -102.968V383.677M428.209 -102.968V383.677M451.82 -102.968V383.677M475.227 -102.968V383.677M498.64 -102.968V383.677M29.4697 363.284H521.86M29.4697 339.797L521.86 339.797M29.4697 316.311H521.86M29.4697 292.826H521.86M29.4697 269.34H521.86M29.4697 245.854H521.86M29.4697 222.369H521.86M29.4697 198.883H521.86M29.4697 175.398H521.86M29.4697 151.912H521.86M29.4697 128.426H521.86M29.4697 104.941H521.86M29.4697 81.4554H521.86M29.4697 57.9701H521.86M29.4697 34.4845H521.86M29.4697 10.999H521.86M29.4697 -12.4866H521.86M29.4697 -35.9721H521.86M29.4697 -59.4577H521.86M29.4697 -82.943H521.86" stroke="url(#paint1_radial_2463_23650)"/>
<path d="M263.693 280.71C434.079 280.71 572.205 216.91 572.205 138.21C572.205 59.5091 434.079 -4.29034 263.693 -4.29034C93.3067 -4.29034 -44.8186 59.5091 -44.8186 138.21C-44.8186 216.91 93.3067 280.71 263.693 280.71Z" fill="url(#paint2_radial_2463_23650)" fill-opacity="0.4"/>
<path d="M242.213 144H45.7867C35.9634 144 28 151.989 28 161.845V216.155C28 226.011 35.9634 234 45.7867 234H242.213C252.037 234 260 226.011 260 216.155V161.845C260 151.989 252.037 144 242.213 144Z" fill="#210E30"/>
<path d="M242.213 144H45.7867C35.9634 144 28 151.989 28 161.845V216.155C28 226.011 35.9634 234 45.7867 234H242.213C252.037 234 260 226.011 260 216.155V161.845C260 151.989 252.037 144 242.213 144Z" fill="url(#paint3_linear_2463_23650)"/>
<path d="M242.213 144H45.7867C35.9634 144 28 151.989 28 161.845V216.155C28 226.011 35.9634 234 45.7867 234H242.213C252.037 234 260 226.011 260 216.155V161.845C260 151.989 252.037 144 242.213 144Z" fill="url(#paint4_linear_2463_23650)" fill-opacity="0.24"/>
<path d="M242.542 145H45.4582C35.8163 145 28 152.796 28 162.413V216.587C28 226.204 35.8163 234 45.4582 234H242.542C252.184 234 260 226.204 260 216.587V162.413C260 152.796 252.184 145 242.542 145Z" stroke="white" stroke-opacity="0.3"/>
<g filter="url(#filter0_f_2463_23650)">
<path d="M242.289 144.306H45.3407C35.4913 144.306 27.5068 152.277 27.5068 162.109V216.293C27.5068 226.126 35.4913 234.097 45.3407 234.097H242.289C252.138 234.097 260.123 226.126 260.123 216.293V162.109C260.123 152.277 252.138 144.306 242.289 144.306Z" fill="url(#paint5_linear_2463_23650)"/>
<path d="M242.289 144.693H45.3407C35.7055 144.693 27.8945 152.49 27.8945 162.109V216.293C27.8945 225.912 35.7055 233.71 45.3407 233.71H242.289C251.924 233.71 259.735 225.912 259.735 216.293V162.109C259.735 152.49 251.924 144.693 242.289 144.693Z" stroke="white" stroke-opacity="0.3"/>
</g>
<path d="M45.6231 213.891C44.7661 213.891 43.9884 213.693 43.288 213.299C42.5877 212.905 42.0294 212.328 41.6112 211.57C41.2037 210.801 41 209.871 41 208.779C41 207.697 41.2086 206.772 41.6269 206.003C42.0549 205.225 42.6249 204.633 43.3351 204.229C44.0452 203.814 44.8287 203.607 45.6858 203.607C46.3332 203.607 46.9082 203.733 47.4097 203.986C47.9111 204.239 48.3235 204.532 48.6477 204.866L47.6761 206.003C47.4146 205.741 47.1227 205.533 46.7985 205.381C46.485 205.219 46.1295 205.139 45.7328 205.139C45.1794 205.139 44.6828 205.286 44.244 205.579C43.816 205.862 43.4761 206.272 43.2254 206.807C42.9854 207.343 42.8649 207.986 42.8649 208.733C42.8649 209.866 43.1206 210.756 43.6328 211.403C44.1451 212.04 44.8287 212.359 45.6858 212.359C46.1452 212.359 46.5526 212.268 46.9082 212.086C47.2637 211.893 47.5869 211.646 47.8798 211.342L48.8514 212.45C48.4332 212.915 47.9533 213.273 47.4097 213.527C46.8768 213.769 46.2813 213.891 45.6231 213.891ZM53.5558 213.891C52.9182 213.891 52.3227 213.739 51.7693 213.436C51.2149 213.122 50.7663 212.677 50.4215 212.101C50.0768 211.514 49.9044 210.811 49.9044 209.992C49.9044 209.163 50.0768 208.46 50.4215 207.884C50.7663 207.297 51.2149 206.853 51.7693 206.549C52.3227 206.236 52.9182 206.079 53.5558 206.079C54.2033 206.079 54.8037 206.236 55.3581 206.549C55.9115 206.853 56.361 207.297 56.7058 207.884C57.0506 208.46 57.223 209.163 57.223 209.992C57.223 210.811 57.0506 211.514 56.7058 212.101C56.361 212.677 55.9115 213.122 55.3581 213.436C54.8037 213.739 54.2033 213.891 53.5558 213.891ZM53.5558 212.465C54.12 212.465 54.5637 212.237 54.8879 211.782C55.2111 211.327 55.3737 210.731 55.3737 209.992C55.3737 209.244 55.2111 208.642 54.8879 208.187C54.5637 207.732 54.12 207.505 53.5558 207.505C52.9917 207.505 52.547 207.732 52.2237 208.187C51.9103 208.642 51.7536 209.244 51.7536 209.992C51.7536 210.731 51.9103 211.327 52.2237 211.782C52.547 212.237 52.9917 212.465 53.5558 212.465ZM61.7021 213.891C60.7412 213.891 59.9733 213.546 59.3984 212.859C58.8234 212.172 58.5364 211.216 58.5364 209.992C58.5364 209.184 58.6882 208.486 58.9909 207.899C59.3043 207.312 59.7118 206.863 60.2133 206.549C60.7148 206.236 61.2427 206.079 61.7961 206.079C62.2349 206.079 62.6061 206.155 62.9088 206.307C63.2222 206.448 63.5249 206.645 63.8177 206.898L63.7551 205.7V203H65.5573V213.709H64.0685L63.9431 212.905H63.8804C63.5983 213.178 63.2692 213.41 62.8931 213.602C62.517 213.795 62.1203 213.891 61.7021 213.891ZM62.1409 212.45C62.7158 212.45 63.2536 212.172 63.7551 211.615V208.142C63.4935 207.91 63.233 207.748 62.9715 207.657C62.71 207.566 62.4494 207.52 62.1879 207.52C61.6972 207.52 61.2741 207.737 60.9185 208.172C60.5737 208.597 60.4013 209.199 60.4013 209.977C60.4013 210.776 60.5532 211.388 60.8558 211.813C61.1585 212.237 61.5875 212.45 62.1409 212.45ZM71.1432 213.891C70.4331 213.891 69.7906 213.739 69.2156 213.436C68.6416 213.122 68.1872 212.677 67.8522 212.101C67.5182 211.514 67.3507 210.811 67.3507 209.992C67.3507 209.184 67.5182 208.486 67.8522 207.899C68.197 207.312 68.6416 206.863 69.1843 206.549C69.7279 206.236 70.2969 206.079 70.8924 206.079C71.5928 206.079 72.1775 206.231 72.6477 206.534C73.1178 206.827 73.4734 207.242 73.7133 207.778C73.9543 208.304 74.0738 208.915 74.0738 209.613C74.0738 209.977 74.0483 210.261 73.9954 210.463H69.1059C69.1901 211.12 69.435 211.631 69.8425 211.995C70.2499 212.359 70.7622 212.541 71.3783 212.541C71.7132 212.541 72.0208 212.495 72.3029 212.404C72.5957 212.303 72.8827 212.166 73.1648 211.995L73.776 213.087C73.4107 213.319 73.0032 213.511 72.5536 213.663C72.105 213.815 71.6349 213.891 71.1432 213.891ZM69.0902 209.28H72.5066C72.5066 208.703 72.3763 208.253 72.1148 207.93C71.8543 207.596 71.4625 207.429 70.9395 207.429C70.4909 207.429 70.0883 207.591 69.7328 207.914C69.388 208.228 69.1745 208.683 69.0902 209.28ZM81.6128 217C81.0065 217 80.458 216.929 79.9672 216.788C79.4863 216.646 79.1053 216.428 78.8232 216.135C78.5509 215.852 78.4158 215.494 78.4158 215.059C78.4158 214.441 78.7811 213.91 79.5128 213.466V213.405C79.3139 213.284 79.1464 213.122 79.0113 212.92C78.8859 212.718 78.8232 212.465 78.8232 212.161C78.8232 211.869 78.9065 211.605 79.074 211.373C79.2513 211.13 79.4501 210.933 79.6695 210.781V210.72C79.408 210.528 79.1729 210.261 78.9643 209.917C78.7654 209.572 78.6665 209.184 78.6665 208.749C78.6665 208.172 78.8075 207.687 79.0896 207.293C79.3717 206.898 79.742 206.6 80.2023 206.398C80.6725 206.185 81.1739 206.079 81.7068 206.079C81.9154 206.079 82.1142 206.099 82.3023 206.14C82.5002 206.17 82.6784 206.211 82.8351 206.261H85.5933V207.55H84.1829C84.3083 207.692 84.4121 207.874 84.4963 208.096C84.5796 208.309 84.6217 208.547 84.6217 208.809C84.6217 209.355 84.4904 209.821 84.2299 210.205C83.9684 210.579 83.6187 210.862 83.1799 211.054C82.7411 211.247 82.2494 211.342 81.7068 211.342C81.5393 211.342 81.3669 211.327 81.1896 211.297C81.0114 211.267 80.8341 211.216 80.6568 211.145C80.5412 211.247 80.4472 211.347 80.3747 211.449C80.312 211.55 80.2807 211.686 80.2807 211.858C80.2807 212.07 80.3688 212.237 80.5471 212.359C80.7352 212.48 81.0643 212.541 81.5344 212.541H82.8978C83.8273 212.541 84.5277 212.688 84.9978 212.981C85.4777 213.264 85.7187 213.728 85.7187 214.376C85.7187 214.861 85.5512 215.301 85.2172 215.696C84.8822 216.1 84.4072 216.419 83.7911 216.651C83.174 216.883 82.4482 217 81.6128 217ZM81.7068 210.25C82.0721 210.25 82.3856 210.119 82.6471 209.856C82.9076 209.593 83.0389 209.224 83.0389 208.749C83.0389 208.283 82.9076 207.925 82.6471 207.672C82.3963 207.409 82.0829 207.277 81.7068 207.277C81.3307 207.277 81.0114 207.403 80.7508 207.657C80.4893 207.91 80.359 208.274 80.359 208.749C80.359 209.224 80.4893 209.593 80.7508 209.856C81.0114 210.119 81.3307 210.25 81.7068 210.25ZM81.8948 215.862C82.5109 215.862 83.0124 215.741 83.3993 215.498C83.7852 215.256 83.9792 214.978 83.9792 214.664C83.9792 214.371 83.8587 214.174 83.6187 214.073C83.3885 213.971 83.0545 213.921 82.6157 213.921H81.5657C81.1475 213.921 80.7978 213.886 80.5158 213.815C80.1181 214.108 79.9202 214.437 79.9202 214.801C79.9202 215.134 80.0975 215.392 80.4531 215.574C80.8076 215.767 81.2885 215.862 81.8948 215.862ZM87.0743 213.709V206.261H88.5631L88.6884 207.581H88.7511C89.0234 207.095 89.3525 206.727 89.7384 206.473C90.1253 206.211 90.522 206.079 90.9295 206.079C91.2958 206.079 91.5877 206.129 91.8071 206.231L91.4936 207.748C91.3585 207.707 91.2331 207.676 91.1175 207.657C91.0029 207.637 90.8619 207.626 90.6944 207.626C90.3918 207.626 90.0734 207.743 89.7384 207.975C89.4044 208.198 89.1175 208.592 88.8765 209.158V213.709H87.0743ZM94.3723 213.891C93.7033 213.891 93.1548 213.689 92.7268 213.284C92.3086 212.879 92.0999 212.354 92.0999 211.706C92.0999 210.907 92.4604 210.291 93.1813 209.856C93.9022 209.411 95.0511 209.108 96.629 208.946C96.6182 208.551 96.5085 208.213 96.2999 207.93C96.1011 207.637 95.7406 207.49 95.2186 207.49C94.8425 207.49 94.4712 207.561 94.1059 207.702C93.7504 207.843 93.4007 208.016 93.0559 208.218L92.3977 207.05C92.8257 206.787 93.3067 206.56 93.8395 206.367C94.3831 206.175 94.9571 206.079 95.5633 206.079C96.5242 206.079 97.2402 206.357 97.7103 206.913C98.1913 207.459 98.4312 208.253 98.4312 209.295V213.709H96.9424L96.8171 212.889H96.7544C96.4096 213.173 96.0384 213.41 95.6417 213.602C95.2548 213.795 94.8317 213.891 94.3723 213.891ZM94.9522 212.525C95.2656 212.525 95.5477 212.454 95.7984 212.313C96.0599 212.161 96.3361 211.96 96.629 211.706V210.038C95.5839 210.17 94.8581 210.367 94.4507 210.629C94.0432 210.883 93.8395 211.195 93.8395 211.57C93.8395 211.904 93.9443 212.146 94.1529 212.298C94.3615 212.45 94.628 212.525 94.9522 212.525ZM100.588 216.651V206.261H102.077L102.202 207.05H102.265C102.589 206.787 102.95 206.56 103.346 206.367C103.754 206.175 104.166 206.079 104.584 206.079C105.545 206.079 106.288 206.423 106.81 207.111C107.342 207.798 107.609 208.718 107.609 209.871C107.609 210.72 107.452 211.449 107.139 212.055C106.825 212.652 106.418 213.107 105.916 213.42C105.426 213.734 104.893 213.891 104.318 213.891C103.984 213.891 103.649 213.819 103.315 213.678C102.981 213.527 102.657 213.325 102.343 213.072L102.39 214.315V216.651H100.588ZM103.942 212.45C104.454 212.45 104.882 212.233 105.227 211.797C105.572 211.362 105.744 210.725 105.744 209.886C105.744 209.138 105.614 208.556 105.352 208.142C105.091 207.728 104.668 207.52 104.083 207.52C103.539 207.52 102.975 207.798 102.39 208.354V211.828C102.672 212.051 102.944 212.212 103.205 212.313C103.467 212.404 103.712 212.45 103.942 212.45ZM109.434 213.709V203H111.236V205.761L111.173 207.202C111.497 206.909 111.858 206.651 112.254 206.428C112.652 206.196 113.112 206.079 113.634 206.079C114.459 206.079 115.06 206.337 115.436 206.853C115.812 207.368 116 208.096 116 209.037V213.709H114.198V209.264C114.198 208.647 114.104 208.213 113.916 207.96C113.728 207.707 113.42 207.581 112.991 207.581C112.657 207.581 112.359 207.661 112.098 207.823C111.847 207.975 111.56 208.203 111.236 208.506V213.709H109.434Z" fill="white"/>
<path d="M162.219 46H45.7812C35.9609 46 28 53.9894 28 63.8448V118.155C28 128.011 35.9609 136 45.7812 136H162.219C172.039 136 180 128.011 180 118.155V63.8448C180 53.9894 172.039 46 162.219 46Z" fill="#A6B6D9"/>
<path d="M162.219 46H45.7812C35.9609 46 28 53.9894 28 63.8448V118.155C28 128.011 35.9609 136 45.7812 136H162.219C172.039 136 180 128.011 180 118.155V63.8448C180 53.9894 172.039 46 162.219 46Z" fill="url(#paint6_linear_2463_23650)"/>
<path d="M162.516 46H45.4836C35.8277 46 28 53.7961 28 63.413V117.587C28 127.204 35.8277 135 45.4836 135H162.516C172.172 135 180 127.204 180 117.587V63.413C180 53.7961 172.172 46 162.516 46Z" stroke="white" stroke-opacity="0.3"/>
<path d="M39 72.7157V62.8173H41.7767C43.3633 62.8173 44.601 63.2259 45.4895 64.0432C46.378 64.8605 46.8223 66.0865 46.8223 67.7211C46.8223 69.3661 46.383 70.6119 45.5054 71.4595C44.6277 72.2966 43.4159 72.7157 41.8719 72.7157H39ZM40.8405 71.293H41.6497C42.697 71.293 43.5062 71.0054 44.0774 70.4303C44.6486 69.8447 44.9342 68.9423 44.9342 67.7211C44.9342 66.5103 44.6486 65.6277 44.0774 65.0724C43.5062 64.5172 42.697 64.24 41.6497 64.24H40.8405V71.293ZM50.6462 72.8973C49.9689 72.8973 49.4135 72.6958 48.9802 72.2919C48.5567 71.888 48.3455 71.3639 48.3455 70.7178C48.3455 69.9204 48.7105 69.3055 49.4403 68.8714C50.1702 68.4277 51.3334 68.125 52.931 67.9632C52.9201 67.5697 52.809 67.232 52.5978 66.9492C52.3965 66.6569 52.0316 66.5103 51.503 66.5103C51.1222 66.5103 50.7464 66.5812 50.3765 66.7222C50.0165 66.8631 49.6625 67.0353 49.3134 67.2368L48.647 66.0714C49.0803 65.8093 49.5673 65.5823 50.1067 65.3903C50.6571 65.1982 51.2382 65.1027 51.8521 65.1027C52.8249 65.1027 53.5498 65.3799 54.0258 65.9351C54.5127 66.48 54.7557 67.2718 54.7557 68.3113V72.7157H53.2483L53.1214 71.8984H53.0579C52.7089 72.1812 52.333 72.4177 51.9314 72.6097C51.5397 72.8018 51.1113 72.8973 50.6462 72.8973ZM51.2333 71.5351C51.5506 71.5351 51.8362 71.4642 52.0901 71.3232C52.3548 71.1719 52.6345 70.9704 52.931 70.7178V69.053C51.8729 69.1845 51.1381 69.3812 50.7255 69.6432C50.313 69.8958 50.1067 70.208 50.1067 70.5816C50.1067 70.9146 50.2128 71.1568 50.4241 71.3081C50.6353 71.4595 50.905 71.5351 51.2333 71.5351ZM59.4364 72.8973C58.5369 72.8973 57.8973 72.6504 57.5165 72.1557C57.1466 71.6515 56.9612 71.0007 56.9612 70.2032V66.6616H55.8505V65.36L57.0564 65.2843L57.2785 63.2562H58.8017V65.2843H60.7851V66.6616H58.8017V70.2032C58.8017 71.0707 59.1666 71.5049 59.8965 71.5049C60.0344 71.5049 60.1772 71.4897 60.3249 71.4595C60.4727 71.4188 60.5996 71.3791 60.7057 71.3384L61.0231 72.6249C60.8118 72.6958 60.5679 72.7563 60.2932 72.8065C60.0284 72.867 59.7428 72.8973 59.4364 72.8973ZM63.9713 72.8973C63.295 72.8973 62.7396 72.6958 62.3053 72.2919C61.8828 71.888 61.6706 71.3639 61.6706 70.7178C61.6706 69.9204 62.0356 69.3055 62.7654 68.8714C63.4953 68.4277 64.6595 68.125 66.2561 67.9632C66.2462 67.5697 66.1351 67.232 65.9229 66.9492C65.7226 66.6569 65.3577 66.5103 64.8281 66.5103C64.4473 66.5103 64.0725 66.5812 63.7016 66.7222C63.3426 66.8631 62.9876 67.0353 62.6385 67.2368L61.9721 66.0714C62.4064 65.8093 62.8924 65.5823 63.4318 65.3903C63.9822 65.1982 64.5643 65.1027 65.1772 65.1027C66.151 65.1027 66.8749 65.3799 67.3509 65.9351C67.8378 66.48 68.0808 67.2718 68.0808 68.3113V72.7157H66.5734L66.4465 71.8984H66.383C66.034 72.1812 65.6591 72.4177 65.2565 72.6097C64.8658 72.8018 64.4374 72.8973 63.9713 72.8973ZM64.5584 71.5351C64.8757 71.5351 65.1613 71.4642 65.4152 71.3232C65.6799 71.1719 65.9606 70.9704 66.2561 70.7178V69.053C65.199 69.1845 64.4632 69.3812 64.0506 69.6432C63.6381 69.8958 63.4318 70.208 63.4318 70.5816C63.4318 70.9146 63.5379 71.1568 63.7492 71.3081C63.9614 71.4595 64.2311 71.5351 64.5584 71.5351ZM73.4418 75.6519V65.2843H74.9491L75.0761 66.0714H75.1395C75.4668 65.8093 75.8317 65.5823 76.2343 65.3903C76.6469 65.1982 77.0643 65.1027 77.4878 65.1027C78.4606 65.1027 79.2113 65.4461 79.7409 66.1319C80.2803 66.8177 80.5501 67.7362 80.5501 68.8865C80.5501 69.7341 80.3914 70.4605 80.0741 71.0659C79.7567 71.6609 79.3442 72.115 78.8365 72.4281C78.3386 72.7412 77.7992 72.8973 77.2181 72.8973C76.8789 72.8973 76.5408 72.8264 76.2026 72.6854C75.8634 72.5341 75.5362 72.3326 75.2188 72.08L75.2665 73.3211V75.6519H73.4418ZM76.8373 71.4595C77.3549 71.4595 77.7893 71.2428 78.1383 70.8086C78.4874 70.3745 78.6619 69.7388 78.6619 68.9016C78.6619 68.1553 78.5291 67.5745 78.2653 67.1611C78.0005 66.7477 77.5721 66.5405 76.9801 66.5405C76.4297 66.5405 75.8585 66.8177 75.2665 67.373V70.8389C75.5521 71.0612 75.8267 71.222 76.0915 71.3232C76.3553 71.4141 76.6042 71.4595 76.8373 71.4595ZM84.1746 72.8973C83.5291 72.8973 83.0689 72.711 82.7942 72.3373C82.5295 71.9637 82.3976 71.4547 82.3976 70.8086V62.0303H84.2222V70.8995C84.2222 71.1114 84.2639 71.2627 84.3492 71.3535C84.4335 71.4339 84.5237 71.4746 84.6189 71.4746C84.6606 71.4746 84.6982 71.4746 84.73 71.4746C84.7716 71.4642 84.8301 71.4547 84.9045 71.4443L85.1425 72.7459C85.0364 72.7866 84.8986 72.8216 84.73 72.8519C84.5713 72.8822 84.3859 72.8973 84.1746 72.8973ZM89.0219 72.8973C88.186 72.8973 87.5781 72.64 87.1973 72.1254C86.8165 71.6108 86.6261 70.8843 86.6261 69.946V65.2843H88.4507V69.7189C88.4507 70.3347 88.5459 70.768 88.7363 71.0205C88.9267 71.2731 89.2332 71.3989 89.6566 71.3989C89.9948 71.3989 90.2913 71.3185 90.5451 71.1568C90.8089 70.995 91.0896 70.733 91.3861 70.3697V65.2843H93.2108V72.7157H91.7193L91.5765 71.626H91.5289C91.1897 72.0091 90.8198 72.3174 90.4182 72.5492C90.0156 72.781 89.5505 72.8973 89.0219 72.8973ZM98.2346 76C97.6217 76 97.0664 75.9291 96.5686 75.7881C96.0827 75.6472 95.6959 75.4296 95.4103 75.1373C95.1356 74.8545 94.9978 74.4969 94.9978 74.0627C94.9978 73.4469 95.3686 72.9172 96.1084 72.4735V72.413C95.9081 72.2919 95.7385 72.1301 95.6007 71.9286C95.4738 71.7272 95.4103 71.4746 95.4103 71.1719C95.4103 70.8796 95.4956 70.6166 95.6642 70.3849C95.8446 70.1427 96.045 69.9459 96.2671 69.7946V69.7341C96.0033 69.542 95.7653 69.2753 95.5531 68.9319C95.3528 68.5885 95.2516 68.2007 95.2516 67.7665C95.2516 67.1914 95.3944 66.707 95.68 66.3135C95.9656 65.92 96.3415 65.622 96.8066 65.4205C97.2826 65.2086 97.7903 65.1027 98.3298 65.1027C98.542 65.1027 98.7423 65.1226 98.9327 65.1633C99.134 65.1935 99.3135 65.2342 99.4722 65.2843H102.265V66.5708H100.837C100.964 66.7118 101.07 66.8934 101.154 67.1157C101.239 67.3276 101.281 67.565 101.281 67.827C101.281 68.3719 101.149 68.8364 100.884 69.2195C100.621 69.5931 100.266 69.875 99.8213 70.067C99.377 70.2591 98.8801 70.3546 98.3298 70.3546C98.1612 70.3546 97.9866 70.3395 97.8062 70.3092C97.6267 70.2789 97.4472 70.2288 97.2667 70.1578C97.1507 70.2591 97.0555 70.3593 96.9811 70.4605C96.9176 70.5618 96.8859 70.698 96.8859 70.8692C96.8859 71.0811 96.9761 71.2476 97.1556 71.3687C97.346 71.4897 97.6792 71.5503 98.1552 71.5503H99.5356C100.478 71.5503 101.186 71.6969 101.662 71.9892C102.149 72.272 102.392 72.7355 102.392 73.3816C102.392 73.8659 102.223 74.3049 101.884 74.6984C101.546 75.1023 101.065 75.4201 100.44 75.6519C99.8163 75.8837 99.0815 76 98.2346 76ZM98.3298 69.2649C98.7007 69.2649 99.018 69.1334 99.2818 68.8714C99.5466 68.6093 99.6784 68.2404 99.6784 67.7665C99.6784 67.302 99.5466 66.9445 99.2818 66.6919C99.0279 66.4299 98.7106 66.2984 98.3298 66.2984C97.949 66.2984 97.6267 66.4242 97.3619 66.6768C97.0981 66.9293 96.9652 67.2926 96.9652 67.7665C96.9652 68.2404 97.0981 68.6093 97.3619 68.8714C97.6267 69.1334 97.949 69.2649 98.3298 69.2649ZM98.5202 74.8649C99.1449 74.8649 99.6527 74.7438 100.043 74.5016C100.435 74.2595 100.63 73.9823 100.63 73.6692C100.63 73.3769 100.509 73.1801 100.266 73.0789C100.033 72.9777 99.6943 72.9276 99.25 72.9276H98.187C97.7645 72.9276 97.4095 72.8926 97.1239 72.8216C96.7223 73.1139 96.521 73.4422 96.521 73.8054C96.521 74.1384 96.7014 74.3957 97.0604 74.5773C97.4204 74.7693 97.9073 74.8649 98.5202 74.8649ZM103.765 72.7157V65.2843H105.59V72.7157H103.765ZM104.685 63.9827C104.357 63.9827 104.092 63.8919 103.892 63.7103C103.691 63.5286 103.591 63.2865 103.591 62.9838C103.591 62.6915 103.691 62.4541 103.892 62.2724C104.092 62.0908 104.357 62 104.685 62C105.013 62 105.277 62.0908 105.479 62.2724C105.679 62.4541 105.78 62.6915 105.78 62.9838C105.78 63.2865 105.679 63.5286 105.479 63.7103C105.277 63.8919 105.013 63.9827 104.685 63.9827ZM107.917 72.7157V65.2843H109.425L109.552 66.2832H109.615C109.964 65.9607 110.345 65.6826 110.757 65.4508C111.17 65.2191 111.641 65.1027 112.17 65.1027C113.006 65.1027 113.613 65.36 113.994 65.8746C114.375 66.3892 114.565 67.1157 114.565 68.0541V72.7157H112.741V68.2811C112.741 67.6653 112.646 67.232 112.455 66.9795C112.265 66.7269 111.953 66.6011 111.519 66.6011C111.181 66.6011 110.879 66.6815 110.615 66.8433C110.361 66.9946 110.07 67.2216 109.742 67.5243V72.7157H107.917ZM118.969 72.8973C118.441 72.8973 117.912 72.8018 117.383 72.6097C116.854 72.4082 116.399 72.1604 116.018 71.8681L116.875 70.7481C117.224 71.0007 117.573 71.2022 117.922 71.3535C118.271 71.5049 118.642 71.5805 119.033 71.5805C119.456 71.5805 119.769 71.4945 119.969 71.3232C120.17 71.152 120.271 70.9401 120.271 70.6876C120.271 70.4757 120.186 70.3045 120.017 70.173C119.858 70.032 119.652 69.9109 119.398 69.8097C119.144 69.699 118.88 69.5931 118.605 69.4919C118.266 69.3708 117.928 69.2242 117.589 69.053C117.262 68.8714 116.992 68.6443 116.78 68.3719C116.569 68.0891 116.463 67.7409 116.463 67.3276C116.463 66.672 116.716 66.1366 117.224 65.7232C117.732 65.3099 118.42 65.1027 119.287 65.1027C119.837 65.1027 120.329 65.1935 120.762 65.3751C121.197 65.5568 121.572 65.7639 121.889 65.9957L121.048 67.0551C120.773 66.8631 120.493 66.7118 120.207 66.6011C119.932 66.48 119.642 66.4195 119.334 66.4195C118.944 66.4195 118.652 66.4999 118.462 66.6616C118.271 66.813 118.176 67.005 118.176 67.2368C118.176 67.529 118.335 67.7514 118.652 67.9027C118.969 68.0541 119.34 68.2007 119.763 68.3416C120.123 68.4627 120.472 68.6141 120.81 68.7957C121.149 68.9669 121.429 69.1939 121.651 69.4768C121.884 69.7596 122 70.1323 122 70.5968C122 71.2324 121.741 71.7773 121.223 72.2314C120.705 72.675 119.953 72.8973 118.969 72.8973Z" fill="white"/>
<path d="M322.219 46H205.781C195.961 46 188 53.9894 188 63.8448V118.155C188 128.011 195.961 136 205.781 136H322.219C332.039 136 340 128.011 340 118.155V63.8448C340 53.9894 332.039 46 322.219 46Z" fill="#A6B6D9"/>
<path d="M322.219 46H205.781C195.961 46 188 53.9894 188 63.8448V118.155C188 128.011 195.961 136 205.781 136H322.219C332.039 136 340 128.011 340 118.155V63.8448C340 53.9894 332.039 46 322.219 46Z" fill="url(#paint7_linear_2463_23650)"/>
<path d="M322.516 46H205.484C195.828 46 188 53.7961 188 63.413V117.587C188 127.204 195.828 135 205.484 135H322.516C332.172 135 340 127.204 340 117.587V63.413C340 53.7961 332.172 46 322.516 46Z" stroke="white" stroke-opacity="0.3"/>
<path d="M208.48 67.5946L208.115 68.7958H210.769L210.403 67.5946C210.234 67.0738 210.069 66.5389 209.91 65.988C209.762 65.4371 209.614 64.8919 209.466 64.3514H209.402C209.265 64.9022 209.116 65.4521 208.957 66.003C208.809 66.5435 208.65 67.0738 208.48 67.5946ZM205 72.8198L208.385 63H210.546L213.931 72.8198H211.992L211.182 70.1622H207.686L206.875 72.8198H205ZM215.212 72.8198V63H218.486C219.26 63 219.948 63.0948 220.552 63.2853C221.156 63.4758 221.632 63.7911 221.982 64.2312C222.332 64.6714 222.506 65.272 222.506 66.033C222.506 66.7538 222.332 67.3497 221.982 67.8198C221.632 68.29 221.162 68.641 220.568 68.8709C219.975 69.1008 219.302 69.2162 218.549 69.2162H217.056V72.8198H215.212ZM217.056 67.8198H218.406C219.932 67.8198 220.695 67.2239 220.695 66.033C220.695 65.4127 220.494 64.9867 220.091 64.7568C219.7 64.5165 219.117 64.3964 218.343 64.3964H217.056V67.8198ZM224.462 72.8198V63H226.306V72.8198H224.462ZM230.965 73C230.435 73 229.906 72.9052 229.376 72.7147C228.846 72.5148 228.39 72.269 228.009 71.979L228.867 70.8679C229.217 71.1184 229.566 71.3183 229.916 71.4685C230.265 71.6186 230.637 71.6937 231.028 71.6937C231.452 71.6937 231.765 71.6083 231.966 71.4384C232.168 71.2686 232.268 71.0584 232.268 70.8078C232.268 70.5976 232.183 70.4277 232.014 70.2973C231.855 70.1575 231.648 70.0373 231.394 69.9369C231.14 69.8271 230.875 69.722 230.599 69.6216C230.261 69.5015 229.922 69.3561 229.582 69.1862C229.254 69.006 228.984 68.7808 228.772 68.5105C228.56 68.2299 228.454 67.8846 228.454 67.4745C228.454 66.8241 228.708 66.293 229.217 65.8829C229.725 65.4728 230.414 65.2673 231.283 65.2673C231.834 65.2673 232.326 65.3574 232.76 65.5375C233.196 65.7177 233.571 65.9232 233.889 66.1532L233.047 67.2042C232.771 67.0137 232.49 66.8635 232.204 66.7538C231.929 66.6336 231.638 66.5736 231.33 66.5736C230.939 66.5736 230.647 66.6533 230.456 66.8138C230.266 66.964 230.17 67.1545 230.17 67.3844C230.17 67.6744 230.329 67.8949 230.647 68.045C230.965 68.1952 231.336 68.3407 231.759 68.4805C232.12 68.6006 232.469 68.7508 232.808 68.9309C233.148 69.1008 233.428 69.326 233.65 69.6066C233.884 69.8872 234 70.2569 234 70.7177C234 71.3483 233.741 71.8889 233.221 72.3393C232.703 72.7795 231.95 73 230.965 73Z" fill="white"/>
<g filter="url(#filter1_f_2463_23650)">
<path d="M29.0576 104.055H499.718V117.988C499.718 127.82 491.733 135.791 481.884 135.791H49.2177C38.0839 135.791 29.0576 126.78 29.0576 115.665V104.055Z" fill="url(#paint8_linear_2463_23650)" fill-opacity="0.54"/>
</g>
<path d="M482.213 144H285.787C275.963 144 268 151.989 268 161.845V216.155C268 226.011 275.963 234 285.787 234H482.213C492.037 234 500 226.011 500 216.155V161.845C500 151.989 492.037 144 482.213 144Z" fill="#210E30"/>
<path d="M482.213 144H285.787C275.963 144 268 151.989 268 161.845V216.155C268 226.011 275.963 234 285.787 234H482.213C492.037 234 500 226.011 500 216.155V161.845C500 151.989 492.037 144 482.213 144Z" fill="url(#paint9_linear_2463_23650)"/>
<path d="M482.213 144H285.787C275.963 144 268 151.989 268 161.845V216.155C268 226.011 275.963 234 285.787 234H482.213C492.037 234 500 226.011 500 216.155V161.845C500 151.989 492.037 144 482.213 144Z" fill="url(#paint10_linear_2463_23650)" fill-opacity="0.24"/>
<path d="M482.542 145H285.458C275.816 145 268 152.796 268 162.413V216.587C268 226.204 275.816 234 285.458 234H482.542C492.184 234 500 226.204 500 216.587V162.413C500 152.796 492.184 145 482.542 145Z" stroke="white" stroke-opacity="0.3"/>
<g filter="url(#filter2_f_2463_23650)">
<path d="M482.659 144.306H285.711C275.861 144.306 267.877 152.277 267.877 162.109V216.293C267.877 226.126 275.861 234.097 285.711 234.097H482.659C492.509 234.097 500.493 226.126 500.493 216.293V162.109C500.493 152.277 492.509 144.306 482.659 144.306Z" fill="url(#paint11_linear_2463_23650)"/>
<path d="M482.659 144.693H285.711C276.076 144.693 268.265 152.49 268.265 162.109V216.293C268.265 225.912 276.076 233.71 285.711 233.71H482.659C492.294 233.71 500.105 225.912 500.105 216.293V162.109C500.105 152.49 492.294 144.693 482.659 144.693Z" stroke="white" stroke-opacity="0.3"/>
</g>
<path d="M287.973 213.819V205.441H285V203.964H292.772V205.441H289.798V213.819H287.973ZM296.368 214C295.728 214 295.13 213.849 294.575 213.548C294.019 213.236 293.568 212.795 293.222 212.222C292.876 211.639 292.703 210.941 292.703 210.127C292.703 209.303 292.876 208.605 293.222 208.033C293.568 207.45 294.019 207.008 294.575 206.707C295.13 206.395 295.728 206.24 296.368 206.24C297.018 206.24 297.622 206.395 298.178 206.707C298.733 207.008 299.184 207.45 299.53 208.033C299.877 208.605 300.05 209.303 300.05 210.127C300.05 210.941 299.877 211.639 299.53 212.222C299.184 212.795 298.733 213.236 298.178 213.548C297.622 213.849 297.018 214 296.368 214ZM296.368 212.584C296.935 212.584 297.38 212.358 297.706 211.905C298.031 211.453 298.193 210.861 298.193 210.127C298.193 209.384 298.031 208.786 297.706 208.334C297.38 207.882 296.935 207.656 296.368 207.656C295.802 207.656 295.357 207.882 295.031 208.334C294.716 208.786 294.559 209.384 294.559 210.127C294.559 210.861 294.716 211.453 295.031 211.905C295.357 212.358 295.802 212.584 296.368 212.584ZM305.002 214C304.363 214 303.765 213.849 303.209 213.548C302.653 213.236 302.202 212.795 301.856 212.222C301.51 211.639 301.337 210.941 301.337 210.127C301.337 209.303 301.51 208.605 301.856 208.033C302.202 207.45 302.653 207.008 303.209 206.707C303.765 206.395 304.363 206.24 305.002 206.24C305.653 206.24 306.256 206.395 306.811 206.707C307.368 207.008 307.818 207.45 308.164 208.033C308.511 208.605 308.684 209.303 308.684 210.127C308.684 210.941 308.511 211.639 308.164 212.222C307.818 212.795 307.368 213.236 306.811 213.548C306.256 213.849 305.653 214 305.002 214ZM305.002 212.584C305.569 212.584 306.015 212.358 306.34 211.905C306.665 211.453 306.827 210.861 306.827 210.127C306.827 209.384 306.665 208.786 306.34 208.334C306.015 207.882 305.569 207.656 305.002 207.656C304.436 207.656 303.991 207.882 303.665 208.334C303.35 208.786 303.193 209.384 303.193 210.127C303.193 210.861 303.35 211.453 303.665 211.905C303.991 212.358 304.436 212.584 305.002 212.584ZM312.237 214C311.597 214 311.141 213.814 310.868 213.442C310.606 213.07 310.475 212.564 310.475 211.921V203.181H312.284V212.011C312.284 212.222 312.326 212.373 312.41 212.463C312.494 212.543 312.583 212.584 312.678 212.584C312.719 212.584 312.756 212.584 312.788 212.584C312.829 212.573 312.887 212.564 312.961 212.553L313.197 213.849C313.091 213.89 312.955 213.925 312.788 213.955C312.63 213.985 312.446 214 312.237 214ZM316.901 214C316.377 214 315.852 213.905 315.327 213.714C314.803 213.513 314.352 213.266 313.974 212.975L314.824 211.86C315.17 212.112 315.516 212.312 315.862 212.463C316.208 212.614 316.576 212.689 316.964 212.689C317.383 212.689 317.693 212.603 317.892 212.433C318.091 212.262 318.191 212.051 318.191 211.8C318.191 211.589 318.107 211.419 317.939 211.288C317.782 211.147 317.577 211.027 317.325 210.926C317.074 210.816 316.812 210.71 316.539 210.61C316.204 210.489 315.868 210.343 315.532 210.173C315.207 209.992 314.94 209.766 314.73 209.495C314.52 209.213 314.415 208.866 314.415 208.455C314.415 207.802 314.667 207.269 315.17 206.858C315.674 206.446 316.356 206.24 317.215 206.24C317.761 206.24 318.249 206.33 318.678 206.511C319.109 206.692 319.481 206.898 319.795 207.129L318.962 208.184C318.689 207.992 318.411 207.842 318.128 207.732C317.855 207.611 317.567 207.551 317.262 207.551C316.875 207.551 316.586 207.631 316.397 207.792C316.208 207.942 316.114 208.134 316.114 208.364C316.114 208.655 316.271 208.877 316.586 209.027C316.901 209.178 317.268 209.324 317.687 209.464C318.044 209.585 318.39 209.736 318.726 209.916C319.062 210.087 319.339 210.313 319.559 210.595C319.79 210.876 319.905 211.247 319.905 211.71C319.905 212.342 319.649 212.885 319.135 213.337C318.621 213.779 317.876 214 316.901 214ZM326.778 206.225C326.778 206.446 326.815 206.677 326.889 206.918C326.962 207.159 327.062 207.41 327.187 207.671C327.617 207.41 327.979 207.144 328.273 206.873C328.567 206.601 328.713 206.275 328.713 205.893C328.713 205.632 328.651 205.411 328.525 205.23C328.399 205.049 328.183 204.959 327.88 204.959C327.554 204.959 327.287 205.075 327.077 205.305C326.878 205.536 326.778 205.843 326.778 206.225ZM327.25 214C326.569 214 325.981 213.879 325.488 213.638C324.996 213.387 324.618 213.055 324.356 212.644C324.093 212.222 323.962 211.75 323.962 211.227C323.962 210.775 324.052 210.379 324.23 210.037C324.419 209.695 324.659 209.394 324.953 209.133C325.257 208.872 325.583 208.631 325.929 208.41C325.719 208.028 325.556 207.656 325.441 207.295C325.326 206.933 325.268 206.582 325.268 206.24C325.268 205.788 325.373 205.376 325.583 205.004C325.803 204.632 326.107 204.336 326.495 204.115C326.884 203.894 327.34 203.784 327.864 203.784C328.567 203.784 329.118 203.979 329.516 204.371C329.925 204.753 330.129 205.256 330.129 205.878C330.129 206.31 330.019 206.696 329.799 207.038C329.589 207.37 329.311 207.676 328.965 207.958C328.63 208.229 328.273 208.49 327.895 208.741C328.21 209.143 328.567 209.54 328.965 209.932C329.374 210.323 329.799 210.68 330.239 211.001C330.523 210.64 330.774 210.243 330.995 209.811C331.226 209.369 331.409 208.892 331.545 208.379H333.213C333.024 208.993 332.783 209.59 332.489 210.173C332.195 210.745 331.849 211.288 331.451 211.8C331.786 211.991 332.112 212.157 332.426 212.297C332.741 212.438 333.035 212.534 333.307 212.584L332.851 214C332.463 213.91 332.054 213.779 331.624 213.608C331.204 213.427 330.779 213.206 330.35 212.945C329.941 213.266 329.479 213.523 328.965 213.714C328.451 213.905 327.88 214 327.25 214ZM325.693 211.122C325.693 211.584 325.861 211.955 326.196 212.237C326.532 212.519 326.956 212.659 327.471 212.659C327.754 212.659 328.032 212.609 328.304 212.508C328.588 212.398 328.86 212.252 329.122 212.071C328.671 211.699 328.237 211.303 327.817 210.881C327.397 210.459 327.019 210.027 326.684 209.585C326.39 209.806 326.149 210.042 325.96 210.293C325.782 210.545 325.693 210.821 325.693 211.122ZM339.142 213.819L337.097 206.421H338.922L339.85 210.263C339.933 210.614 340.002 210.967 340.054 211.318C340.117 211.669 340.185 212.026 340.259 212.388H340.322C340.395 212.026 340.468 211.669 340.542 211.318C340.626 210.956 340.715 210.605 340.809 210.263L341.816 206.421H343.468L344.491 210.263C344.585 210.614 344.675 210.967 344.758 211.318C344.842 211.669 344.926 212.026 345.01 212.388H345.073C345.147 212.026 345.214 211.669 345.277 211.318C345.34 210.967 345.408 210.614 345.482 210.263L346.41 206.421H348.109L346.143 213.819H343.987L343.091 210.369C343.007 210.017 342.928 209.671 342.855 209.329C342.781 208.977 342.702 208.605 342.619 208.214H342.556C342.482 208.605 342.409 208.977 342.335 209.329C342.262 209.68 342.183 210.032 342.099 210.384L341.218 213.819H339.142ZM352.706 214C352.066 214 351.468 213.849 350.912 213.548C350.357 213.236 349.905 212.795 349.559 212.222C349.213 211.639 349.04 210.941 349.04 210.127C349.04 209.303 349.213 208.605 349.559 208.033C349.905 207.45 350.357 207.008 350.912 206.707C351.468 206.395 352.066 206.24 352.706 206.24C353.356 206.24 353.959 206.395 354.515 206.707C355.07 207.008 355.522 207.45 355.868 208.033C356.214 208.605 356.387 209.303 356.387 210.127C356.387 210.941 356.214 211.639 355.868 212.222C355.522 212.795 355.07 213.236 354.515 213.548C353.959 213.849 353.356 214 352.706 214ZM352.706 212.584C353.272 212.584 353.718 212.358 354.043 211.905C354.368 211.453 354.531 210.861 354.531 210.127C354.531 209.384 354.368 208.786 354.043 208.334C353.718 207.882 353.272 207.656 352.706 207.656C352.139 207.656 351.694 207.882 351.369 208.334C351.054 208.786 350.897 209.384 350.897 210.127C350.897 210.861 351.054 211.453 351.369 211.905C351.694 212.358 352.139 212.584 352.706 212.584ZM358.178 213.819V206.421H359.672L359.798 207.732H359.861C360.134 207.249 360.465 206.883 360.852 206.632C361.24 206.371 361.639 206.24 362.048 206.24C362.415 206.24 362.708 206.29 362.929 206.39L362.614 207.897C362.478 207.857 362.352 207.827 362.236 207.807C362.121 207.787 361.98 207.777 361.812 207.777C361.508 207.777 361.188 207.893 360.852 208.123C360.517 208.345 360.229 208.736 359.987 209.299V213.819H358.178ZM364.047 213.819V203.181H365.824V209.826H365.871L368.735 206.421H370.717L368.074 209.434L370.984 213.819H369.018L367.036 210.61L365.824 211.936V213.819H364.047ZM372.58 213.819V207.792H371.542V206.496L372.58 206.421V205.652C372.58 204.879 372.78 204.246 373.178 203.753C373.577 203.251 374.232 203 375.145 203C375.418 203 375.679 203.025 375.931 203.075C376.183 203.125 376.393 203.186 376.56 203.256L376.214 204.552C375.931 204.432 375.648 204.371 375.365 204.371C374.715 204.371 374.389 204.788 374.389 205.622V206.421H375.9V207.792H374.389V213.819H372.58ZM379.021 214C378.381 214 377.925 213.814 377.652 213.442C377.39 213.07 377.259 212.564 377.259 211.921V203.181H379.068V212.011C379.068 212.222 379.11 212.373 379.194 212.463C379.278 212.543 379.367 212.584 379.461 212.584C379.503 212.584 379.54 212.584 379.571 212.584C379.613 212.573 379.671 212.564 379.744 212.553L379.98 213.849C379.876 213.89 379.739 213.925 379.571 213.955C379.414 213.985 379.231 214 379.021 214ZM384.692 214C384.053 214 383.455 213.849 382.898 213.548C382.343 213.236 381.892 212.795 381.546 212.222C381.199 211.639 381.026 210.941 381.026 210.127C381.026 209.303 381.199 208.605 381.546 208.033C381.892 207.45 382.343 207.008 382.898 206.707C383.455 206.395 384.053 206.24 384.692 206.24C385.343 206.24 385.946 206.395 386.501 206.707C387.058 207.008 387.508 207.45 387.854 208.033C388.2 208.605 388.373 209.303 388.373 210.127C388.373 210.941 388.2 211.639 387.854 212.222C387.508 212.795 387.058 213.236 386.501 213.548C385.946 213.849 385.343 214 384.692 214ZM384.692 212.584C385.258 212.584 385.705 212.358 386.029 211.905C386.355 211.453 386.517 210.861 386.517 210.127C386.517 209.384 386.355 208.786 386.029 208.334C385.705 207.882 385.258 207.656 384.692 207.656C384.126 207.656 383.68 207.882 383.355 208.334C383.04 208.786 382.883 209.384 382.883 210.127C382.883 210.861 383.04 211.453 383.355 211.905C383.68 212.358 384.126 212.584 384.692 212.584ZM391.347 213.819L389.301 206.421H391.126L392.055 210.263C392.138 210.614 392.206 210.967 392.259 211.318C392.322 211.669 392.39 212.026 392.464 212.388H392.526C392.599 212.026 392.673 211.669 392.747 211.318C392.83 210.956 392.92 210.605 393.014 210.263L394.021 206.421H395.673L396.695 210.263C396.79 210.614 396.878 210.967 396.963 211.318C397.047 211.669 397.13 212.026 397.215 212.388H397.278C397.35 212.026 397.419 211.669 397.482 211.318C397.545 210.967 397.613 210.614 397.687 210.263L398.615 206.421H400.314L398.347 213.819H396.192L395.295 210.369C395.211 210.017 395.132 209.671 395.059 209.329C394.986 208.977 394.907 208.605 394.823 208.214H394.76C394.687 208.605 394.613 208.977 394.54 209.329C394.466 209.68 394.388 210.032 394.304 210.384L393.423 213.819H391.347ZM403.995 214C403.471 214 402.947 213.905 402.422 213.714C401.898 213.513 401.447 213.266 401.069 212.975L401.919 211.86C402.265 212.112 402.611 212.312 402.957 212.463C403.303 212.614 403.671 212.689 404.058 212.689C404.478 212.689 404.788 212.603 404.986 212.433C405.186 212.262 405.285 212.051 405.285 211.8C405.285 211.589 405.202 211.419 405.033 211.288C404.876 211.147 404.672 211.027 404.42 210.926C404.168 210.816 403.907 210.71 403.633 210.61C403.298 210.489 402.963 210.343 402.626 210.173C402.302 209.992 402.035 209.766 401.824 209.495C401.615 209.213 401.509 208.866 401.509 208.455C401.509 207.802 401.761 207.269 402.265 206.858C402.768 206.446 403.45 206.24 404.31 206.24C404.856 206.24 405.343 206.33 405.773 206.511C406.204 206.692 406.575 206.898 406.89 207.129L406.056 208.184C405.784 207.992 405.505 207.842 405.222 207.732C404.95 207.611 404.662 207.551 404.357 207.551C403.97 207.551 403.681 207.631 403.492 207.792C403.303 207.942 403.209 208.134 403.209 208.364C403.209 208.655 403.366 208.877 403.681 209.027C403.995 209.178 404.363 209.324 404.782 209.464C405.139 209.585 405.485 209.736 405.82 209.916C406.156 210.087 406.434 210.313 406.654 210.595C406.885 210.876 407 211.247 407 211.71C407 212.342 406.743 212.885 406.229 213.337C405.716 213.779 404.971 214 403.995 214Z" fill="white"/>
<path d="M482.219 46H365.781C355.961 46 348 53.9894 348 63.8448V118.155C348 128.011 355.961 136 365.781 136H482.219C492.039 136 500 128.011 500 118.155V63.8448C500 53.9894 492.039 46 482.219 46Z" fill="#A6B6D9"/>
<path d="M482.219 46H365.781C355.961 46 348 53.9894 348 63.8448V118.155C348 128.011 355.961 136 365.781 136H482.219C492.039 136 500 128.011 500 118.155V63.8448C500 53.9894 492.039 46 482.219 46Z" fill="url(#paint12_linear_2463_23650)"/>
<path d="M482.516 46H365.484C355.828 46 348 53.7961 348 63.413V117.587C348 127.204 355.828 135 365.484 135H482.516C492.172 135 500 127.204 500 117.587V63.413C500 53.7961 492.172 46 482.516 46Z" stroke="white" stroke-opacity="0.3"/>
<path d="M366 73.7086V63.7887H367.805V72.2221H372.038V73.7086H366ZM375.507 73.8906C374.842 73.8906 374.298 73.6887 373.873 73.2839C373.458 72.8791 373.25 72.3539 373.25 71.7064C373.25 70.9072 373.608 70.291 374.324 69.8559C375.04 69.4113 376.181 69.1079 377.747 68.9458C377.737 68.5515 377.628 68.213 377.421 67.9296C377.223 67.6367 376.865 67.4897 376.347 67.4897C375.973 67.4897 375.605 67.5608 375.242 67.7021C374.889 67.8433 374.542 68.0158 374.2 68.2178L373.546 67.0498C373.971 66.7872 374.449 66.5597 374.978 66.3673C375.517 66.1748 376.087 66.0791 376.689 66.0791C377.643 66.0791 378.354 66.3569 378.821 66.9133C379.299 67.4594 379.537 68.2528 379.537 69.2947V73.7086H378.059L377.934 72.8895H377.872C377.53 73.1729 377.161 73.4099 376.767 73.6024C376.383 73.7948 375.963 73.8906 375.507 73.8906ZM376.082 72.5255C376.394 72.5255 376.674 72.4544 376.923 72.3131C377.182 72.1614 377.457 71.9595 377.747 71.7064V70.0379C376.71 70.1697 375.989 70.3669 375.584 70.6295C375.18 70.8826 374.978 71.1954 374.978 71.5699C374.978 71.9036 375.082 72.1463 375.289 72.2979C375.496 72.4496 375.76 72.5255 376.082 72.5255ZM381.678 73.7086V66.2611H383.157L383.281 67.2622H383.343C383.686 66.9389 384.059 66.6602 384.464 66.428C384.868 66.1957 385.33 66.0791 385.849 66.0791C386.669 66.0791 387.265 66.337 387.638 66.8527C388.012 67.3684 388.198 68.0964 388.198 69.0368V73.7086H386.409V69.2644C386.409 68.6472 386.316 68.213 386.129 67.9599C385.942 67.7068 385.636 67.5807 385.211 67.5807C384.879 67.5807 384.583 67.6613 384.324 67.8234C384.075 67.9751 383.79 68.2026 383.468 68.506V73.7086H381.678ZM393.046 77C392.445 77 391.901 76.9289 391.413 76.7876C390.936 76.6464 390.557 76.4284 390.277 76.1354C390.007 75.852 389.872 75.4936 389.872 75.0585C389.872 74.4414 390.236 73.9105 390.961 73.4659V73.4052C390.765 73.2839 390.599 73.1218 390.463 72.9198C390.339 72.7179 390.277 72.4648 390.277 72.1614C390.277 71.8685 390.36 71.605 390.526 71.3727C390.703 71.13 390.899 70.9328 391.117 70.7812V70.7205C390.858 70.528 390.625 70.2607 390.417 69.9166C390.22 69.5725 390.121 69.1838 390.121 68.7487C390.121 68.1723 390.261 67.6869 390.541 67.2925C390.821 66.8982 391.19 66.5995 391.646 66.3976C392.113 66.1853 392.611 66.0791 393.14 66.0791C393.348 66.0791 393.544 66.099 393.731 66.1398C393.929 66.1701 394.105 66.2109 394.26 66.2611H396.999V67.5504H395.598C395.723 67.6916 395.827 67.8737 395.91 68.0964C395.993 68.3088 396.034 68.5467 396.034 68.8093C396.034 69.3554 395.905 69.8208 395.645 70.2048C395.386 70.5792 395.038 70.8617 394.603 71.0542C394.167 71.2466 393.68 71.3424 393.14 71.3424C392.975 71.3424 392.803 71.3272 392.626 71.2969C392.45 71.2665 392.274 71.2163 392.097 71.1452C391.984 71.2466 391.89 71.3471 391.817 71.4485C391.755 71.55 391.724 71.6865 391.724 71.8581C391.724 72.0704 391.812 72.2373 391.988 72.3586C392.175 72.48 392.502 72.5406 392.969 72.5406H394.322C395.246 72.5406 395.941 72.6876 396.408 72.9805C396.885 73.2639 397.123 73.7285 397.123 74.3759C397.123 74.8613 396.958 75.3012 396.626 75.6956C396.294 76.1003 395.822 76.4189 395.209 76.6511C394.598 76.8834 393.877 77 393.046 77ZM393.14 70.2503C393.504 70.2503 393.815 70.1185 394.074 69.8559C394.333 69.5933 394.463 69.2236 394.463 68.7487C394.463 68.2832 394.333 67.9248 394.074 67.6717C393.825 67.4091 393.513 67.2774 393.14 67.2774C392.766 67.2774 392.45 67.4034 392.191 67.6566C391.932 67.9097 391.802 68.2737 391.802 68.7487C391.802 69.2236 391.932 69.5933 392.191 69.8559C392.45 70.1185 392.766 70.2503 393.14 70.2503ZM393.327 75.8624C393.939 75.8624 394.437 75.7411 394.82 75.4984C395.205 75.2557 395.396 74.9779 395.396 74.6641C395.396 74.3712 395.278 74.174 395.038 74.0726C394.811 73.9712 394.478 73.9209 394.042 73.9209H393C392.586 73.9209 392.237 73.8858 391.957 73.8147C391.563 74.1077 391.366 74.4366 391.366 74.8006C391.366 75.1343 391.543 75.3922 391.895 75.5742C392.248 75.7667 392.726 75.8624 393.327 75.8624ZM400.742 73.8906C399.922 73.8906 399.326 73.6327 398.953 73.117C398.579 72.6013 398.393 71.8732 398.393 70.9328V66.2611H400.182V70.7053C400.182 71.3225 400.275 71.7566 400.462 72.0097C400.649 72.2629 400.949 72.389 401.365 72.389C401.696 72.389 401.987 72.3084 402.236 72.1463C402.495 71.9842 402.77 71.7216 403.061 71.3575V66.2611H404.85V73.7086H403.388L403.248 72.6165H403.201C402.868 73.0004 402.506 73.3095 402.112 73.5417C401.717 73.774 401.261 73.8906 400.742 73.8906ZM408.968 73.8906C408.305 73.8906 407.76 73.6887 407.334 73.2839C406.92 72.8791 406.712 72.3539 406.712 71.7064C406.712 70.9072 407.07 70.291 407.785 69.8559C408.501 69.4113 409.643 69.1079 411.209 68.9458C411.199 68.5515 411.09 68.213 410.882 67.9296C410.686 67.6367 410.328 67.4897 409.808 67.4897C409.435 67.4897 409.067 67.5608 408.703 67.7021C408.351 67.8433 408.003 68.0158 407.661 68.2178L407.007 67.0498C407.433 66.7872 407.91 66.5597 408.439 66.3673C408.979 66.1748 409.55 66.0791 410.151 66.0791C411.106 66.0791 411.816 66.3569 412.283 66.9133C412.76 67.4594 412.998 68.2528 412.998 69.2947V73.7086H411.52L411.396 72.8895H411.333C410.991 73.1729 410.623 73.4099 410.228 73.6024C409.845 73.7948 409.425 73.8906 408.968 73.8906ZM409.544 72.5255C409.855 72.5255 410.135 72.4544 410.384 72.3131C410.644 72.1614 410.919 71.9595 411.209 71.7064V70.0379C410.172 70.1697 409.45 70.3669 409.046 70.6295C408.641 70.8826 408.439 71.1954 408.439 71.5699C408.439 71.9036 408.543 72.1463 408.75 72.2979C408.958 72.4496 409.223 72.5255 409.544 72.5255ZM417.801 77C417.2 77 416.655 76.9289 416.167 76.7876C415.69 76.6464 415.311 76.4284 415.031 76.1354C414.762 75.852 414.626 75.4936 414.626 75.0585C414.626 74.4414 414.99 73.9105 415.716 73.4659V73.4052C415.519 73.2839 415.353 73.1218 415.218 72.9198C415.093 72.7179 415.031 72.4648 415.031 72.1614C415.031 71.8685 415.115 71.605 415.28 71.3727C415.457 71.13 415.653 70.9328 415.871 70.7812V70.7205C415.612 70.528 415.379 70.2607 415.171 69.9166C414.974 69.5725 414.875 69.1838 414.875 68.7487C414.875 68.1723 415.015 67.6869 415.295 67.2925C415.576 66.8982 415.944 66.5995 416.4 66.3976C416.867 66.1853 417.365 66.0791 417.894 66.0791C418.102 66.0791 418.299 66.099 418.485 66.1398C418.683 66.1701 418.859 66.2109 419.014 66.2611H421.753V67.5504H420.353C420.477 67.6916 420.581 67.8737 420.664 68.0964C420.748 68.3088 420.788 68.5467 420.788 68.8093C420.788 69.3554 420.659 69.8208 420.399 70.2048C420.141 70.5792 419.792 70.8617 419.357 71.0542C418.921 71.2466 418.434 71.3424 417.894 71.3424C417.729 71.3424 417.558 71.3272 417.381 71.2969C417.205 71.2665 417.029 71.2163 416.852 71.1452C416.738 71.2466 416.644 71.3471 416.571 71.4485C416.509 71.55 416.478 71.6865 416.478 71.8581C416.478 72.0704 416.567 72.2373 416.743 72.3586C416.929 72.48 417.256 72.5406 417.723 72.5406H419.077C420.001 72.5406 420.695 72.6876 421.162 72.9805C421.639 73.2639 421.878 73.7285 421.878 74.3759C421.878 74.8613 421.712 75.3012 421.38 75.6956C421.048 76.1003 420.576 76.4189 419.964 76.6511C419.352 76.8834 418.631 77 417.801 77ZM417.894 70.2503C418.258 70.2503 418.569 70.1185 418.828 69.8559C419.087 69.5933 419.217 69.2236 419.217 68.7487C419.217 68.2832 419.087 67.9248 418.828 67.6717C418.579 67.4091 418.268 67.2774 417.894 67.2774C417.521 67.2774 417.205 67.4034 416.945 67.6566C416.686 67.9097 416.556 68.2737 416.556 68.7487C416.556 69.2236 416.686 69.5933 416.945 69.8559C417.205 70.1185 417.521 70.2503 417.894 70.2503ZM418.081 75.8624C418.694 75.8624 419.191 75.7411 419.575 75.4984C419.959 75.2557 420.15 74.9779 420.15 74.6641C420.15 74.3712 420.032 74.174 419.792 74.0726C419.565 73.9712 419.232 73.9209 418.797 73.9209H417.754C417.34 73.9209 416.992 73.8858 416.711 73.8147C416.318 74.1077 416.12 74.4366 416.12 74.8006C416.12 75.1343 416.297 75.3922 416.649 75.5742C417.002 75.7667 417.48 75.8624 418.081 75.8624ZM426.249 73.8906C425.544 73.8906 424.906 73.7389 424.335 73.4355C423.764 73.1218 423.313 72.6771 422.981 72.1008C422.65 71.514 422.483 70.8115 422.483 69.9924C422.483 69.1838 422.65 68.486 422.981 67.8992C423.324 67.3124 423.764 66.8631 424.304 66.5493C424.844 66.2355 425.409 66.0791 426 66.0791C426.696 66.0791 427.276 66.2308 427.743 66.5341C428.21 66.8271 428.563 67.2423 428.801 67.7779C429.039 68.304 429.159 68.9155 429.159 69.6132C429.159 69.9772 429.133 70.2607 429.081 70.4626H424.226C424.309 71.1196 424.553 71.6306 424.958 71.9946C425.362 72.3586 425.871 72.5406 426.483 72.5406C426.814 72.5406 427.121 72.4951 427.401 72.4041C427.692 72.3027 427.976 72.1662 428.257 71.9946L428.863 73.0867C428.501 73.3189 428.096 73.5114 427.65 73.6631C427.203 73.8147 426.736 73.8906 426.249 73.8906ZM424.211 69.2795H427.603C427.603 68.7031 427.474 68.2529 427.214 67.9296C426.954 67.5959 426.565 67.429 426.047 67.429C425.601 67.429 425.202 67.5911 424.849 67.9144C424.506 68.2282 424.293 68.6832 424.211 69.2795ZM433.983 73.7086V66.2611H435.461L435.586 67.2774H435.648C435.97 66.9437 436.317 66.6602 436.69 66.428C437.075 66.1957 437.505 66.0791 437.982 66.0791C438.542 66.0791 438.989 66.2004 439.32 66.4431C439.663 66.6754 439.922 66.9996 440.098 67.4139C440.462 67.0299 440.84 66.7114 441.234 66.4583C441.639 66.2052 442.08 66.0791 442.557 66.0791C443.366 66.0791 443.963 66.337 444.346 66.8527C444.731 67.3684 444.922 68.0964 444.922 69.0368V73.7086H443.117V69.2644C443.117 68.6472 443.019 68.213 442.821 67.9599C442.635 67.7068 442.345 67.5807 441.95 67.5807C441.473 67.5807 440.939 67.8888 440.347 68.506V73.7086H438.558V69.2644C438.558 68.6472 438.46 68.213 438.262 67.9599C438.075 67.7068 437.78 67.5807 437.375 67.5807C436.899 67.5807 436.364 67.8888 435.772 68.506V73.7086H433.983ZM450.225 73.8906C449.592 73.8906 449.001 73.7389 448.451 73.4355C447.901 73.1218 447.456 72.6771 447.113 72.1008C446.771 71.514 446.6 70.8115 446.6 69.9924C446.6 69.1629 446.771 68.4605 447.113 67.8841C447.456 67.2973 447.901 66.8527 448.451 66.5493C449.001 66.2355 449.592 66.0791 450.225 66.0791C450.868 66.0791 451.464 66.2355 452.015 66.5493C452.564 66.8527 453.011 67.2973 453.353 67.8841C453.695 68.4605 453.867 69.1629 453.867 69.9924C453.867 70.8115 453.695 71.514 453.353 72.1008C453.011 72.6771 452.564 73.1218 452.015 73.4355C451.464 73.7389 450.868 73.8906 450.225 73.8906ZM450.225 72.4648C450.786 72.4648 451.226 72.2373 451.548 71.7822C451.869 71.3272 452.03 70.7309 452.03 69.9924C452.03 69.2445 451.869 68.6425 451.548 68.1874C451.226 67.7324 450.786 67.5049 450.225 67.5049C449.665 67.5049 449.224 67.7324 448.903 68.1874C448.592 68.6425 448.436 69.2445 448.436 69.9924C448.436 70.7309 448.592 71.3272 448.903 71.7822C449.224 72.2373 449.665 72.4648 450.225 72.4648ZM458.314 73.8906C457.36 73.8906 456.597 73.5465 456.027 72.8592C455.456 72.1719 455.171 71.2163 455.171 69.9924C455.171 69.1838 455.322 68.486 455.622 67.8992C455.933 67.3124 456.338 66.8631 456.836 66.5493C457.334 66.2355 457.858 66.0791 458.407 66.0791C458.843 66.0791 459.212 66.1549 459.512 66.3066C459.823 66.4479 460.124 66.645 460.415 66.8982L460.353 65.6999V63H462.142V73.7086H460.664L460.539 72.9047H460.477C460.197 73.1777 459.87 73.4099 459.497 73.6024C459.123 73.7948 458.729 73.8906 458.314 73.8906ZM458.75 72.4496C459.321 72.4496 459.855 72.1719 460.353 71.6154V68.1419C460.093 67.9097 459.834 67.7476 459.574 67.6566C459.315 67.5655 459.056 67.52 458.796 67.52C458.309 67.52 457.889 67.7371 457.536 68.1723C457.194 68.597 457.023 69.1989 457.023 69.9772C457.023 70.7764 457.173 71.3879 457.474 71.8126C457.774 72.2373 458.2 72.4496 458.75 72.4496ZM467.688 73.8906C466.983 73.8906 466.345 73.7389 465.774 73.4355C465.205 73.1218 464.753 72.6771 464.421 72.1008C464.089 71.514 463.923 70.8115 463.923 69.9924C463.923 69.1838 464.089 68.486 464.421 67.8992C464.763 67.3124 465.205 66.8631 465.743 66.5493C466.283 66.2355 466.848 66.0791 467.439 66.0791C468.135 66.0791 468.715 66.2308 469.182 66.5341C469.649 66.8271 470.002 67.2423 470.24 67.7779C470.48 68.304 470.598 68.9155 470.598 69.6132C470.598 69.9772 470.573 70.2607 470.52 70.4626H465.665C465.749 71.1196 465.992 71.6306 466.397 71.9946C466.801 72.3586 467.31 72.5406 467.922 72.5406C468.254 72.5406 468.56 72.4951 468.84 72.4041C469.131 72.3027 469.416 72.1662 469.696 71.9946L470.303 73.0867C469.94 73.3189 469.535 73.5114 469.089 73.6631C468.643 73.8147 468.177 73.8906 467.688 73.8906ZM465.65 69.2795H469.042C469.042 68.7031 468.913 68.2529 468.653 67.9296C468.394 67.5959 468.005 67.429 467.486 67.429C467.041 67.429 466.641 67.5911 466.288 67.9144C465.946 68.2282 465.734 68.6832 465.65 69.2795ZM474.051 73.8906C473.418 73.8906 472.966 73.7038 472.697 73.3294C472.437 72.9549 472.308 72.4449 472.308 71.7974V63H474.098V71.8884C474.098 72.1008 474.138 72.2524 474.222 72.3434C474.305 72.424 474.393 72.4648 474.486 72.4648C474.527 72.4648 474.564 72.4648 474.595 72.4648C474.636 72.4544 474.694 72.4449 474.767 72.4345L475 73.7389C474.896 73.7797 474.761 73.8147 474.595 73.8451C474.44 73.8754 474.258 73.8906 474.051 73.8906Z" fill="white"/>
<g filter="url(#filter3_d_2463_23650)">
<path d="M247.717 102.506H98.8425C94.1319 102.506 90.3132 106.319 90.3132 111.021V160.561C90.3132 165.264 94.1319 169.076 98.8425 169.076H247.717C252.427 169.076 256.246 165.264 256.246 160.561V111.021C256.246 106.319 252.427 102.506 247.717 102.506Z" fill="url(#paint13_radial_2463_23650)" fill-opacity="0.9"/>
<path d="M247.717 102.893H98.8425C94.346 102.893 90.7009 106.532 90.7009 111.021V160.561C90.7009 165.05 94.346 168.689 98.8425 168.689H247.717C252.213 168.689 255.858 165.05 255.858 160.561V111.021C255.858 106.532 252.213 102.893 247.717 102.893Z" stroke="url(#paint14_linear_2463_23650)" stroke-opacity="0.4"/>
</g>
<path d="M159.477 142C158.276 142 157.186 141.712 156.206 141.137C155.225 140.562 154.442 139.721 153.856 138.615C153.285 137.494 153 136.137 153 134.544C153 132.966 153.293 131.617 153.878 130.496C154.478 129.36 155.276 128.497 156.271 127.908C157.267 127.303 158.365 127 159.565 127C160.472 127 161.277 127.184 161.98 127.554C162.682 127.922 163.26 128.35 163.715 128.837L162.353 130.496C161.987 130.113 161.577 129.81 161.124 129.589C160.685 129.352 160.187 129.235 159.631 129.235C158.855 129.235 158.16 129.448 157.545 129.876C156.945 130.289 156.469 130.886 156.118 131.668C155.781 132.45 155.613 133.386 155.613 134.478C155.613 136.13 155.971 137.428 156.688 138.372C157.406 139.301 158.365 139.766 159.565 139.766C160.209 139.766 160.78 139.633 161.277 139.367C161.775 139.087 162.229 138.725 162.639 138.283L164 139.899C163.414 140.577 162.741 141.1 161.98 141.469C161.233 141.823 160.399 142 159.477 142Z" fill="white"/>
<path d="M170.488 142C169.53 142 168.635 141.787 167.803 141.36C166.971 140.918 166.296 140.291 165.777 139.48C165.259 138.654 165 137.664 165 136.51C165 135.343 165.259 134.353 165.777 133.542C166.296 132.716 166.971 132.09 167.803 131.662C168.635 131.221 169.53 131 170.488 131C171.461 131 172.365 131.221 173.197 131.662C174.029 132.09 174.704 132.716 175.222 133.542C175.74 134.353 176 135.343 176 136.51C176 137.664 175.74 138.654 175.222 139.48C174.704 140.291 174.029 140.918 173.197 141.36C172.365 141.787 171.461 142 170.488 142ZM170.488 139.992C171.336 139.992 172.003 139.672 172.49 139.031C172.977 138.39 173.22 137.55 173.22 136.51C173.22 135.457 172.977 134.61 172.49 133.969C172.003 133.328 171.336 133.008 170.488 133.008C169.64 133.008 168.973 133.328 168.486 133.969C168.015 134.61 167.78 135.457 167.78 136.51C167.78 137.55 168.015 138.39 168.486 139.031C168.973 139.672 169.64 139.992 170.488 139.992Z" fill="white"/>
<path d="M181.509 142C180.139 142 179.046 141.495 178.228 140.485C177.409 139.474 177 138.071 177 136.273C177 135.085 177.216 134.059 177.647 133.198C178.094 132.336 178.674 131.675 179.388 131.214C180.102 130.754 180.854 130.523 181.643 130.523C182.268 130.523 182.796 130.635 183.228 130.857C183.674 131.065 184.106 131.356 184.522 131.727L184.433 129.967V126H187V141.732H184.879L184.701 140.551H184.612C184.21 140.953 183.741 141.294 183.205 141.576C182.669 141.858 182.104 142 181.509 142ZM182.134 139.883C182.952 139.883 183.719 139.474 184.433 138.658V133.554C184.061 133.212 183.689 132.975 183.317 132.841C182.945 132.707 182.572 132.641 182.201 132.641C181.501 132.641 180.898 132.96 180.392 133.599C179.902 134.222 179.656 135.106 179.656 136.251C179.656 137.424 179.872 138.323 180.303 138.947C180.735 139.571 181.345 139.883 182.134 139.883Z" fill="white"/>
<path d="M190.195 146C189.884 146 189.612 145.978 189.378 145.935C189.145 145.892 188.919 145.841 188.701 145.784L189.191 143.835C189.3 143.864 189.425 143.893 189.565 143.922C189.721 143.965 189.868 143.987 190.008 143.987C190.616 143.987 191.098 143.814 191.456 143.468C191.83 143.136 192.11 142.702 192.297 142.169L192.508 141.498L188 131H190.733L192.717 136.216C192.889 136.678 193.052 137.169 193.208 137.688C193.379 138.193 193.551 138.699 193.722 139.203H193.816C193.956 138.713 194.096 138.215 194.236 137.71C194.391 137.19 194.539 136.692 194.679 136.216L196.407 131H199L194.843 142.104C194.36 143.302 193.776 144.247 193.091 144.939C192.406 145.646 191.441 146 190.195 146Z" fill="white"/>
<path d="M207.066 134.018L206.533 135.854H210.397L209.864 134.018C209.618 133.224 209.379 132.405 209.148 131.564C208.931 130.724 208.716 129.89 208.5 129.064H208.407C208.207 129.905 207.991 130.746 207.76 131.587C207.544 132.413 207.313 133.224 207.066 134.018ZM202 142L206.927 127H210.073L215 142H212.178L210.998 137.941H205.909L204.73 142H202Z" fill="white"/>
<path d="M216 142V127H218V142H216Z" fill="white"/>
<path fill-rule="evenodd" clip-rule="evenodd" d="M142 127C143.104 127 144 127.733 144 128.637V132.364C144 133.267 143.104 134 142 134C140.896 134 140 133.267 140 132.364V128.637C140 127.733 140.896 127 142 127Z" fill="#FF5543"/>
<path fill-rule="evenodd" clip-rule="evenodd" d="M129 131.5C129 130.672 129.732 130 130.635 130H134.365C135.268 130 136 130.672 136 131.5C136 132.328 135.268 133 134.365 133H130.635C129.732 133 129 132.328 129 131.5Z" fill="#A112FF"/>
<path fill-rule="evenodd" clip-rule="evenodd" d="M131.148 137.691C130.564 136.925 129.471 136.773 128.701 137.352C127.926 137.933 127.77 139.032 128.352 139.806L129.753 138.753C128.352 139.806 128.352 139.806 128.352 139.807L128.353 139.809L128.355 139.812L128.361 139.819C128.365 139.824 128.37 139.83 128.375 139.837C128.386 139.851 128.399 139.867 128.415 139.888C128.447 139.927 128.49 139.98 128.544 140.043C128.652 140.169 128.804 140.338 129.001 140.536C129.393 140.93 129.968 141.443 130.726 141.954C132.247 142.978 134.519 144 137.5 144C140.481 144 142.752 142.978 144.274 141.954C145.032 141.443 145.607 140.93 145.999 140.536C146.196 140.338 146.348 140.169 146.456 140.043C146.509 139.98 146.553 139.927 146.585 139.888C146.601 139.867 146.614 139.851 146.625 139.837C146.63 139.83 146.635 139.824 146.639 139.819L146.644 139.812L146.646 139.809L146.647 139.807C146.648 139.806 146.649 139.806 145.247 138.753L146.649 139.806C147.23 139.032 147.074 137.933 146.3 137.352C145.529 136.773 144.436 136.925 143.853 137.691C143.851 137.692 143.849 137.695 143.847 137.698C143.838 137.709 143.82 137.731 143.792 137.763C143.736 137.829 143.643 137.932 143.514 138.062C143.254 138.323 142.854 138.683 142.315 139.046C141.243 139.768 139.642 140.494 137.5 140.494C135.358 140.494 133.756 139.768 132.685 139.046C132.147 138.683 131.745 138.323 131.485 138.062C131.356 137.932 131.263 137.829 131.208 137.763C131.18 137.731 131.161 137.709 131.153 137.698C131.15 137.695 131.148 137.692 131.148 137.691ZM143.847 137.698H143.846V137.698" fill="#00CBEC"/>
<g filter="url(#filter4_d_2463_23650)">
<path d="M427.607 102.506H278.732C274.022 102.506 270.203 106.319 270.203 111.021V160.561C270.203 165.264 274.022 169.076 278.732 169.076H427.607C432.317 169.076 436.136 165.264 436.136 160.561V111.021C436.136 106.319 432.317 102.506 427.607 102.506Z" fill="url(#paint15_radial_2463_23650)" fill-opacity="0.9"/>
<path d="M427.607 102.893H278.732C274.236 102.893 270.591 106.532 270.591 111.021V160.561C270.591 165.05 274.236 168.689 278.732 168.689H427.607C432.103 168.689 435.748 165.05 435.748 160.561V111.021C435.748 106.532 432.103 102.893 427.607 102.893Z" stroke="url(#paint16_linear_2463_23650)" stroke-opacity="0.4"/>
</g>
<path d="M318.888 143C317.797 143 316.806 142.732 315.914 142.194C315.023 141.658 314.311 140.873 313.779 139.84C313.259 138.794 313 137.528 313 136.042C313 134.569 313.266 133.309 313.799 132.263C314.344 131.203 315.069 130.398 315.974 129.846C316.879 129.282 317.877 129 318.969 129C319.794 129 320.525 129.172 321.164 129.516C321.803 129.86 322.329 130.26 322.741 130.714L321.503 132.263C321.171 131.905 320.798 131.622 320.385 131.416C319.987 131.196 319.534 131.086 319.028 131.086C318.323 131.086 317.691 131.286 317.132 131.685C316.586 132.07 316.154 132.628 315.835 133.357C315.528 134.087 315.376 134.961 315.376 135.979C315.376 137.521 315.701 138.733 316.353 139.614C317.005 140.481 317.877 140.914 318.969 140.914C319.554 140.914 320.073 140.791 320.525 140.543C320.978 140.281 321.39 139.944 321.763 139.531L323 141.038C322.468 141.672 321.856 142.161 321.164 142.504C320.485 142.835 319.727 143 318.888 143Z" fill="white"/>
<path d="M328.99 143C328.118 143 327.305 142.806 326.548 142.417C325.791 142.016 325.178 141.447 324.707 140.709C324.236 139.958 324 139.058 324 138.01C324 136.948 324.236 136.048 324.707 135.31C325.178 134.559 325.791 133.99 326.548 133.602C327.305 133.2 328.118 133 328.99 133C329.874 133 330.695 133.2 331.452 133.602C332.209 133.99 332.823 134.559 333.293 135.31C333.764 136.048 334 136.948 334 138.01C334 139.058 333.764 139.958 333.293 140.709C332.823 141.447 332.209 142.016 331.452 142.417C330.695 142.806 329.874 143 328.99 143ZM328.99 141.175C329.76 141.175 330.367 140.883 330.81 140.3C331.252 139.718 331.473 138.954 331.473 138.01C331.473 137.051 331.252 136.282 330.81 135.699C330.367 135.116 329.76 134.825 328.99 134.825C328.218 134.825 327.612 135.116 327.169 135.699C326.741 136.282 326.527 137.051 326.527 138.01C326.527 138.954 326.741 139.718 327.169 140.3C327.612 140.883 328.218 141.175 328.99 141.175Z" fill="white"/>
<path d="M339.058 143C337.826 143 336.841 142.558 336.105 141.674C335.368 140.79 335 139.561 335 137.989C335 136.949 335.194 136.052 335.583 135.298C335.984 134.544 336.507 133.966 337.15 133.563C337.792 133.159 338.469 132.958 339.178 132.958C339.741 132.958 340.216 133.055 340.605 133.25C341.007 133.432 341.395 133.686 341.77 134.011L341.69 132.471V129H344V142.766H342.092L341.931 141.733H341.851C341.489 142.084 341.067 142.383 340.585 142.629C340.103 142.876 339.594 143 339.058 143ZM339.621 141.147C340.357 141.147 341.047 140.79 341.69 140.075V135.61C341.355 135.311 341.02 135.103 340.685 134.986C340.351 134.869 340.016 134.81 339.681 134.81C339.052 134.81 338.509 135.09 338.053 135.649C337.611 136.195 337.39 136.968 337.39 137.969C337.39 138.996 337.584 139.783 337.973 140.329C338.361 140.874 338.911 141.147 339.621 141.147Z" fill="white"/>
<path d="M351.077 143C350.126 143 349.266 142.806 348.496 142.417C347.727 142.016 347.118 141.447 346.671 140.709C346.223 139.958 346 139.058 346 138.01C346 136.974 346.223 136.081 346.671 135.33C347.133 134.579 347.727 134.003 348.455 133.602C349.181 133.2 349.944 133 350.742 133C351.678 133 352.462 133.194 353.091 133.582C353.72 133.958 354.196 134.488 354.518 135.175C354.839 135.847 355 136.631 355 137.524C355 137.99 354.966 138.353 354.895 138.611H348.35C348.462 139.453 348.79 140.107 349.336 140.572C349.881 141.038 350.566 141.272 351.392 141.272C351.839 141.272 352.252 141.213 352.629 141.097C353.021 140.967 353.405 140.793 353.784 140.572L354.601 141.971C354.112 142.269 353.567 142.514 352.965 142.709C352.364 142.903 351.734 143 351.077 143ZM348.329 137.097H352.903C352.903 136.359 352.727 135.783 352.378 135.369C352.028 134.941 351.504 134.728 350.804 134.728C350.203 134.728 349.664 134.935 349.189 135.349C348.727 135.75 348.441 136.333 348.329 137.097Z" fill="white"/>
<path d="M364.011 143C363.077 143 362.171 142.828 361.293 142.484C360.43 142.14 359.666 141.651 359 141.017L360.444 139.386C360.939 139.84 361.505 140.213 362.143 140.502C362.78 140.777 363.416 140.914 364.054 140.914C364.846 140.914 365.448 140.756 365.858 140.439C366.269 140.123 366.473 139.703 366.473 139.18C366.473 138.615 366.269 138.209 365.858 137.962C365.462 137.714 364.952 137.459 364.329 137.198L362.418 136.392C361.966 136.2 361.52 135.952 361.081 135.649C360.657 135.346 360.302 134.961 360.019 134.493C359.751 134.024 359.616 133.46 359.616 132.799C359.616 132.083 359.814 131.444 360.21 130.879C360.621 130.301 361.173 129.846 361.867 129.516C362.575 129.172 363.381 129 364.287 129C365.093 129 365.872 129.159 366.622 129.475C367.372 129.778 368.016 130.191 368.555 130.714L367.301 132.242C366.863 131.884 366.396 131.602 365.9 131.396C365.419 131.189 364.881 131.086 364.287 131.086C363.636 131.086 363.105 131.23 362.694 131.519C362.298 131.794 362.1 132.18 362.1 132.675C362.1 133.02 362.199 133.309 362.397 133.543C362.609 133.763 362.885 133.956 363.225 134.121C363.565 134.273 363.926 134.424 364.308 134.575L366.197 135.339C367.019 135.683 367.691 136.138 368.215 136.702C368.738 137.253 369 138.017 369 138.994C369 139.724 368.802 140.391 368.406 140.997C368.009 141.602 367.436 142.091 366.686 142.463C365.95 142.821 365.059 143 364.011 143Z" fill="white"/>
<path d="M375.077 143C374.126 143 373.266 142.806 372.497 142.417C371.728 142.016 371.119 141.447 370.671 140.709C370.224 139.958 370 139.058 370 138.01C370 136.974 370.224 136.081 370.671 135.33C371.133 134.579 371.728 134.003 372.454 133.602C373.182 133.2 373.944 133 374.741 133C375.678 133 376.462 133.194 377.091 133.582C377.72 133.958 378.196 134.488 378.518 135.175C378.839 135.847 379 136.631 379 137.524C379 137.99 378.965 138.353 378.895 138.611H372.349C372.461 139.453 372.79 140.107 373.335 140.572C373.881 141.038 374.567 141.272 375.391 141.272C375.839 141.272 376.252 141.213 376.629 141.097C377.021 140.967 377.405 140.793 377.783 140.572L378.601 141.971C378.112 142.269 377.566 142.514 376.965 142.709C376.363 142.903 375.734 143 375.077 143ZM372.328 137.097H376.902C376.902 136.359 376.727 135.783 376.377 135.369C376.028 134.941 375.503 134.728 374.804 134.728C374.202 134.728 373.664 134.935 373.189 135.349C372.727 135.75 372.44 136.333 372.328 137.097Z" fill="white"/>
<path d="M382.23 143C381.28 143 380.5 142.741 379.891 142.223C379.297 141.705 379 141.032 379 140.204C379 139.181 379.512 138.391 380.537 137.835C381.561 137.265 383.196 136.877 385.438 136.669C385.424 136.165 385.267 135.731 384.97 135.369C384.688 134.993 384.176 134.806 383.433 134.806C382.899 134.806 382.371 134.896 381.852 135.078C381.347 135.259 380.849 135.478 380.359 135.737L379.423 134.242C380.032 133.906 380.716 133.615 381.472 133.368C382.245 133.123 383.062 133 383.923 133C385.29 133 386.307 133.356 386.975 134.068C387.658 134.767 388 135.783 388 137.116V142.767H385.883L385.706 141.718H385.617C385.126 142.081 384.599 142.385 384.035 142.631C383.485 142.877 382.884 143 382.23 143ZM383.054 141.252C383.5 141.252 383.901 141.162 384.258 140.98C384.629 140.786 385.022 140.527 385.438 140.204V138.068C383.953 138.236 382.92 138.488 382.342 138.825C381.763 139.149 381.472 139.55 381.472 140.029C381.472 140.456 381.621 140.767 381.918 140.961C382.215 141.155 382.594 141.252 383.054 141.252Z" fill="white"/>
<path d="M390 143V133.238H391.888L392.046 134.968H392.126C392.47 134.332 392.887 133.848 393.377 133.517C393.868 133.172 394.371 133 394.888 133C395.351 133 395.722 133.066 396 133.198L395.602 135.187C395.43 135.134 395.271 135.094 395.126 135.067C394.98 135.041 394.801 135.028 394.589 135.028C394.205 135.028 393.801 135.18 393.377 135.485C392.953 135.777 392.589 136.293 392.284 137.035V143H390Z" fill="white"/>
<path d="M400.776 143C399.876 143 399.063 142.806 398.338 142.417C397.626 142.016 397.055 141.447 396.625 140.709C396.208 139.958 396 139.058 396 138.01C396 136.948 396.229 136.048 396.685 135.31C397.142 134.559 397.747 133.99 398.499 133.602C399.265 133.2 400.084 133 400.957 133C401.588 133 402.14 133.103 402.61 133.31C403.08 133.518 403.496 133.77 403.859 134.068L402.73 135.524C402.475 135.304 402.213 135.136 401.945 135.019C401.676 134.89 401.387 134.825 401.078 134.825C400.285 134.825 399.634 135.116 399.123 135.699C398.627 136.282 398.378 137.051 398.378 138.01C398.378 138.954 398.62 139.718 399.104 140.3C399.6 140.883 400.239 141.175 401.017 141.175C401.407 141.175 401.77 141.097 402.106 140.941C402.455 140.773 402.771 140.579 403.053 140.359L404 141.835C403.543 142.223 403.033 142.514 402.468 142.709C401.904 142.903 401.34 143 400.776 143Z" fill="white"/>
<path d="M406 143V129H408.196V132.609L408.12 134.493C408.514 134.11 408.953 133.772 409.437 133.482C409.921 133.178 410.48 133.026 411.117 133.026C412.123 133.026 412.855 133.363 413.313 134.037C413.771 134.711 414 135.663 414 136.892V143H411.805V137.19C411.805 136.383 411.69 135.815 411.46 135.484C411.232 135.154 410.856 134.988 410.334 134.988C409.927 134.988 409.565 135.094 409.246 135.306C408.941 135.504 408.59 135.802 408.196 136.198V143H406Z" fill="white"/>
<path fill-rule="evenodd" clip-rule="evenodd" d="M302.643 142.939C301.332 143.913 299.724 144.486 297.985 144.486C293.575 144.486 290 140.796 290 136.243C290 131.691 293.575 128 297.985 128C302.396 128 305.971 131.691 305.971 136.243C305.971 137.736 305.587 139.137 304.914 140.345L307.505 143.019C308.165 143.701 308.165 144.807 307.505 145.489C306.844 146.17 305.773 146.17 305.113 145.489L302.643 142.939ZM304.763 136.243C304.763 140.107 301.728 143.239 297.985 143.239C294.243 143.239 291.208 140.107 291.208 136.243C291.208 132.379 294.243 129.247 297.985 129.247C301.728 129.247 304.763 132.379 304.763 136.243Z" fill="white"/>
<path fill-rule="evenodd" clip-rule="evenodd" d="M294 133.5C294 133.224 294.324 133 294.724 133H300.276C300.676 133 301 133.224 301 133.5C301 133.776 300.676 134 300.276 134H294.724C294.324 134 294 133.776 294 133.5Z" fill="#A112FF"/>
<path fill-rule="evenodd" clip-rule="evenodd" d="M294 136C294 135.448 294.324 135 294.724 135H300.276C300.676 135 301 135.448 301 136C301 136.552 300.676 137 300.276 137H294.724C294.324 137 294 136.552 294 136Z" fill="#FF5543"/>
<path fill-rule="evenodd" clip-rule="evenodd" d="M294 138.5C294 138.224 294.324 138 294.724 138H300.276C300.676 138 301 138.224 301 138.5C301 138.776 300.676 139 300.276 139H294.724C294.324 139 294 138.776 294 138.5Z" fill="#00CBEC"/>
<path d="M86.8955 81H41.1045C39.3899 81 38 82.3695 38 84.0588V90.9412C38 92.6305 39.3899 94 41.1045 94H86.8955C88.6101 94 90 92.6305 90 90.9412V84.0588C90 82.3695 88.6101 81 86.8955 81Z" fill="#BFC8DA" fill-opacity="0.48"/>
<path d="M44.024 90.4551C43.7402 90.4551 43.475 90.4009 43.2283 90.2925C42.9864 90.1792 42.7724 90.0165 42.5863 89.8046C42.4048 89.5878 42.2606 89.3242 42.1535 89.0137C42.0512 88.7033 42 88.3509 42 87.9567C42 87.4294 42.0907 86.9785 42.2722 86.604C42.4537 86.2246 42.7002 85.9363 43.012 85.7392C43.3237 85.5371 43.6797 85.4361 44.0798 85.4361C44.359 85.4361 44.6079 85.4977 44.8266 85.6209C45.0453 85.7392 45.2244 85.8772 45.364 86.0348L44.9732 86.5005C44.8568 86.3675 44.7242 86.264 44.5753 86.1901C44.4311 86.1161 44.2659 86.0792 44.0798 86.0792C43.8099 86.0792 43.5727 86.1556 43.3679 86.3083C43.1632 86.4562 43.0027 86.6681 42.8864 86.944C42.7747 87.22 42.7189 87.5502 42.7189 87.9345C42.7189 88.3189 42.7747 88.6515 42.8864 88.9324C43.0027 89.2133 43.1632 89.4301 43.3679 89.5829C43.5773 89.7357 43.8193 89.812 44.0938 89.812C44.2938 89.812 44.473 89.7677 44.6312 89.679C44.7894 89.5854 44.9359 89.4597 45.0709 89.302L45.4617 89.7529C45.2849 89.9747 45.0778 90.1471 44.8406 90.2703C44.6033 90.3935 44.3311 90.4551 44.024 90.4551ZM47.6369 90.4551C47.3391 90.4551 47.06 90.3812 46.7994 90.2334C46.5435 90.0855 46.3341 89.8712 46.1713 89.5903C46.0131 89.3045 45.934 88.962 45.934 88.5628C45.934 88.1637 46.0131 87.8236 46.1713 87.5428C46.3341 87.2569 46.5435 87.0401 46.7994 86.8923C47.06 86.7395 47.3391 86.6631 47.6369 86.6631C47.9347 86.6631 48.2115 86.7395 48.4674 86.8923C48.728 87.0401 48.9374 87.2569 49.0956 87.5428C49.2584 87.8236 49.3399 88.1637 49.3399 88.5628C49.3399 88.962 49.2584 89.3045 49.0956 89.5903C48.9374 89.8712 48.728 90.0855 48.4674 90.2334C48.2115 90.3812 47.9347 90.4551 47.6369 90.4551ZM47.6369 89.8564C47.837 89.8564 48.0115 89.8022 48.1604 89.6938C48.3093 89.5854 48.4232 89.4351 48.5023 89.2429C48.5861 89.0507 48.628 88.824 48.628 88.5628C48.628 88.3066 48.5861 88.0824 48.5023 87.8902C48.4232 87.6931 48.3093 87.5403 48.1604 87.4319C48.0115 87.3235 47.837 87.2693 47.6369 87.2693C47.4368 87.2693 47.2624 87.3235 47.1135 87.4319C46.9646 87.5403 46.8483 87.6931 46.7645 87.8902C46.6854 88.0824 46.6459 88.3066 46.6459 88.5628C46.6459 88.824 46.6854 89.0507 46.7645 89.2429C46.8483 89.4351 46.9646 89.5854 47.1135 89.6938C47.2624 89.8022 47.4368 89.8564 47.6369 89.8564ZM49.8811 90.3664V86.7518H50.4255L50.4814 87.2249H50.4953C50.5791 87.0623 50.6791 86.9292 50.7954 86.8258C50.9117 86.7173 51.0676 86.6631 51.263 86.6631C51.4259 86.6631 51.5608 86.7149 51.6678 86.8184C51.7748 86.9219 51.8493 87.0771 51.8912 87.284C51.9842 87.0968 52.0889 86.9465 52.2052 86.8332C52.3262 86.7198 52.4844 86.6631 52.6798 86.6631C52.9218 86.6631 53.1079 86.7617 53.2382 86.9588C53.3731 87.1559 53.4406 87.4343 53.4406 87.7941V90.3664H52.7636V87.8458C52.7636 87.4762 52.6589 87.2914 52.4495 87.2914C52.3471 87.2914 52.2611 87.3333 52.1913 87.4171C52.1215 87.5009 52.0447 87.6265 51.961 87.7941V90.3664H51.3607V87.8458C51.3607 87.6635 51.3351 87.5255 51.284 87.4319C51.2374 87.3383 51.1607 87.2914 51.0536 87.2914C50.9513 87.2914 50.8606 87.3333 50.7815 87.4171C50.707 87.5009 50.6326 87.6265 50.5581 87.7941V90.3664H49.8811ZM55.6297 90.3664V87.3432H54.1013V86.7518H56.3207V90.3664H55.6297ZM55.9159 86.0496C55.767 86.0496 55.6437 86.0028 55.546 85.9092C55.4483 85.8106 55.3994 85.6825 55.3994 85.5248C55.3994 85.3671 55.4483 85.2415 55.546 85.1478C55.6437 85.0493 55.767 85 55.9159 85C56.0648 85 56.1881 85.0493 56.2858 85.1478C56.3835 85.2415 56.4323 85.3671 56.4323 85.5248C56.4323 85.6825 56.3835 85.8106 56.2858 85.9092C56.1881 86.0028 56.0648 86.0496 55.9159 86.0496ZM58.0833 90.3664V86.7518H58.6486L58.7045 87.3358H58.7324C58.9045 87.1485 59.0906 86.9908 59.2907 86.8627C59.4908 86.7297 59.7234 86.6631 59.9887 86.6631C60.3842 86.6631 60.675 86.7913 60.8611 87.0475C61.0518 87.2988 61.1472 87.6586 61.1472 88.1267V90.3664H60.4563V88.2228C60.4563 87.9074 60.4004 87.6758 60.2888 87.528C60.1817 87.3752 60.0003 87.2988 59.7444 87.2988C59.5629 87.2988 59.4001 87.3481 59.2558 87.4467C59.1116 87.5403 58.9511 87.6832 58.7743 87.8754V90.3664H58.0833ZM63.4759 92C63.1549 92 62.8757 91.9606 62.6384 91.8817C62.4058 91.8078 62.2267 91.6969 62.1011 91.5491C61.9754 91.4062 61.9126 91.2288 61.9126 91.0169C61.9126 90.8691 61.9591 90.7262 62.0522 90.5882C62.1452 90.4551 62.2825 90.3369 62.464 90.2334V90.2038C62.3756 90.1447 62.2941 90.0683 62.2197 89.9747C62.1499 89.881 62.115 89.7578 62.115 89.6051C62.115 89.4868 62.1499 89.3685 62.2197 89.2503C62.2941 89.1271 62.3942 89.0187 62.5198 88.925V88.8955C62.4035 88.8018 62.3034 88.6762 62.2197 88.5185C62.1359 88.3608 62.0941 88.176 62.0941 87.9641C62.0941 87.6931 62.1569 87.4615 62.2825 87.2693C62.4128 87.0771 62.5803 86.9292 62.785 86.8258C62.9944 86.7173 63.2224 86.6631 63.469 86.6631C63.6644 86.6631 63.8366 86.6927 63.9854 86.7518H65.3883V87.3284H64.5577C64.6275 87.4072 64.6857 87.5058 64.7322 87.6241C64.7834 87.7374 64.809 87.8582 64.809 87.9863C64.809 88.2524 64.7485 88.4766 64.6275 88.6589C64.5112 88.8413 64.3507 88.9817 64.146 89.0803C63.9459 89.1739 63.7202 89.2207 63.469 89.2207C63.3852 89.2207 63.2945 89.2108 63.1968 89.1911C63.1037 89.1714 63.0107 89.1418 62.9176 89.1024C62.8432 89.1566 62.785 89.2133 62.7431 89.2724C62.7013 89.3316 62.6803 89.4006 62.6803 89.4794C62.6803 89.6075 62.7385 89.7036 62.8548 89.7677C62.9711 89.8268 63.1386 89.8564 63.3573 89.8564H64.0832C64.5252 89.8564 64.8555 89.9229 65.0742 90.056C65.2975 90.189 65.4092 90.4108 65.4092 90.7212C65.4092 90.9528 65.3301 91.1647 65.1719 91.3569C65.0137 91.554 64.7904 91.7093 64.5019 91.8226C64.2134 91.9409 63.8714 92 63.4759 92ZM63.469 88.7476C63.5992 88.7476 63.7179 88.7181 63.8249 88.6589C63.9319 88.5949 64.018 88.5037 64.0832 88.3854C64.1483 88.2672 64.1809 88.1267 64.1809 87.9641C64.1809 87.8064 64.1483 87.6709 64.0832 87.5576C64.018 87.4393 63.9319 87.3481 63.8249 87.284C63.7179 87.2151 63.5992 87.1806 63.469 87.1806C63.3387 87.1806 63.2177 87.2151 63.1061 87.284C62.999 87.3481 62.913 87.4393 62.8478 87.5576C62.7827 87.6709 62.7501 87.8064 62.7501 87.9641C62.7501 88.1267 62.7827 88.2672 62.8478 88.3854C62.913 88.5037 62.999 88.5949 63.1061 88.6589C63.2177 88.7181 63.3387 88.7476 63.469 88.7476ZM63.5457 91.49C63.7923 91.49 64.004 91.4579 64.1809 91.3939C64.3577 91.3347 64.4926 91.2559 64.5857 91.1573C64.6834 91.0637 64.7322 90.9602 64.7322 90.8469C64.7322 90.6843 64.6717 90.5759 64.5508 90.5216C64.4298 90.4724 64.2483 90.4477 64.0064 90.4477H63.3992C63.2922 90.4477 63.1968 90.4428 63.113 90.4329C63.0293 90.4231 62.9525 90.4083 62.8827 90.3886C62.7385 90.4724 62.6361 90.5586 62.5756 90.6473C62.5198 90.7409 62.4919 90.8346 62.4919 90.9282C62.4919 91.1007 62.5826 91.2362 62.7641 91.3347C62.9455 91.4382 63.2061 91.49 63.5457 91.49ZM71.5316 90.4551C71.2105 90.4551 70.9034 90.3985 70.6103 90.2851C70.3172 90.1718 70.0682 90.0412 69.8635 89.8933L70.1706 89.4203C70.3707 89.5681 70.587 89.6839 70.8197 89.7677C71.057 89.8515 71.3245 89.8933 71.6223 89.8933C71.8829 89.8933 72.076 89.8441 72.2016 89.7455C72.3319 89.647 72.397 89.5312 72.397 89.3981C72.397 89.334 72.383 89.2749 72.3551 89.2207C72.3319 89.1665 72.2853 89.1172 72.2155 89.0729C72.1504 89.0236 72.0504 88.9768 71.9154 88.9324C71.7851 88.8881 71.613 88.8412 71.399 88.792C70.9476 88.6934 70.6126 88.5579 70.394 88.3854C70.1799 88.213 70.0729 87.9912 70.0729 87.7202C70.0729 87.4146 70.1962 87.1633 70.4428 86.9662C70.6941 86.7642 71.057 86.6631 71.5316 86.6631C71.8014 86.6631 72.0574 86.7124 72.2993 86.811C72.5459 86.9046 72.7553 87.013 72.9274 87.1362L72.6064 87.5945C72.4435 87.4812 72.2644 87.3925 72.069 87.3284C71.8782 87.2594 71.6781 87.2249 71.4688 87.2249C71.2966 87.2249 71.1593 87.2471 71.057 87.2914C70.9546 87.3309 70.8802 87.3851 70.8336 87.4541C70.7871 87.523 70.7639 87.5994 70.7639 87.6832C70.7639 87.8212 70.836 87.9296 70.9802 88.0084C71.1291 88.0824 71.3687 88.1563 71.6991 88.2302C72.0713 88.314 72.3574 88.4076 72.5575 88.5111C72.7622 88.6146 72.9018 88.7353 72.9763 88.8733C73.0554 89.0063 73.0949 89.1665 73.0949 89.3537C73.0949 89.5558 73.0344 89.7406 72.9135 89.9081C72.7925 90.0757 72.6157 90.2087 72.3831 90.3073C72.1551 90.4058 71.8712 90.4551 71.5316 90.4551ZM75.4648 90.4551C75.167 90.4551 74.8878 90.3812 74.6273 90.2334C74.3714 90.0855 74.162 89.8712 73.9991 89.5903C73.8409 89.3045 73.7618 88.962 73.7618 88.5628C73.7618 88.1637 73.8409 87.8236 73.9991 87.5428C74.162 87.2569 74.3714 87.0401 74.6273 86.8923C74.8878 86.7395 75.167 86.6631 75.4648 86.6631C75.7626 86.6631 76.0394 86.7395 76.2953 86.8923C76.5559 87.0401 76.7652 87.2569 76.9234 87.5428C77.0863 87.8236 77.1677 88.1637 77.1677 88.5628C77.1677 88.962 77.0863 89.3045 76.9234 89.5903C76.7652 89.8712 76.5559 90.0855 76.2953 90.2334C76.0394 90.3812 75.7626 90.4551 75.4648 90.4551ZM75.4648 89.8564C75.6649 89.8564 75.8393 89.8022 75.9882 89.6938C76.1371 89.5854 76.2511 89.4351 76.3302 89.2429C76.414 89.0507 76.4558 88.824 76.4558 88.5628C76.4558 88.3066 76.414 88.0824 76.3302 87.8902C76.2511 87.6931 76.1371 87.5403 75.9882 87.4319C75.8393 87.3235 75.6649 87.2693 75.4648 87.2693C75.2647 87.2693 75.0902 87.3235 74.9413 87.4319C74.7924 87.5403 74.6761 87.6931 74.5924 87.8902C74.5133 88.0824 74.4737 88.3066 74.4737 88.5628C74.4737 88.824 74.5133 89.0507 74.5924 89.2429C74.6761 89.4351 74.7924 89.5854 74.9413 89.6938C75.0902 89.8022 75.2647 89.8564 75.4648 89.8564ZM79.4406 90.4551C79.1428 90.4551 78.8637 90.3812 78.6031 90.2334C78.3472 90.0855 78.1378 89.8712 77.975 89.5903C77.8168 89.3045 77.7377 88.962 77.7377 88.5628C77.7377 88.1637 77.8168 87.8236 77.975 87.5428C78.1378 87.2569 78.3472 87.0401 78.6031 86.8923C78.8637 86.7395 79.1428 86.6631 79.4406 86.6631C79.7384 86.6631 80.0153 86.7395 80.2712 86.8923C80.5317 87.0401 80.7411 87.2569 80.8993 87.5428C81.0621 87.8236 81.1436 88.1637 81.1436 88.5628C81.1436 88.962 81.0621 89.3045 80.8993 89.5903C80.7411 89.8712 80.5317 90.0855 80.2712 90.2334C80.0153 90.3812 79.7384 90.4551 79.4406 90.4551ZM79.4406 89.8564C79.6407 89.8564 79.8152 89.8022 79.9641 89.6938C80.113 89.5854 80.227 89.4351 80.3061 89.2429C80.3898 89.0507 80.4317 88.824 80.4317 88.5628C80.4317 88.3066 80.3898 88.0824 80.3061 87.8902C80.227 87.6931 80.113 87.5403 79.9641 87.4319C79.8152 87.3235 79.6407 87.2693 79.4406 87.2693C79.2406 87.2693 79.0661 87.3235 78.9172 87.4319C78.7683 87.5403 78.652 87.6931 78.5682 87.8902C78.4891 88.0824 78.4496 88.3066 78.4496 88.5628C78.4496 88.824 78.4891 89.0507 78.5682 89.2429C78.652 89.4351 78.7683 89.5854 78.9172 89.6938C79.0661 89.8022 79.2406 89.8564 79.4406 89.8564ZM81.9361 90.3664V86.7518H82.5014L82.5573 87.3358H82.5852C82.7573 87.1485 82.9434 86.9908 83.1435 86.8627C83.3436 86.7297 83.5762 86.6631 83.8415 86.6631C84.2369 86.6631 84.5277 86.7913 84.7139 87.0475C84.9046 87.2988 85 87.6586 85 88.1267V90.3664H84.3091V88.2228C84.3091 87.9074 84.2532 87.6758 84.1416 87.528C84.0345 87.3752 83.8531 87.2988 83.5972 87.2988C83.4157 87.2988 83.2529 87.3481 83.1086 87.4467C82.9644 87.5403 82.8039 87.6832 82.6271 87.8754V90.3664H81.9361Z" fill="white"/>
</g>
<defs>
<filter id="filter0_f_2463_23650" x="22.3945" y="139.193" width="242.841" height="100.017" filterUnits="userSpaceOnUse" color-interpolation-filters="sRGB">
<feFlood flood-opacity="0" result="BackgroundImageFix"/>
<feBlend mode="normal" in="SourceGraphic" in2="BackgroundImageFix" result="shape"/>
<feGaussianBlur stdDeviation="2.5" result="effect1_foregroundBlur_2463_23650"/>
</filter>
<filter id="filter1_f_2463_23650" x="-30.9424" y="44.0545" width="590.66" height="151.737" filterUnits="userSpaceOnUse" color-interpolation-filters="sRGB">
<feFlood flood-opacity="0" result="BackgroundImageFix"/>
<feBlend mode="normal" in="SourceGraphic" in2="BackgroundImageFix" result="shape"/>
<feGaussianBlur stdDeviation="30" result="effect1_foregroundBlur_2463_23650"/>
</filter>
<filter id="filter2_f_2463_23650" x="255.765" y="132.193" width="256.841" height="114.017" filterUnits="userSpaceOnUse" color-interpolation-filters="sRGB">
<feFlood flood-opacity="0" result="BackgroundImageFix"/>
<feBlend mode="normal" in="SourceGraphic" in2="BackgroundImageFix" result="shape"/>
<feGaussianBlur stdDeviation="6" result="effect1_foregroundBlur_2463_23650"/>
</filter>
<filter id="filter3_d_2463_23650" x="66.2009" y="82.3935" width="218.157" height="118.795" filterUnits="userSpaceOnUse" color-interpolation-filters="sRGB">
<feFlood flood-opacity="0" result="BackgroundImageFix"/>
<feColorMatrix in="SourceAlpha" type="matrix" values="0 0 0 0 0 0 0 0 0 0 0 0 0 0 0 0 0 0 127 0" result="hardAlpha"/>
<feOffset dx="2" dy="6"/>
<feGaussianBlur stdDeviation="13"/>
<feComposite in2="hardAlpha" operator="out"/>
<feColorMatrix type="matrix" values="0 0 0 0 0 0 0 0 0 0 0 0 0 0 0 0 0 0 0.65 0"/>
<feBlend mode="normal" in2="BackgroundImageFix" result="effect1_dropShadow_2463_23650"/>
<feBlend mode="normal" in="SourceGraphic" in2="effect1_dropShadow_2463_23650" result="shape"/>
</filter>
<filter id="filter4_d_2463_23650" x="246.091" y="82.3935" width="218.157" height="118.795" filterUnits="userSpaceOnUse" color-interpolation-filters="sRGB">
<feFlood flood-opacity="0" result="BackgroundImageFix"/>
<feColorMatrix in="SourceAlpha" type="matrix" values="0 0 0 0 0 0 0 0 0 0 0 0 0 0 0 0 0 0 127 0" result="hardAlpha"/>
<feOffset dx="2" dy="6"/>
<feGaussianBlur stdDeviation="13"/>
<feComposite in2="hardAlpha" operator="out"/>
<feColorMatrix type="matrix" values="0 0 0 0 0 0 0 0 0 0 0 0 0 0 0 0 0 0 0.65 0"/>
<feBlend mode="normal" in2="BackgroundImageFix" result="effect1_dropShadow_2463_23650"/>
<feBlend mode="normal" in="SourceGraphic" in2="effect1_dropShadow_2463_23650" result="shape"/>
</filter>
<linearGradient id="paint0_linear_2463_23650" x1="338.595" y1="206.855" x2="118.983" y2="82.4197" gradientUnits="userSpaceOnUse">
<stop stop-color="#FF5543"/>
<stop offset="0.549461" stop-color="#A112FF"/>
<stop offset="0.924533" stop-color="#00CBEC"/>
</linearGradient>
<radialGradient id="paint1_radial_2463_23650" cx="0" cy="0" r="1" gradientUnits="userSpaceOnUse" gradientTransform="translate(275.665 140.355) rotate(90) scale(145.565 147.283)">
<stop stop-color="#231231" stop-opacity="0"/>
<stop offset="0.989583" stop-color="#270741"/>
</radialGradient>
<radialGradient id="paint2_radial_2463_23650" cx="0" cy="0" r="1" gradientUnits="userSpaceOnUse" gradientTransform="translate(263.693 138.21) rotate(90.1389) scale(126.565 262.298)">
<stop stop-color="#A112FF" stop-opacity="0.81"/>
<stop offset="1" stop-color="#A112FF" stop-opacity="0"/>
</radialGradient>
<linearGradient id="paint3_linear_2463_23650" x1="138.052" y1="254.948" x2="142.867" y2="129.011" gradientUnits="userSpaceOnUse">
<stop stop-color="#15171E" stop-opacity="0"/>
<stop offset="0.877552" stop-color="#343A4D" stop-opacity="0.49"/>
</linearGradient>
<linearGradient id="paint4_linear_2463_23650" x1="37.5182" y1="251.069" x2="216.292" y2="92.8582" gradientUnits="userSpaceOnUse">
<stop stop-color="#A112FF"/>
<stop offset="1" stop-color="#00CBEC"/>
</linearGradient>
<linearGradient id="paint5_linear_2463_23650" x1="31.0852" y1="226.356" x2="237.836" y2="133.425" gradientUnits="userSpaceOnUse">
<stop stop-color="#00CBEC"/>
<stop offset="0.244792" stop-color="#6952F8"/>
<stop offset="0.453125" stop-color="#A112FF"/>
<stop offset="0.5625" stop-color="#B621D6"/>
<stop offset="1" stop-color="#FF5543"/>
</linearGradient>
<linearGradient id="paint6_linear_2463_23650" x1="104" y1="46" x2="104" y2="136" gradientUnits="userSpaceOnUse">
<stop stop-color="#A6B6D9"/>
<stop offset="1" stop-color="#6112A3" stop-opacity="0.44"/>
</linearGradient>
<linearGradient id="paint7_linear_2463_23650" x1="264" y1="46" x2="264" y2="136" gradientUnits="userSpaceOnUse">
<stop stop-color="#A6B6D9"/>
<stop offset="1" stop-color="#6112A3" stop-opacity="0.44"/>
</linearGradient>
<linearGradient id="paint8_linear_2463_23650" x1="29.0576" y1="119.923" x2="491.965" y2="124.091" gradientUnits="userSpaceOnUse">
<stop stop-color="#477EE8"/>
<stop offset="0.0845033" stop-color="#6C50F9"/>
<stop offset="0.182352" stop-color="#8E18B7"/>
<stop offset="0.29219" stop-color="#A53543"/>
<stop offset="0.360674" stop-color="#2661A6"/>
<stop offset="0.425927" stop-color="#5B2DB5"/>
<stop offset="0.507447" stop-color="#921FA0"/>
<stop offset="0.643368" stop-color="#A2362F"/>
<stop offset="0.711872" stop-color="#25528F"/>
<stop offset="0.789094" stop-color="#5820A3"/>
<stop offset="0.892359" stop-color="#96267E"/>
<stop offset="1" stop-color="#F9534C"/>
</linearGradient>
<linearGradient id="paint9_linear_2463_23650" x1="378.052" y1="254.948" x2="382.867" y2="129.011" gradientUnits="userSpaceOnUse">
<stop stop-color="#15171E" stop-opacity="0"/>
<stop offset="0.877552" stop-color="#343A4D" stop-opacity="0.49"/>
</linearGradient>
<linearGradient id="paint10_linear_2463_23650" x1="277.518" y1="251.069" x2="456.292" y2="92.8582" gradientUnits="userSpaceOnUse">
<stop stop-color="#A112FF"/>
<stop offset="1" stop-color="#00CBEC"/>
</linearGradient>
<linearGradient id="paint11_linear_2463_23650" x1="271.455" y1="226.356" x2="478.206" y2="133.425" gradientUnits="userSpaceOnUse">
<stop stop-color="#00CBEC"/>
<stop offset="0.244792" stop-color="#6952F8"/>
<stop offset="0.453125" stop-color="#A112FF"/>
<stop offset="0.5625" stop-color="#B621D6"/>
<stop offset="1" stop-color="#FF5543"/>
</linearGradient>
<linearGradient id="paint12_linear_2463_23650" x1="423.999" y1="46" x2="423.999" y2="136" gradientUnits="userSpaceOnUse">
<stop stop-color="#A6B6D9"/>
<stop offset="1" stop-color="#6112A3" stop-opacity="0.44"/>
</linearGradient>
<radialGradient id="paint13_radial_2463_23650" cx="0" cy="0" r="1" gradientUnits="userSpaceOnUse" gradientTransform="translate(176.736 169.076) rotate(-95.5644) scale(89.1299 194.055)">
<stop offset="0.145833" stop-color="#1E0632"/>
<stop offset="0.540416" stop-color="#270741"/>
<stop offset="0.979167" stop-color="#6112A3"/>
</radialGradient>
<linearGradient id="paint14_linear_2463_23650" x1="67.4393" y1="169.076" x2="269" y2="119.376" gradientUnits="userSpaceOnUse">
<stop stop-color="white"/>
<stop offset="1" stop-color="white"/>
</linearGradient>
<radialGradient id="paint15_radial_2463_23650" cx="0" cy="0" r="1" gradientUnits="userSpaceOnUse" gradientTransform="translate(356.626 169.076) rotate(-95.5644) scale(89.1299 194.055)">
<stop offset="0.145833" stop-color="#1E0632"/>
<stop offset="0.540416" stop-color="#270741"/>
<stop offset="0.979167" stop-color="#6112A3"/>
</radialGradient>
<linearGradient id="paint16_linear_2463_23650" x1="247.329" y1="169.076" x2="448.89" y2="119.376" gradientUnits="userSpaceOnUse">
<stop stop-color="white"/>
<stop offset="1" stop-color="white"/>
</linearGradient>
</defs>
</svg>