<svg width="54" height="54" viewBox="0 0 54 54" fill="none" xmlns="http://www.w3.org/2000/svg">
<g id="PRODUCT LOGO">
<g id="Rectangle 565" filter="url(#filter0_d_4187_16018)">
<path d="M2 25C2 16.8092 2 12.7138 3.44545 9.52367C5.06912 5.94016 7.94016 3.06912 11.5237 1.44545C14.7138 0 18.8092 0 27 0C35.1908 0 39.2862 0 42.4763 1.44545C46.0598 3.06912 48.9309 5.94016 50.5546 9.52367C52 12.7138 52 16.8092 52 25C52 33.1908 52 37.2862 50.5546 40.4763C48.9309 44.0598 46.0598 46.9309 42.4763 48.5546C39.2862 50 35.1908 50 27 50C18.8092 50 14.7138 50 11.5237 48.5546C7.94016 46.9309 5.06912 44.0598 3.44545 40.4763C2 37.2862 2 33.1908 2 25Z" fill="white"/>
<path d="M2 25C2 16.8092 2 12.7138 3.44545 9.52367C5.06912 5.94016 7.94016 3.06912 11.5237 1.44545C14.7138 0 18.8092 0 27 0C35.1908 0 39.2862 0 42.4763 1.44545C46.0598 3.06912 48.9309 5.94016 50.5546 9.52367C52 12.7138 52 16.8092 52 25C52 33.1908 52 37.2862 50.5546 40.4763C48.9309 44.0598 46.0598 46.9309 42.4763 48.5546C39.2862 50 35.1908 50 27 50C18.8092 50 14.7138 50 11.5237 48.5546C7.94016 46.9309 5.06912 44.0598 3.44545 40.4763C2 37.2862 2 33.1908 2 25Z" fill="url(#paint0_radial_4187_16018)" fill-opacity="0.2"/>
<path d="M2.5 25C2.5 20.8972 2.50032 17.8472 2.67932 15.4234C2.85796 13.0047 3.21255 11.2492 3.90088 9.73002C5.47449 6.25701 8.25701 3.47449 11.73 1.90088C13.2492 1.21255 15.0047 0.857958 17.4234 0.679323C19.8472 0.500317 22.8972 0.5 27 0.5C31.1028 0.5 34.1528 0.500317 36.5766 0.679323C38.9953 0.857958 40.7508 1.21255 42.27 1.90088C45.743 3.47449 48.5255 6.25701 50.0991 9.73002C50.7874 11.2492 51.142 13.0047 51.3207 15.4234C51.4997 17.8472 51.5 20.8972 51.5 25C51.5 29.1028 51.4997 32.1528 51.3207 34.5766C51.142 36.9953 50.7874 38.7508 50.0991 40.27C48.5255 43.743 45.743 46.5255 42.27 48.0991C40.7508 48.7874 38.9953 49.142 36.5766 49.3207C34.1528 49.4997 31.1028 49.5 27 49.5C22.8972 49.5 19.8472 49.4997 17.4234 49.3207C15.0047 49.142 13.2492 48.7874 11.73 48.0991C8.25701 46.5255 5.47449 43.743 3.90088 40.27C3.21255 38.7508 2.85796 36.9953 2.67932 34.5766C2.50032 32.1528 2.5 29.1028 2.5 25Z" stroke="black" stroke-opacity="0.05"/>
</g>
<g id="Group 17">
<path id="Vector 16 (Stroke)" fill-rule="evenodd" clip-rule="evenodd" d="M33.6809 12.5117C35.0771 12.5117 36.209 13.6606 36.209 15.0779L36.209 20.9434C36.209 22.3607 35.0771 23.5096 33.6809 23.5096C32.2847 23.5096 31.1528 22.3607 31.1528 20.9434L31.1528 15.0779C31.1528 13.6606 32.2847 12.5117 33.6809 12.5117Z" fill="url(#paint1_angular_4187_16018)"/>
<path id="Vector 18 (Stroke)" fill-rule="evenodd" clip-rule="evenodd" d="M14.9004 19.1096C14.9004 17.6924 16.0323 16.5435 17.4285 16.5435H23.207C24.6032 16.5435 25.7351 17.6924 25.7351 19.1096C25.7351 20.5269 24.6032 21.6758 23.207 21.6758H17.4285C16.0323 21.6758 14.9004 20.5269 14.9004 19.1096Z" fill="url(#paint2_angular_4187_16018)"/>
<path id="Vector 17 (Stroke)" fill-rule="evenodd" clip-rule="evenodd" d="M17.8152 28.371C16.9748 27.2493 15.3986 27.025 14.2863 27.8718C13.1693 28.7221 12.9429 30.3306 13.7807 31.4644C13.787 31.4729 13.7814 31.4654 13.7821 31.4664L13.7836 31.4684L13.787 31.4729L13.7947 31.4833C13.8004 31.4908 13.807 31.4996 13.8147 31.5097C13.8299 31.5297 13.8491 31.5546 13.8723 31.584C13.9186 31.6428 13.9807 31.7198 14.0587 31.8124C14.2145 31.9975 14.4344 32.2458 14.7184 32.5358C15.2851 33.1144 16.1157 33.8682 17.2107 34.6182C19.4086 36.1234 22.6914 37.6232 26.999 37.6232C31.3066 37.6232 34.5894 36.1234 36.7873 34.6182C37.8823 33.8682 38.713 33.1144 39.2796 32.5358C39.5637 32.2458 39.7836 31.9975 39.9394 31.8124C40.0173 31.7198 40.0795 31.6428 40.1257 31.584C40.1489 31.5546 40.1991 31.4885 40.2144 31.4684C40.222 31.4584 40.2174 31.4644 40.2033 31.4833L40.2111 31.4729L40.2144 31.4684L40.2159 31.4664C40.2166 31.4654 40.2111 31.4729 40.2144 31.4684L40.2174 31.4644C41.0551 30.3306 40.8287 28.7221 39.7117 27.8718C38.5994 27.025 37.0233 27.2493 36.1829 28.371C36.1814 28.3728 36.1789 28.3761 36.1752 28.3807C36.1623 28.3971 36.1358 28.4303 36.0956 28.4781C36.0151 28.5737 35.8809 28.7264 35.6937 28.9175C35.318 29.3012 34.7379 29.8305 33.9594 30.3636C32.4103 31.4246 30.0951 32.4909 26.999 32.4909C23.9029 32.4909 21.5878 31.4246 20.0387 30.3636C19.2602 29.8305 18.68 29.3012 18.3043 28.9175C18.1171 28.7264 17.983 28.5737 17.9024 28.4781C17.8623 28.4303 17.8357 28.3971 17.8228 28.3807C17.8192 28.3761 17.8166 28.3728 17.8152 28.371ZM36.1753 28.381L36.175 28.3815L36.1737 28.3832C36.1731 28.3841 36.1724 28.385 36.1724 28.385C36.1734 28.3837 36.1744 28.3824 36.1753 28.381Z" fill="url(#paint3_angular_4187_16018)"/>
</g>
</g>
<defs>
<filter id="filter0_d_4187_16018" x="0" y="0" width="54" height="54" filterUnits="userSpaceOnUse" color-interpolation-filters="sRGB">
<feFlood flood-opacity="0" result="BackgroundImageFix"/>
<feColorMatrix in="SourceAlpha" type="matrix" values="0 0 0 0 0 0 0 0 0 0 0 0 0 0 0 0 0 0 127 0" result="hardAlpha"/>
<feOffset dy="2"/>
<feGaussianBlur stdDeviation="1"/>
<feComposite in2="hardAlpha" operator="out"/>
<feColorMatrix type="matrix" values="0 0 0 0 0 0 0 0 0 0 0 0 0 0 0 0 0 0 0.05 0"/>
<feBlend mode="normal" in2="BackgroundImageFix" result="effect1_dropShadow_4187_16018"/>
<feBlend mode="normal" in="SourceGraphic" in2="effect1_dropShadow_4187_16018" result="shape"/>
</filter>
<radialGradient id="paint0_radial_4187_16018" cx="0" cy="0" r="1" gradientUnits="userSpaceOnUse" gradientTransform="translate(21.5194 -37.0728) rotate(77.074) scale(48.5135)">
<stop stop-color="#00DBFF"/>
<stop offset="1" stop-color="#00DBFF" stop-opacity="0"/>
</radialGradient>
<radialGradient id="paint1_angular_4187_16018" cx="0" cy="0" r="1" gradientUnits="userSpaceOnUse" gradientTransform="translate(27.1289 23.5096) rotate(-9.82972) scale(13.2069 16.1639)">
<stop offset="0.0576364" stop-color="#FF291F"/>
<stop offset="0.308435" stop-color="#00CBEC"/>
<stop offset="0.642062" stop-color="#A112FF"/>
<stop offset="0.744128" stop-color="#7048E8"/>
<stop offset="0.876835" stop-color="#FF5543"/>
</radialGradient>
<radialGradient id="paint2_angular_4187_16018" cx="0" cy="0" r="1" gradientUnits="userSpaceOnUse" gradientTransform="translate(27.8755 23.8407) rotate(-168.642) scale(10.9936 11.0937)">
<stop offset="0.00948703" stop-color="#A112FF"/>
<stop offset="0.308138" stop-color="#FA524E"/>
<stop offset="0.961681" stop-color="#7048E8"/>
</radialGradient>
<radialGradient id="paint3_angular_4187_16018" cx="0" cy="0" r="1" gradientUnits="userSpaceOnUse" gradientTransform="translate(26.999 22.3472) rotate(-0.445512) scale(13.7245 12.7197)">
<stop offset="0.00481802" stop-color="#7048E8"/>
<stop offset="0.417018" stop-color="#00CBEC"/>
<stop offset="0.642062" stop-color="#A112FF"/>
<stop offset="1" stop-color="#FF5543"/>
</radialGradient>
</defs>
</svg>
