<svg width="83" height="83" viewBox="0 0 83 83" fill="none" xmlns="http://www.w3.org/2000/svg">
<circle cx="41.5" cy="41.5" r="41.5" fill="white"/>
<circle cx="41.5" cy="41.5" r="41.5" fill="url(#paint0_radial_431_7515)" fill-opacity="0.6"/>
<path d="M27.3438 56L19.1837 29.84H24.1038L27.7838 43C28.2104 44.4667 28.5971 45.88 28.9438 47.24C29.2904 48.6 29.6771 50.0267 30.1038 51.52H30.2638C30.7171 50.0267 31.1038 48.6 31.4238 47.24C31.7704 45.88 32.1438 44.4667 32.5438 43L36.1838 29.84H40.9438L32.8238 56H27.3438ZM43.1091 56V29.84H51.4691C53.2824 29.84 54.8824 30.04 56.2691 30.44C57.6824 30.84 58.7891 31.52 59.5891 32.48C60.4157 33.4133 60.8291 34.68 60.8291 36.28C60.8291 37.5067 60.5091 38.6667 59.8691 39.76C59.2291 40.8267 58.3357 41.56 57.1891 41.96V42.12C58.6291 42.44 59.8157 43.12 60.7491 44.16C61.7091 45.1733 62.1891 46.56 62.1891 48.32C62.1891 50.0533 61.7491 51.4933 60.8691 52.64C60.0157 53.7867 58.8291 54.64 57.3091 55.2C55.7891 55.7333 54.0691 56 52.1491 56H43.1091ZM47.7491 40.64H51.0691C52.8824 40.64 54.2024 40.3067 55.0291 39.64C55.8557 38.9733 56.2691 38.08 56.2691 36.96C56.2691 35.68 55.8424 34.7733 54.9891 34.24C54.1357 33.7067 52.8557 33.44 51.1491 33.44H47.7491V40.64ZM47.7491 52.4H51.6691C53.5891 52.4 55.0691 52.0533 56.1091 51.36C57.1491 50.64 57.6691 49.5467 57.6691 48.08C57.6691 46.6933 57.1624 45.6933 56.1491 45.08C55.1357 44.44 53.6424 44.12 51.6691 44.12H47.7491V52.4Z" fill="white"/>
<defs>
<radialGradient id="paint0_radial_431_7515" cx="0" cy="0" r="1" gradientUnits="userSpaceOnUse" gradientTransform="translate(44.4396 90.3009) rotate(-90) scale(95.1042 95.1042)">
<stop stop-color="#FF5543"/>
<stop offset="1" stop-color="#A112FF"/>
</radialGradient>
</defs>
</svg>
