<svg width="100" height="100" viewBox="0 0 100 100" fill="none" xmlns="http://www.w3.org/2000/svg">
<rect x="0.5" y="0.5" width="99" height="99" rx="14.5" fill="#F5F7FB" stroke="#E4E9F4"/>
<path d="M39.4776 19.8181H58.4637L38.7543 78.2149C38.5517 78.815 38.1661 79.3364 37.6516 79.7058C37.1372 80.0752 36.5198 80.2739 35.8865 80.2741H21.1106C20.6308 80.2741 20.1578 80.1599 19.7308 79.9409C19.3039 79.7219 18.9352 79.4044 18.6553 79.0146C18.3754 78.6248 18.1923 78.174 18.1212 77.6994C18.0502 77.2249 18.0931 76.7402 18.2465 76.2855L36.6091 21.8773C36.8116 21.277 37.1973 20.7553 37.7119 20.3857C38.2265 20.0162 38.8441 19.8181 39.4776 19.8181Z" fill="url(#paint0_linear_171_1032)"/>
<path d="M67.0672 58.9867H36.9599C36.68 58.9864 36.4065 59.0704 36.175 59.2277C35.9435 59.3851 35.7648 59.6085 35.6621 59.8689C35.5594 60.1293 35.5375 60.4146 35.5993 60.6876C35.661 60.9606 35.8036 61.2087 36.0084 61.3995L55.3546 79.4566C55.9179 79.982 56.6595 80.2741 57.4298 80.274H74.4777L67.0672 58.9867Z" fill="#0078D4"/>
<path d="M39.4777 19.818C38.8372 19.8156 38.2127 20.018 37.6955 20.3956C37.1782 20.7733 36.7953 21.3065 36.6026 21.9173L18.2691 76.2358C18.1054 76.6922 18.054 77.1812 18.1193 77.6616C18.1845 78.142 18.3646 78.5996 18.6441 78.9957C18.9236 79.3918 19.2944 79.7148 19.7252 79.9373C20.1559 80.1598 20.6339 80.2753 21.1187 80.2739H36.2759C36.8404 80.1731 37.368 79.9242 37.8049 79.5527C38.2417 79.1812 38.5721 78.7004 38.7623 78.1594L42.4184 67.3845L55.4778 79.5652C56.025 80.0179 56.7115 80.2682 57.4217 80.2739H74.4062L66.957 58.9867L45.2417 58.9918L58.5322 19.818H39.4777Z" fill="url(#paint1_linear_171_1032)"/>
<path d="M63.7275 21.8744C63.5253 21.275 63.1401 20.7542 62.6263 20.3853C62.1125 20.0164 61.4958 19.818 60.8633 19.8181H39.7036C40.3361 19.8182 40.9527 20.0166 41.4665 20.3855C41.9803 20.7543 42.3655 21.2751 42.5678 21.8744L60.9311 76.2848C61.0846 76.7396 61.1276 77.2243 61.0566 77.699C60.9856 78.1737 60.8026 78.6247 60.5227 79.0146C60.2428 79.4045 59.8741 79.7222 59.447 79.9413C59.02 80.1604 58.5469 80.2748 58.0669 80.2748H79.2274C79.7073 80.2746 80.1803 80.1602 80.6072 79.9411C81.0341 79.7219 81.4027 79.4042 81.6826 79.0143C81.9624 78.6244 82.1453 78.1735 82.2163 77.6988C82.2873 77.2242 82.2443 76.7395 82.0908 76.2848L63.7275 21.8744Z" fill="url(#paint2_linear_171_1032)"/>
<defs>
<linearGradient id="paint0_linear_171_1032" x1="46.3974" y1="24.2981" x2="26.68" y2="82.5483" gradientUnits="userSpaceOnUse">
<stop stop-color="#114A8B"/>
<stop offset="1" stop-color="#0669BC"/>
</linearGradient>
<linearGradient id="paint1_linear_171_1032" x1="52.5567" y1="51.4442" x2="47.9958" y2="52.9863" gradientUnits="userSpaceOnUse">
<stop stop-opacity="0.3"/>
<stop offset="0.071" stop-opacity="0.2"/>
<stop offset="0.321" stop-opacity="0.1"/>
<stop offset="0.623" stop-opacity="0.05"/>
<stop offset="1" stop-opacity="0"/>
</linearGradient>
<linearGradient id="paint2_linear_171_1032" x1="50.0483" y1="22.5992" x2="71.6922" y2="80.2624" gradientUnits="userSpaceOnUse">
<stop stop-color="#3CCBF4"/>
<stop offset="1" stop-color="#2892DF"/>
</linearGradient>
</defs>
</svg>
