<svg width="100" height="100" viewBox="0 0 100 100" fill="none" xmlns="http://www.w3.org/2000/svg">
<rect x="0.5" y="0.5" width="99" height="99" rx="14.5" fill="#F5F7FB" stroke="#E4E9F4"/>
<path d="M71.981 59.4417C71.8646 59.0031 71.6763 58.587 71.4238 58.21C71.4779 58.0116 71.5192 57.8099 71.5467 57.6061C71.7261 56.3129 71.2777 55.129 70.4329 54.213C69.9753 53.7127 69.4847 53.3823 68.9651 53.1795C69.3062 51.7204 69.4786 50.227 69.4795 48.7287C69.4795 48.0443 69.4408 47.3739 69.3758 46.7134C69.3421 46.3837 69.3012 46.0547 69.2531 45.7267C69.1045 44.7588 68.8838 43.8032 68.5929 42.8681C68.4023 42.2537 68.1818 41.649 67.9321 41.056C67.5579 40.178 67.121 39.3279 66.6248 38.5125C66.2994 37.97 65.9449 37.4455 65.563 36.9411C65.3758 36.6864 65.1808 36.4377 64.9779 36.1954C64.3767 35.4649 63.7234 34.7788 63.0232 34.1427C62.7905 33.9288 62.5514 33.7223 62.3058 33.5234C62.0641 33.3218 61.817 33.1267 61.5649 32.9382C61.0574 32.5605 60.5331 32.2062 59.9934 31.8764C57.0113 30.0652 53.5142 29.0265 49.7764 29.0265C38.8935 29.0265 30.0733 37.8471 30.0733 48.7294C30.0729 50.2467 30.2486 51.7589 30.597 53.2356C30.1296 53.4385 29.6816 53.7549 29.2662 54.2126C28.4216 55.1281 27.973 56.3077 28.1524 57.6009C28.1796 57.8062 28.2205 58.0096 28.2751 58.2096C28.0228 58.5868 27.8346 59.0031 27.7183 59.4417C27.4586 60.4287 27.5441 61.3187 27.8741 62.0986C27.5153 63.1178 27.6049 64.2033 28.0721 65.1469C28.4118 65.8362 28.8981 66.3694 29.4975 66.8459C30.2101 67.4124 31.102 67.8936 32.178 68.3554C33.4616 68.9029 35.0285 69.4173 35.7411 69.606C37.5817 70.0825 39.3467 70.3845 41.1354 70.3993C43.6838 70.4229 45.8785 69.8237 47.4497 68.2901C48.2216 68.3846 48.9987 68.432 49.7764 68.4316C50.598 68.4299 51.4188 68.3781 52.2342 68.2769C53.8018 69.8202 56.0049 70.4248 58.5626 70.4006C60.3511 70.3863 62.116 70.0842 63.9519 69.607C64.6693 69.4184 66.2355 68.904 67.5198 68.3565C68.5957 67.8941 69.4877 67.4128 70.2051 66.8472C70.7999 66.3704 71.2857 65.8375 71.6257 65.1483C72.0976 64.2043 72.1825 63.1189 71.8287 62.0997C72.1554 61.3198 72.2405 60.4278 71.981 59.4417ZM70.1546 62.0326C70.5162 62.7188 70.5394 63.4941 70.2204 64.2162C69.7366 65.3105 68.5347 66.1727 66.2005 67.0982C64.7489 67.6738 63.4198 68.0419 63.4081 68.0451C61.4883 68.543 59.7519 68.796 58.2489 68.796C55.7599 68.796 53.9078 68.1092 52.7332 66.7528C50.7469 67.0912 48.7189 67.1027 46.7289 66.787C45.5528 68.1208 43.7113 68.796 41.2433 68.796C39.7401 68.796 38.0039 68.543 36.0839 68.0451C36.0722 68.0419 34.7435 67.6738 33.2915 67.0982C30.9575 66.1727 29.7552 65.3112 29.2716 64.2162C28.9526 63.4941 28.9758 62.7188 29.3374 62.0326C29.3707 61.9688 29.4066 61.9067 29.4449 61.8465C29.2282 61.5211 29.0829 61.1534 29.0184 60.7676C28.9539 60.382 28.9719 59.987 29.071 59.6088C29.2147 59.0628 29.5113 58.6088 29.9143 58.2827C29.7202 57.9638 29.5928 57.6089 29.5399 57.2393C29.4239 56.4356 29.6907 55.6332 30.2908 54.9788C30.7582 54.4696 31.4188 54.1894 32.1503 54.1894H32.1697C31.6183 52.4217 31.3386 50.5804 31.3405 48.7287C31.3405 38.6294 39.528 30.4413 49.6288 30.4413C59.7294 30.4413 67.9169 38.6285 67.9169 48.7287C67.9184 50.5854 67.6369 52.4314 67.0818 54.2033C67.1701 54.1946 67.2567 54.1903 67.3417 54.1901C68.0731 54.1901 68.734 54.4703 69.201 54.9795C69.8011 55.6332 70.0681 56.4362 69.9519 57.2399C69.8991 57.6095 69.7716 57.9644 69.5777 58.2834C69.9807 58.6095 70.2775 59.0635 70.421 59.6094C70.5201 59.9877 70.5381 60.3826 70.4736 60.7684C70.4093 61.154 70.2639 61.5217 70.0471 61.8472C70.0854 61.9067 70.1217 61.9688 70.1546 62.0326Z" fill="white"/>
<path d="M70.0471 61.8472C70.2639 61.5218 70.4094 61.1541 70.4738 60.7685C70.5381 60.3827 70.5202 59.9877 70.421 59.6095C70.2774 59.0635 69.9805 58.6095 69.5778 58.2834C69.7719 57.9645 69.8991 57.6096 69.9519 57.24C70.0681 56.4363 69.8013 55.6339 69.201 54.9795C68.734 54.4703 68.0732 54.1901 67.3418 54.1901C67.2567 54.1901 67.1702 54.1947 67.0819 54.2033C67.6363 52.4315 67.9174 50.5856 67.9154 48.7292C67.9154 38.6297 59.7279 30.4418 49.6282 30.4418C39.5282 30.4418 31.3399 38.6288 31.3399 48.7292C31.338 50.5809 31.6177 52.4222 32.1691 54.1899H32.1496C31.4182 54.1899 30.7576 54.4699 30.2904 54.9791C29.6903 55.6328 29.4233 56.4361 29.5395 57.2395C29.5924 57.6091 29.7198 57.9642 29.9138 58.2832C29.5109 58.6091 29.214 59.0631 29.0703 59.609C28.9713 59.9875 28.9534 60.3824 29.018 60.7683C29.0825 61.1539 29.2279 61.5218 29.4447 61.8472C29.4062 61.9074 29.3707 61.9695 29.3371 62.0333C28.9758 62.7195 28.9524 63.4948 29.2716 64.2169C29.7555 65.3112 30.9573 66.1734 33.2915 67.0989C34.7429 67.6745 36.0722 68.0426 36.0839 68.0458C38.0037 68.5437 39.7401 68.7967 41.2432 68.7967C43.7113 68.7967 45.5528 68.1216 46.729 66.7877C48.7189 67.1034 50.747 67.0917 52.7332 66.7535C53.9078 68.1099 55.7599 68.7967 58.2489 68.7967C59.752 68.7967 61.4883 68.5437 63.4079 68.0458C63.4198 68.0426 64.7485 67.6745 66.2005 67.0989C68.5347 66.1734 69.7368 65.3112 70.2204 64.2169C70.5394 63.4948 70.5163 62.7195 70.1547 62.0333C70.1218 61.969 70.0854 61.9067 70.0471 61.8472ZM45.8874 64.6995C45.7861 64.8765 45.6777 65.0494 45.5624 65.2175C45.2583 65.6627 44.8584 66.0028 44.3943 66.2556C43.507 66.7394 42.384 66.9084 41.2432 66.9084C39.4408 66.9084 37.5932 66.4867 36.5578 66.2181C36.5067 66.2049 30.2101 64.4264 31.0073 62.9125C31.1415 62.6578 31.3622 62.5561 31.6402 62.5561C32.7627 62.5561 34.8065 64.2275 35.6848 64.2275C35.8811 64.2275 36.0196 64.144 36.0761 63.9402C36.4504 62.5977 30.3864 62.0333 30.8971 60.0892C30.9871 59.7452 31.2317 59.6054 31.5753 59.6054C33.0594 59.6052 36.3901 62.2151 37.0867 62.2151C37.1401 62.2151 37.1784 62.1993 37.1992 62.1664C37.2022 62.1614 37.2052 62.1567 37.2081 62.1515C37.535 61.6116 37.3474 61.219 35.1075 59.8471L34.8924 59.7162C32.4275 58.2243 30.6974 57.3265 31.6813 56.2554C31.7945 56.1318 31.9551 56.0771 32.15 56.0771C32.3812 56.0771 32.6609 56.1543 32.9691 56.2842C34.2709 56.8331 36.0752 58.3304 36.8289 58.9832C36.9475 59.0862 37.0653 59.1903 37.1823 59.2951C37.1823 59.2951 38.1366 60.2874 38.7135 60.2874C38.8464 60.2874 38.9591 60.2351 39.0355 60.1057C39.4447 59.4158 35.235 56.2257 34.9976 54.9094C34.8366 54.0176 35.1105 53.5658 35.6169 53.5658C35.8577 53.5658 36.1516 53.6684 36.476 53.8742C37.4822 54.5128 39.425 57.8513 40.1363 59.1501C40.3747 59.5852 40.7818 59.7692 41.1486 59.7692C41.8763 59.7692 42.4452 59.0458 41.2152 58.1265C39.3666 56.7433 40.0153 54.4825 40.8976 54.3433C40.9352 54.3373 40.9733 54.3342 41.0112 54.3342C41.8135 54.3342 42.1673 55.7168 42.1673 55.7168C42.1673 55.7168 43.2047 58.3217 44.9868 60.1024C46.6037 61.7187 46.8296 63.0449 45.8874 64.6995ZM51.6497 65.0046L51.5573 65.0156L51.3998 65.0336C51.3169 65.0423 51.2338 65.0505 51.1505 65.0581L51.0694 65.0654L50.9952 65.0717L50.89 65.0801L50.7738 65.0886L50.6578 65.0961L50.632 65.0979C50.6018 65.0996 50.5715 65.1016 50.5407 65.1031L50.502 65.1052C50.4661 65.1072 50.4302 65.1089 50.3938 65.1104L50.2681 65.1158L50.154 65.1197L50.0779 65.1219H50.0391C50.0153 65.1219 49.9917 65.1232 49.9679 65.1234H49.9303C49.9065 65.1234 49.8829 65.1234 49.8591 65.1245L49.7621 65.1258H49.6269C49.5206 65.1258 49.4146 65.1247 49.309 65.1225L49.2233 65.1206C49.1989 65.1206 49.1744 65.1195 49.1504 65.1187L49.0595 65.1161L48.9468 65.1117L48.8451 65.1072L48.8189 65.1061L48.7222 65.1011C48.6951 65.0996 48.6685 65.0983 48.6417 65.0964L48.5791 65.0927C48.5006 65.0877 48.422 65.0823 48.3435 65.0762L48.2612 65.0695C48.2266 65.0669 48.192 65.0637 48.1576 65.0607C48.1171 65.0572 48.0767 65.0533 48.0362 65.0494C47.9685 65.0431 47.9007 65.0362 47.833 65.0288H47.8297C48.8187 62.8227 48.3186 60.7622 46.3202 58.7655C45.0095 57.4566 44.1376 55.5237 43.9567 55.0994C43.5906 53.8432 42.6216 52.4468 41.0123 52.4468C40.8761 52.4468 40.7403 52.4577 40.6059 52.4789C39.9009 52.5899 39.2846 52.9956 38.8449 53.6063C38.3697 53.0153 37.9079 52.5455 37.4902 52.2802C36.8605 51.881 36.2321 51.6784 35.6199 51.6784C34.8558 51.6784 34.1729 51.9922 33.6968 52.5613L33.6847 52.5758C33.6756 52.5384 33.667 52.5009 33.6581 52.4633L33.657 52.4583C33.5664 52.071 33.4903 51.6804 33.4289 51.2872C33.4289 51.2846 33.4289 51.282 33.4276 51.2794C33.4229 51.2498 33.4185 51.2199 33.414 51.1902C33.4007 51.1024 33.3882 51.0143 33.3766 50.9262C33.3714 50.8862 33.3657 50.8462 33.3608 50.8061L33.3461 50.686C33.3413 50.646 33.3374 50.6097 33.3331 50.5716L33.3318 50.562C33.3145 50.4062 33.2994 50.2504 33.2863 50.0942L33.2816 50.0343L33.274 49.9321C33.2718 49.9042 33.2697 49.8761 33.2682 49.848C33.2682 49.8412 33.2671 49.8348 33.2669 49.8285C33.2614 49.7501 33.2567 49.6716 33.2528 49.593C33.2506 49.5521 33.2485 49.5115 33.2467 49.4703L33.2424 49.363L33.2413 49.3306L33.2379 49.2317L33.2357 49.1475C33.2357 49.1139 33.234 49.0804 33.2335 49.0469C33.2329 49.0133 33.232 48.9765 33.2318 48.941C33.2314 48.9056 33.2318 48.8705 33.2307 48.8352C33.2298 48.7997 33.2307 48.7645 33.2307 48.7292C33.2307 39.6725 40.5732 32.33 49.6308 32.33C58.6882 32.33 66.0304 39.6723 66.0304 48.7292V48.941C66.0304 48.9763 66.0293 49.0118 66.0287 49.0469C66.0287 49.0761 66.0274 49.1049 66.0265 49.1345C66.0265 49.1605 66.0254 49.1867 66.0246 49.2118C66.0246 49.2449 66.0226 49.278 66.0215 49.3111V49.3137L66.017 49.4286C66.0155 49.4621 66.0142 49.4959 66.0125 49.5294L66.0114 49.5532L66.0055 49.6606C65.9928 49.8906 65.9752 50.1202 65.9534 50.3496V50.3524C65.9497 50.39 65.946 50.4277 65.9419 50.4653L65.9322 50.5543L65.9129 50.7282L65.9019 50.8163L65.8882 50.92C65.8833 50.9576 65.8783 50.9955 65.8727 51.0329C65.867 51.0751 65.8608 51.1171 65.8545 51.1591L65.8396 51.2584L65.8218 51.3709C65.8158 51.4084 65.8093 51.4456 65.8023 51.4828C65.7952 51.5202 65.7896 51.5575 65.7831 51.5947C65.7701 51.6691 65.7565 51.7436 65.7422 51.8178C65.7203 51.9288 65.698 52.0396 65.6751 52.1504L65.6513 52.2601C65.6435 52.2967 65.6351 52.3335 65.6268 52.37C65.1653 51.9214 64.554 51.6771 63.8799 51.6771C63.2681 51.6771 62.6391 51.8795 62.0096 52.2787C61.592 52.544 61.1304 53.014 60.655 53.6048C60.2146 52.9941 59.5983 52.5884 58.8937 52.4774C58.7594 52.4562 58.6235 52.4453 58.4874 52.4453C56.8776 52.4453 55.9092 53.8417 55.5429 55.0979C55.3611 55.5222 54.489 57.4551 53.1773 58.766C51.1802 60.7564 50.6764 62.8076 51.6497 65.0046ZM68.5806 60.5882L68.5741 60.6075C68.5577 60.651 68.5386 60.6934 68.5172 60.7345C68.501 60.7648 68.4835 60.7942 68.4644 60.8228C68.4283 60.8767 68.3887 60.9282 68.3456 60.9767C68.3357 60.9879 68.3261 60.9992 68.3149 61.0102C68.2993 61.0269 68.2835 61.0433 68.2673 61.0593C67.976 61.348 67.532 61.6012 67.0299 61.8334C66.973 61.8591 66.9152 61.8849 66.857 61.9108L66.799 61.9366C66.7603 61.9537 66.7216 61.9706 66.6809 61.9872C66.6422 62.0041 66.6019 62.021 66.5617 62.0374L66.4409 62.0872C66.1585 62.2034 65.8692 62.3142 65.587 62.4235L65.4663 62.4704L65.347 62.5172C65.2676 62.5481 65.1893 62.5791 65.1123 62.61L64.9973 62.6563L64.8844 62.7024L64.829 62.7258C64.792 62.7411 64.7559 62.7565 64.7197 62.7719C63.8894 63.1283 63.292 63.4907 63.4175 63.9404C63.4209 63.9532 63.4248 63.9653 63.4291 63.9772C63.4404 64.0105 63.4558 64.0419 63.475 64.0715C63.4863 64.0891 63.4993 64.1057 63.5138 64.1209C63.6613 64.2743 63.9299 64.25 64.2685 64.1282C64.3161 64.1107 64.3635 64.0925 64.4105 64.0735L64.4399 64.0614C64.5174 64.0285 64.5994 63.9917 64.6831 63.9519C64.7041 63.9419 64.7253 63.9324 64.7465 63.9213C65.1607 63.7188 65.6301 63.4461 66.0958 63.1979C66.2821 63.0973 66.471 63.0019 66.6623 62.9112C67.1033 62.7037 67.5179 62.5565 67.8512 62.5565C68.0076 62.5565 68.1457 62.5886 68.2608 62.6621L68.28 62.6749C68.3523 62.7258 68.4129 62.7911 68.4581 62.8669C68.467 62.8814 68.4757 62.8967 68.4841 62.9125C68.6488 63.2252 68.5109 63.5489 68.1883 63.8664C67.8786 64.1713 67.3969 64.4701 66.8495 64.7467C66.8088 64.7672 66.7681 64.7878 66.7268 64.8079C65.0973 65.6081 62.9635 66.2108 62.9338 66.2184C62.3651 66.3657 61.5519 66.5592 60.6357 66.704L60.5003 66.7252L60.478 66.7284C60.3754 66.744 60.2726 66.7585 60.1696 66.7719C60.0651 66.786 59.9595 66.7987 59.8532 66.8106L59.8338 66.8128C59.4486 66.8572 59.0619 66.8866 58.6743 66.9007H58.6687C58.5285 66.9056 58.3885 66.9082 58.2482 66.9082H58.0866C57.8728 66.9054 57.6594 66.8957 57.4463 66.8792C57.4413 66.8792 57.4359 66.8792 57.4309 66.8779C57.3545 66.8721 57.2784 66.8649 57.2022 66.8565C57.1232 66.8481 57.0444 66.8385 56.9659 66.8279C56.9142 66.821 56.8627 66.8132 56.8112 66.8048C56.7588 66.7964 56.7064 66.7877 56.6543 66.7786L56.5831 66.7652L56.5777 66.7641C56.5026 66.7498 56.4279 66.734 56.3535 66.7167C56.3102 66.707 56.2672 66.6975 56.2245 66.6858L56.1988 66.6793C56.1776 66.6741 56.157 66.6685 56.136 66.6628L56.1246 66.6598L56.0579 66.6403C56.0337 66.6336 56.0094 66.6263 55.9852 66.6191L55.9768 66.6167L55.9138 66.5975C55.89 66.5901 55.8662 66.5823 55.8426 66.5746L55.7846 66.5553L55.742 66.5404C55.7009 66.5259 55.66 66.5109 55.6195 66.4953L55.581 66.4802L55.5492 66.4677C55.4877 66.443 55.4267 66.4172 55.3663 66.3902L55.3263 66.3707L55.3196 66.3677C55.3053 66.361 55.2912 66.3543 55.2769 66.3484C55.249 66.335 55.2213 66.3212 55.1938 66.3071L55.1854 66.303L55.1456 66.282C55.0748 66.245 55.0056 66.2056 54.9376 66.1638L54.9004 66.1409C54.8818 66.1294 54.8632 66.1175 54.845 66.1054L54.7965 66.0734L54.7444 66.0375L54.7132 66.0152C54.6803 65.9918 54.6481 65.9676 54.6165 65.9427L54.5661 65.9039C54.546 65.8877 54.5261 65.8713 54.5064 65.8546C54.4897 65.841 54.4735 65.8267 54.4572 65.8124L54.4559 65.8113C54.4384 65.796 54.4213 65.7806 54.4042 65.7648C54.3873 65.7494 54.3705 65.7339 54.354 65.7181L54.3521 65.7161C54.3348 65.6997 54.3179 65.683 54.3012 65.6659C54.2846 65.649 54.2675 65.6322 54.2512 65.6148C54.235 65.5977 54.2183 65.5802 54.2023 65.5623C54.1863 65.5445 54.1716 65.5283 54.1565 65.5108L54.1515 65.5049C54.1368 65.488 54.1223 65.4709 54.108 65.4534C54.077 65.4164 54.047 65.3785 54.018 65.3398C53.9887 65.3009 53.9602 65.261 53.9323 65.2206L53.9056 65.1808C53.8702 65.1288 53.8355 65.0765 53.802 65.0232C53.7769 64.9849 53.7524 64.9464 53.7286 64.9072C53.7133 64.8828 53.6986 64.8581 53.6838 64.8339L53.6778 64.8239C53.6637 64.8001 53.6499 64.7767 53.6365 64.7532C53.6287 64.7404 53.6213 64.7276 53.6144 64.7144C53.6072 64.701 53.599 64.6874 53.5914 64.6737L53.5791 64.6523L53.5715 64.6385C53.557 64.6125 53.5428 64.5863 53.5289 64.5599C53.5224 64.5482 53.5161 64.5366 53.5094 64.5253L53.4902 64.4879L53.4707 64.4509C53.422 64.3535 53.3759 64.2548 53.3326 64.1548L53.3173 64.1183C53.3073 64.0938 53.298 64.0696 53.2881 64.0456C53.2833 64.0339 53.2785 64.0224 53.2744 64.0107C53.2513 63.9508 53.2296 63.8902 53.2097 63.8292C53.2026 63.8073 53.1957 63.7859 53.1892 63.7642C53.1736 63.7151 53.1595 63.6656 53.147 63.6156C53.1316 63.5574 53.118 63.4987 53.1065 63.4397C53.1041 63.4277 53.1017 63.4158 53.0998 63.4044C53.0885 63.3466 53.0795 63.2884 53.0723 63.23C53.0706 63.2185 53.0693 63.207 53.068 63.1956L53.0643 63.1605C53.0595 63.1146 53.0559 63.0685 53.0537 63.0224C53.0537 63.0108 53.0526 62.9991 53.0522 62.9878C53.0511 62.9649 53.0507 62.9419 53.0505 62.919C53.0383 61.9944 53.5062 61.1054 54.5066 60.1055C56.2886 58.3252 57.326 55.72 57.326 55.72C57.326 55.72 57.3539 55.6107 57.4119 55.4534C57.4199 55.4316 57.4283 55.4091 57.4378 55.3855C57.4716 55.2974 57.5097 55.2108 57.5519 55.1264L57.5603 55.1102C57.5962 55.0384 57.6356 54.9683 57.678 54.9001C57.688 54.8843 57.6975 54.8687 57.7086 54.8529C57.7404 54.806 57.7739 54.7601 57.8092 54.7157C57.8284 54.6917 57.8494 54.6679 57.8704 54.6448C57.8789 54.6357 57.8871 54.6266 57.896 54.6179C57.9992 54.5112 58.1171 54.4242 58.2506 54.3779L58.2675 54.3723C58.2788 54.3686 58.29 54.3652 58.3015 54.3619C58.3147 54.3585 58.3279 54.3554 58.3415 54.3526L58.3478 54.3513C58.3759 54.3457 58.4045 54.342 58.4333 54.3401H58.4356C58.4506 54.3401 58.4657 54.3386 58.4811 54.3386C58.5003 54.3386 58.5183 54.3386 58.5371 54.3405C58.5566 54.3422 58.5759 54.3444 58.5953 54.3474C58.7559 54.373 58.9087 54.4686 59.0402 54.6162C59.0902 54.6725 59.1352 54.733 59.1746 54.7971C59.2006 54.8386 59.225 54.8826 59.2482 54.9289C59.2575 54.9481 59.2664 54.9659 59.275 54.9849C59.2975 55.0338 59.3179 55.0836 59.3356 55.1345C59.3778 55.2535 59.4096 55.3759 59.4306 55.5006C59.4488 55.6099 59.4596 55.7202 59.4631 55.8308C59.4648 55.8899 59.4648 55.9498 59.4631 56.0102C59.4514 56.2911 59.3938 56.5683 59.2928 56.8308C59.2837 56.8548 59.2735 56.879 59.2638 56.9033C59.2439 56.9522 59.222 57.0002 59.1984 57.0472C59.1809 57.0829 59.1625 57.1188 59.1426 57.1545C59.1296 57.1783 59.116 57.2021 59.1023 57.2259C59.0675 57.2852 59.0299 57.3441 58.9894 57.4027L58.9649 57.4377C58.8693 57.571 58.7628 57.6961 58.6464 57.8117C58.5317 57.9266 58.4088 58.0328 58.2788 58.1298C58.1485 58.2263 58.0262 58.3332 57.9133 58.4494C57.588 58.7906 57.5123 59.0919 57.5854 59.3202C57.5971 59.3561 57.6125 59.3909 57.6311 59.4238C57.6529 59.4615 57.6789 59.4961 57.7083 59.5277L57.7198 59.5396L57.7315 59.5513C57.7432 59.5625 57.7555 59.5736 57.7687 59.5844L57.7817 59.5948C57.8131 59.619 57.8464 59.6406 57.8812 59.6597C57.8914 59.6651 57.9005 59.6705 57.912 59.6757C57.9496 59.6941 57.9884 59.7099 58.0282 59.7227C58.0392 59.7263 58.0502 59.7296 58.0615 59.733L58.0756 59.7367L58.095 59.7419L58.1117 59.746L58.1299 59.7499L58.1478 59.7536L58.1649 59.7564C58.1775 59.7586 58.1905 59.7607 58.2034 59.7623L58.2158 59.7642L58.2383 59.7664L58.2521 59.7679L58.2749 59.7694H58.2883L58.3121 59.7707H58.3869L58.4084 59.7694L58.433 59.7679L58.4631 59.7651L58.4913 59.7618C58.4977 59.7618 58.5042 59.7601 58.5107 59.7588C58.5973 59.7462 58.6821 59.7233 58.7633 59.6904L58.7977 59.6759C58.8169 59.6675 58.8364 59.6586 58.8541 59.6491C58.8922 59.63 58.9292 59.6084 58.9647 59.5848C59.0143 59.5524 59.061 59.516 59.1047 59.476C59.1151 59.4667 59.1253 59.4567 59.1352 59.4472C59.1402 59.4424 59.145 59.4379 59.1497 59.4327C59.1593 59.4229 59.169 59.4134 59.1785 59.4028C59.2478 59.3267 59.3077 59.2427 59.357 59.1525C59.7805 58.3823 60.2243 57.6236 60.6881 56.8773L60.7517 56.7754L60.816 56.6734C60.848 56.6217 60.8805 56.5709 60.9127 56.5202L60.9452 56.4696C61.0529 56.3008 61.1624 56.1331 61.2739 55.9667L61.3399 55.868C61.4723 55.6718 61.6043 55.4809 61.7352 55.2996L61.8003 55.2098C61.9427 55.0135 62.091 54.8213 62.2448 54.6339L62.3058 54.5608C62.316 54.5487 62.3253 54.5366 62.3364 54.5249C62.3565 54.5011 62.3766 54.4779 62.3963 54.4554C62.4062 54.4439 62.4156 54.4327 62.4262 54.4214L62.4841 54.3561L62.5131 54.3243C62.5424 54.2929 62.5709 54.2628 62.5991 54.234C62.6185 54.2146 62.6365 54.1953 62.6551 54.1771C62.7648 54.065 62.8858 53.9644 63.0163 53.8772L63.0466 53.8577C63.0756 53.8383 63.1056 53.8201 63.1364 53.8036C63.6479 53.5132 64.0714 53.4918 64.3153 53.7357C64.4629 53.8833 64.5447 54.128 64.5401 54.4686C64.5401 54.4835 64.5401 54.4987 64.539 54.5143V54.5309C64.539 54.5465 64.5377 54.5621 64.5364 54.5779C64.5364 54.5974 64.5343 54.6166 64.5323 54.6361C64.5304 54.6554 64.5293 54.6701 64.5273 54.6874C64.5273 54.6921 64.5265 54.6971 64.5256 54.7023C64.5243 54.7172 64.5224 54.7326 64.5202 54.748C64.5202 54.7525 64.5202 54.7573 64.5185 54.762C64.5161 54.7826 64.5131 54.8029 64.5096 54.8233C64.5072 54.8428 64.504 54.8609 64.5005 54.88L64.4949 54.9122C64.4893 54.9429 64.4821 54.9732 64.4732 55.0031C64.4564 55.0592 64.436 55.1139 64.412 55.1671C64.3785 55.2403 64.3415 55.3115 64.3008 55.3807C64.2783 55.4192 64.2551 55.4571 64.2311 55.4945C64.2064 55.5333 64.1805 55.5724 64.1536 55.612C64.0852 55.7098 64.0143 55.8057 63.9405 55.8994L63.9067 55.942C63.7864 56.092 63.6622 56.2389 63.5341 56.3824L63.4936 56.4278C63.4391 56.4886 63.3837 56.5499 63.327 56.6113L63.2844 56.6577C63.256 56.6886 63.2264 56.7195 63.1978 56.7507C63.1695 56.7816 63.1398 56.813 63.11 56.8444L63.021 56.9381L62.9308 57.0324L62.8399 57.1268C62.7789 57.19 62.7176 57.2532 62.656 57.3164C61.7785 58.2163 60.8541 59.1133 60.5412 59.6725C60.5202 59.7088 60.5013 59.7465 60.4845 59.7848C60.4399 59.8865 60.4213 59.9735 60.434 60.0438C60.4381 60.0669 60.4462 60.089 60.4581 60.1094C60.4756 60.1399 60.497 60.168 60.5219 60.1931C60.5334 60.2043 60.5455 60.2147 60.5582 60.2243C60.6227 60.2701 60.7004 60.2937 60.7796 60.2916H60.8043L60.8296 60.2896L60.8549 60.2868L60.8759 60.2838C60.8787 60.2833 60.8818 60.2829 60.8846 60.282L60.9038 60.2784L60.9088 60.2773L60.9302 60.2727L60.9378 60.2708C60.9454 60.2688 60.9527 60.2669 60.9603 60.2647C60.9679 60.2626 60.9783 60.2597 60.9874 60.2567C61.0254 60.2452 61.0627 60.2316 61.0992 60.216C61.1185 60.2082 61.1373 60.1998 61.1559 60.1907C61.1657 60.1864 61.1754 60.1818 61.1845 60.1771L61.2135 60.1628C61.2827 60.1269 61.3502 60.0877 61.416 60.0457L61.4448 60.0263C61.4546 60.0202 61.4643 60.0139 61.4736 60.007L61.5024 59.9877L61.5177 59.9771L61.5593 59.9479C61.598 59.9213 61.6342 59.8938 61.6707 59.8659L61.674 59.8633L61.7322 59.8183C61.8116 59.7555 61.8869 59.6924 61.9553 59.6328L62.0007 59.593L62.0048 59.5891L62.0286 59.5681C62.0845 59.5179 62.1342 59.4712 62.1756 59.4327L62.1927 59.416C62.2076 59.402 62.2212 59.3888 62.2336 59.3775L62.2578 59.3535L62.2665 59.345L62.2688 59.3427L62.2942 59.3173L62.3102 59.3007L62.3121 59.2992L62.3197 59.2922L62.3292 59.2836L62.3322 59.2808L62.3403 59.2734L62.3844 59.2347L62.4091 59.2126C62.4223 59.2011 62.435 59.1895 62.4478 59.1776L62.4772 59.1514C62.4826 59.147 62.4878 59.1423 62.4932 59.1375L62.5242 59.1105L62.5696 59.0704L62.5939 59.0495C62.688 58.9677 62.8025 58.8688 62.934 58.7573L62.9879 58.7117L63.0769 58.637L63.168 58.5611C63.287 58.4622 63.4151 58.3572 63.5505 58.2484L63.6395 58.177C63.7152 58.1166 63.7929 58.0551 63.8717 57.9932C63.9035 57.9683 63.9357 57.9435 63.9686 57.9188C64.0491 57.8563 64.13 57.7942 64.2116 57.7329C64.3973 57.5927 64.5888 57.4522 64.7827 57.3155L64.8658 57.2575C64.924 57.2175 64.982 57.1772 65.04 57.138L65.0926 57.1026C65.1962 57.0322 65.3014 56.9636 65.4074 56.8968L65.46 56.8637L65.5121 56.8312C65.5645 56.7987 65.6165 56.7669 65.6682 56.736L65.7199 56.705L65.8233 56.6449L65.9248 56.5867L65.9454 56.5754L66.0257 56.5313C66.0592 56.5131 66.0925 56.4956 66.1258 56.4785L66.1754 56.4529L66.2237 56.4287C66.2405 56.4207 66.2572 56.4123 66.2736 56.4043C66.3823 56.3506 66.4931 56.3013 66.6056 56.2562C66.6361 56.2433 66.6664 56.2316 66.6965 56.2214L66.7852 56.1902C66.8118 56.1814 66.8378 56.1729 66.8627 56.1654L66.8713 56.1628C66.8847 56.1584 66.8982 56.1545 66.9114 56.1511L66.9152 56.15C66.9429 56.142 66.9704 56.1351 66.9975 56.1286H66.9994C67.076 56.1102 67.1539 56.097 67.2325 56.089C67.2686 56.0853 67.3048 56.0833 67.3411 56.0836H67.3593C67.3835 56.0836 67.4069 56.0851 67.43 56.0875C67.4407 56.0875 67.4513 56.0896 67.4616 56.0909H67.466C67.4764 56.0922 67.4867 56.0937 67.4971 56.0961C67.5073 56.0981 67.5177 56.0998 67.5276 56.1022H67.5309C67.5411 56.1043 67.5501 56.1069 67.5608 56.11C67.6157 56.1253 67.6681 56.1491 67.7161 56.1803C67.7397 56.1957 67.7618 56.213 67.7821 56.2322L67.788 56.2378C67.7919 56.2413 67.7955 56.245 67.799 56.2487L67.8096 56.2601C67.8966 56.3512 67.9684 56.4558 68.0225 56.5696L68.0308 56.5891C68.0492 56.6323 68.0636 56.6771 68.074 56.7228C68.1048 56.8626 68.0929 57.0084 68.0398 57.1415C68.0197 57.1952 67.9953 57.2469 67.9665 57.2962C67.8992 57.4096 67.8193 57.515 67.7287 57.6104L67.7094 57.631C67.6806 57.6613 67.6508 57.6916 67.6194 57.7219C67.6055 57.7355 67.591 57.7489 67.5765 57.7626L67.5322 57.8035L67.509 57.824C67.4532 57.8738 67.3959 57.922 67.3377 57.9688C67.3024 57.9973 67.2669 58.0253 67.231 58.0527C67.1042 58.1497 66.975 58.2432 66.8434 58.3334C66.764 58.3879 66.6839 58.4414 66.6032 58.4942C66.4043 58.6247 66.2033 58.7519 66.0003 58.8757C65.5745 59.1375 65.1025 59.4175 64.5994 59.722L64.4691 59.801C64.3265 59.888 64.1919 59.9711 64.0651 60.0503L64.0013 60.0903L63.8805 60.1678C63.8005 60.2191 63.7206 60.2708 63.6408 60.3225L63.5765 60.3649C63.5451 60.3853 63.514 60.406 63.4828 60.4268L63.4523 60.4463L63.3588 60.5092L63.3093 60.5432L63.2513 60.5835L63.1974 60.6209C63.1072 60.6847 63.0232 60.7455 62.9459 60.8033L62.9169 60.8254C62.8715 60.8598 62.8265 60.8949 62.7821 60.9306C62.7153 60.9844 62.6542 61.0359 62.5995 61.0855L62.5727 61.11C62.5573 61.124 62.5421 61.1381 62.5276 61.1519C62.5177 61.1617 62.5084 61.1714 62.498 61.1807L62.4841 61.1946C62.4532 61.2257 62.4229 61.2575 62.3937 61.2902L62.3794 61.3067C62.3476 61.3434 62.3199 61.3787 62.2957 61.4131L62.2849 61.4285C62.2658 61.4562 62.2483 61.4847 62.2325 61.5142C62.2284 61.5215 62.2247 61.5289 62.221 61.5363L62.2104 61.5583L62.2033 61.5743L62.1987 61.5852L62.195 61.5949L62.1901 61.6081C62.1767 61.6447 62.1674 61.6827 62.1619 61.7213L62.1602 61.7347L62.1589 61.7472V61.8154C62.1589 61.821 62.1589 61.8267 62.1604 61.8327L62.1615 61.8431C62.1615 61.8487 62.1628 61.8541 62.1637 61.8602C62.1645 61.8658 62.166 61.876 62.1678 61.884V61.8851C62.1693 61.8927 62.1708 61.9 62.1728 61.9076C62.1747 61.9152 62.1767 61.9238 62.179 61.9316C62.1831 61.947 62.1883 61.9621 62.1938 61.9773C62.1972 61.9864 62.2005 61.9952 62.2041 62.0041C62.2041 62.0058 62.2054 62.0078 62.2063 62.0095L62.2141 62.027L62.2249 62.0511C62.2366 62.0759 62.2494 62.1002 62.2632 62.1238L62.2775 62.1484L62.2922 62.1731C62.2948 62.1772 62.2978 62.1811 62.3011 62.1848L62.3058 62.1898L62.3113 62.1947L62.3169 62.1991C62.3251 62.2049 62.334 62.2095 62.3433 62.2127C62.3483 62.2144 62.3535 62.2157 62.3586 62.217C62.4835 62.2452 62.7401 62.1419 63.0812 61.9619C63.1004 61.9515 63.1216 61.9407 63.1422 61.9294L63.2461 61.8727L63.2967 61.8446C63.3328 61.8254 63.3696 61.8035 63.4073 61.7821L63.4759 61.7433C63.9266 61.4839 64.465 61.1506 65.0216 60.8252C65.0737 60.7947 65.1261 60.7642 65.1785 60.7341L65.2836 60.6668C65.4057 60.5969 65.5284 60.5279 65.6515 60.4597C65.8067 60.3744 65.9629 60.2913 66.1207 60.2108L66.2237 60.1587C66.292 60.1249 66.3598 60.092 66.4266 60.06C66.556 59.9986 66.687 59.9401 66.8194 59.8849L66.8919 59.8555L66.9005 59.8521C67.2846 59.6999 67.6328 59.606 67.9146 59.606C67.9754 59.6054 68.0364 59.6106 68.0963 59.6209H68.0983C68.1175 59.6244 68.1351 59.6283 68.153 59.6326H68.1563C68.2024 59.6443 68.2472 59.661 68.2896 59.6824C68.3491 59.7131 68.4025 59.754 68.4478 59.8034C68.4685 59.8263 68.4869 59.8512 68.5031 59.8776C68.5334 59.9241 68.5572 59.9745 68.5743 60.0273C68.5813 60.0479 68.5873 60.068 68.5936 60.0894C68.6393 60.2533 68.6347 60.427 68.5806 60.5882Z" fill="#FF9D00"/>
<path fill-rule="evenodd" clip-rule="evenodd" d="M66.0277 48.8352V48.7289C66.0277 39.672 58.6881 32.33 49.6305 32.33C40.5731 32.33 33.2307 39.6724 33.2307 48.7289V48.7644C33.2302 48.788 33.23 48.8116 33.2307 48.8352C33.2317 48.8705 33.2321 48.9057 33.2317 48.941L33.2328 49.0189L33.2335 49.0468C33.2335 49.0598 33.2339 49.0726 33.2344 49.0856C33.235 49.1061 33.2354 49.1269 33.2354 49.1474L33.2378 49.2316L33.2413 49.3305L33.2423 49.363L33.2467 49.4653V49.4703C33.2484 49.5103 33.2506 49.5501 33.2525 49.59L33.2527 49.593C33.2549 49.6337 33.2571 49.6746 33.2597 49.7155C33.2618 49.7531 33.264 49.7908 33.2668 49.8284L33.2673 49.8351C33.2691 49.8674 33.2713 49.8998 33.2737 49.9321L33.2744 49.9407L33.2815 50.0342L33.2822 50.0403C33.2835 50.0585 33.2848 50.0766 33.2865 50.0942C33.2994 50.2502 33.3145 50.4062 33.3317 50.5618L33.3328 50.5715L33.346 50.686L33.3607 50.8061L33.3715 50.8877L33.3765 50.926C33.388 51.0143 33.4005 51.1023 33.4139 51.1902L33.4148 51.196L33.4276 51.2791C33.4894 51.6749 33.5659 52.0683 33.657 52.4585L33.6581 52.4632L33.665 52.4925L33.6847 52.5758L33.6968 52.5613C34.1728 51.9922 34.8558 51.6784 35.6199 51.6784C36.2323 51.6784 36.8605 51.8809 37.4902 52.2802C37.9078 52.5455 38.3696 53.0153 38.8448 53.6062C39.2845 52.9956 39.9008 52.5896 40.6058 52.4788C40.7402 52.4576 40.8761 52.447 41.0122 52.4468C42.6213 52.4468 43.5905 53.8432 43.9567 55.0994C44.1376 55.5237 45.0094 57.4565 46.3242 58.764C48.3228 60.7607 48.8229 62.8209 47.8338 65.0271H47.8372C47.9045 65.0346 47.9723 65.0416 48.0404 65.0478C48.0809 65.0517 48.1212 65.0556 48.1618 65.0591L48.1761 65.0604L48.2655 65.068L48.3477 65.0745C48.4261 65.0805 48.5046 65.0862 48.5834 65.0911L48.6459 65.0948L48.6955 65.0978L48.7262 65.0996L48.8229 65.1045L48.8493 65.1056L48.9508 65.1102L49.0638 65.1145L49.1544 65.1171L49.1696 65.1175C49.1888 65.1184 49.2081 65.119 49.2274 65.119L49.2481 65.1197C49.3758 65.1227 49.5033 65.1242 49.6309 65.124H49.7664L49.8631 65.1229C49.8869 65.1219 49.9105 65.1219 49.9345 65.1219H49.9722L50.0049 65.121C50.0176 65.1206 50.0304 65.1201 50.0434 65.1201H50.0821L50.1581 65.1182L50.2723 65.1143L50.3981 65.1087C50.4344 65.1074 50.4703 65.1054 50.5062 65.1037L50.545 65.1013L50.6025 65.0983L50.6363 65.0963L50.6618 65.0946L50.778 65.087L50.894 65.0786L50.9994 65.0701L51.0734 65.0639L51.1548 65.0565C51.2907 65.0444 51.4261 65.0301 51.5616 65.0139L51.654 65.0028C50.6804 62.806 51.1844 60.7546 53.1746 58.7659C54.4866 57.455 55.3584 55.5222 55.5402 55.0976C55.9066 53.8417 56.8752 52.4453 58.4847 52.4453C58.6208 52.4453 58.7569 52.4561 58.8913 52.4773C59.5957 52.5881 60.2119 52.9941 60.6523 53.6047C61.1277 53.014 61.5893 52.5437 62.0072 52.2784C62.6366 51.8794 63.2655 51.6769 63.8772 51.6769C64.5515 51.6769 65.1626 51.9214 65.6242 52.37C65.6326 52.3334 65.6408 52.2968 65.6488 52.26L65.6724 52.1506C65.6809 52.1105 65.6893 52.0705 65.6973 52.0305C65.7116 51.9597 65.7259 51.8889 65.7395 51.8175C65.7538 51.7435 65.7674 51.6691 65.7804 51.5946L65.7871 51.5544C65.7912 51.5306 65.7951 51.5068 65.7997 51.4828C65.807 51.4455 65.8131 51.4083 65.8191 51.3707L65.8215 51.3564L65.8369 51.2584L65.852 51.159V51.1582C65.8631 51.0848 65.8735 51.0115 65.8832 50.9381L65.8856 50.9199L65.8992 50.8165L65.9102 50.7282L65.9297 50.5542L65.9373 50.4843L65.9392 50.4653C65.9434 50.4276 65.9473 50.39 65.9507 50.3523V50.3493C65.9535 50.3194 65.9566 50.2894 65.9592 50.2593C65.9745 50.0888 65.9875 49.9174 65.9979 49.7453C65.9998 49.7172 66.0013 49.6889 66.0031 49.6605V49.6592L66.0087 49.553L66.01 49.5292C66.0135 49.4573 66.0165 49.3855 66.0189 49.3136V49.311L66.02 49.2829C66.021 49.2593 66.0219 49.2355 66.0219 49.2117L66.0223 49.2022C66.0232 49.1799 66.0241 49.157 66.0241 49.1342L66.0247 49.1148C66.0254 49.092 66.026 49.0695 66.026 49.0468L66.0264 49.0276C66.0271 48.9988 66.0277 48.9698 66.0277 48.941V48.8352ZM45.5629 65.2175C46.8617 63.313 46.7696 61.8835 44.9878 60.1026C43.2056 58.3215 42.1684 55.7169 42.1684 55.7169C42.1684 55.7169 41.7813 54.2041 40.8984 54.3431C40.0155 54.482 39.3678 56.7426 41.2165 58.1265C43.0649 59.5103 40.8486 60.4486 40.1371 59.15C39.4256 57.8512 37.483 54.5129 36.4759 53.8743C35.4688 53.2358 34.7606 53.5937 34.9979 54.9098C35.1159 55.5631 36.2126 56.6782 37.2372 57.7199C38.2768 58.7768 39.2421 59.7583 39.0356 60.1056C38.626 60.7953 37.1833 59.2952 37.1833 59.2952C37.1833 59.2952 32.6659 55.1842 31.6826 56.2555C30.7759 57.243 32.174 58.0823 34.3284 59.3762C34.5115 59.4861 34.7002 59.5995 34.8935 59.7163C37.3584 61.2086 37.5501 61.6022 37.2002 62.1668C37.071 62.3754 36.2459 61.8801 35.231 61.2709C33.5009 60.232 31.2197 58.8624 30.8975 60.0883C30.6188 61.1493 32.2971 61.7993 33.8193 62.389C35.0873 62.8802 36.2472 63.3295 36.0765 63.9393C35.8997 64.5716 34.9413 64.0442 33.8937 63.4677C32.7176 62.8205 31.429 62.1116 31.0072 62.9116C30.2103 64.4242 36.5058 66.2049 36.5577 66.2181C38.5918 66.7457 43.7576 67.8636 45.5629 65.2175ZM53.9298 65.2175C52.631 63.313 52.7232 61.8835 54.5052 60.1026C56.2872 58.3215 57.3244 55.7169 57.3244 55.7169C57.3244 55.7169 57.7115 54.2041 58.5944 54.3431C59.4773 54.482 60.125 56.7426 58.2765 58.1265C56.4279 59.5103 58.6442 60.4486 59.3557 59.15C60.0674 57.8512 62.0087 54.5129 63.0158 53.8743C64.0229 53.2358 64.7315 53.5937 64.4939 54.9098C64.3762 55.5631 63.2793 56.6782 62.2547 57.7201C61.2151 58.777 60.2498 59.7583 60.456 60.1056C60.8657 60.7953 62.3095 59.2944 62.3095 59.2944C62.3095 59.2944 66.8267 55.1835 67.8104 56.2549C68.7169 57.2421 67.3188 58.0817 65.1641 59.3755C64.9756 59.4887 64.7874 59.6021 64.5993 59.7157C62.1344 61.2079 61.9427 61.6016 62.2924 62.1659C62.4218 62.3747 63.2469 61.8792 64.2615 61.27C65.9918 60.2314 68.273 58.8616 68.5953 60.0877C68.8742 61.1486 67.1956 61.7987 65.6735 62.3884C64.4054 62.8796 63.2456 63.3288 63.4161 63.9386C63.5927 64.5707 64.5509 64.0433 65.5982 63.4669C66.7743 62.8196 68.0631 62.1103 68.4847 62.911C69.2819 64.4244 62.9852 66.2034 62.9344 66.2164C60.9003 66.7457 55.7345 67.8636 53.9298 65.2175Z" fill="#FFD21E"/>
<path fill-rule="evenodd" clip-rule="evenodd" d="M54.9562 44.2653C55.212 44.3558 55.4022 44.6311 55.5831 44.8931C55.8277 45.2471 56.0553 45.5767 56.4046 45.391C56.8166 45.1718 57.1544 44.8355 57.3751 44.4244C57.596 44.0132 57.6902 43.546 57.6456 43.0815C57.6123 42.7341 57.5023 42.3985 57.3236 42.0988C57.1448 41.799 56.9018 41.5427 56.6123 41.3482C56.3225 41.1537 55.9932 41.0259 55.6483 40.974C55.3031 40.9221 54.9508 40.9474 54.6167 41.048C54.2826 41.1486 53.9751 41.322 53.7161 41.5558C53.4571 41.7895 53.253 42.0778 53.1188 42.3998C52.9847 42.7219 52.9234 43.0697 52.9397 43.4182C52.9561 43.7668 53.0494 44.1072 53.2132 44.4153C53.375 44.7198 53.7343 44.5761 54.1134 44.4244C54.4105 44.3056 54.7201 44.1818 54.9562 44.2653ZM43.839 44.2653C43.5832 44.3558 43.393 44.6313 43.2121 44.8931C42.9676 45.2473 42.7397 45.5767 42.3907 45.391C41.8725 45.1166 41.4752 44.659 41.276 44.1076C41.0768 43.5561 41.0902 42.9502 41.3134 42.4081C41.5367 41.8659 41.9538 41.4263 42.4835 41.1749C43.0132 40.9236 43.6176 40.8785 44.1787 41.0484C44.6256 41.183 45.0225 41.447 45.3194 41.807C45.6162 42.1671 45.7995 42.607 45.8465 43.0713C45.8932 43.5356 45.8013 44.0033 45.5823 44.4153C45.4202 44.7198 45.061 44.5761 44.6819 44.4246C44.3845 44.3056 44.0753 44.1818 43.839 44.2653ZM53.2363 54.382C54.9984 52.9938 55.6457 50.7273 55.6457 49.3311C55.6457 48.2275 54.9032 48.5748 53.7146 49.1634L53.6475 49.1965C52.5564 49.7369 51.104 50.4564 49.5096 50.4564C47.915 50.4564 46.4626 49.7369 45.3717 49.1963C44.1445 48.5885 43.3748 48.2072 43.3748 49.3313C43.3748 50.7717 44.0634 53.1366 45.9534 54.5105C46.2029 54.0044 46.5541 53.5551 46.9852 53.1907C47.416 52.8263 47.9176 52.5547 48.4581 52.3929C48.6468 52.3366 48.8412 52.6614 49.04 52.994C49.232 53.3147 49.4282 53.6428 49.6278 53.6428C49.8405 53.6428 50.0493 53.3195 50.2533 53.004C50.4665 52.674 50.6744 52.3526 50.8755 52.4169C51.8871 52.7417 52.7334 53.4461 53.2363 54.382Z" fill="#32343D"/>
<path d="M53.2361 54.3818C52.3184 55.105 51.0986 55.59 49.51 55.59C48.0176 55.59 46.8503 55.1619 45.9536 54.5104C46.2031 54.0042 46.5543 53.5548 46.9854 53.1906C47.4162 52.8262 47.9178 52.5546 48.4584 52.3927C48.8288 52.2822 49.2216 53.6426 49.628 53.6426C50.0629 53.6426 50.4821 52.291 50.8757 52.4168C51.8871 52.7418 52.7332 53.4462 53.2361 54.3818Z" fill="#FF323D"/>
<path fill-rule="evenodd" clip-rule="evenodd" d="M39.6257 46.2287C39.4161 46.369 39.1751 46.4553 38.924 46.48C38.673 46.5049 38.4197 46.4672 38.1867 46.3705C38.0005 46.2936 37.8312 46.1807 37.6888 46.0381C37.5463 45.8957 37.4333 45.7265 37.3564 45.5402C37.2599 45.3071 37.2224 45.0539 37.2472 44.8029C37.272 44.5519 37.3583 44.3108 37.4986 44.1011C37.6671 43.8488 37.9067 43.6522 38.187 43.5361C38.4673 43.42 38.7757 43.3896 39.0733 43.4488C39.3709 43.5081 39.6442 43.6542 39.8587 43.8687C40.0731 44.0834 40.2191 44.3569 40.2782 44.6545C40.3373 44.952 40.3069 45.2604 40.1908 45.5406C40.0747 45.8208 39.8779 46.0602 39.6257 46.2287ZM61.5709 46.2287C61.3612 46.369 61.1201 46.4553 60.8691 46.48C60.6179 46.5049 60.3647 46.4672 60.1317 46.3705C59.9453 46.2934 59.7761 46.1807 59.6337 46.0381C59.4913 45.8957 59.3784 45.7265 59.3013 45.5402C59.2051 45.3071 59.1676 45.0539 59.1923 44.8029C59.2172 44.5519 59.3035 44.3108 59.4435 44.1011C59.5695 43.9125 59.7359 43.7543 59.9304 43.6376C60.1249 43.521 60.3429 43.449 60.5686 43.4268C60.7945 43.4046 61.0223 43.4328 61.2357 43.5093C61.4493 43.5858 61.6432 43.7087 61.8035 43.8692C62.0182 44.0836 62.1642 44.3569 62.2233 44.6545C62.2826 44.952 62.2521 45.2604 62.1359 45.5406C62.0197 45.8208 61.8232 46.0602 61.5709 46.2287Z" fill="#FFAD03"/>
</svg>
