<svg width="114" height="48" viewBox="0 0 114 48" fill="none" xmlns="http://www.w3.org/2000/svg">
<path d="M36.8105 13.0571L41.2315 12.0298V33.6446H36.8105V13.0571Z" fill="#901588"/>
<path d="M57.4098 31.1628C55.9945 32.9692 53.6655 34 51.3641 34C46.9397 34 43.405 31.0456 43.405 26.4572C43.405 21.8688 46.9431 18.9144 51.3641 18.9144C55.4964 18.9144 58.0899 21.8688 58.0899 26.4572V27.8499H47.8259C48.1832 29.5391 49.4507 30.6319 51.1614 30.6319C52.6041 30.6319 53.5797 29.8907 54.3148 28.8841L57.4098 31.1663V31.1628ZM53.6655 24.8301C53.6965 23.3546 52.5457 22.1101 50.9519 22.1101C49.011 22.1101 47.9462 23.4408 47.8294 24.8301H53.669H53.6655Z" fill="#901588"/>
<path d="M82.6126 33.6444H78.5421V31.7484H78.4837C77.807 32.7894 76.0929 33.996 74.0902 33.996C69.8445 33.996 67.0449 30.9175 67.0449 26.567C67.0449 22.575 69.5216 18.907 73.5921 18.907C75.4127 18.907 77.1303 19.4069 78.1299 20.7996H78.1883V13.05L82.6126 12.0227V33.6375V33.6444ZM75.0074 22.8163C72.7918 22.8163 71.4658 24.2952 71.4658 26.4532C71.4658 28.6113 72.7918 30.0902 75.0074 30.0902C77.223 30.0902 78.5421 28.6113 78.5421 26.4532C78.5421 24.2952 77.2161 22.8163 75.0074 22.8163Z" fill="#901588"/>
<path d="M92.4268 18.9146C96.8443 18.9146 100.386 21.8689 100.386 26.4573C100.386 31.0457 96.8443 34.0001 92.4268 34.0001C88.0094 34.0001 84.4609 31.0457 84.4609 26.4573C84.4609 21.8689 88.0025 18.9146 92.4268 18.9146ZM92.4268 30.0943C94.6321 30.0943 95.9649 28.6153 95.9649 26.4573C95.9649 24.2993 94.6356 22.8204 92.4268 22.8204C90.2181 22.8204 88.8853 24.2993 88.8853 26.4573C88.8853 28.6153 90.2112 30.0943 92.4268 30.0943Z" fill="#901588"/>
<path d="M110.351 23.4994C109.702 22.6962 108.85 22.2859 107.785 22.2859C107.05 22.2859 106.168 22.61 106.168 23.4684C106.168 25.5954 113.625 23.7924 113.625 29.2668C113.625 32.9347 110.087 33.9965 107.019 33.9965C105.017 33.9965 102.808 33.4967 101.389 32.0453L104.072 29.0565C104.897 30.0597 105.869 30.6285 107.198 30.6285C108.201 30.6285 109.204 30.363 109.204 29.5943C109.204 27.2846 101.747 29.2392 101.747 23.7614C101.747 20.3899 104.752 18.9144 107.761 18.9144C109.651 18.9144 111.739 19.3867 113.069 20.807L110.355 23.4994H110.351Z" fill="#901588"/>
<path d="M64.8987 19.2695H60.4778V33.6483H64.8987V19.2695Z" fill="#901588"/>
<path d="M64.8987 13.0779H60.4778V16.7562H64.8987V13.0779Z" fill="#901588"/>
<path d="M15.3549 23.189L30.4692 13.9225L11.1504 20.2243L15.3549 23.189Z" fill="#901588"/>
<path d="M7.60168 7L6.05591 11.6746H29.7303L7.60168 7Z" fill="#901588"/>
<path d="M2.52832 22.3094L9.62515 19.9928L4.49317 16.3766L2.52832 22.3094Z" fill="#901588"/>
<path d="M0 12.3638L4.13238 15.2768L5.10106 12.3638H0Z" fill="#901588"/>
<path d="M33.004 12.3638L5.82581 12.3673L4.71973 15.694L10.4425 19.7273L33.004 12.3638Z" fill="#901588"/>
</svg>
