<svg width="100" height="100" viewBox="0 0 100 100" fill="none" xmlns="http://www.w3.org/2000/svg">
<rect x="0.5" y="0.5" width="99" height="99" rx="14.5" fill="#F5F7FB" stroke="#E4E9F4"/>
<g clip-path="url(#clip0_171_1066)">
<path d="M31.1817 54.5199C31.1817 56.3763 31.5891 57.8016 32.1217 58.6639C32.82 59.7933 33.8615 60.2718 34.9233 60.2718C36.2928 60.2718 37.5456 59.9319 39.96 56.5927C41.8943 53.9163 44.1734 50.1594 45.7069 47.8042L48.3039 43.814C50.1079 41.0429 52.196 37.9623 54.5901 35.8742C56.5446 34.17 58.653 33.2231 60.7749 33.2231C64.3373 33.2231 67.7306 35.2876 70.3276 39.1594C73.1698 43.3998 74.5494 48.7409 74.5494 54.2527C74.5494 57.5294 73.9036 59.937 72.8046 61.8391C71.7428 63.6787 69.6733 65.5165 66.192 65.5165V60.2718C69.1728 60.2718 69.9168 57.5328 69.9168 54.3981C69.9168 49.9312 68.8753 44.9739 66.5809 41.4317C64.9527 38.9193 62.8427 37.3841 60.5213 37.3841C58.0105 37.3841 55.99 39.2777 53.7194 42.6542C52.5122 44.448 51.2729 46.6342 49.8814 49.101L48.3495 51.8147C45.2724 57.2707 44.4929 58.5134 42.9544 60.5643C40.2576 64.1554 37.9548 65.5165 34.9233 65.5165C31.3271 65.5165 29.053 63.9593 27.6446 61.6126C26.4949 59.7003 25.9302 57.1912 25.9302 54.3322L31.1817 54.5199Z" fill="#0081FB"/>
<path d="M30.0708 39.5296C32.4784 35.8184 35.9529 33.2231 39.938 33.2231C42.2459 33.2231 44.5403 33.9062 46.9361 35.8624C49.5567 38.0012 52.3498 41.523 55.8345 47.3274L57.0839 49.4104C60.1002 54.4353 61.8164 57.0205 62.8207 58.2395C64.1124 59.8051 65.0169 60.2718 66.192 60.2718C69.1728 60.2718 69.9167 57.5328 69.9167 54.3981L74.5494 54.2527C74.5494 57.5294 73.9035 59.937 72.8046 61.8391C71.7428 63.6787 69.6733 65.5165 66.192 65.5165C64.0279 65.5165 62.1105 65.0465 59.9903 63.0463C58.3605 61.5111 56.455 58.7839 54.9891 56.3323L50.6287 49.0486C48.4408 45.3932 46.4339 42.6677 45.2724 41.4334C44.0229 40.1062 42.4167 38.5034 39.8535 38.5034C37.7789 38.5034 36.0172 39.9591 34.5428 42.1858L30.0708 39.5296Z" fill="url(#paint0_linear_171_1066)"/>
<path d="M39.8535 38.5034C37.779 38.5034 36.0172 39.9591 34.5429 42.1858C32.4582 45.3323 31.1817 50.0191 31.1817 54.5199C31.1817 56.3763 31.5891 57.8016 32.1217 58.6639L27.6446 61.6126C26.4949 59.7003 25.9302 57.1912 25.9302 54.3322C25.9302 49.1331 27.3572 43.7143 30.0708 39.5296C32.4785 35.8184 35.953 33.2231 39.9381 33.2231L39.8535 38.5034Z" fill="url(#paint1_linear_171_1066)"/>
</g>
<defs>
<linearGradient id="paint0_linear_171_1066" x1="36.2437" y1="53.0049" x2="69.7206" y2="54.6957" gradientUnits="userSpaceOnUse">
<stop stop-color="#0064E1"/>
<stop offset="0.4" stop-color="#0064E1"/>
<stop offset="0.83" stop-color="#0073EE"/>
<stop offset="1" stop-color="#0082FB"/>
</linearGradient>
<linearGradient id="paint1_linear_171_1066" x1="33.5386" y1="56.7246" x2="33.5386" y2="44.3821" gradientUnits="userSpaceOnUse">
<stop stop-color="#0082FB"/>
<stop offset="1" stop-color="#0064E0"/>
</linearGradient>
<clipPath id="clip0_171_1066">
<rect width="48.6193" height="48.6193" fill="white" transform="translate(25.9302 25.12)"/>
</clipPath>
</defs>
</svg>
