<svg width="874" height="748" viewBox="0 0 874 748" fill="none" xmlns="http://www.w3.org/2000/svg">
<circle cx="107" cy="706" r="10" fill="url(#paint0_linear_384_4)"/>
<circle cx="223" cy="489" r="10" fill="url(#paint1_linear_384_4)"/>
<circle cx="339" cy="540" r="10" fill="url(#paint2_linear_384_4)"/>
<circle cx="453" cy="429" r="10" fill="url(#paint3_linear_384_4)"/>
<circle cx="571" cy="550" r="10" fill="url(#paint4_linear_384_4)"/>
<circle cx="700" cy="324" r="10" fill="url(#paint5_linear_384_4)"/>
<circle cx="826" cy="359" r="10" fill="url(#paint6_linear_384_4)"/>
<path d="M115 692.5L214.5 502" stroke="url(#paint7_linear_384_4)" stroke-width="3" stroke-linecap="round"/>
<path d="M238 496.5L324 534" stroke="url(#paint8_linear_384_4)" stroke-width="3" stroke-linecap="round"/>
<path d="M2 663L88 700.5" stroke="url(#paint9_linear_384_4)" stroke-width="3" stroke-linecap="round"/>
<path d="M351.5 527.5L438.5 442" stroke="url(#paint10_linear_384_4)" stroke-width="3" stroke-linecap="round"/>
<path d="M469 441L555 539" stroke="url(#paint11_linear_384_4)" stroke-width="3" stroke-linecap="round"/>
<path d="M585 538L688.5 340.5" stroke="url(#paint12_linear_384_4)" stroke-width="3" stroke-linecap="round"/>
<path d="M720 326L807 357" stroke="url(#paint13_linear_384_4)" stroke-width="3" stroke-linecap="round"/>
<circle cx="165" cy="207" r="10" fill="url(#paint14_linear_384_4)"/>
<circle cx="364" cy="341" r="10" fill="url(#paint15_linear_384_4)"/>
<circle cx="563" cy="177" r="10" fill="url(#paint16_linear_384_4)"/>
<path d="M776.5 193L896 124.5" stroke="url(#paint17_linear_384_4)" stroke-width="3" stroke-linecap="round"/>
<circle cx="762" cy="197" r="10" fill="url(#paint18_linear_384_4)"/>
<path d="M180.5 209L345 332.5" stroke="url(#paint19_linear_384_4)" stroke-width="3" stroke-linecap="round"/>
<path d="M18 314.5L147 214" stroke="url(#paint20_linear_384_4)" stroke-width="3" stroke-linecap="round"/>
<path d="M378.5 332L546.5 184" stroke="url(#paint21_linear_384_4)" stroke-width="3" stroke-linecap="round"/>
<path d="M581 175.5L743 193.5" stroke="url(#paint22_linear_384_4)" stroke-width="3" stroke-linecap="round"/>
<g opacity="0.4">
<path d="M388.38 737.134C337.981 678.589 306.866 605.925 299.276 529.049C291.686 452.173 307.99 374.827 345.966 307.557L672.959 492.154L388.38 737.134Z" fill="url(#paint23_linear_384_4)"/>
<path d="M358.35 291.607C407.736 205.127 489.454 141.807 585.527 115.577L684.426 477.819L358.35 291.607Z" fill="url(#paint24_linear_384_4)"/>
<path d="M606.845 63.8184C658.715 51.1912 712.68 49.7692 765.143 59.647L695.663 428.663L606.845 63.8184Z" fill="url(#paint25_linear_384_4)"/>
<path d="M1047.04 355.657C1078.24 432.281 1083.26 517.064 1061.32 596.835C1039.38 676.606 991.714 746.898 925.719 796.793L699.263 497.263L1047.04 355.657Z" fill="url(#paint26_linear_384_4)"/>
<path d="M908.259 804.637C832.351 861.055 737.95 886.751 643.919 876.59C549.889 866.428 463.157 821.158 401.055 749.826L684.263 503.263L908.259 804.637Z" fill="url(#paint27_linear_384_4)"/>
<path d="M843.583 38.1605C904.397 50.0182 961.332 76.7403 1009.31 115.944C1057.29 155.148 1094.82 205.615 1118.56 262.846L771.72 406.72L843.583 38.1605Z" fill="url(#paint28_linear_384_4)"/>
</g>
<defs>
<linearGradient id="paint0_linear_384_4" x1="107" y1="696" x2="107" y2="716" gradientUnits="userSpaceOnUse">
<stop stop-color="white" stop-opacity="0.6"/>
<stop offset="1" stop-color="white" stop-opacity="0.3"/>
</linearGradient>
<linearGradient id="paint1_linear_384_4" x1="223" y1="479" x2="223" y2="499" gradientUnits="userSpaceOnUse">
<stop stop-color="white" stop-opacity="0.6"/>
<stop offset="1" stop-color="white" stop-opacity="0.3"/>
</linearGradient>
<linearGradient id="paint2_linear_384_4" x1="339" y1="530" x2="339" y2="550" gradientUnits="userSpaceOnUse">
<stop stop-color="white" stop-opacity="0.8"/>
<stop offset="1" stop-color="white" stop-opacity="0.5"/>
</linearGradient>
<linearGradient id="paint3_linear_384_4" x1="453" y1="419" x2="453" y2="439" gradientUnits="userSpaceOnUse">
<stop stop-color="white" stop-opacity="0.8"/>
<stop offset="1" stop-color="white" stop-opacity="0.5"/>
</linearGradient>
<linearGradient id="paint4_linear_384_4" x1="571" y1="540" x2="571" y2="560" gradientUnits="userSpaceOnUse">
<stop stop-color="white" stop-opacity="0.8"/>
<stop offset="1" stop-color="white" stop-opacity="0.5"/>
</linearGradient>
<linearGradient id="paint5_linear_384_4" x1="700" y1="314" x2="700" y2="334" gradientUnits="userSpaceOnUse">
<stop stop-color="white" stop-opacity="0.6"/>
<stop offset="1" stop-color="white" stop-opacity="0.3"/>
</linearGradient>
<linearGradient id="paint6_linear_384_4" x1="826" y1="349" x2="826" y2="369" gradientUnits="userSpaceOnUse">
<stop stop-color="white" stop-opacity="0.6"/>
<stop offset="1" stop-color="white" stop-opacity="0.3"/>
</linearGradient>
<linearGradient id="paint7_linear_384_4" x1="226" y1="528.5" x2="194.123" y2="708.472" gradientUnits="userSpaceOnUse">
<stop stop-color="white" stop-opacity="0.6"/>
<stop offset="1" stop-color="white" stop-opacity="0.1"/>
</linearGradient>
<linearGradient id="paint8_linear_384_4" x1="320.5" y1="540" x2="235.213" y2="531.518" gradientUnits="userSpaceOnUse">
<stop stop-color="white" stop-opacity="0.6"/>
<stop offset="1" stop-color="white" stop-opacity="0.1"/>
</linearGradient>
<linearGradient id="paint9_linear_384_4" x1="84.5" y1="706.5" x2="-0.786575" y2="698.018" gradientUnits="userSpaceOnUse">
<stop stop-color="white" stop-opacity="0.6"/>
<stop offset="1" stop-color="white" stop-opacity="0.1"/>
</linearGradient>
<linearGradient id="paint10_linear_384_4" x1="450.5" y1="415" x2="403.049" y2="549.088" gradientUnits="userSpaceOnUse">
<stop stop-color="white" stop-opacity="0.6"/>
<stop offset="1" stop-color="white" stop-opacity="0.1"/>
</linearGradient>
<linearGradient id="paint11_linear_384_4" x1="550.5" y1="475" x2="466.232" y2="474.183" gradientUnits="userSpaceOnUse">
<stop stop-color="white" stop-opacity="0.6"/>
<stop offset="1" stop-color="white" stop-opacity="0.1"/>
</linearGradient>
<linearGradient id="paint12_linear_384_4" x1="668.5" y1="590" x2="584.232" y2="589.183" gradientUnits="userSpaceOnUse">
<stop stop-color="white" stop-opacity="0.6"/>
<stop offset="1" stop-color="white" stop-opacity="0.1"/>
</linearGradient>
<linearGradient id="paint13_linear_384_4" x1="803.5" y1="364" x2="719.232" y2="363.183" gradientUnits="userSpaceOnUse">
<stop stop-color="white" stop-opacity="0.6"/>
<stop offset="1" stop-color="white" stop-opacity="0.1"/>
</linearGradient>
<linearGradient id="paint14_linear_384_4" x1="165" y1="197" x2="165" y2="217" gradientUnits="userSpaceOnUse">
<stop stop-color="white" stop-opacity="0.9"/>
<stop offset="1" stop-color="white" stop-opacity="0.2"/>
<stop offset="1" stop-color="white" stop-opacity="0.7"/>
</linearGradient>
<linearGradient id="paint15_linear_384_4" x1="364" y1="331" x2="364" y2="351" gradientUnits="userSpaceOnUse">
<stop stop-color="white" stop-opacity="0.9"/>
<stop offset="1" stop-color="white" stop-opacity="0.2"/>
<stop offset="1" stop-color="white" stop-opacity="0.7"/>
</linearGradient>
<linearGradient id="paint16_linear_384_4" x1="563" y1="167" x2="563" y2="187" gradientUnits="userSpaceOnUse">
<stop stop-color="white" stop-opacity="0.9"/>
<stop offset="1" stop-color="white" stop-opacity="0.2"/>
<stop offset="1" stop-color="white" stop-opacity="0.7"/>
</linearGradient>
<linearGradient id="paint17_linear_384_4" x1="905.5" y1="133.5" x2="802.899" y2="203.206" gradientUnits="userSpaceOnUse">
<stop stop-color="white"/>
<stop offset="1" stop-color="white" stop-opacity="0.1"/>
</linearGradient>
<linearGradient id="paint18_linear_384_4" x1="762" y1="187" x2="762" y2="207" gradientUnits="userSpaceOnUse">
<stop stop-color="white" stop-opacity="0.9"/>
<stop offset="1" stop-color="white" stop-opacity="0.2"/>
<stop offset="1" stop-color="white" stop-opacity="0.7"/>
</linearGradient>
<linearGradient id="paint19_linear_384_4" x1="343" y1="282.5" x2="177.062" y2="270.512" gradientUnits="userSpaceOnUse">
<stop stop-color="white"/>
<stop offset="1" stop-color="white" stop-opacity="0.1"/>
</linearGradient>
<linearGradient id="paint20_linear_384_4" x1="149.5" y1="222.5" x2="99.3326" y2="290.481" gradientUnits="userSpaceOnUse">
<stop stop-color="white" stop-opacity="0.5"/>
<stop offset="1" stop-color="white" stop-opacity="0.1"/>
</linearGradient>
<linearGradient id="paint21_linear_384_4" x1="555.5" y1="191.5" x2="461.239" y2="312.466" gradientUnits="userSpaceOnUse">
<stop stop-color="white"/>
<stop offset="1" stop-color="white" stop-opacity="0.1"/>
</linearGradient>
<linearGradient id="paint22_linear_384_4" x1="738.5" y1="213" x2="589.077" y2="237.587" gradientUnits="userSpaceOnUse">
<stop stop-color="white"/>
<stop offset="1" stop-color="white" stop-opacity="0.1"/>
</linearGradient>
<linearGradient id="paint23_linear_384_4" x1="669" y1="485" x2="301" y2="512.5" gradientUnits="userSpaceOnUse">
<stop stop-color="white" stop-opacity="0.7"/>
<stop offset="1" stop-color="white" stop-opacity="0.2"/>
</linearGradient>
<linearGradient id="paint24_linear_384_4" x1="475.499" y1="166" x2="673.499" y2="456.5" gradientUnits="userSpaceOnUse">
<stop offset="0.112312" stop-color="white" stop-opacity="0.4"/>
<stop offset="1" stop-color="white" stop-opacity="0.6"/>
</linearGradient>
<linearGradient id="paint25_linear_384_4" x1="440.297" y1="153.366" x2="951.03" y2="703.96" gradientUnits="userSpaceOnUse">
<stop stop-color="white" stop-opacity="0.4"/>
<stop offset="1" stop-color="white" stop-opacity="0.2"/>
</linearGradient>
<linearGradient id="paint26_linear_384_4" x1="699" y1="497" x2="1028" y2="677.5" gradientUnits="userSpaceOnUse">
<stop offset="0.00487076" stop-color="white"/>
<stop offset="1" stop-color="white" stop-opacity="0.2"/>
</linearGradient>
<linearGradient id="paint27_linear_384_4" x1="686.5" y1="511.5" x2="631.548" y2="874.756" gradientUnits="userSpaceOnUse">
<stop offset="0.0225532" stop-color="white"/>
<stop offset="1" stop-color="white" stop-opacity="0"/>
</linearGradient>
<linearGradient id="paint28_linear_384_4" x1="1057" y1="49.5001" x2="772" y2="407" gradientUnits="userSpaceOnUse">
<stop stop-color="white" stop-opacity="0.4"/>
<stop offset="1" stop-color="white" stop-opacity="0.5"/>
</linearGradient>
</defs>
</svg>
