<svg width="570" height="682" viewBox="0 0 570 682" fill="none" xmlns="http://www.w3.org/2000/svg">
<g opacity="0.5">
<path d="M421 178H467V222H428C424.134 222 421 218.866 421 215V178Z" fill="url(#paint0_linear_7823_35242)"/>
<rect x="421" y="133" width="89" height="89" rx="7" fill="url(#paint1_linear_7823_35242)"/>
<path d="M421 140C421 136.134 424.134 133 428 133H503C506.866 133 510 136.134 510 140V215C510 218.866 506.866 222 503 222H428C424.134 222 421 218.866 421 215V140Z" fill="url(#paint2_linear_7823_35242)"/>
<path d="M421 293H467V337H428C424.134 337 421 333.866 421 330V293Z" fill="url(#paint3_linear_7823_35242)"/>
<rect x="421" y="248" width="89" height="89" rx="7" fill="url(#paint4_linear_7823_35242)"/>
<path d="M421 255C421 251.134 424.134 248 428 248H503C506.866 248 510 251.134 510 255V330C510 333.866 506.866 337 503 337H428C424.134 337 421 333.866 421 330V255Z" fill="url(#paint5_linear_7823_35242)"/>
<path d="M421 408H467V452H428C424.134 452 421 448.866 421 445V408Z" fill="url(#paint6_linear_7823_35242)"/>
<rect x="421" y="363" width="89" height="89" rx="7" fill="url(#paint7_linear_7823_35242)"/>
<path d="M421 370C421 366.134 424.134 363 428 363H503C506.866 363 510 366.134 510 370V445C510 448.866 506.866 452 503 452H428C424.134 452 421 448.866 421 445V370Z" fill="url(#paint8_linear_7823_35242)"/>
<path d="M421 523H467V567H428C424.134 567 421 563.866 421 560V523Z" fill="url(#paint9_linear_7823_35242)"/>
<rect x="421" y="478" width="89" height="89" rx="7" fill="url(#paint10_linear_7823_35242)"/>
<path d="M421 485C421 481.134 424.134 478 428 478H503C506.866 478 510 481.134 510 485V560C510 563.866 506.866 567 503 567H428C424.134 567 421 563.866 421 560V485Z" fill="url(#paint11_linear_7823_35242)"/>
<path d="M421 638H467V682H428C424.134 682 421 678.866 421 675V638Z" fill="url(#paint12_linear_7823_35242)"/>
<rect x="421" y="593" width="89" height="89" rx="7" fill="url(#paint13_linear_7823_35242)"/>
<path d="M421 600C421 596.134 424.134 593 428 593H503C506.866 593 510 596.134 510 600V675C510 678.866 506.866 682 503 682H428C424.134 682 421 678.866 421 675V600Z" fill="url(#paint14_linear_7823_35242)"/>
</g>
<circle cx="83" cy="83" r="83" fill="url(#paint15_linear_7823_35242)"/>
<rect opacity="0.5" x="450" y="293" width="50" height="5" rx="2.5" fill="white"/>
<rect opacity="0.5" x="466" y="307" width="74" height="5" rx="2.5" fill="white"/>
<rect opacity="0.5" x="466" y="321" width="50" height="5" rx="2.5" fill="white"/>
<rect opacity="0.5" x="520" y="321" width="50" height="5" rx="2.5" fill="white"/>
<rect opacity="0.5" x="466" y="333" width="60" height="5" rx="2.5" fill="white"/>
<rect opacity="0.5" x="450" y="349" width="74" height="5" rx="2.5" fill="white"/>
<rect opacity="0.5" x="450" y="177" width="50" height="5" rx="2.5" fill="white"/>
<rect opacity="0.5" x="466" y="191" width="74" height="5" rx="2.5" fill="white"/>
<rect opacity="0.5" x="466" y="205" width="50" height="5" rx="2.5" fill="white"/>
<rect opacity="0.5" x="520" y="205" width="50" height="5" rx="2.5" fill="white"/>
<rect opacity="0.5" x="466" y="217" width="60" height="5" rx="2.5" fill="white"/>
<rect opacity="0.5" x="450" y="233" width="74" height="5" rx="2.5" fill="white"/>
<rect x="56" y="86" width="72.1311" height="7.21311" rx="3.60656" fill="white"/>
<rect x="79.0819" y="106.197" width="106.754" height="7.21311" rx="3.60656" fill="white"/>
<rect x="79.0819" y="126.393" width="72.1311" height="7.21311" rx="3.60656" fill="white"/>
<rect x="156.984" y="126.393" width="72.1311" height="7.21311" rx="3.60656" fill="white"/>
<rect x="79.0819" y="143.705" width="86.5574" height="7.21311" rx="3.60656" fill="white"/>
<rect x="56" y="166.787" width="106.754" height="7.21311" rx="3.60656" fill="white"/>
<rect opacity="0.5" x="450" y="401" width="50" height="5" rx="2.5" fill="white"/>
<rect opacity="0.5" x="466" y="415" width="74" height="5" rx="2.5" fill="white"/>
<rect opacity="0.5" x="466" y="429" width="50" height="5" rx="2.5" fill="white"/>
<rect opacity="0.5" x="520" y="429" width="50" height="5" rx="2.5" fill="white"/>
<rect opacity="0.5" x="466" y="441" width="60" height="5" rx="2.5" fill="white"/>
<rect opacity="0.5" x="450" y="457" width="74" height="5" rx="2.5" fill="white"/>
<rect opacity="0.5" x="450" y="523" width="50" height="5" rx="2.5" fill="white"/>
<rect opacity="0.5" x="466" y="537" width="74" height="5" rx="2.5" fill="white"/>
<rect opacity="0.5" x="466" y="551" width="50" height="5" rx="2.5" fill="white"/>
<rect opacity="0.5" x="520" y="551" width="50" height="5" rx="2.5" fill="white"/>
<rect opacity="0.5" x="466" y="563" width="60" height="5" rx="2.5" fill="white"/>
<rect opacity="0.5" x="450" y="579" width="74" height="5" rx="2.5" fill="white"/>
<path d="M95.0021 106C94.551 174.33 199.5 353 413 291.772" stroke="url(#paint16_linear_7823_35242)" stroke-width="4" stroke-linecap="round" stroke-linejoin="round"/>
<path d="M95.0022 106C94.5512 174.33 244 290.5 413 186.5" stroke="url(#paint17_linear_7823_35242)" stroke-width="4" stroke-linecap="round" stroke-linejoin="round"/>
<path d="M95.0024 106C94.5513 262.026 157.519 565.302 413 530.197" stroke="url(#paint18_linear_7823_35242)" stroke-width="4" stroke-linecap="round" stroke-linejoin="round"/>
<path d="M95.0024 106C94.5513 262.026 157.519 565.302 413 530.197" stroke="url(#paint19_linear_7823_35242)" stroke-width="4" stroke-linecap="round" stroke-linejoin="round"/>
<path d="M95.0024 106C94.5513 216.351 157.519 430.846 413 406.017" stroke="url(#paint20_linear_7823_35242)" stroke-width="4" stroke-linecap="round" stroke-linejoin="round"/>
<path d="M95.0024 106C94.5513 262.026 157.519 565.302 413 530.197" stroke="url(#paint21_linear_7823_35242)" stroke-width="4" stroke-linecap="round" stroke-linejoin="round"/>
<path d="M95.0024 106C94.5513 308.432 157.519 701.91 413 656.363" stroke="url(#paint22_linear_7823_35242)" stroke-width="4" stroke-linecap="round" stroke-linejoin="round"/>
<defs>
<linearGradient id="paint0_linear_7823_35242" x1="444" y1="178" x2="444" y2="222" gradientUnits="userSpaceOnUse">
<stop stop-color="white" stop-opacity="0"/>
<stop offset="1" stop-color="white"/>
</linearGradient>
<linearGradient id="paint1_linear_7823_35242" x1="465.5" y1="133" x2="465.5" y2="222" gradientUnits="userSpaceOnUse">
<stop stop-color="white" stop-opacity="0.2"/>
<stop offset="1" stop-color="white" stop-opacity="0.1"/>
</linearGradient>
<linearGradient id="paint2_linear_7823_35242" x1="465.5" y1="133" x2="465.5" y2="222" gradientUnits="userSpaceOnUse">
<stop stop-color="white" stop-opacity="0.3"/>
<stop offset="0.505883" stop-color="white" stop-opacity="0.5"/>
<stop offset="1" stop-color="white" stop-opacity="0.1"/>
</linearGradient>
<linearGradient id="paint3_linear_7823_35242" x1="444" y1="293" x2="444" y2="337" gradientUnits="userSpaceOnUse">
<stop stop-color="white" stop-opacity="0"/>
<stop offset="1" stop-color="white"/>
</linearGradient>
<linearGradient id="paint4_linear_7823_35242" x1="465.5" y1="248" x2="465.5" y2="337" gradientUnits="userSpaceOnUse">
<stop stop-color="white" stop-opacity="0.2"/>
<stop offset="1" stop-color="white" stop-opacity="0.1"/>
</linearGradient>
<linearGradient id="paint5_linear_7823_35242" x1="465.5" y1="248" x2="465.5" y2="337" gradientUnits="userSpaceOnUse">
<stop stop-color="white" stop-opacity="0.3"/>
<stop offset="0.505883" stop-color="white" stop-opacity="0.5"/>
<stop offset="1" stop-color="white" stop-opacity="0.1"/>
</linearGradient>
<linearGradient id="paint6_linear_7823_35242" x1="444" y1="408" x2="444" y2="452" gradientUnits="userSpaceOnUse">
<stop stop-color="white" stop-opacity="0"/>
<stop offset="1" stop-color="white"/>
</linearGradient>
<linearGradient id="paint7_linear_7823_35242" x1="465.5" y1="363" x2="465.5" y2="452" gradientUnits="userSpaceOnUse">
<stop stop-color="white" stop-opacity="0.2"/>
<stop offset="1" stop-color="white" stop-opacity="0.1"/>
</linearGradient>
<linearGradient id="paint8_linear_7823_35242" x1="465.5" y1="363" x2="465.5" y2="452" gradientUnits="userSpaceOnUse">
<stop stop-color="white" stop-opacity="0.3"/>
<stop offset="0.505883" stop-color="white" stop-opacity="0.5"/>
<stop offset="1" stop-color="white" stop-opacity="0.1"/>
</linearGradient>
<linearGradient id="paint9_linear_7823_35242" x1="444" y1="523" x2="444" y2="567" gradientUnits="userSpaceOnUse">
<stop stop-color="white" stop-opacity="0"/>
<stop offset="1" stop-color="white"/>
</linearGradient>
<linearGradient id="paint10_linear_7823_35242" x1="465.5" y1="478" x2="465.5" y2="567" gradientUnits="userSpaceOnUse">
<stop stop-color="white" stop-opacity="0.2"/>
<stop offset="1" stop-color="white" stop-opacity="0.1"/>
</linearGradient>
<linearGradient id="paint11_linear_7823_35242" x1="465.5" y1="478" x2="465.5" y2="567" gradientUnits="userSpaceOnUse">
<stop stop-color="white" stop-opacity="0.3"/>
<stop offset="0.505883" stop-color="white" stop-opacity="0.5"/>
<stop offset="1" stop-color="white" stop-opacity="0.1"/>
</linearGradient>
<linearGradient id="paint12_linear_7823_35242" x1="444" y1="638" x2="444" y2="682" gradientUnits="userSpaceOnUse">
<stop stop-color="white" stop-opacity="0"/>
<stop offset="1" stop-color="white"/>
</linearGradient>
<linearGradient id="paint13_linear_7823_35242" x1="465.5" y1="593" x2="465.5" y2="682" gradientUnits="userSpaceOnUse">
<stop stop-color="white" stop-opacity="0.2"/>
<stop offset="1" stop-color="white" stop-opacity="0.1"/>
</linearGradient>
<linearGradient id="paint14_linear_7823_35242" x1="465.5" y1="593" x2="465.5" y2="682" gradientUnits="userSpaceOnUse">
<stop stop-color="white" stop-opacity="0.3"/>
<stop offset="0.505883" stop-color="white" stop-opacity="0.5"/>
<stop offset="1" stop-color="white" stop-opacity="0.1"/>
</linearGradient>
<linearGradient id="paint15_linear_7823_35242" x1="83" y1="0" x2="83" y2="166" gradientUnits="userSpaceOnUse">
<stop stop-color="white" stop-opacity="0.4"/>
<stop offset="1" stop-color="white" stop-opacity="0.2"/>
</linearGradient>
<linearGradient id="paint16_linear_7823_35242" x1="417.962" y1="291.28" x2="85.6588" y2="151.935" gradientUnits="userSpaceOnUse">
<stop stop-color="white"/>
<stop offset="1" stop-color="white" stop-opacity="0"/>
</linearGradient>
<linearGradient id="paint17_linear_7823_35242" x1="417.962" y1="291.28" x2="85.6588" y2="151.935" gradientUnits="userSpaceOnUse">
<stop stop-color="white"/>
<stop offset="1" stop-color="white" stop-opacity="0"/>
</linearGradient>
<linearGradient id="paint18_linear_7823_35242" x1="417.962" y1="529.071" x2="39.9747" y2="459.657" gradientUnits="userSpaceOnUse">
<stop stop-color="white"/>
<stop offset="1" stop-color="white" stop-opacity="0"/>
</linearGradient>
<linearGradient id="paint19_linear_7823_35242" x1="417.962" y1="529.071" x2="39.9747" y2="459.657" gradientUnits="userSpaceOnUse">
<stop stop-color="white"/>
<stop offset="1" stop-color="white" stop-opacity="0"/>
</linearGradient>
<linearGradient id="paint20_linear_7823_35242" x1="417.962" y1="405.221" x2="51.9065" y2="310.175" gradientUnits="userSpaceOnUse">
<stop stop-color="white"/>
<stop offset="1" stop-color="white" stop-opacity="0"/>
</linearGradient>
<linearGradient id="paint21_linear_7823_35242" x1="417.962" y1="529.071" x2="39.9747" y2="459.657" gradientUnits="userSpaceOnUse">
<stop stop-color="white"/>
<stop offset="1" stop-color="white" stop-opacity="0"/>
</linearGradient>
<linearGradient id="paint22_linear_7823_35242" x1="417.962" y1="654.903" x2="34.9018" y2="600.683" gradientUnits="userSpaceOnUse">
<stop stop-color="white"/>
<stop offset="1" stop-color="white" stop-opacity="0"/>
</linearGradient>
</defs>
</svg>
