<svg width="1246" height="1062" viewBox="0 0 1246 1062" fill="none" xmlns="http://www.w3.org/2000/svg">
<circle cx="107" cy="808" r="10" fill="url(#paint0_linear_7823_35244)"/>
<circle cx="223" cy="591" r="10" fill="url(#paint1_linear_7823_35244)"/>
<circle cx="339" cy="642" r="10" fill="url(#paint2_linear_7823_35244)"/>
<circle cx="453" cy="531" r="10" fill="url(#paint3_linear_7823_35244)"/>
<circle cx="571" cy="652" r="10" fill="url(#paint4_linear_7823_35244)"/>
<circle cx="700" cy="426" r="10" fill="url(#paint5_linear_7823_35244)"/>
<circle cx="826" cy="461" r="10" fill="url(#paint6_linear_7823_35244)"/>
<path d="M115 794.5L214.5 604" stroke="url(#paint7_linear_7823_35244)" stroke-width="3" stroke-linecap="round"/>
<path d="M238 598.5L324 636" stroke="url(#paint8_linear_7823_35244)" stroke-width="3" stroke-linecap="round"/>
<path d="M2 765L88 802.5" stroke="url(#paint9_linear_7823_35244)" stroke-width="3" stroke-linecap="round"/>
<path d="M351.5 629.5L438.5 544" stroke="url(#paint10_linear_7823_35244)" stroke-width="3" stroke-linecap="round"/>
<path d="M469 543L555 641" stroke="url(#paint11_linear_7823_35244)" stroke-width="3" stroke-linecap="round"/>
<path d="M585 640L688.5 442.5" stroke="url(#paint12_linear_7823_35244)" stroke-width="3" stroke-linecap="round"/>
<path d="M720 428L807 459" stroke="url(#paint13_linear_7823_35244)" stroke-width="3" stroke-linecap="round"/>
<circle cx="165" cy="309" r="10" fill="url(#paint14_linear_7823_35244)"/>
<circle cx="364" cy="443" r="10" fill="url(#paint15_linear_7823_35244)"/>
<circle cx="563" cy="279" r="10" fill="url(#paint16_linear_7823_35244)"/>
<path d="M776.5 295L896 226.5" stroke="url(#paint17_linear_7823_35244)" stroke-width="3" stroke-linecap="round"/>
<circle cx="762" cy="299" r="10" fill="url(#paint18_linear_7823_35244)"/>
<path d="M180.5 311L345 434.5" stroke="url(#paint19_linear_7823_35244)" stroke-width="3" stroke-linecap="round"/>
<path d="M18 416.5L147 316" stroke="url(#paint20_linear_7823_35244)" stroke-width="3" stroke-linecap="round"/>
<path d="M378.5 434L546.5 286" stroke="url(#paint21_linear_7823_35244)" stroke-width="3" stroke-linecap="round"/>
<path d="M581 277.5L743 295.5" stroke="url(#paint22_linear_7823_35244)" stroke-width="3" stroke-linecap="round"/>
<g opacity="0.4">
<path d="M388.38 839.134C337.981 780.589 306.866 707.925 299.276 631.049C291.686 554.173 307.99 476.827 345.966 409.557L672.959 594.154L388.38 839.134Z" fill="url(#paint23_linear_7823_35244)"/>
<path d="M358.351 393.607C407.737 307.127 489.455 243.807 585.528 217.577L684.426 579.819L358.351 393.607Z" fill="url(#paint24_linear_7823_35244)"/>
<path d="M606.845 165.818C658.715 153.191 712.68 151.769 765.143 161.647L695.663 530.663L606.845 165.818Z" fill="url(#paint25_linear_7823_35244)"/>
<path d="M1047.04 457.657C1078.24 534.281 1083.26 619.064 1061.32 698.835C1039.38 778.606 991.714 848.898 925.719 898.793L699.263 599.263L1047.04 457.657Z" fill="url(#paint26_linear_7823_35244)"/>
<path d="M908.259 906.637C832.351 963.055 737.95 988.751 643.919 978.59C549.889 968.428 463.157 923.158 401.055 851.826L684.263 605.263L908.259 906.637Z" fill="url(#paint27_linear_7823_35244)"/>
<path d="M843.583 140.16C904.397 152.018 961.332 178.74 1009.31 217.944C1057.29 257.148 1094.82 307.615 1118.56 364.846L771.72 508.72L843.583 140.16Z" fill="url(#paint28_linear_7823_35244)"/>
</g>
<defs>
<linearGradient id="paint0_linear_7823_35244" x1="107" y1="798" x2="107" y2="818" gradientUnits="userSpaceOnUse">
<stop stop-color="white" stop-opacity="0.6"/>
<stop offset="1" stop-color="white" stop-opacity="0.3"/>
</linearGradient>
<linearGradient id="paint1_linear_7823_35244" x1="223" y1="581" x2="223" y2="601" gradientUnits="userSpaceOnUse">
<stop stop-color="white" stop-opacity="0.6"/>
<stop offset="1" stop-color="white" stop-opacity="0.3"/>
</linearGradient>
<linearGradient id="paint2_linear_7823_35244" x1="339" y1="632" x2="339" y2="652" gradientUnits="userSpaceOnUse">
<stop stop-color="white" stop-opacity="0.8"/>
<stop offset="1" stop-color="white" stop-opacity="0.5"/>
</linearGradient>
<linearGradient id="paint3_linear_7823_35244" x1="453" y1="521" x2="453" y2="541" gradientUnits="userSpaceOnUse">
<stop stop-color="white" stop-opacity="0.8"/>
<stop offset="1" stop-color="white" stop-opacity="0.5"/>
</linearGradient>
<linearGradient id="paint4_linear_7823_35244" x1="571" y1="642" x2="571" y2="662" gradientUnits="userSpaceOnUse">
<stop stop-color="white" stop-opacity="0.8"/>
<stop offset="1" stop-color="white" stop-opacity="0.5"/>
</linearGradient>
<linearGradient id="paint5_linear_7823_35244" x1="700" y1="416" x2="700" y2="436" gradientUnits="userSpaceOnUse">
<stop stop-color="white" stop-opacity="0.6"/>
<stop offset="1" stop-color="white" stop-opacity="0.3"/>
</linearGradient>
<linearGradient id="paint6_linear_7823_35244" x1="826" y1="451" x2="826" y2="471" gradientUnits="userSpaceOnUse">
<stop stop-color="white" stop-opacity="0.6"/>
<stop offset="1" stop-color="white" stop-opacity="0.3"/>
</linearGradient>
<linearGradient id="paint7_linear_7823_35244" x1="226" y1="630.5" x2="194.123" y2="810.472" gradientUnits="userSpaceOnUse">
<stop stop-color="white" stop-opacity="0.6"/>
<stop offset="1" stop-color="white" stop-opacity="0.1"/>
</linearGradient>
<linearGradient id="paint8_linear_7823_35244" x1="320.5" y1="642" x2="235.213" y2="633.518" gradientUnits="userSpaceOnUse">
<stop stop-color="white" stop-opacity="0.6"/>
<stop offset="1" stop-color="white" stop-opacity="0.1"/>
</linearGradient>
<linearGradient id="paint9_linear_7823_35244" x1="84.5" y1="808.5" x2="-0.786575" y2="800.018" gradientUnits="userSpaceOnUse">
<stop stop-color="white" stop-opacity="0.6"/>
<stop offset="1" stop-color="white" stop-opacity="0.1"/>
</linearGradient>
<linearGradient id="paint10_linear_7823_35244" x1="450.5" y1="517" x2="403.049" y2="651.088" gradientUnits="userSpaceOnUse">
<stop stop-color="white" stop-opacity="0.6"/>
<stop offset="1" stop-color="white" stop-opacity="0.1"/>
</linearGradient>
<linearGradient id="paint11_linear_7823_35244" x1="550.5" y1="577" x2="466.232" y2="576.183" gradientUnits="userSpaceOnUse">
<stop stop-color="white" stop-opacity="0.6"/>
<stop offset="1" stop-color="white" stop-opacity="0.1"/>
</linearGradient>
<linearGradient id="paint12_linear_7823_35244" x1="668.5" y1="692" x2="584.232" y2="691.183" gradientUnits="userSpaceOnUse">
<stop stop-color="white" stop-opacity="0.6"/>
<stop offset="1" stop-color="white" stop-opacity="0.1"/>
</linearGradient>
<linearGradient id="paint13_linear_7823_35244" x1="803.5" y1="466" x2="719.232" y2="465.183" gradientUnits="userSpaceOnUse">
<stop stop-color="white" stop-opacity="0.6"/>
<stop offset="1" stop-color="white" stop-opacity="0.1"/>
</linearGradient>
<linearGradient id="paint14_linear_7823_35244" x1="165" y1="299" x2="165" y2="319" gradientUnits="userSpaceOnUse">
<stop stop-color="white" stop-opacity="0.9"/>
<stop offset="1" stop-color="white" stop-opacity="0.2"/>
<stop offset="1" stop-color="white" stop-opacity="0.7"/>
</linearGradient>
<linearGradient id="paint15_linear_7823_35244" x1="364" y1="433" x2="364" y2="453" gradientUnits="userSpaceOnUse">
<stop stop-color="white" stop-opacity="0.9"/>
<stop offset="1" stop-color="white" stop-opacity="0.2"/>
<stop offset="1" stop-color="white" stop-opacity="0.7"/>
</linearGradient>
<linearGradient id="paint16_linear_7823_35244" x1="563" y1="269" x2="563" y2="289" gradientUnits="userSpaceOnUse">
<stop stop-color="white" stop-opacity="0.9"/>
<stop offset="1" stop-color="white" stop-opacity="0.2"/>
<stop offset="1" stop-color="white" stop-opacity="0.7"/>
</linearGradient>
<linearGradient id="paint17_linear_7823_35244" x1="905.5" y1="235.5" x2="802.899" y2="305.206" gradientUnits="userSpaceOnUse">
<stop stop-color="white"/>
<stop offset="1" stop-color="white" stop-opacity="0.1"/>
</linearGradient>
<linearGradient id="paint18_linear_7823_35244" x1="762" y1="289" x2="762" y2="309" gradientUnits="userSpaceOnUse">
<stop stop-color="white" stop-opacity="0.9"/>
<stop offset="1" stop-color="white" stop-opacity="0.2"/>
<stop offset="1" stop-color="white" stop-opacity="0.7"/>
</linearGradient>
<linearGradient id="paint19_linear_7823_35244" x1="343" y1="384.5" x2="177.062" y2="372.512" gradientUnits="userSpaceOnUse">
<stop stop-color="white"/>
<stop offset="1" stop-color="white" stop-opacity="0.1"/>
</linearGradient>
<linearGradient id="paint20_linear_7823_35244" x1="149.5" y1="324.5" x2="99.3326" y2="392.481" gradientUnits="userSpaceOnUse">
<stop stop-color="white" stop-opacity="0.5"/>
<stop offset="1" stop-color="white" stop-opacity="0.1"/>
</linearGradient>
<linearGradient id="paint21_linear_7823_35244" x1="555.5" y1="293.5" x2="461.239" y2="414.466" gradientUnits="userSpaceOnUse">
<stop stop-color="white"/>
<stop offset="1" stop-color="white" stop-opacity="0.1"/>
</linearGradient>
<linearGradient id="paint22_linear_7823_35244" x1="738.5" y1="315" x2="589.077" y2="339.587" gradientUnits="userSpaceOnUse">
<stop stop-color="white"/>
<stop offset="1" stop-color="white" stop-opacity="0.1"/>
</linearGradient>
<linearGradient id="paint23_linear_7823_35244" x1="669" y1="587" x2="301" y2="614.5" gradientUnits="userSpaceOnUse">
<stop stop-color="white" stop-opacity="0.7"/>
<stop offset="1" stop-color="white" stop-opacity="0.2"/>
</linearGradient>
<linearGradient id="paint24_linear_7823_35244" x1="475.5" y1="268" x2="673.5" y2="558.5" gradientUnits="userSpaceOnUse">
<stop offset="0.112312" stop-color="white" stop-opacity="0.4"/>
<stop offset="1" stop-color="white" stop-opacity="0.6"/>
</linearGradient>
<linearGradient id="paint25_linear_7823_35244" x1="440.297" y1="255.366" x2="951.03" y2="805.96" gradientUnits="userSpaceOnUse">
<stop stop-color="white" stop-opacity="0.4"/>
<stop offset="1" stop-color="white" stop-opacity="0.2"/>
</linearGradient>
<linearGradient id="paint26_linear_7823_35244" x1="699" y1="599" x2="1028" y2="779.5" gradientUnits="userSpaceOnUse">
<stop offset="0.00487076" stop-color="white"/>
<stop offset="1" stop-color="white" stop-opacity="0.2"/>
</linearGradient>
<linearGradient id="paint27_linear_7823_35244" x1="686.5" y1="613.5" x2="631.548" y2="976.756" gradientUnits="userSpaceOnUse">
<stop offset="0.0225532" stop-color="white"/>
<stop offset="1" stop-color="white" stop-opacity="0"/>
</linearGradient>
<linearGradient id="paint28_linear_7823_35244" x1="1057" y1="151.5" x2="772" y2="509" gradientUnits="userSpaceOnUse">
<stop stop-color="white" stop-opacity="0.4"/>
<stop offset="1" stop-color="white" stop-opacity="0.5"/>
</linearGradient>
</defs>
</svg>
