<svg width="136" height="133" viewBox="0 0 136 133" fill="none" xmlns="http://www.w3.org/2000/svg">
<rect x="0.59375" y="1.41016" width="133.954" height="131" rx="15.5" fill="white"/>
<rect x="0.59375" y="1.41016" width="133.954" height="131" rx="15.5" fill="#F5F7FB"/>
<rect x="0.59375" y="1.41016" width="133.954" height="131" rx="15.5" stroke="#DBE2F0"/>
<g clip-path="url(#clip0_7493_3620)">
<path d="M69.6322 38.7315L68.8528 37.8853C68.8656 37.8725 69.7754 37.0327 70.1667 36.581C70.5516 36.1165 71.2547 35.0412 71.2674 35.0349L72.225 35.6552C72.1804 35.7061 71.4805 36.7973 71.032 37.3158C70.5962 37.8407 69.6704 38.6901 69.6322 38.7315ZM74.6491 72.443C74.6109 72.4303 73.8856 71.9531 73.4879 71.74C73.1157 71.5523 72.4699 71.2755 72.1454 71.1323L72.823 69.1854L69.9663 67.773L69.0564 70.5438C68.5029 70.5565 66.7882 70.7124 64.2528 71.7813C61.202 73.0538 58.8829 75.0421 58.8606 75.0548L58.4057 75.4525L60.4448 75.532L60.5085 75.4811C60.5276 75.462 62.8021 73.7791 64.0683 73.2383C64.4097 73.1018 64.7606 72.9902 65.1181 72.9043C64.4731 73.2269 63.8366 73.5664 63.2093 73.9223C62.5763 74.3009 61.396 75.1343 61.3451 75.1725L60.7534 75.5829L62.923 75.6338L62.9803 75.602C63.0185 75.5765 66.6832 73.6201 68.6715 73.1842L69.295 73.0347C69.7563 72.917 70.0776 72.8311 70.6375 72.8311C71.1338 72.8311 71.8114 72.8979 72.8262 73.0538C74.0923 73.2415 74.9258 73.5564 74.9385 73.5628L75.702 73.8618L74.6777 72.4748L74.6395 72.4494L74.6491 72.443ZM46.0816 49.2264H45.9893L42.789 52.1404V52.2358C42.7652 52.6512 42.8256 53.0671 42.9666 53.4586C43.1077 53.85 43.3264 54.2089 43.6097 54.5136C44.1887 55.1371 44.9459 55.4966 45.7921 55.5284H45.9289C46.7384 55.5311 47.5179 55.2219 48.1055 54.6651C48.6931 54.1083 49.0438 53.3465 49.0847 52.538C49.1177 51.7027 48.8216 50.8877 48.26 50.2684C47.6984 49.649 46.9162 49.2749 46.0816 49.2264ZM45.9384 55.0512H45.808C45.4427 55.0375 45.0846 54.9453 44.7582 54.7808C45.0102 54.8231 45.2687 54.8057 45.5129 54.7302C45.7571 54.6548 45.9802 54.5232 46.1645 54.346C46.3487 54.1689 46.4889 53.9511 46.574 53.7101C46.659 53.4691 46.6865 53.2115 46.6542 52.958C46.5916 52.5473 46.375 52.1758 46.0484 51.919C45.7218 51.6622 45.3097 51.5393 44.8959 51.5754C44.482 51.6114 44.0973 51.8037 43.82 52.113C43.5428 52.4224 43.3936 52.8257 43.403 53.2411C43.3085 52.9536 43.2602 52.653 43.2598 52.3503L46.1611 49.7004C47.5799 49.834 48.6743 51.0715 48.6043 52.5062C48.5343 53.941 47.3604 55.0512 45.9257 55.0512H45.9384ZM75.6161 43.2011L74.684 42.5808L73.3797 43.4238L72.1232 42.5171L71.1656 43.0898L72.4508 44.0155L71.1274 44.8744L72.0723 45.4471L73.3447 44.639L74.5759 45.5298L75.5589 44.9921L74.2641 44.0505M105.746 92.3257C105.068 91.6609 104.416 91.0023 103.745 90.3311C102.218 88.7787 100.7 87.2008 99.2336 85.6038C97.4824 83.7128 95.8036 81.756 94.2009 79.7376C93.4851 78.8373 92.798 77.8925 92.1458 76.9349C91.3489 75.6972 90.6389 74.4057 90.0208 73.0697C89.3495 71.6541 88.7546 70.2066 88.1884 68.756C88.9519 69.424 89.6613 70.1684 90.3007 70.9574C90.3686 70.2745 90.4312 69.5873 90.4884 68.8959L90.5616 67.8716C90.5616 67.7666 90.5998 67.6616 90.5361 67.5662C90.4874 67.4816 90.4309 67.4018 90.3675 67.3276C89.9693 66.859 89.5377 66.4199 89.076 66.0137C88.4692 65.435 87.8497 64.8697 87.2181 64.3181L86.6455 63.8219C86.5588 63.7383 86.4675 63.6597 86.3719 63.5865C86.2733 63.491 86.2415 63.2811 86.1969 63.1538L85.707 61.63C87.638 62.5367 89.235 63.9873 90.727 65.4952C90.7479 64.4369 90.7394 63.3782 90.7016 62.3203C90.7016 62.2281 90.7206 62.0022 90.6507 61.9163C90.6125 61.8527 90.552 61.8018 90.5139 61.7413C90.1623 61.3789 89.7826 61.0448 89.3782 60.7424C88.8315 60.2943 88.2724 59.8615 87.7017 59.4445C87.2054 59.0723 86.69 58.7064 86.1842 58.347C86.1269 58.2961 85.9424 58.2229 85.9806 58.1561L86.1047 57.9016C86.1683 57.7903 86.1492 57.7584 86.2733 57.8093L86.8141 57.997C88.1057 58.4933 89.2923 59.1677 90.4502 59.9312C90.0411 58.5017 89.4812 57.1196 88.7801 55.8083C87.5224 53.3857 85.9582 51.1351 84.126 49.1118C82.925 47.7564 81.6291 46.4881 80.248 45.3166C79.5384 44.7111 78.7961 44.1451 78.0243 43.621C77.6649 43.3856 77.3086 43.147 76.9236 42.9307C76.7678 42.8353 76.5896 42.7526 76.4465 42.6317C75.8738 42.1736 75.2853 41.7282 74.7 41.2669C75.4592 41.5787 76.1898 41.9371 76.8918 42.3422C76.4878 41.725 75.8038 41.2892 75.1581 40.9552C74.1693 40.4662 73.14 40.0638 72.0818 39.7527C72.4413 39.3709 72.8262 39.0273 73.1825 38.6456C73.543 38.2596 73.893 37.8651 74.2323 37.4622C74.6353 36.9871 75.0329 36.5046 75.4253 36.0147L71.7478 33.7051L70.2208 32.7412C69.8364 33.5256 69.3461 34.2534 68.7638 34.9045C68.1911 35.5502 67.5199 36.0783 66.855 36.6191C66.2485 37.1196 65.6483 37.6202 65.0544 38.1207C64.9049 38.2479 64.7618 38.3911 64.5932 38.5024C64.5136 38.5692 64.2878 38.5152 64.1892 38.5152H63.4352C62.4871 38.5344 61.5408 38.6066 60.6007 38.7315C60.4163 38.7562 60.23 38.7647 60.044 38.7569L59.4777 38.7251C59.0419 38.6997 58.6156 38.6742 58.1798 38.6742C57.2604 38.6615 56.3347 38.6742 55.4089 38.7537C54.6282 38.8153 53.853 38.9343 53.0898 39.11C52.3324 39.3021 51.6193 39.6391 50.9902 40.1026C50.3762 40.5511 49.7591 41.1206 49.3869 41.7886C49.0147 42.4567 48.8461 43.2393 48.7093 43.9805C48.2798 44.0219 47.8567 44.0123 47.4368 44.0314C46.1272 44.09 44.8315 44.3244 43.5843 44.7281C42.0128 45.2092 40.5633 46.023 39.3342 47.114C38.7106 47.6909 38.1391 48.3229 37.6195 49.01C37.5559 49.0896 37.5018 49.1723 37.4191 49.2264C37.3873 49.255 37.3332 49.2773 37.3141 49.3123C37.2637 49.3953 37.2096 49.476 37.1518 49.554L36.7256 50.2285C36.1911 51.1351 35.8475 52.1213 35.5071 53.1107L35.364 53.5019L35.469 53.4351C35.435 53.6493 35.4085 53.8635 35.3894 54.0777L35.364 54.4118V54.5804L35.154 54.6217C34.7246 54.7045 34.2919 54.8126 33.8815 54.943C33.4998 55.0671 33.1403 55.2166 32.8095 55.4202C32.4754 55.6302 32.1891 55.907 31.9028 56.1805C30.8912 57.1667 30.115 58.401 29.7173 59.769C29.3763 60.895 29.312 62.0867 29.5296 63.2429C29.5851 63.541 29.701 63.8246 29.87 64.0764C30.1054 64.3627 30.5031 64.4772 30.8657 64.3786C31.2825 64.2641 31.6547 63.9841 32.046 63.7837L33.0449 63.2842C34.4923 62.5653 36.0034 61.8654 37.6195 61.6141C37.7308 61.5982 37.9376 61.8272 38.0362 61.9036C38.1953 62.0245 38.3522 62.1348 38.507 62.2344C38.8549 62.4529 39.209 62.6448 39.5696 62.8102C40.4031 63.1729 41.2906 63.3638 42.1718 63.5451C43.771 63.8919 45.3999 64.0837 47.0359 64.1177C47.6955 64.1347 48.3583 64.1156 49.0242 64.0605C49.74 63.9968 50.4589 63.9046 51.1811 63.8982C51.9764 63.8823 52.759 63.9778 53.5352 64.0732C54.3454 64.175 55.1555 64.2863 55.9657 64.4072C57.6135 64.6585 59.2455 64.9448 60.8743 65.2948C60.5095 65.8674 60.1511 66.4453 59.7991 67.0286C59.7736 67.0699 59.57 67.0286 59.5191 67.0286C59.3846 67.02 59.2496 67.02 59.1151 67.0286C58.8776 67.0307 58.639 67.0508 58.3993 67.089C57.7291 67.1866 57.077 67.352 56.4428 67.5853C54.884 68.1611 53.4588 69.1218 52.2245 70.2352C51.5215 70.8556 50.8566 71.5332 50.2872 72.2744C50.1345 72.4801 49.9871 72.6848 49.845 72.8884L50.8566 72.6657C51.0475 72.6169 51.2341 72.5756 51.4165 72.5416C51.4833 72.5162 51.5088 72.4907 51.5724 72.4557C52.2701 71.8068 53.0071 71.2098 53.7833 70.6647C54.1333 70.406 54.5023 70.178 54.8904 69.9807C55.4331 69.7332 56.0018 69.5476 56.586 69.4272C55.5362 69.9998 54.4291 70.5406 53.4779 71.285C52.9308 71.7272 52.4345 72.2108 51.9191 72.6816L53.9997 72.3508C54.0315 72.3508 54.0442 72.338 54.0728 72.3189L54.6136 72.0199C54.9742 71.8184 55.3411 71.6212 55.7143 71.4282C56.4778 71.0369 57.2477 70.6647 58.043 70.3466C58.7938 70.0475 59.57 69.7803 60.3717 69.6308C61.0747 69.4845 61.7332 69.4654 62.4331 69.6308C63.5211 69.8662 64.5645 70.3689 65.5157 70.9478C65.5825 70.9924 65.6271 71.0528 65.6907 70.9924C65.7416 70.9478 66.0025 70.757 65.977 70.6997L65.4044 69.6372C65.3535 69.5449 65.3312 69.4813 65.2421 69.4272L64.8254 69.1823C64.2671 68.8589 63.7256 68.5074 63.203 68.1293C63.0853 68.0561 62.9548 68.0052 62.9421 67.8461C62.9294 67.6998 62.9866 67.5503 63.0344 67.4135C63.1393 67.1272 63.2889 66.8759 63.4511 66.6245C63.5561 66.44 63.6802 66.2714 63.7979 66.0965C63.8424 66.0392 63.8297 66.0296 63.8965 66.0519L64.275 66.1601C65.0258 66.405 65.767 66.6659 66.5369 66.86C67.3958 67.0763 68.2707 67.2512 69.1455 67.4198L69.2982 67.4517C69.1201 67.3562 69.0087 67.1653 68.8783 67.019C68.8051 66.9236 68.7669 66.8599 68.6429 66.8281L68.3089 66.7645C68.0756 66.7179 67.837 66.6659 67.5931 66.6086C66.7552 66.4426 65.9294 66.2204 65.1213 65.9438C63.9283 65.5302 62.7099 65.2057 61.4787 64.9194C59.933 64.5879 58.379 64.2962 56.8182 64.0446C56.0229 63.9141 55.234 63.8091 54.4323 63.6978C53.6497 63.5896 52.8544 63.4751 52.0591 63.421C50.3444 63.3129 48.6425 63.6978 46.9214 63.6787C45.7603 63.666 44.5864 63.5037 43.4348 63.3447L43.2185 63.3161C44.018 63.0191 44.8133 62.7169 45.6044 62.4094C46.3552 62.1061 47.1027 61.7997 47.8472 61.49L49.0338 60.9906C49.3932 60.8283 49.7495 60.6724 50.0772 60.4498C51.3751 59.5622 52.2277 58.137 53.1789 56.9218C54.0474 55.7733 55.0431 54.6949 56.3283 54.0332C56.7376 53.8254 57.1618 53.6599 57.6008 53.5369C56.7005 52.1404 55.8543 50.5784 55.6189 48.9082L55.9179 49.0259C56.0293 49.0641 56.1215 49.0768 56.147 49.1691L56.2392 49.5986C56.3198 49.8849 56.411 50.1627 56.5128 50.4321C56.744 51.0407 57.0197 51.625 57.34 52.1849C58.0366 53.4447 58.8797 54.6217 59.7768 55.7479C61.4915 57.9302 63.4193 59.8994 65.2994 61.9227C65.7607 62.4253 66.1742 62.9534 66.6037 63.4878C67.083 64.0838 67.5676 64.6787 68.0575 65.2725C68.4425 65.7211 68.8019 66.1792 69.1901 66.6277L69.4891 66.984C69.54 67.0413 69.6068 67.0667 69.6831 67.0985C71.6067 68.055 73.5388 69.0041 75.4794 69.9457C76.86 70.6106 78.2438 71.2819 79.6436 71.9277C80.3944 72.2744 81.142 72.6243 81.9055 72.9456C82.0071 72.9925 82.1112 73.0339 82.2172 73.0697C82.2681 73.1015 82.3095 73.1206 82.3667 73.1429L82.4176 73.2988C82.5025 73.5278 82.5831 73.7579 82.6594 73.9891C82.8142 74.4366 82.9712 74.8777 83.1302 75.3125C84.18 78.2138 85.3412 81.0833 86.7727 83.8255C87.8734 85.9124 89.0473 87.9643 90.2403 89.9939C92.5429 93.883 94.9111 97.7328 97.344 101.542C97.8084 102.264 98.2634 103.002 98.7405 103.73L98.941 104.029L101.406 100.4L102.014 99.4994C102.11 99.3951 102.191 99.2785 102.256 99.1527L101.76 98.3892C100.834 96.9544 99.9017 95.5324 98.9887 94.0945L96.3546 90.013L96.0206 89.4849L98.1075 92.0267L101.655 96.3214C102.039 96.7858 102.405 97.2407 102.781 97.7147C103.476 96.438 104.178 95.1645 104.887 93.8941C105.162 93.3702 105.444 92.8485 105.733 92.3289M67.9844 36.3042C68.9674 35.5216 69.7754 34.5132 70.3926 33.422L74.1401 35.7857L74.7127 36.142C73.9301 37.0963 73.1348 38.0634 72.2472 38.9192C72.1359 39.0273 72.0118 39.1387 71.9068 39.25C71.84 39.3295 71.7573 39.4123 71.6841 39.4886L71.5792 39.6095C71.5071 39.584 71.4349 39.5628 71.3628 39.5459C69.985 39.1574 68.5788 38.8776 67.1572 38.7092C66.5448 38.6426 65.9319 38.5811 65.3185 38.5247C66.1986 37.7803 67.0873 37.0401 67.9844 36.3042ZM62.4045 40.6625C63.1425 40.3571 63.9378 40.1853 64.7268 40.0549C66.2927 39.7978 67.8862 39.755 69.4636 39.9276C70.5898 40.0485 71.6937 40.2712 72.7753 40.5957L72.3268 40.9615L71.611 40.7675C71.1624 40.6752 70.717 40.5766 70.2685 40.5066C69.4793 40.3879 68.6835 40.3189 67.8857 40.2998C66.4155 40.266 64.9477 40.4362 63.5243 40.8056C62.5556 41.052 61.6176 41.4063 60.728 41.8618C59.8085 42.3445 58.9711 42.9693 58.2466 43.7133C57.4605 44.508 56.8436 45.4539 56.4333 46.4937L56.341 46.7323L56.3029 46.8532L56.0865 46.8182L55.8257 46.7832C56.5701 44.4959 58.253 42.6921 60.3367 41.5373C60.9885 41.161 61.6826 40.863 62.4045 40.6498M49.9022 41.8395C50.7684 40.6225 52.0628 39.7782 53.5257 39.4759C55.1226 39.1546 56.7578 39.0973 58.377 39.1355C56.7069 39.5522 55.0367 40.1726 53.6434 41.2097C51.9722 41.6029 50.4925 42.5714 49.4632 43.9455H49.196C49.2681 43.5129 49.372 43.0887 49.5078 42.673C49.5937 42.3806 49.7212 42.1021 49.8863 41.8459M52.6922 42.0241C52.2309 42.479 51.8332 42.988 51.4483 43.5161C51.2988 43.7356 51.1365 44.0028 50.8757 44.1237C50.6053 44.2477 50.2585 44.1078 49.9849 44.025C50.6975 43.1375 51.6424 42.4535 52.6922 42.0241ZM36.7383 51.1606C36.9928 50.6516 37.3173 50.1585 37.6131 49.6813C37.664 49.5954 37.7817 49.5349 37.8485 49.4809C38.0034 49.3748 38.155 49.2624 38.3034 49.1437C39.2854 48.4226 40.2811 47.7269 41.2906 47.0568C41.8187 46.7164 42.3404 46.3792 42.8876 46.0801C43.4645 45.762 44.0636 45.5033 44.685 45.3039C45.7955 44.9568 46.9315 44.6973 48.0826 44.5277C48.6361 44.4482 49.231 44.3464 49.7718 44.48C48.7241 45.0802 47.6743 45.6719 46.6224 46.2551C45.5344 46.8627 44.4305 47.4226 43.3298 48.0111C42.2736 48.5838 41.2302 49.2041 40.209 49.8467C39.1401 50.502 38.0776 51.1796 37.0214 51.8477L36.2579 52.3408C36.4011 51.9431 36.5442 51.5423 36.7383 51.1606ZM39.9481 60.8824C39.8559 61.0606 39.5219 61.016 39.3533 61.016C39.0563 61.0139 38.7605 61.0203 38.4657 61.0351C37.6471 61.0818 36.8433 61.2281 36.0543 61.4741C34.5432 61.9418 33.1212 62.6671 31.7119 63.3956C31.3938 63.5706 31.0661 63.8251 30.7067 63.9109C30.6087 63.9357 30.5055 63.9297 30.4111 63.8938C30.3166 63.858 30.2355 63.794 30.1786 63.7105C30.0745 63.514 30.0056 63.3009 29.975 63.0806C29.8949 62.6958 29.8597 62.3029 29.87 61.9099C29.87 60.8601 30.1118 59.8103 30.554 58.856C30.8615 58.1879 31.2549 57.5792 31.7342 57.0299C32.2114 56.4732 32.7713 55.9133 33.4489 55.5984C34.5782 55.083 35.9143 54.9208 37.1518 54.8508C37.383 54.8359 37.6131 54.8285 37.8422 54.8285C38.1603 54.8285 38.5325 54.7776 38.8315 54.889C39.0669 54.9749 39.2165 55.223 39.3087 55.4393C39.4519 55.7733 39.5441 56.1551 39.6268 56.5082C39.8209 57.3353 40.0181 58.1784 40.0881 59.0246C40.1199 59.4031 40.139 59.7849 40.1008 60.1666C40.0722 60.3989 40.0563 60.6629 39.9418 60.876M48.9415 54.5995C47.6913 55.3479 46.3161 55.8641 44.8822 56.1233C44.5736 56.1684 44.2621 56.1907 43.9501 56.1901C43.6288 56.1805 43.3362 56.0756 43.018 55.9769C42.3898 55.7927 41.7821 55.5443 41.2047 55.2357C40.9857 55.1218 40.7962 54.9584 40.6512 54.7585C40.5722 54.5854 40.5467 54.3927 40.578 54.205C40.6162 53.4701 40.8771 52.748 41.2238 52.1054C41.8231 51.0151 42.7611 50.1496 43.8961 49.6399C46.6924 48.3802 49.8291 49.5477 52.2023 51.1987L52.4568 51.3928C51.9669 51.9177 51.4674 52.414 50.952 52.9102C50.3318 53.5327 49.6568 54.0981 48.9351 54.5995M55.8321 48.4692C54.3295 47.8116 52.8863 47.0262 51.5183 46.1215C52.9467 46.7196 54.4896 47.0759 56.0166 47.2985C56.8373 47.4162 57.674 47.5276 58.5011 47.553C59.395 47.5785 60.2953 47.4862 61.1733 47.3144C62.9071 46.9638 64.5838 46.3739 66.1552 45.5616C67.7267 44.7822 69.2219 43.8533 70.6502 42.8289C71.3438 42.3411 72.015 41.8247 72.664 41.2796C72.7308 41.2287 73.2175 40.7675 73.2493 40.7897L73.3797 40.8884L75.0881 42.2117C76.1315 43.024 77.1792 43.8321 78.2311 44.6358C75.3489 45.6729 72.4222 46.6368 69.4764 47.5117C67.8253 48.008 66.1742 48.4692 64.4977 48.8478C63.1871 49.1596 61.8446 49.4491 60.5021 49.5159C58.8892 49.5858 57.3018 49.0864 55.8257 48.4661M83.9796 61.0065C84.2214 61.0733 84.4409 61.1496 84.6636 61.2196L84.9626 61.3246L85.1058 61.3882L85.1726 61.5791C85.3147 62.0414 85.4621 62.4995 85.6148 62.9534L84.18 61.7477L83.8937 61.5123C83.8269 61.4614 83.7506 61.4455 83.8015 61.366L83.9892 61.0033M81.8545 65.597L81.9659 65.3966L82.0518 65.2502C82.09 65.193 82.0772 65.1803 82.144 65.2121C82.5555 65.3839 82.9637 65.5641 83.3688 65.7529C84.1323 66.1007 84.8778 66.4867 85.6052 66.9108C85.9456 67.1176 86.2956 67.3403 86.6296 67.563L87.1068 67.897L87.3422 68.0784C87.4472 68.1643 87.4726 68.2788 87.5235 68.4028C87.8586 69.3 88.217 70.1949 88.5988 71.0878C88.849 71.6901 89.112 72.2903 89.3877 72.8884C88.4454 71.716 87.4285 70.6055 86.3433 69.564C85.2481 68.4722 84.1038 67.4308 82.9139 66.4432L81.8864 65.6034M93.8033 86.0269L93.4183 86.3132L93.4438 86.3641L93.6442 86.6631L94.5063 87.9993L97.3822 92.4593L100.347 97.0562L101.33 98.5832L101.597 99.0063C101.632 99.0512 101.663 99.0991 101.69 99.1495L99.1986 102.821C99.1138 102.942 99.0353 103.059 98.9632 103.174C98.1997 101.99 97.4415 100.806 96.6886 99.6203C95.4162 97.6002 94.1596 95.5579 92.9221 93.5251C91.5426 91.278 90.202 89.0073 88.901 86.714C87.6566 84.5767 86.5319 82.3719 85.5321 80.1098C84.5899 77.8929 83.7294 75.6423 82.9521 73.3624C84.5003 73.9774 86.0697 74.5299 87.6603 75.0198C88.1184 75.1683 88.5807 75.3029 89.0473 75.4238L89.2477 75.4811C89.2732 75.4811 89.2923 75.357 89.305 75.3252C89.3601 75.1216 89.4079 74.9148 89.4482 74.7049C89.5468 74.3072 89.6104 73.8968 89.6836 73.4928C90.3357 74.8544 91.0706 76.1778 91.9136 77.4248C92.5986 78.4237 93.3261 79.3993 94.0959 80.3516C95.761 82.4298 97.5045 84.4439 99.3227 86.3895C100.799 87.9632 102.292 89.5167 103.802 91.0501L105.039 92.2876C105.058 92.3066 105.163 92.3862 105.157 92.418L105.058 92.5866L104.588 93.4614L102.717 96.859L100.996 94.7657L97.4171 90.4361C96.4182 89.2049 95.3907 87.977 94.3854 86.7458L93.7937 86.0301" fill="black"/>
</g>
<defs>
<clipPath id="clip0_7493_3620">
<rect x="29.3955" y="30.2119" width="76.3496" height="76.3496" rx="15" fill="white"/>
</clipPath>
</defs>
</svg>
