<svg width="131" height="131" viewBox="0 0 131 131" fill="none" xmlns="http://www.w3.org/2000/svg">
<path d="M115.047 1.41016H15.0469C7.03875 1.41016 0.546875 7.90203 0.546875 15.9102V115.91C0.546875 123.918 7.03875 130.41 15.0469 130.41H115.047C123.055 130.41 129.547 123.918 129.547 115.91V15.9102C129.547 7.90203 123.055 1.41016 115.047 1.41016Z" fill="white"/>
<path d="M115.047 1.41016H15.0469C7.03875 1.41016 0.546875 7.90203 0.546875 15.9102V115.91C0.546875 123.918 7.03875 130.41 15.0469 130.41H115.047C123.055 130.41 129.547 123.918 129.547 115.91V15.9102C129.547 7.90203 123.055 1.41016 115.047 1.41016Z" fill="#F5F7FB"/>
<path d="M115.047 1.41016H15.0469C7.03875 1.41016 0.546875 7.90203 0.546875 15.9102V115.91C0.546875 123.918 7.03875 130.41 15.0469 130.41H115.047C123.055 130.41 129.547 123.918 129.547 115.91V15.9102C129.547 7.90203 123.055 1.41016 115.047 1.41016Z" stroke="#DBE2F0"/>
<mask id="mask0_96_168" style="mask-type:luminance" maskUnits="userSpaceOnUse" x="28" y="29" width="77" height="75">
<path d="M89.3496 29H43C34.7157 29 28 35.7157 28 44V88.6535C28 96.9378 34.7157 103.654 43 103.654H89.3496C97.6339 103.654 104.35 96.9378 104.35 88.6535V44C104.35 35.7157 97.6339 29 89.3496 29Z" fill="white"/>
</mask>
<g mask="url(#mask0_96_168)">
<path d="M33.6337 60.4443C33.4883 60.4443 33.452 60.3716 33.5247 60.2626L34.2879 59.2813C34.3606 59.1722 34.5423 59.0995 34.6877 59.0995H47.663C47.8084 59.0995 47.8448 59.2086 47.7721 59.3176L47.1542 60.2626C47.0815 60.3716 46.8998 60.4807 46.7908 60.4807L33.6337 60.4443Z" fill="#00ACD7"/>
<path d="M28.1454 63.7882C28 63.7882 27.9637 63.7155 28.0364 63.6064L28.7996 62.6251C28.8723 62.5161 29.0541 62.4434 29.1994 62.4434H45.773C45.9183 62.4434 45.991 62.5524 45.9547 62.6615L45.6639 63.5338C45.6276 63.6791 45.4822 63.7518 45.3368 63.7518L28.1454 63.7882Z" fill="#00ACD7"/>
<path d="M36.9413 67.1318C36.7959 67.1318 36.7596 67.0228 36.8323 66.9137L37.3411 66.0051C37.4138 65.8961 37.5592 65.787 37.7046 65.787H44.9737C45.119 65.787 45.1917 65.8961 45.1917 66.0415L45.119 66.9137C45.119 67.0591 44.9737 67.1682 44.8646 67.1682L36.9413 67.1318Z" fill="#00ACD7"/>
<path d="M74.6674 59.7903C72.3776 60.3719 70.8147 60.808 68.5613 61.3895C68.0161 61.5349 67.9798 61.5713 67.5073 61.0261C66.9621 60.4082 66.5623 60.0084 65.7991 59.6449C63.5093 58.5182 61.2922 58.8453 59.2206 60.1901C56.7491 61.7893 55.477 64.1518 55.5133 67.0958C55.5497 70.0034 57.5487 72.4022 60.42 72.802C62.8914 73.1291 64.9631 72.2568 66.5987 70.4032C66.9258 70.0034 67.2165 69.5672 67.58 69.0584C66.2716 69.0584 64.636 69.0584 60.5653 69.0584C59.8021 69.0584 59.6204 68.5859 59.8748 67.968C60.3473 66.8413 61.2196 64.9514 61.7284 64.0064C61.8374 63.7883 62.0918 63.4249 62.637 63.4249C64.4906 63.4249 71.3236 63.4249 75.8668 63.4249C75.7941 64.4062 75.7941 65.3875 75.6487 66.3688C75.2489 68.9857 74.2676 71.3845 72.6684 73.4925C70.0515 76.9454 66.635 79.0897 62.3099 79.6713C58.7481 80.1438 55.4406 79.4532 52.533 77.2725C49.8434 75.2371 48.3169 72.5476 47.9171 69.2038C47.4446 65.2421 48.6077 61.6803 51.0065 58.5546C53.587 55.1745 57.0035 53.0301 61.1832 52.2668C64.5997 51.649 67.8708 52.0488 70.8147 54.0478C72.7411 55.3198 74.1222 57.0644 75.0308 59.1725C75.2489 59.4996 75.1035 59.6813 74.6674 59.7903Z" fill="#00ACD7"/>
<path d="M86.6974 79.8897C83.3899 79.817 80.3733 78.872 77.8291 76.6913C75.6847 74.8377 74.3399 72.4752 73.9038 69.6766C73.2496 65.5696 74.3763 61.9351 76.8478 58.7003C79.501 55.2112 82.6994 53.3939 87.0245 52.6306C90.7317 51.9764 94.2209 52.3399 97.3829 54.4843C100.254 56.4469 102.035 59.1001 102.508 62.5893C103.126 67.4959 101.708 71.4939 98.3279 74.9104C95.9291 77.3455 92.9851 78.872 89.605 79.5626C88.6237 79.7443 87.6424 79.7807 86.6974 79.8897ZM95.3476 65.2062C95.3112 64.7337 95.3112 64.3702 95.2385 64.0068C94.5843 60.4086 91.2769 58.3732 87.8241 59.1728C84.444 59.9361 82.2632 62.0804 81.4636 65.4969C80.8094 68.3319 82.1905 71.2031 84.8074 72.3662C86.8064 73.2385 88.8054 73.1295 90.7317 72.1481C93.603 70.658 95.1659 68.3319 95.3476 65.2062Z" fill="#00ACD7"/>
</g>
</svg>
