<svg width="136" height="133" viewBox="0 0 136 133" fill="none" xmlns="http://www.w3.org/2000/svg">
<rect x="0.59375" y="1.41016" width="133.954" height="131" rx="15.5" fill="white"/>
<rect x="0.59375" y="1.41016" width="133.954" height="131" rx="15.5" fill="#F5F7FB"/>
<rect x="0.59375" y="1.41016" width="133.954" height="131" rx="15.5" stroke="#DBE2F0"/>
<g clip-path="url(#clip0_7511_3623)">
<path d="M41.2967 58.0637C41.8184 56.7117 42.4165 55.4105 43.1195 54.1858C42.4419 53.5622 40.7495 52.2357 40.8545 52.1307C49.6792 41.5626 61.1857 38.3877 71.3625 40.2329C73.4462 40.5192 75.5299 41.0154 77.585 41.7694C92.1646 47.1839 99.5292 63.2427 94.0638 77.6664C93.5217 79.0785 92.8686 80.4454 92.1105 81.7543C92.9186 82.4542 94.6873 83.7585 94.5855 83.8635C84.7969 95.4464 71.7538 98.1281 60.8994 94.9024C59.8441 94.6383 58.8016 94.3251 57.7755 93.9639C43.2245 88.5495 35.8313 72.4874 41.2967 58.0637ZM91.0194 33.3359C89.1711 35.1047 86.9569 37.2393 85.8658 38.2032C84.1049 37.2086 82.2678 36.3555 80.3718 35.6519C63.8134 29.5089 46.3739 36.4599 36.7666 49.3948C31.7434 56.8198 28.7753 65.9563 29.5038 75.3537C29.5038 75.3537 29.5325 93.0286 45.8554 103.444C47.182 101.618 48.8712 99.2766 49.991 97.7655C51.8405 98.8324 53.7737 99.7473 55.7713 100.501C74.5151 107.449 95.2886 98.5735 102.081 80.6886C102.081 80.6886 107.053 69.7833 105.414 57.8601C105.414 57.8601 104.139 41.7694 91.0194 33.3359Z" fill="black"/>
</g>
<defs>
<clipPath id="clip0_7511_3623">
<rect x="29.3955" y="30.2119" width="76.3496" height="76.3496" rx="15" fill="white"/>
</clipPath>
</defs>
</svg>
