<svg width="131" height="131" viewBox="0 0 131 131" fill="none" xmlns="http://www.w3.org/2000/svg">
<rect x="0.546875" y="1.41016" width="129" height="129" rx="14.5" fill="white"/>
<rect x="0.546875" y="1.41016" width="129" height="129" rx="14.5" fill="#F5F7FB"/>
<rect x="0.546875" y="1.41016" width="129" height="129" rx="14.5" stroke="#DBE2F0"/>
<path d="M63.5849 32.3375C60.7975 32.3504 58.1356 32.5882 55.7933 33.0026C48.8934 34.2216 47.6407 36.773 47.6407 41.4783V47.6926H63.946V49.764H47.6407H41.5214C36.7826 49.764 32.6332 52.6123 31.3354 58.0307C29.8383 64.2415 29.7719 68.1171 31.3354 74.6021C32.4944 79.4293 35.2623 82.8688 40.0011 82.8688H45.6073V75.4192C45.6073 70.0374 50.2637 65.2902 55.7933 65.2902H72.0796C76.6132 65.2902 80.2323 61.5574 80.2323 57.0045V41.4783C80.2323 37.0595 76.5045 33.7401 72.0796 33.0026C69.2786 32.5363 66.3723 32.3245 63.5849 32.3375ZM54.7671 37.3355C56.4513 37.3355 57.8267 38.7334 57.8267 40.4521C57.8267 42.1648 56.4513 43.5498 54.7671 43.5498C53.0769 43.5498 51.7075 42.1648 51.7075 40.4521C51.7075 38.7334 53.0769 37.3355 54.7671 37.3355Z" fill="url(#paint0_linear_7511_3664)"/>
<path d="M82.2657 49.7646V57.0051C82.2657 62.6186 77.5066 67.3432 72.0796 67.3432H55.7933C51.3322 67.3432 47.6406 71.1613 47.6406 75.6289V91.1551C47.6406 95.5739 51.4831 98.173 55.7933 99.4408C60.9546 100.958 65.9041 101.233 72.0796 99.4408C76.1845 98.2522 80.2323 95.8604 80.2323 91.1551V84.9408H63.9459V82.8694H80.2323H88.3849C93.1237 82.8694 94.8896 79.564 96.5376 74.6027C98.2399 69.4951 98.1675 64.5834 96.5376 58.0313C95.3665 53.3138 93.1297 49.7646 88.3849 49.7646H82.2657ZM73.1058 89.0836C74.7961 89.0836 76.1654 90.4686 76.1654 92.1813C76.1654 93.9001 74.7961 95.2979 73.1058 95.2979C71.4216 95.2979 70.0462 93.9001 70.0462 92.1813C70.0462 90.4686 71.4216 89.0836 73.1058 89.0836Z" fill="url(#paint1_linear_7511_3664)"/>
<defs>
<linearGradient id="paint0_linear_7511_3664" x1="30.1875" y1="32.3369" x2="67.7858" y2="64.3759" gradientUnits="userSpaceOnUse">
<stop stop-color="#5A9FD4"/>
<stop offset="1" stop-color="#306998"/>
</linearGradient>
<linearGradient id="paint1_linear_7511_3664" x1="72.714" y1="91.6588" x2="59.2251" y2="72.7569" gradientUnits="userSpaceOnUse">
<stop stop-color="#FFD43B"/>
<stop offset="1" stop-color="#FFE873"/>
</linearGradient>
</defs>
</svg>
