<svg width="131" height="131" viewBox="0 0 131 131" fill="none" xmlns="http://www.w3.org/2000/svg">
<path d="M115.047 1.41016H15.0469C7.03875 1.41016 0.546875 7.90203 0.546875 15.9102V115.91C0.546875 123.918 7.03875 130.41 15.0469 130.41H115.047C123.055 130.41 129.547 123.918 129.547 115.91V15.9102C129.547 7.90203 123.055 1.41016 115.047 1.41016Z" fill="white"/>
<path d="M115.047 1.41016H15.0469C7.03875 1.41016 0.546875 7.90203 0.546875 15.9102V115.91C0.546875 123.918 7.03875 130.41 15.0469 130.41H115.047C123.055 130.41 129.547 123.918 129.547 115.91V15.9102C129.547 7.90203 123.055 1.41016 115.047 1.41016Z" fill="#F5F7FB"/>
<path d="M115.047 1.41016H15.0469C7.03875 1.41016 0.546875 7.90203 0.546875 15.9102V115.91C0.546875 123.918 7.03875 130.41 15.0469 130.41H115.047C123.055 130.41 129.547 123.918 129.547 115.91V15.9102C129.547 7.90203 123.055 1.41016 115.047 1.41016Z" stroke="#DBE2F0"/>
<mask id="mask0_96_167" style="mask-type:luminance" maskUnits="userSpaceOnUse" x="28" y="29" width="77" height="75">
<path d="M89.3496 29H43C34.7157 29 28 35.7157 28 44V88.6535C28 96.9378 34.7157 103.654 43 103.654H89.3496C97.6339 103.654 104.35 96.9378 104.35 88.6535V44C104.35 35.7157 97.6339 29 89.3496 29Z" fill="white"/>
</mask>
<g mask="url(#mask0_96_167)">
<mask id="mask1_96_167" style="mask-type:luminance" maskUnits="userSpaceOnUse" x="34" y="29" width="64" height="75">
<path d="M97.836 29H34.3623V103.654H97.836V29Z" fill="white"/>
</mask>
<g mask="url(#mask1_96_167)">
<path d="M93.7594 38.8693C86.7068 28.9365 72.6662 26.0263 62.5725 32.2896L44.7792 43.4244C39.9264 46.3979 36.5619 51.2693 35.5913 56.7734C34.7502 61.3918 35.4619 66.1368 37.7265 70.249C36.1737 72.5266 35.1384 75.0572 34.6855 77.7144C33.6502 83.345 35.009 89.1655 38.3736 93.7838C45.4909 103.717 59.4668 106.627 69.5605 100.363L87.3538 89.292C92.2065 86.3185 95.5711 81.447 96.5416 75.9429C97.3828 71.3245 96.671 66.5796 94.4064 62.4673C95.9593 60.1898 96.9946 57.6592 97.4475 55.002C98.5474 49.3081 97.1887 43.4876 93.7594 38.8693Z" fill="#FF3E00"/>
<path d="M60.8264 94.7332C55.0678 96.1883 49.0504 93.974 45.6858 89.229C43.6153 86.4454 42.8389 82.9657 43.4212 79.5494C43.5506 78.98 43.68 78.4739 43.8094 77.9045L44.133 76.8922L45.0388 77.5249C47.174 79.0433 49.5033 80.1821 52.0267 80.9412L52.6738 81.131L52.6091 81.7637C52.5444 82.6494 52.8032 83.5984 53.3208 84.3576C54.356 85.8127 56.1677 86.5086 57.9147 86.0658C58.3029 85.9392 58.6912 85.8127 59.0147 85.6229L76.7433 74.5514C77.6492 73.982 78.2315 73.1596 78.4256 72.1473C78.6197 71.1351 78.3609 70.0596 77.7786 69.2371C76.7433 67.782 74.9316 67.1493 73.1846 67.5922C72.7964 67.7187 72.4082 67.8453 72.0847 68.0351L65.2909 72.2739C64.1909 72.9698 62.9616 73.4759 61.6675 73.7922C55.9089 75.2473 49.8915 73.033 46.527 68.2881C44.5212 65.5044 43.68 62.0248 44.3271 58.6085C44.9094 55.3187 46.9799 52.3452 49.8915 50.5737L67.6849 39.5022C68.7848 38.8063 70.0142 38.3002 71.3083 37.9206C77.0668 36.4655 83.0842 38.6798 86.4488 43.4247C88.5193 46.2084 89.2957 49.688 88.7134 53.1044C88.584 53.6738 88.4546 54.1799 88.2605 54.7493L87.9369 55.7615L87.0311 55.1289C84.8959 53.6105 82.5666 52.4717 80.0432 51.7125L79.3961 51.5227L79.4608 50.8901C79.5255 50.0043 79.2667 49.0554 78.7491 48.2962C77.7139 46.8411 75.9022 46.2084 74.1552 46.6513C73.767 46.7778 73.3788 46.9043 73.0552 47.0941L55.3266 58.1656C54.4207 58.735 53.8384 59.5575 53.6443 60.5697C53.4502 61.582 53.709 62.6575 54.2913 63.4799C55.3266 64.935 57.1383 65.5677 58.8853 65.1248C59.2735 64.9983 59.6617 64.8718 59.9852 64.682L66.779 60.4432C67.879 59.7473 69.1083 59.2411 70.4024 58.8615C76.161 57.4064 82.1784 59.6207 85.5429 64.3657C87.6134 67.1493 88.3899 70.6289 87.8075 74.0453C87.2252 77.3351 85.1547 80.3086 82.2431 82.08L64.4497 93.1515C63.3498 93.8474 62.1204 94.3536 60.8264 94.7332Z" fill="white"/>
</g>
</g>
</svg>
