<svg width="131" height="131" viewBox="0 0 131 131" fill="none" xmlns="http://www.w3.org/2000/svg">
<rect x="0.546875" y="1.41016" width="129" height="129" rx="14.5" fill="white"/>
<rect x="0.546875" y="1.41016" width="129" height="129" rx="14.5" fill="#F5F7FB"/>
<rect x="0.546875" y="1.41016" width="129" height="129" rx="14.5" stroke="#DBE2F0"/>
<g clip-path="url(#clip0_7511_3657)">
<path d="M94.4402 29.2266H34.3675C30.3412 29.2266 27.0771 32.4906 27.0771 36.5169V96.5897C27.0771 100.616 30.3412 103.88 34.3675 103.88H94.4402C98.4666 103.88 101.731 100.616 101.731 96.5897V36.5169C101.731 32.4906 98.4666 29.2266 94.4402 29.2266Z" fill="#3178C6"/>
<path d="M94.4402 29.2266H34.3675C30.3412 29.2266 27.0771 32.4906 27.0771 36.5169V96.5897C27.0771 100.616 30.3412 103.88 34.3675 103.88H94.4402C98.4666 103.88 101.731 100.616 101.731 96.5897V36.5169C101.731 32.4906 98.4666 29.2266 94.4402 29.2266Z" fill="#3178C6"/>
<path fill-rule="evenodd" clip-rule="evenodd" d="M73.289 88.632V95.9313C74.4756 96.5396 75.879 96.9957 77.4992 97.2998C79.1194 97.604 80.827 97.7561 82.6222 97.7561C84.3717 97.7561 86.0336 97.5888 87.6082 97.2542C89.1828 96.9197 90.5634 96.3684 91.75 95.6004C92.9366 94.8326 93.876 93.8289 94.5682 92.5895C95.2603 91.3502 95.6065 89.8182 95.6065 87.9934C95.6065 86.6703 95.4088 85.5109 95.0132 84.5148C94.6176 83.5188 94.0472 82.633 93.3017 81.8575C92.5563 81.0819 91.6625 80.3862 90.6204 79.7703C89.5784 79.1544 88.4032 78.5727 87.0948 78.0254C86.1364 77.63 85.2769 77.246 84.5162 76.8735C83.7555 76.5008 83.109 76.1207 82.5765 75.733C82.044 75.3452 81.6333 74.9346 81.3443 74.5012C81.0553 74.0677 80.9107 73.5774 80.9107 73.0299C80.9107 72.5281 81.04 72.0757 81.2987 71.6727C81.5573 71.2697 81.9224 70.9238 82.394 70.6348C82.8657 70.346 83.4437 70.1216 84.1282 69.9619C84.8129 69.8023 85.5735 69.7225 86.4103 69.7225C87.0187 69.7225 87.6614 69.7682 88.3384 69.8593C89.0154 69.9506 89.6962 70.0913 90.3809 70.2813C91.0655 70.4714 91.7309 70.7109 92.3776 70.9998C93.0241 71.2888 93.6212 71.6233 94.1688 72.0035V65.1832C93.0584 64.7575 91.8451 64.442 90.5292 64.2367C89.2133 64.0314 87.7033 63.9287 85.9995 63.9287C84.2651 63.9287 82.6222 64.1151 81.0705 64.4876C79.5188 64.8601 78.1535 65.4418 76.9743 66.2325C75.7953 67.0233 74.8636 68.0307 74.179 69.2549C73.4945 70.479 73.1521 71.9426 73.1521 73.6458C73.1521 75.8203 73.7797 77.6756 75.0348 79.2115C76.2898 80.7473 78.1952 82.0475 80.751 83.112C81.7551 83.5226 82.6907 83.9255 83.5578 84.3209C84.4249 84.7163 85.1742 85.1269 85.8054 85.5527C86.4368 85.9785 86.935 86.4423 87.3003 86.9441C87.6654 87.4459 87.8479 88.0161 87.8479 88.6549C87.8479 89.1263 87.7338 89.5634 87.5056 89.9664C87.2774 90.3695 86.9312 90.7191 86.4673 91.0157C86.0033 91.3122 85.4252 91.5441 84.733 91.7113C84.0407 91.8787 83.2308 91.9623 82.3027 91.9623C80.7206 91.9623 79.1537 91.6848 77.6019 91.1297C76.0502 90.5747 74.6125 89.7422 73.289 88.632ZM61.018 70.6478H70.3818V64.6577H44.2822V70.6478H53.6002V97.3186H61.018V70.6478Z" fill="white"/>
</g>
<defs>
<clipPath id="clip0_7511_3657">
<rect x="27.0771" y="29.2266" width="74.6535" height="74.6535" rx="15" fill="white"/>
</clipPath>
</defs>
</svg>
