<svg width="45" height="45" viewBox="0 0 45 45" fill="none" xmlns="http://www.w3.org/2000/svg">
<circle cx="22.5" cy="22.5" r="22.5" fill="#BFBFFF" fill-opacity="0.3"/>
<path d="M23 32C27.9706 32 32 27.9706 32 23C32 18.0294 27.9706 14 23 14C18.0294 14 14 18.0294 14 23C14 27.9706 18.0294 32 23 32Z" stroke="#6B59ED" stroke-width="1.5" stroke-linecap="round" stroke-linejoin="round"/>
<path d="M19.625 23.9375C20.1428 23.9375 20.5625 23.5178 20.5625 23C20.5625 22.4822 20.1428 22.0625 19.625 22.0625C19.1072 22.0625 18.6875 22.4822 18.6875 23C18.6875 23.5178 19.1072 23.9375 19.625 23.9375Z" fill="#6B59ED"/>
<path d="M26.375 23.9375C26.8928 23.9375 27.3125 23.5178 27.3125 23C27.3125 22.4822 26.8928 22.0625 26.375 22.0625C25.8572 22.0625 25.4375 22.4822 25.4375 23C25.4375 23.5178 25.8572 23.9375 26.375 23.9375Z" fill="#6B59ED"/>
<path d="M25.488 26.75C24.7504 27.239 23.8851 27.4997 23.0001 27.4997C22.1152 27.4998 21.2498 27.239 20.5122 26.7501" stroke="#6B59ED" stroke-width="1.5" stroke-linecap="round" stroke-linejoin="round"/>
<path d="M23 14C21.5 15.875 21.5 17.75 21.5 17.75C21.5 18.1478 21.658 18.5294 21.9393 18.8107C22.2206 19.092 22.6022 19.25 23 19.25C23.3978 19.25 23.7794 19.092 24.0607 18.8107C24.342 18.5294 24.5 18.1478 24.5 17.75" stroke="#6B59ED" stroke-width="1.5" stroke-linecap="round" stroke-linejoin="round"/>
</svg>
