<svg width="45" height="45" viewBox="0 0 45 45" fill="none" xmlns="http://www.w3.org/2000/svg">
<circle cx="22.5" cy="22.5" r="22.5" fill="#BFBFFF" fill-opacity="0.3"/>
<path d="M32.1365 23.75H29.1365C28.7387 23.75 28.3571 23.908 28.0758 24.1893C27.7945 24.4707 27.6365 24.8522 27.6365 25.25V29C27.6365 29.3978 27.7945 29.7794 28.0758 30.0607C28.3571 30.342 28.7387 30.5 29.1365 30.5H30.6365C31.0343 30.5 31.4158 30.342 31.6971 30.0607C31.9784 29.7794 32.1365 29.3978 32.1365 29V23.75ZM32.1365 23.75C32.1365 22.5624 31.9014 21.3865 31.4449 20.2901C30.9883 19.1937 30.3192 18.1986 29.4763 17.362C28.6333 16.5254 27.6331 15.8639 26.5333 15.4156C25.4335 14.9674 24.2558 14.7413 23.0682 14.7503C21.8806 14.7413 20.703 14.9674 19.6032 15.4156C18.5034 15.8639 17.5032 16.5254 16.6602 17.362C15.8172 18.1986 15.1482 19.1937 14.6916 20.2901C14.2351 21.3865 14 22.5624 14 23.75V29C14 29.3978 14.158 29.7794 14.4393 30.0607C14.7206 30.342 15.1022 30.5 15.5 30.5H17C17.3978 30.5 17.7794 30.342 18.0607 30.0607C18.342 29.7794 18.5 29.3978 18.5 29V25.25C18.5 24.8522 18.342 24.4707 18.0607 24.1893C17.7794 23.908 17.3978 23.75 17 23.75H14" stroke="#6B59ED" stroke-width="1.5" stroke-linecap="round" stroke-linejoin="round"/>
</svg>
