<svg width="190" height="37" viewBox="0 0 190 37" fill="none" xmlns="http://www.w3.org/2000/svg">
<g clip-path="url(#clip0_4735_14692)">
<mask id="mask0_4735_14692" style="mask-type:luminance" maskUnits="userSpaceOnUse" x="0" y="0" width="190" height="37">
<path d="M190 0H0V37H190V0Z" fill="white"/>
</mask>
<g mask="url(#mask0_4735_14692)">
<path fill-rule="evenodd" clip-rule="evenodd" d="M36.3857 18.4566C36.3857 8.26344 28.2405 0 18.1928 0C8.14534 0 0 8.26344 0 18.4566C0 28.6503 8.14534 36.9132 18.1928 36.9132C28.2405 36.9132 36.3857 28.6503 36.3857 18.4566ZM14.8815 8.20294C14.7385 8.48772 14.7385 8.86052 14.7385 9.60611V13.8319C14.7385 14.0181 14.7385 14.1112 14.7617 14.1973C14.7822 14.2736 14.816 14.3456 14.8614 14.4098C14.9127 14.4824 14.9839 14.5411 15.1264 14.6585L16.18 15.5269C16.3518 15.6684 16.4376 15.7392 16.4688 15.8244C16.4961 15.8991 16.4961 15.9813 16.4688 16.056C16.4376 16.1412 16.3518 16.212 16.18 16.3535L15.1264 17.2219C14.9839 17.3393 14.9127 17.398 14.8614 17.4705C14.816 17.5348 14.7822 17.6067 14.7617 17.683C14.7385 17.7691 14.7385 17.8623 14.7385 18.0485V27.3071C14.7385 28.0526 14.7385 28.4254 14.8815 28.7101C15.0073 28.9608 15.2081 29.1643 15.455 29.2921C15.7357 29.4371 16.1032 29.4371 16.8381 29.4371H19.5475C20.2825 29.4371 20.6499 29.4371 20.9307 29.2921C21.1776 29.1643 21.3782 28.9608 21.5041 28.7101C21.6472 28.4254 21.6472 28.0526 21.6472 27.3071V23.0812C21.6472 22.8949 21.6472 22.8018 21.624 22.7159C21.6034 22.6395 21.5697 22.5674 21.5243 22.5032C21.4729 22.4307 21.4017 22.372 21.2593 22.2546L20.2057 21.3862C20.0339 21.2447 19.948 21.174 19.9169 21.0887C19.8895 21.014 19.8895 20.9318 19.9169 20.8571C19.948 20.7719 20.0339 20.7011 20.2057 20.5596L21.2593 19.6913C21.4017 19.5739 21.4729 19.5151 21.5243 19.4426C21.5697 19.3783 21.6034 19.3064 21.624 19.2301C21.6472 19.144 21.6472 19.0509 21.6472 18.8646V9.60611C21.6472 8.86052 21.6472 8.48772 21.5041 8.20294C21.3782 7.95245 21.1776 7.74878 20.9307 7.62113C20.6499 7.47604 20.2825 7.47604 19.5475 7.47604H16.8381C16.1032 7.47604 15.7357 7.47604 15.455 7.62113C15.2081 7.74878 15.0073 7.95245 14.8815 8.20294Z" fill="#270741"/>
<path d="M50.9908 29.4977C51.1711 29.4977 51.3171 29.3494 51.3171 29.1666V7.48636C51.3171 7.30351 51.1711 7.15527 50.9908 7.15527H47.8414C47.7247 7.15527 47.6179 7.21934 47.5538 7.31827C46.8317 8.4322 45.4891 8.99326 43.6488 9.05167C43.4687 9.05737 43.3223 9.20499 43.3223 9.38786V12.6305C43.3223 12.8134 43.4683 12.9616 43.6486 12.9616H46.1938C46.374 12.9616 46.5202 13.1098 46.5202 13.2927V29.1666C46.5202 29.3494 46.6662 29.4977 46.8466 29.4977H50.9908Z" fill="#270741"/>
<path d="M63.5639 11.6372C65.2628 11.6372 66.6286 12.554 66.6286 14.8629C66.6286 17.104 65.2628 18.0886 63.5639 18.0886H59.8662V11.6372H63.5639ZM63.5639 22.2651C68.5607 22.2651 71.4589 19.1752 71.4589 14.7271C71.4589 10.5167 68.5607 7.42676 63.5639 7.42676H55.4289C55.2486 7.42676 55.1025 7.57499 55.1025 7.75784V29.1664C55.1025 29.3493 55.2486 29.4975 55.4289 29.4975H59.5398C59.7201 29.4975 59.8662 29.3493 59.8662 29.1664V22.5961C59.8662 22.4133 60.0124 22.2651 60.1925 22.2651H63.5639Z" fill="#270741"/>
<path d="M78.8477 26.3741C77.4485 26.3741 76.5825 25.729 76.5825 24.5745C76.5825 23.5558 77.1821 22.8768 78.6145 22.8768H82.5121V23.2162C82.5121 25.1857 80.8465 26.3741 78.8477 26.3741ZM82.8785 29.1668C82.8785 29.3497 83.0247 29.4979 83.2049 29.4979H86.7828C86.9632 29.4979 87.1092 29.3497 87.1092 29.1668V19.5831C87.1092 14.9652 84.5441 12.2827 79.9137 12.2827C76.4757 12.2827 73.8436 14.1464 72.7643 17.1426C72.6996 17.3225 72.8073 17.5166 72.9906 17.5622L76.5955 18.4591C76.7583 18.4996 76.9238 18.4079 76.9873 18.2504C77.5346 16.8911 78.4463 16.0857 79.9137 16.0857C81.4461 16.0857 82.5121 17.1043 82.5121 18.9379V19.1756C82.5121 19.6849 82.3456 19.8887 81.7458 19.8887H77.5818C74.1174 19.8887 72.0186 21.7562 72.0186 24.7102C72.0186 27.8682 74.4171 29.9055 77.7485 29.9055C79.4246 29.9055 81.0351 29.3463 82.17 28.101C82.3931 27.8563 82.8785 28.0055 82.8785 28.339V29.1668Z" fill="#270741"/>
<path d="M95.972 26.5098C94.3531 26.5098 93.1706 25.8279 92.5878 24.5745C92.517 24.4225 92.3528 24.334 92.1919 24.3753L88.8226 25.2412C88.6494 25.2856 88.5425 25.4638 88.5941 25.6375C89.4471 28.5133 92.3004 29.9055 95.8053 29.9055C100.303 29.9055 102.868 27.5626 102.868 24.3708C102.868 18.1909 93.2404 20.2961 93.2404 17.2402C93.2404 16.2215 94.0731 15.5764 95.5721 15.5764C97.064 15.5764 98.0631 16.404 98.5419 17.6733C98.6012 17.8307 98.7604 17.9295 98.9236 17.8981L102.363 17.2373C102.547 17.2019 102.664 17.0168 102.611 16.8347C101.822 14.1311 99.6053 12.2827 95.6054 12.2827C91.2082 12.2827 88.8762 14.6596 88.8762 17.6476C88.8762 24.0312 98.5369 22.1298 98.5369 24.7783C98.5369 25.8308 97.6709 26.5098 95.972 26.5098Z" fill="#270741"/>
<path d="M110.938 26.5098C109.319 26.5098 108.136 25.8279 107.553 24.5745C107.483 24.4225 107.318 24.334 107.158 24.3753L103.788 25.2412C103.615 25.2856 103.508 25.4638 103.56 25.6375C104.413 28.5133 107.266 29.9055 110.771 29.9055C115.268 29.9055 117.833 27.5626 117.833 24.3708C117.833 18.1909 108.206 20.2961 108.206 17.2402C108.206 16.2215 109.039 15.5764 110.538 15.5764C112.03 15.5764 113.029 16.404 113.508 17.6733C113.567 17.8307 113.726 17.9295 113.889 17.8981L117.328 17.2373C117.512 17.2019 117.63 17.0168 117.577 16.8347C116.788 14.1311 114.571 12.2827 110.571 12.2827C106.174 12.2827 103.842 14.6596 103.842 17.6476C103.842 24.0312 113.503 22.1298 113.503 24.7783C113.503 25.8308 112.637 26.5098 110.938 26.5098Z" fill="#270741"/>
<path d="M122.045 29.2448C122.08 29.3932 122.211 29.4976 122.362 29.4976H127.543C127.694 29.4976 127.826 29.392 127.861 29.2425L130.5 17.8511L133.139 29.2425C133.174 29.392 133.305 29.4976 133.457 29.4976H138.805C138.956 29.4976 139.086 29.3937 139.122 29.2454L143.026 13.0999C143.077 12.8913 142.921 12.6899 142.709 12.6899H139.027C138.872 12.6899 138.739 12.8002 138.708 12.954L136.096 25.7626L132.861 12.9389C132.824 12.7924 132.694 12.6899 132.545 12.6899H128.426C128.275 12.6899 128.143 12.7952 128.108 12.9444L125.103 25.7626L122.525 12.9548C122.494 12.8006 122.36 12.6899 122.205 12.6899H118.49C118.278 12.6899 118.123 12.8908 118.172 13.0993L122.045 29.2448Z" fill="#270741"/>
<path d="M151.828 29.9055C156.825 29.9055 160.257 25.9667 160.257 21.111C160.257 16.2215 156.825 12.2827 151.828 12.2827C146.865 12.2827 143.4 16.2215 143.4 21.111C143.4 25.9667 146.865 29.9055 151.828 29.9055ZM151.828 25.8649C149.763 25.8649 148.164 24.0991 148.164 21.111C148.164 18.123 149.763 16.3234 151.828 16.3234C153.894 16.3234 155.526 18.123 155.526 21.111C155.526 24.0991 153.894 25.8649 151.828 25.8649Z" fill="#270741"/>
<path d="M166.827 20.6017C166.827 17.7155 168.259 17.0364 170.458 17.0364C170.879 17.0364 171.342 17.0789 171.781 17.1638C171.967 17.1998 172.152 17.0793 172.184 16.8901L172.882 12.8915C172.906 12.751 172.84 12.6086 172.711 12.5527C172.31 12.3795 171.815 12.2827 171.224 12.2827C168.992 12.2827 167.26 13.607 166.427 16.2894V13.0213C166.427 12.8384 166.281 12.6902 166.101 12.6902H162.489C162.309 12.6902 162.163 12.8384 162.163 13.0213V29.1668C162.163 29.3497 162.309 29.4979 162.489 29.4979H166.5C166.681 29.4979 166.827 29.3497 166.827 29.1668V20.6017Z" fill="#270741"/>
<path d="M181.501 25.9668C179.103 25.9668 177.837 23.9632 177.837 21.1111C177.837 18.2588 179.103 16.2216 181.501 16.2216C183.9 16.2216 185.166 18.2588 185.166 21.1111C185.166 23.9632 183.9 25.9668 181.501 25.9668ZM185.432 29.1668C185.432 29.3497 185.578 29.4979 185.759 29.4979H189.503C189.683 29.4979 189.829 29.3497 189.829 29.1668V7.80765C189.829 7.6248 189.683 7.47656 189.503 7.47656H185.625C185.445 7.47656 185.299 7.6248 185.299 7.80765V15.0331C184.266 13.0637 182.534 12.2828 180.335 12.2828C176.038 12.2828 173.106 16.0857 173.106 21.1111C173.106 26.1364 176.038 29.9056 180.335 29.9056C182.667 29.9056 184.466 28.9546 185.432 26.5099V29.1668Z" fill="#270741"/>
</g>
</g>
<defs>
<clipPath id="clip0_4735_14692">
<rect width="190" height="37" fill="white"/>
</clipPath>
</defs>
</svg>
