<svg width="124" height="41" viewBox="0 0 124 41" fill="none" xmlns="http://www.w3.org/2000/svg">
<g clip-path="url(#clip0_4735_14697)">
<path d="M123.138 27.7733C122.927 27.7733 122.735 27.9096 122.636 28.1946C121.365 31.8188 119.648 33.9748 118.234 33.9748C117.422 33.9748 117.093 33.0703 117.093 31.6515C117.093 28.1017 119.22 20.5744 120.292 17.1422C120.416 16.7272 120.497 16.3554 120.497 16.0395C120.497 15.042 119.951 14.5526 118.6 14.5526C117.143 14.5526 115.574 15.1226 114.049 17.7927C113.522 15.4385 111.929 14.4101 109.703 14.4101C107.13 14.4101 104.644 16.0643 102.598 18.7468C100.552 21.4294 98.146 22.3091 96.3356 21.8754C97.6376 18.6911 98.1212 16.3121 98.1212 14.5464C98.1212 11.7771 96.751 10.1044 94.5376 10.1044C91.171 10.1044 89.2304 13.3136 89.2304 16.69C89.2304 19.2982 90.4146 21.9807 93.0186 23.2817C90.8362 28.2132 87.6494 32.6738 86.4404 32.6738C84.878 32.6738 84.4192 25.035 84.506 19.5708C84.5618 16.436 84.8222 16.2749 84.8222 15.327C84.8222 14.7818 84.4688 14.4101 83.049 14.4101C79.7382 14.4101 78.7152 17.2104 78.5602 20.4257C78.5106 21.6462 78.3184 22.8605 77.9898 24.0376C76.6072 28.969 73.7552 32.7109 71.8952 32.7109C71.0334 32.7109 70.7978 31.8498 70.7978 30.7223C70.7978 27.1724 72.788 22.7366 72.788 18.9513C72.788 16.1696 71.5666 14.4101 69.2664 14.4101C66.557 14.4101 62.9734 17.6317 59.582 23.6659C60.698 19.0442 61.1568 14.5712 57.8522 14.5712C57.133 14.5836 56.4324 14.7633 55.8 15.104C55.366 15.3084 55.0994 15.7545 55.1304 16.2315C55.4466 21.1506 51.1624 33.7517 47.1014 33.7517C46.3636 33.7517 46.004 32.9526 46.004 31.6639C46.004 28.1079 48.1244 20.5992 49.1908 17.1608C49.3272 16.7148 49.4016 16.3307 49.4016 15.9961C49.4016 15.0544 48.8188 14.5712 47.4982 14.5712C46.0474 14.5712 44.4726 15.1226 42.9536 17.7927C42.4204 15.4385 40.827 14.4101 38.6012 14.4101C34.9494 14.4101 30.8698 18.2698 29.078 23.3003C26.6786 30.016 21.8426 36.5024 15.3326 36.5024C9.424 36.5024 6.3054 31.5896 6.3054 23.8269C6.3054 12.6197 14.539 3.4631 20.646 3.4631C23.5662 3.4631 24.9612 5.32168 24.9612 8.1715C24.9612 11.6223 23.033 13.2268 23.033 14.5402C23.033 14.9429 23.3678 15.3394 24.0312 15.3394C26.6848 15.3394 29.8096 12.2232 29.8096 7.97325C29.8096 3.7233 26.3562 0.613281 20.2492 0.613281C10.1556 0.613281 0 10.7611 0 23.765C0 34.1111 5.1088 40.3497 13.9438 40.3497C19.9702 40.3497 25.234 35.6661 28.0736 30.2019C28.396 34.7306 30.4544 37.0972 33.5916 37.0972C36.3816 37.0972 38.6384 35.4369 40.362 32.5189C41.0254 35.5732 42.7862 37.0662 45.074 37.0662C47.6966 37.0662 49.8914 35.4059 51.9808 32.3206C51.9498 34.743 52.5016 37.0228 54.6034 37.0228C55.5954 37.0228 56.7796 36.7936 56.9904 35.9263C59.2038 26.7821 64.6722 19.3168 66.3462 19.3168C66.8422 19.3168 66.9786 19.7938 66.9786 20.3576C66.9786 22.8419 65.224 27.9344 65.224 31.1869C65.224 34.6996 66.7182 37.0228 69.8058 37.0228C73.2282 37.0228 76.7064 32.8348 79.0252 26.7139C79.7506 32.4322 81.3192 37.0476 83.7744 37.0476C86.7876 37.0476 92.1382 30.7099 95.3808 24.0004C96.6518 24.1615 98.5614 24.1181 100.397 22.8233C99.6154 24.7996 99.1566 26.9617 99.1566 29.1239C99.1566 35.3501 102.133 37.0972 104.693 37.0972C107.477 37.0972 109.734 35.4369 111.464 32.5189C112.034 35.1519 113.491 37.06 116.169 37.06C120.361 37.06 124 32.7791 124 29.2664C124 28.3371 123.603 27.7733 123.138 27.7733ZM36.146 33.6464C34.4534 33.6464 33.79 31.9427 33.79 29.4027C33.79 24.9916 36.8094 17.6255 40.0024 17.6255C41.3974 17.6255 41.9244 19.2672 41.9244 21.2745C41.9244 25.7537 39.0538 33.6464 36.146 33.6464ZM94.1222 20.4815C93.1116 19.2796 92.7458 17.6441 92.7458 16.1882C92.7458 14.3915 93.403 12.8737 94.1904 12.8737C94.9778 12.8737 95.2196 13.6481 95.2196 14.7261C95.2196 16.5289 94.5748 19.1619 94.1222 20.4815ZM107.248 33.6464C105.555 33.6464 104.892 31.6887 104.892 29.4027C104.892 25.1465 107.911 17.6255 111.129 17.6255C112.524 17.6255 113.02 19.2548 113.02 21.2745C113.02 25.7537 110.199 33.6464 107.248 33.6464Z" fill="#270741"/>
<path d="M123.138 27.7733C122.927 27.7733 122.735 27.9096 122.636 28.1946C121.365 31.8188 119.648 33.9748 118.234 33.9748C117.422 33.9748 117.093 33.0703 117.093 31.6515C117.093 28.1017 119.22 20.5744 120.292 17.1422C120.416 16.7272 120.497 16.3554 120.497 16.0395C120.497 15.042 119.951 14.5526 118.6 14.5526C117.143 14.5526 115.574 15.1226 114.049 17.7927C113.522 15.4385 111.929 14.4101 109.703 14.4101C107.13 14.4101 104.644 16.0643 102.598 18.7468C100.552 21.4294 98.146 22.3091 96.3356 21.8754C97.6376 18.6911 98.1212 16.3121 98.1212 14.5464C98.1212 11.7771 96.751 10.1044 94.5376 10.1044C91.171 10.1044 89.2304 13.3136 89.2304 16.69C89.2304 19.2982 90.4146 21.9807 93.0186 23.2817C90.8362 28.2132 87.6494 32.6738 86.4404 32.6738C84.878 32.6738 84.4192 25.035 84.506 19.5708C84.5618 16.436 84.8222 16.2749 84.8222 15.327C84.8222 14.7818 84.4688 14.4101 83.049 14.4101C79.7382 14.4101 78.7152 17.2104 78.5602 20.4257C78.5106 21.6462 78.3184 22.8605 77.9898 24.0376C76.6072 28.969 73.7552 32.7109 71.8952 32.7109C71.0334 32.7109 70.7978 31.8498 70.7978 30.7223C70.7978 27.1724 72.788 22.7366 72.788 18.9513C72.788 16.1696 71.5666 14.4101 69.2664 14.4101C66.557 14.4101 62.9734 17.6317 59.582 23.6659C60.698 19.0442 61.1568 14.5712 57.8522 14.5712C57.133 14.5836 56.4324 14.7633 55.8 15.104C55.366 15.3084 55.0994 15.7545 55.1304 16.2315C55.4466 21.1506 51.1624 33.7517 47.1014 33.7517C46.3636 33.7517 46.004 32.9526 46.004 31.6639C46.004 28.1079 48.1244 20.5992 49.1908 17.1608C49.3272 16.7148 49.4016 16.3307 49.4016 15.9961C49.4016 15.0544 48.8188 14.5712 47.4982 14.5712C46.0474 14.5712 44.4726 15.1226 42.9536 17.7927C42.4204 15.4385 40.827 14.4101 38.6012 14.4101C34.9494 14.4101 30.8698 18.2698 29.078 23.3003C26.6786 30.016 21.8426 36.5024 15.3326 36.5024C9.424 36.5024 6.3054 31.5896 6.3054 23.8269C6.3054 12.6197 14.539 3.4631 20.646 3.4631C23.5662 3.4631 24.9612 5.32168 24.9612 8.1715C24.9612 11.6223 23.033 13.2268 23.033 14.5402C23.033 14.9429 23.3678 15.3394 24.0312 15.3394C26.6848 15.3394 29.8096 12.2232 29.8096 7.97325C29.8096 3.7233 26.3562 0.613281 20.2492 0.613281C10.1556 0.613281 0 10.7611 0 23.765C0 34.1111 5.1088 40.3497 13.9438 40.3497C19.9702 40.3497 25.234 35.6661 28.0736 30.2019C28.396 34.7306 30.4544 37.0972 33.5916 37.0972C36.3816 37.0972 38.6384 35.4369 40.362 32.5189C41.0254 35.5732 42.7862 37.0662 45.074 37.0662C47.6966 37.0662 49.8914 35.4059 51.9808 32.3206C51.9498 34.743 52.5016 37.0228 54.6034 37.0228C55.5954 37.0228 56.7796 36.7936 56.9904 35.9263C59.2038 26.7821 64.6722 19.3168 66.3462 19.3168C66.8422 19.3168 66.9786 19.7938 66.9786 20.3576C66.9786 22.8419 65.224 27.9344 65.224 31.1869C65.224 34.6996 66.7182 37.0228 69.8058 37.0228C73.2282 37.0228 76.7064 32.8348 79.0252 26.7139C79.7506 32.4322 81.3192 37.0476 83.7744 37.0476C86.7876 37.0476 92.1382 30.7099 95.3808 24.0004C96.6518 24.1615 98.5614 24.1181 100.397 22.8233C99.6154 24.7996 99.1566 26.9617 99.1566 29.1239C99.1566 35.3501 102.133 37.0972 104.693 37.0972C107.477 37.0972 109.734 35.4369 111.464 32.5189C112.034 35.1519 113.491 37.06 116.169 37.06C120.361 37.06 124 32.7791 124 29.2664C124 28.3371 123.603 27.7733 123.138 27.7733ZM36.146 33.6464C34.4534 33.6464 33.79 31.9427 33.79 29.4027C33.79 24.9916 36.8094 17.6255 40.0024 17.6255C41.3974 17.6255 41.9244 19.2672 41.9244 21.2745C41.9244 25.7537 39.0538 33.6464 36.146 33.6464ZM94.1222 20.4815C93.1116 19.2796 92.7458 17.6441 92.7458 16.1882C92.7458 14.3915 93.403 12.8737 94.1904 12.8737C94.9778 12.8737 95.2196 13.6481 95.2196 14.7261C95.2196 16.5289 94.5748 19.1619 94.1222 20.4815ZM107.248 33.6464C105.555 33.6464 104.892 31.6887 104.892 29.4027C104.892 25.1465 107.911 17.6255 111.129 17.6255C112.524 17.6255 113.02 19.2548 113.02 21.2745C113.02 25.7537 110.199 33.6464 107.248 33.6464Z" fill="#270741"/>
<path d="M123.138 27.7733C122.927 27.7733 122.735 27.9096 122.636 28.1946C121.365 31.8188 119.648 33.9748 118.234 33.9748C117.422 33.9748 117.093 33.0703 117.093 31.6515C117.093 28.1017 119.22 20.5744 120.292 17.1422C120.416 16.7272 120.497 16.3554 120.497 16.0395C120.497 15.042 119.951 14.5526 118.6 14.5526C117.143 14.5526 115.574 15.1226 114.049 17.7927C113.522 15.4385 111.929 14.4101 109.703 14.4101C107.13 14.4101 104.644 16.0643 102.598 18.7468C100.552 21.4294 98.146 22.3091 96.3356 21.8754C97.6376 18.6911 98.1212 16.3121 98.1212 14.5464C98.1212 11.7771 96.751 10.1044 94.5376 10.1044C91.171 10.1044 89.2304 13.3136 89.2304 16.69C89.2304 19.2982 90.4146 21.9807 93.0186 23.2817C90.8362 28.2132 87.6494 32.6738 86.4404 32.6738C84.878 32.6738 84.4192 25.035 84.506 19.5708C84.5618 16.436 84.8222 16.2749 84.8222 15.327C84.8222 14.7818 84.4688 14.4101 83.049 14.4101C79.7382 14.4101 78.7152 17.2104 78.5602 20.4257C78.5106 21.6462 78.3184 22.8605 77.9898 24.0376C76.6072 28.969 73.7552 32.7109 71.8952 32.7109C71.0334 32.7109 70.7978 31.8498 70.7978 30.7223C70.7978 27.1724 72.788 22.7366 72.788 18.9513C72.788 16.1696 71.5666 14.4101 69.2664 14.4101C66.557 14.4101 62.9734 17.6317 59.582 23.6659C60.698 19.0442 61.1568 14.5712 57.8522 14.5712C57.133 14.5836 56.4324 14.7633 55.8 15.104C55.366 15.3084 55.0994 15.7545 55.1304 16.2315C55.4466 21.1506 51.1624 33.7517 47.1014 33.7517C46.3636 33.7517 46.004 32.9526 46.004 31.6639C46.004 28.1079 48.1244 20.5992 49.1908 17.1608C49.3272 16.7148 49.4016 16.3307 49.4016 15.9961C49.4016 15.0544 48.8188 14.5712 47.4982 14.5712C46.0474 14.5712 44.4726 15.1226 42.9536 17.7927C42.4204 15.4385 40.827 14.4101 38.6012 14.4101C34.9494 14.4101 30.8698 18.2698 29.078 23.3003C26.6786 30.016 21.8426 36.5024 15.3326 36.5024C9.424 36.5024 6.3054 31.5896 6.3054 23.8269C6.3054 12.6197 14.539 3.4631 20.646 3.4631C23.5662 3.4631 24.9612 5.32168 24.9612 8.1715C24.9612 11.6223 23.033 13.2268 23.033 14.5402C23.033 14.9429 23.3678 15.3394 24.0312 15.3394C26.6848 15.3394 29.8096 12.2232 29.8096 7.97325C29.8096 3.7233 26.3562 0.613281 20.2492 0.613281C10.1556 0.613281 0 10.7611 0 23.765C0 34.1111 5.1088 40.3497 13.9438 40.3497C19.9702 40.3497 25.234 35.6661 28.0736 30.2019C28.396 34.7306 30.4544 37.0972 33.5916 37.0972C36.3816 37.0972 38.6384 35.4369 40.362 32.5189C41.0254 35.5732 42.7862 37.0662 45.074 37.0662C47.6966 37.0662 49.8914 35.4059 51.9808 32.3206C51.9498 34.743 52.5016 37.0228 54.6034 37.0228C55.5954 37.0228 56.7796 36.7936 56.9904 35.9263C59.2038 26.7821 64.6722 19.3168 66.3462 19.3168C66.8422 19.3168 66.9786 19.7938 66.9786 20.3576C66.9786 22.8419 65.224 27.9344 65.224 31.1869C65.224 34.6996 66.7182 37.0228 69.8058 37.0228C73.2282 37.0228 76.7064 32.8348 79.0252 26.7139C79.7506 32.4322 81.3192 37.0476 83.7744 37.0476C86.7876 37.0476 92.1382 30.7099 95.3808 24.0004C96.6518 24.1615 98.5614 24.1181 100.397 22.8233C99.6154 24.7996 99.1566 26.9617 99.1566 29.1239C99.1566 35.3501 102.133 37.0972 104.693 37.0972C107.477 37.0972 109.734 35.4369 111.464 32.5189C112.034 35.1519 113.491 37.06 116.169 37.06C120.361 37.06 124 32.7791 124 29.2664C124 28.3371 123.603 27.7733 123.138 27.7733ZM36.146 33.6464C34.4534 33.6464 33.79 31.9427 33.79 29.4027C33.79 24.9916 36.8094 17.6255 40.0024 17.6255C41.3974 17.6255 41.9244 19.2672 41.9244 21.2745C41.9244 25.7537 39.0538 33.6464 36.146 33.6464ZM94.1222 20.4815C93.1116 19.2796 92.7458 17.6441 92.7458 16.1882C92.7458 14.3915 93.403 12.8737 94.1904 12.8737C94.9778 12.8737 95.2196 13.6481 95.2196 14.7261C95.2196 16.5289 94.5748 19.1619 94.1222 20.4815ZM107.248 33.6464C105.555 33.6464 104.892 31.6887 104.892 29.4027C104.892 25.1465 107.911 17.6255 111.129 17.6255C112.524 17.6255 113.02 19.2548 113.02 21.2745C113.02 25.7537 110.199 33.6464 107.248 33.6464Z" fill="#270741"/>
<path d="M123.138 27.7733C122.927 27.7733 122.735 27.9096 122.636 28.1946C121.365 31.8188 119.648 33.9748 118.234 33.9748C117.422 33.9748 117.093 33.0703 117.093 31.6515C117.093 28.1017 119.22 20.5744 120.292 17.1422C120.416 16.7272 120.497 16.3554 120.497 16.0395C120.497 15.042 119.951 14.5526 118.6 14.5526C117.143 14.5526 115.574 15.1226 114.049 17.7927C113.522 15.4385 111.929 14.4101 109.703 14.4101C107.13 14.4101 104.644 16.0643 102.598 18.7468C100.552 21.4294 98.146 22.3091 96.3356 21.8754C97.6376 18.6911 98.1212 16.3121 98.1212 14.5464C98.1212 11.7771 96.751 10.1044 94.5376 10.1044C91.171 10.1044 89.2304 13.3136 89.2304 16.69C89.2304 19.2982 90.4146 21.9807 93.0186 23.2817C90.8362 28.2132 87.6494 32.6738 86.4404 32.6738C84.878 32.6738 84.4192 25.035 84.506 19.5708C84.5618 16.436 84.8222 16.2749 84.8222 15.327C84.8222 14.7818 84.4688 14.4101 83.049 14.4101C79.7382 14.4101 78.7152 17.2104 78.5602 20.4257C78.5106 21.6462 78.3184 22.8605 77.9898 24.0376C76.6072 28.969 73.7552 32.7109 71.8952 32.7109C71.0334 32.7109 70.7978 31.8498 70.7978 30.7223C70.7978 27.1724 72.788 22.7366 72.788 18.9513C72.788 16.1696 71.5666 14.4101 69.2664 14.4101C66.557 14.4101 62.9734 17.6317 59.582 23.6659C60.698 19.0442 61.1568 14.5712 57.8522 14.5712C57.133 14.5836 56.4324 14.7633 55.8 15.104C55.366 15.3084 55.0994 15.7545 55.1304 16.2315C55.4466 21.1506 51.1624 33.7517 47.1014 33.7517C46.3636 33.7517 46.004 32.9526 46.004 31.6639C46.004 28.1079 48.1244 20.5992 49.1908 17.1608C49.3272 16.7148 49.4016 16.3307 49.4016 15.9961C49.4016 15.0544 48.8188 14.5712 47.4982 14.5712C46.0474 14.5712 44.4726 15.1226 42.9536 17.7927C42.4204 15.4385 40.827 14.4101 38.6012 14.4101C34.9494 14.4101 30.8698 18.2698 29.078 23.3003C26.6786 30.016 21.8426 36.5024 15.3326 36.5024C9.424 36.5024 6.3054 31.5896 6.3054 23.8269C6.3054 12.6197 14.539 3.4631 20.646 3.4631C23.5662 3.4631 24.9612 5.32168 24.9612 8.1715C24.9612 11.6223 23.033 13.2268 23.033 14.5402C23.033 14.9429 23.3678 15.3394 24.0312 15.3394C26.6848 15.3394 29.8096 12.2232 29.8096 7.97325C29.8096 3.7233 26.3562 0.613281 20.2492 0.613281C10.1556 0.613281 0 10.7611 0 23.765C0 34.1111 5.1088 40.3497 13.9438 40.3497C19.9702 40.3497 25.234 35.6661 28.0736 30.2019C28.396 34.7306 30.4544 37.0972 33.5916 37.0972C36.3816 37.0972 38.6384 35.4369 40.362 32.5189C41.0254 35.5732 42.7862 37.0662 45.074 37.0662C47.6966 37.0662 49.8914 35.4059 51.9808 32.3206C51.9498 34.743 52.5016 37.0228 54.6034 37.0228C55.5954 37.0228 56.7796 36.7936 56.9904 35.9263C59.2038 26.7821 64.6722 19.3168 66.3462 19.3168C66.8422 19.3168 66.9786 19.7938 66.9786 20.3576C66.9786 22.8419 65.224 27.9344 65.224 31.1869C65.224 34.6996 66.7182 37.0228 69.8058 37.0228C73.2282 37.0228 76.7064 32.8348 79.0252 26.7139C79.7506 32.4322 81.3192 37.0476 83.7744 37.0476C86.7876 37.0476 92.1382 30.7099 95.3808 24.0004C96.6518 24.1615 98.5614 24.1181 100.397 22.8233C99.6154 24.7996 99.1566 26.9617 99.1566 29.1239C99.1566 35.3501 102.133 37.0972 104.693 37.0972C107.477 37.0972 109.734 35.4369 111.464 32.5189C112.034 35.1519 113.491 37.06 116.169 37.06C120.361 37.06 124 32.7791 124 29.2664C124 28.3371 123.603 27.7733 123.138 27.7733ZM36.146 33.6464C34.4534 33.6464 33.79 31.9427 33.79 29.4027C33.79 24.9916 36.8094 17.6255 40.0024 17.6255C41.3974 17.6255 41.9244 19.2672 41.9244 21.2745C41.9244 25.7537 39.0538 33.6464 36.146 33.6464ZM94.1222 20.4815C93.1116 19.2796 92.7458 17.6441 92.7458 16.1882C92.7458 14.3915 93.403 12.8737 94.1904 12.8737C94.9778 12.8737 95.2196 13.6481 95.2196 14.7261C95.2196 16.5289 94.5748 19.1619 94.1222 20.4815ZM107.248 33.6464C105.555 33.6464 104.892 31.6887 104.892 29.4027C104.892 25.1465 107.911 17.6255 111.129 17.6255C112.524 17.6255 113.02 19.2548 113.02 21.2745C113.02 25.7537 110.199 33.6464 107.248 33.6464Z" fill="#270741"/>
<path d="M123.138 27.7733C122.927 27.7733 122.735 27.9096 122.636 28.1946C121.365 31.8188 119.648 33.9748 118.234 33.9748C117.422 33.9748 117.093 33.0703 117.093 31.6515C117.093 28.1017 119.22 20.5744 120.292 17.1422C120.416 16.7272 120.497 16.3554 120.497 16.0395C120.497 15.042 119.951 14.5526 118.6 14.5526C117.143 14.5526 115.574 15.1226 114.049 17.7927C113.522 15.4385 111.929 14.4101 109.703 14.4101C107.13 14.4101 104.644 16.0643 102.598 18.7468C100.552 21.4294 98.146 22.3091 96.3356 21.8754C97.6376 18.6911 98.1212 16.3121 98.1212 14.5464C98.1212 11.7771 96.751 10.1044 94.5376 10.1044C91.171 10.1044 89.2304 13.3136 89.2304 16.69C89.2304 19.2982 90.4146 21.9807 93.0186 23.2817C90.8362 28.2132 87.6494 32.6738 86.4404 32.6738C84.878 32.6738 84.4192 25.035 84.506 19.5708C84.5618 16.436 84.8222 16.2749 84.8222 15.327C84.8222 14.7818 84.4688 14.4101 83.049 14.4101C79.7382 14.4101 78.7152 17.2104 78.5602 20.4257C78.5106 21.6462 78.3184 22.8605 77.9898 24.0376C76.6072 28.969 73.7552 32.7109 71.8952 32.7109C71.0334 32.7109 70.7978 31.8498 70.7978 30.7223C70.7978 27.1724 72.788 22.7366 72.788 18.9513C72.788 16.1696 71.5666 14.4101 69.2664 14.4101C66.557 14.4101 62.9734 17.6317 59.582 23.6659C60.698 19.0442 61.1568 14.5712 57.8522 14.5712C57.133 14.5836 56.4324 14.7633 55.8 15.104C55.366 15.3084 55.0994 15.7545 55.1304 16.2315C55.4466 21.1506 51.1624 33.7517 47.1014 33.7517C46.3636 33.7517 46.004 32.9526 46.004 31.6639C46.004 28.1079 48.1244 20.5992 49.1908 17.1608C49.3272 16.7148 49.4016 16.3307 49.4016 15.9961C49.4016 15.0544 48.8188 14.5712 47.4982 14.5712C46.0474 14.5712 44.4726 15.1226 42.9536 17.7927C42.4204 15.4385 40.827 14.4101 38.6012 14.4101C34.9494 14.4101 30.8698 18.2698 29.078 23.3003C26.6786 30.016 21.8426 36.5024 15.3326 36.5024C9.424 36.5024 6.3054 31.5896 6.3054 23.8269C6.3054 12.6197 14.539 3.4631 20.646 3.4631C23.5662 3.4631 24.9612 5.32168 24.9612 8.1715C24.9612 11.6223 23.033 13.2268 23.033 14.5402C23.033 14.9429 23.3678 15.3394 24.0312 15.3394C26.6848 15.3394 29.8096 12.2232 29.8096 7.97325C29.8096 3.7233 26.3562 0.613281 20.2492 0.613281C10.1556 0.613281 0 10.7611 0 23.765C0 34.1111 5.1088 40.3497 13.9438 40.3497C19.9702 40.3497 25.234 35.6661 28.0736 30.2019C28.396 34.7306 30.4544 37.0972 33.5916 37.0972C36.3816 37.0972 38.6384 35.4369 40.362 32.5189C41.0254 35.5732 42.7862 37.0662 45.074 37.0662C47.6966 37.0662 49.8914 35.4059 51.9808 32.3206C51.9498 34.743 52.5016 37.0228 54.6034 37.0228C55.5954 37.0228 56.7796 36.7936 56.9904 35.9263C59.2038 26.7821 64.6722 19.3168 66.3462 19.3168C66.8422 19.3168 66.9786 19.7938 66.9786 20.3576C66.9786 22.8419 65.224 27.9344 65.224 31.1869C65.224 34.6996 66.7182 37.0228 69.8058 37.0228C73.2282 37.0228 76.7064 32.8348 79.0252 26.7139C79.7506 32.4322 81.3192 37.0476 83.7744 37.0476C86.7876 37.0476 92.1382 30.7099 95.3808 24.0004C96.6518 24.1615 98.5614 24.1181 100.397 22.8233C99.6154 24.7996 99.1566 26.9617 99.1566 29.1239C99.1566 35.3501 102.133 37.0972 104.693 37.0972C107.477 37.0972 109.734 35.4369 111.464 32.5189C112.034 35.1519 113.491 37.06 116.169 37.06C120.361 37.06 124 32.7791 124 29.2664C124 28.3371 123.603 27.7733 123.138 27.7733ZM36.146 33.6464C34.4534 33.6464 33.79 31.9427 33.79 29.4027C33.79 24.9916 36.8094 17.6255 40.0024 17.6255C41.3974 17.6255 41.9244 19.2672 41.9244 21.2745C41.9244 25.7537 39.0538 33.6464 36.146 33.6464ZM94.1222 20.4815C93.1116 19.2796 92.7458 17.6441 92.7458 16.1882C92.7458 14.3915 93.403 12.8737 94.1904 12.8737C94.9778 12.8737 95.2196 13.6481 95.2196 14.7261C95.2196 16.5289 94.5748 19.1619 94.1222 20.4815ZM107.248 33.6464C105.555 33.6464 104.892 31.6887 104.892 29.4027C104.892 25.1465 107.911 17.6255 111.129 17.6255C112.524 17.6255 113.02 19.2548 113.02 21.2745C113.02 25.7537 110.199 33.6464 107.248 33.6464Z" fill="#270741"/>
<path d="M123.138 27.7733C122.927 27.7733 122.735 27.9096 122.636 28.1946C121.365 31.8188 119.648 33.9748 118.234 33.9748C117.422 33.9748 117.093 33.0703 117.093 31.6515C117.093 28.1017 119.22 20.5744 120.292 17.1422C120.416 16.7272 120.497 16.3554 120.497 16.0395C120.497 15.042 119.951 14.5526 118.6 14.5526C117.143 14.5526 115.574 15.1226 114.049 17.7927C113.522 15.4385 111.929 14.4101 109.703 14.4101C107.13 14.4101 104.644 16.0643 102.598 18.7468C100.552 21.4294 98.146 22.3091 96.3356 21.8754C97.6376 18.6911 98.1212 16.3121 98.1212 14.5464C98.1212 11.7771 96.751 10.1044 94.5376 10.1044C91.171 10.1044 89.2304 13.3136 89.2304 16.69C89.2304 19.2982 90.4146 21.9807 93.0186 23.2817C90.8362 28.2132 87.6494 32.6738 86.4404 32.6738C84.878 32.6738 84.4192 25.035 84.506 19.5708C84.5618 16.436 84.8222 16.2749 84.8222 15.327C84.8222 14.7818 84.4688 14.4101 83.049 14.4101C79.7382 14.4101 78.7152 17.2104 78.5602 20.4257C78.5106 21.6462 78.3184 22.8605 77.9898 24.0376C76.6072 28.969 73.7552 32.7109 71.8952 32.7109C71.0334 32.7109 70.7978 31.8498 70.7978 30.7223C70.7978 27.1724 72.788 22.7366 72.788 18.9513C72.788 16.1696 71.5666 14.4101 69.2664 14.4101C66.557 14.4101 62.9734 17.6317 59.582 23.6659C60.698 19.0442 61.1568 14.5712 57.8522 14.5712C57.133 14.5836 56.4324 14.7633 55.8 15.104C55.366 15.3084 55.0994 15.7545 55.1304 16.2315C55.4466 21.1506 51.1624 33.7517 47.1014 33.7517C46.3636 33.7517 46.004 32.9526 46.004 31.6639C46.004 28.1079 48.1244 20.5992 49.1908 17.1608C49.3272 16.7148 49.4016 16.3307 49.4016 15.9961C49.4016 15.0544 48.8188 14.5712 47.4982 14.5712C46.0474 14.5712 44.4726 15.1226 42.9536 17.7927C42.4204 15.4385 40.827 14.4101 38.6012 14.4101C34.9494 14.4101 30.8698 18.2698 29.078 23.3003C26.6786 30.016 21.8426 36.5024 15.3326 36.5024C9.424 36.5024 6.3054 31.5896 6.3054 23.8269C6.3054 12.6197 14.539 3.4631 20.646 3.4631C23.5662 3.4631 24.9612 5.32168 24.9612 8.1715C24.9612 11.6223 23.033 13.2268 23.033 14.5402C23.033 14.9429 23.3678 15.3394 24.0312 15.3394C26.6848 15.3394 29.8096 12.2232 29.8096 7.97325C29.8096 3.7233 26.3562 0.613281 20.2492 0.613281C10.1556 0.613281 0 10.7611 0 23.765C0 34.1111 5.1088 40.3497 13.9438 40.3497C19.9702 40.3497 25.234 35.6661 28.0736 30.2019C28.396 34.7306 30.4544 37.0972 33.5916 37.0972C36.3816 37.0972 38.6384 35.4369 40.362 32.5189C41.0254 35.5732 42.7862 37.0662 45.074 37.0662C47.6966 37.0662 49.8914 35.4059 51.9808 32.3206C51.9498 34.743 52.5016 37.0228 54.6034 37.0228C55.5954 37.0228 56.7796 36.7936 56.9904 35.9263C59.2038 26.7821 64.6722 19.3168 66.3462 19.3168C66.8422 19.3168 66.9786 19.7938 66.9786 20.3576C66.9786 22.8419 65.224 27.9344 65.224 31.1869C65.224 34.6996 66.7182 37.0228 69.8058 37.0228C73.2282 37.0228 76.7064 32.8348 79.0252 26.7139C79.7506 32.4322 81.3192 37.0476 83.7744 37.0476C86.7876 37.0476 92.1382 30.7099 95.3808 24.0004C96.6518 24.1615 98.5614 24.1181 100.397 22.8233C99.6154 24.7996 99.1566 26.9617 99.1566 29.1239C99.1566 35.3501 102.133 37.0972 104.693 37.0972C107.477 37.0972 109.734 35.4369 111.464 32.5189C112.034 35.1519 113.491 37.06 116.169 37.06C120.361 37.06 124 32.7791 124 29.2664C124 28.3371 123.603 27.7733 123.138 27.7733ZM36.146 33.6464C34.4534 33.6464 33.79 31.9427 33.79 29.4027C33.79 24.9916 36.8094 17.6255 40.0024 17.6255C41.3974 17.6255 41.9244 19.2672 41.9244 21.2745C41.9244 25.7537 39.0538 33.6464 36.146 33.6464ZM94.1222 20.4815C93.1116 19.2796 92.7458 17.6441 92.7458 16.1882C92.7458 14.3915 93.403 12.8737 94.1904 12.8737C94.9778 12.8737 95.2196 13.6481 95.2196 14.7261C95.2196 16.5289 94.5748 19.1619 94.1222 20.4815ZM107.248 33.6464C105.555 33.6464 104.892 31.6887 104.892 29.4027C104.892 25.1465 107.911 17.6255 111.129 17.6255C112.524 17.6255 113.02 19.2548 113.02 21.2745C113.02 25.7537 110.199 33.6464 107.248 33.6464Z" fill="#270741"/>
</g>
<defs>
<clipPath id="clip0_4735_14697">
<rect width="124" height="39.7736" fill="white" transform="translate(0 0.613281)"/>
</clipPath>
</defs>
</svg>
