<svg width="139" height="21" viewBox="0 0 139 21" fill="none" xmlns="http://www.w3.org/2000/svg">
<g clip-path="url(#clip0_4735_14694)">
<path d="M20.0562 15.5444V11.822L19.6338 11.5943L10.0271 16.873L0.905187 11.8615L0.907134 9.70302L10.0271 14.658L20.0562 9.20244V5.53652L19.6338 5.30881L10.0271 10.5875L1.28089 5.78116L10.0271 1.00493L17.0895 4.86092L17.619 4.57299V4.14392L10.0271 0L0 5.47442V6.01452L10.0271 11.4852L19.1491 6.50569V8.68868L10.0271 13.7002L0.422421 8.42334L0 8.65104V12.3715L10.0271 17.8271L19.1491 12.8646V15.0344L10.0271 20.0459L0.422421 14.7672L0 14.9949V15.5444L10.0271 21L20.0562 15.5444Z" fill="#270741"/>
<path fill-rule="evenodd" clip-rule="evenodd" d="M39.1377 1.10645V17.9588V17.9606H36.4533V16.7054C36.4533 16.6132 36.3929 16.5285 36.3014 16.4965C36.2119 16.4645 36.1087 16.4909 36.0464 16.5624C35.112 17.637 33.6949 18.2523 32.1629 18.2523C30.5452 18.2523 29.0502 17.6257 27.9523 16.4871C26.8525 15.3448 26.2451 13.7829 26.2451 12.091C26.2451 8.63776 28.8439 5.93161 32.1629 5.93161C33.7241 5.93161 35.1393 6.52252 36.0484 7.55192C36.1107 7.62155 36.2138 7.64789 36.3034 7.6159C36.3929 7.58391 36.4533 7.49922 36.4533 7.40701V1.10645H39.1377ZM28.9551 12.0932C28.9551 14.2273 30.6292 15.9003 32.7666 15.9003C34.904 15.9003 36.5781 14.2273 36.5781 12.0932C36.5781 9.95915 34.904 8.28615 32.7666 8.28615C30.6292 8.28615 28.9551 9.95915 28.9551 12.0932Z" fill="#270741"/>
<path fill-rule="evenodd" clip-rule="evenodd" d="M53.4737 6.22138V17.955H50.8127V16.681C50.8127 16.5888 50.7523 16.5041 50.6608 16.4721C50.5713 16.4401 50.4681 16.4664 50.4058 16.5398C49.4753 17.6257 48.0601 18.2486 46.5223 18.2486C43.2033 18.2486 40.6045 15.5424 40.6045 12.0892C40.6045 8.63585 43.2033 5.92969 46.5223 5.92969C48.1263 5.92969 49.5045 6.50179 50.4058 7.54247C50.4681 7.61398 50.5693 7.64033 50.6608 7.60834C50.7523 7.57634 50.8127 7.49354 50.8127 7.39945V6.22138H53.4737ZM43.3164 12.0898C43.3164 14.2239 44.9905 15.8969 47.1279 15.8969C49.2653 15.8969 50.9394 14.2239 50.9394 12.0898C50.9394 9.95571 49.2653 8.28271 47.1279 8.28271C44.9905 8.28271 43.3164 9.95571 43.3164 12.0898Z" fill="#270741"/>
<path fill-rule="evenodd" clip-rule="evenodd" d="M76.2218 6.22138V17.955H73.5607V16.681C73.5607 16.5888 73.5004 16.5041 73.4089 16.4721C73.3193 16.4401 73.2162 16.4683 73.1539 16.5398C72.2234 17.6257 70.8082 18.2486 69.2703 18.2486C65.9513 18.2486 63.3525 15.5424 63.3525 12.0892C63.3525 8.63585 65.9513 5.92969 69.2703 5.92969C70.8744 5.92969 72.2526 6.50179 73.1539 7.54247C73.2162 7.61398 73.3174 7.64033 73.4089 7.60834C73.5004 7.57634 73.5607 7.49354 73.5607 7.39945V6.22138H76.2218ZM66.0645 12.0898C66.0645 14.2239 67.7386 15.8969 69.876 15.8969C72.0134 15.8969 73.6875 14.2239 73.6875 12.0898C73.6875 9.95571 72.0134 8.28271 69.876 8.28271C67.7386 8.28271 66.0645 9.95571 66.0645 12.0898Z" fill="#270741"/>
<path fill-rule="evenodd" clip-rule="evenodd" d="M81.1778 16.5524C81.1505 16.5524 81.1233 16.5562 81.098 16.5656C81.0084 16.5957 80.9481 16.6804 80.95 16.7707V17.9544H78.2637L78.2695 1.10205H80.9539L80.9481 7.47413C80.9481 7.56823 81.0084 7.65291 81.0999 7.6849C81.1895 7.71689 81.2926 7.69055 81.3549 7.61904C82.2893 6.54448 83.7065 5.9291 85.2385 5.9291C86.8561 5.9291 88.3512 6.55577 89.4491 7.69431C90.5509 8.83662 91.1563 10.3986 91.1563 12.0904C91.1563 15.5437 88.5575 18.2499 85.2385 18.2499C83.6773 18.2499 82.2621 17.659 81.353 16.6296C81.3082 16.5806 81.2459 16.5524 81.1778 16.5524ZM84.6328 8.28271C82.4954 8.28271 80.8213 9.95571 80.8213 12.0898C80.8213 14.2239 82.4954 15.8969 84.6328 15.8969C86.7702 15.8969 88.4443 14.2239 88.4443 12.0898C88.4443 9.95571 86.7702 8.28271 84.6328 8.28271Z" fill="#270741"/>
<path d="M98.8825 8.62404C99.1336 8.62404 99.3692 8.64474 99.5327 8.68238V6.02327C99.4451 6.00257 99.266 5.97998 99.0849 5.97998C97.6931 5.97998 96.4064 6.66876 95.727 7.77719C95.6744 7.86376 95.5674 7.90516 95.4681 7.87881C95.3669 7.85246 95.2968 7.76402 95.2968 7.66428V6.22275H92.6357V17.9564H95.3201V12.7962C95.3221 10.2237 96.6867 8.62404 98.8825 8.62404Z" fill="#270741"/>
<path d="M103.925 6.22217H101.214V17.9558H103.925V6.22217Z" fill="#270741"/>
<path d="M102.538 1.11816C101.631 1.11816 100.894 1.8314 100.894 2.70836C100.894 3.58532 101.631 4.29856 102.538 4.29856C103.446 4.29856 104.183 3.58532 104.183 2.70836C104.181 1.8314 103.444 1.11816 102.538 1.11816Z" fill="#270741"/>
<path d="M111.891 5.92969C108.169 5.92969 105.469 8.52105 105.469 12.0892C105.469 13.8243 106.101 15.3938 107.252 16.5097C108.408 17.6313 110.047 18.2486 111.865 18.2486C113.37 18.2486 114.546 17.9606 116.755 16.3912L115.231 14.8367C114.145 15.5349 113.133 15.8736 112.142 15.8736C109.897 15.8736 108.204 14.2477 108.204 12.091C108.204 9.93435 109.897 8.3084 112.142 8.3084C113.212 8.3084 114.205 8.64714 115.179 9.34532L116.882 7.78523C114.904 6.12164 113.088 5.92969 111.891 5.92969Z" fill="#270741"/>
<path d="M121.474 12.7836C121.517 12.7459 121.573 12.7252 121.63 12.7252H121.643C121.71 12.7309 121.768 12.761 121.809 12.808L126.103 17.955L129.407 17.9569L123.851 11.4606C123.775 11.3722 123.781 11.2423 123.864 11.1614L128.972 6.2233H125.698L121.299 10.4952C121.235 10.5592 121.135 10.578 121.048 10.5441C120.96 10.5084 120.906 10.4274 120.906 10.339L120.911 1.10645H118.221V17.9588H120.906V13.3877C120.906 13.3256 120.933 13.2653 120.98 13.2239L121.474 12.7836Z" fill="#270741"/>
<path d="M133.785 18.2505C135.986 18.2505 138.215 16.9633 138.215 14.5037C138.215 12.8984 137.176 11.7919 135.038 11.1182L133.577 10.6552C132.593 10.3391 132.117 9.88367 132.117 9.26642C132.117 8.56071 132.773 8.06765 133.711 8.06765C134.604 8.06765 135.399 8.63034 135.901 9.61268L138.058 8.49108C137.271 6.91217 135.609 5.93359 133.711 5.93359C131.305 5.93359 129.557 7.42781 129.557 9.4866C129.557 11.1125 130.563 12.2134 132.632 12.8476L134.122 13.3106C135.177 13.6324 135.607 14.0351 135.607 14.7013C135.607 15.6949 134.653 16.0468 133.837 16.0468C132.747 16.0468 131.786 15.3637 131.311 14.2609L129.136 15.3581C129.855 17.1421 131.632 18.2505 133.785 18.2505Z" fill="#270741"/>
<path d="M60.9136 18.1299C61.7604 18.1299 62.5293 18.0584 62.9517 17.9925V15.7493C62.5974 15.7944 61.9901 15.834 61.6047 15.834C60.5145 15.834 59.6814 15.6533 59.6814 13.3837V8.56046C59.6814 8.43813 59.7845 8.33839 59.9111 8.33839H62.5254L62.5235 6.22127L59.9091 6.22315C59.7826 6.22315 59.6794 6.12341 59.6794 6.00109V2.59863L57.0106 2.60051L57.0125 6.00109C57.0125 6.12341 56.9094 6.22315 56.7828 6.22315H54.9121L54.9141 8.34028L56.7828 8.33839C56.9094 8.33839 57.0125 8.43813 57.0125 8.56046V14.0255C57.0145 18.1299 59.8468 18.1299 60.9136 18.1299Z" fill="#270741"/>
</g>
<defs>
<clipPath id="clip0_4735_14694">
<rect width="139" height="21" fill="white"/>
</clipPath>
</defs>
</svg>
