<svg width="165" height="33" viewBox="0 0 165 33" fill="none" xmlns="http://www.w3.org/2000/svg">
<g clip-path="url(#clip0_111_1763)">
<path d="M19.6057 6.73293L10.0782 12.7462L19.6057 18.7593L10.0782 24.7725L0.550781 18.7269L10.0782 12.7136L0.550781 6.73293L10.0782 0.719727L19.6057 6.73293ZM10.029 26.7065L19.5564 20.6933L29.0839 26.7065L19.5564 32.7197L10.029 26.7065ZM19.6057 18.7269L29.1332 12.7136L19.6057 6.73293L29.0839 0.719727L38.6114 6.73293L29.0839 12.7462L38.6114 18.7593L29.0839 24.7725L19.6057 18.7269Z" fill="#270741"/>
<path d="M46.085 6.73331H53.7891C58.7006 6.73331 62.758 9.54489 62.758 15.9644V17.3133C62.758 23.7816 58.9635 26.6906 53.9369 26.6906H46.085V6.73331ZM50.3887 10.3575V23.0502H53.6905C56.483 23.0502 58.3557 21.2462 58.3557 17.232V16.1756C58.3557 12.1614 56.3845 10.3575 53.5427 10.3575H50.3887ZM65.0413 10.5525H68.4909L69.0494 14.3067C69.7065 11.7551 71.382 10.39 74.421 10.39H75.4887V14.6968H73.7146C70.2157 14.6968 69.3615 15.8994 69.3615 19.3123V26.7395H65.107V10.5525H65.0413ZM76.3429 18.971V18.516C76.3429 13.1041 79.8418 10.1462 84.6055 10.1462C89.4678 10.1462 92.8681 13.1041 92.8681 18.516V18.971C92.8681 24.2854 89.5663 27.1458 84.6055 27.1458C79.3325 27.0969 76.3429 24.3016 76.3429 18.971ZM88.515 18.9223V18.516C88.515 15.5094 86.9874 13.7053 84.5562 13.7053C82.1743 13.7053 80.5974 15.363 80.5974 18.516V18.9223C80.5974 21.8313 82.1251 23.489 84.5562 23.489C86.9874 23.4403 88.515 21.8313 88.515 18.9223ZM95.1021 10.5525H98.6503L99.061 13.6078C99.9151 11.5602 101.739 10.1462 104.432 10.1462C108.589 10.1462 111.332 13.104 111.332 18.581V19.036C111.332 24.3503 108.293 27.162 104.432 27.162C101.853 27.162 100.079 26.008 99.2088 24.1554V32.3301H95.0528L95.1021 10.5525ZM107.011 18.9223V18.5647C107.011 15.3468 105.336 13.7542 103.102 13.7542C100.72 13.7542 99.1431 15.5581 99.1431 18.5647V18.8734C99.1431 21.7338 100.671 23.5378 103.053 23.5378C105.5 23.489 107.011 21.9451 107.011 18.9223ZM117.623 23.7491L117.262 26.7069H113.615V5.14062H117.771V13.4128C118.691 11.3001 120.514 10.1462 123.093 10.1462C127.003 10.195 129.894 12.8603 129.894 18.2234V18.7272C129.894 24.0904 127.151 27.162 122.995 27.162C120.252 27.0969 118.478 25.8456 117.623 23.7491ZM125.524 18.7272V18.3209C125.524 15.363 123.899 13.7053 121.615 13.7053C119.282 13.7053 117.656 15.5581 117.656 18.3696V18.7272C117.656 21.7338 119.233 23.489 121.566 23.489C124.063 23.489 125.524 21.9451 125.524 18.7272ZM131.717 18.971V18.516C131.717 13.1041 135.216 10.1462 139.98 10.1462C144.843 10.1462 148.242 13.1041 148.242 18.516V18.971C148.242 24.2854 144.892 27.1458 139.98 27.1458C134.707 27.0969 131.717 24.3016 131.717 18.971ZM143.922 18.9223V18.516C143.922 15.5094 142.395 13.7053 139.964 13.7053C137.582 13.7053 136.004 15.363 136.004 18.516V18.9223C136.004 21.8313 137.533 23.489 139.964 23.489C142.411 23.4403 143.922 21.8313 143.922 18.9223ZM153.811 18.3209L148.078 10.5525H152.99L156.291 15.4118L159.643 10.5525H164.504L158.69 18.2722L164.817 26.7069H160.004L156.259 21.3437L152.612 26.7069H147.585L153.811 18.3209Z" fill="#270741"/>
</g>
<defs>
<clipPath id="clip0_111_1763">
<rect width="164.267" height="32" fill="white" transform="translate(0.550781 0.719727)"/>
</clipPath>
</defs>
</svg>
