<svg width="152" height="41" viewBox="0 0 152 41" fill="none" xmlns="http://www.w3.org/2000/svg">
<path fill-rule="evenodd" clip-rule="evenodd" d="M150.638 7.52003C150.107 6.91528 149.391 6.61803 148.439 6.61803C147.488 6.61803 146.742 6.93577 146.22 7.60202C145.709 8.24778 145.443 9.21128 145.443 10.4515V19.5535C144.256 18.2723 143.029 17.36 141.771 16.745C140.993 16.3658 140.073 16.089 139.04 15.9558C138.436 15.884 137.833 15.843 137.158 15.843C134.028 15.843 131.491 16.9193 129.548 19.0923C127.625 21.2448 126.664 24.248 126.664 28.0918C126.664 29.906 126.909 31.6075 127.4 33.1655C127.891 34.7133 128.587 36.0765 129.528 37.245C130.469 38.393 131.604 39.2848 132.882 39.9305C134.161 40.5558 135.562 40.8735 137.086 40.8735C137.782 40.8735 138.447 40.812 139.05 40.6993C139.469 40.6378 139.838 40.525 140.236 40.4123C141.198 40.0945 142.098 39.6333 142.916 39.049C143.765 38.4443 144.594 37.6755 145.443 36.7223V37.327C145.443 38.4648 145.729 39.3258 146.292 39.951C146.875 40.5558 147.59 40.8735 148.439 40.8735C149.329 40.8735 150.045 40.5763 150.587 40.0023C151.129 39.3975 151.436 38.5263 151.436 37.3373V10.1235C151.406 8.99603 151.15 8.10428 150.638 7.52003ZM144.266 32.6428C143.724 33.7908 142.967 34.662 142.078 35.2258C141.157 35.7895 140.155 36.056 139.04 36.056H139.019C137.904 36.056 136.912 35.7588 135.982 35.1848C135.061 34.58 134.325 33.7088 133.793 32.5403C133.261 31.3718 133.005 29.9368 133.005 28.2763C133.005 26.6875 133.251 25.2935 133.762 24.125C134.253 22.936 134.969 22.0135 135.869 21.3678C136.79 20.7118 137.812 20.4043 138.978 20.4043H139.04C140.134 20.4043 141.126 20.722 142.057 21.3473C142.978 21.9725 143.714 22.8745 144.256 24.043C144.798 25.2115 145.064 26.6465 145.064 28.2763C145.085 30.0188 144.819 31.4743 144.266 32.6428ZM124.383 32.9093C123.984 32.571 123.462 32.3968 122.798 32.3968C122.194 32.3968 121.764 32.5505 121.427 32.7965C120.639 33.514 119.995 34.0983 119.504 34.5185C119.013 34.9183 118.471 35.3078 117.868 35.687C117.305 36.0458 116.681 36.3328 116.057 36.4763C115.413 36.6505 114.738 36.7428 113.981 36.7428C113.807 36.7428 113.664 36.7428 113.51 36.7223C112.569 36.6608 111.68 36.4045 110.892 35.933C109.951 35.3898 109.215 34.5903 108.632 33.555C108.09 32.4788 107.783 31.2283 107.762 29.8343H120.138C121.795 29.8343 123.074 29.5883 123.984 29.1578C124.905 28.6863 125.355 27.6818 125.355 26.134C125.355 24.453 124.905 22.813 124.015 21.2038C123.125 19.5945 121.826 18.2825 120.036 17.278C118.266 16.2633 116.159 15.7713 113.684 15.7713H113.5C111.669 15.7918 109.992 16.089 108.509 16.663C106.944 17.2678 105.645 18.1185 104.551 19.2153C103.518 20.3325 102.689 21.665 102.137 23.2333C101.584 24.8015 101.288 26.503 101.288 28.307C101.288 32.1815 102.423 35.2155 104.663 37.4808C106.791 39.6128 109.726 40.7505 113.48 40.8633C113.684 40.8838 113.909 40.8838 114.134 40.8838C115.883 40.8838 117.469 40.6583 118.839 40.2073C120.21 39.7563 121.345 39.1925 122.245 38.5058C123.145 37.8088 123.831 37.0913 124.26 36.3533C124.71 35.6153 124.935 34.9593 124.935 34.4058C124.997 33.7395 124.792 33.2373 124.383 32.9093ZM109.644 21.624C110.647 20.5683 111.946 20.0353 113.521 20.0353H113.541C115.178 20.0353 116.517 20.5478 117.52 21.583C118.522 22.6183 119.126 24.207 119.248 26.3185H107.793C108.008 24.248 108.611 22.6798 109.644 21.624ZM97.5034 32.3865C96.8795 32.3865 96.4499 32.5403 96.1124 32.7863C95.335 33.5038 94.6804 34.088 94.1895 34.5083C93.6985 34.908 93.1769 35.2975 92.5734 35.6768C91.9904 36.0355 91.387 36.3225 90.7426 36.466C90.1187 36.6403 89.4232 36.7325 88.6663 36.7325C88.4924 36.7325 88.3492 36.7325 88.1958 36.712C87.2548 36.6505 86.365 36.3943 85.5774 35.9228C84.6569 35.3795 83.9 34.58 83.3579 33.5448C82.7749 32.4685 82.4885 31.218 82.4681 29.824H94.8236C96.4601 29.824 97.7386 29.578 98.6694 29.1475C99.5695 28.676 100.03 27.6715 100.03 26.1238C100.03 24.4428 99.6002 22.8028 98.7103 21.1935C97.8205 19.5843 96.5113 18.2723 94.7316 17.2678C92.9621 16.253 90.8347 15.761 88.3799 15.761H88.1754C86.3445 15.7815 84.6876 16.0788 83.184 16.6528C81.6191 17.2575 80.3202 18.1083 79.2462 19.205C78.1927 20.3223 77.3642 21.6548 76.8119 23.223C76.2494 24.7913 75.963 26.4928 75.963 28.2968C75.963 32.1713 77.1085 35.2053 79.3587 37.4705C81.4862 39.6025 84.4114 40.7403 88.1549 40.853C88.3799 40.8735 88.5845 40.8735 88.8095 40.8735C90.579 40.8735 92.1439 40.648 93.5144 40.197C94.885 39.746 96.0203 39.1823 96.9102 38.4955C97.8307 37.7985 98.4955 37.081 98.9456 36.343C99.3956 35.605 99.6206 34.949 99.6206 34.3955C99.6206 33.7703 99.4161 33.2783 99.0172 32.94C98.6694 32.5505 98.1171 32.3865 97.5034 32.3865ZM84.3091 21.624C85.3115 20.5683 86.6105 20.0353 88.1856 20.0353H88.206C89.8425 20.0353 91.1824 20.5478 92.1848 21.583C93.1974 22.6183 93.7906 24.207 93.9338 26.3185H82.4681C82.6931 24.248 83.317 22.6798 84.3091 21.624ZM13.8579 36.7428V22.034C14.2875 22.075 14.7068 22.0955 15.1159 22.0955C17.1718 22.0955 19.0947 21.5523 20.7312 20.6093V36.753C20.7312 38.1265 20.4141 39.1515 19.7697 39.828C19.1254 40.5045 18.2969 40.8428 17.2638 40.8428C16.2615 40.8428 15.4535 40.5045 14.8193 39.8075C14.2056 39.1003 13.8579 38.106 13.8579 36.7428ZM73.3548 7.52003C72.823 6.91528 72.0968 6.61803 71.166 6.61803C70.2046 6.61803 69.4681 6.93577 68.9465 7.60202C68.4146 8.24778 68.1692 9.21128 68.1692 10.4515V19.5535C66.9827 18.2723 65.7553 17.36 64.4973 16.745C63.7097 16.3658 62.7994 16.089 61.7868 15.9558C61.2038 15.884 60.5799 15.843 59.9048 15.843C56.775 15.843 54.218 16.9193 52.2951 19.0923C50.3722 21.2448 49.4108 24.248 49.4108 28.0918C49.4108 29.906 49.6563 31.6075 50.1268 33.1655C50.6177 34.7133 51.3337 36.0765 52.2747 37.245C53.2157 38.393 54.351 39.2848 55.6295 39.9305C56.9285 40.5558 58.3093 40.8735 59.8333 40.8735C60.5083 40.8735 61.1731 40.812 61.797 40.6993C62.2164 40.6378 62.5846 40.525 62.9835 40.4123C63.945 40.0945 64.845 39.6333 65.6633 39.049C66.5122 38.4443 67.3202 37.6755 68.1896 36.7223V37.327C68.1896 38.4648 68.476 39.3258 69.0386 39.951C69.5806 40.5558 70.3375 40.8735 71.1865 40.8735C72.0354 40.8735 72.7718 40.5763 73.3139 40.0023C73.856 39.3975 74.1219 38.5263 74.1219 37.3373V10.1235C74.1015 8.99603 73.856 8.10428 73.3548 7.52003ZM67.0032 32.6428C66.4611 33.7908 65.7042 34.662 64.8041 35.2258C63.904 35.7895 62.8812 36.056 61.7868 36.056H61.7664C60.6515 36.056 59.6594 35.7588 58.7286 35.1848C57.7876 34.58 57.0717 33.7088 56.5398 32.5403C56.0079 31.3718 55.7522 29.9368 55.7522 28.2763C55.7522 26.6875 55.9977 25.2935 56.4887 24.125C57.0001 22.936 57.6956 22.0135 58.6161 21.3678C59.5162 20.7118 60.5594 20.4043 61.705 20.4043H61.7766C62.871 20.4043 63.8631 20.722 64.7734 21.3473C65.7144 21.9725 66.4508 22.8745 66.9929 24.043C67.5248 25.2115 67.8009 26.6465 67.8009 28.2763C67.8112 30.0188 67.5248 31.4743 67.0032 32.6428ZM30.8365 19.1845V19.943C31.9719 18.508 33.1686 17.4728 34.4675 16.786C35.8074 16.13 37.3109 15.7815 39.0293 15.7815C40.6862 15.7815 42.1795 16.1403 43.4887 16.8373C44.8082 17.5343 45.7696 18.5388 46.4037 19.8405C46.8333 20.599 47.0993 21.4293 47.2118 22.2903C47.3243 23.141 47.3959 24.2685 47.3959 25.6318V37.0708C47.3959 38.3213 47.0993 39.2438 46.506 39.869C45.9435 40.5148 45.1661 40.8325 44.2456 40.8325C43.3046 40.8325 42.5477 40.5148 41.9443 39.8485C41.3408 39.2028 41.0544 38.2803 41.0544 37.0708V26.8208C41.0544 24.781 40.768 23.2333 40.185 22.157C39.6225 21.0808 38.4565 20.5375 36.7177 20.5375C35.5824 20.5375 34.5698 20.8758 33.6493 21.5215C32.7287 22.1775 32.0332 23.0693 31.5934 24.2378C31.2968 25.1603 31.1434 26.8618 31.1434 29.3935V37.081C31.1434 38.3418 30.8468 39.254 30.2433 39.8895C29.6399 40.5148 28.883 40.8325 27.942 40.8325C27.0215 40.8325 26.285 40.5148 25.6816 39.8485C25.0781 39.2028 24.7917 38.2803 24.7917 37.0708V19.287C24.7917 18.1185 25.0577 17.2268 25.5793 16.663C26.0907 16.0788 26.8067 15.7713 27.7272 15.7713C28.2693 15.7713 28.7602 15.884 29.2103 16.1505C29.6603 16.417 30.0183 16.7963 30.3047 17.2985C30.724 17.852 30.8365 18.467 30.8365 19.1845ZM13.8988 1.50328C18.1537 0.00677501 23.0223 0.0887751 26.6532 3.16378C27.3283 3.78903 28.1056 4.55778 28.4023 5.49053C28.7807 6.63853 27.1237 5.37778 26.8783 5.20353C25.6918 4.44503 24.5053 3.80953 23.1655 3.36878C16.0058 1.21628 9.22454 5.10103 5.01056 11.169C3.28201 13.834 2.12623 16.6425 1.18524 19.738C1.09319 20.0763 1.00114 20.517 0.806803 20.8143C0.622697 21.1525 0.735206 19.9123 0.735206 19.8508C0.888628 18.5695 1.15456 17.3395 1.47163 16.0993C3.4252 9.51878 7.72101 4.02478 13.8988 1.50328ZM22.1529 13.3523C22.1529 16.1505 19.8925 18.426 17.1002 18.426C14.3079 18.426 12.0475 16.1608 12.0475 13.3523C12.0475 10.5438 14.3079 8.27853 17.1002 8.27853C19.8925 8.27853 22.1529 10.5438 22.1529 13.3523Z" fill="#270741"/>
</svg>
