<svg width="225" height="54" viewBox="0 0 225 54" fill="none" xmlns="http://www.w3.org/2000/svg">
<g clip-path="url(#clip0_833_153)">
<path d="M72.7505 12.2331L81.4596 10.2166V52.6456H72.7505V12.2331Z" fill="#270741"/>
<path d="M113.332 47.7741C110.544 51.32 105.956 53.3433 101.422 53.3433C92.7059 53.3433 85.7427 47.544 85.7427 38.5371C85.7427 29.5303 92.7127 23.731 101.422 23.731C109.562 23.731 114.672 29.5303 114.672 38.5371V41.271H94.4518C95.1556 44.5868 97.6526 46.732 101.023 46.732C103.865 46.732 105.787 45.2771 107.235 43.3011L113.332 47.7808V47.7741ZM105.956 35.3431C106.017 32.4468 103.75 30.004 100.61 30.004C96.7864 30.004 94.6886 32.616 94.4586 35.3431H105.962H105.956Z" fill="#270741"/>
<path d="M162.981 52.6454H154.963V48.9236H154.848C153.514 50.9672 150.138 53.3357 146.193 53.3357C137.829 53.3357 132.313 47.2928 132.313 38.7528C132.313 30.9166 137.192 23.7166 145.211 23.7166C148.798 23.7166 152.181 24.6978 154.151 27.4316H154.266V12.2194L162.981 10.2029V52.6319V52.6454ZM147.999 31.3903C143.635 31.3903 141.023 34.2934 141.023 38.5295C141.023 42.7656 143.635 45.6687 147.999 45.6687C152.364 45.6687 154.963 42.7656 154.963 38.5295C154.963 34.2934 152.351 31.3903 147.999 31.3903Z" fill="#270741"/>
<path d="M182.315 23.731C191.017 23.731 197.994 29.5303 197.994 38.5371C197.994 47.544 191.017 53.3433 182.315 53.3433C173.612 53.3433 166.622 47.544 166.622 38.5371C166.622 29.5303 173.599 23.731 182.315 23.731ZM182.315 45.6763C186.659 45.6763 189.285 42.7733 189.285 38.5371C189.285 34.301 186.666 31.398 182.315 31.398C177.964 31.398 175.338 34.301 175.338 38.5371C175.338 42.7733 177.95 45.6763 182.315 45.6763Z" fill="#270741"/>
<path d="M217.625 32.7311C216.346 31.1543 214.668 30.3491 212.57 30.3491C211.122 30.3491 209.383 30.9852 209.383 32.6702C209.383 36.8454 224.074 33.3062 224.074 44.0522C224.074 51.2523 217.104 53.3365 211.061 53.3365C207.116 53.3365 202.765 52.3553 199.97 49.5064L205.255 43.6394C206.879 45.6086 208.794 46.7252 211.413 46.7252C213.389 46.7252 215.365 46.2041 215.365 44.6951C215.365 40.1612 200.674 43.9981 200.674 33.2453C200.674 26.6272 206.595 23.731 212.523 23.731C216.245 23.731 220.359 24.658 222.978 27.446L217.632 32.7311H217.625Z" fill="#270741"/>
<path d="M128.084 24.4277H119.375V52.6529H128.084V24.4277Z" fill="#270741"/>
<path d="M128.084 12.2737H119.375V19.4941H128.084V12.2737Z" fill="#270741"/>
<path d="M30.484 32.1216L60.2588 13.9319L22.2012 26.3019L30.484 32.1216Z" fill="#270741"/>
<path d="M15.2105 0.343262L12.1653 9.5193H58.8034L15.2105 0.343262Z" fill="#270741"/>
<path d="M5.21564 30.3955L19.1962 25.8481L9.08636 18.7495L5.21564 30.3955Z" fill="#270741"/>
<path d="M0.235291 10.8721L8.37598 16.5902L10.2843 10.8721H0.235291Z" fill="#270741"/>
<path d="M65.2525 10.8721L11.7121 10.8788L9.53314 17.409L20.8069 25.3264L65.2525 10.8721Z" fill="#270741"/>
</g>
<defs>
<clipPath id="clip0_833_153">
<rect width="223.839" height="53" fill="white" transform="translate(0.235291 0.343262)"/>
</clipPath>
</defs>
</svg>
