<svg width="79" height="72" viewBox="0 0 79 72" fill="none" xmlns="http://www.w3.org/2000/svg">
<g clip-path="url(#clip0_111_1762)">
<path d="M26.4769 52.3908C26.9979 51.8668 27.3068 51.2927 27.4129 50.7185L24.3459 50.7719C24.2929 50.9287 24.1369 51.0856 23.9809 51.139C23.6158 51.4527 23.0449 51.506 22.4209 51.506C21.7969 51.506 21.3289 51.4527 20.9139 51.139C20.2369 50.7719 19.8219 49.9373 19.8219 48.9428H27.5127C27.5127 48.0015 27.5127 47.2705 27.4597 46.8532C27.3037 46.0187 27.0946 45.2845 26.6298 44.657C26.1618 43.9762 25.5378 43.4021 24.8638 43.0883C24.1868 42.7746 23.3038 42.6177 22.371 42.6177C20.811 42.6177 19.5661 43.0883 18.6301 44.1331C17.6941 45.1245 17.1231 46.5363 17.1231 48.3655C17.1231 50.2981 17.6442 51.7633 18.7861 52.5979C19.8781 53.4324 21.1261 53.9564 22.527 53.9564C24.243 53.9595 25.5939 53.4356 26.4769 52.3908ZM20.605 45.5983C20.9701 45.2312 21.541 44.9708 22.268 44.9708C22.892 44.9708 23.463 45.1276 23.931 45.4947C24.399 45.8618 24.608 46.4359 24.608 47.167H19.8282C19.981 46.5395 20.1901 46.0155 20.605 45.5983Z" fill="#270741"/>
<path d="M39.6776 34.6235C54.8002 34.6235 64.413 26.9431 64.413 17.4304V16.4892C64.413 7.55379 53.3432 0.237305 39.6776 0.237305C26.012 0.237305 14.9422 7.55379 14.9422 16.4892V17.4304C14.9422 26.9431 24.608 34.6235 39.6776 34.6235ZM39.7806 1.23187C52.8752 1.23187 63.53 8.07774 63.53 16.4892C63.53 24.9007 52.8783 31.7465 39.7806 31.7465C26.6828 31.7465 16.0342 24.9038 16.0342 16.4923C16.0342 8.08087 26.6859 1.23187 39.7806 1.23187Z" fill="#270741"/>
<path d="M19.0482 58.3488V71.2028H21.8031V56.5698H21.0762C19.9311 56.573 19.0482 57.9315 19.0482 58.3488Z" fill="#270741"/>
<path d="M54.4882 43.3517C53.5522 42.8811 52.5663 42.6709 51.3714 42.6709C49.6054 42.6709 48.3044 43.1415 47.5774 44.0828C47.1094 44.7102 46.9004 45.4413 46.7974 46.3292H49.4463C49.4994 45.9621 49.6554 45.6483 49.8114 45.3879C50.1234 45.0742 50.5914 44.9173 51.2154 44.9173C51.8394 44.9173 52.2013 44.9707 52.5663 45.1275C52.8783 45.2844 53.0343 45.5981 53.0343 46.0688C53.0343 46.4358 52.8253 46.6962 52.4103 46.8531C52.2013 46.9065 51.7863 47.01 51.3183 47.0633L50.3823 47.1167C49.2903 47.2735 48.5103 47.4837 47.9394 47.7975C46.9534 48.3214 46.4324 49.3662 46.4324 50.618C46.4324 51.6095 46.7444 52.3938 47.3684 52.968C47.9924 53.4919 48.7724 53.7523 49.7583 53.8025C55.8392 54.0127 55.7862 50.5616 55.7862 49.8839V45.9119C55.8392 44.7604 55.4242 43.8224 54.4882 43.3517ZM53.0842 49.4635C53.0842 50.4047 52.7722 51.0322 52.3042 51.3961C51.7832 51.7099 51.2122 51.9201 50.6413 51.9201C50.2762 51.9201 49.9642 51.8667 49.7053 51.6063C49.4463 51.3459 49.3402 51.0824 49.3402 50.6149C49.3402 50.0909 49.5493 49.6737 49.9642 49.4133C50.1733 49.2564 50.6413 49.0995 51.2122 49.0462L51.8362 48.8893C52.1482 48.836 52.3573 48.7324 52.6162 48.7324C52.7722 48.6791 52.9813 48.5756 53.1373 48.5222L53.0842 49.4635Z" fill="#270741"/>
<path d="M11.4603 42.6209C10.1094 42.6209 9.01737 43.195 8.23737 44.1362C7.45737 43.1448 6.36537 42.6209 5.01441 42.6209C2.31561 42.6209 0.599609 44.6571 0.599609 47.3239V53.6991H3.19857V47.2705C3.19857 46.1222 3.97857 45.3379 5.07057 45.3379C6.78657 45.3379 6.94257 46.643 6.94257 47.2705V53.6991H9.54153V47.2705C9.54153 46.1222 10.3714 45.3379 11.4634 45.3379C13.1794 45.3379 13.3354 46.643 13.3354 47.2705V53.6991H15.9344L15.8814 47.3239C15.8782 44.5535 14.2652 42.6209 11.4603 42.6209Z" fill="#270741"/>
<path d="M42.2766 45.7018C42.4856 46.0156 42.6416 46.3826 42.6416 46.7999H45.6025C45.4465 45.2845 44.9254 44.1864 44.0425 43.6656C43.2126 43.0381 42.0145 42.8311 40.6136 42.8311C38.9506 42.8311 37.6527 43.3017 36.7167 44.3465C35.7807 45.3912 35.3127 46.8031 35.3127 48.5788C35.3127 50.2511 35.6778 51.5061 36.5607 52.4975C37.3906 53.4889 38.7447 54.0129 40.5106 54.0129C42.2766 54.0129 43.6275 53.3854 44.5635 52.2371C45.0846 51.4527 45.3934 50.6684 45.4995 49.7805H42.5386C42.4856 50.3044 42.3296 50.7719 42.0176 51.139C41.7056 51.4527 41.2376 51.6629 40.5106 51.6629C39.5746 51.6629 38.8477 51.1923 38.5887 50.3044C38.4327 49.8338 38.2767 49.2063 38.2767 48.422C38.2767 47.6376 38.3298 46.9066 38.5887 46.4893C39.0567 45.5481 39.6807 45.0775 40.7197 45.0775C41.3936 45.0743 41.9115 45.2845 42.2766 45.7018Z" fill="#270741"/>
<path d="M27.519 60.3347H24.764V71.1526H27.519V60.3347Z" fill="#270741"/>
<path d="M64.101 41.3126V44.29C63.789 43.8194 63.4239 43.4555 62.853 43.0884C62.385 42.7747 61.761 42.7213 61.137 42.7213C59.733 42.7213 58.6441 43.2453 57.758 44.29C56.9281 45.2815 56.51 46.7968 56.51 48.6793C56.51 50.248 56.875 51.6065 57.758 52.4944C58.5879 53.4858 60.2509 53.9063 61.7079 53.9063C66.8528 53.9063 66.7498 49.517 66.7498 49.517L66.9058 39.38C66.9058 39.38 64.101 39.0662 64.101 41.3126ZM63.686 50.772C63.321 51.2959 62.7001 51.6065 61.9201 51.6065C61.1401 51.6065 60.5161 51.2928 60.2041 50.772C59.839 50.1445 59.683 49.3601 59.683 48.3154C59.683 47.3741 59.839 46.6431 60.2041 46.069C60.5691 45.4415 61.1401 45.1277 61.97 45.1277C62.491 45.1277 62.9559 45.2846 63.374 45.5984C63.998 46.1223 64.3599 47.1671 64.3599 48.5256C64.2039 49.4637 64.101 50.248 63.686 50.772Z" fill="#270741"/>
<path d="M58.6441 61.7969C58.2291 61.2227 57.6582 60.7521 56.9811 60.3851C56.3041 60.018 55.4742 59.8611 54.5912 59.8611C53.7582 59.8611 53.0312 59.9646 52.3573 60.2784C51.6802 60.5921 51.1093 60.9592 50.6413 61.48C50.1733 61.9506 49.8114 62.5781 49.5493 63.2558C49.2903 63.9366 49.1343 64.7178 49.1343 65.5022C49.1343 66.3368 49.2373 67.1211 49.4994 67.8019C49.7583 68.4828 50.1234 69.0569 50.5914 69.5777C51.0594 70.0483 51.6303 70.4656 52.3074 70.726C52.9844 70.9864 53.7613 71.1433 54.5943 71.1433C55.8423 71.1433 56.8282 70.8829 57.7112 70.3087C58.5942 69.7346 59.2182 68.8467 59.6331 67.5384H57.0342C56.9312 67.8521 56.6691 68.1659 56.2542 68.4796C55.8392 68.7934 55.3182 68.9502 54.7472 68.9502C53.9173 68.9502 53.2933 68.74 52.8253 68.3228C52.4103 67.9055 52.1482 67.2247 52.0453 66.2332H59.7891C59.8422 65.3987 59.7891 64.561 59.5801 63.83C59.371 63.0519 59.0622 62.371 58.6441 61.7969ZM52.0453 64.4104C52.0983 64.2002 52.0983 63.9398 52.2013 63.6794C52.3042 63.419 52.4103 63.2087 52.6162 62.9483C52.7722 62.7381 53.0312 62.5311 53.3432 62.3742C53.6552 62.2173 54.0702 62.1138 54.5382 62.1138C55.2651 62.1138 55.7862 62.324 56.1481 62.6879C56.5131 63.055 56.7721 63.6292 56.8251 64.4135H52.0453V64.4104Z" fill="#270741"/>
<path d="M77.1956 44.2901C76.3657 43.192 74.9617 42.5645 73.1427 42.5645C71.3768 42.5645 69.9198 43.0884 69.0899 44.2901C68.2599 45.3882 67.7389 46.7467 67.7389 48.262C67.7389 49.8308 68.2069 51.1893 69.0899 52.234C69.9198 53.3321 71.3238 53.9063 73.1427 53.9063C74.9087 53.9063 76.3657 53.3823 77.1956 52.234C78.0255 51.1359 78.5466 49.7774 78.5466 48.262C78.5996 46.8 78.1316 45.4415 77.1956 44.2901ZM75.0147 50.772C74.5467 51.2959 73.9227 51.6065 73.1427 51.6065C72.3627 51.6065 71.7387 51.2928 71.2707 50.772C70.8027 50.248 70.6467 49.3601 70.6467 48.3154C70.6467 47.2173 70.8558 46.4329 71.2707 45.9121C71.7387 45.3882 72.3627 45.0776 73.1427 45.0776C73.9227 45.0776 74.5467 45.3913 75.0147 45.9121C75.4827 46.4361 75.6387 47.324 75.6387 48.3154C75.6387 49.3068 75.4827 50.1445 75.0147 50.772Z" fill="#270741"/>
<path d="M36.1426 59.8109C34.7917 59.8109 33.7527 60.385 33.0258 61.5364V56.573H32.7138C31.3628 56.573 30.6358 57.304 30.2708 57.9315V66.2394C30.2708 69.5306 31.9868 71.2029 35.4157 71.2029C38.8446 71.1495 40.5075 69.2702 40.5075 65.612C40.5106 61.7968 39.0536 59.9175 36.1426 59.8109ZM35.3127 68.7996C33.7527 68.7996 32.9758 67.6513 33.0258 65.4551C33.1287 63.3122 33.8557 62.2675 35.3658 62.2675C36.8758 62.2675 37.5997 63.3122 37.7058 65.4551C37.7026 67.7015 36.8727 68.7996 35.3127 68.7996Z" fill="#270741"/>
<path d="M31.5718 53.7493V48.5757C31.5718 47.7411 31.6249 47.0603 31.8838 46.6932C32.2489 46.0124 32.9758 45.5951 34.1178 45.5951H34.4298C34.5858 45.5951 34.7418 45.5951 34.8978 45.6485V42.8279H34.6887C34.6357 42.7244 34.6357 42.7244 34.5327 42.7244C28.3489 42.7244 28.7638 48.2117 28.7638 48.2117V53.7493H31.5718Z" fill="#270741"/>
<path d="M42.1206 65.455V71.1494H44.9254V65.4017C44.9254 63.7828 45.6025 62.7882 47.1594 62.7882H48.4573V59.9143H47.6274C43.9395 59.9175 42.2235 61.9003 42.1206 65.455Z" fill="#270741"/>
<path d="M27.519 56.573H24.764V59.0798H27.519V56.573Z" fill="#270741"/>
<path d="M52.9813 18.1113C50.6444 16.072 45.2374 11.3188 43.7305 10.2207C42.9006 9.59319 42.3265 9.22925 41.8086 9.12258C41.5995 9.06924 41.2875 8.96571 40.8726 8.96571C40.5075 8.96571 40.0926 9.01904 39.6776 9.17592C38.7416 9.48966 37.8056 10.2207 36.8727 10.9517L36.8197 11.0051C35.9898 11.6859 35.1037 12.3636 34.4298 12.5204C34.1178 12.5738 33.8588 12.624 33.5468 12.624C32.8198 12.624 32.1428 12.4138 31.8838 12.1C31.8308 12.0467 31.8838 11.9431 31.9868 11.8396L34.0647 9.59319C35.6746 7.97428 37.1816 6.4589 40.7166 6.35223H40.8726C43.0566 6.35223 45.2374 7.34366 45.4964 7.45033C47.5743 8.44176 49.6522 8.96571 51.7832 8.96571C54.0171 8.96571 56.3041 8.39156 58.694 7.29346C58.435 7.08325 58.123 6.82284 57.8641 6.61264C55.7331 7.55387 53.7582 7.97114 51.7832 7.97114C49.8082 7.97114 47.8333 7.50053 45.9114 6.5593C45.8084 6.50596 43.4185 5.35767 40.8694 5.35767H40.6604C37.6995 5.411 36.0366 6.45577 34.9446 7.39699C33.8526 7.39699 32.9166 7.71074 32.0866 7.92094C31.3597 8.13115 30.6826 8.28802 30.0586 8.28802H29.2786C28.5517 8.28802 24.9138 7.40013 22.0558 6.2487C21.7438 6.4589 21.4849 6.66597 21.1729 6.87618C24.1868 8.13115 27.8778 9.07238 29.0197 9.17592C29.3317 9.17592 29.6967 9.22925 30.0586 9.22925C30.8386 9.22925 31.5656 9.01904 32.3456 8.81197C32.8136 8.70844 33.2816 8.55157 33.7496 8.4449L33.3346 8.86217L31.2567 11.1619C31.1007 11.3188 30.7357 11.7894 30.9447 12.3102C31.0477 12.5204 31.2567 12.7275 31.5157 12.9377C32.0367 13.2515 32.9197 13.5119 33.7496 13.5119C34.0616 13.5119 34.3736 13.4585 34.6326 13.4083C35.5155 13.1981 36.4515 12.4671 37.3875 11.6827C38.1675 11.0553 39.2595 10.2709 40.0894 10.0105C40.3484 9.95714 40.6105 9.90694 40.8694 9.90694H41.0785C41.6494 9.96027 42.1705 10.1673 43.1564 10.8984C44.8724 12.2036 52.5102 18.8925 52.5632 18.9459C52.5632 18.9459 53.0312 19.3632 53.0312 20.0942C53.0312 20.4613 52.7722 20.8252 52.4072 21.0856C52.0952 21.2958 51.7302 21.3994 51.4213 21.3994C50.9002 21.3994 50.5383 21.1389 50.5383 21.1389C50.5383 21.1389 47.8894 18.7357 46.9534 17.898C46.7974 17.7411 46.6414 17.6376 46.4854 17.6376C46.3825 17.6376 46.3294 17.6909 46.2764 17.7411C46.1204 17.9513 46.2764 18.2117 46.4854 18.3686L49.5524 21.4527C49.5524 21.4527 49.9174 21.8198 49.9674 22.2872C49.9674 22.8112 49.7583 23.2285 49.2404 23.5422C48.8754 23.8026 48.5134 23.9093 48.1484 23.9093C47.6804 23.9093 47.3684 23.6991 47.2654 23.6489L46.7974 23.2316C46.0174 22.4473 45.1875 21.6127 44.5635 21.1421C44.4075 21.0385 44.2515 20.8817 44.0955 20.8817C44.0425 20.8817 43.9395 20.8817 43.8865 20.9852C43.8334 21.0385 43.7835 21.1954 43.9395 21.4558C43.9926 21.5594 44.0955 21.6127 44.0955 21.6127L46.3294 24.1195C46.3294 24.1195 46.7974 24.6937 46.3825 25.1643L46.0705 25.478C45.7054 25.7918 45.1875 25.8451 44.9785 25.8451H44.6665C44.4574 25.7918 44.3014 25.7416 44.1985 25.6349C44.0955 25.478 42.9505 24.3799 42.0145 23.5956C41.9115 23.492 41.7555 23.3853 41.5995 23.3853C41.5465 23.3853 41.4435 23.4387 41.3905 23.4889C41.2345 23.6991 41.4934 24.0128 41.5995 24.1164L43.5214 26.2059C43.5214 26.2059 43.5214 26.2592 43.4684 26.3628C43.4154 26.4663 43.1564 26.6765 42.4825 26.78H42.2235C41.4966 26.78 40.7696 26.413 40.3515 26.2059C40.5075 25.8388 40.6105 25.4215 40.6105 25.0043C40.6105 23.4355 39.3625 22.1837 37.8056 22.1837H37.7026C37.7557 21.4527 37.6496 20.0942 36.2487 19.52C35.8338 19.3632 35.4687 19.2596 35.0538 19.2596C34.7418 19.2596 34.4828 19.313 34.1708 19.4165C33.8588 18.8423 33.3908 18.4251 32.7668 18.2149C32.4018 18.1113 32.0898 18.058 31.7278 18.058C31.1569 18.058 30.6358 18.2149 30.1678 18.5819C29.7092 18.0172 29.0228 17.6878 28.2958 17.6941C27.6718 17.6941 27.0478 17.9545 26.6329 18.3749C26.0619 17.9043 23.7219 16.4422 17.4351 14.977C17.1231 14.9237 16.4492 14.7166 16.0311 14.5598C15.9781 14.8735 15.9282 15.2406 15.8751 15.6045C15.8751 15.6045 17.017 15.8649 17.2791 15.9183C23.672 17.3301 25.803 18.8455 26.1649 19.1059C26.0619 19.4196 26.0089 19.7334 26.0089 20.0471C26.0089 21.4056 27.1009 22.4504 28.3988 22.4504C28.5548 22.4504 28.7108 22.4504 28.8668 22.3971C29.0758 23.3885 29.6967 24.1226 30.6858 24.4866C30.9978 24.5901 31.2567 24.6435 31.5157 24.6435C31.6717 24.6435 31.8807 24.6435 32.0866 24.5901C32.2426 25.0607 32.6576 25.6349 33.5936 26.002C33.9056 26.1588 34.2176 26.2122 34.5296 26.2122C34.7886 26.2122 35.0506 26.1588 35.2566 26.0553C35.6715 27.1001 36.7105 27.8311 37.8555 27.8311C38.6355 27.8311 39.3625 27.5173 39.8835 26.9432C40.3515 27.2036 41.2875 27.6742 42.2734 27.6742H42.6385C43.6244 27.5707 44.0425 27.1503 44.2484 26.8899C44.3014 26.8365 44.3014 26.7863 44.3514 26.733C44.5604 26.7863 44.8194 26.8365 45.1314 26.8365C45.6524 26.8365 46.1703 26.6796 46.6914 26.2624C47.2124 25.8953 47.5743 25.3745 47.5743 24.9039C47.7303 24.9572 47.9394 24.9572 48.0954 24.9572C48.6164 24.9572 49.1874 24.8003 49.7053 24.4332C50.6912 23.8058 50.8472 22.9179 50.8472 22.3939C51.0032 22.4473 51.2122 22.4473 51.3682 22.4473C51.8893 22.4473 52.4072 22.2904 52.8752 21.9766C53.4992 21.5594 53.8611 20.9852 53.9142 20.3044C53.9672 19.8338 53.8112 19.3632 53.6022 18.9459C55.2651 18.2149 59.006 16.8564 63.477 15.8116C63.477 15.4445 63.4239 15.1308 63.321 14.7668C57.9702 15.9151 53.9672 17.6407 52.9813 18.1113ZM37.9616 26.8397C36.9226 26.8397 36.0896 26.0051 36.0397 24.9572C36.0397 24.8537 36.0397 24.6435 35.8306 24.6435C35.7277 24.6435 35.6746 24.6968 35.5717 24.747C35.3626 24.9572 35.0506 25.1643 34.6357 25.1643C34.4266 25.1643 34.2207 25.1109 34.0117 25.0074C32.9197 24.5368 32.8698 23.8058 32.9197 23.492C32.9197 23.3885 32.9197 23.3351 32.8666 23.2818L32.8136 23.2285H32.7606C32.7075 23.2285 32.6576 23.2285 32.5515 23.332C32.2395 23.5422 31.9275 23.6458 31.6155 23.6458C31.4595 23.6458 31.2505 23.5924 31.0945 23.5422C29.6406 22.9681 29.7435 21.6096 29.8465 21.1891C29.8465 21.0856 29.8465 21.0323 29.7934 20.9789L29.6905 20.8754L29.5875 20.9789C29.2755 21.2393 28.9105 21.3962 28.5486 21.3962C27.7186 21.3962 27.0416 20.7154 27.0416 19.8808C27.0416 19.0463 27.7186 18.3655 28.5486 18.3655C29.2755 18.3655 29.9526 18.9396 30.0555 19.6706L30.1086 20.0879L30.3176 19.7208C30.3176 19.6675 30.9416 18.7294 32.0835 18.7796C32.2926 18.7796 32.4985 18.8329 32.7606 18.8831C33.6435 19.1435 33.7995 19.9812 33.7995 20.295C33.7995 20.5052 33.9555 20.5052 33.9555 20.5052C34.0086 20.5052 34.1115 20.4519 34.1115 20.4017C34.2675 20.2448 34.6326 19.931 35.2035 19.931C35.4625 19.931 35.7246 19.9844 36.0334 20.1412C37.4374 20.7687 36.8134 22.5445 36.8134 22.5979C36.7105 22.9116 36.6574 23.0151 36.8134 23.1218H36.9164C36.9694 23.1218 37.0724 23.1218 37.1754 23.0685C37.3844 23.0151 37.6434 22.9116 37.9023 22.9116C38.9413 22.9116 39.8242 23.7995 39.8242 24.8442C39.8866 26.002 39.0037 26.8397 37.9616 26.8397Z" fill="#270741"/>
</g>
<defs>
<clipPath id="clip0_111_1762">
<rect width="77.951" height="70.9656" fill="white" transform="translate(0.599609 0.237305)"/>
</clipPath>
</defs>
</svg>
