<svg width="150" height="48" viewBox="0 0 150 48" fill="none" xmlns="http://www.w3.org/2000/svg">
<path d="M147.071 33.4053C147.039 32.7176 147.047 32.03 147.071 31.3423C147.071 31.2048 147.203 31.0672 147.273 30.9335C147.413 31.0061 147.596 31.0481 147.682 31.1628C147.963 31.5448 148.208 31.9268 148.5 32.3891C148.777 31.9688 149.034 31.5983 149.279 31.2201C149.525 30.8418 149.712 30.8075 150 31.1245V33.6459L149.571 33.8179C149.51 33.6876 149.465 33.5503 149.439 33.4091C149.446 32.9697 149.408 32.5307 149.326 32.0987C149.201 32.2668 149.077 32.4349 148.956 32.6068C148.566 33.1951 148.453 33.1913 148.037 32.6068C147.923 32.4244 147.769 32.2702 147.585 32.156C147.585 32.5801 147.604 33.008 147.585 33.432C147.585 33.5772 147.437 33.7185 147.359 33.8599C147.242 33.6956 147.074 33.5734 147.071 33.4053Z" fill="#270741"/>
<path d="M144.437 31.4149C144.32 31.3881 144.227 31.2583 144.125 31.1742C144.219 31.0978 144.312 30.9565 144.41 30.9526C145.021 30.9526 145.637 30.9297 146.252 30.9526C146.346 30.9526 146.436 31.1284 146.525 31.2239C146.428 31.2926 146.338 31.3996 146.233 31.4187C146.016 31.434 145.799 31.434 145.582 31.4187V33.2677C145.582 33.4587 145.43 33.8064 145.349 33.8064C144.959 33.8064 145.076 33.4664 145.068 33.241V31.4187C144.858 31.4416 144.647 31.4416 144.437 31.4187V31.4149Z" fill="#270741"/>
<path d="M134.823 23.3961C134.025 22.7084 133.224 22.0259 132.419 21.3484C132.306 21.2844 132.223 21.1789 132.188 21.055C132.154 20.9312 132.171 20.799 132.236 20.6875C132.28 20.6133 132.344 20.5515 132.419 20.5079C134.02 19.1403 135.617 17.7688 137.23 16.4164C137.426 16.2617 137.668 16.1733 137.92 16.1643C139.513 16.1643 141.106 16.1643 142.7 16.1643C143.007 16.1643 143.296 16.1643 143.35 16.6456C143.282 16.7721 143.197 16.889 143.097 16.9933C140.599 19.1326 138.096 21.2733 135.59 23.4152C135.496 23.5123 135.367 23.5692 135.231 23.5735C135.094 23.5778 134.962 23.5291 134.862 23.4381L134.823 23.3961Z" fill="#270741"/>
<path d="M140.277 33.8484C139.695 33.8179 139.113 33.8179 138.531 33.8484C138.202 33.8804 137.871 33.8378 137.561 33.7239C137.252 33.6099 136.973 33.4277 136.747 33.1913C135.356 31.9459 133.919 30.754 132.501 29.5391C132.049 29.1571 132.053 28.9546 132.501 28.5688C133.249 27.927 134.005 27.3004 134.741 26.6586C134.792 26.5981 134.854 26.5479 134.925 26.5111C134.996 26.4743 135.073 26.4515 135.152 26.444C135.232 26.4366 135.312 26.4446 135.389 26.4677C135.465 26.4907 135.536 26.5284 135.598 26.5784C135.628 26.6022 135.656 26.6291 135.68 26.6586C138.126 28.7598 140.588 30.8609 143.027 32.9545C143.187 33.0882 143.214 33.3709 143.303 33.581C143.114 33.6921 142.908 33.7721 142.692 33.8179C141.889 33.8637 141.083 33.8484 140.277 33.8484Z" fill="#270741"/>
<path d="M123.631 16.382C126.817 19.0868 129.999 21.7967 133.175 24.5116C133.6 24.8936 133.603 25.0923 133.175 25.4514C129.983 28.1791 126.79 30.9017 123.596 33.6192C123.424 33.7477 123.215 33.8187 123 33.8217C122.178 33.8446 121.356 33.8217 120.534 33.8217H118.169C117.953 33.7761 117.746 33.6947 117.557 33.581C117.647 33.3671 117.682 33.092 117.842 32.9545C120.074 31.0214 122.326 29.1074 124.573 27.1858C125.236 26.6242 125.894 26.0665 126.552 25.5011C127.09 25.0388 127.09 24.9357 126.552 24.4887L117.873 17.0773C117.701 16.9484 117.578 16.7669 117.522 16.5616C117.487 16.2521 117.741 16.1414 118.033 16.1414H123.07C123.279 16.157 123.477 16.2418 123.631 16.382Z" fill="#270741"/>
<path d="M112.049 33.8522C111.632 33.8522 111.449 33.6803 111.437 33.2907V17.1117C111.437 16.1948 111.519 16.1184 112.466 16.1184H115.279C115.941 16.1184 116.058 16.2407 116.058 16.8825V33.1149C116.058 33.8026 116.023 33.8408 115.345 33.8446C114.227 33.8446 113.132 33.8446 112.034 33.8446L112.049 33.8522Z" fill="#270741"/>
<path d="M109.996 31.7893C109.91 33.4626 109.022 34.1846 107.339 33.9325C106.556 33.8221 105.823 33.4887 105.232 32.9736C101.386 29.6805 97.5354 26.395 93.6813 23.1172C93.5086 22.9972 93.3247 22.8936 93.1321 22.8078C93.0575 23.018 93.0079 23.2359 92.984 23.4572V32.7826C92.984 33.688 92.8243 33.8484 91.9166 33.8484H89.2326C88.6093 33.8484 88.3794 33.6383 88.3794 33.0462V18.3304C88.3794 17.0659 88.8196 16.4432 89.9377 16.0038H90.8648C92.3218 16.2178 93.3074 17.1843 94.3475 18.0744C97.7756 21.016 101.213 23.9449 104.659 26.8611C104.846 26.9799 105.047 27.0737 105.259 27.14C105.333 26.9442 105.383 26.7402 105.407 26.5326V17.1461C105.407 16.298 105.571 16.1337 106.416 16.1299C107.261 16.1261 108.2 16.1299 109.088 16.1299C109.782 16.1299 109.996 16.3744 109.996 17.0086V31.7893Z" fill="#270741"/>
<path d="M86.6459 32.9354C83.1398 27.9461 79.6026 22.9682 76.1083 17.9675C75.4382 17.0124 74.7293 16.1834 73.4866 16H73.1788C72.7417 16.0678 72.323 16.2211 71.9475 16.4508C71.5721 16.6805 71.2476 16.9819 70.9934 17.3371C67.3315 22.5582 63.6606 27.7652 59.9805 32.9583C59.9112 33.0535 59.862 33.1614 59.8359 33.2756C59.8098 33.3897 59.8073 33.5079 59.8286 33.623C59.8714 33.7529 60.2182 33.8331 60.4285 33.837C61.6284 33.8561 62.8282 33.837 64.0281 33.8561C64.1881 33.8676 64.3482 33.8342 64.4896 33.7598C64.6311 33.6854 64.7479 33.573 64.8266 33.4358C65.6993 32.1713 66.5991 30.9259 67.4757 29.6614C67.5471 29.5396 67.6515 29.4394 67.7773 29.372C67.9031 29.3046 68.0454 29.2726 68.1885 29.2793H78.4223C78.5757 29.2646 78.7302 29.2926 78.868 29.3602C79.0058 29.4278 79.1214 29.5322 79.2014 29.6614C80.0818 30.9348 80.9791 32.2082 81.8933 33.4817C82.0238 33.6644 82.2226 33.7893 82.4464 33.8293C83.7683 33.8573 85.0877 33.8573 86.4044 33.8293C86.5044 33.8183 86.6001 33.7833 86.683 33.7273C86.7659 33.6713 86.8335 33.5961 86.8796 33.5084C86.8749 33.296 86.7919 33.0924 86.6459 32.9354ZM75.4733 25.3215H71.2583C70.7324 25.3215 70.6428 25.1725 70.9272 24.7676C71.6167 23.7705 72.3257 22.7848 73.023 21.7916C73.2294 21.4936 73.4125 21.5165 73.6034 21.7916C74.3085 22.8001 75.0292 23.801 75.7265 24.8096C75.9642 25.1916 75.8862 25.3101 75.4616 25.3215H75.4733Z" fill="#270741"/>
<path d="M64.85 16.149C65.7265 16.149 65.894 16.3171 65.894 17.1881V19.2052C65.894 19.8776 65.6603 20.1145 64.9708 20.1145H59.1274C58.3483 20.1145 58.3015 20.1565 58.3015 20.9053V32.8972C58.3015 33.6612 58.1145 33.8408 57.3354 33.8446H54.663C53.9229 33.8446 53.7242 33.6536 53.7242 32.9124V20.9664C53.7242 20.145 53.6852 20.1106 52.8633 20.1106H47.0783C46.2992 20.1106 46.0888 19.8967 46.0849 19.1594C46.081 18.4221 46.0849 17.7497 46.0849 17.0429C46.0849 16.3362 46.3265 16.149 47.0199 16.149H64.85Z" fill="#270741"/>
<path d="M28.5781 29.4436C29.3056 29.6849 30.063 29.8288 30.8298 29.8715C33.0892 29.9059 35.3487 29.8715 37.6081 29.8065C38.0858 29.7753 38.556 29.6735 39.0027 29.5047C39.7818 29.2335 40.0467 28.8362 40.0467 28.0225V17.2416C40.0467 16.2789 40.1831 16.149 41.1843 16.149H43.7047C44.4137 16.149 44.6397 16.3591 44.6397 17.0391V28.5802C44.6397 31.2048 42.9295 33.0538 40.0974 33.5199C39.0692 33.7068 38.0265 33.8065 36.9809 33.8179C34.0904 33.8179 31.1998 33.7529 28.3093 33.623C26.815 33.5811 25.3969 32.9667 24.3592 31.9115C23.9464 31.5064 23.6209 31.0241 23.4021 30.4931C23.1832 29.9622 23.0755 29.3935 23.0853 28.8209V17.0277C23.0853 16.3476 23.2762 16.1528 23.9618 16.149H26.7355C27.4328 16.149 27.6626 16.3591 27.6704 17.0506V28.0874C27.6307 28.3826 27.7006 28.682 27.8672 28.931C28.0338 29.1799 28.2861 29.3619 28.5781 29.4436Z" fill="#270741"/>
<path d="M21.6128 16.978V31.8466C21.4531 33.6039 20.5142 34.2763 18.7495 33.8981C18.0273 33.7449 17.3569 33.4135 16.8017 32.9354C13.0386 29.7085 9.27282 26.4829 5.50448 23.2586C5.43122 23.1873 5.35313 23.1209 5.27074 23.0599C5.09934 22.9644 4.92404 22.8842 4.74873 22.7963C4.67895 22.9733 4.63184 23.1581 4.60849 23.3464V32.8208C4.60849 33.6498 4.4254 33.837 3.59564 33.837C2.76587 33.837 1.88157 33.814 1.02844 33.837C0.836417 33.8608 0.641376 33.8365 0.461529 33.7663C0.281682 33.6962 0.122896 33.5825 0 33.4358V17.8146C0.241527 16.9895 0.603818 16.2598 1.55824 16H2.43475C3.88002 16.191 4.8656 17.1461 5.89404 18.0171C9.35852 21.002 12.8373 23.9691 16.3303 26.9184C16.4955 27.0214 16.6719 27.106 16.8563 27.1705C16.9386 26.9824 16.9962 26.7847 17.0277 26.5822V17.1461C17.0277 16.3171 17.2069 16.1452 18.0522 16.1414H20.7791C21.3946 16.1605 21.6089 16.382 21.6128 16.978Z" fill="#270741"/>
</svg>
