<svg width="201" height="25" viewBox="0 0 201 25" fill="none" xmlns="http://www.w3.org/2000/svg">
<g clip-path="url(#clip0_4735_14699)">
<path d="M197.074 23.9135C197.033 22.9797 197.043 22.0458 197.074 21.112C197.074 20.9252 197.252 20.7384 197.346 20.5568C197.534 20.6554 197.779 20.7125 197.894 20.8681C198.27 21.3869 198.599 21.9057 198.99 22.5335C199.361 21.9628 199.705 21.4596 200.034 20.9459C200.363 20.4323 200.614 20.3856 201 20.8162V24.2403L200.426 24.4738C200.343 24.2969 200.284 24.1104 200.248 23.9187C200.258 23.322 200.207 22.7258 200.097 22.1392C199.93 22.3675 199.763 22.5957 199.601 22.8292C199.079 23.6282 198.928 23.623 198.369 22.8292C198.217 22.5815 198.01 22.372 197.763 22.217C197.763 22.7929 197.79 23.3739 197.763 23.9498C197.763 24.147 197.565 24.3389 197.461 24.5309C197.304 24.3078 197.08 24.1418 197.074 23.9135Z" fill="#270741"/>
<path d="M193.546 21.2104C193.389 21.1741 193.264 20.9977 193.128 20.8836C193.253 20.7798 193.378 20.5879 193.509 20.5827C194.329 20.5827 195.153 20.5516 195.978 20.5827C196.103 20.5827 196.223 20.8213 196.344 20.951C196.213 21.0444 196.093 21.1897 195.952 21.2156C195.662 21.2364 195.37 21.2364 195.08 21.2156V23.7266C195.08 23.986 194.877 24.4581 194.767 24.4581C194.245 24.4581 194.402 23.9964 194.391 23.6903V21.2156C194.11 21.2468 193.827 21.2468 193.546 21.2156V21.2104Z" fill="#270741"/>
<path d="M180.663 10.3209C179.594 9.38708 178.521 8.46015 177.442 7.54014C177.29 7.45323 177.179 7.30997 177.133 7.14175C177.087 6.97352 177.11 6.79404 177.196 6.64261C177.256 6.54187 177.34 6.45793 177.442 6.39878C179.587 4.54147 181.727 2.67897 183.889 0.842409C184.151 0.632366 184.476 0.512273 184.813 0.5C186.948 0.5 189.083 0.5 191.218 0.5C191.63 0.5 192.016 0.5 192.089 1.15369C191.998 1.32542 191.884 1.48421 191.75 1.6258C188.402 4.53109 185.049 7.43811 181.691 10.3469C181.565 10.4788 181.392 10.556 181.209 10.5619C181.027 10.5677 180.849 10.5016 180.715 10.378L180.663 10.3209Z" fill="#270741"/>
<path d="M187.971 24.5155C187.192 24.474 186.411 24.474 185.633 24.5155C185.192 24.559 184.747 24.5011 184.332 24.3464C183.918 24.1916 183.545 23.9442 183.242 23.6232C181.378 21.9319 179.452 20.3132 177.552 18.6634C176.946 18.1446 176.951 17.8696 177.552 17.3457C178.554 16.4741 179.567 15.6232 180.553 14.7516C180.621 14.6694 180.705 14.6013 180.8 14.5513C180.894 14.5013 180.998 14.4703 181.105 14.4602C181.212 14.4501 181.319 14.461 181.422 14.4923C181.524 14.5236 181.619 14.5747 181.702 14.6427C181.742 14.675 181.779 14.7115 181.811 14.7516C185.09 17.6051 188.389 20.4585 191.657 23.3015C191.871 23.4831 191.907 23.867 192.027 24.1523C191.773 24.3032 191.497 24.4119 191.208 24.474C190.132 24.5362 189.052 24.5155 187.971 24.5155Z" fill="#270741"/>
<path d="M165.665 0.795595C169.935 4.46871 174.198 8.14875 178.454 11.8357C179.023 12.3545 179.029 12.6243 178.454 13.112C174.177 16.8162 169.899 20.5135 165.618 24.2039C165.388 24.3784 165.108 24.4748 164.819 24.4789C163.718 24.51 162.617 24.4789 161.515 24.4789H158.346C158.057 24.417 157.779 24.3065 157.527 24.1521C157.647 23.8615 157.694 23.488 157.908 23.3012C160.899 20.6761 163.916 18.0769 166.928 15.4673C167.816 14.7047 168.698 13.9472 169.58 13.1794C170.301 12.5516 170.301 12.4116 169.58 11.8046L157.95 1.73981C157.719 1.56476 157.554 1.31831 157.48 1.03943C157.433 0.619203 157.772 0.46875 158.164 0.46875H164.913C165.194 0.489952 165.459 0.605188 165.665 0.795595V0.795595Z" fill="#270741"/>
<path d="M150.146 24.5203C149.587 24.5203 149.342 24.2868 149.326 23.7576V1.78638C149.326 0.54126 149.436 0.4375 150.704 0.4375H154.473C155.361 0.4375 155.517 0.603517 155.517 1.4751V23.519C155.517 24.4528 155.47 24.5047 154.562 24.5099C153.064 24.5099 151.597 24.5099 150.125 24.5099L150.146 24.5203Z" fill="#270741"/>
<path d="M147.395 1.66224V21.7191C147.28 23.9915 146.09 24.972 143.835 24.6296C142.786 24.4797 141.804 24.0269 141.011 23.3274C135.857 18.8553 130.698 14.3936 125.533 9.94232C125.302 9.7794 125.055 9.63869 124.797 9.52209C124.697 9.80756 124.631 10.1035 124.599 10.4041V23.068C124.599 24.2976 124.385 24.5155 123.169 24.5155H119.572C118.737 24.5155 118.429 24.2301 118.429 23.426V3.44173C118.429 1.7245 119.019 0.878849 120.517 0.282227H121.759C123.711 0.572756 125.032 1.88532 126.426 3.09413C131.02 7.08891 135.625 11.0664 140.244 15.0266C140.493 15.1879 140.764 15.3153 141.047 15.4053C141.147 15.1394 141.214 14.8624 141.246 14.5804V1.83344C141.246 0.681704 141.465 0.458619 142.598 0.453431C143.731 0.448243 144.989 0.453431 146.179 0.453431C147.108 0.453431 147.395 0.785465 147.395 1.64668V1.66224Z" fill="#270741"/>
<path d="M116.106 23.2753C111.408 16.4998 106.668 9.7398 101.985 2.94869C101.088 1.65168 100.137 0.52588 98.4722 0.276855H98.0598C97.4741 0.368886 96.913 0.577068 96.41 0.889013C95.9069 1.20096 95.472 1.61029 95.1314 2.09266C90.2245 9.18296 85.3054 16.2542 80.3741 23.3065C80.2812 23.4358 80.2153 23.5823 80.1803 23.7373C80.1453 23.8924 80.142 24.0528 80.1706 24.2092C80.228 24.3856 80.6926 24.4945 80.9744 24.4997C82.5822 24.5257 84.19 24.4997 85.7978 24.5257C86.0123 24.5413 86.2268 24.4959 86.4163 24.3949C86.6058 24.2938 86.7625 24.1412 86.8679 23.955C88.0373 22.2377 89.2431 20.5464 90.4176 18.8292C90.5134 18.6638 90.6533 18.5278 90.8218 18.4363C90.9904 18.3447 91.1811 18.3012 91.3729 18.3104H105.086C105.292 18.2904 105.499 18.3284 105.683 18.4202C105.868 18.512 106.023 18.6538 106.13 18.8292C107.31 20.5586 108.512 22.2879 109.737 24.0172C109.912 24.2654 110.179 24.435 110.478 24.4893C112.25 24.5274 114.018 24.5274 115.782 24.4893C115.916 24.4744 116.044 24.4268 116.155 24.3508C116.267 24.2748 116.357 24.1727 116.419 24.0535C116.413 23.765 116.301 23.4886 116.106 23.2753V23.2753ZM101.134 12.9356H95.4863C94.7816 12.9356 94.6616 12.7333 95.0426 12.1834C95.9666 10.8293 96.9166 9.49078 97.851 8.14189C98.1277 7.73723 98.3731 7.76836 98.6288 8.14189C99.5737 9.51153 100.539 10.8708 101.474 12.2404C101.792 12.7592 101.688 12.9201 101.119 12.9356H101.134Z" fill="#270741"/>
<path d="M86.8995 0.479004C88.074 0.479004 88.2985 0.707277 88.2985 1.89014V4.62942C88.2985 5.54251 87.9853 5.86417 87.0613 5.86417H79.2312C78.1872 5.86417 78.1245 5.92124 78.1245 6.93809V23.2233C78.1245 24.2609 77.8739 24.5047 76.8299 24.5099H73.2489C72.2571 24.5099 71.9909 24.2505 71.9909 23.244V7.0211C71.9909 5.90567 71.9387 5.85898 70.8373 5.85898H63.0854C62.0414 5.85898 61.7595 5.56845 61.7543 4.56716C61.7491 3.56588 61.7543 2.65278 61.7543 1.693C61.7543 0.733217 62.0779 0.479004 63.0071 0.479004H86.8995Z" fill="#270741"/>
<path d="M38.2948 18.5333C39.2696 18.861 40.2845 19.0564 41.312 19.1144C44.3396 19.1611 47.3673 19.1144 50.395 19.0262C51.0351 18.9837 51.6651 18.8456 52.2637 18.6163C53.3078 18.248 53.6627 17.7084 53.6627 16.6034V1.96278C53.6627 0.655397 53.8454 0.479004 55.187 0.479004H58.5644C59.5145 0.479004 59.8172 0.764345 59.8172 1.68781V17.3608C59.8172 20.925 57.5256 23.436 53.7306 24.0689C52.3528 24.3228 50.9557 24.4582 49.5545 24.4736C45.6812 24.4736 41.8079 24.3854 37.9346 24.209C35.9322 24.1521 34.032 23.3177 32.6414 21.8848C32.0883 21.3346 31.6521 20.6796 31.3589 19.9586C31.0656 19.2375 30.9213 18.4653 30.9344 17.6877V1.67225C30.9344 0.748781 31.1902 0.484192 32.1089 0.479004H35.8256C36.76 0.479004 37.068 0.764345 37.0785 1.70338V16.6916C37.0253 17.0925 37.1189 17.4991 37.3421 17.8372C37.5654 18.1752 37.9035 18.4223 38.2948 18.5333V18.5333Z" fill="#270741"/>
<path d="M28.9611 1.60499V21.7968C28.7471 24.1832 27.4891 25.0963 25.1243 24.5827C24.1566 24.3747 23.2583 23.9247 22.5143 23.2753C17.4717 18.8932 12.4256 14.5128 7.376 10.1341C7.27784 10.0373 7.1732 9.94712 7.0628 9.86431C6.83311 9.73461 6.59821 9.62567 6.3633 9.50634C6.26979 9.74668 6.20667 9.99762 6.17538 10.2534V23.1197C6.17538 24.2455 5.93004 24.4997 4.81815 24.4997C3.70627 24.4997 2.52131 24.4686 1.37811 24.4997C1.1208 24.532 0.859443 24.499 0.618449 24.4038C0.377454 24.3085 0.164681 24.1541 0 23.955V2.74116C0.323646 1.62055 0.809116 0.629641 2.08804 0.276855H3.26256C5.19922 0.536256 6.51991 1.83326 7.89801 3.01613C12.5404 7.0697 17.202 11.0991 21.8827 15.1042C22.104 15.2441 22.3404 15.3589 22.5874 15.4466C22.6978 15.1911 22.775 14.9226 22.8171 14.6477V1.83326C22.8171 0.707461 23.0572 0.474 24.1899 0.468812H27.844C28.6688 0.494752 28.9559 0.795657 28.9611 1.60499Z" fill="#270741"/>
</g>
<defs>
<clipPath id="clip0_4735_14699">
<rect width="201" height="24.4459" fill="white" transform="translate(0 0.276855)"/>
</clipPath>
</defs>
</svg>
