<svg width="258" height="48" viewBox="0 0 258 48" fill="none" xmlns="http://www.w3.org/2000/svg">
<g clip-path="url(#clip0_833_168)">
<path d="M109.263 8.96509C105.944 8.96509 102.496 9.86996 98.2284 12.1558L100.599 18.0195C104.305 15.9498 107.367 15.045 109.608 15.045C112.152 15.045 113.273 15.9935 113.273 17.2436V17.3289C113.273 18.1921 112.582 18.6663 110.902 18.839L107.972 19.1406C100.643 19.9165 97.6252 23.1072 97.6252 27.5044V27.8061C97.6252 31.9889 101.073 35.2651 105.944 35.2651C109.151 35.2651 111.938 33.9106 113.631 31.5204L114.178 34.8344H120.816V19.7875C120.816 12.6737 116.721 8.96509 109.263 8.96509ZM108.617 29.5304C106.158 29.5304 104.996 28.5819 104.996 27.1156V27.0302C104.996 25.7364 105.728 24.7879 108.4 24.401L109.565 24.2283C111.266 23.9912 112.311 23.6782 113.271 23.0958V25.0042C113.271 27.8933 111.462 29.5304 108.617 29.5304Z" fill="#270741"/>
<path d="M46.8455 9.13763L38.354 0.644775L29.8626 9.13763L34.0865 13.3641L12.7925 34.6617L21.2839 43.1546L29.7753 34.6617L25.5514 30.4371L46.8455 9.13763Z" fill="#270741"/>
<path d="M21.369 0.644936L0.0741577 21.9434L8.56635 30.437L29.8612 9.13855L21.369 0.644936Z" fill="#270741"/>
<path d="M51.0705 13.3654L29.7756 34.6638L38.2678 43.1574L59.5627 21.859L51.0705 13.3654Z" fill="#270741"/>
<path d="M132.67 0.343262H125.127V34.8345H132.67V0.343262Z" fill="#270741"/>
<path d="M84.9517 8.96522C81.5225 8.96522 78.7685 10.4828 77.2531 12.8598L76.6765 9.39584H70.0381V43.4545H77.5812V31.6495C79.017 33.8633 81.733 35.2633 84.9517 35.2633C90.9869 35.2633 95.9012 29.9176 95.9012 22.5439V21.6808C95.9012 14.3091 90.9869 8.96143 84.9517 8.96143M88.1419 22.3315C88.1419 26.2108 86.1162 29.0146 82.7534 29.0146C79.3906 29.0146 77.365 26.2127 77.365 22.3315V21.9008C77.365 18.0196 79.3906 15.2177 82.7534 15.2177C86.1162 15.2177 88.1419 18.0196 88.1419 21.9008V22.3315Z" fill="#270741"/>
<path d="M234.444 8.96509C226.728 8.96509 221.296 14.3108 221.296 21.6845V22.5476C221.296 29.9193 226.728 35.267 234.444 35.267C242.16 35.267 247.592 29.9212 247.592 22.5476V21.6845C247.592 14.3127 242.16 8.96509 234.444 8.96509ZM239.833 22.3313C239.833 26.2107 237.807 29.0145 234.444 29.0145C231.081 29.0145 229.056 26.2126 229.056 22.3313V21.9007C229.056 18.0195 231.081 15.2176 234.444 15.2176C237.807 15.2176 239.833 18.0195 239.833 21.9007V22.3313Z" fill="#270741"/>
<path d="M254.704 10.5188V10.3898C254.704 9.65753 254.145 9.13965 253.153 9.13965H251.429V13.1063H252.248V11.7689H253.159L253.843 13.1063H254.748L253.906 11.5375C254.42 11.3819 254.704 10.9987 254.704 10.5207M252.246 9.87189H253.151C253.669 9.87189 253.883 10.0445 253.883 10.4334V10.477C253.883 10.8223 253.667 11.0366 253.151 11.0366H252.246V9.87189Z" fill="#270741"/>
<path d="M252.98 7.02637C250.653 7.02637 248.885 8.79437 248.885 11.122C248.885 13.4496 250.653 15.2176 252.98 15.2176C255.308 15.2176 257.075 13.4496 257.075 11.122C257.075 8.79437 255.308 7.02637 252.98 7.02637ZM252.98 14.6561C250.955 14.6561 249.489 13.1897 249.489 11.1201C249.489 9.05046 250.955 7.58408 252.98 7.58408C255.006 7.58408 256.472 9.05046 256.472 11.1201C256.472 13.1897 255.006 14.6561 252.98 14.6561Z" fill="#270741"/>
<path d="M199.096 0.343262H191.553V34.8345H199.096V0.343262Z" fill="#270741"/>
<path d="M213.969 29.0145C211.771 29.0145 210.952 27.937 210.952 25.6094V15.2196H219.832V9.39958H210.952V3.57959L203.409 4.70072V26.3436C203.409 32.2508 206.426 35.2689 212.462 35.2689C215.134 35.2689 218.281 34.4494 220.868 32.983L218.713 27.6373C217.205 28.4568 215.092 29.0164 213.971 29.0164" fill="#270741"/>
<path d="M175.691 8.96509C172.372 8.96509 168.923 9.86996 164.656 12.1558L167.027 18.0195C170.733 15.9498 173.794 15.045 176.036 15.045C178.579 15.045 179.7 15.9935 179.7 17.2436V17.3289C179.7 18.1921 179.01 18.6663 177.329 18.839L174.399 19.1406C167.07 19.9165 164.053 23.1072 164.053 27.5044V27.8061C164.053 31.9889 167.501 35.2651 172.372 35.2651C175.579 35.2651 178.365 33.9106 180.059 31.5204L180.605 34.8344H187.243V19.7875C187.243 12.6737 183.148 8.96509 175.691 8.96509ZM175.044 29.5304C172.586 29.5304 171.423 28.5819 171.423 27.1156V27.0302C171.423 25.7364 172.155 24.7879 174.828 24.401L175.992 24.2283C177.694 23.9912 178.739 23.6782 179.698 23.0958V25.0042C179.698 27.8933 177.889 29.5304 175.044 29.5304Z" fill="#270741"/>
<path d="M149.181 8.96509C141.465 8.96509 136.033 14.3108 136.033 21.6845V22.5476C136.033 29.9193 141.465 35.267 149.181 35.267C156.896 35.267 162.329 29.9212 162.329 22.5476V21.6845C162.329 14.3127 156.896 8.96509 149.181 8.96509ZM154.567 22.3313C154.567 26.2107 152.542 29.0145 149.179 29.0145C145.816 29.0145 143.79 26.2126 143.79 22.3313V21.9007C143.79 18.0195 145.816 15.2176 149.179 15.2176C152.542 15.2176 154.567 18.0195 154.567 21.9007V22.3313Z" fill="#270741"/>
<path d="M180.057 40.9504H181.99L184.658 44.4694H184.685V40.9504H186.458V47.1555H184.588L181.857 43.5474H181.83V47.1555H180.057V40.9504Z" fill="#270741"/>
<path d="M188.816 40.9504H194.24L194.312 42.4567H190.669V43.3084H193.531V44.6818H190.669V45.6493H194.418L194.346 47.1555H188.816V40.9504Z" fill="#270741"/>
<path d="M198.195 42.5458H196.023L196.093 40.9504H202.165L202.237 42.5458H200.065V47.1555H198.195V42.5458Z" fill="#270741"/>
<path d="M203.735 40.9504H205.719L206.73 45.2585H206.828L208.139 40.9504H209.958L211.242 45.2585H211.341L212.333 40.9504H214.229L212.598 47.1555H210.161L209.027 43.4146H208.974L207.82 47.1555H205.374L203.735 40.9504Z" fill="#270741"/>
<path d="M215.595 44.0538C215.595 42.0316 216.968 40.7644 219.14 40.7644C221.312 40.7644 222.687 42.0316 222.687 44.0538C222.687 46.076 221.313 47.3432 219.14 47.3432C216.966 47.3432 215.595 46.076 215.595 44.0538ZM220.834 44.0538C220.834 42.982 220.213 42.3427 219.14 42.3427C218.066 42.3427 217.446 42.982 217.446 44.0538C217.446 45.1256 218.066 45.7649 219.13 45.7649C220.194 45.7649 220.832 45.1256 220.832 44.0538" fill="#270741"/>
<path d="M224.699 40.9504H228.316C229.964 40.9504 230.772 41.7301 230.772 43.1756C230.772 44.1677 230.364 44.8431 229.566 45.1618L231.038 47.1574H228.929L227.785 45.526H226.562V47.1574H224.699V40.9504ZM228.075 44.071C228.695 44.071 228.917 43.7257 228.917 43.2553C228.917 42.7848 228.695 42.4491 228.075 42.4491H226.56V44.071H228.075Z" fill="#270741"/>
<path d="M233.19 40.9504H235.051V43.2382H235.814L237.631 40.9504H239.723L239.732 40.958L237.357 43.9287L239.865 47.1479L239.855 47.1555H237.684L235.806 44.771H235.051V47.1555H233.19V40.9504Z" fill="#270741"/>
<path d="M241.291 46.7475V45.0459H241.301C242.338 45.5695 243.349 45.8256 244.225 45.8256C244.891 45.8256 245.227 45.6662 245.227 45.3551C245.227 45.044 245.005 44.9643 243.675 44.7519C242.222 44.5223 241.255 44.086 241.255 42.8359C241.255 41.6749 242.276 40.7795 244.269 40.7795C245.067 40.7795 245.9 40.9484 246.672 41.2766V42.9611L246.663 42.9706C245.927 42.5456 244.935 42.2782 244.136 42.2782C243.427 42.2782 243.144 42.447 243.144 42.7297C243.144 43.0939 243.579 43.128 244.669 43.3158C246.122 43.5643 247.089 43.9722 247.089 45.2849C247.089 46.3036 246.327 47.3242 244.138 47.3242C243.057 47.3242 242.198 47.1022 241.293 46.7475" fill="#270741"/>
</g>
<defs>
<clipPath id="clip0_833_168">
<rect width="257.001" height="47" fill="white" transform="translate(0.0741577 0.343262)"/>
</clipPath>
</defs>
</svg>
