<svg width="166" height="48" viewBox="0 0 166 48" fill="none" xmlns="http://www.w3.org/2000/svg">
<path d="M68.9565 15.5033C66.8447 15.5033 64.6509 16.0809 61.9357 17.54L63.4442 21.2827C65.8021 19.9617 67.7498 19.3841 69.1762 19.3841C70.7944 19.3841 71.5076 19.9895 71.5076 20.7875V20.8419C71.5076 21.3929 71.0683 21.6956 69.9992 21.8058L68.1347 21.9983C63.4719 22.4935 61.552 24.5302 61.552 27.3369V27.5295C61.552 30.1994 63.7458 32.2905 66.8447 32.2905C68.8853 32.2905 70.658 31.426 71.7357 29.9003L72.0832 32.0157H76.3068V22.4112C76.3068 17.8705 73.7014 15.5033 68.9565 15.5033ZM68.545 28.6301C66.9811 28.6301 66.2414 28.0247 66.2414 27.0887V27.0342C66.2414 26.2084 66.7072 25.603 68.4075 25.356L69.1484 25.2458C70.2309 25.0944 70.8958 24.8947 71.5064 24.5229V25.741C71.5064 27.5852 70.3551 28.6301 68.545 28.6301Z" fill="#270741"/>
<path d="M83.8489 10H79.0497V32.0157H83.8489V10Z" fill="#270741"/>
<path d="M53.4886 15.5033C51.3068 15.5033 49.5546 16.472 48.5904 17.9892L48.2236 15.7782H44V37.5178H48.7992V29.9826C49.7127 31.3957 51.4407 32.2893 53.4886 32.2893C57.3284 32.2893 60.4551 28.8771 60.4551 24.1706V23.6196C60.4551 18.9143 57.3284 15.5009 53.4886 15.5009M55.5183 24.035C55.5183 26.5111 54.2295 28.3008 52.09 28.3008C49.9504 28.3008 48.6616 26.5124 48.6616 24.035V23.7601C48.6616 21.2827 49.9504 19.4943 52.09 19.4943C54.2295 19.4943 55.5183 21.2827 55.5183 23.7601V24.035Z" fill="#270741"/>
<path d="M148.601 15.5033C143.692 15.5033 140.236 18.9155 140.236 23.6221V24.173C140.236 28.8784 143.692 32.2917 148.601 32.2917C153.51 32.2917 156.966 28.8796 156.966 24.173V23.6221C156.966 18.9167 153.51 15.5033 148.601 15.5033ZM152.03 24.035C152.03 26.5111 150.741 28.3008 148.601 28.3008C146.462 28.3008 145.173 26.5124 145.173 24.035V23.7601C145.173 21.2827 146.462 19.4943 148.601 19.4943C150.741 19.4943 152.03 21.2827 152.03 23.7601V24.035Z" fill="#270741"/>
<path d="M161.492 16.495V16.4127C161.492 15.9453 161.136 15.6147 160.504 15.6147H159.408V18.1466H159.929V17.2929H160.508L160.944 18.1466H161.519L160.984 17.1452C161.311 17.0459 161.492 16.8013 161.492 16.4962M159.928 16.0821H160.503C160.833 16.0821 160.969 16.1923 160.969 16.4405V16.4684C160.969 16.6887 160.831 16.8256 160.503 16.8256H159.928V16.0821Z" fill="#270741"/>
<path d="M160.395 14.2658C158.914 14.2658 157.789 15.3943 157.789 16.88C157.789 18.3658 158.914 19.4943 160.395 19.4943C161.875 19.4943 163 18.3658 163 16.88C163 15.3943 161.875 14.2658 160.395 14.2658ZM160.395 19.1359C159.106 19.1359 158.173 18.1999 158.173 16.8788C158.173 15.5578 159.106 14.6218 160.395 14.6218C161.683 14.6218 162.616 15.5578 162.616 16.8788C162.616 18.1999 161.683 19.1359 160.395 19.1359Z" fill="#270741"/>
<path d="M126.111 10H121.312V32.0157H126.111V10Z" fill="#270741"/>
<path d="M135.574 28.3008C134.176 28.3008 133.655 27.613 133.655 26.1273V19.4955H139.304V15.7806H133.655V12.0657L128.855 12.7813V26.5959C128.855 30.3665 130.775 32.2929 134.615 32.2929C136.315 32.2929 138.317 31.7699 139.963 30.8339L138.593 27.4217C137.633 27.9448 136.289 28.302 135.576 28.302" fill="#270741"/>
<path d="M111.22 15.5033C109.108 15.5033 106.914 16.0809 104.199 17.54L105.708 21.2827C108.066 19.9617 110.013 19.3841 111.44 19.3841C113.058 19.3841 113.771 19.9895 113.771 20.7875V20.8419C113.771 21.3929 113.332 21.6956 112.263 21.8058L110.398 21.9983C105.735 22.4935 103.816 24.5302 103.816 27.3369V27.5295C103.816 30.1994 106.009 32.2905 109.108 32.2905C111.149 32.2905 112.922 31.426 113.999 29.9003L114.347 32.0157H118.57V22.4112C118.57 17.8705 115.965 15.5033 111.22 15.5033ZM110.809 28.6301C109.245 28.6301 108.505 28.0247 108.505 27.0887V27.0342C108.505 26.2084 108.971 25.603 110.671 25.356L111.412 25.2458C112.494 25.0944 113.159 24.8947 113.77 24.5229V25.741C113.77 27.5852 112.619 28.6301 110.809 28.6301Z" fill="#270741"/>
<path d="M94.3535 15.5033C89.4445 15.5033 85.9884 18.9155 85.9884 23.6221V24.173C85.9884 28.8784 89.4445 32.2917 94.3535 32.2917C99.2625 32.2917 102.719 28.8796 102.719 24.173V23.6221C102.719 18.9167 99.2625 15.5033 94.3535 15.5033ZM97.7807 24.035C97.7807 26.5111 96.4919 28.3008 94.3523 28.3008C92.2128 28.3008 90.924 26.5124 90.924 24.035V23.7601C90.924 21.2827 92.2128 19.4943 94.3523 19.4943C96.4919 19.4943 97.7807 21.2827 97.7807 23.7601V24.035Z" fill="#270741"/>
<path d="M113.998 35.9194H115.228L116.926 38.1656H116.942V35.9194H118.071V39.8801H116.881L115.143 37.5771H115.126V39.8801H113.998V35.9194Z" fill="#270741"/>
<path d="M119.571 35.9194H123.022L123.068 36.8809H120.75V37.4245H122.571V38.3012H120.75V38.9187H123.135L123.09 39.8801H119.571V35.9194Z" fill="#270741"/>
<path d="M125.538 36.9378H124.156L124.201 35.9194H128.064L128.11 36.9378H126.728V39.8801H125.538V36.9378Z" fill="#270741"/>
<path d="M129.063 35.9194H130.325L130.968 38.6693H131.031L131.865 35.9194H133.022L133.839 38.6693H133.902L134.533 35.9194H135.74L134.702 39.8801H133.151L132.43 37.4923H132.396L131.662 39.8801H130.106L129.063 35.9194Z" fill="#270741"/>
<path d="M136.609 37.9004C136.609 36.6096 137.482 35.8008 138.864 35.8008C140.246 35.8008 141.121 36.6096 141.121 37.9004C141.121 39.1912 140.247 40 138.864 40C137.481 40 136.609 39.1912 136.609 37.9004ZM139.942 37.9004C139.942 37.2163 139.547 36.8082 138.864 36.8082C138.181 36.8082 137.786 37.2163 137.786 37.9004C137.786 38.5845 138.181 38.9926 138.858 38.9926C139.535 38.9926 139.94 38.5845 139.94 37.9004" fill="#270741"/>
<path d="M142.401 35.9194H144.702C145.751 35.9194 146.265 36.4171 146.265 37.3398C146.265 37.973 146.006 38.4041 145.497 38.6075L146.434 39.8813H145.092L144.364 38.84H143.586V39.8813H142.401V35.9194ZM144.549 37.9113C144.944 37.9113 145.085 37.6909 145.085 37.3906C145.085 37.0903 144.944 36.876 144.549 36.876H143.585V37.9113H144.549Z" fill="#270741"/>
<path d="M147.804 35.9194H148.987V37.3797H149.472L150.629 35.9194H151.96L151.966 35.9243L150.455 37.8205L152.05 39.8753L152.044 39.8801H150.662L149.468 38.3581H148.987V39.8801H147.804V35.9194Z" fill="#270741"/>
<path d="M152.958 39.6198V38.5337H152.964C153.624 38.8679 154.267 39.0313 154.824 39.0313C155.248 39.0313 155.462 38.9296 155.462 38.731C155.462 38.5324 155.32 38.4816 154.474 38.346C153.55 38.1995 152.935 37.921 152.935 37.123C152.935 36.382 153.584 35.8105 154.852 35.8105C155.36 35.8105 155.89 35.9182 156.381 36.1277V37.2029L156.375 37.209C155.907 36.9378 155.276 36.767 154.768 36.767C154.316 36.767 154.136 36.8748 154.136 37.0552C154.136 37.2877 154.413 37.3095 155.107 37.4294C156.031 37.588 156.647 37.8483 156.647 38.6862C156.647 39.3365 156.161 39.9879 154.769 39.9879C154.081 39.9879 153.534 39.8462 152.959 39.6198" fill="#270741"/>
<path d="M29.8765 15.5936L24.4524 10L19.0282 15.5936L21.7264 18.3774L8.12421 32.4046L13.5484 37.9982L18.9725 32.4046L16.2744 29.6221L29.8765 15.5936Z" fill="#270741"/>
<path d="M13.6027 10L0 24.0278L5.42463 29.6219L19.0273 15.5942L13.6027 10Z" fill="#270741"/>
<path d="M32.5754 18.3781L18.9727 32.4059L24.3973 38L38 23.9722L32.5754 18.3781Z" fill="#270741"/>
</svg>
