<svg width="136" height="48" viewBox="0 0 136 48" fill="none" xmlns="http://www.w3.org/2000/svg">
<path d="M0 9V26.0916L8.19551 38H17.6879L12.715 26.0916H23.9185V9H0Z" fill="#270741"/>
<path d="M44.1392 27.2626H40.499V33.7616H35.8777V13.2545H44.1392C48.2954 13.2545 51.4044 16.3161 51.4044 20.2731C51.4044 24.2301 48.2945 27.2626 44.1392 27.2626ZM43.9358 17.5867H40.499V22.9591H43.9358C45.5922 22.9591 46.7839 21.7748 46.7839 20.2731C46.7839 18.7419 45.5922 17.5867 43.9358 17.5867Z" fill="#270741"/>
<path d="M52.2762 26.5406C52.2762 22.2948 55.736 19.0004 59.921 19.0004C64.106 19.0004 67.5649 22.2931 67.5649 26.5389C67.5649 30.7848 64.106 34.0774 59.921 34.0774C55.736 34.0774 52.2762 30.7852 52.2762 26.5406ZM63.1457 26.5406C63.1457 24.4899 61.7507 23.0745 59.9197 23.0745C58.0888 23.0745 56.6938 24.4899 56.6938 26.5406C56.6938 28.5913 58.0888 30.0067 59.9197 30.0067C61.7507 30.0067 63.1457 28.5913 63.1457 26.5406Z" fill="#270741"/>
<path d="M69.3954 26.5406C69.3954 22.4392 72.3303 19.0021 76.1379 19.0021C78.0849 19.0021 79.6732 19.9843 80.2544 20.764V12.73H84.6428V33.7612H80.2557V31.8964C79.6269 32.996 78.0845 34.0791 76.1391 34.0791C72.3316 34.0791 69.3967 30.642 69.3967 26.5406M80.4402 26.5406C80.4402 24.4612 79.1041 22.9591 77.127 22.9591C75.15 22.9591 73.8143 24.4612 73.8143 26.5406C73.8143 28.6199 75.1504 30.1221 77.127 30.1221C79.1037 30.1221 80.4402 28.6203 80.4402 26.5406Z" fill="#270741"/>
<path d="M92.637 19.3199H88.2487V33.7616H92.637V19.3199Z" fill="#270741"/>
<path d="M96.0667 27.5518V19.3199H100.455V26.8016C100.455 28.91 101.066 30.1212 102.693 30.1212C104.35 30.1212 105.425 28.9951 105.425 26.3377V19.3199H109.813V33.7604H105.425V31.8678C104.78 33.172 103.449 34.0791 101.559 34.0791C97.9557 34.0791 96.0667 31.4798 96.0667 27.5518Z" fill="#270741"/>
<path d="M113.418 19.3199H117.806V21.2138C118.368 20.0789 119.811 19.0021 121.527 19.0021C123.619 19.0021 125.591 20.064 126.226 22.0018C126.861 20.1378 128.456 19.0021 130.478 19.0021C134.024 19.0021 136 21.5151 136 25.5298V33.7616H131.612V26.2808C131.612 24.172 131.001 22.9591 129.519 22.9591C127.979 22.9591 126.903 24.1143 126.903 26.7431V33.7616H122.515V26.2808C122.515 24.172 121.904 22.9591 120.422 22.9591C118.882 22.9591 117.806 24.1143 117.806 26.7431V33.7616H113.418V19.3199Z" fill="#270741"/>
<path d="M92.6375 12.73H88.219V16.6999H92.6375V12.73Z" fill="#270741"/>
</svg>
