<svg width="164" height="35" viewBox="0 0 164 35" fill="none" xmlns="http://www.w3.org/2000/svg">
<g clip-path="url(#clip0_4735_14695)">
<path d="M0 0V20.6278L9.88282 35H21.3295L15.3328 20.6278H28.8428V0H0Z" fill="#270741"/>
<path d="M53.227 22.0411H48.8375V29.8847H43.2646V5.13477H53.227C58.2389 5.13477 61.988 8.82973 61.988 13.6054C61.988 18.3811 58.2379 22.0411 53.227 22.0411ZM52.9818 10.3632H48.8375V16.8472H52.9818C54.9792 16.8472 56.4162 15.4179 56.4162 13.6054C56.4162 11.7575 54.9792 10.3632 52.9818 10.3632Z" fill="#270741"/>
<path d="M63.0391 21.1695C63.0391 16.0453 67.2111 12.0693 72.2578 12.0693C77.3044 12.0693 81.4754 16.0433 81.4754 21.1675C81.4754 26.2918 77.3044 30.2657 72.2578 30.2657C67.2111 30.2657 63.0391 26.2923 63.0391 21.1695ZM76.1463 21.1695C76.1463 18.6945 74.4641 16.9863 72.2562 16.9863C70.0484 16.9863 68.3662 18.6945 68.3662 21.1695C68.3662 23.6445 70.0484 25.3528 72.2562 25.3528C74.4641 25.3528 76.1463 23.6445 76.1463 21.1695Z" fill="#270741"/>
<path d="M83.6826 21.1699C83.6826 16.2199 87.2218 12.0717 91.8132 12.0717C94.1611 12.0717 96.0764 13.2571 96.7773 14.1981V4.50195H102.069V29.8844H96.7788V27.6338C96.0205 28.9609 94.1606 30.268 91.8147 30.268C87.2233 30.268 83.6841 26.1199 83.6841 21.1699M97.0014 21.1699C97.0014 18.6603 95.3901 16.8474 93.006 16.8474C90.6219 16.8474 89.0112 18.6603 89.0112 21.1699C89.0112 23.6794 90.6224 25.4923 93.006 25.4923C95.3896 25.4923 97.0014 23.6799 97.0014 21.1699Z" fill="#270741"/>
<path d="M111.71 12.4551H106.418V29.8847H111.71V12.4551Z" fill="#270741"/>
<path d="M115.845 22.3901V12.4551H121.137V21.4847C121.137 24.0293 121.873 25.4911 123.835 25.4911C125.833 25.4911 127.13 24.1319 127.13 20.9248V12.4551H132.422V29.8832H127.13V27.599C126.352 29.1731 124.747 30.2678 122.468 30.2678C118.123 30.2678 115.845 27.1308 115.845 22.3901Z" fill="#270741"/>
<path d="M136.769 12.4549H142.06V14.7406C142.738 13.3709 144.477 12.0713 146.547 12.0713C149.07 12.0713 151.447 13.3529 152.213 15.6916C152.979 13.442 154.903 12.0713 157.341 12.0713C161.617 12.0713 164 15.1042 164 19.9495V29.8845H158.708V20.856C158.708 18.3109 157.972 16.847 156.184 16.847C154.327 16.847 153.03 18.2412 153.03 21.4139V29.8845H147.738V20.856C147.738 18.3109 147.002 16.847 145.214 16.847C143.357 16.847 142.06 18.2412 142.06 21.4139V29.8845H136.769V12.4549Z" fill="#270741"/>
<path d="M111.71 4.50195H106.382V9.29319H111.71V4.50195Z" fill="#270741"/>
</g>
<defs>
<clipPath id="clip0_4735_14695">
<rect width="164" height="35" fill="white"/>
</clipPath>
</defs>
</svg>
