<svg width="124" height="41" viewBox="0 0 124 41" fill="none" xmlns="http://www.w3.org/2000/svg">
<g clip-path="url(#clip0_4735_14696)">
<path d="M40.9673 25.2046C40.207 25.2046 40.0381 24.6112 40.0381 23.6787V14.0154C40.0381 10.7094 38.1798 8.75977 35.0544 8.75977C31.3379 8.75977 29.6484 11.6418 29.6484 14.4391V14.5239H32.1825V14.4391C32.1825 13.5067 32.5204 12.5743 33.1116 11.8114C33.6185 11.3028 34.2943 11.0484 34.9699 11.0484C36.4904 11.0484 37.3351 12.2352 37.3351 14.1849V15.1173L34.3787 16.5583C30.9999 18.1689 28.8037 19.4404 28.8037 22.7463C28.8037 25.6284 30.6621 27.6628 33.365 27.6628C35.0544 27.578 36.5749 26.8151 37.5041 25.4589C37.8419 26.8151 39.0244 27.6628 40.3759 27.6628C40.8827 27.6628 41.3896 27.578 41.8964 27.3238H41.9808V24.9503L41.8119 25.0351C41.5585 25.1198 41.3051 25.2046 40.9673 25.2046ZM37.3351 17.4908V23.1702C36.6593 24.4417 35.3923 25.2046 33.9563 25.3741C32.6893 25.4589 31.5913 24.4417 31.5067 23.1702C31.5067 23.0854 31.5067 22.9158 31.5067 22.8311C31.5067 20.6271 33.4495 19.4404 35.1389 18.5928L37.3351 17.4908Z" fill="#270741"/>
<path d="M54.8201 3.33447H52.2016L52.1171 9.09863H49.752V11.5569H52.1171V23.4243C52.1171 26.052 53.3841 27.5779 55.6648 27.5779C56.5939 27.5779 57.5231 27.3235 58.3678 26.8149H58.4522V24.3567L58.2833 24.5262C57.7765 24.95 57.1007 25.2892 56.425 25.2892C55.2424 25.2892 54.989 24.2719 54.989 23.4243V11.5569H58.8746V9.09863H54.989V3.33447H54.8201Z" fill="#270741"/>
<path d="M23.2286 23.0004C22.215 24.5262 21.0324 25.2891 19.9344 25.2891C18.4983 25.2891 17.9071 23.8481 17.9071 22.4918V9.09863H15.2041V22.6614C15.2041 25.7977 16.64 27.6626 19.0897 27.6626C20.779 27.6626 22.2995 26.8149 23.2286 25.4587L23.313 27.3236H25.9316V9.09863H23.2286V23.0004Z" fill="#270741"/>
<path d="M9.29156 10.794C8.6158 9.52243 7.26431 8.75953 5.74387 8.84429C4.13897 8.84429 2.703 9.69196 1.77384 10.9635C0.59128 12.574 0 15.0323 0 18.1687C0 25.1196 2.78746 27.5778 5.40599 27.5778C6.84196 27.5778 8.10899 26.9844 8.95368 25.8824V40.2928H11.6567V9.09859H9.29156V10.794ZM9.03815 13.2522V23.1699C8.27793 24.5262 7.34877 25.2043 6.16622 25.2043C3.97003 25.2043 2.78746 22.8309 2.78746 18.1687C2.78746 13.676 4.0545 11.133 6.25068 11.133C7.51771 11.133 8.6158 12.0654 9.03815 13.2522Z" fill="#270741"/>
<path d="M46.8798 0.62207H44.1768V27.2389H46.8798V0.62207Z" fill="#270741"/>
<path d="M74.2479 9.09863H71.5449V27.2388H74.2479V9.09863Z" fill="#270741"/>
<path d="M74.3329 3.33447H71.6299V6.47086H74.3329V3.33447Z" fill="#270741"/>
<path d="M64.1112 11.218L63.9423 9.09883H61.4082V27.3238H64.1112V14.1849C65.2938 11.7267 66.8987 11.3875 68.4191 11.3875L69.0949 11.4723V8.75977H68.3347C66.3919 8.75977 65.3783 9.35314 64.1112 11.218Z" fill="#270741"/>
<path d="M96.3786 16.4735L96.2944 16.5582L96.3786 16.4735C94.69 15.6258 93.5071 14.8629 93.5071 13.3371C93.5071 12.1504 94.4363 11.1332 95.6185 11.1332C95.7037 11.1332 95.788 11.1332 95.8722 11.1332C96.5481 11.1332 97.2239 11.3874 97.6461 11.896C98.2377 12.5742 98.4904 13.5066 98.3219 14.4391V14.6086H100.856V14.5239C101.025 12.998 100.518 11.4723 99.5042 10.2855C98.5756 9.35307 97.2239 8.75969 95.9565 8.84446C93.0848 8.84446 90.9731 10.7941 90.9731 13.5914C90.9731 16.6431 93.4227 17.9146 95.1121 18.8469C96.8017 19.7794 98.4904 20.7119 98.4904 22.5767C98.5756 24.0177 97.3924 25.2893 95.9565 25.2893C95.8722 25.2893 95.8722 25.2893 95.788 25.2893C94.0984 25.2893 92.8314 23.8482 92.7469 21.729V21.6443H90.2129V21.729C90.2973 25.374 92.409 27.6628 95.788 27.6628C98.5756 27.8323 100.94 25.7131 101.11 23.0006C101.11 22.831 101.11 22.5767 101.11 22.4072C101.025 18.9318 98.5756 17.6602 96.3786 16.4735Z" fill="#270741"/>
<path d="M85.8204 21.5594C85.8204 22.6614 85.4825 23.6786 84.8068 24.5262C84.3844 24.9501 83.7932 25.2044 83.2019 25.2044C81.0902 25.2044 79.9921 22.7461 79.9921 18.1687C79.9921 13.5913 81.0902 11.0483 83.2019 11.0483C83.7932 11.0483 84.3 11.3026 84.7223 11.6417C85.3136 12.4046 85.6515 13.4218 85.6515 14.4389H88.1855C88.27 12.8284 87.7632 11.2178 86.6651 10.0311C85.7359 9.09864 84.5534 8.6748 83.2863 8.6748C79.4008 8.6748 77.2891 11.9807 77.2891 18.084C77.2891 24.1871 79.3163 27.4931 83.1174 27.4931C86.1583 27.4931 88.0166 25.2891 88.27 21.4747L85.8204 21.5594Z" fill="#270741"/>
<path d="M104.826 25.7981C104.91 25.7134 104.91 25.5438 104.91 25.459C104.91 25.2895 104.826 25.12 104.742 25.0353C104.572 24.9504 104.404 24.8657 104.235 24.8657H103.306V26.8154H103.812V26.0524H104.15L104.488 26.7305H104.995L104.572 25.9676C104.657 25.9676 104.742 25.8829 104.826 25.7981ZM104.404 25.6286C104.319 25.6286 104.235 25.7134 104.15 25.7134H103.812V25.2048H104.15C104.235 25.2048 104.319 25.2048 104.404 25.2895C104.488 25.3743 104.488 25.3743 104.488 25.459C104.488 25.5438 104.404 25.6286 104.404 25.6286Z" fill="#270741"/>
<path d="M105.671 25.1198C105.585 24.9503 105.501 24.6959 105.333 24.6112C105.163 24.4417 104.995 24.3569 104.825 24.2722C104.403 24.1026 103.897 24.1026 103.474 24.2722C103.305 24.3569 103.051 24.4417 102.967 24.6112C102.798 24.7808 102.714 24.9503 102.629 25.1198C102.461 25.5436 102.461 26.0523 102.629 26.5609C102.714 26.7304 102.798 26.9846 102.967 27.0695C103.136 27.239 103.305 27.3237 103.474 27.4085C103.897 27.578 104.403 27.578 104.825 27.4085C104.995 27.3237 105.247 27.239 105.333 27.0695C105.501 26.8999 105.585 26.7304 105.671 26.5609C105.839 26.0523 105.839 25.5436 105.671 25.1198ZM105.333 26.3913C105.247 26.5609 105.163 26.7304 105.079 26.8151C104.995 26.8999 104.825 27.0695 104.657 27.0695C104.319 27.239 103.897 27.239 103.559 27.0695C103.389 26.9846 103.221 26.8999 103.136 26.8151C103.051 26.6456 102.883 26.5609 102.883 26.3913C102.714 26.0523 102.714 25.6284 102.883 25.2893C102.967 25.1198 103.051 24.9503 103.136 24.8655C103.221 24.7808 103.389 24.6112 103.559 24.6112C103.897 24.4417 104.319 24.4417 104.657 24.6112C104.825 24.6959 104.995 24.7808 105.079 24.8655C105.163 25.035 105.333 25.1198 105.333 25.2893C105.501 25.6284 105.501 26.0523 105.333 26.3913Z" fill="#270741"/>
<path d="M120.672 3.22852L118.307 11.5357L115.773 3.22852H110.199L108.34 6.6192L106.313 3.22852H103.525L106.819 8.56883L103.188 14.5025H105.806L108.087 10.6032L110.451 14.5025H114.675V6.70394C114.759 7.04301 114.759 7.29732 114.844 7.55161C114.929 7.80591 114.929 7.97544 115.013 8.22974C115.097 8.39928 115.097 8.65358 115.182 8.82312C115.267 8.99265 115.267 9.1622 115.351 9.41649L117.04 14.5872H119.237L120.926 9.41649C121.01 8.99266 121.179 8.56881 121.264 8.22974C121.348 7.80591 121.433 7.38207 121.517 6.95824V14.6721H123.882V3.39801L120.672 3.22852ZM109.607 8.56883L112.563 3.65235V13.3157L109.607 8.56883Z" fill="#270741"/>
</g>
<defs>
<clipPath id="clip0_4735_14696">
<rect width="124" height="39.7557" fill="white" transform="translate(0 0.62207)"/>
</clipPath>
</defs>
</svg>
