<svg width="132" height="38" viewBox="0 0 132 38" fill="none" xmlns="http://www.w3.org/2000/svg">
<g id="Vector">
<path d="M18.5355 12.4777L15.4774 19.5701C15.0918 19.3824 14.1772 19.1705 13.3103 19.1705C12.4433 19.1705 11.5763 19.3817 10.7342 19.7813C9.07266 20.6034 7.84429 22.2475 7.84429 24.6194V37.6068H0.235352V12.3371H7.62771V15.8836H7.77187C9.50581 13.6287 12.1543 11.9617 15.5974 11.9617C16.8492 11.9617 18.0535 12.1965 18.5349 12.4784L18.5355 12.4777Z" fill="#270741"/>
<path d="M17.0631 25.0426C17.0631 17.7383 22.1918 11.9611 29.8732 11.9611C36.8324 11.9611 41.8163 16.9163 41.8163 23.8916C41.8163 25.1125 41.6956 26.2635 41.4314 27.3675H23.9982C24.7927 30.0213 27.1523 32.0879 30.6919 32.0879C32.6424 32.0879 35.4116 31.4064 36.9041 30.2796L39.2643 35.8221C37.0731 37.2785 33.7259 37.9828 30.7884 37.9828C22.5774 37.9828 17.0631 32.8157 17.0631 25.0426ZM23.8534 22.717H34.8095C34.8095 19.4759 32.5458 17.7619 29.7766 17.7619C26.6467 17.7619 24.5272 19.7349 23.8534 22.717Z" fill="#270741"/>
<path d="M107.112 0.982788C109.664 0.982788 111.759 3.02581 111.759 5.5155C111.759 8.00518 109.664 10.0482 107.112 10.0482C104.559 10.0482 102.464 8.00518 102.464 5.5155C102.464 3.02581 104.559 0.982788 107.112 0.982788ZM110.916 37.6074H103.307V12.3371H110.916V37.6074Z" fill="#270741"/>
<path d="M62.9313 1.43992L62.9071 14.7326H62.763C60.6683 12.7831 58.4047 11.9846 55.443 11.9846C48.1472 11.9846 43.3075 17.7148 43.3075 24.9719C43.3075 32.2291 47.8341 37.9828 55.2023 37.9828C58.2847 37.9828 61.198 36.9495 63.0761 34.6011H63.2927V37.6074H70.5402V1.43992H62.9313ZM63.2934 31.583H63.0419L61.3442 29.8617C60.2392 30.9375 58.7259 31.583 56.9604 31.583C53.233 31.583 50.6268 28.7081 50.6268 24.9778C50.6268 21.2475 53.233 18.3727 56.9604 18.3727C60.6878 18.3727 63.294 21.2475 63.294 24.9778L63.2934 31.583Z" fill="#270741"/>
<path d="M91.9925 1.43926L91.9683 14.732H91.8242C89.7295 12.7825 87.4659 11.984 84.5042 11.984C77.2084 11.984 72.3687 17.7141 72.3687 24.9713C72.3687 32.2285 76.8953 37.9821 84.2635 37.9821C87.3458 37.9821 90.2592 36.9489 92.1373 34.6004H92.3539V37.6068H99.6014V1.43926H91.9925ZM92.3183 31.5823H92.0669L90.3692 29.8611C89.2642 30.9369 87.7508 31.5823 85.9854 31.5823C82.258 31.5823 79.6518 28.7074 79.6518 24.9772C79.6518 21.2469 82.258 18.372 85.9854 18.372C89.7127 18.372 92.319 21.2469 92.319 24.9772L92.3183 31.5823Z" fill="#270741"/>
<path d="M125.673 12.3371H131.235V18.6545H125.673V37.6074H118.064V18.6545H112.525V12.3371H118.064V5.46776H125.673V12.3371Z" fill="#270741"/>
</g>
</svg>
