<svg width="120" height="43" viewBox="0 0 120 43" fill="none" xmlns="http://www.w3.org/2000/svg">
<g clip-path="url(#clip0_4735_14693)">
<path d="M105.476 15.4693C105.476 14.05 106.614 12.9146 108.037 12.9146C109.461 12.9146 110.599 14.05 110.599 15.4693C110.599 16.8886 109.461 18.0241 108.037 18.0241C106.614 18.0241 105.476 16.8886 105.476 15.4693Z" fill="#270741"/>
<path d="M70.8889 26.54H61.9219C62.3488 28.811 63.9145 30.5141 65.9071 30.5141C67.6152 30.5141 68.6116 29.6625 69.1809 29.0948C69.7502 28.669 70.4618 28.5271 71.1736 28.9529C71.8852 29.5206 72.0275 30.5141 71.4582 31.2238C70.1772 32.643 68.4692 33.4946 66.0496 33.4946C62.2065 33.4946 59.0752 29.9464 59.0752 25.6885C59.0752 21.4306 62.2065 17.8823 66.0496 17.8823C69.3232 17.8823 72.0275 20.437 72.8815 23.7014C72.8815 23.9853 73.0238 24.2692 73.0238 24.8369C72.8815 25.5466 72.1698 26.54 70.8889 26.54ZM61.9219 23.9853H69.7502C69.1809 22.1403 67.6152 20.7209 65.9071 20.7209C64.0569 20.7209 62.6335 21.9983 61.9219 23.9853Z" fill="#270741"/>
<path d="M58.9331 19.3014C58.9331 18.5917 58.3638 18.024 57.6521 17.8821C55.6595 17.5982 53.6668 18.3079 52.3858 19.8691V19.7272C52.3858 18.8756 51.6741 18.3079 50.9624 18.3079C50.1085 18.3079 49.5391 19.0175 49.5391 19.7272V31.7912C49.5391 32.5008 50.1085 33.2105 50.9624 33.3524C51.8164 33.3524 52.5281 32.7847 52.5281 31.9332V25.6882C52.5281 22.9916 54.6632 20.7206 57.5098 21.0045H57.7945C58.3638 20.7206 58.9331 20.0111 58.9331 19.3014Z" fill="#270741"/>
<path d="M109.603 20.863C109.462 20.0115 108.75 19.4438 108.037 19.5857C107.326 19.5857 106.757 20.1534 106.757 20.863V31.6497C106.899 32.5013 107.611 33.069 108.323 32.927C109.034 32.927 109.603 32.3594 109.603 31.6497C109.603 31.5078 109.603 20.863 109.603 20.863Z" fill="#270741"/>
<path d="M87.6845 31.5078C87.6845 32.3594 86.9728 32.927 86.2612 32.927C85.5495 32.927 84.9801 32.3594 84.8378 31.7916C83.8415 32.7851 82.5605 33.3528 80.9948 33.3528C77.1518 33.3528 74.0205 29.8046 74.0205 25.5467C74.0205 21.2888 77.1518 17.7405 80.9948 17.7405C82.5605 17.7405 83.6992 18.1663 84.8378 19.1599V12.6311C84.9801 11.7795 85.6918 11.2118 86.4035 11.3538C87.1152 11.3538 87.6845 11.9214 87.6845 12.6311V31.5078ZM84.9801 25.5467C84.9801 22.8501 83.1298 20.5791 80.8524 20.5791C78.5751 20.5791 76.8672 22.8501 76.8672 25.5467C76.8672 28.2434 78.7174 30.3723 80.9948 30.3723C83.1298 30.5142 84.9801 28.2434 84.9801 25.5467Z" fill="#270741"/>
<path d="M103.057 31.5078C103.057 32.3594 102.345 32.927 101.634 32.927C100.921 32.927 100.352 32.3594 100.21 31.7916C99.2139 32.7851 97.9326 33.3528 96.3669 33.3528C92.5239 33.3528 89.3926 29.8046 89.3926 25.5467C89.3926 21.2888 92.5239 17.7405 96.3669 17.7405C97.9326 17.7405 99.0713 18.1663 100.21 19.1599V12.6311C100.352 11.7795 101.064 11.2118 101.775 11.3538C102.487 11.3538 103.057 11.9214 103.057 12.6311V31.5078ZM100.352 25.5467C100.352 22.8501 98.5018 20.5791 96.2246 20.5791C93.9473 20.5791 92.0969 22.7081 92.0969 25.5467C92.0969 28.2434 93.9473 30.3723 96.2246 30.3723C98.6444 30.5142 100.352 28.2434 100.352 25.5467Z" fill="#270741"/>
<path d="M117.005 31.6494V20.7208H118.285C118.997 20.7208 119.567 20.1531 119.567 19.4434C119.567 18.7339 118.997 18.0242 118.285 18.0242C118.285 18.0242 118.285 18.0242 118.144 18.0242H116.862V15.8952C116.862 15.1856 116.293 14.4759 115.439 14.334C114.585 14.334 113.873 14.9017 113.873 15.7533V17.8822H112.592C111.881 17.8822 111.312 18.45 111.312 19.1596C111.312 19.8692 111.881 20.5789 112.592 20.5789H113.873V31.5075C113.873 32.3591 114.585 32.9268 115.296 32.9268C116.435 33.0687 117.005 32.3591 117.005 31.6494Z" fill="#270741"/>
<path fill-rule="evenodd" clip-rule="evenodd" d="M20.0756 0.850814C8.68894 1.13467 -0.278072 10.502 0.00659432 21.8564C0.291262 32.785 9.11595 41.5846 19.9333 42.0104C31.32 42.2943 40.8564 33.3527 41.141 21.9984V20.8629C40.8564 9.50853 31.4623 0.566955 20.0756 0.850814ZM32.6009 25.4047V24.5531C33.5973 24.1273 34.4513 23.1337 34.0243 21.8564C34.0243 21.0048 33.7397 20.2952 33.1704 19.7275C32.0316 18.592 30.0389 18.592 28.9003 19.7275C26.9076 18.3082 24.061 17.3146 20.9297 17.1727L22.353 10.7859L26.7653 11.7794C26.7653 12.631 27.1923 13.3407 27.904 13.6245C28.9003 14.1922 30.1813 13.6245 30.7507 12.631C31.32 11.6375 30.7507 10.3601 29.7543 9.79239C28.758 9.22467 27.4769 9.79239 26.9076 10.7859L21.926 9.65047C21.7836 9.65047 21.6413 9.65046 21.499 9.79239C21.499 9.79239 21.3567 9.93433 21.3567 10.0763L19.791 17.1727C16.9443 17.1727 14.0976 18.1662 11.678 19.7275C11.1087 19.1598 10.3969 18.8759 9.54295 18.8759C8.40428 18.734 7.26561 19.4436 6.83861 20.579C6.26927 22.1403 6.83861 23.8434 8.40428 24.5531V25.4047C8.40428 30.0883 13.813 33.7785 20.5026 33.7785C27.1923 33.7785 32.6009 30.0883 32.6009 25.4047ZM18.0829 23.9854C18.0829 25.1208 17.0866 26.1143 15.948 26.1143C14.667 26.1143 13.813 25.1208 13.813 23.9854C13.813 22.85 14.8093 21.8564 15.948 21.8564C17.0866 21.8564 18.0829 22.85 18.0829 23.9854ZM25.0573 28.811C25.1996 28.5272 25.4844 28.5272 25.769 28.811C25.8314 28.9354 25.8664 29.0599 25.8981 29.1724C25.9387 29.3165 25.9737 29.4409 26.0537 29.5206C24.488 30.9399 21.7836 31.0819 20.9297 31.0819C20.0756 31.0819 17.2289 30.9399 15.8057 29.5206C15.5209 29.3787 15.5209 29.0949 15.8057 28.811C15.948 28.5272 16.2327 28.5272 16.5173 28.811C17.3713 29.8045 19.364 30.0883 20.7873 30.0883C22.2106 30.0883 24.2033 29.8045 25.0573 28.811ZM25.3419 21.8564C26.4807 21.8564 27.4769 22.85 27.4769 23.9854C27.4769 25.1208 26.4807 26.1143 25.3419 26.1143C24.2033 26.1143 23.207 25.1208 23.207 23.9854C23.207 22.85 24.2033 21.8564 25.3419 21.8564Z" fill="#270741"/>
</g>
<defs>
<clipPath id="clip0_4735_14693">
<rect width="120" height="41.3115" fill="white" transform="translate(0 0.844238)"/>
</clipPath>
</defs>
</svg>
