<svg width="136" height="37" viewBox="0 0 136 37" fill="none" xmlns="http://www.w3.org/2000/svg">
<g clip-path="url(#clip0_4735_14698)">
<path d="M70.2167 7.55701C67.7459 5.94175 64.2776 5.3275 59.8347 5.3275H51.3114V33.7424H60.084C63.1669 33.7424 65.8871 33.3784 68.1312 32.4911C70.3527 31.6266 72.0982 30.1251 73.3222 28.0321C74.569 25.9163 75.181 23.1863 75.181 19.7283C75.181 16.748 74.8183 14.2683 74.0703 12.289C72.9369 10.1505 71.8261 8.53526 70.2167 7.55701ZM67.8819 24.4376C67.5192 25.8026 66.7711 26.9173 65.7737 27.6681C64.663 28.5326 62.9402 28.9193 60.6961 28.9193H57.6132V9.80927H60.22C62.6909 9.80927 64.663 10.1733 65.9097 11.1743C66.7711 11.925 67.5192 12.7895 67.8819 14.1545C68.2446 15.5195 68.4939 17.1348 68.4939 19.1141C68.4939 21.3208 68.3579 23.0726 67.8819 24.4376ZM78.9893 33.6059H85.427V21.5711H92.9755V16.8618H85.427V9.92302H96.9198V5.21375H78.9893C78.9893 5.191 78.9893 33.6059 78.9893 33.6059ZM101.136 33.6059H107.574V5.191H101.136V33.6059ZM136 5.191H129.449V21.5711L117.457 5.191H112.266V33.6059H118.817V16.8618L130.695 33.6059H136V5.191ZM26.8298 34.7206C26.3311 34.4704 25.7191 34.1064 24.223 31.6266L21.2534 26.7808L17.7852 21.0706L17.5358 20.5701C17.6492 20.5701 17.8985 20.4563 18.0345 20.4563C22.0015 19.0913 24.3363 15.4968 24.3363 10.287C24.3363 7.67076 23.3389 5.3275 21.3668 3.57575C21.1174 3.32549 20.7547 3.07524 20.5054 2.82499C17.7852 1.09599 14.2036 0.458984 9.51131 0.458984H0.489379C-0.00932075 0.458984 -0.122662 0.822985 0.126688 1.07324C0.376038 1.32349 0.625388 1.68749 0.625388 2.68849V31.2398C0.512047 32.3546 0.262697 32.7186 0.126688 32.9689C-0.122662 33.2191 0.0133471 33.5831 0.625388 33.5831H7.17649V21.5483H10.146L12.2542 25.1428L14.861 29.6018L16.1078 31.8314C17.5812 34.3111 18.9413 35.9264 21.2988 36.2904C21.5481 36.2904 22.7722 36.5406 23.2709 36.5406H23.7696C24.767 36.5406 25.7417 36.1766 26.3764 35.9264C26.3764 35.9264 26.4898 35.8126 26.6258 35.8126C27.4418 35.3576 27.1925 34.8571 26.8298 34.7206ZM11.3701 16.8618H7.15382V5.191H11.3474C13.4556 5.191 15.065 5.44125 16.1758 6.556C16.6745 6.92001 16.9238 7.42051 17.1732 8.03476C17.4225 8.78551 17.6719 9.65002 17.6719 10.7648C17.6719 12.2663 17.5585 16.8618 11.3701 16.8618ZM35.2397 21.5711H42.7882V16.8618H35.2397V9.92302H46.7325V5.21375H28.8019V33.6286H46.7325V28.9193H35.2397V21.5711Z" fill="#270741"/>
</g>
<defs>
<clipPath id="clip0_4735_14698">
<rect width="136" height="36.0816" fill="white" transform="translate(0 0.458984)"/>
</clipPath>
</defs>
</svg>
