<svg width="125" height="35" viewBox="0 0 125 35" fill="none" xmlns="http://www.w3.org/2000/svg">
<g clip-path="url(#clip0_111_1761)">
<path d="M19.0803 24.9978C19.4665 26.0419 20.0506 27.0021 20.8008 27.826C21.5355 28.5995 22.4291 29.2057 23.4203 29.6033C24.4569 30.0309 25.5691 30.2464 26.6908 30.2369C27.8038 30.2442 28.9065 30.0232 29.9303 29.5878C30.9233 29.164 31.8198 28.5436 32.5653 27.7642C33.3298 26.963 33.9254 26.0171 34.3168 24.9824C34.7386 23.8182 34.9485 22.5883 34.9368 21.3506V0.71875H39.9588V34.1469H34.9213V31.056C33.8102 32.2296 32.4634 33.1564 30.9688 33.776C29.4105 34.4142 27.7398 34.7347 26.0553 34.7188C24.3423 34.7321 22.6427 34.4174 21.0488 33.7915C19.5398 33.1935 18.1724 32.2882 17.0343 31.1333C15.8985 29.9392 15.0132 28.5311 14.4303 26.9915C13.746 25.2819 13.4088 23.4538 13.4383 21.6133V0.71875H18.4758V21.3506C18.4528 22.5929 18.6577 23.8289 19.0803 24.9978Z" fill="#270741"/>
<path d="M48.5303 0.71875V12.8969C49.6547 11.7829 50.973 10.8822 52.4208 10.2388C53.9299 9.57898 55.5626 9.24708 57.2103 9.26511C58.8935 9.25901 60.5613 9.5843 62.1182 10.2223C63.675 10.8603 65.0902 11.7985 66.2825 12.9831C67.4749 14.1676 68.4209 15.5752 69.0665 17.1252C69.712 18.6751 70.0443 20.3369 70.0443 22.0151C70.0531 23.7151 69.7101 25.3987 69.0368 26.9606C67.7429 30.0132 65.2998 32.438 62.2323 33.7142C60.6442 34.3858 58.9354 34.7276 57.2103 34.7188C55.5529 34.7337 53.9107 34.402 52.3898 33.7451C50.9517 33.1008 49.6437 32.2 48.5303 31.0869V34.1778H43.7253V0.71875H48.5303ZM49.0883 25.3069C49.5033 26.3085 50.1145 27.2175 50.8863 27.9806C51.6543 28.7547 52.5647 29.3738 53.5678 29.8042C54.6095 30.2537 55.7343 30.4801 56.8693 30.4688C57.989 30.4769 59.0979 30.2505 60.1243 29.8042C61.1228 29.3738 62.0282 28.7545 62.7903 27.9806C63.5473 27.2055 64.1566 26.2995 64.5883 25.3069C65.0319 24.266 65.2586 23.1461 65.2548 22.0151C65.2569 20.8743 65.0303 19.7446 64.5883 18.6924C64.1604 17.6931 63.5508 16.7814 62.7903 16.0033C62.04 15.2373 61.1443 14.6279 60.1553 14.2106C59.1239 13.7821 58.0176 13.5615 56.9003 13.5615C55.783 13.5615 54.6767 13.7821 53.6453 14.2106C52.6408 14.6243 51.7291 15.2338 50.9638 16.0033C50.1836 16.7718 49.5622 17.6854 49.1348 18.6924C48.7141 19.749 48.5086 20.8785 48.5303 22.0151C48.5019 23.1408 48.7023 24.2605 49.1193 25.3069H49.0883Z" fill="#270741"/>
<path d="M72.8033 17.1006C73.4218 15.6086 74.3156 14.2457 75.4383 13.0824C76.5632 11.9101 77.9125 10.9747 79.4063 10.3315C80.9712 9.68402 82.6488 9.35074 84.3431 9.35074C86.0373 9.35074 87.7149 9.68402 89.2798 10.3315C90.74 10.9374 92.0591 11.837 93.1548 12.9742C94.2569 14.1355 95.1204 15.5005 95.6968 16.9924C96.2967 18.5826 96.5962 20.2698 96.5803 21.9688V23.5142H76.7248C76.9501 24.9416 77.5487 26.2845 78.4603 27.4078C79.3719 28.531 80.5643 29.3949 81.9173 29.9124C82.8418 30.2674 83.8251 30.4457 84.8158 30.4378C86.2042 30.4792 87.5811 30.1761 88.8229 29.5556C90.0647 28.9352 91.1325 28.0169 91.9303 26.8833L95.4178 29.4642C94.2072 31.1282 92.6106 32.4753 90.7643 33.3903C88.9181 34.3054 86.8771 34.7612 84.8158 34.7188C83.07 34.7296 81.3384 34.4042 79.7163 33.7606C78.1795 33.1415 76.7811 32.2243 75.6025 31.0624C74.4238 29.9004 73.4881 28.5167 72.8498 26.9915C71.5382 23.8188 71.5382 20.2578 72.8498 17.0851L72.8033 17.1006ZM79.5303 15.2151C78.1476 16.3764 77.1931 17.9645 76.8178 19.7278H91.7133C91.3742 17.9653 90.4386 16.3723 89.0628 15.2151C87.7188 14.1164 86.0345 13.516 84.2966 13.516C82.5586 13.516 80.8743 14.1164 79.5303 15.2151Z" fill="#270741"/>
<path d="M105.648 15.756C104.572 17.0199 104.018 18.644 104.098 20.2997V34.2087H99.2928V9.79057H104.082V12.8815C104.652 11.8888 105.462 11.0545 106.438 10.4551C107.498 9.86544 108.697 9.57178 109.91 9.60511H111.6V14.0869H109.585C108.847 14.0653 108.112 14.2032 107.433 14.4914C106.753 14.7795 106.144 15.2109 105.648 15.756Z" fill="#270741"/>
</g>
<defs>
<clipPath id="clip0_111_1761">
<rect width="124.163" height="34.0027" fill="white" transform="translate(0.436523 0.71875)"/>
</clipPath>
</defs>
</svg>
