<svg width="40" height="40" viewBox="0 0 40 40" fill="none" xmlns="http://www.w3.org/2000/svg">
<rect width="40" height="40" rx="5" fill="#EEDFFF"/>
<path fill-rule="evenodd" clip-rule="evenodd" d="M19.153 12.4065C20.0464 12.4065 20.7706 13.1274 20.7706 14.0167V17.4644C20.7706 18.3537 20.0464 19.0747 19.153 19.0747C18.2597 19.0747 17.5354 18.3537 17.5354 17.4644V14.0167C17.5354 13.1274 18.2597 12.4065 19.153 12.4065Z" fill="#6112A3"/>
<path fill-rule="evenodd" clip-rule="evenodd" d="M7.95749 16.387C7.95749 15.4977 8.68171 14.7768 9.57507 14.7768H12.9805C13.8739 14.7768 14.5981 15.4977 14.5981 16.387C14.5981 17.2763 13.8739 17.9972 12.9805 17.9972H9.57507C8.68171 17.9972 7.95749 17.2763 7.95749 16.387Z" fill="#6112A3"/>
<path fill-rule="evenodd" clip-rule="evenodd" d="M9.91247 21.7785C9.38035 21.071 8.37345 20.9223 7.65763 21.4478C6.93863 21.9756 6.78559 22.9837 7.31581 23.6994L7.31767 23.7019L7.31975 23.7047L7.32455 23.7111C7.32805 23.7158 7.33212 23.7211 7.33678 23.7272C7.3461 23.7394 7.35775 23.7545 7.37174 23.7722C7.39971 23.8077 7.43707 23.8539 7.48382 23.9092C7.57722 24.0199 7.7087 24.1679 7.87825 24.3406C8.21643 24.685 8.71195 25.1335 9.36527 25.5798C10.6768 26.4757 12.6395 27.3707 15.2157 27.3707C17.7919 27.3707 19.7546 26.4757 21.0661 25.5798C21.7195 25.1335 22.215 24.685 22.5531 24.3406C22.7227 24.1679 22.8542 24.0199 22.9476 23.9092C22.9943 23.8539 23.0317 23.8077 23.0597 23.7722C23.0736 23.7545 23.0853 23.7394 23.0946 23.7272C23.0993 23.7211 23.1034 23.7158 23.1068 23.7111L23.1117 23.7047L23.1137 23.7019L23.1156 23.6994C23.6458 22.9837 23.4928 21.9756 22.7738 21.4478C22.0579 20.9223 21.051 21.071 20.5189 21.7786C20.5189 21.7786 20.517 21.781 20.5154 21.783C20.5085 21.7917 20.4936 21.8104 20.4708 21.8375C20.4249 21.8918 20.3477 21.9794 20.2396 22.0896C20.0224 22.3108 19.6865 22.6165 19.2357 22.9244C18.339 23.5369 17.0027 24.1502 15.2157 24.1502C13.4287 24.1502 12.0924 23.5369 11.1957 22.9244C10.7449 22.6165 10.409 22.3108 10.1918 22.0896C10.0837 21.9794 10.0065 21.8918 9.96065 21.8375C9.93777 21.8104 9.92285 21.7917 9.91595 21.783C9.91436 21.781 9.91247 21.7785 9.91247 21.7785Z" fill="#6112A3"/>
<path d="M23.3493 10.727H26.6461C27.3349 10.727 27.8934 11.2854 27.8934 11.9742V27.9008C27.8934 28.5896 27.3349 29.148 26.6461 29.148H23.3493V30.875H26.6461C27.4714 30.875 28.2182 30.5389 28.757 29.996C29.2959 30.5389 30.0426 30.875 30.8679 30.875H33.7321V29.148H30.8679C30.1791 29.148 29.6207 28.5896 29.6207 27.9008V11.9742C29.6207 11.2854 30.1791 10.727 30.8679 10.727H33.7321V9H30.8679C30.0426 9 29.2959 9.33614 28.757 9.87898C28.2182 9.33614 27.4714 9 26.6461 9H23.3493V10.727Z" fill="#6112A3"/>
</svg>
