<svg width="46" height="46" viewBox="0 0 46 46" fill="none" xmlns="http://www.w3.org/2000/svg">
<rect width="46" height="46" rx="5" fill="#EEDFFF"/>
<path fill-rule="evenodd" clip-rule="evenodd" d="M20.664 15.6005C21.549 15.6005 22.2664 16.3147 22.2664 17.1956L22.2664 20.6109C22.2664 21.4918 21.549 22.206 20.664 22.206C19.7791 22.206 19.0617 21.4918 19.0617 20.6109L19.0617 17.1956C19.0617 16.3147 19.7791 15.6005 20.664 15.6005Z" fill="#6112A3"/>
<path fill-rule="evenodd" clip-rule="evenodd" d="M9.57382 19.5437C9.57382 18.6628 10.2912 17.9486 11.1762 17.9486H14.5496C15.4345 17.9486 16.1519 18.6628 16.1519 19.5437C16.1519 20.4246 15.4345 21.1388 14.5496 21.1388H11.1762C10.2912 21.1388 9.57382 20.4246 9.57382 19.5437Z" fill="#6112A3"/>
<path fill-rule="evenodd" clip-rule="evenodd" d="M11.5101 24.8844C10.983 24.1834 9.98553 24.0362 9.27645 24.5567C8.56421 25.0795 8.41261 26.0782 8.93784 26.7872L8.93968 26.7896L8.94174 26.7924L8.9465 26.7987C8.94996 26.8034 8.954 26.8087 8.95862 26.8147C8.96785 26.8268 8.97939 26.8417 8.99324 26.8593C9.02095 26.8944 9.05796 26.9401 9.10427 26.995C9.1968 27.1046 9.32703 27.2513 9.49499 27.4223C9.82999 27.7635 10.3208 28.2078 10.968 28.6499C12.2672 29.5373 14.2115 30.4239 16.7634 30.4239C19.3154 30.4239 21.2596 29.5373 22.5588 28.6499C23.206 28.2078 23.6969 27.7635 24.0319 27.4223C24.1998 27.2513 24.3301 27.1046 24.4226 26.995C24.4689 26.9401 24.5059 26.8944 24.5336 26.8593C24.5475 26.8417 24.559 26.8268 24.5682 26.8147C24.5728 26.8087 24.5769 26.8034 24.5803 26.7987L24.5851 26.7924L24.5872 26.7896L24.589 26.7872C25.1142 26.0782 24.9626 25.0795 24.2504 24.5567C23.5413 24.0362 22.5438 24.1834 22.0167 24.8844L22.0133 24.8888C22.0065 24.8974 21.9917 24.9159 21.969 24.9427C21.9236 24.9965 21.8471 25.0834 21.74 25.1925C21.5249 25.4116 21.1921 25.7144 20.7456 26.0194C19.8574 26.6261 18.5336 27.2337 16.7634 27.2337C14.9932 27.2337 13.6695 26.6261 12.7812 26.0194C12.3347 25.7144 12.002 25.4116 11.7868 25.1925C11.6797 25.0834 11.6032 24.9965 11.5578 24.9427C11.5351 24.9159 11.5204 24.8974 11.5135 24.8888L11.5101 24.8844Z" fill="#6112A3"/>
<path d="M39.8172 23.0343L22.392 6.1712L19.4968 9.16288L33.8306 23.0343L19.4968 36.9057L22.392 39.8974L39.8172 23.0343Z" fill="#6112A3"/>
</svg>
