<svg width="46" height="46" viewBox="0 0 46 46" fill="none" xmlns="http://www.w3.org/2000/svg">
<rect width="46" height="46" rx="5" fill="#EEDFFF"/>
<path fill-rule="evenodd" clip-rule="evenodd" d="M22.601 14.1851C23.6283 14.1851 24.4612 15.0141 24.4612 16.0368V20.0017C24.4612 21.0244 23.6283 21.8534 22.601 21.8534C21.5736 21.8534 20.7408 21.0244 20.7408 20.0017V16.0368C20.7408 15.0141 21.5736 14.1851 22.601 14.1851Z" fill="#6112A3"/>
<path fill-rule="evenodd" clip-rule="evenodd" d="M9.72612 18.7627C9.72612 17.74 10.559 16.9109 11.5863 16.9109H15.5026C16.5299 16.9109 17.3628 17.74 17.3628 18.7627C17.3628 19.7854 16.5299 20.6144 15.5026 20.6144H11.5863C10.559 20.6144 9.72612 19.7854 9.72612 18.7627Z" fill="#6112A3"/>
<path fill-rule="evenodd" clip-rule="evenodd" d="M11.9743 24.9629C11.3624 24.1492 10.2045 23.9782 9.38128 24.5825C8.55443 25.1895 8.37843 26.3488 8.98819 27.1719L8.99032 27.1748L8.99271 27.178L8.99824 27.1854C9.00226 27.1907 9.00694 27.1969 9.0123 27.2039C9.02302 27.2179 9.03642 27.2352 9.0525 27.2556C9.08466 27.2964 9.12763 27.3495 9.18139 27.4132C9.28881 27.5405 9.44 27.7107 9.63499 27.9093C10.0239 28.3054 10.5937 28.8211 11.3451 29.3343C12.8533 30.3646 15.1104 31.3939 18.0731 31.3939C21.0357 31.3939 23.2928 30.3646 24.801 29.3343C25.5524 28.8211 26.1222 28.3054 26.5111 27.9093C26.7061 27.7107 26.8573 27.5405 26.9647 27.4132C27.0185 27.3495 27.0614 27.2964 27.0936 27.2556C27.1097 27.2352 27.1231 27.2179 27.1338 27.2039C27.1392 27.1969 27.1439 27.1907 27.1479 27.1854L27.1534 27.178L27.1558 27.1748L27.1579 27.1719C27.7677 26.3488 27.5917 25.1895 26.7648 24.5825C25.9416 23.9782 24.7837 24.1492 24.1717 24.963C24.1717 24.963 24.1696 24.9657 24.1678 24.968C24.1598 24.9781 24.1427 24.9995 24.1164 25.0307C24.0636 25.0931 23.9748 25.1939 23.8505 25.3206C23.6007 25.575 23.2144 25.9265 22.696 26.2806C21.6649 26.985 20.1281 27.6903 18.0731 27.6903C16.018 27.6903 14.4812 26.985 13.4501 26.2806C12.9317 25.9265 12.5454 25.575 12.2956 25.3206C12.1713 25.1939 12.0825 25.0931 12.0297 25.0307C12.0034 24.9995 11.9863 24.9781 11.9783 24.968C11.9765 24.9657 11.9743 24.9629 11.9743 24.9629Z" fill="#6112A3"/>
<path d="M25.1267 12.2536H28.918C29.7102 12.2536 30.3524 12.8958 30.3524 13.6879V32.0035C30.3524 32.7956 29.7102 33.4378 28.918 33.4378H25.1267V35.4238H28.918C29.8671 35.4238 30.7259 35.0373 31.3456 34.413C31.9652 35.0373 32.824 35.4238 33.7731 35.4238H37.067V33.4378H33.7731C32.981 33.4378 32.3388 32.7956 32.3388 32.0035V13.6879C32.3388 12.8958 32.981 12.2536 33.7731 12.2536H37.067V10.2676H33.7731C32.824 10.2676 31.9652 10.6541 31.3456 11.2784C30.7259 10.6541 29.8671 10.2676 28.918 10.2676H25.1267V12.2536Z" fill="#6112A3"/>
</svg>
