<svg width="40" height="40" viewBox="0 0 40 40" fill="none" xmlns="http://www.w3.org/2000/svg">
<g id="cody icons">
<rect width="40" height="40" rx="5" fill="#EEDFFF"/>
<g id="Vector">
<path fill-rule="evenodd" clip-rule="evenodd" d="M6.95654 12.2266C6.95654 9.31605 9.29245 6.95654 12.1739 6.95654H27.8261C30.7076 6.95654 33.0435 9.31605 33.0435 12.2266V23.8663C33.0435 26.3119 31.3944 28.3683 29.1583 28.9631V33.0435L22.572 29.1364H12.1739C9.29245 29.1364 6.95654 26.7769 6.95654 23.8663V12.2266ZM12.1739 9.59159H27.8261C29.2669 9.59159 30.4348 10.7713 30.4348 12.2266V23.8663C30.4348 25.3216 29.2668 26.5014 27.8261 26.5014H12.1739C10.7332 26.5014 9.56524 25.3216 9.56524 23.8663V12.2266C9.56524 10.7713 10.7332 9.59159 12.1739 9.59159Z" fill="#6112A3"/>
<path fill-rule="evenodd" clip-rule="evenodd" d="M23.1667 12.0702C23.8768 12.0702 24.4525 12.649 24.4525 13.363V16.131C24.4525 16.845 23.8768 17.4238 23.1667 17.4238C22.4567 17.4238 21.881 16.845 21.881 16.131V13.363C21.881 12.649 22.4567 12.0702 23.1667 12.0702Z" fill="#6112A3"/>
<path fill-rule="evenodd" clip-rule="evenodd" d="M14.2682 15.266C14.2682 14.552 14.8439 13.9732 15.5539 13.9732H18.2607C18.9708 13.9732 19.5464 14.552 19.5464 15.266C19.5464 15.98 18.9708 16.5588 18.2607 16.5588H15.5539C14.8439 16.5588 14.2682 15.98 14.2682 15.266Z" fill="#6112A3"/>
<path fill-rule="evenodd" clip-rule="evenodd" d="M15.822 19.5946C15.3991 19.0266 14.5988 18.9072 14.0298 19.3291C13.4583 19.7528 13.3367 20.5622 13.7581 21.1368C13.7581 21.1368 13.7585 21.1373 13.7588 21.1378L13.7596 21.1388L13.7613 21.1411L13.7651 21.1462C13.7678 21.15 13.7711 21.1543 13.7748 21.1592C13.7822 21.169 13.7915 21.181 13.8026 21.1953C13.8248 21.2237 13.8545 21.2608 13.8917 21.3053C13.9659 21.3941 14.0704 21.513 14.2052 21.6516C14.474 21.9281 14.8678 22.2882 15.3871 22.6465C16.4296 23.3658 17.9896 24.0843 20.0372 24.0843C22.0848 24.0843 23.6448 23.3658 24.6873 22.6465C25.2066 22.2882 25.6004 21.9281 25.8692 21.6516C26.004 21.513 26.1085 21.3941 26.1827 21.3053C26.2199 21.2608 26.2496 21.2237 26.2718 21.1953C26.2829 21.181 26.2922 21.169 26.2996 21.1592C26.3033 21.1543 26.3065 21.15 26.3093 21.1462L26.3131 21.1411L26.3148 21.1388L26.3156 21.1378C26.3159 21.1373 26.3163 21.1368 26.3163 21.1368C26.7377 20.5622 26.6161 19.7528 26.0446 19.3291C25.4756 18.9072 24.6753 19.0266 24.2523 19.5947C24.2518 19.5954 24.2508 19.5966 24.2496 19.5982C24.2441 19.6052 24.2323 19.6202 24.2141 19.6419C24.1776 19.6856 24.1163 19.7559 24.0303 19.8444C23.8577 20.022 23.5907 20.2674 23.2324 20.5146C22.5197 21.0063 21.4576 21.4988 20.0372 21.4988C18.6168 21.4988 17.5547 21.0063 16.842 20.5146C16.4837 20.2674 16.2167 20.022 16.0441 19.8444C15.9581 19.7559 15.8968 19.6856 15.8603 19.6419C15.8421 19.6202 15.8303 19.6052 15.8248 19.5982C15.8235 19.5966 15.8226 19.5954 15.822 19.5946Z" fill="#6112A3"/>
</g>
</g>
</svg>
