<svg width="46" height="46" viewBox="0 0 46 46" fill="none" xmlns="http://www.w3.org/2000/svg">
<g id="cody icons">
<rect width="46" height="46" rx="5" fill="#EEDFFF"/>
<g id="Vector">
<path fill-rule="evenodd" clip-rule="evenodd" d="M7.1875 13.2692C7.1875 10.7043 9.26679 8.625 11.8317 8.625H32.7308C35.2957 8.625 37.375 10.7043 37.375 13.2692V29.3904C37.375 31.9553 35.2957 34.0346 32.7308 34.0346L32.8789 34.0346V38.8125L24.7433 34.0346L11.8317 34.0346C9.26679 34.0346 7.1875 31.9553 7.1875 29.3904V13.2692ZM11.8317 10.9471H32.7308C34.0132 10.9471 35.0529 11.9868 35.0529 13.2692V29.3904C35.0529 30.6729 34.0132 31.7125 32.7308 31.7125H11.8317C10.5493 31.7125 9.50962 30.6729 9.50962 29.3904V13.2692C9.50962 11.9868 10.5493 10.9471 11.8317 10.9471Z" fill="#6112A3"/>
<path fill-rule="evenodd" clip-rule="evenodd" d="M26.4622 13.5014C27.4011 13.5014 28.1623 14.2591 28.1623 15.1938V18.8173C28.1623 19.7519 27.4011 20.5096 26.4622 20.5096C25.5233 20.5096 24.7622 19.7519 24.7622 18.8173V15.1938C24.7622 14.2591 25.5233 13.5014 26.4622 13.5014Z" fill="#6112A3"/>
<path fill-rule="evenodd" clip-rule="evenodd" d="M14.6958 17.6849C14.6958 16.7503 15.457 15.9926 16.3959 15.9926H19.975C20.9139 15.9926 21.675 16.7503 21.675 17.6849C21.675 18.6196 20.9139 19.3773 19.975 19.3773H16.3959C15.457 19.3773 14.6958 18.6196 14.6958 17.6849Z" fill="#6112A3"/>
<path fill-rule="evenodd" clip-rule="evenodd" d="M16.7504 23.3514C16.1912 22.6077 15.1329 22.4515 14.3806 23.0038C13.6249 23.5585 13.4641 24.618 14.0213 25.3702L14.0233 25.3728L14.0255 25.3758L14.0305 25.3825C14.0342 25.3874 14.0385 25.3931 14.0434 25.3995C14.0532 25.4123 14.0654 25.4281 14.0801 25.4467C14.1095 25.484 14.1488 25.5325 14.1979 25.5907C14.2961 25.707 14.4343 25.8626 14.6125 26.0441C14.9679 26.4061 15.4887 26.8775 16.1753 27.3465C17.5537 28.2881 19.6165 29.2287 22.3241 29.2287C25.0316 29.2287 27.0944 28.2881 28.4729 27.3465C29.1595 26.8775 29.6803 26.4061 30.0357 26.0441C30.2139 25.8626 30.3521 25.707 30.4503 25.5907C30.4994 25.5325 30.5387 25.484 30.568 25.4467C30.5827 25.4281 30.595 25.4123 30.6048 25.3995C30.6097 25.3931 30.614 25.3874 30.6176 25.3825L30.6227 25.3758L30.6249 25.3728L30.6268 25.3702C31.1841 24.618 31.0232 23.5585 30.2676 23.0038C29.5152 22.4515 28.457 22.6077 27.8977 23.3514L27.8941 23.3561C27.8868 23.3653 27.8712 23.3848 27.8471 23.4133C27.7989 23.4704 27.7178 23.5625 27.6041 23.6783C27.3759 23.9108 27.0228 24.2321 26.5491 24.5557C25.6067 25.1994 24.2022 25.844 22.3241 25.844C20.4459 25.844 19.0415 25.1994 18.0991 24.5557C17.6253 24.2321 17.2723 23.9108 17.044 23.6783C16.9304 23.5625 16.8492 23.4704 16.8011 23.4133C16.777 23.3848 16.7613 23.3653 16.7541 23.3561L16.7504 23.3514Z" fill="#6112A3"/>
</g>
</g>
</svg>
