<svg xmlns="http://www.w3.org/2000/svg" fill="none" viewBox="0 1 501 162"><rect x="0.5" y="1.5" width="467" height="136" rx="7.5" fill="#191B21"></rect><path d="M32.4258 32H25.4941V30.79H28.3242V23.6602H28.2148L25.4736 25.4443V24.0088L28.3311 22.1357H29.7256V30.79H32.4258V32ZM25.4121 45.9658C25.4121 44.1885 26.7383 42.9307 28.6182 42.9307C30.498 42.9307 31.7764 44.0654 31.7764 45.7266C31.7764 46.7656 31.2842 47.6133 29.6777 49.2949L27.4766 51.6396V51.7559H31.9336V53H25.4805V52.0225L28.7822 48.4541C30.0605 47.0664 30.375 46.5469 30.375 45.8018C30.375 44.79 29.6641 44.1338 28.5771 44.1338C27.4834 44.1338 26.7588 44.8652 26.7588 45.9658V46.0068H25.4121V45.9658ZM27.4697 69.4951V68.3604H28.5703C29.6367 68.3604 30.375 67.6836 30.375 66.7129C30.375 65.749 29.6641 65.127 28.5908 65.127C27.5176 65.127 26.8135 65.749 26.7246 66.7607H25.3984C25.501 65.0107 26.7383 63.9307 28.6387 63.9307C30.4775 63.9307 31.7627 64.9902 31.7627 66.5078C31.7627 67.6836 31.127 68.5381 30.0605 68.7842V68.8936C31.3799 69.0645 32.166 69.9736 32.166 71.3066C32.166 73.0088 30.7236 74.2051 28.6865 74.2051C26.6768 74.2051 25.2959 73.0635 25.207 71.3203H26.54C26.6357 72.3252 27.4629 72.9678 28.6455 72.9678C29.9307 72.9678 30.7373 72.3047 30.7373 71.252C30.7373 70.1787 29.9102 69.4951 28.6113 69.4951H27.4697ZM29.7119 95V92.9766H25.248V91.8418L28.4951 85.1357H29.9375L26.752 91.6846V91.7803H29.7461V89.0527H31.0244V91.7803H32.4805V92.9766H31.0312V95H29.7119ZM28.5977 116.198C26.6973 116.198 25.3506 115.036 25.2686 113.327H26.6357C26.752 114.291 27.5723 114.954 28.6592 114.954C29.8691 114.954 30.6758 114.106 30.6758 112.835C30.6758 111.563 29.8623 110.702 28.6592 110.702C27.8252 110.702 27.1484 111.071 26.7725 111.741H25.4189L25.9043 106.136H31.4824V107.373H27.0322L26.7725 110.429H26.8887C27.3535 109.834 28.0713 109.52 28.9531 109.52C30.7783 109.52 32.0498 110.866 32.0498 112.801C32.0498 114.831 30.6621 116.198 28.5977 116.198Z" fill="#5E6E8C"></path><path d="M54.1787 32V25.7178H52.1826V24.5898H54.1787V23.8926C54.1787 22.3887 55.04 21.7256 56.9268 21.7256C57.2822 21.7256 58.5264 21.7529 58.7314 21.7871V22.8467C58.458 22.8193 57.2959 22.792 56.9541 22.792C56.0176 22.792 55.5254 23.1543 55.5254 23.8447V24.5898H58.7314V25.7178H55.5459V32H54.1787ZM67.1123 24.5488V32H65.7861V30.708H65.6904C65.3008 31.624 64.46 32.1436 63.3457 32.1436C61.7256 32.1436 60.8506 31.1729 60.8506 29.3818V24.5488H62.2246V29.0469C62.2246 30.3184 62.7373 30.9199 63.8379 30.9199C64.9795 30.9199 65.7451 30.1201 65.7451 28.917V24.5488H67.1123ZM69.5049 32V24.5488H70.8311V25.8477H70.9268C71.3164 24.9248 72.1572 24.4053 73.2715 24.4053C74.8916 24.4053 75.7666 25.376 75.7666 27.167V32H74.3926V27.5088C74.3926 26.2305 73.8799 25.6289 72.7793 25.6289C71.6377 25.6289 70.8721 26.4287 70.8721 27.6318V32H69.5049ZM84.4756 26.9482H83.1221C82.9922 26.0869 82.3223 25.5742 81.4131 25.5742C80.2031 25.5742 79.5332 26.4219 79.5332 27.9531V28.582C79.5332 30.1133 80.2031 30.9609 81.4131 30.9609C82.3291 30.9609 82.9854 30.4619 83.1221 29.6211H84.4756C84.291 31.207 83.1631 32.1436 81.4268 32.1436C79.3555 32.1436 78.1592 30.8994 78.1592 28.7256V27.8096C78.1592 25.6357 79.3555 24.3984 81.4268 24.3984C83.1631 24.3984 84.291 25.335 84.4756 26.9482ZM88.5908 22.5117H89.9443V24.5898H92.8906V25.7178H89.9648V29.7441C89.9648 30.4824 90.4775 30.8857 91.4277 30.8857C91.7764 30.8857 92.6855 30.8721 92.8496 30.8516V31.9727C92.6992 32 91.6191 32.0273 91.332 32.0273C89.4248 32.0273 88.5908 31.3438 88.5908 29.7441V25.7178H86.6221V24.5898H88.5908V22.5117ZM98.7217 22.8057C98.1133 22.8057 97.6621 22.3818 97.6621 21.7939C97.6621 21.1992 98.1133 20.7754 98.7217 20.7754C99.3369 20.7754 99.7812 21.1992 99.7812 21.7939C99.7812 22.3818 99.3369 22.8057 98.7217 22.8057ZM101.866 32H95.6113V30.8926H98.1201V25.6562H95.666V24.5488H99.46V30.8926H101.866V32ZM107.253 32.1436C105.243 32.1436 103.965 30.8584 103.965 28.8418V27.7139C103.965 25.6904 105.243 24.4121 107.253 24.4121C109.263 24.4121 110.541 25.6904 110.541 27.7139V28.8418C110.541 30.8584 109.263 32.1436 107.253 32.1436ZM107.253 25.5742C106.063 25.5742 105.318 26.4287 105.318 27.8096V28.7461C105.318 30.127 106.063 30.9814 107.253 30.9814C108.442 30.9814 109.188 30.127 109.188 28.7461V27.8096C109.188 26.4287 108.442 25.5742 107.253 25.5742ZM112.776 32V24.5488H114.103V25.8477H114.198C114.588 24.9248 115.429 24.4053 116.543 24.4053C118.163 24.4053 119.038 25.376 119.038 27.167V32H117.664V27.5088C117.664 26.2305 117.151 25.6289 116.051 25.6289C114.909 25.6289 114.144 26.4287 114.144 27.6318V32H112.776Z" fill="#CE9CFF"></path><path d="M237.067 26.832C236.35 26.832 235.755 26.2305 235.755 25.499C235.755 24.7607 236.35 24.1592 237.067 24.1592C237.792 24.1592 238.38 24.7607 238.38 25.499C238.38 26.2305 237.792 26.832 237.067 26.832ZM237.067 32.0684C236.35 32.0684 235.755 31.46 235.755 30.7285C235.755 29.9902 236.35 29.3887 237.067 29.3887C237.792 29.3887 238.38 29.9902 238.38 30.7285C238.38 31.46 237.792 32.0684 237.067 32.0684ZM297.647 26.832C296.93 26.832 296.335 26.2305 296.335 25.499C296.335 24.7607 296.93 24.1592 297.647 24.1592C298.372 24.1592 298.96 24.7607 298.96 25.499C298.96 26.2305 298.372 26.832 297.647 26.832ZM297.647 32.0684C296.93 32.0684 296.335 31.46 296.335 30.7285C296.335 29.9902 296.93 29.3887 297.647 29.3887C298.372 29.3887 298.96 29.9902 298.96 30.7285C298.96 31.46 298.372 32.0684 297.647 32.0684Z" fill="#DBE2F0"></path><path d="M130.413 26.6064C130.413 25.2734 131.527 24.3984 133.236 24.3984C134.863 24.3984 135.93 25.1777 136.053 26.4697H134.74C134.617 25.8613 134.036 25.4854 133.216 25.4854C132.341 25.4854 131.773 25.8955 131.773 26.5107C131.773 27.0439 132.136 27.3379 133.004 27.5293L134.084 27.7686C135.554 28.0967 136.217 28.7256 136.217 29.8193C136.217 31.2344 135.048 32.1367 133.229 32.1367C131.473 32.1367 130.338 31.3506 130.215 30.0381H131.596C131.746 30.6738 132.361 31.0361 133.264 31.0361C134.2 31.0361 134.802 30.6191 134.802 29.9697C134.802 29.4229 134.467 29.1426 133.564 28.9375L132.45 28.6846C131.09 28.377 130.413 27.6934 130.413 26.6064ZM143.764 30.0312H145.076C144.878 31.2822 143.647 32.1436 142.041 32.1436C139.949 32.1436 138.753 30.9131 138.753 28.7939V27.6592C138.753 25.6973 140.031 24.4053 141.966 24.4053C143.914 24.4053 145.097 25.6904 145.097 27.8096V28.6162H140.1V28.9512C140.1 30.209 140.858 31.0156 142.034 31.0156C142.916 31.0156 143.579 30.6396 143.764 30.0312ZM141.952 25.5264C140.797 25.5264 140.1 26.3193 140.1 27.6523H143.75C143.75 26.3262 143.08 25.5264 141.952 25.5264ZM149.171 22.5117H150.524V24.5898H153.471V25.7178H150.545V29.7441C150.545 30.4824 151.058 30.8857 152.008 30.8857C152.356 30.8857 153.266 30.8721 153.43 30.8516V31.9727C153.279 32 152.199 32.0273 151.912 32.0273C150.005 32.0273 149.171 31.3438 149.171 29.7441V25.7178H147.202V24.5898H149.171V22.5117ZM161.571 32L160.785 29.2793H157.504L156.711 32H155.275L158.386 22.1357H159.972L163.082 32H161.571ZM159.124 23.7148L157.839 28.124H160.45L159.172 23.7148H159.124ZM170.964 24.5488V32H169.638V30.708H169.542C169.152 31.624 168.312 32.1436 167.197 32.1436C165.577 32.1436 164.702 31.1729 164.702 29.3818V24.5488H166.076V29.0469C166.076 30.3184 166.589 30.9199 167.689 30.9199C168.831 30.9199 169.597 30.1201 169.597 28.917V24.5488H170.964ZM175.134 22.5117H176.487V24.5898H179.434V25.7178H176.508V29.7441C176.508 30.4824 177.021 30.8857 177.971 30.8857C178.319 30.8857 179.229 30.8721 179.393 30.8516V31.9727C179.242 32 178.162 32.0273 177.875 32.0273C175.968 32.0273 175.134 31.3438 175.134 29.7441V25.7178H173.165V24.5898H175.134V22.5117ZM181.997 32V21.6436H183.323V25.8545H183.426C183.809 24.9385 184.656 24.4189 185.784 24.4189C187.404 24.4189 188.286 25.3965 188.286 27.1807V32H186.919V27.5156C186.919 26.251 186.393 25.6426 185.292 25.6426C184.137 25.6426 183.371 26.4424 183.371 27.6455V32H181.997Z" fill="#00CBEC"></path><path d="M192.169 27.0645C192.169 24.6855 192.894 22.6143 194.274 21.0557H195.662C194.227 23.1133 193.632 24.877 193.632 27.0645C193.632 29.2588 194.227 31.0156 195.662 33.0732H194.274C192.894 31.5146 192.169 29.4434 192.169 27.0645ZM290.62 27.0645C290.62 29.4434 289.896 31.5146 288.515 33.0732H287.127C288.562 31.0156 289.157 29.2588 289.157 27.0645C289.157 24.877 288.562 23.1133 287.127 21.0557H288.515C289.896 22.6143 290.62 24.6855 290.62 27.0645ZM360.948 33.0938H359.971C358.214 33.0938 357.653 32.5332 357.653 30.79V29.2656C357.653 28.1992 357.079 27.6455 355.507 27.7754V26.3604C357.079 26.4902 357.653 25.9365 357.653 24.877V23.3457C357.653 21.6025 358.214 21.042 359.971 21.042H360.948V22.1357H360.23C359.226 22.1357 359.027 22.375 359.027 23.5439V25.3896C359.027 26.3398 358.323 26.9688 356.983 27.0098V27.126C358.323 27.167 359.027 27.7959 359.027 28.7461V30.5918C359.027 31.7607 359.226 32 360.23 32H360.948V33.0938ZM52.6064 117.094V116H53.3242C54.3291 116 54.5273 115.761 54.5273 114.592V112.746C54.5273 111.796 55.2314 111.167 56.5713 111.126V111.01C55.2314 110.969 54.5273 110.34 54.5273 109.39V107.544C54.5273 106.375 54.3291 106.136 53.3242 106.136H52.6064V105.042H53.584C55.3408 105.042 55.9014 105.603 55.9014 107.346V108.877C55.9014 109.937 56.4756 110.49 58.0479 110.36V111.775C56.4756 111.646 55.9014 112.199 55.9014 113.266V114.79C55.9014 116.533 55.3408 117.094 53.584 117.094H52.6064Z" fill="#E6EBF2"></path><path d="M201.623 32.123C200.201 32.123 199.258 31.2275 199.258 29.8809C199.258 28.5547 200.215 27.7754 201.951 27.6729L203.906 27.5703V26.9141C203.906 26.0596 203.373 25.5811 202.416 25.5811C201.623 25.5811 201.056 25.9229 200.878 26.5107H199.538C199.675 25.2803 200.844 24.4463 202.443 24.4463C204.241 24.4463 205.267 25.3486 205.267 26.9141V32.0068H203.961V30.9199H203.831C203.476 31.6855 202.676 32.123 201.623 32.123ZM202.047 30.9814C203.113 30.9814 203.906 30.2773 203.906 29.3271V28.541L202.136 28.6299C201.145 28.6846 200.625 29.0947 200.625 29.8193C200.625 30.5371 201.172 30.9814 202.047 30.9814ZM214.235 24.5488V32H212.909V30.708H212.813C212.424 31.624 211.583 32.1436 210.469 32.1436C208.849 32.1436 207.974 31.1729 207.974 29.3818V24.5488H209.348V29.0469C209.348 30.3184 209.86 30.9199 210.961 30.9199C212.103 30.9199 212.868 30.1201 212.868 28.917V24.5488H214.235ZM218.405 22.5117H219.759V24.5898H222.705V25.7178H219.779V29.7441C219.779 30.4824 220.292 30.8857 221.242 30.8857C221.591 30.8857 222.5 30.8721 222.664 30.8516V31.9727C222.514 32 221.434 32.0273 221.146 32.0273C219.239 32.0273 218.405 31.3438 218.405 29.7441V25.7178H216.437V24.5898H218.405V22.5117ZM225.269 32V21.6436H226.595V25.8545H226.697C227.08 24.9385 227.928 24.4189 229.056 24.4189C230.676 24.4189 231.558 25.3965 231.558 27.1807V32H230.19V27.5156C230.19 26.251 229.664 25.6426 228.563 25.6426C227.408 25.6426 226.643 26.4424 226.643 27.6455V32H225.269Z" fill="#74C0FC"></path><path d="M256.769 32L255.982 29.2793H252.701L251.908 32H250.473L253.583 22.1357H255.169L258.279 32H256.769ZM254.321 23.7148L253.036 28.124H255.647L254.369 23.7148H254.321ZM266.161 24.5488V32H264.835V30.708H264.739C264.35 31.624 263.509 32.1436 262.395 32.1436C260.774 32.1436 259.899 31.1729 259.899 29.3818V24.5488H261.273V29.0469C261.273 30.3184 261.786 30.9199 262.887 30.9199C264.028 30.9199 264.794 30.1201 264.794 28.917V24.5488H266.161ZM270.331 22.5117H271.685V24.5898H274.631V25.7178H271.705V29.7441C271.705 30.4824 272.218 30.8857 273.168 30.8857C273.517 30.8857 274.426 30.8721 274.59 30.8516V31.9727C274.439 32 273.359 32.0273 273.072 32.0273C271.165 32.0273 270.331 31.3438 270.331 29.7441V25.7178H268.362V24.5898H270.331V22.5117ZM277.194 32V21.6436H278.521V25.8545H278.623C279.006 24.9385 279.854 24.4189 280.981 24.4189C282.602 24.4189 283.483 25.3965 283.483 27.1807V32H282.116V27.5156C282.116 26.251 281.59 25.6426 280.489 25.6426C279.334 25.6426 278.568 26.4424 278.568 27.6455V32H277.194ZM311.504 24.5488H312.974L314.922 30.5986H315.018L316.952 24.5488H318.408L315.722 32H314.197L311.504 24.5488ZM323.61 32.1436C321.601 32.1436 320.322 30.8584 320.322 28.8418V27.7139C320.322 25.6904 321.601 24.4121 323.61 24.4121C325.62 24.4121 326.898 25.6904 326.898 27.7139V28.8418C326.898 30.8584 325.62 32.1436 323.61 32.1436ZM323.61 25.5742C322.421 25.5742 321.676 26.4287 321.676 27.8096V28.7461C321.676 30.127 322.421 30.9814 323.61 30.9814C324.8 30.9814 325.545 30.127 325.545 28.7461V27.8096C325.545 26.4287 324.8 25.5742 323.61 25.5742ZM332.388 22.8057C331.779 22.8057 331.328 22.3818 331.328 21.7939C331.328 21.1992 331.779 20.7754 332.388 20.7754C333.003 20.7754 333.447 21.1992 333.447 21.7939C333.447 22.3818 333.003 22.8057 332.388 22.8057ZM335.532 32H329.277V30.8926H331.786V25.6562H329.332V24.5488H333.126V30.8926H335.532V32ZM340.345 32.123C338.629 32.123 337.535 30.8994 337.535 28.9512V27.5977C337.535 25.6494 338.629 24.4258 340.345 24.4258C341.418 24.4258 342.204 24.8975 342.505 25.7314H342.635V21.6436H344.043V32H342.669V30.8242H342.539C342.184 31.665 341.418 32.123 340.345 32.123ZM340.796 30.9062C341.944 30.9062 342.669 30.0996 342.669 28.8213V27.707C342.669 26.4219 341.944 25.6152 340.796 25.6152C339.647 25.6152 338.923 26.4287 338.923 27.707V28.8213C338.923 30.0996 339.647 30.9062 340.796 30.9062Z" fill="#BF9AF4"></path><path d="M72.6357 53.0684C71.9111 53.0684 71.3232 52.46 71.3232 51.7285C71.3232 50.9902 71.9111 50.3887 72.6357 50.3887C73.3604 50.3887 73.9482 50.9902 73.9482 51.7285C73.9482 52.46 73.3604 53.0684 72.6357 53.0684ZM81.29 53.0684C80.5654 53.0684 79.9775 52.46 79.9775 51.7285C79.9775 50.9902 80.5654 50.3887 81.29 50.3887C82.0146 50.3887 82.6025 50.9902 82.6025 51.7285C82.6025 52.46 82.0146 53.0684 81.29 53.0684ZM89.9443 53.0684C89.2197 53.0684 88.6318 52.46 88.6318 51.7285C88.6318 50.9902 89.2197 50.3887 89.9443 50.3887C90.6689 50.3887 91.2568 50.9902 91.2568 51.7285C91.2568 52.46 90.6689 53.0684 89.9443 53.0684ZM72.6357 74.0684C71.9111 74.0684 71.3232 73.46 71.3232 72.7285C71.3232 71.9902 71.9111 71.3887 72.6357 71.3887C73.3604 71.3887 73.9482 71.9902 73.9482 72.7285C73.9482 73.46 73.3604 74.0684 72.6357 74.0684ZM81.29 74.0684C80.5654 74.0684 79.9775 73.46 79.9775 72.7285C79.9775 71.9902 80.5654 71.3887 81.29 71.3887C82.0146 71.3887 82.6025 71.9902 82.6025 72.7285C82.6025 73.46 82.0146 74.0684 81.29 74.0684ZM89.9443 74.0684C89.2197 74.0684 88.6318 73.46 88.6318 72.7285C88.6318 71.9902 89.2197 71.3887 89.9443 71.3887C90.6689 71.3887 91.2568 71.9902 91.2568 72.7285C91.2568 73.46 90.6689 74.0684 89.9443 74.0684ZM72.6357 95.0684C71.9111 95.0684 71.3232 94.46 71.3232 93.7285C71.3232 92.9902 71.9111 92.3887 72.6357 92.3887C73.3604 92.3887 73.9482 92.9902 73.9482 93.7285C73.9482 94.46 73.3604 95.0684 72.6357 95.0684ZM81.29 95.0684C80.5654 95.0684 79.9775 94.46 79.9775 93.7285C79.9775 92.9902 80.5654 92.3887 81.29 92.3887C82.0146 92.3887 82.6025 92.9902 82.6025 93.7285C82.6025 94.46 82.0146 95.0684 81.29 95.0684ZM89.9443 95.0684C89.2197 95.0684 88.6318 94.46 88.6318 93.7285C88.6318 92.9902 89.2197 92.3887 89.9443 92.3887C90.6689 92.3887 91.2568 92.9902 91.2568 93.7285C91.2568 94.46 90.6689 95.0684 89.9443 95.0684Z" fill="#5E6E8C"></path><rect opacity="0.3" x="128" y="16" width="63" height="22" rx="3" fill="#00CBEC"></rect><rect x="0.5" y="1.5" width="467" height="136" rx="7.5" stroke="#343A4D"></rect><g filter="url(#filter0_bdd_3579_3231)"><rect x="168" y="33" width="161" height="33" rx="8" fill="#383838" fill-opacity="0.5" shape-rendering="crispEdges"></rect><path d="M187.907 54.2222C187.06 54.2222 186.326 54.0275 185.704 53.6382C185.086 53.2489 184.61 52.6966 184.276 51.9814C183.942 51.2663 183.774 50.4157 183.774 49.4297V49.417C183.774 48.4268 183.942 47.5741 184.276 46.8589C184.61 46.1437 185.086 45.5915 185.704 45.2021C186.322 44.8128 187.056 44.6182 187.907 44.6182C188.58 44.6182 189.187 44.7515 189.729 45.0181C190.274 45.2804 190.721 45.6444 191.068 46.1099C191.419 46.5754 191.633 47.1107 191.709 47.7158V47.7539H190.293L190.287 47.7285C190.202 47.3519 190.048 47.026 189.824 46.751C189.599 46.4759 189.324 46.2622 188.999 46.1099C188.673 45.9575 188.309 45.8813 187.907 45.8813C187.361 45.8813 186.887 46.0252 186.485 46.313C186.087 46.6007 185.778 47.0091 185.558 47.5381C185.342 48.0628 185.234 48.6891 185.234 49.417V49.4297C185.234 50.1491 185.342 50.7733 185.558 51.3022C185.778 51.8312 186.087 52.2396 186.485 52.5273C186.887 52.8151 187.363 52.959 187.913 52.959C188.315 52.959 188.679 52.8913 189.005 52.7559C189.335 52.6204 189.61 52.4279 189.83 52.1782C190.05 51.9243 190.2 51.626 190.281 51.2832L190.293 51.2578H191.715L191.709 51.2896C191.62 51.8778 191.404 52.3919 191.062 52.832C190.719 53.2721 190.279 53.6149 189.741 53.8604C189.204 54.1016 188.592 54.2222 187.907 54.2222ZM196.343 54.1333C195.67 54.1333 195.088 53.9894 194.597 53.7017C194.111 53.4139 193.736 53.0034 193.474 52.4702C193.211 51.9328 193.08 51.2959 193.08 50.5596V50.5469C193.08 49.8063 193.211 49.1694 193.474 48.6362C193.74 48.103 194.117 47.6925 194.604 47.4048C195.094 47.117 195.674 46.9731 196.343 46.9731C197.016 46.9731 197.595 47.117 198.082 47.4048C198.569 47.6883 198.943 48.0988 199.206 48.6362C199.472 49.1694 199.605 49.8063 199.605 50.5469V50.5596C199.605 51.2959 199.472 51.9328 199.206 52.4702C198.943 53.0034 198.569 53.4139 198.082 53.7017C197.6 53.9894 197.02 54.1333 196.343 54.1333ZM196.343 52.978C196.736 52.978 197.071 52.8828 197.346 52.6924C197.621 52.4977 197.83 52.2205 197.974 51.8608C198.118 51.5011 198.19 51.0674 198.19 50.5596V50.5469C198.19 50.0348 198.118 49.599 197.974 49.2393C197.83 48.8796 197.621 48.6045 197.346 48.4141C197.071 48.2194 196.736 48.1221 196.343 48.1221C195.949 48.1221 195.615 48.2194 195.34 48.4141C195.065 48.6045 194.853 48.8796 194.705 49.2393C194.561 49.599 194.489 50.0348 194.489 50.5469V50.5596C194.489 51.0674 194.561 51.5011 194.705 51.8608C194.853 52.2205 195.065 52.4977 195.34 52.6924C195.615 52.8828 195.949 52.978 196.343 52.978ZM203.757 54.1143C203.181 54.1143 202.678 53.9704 202.246 53.6826C201.819 53.3906 201.486 52.978 201.25 52.4448C201.017 51.9116 200.9 51.2832 200.9 50.5596V50.5469C200.9 49.819 201.017 49.1885 201.25 48.6553C201.482 48.1221 201.812 47.7116 202.24 47.4238C202.667 47.1318 203.173 46.9858 203.757 46.9858C204.074 46.9858 204.37 47.0366 204.646 47.1382C204.921 47.2355 205.164 47.3752 205.375 47.5571C205.587 47.7349 205.754 47.9486 205.877 48.1982H205.979V44.4023H207.362V54H205.979V52.9146H205.877C205.742 53.1642 205.57 53.38 205.363 53.562C205.155 53.7397 204.916 53.8773 204.646 53.9746C204.375 54.0677 204.078 54.1143 203.757 54.1143ZM204.15 52.9336C204.531 52.9336 204.861 52.8384 205.141 52.6479C205.42 52.4575 205.634 52.1846 205.782 51.8291C205.93 51.4694 206.004 51.0462 206.004 50.5596V50.5469C206.004 50.056 205.928 49.6328 205.775 49.2773C205.627 48.9219 205.414 48.6489 205.134 48.4585C204.859 48.2638 204.531 48.1665 204.15 48.1665C203.77 48.1665 203.439 48.2638 203.16 48.4585C202.885 48.6489 202.674 48.9219 202.525 49.2773C202.382 49.6286 202.31 50.0518 202.31 50.5469V50.5596C202.31 51.0505 202.382 51.4736 202.525 51.8291C202.674 52.1846 202.885 52.4575 203.16 52.6479C203.439 52.8384 203.77 52.9336 204.15 52.9336ZM210.079 56.4248C209.994 56.4248 209.903 56.4206 209.806 56.4121C209.709 56.4079 209.616 56.4015 209.527 56.3931V55.3076C209.595 55.3161 209.669 55.3224 209.749 55.3267C209.834 55.3309 209.914 55.333 209.99 55.333C210.312 55.333 210.572 55.2568 210.771 55.1045C210.97 54.9564 211.12 54.7088 211.222 54.3618L211.323 54.0063L208.822 47.1064H210.314L212.263 53.3208L211.831 52.6099H212.358L211.933 53.3208L213.875 47.1064H215.329L212.764 54.2603C212.569 54.8104 212.354 55.242 212.117 55.5552C211.88 55.8726 211.598 56.0968 211.272 56.228C210.947 56.3592 210.549 56.4248 210.079 56.4248Z" fill="#DBE2F0"></path><mask id="path-10-inside-1_3579_3231" fill="white"></mask><path d="M309.671 45.5303L313.177 49.0364L314.238 47.9758L310.732 44.4697L309.671 45.5303ZM313.177 49.39L309.671 52.8961L310.732 53.9567L314.238 50.4506L313.177 49.39ZM313.177 49.0364C313.275 49.1341 313.275 49.2923 313.177 49.39L314.238 50.4506C314.921 49.7672 314.921 48.6592 314.238 47.9758L313.177 49.0364Z" fill="#F5F7FB" mask="url(#path-10-inside-1_3579_3231)"></path><rect x="168.5" y="33.5" width="160" height="32" rx="7.5" stroke="#5F4D76" stroke-opacity="0.5" shape-rendering="crispEdges"></rect></g><g filter="url(#filter1_bdd_3579_3231)"><rect x="324" y="25" width="177" height="138" rx="8" fill="#383838" fill-opacity="0.5" shape-rendering="crispEdges"></rect><path d="M340.149 46V36.8403H345.963V38.0718H341.571V40.7441H345.729V41.9248H341.571V44.7686H345.963V46H340.149ZM350.375 46.1143C349.799 46.1143 349.296 45.9704 348.864 45.6826C348.437 45.3906 348.105 44.978 347.868 44.4448C347.635 43.9116 347.519 43.2832 347.519 42.5596V42.5469C347.519 41.819 347.635 41.1885 347.868 40.6553C348.1 40.1221 348.431 39.7116 348.858 39.4238C349.285 39.1318 349.791 38.9858 350.375 38.9858C350.692 38.9858 350.989 39.0366 351.264 39.1382C351.539 39.2355 351.782 39.3752 351.994 39.5571C352.205 39.7349 352.372 39.9486 352.495 40.1982H352.597V36.4023H353.98V46H352.597V44.9146H352.495C352.36 45.1642 352.188 45.38 351.981 45.562C351.774 45.7397 351.535 45.8773 351.264 45.9746C350.993 46.0677 350.697 46.1143 350.375 46.1143ZM350.769 44.9336C351.149 44.9336 351.479 44.8384 351.759 44.6479C352.038 44.4575 352.252 44.1846 352.4 43.8291C352.548 43.4694 352.622 43.0462 352.622 42.5596V42.5469C352.622 42.056 352.546 41.6328 352.394 41.2773C352.245 40.9219 352.032 40.6489 351.752 40.4585C351.477 40.2638 351.149 40.1665 350.769 40.1665C350.388 40.1665 350.058 40.2638 349.778 40.4585C349.503 40.6489 349.292 40.9219 349.144 41.2773C349 41.6286 348.928 42.0518 348.928 42.5469V42.5596C348.928 43.0505 349 43.4736 349.144 43.8291C349.292 44.1846 349.503 44.4575 349.778 44.6479C350.058 44.8384 350.388 44.9336 350.769 44.9336ZM356.043 46V39.1064H357.427V46H356.043ZM356.742 37.875C356.505 37.875 356.302 37.7904 356.132 37.6211C355.963 37.4518 355.878 37.2487 355.878 37.0117C355.878 36.7747 355.963 36.5737 356.132 36.4087C356.302 36.2394 356.505 36.1548 356.742 36.1548C356.979 36.1548 357.182 36.2394 357.351 36.4087C357.52 36.5737 357.605 36.7747 357.605 37.0117C357.605 37.2487 357.52 37.4518 357.351 37.6211C357.182 37.7904 356.979 37.875 356.742 37.875ZM362.029 46.0444C361.276 46.0444 360.73 45.9006 360.392 45.6128C360.057 45.3208 359.89 44.8447 359.89 44.1846V40.1919H358.811V39.1064H359.89V37.3672H361.299V39.1064H362.778V40.1919H361.299V43.8481C361.299 44.2205 361.373 44.4893 361.521 44.6543C361.67 44.8151 361.915 44.8955 362.258 44.8955C362.359 44.8955 362.446 44.8934 362.518 44.8892C362.594 44.8849 362.681 44.8786 362.778 44.8701V45.9746C362.668 45.9915 362.55 46.0063 362.423 46.019C362.296 46.036 362.165 46.0444 362.029 46.0444ZM371.849 46.2222C371.003 46.2222 370.269 46.0275 369.646 45.6382C369.029 45.2489 368.553 44.6966 368.218 43.9814C367.884 43.2663 367.717 42.4157 367.717 41.4297V41.417C367.717 40.4268 367.884 39.5741 368.218 38.8589C368.553 38.1437 369.029 37.5915 369.646 37.2021C370.264 36.8128 370.999 36.6182 371.849 36.6182C372.522 36.6182 373.129 36.7515 373.671 37.0181C374.217 37.2804 374.663 37.6444 375.01 38.1099C375.361 38.5754 375.575 39.1107 375.651 39.7158V39.7539H374.236L374.229 39.7285C374.145 39.3519 373.99 39.026 373.766 38.751C373.542 38.4759 373.267 38.2622 372.941 38.1099C372.615 37.9575 372.251 37.8813 371.849 37.8813C371.303 37.8813 370.829 38.0252 370.427 38.313C370.029 38.6007 369.721 39.0091 369.5 39.5381C369.285 40.0628 369.177 40.6891 369.177 41.417V41.4297C369.177 42.1491 369.285 42.7733 369.5 43.3022C369.721 43.8312 370.029 44.2396 370.427 44.5273C370.829 44.8151 371.305 44.959 371.855 44.959C372.257 44.959 372.621 44.8913 372.947 44.7559C373.277 44.6204 373.552 44.4279 373.772 44.1782C373.993 43.9243 374.143 43.626 374.223 43.2832L374.236 43.2578H375.658L375.651 43.2896C375.562 43.8778 375.347 44.3919 375.004 44.832C374.661 45.2721 374.221 45.6149 373.684 45.8604C373.146 46.1016 372.535 46.2222 371.849 46.2222ZM380.285 46.1333C379.612 46.1333 379.03 45.9894 378.54 45.7017C378.053 45.4139 377.678 45.0034 377.416 44.4702C377.154 43.9328 377.022 43.2959 377.022 42.5596V42.5469C377.022 41.8063 377.154 41.1694 377.416 40.6362C377.683 40.103 378.059 39.6925 378.546 39.4048C379.037 39.117 379.617 38.9731 380.285 38.9731C380.958 38.9731 381.538 39.117 382.024 39.4048C382.511 39.6883 382.886 40.0988 383.148 40.6362C383.415 41.1694 383.548 41.8063 383.548 42.5469V42.5596C383.548 43.2959 383.415 43.9328 383.148 44.4702C382.886 45.0034 382.511 45.4139 382.024 45.7017C381.542 45.9894 380.962 46.1333 380.285 46.1333ZM380.285 44.978C380.679 44.978 381.013 44.8828 381.288 44.6924C381.563 44.4977 381.773 44.2205 381.917 43.8608C382.06 43.5011 382.132 43.0674 382.132 42.5596V42.5469C382.132 42.0348 382.06 41.599 381.917 41.2393C381.773 40.8796 381.563 40.6045 381.288 40.4141C381.013 40.2194 380.679 40.1221 380.285 40.1221C379.892 40.1221 379.557 40.2194 379.282 40.4141C379.007 40.6045 378.796 40.8796 378.647 41.2393C378.504 41.599 378.432 42.0348 378.432 42.5469V42.5596C378.432 43.0674 378.504 43.5011 378.647 43.8608C378.796 44.2205 379.007 44.4977 379.282 44.6924C379.557 44.8828 379.892 44.978 380.285 44.978ZM387.699 46.1143C387.124 46.1143 386.62 45.9704 386.188 45.6826C385.761 45.3906 385.429 44.978 385.192 44.4448C384.959 43.9116 384.843 43.2832 384.843 42.5596V42.5469C384.843 41.819 384.959 41.1885 385.192 40.6553C385.425 40.1221 385.755 39.7116 386.182 39.4238C386.61 39.1318 387.115 38.9858 387.699 38.9858C388.017 38.9858 388.313 39.0366 388.588 39.1382C388.863 39.2355 389.106 39.3752 389.318 39.5571C389.529 39.7349 389.697 39.9486 389.819 40.1982H389.921V36.4023H391.305V46H389.921V44.9146H389.819C389.684 45.1642 389.513 45.38 389.305 45.562C389.098 45.7397 388.859 45.8773 388.588 45.9746C388.317 46.0677 388.021 46.1143 387.699 46.1143ZM388.093 44.9336C388.474 44.9336 388.804 44.8384 389.083 44.6479C389.362 44.4575 389.576 44.1846 389.724 43.8291C389.872 43.4694 389.946 43.0462 389.946 42.5596V42.5469C389.946 42.056 389.87 41.6328 389.718 41.2773C389.57 40.9219 389.356 40.6489 389.077 40.4585C388.802 40.2638 388.474 40.1665 388.093 40.1665C387.712 40.1665 387.382 40.2638 387.103 40.4585C386.827 40.6489 386.616 40.9219 386.468 41.2773C386.324 41.6286 386.252 42.0518 386.252 42.5469V42.5596C386.252 43.0505 386.324 43.4736 386.468 43.8291C386.616 44.1846 386.827 44.4575 387.103 44.6479C387.382 44.8384 387.712 44.9336 388.093 44.9336ZM396.243 46.1333C395.57 46.1333 394.993 45.9894 394.51 45.7017C394.028 45.4097 393.655 44.9971 393.393 44.4639C393.135 43.9307 393.006 43.3001 393.006 42.5723V42.5659C393.006 41.8465 393.135 41.2181 393.393 40.6807C393.655 40.1432 394.024 39.7243 394.498 39.4238C394.976 39.1234 395.534 38.9731 396.173 38.9731C396.817 38.9731 397.369 39.117 397.83 39.4048C398.296 39.6925 398.653 40.0967 398.903 40.6172C399.153 41.1335 399.277 41.7386 399.277 42.4326V42.915H393.704V41.9312H398.592L397.932 42.8452V42.293C397.932 41.8021 397.855 41.3958 397.703 41.0742C397.555 40.7484 397.35 40.505 397.087 40.3442C396.825 40.1834 396.522 40.103 396.18 40.103C395.837 40.103 395.53 40.1877 395.259 40.3569C394.993 40.522 394.781 40.7674 394.625 41.0933C394.472 41.4191 394.396 41.819 394.396 42.293V42.8452C394.396 43.298 394.472 43.6852 394.625 44.0068C394.777 44.3285 394.993 44.5739 395.272 44.7432C395.556 44.9124 395.89 44.9971 396.275 44.9971C396.571 44.9971 396.825 44.9569 397.037 44.8765C397.252 44.7918 397.428 44.6882 397.563 44.5654C397.703 44.4427 397.798 44.3221 397.849 44.2036L397.875 44.1528H399.208L399.195 44.21C399.136 44.4385 399.032 44.667 398.884 44.8955C398.736 45.1198 398.539 45.325 398.293 45.5112C398.052 45.6974 397.76 45.8477 397.417 45.9619C397.079 46.0762 396.688 46.1333 396.243 46.1333Z" fill="#F5F7FB"></path><path d="M340.149 67V57.8403H343.456C344.366 57.8403 345.142 58.0202 345.786 58.3799C346.429 58.7396 346.92 59.258 347.258 59.9351C347.601 60.6121 347.772 61.431 347.772 62.3916V62.4043C347.772 63.3734 347.601 64.2007 347.258 64.8862C346.92 65.5718 346.429 66.0965 345.786 66.4604C345.147 66.8201 344.37 67 343.456 67H340.149ZM341.571 65.7686H343.297C343.936 65.7686 344.48 65.6374 344.929 65.375C345.382 65.1126 345.724 64.7318 345.957 64.2324C346.194 63.7331 346.312 63.13 346.312 62.4233V62.4106C346.312 61.7082 346.192 61.1073 345.951 60.6079C345.714 60.1086 345.371 59.7277 344.922 59.4653C344.474 59.203 343.932 59.0718 343.297 59.0718H341.571V65.7686ZM352.457 67.1333C351.784 67.1333 351.202 66.9894 350.711 66.7017C350.225 66.4139 349.85 66.0034 349.588 65.4702C349.326 64.9328 349.194 64.2959 349.194 63.5596V63.5469C349.194 62.8063 349.326 62.1694 349.588 61.6362C349.854 61.103 350.231 60.6925 350.718 60.4048C351.209 60.117 351.788 59.9731 352.457 59.9731C353.13 59.9731 353.71 60.117 354.196 60.4048C354.683 60.6883 355.057 61.0988 355.32 61.6362C355.586 62.1694 355.72 62.8063 355.72 63.5469V63.5596C355.72 64.2959 355.586 64.9328 355.32 65.4702C355.057 66.0034 354.683 66.4139 354.196 66.7017C353.714 66.9894 353.134 67.1333 352.457 67.1333ZM352.457 65.978C352.851 65.978 353.185 65.8828 353.46 65.6924C353.735 65.4977 353.944 65.2205 354.088 64.8608C354.232 64.5011 354.304 64.0674 354.304 63.5596V63.5469C354.304 63.0348 354.232 62.599 354.088 62.2393C353.944 61.8796 353.735 61.6045 353.46 61.4141C353.185 61.2194 352.851 61.1221 352.457 61.1221C352.063 61.1221 351.729 61.2194 351.454 61.4141C351.179 61.6045 350.967 61.8796 350.819 62.2393C350.675 62.599 350.604 63.0348 350.604 63.5469V63.5596C350.604 64.0674 350.675 64.5011 350.819 64.8608C350.967 65.2205 351.179 65.4977 351.454 65.6924C351.729 65.8828 352.063 65.978 352.457 65.978ZM360.258 67.1333C359.59 67.1333 359.012 66.9894 358.525 66.7017C358.043 66.4097 357.671 65.995 357.408 65.4575C357.146 64.9201 357.015 64.279 357.015 63.5342V63.5215C357.015 62.7894 357.144 62.1589 357.402 61.6299C357.664 61.1009 358.037 60.6925 358.519 60.4048C359.006 60.117 359.583 59.9731 360.252 59.9731C360.832 59.9731 361.329 60.0747 361.744 60.2778C362.163 60.4767 362.495 60.7518 362.74 61.103C362.99 61.45 363.146 61.8457 363.21 62.29L363.216 62.3218H361.89L361.883 62.3091C361.807 61.9705 361.632 61.6891 361.356 61.4648C361.081 61.2363 360.715 61.1221 360.258 61.1221C359.877 61.1221 359.549 61.2194 359.274 61.4141C358.999 61.6045 358.788 61.8796 358.64 62.2393C358.496 62.599 358.424 63.0264 358.424 63.5215V63.5342C358.424 64.042 358.498 64.4779 358.646 64.8418C358.794 65.2057 359.006 65.4871 359.281 65.686C359.556 65.8807 359.882 65.978 360.258 65.978C360.69 65.978 361.039 65.8828 361.306 65.6924C361.576 65.502 361.767 65.2205 361.877 64.8481L361.89 64.8164L363.21 64.8101L363.197 64.8672C363.117 65.3158 362.954 65.7093 362.708 66.0479C362.463 66.3864 362.135 66.653 361.725 66.8477C361.318 67.0381 360.83 67.1333 360.258 67.1333ZM367.069 67.1333C366.553 67.1333 366.117 67.0339 365.762 66.835C365.41 66.6318 365.146 66.3398 364.968 65.959C364.795 65.5739 364.708 65.1105 364.708 64.5688V60.1064H366.085V64.2451C366.085 64.8122 366.198 65.2375 366.422 65.521C366.646 65.8045 367.012 65.9463 367.52 65.9463C367.791 65.9463 368.032 65.9061 368.244 65.8257C368.455 65.741 368.633 65.6204 368.777 65.4639C368.921 65.3073 369.027 65.119 369.094 64.8989C369.166 64.6789 369.202 64.4292 369.202 64.1499V60.1064H370.586V67H369.202V65.959H369.101C368.991 66.2044 368.84 66.416 368.65 66.5938C368.459 66.7673 368.231 66.9006 367.964 66.9937C367.702 67.0868 367.404 67.1333 367.069 67.1333ZM372.566 67V60.1064H373.944V61.1665H374.052C374.204 60.7856 374.441 60.4915 374.763 60.2842C375.089 60.0768 375.478 59.9731 375.931 59.9731C376.244 59.9731 376.525 60.0239 376.775 60.1255C377.025 60.2271 377.238 60.3709 377.416 60.5571C377.598 60.7391 377.74 60.9549 377.841 61.2046H377.949C378.063 60.9549 378.224 60.7391 378.432 60.5571C378.639 60.3709 378.88 60.2271 379.155 60.1255C379.435 60.0239 379.731 59.9731 380.044 59.9731C380.509 59.9731 380.907 60.0641 381.237 60.2461C381.567 60.4238 381.819 60.682 381.993 61.0205C382.166 61.359 382.253 61.7674 382.253 62.2456V67H380.875V62.5757C380.875 62.2583 380.827 61.9959 380.729 61.7886C380.632 61.577 380.484 61.4183 380.285 61.3125C380.09 61.2067 379.845 61.1538 379.549 61.1538C379.257 61.1538 379.001 61.2215 378.781 61.3569C378.565 61.4881 378.396 61.6659 378.273 61.8901C378.154 62.1102 378.095 62.3599 378.095 62.6392V67H376.718V62.436C376.718 62.1737 376.663 61.9473 376.553 61.7568C376.447 61.5622 376.295 61.4141 376.096 61.3125C375.897 61.2067 375.662 61.1538 375.391 61.1538C375.116 61.1538 374.868 61.2257 374.648 61.3696C374.433 61.5135 374.261 61.7082 374.134 61.9536C374.007 62.1948 373.944 62.4657 373.944 62.7661V67H372.566ZM387.077 67.1333C386.404 67.1333 385.827 66.9894 385.344 66.7017C384.862 66.4097 384.489 65.9971 384.227 65.4639C383.969 64.9307 383.84 64.3001 383.84 63.5723V63.5659C383.84 62.8465 383.969 62.2181 384.227 61.6807C384.489 61.1432 384.858 60.7243 385.332 60.4238C385.81 60.1234 386.368 59.9731 387.007 59.9731C387.651 59.9731 388.203 60.117 388.664 60.4048C389.13 60.6925 389.487 61.0967 389.737 61.6172C389.986 62.1335 390.111 62.7386 390.111 63.4326V63.915H384.538V62.9312H389.426L388.766 63.8452V63.293C388.766 62.8021 388.689 62.3958 388.537 62.0742C388.389 61.7484 388.184 61.505 387.921 61.3442C387.659 61.1834 387.356 61.103 387.014 61.103C386.671 61.103 386.364 61.1877 386.093 61.3569C385.827 61.522 385.615 61.7674 385.458 62.0933C385.306 62.4191 385.23 62.819 385.23 63.293V63.8452C385.23 64.298 385.306 64.6852 385.458 65.0068C385.611 65.3285 385.827 65.5739 386.106 65.7432C386.389 65.9124 386.724 65.9971 387.109 65.9971C387.405 65.9971 387.659 65.9569 387.871 65.8765C388.086 65.7918 388.262 65.6882 388.397 65.5654C388.537 65.4427 388.632 65.3221 388.683 65.2036L388.708 65.1528H390.042L390.029 65.21C389.97 65.4385 389.866 65.667 389.718 65.8955C389.57 66.1198 389.373 66.325 389.127 66.5112C388.886 66.6974 388.594 66.8477 388.251 66.9619C387.913 67.0762 387.521 67.1333 387.077 67.1333ZM391.749 67V60.1064H393.126V61.1475H393.234C393.404 60.7793 393.653 60.4915 393.983 60.2842C394.313 60.0768 394.73 59.9731 395.234 59.9731C396.008 59.9731 396.601 60.1953 397.011 60.6396C397.422 61.084 397.627 61.7166 397.627 62.5376V67H396.243V62.8613C396.243 62.2858 396.123 61.8584 395.881 61.5791C395.644 61.2956 395.272 61.1538 394.764 61.1538C394.43 61.1538 394.14 61.2279 393.895 61.376C393.649 61.5199 393.459 61.7272 393.323 61.998C393.192 62.2646 393.126 62.5841 393.126 62.9565V67H391.749ZM402.146 67.0444C401.393 67.0444 400.847 66.9006 400.509 66.6128C400.174 66.3208 400.007 65.8447 400.007 65.1846V61.1919H398.928V60.1064H400.007V58.3672H401.417V60.1064H402.896V61.1919H401.417V64.8481C401.417 65.2205 401.491 65.4893 401.639 65.6543C401.787 65.8151 402.032 65.8955 402.375 65.8955C402.477 65.8955 402.563 65.8934 402.635 65.8892C402.711 65.8849 402.798 65.8786 402.896 65.8701V66.9746C402.785 66.9915 402.667 67.0063 402.54 67.019C402.413 67.036 402.282 67.0444 402.146 67.0444ZM411.966 67.2222C411.12 67.2222 410.386 67.0275 409.764 66.6382C409.146 66.2489 408.67 65.6966 408.335 64.9814C408.001 64.2663 407.834 63.4157 407.834 62.4297V62.417C407.834 61.4268 408.001 60.5741 408.335 59.8589C408.67 59.1437 409.146 58.5915 409.764 58.2021C410.382 57.8128 411.116 57.6182 411.966 57.6182C412.639 57.6182 413.246 57.7515 413.788 58.0181C414.334 58.2804 414.78 58.6444 415.127 59.1099C415.479 59.5754 415.692 60.1107 415.769 60.7158V60.7539H414.353L414.347 60.7285C414.262 60.3519 414.108 60.026 413.883 59.751C413.659 59.4759 413.384 59.2622 413.058 59.1099C412.732 58.9575 412.368 58.8813 411.966 58.8813C411.42 58.8813 410.946 59.0252 410.544 59.313C410.147 59.6007 409.838 60.0091 409.618 60.5381C409.402 61.0628 409.294 61.6891 409.294 62.417V62.4297C409.294 63.1491 409.402 63.7733 409.618 64.3022C409.838 64.8312 410.147 65.2396 410.544 65.5273C410.946 65.8151 411.423 65.959 411.973 65.959C412.375 65.959 412.739 65.8913 413.064 65.7559C413.395 65.6204 413.67 65.4279 413.89 65.1782C414.11 64.9243 414.26 64.626 414.34 64.2832L414.353 64.2578H415.775L415.769 64.2896C415.68 64.8778 415.464 65.3919 415.121 65.832C414.778 66.2721 414.338 66.6149 413.801 66.8604C413.263 67.1016 412.652 67.2222 411.966 67.2222ZM420.402 67.1333C419.729 67.1333 419.148 66.9894 418.657 66.7017C418.17 66.4139 417.796 66.0034 417.533 65.4702C417.271 64.9328 417.14 64.2959 417.14 63.5596V63.5469C417.14 62.8063 417.271 62.1694 417.533 61.6362C417.8 61.103 418.176 60.6925 418.663 60.4048C419.154 60.117 419.734 59.9731 420.402 59.9731C421.075 59.9731 421.655 60.117 422.142 60.4048C422.628 60.6883 423.003 61.0988 423.265 61.6362C423.532 62.1694 423.665 62.8063 423.665 63.5469V63.5596C423.665 64.2959 423.532 64.9328 423.265 65.4702C423.003 66.0034 422.628 66.4139 422.142 66.7017C421.659 66.9894 421.079 67.1333 420.402 67.1333ZM420.402 65.978C420.796 65.978 421.13 65.8828 421.405 65.6924C421.68 65.4977 421.89 65.2205 422.034 64.8608C422.178 64.5011 422.25 64.0674 422.25 63.5596V63.5469C422.25 63.0348 422.178 62.599 422.034 62.2393C421.89 61.8796 421.68 61.6045 421.405 61.4141C421.13 61.2194 420.796 61.1221 420.402 61.1221C420.009 61.1221 419.674 61.2194 419.399 61.4141C419.124 61.6045 418.913 61.8796 418.765 62.2393C418.621 62.599 418.549 63.0348 418.549 63.5469V63.5596C418.549 64.0674 418.621 64.5011 418.765 64.8608C418.913 65.2205 419.124 65.4977 419.399 65.6924C419.674 65.8828 420.009 65.978 420.402 65.978ZM427.816 67.1143C427.241 67.1143 426.737 66.9704 426.306 66.6826C425.878 66.3906 425.546 65.978 425.309 65.4448C425.076 64.9116 424.96 64.2832 424.96 63.5596V63.5469C424.96 62.819 425.076 62.1885 425.309 61.6553C425.542 61.1221 425.872 60.7116 426.299 60.4238C426.727 60.1318 427.232 59.9858 427.816 59.9858C428.134 59.9858 428.43 60.0366 428.705 60.1382C428.98 60.2355 429.223 60.3752 429.435 60.5571C429.647 60.7349 429.814 60.9486 429.937 61.1982H430.038V57.4023H431.422V67H430.038V65.9146H429.937C429.801 66.1642 429.63 66.38 429.422 66.562C429.215 66.7397 428.976 66.8773 428.705 66.9746C428.434 67.0677 428.138 67.1143 427.816 67.1143ZM428.21 65.9336C428.591 65.9336 428.921 65.8384 429.2 65.6479C429.479 65.4575 429.693 65.1846 429.841 64.8291C429.989 64.4694 430.063 64.0462 430.063 63.5596V63.5469C430.063 63.056 429.987 62.6328 429.835 62.2773C429.687 61.9219 429.473 61.6489 429.194 61.4585C428.919 61.2638 428.591 61.1665 428.21 61.1665C427.829 61.1665 427.499 61.2638 427.22 61.4585C426.945 61.6489 426.733 61.9219 426.585 62.2773C426.441 62.6286 426.369 63.0518 426.369 63.5469V63.5596C426.369 64.0505 426.441 64.4736 426.585 64.8291C426.733 65.1846 426.945 65.4575 427.22 65.6479C427.499 65.8384 427.829 65.9336 428.21 65.9336ZM436.36 67.1333C435.688 67.1333 435.11 66.9894 434.627 66.7017C434.145 66.4097 433.773 65.9971 433.51 65.4639C433.252 64.9307 433.123 64.3001 433.123 63.5723V63.5659C433.123 62.8465 433.252 62.2181 433.51 61.6807C433.773 61.1432 434.141 60.7243 434.615 60.4238C435.093 60.1234 435.652 59.9731 436.291 59.9731C436.934 59.9731 437.486 60.117 437.947 60.4048C438.413 60.6925 438.77 61.0967 439.02 61.6172C439.27 62.1335 439.395 62.7386 439.395 63.4326V63.915H433.821V62.9312H438.709L438.049 63.8452V63.293C438.049 62.8021 437.973 62.3958 437.82 62.0742C437.672 61.7484 437.467 61.505 437.205 61.3442C436.942 61.1834 436.64 61.103 436.297 61.103C435.954 61.103 435.647 61.1877 435.376 61.3569C435.11 61.522 434.898 61.7674 434.742 62.0933C434.589 62.4191 434.513 62.819 434.513 63.293V63.8452C434.513 64.298 434.589 64.6852 434.742 65.0068C434.894 65.3285 435.11 65.5739 435.389 65.7432C435.673 65.9124 436.007 65.9971 436.392 65.9971C436.688 65.9971 436.942 65.9569 437.154 65.8765C437.37 65.7918 437.545 65.6882 437.681 65.5654C437.82 65.4427 437.916 65.3221 437.966 65.2036L437.992 65.1528H439.325L439.312 65.21C439.253 65.4385 439.149 65.667 439.001 65.8955C438.853 66.1198 438.656 66.325 438.411 66.5112C438.169 66.6974 437.877 66.8477 437.535 66.9619C437.196 67.0762 436.805 67.1333 436.36 67.1333Z" fill="#F5F7FB"></path><rect x="329" y="73" width="167" height="21" rx="4" fill="#2C59BB"></rect><path d="M340.149 88V78.8403H345.963V80.0718H341.571V82.7441H345.729V83.9248H341.571V86.7686H345.963V88H340.149ZM347.328 88L349.62 84.5659L347.309 81.1064H348.909L350.394 83.5693H350.502L351.968 81.1064H353.492L351.219 84.5088L353.517 88H351.949L350.445 85.5181H350.337L348.833 88H347.328ZM354.945 90.2979V81.1064H356.323V82.1919H356.431C356.562 81.938 356.731 81.7222 356.938 81.5444C357.15 81.3667 357.391 81.2292 357.662 81.1318C357.933 81.0345 358.229 80.9858 358.551 80.9858C359.131 80.9858 359.634 81.134 360.062 81.4302C360.489 81.7222 360.819 82.1348 361.052 82.668C361.289 83.1969 361.407 83.8232 361.407 84.5469V84.5596C361.407 85.2874 361.291 85.918 361.058 86.4512C360.825 86.9801 360.495 87.3906 360.068 87.6826C359.64 87.9704 359.135 88.1143 358.551 88.1143C358.233 88.1143 357.937 88.0656 357.662 87.9683C357.387 87.8667 357.144 87.7271 356.932 87.5493C356.721 87.3716 356.553 87.1579 356.431 86.9082H356.323V90.2979H354.945ZM358.157 86.9336C358.542 86.9336 358.872 86.8384 359.147 86.6479C359.423 86.4575 359.632 86.1846 359.776 85.8291C359.924 85.4736 359.998 85.0505 359.998 84.5596V84.5469C359.998 84.0518 359.924 83.6265 359.776 83.271C359.632 82.9155 359.423 82.6426 359.147 82.4521C358.872 82.2617 358.542 82.1665 358.157 82.1665C357.776 82.1665 357.446 82.2638 357.167 82.4585C356.888 82.6489 356.674 82.9219 356.526 83.2773C356.378 83.6286 356.304 84.0518 356.304 84.5469V84.5596C356.304 85.0462 356.378 85.4673 356.526 85.8228C356.674 86.1782 356.888 86.4533 357.167 86.6479C357.446 86.8384 357.776 86.9336 358.157 86.9336ZM363.121 88V78.4023H364.499V88H363.121ZM368.44 88.1143C368.005 88.1143 367.613 88.0317 367.266 87.8667C366.923 87.6974 366.653 87.4583 366.454 87.1494C366.255 86.8405 366.155 86.4787 366.155 86.064V86.0513C366.155 85.6366 366.255 85.2832 366.454 84.9912C366.657 84.6992 366.949 84.4707 367.33 84.3057C367.715 84.1364 368.18 84.0348 368.726 84.001L371.271 83.8486V84.8198L368.917 84.9722C368.443 85.0018 368.093 85.1034 367.869 85.2769C367.645 85.4461 367.533 85.6852 367.533 85.9941V86.0068C367.533 86.32 367.653 86.5675 367.895 86.7495C368.136 86.9272 368.44 87.0161 368.809 87.0161C369.151 87.0161 369.456 86.9484 369.723 86.813C369.993 86.6733 370.205 86.4871 370.357 86.2544C370.51 86.0174 370.586 85.7508 370.586 85.4546V83.2837C370.586 82.9028 370.467 82.613 370.23 82.4141C369.998 82.2109 369.651 82.1094 369.189 82.1094C368.804 82.1094 368.489 82.1771 368.244 82.3125C368.002 82.4479 367.842 82.6383 367.761 82.8838L367.749 82.9028H366.422L366.428 82.8584C366.483 82.4775 366.633 82.1475 366.879 81.8682C367.129 81.5846 367.454 81.3646 367.856 81.208C368.263 81.0514 368.726 80.9731 369.247 80.9731C369.826 80.9731 370.317 81.0662 370.719 81.2524C371.125 81.4344 371.432 81.6989 371.64 82.0459C371.851 82.3887 371.957 82.8013 371.957 83.2837V88H370.586V87.0225H370.484C370.349 87.2552 370.18 87.4541 369.977 87.6191C369.773 87.7799 369.543 87.9027 369.285 87.9873C369.027 88.0719 368.745 88.1143 368.44 88.1143ZM373.918 88V81.1064H375.302V88H373.918ZM374.617 79.875C374.38 79.875 374.177 79.7904 374.007 79.6211C373.838 79.4518 373.753 79.2487 373.753 79.0117C373.753 78.7747 373.838 78.5737 374.007 78.4087C374.177 78.2394 374.38 78.1548 374.617 78.1548C374.854 78.1548 375.057 78.2394 375.226 78.4087C375.395 78.5737 375.48 78.7747 375.48 79.0117C375.48 79.2487 375.395 79.4518 375.226 79.6211C375.057 79.7904 374.854 79.875 374.617 79.875ZM377.302 88V81.1064H378.679V82.1475H378.787C378.956 81.7793 379.206 81.4915 379.536 81.2842C379.866 81.0768 380.283 80.9731 380.787 80.9731C381.561 80.9731 382.153 81.1953 382.564 81.6396C382.974 82.084 383.18 82.7166 383.18 83.5376V88H381.796V83.8613C381.796 83.2858 381.675 82.8584 381.434 82.5791C381.197 82.2956 380.825 82.1538 380.317 82.1538C379.983 82.1538 379.693 82.2279 379.447 82.376C379.202 82.5199 379.011 82.7272 378.876 82.998C378.745 83.2646 378.679 83.5841 378.679 83.9565V88H377.302ZM392.555 88.2222C391.709 88.2222 390.975 88.0275 390.353 87.6382C389.735 87.2489 389.259 86.6966 388.924 85.9814C388.59 85.2663 388.423 84.4157 388.423 83.4297V83.417C388.423 82.4268 388.59 81.5741 388.924 80.8589C389.259 80.1437 389.735 79.5915 390.353 79.2021C390.97 78.8128 391.705 78.6182 392.555 78.6182C393.228 78.6182 393.835 78.7515 394.377 79.0181C394.923 79.2804 395.369 79.6444 395.716 80.1099C396.068 80.5754 396.281 81.1107 396.357 81.7158V81.7539H394.942L394.936 81.7285C394.851 81.3519 394.696 81.026 394.472 80.751C394.248 80.4759 393.973 80.2622 393.647 80.1099C393.321 79.9575 392.957 79.8813 392.555 79.8813C392.009 79.8813 391.535 80.0252 391.133 80.313C390.736 80.6007 390.427 81.0091 390.207 81.5381C389.991 82.0628 389.883 82.6891 389.883 83.417V83.4297C389.883 84.1491 389.991 84.7733 390.207 85.3022C390.427 85.8312 390.736 86.2396 391.133 86.5273C391.535 86.8151 392.011 86.959 392.562 86.959C392.964 86.959 393.327 86.8913 393.653 86.7559C393.983 86.6204 394.258 86.4279 394.479 86.1782C394.699 85.9243 394.849 85.626 394.929 85.2832L394.942 85.2578H396.364L396.357 85.2896C396.269 85.8778 396.053 86.3919 395.71 86.832C395.367 87.2721 394.927 87.6149 394.39 87.8604C393.852 88.1016 393.241 88.2222 392.555 88.2222ZM400.991 88.1333C400.318 88.1333 399.736 87.9894 399.246 87.7017C398.759 87.4139 398.384 87.0034 398.122 86.4702C397.86 85.9328 397.729 85.2959 397.729 84.5596V84.5469C397.729 83.8063 397.86 83.1694 398.122 82.6362C398.389 82.103 398.765 81.6925 399.252 81.4048C399.743 81.117 400.323 80.9731 400.991 80.9731C401.664 80.9731 402.244 81.117 402.73 81.4048C403.217 81.6883 403.592 82.0988 403.854 82.6362C404.121 83.1694 404.254 83.8063 404.254 84.5469V84.5596C404.254 85.2959 404.121 85.9328 403.854 86.4702C403.592 87.0034 403.217 87.4139 402.73 87.7017C402.248 87.9894 401.668 88.1333 400.991 88.1333ZM400.991 86.978C401.385 86.978 401.719 86.8828 401.994 86.6924C402.269 86.4977 402.479 86.2205 402.623 85.8608C402.766 85.5011 402.838 85.0674 402.838 84.5596V84.5469C402.838 84.0348 402.766 83.599 402.623 83.2393C402.479 82.8796 402.269 82.6045 401.994 82.4141C401.719 82.2194 401.385 82.1221 400.991 82.1221C400.598 82.1221 400.263 82.2194 399.988 82.4141C399.713 82.6045 399.502 82.8796 399.354 83.2393C399.21 83.599 399.138 84.0348 399.138 84.5469V84.5596C399.138 85.0674 399.21 85.5011 399.354 85.8608C399.502 86.2205 399.713 86.4977 399.988 86.6924C400.263 86.8828 400.598 86.978 400.991 86.978ZM408.405 88.1143C407.83 88.1143 407.326 87.9704 406.895 87.6826C406.467 87.3906 406.135 86.978 405.898 86.4448C405.665 85.9116 405.549 85.2832 405.549 84.5596V84.5469C405.549 83.819 405.665 83.1885 405.898 82.6553C406.131 82.1221 406.461 81.7116 406.888 81.4238C407.316 81.1318 407.821 80.9858 408.405 80.9858C408.723 80.9858 409.019 81.0366 409.294 81.1382C409.569 81.2355 409.812 81.3752 410.024 81.5571C410.236 81.7349 410.403 81.9486 410.525 82.1982H410.627V78.4023H412.011V88H410.627V86.9146H410.525C410.39 87.1642 410.219 87.38 410.011 87.562C409.804 87.7397 409.565 87.8773 409.294 87.9746C409.023 88.0677 408.727 88.1143 408.405 88.1143ZM408.799 86.9336C409.18 86.9336 409.51 86.8384 409.789 86.6479C410.068 86.4575 410.282 86.1846 410.43 85.8291C410.578 85.4694 410.652 85.0462 410.652 84.5596V84.5469C410.652 84.056 410.576 83.6328 410.424 83.2773C410.276 82.9219 410.062 82.6489 409.783 82.4585C409.508 82.2638 409.18 82.1665 408.799 82.1665C408.418 82.1665 408.088 82.2638 407.809 82.4585C407.534 82.6489 407.322 82.9219 407.174 83.2773C407.03 83.6286 406.958 84.0518 406.958 84.5469V84.5596C406.958 85.0505 407.03 85.4736 407.174 85.8291C407.322 86.1846 407.534 86.4575 407.809 86.6479C408.088 86.8384 408.418 86.9336 408.799 86.9336ZM416.949 88.1333C416.276 88.1333 415.699 87.9894 415.216 87.7017C414.734 87.4097 414.361 86.9971 414.099 86.4639C413.841 85.9307 413.712 85.3001 413.712 84.5723V84.5659C413.712 83.8465 413.841 83.2181 414.099 82.6807C414.361 82.1432 414.73 81.7243 415.204 81.4238C415.682 81.1234 416.24 80.9731 416.879 80.9731C417.523 80.9731 418.075 81.117 418.536 81.4048C419.002 81.6925 419.359 82.0967 419.609 82.6172C419.859 83.1335 419.983 83.7386 419.983 84.4326V84.915H414.41V83.9312H419.298L418.638 84.8452V84.293C418.638 83.8021 418.562 83.3958 418.409 83.0742C418.261 82.7484 418.056 82.505 417.793 82.3442C417.531 82.1834 417.229 82.103 416.886 82.103C416.543 82.103 416.236 82.1877 415.965 82.3569C415.699 82.522 415.487 82.7674 415.331 83.0933C415.178 83.4191 415.102 83.819 415.102 84.293V84.8452C415.102 85.298 415.178 85.6852 415.331 86.0068C415.483 86.3285 415.699 86.5739 415.978 86.7432C416.262 86.9124 416.596 86.9971 416.981 86.9971C417.277 86.9971 417.531 86.9569 417.743 86.8765C417.958 86.7918 418.134 86.6882 418.27 86.5654C418.409 86.4427 418.504 86.3221 418.555 86.2036L418.581 86.1528H419.914L419.901 86.21C419.842 86.4385 419.738 86.667 419.59 86.8955C419.442 87.1198 419.245 87.325 419 87.5112C418.758 87.6974 418.466 87.8477 418.124 87.9619C417.785 88.0762 417.394 88.1333 416.949 88.1333Z" fill="#DBE2F0"></path><path d="M344.015 109.222C343.359 109.222 342.771 109.112 342.25 108.892C341.729 108.668 341.285 108.346 340.917 107.927C340.549 107.508 340.265 107.005 340.066 106.417C339.872 105.824 339.774 105.16 339.774 104.423V104.411C339.774 103.437 339.948 102.593 340.295 101.878C340.642 101.159 341.133 100.602 341.768 100.208C342.402 99.8149 343.145 99.6182 343.996 99.6182C344.69 99.6182 345.31 99.7409 345.855 99.9863C346.401 100.232 346.85 100.577 347.201 101.021C347.552 101.461 347.783 101.977 347.893 102.57L347.899 102.633H346.471L346.452 102.57C346.291 102.028 345.997 101.611 345.57 101.319C345.147 101.027 344.622 100.881 343.996 100.881C343.433 100.881 342.944 101.025 342.529 101.313C342.115 101.601 341.793 102.009 341.564 102.538C341.34 103.063 341.228 103.685 341.228 104.404V104.417C341.228 104.963 341.292 105.454 341.418 105.89C341.55 106.326 341.738 106.698 341.983 107.007C342.229 107.312 342.523 107.546 342.866 107.711C343.208 107.876 343.596 107.959 344.027 107.959C344.527 107.959 344.965 107.862 345.341 107.667C345.722 107.468 346.018 107.193 346.23 106.842C346.442 106.491 346.549 106.08 346.554 105.61L346.56 105.407H344.205V104.258H347.969V105.395C347.969 105.974 347.876 106.499 347.69 106.969C347.504 107.438 347.237 107.843 346.89 108.181C346.543 108.515 346.126 108.774 345.64 108.956C345.153 109.133 344.611 109.222 344.015 109.222ZM352.66 109.133C351.987 109.133 351.41 108.989 350.927 108.702C350.445 108.41 350.072 107.997 349.81 107.464C349.552 106.931 349.423 106.3 349.423 105.572V105.566C349.423 104.847 349.552 104.218 349.81 103.681C350.072 103.143 350.441 102.724 350.915 102.424C351.393 102.123 351.951 101.973 352.59 101.973C353.234 101.973 353.786 102.117 354.247 102.405C354.713 102.693 355.07 103.097 355.32 103.617C355.569 104.133 355.694 104.739 355.694 105.433V105.915H350.121V104.931H355.009L354.349 105.845V105.293C354.349 104.802 354.272 104.396 354.12 104.074C353.972 103.748 353.767 103.505 353.504 103.344C353.242 103.183 352.939 103.103 352.597 103.103C352.254 103.103 351.947 103.188 351.676 103.357C351.41 103.522 351.198 103.767 351.042 104.093C350.889 104.419 350.813 104.819 350.813 105.293V105.845C350.813 106.298 350.889 106.685 351.042 107.007C351.194 107.328 351.41 107.574 351.689 107.743C351.972 107.912 352.307 107.997 352.692 107.997C352.988 107.997 353.242 107.957 353.454 107.876C353.669 107.792 353.845 107.688 353.98 107.565C354.12 107.443 354.215 107.322 354.266 107.204L354.292 107.153H355.625L355.612 107.21C355.553 107.438 355.449 107.667 355.301 107.896C355.153 108.12 354.956 108.325 354.71 108.511C354.469 108.697 354.177 108.848 353.834 108.962C353.496 109.076 353.104 109.133 352.66 109.133ZM357.332 109V102.106H358.709V103.147H358.817C358.987 102.779 359.236 102.492 359.566 102.284C359.896 102.077 360.313 101.973 360.817 101.973C361.591 101.973 362.184 102.195 362.594 102.64C363.005 103.084 363.21 103.717 363.21 104.538V109H361.826V104.861C361.826 104.286 361.706 103.858 361.464 103.579C361.227 103.296 360.855 103.154 360.347 103.154C360.013 103.154 359.723 103.228 359.478 103.376C359.232 103.52 359.042 103.727 358.906 103.998C358.775 104.265 358.709 104.584 358.709 104.957V109H357.332ZM368.021 109.133C367.349 109.133 366.771 108.989 366.289 108.702C365.806 108.41 365.434 107.997 365.171 107.464C364.913 106.931 364.784 106.3 364.784 105.572V105.566C364.784 104.847 364.913 104.218 365.171 103.681C365.434 103.143 365.802 102.724 366.276 102.424C366.754 102.123 367.313 101.973 367.952 101.973C368.595 101.973 369.147 102.117 369.608 102.405C370.074 102.693 370.431 103.097 370.681 103.617C370.931 104.133 371.056 104.739 371.056 105.433V105.915H365.482V104.931H370.37L369.71 105.845V105.293C369.71 104.802 369.634 104.396 369.481 104.074C369.333 103.748 369.128 103.505 368.866 103.344C368.603 103.183 368.301 103.103 367.958 103.103C367.615 103.103 367.308 103.188 367.038 103.357C366.771 103.522 366.559 103.767 366.403 104.093C366.25 104.419 366.174 104.819 366.174 105.293V105.845C366.174 106.298 366.25 106.685 366.403 107.007C366.555 107.328 366.771 107.574 367.05 107.743C367.334 107.912 367.668 107.997 368.053 107.997C368.349 107.997 368.603 107.957 368.815 107.876C369.031 107.792 369.206 107.688 369.342 107.565C369.481 107.443 369.577 107.322 369.627 107.204L369.653 107.153H370.986L370.973 107.21C370.914 107.438 370.81 107.667 370.662 107.896C370.514 108.12 370.317 108.325 370.072 108.511C369.831 108.697 369.539 108.848 369.196 108.962C368.857 109.076 368.466 109.133 368.021 109.133ZM372.693 109V102.106H374.071V103.147H374.179C374.301 102.779 374.517 102.494 374.826 102.291C375.139 102.087 375.524 101.986 375.981 101.986C376.096 101.986 376.208 101.992 376.318 102.005C376.428 102.018 376.517 102.032 376.584 102.049V103.319C376.462 103.293 376.339 103.274 376.216 103.262C376.098 103.249 375.973 103.243 375.842 103.243C375.491 103.243 375.182 103.31 374.915 103.446C374.653 103.581 374.445 103.772 374.293 104.017C374.145 104.258 374.071 104.546 374.071 104.88V109H372.693ZM379.752 109.114C379.316 109.114 378.925 109.032 378.578 108.867C378.235 108.697 377.964 108.458 377.765 108.149C377.566 107.84 377.467 107.479 377.467 107.064V107.051C377.467 106.637 377.566 106.283 377.765 105.991C377.968 105.699 378.26 105.471 378.641 105.306C379.026 105.136 379.492 105.035 380.038 105.001L382.583 104.849V105.82L380.228 105.972C379.754 106.002 379.405 106.103 379.181 106.277C378.956 106.446 378.844 106.685 378.844 106.994V107.007C378.844 107.32 378.965 107.568 379.206 107.75C379.447 107.927 379.752 108.016 380.12 108.016C380.463 108.016 380.768 107.948 381.034 107.813C381.305 107.673 381.517 107.487 381.669 107.254C381.821 107.017 381.897 106.751 381.897 106.455V104.284C381.897 103.903 381.779 103.613 381.542 103.414C381.309 103.211 380.962 103.109 380.501 103.109C380.116 103.109 379.801 103.177 379.555 103.312C379.314 103.448 379.153 103.638 379.073 103.884L379.06 103.903H377.733L377.74 103.858C377.795 103.478 377.945 103.147 378.19 102.868C378.44 102.585 378.766 102.365 379.168 102.208C379.574 102.051 380.038 101.973 380.558 101.973C381.138 101.973 381.629 102.066 382.031 102.252C382.437 102.434 382.744 102.699 382.951 103.046C383.163 103.389 383.269 103.801 383.269 104.284V109H381.897V108.022H381.796C381.66 108.255 381.491 108.454 381.288 108.619C381.085 108.78 380.854 108.903 380.596 108.987C380.338 109.072 380.057 109.114 379.752 109.114ZM387.813 109.044C387.06 109.044 386.514 108.901 386.176 108.613C385.841 108.321 385.674 107.845 385.674 107.185V103.192H384.595V102.106H385.674V100.367H387.083V102.106H388.562V103.192H387.083V106.848C387.083 107.221 387.158 107.489 387.306 107.654C387.454 107.815 387.699 107.896 388.042 107.896C388.144 107.896 388.23 107.893 388.302 107.889C388.378 107.885 388.465 107.879 388.562 107.87V108.975C388.452 108.992 388.334 109.006 388.207 109.019C388.08 109.036 387.949 109.044 387.813 109.044ZM392.993 109.133C392.32 109.133 391.743 108.989 391.26 108.702C390.778 108.41 390.405 107.997 390.143 107.464C389.885 106.931 389.756 106.3 389.756 105.572V105.566C389.756 104.847 389.885 104.218 390.143 103.681C390.405 103.143 390.774 102.724 391.248 102.424C391.726 102.123 392.284 101.973 392.923 101.973C393.567 101.973 394.119 102.117 394.58 102.405C395.046 102.693 395.403 103.097 395.653 103.617C395.903 104.133 396.027 104.739 396.027 105.433V105.915H390.454V104.931H395.342L394.682 105.845V105.293C394.682 104.802 394.605 104.396 394.453 104.074C394.305 103.748 394.1 103.505 393.837 103.344C393.575 103.183 393.272 103.103 392.93 103.103C392.587 103.103 392.28 103.188 392.009 103.357C391.743 103.522 391.531 103.767 391.375 104.093C391.222 104.419 391.146 104.819 391.146 105.293V105.845C391.146 106.298 391.222 106.685 391.375 107.007C391.527 107.328 391.743 107.574 392.022 107.743C392.306 107.912 392.64 107.997 393.025 107.997C393.321 107.997 393.575 107.957 393.787 107.876C394.002 107.792 394.178 107.688 394.313 107.565C394.453 107.443 394.548 107.322 394.599 107.204L394.625 107.153H395.958L395.945 107.21C395.886 107.438 395.782 107.667 395.634 107.896C395.486 108.12 395.289 108.325 395.043 108.511C394.802 108.697 394.51 108.848 394.167 108.962C393.829 109.076 393.438 109.133 392.993 109.133ZM405.066 109.222C404.3 109.222 403.64 109.08 403.086 108.797C402.532 108.513 402.104 108.12 401.804 107.616C401.503 107.108 401.353 106.518 401.353 105.845V99.8403H402.781V105.737C402.781 106.177 402.87 106.565 403.048 106.899C403.23 107.233 403.49 107.493 403.829 107.68C404.171 107.866 404.584 107.959 405.066 107.959C405.553 107.959 405.966 107.866 406.304 107.68C406.643 107.493 406.901 107.233 407.079 106.899C407.256 106.565 407.345 106.177 407.345 105.737V99.8403H408.773V105.845C408.773 106.518 408.623 107.108 408.323 107.616C408.027 108.12 407.601 108.513 407.047 108.797C406.497 109.08 405.837 109.222 405.066 109.222ZM410.906 109V102.106H412.284V103.147H412.392C412.561 102.779 412.811 102.492 413.141 102.284C413.471 102.077 413.888 101.973 414.391 101.973C415.166 101.973 415.758 102.195 416.168 102.64C416.579 103.084 416.784 103.717 416.784 104.538V109H415.4V104.861C415.4 104.286 415.28 103.858 415.039 103.579C414.802 103.296 414.429 103.154 413.921 103.154C413.587 103.154 413.297 103.228 413.052 103.376C412.806 103.52 412.616 103.727 412.48 103.998C412.349 104.265 412.284 104.584 412.284 104.957V109H410.906ZM418.72 109V102.106H420.104V109H418.72ZM419.418 100.875C419.181 100.875 418.978 100.79 418.809 100.621C418.64 100.452 418.555 100.249 418.555 100.012C418.555 99.7747 418.64 99.5737 418.809 99.4087C418.978 99.2394 419.181 99.1548 419.418 99.1548C419.655 99.1548 419.859 99.2394 420.028 99.4087C420.197 99.5737 420.282 99.7747 420.282 100.012C420.282 100.249 420.197 100.452 420.028 100.621C419.859 100.79 419.655 100.875 419.418 100.875ZM424.706 109.044C423.953 109.044 423.407 108.901 423.068 108.613C422.734 108.321 422.567 107.845 422.567 107.185V103.192H421.488V102.106H422.567V100.367H423.976V102.106H425.455V103.192H423.976V106.848C423.976 107.221 424.05 107.489 424.198 107.654C424.346 107.815 424.592 107.896 424.935 107.896C425.036 107.896 425.123 107.893 425.195 107.889C425.271 107.885 425.358 107.879 425.455 107.87V108.975C425.345 108.992 425.227 109.006 425.1 109.019C424.973 109.036 424.841 109.044 424.706 109.044ZM433.091 109V101.072H430.209V99.8403H437.395V101.072H434.513V109H433.091ZM440.626 109.133C439.953 109.133 439.375 108.989 438.893 108.702C438.411 108.41 438.038 107.997 437.776 107.464C437.518 106.931 437.389 106.3 437.389 105.572V105.566C437.389 104.847 437.518 104.218 437.776 103.681C438.038 103.143 438.406 102.724 438.88 102.424C439.359 102.123 439.917 101.973 440.556 101.973C441.199 101.973 441.752 102.117 442.213 102.405C442.678 102.693 443.036 103.097 443.286 103.617C443.535 104.133 443.66 104.739 443.66 105.433V105.915H438.087V104.931H442.975L442.314 105.845V105.293C442.314 104.802 442.238 104.396 442.086 104.074C441.938 103.748 441.733 103.505 441.47 103.344C441.208 103.183 440.905 103.103 440.562 103.103C440.22 103.103 439.913 103.188 439.642 103.357C439.375 103.522 439.164 103.767 439.007 104.093C438.855 104.419 438.779 104.819 438.779 105.293V105.845C438.779 106.298 438.855 106.685 439.007 107.007C439.16 107.328 439.375 107.574 439.655 107.743C439.938 107.912 440.273 107.997 440.658 107.997C440.954 107.997 441.208 107.957 441.419 107.876C441.635 107.792 441.811 107.688 441.946 107.565C442.086 107.443 442.181 107.322 442.232 107.204L442.257 107.153H443.59L443.578 107.21C443.518 107.438 443.415 107.667 443.267 107.896C443.118 108.12 442.922 108.325 442.676 108.511C442.435 108.697 442.143 108.848 441.8 108.962C441.462 109.076 441.07 109.133 440.626 109.133ZM447.805 109.133C447.251 109.133 446.768 109.053 446.358 108.892C445.947 108.727 445.622 108.501 445.38 108.213C445.139 107.921 444.997 107.582 444.955 107.197V107.185H446.339V107.197C446.428 107.455 446.597 107.665 446.847 107.826C447.096 107.986 447.426 108.067 447.837 108.067C448.12 108.067 448.368 108.027 448.58 107.946C448.795 107.866 448.965 107.754 449.087 107.61C449.21 107.466 449.271 107.301 449.271 107.115V107.102C449.271 106.886 449.185 106.704 449.011 106.556C448.838 106.408 448.552 106.287 448.154 106.194L447.05 105.94C446.618 105.843 446.261 105.71 445.977 105.541C445.694 105.371 445.484 105.164 445.349 104.918C445.213 104.669 445.146 104.377 445.146 104.042V104.036C445.146 103.634 445.26 103.279 445.488 102.97C445.717 102.657 446.032 102.413 446.434 102.24C446.84 102.062 447.304 101.973 447.824 101.973C448.349 101.973 448.806 102.056 449.195 102.221C449.589 102.382 449.9 102.606 450.128 102.894C450.357 103.177 450.492 103.507 450.535 103.884V103.89H449.214V103.877C449.151 103.636 448.999 103.435 448.757 103.274C448.52 103.114 448.207 103.033 447.818 103.033C447.568 103.033 447.346 103.073 447.151 103.154C446.957 103.23 446.802 103.338 446.688 103.478C446.578 103.613 446.523 103.774 446.523 103.96V103.973C446.523 104.117 446.559 104.243 446.631 104.354C446.707 104.459 446.826 104.555 446.986 104.639C447.147 104.72 447.354 104.792 447.608 104.855L448.707 105.103C449.367 105.259 449.858 105.486 450.179 105.782C450.505 106.078 450.668 106.476 450.668 106.975V106.988C450.668 107.411 450.543 107.785 450.293 108.111C450.044 108.433 449.703 108.685 449.271 108.867C448.844 109.044 448.355 109.133 447.805 109.133ZM454.857 109.044C454.104 109.044 453.558 108.901 453.22 108.613C452.885 108.321 452.718 107.845 452.718 107.185V103.192H451.639V102.106H452.718V100.367H454.127V102.106H455.606V103.192H454.127V106.848C454.127 107.221 454.201 107.489 454.35 107.654C454.498 107.815 454.743 107.896 455.086 107.896C455.188 107.896 455.274 107.893 455.346 107.889C455.422 107.885 455.509 107.879 455.606 107.87V108.975C455.496 108.992 455.378 109.006 455.251 109.019C455.124 109.036 454.993 109.044 454.857 109.044ZM459.625 109.133C459.07 109.133 458.588 109.053 458.177 108.892C457.767 108.727 457.441 108.501 457.2 108.213C456.958 107.921 456.817 107.582 456.774 107.197V107.185H458.158V107.197C458.247 107.455 458.416 107.665 458.666 107.826C458.916 107.986 459.246 108.067 459.656 108.067C459.94 108.067 460.187 108.027 460.399 107.946C460.615 107.866 460.784 107.754 460.907 107.61C461.029 107.466 461.091 107.301 461.091 107.115V107.102C461.091 106.886 461.004 106.704 460.831 106.556C460.657 106.408 460.371 106.287 459.974 106.194L458.869 105.94C458.438 105.843 458.08 105.71 457.796 105.541C457.513 105.371 457.303 105.164 457.168 104.918C457.033 104.669 456.965 104.377 456.965 104.042V104.036C456.965 103.634 457.079 103.279 457.308 102.97C457.536 102.657 457.851 102.413 458.253 102.24C458.66 102.062 459.123 101.973 459.644 101.973C460.168 101.973 460.625 102.056 461.015 102.221C461.408 102.382 461.719 102.606 461.948 102.894C462.176 103.177 462.312 103.507 462.354 103.884V103.89H461.034V103.877C460.97 103.636 460.818 103.435 460.577 103.274C460.34 103.114 460.027 103.033 459.637 103.033C459.388 103.033 459.165 103.073 458.971 103.154C458.776 103.23 458.622 103.338 458.507 103.478C458.397 103.613 458.342 103.774 458.342 103.96V103.973C458.342 104.117 458.378 104.243 458.45 104.354C458.526 104.459 458.645 104.555 458.806 104.639C458.966 104.72 459.174 104.792 459.428 104.855L460.526 105.103C461.186 105.259 461.677 105.486 461.999 105.782C462.324 106.078 462.487 106.476 462.487 106.975V106.988C462.487 107.411 462.362 107.785 462.113 108.111C461.863 108.433 461.522 108.685 461.091 108.867C460.663 109.044 460.175 109.133 459.625 109.133Z" fill="#F5F7FB"></path><path d="M340.149 130V120.84H345.868V122.072H341.571V124.966H345.506V126.166H341.571V130H340.149ZM347.576 130V123.106H348.959V130H347.576ZM348.274 121.875C348.037 121.875 347.834 121.79 347.665 121.621C347.495 121.452 347.411 121.249 347.411 121.012C347.411 120.775 347.495 120.574 347.665 120.409C347.834 120.239 348.037 120.155 348.274 120.155C348.511 120.155 348.714 120.239 348.883 120.409C349.053 120.574 349.137 120.775 349.137 121.012C349.137 121.249 349.053 121.452 348.883 121.621C348.714 121.79 348.511 121.875 348.274 121.875ZM350.959 130V123.106H352.336V124.147H352.444C352.614 123.779 352.863 123.492 353.193 123.284C353.523 123.077 353.94 122.973 354.444 122.973C355.218 122.973 355.811 123.195 356.221 123.64C356.632 124.084 356.837 124.717 356.837 125.538V130H355.453V125.861C355.453 125.286 355.333 124.858 355.091 124.579C354.854 124.296 354.482 124.154 353.974 124.154C353.64 124.154 353.35 124.228 353.104 124.376C352.859 124.52 352.669 124.727 352.533 124.998C352.402 125.265 352.336 125.584 352.336 125.957V130H350.959ZM361.268 130.114C360.692 130.114 360.188 129.97 359.757 129.683C359.329 129.391 358.997 128.978 358.76 128.445C358.528 127.912 358.411 127.283 358.411 126.56V126.547C358.411 125.819 358.528 125.188 358.76 124.655C358.993 124.122 359.323 123.712 359.75 123.424C360.178 123.132 360.684 122.986 361.268 122.986C361.585 122.986 361.881 123.037 362.156 123.138C362.431 123.236 362.675 123.375 362.886 123.557C363.098 123.735 363.265 123.949 363.388 124.198H363.489V120.402H364.873V130H363.489V128.915H363.388C363.252 129.164 363.081 129.38 362.874 129.562C362.666 129.74 362.427 129.877 362.156 129.975C361.885 130.068 361.589 130.114 361.268 130.114ZM361.661 128.934C362.042 128.934 362.372 128.838 362.651 128.648C362.931 128.458 363.144 128.185 363.292 127.829C363.441 127.469 363.515 127.046 363.515 126.56V126.547C363.515 126.056 363.438 125.633 363.286 125.277C363.138 124.922 362.924 124.649 362.645 124.458C362.37 124.264 362.042 124.167 361.661 124.167C361.28 124.167 360.95 124.264 360.671 124.458C360.396 124.649 360.184 124.922 360.036 125.277C359.892 125.629 359.82 126.052 359.82 126.547V126.56C359.82 127.05 359.892 127.474 360.036 127.829C360.184 128.185 360.396 128.458 360.671 128.648C360.95 128.838 361.28 128.934 361.661 128.934ZM374.375 130.222C373.529 130.222 372.795 130.028 372.173 129.638C371.555 129.249 371.079 128.697 370.745 127.981C370.41 127.266 370.243 126.416 370.243 125.43V125.417C370.243 124.427 370.41 123.574 370.745 122.859C371.079 122.144 371.555 121.591 372.173 121.202C372.791 120.813 373.525 120.618 374.375 120.618C375.048 120.618 375.656 120.751 376.197 121.018C376.743 121.28 377.19 121.644 377.537 122.11C377.888 122.575 378.102 123.111 378.178 123.716V123.754H376.762L376.756 123.729C376.671 123.352 376.517 123.026 376.292 122.751C376.068 122.476 375.793 122.262 375.467 122.11C375.141 121.958 374.778 121.881 374.375 121.881C373.83 121.881 373.356 122.025 372.954 122.313C372.556 122.601 372.247 123.009 372.027 123.538C371.811 124.063 371.703 124.689 371.703 125.417V125.43C371.703 126.149 371.811 126.773 372.027 127.302C372.247 127.831 372.556 128.24 372.954 128.527C373.356 128.815 373.832 128.959 374.382 128.959C374.784 128.959 375.148 128.891 375.474 128.756C375.804 128.62 376.079 128.428 376.299 128.178C376.519 127.924 376.669 127.626 376.75 127.283L376.762 127.258H378.184L378.178 127.29C378.089 127.878 377.873 128.392 377.53 128.832C377.188 129.272 376.747 129.615 376.21 129.86C375.673 130.102 375.061 130.222 374.375 130.222ZM382.812 130.133C382.139 130.133 381.557 129.989 381.066 129.702C380.579 129.414 380.205 129.003 379.942 128.47C379.68 127.933 379.549 127.296 379.549 126.56V126.547C379.549 125.806 379.68 125.169 379.942 124.636C380.209 124.103 380.586 123.693 381.072 123.405C381.563 123.117 382.143 122.973 382.812 122.973C383.484 122.973 384.064 123.117 384.551 123.405C385.037 123.688 385.412 124.099 385.674 124.636C385.941 125.169 386.074 125.806 386.074 126.547V126.56C386.074 127.296 385.941 127.933 385.674 128.47C385.412 129.003 385.037 129.414 384.551 129.702C384.068 129.989 383.489 130.133 382.812 130.133ZM382.812 128.978C383.205 128.978 383.539 128.883 383.814 128.692C384.09 128.498 384.299 128.221 384.443 127.861C384.587 127.501 384.659 127.067 384.659 126.56V126.547C384.659 126.035 384.587 125.599 384.443 125.239C384.299 124.88 384.09 124.604 383.814 124.414C383.539 124.219 383.205 124.122 382.812 124.122C382.418 124.122 382.084 124.219 381.809 124.414C381.534 124.604 381.322 124.88 381.174 125.239C381.03 125.599 380.958 126.035 380.958 126.547V126.56C380.958 127.067 381.03 127.501 381.174 127.861C381.322 128.221 381.534 128.498 381.809 128.692C382.084 128.883 382.418 128.978 382.812 128.978ZM390.226 130.114C389.65 130.114 389.146 129.97 388.715 129.683C388.287 129.391 387.955 128.978 387.718 128.445C387.486 127.912 387.369 127.283 387.369 126.56V126.547C387.369 125.819 387.486 125.188 387.718 124.655C387.951 124.122 388.281 123.712 388.708 123.424C389.136 123.132 389.642 122.986 390.226 122.986C390.543 122.986 390.839 123.037 391.114 123.138C391.389 123.236 391.633 123.375 391.844 123.557C392.056 123.735 392.223 123.949 392.346 124.198H392.447V120.402H393.831V130H392.447V128.915H392.346C392.21 129.164 392.039 129.38 391.832 129.562C391.624 129.74 391.385 129.877 391.114 129.975C390.843 130.068 390.547 130.114 390.226 130.114ZM390.619 128.934C391 128.934 391.33 128.838 391.609 128.648C391.889 128.458 392.102 128.185 392.25 127.829C392.399 127.469 392.473 127.046 392.473 126.56V126.547C392.473 126.056 392.396 125.633 392.244 125.277C392.096 124.922 391.882 124.649 391.603 124.458C391.328 124.264 391 124.167 390.619 124.167C390.238 124.167 389.908 124.264 389.629 124.458C389.354 124.649 389.142 124.922 388.994 125.277C388.85 125.629 388.778 126.052 388.778 126.547V126.56C388.778 127.05 388.85 127.474 388.994 127.829C389.142 128.185 389.354 128.458 389.629 128.648C389.908 128.838 390.238 128.934 390.619 128.934ZM398.77 130.133C398.097 130.133 397.519 129.989 397.037 129.702C396.554 129.41 396.182 128.997 395.919 128.464C395.661 127.931 395.532 127.3 395.532 126.572V126.566C395.532 125.847 395.661 125.218 395.919 124.681C396.182 124.143 396.55 123.724 397.024 123.424C397.502 123.123 398.061 122.973 398.7 122.973C399.343 122.973 399.895 123.117 400.356 123.405C400.822 123.693 401.18 124.097 401.429 124.617C401.679 125.133 401.804 125.739 401.804 126.433V126.915H396.23V125.931H401.118L400.458 126.845V126.293C400.458 125.802 400.382 125.396 400.229 125.074C400.081 124.748 399.876 124.505 399.614 124.344C399.351 124.183 399.049 124.103 398.706 124.103C398.363 124.103 398.056 124.188 397.786 124.357C397.519 124.522 397.307 124.767 397.151 125.093C396.999 125.419 396.922 125.819 396.922 126.293V126.845C396.922 127.298 396.999 127.685 397.151 128.007C397.303 128.328 397.519 128.574 397.798 128.743C398.082 128.912 398.416 128.997 398.801 128.997C399.097 128.997 399.351 128.957 399.563 128.876C399.779 128.792 399.954 128.688 400.09 128.565C400.229 128.443 400.325 128.322 400.375 128.204L400.401 128.153H401.734L401.721 128.21C401.662 128.438 401.558 128.667 401.41 128.896C401.262 129.12 401.065 129.325 400.82 129.511C400.579 129.697 400.287 129.848 399.944 129.962C399.605 130.076 399.214 130.133 398.77 130.133ZM410.24 130.222C409.55 130.222 408.949 130.114 408.437 129.898C407.925 129.678 407.521 129.374 407.225 128.984C406.928 128.595 406.759 128.144 406.717 127.632L406.71 127.55H408.113L408.12 127.62C408.149 127.895 408.257 128.134 408.443 128.337C408.634 128.54 408.888 128.699 409.205 128.813C409.527 128.927 409.893 128.984 410.303 128.984C410.688 128.984 411.031 128.923 411.332 128.8C411.632 128.678 411.867 128.508 412.036 128.292C412.21 128.077 412.296 127.829 412.296 127.55V127.543C412.296 127.192 412.163 126.9 411.896 126.667C411.63 126.435 411.194 126.253 410.589 126.122L409.586 125.912C408.659 125.713 407.984 125.398 407.561 124.966C407.138 124.53 406.926 123.974 406.926 123.297V123.291C406.931 122.762 407.072 122.296 407.352 121.894C407.635 121.492 408.027 121.179 408.526 120.955C409.025 120.73 409.599 120.618 410.246 120.618C410.894 120.618 411.458 120.73 411.941 120.955C412.428 121.175 412.811 121.475 413.09 121.856C413.373 122.237 413.532 122.666 413.566 123.145L413.572 123.227H412.182L412.169 123.145C412.131 122.895 412.028 122.673 411.858 122.478C411.693 122.283 411.471 122.131 411.192 122.021C410.917 121.907 410.595 121.852 410.227 121.856C409.872 121.856 409.554 121.911 409.275 122.021C408.996 122.127 408.773 122.281 408.608 122.484C408.448 122.688 408.367 122.933 408.367 123.221V123.227C408.367 123.566 408.496 123.849 408.754 124.078C409.017 124.302 409.442 124.478 410.03 124.604L411.033 124.827C411.672 124.962 412.191 125.142 412.588 125.366C412.986 125.59 413.276 125.868 413.458 126.198C413.644 126.524 413.737 126.913 413.737 127.366V127.372C413.737 127.956 413.593 128.462 413.306 128.889C413.022 129.312 412.618 129.64 412.093 129.873C411.569 130.106 410.951 130.222 410.24 130.222ZM415.451 130V123.106H416.829V124.167H416.937C417.089 123.786 417.326 123.492 417.647 123.284C417.973 123.077 418.363 122.973 418.815 122.973C419.129 122.973 419.41 123.024 419.66 123.125C419.909 123.227 420.123 123.371 420.301 123.557C420.483 123.739 420.625 123.955 420.726 124.205H420.834C420.948 123.955 421.109 123.739 421.316 123.557C421.524 123.371 421.765 123.227 422.04 123.125C422.319 123.024 422.616 122.973 422.929 122.973C423.394 122.973 423.792 123.064 424.122 123.246C424.452 123.424 424.704 123.682 424.877 124.021C425.051 124.359 425.138 124.767 425.138 125.246V130H423.76V125.576C423.76 125.258 423.712 124.996 423.614 124.789C423.517 124.577 423.369 124.418 423.17 124.312C422.975 124.207 422.73 124.154 422.434 124.154C422.142 124.154 421.886 124.222 421.666 124.357C421.45 124.488 421.28 124.666 421.158 124.89C421.039 125.11 420.98 125.36 420.98 125.639V130H419.603V125.436C419.603 125.174 419.548 124.947 419.438 124.757C419.332 124.562 419.179 124.414 418.98 124.312C418.782 124.207 418.547 124.154 418.276 124.154C418.001 124.154 417.753 124.226 417.533 124.37C417.317 124.514 417.146 124.708 417.019 124.954C416.892 125.195 416.829 125.466 416.829 125.766V130H415.451ZM429.962 130.133C429.289 130.133 428.711 129.989 428.229 129.702C427.747 129.41 427.374 128.997 427.112 128.464C426.854 127.931 426.725 127.3 426.725 126.572V126.566C426.725 125.847 426.854 125.218 427.112 124.681C427.374 124.143 427.742 123.724 428.216 123.424C428.694 123.123 429.253 122.973 429.892 122.973C430.535 122.973 431.088 123.117 431.549 123.405C432.014 123.693 432.372 124.097 432.622 124.617C432.871 125.133 432.996 125.739 432.996 126.433V126.915H427.423V125.931H432.311L431.65 126.845V126.293C431.65 125.802 431.574 125.396 431.422 125.074C431.274 124.748 431.069 124.505 430.806 124.344C430.544 124.183 430.241 124.103 429.898 124.103C429.556 124.103 429.249 124.188 428.978 124.357C428.711 124.522 428.5 124.767 428.343 125.093C428.191 125.419 428.115 125.819 428.115 126.293V126.845C428.115 127.298 428.191 127.685 428.343 128.007C428.496 128.328 428.711 128.574 428.991 128.743C429.274 128.912 429.609 128.997 429.994 128.997C430.29 128.997 430.544 128.957 430.755 128.876C430.971 128.792 431.147 128.688 431.282 128.565C431.422 128.443 431.517 128.322 431.568 128.204L431.593 128.153H432.926L432.914 128.21C432.854 128.438 432.751 128.667 432.603 128.896C432.454 129.12 432.258 129.325 432.012 129.511C431.771 129.697 431.479 129.848 431.136 129.962C430.798 130.076 430.406 130.133 429.962 130.133ZM434.697 130V120.402H436.075V130H434.697ZM438.188 130V120.402H439.566V130H438.188ZM444.124 130.133C443.569 130.133 443.087 130.053 442.676 129.892C442.266 129.727 441.94 129.501 441.699 129.213C441.458 128.921 441.316 128.582 441.273 128.197V128.185H442.657V128.197C442.746 128.455 442.915 128.665 443.165 128.826C443.415 128.986 443.745 129.067 444.155 129.067C444.439 129.067 444.686 129.027 444.898 128.946C445.114 128.866 445.283 128.754 445.406 128.61C445.528 128.466 445.59 128.301 445.59 128.115V128.102C445.59 127.886 445.503 127.704 445.33 127.556C445.156 127.408 444.87 127.287 444.473 127.194L443.368 126.94C442.937 126.843 442.579 126.71 442.295 126.541C442.012 126.371 441.802 126.164 441.667 125.918C441.532 125.669 441.464 125.377 441.464 125.042V125.036C441.464 124.634 441.578 124.279 441.807 123.97C442.035 123.657 442.35 123.413 442.752 123.24C443.159 123.062 443.622 122.973 444.143 122.973C444.667 122.973 445.124 123.056 445.514 123.221C445.907 123.382 446.218 123.606 446.447 123.894C446.675 124.177 446.811 124.507 446.853 124.884V124.89H445.533V124.877C445.469 124.636 445.317 124.435 445.076 124.274C444.839 124.114 444.526 124.033 444.136 124.033C443.887 124.033 443.664 124.073 443.47 124.154C443.275 124.23 443.121 124.338 443.006 124.478C442.896 124.613 442.841 124.774 442.841 124.96V124.973C442.841 125.117 442.877 125.243 442.949 125.354C443.025 125.459 443.144 125.555 443.305 125.639C443.465 125.72 443.673 125.792 443.927 125.855L445.025 126.103C445.685 126.259 446.176 126.486 446.498 126.782C446.823 127.078 446.986 127.476 446.986 127.975V127.988C446.986 128.411 446.861 128.785 446.612 129.111C446.362 129.433 446.021 129.685 445.59 129.867C445.162 130.044 444.674 130.133 444.124 130.133Z" fill="#F5F7FB"></path><path d="M343.907 151.222C343.06 151.222 342.326 151.028 341.704 150.638C341.086 150.249 340.61 149.697 340.276 148.981C339.942 148.266 339.774 147.416 339.774 146.43V146.417C339.774 145.427 339.942 144.574 340.276 143.859C340.61 143.144 341.086 142.591 341.704 142.202C342.322 141.813 343.056 141.618 343.907 141.618C344.58 141.618 345.187 141.751 345.729 142.018C346.274 142.28 346.721 142.644 347.068 143.11C347.419 143.575 347.633 144.111 347.709 144.716V144.754H346.293L346.287 144.729C346.202 144.352 346.048 144.026 345.824 143.751C345.599 143.476 345.324 143.262 344.999 143.11C344.673 142.958 344.309 142.881 343.907 142.881C343.361 142.881 342.887 143.025 342.485 143.313C342.087 143.601 341.778 144.009 341.558 144.538C341.342 145.063 341.234 145.689 341.234 146.417V146.43C341.234 147.149 341.342 147.773 341.558 148.302C341.778 148.831 342.087 149.24 342.485 149.527C342.887 149.815 343.363 149.959 343.913 149.959C344.315 149.959 344.679 149.891 345.005 149.756C345.335 149.62 345.61 149.428 345.83 149.178C346.05 148.924 346.2 148.626 346.281 148.283L346.293 148.258H347.715L347.709 148.29C347.62 148.878 347.404 149.392 347.062 149.832C346.719 150.272 346.279 150.615 345.741 150.86C345.204 151.102 344.592 151.222 343.907 151.222ZM351.721 151.133C351.204 151.133 350.769 151.034 350.413 150.835C350.062 150.632 349.797 150.34 349.62 149.959C349.446 149.574 349.359 149.111 349.359 148.569V144.106H350.737V148.245C350.737 148.812 350.849 149.237 351.073 149.521C351.298 149.805 351.664 149.946 352.171 149.946C352.442 149.946 352.683 149.906 352.895 149.826C353.107 149.741 353.284 149.62 353.428 149.464C353.572 149.307 353.678 149.119 353.746 148.899C353.818 148.679 353.854 148.429 353.854 148.15V144.106H355.237V151H353.854V149.959H353.752C353.642 150.204 353.492 150.416 353.301 150.594C353.111 150.767 352.882 150.901 352.616 150.994C352.353 151.087 352.055 151.133 351.721 151.133ZM359.725 151.133C359.171 151.133 358.688 151.053 358.278 150.892C357.867 150.727 357.542 150.501 357.3 150.213C357.059 149.921 356.917 149.582 356.875 149.197V149.185H358.259V149.197C358.348 149.455 358.517 149.665 358.767 149.826C359.016 149.986 359.346 150.067 359.757 150.067C360.04 150.067 360.288 150.027 360.5 149.946C360.715 149.866 360.885 149.754 361.007 149.61C361.13 149.466 361.191 149.301 361.191 149.115V149.102C361.191 148.886 361.105 148.704 360.931 148.556C360.758 148.408 360.472 148.287 360.074 148.194L358.97 147.94C358.538 147.843 358.181 147.71 357.897 147.541C357.613 147.371 357.404 147.164 357.269 146.918C357.133 146.669 357.065 146.377 357.065 146.042V146.036C357.065 145.634 357.18 145.279 357.408 144.97C357.637 144.657 357.952 144.413 358.354 144.24C358.76 144.062 359.224 143.973 359.744 143.973C360.269 143.973 360.726 144.056 361.115 144.221C361.509 144.382 361.82 144.606 362.048 144.894C362.277 145.177 362.412 145.507 362.455 145.884V145.89H361.134V145.877C361.071 145.636 360.918 145.435 360.677 145.274C360.44 145.114 360.127 145.033 359.738 145.033C359.488 145.033 359.266 145.073 359.071 145.154C358.877 145.23 358.722 145.338 358.608 145.478C358.498 145.613 358.443 145.774 358.443 145.96V145.973C358.443 146.117 358.479 146.243 358.551 146.354C358.627 146.459 358.745 146.555 358.906 146.639C359.067 146.72 359.274 146.792 359.528 146.855L360.626 147.103C361.287 147.259 361.778 147.486 362.099 147.782C362.425 148.078 362.588 148.476 362.588 148.975V148.988C362.588 149.411 362.463 149.785 362.213 150.111C361.964 150.433 361.623 150.685 361.191 150.867C360.764 151.044 360.275 151.133 359.725 151.133ZM366.777 151.044C366.024 151.044 365.478 150.901 365.14 150.613C364.805 150.321 364.638 149.845 364.638 149.185V145.192H363.559V144.106H364.638V142.367H366.047V144.106H367.526V145.192H366.047V148.848C366.047 149.221 366.121 149.489 366.27 149.654C366.418 149.815 366.663 149.896 367.006 149.896C367.107 149.896 367.194 149.893 367.266 149.889C367.342 149.885 367.429 149.879 367.526 149.87V150.975C367.416 150.992 367.298 151.006 367.171 151.019C367.044 151.036 366.913 151.044 366.777 151.044ZM371.982 151.133C371.31 151.133 370.728 150.989 370.237 150.702C369.75 150.414 369.376 150.003 369.113 149.47C368.851 148.933 368.72 148.296 368.72 147.56V147.547C368.72 146.806 368.851 146.169 369.113 145.636C369.38 145.103 369.757 144.693 370.243 144.405C370.734 144.117 371.314 143.973 371.982 143.973C372.655 143.973 373.235 144.117 373.722 144.405C374.208 144.688 374.583 145.099 374.845 145.636C375.112 146.169 375.245 146.806 375.245 147.547V147.56C375.245 148.296 375.112 148.933 374.845 149.47C374.583 150.003 374.208 150.414 373.722 150.702C373.239 150.989 372.66 151.133 371.982 151.133ZM371.982 149.978C372.376 149.978 372.71 149.883 372.985 149.692C373.26 149.498 373.47 149.221 373.614 148.861C373.758 148.501 373.83 148.067 373.83 147.56V147.547C373.83 147.035 373.758 146.599 373.614 146.239C373.47 145.88 373.26 145.604 372.985 145.414C372.71 145.219 372.376 145.122 371.982 145.122C371.589 145.122 371.255 145.219 370.979 145.414C370.704 145.604 370.493 145.88 370.345 146.239C370.201 146.599 370.129 147.035 370.129 147.547V147.56C370.129 148.067 370.201 148.501 370.345 148.861C370.493 149.221 370.704 149.498 370.979 149.692C371.255 149.883 371.589 149.978 371.982 149.978ZM376.883 151V144.106H378.26V145.167H378.368C378.521 144.786 378.757 144.492 379.079 144.284C379.405 144.077 379.794 143.973 380.247 143.973C380.56 143.973 380.842 144.024 381.091 144.125C381.341 144.227 381.555 144.371 381.732 144.557C381.914 144.739 382.056 144.955 382.158 145.205H382.266C382.38 144.955 382.541 144.739 382.748 144.557C382.955 144.371 383.197 144.227 383.472 144.125C383.751 144.024 384.047 143.973 384.36 143.973C384.826 143.973 385.224 144.064 385.554 144.246C385.884 144.424 386.136 144.682 386.309 145.021C386.483 145.359 386.569 145.767 386.569 146.246V151H385.192V146.576C385.192 146.258 385.143 145.996 385.046 145.789C384.949 145.577 384.8 145.418 384.602 145.312C384.407 145.207 384.161 145.154 383.865 145.154C383.573 145.154 383.317 145.222 383.097 145.357C382.881 145.488 382.712 145.666 382.589 145.89C382.471 146.11 382.412 146.36 382.412 146.639V151H381.034V146.436C381.034 146.174 380.979 145.947 380.869 145.757C380.763 145.562 380.611 145.414 380.412 145.312C380.213 145.207 379.978 145.154 379.708 145.154C379.432 145.154 379.185 145.226 378.965 145.37C378.749 145.514 378.578 145.708 378.451 145.954C378.324 146.195 378.26 146.466 378.26 146.766V151H376.883ZM395.958 151.222C395.111 151.222 394.377 151.028 393.755 150.638C393.137 150.249 392.661 149.697 392.327 148.981C391.992 148.266 391.825 147.416 391.825 146.43V146.417C391.825 145.427 391.992 144.574 392.327 143.859C392.661 143.144 393.137 142.591 393.755 142.202C394.373 141.813 395.107 141.618 395.958 141.618C396.63 141.618 397.238 141.751 397.779 142.018C398.325 142.28 398.772 142.644 399.119 143.11C399.47 143.575 399.684 144.111 399.76 144.716V144.754H398.344L398.338 144.729C398.253 144.352 398.099 144.026 397.875 143.751C397.65 143.476 397.375 143.262 397.049 143.11C396.723 142.958 396.36 142.881 395.958 142.881C395.412 142.881 394.938 143.025 394.536 143.313C394.138 143.601 393.829 144.009 393.609 144.538C393.393 145.063 393.285 145.689 393.285 146.417V146.43C393.285 147.149 393.393 147.773 393.609 148.302C393.829 148.831 394.138 149.24 394.536 149.527C394.938 149.815 395.414 149.959 395.964 149.959C396.366 149.959 396.73 149.891 397.056 149.756C397.386 149.62 397.661 149.428 397.881 149.178C398.101 148.924 398.251 148.626 398.332 148.283L398.344 148.258H399.766L399.76 148.29C399.671 148.878 399.455 149.392 399.112 149.832C398.77 150.272 398.329 150.615 397.792 150.86C397.255 151.102 396.643 151.222 395.958 151.222ZM404.394 151.133C403.721 151.133 403.139 150.989 402.648 150.702C402.161 150.414 401.787 150.003 401.524 149.47C401.262 148.933 401.131 148.296 401.131 147.56V147.547C401.131 146.806 401.262 146.169 401.524 145.636C401.791 145.103 402.168 144.693 402.654 144.405C403.145 144.117 403.725 143.973 404.394 143.973C405.066 143.973 405.646 144.117 406.133 144.405C406.619 144.688 406.994 145.099 407.256 145.636C407.523 146.169 407.656 146.806 407.656 147.547V147.56C407.656 148.296 407.523 148.933 407.256 149.47C406.994 150.003 406.619 150.414 406.133 150.702C405.65 150.989 405.071 151.133 404.394 151.133ZM404.394 149.978C404.787 149.978 405.121 149.883 405.396 149.692C405.672 149.498 405.881 149.221 406.025 148.861C406.169 148.501 406.241 148.067 406.241 147.56V147.547C406.241 147.035 406.169 146.599 406.025 146.239C405.881 145.88 405.672 145.604 405.396 145.414C405.121 145.219 404.787 145.122 404.394 145.122C404 145.122 403.666 145.219 403.391 145.414C403.116 145.604 402.904 145.88 402.756 146.239C402.612 146.599 402.54 147.035 402.54 147.547V147.56C402.54 148.067 402.612 148.501 402.756 148.861C402.904 149.221 403.116 149.498 403.391 149.692C403.666 149.883 404 149.978 404.394 149.978ZM409.294 151V144.106H410.671V145.167H410.779C410.932 144.786 411.169 144.492 411.49 144.284C411.816 144.077 412.205 143.973 412.658 143.973C412.971 143.973 413.253 144.024 413.502 144.125C413.752 144.227 413.966 144.371 414.144 144.557C414.326 144.739 414.467 144.955 414.569 145.205H414.677C414.791 144.955 414.952 144.739 415.159 144.557C415.367 144.371 415.608 144.227 415.883 144.125C416.162 144.024 416.458 143.973 416.771 143.973C417.237 143.973 417.635 144.064 417.965 144.246C418.295 144.424 418.547 144.682 418.72 145.021C418.894 145.359 418.98 145.767 418.98 146.246V151H417.603V146.576C417.603 146.258 417.554 145.996 417.457 145.789C417.36 145.577 417.212 145.418 417.013 145.312C416.818 145.207 416.573 145.154 416.276 145.154C415.984 145.154 415.728 145.222 415.508 145.357C415.292 145.488 415.123 145.666 415 145.89C414.882 146.11 414.823 146.36 414.823 146.639V151H413.445V146.436C413.445 146.174 413.39 145.947 413.28 145.757C413.174 145.562 413.022 145.414 412.823 145.312C412.624 145.207 412.389 145.154 412.119 145.154C411.844 145.154 411.596 145.226 411.376 145.37C411.16 145.514 410.989 145.708 410.862 145.954C410.735 146.195 410.671 146.466 410.671 146.766V151H409.294ZM420.91 151V144.106H422.288V145.167H422.396C422.548 144.786 422.785 144.492 423.106 144.284C423.432 144.077 423.822 143.973 424.274 143.973C424.588 143.973 424.869 144.024 425.119 144.125C425.368 144.227 425.582 144.371 425.76 144.557C425.942 144.739 426.083 144.955 426.185 145.205H426.293C426.407 144.955 426.568 144.739 426.775 144.557C426.983 144.371 427.224 144.227 427.499 144.125C427.778 144.024 428.075 143.973 428.388 143.973C428.853 143.973 429.251 144.064 429.581 144.246C429.911 144.424 430.163 144.682 430.336 145.021C430.51 145.359 430.597 145.767 430.597 146.246V151H429.219V146.576C429.219 146.258 429.171 145.996 429.073 145.789C428.976 145.577 428.828 145.418 428.629 145.312C428.434 145.207 428.189 145.154 427.893 145.154C427.601 145.154 427.345 145.222 427.125 145.357C426.909 145.488 426.739 145.666 426.617 145.89C426.498 146.11 426.439 146.36 426.439 146.639V151H425.062V146.436C425.062 146.174 425.007 145.947 424.896 145.757C424.791 145.562 424.638 145.414 424.439 145.312C424.241 145.207 424.006 145.154 423.735 145.154C423.46 145.154 423.212 145.226 422.992 145.37C422.776 145.514 422.605 145.708 422.478 145.954C422.351 146.195 422.288 146.466 422.288 146.766V151H420.91ZM434.418 151.114C433.982 151.114 433.591 151.032 433.244 150.867C432.901 150.697 432.63 150.458 432.431 150.149C432.232 149.84 432.133 149.479 432.133 149.064V149.051C432.133 148.637 432.232 148.283 432.431 147.991C432.634 147.699 432.926 147.471 433.307 147.306C433.692 147.136 434.158 147.035 434.704 147.001L437.249 146.849V147.82L434.894 147.972C434.42 148.002 434.071 148.103 433.847 148.277C433.622 148.446 433.51 148.685 433.51 148.994V149.007C433.51 149.32 433.631 149.568 433.872 149.75C434.113 149.927 434.418 150.016 434.786 150.016C435.129 150.016 435.434 149.948 435.7 149.813C435.971 149.673 436.183 149.487 436.335 149.254C436.487 149.017 436.563 148.751 436.563 148.455V146.284C436.563 145.903 436.445 145.613 436.208 145.414C435.975 145.211 435.628 145.109 435.167 145.109C434.782 145.109 434.467 145.177 434.221 145.312C433.98 145.448 433.819 145.638 433.739 145.884L433.726 145.903H432.399L432.406 145.858C432.461 145.478 432.611 145.147 432.856 144.868C433.106 144.585 433.432 144.365 433.834 144.208C434.24 144.051 434.704 143.973 435.224 143.973C435.804 143.973 436.295 144.066 436.697 144.252C437.103 144.434 437.41 144.699 437.617 145.046C437.829 145.389 437.935 145.801 437.935 146.284V151H436.563V150.022H436.462C436.326 150.255 436.157 150.454 435.954 150.619C435.751 150.78 435.52 150.903 435.262 150.987C435.004 151.072 434.723 151.114 434.418 151.114ZM439.877 151V144.106H441.254V145.147H441.362C441.532 144.779 441.781 144.492 442.111 144.284C442.441 144.077 442.858 143.973 443.362 143.973C444.136 143.973 444.729 144.195 445.139 144.64C445.55 145.084 445.755 145.717 445.755 146.538V151H444.371V146.861C444.371 146.286 444.25 145.858 444.009 145.579C443.772 145.296 443.4 145.154 442.892 145.154C442.558 145.154 442.268 145.228 442.022 145.376C441.777 145.52 441.587 145.727 441.451 145.998C441.32 146.265 441.254 146.584 441.254 146.957V151H439.877ZM450.186 151.114C449.61 151.114 449.106 150.97 448.675 150.683C448.247 150.391 447.915 149.978 447.678 149.445C447.445 148.912 447.329 148.283 447.329 147.56V147.547C447.329 146.819 447.445 146.188 447.678 145.655C447.911 145.122 448.241 144.712 448.668 144.424C449.096 144.132 449.602 143.986 450.186 143.986C450.503 143.986 450.799 144.037 451.074 144.138C451.349 144.236 451.593 144.375 451.804 144.557C452.016 144.735 452.183 144.949 452.306 145.198H452.407V141.402H453.791V151H452.407V149.915H452.306C452.17 150.164 451.999 150.38 451.792 150.562C451.584 150.74 451.345 150.877 451.074 150.975C450.803 151.068 450.507 151.114 450.186 151.114ZM450.579 149.934C450.96 149.934 451.29 149.838 451.569 149.648C451.849 149.458 452.062 149.185 452.21 148.829C452.359 148.469 452.433 148.046 452.433 147.56V147.547C452.433 147.056 452.356 146.633 452.204 146.277C452.056 145.922 451.842 145.649 451.563 145.458C451.288 145.264 450.96 145.167 450.579 145.167C450.198 145.167 449.868 145.264 449.589 145.458C449.314 145.649 449.102 145.922 448.954 146.277C448.81 146.629 448.738 147.052 448.738 147.547V147.56C448.738 148.05 448.81 148.474 448.954 148.829C449.102 149.185 449.314 149.458 449.589 149.648C449.868 149.838 450.198 149.934 450.579 149.934ZM458.342 151.133C457.788 151.133 457.306 151.053 456.895 150.892C456.485 150.727 456.159 150.501 455.917 150.213C455.676 149.921 455.535 149.582 455.492 149.197V149.185H456.876V149.197C456.965 149.455 457.134 149.665 457.384 149.826C457.633 149.986 457.964 150.067 458.374 150.067C458.658 150.067 458.905 150.027 459.117 149.946C459.333 149.866 459.502 149.754 459.625 149.61C459.747 149.466 459.809 149.301 459.809 149.115V149.102C459.809 148.886 459.722 148.704 459.548 148.556C459.375 148.408 459.089 148.287 458.691 148.194L457.587 147.94C457.155 147.843 456.798 147.71 456.514 147.541C456.231 147.371 456.021 147.164 455.886 146.918C455.75 146.669 455.683 146.377 455.683 146.042V146.036C455.683 145.634 455.797 145.279 456.025 144.97C456.254 144.657 456.569 144.413 456.971 144.24C457.377 144.062 457.841 143.973 458.361 143.973C458.886 143.973 459.343 144.056 459.732 144.221C460.126 144.382 460.437 144.606 460.666 144.894C460.894 145.177 461.029 145.507 461.072 145.884V145.89H459.751V145.877C459.688 145.636 459.536 145.435 459.294 145.274C459.057 145.114 458.744 145.033 458.355 145.033C458.105 145.033 457.883 145.073 457.688 145.154C457.494 145.23 457.339 145.338 457.225 145.478C457.115 145.613 457.06 145.774 457.06 145.96V145.973C457.06 146.117 457.096 146.243 457.168 146.354C457.244 146.459 457.363 146.555 457.523 146.639C457.684 146.72 457.892 146.792 458.146 146.855L459.244 147.103C459.904 147.259 460.395 147.486 460.716 147.782C461.042 148.078 461.205 148.476 461.205 148.975V148.988C461.205 149.411 461.08 149.785 460.831 150.111C460.581 150.433 460.24 150.685 459.809 150.867C459.381 151.044 458.892 151.133 458.342 151.133Z" fill="#DBE2F0"></path><rect x="324.5" y="25.5" width="176" height="137" rx="7.5" stroke="#5F4D76" stroke-opacity="0.5" shape-rendering="crispEdges"></rect></g><g filter="url(#filter2_d_3579_3231)"><path fill-rule="evenodd" clip-rule="evenodd" d="M428.148 101.473L430.011 100.47L431.626 99.6307L429.058 94.8147H433.39L422.011 83.4067V99.4217L425.327 96.2007L428.148 101.473Z" fill="white"></path><path fill-rule="evenodd" clip-rule="evenodd" d="M428.431 99.9996L430.196 99.0586L427.421 93.857H431.025L423 85.814V97.002L425.53 94.5599L428.431 99.9996Z" fill="black"></path></g><defs><filter id="filter0_bdd_3579_3231" x="156" y="27" width="185" height="61" filterUnits="userSpaceOnUse" color-interpolation-filters="sRGB"><feFlood flood-opacity="0" result="BackgroundImageFix"></feFlood><feGaussianBlur in="BackgroundImageFix" stdDeviation="3"></feGaussianBlur><feComposite in2="SourceAlpha" operator="in" result="effect1_backgroundBlur_3579_3231"></feComposite><feColorMatrix in="SourceAlpha" type="matrix" values="0 0 0 0 0 0 0 0 0 0 0 0 0 0 0 0 0 0 127 0" result="hardAlpha"></feColorMatrix><feMorphology radius="3" operator="erode" in="SourceAlpha" result="effect2_dropShadow_3579_3231"></feMorphology><feOffset dy="10"></feOffset><feGaussianBlur stdDeviation="7.5"></feGaussianBlur><feColorMatrix type="matrix" values="0 0 0 0 0 0 0 0 0 0 0 0 0 0 0 0 0 0 0.1 0"></feColorMatrix><feBlend mode="normal" in2="effect1_backgroundBlur_3579_3231" result="effect2_dropShadow_3579_3231"></feBlend><feColorMatrix in="SourceAlpha" type="matrix" values="0 0 0 0 0 0 0 0 0 0 0 0 0 0 0 0 0 0 127 0" result="hardAlpha"></feColorMatrix><feOffset dy="4"></feOffset><feGaussianBlur stdDeviation="2"></feGaussianBlur><feComposite in2="hardAlpha" operator="out"></feComposite><feColorMatrix type="matrix" values="0 0 0 0 0 0 0 0 0 0 0 0 0 0 0 0 0 0 0.25 0"></feColorMatrix><feBlend mode="normal" in2="effect2_dropShadow_3579_3231" result="effect3_dropShadow_3579_3231"></feBlend><feBlend mode="normal" in="SourceGraphic" in2="effect3_dropShadow_3579_3231" result="shape"></feBlend></filter><filter id="filter1_bdd_3579_3231" x="312" y="19" width="201" height="166" filterUnits="userSpaceOnUse" color-interpolation-filters="sRGB"><feFlood flood-opacity="0" result="BackgroundImageFix"></feFlood><feGaussianBlur in="BackgroundImageFix" stdDeviation="3"></feGaussianBlur><feComposite in2="SourceAlpha" operator="in" result="effect1_backgroundBlur_3579_3231"></feComposite><feColorMatrix in="SourceAlpha" type="matrix" values="0 0 0 0 0 0 0 0 0 0 0 0 0 0 0 0 0 0 127 0" result="hardAlpha"></feColorMatrix><feMorphology radius="3" operator="erode" in="SourceAlpha" result="effect2_dropShadow_3579_3231"></feMorphology><feOffset dy="10"></feOffset><feGaussianBlur stdDeviation="7.5"></feGaussianBlur><feColorMatrix type="matrix" values="0 0 0 0 0 0 0 0 0 0 0 0 0 0 0 0 0 0 0.1 0"></feColorMatrix><feBlend mode="normal" in2="effect1_backgroundBlur_3579_3231" result="effect2_dropShadow_3579_3231"></feBlend><feColorMatrix in="SourceAlpha" type="matrix" values="0 0 0 0 0 0 0 0 0 0 0 0 0 0 0 0 0 0 127 0" result="hardAlpha"></feColorMatrix><feOffset dy="4"></feOffset><feGaussianBlur stdDeviation="2"></feGaussianBlur><feComposite in2="hardAlpha" operator="out"></feComposite><feColorMatrix type="matrix" values="0 0 0 0 0 0 0 0 0 0 0 0 0 0 0 0 0 0 0.25 0"></feColorMatrix><feBlend mode="normal" in2="effect2_dropShadow_3579_3231" result="effect3_dropShadow_3579_3231"></feBlend><feBlend mode="normal" in="SourceGraphic" in2="effect3_dropShadow_3579_3231" result="shape"></feBlend></filter><filter id="filter2_d_3579_3231" x="420.011" y="82.4067" width="15.3789" height="22.066" filterUnits="userSpaceOnUse" color-interpolation-filters="sRGB"><feFlood flood-opacity="0" result="BackgroundImageFix"></feFlood><feColorMatrix in="SourceAlpha" type="matrix" values="0 0 0 0 0 0 0 0 0 0 0 0 0 0 0 0 0 0 127 0" result="hardAlpha"></feColorMatrix><feOffset dy="1"></feOffset><feGaussianBlur stdDeviation="1"></feGaussianBlur><feColorMatrix type="matrix" values="0 0 0 0 0 0 0 0 0 0 0 0 0 0 0 0 0 0 0.4049 0"></feColorMatrix><feBlend mode="normal" in2="BackgroundImageFix" result="effect1_dropShadow_3579_3231"></feBlend><feBlend mode="normal" in="SourceGraphic" in2="effect1_dropShadow_3579_3231" result="shape"></feBlend></filter></defs></svg>