<svg width="16" height="46" viewBox="0 0 16 46" fill="none" xmlns="http://www.w3.org/2000/svg">
<path opacity="0.2" d="M7.39644 45.3536C7.59171 45.5488 7.90829 45.5488 8.10355 45.3536L11.2855 42.1716C11.4808 41.9763 11.4808 41.6597 11.2855 41.4645C11.0903 41.2692 10.7737 41.2692 10.5784 41.4645L7.75 44.2929L4.92157 41.4645C4.72631 41.2692 4.40973 41.2692 4.21446 41.4645C4.0192 41.6597 4.0192 41.9763 4.21446 42.1716L7.39644 45.3536ZM7.25 2.8125C7.25 3.08864 7.47386 3.3125 7.75 3.3125C8.02614 3.3125 8.25 3.08864 8.25 2.8125L7.25 2.8125ZM8.25 8.4375C8.25 8.16136 8.02614 7.9375 7.75 7.9375C7.47386 7.9375 7.25 8.16136 7.25 8.4375L8.25 8.4375ZM7.25 14.0625C7.25 14.3386 7.47386 14.5625 7.75 14.5625C8.02614 14.5625 8.25 14.3386 8.25 14.0625L7.25 14.0625ZM8.25 19.6875C8.25 19.4114 8.02614 19.1875 7.75 19.1875C7.47386 19.1875 7.25 19.4114 7.25 19.6875L8.25 19.6875ZM7.25 25.3125C7.25 25.5886 7.47386 25.8125 7.75 25.8125C8.02614 25.8125 8.25 25.5886 8.25 25.3125L7.25 25.3125ZM8.25 30.9375C8.25 30.6614 8.02614 30.4375 7.75 30.4375C7.47386 30.4375 7.25 30.6614 7.25 30.9375L8.25 30.9375ZM7.25 36.5625C7.25 36.8386 7.47386 37.0625 7.75 37.0625C8.02614 37.0625 8.25 36.8386 8.25 36.5625L7.25 36.5625ZM8.25 42.1875C8.25 41.9114 8.02614 41.6875 7.75 41.6875C7.47386 41.6875 7.25 41.9114 7.25 42.1875L8.25 42.1875ZM7.25 -2.18557e-08L7.25 2.8125L8.25 2.8125L8.25 2.18557e-08L7.25 -2.18557e-08ZM7.25 8.4375L7.25 14.0625L8.25 14.0625L8.25 8.4375L7.25 8.4375ZM7.25 19.6875L7.25 25.3125L8.25 25.3125L8.25 19.6875L7.25 19.6875ZM7.25 30.9375L7.25 36.5625L8.25 36.5625L8.25 30.9375L7.25 30.9375ZM7.25 42.1875L7.25 45L8.25 45L8.25 42.1875L7.25 42.1875ZM7.04289 45.7071C7.43342 46.0976 8.06658 46.0976 8.4571 45.7071L14.8211 39.3431C15.2116 38.9526 15.2116 38.3195 14.8211 37.9289C14.4305 37.5384 13.7974 37.5384 13.4069 37.9289L7.75 43.5858L2.09314 37.9289C1.70262 37.5384 1.06945 37.5384 0.678931 37.9289C0.288406 38.3195 0.288406 38.9526 0.67893 39.3431L7.04289 45.7071ZM6.75 2.8125C6.75 3.36478 7.19772 3.8125 7.75 3.8125C8.30228 3.8125 8.75 3.36478 8.75 2.8125L6.75 2.8125ZM8.75 8.4375C8.75 7.88522 8.30228 7.4375 7.75 7.4375C7.19771 7.4375 6.75 7.88522 6.75 8.4375L8.75 8.4375ZM6.75 14.0625C6.75 14.6148 7.19771 15.0625 7.75 15.0625C8.30228 15.0625 8.75 14.6148 8.75 14.0625L6.75 14.0625ZM8.75 19.6875C8.75 19.1352 8.30228 18.6875 7.75 18.6875C7.19771 18.6875 6.75 19.1352 6.75 19.6875L8.75 19.6875ZM6.75 25.3125C6.75 25.8648 7.19771 26.3125 7.75 26.3125C8.30228 26.3125 8.75 25.8648 8.75 25.3125L6.75 25.3125ZM8.75 30.9375C8.75 30.3852 8.30228 29.9375 7.75 29.9375C7.19771 29.9375 6.75 30.3852 6.75 30.9375L8.75 30.9375ZM6.75 36.5625C6.75 37.1148 7.19771 37.5625 7.75 37.5625C8.30228 37.5625 8.75 37.1148 8.75 36.5625L6.75 36.5625ZM8.75 42.1875C8.75 41.6352 8.30228 41.1875 7.75 41.1875C7.19771 41.1875 6.75 41.6352 6.75 42.1875L8.75 42.1875ZM6.75 -4.37114e-08L6.75 2.8125L8.75 2.8125L8.75 4.37114e-08L6.75 -4.37114e-08ZM6.75 8.4375L6.75 14.0625L8.75 14.0625L8.75 8.4375L6.75 8.4375ZM6.75 19.6875L6.75 25.3125L8.75 25.3125L8.75 19.6875L6.75 19.6875ZM6.75 30.9375L6.75 36.5625L8.75 36.5625L8.75 30.9375L6.75 30.9375ZM6.75 42.1875L6.75 45L8.75 45L8.75 42.1875L6.75 42.1875Z" fill="white"/>
</svg>
