<svg width="63" height="113" viewBox="0 0 63 113" fill="none" xmlns="http://www.w3.org/2000/svg">
<path opacity="0.2" d="M26.3838 95.8846L25.8838 95.8882L26.3838 95.8846ZM25.8662 24.1154L26.3662 24.1118L25.8662 24.1154ZM62.3536 8.35355C62.5488 8.15829 62.5488 7.84171 62.3536 7.64645L59.1716 4.46447C58.9763 4.2692 58.6597 4.2692 58.4645 4.46447C58.2692 4.65973 58.2692 4.97631 58.4645 5.17157L61.2929 8L58.4645 10.8284C58.2692 11.0237 58.2692 11.3403 58.4645 11.5355C58.6597 11.7308 58.9763 11.7308 59.1716 11.5355L62.3536 8.35355ZM2.97105 112.5C3.24719 112.5 3.47105 112.276 3.47105 112C3.47105 111.724 3.24719 111.5 2.97105 111.5V112.5ZM7.91315 111.5C7.63701 111.5 7.41315 111.724 7.41315 112C7.41315 112.276 7.63701 112.5 7.91315 112.5V111.5ZM13.6184 112.183C13.8893 112.129 14.0652 111.866 14.0114 111.595C13.9575 111.324 13.6943 111.148 13.4235 111.202L13.6184 112.183ZM19.0307 108.866C18.8017 109.021 18.741 109.331 18.8953 109.56C19.0495 109.789 19.3603 109.85 19.5893 109.696L19.0307 108.866ZM24.146 105.106C24.2985 104.876 24.2357 104.566 24.0055 104.413C23.7754 104.26 23.4651 104.323 23.3125 104.554L24.146 105.106ZM25.608 98.9296C25.5562 99.2008 25.734 99.4628 26.0052 99.5146C26.2764 99.5665 26.5384 99.3887 26.5902 99.1175L25.608 98.9296ZM26.8622 92.8906C26.8602 92.6145 26.6347 92.3923 26.3586 92.3942C26.0825 92.3962 25.8602 92.6217 25.8622 92.8978L26.8622 92.8906ZM25.8191 86.9171C25.8211 87.1932 26.0466 87.4154 26.3227 87.4135C26.5988 87.4115 26.8211 87.186 26.8191 86.9099L25.8191 86.9171ZM26.7759 80.9291C26.774 80.653 26.5485 80.4307 26.2724 80.4327C25.9962 80.4347 25.774 80.6602 25.776 80.9363L26.7759 80.9291ZM25.7328 74.9555C25.7348 75.2317 25.9603 75.4539 26.2364 75.4519C26.5126 75.4499 26.7348 75.2245 26.7328 74.9483L25.7328 74.9555ZM26.6897 68.9676C26.6877 68.6914 26.4622 68.4692 26.1861 68.4712C25.91 68.4732 25.6877 68.6986 25.6897 68.9748L26.6897 68.9676ZM25.6466 62.994C25.6486 63.2701 25.874 63.4924 26.1502 63.4904C26.4263 63.4884 26.6485 63.2629 26.6466 62.9868L25.6466 62.994ZM26.6034 57.006C26.6014 56.7299 26.376 56.5076 26.0998 56.5096C25.8237 56.5116 25.6015 56.7371 25.6034 57.0132L26.6034 57.006ZM25.5603 51.0325C25.5623 51.3086 25.7878 51.5308 26.0639 51.5288C26.34 51.5268 26.5623 51.3014 26.5603 51.0252L25.5603 51.0325ZM26.5172 45.0445C26.5152 44.7683 26.2897 44.5461 26.0136 44.5481C25.7374 44.5501 25.5152 44.7755 25.5172 45.0517L26.5172 45.0445ZM25.4741 39.0709C25.476 39.347 25.7015 39.5693 25.9776 39.5673C26.2538 39.5653 26.476 39.3398 26.474 39.0637L25.4741 39.0709ZM26.4309 33.0829C26.4289 32.8068 26.2034 32.5846 25.9273 32.5865C25.6512 32.5885 25.4289 32.814 25.4309 33.0901L26.4309 33.0829ZM25.3878 27.1094C25.3898 27.3855 25.6153 27.6077 25.8914 27.6057C26.1675 27.6038 26.3898 27.3783 26.3878 27.1022L25.3878 27.1094ZM26.642 21.0704C26.6938 20.7992 26.516 20.5373 26.2448 20.4854C25.9736 20.4335 25.7116 20.6113 25.6598 20.8826L26.642 21.0704ZM28.104 14.8939C27.9515 15.124 28.0143 15.4343 28.2445 15.5869C28.4746 15.7395 28.7849 15.6766 28.9375 15.4465L28.104 14.8939ZM33.2193 11.1337C33.4483 10.9795 33.509 10.6688 33.3547 10.4397C33.2005 10.2107 32.8897 10.15 32.6607 10.3043L33.2193 11.1337ZM38.6316 7.81688C38.3607 7.87071 38.1848 8.13391 38.2386 8.40475C38.2924 8.6756 38.5557 8.85152 38.8265 8.79769L38.6316 7.81688ZM44.3826 8.5C44.6587 8.5 44.8826 8.27614 44.8826 8C44.8826 7.72386 44.6587 7.5 44.3826 7.5V8.5ZM49.4161 7.5C49.14 7.5 48.9161 7.72386 48.9161 8C48.9161 8.27614 49.14 8.5 49.4161 8.5V7.5ZM54.4497 8.5C54.7258 8.5 54.9497 8.27614 54.9497 8C54.9497 7.72386 54.7258 7.5 54.4497 7.5V8.5ZM59.4832 7.5C59.2071 7.5 58.9832 7.72386 58.9832 8C58.9832 8.27614 59.2071 8.5 59.4832 8.5V7.5ZM0.5 112.5H2.97105V111.5H0.5V112.5ZM7.91315 112.5H10.3842V111.5H7.91315V112.5ZM10.3842 112.5C11.4908 112.5 12.5723 112.391 13.6184 112.183L13.4235 111.202C12.4412 111.398 11.425 111.5 10.3842 111.5V112.5ZM19.5893 109.696C21.3934 108.481 22.944 106.919 24.146 105.106L23.3125 104.554C22.1831 106.257 20.7259 107.725 19.0307 108.866L19.5893 109.696ZM26.5902 99.1175C26.7906 98.0698 26.8918 96.9876 26.8838 95.881L25.8838 95.8882C25.8913 96.929 25.7962 97.9459 25.608 98.9296L26.5902 99.1175ZM26.8838 95.881L26.8622 92.8906L25.8622 92.8978L25.8838 95.8882L26.8838 95.881ZM26.8191 86.9099L26.7759 80.9291L25.776 80.9363L25.8191 86.9171L26.8191 86.9099ZM26.7328 74.9483L26.6897 68.9676L25.6897 68.9748L25.7328 74.9555L26.7328 74.9483ZM26.6466 62.9868L26.6034 57.006L25.6034 57.0132L25.6466 62.994L26.6466 62.9868ZM26.5603 51.0252L26.5172 45.0445L25.5172 45.0517L25.5603 51.0325L26.5603 51.0252ZM26.474 39.0637L26.4309 33.0829L25.4309 33.0901L25.4741 39.0709L26.474 39.0637ZM26.3878 27.1022L26.3662 24.1118L25.3662 24.119L25.3878 27.1094L26.3878 27.1022ZM26.3662 24.1118C26.3587 23.071 26.4538 22.0541 26.642 21.0704L25.6598 20.8826C25.4594 21.9302 25.3582 23.0124 25.3662 24.119L26.3662 24.1118ZM28.9375 15.4465C30.0669 13.7431 31.5241 12.2753 33.2193 11.1337L32.6607 10.3043C30.8566 11.5192 29.306 13.0811 28.104 14.8939L28.9375 15.4465ZM38.8265 8.79769C39.8088 8.60247 40.825 8.5 41.8658 8.5V7.5C40.7592 7.5 39.6777 7.60897 38.6316 7.81688L38.8265 8.79769ZM41.8658 8.5H44.3826V7.5H41.8658V8.5ZM49.4161 8.5H54.4497V7.5H49.4161V8.5ZM59.4832 8.5H62V7.5H59.4832V8.5ZM26.3838 95.8846L25.3838 95.8918L26.3838 95.8846ZM25.8662 24.1154L26.8662 24.1082L25.8662 24.1154ZM62.7071 8.70711C63.0976 8.31658 63.0976 7.68342 62.7071 7.29289L56.3431 0.928932C55.9526 0.538408 55.3195 0.538408 54.9289 0.928932C54.5384 1.31946 54.5384 1.95262 54.9289 2.34315L60.5858 8L54.9289 13.6569C54.5384 14.0474 54.5384 14.6805 54.9289 15.0711C55.3195 15.4616 55.9526 15.4616 56.3431 15.0711L62.7071 8.70711ZM2.97105 113C3.52333 113 3.97105 112.552 3.97105 112C3.97105 111.448 3.52333 111 2.97105 111V113ZM7.91315 111C7.36086 111 6.91315 111.448 6.91315 112C6.91315 112.552 7.36086 113 7.91315 113V111ZM13.7159 112.674C14.2576 112.566 14.6094 112.039 14.5018 111.498C14.3941 110.956 13.8677 110.604 13.326 110.712L13.7159 112.674ZM18.7514 108.452C18.2933 108.76 18.1721 109.381 18.4806 109.84C18.7891 110.298 19.4105 110.419 19.8686 110.11L18.7514 108.452ZM24.5627 105.382C24.8679 104.922 24.7421 104.302 24.2818 103.996C23.8215 103.691 23.201 103.817 22.8958 104.277L24.5627 105.382ZM25.1169 98.8357C25.0132 99.3781 25.3688 99.902 25.9113 100.006C26.4537 100.109 26.9776 99.7538 27.0813 99.2114L25.1169 98.8357ZM27.3622 92.887C27.3582 92.3348 26.9073 91.8903 26.355 91.8943C25.8027 91.8982 25.3583 92.3492 25.3622 92.9015L27.3622 92.887ZM25.3191 86.9207C25.3231 87.4729 25.774 87.9174 26.3263 87.9134C26.8786 87.9095 27.323 87.4585 27.3191 86.9063L25.3191 86.9207ZM27.2759 80.9255C27.2719 80.3732 26.821 79.9287 26.2687 79.9327C25.7165 79.9367 25.272 80.3876 25.276 80.9399L27.2759 80.9255ZM25.2329 74.9591C25.2368 75.5114 25.6878 75.9559 26.24 75.9519C26.7923 75.9479 27.2368 75.497 27.2328 74.9447L25.2329 74.9591ZM27.1897 68.9639C27.1857 68.4117 26.7348 67.9672 26.1825 67.9712C25.6302 67.9752 25.1857 68.4261 25.1897 68.9784L27.1897 68.9639ZM25.1466 62.9976C25.1506 63.5499 25.6015 63.9943 26.1538 63.9904C26.706 63.9864 27.1505 63.5354 27.1465 62.9832L25.1466 62.9976ZM27.1034 57.0024C27.0994 56.4501 26.6485 56.0057 26.0962 56.0096C25.544 56.0136 25.0995 56.4646 25.1035 57.0168L27.1034 57.0024ZM25.0603 51.0361C25.0643 51.5883 25.5152 52.0328 26.0675 52.0288C26.6198 52.0248 27.0643 51.5739 27.0603 51.0216L25.0603 51.0361ZM27.0171 45.0409C27.0132 44.4886 26.5622 44.0441 26.01 44.0481C25.4577 44.0521 25.0132 44.503 25.0172 45.0553L27.0171 45.0409ZM24.9741 39.0745C24.9781 39.6268 25.429 40.0713 25.9813 40.0673C26.5335 40.0633 26.978 39.6124 26.974 39.0601L24.9741 39.0745ZM26.9309 33.0793C26.9269 32.5271 26.476 32.0826 25.9237 32.0866C25.3714 32.0905 24.927 32.5415 24.9309 33.0937L26.9309 33.0793ZM24.8878 27.113C24.8918 27.6652 25.3427 28.1097 25.895 28.1057C26.4473 28.1018 26.8917 27.6508 26.8878 27.0986L24.8878 27.113ZM27.1331 21.1643C27.2368 20.6219 26.8812 20.098 26.3387 19.9943C25.7963 19.8905 25.2724 20.2462 25.1687 20.7886L27.1331 21.1643ZM27.6873 14.6176C27.3821 15.0779 27.5079 15.6985 27.9682 16.0036C28.4285 16.3088 29.049 16.1831 29.3542 15.7228L27.6873 14.6176ZM33.4986 11.5484C33.9567 11.24 34.0779 10.6185 33.7694 10.1604C33.4609 9.70232 32.8395 9.58105 32.3814 9.88955L33.4986 11.5484ZM38.5341 7.32647C37.9924 7.43413 37.6406 7.96053 37.7482 8.50222C37.8559 9.04391 38.3823 9.39576 38.924 9.2881L38.5341 7.32647ZM44.3826 9C44.9349 9 45.3826 8.55228 45.3826 8C45.3826 7.44772 44.9349 7 44.3826 7V9ZM49.4161 7C48.8638 7 48.4161 7.44772 48.4161 8C48.4161 8.55228 48.8638 9 49.4161 9V7ZM54.4497 9C55.002 9 55.4497 8.55228 55.4497 8C55.4497 7.44772 55.002 7 54.4497 7V9ZM59.4832 7C58.9309 7 58.4832 7.44772 58.4832 8C58.4832 8.55228 58.9309 9 59.4832 9V7ZM0.5 113H2.97105V111H0.5V113ZM7.91315 113H10.3842V111H7.91315V113ZM10.3842 113C11.5237 113 12.6378 112.888 13.7159 112.674L13.326 110.712C12.3757 110.901 11.3921 111 10.3842 111V113ZM19.8686 110.11C21.7272 108.859 23.3245 107.25 24.5627 105.382L22.8958 104.277C21.8027 105.926 20.3922 107.347 18.7514 108.452L19.8686 110.11ZM27.0813 99.2114C27.2878 98.1318 27.392 97.0169 27.3838 95.8774L25.3838 95.8918C25.3911 96.8997 25.2989 97.884 25.1169 98.8357L27.0813 99.2114ZM27.3838 95.8774L27.3622 92.887L25.3622 92.9015L25.3838 95.8918L27.3838 95.8774ZM27.3191 86.9063L27.2759 80.9255L25.276 80.9399L25.3191 86.9207L27.3191 86.9063ZM27.2328 74.9447L27.1897 68.9639L25.1897 68.9784L25.2329 74.9591L27.2328 74.9447ZM27.1465 62.9832L27.1034 57.0024L25.1035 57.0168L25.1466 62.9976L27.1465 62.9832ZM27.0603 51.0216L27.0171 45.0409L25.0172 45.0553L25.0603 51.0361L27.0603 51.0216ZM26.974 39.0601L26.9309 33.0793L24.9309 33.0937L24.9741 39.0745L26.974 39.0601ZM26.8878 27.0986L26.8662 24.1082L24.8662 24.1226L24.8878 27.113L26.8878 27.0986ZM26.8662 24.1082C26.8589 23.1003 26.9511 22.116 27.1331 21.1643L25.1687 20.7886C24.9622 21.8682 24.858 22.9831 24.8662 24.1226L26.8662 24.1082ZM29.3542 15.7228C30.4473 14.0741 31.8578 12.6534 33.4986 11.5484L32.3814 9.88955C30.5228 11.1412 28.9255 12.7501 27.6873 14.6176L29.3542 15.7228ZM38.924 9.2881C39.8743 9.09923 40.8579 9 41.8658 9V7C40.7263 7 39.6122 7.11221 38.5341 7.32647L38.924 9.2881ZM41.8658 9H44.3826V7H41.8658V9ZM49.4161 9H54.4497V7H49.4161V9ZM59.4832 9H62V7H59.4832V9Z" fill="white"/>
</svg>
