<svg xmlns="http://www.w3.org/2000/svg" width="659" height="507" fill="none"><mask id="a" fill="#fff"><path fill-rule="evenodd" d="M87 0a2 2 0 0 0-2 2v283.169a4 4 0 0 0 4 4h576.69a4 4 0 0 0 4-4V25.743a4 4 0 0 0-4-4H194.402V2a2 2 0 0 0-2-2H87Z" clip-rule="evenodd"/></mask><path fill="#F5F7FB" fill-rule="evenodd" d="M87 0a2 2 0 0 0-2 2v283.169a4 4 0 0 0 4 4h576.69a4 4 0 0 0 4-4V25.743a4 4 0 0 0-4-4H194.402V2a2 2 0 0 0-2-2H87Z" clip-rule="evenodd"/><path fill="#fff" fill-opacity=".2" d="M194.402 21.743h-1v1h1v-1ZM86 2a1 1 0 0 1 1-1v-2a3 3 0 0 0-3 3h2Zm0 19.743V2h-2v19.743h2Zm0 5v-5h-2v5h2Zm0 258.426V26.743h-2v258.426h2Zm3 3a3 3 0 0 1-3-3h-2a5 5 0 0 0 5 5v-2Zm576.69 0H89v2h576.69v-2Zm3-3a3 3 0 0 1-3 3v2a5 5 0 0 0 5-5h-2Zm0-259.426v259.426h2V25.743h-2Zm-3-3a3 3 0 0 1 3 3h2a5 5 0 0 0-5-5v2Zm-471.288 0H665.69v-2H194.402v2Zm-1-20.743v19.743h2V2h-2Zm-1-1a1 1 0 0 1 1 1h2a3 3 0 0 0-3-3v2ZM87 1h105.402v-2H87v2Z" mask="url(#a)"/><g opacity=".5"><path fill="#A6B6D9" d="M139.791 120.497h528.774v21.88H139.791z" opacity=".6"/></g><path fill="#519ABA" d="M123.26 10.967h-2.14v6.36h-1.56v-6.36h-2.12v-1.14h5.74v1.14h.08Zm4.8 4.44a.845.845 0 0 0-.08-.38 1.528 1.528 0 0 0-.22-.32c-.08-.067-.2-.14-.36-.22-.107-.04-.293-.113-.56-.22l-.16-.06c-.867-.253-1.553-.567-2.06-.94-.453-.387-.68-.867-.68-1.44 0-.627.273-1.127.82-1.5.493-.373 1.147-.56 1.96-.56.827 0 1.507.233 2.04.7.493.44.74.98.74 1.62h-1.44c0-.187-.033-.347-.1-.48a1.219 1.219 0 0 0-.28-.4c-.267-.2-.6-.3-1-.3s-.707.08-.92.24c-.213.16-.32.387-.32.68 0 .24.127.453.38.64.107.08.267.16.48.24.16.067.413.153.76.26.813.24 1.433.547 1.86.92.427.36.64.867.64 1.52 0 .32-.067.613-.2.88-.12.253-.3.46-.54.62-.507.373-1.173.56-2 .56-.88 0-1.593-.213-2.14-.64-.627-.493-.913-1.093-.86-1.8h1.5c0 .427.147.76.44 1 .12.093.28.167.48.22.2.053.413.08.64.08.453 0 .767-.08.94-.24.16-.253.24-.48.24-.68Z"/><path fill="#0F111A" d="M135.715 16.675c-1.169 0-1.943-.932-1.943-2.373v-.005c0-1.441.783-2.368 1.93-2.368.646 0 1.177.325 1.463.852h.018v-2.535h.764v6.34h-.764v-.772h-.018a1.59 1.59 0 0 1-1.45.86Zm.149-.677c.774 0 1.323-.672 1.323-1.696v-.005c0-1.02-.554-1.692-1.323-1.692-.808 0-1.309.65-1.309 1.692v.005c0 1.05.501 1.696 1.309 1.696Zm4.997.677c-1.314 0-2.105-.919-2.105-2.356v-.004c0-1.415.808-2.386 2.056-2.386 1.249 0 2.009.927 2.009 2.298v.281h-3.292c.018.94.536 1.49 1.349 1.49.58 0 .989-.29 1.121-.681l.013-.04h.752l-.009.044c-.15.756-.897 1.354-1.894 1.354Zm-.053-4.07c-.663 0-1.182.453-1.266 1.306h2.501c-.075-.888-.567-1.306-1.235-1.306Zm2.786 3.982v-4.57h.765v.668h.017c.207-.453.664-.756 1.253-.756.624 0 1.085.32 1.283.879h.018c.255-.55.791-.88 1.432-.88.906 0 1.49.594 1.49 1.504v3.155h-.765v-2.98c0-.628-.347-1.002-.949-1.002-.606 0-1.033.453-1.033 1.077v2.905h-.764v-3.063c0-.554-.369-.918-.936-.918-.607 0-1.046.479-1.046 1.116v2.865h-.765Zm9.128.088c-1.27 0-2.118-.919-2.118-2.373v-.009c0-1.455.852-2.364 2.113-2.364 1.262 0 2.118.905 2.118 2.364v.009c0 1.459-.852 2.373-2.113 2.373Zm.004-.677c.804 0 1.327-.624 1.327-1.696v-.009c0-1.072-.527-1.688-1.336-1.688-.795 0-1.331.62-1.331 1.688v.009c0 1.076.531 1.696 1.34 1.696Zm3.089.65a.495.495 0 0 1-.501-.5c0-.282.22-.502.501-.502.282 0 .501.22.501.502 0 .28-.219.5-.501.5Zm2.554.027c-.84 0-1.253-.378-1.253-1.253V12.65h-.668v-.632h.668v-1.235h.791v1.235h.87v.632h-.87v2.769c0 .488.216.624.624.624.093 0 .18-.013.246-.018v.62c-.096.013-.259.03-.408.03Zm2.852 0c-1.077 0-1.727-.55-1.82-1.367l-.004-.04h.765l.008.044c.093.458.431.726 1.055.726.62 0 .989-.26.989-.673v-.004c0-.33-.172-.514-.69-.642l-.725-.175c-.861-.207-1.279-.607-1.279-1.266v-.005c0-.786.69-1.344 1.679-1.344 1.002 0 1.639.584 1.696 1.349l.004.057h-.729l-.004-.03c-.062-.445-.4-.74-.967-.74-.554 0-.897.269-.897.673v.005c0 .312.207.527.712.65l.725.176c.923.224 1.257.589 1.257 1.24v.004c0 .8-.756 1.362-1.775 1.362Z"/><path stroke="#16181F" stroke-width="2" d="M139.359 120.497v21.881"/><path fill="#343A4D" d="M119.46 72.487h-7v-1.388h2.755v-6.781h-.116l-2.653 1.743v-1.607l2.776-1.832h1.613V71.1h2.625v1.388Zm-7.171 14.027c0-1.825 1.374-3.09 3.336-3.09 1.948 0 3.268 1.142 3.268 2.823 0 1.053-.527 1.935-2.154 3.582l-2.085 2.126v.123h4.396v1.409h-6.672v-1.142l3.261-3.397c1.305-1.374 1.64-1.894 1.64-2.605 0-.943-.676-1.559-1.702-1.559-1.046 0-1.736.69-1.736 1.723v.048h-1.552v-.041Zm2.181 23.543v-1.272h1.121c1.032 0 1.729-.622 1.729-1.531 0-.902-.676-1.476-1.709-1.476-1.032 0-1.709.587-1.784 1.538h-1.511c.096-1.791 1.368-2.892 3.35-2.892 1.907 0 3.227 1.06 3.227 2.591 0 1.169-.65 2.023-1.723 2.263v.116c1.326.164 2.119 1.053 2.119 2.379 0 1.716-1.477 2.912-3.589 2.912-2.071 0-3.479-1.155-3.568-2.94h1.538c.082.93.854 1.525 1.989 1.525 1.21 0 1.976-.615 1.976-1.586 0-.991-.786-1.627-2.01-1.627h-1.155Zm2.133 25.43v-1.956h-4.444v-1.319l3.138-6.59h1.675l-3.063 6.433v.109h2.735v-2.625h1.476v2.639h1.408v1.353h-1.394v1.956h-1.531Z"/><path fill="#820DDE" d="M147.513 67.435h-1.354c-.13-.862-.8-1.374-1.709-1.374-1.21 0-1.88.847-1.88 2.379v.629c0 1.53.67 2.379 1.88 2.379.916 0 1.572-.5 1.709-1.34h1.354c-.185 1.586-1.313 2.522-3.049 2.522-2.071 0-3.268-1.244-3.268-3.418v-.916c0-2.174 1.197-3.411 3.268-3.411 1.736 0 2.864.936 3.049 2.55Zm5.468 5.195c-2.009 0-3.288-1.285-3.288-3.302V68.2c0-2.023 1.279-3.301 3.288-3.301 2.01 0 3.289 1.278 3.289 3.301v1.128c0 2.017-1.279 3.302-3.289 3.302Zm0-6.57c-1.189 0-1.934.855-1.934 2.236v.937c0 1.38.745 2.235 1.934 2.235 1.19 0 1.935-.855 1.935-2.235v-.937c0-1.38-.745-2.235-1.935-2.235Zm5.524 6.427v-7.452h1.326v1.3h.096c.389-.924 1.23-1.443 2.344-1.443 1.621 0 2.496.97 2.496 2.762v4.833h-1.374v-4.492c0-1.278-.513-1.88-1.614-1.88-1.141 0-1.907.8-1.907 2.003v4.369h-1.367Zm8.982-5.394c0-1.333 1.115-2.208 2.824-2.208 1.627 0 2.693.78 2.816 2.071h-1.313c-.123-.608-.704-.984-1.524-.984-.875 0-1.442.41-1.442 1.025 0 .534.362.828 1.23 1.019l1.08.24c1.47.327 2.133.956 2.133 2.05 0 1.415-1.169 2.317-2.987 2.317-1.757 0-2.892-.786-3.015-2.098h1.381c.15.635.766.998 1.668.998.936 0 1.538-.417 1.538-1.067 0-.547-.335-.827-1.237-1.032l-1.115-.253c-1.36-.308-2.037-.991-2.037-2.078Zm10.104-4.095h1.353v2.078h2.947v1.128h-2.926v4.027c0 .738.513 1.141 1.463 1.141.348 0 1.258-.013 1.422-.034v1.121c-.151.028-1.231.055-1.518.055-1.907 0-2.741-.684-2.741-2.283v-4.027h-1.969v-1.128h1.969v-2.078Z"/><path fill="#5E6E8C" d="m141.292 135.487 1.306-7.417h1.114l-.219 1.271h.075c.383-.868 1.238-1.408 2.297-1.408 1.415 0 2.338.95 2.338 2.358 0 .253-.027.513-.109 1.019l-.732 4.177H146.2l.738-4.164a4.94 4.94 0 0 0 .076-.758c0-.944-.609-1.566-1.579-1.566-1.094 0-1.976.821-2.208 2.106l-.773 4.382h-1.162Zm16.03-7.417-1.305 7.417h-1.115l.226-1.272h-.082c-.383.868-1.231 1.408-2.29 1.408-1.415 0-2.345-.95-2.345-2.358 0-.253.027-.513.116-1.019l.725-4.176h1.162l-.731 4.163c-.055.287-.082.56-.082.758 0 .944.608 1.566 1.579 1.566 1.1 0 1.975-.82 2.208-2.106l.772-4.381h1.162Zm2.666 2.406-.882 5.011h-1.045l1.305-7.417h1.026l-.178 1.045h.123c.308-.751.861-1.182 1.524-1.182.718 0 1.19.458 1.238 1.182h.123c.328-.772.868-1.182 1.558-1.182.909 0 1.436.567 1.436 1.524 0 .205-.028.445-.069.691l-.936 5.339h-1.046l.902-5.107c.028-.184.048-.349.048-.513 0-.574-.26-.875-.752-.875-.642 0-1.141.547-1.312 1.477l-.882 5.018h-1.039l.902-5.114c.034-.177.048-.342.048-.506 0-.574-.26-.875-.759-.875-.656 0-1.162.554-1.333 1.484Zm8.552-.294c0-1.34 1.162-2.256 2.837-2.256 1.593 0 2.604.779 2.666 2.051 0 .041-.007.068-.007.096h-1.128v-.021c-.082-.752-.636-1.169-1.558-1.169-.964 0-1.634.472-1.634 1.148 0 .486.321.787 1.135 1.053l.977.322c1.244.41 1.764.97 1.764 1.873 0 1.401-1.196 2.351-2.967 2.351-1.716 0-2.844-.827-2.892-2.133v-.068h1.149v.014c.102.772.745 1.21 1.77 1.21 1.033 0 1.723-.479 1.723-1.197 0-.506-.321-.813-1.121-1.073l-1.025-.335c-1.163-.39-1.689-.971-1.689-1.866Zm10.616 5.346c-.677 0-1.237-.568-1.237-1.265 0-.69.56-1.258 1.237-1.258s1.231.568 1.231 1.258c0 .697-.554 1.265-1.231 1.265Zm6.693-5.346c0-1.34 1.162-2.256 2.837-2.256 1.592 0 2.604.779 2.666 2.051 0 .041-.007.068-.007.096h-1.128v-.021c-.082-.752-.636-1.169-1.559-1.169-.964 0-1.634.472-1.634 1.148 0 .486.322.787 1.135 1.053l.978.322c1.244.41 1.763.97 1.763 1.873 0 1.401-1.196 2.351-2.966 2.351-1.716 0-2.844-.827-2.892-2.133v-.068h1.148v.014c.103.772.746 1.21 1.771 1.21 1.032 0 1.723-.479 1.723-1.197 0-.506-.322-.813-1.122-1.073l-1.025-.335c-1.162-.39-1.688-.971-1.688-1.866Zm10.766 5.434c-1.784 0-2.973-1.196-2.973-2.932 0-.28.02-.568.068-.848l.178-1.025c.307-1.771 1.558-2.871 3.247-2.871 1.859 0 3.049 1.196 3.049 2.973 0 .205-.021.486-.069.793l-.184 1.033c-.328 1.838-1.532 2.877-3.316 2.877Zm.499-6.651c-1.1 0-1.886.759-2.112 2.03l-.164.937a4.517 4.517 0 0 0-.062.697c0 1.183.766 1.962 1.935 1.962 1.121 0 1.88-.745 2.119-2.092l.171-.964c.027-.205.041-.43.041-.629 0-1.162-.766-1.941-1.928-1.941Zm8.087 3.186-.43 2.406h2.303l-.164.93h-4.929l.165-.93h1.497l.977-5.558h-1.641l.158-.929h2.768l-.328 1.893h.151c.485-1.36 1.476-2.085 2.816-2.085.437 0 .813.082 1.094.226l-.219 1.292c-.294-.171-.711-.253-1.203-.253-1.545 0-2.68 1.128-3.015 3.008Zm8.75-6.071h1.149l-.349 2.01h3.008l-.171.991h-2.994l-.752 4.068a1.654 1.654 0 0 0-.034.348c0 .684.451 1.012 1.421 1.012.459 0 1.19-.02 1.375-.041l-.165.984c-.177.035-1.168.069-1.538.069-1.483 0-2.283-.615-2.283-1.771 0-.164.021-.369.062-.594l.752-4.075h-1.976l.164-.991h1.983l.348-2.01Zm10.35-1.408h1.278c-2.099 2.024-3.302 4.621-3.302 7.13 0 1.688.376 3.206 1.156 4.642h-1.156c-.711-1.115-1.169-2.906-1.169-4.567 0-2.666 1.149-5.229 3.193-7.205Zm8.654 0h1.278c-2.098 2.024-3.301 4.621-3.301 7.13 0 1.688.376 3.206 1.155 4.642h-1.155c-.711-1.115-1.169-2.906-1.169-4.567 0-2.666 1.148-5.229 3.192-7.205Zm6.111 10.938c-1.312 0-2.221-.848-2.235-2.085-.014-1.538 1.121-2.4 3.172-2.42l1.846-.014.068-.376a2.49 2.49 0 0 0 .055-.492c0-.759-.595-1.244-1.518-1.244-.8 0-1.483.403-1.675.998h-1.162c.233-1.183 1.436-2.003 2.946-2.003 1.545 0 2.571.827 2.571 2.078 0 .314-.021.499-.144 1.155l-.752 4.28h-1.107l.184-1.067h-.068c-.369.732-1.203 1.19-2.181 1.19Zm.404-1.019a2.108 2.108 0 0 0 2.064-1.723l.164-.875-1.702.007c-1.251.007-1.955.499-1.962 1.361-.007.752.554 1.23 1.436 1.23Zm7.998 3.165h-1.087l1.791-4.443h1.517l-2.221 4.443Zm18.819-2.146c-1.189 0-2.037-.622-2.276-1.662h-.096l-.273 1.539h-1.183l1.825-10.33h1.176l-.711 4.006h.13c.41-.758 1.224-1.216 2.167-1.216 1.558 0 2.529 1.052 2.529 2.727 0 .219-.013.417-.075.732l-.232 1.333c-.322 1.811-1.422 2.871-2.981 2.871Zm-.191-1.06c1.059 0 1.832-.738 2.05-1.955l.199-1.135c.034-.191.048-.41.048-.656 0-1.135-.677-1.812-1.819-1.812-1.059 0-1.934.821-2.153 2.017l-.198 1.107a2.546 2.546 0 0 0-.048.513c0 1.094.8 1.921 1.921 1.921Zm7.697 1.894h-1.278c2.098-2.024 3.301-4.621 3.301-7.13 0-1.689-.376-3.206-1.155-4.642h1.155c.711 1.114 1.169 2.905 1.169 4.567 0 2.666-1.148 5.229-3.192 7.205Zm22.224-6.324h-7.233l.185-1.128h7.232l-.184 1.128Zm-.54 3.118h-7.233l.185-1.128h7.232l-.184 1.128Zm1.989.464 5.168-2.604.013-.116-4.217-2.612.205-1.23 5.263 3.466-.164 1.011-6.494 3.466.226-1.381Zm19.489 1.908c-1.312 0-2.222-.848-2.235-2.085-.014-1.538 1.121-2.4 3.172-2.42l1.845-.014.069-.376c.041-.225.054-.342.054-.492 0-.759-.594-1.244-1.517-1.244-.8 0-1.484.403-1.675.998h-1.162c.232-1.183 1.435-2.003 2.946-2.003 1.545 0 2.57.827 2.57 2.078 0 .314-.02.499-.143 1.155l-.752 4.28h-1.107l.184-1.067h-.068c-.369.732-1.203 1.19-2.181 1.19Zm.403-1.019a2.109 2.109 0 0 0 2.065-1.723l.164-.875-1.702.007c-1.251.007-1.955.499-1.962 1.361-.007.752.554 1.23 1.435 1.23Zm21.663-2.939h-7.232l.185-1.08h7.232l-.185 1.08Zm13.809 3.958c-1.189 0-2.037-.622-2.276-1.662h-.096l-.273 1.539h-1.183l1.825-10.33h1.176l-.711 4.006h.13c.41-.758 1.224-1.216 2.167-1.216 1.558 0 2.529 1.052 2.529 2.727 0 .219-.014.417-.075.732l-.232 1.333c-.322 1.811-1.422 2.871-2.981 2.871Zm-.191-1.06c1.059 0 1.832-.738 2.05-1.955l.199-1.135c.034-.191.048-.41.048-.656 0-1.135-.677-1.812-1.819-1.812-1.059 0-1.934.821-2.153 2.017l-.198 1.107a2.546 2.546 0 0 0-.048.513c0 1.094.8 1.921 1.921 1.921Zm7.697 1.894h-1.278c2.098-2.024 3.301-4.621 3.301-7.13 0-1.689-.376-3.206-1.155-4.642h1.155c.711 1.114 1.169 2.905 1.169 4.567 0 2.666-1.148 5.229-3.192 7.205Z"/><path fill="#343A4D" d="M193.122 72.487v-7.452h1.326v1.3h.096c.39-.924 1.23-1.443 2.345-1.443 1.62 0 2.495.97 2.495 2.762v4.833h-1.374v-4.492c0-1.278-.513-1.88-1.614-1.88-1.141 0-1.907.8-1.907 2.003v4.369h-1.367Zm14.916-7.452v7.452h-1.326v-1.292h-.096c-.389.916-1.23 1.435-2.345 1.435-1.62 0-2.495-.97-2.495-2.762v-4.833h1.374v4.498c0 1.272.513 1.873 1.614 1.873 1.141 0 1.907-.8 1.907-2.002v-4.369h1.367Zm9.167 1.88v5.572h-1.203v-5.148c0-.8-.314-1.23-.875-1.23-.588 0-.957.506-.957 1.326v5.052h-1.196v-5.155c0-.8-.308-1.223-.875-1.223-.602 0-.978.506-.978 1.326v5.052h-1.203v-7.452h1.21v1.08h.15c.178-.772.704-1.223 1.415-1.223.698 0 1.183.437 1.34 1.196h.151c.177-.738.752-1.196 1.49-1.196 1.005 0 1.531.704 1.531 2.023Zm2.208.178c0-1.333 1.114-2.208 2.823-2.208 1.627 0 2.694.78 2.817 2.071h-1.313c-.123-.608-.704-.984-1.524-.984-.875 0-1.443.41-1.443 1.025 0 .534.363.828 1.231 1.019l1.08.24c1.47.327 2.133.956 2.133 2.05 0 1.415-1.169 2.317-2.988 2.317-1.756 0-2.891-.786-3.014-2.098h1.381c.15.635.765.998 1.668.998.936 0 1.538-.417 1.538-1.067 0-.547-.335-.827-1.238-1.032l-1.114-.253c-1.36-.308-2.037-.991-2.037-2.078Zm23.728.075h-7.233v-1.333h7.233v1.333Zm0 3.22h-7.233v-1.333h7.233v1.333Zm11.826-8.86h3.807v1.094h-2.461v9.865h2.482v1.093h-3.828V61.53Zm10.445 11.157c-1.9 0-3.247-1.162-3.329-2.871h1.367c.116.964.937 1.627 2.024 1.627 1.21 0 2.016-.848 2.016-2.12 0-1.271-.813-2.132-2.016-2.132-.834 0-1.511.369-1.887 1.039h-1.354l.486-5.606h5.578v1.238h-4.45l-.26 3.055h.116c.465-.594 1.183-.909 2.065-.909 1.825 0 3.096 1.347 3.096 3.281 0 2.03-1.387 3.398-3.452 3.398Zm12.483-.198h-6.932v-1.21h2.83v-7.13h-.109l-2.742 1.784v-1.436l2.858-1.873h1.394v8.655h2.701v1.21Zm4.313 2.303h-1.258l.814-4.525h1.715l-1.271 4.525Zm16.693-6.808v-1.135h1.101c1.066 0 1.805-.677 1.805-1.647 0-.964-.711-1.587-1.785-1.587-1.073 0-1.777.623-1.866 1.634h-1.326c.103-1.75 1.34-2.83 3.24-2.83 1.839 0 3.124 1.06 3.124 2.577 0 1.176-.635 2.03-1.702 2.277v.11c1.32.17 2.106 1.08 2.106 2.412 0 1.702-1.443 2.899-3.48 2.899-2.01 0-3.39-1.142-3.479-2.885h1.333c.095 1.005.923 1.647 2.105 1.647 1.285 0 2.092-.663 2.092-1.715 0-1.074-.827-1.757-2.126-1.757h-1.142Zm10.897 4.505v-2.024h-4.464v-1.135l3.247-6.706h1.442l-3.185 6.55v.095h2.994v-2.728h1.278v2.728h1.456v1.196h-1.449v2.024h-1.319Zm7.54.198c-1.9 0-3.247-1.162-3.329-2.871h1.367c.116.964.936 1.627 2.023 1.627 1.21 0 2.017-.848 2.017-2.12 0-1.271-.813-2.132-2.017-2.132-.834 0-1.51.369-1.886 1.039h-1.354l.486-5.606h5.578v1.238h-4.451l-.259 3.055h.116c.465-.594 1.183-.909 2.064-.909 1.826 0 3.097 1.347 3.097 3.281 0 2.03-1.388 3.398-3.452 3.398Zm8.141 2.105h-1.257l.813-4.525h1.716l-1.272 4.525Zm16.694-6.808v-1.135h1.1c1.067 0 1.805-.677 1.805-1.647 0-.964-.711-1.587-1.784-1.587s-1.777.623-1.866 1.634h-1.326c.102-1.75 1.339-2.83 3.24-2.83 1.839 0 3.124 1.06 3.124 2.577 0 1.176-.636 2.03-1.702 2.277v.11c1.319.17 2.105 1.08 2.105 2.412 0 1.702-1.442 2.899-3.479 2.899-2.01 0-3.391-1.142-3.48-2.885h1.333c.096 1.005.923 1.647 2.106 1.647 1.285 0 2.091-.663 2.091-1.715 0-1.074-.827-1.757-2.126-1.757h-1.141Zm10.896 4.505v-2.024h-4.464v-1.135l3.248-6.706h1.442l-3.186 6.55v.095h2.995v-2.728h1.278v2.728h1.456v1.196h-1.449v2.024h-1.32Zm7.54.198c-1.9 0-3.247-1.162-3.329-2.871h1.367c.117.964.937 1.627 2.024 1.627 1.21 0 2.017-.848 2.017-2.12 0-1.271-.814-2.132-2.017-2.132-.834 0-1.511.369-1.887 1.039h-1.353l.485-5.606h5.578v1.238h-4.45l-.26 3.055h.116c.465-.594 1.183-.909 2.065-.909 1.825 0 3.097 1.347 3.097 3.281 0 2.03-1.388 3.398-3.453 3.398Zm7.527-4.703v-1.135h1.1c1.067 0 1.805-.677 1.805-1.647 0-.964-.711-1.587-1.784-1.587s-1.778.623-1.866 1.634h-1.327c.103-1.75 1.34-2.83 3.241-2.83 1.839 0 3.124 1.06 3.124 2.577 0 1.176-.636 2.03-1.702 2.277v.11c1.319.17 2.105 1.08 2.105 2.412 0 1.702-1.442 2.899-3.479 2.899-2.01 0-3.391-1.142-3.48-2.885h1.333c.096 1.005.923 1.647 2.106 1.647 1.285 0 2.091-.663 2.091-1.715 0-1.074-.827-1.757-2.126-1.757h-1.141Zm9.269 6.808h-1.258l.814-4.525h1.716l-1.272 4.525Zm21.65-2.303h-6.932v-1.21h2.83v-7.13h-.109l-2.741 1.784v-1.436l2.857-1.873h1.394v8.655h2.701v1.21Zm4.313 2.303h-1.258l.814-4.525h1.716l-1.272 4.525Zm17.821-2.105c-1.9 0-3.247-1.162-3.329-2.871h1.368c.116.964.936 1.627 2.023 1.627 1.21 0 2.017-.848 2.017-2.12 0-1.271-.814-2.132-2.017-2.132-.834 0-1.511.369-1.887 1.039h-1.353l.485-5.606h5.578v1.238h-4.45l-.26 3.055h.116c.465-.594 1.183-.909 2.065-.909 1.825 0 3.097 1.347 3.097 3.281 0 2.03-1.388 3.398-3.453 3.398Zm8.142 2.105h-1.258l.814-4.525h1.716l-1.272 4.525Zm21.41-5.51c0 1.97-1.463 3.412-3.466 3.412-2.03 0-3.472-1.422-3.472-3.439 0-1.169.396-2.235 1.353-3.61.157-.239 2.044-2.857 2.174-3.02h1.62l-2.625 3.581c-.301.424-.301.438-.362.56l.109.042c.315-.383.998-.663 1.62-.663 1.757 0 3.049 1.333 3.049 3.138Zm-3.472 2.181c1.182 0 2.078-.909 2.078-2.112 0-1.21-.896-2.12-2.078-2.12-1.183 0-2.079.91-2.079 2.12 0 1.203.896 2.112 2.079 2.112Zm6.166 1.026 4.409-8.545v-.096h-5.264v-1.224h6.713v1.251l-4.355 8.614h-1.503Zm10.513 2.303h-1.258l.814-4.525h1.716l-1.272 4.525Zm14.424-8.969c0-1.961 1.463-3.404 3.466-3.404 2.03 0 3.466 1.422 3.466 3.439 0 1.135-.404 2.2-1.374 3.61-.164.245-2.051 2.863-2.174 3.02h-1.62l2.625-3.588c.232-.322.301-.431.369-.554l-.116-.048c-.315.397-.978.663-1.6.663-1.764 0-3.042-1.32-3.042-3.138Zm3.466-2.18c-1.183 0-2.078.916-2.078 2.119 0 1.203.895 2.12 2.078 2.12 1.183 0 2.078-.917 2.078-2.12s-.895-2.12-2.078-2.12Zm8.073 11.15h-1.258l.814-4.526h1.716l-1.272 4.525Zm21.41-5.51c0 1.968-1.463 3.41-3.466 3.41-2.03 0-3.472-1.421-3.472-3.438 0-1.169.396-2.235 1.353-3.61.158-.239 2.044-2.857 2.174-3.02h1.62l-2.625 3.581c-.301.424-.301.438-.362.56l.109.042c.315-.383.998-.663 1.62-.663 1.757 0 3.049 1.333 3.049 3.138Zm-3.472 2.18c1.182 0 2.078-.909 2.078-2.112 0-1.21-.896-2.12-2.078-2.12-1.183 0-2.078.91-2.078 2.12 0 1.203.895 2.112 2.078 2.112Zm8.64 1.244c-2.133 0-3.595-1.169-3.595-2.864 0-1.217.799-2.215 2.044-2.509v-.11c-1.012-.272-1.648-1.12-1.648-2.18 0-1.545 1.326-2.638 3.199-2.638 1.873 0 3.199 1.093 3.199 2.638 0 1.067-.628 1.9-1.654 2.18v.11c1.224.26 2.051 1.279 2.051 2.51 0 1.694-1.47 2.863-3.596 2.863Zm0-5.933c1.08 0 1.805-.643 1.805-1.607 0-.957-.725-1.6-1.805-1.6-1.087 0-1.804.643-1.804 1.6 0 .964.717 1.607 1.804 1.607Zm0 4.764c1.272 0 2.147-.738 2.147-1.811s-.875-1.812-2.147-1.812c-1.271 0-2.146.739-2.146 1.812s.875 1.811 2.146 1.811Zm12.141-2.255c0 1.968-1.463 3.41-3.466 3.41-2.03 0-3.473-1.421-3.473-3.438 0-1.169.397-2.235 1.354-3.61.157-.239 2.044-2.857 2.174-3.02h1.62l-2.625 3.581c-.301.424-.301.438-.362.56l.109.042c.314-.383.998-.663 1.62-.663 1.757 0 3.049 1.333 3.049 3.138Zm-3.473 2.18c1.183 0 2.078-.909 2.078-2.112 0-1.21-.895-2.12-2.078-2.12-1.182 0-2.078.91-2.078 2.12 0 1.203.896 2.112 2.078 2.112Zm10.575-9.932V73.58h-3.828v-1.093h2.482v-9.865h-2.454V61.53h3.8Z"/><path fill="#00A1C7" d="M142.338 115.423h-1.142l6.85-11.737h1.155l-6.863 11.737Zm8.654 0h-1.141l6.849-11.737h1.155l-6.863 11.737Zm16.331-3.76h1.19c-.007.089-.014.144-.014.192 0 1.011.95 1.743 2.276 1.743 1.299 0 2.202-.718 2.202-1.736 0-.78-.452-1.231-1.75-1.716l-.65-.246c-1.627-.616-2.317-1.415-2.317-2.653 0-1.681 1.346-2.83 3.308-2.83 1.839 0 3.159 1.073 3.159 2.577 0 .082-.007.219-.021.274h-1.189c.006-.021.006-.041.006-.157 0-.923-.813-1.6-1.955-1.6-1.21 0-2.057.67-2.057 1.62 0 .773.444 1.237 1.64 1.689l.725.273c1.702.649 2.345 1.374 2.345 2.598 0 1.811-1.374 3.001-3.473 3.001-1.976 0-3.452-1.156-3.452-2.707 0-.164.007-.26.027-.322Zm11.984 2.953c-1.785 0-2.974-1.196-2.974-2.932 0-.28.021-.568.068-.848l.178-1.025c.308-1.771 1.559-2.871 3.247-2.871 1.86 0 3.049 1.196 3.049 2.973 0 .205-.021.486-.068.793l-.185 1.033c-.328 1.838-1.531 2.877-3.315 2.877Zm.499-6.651c-1.101 0-1.887.759-2.113 2.03l-.164.937a4.505 4.505 0 0 0-.061.697c0 1.183.765 1.962 1.934 1.962 1.121 0 1.88-.745 2.119-2.092l.171-.964c.028-.205.041-.43.041-.629 0-1.162-.765-1.941-1.927-1.941Zm8.087 3.186-.431 2.406h2.304l-.164.93h-4.929l.164-.93h1.497l.978-5.558h-1.641l.157-.929h2.769l-.328 1.893h.15c.485-1.36 1.477-2.085 2.816-2.085.438 0 .814.082 1.094.226l-.219 1.292c-.294-.171-.711-.253-1.203-.253-1.545 0-2.679 1.128-3.014 3.008Zm8.75-6.071h1.148l-.349 2.01h3.008l-.171.991h-2.994l-.752 4.068a1.723 1.723 0 0 0-.034.348c0 .684.451 1.012 1.422 1.012.458 0 1.189-.02 1.374-.041l-.164.984c-.178.035-1.169.069-1.538.069-1.484 0-2.283-.615-2.283-1.771 0-.164.02-.369.061-.594l.752-4.075h-1.976l.165-.991h1.982l.349-2.01Zm16.461 9.53c-1.313 0-2.222-.848-2.236-2.085-.014-1.538 1.121-2.4 3.172-2.42l1.846-.014.068-.376a2.49 2.49 0 0 0 .055-.492c0-.759-.595-1.244-1.518-1.244-.8 0-1.483.403-1.675.998h-1.162c.233-1.183 1.436-2.003 2.947-2.003 1.545 0 2.57.827 2.57 2.078 0 .314-.021.499-.144 1.155l-.752 4.28h-1.107l.185-1.067h-.069c-.369.732-1.203 1.19-2.18 1.19Zm.403-1.019a2.107 2.107 0 0 0 2.064-1.723l.164-.875-1.702.007c-1.251.007-1.955.499-1.962 1.361-.007.752.554 1.23 1.436 1.23Zm9.003-2.44-.431 2.406h2.304l-.164.93h-4.929l.164-.93h1.497l.978-5.558h-1.641l.157-.929h2.769l-.328 1.893h.15c.485-1.36 1.477-2.085 2.817-2.085.437 0 .813.082 1.093.226l-.218 1.292c-.294-.171-.711-.253-1.204-.253-1.545 0-2.679 1.128-3.014 3.008Zm8.654 0-.431 2.406h2.304l-.164.93h-4.929l.164-.93h1.497l.978-5.558h-1.641l.158-.929h2.768l-.328 1.893h.15c.486-1.36 1.477-2.085 2.817-2.085.437 0 .813.082 1.094.226l-.219 1.292c-.294-.171-.711-.253-1.203-.253-1.545 0-2.68 1.128-3.015 3.008Zm7.902 3.459c-1.312 0-2.221-.848-2.235-2.085-.014-1.538 1.121-2.4 3.172-2.42l1.846-.014.068-.376a2.49 2.49 0 0 0 .055-.492c0-.759-.595-1.244-1.518-1.244-.8 0-1.483.403-1.675.998h-1.162c.233-1.183 1.436-2.003 2.946-2.003 1.545 0 2.571.827 2.571 2.078 0 .314-.021.499-.144 1.155l-.752 4.28h-1.107l.184-1.067h-.068c-.369.732-1.203 1.19-2.181 1.19Zm.404-1.019a2.108 2.108 0 0 0 2.064-1.723l.164-.875-1.702.007c-1.251.007-1.955.499-1.962 1.361-.007.752.554 1.23 1.436 1.23Zm6.275 3.534c-.178 0-.458-.007-.547-.02l.171-1.019c.062.014.267.028.458.028.656 0 .998-.253 1.497-1.176l.205-.404-1.422-7.464h1.204l.998 6.207h.088l3.152-6.207h1.299l-4.15 7.69c-1.011 1.88-1.613 2.365-2.953 2.365Zm21.663-11.874a.94.94 0 0 1-.964-.957c0-.54.417-.95.964-.95.547 0 .964.41.964.95a.94.94 0 0 1-.964.957Zm1.32 9.236h-6.146l.164-.964h2.543l.978-5.49h-2.516l.157-.963h3.671l-1.148 6.453h2.461l-.164.964Zm2.378 0 1.306-7.417h1.114l-.218 1.271h.075c.383-.868 1.237-1.408 2.297-1.408 1.415 0 2.338.95 2.338 2.358 0 .253-.028.513-.11 1.019l-.731 4.177h-1.162l.738-4.164c.048-.287.075-.56.075-.758 0-.944-.608-1.566-1.579-1.566-1.094 0-1.976.821-2.208 2.106l-.772 4.382h-1.163Zm19.886.123c-1.312 0-2.221-.848-2.235-2.085-.014-1.538 1.121-2.4 3.172-2.42l1.845-.014.069-.376c.041-.225.054-.342.054-.492 0-.759-.594-1.244-1.517-1.244-.8 0-1.484.403-1.675.998h-1.162c.232-1.183 1.436-2.003 2.946-2.003 1.545 0 2.571.827 2.571 2.078 0 .314-.021.499-.144 1.155l-.752 4.28h-1.107l.184-1.067h-.068c-.369.732-1.203 1.19-2.181 1.19Zm.404-1.019a2.109 2.109 0 0 0 2.064-1.723l.164-.875-1.702.007c-1.251.007-1.955.499-1.962 1.361-.007.752.554 1.23 1.436 1.23Zm6.958-4.409c0-1.34 1.163-2.256 2.837-2.256 1.593 0 2.605.779 2.666 2.051 0 .041-.006.068-.006.096h-1.128v-.021c-.082-.752-.636-1.169-1.559-1.169-.964 0-1.634.472-1.634 1.148 0 .486.322.787 1.135 1.053l.978.322c1.244.41 1.763.97 1.763 1.873 0 1.401-1.196 2.351-2.967 2.351-1.715 0-2.843-.827-2.891-2.133v-.068h1.148v.014c.103.772.745 1.21 1.771 1.21 1.032 0 1.722-.479 1.722-1.197 0-.506-.321-.813-1.121-1.073l-1.025-.335c-1.162-.39-1.689-.971-1.689-1.866Zm14.424.349h-1.155v-.035c0-.895-.725-1.531-1.764-1.531-1.251 0-1.989.766-2.269 2.324l-.082.451a5.92 5.92 0 0 0-.089.889c0 1.251.677 1.955 1.873 1.955.902 0 1.613-.465 1.873-1.251h1.155c-.307 1.388-1.517 2.297-3.076 2.297-1.852 0-2.987-1.087-2.987-2.837 0-.225.02-.485.061-.8a63 63 0 0 1 .185-1.114c.321-1.852 1.593-2.953 3.397-2.953 1.73 0 2.878.998 2.878 2.488v.117Zm8.108 3.042c-.192 1.175-1.484 2.05-3.008 2.05-1.812 0-2.919-1.087-2.919-2.857 0-.274.027-.554.103-1.053l.143-.93c.274-1.756 1.566-2.85 3.391-2.85 1.77 0 2.953 1.251 2.775 2.932 0 .083-.061.561-.068.623l-.082.594h-5.066a7.435 7.435 0 0 0-.054.486c-.123 1.237.615 2.05 1.838 2.05.875 0 1.634-.437 1.798-1.045h1.149Zm-2.379-4.642c-1.114 0-1.935.684-2.147 1.811-.006.014-.082.438-.089.458h3.945c0-.027.034-.28.034-.321.137-1.141-.581-1.948-1.743-1.948Zm4.525 6.556 1.306-7.417h1.114l-.219 1.271h.076c.382-.868 1.237-1.408 2.296-1.408 1.416 0 2.338.95 2.338 2.358 0 .253-.027.513-.109 1.019l-.731 4.177h-1.163l.739-4.164c.048-.287.075-.56.075-.758 0-.944-.608-1.566-1.579-1.566-1.094 0-1.976.821-2.208 2.106l-.773 4.382h-1.162Zm12.278-7.54c1.114 0 2.085.635 2.262 1.613h.062l.779-4.403h1.162l-1.825 10.33h-1.142l.233-1.306h-.082c-.335.861-1.203 1.429-2.201 1.429-1.586 0-2.584-1.046-2.584-2.694 0-.348.034-.724.075-.943l.198-1.196c.294-1.75 1.463-2.83 3.063-2.83Zm.15 1.066c-1.128 0-1.839.69-2.078 1.996l-.171.991a4.66 4.66 0 0 0-.048.677c0 1.121.663 1.832 1.716 1.832 1.183 0 2.023-.759 2.249-2.01l.198-1.1c.028-.199.041-.328.041-.438 0-1.128-.806-1.948-1.907-1.948Zm9.837-2.762a.94.94 0 0 1-.964-.957c0-.54.417-.95.964-.95.547 0 .964.41.964.95a.94.94 0 0 1-.964.957Zm1.319 9.236h-6.145l.164-.964h2.543l.977-5.49h-2.515l.157-.963h3.671l-1.149 6.453h2.461l-.164.964Zm2.379 0 1.306-7.417h1.114l-.219 1.271h.075c.383-.868 1.238-1.408 2.297-1.408 1.415 0 2.338.95 2.338 2.358 0 .253-.027.513-.109 1.019l-.732 4.177h-1.162l.739-4.164c.047-.287.075-.56.075-.758 0-.944-.609-1.566-1.579-1.566-1.094 0-1.976.821-2.208 2.106l-.773 4.382h-1.162Zm11.273 2.782c-1.655 0-2.851-.896-2.851-2.133v-.123h1.148v.089c.014.683.78 1.196 1.798 1.196 1.224 0 1.949-.649 2.188-1.941l.219-1.244h-.082c-.335.813-1.204 1.346-2.222 1.346-1.49 0-2.577-1.162-2.577-2.768 0-.301.041-.739.089-1.012l.143-.834c.308-1.784 1.483-2.898 3.056-2.898 1.237 0 2.078.587 2.297 1.62h.082l.259-1.497h1.163l-1.292 7.369c-.329 1.859-1.491 2.83-3.418 2.83Zm1.08-9.263c-1.053 0-1.853.779-2.085 2.037l-.117.65a5.664 5.664 0 0 0-.075.758c0 1.204.711 1.949 1.846 1.949 1.039 0 1.894-.8 2.105-1.976l.151-.875c.041-.232.061-.458.061-.615 0-1.135-.772-1.928-1.886-1.928Zm17.007 6.61c-1.784 0-2.973-1.196-2.973-2.932 0-.28.02-.568.068-.848l.178-1.025c.308-1.771 1.559-2.871 3.247-2.871 1.859 0 3.049 1.196 3.049 2.973 0 .205-.021.486-.069.793l-.184 1.033c-.328 1.838-1.531 2.877-3.316 2.877Zm.499-6.651c-1.1 0-1.886.759-2.112 2.03l-.164.937a4.505 4.505 0 0 0-.061.697c0 1.183.765 1.962 1.934 1.962 1.121 0 1.88-.745 2.119-2.092l.171-.964c.028-.205.041-.43.041-.629 0-1.162-.765-1.941-1.928-1.941Zm8.087 3.186-.43 2.406h2.303l-.164.93h-4.928l.164-.93h1.497l.977-5.558h-1.64l.157-.929h2.769l-.329 1.893h.151c.485-1.36 1.476-2.085 2.816-2.085.438 0 .814.082 1.094.226l-.219 1.292c-.294-.171-.711-.253-1.203-.253-1.545 0-2.68 1.128-3.015 3.008Zm8.949-4.204c1.114 0 2.085.635 2.262 1.613h.062l.779-4.403h1.162l-1.825 10.33h-1.142l.233-1.306h-.082c-.335.861-1.203 1.429-2.201 1.429-1.586 0-2.584-1.046-2.584-2.694 0-.348.034-.724.075-.943l.198-1.196c.294-1.75 1.463-2.83 3.063-2.83Zm.15 1.066c-1.128 0-1.839.69-2.078 1.996l-.171.991a4.66 4.66 0 0 0-.048.677c0 1.121.663 1.832 1.716 1.832 1.183 0 2.023-.759 2.249-2.01l.198-1.1c.028-.199.041-.328.041-.438 0-1.128-.806-1.948-1.907-1.948Zm11.389 4.56c-.192 1.175-1.484 2.05-3.008 2.05-1.812 0-2.919-1.087-2.919-2.857 0-.274.027-.554.102-1.053l.144-.93c.273-1.756 1.565-2.85 3.391-2.85 1.77 0 2.953 1.251 2.775 2.932 0 .083-.061.561-.068.623l-.082.594h-5.066a7.435 7.435 0 0 0-.054.486c-.123 1.237.615 2.05 1.838 2.05.875 0 1.634-.437 1.798-1.045h1.149Zm-2.379-4.642c-1.114 0-1.935.684-2.147 1.811-.007.014-.082.438-.089.458h3.945c0-.027.034-.28.034-.321.137-1.141-.581-1.948-1.743-1.948Zm7.854 3.22-.43 2.406h2.303l-.164.93h-4.928l.164-.93h1.497l.977-5.558h-1.64l.157-.929h2.768l-.328 1.893h.151c.485-1.36 1.476-2.085 2.816-2.085.438 0 .814.082 1.094.226l-.219 1.292c-.294-.171-.711-.253-1.203-.253-1.545 0-2.68 1.128-3.015 3.008Z"/><mask id="b" fill="#fff"><path fill-rule="evenodd" d="M2 216.805a2 2 0 0 0-2 2v284.168a4 4 0 0 0 4 4h576.69a4 4 0 0 0 4-4V243.547a4 4 0 0 0-4-4H109.402v-20.742a2 2 0 0 0-2-2H2Z" clip-rule="evenodd"/></mask><path fill="#191B21" fill-rule="evenodd" d="M2 216.805a2 2 0 0 0-2 2v284.168a4 4 0 0 0 4 4h576.69a4 4 0 0 0 4-4V243.547a4 4 0 0 0-4-4H109.402v-20.742a2 2 0 0 0-2-2H2Z" clip-rule="evenodd"/><path fill="#343A4D" d="M109.402 239.547h-1v1h1v-1ZM1 218.805a1 1 0 0 1 1-1v-2a3 3 0 0 0-3 3h2Zm0 20.742v-20.742h-2v20.742h2Zm0 4v-4h-2v4h2Zm0 259.426V243.547h-2v259.426h2Zm3 3a3 3 0 0 1-3-3h-2a5 5 0 0 0 5 5v-2Zm576.69 0H4v2h576.69v-2Zm3-3a3 3 0 0 1-3 3v2a5 5 0 0 0 5-5h-2Zm0-259.426v259.426h2V243.547h-2Zm-3-3a3 3 0 0 1 3 3h2a5 5 0 0 0-5-5v2Zm-471.288 0H580.69v-2H109.402v2Zm-1-21.742v20.742h2v-20.742h-2Zm-1-1a1 1 0 0 1 1 1h2a3 3 0 0 0-3-3v2ZM2 217.805h105.402v-2H2v2Z" mask="url(#b)"/><path fill="#292E3B" d="M65.641 338.302h517.834v21.88H65.641z" opacity=".6"/><path fill="#00A1C7" d="M36.142 228.767c.933 0 1.692.758 1.692 1.691v2.217c0 .933-.759 1.692-1.692 1.692H32c0 .233.175.583.409.583h2.508v.992c0 .933-.758 1.691-1.692 1.691h-2.45a1.692 1.692 0 0 1-1.691-1.691v-2.217c0-.992.758-1.75 1.691-1.75h3.034c.933 0 1.691-.758 1.691-1.692v-1.516h.642Zm-2.45 6.883c-.233 0-.408.175-.408.525 0 .35.175.408.408.408.233 0 .408-.058.408-.408s-.175-.525-.408-.525Zm-5.833-1.05a1.693 1.693 0 0 1-1.692-1.692v-2.216c0-.875.758-1.634 1.692-1.634H32c0-.233-.175-.583-.408-.583h-2.508v-.933c0-.934.758-1.692 1.691-1.692h2.509c.933 0 1.691.758 1.691 1.692v2.216c0 .934-.758 1.692-1.691 1.692h-3.092c-.933-.058-1.692.642-1.692 1.575v1.575h-.641Zm2.45-6.883c.233 0 .408-.175.408-.525 0-.35-.175-.409-.408-.409-.234 0-.409.059-.409.409s.175.525.409.525Z"/><path fill="#EFF2F5" d="M43.377 234.479c-1.314 0-2.105-.918-2.105-2.355v-.004c0-1.415.81-2.387 2.057-2.387 1.248 0 2.008.928 2.008 2.299v.281h-3.291c.017.94.536 1.49 1.349 1.49.58 0 .989-.29 1.12-.681l.014-.04h.751l-.008.044c-.15.756-.897 1.353-1.895 1.353Zm-.052-4.069c-.664 0-1.182.453-1.266 1.305h2.5c-.074-.887-.566-1.305-1.234-1.305Zm2.342 3.982 1.556-2.286-1.53-2.285h.853l1.099 1.714h.017l1.086-1.714h.852l-1.542 2.255 1.52 2.316h-.848l-1.094-1.741h-.018l-1.103 1.741h-.848Zm5.823.087c-.91 0-1.52-.549-1.52-1.379v-.009c0-.778.606-1.266 1.656-1.327l1.31-.075v-.382c0-.558-.365-.897-1.002-.897-.59 0-.958.281-1.046.69l-.01.04h-.737l.004-.049c.066-.751.72-1.358 1.797-1.358 1.081 0 1.758.585 1.758 1.499v3.16h-.765v-.743h-.017c-.268.501-.817.83-1.428.83Zm-.739-1.379c0 .439.36.716.91.716.72 0 1.274-.497 1.274-1.16v-.374l-1.221.075c-.611.035-.962.308-.962.734v.009Zm3.92 1.292v-4.571h.765v.668h.018c.206-.452.663-.756 1.252-.756.624 0 1.085.321 1.283.879h.018c.255-.549.79-.879 1.433-.879.905 0 1.49.594 1.49 1.503v3.156h-.765v-2.98c0-.628-.348-1.002-.95-1.002-.606 0-1.032.453-1.032 1.077v2.905h-.765v-3.063c0-.554-.37-.919-.936-.919-.606 0-1.046.479-1.046 1.116v2.866h-.765Zm7.234 1.538v-6.109h.764v.774h.018a1.59 1.59 0 0 1 1.45-.862c1.17 0 1.943.932 1.943 2.373v.005c0 1.441-.783 2.368-1.93 2.368-.646 0-1.177-.325-1.463-.852h-.018v2.303h-.764Zm2.083-2.127c.808 0 1.31-.651 1.31-1.692v-.005c0-1.05-.502-1.696-1.31-1.696-.774 0-1.323.673-1.323 1.696v.005c0 1.019.554 1.692 1.323 1.692Zm2.905.589v-6.342h.764v6.342h-.764Zm3.678.087c-1.314 0-2.105-.918-2.105-2.355v-.004c0-1.415.808-2.387 2.056-2.387s2.009.928 2.009 2.299v.281h-3.292c.018.94.536 1.49 1.35 1.49.58 0 .988-.29 1.12-.681l.013-.04h.752l-.01.044c-.149.756-.896 1.353-1.893 1.353Zm-.053-4.069c-.663 0-1.182.453-1.266 1.305h2.5c-.074-.887-.566-1.305-1.234-1.305Zm3.256 4.043a.495.495 0 0 1-.5-.501c0-.281.22-.501.5-.501.282 0 .501.22.501.501s-.22.501-.5.501Zm1.464 1.477v-6.109h.764v.774h.018a1.59 1.59 0 0 1 1.45-.862c1.17 0 1.943.932 1.943 2.373v.005c0 1.441-.783 2.368-1.93 2.368-.646 0-1.177-.325-1.463-.852h-.018v2.303h-.764Zm2.083-2.127c.808 0 1.31-.651 1.31-1.692v-.005c0-1.05-.502-1.696-1.31-1.696-.774 0-1.323.673-1.323 1.696v.005c0 1.019.554 1.692 1.323 1.692Zm3.129 2.127c-.15 0-.312-.018-.409-.035v-.624c.066.013.154.026.246.026.483 0 .752-.123.936-.642l.092-.259-1.696-4.575h.817l1.262 3.806h.017l1.266-3.806h.804l-1.784 4.856c-.325.875-.725 1.253-1.551 1.253Z"/><path fill="#5E6E8C" d="M47.46 290h-7v-1.388h2.755v-6.781h-.116l-2.653 1.743v-1.606l2.776-1.832h1.613v8.476h2.625V290Zm-7.17 14.027c0-1.825 1.373-3.089 3.335-3.089 1.948 0 3.268 1.141 3.268 2.823 0 1.052-.527 1.934-2.154 3.582l-2.085 2.126v.123h4.396V311h-6.672v-1.142l3.26-3.397c1.306-1.374 1.641-1.894 1.641-2.605 0-.943-.677-1.558-1.702-1.558-1.046 0-1.736.69-1.736 1.723v.047h-1.552v-.041Zm2.18 23.543v-1.271h1.12c1.033 0 1.73-.622 1.73-1.531 0-.903-.676-1.477-1.709-1.477-1.032 0-1.709.588-1.784 1.538h-1.51c.095-1.791 1.367-2.891 3.349-2.891 1.907 0 3.227 1.059 3.227 2.59 0 1.169-.65 2.024-1.723 2.263v.116c1.326.164 2.12 1.053 2.12 2.379 0 1.716-1.477 2.912-3.59 2.912-2.071 0-3.48-1.155-3.568-2.939h1.538c.082.929.854 1.524 1.99 1.524 1.21 0 1.975-.615 1.975-1.586 0-.991-.786-1.627-2.01-1.627H42.47ZM44.603 353v-1.955h-4.444v-1.319l3.138-6.59h1.675l-3.063 6.432v.11h2.735v-2.625h1.476v2.638h1.408v1.354h-1.394V353h-1.532Z"/><path stroke="#DBE2F0" stroke-width="2" d="M65.21 338.302v21.88"/><path fill="#CE9CFF" d="M74.45 280.806c-.608 0-1.06-.424-1.06-1.012 0-.595.452-1.019 1.06-1.019.615 0 1.06.424 1.06 1.019 0 .588-.445 1.012-1.06 1.012ZM77.595 290H71.34v-1.107h2.509v-5.237h-2.455v-1.107h3.794v6.344h2.407V290Zm9.03-5.571V290h-1.203v-5.147c0-.8-.315-1.231-.875-1.231-.588 0-.957.506-.957 1.326V290h-1.196v-5.154c0-.8-.308-1.224-.875-1.224-.602 0-.978.506-.978 1.326V290h-1.203v-7.451h1.21v1.08h.15c.178-.773.704-1.224 1.415-1.224.698 0 1.183.438 1.34 1.197h.15c.178-.739.753-1.197 1.49-1.197 1.006 0 1.532.704 1.532 2.024Zm5.592-1.996c1.716 0 2.81 1.223 2.81 3.165v1.36c0 1.941-1.094 3.165-2.81 3.165-1.08 0-1.86-.472-2.16-1.306h-.13v3.685h-1.408v-9.953h1.374v1.182h.13c.348-.847 1.114-1.298 2.194-1.298Zm-.458 1.216c-1.142 0-1.866.807-1.866 2.085v1.115c0 1.285.724 2.091 1.866 2.091 1.148 0 1.88-.813 1.88-2.091v-1.115c0-1.278-.732-2.085-1.88-2.085Zm8.531 6.495c-2.01 0-3.288-1.286-3.288-3.302v-1.128c0-2.024 1.278-3.302 3.288-3.302s3.288 1.278 3.288 3.302v1.128c0 2.016-1.278 3.302-3.288 3.302Zm0-6.57c-1.19 0-1.934.855-1.934 2.236v.936c0 1.381.745 2.235 1.934 2.235s1.935-.854 1.935-2.235v-.936c0-1.381-.746-2.236-1.935-2.236Zm8.408 3.104v2.269h2.263V290h-5.072v-1.053h1.476v-5.345h-1.62v-1.053h2.946v1.9h.192c.294-1.401 1.162-2.092 2.591-2.092.423 0 .827.055 1.073.158v1.504a3.9 3.9 0 0 0-1.231-.212c-1.681 0-2.618 1.046-2.618 2.871Zm7.547-6.166h1.354v2.078h2.946v1.128h-2.926v4.026c0 .738.513 1.142 1.463 1.142.349 0 1.258-.014 1.422-.034v1.121c-.15.027-1.231.054-1.518.054-1.907 0-2.741-.683-2.741-2.283v-4.026h-1.969v-1.128h1.969v-2.078Z"/><path fill="#5E6E8C" d="M74.915 345.46c1.114 0 2.085.636 2.263 1.613h.061l.78-4.402h1.162L77.356 353h-1.142l.232-1.306h-.082c-.335.862-1.203 1.429-2.2 1.429-1.587 0-2.585-1.046-2.585-2.693 0-.349.034-.725.075-.944l.199-1.196c.294-1.75 1.462-2.83 3.062-2.83Zm.15 1.066c-1.127 0-1.838.691-2.078 1.996l-.17.992a4.607 4.607 0 0 0-.048.676c0 1.122.663 1.832 1.715 1.832 1.183 0 2.024-.758 2.25-2.009l.198-1.101c.027-.198.04-.328.04-.437 0-1.128-.806-1.949-1.907-1.949Zm8.279 6.604c-1.784 0-2.974-1.196-2.974-2.933 0-.28.02-.567.069-.847l.177-1.026c.308-1.77 1.559-2.871 3.247-2.871 1.86 0 3.05 1.196 3.05 2.974 0 .205-.021.485-.07.793l-.184 1.032c-.328 1.839-1.531 2.878-3.315 2.878Zm.499-6.651c-1.1 0-1.887.758-2.112 2.03l-.165.936a4.533 4.533 0 0 0-.061.698c0 1.182.766 1.961 1.934 1.961 1.122 0 1.88-.745 2.12-2.091l.17-.964c.028-.205.041-.431.041-.629 0-1.162-.765-1.941-1.927-1.941Zm6.145 1.51L89.106 353h-1.045l1.305-7.417h1.026l-.178 1.046h.123c.307-.752.861-1.183 1.524-1.183.718 0 1.19.458 1.238 1.183h.123c.328-.773.868-1.183 1.558-1.183.91 0 1.436.568 1.436 1.525 0 .205-.027.444-.069.69L95.211 353h-1.046l.902-5.106c.028-.185.048-.349.048-.513 0-.574-.26-.875-.752-.875-.642 0-1.141.547-1.312 1.476L92.169 353h-1.04l.903-5.113c.034-.178.048-.342.048-.506 0-.574-.26-.875-.759-.875-.656 0-1.162.554-1.333 1.483Zm9.844 5.134c-1.313 0-2.222-.848-2.235-2.085-.014-1.538 1.12-2.399 3.172-2.42l1.845-.014.069-.375c.041-.226.054-.342.054-.493 0-.758-.594-1.244-1.517-1.244-.8 0-1.484.404-1.675.998h-1.162c.232-1.182 1.435-2.003 2.946-2.003 1.545 0 2.57.827 2.57 2.078 0 .315-.02.499-.143 1.156l-.752 4.279h-1.108l.185-1.066h-.068c-.369.731-1.203 1.189-2.181 1.189Zm.403-1.019a2.109 2.109 0 0 0 2.065-1.722l.164-.875-1.702.007c-1.251.007-1.955.499-1.962 1.36-.007.752.553 1.23 1.435 1.23Zm10.63-8.339a.94.94 0 0 1-.964-.957.94.94 0 0 1 .964-.951.94.94 0 0 1 .964.951.94.94 0 0 1-.964.957Zm1.32 9.235h-6.146l.164-.964h2.543l.978-5.489h-2.516l.157-.964h3.671l-1.148 6.453h2.461l-.164.964Zm2.378 0 1.306-7.417h1.114l-.218 1.271h.075c.383-.868 1.237-1.408 2.297-1.408 1.415 0 2.338.95 2.338 2.359 0 .253-.028.512-.11 1.018l-.731 4.177h-1.162l.738-4.163c.048-.287.075-.561.075-.759 0-.943-.608-1.565-1.579-1.565-1.094 0-1.976.82-2.208 2.105l-.772 4.382h-1.163Zm14.869 2.133h-7.096l.157-1.005h7.096l-.157 1.005Zm5.769-5.469-.43 2.406h2.303l-.164.93h-4.929l.165-.93h1.497l.977-5.557h-1.641l.158-.93h2.768l-.328 1.894h.151c.485-1.361 1.476-2.085 2.816-2.085.437 0 .813.082 1.094.225l-.219 1.292c-.294-.171-.711-.253-1.203-.253-1.545 0-2.68 1.128-3.015 3.008Zm11.833 1.422c-.191 1.176-1.483 2.051-3.008 2.051-1.811 0-2.919-1.087-2.919-2.858 0-.273.028-.553.103-1.052l.144-.93c.273-1.757 1.565-2.851 3.39-2.851 1.771 0 2.953 1.251 2.776 2.933 0 .082-.062.56-.069.622l-.082.595h-5.065a6.873 6.873 0 0 0-.055.485c-.123 1.237.615 2.051 1.839 2.051.875 0 1.634-.438 1.798-1.046h1.148Zm-2.379-4.642c-1.114 0-1.934.684-2.146 1.812-.007.014-.082.437-.089.458h3.944c0-.027.034-.28.034-.321.137-1.142-.581-1.949-1.743-1.949Zm7.144 9.338c-1.654 0-2.851-.895-2.851-2.133v-.123h1.149v.089c.013.684.779 1.197 1.798 1.197 1.223 0 1.948-.65 2.187-1.942l.219-1.244h-.082c-.335.813-1.203 1.347-2.222 1.347-1.49 0-2.577-1.162-2.577-2.769 0-.301.041-.738.089-1.012l.143-.834c.308-1.784 1.484-2.898 3.056-2.898 1.237 0 2.078.588 2.297 1.62h.082l.26-1.497h1.162l-1.292 7.369c-.328 1.86-1.49 2.83-3.418 2.83Zm1.08-9.262c-1.053 0-1.853.779-2.085 2.037l-.116.649a5.662 5.662 0 0 0-.075.759c0 1.203.71 1.948 1.845 1.948 1.039 0 1.894-.8 2.106-1.975l.15-.876a3.8 3.8 0 0 0 .062-.615c0-1.135-.773-1.927-1.887-1.927Zm11.464 4.566c-.192 1.176-1.484 2.051-3.008 2.051-1.812 0-2.919-1.087-2.919-2.858 0-.273.027-.553.103-1.052l.143-.93c.274-1.757 1.566-2.851 3.391-2.851 1.77 0 2.953 1.251 2.775 2.933 0 .082-.061.56-.068.622l-.082.595h-5.066a7.484 7.484 0 0 0-.054.485c-.123 1.237.615 2.051 1.838 2.051.875 0 1.634-.438 1.798-1.046h1.149Zm-2.379-4.642c-1.114 0-1.935.684-2.147 1.812-.006.014-.082.437-.088.458h3.944c0-.027.034-.28.034-.321.137-1.142-.581-1.949-1.743-1.949Zm8.148 3.699h-.089L167.645 353h-1.34l3.199-3.712-1.914-3.705h1.264l1.409 2.81h.089l2.337-2.81h1.361l-3.179 3.657 1.894 3.76h-1.238l-1.415-2.857Zm21.287-2.509h-7.232l.185-1.128h7.232l-.185 1.128Zm-.54 3.117h-7.232l.185-1.128h7.232l-.185 1.128Zm13.577-1.087-.431 2.406h2.304l-.164.93h-4.929l.164-.93h1.497l.977-5.557h-1.64l.157-.93h2.769l-.328 1.894h.15c.485-1.361 1.476-2.085 2.816-2.085.438 0 .814.082 1.094.225l-.219 1.292c-.294-.171-.711-.253-1.203-.253-1.545 0-2.679 1.128-3.014 3.008Zm8.585-2.126h-1.216l.793-4.402h1.216l-.793 4.402Zm2.673 0h-1.23l.8-4.402h1.223l-.793 4.402Zm7.841-5.352h1.278c-2.098 2.023-3.301 4.621-3.301 7.129 0 1.689.376 3.206 1.155 4.642h-1.155c-.711-1.114-1.169-2.905-1.169-4.566 0-2.666 1.148-5.23 3.192-7.205Zm4.984 3.363c.239-1.579 1.592-2.598 3.308-2.509 1.613.082 2.646 1.162 2.475 2.57-.123 1.026-.752 1.839-1.819 2.372-1.018.506-1.367.957-1.435 1.86l-.007.089h-1.189l.006-.103c.055-1.278.513-1.941 1.791-2.57.875-.438 1.258-.875 1.361-1.586.143-.855-.41-1.477-1.367-1.538-.985-.055-1.764.506-1.949 1.415h-1.175Zm1.688 7.581c-.526 0-.936-.431-.936-.971s.41-.971.936-.971c.52 0 .937.431.937.971s-.417.971-.937.971Zm12.735-7.096-5.168 2.605-.013.116 4.218 2.611-.206 1.231-5.263-3.466.164-1.012 6.494-3.466-.226 1.381Zm9.037 1.6h-7.232l.185-1.128h7.232l-.185 1.128Zm-.54 3.117h-7.232l.185-1.128h7.232l-.185 1.128Zm4.977 3.623c-2.263 0-3.411-1.217-3.411-3.623 0-.424.055-.978.164-1.716l.232-1.278c.554-3.172 2.024-4.847 4.232-4.847 2.064 0 3.247 1.162 3.247 3.22 0 .396-.041.807-.116 1.237l-.315 1.791c-.219 1.217-.806 1.75-1.9 1.75h-1.784c-.417 0-.67-.266-.67-.724 0-.041.007-.123.027-.26l.444-2.577c.096-.575.363-.882.752-.882.376 0 .595.253.595.683 0 .089-.007.206-.02.308l-.465 2.666h1.08c.656 0 .971-.273 1.094-.936l.307-1.723c.075-.431.116-.82.116-1.19 0-1.633-.888-2.536-2.488-2.536-1.757 0-2.789 1.292-3.295 4.143l-.191 1.053a9.664 9.664 0 0 0-.171 1.729c0 1.962.882 2.899 2.727 2.899.499 0 1.005-.069 1.292-.171l-.136.806c-.26.11-.773.178-1.347.178Zm7.957-.417h-1.278c2.098-2.023 3.301-4.621 3.301-7.13 0-1.688-.375-3.206-1.155-4.641h1.155c.711 1.114 1.169 2.905 1.169 4.566 0 2.666-1.148 5.229-3.192 7.205Zm9.119-11.758h3.603l-.157.937h-2.475L272.727 353h2.488l-.157.937h-3.617l2.051-11.738Zm8.08 10.924c-1.312 0-2.221-.848-2.235-2.085-.014-1.538 1.121-2.399 3.172-2.42l1.845-.014.069-.375a2.5 2.5 0 0 0 .055-.493c0-.758-.595-1.244-1.518-1.244-.8 0-1.483.404-1.675.998h-1.162c.232-1.182 1.436-2.003 2.946-2.003 1.545 0 2.571.827 2.571 2.078 0 .315-.021.499-.144 1.156l-.752 4.279h-1.107l.184-1.066h-.068c-.369.731-1.203 1.189-2.181 1.189Zm.404-1.019a2.109 2.109 0 0 0 2.064-1.722l.164-.875-1.702.007c-1.251.007-1.955.499-1.962 1.36-.007.752.554 1.23 1.436 1.23Zm13.008-2.939h-7.232l.185-1.08h7.232l-.185 1.08Zm1.47 3.835.144-.82 5.256-5.51.014-.089h-4.259l.171-.998h5.722l-.144.868-5.215 5.462-.014.089h4.266l-.171.998h-5.77Zm14.13 0-.355-2.83h-3.439l-1.367 2.83h-1.258l4.922-9.864h1.285l1.415 9.864h-1.203Zm-1.087-8.415-2.208 4.553h2.816l-.574-4.553h-.034Zm11.45 4.58h-7.232l.184-1.08h7.233l-.185 1.08Zm.964 3.835.151-.937 6.562-7.738.007-.082h-4.99l.177-1.107h6.536l-.158.957-6.562 7.718-.014.082h5.277l-.184 1.107h-6.802Zm12.353.205c-1.914 0-2.988-1.353-2.974-3.705.007-.533.048-1.087.13-1.572.007-.055.109-.622.123-.677.506-2.748 1.88-4.327 3.814-4.327 1.908 0 2.995 1.374 2.974 3.773 0 .451-.041.944-.116 1.361-.007.095-.11.704-.123.793-.499 2.761-1.887 4.354-3.828 4.354Zm1.052-9.167c-1.285 0-2.221 1.258-2.625 3.473l-.095.519a7.198 7.198 0 0 0-.117 1.087l4.615-3.349c-.198-1.108-.841-1.73-1.778-1.73Zm-1.025 8.053c1.313 0 2.263-1.244 2.652-3.466l.096-.52c.062-.321.103-.758.103-1.127l-4.615 3.376c.199 1.128.814 1.737 1.764 1.737Zm12.619-2.926h-7.232l.184-1.08h7.233l-.185 1.08Zm1.962-2.81c0-1.961 1.531-3.424 3.589-3.424 2.01 0 3.411 1.381 3.411 3.349 0 1.354-.595 2.468-2.099 3.972L350.998 353h-1.559l3.248-3.165c.184-.191.738-.738.827-.855h-.13c-.39.308-.916.472-1.497.472-1.723 0-3.015-1.326-3.015-3.097Zm3.541-2.303c-1.34 0-2.358.97-2.358 2.242 0 1.278.977 2.201 2.317 2.201 1.333 0 2.331-.957 2.331-2.235 0-1.285-.964-2.208-2.29-2.208Zm11.184-1.853-2.051 11.738h-3.616l.15-.937h2.488l1.737-9.864h-2.475l.164-.937h3.603Zm7.061-.013h1.279c-2.099 2.023-3.302 4.621-3.302 7.129 0 1.689.376 3.206 1.155 4.642h-1.155c-.711-1.114-1.169-2.905-1.169-4.566 0-2.666 1.148-5.23 3.192-7.205Zm4.984 3.363c.239-1.579 1.592-2.598 3.308-2.509 1.613.082 2.646 1.162 2.475 2.57-.123 1.026-.752 1.839-1.819 2.372-1.018.506-1.367.957-1.435 1.86l-.007.089h-1.189l.006-.103c.055-1.278.513-1.941 1.791-2.57.875-.438 1.258-.875 1.361-1.586.143-.855-.41-1.477-1.367-1.538-.985-.055-1.764.506-1.949 1.415h-1.175Zm1.688 7.581c-.526 0-.936-.431-.936-.971s.41-.971.936-.971c.52 0 .937.431.937.971s-.417.971-.937.971Zm9.693-5.339c-.676 0-1.237-.574-1.237-1.265 0-.69.561-1.264 1.237-1.264.677 0 1.238.574 1.238 1.264 0 .691-.561 1.265-1.238 1.265Zm-.929 5.25c-.677 0-1.238-.567-1.238-1.265 0-.69.561-1.257 1.238-1.257.677 0 1.237.567 1.237 1.257 0 .698-.56 1.265-1.237 1.265Zm8.558-10.842h3.603l-.157.937h-2.475L393.887 353h2.488l-.157.937h-3.616l2.05-11.738Zm8.08 10.924c-1.312 0-2.221-.848-2.235-2.085-.014-1.538 1.121-2.399 3.172-2.42l1.846-.014.068-.375a2.5 2.5 0 0 0 .055-.493c0-.758-.595-1.244-1.518-1.244-.8 0-1.483.404-1.675.998h-1.162c.233-1.182 1.436-2.003 2.946-2.003 1.545 0 2.571.827 2.571 2.078 0 .315-.021.499-.144 1.156l-.752 4.279h-1.107l.184-1.066h-.068c-.369.731-1.203 1.189-2.181 1.189Zm.404-1.019a2.108 2.108 0 0 0 2.064-1.722l.164-.875-1.702.007c-1.251.007-1.955.499-1.962 1.36-.007.752.554 1.23 1.436 1.23Zm13.009-2.939h-7.233l.185-1.08h7.232l-.184 1.08Zm1.469 3.835.144-.82 5.257-5.51.013-.089h-4.258l.17-.998h5.722l-.143.868-5.216 5.462-.014.089h4.266l-.171.998h-5.77Zm14.13 0-.355-2.83h-3.439l-1.367 2.83h-1.258l4.922-9.864h1.285l1.415 9.864h-1.203Zm-1.087-8.415-2.208 4.553h2.817l-.575-4.553h-.034Zm11.45 4.58h-7.232l.185-1.08h7.232l-.185 1.08Zm.964 3.835.151-.937 6.562-7.738.007-.082h-4.99l.178-1.107h6.535l-.158.957-6.562 7.718-.014.082h5.278l-.185 1.107h-6.802Zm12.353.205c-1.914 0-2.987-1.353-2.974-3.705.007-.533.048-1.087.13-1.572.007-.055.109-.622.123-.677.506-2.748 1.88-4.327 3.815-4.327 1.907 0 2.994 1.374 2.973 3.773 0 .451-.041.944-.116 1.361-.007.095-.109.704-.123.793-.499 2.761-1.887 4.354-3.828 4.354Zm1.053-9.167c-1.286 0-2.222 1.258-2.625 3.473l-.096.519a7.196 7.196 0 0 0-.116 1.087l4.614-3.349c-.198-1.108-.841-1.73-1.777-1.73Zm-1.026 8.053c1.313 0 2.263-1.244 2.653-3.466l.095-.52c.062-.321.103-.758.103-1.127l-4.614 3.376c.198 1.128.813 1.737 1.763 1.737Zm12.619-2.926h-7.232l.184-1.08h7.233l-.185 1.08Zm1.962-2.81c0-1.961 1.531-3.424 3.589-3.424 2.01 0 3.411 1.381 3.411 3.349 0 1.354-.594 2.468-2.098 3.972L472.158 353H470.6l3.247-3.165c.184-.191.738-.738.827-.855h-.13c-.39.308-.916.472-1.497.472-1.723 0-3.015-1.326-3.015-3.097Zm3.541-2.303c-1.34 0-2.358.97-2.358 2.242 0 1.278.977 2.201 2.317 2.201 1.333 0 2.331-.957 2.331-2.235 0-1.285-.964-2.208-2.29-2.208Zm11.806 5.113h-7.233l.185-1.08h7.232l-.184 1.08Zm8.032-6.966-2.051 11.738h-3.616l.151-.937h2.488l1.736-9.864h-2.474l.164-.937h3.602Zm2.393 4.273.622-.786 2.454 2.18.492-3.233.957.178-.642 3.185 3.042-1.196.334.964-3.083 1.025 2.53 2.017-.622.786-2.454-2.174-.486 3.233-.957-.184.643-3.186-3.049 1.197-.328-.957 3.076-1.033-2.529-2.016Zm11.354-4.273h3.603l-.157.937h-2.475L506.393 353h2.488l-.157.937h-3.617l2.051-11.738Zm8.08 10.924c-1.312 0-2.221-.848-2.235-2.085-.014-1.538 1.121-2.399 3.172-2.42l1.846-.014.068-.375a2.5 2.5 0 0 0 .055-.493c0-.758-.595-1.244-1.518-1.244-.8 0-1.483.404-1.675.998h-1.162c.232-1.182 1.436-2.003 2.946-2.003 1.545 0 2.571.827 2.571 2.078 0 .315-.021.499-.144 1.156L518.41 353h-1.107l.184-1.066h-.068c-.369.731-1.203 1.189-2.181 1.189Zm.404-1.019a2.109 2.109 0 0 0 2.064-1.722l.164-.875-1.702.007c-1.251.007-1.955.499-1.962 1.36-.007.752.554 1.23 1.436 1.23Zm13.008-2.939h-7.232l.185-1.08h7.232l-.185 1.08Zm1.47 3.835.144-.82 5.257-5.51.013-.089h-4.259l.171-.998h5.722l-.144.868-5.215 5.462-.014.089h4.266l-.171.998h-5.77Zm14.13 0-.355-2.83h-3.439l-1.367 2.83h-1.258l4.922-9.864h1.285l1.415 9.864h-1.203Zm-1.087-8.415-2.208 4.553h2.816l-.574-4.553h-.034Zm11.45 4.58h-7.232l.184-1.08h7.233l-.185 1.08ZM70.936 374l.15-.937 6.563-7.738.007-.082h-4.99l.178-1.107h6.535l-.157.957-6.563 7.718-.014.082h5.278L77.738 374h-6.802Zm12.353.205c-1.914 0-2.987-1.353-2.974-3.705.007-.533.048-1.087.13-1.572.007-.055.11-.622.123-.677.506-2.748 1.88-4.327 3.815-4.327 1.907 0 2.994 1.374 2.973 3.773 0 .451-.04.944-.116 1.361-.007.095-.11.704-.123.793-.499 2.761-1.886 4.354-3.828 4.354Zm1.053-9.167c-1.285 0-2.222 1.258-2.625 3.473l-.096.519a7.236 7.236 0 0 0-.116 1.087l4.614-3.349c-.198-1.108-.84-1.73-1.777-1.73Zm-1.026 8.053c1.313 0 2.263-1.244 2.653-3.466l.096-.52c.061-.321.102-.758.102-1.127l-4.614 3.376c.198 1.128.813 1.737 1.763 1.737Zm12.62-2.926h-7.233l.185-1.08h7.232l-.184 1.08Zm1.961-2.81c0-1.961 1.532-3.424 3.589-3.424 2.01 0 3.411 1.381 3.411 3.349 0 1.354-.594 2.468-2.098 3.972L100.023 374h-1.558l3.247-3.165c.184-.191.738-.738.827-.855h-.13c-.389.308-.916.472-1.497.472-1.723 0-3.015-1.326-3.015-3.097Zm3.541-2.303c-1.339 0-2.358.97-2.358 2.242 0 1.278.978 2.201 2.317 2.201 1.333 0 2.332-.957 2.332-2.235 0-1.285-.964-2.208-2.291-2.208Zm11.184-1.853-2.051 11.738h-3.616l.15-.937h2.489l1.736-9.864h-2.475l.165-.937h3.602Zm4.628 11.758h-1.278c2.098-2.023 3.301-4.621 3.301-7.13 0-1.688-.376-3.206-1.155-4.641h1.155c.711 1.114 1.169 2.905 1.169 4.566 0 2.666-1.148 5.229-3.192 7.205Zm7.417-8.408c.239-1.579 1.593-2.598 3.309-2.509 1.613.082 2.645 1.162 2.474 2.57-.123 1.026-.752 1.839-1.818 2.372-1.019.506-1.367.957-1.436 1.86l-.007.089H126l.007-.103c.055-1.278.513-1.941 1.791-2.57.875-.438 1.258-.875 1.36-1.586.144-.855-.41-1.477-1.367-1.538-.984-.055-1.764.506-1.948 1.415h-1.176Zm1.688 7.581c-.526 0-.936-.431-.936-.971s.41-.971.936-.971c.52 0 .937.431.937.971s-.417.971-.937.971Zm10.248.807-2.769-11.738h1.135l2.748 11.738h-1.114Zm7.17-.896c-.676 0-1.237-.567-1.237-1.265 0-.69.561-1.257 1.237-1.257.677 0 1.231.567 1.231 1.257 0 .698-.554 1.265-1.231 1.265Zm10.528-10.855h1.278c-2.099 2.023-3.302 4.621-3.302 7.129 0 1.689.376 3.206 1.156 4.642h-1.156c-.711-1.114-1.169-2.905-1.169-4.566 0-2.666 1.149-5.23 3.193-7.205Zm4.983 3.363c.239-1.579 1.593-2.598 3.309-2.509 1.613.082 2.645 1.162 2.474 2.57-.123 1.026-.752 1.839-1.818 2.372-1.019.506-1.367.957-1.436 1.86l-.006.089h-1.19l.007-.103c.055-1.278.513-1.941 1.791-2.57.875-.438 1.258-.875 1.36-1.586.144-.855-.41-1.477-1.367-1.538-.984-.055-1.763.506-1.948 1.415h-1.176Zm1.689 7.581c-.527 0-.937-.431-.937-.971s.41-.971.937-.971c.519 0 .936.431.936.971s-.417.971-.936.971Zm9.693-5.339c-.677 0-1.237-.574-1.237-1.265 0-.69.56-1.264 1.237-1.264s1.237.574 1.237 1.264c0 .691-.56 1.265-1.237 1.265Zm-.93 5.25c-.676 0-1.237-.567-1.237-1.265 0-.69.561-1.257 1.237-1.257.677 0 1.238.567 1.238 1.257 0 .698-.561 1.265-1.238 1.265Zm8.559-10.842h3.602l-.157.937h-2.474L177.529 374h2.489l-.158.937h-3.616l2.051-11.738Zm8.08 10.924c-1.313 0-2.222-.848-2.235-2.085-.014-1.538 1.121-2.399 3.172-2.42l1.845-.014.069-.375c.041-.226.054-.342.054-.493 0-.758-.594-1.244-1.517-1.244-.8 0-1.484.404-1.675.998h-1.162c.232-1.182 1.435-2.003 2.946-2.003 1.545 0 2.57.827 2.57 2.078 0 .315-.02.499-.143 1.156l-.752 4.279h-1.108l.185-1.066h-.068c-.369.731-1.203 1.189-2.181 1.189Zm.403-1.019a2.109 2.109 0 0 0 2.065-1.722l.164-.875-1.702.007c-1.251.007-1.955.499-1.962 1.36-.007.752.553 1.23 1.435 1.23Zm13.009-2.939h-7.232l.184-1.08h7.233l-.185 1.08Zm1.47 3.835.143-.82 5.257-5.51.014-.089h-4.259l.171-.998h5.722l-.144.868-5.216 5.462-.013.089h4.265l-.171.998h-5.769Zm14.13 0-.356-2.83h-3.438l-1.367 2.83h-1.258l4.922-9.864h1.285L216.59 374h-1.203Zm-1.087-8.415-2.208 4.553h2.816l-.574-4.553h-.034Zm11.45 4.58h-7.232l.184-1.08h7.233l-.185 1.08Zm.964 3.835.15-.937 6.563-7.738.007-.082h-4.991l.178-1.107h6.535l-.157.957-6.562 7.718-.014.082h5.277l-.184 1.107h-6.802Zm15.723-10.801-2.051 11.738h-3.616l.15-.937h2.488l1.737-9.864h-2.475l.164-.937h3.603Zm7.334 11.738h-.922c-1.32 0-1.867-.445-1.867-1.539 0-.239.028-.526.082-.847l.267-1.484c.021-.143.034-.28.034-.396 0-.875-.656-1.313-1.955-1.313l.205-1.23c1.682 0 2.277-.315 2.454-1.313l.26-1.524c.287-1.613.814-2.044 2.543-2.044h.937l-.164.998h-.746c-1.093 0-1.257.144-1.456 1.258l-.321 1.825c-.157.902-.916 1.354-2.351 1.374l-.021.116c1.107.076 1.812.67 1.812 1.518 0 .15-.007.26-.028.355l-.307 1.778a4.067 4.067 0 0 0-.082.724c0 .581.259.773 1.045.773h.739l-.158.971Zm4.375-8.279c.042-1.565 1.402-2.734 3.2-2.734 1.763 0 2.98 1.039 2.98 2.543 0 1.08-.547 1.941-2.167 3.425l-3.254 2.932-.013.082h4.771l-.184 1.094h-6.467l.157-.93 4.225-3.889c1.285-1.197 1.75-1.887 1.75-2.612 0-.902-.773-1.545-1.86-1.545-1.094 0-1.914.677-1.996 1.634h-1.142Zm9.865 9.612h-1.087l1.791-4.444h1.517l-2.221 4.444Zm8.688-13.023h.923c1.319 0 1.866.444 1.866 1.538 0 .239-.027.527-.082.848l-.266 1.483c-.028.144-.041.28-.041.397 0 .875.663 1.312 1.962 1.312l-.206 1.231c-1.681 0-2.283.314-2.454 1.312l-.259 1.525c-.288 1.613-.814 2.044-2.55 2.044h-.93l.164-.999h.745c1.094 0 1.258-.143 1.456-1.257l.322-1.826c.157-.902.916-1.353 2.351-1.374l.021-.116c-1.108-.075-1.819-.67-1.819-1.517 0-.151.007-.26.028-.356l.314-1.777c.055-.294.082-.533.082-.725 0-.581-.26-.772-1.046-.772h-.738l.157-.971Zm8.983 11.71h-1.279c2.099-2.023 3.302-4.621 3.302-7.13 0-1.688-.376-3.206-1.155-4.641h1.155c.711 1.114 1.169 2.905 1.169 4.566 0 2.666-1.148 5.229-3.192 7.205Zm9.228-6.419h-1.217l.793-4.402h1.217l-.793 4.402Zm2.673 0h-1.23l.799-4.402h1.224l-.793 4.402Z"/><path fill="#F5F7FB" d="M134.661 286.678v2.269h2.263V290h-5.072v-1.053h1.476v-5.345h-1.62v-1.053h2.946v1.9h.192c.294-1.401 1.162-2.092 2.591-2.092.423 0 .827.055 1.073.158v1.504a3.904 3.904 0 0 0-1.231-.212c-1.681 0-2.618 1.046-2.618 2.871Zm10.794 1.353h1.313c-.199 1.251-1.429 2.113-3.036 2.113-2.091 0-3.288-1.231-3.288-3.35v-1.135c0-1.962 1.279-3.254 3.213-3.254 1.948 0 3.131 1.285 3.131 3.405v.806h-4.997v.335c0 1.258.759 2.065 1.935 2.065.881 0 1.545-.376 1.729-.985Zm-1.811-4.505c-1.156 0-1.853.793-1.853 2.126h3.65c0-1.326-.67-2.126-1.797-2.126Z"/><path fill="#00A1C7" d="M79.05 325.854h-1.414l-.882 2.318h1.422l-.37 1.018h-1.421l-1.06 2.81H74.32l1.053-2.81h-1.99L72.339 332h-1.019l1.067-2.81h-1.422l.383-1.018h1.415l.875-2.318h-1.422l.369-1.004h1.422l1.018-2.714h1.012l-1.025 2.714H77l1.025-2.714h1.012l-1.025 2.714h1.415l-.376 1.004Zm-4.422-.02-.889 2.365h2.017l.888-2.365h-2.016ZM89.742 332h-1.19l1.737-9.864h3.213c1.688 0 2.755.977 2.748 2.577 0 .205-.014.424-.048.649-.205 1.279-1.06 2.208-2.317 2.523L95.21 332h-1.285l-1.23-3.944c-.117.006-.343.013-.5.013H90.44L89.742 332Zm1.559-8.791-.684 3.842h1.853c1.415 0 2.297-.704 2.481-1.819.02-.116.041-.3.041-.464.007-.971-.629-1.559-1.75-1.559h-1.941Zm12.462 6.877c-.192 1.176-1.484 2.051-3.008 2.051-1.812 0-2.92-1.087-2.92-2.858 0-.273.028-.553.104-1.052l.143-.93c.274-1.757 1.566-2.851 3.391-2.851 1.77 0 2.953 1.251 2.775 2.933 0 .082-.061.56-.068.622l-.082.595h-5.066a7.108 7.108 0 0 0-.054.485c-.123 1.237.615 2.051 1.838 2.051.875 0 1.634-.438 1.798-1.046h1.149Zm-2.379-4.642c-1.114 0-1.935.684-2.147 1.812-.006.014-.082.437-.089.458h3.945c0-.027.034-.28.034-.321.137-1.142-.581-1.949-1.743-1.949Zm7.143 9.338c-1.654 0-2.85-.895-2.85-2.133v-.123h1.148v.089c.014.684.779 1.197 1.798 1.197 1.224 0 1.948-.65 2.188-1.942l.218-1.244h-.082c-.335.813-1.203 1.347-2.221 1.347-1.491 0-2.578-1.162-2.578-2.769 0-.301.041-.738.089-1.012l.144-.834c.307-1.784 1.483-2.898 3.056-2.898 1.237 0 2.078.588 2.296 1.62h.082l.26-1.497h1.162l-1.292 7.369c-.328 1.86-1.49 2.83-3.418 2.83Zm1.08-9.262c-1.052 0-1.852.779-2.085 2.037l-.116.649a5.662 5.662 0 0 0-.075.759c0 1.203.711 1.948 1.846 1.948 1.039 0 1.893-.8 2.105-1.975l.151-.876c.041-.232.061-.458.061-.615 0-1.135-.772-1.927-1.887-1.927Zm11.464 4.566c-.191 1.176-1.483 2.051-3.008 2.051-1.811 0-2.918-1.087-2.918-2.858 0-.273.027-.553.102-1.052l.144-.93c.273-1.757 1.565-2.851 3.39-2.851 1.771 0 2.953 1.251 2.776 2.933 0 .082-.062.56-.069.622l-.082.595h-5.065a6.873 6.873 0 0 0-.055.485c-.123 1.237.615 2.051 1.839 2.051.875 0 1.634-.438 1.798-1.046h1.148Zm-2.379-4.642c-1.114 0-1.934.684-2.146 1.812-.007.014-.082.437-.089.458h3.944c0-.027.035-.28.035-.321.136-1.142-.582-1.949-1.744-1.949Zm8.149 3.699h-.089L124.373 332h-1.34l3.199-3.712-1.914-3.705h1.265l1.408 2.81h.089l2.338-2.81h1.36l-3.178 3.657 1.893 3.76h-1.237l-1.415-2.857Zm17.11-6.549h1.149l-.349 2.01h3.008l-.171.991h-2.994l-.752 4.067a1.662 1.662 0 0 0-.034.349c0 .683.451 1.011 1.421 1.011.459 0 1.19-.02 1.375-.041l-.165.985c-.177.034-1.168.068-1.538.068-1.483 0-2.283-.615-2.283-1.77 0-.164.021-.369.062-.595l.752-4.074h-1.976l.164-.991h1.983l.348-2.01Zm8.627 9.536c-1.784 0-2.974-1.196-2.974-2.933 0-.28.021-.567.069-.847l.178-1.026c.307-1.77 1.558-2.871 3.247-2.871 1.859 0 3.048 1.196 3.048 2.974 0 .205-.02.485-.068.793l-.184 1.032c-.329 1.839-1.532 2.878-3.316 2.878Zm.499-6.651c-1.1 0-1.887.758-2.112 2.03l-.164.936a4.54 4.54 0 0 0-.062.698c0 1.182.766 1.961 1.935 1.961 1.121 0 1.88-.745 2.119-2.091l.171-.964c.027-.205.041-.431.041-.629 0-1.162-.766-1.941-1.928-1.941Zm20.467 1.565h-1.155v-.034c0-.896-.725-1.531-1.764-1.531-1.251 0-1.989.765-2.27 2.324l-.082.451c-.047.28-.088.636-.088.889 0 1.251.676 1.955 1.873 1.955.902 0 1.613-.465 1.873-1.251h1.155c-.308 1.387-1.518 2.297-3.076 2.297-1.853 0-2.988-1.087-2.988-2.837 0-.226.021-.486.062-.8.034-.233.116-.725.185-1.114.321-1.853 1.592-2.954 3.397-2.954 1.73 0 2.878.999 2.878 2.489v.116Zm4.177 5.079c-1.313 0-2.222-.848-2.236-2.085-.013-1.538 1.121-2.399 3.172-2.42l1.846-.014.068-.375a2.5 2.5 0 0 0 .055-.493c0-.758-.595-1.244-1.518-1.244-.799 0-1.483.404-1.674.998h-1.163c.233-1.182 1.436-2.003 2.947-2.003 1.545 0 2.57.827 2.57 2.078 0 .315-.02.499-.143 1.156l-.752 4.279h-1.108l.185-1.066h-.069c-.369.731-1.203 1.189-2.18 1.189Zm.403-1.019a2.107 2.107 0 0 0 2.064-1.722l.165-.875-1.703.007c-1.251.007-1.955.499-1.962 1.36-.006.752.554 1.23 1.436 1.23Zm9.427 1.019c-1.169 0-2.092-.677-2.263-1.613h-.055l-.704 3.992h-1.162l1.743-9.919h1.142l-.232 1.306h.082c.335-.875 1.216-1.429 2.201-1.429 1.565 0 2.591 1.012 2.591 2.693a6.4 6.4 0 0 1-.082.944l-.212 1.189c-.315 1.777-1.463 2.837-3.049 2.837Zm-.151-1.087c1.121 0 1.846-.683 2.079-1.996l.17-.991c.028-.178.055-.465.055-.677 0-1.114-.656-1.832-1.716-1.832-1.169 0-2.023.738-2.249 2.01l-.198 1.1c-.02.13-.027.281-.027.493 0 1.1.765 1.893 1.886 1.893Zm8.477-8.442h1.148l-.348 2.01h3.008l-.171.991h-2.994l-.752 4.067a1.67 1.67 0 0 0-.035.349c0 .683.452 1.011 1.422 1.011.458 0 1.19-.02 1.374-.041l-.164.985c-.177.034-1.169.068-1.538.068-1.483 0-2.283-.615-2.283-1.77 0-.164.02-.369.061-.595l.752-4.074h-1.975l.164-.991h1.982l.349-2.01Zm12.605 1.989L207.177 332h-1.115l.226-1.271h-.082c-.383.868-1.23 1.408-2.29 1.408-1.415 0-2.345-.95-2.345-2.359 0-.253.028-.512.117-1.018l.724-4.177h1.162l-.731 4.163a4.277 4.277 0 0 0-.082.759c0 .943.608 1.565 1.579 1.565 1.1 0 1.975-.82 2.208-2.105l.772-4.382h1.162Zm4.608 4.081-.431 2.406h2.304l-.164.93h-4.929l.164-.93h1.497l.978-5.557h-1.641l.157-.93h2.769l-.328 1.894h.15c.486-1.361 1.477-2.085 2.817-2.085.437 0 .813.082 1.093.225l-.218 1.292c-.294-.171-.711-.253-1.204-.253-1.544 0-2.679 1.128-3.014 3.008Zm11.833 1.422c-.192 1.176-1.484 2.051-3.008 2.051-1.811 0-2.919-1.087-2.919-2.858 0-.273.027-.553.103-1.052l.143-.93c.274-1.757 1.566-2.851 3.391-2.851 1.77 0 2.953 1.251 2.775 2.933 0 .082-.061.56-.068.622l-.082.595h-5.066a7.484 7.484 0 0 0-.054.485c-.123 1.237.615 2.051 1.839 2.051.875 0 1.633-.438 1.797-1.046h1.149Zm-2.379-4.642c-1.114 0-1.935.684-2.147 1.812-.006.014-.082.437-.088.458h3.944c0-.027.034-.28.034-.321.137-1.142-.581-1.949-1.743-1.949Zm16.604-2.85h1.149l-.349 2.01h3.008l-.171.991h-2.994l-.752 4.067a1.732 1.732 0 0 0-.034.349c0 .683.451 1.011 1.422 1.011.458 0 1.189-.02 1.374-.041l-.164.985c-.178.034-1.169.068-1.538.068-1.484 0-2.284-.615-2.284-1.77 0-.164.021-.369.062-.595l.752-4.074h-1.976l.164-.991h1.983l.348-2.01Zm5.223 9.406 1.825-10.329h1.115l-.739 4.183h.075c.397-.868 1.258-1.401 2.304-1.401 1.402 0 2.352.937 2.352 2.352 0 .239-.034.519-.116 1.011l-.732 4.184h-1.162l.738-4.163c.048-.28.082-.554.082-.752 0-.937-.629-1.565-1.592-1.565-1.101 0-1.983.813-2.215 2.098l-.773 4.382h-1.162Zm15.169-1.914c-.191 1.176-1.483 2.051-3.008 2.051-1.811 0-2.919-1.087-2.919-2.858 0-.273.028-.553.103-1.052l.143-.93c.274-1.757 1.566-2.851 3.391-2.851 1.771 0 2.953 1.251 2.775 2.933 0 .082-.061.56-.068.622l-.082.595h-5.065a6.873 6.873 0 0 0-.055.485c-.123 1.237.615 2.051 1.839 2.051.875 0 1.634-.438 1.798-1.046h1.148Zm-2.379-4.642c-1.114 0-1.934.684-2.146 1.812-.007.014-.082.437-.089.458h3.944c0-.027.034-.28.034-.321.137-1.142-.581-1.949-1.743-1.949Zm16.803-.984c1.114 0 2.085.636 2.263 1.613h.061l.779-4.402h1.162L276.404 332h-1.141l.232-1.306h-.082c-.335.862-1.203 1.429-2.201 1.429-1.586 0-2.584-1.046-2.584-2.693 0-.349.034-.725.075-.944l.198-1.196c.294-1.75 1.463-2.83 3.063-2.83Zm.15 1.066c-1.128 0-1.839.691-2.078 1.996l-.171.992a4.646 4.646 0 0 0-.048.676c0 1.122.663 1.832 1.716 1.832 1.183 0 2.024-.758 2.249-2.009l.198-1.101c.028-.198.041-.328.041-.437 0-1.128-.806-1.949-1.907-1.949Zm8.279 6.604c-1.785 0-2.974-1.196-2.974-2.933 0-.28.02-.567.068-.847l.178-1.026c.308-1.77 1.559-2.871 3.247-2.871 1.859 0 3.049 1.196 3.049 2.974 0 .205-.021.485-.068.793l-.185 1.032c-.328 1.839-1.531 2.878-3.315 2.878Zm.499-6.651c-1.101 0-1.887.758-2.113 2.03l-.164.936a4.528 4.528 0 0 0-.061.698c0 1.182.765 1.961 1.934 1.961 1.121 0 1.88-.745 2.119-2.091l.171-.964c.028-.205.041-.431.041-.629 0-1.162-.765-1.941-1.927-1.941Zm6.145 1.51-.882 5.011h-1.046l1.306-7.417h1.025l-.177 1.046h.123c.307-.752.861-1.183 1.524-1.183.718 0 1.19.458 1.237 1.183h.124c.328-.773.868-1.183 1.558-1.183.909 0 1.436.568 1.436 1.525 0 .205-.028.444-.069.69L294.26 332h-1.046l.902-5.106c.028-.185.048-.349.048-.513 0-.574-.26-.875-.752-.875-.642 0-1.141.547-1.312 1.476l-.882 5.018h-1.039l.902-5.113c.034-.178.048-.342.048-.506 0-.574-.26-.875-.759-.875-.656 0-1.162.554-1.333 1.483Zm9.844 5.134c-1.313 0-2.222-.848-2.235-2.085-.014-1.538 1.121-2.399 3.171-2.42l1.846-.014.068-.375a2.5 2.5 0 0 0 .055-.493c0-.758-.595-1.244-1.517-1.244-.8 0-1.484.404-1.675.998h-1.162c.232-1.182 1.435-2.003 2.946-2.003 1.545 0 2.57.827 2.57 2.078 0 .315-.02.499-.143 1.156l-.752 4.279h-1.108l.185-1.066h-.068c-.37.731-1.204 1.189-2.181 1.189Zm.403-1.019a2.109 2.109 0 0 0 2.065-1.722l.164-.875-1.702.007c-1.251.007-1.956.499-1.962 1.36-.007.752.553 1.23 1.435 1.23Zm10.63-8.339a.94.94 0 0 1-.964-.957.94.94 0 0 1 .964-.951.94.94 0 0 1 .964.951.94.94 0 0 1-.964.957Zm1.319 9.235h-6.145l.164-.964h2.543l.977-5.489h-2.515l.157-.964h3.671l-1.148 6.453h2.46l-.164.964Zm2.379 0 1.306-7.417h1.114l-.219 1.271h.076c.382-.868 1.237-1.408 2.297-1.408 1.415 0 2.337.95 2.337 2.359 0 .253-.027.512-.109 1.018l-.731 4.177h-1.162l.738-4.163c.048-.287.075-.561.075-.759 0-.943-.608-1.565-1.579-1.565-1.094 0-1.976.82-2.208 2.105l-.773 4.382h-1.162Zm19.25 0 1.135-6.405h-1.989l.171-.991h1.989l.137-.746c.246-1.476 1.251-2.167 3.076-2.167.41 0 1.347.062 1.709.158l-.164.97c-.328-.082-1.299-.157-1.689-.157-1.046 0-1.647.397-1.784 1.176l-.137.766h3.268l-.164.991h-3.261L334.024 332h-1.162Zm10.042-3.336-.43 2.406h2.303l-.164.93h-4.928l.164-.93h1.497l.977-5.557h-1.64l.157-.93h2.768l-.328 1.894h.151c.485-1.361 1.476-2.085 2.816-2.085.438 0 .814.082 1.094.225l-.219 1.292c-.294-.171-.711-.253-1.203-.253-1.545 0-2.68 1.128-3.015 3.008Zm8.723 3.466c-1.784 0-2.974-1.196-2.974-2.933 0-.28.021-.567.069-.847l.177-1.026c.308-1.77 1.559-2.871 3.247-2.871 1.86 0 3.049 1.196 3.049 2.974 0 .205-.02.485-.068.793l-.185 1.032c-.328 1.839-1.531 2.878-3.315 2.878Zm.499-6.651c-1.101 0-1.887.758-2.112 2.03l-.164.936a4.54 4.54 0 0 0-.062.698c0 1.182.766 1.961 1.935 1.961 1.121 0 1.88-.745 2.119-2.091l.171-.964c.027-.205.041-.431.041-.629 0-1.162-.766-1.941-1.928-1.941Zm6.145 1.51L357.39 332h-1.046l1.305-7.417h1.026l-.178 1.046h.123c.308-.752.861-1.183 1.525-1.183.717 0 1.189.458 1.237 1.183h.123c.328-.773.868-1.183 1.558-1.183.91 0 1.436.568 1.436 1.525 0 .205-.027.444-.068.69l-.937 5.339h-1.046l.903-5.106c.027-.185.047-.349.047-.513 0-.574-.259-.875-.752-.875-.642 0-1.141.547-1.312 1.476l-.882 5.018h-1.039l.902-5.113c.035-.178.048-.342.048-.506 0-.574-.259-.875-.759-.875-.656 0-1.162.554-1.333 1.483Zm22.429 3.097c-.191 1.176-1.483 2.051-3.008 2.051-1.811 0-2.919-1.087-2.919-2.858 0-.273.028-.553.103-1.052l.144-.93c.273-1.757 1.565-2.851 3.39-2.851 1.771 0 2.953 1.251 2.776 2.933 0 .082-.062.56-.069.622l-.082.595h-5.065a6.873 6.873 0 0 0-.055.485c-.123 1.237.615 2.051 1.839 2.051.875 0 1.634-.438 1.798-1.046h1.148Zm-2.379-4.642c-1.114 0-1.934.684-2.146 1.812-.007.014-.082.437-.089.458h3.944c0-.027.034-.28.034-.321.137-1.142-.581-1.949-1.743-1.949Zm5.913 1.545-.881 5.011h-1.046l1.305-7.417h1.026l-.178 1.046h.123c.308-.752.861-1.183 1.524-1.183.718 0 1.19.458 1.238 1.183h.123c.328-.773.868-1.183 1.558-1.183.91 0 1.436.568 1.436 1.525 0 .205-.027.444-.068.69l-.937 5.339h-1.046l.902-5.106c.028-.185.048-.349.048-.513 0-.574-.259-.875-.752-.875-.642 0-1.141.547-1.312 1.476l-.882 5.018h-1.039l.902-5.113c.034-.178.048-.342.048-.506 0-.574-.26-.875-.759-.875-.656 0-1.162.554-1.333 1.483Zm9.844 5.134c-1.312 0-2.222-.848-2.235-2.085-.014-1.538 1.121-2.399 3.172-2.42l1.845-.014.069-.375c.041-.226.054-.342.054-.493 0-.758-.594-1.244-1.517-1.244-.8 0-1.484.404-1.675.998h-1.162c.232-1.182 1.435-2.003 2.946-2.003 1.545 0 2.571.827 2.571 2.078 0 .315-.021.499-.144 1.156L397.25 332h-1.107l.184-1.066h-.068c-.369.731-1.203 1.189-2.181 1.189Zm.403-1.019a2.109 2.109 0 0 0 2.065-1.722l.164-.875-1.702.007c-1.251.007-1.955.499-1.962 1.36-.007.752.554 1.23 1.435 1.23Zm10.63-8.339a.94.94 0 0 1-.964-.957.94.94 0 0 1 .964-.951.94.94 0 0 1 .964.951.94.94 0 0 1-.964.957Zm1.32 9.235h-6.146l.164-.964h2.543l.978-5.489h-2.516l.157-.964h3.671l-1.148 6.453h2.461l-.164.964Zm8.654 0h-6.146l.165-.964h2.536l1.497-8.401h-2.516l.164-.964h3.671l-1.654 9.365h2.447l-.164.964Zm13.61.123c-1.312 0-2.221-.848-2.235-2.085-.014-1.538 1.121-2.399 3.172-2.42l1.846-.014.068-.375a2.5 2.5 0 0 0 .055-.493c0-.758-.595-1.244-1.518-1.244-.8 0-1.483.404-1.675.998h-1.162c.233-1.182 1.436-2.003 2.946-2.003 1.545 0 2.571.827 2.571 2.078 0 .315-.021.499-.144 1.156l-.752 4.279h-1.107l.184-1.066h-.068c-.369.731-1.203 1.189-2.181 1.189Zm.404-1.019a2.108 2.108 0 0 0 2.064-1.722l.164-.875-1.702.007c-1.251.007-1.955.499-1.962 1.36-.007.752.554 1.23 1.436 1.23Zm9.297-6.644c1.114 0 2.084.636 2.262 1.613h.062l.779-4.402h1.162L440.836 332h-1.142l.233-1.306h-.082c-.335.862-1.203 1.429-2.201 1.429-1.586 0-2.584-1.046-2.584-2.693 0-.349.034-.725.075-.944l.198-1.196c.294-1.75 1.463-2.83 3.063-2.83Zm.15 1.066c-1.128 0-1.839.691-2.078 1.996l-.171.992a4.646 4.646 0 0 0-.048.676c0 1.122.663 1.832 1.716 1.832 1.182 0 2.023-.758 2.249-2.009l.198-1.101c.027-.198.041-.328.041-.437 0-1.128-.807-1.949-1.907-1.949Zm8.504-1.066c1.114 0 2.085.636 2.262 1.613h.062l.779-4.402h1.162L449.49 332h-1.141l.232-1.306h-.082c-.335.862-1.203 1.429-2.201 1.429-1.586 0-2.584-1.046-2.584-2.693 0-.349.034-.725.075-.944l.198-1.196c.294-1.75 1.463-2.83 3.063-2.83Zm.15 1.066c-1.128 0-1.839.691-2.078 1.996l-.171.992a4.646 4.646 0 0 0-.048.676c0 1.122.663 1.832 1.716 1.832 1.183 0 2.024-.758 2.249-2.009l.198-1.101c.028-.198.041-.328.041-.437 0-1.128-.806-1.949-1.907-1.949Zm8.21 3.138-.431 2.406h2.304l-.164.93h-4.929l.164-.93h1.498l.977-5.557h-1.641l.158-.93h2.768l-.328 1.894h.151c.485-1.361 1.476-2.085 2.816-2.085.437 0 .813.082 1.094.225l-.219 1.292c-.294-.171-.711-.253-1.203-.253-1.545 0-2.68 1.128-3.015 3.008Zm11.833 1.422c-.191 1.176-1.483 2.051-3.008 2.051-1.811 0-2.919-1.087-2.919-2.858 0-.273.028-.553.103-1.052l.143-.93c.274-1.757 1.566-2.851 3.391-2.851 1.771 0 2.953 1.251 2.776 2.933 0 .082-.062.56-.069.622l-.082.595h-5.065a6.873 6.873 0 0 0-.055.485c-.123 1.237.615 2.051 1.839 2.051.875 0 1.634-.438 1.798-1.046h1.148Zm-2.379-4.642c-1.114 0-1.934.684-2.146 1.812-.007.014-.082.437-.089.458h3.944c0-.027.034-.28.034-.321.137-1.142-.581-1.949-1.743-1.949Zm5.811 1.251c0-1.34 1.162-2.256 2.837-2.256 1.592 0 2.604.78 2.666 2.051 0 .041-.007.069-.007.096h-1.128v-.021c-.082-.752-.636-1.169-1.559-1.169-.963 0-1.633.472-1.633 1.149 0 .485.321.786 1.134 1.053l.978.321c1.244.41 1.764.971 1.764 1.873 0 1.401-1.197 2.352-2.967 2.352-1.716 0-2.844-.828-2.892-2.133v-.069h1.149v.014c.102.773.745 1.21 1.77 1.21 1.032 0 1.723-.478 1.723-1.196 0-.506-.322-.814-1.121-1.074l-1.026-.334c-1.162-.39-1.688-.971-1.688-1.867Zm8.654 0c0-1.34 1.162-2.256 2.837-2.256 1.593 0 2.605.78 2.666 2.051 0 .041-.007.069-.007.096h-1.128v-.021c-.082-.752-.635-1.169-1.558-1.169-.964 0-1.634.472-1.634 1.149 0 .485.321.786 1.135 1.053l.977.321c1.244.41 1.764.971 1.764 1.873 0 1.401-1.196 2.352-2.967 2.352-1.716 0-2.844-.828-2.892-2.133v-.069h1.149v.014c.102.773.745 1.21 1.77 1.21 1.033 0 1.723-.478 1.723-1.196 0-.506-.321-.814-1.121-1.074l-1.025-.334c-1.163-.39-1.689-.971-1.689-1.867Zm13.877 3.391c-.191 1.176-1.483 2.051-3.008 2.051-1.811 0-2.919-1.087-2.919-2.858 0-.273.028-.553.103-1.052l.143-.93c.274-1.757 1.566-2.851 3.391-2.851 1.771 0 2.953 1.251 2.775 2.933 0 .082-.061.56-.068.622l-.082.595h-5.065a6.873 6.873 0 0 0-.055.485c-.123 1.237.615 2.051 1.839 2.051.875 0 1.634-.438 1.798-1.046h1.148Zm-2.379-4.642c-1.114 0-1.934.684-2.146 1.812-.007.014-.082.437-.089.458h3.944c0-.027.034-.28.034-.321.137-1.142-.581-1.949-1.743-1.949Zm5.811 1.251c0-1.34 1.162-2.256 2.837-2.256 1.592 0 2.604.78 2.666 2.051 0 .041-.007.069-.007.096h-1.128v-.021c-.082-.752-.636-1.169-1.559-1.169-.964 0-1.634.472-1.634 1.149 0 .485.322.786 1.135 1.053l.978.321c1.244.41 1.763.971 1.763 1.873 0 1.401-1.196 2.352-2.966 2.352-1.716 0-2.844-.828-2.892-2.133v-.069h1.148v.014c.103.773.746 1.21 1.771 1.21 1.032 0 1.723-.478 1.723-1.196 0-.506-.322-.814-1.121-1.074l-1.026-.334c-1.162-.39-1.688-.971-1.688-1.867Z"/></svg>