<svg width="298" height="311" viewBox="0 0 298 311" fill="none" xmlns="http://www.w3.org/2000/svg">
<path d="M52.3333 0H72.3333C73.2174 0 74.0652 0.351189 74.6904 0.976311C75.3155 1.60143 75.6667 2.44928 75.6667 3.33333V30C75.6667 30.8841 75.3155 31.7319 74.6904 32.357C74.0652 32.9821 73.2174 33.3333 72.3333 33.3333H52.3333C51.4493 33.3333 50.6014 32.9821 49.9763 32.357C49.3512 31.7319 49 30.8841 49 30V3.33333C49 2.44928 49.3512 1.60143 49.9763 0.976311C50.6014 0.351189 51.4493 0 52.3333 0ZM63.5833 19.1667C68.1667 19.1667 69.4 15.7833 69.7167 14C71.2333 13.5167 72.3333 12.1 72.3333 10.4167C72.3333 8.33333 70.6667 6.66667 68.5833 6.66667C66.5 6.66667 64.8333 8.33333 64.8333 10.4167C64.8333 11.9833 65.7833 13.3333 67.15 13.8833C66.7833 15 65.6667 16.6667 62.3333 16.6667C60.0333 16.6667 58.4333 17.25 57.3333 18.0667V11.45C58.7833 10.9333 59.8333 9.55 59.8333 7.91667C59.8333 5.83333 58.1667 4.16667 56.0833 4.16667C54 4.16667 52.3333 5.83333 52.3333 7.91667C52.3333 9.55 53.3833 10.9333 54.8333 11.45V21.8833C53.3833 22.4 52.3333 23.7833 52.3333 25.4167C52.3333 27.5 54 29.1667 56.0833 29.1667C58.1667 29.1667 59.8333 27.5 59.8333 25.4167C59.8333 23.8667 58.9 22.5 57.55 21.9667C58.0167 20.8333 59.3833 19.1667 63.5833 19.1667ZM56.0833 24.1667C56.4149 24.1667 56.7328 24.2984 56.9672 24.5328C57.2016 24.7672 57.3333 25.0851 57.3333 25.4167C57.3333 25.7482 57.2016 26.0661 56.9672 26.3006C56.7328 26.535 56.4149 26.6667 56.0833 26.6667C55.7518 26.6667 55.4339 26.535 55.1994 26.3006C54.965 26.0661 54.8333 25.7482 54.8333 25.4167C54.8333 25.0851 54.965 24.7672 55.1994 24.5328C55.4339 24.2984 55.7518 24.1667 56.0833 24.1667ZM56.0833 6.66667C56.4149 6.66667 56.7328 6.79836 56.9672 7.03278C57.2016 7.2672 57.3333 7.58515 57.3333 7.91667C57.3333 8.24819 57.2016 8.56613 56.9672 8.80055C56.7328 9.03497 56.4149 9.16667 56.0833 9.16667C55.7518 9.16667 55.4339 9.03497 55.1994 8.80055C54.965 8.56613 54.8333 8.24819 54.8333 7.91667C54.8333 7.58515 54.965 7.2672 55.1994 7.03278C55.4339 6.79836 55.7518 6.66667 56.0833 6.66667ZM68.5833 9.16667C68.9149 9.16667 69.2328 9.29836 69.4672 9.53278C69.7016 9.7672 69.8333 10.0851 69.8333 10.4167C69.8333 10.7482 69.7016 11.0661 69.4672 11.3005C69.2328 11.535 68.9149 11.6667 68.5833 11.6667C68.2518 11.6667 67.9339 11.535 67.6994 11.3005C67.465 11.0661 67.3333 10.7482 67.3333 10.4167C67.3333 10.0851 67.465 9.7672 67.6994 9.53278C67.9339 9.29836 68.2518 9.16667 68.5833 9.16667Z" fill="#1D2535"/>
<path d="M239.333 0H259.333C260.217 0 261.065 0.351189 261.69 0.976311C262.315 1.60143 262.667 2.44928 262.667 3.33333V30C262.667 30.8841 262.315 31.7319 261.69 32.357C261.065 32.9821 260.217 33.3333 259.333 33.3333H239.333C238.449 33.3333 237.601 32.9821 236.976 32.357C236.351 31.7319 236 30.8841 236 30V3.33333C236 2.44928 236.351 1.60143 236.976 0.976311C237.601 0.351189 238.449 0 239.333 0ZM250.583 19.1667C255.167 19.1667 256.4 15.7833 256.717 14C258.233 13.5167 259.333 12.1 259.333 10.4167C259.333 8.33333 257.667 6.66667 255.583 6.66667C253.5 6.66667 251.833 8.33333 251.833 10.4167C251.833 11.9833 252.783 13.3333 254.15 13.8833C253.783 15 252.667 16.6667 249.333 16.6667C247.033 16.6667 245.433 17.25 244.333 18.0667V11.45C245.783 10.9333 246.833 9.55 246.833 7.91667C246.833 5.83333 245.167 4.16667 243.083 4.16667C241 4.16667 239.333 5.83333 239.333 7.91667C239.333 9.55 240.383 10.9333 241.833 11.45V21.8833C240.383 22.4 239.333 23.7833 239.333 25.4167C239.333 27.5 241 29.1667 243.083 29.1667C245.167 29.1667 246.833 27.5 246.833 25.4167C246.833 23.8667 245.9 22.5 244.55 21.9667C245.017 20.8333 246.383 19.1667 250.583 19.1667ZM243.083 24.1667C243.415 24.1667 243.733 24.2984 243.967 24.5328C244.202 24.7672 244.333 25.0851 244.333 25.4167C244.333 25.7482 244.202 26.0661 243.967 26.3006C243.733 26.535 243.415 26.6667 243.083 26.6667C242.752 26.6667 242.434 26.535 242.199 26.3006C241.965 26.0661 241.833 25.7482 241.833 25.4167C241.833 25.0851 241.965 24.7672 242.199 24.5328C242.434 24.2984 242.752 24.1667 243.083 24.1667ZM243.083 6.66667C243.415 6.66667 243.733 6.79836 243.967 7.03278C244.202 7.2672 244.333 7.58515 244.333 7.91667C244.333 8.24819 244.202 8.56613 243.967 8.80055C243.733 9.03497 243.415 9.16667 243.083 9.16667C242.752 9.16667 242.434 9.03497 242.199 8.80055C241.965 8.56613 241.833 8.24819 241.833 7.91667C241.833 7.58515 241.965 7.2672 242.199 7.03278C242.434 6.79836 242.752 6.66667 243.083 6.66667ZM255.583 9.16667C255.915 9.16667 256.233 9.29836 256.467 9.53278C256.702 9.7672 256.833 10.0851 256.833 10.4167C256.833 10.7482 256.702 11.0661 256.467 11.3005C256.233 11.535 255.915 11.6667 255.583 11.6667C255.252 11.6667 254.934 11.535 254.699 11.3005C254.465 11.0661 254.333 10.7482 254.333 10.4167C254.333 10.0851 254.465 9.7672 254.699 9.53278C254.934 9.29836 255.252 9.16667 255.583 9.16667Z" fill="#1D2535"/>
<path d="M52.3333 56H72.3333C73.2174 56 74.0652 56.3512 74.6904 56.9763C75.3155 57.6014 75.6667 58.4493 75.6667 59.3333V86C75.6667 86.8841 75.3155 87.7319 74.6904 88.357C74.0652 88.9821 73.2174 89.3333 72.3333 89.3333H52.3333C51.4493 89.3333 50.6014 88.9821 49.9763 88.357C49.3512 87.7319 49 86.8841 49 86V59.3333C49 58.4493 49.3512 57.6014 49.9763 56.9763C50.6014 56.3512 51.4493 56 52.3333 56ZM63.5833 75.1667C68.1667 75.1667 69.4 71.7833 69.7167 70C71.2333 69.5167 72.3333 68.1 72.3333 66.4167C72.3333 64.3333 70.6667 62.6667 68.5833 62.6667C66.5 62.6667 64.8333 64.3333 64.8333 66.4167C64.8333 67.9833 65.7833 69.3333 67.15 69.8833C66.7833 71 65.6667 72.6667 62.3333 72.6667C60.0333 72.6667 58.4333 73.25 57.3333 74.0667V67.45C58.7833 66.9333 59.8333 65.55 59.8333 63.9167C59.8333 61.8333 58.1667 60.1667 56.0833 60.1667C54 60.1667 52.3333 61.8333 52.3333 63.9167C52.3333 65.55 53.3833 66.9333 54.8333 67.45V77.8833C53.3833 78.4 52.3333 79.7833 52.3333 81.4167C52.3333 83.5 54 85.1667 56.0833 85.1667C58.1667 85.1667 59.8333 83.5 59.8333 81.4167C59.8333 79.8667 58.9 78.5 57.55 77.9667C58.0167 76.8333 59.3833 75.1667 63.5833 75.1667ZM56.0833 80.1667C56.4149 80.1667 56.7328 80.2984 56.9672 80.5328C57.2016 80.7672 57.3333 81.0851 57.3333 81.4167C57.3333 81.7482 57.2016 82.0661 56.9672 82.3006C56.7328 82.535 56.4149 82.6667 56.0833 82.6667C55.7518 82.6667 55.4339 82.535 55.1994 82.3006C54.965 82.0661 54.8333 81.7482 54.8333 81.4167C54.8333 81.0851 54.965 80.7672 55.1994 80.5328C55.4339 80.2984 55.7518 80.1667 56.0833 80.1667ZM56.0833 62.6667C56.4149 62.6667 56.7328 62.7984 56.9672 63.0328C57.2016 63.2672 57.3333 63.5851 57.3333 63.9167C57.3333 64.2482 57.2016 64.5661 56.9672 64.8006C56.7328 65.035 56.4149 65.1667 56.0833 65.1667C55.7518 65.1667 55.4339 65.035 55.1994 64.8006C54.965 64.5661 54.8333 64.2482 54.8333 63.9167C54.8333 63.5851 54.965 63.2672 55.1994 63.0328C55.4339 62.7984 55.7518 62.6667 56.0833 62.6667ZM68.5833 65.1667C68.9149 65.1667 69.2328 65.2984 69.4672 65.5328C69.7016 65.7672 69.8333 66.0851 69.8333 66.4167C69.8333 66.7482 69.7016 67.0661 69.4672 67.3005C69.2328 67.535 68.9149 67.6667 68.5833 67.6667C68.2518 67.6667 67.9339 67.535 67.6994 67.3005C67.465 67.0661 67.3333 66.7482 67.3333 66.4167C67.3333 66.0851 67.465 65.7672 67.6994 65.5328C67.9339 65.2984 68.2518 65.1667 68.5833 65.1667Z" fill="#1D2535"/>
<path d="M239.333 56H259.333C260.217 56 261.065 56.3512 261.69 56.9763C262.315 57.6014 262.667 58.4493 262.667 59.3333V86C262.667 86.8841 262.315 87.7319 261.69 88.357C261.065 88.9821 260.217 89.3333 259.333 89.3333H239.333C238.449 89.3333 237.601 88.9821 236.976 88.357C236.351 87.7319 236 86.8841 236 86V59.3333C236 58.4493 236.351 57.6014 236.976 56.9763C237.601 56.3512 238.449 56 239.333 56ZM250.583 75.1667C255.167 75.1667 256.4 71.7833 256.717 70C258.233 69.5167 259.333 68.1 259.333 66.4167C259.333 64.3333 257.667 62.6667 255.583 62.6667C253.5 62.6667 251.833 64.3333 251.833 66.4167C251.833 67.9833 252.783 69.3333 254.15 69.8833C253.783 71 252.667 72.6667 249.333 72.6667C247.033 72.6667 245.433 73.25 244.333 74.0667V67.45C245.783 66.9333 246.833 65.55 246.833 63.9167C246.833 61.8333 245.167 60.1667 243.083 60.1667C241 60.1667 239.333 61.8333 239.333 63.9167C239.333 65.55 240.383 66.9333 241.833 67.45V77.8833C240.383 78.4 239.333 79.7833 239.333 81.4167C239.333 83.5 241 85.1667 243.083 85.1667C245.167 85.1667 246.833 83.5 246.833 81.4167C246.833 79.8667 245.9 78.5 244.55 77.9667C245.017 76.8333 246.383 75.1667 250.583 75.1667ZM243.083 80.1667C243.415 80.1667 243.733 80.2984 243.967 80.5328C244.202 80.7672 244.333 81.0851 244.333 81.4167C244.333 81.7482 244.202 82.0661 243.967 82.3006C243.733 82.535 243.415 82.6667 243.083 82.6667C242.752 82.6667 242.434 82.535 242.199 82.3006C241.965 82.0661 241.833 81.7482 241.833 81.4167C241.833 81.0851 241.965 80.7672 242.199 80.5328C242.434 80.2984 242.752 80.1667 243.083 80.1667ZM243.083 62.6667C243.415 62.6667 243.733 62.7984 243.967 63.0328C244.202 63.2672 244.333 63.5851 244.333 63.9167C244.333 64.2482 244.202 64.5661 243.967 64.8006C243.733 65.035 243.415 65.1667 243.083 65.1667C242.752 65.1667 242.434 65.035 242.199 64.8006C241.965 64.5661 241.833 64.2482 241.833 63.9167C241.833 63.5851 241.965 63.2672 242.199 63.0328C242.434 62.7984 242.752 62.6667 243.083 62.6667ZM255.583 65.1667C255.915 65.1667 256.233 65.2984 256.467 65.5328C256.702 65.7672 256.833 66.0851 256.833 66.4167C256.833 66.7482 256.702 67.0661 256.467 67.3005C256.233 67.535 255.915 67.6667 255.583 67.6667C255.252 67.6667 254.934 67.535 254.699 67.3005C254.465 67.0661 254.333 66.7482 254.333 66.4167C254.333 66.0851 254.465 65.7672 254.699 65.5328C254.934 65.2984 255.252 65.1667 255.583 65.1667Z" fill="#1D2535"/>
<path d="M52.3333 111H72.3333C73.2174 111 74.0652 111.351 74.6904 111.976C75.3155 112.601 75.6667 113.449 75.6667 114.333V141C75.6667 141.884 75.3155 142.732 74.6904 143.357C74.0652 143.982 73.2174 144.333 72.3333 144.333H52.3333C51.4493 144.333 50.6014 143.982 49.9763 143.357C49.3512 142.732 49 141.884 49 141V114.333C49 113.449 49.3512 112.601 49.9763 111.976C50.6014 111.351 51.4493 111 52.3333 111ZM63.5833 130.167C68.1667 130.167 69.4 126.783 69.7167 125C71.2333 124.517 72.3333 123.1 72.3333 121.417C72.3333 119.333 70.6667 117.667 68.5833 117.667C66.5 117.667 64.8333 119.333 64.8333 121.417C64.8333 122.983 65.7833 124.333 67.15 124.883C66.7833 126 65.6667 127.667 62.3333 127.667C60.0333 127.667 58.4333 128.25 57.3333 129.067V122.45C58.7833 121.933 59.8333 120.55 59.8333 118.917C59.8333 116.833 58.1667 115.167 56.0833 115.167C54 115.167 52.3333 116.833 52.3333 118.917C52.3333 120.55 53.3833 121.933 54.8333 122.45V132.883C53.3833 133.4 52.3333 134.783 52.3333 136.417C52.3333 138.5 54 140.167 56.0833 140.167C58.1667 140.167 59.8333 138.5 59.8333 136.417C59.8333 134.867 58.9 133.5 57.55 132.967C58.0167 131.833 59.3833 130.167 63.5833 130.167ZM56.0833 135.167C56.4149 135.167 56.7328 135.298 56.9672 135.533C57.2016 135.767 57.3333 136.085 57.3333 136.417C57.3333 136.748 57.2016 137.066 56.9672 137.301C56.7328 137.535 56.4149 137.667 56.0833 137.667C55.7518 137.667 55.4339 137.535 55.1994 137.301C54.965 137.066 54.8333 136.748 54.8333 136.417C54.8333 136.085 54.965 135.767 55.1994 135.533C55.4339 135.298 55.7518 135.167 56.0833 135.167ZM56.0833 117.667C56.4149 117.667 56.7328 117.798 56.9672 118.033C57.2016 118.267 57.3333 118.585 57.3333 118.917C57.3333 119.248 57.2016 119.566 56.9672 119.801C56.7328 120.035 56.4149 120.167 56.0833 120.167C55.7518 120.167 55.4339 120.035 55.1994 119.801C54.965 119.566 54.8333 119.248 54.8333 118.917C54.8333 118.585 54.965 118.267 55.1994 118.033C55.4339 117.798 55.7518 117.667 56.0833 117.667ZM68.5833 120.167C68.9149 120.167 69.2328 120.298 69.4672 120.533C69.7016 120.767 69.8333 121.085 69.8333 121.417C69.8333 121.748 69.7016 122.066 69.4672 122.301C69.2328 122.535 68.9149 122.667 68.5833 122.667C68.2518 122.667 67.9339 122.535 67.6994 122.301C67.465 122.066 67.3333 121.748 67.3333 121.417C67.3333 121.085 67.465 120.767 67.6994 120.533C67.9339 120.298 68.2518 120.167 68.5833 120.167Z" fill="#1D2535"/>
<path d="M239.333 111H259.333C260.217 111 261.065 111.351 261.69 111.976C262.315 112.601 262.667 113.449 262.667 114.333V141C262.667 141.884 262.315 142.732 261.69 143.357C261.065 143.982 260.217 144.333 259.333 144.333H239.333C238.449 144.333 237.601 143.982 236.976 143.357C236.351 142.732 236 141.884 236 141V114.333C236 113.449 236.351 112.601 236.976 111.976C237.601 111.351 238.449 111 239.333 111ZM250.583 130.167C255.167 130.167 256.4 126.783 256.717 125C258.233 124.517 259.333 123.1 259.333 121.417C259.333 119.333 257.667 117.667 255.583 117.667C253.5 117.667 251.833 119.333 251.833 121.417C251.833 122.983 252.783 124.333 254.15 124.883C253.783 126 252.667 127.667 249.333 127.667C247.033 127.667 245.433 128.25 244.333 129.067V122.45C245.783 121.933 246.833 120.55 246.833 118.917C246.833 116.833 245.167 115.167 243.083 115.167C241 115.167 239.333 116.833 239.333 118.917C239.333 120.55 240.383 121.933 241.833 122.45V132.883C240.383 133.4 239.333 134.783 239.333 136.417C239.333 138.5 241 140.167 243.083 140.167C245.167 140.167 246.833 138.5 246.833 136.417C246.833 134.867 245.9 133.5 244.55 132.967C245.017 131.833 246.383 130.167 250.583 130.167ZM243.083 135.167C243.415 135.167 243.733 135.298 243.967 135.533C244.202 135.767 244.333 136.085 244.333 136.417C244.333 136.748 244.202 137.066 243.967 137.301C243.733 137.535 243.415 137.667 243.083 137.667C242.752 137.667 242.434 137.535 242.199 137.301C241.965 137.066 241.833 136.748 241.833 136.417C241.833 136.085 241.965 135.767 242.199 135.533C242.434 135.298 242.752 135.167 243.083 135.167ZM243.083 117.667C243.415 117.667 243.733 117.798 243.967 118.033C244.202 118.267 244.333 118.585 244.333 118.917C244.333 119.248 244.202 119.566 243.967 119.801C243.733 120.035 243.415 120.167 243.083 120.167C242.752 120.167 242.434 120.035 242.199 119.801C241.965 119.566 241.833 119.248 241.833 118.917C241.833 118.585 241.965 118.267 242.199 118.033C242.434 117.798 242.752 117.667 243.083 117.667ZM255.583 120.167C255.915 120.167 256.233 120.298 256.467 120.533C256.702 120.767 256.833 121.085 256.833 121.417C256.833 121.748 256.702 122.066 256.467 122.301C256.233 122.535 255.915 122.667 255.583 122.667C255.252 122.667 254.934 122.535 254.699 122.301C254.465 122.066 254.333 121.748 254.333 121.417C254.333 121.085 254.465 120.767 254.699 120.533C254.934 120.298 255.252 120.167 255.583 120.167Z" fill="#1D2535"/>
<path d="M52.3333 166H72.3333C73.2174 166 74.0652 166.351 74.6904 166.976C75.3155 167.601 75.6667 168.449 75.6667 169.333V196C75.6667 196.884 75.3155 197.732 74.6904 198.357C74.0652 198.982 73.2174 199.333 72.3333 199.333H52.3333C51.4493 199.333 50.6014 198.982 49.9763 198.357C49.3512 197.732 49 196.884 49 196V169.333C49 168.449 49.3512 167.601 49.9763 166.976C50.6014 166.351 51.4493 166 52.3333 166ZM63.5833 185.167C68.1667 185.167 69.4 181.783 69.7167 180C71.2333 179.517 72.3333 178.1 72.3333 176.417C72.3333 174.333 70.6667 172.667 68.5833 172.667C66.5 172.667 64.8333 174.333 64.8333 176.417C64.8333 177.983 65.7833 179.333 67.15 179.883C66.7833 181 65.6667 182.667 62.3333 182.667C60.0333 182.667 58.4333 183.25 57.3333 184.067V177.45C58.7833 176.933 59.8333 175.55 59.8333 173.917C59.8333 171.833 58.1667 170.167 56.0833 170.167C54 170.167 52.3333 171.833 52.3333 173.917C52.3333 175.55 53.3833 176.933 54.8333 177.45V187.883C53.3833 188.4 52.3333 189.783 52.3333 191.417C52.3333 193.5 54 195.167 56.0833 195.167C58.1667 195.167 59.8333 193.5 59.8333 191.417C59.8333 189.867 58.9 188.5 57.55 187.967C58.0167 186.833 59.3833 185.167 63.5833 185.167ZM56.0833 190.167C56.4149 190.167 56.7328 190.298 56.9672 190.533C57.2016 190.767 57.3333 191.085 57.3333 191.417C57.3333 191.748 57.2016 192.066 56.9672 192.301C56.7328 192.535 56.4149 192.667 56.0833 192.667C55.7518 192.667 55.4339 192.535 55.1994 192.301C54.965 192.066 54.8333 191.748 54.8333 191.417C54.8333 191.085 54.965 190.767 55.1994 190.533C55.4339 190.298 55.7518 190.167 56.0833 190.167ZM56.0833 172.667C56.4149 172.667 56.7328 172.798 56.9672 173.033C57.2016 173.267 57.3333 173.585 57.3333 173.917C57.3333 174.248 57.2016 174.566 56.9672 174.801C56.7328 175.035 56.4149 175.167 56.0833 175.167C55.7518 175.167 55.4339 175.035 55.1994 174.801C54.965 174.566 54.8333 174.248 54.8333 173.917C54.8333 173.585 54.965 173.267 55.1994 173.033C55.4339 172.798 55.7518 172.667 56.0833 172.667ZM68.5833 175.167C68.9149 175.167 69.2328 175.298 69.4672 175.533C69.7016 175.767 69.8333 176.085 69.8333 176.417C69.8333 176.748 69.7016 177.066 69.4672 177.301C69.2328 177.535 68.9149 177.667 68.5833 177.667C68.2518 177.667 67.9339 177.535 67.6994 177.301C67.465 177.066 67.3333 176.748 67.3333 176.417C67.3333 176.085 67.465 175.767 67.6994 175.533C67.9339 175.298 68.2518 175.167 68.5833 175.167Z" fill="#1D2535"/>
<path d="M239.333 166H259.333C260.217 166 261.065 166.351 261.69 166.976C262.315 167.601 262.667 168.449 262.667 169.333V196C262.667 196.884 262.315 197.732 261.69 198.357C261.065 198.982 260.217 199.333 259.333 199.333H239.333C238.449 199.333 237.601 198.982 236.976 198.357C236.351 197.732 236 196.884 236 196V169.333C236 168.449 236.351 167.601 236.976 166.976C237.601 166.351 238.449 166 239.333 166ZM250.583 185.167C255.167 185.167 256.4 181.783 256.717 180C258.233 179.517 259.333 178.1 259.333 176.417C259.333 174.333 257.667 172.667 255.583 172.667C253.5 172.667 251.833 174.333 251.833 176.417C251.833 177.983 252.783 179.333 254.15 179.883C253.783 181 252.667 182.667 249.333 182.667C247.033 182.667 245.433 183.25 244.333 184.067V177.45C245.783 176.933 246.833 175.55 246.833 173.917C246.833 171.833 245.167 170.167 243.083 170.167C241 170.167 239.333 171.833 239.333 173.917C239.333 175.55 240.383 176.933 241.833 177.45V187.883C240.383 188.4 239.333 189.783 239.333 191.417C239.333 193.5 241 195.167 243.083 195.167C245.167 195.167 246.833 193.5 246.833 191.417C246.833 189.867 245.9 188.5 244.55 187.967C245.017 186.833 246.383 185.167 250.583 185.167ZM243.083 190.167C243.415 190.167 243.733 190.298 243.967 190.533C244.202 190.767 244.333 191.085 244.333 191.417C244.333 191.748 244.202 192.066 243.967 192.301C243.733 192.535 243.415 192.667 243.083 192.667C242.752 192.667 242.434 192.535 242.199 192.301C241.965 192.066 241.833 191.748 241.833 191.417C241.833 191.085 241.965 190.767 242.199 190.533C242.434 190.298 242.752 190.167 243.083 190.167ZM243.083 172.667C243.415 172.667 243.733 172.798 243.967 173.033C244.202 173.267 244.333 173.585 244.333 173.917C244.333 174.248 244.202 174.566 243.967 174.801C243.733 175.035 243.415 175.167 243.083 175.167C242.752 175.167 242.434 175.035 242.199 174.801C241.965 174.566 241.833 174.248 241.833 173.917C241.833 173.585 241.965 173.267 242.199 173.033C242.434 172.798 242.752 172.667 243.083 172.667ZM255.583 175.167C255.915 175.167 256.233 175.298 256.467 175.533C256.702 175.767 256.833 176.085 256.833 176.417C256.833 176.748 256.702 177.066 256.467 177.301C256.233 177.535 255.915 177.667 255.583 177.667C255.252 177.667 254.934 177.535 254.699 177.301C254.465 177.066 254.333 176.748 254.333 176.417C254.333 176.085 254.465 175.767 254.699 175.533C254.934 175.298 255.252 175.167 255.583 175.167Z" fill="#1D2535"/>
<path d="M52.3333 222H72.3333C73.2174 222 74.0652 222.351 74.6904 222.976C75.3155 223.601 75.6667 224.449 75.6667 225.333V252C75.6667 252.884 75.3155 253.732 74.6904 254.357C74.0652 254.982 73.2174 255.333 72.3333 255.333H52.3333C51.4493 255.333 50.6014 254.982 49.9763 254.357C49.3512 253.732 49 252.884 49 252V225.333C49 224.449 49.3512 223.601 49.9763 222.976C50.6014 222.351 51.4493 222 52.3333 222ZM63.5833 241.167C68.1667 241.167 69.4 237.783 69.7167 236C71.2333 235.517 72.3333 234.1 72.3333 232.417C72.3333 230.333 70.6667 228.667 68.5833 228.667C66.5 228.667 64.8333 230.333 64.8333 232.417C64.8333 233.983 65.7833 235.333 67.15 235.883C66.7833 237 65.6667 238.667 62.3333 238.667C60.0333 238.667 58.4333 239.25 57.3333 240.067V233.45C58.7833 232.933 59.8333 231.55 59.8333 229.917C59.8333 227.833 58.1667 226.167 56.0833 226.167C54 226.167 52.3333 227.833 52.3333 229.917C52.3333 231.55 53.3833 232.933 54.8333 233.45V243.883C53.3833 244.4 52.3333 245.783 52.3333 247.417C52.3333 249.5 54 251.167 56.0833 251.167C58.1667 251.167 59.8333 249.5 59.8333 247.417C59.8333 245.867 58.9 244.5 57.55 243.967C58.0167 242.833 59.3833 241.167 63.5833 241.167ZM56.0833 246.167C56.4149 246.167 56.7328 246.298 56.9672 246.533C57.2016 246.767 57.3333 247.085 57.3333 247.417C57.3333 247.748 57.2016 248.066 56.9672 248.301C56.7328 248.535 56.4149 248.667 56.0833 248.667C55.7518 248.667 55.4339 248.535 55.1994 248.301C54.965 248.066 54.8333 247.748 54.8333 247.417C54.8333 247.085 54.965 246.767 55.1994 246.533C55.4339 246.298 55.7518 246.167 56.0833 246.167ZM56.0833 228.667C56.4149 228.667 56.7328 228.798 56.9672 229.033C57.2016 229.267 57.3333 229.585 57.3333 229.917C57.3333 230.248 57.2016 230.566 56.9672 230.801C56.7328 231.035 56.4149 231.167 56.0833 231.167C55.7518 231.167 55.4339 231.035 55.1994 230.801C54.965 230.566 54.8333 230.248 54.8333 229.917C54.8333 229.585 54.965 229.267 55.1994 229.033C55.4339 228.798 55.7518 228.667 56.0833 228.667ZM68.5833 231.167C68.9149 231.167 69.2328 231.298 69.4672 231.533C69.7016 231.767 69.8333 232.085 69.8333 232.417C69.8333 232.748 69.7016 233.066 69.4672 233.301C69.2328 233.535 68.9149 233.667 68.5833 233.667C68.2518 233.667 67.9339 233.535 67.6994 233.301C67.465 233.066 67.3333 232.748 67.3333 232.417C67.3333 232.085 67.465 231.767 67.6994 231.533C67.9339 231.298 68.2518 231.167 68.5833 231.167Z" fill="#1D2535"/>
<path d="M239.333 222H259.333C260.217 222 261.065 222.351 261.69 222.976C262.315 223.601 262.667 224.449 262.667 225.333V252C262.667 252.884 262.315 253.732 261.69 254.357C261.065 254.982 260.217 255.333 259.333 255.333H239.333C238.449 255.333 237.601 254.982 236.976 254.357C236.351 253.732 236 252.884 236 252V225.333C236 224.449 236.351 223.601 236.976 222.976C237.601 222.351 238.449 222 239.333 222ZM250.583 241.167C255.167 241.167 256.4 237.783 256.717 236C258.233 235.517 259.333 234.1 259.333 232.417C259.333 230.333 257.667 228.667 255.583 228.667C253.5 228.667 251.833 230.333 251.833 232.417C251.833 233.983 252.783 235.333 254.15 235.883C253.783 237 252.667 238.667 249.333 238.667C247.033 238.667 245.433 239.25 244.333 240.067V233.45C245.783 232.933 246.833 231.55 246.833 229.917C246.833 227.833 245.167 226.167 243.083 226.167C241 226.167 239.333 227.833 239.333 229.917C239.333 231.55 240.383 232.933 241.833 233.45V243.883C240.383 244.4 239.333 245.783 239.333 247.417C239.333 249.5 241 251.167 243.083 251.167C245.167 251.167 246.833 249.5 246.833 247.417C246.833 245.867 245.9 244.5 244.55 243.967C245.017 242.833 246.383 241.167 250.583 241.167ZM243.083 246.167C243.415 246.167 243.733 246.298 243.967 246.533C244.202 246.767 244.333 247.085 244.333 247.417C244.333 247.748 244.202 248.066 243.967 248.301C243.733 248.535 243.415 248.667 243.083 248.667C242.752 248.667 242.434 248.535 242.199 248.301C241.965 248.066 241.833 247.748 241.833 247.417C241.833 247.085 241.965 246.767 242.199 246.533C242.434 246.298 242.752 246.167 243.083 246.167ZM243.083 228.667C243.415 228.667 243.733 228.798 243.967 229.033C244.202 229.267 244.333 229.585 244.333 229.917C244.333 230.248 244.202 230.566 243.967 230.801C243.733 231.035 243.415 231.167 243.083 231.167C242.752 231.167 242.434 231.035 242.199 230.801C241.965 230.566 241.833 230.248 241.833 229.917C241.833 229.585 241.965 229.267 242.199 229.033C242.434 228.798 242.752 228.667 243.083 228.667ZM255.583 231.167C255.915 231.167 256.233 231.298 256.467 231.533C256.702 231.767 256.833 232.085 256.833 232.417C256.833 232.748 256.702 233.066 256.467 233.301C256.233 233.535 255.915 233.667 255.583 233.667C255.252 233.667 254.934 233.535 254.699 233.301C254.465 233.066 254.333 232.748 254.333 232.417C254.333 232.085 254.465 231.767 254.699 231.533C254.934 231.298 255.252 231.167 255.583 231.167Z" fill="#1D2535"/>
<path d="M52.3333 277H72.3333C73.2174 277 74.0652 277.351 74.6904 277.976C75.3155 278.601 75.6667 279.449 75.6667 280.333V307C75.6667 307.884 75.3155 308.732 74.6904 309.357C74.0652 309.982 73.2174 310.333 72.3333 310.333H52.3333C51.4493 310.333 50.6014 309.982 49.9763 309.357C49.3512 308.732 49 307.884 49 307V280.333C49 279.449 49.3512 278.601 49.9763 277.976C50.6014 277.351 51.4493 277 52.3333 277ZM63.5833 296.167C68.1667 296.167 69.4 292.783 69.7167 291C71.2333 290.517 72.3333 289.1 72.3333 287.417C72.3333 285.333 70.6667 283.667 68.5833 283.667C66.5 283.667 64.8333 285.333 64.8333 287.417C64.8333 288.983 65.7833 290.333 67.15 290.883C66.7833 292 65.6667 293.667 62.3333 293.667C60.0333 293.667 58.4333 294.25 57.3333 295.067V288.45C58.7833 287.933 59.8333 286.55 59.8333 284.917C59.8333 282.833 58.1667 281.167 56.0833 281.167C54 281.167 52.3333 282.833 52.3333 284.917C52.3333 286.55 53.3833 287.933 54.8333 288.45V298.883C53.3833 299.4 52.3333 300.783 52.3333 302.417C52.3333 304.5 54 306.167 56.0833 306.167C58.1667 306.167 59.8333 304.5 59.8333 302.417C59.8333 300.867 58.9 299.5 57.55 298.967C58.0167 297.833 59.3833 296.167 63.5833 296.167ZM56.0833 301.167C56.4149 301.167 56.7328 301.298 56.9672 301.533C57.2016 301.767 57.3333 302.085 57.3333 302.417C57.3333 302.748 57.2016 303.066 56.9672 303.301C56.7328 303.535 56.4149 303.667 56.0833 303.667C55.7518 303.667 55.4339 303.535 55.1994 303.301C54.965 303.066 54.8333 302.748 54.8333 302.417C54.8333 302.085 54.965 301.767 55.1994 301.533C55.4339 301.298 55.7518 301.167 56.0833 301.167ZM56.0833 283.667C56.4149 283.667 56.7328 283.798 56.9672 284.033C57.2016 284.267 57.3333 284.585 57.3333 284.917C57.3333 285.248 57.2016 285.566 56.9672 285.801C56.7328 286.035 56.4149 286.167 56.0833 286.167C55.7518 286.167 55.4339 286.035 55.1994 285.801C54.965 285.566 54.8333 285.248 54.8333 284.917C54.8333 284.585 54.965 284.267 55.1994 284.033C55.4339 283.798 55.7518 283.667 56.0833 283.667ZM68.5833 286.167C68.9149 286.167 69.2328 286.298 69.4672 286.533C69.7016 286.767 69.8333 287.085 69.8333 287.417C69.8333 287.748 69.7016 288.066 69.4672 288.301C69.2328 288.535 68.9149 288.667 68.5833 288.667C68.2518 288.667 67.9339 288.535 67.6994 288.301C67.465 288.066 67.3333 287.748 67.3333 287.417C67.3333 287.085 67.465 286.767 67.6994 286.533C67.9339 286.298 68.2518 286.167 68.5833 286.167Z" fill="#ADB5BD"/>
<path d="M239.333 277H259.333C260.217 277 261.065 277.351 261.69 277.976C262.315 278.601 262.667 279.449 262.667 280.333V307C262.667 307.884 262.315 308.732 261.69 309.357C261.065 309.982 260.217 310.333 259.333 310.333H239.333C238.449 310.333 237.601 309.982 236.976 309.357C236.351 308.732 236 307.884 236 307V280.333C236 279.449 236.351 278.601 236.976 277.976C237.601 277.351 238.449 277 239.333 277ZM250.583 296.167C255.167 296.167 256.4 292.783 256.717 291C258.233 290.517 259.333 289.1 259.333 287.417C259.333 285.333 257.667 283.667 255.583 283.667C253.5 283.667 251.833 285.333 251.833 287.417C251.833 288.983 252.783 290.333 254.15 290.883C253.783 292 252.667 293.667 249.333 293.667C247.033 293.667 245.433 294.25 244.333 295.067V288.45C245.783 287.933 246.833 286.55 246.833 284.917C246.833 282.833 245.167 281.167 243.083 281.167C241 281.167 239.333 282.833 239.333 284.917C239.333 286.55 240.383 287.933 241.833 288.45V298.883C240.383 299.4 239.333 300.783 239.333 302.417C239.333 304.5 241 306.167 243.083 306.167C245.167 306.167 246.833 304.5 246.833 302.417C246.833 300.867 245.9 299.5 244.55 298.967C245.017 297.833 246.383 296.167 250.583 296.167ZM243.083 301.167C243.415 301.167 243.733 301.298 243.967 301.533C244.202 301.767 244.333 302.085 244.333 302.417C244.333 302.748 244.202 303.066 243.967 303.301C243.733 303.535 243.415 303.667 243.083 303.667C242.752 303.667 242.434 303.535 242.199 303.301C241.965 303.066 241.833 302.748 241.833 302.417C241.833 302.085 241.965 301.767 242.199 301.533C242.434 301.298 242.752 301.167 243.083 301.167ZM243.083 283.667C243.415 283.667 243.733 283.798 243.967 284.033C244.202 284.267 244.333 284.585 244.333 284.917C244.333 285.248 244.202 285.566 243.967 285.801C243.733 286.035 243.415 286.167 243.083 286.167C242.752 286.167 242.434 286.035 242.199 285.801C241.965 285.566 241.833 285.248 241.833 284.917C241.833 284.585 241.965 284.267 242.199 284.033C242.434 283.798 242.752 283.667 243.083 283.667ZM255.583 286.167C255.915 286.167 256.233 286.298 256.467 286.533C256.702 286.767 256.833 287.085 256.833 287.417C256.833 287.748 256.702 288.066 256.467 288.301C256.233 288.535 255.915 288.667 255.583 288.667C255.252 288.667 254.934 288.535 254.699 288.301C254.465 288.066 254.333 287.748 254.333 287.417C254.333 287.085 254.465 286.767 254.699 286.533C254.934 286.298 255.252 286.167 255.583 286.167Z" fill="#ADB5BD"/>
<path d="M87.3333 0H107.333C108.217 0 109.065 0.351189 109.69 0.976311C110.315 1.60143 110.667 2.44928 110.667 3.33333V30C110.667 30.8841 110.315 31.7319 109.69 32.357C109.065 32.9821 108.217 33.3333 107.333 33.3333H87.3333C86.4493 33.3333 85.6014 32.9821 84.9763 32.357C84.3512 31.7319 84 30.8841 84 30V3.33333C84 2.44928 84.3512 1.60143 84.9763 0.976311C85.6014 0.351189 86.4493 0 87.3333 0ZM98.5833 19.1667C103.167 19.1667 104.4 15.7833 104.717 14C106.233 13.5167 107.333 12.1 107.333 10.4167C107.333 8.33333 105.667 6.66667 103.583 6.66667C101.5 6.66667 99.8333 8.33333 99.8333 10.4167C99.8333 11.9833 100.783 13.3333 102.15 13.8833C101.783 15 100.667 16.6667 97.3333 16.6667C95.0333 16.6667 93.4333 17.25 92.3333 18.0667V11.45C93.7833 10.9333 94.8333 9.55 94.8333 7.91667C94.8333 5.83333 93.1667 4.16667 91.0833 4.16667C89 4.16667 87.3333 5.83333 87.3333 7.91667C87.3333 9.55 88.3833 10.9333 89.8333 11.45V21.8833C88.3833 22.4 87.3333 23.7833 87.3333 25.4167C87.3333 27.5 89 29.1667 91.0833 29.1667C93.1667 29.1667 94.8333 27.5 94.8333 25.4167C94.8333 23.8667 93.9 22.5 92.55 21.9667C93.0167 20.8333 94.3833 19.1667 98.5833 19.1667ZM91.0833 24.1667C91.4149 24.1667 91.7328 24.2984 91.9672 24.5328C92.2016 24.7672 92.3333 25.0851 92.3333 25.4167C92.3333 25.7482 92.2016 26.0661 91.9672 26.3006C91.7328 26.535 91.4149 26.6667 91.0833 26.6667C90.7518 26.6667 90.4339 26.535 90.1994 26.3006C89.965 26.0661 89.8333 25.7482 89.8333 25.4167C89.8333 25.0851 89.965 24.7672 90.1994 24.5328C90.4339 24.2984 90.7518 24.1667 91.0833 24.1667ZM91.0833 6.66667C91.4149 6.66667 91.7328 6.79836 91.9672 7.03278C92.2016 7.2672 92.3333 7.58515 92.3333 7.91667C92.3333 8.24819 92.2016 8.56613 91.9672 8.80055C91.7328 9.03497 91.4149 9.16667 91.0833 9.16667C90.7518 9.16667 90.4339 9.03497 90.1994 8.80055C89.965 8.56613 89.8333 8.24819 89.8333 7.91667C89.8333 7.58515 89.965 7.2672 90.1994 7.03278C90.4339 6.79836 90.7518 6.66667 91.0833 6.66667ZM103.583 9.16667C103.915 9.16667 104.233 9.29836 104.467 9.53278C104.702 9.7672 104.833 10.0851 104.833 10.4167C104.833 10.7482 104.702 11.0661 104.467 11.3005C104.233 11.535 103.915 11.6667 103.583 11.6667C103.252 11.6667 102.934 11.535 102.699 11.3005C102.465 11.0661 102.333 10.7482 102.333 10.4167C102.333 10.0851 102.465 9.7672 102.699 9.53278C102.934 9.29836 103.252 9.16667 103.583 9.16667Z" fill="#1D2535"/>
<path d="M274.333 0H294.333C295.217 0 296.065 0.351189 296.69 0.976311C297.315 1.60143 297.667 2.44928 297.667 3.33333V30C297.667 30.8841 297.315 31.7319 296.69 32.357C296.065 32.9821 295.217 33.3333 294.333 33.3333H274.333C273.449 33.3333 272.601 32.9821 271.976 32.357C271.351 31.7319 271 30.8841 271 30V3.33333C271 2.44928 271.351 1.60143 271.976 0.976311C272.601 0.351189 273.449 0 274.333 0ZM285.583 19.1667C290.167 19.1667 291.4 15.7833 291.717 14C293.233 13.5167 294.333 12.1 294.333 10.4167C294.333 8.33333 292.667 6.66667 290.583 6.66667C288.5 6.66667 286.833 8.33333 286.833 10.4167C286.833 11.9833 287.783 13.3333 289.15 13.8833C288.783 15 287.667 16.6667 284.333 16.6667C282.033 16.6667 280.433 17.25 279.333 18.0667V11.45C280.783 10.9333 281.833 9.55 281.833 7.91667C281.833 5.83333 280.167 4.16667 278.083 4.16667C276 4.16667 274.333 5.83333 274.333 7.91667C274.333 9.55 275.383 10.9333 276.833 11.45V21.8833C275.383 22.4 274.333 23.7833 274.333 25.4167C274.333 27.5 276 29.1667 278.083 29.1667C280.167 29.1667 281.833 27.5 281.833 25.4167C281.833 23.8667 280.9 22.5 279.55 21.9667C280.017 20.8333 281.383 19.1667 285.583 19.1667ZM278.083 24.1667C278.415 24.1667 278.733 24.2984 278.967 24.5328C279.202 24.7672 279.333 25.0851 279.333 25.4167C279.333 25.7482 279.202 26.0661 278.967 26.3006C278.733 26.535 278.415 26.6667 278.083 26.6667C277.752 26.6667 277.434 26.535 277.199 26.3006C276.965 26.0661 276.833 25.7482 276.833 25.4167C276.833 25.0851 276.965 24.7672 277.199 24.5328C277.434 24.2984 277.752 24.1667 278.083 24.1667ZM278.083 6.66667C278.415 6.66667 278.733 6.79836 278.967 7.03278C279.202 7.2672 279.333 7.58515 279.333 7.91667C279.333 8.24819 279.202 8.56613 278.967 8.80055C278.733 9.03497 278.415 9.16667 278.083 9.16667C277.752 9.16667 277.434 9.03497 277.199 8.80055C276.965 8.56613 276.833 8.24819 276.833 7.91667C276.833 7.58515 276.965 7.2672 277.199 7.03278C277.434 6.79836 277.752 6.66667 278.083 6.66667ZM290.583 9.16667C290.915 9.16667 291.233 9.29836 291.467 9.53278C291.702 9.7672 291.833 10.0851 291.833 10.4167C291.833 10.7482 291.702 11.0661 291.467 11.3005C291.233 11.535 290.915 11.6667 290.583 11.6667C290.252 11.6667 289.934 11.535 289.699 11.3005C289.465 11.0661 289.333 10.7482 289.333 10.4167C289.333 10.0851 289.465 9.7672 289.699 9.53278C289.934 9.29836 290.252 9.16667 290.583 9.16667Z" fill="#1D2535"/>
<path d="M87.3333 56H107.333C108.217 56 109.065 56.3512 109.69 56.9763C110.315 57.6014 110.667 58.4493 110.667 59.3333V86C110.667 86.8841 110.315 87.7319 109.69 88.357C109.065 88.9821 108.217 89.3333 107.333 89.3333H87.3333C86.4493 89.3333 85.6014 88.9821 84.9763 88.357C84.3512 87.7319 84 86.8841 84 86V59.3333C84 58.4493 84.3512 57.6014 84.9763 56.9763C85.6014 56.3512 86.4493 56 87.3333 56ZM98.5833 75.1667C103.167 75.1667 104.4 71.7833 104.717 70C106.233 69.5167 107.333 68.1 107.333 66.4167C107.333 64.3333 105.667 62.6667 103.583 62.6667C101.5 62.6667 99.8333 64.3333 99.8333 66.4167C99.8333 67.9833 100.783 69.3333 102.15 69.8833C101.783 71 100.667 72.6667 97.3333 72.6667C95.0333 72.6667 93.4333 73.25 92.3333 74.0667V67.45C93.7833 66.9333 94.8333 65.55 94.8333 63.9167C94.8333 61.8333 93.1667 60.1667 91.0833 60.1667C89 60.1667 87.3333 61.8333 87.3333 63.9167C87.3333 65.55 88.3833 66.9333 89.8333 67.45V77.8833C88.3833 78.4 87.3333 79.7833 87.3333 81.4167C87.3333 83.5 89 85.1667 91.0833 85.1667C93.1667 85.1667 94.8333 83.5 94.8333 81.4167C94.8333 79.8667 93.9 78.5 92.55 77.9667C93.0167 76.8333 94.3833 75.1667 98.5833 75.1667ZM91.0833 80.1667C91.4149 80.1667 91.7328 80.2984 91.9672 80.5328C92.2016 80.7672 92.3333 81.0851 92.3333 81.4167C92.3333 81.7482 92.2016 82.0661 91.9672 82.3006C91.7328 82.535 91.4149 82.6667 91.0833 82.6667C90.7518 82.6667 90.4339 82.535 90.1994 82.3006C89.965 82.0661 89.8333 81.7482 89.8333 81.4167C89.8333 81.0851 89.965 80.7672 90.1994 80.5328C90.4339 80.2984 90.7518 80.1667 91.0833 80.1667ZM91.0833 62.6667C91.4149 62.6667 91.7328 62.7984 91.9672 63.0328C92.2016 63.2672 92.3333 63.5851 92.3333 63.9167C92.3333 64.2482 92.2016 64.5661 91.9672 64.8006C91.7328 65.035 91.4149 65.1667 91.0833 65.1667C90.7518 65.1667 90.4339 65.035 90.1994 64.8006C89.965 64.5661 89.8333 64.2482 89.8333 63.9167C89.8333 63.5851 89.965 63.2672 90.1994 63.0328C90.4339 62.7984 90.7518 62.6667 91.0833 62.6667ZM103.583 65.1667C103.915 65.1667 104.233 65.2984 104.467 65.5328C104.702 65.7672 104.833 66.0851 104.833 66.4167C104.833 66.7482 104.702 67.0661 104.467 67.3005C104.233 67.535 103.915 67.6667 103.583 67.6667C103.252 67.6667 102.934 67.535 102.699 67.3005C102.465 67.0661 102.333 66.7482 102.333 66.4167C102.333 66.0851 102.465 65.7672 102.699 65.5328C102.934 65.2984 103.252 65.1667 103.583 65.1667Z" fill="#1D2535"/>
<path d="M274.333 56H294.333C295.217 56 296.065 56.3512 296.69 56.9763C297.315 57.6014 297.667 58.4493 297.667 59.3333V86C297.667 86.8841 297.315 87.7319 296.69 88.357C296.065 88.9821 295.217 89.3333 294.333 89.3333H274.333C273.449 89.3333 272.601 88.9821 271.976 88.357C271.351 87.7319 271 86.8841 271 86V59.3333C271 58.4493 271.351 57.6014 271.976 56.9763C272.601 56.3512 273.449 56 274.333 56ZM285.583 75.1667C290.167 75.1667 291.4 71.7833 291.717 70C293.233 69.5167 294.333 68.1 294.333 66.4167C294.333 64.3333 292.667 62.6667 290.583 62.6667C288.5 62.6667 286.833 64.3333 286.833 66.4167C286.833 67.9833 287.783 69.3333 289.15 69.8833C288.783 71 287.667 72.6667 284.333 72.6667C282.033 72.6667 280.433 73.25 279.333 74.0667V67.45C280.783 66.9333 281.833 65.55 281.833 63.9167C281.833 61.8333 280.167 60.1667 278.083 60.1667C276 60.1667 274.333 61.8333 274.333 63.9167C274.333 65.55 275.383 66.9333 276.833 67.45V77.8833C275.383 78.4 274.333 79.7833 274.333 81.4167C274.333 83.5 276 85.1667 278.083 85.1667C280.167 85.1667 281.833 83.5 281.833 81.4167C281.833 79.8667 280.9 78.5 279.55 77.9667C280.017 76.8333 281.383 75.1667 285.583 75.1667ZM278.083 80.1667C278.415 80.1667 278.733 80.2984 278.967 80.5328C279.202 80.7672 279.333 81.0851 279.333 81.4167C279.333 81.7482 279.202 82.0661 278.967 82.3006C278.733 82.535 278.415 82.6667 278.083 82.6667C277.752 82.6667 277.434 82.535 277.199 82.3006C276.965 82.0661 276.833 81.7482 276.833 81.4167C276.833 81.0851 276.965 80.7672 277.199 80.5328C277.434 80.2984 277.752 80.1667 278.083 80.1667ZM278.083 62.6667C278.415 62.6667 278.733 62.7984 278.967 63.0328C279.202 63.2672 279.333 63.5851 279.333 63.9167C279.333 64.2482 279.202 64.5661 278.967 64.8006C278.733 65.035 278.415 65.1667 278.083 65.1667C277.752 65.1667 277.434 65.035 277.199 64.8006C276.965 64.5661 276.833 64.2482 276.833 63.9167C276.833 63.5851 276.965 63.2672 277.199 63.0328C277.434 62.7984 277.752 62.6667 278.083 62.6667ZM290.583 65.1667C290.915 65.1667 291.233 65.2984 291.467 65.5328C291.702 65.7672 291.833 66.0851 291.833 66.4167C291.833 66.7482 291.702 67.0661 291.467 67.3005C291.233 67.535 290.915 67.6667 290.583 67.6667C290.252 67.6667 289.934 67.535 289.699 67.3005C289.465 67.0661 289.333 66.7482 289.333 66.4167C289.333 66.0851 289.465 65.7672 289.699 65.5328C289.934 65.2984 290.252 65.1667 290.583 65.1667Z" fill="#1D2535"/>
<path d="M87.3333 111H107.333C108.217 111 109.065 111.351 109.69 111.976C110.315 112.601 110.667 113.449 110.667 114.333V141C110.667 141.884 110.315 142.732 109.69 143.357C109.065 143.982 108.217 144.333 107.333 144.333H87.3333C86.4493 144.333 85.6014 143.982 84.9763 143.357C84.3512 142.732 84 141.884 84 141V114.333C84 113.449 84.3512 112.601 84.9763 111.976C85.6014 111.351 86.4493 111 87.3333 111ZM98.5833 130.167C103.167 130.167 104.4 126.783 104.717 125C106.233 124.517 107.333 123.1 107.333 121.417C107.333 119.333 105.667 117.667 103.583 117.667C101.5 117.667 99.8333 119.333 99.8333 121.417C99.8333 122.983 100.783 124.333 102.15 124.883C101.783 126 100.667 127.667 97.3333 127.667C95.0333 127.667 93.4333 128.25 92.3333 129.067V122.45C93.7833 121.933 94.8333 120.55 94.8333 118.917C94.8333 116.833 93.1667 115.167 91.0833 115.167C89 115.167 87.3333 116.833 87.3333 118.917C87.3333 120.55 88.3833 121.933 89.8333 122.45V132.883C88.3833 133.4 87.3333 134.783 87.3333 136.417C87.3333 138.5 89 140.167 91.0833 140.167C93.1667 140.167 94.8333 138.5 94.8333 136.417C94.8333 134.867 93.9 133.5 92.55 132.967C93.0167 131.833 94.3833 130.167 98.5833 130.167ZM91.0833 135.167C91.4149 135.167 91.7328 135.298 91.9672 135.533C92.2016 135.767 92.3333 136.085 92.3333 136.417C92.3333 136.748 92.2016 137.066 91.9672 137.301C91.7328 137.535 91.4149 137.667 91.0833 137.667C90.7518 137.667 90.4339 137.535 90.1994 137.301C89.965 137.066 89.8333 136.748 89.8333 136.417C89.8333 136.085 89.965 135.767 90.1994 135.533C90.4339 135.298 90.7518 135.167 91.0833 135.167ZM91.0833 117.667C91.4149 117.667 91.7328 117.798 91.9672 118.033C92.2016 118.267 92.3333 118.585 92.3333 118.917C92.3333 119.248 92.2016 119.566 91.9672 119.801C91.7328 120.035 91.4149 120.167 91.0833 120.167C90.7518 120.167 90.4339 120.035 90.1994 119.801C89.965 119.566 89.8333 119.248 89.8333 118.917C89.8333 118.585 89.965 118.267 90.1994 118.033C90.4339 117.798 90.7518 117.667 91.0833 117.667ZM103.583 120.167C103.915 120.167 104.233 120.298 104.467 120.533C104.702 120.767 104.833 121.085 104.833 121.417C104.833 121.748 104.702 122.066 104.467 122.301C104.233 122.535 103.915 122.667 103.583 122.667C103.252 122.667 102.934 122.535 102.699 122.301C102.465 122.066 102.333 121.748 102.333 121.417C102.333 121.085 102.465 120.767 102.699 120.533C102.934 120.298 103.252 120.167 103.583 120.167Z" fill="#1D2535"/>
<path d="M274.333 111H294.333C295.217 111 296.065 111.351 296.69 111.976C297.315 112.601 297.667 113.449 297.667 114.333V141C297.667 141.884 297.315 142.732 296.69 143.357C296.065 143.982 295.217 144.333 294.333 144.333H274.333C273.449 144.333 272.601 143.982 271.976 143.357C271.351 142.732 271 141.884 271 141V114.333C271 113.449 271.351 112.601 271.976 111.976C272.601 111.351 273.449 111 274.333 111ZM285.583 130.167C290.167 130.167 291.4 126.783 291.717 125C293.233 124.517 294.333 123.1 294.333 121.417C294.333 119.333 292.667 117.667 290.583 117.667C288.5 117.667 286.833 119.333 286.833 121.417C286.833 122.983 287.783 124.333 289.15 124.883C288.783 126 287.667 127.667 284.333 127.667C282.033 127.667 280.433 128.25 279.333 129.067V122.45C280.783 121.933 281.833 120.55 281.833 118.917C281.833 116.833 280.167 115.167 278.083 115.167C276 115.167 274.333 116.833 274.333 118.917C274.333 120.55 275.383 121.933 276.833 122.45V132.883C275.383 133.4 274.333 134.783 274.333 136.417C274.333 138.5 276 140.167 278.083 140.167C280.167 140.167 281.833 138.5 281.833 136.417C281.833 134.867 280.9 133.5 279.55 132.967C280.017 131.833 281.383 130.167 285.583 130.167ZM278.083 135.167C278.415 135.167 278.733 135.298 278.967 135.533C279.202 135.767 279.333 136.085 279.333 136.417C279.333 136.748 279.202 137.066 278.967 137.301C278.733 137.535 278.415 137.667 278.083 137.667C277.752 137.667 277.434 137.535 277.199 137.301C276.965 137.066 276.833 136.748 276.833 136.417C276.833 136.085 276.965 135.767 277.199 135.533C277.434 135.298 277.752 135.167 278.083 135.167ZM278.083 117.667C278.415 117.667 278.733 117.798 278.967 118.033C279.202 118.267 279.333 118.585 279.333 118.917C279.333 119.248 279.202 119.566 278.967 119.801C278.733 120.035 278.415 120.167 278.083 120.167C277.752 120.167 277.434 120.035 277.199 119.801C276.965 119.566 276.833 119.248 276.833 118.917C276.833 118.585 276.965 118.267 277.199 118.033C277.434 117.798 277.752 117.667 278.083 117.667ZM290.583 120.167C290.915 120.167 291.233 120.298 291.467 120.533C291.702 120.767 291.833 121.085 291.833 121.417C291.833 121.748 291.702 122.066 291.467 122.301C291.233 122.535 290.915 122.667 290.583 122.667C290.252 122.667 289.934 122.535 289.699 122.301C289.465 122.066 289.333 121.748 289.333 121.417C289.333 121.085 289.465 120.767 289.699 120.533C289.934 120.298 290.252 120.167 290.583 120.167Z" fill="#1D2535"/>
<path d="M87.3333 166H107.333C108.217 166 109.065 166.351 109.69 166.976C110.315 167.601 110.667 168.449 110.667 169.333V196C110.667 196.884 110.315 197.732 109.69 198.357C109.065 198.982 108.217 199.333 107.333 199.333H87.3333C86.4493 199.333 85.6014 198.982 84.9763 198.357C84.3512 197.732 84 196.884 84 196V169.333C84 168.449 84.3512 167.601 84.9763 166.976C85.6014 166.351 86.4493 166 87.3333 166ZM98.5833 185.167C103.167 185.167 104.4 181.783 104.717 180C106.233 179.517 107.333 178.1 107.333 176.417C107.333 174.333 105.667 172.667 103.583 172.667C101.5 172.667 99.8333 174.333 99.8333 176.417C99.8333 177.983 100.783 179.333 102.15 179.883C101.783 181 100.667 182.667 97.3333 182.667C95.0333 182.667 93.4333 183.25 92.3333 184.067V177.45C93.7833 176.933 94.8333 175.55 94.8333 173.917C94.8333 171.833 93.1667 170.167 91.0833 170.167C89 170.167 87.3333 171.833 87.3333 173.917C87.3333 175.55 88.3833 176.933 89.8333 177.45V187.883C88.3833 188.4 87.3333 189.783 87.3333 191.417C87.3333 193.5 89 195.167 91.0833 195.167C93.1667 195.167 94.8333 193.5 94.8333 191.417C94.8333 189.867 93.9 188.5 92.55 187.967C93.0167 186.833 94.3833 185.167 98.5833 185.167ZM91.0833 190.167C91.4149 190.167 91.7328 190.298 91.9672 190.533C92.2016 190.767 92.3333 191.085 92.3333 191.417C92.3333 191.748 92.2016 192.066 91.9672 192.301C91.7328 192.535 91.4149 192.667 91.0833 192.667C90.7518 192.667 90.4339 192.535 90.1994 192.301C89.965 192.066 89.8333 191.748 89.8333 191.417C89.8333 191.085 89.965 190.767 90.1994 190.533C90.4339 190.298 90.7518 190.167 91.0833 190.167ZM91.0833 172.667C91.4149 172.667 91.7328 172.798 91.9672 173.033C92.2016 173.267 92.3333 173.585 92.3333 173.917C92.3333 174.248 92.2016 174.566 91.9672 174.801C91.7328 175.035 91.4149 175.167 91.0833 175.167C90.7518 175.167 90.4339 175.035 90.1994 174.801C89.965 174.566 89.8333 174.248 89.8333 173.917C89.8333 173.585 89.965 173.267 90.1994 173.033C90.4339 172.798 90.7518 172.667 91.0833 172.667ZM103.583 175.167C103.915 175.167 104.233 175.298 104.467 175.533C104.702 175.767 104.833 176.085 104.833 176.417C104.833 176.748 104.702 177.066 104.467 177.301C104.233 177.535 103.915 177.667 103.583 177.667C103.252 177.667 102.934 177.535 102.699 177.301C102.465 177.066 102.333 176.748 102.333 176.417C102.333 176.085 102.465 175.767 102.699 175.533C102.934 175.298 103.252 175.167 103.583 175.167Z" fill="#1D2535"/>
<path d="M274.333 166H294.333C295.217 166 296.065 166.351 296.69 166.976C297.315 167.601 297.667 168.449 297.667 169.333V196C297.667 196.884 297.315 197.732 296.69 198.357C296.065 198.982 295.217 199.333 294.333 199.333H274.333C273.449 199.333 272.601 198.982 271.976 198.357C271.351 197.732 271 196.884 271 196V169.333C271 168.449 271.351 167.601 271.976 166.976C272.601 166.351 273.449 166 274.333 166ZM285.583 185.167C290.167 185.167 291.4 181.783 291.717 180C293.233 179.517 294.333 178.1 294.333 176.417C294.333 174.333 292.667 172.667 290.583 172.667C288.5 172.667 286.833 174.333 286.833 176.417C286.833 177.983 287.783 179.333 289.15 179.883C288.783 181 287.667 182.667 284.333 182.667C282.033 182.667 280.433 183.25 279.333 184.067V177.45C280.783 176.933 281.833 175.55 281.833 173.917C281.833 171.833 280.167 170.167 278.083 170.167C276 170.167 274.333 171.833 274.333 173.917C274.333 175.55 275.383 176.933 276.833 177.45V187.883C275.383 188.4 274.333 189.783 274.333 191.417C274.333 193.5 276 195.167 278.083 195.167C280.167 195.167 281.833 193.5 281.833 191.417C281.833 189.867 280.9 188.5 279.55 187.967C280.017 186.833 281.383 185.167 285.583 185.167ZM278.083 190.167C278.415 190.167 278.733 190.298 278.967 190.533C279.202 190.767 279.333 191.085 279.333 191.417C279.333 191.748 279.202 192.066 278.967 192.301C278.733 192.535 278.415 192.667 278.083 192.667C277.752 192.667 277.434 192.535 277.199 192.301C276.965 192.066 276.833 191.748 276.833 191.417C276.833 191.085 276.965 190.767 277.199 190.533C277.434 190.298 277.752 190.167 278.083 190.167ZM278.083 172.667C278.415 172.667 278.733 172.798 278.967 173.033C279.202 173.267 279.333 173.585 279.333 173.917C279.333 174.248 279.202 174.566 278.967 174.801C278.733 175.035 278.415 175.167 278.083 175.167C277.752 175.167 277.434 175.035 277.199 174.801C276.965 174.566 276.833 174.248 276.833 173.917C276.833 173.585 276.965 173.267 277.199 173.033C277.434 172.798 277.752 172.667 278.083 172.667ZM290.583 175.167C290.915 175.167 291.233 175.298 291.467 175.533C291.702 175.767 291.833 176.085 291.833 176.417C291.833 176.748 291.702 177.066 291.467 177.301C291.233 177.535 290.915 177.667 290.583 177.667C290.252 177.667 289.934 177.535 289.699 177.301C289.465 177.066 289.333 176.748 289.333 176.417C289.333 176.085 289.465 175.767 289.699 175.533C289.934 175.298 290.252 175.167 290.583 175.167Z" fill="#1D2535"/>
<path d="M87.3333 222H107.333C108.217 222 109.065 222.351 109.69 222.976C110.315 223.601 110.667 224.449 110.667 225.333V252C110.667 252.884 110.315 253.732 109.69 254.357C109.065 254.982 108.217 255.333 107.333 255.333H87.3333C86.4493 255.333 85.6014 254.982 84.9763 254.357C84.3512 253.732 84 252.884 84 252V225.333C84 224.449 84.3512 223.601 84.9763 222.976C85.6014 222.351 86.4493 222 87.3333 222ZM98.5833 241.167C103.167 241.167 104.4 237.783 104.717 236C106.233 235.517 107.333 234.1 107.333 232.417C107.333 230.333 105.667 228.667 103.583 228.667C101.5 228.667 99.8333 230.333 99.8333 232.417C99.8333 233.983 100.783 235.333 102.15 235.883C101.783 237 100.667 238.667 97.3333 238.667C95.0333 238.667 93.4333 239.25 92.3333 240.067V233.45C93.7833 232.933 94.8333 231.55 94.8333 229.917C94.8333 227.833 93.1667 226.167 91.0833 226.167C89 226.167 87.3333 227.833 87.3333 229.917C87.3333 231.55 88.3833 232.933 89.8333 233.45V243.883C88.3833 244.4 87.3333 245.783 87.3333 247.417C87.3333 249.5 89 251.167 91.0833 251.167C93.1667 251.167 94.8333 249.5 94.8333 247.417C94.8333 245.867 93.9 244.5 92.55 243.967C93.0167 242.833 94.3833 241.167 98.5833 241.167ZM91.0833 246.167C91.4149 246.167 91.7328 246.298 91.9672 246.533C92.2016 246.767 92.3333 247.085 92.3333 247.417C92.3333 247.748 92.2016 248.066 91.9672 248.301C91.7328 248.535 91.4149 248.667 91.0833 248.667C90.7518 248.667 90.4339 248.535 90.1994 248.301C89.965 248.066 89.8333 247.748 89.8333 247.417C89.8333 247.085 89.965 246.767 90.1994 246.533C90.4339 246.298 90.7518 246.167 91.0833 246.167ZM91.0833 228.667C91.4149 228.667 91.7328 228.798 91.9672 229.033C92.2016 229.267 92.3333 229.585 92.3333 229.917C92.3333 230.248 92.2016 230.566 91.9672 230.801C91.7328 231.035 91.4149 231.167 91.0833 231.167C90.7518 231.167 90.4339 231.035 90.1994 230.801C89.965 230.566 89.8333 230.248 89.8333 229.917C89.8333 229.585 89.965 229.267 90.1994 229.033C90.4339 228.798 90.7518 228.667 91.0833 228.667ZM103.583 231.167C103.915 231.167 104.233 231.298 104.467 231.533C104.702 231.767 104.833 232.085 104.833 232.417C104.833 232.748 104.702 233.066 104.467 233.301C104.233 233.535 103.915 233.667 103.583 233.667C103.252 233.667 102.934 233.535 102.699 233.301C102.465 233.066 102.333 232.748 102.333 232.417C102.333 232.085 102.465 231.767 102.699 231.533C102.934 231.298 103.252 231.167 103.583 231.167Z" fill="#1D2535"/>
<path d="M274.333 222H294.333C295.217 222 296.065 222.351 296.69 222.976C297.315 223.601 297.667 224.449 297.667 225.333V252C297.667 252.884 297.315 253.732 296.69 254.357C296.065 254.982 295.217 255.333 294.333 255.333H274.333C273.449 255.333 272.601 254.982 271.976 254.357C271.351 253.732 271 252.884 271 252V225.333C271 224.449 271.351 223.601 271.976 222.976C272.601 222.351 273.449 222 274.333 222ZM285.583 241.167C290.167 241.167 291.4 237.783 291.717 236C293.233 235.517 294.333 234.1 294.333 232.417C294.333 230.333 292.667 228.667 290.583 228.667C288.5 228.667 286.833 230.333 286.833 232.417C286.833 233.983 287.783 235.333 289.15 235.883C288.783 237 287.667 238.667 284.333 238.667C282.033 238.667 280.433 239.25 279.333 240.067V233.45C280.783 232.933 281.833 231.55 281.833 229.917C281.833 227.833 280.167 226.167 278.083 226.167C276 226.167 274.333 227.833 274.333 229.917C274.333 231.55 275.383 232.933 276.833 233.45V243.883C275.383 244.4 274.333 245.783 274.333 247.417C274.333 249.5 276 251.167 278.083 251.167C280.167 251.167 281.833 249.5 281.833 247.417C281.833 245.867 280.9 244.5 279.55 243.967C280.017 242.833 281.383 241.167 285.583 241.167ZM278.083 246.167C278.415 246.167 278.733 246.298 278.967 246.533C279.202 246.767 279.333 247.085 279.333 247.417C279.333 247.748 279.202 248.066 278.967 248.301C278.733 248.535 278.415 248.667 278.083 248.667C277.752 248.667 277.434 248.535 277.199 248.301C276.965 248.066 276.833 247.748 276.833 247.417C276.833 247.085 276.965 246.767 277.199 246.533C277.434 246.298 277.752 246.167 278.083 246.167ZM278.083 228.667C278.415 228.667 278.733 228.798 278.967 229.033C279.202 229.267 279.333 229.585 279.333 229.917C279.333 230.248 279.202 230.566 278.967 230.801C278.733 231.035 278.415 231.167 278.083 231.167C277.752 231.167 277.434 231.035 277.199 230.801C276.965 230.566 276.833 230.248 276.833 229.917C276.833 229.585 276.965 229.267 277.199 229.033C277.434 228.798 277.752 228.667 278.083 228.667ZM290.583 231.167C290.915 231.167 291.233 231.298 291.467 231.533C291.702 231.767 291.833 232.085 291.833 232.417C291.833 232.748 291.702 233.066 291.467 233.301C291.233 233.535 290.915 233.667 290.583 233.667C290.252 233.667 289.934 233.535 289.699 233.301C289.465 233.066 289.333 232.748 289.333 232.417C289.333 232.085 289.465 231.767 289.699 231.533C289.934 231.298 290.252 231.167 290.583 231.167Z" fill="#1D2535"/>
<path d="M87.3333 277H107.333C108.217 277 109.065 277.351 109.69 277.976C110.315 278.601 110.667 279.449 110.667 280.333V307C110.667 307.884 110.315 308.732 109.69 309.357C109.065 309.982 108.217 310.333 107.333 310.333H87.3333C86.4493 310.333 85.6014 309.982 84.9763 309.357C84.3512 308.732 84 307.884 84 307V280.333C84 279.449 84.3512 278.601 84.9763 277.976C85.6014 277.351 86.4493 277 87.3333 277ZM98.5833 296.167C103.167 296.167 104.4 292.783 104.717 291C106.233 290.517 107.333 289.1 107.333 287.417C107.333 285.333 105.667 283.667 103.583 283.667C101.5 283.667 99.8333 285.333 99.8333 287.417C99.8333 288.983 100.783 290.333 102.15 290.883C101.783 292 100.667 293.667 97.3333 293.667C95.0333 293.667 93.4333 294.25 92.3333 295.067V288.45C93.7833 287.933 94.8333 286.55 94.8333 284.917C94.8333 282.833 93.1667 281.167 91.0833 281.167C89 281.167 87.3333 282.833 87.3333 284.917C87.3333 286.55 88.3833 287.933 89.8333 288.45V298.883C88.3833 299.4 87.3333 300.783 87.3333 302.417C87.3333 304.5 89 306.167 91.0833 306.167C93.1667 306.167 94.8333 304.5 94.8333 302.417C94.8333 300.867 93.9 299.5 92.55 298.967C93.0167 297.833 94.3833 296.167 98.5833 296.167ZM91.0833 301.167C91.4149 301.167 91.7328 301.298 91.9672 301.533C92.2016 301.767 92.3333 302.085 92.3333 302.417C92.3333 302.748 92.2016 303.066 91.9672 303.301C91.7328 303.535 91.4149 303.667 91.0833 303.667C90.7518 303.667 90.4339 303.535 90.1994 303.301C89.965 303.066 89.8333 302.748 89.8333 302.417C89.8333 302.085 89.965 301.767 90.1994 301.533C90.4339 301.298 90.7518 301.167 91.0833 301.167ZM91.0833 283.667C91.4149 283.667 91.7328 283.798 91.9672 284.033C92.2016 284.267 92.3333 284.585 92.3333 284.917C92.3333 285.248 92.2016 285.566 91.9672 285.801C91.7328 286.035 91.4149 286.167 91.0833 286.167C90.7518 286.167 90.4339 286.035 90.1994 285.801C89.965 285.566 89.8333 285.248 89.8333 284.917C89.8333 284.585 89.965 284.267 90.1994 284.033C90.4339 283.798 90.7518 283.667 91.0833 283.667ZM103.583 286.167C103.915 286.167 104.233 286.298 104.467 286.533C104.702 286.767 104.833 287.085 104.833 287.417C104.833 287.748 104.702 288.066 104.467 288.301C104.233 288.535 103.915 288.667 103.583 288.667C103.252 288.667 102.934 288.535 102.699 288.301C102.465 288.066 102.333 287.748 102.333 287.417C102.333 287.085 102.465 286.767 102.699 286.533C102.934 286.298 103.252 286.167 103.583 286.167Z" fill="#ADB5BD"/>
<path d="M122.333 0H142.333C143.217 0 144.065 0.351189 144.69 0.976311C145.315 1.60143 145.667 2.44928 145.667 3.33333V30C145.667 30.8841 145.315 31.7319 144.69 32.357C144.065 32.9821 143.217 33.3333 142.333 33.3333H122.333C121.449 33.3333 120.601 32.9821 119.976 32.357C119.351 31.7319 119 30.8841 119 30V3.33333C119 2.44928 119.351 1.60143 119.976 0.976311C120.601 0.351189 121.449 0 122.333 0ZM133.583 19.1667C138.167 19.1667 139.4 15.7833 139.717 14C141.233 13.5167 142.333 12.1 142.333 10.4167C142.333 8.33333 140.667 6.66667 138.583 6.66667C136.5 6.66667 134.833 8.33333 134.833 10.4167C134.833 11.9833 135.783 13.3333 137.15 13.8833C136.783 15 135.667 16.6667 132.333 16.6667C130.033 16.6667 128.433 17.25 127.333 18.0667V11.45C128.783 10.9333 129.833 9.55 129.833 7.91667C129.833 5.83333 128.167 4.16667 126.083 4.16667C124 4.16667 122.333 5.83333 122.333 7.91667C122.333 9.55 123.383 10.9333 124.833 11.45V21.8833C123.383 22.4 122.333 23.7833 122.333 25.4167C122.333 27.5 124 29.1667 126.083 29.1667C128.167 29.1667 129.833 27.5 129.833 25.4167C129.833 23.8667 128.9 22.5 127.55 21.9667C128.017 20.8333 129.383 19.1667 133.583 19.1667ZM126.083 24.1667C126.415 24.1667 126.733 24.2984 126.967 24.5328C127.202 24.7672 127.333 25.0851 127.333 25.4167C127.333 25.7482 127.202 26.0661 126.967 26.3006C126.733 26.535 126.415 26.6667 126.083 26.6667C125.752 26.6667 125.434 26.535 125.199 26.3006C124.965 26.0661 124.833 25.7482 124.833 25.4167C124.833 25.0851 124.965 24.7672 125.199 24.5328C125.434 24.2984 125.752 24.1667 126.083 24.1667ZM126.083 6.66667C126.415 6.66667 126.733 6.79836 126.967 7.03278C127.202 7.2672 127.333 7.58515 127.333 7.91667C127.333 8.24819 127.202 8.56613 126.967 8.80055C126.733 9.03497 126.415 9.16667 126.083 9.16667C125.752 9.16667 125.434 9.03497 125.199 8.80055C124.965 8.56613 124.833 8.24819 124.833 7.91667C124.833 7.58515 124.965 7.2672 125.199 7.03278C125.434 6.79836 125.752 6.66667 126.083 6.66667ZM138.583 9.16667C138.915 9.16667 139.233 9.29836 139.467 9.53278C139.702 9.7672 139.833 10.0851 139.833 10.4167C139.833 10.7482 139.702 11.0661 139.467 11.3005C139.233 11.535 138.915 11.6667 138.583 11.6667C138.252 11.6667 137.934 11.535 137.699 11.3005C137.465 11.0661 137.333 10.7482 137.333 10.4167C137.333 10.0851 137.465 9.7672 137.699 9.53278C137.934 9.29836 138.252 9.16667 138.583 9.16667Z" fill="#1D2535"/>
<path d="M122.333 56H142.333C143.217 56 144.065 56.3512 144.69 56.9763C145.315 57.6014 145.667 58.4493 145.667 59.3333V86C145.667 86.8841 145.315 87.7319 144.69 88.357C144.065 88.9821 143.217 89.3333 142.333 89.3333H122.333C121.449 89.3333 120.601 88.9821 119.976 88.357C119.351 87.7319 119 86.8841 119 86V59.3333C119 58.4493 119.351 57.6014 119.976 56.9763C120.601 56.3512 121.449 56 122.333 56ZM133.583 75.1667C138.167 75.1667 139.4 71.7833 139.717 70C141.233 69.5167 142.333 68.1 142.333 66.4167C142.333 64.3333 140.667 62.6667 138.583 62.6667C136.5 62.6667 134.833 64.3333 134.833 66.4167C134.833 67.9833 135.783 69.3333 137.15 69.8833C136.783 71 135.667 72.6667 132.333 72.6667C130.033 72.6667 128.433 73.25 127.333 74.0667V67.45C128.783 66.9333 129.833 65.55 129.833 63.9167C129.833 61.8333 128.167 60.1667 126.083 60.1667C124 60.1667 122.333 61.8333 122.333 63.9167C122.333 65.55 123.383 66.9333 124.833 67.45V77.8833C123.383 78.4 122.333 79.7833 122.333 81.4167C122.333 83.5 124 85.1667 126.083 85.1667C128.167 85.1667 129.833 83.5 129.833 81.4167C129.833 79.8667 128.9 78.5 127.55 77.9667C128.017 76.8333 129.383 75.1667 133.583 75.1667ZM126.083 80.1667C126.415 80.1667 126.733 80.2984 126.967 80.5328C127.202 80.7672 127.333 81.0851 127.333 81.4167C127.333 81.7482 127.202 82.0661 126.967 82.3006C126.733 82.535 126.415 82.6667 126.083 82.6667C125.752 82.6667 125.434 82.535 125.199 82.3006C124.965 82.0661 124.833 81.7482 124.833 81.4167C124.833 81.0851 124.965 80.7672 125.199 80.5328C125.434 80.2984 125.752 80.1667 126.083 80.1667ZM126.083 62.6667C126.415 62.6667 126.733 62.7984 126.967 63.0328C127.202 63.2672 127.333 63.5851 127.333 63.9167C127.333 64.2482 127.202 64.5661 126.967 64.8006C126.733 65.035 126.415 65.1667 126.083 65.1667C125.752 65.1667 125.434 65.035 125.199 64.8006C124.965 64.5661 124.833 64.2482 124.833 63.9167C124.833 63.5851 124.965 63.2672 125.199 63.0328C125.434 62.7984 125.752 62.6667 126.083 62.6667ZM138.583 65.1667C138.915 65.1667 139.233 65.2984 139.467 65.5328C139.702 65.7672 139.833 66.0851 139.833 66.4167C139.833 66.7482 139.702 67.0661 139.467 67.3005C139.233 67.535 138.915 67.6667 138.583 67.6667C138.252 67.6667 137.934 67.535 137.699 67.3005C137.465 67.0661 137.333 66.7482 137.333 66.4167C137.333 66.0851 137.465 65.7672 137.699 65.5328C137.934 65.2984 138.252 65.1667 138.583 65.1667Z" fill="#1D2535"/>
<path d="M122.333 111H142.333C143.217 111 144.065 111.351 144.69 111.976C145.315 112.601 145.667 113.449 145.667 114.333V141C145.667 141.884 145.315 142.732 144.69 143.357C144.065 143.982 143.217 144.333 142.333 144.333H122.333C121.449 144.333 120.601 143.982 119.976 143.357C119.351 142.732 119 141.884 119 141V114.333C119 113.449 119.351 112.601 119.976 111.976C120.601 111.351 121.449 111 122.333 111ZM133.583 130.167C138.167 130.167 139.4 126.783 139.717 125C141.233 124.517 142.333 123.1 142.333 121.417C142.333 119.333 140.667 117.667 138.583 117.667C136.5 117.667 134.833 119.333 134.833 121.417C134.833 122.983 135.783 124.333 137.15 124.883C136.783 126 135.667 127.667 132.333 127.667C130.033 127.667 128.433 128.25 127.333 129.067V122.45C128.783 121.933 129.833 120.55 129.833 118.917C129.833 116.833 128.167 115.167 126.083 115.167C124 115.167 122.333 116.833 122.333 118.917C122.333 120.55 123.383 121.933 124.833 122.45V132.883C123.383 133.4 122.333 134.783 122.333 136.417C122.333 138.5 124 140.167 126.083 140.167C128.167 140.167 129.833 138.5 129.833 136.417C129.833 134.867 128.9 133.5 127.55 132.967C128.017 131.833 129.383 130.167 133.583 130.167ZM126.083 135.167C126.415 135.167 126.733 135.298 126.967 135.533C127.202 135.767 127.333 136.085 127.333 136.417C127.333 136.748 127.202 137.066 126.967 137.301C126.733 137.535 126.415 137.667 126.083 137.667C125.752 137.667 125.434 137.535 125.199 137.301C124.965 137.066 124.833 136.748 124.833 136.417C124.833 136.085 124.965 135.767 125.199 135.533C125.434 135.298 125.752 135.167 126.083 135.167ZM126.083 117.667C126.415 117.667 126.733 117.798 126.967 118.033C127.202 118.267 127.333 118.585 127.333 118.917C127.333 119.248 127.202 119.566 126.967 119.801C126.733 120.035 126.415 120.167 126.083 120.167C125.752 120.167 125.434 120.035 125.199 119.801C124.965 119.566 124.833 119.248 124.833 118.917C124.833 118.585 124.965 118.267 125.199 118.033C125.434 117.798 125.752 117.667 126.083 117.667ZM138.583 120.167C138.915 120.167 139.233 120.298 139.467 120.533C139.702 120.767 139.833 121.085 139.833 121.417C139.833 121.748 139.702 122.066 139.467 122.301C139.233 122.535 138.915 122.667 138.583 122.667C138.252 122.667 137.934 122.535 137.699 122.301C137.465 122.066 137.333 121.748 137.333 121.417C137.333 121.085 137.465 120.767 137.699 120.533C137.934 120.298 138.252 120.167 138.583 120.167Z" fill="#1D2535"/>
<path d="M13.3333 279C11.5652 279 9.86953 279.702 8.61929 280.953C7.36905 282.203 6.66667 283.899 6.66667 285.667C6.66667 287.435 7.36905 289.13 8.61929 290.381C9.86953 291.631 11.5652 292.333 13.3333 292.333C15.1014 292.333 16.7971 291.631 18.0474 290.381C19.2976 289.13 20 287.435 20 285.667C20 283.899 19.2976 282.203 18.0474 280.953C16.7971 279.702 15.1014 279 13.3333 279ZM25.8333 294C21.6667 294 18.3333 297.333 18.3333 301.5C18.3333 305.667 21.6667 309 25.8333 309C30 309 33.3333 305.667 33.3333 301.5C33.3333 297.333 30 294 25.8333 294ZM13.3333 295.667C5.96667 295.667 0 298.65 0 302.333V305.667H15.8333C15.2832 304.346 15 302.93 15 301.5C15.0071 299.524 15.5547 297.587 16.5833 295.9C15.5333 295.767 14.4667 295.667 13.3333 295.667ZM25.8333 296.5C28.6 296.5 30.8333 298.733 30.8333 301.5C30.8333 302.433 30.5833 303.3 30.1333 304L23.3333 297.2C24.0333 296.75 24.9 296.5 25.8333 296.5ZM21.5333 299L28.3333 305.8C27.6333 306.25 26.7667 306.5 25.8333 306.5C23.0667 306.5 20.8333 304.267 20.8333 301.5C20.8333 300.567 21.0833 299.7 21.5333 299Z" fill="#F03E3E"/>
<path d="M200.333 279C198.565 279 196.87 279.702 195.619 280.953C194.369 282.203 193.667 283.899 193.667 285.667C193.667 287.435 194.369 289.13 195.619 290.381C196.87 291.631 198.565 292.333 200.333 292.333C202.101 292.333 203.797 291.631 205.047 290.381C206.298 289.13 207 287.435 207 285.667C207 283.899 206.298 282.203 205.047 280.953C203.797 279.702 202.101 279 200.333 279ZM212.833 294C208.667 294 205.333 297.333 205.333 301.5C205.333 305.667 208.667 309 212.833 309C217 309 220.333 305.667 220.333 301.5C220.333 297.333 217 294 212.833 294ZM200.333 295.667C192.967 295.667 187 298.65 187 302.333V305.667H202.833C202.283 304.346 202 302.93 202 301.5C202.007 299.524 202.555 297.587 203.583 295.9C202.533 295.767 201.467 295.667 200.333 295.667ZM212.833 296.5C215.6 296.5 217.833 298.733 217.833 301.5C217.833 302.433 217.583 303.3 217.133 304L210.333 297.2C211.033 296.75 211.9 296.5 212.833 296.5ZM208.533 299L215.333 305.8C214.633 306.25 213.767 306.5 212.833 306.5C210.067 306.5 207.833 304.267 207.833 301.5C207.833 300.567 208.083 299.7 208.533 299Z" fill="#F03E3E"/>
<path d="M13.3333 3C15.1014 3 16.7971 3.70238 18.0474 4.95262C19.2976 6.20286 20 7.89856 20 9.66667C20 11.4348 19.2976 13.1305 18.0474 14.3807C16.7971 15.631 15.1014 16.3333 13.3333 16.3333C11.5652 16.3333 9.86953 15.631 8.61929 14.3807C7.36905 13.1305 6.66667 11.4348 6.66667 9.66667C6.66667 7.89856 7.36905 6.20286 8.61929 4.95262C9.86953 3.70238 11.5652 3 13.3333 3ZM13.3333 19.6667C20.7 19.6667 26.6667 22.65 26.6667 26.3333V29.6667H0V26.3333C0 22.65 5.96667 19.6667 13.3333 19.6667Z" fill="#00B4F2"/>
<path d="M200.333 3C202.101 3 203.797 3.70238 205.047 4.95262C206.298 6.20286 207 7.89856 207 9.66667C207 11.4348 206.298 13.1305 205.047 14.3807C203.797 15.631 202.101 16.3333 200.333 16.3333C198.565 16.3333 196.87 15.631 195.619 14.3807C194.369 13.1305 193.667 11.4348 193.667 9.66667C193.667 7.89856 194.369 6.20286 195.619 4.95262C196.87 3.70238 198.565 3 200.333 3ZM200.333 19.6667C207.7 19.6667 213.667 22.65 213.667 26.3333V29.6667H187V26.3333C187 22.65 192.967 19.6667 200.333 19.6667Z" fill="#00B4F2"/>
<path d="M13.3333 59C15.1014 59 16.7971 59.7024 18.0474 60.9526C19.2976 62.2029 20 63.8986 20 65.6667C20 67.4348 19.2976 69.1305 18.0474 70.3807C16.7971 71.631 15.1014 72.3333 13.3333 72.3333C11.5652 72.3333 9.86953 71.631 8.61929 70.3807C7.36905 69.1305 6.66667 67.4348 6.66667 65.6667C6.66667 63.8986 7.36905 62.2029 8.61929 60.9526C9.86953 59.7024 11.5652 59 13.3333 59ZM13.3333 75.6667C20.7 75.6667 26.6667 78.65 26.6667 82.3333V85.6667H0V82.3333C0 78.65 5.96667 75.6667 13.3333 75.6667Z" fill="#00B4F2"/>
<path d="M200.333 59C202.101 59 203.797 59.7024 205.047 60.9526C206.298 62.2029 207 63.8986 207 65.6667C207 67.4348 206.298 69.1305 205.047 70.3807C203.797 71.631 202.101 72.3333 200.333 72.3333C198.565 72.3333 196.87 71.631 195.619 70.3807C194.369 69.1305 193.667 67.4348 193.667 65.6667C193.667 63.8986 194.369 62.2029 195.619 60.9526C196.87 59.7024 198.565 59 200.333 59ZM200.333 75.6667C207.7 75.6667 213.667 78.65 213.667 82.3333V85.6667H187V82.3333C187 78.65 192.967 75.6667 200.333 75.6667Z" fill="#00B4F2"/>
<path d="M13.3333 114C15.1014 114 16.7971 114.702 18.0474 115.953C19.2976 117.203 20 118.899 20 120.667C20 122.435 19.2976 124.13 18.0474 125.381C16.7971 126.631 15.1014 127.333 13.3333 127.333C11.5652 127.333 9.86953 126.631 8.61929 125.381C7.36905 124.13 6.66667 122.435 6.66667 120.667C6.66667 118.899 7.36905 117.203 8.61929 115.953C9.86953 114.702 11.5652 114 13.3333 114ZM13.3333 130.667C20.7 130.667 26.6667 133.65 26.6667 137.333V140.667H0V137.333C0 133.65 5.96667 130.667 13.3333 130.667Z" fill="#00B4F2"/>
<path d="M200.333 114C202.101 114 203.797 114.702 205.047 115.953C206.298 117.203 207 118.899 207 120.667C207 122.435 206.298 124.13 205.047 125.381C203.797 126.631 202.101 127.333 200.333 127.333C198.565 127.333 196.87 126.631 195.619 125.381C194.369 124.13 193.667 122.435 193.667 120.667C193.667 118.899 194.369 117.203 195.619 115.953C196.87 114.702 198.565 114 200.333 114ZM200.333 130.667C207.7 130.667 213.667 133.65 213.667 137.333V140.667H187V137.333C187 133.65 192.967 130.667 200.333 130.667Z" fill="#00B4F2"/>
<path d="M13.3333 169C15.1014 169 16.7971 169.702 18.0474 170.953C19.2976 172.203 20 173.899 20 175.667C20 177.435 19.2976 179.13 18.0474 180.381C16.7971 181.631 15.1014 182.333 13.3333 182.333C11.5652 182.333 9.86953 181.631 8.61929 180.381C7.36905 179.13 6.66667 177.435 6.66667 175.667C6.66667 173.899 7.36905 172.203 8.61929 170.953C9.86953 169.702 11.5652 169 13.3333 169ZM13.3333 185.667C20.7 185.667 26.6667 188.65 26.6667 192.333V195.667H0V192.333C0 188.65 5.96667 185.667 13.3333 185.667Z" fill="#00B4F2"/>
<path d="M200.333 169C202.101 169 203.797 169.702 205.047 170.953C206.298 172.203 207 173.899 207 175.667C207 177.435 206.298 179.13 205.047 180.381C203.797 181.631 202.101 182.333 200.333 182.333C198.565 182.333 196.87 181.631 195.619 180.381C194.369 179.13 193.667 177.435 193.667 175.667C193.667 173.899 194.369 172.203 195.619 170.953C196.87 169.702 198.565 169 200.333 169ZM200.333 185.667C207.7 185.667 213.667 188.65 213.667 192.333V195.667H187V192.333C187 188.65 192.967 185.667 200.333 185.667Z" fill="#00B4F2"/>
<path d="M13.3333 225C15.1014 225 16.7971 225.702 18.0474 226.953C19.2976 228.203 20 229.899 20 231.667C20 233.435 19.2976 235.13 18.0474 236.381C16.7971 237.631 15.1014 238.333 13.3333 238.333C11.5652 238.333 9.86953 237.631 8.61929 236.381C7.36905 235.13 6.66667 233.435 6.66667 231.667C6.66667 229.899 7.36905 228.203 8.61929 226.953C9.86953 225.702 11.5652 225 13.3333 225ZM13.3333 241.667C20.7 241.667 26.6667 244.65 26.6667 248.333V251.667H0V248.333C0 244.65 5.96667 241.667 13.3333 241.667Z" fill="#00B4F2"/>
<path d="M200.333 225C202.101 225 203.797 225.702 205.047 226.953C206.298 228.203 207 229.899 207 231.667C207 233.435 206.298 235.13 205.047 236.381C203.797 237.631 202.101 238.333 200.333 238.333C198.565 238.333 196.87 237.631 195.619 236.381C194.369 235.13 193.667 233.435 193.667 231.667C193.667 229.899 194.369 228.203 195.619 226.953C196.87 225.702 198.565 225 200.333 225ZM200.333 241.667C207.7 241.667 213.667 244.65 213.667 248.333V251.667H187V248.333C187 244.65 192.967 241.667 200.333 241.667Z" fill="#00B4F2"/>
</svg>
