<svg xmlns="http://www.w3.org/2000/svg" preserveAspectRatio="xMidyMid slice">
    <rect x="0%" y="0%" width="100%" height="100%" fill="white" />
    <rect x="0%" y="0%" width="100%" height="100%" fill="url(#paint0_linear)" />
    <rect x="0%" y="0%" width="100%" height="100%" fill="url(#paint1_linear)" />
    <rect x="0%" y="0%" width="100%" height="100%" fill="url(#paint4_linear)" />
    <rect fill="url(#background)" x="0%" y="0%" width="100%" height="100%" mask="url(#mask0)" />
    <mask id="mask0" mask-type="alpha" maskUnits="userSpaceOnUse" x="0" y="0" width="2056" height="710">
        <path d="M0 710L2047 710V0L0 0V710Z" fill="url(#paint5_linear)" />
        <path d="M0 0L0 710L2056 710V0L0 0Z" fill="url(#paint6_linear)" />
    </mask>
    <defs>
        <pattern id="background" patternUnits="userSpaceOnUse" width="32" height="32">
            <path d="M 0 0 L 32 0 L 0 32 L 0 0 Z" fill="#B200F8" fill-opacity="0.025" />
        </pattern>
        <linearGradient id="paint0_linear" x1="100%" y1="50%" x2="0%" y2="50%" gradientUnits="userSpaceOnUse">
            <stop stop-color="#00B4F2" />
            <stop offset="1" stop-color="#9CE5FE" />
        </linearGradient>
        <linearGradient id="paint1_linear" x1="100%" y1="50%" x2="0%" y2="50%" gradientUnits="userSpaceOnUse">
            <stop stop-color="#B200F8" stop-opacity="0.35" />
            <stop offset="0.358333" stop-color="white" stop-opacity="0" />
            <stop offset="1" stop-color="white" stop-opacity="0" />
        </linearGradient>
        <linearGradient id="paint4_linear" x1="15%" y1="10%" x2="15%" y2="80%" gradientUnits="userSpaceOnUse">
            <stop stop-color="#FBF0FF" stop-opacity="0.85" />
            <stop offset="1" stop-color="white" stop-opacity="0" />
        </linearGradient>
        <linearGradient id="paint5_linear" x1="50%" y1="100%" x2="50%" y2="0%" gradientUnits="userSpaceOnUse">
            <stop offset="0.30625" stop-color="white" stop-opacity="0" />
            <stop offset="0.696875" stop-color="white" stop-opacity="0" />
            <stop offset="1" />
        </linearGradient>
        <linearGradient id="paint6_linear" x1="0%" y1="50%" x2="100%" y2="50%" gradientUnits="userSpaceOnUse">
            <stop />
            <stop offset="0.30625" stop-color="white" stop-opacity="0" />
            <stop offset="0.696875" stop-color="white" stop-opacity="0" />
            <stop offset="1" />
        </linearGradient>
    </defs>
</svg>
