<svg width="2047" height="710" viewBox="0 0 2047 710" xmlns="http://www.w3.org/2000/svg">
    <path d="M2047 0H0V710H2047V0Z" fill="white" />
    <path d="M2056 0V710L0 710V0L2056 0Z" fill="url(#paint0_linear)" />
    <path d="M2056 0V710L0 710V0L2056 0Z" fill="url(#paint1_linear)" />
    <path d="M0 0L0 710L2056 710V0L0 0Z" fill="url(#paint2_radial)" />
    <path d="M0 0L0 710L2056 710V0L0 0Z" fill="url(#paint3_radial)" />
    <path d="M0 0L0 710L2056 710V0L0 0Z" fill="url(#paint4_linear)" />
    <rect fill="url(#background)" x="0" y="0" width="100%" height="100%" mask="url(#mask0)" />
    <mask id="mask0" mask-type="alpha" maskUnits="userSpaceOnUse" x="0" y="0" width="2056" height="710">
        <path d="M0 710L2047 710V0L0 0V710Z" fill="url(#paint5_linear)" />
        <path d="M0 0L0 710L2056 710V0L0 0Z" fill="url(#paint6_linear)" />
    </mask>
    <defs>
        <pattern id="background" patternUnits="userSpaceOnUse" width="32" height="32">
            <path d="M 0 0 L 32 0 L 0 32 L 0 0 Z" fill="#B200F8" fill-opacity="0.025" />
        </pattern>
        <linearGradient id="paint0_linear" x1="2056" y1="355" x2="0" y2="355" gradientUnits="userSpaceOnUse">
            <stop stop-color="#00B4F2" />
            <stop offset="1" stop-color="#9CE5FE" />
        </linearGradient>
        <linearGradient id="paint1_linear" x1="2056" y1="355" x2="0" y2="355" gradientUnits="userSpaceOnUse">
            <stop stop-color="#B200F8" stop-opacity="0.35" />
            <stop offset="0.358333" stop-color="white" stop-opacity="0" />
            <stop offset="1" stop-color="white" stop-opacity="0" />
        </linearGradient>
        <radialGradient id="paint2_radial" cx="0" cy="0" r="1" gradientUnits="userSpaceOnUse"
            gradientTransform="translate(1493 296.5) rotate(5.9322) scale(566.031 905.618)">
            <stop stop-color="#B200F8" stop-opacity="0.07" />
            <stop offset="1" stop-color="white" stop-opacity="0" />
        </radialGradient>
        <radialGradient id="paint3_radial" cx="0" cy="0" r="1" gradientUnits="userSpaceOnUse"
            gradientTransform="translate(709 428.5) rotate(-45) scale(614.476)">
            <stop stop-color="#F8E8FF" stop-opacity="0.35" />
            <stop offset="1" stop-color="white" stop-opacity="0" />
        </radialGradient>
        <linearGradient id="paint4_linear" x1="289.5" y1="77" x2="289.5" y2="561" gradientUnits="userSpaceOnUse">
            <stop stop-color="#FBF0FF" stop-opacity="0.85" />
            <stop offset="1" stop-color="white" stop-opacity="0" />
        </linearGradient>
        <linearGradient id="paint5_linear" x1="1023.5" y1="710" x2="1023.5" y2="0" gradientUnits="userSpaceOnUse">
            <stop offset="0.30625" stop-color="white" stop-opacity="0" />
            <stop offset="0.696875" stop-color="white" stop-opacity="0" />
            <stop offset="1" />
        </linearGradient>
        <linearGradient id="paint6_linear" x1="0" y1="355" x2="2056" y2="355" gradientUnits="userSpaceOnUse">
            <stop />
            <stop offset="0.30625" stop-color="white" stop-opacity="0" />
            <stop offset="0.696875" stop-color="white" stop-opacity="0" />
            <stop offset="1" />
        </linearGradient>
    </defs>
</svg>
