<svg width="2047" height="710" viewBox="0 0 2047 710" fill="none" xmlns="http://www.w3.org/2000/svg">
    <path d="M2047 0H0V710H2047V0Z" fill="white" />
    <path d="M2056 0V710L0 710V0L2056 0Z" fill="url(#paint0_linear)" />
    <path d="M2056 0V710L0 710V0L2056 0Z" fill="url(#paint1_linear)" />
    <path d="M0 0L0 710L2056 710V0L0 0Z" fill="url(#paint2_radial)" />
    <path d="M0 0L0 710L2056 710V0L0 0Z" fill="url(#paint3_radial)" />
    <path d="M0 0L0 710L2056 710V0L0 0Z" fill="url(#paint4_linear)" />
    <defs>
        <linearGradient id="paint0_linear" x1="2056" y1="355" x2="0" y2="355" gradientUnits="userSpaceOnUse">
            <stop stop-color="#00B4F2" />
            <stop offset="1" stop-color="#9CE5FE" />
        </linearGradient>
        <linearGradient id="paint1_linear" x1="2056" y1="355" x2="0" y2="355" gradientUnits="userSpaceOnUse">
            <stop stop-color="#B200F8" stop-opacity="0.35" />
            <stop offset="0.358333" stop-color="white" stop-opacity="0" />
            <stop offset="1" stop-color="white" stop-opacity="0" />
        </linearGradient>
        <radialGradient id="paint2_radial" cx="0" cy="0" r="1" gradientUnits="userSpaceOnUse"
            gradientTransform="translate(1493 296.5) rotate(5.9322) scale(566.031 905.618)">
            <stop stop-color="#B200F8" stop-opacity="0.07" />
            <stop offset="1" stop-color="white" stop-opacity="0" />
        </radialGradient>
        <radialGradient id="paint3_radial" cx="0" cy="0" r="1" gradientUnits="userSpaceOnUse"
            gradientTransform="translate(709 428.5) rotate(-45) scale(614.476)">
            <stop stop-color="#F8E8FF" stop-opacity="0.35" />
            <stop offset="1" stop-color="white" stop-opacity="0" />
        </radialGradient>
        <linearGradient id="paint4_linear" x1="289.5" y1="77" x2="289.5" y2="561" gradientUnits="userSpaceOnUse">
            <stop stop-color="#FBF0FF" stop-opacity="0.85" />
            <stop offset="1" stop-color="white" stop-opacity="0" />
        </linearGradient>
    </defs>
</svg>
