<svg width="215" height="311" viewBox="0 0 215 311" fill="none" xmlns="http://www.w3.org/2000/svg">
<path d="M13.3333 142C15.1014 142 16.7971 142.702 18.0474 143.953C19.2976 145.203 20 146.899 20 148.667C20 150.435 19.2976 152.13 18.0474 153.381C16.7971 154.631 15.1014 155.333 13.3333 155.333C11.5652 155.333 9.86953 154.631 8.61929 153.381C7.36905 152.13 6.66667 150.435 6.66667 148.667C6.66667 146.899 7.36905 145.203 8.61929 143.953C9.86953 142.702 11.5652 142 13.3333 142ZM13.3333 158.667C20.7 158.667 26.6667 161.65 26.6667 165.333V168.667H0V165.333C0 161.65 5.96667 158.667 13.3333 158.667Z" fill="#00B4F2"/>
<path d="M51.3333 0H71.3333C72.2174 0 73.0652 0.351189 73.6904 0.976311C74.3155 1.60143 74.6667 2.44928 74.6667 3.33333V30C74.6667 30.8841 74.3155 31.7319 73.6904 32.357C73.0652 32.9821 72.2174 33.3333 71.3333 33.3333H51.3333C50.4493 33.3333 49.6014 32.9821 48.9763 32.357C48.3512 31.7319 48 30.8841 48 30V3.33333C48 2.44928 48.3512 1.60143 48.9763 0.976311C49.6014 0.351189 50.4493 0 51.3333 0ZM62.5833 19.1667C67.1667 19.1667 68.4 15.7833 68.7167 14C70.2333 13.5167 71.3333 12.1 71.3333 10.4167C71.3333 8.33333 69.6667 6.66667 67.5833 6.66667C65.5 6.66667 63.8333 8.33333 63.8333 10.4167C63.8333 11.9833 64.7833 13.3333 66.15 13.8833C65.7833 15 64.6667 16.6667 61.3333 16.6667C59.0333 16.6667 57.4333 17.25 56.3333 18.0667V11.45C57.7833 10.9333 58.8333 9.55 58.8333 7.91667C58.8333 5.83333 57.1667 4.16667 55.0833 4.16667C53 4.16667 51.3333 5.83333 51.3333 7.91667C51.3333 9.55 52.3833 10.9333 53.8333 11.45V21.8833C52.3833 22.4 51.3333 23.7833 51.3333 25.4167C51.3333 27.5 53 29.1667 55.0833 29.1667C57.1667 29.1667 58.8333 27.5 58.8333 25.4167C58.8333 23.8667 57.9 22.5 56.55 21.9667C57.0167 20.8333 58.3833 19.1667 62.5833 19.1667ZM55.0833 24.1667C55.4149 24.1667 55.7328 24.2984 55.9672 24.5328C56.2016 24.7672 56.3333 25.0851 56.3333 25.4167C56.3333 25.7482 56.2016 26.0661 55.9672 26.3006C55.7328 26.535 55.4149 26.6667 55.0833 26.6667C54.7518 26.6667 54.4339 26.535 54.1994 26.3006C53.965 26.0661 53.8333 25.7482 53.8333 25.4167C53.8333 25.0851 53.965 24.7672 54.1994 24.5328C54.4339 24.2984 54.7518 24.1667 55.0833 24.1667ZM55.0833 6.66667C55.4149 6.66667 55.7328 6.79836 55.9672 7.03278C56.2016 7.2672 56.3333 7.58515 56.3333 7.91667C56.3333 8.24819 56.2016 8.56613 55.9672 8.80055C55.7328 9.03497 55.4149 9.16667 55.0833 9.16667C54.7518 9.16667 54.4339 9.03497 54.1994 8.80055C53.965 8.56613 53.8333 8.24819 53.8333 7.91667C53.8333 7.58515 53.965 7.2672 54.1994 7.03278C54.4339 6.79836 54.7518 6.66667 55.0833 6.66667ZM67.5833 9.16667C67.9149 9.16667 68.2328 9.29836 68.4672 9.53278C68.7016 9.7672 68.8333 10.0851 68.8333 10.4167C68.8333 10.7482 68.7016 11.0661 68.4672 11.3005C68.2328 11.535 67.9149 11.6667 67.5833 11.6667C67.2518 11.6667 66.9339 11.535 66.6994 11.3005C66.465 11.0661 66.3333 10.7482 66.3333 10.4167C66.3333 10.0851 66.465 9.7672 66.6994 9.53278C66.9339 9.29836 67.2518 9.16667 67.5833 9.16667Z" fill="#1D2535"/>
<path d="M51.3333 56H71.3333C72.2174 56 73.0652 56.3512 73.6904 56.9763C74.3155 57.6014 74.6667 58.4493 74.6667 59.3333V86C74.6667 86.8841 74.3155 87.7319 73.6904 88.357C73.0652 88.9821 72.2174 89.3333 71.3333 89.3333H51.3333C50.4493 89.3333 49.6014 88.9821 48.9763 88.357C48.3512 87.7319 48 86.8841 48 86V59.3333C48 58.4493 48.3512 57.6014 48.9763 56.9763C49.6014 56.3512 50.4493 56 51.3333 56ZM62.5833 75.1667C67.1667 75.1667 68.4 71.7833 68.7167 70C70.2333 69.5167 71.3333 68.1 71.3333 66.4167C71.3333 64.3333 69.6667 62.6667 67.5833 62.6667C65.5 62.6667 63.8333 64.3333 63.8333 66.4167C63.8333 67.9833 64.7833 69.3333 66.15 69.8833C65.7833 71 64.6667 72.6667 61.3333 72.6667C59.0333 72.6667 57.4333 73.25 56.3333 74.0667V67.45C57.7833 66.9333 58.8333 65.55 58.8333 63.9167C58.8333 61.8333 57.1667 60.1667 55.0833 60.1667C53 60.1667 51.3333 61.8333 51.3333 63.9167C51.3333 65.55 52.3833 66.9333 53.8333 67.45V77.8833C52.3833 78.4 51.3333 79.7833 51.3333 81.4167C51.3333 83.5 53 85.1667 55.0833 85.1667C57.1667 85.1667 58.8333 83.5 58.8333 81.4167C58.8333 79.8667 57.9 78.5 56.55 77.9667C57.0167 76.8333 58.3833 75.1667 62.5833 75.1667ZM55.0833 80.1667C55.4149 80.1667 55.7328 80.2984 55.9672 80.5328C56.2016 80.7672 56.3333 81.0851 56.3333 81.4167C56.3333 81.7482 56.2016 82.0661 55.9672 82.3006C55.7328 82.535 55.4149 82.6667 55.0833 82.6667C54.7518 82.6667 54.4339 82.535 54.1994 82.3006C53.965 82.0661 53.8333 81.7482 53.8333 81.4167C53.8333 81.0851 53.965 80.7672 54.1994 80.5328C54.4339 80.2984 54.7518 80.1667 55.0833 80.1667ZM55.0833 62.6667C55.4149 62.6667 55.7328 62.7984 55.9672 63.0328C56.2016 63.2672 56.3333 63.5851 56.3333 63.9167C56.3333 64.2482 56.2016 64.5661 55.9672 64.8006C55.7328 65.035 55.4149 65.1667 55.0833 65.1667C54.7518 65.1667 54.4339 65.035 54.1994 64.8006C53.965 64.5661 53.8333 64.2482 53.8333 63.9167C53.8333 63.5851 53.965 63.2672 54.1994 63.0328C54.4339 62.7984 54.7518 62.6667 55.0833 62.6667ZM67.5833 65.1667C67.9149 65.1667 68.2328 65.2984 68.4672 65.5328C68.7016 65.7672 68.8333 66.0851 68.8333 66.4167C68.8333 66.7482 68.7016 67.0661 68.4672 67.3005C68.2328 67.535 67.9149 67.6667 67.5833 67.6667C67.2518 67.6667 66.9339 67.535 66.6994 67.3005C66.465 67.0661 66.3333 66.7482 66.3333 66.4167C66.3333 66.0851 66.465 65.7672 66.6994 65.5328C66.9339 65.2984 67.2518 65.1667 67.5833 65.1667Z" fill="#1D2535"/>
<path d="M51.3333 111H71.3333C72.2174 111 73.0652 111.351 73.6904 111.976C74.3155 112.601 74.6667 113.449 74.6667 114.333V141C74.6667 141.884 74.3155 142.732 73.6904 143.357C73.0652 143.982 72.2174 144.333 71.3333 144.333H51.3333C50.4493 144.333 49.6014 143.982 48.9763 143.357C48.3512 142.732 48 141.884 48 141V114.333C48 113.449 48.3512 112.601 48.9763 111.976C49.6014 111.351 50.4493 111 51.3333 111ZM62.5833 130.167C67.1667 130.167 68.4 126.783 68.7167 125C70.2333 124.517 71.3333 123.1 71.3333 121.417C71.3333 119.333 69.6667 117.667 67.5833 117.667C65.5 117.667 63.8333 119.333 63.8333 121.417C63.8333 122.983 64.7833 124.333 66.15 124.883C65.7833 126 64.6667 127.667 61.3333 127.667C59.0333 127.667 57.4333 128.25 56.3333 129.067V122.45C57.7833 121.933 58.8333 120.55 58.8333 118.917C58.8333 116.833 57.1667 115.167 55.0833 115.167C53 115.167 51.3333 116.833 51.3333 118.917C51.3333 120.55 52.3833 121.933 53.8333 122.45V132.883C52.3833 133.4 51.3333 134.783 51.3333 136.417C51.3333 138.5 53 140.167 55.0833 140.167C57.1667 140.167 58.8333 138.5 58.8333 136.417C58.8333 134.867 57.9 133.5 56.55 132.967C57.0167 131.833 58.3833 130.167 62.5833 130.167ZM55.0833 135.167C55.4149 135.167 55.7328 135.298 55.9672 135.533C56.2016 135.767 56.3333 136.085 56.3333 136.417C56.3333 136.748 56.2016 137.066 55.9672 137.301C55.7328 137.535 55.4149 137.667 55.0833 137.667C54.7518 137.667 54.4339 137.535 54.1994 137.301C53.965 137.066 53.8333 136.748 53.8333 136.417C53.8333 136.085 53.965 135.767 54.1994 135.533C54.4339 135.298 54.7518 135.167 55.0833 135.167ZM55.0833 117.667C55.4149 117.667 55.7328 117.798 55.9672 118.033C56.2016 118.267 56.3333 118.585 56.3333 118.917C56.3333 119.248 56.2016 119.566 55.9672 119.801C55.7328 120.035 55.4149 120.167 55.0833 120.167C54.7518 120.167 54.4339 120.035 54.1994 119.801C53.965 119.566 53.8333 119.248 53.8333 118.917C53.8333 118.585 53.965 118.267 54.1994 118.033C54.4339 117.798 54.7518 117.667 55.0833 117.667ZM67.5833 120.167C67.9149 120.167 68.2328 120.298 68.4672 120.533C68.7016 120.767 68.8333 121.085 68.8333 121.417C68.8333 121.748 68.7016 122.066 68.4672 122.301C68.2328 122.535 67.9149 122.667 67.5833 122.667C67.2518 122.667 66.9339 122.535 66.6994 122.301C66.465 122.066 66.3333 121.748 66.3333 121.417C66.3333 121.085 66.465 120.767 66.6994 120.533C66.9339 120.298 67.2518 120.167 67.5833 120.167Z" fill="#1D2535"/>
<path d="M51.3333 166H71.3333C72.2174 166 73.0652 166.351 73.6904 166.976C74.3155 167.601 74.6667 168.449 74.6667 169.333V196C74.6667 196.884 74.3155 197.732 73.6904 198.357C73.0652 198.982 72.2174 199.333 71.3333 199.333H51.3333C50.4493 199.333 49.6014 198.982 48.9763 198.357C48.3512 197.732 48 196.884 48 196V169.333C48 168.449 48.3512 167.601 48.9763 166.976C49.6014 166.351 50.4493 166 51.3333 166ZM62.5833 185.167C67.1667 185.167 68.4 181.783 68.7167 180C70.2333 179.517 71.3333 178.1 71.3333 176.417C71.3333 174.333 69.6667 172.667 67.5833 172.667C65.5 172.667 63.8333 174.333 63.8333 176.417C63.8333 177.983 64.7833 179.333 66.15 179.883C65.7833 181 64.6667 182.667 61.3333 182.667C59.0333 182.667 57.4333 183.25 56.3333 184.067V177.45C57.7833 176.933 58.8333 175.55 58.8333 173.917C58.8333 171.833 57.1667 170.167 55.0833 170.167C53 170.167 51.3333 171.833 51.3333 173.917C51.3333 175.55 52.3833 176.933 53.8333 177.45V187.883C52.3833 188.4 51.3333 189.783 51.3333 191.417C51.3333 193.5 53 195.167 55.0833 195.167C57.1667 195.167 58.8333 193.5 58.8333 191.417C58.8333 189.867 57.9 188.5 56.55 187.967C57.0167 186.833 58.3833 185.167 62.5833 185.167ZM55.0833 190.167C55.4149 190.167 55.7328 190.298 55.9672 190.533C56.2016 190.767 56.3333 191.085 56.3333 191.417C56.3333 191.748 56.2016 192.066 55.9672 192.301C55.7328 192.535 55.4149 192.667 55.0833 192.667C54.7518 192.667 54.4339 192.535 54.1994 192.301C53.965 192.066 53.8333 191.748 53.8333 191.417C53.8333 191.085 53.965 190.767 54.1994 190.533C54.4339 190.298 54.7518 190.167 55.0833 190.167ZM55.0833 172.667C55.4149 172.667 55.7328 172.798 55.9672 173.033C56.2016 173.267 56.3333 173.585 56.3333 173.917C56.3333 174.248 56.2016 174.566 55.9672 174.801C55.7328 175.035 55.4149 175.167 55.0833 175.167C54.7518 175.167 54.4339 175.035 54.1994 174.801C53.965 174.566 53.8333 174.248 53.8333 173.917C53.8333 173.585 53.965 173.267 54.1994 173.033C54.4339 172.798 54.7518 172.667 55.0833 172.667ZM67.5833 175.167C67.9149 175.167 68.2328 175.298 68.4672 175.533C68.7016 175.767 68.8333 176.085 68.8333 176.417C68.8333 176.748 68.7016 177.066 68.4672 177.301C68.2328 177.535 67.9149 177.667 67.5833 177.667C67.2518 177.667 66.9339 177.535 66.6994 177.301C66.465 177.066 66.3333 176.748 66.3333 176.417C66.3333 176.085 66.465 175.767 66.6994 175.533C66.9339 175.298 67.2518 175.167 67.5833 175.167Z" fill="#1D2535"/>
<path d="M51.3333 222H71.3333C72.2174 222 73.0652 222.351 73.6904 222.976C74.3155 223.601 74.6667 224.449 74.6667 225.333V252C74.6667 252.884 74.3155 253.732 73.6904 254.357C73.0652 254.982 72.2174 255.333 71.3333 255.333H51.3333C50.4493 255.333 49.6014 254.982 48.9763 254.357C48.3512 253.732 48 252.884 48 252V225.333C48 224.449 48.3512 223.601 48.9763 222.976C49.6014 222.351 50.4493 222 51.3333 222ZM62.5833 241.167C67.1667 241.167 68.4 237.783 68.7167 236C70.2333 235.517 71.3333 234.1 71.3333 232.417C71.3333 230.333 69.6667 228.667 67.5833 228.667C65.5 228.667 63.8333 230.333 63.8333 232.417C63.8333 233.983 64.7833 235.333 66.15 235.883C65.7833 237 64.6667 238.667 61.3333 238.667C59.0333 238.667 57.4333 239.25 56.3333 240.067V233.45C57.7833 232.933 58.8333 231.55 58.8333 229.917C58.8333 227.833 57.1667 226.167 55.0833 226.167C53 226.167 51.3333 227.833 51.3333 229.917C51.3333 231.55 52.3833 232.933 53.8333 233.45V243.883C52.3833 244.4 51.3333 245.783 51.3333 247.417C51.3333 249.5 53 251.167 55.0833 251.167C57.1667 251.167 58.8333 249.5 58.8333 247.417C58.8333 245.867 57.9 244.5 56.55 243.967C57.0167 242.833 58.3833 241.167 62.5833 241.167ZM55.0833 246.167C55.4149 246.167 55.7328 246.298 55.9672 246.533C56.2016 246.767 56.3333 247.085 56.3333 247.417C56.3333 247.748 56.2016 248.066 55.9672 248.301C55.7328 248.535 55.4149 248.667 55.0833 248.667C54.7518 248.667 54.4339 248.535 54.1994 248.301C53.965 248.066 53.8333 247.748 53.8333 247.417C53.8333 247.085 53.965 246.767 54.1994 246.533C54.4339 246.298 54.7518 246.167 55.0833 246.167ZM55.0833 228.667C55.4149 228.667 55.7328 228.798 55.9672 229.033C56.2016 229.267 56.3333 229.585 56.3333 229.917C56.3333 230.248 56.2016 230.566 55.9672 230.801C55.7328 231.035 55.4149 231.167 55.0833 231.167C54.7518 231.167 54.4339 231.035 54.1994 230.801C53.965 230.566 53.8333 230.248 53.8333 229.917C53.8333 229.585 53.965 229.267 54.1994 229.033C54.4339 228.798 54.7518 228.667 55.0833 228.667ZM67.5833 231.167C67.9149 231.167 68.2328 231.298 68.4672 231.533C68.7016 231.767 68.8333 232.085 68.8333 232.417C68.8333 232.748 68.7016 233.066 68.4672 233.301C68.2328 233.535 67.9149 233.667 67.5833 233.667C67.2518 233.667 66.9339 233.535 66.6994 233.301C66.465 233.066 66.3333 232.748 66.3333 232.417C66.3333 232.085 66.465 231.767 66.6994 231.533C66.9339 231.298 67.2518 231.167 67.5833 231.167Z" fill="#1D2535"/>
<path d="M86.3333 0H106.333C107.217 0 108.065 0.351189 108.69 0.976311C109.315 1.60143 109.667 2.44928 109.667 3.33333V30C109.667 30.8841 109.315 31.7319 108.69 32.357C108.065 32.9821 107.217 33.3333 106.333 33.3333H86.3333C85.4493 33.3333 84.6014 32.9821 83.9763 32.357C83.3512 31.7319 83 30.8841 83 30V3.33333C83 2.44928 83.3512 1.60143 83.9763 0.976311C84.6014 0.351189 85.4493 0 86.3333 0ZM97.5833 19.1667C102.167 19.1667 103.4 15.7833 103.717 14C105.233 13.5167 106.333 12.1 106.333 10.4167C106.333 8.33333 104.667 6.66667 102.583 6.66667C100.5 6.66667 98.8333 8.33333 98.8333 10.4167C98.8333 11.9833 99.7833 13.3333 101.15 13.8833C100.783 15 99.6667 16.6667 96.3333 16.6667C94.0333 16.6667 92.4333 17.25 91.3333 18.0667V11.45C92.7833 10.9333 93.8333 9.55 93.8333 7.91667C93.8333 5.83333 92.1667 4.16667 90.0833 4.16667C88 4.16667 86.3333 5.83333 86.3333 7.91667C86.3333 9.55 87.3833 10.9333 88.8333 11.45V21.8833C87.3833 22.4 86.3333 23.7833 86.3333 25.4167C86.3333 27.5 88 29.1667 90.0833 29.1667C92.1667 29.1667 93.8333 27.5 93.8333 25.4167C93.8333 23.8667 92.9 22.5 91.55 21.9667C92.0167 20.8333 93.3833 19.1667 97.5833 19.1667ZM90.0833 24.1667C90.4149 24.1667 90.7328 24.2984 90.9672 24.5328C91.2016 24.7672 91.3333 25.0851 91.3333 25.4167C91.3333 25.7482 91.2016 26.0661 90.9672 26.3006C90.7328 26.535 90.4149 26.6667 90.0833 26.6667C89.7518 26.6667 89.4339 26.535 89.1994 26.3006C88.965 26.0661 88.8333 25.7482 88.8333 25.4167C88.8333 25.0851 88.965 24.7672 89.1994 24.5328C89.4339 24.2984 89.7518 24.1667 90.0833 24.1667ZM90.0833 6.66667C90.4149 6.66667 90.7328 6.79836 90.9672 7.03278C91.2016 7.2672 91.3333 7.58515 91.3333 7.91667C91.3333 8.24819 91.2016 8.56613 90.9672 8.80055C90.7328 9.03497 90.4149 9.16667 90.0833 9.16667C89.7518 9.16667 89.4339 9.03497 89.1994 8.80055C88.965 8.56613 88.8333 8.24819 88.8333 7.91667C88.8333 7.58515 88.965 7.2672 89.1994 7.03278C89.4339 6.79836 89.7518 6.66667 90.0833 6.66667ZM102.583 9.16667C102.915 9.16667 103.233 9.29836 103.467 9.53278C103.702 9.7672 103.833 10.0851 103.833 10.4167C103.833 10.7482 103.702 11.0661 103.467 11.3005C103.233 11.535 102.915 11.6667 102.583 11.6667C102.252 11.6667 101.934 11.535 101.699 11.3005C101.465 11.0661 101.333 10.7482 101.333 10.4167C101.333 10.0851 101.465 9.7672 101.699 9.53278C101.934 9.29836 102.252 9.16667 102.583 9.16667Z" fill="#1D2535"/>
<path d="M86.3333 56H106.333C107.217 56 108.065 56.3512 108.69 56.9763C109.315 57.6014 109.667 58.4493 109.667 59.3333V86C109.667 86.8841 109.315 87.7319 108.69 88.357C108.065 88.9821 107.217 89.3333 106.333 89.3333H86.3333C85.4493 89.3333 84.6014 88.9821 83.9763 88.357C83.3512 87.7319 83 86.8841 83 86V59.3333C83 58.4493 83.3512 57.6014 83.9763 56.9763C84.6014 56.3512 85.4493 56 86.3333 56ZM97.5833 75.1667C102.167 75.1667 103.4 71.7833 103.717 70C105.233 69.5167 106.333 68.1 106.333 66.4167C106.333 64.3333 104.667 62.6667 102.583 62.6667C100.5 62.6667 98.8333 64.3333 98.8333 66.4167C98.8333 67.9833 99.7833 69.3333 101.15 69.8833C100.783 71 99.6667 72.6667 96.3333 72.6667C94.0333 72.6667 92.4333 73.25 91.3333 74.0667V67.45C92.7833 66.9333 93.8333 65.55 93.8333 63.9167C93.8333 61.8333 92.1667 60.1667 90.0833 60.1667C88 60.1667 86.3333 61.8333 86.3333 63.9167C86.3333 65.55 87.3833 66.9333 88.8333 67.45V77.8833C87.3833 78.4 86.3333 79.7833 86.3333 81.4167C86.3333 83.5 88 85.1667 90.0833 85.1667C92.1667 85.1667 93.8333 83.5 93.8333 81.4167C93.8333 79.8667 92.9 78.5 91.55 77.9667C92.0167 76.8333 93.3833 75.1667 97.5833 75.1667ZM90.0833 80.1667C90.4149 80.1667 90.7328 80.2984 90.9672 80.5328C91.2016 80.7672 91.3333 81.0851 91.3333 81.4167C91.3333 81.7482 91.2016 82.0661 90.9672 82.3006C90.7328 82.535 90.4149 82.6667 90.0833 82.6667C89.7518 82.6667 89.4339 82.535 89.1994 82.3006C88.965 82.0661 88.8333 81.7482 88.8333 81.4167C88.8333 81.0851 88.965 80.7672 89.1994 80.5328C89.4339 80.2984 89.7518 80.1667 90.0833 80.1667ZM90.0833 62.6667C90.4149 62.6667 90.7328 62.7984 90.9672 63.0328C91.2016 63.2672 91.3333 63.5851 91.3333 63.9167C91.3333 64.2482 91.2016 64.5661 90.9672 64.8006C90.7328 65.035 90.4149 65.1667 90.0833 65.1667C89.7518 65.1667 89.4339 65.035 89.1994 64.8006C88.965 64.5661 88.8333 64.2482 88.8333 63.9167C88.8333 63.5851 88.965 63.2672 89.1994 63.0328C89.4339 62.7984 89.7518 62.6667 90.0833 62.6667ZM102.583 65.1667C102.915 65.1667 103.233 65.2984 103.467 65.5328C103.702 65.7672 103.833 66.0851 103.833 66.4167C103.833 66.7482 103.702 67.0661 103.467 67.3005C103.233 67.535 102.915 67.6667 102.583 67.6667C102.252 67.6667 101.934 67.535 101.699 67.3005C101.465 67.0661 101.333 66.7482 101.333 66.4167C101.333 66.0851 101.465 65.7672 101.699 65.5328C101.934 65.2984 102.252 65.1667 102.583 65.1667Z" fill="#1D2535"/>
<path d="M86.3333 111H106.333C107.217 111 108.065 111.351 108.69 111.976C109.315 112.601 109.667 113.449 109.667 114.333V141C109.667 141.884 109.315 142.732 108.69 143.357C108.065 143.982 107.217 144.333 106.333 144.333H86.3333C85.4493 144.333 84.6014 143.982 83.9763 143.357C83.3512 142.732 83 141.884 83 141V114.333C83 113.449 83.3512 112.601 83.9763 111.976C84.6014 111.351 85.4493 111 86.3333 111ZM97.5833 130.167C102.167 130.167 103.4 126.783 103.717 125C105.233 124.517 106.333 123.1 106.333 121.417C106.333 119.333 104.667 117.667 102.583 117.667C100.5 117.667 98.8333 119.333 98.8333 121.417C98.8333 122.983 99.7833 124.333 101.15 124.883C100.783 126 99.6667 127.667 96.3333 127.667C94.0333 127.667 92.4333 128.25 91.3333 129.067V122.45C92.7833 121.933 93.8333 120.55 93.8333 118.917C93.8333 116.833 92.1667 115.167 90.0833 115.167C88 115.167 86.3333 116.833 86.3333 118.917C86.3333 120.55 87.3833 121.933 88.8333 122.45V132.883C87.3833 133.4 86.3333 134.783 86.3333 136.417C86.3333 138.5 88 140.167 90.0833 140.167C92.1667 140.167 93.8333 138.5 93.8333 136.417C93.8333 134.867 92.9 133.5 91.55 132.967C92.0167 131.833 93.3833 130.167 97.5833 130.167ZM90.0833 135.167C90.4149 135.167 90.7328 135.298 90.9672 135.533C91.2016 135.767 91.3333 136.085 91.3333 136.417C91.3333 136.748 91.2016 137.066 90.9672 137.301C90.7328 137.535 90.4149 137.667 90.0833 137.667C89.7518 137.667 89.4339 137.535 89.1994 137.301C88.965 137.066 88.8333 136.748 88.8333 136.417C88.8333 136.085 88.965 135.767 89.1994 135.533C89.4339 135.298 89.7518 135.167 90.0833 135.167ZM90.0833 117.667C90.4149 117.667 90.7328 117.798 90.9672 118.033C91.2016 118.267 91.3333 118.585 91.3333 118.917C91.3333 119.248 91.2016 119.566 90.9672 119.801C90.7328 120.035 90.4149 120.167 90.0833 120.167C89.7518 120.167 89.4339 120.035 89.1994 119.801C88.965 119.566 88.8333 119.248 88.8333 118.917C88.8333 118.585 88.965 118.267 89.1994 118.033C89.4339 117.798 89.7518 117.667 90.0833 117.667ZM102.583 120.167C102.915 120.167 103.233 120.298 103.467 120.533C103.702 120.767 103.833 121.085 103.833 121.417C103.833 121.748 103.702 122.066 103.467 122.301C103.233 122.535 102.915 122.667 102.583 122.667C102.252 122.667 101.934 122.535 101.699 122.301C101.465 122.066 101.333 121.748 101.333 121.417C101.333 121.085 101.465 120.767 101.699 120.533C101.934 120.298 102.252 120.167 102.583 120.167Z" fill="#1D2535"/>
<path d="M86.3333 166H106.333C107.217 166 108.065 166.351 108.69 166.976C109.315 167.601 109.667 168.449 109.667 169.333V196C109.667 196.884 109.315 197.732 108.69 198.357C108.065 198.982 107.217 199.333 106.333 199.333H86.3333C85.4493 199.333 84.6014 198.982 83.9763 198.357C83.3512 197.732 83 196.884 83 196V169.333C83 168.449 83.3512 167.601 83.9763 166.976C84.6014 166.351 85.4493 166 86.3333 166ZM97.5833 185.167C102.167 185.167 103.4 181.783 103.717 180C105.233 179.517 106.333 178.1 106.333 176.417C106.333 174.333 104.667 172.667 102.583 172.667C100.5 172.667 98.8333 174.333 98.8333 176.417C98.8333 177.983 99.7833 179.333 101.15 179.883C100.783 181 99.6667 182.667 96.3333 182.667C94.0333 182.667 92.4333 183.25 91.3333 184.067V177.45C92.7833 176.933 93.8333 175.55 93.8333 173.917C93.8333 171.833 92.1667 170.167 90.0833 170.167C88 170.167 86.3333 171.833 86.3333 173.917C86.3333 175.55 87.3833 176.933 88.8333 177.45V187.883C87.3833 188.4 86.3333 189.783 86.3333 191.417C86.3333 193.5 88 195.167 90.0833 195.167C92.1667 195.167 93.8333 193.5 93.8333 191.417C93.8333 189.867 92.9 188.5 91.55 187.967C92.0167 186.833 93.3833 185.167 97.5833 185.167ZM90.0833 190.167C90.4149 190.167 90.7328 190.298 90.9672 190.533C91.2016 190.767 91.3333 191.085 91.3333 191.417C91.3333 191.748 91.2016 192.066 90.9672 192.301C90.7328 192.535 90.4149 192.667 90.0833 192.667C89.7518 192.667 89.4339 192.535 89.1994 192.301C88.965 192.066 88.8333 191.748 88.8333 191.417C88.8333 191.085 88.965 190.767 89.1994 190.533C89.4339 190.298 89.7518 190.167 90.0833 190.167ZM90.0833 172.667C90.4149 172.667 90.7328 172.798 90.9672 173.033C91.2016 173.267 91.3333 173.585 91.3333 173.917C91.3333 174.248 91.2016 174.566 90.9672 174.801C90.7328 175.035 90.4149 175.167 90.0833 175.167C89.7518 175.167 89.4339 175.035 89.1994 174.801C88.965 174.566 88.8333 174.248 88.8333 173.917C88.8333 173.585 88.965 173.267 89.1994 173.033C89.4339 172.798 89.7518 172.667 90.0833 172.667ZM102.583 175.167C102.915 175.167 103.233 175.298 103.467 175.533C103.702 175.767 103.833 176.085 103.833 176.417C103.833 176.748 103.702 177.066 103.467 177.301C103.233 177.535 102.915 177.667 102.583 177.667C102.252 177.667 101.934 177.535 101.699 177.301C101.465 177.066 101.333 176.748 101.333 176.417C101.333 176.085 101.465 175.767 101.699 175.533C101.934 175.298 102.252 175.167 102.583 175.167Z" fill="#1D2535"/>
<path d="M86.3333 222H106.333C107.217 222 108.065 222.351 108.69 222.976C109.315 223.601 109.667 224.449 109.667 225.333V252C109.667 252.884 109.315 253.732 108.69 254.357C108.065 254.982 107.217 255.333 106.333 255.333H86.3333C85.4493 255.333 84.6014 254.982 83.9763 254.357C83.3512 253.732 83 252.884 83 252V225.333C83 224.449 83.3512 223.601 83.9763 222.976C84.6014 222.351 85.4493 222 86.3333 222ZM97.5833 241.167C102.167 241.167 103.4 237.783 103.717 236C105.233 235.517 106.333 234.1 106.333 232.417C106.333 230.333 104.667 228.667 102.583 228.667C100.5 228.667 98.8333 230.333 98.8333 232.417C98.8333 233.983 99.7833 235.333 101.15 235.883C100.783 237 99.6667 238.667 96.3333 238.667C94.0333 238.667 92.4333 239.25 91.3333 240.067V233.45C92.7833 232.933 93.8333 231.55 93.8333 229.917C93.8333 227.833 92.1667 226.167 90.0833 226.167C88 226.167 86.3333 227.833 86.3333 229.917C86.3333 231.55 87.3833 232.933 88.8333 233.45V243.883C87.3833 244.4 86.3333 245.783 86.3333 247.417C86.3333 249.5 88 251.167 90.0833 251.167C92.1667 251.167 93.8333 249.5 93.8333 247.417C93.8333 245.867 92.9 244.5 91.55 243.967C92.0167 242.833 93.3833 241.167 97.5833 241.167ZM90.0833 246.167C90.4149 246.167 90.7328 246.298 90.9672 246.533C91.2016 246.767 91.3333 247.085 91.3333 247.417C91.3333 247.748 91.2016 248.066 90.9672 248.301C90.7328 248.535 90.4149 248.667 90.0833 248.667C89.7518 248.667 89.4339 248.535 89.1994 248.301C88.965 248.066 88.8333 247.748 88.8333 247.417C88.8333 247.085 88.965 246.767 89.1994 246.533C89.4339 246.298 89.7518 246.167 90.0833 246.167ZM90.0833 228.667C90.4149 228.667 90.7328 228.798 90.9672 229.033C91.2016 229.267 91.3333 229.585 91.3333 229.917C91.3333 230.248 91.2016 230.566 90.9672 230.801C90.7328 231.035 90.4149 231.167 90.0833 231.167C89.7518 231.167 89.4339 231.035 89.1994 230.801C88.965 230.566 88.8333 230.248 88.8333 229.917C88.8333 229.585 88.965 229.267 89.1994 229.033C89.4339 228.798 89.7518 228.667 90.0833 228.667ZM102.583 231.167C102.915 231.167 103.233 231.298 103.467 231.533C103.702 231.767 103.833 232.085 103.833 232.417C103.833 232.748 103.702 233.066 103.467 233.301C103.233 233.535 102.915 233.667 102.583 233.667C102.252 233.667 101.934 233.535 101.699 233.301C101.465 233.066 101.333 232.748 101.333 232.417C101.333 232.085 101.465 231.767 101.699 231.533C101.934 231.298 102.252 231.167 102.583 231.167Z" fill="#1D2535"/>
<path d="M121.333 0H141.333C142.217 0 143.065 0.351189 143.69 0.976311C144.315 1.60143 144.667 2.44928 144.667 3.33333V30C144.667 30.8841 144.315 31.7319 143.69 32.357C143.065 32.9821 142.217 33.3333 141.333 33.3333H121.333C120.449 33.3333 119.601 32.9821 118.976 32.357C118.351 31.7319 118 30.8841 118 30V3.33333C118 2.44928 118.351 1.60143 118.976 0.976311C119.601 0.351189 120.449 0 121.333 0ZM132.583 19.1667C137.167 19.1667 138.4 15.7833 138.717 14C140.233 13.5167 141.333 12.1 141.333 10.4167C141.333 8.33333 139.667 6.66667 137.583 6.66667C135.5 6.66667 133.833 8.33333 133.833 10.4167C133.833 11.9833 134.783 13.3333 136.15 13.8833C135.783 15 134.667 16.6667 131.333 16.6667C129.033 16.6667 127.433 17.25 126.333 18.0667V11.45C127.783 10.9333 128.833 9.55 128.833 7.91667C128.833 5.83333 127.167 4.16667 125.083 4.16667C123 4.16667 121.333 5.83333 121.333 7.91667C121.333 9.55 122.383 10.9333 123.833 11.45V21.8833C122.383 22.4 121.333 23.7833 121.333 25.4167C121.333 27.5 123 29.1667 125.083 29.1667C127.167 29.1667 128.833 27.5 128.833 25.4167C128.833 23.8667 127.9 22.5 126.55 21.9667C127.017 20.8333 128.383 19.1667 132.583 19.1667ZM125.083 24.1667C125.415 24.1667 125.733 24.2984 125.967 24.5328C126.202 24.7672 126.333 25.0851 126.333 25.4167C126.333 25.7482 126.202 26.0661 125.967 26.3006C125.733 26.535 125.415 26.6667 125.083 26.6667C124.752 26.6667 124.434 26.535 124.199 26.3006C123.965 26.0661 123.833 25.7482 123.833 25.4167C123.833 25.0851 123.965 24.7672 124.199 24.5328C124.434 24.2984 124.752 24.1667 125.083 24.1667ZM125.083 6.66667C125.415 6.66667 125.733 6.79836 125.967 7.03278C126.202 7.2672 126.333 7.58515 126.333 7.91667C126.333 8.24819 126.202 8.56613 125.967 8.80055C125.733 9.03497 125.415 9.16667 125.083 9.16667C124.752 9.16667 124.434 9.03497 124.199 8.80055C123.965 8.56613 123.833 8.24819 123.833 7.91667C123.833 7.58515 123.965 7.2672 124.199 7.03278C124.434 6.79836 124.752 6.66667 125.083 6.66667ZM137.583 9.16667C137.915 9.16667 138.233 9.29836 138.467 9.53278C138.702 9.7672 138.833 10.0851 138.833 10.4167C138.833 10.7482 138.702 11.0661 138.467 11.3005C138.233 11.535 137.915 11.6667 137.583 11.6667C137.252 11.6667 136.934 11.535 136.699 11.3005C136.465 11.0661 136.333 10.7482 136.333 10.4167C136.333 10.0851 136.465 9.7672 136.699 9.53278C136.934 9.29836 137.252 9.16667 137.583 9.16667Z" fill="#1D2535"/>
<path d="M121.333 56H141.333C142.217 56 143.065 56.3512 143.69 56.9763C144.315 57.6014 144.667 58.4493 144.667 59.3333V86C144.667 86.8841 144.315 87.7319 143.69 88.357C143.065 88.9821 142.217 89.3333 141.333 89.3333H121.333C120.449 89.3333 119.601 88.9821 118.976 88.357C118.351 87.7319 118 86.8841 118 86V59.3333C118 58.4493 118.351 57.6014 118.976 56.9763C119.601 56.3512 120.449 56 121.333 56ZM132.583 75.1667C137.167 75.1667 138.4 71.7833 138.717 70C140.233 69.5167 141.333 68.1 141.333 66.4167C141.333 64.3333 139.667 62.6667 137.583 62.6667C135.5 62.6667 133.833 64.3333 133.833 66.4167C133.833 67.9833 134.783 69.3333 136.15 69.8833C135.783 71 134.667 72.6667 131.333 72.6667C129.033 72.6667 127.433 73.25 126.333 74.0667V67.45C127.783 66.9333 128.833 65.55 128.833 63.9167C128.833 61.8333 127.167 60.1667 125.083 60.1667C123 60.1667 121.333 61.8333 121.333 63.9167C121.333 65.55 122.383 66.9333 123.833 67.45V77.8833C122.383 78.4 121.333 79.7833 121.333 81.4167C121.333 83.5 123 85.1667 125.083 85.1667C127.167 85.1667 128.833 83.5 128.833 81.4167C128.833 79.8667 127.9 78.5 126.55 77.9667C127.017 76.8333 128.383 75.1667 132.583 75.1667ZM125.083 80.1667C125.415 80.1667 125.733 80.2984 125.967 80.5328C126.202 80.7672 126.333 81.0851 126.333 81.4167C126.333 81.7482 126.202 82.0661 125.967 82.3006C125.733 82.535 125.415 82.6667 125.083 82.6667C124.752 82.6667 124.434 82.535 124.199 82.3006C123.965 82.0661 123.833 81.7482 123.833 81.4167C123.833 81.0851 123.965 80.7672 124.199 80.5328C124.434 80.2984 124.752 80.1667 125.083 80.1667ZM125.083 62.6667C125.415 62.6667 125.733 62.7984 125.967 63.0328C126.202 63.2672 126.333 63.5851 126.333 63.9167C126.333 64.2482 126.202 64.5661 125.967 64.8006C125.733 65.035 125.415 65.1667 125.083 65.1667C124.752 65.1667 124.434 65.035 124.199 64.8006C123.965 64.5661 123.833 64.2482 123.833 63.9167C123.833 63.5851 123.965 63.2672 124.199 63.0328C124.434 62.7984 124.752 62.6667 125.083 62.6667ZM137.583 65.1667C137.915 65.1667 138.233 65.2984 138.467 65.5328C138.702 65.7672 138.833 66.0851 138.833 66.4167C138.833 66.7482 138.702 67.0661 138.467 67.3005C138.233 67.535 137.915 67.6667 137.583 67.6667C137.252 67.6667 136.934 67.535 136.699 67.3005C136.465 67.0661 136.333 66.7482 136.333 66.4167C136.333 66.0851 136.465 65.7672 136.699 65.5328C136.934 65.2984 137.252 65.1667 137.583 65.1667Z" fill="#1D2535"/>
<path d="M121.333 111H141.333C142.217 111 143.065 111.351 143.69 111.976C144.315 112.601 144.667 113.449 144.667 114.333V141C144.667 141.884 144.315 142.732 143.69 143.357C143.065 143.982 142.217 144.333 141.333 144.333H121.333C120.449 144.333 119.601 143.982 118.976 143.357C118.351 142.732 118 141.884 118 141V114.333C118 113.449 118.351 112.601 118.976 111.976C119.601 111.351 120.449 111 121.333 111ZM132.583 130.167C137.167 130.167 138.4 126.783 138.717 125C140.233 124.517 141.333 123.1 141.333 121.417C141.333 119.333 139.667 117.667 137.583 117.667C135.5 117.667 133.833 119.333 133.833 121.417C133.833 122.983 134.783 124.333 136.15 124.883C135.783 126 134.667 127.667 131.333 127.667C129.033 127.667 127.433 128.25 126.333 129.067V122.45C127.783 121.933 128.833 120.55 128.833 118.917C128.833 116.833 127.167 115.167 125.083 115.167C123 115.167 121.333 116.833 121.333 118.917C121.333 120.55 122.383 121.933 123.833 122.45V132.883C122.383 133.4 121.333 134.783 121.333 136.417C121.333 138.5 123 140.167 125.083 140.167C127.167 140.167 128.833 138.5 128.833 136.417C128.833 134.867 127.9 133.5 126.55 132.967C127.017 131.833 128.383 130.167 132.583 130.167ZM125.083 135.167C125.415 135.167 125.733 135.298 125.967 135.533C126.202 135.767 126.333 136.085 126.333 136.417C126.333 136.748 126.202 137.066 125.967 137.301C125.733 137.535 125.415 137.667 125.083 137.667C124.752 137.667 124.434 137.535 124.199 137.301C123.965 137.066 123.833 136.748 123.833 136.417C123.833 136.085 123.965 135.767 124.199 135.533C124.434 135.298 124.752 135.167 125.083 135.167ZM125.083 117.667C125.415 117.667 125.733 117.798 125.967 118.033C126.202 118.267 126.333 118.585 126.333 118.917C126.333 119.248 126.202 119.566 125.967 119.801C125.733 120.035 125.415 120.167 125.083 120.167C124.752 120.167 124.434 120.035 124.199 119.801C123.965 119.566 123.833 119.248 123.833 118.917C123.833 118.585 123.965 118.267 124.199 118.033C124.434 117.798 124.752 117.667 125.083 117.667ZM137.583 120.167C137.915 120.167 138.233 120.298 138.467 120.533C138.702 120.767 138.833 121.085 138.833 121.417C138.833 121.748 138.702 122.066 138.467 122.301C138.233 122.535 137.915 122.667 137.583 122.667C137.252 122.667 136.934 122.535 136.699 122.301C136.465 122.066 136.333 121.748 136.333 121.417C136.333 121.085 136.465 120.767 136.699 120.533C136.934 120.298 137.252 120.167 137.583 120.167Z" fill="#1D2535"/>
<path d="M121.333 166H141.333C142.217 166 143.065 166.351 143.69 166.976C144.315 167.601 144.667 168.449 144.667 169.333V196C144.667 196.884 144.315 197.732 143.69 198.357C143.065 198.982 142.217 199.333 141.333 199.333H121.333C120.449 199.333 119.601 198.982 118.976 198.357C118.351 197.732 118 196.884 118 196V169.333C118 168.449 118.351 167.601 118.976 166.976C119.601 166.351 120.449 166 121.333 166ZM132.583 185.167C137.167 185.167 138.4 181.783 138.717 180C140.233 179.517 141.333 178.1 141.333 176.417C141.333 174.333 139.667 172.667 137.583 172.667C135.5 172.667 133.833 174.333 133.833 176.417C133.833 177.983 134.783 179.333 136.15 179.883C135.783 181 134.667 182.667 131.333 182.667C129.033 182.667 127.433 183.25 126.333 184.067V177.45C127.783 176.933 128.833 175.55 128.833 173.917C128.833 171.833 127.167 170.167 125.083 170.167C123 170.167 121.333 171.833 121.333 173.917C121.333 175.55 122.383 176.933 123.833 177.45V187.883C122.383 188.4 121.333 189.783 121.333 191.417C121.333 193.5 123 195.167 125.083 195.167C127.167 195.167 128.833 193.5 128.833 191.417C128.833 189.867 127.9 188.5 126.55 187.967C127.017 186.833 128.383 185.167 132.583 185.167ZM125.083 190.167C125.415 190.167 125.733 190.298 125.967 190.533C126.202 190.767 126.333 191.085 126.333 191.417C126.333 191.748 126.202 192.066 125.967 192.301C125.733 192.535 125.415 192.667 125.083 192.667C124.752 192.667 124.434 192.535 124.199 192.301C123.965 192.066 123.833 191.748 123.833 191.417C123.833 191.085 123.965 190.767 124.199 190.533C124.434 190.298 124.752 190.167 125.083 190.167ZM125.083 172.667C125.415 172.667 125.733 172.798 125.967 173.033C126.202 173.267 126.333 173.585 126.333 173.917C126.333 174.248 126.202 174.566 125.967 174.801C125.733 175.035 125.415 175.167 125.083 175.167C124.752 175.167 124.434 175.035 124.199 174.801C123.965 174.566 123.833 174.248 123.833 173.917C123.833 173.585 123.965 173.267 124.199 173.033C124.434 172.798 124.752 172.667 125.083 172.667ZM137.583 175.167C137.915 175.167 138.233 175.298 138.467 175.533C138.702 175.767 138.833 176.085 138.833 176.417C138.833 176.748 138.702 177.066 138.467 177.301C138.233 177.535 137.915 177.667 137.583 177.667C137.252 177.667 136.934 177.535 136.699 177.301C136.465 177.066 136.333 176.748 136.333 176.417C136.333 176.085 136.465 175.767 136.699 175.533C136.934 175.298 137.252 175.167 137.583 175.167Z" fill="#1D2535"/>
<path d="M121.333 222H141.333C142.217 222 143.065 222.351 143.69 222.976C144.315 223.601 144.667 224.449 144.667 225.333V252C144.667 252.884 144.315 253.732 143.69 254.357C143.065 254.982 142.217 255.333 141.333 255.333H121.333C120.449 255.333 119.601 254.982 118.976 254.357C118.351 253.732 118 252.884 118 252V225.333C118 224.449 118.351 223.601 118.976 222.976C119.601 222.351 120.449 222 121.333 222ZM132.583 241.167C137.167 241.167 138.4 237.783 138.717 236C140.233 235.517 141.333 234.1 141.333 232.417C141.333 230.333 139.667 228.667 137.583 228.667C135.5 228.667 133.833 230.333 133.833 232.417C133.833 233.983 134.783 235.333 136.15 235.883C135.783 237 134.667 238.667 131.333 238.667C129.033 238.667 127.433 239.25 126.333 240.067V233.45C127.783 232.933 128.833 231.55 128.833 229.917C128.833 227.833 127.167 226.167 125.083 226.167C123 226.167 121.333 227.833 121.333 229.917C121.333 231.55 122.383 232.933 123.833 233.45V243.883C122.383 244.4 121.333 245.783 121.333 247.417C121.333 249.5 123 251.167 125.083 251.167C127.167 251.167 128.833 249.5 128.833 247.417C128.833 245.867 127.9 244.5 126.55 243.967C127.017 242.833 128.383 241.167 132.583 241.167ZM125.083 246.167C125.415 246.167 125.733 246.298 125.967 246.533C126.202 246.767 126.333 247.085 126.333 247.417C126.333 247.748 126.202 248.066 125.967 248.301C125.733 248.535 125.415 248.667 125.083 248.667C124.752 248.667 124.434 248.535 124.199 248.301C123.965 248.066 123.833 247.748 123.833 247.417C123.833 247.085 123.965 246.767 124.199 246.533C124.434 246.298 124.752 246.167 125.083 246.167ZM125.083 228.667C125.415 228.667 125.733 228.798 125.967 229.033C126.202 229.267 126.333 229.585 126.333 229.917C126.333 230.248 126.202 230.566 125.967 230.801C125.733 231.035 125.415 231.167 125.083 231.167C124.752 231.167 124.434 231.035 124.199 230.801C123.965 230.566 123.833 230.248 123.833 229.917C123.833 229.585 123.965 229.267 124.199 229.033C124.434 228.798 124.752 228.667 125.083 228.667ZM137.583 231.167C137.915 231.167 138.233 231.298 138.467 231.533C138.702 231.767 138.833 232.085 138.833 232.417C138.833 232.748 138.702 233.066 138.467 233.301C138.233 233.535 137.915 233.667 137.583 233.667C137.252 233.667 136.934 233.535 136.699 233.301C136.465 233.066 136.333 232.748 136.333 232.417C136.333 232.085 136.465 231.767 136.699 231.533C136.934 231.298 137.252 231.167 137.583 231.167Z" fill="#1D2535"/>
<path d="M156.333 0H176.333C177.217 0 178.065 0.351189 178.69 0.976311C179.315 1.60143 179.667 2.44928 179.667 3.33333V30C179.667 30.8841 179.315 31.7319 178.69 32.357C178.065 32.9821 177.217 33.3333 176.333 33.3333H156.333C155.449 33.3333 154.601 32.9821 153.976 32.357C153.351 31.7319 153 30.8841 153 30V3.33333C153 2.44928 153.351 1.60143 153.976 0.976311C154.601 0.351189 155.449 0 156.333 0ZM167.583 19.1667C172.167 19.1667 173.4 15.7833 173.717 14C175.233 13.5167 176.333 12.1 176.333 10.4167C176.333 8.33333 174.667 6.66667 172.583 6.66667C170.5 6.66667 168.833 8.33333 168.833 10.4167C168.833 11.9833 169.783 13.3333 171.15 13.8833C170.783 15 169.667 16.6667 166.333 16.6667C164.033 16.6667 162.433 17.25 161.333 18.0667V11.45C162.783 10.9333 163.833 9.55 163.833 7.91667C163.833 5.83333 162.167 4.16667 160.083 4.16667C158 4.16667 156.333 5.83333 156.333 7.91667C156.333 9.55 157.383 10.9333 158.833 11.45V21.8833C157.383 22.4 156.333 23.7833 156.333 25.4167C156.333 27.5 158 29.1667 160.083 29.1667C162.167 29.1667 163.833 27.5 163.833 25.4167C163.833 23.8667 162.9 22.5 161.55 21.9667C162.017 20.8333 163.383 19.1667 167.583 19.1667ZM160.083 24.1667C160.415 24.1667 160.733 24.2984 160.967 24.5328C161.202 24.7672 161.333 25.0851 161.333 25.4167C161.333 25.7482 161.202 26.0661 160.967 26.3006C160.733 26.535 160.415 26.6667 160.083 26.6667C159.752 26.6667 159.434 26.535 159.199 26.3006C158.965 26.0661 158.833 25.7482 158.833 25.4167C158.833 25.0851 158.965 24.7672 159.199 24.5328C159.434 24.2984 159.752 24.1667 160.083 24.1667ZM160.083 6.66667C160.415 6.66667 160.733 6.79836 160.967 7.03278C161.202 7.2672 161.333 7.58515 161.333 7.91667C161.333 8.24819 161.202 8.56613 160.967 8.80055C160.733 9.03497 160.415 9.16667 160.083 9.16667C159.752 9.16667 159.434 9.03497 159.199 8.80055C158.965 8.56613 158.833 8.24819 158.833 7.91667C158.833 7.58515 158.965 7.2672 159.199 7.03278C159.434 6.79836 159.752 6.66667 160.083 6.66667ZM172.583 9.16667C172.915 9.16667 173.233 9.29836 173.467 9.53278C173.702 9.7672 173.833 10.0851 173.833 10.4167C173.833 10.7482 173.702 11.0661 173.467 11.3005C173.233 11.535 172.915 11.6667 172.583 11.6667C172.252 11.6667 171.934 11.535 171.699 11.3005C171.465 11.0661 171.333 10.7482 171.333 10.4167C171.333 10.0851 171.465 9.7672 171.699 9.53278C171.934 9.29836 172.252 9.16667 172.583 9.16667Z" fill="#1D2535"/>
<path d="M156.333 56H176.333C177.217 56 178.065 56.3512 178.69 56.9763C179.315 57.6014 179.667 58.4493 179.667 59.3333V86C179.667 86.8841 179.315 87.7319 178.69 88.357C178.065 88.9821 177.217 89.3333 176.333 89.3333H156.333C155.449 89.3333 154.601 88.9821 153.976 88.357C153.351 87.7319 153 86.8841 153 86V59.3333C153 58.4493 153.351 57.6014 153.976 56.9763C154.601 56.3512 155.449 56 156.333 56ZM167.583 75.1667C172.167 75.1667 173.4 71.7833 173.717 70C175.233 69.5167 176.333 68.1 176.333 66.4167C176.333 64.3333 174.667 62.6667 172.583 62.6667C170.5 62.6667 168.833 64.3333 168.833 66.4167C168.833 67.9833 169.783 69.3333 171.15 69.8833C170.783 71 169.667 72.6667 166.333 72.6667C164.033 72.6667 162.433 73.25 161.333 74.0667V67.45C162.783 66.9333 163.833 65.55 163.833 63.9167C163.833 61.8333 162.167 60.1667 160.083 60.1667C158 60.1667 156.333 61.8333 156.333 63.9167C156.333 65.55 157.383 66.9333 158.833 67.45V77.8833C157.383 78.4 156.333 79.7833 156.333 81.4167C156.333 83.5 158 85.1667 160.083 85.1667C162.167 85.1667 163.833 83.5 163.833 81.4167C163.833 79.8667 162.9 78.5 161.55 77.9667C162.017 76.8333 163.383 75.1667 167.583 75.1667ZM160.083 80.1667C160.415 80.1667 160.733 80.2984 160.967 80.5328C161.202 80.7672 161.333 81.0851 161.333 81.4167C161.333 81.7482 161.202 82.0661 160.967 82.3006C160.733 82.535 160.415 82.6667 160.083 82.6667C159.752 82.6667 159.434 82.535 159.199 82.3006C158.965 82.0661 158.833 81.7482 158.833 81.4167C158.833 81.0851 158.965 80.7672 159.199 80.5328C159.434 80.2984 159.752 80.1667 160.083 80.1667ZM160.083 62.6667C160.415 62.6667 160.733 62.7984 160.967 63.0328C161.202 63.2672 161.333 63.5851 161.333 63.9167C161.333 64.2482 161.202 64.5661 160.967 64.8006C160.733 65.035 160.415 65.1667 160.083 65.1667C159.752 65.1667 159.434 65.035 159.199 64.8006C158.965 64.5661 158.833 64.2482 158.833 63.9167C158.833 63.5851 158.965 63.2672 159.199 63.0328C159.434 62.7984 159.752 62.6667 160.083 62.6667ZM172.583 65.1667C172.915 65.1667 173.233 65.2984 173.467 65.5328C173.702 65.7672 173.833 66.0851 173.833 66.4167C173.833 66.7482 173.702 67.0661 173.467 67.3005C173.233 67.535 172.915 67.6667 172.583 67.6667C172.252 67.6667 171.934 67.535 171.699 67.3005C171.465 67.0661 171.333 66.7482 171.333 66.4167C171.333 66.0851 171.465 65.7672 171.699 65.5328C171.934 65.2984 172.252 65.1667 172.583 65.1667Z" fill="#1D2535"/>
<path d="M156.333 111H176.333C177.217 111 178.065 111.351 178.69 111.976C179.315 112.601 179.667 113.449 179.667 114.333V141C179.667 141.884 179.315 142.732 178.69 143.357C178.065 143.982 177.217 144.333 176.333 144.333H156.333C155.449 144.333 154.601 143.982 153.976 143.357C153.351 142.732 153 141.884 153 141V114.333C153 113.449 153.351 112.601 153.976 111.976C154.601 111.351 155.449 111 156.333 111ZM167.583 130.167C172.167 130.167 173.4 126.783 173.717 125C175.233 124.517 176.333 123.1 176.333 121.417C176.333 119.333 174.667 117.667 172.583 117.667C170.5 117.667 168.833 119.333 168.833 121.417C168.833 122.983 169.783 124.333 171.15 124.883C170.783 126 169.667 127.667 166.333 127.667C164.033 127.667 162.433 128.25 161.333 129.067V122.45C162.783 121.933 163.833 120.55 163.833 118.917C163.833 116.833 162.167 115.167 160.083 115.167C158 115.167 156.333 116.833 156.333 118.917C156.333 120.55 157.383 121.933 158.833 122.45V132.883C157.383 133.4 156.333 134.783 156.333 136.417C156.333 138.5 158 140.167 160.083 140.167C162.167 140.167 163.833 138.5 163.833 136.417C163.833 134.867 162.9 133.5 161.55 132.967C162.017 131.833 163.383 130.167 167.583 130.167ZM160.083 135.167C160.415 135.167 160.733 135.298 160.967 135.533C161.202 135.767 161.333 136.085 161.333 136.417C161.333 136.748 161.202 137.066 160.967 137.301C160.733 137.535 160.415 137.667 160.083 137.667C159.752 137.667 159.434 137.535 159.199 137.301C158.965 137.066 158.833 136.748 158.833 136.417C158.833 136.085 158.965 135.767 159.199 135.533C159.434 135.298 159.752 135.167 160.083 135.167ZM160.083 117.667C160.415 117.667 160.733 117.798 160.967 118.033C161.202 118.267 161.333 118.585 161.333 118.917C161.333 119.248 161.202 119.566 160.967 119.801C160.733 120.035 160.415 120.167 160.083 120.167C159.752 120.167 159.434 120.035 159.199 119.801C158.965 119.566 158.833 119.248 158.833 118.917C158.833 118.585 158.965 118.267 159.199 118.033C159.434 117.798 159.752 117.667 160.083 117.667ZM172.583 120.167C172.915 120.167 173.233 120.298 173.467 120.533C173.702 120.767 173.833 121.085 173.833 121.417C173.833 121.748 173.702 122.066 173.467 122.301C173.233 122.535 172.915 122.667 172.583 122.667C172.252 122.667 171.934 122.535 171.699 122.301C171.465 122.066 171.333 121.748 171.333 121.417C171.333 121.085 171.465 120.767 171.699 120.533C171.934 120.298 172.252 120.167 172.583 120.167Z" fill="#1D2535"/>
<path d="M156.333 166H176.333C177.217 166 178.065 166.351 178.69 166.976C179.315 167.601 179.667 168.449 179.667 169.333V196C179.667 196.884 179.315 197.732 178.69 198.357C178.065 198.982 177.217 199.333 176.333 199.333H156.333C155.449 199.333 154.601 198.982 153.976 198.357C153.351 197.732 153 196.884 153 196V169.333C153 168.449 153.351 167.601 153.976 166.976C154.601 166.351 155.449 166 156.333 166ZM167.583 185.167C172.167 185.167 173.4 181.783 173.717 180C175.233 179.517 176.333 178.1 176.333 176.417C176.333 174.333 174.667 172.667 172.583 172.667C170.5 172.667 168.833 174.333 168.833 176.417C168.833 177.983 169.783 179.333 171.15 179.883C170.783 181 169.667 182.667 166.333 182.667C164.033 182.667 162.433 183.25 161.333 184.067V177.45C162.783 176.933 163.833 175.55 163.833 173.917C163.833 171.833 162.167 170.167 160.083 170.167C158 170.167 156.333 171.833 156.333 173.917C156.333 175.55 157.383 176.933 158.833 177.45V187.883C157.383 188.4 156.333 189.783 156.333 191.417C156.333 193.5 158 195.167 160.083 195.167C162.167 195.167 163.833 193.5 163.833 191.417C163.833 189.867 162.9 188.5 161.55 187.967C162.017 186.833 163.383 185.167 167.583 185.167ZM160.083 190.167C160.415 190.167 160.733 190.298 160.967 190.533C161.202 190.767 161.333 191.085 161.333 191.417C161.333 191.748 161.202 192.066 160.967 192.301C160.733 192.535 160.415 192.667 160.083 192.667C159.752 192.667 159.434 192.535 159.199 192.301C158.965 192.066 158.833 191.748 158.833 191.417C158.833 191.085 158.965 190.767 159.199 190.533C159.434 190.298 159.752 190.167 160.083 190.167ZM160.083 172.667C160.415 172.667 160.733 172.798 160.967 173.033C161.202 173.267 161.333 173.585 161.333 173.917C161.333 174.248 161.202 174.566 160.967 174.801C160.733 175.035 160.415 175.167 160.083 175.167C159.752 175.167 159.434 175.035 159.199 174.801C158.965 174.566 158.833 174.248 158.833 173.917C158.833 173.585 158.965 173.267 159.199 173.033C159.434 172.798 159.752 172.667 160.083 172.667ZM172.583 175.167C172.915 175.167 173.233 175.298 173.467 175.533C173.702 175.767 173.833 176.085 173.833 176.417C173.833 176.748 173.702 177.066 173.467 177.301C173.233 177.535 172.915 177.667 172.583 177.667C172.252 177.667 171.934 177.535 171.699 177.301C171.465 177.066 171.333 176.748 171.333 176.417C171.333 176.085 171.465 175.767 171.699 175.533C171.934 175.298 172.252 175.167 172.583 175.167Z" fill="#1D2535"/>
<path d="M156.333 222H176.333C177.217 222 178.065 222.351 178.69 222.976C179.315 223.601 179.667 224.449 179.667 225.333V252C179.667 252.884 179.315 253.732 178.69 254.357C178.065 254.982 177.217 255.333 176.333 255.333H156.333C155.449 255.333 154.601 254.982 153.976 254.357C153.351 253.732 153 252.884 153 252V225.333C153 224.449 153.351 223.601 153.976 222.976C154.601 222.351 155.449 222 156.333 222ZM167.583 241.167C172.167 241.167 173.4 237.783 173.717 236C175.233 235.517 176.333 234.1 176.333 232.417C176.333 230.333 174.667 228.667 172.583 228.667C170.5 228.667 168.833 230.333 168.833 232.417C168.833 233.983 169.783 235.333 171.15 235.883C170.783 237 169.667 238.667 166.333 238.667C164.033 238.667 162.433 239.25 161.333 240.067V233.45C162.783 232.933 163.833 231.55 163.833 229.917C163.833 227.833 162.167 226.167 160.083 226.167C158 226.167 156.333 227.833 156.333 229.917C156.333 231.55 157.383 232.933 158.833 233.45V243.883C157.383 244.4 156.333 245.783 156.333 247.417C156.333 249.5 158 251.167 160.083 251.167C162.167 251.167 163.833 249.5 163.833 247.417C163.833 245.867 162.9 244.5 161.55 243.967C162.017 242.833 163.383 241.167 167.583 241.167ZM160.083 246.167C160.415 246.167 160.733 246.298 160.967 246.533C161.202 246.767 161.333 247.085 161.333 247.417C161.333 247.748 161.202 248.066 160.967 248.301C160.733 248.535 160.415 248.667 160.083 248.667C159.752 248.667 159.434 248.535 159.199 248.301C158.965 248.066 158.833 247.748 158.833 247.417C158.833 247.085 158.965 246.767 159.199 246.533C159.434 246.298 159.752 246.167 160.083 246.167ZM160.083 228.667C160.415 228.667 160.733 228.798 160.967 229.033C161.202 229.267 161.333 229.585 161.333 229.917C161.333 230.248 161.202 230.566 160.967 230.801C160.733 231.035 160.415 231.167 160.083 231.167C159.752 231.167 159.434 231.035 159.199 230.801C158.965 230.566 158.833 230.248 158.833 229.917C158.833 229.585 158.965 229.267 159.199 229.033C159.434 228.798 159.752 228.667 160.083 228.667ZM172.583 231.167C172.915 231.167 173.233 231.298 173.467 231.533C173.702 231.767 173.833 232.085 173.833 232.417C173.833 232.748 173.702 233.066 173.467 233.301C173.233 233.535 172.915 233.667 172.583 233.667C172.252 233.667 171.934 233.535 171.699 233.301C171.465 233.066 171.333 232.748 171.333 232.417C171.333 232.085 171.465 231.767 171.699 231.533C171.934 231.298 172.252 231.167 172.583 231.167Z" fill="#1D2535"/>
<path d="M191.333 0H211.333C212.217 0 213.065 0.351189 213.69 0.976311C214.315 1.60143 214.667 2.44928 214.667 3.33333V30C214.667 30.8841 214.315 31.7319 213.69 32.357C213.065 32.9821 212.217 33.3333 211.333 33.3333H191.333C190.449 33.3333 189.601 32.9821 188.976 32.357C188.351 31.7319 188 30.8841 188 30V3.33333C188 2.44928 188.351 1.60143 188.976 0.976311C189.601 0.351189 190.449 0 191.333 0ZM202.583 19.1667C207.167 19.1667 208.4 15.7833 208.717 14C210.233 13.5167 211.333 12.1 211.333 10.4167C211.333 8.33333 209.667 6.66667 207.583 6.66667C205.5 6.66667 203.833 8.33333 203.833 10.4167C203.833 11.9833 204.783 13.3333 206.15 13.8833C205.783 15 204.667 16.6667 201.333 16.6667C199.033 16.6667 197.433 17.25 196.333 18.0667V11.45C197.783 10.9333 198.833 9.55 198.833 7.91667C198.833 5.83333 197.167 4.16667 195.083 4.16667C193 4.16667 191.333 5.83333 191.333 7.91667C191.333 9.55 192.383 10.9333 193.833 11.45V21.8833C192.383 22.4 191.333 23.7833 191.333 25.4167C191.333 27.5 193 29.1667 195.083 29.1667C197.167 29.1667 198.833 27.5 198.833 25.4167C198.833 23.8667 197.9 22.5 196.55 21.9667C197.017 20.8333 198.383 19.1667 202.583 19.1667ZM195.083 24.1667C195.415 24.1667 195.733 24.2984 195.967 24.5328C196.202 24.7672 196.333 25.0851 196.333 25.4167C196.333 25.7482 196.202 26.0661 195.967 26.3006C195.733 26.535 195.415 26.6667 195.083 26.6667C194.752 26.6667 194.434 26.535 194.199 26.3006C193.965 26.0661 193.833 25.7482 193.833 25.4167C193.833 25.0851 193.965 24.7672 194.199 24.5328C194.434 24.2984 194.752 24.1667 195.083 24.1667ZM195.083 6.66667C195.415 6.66667 195.733 6.79836 195.967 7.03278C196.202 7.2672 196.333 7.58515 196.333 7.91667C196.333 8.24819 196.202 8.56613 195.967 8.80055C195.733 9.03497 195.415 9.16667 195.083 9.16667C194.752 9.16667 194.434 9.03497 194.199 8.80055C193.965 8.56613 193.833 8.24819 193.833 7.91667C193.833 7.58515 193.965 7.2672 194.199 7.03278C194.434 6.79836 194.752 6.66667 195.083 6.66667ZM207.583 9.16667C207.915 9.16667 208.233 9.29836 208.467 9.53278C208.702 9.7672 208.833 10.0851 208.833 10.4167C208.833 10.7482 208.702 11.0661 208.467 11.3005C208.233 11.535 207.915 11.6667 207.583 11.6667C207.252 11.6667 206.934 11.535 206.699 11.3005C206.465 11.0661 206.333 10.7482 206.333 10.4167C206.333 10.0851 206.465 9.7672 206.699 9.53278C206.934 9.29836 207.252 9.16667 207.583 9.16667Z" fill="#1D2535"/>
<path d="M191.333 56H211.333C212.217 56 213.065 56.3512 213.69 56.9763C214.315 57.6014 214.667 58.4493 214.667 59.3333V86C214.667 86.8841 214.315 87.7319 213.69 88.357C213.065 88.9821 212.217 89.3333 211.333 89.3333H191.333C190.449 89.3333 189.601 88.9821 188.976 88.357C188.351 87.7319 188 86.8841 188 86V59.3333C188 58.4493 188.351 57.6014 188.976 56.9763C189.601 56.3512 190.449 56 191.333 56ZM202.583 75.1667C207.167 75.1667 208.4 71.7833 208.717 70C210.233 69.5167 211.333 68.1 211.333 66.4167C211.333 64.3333 209.667 62.6667 207.583 62.6667C205.5 62.6667 203.833 64.3333 203.833 66.4167C203.833 67.9833 204.783 69.3333 206.15 69.8833C205.783 71 204.667 72.6667 201.333 72.6667C199.033 72.6667 197.433 73.25 196.333 74.0667V67.45C197.783 66.9333 198.833 65.55 198.833 63.9167C198.833 61.8333 197.167 60.1667 195.083 60.1667C193 60.1667 191.333 61.8333 191.333 63.9167C191.333 65.55 192.383 66.9333 193.833 67.45V77.8833C192.383 78.4 191.333 79.7833 191.333 81.4167C191.333 83.5 193 85.1667 195.083 85.1667C197.167 85.1667 198.833 83.5 198.833 81.4167C198.833 79.8667 197.9 78.5 196.55 77.9667C197.017 76.8333 198.383 75.1667 202.583 75.1667ZM195.083 80.1667C195.415 80.1667 195.733 80.2984 195.967 80.5328C196.202 80.7672 196.333 81.0851 196.333 81.4167C196.333 81.7482 196.202 82.0661 195.967 82.3006C195.733 82.535 195.415 82.6667 195.083 82.6667C194.752 82.6667 194.434 82.535 194.199 82.3006C193.965 82.0661 193.833 81.7482 193.833 81.4167C193.833 81.0851 193.965 80.7672 194.199 80.5328C194.434 80.2984 194.752 80.1667 195.083 80.1667ZM195.083 62.6667C195.415 62.6667 195.733 62.7984 195.967 63.0328C196.202 63.2672 196.333 63.5851 196.333 63.9167C196.333 64.2482 196.202 64.5661 195.967 64.8006C195.733 65.035 195.415 65.1667 195.083 65.1667C194.752 65.1667 194.434 65.035 194.199 64.8006C193.965 64.5661 193.833 64.2482 193.833 63.9167C193.833 63.5851 193.965 63.2672 194.199 63.0328C194.434 62.7984 194.752 62.6667 195.083 62.6667ZM207.583 65.1667C207.915 65.1667 208.233 65.2984 208.467 65.5328C208.702 65.7672 208.833 66.0851 208.833 66.4167C208.833 66.7482 208.702 67.0661 208.467 67.3005C208.233 67.535 207.915 67.6667 207.583 67.6667C207.252 67.6667 206.934 67.535 206.699 67.3005C206.465 67.0661 206.333 66.7482 206.333 66.4167C206.333 66.0851 206.465 65.7672 206.699 65.5328C206.934 65.2984 207.252 65.1667 207.583 65.1667Z" fill="#1D2535"/>
<path d="M191.333 111H211.333C212.217 111 213.065 111.351 213.69 111.976C214.315 112.601 214.667 113.449 214.667 114.333V141C214.667 141.884 214.315 142.732 213.69 143.357C213.065 143.982 212.217 144.333 211.333 144.333H191.333C190.449 144.333 189.601 143.982 188.976 143.357C188.351 142.732 188 141.884 188 141V114.333C188 113.449 188.351 112.601 188.976 111.976C189.601 111.351 190.449 111 191.333 111ZM202.583 130.167C207.167 130.167 208.4 126.783 208.717 125C210.233 124.517 211.333 123.1 211.333 121.417C211.333 119.333 209.667 117.667 207.583 117.667C205.5 117.667 203.833 119.333 203.833 121.417C203.833 122.983 204.783 124.333 206.15 124.883C205.783 126 204.667 127.667 201.333 127.667C199.033 127.667 197.433 128.25 196.333 129.067V122.45C197.783 121.933 198.833 120.55 198.833 118.917C198.833 116.833 197.167 115.167 195.083 115.167C193 115.167 191.333 116.833 191.333 118.917C191.333 120.55 192.383 121.933 193.833 122.45V132.883C192.383 133.4 191.333 134.783 191.333 136.417C191.333 138.5 193 140.167 195.083 140.167C197.167 140.167 198.833 138.5 198.833 136.417C198.833 134.867 197.9 133.5 196.55 132.967C197.017 131.833 198.383 130.167 202.583 130.167ZM195.083 135.167C195.415 135.167 195.733 135.298 195.967 135.533C196.202 135.767 196.333 136.085 196.333 136.417C196.333 136.748 196.202 137.066 195.967 137.301C195.733 137.535 195.415 137.667 195.083 137.667C194.752 137.667 194.434 137.535 194.199 137.301C193.965 137.066 193.833 136.748 193.833 136.417C193.833 136.085 193.965 135.767 194.199 135.533C194.434 135.298 194.752 135.167 195.083 135.167ZM195.083 117.667C195.415 117.667 195.733 117.798 195.967 118.033C196.202 118.267 196.333 118.585 196.333 118.917C196.333 119.248 196.202 119.566 195.967 119.801C195.733 120.035 195.415 120.167 195.083 120.167C194.752 120.167 194.434 120.035 194.199 119.801C193.965 119.566 193.833 119.248 193.833 118.917C193.833 118.585 193.965 118.267 194.199 118.033C194.434 117.798 194.752 117.667 195.083 117.667ZM207.583 120.167C207.915 120.167 208.233 120.298 208.467 120.533C208.702 120.767 208.833 121.085 208.833 121.417C208.833 121.748 208.702 122.066 208.467 122.301C208.233 122.535 207.915 122.667 207.583 122.667C207.252 122.667 206.934 122.535 206.699 122.301C206.465 122.066 206.333 121.748 206.333 121.417C206.333 121.085 206.465 120.767 206.699 120.533C206.934 120.298 207.252 120.167 207.583 120.167Z" fill="#1D2535"/>
<path d="M191.333 166H211.333C212.217 166 213.065 166.351 213.69 166.976C214.315 167.601 214.667 168.449 214.667 169.333V196C214.667 196.884 214.315 197.732 213.69 198.357C213.065 198.982 212.217 199.333 211.333 199.333H191.333C190.449 199.333 189.601 198.982 188.976 198.357C188.351 197.732 188 196.884 188 196V169.333C188 168.449 188.351 167.601 188.976 166.976C189.601 166.351 190.449 166 191.333 166ZM202.583 185.167C207.167 185.167 208.4 181.783 208.717 180C210.233 179.517 211.333 178.1 211.333 176.417C211.333 174.333 209.667 172.667 207.583 172.667C205.5 172.667 203.833 174.333 203.833 176.417C203.833 177.983 204.783 179.333 206.15 179.883C205.783 181 204.667 182.667 201.333 182.667C199.033 182.667 197.433 183.25 196.333 184.067V177.45C197.783 176.933 198.833 175.55 198.833 173.917C198.833 171.833 197.167 170.167 195.083 170.167C193 170.167 191.333 171.833 191.333 173.917C191.333 175.55 192.383 176.933 193.833 177.45V187.883C192.383 188.4 191.333 189.783 191.333 191.417C191.333 193.5 193 195.167 195.083 195.167C197.167 195.167 198.833 193.5 198.833 191.417C198.833 189.867 197.9 188.5 196.55 187.967C197.017 186.833 198.383 185.167 202.583 185.167ZM195.083 190.167C195.415 190.167 195.733 190.298 195.967 190.533C196.202 190.767 196.333 191.085 196.333 191.417C196.333 191.748 196.202 192.066 195.967 192.301C195.733 192.535 195.415 192.667 195.083 192.667C194.752 192.667 194.434 192.535 194.199 192.301C193.965 192.066 193.833 191.748 193.833 191.417C193.833 191.085 193.965 190.767 194.199 190.533C194.434 190.298 194.752 190.167 195.083 190.167ZM195.083 172.667C195.415 172.667 195.733 172.798 195.967 173.033C196.202 173.267 196.333 173.585 196.333 173.917C196.333 174.248 196.202 174.566 195.967 174.801C195.733 175.035 195.415 175.167 195.083 175.167C194.752 175.167 194.434 175.035 194.199 174.801C193.965 174.566 193.833 174.248 193.833 173.917C193.833 173.585 193.965 173.267 194.199 173.033C194.434 172.798 194.752 172.667 195.083 172.667ZM207.583 175.167C207.915 175.167 208.233 175.298 208.467 175.533C208.702 175.767 208.833 176.085 208.833 176.417C208.833 176.748 208.702 177.066 208.467 177.301C208.233 177.535 207.915 177.667 207.583 177.667C207.252 177.667 206.934 177.535 206.699 177.301C206.465 177.066 206.333 176.748 206.333 176.417C206.333 176.085 206.465 175.767 206.699 175.533C206.934 175.298 207.252 175.167 207.583 175.167Z" fill="#1D2535"/>
<path d="M191.333 222H211.333C212.217 222 213.065 222.351 213.69 222.976C214.315 223.601 214.667 224.449 214.667 225.333V252C214.667 252.884 214.315 253.732 213.69 254.357C213.065 254.982 212.217 255.333 211.333 255.333H191.333C190.449 255.333 189.601 254.982 188.976 254.357C188.351 253.732 188 252.884 188 252V225.333C188 224.449 188.351 223.601 188.976 222.976C189.601 222.351 190.449 222 191.333 222ZM202.583 241.167C207.167 241.167 208.4 237.783 208.717 236C210.233 235.517 211.333 234.1 211.333 232.417C211.333 230.333 209.667 228.667 207.583 228.667C205.5 228.667 203.833 230.333 203.833 232.417C203.833 233.983 204.783 235.333 206.15 235.883C205.783 237 204.667 238.667 201.333 238.667C199.033 238.667 197.433 239.25 196.333 240.067V233.45C197.783 232.933 198.833 231.55 198.833 229.917C198.833 227.833 197.167 226.167 195.083 226.167C193 226.167 191.333 227.833 191.333 229.917C191.333 231.55 192.383 232.933 193.833 233.45V243.883C192.383 244.4 191.333 245.783 191.333 247.417C191.333 249.5 193 251.167 195.083 251.167C197.167 251.167 198.833 249.5 198.833 247.417C198.833 245.867 197.9 244.5 196.55 243.967C197.017 242.833 198.383 241.167 202.583 241.167ZM195.083 246.167C195.415 246.167 195.733 246.298 195.967 246.533C196.202 246.767 196.333 247.085 196.333 247.417C196.333 247.748 196.202 248.066 195.967 248.301C195.733 248.535 195.415 248.667 195.083 248.667C194.752 248.667 194.434 248.535 194.199 248.301C193.965 248.066 193.833 247.748 193.833 247.417C193.833 247.085 193.965 246.767 194.199 246.533C194.434 246.298 194.752 246.167 195.083 246.167ZM195.083 228.667C195.415 228.667 195.733 228.798 195.967 229.033C196.202 229.267 196.333 229.585 196.333 229.917C196.333 230.248 196.202 230.566 195.967 230.801C195.733 231.035 195.415 231.167 195.083 231.167C194.752 231.167 194.434 231.035 194.199 230.801C193.965 230.566 193.833 230.248 193.833 229.917C193.833 229.585 193.965 229.267 194.199 229.033C194.434 228.798 194.752 228.667 195.083 228.667ZM207.583 231.167C207.915 231.167 208.233 231.298 208.467 231.533C208.702 231.767 208.833 232.085 208.833 232.417C208.833 232.748 208.702 233.066 208.467 233.301C208.233 233.535 207.915 233.667 207.583 233.667C207.252 233.667 206.934 233.535 206.699 233.301C206.465 233.066 206.333 232.748 206.333 232.417C206.333 232.085 206.465 231.767 206.699 231.533C206.934 231.298 207.252 231.167 207.583 231.167Z" fill="#1D2535"/>
<path d="M51.3333 277H71.3333C72.2174 277 73.0652 277.351 73.6904 277.976C74.3155 278.601 74.6667 279.449 74.6667 280.333V307C74.6667 307.884 74.3155 308.732 73.6904 309.357C73.0652 309.982 72.2174 310.333 71.3333 310.333H51.3333C50.4493 310.333 49.6014 309.982 48.9763 309.357C48.3512 308.732 48 307.884 48 307V280.333C48 279.449 48.3512 278.601 48.9763 277.976C49.6014 277.351 50.4493 277 51.3333 277ZM62.5833 296.167C67.1667 296.167 68.4 292.783 68.7167 291C70.2333 290.517 71.3333 289.1 71.3333 287.417C71.3333 285.333 69.6667 283.667 67.5833 283.667C65.5 283.667 63.8333 285.333 63.8333 287.417C63.8333 288.983 64.7833 290.333 66.15 290.883C65.7833 292 64.6667 293.667 61.3333 293.667C59.0333 293.667 57.4333 294.25 56.3333 295.067V288.45C57.7833 287.933 58.8333 286.55 58.8333 284.917C58.8333 282.833 57.1667 281.167 55.0833 281.167C53 281.167 51.3333 282.833 51.3333 284.917C51.3333 286.55 52.3833 287.933 53.8333 288.45V298.883C52.3833 299.4 51.3333 300.783 51.3333 302.417C51.3333 304.5 53 306.167 55.0833 306.167C57.1667 306.167 58.8333 304.5 58.8333 302.417C58.8333 300.867 57.9 299.5 56.55 298.967C57.0167 297.833 58.3833 296.167 62.5833 296.167ZM55.0833 301.167C55.4149 301.167 55.7328 301.298 55.9672 301.533C56.2016 301.767 56.3333 302.085 56.3333 302.417C56.3333 302.748 56.2016 303.066 55.9672 303.301C55.7328 303.535 55.4149 303.667 55.0833 303.667C54.7518 303.667 54.4339 303.535 54.1994 303.301C53.965 303.066 53.8333 302.748 53.8333 302.417C53.8333 302.085 53.965 301.767 54.1994 301.533C54.4339 301.298 54.7518 301.167 55.0833 301.167ZM55.0833 283.667C55.4149 283.667 55.7328 283.798 55.9672 284.033C56.2016 284.267 56.3333 284.585 56.3333 284.917C56.3333 285.248 56.2016 285.566 55.9672 285.801C55.7328 286.035 55.4149 286.167 55.0833 286.167C54.7518 286.167 54.4339 286.035 54.1994 285.801C53.965 285.566 53.8333 285.248 53.8333 284.917C53.8333 284.585 53.965 284.267 54.1994 284.033C54.4339 283.798 54.7518 283.667 55.0833 283.667ZM67.5833 286.167C67.9149 286.167 68.2328 286.298 68.4672 286.533C68.7016 286.767 68.8333 287.085 68.8333 287.417C68.8333 287.748 68.7016 288.066 68.4672 288.301C68.2328 288.535 67.9149 288.667 67.5833 288.667C67.2518 288.667 66.9339 288.535 66.6994 288.301C66.465 288.066 66.3333 287.748 66.3333 287.417C66.3333 287.085 66.465 286.767 66.6994 286.533C66.9339 286.298 67.2518 286.167 67.5833 286.167Z" fill="#1D2535"/>
<path d="M86.3333 277H106.333C107.217 277 108.065 277.351 108.69 277.976C109.315 278.601 109.667 279.449 109.667 280.333V307C109.667 307.884 109.315 308.732 108.69 309.357C108.065 309.982 107.217 310.333 106.333 310.333H86.3333C85.4493 310.333 84.6014 309.982 83.9763 309.357C83.3512 308.732 83 307.884 83 307V280.333C83 279.449 83.3512 278.601 83.9763 277.976C84.6014 277.351 85.4493 277 86.3333 277ZM97.5833 296.167C102.167 296.167 103.4 292.783 103.717 291C105.233 290.517 106.333 289.1 106.333 287.417C106.333 285.333 104.667 283.667 102.583 283.667C100.5 283.667 98.8333 285.333 98.8333 287.417C98.8333 288.983 99.7833 290.333 101.15 290.883C100.783 292 99.6667 293.667 96.3333 293.667C94.0333 293.667 92.4333 294.25 91.3333 295.067V288.45C92.7833 287.933 93.8333 286.55 93.8333 284.917C93.8333 282.833 92.1667 281.167 90.0833 281.167C88 281.167 86.3333 282.833 86.3333 284.917C86.3333 286.55 87.3833 287.933 88.8333 288.45V298.883C87.3833 299.4 86.3333 300.783 86.3333 302.417C86.3333 304.5 88 306.167 90.0833 306.167C92.1667 306.167 93.8333 304.5 93.8333 302.417C93.8333 300.867 92.9 299.5 91.55 298.967C92.0167 297.833 93.3833 296.167 97.5833 296.167ZM90.0833 301.167C90.4149 301.167 90.7328 301.298 90.9672 301.533C91.2016 301.767 91.3333 302.085 91.3333 302.417C91.3333 302.748 91.2016 303.066 90.9672 303.301C90.7328 303.535 90.4149 303.667 90.0833 303.667C89.7518 303.667 89.4339 303.535 89.1994 303.301C88.965 303.066 88.8333 302.748 88.8333 302.417C88.8333 302.085 88.965 301.767 89.1994 301.533C89.4339 301.298 89.7518 301.167 90.0833 301.167ZM90.0833 283.667C90.4149 283.667 90.7328 283.798 90.9672 284.033C91.2016 284.267 91.3333 284.585 91.3333 284.917C91.3333 285.248 91.2016 285.566 90.9672 285.801C90.7328 286.035 90.4149 286.167 90.0833 286.167C89.7518 286.167 89.4339 286.035 89.1994 285.801C88.965 285.566 88.8333 285.248 88.8333 284.917C88.8333 284.585 88.965 284.267 89.1994 284.033C89.4339 283.798 89.7518 283.667 90.0833 283.667ZM102.583 286.167C102.915 286.167 103.233 286.298 103.467 286.533C103.702 286.767 103.833 287.085 103.833 287.417C103.833 287.748 103.702 288.066 103.467 288.301C103.233 288.535 102.915 288.667 102.583 288.667C102.252 288.667 101.934 288.535 101.699 288.301C101.465 288.066 101.333 287.748 101.333 287.417C101.333 287.085 101.465 286.767 101.699 286.533C101.934 286.298 102.252 286.167 102.583 286.167Z" fill="#1D2535"/>
<path d="M121.333 277H141.333C142.217 277 143.065 277.351 143.69 277.976C144.315 278.601 144.667 279.449 144.667 280.333V307C144.667 307.884 144.315 308.732 143.69 309.357C143.065 309.982 142.217 310.333 141.333 310.333H121.333C120.449 310.333 119.601 309.982 118.976 309.357C118.351 308.732 118 307.884 118 307V280.333C118 279.449 118.351 278.601 118.976 277.976C119.601 277.351 120.449 277 121.333 277ZM132.583 296.167C137.167 296.167 138.4 292.783 138.717 291C140.233 290.517 141.333 289.1 141.333 287.417C141.333 285.333 139.667 283.667 137.583 283.667C135.5 283.667 133.833 285.333 133.833 287.417C133.833 288.983 134.783 290.333 136.15 290.883C135.783 292 134.667 293.667 131.333 293.667C129.033 293.667 127.433 294.25 126.333 295.067V288.45C127.783 287.933 128.833 286.55 128.833 284.917C128.833 282.833 127.167 281.167 125.083 281.167C123 281.167 121.333 282.833 121.333 284.917C121.333 286.55 122.383 287.933 123.833 288.45V298.883C122.383 299.4 121.333 300.783 121.333 302.417C121.333 304.5 123 306.167 125.083 306.167C127.167 306.167 128.833 304.5 128.833 302.417C128.833 300.867 127.9 299.5 126.55 298.967C127.017 297.833 128.383 296.167 132.583 296.167ZM125.083 301.167C125.415 301.167 125.733 301.298 125.967 301.533C126.202 301.767 126.333 302.085 126.333 302.417C126.333 302.748 126.202 303.066 125.967 303.301C125.733 303.535 125.415 303.667 125.083 303.667C124.752 303.667 124.434 303.535 124.199 303.301C123.965 303.066 123.833 302.748 123.833 302.417C123.833 302.085 123.965 301.767 124.199 301.533C124.434 301.298 124.752 301.167 125.083 301.167ZM125.083 283.667C125.415 283.667 125.733 283.798 125.967 284.033C126.202 284.267 126.333 284.585 126.333 284.917C126.333 285.248 126.202 285.566 125.967 285.801C125.733 286.035 125.415 286.167 125.083 286.167C124.752 286.167 124.434 286.035 124.199 285.801C123.965 285.566 123.833 285.248 123.833 284.917C123.833 284.585 123.965 284.267 124.199 284.033C124.434 283.798 124.752 283.667 125.083 283.667ZM137.583 286.167C137.915 286.167 138.233 286.298 138.467 286.533C138.702 286.767 138.833 287.085 138.833 287.417C138.833 287.748 138.702 288.066 138.467 288.301C138.233 288.535 137.915 288.667 137.583 288.667C137.252 288.667 136.934 288.535 136.699 288.301C136.465 288.066 136.333 287.748 136.333 287.417C136.333 287.085 136.465 286.767 136.699 286.533C136.934 286.298 137.252 286.167 137.583 286.167Z" fill="#1D2535"/>
<path d="M156.333 277H176.333C177.217 277 178.065 277.351 178.69 277.976C179.315 278.601 179.667 279.449 179.667 280.333V307C179.667 307.884 179.315 308.732 178.69 309.357C178.065 309.982 177.217 310.333 176.333 310.333H156.333C155.449 310.333 154.601 309.982 153.976 309.357C153.351 308.732 153 307.884 153 307V280.333C153 279.449 153.351 278.601 153.976 277.976C154.601 277.351 155.449 277 156.333 277ZM167.583 296.167C172.167 296.167 173.4 292.783 173.717 291C175.233 290.517 176.333 289.1 176.333 287.417C176.333 285.333 174.667 283.667 172.583 283.667C170.5 283.667 168.833 285.333 168.833 287.417C168.833 288.983 169.783 290.333 171.15 290.883C170.783 292 169.667 293.667 166.333 293.667C164.033 293.667 162.433 294.25 161.333 295.067V288.45C162.783 287.933 163.833 286.55 163.833 284.917C163.833 282.833 162.167 281.167 160.083 281.167C158 281.167 156.333 282.833 156.333 284.917C156.333 286.55 157.383 287.933 158.833 288.45V298.883C157.383 299.4 156.333 300.783 156.333 302.417C156.333 304.5 158 306.167 160.083 306.167C162.167 306.167 163.833 304.5 163.833 302.417C163.833 300.867 162.9 299.5 161.55 298.967C162.017 297.833 163.383 296.167 167.583 296.167ZM160.083 301.167C160.415 301.167 160.733 301.298 160.967 301.533C161.202 301.767 161.333 302.085 161.333 302.417C161.333 302.748 161.202 303.066 160.967 303.301C160.733 303.535 160.415 303.667 160.083 303.667C159.752 303.667 159.434 303.535 159.199 303.301C158.965 303.066 158.833 302.748 158.833 302.417C158.833 302.085 158.965 301.767 159.199 301.533C159.434 301.298 159.752 301.167 160.083 301.167ZM160.083 283.667C160.415 283.667 160.733 283.798 160.967 284.033C161.202 284.267 161.333 284.585 161.333 284.917C161.333 285.248 161.202 285.566 160.967 285.801C160.733 286.035 160.415 286.167 160.083 286.167C159.752 286.167 159.434 286.035 159.199 285.801C158.965 285.566 158.833 285.248 158.833 284.917C158.833 284.585 158.965 284.267 159.199 284.033C159.434 283.798 159.752 283.667 160.083 283.667ZM172.583 286.167C172.915 286.167 173.233 286.298 173.467 286.533C173.702 286.767 173.833 287.085 173.833 287.417C173.833 287.748 173.702 288.066 173.467 288.301C173.233 288.535 172.915 288.667 172.583 288.667C172.252 288.667 171.934 288.535 171.699 288.301C171.465 288.066 171.333 287.748 171.333 287.417C171.333 287.085 171.465 286.767 171.699 286.533C171.934 286.298 172.252 286.167 172.583 286.167Z" fill="#1D2535"/>
<path d="M191.333 277H211.333C212.217 277 213.065 277.351 213.69 277.976C214.315 278.601 214.667 279.449 214.667 280.333V307C214.667 307.884 214.315 308.732 213.69 309.357C213.065 309.982 212.217 310.333 211.333 310.333H191.333C190.449 310.333 189.601 309.982 188.976 309.357C188.351 308.732 188 307.884 188 307V280.333C188 279.449 188.351 278.601 188.976 277.976C189.601 277.351 190.449 277 191.333 277ZM202.583 296.167C207.167 296.167 208.4 292.783 208.717 291C210.233 290.517 211.333 289.1 211.333 287.417C211.333 285.333 209.667 283.667 207.583 283.667C205.5 283.667 203.833 285.333 203.833 287.417C203.833 288.983 204.783 290.333 206.15 290.883C205.783 292 204.667 293.667 201.333 293.667C199.033 293.667 197.433 294.25 196.333 295.067V288.45C197.783 287.933 198.833 286.55 198.833 284.917C198.833 282.833 197.167 281.167 195.083 281.167C193 281.167 191.333 282.833 191.333 284.917C191.333 286.55 192.383 287.933 193.833 288.45V298.883C192.383 299.4 191.333 300.783 191.333 302.417C191.333 304.5 193 306.167 195.083 306.167C197.167 306.167 198.833 304.5 198.833 302.417C198.833 300.867 197.9 299.5 196.55 298.967C197.017 297.833 198.383 296.167 202.583 296.167ZM195.083 301.167C195.415 301.167 195.733 301.298 195.967 301.533C196.202 301.767 196.333 302.085 196.333 302.417C196.333 302.748 196.202 303.066 195.967 303.301C195.733 303.535 195.415 303.667 195.083 303.667C194.752 303.667 194.434 303.535 194.199 303.301C193.965 303.066 193.833 302.748 193.833 302.417C193.833 302.085 193.965 301.767 194.199 301.533C194.434 301.298 194.752 301.167 195.083 301.167ZM195.083 283.667C195.415 283.667 195.733 283.798 195.967 284.033C196.202 284.267 196.333 284.585 196.333 284.917C196.333 285.248 196.202 285.566 195.967 285.801C195.733 286.035 195.415 286.167 195.083 286.167C194.752 286.167 194.434 286.035 194.199 285.801C193.965 285.566 193.833 285.248 193.833 284.917C193.833 284.585 193.965 284.267 194.199 284.033C194.434 283.798 194.752 283.667 195.083 283.667ZM207.583 286.167C207.915 286.167 208.233 286.298 208.467 286.533C208.702 286.767 208.833 287.085 208.833 287.417C208.833 287.748 208.702 288.066 208.467 288.301C208.233 288.535 207.915 288.667 207.583 288.667C207.252 288.667 206.934 288.535 206.699 288.301C206.465 288.066 206.333 287.748 206.333 287.417C206.333 287.085 206.465 286.767 206.699 286.533C206.934 286.298 207.252 286.167 207.583 286.167Z" fill="#1D2535"/>
</svg>
