<svg width="170" height="48" viewBox="0 0 170 48" fill="none" xmlns="http://www.w3.org/2000/svg">
<g opacity="0.8" clip-path="url(#clip0_15241_38358)">
<path fill-rule="evenodd" clip-rule="evenodd" d="M32.6547 23.9603C32.6547 15.1749 25.3444 8.05273 16.3273 8.05273C7.3101 8.05273 0 15.1749 0 23.9603C0 32.7462 7.3101 39.8679 16.3273 39.8679C25.3444 39.8679 32.6547 32.7462 32.6547 23.9603ZM13.3555 15.1228C13.2272 15.3682 13.2272 15.6895 13.2272 16.3322V19.9743C13.2272 20.1348 13.2272 20.2151 13.248 20.2893C13.2664 20.355 13.2967 20.4171 13.3375 20.4724C13.3835 20.535 13.4474 20.5856 13.5753 20.6868L14.5209 21.4352C14.675 21.5572 14.7521 21.6182 14.7801 21.6916C14.8046 21.756 14.8046 21.8269 14.7801 21.8913C14.7521 21.9647 14.675 22.0257 14.5209 22.1477L13.5753 22.8961C13.4474 22.9973 13.3835 23.0479 13.3375 23.1104C13.2967 23.1658 13.2664 23.2278 13.248 23.2936C13.2272 23.3678 13.2272 23.448 13.2272 23.6086V31.5884C13.2272 32.231 13.2272 32.5523 13.3555 32.7977C13.4685 33.0138 13.6486 33.1892 13.8702 33.2991C14.1222 33.4243 14.4519 33.4243 15.1115 33.4243H17.5431C18.2027 33.4243 18.5325 33.4243 18.7843 33.2991C19.006 33.1892 19.1861 33.0138 19.2991 32.7977C19.4275 32.5523 19.4275 32.231 19.4275 31.5884V27.9462C19.4275 27.7856 19.4275 27.7054 19.4066 27.6313C19.3882 27.5655 19.3579 27.5034 19.3171 27.448C19.2711 27.3856 19.2071 27.335 19.0793 27.2338L18.1337 26.4853C17.9796 26.3634 17.9025 26.3024 17.8745 26.2289C17.85 26.1645 17.85 26.0937 17.8745 26.0293C17.9025 25.9558 17.9796 25.8948 18.1337 25.7729L19.0793 25.0245C19.2071 24.9232 19.2711 24.8726 19.3171 24.8101C19.3579 24.7547 19.3882 24.6927 19.4066 24.627C19.4275 24.5528 19.4275 24.4725 19.4275 24.312V16.3322C19.4275 15.6895 19.4275 15.3682 19.2991 15.1228C19.1861 14.9069 19.006 14.7313 18.7843 14.6213C18.5325 14.4963 18.2027 14.4963 17.5431 14.4963H15.1115C14.4519 14.4963 14.1222 14.4963 13.8702 14.6213C13.6486 14.7313 13.4685 14.9069 13.3555 15.1228Z" fill="white"/>
<path d="M45.7615 33.4774C45.9234 33.4774 46.0545 33.3496 46.0545 33.192V14.5061C46.0545 14.3485 45.9234 14.2207 45.7615 14.2207H42.9351C42.8304 14.2207 42.7345 14.2759 42.677 14.3612C42.029 15.3213 40.8239 15.8048 39.1725 15.8552C39.0108 15.8601 38.8794 15.9873 38.8794 16.1449V18.9398C38.8794 19.0974 39.0104 19.2251 39.1723 19.2251H41.4565C41.6182 19.2251 41.7494 19.3529 41.7494 19.5105V33.192C41.7494 33.3496 41.8805 33.4774 42.0423 33.4774H45.7615Z" fill="white"/>
<path d="M57.0459 18.0821C58.5706 18.0821 59.7963 18.8722 59.7963 20.8623C59.7963 22.7938 58.5706 23.6425 57.0459 23.6425H53.7273V18.0821H57.0459ZM57.0459 27.2421C61.5303 27.2421 64.1313 24.579 64.1313 20.7452C64.1313 17.1163 61.5303 14.4531 57.0459 14.4531H49.7451C49.5832 14.4531 49.4521 14.5809 49.4521 14.7385V33.1903C49.4521 33.3479 49.5832 33.4757 49.7451 33.4757H53.4344C53.5961 33.4757 53.7273 33.3479 53.7273 33.1903V27.5275C53.7273 27.3699 53.8585 27.2421 54.0202 27.2421H57.0459Z" fill="white"/>
<path d="M70.7621 30.7839C69.5065 30.7839 68.7293 30.2279 68.7293 29.2329C68.7293 28.3548 69.2673 27.7696 70.5529 27.7696H74.0508V28.0621C74.0508 29.7596 72.556 30.7839 70.7621 30.7839ZM74.3797 33.1909C74.3797 33.3485 74.5109 33.4763 74.6726 33.4763H77.8836C78.0455 33.4763 78.1765 33.3485 78.1765 33.1909V24.9308C78.1765 20.9507 75.8744 18.6387 71.7189 18.6387C68.6334 18.6387 66.2712 20.245 65.3026 22.8273C65.2445 22.9824 65.3409 23.1497 65.5056 23.189L68.7407 23.962C68.887 23.997 69.0355 23.9179 69.0925 23.7822C69.5837 22.6106 70.4017 21.9164 71.7189 21.9164C73.0941 21.9164 74.0508 22.7944 74.0508 24.3747V24.5796C74.0508 25.0186 73.9014 25.1942 73.3631 25.1942H69.626C66.5169 25.1942 64.6333 26.8037 64.6333 29.3498C64.6333 32.0716 66.7859 33.8276 69.7755 33.8276C71.2799 33.8276 72.7252 33.3456 73.7438 32.2723C73.9441 32.0614 74.3797 32.19 74.3797 32.4774V33.1909Z" fill="white"/>
<path d="M86.1309 30.9009C84.6783 30.9009 83.617 30.3131 83.0938 29.2329C83.0304 29.1018 82.883 29.0256 82.7386 29.0611L79.7147 29.8074C79.5592 29.8457 79.4635 29.9993 79.5097 30.1491C80.2753 32.6277 82.836 33.8276 85.9815 33.8276C90.0177 33.8276 92.3196 31.8083 92.3196 29.0573C92.3196 23.7309 83.6794 25.5454 83.6794 22.9114C83.6794 22.0335 84.4269 21.4774 85.7722 21.4774C87.1112 21.4774 88.0078 22.1908 88.4375 23.2847C88.4907 23.4204 88.6336 23.5056 88.7801 23.4785L91.8665 22.909C92.0314 22.8785 92.137 22.7189 92.0894 22.562C91.3814 20.2317 89.3918 18.6387 85.8021 18.6387C81.8558 18.6387 79.763 20.6873 79.763 23.2626C79.763 28.7646 88.433 27.1258 88.433 29.4085C88.433 30.3157 87.6558 30.9009 86.1309 30.9009Z" fill="white"/>
<path d="M99.5621 30.9009C98.1092 30.9009 97.0481 30.3131 96.5249 29.2329C96.4614 29.1018 96.314 29.0256 96.1698 29.0611L93.1458 29.8074C92.9903 29.8457 92.8946 29.9993 92.9409 30.1491C93.7064 32.6277 96.267 33.8276 99.4126 33.8276C103.449 33.8276 105.751 31.8083 105.751 29.0573C105.751 23.7309 97.1106 25.5454 97.1106 22.9114C97.1106 22.0335 97.8581 21.4774 99.2034 21.4774C100.542 21.4774 101.439 22.1908 101.868 23.2847C101.922 23.4204 102.065 23.5056 102.211 23.4785L105.297 22.909C105.463 22.8785 105.568 22.7189 105.52 22.562C104.813 20.2317 102.823 18.6387 99.2333 18.6387C95.2869 18.6387 93.1941 20.6873 93.1941 23.2626C93.1941 28.7646 101.864 27.1258 101.864 29.4085C101.864 30.3157 101.087 30.9009 99.5621 30.9009Z" fill="white"/>
<path d="M109.53 33.2587C109.562 33.3866 109.68 33.4766 109.815 33.4766H114.465C114.601 33.4766 114.719 33.3855 114.75 33.2567L117.119 23.4386L119.487 33.2567C119.518 33.3855 119.636 33.4766 119.772 33.4766H124.573C124.707 33.4766 124.825 33.387 124.857 33.2593L128.361 19.3436C128.406 19.1638 128.266 18.9902 128.076 18.9902H124.772C124.633 18.9902 124.513 19.0853 124.485 19.2178L122.141 30.2574L119.238 19.2049C119.205 19.0786 119.088 18.9902 118.954 18.9902H115.257C115.122 18.9902 115.004 19.081 114.972 19.2096L112.275 30.2574L109.961 19.2185C109.934 19.0856 109.814 18.9902 109.675 18.9902H106.34C106.15 18.9902 106.01 19.1634 106.055 19.3431L109.53 33.2587Z" fill="white"/>
<path d="M136.259 33.8276C140.744 33.8276 143.823 30.4328 143.823 26.2477C143.823 22.0335 140.744 18.6387 136.259 18.6387C131.804 18.6387 128.695 22.0335 128.695 26.2477C128.695 30.4328 131.804 33.8276 136.259 33.8276ZM136.259 30.345C134.405 30.345 132.97 28.8231 132.97 26.2477C132.97 23.6724 134.405 22.1213 136.259 22.1213C138.113 22.1213 139.578 23.6724 139.578 26.2477C139.578 28.8231 138.113 30.345 136.259 30.345Z" fill="white"/>
<path d="M149.72 25.8087C149.72 23.3212 151.006 22.7359 152.979 22.7359C153.357 22.7359 153.773 22.7725 154.167 22.8457C154.333 22.8767 154.499 22.7728 154.528 22.6098L155.154 19.1633C155.176 19.0423 155.117 18.9195 155.001 18.8714C154.641 18.7221 154.196 18.6387 153.666 18.6387C151.663 18.6387 150.109 19.78 149.361 22.092V19.2752C149.361 19.1176 149.23 18.9899 149.069 18.9899H145.827C145.666 18.9899 145.535 19.1176 145.535 19.2752V33.1909C145.535 33.3485 145.666 33.4763 145.827 33.4763H149.427C149.589 33.4763 149.72 33.3485 149.72 33.1909V25.8087Z" fill="white"/>
<path d="M162.89 30.4326C160.737 30.4326 159.601 28.7058 159.601 26.2476C159.601 23.7892 160.737 22.0333 162.89 22.0333C165.043 22.0333 166.179 23.7892 166.179 26.2476C166.179 28.7058 165.043 30.4326 162.89 30.4326ZM166.418 33.1907C166.418 33.3483 166.549 33.4761 166.711 33.4761H170.071C170.233 33.4761 170.364 33.3483 170.364 33.1907V14.7815C170.364 14.6239 170.233 14.4961 170.071 14.4961H166.591C166.429 14.4961 166.298 14.6239 166.298 14.7815V21.009C165.371 19.3116 163.817 18.6385 161.843 18.6385C157.987 18.6385 155.356 21.9163 155.356 26.2476C155.356 30.5789 157.987 33.8274 161.843 33.8274C163.936 33.8274 165.551 33.0078 166.418 30.9007V33.1907Z" fill="white"/>
</g>
<defs>
<clipPath id="clip0_15241_38358">
<rect width="170" height="48" fill="white"/>
</clipPath>
</defs>
</svg>
