<svg xmlns="http://www.w3.org/2000/svg" width="183" height="34" viewBox="0 0 183 34" fill="none">
<path fill-rule="evenodd" clip-rule="evenodd" d="M35.3153 16.9602C35.3153 7.59343 27.5214 0 17.9076 0C8.29379 0 0.5 7.59343 0.5 16.9602C0.5 26.3273 8.29379 33.9203 17.9076 33.9203C27.5214 33.9203 35.3153 26.3273 35.3153 16.9602ZM14.7392 7.53784C14.6024 7.79952 14.6024 8.1421 14.6024 8.82724V12.7104C14.6024 12.8815 14.6024 12.9671 14.6246 13.0462C14.6442 13.1163 14.6765 13.1824 14.72 13.2415C14.769 13.3081 14.8372 13.3621 14.9735 13.47L15.9817 14.2679C16.146 14.398 16.2282 14.463 16.258 14.5413C16.2842 14.61 16.2842 14.6855 16.258 14.7542C16.2282 14.8325 16.146 14.8975 15.9817 15.0276L14.9735 15.8255C14.8372 15.9334 14.769 15.9873 14.72 16.054C14.6765 16.1131 14.6442 16.1792 14.6246 16.2493C14.6024 16.3284 14.6024 16.414 14.6024 16.5851V25.093C14.6024 25.7781 14.6024 26.1206 14.7392 26.3822C14.8596 26.6126 15.0517 26.7996 15.288 26.9169C15.5566 27.0503 15.9082 27.0503 16.6114 27.0503H19.2039C19.9071 27.0503 20.2587 27.0503 20.5272 26.9169C20.7636 26.7996 20.9556 26.6126 21.076 26.3822C21.2129 26.1206 21.2129 25.7781 21.2129 25.093V21.2097C21.2129 21.0386 21.2129 20.953 21.1907 20.874C21.1711 20.8039 21.1388 20.7377 21.0953 20.6786C21.0462 20.612 20.978 20.5581 20.8417 20.4502L19.8336 19.6522C19.6693 19.5222 19.5871 19.4571 19.5572 19.3788C19.5311 19.3102 19.5311 19.2347 19.5572 19.166C19.5871 19.0877 19.6692 19.0227 19.8336 18.8926L20.8417 18.0947C20.978 17.9868 21.0462 17.9328 21.0953 17.8662C21.1388 17.8071 21.1711 17.741 21.1907 17.6709C21.2129 17.5918 21.2129 17.5062 21.2129 17.3351V8.82724C21.2129 8.1421 21.2129 7.79952 21.076 7.53784C20.9556 7.30766 20.7636 7.1205 20.5272 7.00322C20.2587 6.86988 19.9071 6.86988 19.2039 6.86988H16.6114C15.9082 6.86988 15.5566 6.86988 15.288 7.00322C15.0517 7.1205 14.8596 7.30766 14.7392 7.53784Z" fill="#F9FAFB"/>
<path d="M49.2897 27.106C49.4623 27.106 49.602 26.9698 49.602 26.8018V6.87944C49.602 6.71141 49.4623 6.5752 49.2897 6.5752H46.2763C46.1646 6.5752 46.0624 6.63407 46.001 6.72497C45.3101 7.74859 44.0253 8.26416 42.2646 8.31783C42.0923 8.32307 41.9521 8.45872 41.9521 8.62676V11.6065C41.9521 11.7745 42.0919 11.9107 42.2644 11.9107H44.6998C44.8722 11.9107 45.0121 12.0469 45.0121 12.215V26.8018C45.0121 26.9698 45.1518 27.106 45.3244 27.106H49.2897Z" fill="#F9FAFB"/>
<path d="M61.3203 10.6938C62.9459 10.6938 64.2528 11.5362 64.2528 13.6579C64.2528 15.7173 62.9459 16.6221 61.3203 16.6221H57.7821V10.6938H61.3203ZM61.3203 20.4599C66.1014 20.4599 68.8745 17.6206 68.8745 13.5331C68.8745 9.66408 66.1014 6.82471 61.3203 6.82471H53.5364C53.3638 6.82471 53.2241 6.96092 53.2241 7.12895V26.8017C53.2241 26.9697 53.3638 27.1059 53.5364 27.1059H57.4699C57.6422 27.1059 57.7821 26.9697 57.7821 26.8017V20.7641C57.7821 20.5961 57.922 20.4599 58.0944 20.4599H61.3203Z" fill="#F9FAFB"/>
<path d="M75.9443 24.2355C74.6055 24.2355 73.7769 23.6427 73.7769 22.5818C73.7769 21.6456 74.3506 21.0217 75.7212 21.0217H79.4506V21.3336C79.4506 23.1434 77.8569 24.2355 75.9443 24.2355ZM79.8012 26.8017C79.8012 26.9698 79.9411 27.106 80.1134 27.106H83.537C83.7095 27.106 83.8492 26.9698 83.8492 26.8017V17.9951C83.8492 13.7516 81.3949 11.2866 76.9643 11.2866C73.6747 11.2866 71.1561 12.9992 70.1235 15.7524C70.0615 15.9178 70.1644 16.0961 70.34 16.138L73.7891 16.9622C73.9451 16.9994 74.1034 16.9151 74.1642 16.7704C74.6879 15.5214 75.56 14.7813 76.9643 14.7813C78.4305 14.7813 79.4506 15.7173 79.4506 17.4022V17.6206C79.4506 18.0887 79.2912 18.2759 78.7174 18.2759H74.733C71.4181 18.2759 69.4099 19.992 69.4099 22.7065C69.4099 25.6084 71.705 27.4805 74.8924 27.4805C76.4963 27.4805 78.0373 26.9666 79.1233 25.8224C79.3367 25.5975 79.8012 25.7346 79.8012 26.041V26.8017Z" fill="#F9FAFB"/>
<path d="M92.3298 24.3602C90.781 24.3602 89.6495 23.7335 89.0917 22.5818C89.0242 22.4421 88.867 22.3608 88.7131 22.3987L85.489 23.1944C85.3232 23.2352 85.2212 23.399 85.2705 23.5586C86.0867 26.2012 88.8169 27.4805 92.1705 27.4805C96.4737 27.4805 98.9279 25.3276 98.9279 22.3946C98.9279 16.7158 89.7161 18.6503 89.7161 15.8421C89.7161 14.9061 90.513 14.3132 91.9474 14.3132C93.3749 14.3132 94.3308 15.0738 94.789 16.2401C94.8458 16.3848 94.9981 16.4755 95.1542 16.4467L98.4449 15.8395C98.6207 15.807 98.7333 15.6368 98.6826 15.4695C97.9277 12.9851 95.8065 11.2866 91.9793 11.2866C87.7718 11.2866 85.5405 13.4708 85.5405 16.2165C85.5405 22.0826 94.7842 20.3353 94.7842 22.769C94.7842 23.7362 93.9556 24.3602 92.3298 24.3602Z" fill="#F9FAFB"/>
<path d="M106.65 24.3602C105.101 24.3602 103.97 23.7335 103.412 22.5818C103.344 22.4421 103.187 22.3608 103.033 22.3987L99.8091 23.1944C99.6433 23.2352 99.5413 23.399 99.5906 23.5586C100.407 26.2012 103.137 27.4805 106.491 27.4805C110.794 27.4805 113.248 25.3276 113.248 22.3946C113.248 16.7158 104.036 18.6503 104.036 15.8421C104.036 14.9061 104.833 14.3132 106.267 14.3132C107.695 14.3132 108.651 15.0738 109.109 16.2401C109.166 16.3848 109.318 16.4755 109.474 16.4467L112.765 15.8395C112.941 15.807 113.053 15.6368 113.002 15.4695C112.248 12.9851 110.126 11.2866 106.299 11.2866C102.092 11.2866 99.8606 13.4708 99.8606 16.2165C99.8606 22.0826 109.104 20.3353 109.104 22.769C109.104 23.7362 108.275 24.3602 106.65 24.3602Z" fill="#F9FAFB"/>
<path d="M117.277 26.8737C117.312 27.0101 117.437 27.106 117.581 27.106H122.539C122.684 27.106 122.809 27.0089 122.843 26.8716L125.368 16.4038L127.893 26.8716C127.926 27.0089 128.052 27.106 128.197 27.106H133.315C133.459 27.106 133.584 27.0105 133.618 26.8743L137.354 12.0379C137.402 11.8462 137.253 11.6611 137.05 11.6611H133.527C133.379 11.6611 133.251 11.7625 133.221 11.9038L130.723 23.6738L127.627 11.8899C127.592 11.7553 127.467 11.6611 127.325 11.6611H123.383C123.239 11.6611 123.113 11.7579 123.08 11.895L120.204 23.6738L117.737 11.9045C117.707 11.7629 117.58 11.6611 117.431 11.6611H113.876C113.674 11.6611 113.525 11.8457 113.572 12.0373L117.277 26.8737Z" fill="#F9FAFB"/>
<path d="M145.775 27.4805C150.556 27.4805 153.839 23.8611 153.839 19.3991C153.839 14.9061 150.556 11.2866 145.775 11.2866C141.026 11.2866 137.711 14.9061 137.711 19.3991C137.711 23.8611 141.026 27.4805 145.775 27.4805ZM145.775 23.7675C143.799 23.7675 142.269 22.1449 142.269 19.3991C142.269 16.6534 143.799 14.9997 145.775 14.9997C147.751 14.9997 149.313 16.6534 149.313 19.3991C149.313 22.1449 147.751 23.7675 145.775 23.7675Z" fill="#F9FAFB"/>
<path d="M160.126 18.9311C160.126 16.2789 161.497 15.6549 163.601 15.6549C164.004 15.6549 164.447 15.6939 164.867 15.772C165.045 15.805 165.221 15.6943 165.253 15.5205L165.92 11.846C165.944 11.7169 165.88 11.5861 165.757 11.5347C165.373 11.3756 164.899 11.2866 164.334 11.2866C162.198 11.2866 160.541 12.5035 159.744 14.9684V11.9653C159.744 11.7973 159.604 11.6611 159.432 11.6611H155.976C155.804 11.6611 155.664 11.7973 155.664 11.9653V26.8017C155.664 26.9698 155.804 27.106 155.976 27.106H159.814C159.987 27.106 160.126 26.9698 160.126 26.8017V18.9311Z" fill="#F9FAFB"/>
<path d="M174.167 23.8611C171.872 23.8611 170.661 22.02 170.661 19.3991C170.661 16.7782 171.872 14.9061 174.167 14.9061C176.463 14.9061 177.674 16.7782 177.674 19.3991C177.674 22.02 176.463 23.8611 174.167 23.8611ZM177.929 26.8017C177.929 26.9698 178.068 27.106 178.241 27.106H181.824C181.996 27.106 182.136 26.9698 182.136 26.8017V7.17436C182.136 7.00633 181.996 6.87012 181.824 6.87012H178.114C177.941 6.87012 177.801 7.00633 177.801 7.17436V13.814C176.813 12.0043 175.156 11.2866 173.052 11.2866C168.94 11.2866 166.135 14.7813 166.135 19.3991C166.135 24.017 168.94 27.4805 173.052 27.4805C175.283 27.4805 177.004 26.6067 177.929 24.3602V26.8017Z" fill="#F9FAFB"/>
</svg>