<svg width="131" height="32" viewBox="0 0 131 32" fill="none" xmlns="http://www.w3.org/2000/svg">
<g clip-path="url(#clip0_15816_5797)">
<path d="M13.0591 8.57323C12.9847 8.4703 12.9 8.41602 12.8056 8.41602C12.7279 8.41602 12.6573 8.45221 12.6114 8.48331C11.8961 9.07257 10.9176 11.567 10.1155 14.8549L10.8254 14.8634C12.2279 14.8798 13.6757 14.8973 15.1073 14.9205C14.7303 13.4145 14.3732 12.124 14.0463 11.0818C13.5683 9.5589 13.2458 8.8769 13.0591 8.57323Z" fill="#270741"/>
<path d="M14.6509 2.23438C7.23276 2.23438 1.21924 8.53865 1.21924 16.3155C1.21924 24.0923 7.23276 30.3966 14.6509 30.3966C22.0691 30.3966 28.0827 24.0923 28.0827 16.3155C28.0827 8.53865 22.0691 2.23438 14.6509 2.23438ZM24.3094 16.5711C24.3083 16.5722 24.3072 16.5728 24.3061 16.5739C24.2916 16.5864 24.277 16.5977 24.2614 16.609C24.2565 16.6124 24.2517 16.6163 24.2463 16.6197C24.236 16.6265 24.2252 16.6333 24.215 16.6395C24.2053 16.6458 24.1956 16.6514 24.1858 16.6571C24.1853 16.6576 24.1848 16.6576 24.1842 16.6582C24.0855 16.7125 23.9728 16.7436 23.8536 16.7436C23.8439 16.7436 17.491 16.7436 17.491 16.7436C17.5417 16.9647 17.5973 17.2158 17.6577 17.4889C18.0062 19.0673 18.9329 23.2605 19.9168 23.2605L19.9362 23.2611L19.947 23.2594H19.9659C20.7346 23.2594 21.1268 22.0944 21.9866 19.5417L21.9969 19.5106C22.135 19.1006 22.2908 18.638 22.4597 18.1489L22.5028 18.0239H22.5034C22.5471 17.9017 22.6593 17.8147 22.7914 17.8147C22.9613 17.8147 23.0994 17.9594 23.0994 18.1376C23.0994 18.1698 23.0946 18.2009 23.0865 18.2303L23.0509 18.3558C22.9613 18.6595 22.8659 19.0735 22.7558 19.5525C22.2434 21.7789 21.4693 25.1425 19.4831 25.1425H19.4686C18.1853 25.1317 17.4171 22.9811 17.0892 22.0627C16.4758 20.3453 16.0119 18.5153 15.5642 16.743H9.70711L8.49124 20.8226L8.47344 20.8079C8.36232 20.9911 8.16705 21.1087 7.95182 21.1087C7.61252 21.1087 7.33471 20.8192 7.33309 20.4635L7.33417 20.4414L7.40754 19.98C7.5753 18.9315 7.7765 17.8435 8.0063 16.7436H5.53357L5.5244 16.734C5.0756 16.6661 4.7309 16.251 4.7309 15.767C4.7309 15.2925 5.05132 14.8882 5.49257 14.8062C5.53303 14.8005 5.61502 14.7932 5.7817 14.7932C5.81731 14.7932 5.85722 14.7932 5.902 14.7943C6.68578 14.8084 7.51758 14.8214 8.42975 14.8339C9.72059 9.33488 11.2159 6.54354 12.8746 6.53562C14.6542 6.53562 15.9747 10.7837 17.0314 14.9396L17.0358 14.956C19.2069 15.0018 21.5211 15.068 23.771 15.2371L23.8654 15.2461C23.9016 15.2467 23.9372 15.2506 23.9717 15.2563L23.9846 15.2574C23.9884 15.258 23.9922 15.2591 23.996 15.2603C23.9981 15.2608 23.9997 15.2614 24.0019 15.2614C24.3293 15.3304 24.5721 15.6312 24.5721 15.9932C24.5721 16.225 24.4696 16.4337 24.3094 16.5711Z" fill="#270741"/>
<path d="M35.5361 19.8388L34.4713 22.5974H31.3777L37.2639 8.19336H39.9961L45.8618 22.598H42.7882L41.7233 19.8394H35.5361V19.8388ZM38.6098 11.8364L36.6009 17.0803H40.6585L38.6098 11.8364Z" fill="#270741"/>
<path d="M63.2979 17.0584V22.597H60.5058V17.3112C60.5058 15.7108 59.7625 14.8473 58.4571 14.8473C57.8745 14.8473 57.2315 15.121 56.6489 15.9636C56.6894 16.3216 56.7293 16.6795 56.7293 17.0584V22.597H53.9372V17.3112C53.9372 15.7108 53.1939 14.8473 51.868 14.8473C51.3259 14.8473 50.7228 15.1843 50.1607 15.9845V22.597H47.3687V12.5095H50.1607V13.1202C50.7633 12.5304 51.4063 12.1934 52.531 12.1934C53.7565 12.1934 54.8408 12.6989 55.6046 13.6252C56.629 12.6356 57.5935 12.1934 59.1001 12.1934C61.4498 12.1934 63.2979 14.1099 63.2979 17.0584Z" fill="#270741"/>
<path d="M75.5715 17.5637C75.5715 20.4908 73.4424 22.8071 70.7906 22.8071C69.7058 22.8071 68.8017 22.5124 68.0589 22.0069V27.4612H65.2668V12.5092H68.0589V13.099C68.8023 12.5935 69.7063 12.2988 70.7906 12.2988C73.4419 12.2994 75.5715 14.5948 75.5715 17.5637ZM72.8194 17.5637C72.8194 16.0685 71.775 14.7627 70.3283 14.7627C69.5046 14.7627 68.6809 15.0574 68.0584 15.9418V19.1641C68.6809 20.0276 69.5046 20.3222 70.3283 20.3222C71.7745 20.3228 72.8194 19.038 72.8194 17.5637Z" fill="#270741"/>
<path d="M79.9303 22.5979H77.1382V7.64648H79.9303V22.5979Z" fill="#270741"/>
<path d="M82.4412 8.95167C82.4412 7.96203 83.1845 7.22461 84.1285 7.22461C85.0525 7.22461 85.7959 7.96146 85.7959 8.95167C85.7959 9.92038 85.0525 10.6363 84.1285 10.6363C83.1845 10.6363 82.4412 9.92038 82.4412 8.95167ZM85.5348 12.5104V22.5979H82.7427V12.5104H85.5348Z" fill="#270741"/>
<path d="M95.6786 22.4492C94.5135 22.8281 93.9913 22.9124 93.0873 22.9124C90.757 22.9124 89.2304 21.1853 89.2304 18.5744V14.9733H87.2017V12.5093H89.2304V8.9082H92.0025V12.5093H95.4774V14.9733H92.0025V18.5535C92.0025 19.6907 92.6654 20.2172 93.6898 20.2172C94.212 20.2172 94.7746 20.0911 95.3167 19.9435L95.6786 22.4492Z" fill="#270741"/>
<path d="M106.887 22.5967H104.095V21.8808C103.312 22.5334 102.428 22.9128 101.343 22.9128C98.8121 22.9128 97.1248 20.9963 97.1248 18.0693V12.5098H99.9168V17.7956C99.9168 19.3959 100.68 20.2595 101.986 20.2595C102.689 20.2595 103.452 19.8172 104.095 18.9961V12.5098H106.887V22.5967Z" fill="#270741"/>
<path d="M118.74 22.5979H115.948V22.0081C115.204 22.5137 114.3 22.8083 113.215 22.8083C110.564 22.8083 108.415 20.5129 108.415 17.5434C108.415 14.6164 110.564 12.2995 113.215 12.2995C114.3 12.2995 115.204 12.5941 115.948 13.0997V7.64648H118.74V22.5979ZM115.947 19.1659V15.9436C115.325 15.0801 114.501 14.7854 113.677 14.7854C112.211 14.7854 111.186 16.0703 111.186 17.544C111.186 19.0392 112.21 20.3449 113.677 20.3449C114.501 20.3449 115.325 20.0503 115.947 19.1659Z" fill="#270741"/>
<path d="M130.069 18.3008H122.978C123.199 19.4799 123.942 20.4068 125.469 20.4068C126.252 20.4068 126.795 20.154 127.096 19.6484H130.009C129.487 21.5859 127.679 22.9125 125.409 22.9125C122.315 22.9125 120.226 20.5753 120.226 17.5634C120.226 14.4469 122.295 12.1934 125.328 12.1934C128.08 12.1934 130.129 14.236 130.129 17.353C130.129 17.7743 130.109 18.0056 130.069 18.3008ZM122.998 16.5738H127.357C127.196 15.3104 126.473 14.6154 125.348 14.6154C124.002 14.6154 123.259 15.4365 122.998 16.5738Z" fill="#270741"/>
</g>
<defs>
<clipPath id="clip0_15816_5797">
<rect width="129.333" height="32" fill="white" transform="translate(0.895996)"/>
</clipPath>
</defs>
</svg>
