<svg width="127" height="34" viewBox="0 0 127 34" fill="none" xmlns="http://www.w3.org/2000/svg">
<g clip-path="url(#clip0_15816_5781)">
<path d="M5.04628 15.6076C5.00053 15.5477 4.9401 15.5007 4.87084 15.471C4.80158 15.4413 4.72583 15.43 4.65092 15.4381C4.576 15.4462 4.50446 15.4736 4.44319 15.5175C4.38192 15.5613 4.33301 15.6203 4.30118 15.6886L0.52566 23.2373C0.491265 23.306 0.475026 23.3825 0.478484 23.4593C0.481941 23.5362 0.504982 23.6108 0.545416 23.6763C0.585851 23.7417 0.642339 23.7957 0.709516 23.8332C0.776693 23.8706 0.852329 23.8903 0.929244 23.8903H6.18647C6.27067 23.8923 6.35363 23.8697 6.42527 23.8254C6.49691 23.7812 6.55416 23.717 6.59005 23.6408C7.7241 21.2974 7.03683 17.7343 5.04628 15.6076Z" fill="#270741"/>
<path d="M7.8153 8.74021C6.87454 10.1877 6.32631 11.855 6.2244 13.5783C6.12249 15.3017 6.4704 17.0219 7.23399 18.5702L9.76855 23.6393C9.80603 23.7143 9.86363 23.7773 9.93491 23.8214C10.0062 23.8654 10.0883 23.8888 10.1721 23.8888H15.4284C15.5053 23.8888 15.581 23.8691 15.6481 23.8317C15.7153 23.7942 15.7718 23.7402 15.8122 23.6748C15.8527 23.6093 15.8757 23.5347 15.8792 23.4578C15.8826 23.381 15.8664 23.3045 15.832 23.2357C15.832 23.2357 8.76053 9.09116 8.58282 8.73738C8.54768 8.66536 8.49295 8.60471 8.42492 8.56238C8.35688 8.52005 8.2783 8.49775 8.19817 8.49805C8.11804 8.49835 8.03962 8.52122 7.9719 8.56405C7.90418 8.60689 7.8499 8.66794 7.8153 8.74021Z" fill="#270741"/>
<path d="M69.469 14.7946C69.469 16.6638 70.3361 18.1479 73.7278 18.8031C75.7514 19.2279 76.1753 19.5545 76.1753 20.2291C76.1753 20.8842 75.7505 21.3083 74.3252 21.3083C72.6025 21.2774 70.9143 20.8206 69.4111 19.9786V23.0232C70.4326 23.5243 71.7814 24.0832 74.2867 24.0832C77.8326 24.0832 79.2395 22.5019 79.2395 20.1519L69.469 14.7946ZM79.2395 20.1519C79.2395 17.9357 78.0639 16.8949 74.7493 16.1821C72.9185 15.7773 72.4753 15.3728 72.4753 14.7946C72.4753 14.0629 73.1305 13.754 74.3445 13.754C75.8092 13.754 77.2546 14.1972 78.6228 14.8139V11.9039C77.3109 11.3068 75.882 11.0105 74.4408 11.0368C71.1647 11.0368 69.469 12.4628 69.469 14.7946" fill="#270741"/>
<path d="M115.023 11.2285V23.8897H117.721V14.2349L118.858 16.7977L122.674 23.8897H126.066V11.2285H123.368V19.3996L122.346 17.029L119.282 11.2285H115.023Z" fill="#270741"/>
<path d="M97.8641 11.2285H94.9155V23.8897H97.8641V11.2285Z" fill="#270741"/>
<path d="M91.5134 20.1499C91.5134 17.9337 90.3378 16.8929 87.0232 16.1802C85.1925 15.7754 84.7492 15.3709 84.7492 14.7926C84.7492 14.061 85.4044 13.752 86.6185 13.752C88.0832 13.752 89.5285 14.1953 90.8967 14.812V11.9019C89.5848 11.3048 88.1559 11.0085 86.7148 11.0348C83.4386 11.0348 81.7429 12.4608 81.7429 14.7926C81.7429 16.6619 82.61 18.1459 86.0018 18.8011C88.0253 19.2259 88.4492 19.5526 88.4492 20.2271C88.4492 20.8823 88.0244 21.3064 86.5991 21.3064C84.8765 21.2754 83.1883 20.8186 81.6851 19.9767V23.0213C82.7065 23.5223 84.0553 24.0812 86.5606 24.0812C90.1065 24.0812 91.5134 22.4999 91.5134 20.1499Z" fill="#270741"/>
<path d="M46.5635 11.2285V23.8897H52.6239L53.5781 21.1532H49.5311V11.2285H46.5635Z" fill="#270741"/>
<path d="M34.5903 11.2285V13.9649H37.8665V23.8897H40.8341V13.9649H44.3415V11.2285H34.5903Z" fill="#270741"/>
<path d="M30.2868 11.2285H26.3975L21.9824 23.8897H25.3541L25.98 21.7574C27.5216 22.21 29.1607 22.21 30.7022 21.7574L31.3281 23.8897H34.7005L30.2868 11.2285ZM28.3421 19.4742C27.7928 19.4741 27.2464 19.3955 26.7195 19.2407L28.3421 13.7154L29.9647 19.2426C29.4376 19.3968 28.8912 19.4747 28.3421 19.4742Z" fill="#270741"/>
<path d="M63.0722 11.2285H59.1832L54.7681 23.8897H58.1405L58.7664 21.7574C60.3079 22.21 61.9471 22.21 63.4886 21.7574L64.1145 23.8897H67.4869L63.0722 11.2285ZM61.1277 19.4742C60.5785 19.4741 60.0321 19.3955 59.5051 19.2407L61.1277 13.7154L62.7503 19.2426C62.2233 19.3968 61.6769 19.4747 61.1277 19.4742Z" fill="#270741"/>
<path d="M108.489 11.2285H104.6L100.185 23.8897H103.557L104.183 21.7574C105.725 22.21 107.364 22.21 108.906 21.7574L109.531 23.8897H112.904L108.489 11.2285ZM106.544 19.4742C105.994 19.4741 105.448 19.3955 104.921 19.2407L106.544 13.7154L108.166 19.2426C107.639 19.3968 107.093 19.4747 106.544 19.4742Z" fill="#270741"/>
</g>
<defs>
<clipPath id="clip0_15816_5781">
<rect width="126.083" height="34" fill="white" transform="translate(0.479004)"/>
</clipPath>
</defs>
</svg>
