<svg xmlns="http://www.w3.org/2000/svg" width="127" height="34" viewBox="0 0 127 34" fill="none">
  <g clip-path="url(#clip0_8732_35071)">
    <path d="M5.48622 15.6066C5.44047 15.5468 5.38004 15.4997 5.31078 15.47C5.24152 15.4403 5.16577 15.429 5.09086 15.4371C5.01595 15.4453 4.9444 15.4726 4.88313 15.5165C4.82187 15.5603 4.77295 15.6193 4.74113 15.6876L0.965601 23.2363C0.931207 23.3051 0.914967 23.3815 0.918425 23.4584C0.921883 23.5352 0.944923 23.6099 0.985358 23.6753C1.02579 23.7407 1.08228 23.7947 1.14946 23.8322C1.21663 23.8697 1.29227 23.8893 1.36919 23.8893H6.62641C6.71061 23.8913 6.79357 23.8687 6.86521 23.8245C6.93685 23.7802 6.9941 23.7161 7.02999 23.6399C8.16404 21.2965 7.47677 17.7334 5.48622 15.6066Z" fill="white"/>
    <path d="M8.2528 8.74119C7.31204 10.1887 6.76381 11.8559 6.6619 13.5793C6.55999 15.3026 6.9079 17.0229 7.67149 18.5712L10.2061 23.6403C10.2435 23.7153 10.3011 23.7783 10.3724 23.8224C10.4437 23.8664 10.5258 23.8898 10.6096 23.8898H15.8659C15.9428 23.8898 16.0185 23.8701 16.0856 23.8326C16.1528 23.7952 16.2093 23.7412 16.2497 23.6757C16.2902 23.6103 16.3132 23.5356 16.3167 23.4588C16.3201 23.382 16.3039 23.3055 16.2695 23.2367C16.2695 23.2367 9.19803 9.09214 9.02032 8.73835C8.98518 8.66634 8.93045 8.60569 8.86242 8.56336C8.79438 8.52103 8.7158 8.49873 8.63567 8.49903C8.55554 8.49932 8.47712 8.5222 8.4094 8.56503C8.34168 8.60786 8.2874 8.66892 8.2528 8.74119Z" fill="white"/>
    <path d="M69.9094 14.7936C69.9094 16.6628 70.7765 18.1469 74.1683 18.8021C76.1919 19.2269 76.6157 19.5535 76.6157 20.2281C76.6157 20.8833 76.1909 21.3074 74.7656 21.3074C73.043 21.2764 71.3548 20.8196 69.8516 19.9777V23.0223C70.873 23.5233 72.2219 24.0822 74.7271 24.0822C78.273 24.0822 79.6799 22.5009 79.6799 20.1509L69.9094 14.7936ZM79.6799 20.1509C79.6799 17.9347 78.5043 16.8939 75.1897 16.1811C73.359 15.7764 72.9157 15.3718 72.9157 14.7936C72.9157 14.062 73.5709 13.753 74.785 13.753C76.2497 13.753 77.695 14.1963 79.0632 14.813V11.9029C77.7513 11.3058 76.3225 11.0095 74.8813 11.0358C71.6052 11.0358 69.9094 12.4618 69.9094 14.7936" fill="white"/>
    <path d="M115.461 11.2285V23.8897H118.159V14.2349L119.296 16.7977L123.112 23.8897H126.503V11.2285H123.805V19.3996L122.784 17.029L119.72 11.2285H115.461Z" fill="white"/>
    <path d="M98.304 11.2285H95.3555V23.8897H98.304V11.2285Z" fill="white"/>
    <path d="M91.9533 20.1509C91.9533 17.9347 90.7778 16.8939 87.4632 16.1811C85.6324 15.7764 85.1892 15.3718 85.1892 14.7936C85.1892 14.062 85.8443 13.753 87.0584 13.753C88.5231 13.753 89.9685 14.1963 91.3366 14.813V11.9029C90.0247 11.3058 88.5959 11.0095 87.1547 11.0358C83.8786 11.0358 82.1828 12.4618 82.1828 14.7936C82.1828 16.6628 83.0499 18.1469 86.4417 18.8021C88.4653 19.2269 88.8892 19.5535 88.8892 20.2281C88.8892 20.8833 88.4643 21.3074 87.0391 21.3074C85.3164 21.2764 83.6282 20.8196 82.125 19.9777V23.0223C83.1465 23.5233 84.4953 24.0822 87.0006 24.0822C90.5465 24.0822 91.9533 22.5009 91.9533 20.1509Z" fill="white"/>
    <path d="M47.0039 11.2285V23.8897H53.0643L54.0185 21.1532H49.9716V11.2285H47.0039Z" fill="white"/>
    <path d="M35.0312 11.2285V13.9649H38.3074V23.8897H41.275V13.9649H44.7824V11.2285H35.0312Z" fill="white"/>
    <path d="M30.7263 11.2285H26.837L22.4219 23.8897H25.7936L26.4195 21.7574C27.961 22.21 29.6002 22.21 31.1417 21.7574L31.7676 23.8897H35.14L30.7263 11.2285ZM28.7815 19.4742C28.2323 19.4741 27.6859 19.3955 27.1589 19.2407L28.7815 13.7154L30.4041 19.2426C29.8771 19.3968 29.3307 19.4747 28.7815 19.4742Z" fill="white"/>
    <path d="M63.5112 11.2285H59.6222L55.207 23.8897H58.5794L59.2054 21.7574C60.7469 22.21 62.386 22.21 63.9275 21.7574L64.5534 23.8897H67.9259L63.5112 11.2285ZM61.5667 19.4742C61.0174 19.4741 60.471 19.3955 59.9441 19.2407L61.5667 13.7154L63.1893 19.2426C62.6622 19.3968 62.1158 19.4747 61.5667 19.4742Z" fill="white"/>
    <path d="M108.929 11.2285H105.04L100.625 23.8897H103.997L104.623 21.7574C106.165 22.21 107.804 22.21 109.346 21.7574L109.971 23.8897H113.344L108.929 11.2285ZM106.983 19.4742C106.434 19.4741 105.888 19.3955 105.361 19.2407L106.983 13.7154L108.606 19.2426C108.079 19.3968 107.533 19.4747 106.983 19.4742Z" fill="white"/>
  </g>
  <defs>
    <clipPath id="clip0_8732_35071">
      <rect width="126.083" height="34" fill="white" transform="translate(0.917969)"/>
    </clipPath>
  </defs>
</svg>