<svg width="85" height="48" viewBox="0 0 85 48" fill="none" xmlns="http://www.w3.org/2000/svg">
<path d="M84.4092 27.4546C84.2647 27.4546 84.133 27.5472 84.065 27.7409C83.1937 30.2035 82.0165 31.6684 81.0475 31.6684C80.4908 31.6684 80.2655 31.0538 80.2655 30.0898C80.2655 27.6777 81.7232 22.5631 82.4585 20.2311C82.5435 19.949 82.5988 19.6964 82.5988 19.4818C82.5988 18.804 82.2248 18.4715 81.2982 18.4715C80.2995 18.4715 79.2243 18.8587 78.1787 20.6731C77.8175 19.0734 76.7253 18.3746 75.1995 18.3746C73.4357 18.3746 71.7315 19.4986 70.329 21.3213C68.9265 23.1441 67.2775 23.7418 66.0365 23.4471C66.929 21.2834 67.2605 19.667 67.2605 18.4673C67.2605 16.5856 66.3213 15.449 64.804 15.449C62.4963 15.449 61.166 17.6296 61.166 19.9238C61.166 21.696 61.9778 23.5187 63.7627 24.4027C62.2668 27.7535 60.0822 30.7844 59.2535 30.7844C58.1825 30.7844 57.868 25.594 57.9275 21.8812C57.9657 19.7512 58.1442 19.6417 58.1442 18.9977C58.1442 18.6272 57.902 18.3746 56.9287 18.3746C54.6592 18.3746 53.958 20.2774 53.8517 22.4621C53.8177 23.2914 53.686 24.1165 53.4608 24.9163C52.513 28.2671 50.558 30.8096 49.283 30.8096C48.6922 30.8096 48.5308 30.2245 48.5308 29.4584C48.5308 27.0463 49.895 24.0323 49.895 21.4602C49.895 19.5702 49.0578 18.3746 47.481 18.3746C45.6237 18.3746 43.1673 20.5636 40.8425 24.6637C41.6075 21.5234 41.922 18.4841 39.6567 18.4841C39.1637 18.4925 38.6835 18.6146 38.25 18.8461C37.9525 18.985 37.7698 19.2881 37.791 19.6123C38.0078 22.9546 35.071 31.5168 32.2873 31.5168C31.7815 31.5168 31.535 30.9738 31.535 30.0982C31.535 27.6819 32.9885 22.58 33.7195 20.2437C33.813 19.9406 33.864 19.6796 33.864 19.4523C33.864 18.8124 33.4645 18.4841 32.5592 18.4841C31.5647 18.4841 30.4852 18.8587 29.444 20.6731C29.0785 19.0734 27.9862 18.3746 26.4605 18.3746C23.9572 18.3746 21.1608 20.9972 19.9325 24.4153C18.2878 28.9785 14.9727 33.3859 10.5103 33.3859C6.46 33.3859 4.32225 30.0477 4.32225 24.7732C4.32225 17.1581 9.96625 10.9364 14.1525 10.9364C16.1542 10.9364 17.1105 12.1993 17.1105 14.1356C17.1105 16.4804 15.7887 17.5706 15.7887 18.463C15.7887 18.7367 16.0182 19.0061 16.473 19.0061C18.292 19.0061 20.434 16.8887 20.434 14.0009C20.434 11.1132 18.0667 9 13.8805 9C6.9615 9 0 15.8952 0 24.7311C0 31.761 3.502 36 9.55825 36C13.6892 36 17.2975 32.8176 19.244 29.1048C19.465 32.1819 20.876 33.79 23.0265 33.79C24.939 33.79 26.486 32.6618 27.6675 30.6791C28.1222 32.7544 29.3292 33.7689 30.8975 33.7689C32.6953 33.7689 34.1998 32.6408 35.632 30.5444C35.6107 32.1904 35.989 33.7395 37.4298 33.7395C38.1098 33.7395 38.9215 33.5837 39.066 32.9944C40.5832 26.7811 44.3317 21.7086 45.4792 21.7086C45.8192 21.7086 45.9128 22.0327 45.9128 22.4158C45.9128 24.1038 44.71 27.5641 44.71 29.7741C44.71 32.1609 45.7343 33.7395 47.8507 33.7395C50.1968 33.7395 52.581 30.8938 54.1705 26.7348C54.6677 30.6202 55.743 33.7563 57.426 33.7563C59.4915 33.7563 63.1592 29.45 65.382 24.891C66.2533 25.0005 67.5623 24.971 68.8203 24.0912C68.2848 25.434 67.9703 26.9032 67.9703 28.3723C67.9703 32.6029 70.0103 33.79 71.7655 33.79C73.6737 33.79 75.2207 32.6618 76.4065 30.6791C76.7975 32.4682 77.7962 33.7647 79.6322 33.7647C82.5052 33.7647 85 30.8559 85 28.4691C85 27.8377 84.728 27.4546 84.4092 27.4546ZM24.7775 31.4453C23.6172 31.4453 23.1625 30.2877 23.1625 28.5617C23.1625 25.5645 25.2323 20.5594 27.421 20.5594C28.3773 20.5594 28.7385 21.6749 28.7385 23.0388C28.7385 26.0823 26.7708 31.4453 24.7775 31.4453ZM64.5192 22.5C63.8265 21.6833 63.5757 20.572 63.5757 19.5828C63.5757 18.362 64.0262 17.3307 64.566 17.3307C65.1058 17.3307 65.2715 17.8569 65.2715 18.5893C65.2715 19.8143 64.8295 21.6034 64.5192 22.5ZM73.5165 31.4453C72.3562 31.4453 71.9015 30.1151 71.9015 28.5617C71.9015 25.6698 73.9713 20.5594 76.177 20.5594C77.1332 20.5594 77.4733 21.6665 77.4733 23.0388C77.4733 26.0823 75.5395 31.4453 73.5165 31.4453Z" fill="#270741"/>
<path d="M84.4092 27.4546C84.2647 27.4546 84.133 27.5472 84.065 27.7409C83.1937 30.2035 82.0165 31.6684 81.0475 31.6684C80.4908 31.6684 80.2655 31.0538 80.2655 30.0898C80.2655 27.6777 81.7232 22.5631 82.4585 20.2311C82.5435 19.949 82.5988 19.6964 82.5988 19.4818C82.5988 18.804 82.2248 18.4715 81.2982 18.4715C80.2995 18.4715 79.2243 18.8587 78.1787 20.6731C77.8175 19.0734 76.7253 18.3746 75.1995 18.3746C73.4357 18.3746 71.7315 19.4986 70.329 21.3213C68.9265 23.1441 67.2775 23.7418 66.0365 23.4471C66.929 21.2834 67.2605 19.667 67.2605 18.4673C67.2605 16.5856 66.3213 15.449 64.804 15.449C62.4963 15.449 61.166 17.6296 61.166 19.9238C61.166 21.696 61.9778 23.5187 63.7627 24.4027C62.2668 27.7535 60.0822 30.7844 59.2535 30.7844C58.1825 30.7844 57.868 25.594 57.9275 21.8812C57.9657 19.7512 58.1442 19.6417 58.1442 18.9977C58.1442 18.6272 57.902 18.3746 56.9287 18.3746C54.6592 18.3746 53.958 20.2774 53.8517 22.4621C53.8177 23.2914 53.686 24.1165 53.4608 24.9163C52.513 28.2671 50.558 30.8096 49.283 30.8096C48.6922 30.8096 48.5308 30.2245 48.5308 29.4584C48.5308 27.0463 49.895 24.0323 49.895 21.4602C49.895 19.5702 49.0578 18.3746 47.481 18.3746C45.6237 18.3746 43.1673 20.5636 40.8425 24.6637C41.6075 21.5234 41.922 18.4841 39.6567 18.4841C39.1637 18.4925 38.6835 18.6146 38.25 18.8461C37.9525 18.985 37.7698 19.2881 37.791 19.6123C38.0078 22.9546 35.071 31.5168 32.2873 31.5168C31.7815 31.5168 31.535 30.9738 31.535 30.0982C31.535 27.6819 32.9885 22.58 33.7195 20.2437C33.813 19.9406 33.864 19.6796 33.864 19.4523C33.864 18.8124 33.4645 18.4841 32.5592 18.4841C31.5647 18.4841 30.4852 18.8587 29.444 20.6731C29.0785 19.0734 27.9862 18.3746 26.4605 18.3746C23.9572 18.3746 21.1608 20.9972 19.9325 24.4153C18.2878 28.9785 14.9727 33.3859 10.5103 33.3859C6.46 33.3859 4.32225 30.0477 4.32225 24.7732C4.32225 17.1581 9.96625 10.9364 14.1525 10.9364C16.1542 10.9364 17.1105 12.1993 17.1105 14.1356C17.1105 16.4804 15.7887 17.5706 15.7887 18.463C15.7887 18.7367 16.0182 19.0061 16.473 19.0061C18.292 19.0061 20.434 16.8887 20.434 14.0009C20.434 11.1132 18.0667 9 13.8805 9C6.9615 9 0 15.8952 0 24.7311C0 31.761 3.502 36 9.55825 36C13.6892 36 17.2975 32.8176 19.244 29.1048C19.465 32.1819 20.876 33.79 23.0265 33.79C24.939 33.79 26.486 32.6618 27.6675 30.6791C28.1222 32.7544 29.3292 33.7689 30.8975 33.7689C32.6953 33.7689 34.1998 32.6408 35.632 30.5444C35.6107 32.1904 35.989 33.7395 37.4298 33.7395C38.1098 33.7395 38.9215 33.5837 39.066 32.9944C40.5832 26.7811 44.3317 21.7086 45.4792 21.7086C45.8192 21.7086 45.9128 22.0327 45.9128 22.4158C45.9128 24.1038 44.71 27.5641 44.71 29.7741C44.71 32.1609 45.7343 33.7395 47.8507 33.7395C50.1968 33.7395 52.581 30.8938 54.1705 26.7348C54.6677 30.6202 55.743 33.7563 57.426 33.7563C59.4915 33.7563 63.1592 29.45 65.382 24.891C66.2533 25.0005 67.5623 24.971 68.8203 24.0912C68.2848 25.434 67.9703 26.9032 67.9703 28.3723C67.9703 32.6029 70.0103 33.79 71.7655 33.79C73.6737 33.79 75.2207 32.6618 76.4065 30.6791C76.7975 32.4682 77.7962 33.7647 79.6322 33.7647C82.5052 33.7647 85 30.8559 85 28.4691C85 27.8377 84.728 27.4546 84.4092 27.4546ZM24.7775 31.4453C23.6172 31.4453 23.1625 30.2877 23.1625 28.5617C23.1625 25.5645 25.2323 20.5594 27.421 20.5594C28.3773 20.5594 28.7385 21.6749 28.7385 23.0388C28.7385 26.0823 26.7708 31.4453 24.7775 31.4453ZM64.5192 22.5C63.8265 21.6833 63.5757 20.572 63.5757 19.5828C63.5757 18.362 64.0262 17.3307 64.566 17.3307C65.1058 17.3307 65.2715 17.8569 65.2715 18.5893C65.2715 19.8143 64.8295 21.6034 64.5192 22.5ZM73.5165 31.4453C72.3562 31.4453 71.9015 30.1151 71.9015 28.5617C71.9015 25.6698 73.9713 20.5594 76.177 20.5594C77.1332 20.5594 77.4733 21.6665 77.4733 23.0388C77.4733 26.0823 75.5395 31.4453 73.5165 31.4453Z" fill="#270741"/>
<path d="M84.4092 27.4546C84.2647 27.4546 84.133 27.5472 84.065 27.7409C83.1937 30.2035 82.0165 31.6684 81.0475 31.6684C80.4908 31.6684 80.2655 31.0538 80.2655 30.0898C80.2655 27.6777 81.7232 22.5631 82.4585 20.2311C82.5435 19.949 82.5988 19.6964 82.5988 19.4818C82.5988 18.804 82.2248 18.4715 81.2982 18.4715C80.2995 18.4715 79.2243 18.8587 78.1787 20.6731C77.8175 19.0734 76.7253 18.3746 75.1995 18.3746C73.4357 18.3746 71.7315 19.4986 70.329 21.3213C68.9265 23.1441 67.2775 23.7418 66.0365 23.4471C66.929 21.2834 67.2605 19.667 67.2605 18.4673C67.2605 16.5856 66.3213 15.449 64.804 15.449C62.4963 15.449 61.166 17.6296 61.166 19.9238C61.166 21.696 61.9778 23.5187 63.7627 24.4027C62.2668 27.7535 60.0822 30.7844 59.2535 30.7844C58.1825 30.7844 57.868 25.594 57.9275 21.8812C57.9657 19.7512 58.1442 19.6417 58.1442 18.9977C58.1442 18.6272 57.902 18.3746 56.9287 18.3746C54.6592 18.3746 53.958 20.2774 53.8517 22.4621C53.8177 23.2914 53.686 24.1165 53.4608 24.9163C52.513 28.2671 50.558 30.8096 49.283 30.8096C48.6922 30.8096 48.5308 30.2245 48.5308 29.4584C48.5308 27.0463 49.895 24.0323 49.895 21.4602C49.895 19.5702 49.0578 18.3746 47.481 18.3746C45.6237 18.3746 43.1673 20.5636 40.8425 24.6637C41.6075 21.5234 41.922 18.4841 39.6567 18.4841C39.1637 18.4925 38.6835 18.6146 38.25 18.8461C37.9525 18.985 37.7698 19.2881 37.791 19.6123C38.0078 22.9546 35.071 31.5168 32.2873 31.5168C31.7815 31.5168 31.535 30.9738 31.535 30.0982C31.535 27.6819 32.9885 22.58 33.7195 20.2437C33.813 19.9406 33.864 19.6796 33.864 19.4523C33.864 18.8124 33.4645 18.4841 32.5592 18.4841C31.5647 18.4841 30.4852 18.8587 29.444 20.6731C29.0785 19.0734 27.9862 18.3746 26.4605 18.3746C23.9572 18.3746 21.1608 20.9972 19.9325 24.4153C18.2878 28.9785 14.9727 33.3859 10.5103 33.3859C6.46 33.3859 4.32225 30.0477 4.32225 24.7732C4.32225 17.1581 9.96625 10.9364 14.1525 10.9364C16.1542 10.9364 17.1105 12.1993 17.1105 14.1356C17.1105 16.4804 15.7887 17.5706 15.7887 18.463C15.7887 18.7367 16.0182 19.0061 16.473 19.0061C18.292 19.0061 20.434 16.8887 20.434 14.0009C20.434 11.1132 18.0667 9 13.8805 9C6.9615 9 0 15.8952 0 24.7311C0 31.761 3.502 36 9.55825 36C13.6892 36 17.2975 32.8176 19.244 29.1048C19.465 32.1819 20.876 33.79 23.0265 33.79C24.939 33.79 26.486 32.6618 27.6675 30.6791C28.1222 32.7544 29.3292 33.7689 30.8975 33.7689C32.6953 33.7689 34.1998 32.6408 35.632 30.5444C35.6107 32.1904 35.989 33.7395 37.4298 33.7395C38.1098 33.7395 38.9215 33.5837 39.066 32.9944C40.5832 26.7811 44.3317 21.7086 45.4792 21.7086C45.8192 21.7086 45.9128 22.0327 45.9128 22.4158C45.9128 24.1038 44.71 27.5641 44.71 29.7741C44.71 32.1609 45.7343 33.7395 47.8507 33.7395C50.1968 33.7395 52.581 30.8938 54.1705 26.7348C54.6677 30.6202 55.743 33.7563 57.426 33.7563C59.4915 33.7563 63.1592 29.45 65.382 24.891C66.2533 25.0005 67.5623 24.971 68.8203 24.0912C68.2848 25.434 67.9703 26.9032 67.9703 28.3723C67.9703 32.6029 70.0103 33.79 71.7655 33.79C73.6737 33.79 75.2207 32.6618 76.4065 30.6791C76.7975 32.4682 77.7962 33.7647 79.6322 33.7647C82.5052 33.7647 85 30.8559 85 28.4691C85 27.8377 84.728 27.4546 84.4092 27.4546ZM24.7775 31.4453C23.6172 31.4453 23.1625 30.2877 23.1625 28.5617C23.1625 25.5645 25.2323 20.5594 27.421 20.5594C28.3773 20.5594 28.7385 21.6749 28.7385 23.0388C28.7385 26.0823 26.7708 31.4453 24.7775 31.4453ZM64.5192 22.5C63.8265 21.6833 63.5757 20.572 63.5757 19.5828C63.5757 18.362 64.0262 17.3307 64.566 17.3307C65.1058 17.3307 65.2715 17.8569 65.2715 18.5893C65.2715 19.8143 64.8295 21.6034 64.5192 22.5ZM73.5165 31.4453C72.3562 31.4453 71.9015 30.1151 71.9015 28.5617C71.9015 25.6698 73.9713 20.5594 76.177 20.5594C77.1332 20.5594 77.4733 21.6665 77.4733 23.0388C77.4733 26.0823 75.5395 31.4453 73.5165 31.4453Z" fill="#270741"/>
<path d="M84.4092 27.4546C84.2647 27.4546 84.133 27.5472 84.065 27.7409C83.1937 30.2035 82.0165 31.6684 81.0475 31.6684C80.4908 31.6684 80.2655 31.0538 80.2655 30.0898C80.2655 27.6777 81.7232 22.5631 82.4585 20.2311C82.5435 19.949 82.5988 19.6964 82.5988 19.4818C82.5988 18.804 82.2248 18.4715 81.2982 18.4715C80.2995 18.4715 79.2243 18.8587 78.1787 20.6731C77.8175 19.0734 76.7253 18.3746 75.1995 18.3746C73.4357 18.3746 71.7315 19.4986 70.329 21.3213C68.9265 23.1441 67.2775 23.7418 66.0365 23.4471C66.929 21.2834 67.2605 19.667 67.2605 18.4673C67.2605 16.5856 66.3213 15.449 64.804 15.449C62.4963 15.449 61.166 17.6296 61.166 19.9238C61.166 21.696 61.9778 23.5187 63.7627 24.4027C62.2668 27.7535 60.0822 30.7844 59.2535 30.7844C58.1825 30.7844 57.868 25.594 57.9275 21.8812C57.9657 19.7512 58.1442 19.6417 58.1442 18.9977C58.1442 18.6272 57.902 18.3746 56.9287 18.3746C54.6592 18.3746 53.958 20.2774 53.8517 22.4621C53.8177 23.2914 53.686 24.1165 53.4608 24.9163C52.513 28.2671 50.558 30.8096 49.283 30.8096C48.6922 30.8096 48.5308 30.2245 48.5308 29.4584C48.5308 27.0463 49.895 24.0323 49.895 21.4602C49.895 19.5702 49.0578 18.3746 47.481 18.3746C45.6237 18.3746 43.1673 20.5636 40.8425 24.6637C41.6075 21.5234 41.922 18.4841 39.6567 18.4841C39.1637 18.4925 38.6835 18.6146 38.25 18.8461C37.9525 18.985 37.7698 19.2881 37.791 19.6123C38.0078 22.9546 35.071 31.5168 32.2873 31.5168C31.7815 31.5168 31.535 30.9738 31.535 30.0982C31.535 27.6819 32.9885 22.58 33.7195 20.2437C33.813 19.9406 33.864 19.6796 33.864 19.4523C33.864 18.8124 33.4645 18.4841 32.5592 18.4841C31.5647 18.4841 30.4852 18.8587 29.444 20.6731C29.0785 19.0734 27.9862 18.3746 26.4605 18.3746C23.9572 18.3746 21.1608 20.9972 19.9325 24.4153C18.2878 28.9785 14.9727 33.3859 10.5103 33.3859C6.46 33.3859 4.32225 30.0477 4.32225 24.7732C4.32225 17.1581 9.96625 10.9364 14.1525 10.9364C16.1542 10.9364 17.1105 12.1993 17.1105 14.1356C17.1105 16.4804 15.7887 17.5706 15.7887 18.463C15.7887 18.7367 16.0182 19.0061 16.473 19.0061C18.292 19.0061 20.434 16.8887 20.434 14.0009C20.434 11.1132 18.0667 9 13.8805 9C6.9615 9 0 15.8952 0 24.7311C0 31.761 3.502 36 9.55825 36C13.6892 36 17.2975 32.8176 19.244 29.1048C19.465 32.1819 20.876 33.79 23.0265 33.79C24.939 33.79 26.486 32.6618 27.6675 30.6791C28.1222 32.7544 29.3292 33.7689 30.8975 33.7689C32.6953 33.7689 34.1998 32.6408 35.632 30.5444C35.6107 32.1904 35.989 33.7395 37.4298 33.7395C38.1098 33.7395 38.9215 33.5837 39.066 32.9944C40.5832 26.7811 44.3317 21.7086 45.4792 21.7086C45.8192 21.7086 45.9128 22.0327 45.9128 22.4158C45.9128 24.1038 44.71 27.5641 44.71 29.7741C44.71 32.1609 45.7343 33.7395 47.8507 33.7395C50.1968 33.7395 52.581 30.8938 54.1705 26.7348C54.6677 30.6202 55.743 33.7563 57.426 33.7563C59.4915 33.7563 63.1592 29.45 65.382 24.891C66.2533 25.0005 67.5623 24.971 68.8203 24.0912C68.2848 25.434 67.9703 26.9032 67.9703 28.3723C67.9703 32.6029 70.0103 33.79 71.7655 33.79C73.6737 33.79 75.2207 32.6618 76.4065 30.6791C76.7975 32.4682 77.7962 33.7647 79.6322 33.7647C82.5052 33.7647 85 30.8559 85 28.4691C85 27.8377 84.728 27.4546 84.4092 27.4546ZM24.7775 31.4453C23.6172 31.4453 23.1625 30.2877 23.1625 28.5617C23.1625 25.5645 25.2323 20.5594 27.421 20.5594C28.3773 20.5594 28.7385 21.6749 28.7385 23.0388C28.7385 26.0823 26.7708 31.4453 24.7775 31.4453ZM64.5192 22.5C63.8265 21.6833 63.5757 20.572 63.5757 19.5828C63.5757 18.362 64.0262 17.3307 64.566 17.3307C65.1058 17.3307 65.2715 17.8569 65.2715 18.5893C65.2715 19.8143 64.8295 21.6034 64.5192 22.5ZM73.5165 31.4453C72.3562 31.4453 71.9015 30.1151 71.9015 28.5617C71.9015 25.6698 73.9713 20.5594 76.177 20.5594C77.1332 20.5594 77.4733 21.6665 77.4733 23.0388C77.4733 26.0823 75.5395 31.4453 73.5165 31.4453Z" fill="#270741"/>
<path d="M84.4092 27.4546C84.2647 27.4546 84.133 27.5472 84.065 27.7409C83.1937 30.2035 82.0165 31.6684 81.0475 31.6684C80.4908 31.6684 80.2655 31.0538 80.2655 30.0898C80.2655 27.6777 81.7232 22.5631 82.4585 20.2311C82.5435 19.949 82.5988 19.6964 82.5988 19.4818C82.5988 18.804 82.2248 18.4715 81.2982 18.4715C80.2995 18.4715 79.2243 18.8587 78.1787 20.6731C77.8175 19.0734 76.7253 18.3746 75.1995 18.3746C73.4357 18.3746 71.7315 19.4986 70.329 21.3213C68.9265 23.1441 67.2775 23.7418 66.0365 23.4471C66.929 21.2834 67.2605 19.667 67.2605 18.4673C67.2605 16.5856 66.3213 15.449 64.804 15.449C62.4963 15.449 61.166 17.6296 61.166 19.9238C61.166 21.696 61.9778 23.5187 63.7627 24.4027C62.2668 27.7535 60.0822 30.7844 59.2535 30.7844C58.1825 30.7844 57.868 25.594 57.9275 21.8812C57.9657 19.7512 58.1442 19.6417 58.1442 18.9977C58.1442 18.6272 57.902 18.3746 56.9287 18.3746C54.6592 18.3746 53.958 20.2774 53.8517 22.4621C53.8177 23.2914 53.686 24.1165 53.4608 24.9163C52.513 28.2671 50.558 30.8096 49.283 30.8096C48.6922 30.8096 48.5308 30.2245 48.5308 29.4584C48.5308 27.0463 49.895 24.0323 49.895 21.4602C49.895 19.5702 49.0578 18.3746 47.481 18.3746C45.6237 18.3746 43.1673 20.5636 40.8425 24.6637C41.6075 21.5234 41.922 18.4841 39.6567 18.4841C39.1637 18.4925 38.6835 18.6146 38.25 18.8461C37.9525 18.985 37.7698 19.2881 37.791 19.6123C38.0078 22.9546 35.071 31.5168 32.2873 31.5168C31.7815 31.5168 31.535 30.9738 31.535 30.0982C31.535 27.6819 32.9885 22.58 33.7195 20.2437C33.813 19.9406 33.864 19.6796 33.864 19.4523C33.864 18.8124 33.4645 18.4841 32.5592 18.4841C31.5647 18.4841 30.4852 18.8587 29.444 20.6731C29.0785 19.0734 27.9862 18.3746 26.4605 18.3746C23.9572 18.3746 21.1608 20.9972 19.9325 24.4153C18.2878 28.9785 14.9727 33.3859 10.5103 33.3859C6.46 33.3859 4.32225 30.0477 4.32225 24.7732C4.32225 17.1581 9.96625 10.9364 14.1525 10.9364C16.1542 10.9364 17.1105 12.1993 17.1105 14.1356C17.1105 16.4804 15.7887 17.5706 15.7887 18.463C15.7887 18.7367 16.0182 19.0061 16.473 19.0061C18.292 19.0061 20.434 16.8887 20.434 14.0009C20.434 11.1132 18.0667 9 13.8805 9C6.9615 9 0 15.8952 0 24.7311C0 31.761 3.502 36 9.55825 36C13.6892 36 17.2975 32.8176 19.244 29.1048C19.465 32.1819 20.876 33.79 23.0265 33.79C24.939 33.79 26.486 32.6618 27.6675 30.6791C28.1222 32.7544 29.3292 33.7689 30.8975 33.7689C32.6953 33.7689 34.1998 32.6408 35.632 30.5444C35.6107 32.1904 35.989 33.7395 37.4298 33.7395C38.1098 33.7395 38.9215 33.5837 39.066 32.9944C40.5832 26.7811 44.3317 21.7086 45.4792 21.7086C45.8192 21.7086 45.9128 22.0327 45.9128 22.4158C45.9128 24.1038 44.71 27.5641 44.71 29.7741C44.71 32.1609 45.7343 33.7395 47.8507 33.7395C50.1968 33.7395 52.581 30.8938 54.1705 26.7348C54.6677 30.6202 55.743 33.7563 57.426 33.7563C59.4915 33.7563 63.1592 29.45 65.382 24.891C66.2533 25.0005 67.5623 24.971 68.8203 24.0912C68.2848 25.434 67.9703 26.9032 67.9703 28.3723C67.9703 32.6029 70.0103 33.79 71.7655 33.79C73.6737 33.79 75.2207 32.6618 76.4065 30.6791C76.7975 32.4682 77.7962 33.7647 79.6322 33.7647C82.5052 33.7647 85 30.8559 85 28.4691C85 27.8377 84.728 27.4546 84.4092 27.4546ZM24.7775 31.4453C23.6172 31.4453 23.1625 30.2877 23.1625 28.5617C23.1625 25.5645 25.2323 20.5594 27.421 20.5594C28.3773 20.5594 28.7385 21.6749 28.7385 23.0388C28.7385 26.0823 26.7708 31.4453 24.7775 31.4453ZM64.5192 22.5C63.8265 21.6833 63.5757 20.572 63.5757 19.5828C63.5757 18.362 64.0262 17.3307 64.566 17.3307C65.1058 17.3307 65.2715 17.8569 65.2715 18.5893C65.2715 19.8143 64.8295 21.6034 64.5192 22.5ZM73.5165 31.4453C72.3562 31.4453 71.9015 30.1151 71.9015 28.5617C71.9015 25.6698 73.9713 20.5594 76.177 20.5594C77.1332 20.5594 77.4733 21.6665 77.4733 23.0388C77.4733 26.0823 75.5395 31.4453 73.5165 31.4453Z" fill="#270741"/>
<path d="M84.4092 27.4546C84.2647 27.4546 84.133 27.5472 84.065 27.7409C83.1937 30.2035 82.0165 31.6684 81.0475 31.6684C80.4908 31.6684 80.2655 31.0538 80.2655 30.0898C80.2655 27.6777 81.7232 22.5631 82.4585 20.2311C82.5435 19.949 82.5988 19.6964 82.5988 19.4818C82.5988 18.804 82.2248 18.4715 81.2982 18.4715C80.2995 18.4715 79.2243 18.8587 78.1787 20.6731C77.8175 19.0734 76.7253 18.3746 75.1995 18.3746C73.4357 18.3746 71.7315 19.4986 70.329 21.3213C68.9265 23.1441 67.2775 23.7418 66.0365 23.4471C66.929 21.2834 67.2605 19.667 67.2605 18.4673C67.2605 16.5856 66.3213 15.449 64.804 15.449C62.4963 15.449 61.166 17.6296 61.166 19.9238C61.166 21.696 61.9778 23.5187 63.7627 24.4027C62.2668 27.7535 60.0822 30.7844 59.2535 30.7844C58.1825 30.7844 57.868 25.594 57.9275 21.8812C57.9657 19.7512 58.1442 19.6417 58.1442 18.9977C58.1442 18.6272 57.902 18.3746 56.9287 18.3746C54.6592 18.3746 53.958 20.2774 53.8517 22.4621C53.8177 23.2914 53.686 24.1165 53.4608 24.9163C52.513 28.2671 50.558 30.8096 49.283 30.8096C48.6922 30.8096 48.5308 30.2245 48.5308 29.4584C48.5308 27.0463 49.895 24.0323 49.895 21.4602C49.895 19.5702 49.0578 18.3746 47.481 18.3746C45.6237 18.3746 43.1673 20.5636 40.8425 24.6637C41.6075 21.5234 41.922 18.4841 39.6567 18.4841C39.1637 18.4925 38.6835 18.6146 38.25 18.8461C37.9525 18.985 37.7698 19.2881 37.791 19.6123C38.0078 22.9546 35.071 31.5168 32.2873 31.5168C31.7815 31.5168 31.535 30.9738 31.535 30.0982C31.535 27.6819 32.9885 22.58 33.7195 20.2437C33.813 19.9406 33.864 19.6796 33.864 19.4523C33.864 18.8124 33.4645 18.4841 32.5592 18.4841C31.5647 18.4841 30.4852 18.8587 29.444 20.6731C29.0785 19.0734 27.9862 18.3746 26.4605 18.3746C23.9572 18.3746 21.1608 20.9972 19.9325 24.4153C18.2878 28.9785 14.9727 33.3859 10.5103 33.3859C6.46 33.3859 4.32225 30.0477 4.32225 24.7732C4.32225 17.1581 9.96625 10.9364 14.1525 10.9364C16.1542 10.9364 17.1105 12.1993 17.1105 14.1356C17.1105 16.4804 15.7887 17.5706 15.7887 18.463C15.7887 18.7367 16.0182 19.0061 16.473 19.0061C18.292 19.0061 20.434 16.8887 20.434 14.0009C20.434 11.1132 18.0667 9 13.8805 9C6.9615 9 0 15.8952 0 24.7311C0 31.761 3.502 36 9.55825 36C13.6892 36 17.2975 32.8176 19.244 29.1048C19.465 32.1819 20.876 33.79 23.0265 33.79C24.939 33.79 26.486 32.6618 27.6675 30.6791C28.1222 32.7544 29.3292 33.7689 30.8975 33.7689C32.6953 33.7689 34.1998 32.6408 35.632 30.5444C35.6107 32.1904 35.989 33.7395 37.4298 33.7395C38.1098 33.7395 38.9215 33.5837 39.066 32.9944C40.5832 26.7811 44.3317 21.7086 45.4792 21.7086C45.8192 21.7086 45.9128 22.0327 45.9128 22.4158C45.9128 24.1038 44.71 27.5641 44.71 29.7741C44.71 32.1609 45.7343 33.7395 47.8507 33.7395C50.1968 33.7395 52.581 30.8938 54.1705 26.7348C54.6677 30.6202 55.743 33.7563 57.426 33.7563C59.4915 33.7563 63.1592 29.45 65.382 24.891C66.2533 25.0005 67.5623 24.971 68.8203 24.0912C68.2848 25.434 67.9703 26.9032 67.9703 28.3723C67.9703 32.6029 70.0103 33.79 71.7655 33.79C73.6737 33.79 75.2207 32.6618 76.4065 30.6791C76.7975 32.4682 77.7962 33.7647 79.6322 33.7647C82.5052 33.7647 85 30.8559 85 28.4691C85 27.8377 84.728 27.4546 84.4092 27.4546ZM24.7775 31.4453C23.6172 31.4453 23.1625 30.2877 23.1625 28.5617C23.1625 25.5645 25.2323 20.5594 27.421 20.5594C28.3773 20.5594 28.7385 21.6749 28.7385 23.0388C28.7385 26.0823 26.7708 31.4453 24.7775 31.4453ZM64.5192 22.5C63.8265 21.6833 63.5757 20.572 63.5757 19.5828C63.5757 18.362 64.0262 17.3307 64.566 17.3307C65.1058 17.3307 65.2715 17.8569 65.2715 18.5893C65.2715 19.8143 64.8295 21.6034 64.5192 22.5ZM73.5165 31.4453C72.3562 31.4453 71.9015 30.1151 71.9015 28.5617C71.9015 25.6698 73.9713 20.5594 76.177 20.5594C77.1332 20.5594 77.4733 21.6665 77.4733 23.0388C77.4733 26.0823 75.5395 31.4453 73.5165 31.4453Z" fill="#270741"/>
</svg>
