<svg width="125" height="37" viewBox="0 0 125 37" fill="none" xmlns="http://www.w3.org/2000/svg">
<path d="M17.165 6.51891C15.8899 6.44026 14.6158 6.68638 13.4619 7.23437C12.308 7.78236 11.3122 8.61425 10.5679 9.65214C8.89586 12.2773 8.09252 15.3617 8.27169 18.4685C8.27169 26.3013 11.224 30.2359 17.0921 30.2359C20.1634 30.1187 23.1935 29.4907 26.0583 28.3779V34.6077C22.9927 35.8533 19.7086 36.4728 16.3996 36.4293C14.232 36.5572 12.0629 36.2057 10.0469 35.3997C8.03085 34.5936 6.21754 33.3529 4.73624 31.7661C1.80843 27.962 0.369896 23.2208 0.690518 18.4321C0.617366 15.1191 1.29 11.8322 2.6587 8.81418C3.90592 6.18583 5.91157 3.99078 8.41748 2.51143C11.0907 1.04187 14.117 0.33595 17.165 0.471337C20.7341 0.511346 24.2481 1.35835 27.4433 2.94868L25.1471 8.85059C23.8755 8.21168 22.56 7.66382 21.2107 7.21121C19.9129 6.74609 18.5436 6.51185 17.165 6.51891Z" fill="#270741"/>
<path d="M53.8681 35.9556H33.603V0.799106H53.8681V6.91964H41.0748V14.6431H52.9569V20.7271H41.0748V29.7987H53.8681V35.9556Z" fill="#270741"/>
<path d="M68.6295 22.33V35.8097H61.34V0.798855H71.436C75.1612 0.516437 78.8788 1.4359 82.0423 3.42199C83.2228 4.37032 84.1524 5.59364 84.7497 6.98467C85.347 8.3757 85.5939 9.89196 85.4684 11.4005C85.5054 13.3822 84.905 15.3233 83.7554 16.9382C82.5159 18.5701 80.8516 19.8303 78.9443 20.5812C84.2292 28.4869 87.6919 33.5873 89.259 35.919H81.0218L72.5295 22.33H68.6295ZM68.6295 16.2459H71.0351C72.8109 16.4118 74.5966 16.0573 76.1742 15.2258C76.7313 14.8027 77.1756 14.249 77.4679 13.6137C77.7604 12.9782 77.8918 12.2807 77.8508 11.5826C77.9281 10.8767 77.8091 10.1631 77.5068 9.52036C77.2046 8.87761 76.7308 8.33061 76.1378 7.93956C74.4781 7.11597 72.6283 6.75118 70.78 6.88297H68.5202L68.6295 16.2459Z" fill="#270741"/>
<path d="M124.905 35.9556H115.429L100.121 9.36057H99.9019C100.193 14.0602 100.376 17.4119 100.376 19.4156V35.9556H93.7057V0.799106H103.109L118.381 27.1391C118.162 22.5487 118.016 19.3428 118.016 17.4484V0.799106H124.759L124.905 35.9556Z" fill="#270741"/>
</svg>
