<svg width="78" height="48" viewBox="0 0 78 48" fill="none" xmlns="http://www.w3.org/2000/svg">
<g opacity="0.8">
<path d="M10.3691 14.8742C9.56867 14.8239 8.76889 14.9812 8.04457 15.3313C7.32025 15.6814 6.69516 16.2129 6.22793 16.876C5.17835 18.5531 4.67407 20.5237 4.78654 22.5087C4.78654 27.5129 6.63976 30.0267 10.3233 30.0267C12.2512 29.9519 14.1534 29.5506 15.9517 28.8397V32.8198C14.0273 33.6156 11.9658 34.0114 9.88862 33.9836C8.528 34.0653 7.16636 33.8408 5.90087 33.3258C4.63535 32.8108 3.4971 32.0181 2.56725 31.0043C0.729383 28.5739 -0.173621 25.5449 0.027641 22.4854C-0.0182785 20.3688 0.403951 18.2688 1.26312 16.3406C2.04604 14.6614 3.30503 13.259 4.87806 12.3139C6.55611 11.375 8.4558 10.924 10.3691 11.0105C12.6095 11.036 14.8153 11.5772 16.8211 12.5932L15.3797 16.3639C14.5814 15.9557 13.7557 15.6057 12.9087 15.3165C12.094 15.0193 11.2345 14.8697 10.3691 14.8742Z" fill="white"/>
<path d="M33.4086 33.681H20.6877V11.2199H33.4086V15.1302H25.3779V20.0647H32.8366V23.9517H25.3779V29.7474H33.4086V33.681Z" fill="white"/>
<path d="M42.6747 24.9757V33.5878H38.0989V11.2197H44.4364C46.7748 11.0393 49.1084 11.6267 51.0943 12.8956C51.8353 13.5015 52.4188 14.283 52.7938 15.1718C53.1687 16.0605 53.3237 17.0292 53.2449 17.993C53.2682 19.2591 52.8912 20.4992 52.1696 21.5309C51.3915 22.5736 50.3468 23.3787 49.1496 23.8584C52.4671 28.9093 54.6406 32.1679 55.6244 33.6576H50.4537L45.1228 24.9757H42.6747ZM42.6747 21.0886H44.1848C45.2995 21.1947 46.4204 20.9682 47.4107 20.4369C47.7604 20.1666 48.0393 19.8129 48.2228 19.407C48.4064 19.001 48.4889 18.5554 48.4632 18.1093C48.5116 17.6583 48.437 17.2024 48.2472 16.7918C48.0575 16.3811 47.7601 16.0317 47.3879 15.7818C46.346 15.2556 45.1848 15.0226 44.0246 15.1068H42.6061L42.6747 21.0886Z" fill="white"/>
<path d="M78 33.681H72.0517L62.4425 16.6897H62.3052C62.4882 19.6923 62.6026 21.8336 62.6026 23.1138V33.681H58.4157V11.2199H64.3186L73.905 28.0482C73.7677 25.1155 73.6762 23.0672 73.6762 21.8569V11.2199H77.9088L78 33.681Z" fill="white"/>
</g>
</svg>
