<svg xmlns="http://www.w3.org/2000/svg" width="82" height="30" viewBox="0 0 82 30" fill="none">
<g clip-path="url(#clip0_225_1827)">
<path d="M66.0183 21.4197V29.8621C65.6098 30.0095 63.7053 30.046 62.9244 29.935C62.9104 29.9207 62.8963 29.9065 62.8853 29.8906C62.8744 29.8748 62.8603 29.8573 62.8587 29.8399C62.8478 29.702 62.8305 29.5641 62.8305 29.4278C62.8305 21.843 62.8337 14.2582 62.8368 6.67336C62.8368 6.61788 62.8665 6.5624 62.8806 6.51168C63.3 6.40072 65.0449 6.3706 65.9369 6.45937C66.1137 6.84455 65.9979 7.26302 66.0183 7.66723C66.0386 8.05717 66.023 8.4487 66.023 8.86241C66.4408 8.47247 66.8054 8.09521 67.2076 7.76075C68.1904 6.94442 69.3015 6.38328 70.5628 6.18673C71.3046 6.07101 72.062 5.94579 72.8053 5.97749C75.4297 6.08845 77.7082 7.03477 79.4609 9.07482C80.4969 10.2811 81.1291 11.714 81.3576 13.2817C81.6095 15.0095 81.5548 16.7405 80.9851 18.4239C80.2887 20.4798 78.9883 22.011 77.1104 23.0524C76.0024 23.6674 74.8288 24.0241 73.569 24.1858C71.2263 24.4869 69.1168 23.9512 67.2217 22.5499C66.8148 22.2503 66.4768 21.8541 66.0198 21.4197H66.0183ZM72.1105 9.0019C71.5299 9.06055 70.9446 9.08274 70.3719 9.18736C68.9619 9.44256 67.8555 10.186 67.0355 11.3875C66.2421 12.5478 66.0621 13.8793 66.0511 15.2187C66.0449 15.9305 66.1356 16.6675 66.3579 17.3745C66.9478 19.2465 68.1231 20.5051 70.0026 21.0441C71.2842 21.4118 72.5925 21.4055 73.882 21.1328C75.5408 20.7825 76.7865 19.8457 77.5314 18.2654C77.8819 17.5235 78.0087 16.742 78.1166 15.9336C78.245 14.9699 78.1526 14.0362 77.9351 13.1232C77.4828 11.2322 76.3139 9.96883 74.4782 9.36331C73.7114 9.11128 72.9258 8.98447 72.1105 9.00349V9.0019Z" fill="#F9FAFB"/>
<path d="M39.8498 23.5549C38.7543 23.5422 37.7653 23.5708 36.7152 23.5327C36.5994 22.7401 36.7121 21.9904 36.6323 21.1788C36.4351 21.3706 36.2802 21.5133 36.1331 21.6654C34.8217 23.0112 33.213 23.8022 31.3851 24.0051C29.116 24.2555 26.9549 23.8291 25.0175 22.5166C23.9768 21.8113 23.174 20.8871 22.5387 19.8013C21.4855 18.0022 21.1459 16.0383 21.293 13.9855C21.4057 12.4083 21.8783 10.9294 22.7578 9.60266C23.7374 8.12692 25.0848 7.11561 26.6888 6.44193C27.7624 5.99017 28.8891 5.80947 30.055 5.81422C30.9939 5.81739 31.9282 5.838 32.8358 6.1043C34.1519 6.48949 35.3068 7.16316 36.2911 8.13484C36.385 8.22836 36.4852 8.31396 36.6699 8.48198V0.0887668C37.7262 -0.0697453 38.734 0.0618197 39.8044 0C39.8232 0.234598 39.8498 0.421642 39.8498 0.608686C39.8545 1.77692 39.8513 2.94515 39.8513 4.11339C39.8513 10.3318 39.8513 16.5502 39.8513 22.7687C39.8513 23.0017 39.8513 23.2347 39.8513 23.5549H39.8498ZM36.7231 14.8637C36.7152 13.762 36.4805 12.6619 36.0298 11.7267C35.709 11.061 35.2489 10.4745 34.6793 10.0116C33.5635 9.10652 32.2537 8.78633 30.8687 8.71341C29.9689 8.66586 29.0738 8.78633 28.2224 9.08274C27.127 9.46317 26.1928 10.102 25.5684 11.1165C24.9361 12.1436 24.6325 13.2881 24.595 14.4896C24.5762 15.1173 24.62 15.7545 24.7108 16.3759C24.9408 17.9578 25.6779 19.2481 27.0237 20.1263C28.0018 20.7651 29.1144 20.9759 30.2537 21.0346C31.1739 21.0821 32.0847 20.9712 32.961 20.6763C34.227 20.2515 35.2411 19.4891 35.9062 18.2923C36.4633 17.2905 36.7309 16.0763 36.7231 14.8637Z" fill="#F9FAFB"/>
<path d="M46.305 24.0098H43.3505C43.3192 23.9781 43.3051 23.9639 43.2926 23.948C43.2801 23.9337 43.2644 23.9179 43.2597 23.9005C43.2472 23.8434 43.23 23.7847 43.23 23.7261C43.2284 17.9436 43.2284 12.161 43.23 6.37853C43.23 6.30244 43.2519 6.22636 43.2613 6.17246C43.2941 6.13759 43.3051 6.12015 43.3207 6.10906C43.3364 6.09796 43.3552 6.08369 43.3708 6.08369C46.6744 6.0726 49.9763 6.06309 53.2799 6.05358C53.4144 6.05358 53.5506 6.06943 53.6789 6.07735C53.8338 6.5196 53.8448 8.43443 53.6789 9.01934C53.1093 9.08591 52.5084 9.04153 51.9106 9.04946C51.2846 9.05738 50.6586 9.05104 50.0342 9.05104H46.4083C46.2409 9.29198 46.3082 9.53609 46.3082 9.76435C46.3035 14.2597 46.305 18.7551 46.305 23.2506V24.0098Z" fill="#F9FAFB"/>
<path d="M15.315 14.5245H17.8486C17.9425 15.1363 17.9613 15.7355 17.8486 16.3077C17.5622 17.774 17.0536 19.1514 16.1303 20.3545C15.1351 21.6496 13.891 22.5848 12.4012 23.2204C11.0272 23.8069 9.59526 23.8989 8.14772 23.7721C7.15243 23.6849 6.20722 23.3409 5.31522 22.8796C4.36845 22.3898 3.52652 21.7494 2.81292 20.949C1.7566 19.7649 1.07743 18.3779 0.737843 16.8245C0.578221 16.0953 0.426425 15.3582 0.534404 14.6069C0.550053 14.4928 1.6408 14.488 1.75973 14.4864C1.99916 14.4817 2.24016 14.4864 2.47959 14.5007C2.61418 14.5086 3.06018 14.4753 3.15564 14.572C3.2511 14.6687 3.22762 15.1221 3.24327 15.2584C3.27144 15.4898 3.29961 15.7228 3.33247 15.9527C3.61259 17.9039 4.6517 19.3385 6.29329 20.345C7.23381 20.922 8.28073 21.1978 9.36835 21.1423C10.7392 21.0726 11.9943 20.6351 13.0631 19.7031C13.8643 19.004 14.4653 18.1813 14.8502 17.1859C15.1319 16.4583 15.1804 15.6895 15.2775 14.9287C15.2916 14.813 15.2978 14.6972 15.3135 14.5229L15.315 14.5245Z" fill="#F9FAFB"/>
<path d="M56.2454 6.20892H59.1749C59.1874 6.45144 59.2093 6.6797 59.2093 6.90637C59.2109 11.741 59.2093 16.5756 59.2093 21.4086V23.3694C59.2093 23.5628 59.2093 23.7546 59.2093 24.0225C58.682 24.0257 58.2203 24.0289 57.7571 24.0289C57.2892 24.0289 56.8213 24.0289 56.2829 24.0289C56.2689 23.7657 56.2469 23.5375 56.2469 23.3108C56.2454 18.4762 56.2469 13.6416 56.2469 8.80852V6.84772C56.2469 6.65434 56.2469 6.46254 56.2469 6.20892H56.2454Z" fill="#F9FAFB"/>
<path d="M10.9912 6.06309C10.3981 5.22931 9.83 4.432 9.23064 3.59347C8.62658 4.44309 8.04756 5.25785 7.46698 6.07418H4.23073C4.44826 5.22456 8.12737 0.862306 9.23064 0.131565C10.0413 0.578569 13.9176 5.10092 14.3025 6.06467H10.9912V6.06309Z" fill="#F9FAFB"/>
<path d="M57.7461 0.00634048C57.9652 0.0871817 58.2047 0.164853 58.4378 0.261545C59.5552 0.732326 59.9323 2.16845 59.0701 3.29547C58.9511 3.45081 58.8056 3.58871 58.6538 3.71077C58.1029 4.15143 57.5051 4.17996 56.9199 3.79636C56.1875 3.31766 55.7462 2.2477 55.9903 1.48843C56.2047 0.822678 56.6116 0.420057 57.2172 0.171193C57.3784 0.104618 57.5505 0.0665751 57.7461 0.00634048Z" fill="#F9FAFB"/>
<path d="M14.4168 8.53271C14.5639 8.53429 14.711 8.55965 14.8612 8.61355C15.1695 8.72292 15.4793 8.90204 15.7219 9.12396C16.1131 9.48219 16.3056 10.0465 16.2102 10.5775C16.1272 11.0356 15.941 11.508 15.5717 11.806C15.3322 11.9978 15.0365 12.1008 14.7344 12.142C14.3213 12.1975 13.88 12.1753 13.5154 11.9502C12.7235 11.4604 12.4184 10.3286 12.844 9.49488C13.0021 9.18736 13.2321 8.92899 13.5404 8.76889C13.8237 8.62306 14.1163 8.52954 14.4168 8.53271Z" fill="#F9FAFB"/>
<path d="M9.25881 8.48991C9.30732 8.48832 9.35583 8.48832 9.40591 8.48991C10.5107 8.56441 11.0898 9.67241 10.9708 10.6869C10.8848 11.4208 10.1868 12.1801 9.20873 12.1706C8.28856 12.161 7.55774 11.4684 7.43881 10.4634C7.35587 9.76752 7.75962 9.18578 8.32768 8.83546C8.62345 8.65318 8.91765 8.50259 9.25881 8.48674V8.48991Z" fill="#F9FAFB"/>
<path d="M5.80817 10.3445C5.91615 11.2702 4.95529 12.1753 4.06485 12.1817C3.24327 12.1864 2.24486 11.5001 2.25738 10.3429C2.26833 9.34904 3.03514 8.51686 4.00539 8.48515C4.96311 8.45345 5.80504 9.3221 5.80817 10.3445Z" fill="#F9FAFB"/>
</g>
<defs>
<clipPath id="clip0_225_1827">
<rect width="81" height="30" fill="white" transform="translate(0.5)"/>
</clipPath>
</defs>
</svg>