<svg width="163" height="48" viewBox="0 0 163 48" fill="none" xmlns="http://www.w3.org/2000/svg">
<g opacity="0.8">
<path d="M45.0503 14.0126H52.6724C57.5318 14.0126 61.546 16.8242 61.546 23.2437V24.5926C61.546 31.0609 57.7918 33.9699 52.8187 33.9699H45.0503V14.0126ZM49.3083 17.6368V30.3295H52.5749C55.3377 30.3295 57.1905 28.5256 57.1905 24.5113V23.455C57.1905 19.4407 55.2402 17.6368 52.4287 17.6368H49.3083ZM63.805 17.8318H67.2179L67.7705 21.586C68.4205 19.0344 70.0782 17.6693 73.0848 17.6693H74.1412V21.976H72.386C68.9243 21.976 68.0792 23.1787 68.0792 26.5916V34.0187H63.87V17.8318H63.805ZM74.9863 26.2503V25.7952C74.9863 20.3834 78.448 17.4255 83.161 17.4255C87.9716 17.4255 91.3357 20.3834 91.3357 25.7952V26.2503C91.3357 31.5647 88.0691 34.425 83.161 34.425C77.9441 34.3762 74.9863 31.5809 74.9863 26.2503ZM87.029 26.2015V25.7952C87.029 22.7886 85.5175 20.9847 83.1123 20.9847C80.7557 20.9847 79.1955 22.6424 79.1955 25.7952V26.2015C79.1955 29.1106 80.707 30.7683 83.1123 30.7683C85.5175 30.7196 87.029 29.1106 87.029 26.2015ZM93.546 17.8318H97.0564L97.4627 20.8872C98.3078 18.8394 100.112 17.4255 102.777 17.4255C106.889 17.4255 109.603 20.3834 109.603 25.8602V26.3153C109.603 31.6297 106.596 34.4412 102.777 34.4412C100.226 34.4412 98.4703 33.2874 97.6089 31.4346V39.6094H93.4972L93.546 17.8318ZM105.329 26.2015V25.844C105.329 22.6261 103.671 21.0334 101.461 21.0334C99.1041 21.0334 97.5439 22.8374 97.5439 25.844V26.1528C97.5439 29.0131 99.0554 30.8171 101.412 30.8171C103.833 30.7683 105.329 29.2244 105.329 26.2015ZM115.827 31.0283L115.47 33.9862H111.862V12.4199H115.974V20.6921C116.884 18.5794 118.688 17.4255 121.239 17.4255C125.107 17.4743 127.968 20.1396 127.968 25.5027V26.0065C127.968 31.3696 125.253 34.4412 121.142 34.4412C118.428 34.3762 116.672 33.1248 115.827 31.0283ZM123.645 26.0065V25.6002C123.645 22.6424 122.036 20.9847 119.777 20.9847C117.469 20.9847 115.86 22.8374 115.86 25.649V26.0065C115.86 29.0131 117.42 30.7683 119.728 30.7683C122.198 30.7683 123.645 29.2244 123.645 26.0065ZM129.771 26.2503V25.7952C129.771 20.3834 133.233 17.4255 137.946 17.4255C142.757 17.4255 146.121 20.3834 146.121 25.7952V26.2503C146.121 31.5647 142.806 34.425 137.946 34.425C132.729 34.3762 129.771 31.5809 129.771 26.2503ZM141.847 26.2015V25.7952C141.847 22.7886 140.335 20.9847 137.93 20.9847C135.573 20.9847 134.013 22.6424 134.013 25.7952V26.2015C134.013 29.1106 135.525 30.7683 137.93 30.7683C140.351 30.7196 141.847 29.1106 141.847 26.2015ZM151.63 25.6002L145.958 17.8318H150.818L154.084 22.6911L157.4 17.8318H162.21L156.457 25.5515L162.519 33.9862H157.757L154.052 28.6231L150.444 33.9862H145.471L151.63 25.6002Z" fill="white"/>
<path d="M18.8522 14.0132L9.42611 20.0264L18.8522 26.0396L9.42611 32.0528L0 26.0071L9.42611 19.9939L0 14.0132L9.42611 8L18.8522 14.0132ZM9.37735 33.9868L18.8035 27.9736L28.2296 33.9868L18.8035 40L9.37735 33.9868ZM18.8522 26.0071L28.2783 19.9939L18.8522 14.0132L28.2296 8L37.6557 14.0132L28.2296 20.0264L37.6557 26.0396L28.2296 32.0528L18.8522 26.0071Z" fill="white"/>
</g>
</svg>
