<svg width="52" height="30" viewBox="0 0 52 30" fill="none" xmlns="http://www.w3.org/2000/svg">
<path d="M9.76079 2.95508H10.5929C11.4249 3.02203 12.2474 3.25156 12.9456 3.72976C13.7777 4.27491 14.3706 5.1548 14.6193 6.12076C14.9253 7.31626 14.801 8.6074 14.3611 9.75508C14.2176 10.1663 14.0742 10.568 13.9307 10.9697C14.6002 10.7976 15.2601 10.4819 15.7383 9.96549C16.2547 9.43947 16.5225 8.72217 16.6947 8.01443C17.9189 8.00487 19.1431 8.01443 20.3577 8.01443C19.7265 9.68813 19.2578 11.467 19.2961 13.2746C19.3057 15.3596 20.0708 17.3393 20.2716 19.3956C20.4246 20.7919 20.3768 22.2265 19.9847 23.575C19.6213 24.8375 18.9518 26.0139 18.0336 26.9607C17.1155 27.9171 15.9678 28.644 14.7341 29.1222C13.156 29.7343 11.4441 29.9734 9.75123 29.9351C7.73322 29.8969 5.69609 29.4378 3.96501 28.3762C2.47303 27.4676 1.23927 26.0904 0.617612 24.4454C-0.00404759 22.8099 0.0437723 20.9163 0.789764 19.3286C1.3636 18.0853 2.40608 17.0811 3.63027 16.4881C5.15095 15.7613 6.88203 15.57 8.5366 15.7421C8.76614 15.1396 8.99567 14.5371 9.23477 13.9345C7.83843 13.332 6.56642 12.3469 5.83955 10.9888C4.72057 8.9517 4.96923 6.19727 6.57598 4.48532C7.37936 3.57674 8.55573 3.04115 9.76079 2.95508ZM8.84265 7.22062C8.56529 7.83272 8.5366 8.57871 8.83308 9.1908C9.15826 9.86985 9.67471 10.5011 10.3729 10.8071C10.5163 10.4819 10.6311 10.1472 10.765 9.82203C10.9659 9.29601 11.205 8.77955 11.2623 8.21528C11.3293 7.74664 11.2623 7.23018 10.9563 6.85719C10.6407 6.47463 10.086 6.33117 9.61733 6.48419C9.26346 6.59896 8.99567 6.89544 8.84265 7.22062ZM12.6587 14.3649C12.3813 15.1205 12.0848 15.876 11.817 16.6412C12.6587 17.0333 13.529 17.4445 14.1889 18.1236C13.7777 19.1852 13.3569 20.2372 12.9265 21.2893C12.2761 20.6389 11.511 20.0938 10.6502 19.759C10.1816 20.9928 9.7321 22.2361 9.27303 23.4698C8.07753 23.4698 6.88203 23.4698 5.68653 23.4698C6.22211 22.0352 6.74813 20.6102 7.28372 19.1756C6.10734 19.1374 4.93097 19.7399 4.29019 20.7345C4.02239 21.1554 3.85981 21.6527 3.92675 22.1596C4.00327 23.2116 4.54841 24.2063 5.36135 24.8758C6.47078 25.7939 7.93407 26.1765 9.34954 26.2817C10.5163 26.3582 11.7214 26.2912 12.8308 25.9182C13.8351 25.5931 14.7723 24.9905 15.4227 24.1489C16.2834 23.0682 16.6086 21.6336 16.513 20.2755C16.4173 19.233 16.1687 18.2096 15.9774 17.1863C15.7574 16.0291 15.5757 14.8527 15.5757 13.6668C14.6384 14.0206 13.6629 14.2597 12.6587 14.3649Z" fill="#270741"/>
<path d="M18.5213 6.67555C20.3671 5.26965 21.3044 4.4854 21.8974 3.45249C22.739 1.9892 22.2321 0.755443 21.161 0.267679C20.1663 -0.181828 18.9804 0.238987 18.5117 1.22408C18.0527 0.248551 16.8667 -0.181828 15.8625 0.267679C14.8009 0.755443 14.2844 1.9892 15.1261 3.45249C15.7382 4.4854 16.6754 5.26965 18.5213 6.67555Z" fill="#270741"/>
<path d="M23.4277 10.6638V10.6447C23.4277 9.17186 24.5754 7.9668 26.1343 7.9668C27.0621 7.9668 27.6263 8.21546 28.1619 8.67453L27.4446 9.53529C27.0429 9.20055 26.6891 9.00927 26.0961 9.00927C25.2736 9.00927 24.6137 9.73614 24.6137 10.616V10.6352C24.6137 11.582 25.264 12.2706 26.1822 12.2706C26.5934 12.2706 26.9664 12.1654 27.2533 11.9645V11.2281H26.1057V10.243H28.3532V12.4906C27.8176 12.9401 27.0907 13.3131 26.1439 13.3131C24.5372 13.3226 23.4277 12.1941 23.4277 10.6638Z" fill="#270741"/>
<path d="M29.1372 11.2766V11.2574C29.1372 10.1289 29.9406 9.20117 31.0978 9.20117C32.4177 9.20117 33.0297 10.2245 33.0297 11.3531C33.0297 11.4391 33.0202 11.5444 33.0106 11.6496H30.2562C30.371 12.1564 30.7248 12.4242 31.2222 12.4242C31.5952 12.4242 31.8725 12.3095 32.1786 12.0226L32.8193 12.5868C32.4463 13.0459 31.9203 13.3233 31.203 13.3233C30.0171 13.3233 29.1372 12.4912 29.1372 11.2766ZM31.9299 10.9514C31.8629 10.4541 31.5665 10.1098 31.0978 10.1098C30.6292 10.1098 30.3327 10.4445 30.2371 10.9514H31.9299Z" fill="#270741"/>
<path d="M33.8618 9.27789H34.9808V9.84216C35.239 9.50742 35.5738 9.21094 36.138 9.21094C36.9892 9.21094 37.4866 9.77521 37.4866 10.6838V13.2469H36.3676V11.0377C36.3676 10.5021 36.1189 10.2343 35.6885 10.2343C35.2582 10.2343 34.9904 10.5116 34.9904 11.0377V13.2469H33.8714V9.27789H33.8618Z" fill="#270741"/>
<path d="M38.271 11.2766V11.2574C38.271 10.1289 39.0744 9.20117 40.2316 9.20117C41.5514 9.20117 42.1635 10.2245 42.1635 11.3531C42.1635 11.4391 42.154 11.5444 42.1444 11.6496H39.39C39.5047 12.1564 39.8586 12.4242 40.3559 12.4242C40.7289 12.4242 41.0063 12.3095 41.3123 12.0226L41.9531 12.5868C41.5801 13.0459 41.0541 13.3233 40.3368 13.3233C39.1509 13.3233 38.271 12.4912 38.271 11.2766ZM41.0637 10.9514C40.9967 10.4541 40.7003 10.1098 40.2316 10.1098C39.763 10.1098 39.4665 10.4445 39.3709 10.9514H41.0637Z" fill="#270741"/>
<path d="M42.9861 9.27736H44.1051V10.0712C44.3346 9.52602 44.7076 9.17215 45.3675 9.20084V10.3772H45.3101C44.5641 10.3772 44.1051 10.8267 44.1051 11.7736V13.2368H42.9861V9.27736Z" fill="#270741"/>
<path d="M45.6545 12.0975V12.0784C45.6545 11.2176 46.3145 10.8159 47.2517 10.8159C47.6534 10.8159 47.9403 10.8829 48.2177 10.9785V10.9116C48.2177 10.4429 47.9308 10.1847 47.3665 10.1847C46.9361 10.1847 46.6396 10.2612 46.2762 10.3951L45.9988 9.53436C46.4388 9.34308 46.8596 9.21875 47.5386 9.21875C48.1507 9.21875 48.5907 9.38134 48.8776 9.65869C49.1741 9.95518 49.308 10.3856 49.308 10.9211V13.2165H48.2177V12.7861C47.9403 13.0922 47.5673 13.2834 47.0222 13.2834C46.2666 13.3121 45.6545 12.8818 45.6545 12.0975ZM48.2368 11.8393V11.6384C48.0455 11.5524 47.7969 11.495 47.5195 11.495C47.0413 11.495 46.7448 11.6863 46.7448 12.0401V12.0593C46.7448 12.3653 46.9935 12.5375 47.3569 12.5375C47.883 12.5375 48.2368 12.2505 48.2368 11.8393Z" fill="#270741"/>
<path d="M51.431 7.8418H50.312V13.2359H51.431V7.8418Z" fill="#270741"/>
<path d="M23.6572 15.1973H24.891L26.2491 17.3779L27.6072 15.1973H28.8313V20.3618H27.7028V16.9857L26.2491 19.195H26.2204L24.7762 17.0144V20.3618H23.6572V15.1973Z" fill="#270741"/>
<path d="M29.979 14.9668H31.1649V15.9615H29.979V14.9668ZM30.0077 16.4014H31.1267V20.3609H30.0077V16.4014Z" fill="#270741"/>
<path d="M33.3553 14.9668H32.2363V20.3609H33.3553V14.9668Z" fill="#270741"/>
<path d="M35.5833 14.9668H34.4644V20.3609H35.5833V14.9668Z" fill="#270741"/>
<path d="M36.3296 19.8364L36.8078 19.0999C37.2382 19.406 37.6877 19.5686 38.0607 19.5686C38.3858 19.5686 38.5293 19.4538 38.5293 19.2721V19.253C38.5293 19.0043 38.1467 18.9278 37.7068 18.7939C37.1521 18.6313 36.5209 18.3731 36.5209 17.6079V17.5888C36.5209 16.7854 37.1712 16.3359 37.965 16.3359C38.4624 16.3359 39.0171 16.5081 39.4379 16.795L39.0075 17.5697C38.6154 17.3402 38.2233 17.1967 37.9363 17.1967C37.659 17.1967 37.5251 17.3115 37.5251 17.4741V17.4932C37.5251 17.7132 37.8981 17.8184 38.3285 17.9618C38.8832 18.1435 39.524 18.4113 39.524 19.1382V19.1573C39.524 20.0372 38.864 20.4389 38.0129 20.4389C37.4773 20.4389 36.8556 20.2572 36.3296 19.8364Z" fill="#270741"/>
</svg>
