<svg width="106" height="28" viewBox="0 0 106 28" fill="none" xmlns="http://www.w3.org/2000/svg">
<path fill-rule="evenodd" clip-rule="evenodd" d="M105.439 4.83539C105.065 4.41551 104.561 4.20913 103.893 4.20913C103.224 4.20913 102.699 4.42974 102.332 4.89232C101.972 5.34067 101.785 6.00963 101.785 6.87074V13.1903C100.951 12.3007 100.088 11.6673 99.203 11.2403C98.6563 10.977 98.009 10.7849 97.2825 10.6924C96.8582 10.6426 96.4338 10.6141 95.9591 10.6141C93.7582 10.6141 91.9744 11.3613 90.6078 12.8701C89.2556 14.3645 88.5795 16.4497 88.5795 19.1185C88.5795 20.3781 88.7521 21.5595 89.0973 22.6412C89.4426 23.7158 89.9317 24.6623 90.5934 25.4736C91.2551 26.2707 92.0535 26.8898 92.9526 27.3382C93.8517 27.7723 94.837 27.9929 95.9087 27.9929C96.3978 27.9929 96.8654 27.9502 97.2897 27.8719C97.5846 27.8292 97.8436 27.7509 98.1241 27.6726C98.8002 27.452 99.4331 27.1318 100.009 26.7261C100.606 26.3062 101.188 25.7725 101.785 25.1106V25.5305C101.785 26.3205 101.987 26.9183 102.382 27.3524C102.792 27.7723 103.296 27.9929 103.893 27.9929C104.518 27.9929 105.022 27.7865 105.403 27.388C105.784 26.9681 106 26.3632 106 25.5376V6.64301C105.978 5.86018 105.799 5.24104 105.439 4.83539ZM100.958 22.2782C100.577 23.0753 100.045 23.6802 99.4187 24.0716C98.7714 24.463 98.0665 24.6481 97.2825 24.6481H97.2682C96.4842 24.6481 95.7865 24.4417 95.132 24.0432C94.4846 23.6233 93.9667 23.0184 93.5927 22.2071C93.2187 21.3958 93.0389 20.3994 93.0389 19.2466C93.0389 18.1435 93.2115 17.1756 93.5711 16.3643C93.9164 15.5388 94.4199 14.8983 95.0528 14.4499C95.7002 13.9945 96.4194 13.781 97.2394 13.781H97.2825C98.0522 13.781 98.7498 14.0016 99.4044 14.4357C100.052 14.8698 100.57 15.4961 100.951 16.3074C101.332 17.1187 101.519 18.115 101.519 19.2466C101.533 20.4564 101.346 21.4669 100.958 22.2782ZM86.9755 22.4633C86.695 22.2284 86.3282 22.1074 85.8607 22.1074C85.4363 22.1074 85.1342 22.2142 84.8969 22.385C84.343 22.8831 83.8899 23.2888 83.5446 23.5806C83.1994 23.8581 82.8182 24.1286 82.3938 24.3919C81.9982 24.641 81.5595 24.8402 81.1207 24.9399C80.6676 25.0608 80.1929 25.1249 79.6606 25.1249C79.5384 25.1249 79.4376 25.1249 79.3298 25.1106C78.668 25.0679 78.0423 24.89 77.4884 24.5627C76.8267 24.1855 76.3089 23.6304 75.8989 22.9116C75.5177 22.1644 75.3019 21.2961 75.2875 20.3283H83.9906C85.1558 20.3283 86.0549 20.1575 86.695 19.8586C87.3423 19.5312 87.6588 18.8338 87.6588 17.7592C87.6588 16.5921 87.3423 15.4534 86.7166 14.3361C86.0908 13.2188 85.1774 12.3078 83.9187 11.6104C82.6743 10.9059 81.1927 10.5643 79.452 10.5643H79.3226C78.0351 10.5785 76.8555 10.7849 75.8126 11.1834C74.7121 11.6033 73.7986 12.194 73.029 12.9555C72.3026 13.7312 71.72 14.6563 71.3316 15.7452C70.9432 16.834 70.7346 18.0154 70.7346 19.2679C70.7346 21.958 71.533 24.0645 73.1081 25.6373C74.6042 27.1175 76.6685 27.9075 79.3082 27.9858C79.452 28 79.6103 28 79.7685 28C80.9985 28 82.1133 27.8434 83.0771 27.5303C84.0409 27.2172 84.8393 26.8258 85.4723 26.3489C86.1052 25.865 86.5871 25.3668 86.8892 24.8545C87.2057 24.3421 87.3639 23.8866 87.3639 23.5023C87.4071 23.0397 87.2632 22.691 86.9755 22.4633ZM76.611 14.6279C77.3158 13.8949 78.2293 13.5248 79.337 13.5248H79.3513C80.5022 13.5248 81.4444 13.8806 82.1493 14.5994C82.8541 15.3182 83.2785 16.4213 83.3648 17.8873H75.3091C75.4601 16.4497 75.8845 15.3609 76.611 14.6279ZM68.0733 22.1003C67.6346 22.1003 67.3325 22.2071 67.0951 22.3779C66.5485 22.876 66.0881 23.2817 65.7429 23.5735C65.3977 23.851 65.0308 24.1214 64.6065 24.3848C64.1965 24.6338 63.7721 24.8331 63.319 24.9327C62.8802 25.0537 62.3911 25.1178 61.8589 25.1178C61.7366 25.1178 61.6359 25.1178 61.528 25.1035C60.8663 25.0608 60.2405 24.8829 59.6867 24.5556C59.0394 24.1784 58.5071 23.6233 58.1259 22.9045C57.7159 22.1573 57.5145 21.289 57.5002 20.3212H66.1888C67.3397 20.3212 68.2387 20.1504 68.8933 19.8515C69.5262 19.5241 69.8499 18.8267 69.8499 17.7521C69.8499 16.5849 69.5478 15.4463 68.922 14.329C68.2963 13.2117 67.3756 12.3007 66.1241 11.6033C64.8798 10.8988 63.3837 10.5572 61.6575 10.5572H61.5136C60.2262 10.5714 59.061 10.7778 58.0036 11.1763C56.9032 11.5962 55.9897 12.1869 55.2345 12.9483C54.4936 13.7241 53.911 14.6492 53.5226 15.7381C53.127 16.8269 52.9256 18.0083 52.9256 19.2608C52.9256 21.9509 53.7312 24.0574 55.3136 25.6302C56.8097 27.1104 58.8668 27.9004 61.4993 27.9787C61.6575 27.9929 61.8013 27.9929 61.9596 27.9929C63.2039 27.9929 64.3044 27.8363 65.2682 27.5232C66.232 27.2101 67.0304 26.8186 67.6561 26.3418C68.3035 25.8579 68.771 25.3597 69.0875 24.8473C69.4039 24.3349 69.5622 23.8795 69.5622 23.4952C69.5622 23.0611 69.4183 22.7195 69.1378 22.4846C68.8933 22.2142 68.5049 22.1003 68.0733 22.1003ZM58.7948 14.6279C59.4997 13.8949 60.4132 13.5248 61.5208 13.5248H61.5352C62.686 13.5248 63.6283 13.8806 64.3331 14.5994C65.0452 15.3182 65.4624 16.4213 65.5631 17.8873H57.5002C57.6584 16.4497 58.0971 15.3609 58.7948 14.6279ZM9.25206 25.1249V14.9125C9.55415 14.941 9.84905 14.9552 10.1368 14.9552C11.5825 14.9552 12.9347 14.578 14.0855 13.9233V25.132C14.0855 26.0856 13.8625 26.7973 13.4094 27.267C12.9563 27.7367 12.3737 27.9715 11.6472 27.9715C10.9423 27.9715 10.3741 27.7367 9.92817 27.2528C9.49661 26.7617 9.25206 26.0714 9.25206 25.1249ZM51.0915 4.83539C50.7175 4.41551 50.2068 4.20913 49.5523 4.20913C48.8762 4.20913 48.3583 4.42974 47.9915 4.89232C47.6175 5.34067 47.4449 6.00963 47.4449 6.87074V13.1903C46.6105 12.3007 45.7474 11.6673 44.8627 11.2403C44.3089 10.977 43.6687 10.7849 42.9567 10.6924C42.5467 10.6426 42.1079 10.6141 41.6332 10.6141C39.4323 10.6141 37.6341 11.3613 36.2819 12.8701C34.9297 14.3645 34.2536 16.4497 34.2536 19.1185C34.2536 20.3781 34.4262 21.5595 34.7571 22.6412C35.1023 23.7158 35.6058 24.6623 36.2675 25.4736C36.9293 26.2707 37.7276 26.8898 38.6267 27.3382C39.5402 27.7723 40.5112 27.9929 41.5829 27.9929C42.0576 27.9929 42.5251 27.9502 42.9639 27.8719C43.2588 27.8292 43.5177 27.7509 43.7982 27.6726C44.4743 27.452 45.1073 27.1318 45.6827 26.7261C46.2797 26.3062 46.8479 25.7725 47.4593 25.1106V25.5305C47.4593 26.3205 47.6607 26.9183 48.0562 27.3524C48.4375 27.7723 48.9697 27.9929 49.5667 27.9929C50.1637 27.9929 50.6816 27.7865 51.0628 27.388C51.444 26.9681 51.631 26.3632 51.631 25.5376V6.64301C51.6166 5.86018 51.444 5.24104 51.0915 4.83539ZM46.6249 22.2782C46.2437 23.0753 45.7115 23.6802 45.0785 24.0716C44.4456 24.463 43.7263 24.6481 42.9567 24.6481H42.9423C42.1583 24.6481 41.4606 24.4417 40.8061 24.0432C40.1444 23.6233 39.6409 23.0184 39.2669 22.2071C38.8929 21.3958 38.713 20.3994 38.713 19.2466C38.713 18.1435 38.8857 17.1756 39.2309 16.3643C39.5905 15.5388 40.0796 14.8983 40.727 14.4499C41.3599 13.9945 42.0936 13.781 42.8991 13.781H42.9495C43.7191 13.781 44.4168 14.0016 45.0569 14.4357C45.7186 14.8698 46.2365 15.4961 46.6177 16.3074C46.9917 17.1187 47.1859 18.115 47.1859 19.2466C47.1931 20.4564 46.9917 21.4669 46.6249 22.2782ZM21.1918 12.9341V13.4607C21.9902 12.4644 22.8317 11.7456 23.7452 11.2688C24.6874 10.8134 25.7447 10.5714 26.9531 10.5714C28.1183 10.5714 29.1684 10.8205 30.0891 11.3044C31.0169 11.7883 31.693 12.4858 32.139 13.3896C32.4411 13.9162 32.6281 14.4926 32.7072 15.0904C32.7863 15.6811 32.8367 16.464 32.8367 17.4105V25.3526C32.8367 26.2208 32.6281 26.8613 32.2109 27.2955C31.8153 27.7438 31.2687 27.9644 30.6213 27.9644C29.9596 27.9644 29.4274 27.7438 29.003 27.2812C28.5786 26.8329 28.3772 26.1924 28.3772 25.3526V18.236C28.3772 16.8198 28.1758 15.7452 27.7659 14.9979C27.3703 14.2507 26.5503 13.8735 25.3276 13.8735C24.5292 13.8735 23.8171 14.1083 23.1698 14.5567C22.5224 15.0122 22.0334 15.6313 21.7241 16.4426C21.5155 17.0831 21.4076 18.2645 21.4076 20.0223V25.3597C21.4076 26.2351 21.199 26.8685 20.7746 27.3097C20.3503 27.7438 19.818 27.9644 19.1563 27.9644C18.509 27.9644 17.9911 27.7438 17.5667 27.2812C17.1424 26.8329 16.941 26.1924 16.941 25.3526V13.0053C16.941 12.194 17.128 11.5748 17.4948 11.1834C17.8544 10.7778 18.3579 10.5643 19.0053 10.5643C19.3865 10.5643 19.7317 10.6426 20.0482 10.8276C20.3647 11.0126 20.6164 11.2759 20.8178 11.6246C21.1127 12.0089 21.1918 12.4359 21.1918 12.9341ZM9.28084 0.657931C12.273 -0.381096 15.6967 -0.324163 18.25 1.81082C18.7247 2.24494 19.2714 2.77868 19.48 3.4263C19.7461 4.22336 18.5809 3.34801 18.4083 3.22703C17.5739 2.7004 16.7396 2.25917 15.7973 1.95316C10.7625 0.458665 5.99381 3.15587 3.03045 7.36891C1.8149 9.21923 1.00213 11.1692 0.340409 13.3184C0.275675 13.5533 0.210942 13.8593 0.0742818 14.0657C-0.0551854 14.3005 0.0239334 13.4394 0.0239334 13.3967C0.131823 12.5071 0.318831 11.6531 0.541802 10.792C1.91559 6.22313 4.93649 2.40862 9.28084 0.657931ZM15.0853 8.88475C15.0853 10.8276 13.4957 12.4075 11.5321 12.4075C9.56854 12.4075 7.97897 10.8347 7.97897 8.88475C7.97897 6.93479 9.56854 5.36202 11.5321 5.36202C13.4957 5.36202 15.0853 6.93479 15.0853 8.88475Z" fill="#270741"/>
</svg>
