<svg xmlns="http://www.w3.org/2000/svg" width="119" height="27" viewBox="0 0 119 27" fill="none">
  <path d="M38.6021 6.05709L43.1781 5.02979V26.6446H38.6021V6.05709Z" fill="#270741"/>
  <path d="M59.9241 24.1628C58.4592 25.9692 56.0485 27 53.6663 27C49.0867 27 45.428 24.0456 45.428 19.4572C45.428 14.8688 49.0902 11.9144 53.6663 11.9144C57.9436 11.9144 60.6281 14.8688 60.6281 19.4572V20.8499H50.004C50.3738 22.5391 51.6858 23.6319 53.4565 23.6319C54.9498 23.6319 55.9596 22.8907 56.7205 21.8841L59.9241 24.1663V24.1628ZM56.0485 17.8301C56.0805 16.3546 54.8894 15.1101 53.2396 15.1101C51.2307 15.1101 50.1285 16.4408 50.0076 17.8301H56.0521H56.0485Z" fill="#270741"/>
  <path d="M86.0114 26.6444H81.798V24.7484H81.7376C81.0371 25.7894 79.2629 26.996 77.19 26.996C72.7953 26.996 69.8975 23.9175 69.8975 19.567C69.8975 15.575 72.461 11.907 76.6744 11.907C78.5589 11.907 80.3367 12.4069 81.3713 13.7996H81.4318V6.05001L86.0114 5.02271V26.6375V26.6444ZM78.1393 15.8163C75.846 15.8163 74.4735 17.2952 74.4735 19.4532C74.4735 21.6113 75.846 23.0902 78.1393 23.0902C80.4327 23.0902 81.798 21.6113 81.798 19.4532C81.798 17.2952 80.4256 15.8163 78.1393 15.8163Z" fill="#270741"/>
  <path d="M96.17 11.9146C100.742 11.9146 104.408 14.8689 104.408 19.4573C104.408 24.0457 100.742 27.0001 96.17 27.0001C91.5975 27.0001 87.9246 24.0457 87.9246 19.4573C87.9246 14.8689 91.5904 11.9146 96.17 11.9146ZM96.17 23.0943C98.4527 23.0943 99.8322 21.6153 99.8322 19.4573C99.8322 17.2993 98.4562 15.8204 96.17 15.8204C93.8837 15.8204 92.5042 17.2993 92.5042 19.4573C92.5042 21.6153 93.8766 23.0943 96.17 23.0943Z" fill="#270741"/>
  <path d="M114.723 16.4994C114.051 15.6962 113.17 15.2859 112.067 15.2859C111.306 15.2859 110.393 15.61 110.393 16.4684C110.393 18.5954 118.112 16.7924 118.112 22.2668C118.112 25.9347 114.45 26.9965 111.274 26.9965C109.201 26.9965 106.915 26.4967 105.447 25.0453L108.224 22.0565C109.077 23.0597 110.083 23.6285 111.459 23.6285C112.498 23.6285 113.536 23.363 113.536 22.5943C113.536 20.2846 105.817 22.2392 105.817 16.7614C105.817 13.3899 108.928 11.9144 112.042 11.9144C113.998 11.9144 116.16 12.3867 117.536 13.807L114.727 16.4994H114.723Z" fill="#270741"/>
  <path d="M67.6759 12.2694H63.0999V26.6483H67.6759V12.2694Z" fill="#270741"/>
  <path d="M67.6759 6.07788H63.0999V9.75619H67.6759V6.07788Z" fill="#270741"/>
  <path d="M16.3938 16.189L32.0384 6.92258L12.0417 13.2243L16.3938 16.189Z" fill="#270741"/>
  <path d="M8.36857 0L6.76855 4.67459H31.2737L8.36857 0Z" fill="#270741"/>
  <path d="M3.11719 15.3095L10.463 12.9928L5.15098 9.37659L3.11719 15.3095Z" fill="#270741"/>
  <path d="M0.5 5.36383L4.77737 8.27683L5.78005 5.36383H0.5Z" fill="#270741"/>
  <path d="M34.6619 5.36383L6.53015 5.36728L5.38525 8.69395L11.3089 12.7273L34.6619 5.36383Z" fill="#270741"/>
</svg>