<svg width="114" height="48" viewBox="0 0 114 48" fill="none" xmlns="http://www.w3.org/2000/svg">
<g opacity="0.8">
<path d="M36.8105 13.0566L41.2315 12.0293V33.6441H36.8105V13.0566Z" fill="white"/>
<path d="M57.41 31.1624C55.9948 32.9688 53.6658 33.9996 51.3643 33.9996C46.9399 33.9996 43.4053 31.0452 43.4053 26.4568C43.4053 21.8684 46.9434 18.9141 51.3643 18.9141C55.4967 18.9141 58.0901 21.8684 58.0901 26.4568V27.8496H47.8262C48.1834 29.5387 49.451 30.6316 51.1616 30.6316C52.6044 30.6316 53.5799 29.8904 54.315 28.8838L57.41 31.1659V31.1624ZM53.6658 24.8297C53.6967 23.3542 52.546 22.1097 50.9521 22.1097C49.0113 22.1097 47.9464 23.4404 47.8296 24.8297H53.6692H53.6658Z" fill="white"/>
<path d="M82.6126 33.6451H78.5421V31.7491H78.4837C77.807 32.7902 76.0929 33.9967 74.0902 33.9967C69.8445 33.9967 67.0449 30.9183 67.0449 26.5677C67.0449 22.5757 69.5216 18.9078 73.5921 18.9078C75.4127 18.9078 77.1303 19.4076 78.1299 20.8004H78.1883V13.0507L82.6126 12.0234V33.6382V33.6451ZM75.0074 22.817C72.7918 22.817 71.4658 24.2959 71.4658 26.454C71.4658 28.612 72.7918 30.0909 75.0074 30.0909C77.223 30.0909 78.5421 28.612 78.5421 26.454C78.5421 24.2959 77.2161 22.817 75.0074 22.817Z" fill="white"/>
<path d="M92.4268 18.9141C96.8443 18.9141 100.386 21.8684 100.386 26.4568C100.386 31.0452 96.8443 33.9996 92.4268 33.9996C88.0094 33.9996 84.4609 31.0452 84.4609 26.4568C84.4609 21.8684 88.0025 18.9141 92.4268 18.9141ZM92.4268 30.0938C94.6321 30.0938 95.9649 28.6149 95.9649 26.4568C95.9649 24.2988 94.6356 22.8199 92.4268 22.8199C90.2181 22.8199 88.8853 24.2988 88.8853 26.4568C88.8853 28.6149 90.2112 30.0938 92.4268 30.0938Z" fill="white"/>
<path d="M110.351 23.499C109.702 22.6958 108.85 22.2856 107.785 22.2856C107.05 22.2856 106.167 22.6096 106.167 23.468C106.167 25.595 113.625 23.792 113.625 29.2664C113.625 32.9344 110.087 33.9961 107.019 33.9961C105.017 33.9961 102.808 33.4963 101.389 32.045L104.072 29.0561C104.896 30.0593 105.868 30.6281 107.198 30.6281C108.201 30.6281 109.204 30.3627 109.204 29.5939C109.204 27.2842 101.746 29.2388 101.746 23.761C101.746 20.3895 104.752 18.9141 107.761 18.9141C109.65 18.9141 111.739 19.3863 113.068 20.8066L110.355 23.499H110.351Z" fill="white"/>
<path d="M64.8989 19.2695H60.478V33.6484H64.8989V19.2695Z" fill="white"/>
<path d="M64.8989 13.0781H60.478V16.7564H64.8989V13.0781Z" fill="white"/>
<path d="M15.3549 23.1883L30.4692 13.9219L11.1504 20.2236L15.3549 23.1883Z" fill="white"/>
<path d="M7.60193 7L6.05615 11.6746H29.7306L7.60193 7Z" fill="white"/>
<path d="M2.52832 22.3098L9.62515 19.9932L4.49317 16.377L2.52832 22.3098Z" fill="white"/>
<path d="M0 12.3633L4.13238 15.2763L5.10106 12.3633H0Z" fill="white"/>
<path d="M33.004 12.3633L5.82581 12.3667L4.71973 15.6934L10.4425 19.7268L33.004 12.3633Z" fill="white"/>
</g>
</svg>
