<svg xmlns="http://www.w3.org/2000/svg" width="119" height="27" viewBox="0 0 119 27" fill="none">
<path d="M38.6021 6.05709L43.1781 5.02979V26.6446H38.6021V6.05709Z" fill="#F9FAFB"/>
<path d="M59.9241 24.1629C58.4592 25.9693 56.0485 27.0001 53.6663 27.0001C49.0867 27.0001 45.428 24.0457 45.428 19.4573C45.428 14.8689 49.0902 11.9146 53.6663 11.9146C57.9436 11.9146 60.6281 14.8689 60.6281 19.4573V20.85H50.004C50.3738 22.5392 51.6858 23.632 53.4565 23.632C54.9498 23.632 55.9596 22.8909 56.7205 21.8842L59.9241 24.1664V24.1629ZM56.0485 17.8302C56.0805 16.3547 54.8894 15.1102 53.2396 15.1102C51.2307 15.1102 50.1285 16.4409 50.0076 17.8302H56.0521H56.0485Z" fill="#F9FAFB"/>
<path d="M86.0114 26.6444H81.798V24.7484H81.7376C81.0371 25.7894 79.2629 26.996 77.19 26.996C72.7953 26.996 69.8975 23.9175 69.8975 19.567C69.8975 15.575 72.461 11.907 76.6744 11.907C78.5589 11.907 80.3367 12.4069 81.3713 13.7996H81.4318V6.05001L86.0114 5.02271V26.6375V26.6444ZM78.1393 15.8163C75.846 15.8163 74.4735 17.2952 74.4735 19.4532C74.4735 21.6113 75.846 23.0902 78.1393 23.0902C80.4327 23.0902 81.798 21.6113 81.798 19.4532C81.798 17.2952 80.4256 15.8163 78.1393 15.8163Z" fill="#F9FAFB"/>
<path d="M96.17 11.9146C100.742 11.9146 104.408 14.8689 104.408 19.4573C104.408 24.0457 100.742 27.0001 96.17 27.0001C91.5975 27.0001 87.9246 24.0457 87.9246 19.4573C87.9246 14.8689 91.5904 11.9146 96.17 11.9146ZM96.17 23.0943C98.4527 23.0943 99.8322 21.6153 99.8322 19.4573C99.8322 17.2993 98.4562 15.8204 96.17 15.8204C93.8837 15.8204 92.5042 17.2993 92.5042 19.4573C92.5042 21.6153 93.8766 23.0943 96.17 23.0943Z" fill="#F9FAFB"/>
<path d="M114.723 16.4995C114.051 15.6963 113.17 15.286 112.067 15.286C111.306 15.286 110.393 15.6101 110.393 16.4685C110.393 18.5955 118.112 16.7925 118.112 22.2669C118.112 25.9349 114.45 26.9966 111.274 26.9966C109.201 26.9966 106.915 26.4968 105.447 25.0454L108.224 22.0566C109.077 23.0598 110.083 23.6286 111.459 23.6286C112.498 23.6286 113.536 23.3631 113.536 22.5944C113.536 20.2847 105.817 22.2393 105.817 16.7615C105.817 13.39 108.928 11.9146 112.042 11.9146C113.998 11.9146 116.16 12.3868 117.536 13.8071L114.727 16.4995H114.723Z" fill="#F9FAFB"/>
<path d="M67.6759 12.2695H63.0999V26.6484H67.6759V12.2695Z" fill="#F9FAFB"/>
<path d="M67.6759 6.07788H63.0999V9.75619H67.6759V6.07788Z" fill="#F9FAFB"/>
<path d="M16.3938 16.189L32.0384 6.92261L12.0417 13.2243L16.3938 16.189Z" fill="#F9FAFB"/>
<path d="M8.36857 0L6.76855 4.67459H31.2737L8.36857 0Z" fill="#F9FAFB"/>
<path d="M3.11719 15.3096L10.463 12.993L5.15098 9.37671L3.11719 15.3096Z" fill="#F9FAFB"/>
<path d="M0.5 5.36377L4.77737 8.27677L5.78005 5.36377H0.5Z" fill="#F9FAFB"/>
<path d="M34.6619 5.36377L6.53015 5.36722L5.38525 8.69389L11.3089 12.7273L34.6619 5.36377Z" fill="#F9FAFB"/>
</svg>