<svg width="34" height="32" viewBox="0 0 34 32" fill="none" xmlns="http://www.w3.org/2000/svg">
<g clip-path="url(#clip0_15816_5795)">
<path fill-rule="evenodd" clip-rule="evenodd" d="M0.5625 4.39464H5.62984V18.2413C5.62984 20.4376 6.60627 21.7416 7.3975 22.2906C6.57262 23.0284 4.06418 23.6805 2.17866 22.1019C1.06755 21.1754 0.5625 19.6311 0.5625 18.1898V4.39464ZM32.1955 15.9078V14.4494H33.7443V9.35336H32.044C31.3874 6.28204 28.7106 4 25.512 4C21.8251 4 18.8285 7.05416 18.8285 10.8118V22.7024C19.8723 22.8569 21.1349 22.6853 22.1955 21.7759C23.3066 20.8494 23.8117 19.3051 23.8117 17.8638V17.4177H26.3369V12.3217H23.8117V10.7775C23.8117 9.81664 24.5692 9.04452 25.512 9.04452C26.4548 9.04452 27.2123 9.81664 27.2123 10.7775V15.8906C27.2123 19.6483 30.209 22.7024 33.8958 22.7024V17.6236C32.9531 17.6236 32.1955 16.8515 32.1955 15.9078ZM13.0373 9.3362V16.8344C13.0373 17.2633 12.6837 17.6065 12.2628 17.6065C11.8419 17.6065 11.4884 17.2633 11.4884 16.8344V9.3362H6.48841V18.1384C6.48841 19.7169 7.01032 21.7244 9.41774 22.3764C11.8251 23.0284 13.2056 21.673 13.2056 21.673C13.0709 22.5652 12.2628 23.2172 10.9329 23.3545C9.92278 23.4574 8.64329 23.1142 8.00357 22.8397V27.5068C9.63659 28.0043 11.3537 28.1588 13.0541 27.8156C16.1181 27.2151 18.0541 24.607 18.0541 21.1239V9.30188H13.0373V9.3362Z" fill="#270741"/>
</g>
<defs>
<clipPath id="clip0_15816_5795">
<rect width="33.3333" height="32" fill="white" transform="translate(0.5625)"/>
</clipPath>
</defs>
</svg>
