<svg width="99" height="48" viewBox="0 0 99 48" fill="none" xmlns="http://www.w3.org/2000/svg">
<g opacity="0.8">
<g clip-path="url(#clip0_15241_38365)">
<path d="M26.1293 26.0798H27.0513V44.222H23.5607V28.2828C23.5607 27.7644 24.6803 26.0798 26.1293 26.0798Z" fill="white"/>
<path d="M45.2285 30.097C43.5162 30.097 42.199 30.8097 41.277 32.2352V26.0798H40.8818C39.1695 26.0798 38.2475 26.9869 37.7865 27.7645V27.6348V38.0666C37.7865 42.1486 39.9598 44.222 44.3065 44.222C48.6532 44.1573 50.7608 41.8247 50.7608 37.2891C50.7608 32.5592 48.9167 30.2266 45.2285 30.097ZM44.1748 41.2416C42.199 41.2416 41.2111 39.8161 41.277 37.0947C41.4087 34.4382 42.3307 33.1423 44.2407 33.1423C46.1506 33.1423 47.0726 34.4382 47.2043 37.0947C47.2043 39.8809 46.1506 41.2416 44.1748 41.2416Z" fill="white"/>
<path d="M52.8023 37.0947C52.934 32.6888 55.1074 30.2266 59.7834 30.2266H60.8372V33.7903H59.1907C57.2149 33.7903 56.3587 35.0213 56.3587 37.03V44.1573H52.8023V37.0947Z" fill="white"/>
<path d="M66.3693 40.6583C66.9621 41.1767 67.7524 41.4359 68.8062 41.4359C69.5306 41.4359 70.1893 41.2415 70.7161 40.8527C71.243 40.464 71.5723 40.0752 71.704 39.6864H74.997C74.4701 41.3062 73.6798 42.4078 72.5602 43.1205C71.4405 43.8332 70.1892 44.1572 68.6086 44.1572C67.5548 44.1572 66.5669 43.9629 65.7108 43.6389C64.8546 43.3149 64.1302 42.7965 63.5374 42.2134C62.9447 41.5654 62.4837 40.8527 62.1544 40.0104C61.8251 39.168 61.6933 38.1962 61.6933 37.1595C61.6933 36.1876 61.891 35.2156 62.2203 34.3733C62.5495 33.531 63.0106 32.7535 63.6033 32.1703C64.196 31.5224 64.9205 31.0689 65.7767 30.6801C66.6329 30.2913 67.5548 30.1617 68.6086 30.1617C69.7282 30.1617 70.7819 30.3561 71.6381 30.8097C72.4943 31.2632 73.2188 31.8463 73.7457 32.5591C74.2725 33.2718 74.6676 34.1141 74.9311 35.086C75.1945 35.9932 75.2604 37.0298 75.1945 38.0665H65.3815C65.5132 39.2976 65.8425 40.14 66.3693 40.6583ZM70.5844 33.6606C70.1234 33.2071 69.4648 32.9479 68.5427 32.9479C67.95 32.9479 67.4231 33.0775 67.0279 33.2719C66.6328 33.4662 66.3036 33.7254 66.106 33.9846C65.8425 34.3086 65.7108 34.5677 65.5791 34.8917C65.4473 35.2157 65.4473 35.5396 65.3815 35.7988H71.4406C71.3747 34.8269 71.0454 34.1142 70.5844 33.6606Z" fill="white"/>
<path d="M34.2959 26.0798H30.8053V29.1899H34.2959V26.0798Z" fill="white"/>
<path d="M34.2959 30.745H30.8053V44.1573H34.2959V30.745Z" fill="white"/>
<path d="M94.4915 18.8875C93.8988 19.5355 93.1085 19.9242 92.1206 19.9242C91.1327 19.9242 90.3423 19.5355 89.7496 18.8875C89.1569 18.2396 88.9593 17.1381 88.9593 15.8423C88.9593 14.4816 89.2227 13.5097 89.7496 12.8618C90.3423 12.2138 91.1327 11.825 92.1206 11.825C93.1085 11.825 93.8988 12.2138 94.4915 12.8618C95.0843 13.5097 95.2818 14.6112 95.2818 15.8423C95.2818 17.0733 95.0843 18.11 94.4915 18.8875ZM97.2576 10.8531C96.2038 9.49242 94.4257 8.71494 92.1206 8.71494C89.8814 8.71494 88.0373 9.36283 86.9835 10.8531C85.9298 12.2138 85.2712 13.8985 85.2712 15.7775C85.2712 17.7213 85.8639 19.4059 86.9835 20.7018C88.0373 22.0625 89.8155 22.7752 92.1206 22.7752C94.3598 22.7752 96.2038 22.1273 97.2576 20.7018C98.3114 19.3411 98.9699 17.6565 98.9699 15.7775C99.0358 13.9633 98.4431 12.2786 97.2576 10.8531Z" fill="white"/>
<path d="M80.134 18.8877C79.673 19.5356 78.8827 19.9244 77.8948 19.9244C76.9069 19.9244 76.1166 19.5356 75.7215 18.8877C75.2605 18.1101 75.0629 17.1383 75.0629 15.8424C75.0629 14.6761 75.2605 13.769 75.7215 13.0562C76.1825 12.2787 76.907 11.89 77.9607 11.89C78.6193 11.89 79.212 12.0843 79.7389 12.4731C80.5292 13.121 80.9902 14.4169 80.9902 16.1016C80.7927 17.2679 80.6609 18.2397 80.134 18.8877ZM84.2174 4.76265C84.2174 4.76265 80.6609 4.37386 80.6609 7.15999V10.8532C80.2658 10.2701 79.8047 9.81656 79.0803 9.363C78.4876 8.97424 77.6972 8.9094 76.9069 8.9094C75.1287 8.9094 73.7456 9.55734 72.626 10.8532C71.5723 12.0843 71.0455 13.9633 71.0455 16.2959C71.0455 18.2397 71.5064 19.9244 72.626 21.0259C73.6798 22.257 75.7874 22.7753 77.6314 22.7753C84.1515 22.7753 84.0198 17.3326 84.0198 17.3326L84.2174 4.76265Z" fill="white"/>
<path d="M66.6987 17.2678C66.6987 18.4341 66.3036 19.2117 65.7109 19.6652C65.0523 20.054 64.3278 20.3131 63.6034 20.3131C63.1424 20.3131 62.7472 20.2483 62.4179 19.9243C62.0886 19.6004 61.9569 19.2764 61.9569 18.6933C61.9569 18.0454 62.2203 17.527 62.7472 17.203C63.0106 17.0086 63.6034 16.8143 64.3278 16.7495L65.1182 16.5551C65.5133 16.4903 65.7768 16.3607 66.1061 16.3607C66.3036 16.2959 66.5671 16.1663 66.7647 16.1015L66.6987 17.2678ZM68.477 9.68694C67.2915 9.10379 66.0402 8.84458 64.5254 8.84458C62.2862 8.84458 60.6397 9.42778 59.7177 10.5941C59.1249 11.3716 58.8615 12.2787 58.7298 13.3802H62.0886C62.1544 12.9266 62.3521 12.5379 62.5496 12.2139C62.9448 11.8252 63.5375 11.6308 64.3278 11.6308C65.1181 11.6308 65.5791 11.6956 66.0402 11.8899C66.4353 12.0843 66.6329 12.473 66.6329 13.0562C66.6329 13.5097 66.3695 13.8337 65.8426 14.0281C65.5792 14.0929 65.0523 14.2225 64.4596 14.2873L63.2741 14.3521C61.891 14.5464 60.9032 14.8057 60.1787 15.1944C58.9274 15.8424 58.2688 17.1382 58.2688 18.6933C58.2688 19.9244 58.6639 20.8963 59.4542 21.609C60.2445 22.257 61.2325 22.5809 62.4838 22.6457C70.1894 22.9049 70.1235 18.6285 70.1235 17.7862V12.8619C70.1894 11.4364 69.6625 10.2701 68.477 9.68694Z" fill="white"/>
<path d="M51.0242 11.8251C51.8804 11.8251 52.539 12.0843 53 12.6027C53.2634 12.9914 53.461 13.445 53.461 13.9633H57.215C57.0174 12.0843 56.3588 10.7236 55.2392 10.0757C54.1855 9.29816 52.6707 9.039 50.8924 9.039C48.7849 9.039 47.1385 9.62216 45.953 10.918C44.7675 12.2139 44.1748 13.9633 44.1748 16.1663C44.1748 18.2397 44.6358 19.7948 45.7555 21.0259C46.8092 22.257 48.5215 22.9049 50.7608 22.9049C53 22.9049 54.7124 22.1274 55.8978 20.7019C56.5564 19.73 56.9515 18.758 57.0833 17.6565H53.3293C53.2634 18.3045 53.0659 18.8877 52.6707 19.3412C52.2755 19.73 51.6828 19.9892 50.7608 19.9892C49.5753 19.9892 48.6533 19.406 48.324 18.3045C48.1264 17.7213 47.9288 16.9438 47.9288 15.9719C47.9288 15 47.9947 14.0929 48.324 13.5746C48.9167 12.4083 49.707 11.8251 51.0242 11.8251Z" fill="white"/>
<path d="M43.1871 8.90936C35.3498 8.90936 35.8767 15.7127 35.8767 15.7127V22.5809H39.4331V16.1663C39.4331 15.1296 39.499 14.2873 39.8283 13.8338C40.2893 12.9914 41.2113 12.473 42.6602 12.473C42.726 12.473 42.8578 12.473 43.0554 12.473C43.253 12.473 43.4505 12.4731 43.6481 12.5379V9.03899C43.4505 9.03899 43.3847 9.03899 43.3847 9.03899C43.3188 8.90941 43.3188 8.90936 43.1871 8.90936Z" fill="white"/>
<path d="M25.5366 12.473C25.9976 12.0195 26.7221 11.6955 27.6442 11.6955C28.4345 11.6955 29.1589 11.8899 29.7516 12.3435C30.3444 12.797 30.6078 13.5097 30.6078 14.4168H24.5487C24.7463 13.6393 25.0097 12.9914 25.5366 12.473ZM30.2785 18.8876C30.2127 19.082 30.0151 19.2764 29.8175 19.3412C29.3565 19.73 28.632 19.7948 27.8417 19.7948C27.0514 19.7948 26.4587 19.73 25.9318 19.3412C25.0757 18.8877 24.5487 17.8509 24.5487 16.6199H34.296C34.296 15.4536 34.296 14.5464 34.2301 14.0281C34.0325 12.9914 33.7691 12.0843 33.1764 11.3068C32.5836 10.4645 31.7933 9.75173 30.9371 9.36297C30.081 8.97421 28.9613 8.77981 27.7758 8.77981C25.8001 8.77981 24.2195 9.36297 23.034 10.6588C21.8485 11.8899 21.1241 13.6393 21.1241 15.9071C21.1241 18.3045 21.7826 20.1187 23.2315 21.1554C24.6146 22.1921 26.1952 22.84 27.9735 22.84C30.1468 22.84 31.8591 22.1921 32.9788 20.8962C33.6374 20.2483 34.0325 19.5356 34.1643 18.8229L30.2785 18.8876Z" fill="white"/>
<path d="M19.6092 22.5161H16.3162V14.5465C16.3162 13.769 16.1187 12.1491 13.9453 12.1491C12.5623 12.1491 11.5085 13.121 11.5085 14.5465V22.5161H8.21557V14.5465C8.21557 13.769 8.01801 12.1491 5.84464 12.1491C4.4616 12.1491 3.47364 13.121 3.47364 14.5465V22.5161H0.180664V14.6113C0.180664 11.3068 2.35403 8.77981 5.77872 8.77981C7.49107 8.77981 8.87416 9.42776 9.86206 10.6588C10.8499 9.49256 12.233 8.77981 13.9453 8.77981C17.5017 8.77981 19.5434 11.1772 19.5434 14.6113L19.6092 22.5161Z" fill="white"/>
</g>
</g>
<defs>
<clipPath id="clip0_15241_38365">
<rect width="99" height="41" fill="white" transform="translate(0 4)"/>
</clipPath>
</defs>
</svg>
