<svg width="99" height="48" viewBox="0 0 99 48" fill="none" xmlns="http://www.w3.org/2000/svg">
<g clip-path="url(#clip0_15167_637)">
<path d="M26.1293 26.0807H27.0513V44.223H23.5607V28.2837C23.5607 27.7654 24.6803 26.0807 26.1293 26.0807Z" fill="white"/>
<path d="M45.2285 30.098C43.5162 30.098 42.199 30.8107 41.277 32.2362V26.0807H40.8818C39.1695 26.0807 38.2475 26.9879 37.7865 27.7654V27.6358V38.0676C37.7865 42.1496 39.9598 44.223 44.3065 44.223C48.6532 44.1582 50.7608 41.8257 50.7608 37.2901C50.7608 32.5602 48.9167 30.2276 45.2285 30.098ZM44.1748 41.2425C42.199 41.2425 41.2111 39.817 41.277 37.0957C41.4087 34.4392 42.3307 33.1433 44.2407 33.1433C46.1506 33.1433 47.0726 34.4392 47.2043 37.0957C47.2043 39.8818 46.1506 41.2425 44.1748 41.2425Z" fill="white"/>
<path d="M52.8023 37.0957C52.934 32.6897 55.1074 30.2276 59.7834 30.2276H60.8372V33.7912H59.1907C57.2149 33.7912 56.3587 35.0223 56.3587 37.0309V44.1583H52.8023V37.0957Z" fill="white"/>
<path d="M66.3693 40.6593C66.9621 41.1776 67.7524 41.4369 68.8062 41.4369C69.5307 41.4369 70.1893 41.2425 70.7161 40.8537C71.243 40.4649 71.5723 40.0761 71.704 39.6874H74.997C74.4701 41.3072 73.6798 42.4087 72.5602 43.1215C71.4405 43.8342 70.1892 44.1582 68.6086 44.1582C67.5548 44.1582 66.5669 43.9638 65.7108 43.6399C64.8546 43.3159 64.1302 42.7975 63.5374 42.2143C62.9447 41.5664 62.4837 40.8537 62.1544 40.0113C61.8251 39.169 61.6933 38.1972 61.6933 37.1605C61.6933 36.1886 61.891 35.2166 62.2203 34.3743C62.5495 33.532 63.0106 32.7544 63.6033 32.1713C64.196 31.5234 64.9205 31.0699 65.7767 30.6811C66.6328 30.2923 67.5548 30.1627 68.6086 30.1627C69.7282 30.1627 70.7819 30.3571 71.6381 30.8106C72.4943 31.2642 73.2188 31.8473 73.7457 32.56C74.2725 33.2728 74.6676 34.1151 74.9311 35.087C75.1945 35.9941 75.2604 37.0308 75.1945 38.0675H65.3815C65.5132 39.2986 65.8425 40.1409 66.3693 40.6593ZM70.5844 33.6616C70.1234 33.208 69.4648 32.9489 68.5427 32.9489C67.95 32.9489 67.4231 33.0785 67.0279 33.2728C66.6328 33.4672 66.3036 33.7264 66.106 33.9856C65.8425 34.3095 65.7108 34.5687 65.5791 34.8927C65.4473 35.2167 65.4473 35.5406 65.3815 35.7997H71.4406C71.3747 34.8278 71.0454 34.1151 70.5844 33.6616Z" fill="white"/>
<path d="M34.2959 26.0807H30.8053V29.1909H34.2959V26.0807Z" fill="white"/>
<path d="M34.2959 30.746H30.8053V44.1583H34.2959V30.746Z" fill="white"/>
<path d="M94.4915 18.8885C93.8988 19.5365 93.1085 19.9252 92.1206 19.9252C91.1327 19.9252 90.3423 19.5365 89.7496 18.8885C89.1569 18.2406 88.9593 17.1391 88.9593 15.8432C88.9593 14.4826 89.2227 13.5107 89.7496 12.8627C90.3423 12.2148 91.1327 11.826 92.1206 11.826C93.1085 11.826 93.8988 12.2148 94.4915 12.8627C95.0843 13.5107 95.2818 14.6122 95.2818 15.8432C95.2818 17.0743 95.0843 18.111 94.4915 18.8885ZM97.2576 10.8541C96.2038 9.49339 94.4257 8.71591 92.1206 8.71591C89.8814 8.71591 88.0373 9.36381 86.9835 10.8541C85.9298 12.2147 85.2712 13.8994 85.2712 15.7785C85.2712 17.7223 85.8639 19.4069 86.9835 20.7028C88.0373 22.0635 89.8155 22.7762 92.1206 22.7762C94.3598 22.7762 96.2038 22.1282 97.2576 20.7028C98.3114 19.3421 98.9699 17.6575 98.9699 15.7785C99.0358 13.9642 98.4431 12.2795 97.2576 10.8541Z" fill="white"/>
<path d="M80.134 18.8886C79.673 19.5366 78.8827 19.9253 77.8948 19.9253C76.9069 19.9253 76.1166 19.5366 75.7215 18.8886C75.2605 18.1111 75.0629 17.1392 75.0629 15.8434C75.0629 14.6771 75.2605 13.7699 75.7215 13.0572C76.1825 12.2797 76.907 11.891 77.9607 11.891C78.6193 11.891 79.212 12.0853 79.7389 12.474C80.5292 13.122 80.9902 14.4179 80.9902 16.1026C80.7927 17.2688 80.6609 18.2407 80.134 18.8886ZM84.2174 4.76363C84.2174 4.76363 80.6609 4.37483 80.6609 7.16097V10.8542C80.2658 10.271 79.8047 9.81753 79.0803 9.36398C78.4876 8.97521 77.6972 8.91037 76.9069 8.91037C75.1287 8.91037 73.7456 9.55831 72.626 10.8542C71.5723 12.0853 71.0455 13.9643 71.0455 16.2969C71.0455 18.2407 71.5064 19.9254 72.626 21.0269C73.6798 22.258 75.7874 22.7763 77.6314 22.7763C84.1515 22.7763 84.0198 17.3336 84.0198 17.3336L84.2174 4.76363Z" fill="white"/>
<path d="M66.6987 17.2688C66.6987 18.4351 66.3036 19.2126 65.7109 19.6662C65.0523 20.0549 64.3278 20.3141 63.6034 20.3141C63.1424 20.3141 62.7472 20.2493 62.4179 19.9253C62.0886 19.6013 61.9569 19.2774 61.9569 18.6943C61.9569 18.0463 62.2203 17.528 62.7472 17.204C63.0106 17.0096 63.6034 16.8153 64.3278 16.7505L65.1182 16.556C65.5133 16.4913 65.7768 16.3616 66.1061 16.3616C66.3037 16.2968 66.5671 16.1673 66.7647 16.1025L66.6987 17.2688ZM68.477 9.68791C67.2915 9.10477 66.0402 8.84556 64.5254 8.84556C62.2862 8.84556 60.6397 9.42875 59.7177 10.595C59.1249 11.3726 58.8615 12.2796 58.7298 13.3811H62.0886C62.1544 12.9276 62.3521 12.5389 62.5496 12.2149C62.9448 11.8261 63.5375 11.6317 64.3278 11.6317C65.1181 11.6317 65.5791 11.6965 66.0401 11.8909C66.4353 12.0853 66.6329 12.474 66.6329 13.0572C66.6329 13.5107 66.3695 13.8347 65.8426 14.0291C65.5792 14.0939 65.0523 14.2235 64.4596 14.2883L63.2741 14.353C61.891 14.5474 60.9032 14.8066 60.1787 15.1954C58.9274 15.8433 58.2688 17.1392 58.2688 18.6943C58.2688 19.9254 58.6639 20.8973 59.4542 21.61C60.2445 22.2579 61.2325 22.5819 62.4838 22.6467C70.1894 22.9059 70.1235 18.6295 70.1235 17.7871V12.8628C70.1894 11.4374 69.6625 10.2711 68.477 9.68791Z" fill="white"/>
<path d="M51.0242 11.8261C51.8804 11.8261 52.539 12.0853 53 12.6036C53.2634 12.9924 53.461 13.4459 53.461 13.9643H57.215C57.0174 12.0853 56.3588 10.7246 55.2392 10.0767C54.1855 9.29914 52.6706 9.03998 50.8924 9.03998C48.7849 9.03998 47.1385 9.62314 45.953 10.919C44.7675 12.2149 44.1748 13.9643 44.1748 16.1673C44.1748 18.2407 44.6358 19.7958 45.7555 21.0268C46.8092 22.2579 48.5215 22.9059 50.7608 22.9059C53 22.9059 54.7124 22.1283 55.8978 20.7029C56.5564 19.731 56.9515 18.759 57.0833 17.6575H53.3293C53.2634 18.3055 53.0659 18.8887 52.6707 19.3422C52.2755 19.731 51.6828 19.9902 50.7608 19.9902C49.5753 19.9902 48.6533 19.407 48.324 18.3055C48.1264 17.7223 47.9288 16.9448 47.9288 15.9729C47.9288 15.001 47.9947 14.0939 48.324 13.5756C48.9167 12.4093 49.707 11.8261 51.0242 11.8261Z" fill="white"/>
<path d="M43.1871 8.91033C35.3498 8.91033 35.8767 15.7137 35.8767 15.7137V22.5819H39.4331V16.1673C39.4331 15.1306 39.499 14.2883 39.8283 13.8347C40.2893 12.9924 41.2113 12.474 42.6602 12.474C42.726 12.474 42.8578 12.474 43.0554 12.474C43.253 12.474 43.4505 12.4741 43.6481 12.5389V9.03997C43.4505 9.03997 43.3847 9.03997 43.3847 9.03997C43.3188 8.91038 43.3188 8.91033 43.1871 8.91033Z" fill="white"/>
<path d="M25.5366 12.474C25.9976 12.0204 26.7221 11.6965 27.6442 11.6965C28.4345 11.6965 29.1589 11.8909 29.7516 12.3444C30.3444 12.798 30.6078 13.5107 30.6078 14.4178H24.5487C24.7463 13.6403 25.0097 12.9924 25.5366 12.474ZM30.2785 18.8886C30.2127 19.083 30.0151 19.2774 29.8175 19.3422C29.3565 19.731 28.632 19.7957 27.8417 19.7957C27.0514 19.7957 26.4587 19.731 25.9318 19.3422C25.0757 18.8887 24.5487 17.8519 24.5487 16.6208H34.296C34.296 15.4545 34.296 14.5474 34.2301 14.0291C34.0325 12.9924 33.7691 12.0853 33.1764 11.3078C32.5836 10.4654 31.7933 9.75271 30.9371 9.36395C30.081 8.97518 28.9613 8.78079 27.7758 8.78079C25.8001 8.78079 24.2195 9.36395 23.034 10.6598C21.8485 11.8909 21.1241 13.6403 21.1241 15.9081C21.1241 18.3055 21.7826 20.1197 23.2315 21.1564C24.6146 22.1931 26.1952 22.841 27.9735 22.841C30.1468 22.841 31.8591 22.1931 32.9788 20.8972C33.6374 20.2493 34.0325 19.5366 34.1643 18.8238L30.2785 18.8886Z" fill="white"/>
<path d="M19.6092 22.5171H16.3162V14.5475C16.3162 13.7699 16.1187 12.15 13.9453 12.15C12.5623 12.15 11.5085 13.122 11.5085 14.5475V22.5171H8.21557V14.5475C8.21557 13.7699 8.01801 12.15 5.84464 12.15C4.4616 12.15 3.47364 13.122 3.47364 14.5475V22.5171H0.180664V14.6122C0.180664 11.3077 2.35403 8.78079 5.77872 8.78079C7.49107 8.78079 8.87416 9.42874 9.86206 10.6598C10.8499 9.49353 12.233 8.78079 13.9453 8.78079C17.5017 8.78079 19.5434 11.1782 19.5434 14.6122L19.6092 22.5171Z" fill="white"/>
</g>
<defs>
<clipPath id="clip0_15167_637">
<rect width="99" height="41" fill="white" transform="translate(0 4)"/>
</clipPath>
</defs>
</svg>
