<svg width="99" height="41" viewBox="0 0 99 41" fill="none" xmlns="http://www.w3.org/2000/svg">
<path d="M26.1293 22.0807H27.0513V40.223H23.5607V24.2837C23.5607 23.7654 24.6803 22.0807 26.1293 22.0807Z" fill="#270741"/>
<path d="M45.2285 26.098C43.5162 26.098 42.199 26.8107 41.277 28.2362V22.0807H40.8818C39.1695 22.0807 38.2475 22.9879 37.7865 23.7654V23.6358V34.0676C37.7865 38.1496 39.9598 40.223 44.3065 40.223C48.6532 40.1582 50.7608 37.8257 50.7608 33.2901C50.7608 28.5602 48.9167 26.2276 45.2285 26.098ZM44.1748 37.2425C42.199 37.2425 41.2111 35.817 41.277 33.0957C41.4087 30.4392 42.3307 29.1433 44.2407 29.1433C46.1506 29.1433 47.0726 30.4392 47.2043 33.0957C47.2043 35.8818 46.1506 37.2425 44.1748 37.2425Z" fill="#270741"/>
<path d="M52.8023 33.0957C52.934 28.6897 55.1074 26.2276 59.7834 26.2276H60.8372V29.7912H59.1907C57.2149 29.7912 56.3587 31.0223 56.3587 33.0309V40.1583H52.8023V33.0957Z" fill="#270741"/>
<path d="M66.3693 36.6593C66.9621 37.1776 67.7524 37.4369 68.8062 37.4369C69.5307 37.4369 70.1893 37.2425 70.7161 36.8537C71.243 36.4649 71.5723 36.0761 71.704 35.6874H74.997C74.4701 37.3072 73.6798 38.4087 72.5602 39.1215C71.4405 39.8342 70.1892 40.1582 68.6086 40.1582C67.5548 40.1582 66.5669 39.9638 65.7108 39.6399C64.8546 39.3159 64.1302 38.7975 63.5374 38.2143C62.9447 37.5664 62.4837 36.8537 62.1544 36.0113C61.8251 35.169 61.6933 34.1972 61.6933 33.1605C61.6933 32.1886 61.891 31.2166 62.2203 30.3743C62.5495 29.532 63.0106 28.7544 63.6033 28.1713C64.196 27.5234 64.9205 27.0699 65.7767 26.6811C66.6328 26.2923 67.5548 26.1627 68.6086 26.1627C69.7282 26.1627 70.7819 26.3571 71.6381 26.8106C72.4943 27.2642 73.2188 27.8473 73.7457 28.56C74.2725 29.2728 74.6676 30.1151 74.9311 31.087C75.1945 31.9941 75.2604 33.0308 75.1945 34.0675H65.3815C65.5132 35.2986 65.8425 36.1409 66.3693 36.6593ZM70.5844 29.6616C70.1234 29.208 69.4648 28.9489 68.5427 28.9489C67.95 28.9489 67.4231 29.0785 67.0279 29.2728C66.6328 29.4672 66.3036 29.7264 66.106 29.9856C65.8425 30.3095 65.7108 30.5687 65.5791 30.8927C65.4473 31.2167 65.4473 31.5406 65.3815 31.7997H71.4406C71.3747 30.8278 71.0454 30.1151 70.5844 29.6616Z" fill="#270741"/>
<path d="M34.2959 22.0807H30.8053V25.1909H34.2959V22.0807Z" fill="#270741"/>
<path d="M34.2959 26.746H30.8053V40.1583H34.2959V26.746Z" fill="#270741"/>
<path d="M94.4915 14.8885C93.8988 15.5365 93.1085 15.9252 92.1206 15.9252C91.1327 15.9252 90.3423 15.5365 89.7496 14.8885C89.1569 14.2406 88.9593 13.1391 88.9593 11.8432C88.9593 10.4826 89.2227 9.51068 89.7496 8.86274C90.3423 8.2148 91.1327 7.82597 92.1206 7.82597C93.1085 7.82597 93.8988 8.2148 94.4915 8.86274C95.0843 9.51068 95.2818 10.6122 95.2818 11.8432C95.2818 13.0743 95.0843 14.111 94.4915 14.8885ZM97.2576 6.85406C96.2038 5.49339 94.4257 4.71591 92.1206 4.71591C89.8814 4.71591 88.0373 5.36381 86.9835 6.85406C85.9298 8.21474 85.2712 9.89944 85.2712 11.7785C85.2712 13.7223 85.8639 15.4069 86.9835 16.7028C88.0373 18.0635 89.8155 18.7762 92.1206 18.7762C94.3598 18.7762 96.2038 18.1282 97.2576 16.7028C98.3114 15.3421 98.9699 13.6575 98.9699 11.7785C99.0358 9.96423 98.4431 8.27953 97.2576 6.85406Z" fill="#270741"/>
<path d="M80.134 14.8886C79.673 15.5366 78.8827 15.9253 77.8948 15.9253C76.9069 15.9253 76.1166 15.5366 75.7215 14.8886C75.2605 14.1111 75.0629 13.1392 75.0629 11.8434C75.0629 10.6771 75.2605 9.76993 75.7215 9.0572C76.1825 8.27967 76.907 7.89096 77.9607 7.89096C78.6193 7.89096 79.212 8.08527 79.7389 8.47404C80.5292 9.12198 80.9902 10.4179 80.9902 12.1026C80.7927 13.2688 80.6609 14.2407 80.134 14.8886ZM84.2174 0.763627C84.2174 0.763627 80.6609 0.374832 80.6609 3.16097V6.85419C80.2658 6.27104 79.8047 5.81753 79.0803 5.36398C78.4876 4.97521 77.6972 4.91037 76.9069 4.91037C75.1287 4.91037 73.7456 5.55831 72.626 6.85419C71.5723 8.08527 71.0455 9.96431 71.0455 12.2969C71.0455 14.2407 71.5064 15.9254 72.626 17.0269C73.6798 18.258 75.7874 18.7763 77.6314 18.7763C84.1515 18.7763 84.0198 13.3336 84.0198 13.3336L84.2174 0.763627Z" fill="#270741"/>
<path d="M66.6987 13.2688C66.6987 14.4351 66.3036 15.2126 65.7109 15.6662C65.0523 16.0549 64.3278 16.3141 63.6034 16.3141C63.1424 16.3141 62.7472 16.2493 62.4179 15.9253C62.0886 15.6013 61.9569 15.2774 61.9569 14.6943C61.9569 14.0463 62.2203 13.528 62.7472 13.204C63.0106 13.0096 63.6034 12.8153 64.3278 12.7505L65.1182 12.556C65.5133 12.4913 65.7768 12.3616 66.1061 12.3616C66.3037 12.2968 66.5671 12.1673 66.7647 12.1025L66.6987 13.2688ZM68.477 5.68791C67.2915 5.10477 66.0402 4.84556 64.5254 4.84556C62.2862 4.84556 60.6397 5.42875 59.7177 6.59504C59.1249 7.37257 58.8615 8.27964 58.7298 9.38113H62.0886C62.1544 8.92757 62.3521 8.53886 62.5496 8.21489C62.9448 7.82613 63.5375 7.63173 64.3278 7.63173C65.1181 7.63173 65.5791 7.69654 66.0401 7.89092C66.4353 8.0853 66.6329 8.47402 66.6329 9.05716C66.6329 9.51072 66.3695 9.83469 65.8426 10.0291C65.5792 10.0939 65.0523 10.2235 64.4596 10.2883L63.2741 10.353C61.891 10.5474 60.9032 10.8066 60.1787 11.1954C58.9274 11.8433 58.2688 13.1392 58.2688 14.6943C58.2688 15.9254 58.6639 16.8973 59.4542 17.61C60.2445 18.2579 61.2325 18.5819 62.4838 18.6467C70.1894 18.9059 70.1235 14.6295 70.1235 13.7871V8.86283C70.1894 7.43736 69.6625 6.27106 68.477 5.68791Z" fill="#270741"/>
<path d="M51.0242 7.82607C51.8804 7.82607 52.539 8.08529 53 8.60364C53.2634 8.99241 53.461 9.44595 53.461 9.9643H57.215C57.0174 8.08528 56.3588 6.72461 55.2392 6.07667C54.1855 5.29914 52.6706 5.03998 50.8924 5.03998C48.7849 5.03998 47.1385 5.62314 45.953 6.91902C44.7675 8.2149 44.1748 9.96432 44.1748 12.1673C44.1748 14.2407 44.6358 15.7958 45.7555 17.0268C46.8092 18.2579 48.5215 18.9059 50.7608 18.9059C53 18.9059 54.7124 18.1283 55.8978 16.7029C56.5564 15.731 56.9515 14.759 57.0833 13.6575H53.3293C53.2634 14.3055 53.0659 14.8887 52.6707 15.3422C52.2755 15.731 51.6828 15.9902 50.7608 15.9902C49.5753 15.9902 48.6533 15.407 48.324 14.3055C48.1264 13.7223 47.9288 12.9448 47.9288 11.9729C47.9288 11.001 47.9947 10.0939 48.324 9.57555C48.9167 8.40926 49.707 7.82607 51.0242 7.82607Z" fill="#270741"/>
<path d="M43.1871 4.91033C35.3498 4.91033 35.8767 11.7137 35.8767 11.7137V18.5819H39.4331V12.1673C39.4331 11.1306 39.499 10.2883 39.8283 9.83473C40.2893 8.99241 41.2113 8.474 42.6602 8.474C42.726 8.474 42.8578 8.474 43.0554 8.474C43.253 8.474 43.4505 8.47406 43.6481 8.53886V5.03997C43.4505 5.03997 43.3847 5.03997 43.3847 5.03997C43.3188 4.91038 43.3188 4.91033 43.1871 4.91033Z" fill="#270741"/>
<path d="M25.5366 8.47401C25.9976 8.02045 26.7221 7.69651 27.6442 7.69651C28.4345 7.69651 29.1589 7.89089 29.7516 8.34445C30.3444 8.79801 30.6078 9.51071 30.6078 10.4178H24.5487C24.7463 9.64029 25.0097 8.99236 25.5366 8.47401ZM30.2785 14.8886C30.2127 15.083 30.0151 15.2774 29.8175 15.3422C29.3565 15.731 28.632 15.7957 27.8417 15.7957C27.0514 15.7957 26.4587 15.731 25.9318 15.3422C25.0757 14.8887 24.5487 13.8519 24.5487 12.6208H34.296C34.296 11.4545 34.296 10.5474 34.2301 10.0291C34.0325 8.99237 33.7691 8.08529 33.1764 7.30776C32.5836 6.46544 31.7933 5.75271 30.9371 5.36395C30.081 4.97518 28.9613 4.78079 27.7758 4.78079C25.8001 4.78079 24.2195 5.36395 23.034 6.65982C21.8485 7.89091 21.1241 9.64033 21.1241 11.9081C21.1241 14.3055 21.7826 16.1197 23.2315 17.1564C24.6146 18.1931 26.1952 18.841 27.9735 18.841C30.1468 18.841 31.8591 18.1931 32.9788 16.8972C33.6374 16.2493 34.0325 15.5366 34.1643 14.8238L30.2785 14.8886Z" fill="#270741"/>
<path d="M19.6092 18.5171H16.3162V10.5475C16.3162 9.76993 16.1187 8.15004 13.9453 8.15004C12.5623 8.15004 11.5085 9.12199 11.5085 10.5475V18.5171H8.21557V10.5475C8.21557 9.76993 8.01801 8.15004 5.84464 8.15004C4.4616 8.15004 3.47364 9.12199 3.47364 10.5475V18.5171H0.180664V10.6122C0.180664 7.30775 2.35403 4.78079 5.77872 4.78079C7.49107 4.78079 8.87416 5.42874 9.86206 6.65982C10.8499 5.49353 12.233 4.78079 13.9453 4.78079C17.5017 4.78079 19.5434 7.17816 19.5434 10.6122L19.6092 18.5171Z" fill="#270741"/>
</svg>
