<svg width="155" height="48" viewBox="0 0 155 48" fill="none" xmlns="http://www.w3.org/2000/svg">
<g filter="url(#filter0_d_15164_565)">
<path d="M4 14.0129C7.92925 14.0129 7.92925 14.0129 8.89711 14.926C9.10996 15.2335 9.10996 15.2335 9.2402 15.498C9.52161 16.0313 9.85072 16.4872 10.2261 16.959C10.3388 17.1073 10.451 17.2559 10.5629 17.4048C11.0001 17.9823 11.444 18.5546 11.8874 19.1275C12.505 19.9261 13.1174 20.727 13.7075 21.5457C14.2214 21.0723 14.6197 20.5458 15.0293 19.9835C15.578 19.2387 16.136 18.5035 16.7123 17.7793C17.3598 16.9646 17.9872 16.1369 18.6056 15.3003C18.6687 15.2149 18.7319 15.1295 18.797 15.0415C18.852 14.9667 18.9071 14.8919 18.9638 14.8148C19.1701 14.5428 19.3864 14.2783 19.6014 14.0129C20.8981 14.0129 22.1947 14.0129 23.5307 14.0129C23.5307 20.6041 23.5307 27.1953 23.5307 33.9862C22.1959 33.9862 20.8611 33.9862 19.4859 33.9862C19.4477 29.6172 19.4096 25.2482 19.3703 20.7468C18.9126 21.3494 18.455 21.952 17.9835 22.5729C17.2756 23.4503 17.2756 23.4503 16.9276 23.877C16.6223 24.252 16.3231 24.631 16.0261 25.0125C15.9343 25.1303 15.8426 25.2482 15.748 25.3696C15.5116 25.6752 15.2792 25.9835 15.0474 26.2925C14.9459 26.4265 14.9459 26.4265 14.8424 26.5631C14.7089 26.7396 14.5762 26.9167 14.4445 27.0945C14.3838 27.1744 14.3231 27.2543 14.2605 27.3366C14.2068 27.4084 14.153 27.4803 14.0976 27.5543C13.9387 27.7089 13.9387 27.7089 13.592 27.7089C13.3622 27.4565 13.3622 27.4565 13.0936 27.0954C12.99 26.9582 12.8863 26.821 12.7826 26.6839C12.7268 26.6097 12.6711 26.5355 12.6137 26.459C12.3005 26.046 11.9779 25.6403 11.6563 25.2336C11.5181 25.0584 11.3799 24.8832 11.2418 24.708C11.1375 24.5757 11.1375 24.5757 11.0311 24.4408C10.8164 24.1683 10.602 23.8956 10.3877 23.6228C10.3171 23.533 10.2464 23.4431 10.1736 23.3505C10.0406 23.1813 9.90768 23.0121 9.7748 22.8428C9.28116 22.2151 8.77881 21.5958 8.27594 20.975C8.23781 25.2687 8.19967 29.5624 8.16038 33.9862C6.78745 33.9862 5.41453 33.9862 4 33.9862C4 27.395 4 20.8038 4 14.0129Z" fill="#270741"/>
<path d="M98.6486 14.0129C110.633 14.0129 110.633 14.0129 112.524 15.7111C113.578 16.8242 113.999 18.2191 114.019 19.7196C113.937 21.2106 113.404 22.3591 112.314 23.3901C112.048 23.6053 111.776 23.7758 111.476 23.9425C111.545 23.9866 111.613 24.0308 111.684 24.0763C111.775 24.1357 111.866 24.1951 111.96 24.2564C112.05 24.3146 112.14 24.3729 112.233 24.4329C113.213 25.1038 113.9 25.9977 114.2 27.1547C114.428 28.6372 114.308 30.3154 113.441 31.5894C112.38 32.9636 111.009 33.7148 109.281 33.9862C108.933 34.0021 108.587 34.0006 108.239 33.9991C108.134 33.9992 108.028 33.9992 107.92 33.9992C107.579 33.9991 107.239 33.9982 106.898 33.9973C106.688 33.9972 106.477 33.997 106.267 33.997C105.487 33.9964 104.708 33.9948 103.928 33.9933C102.186 33.991 100.444 33.9886 98.6486 33.9862C98.6486 27.395 98.6486 20.8038 98.6486 14.0129ZM102.809 17.8935C102.809 19.2493 102.809 20.6053 102.809 22.0022C103.535 22.0101 104.261 22.0169 104.986 22.021C105.233 22.0228 105.48 22.0251 105.727 22.0281C106.082 22.0322 106.437 22.0342 106.793 22.0357C106.902 22.0374 107.012 22.0392 107.125 22.041C108.039 22.0413 108.72 21.8525 109.396 21.2033C109.709 20.5719 109.713 19.9517 109.627 19.263C109.394 18.5995 109.025 18.292 108.401 17.9912C107.899 17.8132 107.399 17.8377 106.872 17.8489C106.755 17.8495 106.638 17.8502 106.518 17.8508C106.148 17.8534 105.779 17.8591 105.409 17.8649C105.157 17.8672 104.905 17.8693 104.654 17.8712C104.039 17.8758 103.424 17.8847 102.809 17.8935ZM102.809 25.8827C102.809 27.314 102.809 28.7452 102.809 30.2198C103.582 30.2303 104.355 30.2394 105.128 30.2449C105.391 30.2472 105.654 30.2503 105.916 30.2542C106.295 30.2598 106.674 30.2624 107.052 30.2644C107.169 30.2667 107.286 30.2691 107.406 30.2715C108.13 30.2718 108.678 30.1763 109.281 29.7633C109.765 29.2721 109.983 28.8113 110.01 28.1297C109.993 27.5264 109.884 26.9691 109.47 26.506C108.957 26.059 108.46 25.8533 107.781 25.8568C107.67 25.8569 107.559 25.8569 107.445 25.8569C107.327 25.8581 107.208 25.8593 107.086 25.8605C106.964 25.8608 106.842 25.8611 106.716 25.8614C106.326 25.8627 105.936 25.8656 105.546 25.8685C105.282 25.8696 105.017 25.8707 104.753 25.8716C104.105 25.8739 103.457 25.8784 102.809 25.8827Z" fill="#270741"/>
<path d="M39.3632 14.0129C40.7743 14.0129 42.1853 14.0129 43.6392 14.0129C44.1655 14.7556 44.6841 15.4984 45.1871 16.2559C45.2547 16.3574 45.3223 16.4589 45.392 16.5635C45.5355 16.7791 45.679 16.9947 45.8225 17.2103C46.1988 17.7761 46.5757 18.3415 46.9526 18.9068C47.0267 19.0179 47.1007 19.129 47.177 19.2435C48.072 20.5855 48.9756 21.9216 49.8797 23.2577C50.6425 24.3876 51.4052 25.5175 52.191 26.6817C52.2292 22.501 52.2673 18.3203 52.3066 14.0129C53.6795 14.0129 55.0525 14.0129 56.467 14.0129C56.467 20.6041 56.467 27.1953 56.467 33.9862C55.0559 33.9862 53.6449 33.9862 52.191 33.9862C51.1517 32.5748 51.1517 32.5748 50.7632 31.9857C50.698 31.8873 50.698 31.8873 50.6315 31.7868C50.5379 31.6453 50.4444 31.5037 50.351 31.362C50.0899 30.9656 49.8276 30.5701 49.5655 30.1743C49.5089 30.0888 49.4523 30.0032 49.394 29.915C48.7005 28.8673 48.0029 27.8222 47.3052 26.7771C47.0896 26.454 46.874 26.1308 46.6585 25.8077C45.8866 24.651 45.1118 23.4964 44.3325 22.3446C44.1037 22.0057 43.8749 21.6667 43.6392 21.3174C43.601 25.4981 43.5629 29.6788 43.5236 33.9862C42.1507 33.9862 40.7777 33.9862 39.3632 33.9862C39.3632 27.395 39.3632 20.8038 39.3632 14.0129Z" fill="#270741"/>
<path d="M136.439 14.0129C141.244 14.0129 146.049 14.0129 151 14.0129C151 15.2935 151 16.5741 151 17.8935C147.568 17.8935 144.135 17.8935 140.599 17.8935C140.599 19.2493 140.599 20.6052 140.599 22.0022C143.879 22.0022 147.159 22.0022 150.538 22.0022C150.538 23.2828 150.538 24.5634 150.538 25.8827C147.258 25.8827 143.978 25.8827 140.599 25.8827C140.599 27.314 140.599 28.7452 140.599 30.2198C144.031 30.2198 147.464 30.2198 151 30.2198C151 31.4627 151 32.7056 151 33.9862C146.195 33.9862 141.39 33.9862 136.439 33.9862C136.439 27.395 136.439 20.8038 136.439 14.0129Z" fill="#270741"/>
<path d="M83.1485 14C83.3484 14 83.5483 14.0007 83.7482 14.0018C83.8532 14.002 83.9583 14.0021 84.0664 14.0023C84.4032 14.0029 84.74 14.0044 85.0768 14.0058C85.3045 14.0064 85.5323 14.0069 85.76 14.0074C86.3196 14.0087 86.8791 14.0106 87.4387 14.0129C87.9487 15.1536 88.3634 16.3244 88.7806 17.5004C88.9975 18.1114 89.2158 18.722 89.434 19.3326C89.5018 19.5223 89.5018 19.5223 89.5709 19.7159C90.0463 21.0459 90.5295 22.3731 91.014 23.7C91.0999 23.9353 91.1858 24.1708 91.2717 24.4061C91.6295 25.3863 91.9877 26.3663 92.3461 27.3463C92.5837 27.9963 92.8212 28.6463 93.0586 29.2964C93.1912 29.6593 93.324 30.0221 93.4569 30.3849C93.539 30.6097 93.6211 30.8345 93.7032 31.0593C93.7391 31.1572 93.775 31.255 93.812 31.3559C94.13 32.2283 94.4221 33.1056 94.7193 33.9862C93.3083 33.9862 91.8972 33.9862 90.4434 33.9862C90.1515 33.2655 89.8661 32.549 89.6055 31.8177C89.5746 31.7322 89.5436 31.6467 89.5116 31.5586C89.2877 30.9325 89.2877 30.9325 89.2877 30.6763C85.2262 30.7328 85.2262 30.7328 81.0825 30.7905C80.7012 31.8451 80.3198 32.8996 79.9269 33.9862C78.4396 33.9862 76.9522 33.9862 75.4198 33.9862C75.8098 32.7022 75.8098 32.7022 75.9744 32.2506C76.0117 32.1477 76.049 32.0449 76.0875 31.939C76.1271 31.8307 76.1667 31.7224 76.2076 31.6108C76.2501 31.4938 76.2926 31.3768 76.3365 31.2562C76.476 30.8726 76.616 30.4891 76.756 30.1057C76.8551 29.8336 76.9542 29.5616 77.0532 29.2896C77.3073 28.5917 77.5617 27.8939 77.8163 27.1962C78.0379 26.5884 78.2592 25.9806 78.4805 25.3727C78.8595 24.3318 79.2391 23.2911 79.619 22.2505C79.902 21.4747 80.1846 20.6986 80.4668 19.9224C80.7028 19.2734 80.9391 18.6245 81.1754 17.9756C81.32 17.5786 81.4645 17.1816 81.6087 16.7845C81.769 16.343 81.9298 15.9018 82.0906 15.4606C82.1632 15.2602 82.1632 15.2602 82.2373 15.0558C82.2815 14.9346 82.3258 14.8134 82.3714 14.6886C82.41 14.5824 82.4487 14.4761 82.4885 14.3667C82.6531 13.9576 82.6539 14.0143 83.1485 14ZM85.1274 19.263C84.7806 20.2283 84.434 21.1936 84.0877 22.159C83.9269 22.6072 83.766 23.0554 83.605 23.5035C83.4497 23.9356 83.2946 24.3678 83.1396 24.8C83.0804 24.9653 83.021 25.1305 82.9616 25.2957C82.8787 25.5263 82.796 25.757 82.7133 25.9877C82.6661 26.1193 82.6189 26.2508 82.5702 26.3863C82.4632 26.6478 82.4632 26.6478 82.4693 26.7958C84.2618 26.7958 86.0542 26.7958 87.9009 26.7958C87.6983 26.2309 87.4957 25.6659 87.287 25.0838C86.5939 23.1475 85.9153 21.2065 85.2429 19.263C85.2048 19.263 85.1667 19.263 85.1274 19.263Z" fill="#270741"/>
<path d="M60.3962 14.0129C65.4303 14.0129 70.4643 14.0129 75.6509 14.0129C75.6509 15.3312 75.6509 16.6494 75.6509 18.0076C73.8204 18.0076 71.9898 18.0076 70.1038 18.0076C70.1038 23.2805 70.1038 28.5535 70.1038 33.9862C68.6927 33.9862 67.2817 33.9862 65.8278 33.9862C65.8278 28.7133 65.8278 23.4403 65.8278 18.0076C64.0354 18.0076 62.243 18.0076 60.3962 18.0076C60.3962 16.6894 60.3962 15.3711 60.3962 14.0129Z" fill="#270741"/>
<path d="M119.219 14.0129C120.63 14.0129 122.041 14.0129 123.495 14.0129C123.495 19.3612 123.495 24.7095 123.495 30.2198C126.432 30.2198 129.368 30.2198 132.394 30.2198C132.394 31.4627 132.394 32.7056 132.394 33.9862C128.046 33.9862 123.699 33.9862 119.219 33.9862C119.219 27.395 119.219 20.8038 119.219 14.0129Z" fill="#270741"/>
<path d="M29.309 14.0129C30.72 14.0129 32.1311 14.0129 33.5849 14.0129C33.5849 20.6041 33.5849 27.1953 33.5849 33.9862C32.1738 33.9862 30.7628 33.9862 29.309 33.9862C29.309 27.395 29.309 20.8038 29.309 14.0129Z" fill="#270741"/>
</g>
<defs>
<filter id="filter0_d_15164_565" x="0" y="0" width="155" height="56" filterUnits="userSpaceOnUse" color-interpolation-filters="sRGB">
<feFlood flood-opacity="0" result="BackgroundImageFix"/>
<feColorMatrix in="SourceAlpha" type="matrix" values="0 0 0 0 0 0 0 0 0 0 0 0 0 0 0 0 0 0 127 0" result="hardAlpha"/>
<feOffset dy="4"/>
<feGaussianBlur stdDeviation="2"/>
<feComposite in2="hardAlpha" operator="out"/>
<feColorMatrix type="matrix" values="0 0 0 0 0 0 0 0 0 0 0 0 0 0 0 0 0 0 0.25 0"/>
<feBlend mode="normal" in2="BackgroundImageFix" result="effect1_dropShadow_15164_565"/>
<feBlend mode="normal" in="SourceGraphic" in2="effect1_dropShadow_15164_565" result="shape"/>
</filter>
</defs>
</svg>
