<svg width="77" height="48" viewBox="0 0 77 48" fill="none" xmlns="http://www.w3.org/2000/svg">
<g clip-path="url(#clip0_4_20)">
<path d="M56.981 47.9996L70.3782 23.9746L57.0323 0H60.3688C62.2166 0 64.4239 1.30954 65.2965 2.87091L76.9998 23.9746L65.2451 45.0783C64.3725 46.6901 62.114 47.9492 60.3174 47.9492H56.981V47.9996Z" fill="#270741"/>
<path d="M4.46533 0C2.00148 0 0 1.9647 0 4.43268V43.5673C0 45.9849 2.00148 48 4.46533 48H53.6402L67.0372 23.9744L53.6402 0H4.46533ZM7.49402 13.297H11.4982L21.3532 29.1124H21.4043V13.297H24.9975V34.7531H20.9943L11.1904 18.9879H11.0871V34.7531H7.49402V13.297ZM28.745 13.297H32.5436V34.7531H32.4925H28.745V13.297ZM36.2901 13.297H40.0888V21.8092H49.9448V13.297H53.6913V34.7531H49.8926V25.0831H40.0888V34.7531H36.2901V13.297Z" fill="#270741"/>
</g>
<defs>
<clipPath id="clip0_4_20">
<rect width="77" height="48" fill="white"/>
</clipPath>
</defs>
</svg>
