<svg width="130" height="49" viewBox="0 0 130 49" fill="none" xmlns="http://www.w3.org/2000/svg">
<g clip-path="url(#clip0_111_1764)">
<path d="M63.4733 24.1103H61.606V19.9014H63.2889C65.3175 19.9014 66.3548 20.6144 66.3548 22.0173C66.3317 23.4203 65.3866 24.1103 63.4733 24.1103ZM68.637 17.1874C67.5536 16.2905 65.7093 15.8304 63.1045 15.8304H57.203V33.8161H61.606V28.1812H63.5886C65.986 28.1812 67.738 27.6522 68.8675 26.6173C70.1354 25.4443 70.7578 23.9033 70.7578 21.9483C70.7347 19.9474 70.0431 18.3604 68.637 17.1874Z" fill="#270741"/>
<path d="M78.2959 15.8304H73.6854V33.8391H83.6209V29.7452H78.2959V15.8304Z" fill="#270741"/>
<path d="M92.5652 27.5602L94.4554 21.4193L96.3226 27.5602H92.5652ZM92.6112 15.8304L85.3959 33.8161H90.3522L91.2972 31.1941H97.5675L98.4435 33.8161H103.446L96.2766 15.8304H92.6112Z" fill="#270741"/>
<path d="M110.315 15.8304H105.728V33.8161H110.315V15.8304Z" fill="#270741"/>
<path d="M120.828 29.7453H118.845V19.9015H120.85C122.256 19.9015 123.34 20.3385 124.1 21.2125C124.862 22.0864 125.23 23.3054 125.23 24.8924C125.23 28.1353 123.754 29.7453 120.828 29.7453ZM128.181 19.2115C127.559 18.3376 126.843 17.6476 125.99 17.1415C124.608 16.2676 122.718 15.8536 120.321 15.8536H114.257V33.8392H121.334C123.893 33.8392 125.944 33.0112 127.489 31.3553C129.033 29.6993 129.817 27.5143 129.817 24.7774C129.817 22.5924 129.264 20.7295 128.181 19.2115Z" fill="#270741"/>
<path d="M27.6963 40.601L32.6986 35.679L38.9688 42.0499L31.131 44.0739L27.6963 40.601ZM10.4532 41.8199L16.8387 35.564L21.7719 40.5549L18.2679 43.9818L10.4532 41.8199ZM35.6954 32.7581L40.6977 27.8362L44.1324 31.3091L41.9655 39.1059L35.6954 32.7581ZM19.8354 32.6201L24.8378 27.6982L29.7709 32.6891L24.7686 37.611L19.8354 32.6201ZM5.47393 31.0101L8.95481 27.5832L13.888 32.5741L7.50252 38.83L5.47393 31.0101ZM27.8346 24.7543L32.8368 19.8324L37.77 24.8233L32.7678 29.7452L27.8346 24.7543ZM11.9516 24.6392L16.9539 19.7173L21.8871 24.7083L16.8848 29.6302L11.9516 24.6392ZM19.9507 16.7734L24.953 11.8515L29.8862 16.8424L24.8838 21.7643L19.9507 16.7734ZM35.8337 16.9114L42.2191 10.6555L44.2478 18.4754L40.7669 21.9023L35.8337 16.9114ZM5.56614 18.1534L7.73305 10.3565L14.0033 16.7274L9.00091 21.6493L5.56614 18.1534ZM27.9499 8.93056L31.4307 5.50362L39.2455 7.66559L32.8599 13.9215L27.9499 8.93056ZM10.7298 7.43559L18.5676 5.41163L22.0024 8.88456L17 13.8065L10.7298 7.43559ZM19.8815 0.719727L4.98984 4.58365L0.886538 19.3724L6.02718 24.5702L0.817383 29.6992L4.69015 44.5568L19.5127 48.6507L24.7225 43.5219L29.8632 48.7197L44.7549 44.8559L48.8582 30.0441L43.7175 24.8923L48.9274 19.7633L45.0545 4.90564L30.232 0.811724L25.0222 5.94062L19.8815 0.719727Z" fill="#270741"/>
</g>
<defs>
<clipPath id="clip0_111_1764">
<rect width="129" height="48" fill="white" transform="translate(0.817383 0.719727)"/>
</clipPath>
</defs>
</svg>
