<svg width="118" height="48" viewBox="0 0 118 48" fill="none" xmlns="http://www.w3.org/2000/svg">
<path d="M61.744 17.0814C60.771 16.2641 59.0974 15.8554 56.7233 15.8554H51.3911V32.3384H55.3805V27.1619H57.1708C59.331 27.1619 60.9267 26.6754 61.9386 25.7218C63.0868 24.6515 63.6512 23.2309 63.6512 21.4405C63.6512 19.6113 63.009 18.1517 61.744 17.0814ZM57.0541 23.4255H55.361V19.5723H56.8789C58.7277 19.5723 59.6423 20.2145 59.6423 21.5184C59.6618 22.7833 58.7861 23.4255 57.0541 23.4255ZM70.4623 15.8359H66.3172V32.3189H75.2885V28.5825H70.4623V15.8359ZM83.4424 15.8359L76.9037 32.3189H81.3796L82.2359 29.9253H87.9183L88.6967 32.3189H93.231L86.7507 15.8359H83.4424ZM83.384 26.5976L85.0965 20.954L86.7896 26.5976H83.384Z" fill="#270741"/>
<path d="M95.3135 32.3193H99.478V15.8364H95.3135V32.3193ZM115.611 18.9306C115.085 18.1716 114.404 17.5294 113.626 17.0234C112.361 16.2256 110.648 15.8364 108.488 15.8364H103V32.3193H109.403C111.719 32.3193 113.587 31.5604 114.988 30.0425C116.389 28.5245 117.09 26.5201 117.09 24.0097C117.109 22.0248 116.603 20.3317 115.611 18.9306ZM108.955 28.5829H107.184V19.5728H108.994C110.259 19.5728 111.252 19.962 111.933 20.7598C112.614 21.5577 112.964 22.6864 112.964 24.146C112.945 27.1039 111.621 28.5829 108.955 28.5829ZM17.6081 2L4.122 5.52234L0.405061 19.0862L5.07556 23.854L0.34668 28.544L3.84955 42.1663L17.2772 45.9222L22.0061 41.2322L26.6572 46L40.1432 42.4777L43.8602 28.9138L39.2091 24.146L43.938 19.456L40.4351 5.8337L27.0074 2.07784L22.2786 6.7678L17.6081 2ZM9.33739 8.13003L16.4404 6.26183L19.5541 9.45334L15.0198 13.9487L9.33739 8.13003ZM24.9252 9.51172L28.0778 6.37859L35.1419 8.36356L29.3622 14.1044C29.3816 14.0849 24.9252 9.51172 24.9252 9.51172ZM4.66689 17.977L6.63239 10.835L12.3148 16.6537L7.78056 21.1491L4.66689 17.977ZM32.0477 16.8288L37.8274 11.088L39.6762 18.2689L36.5236 21.402C36.5041 21.402 32.0477 16.8288 32.0477 16.8288ZM17.6859 16.7121L22.2202 12.2167L26.6766 16.7899L22.1423 21.2853L17.6859 16.7121ZM10.4466 23.893L14.9809 19.3976L19.4373 23.9708L14.9031 28.4662L10.4466 23.893ZM24.8084 24.0097L29.3427 19.5144L33.7991 24.0876L29.2649 28.5829C29.2649 28.6024 24.8084 24.0097 24.8084 24.0097ZM4.58905 29.7311L7.74164 26.598L12.1981 31.1712L6.43779 36.912C6.41833 36.912 4.58905 29.7311 4.58905 29.7311ZM17.5691 31.2101L22.1034 26.7147L26.5599 31.2879L22.0256 35.7833L17.5691 31.2101ZM31.9309 31.3268L36.4652 26.8315L39.5789 30.023L37.6328 37.165C37.6134 37.165 31.9309 31.3268 31.9309 31.3268ZM9.08441 39.6364L14.8447 33.8956L19.3011 38.4688L16.1485 41.6019L9.08441 39.6364ZM24.6917 38.5272L29.2259 34.0318L34.9084 39.8505L27.8053 41.7187L24.6917 38.5272Z" fill="#270741"/>
</svg>
