<svg xmlns="http://www.w3.org/2000/svg" width="137" height="48" viewBox="0 0 137 48" fill="none">
<g clip-path="url(#clip0_225_1829)">
<path d="M0.5 9V26.0916L8.69551 38H18.1879L13.215 26.0916H24.4185V9H0.5Z" fill="#F9FAFB"/>
<path d="M44.6392 27.2626H40.999V33.7616H36.3777V13.2545H44.6392C48.7954 13.2545 51.9044 16.3161 51.9044 20.2731C51.9044 24.2301 48.7945 27.2626 44.6392 27.2626ZM44.4358 17.5867H40.999V22.9591H44.4358C46.0922 22.9591 47.2839 21.7748 47.2839 20.2731C47.2839 18.7419 46.0922 17.5867 44.4358 17.5867Z" fill="#F9FAFB"/>
<path d="M52.7762 26.5406C52.7762 22.2948 56.236 19.0004 60.421 19.0004C64.606 19.0004 68.0649 22.2931 68.0649 26.5389C68.0649 30.7848 64.606 34.0774 60.421 34.0774C56.236 34.0774 52.7762 30.7852 52.7762 26.5406ZM63.6457 26.5406C63.6457 24.4899 62.2507 23.0745 60.4197 23.0745C58.5888 23.0745 57.1938 24.4899 57.1938 26.5406C57.1938 28.5913 58.5888 30.0067 60.4197 30.0067C62.2507 30.0067 63.6457 28.5913 63.6457 26.5406Z" fill="#F9FAFB"/>
<path d="M69.8954 26.5406C69.8954 22.4392 72.8303 19.0021 76.6379 19.0021C78.5849 19.0021 80.1732 19.9843 80.7544 20.764V12.73H85.1428V33.7612H80.7557V31.8964C80.1269 32.996 78.5845 34.0791 76.6391 34.0791C72.8316 34.0791 69.8967 30.642 69.8967 26.5406M80.9402 26.5406C80.9402 24.4612 79.6041 22.9591 77.627 22.9591C75.65 22.9591 74.3143 24.4612 74.3143 26.5406C74.3143 28.6199 75.6504 30.1221 77.627 30.1221C79.6037 30.1221 80.9402 28.6203 80.9402 26.5406Z" fill="#F9FAFB"/>
<path d="M93.137 19.3199H88.7487V33.7616H93.137V19.3199Z" fill="#F9FAFB"/>
<path d="M96.5667 27.5518V19.3199H100.955V26.8016C100.955 28.91 101.566 30.1212 103.193 30.1212C104.85 30.1212 105.925 28.9951 105.925 26.3377V19.3199H110.313V33.7604H105.925V31.8678C105.28 33.172 103.949 34.0791 102.059 34.0791C98.4557 34.0791 96.5667 31.4798 96.5667 27.5518Z" fill="#F9FAFB"/>
<path d="M113.918 19.3199H118.306V21.2138C118.868 20.0789 120.311 19.0021 122.027 19.0021C124.119 19.0021 126.091 20.064 126.726 22.0018C127.361 20.1378 128.956 19.0021 130.978 19.0021C134.524 19.0021 136.5 21.5151 136.5 25.5298V33.7616H132.112V26.2808C132.112 24.172 131.501 22.9591 130.019 22.9591C128.479 22.9591 127.403 24.1143 127.403 26.7431V33.7616H123.015V26.2808C123.015 24.172 122.404 22.9591 120.922 22.9591C119.382 22.9591 118.306 24.1143 118.306 26.7431V33.7616H113.918V19.3199Z" fill="#F9FAFB"/>
<path d="M93.1375 12.73H88.719V16.6999H93.1375V12.73Z" fill="#F9FAFB"/>
</g>
<defs>
<clipPath id="clip0_225_1829">
<rect width="136" height="48" fill="white" transform="translate(0.5)"/>
</clipPath>
</defs>
</svg>