<svg width="115" height="42" viewBox="0 0 115 42" fill="none" xmlns="http://www.w3.org/2000/svg">
<g id="Group 135">
<path id="Vector" d="M14.8456 24.123C15.0752 24.464 15.3047 24.9378 15.5534 25.2789V16.2778C14.5035 17.5509 13.9291 19.1439 13.9274 20.7878C13.931 21.9603 14.2478 23.111 14.8456 24.123ZM17.1794 26.7759C17.6385 27.117 18.2315 27.3444 18.8054 27.5907V13.9659C18.2315 14.1933 17.6385 14.4207 17.1794 14.7808V26.7759ZM20.4314 13.6059V27.9129H22.0574V13.6059H20.4314ZM23.7026 27.5718C24.2702 27.3537 24.8149 27.0808 25.3286 26.757V14.7429C24.8695 14.4018 24.2764 14.1744 23.7026 13.928V27.5718ZM26.8398 16.3915V25.3926L27.5476 24.3503C28.1016 23.3184 28.3844 22.1649 28.3702 20.9963C28.4849 19.1581 27.8919 17.5285 26.8398 16.3915ZM17.8681 0.227396C17.1558 0.32449 16.4522 0.47655 15.7638 0.682189L16.9307 4.94587L18.6715 4.60477C18.6906 4.60477 17.8681 0.227396 17.8681 0.227396ZM7.38512 11.8815L3.65487 9.45589C3.19577 10.0244 2.83231 10.7255 2.48798 11.294L6.44778 13.2648C6.81124 12.81 7.04079 12.3362 7.38512 11.8815ZM13.6787 1.38333C12.9709 1.61072 12.397 1.95182 11.6893 2.31186L13.6787 6.23445C14.2526 5.89335 14.7308 5.77965 15.3047 5.53331L13.6787 1.38333ZM12.1675 7.03033L9.83369 3.33514C9.19392 3.72703 8.5746 4.15078 7.97813 4.60477L10.771 8.07257L12.1675 7.03033ZM9.48936 9.2285L6.35213 6.12075C5.85857 6.63313 5.39245 7.17077 4.95568 7.73147L8.45637 10.4981C8.76029 10.0442 9.10611 9.61912 9.48936 9.2285ZM31.5074 8.07257L34.3003 4.71847L32.5595 3.33514L30.1109 7.03033C30.6166 7.32152 31.0854 7.6714 31.5074 8.07257ZM30.6848 2.29291C29.977 1.95182 29.4031 1.72442 28.6954 1.36438L27.0693 5.51436C27.6236 5.71909 28.1664 5.95314 28.6954 6.2155C28.7145 6.2155 30.6848 2.29291 30.6848 2.29291ZM34.0707 10.4981L37.4567 7.73147C36.9841 7.16663 36.4796 6.62885 35.9454 6.12075L32.8082 9.2285L34.0707 10.4981ZM35.8115 13.3785L39.7713 11.4077C39.455 10.7526 39.0634 10.1358 38.6044 9.56959L34.8742 11.9952C35.2376 12.3362 35.4672 12.81 35.8115 13.3785ZM36.9784 16.5052L41.2826 15.3492L40.5748 13.2648L36.3854 14.8755C36.6239 15.4033 36.8222 15.948 36.9784 16.5052ZM26.6102 0.682189C25.9219 0.47655 25.2183 0.32449 24.506 0.227396L23.7982 4.60477L25.539 4.94587C25.5581 4.94587 26.6102 0.682189 26.6102 0.682189ZM22.3061 0H20.0871L20.3166 4.51003H22.0574C22.0766 4.49108 22.3061 0 22.3061 0ZM5.28088 25.0325L0.976747 26.1885L1.68454 28.2729L5.87389 26.6622C5.64434 26.0748 5.41478 25.5063 5.28088 25.0325ZM37.4567 23.3081L41.8756 24.0093C42.0087 23.2834 42.0855 22.5485 42.1051 21.8111L37.5523 21.5837C37.5873 22.1602 37.5552 22.7388 37.4567 23.3081ZM36.5193 26.6622L40.7087 28.2729L41.4165 26.1885L37.1123 25.0325C36.9784 25.5063 36.7489 26.0748 36.5193 26.6622ZM41.8756 17.5285L37.4567 18.2296C37.5714 18.7981 37.5714 19.3855 37.6862 19.954L42.1051 19.7266C41.9903 18.9307 41.9903 18.2296 41.8756 17.5285ZM35.0081 29.6563L38.7383 32.0818C39.1974 31.5133 39.5609 30.8122 39.9052 30.2437L35.9454 28.2729C35.6664 28.7554 35.3531 29.2177 35.0081 29.6563ZM32.9038 32.3092L36.0411 35.417C36.5731 34.9068 37.0776 34.3691 37.5523 33.8062L34.0516 31.0396C33.6116 31.4944 33.2482 31.9681 32.9038 32.3092ZM30.2257 34.5074L32.6743 38.2026C33.2814 37.8167 33.8628 37.3926 34.4151 36.9329L31.6222 33.4651L30.2257 34.5074ZM5.75912 14.8755L1.56976 13.2648L0.86197 15.3492L5.1661 16.5052C5.41478 15.9177 5.64434 15.4629 5.75912 14.8755ZM8.32246 31.0396L4.82177 33.8062C5.26459 34.3962 5.77136 34.9364 6.333 35.417L9.60414 32.3092L8.32246 31.0396ZM6.44778 28.1592L2.48798 30.13C2.80433 30.7851 3.19588 31.4019 3.65487 31.9681L7.38512 29.5426C7.15557 29.2015 6.81124 28.7277 6.44778 28.1592ZM4.70699 21.5837L0.288086 21.9248C0.307767 22.6246 0.384535 23.3217 0.51764 24.0093L4.93655 23.3081C4.8038 22.742 4.72692 22.1645 4.70699 21.5837ZM10.771 33.4651L7.97813 36.9329C8.53038 37.3926 9.11184 37.8167 9.71892 38.2026L12.1675 34.5074L10.771 33.4651ZM4.93655 18.2296L0.51764 17.5285C0.378531 18.2534 0.301738 18.9888 0.288086 19.7266L4.70699 19.954C4.72692 19.3732 4.8038 18.7957 4.93655 18.2296ZM27.0885 36.0044L28.7145 40.1544C29.4117 39.9221 30.0793 39.6105 30.704 39.2259L28.7145 35.3033C28.1215 35.5496 27.6624 35.777 27.0885 36.0044ZM11.6893 39.2448C12.397 39.5859 12.9709 39.8133 13.6787 40.1733L15.3047 36.0234C14.7874 35.8195 14.2828 35.5854 13.7935 35.3222L11.6893 39.2448ZM20.0871 41.5377H22.3061L22.0766 37.0277H20.3166L20.0871 41.5377ZM23.8173 36.9329L24.5251 41.3103C25.2374 41.2132 25.941 41.0612 26.6294 40.8555L25.4625 36.5918C24.8695 36.7055 24.3912 36.8192 23.8173 36.9329ZM15.783 40.8555C16.4714 41.0612 17.1749 41.2132 17.8872 41.3103L18.595 36.9329C18.0211 36.8192 17.4281 36.7055 16.969 36.5918C16.9499 36.5918 15.783 40.8555 15.783 40.8555Z" fill="#1981FF"/>
<path id="Vector_2" d="M50.1309 31.3797V10.8382H58.5287C60.3134 10.8872 62.0076 11.6268 63.2484 12.8984C64.4892 14.1701 65.1778 15.8726 65.1666 17.6411C65.1949 18.5135 65.048 19.3828 64.7345 20.1985C64.421 21.0142 63.947 21.7602 63.3402 22.393C62.7334 23.0259 62.0057 23.533 61.1995 23.8851C60.3932 24.2372 59.5244 24.4272 58.6435 24.4441H54.0907V31.3607H50.1309V31.3797ZM54.2054 20.9952H58.5096C60.0208 20.9952 61.0729 19.7256 61.0729 17.6411C61.0729 15.5567 59.6765 14.287 58.28 14.287H54.2054V20.9952ZM76.7017 19.3845C75.6241 19.3751 74.5647 19.6602 73.64 20.2085C72.7153 20.7568 71.961 21.547 71.4602 22.4923V31.4934H67.5004V16.1441H71.1159V19.3845C72.2828 17.3 74.2531 15.9167 75.8983 15.9167H76.7208C76.7017 15.9167 76.7017 19.3845 76.7017 19.3845ZM77.7538 23.8756C77.6951 21.8257 78.4597 19.8364 79.8799 18.3443C81.3001 16.8522 83.2598 15.9791 85.3291 15.9167H85.903C90.9149 15.9167 93.593 19.4982 93.593 23.6482C93.6119 24.1122 93.5734 24.5768 93.4782 25.0315H82.0579C82.0969 26.069 82.5459 27.0497 83.3081 27.7623C84.0703 28.4748 85.0847 28.862 86.1325 28.8404C86.9398 28.8398 87.7303 28.6113 88.4112 28.1817C89.0922 27.7521 89.6355 27.1392 89.9776 26.4148L93.2487 27.6845C91.8522 30.2237 89.0593 31.8345 86.1325 31.6071C80.6615 31.7397 77.7538 28.1582 77.7538 23.8756ZM89.8628 22.606C89.748 20.5215 88.0072 18.7971 85.903 18.7971C84.8729 18.7986 83.8839 19.1968 83.1449 19.9076C82.4059 20.6184 81.975 21.5861 81.9432 22.606H89.8628ZM110.255 12.1078C110.255 11.6731 110.385 11.2481 110.629 10.8866C110.873 10.5251 111.219 10.2434 111.625 10.077C112.03 9.91062 112.476 9.86709 112.907 9.95191C113.337 10.0367 113.733 10.2461 114.043 10.5535C114.353 10.8609 114.565 11.2526 114.65 11.679C114.736 12.1054 114.692 12.5474 114.524 12.949C114.356 13.3507 114.072 13.694 113.707 13.9355C113.342 14.1771 112.913 14.306 112.474 14.306C112.18 14.3155 111.887 14.2651 111.613 14.158C111.34 14.0509 111.091 13.8893 110.883 13.6833C110.675 13.4772 110.512 13.2311 110.404 12.9601C110.296 12.6891 110.245 12.3991 110.255 12.1078ZM110.484 31.3797V16.1441H114.444V31.3797H110.484ZM94.0521 31.3797L101.972 19.3656H94.8556V16.1441H107.787L99.8675 28.2719H107.902V31.3797H94.0521Z" fill="#1981FF"/>
<path id="Vector_3" d="M21.1537 8.15081C17.9005 8.15081 14.6664 9.44745 12.4595 11.8085C10.1385 14.1696 8.74972 17.3434 8.86387 20.6528C8.74972 23.9621 10.1385 27.136 12.4595 29.497C14.7805 31.8581 17.9005 33.2708 21.1537 33.1547C22.7682 33.1571 24.3673 32.8352 25.8593 32.2075C27.3512 31.5798 28.7067 30.6587 29.8479 29.497C32.1689 27.136 33.5577 23.9621 33.4436 20.6528C33.4436 17.3434 32.1689 14.0534 29.8479 11.8085C27.6411 9.44745 24.5211 8.15081 21.1537 8.15081ZM29.0299 28.781C27.9983 29.8362 26.7707 30.6722 25.4185 31.2403C24.0664 31.8084 22.6167 32.0974 21.1537 32.0903C18.1478 32.2064 15.3512 30.9098 13.2776 28.781C12.1981 27.7642 11.3483 26.5213 10.7867 25.1381C10.225 23.7549 9.96495 22.2642 10.0244 20.7689C9.91022 17.7111 11.1849 14.8663 13.2776 12.7568C14.2771 11.6587 15.4989 10.7942 16.8586 10.2229C18.2184 9.65157 19.6838 9.38701 21.1537 9.44745C22.617 9.43834 24.0673 9.72635 25.4197 10.2946C26.7721 10.8629 27.9995 11.6999 29.0299 12.7568C30.0638 13.8088 30.8834 15.058 31.4416 16.4329C31.9999 17.8078 32.2858 19.2813 32.2831 20.7689C32.3443 22.2644 32.085 23.7557 31.5233 25.1391C30.9616 26.5226 30.1108 27.7653 29.0299 28.781ZM21.1537 10.7441C19.8411 10.7312 18.539 10.9846 17.3238 11.4897C16.1086 11.9947 15.0046 12.7412 14.0764 13.6855C13.1481 14.6297 12.4143 15.7528 11.9178 16.989C11.4213 18.2252 11.1722 19.5497 11.1849 20.885C11.1849 23.5944 12.2312 26.1877 14.0766 27.9488C15.9596 29.8441 18.5048 30.902 21.1537 30.8904C23.8172 30.8904 26.3664 29.826 28.0977 27.9488C29.9355 26.0715 30.9741 23.5344 30.9894 20.885C30.9935 18.1918 29.9546 15.6054 28.0977 13.6857C27.213 12.7206 26.1358 11.9589 24.9382 11.4515C23.7406 10.9442 22.4504 10.703 21.1537 10.7441ZM29.8479 21.2334C29.8415 22.3982 29.5903 23.5483 29.1113 24.6063C28.6323 25.6644 27.9364 26.6061 27.0704 27.3682C25.3391 29.0132 23.1323 29.8454 20.8113 29.6131C19.675 29.5687 18.5588 29.2944 17.5278 28.8063C16.4968 28.3182 15.5718 27.6261 14.8067 26.7703C14.0416 25.9145 13.4518 24.9123 13.0716 23.822C12.6915 22.7318 12.5287 21.5755 12.5927 20.4205V20.3044C12.6453 19.1368 12.9284 17.9918 13.4252 16.9378C13.9221 15.8839 14.6223 14.9424 15.4844 14.1696C17.2156 12.5246 19.4225 11.6924 21.7435 11.9246C22.8742 11.9815 23.9817 12.2716 24.9988 12.7773C26.0159 13.283 26.9213 13.9937 27.6601 14.8663C29.1793 16.6163 29.9646 18.9017 29.8479 21.2334ZM34.8324 15.0017C34.0364 13.2392 32.9846 11.6082 31.7123 10.1635C30.3798 8.75759 28.7547 7.67309 26.9562 6.98964C25.1246 6.18737 23.1478 5.78519 21.1537 5.80911C19.1598 5.78708 17.1834 6.18919 15.3512 6.98964C13.5932 7.68723 12.0081 8.77097 10.7092 10.1635C9.32718 11.5191 8.26108 13.1722 7.58922 15.0017C6.80057 16.865 6.40521 18.8759 6.42872 20.9044C6.40707 22.9327 6.80235 24.9432 7.58922 26.807C8.71758 29.5216 10.6043 31.8396 13.0156 33.4737C15.4268 35.1078 18.2564 35.986 21.1537 35.9996C23.1476 36.0216 25.124 35.6195 26.9562 34.8191C28.6874 34.103 30.3236 32.9418 31.7123 31.6452C33.067 30.3117 34.1301 28.7027 34.8324 26.9231C35.6316 25.0632 36.0274 23.05 35.9929 21.0205C35.9929 18.7562 35.6314 16.7628 34.8324 15.0017ZM33.6719 26.1877C32.9923 27.8149 32.0105 29.2934 30.7801 30.5421C29.5577 31.7998 28.103 32.7995 26.4996 33.4837C23.1237 34.8965 19.336 34.8965 15.96 33.4837C14.3255 32.7946 12.8343 31.7964 11.5654 30.5421C10.329 29.2985 9.34623 27.8187 8.67362 26.1877C7.28484 22.7535 7.28484 18.9004 8.67362 15.4662C9.35318 13.839 10.335 12.3605 11.5654 11.1118C12.7878 9.85406 14.2425 8.85438 15.8459 8.17016C17.4958 7.46356 19.2685 7.10158 21.0586 7.10576C22.8498 7.09011 24.6248 7.45254 26.2713 8.17016C27.9058 8.85933 29.3971 9.8575 30.666 11.1118C31.9024 12.3554 32.8851 13.8352 33.5577 15.4662C34.3461 17.1361 34.7649 18.9616 34.7846 20.8141C34.8043 22.6665 34.4245 24.5008 33.6719 26.1877Z" fill="#1981FF"/>
</g>
</svg>
