<svg width="125" height="48" viewBox="0 0 125 48" fill="none" xmlns="http://www.w3.org/2000/svg">
<g opacity="0.8" clip-path="url(#clip0_15241_38354)">
<path d="M41.4143 32.7764C40.6461 32.7764 40.4925 32.2096 40.4925 31.2306V21.4918C40.4925 18.163 38.6147 16.1811 35.4669 16.1811C31.7113 16.1811 30.0043 19.0695 29.9744 21.9322V22.05H32.4923V21.9314C32.4559 20.9699 32.8021 20.0331 33.4551 19.3264C33.7027 19.0718 33.9995 18.8703 34.3275 18.734C34.6554 18.5977 35.0076 18.5295 35.3627 18.5335C36.8667 18.5335 37.7646 19.7071 37.7646 21.6728V22.586L34.7678 24.008C31.3699 25.5973 29.1431 26.8896 29.1431 30.2431C29.1431 33.1869 30.9952 35.1646 33.7521 35.1646C34.5742 35.1387 35.38 34.9293 36.1106 34.5517C36.8412 34.174 37.4781 33.6377 37.9746 32.9821C38.1222 33.6237 38.4899 34.1933 39.0138 34.592C39.5377 34.9907 40.1847 35.1933 40.8424 35.1646C41.3752 35.1587 41.9018 35.05 42.3933 34.8445L42.465 34.8146V32.4367L42.2943 32.5306C42.0314 32.697 41.7254 32.7824 41.4143 32.7764ZM37.7654 24.9998V30.6792C37.416 31.2942 36.923 31.8155 36.3285 32.1988C35.734 32.5821 35.0557 32.816 34.3513 32.8805C34.0094 32.8992 33.6675 32.8435 33.3493 32.7171C33.031 32.5907 32.7441 32.3966 32.5082 32.1484C32.2723 31.9002 32.0932 31.6037 31.9831 31.2795C31.8731 30.9552 31.8348 30.6109 31.8709 30.2704C31.8709 28.0256 33.8341 26.8298 35.5411 26.0386L37.7654 24.9998ZM55.4251 10.7484H52.7723L52.6741 16.5447H50.2458V19.02H52.6724V30.9933C52.6724 33.6811 53.9314 35.1611 56.2171 35.1611C57.1706 35.1456 58.1034 34.8808 58.9228 34.393L58.9826 34.3597V31.8639L58.7922 32.0193C58.2634 32.4797 57.5929 32.7453 56.8923 32.7721C55.6794 32.7721 55.4251 31.7624 55.4251 30.9148V19.0242H59.3334V16.549H55.4251V10.7484ZM23.5131 30.5188C22.4752 32.0244 21.2812 32.8532 20.1502 32.8532C18.6659 32.8532 18.1376 31.3979 18.1376 30.0365V16.5439H15.4105V30.1654C15.4105 33.3423 16.8445 35.1646 19.3453 35.1646C20.1714 35.1592 20.9845 34.9586 21.7183 34.5792C22.4521 34.1997 23.0858 33.6522 23.5678 32.9812L23.6139 34.8274H26.2393V16.5439H23.5123L23.5131 30.5188ZM9.4196 18.2048C8.71458 16.9143 7.33527 16.1384 5.86634 16.2067C5.08242 16.2212 4.31325 16.4224 3.62258 16.7934C2.93191 17.1645 2.33964 17.6949 1.89484 18.3406C0.63759 20.0246 0 22.4998 0 25.698C0 32.697 2.82861 35.1902 5.47627 35.1902C6.88631 35.2286 8.23148 34.5953 9.09952 33.4831V48H11.8556V16.5439H9.49385L9.4196 18.2048ZM9.10038 20.7313V30.733C8.34158 32.1046 7.42147 32.7439 6.20434 32.7439C3.95101 32.7439 2.80898 30.3643 2.80898 25.6724C2.80898 21.1623 4.0944 18.5753 6.33407 18.5753C7.62632 18.6163 8.74445 19.4877 9.10038 20.7313ZM44.6774 8H47.4035V34.8274H44.6774V8ZM72.3208 16.5447H75.0469V34.8274H72.3208V16.5447ZM72.3464 10.7236H75.0469V13.8894H72.3464V10.7236ZM64.7781 18.6794L64.6407 16.5456H62.051V34.8547H64.7781V21.6762C66.014 19.1676 67.6118 18.8211 69.1448 18.8202L69.7909 18.8723V16.2084H69.0509C67.1091 16.2067 66.0396 16.8136 64.7781 18.6794ZM97.3532 23.9679L97.2832 24.0635L97.3378 23.9602C95.6265 23.0768 94.4145 22.3325 94.4145 20.7919C94.3957 20.1731 94.6407 19.5756 95.0896 19.1497C95.3116 18.939 95.5756 18.7776 95.8644 18.6763C96.1532 18.5749 96.4601 18.5358 96.7651 18.5616C97.107 18.549 97.4475 18.6099 97.7638 18.7402C98.0801 18.8705 98.3648 19.0672 98.5985 19.317C98.8866 19.6757 99.0974 20.09 99.2177 20.5341C99.3379 20.9781 99.3651 21.4422 99.2975 21.8972L99.2847 22.0253H101.81L101.816 21.9143C101.954 20.3634 101.448 18.8237 100.419 17.656C99.9475 17.1766 99.3817 16.8001 98.7574 16.5504C98.133 16.3006 97.4637 16.1831 96.7916 16.205C93.8477 16.205 91.7924 18.1536 91.7924 20.9438C91.7924 23.9841 94.2301 25.2883 96.0089 26.2409C97.7876 27.1934 99.4537 28.111 99.4537 30.0075C99.466 30.3738 99.4028 30.7387 99.2681 31.0795C99.1333 31.4203 98.9299 31.7297 98.6704 31.9886C98.411 32.2474 98.101 32.4501 97.7599 32.584C97.4187 32.7179 97.0537 32.7802 96.6874 32.767C94.942 32.767 93.6864 31.2998 93.6352 29.1992V29.0848H91.0882V29.2043C91.1736 32.895 93.3151 35.1876 96.6849 35.1876C98.1273 35.2815 99.5408 34.7557 100.57 33.7409C101.6 32.726 102.147 31.3202 102.073 29.8769C102.075 26.4671 99.5664 25.1372 97.3532 23.9679ZM86.7122 29.0883C86.7369 30.1782 86.378 31.2421 85.6982 32.0944C85.4903 32.3143 85.2385 32.488 84.9591 32.6043C84.6797 32.7206 84.379 32.7769 84.0765 32.7695C81.9776 32.7695 80.8689 30.3242 80.8689 25.6989C80.8689 21.0958 82.0169 18.5599 84.1021 18.5599C84.3837 18.5535 84.6635 18.606 84.9237 18.7141C85.1839 18.8221 85.4186 18.9833 85.6128 19.1873C86.2497 19.9761 86.5906 20.9629 86.5765 21.9766H89.1576C89.2338 20.3534 88.6932 18.7614 87.6442 17.5203C87.1959 17.0702 86.6585 16.7186 86.0665 16.488C85.4745 16.2574 84.8409 16.1529 84.2062 16.1811C80.2953 16.1811 78.1461 19.5517 78.1461 25.6733C78.1461 31.7948 80.2356 35.1654 84.0287 35.1654C87.0835 35.1654 88.9945 32.9095 89.2352 29.0883H86.7122ZM105.939 33.361C105.997 33.2532 106.027 33.132 106.024 33.0094C106.034 32.8412 105.972 32.6757 105.854 32.5562C105.711 32.4369 105.527 32.3778 105.341 32.3914H104.369V34.3426H104.851V33.6461H105.22L105.549 34.3426H106.093L105.676 33.5855C105.787 33.5441 105.88 33.4645 105.939 33.361ZM105.457 33.2066C105.374 33.2448 105.283 33.2621 105.192 33.2569H104.851V32.7602H105.192C105.284 32.7544 105.376 32.7754 105.457 32.8208C105.488 32.8433 105.513 32.8737 105.529 32.9089C105.545 32.9441 105.552 32.9828 105.548 33.0213C105.556 33.0956 105.521 33.1681 105.457 33.2066Z" fill="white"/>
<path d="M106.768 32.6554C106.683 32.4506 106.557 32.2645 106.398 32.1091C106.24 31.9538 106.052 31.8352 105.846 31.7541C105.404 31.5846 104.914 31.5846 104.472 31.7541C104.266 31.835 104.078 31.9556 103.918 32.1091C103.759 32.2645 103.635 32.4506 103.549 32.6554C103.371 33.1112 103.371 33.6174 103.549 34.0731C103.634 34.2806 103.759 34.469 103.918 34.6271C104.077 34.7827 104.265 34.9046 104.472 34.9856C104.914 35.155 105.404 35.155 105.846 34.9856C106.053 34.9045 106.24 34.7824 106.398 34.6271C106.556 34.4717 106.683 34.2805 106.768 34.0731C106.946 33.6174 106.946 33.1112 106.768 32.6554ZM106.432 33.9357C106.364 34.1021 106.265 34.2538 106.14 34.3821C106.017 34.5084 105.868 34.6066 105.704 34.6706C105.359 34.8051 104.976 34.8051 104.632 34.6706C104.468 34.6065 104.319 34.5081 104.196 34.3821C104.071 34.2541 103.972 34.1021 103.904 33.9357C103.761 33.5694 103.761 33.1625 103.904 32.7962C103.971 32.6297 104.071 32.478 104.196 32.3498C104.319 32.2244 104.468 32.1254 104.632 32.0613C104.976 31.9268 105.359 31.9268 105.704 32.0613C105.868 32.1262 106.017 32.2244 106.14 32.3498C106.263 32.4753 106.364 32.6298 106.432 32.7962C106.575 33.1625 106.575 33.5694 106.432 33.9357Z" fill="white"/>
<path d="M121.93 10.6284L119.572 18.9751H119.542L117.012 10.6284H111.416L109.5 14.0349L107.471 10.6284H104.626L107.935 15.9809L104.305 21.977H106.924L109.253 18.0089L111.663 21.977H115.956V14.1091H115.986C116.046 14.4386 116.103 14.7205 116.157 14.955C116.211 15.1894 116.262 15.4065 116.31 15.6062L116.471 16.1755L116.647 16.767L118.332 21.9736H120.54L122.239 16.767C122.364 16.3477 122.48 15.9434 122.587 15.5542C122.704 15.1201 122.798 14.6802 122.868 14.2363H122.898V21.977H125.308V10.625L121.93 10.6284ZM110.757 15.9954L113.718 11.0808V20.8111L110.757 15.9954Z" fill="white"/>
</g>
<defs>
<clipPath id="clip0_15241_38354">
<rect width="125" height="48" fill="white"/>
</clipPath>
</defs>
</svg>
