<svg xmlns="http://www.w3.org/2000/svg" width="108" height="48" viewBox="0 0 108 48" fill="none">
<g clip-path="url(#clip0_225_1824)">
<path d="M35.8843 31.6881C35.2277 31.6881 35.0818 31.1645 35.0818 30.3419V21.8162C35.0818 18.8995 33.4768 17.1794 30.7773 17.1794C27.5672 17.1794 26.108 19.7222 26.108 22.1901V22.2649H28.2967V22.1901C28.2967 21.3674 28.5886 20.5449 29.0993 19.8717C29.5371 19.423 30.1207 19.1986 30.7043 19.1986C32.0176 19.1986 32.7472 20.2457 32.7472 21.9658V22.7884L30.1937 24.0598C27.2753 25.4807 25.3784 26.6025 25.3784 29.5192C25.3784 32.0619 26.9836 33.8569 29.3181 33.8569C30.7773 33.782 32.0906 33.1089 32.8931 31.9124C33.1849 33.1089 34.2063 33.8569 35.3736 33.8569C35.8113 33.8569 36.2491 33.782 36.6869 33.5577H36.7598V31.4637L36.6138 31.5385C36.395 31.6132 36.1761 31.6881 35.8843 31.6881ZM32.7472 24.8825V29.8932C32.1635 31.015 31.0691 31.6881 29.8288 31.8376C28.7345 31.9124 27.7861 31.015 27.7131 29.8932C27.7131 29.8184 27.7131 29.6688 27.7131 29.594C27.7131 27.6495 29.3911 26.6025 30.8502 25.8547L32.7472 24.8825Z" fill="#F9FAFB"/>
<path d="M45.5876 12.3932L45.5147 17.4787H43.4718V19.6475H45.5147V30.1176C45.5147 32.436 46.609 33.7822 48.5789 33.7822C49.3814 33.7822 50.1839 33.5578 50.9135 33.1091H50.9864V30.9403L50.8406 31.0899C50.4028 31.4638 49.8191 31.763 49.2355 31.763C48.2141 31.763 47.9952 30.8655 47.9952 30.1176V19.6475H51.3512V17.4787H47.9952V12.3932H45.5876Z" fill="#F9FAFB"/>
<path d="M20.5633 29.7437C19.6878 31.0899 18.6664 31.763 17.718 31.763C16.4776 31.763 15.967 30.4916 15.967 29.295V17.4787H13.6323V29.4446C13.6323 32.2117 14.8726 33.857 16.9884 33.857C18.4475 33.857 19.7607 33.1091 20.5633 31.9125L20.6362 33.5579H22.8979V17.4787H20.5633V29.7437Z" fill="#F9FAFB"/>
<path d="M8.52531 18.9743C7.94165 17.8525 6.77433 17.1794 5.4611 17.2542C4.07491 17.2542 2.83464 18.0021 2.03211 19.1239C1.0107 20.5448 0.5 22.7137 0.5 25.4807C0.5 31.6132 2.90759 33.782 5.16927 33.782C6.40954 33.782 7.50391 33.2585 8.23348 32.2863V45H10.5681V17.4786H8.52531V18.9743ZM8.30644 21.1431V29.8932C7.64982 31.0897 6.84728 31.688 5.82589 31.688C3.92899 31.688 2.90759 29.594 2.90759 25.4807C2.90759 21.517 4.00195 19.2735 5.89884 19.2735C6.9932 19.2735 7.94165 20.0961 8.30644 21.1431Z" fill="#F9FAFB"/>
<path d="M40.9913 10H38.6567V33.483H40.9913V10Z" fill="#F9FAFB"/>
<path d="M64.6295 17.4787H62.2949V33.4831H64.6295V17.4787Z" fill="#F9FAFB"/>
<path d="M64.7024 12.3932H62.3678V15.1603H64.7024V12.3932Z" fill="#F9FAFB"/>
<path d="M55.8746 19.3482L55.7287 17.4786H53.5399V33.5577H55.8746V21.9658C56.896 19.797 58.2822 19.4978 59.5954 19.4978L60.1791 19.5726V17.1794H59.5225C57.8444 17.1794 56.969 17.7029 55.8746 19.3482Z" fill="#F9FAFB"/>
<path d="M83.7439 23.985C82.2854 23.2371 81.2638 22.5641 81.2638 21.2179C81.2638 20.1709 82.0663 19.2735 83.0874 19.2735C83.161 19.2735 83.2338 19.2735 83.3065 19.2735C83.8903 19.2735 84.474 19.4978 84.8386 19.9465C85.3496 20.5449 85.5679 21.3674 85.4224 22.1901V22.3397H87.611V22.2649C87.7574 20.9187 87.3192 19.5726 86.4435 18.5256C85.6415 17.7029 84.474 17.1794 83.3793 17.2542C80.899 17.2542 79.075 18.9743 79.075 21.4423C79.075 24.1346 81.1908 25.2564 82.65 26.079C84.1094 26.9017 85.5679 27.7244 85.5679 29.3696C85.6415 30.641 84.6195 31.7628 83.3793 31.7628C83.3065 31.7628 83.3065 31.7628 83.2338 31.7628C81.7745 31.7628 80.6801 30.4914 80.6072 28.6218V28.547H78.4184V28.6218C78.4914 31.8376 80.3153 33.8569 83.2338 33.8569C85.6415 34.0064 87.6838 32.1368 87.8301 29.7436C87.8301 29.594 87.8301 29.3696 87.8301 29.22C87.7574 26.1538 85.6415 25.032 83.7439 23.985Z" fill="#F9FAFB"/>
<path d="M74.6246 28.4724C74.6246 29.4446 74.3328 30.342 73.7492 31.0899C73.3844 31.4638 72.8737 31.6882 72.363 31.6882C70.5391 31.6882 69.5906 29.5194 69.5906 25.4809C69.5906 21.4424 70.5391 19.1988 72.363 19.1988C72.8737 19.1988 73.3114 19.4232 73.6762 19.7223C74.1869 20.3955 74.4788 21.2929 74.4788 22.1903H76.6675C76.7404 20.7693 76.3027 19.3484 75.3542 18.3014C74.5517 17.4787 73.5303 17.1048 72.4359 17.1048C69.0799 17.1048 67.256 20.0215 67.256 25.4062C67.256 30.7907 69.0069 33.7075 72.2901 33.7075C74.9165 33.7075 76.5215 31.763 76.7404 28.3976L74.6246 28.4724Z" fill="#F9FAFB"/>
<path d="M91.0399 32.2117C91.1127 32.1369 91.1127 31.9874 91.1127 31.9125C91.1127 31.763 91.0399 31.6134 90.9671 31.5387C90.8208 31.4638 90.6753 31.3891 90.5297 31.3891H89.7269V33.1092H90.1643V32.4361H90.4562L90.748 33.0344H91.1862L90.8208 32.3613C90.8944 32.3613 90.9671 32.2865 91.0399 32.2117ZM90.6753 32.0621C90.6025 32.0621 90.5297 32.1369 90.4562 32.1369H90.1643V31.6882H90.4562C90.5297 31.6882 90.6025 31.6882 90.6753 31.763C90.748 31.8378 90.748 31.8378 90.748 31.9125C90.748 31.9874 90.6753 32.0621 90.6753 32.0621Z" fill="#F9FAFB"/>
<path d="M91.77 31.6134C91.6964 31.4638 91.6236 31.2394 91.4781 31.1647C91.3318 31.0151 91.1862 30.9403 91.0399 30.8656C90.6753 30.716 90.2379 30.716 89.8724 30.8656C89.7269 30.9403 89.5078 31.0151 89.435 31.1647C89.2887 31.3143 89.2159 31.4638 89.1431 31.6134C88.9976 31.9873 88.9976 32.4361 89.1431 32.8848C89.2159 33.0344 89.2887 33.2587 89.435 33.3335C89.5805 33.4831 89.7269 33.5578 89.8724 33.6326C90.2379 33.7822 90.6753 33.7822 91.0399 33.6326C91.1862 33.5578 91.4045 33.4831 91.4781 33.3335C91.6236 33.1839 91.6964 33.0344 91.77 32.8848C91.9155 32.4361 91.9155 31.9873 91.77 31.6134ZM91.4781 32.7352C91.4045 32.8848 91.3318 33.0344 91.259 33.1091C91.1862 33.1839 91.0399 33.3335 90.8944 33.3335C90.6025 33.4831 90.2379 33.4831 89.946 33.3335C89.7997 33.2587 89.6541 33.1839 89.5805 33.1091C89.5078 32.9595 89.3623 32.8848 89.3623 32.7352C89.2159 32.4361 89.2159 32.0621 89.3623 31.763C89.435 31.6134 89.5078 31.4638 89.5805 31.389C89.6541 31.3143 89.7997 31.1647 89.946 31.1647C90.2379 31.0151 90.6025 31.0151 90.8944 31.1647C91.0399 31.2394 91.1862 31.3143 91.259 31.389C91.3318 31.5386 91.4781 31.6134 91.4781 31.763C91.6236 32.0621 91.6236 32.4361 91.4781 32.7352Z" fill="#F9FAFB"/>
<path d="M104.728 12.2996L102.685 19.6287L100.496 12.2996H95.6812L94.0755 15.2911L92.3251 12.2996H89.9174L92.7625 17.0112L89.6255 22.2462H91.8869L93.8572 18.8061L95.8995 22.2462H99.5475V15.3659C99.6203 15.665 99.6203 15.8894 99.6939 16.1137C99.7666 16.3381 99.7666 16.4876 99.8394 16.712C99.9121 16.8616 99.9121 17.0859 99.9857 17.2355C100.058 17.3851 100.058 17.5347 100.131 17.759L101.591 22.321H103.487L104.947 17.759C105.019 17.3851 105.165 17.0112 105.239 16.712C105.311 16.3381 105.384 15.9641 105.457 15.5902V22.3958H107.5V12.4492L104.728 12.2996ZM95.1702 17.0112L97.7235 12.6736V21.1992L95.1702 17.0112Z" fill="#F9FAFB"/>
</g>
<defs>
<clipPath id="clip0_225_1824">
<rect width="107" height="48" fill="white" transform="translate(0.5)"/>
</clipPath>
</defs>
</svg>