<svg width="90" height="48" viewBox="0 0 90 48" fill="none" xmlns="http://www.w3.org/2000/svg">
<path d="M12.5727 16.7668L10.4716 21.559C10.2067 21.4322 9.5784 21.289 8.98277 21.289C8.38714 21.289 7.79152 21.4317 7.21294 21.7017C6.07143 22.2572 5.22751 23.368 5.22751 24.9707V33.7459H0V16.6718H5.07872V19.0681H5.17776C6.36902 17.5445 8.1886 16.4182 10.5541 16.4182C11.4141 16.4182 12.2414 16.5768 12.5722 16.7673L12.5727 16.7668Z" fill="white"/>
<path d="M11.5611 25.2566C11.5611 20.3213 15.0846 16.4178 20.3619 16.4178C25.143 16.4178 28.5671 19.7659 28.5671 24.4789C28.5671 25.3039 28.4841 26.0816 28.3026 26.8275H16.3256C16.8715 28.6206 18.4925 30.0169 20.9243 30.0169C22.2644 30.0169 24.1669 29.5565 25.1923 28.7951L26.8138 32.54C25.3084 33.5241 23.0088 34 20.9907 34C15.3495 34 11.5611 30.5087 11.5611 25.2566ZM16.2261 23.6853H23.7532C23.7532 21.4954 22.198 20.3372 20.2955 20.3372C18.1452 20.3372 16.6891 21.6703 16.2261 23.6853Z" fill="white"/>
<path d="M73.4266 9C75.1803 9 76.6194 10.3804 76.6194 12.0626C76.6194 13.7449 75.1803 15.1253 73.4266 15.1253C71.6728 15.1253 70.2338 13.7449 70.2338 12.0626C70.2338 10.3804 71.6728 9 73.4266 9ZM76.0403 33.7464H70.8128V16.6718H76.0403V33.7464Z" fill="white"/>
<path d="M43.0735 9.30887L43.057 18.2904H42.9579C41.5188 16.9732 39.9637 16.4337 37.9289 16.4337C32.9166 16.4337 29.5916 20.3054 29.5916 25.2089C29.5916 30.1124 32.7014 34 37.7636 34C39.8812 34 41.8827 33.3018 43.173 31.7151H43.3218V33.7464H48.3011V9.30887H43.0735ZM43.3223 29.6758H43.1495L41.9832 28.5128C41.224 29.2397 40.1843 29.6758 38.9714 29.6758C36.4106 29.6758 34.6201 27.7333 34.6201 25.2129C34.6201 22.6924 36.4106 20.7499 38.9714 20.7499C41.5322 20.7499 43.3228 22.6924 43.3228 25.2129L43.3223 29.6758Z" fill="white"/>
<path d="M63.0392 9.30843L63.0227 18.29H62.9236C61.4845 16.9728 59.9294 16.4332 57.8947 16.4332C52.8823 16.4332 49.5573 20.3049 49.5573 25.2084C49.5573 30.1119 52.6671 33.9996 57.7293 33.9996C59.8469 33.9996 61.8485 33.3014 63.1387 31.7146H63.2875V33.7459H68.2668V9.30843H63.0392ZM63.2631 29.6754H63.0904L61.924 28.5123C61.1648 29.2392 60.1251 29.6754 58.9122 29.6754C56.3515 29.6754 54.5609 27.7329 54.5609 25.2124C54.5609 22.692 56.3515 20.7495 58.9122 20.7495C61.473 20.7495 63.2636 22.692 63.2636 25.2124L63.2631 29.6754Z" fill="white"/>
<path d="M86.1784 16.6718H90V20.9404H86.1784V33.7464H80.9509V20.9404H77.1459V16.6718H80.9509V12.0304H86.1784V16.6718Z" fill="white"/>
</svg>
