<svg width="97" height="48" viewBox="0 0 97 48" fill="none" xmlns="http://www.w3.org/2000/svg">
<g opacity="0.8">
<path d="M50.0815 15.1148C48.3192 13.9508 45.8455 13.5082 42.6767 13.5082H36.5976V33.9836H42.8545C45.0533 33.9836 46.9934 33.7213 48.594 33.082C50.1785 32.459 51.4234 31.377 52.2964 29.8688C53.1856 28.3443 53.6222 26.377 53.6222 23.8852C53.6222 21.7377 53.3635 19.9508 52.83 18.5246C52.0216 16.9836 51.2294 15.8197 50.0815 15.1148ZM48.4162 27.2787C48.1575 28.2623 47.624 29.0656 46.9126 29.6066C46.1204 30.2295 44.8916 30.5082 43.291 30.5082H41.0922V16.7377H42.9515C44.7138 16.7377 46.1204 17 47.0096 17.7213C47.624 18.2623 48.1575 18.8852 48.4162 19.8688C48.6749 20.8525 48.8527 22.0164 48.8527 23.4426C48.8527 25.0328 48.7557 26.2951 48.4162 27.2787ZM56.3383 33.8852H60.93V25.2131H66.3138V21.8197H60.93V16.8197H69.127V13.4262H56.3383C56.3383 13.4098 56.3383 33.8852 56.3383 33.8852ZM72.1341 33.8852H76.7258V13.4098H72.1341V33.8852ZM97 13.4098H92.3275V25.2131L83.7749 13.4098H80.0725V33.8852H84.7449V21.8197L93.2168 33.8852H97V13.4098ZM19.1366 34.6885C18.7809 34.5082 18.3443 34.2459 17.2773 32.459L15.1593 28.9672L12.6857 24.8525L12.5078 24.4918C12.5887 24.4918 12.7665 24.4098 12.8635 24.4098C15.6928 23.4262 17.3581 20.8361 17.3581 17.082C17.3581 15.1967 16.6467 13.5082 15.2402 12.2459C15.0623 12.0656 14.8036 11.8852 14.6258 11.7049C12.6857 10.459 10.1312 10 6.78446 10H0.349737C-0.00595134 10 -0.0867897 10.2623 0.0910546 10.4426C0.268899 10.623 0.446743 10.8852 0.446743 11.6066V32.1803C0.365905 32.9836 0.188061 33.2459 0.0910546 33.4262C-0.0867897 33.6066 0.0102161 33.8689 0.446743 33.8689H5.1192V25.1967H7.23716L8.74075 27.7869L10.6 31L11.4893 32.6066C12.5402 34.3934 13.5102 35.5574 15.1916 35.8197C15.3695 35.8197 16.2425 36 16.5982 36H16.9539C17.6653 36 18.3605 35.7377 18.8132 35.5574C18.8132 35.5574 18.894 35.4754 18.991 35.4754C19.5731 35.1475 19.3952 34.7869 19.1366 34.6885ZM8.11021 21.8197H5.10303V13.4098H8.09404C9.59764 13.4098 10.7455 13.5902 11.5378 14.3934C11.8934 14.6557 12.0713 15.0164 12.2491 15.459C12.427 16 12.6048 16.6229 12.6048 17.4262C12.6048 18.5082 12.524 21.8197 8.11021 21.8197ZM25.1348 25.2131H30.5186V21.8197H25.1348V16.8197H33.3318V13.4262H20.5431V33.9016H33.3318V30.5082H25.1348V25.2131Z" fill="white"/>
</g>
</svg>
