<svg width="123" height="34" viewBox="0 0 123 34" fill="none" xmlns="http://www.w3.org/2000/svg">
<g clip-path="url(#clip0_15816_5756)">
<path d="M29.8102 13.7617C26.491 13.7571 23.798 16.4478 23.7957 19.7693C23.7933 23.0931 26.484 25.7861 29.8032 25.7884C33.1224 25.7884 35.8131 23.0954 35.8131 19.7739C35.8131 16.4548 33.127 13.7641 29.8102 13.7617ZM29.8102 22.4227C28.3484 22.4134 27.1707 21.2194 27.1777 19.7553C27.1846 18.2936 28.3741 17.1111 29.8358 17.1135C31.2975 17.1181 32.4823 18.3052 32.4823 19.7693C32.4823 20.4745 32.2006 21.1542 31.6979 21.6523C31.1974 22.1504 30.5178 22.4274 29.8102 22.4227Z" fill="#270741"/>
<path d="M43.4687 14.0449H41.8301V10.5H38.2363V14.0449H36.5977V17.3013H38.2363V25.4944H41.8301V17.3013H43.4687V14.0449Z" fill="#270741"/>
<path d="M45.1118 14.0449H48.701V25.4897H45.1118V14.0449Z" fill="#270741"/>
<path d="M46.9087 8.50196C46.0987 8.49963 45.3655 8.9861 45.0536 9.73559C44.7417 10.4828 44.9117 11.3463 45.4842 11.9212C46.0568 12.4961 46.9204 12.6684 47.6675 12.3588C48.417 12.0492 48.9058 11.3184 48.9058 10.506C48.9058 9.40274 48.0144 8.50429 46.9087 8.50196Z" fill="#270741"/>
<path d="M98.3814 17.132C99.5592 17.1367 100.514 18.091 100.516 19.2711V25.5091H104.105V18.8265C104.105 15.789 102.35 13.8105 99.5755 13.8105C98.435 13.8105 97.2339 14.3087 96.2447 15.9124V14.0899H92.6509V25.5091H96.2144V19.2711C96.2144 18.6985 96.4449 18.1515 96.8522 17.7489C97.2595 17.3485 97.8088 17.1251 98.3814 17.132Z" fill="#270741"/>
<path d="M117.184 25.4946L112.778 19.7734L116.874 14.0452H112.68L109.384 18.6817V8.78711H105.797V25.4946H109.384V20.7766L113.001 25.4946H117.184Z" fill="#270741"/>
<path d="M11.4571 22.4108C11.7317 21.7428 11.8644 21.0235 11.8458 20.302C11.8714 19.2406 11.5059 18.2048 10.8193 17.3925C10.0535 16.5499 8.74308 15.8493 6.92755 15.3163C6.57608 15.2255 6.23392 15.1021 5.9034 14.9508C5.61711 14.8112 5.36107 14.6203 5.1446 14.3875C4.91883 14.1315 4.80012 13.7987 4.81641 13.4565C4.8234 12.9584 5.10271 12.5022 5.54495 12.2717C6.45039 11.8737 7.48152 11.8737 8.38463 12.2717C8.7873 12.4184 9.17369 12.5999 9.54378 12.8141L11.0684 9.77656C10.3864 9.35526 9.65317 9.03172 8.88274 8.8106C8.08902 8.60577 7.27436 8.50103 6.45505 8.50103C5.6753 8.48707 4.90021 8.61508 4.16701 8.8781C3.51528 9.13181 2.92174 9.52052 2.42596 10.014C1.92786 10.5121 1.53216 11.1056 1.26682 11.7573C1.0038 12.4277 0.873452 13.1446 0.878108 13.8638C0.920004 15.0137 1.40647 16.1007 2.23045 16.9013C3.01718 17.5903 3.93891 18.107 4.93745 18.4143C5.41228 18.5958 5.93832 18.7588 6.27349 18.8868C6.61798 19.0171 6.9485 19.1824 7.25574 19.3849C7.47686 19.5432 7.65609 19.7503 7.77945 19.9924C7.88652 20.2228 7.92609 20.4765 7.8935 20.7279C7.85859 21.1097 7.67471 21.4634 7.38376 21.7125C6.9066 22.0593 6.32004 22.2199 5.73349 22.1664C5.03986 22.1478 4.35787 21.9848 3.72942 21.6869C3.18011 21.4239 2.64709 21.1283 2.13269 20.8001L0.3125 23.9284C1.74863 25.1085 3.54321 25.7625 5.39831 25.7812C6.31772 25.7812 7.23247 25.6368 8.10532 25.3505C8.85713 25.0992 9.55309 24.7105 10.1583 24.203C10.7122 23.7026 11.1545 23.0928 11.4571 22.4108Z" fill="#270741"/>
<path d="M119.716 21.4942C118.904 21.4895 118.171 21.9737 117.857 22.7208C117.542 23.468 117.71 24.3315 118.28 24.9088C118.85 25.486 119.712 25.6606 120.463 25.3533C121.213 25.0438 121.704 24.3152 121.706 23.5029C121.709 22.3996 120.82 21.5012 119.716 21.4942ZM119.716 25.095C119.067 25.0973 118.48 24.7086 118.231 24.1104C117.98 23.5099 118.117 22.8209 118.573 22.36C119.032 21.8992 119.721 21.7618 120.321 22.0109C120.92 22.2576 121.311 22.8419 121.311 23.4913C121.313 23.9172 121.145 24.3245 120.845 24.6248C120.547 24.9251 120.14 25.095 119.716 25.095Z" fill="#270741"/>
<path d="M119.709 23.8253H119.388V24.5841H118.999V22.3984H119.83C120.233 22.3984 120.559 22.7243 120.559 23.127C120.552 23.4016 120.389 23.6484 120.14 23.7647L120.601 24.5841H120.128L119.709 23.8253ZM119.388 23.4598H119.849C120.033 23.4598 120.182 23.3109 120.182 23.127C120.182 22.9408 120.033 22.7918 119.849 22.7918H119.388V23.4598Z" fill="#270741"/>
<path d="M21.2843 21.4336C20.3696 22.5741 18.7054 22.758 17.5648 21.8456C16.4243 20.9309 16.2381 19.2643 17.1505 18.1238C18.0653 16.9809 19.7295 16.797 20.87 17.7095C21.0213 17.8305 21.161 17.9678 21.2843 18.1168L23.6562 15.7356C22.5226 14.4834 20.9096 13.7712 19.2198 13.7735C15.9122 13.7618 13.0586 16.1244 13.0586 19.7694C13.0586 23.4121 15.9425 25.7816 19.25 25.7816C20.9422 25.7816 22.5552 25.067 23.6934 23.8148L21.2843 21.4336Z" fill="#270741"/>
<path d="M62.7388 25.5092V14.0457H59.2428V15.2607L58.9146 14.9768C58.0999 14.1947 57.0106 13.7571 55.8817 13.7618C52.7906 13.7618 50.1814 16.513 50.1814 19.7693C50.1814 23.0233 52.7976 25.7815 55.8817 25.7815C57.0106 25.7838 58.0999 25.3486 58.9146 24.5665L59.2428 24.2802V25.4952L62.7388 25.5092ZM56.4636 22.4716C54.9693 22.4623 53.7659 21.2427 53.7752 19.7483C53.7822 18.254 54.9972 17.0483 56.4915 17.053C57.9858 17.06 59.1915 18.275 59.1892 19.7693C59.1869 20.4885 58.8983 21.1798 58.3862 21.6872C57.8765 22.1947 57.1828 22.4763 56.4636 22.4716Z" fill="#270741"/>
<path d="M90.9329 25.5091V14.0457H87.4368V15.2607L87.1087 14.9767C86.2917 14.1947 85.2047 13.7594 84.0735 13.7617C80.9847 13.7617 78.3755 16.513 78.3755 19.7693C78.3755 23.0233 80.9917 25.7815 84.0735 25.7815C85.2047 25.7838 86.2917 25.3485 87.1087 24.5665L87.4368 24.2802V25.4952L90.9329 25.5091ZM84.681 22.4716C83.1843 22.4739 81.9693 21.2636 81.967 19.7669C81.9647 18.2703 83.1773 17.0553 84.674 17.053C86.1683 17.053 87.381 18.2656 87.381 19.7623C87.381 21.2566 86.173 22.467 84.681 22.4716Z" fill="#270741"/>
<path d="M68.0992 25.5086V24.2936L68.4204 24.5776C69.2374 25.3596 70.3244 25.7949 71.4556 25.7926C74.5444 25.7926 77.1536 23.0413 77.1536 19.7804C77.1536 16.5194 74.5444 13.7728 71.4556 13.7728C70.3244 13.7705 69.2374 14.2058 68.4204 14.9878L68.0992 15.2741V8.78711H64.5962V25.5086H68.0992ZM68.1714 19.7804C68.1644 18.6817 68.8185 17.6902 69.831 17.2642C70.8412 16.8383 72.0073 17.0664 72.787 17.8392C73.5645 18.6119 73.7995 19.7804 73.3806 20.7952C72.9639 21.8077 71.9747 22.4711 70.8784 22.4711C69.3864 22.4711 68.176 21.2607 68.1714 19.7687V19.7804Z" fill="#270741"/>
</g>
<defs>
<clipPath id="clip0_15816_5756">
<rect width="121.833" height="34" fill="white" transform="translate(0.3125)"/>
</clipPath>
</defs>
</svg>
