<svg width="96" height="34" viewBox="0 0 96 34" fill="none" xmlns="http://www.w3.org/2000/svg">
<g clip-path="url(#clip0_15816_5732)">
<path d="M15.6881 13.0307H20.1816V24.4585H15.6881V13.0307ZM15.6881 9.91602H20.1816V12.0996H15.6881V9.91602ZM30.5126 9.91602H35.0061V12.0996H30.5126V9.91602ZM30.5126 13.0307H35.0061V24.4585H30.5126V13.0307ZM43.9217 13.0307H48.4152V24.4585H44.2454V22.7792C43.1262 24.3476 42.0234 24.7854 40.1634 24.7854C37.7 24.7854 36.1034 23.2613 36.1034 19.986V13.0307H40.5968V19.2046C40.5968 20.7729 41.14 21.2773 42.2154 21.2773C43.5102 21.2773 43.9217 20.2964 43.9217 18.5284V13.0307ZM60.6555 20.7952C60.6555 23.1727 58.7134 24.7854 54.5655 24.7854C51.9759 24.7854 49.1229 23.9818 48.887 20.9004H53.161C53.161 21.3604 53.3311 21.7096 53.6383 21.9479C53.9181 22.164 54.3077 22.2971 54.7411 22.2971C55.4324 22.2971 56.1676 22.0809 56.1676 21.2717C56.1676 19.4373 49.2327 20.9004 49.2327 16.4723C49.2327 13.5516 52.2338 12.6981 54.5875 12.6981C57.0509 12.6981 59.9423 13.2634 60.2002 16.2949H56.1182C56.0743 15.9236 55.9262 15.6631 55.6848 15.4636C55.4489 15.2697 55.1252 15.181 54.7795 15.181C54.0004 15.181 53.5066 15.4193 53.5066 15.9902C53.5121 17.5918 60.6555 16.5222 60.6555 20.7952ZM14.3714 17.9188C14.7115 18.4453 14.9145 19.0882 14.9145 19.8807C14.8926 22.8069 12.4949 24.791 7.33761 24.791C4.11156 24.791 0.567268 23.799 0.270996 20.0137V19.8253H5.10461L4.03474 23.012L7.56255 20.5347L11.0904 23.012L10.1742 20.2742C10.0315 19.9915 9.66391 19.8364 9.66391 19.8364C7.73815 18.7556 0.709917 19.3431 0.709917 14.5658C0.709917 10.969 4.44623 9.92156 7.376 9.92156C10.443 9.92156 14.0422 10.6199 14.3658 14.3497V14.4938H8.92321L7.57358 10.4813L6.22386 14.4938H1.86209L4.29809 16.1897C5.01134 15.9015 5.77397 15.774 6.53659 15.6908C7.35408 15.6022 8.17707 15.5856 9.00005 15.641C9.69134 15.6853 10.3772 15.7851 11.052 15.9458C11.661 16.0899 12.281 16.2506 12.8351 16.5554C13.4551 16.899 13.9983 17.3368 14.3714 17.9188ZM28.9709 12.7037C29.2507 12.7037 29.5525 12.7702 29.5525 12.7702V17.3091C29.5525 17.3091 29.3166 17.1762 28.6253 17.1762C26.7873 17.1762 25.8601 18.0463 25.8601 20.5125V24.464H21.3666V13.0307H25.4486V15.3417H25.4925C26.1234 13.5572 27.2153 12.7037 28.9709 12.7037ZM87.6216 10.243H95.1877V24.4585H90.4035V20.4238C90.4035 18.4674 90.4418 16.6552 90.513 14.9926C90.3707 15.6743 90.2115 16.3172 90.0357 16.9268L88.0773 24.4529H84.0775L82.0752 16.9323L81.8665 16.1342C81.8002 15.8793 81.7458 15.6576 81.7018 15.4526C81.6579 15.253 81.6306 15.1422 81.6139 15.1145C81.6851 16.7383 81.7235 18.5118 81.7235 20.4238V24.4585H76.9448V10.243H84.511L85.7288 15.6354L86.0966 17.3313C86.2557 16.4778 86.3709 15.9126 86.4421 15.6354L87.6216 10.243ZM70.9427 16.8769L76.4898 24.464H70.7285L69.8784 23.1671L68.2214 20.5901C67.7716 21.2717 67.1681 22.1253 66.4164 23.1671L65.4837 24.464H60.0246L65.7196 17.1762L60.6336 10.2485H66.3286L67.179 11.4844L68.419 13.3189C68.4464 13.2634 68.644 12.9752 69.006 12.4377L69.6589 11.4789L70.5093 10.243H75.8149L70.9427 16.8769Z" fill="#270741"/>
</g>
<defs>
<clipPath id="clip0_15816_5732">
<rect width="94.9167" height="34" fill="white" transform="translate(0.270996)"/>
</clipPath>
</defs>
</svg>
