<svg xmlns="http://www.w3.org/2000/svg" width="96" height="34" viewBox="0 0 96 34" fill="none">
  <g clip-path="url(#clip0_8732_35063)">
    <path d="M16.2687 13.0316H20.7622V24.4594H16.2687V13.0316ZM16.2687 9.91699H20.7622V12.1006H16.2687V9.91699ZM31.0932 9.91699H35.5867V12.1006H31.0932V9.91699ZM31.0932 13.0316H35.5867V24.4594H31.0932V13.0316ZM44.5023 13.0316H48.9957V24.4594H44.826V22.7802C43.7067 24.3486 42.6039 24.7864 40.744 24.7864C38.2806 24.7864 36.684 23.2623 36.684 19.9869V13.0316H41.1774V19.2055C41.1774 20.7739 41.7206 21.2783 42.7959 21.2783C44.0908 21.2783 44.5023 20.2974 44.5023 18.5294V13.0316ZM61.2361 20.7961C61.2361 23.1737 59.2939 24.7864 55.1461 24.7864C52.5564 24.7864 49.7035 23.9828 49.4675 20.9014H53.7416C53.7416 21.3614 53.9117 21.7106 54.2189 21.9489C54.4987 22.165 54.8883 22.298 55.3217 22.298C56.013 22.298 56.7481 22.0819 56.7481 21.2727C56.7481 19.4383 49.8132 20.9014 49.8132 16.4733C49.8132 13.5526 52.8143 12.6991 55.1681 12.6991C57.6315 12.6991 60.5229 13.2644 60.7808 16.2959H56.6988C56.6549 15.9246 56.5067 15.6641 56.2653 15.4646C56.0294 15.2707 55.7057 15.182 55.3601 15.182C54.581 15.182 54.0872 15.4203 54.0872 15.9912C54.0927 17.5928 61.2361 16.5231 61.2361 20.7961ZM14.9519 17.9198C15.2921 18.4463 15.495 19.0891 15.495 19.8817C15.4731 22.8079 13.0755 24.792 7.91818 24.792C4.69212 24.792 1.14783 23.7999 0.851562 20.0147V19.8263H5.68518L4.61531 23.013L8.14312 20.5356L11.6709 23.013L10.7547 20.2751C10.6121 19.9925 10.2445 19.8373 10.2445 19.8373C8.31871 18.7566 1.29048 19.3441 1.29048 14.5668C1.29048 10.97 5.0268 9.92253 7.95656 9.92253C11.0236 9.92253 14.6227 10.6208 14.9464 14.3507V14.4948H9.50378L8.15415 10.4823L6.80443 14.4948H2.44265L4.87866 16.1907C5.59191 15.9025 6.35454 15.775 7.11716 15.6918C7.93465 15.6032 8.75763 15.5866 9.58062 15.642C10.2719 15.6863 10.9577 15.7861 11.6326 15.9468C12.2416 16.0909 12.8615 16.2516 13.4157 16.5564C14.0356 16.9 14.5788 17.3378 14.9519 17.9198ZM29.5515 12.7047C29.8313 12.7047 30.1331 12.7712 30.1331 12.7712V17.3101C30.1331 17.3101 29.8972 17.1772 29.2058 17.1772C27.3679 17.1772 26.4407 18.0472 26.4407 20.5135V24.4649H21.9472V13.0316H26.0292V15.3427H26.0731C26.704 13.5581 27.7958 12.7047 29.5515 12.7047ZM88.2021 10.244H95.7682V24.4594H90.984V20.4248C90.984 18.4684 91.0224 16.6562 91.0936 14.9935C90.9512 15.6752 90.7921 16.3181 90.6162 16.9277L88.6579 24.4539H84.6581L82.6558 16.9333L82.4471 16.1352C82.3808 15.8803 82.3264 15.6586 82.2824 15.4535C82.2384 15.254 82.2112 15.1432 82.1945 15.1155C82.2657 16.7393 82.304 18.5127 82.304 20.4248V24.4594H77.5254V10.244H85.0915L86.3094 15.6364L86.6772 17.3323C86.8363 16.4788 86.9515 15.9135 87.0227 15.6364L88.2021 10.244ZM71.5233 16.8779L77.0704 24.4649H71.3091L70.4589 23.1681L68.802 20.591C68.3521 21.2727 67.7486 22.1262 66.997 23.1681L66.0643 24.4649H60.6052L66.3002 17.1772L61.2142 10.2495H66.9092L67.7596 11.4854L68.9996 13.3198C69.027 13.2644 69.2245 12.9762 69.5866 12.4386L70.2395 11.4799L71.0899 10.244H76.3955L71.5233 16.8779Z" fill="white"/>
  </g>
  <defs>
    <clipPath id="clip0_8732_35063">
      <rect width="94.9167" height="34" fill="white" transform="translate(0.851562)"/>
    </clipPath>
  </defs>
</svg>