<svg width="85" height="48" viewBox="0 0 85 48" fill="none" xmlns="http://www.w3.org/2000/svg">
<path d="M24.7116 18.3407C20.2186 18.3407 16.5425 21.985 16.5425 26.4392C16.5425 30.8934 20.2186 34.5378 24.7116 34.5378C29.2046 34.5378 32.8807 30.8934 32.8807 26.4392C32.8807 21.985 29.2046 18.3407 24.7116 18.3407V18.3407ZM28.694 26.338C28.694 28.5651 26.9581 30.3873 24.8137 30.3873C22.6693 30.3873 20.9334 28.5651 20.9334 26.338C20.9334 24.1109 22.6693 22.2887 24.8137 22.2887C26.9581 22.2887 28.694 24.1109 28.694 26.338ZM53.3035 18.6444C53.2014 18.5431 53.0993 18.5431 52.9972 18.5431H49.7295C49.5253 18.5431 49.3211 18.7456 49.3211 18.9481V33.6267C49.3211 33.7279 49.3211 33.8291 49.4232 33.9304C49.5253 34.0316 49.6274 34.0316 49.7295 34.0316H52.9972C53.2014 34.0316 53.4056 33.8291 53.4056 33.6267V18.9481C53.4056 18.8468 53.4056 18.7456 53.3035 18.6444V18.6444ZM51.3633 16.6197C52.5887 16.6197 53.6099 15.6074 53.6099 14.3926C53.712 13.1778 52.5887 12.1655 51.3633 12.1655C50.138 12.1655 49.1168 13.1778 49.1168 14.3926C49.1168 15.7086 50.138 16.6197 51.3633 16.6197V16.6197ZM46.9724 12.4692H35.0251C34.8209 12.4692 34.6167 12.6717 34.6167 12.8742V33.6267C34.6167 33.7279 34.6166 33.8291 34.7188 33.9304C34.8209 34.0316 34.923 34.0316 35.0251 34.0316H38.2928C38.497 34.0316 38.7012 33.8291 38.7012 33.6267V25.2244H46.0534C46.1555 25.2244 46.2576 25.2244 46.3598 25.1232C46.4619 25.022 46.4619 24.9207 46.4619 24.8195V21.7826C46.4619 21.5801 46.2576 21.3776 46.0534 21.3776H38.7012V16.316H46.9724C47.0746 16.316 47.1767 16.316 47.2788 16.2148C47.3809 16.1136 47.3809 16.0123 47.3809 15.9111V12.8742C47.3809 12.6717 47.1767 12.4692 46.9724 12.4692ZM8.88392 21.4789C5.61627 20.0616 4.59513 19.4542 4.59513 18.2394C4.59513 16.6197 6.12684 16.1136 7.55644 16.1136C9.08815 16.1136 10.722 16.9234 10.722 19.1505C10.722 19.353 10.8241 19.4542 11.0283 19.4542H14.6023C14.7044 19.353 14.8065 19.2518 14.8065 19.1505C14.8065 15.1013 11.8452 12.1655 7.55644 12.1655C3.26765 12.1655 0.51057 14.5951 0.51057 18.2394C0.51057 22.5924 3.77822 23.9084 6.94375 25.1232L7.14798 25.2244C10.1093 26.338 11.1304 26.8441 11.1304 28.2614C11.1304 30.1848 9.08815 30.4885 7.96489 30.4885C5.8205 30.4885 4.18667 28.97 4.18667 26.9454V26.7429C4.18667 26.5404 4.08456 26.4392 3.88033 26.4392H0.306342C0.204228 26.4392 0 26.5404 0 26.7429V27.0466C0 31.5008 3.26765 34.5378 7.86278 34.5378C12.2537 34.5378 15.215 32.007 15.215 28.3626C15.3171 24.617 13.3769 23.301 8.88392 21.4789ZM84.7546 33.4242C84.7546 34.0316 84.3462 34.4365 83.7335 34.4365C83.1208 34.4365 82.7123 34.0316 82.7123 33.4242C82.7123 32.8168 83.1208 32.4119 83.7335 32.4119C84.3462 32.4119 84.7546 32.8168 84.7546 33.4242ZM82.9166 33.4242C82.9166 33.9304 83.2229 34.2341 83.7335 34.2341C84.2441 34.2341 84.5504 33.9304 84.5504 33.4242C84.5504 32.9181 84.2441 32.6144 83.7335 32.6144C83.2229 32.6144 82.9166 32.9181 82.9166 33.4242ZM84.1419 33.2217C84.1419 33.323 84.0398 33.4242 83.9377 33.5254L84.1419 33.9304H83.8356L83.6314 33.5254H83.5293V33.9304H83.325V32.9181H83.7335C83.9377 32.9181 84.1419 33.0193 84.1419 33.2217V33.2217ZM83.6314 33.1205V33.4242H83.7335C83.8356 33.4242 83.9377 33.323 83.9377 33.323C83.9377 33.2217 83.8356 33.2217 83.7335 33.2217H83.6314V33.1205ZM79.4447 13.0766C80.8743 13.0766 81.9976 14.1902 81.9976 15.6074C81.9976 17.0247 80.8743 18.1382 79.4447 18.1382C78.0151 18.1382 76.8919 17.0247 76.8919 15.6074C76.8919 14.1902 78.0151 13.0766 79.4447 13.0766M79.4447 12.1655C77.5045 12.1655 75.8707 13.7852 75.8707 15.7086C75.8707 17.632 77.5045 19.2518 79.4447 19.2518C81.3849 19.2518 83.0187 17.632 83.0187 15.7086C83.0187 13.7852 81.3849 12.1655 79.4447 12.1655Z" fill="#270741"/>
<path d="M81.1464 26.4046C82.8805 25.4698 83.5217 23.3184 82.5787 21.5993C81.6358 19.8803 79.4656 19.2445 77.7315 20.1794C75.9975 21.1142 75.3562 23.2656 76.2992 24.9847C77.2422 26.7038 79.4124 27.3395 81.1464 26.4046Z" fill="#270741"/>
<path d="M81.1406 33.9974C82.8746 33.0626 83.5159 30.9111 82.5729 29.1921C81.6299 27.473 79.4597 26.8373 77.7257 27.7722C75.9917 28.707 75.3504 30.8584 76.2934 32.5775C77.2364 34.2965 79.4065 34.9323 81.1406 33.9974Z" fill="#270741"/>
<path d="M71.7849 20.7701C72.4997 20.7701 73.1124 21.0738 73.623 21.4788C74.1335 21.9849 74.3378 22.5923 74.3378 23.3009C74.3378 24.7182 73.2145 25.8317 71.7849 25.8317C71.0701 25.8317 70.4574 25.528 69.9469 25.1231C69.4363 24.6169 69.2321 24.0095 69.2321 23.3009C69.13 21.8837 70.3553 20.7701 71.7849 20.7701ZM71.7849 19.7578C69.8448 19.7578 68.2109 21.3775 68.2109 23.3009C68.2109 25.2243 69.8448 26.844 71.7849 26.844C73.7251 26.844 75.3589 25.2243 75.3589 23.3009C75.3589 21.3775 73.7251 19.7578 71.7849 19.7578Z" fill="#270741"/>
<path d="M67.3716 24.7079C68.171 22.9187 67.356 20.8259 65.5513 20.0334C63.7465 19.241 61.6355 20.0489 60.8361 21.8381C60.0367 23.6272 60.8517 25.7201 62.6565 26.5125C64.4612 27.305 66.5723 26.497 67.3716 24.7079Z" fill="#270741"/>
<path d="M75.0435 17.1185C75.8429 15.3294 75.0279 13.2365 73.2231 12.4441C71.4184 11.6516 69.3073 12.4596 68.5079 14.2487C67.7086 16.0379 68.5236 18.1307 70.3283 18.9232C72.1331 19.7157 74.2441 18.9077 75.0435 17.1185Z" fill="#270741"/>
<path d="M67.3795 17.1092C68.1788 15.3201 67.3638 13.2273 65.5591 12.4348C63.7543 11.6423 61.6433 12.4503 60.8439 14.2394C60.0445 16.0286 60.8595 18.1214 62.6643 18.9139C64.469 19.7064 66.5801 18.8984 67.3795 17.1092Z" fill="#270741"/>
<path d="M75.0279 32.3153C75.8273 30.5261 75.0123 28.4333 73.2075 27.6408C71.4028 26.8484 69.2917 27.6563 68.4923 29.4455C67.6929 31.2347 68.508 33.3275 70.3127 34.12C72.1175 34.9124 74.2285 34.1045 75.0279 32.3153Z" fill="#270741"/>
<path d="M64.1267 28.3624C64.8415 28.3624 65.4542 28.6661 65.9648 29.071C66.4753 29.5772 66.6796 30.1846 66.6796 30.8932C66.6796 32.3105 65.5563 33.424 64.1267 33.424C62.6971 33.424 61.5739 32.3105 61.5739 30.8932C61.4718 29.476 62.6971 28.3624 64.1267 28.3624ZM64.1267 27.3501C62.1866 27.3501 60.5527 28.9698 60.5527 30.8932C60.5527 32.8166 62.1866 34.4363 64.1267 34.4363C66.0669 34.4363 67.7007 32.8166 67.7007 30.8932C67.7007 28.9698 66.0669 27.3501 64.1267 27.3501Z" fill="#270741"/>
</svg>
