<svg width="85" height="48" viewBox="0 0 85 48" fill="none" xmlns="http://www.w3.org/2000/svg">
<g opacity="0.8">
<path d="M24.7116 18.3412C20.2186 18.3412 16.5425 21.9855 16.5425 26.4397C16.5425 30.8939 20.2186 34.5382 24.7116 34.5382C29.2046 34.5382 32.8807 30.8939 32.8807 26.4397C32.8807 21.9855 29.2046 18.3412 24.7116 18.3412ZM28.694 26.3385C28.694 28.5656 26.9581 30.3877 24.8137 30.3877C22.6693 30.3877 20.9334 28.5656 20.9334 26.3385C20.9334 24.1114 22.6693 22.2892 24.8137 22.2892C26.9581 22.2892 28.694 24.1114 28.694 26.3385ZM53.3035 18.6449C53.2014 18.5436 53.0993 18.5436 52.9972 18.5436H49.7295C49.5253 18.5436 49.3211 18.7461 49.3211 18.9485V33.6272C49.3211 33.7284 49.3211 33.8296 49.4232 33.9309C49.5253 34.0321 49.6274 34.0321 49.7295 34.0321H52.9972C53.2014 34.0321 53.4056 33.8296 53.4056 33.6272V18.9485C53.4056 18.8473 53.4056 18.7461 53.3035 18.6449ZM51.3633 16.6202C52.5887 16.6202 53.6099 15.6079 53.6099 14.3931C53.712 13.1783 52.5887 12.166 51.3633 12.166C50.138 12.166 49.1168 13.1783 49.1168 14.3931C49.1168 15.7091 50.138 16.6202 51.3633 16.6202ZM46.9724 12.4697H35.0251C34.8209 12.4697 34.6166 12.6722 34.6166 12.8746V33.6272C34.6166 33.7284 34.6166 33.8296 34.7188 33.9309C34.8209 34.0321 34.923 34.0321 35.0251 34.0321H38.2928C38.497 34.0321 38.7012 33.8296 38.7012 33.6272V25.2249H46.0534C46.1555 25.2249 46.2576 25.2249 46.3598 25.1237C46.4619 25.0225 46.4619 24.9212 46.4619 24.82V21.783C46.4619 21.5806 46.2576 21.3781 46.0534 21.3781H38.7012V16.3165H46.9724C47.0746 16.3165 47.1767 16.3165 47.2788 16.2153C47.3809 16.1141 47.3809 16.0128 47.3809 15.9116V12.8746C47.3809 12.6722 47.1767 12.4697 46.9724 12.4697ZM8.88392 21.4793C5.61627 20.0621 4.59513 19.4547 4.59513 18.2399C4.59513 16.6202 6.12684 16.1141 7.55644 16.1141C9.08815 16.1141 10.722 16.9239 10.722 19.151C10.722 19.3535 10.8241 19.4547 11.0283 19.4547H14.6023C14.7044 19.3535 14.8065 19.2522 14.8065 19.151C14.8065 15.1017 11.8452 12.166 7.55644 12.166C3.26765 12.166 0.51057 14.5956 0.51057 18.2399C0.51057 22.5929 3.77822 23.9089 6.94375 25.1237L7.14798 25.2249C10.1093 26.3385 11.1304 26.8446 11.1304 28.2619C11.1304 30.1853 9.08815 30.489 7.96489 30.489C5.8205 30.489 4.18667 28.9705 4.18667 26.9459V26.7434C4.18667 26.5409 4.08456 26.4397 3.88033 26.4397H0.306342C0.204228 26.4397 0 26.5409 0 26.7434V27.0471C0 31.5013 3.26765 34.5382 7.86278 34.5382C12.2537 34.5382 15.215 32.0075 15.215 28.3631C15.3171 24.6175 13.3769 23.3015 8.88392 21.4793ZM84.7546 33.4247C84.7546 34.0321 84.3462 34.437 83.7335 34.437C83.1208 34.437 82.7123 34.0321 82.7123 33.4247C82.7123 32.8173 83.1208 32.4124 83.7335 32.4124C84.3462 32.4124 84.7546 32.8173 84.7546 33.4247ZM82.9166 33.4247C82.9166 33.9309 83.2229 34.2346 83.7335 34.2346C84.2441 34.2346 84.5504 33.9309 84.5504 33.4247C84.5504 32.9185 84.2441 32.6148 83.7335 32.6148C83.2229 32.6148 82.9166 32.9185 82.9166 33.4247ZM84.1419 33.2222C84.1419 33.3235 84.0398 33.4247 83.9377 33.5259L84.1419 33.9309H83.8356L83.6314 33.5259H83.5293V33.9309H83.325V32.9185H83.7335C83.9377 32.9185 84.1419 33.0198 84.1419 33.2222ZM83.6314 33.121V33.4247H83.7335C83.8356 33.4247 83.9377 33.3235 83.9377 33.3235C83.9377 33.2222 83.8356 33.2222 83.7335 33.2222H83.6314V33.121ZM79.4447 13.0771C80.8743 13.0771 81.9976 14.1907 81.9976 15.6079C81.9976 17.0251 80.8743 18.1387 79.4447 18.1387C78.0151 18.1387 76.8919 17.0251 76.8919 15.6079C76.8919 14.1907 78.0151 13.0771 79.4447 13.0771ZM79.4447 12.166C77.5045 12.166 75.8707 13.7857 75.8707 15.7091C75.8707 17.6325 77.5045 19.2522 79.4447 19.2522C81.3849 19.2522 83.0187 17.6325 83.0187 15.7091C83.0187 13.7857 81.3849 12.166 79.4447 12.166Z" fill="white"/>
<path d="M81.1464 26.4037C82.8805 25.4688 83.5217 23.3174 82.5787 21.5983C81.6358 19.8793 79.4656 19.2436 77.7315 20.1784C75.9975 21.1132 75.3562 23.2647 76.2992 24.9837C77.2422 26.7028 79.4124 27.3385 81.1464 26.4037Z" fill="white"/>
<path d="M81.1406 33.9974C82.8746 33.0626 83.5159 30.9111 82.5729 29.1921C81.6299 27.473 79.4597 26.8373 77.7257 27.7722C75.9917 28.707 75.3504 30.8584 76.2934 32.5775C77.2364 34.2965 79.4065 34.9323 81.1406 33.9974Z" fill="white"/>
<path d="M71.7849 20.7701C72.4997 20.7701 73.1124 21.0738 73.623 21.4788C74.1335 21.9849 74.3378 22.5923 74.3378 23.3009C74.3378 24.7182 73.2145 25.8317 71.7849 25.8317C71.0701 25.8317 70.4574 25.528 69.9469 25.1231C69.4363 24.6169 69.2321 24.0095 69.2321 23.3009C69.13 21.8837 70.3553 20.7701 71.7849 20.7701ZM71.7849 19.7578C69.8448 19.7578 68.2109 21.3775 68.2109 23.3009C68.2109 25.2243 69.8448 26.844 71.7849 26.844C73.7251 26.844 75.3589 25.2243 75.3589 23.3009C75.3589 21.3775 73.7251 19.7578 71.7849 19.7578Z" fill="white"/>
<path d="M67.3719 24.7084C68.1713 22.9192 67.3563 20.8264 65.5515 20.0339C63.7468 19.2414 61.6357 20.0494 60.8363 21.8386C60.0369 23.6277 60.852 25.7206 62.6567 26.513C64.4615 27.3055 66.5725 26.4975 67.3719 24.7084Z" fill="white"/>
<path d="M75.0435 17.1185C75.8429 15.3294 75.0279 13.2365 73.2231 12.4441C71.4184 11.6516 69.3073 12.4596 68.5079 14.2487C67.7086 16.0379 68.5236 18.1307 70.3283 18.9232C72.1331 19.7157 74.2441 18.9077 75.0435 17.1185Z" fill="white"/>
<path d="M67.3795 17.1088C68.1788 15.3196 67.3638 13.2268 65.5591 12.4343C63.7543 11.6418 61.6433 12.4498 60.8439 14.239C60.0445 16.0281 60.8595 18.1209 62.6643 18.9134C64.469 19.7059 66.5801 18.8979 67.3795 17.1088Z" fill="white"/>
<path d="M75.0279 32.3158C75.8273 30.5266 75.0123 28.4338 73.2075 27.6413C71.4028 26.8489 69.2917 27.6568 68.4923 29.446C67.6929 31.2351 68.508 33.328 70.3127 34.1204C72.1175 34.9129 74.2285 34.1049 75.0279 32.3158Z" fill="white"/>
<path d="M64.1267 28.3619C64.8415 28.3619 65.4542 28.6656 65.9648 29.0706C66.4753 29.5767 66.6796 30.1841 66.6796 30.8927C66.6796 32.31 65.5563 33.4235 64.1267 33.4235C62.6971 33.4235 61.5739 32.31 61.5739 30.8927C61.4718 29.4755 62.6971 28.3619 64.1267 28.3619ZM64.1267 27.3496C62.1866 27.3496 60.5527 28.9693 60.5527 30.8927C60.5527 32.8161 62.1866 34.4358 64.1267 34.4358C66.0669 34.4358 67.7007 32.8161 67.7007 30.8927C67.7007 28.9693 66.0669 27.3496 64.1267 27.3496Z" fill="white"/>
</g>
</svg>
