<svg width="78" height="48" viewBox="0 0 78 48" fill="none" xmlns="http://www.w3.org/2000/svg">
<g clip-path="url(#clip0_15738_6813)">
<path fill-rule="evenodd" clip-rule="evenodd" d="M78.4615 24.4641C78.4615 18.9414 75.759 14.5837 70.5936 14.5837C65.4064 14.5837 62.268 18.9414 62.268 24.421C62.268 30.9145 65.9731 34.1936 71.291 34.1936C73.8846 34.1936 75.8462 33.6111 77.3282 32.7913V28.4767C75.8462 29.2102 74.1462 29.6632 71.9885 29.6632C69.8744 29.6632 68 28.9297 67.7603 26.3841H78.4179C78.4179 26.1037 78.4615 24.9819 78.4615 24.4641ZM67.6949 22.4147C67.6949 19.9769 69.1987 18.963 70.5718 18.963C71.9013 18.963 73.3179 19.9769 73.3179 22.4147H67.6949ZM53.8551 14.5837C51.7192 14.5837 50.3462 15.576 49.5833 16.2664L49.3 14.9288H44.5051V40.083L49.9538 38.9396L49.9756 32.8345C50.7603 33.3954 51.9154 34.1936 53.8333 34.1936C57.7346 34.1936 61.2872 31.0871 61.2872 24.2484C61.2654 17.9922 57.6692 14.5837 53.8551 14.5837ZM52.5474 29.4475C51.2615 29.4475 50.4987 28.9945 49.9756 28.4336L49.9538 20.43C50.5205 19.8044 51.3051 19.3729 52.5474 19.3729C54.5308 19.3729 55.9038 21.5733 55.9038 24.3994C55.9038 27.2902 54.5526 29.4475 52.5474 29.4475ZM37.0077 13.3109L42.4782 12.1459V7.7666L37.0077 8.90997V13.3109ZM37.0077 14.9504H42.4782V33.8268H37.0077V14.9504ZM31.1449 16.5468L30.7962 14.9504H26.0885V33.8268H31.5372V21.034C32.8231 19.3729 35.0026 19.6749 35.6782 19.9122V14.9504C34.9808 14.6915 32.4308 14.2169 31.1449 16.5468ZM20.2474 10.2691L14.9295 11.3909L14.9077 28.6709C14.9077 31.8637 17.3269 34.2151 20.5526 34.2151C22.3397 34.2151 23.6474 33.8915 24.3667 33.5032V29.1239C23.6692 29.4044 20.2256 30.3967 20.2256 27.2039V19.5455H24.3667V14.9504H20.2256L20.2474 10.2691ZM5.5141 20.43C5.5141 19.5886 6.21154 19.265 7.36667 19.265C9.02308 19.265 11.1154 19.7612 12.7718 20.6457V15.576C10.9628 14.8641 9.17564 14.5837 7.36667 14.5837C2.94231 14.5837 0 16.8704 0 20.6888C0 26.643 8.28205 25.6938 8.28205 28.261C8.28205 29.2533 7.41026 29.5769 6.18974 29.5769C4.38077 29.5769 2.07051 28.8435 0.239743 27.8511V32.9855C2.26667 33.8484 4.31538 34.2151 6.18974 34.2151C10.7231 34.2151 13.8397 31.9931 13.8397 28.1315C13.8179 21.7028 5.5141 22.8462 5.5141 20.43Z" fill="#270741"/>
</g>
<defs>
<clipPath id="clip0_15738_6813">
<rect width="78" height="48" fill="white"/>
</clipPath>
</defs>
</svg>
