<svg width="34" height="48" viewBox="0 0 34 48" fill="none" xmlns="http://www.w3.org/2000/svg">
<g id="Target" clip-path="url(#clip0_7829_38561)">
<path id="Vector" d="M13.1576 21.1811C13.9707 21.943 14.9315 22.5525 16.0402 22.7811C17.1489 23.0097 18.2576 22.8573 19.2924 22.4763C20.3272 22.0954 21.2142 21.3335 21.8055 20.343C22.3968 19.4287 22.7663 18.2859 22.7663 17.143C22.7663 15.6192 22.175 14.1716 21.1402 13.1049C19.9576 12.0382 18.5533 11.4287 17.075 11.4287C15.9663 11.4287 14.9315 11.7335 13.9707 12.4192C13.0837 13.0287 12.3446 13.943 11.9011 15.0097C11.4576 16.0763 11.3837 17.2192 11.6055 18.2859C11.8272 19.3525 12.3446 20.4192 13.1576 21.1811Z" fill="#270741"/>
<path id="Vector_2" d="M5.24935 29.2573C6.80153 30.8573 8.64936 32.0764 10.645 32.9906C12.6407 33.8287 14.8581 34.2859 17.0015 34.2859C20.3276 34.2859 23.5059 33.2954 26.3146 31.3906C29.0494 29.4859 31.1928 26.8192 32.4494 23.6954C33.7059 20.5716 34.0754 17.143 33.4102 13.7906C32.745 10.4383 31.1928 7.39064 28.8276 5.02874C26.4624 2.66683 23.5059 0.990641 20.2537 0.304927C17.0754 -0.304597 13.7494 0.000165031 10.645 1.2954C7.61457 2.59064 4.9537 4.80017 3.17979 7.61921C1.33197 10.4383 0.371094 13.7906 0.371094 17.143C0.371094 19.4287 0.81457 21.6383 1.62761 23.6954C2.44066 25.7525 3.69718 27.6573 5.24935 29.2573ZM7.83631 10.8192C9.09283 8.91445 10.7928 7.46683 12.8624 6.62874C14.932 5.79064 17.1494 5.56207 19.2928 5.94302C21.4363 6.40017 23.432 7.46683 24.9841 9.06683C26.5363 10.6668 27.5711 12.724 28.0146 14.9335C28.4581 17.143 28.2363 19.4287 27.3494 21.5621C26.5363 23.6192 25.0581 25.4478 23.2841 26.6668C21.4363 27.8859 19.2928 28.5716 17.0754 28.5716C14.1189 28.5716 11.3102 27.3525 9.24066 25.2192C7.17109 23.0859 5.98848 20.1906 5.98848 17.143C5.91457 14.8573 6.57979 12.6478 7.83631 10.8192Z" fill="#270741"/>
<path id="Vector_3" d="M3.2537 36.4951H1.47979V38.5523H0.371094V39.7713H1.47979V43.7332C1.47979 44.9523 2.14501 45.3332 3.54936 45.3332C3.91892 45.3332 4.28848 45.3332 4.58414 45.257V43.8094C4.43631 43.8856 4.21457 43.8856 3.99283 43.8856C3.40153 43.8856 3.2537 43.7332 3.2537 43.1237V39.7713H4.58414V38.5523H3.2537V36.4951Z" fill="#270741"/>
<path id="Vector_4" d="M7.09568 45.41C8.20438 45.41 8.94351 45.029 9.38699 44.4957C9.53481 45.1052 9.97829 45.3338 10.7913 45.3338C11.0131 45.3338 11.3087 45.2576 11.5305 45.1814V43.9623H11.4566C11.087 43.9623 11.0131 43.8861 11.0131 43.429V40.1528C11.0131 38.9338 10.0522 38.248 8.13047 38.248C6.28264 38.248 5.10004 39.01 5.02612 40.5338H6.80003C6.87394 39.848 7.24351 39.5433 7.98264 39.5433C8.57395 39.5433 9.16525 39.6957 9.16525 40.4576C9.16525 41.0671 8.64786 41.1433 7.46525 41.2957C6.35655 41.448 5.76525 41.6004 5.32177 41.9814C5.10003 42.1338 4.95221 42.3623 4.87829 42.5909C4.80438 42.8195 4.73047 43.1242 4.73047 43.3528C4.87829 44.7242 5.76525 45.41 7.09568 45.41ZM8.13047 42.2861C8.72177 42.21 9.01742 42.1338 9.23916 41.9814V42.6671C9.23916 43.6576 8.72177 44.1909 7.7609 44.1909C6.94786 44.1909 6.65221 43.8861 6.65221 43.3528C6.65221 42.6671 7.24351 42.4385 8.13047 42.2861Z" fill="#270741"/>
<path id="Vector_5" d="M13.8211 42.2099C13.8211 40.9909 14.2646 40.0766 15.595 40.0766C15.8167 40.0766 16.0385 40.0766 16.2602 40.1528V38.4766C16.1124 38.4004 15.9646 38.4004 15.8907 38.4004C15.4472 38.4004 15.0037 38.5528 14.6341 38.7813C14.2646 39.0099 13.9689 39.3909 13.8211 39.848V38.629H12.1211V45.3337H13.895V42.2099H13.8211Z" fill="#270741"/>
<path id="Vector_6" d="M22.6922 44.8763V38.5525H20.9922V39.4668C20.7704 39.0859 20.4748 38.8573 20.1791 38.6287C19.8095 38.4763 19.44 38.324 19.0704 38.4001C17.2226 38.4001 16.2617 40.0001 16.2617 41.7525C16.2617 43.7335 17.1487 45.1049 19.0704 45.1049C19.44 45.1049 19.8835 45.0287 20.1791 44.8763C20.5487 44.724 20.8443 44.4192 20.9922 44.0382V44.9525C20.9922 45.943 20.4748 46.5525 19.5139 46.5525C18.8487 46.5525 18.3313 46.2478 18.1835 45.6382H16.4095C16.4835 47.0097 17.8139 47.7716 19.2922 47.7716C21.7313 47.8478 22.6922 46.6287 22.6922 44.8763ZM19.44 43.6573C18.4052 43.6573 17.9617 42.743 17.9617 41.6763C17.9617 40.5335 18.4791 39.7716 19.44 39.7716C20.6965 39.7716 20.9922 40.9144 20.9922 41.8287C20.9922 42.8192 20.4009 43.6573 19.44 43.6573Z" fill="#270741"/>
<path id="Vector_7" d="M26.5331 38.4C24.5375 38.4 23.207 39.8476 23.207 41.9809C23.207 44.0381 24.4636 45.4857 26.5331 45.4857C28.0853 45.4857 29.1201 44.7238 29.6375 43.2H28.0853C27.9375 43.6571 27.3462 44.0381 26.6809 44.0381C25.6462 44.0381 25.1288 43.5047 25.0549 42.3619H29.7853V41.9809C29.7114 40 28.6027 38.3238 26.5331 38.4ZM24.9809 41.1428C24.9809 40.9142 25.0549 40.7619 25.1288 40.6095C25.2027 40.4571 25.3505 40.3047 25.4244 40.1523C25.4983 40 25.7201 39.9238 25.9418 39.8476C26.0896 39.7714 26.3114 39.7714 26.5331 39.7714C27.3462 39.7714 27.7896 40.1523 28.0114 41.219H24.9809V41.1428Z" fill="#270741"/>
<path id="Vector_8" d="M33.7794 39.7713V38.5522H32.449V36.5713H30.6751V38.6284H29.5664V39.8475H30.6751V43.8094C30.6751 45.0284 31.3403 45.4094 32.7447 45.4094C33.1142 45.4094 33.4838 45.4094 33.7794 45.3332V43.8856C33.6316 43.9618 33.4099 43.9618 33.1881 43.9618C32.5968 43.9618 32.449 43.8094 32.449 43.1999V39.8475H33.7794V39.7713Z" fill="#270741"/>
</g>
<defs>
<clipPath id="clip0_7829_38561">
<rect width="34" height="48" fill="white"/>
</clipPath>
</defs>
</svg>
