<svg width="133" height="32" viewBox="0 0 133 32" fill="none" xmlns="http://www.w3.org/2000/svg">
<g clip-path="url(#clip0_15816_5793)">
<path d="M11.1985 17.56C11.1985 19.0864 9.94873 20.3247 8.40827 20.3247C6.86781 20.3247 5.61808 19.0864 5.61808 17.56C5.61808 16.0337 6.86781 14.7954 8.40827 14.7954C9.94873 14.7954 11.1985 16.0337 11.1985 17.56ZM24.1451 14.7954C22.6047 14.7954 21.3549 16.0337 21.3549 17.56C21.3549 19.0864 22.6047 20.3247 24.1451 20.3247C25.6856 20.3247 26.9353 19.0864 26.9353 17.56C26.9353 16.0337 25.6856 14.7954 24.1451 14.7954ZM31.9871 17.5788C31.9871 21.8773 28.4682 25.3603 24.13 25.3603C22.0685 25.3603 20.1958 24.5746 18.795 23.2877L16.2805 26L13.7621 23.284C12.3614 24.5709 10.4849 25.3565 8.42337 25.3565C4.08517 25.3565 0.570051 21.8736 0.570051 17.5788C0.570051 15.3004 1.55927 13.2503 3.13371 11.8249L0.5625 9.05649H6.27504C9.12187 7.12608 12.5577 6 16.2767 6C19.9957 6 23.4466 7.12608 26.2972 9.05649H31.9947L29.4235 11.8287C30.9979 13.2503 31.9833 15.3004 31.9833 17.5788M13.7395 17.5788C13.7395 14.6719 11.3608 12.3113 8.42337 12.3113C5.48593 12.3113 3.10728 14.6682 3.10728 17.5788C3.10728 20.4893 5.48593 22.8462 8.42337 22.8462C11.3608 22.8462 13.7395 20.4893 13.7395 17.5788ZM22.178 9.71493C20.3619 8.96296 18.3684 8.5477 16.2805 8.5477C14.1925 8.5477 12.199 8.96296 10.3829 9.71493C13.7395 10.9869 16.2805 13.9611 16.2805 17.4254C16.2805 13.9611 18.8253 10.9869 22.178 9.71493ZM29.4461 17.5788C29.4461 14.6719 27.0675 12.3113 24.13 12.3113C21.1926 12.3113 18.8139 14.6682 18.8139 17.5788C18.8139 20.4893 21.1926 22.8462 24.13 22.8462C27.0675 22.8462 29.4461 20.4893 29.4461 17.5788ZM46.0476 14.3876V12.6779H43.4046V22.8425H46.0476V16.7482C46.0476 15.6446 46.7612 15.1021 47.875 15.1021H49.3211V12.6779H48.0864C47.1199 12.6779 46.2779 13.1792 46.0476 14.3876ZM51.7979 8.65993C50.8955 8.65993 50.2008 9.367 50.2008 10.2649C50.2008 11.1627 50.8955 11.8474 51.7979 11.8474C52.7003 11.8474 53.395 11.1403 53.395 10.2649C53.395 9.38945 52.7003 8.65993 51.7979 8.65993ZM50.4802 22.8425H53.1156V12.6779H50.4802V22.8425ZM65.6809 17.7621C65.6809 20.6614 63.306 23.0146 60.3799 23.0146C59.1981 23.0146 58.1258 22.6293 57.2688 21.982V25.8242H54.6334V12.6779H57.2688V13.5383C58.1296 12.8911 59.1981 12.5058 60.3799 12.5058C63.3098 12.5058 65.6809 14.859 65.6809 17.7583M63.0266 17.7621C63.0266 16.1871 61.7354 14.9076 60.1458 14.9076C58.5563 14.9076 57.265 16.1871 57.265 17.7621C57.265 19.3371 58.5563 20.6165 60.1458 20.6165C61.7354 20.6165 63.0266 19.3371 63.0266 17.7621ZM111.525 16.8679L109.984 16.4489C108.972 16.1871 108.58 15.8803 108.58 15.349C108.58 14.8178 109.135 14.4699 109.928 14.4699C110.72 14.4699 111.275 14.96 111.275 15.5847V15.6409H113.707V15.5847C113.707 13.7404 112.189 12.5021 109.928 12.5021C107.666 12.5021 106.065 13.7404 106.065 15.4463C106.065 16.7744 106.952 17.7733 108.5 18.1886L109.973 18.5851C111.094 18.8919 111.51 19.2323 111.51 19.8421C111.51 20.4856 110.909 20.9196 110.014 20.9196C109.12 20.9196 108.455 20.336 108.455 19.4643V19.4082H105.876V19.4643C105.876 21.5481 107.572 23.0071 109.996 23.0071C112.419 23.0071 114.028 21.5855 114.028 19.6251C114.028 18.6674 113.594 17.4067 111.528 16.8605M75.0369 12.6779H77.6723V22.8425H75.0369V21.982C74.1798 22.6293 73.1076 23.0146 71.9258 23.0146C68.9959 23.0146 66.6248 20.6614 66.6248 17.7621C66.6248 14.8627 68.9997 12.5095 71.9258 12.5095C73.1076 12.5095 74.1798 12.8911 75.0369 13.5421V12.6816V12.6779ZM75.0369 17.7621C75.0369 16.1871 73.7457 14.9076 72.1561 14.9076C70.5666 14.9076 69.2753 16.1871 69.2753 17.7621C69.2753 19.3371 70.5628 20.6165 72.1561 20.6165C73.7494 20.6165 75.0369 19.3371 75.0369 17.7621ZM87.1982 9.06023H89.8336V22.8425H87.1982V21.982C86.3412 22.6293 85.2689 23.0146 84.0871 23.0146C81.1572 23.0146 78.7861 20.6614 78.7861 17.7621C78.7861 14.8627 81.161 12.5095 84.0871 12.5095C85.2689 12.5095 86.3412 12.8911 87.1982 13.5421V9.06397V9.06023ZM87.1982 17.7621C87.1982 16.1871 85.907 14.9076 84.3174 14.9076C82.7279 14.9076 81.4366 16.1871 81.4366 17.7621C81.4366 19.3371 82.7241 20.6165 84.3174 20.6165C85.9108 20.6165 87.1982 19.3371 87.1982 17.7621ZM102.082 22.8425H104.717V12.6779H102.082V22.8425ZM103.399 8.65993C102.497 8.65993 101.802 9.367 101.802 10.2649C101.802 11.1627 102.497 11.8474 103.399 11.8474C104.302 11.8474 104.997 11.1403 104.997 10.2649C104.997 9.38945 104.302 8.65993 103.399 8.65993ZM125.427 17.7621C125.427 20.6614 123.052 23.0146 120.126 23.0146C117.199 23.0146 114.825 20.6614 114.825 17.7621C114.825 14.8627 117.199 12.5095 120.126 12.5095C123.052 12.5095 125.427 14.8627 125.427 17.7621ZM123.003 17.7621C123.003 16.1871 121.715 14.9076 120.122 14.9076C118.528 14.9076 117.241 16.1871 117.241 17.7621C117.241 19.3371 118.532 20.6165 120.122 20.6165C121.711 20.6165 123.003 19.3371 123.003 17.7621ZM44.6959 9.06023H34.5772V11.3909H38.3226V22.8425H40.9505V11.3947H44.6959V9.06397V9.06023ZM95.8633 20.0591L93.5187 12.6779H90.7473L94.2662 22.8425H97.4415L100.983 12.6779H98.2118L95.8671 20.0591H95.8633ZM129.289 14.3876V12.6779H126.646V22.8425H129.289V16.7482C129.289 15.6446 130.003 15.1021 131.116 15.1021H132.562V12.6779H131.328C130.361 12.6779 129.519 13.1792 129.289 14.3876Z" fill="#270741"/>
</g>
<defs>
<clipPath id="clip0_15816_5793">
<rect width="132" height="32" fill="white" transform="translate(0.5625)"/>
</clipPath>
</defs>
</svg>
