<svg xmlns="http://www.w3.org/2000/svg" width="151" height="34" viewBox="0 0 151 34" fill="none">
<path d="M20.0593 0.662259C20.0432 0.732366 20.0452 0.762412 20.0312 0.786449C19.0464 2.47904 18.0615 4.17363 17.0866 5.84819C16.9625 5.90828 16.8544 5.88825 16.7503 5.88825C15.5393 5.88825 14.3302 5.88825 13.1191 5.88825C12.0722 5.88825 11.0253 5.88825 9.97836 5.88825C9.87427 5.88825 9.76818 5.87423 9.6721 5.90828C9.63206 6.00442 9.68611 6.06652 9.72214 6.13262C9.94834 6.52322 10.1745 6.91381 10.4007 7.30441C11.7299 9.5879 13.0591 11.8694 14.3883 14.1529C15.8756 16.7108 17.3629 19.2687 18.8502 21.8246C19.0344 22.1411 19.2145 22.4576 19.3987 22.7721C19.4367 22.8362 19.4848 22.8942 19.5268 22.9543C19.6429 22.9323 19.6649 22.8382 19.705 22.768C19.9932 22.2793 20.2755 21.7885 20.5597 21.2998C21.4445 19.7795 22.3273 18.2612 23.212 16.7408C23.2501 16.6747 23.2941 16.6126 23.3221 16.5686C23.3502 16.5485 23.3582 16.5405 23.3662 16.5365C23.3742 16.5325 23.3842 16.5305 23.3942 16.5305C25.3339 16.5285 27.2736 16.5265 29.2153 16.5225C29.2634 16.5225 29.3094 16.5225 29.3455 16.5225C29.4075 16.5966 29.3615 16.6407 29.3354 16.6888C29.0712 17.1455 28.805 17.6021 28.5387 18.0588C27.704 19.495 26.8693 20.9312 26.0325 22.3694C25.0657 24.03 24.0988 25.6905 23.134 27.3511C21.999 29.302 20.864 31.255 19.731 33.206C19.6789 33.2961 19.6229 33.3823 19.5708 33.4664C19.5448 33.4564 19.5308 33.4564 19.5268 33.4504C13.2052 22.5858 6.88163 11.7172 0.558051 0.850547C0.53403 0.810486 0.518016 0.764415 0.5 0.730363C0.518016 0.65625 0.570062 0.660256 0.616102 0.658253C0.70418 0.65625 0.790256 0.65625 0.876332 0.65625C7.14787 0.65625 13.4214 0.65625 19.6929 0.65625C19.807 0.65625 19.9211 0.660256 20.0593 0.662259Z" fill="#F9FAFB"/>
<path d="M19.5625 17.6121C19.5144 17.552 19.4884 17.526 19.4684 17.4939C18.4695 15.7753 17.4666 14.0587 16.4697 12.332C16.5138 12.2459 16.5498 12.1678 16.5918 12.0937C17.2244 11.006 17.857 9.91836 18.4895 8.83069C18.6356 8.58031 18.6356 8.58031 18.9179 8.58031C20.0028 8.58031 21.0878 8.58031 22.1728 8.58031C23.9784 8.58031 25.7839 8.58031 27.5895 8.58031H27.9198C28.074 8.43809 28.146 8.26783 28.2361 8.1116C28.6445 7.40451 29.0468 6.69543 29.4492 5.98635C29.4552 5.97433 29.4432 5.95029 29.4372 5.91824C29.4091 5.91023 29.3751 5.89421 29.3391 5.8922C29.243 5.8882 29.1469 5.8882 29.0508 5.8882C26.2363 5.8882 23.4219 5.8882 20.6094 5.8882C20.4973 5.8882 20.3812 5.90222 20.2791 5.87017C20.2391 5.79405 20.2871 5.74999 20.3131 5.70191C20.5954 5.21116 20.8796 4.72041 21.1659 4.23166C21.8024 3.13599 22.441 2.04032 23.0796 0.944641C23.1316 0.854503 23.1897 0.764365 23.2357 0.688249C23.2617 0.678234 23.2697 0.672225 23.2797 0.670221C23.2897 0.666215 23.2978 0.664212 23.3078 0.664212C23.4038 0.662209 23.4999 0.658203 23.596 0.658203C28.5704 0.658203 33.5468 0.658203 38.5212 0.658203C38.5392 0.658203 38.5592 0.664212 38.5772 0.668218C38.5872 0.670221 38.5953 0.676231 38.6033 0.680237C38.6333 0.756353 38.5812 0.808433 38.5492 0.864518C38.299 1.29718 38.0488 1.72784 37.7966 2.1605C36.5695 4.26972 35.3424 6.37694 34.1173 8.48617C33.1424 10.1627 32.1676 11.8413 31.1907 13.5179C30.9986 13.8484 31.0466 13.8223 30.6502 13.8223C27.8458 13.8223 25.0413 13.8223 22.2368 13.8223C22.1207 13.8223 22.0066 13.8263 21.8905 13.8303C21.8184 13.8323 21.7624 13.8684 21.7244 13.9285C21.6883 13.9846 21.6543 14.0427 21.6203 14.1007C20.9917 15.1804 20.3632 16.258 19.7346 17.3377C19.6866 17.4198 19.6345 17.4999 19.5625 17.6141V17.6121Z" fill="#F9FAFB"/>
<path d="M130.347 4.33991C130.397 4.32989 130.451 4.31187 130.507 4.31187C131.39 4.31187 132.275 4.31187 133.157 4.31187C133.203 4.31187 133.249 4.32589 133.308 4.3339C133.318 4.396 133.332 4.45008 133.336 4.50616C133.34 4.58228 133.336 4.6604 133.336 4.73652C133.336 8.90889 133.336 13.0793 133.336 17.2516V17.5982C133.271 17.6903 133.201 17.6843 133.135 17.6843C132.857 17.6863 132.579 17.6843 132.301 17.6843C131.878 17.6843 131.456 17.6783 131.034 17.6863C130.873 17.6903 130.769 17.6322 130.669 17.508C129.907 16.5686 129.136 15.6352 128.367 14.6997C127.02 13.0592 125.675 11.4167 124.328 9.77622C124.286 9.72614 124.238 9.68007 124.175 9.61397C124.153 9.67006 124.133 9.70411 124.131 9.73616C124.125 9.85033 124.125 9.96651 124.125 10.0827C124.125 12.4763 124.125 14.87 124.125 17.2617C124.125 17.3858 124.141 17.51 124.093 17.6462C124.043 17.6583 123.989 17.6783 123.935 17.6803C123.733 17.6843 123.533 17.6843 123.331 17.6843C122.706 17.6843 122.082 17.6843 121.457 17.6843C121.353 17.6843 121.249 17.6783 121.133 17.6743C121.117 17.6062 121.099 17.5541 121.095 17.5C121.089 17.4339 121.091 17.3658 121.091 17.2977C121.091 13.0973 121.091 8.89687 121.091 4.69646C121.091 4.58228 121.077 4.4661 121.121 4.33991C121.183 4.32989 121.247 4.31187 121.309 4.31187C122.02 4.30986 122.73 4.31187 123.441 4.30786C123.581 4.30786 123.671 4.35593 123.757 4.4641C124.203 5.01695 124.656 5.56578 125.106 6.11663C126.616 7.96145 128.123 9.80426 129.632 11.6491C129.796 11.8494 129.961 12.0497 130.127 12.25C130.161 12.2921 130.205 12.3261 130.265 12.3822C130.281 12.3101 130.297 12.266 130.299 12.22C130.303 12.0958 130.303 11.9696 130.303 11.8454C130.303 9.47175 130.303 7.09813 130.303 4.72249C130.303 4.60031 130.281 4.47211 130.343 4.34191L130.347 4.33991Z" fill="#F9FAFB"/>
<path d="M73.4362 4.06963C74.6413 4.04359 75.8543 4.27394 76.9113 4.75668C78.4066 5.43972 79.5416 6.50135 80.2722 7.98161C80.5805 8.60656 80.7687 9.26757 80.8708 9.95663C80.9568 10.5495 80.9629 11.1464 80.9088 11.7394C80.8227 12.6968 80.5425 13.6022 80.0541 14.4355C79.1132 16.0379 77.726 17.0635 75.9624 17.5983C75.2418 17.8166 74.4992 17.9068 73.7465 17.9148C72.7876 17.9248 71.8508 17.8046 70.942 17.4861C69.827 17.0935 68.8482 16.4866 68.0495 15.6053C67.1567 14.6178 66.6062 13.466 66.404 12.146C66.3019 11.4749 66.2759 10.8039 66.364 10.1349C66.6722 7.77129 67.8913 6.03463 69.9952 4.92093C71.0261 4.3761 72.2271 4.09166 73.4362 4.06763V4.06963ZM69.4327 11.0142C69.4387 11.2927 69.4507 11.5691 69.5007 11.8455C69.767 13.3037 70.5477 14.3654 71.9109 14.9623C72.8016 15.3509 73.7365 15.413 74.6753 15.1826C76.0585 14.8441 77.0274 14.0048 77.5378 12.6688C77.9082 11.6973 77.9362 10.6978 77.6559 9.69823C77.3156 8.48037 76.571 7.59101 75.416 7.07222C74.4711 6.64757 73.4843 6.58547 72.4874 6.84788C71.2423 7.17437 70.3475 7.93554 69.811 9.10933C69.5348 9.71225 69.4227 10.3532 69.4327 11.0142Z" fill="#F9FAFB"/>
<path d="M47.821 4.33158C48.0652 4.30354 50.8056 4.30354 51.0639 4.33559C51.208 4.604 51.3161 4.90045 51.4422 5.18889C51.5663 5.47133 51.6824 5.75376 51.8045 6.03619C51.9286 6.32864 52.0527 6.61908 52.1768 6.91153C52.2969 7.19396 52.4191 7.47639 52.5412 7.75882C52.6653 8.05127 52.7874 8.34171 52.9115 8.63416C53.0316 8.91659 53.1497 9.20103 53.2698 9.48346C53.3939 9.7759 53.518 10.0663 53.6441 10.3568C53.7642 10.6392 53.8843 10.9217 54.0045 11.2061C54.1286 11.4985 54.2527 11.789 54.3788 12.0794C54.4989 12.3619 54.621 12.6443 54.7411 12.9267C54.8632 13.2172 54.9773 13.5136 55.1134 13.788C55.1915 13.8081 55.2135 13.764 55.2335 13.7199C55.3897 13.3594 55.5478 12.9968 55.7019 12.6363C56.4126 10.9878 57.1232 9.33723 57.8358 7.68871C58.2842 6.64913 58.7346 5.60753 59.185 4.56794C59.2191 4.48983 59.2571 4.41371 59.2891 4.3456C59.5253 4.29953 61.3189 4.2795 62.1536 4.31155C62.1997 4.31155 62.2437 4.32557 62.2798 4.33158C62.3218 4.43174 62.2657 4.49784 62.2377 4.56394C61.9274 5.28704 61.6172 6.01215 61.3029 6.73325C60.3881 8.84849 59.4713 10.9637 58.5565 13.079C57.9239 14.5412 57.2894 16.0054 56.6548 17.4677C56.6288 17.5298 56.5987 17.5898 56.5667 17.66C56.5027 17.668 56.4386 17.684 56.3725 17.684C55.4878 17.684 54.605 17.684 53.7202 17.684C53.6541 17.684 53.5881 17.67 53.53 17.664C53.4019 17.4516 48.0912 5.18088 47.813 4.46178C47.803 4.43574 47.799 4.4077 47.793 4.37966C47.793 4.37164 47.797 4.36163 47.801 4.35362C47.805 4.3456 47.811 4.33759 47.817 4.32958L47.821 4.33158Z" fill="#F9FAFB"/>
<path d="M116.244 17.6662C116.176 17.6742 116.12 17.6842 116.064 17.6862C115.323 17.7083 113.257 17.6942 112.991 17.6642C112.961 17.6101 112.921 17.546 112.891 17.4779C112.4 16.3302 111.912 15.1824 111.424 14.0326C110.781 12.5223 110.136 11.012 109.492 9.50172C109.33 9.12114 109.17 8.74256 109.005 8.36198C108.979 8.30389 108.945 8.24981 108.917 8.19773C108.891 8.20374 108.881 8.20374 108.871 8.20774C108.863 8.21175 108.855 8.21976 108.849 8.22577C108.839 8.24179 108.829 8.25782 108.821 8.27585C108.809 8.30189 108.797 8.32793 108.785 8.35397C107.452 11.4387 106.119 14.5234 104.786 17.6081C104.782 17.6161 104.778 17.6261 104.772 17.6321C104.766 17.6402 104.76 17.6462 104.746 17.6622C104.718 17.6682 104.68 17.6822 104.644 17.6822C103.721 17.6822 102.8 17.6822 101.877 17.6822C101.839 17.6822 101.803 17.6702 101.749 17.6602C101.763 17.6001 101.767 17.544 101.789 17.4959C102.129 16.7027 102.474 15.9095 102.816 15.1143C103.577 13.3516 104.339 11.5889 105.1 9.82621C105.863 8.06352 106.625 6.30083 107.388 4.54014C107.418 4.47003 107.456 4.40393 107.494 4.33182C107.746 4.28775 107.995 4.31579 108.243 4.31179C108.501 4.30778 108.761 4.31179 109.021 4.31179C109.282 4.31179 109.522 4.30778 109.77 4.31179C110.018 4.31579 110.269 4.29176 110.519 4.32781C110.545 4.37188 110.573 4.41194 110.591 4.45601C112.474 8.82869 114.358 13.2034 116.24 17.5781C116.246 17.5941 116.24 17.6161 116.24 17.6662H116.244Z" fill="#F9FAFB"/>
<path d="M143.113 6.83588C142.812 6.80383 142.536 6.82386 142.258 6.81986C141.98 6.81585 141.701 6.81986 141.423 6.81986H138.905C138.889 6.75776 138.865 6.70368 138.865 6.6516C138.863 5.9305 138.863 5.2094 138.865 4.4903C138.865 4.44423 138.877 4.39816 138.883 4.34207C138.935 4.33205 138.979 4.31803 139.027 4.31403C139.113 4.31002 139.199 4.31202 139.285 4.31202C142.886 4.31202 146.488 4.31202 150.087 4.31202C150.173 4.31202 150.259 4.31002 150.345 4.31603C150.391 4.32004 150.435 4.33806 150.495 4.35209C150.499 5.16333 150.495 5.96856 150.495 6.75376C150.413 6.83989 150.333 6.81785 150.259 6.81986C149.798 6.82186 149.338 6.81986 148.876 6.81986C148.107 6.81986 147.34 6.81986 146.572 6.81986C146.467 6.81986 146.361 6.80584 146.281 6.83388C146.209 6.89397 146.221 6.95406 146.219 7.01015C146.215 7.11631 146.219 7.22247 146.219 7.32663C146.219 10.6517 146.219 13.9768 146.219 17.3019C146.219 17.4161 146.233 17.5302 146.199 17.6344C146.105 17.7085 146.005 17.6865 145.913 17.6865C145.367 17.6885 144.818 17.6865 144.272 17.6865C144.003 17.6865 143.733 17.6865 143.465 17.6865C143.371 17.6865 143.273 17.7005 143.167 17.6484C143.159 17.6023 143.145 17.5483 143.143 17.4922C143.139 17.406 143.143 17.3199 143.143 17.2338C143.143 13.8987 143.143 10.5656 143.143 7.23048C143.143 7.1083 143.157 6.98211 143.117 6.83588H143.113Z" fill="#F9FAFB"/>
<path d="M87.1609 4.31634C88.1257 4.30633 89.0746 4.31233 90.0254 4.31233C90.0714 4.31233 90.1175 4.32435 90.1795 4.33437C90.1875 4.39847 90.1976 4.45255 90.1996 4.50663C90.2036 4.59276 90.1996 4.6789 90.1996 4.76703C90.1996 8.10213 90.1996 11.4372 90.1996 14.7743C90.1996 14.8985 90.1855 15.0227 90.2236 15.1589C90.2776 15.1709 90.3317 15.187 90.3877 15.191C90.4738 15.197 90.5599 15.193 90.6479 15.193C92.6077 15.193 94.5674 15.193 96.5271 15.193C96.6412 15.193 96.7553 15.1809 96.8815 15.215C96.8895 15.2651 96.9055 15.3091 96.9055 15.3552C96.9055 16.0763 96.9055 16.7974 96.9055 17.5185C96.9055 17.5566 96.8955 17.5946 96.8895 17.6467C96.8374 17.6607 96.7854 17.6828 96.7313 17.6868C96.6452 17.6948 96.5592 17.6908 96.4731 17.6908C93.4945 17.6908 90.5178 17.6908 87.5392 17.6908C87.4151 17.6908 87.289 17.7108 87.1569 17.6587C87.1469 17.6087 87.1308 17.5546 87.1268 17.5005C87.1208 17.4244 87.1268 17.3463 87.1268 17.2701C87.1268 13.0877 87.1268 8.90736 87.1268 4.72497C87.1268 4.60278 87.1048 4.47659 87.1669 4.32035L87.1609 4.31634Z" fill="#F9FAFB"/>
<path d="M104.752 23.659C105.009 23.619 105.567 23.615 105.863 23.649C105.875 23.6951 105.894 23.7472 105.9 23.8012C105.906 23.8673 105.904 23.9354 105.904 24.0036C105.904 25.8784 105.904 27.7513 105.904 29.6261C105.904 29.7403 105.92 29.8565 105.877 29.9667C105.691 30.0207 105.435 30.0308 104.947 29.9967C104.911 29.9587 104.865 29.9106 104.823 29.8605C103.912 28.7428 103.003 27.6271 102.092 26.5094C101.916 26.2931 101.742 26.0767 101.564 25.8624C101.53 25.8203 101.486 25.7863 101.454 25.7562C101.384 25.7763 101.394 25.8223 101.394 25.8564C101.392 26.0286 101.392 26.2029 101.392 26.3752C101.392 27.4708 101.392 28.5665 101.392 29.6622C101.392 29.7664 101.406 29.8725 101.372 29.9707C101.173 30.0228 100.589 30.0308 100.269 29.9847C100.261 29.9346 100.249 29.8805 100.247 29.8265C100.243 29.7403 100.247 29.6542 100.247 29.5661C100.247 27.7112 100.247 25.8564 100.247 24.0015C100.247 23.8894 100.233 23.7732 100.273 23.647C100.581 23.611 100.885 23.635 101.205 23.631C101.786 24.3461 102.366 25.0612 102.949 25.7743C103.525 26.4793 104.096 27.1904 104.67 27.8835C104.742 27.8735 104.746 27.8334 104.746 27.7953C104.748 27.7092 104.748 27.6231 104.748 27.5349C104.748 26.3531 104.748 25.1713 104.748 23.9895C104.748 23.8854 104.75 23.7792 104.752 23.661V23.659Z" fill="#F9FAFB"/>
<path d="M117.447 29.9894C117.441 29.9193 117.433 29.8632 117.433 29.8072C117.401 28.3309 117.417 23.9522 117.459 23.6538C117.507 23.6457 117.561 23.6297 117.617 23.6297C118.482 23.6297 119.347 23.6237 120.209 23.6337C120.614 23.6377 121.012 23.7078 121.39 23.8581C121.643 23.9582 121.875 24.0884 122.081 24.2687C122.379 24.5291 122.579 24.8516 122.684 25.2322C122.806 25.6768 122.808 26.1215 122.68 26.5682C122.529 27.093 122.213 27.4856 121.739 27.756C121.689 27.7841 121.637 27.8081 121.585 27.8361C121.543 27.8582 121.501 27.8802 121.467 27.8982C121.426 28.0024 121.497 28.0545 121.539 28.1146C121.829 28.5332 122.121 28.9498 122.413 29.3665C122.517 29.5167 122.624 29.6649 122.726 29.8152C122.758 29.8612 122.784 29.9113 122.81 29.9534C122.8 29.9734 122.798 29.9834 122.792 29.9914C122.786 29.9974 122.778 30.0035 122.77 30.0035C122.722 30.0075 122.674 30.0135 122.626 30.0135C122.291 30.0135 121.955 30.0135 121.615 30.0135C121.525 29.8873 121.44 29.7711 121.358 29.6529C121.044 29.2042 120.73 28.7576 120.422 28.3049C120.35 28.1987 120.269 28.1506 120.137 28.1526C119.705 28.1606 119.273 28.1546 118.84 28.1566C118.774 28.1566 118.71 28.1667 118.658 28.1707C118.584 28.2488 118.602 28.3289 118.602 28.403C118.6 28.8357 118.602 29.2683 118.6 29.701C118.6 29.7951 118.62 29.8933 118.566 29.9814C118.366 30.0235 117.833 30.0315 117.445 29.9954L117.447 29.9894ZM118.656 27.1731C118.688 27.1771 118.734 27.1892 118.78 27.1892C119.241 27.1892 119.701 27.1932 120.159 27.1872C120.37 27.1831 120.58 27.1451 120.78 27.075C121.09 26.9668 121.34 26.7805 121.475 26.4701C121.635 26.1015 121.633 25.7229 121.489 25.3503C121.39 25.1 121.208 24.9197 120.964 24.8015C120.772 24.7094 120.572 24.6533 120.36 24.6333C119.823 24.5852 119.287 24.6132 118.75 24.6132C118.714 24.6132 118.676 24.6292 118.644 24.6373C118.596 24.8215 118.584 25.5146 118.604 26.9087C118.604 26.9929 118.584 27.081 118.658 27.1711L118.656 27.1731Z" fill="#F9FAFB"/>
<path d="M84.5288 23.6389C84.6148 23.6349 84.6889 23.6269 84.765 23.6269C85.5617 23.6269 86.3604 23.6249 87.1571 23.6269C87.5915 23.6269 88.0178 23.693 88.4262 23.8492C88.7245 23.9634 88.9967 24.1236 89.2249 24.352C89.5792 24.7065 89.7714 25.1372 89.8054 25.6359C89.8254 25.9344 89.8254 26.2308 89.7454 26.5233C89.5932 27.0821 89.2649 27.4988 88.7545 27.7732C88.6704 27.8193 88.5863 27.8633 88.5103 27.9054C88.4963 28.0056 88.5583 28.0596 88.6003 28.1217C88.9727 28.6586 89.349 29.1934 89.7233 29.7282C89.7774 29.8043 89.8495 29.8724 89.8595 29.9746C89.6613 30.0186 89.1328 30.0287 88.6644 29.9946C88.228 29.4057 87.8217 28.7787 87.3773 28.1678C87.1871 28.1277 86.9949 28.1558 86.8048 28.1498C86.6226 28.1458 86.4404 28.1478 86.2563 28.1498C86.0661 28.1518 85.8759 28.1378 85.6718 28.1678C85.6638 28.2559 85.6497 28.3301 85.6497 28.4042C85.6477 28.8268 85.6497 29.2495 85.6497 29.6741C85.6497 29.7703 85.6497 29.8644 85.6497 29.9666C85.6017 29.9826 85.5677 30.0046 85.5316 30.0046C85.2234 30.0066 84.9171 30.0066 84.6088 30.0046C84.5828 30.0046 84.5548 29.9886 84.5187 29.9786C84.5107 29.9425 84.4967 29.9065 84.4947 29.8704C84.4907 29.7843 84.4907 29.6981 84.4907 29.61C84.4907 27.7452 84.4907 25.8803 84.4907 24.0155C84.4907 23.9013 84.4747 23.7851 84.5248 23.6389H84.5288ZM85.6738 24.6464C85.6397 24.7666 85.6517 24.8828 85.6517 24.997C85.6517 25.6399 85.6517 26.2849 85.6517 26.9279C85.6517 27.01 85.6297 27.1022 85.7118 27.1763C85.7438 27.1803 85.7819 27.1903 85.8199 27.1903C86.2803 27.1903 86.7407 27.1983 87.2011 27.1863C87.3813 27.1823 87.5634 27.1482 87.7396 27.1002C88.254 26.962 88.6124 26.6194 88.6484 25.9805C88.6804 25.3996 88.4382 24.9829 87.9518 24.7686C87.7836 24.6945 87.6075 24.6504 87.4253 24.6344C86.8888 24.5863 86.3504 24.6144 85.8139 24.6124C85.7678 24.6124 85.7238 24.6344 85.6758 24.6464H85.6738Z" fill="#F9FAFB"/>
<path d="M110.675 29.0312C110.993 29.0492 111.292 29.0372 111.588 29.0392C111.876 29.0412 112.164 29.0392 112.453 29.0392C112.741 29.0392 113.047 29.0392 113.345 29.0392C113.632 29.0392 113.918 29.0312 114.214 29.0472C114.274 29.2055 114.246 29.3597 114.248 29.5099C114.25 29.6622 114.264 29.8164 114.232 29.9606C114.148 30.0287 114.058 30.0067 113.976 30.0067C113.419 30.0087 112.863 30.0067 112.304 30.0067C111.48 30.0067 110.653 30.0067 109.828 30.0067C109.724 30.0067 109.618 30.0247 109.5 29.9787C109.492 29.9306 109.482 29.8765 109.478 29.8204C109.474 29.7723 109.478 29.7243 109.478 29.6762C109.478 27.7733 109.478 25.8704 109.478 23.9695C109.478 23.8653 109.462 23.7592 109.492 23.677C109.516 23.655 109.522 23.647 109.53 23.641C109.538 23.637 109.548 23.635 109.558 23.635C111.027 23.633 112.497 23.629 113.964 23.627C114.002 23.627 114.038 23.635 114.07 23.639C114.088 23.659 114.108 23.673 114.11 23.689C114.136 23.9755 114.128 24.2619 114.114 24.5363C114.042 24.6145 113.962 24.5944 113.888 24.5964C113.485 24.5984 113.081 24.5964 112.679 24.5964C112.122 24.5964 111.566 24.5964 111.007 24.5964C110.903 24.5964 110.797 24.5824 110.681 24.6245C110.671 24.6665 110.651 24.7106 110.649 24.7547C110.647 25.2154 110.649 25.6761 110.649 26.1388C110.649 26.1748 110.663 26.2109 110.671 26.251C110.779 26.297 110.885 26.281 110.987 26.281C111.784 26.281 112.581 26.281 113.377 26.281C113.481 26.281 113.588 26.269 113.704 26.305C113.748 26.6035 113.722 26.8959 113.724 27.1784C113.626 27.2625 113.525 27.2345 113.433 27.2345C112.627 27.2365 111.82 27.2345 111.013 27.2345C110.909 27.2345 110.805 27.2405 110.687 27.2425C110.671 27.2966 110.647 27.3386 110.647 27.3827C110.645 27.8815 110.645 28.3822 110.647 28.881C110.647 28.917 110.661 28.9551 110.675 29.0212V29.0312Z" fill="#F9FAFB"/>
<path d="M68.9767 28.168C68.9127 28.2902 68.9307 28.3883 68.9307 28.4825C68.9307 28.8951 68.9307 29.3097 68.9307 29.7224C68.9307 29.8065 68.9227 29.8906 68.9167 29.9708C68.6985 30.0208 68.0819 30.0268 67.7777 29.9848C67.7696 29.9347 67.7556 29.8806 67.7496 29.8245C67.7456 29.7664 67.7496 29.7084 67.7496 29.6523C67.7496 27.7594 67.7496 25.8665 67.7496 23.9736C67.7496 23.8694 67.7336 23.7633 67.7817 23.6491C67.8377 23.6431 67.8938 23.6311 67.9478 23.6311C68.8026 23.6311 69.6573 23.6251 70.5121 23.6331C70.9264 23.6371 71.3348 23.7052 71.7211 23.8654C71.8893 23.9355 72.0534 24.0197 72.2036 24.1198C72.7781 24.5104 73.0523 25.0693 73.0823 25.7523C73.0923 25.9927 73.0863 26.231 73.0283 26.4674C72.8902 27.0283 72.5799 27.4589 72.0835 27.7554C71.7752 27.9397 71.4389 28.0478 71.0846 28.1079C70.8384 28.15 70.5901 28.166 70.3399 28.166C69.9856 28.166 69.6293 28.166 69.275 28.166C69.1789 28.166 69.0848 28.168 68.9807 28.17L68.9767 28.168ZM68.9567 27.1525C69.0007 27.1665 69.0288 27.1805 69.0548 27.1825C69.5332 27.1825 70.0136 27.1945 70.4921 27.1785C70.7803 27.1705 71.0626 27.1144 71.3208 26.9702C71.6451 26.7919 71.8412 26.5195 71.8853 26.1529C71.9053 25.9927 71.9053 25.8264 71.8893 25.6662C71.8472 25.2736 71.6411 24.9911 71.2908 24.8109C71.1006 24.7127 70.8984 24.6566 70.6862 24.6386C70.1497 24.5885 69.6133 24.6166 69.0768 24.6166C69.0328 24.6166 68.9907 24.6426 68.9527 24.6526C68.9187 24.921 68.9207 26.9081 68.9547 27.1525H68.9567Z" fill="#F9FAFB"/>
<path d="M76.747 28.5431C76.5108 29.0198 76.3386 29.5186 76.1124 29.9833C75.8742 30.0153 75.2837 30.0193 74.9754 29.9933C74.9233 29.9252 74.9754 29.8651 75.0014 29.809C75.1996 29.3603 75.4018 28.9156 75.604 28.469C76.1324 27.2952 76.6589 26.1214 77.1874 24.9476C77.3575 24.571 77.5257 24.1944 77.6958 23.8179C77.7238 23.7578 77.7579 23.6997 77.7979 23.6296C78.1702 23.6296 78.5425 23.6216 78.9229 23.6336C78.9709 23.7257 79.019 23.8078 79.059 23.894C80.158 26.2916 81.7173 29.787 81.7674 29.9653C81.7634 29.9733 81.7634 29.9853 81.7574 29.9913C81.7514 29.9973 81.7394 29.9993 81.7294 29.9993C81.4131 30.0033 81.0968 30.0073 80.7785 30.0073C80.7225 30.0073 80.6644 29.9973 80.5944 29.9913C80.4863 29.7469 80.3802 29.5005 80.2681 29.2562C80.162 29.0218 80.0819 28.7734 79.9418 28.5411C79.8857 28.5351 79.8297 28.521 79.7736 28.521C78.8328 28.521 77.89 28.521 76.9491 28.521C76.8831 28.521 76.817 28.5331 76.745 28.5411L76.747 28.5431ZM78.3564 24.8675C78.3344 24.8815 78.3103 24.8875 78.3043 24.9015C77.932 25.7628 77.5617 26.6262 77.1934 27.4895C77.1833 27.5135 77.1934 27.5456 77.1934 27.5876C77.2354 27.5956 77.2814 27.6137 77.3255 27.6137C78.0161 27.6137 78.7067 27.6137 79.3953 27.6137C79.4393 27.6137 79.4814 27.5956 79.5254 27.5856C79.4674 27.3533 78.6867 25.4924 78.4104 24.9235C78.4004 24.9015 78.3744 24.8855 78.3584 24.8675H78.3564Z" fill="#F9FAFB"/>
<path d="M130.215 24.1059C130.103 24.4124 129.994 24.6968 129.852 24.9813C129.752 24.9352 129.666 24.8951 129.582 24.8551C128.988 24.5686 128.363 24.4585 127.706 24.5266C127.484 24.5506 127.272 24.6047 127.08 24.7249C126.902 24.8351 126.778 24.9893 126.724 25.1956C126.653 25.464 126.724 25.6904 126.934 25.8686C127.09 26.0008 127.274 26.085 127.468 26.1411C127.706 26.2112 127.949 26.2713 128.189 26.3374C128.539 26.4355 128.893 26.5256 129.242 26.6338C129.558 26.732 129.836 26.8982 130.076 27.1286C130.333 27.3749 130.463 27.6794 130.489 28.0239C130.543 28.7871 130.233 29.364 129.56 29.7406C129.264 29.9068 128.943 30.009 128.609 30.055C127.776 30.1692 126.964 30.0891 126.175 29.7826C125.959 29.6985 125.753 29.5983 125.564 29.4621C125.518 29.4301 125.478 29.388 125.442 29.356C125.496 29.1216 125.695 28.6709 125.833 28.4706C125.879 28.4987 125.927 28.5267 125.975 28.5567C126.535 28.9213 127.156 29.1016 127.818 29.1416C128.107 29.1577 128.393 29.1236 128.673 29.0455C128.841 28.9974 128.992 28.9173 129.124 28.7991C129.398 28.5487 129.456 28.078 129.096 27.7916C128.941 27.6694 128.771 27.5873 128.585 27.5332C128.299 27.4511 128.011 27.3789 127.724 27.2988C127.384 27.2027 127.042 27.1065 126.704 26.9984C126.415 26.9062 126.167 26.744 125.953 26.5296C125.765 26.3414 125.637 26.121 125.587 25.8566C125.538 25.6002 125.53 25.3378 125.581 25.0834C125.661 24.6728 125.875 24.3383 126.207 24.0799C126.501 23.8516 126.836 23.7053 127.196 23.6332C128.013 23.473 128.819 23.515 129.608 23.7935C129.816 23.8676 130.018 23.9497 130.215 24.1079V24.1059Z" fill="#F9FAFB"/>
<path d="M94.1831 24.6234C94.051 24.6173 93.9469 24.6113 93.8428 24.6113C93.3624 24.6113 92.884 24.6113 92.4036 24.6113C92.3095 24.6113 92.2114 24.6254 92.1233 24.5813C92.0693 24.361 92.0673 23.9083 92.1233 23.6519C92.1914 23.6459 92.2634 23.6318 92.3375 23.6318C92.894 23.6318 93.4505 23.6318 94.007 23.6318C95.0439 23.6318 96.0808 23.6318 97.1157 23.6318H97.44C97.46 23.6879 97.4881 23.73 97.4881 23.7741C97.4921 24.0044 97.4901 24.2348 97.4881 24.4651C97.4881 24.5012 97.472 24.5372 97.462 24.5773C97.3559 24.6274 97.2498 24.6133 97.1478 24.6133C96.6773 24.6133 96.2069 24.6133 95.7365 24.6133C95.6324 24.6133 95.5263 24.5973 95.4062 24.6494C95.3982 24.6955 95.3822 24.7495 95.3782 24.8036C95.3722 24.8898 95.3762 24.9759 95.3762 25.062C95.3762 26.5984 95.3762 28.1347 95.3762 29.6711C95.3762 29.7752 95.3942 29.8814 95.3522 29.9775C95.112 30.0276 94.4574 30.0256 94.2252 29.9735C94.1931 29.8774 94.2052 29.7712 94.2052 29.6671C94.2052 28.2649 94.2052 26.8628 94.2052 25.4606C94.2052 25.2583 94.2052 25.058 94.2052 24.8557C94.2052 24.7896 94.1952 24.7235 94.1851 24.6254L94.1831 24.6234Z" fill="#F9FAFB"/>
<path d="M47.77 27.0225C47.73 26.8903 47.74 26.7762 47.756 26.646C47.806 26.6319 47.8581 26.6119 47.9121 26.6059C47.9782 26.5979 48.0462 26.6039 48.1143 26.6039C53.387 26.6039 58.6616 26.6039 63.9343 26.6039C64.0464 26.6039 64.1625 26.5859 64.2826 26.6339C64.3246 26.7561 64.3026 26.8783 64.2986 27.0105C64.2305 27.0265 64.1765 27.0426 64.1224 27.0486C64.0564 27.0546 63.9883 27.0506 63.9202 27.0506C58.6556 27.0506 53.393 27.0506 48.1283 27.0506C48.0142 27.0506 47.8981 27.0666 47.768 27.0225H47.77Z" fill="#F9FAFB"/>
<path d="M150.48 26.6321C150.506 26.7603 150.506 26.8825 150.48 27.0167C150.426 27.0267 150.372 27.0427 150.318 27.0467C150.26 27.0527 150.202 27.0467 150.146 27.0467C144.873 27.0467 139.601 27.0467 134.326 27.0467C134.214 27.0467 134.096 27.0708 133.984 27.0127C133.938 26.8925 133.948 26.7703 133.978 26.6341C134.032 26.6241 134.086 26.6081 134.14 26.6041C134.206 26.5981 134.274 26.6041 134.342 26.6041C139.587 26.6041 144.831 26.6041 150.076 26.6041C150.208 26.6041 150.342 26.586 150.482 26.6321H150.48Z" fill="#F9FAFB"/>
</svg>