<svg width="635" height="427" viewBox="0 0 635 427" fill="none" xmlns="http://www.w3.org/2000/svg">
<line x1="0.423706" y1="148.082" x2="505.424" y2="148.082" stroke="url(#paint0_linear_19_283)" stroke-opacity="0.3"/>
<line x1="0.423706" y1="39.3156" x2="505.424" y2="39.3156" stroke="url(#paint1_linear_19_283)" stroke-opacity="0.3"/>
<line x1="0.423706" y1="256.847" x2="505.424" y2="256.847" stroke="url(#paint2_linear_19_283)" stroke-opacity="0.3"/>
<line x1="0.423706" y1="365.613" x2="505.424" y2="365.613" stroke="url(#paint3_linear_19_283)" stroke-opacity="0.3"/>
<path d="M37.6859 365.015H304.51L357.906 106.888L411.302 65.6475L464.245 39.8156" stroke="#17AB52" stroke-width="3"/>
<path d="M45.0111 364.975C45.0111 369.026 41.7304 372.308 37.6859 372.308C33.6414 372.308 30.3606 369.026 30.3606 364.975C30.3606 360.925 33.6414 357.643 37.6859 357.643C41.7304 357.643 45.0111 360.925 45.0111 364.975Z" fill="white" stroke="#17AB52" stroke-width="3"/>
<path d="M98.0258 364.975C98.0258 369.026 94.745 372.308 90.7005 372.308C86.6561 372.308 83.3753 369.026 83.3753 364.975C83.3753 360.925 86.6561 357.643 90.7005 357.643C94.745 357.643 98.0258 360.925 98.0258 364.975Z" fill="white" stroke="#17AB52" stroke-width="3"/>
<path d="M151.422 364.975C151.422 369.026 148.141 372.308 144.097 372.308C140.052 372.308 136.771 369.026 136.771 364.975C136.771 360.925 140.052 357.643 144.097 357.643C148.141 357.643 151.422 360.925 151.422 364.975Z" fill="white" stroke="#17AB52" stroke-width="3"/>
<path d="M365.006 106.656C365.006 110.707 361.725 113.989 357.681 113.989C353.636 113.989 350.356 110.707 350.356 106.656C350.356 102.606 353.636 99.3241 357.681 99.3241C361.725 99.3241 365.006 102.606 365.006 106.656Z" fill="white" stroke="#17AB52" stroke-width="3"/>
<path d="M204.818 364.975C204.818 369.026 201.537 372.308 197.493 372.308C193.448 372.308 190.167 369.026 190.167 364.975C190.167 360.925 193.448 357.643 197.493 357.643C201.537 357.643 204.818 360.925 204.818 364.975Z" fill="white" stroke="#17AB52" stroke-width="3"/>
<path d="M258.214 364.975C258.214 369.026 254.933 372.308 250.889 372.308C246.844 372.308 243.563 369.026 243.563 364.975C243.563 360.925 246.844 357.643 250.889 357.643C254.933 357.643 258.214 360.925 258.214 364.975Z" fill="white" stroke="#17AB52" stroke-width="3"/>
<path d="M311.61 364.975C311.61 369.026 308.329 372.308 304.285 372.308C300.24 372.308 296.96 369.026 296.96 364.975C296.96 360.925 300.24 357.643 304.285 357.643C308.329 357.643 311.61 360.925 311.61 364.975Z" fill="white" stroke="#17AB52" stroke-width="3"/>
<path d="M418.402 65.8691C418.402 69.9198 415.121 73.2014 411.077 73.2014C407.032 73.2014 403.752 69.9198 403.752 65.8691C403.752 61.8185 407.032 58.5369 411.077 58.5369C415.121 58.5369 418.402 61.8185 418.402 65.8691Z" fill="white" stroke="#17AB52" stroke-width="3"/>
<path d="M471.798 39.584C471.798 43.6346 468.517 46.9163 464.473 46.9163C460.428 46.9163 457.148 43.6346 457.148 39.584C457.148 35.5334 460.428 32.2517 464.473 32.2517C468.517 32.2517 471.798 35.5334 471.798 39.584Z" fill="white" stroke="#17AB52" stroke-width="3"/>
<path d="M36.6244 302.213L90.473 279.101L144.322 302.213L197.265 311.73H250.661L304.057 319.435L357.906 347.986H411.302H462.888" stroke="#D62687" stroke-width="3"/>
<path d="M44.6297 302.435C44.6297 306.486 41.349 309.767 37.3045 309.767C33.26 309.767 29.9792 306.486 29.9792 302.435C29.9792 298.384 33.26 295.103 37.3045 295.103C41.349 295.103 44.6297 298.384 44.6297 302.435Z" fill="white" stroke="#D62687" stroke-width="3"/>
<path d="M98.0258 279.776C98.0258 283.826 94.745 287.108 90.7005 287.108C86.6561 287.108 83.3753 283.826 83.3753 279.776C83.3753 275.725 86.6561 272.443 90.7005 272.443C94.745 272.443 98.0258 275.725 98.0258 279.776Z" fill="white" stroke="#D62687" stroke-width="3"/>
<path d="M151.422 302.435C151.422 306.486 148.141 309.767 144.097 309.767C140.052 309.767 136.771 306.486 136.771 302.435C136.771 298.384 140.052 295.103 144.097 295.103C148.141 295.103 151.422 298.384 151.422 302.435Z" fill="white" stroke="#D62687" stroke-width="3"/>
<path d="M365.006 347.754C365.006 351.805 361.725 355.087 357.681 355.087C353.636 355.087 350.356 351.805 350.356 347.754C350.356 343.704 353.636 340.422 357.681 340.422C361.725 340.422 365.006 343.704 365.006 347.754Z" fill="white" stroke="#D62687" stroke-width="3"/>
<path d="M204.818 310.593C204.818 314.643 201.537 317.925 197.493 317.925C193.448 317.925 190.167 314.643 190.167 310.593C190.167 306.542 193.448 303.26 197.493 303.26C201.537 303.26 204.818 306.542 204.818 310.593Z" fill="white" stroke="#D62687" stroke-width="3"/>
<path d="M258.214 311.499C258.214 315.55 254.933 318.831 250.889 318.831C246.844 318.831 243.563 315.55 243.563 311.499C243.563 307.448 246.844 304.167 250.889 304.167C254.933 304.167 258.214 307.448 258.214 311.499Z" fill="white" stroke="#D62687" stroke-width="3"/>
<path d="M311.61 319.656C311.61 323.707 308.329 326.989 304.285 326.989C300.24 326.989 296.959 323.707 296.959 319.656C296.959 315.606 300.24 312.324 304.285 312.324C308.329 312.324 311.61 315.606 311.61 319.656Z" fill="white" stroke="#D62687" stroke-width="3"/>
<path d="M418.402 347.754C418.402 351.805 415.121 355.087 411.077 355.087C407.032 355.087 403.752 351.805 403.752 347.754C403.752 343.704 407.032 340.422 411.077 340.422C415.121 340.422 418.402 343.704 418.402 347.754Z" fill="white" stroke="#D62687" stroke-width="3"/>
<path d="M471.798 347.754C471.798 351.805 468.517 355.087 464.473 355.087C460.428 355.087 457.148 351.805 457.148 347.754C457.148 343.704 460.428 340.422 464.473 340.422C468.517 340.422 471.798 343.704 471.798 347.754Z" fill="white" stroke="#D62687" stroke-width="3"/>
<path d="M162.176 420.556V409.578H158.195V407.873H168.126V409.578H164.154V420.556H162.176ZM170.856 420.714C170.252 420.714 169.71 420.6 169.23 420.371C168.755 420.137 168.38 419.806 168.105 419.378C167.835 418.95 167.701 418.449 167.701 417.875V417.858C167.701 417.289 167.838 416.803 168.114 416.399C168.389 415.989 168.791 415.669 169.318 415.441C169.851 415.206 170.496 415.069 171.251 415.028L174.776 414.817V416.161L171.515 416.372C170.859 416.407 170.375 416.545 170.065 416.785C169.76 417.026 169.608 417.357 169.608 417.779V417.796C169.608 418.236 169.772 418.578 170.1 418.824C170.434 419.071 170.859 419.194 171.375 419.194C171.849 419.194 172.271 419.1 172.64 418.912C173.009 418.719 173.299 418.461 173.51 418.139C173.721 417.811 173.827 417.442 173.827 417.031V414.043C173.827 413.516 173.663 413.115 173.334 412.839C173.012 412.558 172.532 412.417 171.893 412.417C171.36 412.417 170.926 412.511 170.592 412.698C170.258 412.886 170.033 413.15 169.916 413.49L169.907 413.525H168.07L168.079 413.454C168.155 412.933 168.363 412.476 168.703 412.083C169.042 411.691 169.491 411.386 170.047 411.169C170.604 410.947 171.246 410.835 171.972 410.835C172.775 410.835 173.455 410.964 174.011 411.222C174.574 411.474 174.999 411.84 175.286 412.321C175.579 412.795 175.725 413.366 175.725 414.034V420.556H173.827V419.194H173.686C173.499 419.516 173.264 419.791 172.983 420.02C172.708 420.248 172.388 420.421 172.025 420.538C171.667 420.656 171.278 420.714 170.856 420.714ZM178.156 420.556V411.02H180.072V420.556H178.156ZM179.123 409.332C178.794 409.332 178.513 409.215 178.279 408.981C178.044 408.746 177.927 408.468 177.927 408.146C177.927 407.818 178.044 407.539 178.279 407.311C178.513 407.076 178.794 406.959 179.123 406.959C179.451 406.959 179.732 407.076 179.966 407.311C180.201 407.539 180.318 407.818 180.318 408.146C180.318 408.468 180.201 408.746 179.966 408.981C179.732 409.215 179.451 409.332 179.123 409.332ZM182.643 420.556V407.293H184.55V420.556H182.643ZM188.932 420.556L186.313 411.02H188.229L189.934 418.385H190.075L192.035 411.02H193.854L195.823 418.385H195.963L197.668 411.02H199.567L196.939 420.556H194.97L192.993 413.446H192.852L190.892 420.556H188.932ZM201.259 420.556V411.02H203.175V420.556H201.259ZM202.226 409.332C201.898 409.332 201.617 409.215 201.382 408.981C201.148 408.746 201.031 408.468 201.031 408.146C201.031 407.818 201.148 407.539 201.382 407.311C201.617 407.076 201.898 406.959 202.226 406.959C202.554 406.959 202.835 407.076 203.07 407.311C203.304 407.539 203.421 407.818 203.421 408.146C203.421 408.468 203.304 408.746 203.07 408.981C202.835 409.215 202.554 409.332 202.226 409.332ZM205.659 420.556V411.02H207.566V412.47H207.707C207.941 411.96 208.287 411.562 208.744 411.275C209.207 410.982 209.784 410.835 210.475 410.835C211.547 410.835 212.368 411.143 212.936 411.758C213.504 412.373 213.789 413.249 213.789 414.386V420.556H211.873V414.825C211.873 414.04 211.706 413.454 211.372 413.068C211.043 412.675 210.528 412.479 209.825 412.479C209.362 412.479 208.96 412.581 208.621 412.786C208.287 412.986 208.026 413.27 207.838 413.639C207.657 414.008 207.566 414.45 207.566 414.966V420.556H205.659ZM219.647 420.723C218.844 420.723 218.147 420.521 217.555 420.116C216.963 419.712 216.503 419.141 216.175 418.403C215.853 417.664 215.692 416.797 215.692 415.801V415.783C215.692 414.776 215.853 413.906 216.175 413.173C216.498 412.435 216.955 411.866 217.546 411.468C218.138 411.064 218.838 410.862 219.647 410.862C220.081 410.862 220.488 410.932 220.869 411.073C221.25 411.207 221.586 411.401 221.879 411.653C222.178 411.899 222.41 412.195 222.574 412.54H222.714V407.293H224.63V420.556H222.714V419.044H222.574C222.392 419.396 222.158 419.698 221.871 419.949C221.583 420.196 221.252 420.386 220.877 420.521C220.502 420.656 220.092 420.723 219.647 420.723ZM220.183 419.079C220.71 419.079 221.165 418.948 221.545 418.684C221.932 418.42 222.228 418.042 222.433 417.55C222.644 417.058 222.75 416.475 222.75 415.801V415.783C222.75 415.104 222.644 414.521 222.433 414.034C222.228 413.542 221.932 413.164 221.545 412.901C221.165 412.631 220.71 412.496 220.183 412.496C219.656 412.496 219.202 412.628 218.821 412.892C218.44 413.156 218.147 413.533 217.942 414.026C217.743 414.512 217.643 415.098 217.643 415.783V415.801C217.643 416.475 217.743 417.058 217.942 417.55C218.147 418.042 218.44 418.42 218.821 418.684C219.202 418.948 219.656 419.079 220.183 419.079ZM237.2 420.864C236.022 420.864 235.002 420.594 234.141 420.055C233.286 419.516 232.626 418.751 232.164 417.761C231.701 416.765 231.469 415.587 231.469 414.228V414.21C231.469 412.839 231.701 411.658 232.164 410.668C232.626 409.678 233.286 408.913 234.141 408.374C234.997 407.835 236.016 407.566 237.2 407.566C238.131 407.566 238.972 407.75 239.722 408.119C240.478 408.483 241.096 408.987 241.577 409.631C242.063 410.276 242.359 411.017 242.464 411.855V411.907H240.513L240.496 411.872C240.373 411.351 240.156 410.9 239.845 410.519C239.541 410.138 239.163 409.842 238.711 409.631C238.26 409.42 237.756 409.315 237.2 409.315C236.444 409.315 235.788 409.514 235.231 409.912C234.674 410.311 234.244 410.876 233.939 411.609C233.64 412.335 233.491 413.202 233.491 414.21V414.228C233.491 415.224 233.64 416.088 233.939 416.821C234.244 417.553 234.674 418.118 235.231 418.517C235.788 418.915 236.447 419.115 237.208 419.115C237.765 419.115 238.269 419.021 238.72 418.833C239.177 418.64 239.558 418.37 239.863 418.025C240.167 417.673 240.378 417.26 240.496 416.785L240.513 416.741H242.473V416.794C242.344 417.609 242.042 418.321 241.568 418.93C241.093 419.539 240.484 420.014 239.74 420.354C238.996 420.694 238.149 420.864 237.2 420.864ZM249.052 420.864C248.097 420.864 247.265 420.711 246.556 420.406C245.847 420.102 245.288 419.683 244.877 419.15C244.467 418.611 244.233 417.984 244.174 417.269L244.166 417.163H246.108L246.117 417.251C246.158 417.638 246.307 417.972 246.565 418.253C246.829 418.534 247.18 418.754 247.62 418.912C248.065 419.065 248.572 419.141 249.14 419.141C249.679 419.141 250.154 419.059 250.564 418.895C250.98 418.725 251.305 418.49 251.54 418.192C251.78 417.893 251.9 417.55 251.9 417.163V417.155C251.9 416.662 251.715 416.258 251.346 415.942C250.977 415.619 250.374 415.367 249.536 415.186L248.147 414.896C246.864 414.615 245.929 414.175 245.343 413.577C244.757 412.98 244.464 412.215 244.464 411.283V411.275C244.47 410.542 244.667 409.898 245.053 409.341C245.446 408.784 245.988 408.351 246.679 408.04C247.371 407.724 248.165 407.566 249.061 407.566C249.958 407.566 250.74 407.721 251.408 408.031C252.082 408.336 252.612 408.752 252.999 409.28C253.391 409.807 253.611 410.402 253.658 411.064L253.667 411.187H251.742L251.724 411.073C251.671 410.721 251.528 410.413 251.293 410.15C251.065 409.88 250.757 409.669 250.371 409.517C249.99 409.359 249.544 409.282 249.035 409.288C248.542 409.288 248.103 409.365 247.716 409.517C247.33 409.663 247.022 409.877 246.793 410.158C246.571 410.434 246.459 410.771 246.459 411.169V411.178C246.459 411.653 246.638 412.048 246.996 412.365C247.359 412.675 247.948 412.915 248.762 413.085L250.151 413.393C251.036 413.58 251.753 413.829 252.304 414.14C252.855 414.45 253.256 414.834 253.508 415.291C253.766 415.742 253.895 416.284 253.895 416.917V416.926C253.895 417.729 253.696 418.426 253.297 419.018C252.905 419.604 252.345 420.058 251.619 420.38C250.898 420.702 250.042 420.864 249.052 420.864ZM260.492 420.864C259.537 420.864 258.705 420.711 257.996 420.406C257.287 420.102 256.727 419.683 256.317 419.15C255.907 418.611 255.672 417.984 255.614 417.269L255.605 417.163H257.547L257.556 417.251C257.597 417.638 257.747 417.972 258.004 418.253C258.268 418.534 258.62 418.754 259.059 418.912C259.504 419.065 260.011 419.141 260.58 419.141C261.119 419.141 261.593 419.059 262.003 418.895C262.419 418.725 262.745 418.49 262.979 418.192C263.219 417.893 263.339 417.55 263.339 417.163V417.155C263.339 416.662 263.155 416.258 262.786 415.942C262.417 415.619 261.813 415.367 260.975 415.186L259.586 414.896C258.303 414.615 257.369 414.175 256.783 413.577C256.197 412.98 255.904 412.215 255.904 411.283V411.275C255.91 410.542 256.106 409.898 256.493 409.341C256.885 408.784 257.427 408.351 258.119 408.04C258.81 407.724 259.604 407.566 260.5 407.566C261.397 407.566 262.179 407.721 262.847 408.031C263.521 408.336 264.051 408.752 264.438 409.28C264.831 409.807 265.05 410.402 265.097 411.064L265.106 411.187H263.181L263.164 411.073C263.111 410.721 262.967 410.413 262.733 410.15C262.504 409.88 262.197 409.669 261.81 409.517C261.429 409.359 260.984 409.282 260.474 409.288C259.982 409.288 259.542 409.365 259.156 409.517C258.769 409.663 258.461 409.877 258.233 410.158C258.01 410.434 257.899 410.771 257.899 411.169V411.178C257.899 411.653 258.078 412.048 258.435 412.365C258.798 412.675 259.387 412.915 260.202 413.085L261.59 413.393C262.475 413.58 263.193 413.829 263.744 414.14C264.294 414.45 264.696 414.834 264.948 415.291C265.206 415.742 265.334 416.284 265.334 416.917V416.926C265.334 417.729 265.135 418.426 264.737 419.018C264.344 419.604 263.785 420.058 263.058 420.38C262.337 420.702 261.482 420.864 260.492 420.864Z" fill="black"/>
<path d="M144.817 414.083C144.817 417.05 142.414 419.453 139.453 419.453C136.492 419.453 134.089 417.05 134.089 414.083C134.089 411.117 136.492 408.714 139.453 408.714C142.414 408.714 144.817 411.117 144.817 414.083Z" fill="#17AB52" stroke="#17AB52" stroke-width="3"/>
<path d="M324.132 420.556V418.948H327.955C328.846 418.948 329.519 418.769 329.976 418.411C330.433 418.054 330.662 417.535 330.662 416.856V416.838C330.662 416.387 330.556 416.009 330.346 415.704C330.135 415.394 329.818 415.162 329.396 415.01C328.98 414.852 328.462 414.773 327.841 414.773H324.132V413.27H327.445C328.318 413.27 328.977 413.109 329.423 412.786C329.868 412.464 330.091 411.995 330.091 411.38V411.363C330.091 410.771 329.888 410.311 329.484 409.983C329.08 409.649 328.514 409.482 327.788 409.482H324.132V407.873H328.245C329.042 407.873 329.724 408.002 330.293 408.26C330.861 408.518 331.298 408.884 331.602 409.359C331.907 409.827 332.059 410.384 332.059 411.029V411.046C332.059 411.491 331.96 411.907 331.761 412.294C331.561 412.681 331.295 413.006 330.961 413.27C330.627 413.528 330.249 413.692 329.827 413.762V413.911C330.401 413.97 330.902 414.137 331.33 414.412C331.758 414.688 332.092 415.045 332.332 415.485C332.572 415.918 332.692 416.41 332.692 416.961V416.979C332.692 417.717 332.516 418.356 332.165 418.895C331.819 419.428 331.324 419.838 330.68 420.125C330.035 420.412 329.262 420.556 328.359 420.556H324.132ZM323.147 420.556V407.873H325.116V420.556H323.147ZM334.921 420.556V407.873H342.971V409.578H336.889V413.279H342.646V414.913H336.889V418.851H342.971V420.556H334.921ZM345.534 420.556V407.873H347.81L351.845 417.981H351.985L356.028 407.873H358.305V420.556H356.503V411.257H355.536L357.584 408.225L352.644 420.556H351.185L346.255 408.225L348.294 411.257H347.336V420.556H345.534ZM371.006 420.864C369.828 420.864 368.808 420.594 367.947 420.055C367.092 419.516 366.432 418.751 365.97 417.761C365.507 416.765 365.275 415.587 365.275 414.228V414.21C365.275 412.839 365.507 411.658 365.97 410.668C366.432 409.678 367.092 408.913 367.947 408.374C368.803 407.835 369.822 407.566 371.006 407.566C371.937 407.566 372.778 407.75 373.528 408.119C374.284 408.483 374.902 408.987 375.383 409.631C375.869 410.276 376.165 411.017 376.27 411.855V411.907H374.319L374.302 411.872C374.179 411.351 373.962 410.9 373.651 410.519C373.346 410.138 372.969 409.842 372.517 409.631C372.066 409.42 371.562 409.315 371.006 409.315C370.25 409.315 369.594 409.514 369.037 409.912C368.48 410.311 368.05 410.876 367.745 411.609C367.446 412.335 367.297 413.202 367.297 414.21V414.228C367.297 415.224 367.446 416.088 367.745 416.821C368.05 417.553 368.48 418.118 369.037 418.517C369.594 418.915 370.253 419.115 371.014 419.115C371.571 419.115 372.075 419.021 372.526 418.833C372.983 418.64 373.364 418.37 373.669 418.025C373.973 417.673 374.184 417.26 374.302 416.785L374.319 416.741H376.279V416.794C376.15 417.609 375.848 418.321 375.374 418.93C374.899 419.539 374.29 420.014 373.546 420.354C372.802 420.694 371.955 420.864 371.006 420.864ZM382.858 420.864C381.903 420.864 381.071 420.711 380.362 420.406C379.653 420.102 379.094 419.683 378.683 419.15C378.273 418.611 378.039 417.984 377.98 417.269L377.971 417.163H379.914L379.923 417.251C379.964 417.638 380.113 417.972 380.371 418.253C380.635 418.534 380.986 418.754 381.426 418.912C381.871 419.065 382.378 419.141 382.946 419.141C383.485 419.141 383.96 419.059 384.37 418.895C384.786 418.725 385.111 418.49 385.346 418.192C385.586 417.893 385.706 417.55 385.706 417.163V417.155C385.706 416.662 385.521 416.258 385.152 415.942C384.783 415.619 384.18 415.367 383.342 415.186L381.953 414.896C380.67 414.615 379.735 414.175 379.149 413.577C378.563 412.98 378.27 412.215 378.27 411.283V411.275C378.276 410.542 378.472 409.898 378.859 409.341C379.252 408.784 379.794 408.351 380.485 408.04C381.177 407.724 381.971 407.566 382.867 407.566C383.763 407.566 384.546 407.721 385.214 408.031C385.888 408.336 386.418 408.752 386.805 409.28C387.197 409.807 387.417 410.402 387.464 411.064L387.472 411.187H385.548L385.53 411.073C385.477 410.721 385.334 410.413 385.099 410.15C384.871 409.88 384.563 409.669 384.177 409.517C383.796 409.359 383.35 409.282 382.841 409.288C382.348 409.288 381.909 409.365 381.522 409.517C381.136 409.663 380.828 409.877 380.599 410.158C380.377 410.434 380.265 410.771 380.265 411.169V411.178C380.265 411.653 380.444 412.048 380.802 412.365C381.165 412.675 381.754 412.915 382.568 413.085L383.957 413.393C384.842 413.58 385.559 413.829 386.11 414.14C386.661 414.45 387.062 414.834 387.314 415.291C387.572 415.742 387.701 416.284 387.701 416.917V416.926C387.701 417.729 387.502 418.426 387.103 419.018C386.711 419.604 386.151 420.058 385.425 420.38C384.704 420.702 383.848 420.864 382.858 420.864ZM394.298 420.864C393.343 420.864 392.511 420.711 391.802 420.406C391.093 420.102 390.533 419.683 390.123 419.15C389.713 418.611 389.478 417.984 389.42 417.269L389.411 417.163H391.353L391.362 417.251C391.403 417.638 391.553 417.972 391.81 418.253C392.074 418.534 392.426 418.754 392.865 418.912C393.31 419.065 393.817 419.141 394.386 419.141C394.925 419.141 395.399 419.059 395.809 418.895C396.225 418.725 396.551 418.49 396.785 418.192C397.025 417.893 397.145 417.55 397.145 417.163V417.155C397.145 416.662 396.961 416.258 396.592 415.942C396.222 415.619 395.619 415.367 394.781 415.186L393.392 414.896C392.109 414.615 391.175 414.175 390.589 413.577C390.003 412.98 389.71 412.215 389.71 411.283V411.275C389.716 410.542 389.912 409.898 390.299 409.341C390.691 408.784 391.233 408.351 391.925 408.04C392.616 407.724 393.41 407.566 394.306 407.566C395.203 407.566 395.985 407.721 396.653 408.031C397.327 408.336 397.857 408.752 398.244 409.28C398.637 409.807 398.856 410.402 398.903 411.064L398.912 411.187H396.987L396.97 411.073C396.917 410.721 396.773 410.413 396.539 410.15C396.31 409.88 396.003 409.669 395.616 409.517C395.235 409.359 394.79 409.282 394.28 409.288C393.788 409.288 393.348 409.365 392.962 409.517C392.575 409.663 392.267 409.877 392.039 410.158C391.816 410.434 391.705 410.771 391.705 411.169V411.178C391.705 411.653 391.884 412.048 392.241 412.365C392.604 412.675 393.193 412.915 394.008 413.085L395.396 413.393C396.281 413.58 396.999 413.829 397.55 414.14C398.1 414.45 398.502 414.834 398.754 415.291C399.012 415.742 399.14 416.284 399.14 416.917V416.926C399.14 417.729 398.941 418.426 398.543 419.018C398.15 419.604 397.591 420.058 396.864 420.38C396.143 420.702 395.288 420.864 394.298 420.864Z" fill="black"/>
<path d="M308.996 414.083C308.996 417.05 306.593 419.453 303.632 419.453C300.671 419.453 298.268 417.05 298.268 414.083C298.268 411.117 300.671 408.714 303.632 408.714C306.593 408.714 308.996 411.117 308.996 414.083Z" fill="#C4147D" stroke="#D62687" stroke-width="3"/>
<g filter="url(#filter0_dd_19_283)">
<g clip-path="url(#clip0_19_283)">
<rect width="200" height="40" transform="translate(382.424 64.8411)" fill="white"/>
<rect x="390.424" y="72.8411" width="184" height="24" rx="4" fill="#F5F7FB"/>
<circle cx="400.424" cy="84.8411" r="4.5" fill="#17AB52" stroke="#17AB52" stroke-width="3"/>
<path d="M420.245 89.8411V81.0842H417.066V79.9768H424.654V81.0842H421.475V89.8411H420.245ZM426.992 89.9709C426.527 89.9709 426.108 89.8821 425.734 89.7043C425.365 89.5266 425.071 89.2737 424.852 88.9456C424.638 88.6174 424.531 88.2301 424.531 87.7834V87.7698C424.531 87.3323 424.636 86.9586 424.846 86.6487C425.055 86.3342 425.361 86.0881 425.762 85.9104C426.163 85.7327 426.648 85.6278 427.218 85.5959L429.925 85.4319V86.3821L427.361 86.5461C426.801 86.578 426.391 86.6943 426.131 86.8948C425.876 87.0953 425.748 87.3778 425.748 87.7424V87.7561C425.748 88.1298 425.889 88.4215 426.172 88.6311C426.454 88.8362 426.81 88.9387 427.238 88.9387C427.644 88.9387 428.004 88.859 428.318 88.6995C428.633 88.5354 428.879 88.3144 429.057 88.0364C429.239 87.7584 429.33 87.4439 429.33 87.093V84.7961C429.33 84.3404 429.191 83.9941 428.913 83.7571C428.64 83.5155 428.227 83.3948 427.676 83.3948C427.234 83.3948 426.871 83.4745 426.589 83.634C426.306 83.789 426.117 84.01 426.021 84.2971L426.015 84.3176H424.825L424.832 84.2766C424.896 83.8892 425.055 83.552 425.31 83.2649C425.57 82.9732 425.905 82.7476 426.315 82.5881C426.725 82.4241 427.193 82.342 427.717 82.342C428.318 82.342 428.826 82.44 429.241 82.636C429.66 82.8319 429.977 83.1145 430.191 83.4836C430.41 83.8482 430.519 84.2857 430.519 84.7961V89.8411H429.33V88.7542H429.221C429.066 89.0139 428.877 89.2349 428.653 89.4172C428.434 89.5995 428.186 89.7385 427.908 89.8342C427.63 89.9254 427.325 89.9709 426.992 89.9709ZM432.721 89.8411V82.4719H433.91V89.8411H432.721ZM433.322 81.05C433.099 81.05 432.905 80.9703 432.741 80.8108C432.582 80.6467 432.502 80.453 432.502 80.2297C432.502 80.0019 432.582 79.8082 432.741 79.6487C432.905 79.4892 433.099 79.4094 433.322 79.4094C433.55 79.4094 433.744 79.4892 433.903 79.6487C434.063 79.8082 434.142 80.0019 434.142 80.2297C434.142 80.453 434.063 80.6467 433.903 80.8108C433.744 80.9703 433.55 81.05 433.322 81.05ZM436.221 89.8411V79.5461H437.41V89.8411H436.221ZM441.115 89.8411L439.051 82.4719H440.24L441.689 88.3645H441.799L443.446 82.4719H444.574L446.222 88.3645H446.331L447.78 82.4719H448.963L446.898 89.8411H445.702L444.055 84.1399H443.945L442.305 89.8411H441.115ZM450.562 89.8411V82.4719H451.752V89.8411H450.562ZM451.164 81.05C450.941 81.05 450.747 80.9703 450.583 80.8108C450.423 80.6467 450.344 80.453 450.344 80.2297C450.344 80.0019 450.423 79.8082 450.583 79.6487C450.747 79.4892 450.941 79.4094 451.164 79.4094C451.392 79.4094 451.585 79.4892 451.745 79.6487C451.905 79.8082 451.984 80.0019 451.984 80.2297C451.984 80.453 451.905 80.6467 451.745 80.8108C451.585 80.9703 451.392 81.05 451.164 81.05ZM453.994 89.8411V82.4719H455.183V83.5793H455.293C455.48 83.1874 455.749 82.8844 456.099 82.6702C456.45 82.4514 456.897 82.342 457.439 82.342C458.269 82.342 458.905 82.579 459.347 83.053C459.793 83.5224 460.016 84.1946 460.016 85.0696V89.8411H458.827V85.3567C458.827 84.6913 458.686 84.1991 458.403 83.8801C458.125 83.5566 457.692 83.3948 457.104 83.3948C456.712 83.3948 456.373 83.4791 456.086 83.6477C455.799 83.8163 455.575 84.0556 455.416 84.3655C455.261 84.6754 455.183 85.0468 455.183 85.4797V89.8411H453.994ZM464.891 89.9709C464.271 89.9709 463.728 89.8137 463.264 89.4993C462.799 89.1848 462.439 88.7428 462.183 88.1731C461.928 87.5989 461.801 86.929 461.801 86.1633V86.1497C461.801 85.3795 461.928 84.7096 462.183 84.1399C462.439 83.5702 462.796 83.1282 463.257 82.8137C463.722 82.4993 464.266 82.342 464.891 82.342C465.228 82.342 465.544 82.3967 465.841 82.5061C466.141 82.6109 466.408 82.759 466.641 82.9504C466.873 83.1418 467.055 83.3697 467.187 83.634H467.297V79.5461H468.486V89.8411H467.297V88.6653H467.187C467.037 88.9387 466.848 89.1734 466.62 89.3694C466.392 89.5608 466.132 89.7089 465.841 89.8137C465.549 89.9185 465.232 89.9709 464.891 89.9709ZM465.164 88.9182C465.611 88.9182 465.996 88.8066 466.319 88.5833C466.643 88.3599 466.891 88.0432 467.064 87.6331C467.238 87.2183 467.324 86.7284 467.324 86.1633V86.1497C467.324 85.58 467.238 85.0901 467.064 84.6799C466.891 84.2698 466.643 83.953 466.319 83.7297C465.996 83.5064 465.611 83.3948 465.164 83.3948C464.717 83.3948 464.332 83.5064 464.009 83.7297C463.69 83.9485 463.444 84.2629 463.27 84.6731C463.102 85.0833 463.017 85.5754 463.017 86.1497V86.1633C463.017 86.733 463.102 87.2252 463.27 87.6399C463.444 88.05 463.69 88.3668 464.009 88.5901C464.332 88.8088 464.717 88.9182 465.164 88.9182ZM478.829 90.0735C477.936 90.0735 477.163 89.8639 476.512 89.4446C475.86 89.0253 475.356 88.4306 475.001 87.6604C474.65 86.8902 474.474 85.9765 474.474 84.9192V84.9055C474.474 83.8437 474.65 82.9277 475.001 82.1575C475.356 81.3873 475.858 80.7926 476.505 80.3733C477.156 79.954 477.929 79.7444 478.822 79.7444C479.515 79.7444 480.144 79.8811 480.709 80.1545C481.279 80.4234 481.748 80.7994 482.117 81.2825C482.486 81.761 482.719 82.3147 482.814 82.9436L482.807 82.9573H481.57L481.563 82.9436C481.454 82.5198 481.269 82.1552 481.01 81.8499C480.75 81.54 480.433 81.3007 480.059 81.1321C479.69 80.9635 479.278 80.8792 478.822 80.8792C478.193 80.8792 477.646 81.0432 477.182 81.3713C476.721 81.6995 476.366 82.1643 476.115 82.7659C475.864 83.3674 475.739 84.0806 475.739 84.9055V84.9192C475.739 85.7395 475.864 86.4504 476.115 87.052C476.366 87.6536 476.721 88.1184 477.182 88.4465C477.646 88.7747 478.196 88.9387 478.829 88.9387C479.289 88.9387 479.706 88.8658 480.08 88.72C480.454 88.5696 480.768 88.3577 481.023 88.0842C481.279 87.8062 481.456 87.4781 481.557 87.0999L481.57 87.0862H482.814V87.0999C482.705 87.7014 482.468 88.2255 482.103 88.6721C481.739 89.1142 481.276 89.4583 480.716 89.7043C480.16 89.9504 479.531 90.0735 478.829 90.0735ZM488.112 90.0735C487.392 90.0735 486.763 89.9573 486.225 89.7249C485.692 89.4879 485.268 89.1643 484.954 88.7542C484.644 88.3394 484.464 87.8655 484.414 87.3323L484.407 87.2571H485.638L485.644 87.3323C485.676 87.6604 485.802 87.9452 486.02 88.1868C486.244 88.4237 486.54 88.6083 486.909 88.7405C487.283 88.8726 487.707 88.9387 488.181 88.9387C488.627 88.9387 489.024 88.8681 489.37 88.7268C489.721 88.581 489.997 88.3805 490.197 88.1252C490.398 87.87 490.498 87.5761 490.498 87.2434V87.2366C490.498 86.8264 490.348 86.4823 490.047 86.2043C489.746 85.9218 489.256 85.7053 488.577 85.5549L487.483 85.3157C486.494 85.0969 485.774 84.7597 485.323 84.304C484.877 83.8437 484.653 83.2558 484.653 82.5403V82.5334C484.658 81.9866 484.806 81.5035 485.098 81.0842C485.394 80.665 485.802 80.3368 486.321 80.0999C486.845 79.8629 487.447 79.7444 488.126 79.7444C488.782 79.7444 489.363 79.8629 489.869 80.0999C490.375 80.3323 490.776 80.6467 491.072 81.0432C491.373 81.4397 491.539 81.884 491.571 82.3762L491.578 82.4719H490.348L490.334 82.3831C490.288 82.0914 490.17 81.8339 489.978 81.6106C489.787 81.3827 489.532 81.2027 489.213 81.0706C488.894 80.9384 488.52 80.8746 488.092 80.8792C487.682 80.8792 487.312 80.943 486.984 81.0706C486.656 81.1982 486.394 81.3827 486.198 81.6243C486.007 81.8612 485.911 82.1529 485.911 82.4993V82.5061C485.911 82.898 486.057 83.2284 486.349 83.4973C486.64 83.7662 487.121 83.9736 487.791 84.1194L488.885 84.3655C489.573 84.5159 490.127 84.7118 490.546 84.9534C490.965 85.1949 491.27 85.4911 491.462 85.842C491.658 86.1884 491.756 86.5986 491.756 87.0725V87.0793C491.756 87.6946 491.605 88.2255 491.305 88.6721C491.004 89.1187 490.58 89.4651 490.033 89.7112C489.486 89.9527 488.846 90.0735 488.112 90.0735ZM497.04 90.0735C496.32 90.0735 495.691 89.9573 495.153 89.7249C494.62 89.4879 494.196 89.1643 493.882 88.7542C493.572 88.3394 493.392 87.8655 493.342 87.3323L493.335 87.2571H494.565L494.572 87.3323C494.604 87.6604 494.729 87.9452 494.948 88.1868C495.171 88.4237 495.468 88.6083 495.837 88.7405C496.21 88.8726 496.634 88.9387 497.108 88.9387C497.555 88.9387 497.951 88.8681 498.298 88.7268C498.649 88.581 498.924 88.3805 499.125 88.1252C499.325 87.87 499.426 87.5761 499.426 87.2434V87.2366C499.426 86.8264 499.275 86.4823 498.974 86.2043C498.674 85.9218 498.184 85.7053 497.505 85.5549L496.411 85.3157C495.422 85.0969 494.702 84.7597 494.251 84.304C493.804 83.8437 493.581 83.2558 493.581 82.5403V82.5334C493.585 81.9866 493.734 81.5035 494.025 81.0842C494.321 80.665 494.729 80.3368 495.249 80.0999C495.773 79.8629 496.375 79.7444 497.054 79.7444C497.71 79.7444 498.291 79.8629 498.797 80.0999C499.303 80.3323 499.704 80.6467 500 81.0432C500.301 81.4397 500.467 81.884 500.499 82.3762L500.506 82.4719H499.275L499.262 82.3831C499.216 82.0914 499.098 81.8339 498.906 81.6106C498.715 81.3827 498.46 81.2027 498.141 81.0706C497.821 80.9384 497.448 80.8746 497.019 80.8792C496.609 80.8792 496.24 80.943 495.912 81.0706C495.584 81.1982 495.322 81.3827 495.126 81.6243C494.934 81.8612 494.839 82.1529 494.839 82.4993V82.5061C494.839 82.898 494.985 83.2284 495.276 83.4973C495.568 83.7662 496.049 83.9736 496.719 84.1194L497.812 84.3655C498.501 84.5159 499.054 84.7118 499.474 84.9534C499.893 85.1949 500.198 85.4911 500.39 85.842C500.585 86.1884 500.683 86.5986 500.683 87.0725V87.0793C500.683 87.6946 500.533 88.2255 500.232 88.6721C499.932 89.1187 499.508 89.4651 498.961 89.7112C498.414 89.9527 497.774 90.0735 497.04 90.0735Z" fill="#343A4D"/>
<path d="M531.937 89.8411V81.344H531.828L529.319 83.1624V81.8635L531.944 79.9768H533.168V89.8411H531.937ZM536.654 89.9094C536.413 89.9094 536.203 89.8228 536.025 89.6497C535.852 89.4719 535.766 89.2623 535.766 89.0208C535.766 88.7747 535.852 88.565 536.025 88.3918C536.203 88.2187 536.413 88.1321 536.654 88.1321C536.9 88.1321 537.11 88.2187 537.283 88.3918C537.456 88.565 537.543 88.7747 537.543 89.0208C537.543 89.2623 537.456 89.4719 537.283 89.6497C537.11 89.8228 536.9 89.9094 536.654 89.9094ZM541.836 89.8411V81.344H541.726L539.218 83.1624V81.8635L541.843 79.9768H543.066V89.8411H541.836ZM549.219 90.0735C548.489 90.0735 547.865 89.8639 547.346 89.4446C546.831 89.0253 546.434 88.4306 546.156 87.6604C545.878 86.8857 545.739 85.9696 545.739 84.9124V84.8987C545.739 83.8414 545.878 82.9277 546.156 82.1575C546.434 81.3873 546.831 80.7926 547.346 80.3733C547.865 79.954 548.489 79.7444 549.219 79.7444C549.948 79.7444 550.572 79.954 551.092 80.3733C551.611 80.7926 552.01 81.3873 552.288 82.1575C552.571 82.9277 552.712 83.8414 552.712 84.8987V84.9124C552.712 85.9696 552.571 86.8857 552.288 87.6604C552.01 88.4306 551.611 89.0253 551.092 89.4446C550.572 89.8639 549.948 90.0735 549.219 90.0735ZM549.219 89.0002C549.693 89.0002 550.096 88.8339 550.429 88.5012C550.766 88.1685 551.023 87.6969 551.201 87.0862C551.383 86.4755 551.474 85.7509 551.474 84.9124V84.8987C551.474 84.0601 551.383 83.3378 551.201 82.7317C551.023 82.121 550.766 81.6516 550.429 81.3235C550.096 80.9908 549.693 80.8245 549.219 80.8245C548.749 80.8245 548.346 80.9908 548.009 81.3235C547.676 81.6516 547.421 82.121 547.243 82.7317C547.065 83.3378 546.976 84.0601 546.976 84.8987V84.9124C546.976 85.7509 547.065 86.4755 547.243 87.0862C547.421 87.6969 547.676 88.1685 548.009 88.5012C548.346 88.8339 548.749 89.0002 549.219 89.0002ZM558.105 90.0051C557.408 90.0051 556.791 89.8844 556.253 89.6428C555.715 89.4013 555.291 89.0686 554.981 88.6448C554.676 88.2164 554.523 87.7265 554.523 87.175V87.1614C554.523 86.7558 554.612 86.3798 554.79 86.0334C554.968 85.6871 555.216 85.3931 555.535 85.1516C555.854 84.9055 556.223 84.7346 556.642 84.6389V84.6116C556.105 84.443 555.676 84.165 555.357 83.7776C555.038 83.3902 554.879 82.9368 554.879 82.4172V82.4036C554.879 81.9068 555.018 81.4648 555.296 81.0774C555.574 80.6855 555.957 80.3778 556.444 80.1545C556.932 79.9267 557.486 79.8127 558.105 79.8127C558.73 79.8127 559.283 79.9267 559.766 80.1545C560.254 80.3778 560.637 80.6855 560.915 81.0774C561.193 81.4648 561.332 81.9068 561.332 82.4036V82.4172C561.332 82.9368 561.172 83.3902 560.853 83.7776C560.539 84.165 560.111 84.443 559.568 84.6116V84.6389C559.992 84.7346 560.361 84.9055 560.676 85.1516C560.995 85.3931 561.243 85.6871 561.421 86.0334C561.599 86.3798 561.687 86.7558 561.687 87.1614V87.175C561.687 87.7265 561.535 88.2164 561.229 88.6448C560.924 89.0686 560.5 89.4013 559.958 89.6428C559.42 89.8844 558.803 90.0051 558.105 90.0051ZM558.105 88.9319C558.561 88.9319 558.962 88.8544 559.308 88.6995C559.659 88.54 559.935 88.3235 560.136 88.05C560.336 87.7721 560.436 87.4553 560.436 87.0999V87.0862C560.436 86.7262 560.336 86.4071 560.136 86.1292C559.94 85.8512 559.666 85.6324 559.315 85.4729C558.964 85.3134 558.561 85.2336 558.105 85.2336C557.65 85.2336 557.246 85.3134 556.895 85.4729C556.544 85.6324 556.269 85.8512 556.068 86.1292C555.872 86.4071 555.774 86.7262 555.774 87.0862V87.0999C555.774 87.4553 555.875 87.7721 556.075 88.05C556.276 88.3235 556.551 88.54 556.902 88.6995C557.253 88.8544 557.654 88.9319 558.105 88.9319ZM558.105 84.1536C558.502 84.1536 558.85 84.0852 559.151 83.9485C559.452 83.8072 559.687 83.6135 559.855 83.3674C560.024 83.1213 560.108 82.8388 560.108 82.5198V82.5061C560.108 82.1871 560.024 81.9045 559.855 81.6584C559.687 81.4124 559.452 81.2209 559.151 81.0842C558.85 80.943 558.502 80.8723 558.105 80.8723C557.709 80.8723 557.36 80.943 557.059 81.0842C556.759 81.2209 556.524 81.4124 556.355 81.6584C556.187 81.9045 556.102 82.1871 556.102 82.5061V82.5198C556.102 82.8388 556.187 83.1213 556.355 83.3674C556.524 83.6135 556.759 83.8072 557.059 83.9485C557.36 84.0852 557.709 84.1536 558.105 84.1536ZM563.752 89.8411V79.5461H564.941V89.8411H563.752ZM568.393 89.8411L565.516 86.2317L566.391 85.4729L569.891 89.8411H568.393ZM564.791 87.1887L564.736 85.6917H565.051L568.236 82.4719H569.679L566.179 85.8489L565.891 86.1292L564.791 87.1887Z" fill="#343A4D"/>
<rect width="200" height="40" transform="translate(382.424 104.841)" fill="white"/>
<circle cx="400.424" cy="124.841" r="4.5" fill="#17AB52" stroke="#17AB52" stroke-width="3"/>
<path d="M420.915 130.073C420.195 130.073 419.566 129.957 419.028 129.725C418.495 129.488 418.071 129.164 417.757 128.754C417.447 128.339 417.267 127.865 417.217 127.332L417.21 127.257H418.44L418.447 127.332C418.479 127.66 418.604 127.945 418.823 128.187C419.046 128.424 419.343 128.608 419.712 128.74C420.085 128.873 420.509 128.939 420.983 128.939C421.43 128.939 421.826 128.868 422.173 128.727C422.524 128.581 422.799 128.38 423 128.125C423.2 127.87 423.301 127.576 423.301 127.243V127.237C423.301 126.826 423.15 126.482 422.849 126.204C422.549 125.922 422.059 125.705 421.38 125.555L420.286 125.316C419.297 125.097 418.577 124.76 418.126 124.304C417.679 123.844 417.456 123.256 417.456 122.54V122.533C417.46 121.987 417.609 121.503 417.9 121.084C418.196 120.665 418.604 120.337 419.124 120.1C419.648 119.863 420.25 119.744 420.929 119.744C421.585 119.744 422.166 119.863 422.672 120.1C423.178 120.332 423.579 120.647 423.875 121.043C424.176 121.44 424.342 121.884 424.374 122.376L424.381 122.472H423.15L423.137 122.383C423.091 122.091 422.973 121.834 422.781 121.611C422.59 121.383 422.335 121.203 422.016 121.071C421.696 120.938 421.323 120.875 420.894 120.879C420.484 120.879 420.115 120.943 419.787 121.071C419.459 121.198 419.197 121.383 419.001 121.624C418.809 121.861 418.714 122.153 418.714 122.499V122.506C418.714 122.898 418.86 123.228 419.151 123.497C419.443 123.766 419.924 123.974 420.594 124.119L421.687 124.365C422.376 124.516 422.929 124.712 423.349 124.953C423.768 125.195 424.073 125.491 424.265 125.842C424.46 126.188 424.558 126.599 424.558 127.073V127.079C424.558 127.695 424.408 128.226 424.107 128.672C423.807 129.119 423.383 129.465 422.836 129.711C422.289 129.953 421.649 130.073 420.915 130.073ZM430.581 130.073C429.688 130.073 428.915 129.864 428.264 129.445C427.612 129.025 427.108 128.431 426.753 127.66C426.402 126.89 426.226 125.976 426.226 124.919V124.906C426.226 123.844 426.402 122.928 426.753 122.157C427.108 121.387 427.61 120.793 428.257 120.373C428.908 119.954 429.681 119.744 430.574 119.744C431.267 119.744 431.896 119.881 432.461 120.155C433.03 120.423 433.5 120.799 433.869 121.282C434.238 121.761 434.471 122.315 434.566 122.944L434.559 122.957H433.322L433.315 122.944C433.206 122.52 433.021 122.155 432.762 121.85C432.502 121.54 432.185 121.301 431.811 121.132C431.442 120.963 431.03 120.879 430.574 120.879C429.945 120.879 429.398 121.043 428.933 121.371C428.473 121.699 428.118 122.164 427.867 122.766C427.616 123.367 427.491 124.081 427.491 124.906V124.919C427.491 125.74 427.616 126.45 427.867 127.052C428.118 127.654 428.473 128.118 428.933 128.447C429.398 128.775 429.947 128.939 430.581 128.939C431.041 128.939 431.458 128.866 431.832 128.72C432.206 128.57 432.52 128.358 432.775 128.084C433.03 127.806 433.208 127.478 433.308 127.1L433.322 127.086H434.566V127.1C434.457 127.701 434.22 128.226 433.855 128.672C433.491 129.114 433.028 129.458 432.468 129.704C431.912 129.95 431.283 130.073 430.581 130.073ZM439.864 130.073C439.144 130.073 438.515 129.957 437.977 129.725C437.444 129.488 437.02 129.164 436.706 128.754C436.396 128.339 436.216 127.865 436.166 127.332L436.159 127.257H437.39L437.396 127.332C437.428 127.66 437.554 127.945 437.772 128.187C437.996 128.424 438.292 128.608 438.661 128.74C439.035 128.873 439.459 128.939 439.932 128.939C440.379 128.939 440.776 128.868 441.122 128.727C441.473 128.581 441.749 128.38 441.949 128.125C442.15 127.87 442.25 127.576 442.25 127.243V127.237C442.25 126.826 442.099 126.482 441.799 126.204C441.498 125.922 441.008 125.705 440.329 125.555L439.235 125.316C438.246 125.097 437.526 124.76 437.075 124.304C436.628 123.844 436.405 123.256 436.405 122.54V122.533C436.41 121.987 436.558 121.503 436.849 121.084C437.146 120.665 437.554 120.337 438.073 120.1C438.597 119.863 439.199 119.744 439.878 119.744C440.534 119.744 441.115 119.863 441.621 120.1C442.127 120.332 442.528 120.647 442.824 121.043C443.125 121.44 443.291 121.884 443.323 122.376L443.33 122.472H442.099L442.086 122.383C442.04 122.091 441.922 121.834 441.73 121.611C441.539 121.383 441.284 121.203 440.965 121.071C440.646 120.938 440.272 120.875 439.844 120.879C439.433 120.879 439.064 120.943 438.736 121.071C438.408 121.198 438.146 121.383 437.95 121.624C437.759 121.861 437.663 122.153 437.663 122.499V122.506C437.663 122.898 437.809 123.228 438.1 123.497C438.392 123.766 438.873 123.974 439.543 124.119L440.637 124.365C441.325 124.516 441.878 124.712 442.298 124.953C442.717 125.195 443.022 125.491 443.214 125.842C443.41 126.188 443.508 126.599 443.508 127.073V127.079C443.508 127.695 443.357 128.226 443.057 128.672C442.756 129.119 442.332 129.465 441.785 129.711C441.238 129.953 440.598 130.073 439.864 130.073ZM448.792 130.073C448.072 130.073 447.443 129.957 446.905 129.725C446.372 129.488 445.948 129.164 445.634 128.754C445.324 128.339 445.144 127.865 445.094 127.332L445.087 127.257H446.317L446.324 127.332C446.356 127.66 446.481 127.945 446.7 128.187C446.923 128.424 447.22 128.608 447.589 128.74C447.962 128.873 448.386 128.939 448.86 128.939C449.307 128.939 449.703 128.868 450.05 128.727C450.401 128.581 450.676 128.38 450.877 128.125C451.077 127.87 451.178 127.576 451.178 127.243V127.237C451.178 126.826 451.027 126.482 450.726 126.204C450.426 125.922 449.936 125.705 449.257 125.555L448.163 125.316C447.174 125.097 446.454 124.76 446.003 124.304C445.556 123.844 445.333 123.256 445.333 122.54V122.533C445.337 121.987 445.486 121.503 445.777 121.084C446.073 120.665 446.481 120.337 447.001 120.1C447.525 119.863 448.127 119.744 448.806 119.744C449.462 119.744 450.043 119.863 450.549 120.1C451.055 120.332 451.456 120.647 451.752 121.043C452.053 121.44 452.219 121.884 452.251 122.376L452.258 122.472H451.027L451.014 122.383C450.968 122.091 450.849 121.834 450.658 121.611C450.467 121.383 450.211 121.203 449.892 121.071C449.573 120.938 449.2 120.875 448.771 120.879C448.361 120.879 447.992 120.943 447.664 121.071C447.336 121.198 447.074 121.383 446.878 121.624C446.686 121.861 446.591 122.153 446.591 122.499V122.506C446.591 122.898 446.737 123.228 447.028 123.497C447.32 123.766 447.801 123.974 448.471 124.119L449.564 124.365C450.252 124.516 450.806 124.712 451.225 124.953C451.645 125.195 451.95 125.491 452.141 125.842C452.337 126.188 452.435 126.599 452.435 127.073V127.079C452.435 127.695 452.285 128.226 451.984 128.672C451.683 129.119 451.26 129.465 450.713 129.711C450.166 129.953 449.526 130.073 448.792 130.073ZM458.424 129.841V119.977H459.852L463.229 128.207H463.339L466.716 119.977H468.144V129.841H466.996V122.308H466.394L467.775 120.25L463.804 129.841H462.765L458.8 120.25L460.174 122.308H459.572V129.841H458.424ZM473.538 129.971C472.841 129.971 472.237 129.818 471.726 129.513C471.221 129.203 470.829 128.763 470.551 128.194C470.277 127.624 470.141 126.947 470.141 126.163V126.15C470.141 125.361 470.277 124.682 470.551 124.113C470.829 123.543 471.221 123.105 471.726 122.8C472.237 122.495 472.841 122.342 473.538 122.342C474.24 122.342 474.844 122.495 475.349 122.8C475.855 123.105 476.245 123.543 476.518 124.113C476.796 124.682 476.935 125.361 476.935 126.15V126.163C476.935 126.947 476.796 127.624 476.518 128.194C476.245 128.763 475.855 129.203 475.349 129.513C474.844 129.818 474.24 129.971 473.538 129.971ZM473.538 128.918C474.003 128.918 474.397 128.809 474.721 128.59C475.044 128.371 475.29 128.057 475.459 127.647C475.632 127.237 475.719 126.742 475.719 126.163V126.15C475.719 125.566 475.632 125.07 475.459 124.659C475.29 124.249 475.044 123.937 474.721 123.723C474.397 123.504 474.003 123.395 473.538 123.395C473.073 123.395 472.679 123.504 472.355 123.723C472.032 123.937 471.783 124.249 471.61 124.659C471.442 125.07 471.357 125.566 471.357 126.15V126.163C471.357 126.742 471.442 127.237 471.61 127.647C471.783 128.057 472.032 128.371 472.355 128.59C472.679 128.809 473.073 128.918 473.538 128.918ZM481.502 129.971C480.882 129.971 480.34 129.814 479.875 129.499C479.41 129.185 479.05 128.743 478.795 128.173C478.54 127.599 478.412 126.929 478.412 126.163V126.15C478.412 125.379 478.54 124.71 478.795 124.14C479.05 123.57 479.408 123.128 479.868 122.814C480.333 122.499 480.877 122.342 481.502 122.342C481.839 122.342 482.156 122.397 482.452 122.506C482.753 122.611 483.019 122.759 483.252 122.95C483.484 123.142 483.667 123.37 483.799 123.634H483.908V119.546H485.098V129.841H483.908V128.665H483.799C483.648 128.939 483.459 129.173 483.231 129.369C483.003 129.561 482.744 129.709 482.452 129.814C482.16 129.919 481.844 129.971 481.502 129.971ZM481.775 128.918C482.222 128.918 482.607 128.807 482.931 128.583C483.254 128.36 483.502 128.043 483.676 127.633C483.849 127.218 483.935 126.728 483.935 126.163V126.15C483.935 125.58 483.849 125.09 483.676 124.68C483.502 124.27 483.254 123.953 482.931 123.73C482.607 123.506 482.222 123.395 481.775 123.395C481.329 123.395 480.944 123.506 480.62 123.73C480.301 123.948 480.055 124.263 479.882 124.673C479.713 125.083 479.629 125.575 479.629 126.15V126.163C479.629 126.733 479.713 127.225 479.882 127.64C480.055 128.05 480.301 128.367 480.62 128.59C480.944 128.809 481.329 128.918 481.775 128.918ZM489.849 129.971C489.293 129.971 488.825 129.866 488.447 129.656C488.069 129.442 487.784 129.132 487.593 128.727C487.406 128.317 487.312 127.822 487.312 127.243V122.472H488.502V126.956C488.502 127.617 488.629 128.109 488.885 128.433C489.144 128.756 489.568 128.918 490.156 128.918C490.48 128.918 490.765 128.87 491.011 128.775C491.261 128.679 491.471 128.542 491.64 128.365C491.808 128.182 491.933 127.963 492.016 127.708C492.102 127.448 492.145 127.157 492.145 126.833V122.472H493.335V129.841H492.145V128.74H492.036C491.918 129 491.756 129.224 491.551 129.41C491.346 129.593 491.099 129.732 490.812 129.827C490.53 129.923 490.209 129.971 489.849 129.971ZM495.625 129.841V119.546H496.814V129.841H495.625ZM502.105 129.971C501.404 129.971 500.8 129.816 500.294 129.506C499.793 129.196 499.405 128.759 499.132 128.194C498.863 127.624 498.728 126.954 498.728 126.184V126.177C498.728 125.416 498.863 124.748 499.132 124.174C499.405 123.6 499.79 123.151 500.287 122.827C500.784 122.504 501.365 122.342 502.03 122.342C502.7 122.342 503.274 122.497 503.753 122.807C504.236 123.117 504.605 123.55 504.86 124.106C505.12 124.657 505.25 125.3 505.25 126.033V126.498H499.344V125.548H504.641L504.054 126.416V125.945C504.054 125.366 503.967 124.89 503.794 124.516C503.621 124.142 503.381 123.864 503.076 123.682C502.771 123.495 502.42 123.402 502.023 123.402C501.627 123.402 501.271 123.5 500.957 123.696C500.647 123.887 500.401 124.172 500.219 124.55C500.036 124.928 499.945 125.393 499.945 125.945V126.416C499.945 126.94 500.034 127.389 500.212 127.763C500.39 128.132 500.642 128.417 500.971 128.617C501.299 128.813 501.686 128.911 502.133 128.911C502.465 128.911 502.755 128.866 503.001 128.775C503.247 128.684 503.45 128.567 503.609 128.426C503.769 128.285 503.88 128.141 503.944 127.995L503.972 127.934H505.161L505.147 127.989C505.084 128.239 504.97 128.483 504.806 128.72C504.646 128.952 504.439 129.164 504.183 129.356C503.928 129.543 503.625 129.693 503.274 129.807C502.928 129.916 502.538 129.971 502.105 129.971ZM509.625 129.971C509.078 129.971 508.595 129.889 508.176 129.725C507.756 129.556 507.419 129.322 507.164 129.021C506.913 128.72 506.765 128.367 506.72 127.961H507.936C508.037 128.267 508.233 128.513 508.524 128.699C508.816 128.886 509.196 128.98 509.666 128.98C509.999 128.98 510.29 128.932 510.541 128.836C510.796 128.736 510.997 128.601 511.142 128.433C511.288 128.26 511.361 128.061 511.361 127.838V127.824C511.361 127.574 511.261 127.362 511.06 127.189C510.86 127.011 510.532 126.867 510.076 126.758L508.934 126.485C508.474 126.375 508.096 126.234 507.8 126.061C507.503 125.883 507.285 125.667 507.143 125.411C507.002 125.152 506.932 124.846 506.932 124.495V124.489C506.932 124.078 507.05 123.712 507.287 123.388C507.529 123.064 507.857 122.809 508.271 122.622C508.686 122.435 509.153 122.342 509.673 122.342C510.188 122.342 510.643 122.424 511.04 122.588C511.441 122.748 511.762 122.976 512.004 123.272C512.25 123.568 512.4 123.917 512.455 124.318H511.286C511.209 124.026 511.031 123.789 510.753 123.607C510.475 123.424 510.113 123.333 509.666 123.333C509.374 123.333 509.114 123.381 508.887 123.477C508.659 123.568 508.479 123.696 508.347 123.86C508.214 124.024 508.148 124.215 508.148 124.434V124.448C508.148 124.612 508.192 124.757 508.278 124.885C508.365 125.013 508.499 125.124 508.682 125.22C508.864 125.316 509.099 125.4 509.386 125.473L510.52 125.746C511.213 125.915 511.728 126.156 512.065 126.471C512.407 126.785 512.578 127.207 512.578 127.736V127.749C512.578 128.187 512.448 128.574 512.188 128.911C511.929 129.244 511.575 129.504 511.129 129.691C510.687 129.878 510.185 129.971 509.625 129.971Z" fill="#343A4D"/>
<path d="M565.751 119.744C566.202 119.744 566.646 119.831 567.084 120.004C567.526 120.177 567.925 120.458 568.28 120.845C568.64 121.232 568.927 121.745 569.141 122.383C569.356 123.017 569.463 123.798 569.463 124.728V124.741C569.463 125.863 569.312 126.822 569.012 127.619C568.711 128.412 568.278 129.021 567.713 129.445C567.148 129.864 566.466 130.073 565.669 130.073C565.117 130.073 564.618 129.973 564.172 129.773C563.73 129.568 563.361 129.283 563.064 128.918C562.768 128.554 562.563 128.13 562.449 127.647L562.429 127.558H563.666L563.693 127.633C563.793 127.906 563.935 128.143 564.117 128.344C564.304 128.545 564.527 128.699 564.787 128.809C565.051 128.918 565.35 128.973 565.682 128.973C566.28 128.973 566.765 128.8 567.139 128.453C567.512 128.102 567.79 127.638 567.973 127.059C568.155 126.48 568.257 125.849 568.28 125.165C568.285 125.101 568.287 125.04 568.287 124.981C568.287 124.917 568.287 124.855 568.287 124.796L567.993 123.156C567.993 122.723 567.893 122.331 567.692 121.98C567.496 121.629 567.23 121.351 566.892 121.146C566.56 120.936 566.184 120.831 565.765 120.831C565.354 120.831 564.981 120.934 564.643 121.139C564.306 121.339 564.037 121.613 563.837 121.959C563.636 122.301 563.536 122.686 563.536 123.115V123.128C563.536 123.566 563.632 123.955 563.823 124.297C564.015 124.634 564.277 124.901 564.609 125.097C564.942 125.288 565.32 125.384 565.744 125.384C566.172 125.384 566.555 125.288 566.892 125.097C567.23 124.906 567.496 124.643 567.692 124.311C567.893 123.974 567.993 123.591 567.993 123.162V123.156H568.396V124.933H568.157C568.039 125.202 567.856 125.452 567.61 125.685C567.369 125.917 567.072 126.104 566.722 126.245C566.375 126.387 565.979 126.457 565.532 126.457C564.917 126.457 564.365 126.314 563.878 126.027C563.39 125.74 563.005 125.348 562.723 124.851C562.44 124.35 562.299 123.784 562.299 123.156V123.142C562.299 122.486 562.447 121.902 562.743 121.392C563.044 120.877 563.454 120.474 563.974 120.182C564.498 119.89 565.09 119.744 565.751 119.744Z" fill="#343A4D"/>
</g>
<rect x="382.924" y="65.3411" width="199" height="79" rx="5.5" stroke="#DBE2F0"/>
<path d="M376.131 111.341L382.924 118.134V111.341V104.548L376.131 111.341Z" fill="white" stroke="#DBE2F0"/>
<path d="M377.531 111.341L382.924 116.734L382.924 111.341V105.948L377.531 111.341Z" stroke="white"/>
</g>
<defs>
<filter id="filter0_dd_19_283" x="371.424" y="62.8411" width="269" height="107" filterUnits="userSpaceOnUse" color-interpolation-filters="sRGB">
<feFlood flood-opacity="0" result="BackgroundImageFix"/>
<feColorMatrix in="SourceAlpha" type="matrix" values="0 0 0 0 0 0 0 0 0 0 0 0 0 0 0 0 0 0 127 0" result="hardAlpha"/>
<feMorphology radius="1" operator="erode" in="SourceAlpha" result="effect1_dropShadow_19_283"/>
<feOffset dy="1"/>
<feGaussianBlur stdDeviation="1"/>
<feColorMatrix type="matrix" values="0 0 0 0 0 0 0 0 0 0 0 0 0 0 0 0 0 0 0.1 0"/>
<feBlend mode="normal" in2="BackgroundImageFix" result="effect1_dropShadow_19_283"/>
<feColorMatrix in="SourceAlpha" type="matrix" values="0 0 0 0 0 0 0 0 0 0 0 0 0 0 0 0 0 0 127 0" result="hardAlpha"/>
<feOffset dy="1"/>
<feGaussianBlur stdDeviation="1.5"/>
<feColorMatrix type="matrix" values="0 0 0 0 0 0 0 0 0 0 0 0 0 0 0 0 0 0 0.1 0"/>
<feBlend mode="normal" in2="effect1_dropShadow_19_283" result="effect2_dropShadow_19_283"/>
<feBlend mode="normal" in="SourceGraphic" in2="effect2_dropShadow_19_283" result="shape"/>
</filter>
<linearGradient id="paint0_linear_19_283" x1="505.424" y1="159.081" x2="0.423379" y2="157.163" gradientUnits="userSpaceOnUse">
<stop stop-opacity="0"/>
<stop offset="0.114873" stop-opacity="0.532418"/>
<stop offset="0.264833" stop-opacity="0.6"/>
<stop offset="0.487901" stop-opacity="0.53"/>
<stop offset="0.831232" stop-opacity="0.38"/>
<stop offset="1" stop-opacity="0"/>
</linearGradient>
<linearGradient id="paint1_linear_19_283" x1="505.424" y1="50.3155" x2="0.423379" y2="48.3974" gradientUnits="userSpaceOnUse">
<stop stop-opacity="0"/>
<stop offset="0.114873" stop-opacity="0.532418"/>
<stop offset="0.205612" stop-opacity="0.6"/>
<stop offset="0.301292" stop-opacity="0"/>
</linearGradient>
<linearGradient id="paint2_linear_19_283" x1="505.424" y1="267.847" x2="0.423379" y2="265.929" gradientUnits="userSpaceOnUse">
<stop stop-opacity="0"/>
<stop offset="0.114873" stop-opacity="0.532418"/>
<stop offset="0.264833" stop-opacity="0.6"/>
<stop offset="0.487901" stop-opacity="0.53"/>
<stop offset="0.831232" stop-opacity="0.38"/>
<stop offset="1" stop-opacity="0"/>
</linearGradient>
<linearGradient id="paint3_linear_19_283" x1="505.424" y1="376.613" x2="0.423379" y2="374.695" gradientUnits="userSpaceOnUse">
<stop stop-opacity="0"/>
<stop offset="0.114873" stop-opacity="0.532418"/>
<stop offset="0.264833" stop-opacity="0.6"/>
<stop offset="0.487901" stop-opacity="0.53"/>
<stop offset="0.831232" stop-opacity="0.38"/>
<stop offset="1" stop-opacity="0"/>
</linearGradient>
<clipPath id="clip0_19_283">
<rect x="382.424" y="64.8411" width="200" height="80" rx="6" fill="white"/>
</clipPath>
</defs>
</svg>
