<svg width="590" height="442" viewBox="0 0 590 442" fill="none" xmlns="http://www.w3.org/2000/svg">
<g clip-path="url(#clip0_252_3793)">
<path d="M323.307 -12.602L-108.38 277.3M344.102 1.25957L-87.5849 291.161M364.898 15.1214L-66.7895 305.023M385.872 29.1026L-45.815 319.004M406.667 42.9641L-25.02 332.866M427.462 56.8259L-4.22462 346.728M448.258 70.6878L16.5708 360.589M469.053 84.5493L37.3658 374.451M490.027 98.5304L58.3402 388.432M510.823 112.392L79.1357 402.294M531.618 126.254L99.9307 416.155M552.413 140.116L120.726 430.017M573.388 154.097L141.701 443.998M594.183 167.959L162.496 457.86M614.978 181.82L183.291 471.722M635.773 195.682L204.086 485.584M656.568 209.544L224.881 499.445M677.543 223.525L245.856 513.426M698.337 237.386L266.65 527.287M719.135 251.25L287.448 541.151M-111.249 251.18L326.167 542.753M-90.4143 237.188L347.001 528.761M-69.5811 223.197L367.835 514.77M-48.7478 209.207L388.668 500.78M-27.9146 195.216L409.502 486.789M-7.08131 181.225L430.335 472.798M13.752 167.235L451.168 458.808M34.5852 153.244L472.001 444.817M55.4185 139.253L492.835 430.826M76.2517 125.263L513.668 416.836M97.085 111.272L534.501 402.845M117.918 97.2811L555.334 388.854M138.752 83.2905L576.168 374.864M159.585 69.2998L597.001 360.873M180.418 55.3091L617.834 346.882M201.251 41.3184L638.667 332.891M222.085 27.3277L659.501 318.901M242.918 13.3371L680.334 304.91M263.751 -0.653631L701.167 290.919M284.584 -14.6443L722 276.929" stroke="url(#paint0_radial_252_3793)" stroke-opacity="0.5"/>
<g filter="url(#filter0_d_252_3793)">
<g filter="url(#filter1_d_252_3793)">
<rect width="128.3" height="49.3954" rx="6" transform="matrix(0.832083 0.554651 -0.830172 0.557507 327.843 90.7617)" fill="#0F111A"/>
</g>
<path d="M325.68 104.312C326.497 103.108 328.136 102.794 329.341 103.611L356.063 121.734C357.267 122.551 357.582 124.19 356.764 125.395C355.947 126.599 354.308 126.913 353.103 126.096L326.382 107.973C325.177 107.156 324.863 105.517 325.68 104.312Z" fill="#03284F"/>
<path d="M359.906 127.127C360.723 125.923 362.362 125.608 363.567 126.426L374.066 133.546C375.271 134.363 375.585 136.002 374.768 137.207C373.95 138.411 372.311 138.725 371.107 137.908L360.608 130.788C359.403 129.971 359.089 128.332 359.906 127.127Z" fill="#03284F"/>
<path d="M377.768 139.034C378.585 137.829 380.225 137.515 381.429 138.332L408.151 156.455C409.356 157.272 409.67 158.911 408.853 160.116C408.036 161.32 406.397 161.635 405.192 160.818L378.47 142.694C377.265 141.877 376.951 140.238 377.768 139.034Z" fill="#03284F"/>
<path d="M316.987 110.15C317.804 108.945 319.443 108.631 320.648 109.448L343.7 125.082C344.905 125.9 345.219 127.538 344.402 128.743C343.584 129.948 341.945 130.262 340.741 129.445L317.689 113.81C316.484 112.993 316.17 111.354 316.987 110.15Z" fill="#03284F"/>
<path d="M347.511 130.497C348.328 129.292 349.967 128.978 351.172 129.795L366.331 140.076C367.536 140.893 367.85 142.532 367.033 143.737C366.216 144.941 364.577 145.255 363.372 144.438L348.213 134.157C347.008 133.34 346.694 131.701 347.511 130.497Z" fill="#03284F"/>
<path d="M370.074 145.537C370.892 144.332 372.531 144.018 373.735 144.835L406.884 167.317C408.089 168.135 408.403 169.773 407.586 170.978C406.769 172.183 405.13 172.497 403.925 171.68L370.776 149.197C369.571 148.38 369.257 146.741 370.074 145.537Z" fill="#03284F"/>
<path d="M308.249 116.018C309.067 114.813 310.706 114.499 311.91 115.316L341.168 135.159C342.373 135.976 342.687 137.615 341.87 138.82C341.053 140.024 339.413 140.338 338.209 139.521L308.951 119.678C307.746 118.861 307.432 117.222 308.249 116.018Z" fill="#03284F"/>
<path d="M344.94 140.6C345.757 139.395 347.396 139.081 348.601 139.898L356.341 145.148C357.546 145.965 357.86 147.604 357.043 148.808C356.225 150.013 354.586 150.327 353.382 149.51L345.641 144.261C344.437 143.444 344.123 141.805 344.94 140.6Z" fill="#03284F"/>
<path d="M360.102 150.596C360.919 149.392 362.558 149.078 363.763 149.895L390.485 168.018C391.689 168.835 392.004 170.474 391.186 171.679C390.369 172.883 388.73 173.197 387.525 172.38L360.803 154.257C359.599 153.44 359.284 151.801 360.102 150.596Z" fill="#03284F"/>
</g>
<g filter="url(#filter2_d_252_3793)">
<g filter="url(#filter3_d_252_3793)">
<rect width="129.201" height="53.4992" rx="6" transform="matrix(0.832083 0.554651 -0.830172 0.557507 276.523 124.51)" fill="#0F111A"/>
</g>
<path d="M273.353 139.485C274.17 138.28 275.809 137.966 277.014 138.783L303.736 156.907C304.94 157.724 305.254 159.363 304.437 160.567C303.62 161.772 301.981 162.086 300.776 161.269L274.054 143.146C272.85 142.329 272.535 140.69 273.353 139.485Z" fill="#03284F"/>
<path d="M307.142 162.536C307.959 161.331 309.598 161.017 310.803 161.834L321.302 168.954C322.506 169.772 322.82 171.41 322.003 172.615C321.186 173.82 319.547 174.134 318.342 173.317L307.843 166.196C306.639 165.379 306.325 163.74 307.142 162.536Z" fill="#03284F"/>
<path d="M325.004 174.442C325.821 173.238 327.46 172.924 328.665 173.741L355.387 191.864C356.592 192.681 356.906 194.32 356.089 195.525C355.271 196.729 353.632 197.043 352.428 196.226L325.706 178.103C324.501 177.286 324.187 175.647 325.004 174.442Z" fill="#03284F"/>
<path d="M264.223 145.559C265.04 144.354 266.679 144.04 267.884 144.857L290.936 160.491C292.141 161.308 292.455 162.947 291.638 164.152C290.82 165.356 289.181 165.67 287.977 164.853L264.925 149.219C263.72 148.402 263.406 146.763 264.223 145.559Z" fill="#03284F"/>
<path d="M294.747 165.905C295.564 164.701 297.203 164.387 298.408 165.204L313.567 175.485C314.772 176.302 315.086 177.941 314.269 179.145C313.452 180.35 311.812 180.664 310.608 179.847L295.449 169.566C294.244 168.749 293.93 167.11 294.747 165.905Z" fill="#03284F"/>
<path d="M317.31 180.946C318.127 179.741 319.766 179.427 320.971 180.244L354.12 202.726C355.324 203.543 355.638 205.182 354.821 206.387C354.004 207.591 352.365 207.905 351.16 207.088L318.011 184.606C316.807 183.789 316.492 182.15 317.31 180.946Z" fill="#03284F"/>
<path d="M255.485 151.426C256.302 150.222 257.942 149.907 259.146 150.725L288.404 170.568C289.609 171.385 289.923 173.024 289.106 174.228C288.288 175.433 286.649 175.747 285.445 174.93L256.187 155.087C254.982 154.27 254.668 152.631 255.485 151.426Z" fill="#03284F"/>
<path d="M292.175 176.009C292.992 174.804 294.631 174.49 295.836 175.307L303.576 180.557C304.781 181.374 305.095 183.013 304.278 184.217C303.461 185.422 301.822 185.736 300.617 184.919L292.877 179.669C291.672 178.852 291.358 177.213 292.175 176.009Z" fill="#03284F"/>
<path d="M307.337 186.005C308.154 184.8 309.794 184.486 310.998 185.303L337.72 203.427C338.925 204.244 339.239 205.883 338.422 207.087C337.605 208.292 335.966 208.606 334.761 207.789L308.039 189.666C306.834 188.849 306.52 187.21 307.337 186.005Z" fill="#03284F"/>
</g>
<g filter="url(#filter4_dd_252_3793)">
<rect width="195.779" height="71.161" rx="3.18831" transform="matrix(0.832083 0.554651 -0.830172 0.557507 344.844 5.78589)" fill="#0F111A"/>
<rect x="0.000761554" y="0.443238" width="194.982" height="70.3639" rx="2.78977" transform="matrix(0.832083 0.554651 -0.830172 0.557507 345.212 5.9816)" stroke="#262B38" stroke-width="0.797078"/>
</g>
<rect x="0.00191087" y="1.11216" width="192.317" height="66.8461" rx="5" transform="matrix(0.832083 0.554651 -0.830172 0.557507 345.292 1.3768)" stroke="url(#paint1_linear_252_3793)" stroke-width="2"/>
<path d="M327.655 35.5327C328.467 34.9872 329.786 34.9849 330.6 35.5276L376.382 66.0451C377.197 66.5879 377.198 67.47 376.386 68.0156L364.691 75.8691C363.879 76.4146 362.56 76.4169 361.746 75.8741L315.964 45.3566C315.15 44.8139 315.148 43.9317 315.961 43.3862L327.655 35.5327Z" fill="#C92A2A"/>
<path d="M324.456 45.3952L325.471 46.0718L333.565 44.2654L334.401 43.704L330.156 40.8741L329.341 41.421L332.606 43.5974L332.538 43.6437L324.456 45.3952Z" fill="white"/>
<path d="M329.214 48.6534C329.573 48.8924 330.121 48.8886 330.47 48.6542C330.823 48.4169 330.827 48.0503 330.468 47.8113C330.11 47.5724 329.558 47.5733 329.204 47.8106C328.855 48.045 328.856 48.4145 329.214 48.6534Z" fill="white"/>
<path d="M334.175 51.8738L335.108 52.4956L336.345 51.6651L337.204 52.238L338.023 51.6882L337.163 51.1153L341.326 48.3199L339.948 47.4016C337.8 47.6939 335.415 48.0703 333.19 48.4667L332.371 49.0165L335.412 51.0433L334.175 51.8738ZM334.101 49.0972L334.162 49.0567C335.891 48.7507 337.862 48.4442 339.536 48.2162L339.592 48.2536L336.226 50.5137L334.101 49.0972Z" fill="white"/>
<path d="M340.042 55.7843L341.009 56.4292L343.763 54.5801L346.963 56.7134L344.21 58.5625L345.173 59.2045L351.391 55.0288L350.427 54.3868L347.799 56.152L344.599 54.0187L347.227 52.2535L346.26 51.6086L340.042 55.7843Z" fill="white"/>
<path d="M346.92 60.3695L347.888 61.0144L354.106 56.8387L353.138 56.1938L346.92 60.3695Z" fill="white"/>
<path d="M352.111 64.0311C353.743 65.1193 355.823 65.1388 357.4 64.0797L358.171 63.5617L355.614 61.8574L354.834 62.3812L356.437 63.4492L356.299 63.5418C355.334 64.1785 353.996 64.1462 352.977 63.4667C351.806 62.6865 351.994 61.5779 353.481 60.5795L353.49 60.5737C354.955 59.5898 356.615 59.4513 357.768 60.22C358.624 60.79 358.806 61.4651 358.294 62.1097L358.264 62.1472L359.231 62.7921L359.265 62.7574C360.243 61.8004 360.038 60.5913 358.622 59.647C356.877 58.484 354.47 58.592 352.496 59.9173L352.488 59.9231C350.488 61.2658 350.344 62.8536 352.111 64.0311Z" fill="white"/>
<path d="M356.471 66.7358L357.439 67.3807L360.192 65.5315L363.392 67.6648L360.639 69.5139L361.602 70.1559L367.82 65.9803L366.857 65.3383L364.228 67.1034L361.028 64.9702L363.656 63.205L362.689 62.5601L356.471 66.7358Z" fill="white"/>
<g filter="url(#filter5_d_252_3793)">
<g filter="url(#filter6_d_252_3793)">
<rect width="132.472" height="49.3954" rx="6" transform="matrix(0.832083 0.554651 -0.830172 0.557507 151.649 150.452)" fill="#0F111A"/>
</g>
<path d="M152.957 166.317C153.775 165.112 155.414 164.798 156.618 165.615L183.34 183.739C184.545 184.556 184.859 186.194 184.042 187.399C183.225 188.604 181.586 188.918 180.381 188.101L153.659 169.977C152.454 169.16 152.14 167.521 152.957 166.317Z" fill="#03284F"/>
<path d="M187.184 189.132C188.001 187.927 189.64 187.613 190.845 188.43L201.343 195.55C202.548 196.367 202.862 198.006 202.045 199.211C201.228 200.416 199.589 200.73 198.384 199.913L187.885 192.792C186.681 191.975 186.366 190.336 187.184 189.132Z" fill="#03284F"/>
<path d="M205.046 201.038C205.863 199.833 207.502 199.519 208.707 200.336L235.429 218.46C236.633 219.277 236.948 220.916 236.13 222.12C235.313 223.325 233.674 223.639 232.469 222.822L205.748 204.699C204.543 203.882 204.229 202.243 205.046 201.038Z" fill="#03284F"/>
<path d="M144.265 172.154C145.082 170.95 146.721 170.636 147.926 171.453L170.978 187.087C172.182 187.904 172.496 189.543 171.679 190.747C170.862 191.952 169.223 192.266 168.018 191.449L144.966 175.815C143.762 174.998 143.447 173.359 144.265 172.154Z" fill="#03284F"/>
<path d="M174.789 192.501C175.606 191.297 177.245 190.982 178.45 191.8L193.609 202.081C194.813 202.898 195.128 204.537 194.31 205.741C193.493 206.946 191.854 207.26 190.649 206.443L175.491 196.162C174.286 195.345 173.972 193.706 174.789 192.501Z" fill="#03284F"/>
<path d="M197.352 207.541C198.169 206.337 199.808 206.022 201.013 206.84L234.162 229.322C235.367 230.139 235.681 231.778 234.864 232.982C234.046 234.187 232.407 234.501 231.203 233.684L198.054 211.202C196.849 210.385 196.535 208.746 197.352 207.541Z" fill="#03284F"/>
<path d="M135.527 178.022C136.344 176.817 137.983 176.503 139.188 177.32L168.446 197.163C169.65 197.98 169.965 199.619 169.147 200.824C168.33 202.029 166.691 202.343 165.486 201.526L136.229 181.682C135.024 180.865 134.71 179.227 135.527 178.022Z" fill="#03284F"/>
<path d="M172.217 202.604C173.034 201.4 174.674 201.086 175.878 201.903L183.618 207.152C184.823 207.969 185.137 209.608 184.32 210.813C183.503 212.017 181.864 212.332 180.659 211.514L172.919 206.265C171.714 205.448 171.4 203.809 172.217 202.604Z" fill="#03284F"/>
<path d="M187.379 212.601C188.196 211.396 189.836 211.082 191.04 211.899L217.762 230.022C218.967 230.84 219.281 232.478 218.464 233.683C217.647 234.888 216.008 235.202 214.803 234.385L188.081 216.261C186.876 215.444 186.562 213.805 187.379 212.601Z" fill="#03284F"/>
</g>
<g filter="url(#filter7_d_252_3793)">
<g filter="url(#filter8_d_252_3793)">
<rect width="130.853" height="53.4992" rx="6" transform="matrix(0.832083 0.554651 -0.830172 0.557507 102.426 185.598)" fill="#0F111A"/>
</g>
<path d="M100.63 201.489C101.447 200.285 103.086 199.97 104.291 200.788L131.013 218.911C132.218 219.728 132.532 221.367 131.715 222.571C130.898 223.776 129.259 224.09 128.054 223.273L101.332 205.15C100.127 204.333 99.813 202.694 100.63 201.489Z" fill="#03284F"/>
<path d="M134.419 224.54C135.236 223.335 136.876 223.021 138.08 223.838L148.579 230.959C149.784 231.776 150.098 233.415 149.281 234.619C148.464 235.824 146.825 236.138 145.62 235.321L135.121 228.2C133.916 227.383 133.602 225.744 134.419 224.54Z" fill="#03284F"/>
<path d="M152.282 236.446C153.099 235.242 154.738 234.928 155.943 235.745L182.664 253.868C183.869 254.685 184.183 256.324 183.366 257.529C182.549 258.733 180.91 259.047 179.705 258.23L152.983 240.107C151.778 239.29 151.464 237.651 152.282 236.446Z" fill="#03284F"/>
<path d="M91.5006 207.563C92.3177 206.358 93.9568 206.044 95.1616 206.861L118.213 222.495C119.418 223.312 119.732 224.951 118.915 226.156C118.098 227.36 116.459 227.675 115.254 226.857L92.2023 211.223C90.9976 210.406 90.6834 208.767 91.5006 207.563Z" fill="#03284F"/>
<path d="M122.025 227.91C122.842 226.705 124.481 226.391 125.686 227.208L140.845 237.489C142.049 238.306 142.363 239.945 141.546 241.15C140.729 242.354 139.09 242.668 137.885 241.851L122.726 231.57C121.522 230.753 121.208 229.114 122.025 227.91Z" fill="#03284F"/>
<path d="M144.587 242.95C145.404 241.745 147.043 241.431 148.248 242.248L181.397 264.73C182.602 265.547 182.916 267.186 182.099 268.391C181.282 269.595 179.643 269.91 178.438 269.093L145.289 246.61C144.084 245.793 143.77 244.154 144.587 242.95Z" fill="#03284F"/>
<path d="M82.7628 213.43C83.58 212.226 85.2191 211.912 86.4238 212.729L115.681 232.572C116.886 233.389 117.2 235.028 116.383 236.232C115.566 237.437 113.927 237.751 112.722 236.934L83.4646 217.091C82.2598 216.274 81.9456 214.635 82.7628 213.43Z" fill="#03284F"/>
<path d="M119.453 238.013C120.27 236.808 121.909 236.494 123.114 237.311L130.854 242.561C132.059 243.378 132.373 245.017 131.556 246.221C130.738 247.426 129.099 247.74 127.895 246.923L120.154 241.673C118.95 240.856 118.635 239.217 119.453 238.013Z" fill="#03284F"/>
<path d="M134.615 248.009C135.432 246.805 137.071 246.49 138.276 247.308L164.998 265.431C166.202 266.248 166.517 267.887 165.699 269.091C164.882 270.296 163.243 270.61 162.038 269.793L135.317 251.67C134.112 250.853 133.798 249.214 134.615 248.009Z" fill="#03284F"/>
</g>
<g filter="url(#filter9_d_252_3793)">
<g filter="url(#filter10_d_252_3793)">
<rect width="128.613" height="55.1218" rx="6" transform="matrix(0.832083 0.554651 -0.830172 0.557507 50.7117 223.157)" fill="#0F111A"/>
</g>
<path d="M46.6109 238.928C47.4281 237.723 49.0672 237.409 50.272 238.226L76.9938 256.35C78.1986 257.167 78.5128 258.806 77.6956 260.01C76.8784 261.215 75.2393 261.529 74.0345 260.712L47.3127 242.588C46.1079 241.771 45.7937 240.133 46.6109 238.928Z" fill="#03284F"/>
<path d="M80.8378 261.743C81.655 260.538 83.2941 260.224 84.4988 261.041L94.9976 268.161C96.2023 268.979 96.5165 270.617 95.6993 271.822C94.8821 273.027 93.243 273.341 92.0383 272.524L81.5395 265.403C80.3348 264.586 80.0206 262.947 80.8378 261.743Z" fill="#03284F"/>
<path d="M98.7 273.649C99.5172 272.445 101.156 272.13 102.361 272.947L129.083 291.071C130.288 291.888 130.602 293.527 129.785 294.731C128.967 295.936 127.328 296.25 126.124 295.433L99.4017 277.31C98.197 276.493 97.8828 274.854 98.7 273.649Z" fill="#03284F"/>
<path d="M37.9182 244.766C38.7354 243.561 40.3745 243.247 41.5792 244.064L64.631 259.698C65.8358 260.515 66.15 262.154 65.3328 263.359C64.5156 264.563 62.8765 264.877 61.6717 264.06L38.6199 248.426C37.4152 247.609 37.101 245.97 37.9182 244.766Z" fill="#03284F"/>
<path d="M68.4423 265.112C69.2595 263.908 70.8986 263.594 72.1033 264.411L87.2622 274.692C88.4669 275.509 88.7811 277.148 87.9639 278.352C87.1467 279.557 85.5076 279.871 84.3029 279.054L69.144 268.773C67.9393 267.956 67.6251 266.317 68.4423 265.112Z" fill="#03284F"/>
<path d="M91.0056 280.153C91.8228 278.948 93.4619 278.634 94.6666 279.451L127.816 301.933C129.02 302.75 129.335 304.389 128.517 305.594C127.7 306.798 126.061 307.112 124.856 306.295L91.7073 283.813C90.5026 282.996 90.1884 281.357 91.0056 280.153Z" fill="#03284F"/>
<path d="M29.1804 250.633C29.9976 249.429 31.6367 249.115 32.8415 249.932L62.0991 269.775C63.3038 270.592 63.618 272.231 62.8008 273.435C61.9836 274.64 60.3446 274.954 59.1398 274.137L29.8822 254.294C28.6774 253.477 28.3632 251.838 29.1804 250.633Z" fill="#03284F"/>
<path d="M65.8712 275.216C66.6884 274.011 68.3275 273.697 69.5322 274.514L77.2723 279.764C78.477 280.581 78.7912 282.22 77.974 283.424C77.1569 284.629 75.5178 284.943 74.313 284.126L66.5729 278.876C65.3682 278.059 65.054 276.42 65.8712 275.216Z" fill="#03284F"/>
<path d="M81.0333 285.212C81.8505 284.007 83.4896 283.693 84.6943 284.51L111.416 302.634C112.621 303.451 112.935 305.09 112.118 306.294C111.301 307.499 109.662 307.813 108.457 306.996L81.735 288.872C80.5303 288.055 80.2161 286.416 81.0333 285.212Z" fill="#03284F"/>
</g>
<g filter="url(#filter11_dd_252_3793)">
<rect width="195.779" height="71.161" rx="3.18831" transform="matrix(0.832083 0.554651 -0.830172 0.557507 172.121 67.79)" fill="#0F111A"/>
<rect x="0.000761554" y="0.443238" width="194.982" height="70.3639" rx="2.78977" transform="matrix(0.832083 0.554651 -0.830172 0.557507 172.49 67.9857)" stroke="#262B38" stroke-width="0.797078"/>
</g>
<path d="M154.021 96.6511C154.833 96.1056 156.152 96.1033 156.966 96.646L217.653 137.099C218.468 137.642 218.469 138.524 217.657 139.069L205.962 146.923C205.15 147.468 203.831 147.471 203.017 146.928L142.33 106.475C141.516 105.932 141.514 105.05 142.327 104.505L154.021 96.6511Z" fill="#F59F00"/>
<path d="M152.23 107.654C153.539 108.526 155.398 108.543 156.648 107.704L156.656 107.698C157.846 106.9 157.874 105.742 156.686 104.95C155.835 104.383 154.83 104.307 154.101 104.49L154.019 104.436C154.067 104.404 154.114 104.372 154.166 104.343C155.454 103.541 156.912 103.146 157.961 103.846C158.549 104.237 158.653 104.71 158.352 105.144L158.326 105.184L159.285 105.823L159.328 105.783C160.06 105.014 159.885 104.033 158.784 103.299C157.242 102.271 155.081 102.491 152.979 103.903L152.97 103.909C150.682 105.446 150.978 106.819 152.23 107.654ZM153.076 105.323L153.08 105.32C153.83 104.817 154.943 104.832 155.69 105.33C156.446 105.834 156.439 106.567 155.676 107.079L155.667 107.085C154.922 107.586 153.761 107.591 153.032 107.104C152.297 106.615 152.318 105.833 153.076 105.323Z" fill="#343A4D"/>
<path d="M156.388 110.31C156.746 110.549 157.294 110.545 157.643 110.311C157.996 110.073 158 109.707 157.641 109.468C157.283 109.229 156.731 109.23 156.377 109.467C156.028 109.702 156.029 110.071 156.388 110.31Z" fill="#343A4D"/>
<path d="M160.524 113.136C161.845 114.017 163.55 114.127 164.618 113.409L164.627 113.403C165.497 112.819 165.436 112.04 164.602 111.374L164.623 111.36C165.543 111.76 166.613 111.781 167.384 111.263L167.393 111.257C168.354 110.612 168.205 109.625 166.966 108.799C165.748 107.987 164.225 107.9 163.083 108.54L163.031 108.569L163.938 109.173L163.985 109.147C164.632 108.794 165.482 108.87 166.173 109.331C166.877 109.8 166.93 110.308 166.326 110.713L166.318 110.719C165.74 111.107 164.839 111.065 164.126 110.59L163.396 110.104L162.646 110.607L163.406 111.114C164.236 111.667 164.353 112.27 163.651 112.741L163.642 112.747C163.03 113.158 162.09 113.102 161.33 112.595C160.556 112.08 160.43 111.465 160.934 111.046L160.973 111.014L160.049 110.398L160.001 110.436C159.054 111.182 159.194 112.25 160.524 113.136Z" fill="#343A4D"/>
<path d="M167.025 117.314L167.906 117.901L172.469 114.837L172.538 114.883L169.802 119.165L170.519 119.643L176.914 117.799L176.978 117.843L172.415 120.907L173.296 121.494L179.514 117.319L178.4 116.576L171.453 118.582L171.384 118.536L174.357 113.881L173.243 113.138L167.025 117.314Z" fill="#343A4D"/>
<path d="M175.044 122.659L179 125.297L179.832 124.738L176.843 122.746L178.778 121.446L181.607 123.332L182.408 122.794L179.579 120.908L181.398 119.687L184.386 121.679L185.218 121.121L181.262 118.484L175.044 122.659Z" fill="#343A4D"/>
<path d="M180.584 126.352L182.834 127.852C184.691 129.09 186.913 129.037 188.886 127.712L188.895 127.706C190.847 126.395 190.9 124.909 189.052 123.676L186.802 122.176L180.584 126.352ZM182.383 126.438L186.937 123.38L188.112 124.163C189.403 125.024 189.328 126.098 187.897 127.058L187.888 127.064C186.445 128.033 184.862 128.091 183.557 127.222L182.383 126.438Z" fill="#343A4D"/>
<path d="M187.264 130.805L188.231 131.45L194.449 127.274L193.482 126.629L187.264 130.805Z" fill="#343A4D"/>
<path d="M192.346 134.394C193.914 135.439 195.795 135.454 197.161 134.536L201.237 131.799L200.27 131.154L196.266 133.842C195.366 134.447 194.192 134.484 193.199 133.821C192.206 133.159 192.252 132.371 193.152 131.766L197.156 129.078L196.188 128.433L192.112 131.171C190.746 132.088 190.782 133.352 192.346 134.394Z" fill="#343A4D"/>
<path d="M196.762 137.137L197.644 137.724L202.207 134.659L202.276 134.705L199.54 138.988L200.256 139.466L206.651 137.622L206.716 137.665L202.152 140.729L203.034 141.317L209.252 137.141L208.137 136.398L201.191 138.405L201.122 138.359L204.095 133.704L202.98 132.961L196.762 137.137Z" fill="#343A4D"/>
<rect x="0.00191087" y="1.11216" width="192.317" height="66.8461" rx="5" transform="matrix(0.832083 0.554651 -0.830172 0.557507 172.569 63.381)" stroke="url(#paint2_linear_252_3793)" stroke-width="2"/>
<path d="M177.844 90.4109C175.257 92.1313 171.044 92.5559 168.045 91.3551C166.222 89.3733 166.847 86.5803 169.434 84.8599L172.231 83L178.301 84.5356L180.642 88.551L177.844 90.4109ZM168.978 90.7352C171.196 91.5817 174.794 91.2014 176.807 89.8623L179.101 88.3372L177.285 85.2114L168.978 90.7352Z" fill="#00A1C7"/>
<path d="M181.542 98.0358C180.57 97.3937 180.719 96.6243 181.971 95.7918L183.325 94.8915C184.577 94.0591 185.738 93.9573 186.696 94.5897C187.484 95.1098 187.441 95.8533 186.578 96.4534L187.769 97.2399C189.336 96.1719 189.334 94.9296 187.773 93.8991C186.071 92.7756 183.982 92.8435 182.109 94.089L180.755 94.9892C178.882 96.2347 178.787 97.6188 180.489 98.7424C182.021 99.7536 183.955 99.776 185.445 98.7854L184.253 97.999C183.384 98.5572 182.355 98.5718 181.542 98.0358Z" fill="white"/>
<path d="M187.913 101.829L187.864 101.797L192.044 96.9043L190.789 96.0761L185.951 102.161L187.303 103.053L196.47 99.8256L195.293 99.0487L187.913 101.829Z" fill="white"/>
<path d="M196.07 107.483L192.933 105.412L194.981 104.051L197.938 106.002L198.894 105.367L195.937 103.415L197.887 102.118L201.025 104.188L202.048 103.508L197.734 100.66L190.732 105.316L195.046 108.164L196.07 107.483Z" fill="white"/>
<path d="M204.116 110.704L205.135 110.026L199.989 106.63L198.97 107.307L204.116 110.704Z" fill="white"/>
<path d="M207.642 109.919L207.613 109.938L208.717 110.667L208.751 110.644C209.483 110.157 210.465 110.155 211.209 110.647C211.938 111.128 211.983 111.736 211.314 112.182C210.809 112.517 210.202 112.605 208.297 112.641L203.566 112.713L202.755 113.252L207.502 116.385L208.502 115.72L205.375 113.656L205.462 113.598L208.454 113.574C210.782 113.56 211.782 113.391 212.529 112.894C213.723 112.1 213.595 110.942 212.209 110.027C210.813 109.106 208.937 109.057 207.642 109.919Z" fill="white"/>
<path d="M211.112 118.966C212.731 120.035 214.951 119.764 217.295 118.206C219.634 116.651 220.034 115.179 218.415 114.11C216.79 113.038 214.57 113.309 212.232 114.864C209.888 116.423 209.487 117.894 211.112 118.966ZM213.384 115.625C215.121 114.47 216.535 114.168 217.434 114.762C218.028 115.154 218.034 115.698 217.457 116.358L212.977 115.909C213.103 115.819 213.239 115.722 213.384 115.625ZM212.092 118.315C211.494 117.92 211.493 117.379 212.065 116.722L216.545 117.164C216.419 117.255 216.283 117.352 216.142 117.445C214.4 118.604 212.987 118.905 212.092 118.315Z" fill="white"/>
<path d="M219.957 118.047L219.928 118.066L221.032 118.795L221.066 118.772C221.798 118.285 222.78 118.284 223.524 118.775C224.253 119.256 224.298 119.864 223.629 120.31C223.124 120.645 222.517 120.733 220.612 120.769L215.881 120.841L215.07 121.38L219.817 124.513L220.817 123.848L217.69 121.784L217.777 121.726L220.77 121.702C223.097 121.688 224.097 121.519 224.844 121.022C226.038 120.228 225.91 119.07 224.524 118.155C223.128 117.234 221.252 117.185 219.957 118.047Z" fill="white"/>
<path d="M226.114 122.111L226.085 122.13L227.189 122.859L227.223 122.836C227.956 122.349 228.937 122.348 229.681 122.839C230.411 123.32 230.456 123.928 229.786 124.374C229.281 124.709 228.674 124.797 226.77 124.833L222.038 124.905L221.228 125.444L225.975 128.577L226.974 127.912L223.847 125.848L223.934 125.79L226.927 125.766C229.254 125.752 230.255 125.583 231.002 125.086C232.196 124.292 232.067 123.134 230.681 122.219C229.285 121.298 227.41 121.249 226.114 122.111Z" fill="white"/>
<path d="M234.904 131.024L235.923 130.346L230.777 126.95L229.758 127.628L234.904 131.024Z" fill="white"/>
<path d="M238.429 130.239L238.4 130.258L239.504 130.987L239.538 130.965C240.271 130.477 241.252 130.476 241.996 130.967C242.726 131.448 242.771 132.057 242.101 132.502C241.596 132.837 240.989 132.925 239.085 132.961L234.353 133.033L233.543 133.572L238.29 136.705L239.289 136.04L236.162 133.976L236.249 133.918L239.242 133.894C241.569 133.88 242.57 133.711 243.317 133.214C244.511 132.421 244.382 131.262 242.996 130.347C241.6 129.426 239.725 129.378 238.429 130.239Z" fill="white"/>
<path d="M241.855 139.245C243.363 140.24 245.355 140.256 246.82 139.282C248.189 138.372 248.24 137.145 246.942 136.288C246.3 135.864 245.546 135.676 244.803 135.751L244.72 135.697L246.929 134.454L250.105 136.55L251.104 135.885L246.994 133.173L242.646 135.613L243.774 136.358C244.493 136.228 245.168 136.359 245.723 136.725C246.53 137.258 246.512 137.998 245.668 138.559C244.828 139.118 243.721 139.132 242.908 138.596C242.189 138.121 242.076 137.474 242.629 137.004L241.491 136.252C240.307 137.11 240.455 138.32 241.855 139.245Z" fill="white"/>
<path d="M250.356 138.439C249.06 139.3 249.028 140.527 250.278 141.352C250.716 141.64 251.343 141.823 251.858 141.796L251.921 141.87C251.771 141.906 251.615 141.925 251.197 141.971L246.923 142.397L248.256 143.276C248.542 143.26 251.413 142.968 251.826 142.907C253.531 142.707 254.589 142.39 255.409 141.845C256.884 140.864 256.853 139.487 255.345 138.491C253.881 137.525 251.758 137.506 250.356 138.439ZM254.355 139.162C255.158 139.692 255.154 140.487 254.354 141.02C253.553 141.552 252.353 141.557 251.55 141.028C250.753 140.501 250.756 139.706 251.557 139.174C252.358 138.641 253.558 138.636 254.355 139.162Z" fill="white"/>
<path d="M256.648 144.656L257.47 145.198C258.341 145.773 258.449 146.442 257.745 146.91C257.056 147.368 256.075 147.299 255.214 146.731C254.406 146.198 254.279 145.554 254.881 145.077L253.786 144.355C252.583 145.239 252.765 146.445 254.238 147.418C255.741 148.41 257.641 148.539 258.859 147.729C259.801 147.103 259.867 146.311 259.04 145.611L259.123 145.556C260.056 145.947 261.125 145.849 261.954 145.297C263.041 144.574 262.855 143.454 261.498 142.559C260.087 141.628 258.401 141.55 257.062 142.351L258.137 143.06C258.865 142.647 259.764 142.687 260.498 143.172C261.233 143.657 261.306 144.245 260.666 144.671C260.021 145.101 259.083 145.067 258.348 144.582L257.551 144.055L256.648 144.656Z" fill="white"/>
<path d="M258.708 150.181L259.948 151L268.991 149.021L270 148.35L265.127 145.134L264.132 145.795L267.814 148.225L267.741 148.274L258.708 150.181Z" fill="white"/>
<path d="M351.968 28.492C349.351 30.2311 345.09 30.6604 342.057 29.4465C340.213 27.443 340.845 24.6194 343.462 22.8802L346.291 21L352.43 22.5524L354.797 26.6117L351.968 28.492ZM343 28.8198C345.244 29.6755 348.883 29.2911 350.919 27.9374L353.239 26.3956L351.402 23.2355L343 28.8198Z" fill="#00A1C7"/>
<path d="M355.708 36.2002C354.724 35.5511 354.875 34.7733 356.142 33.9317L357.511 33.0216C358.777 32.18 359.951 32.0771 360.921 32.7164C361.717 33.2422 361.675 33.9938 360.801 34.6005L362.006 35.3956C363.591 34.3159 363.589 33.0601 362.01 32.0183C360.288 30.8825 358.176 30.9511 356.281 32.2103L354.912 33.1204C353.017 34.3795 352.922 35.7787 354.643 36.9145C356.193 37.9368 358.149 37.9595 359.655 36.9581L358.45 36.163C357.572 36.7274 356.53 36.7421 355.708 36.2002Z" fill="white"/>
<path d="M362.152 40.035L362.103 40.0026L366.33 35.0564L365.06 34.2191L360.167 40.3703L361.535 41.2724L370.806 38.0096L369.616 37.2242L362.152 40.035Z" fill="white"/>
<path d="M370.402 45.7506L367.229 43.6574L369.3 42.2809L372.291 44.254L373.258 43.6114L370.267 41.6383L372.24 40.327L375.413 42.4201L376.449 41.7319L372.085 38.8533L365.003 43.5603L369.366 46.4389L370.402 45.7506Z" fill="white"/>
<path d="M378.54 49.0067L379.57 48.3217L374.366 44.8882L373.335 45.5732L378.54 49.0067Z" fill="white"/>
<path d="M382.106 48.2132L382.076 48.2328L383.193 48.9695L383.227 48.9466C383.968 48.4541 384.961 48.4524 385.713 48.9489C386.451 49.4357 386.497 50.0506 385.819 50.5007C385.309 50.84 384.695 50.9289 382.769 50.9647L377.983 51.0379L377.163 51.5826L381.965 54.75L382.976 54.078L379.813 51.9913L379.901 51.9326L382.928 51.9079C385.281 51.8942 386.293 51.7233 387.049 51.2209C388.256 50.4185 388.127 49.2474 386.725 48.3225C385.313 47.3911 383.416 47.3423 382.106 48.2132Z" fill="white"/>
<path d="M385.615 57.3597C387.253 58.4404 389.498 58.1665 391.869 56.591C394.234 55.0187 394.64 53.5311 393.002 52.4504C391.359 51.3665 389.113 51.6404 386.748 53.2127C384.377 54.7882 383.972 56.2758 385.615 57.3597ZM387.914 53.9818C389.671 52.814 391.1 52.509 392.01 53.1094C392.61 53.5053 392.616 54.0551 392.033 54.7231L387.501 54.2688C387.629 54.1775 387.766 54.0797 387.914 53.9818ZM386.606 56.7008C386.001 56.3016 386 55.755 386.579 55.0903L391.11 55.5381C390.983 55.6294 390.845 55.7273 390.703 55.8219C388.941 56.9929 387.512 57.2979 386.606 56.7008Z" fill="white"/>
<path d="M394.561 56.4302L394.532 56.4498L395.648 57.1865L395.683 57.1636C396.424 56.6711 397.416 56.6694 398.169 57.1659C398.907 57.6527 398.952 58.2676 398.275 58.7177C397.765 59.057 397.15 59.1459 395.224 59.1817L390.439 59.2549L389.619 59.7996L394.42 62.967L395.431 62.295L392.268 60.2083L392.356 60.1496L395.383 60.125C397.737 60.1112 398.749 59.9403 399.505 59.4379C400.712 58.6355 400.582 57.4644 399.18 56.5395C397.768 55.6081 395.872 55.5593 394.561 56.4302Z" fill="white"/>
<path d="M400.789 60.5387L400.76 60.5583L401.876 61.295L401.911 61.2721C402.652 60.7796 403.644 60.7779 404.397 61.2744C405.135 61.7612 405.18 62.3761 404.503 62.8262C403.992 63.1655 403.378 63.2544 401.452 63.2902L396.666 63.3634L395.847 63.9081L400.648 67.0755L401.659 66.4035L398.496 64.3168L398.584 64.2581L401.611 64.2334C403.965 64.2197 404.977 64.0488 405.732 63.5464C406.94 62.744 406.81 61.5729 405.408 60.648C403.996 59.7166 402.099 59.6678 400.789 60.5387Z" fill="white"/>
<path d="M409.679 69.5492L410.709 68.8642L405.505 65.4307L404.474 66.1157L409.679 69.5492Z" fill="white"/>
<path d="M413.245 68.7557L413.215 68.7753L414.332 69.512L414.366 69.4891C415.107 68.9966 416.1 68.9949 416.852 69.4914C417.59 69.9782 417.636 70.5931 416.958 71.0432C416.448 71.3825 415.834 71.4714 413.908 71.5072L409.122 71.5804L408.302 72.1251L413.104 75.2925L414.115 74.6205L410.952 72.5338L411.04 72.4751L414.067 72.4504C416.42 72.4367 417.432 72.2658 418.188 71.7634C419.395 70.961 419.266 69.7899 417.864 68.865C416.452 67.9336 414.555 67.8848 413.245 68.7557Z" fill="white"/>
<path d="M416.71 77.86C418.235 78.866 420.249 78.8821 421.732 77.897C423.116 76.9771 423.167 75.7374 421.854 74.8709C421.205 74.4425 420.443 74.2519 419.691 74.328L419.607 74.2728L421.841 73.0164L425.053 75.1355L426.064 74.4636L421.908 71.7213L417.509 74.1885L418.65 74.9414C419.377 74.8101 420.061 74.9423 420.621 75.3122C421.438 75.851 421.42 76.5993 420.566 77.1669C419.717 77.7312 418.596 77.7461 417.775 77.2042C417.047 76.7239 416.933 76.0701 417.492 75.5941L416.341 74.8347C415.143 75.7022 415.293 76.9253 416.71 77.86Z" fill="white"/>
<path d="M425.307 77.045C423.997 77.9159 423.965 79.1556 425.229 79.9896C425.672 80.2817 426.306 80.4661 426.826 80.4392L426.891 80.5139C426.738 80.5499 426.581 80.5697 426.159 80.616L421.835 81.0463L423.183 81.9355C423.473 81.9188 426.376 81.6243 426.794 81.5617C428.518 81.3603 429.589 81.0397 430.418 80.4884C431.91 79.4967 431.879 78.1042 430.354 77.0982C428.873 76.1214 426.726 76.1023 425.307 77.045ZM429.352 77.7767C430.164 78.3121 430.161 79.1158 429.351 79.654C428.541 80.1922 427.327 80.1976 426.516 79.6621C425.709 79.1299 425.712 78.3262 426.522 77.788C427.332 77.2498 428.546 77.2444 429.352 77.7767Z" fill="white"/>
<path d="M429.21 86.1192C430.848 87.1999 433.093 86.926 435.463 85.3505C437.829 83.7782 438.234 82.2906 436.596 81.2099C434.953 80.126 432.708 80.3999 430.342 81.9722C427.972 83.5477 427.567 85.0353 429.21 86.1192ZM431.508 82.7413C433.265 81.5735 434.695 81.2685 435.605 81.8689C436.205 82.2648 436.211 82.8146 435.627 83.4826L431.096 83.0283C431.224 82.937 431.361 82.8391 431.508 82.7413ZM430.201 85.4603C429.596 85.0611 429.595 84.5145 430.174 83.8498L434.705 84.2976C434.577 84.3889 434.44 84.4868 434.297 84.5813C432.536 85.7524 431.106 86.0574 430.201 85.4603Z" fill="white"/>
<path d="M440.543 90.3069C441.843 89.4425 441.876 88.1897 440.621 87.3622C440.174 87.0669 439.525 86.8793 439.009 86.9029L438.94 86.8315C439.092 86.7954 439.161 86.7823 439.672 86.7294L444 86.2958L442.647 85.4033C442.348 85.4266 439.444 85.7211 439.036 85.7771C437.341 85.9785 436.276 86.3024 435.432 86.8635C433.94 87.8551 433.967 89.2444 435.492 90.2504C436.972 91.2272 439.12 91.2528 440.543 90.3069ZM436.488 89.5752C435.681 89.043 435.68 88.2361 436.489 87.6979C437.299 87.1596 438.518 87.1576 439.325 87.6898C440.131 88.222 440.133 89.0289 439.323 89.5671C438.513 90.1053 437.295 90.1074 436.488 89.5752Z" fill="white"/>
<g filter="url(#filter12_d_252_3793)">
<g filter="url(#filter13_d_252_3793)">
<rect width="129.76" height="49.3954" rx="6" transform="matrix(0.832083 0.554651 -0.830172 0.557507 399.295 252.934)" fill="#0F111A"/>
</g>
<path d="M398.347 267.294C399.164 266.09 400.803 265.776 402.008 266.593L428.729 284.716C429.934 285.533 430.248 287.172 429.431 288.377C428.614 289.581 426.975 289.895 425.77 289.078L399.048 270.955C397.844 270.138 397.529 268.499 398.347 267.294Z" fill="#03284F"/>
<path d="M432.573 290.109C433.39 288.904 435.029 288.59 436.234 289.407L446.733 296.528C447.937 297.345 448.252 298.984 447.434 300.188C446.617 301.393 444.978 301.707 443.773 300.89L433.275 293.77C432.07 292.953 431.756 291.314 432.573 290.109Z" fill="#03284F"/>
<path d="M450.435 302.016C451.252 300.811 452.891 300.497 454.096 301.314L480.818 319.437C482.023 320.254 482.337 321.893 481.52 323.098C480.702 324.302 479.063 324.617 477.859 323.799L451.137 305.676C449.932 304.859 449.618 303.22 450.435 302.016Z" fill="#03284F"/>
<path d="M389.654 273.132C390.471 271.927 392.11 271.613 393.315 272.43L416.367 288.064C417.571 288.881 417.886 290.52 417.068 291.725C416.251 292.929 414.612 293.244 413.407 292.427L390.356 276.792C389.151 275.975 388.837 274.336 389.654 273.132Z" fill="#03284F"/>
<path d="M420.178 293.479C420.995 292.274 422.634 291.96 423.839 292.777L438.998 303.058C440.203 303.875 440.517 305.514 439.7 306.719C438.882 307.923 437.243 308.237 436.039 307.42L420.88 297.139C419.675 296.322 419.361 294.683 420.178 293.479Z" fill="#03284F"/>
<path d="M442.741 308.519C443.558 307.314 445.197 307 446.402 307.817L479.551 330.299C480.756 331.116 481.07 332.755 480.253 333.96C479.436 335.165 477.797 335.479 476.592 334.662L443.443 312.179C442.238 311.362 441.924 309.723 442.741 308.519Z" fill="#03284F"/>
<path d="M380.916 278.999C381.733 277.795 383.372 277.481 384.577 278.298L413.835 298.141C415.04 298.958 415.354 300.597 414.537 301.801C413.719 303.006 412.08 303.32 410.876 302.503L381.618 282.66C380.413 281.843 380.099 280.204 380.916 278.999Z" fill="#03284F"/>
<path d="M417.606 303.582C418.424 302.377 420.063 302.063 421.267 302.88L429.008 308.13C430.212 308.947 430.527 310.586 429.709 311.79C428.892 312.995 427.253 313.309 426.048 312.492L418.308 307.243C417.103 306.425 416.789 304.787 417.606 303.582Z" fill="#03284F"/>
<path d="M432.768 313.578C433.586 312.374 435.225 312.06 436.429 312.877L463.151 331C464.356 331.817 464.67 333.456 463.853 334.661C463.036 335.865 461.397 336.179 460.192 335.362L433.47 317.239C432.265 316.422 431.951 314.783 432.768 313.578Z" fill="#03284F"/>
</g>
<g filter="url(#filter14_d_252_3793)">
<g filter="url(#filter15_d_252_3793)">
<rect width="129.107" height="55.1218" rx="6" transform="matrix(0.832083 0.554651 -0.830172 0.557507 341.757 293.264)" fill="#0F111A"/>
</g>
<path d="M338.066 309.31C338.883 308.105 340.522 307.791 341.727 308.608L368.449 326.731C369.654 327.548 369.968 329.187 369.151 330.392C368.334 331.596 366.695 331.91 365.49 331.093L338.768 312.97C337.563 312.153 337.249 310.514 338.066 309.31Z" fill="#03284F"/>
<path d="M372.293 332.124C373.11 330.92 374.749 330.605 375.954 331.423L386.453 338.543C387.658 339.36 387.972 340.999 387.155 342.204C386.337 343.408 384.698 343.722 383.494 342.905L372.995 335.785C371.79 334.968 371.476 333.329 372.293 332.124Z" fill="#03284F"/>
<path d="M390.155 344.031C390.972 342.826 392.612 342.512 393.816 343.329L420.538 361.452C421.743 362.269 422.057 363.908 421.24 365.113C420.423 366.318 418.784 366.632 417.579 365.815L390.857 347.691C389.652 346.874 389.338 345.235 390.155 344.031Z" fill="#03284F"/>
<path d="M329.373 315.147C330.191 313.943 331.83 313.628 333.034 314.446L356.086 330.08C357.291 330.897 357.605 332.536 356.788 333.74C355.971 334.945 354.332 335.259 353.127 334.442L330.075 318.808C328.87 317.991 328.556 316.352 329.373 315.147Z" fill="#03284F"/>
<path d="M359.898 335.494C360.715 334.289 362.354 333.975 363.559 334.792L378.717 345.073C379.922 345.891 380.236 347.529 379.419 348.734C378.602 349.939 376.963 350.253 375.758 349.436L360.599 339.155C359.395 338.338 359.08 336.699 359.898 335.494Z" fill="#03284F"/>
<path d="M382.461 350.534C383.278 349.33 384.917 349.015 386.122 349.832L419.271 372.315C420.476 373.132 420.79 374.771 419.973 375.975C419.155 377.18 417.516 377.494 416.312 376.677L383.163 354.195C381.958 353.378 381.644 351.739 382.461 350.534Z" fill="#03284F"/>
<path d="M320.636 321.015C321.453 319.81 323.092 319.496 324.297 320.313L353.554 340.156C354.759 340.973 355.073 342.612 354.256 343.817C353.439 345.021 351.8 345.336 350.595 344.519L321.337 324.675C320.133 323.858 319.818 322.219 320.636 321.015Z" fill="#03284F"/>
<path d="M357.326 345.597C358.144 344.393 359.783 344.079 360.987 344.896L368.728 350.145C369.932 350.962 370.246 352.601 369.429 353.806C368.612 355.01 366.973 355.324 365.768 354.507L358.028 349.258C356.823 348.441 356.509 346.802 357.326 345.597Z" fill="#03284F"/>
<path d="M372.489 355.593C373.306 354.389 374.945 354.075 376.15 354.892L402.871 373.015C404.076 373.832 404.39 375.471 403.573 376.676C402.756 377.88 401.117 378.194 399.912 377.377L373.19 359.254C371.986 358.437 371.671 356.798 372.489 355.593Z" fill="#03284F"/>
</g>
<g filter="url(#filter16_dd_252_3793)">
<rect width="195.779" height="71.161" rx="3.18831" transform="matrix(0.832083 0.554651 -0.830172 0.557507 417.511 168.768)" fill="#0F111A"/>
<rect x="0.000761554" y="0.443238" width="194.982" height="70.3639" rx="2.78977" transform="matrix(0.832083 0.554651 -0.830172 0.557507 417.879 168.964)" stroke="#262B38" stroke-width="0.797078"/>
</g>
<path d="M424.446 191.848C421.715 193.67 417.268 194.12 414.103 192.848C412.178 190.749 412.838 187.792 415.569 185.97L418.521 184L424.928 185.626L427.398 189.879L424.446 191.848ZM415.087 192.192C417.429 193.088 421.226 192.685 423.351 191.267L425.772 189.652L423.855 186.342L415.087 192.192Z" fill="#00A1C7"/>
<path d="M427.798 198.716C426.844 198.084 426.99 197.326 428.219 196.506L429.548 195.62C430.777 194.8 431.916 194.699 432.857 195.322C433.63 195.834 433.588 196.567 432.741 197.158L433.91 197.932C435.449 196.881 435.446 195.657 433.914 194.642C432.243 193.536 430.193 193.603 428.354 194.829L427.025 195.716C425.187 196.942 425.094 198.306 426.765 199.412C428.269 200.408 430.166 200.43 431.629 199.455L430.459 198.68C429.606 199.23 428.596 199.244 427.798 198.716Z" fill="white"/>
<path d="M434.052 202.452L434.004 202.42L438.106 197.602L436.874 196.786L432.126 202.779L433.453 203.658L442.45 200.479L441.295 199.714L434.052 202.452Z" fill="white"/>
<path d="M442.058 208.02L438.979 205.981L440.989 204.64L443.891 206.562L444.83 205.936L441.927 204.014L443.842 202.737L446.921 204.776L447.926 204.105L443.691 201.301L436.818 205.886L441.053 208.691L442.058 208.02Z" fill="white"/>
<path d="M449.955 211.192L450.956 210.525L445.905 207.18L444.904 207.847L449.955 211.192Z" fill="white"/>
<path d="M453.416 210.419L453.387 210.438L454.471 211.156L454.504 211.134C455.224 210.654 456.187 210.652 456.917 211.136C457.633 211.61 457.677 212.209 457.02 212.648C456.525 212.978 455.929 213.065 454.06 213.1L449.415 213.171L448.62 213.702L453.279 216.788L454.26 216.133L451.191 214.1L451.276 214.043L454.214 214.019C456.498 214.005 457.48 213.839 458.213 213.35C459.385 212.568 459.259 211.427 457.898 210.526C456.528 209.618 454.688 209.571 453.416 210.419Z" fill="white"/>
<path d="M456.822 219.33C458.411 220.383 460.59 220.116 462.891 218.581C465.186 217.049 465.58 215.6 463.99 214.547C462.396 213.491 460.217 213.758 457.921 215.29C455.62 216.825 455.227 218.274 456.822 219.33ZM459.052 216.039C460.758 214.901 462.145 214.604 463.028 215.189C463.61 215.575 463.616 216.111 463.05 216.761L458.652 216.319C458.776 216.23 458.91 216.134 459.052 216.039ZM457.784 218.688C457.197 218.299 457.196 217.767 457.757 217.119L462.155 217.555C462.031 217.644 461.897 217.74 461.759 217.832C460.049 218.973 458.662 219.27 457.784 218.688Z" fill="white"/>
<path d="M465.504 218.424L465.475 218.444L466.559 219.161L466.592 219.139C467.311 218.659 468.275 218.657 469.005 219.141C469.721 219.615 469.765 220.214 469.108 220.653C468.612 220.983 468.016 221.07 466.147 221.105L461.503 221.176L460.707 221.707L465.367 224.793L466.348 224.138L463.278 222.105L463.364 222.048L466.301 222.024C468.585 222.01 469.568 221.844 470.301 221.355C471.473 220.573 471.347 219.432 469.986 218.531C468.616 217.624 466.775 217.576 465.504 218.424Z" fill="white"/>
<path d="M471.547 222.427L471.519 222.446L472.603 223.164L472.636 223.141C473.355 222.662 474.318 222.66 475.049 223.144C475.765 223.618 475.809 224.217 475.152 224.655C474.656 224.986 474.06 225.073 472.191 225.107L467.547 225.179L466.751 225.709L471.411 228.795L472.392 228.14L469.322 226.108L469.408 226.05L472.345 226.026C474.629 226.013 475.611 225.846 476.345 225.357C477.517 224.575 477.391 223.434 476.03 222.533C474.66 221.626 472.819 221.578 471.547 222.427Z" fill="white"/>
<path d="M480.175 231.205L481.175 230.538L476.124 227.193L475.124 227.86L480.175 231.205Z" fill="white"/>
<path d="M483.635 230.432L483.607 230.451L484.69 231.169L484.724 231.147C485.443 230.667 486.406 230.665 487.136 231.149C487.853 231.623 487.897 232.222 487.239 232.661C486.744 232.991 486.148 233.078 484.279 233.112L479.634 233.184L478.839 233.715L483.498 236.8L484.48 236.146L481.41 234.113L481.496 234.055L484.433 234.031C486.717 234.018 487.699 233.852 488.433 233.362C489.604 232.58 489.478 231.44 488.118 230.538C486.748 229.631 484.907 229.584 483.635 230.432Z" fill="white"/>
<path d="M486.998 239.301C488.478 240.282 490.433 240.297 491.871 239.338C493.215 238.441 493.265 237.234 491.99 236.389C491.36 235.972 490.621 235.786 489.891 235.861L489.81 235.807L491.978 234.583L495.095 236.647L496.076 235.993L492.042 233.321L487.774 235.725L488.881 236.458C489.587 236.33 490.25 236.459 490.794 236.819C491.587 237.344 491.569 238.073 490.74 238.626C489.916 239.176 488.829 239.191 488.032 238.663C487.325 238.195 487.214 237.558 487.757 237.094L486.64 236.354C485.478 237.199 485.623 238.391 486.998 239.301Z" fill="white"/>
<path d="M495.341 238.507C494.07 239.356 494.038 240.564 495.265 241.376C495.695 241.661 496.311 241.84 496.816 241.814L496.878 241.887C496.73 241.922 496.578 241.941 496.168 241.986L491.972 242.406L493.28 243.272C493.562 243.256 496.379 242.969 496.784 242.908C498.458 242.712 499.497 242.399 500.302 241.862C501.75 240.896 501.719 239.539 500.239 238.559C498.802 237.608 496.718 237.589 495.341 238.507ZM499.267 239.22C500.055 239.742 500.051 240.525 499.266 241.049C498.48 241.574 497.302 241.579 496.514 241.057C495.731 240.539 495.735 239.756 496.521 239.231C497.306 238.707 498.484 238.702 499.267 239.22Z" fill="white"/>
<path d="M499.129 247.348C500.718 248.4 502.897 248.134 505.198 246.599C507.493 245.067 507.887 243.618 506.297 242.565C504.702 241.509 502.524 241.776 500.228 243.308C497.927 244.842 497.534 246.292 499.129 247.348ZM501.359 244.057C503.065 242.919 504.452 242.622 505.335 243.207C505.917 243.593 505.923 244.128 505.357 244.779L500.959 244.336C501.083 244.248 501.217 244.152 501.359 244.057ZM500.091 246.706C499.504 246.317 499.503 245.784 500.064 245.137L504.462 245.573C504.338 245.662 504.204 245.757 504.066 245.849C502.356 246.99 500.969 247.287 500.091 246.706Z" fill="white"/>
<path d="M507.96 253L508.927 252.355L507.094 251.141L513 247.2L511.873 246.454L508.659 246.022L507.539 246.769L510.606 247.185L510.687 247.239L505.962 250.392L504.039 249.117L503.072 249.763L507.96 253Z" fill="white"/>
<rect x="0.00191087" y="1.11216" width="192.317" height="66.8461" rx="5" transform="matrix(0.832083 0.554651 -0.830172 0.557507 417.958 164.359)" stroke="url(#paint3_linear_252_3793)" stroke-width="2"/>
<path d="M394.982 194.918C395.795 194.372 397.113 194.37 397.927 194.913L458.615 235.366C459.429 235.909 459.43 236.791 458.618 237.336L446.923 245.19C446.111 245.735 444.793 245.738 443.978 245.195L383.291 204.742C382.477 204.199 382.475 203.317 383.288 202.771L394.982 194.918Z" fill="#F59F00"/>
<path d="M393.135 205.883C394.448 206.759 396.251 206.784 397.527 205.928L397.535 205.922C398.729 205.12 398.762 203.977 397.591 203.197C397.017 202.814 396.287 202.651 395.606 202.756L395.532 202.707L397.705 201.503L400.568 203.411L401.387 202.862L397.763 200.446L393.841 202.664L394.675 203.22C394.89 203.173 395.11 203.158 395.322 203.166C395.792 203.18 396.228 203.321 396.608 203.574C397.36 204.075 397.361 204.802 396.594 205.317L396.585 205.323C395.805 205.847 394.723 205.858 393.954 205.345C393.271 204.89 393.21 204.267 393.675 203.845L393.705 203.819L392.798 203.214L392.747 203.255C391.825 203.989 391.908 205.066 393.135 205.883Z" fill="#343A4D"/>
<path d="M397.262 208.519C397.621 208.758 398.169 208.754 398.518 208.52C398.871 208.283 398.875 207.916 398.516 207.677C398.158 207.438 397.606 207.439 397.252 207.676C396.903 207.911 396.904 208.28 397.262 208.519Z" fill="#343A4D"/>
<path d="M401.399 211.346C402.72 212.227 404.424 212.336 405.493 211.619L405.502 211.613C406.372 211.028 406.31 210.249 405.477 209.584L405.498 209.569C406.418 209.969 407.488 209.99 408.259 209.472L408.268 209.466C409.228 208.821 409.08 207.834 407.841 207.008C406.623 206.196 405.1 206.109 403.957 206.749L403.906 206.778L404.813 207.383L404.86 207.356C405.507 207.003 406.357 207.08 407.048 207.54C407.752 208.01 407.804 208.517 407.201 208.923L407.192 208.928C406.615 209.316 405.713 209.274 405.001 208.799L404.271 208.313L403.521 208.816L404.281 209.323C405.11 209.876 405.228 210.479 404.526 210.951L404.517 210.956C403.905 211.367 402.964 211.311 402.204 210.804C401.431 210.289 401.305 209.675 401.809 209.255L401.848 209.223L400.924 208.607L400.876 208.645C399.928 209.391 400.068 210.459 401.399 211.346Z" fill="#343A4D"/>
<path d="M407.9 215.523L408.781 216.111L413.344 213.046L413.413 213.092L410.677 217.375L411.394 217.853L417.788 216.009L417.853 216.052L413.29 219.116L414.171 219.704L420.389 215.528L419.275 214.785L412.328 216.792L412.259 216.746L415.232 212.091L414.118 211.348L407.9 215.523Z" fill="#343A4D"/>
<path d="M415.919 220.869L419.875 223.506L420.706 222.947L417.718 220.955L419.652 219.656L422.481 221.541L423.283 221.003L420.454 219.118L422.272 217.896L425.261 219.889L426.093 219.33L422.137 216.693L415.919 220.869Z" fill="#343A4D"/>
<path d="M421.458 224.561L423.709 226.061C425.566 227.299 427.787 227.246 429.761 225.921L429.769 225.915C431.721 224.604 431.775 223.118 429.926 221.886L427.676 220.386L421.458 224.561ZM423.257 224.648L427.812 221.589L428.987 222.372C430.278 223.233 430.202 224.307 428.772 225.268L428.763 225.273C427.32 226.243 425.737 226.3 424.432 225.431L423.257 224.648Z" fill="#343A4D"/>
<path d="M428.138 229.014L429.106 229.659L435.324 225.483L434.356 224.838L428.138 229.014Z" fill="#343A4D"/>
<path d="M433.221 232.604C434.788 233.649 436.669 233.663 438.035 232.746L442.112 230.008L441.144 229.363L437.141 232.051C436.241 232.656 435.067 232.693 434.074 232.031C433.081 231.369 433.127 230.581 434.027 229.976L438.03 227.287L437.063 226.643L432.986 229.38C431.621 230.297 431.657 231.562 433.221 232.604Z" fill="#343A4D"/>
<path d="M437.637 235.346L438.518 235.933L443.082 232.869L443.151 232.915L440.414 237.197L441.131 237.675L447.526 235.831L447.591 235.874L443.027 238.939L443.908 239.526L450.126 235.35L449.012 234.608L442.066 236.614L441.996 236.568L444.969 231.913L443.855 231.17L437.637 235.346Z" fill="#343A4D"/>
<g opacity="0.6" filter="url(#filter17_f_252_3793)">
<ellipse cx="39.8649" cy="153.238" rx="11.5165" ry="11.515" fill="#A112FF"/>
</g>
<g filter="url(#filter18_f_252_3793)">
<ellipse cx="38.979" cy="153.238" rx="3.54354" ry="3.54309" fill="white"/>
</g>
<g filter="url(#filter19_f_252_3793)">
<ellipse cx="38.979" cy="153.238" rx="2.65766" ry="2.65731" fill="url(#paint4_radial_252_3793)"/>
</g>
<g opacity="0.6" filter="url(#filter20_f_252_3793)">
<ellipse cx="555.451" cy="165.639" rx="11.5165" ry="11.515" fill="#A112FF"/>
</g>
<g filter="url(#filter21_f_252_3793)">
<ellipse cx="554.565" cy="165.639" rx="3.54354" ry="3.54309" fill="white"/>
</g>
<g filter="url(#filter22_f_252_3793)">
<ellipse cx="554.565" cy="165.639" rx="2.65766" ry="2.65731" fill="url(#paint5_radial_252_3793)"/>
</g>
<g opacity="0.6" filter="url(#filter23_f_252_3793)">
<ellipse cx="223.243" cy="333.05" rx="11.5165" ry="11.515" fill="#A112FF"/>
</g>
<g filter="url(#filter24_f_252_3793)">
<ellipse cx="222.357" cy="333.05" rx="3.54354" ry="3.54309" fill="white"/>
</g>
<g filter="url(#filter25_f_252_3793)">
<ellipse cx="222.357" cy="333.05" rx="2.65766" ry="2.65731" fill="url(#paint6_radial_252_3793)"/>
</g>
</g>
<defs>
<filter id="filter0_d_252_3793" x="268.757" y="80.7161" width="201.92" height="154.791" filterUnits="userSpaceOnUse" color-interpolation-filters="sRGB">
<feFlood flood-opacity="0" result="BackgroundImageFix"/>
<feColorMatrix in="SourceAlpha" type="matrix" values="0 0 0 0 0 0 0 0 0 0 0 0 0 0 0 0 0 0 127 0" result="hardAlpha"/>
<feMorphology radius="12" operator="erode" in="SourceAlpha" result="effect1_dropShadow_252_3793"/>
<feOffset dx="9" dy="18"/>
<feGaussianBlur stdDeviation="21"/>
<feColorMatrix type="matrix" values="0 0 0 0 0 0 0 0 0 0 0 0 0 0 0 0 0 0 0.7 0"/>
<feBlend mode="normal" in2="BackgroundImageFix" result="effect1_dropShadow_252_3793"/>
<feBlend mode="normal" in="SourceGraphic" in2="effect1_dropShadow_252_3793" result="shape"/>
</filter>
<filter id="filter1_d_252_3793" x="255.757" y="62.7161" width="209.92" height="162.791" filterUnits="userSpaceOnUse" color-interpolation-filters="sRGB">
<feFlood flood-opacity="0" result="BackgroundImageFix"/>
<feColorMatrix in="SourceAlpha" type="matrix" values="0 0 0 0 0 0 0 0 0 0 0 0 0 0 0 0 0 0 127 0" result="hardAlpha"/>
<feOffset dy="4"/>
<feGaussianBlur stdDeviation="17"/>
<feComposite in2="hardAlpha" operator="out"/>
<feColorMatrix type="matrix" values="0 0 0 0 0 0 0 0 0 0 0 0 0 0 0 0 0 0 0.05 0"/>
<feBlend mode="normal" in2="BackgroundImageFix" result="effect1_dropShadow_252_3793"/>
<feBlend mode="normal" in="SourceGraphic" in2="effect1_dropShadow_252_3793" result="shape"/>
</filter>
<filter id="filter2_d_252_3793" x="222.031" y="116.464" width="222.077" height="173.579" filterUnits="userSpaceOnUse" color-interpolation-filters="sRGB">
<feFlood flood-opacity="0" result="BackgroundImageFix"/>
<feColorMatrix in="SourceAlpha" type="matrix" values="0 0 0 0 0 0 0 0 0 0 0 0 0 0 0 0 0 0 127 0" result="hardAlpha"/>
<feMorphology radius="12" operator="erode" in="SourceAlpha" result="effect1_dropShadow_252_3793"/>
<feOffset dx="25" dy="28"/>
<feGaussianBlur stdDeviation="25"/>
<feColorMatrix type="matrix" values="0 0 0 0 0 0 0 0 0 0 0 0 0 0 0 0 0 0 0.7 0"/>
<feBlend mode="normal" in2="BackgroundImageFix" result="effect1_dropShadow_252_3793"/>
<feBlend mode="normal" in="SourceGraphic" in2="effect1_dropShadow_252_3793" result="shape"/>
</filter>
<filter id="filter3_d_252_3793" x="214.031" y="114.464" width="206.077" height="157.579" filterUnits="userSpaceOnUse" color-interpolation-filters="sRGB">
<feFlood flood-opacity="0" result="BackgroundImageFix"/>
<feColorMatrix in="SourceAlpha" type="matrix" values="0 0 0 0 0 0 0 0 0 0 0 0 0 0 0 0 0 0 127 0" result="hardAlpha"/>
<feMorphology radius="12" operator="erode" in="SourceAlpha" result="effect1_dropShadow_252_3793"/>
<feOffset dx="9" dy="18"/>
<feGaussianBlur stdDeviation="21"/>
<feColorMatrix type="matrix" values="0 0 0 0 0 0 0 0 0 0 0 0 0 0 0 0 0 0 0.7 0"/>
<feBlend mode="normal" in2="BackgroundImageFix" result="effect1_dropShadow_252_3793"/>
<feBlend mode="normal" in="SourceGraphic" in2="effect1_dropShadow_252_3793" result="shape"/>
</filter>
<filter id="filter4_dd_252_3793" x="261.32" y="-3.17554" width="307.876" height="222.185" filterUnits="userSpaceOnUse" color-interpolation-filters="sRGB">
<feFlood flood-opacity="0" result="BackgroundImageFix"/>
<feColorMatrix in="SourceAlpha" type="matrix" values="0 0 0 0 0 0 0 0 0 0 0 0 0 0 0 0 0 0 127 0" result="hardAlpha"/>
<feOffset dy="26"/>
<feGaussianBlur stdDeviation="13"/>
<feComposite in2="hardAlpha" operator="out"/>
<feColorMatrix type="matrix" values="0 0 0 0 0 0 0 0 0 0 0 0 0 0 0 0 0 0 0.55 0"/>
<feBlend mode="normal" in2="BackgroundImageFix" result="effect1_dropShadow_252_3793"/>
<feColorMatrix in="SourceAlpha" type="matrix" values="0 0 0 0 0 0 0 0 0 0 0 0 0 0 0 0 0 0 127 0" result="hardAlpha"/>
<feMorphology radius="12" operator="erode" in="SourceAlpha" result="effect2_dropShadow_252_3793"/>
<feOffset dx="25" dy="28"/>
<feGaussianBlur stdDeviation="25"/>
<feColorMatrix type="matrix" values="0 0 0 0 0 0 0 0 0 0 0 0 0 0 0 0 0 0 0.7 0"/>
<feBlend mode="normal" in2="effect1_dropShadow_252_3793" result="effect2_dropShadow_252_3793"/>
<feBlend mode="normal" in="SourceGraphic" in2="effect2_dropShadow_252_3793" result="shape"/>
</filter>
<filter id="filter5_d_252_3793" x="92.5636" y="140.406" width="205.392" height="157.105" filterUnits="userSpaceOnUse" color-interpolation-filters="sRGB">
<feFlood flood-opacity="0" result="BackgroundImageFix"/>
<feColorMatrix in="SourceAlpha" type="matrix" values="0 0 0 0 0 0 0 0 0 0 0 0 0 0 0 0 0 0 127 0" result="hardAlpha"/>
<feMorphology radius="12" operator="erode" in="SourceAlpha" result="effect1_dropShadow_252_3793"/>
<feOffset dx="9" dy="18"/>
<feGaussianBlur stdDeviation="21"/>
<feColorMatrix type="matrix" values="0 0 0 0 0 0 0 0 0 0 0 0 0 0 0 0 0 0 0.7 0"/>
<feBlend mode="normal" in2="BackgroundImageFix" result="effect1_dropShadow_252_3793"/>
<feBlend mode="normal" in="SourceGraphic" in2="effect1_dropShadow_252_3793" result="shape"/>
</filter>
<filter id="filter6_d_252_3793" x="79.5636" y="122.406" width="213.392" height="165.105" filterUnits="userSpaceOnUse" color-interpolation-filters="sRGB">
<feFlood flood-opacity="0" result="BackgroundImageFix"/>
<feColorMatrix in="SourceAlpha" type="matrix" values="0 0 0 0 0 0 0 0 0 0 0 0 0 0 0 0 0 0 127 0" result="hardAlpha"/>
<feOffset dy="4"/>
<feGaussianBlur stdDeviation="17"/>
<feComposite in2="hardAlpha" operator="out"/>
<feColorMatrix type="matrix" values="0 0 0 0 0 0 0 0 0 0 0 0 0 0 0 0 0 0 0.05 0"/>
<feBlend mode="normal" in2="BackgroundImageFix" result="effect1_dropShadow_252_3793"/>
<feBlend mode="normal" in="SourceGraphic" in2="effect1_dropShadow_252_3793" result="shape"/>
</filter>
<filter id="filter7_d_252_3793" x="47.9339" y="177.552" width="223.452" height="174.495" filterUnits="userSpaceOnUse" color-interpolation-filters="sRGB">
<feFlood flood-opacity="0" result="BackgroundImageFix"/>
<feColorMatrix in="SourceAlpha" type="matrix" values="0 0 0 0 0 0 0 0 0 0 0 0 0 0 0 0 0 0 127 0" result="hardAlpha"/>
<feMorphology radius="12" operator="erode" in="SourceAlpha" result="effect1_dropShadow_252_3793"/>
<feOffset dx="25" dy="28"/>
<feGaussianBlur stdDeviation="25"/>
<feColorMatrix type="matrix" values="0 0 0 0 0 0 0 0 0 0 0 0 0 0 0 0 0 0 0.7 0"/>
<feBlend mode="normal" in2="BackgroundImageFix" result="effect1_dropShadow_252_3793"/>
<feBlend mode="normal" in="SourceGraphic" in2="effect1_dropShadow_252_3793" result="shape"/>
</filter>
<filter id="filter8_d_252_3793" x="39.9339" y="175.552" width="207.452" height="158.495" filterUnits="userSpaceOnUse" color-interpolation-filters="sRGB">
<feFlood flood-opacity="0" result="BackgroundImageFix"/>
<feColorMatrix in="SourceAlpha" type="matrix" values="0 0 0 0 0 0 0 0 0 0 0 0 0 0 0 0 0 0 127 0" result="hardAlpha"/>
<feMorphology radius="12" operator="erode" in="SourceAlpha" result="effect1_dropShadow_252_3793"/>
<feOffset dx="9" dy="18"/>
<feGaussianBlur stdDeviation="21"/>
<feColorMatrix type="matrix" values="0 0 0 0 0 0 0 0 0 0 0 0 0 0 0 0 0 0 0.7 0"/>
<feBlend mode="normal" in2="BackgroundImageFix" result="effect1_dropShadow_252_3793"/>
<feBlend mode="normal" in="SourceGraphic" in2="effect1_dropShadow_252_3793" result="shape"/>
</filter>
<filter id="filter9_d_252_3793" x="-13.1277" y="213.111" width="206.935" height="158.157" filterUnits="userSpaceOnUse" color-interpolation-filters="sRGB">
<feFlood flood-opacity="0" result="BackgroundImageFix"/>
<feColorMatrix in="SourceAlpha" type="matrix" values="0 0 0 0 0 0 0 0 0 0 0 0 0 0 0 0 0 0 127 0" result="hardAlpha"/>
<feMorphology radius="12" operator="erode" in="SourceAlpha" result="effect1_dropShadow_252_3793"/>
<feOffset dx="9" dy="18"/>
<feGaussianBlur stdDeviation="21"/>
<feColorMatrix type="matrix" values="0 0 0 0 0 0 0 0 0 0 0 0 0 0 0 0 0 0 0.7 0"/>
<feBlend mode="normal" in2="BackgroundImageFix" result="effect1_dropShadow_252_3793"/>
<feBlend mode="normal" in="SourceGraphic" in2="effect1_dropShadow_252_3793" result="shape"/>
</filter>
<filter id="filter10_d_252_3793" x="-26.1277" y="195.111" width="214.935" height="166.157" filterUnits="userSpaceOnUse" color-interpolation-filters="sRGB">
<feFlood flood-opacity="0" result="BackgroundImageFix"/>
<feColorMatrix in="SourceAlpha" type="matrix" values="0 0 0 0 0 0 0 0 0 0 0 0 0 0 0 0 0 0 127 0" result="hardAlpha"/>
<feOffset dy="4"/>
<feGaussianBlur stdDeviation="17"/>
<feComposite in2="hardAlpha" operator="out"/>
<feColorMatrix type="matrix" values="0 0 0 0 0 0 0 0 0 0 0 0 0 0 0 0 0 0 0.05 0"/>
<feBlend mode="normal" in2="BackgroundImageFix" result="effect1_dropShadow_252_3793"/>
<feBlend mode="normal" in="SourceGraphic" in2="effect1_dropShadow_252_3793" result="shape"/>
</filter>
<filter id="filter11_dd_252_3793" x="88.5978" y="58.8286" width="307.876" height="222.185" filterUnits="userSpaceOnUse" color-interpolation-filters="sRGB">
<feFlood flood-opacity="0" result="BackgroundImageFix"/>
<feColorMatrix in="SourceAlpha" type="matrix" values="0 0 0 0 0 0 0 0 0 0 0 0 0 0 0 0 0 0 127 0" result="hardAlpha"/>
<feOffset dy="26"/>
<feGaussianBlur stdDeviation="13"/>
<feComposite in2="hardAlpha" operator="out"/>
<feColorMatrix type="matrix" values="0 0 0 0 0 0 0 0 0 0 0 0 0 0 0 0 0 0 0.55 0"/>
<feBlend mode="normal" in2="BackgroundImageFix" result="effect1_dropShadow_252_3793"/>
<feColorMatrix in="SourceAlpha" type="matrix" values="0 0 0 0 0 0 0 0 0 0 0 0 0 0 0 0 0 0 127 0" result="hardAlpha"/>
<feMorphology radius="12" operator="erode" in="SourceAlpha" result="effect2_dropShadow_252_3793"/>
<feOffset dx="25" dy="28"/>
<feGaussianBlur stdDeviation="25"/>
<feColorMatrix type="matrix" values="0 0 0 0 0 0 0 0 0 0 0 0 0 0 0 0 0 0 0.7 0"/>
<feBlend mode="normal" in2="effect1_dropShadow_252_3793" result="effect2_dropShadow_252_3793"/>
<feBlend mode="normal" in="SourceGraphic" in2="effect2_dropShadow_252_3793" result="shape"/>
</filter>
<filter id="filter12_d_252_3793" x="340.209" y="242.888" width="203.135" height="155.601" filterUnits="userSpaceOnUse" color-interpolation-filters="sRGB">
<feFlood flood-opacity="0" result="BackgroundImageFix"/>
<feColorMatrix in="SourceAlpha" type="matrix" values="0 0 0 0 0 0 0 0 0 0 0 0 0 0 0 0 0 0 127 0" result="hardAlpha"/>
<feMorphology radius="12" operator="erode" in="SourceAlpha" result="effect1_dropShadow_252_3793"/>
<feOffset dx="9" dy="18"/>
<feGaussianBlur stdDeviation="21"/>
<feColorMatrix type="matrix" values="0 0 0 0 0 0 0 0 0 0 0 0 0 0 0 0 0 0 0.7 0"/>
<feBlend mode="normal" in2="BackgroundImageFix" result="effect1_dropShadow_252_3793"/>
<feBlend mode="normal" in="SourceGraphic" in2="effect1_dropShadow_252_3793" result="shape"/>
</filter>
<filter id="filter13_d_252_3793" x="327.209" y="224.888" width="211.135" height="163.601" filterUnits="userSpaceOnUse" color-interpolation-filters="sRGB">
<feFlood flood-opacity="0" result="BackgroundImageFix"/>
<feColorMatrix in="SourceAlpha" type="matrix" values="0 0 0 0 0 0 0 0 0 0 0 0 0 0 0 0 0 0 127 0" result="hardAlpha"/>
<feOffset dy="4"/>
<feGaussianBlur stdDeviation="17"/>
<feComposite in2="hardAlpha" operator="out"/>
<feColorMatrix type="matrix" values="0 0 0 0 0 0 0 0 0 0 0 0 0 0 0 0 0 0 0.05 0"/>
<feBlend mode="normal" in2="BackgroundImageFix" result="effect1_dropShadow_252_3793"/>
<feBlend mode="normal" in="SourceGraphic" in2="effect1_dropShadow_252_3793" result="shape"/>
</filter>
<filter id="filter14_d_252_3793" x="277.918" y="283.219" width="207.346" height="158.431" filterUnits="userSpaceOnUse" color-interpolation-filters="sRGB">
<feFlood flood-opacity="0" result="BackgroundImageFix"/>
<feColorMatrix in="SourceAlpha" type="matrix" values="0 0 0 0 0 0 0 0 0 0 0 0 0 0 0 0 0 0 127 0" result="hardAlpha"/>
<feMorphology radius="12" operator="erode" in="SourceAlpha" result="effect1_dropShadow_252_3793"/>
<feOffset dx="9" dy="18"/>
<feGaussianBlur stdDeviation="21"/>
<feColorMatrix type="matrix" values="0 0 0 0 0 0 0 0 0 0 0 0 0 0 0 0 0 0 0.7 0"/>
<feBlend mode="normal" in2="BackgroundImageFix" result="effect1_dropShadow_252_3793"/>
<feBlend mode="normal" in="SourceGraphic" in2="effect1_dropShadow_252_3793" result="shape"/>
</filter>
<filter id="filter15_d_252_3793" x="264.918" y="265.219" width="215.346" height="166.431" filterUnits="userSpaceOnUse" color-interpolation-filters="sRGB">
<feFlood flood-opacity="0" result="BackgroundImageFix"/>
<feColorMatrix in="SourceAlpha" type="matrix" values="0 0 0 0 0 0 0 0 0 0 0 0 0 0 0 0 0 0 127 0" result="hardAlpha"/>
<feOffset dy="4"/>
<feGaussianBlur stdDeviation="17"/>
<feComposite in2="hardAlpha" operator="out"/>
<feColorMatrix type="matrix" values="0 0 0 0 0 0 0 0 0 0 0 0 0 0 0 0 0 0 0.05 0"/>
<feBlend mode="normal" in2="BackgroundImageFix" result="effect1_dropShadow_252_3793"/>
<feBlend mode="normal" in="SourceGraphic" in2="effect1_dropShadow_252_3793" result="shape"/>
</filter>
<filter id="filter16_dd_252_3793" x="333.987" y="159.806" width="307.876" height="222.185" filterUnits="userSpaceOnUse" color-interpolation-filters="sRGB">
<feFlood flood-opacity="0" result="BackgroundImageFix"/>
<feColorMatrix in="SourceAlpha" type="matrix" values="0 0 0 0 0 0 0 0 0 0 0 0 0 0 0 0 0 0 127 0" result="hardAlpha"/>
<feOffset dy="26"/>
<feGaussianBlur stdDeviation="13"/>
<feComposite in2="hardAlpha" operator="out"/>
<feColorMatrix type="matrix" values="0 0 0 0 0 0 0 0 0 0 0 0 0 0 0 0 0 0 0.55 0"/>
<feBlend mode="normal" in2="BackgroundImageFix" result="effect1_dropShadow_252_3793"/>
<feColorMatrix in="SourceAlpha" type="matrix" values="0 0 0 0 0 0 0 0 0 0 0 0 0 0 0 0 0 0 127 0" result="hardAlpha"/>
<feMorphology radius="12" operator="erode" in="SourceAlpha" result="effect2_dropShadow_252_3793"/>
<feOffset dx="25" dy="28"/>
<feGaussianBlur stdDeviation="25"/>
<feColorMatrix type="matrix" values="0 0 0 0 0 0 0 0 0 0 0 0 0 0 0 0 0 0 0.7 0"/>
<feBlend mode="normal" in2="effect1_dropShadow_252_3793" result="effect2_dropShadow_252_3793"/>
<feBlend mode="normal" in="SourceGraphic" in2="effect2_dropShadow_252_3793" result="shape"/>
</filter>
<filter id="filter17_f_252_3793" x="18.3484" y="131.723" width="43.033" height="43.03" filterUnits="userSpaceOnUse" color-interpolation-filters="sRGB">
<feFlood flood-opacity="0" result="BackgroundImageFix"/>
<feBlend mode="normal" in="SourceGraphic" in2="BackgroundImageFix" result="shape"/>
<feGaussianBlur stdDeviation="5" result="effect1_foregroundBlur_252_3793"/>
</filter>
<filter id="filter18_f_252_3793" x="32.4354" y="146.695" width="13.0871" height="13.0862" filterUnits="userSpaceOnUse" color-interpolation-filters="sRGB">
<feFlood flood-opacity="0" result="BackgroundImageFix"/>
<feBlend mode="normal" in="SourceGraphic" in2="BackgroundImageFix" result="shape"/>
<feGaussianBlur stdDeviation="1.5" result="effect1_foregroundBlur_252_3793"/>
</filter>
<filter id="filter19_f_252_3793" x="35.3213" y="149.581" width="7.31532" height="7.3147" filterUnits="userSpaceOnUse" color-interpolation-filters="sRGB">
<feFlood flood-opacity="0" result="BackgroundImageFix"/>
<feBlend mode="normal" in="SourceGraphic" in2="BackgroundImageFix" result="shape"/>
<feGaussianBlur stdDeviation="0.5" result="effect1_foregroundBlur_252_3793"/>
</filter>
<filter id="filter20_f_252_3793" x="533.934" y="144.124" width="43.033" height="43.03" filterUnits="userSpaceOnUse" color-interpolation-filters="sRGB">
<feFlood flood-opacity="0" result="BackgroundImageFix"/>
<feBlend mode="normal" in="SourceGraphic" in2="BackgroundImageFix" result="shape"/>
<feGaussianBlur stdDeviation="5" result="effect1_foregroundBlur_252_3793"/>
</filter>
<filter id="filter21_f_252_3793" x="548.021" y="159.096" width="13.0871" height="13.0862" filterUnits="userSpaceOnUse" color-interpolation-filters="sRGB">
<feFlood flood-opacity="0" result="BackgroundImageFix"/>
<feBlend mode="normal" in="SourceGraphic" in2="BackgroundImageFix" result="shape"/>
<feGaussianBlur stdDeviation="1.5" result="effect1_foregroundBlur_252_3793"/>
</filter>
<filter id="filter22_f_252_3793" x="550.907" y="161.982" width="7.31531" height="7.3147" filterUnits="userSpaceOnUse" color-interpolation-filters="sRGB">
<feFlood flood-opacity="0" result="BackgroundImageFix"/>
<feBlend mode="normal" in="SourceGraphic" in2="BackgroundImageFix" result="shape"/>
<feGaussianBlur stdDeviation="0.5" result="effect1_foregroundBlur_252_3793"/>
</filter>
<filter id="filter23_f_252_3793" x="201.727" y="311.535" width="43.033" height="43.03" filterUnits="userSpaceOnUse" color-interpolation-filters="sRGB">
<feFlood flood-opacity="0" result="BackgroundImageFix"/>
<feBlend mode="normal" in="SourceGraphic" in2="BackgroundImageFix" result="shape"/>
<feGaussianBlur stdDeviation="5" result="effect1_foregroundBlur_252_3793"/>
</filter>
<filter id="filter24_f_252_3793" x="215.814" y="326.507" width="13.0871" height="13.0862" filterUnits="userSpaceOnUse" color-interpolation-filters="sRGB">
<feFlood flood-opacity="0" result="BackgroundImageFix"/>
<feBlend mode="normal" in="SourceGraphic" in2="BackgroundImageFix" result="shape"/>
<feGaussianBlur stdDeviation="1.5" result="effect1_foregroundBlur_252_3793"/>
</filter>
<filter id="filter25_f_252_3793" x="218.7" y="329.393" width="7.31531" height="7.3147" filterUnits="userSpaceOnUse" color-interpolation-filters="sRGB">
<feFlood flood-opacity="0" result="BackgroundImageFix"/>
<feBlend mode="normal" in="SourceGraphic" in2="BackgroundImageFix" result="shape"/>
<feGaussianBlur stdDeviation="0.5" result="effect1_foregroundBlur_252_3793"/>
</filter>
<radialGradient id="paint0_radial_252_3793" cx="0" cy="0" r="1" gradientUnits="userSpaceOnUse" gradientTransform="translate(285.168 217.565) rotate(176.741) scale(278.531 163.448)">
<stop stop-color="#A6B6D9"/>
<stop offset="1" stop-color="#A6B6D9" stop-opacity="0"/>
</radialGradient>
<linearGradient id="paint1_linear_252_3793" x1="185.522" y1="-0.356117" x2="147.027" y2="118.362" gradientUnits="userSpaceOnUse">
<stop stop-color="#00CBEC"/>
<stop offset="0.415649" stop-color="#A112FF" stop-opacity="0"/>
<stop offset="0.640573" stop-color="#A112FF" stop-opacity="0"/>
<stop offset="1" stop-color="#00CBEC"/>
</linearGradient>
<linearGradient id="paint2_linear_252_3793" x1="185.522" y1="-0.356117" x2="147.027" y2="118.362" gradientUnits="userSpaceOnUse">
<stop stop-color="#00CBEC"/>
<stop offset="0.415649" stop-color="#A112FF" stop-opacity="0"/>
<stop offset="0.640573" stop-color="#A112FF" stop-opacity="0"/>
<stop offset="1" stop-color="#00CBEC"/>
</linearGradient>
<linearGradient id="paint3_linear_252_3793" x1="185.522" y1="-0.356117" x2="147.027" y2="118.362" gradientUnits="userSpaceOnUse">
<stop stop-color="#00CBEC"/>
<stop offset="0.415649" stop-color="#A112FF" stop-opacity="0"/>
<stop offset="0.640573" stop-color="#A112FF" stop-opacity="0"/>
<stop offset="1" stop-color="#00CBEC"/>
</linearGradient>
<radialGradient id="paint4_radial_252_3793" cx="0" cy="0" r="1" gradientUnits="userSpaceOnUse" gradientTransform="translate(38.979 153.238) rotate(90) scale(2.65731 2.65766)">
<stop offset="0.781605" stop-color="white"/>
<stop offset="1" stop-color="#FFC59B" stop-opacity="0"/>
</radialGradient>
<radialGradient id="paint5_radial_252_3793" cx="0" cy="0" r="1" gradientUnits="userSpaceOnUse" gradientTransform="translate(554.565 165.639) rotate(90) scale(2.65731 2.65766)">
<stop offset="0.781605" stop-color="white"/>
<stop offset="1" stop-color="#FFC59B" stop-opacity="0"/>
</radialGradient>
<radialGradient id="paint6_radial_252_3793" cx="0" cy="0" r="1" gradientUnits="userSpaceOnUse" gradientTransform="translate(222.357 333.05) rotate(90) scale(2.65731 2.65766)">
<stop offset="0.781605" stop-color="white"/>
<stop offset="1" stop-color="#FFC59B" stop-opacity="0"/>
</radialGradient>
<clipPath id="clip0_252_3793">
<rect width="590" height="442" fill="white"/>
</clipPath>
</defs>
</svg>
