<svg width="505" height="373" viewBox="0 0 505 373" fill="none" xmlns="http://www.w3.org/2000/svg">
<g opacity="0.5" filter="url(#filter0_f_273_2564)">
<path d="M32.0364 73.4158L68.1527 70.4761L60.1736 214.941L50.7436 100.293L40.8555 214.941L32.0364 73.4158Z" fill="#6B59ED"/>
</g>
<g opacity="0.5" filter="url(#filter1_f_273_2564)">
<path d="M260.913 73.4158L297.029 70.4761L289.05 214.941L278.971 139.769L269.732 214.941L260.913 73.4158Z" fill="url(#paint0_linear_273_2564)"/>
</g>
<g filter="url(#filter2_f_273_2564)">
<path d="M440.988 335.469L438.135 62.9167L444.681 62.9167L440.988 335.469Z" fill="#6B59ED"/>
</g>
<g filter="url(#filter3_f_273_2564)">
<path d="M396.548 354.367L393.619 66.2764L400.339 66.2764L396.548 354.367Z" fill="#6B59ED"/>
</g>
<g filter="url(#filter4_f_273_2564)">
<path d="M208.407 354.367L205.479 66.2764L212.198 66.2764L208.407 354.367Z" fill="#6B59ED"/>
</g>
<g filter="url(#filter5_f_273_2564)">
<path d="M229.448 235.939L223.957 66.2764L236.555 66.2764L229.448 235.939Z" fill="#6B59ED"/>
</g>
<g filter="url(#filter6_f_273_2564)">
<path d="M351.774 358.566L349.944 70.476L354.143 70.476L351.774 358.566Z" fill="#6B59ED"/>
</g>
<g filter="url(#filter7_f_273_2564)">
<path d="M323.583 358.566L321.387 70.476L326.426 70.476L323.583 358.566Z" fill="#6B59ED"/>
</g>
<g filter="url(#filter8_f_273_2564)">
<path d="M465.421 230.06L462.492 37.7193L469.212 37.7193L465.421 230.06Z" fill="#6B59ED"/>
</g>
<g opacity="0.5" filter="url(#filter9_f_273_2564)">
<path d="M139.965 68.2254L182.801 63.3286L173.337 303.972L161.803 48.6382L150.425 303.972L139.965 68.2254Z" fill="#6B59ED"/>
</g>
<g filter="url(#filter10_f_273_2564)">
<path d="M106.369 353.947L103.515 81.3947L110.062 81.3947L106.369 353.947Z" fill="#6B59ED"/>
</g>
<g filter="url(#filter11_f_273_2564)">
<path d="M31.6165 76.1154L36.2172 70.7467C40.0914 74.3567 45.2509 76.7633 50.8015 76.7633C57.2462 76.7633 60.841 73.8198 60.841 69.7285C60.841 64.7671 57.1158 63.3972 52.0681 61.2867L44.8783 58.1581C39.663 56.1217 33.9448 52.3636 33.9448 44.903C33.9261 36.9796 41.0786 31 51.1554 31C57.4697 31 63.2252 33.4807 67.1926 37.3684L63.1507 42.3298C59.7421 39.4973 56.0355 37.8127 50.8201 37.8127C45.6048 37.8127 41.8609 40.2749 41.8609 44.4217C41.8609 48.8092 46.2567 50.4198 50.7456 52.16L57.6559 55.1961C64.0633 57.6768 68.8317 61.3793 68.8317 68.7844C68.8317 76.93 61.9213 83.576 50.3545 83.576C43.0344 83.576 36.4034 80.7436 31.6165 76.1154Z" fill="#00CBEC"/>
<path d="M102.675 38.4975H86.2099V31.9255H126.983V38.4975H110.517V82.6318H102.675V38.4975Z" fill="#00CBEC"/>
<path d="M156.729 31.9255H165.856L182.712 82.6318H174.349L166.135 55.0294C164.477 49.5311 162.801 43.8847 161.329 38.1458H161.013C159.485 43.8847 157.902 49.5496 156.244 55.0294L147.9 82.6318H139.872L156.729 31.9255Z" fill="#00CBEC"/>
<path d="M205.269 31.9255H221.79C232.258 31.9255 240.156 35.6466 240.156 46.6061C240.156 57.5656 232.258 62.0272 221.79 62.0272H213.185V82.6133H205.287V31.9255H205.269ZM220.84 55.7884C228.291 55.7884 232.351 52.7153 232.351 46.6246C232.351 40.5339 228.291 38.2013 220.84 38.2013H213.166V55.7884H220.84ZM226.111 55.5107L241.851 82.6318H233.022L220.226 59.9352L226.093 55.5107H226.111Z" fill="#00CBEC"/>
<path d="M259.918 76.1153L264.519 70.7466C268.393 74.3566 273.552 76.7633 279.103 76.7633C285.548 76.7633 289.142 73.8198 289.142 69.7285C289.142 64.7671 285.417 63.3971 280.37 61.2867L273.18 58.158C267.964 56.1216 262.246 52.3636 262.246 44.9029C262.246 36.998 269.399 31.0184 279.475 31.0184C285.79 31.0184 291.545 33.4991 295.513 37.3868L291.471 42.3482C288.062 39.5158 284.356 37.8311 279.14 37.8311C273.925 37.8311 270.181 40.2933 270.181 44.4401C270.181 48.8276 274.577 50.4382 279.066 52.1784L285.976 55.2145C292.383 57.6952 297.152 61.3977 297.152 68.8028C297.152 76.9484 290.241 83.5944 278.675 83.5944C271.354 83.5944 264.724 80.762 259.937 76.1338L259.918 76.1153Z" fill="#00CBEC"/>
<path d="M320.937 31.9255H328.835V52.6783H348.094V31.9255H355.992V82.6318H348.094V59.5094H328.835V82.6318H320.937V31.9255Z" fill="#00CBEC"/>
<path d="M380.467 76.0783H392.946V38.4975H380.467V31.9255H413.268V38.4975H400.788V76.0783H413.268V82.6318H380.467V76.0783Z" fill="#00CBEC"/>
<path d="M438.338 31.9255H454.431C465.663 31.9255 473.616 35.7577 473.616 47.1985C473.616 58.6393 465.533 63.286 454.431 63.286H446.161V82.6318H438.32V31.9255H438.338ZM453.686 57.0287C461.901 57.0287 465.831 53.9001 465.831 47.1985C465.831 40.4969 461.77 38.1828 453.686 38.1828H446.18V57.0287H453.686Z" fill="#00CBEC"/>
</g>
<g opacity="0.8" filter="url(#filter12_f_273_2564)">
<path d="M31.6165 105.513L36.2172 100.144C40.0914 103.754 45.2509 106.16 50.8015 106.16C57.2462 106.16 60.841 103.217 60.841 99.1256C60.841 94.1642 57.1158 92.7943 52.0681 90.6838L44.8783 87.5552C39.663 85.5188 33.9448 81.7607 33.9448 74.3001C33.9261 66.3767 41.0786 60.3971 51.1554 60.3971C57.4697 60.3971 63.2252 62.8778 67.1926 66.7655L63.1507 71.7269C59.7421 68.8944 56.0355 67.2098 50.8201 67.2098C45.6048 67.2098 41.8609 69.6719 41.8609 73.8188C41.8609 78.2063 46.2567 79.8169 50.7456 81.5571L57.6559 84.5932C64.0633 87.0739 68.8317 90.7764 68.8317 98.1815C68.8317 106.327 61.9213 112.973 50.3545 112.973C43.0344 112.973 36.4034 110.141 31.6165 105.513Z" fill="url(#paint1_radial_273_2564)"/>
<path d="M102.675 67.8949H86.2099V61.3229H126.983V67.8949H110.517V112.029H102.675V67.8949Z" fill="url(#paint2_radial_273_2564)"/>
<path d="M156.729 61.3229H165.856L182.712 112.029H174.349L166.135 84.4267C164.477 78.9284 162.801 73.2821 161.329 67.5431H161.013C159.485 73.2821 157.902 78.9469 156.244 84.4267L147.9 112.029H139.872L156.729 61.3229Z" fill="url(#paint3_radial_273_2564)"/>
<path d="M205.269 61.3229H221.79C232.258 61.3229 240.156 65.0439 240.156 76.0034C240.156 86.9629 232.258 91.4245 221.79 91.4245H213.185V112.011H205.287V61.3229H205.269ZM220.84 85.1857C228.291 85.1857 232.351 82.1126 232.351 76.0219C232.351 69.9313 228.291 67.5987 220.84 67.5987H213.166V85.1857H220.84ZM226.111 84.908L241.851 112.029H233.022L220.226 89.3326L226.093 84.908H226.111Z" fill="url(#paint4_radial_273_2564)"/>
<path d="M259.918 105.513L264.519 100.144C268.393 103.754 273.552 106.161 279.103 106.161C285.548 106.161 289.142 103.217 289.142 99.1258C289.142 94.1644 285.417 92.7945 280.37 90.684L273.18 87.5554C267.964 85.519 262.246 81.7609 262.246 74.3003C262.246 66.3954 269.399 60.4158 279.475 60.4158C285.79 60.4158 291.545 62.8965 295.513 66.7841L291.471 71.7455C288.062 68.9131 284.356 67.2284 279.14 67.2284C273.925 67.2284 270.181 69.6906 270.181 73.8375C270.181 78.225 274.577 79.8356 279.066 81.5758L285.976 84.6118C292.383 87.0925 297.152 90.7951 297.152 98.2002C297.152 106.346 290.241 112.992 278.675 112.992C271.354 112.992 264.724 110.159 259.937 105.531L259.918 105.513Z" fill="url(#paint5_radial_273_2564)"/>
<path d="M320.937 61.3229H328.835V82.0756H348.094V61.3229H355.992V112.029H348.094V88.9068H328.835V112.029H320.937V61.3229Z" fill="url(#paint6_radial_273_2564)"/>
<path d="M380.467 105.476H392.946V67.8949H380.467V61.3229H413.268V67.8949H400.788V105.476H413.268V112.029H380.467V105.476Z" fill="url(#paint7_radial_273_2564)"/>
<path d="M438.338 61.3229H454.431C465.663 61.3229 473.616 65.155 473.616 76.5958C473.616 88.0367 465.533 92.6834 454.431 92.6834H446.161V112.029H438.32V61.3229H438.338ZM453.686 86.4261C461.901 86.4261 465.831 83.2974 465.831 76.5958C465.831 69.8942 461.77 67.5802 453.686 67.5802H446.18V86.4261H453.686Z" fill="url(#paint8_radial_273_2564)"/>
</g>
<path d="M31.6165 76.9554L36.2172 71.5867C40.0914 75.1967 45.2509 77.6033 50.8015 77.6033C57.2462 77.6033 60.841 74.6598 60.841 70.5685C60.841 65.6071 57.1158 64.2372 52.0681 62.1267L44.8783 58.9981C39.663 56.9617 33.9448 53.2036 33.9448 45.743C33.9261 37.8196 41.0786 31.84 51.1554 31.84C57.4697 31.84 63.2252 34.3207 67.1926 38.2083L63.1507 43.1697C59.7421 40.3373 56.0355 38.6526 50.8201 38.6526C45.6048 38.6526 41.8609 41.1148 41.8609 45.2617C41.8609 49.6492 46.2567 51.2598 50.7456 53L57.6559 56.036C64.0633 58.5167 68.8317 62.2193 68.8317 69.6243C68.8317 77.7699 61.9213 84.416 50.3545 84.416C43.0344 84.416 36.4034 81.5835 31.6165 76.9554Z" fill="white"/>
<path d="M102.675 39.3376H86.2099V32.7656H126.983V39.3376H110.517V83.4719H102.675V39.3376Z" fill="white"/>
<path d="M156.729 32.7656H165.856L182.712 83.4719H174.349L166.135 55.8695C164.477 50.3712 162.801 44.7248 161.329 38.9859H161.013C159.485 44.7248 157.902 50.3897 156.244 55.8695L147.9 83.4719H139.872L156.729 32.7656Z" fill="white"/>
<path d="M205.269 32.7656H221.79C232.258 32.7656 240.156 36.4867 240.156 47.4462C240.156 58.4057 232.258 62.8672 221.79 62.8672H213.185V83.4533H205.287V32.7656H205.269ZM220.84 56.6285C228.291 56.6285 232.351 53.5554 232.351 47.4647C232.351 41.374 228.291 39.0414 220.84 39.0414H213.166V56.6285H220.84ZM226.111 56.3508L241.851 83.4719H233.022L220.226 60.7753L226.093 56.3508H226.111Z" fill="white"/>
<path d="M259.918 76.9554L264.519 71.5867C268.393 75.1967 273.552 77.6034 279.103 77.6034C285.548 77.6034 289.142 74.6598 289.142 70.5685C289.142 65.6071 285.417 64.2372 280.37 62.1268L273.18 58.9981C267.964 56.9617 262.246 53.2036 262.246 45.743C262.246 37.8381 269.399 31.8585 279.475 31.8585C285.79 31.8585 291.545 34.3392 295.513 38.2269L291.471 43.1883C288.062 40.3558 284.356 38.6712 279.14 38.6712C273.925 38.6712 270.181 41.1334 270.181 45.2802C270.181 49.6677 274.577 51.2783 279.066 53.0185L285.976 56.0546C292.383 58.5353 297.152 62.2378 297.152 69.6429C297.152 77.7885 290.241 84.4345 278.675 84.4345C271.354 84.4345 264.724 81.6021 259.937 76.9739L259.918 76.9554Z" fill="white"/>
<path d="M320.937 32.7656H328.835V53.5183H348.094V32.7656H355.992V83.4719H348.094V60.3495H328.835V83.4719H320.937V32.7656Z" fill="white"/>
<path d="M380.467 76.9184H392.946V39.3376H380.467V32.7656H413.268V39.3376H400.788V76.9184H413.268V83.4719H380.467V76.9184Z" fill="white"/>
<path d="M438.338 32.7656H454.431C465.663 32.7656 473.616 36.5978 473.616 48.0386C473.616 59.4794 465.533 64.1261 454.431 64.1261H446.161V83.4719H438.32V32.7656H438.338ZM453.686 57.8688C461.901 57.8688 465.831 54.7402 465.831 48.0386C465.831 41.337 461.77 39.0229 453.686 39.0229H446.18V57.8688H453.686Z" fill="white"/>
<defs>
<filter id="filter0_f_273_2564" x="18.0364" y="56.4761" width="64.1163" height="172.465" filterUnits="userSpaceOnUse" color-interpolation-filters="sRGB">
<feFlood flood-opacity="0" result="BackgroundImageFix"/>
<feBlend mode="normal" in="SourceGraphic" in2="BackgroundImageFix" result="shape"/>
<feGaussianBlur stdDeviation="7" result="effect1_foregroundBlur_273_2564"/>
</filter>
<filter id="filter1_f_273_2564" x="246.913" y="56.4761" width="64.1163" height="172.465" filterUnits="userSpaceOnUse" color-interpolation-filters="sRGB">
<feFlood flood-opacity="0" result="BackgroundImageFix"/>
<feBlend mode="normal" in="SourceGraphic" in2="BackgroundImageFix" result="shape"/>
<feGaussianBlur stdDeviation="7" result="effect1_foregroundBlur_273_2564"/>
</filter>
<filter id="filter2_f_273_2564" x="424.135" y="48.9167" width="34.5464" height="300.552" filterUnits="userSpaceOnUse" color-interpolation-filters="sRGB">
<feFlood flood-opacity="0" result="BackgroundImageFix"/>
<feBlend mode="normal" in="SourceGraphic" in2="BackgroundImageFix" result="shape"/>
<feGaussianBlur stdDeviation="7" result="effect1_foregroundBlur_273_2564"/>
</filter>
<filter id="filter3_f_273_2564" x="379.619" y="52.2764" width="34.7193" height="316.09" filterUnits="userSpaceOnUse" color-interpolation-filters="sRGB">
<feFlood flood-opacity="0" result="BackgroundImageFix"/>
<feBlend mode="normal" in="SourceGraphic" in2="BackgroundImageFix" result="shape"/>
<feGaussianBlur stdDeviation="7" result="effect1_foregroundBlur_273_2564"/>
</filter>
<filter id="filter4_f_273_2564" x="191.479" y="52.2764" width="34.7193" height="316.09" filterUnits="userSpaceOnUse" color-interpolation-filters="sRGB">
<feFlood flood-opacity="0" result="BackgroundImageFix"/>
<feBlend mode="normal" in="SourceGraphic" in2="BackgroundImageFix" result="shape"/>
<feGaussianBlur stdDeviation="7" result="effect1_foregroundBlur_273_2564"/>
</filter>
<filter id="filter5_f_273_2564" x="209.957" y="52.2764" width="40.5987" height="197.663" filterUnits="userSpaceOnUse" color-interpolation-filters="sRGB">
<feFlood flood-opacity="0" result="BackgroundImageFix"/>
<feBlend mode="normal" in="SourceGraphic" in2="BackgroundImageFix" result="shape"/>
<feGaussianBlur stdDeviation="7" result="effect1_foregroundBlur_273_2564"/>
</filter>
<filter id="filter6_f_273_2564" x="335.944" y="56.476" width="32.1995" height="316.09" filterUnits="userSpaceOnUse" color-interpolation-filters="sRGB">
<feFlood flood-opacity="0" result="BackgroundImageFix"/>
<feBlend mode="normal" in="SourceGraphic" in2="BackgroundImageFix" result="shape"/>
<feGaussianBlur stdDeviation="7" result="effect1_foregroundBlur_273_2564"/>
</filter>
<filter id="filter7_f_273_2564" x="307.387" y="56.476" width="33.0395" height="316.09" filterUnits="userSpaceOnUse" color-interpolation-filters="sRGB">
<feFlood flood-opacity="0" result="BackgroundImageFix"/>
<feBlend mode="normal" in="SourceGraphic" in2="BackgroundImageFix" result="shape"/>
<feGaussianBlur stdDeviation="7" result="effect1_foregroundBlur_273_2564"/>
</filter>
<filter id="filter8_f_273_2564" x="448.492" y="23.7194" width="34.7193" height="220.34" filterUnits="userSpaceOnUse" color-interpolation-filters="sRGB">
<feFlood flood-opacity="0" result="BackgroundImageFix"/>
<feBlend mode="normal" in="SourceGraphic" in2="BackgroundImageFix" result="shape"/>
<feGaussianBlur stdDeviation="7" result="effect1_foregroundBlur_273_2564"/>
</filter>
<filter id="filter9_f_273_2564" x="125.965" y="34.6382" width="70.8356" height="283.334" filterUnits="userSpaceOnUse" color-interpolation-filters="sRGB">
<feFlood flood-opacity="0" result="BackgroundImageFix"/>
<feBlend mode="normal" in="SourceGraphic" in2="BackgroundImageFix" result="shape"/>
<feGaussianBlur stdDeviation="7" result="effect1_foregroundBlur_273_2564"/>
</filter>
<filter id="filter10_f_273_2564" x="89.5154" y="67.3948" width="34.5465" height="300.552" filterUnits="userSpaceOnUse" color-interpolation-filters="sRGB">
<feFlood flood-opacity="0" result="BackgroundImageFix"/>
<feBlend mode="normal" in="SourceGraphic" in2="BackgroundImageFix" result="shape"/>
<feGaussianBlur stdDeviation="7" result="effect1_foregroundBlur_273_2564"/>
</filter>
<filter id="filter11_f_273_2564" x="0.616486" y="0" width="504" height="114.594" filterUnits="userSpaceOnUse" color-interpolation-filters="sRGB">
<feFlood flood-opacity="0" result="BackgroundImageFix"/>
<feBlend mode="normal" in="SourceGraphic" in2="BackgroundImageFix" result="shape"/>
<feGaussianBlur stdDeviation="15.5" result="effect1_foregroundBlur_273_2564"/>
</filter>
<filter id="filter12_f_273_2564" x="0.616486" y="29.3971" width="504" height="114.595" filterUnits="userSpaceOnUse" color-interpolation-filters="sRGB">
<feFlood flood-opacity="0" result="BackgroundImageFix"/>
<feBlend mode="normal" in="SourceGraphic" in2="BackgroundImageFix" result="shape"/>
<feGaussianBlur stdDeviation="15.5" result="effect1_foregroundBlur_273_2564"/>
</filter>
<linearGradient id="paint0_linear_273_2564" x1="278.971" y1="70.4761" x2="279.391" y2="266.176" gradientUnits="userSpaceOnUse">
<stop stop-color="#6B59ED"/>
<stop offset="1" stop-color="#6B59ED" stop-opacity="0"/>
</linearGradient>
<radialGradient id="paint1_radial_273_2564" cx="0" cy="0" r="1" gradientUnits="userSpaceOnUse" gradientTransform="translate(50.2241 86.6851) rotate(90.0084) scale(58.9332 41.7152)">
<stop stop-color="#00CBEC"/>
<stop offset="1" stop-color="#00CBEC" stop-opacity="0"/>
</radialGradient>
<radialGradient id="paint2_radial_273_2564" cx="0" cy="0" r="1" gradientUnits="userSpaceOnUse" gradientTransform="translate(106.596 86.676) rotate(90.0095) scale(56.8374 45.703)">
<stop stop-color="#00CBEC"/>
<stop offset="1" stop-color="#00CBEC" stop-opacity="0"/>
</radialGradient>
<radialGradient id="paint3_radial_273_2564" cx="0" cy="0" r="1" gradientUnits="userSpaceOnUse" gradientTransform="translate(161.292 86.676) rotate(90.01) scale(56.8374 48.0205)">
<stop stop-color="#00CBEC"/>
<stop offset="1" stop-color="#00CBEC" stop-opacity="0"/>
</radialGradient>
<radialGradient id="paint4_radial_273_2564" cx="0" cy="0" r="1" gradientUnits="userSpaceOnUse" gradientTransform="translate(223.56 86.676) rotate(90.0086) scale(56.8374 41.0053)">
<stop stop-color="#00CBEC"/>
<stop offset="1" stop-color="#00CBEC" stop-opacity="0"/>
</radialGradient>
<radialGradient id="paint5_radial_273_2564" cx="0" cy="0" r="1" gradientUnits="userSpaceOnUse" gradientTransform="translate(278.535 86.7038) rotate(90.0084) scale(58.9332 41.736)">
<stop stop-color="#00CBEC"/>
<stop offset="1" stop-color="#00CBEC" stop-opacity="0"/>
</radialGradient>
<radialGradient id="paint6_radial_273_2564" cx="0" cy="0" r="1" gradientUnits="userSpaceOnUse" gradientTransform="translate(338.465 86.676) rotate(90.0082) scale(56.8374 39.2933)">
<stop stop-color="#00CBEC"/>
<stop offset="1" stop-color="#00CBEC" stop-opacity="0"/>
</radialGradient>
<radialGradient id="paint7_radial_273_2564" cx="0" cy="0" r="1" gradientUnits="userSpaceOnUse" gradientTransform="translate(396.867 86.676) rotate(90.0077) scale(56.8374 36.767)">
<stop stop-color="#00CBEC"/>
<stop offset="1" stop-color="#00CBEC" stop-opacity="0"/>
</radialGradient>
<radialGradient id="paint8_radial_273_2564" cx="0" cy="0" r="1" gradientUnits="userSpaceOnUse" gradientTransform="translate(455.968 86.676) rotate(90.0083) scale(56.8374 39.5647)">
<stop stop-color="#00CBEC"/>
<stop offset="1" stop-color="#00CBEC" stop-opacity="0"/>
</radialGradient>
</defs>
</svg>
