<svg width="472" height="352" viewBox="0 0 472 352" fill="none" xmlns="http://www.w3.org/2000/svg">
<path d="M254.056 -111.714L-249.072 226.207M278.293 -95.5569L-224.835 242.365M302.53 -79.3989L-200.598 258.523M326.975 -63.1019L-176.153 274.82M351.212 -46.9443L-151.916 290.978M375.449 -30.7863L-127.68 307.135M399.685 -14.6284L-103.443 323.293M423.922 1.52922L-79.2062 339.451M448.367 17.8263L-54.7606 355.748M472.604 33.9842L-30.5237 371.906M496.841 50.1418L-6.2873 388.064M521.078 66.2997L17.9496 404.222M545.523 82.5968L42.3952 420.519M569.76 98.7547L66.6321 436.677M593.997 114.912L90.8685 452.834M618.233 131.07L115.105 468.992M642.47 147.228L139.342 485.15M666.916 163.525L163.787 501.447M691.151 179.682L188.023 517.604M715.391 195.842L212.263 533.764M-252.416 195.761L257.39 535.631M-228.133 179.451L281.672 519.322M-203.852 163.143L305.953 503.013M-179.571 146.835L330.234 486.705M-155.29 130.527L354.515 470.397M-131.009 114.219L378.796 454.089M-106.728 97.9107L403.077 437.781M-82.4469 81.6026L427.358 421.473M-58.1659 65.2944L451.639 405.165M-33.8849 48.9863L475.92 388.856M-9.6039 32.6781L500.201 372.548M14.6771 16.37L524.482 356.24M38.9581 0.0618581L548.763 339.932M63.2391 -16.2463L573.044 323.624M87.5201 -32.5544L597.325 307.316M111.801 -48.8626L621.606 291.008M136.082 -65.1707L645.887 274.699M160.363 -81.4788L670.168 258.391M184.644 -97.787L694.449 242.083M208.925 -114.095L718.73 225.775" stroke="url(#paint0_radial_6_2110)" stroke-opacity="0.5"/>
<g filter="url(#filter0_f_6_2110)">
<ellipse cx="240" cy="181.5" rx="82.5" ry="59.5" fill="#820DDE"/>
</g>
<g filter="url(#filter1_d_6_2110)">
<path d="M135.064 257.668C117.776 249.663 113.109 233.88 125.219 222.244L303.717 49.1102C315.828 37.4735 339.452 34.2171 356.74 42.2228C374.029 50.2285 378.695 66.0106 366.585 77.6473L188.087 250.781C175.977 262.418 151.828 265.325 135.064 257.668Z" fill="#FF5543"/>
<path d="M68.2315 163.134C57.2305 157.912 50.9633 149.51 51.5216 140.027C53.6702 125.973 71.5488 115.366 92.5337 116.686L404.174 132.272C425.159 133.591 440.859 145.465 438.71 159.52C436.561 173.574 418.683 184.18 397.698 182.861L86.5816 167.624C79.7611 167.301 72.9456 165.573 68.2315 163.134Z" fill="#A112FF"/>
<path d="M290.885 265.11C285.122 262.676 280.936 259.182 278.326 255.33L144.135 66.6144C135.26 53.6585 143.185 38.5275 162.622 32.4791C182.058 26.4307 204.604 31.606 213.479 44.5618L347.146 232.928C356.021 245.884 348.096 261.015 328.66 267.063C316.051 271.328 301.363 269.984 290.885 265.11Z" fill="#00CBEC"/>
</g>
<g opacity="0.7" filter="url(#filter2_f_6_2110)">
<ellipse cx="239" cy="124.5" rx="170.5" ry="114.5" fill="#0F111A"/>
</g>
<g filter="url(#filter3_d_6_2110)">
<rect x="0.000955552" y="0.556128" width="139" height="125.491" rx="7.5" transform="matrix(0.83205 0.5547 -0.830139 0.557556 242.267 54.2455)" fill="url(#paint1_linear_6_2110)" stroke="#5E6E8C"/>
<rect x="0.00382221" y="2.22451" width="136" height="122.491" rx="6" transform="matrix(0.83205 0.5547 -0.830139 0.557556 243.352 43.9821)" stroke="url(#paint2_linear_6_2110)" stroke-width="4"/>
<path fill-rule="evenodd" clip-rule="evenodd" d="M256.674 126.515L266.308 132.938L234.755 131.566L232.588 110.458L242.222 116.881L254.816 108.423L269.267 118.057L256.674 126.515ZM209.5 125.965L213.698 123.146L247.418 145.626L243.22 148.445L209.5 125.965Z" fill="url(#paint3_linear_6_2110)"/>
</g>
<defs>
<filter id="filter0_f_6_2110" x="-26.5" y="-62" width="533" height="487" filterUnits="userSpaceOnUse" color-interpolation-filters="sRGB">
<feFlood flood-opacity="0" result="BackgroundImageFix"/>
<feBlend mode="normal" in="SourceGraphic" in2="BackgroundImageFix" result="shape"/>
<feGaussianBlur stdDeviation="92" result="effect1_foregroundBlur_6_2110"/>
</filter>
<filter id="filter1_d_6_2110" x="-33.5001" y="-29" width="569.198" height="393.82" filterUnits="userSpaceOnUse" color-interpolation-filters="sRGB">
<feFlood flood-opacity="0" result="BackgroundImageFix"/>
<feColorMatrix in="SourceAlpha" type="matrix" values="0 0 0 0 0 0 0 0 0 0 0 0 0 0 0 0 0 0 127 0" result="hardAlpha"/>
<feOffset dy="17"/>
<feGaussianBlur stdDeviation="6"/>
<feComposite in2="hardAlpha" operator="out"/>
<feColorMatrix type="matrix" values="0 0 0 0 0 0 0 0 0 0 0 0 0 0 0 0 0 0 0.55 0"/>
<feBlend mode="normal" in2="BackgroundImageFix" result="effect1_dropShadow_6_2110"/>
<feBlend mode="normal" in="SourceGraphic" in2="effect1_dropShadow_6_2110" result="shape"/>
</filter>
<filter id="filter2_f_6_2110" x="-115.5" y="-174" width="709" height="597" filterUnits="userSpaceOnUse" color-interpolation-filters="sRGB">
<feFlood flood-opacity="0" result="BackgroundImageFix"/>
<feBlend mode="normal" in="SourceGraphic" in2="BackgroundImageFix" result="shape"/>
<feGaussianBlur stdDeviation="92" result="effect1_foregroundBlur_6_2110"/>
</filter>
<filter id="filter3_d_6_2110" x="128.394" y="45.6062" width="238.004" height="182.972" filterUnits="userSpaceOnUse" color-interpolation-filters="sRGB">
<feFlood flood-opacity="0" result="BackgroundImageFix"/>
<feColorMatrix in="SourceAlpha" type="matrix" values="0 0 0 0 0 0 0 0 0 0 0 0 0 0 0 0 0 0 127 0" result="hardAlpha"/>
<feOffset dy="17"/>
<feGaussianBlur stdDeviation="6"/>
<feComposite in2="hardAlpha" operator="out"/>
<feColorMatrix type="matrix" values="0 0 0 0 0 0 0 0 0 0 0 0 0 0 0 0 0 0 0.55 0"/>
<feBlend mode="normal" in2="BackgroundImageFix" result="effect1_dropShadow_6_2110"/>
<feBlend mode="normal" in="SourceGraphic" in2="effect1_dropShadow_6_2110" result="shape"/>
</filter>
<radialGradient id="paint0_radial_6_2110" cx="0" cy="0" r="1" gradientUnits="userSpaceOnUse" gradientTransform="translate(232.967 210.896) rotate(179.976) scale(252.467 148.171)">
<stop stop-color="#A6B6D9"/>
<stop offset="1" stop-color="#A6B6D9" stop-opacity="0"/>
</radialGradient>
<linearGradient id="paint1_linear_6_2110" x1="144.165" y1="87.0434" x2="3.58143" y2="85.5636" gradientUnits="userSpaceOnUse">
<stop offset="0.0948094" stop-color="#0F111A"/>
<stop offset="1"/>
</linearGradient>
<linearGradient id="paint2_linear_6_2110" x1="143.5" y1="148.5" x2="27.5" y2="23.5" gradientUnits="userSpaceOnUse">
<stop offset="0.213852" stop-color="#00A1C7" stop-opacity="0"/>
<stop offset="0.423143" stop-color="#00A1C7"/>
<stop offset="0.740528" stop-color="#A112FF"/>
<stop offset="1" stop-color="#00A1C7" stop-opacity="0"/>
</linearGradient>
<linearGradient id="paint3_linear_6_2110" x1="255.5" y1="138.5" x2="217.892" y2="74.0184" gradientUnits="userSpaceOnUse">
<stop stop-color="white"/>
<stop offset="1" stop-color="#343A4D" stop-opacity="0.09"/>
</linearGradient>
</defs>
</svg>
