<svg width="394" height="272" viewBox="0 0 394 272" fill="none" xmlns="http://www.w3.org/2000/svg">
<g clip-path="url(#clip0_7622_61079)">
<rect x="9" width="362" height="268" rx="8" fill="#F9FAFB"/>
<rect x="17.5" y="8.5" width="345" height="29" rx="5.5" fill="white"/>
<rect x="17.5" y="8.5" width="345" height="29" rx="5.5" stroke="#E4E9F4"/>
<g clip-path="url(#clip1_7622_61079)">
<path d="M22 18C22 15.7909 23.7909 14 26 14H127C129.209 14 131 15.7909 131 18V28C131 30.2091 129.209 32 127 32H26C23.7909 32 22 30.2091 22 28V18Z" fill="#E1F0FF"/>
<path d="M29.7207 27.2383C29.916 27.2383 30.1055 27.207 30.2891 27.1445C30.4766 27.082 30.6426 26.9941 30.7871 26.8809C30.9316 26.7715 31.0469 26.6426 31.1328 26.4941C31.2227 26.3418 31.2695 26.1777 31.2734 26.002H32.2988C32.2949 26.2832 32.2207 26.5527 32.0762 26.8105C31.9355 27.0645 31.7461 27.2871 31.5078 27.4785C31.2695 27.6738 30.9961 27.8301 30.6875 27.9473C30.3789 28.0605 30.0566 28.1172 29.7207 28.1172C29.2402 28.1172 28.8203 28.0312 28.4609 27.8594C28.1016 27.6875 27.8027 27.4551 27.5645 27.1621C27.3223 26.873 27.1406 26.5391 27.0195 26.1602C26.8984 25.7773 26.8379 25.375 26.8379 24.9531V24.707C26.8379 24.2891 26.8984 23.8887 27.0195 23.5059C27.1406 23.123 27.3223 22.7852 27.5645 22.4922C27.8027 22.2031 28.1016 21.9727 28.4609 21.8008C28.8203 21.6289 29.2402 21.543 29.7207 21.543C30.0957 21.543 30.4395 21.6035 30.752 21.7246C31.0684 21.8418 31.3418 22.002 31.5723 22.2051C31.7988 22.4121 31.9766 22.6562 32.1055 22.9375C32.2344 23.2188 32.2988 23.5195 32.2988 23.8398H31.2734C31.2695 23.6484 31.2266 23.4688 31.1445 23.3008C31.0664 23.1289 30.959 22.9785 30.8223 22.8496C30.6855 22.7207 30.5215 22.6191 30.3301 22.5449C30.1426 22.4707 29.9395 22.4336 29.7207 22.4336C29.3848 22.4336 29.1016 22.502 28.8711 22.6387C28.6445 22.7715 28.4609 22.9453 28.3203 23.1602C28.1797 23.3789 28.0781 23.623 28.0156 23.8926C27.957 24.1621 27.9277 24.4336 27.9277 24.707V24.9531C27.9277 25.2305 27.957 25.5059 28.0156 25.7793C28.0781 26.0488 28.1797 26.291 28.3203 26.5059C28.457 26.7246 28.6387 26.9023 28.8652 27.0391C29.0957 27.1719 29.3809 27.2383 29.7207 27.2383ZM33.9219 24.7715C33.9219 24.3145 33.9883 23.8906 34.1211 23.5C34.2539 23.1055 34.4453 22.7637 34.6953 22.4746C34.9414 22.1855 35.2422 21.959 35.5977 21.7949C35.9531 21.627 36.3535 21.543 36.7988 21.543C37.248 21.543 37.6504 21.627 38.0059 21.7949C38.3652 21.959 38.6699 22.1855 38.9199 22.4746C39.166 22.7637 39.3555 23.1055 39.4883 23.5C39.6211 23.8906 39.6875 24.3145 39.6875 24.7715V24.9004C39.6875 25.3574 39.6211 25.7812 39.4883 26.1719C39.3555 26.5625 39.166 26.9023 38.9199 27.1914C38.6699 27.4805 38.3672 27.707 38.0117 27.8711C37.6562 28.0352 37.2559 28.1172 36.8105 28.1172C36.3613 28.1172 35.957 28.0352 35.5977 27.8711C35.2422 27.707 34.9414 27.4805 34.6953 27.1914C34.4453 26.9023 34.2539 26.5625 34.1211 26.1719C33.9883 25.7812 33.9219 25.3574 33.9219 24.9004V24.7715ZM35.0059 24.9004C35.0059 25.2129 35.043 25.5117 35.1172 25.7969C35.1914 26.0781 35.3047 26.3262 35.457 26.541C35.6055 26.7559 35.793 26.9258 36.0195 27.0508C36.2461 27.1758 36.5098 27.2383 36.8105 27.2383C37.1074 27.2383 37.3672 27.1758 37.5898 27.0508C37.8164 26.9258 38.0059 26.7559 38.1582 26.541C38.3066 26.3262 38.418 26.0781 38.4922 25.7969C38.5664 25.5117 38.6035 25.2129 38.6035 24.9004V24.7715C38.6035 24.4629 38.5645 24.168 38.4863 23.8867C38.4121 23.6016 38.3008 23.3516 38.1523 23.1367C38 22.9219 37.8105 22.752 37.584 22.627C37.3613 22.498 37.0996 22.4336 36.7988 22.4336C36.498 22.4336 36.2363 22.498 36.0137 22.627C35.791 22.752 35.6055 22.9219 35.457 23.1367C35.3047 23.3516 35.1914 23.6016 35.1172 23.8867C35.043 24.168 35.0059 24.4629 35.0059 24.7715V24.9004ZM41.4336 28V21.6602H42.4062L42.4824 22.5977C42.5762 22.4648 42.6777 22.3438 42.7871 22.2344C42.9004 22.1211 43.0195 22.0234 43.1445 21.9414C43.332 21.8164 43.5352 21.7207 43.7539 21.6543C43.9766 21.584 44.2109 21.5469 44.457 21.543C44.7891 21.543 45.0898 21.5898 45.3594 21.6836C45.6328 21.7773 45.8652 21.9238 46.0566 22.123C46.248 22.3223 46.3945 22.5762 46.4961 22.8848C46.6016 23.1895 46.6543 23.5527 46.6543 23.9746V28H45.5703V23.998C45.5703 23.7168 45.5391 23.4785 45.4766 23.2832C45.4141 23.0879 45.3223 22.9297 45.2012 22.8086C45.0762 22.6875 44.9238 22.5996 44.7441 22.5449C44.5684 22.4902 44.3652 22.4629 44.1348 22.4629C43.9355 22.4629 43.75 22.4922 43.5781 22.5508C43.4062 22.6055 43.248 22.6816 43.1035 22.7793C42.9863 22.8652 42.877 22.9648 42.7754 23.0781C42.6777 23.1914 42.5918 23.3164 42.5176 23.4531V28H41.4336ZM51.207 20.125V21.6602H53.6211V22.498H51.207V25.9434C51.207 26.1895 51.2383 26.3926 51.3008 26.5527C51.3633 26.7129 51.4492 26.8398 51.5586 26.9336C51.668 27.0312 51.793 27.0996 51.9336 27.1387C52.0781 27.1777 52.2305 27.1973 52.3906 27.1973C52.5078 27.1973 52.6289 27.1914 52.7539 27.1797C52.8789 27.1641 53.002 27.1465 53.123 27.127C53.2402 27.1074 53.3496 27.0879 53.4512 27.0684C53.5566 27.0449 53.6426 27.0254 53.709 27.0098L53.8613 27.7773C53.7715 27.832 53.6621 27.8809 53.5332 27.9238C53.4043 27.9629 53.2637 27.9961 53.1113 28.0234C52.959 28.0547 52.7969 28.0781 52.625 28.0938C52.457 28.1094 52.2891 28.1172 52.1211 28.1172C51.8398 28.1172 51.5762 28.0781 51.3301 28C51.0879 27.918 50.877 27.7891 50.6973 27.6133C50.5176 27.4414 50.375 27.2188 50.2695 26.9453C50.168 26.668 50.1172 26.334 50.1172 25.9434V22.498H48.4531V21.6602H50.1172V20.125H51.207ZM58.6484 28.1172C58.2031 28.1172 57.793 28.041 57.418 27.8887C57.0469 27.7363 56.7285 27.5234 56.4629 27.25C56.1973 26.9766 55.9902 26.6523 55.8418 26.2773C55.6934 25.9023 55.6191 25.4941 55.6191 25.0527V24.8066C55.6191 24.2949 55.7012 23.8379 55.8652 23.4355C56.0293 23.0293 56.248 22.6855 56.5215 22.4043C56.791 22.127 57.0977 21.9141 57.4414 21.7656C57.7891 21.6172 58.1445 21.543 58.5078 21.543C58.9648 21.543 59.3633 21.623 59.7031 21.7832C60.0469 21.9395 60.332 22.1562 60.5586 22.4336C60.7852 22.7148 60.9531 23.0449 61.0625 23.4238C61.1758 23.8027 61.2324 24.2129 61.2324 24.6543V25.1406H56.7031V25.1816C56.7305 25.4902 56.791 25.7617 56.8848 25.9961C56.9824 26.2305 57.1152 26.4375 57.2832 26.6172C57.4551 26.8086 57.6621 26.959 57.9043 27.0684C58.1465 27.1777 58.4141 27.2324 58.707 27.2324C59.0938 27.2324 59.4375 27.1543 59.7383 26.998C60.0391 26.8418 60.2891 26.6348 60.4883 26.377L61.1504 26.8926C60.9395 27.2129 60.623 27.498 60.2012 27.748C59.7832 27.9941 59.2656 28.1172 58.6484 28.1172ZM58.5078 22.4336C58.2891 22.4336 58.082 22.4746 57.8867 22.5566C57.6914 22.6348 57.5156 22.75 57.3594 22.9023C57.2031 23.0586 57.0703 23.25 56.9609 23.4766C56.8555 23.6992 56.7812 23.957 56.7383 24.25H60.1484V24.1973C60.1484 24.002 60.1113 23.793 60.0371 23.5703C59.9629 23.3438 59.8594 23.1484 59.7266 22.9844C59.5938 22.8203 59.4258 22.6875 59.2227 22.5859C59.0234 22.4844 58.7852 22.4336 58.5078 22.4336ZM65.6738 24.0098L67.3672 21.6602H68.6387L66.2773 24.7949L68.7031 28H67.4492L65.6973 25.5859L63.9453 28H62.6797L65.1055 24.7949L62.7441 21.6602H63.998L65.6738 24.0098ZM72.8281 20.125V21.6602H75.2422V22.498H72.8281V25.9434C72.8281 26.1895 72.8594 26.3926 72.9219 26.5527C72.9844 26.7129 73.0703 26.8398 73.1797 26.9336C73.2891 27.0312 73.4141 27.0996 73.5547 27.1387C73.6992 27.1777 73.8516 27.1973 74.0117 27.1973C74.1289 27.1973 74.25 27.1914 74.375 27.1797C74.5 27.1641 74.623 27.1465 74.7441 27.127C74.8613 27.1074 74.9707 27.0879 75.0723 27.0684C75.1777 27.0449 75.2637 27.0254 75.3301 27.0098L75.4824 27.7773C75.3926 27.832 75.2832 27.8809 75.1543 27.9238C75.0254 27.9629 74.8848 27.9961 74.7324 28.0234C74.5801 28.0547 74.418 28.0781 74.2461 28.0938C74.0781 28.1094 73.9102 28.1172 73.7422 28.1172C73.4609 28.1172 73.1973 28.0781 72.9512 28C72.709 27.918 72.498 27.7891 72.3184 27.6133C72.1387 27.4414 71.9961 27.2188 71.8906 26.9453C71.7891 26.668 71.7383 26.334 71.7383 25.9434V22.498H70.0742V21.6602H71.7383V20.125H72.8281Z" fill="#0B70DB"/>
<path d="M79.6484 27.2969C79.6484 27.0664 79.7188 26.8691 79.8594 26.7051C80 26.541 80.2129 26.459 80.498 26.459C80.7793 26.459 80.9922 26.541 81.1367 26.7051C81.2852 26.8652 81.3594 27.0625 81.3594 27.2969C81.3594 27.5273 81.2852 27.7207 81.1367 27.877C80.9883 28.0332 80.7754 28.1113 80.498 28.1113C80.2168 28.1113 80.0039 28.0332 79.8594 27.877C79.7188 27.7168 79.6484 27.5234 79.6484 27.2969ZM79.6484 22.1641C79.6484 21.9336 79.7188 21.7363 79.8594 21.5723C80 21.4082 80.2129 21.3262 80.498 21.3262C80.7793 21.3262 80.9922 21.4082 81.1367 21.5723C81.2852 21.7324 81.3594 21.9297 81.3594 22.1641C81.3594 22.3945 81.2852 22.5879 81.1367 22.7441C80.9883 22.9004 80.7754 22.9785 80.498 22.9785C80.2168 22.9785 80.0039 22.9004 79.8594 22.7441C79.7188 22.584 79.6484 22.3906 79.6484 22.1641Z" fill="#5E6E8C"/>
<path d="M84.4766 24.7773C84.4766 24.3047 84.5332 23.8711 84.6465 23.4766C84.7637 23.0781 84.9316 22.7363 85.1504 22.4512C85.3691 22.166 85.6348 21.9434 85.9473 21.7832C86.2598 21.623 86.6133 21.543 87.0078 21.543C87.2617 21.543 87.4941 21.5723 87.7051 21.6309C87.9199 21.6895 88.1133 21.7754 88.2852 21.8887C88.3789 21.9473 88.4668 22.0156 88.5488 22.0938C88.6348 22.1719 88.7148 22.2578 88.7891 22.3516L88.8418 21.6602H89.8262V27.8652C89.8262 28.2832 89.7598 28.6543 89.627 28.9785C89.498 29.3027 89.3164 29.5781 89.082 29.8047C88.8438 30.0312 88.5605 30.2031 88.2324 30.3203C87.9043 30.4375 87.541 30.4961 87.1426 30.4961C86.9785 30.4961 86.791 30.4766 86.5801 30.4375C86.3691 30.4023 86.1562 30.3418 85.9414 30.2559C85.7227 30.1738 85.5117 30.0625 85.3086 29.9219C85.1094 29.7812 84.9375 29.6074 84.793 29.4004L85.3555 28.75C85.4883 28.9102 85.625 29.0449 85.7656 29.1543C85.9062 29.2676 86.0488 29.3574 86.1934 29.4238C86.3379 29.4902 86.4824 29.5371 86.627 29.5645C86.7715 29.5957 86.916 29.6113 87.0605 29.6113C87.3184 29.6113 87.5508 29.5742 87.7578 29.5C87.9648 29.4258 88.1426 29.3164 88.291 29.1719C88.4355 29.0312 88.5469 28.8555 88.625 28.6445C88.7031 28.4336 88.7422 28.1914 88.7422 27.918V27.373C88.6602 27.4668 88.5723 27.5527 88.4785 27.6309C88.3887 27.709 88.291 27.7773 88.1855 27.8359C88.0215 27.9258 87.8398 27.9941 87.6406 28.041C87.4414 28.0918 87.2266 28.1172 86.9961 28.1172C86.6094 28.1172 86.2598 28.0352 85.9473 27.8711C85.6348 27.707 85.3711 27.4805 85.1562 27.1914C84.9375 26.9023 84.7695 26.5625 84.6523 26.1719C84.5352 25.7773 84.4766 25.3535 84.4766 24.9004V24.7773ZM85.5605 24.9004C85.5605 25.209 85.5918 25.502 85.6543 25.7793C85.7207 26.0566 85.8242 26.3008 85.9648 26.5117C86.1016 26.7227 86.2773 26.8906 86.4922 27.0156C86.707 27.1367 86.9648 27.1973 87.2656 27.1973C87.4531 27.1973 87.6211 27.1758 87.7695 27.1328C87.9219 27.0859 88.0586 27.0215 88.1797 26.9395C88.2969 26.8574 88.4023 26.7598 88.4961 26.6465C88.5898 26.5332 88.6719 26.4082 88.7422 26.2715V23.3652C88.6719 23.2324 88.5898 23.1113 88.4961 23.002C88.4023 22.8926 88.2949 22.7969 88.1738 22.7148C88.0527 22.6367 87.918 22.5762 87.7695 22.5332C87.6211 22.4863 87.457 22.4629 87.2773 22.4629C86.9727 22.4629 86.7109 22.5254 86.4922 22.6504C86.2773 22.7754 86.1016 22.9434 85.9648 23.1543C85.8242 23.3691 85.7207 23.6172 85.6543 23.8984C85.5918 24.1758 85.5605 24.4688 85.5605 24.7773V24.9004ZM92.0527 19H95.293V27.0625H97.3613V28H92.0527V27.0625H94.209V19.9434H92.0527V19ZM98.7852 24.7715C98.7852 24.3145 98.8516 23.8906 98.9844 23.5C99.1172 23.1055 99.3086 22.7637 99.5586 22.4746C99.8047 22.1855 100.105 21.959 100.461 21.7949C100.816 21.627 101.217 21.543 101.662 21.543C102.111 21.543 102.514 21.627 102.869 21.7949C103.229 21.959 103.533 22.1855 103.783 22.4746C104.029 22.7637 104.219 23.1055 104.352 23.5C104.484 23.8906 104.551 24.3145 104.551 24.7715V24.9004C104.551 25.3574 104.484 25.7812 104.352 26.1719C104.219 26.5625 104.029 26.9023 103.783 27.1914C103.533 27.4805 103.23 27.707 102.875 27.8711C102.52 28.0352 102.119 28.1172 101.674 28.1172C101.225 28.1172 100.82 28.0352 100.461 27.8711C100.105 27.707 99.8047 27.4805 99.5586 27.1914C99.3086 26.9023 99.1172 26.5625 98.9844 26.1719C98.8516 25.7812 98.7852 25.3574 98.7852 24.9004V24.7715ZM99.8691 24.9004C99.8691 25.2129 99.9062 25.5117 99.9805 25.7969C100.055 26.0781 100.168 26.3262 100.32 26.541C100.469 26.7559 100.656 26.9258 100.883 27.0508C101.109 27.1758 101.373 27.2383 101.674 27.2383C101.971 27.2383 102.23 27.1758 102.453 27.0508C102.68 26.9258 102.869 26.7559 103.021 26.541C103.17 26.3262 103.281 26.0781 103.355 25.7969C103.43 25.5117 103.467 25.2129 103.467 24.9004V24.7715C103.467 24.4629 103.428 24.168 103.35 23.8867C103.275 23.6016 103.164 23.3516 103.016 23.1367C102.863 22.9219 102.674 22.752 102.447 22.627C102.225 22.498 101.963 22.4336 101.662 22.4336C101.361 22.4336 101.1 22.498 100.877 22.627C100.654 22.752 100.469 22.9219 100.32 23.1367C100.168 23.3516 100.055 23.6016 99.9805 23.8867C99.9062 24.168 99.8691 24.4629 99.8691 24.7715V24.9004ZM111.67 24.9004C111.67 25.1777 111.648 25.4453 111.605 25.7031C111.566 25.957 111.508 26.1953 111.43 26.418C111.324 26.7109 111.186 26.9746 111.014 27.209C110.846 27.4395 110.643 27.6309 110.404 27.7832C110.232 27.8887 110.043 27.9707 109.836 28.0293C109.633 28.0879 109.412 28.1172 109.174 28.1172C108.9 28.1172 108.65 28.084 108.424 28.0176C108.201 27.9512 108 27.8555 107.82 27.7305C107.734 27.668 107.652 27.5996 107.574 27.5254C107.496 27.4512 107.422 27.3691 107.352 27.2793L107.299 28H106.303V19H107.387V22.3398C107.477 22.2266 107.576 22.125 107.686 22.0352C107.795 21.9414 107.912 21.8613 108.037 21.7949C108.193 21.7129 108.365 21.6504 108.553 21.6074C108.74 21.5645 108.943 21.543 109.162 21.543C109.436 21.543 109.688 21.5801 109.918 21.6543C110.148 21.7285 110.357 21.832 110.545 21.9648C110.713 22.0898 110.863 22.2422 110.996 22.4219C111.129 22.5977 111.246 22.7949 111.348 23.0137C111.453 23.2598 111.533 23.5332 111.588 23.834C111.643 24.1309 111.67 24.4453 111.67 24.7773V24.9004ZM110.586 24.7773C110.586 24.5781 110.572 24.3848 110.545 24.1973C110.521 24.0059 110.484 23.8262 110.434 23.6582C110.363 23.4512 110.271 23.2617 110.158 23.0898C110.045 22.918 109.906 22.7832 109.742 22.6855C109.629 22.6152 109.502 22.5605 109.361 22.5215C109.221 22.4824 109.064 22.4629 108.893 22.4629C108.705 22.4629 108.533 22.4883 108.377 22.5391C108.221 22.5859 108.082 22.6523 107.961 22.7383C107.836 22.8281 107.725 22.9336 107.627 23.0547C107.533 23.1719 107.453 23.3008 107.387 23.4414V26.2129C107.457 26.3535 107.539 26.4844 107.633 26.6055C107.73 26.7227 107.842 26.8262 107.967 26.916C108.092 27.0059 108.232 27.0762 108.389 27.127C108.545 27.1738 108.717 27.1973 108.904 27.1973C109.084 27.1973 109.248 27.1758 109.396 27.1328C109.545 27.0859 109.678 27.0195 109.795 26.9336C109.951 26.8242 110.082 26.6855 110.188 26.5176C110.293 26.3496 110.377 26.1621 110.439 25.9551C110.49 25.7988 110.527 25.6309 110.551 25.4512C110.574 25.2715 110.586 25.0879 110.586 24.9004V24.7773ZM117.67 28C117.627 27.918 117.592 27.8164 117.564 27.6953C117.541 27.5703 117.523 27.4414 117.512 27.3086C117.402 27.418 117.279 27.5215 117.143 27.6191C117.01 27.7168 116.863 27.8027 116.703 27.877C116.539 27.9512 116.365 28.0098 116.182 28.0527C115.998 28.0957 115.803 28.1172 115.596 28.1172C115.26 28.1172 114.955 28.0684 114.682 27.9707C114.412 27.873 114.184 27.7402 113.996 27.5723C113.805 27.4082 113.656 27.2129 113.551 26.9863C113.449 26.7559 113.398 26.5078 113.398 26.2422C113.398 25.8945 113.467 25.5898 113.604 25.3281C113.744 25.0664 113.941 24.8477 114.195 24.6719C114.449 24.5 114.754 24.3711 115.109 24.2852C115.469 24.1992 115.869 24.1562 116.311 24.1562H117.494V23.6582C117.494 23.4668 117.459 23.2949 117.389 23.1426C117.318 22.9902 117.219 22.8594 117.09 22.75C116.961 22.6445 116.803 22.5625 116.615 22.5039C116.432 22.4453 116.225 22.416 115.994 22.416C115.779 22.416 115.586 22.4434 115.414 22.498C115.246 22.5527 115.104 22.625 114.986 22.7148C114.869 22.8047 114.777 22.9121 114.711 23.0371C114.648 23.1582 114.617 23.2852 114.617 23.418H113.527C113.531 23.1875 113.59 22.9609 113.703 22.7383C113.82 22.5156 113.988 22.3145 114.207 22.1348C114.422 21.959 114.684 21.8164 114.992 21.707C115.305 21.5977 115.658 21.543 116.053 21.543C116.412 21.543 116.746 21.5879 117.055 21.6777C117.363 21.7637 117.631 21.8945 117.857 22.0703C118.08 22.25 118.256 22.4727 118.385 22.7383C118.514 23.0039 118.578 23.3145 118.578 23.6699V26.6172C118.578 26.8281 118.598 27.0527 118.637 27.291C118.676 27.5254 118.73 27.7305 118.801 27.9062V28H117.67ZM115.754 27.1738C115.965 27.1738 116.162 27.1465 116.346 27.0918C116.529 27.0371 116.697 26.9648 116.85 26.875C116.998 26.7852 117.127 26.6836 117.236 26.5703C117.346 26.4531 117.432 26.332 117.494 26.207V24.9238H116.486C116.111 24.9238 115.783 24.957 115.502 25.0234C115.225 25.0859 115.004 25.1836 114.84 25.3164C114.723 25.4102 114.633 25.5215 114.57 25.6504C114.512 25.7793 114.482 25.9258 114.482 26.0898C114.482 26.2461 114.508 26.3906 114.559 26.5234C114.613 26.6562 114.693 26.7695 114.799 26.8633C114.904 26.9609 115.037 27.0371 115.197 27.0918C115.357 27.1465 115.543 27.1738 115.754 27.1738ZM120.881 19H124.121V27.0625H126.189V28H120.881V27.0625H123.037V19.9434H120.881V19Z" fill="#14171F"/>
<path d="M138 18C138 15.7909 139.791 14 142 14H229C231.209 14 233 15.7909 233 18V28C233 30.2091 231.209 32 229 32H142C139.791 32 138 30.2091 138 28V18Z" fill="#E1F0FF"/>
<path d="M144.637 28V22.498H142.891V21.6602H144.637V21.2148C144.637 20.8086 144.695 20.4531 144.812 20.1484C144.934 19.8398 145.104 19.582 145.322 19.375C145.537 19.168 145.797 19.0117 146.102 18.9062C146.406 18.8008 146.746 18.748 147.121 18.748C147.277 18.748 147.432 18.7578 147.584 18.7773C147.736 18.793 147.887 18.8145 148.035 18.8418C148.133 18.8613 148.23 18.8828 148.328 18.9062C148.426 18.9258 148.525 18.9492 148.627 18.9766L148.498 19.873C148.338 19.8184 148.15 19.7715 147.936 19.7324C147.725 19.6895 147.498 19.668 147.256 19.668C147.01 19.668 146.791 19.6992 146.6 19.7617C146.412 19.8203 146.256 19.9102 146.131 20.0312C145.998 20.1562 145.896 20.3184 145.826 20.5176C145.76 20.7168 145.727 20.9492 145.727 21.2148V21.6602H148.17V22.498H145.727V28H144.637ZM150.396 21.6602H153.637V27.0625H155.705V28H150.396V27.0625H152.553V22.6035H150.396V21.6602ZM152.412 19.9961C152.412 19.9023 152.426 19.8145 152.453 19.7324C152.484 19.6504 152.531 19.5801 152.594 19.5215C152.645 19.4707 152.709 19.4316 152.787 19.4043C152.869 19.373 152.961 19.3574 153.062 19.3574C153.164 19.3574 153.254 19.373 153.332 19.4043C153.41 19.4316 153.475 19.4707 153.525 19.5215C153.588 19.5762 153.635 19.6445 153.666 19.7266C153.697 19.8086 153.713 19.8984 153.713 19.9961C153.713 20.1719 153.658 20.3184 153.549 20.4355C153.439 20.5527 153.277 20.6113 153.062 20.6113C152.844 20.6113 152.68 20.5527 152.57 20.4355C152.465 20.3184 152.412 20.1719 152.412 19.9961ZM157.604 19H160.844V27.0625H162.912V28H157.604V27.0625H159.76V19.9434H157.604V19ZM167.441 28.1172C166.996 28.1172 166.586 28.041 166.211 27.8887C165.84 27.7363 165.521 27.5234 165.256 27.25C164.99 26.9766 164.783 26.6523 164.635 26.2773C164.486 25.9023 164.412 25.4941 164.412 25.0527V24.8066C164.412 24.2949 164.494 23.8379 164.658 23.4355C164.822 23.0293 165.041 22.6855 165.314 22.4043C165.584 22.127 165.891 21.9141 166.234 21.7656C166.582 21.6172 166.938 21.543 167.301 21.543C167.758 21.543 168.156 21.623 168.496 21.7832C168.84 21.9395 169.125 22.1562 169.352 22.4336C169.578 22.7148 169.746 23.0449 169.855 23.4238C169.969 23.8027 170.025 24.2129 170.025 24.6543V25.1406H165.496V25.1816C165.523 25.4902 165.584 25.7617 165.678 25.9961C165.775 26.2305 165.908 26.4375 166.076 26.6172C166.248 26.8086 166.455 26.959 166.697 27.0684C166.939 27.1777 167.207 27.2324 167.5 27.2324C167.887 27.2324 168.23 27.1543 168.531 26.998C168.832 26.8418 169.082 26.6348 169.281 26.377L169.943 26.8926C169.732 27.2129 169.416 27.498 168.994 27.748C168.576 27.9941 168.059 28.1172 167.441 28.1172ZM167.301 22.4336C167.082 22.4336 166.875 22.4746 166.68 22.5566C166.484 22.6348 166.309 22.75 166.152 22.9023C165.996 23.0586 165.863 23.25 165.754 23.4766C165.648 23.6992 165.574 23.957 165.531 24.25H168.941V24.1973C168.941 24.002 168.904 23.793 168.83 23.5703C168.756 23.3438 168.652 23.1484 168.52 22.9844C168.387 22.8203 168.219 22.6875 168.016 22.5859C167.816 22.4844 167.578 22.4336 167.301 22.4336Z" fill="#0B70DB"/>
<path d="M174.027 27.2969C174.027 27.0664 174.098 26.8691 174.238 26.7051C174.379 26.541 174.592 26.459 174.877 26.459C175.158 26.459 175.371 26.541 175.516 26.7051C175.664 26.8652 175.738 27.0625 175.738 27.2969C175.738 27.5273 175.664 27.7207 175.516 27.877C175.367 28.0332 175.154 28.1113 174.877 28.1113C174.596 28.1113 174.383 28.0332 174.238 27.877C174.098 27.7168 174.027 27.5234 174.027 27.2969ZM174.027 22.1641C174.027 21.9336 174.098 21.7363 174.238 21.5723C174.379 21.4082 174.592 21.3262 174.877 21.3262C175.158 21.3262 175.371 21.4082 175.516 21.5723C175.664 21.7324 175.738 21.9297 175.738 22.1641C175.738 22.3945 175.664 22.5879 175.516 22.7441C175.367 22.9004 175.154 22.9785 174.877 22.9785C174.596 22.9785 174.383 22.9004 174.238 22.7441C174.098 22.584 174.027 22.3906 174.027 22.1641Z" fill="#5E6E8C"/>
<path d="M179.049 30.4375V21.6602H180.039L180.092 22.3516C180.178 22.2422 180.271 22.1445 180.373 22.0586C180.475 21.9688 180.584 21.8926 180.701 21.8301C180.865 21.7363 181.047 21.666 181.246 21.6191C181.449 21.5684 181.666 21.543 181.896 21.543C182.303 21.543 182.662 21.623 182.975 21.7832C183.287 21.9434 183.549 22.166 183.76 22.4512C183.971 22.7363 184.131 23.0781 184.24 23.4766C184.35 23.8711 184.404 24.3047 184.404 24.7773V24.9004C184.404 25.3535 184.35 25.7773 184.24 26.1719C184.131 26.5625 183.971 26.9023 183.76 27.1914C183.549 27.4805 183.287 27.707 182.975 27.8711C182.666 28.0352 182.312 28.1172 181.914 28.1172C181.672 28.1172 181.445 28.0918 181.234 28.041C181.027 27.9902 180.84 27.918 180.672 27.8242C180.57 27.7656 180.475 27.7012 180.385 27.6309C180.295 27.5566 180.211 27.4766 180.133 27.3906V30.4375H179.049ZM183.32 24.7773C183.32 24.4688 183.285 24.1758 183.215 23.8984C183.148 23.6172 183.045 23.3691 182.904 23.1543C182.76 22.9434 182.578 22.7754 182.359 22.6504C182.141 22.5254 181.879 22.4629 181.574 22.4629C181.406 22.4629 181.25 22.4824 181.105 22.5215C180.965 22.5605 180.838 22.6172 180.725 22.6914C180.6 22.7656 180.488 22.8574 180.391 22.9668C180.293 23.0762 180.207 23.1973 180.133 23.3301V26.3828C180.199 26.5 180.275 26.6094 180.361 26.7109C180.447 26.8125 180.545 26.8984 180.654 26.9688C180.779 27.0508 180.918 27.1152 181.07 27.1621C181.227 27.209 181.398 27.2324 181.586 27.2324C181.887 27.2324 182.146 27.1699 182.365 27.0449C182.584 26.916 182.764 26.7441 182.904 26.5293C183.045 26.3145 183.148 26.0664 183.215 25.7852C183.285 25.5039 183.32 25.209 183.32 24.9004V24.7773ZM185.957 24.7715C185.957 24.3145 186.023 23.8906 186.156 23.5C186.289 23.1055 186.48 22.7637 186.73 22.4746C186.977 22.1855 187.277 21.959 187.633 21.7949C187.988 21.627 188.389 21.543 188.834 21.543C189.283 21.543 189.686 21.627 190.041 21.7949C190.4 21.959 190.705 22.1855 190.955 22.4746C191.201 22.7637 191.391 23.1055 191.523 23.5C191.656 23.8906 191.723 24.3145 191.723 24.7715V24.9004C191.723 25.3574 191.656 25.7812 191.523 26.1719C191.391 26.5625 191.201 26.9023 190.955 27.1914C190.705 27.4805 190.402 27.707 190.047 27.8711C189.691 28.0352 189.291 28.1172 188.846 28.1172C188.396 28.1172 187.992 28.0352 187.633 27.8711C187.277 27.707 186.977 27.4805 186.73 27.1914C186.48 26.9023 186.289 26.5625 186.156 26.1719C186.023 25.7812 185.957 25.3574 185.957 24.9004V24.7715ZM187.041 24.9004C187.041 25.2129 187.078 25.5117 187.152 25.7969C187.227 26.0781 187.34 26.3262 187.492 26.541C187.641 26.7559 187.828 26.9258 188.055 27.0508C188.281 27.1758 188.545 27.2383 188.846 27.2383C189.143 27.2383 189.402 27.1758 189.625 27.0508C189.852 26.9258 190.041 26.7559 190.193 26.541C190.342 26.3262 190.453 26.0781 190.527 25.7969C190.602 25.5117 190.639 25.2129 190.639 24.9004V24.7715C190.639 24.4629 190.6 24.168 190.521 23.8867C190.447 23.6016 190.336 23.3516 190.188 23.1367C190.035 22.9219 189.846 22.752 189.619 22.627C189.396 22.498 189.135 22.4336 188.834 22.4336C188.533 22.4336 188.271 22.498 188.049 22.627C187.826 22.752 187.641 22.9219 187.492 23.1367C187.34 23.3516 187.227 23.6016 187.152 23.8867C187.078 24.168 187.041 24.4629 187.041 24.7715V24.9004ZM193.967 21.6602L193.996 22.2578C194.125 22.0352 194.293 21.8613 194.5 21.7363C194.711 21.6113 194.965 21.5469 195.262 21.543C195.43 21.543 195.58 21.5625 195.713 21.6016C195.85 21.6367 195.969 21.6895 196.07 21.7598C196.145 21.8145 196.211 21.8809 196.27 21.959C196.332 22.0371 196.385 22.125 196.428 22.2227C196.482 22.1328 196.547 22.0488 196.621 21.9707C196.695 21.8926 196.775 21.8242 196.861 21.7656C196.971 21.6992 197.092 21.6465 197.225 21.6074C197.361 21.5684 197.51 21.5469 197.67 21.543C197.889 21.543 198.086 21.5762 198.262 21.6426C198.438 21.7051 198.586 21.7988 198.707 21.9238C198.84 22.0645 198.941 22.248 199.012 22.4746C199.082 22.6973 199.117 22.9609 199.117 23.2656V28H198.086V23.2539C198.086 23.1211 198.07 23.0039 198.039 22.9023C198.008 22.8008 197.963 22.7168 197.904 22.6504C197.842 22.5879 197.764 22.541 197.67 22.5098C197.58 22.4785 197.475 22.4629 197.354 22.4629C197.225 22.4629 197.113 22.4805 197.02 22.5156C196.926 22.5508 196.848 22.5977 196.785 22.6562C196.723 22.7188 196.674 22.791 196.639 22.873C196.604 22.9512 196.58 23.0391 196.568 23.1367C196.568 23.1562 196.568 23.1758 196.568 23.1953C196.568 23.2109 196.568 23.2305 196.568 23.2539V28H195.537V23.248C195.537 23.1152 195.521 22.998 195.49 22.8965C195.463 22.7949 195.418 22.7109 195.355 22.6445C195.297 22.582 195.223 22.5371 195.133 22.5098C195.047 22.4785 194.945 22.4629 194.828 22.4629C194.699 22.4629 194.586 22.4785 194.488 22.5098C194.395 22.5371 194.314 22.5781 194.248 22.6328C194.197 22.6758 194.152 22.7246 194.113 22.7793C194.078 22.834 194.049 22.8926 194.025 22.9551V28H192.994V21.6602H193.967ZM202.562 27.2969C202.562 27.0664 202.633 26.8691 202.773 26.7051C202.914 26.541 203.127 26.459 203.412 26.459C203.693 26.459 203.906 26.541 204.051 26.7051C204.199 26.8652 204.273 27.0625 204.273 27.2969C204.273 27.5273 204.199 27.7207 204.051 27.877C203.902 28.0332 203.689 28.1113 203.412 28.1113C203.131 28.1113 202.918 28.0332 202.773 27.877C202.633 27.7168 202.562 27.5234 202.562 27.2969ZM210.502 24.0098L212.195 21.6602H213.467L211.105 24.7949L213.531 28H212.277L210.525 25.5859L208.773 28H207.508L209.934 24.7949L207.572 21.6602H208.826L210.502 24.0098ZM215.588 21.6602L215.617 22.2578C215.746 22.0352 215.914 21.8613 216.121 21.7363C216.332 21.6113 216.586 21.5469 216.883 21.543C217.051 21.543 217.201 21.5625 217.334 21.6016C217.471 21.6367 217.59 21.6895 217.691 21.7598C217.766 21.8145 217.832 21.8809 217.891 21.959C217.953 22.0371 218.006 22.125 218.049 22.2227C218.104 22.1328 218.168 22.0488 218.242 21.9707C218.316 21.8926 218.396 21.8242 218.482 21.7656C218.592 21.6992 218.713 21.6465 218.846 21.6074C218.982 21.5684 219.131 21.5469 219.291 21.543C219.51 21.543 219.707 21.5762 219.883 21.6426C220.059 21.7051 220.207 21.7988 220.328 21.9238C220.461 22.0645 220.562 22.248 220.633 22.4746C220.703 22.6973 220.738 22.9609 220.738 23.2656V28H219.707V23.2539C219.707 23.1211 219.691 23.0039 219.66 22.9023C219.629 22.8008 219.584 22.7168 219.525 22.6504C219.463 22.5879 219.385 22.541 219.291 22.5098C219.201 22.4785 219.096 22.4629 218.975 22.4629C218.846 22.4629 218.734 22.4805 218.641 22.5156C218.547 22.5508 218.469 22.5977 218.406 22.6562C218.344 22.7188 218.295 22.791 218.26 22.873C218.225 22.9512 218.201 23.0391 218.189 23.1367C218.189 23.1562 218.189 23.1758 218.189 23.1953C218.189 23.2109 218.189 23.2305 218.189 23.2539V28H217.158V23.248C217.158 23.1152 217.143 22.998 217.111 22.8965C217.084 22.7949 217.039 22.7109 216.977 22.6445C216.918 22.582 216.844 22.5371 216.754 22.5098C216.668 22.4785 216.566 22.4629 216.449 22.4629C216.32 22.4629 216.207 22.4785 216.109 22.5098C216.016 22.5371 215.936 22.5781 215.869 22.6328C215.818 22.6758 215.773 22.7246 215.734 22.7793C215.699 22.834 215.67 22.8926 215.646 22.9551V28H214.615V21.6602H215.588ZM222.467 19H225.707V27.0625H227.775V28H222.467V27.0625H224.623V19.9434H222.467V19Z" fill="#14171F"/>
<path d="M240 18C240 15.7909 241.791 14 244 14H281C283.209 14 285 15.7909 285 18V28C285 30.2091 283.209 32 281 32H244C241.791 32 240 30.2091 240 28V18Z" fill="#E6EBF2"/>
<path d="M245.189 19H248.43V27.0625H250.498V28H245.189V27.0625H247.346V19.9434H245.189V19ZM251.922 24.7715C251.922 24.3145 251.988 23.8906 252.121 23.5C252.254 23.1055 252.445 22.7637 252.695 22.4746C252.941 22.1855 253.242 21.959 253.598 21.7949C253.953 21.627 254.354 21.543 254.799 21.543C255.248 21.543 255.65 21.627 256.006 21.7949C256.365 21.959 256.67 22.1855 256.92 22.4746C257.166 22.7637 257.355 23.1055 257.488 23.5C257.621 23.8906 257.688 24.3145 257.688 24.7715V24.9004C257.688 25.3574 257.621 25.7812 257.488 26.1719C257.355 26.5625 257.166 26.9023 256.92 27.1914C256.67 27.4805 256.367 27.707 256.012 27.8711C255.656 28.0352 255.256 28.1172 254.811 28.1172C254.361 28.1172 253.957 28.0352 253.598 27.8711C253.242 27.707 252.941 27.4805 252.695 27.1914C252.445 26.9023 252.254 26.5625 252.121 26.1719C251.988 25.7812 251.922 25.3574 251.922 24.9004V24.7715ZM253.006 24.9004C253.006 25.2129 253.043 25.5117 253.117 25.7969C253.191 26.0781 253.305 26.3262 253.457 26.541C253.605 26.7559 253.793 26.9258 254.02 27.0508C254.246 27.1758 254.51 27.2383 254.811 27.2383C255.107 27.2383 255.367 27.1758 255.59 27.0508C255.816 26.9258 256.006 26.7559 256.158 26.541C256.307 26.3262 256.418 26.0781 256.492 25.7969C256.566 25.5117 256.604 25.2129 256.604 24.9004V24.7715C256.604 24.4629 256.564 24.168 256.486 23.8867C256.412 23.6016 256.301 23.3516 256.152 23.1367C256 22.9219 255.811 22.752 255.584 22.627C255.361 22.498 255.1 22.4336 254.799 22.4336C254.498 22.4336 254.236 22.498 254.014 22.627C253.791 22.752 253.605 22.9219 253.457 23.1367C253.305 23.3516 253.191 23.6016 253.117 23.8867C253.043 24.168 253.006 24.4629 253.006 24.7715V24.9004ZM259.234 24.7773C259.234 24.3047 259.291 23.8711 259.404 23.4766C259.521 23.0781 259.689 22.7363 259.908 22.4512C260.127 22.166 260.393 21.9434 260.705 21.7832C261.018 21.623 261.371 21.543 261.766 21.543C262.02 21.543 262.252 21.5723 262.463 21.6309C262.678 21.6895 262.871 21.7754 263.043 21.8887C263.137 21.9473 263.225 22.0156 263.307 22.0938C263.393 22.1719 263.473 22.2578 263.547 22.3516L263.6 21.6602H264.584V27.8652C264.584 28.2832 264.518 28.6543 264.385 28.9785C264.256 29.3027 264.074 29.5781 263.84 29.8047C263.602 30.0312 263.318 30.2031 262.99 30.3203C262.662 30.4375 262.299 30.4961 261.9 30.4961C261.736 30.4961 261.549 30.4766 261.338 30.4375C261.127 30.4023 260.914 30.3418 260.699 30.2559C260.48 30.1738 260.27 30.0625 260.066 29.9219C259.867 29.7812 259.695 29.6074 259.551 29.4004L260.113 28.75C260.246 28.9102 260.383 29.0449 260.523 29.1543C260.664 29.2676 260.807 29.3574 260.951 29.4238C261.096 29.4902 261.24 29.5371 261.385 29.5645C261.529 29.5957 261.674 29.6113 261.818 29.6113C262.076 29.6113 262.309 29.5742 262.516 29.5C262.723 29.4258 262.9 29.3164 263.049 29.1719C263.193 29.0312 263.305 28.8555 263.383 28.6445C263.461 28.4336 263.5 28.1914 263.5 27.918V27.373C263.418 27.4668 263.33 27.5527 263.236 27.6309C263.146 27.709 263.049 27.7773 262.943 27.8359C262.779 27.9258 262.598 27.9941 262.398 28.041C262.199 28.0918 261.984 28.1172 261.754 28.1172C261.367 28.1172 261.018 28.0352 260.705 27.8711C260.393 27.707 260.129 27.4805 259.914 27.1914C259.695 26.9023 259.527 26.5625 259.41 26.1719C259.293 25.7773 259.234 25.3535 259.234 24.9004V24.7773ZM260.318 24.9004C260.318 25.209 260.35 25.502 260.412 25.7793C260.479 26.0566 260.582 26.3008 260.723 26.5117C260.859 26.7227 261.035 26.8906 261.25 27.0156C261.465 27.1367 261.723 27.1973 262.023 27.1973C262.211 27.1973 262.379 27.1758 262.527 27.1328C262.68 27.0859 262.816 27.0215 262.938 26.9395C263.055 26.8574 263.16 26.7598 263.254 26.6465C263.348 26.5332 263.43 26.4082 263.5 26.2715V23.3652C263.43 23.2324 263.348 23.1113 263.254 23.002C263.16 22.8926 263.053 22.7969 262.932 22.7148C262.811 22.6367 262.676 22.5762 262.527 22.5332C262.379 22.4863 262.215 22.4629 262.035 22.4629C261.73 22.4629 261.469 22.5254 261.25 22.6504C261.035 22.7754 260.859 22.9434 260.723 23.1543C260.582 23.3691 260.479 23.6172 260.412 23.8984C260.35 24.1758 260.318 24.4688 260.318 24.7773V24.9004ZM271.035 25.1348H272.225V26.0195H271.035V28H269.951V26.0195H266.061V25.3809L269.881 19.4688H271.035V25.1348ZM267.262 25.1348H269.951V20.9102L269.775 21.2383L267.262 25.1348ZM274.58 21.6602H277.779V28.041C277.779 28.4473 277.723 28.8066 277.609 29.1191C277.5 29.4316 277.34 29.6934 277.129 29.9043C276.914 30.1191 276.652 30.2812 276.344 30.3906C276.039 30.5039 275.691 30.5605 275.301 30.5605C275.18 30.5605 275.062 30.5586 274.949 30.5547C274.836 30.5508 274.725 30.5449 274.615 30.5371C274.525 30.5293 274.436 30.5176 274.346 30.502C274.256 30.4902 274.162 30.4766 274.064 30.4609L274.141 29.5703C274.207 29.582 274.291 29.5918 274.393 29.5996C274.494 29.6113 274.598 29.6191 274.703 29.623C274.805 29.6309 274.902 29.6348 274.996 29.6348C275.094 29.6387 275.17 29.6406 275.225 29.6406C275.428 29.6406 275.619 29.6133 275.799 29.5586C275.979 29.5078 276.135 29.4199 276.268 29.2949C276.4 29.1699 276.504 29.0039 276.578 28.7969C276.656 28.5938 276.695 28.3418 276.695 28.041V22.6035H274.58V21.6602ZM276.543 19.9902C276.543 19.8145 276.596 19.666 276.701 19.5449C276.807 19.4199 276.969 19.3574 277.188 19.3574C277.406 19.3574 277.57 19.4199 277.68 19.5449C277.789 19.666 277.844 19.8145 277.844 19.9902C277.844 20.166 277.789 20.3145 277.68 20.4355C277.57 20.5527 277.406 20.6113 277.188 20.6113C276.969 20.6113 276.807 20.5527 276.701 20.4355C276.596 20.3145 276.543 20.166 276.543 19.9902Z" fill="#14171F"/>
</g>
<rect width="346" height="106" transform="translate(17 48)" fill="#F9FAFB"/>
<path d="M36.9997 60.333C36.1242 60.333 35.2573 60.5054 34.4485 60.8405C33.6396 61.1755 32.9047 61.6666 32.2856 62.2856C31.0354 63.5359 30.333 65.2316 30.333 66.9997C30.333 69.9463 32.2463 72.4463 34.893 73.333C35.2263 73.3863 35.333 73.1797 35.333 72.9997C35.333 72.8463 35.333 72.4263 35.333 71.873C33.4863 72.273 33.093 70.9797 33.093 70.9797C32.7863 70.2063 32.353 69.9997 32.353 69.9997C31.7463 69.5863 32.3997 69.5997 32.3997 69.5997C33.0663 69.6463 33.4197 70.2863 33.4197 70.2863C33.9997 71.2997 34.9797 70.9997 35.3597 70.8397C35.4197 70.4063 35.593 70.113 35.7797 69.9463C34.2997 69.7797 32.7463 69.2063 32.7463 66.6663C32.7463 65.9263 32.9997 65.333 33.433 64.8597C33.3663 64.693 33.133 63.9997 33.4997 63.0997C33.4997 63.0997 34.0597 62.9197 35.333 63.7797C35.8597 63.633 36.433 63.5597 36.9997 63.5597C37.5663 63.5597 38.1397 63.633 38.6663 63.7797C39.9397 62.9197 40.4997 63.0997 40.4997 63.0997C40.8663 63.9997 40.633 64.693 40.5663 64.8597C40.9997 65.333 41.253 65.9263 41.253 66.6663C41.253 69.213 39.693 69.773 38.2063 69.9397C38.4463 70.1463 38.6663 70.553 38.6663 71.173C38.6663 72.0663 38.6663 72.7863 38.6663 72.9997C38.6663 73.1797 38.773 73.393 39.113 73.333C41.7597 72.4397 43.6663 69.9463 43.6663 66.9997C43.6663 66.1242 43.4939 65.2573 43.1589 64.4485C42.8238 63.6396 42.3328 62.9047 41.7137 62.2856C41.0947 61.6666 40.3597 61.1755 39.5509 60.8405C38.7421 60.5054 37.8752 60.333 36.9997 60.333Z" fill="#5E6E8C"/>
<rect x="124" y="61" width="43" height="12" fill="#FFDB45"/>
<path d="M127.61 73.2344V65.1885H128.518L128.566 65.8223C128.645 65.722 128.731 65.6325 128.824 65.5537C128.917 65.4714 129.017 65.4015 129.125 65.3442C129.275 65.2583 129.441 65.1938 129.624 65.1509C129.81 65.1043 130.009 65.0811 130.22 65.0811C130.593 65.0811 130.922 65.1545 131.208 65.3013C131.495 65.4481 131.735 65.6522 131.928 65.9136C132.122 66.175 132.268 66.4883 132.369 66.8535C132.469 67.2152 132.519 67.6126 132.519 68.0459V68.1587C132.519 68.5741 132.469 68.9626 132.369 69.3242C132.268 69.6823 132.122 69.9938 131.928 70.2588C131.735 70.5238 131.495 70.7314 131.208 70.8818C130.926 71.0322 130.602 71.1074 130.236 71.1074C130.014 71.1074 129.807 71.0841 129.613 71.0376C129.424 70.991 129.252 70.9248 129.098 70.8389C129.005 70.7852 128.917 70.7261 128.834 70.6616C128.752 70.5936 128.675 70.5202 128.604 70.4414V73.2344H127.61ZM131.525 68.0459C131.525 67.763 131.493 67.4945 131.429 67.2402C131.368 66.9824 131.273 66.755 131.144 66.5581C131.012 66.3647 130.845 66.2108 130.645 66.0962C130.444 65.9816 130.204 65.9243 129.925 65.9243C129.771 65.9243 129.628 65.9422 129.495 65.978C129.366 66.0138 129.25 66.0658 129.146 66.1338C129.031 66.2018 128.929 66.286 128.84 66.3862C128.75 66.4865 128.672 66.5975 128.604 66.7192V69.5176C128.664 69.625 128.734 69.7253 128.813 69.8184C128.892 69.9115 128.981 69.9902 129.082 70.0547C129.196 70.1299 129.323 70.189 129.463 70.2319C129.606 70.2749 129.764 70.2964 129.936 70.2964C130.211 70.2964 130.449 70.2391 130.65 70.1245C130.85 70.0063 131.015 69.8488 131.144 69.6519C131.273 69.4549 131.368 69.2275 131.429 68.9697C131.493 68.7119 131.525 68.4416 131.525 68.1587V68.0459ZM133.942 68.0405C133.942 67.6216 134.003 67.2331 134.125 66.875C134.247 66.5133 134.422 66.2 134.651 65.9351C134.877 65.6701 135.153 65.4624 135.479 65.312C135.804 65.158 136.171 65.0811 136.58 65.0811C136.991 65.0811 137.36 65.158 137.686 65.312C138.015 65.4624 138.295 65.6701 138.524 65.9351C138.75 66.2 138.923 66.5133 139.045 66.875C139.167 67.2331 139.228 67.6216 139.228 68.0405V68.1587C139.228 68.5776 139.167 68.9661 139.045 69.3242C138.923 69.6823 138.75 69.9938 138.524 70.2588C138.295 70.5238 138.017 70.7314 137.691 70.8818C137.366 71.0322 136.999 71.1074 136.59 71.1074C136.179 71.1074 135.808 71.0322 135.479 70.8818C135.153 70.7314 134.877 70.5238 134.651 70.2588C134.422 69.9938 134.247 69.6823 134.125 69.3242C134.003 68.9661 133.942 68.5776 133.942 68.1587V68.0405ZM134.936 68.1587C134.936 68.4451 134.97 68.7191 135.038 68.9805C135.106 69.2383 135.21 69.4657 135.35 69.6626C135.486 69.8595 135.658 70.0153 135.865 70.1299C136.073 70.2445 136.315 70.3018 136.59 70.3018C136.862 70.3018 137.101 70.2445 137.305 70.1299C137.512 70.0153 137.686 69.8595 137.826 69.6626C137.962 69.4657 138.064 69.2383 138.132 68.9805C138.2 68.7191 138.234 68.4451 138.234 68.1587V68.0405C138.234 67.7576 138.198 67.4873 138.126 67.2295C138.058 66.9681 137.956 66.7389 137.82 66.542C137.681 66.3451 137.507 66.1893 137.299 66.0747C137.095 65.9565 136.855 65.8975 136.58 65.8975C136.304 65.8975 136.064 65.9565 135.86 66.0747C135.656 66.1893 135.486 66.3451 135.35 66.542C135.21 66.7389 135.106 66.9681 135.038 67.2295C134.97 67.4873 134.936 67.7576 134.936 68.0405V68.1587ZM141.285 65.1885L141.312 65.7363C141.43 65.5322 141.584 65.3729 141.773 65.2583C141.967 65.1437 142.2 65.0846 142.472 65.0811C142.626 65.0811 142.764 65.099 142.885 65.1348C143.011 65.167 143.12 65.2153 143.213 65.2798C143.281 65.3299 143.342 65.3908 143.396 65.4624C143.453 65.534 143.501 65.6146 143.541 65.7041C143.591 65.6217 143.65 65.5448 143.718 65.4731C143.786 65.4015 143.859 65.3389 143.938 65.2852C144.038 65.2243 144.149 65.1759 144.271 65.1401C144.396 65.1043 144.532 65.0846 144.679 65.0811C144.88 65.0811 145.061 65.1115 145.222 65.1724C145.383 65.2297 145.519 65.3156 145.63 65.4302C145.752 65.5591 145.845 65.7274 145.909 65.9351C145.974 66.1392 146.006 66.3809 146.006 66.6602V71H145.061V66.6494C145.061 66.5277 145.046 66.4202 145.018 66.3271C144.989 66.234 144.948 66.1571 144.894 66.0962C144.837 66.0389 144.765 65.9959 144.679 65.9673C144.597 65.9386 144.5 65.9243 144.389 65.9243C144.271 65.9243 144.169 65.9404 144.083 65.9727C143.997 66.0049 143.925 66.0479 143.868 66.1016C143.811 66.1589 143.766 66.2251 143.734 66.3003C143.702 66.3719 143.68 66.4525 143.669 66.542C143.669 66.5599 143.669 66.5778 143.669 66.5957C143.669 66.61 143.669 66.6279 143.669 66.6494V71H142.724V66.644C142.724 66.5223 142.71 66.4149 142.681 66.3218C142.656 66.2287 142.615 66.1517 142.558 66.0908C142.504 66.0335 142.436 65.9924 142.354 65.9673C142.275 65.9386 142.182 65.9243 142.074 65.9243C141.956 65.9243 141.852 65.9386 141.763 65.9673C141.677 65.9924 141.603 66.0299 141.542 66.0801C141.496 66.1195 141.455 66.1642 141.419 66.2144C141.387 66.2645 141.36 66.3182 141.338 66.3755V71H140.393V65.1885H141.285ZM149.164 70.3555C149.164 70.1442 149.229 69.9634 149.357 69.813C149.486 69.6626 149.681 69.5874 149.943 69.5874C150.201 69.5874 150.396 69.6626 150.528 69.813C150.664 69.9598 150.732 70.1406 150.732 70.3555C150.732 70.5667 150.664 70.744 150.528 70.8872C150.392 71.0304 150.197 71.1021 149.943 71.1021C149.685 71.1021 149.49 71.0304 149.357 70.8872C149.229 70.7404 149.164 70.5632 149.164 70.3555ZM156.442 67.3423L157.994 65.1885H159.16L156.995 68.062L159.219 71H158.069L156.463 68.7871L154.857 71H153.697L155.921 68.062L153.756 65.1885H154.906L156.442 67.3423ZM160.803 62.75H163.773V70.1406H165.669V71H160.803V70.1406H162.78V63.6147H160.803V62.75Z" fill="#374151"/>
<path d="M58.7642 71L58.7051 70.1997C58.5117 70.4862 58.27 70.71 57.98 70.8711C57.6899 71.0286 57.3551 71.1074 56.9756 71.1074C56.6712 71.1074 56.3955 71.0609 56.1484 70.9678C55.9014 70.8711 55.6901 70.7225 55.5146 70.522C55.3392 70.3215 55.2031 70.0672 55.1064 69.7593C55.0133 69.4478 54.9668 69.0754 54.9668 68.6421V65.1885H55.9604V68.6528C55.9604 68.9679 55.9855 69.2293 56.0356 69.437C56.0858 69.6447 56.161 69.8094 56.2612 69.9312C56.3615 70.0565 56.4832 70.1442 56.6265 70.1943C56.7733 70.2445 56.9416 70.2695 57.1313 70.2695C57.3534 70.2695 57.5521 70.2445 57.7275 70.1943C57.903 70.1406 58.0552 70.0672 58.1841 69.9741C58.2915 69.8989 58.3846 69.8094 58.4634 69.7056C58.5457 69.5981 58.6138 69.4818 58.6675 69.3564V65.1885H59.6665V71H58.7642ZM63.2812 68.2876L62.5508 68.9912V71H61.5518V62.75H62.5508V67.7988L63.2007 67.1006L65.1074 65.1885H66.3159L63.9634 67.6108L66.6758 71H65.4136L63.2812 68.2876ZM67.8682 68.0405C67.8682 67.6216 67.929 67.2331 68.0508 66.875C68.1725 66.5133 68.348 66.2 68.5771 65.9351C68.8027 65.6701 69.0785 65.4624 69.4043 65.312C69.7301 65.158 70.0972 65.0811 70.5054 65.0811C70.9172 65.0811 71.286 65.158 71.6118 65.312C71.9412 65.4624 72.2205 65.6701 72.4497 65.9351C72.6753 66.2 72.849 66.5133 72.9707 66.875C73.0924 67.2331 73.1533 67.6216 73.1533 68.0405V68.1587C73.1533 68.5776 73.0924 68.9661 72.9707 69.3242C72.849 69.6823 72.6753 69.9938 72.4497 70.2588C72.2205 70.5238 71.943 70.7314 71.6172 70.8818C71.2913 71.0322 70.9243 71.1074 70.5161 71.1074C70.1043 71.1074 69.7337 71.0322 69.4043 70.8818C69.0785 70.7314 68.8027 70.5238 68.5771 70.2588C68.348 69.9938 68.1725 69.6823 68.0508 69.3242C67.929 68.9661 67.8682 68.5776 67.8682 68.1587V68.0405ZM68.8618 68.1587C68.8618 68.4451 68.8958 68.7191 68.9639 68.9805C69.0319 69.2383 69.1357 69.4657 69.2754 69.6626C69.4115 69.8595 69.5833 70.0153 69.791 70.1299C69.9987 70.2445 70.2404 70.3018 70.5161 70.3018C70.7882 70.3018 71.0264 70.2445 71.2305 70.1299C71.4382 70.0153 71.6118 69.8595 71.7515 69.6626C71.8875 69.4657 71.9896 69.2383 72.0576 68.9805C72.1257 68.7191 72.1597 68.4451 72.1597 68.1587V68.0405C72.1597 67.7576 72.1239 67.4873 72.0522 67.2295C71.9842 66.9681 71.8822 66.7389 71.7461 66.542C71.6064 66.3451 71.4328 66.1893 71.2251 66.0747C71.021 65.9565 70.7811 65.8975 70.5054 65.8975C70.2297 65.8975 69.9897 65.9565 69.7856 66.0747C69.5815 66.1893 69.4115 66.3451 69.2754 66.542C69.1357 66.7389 69.0319 66.9681 68.9639 67.2295C68.8958 67.4873 68.8618 67.7576 68.8618 68.0405V68.1587ZM76.0645 71.6714H75.1729L78.4385 63.1797H79.3247L76.0645 71.6714ZM81.8169 65.1885L81.8438 65.7363C81.9619 65.5322 82.1159 65.3729 82.3057 65.2583C82.499 65.1437 82.7318 65.0846 83.0039 65.0811C83.1579 65.0811 83.2957 65.099 83.4175 65.1348C83.5428 65.167 83.652 65.2153 83.7451 65.2798C83.8132 65.3299 83.874 65.3908 83.9277 65.4624C83.985 65.534 84.0334 65.6146 84.0728 65.7041C84.1229 65.6217 84.182 65.5448 84.25 65.4731C84.318 65.4015 84.3914 65.3389 84.4702 65.2852C84.5705 65.2243 84.6815 65.1759 84.8032 65.1401C84.9285 65.1043 85.0646 65.0846 85.2114 65.0811C85.4119 65.0811 85.5928 65.1115 85.7539 65.1724C85.915 65.2297 86.0511 65.3156 86.1621 65.4302C86.2839 65.5591 86.377 65.7274 86.4414 65.9351C86.5059 66.1392 86.5381 66.3809 86.5381 66.6602V71H85.5928V66.6494C85.5928 66.5277 85.5785 66.4202 85.5498 66.3271C85.5212 66.234 85.48 66.1571 85.4263 66.0962C85.369 66.0389 85.2974 65.9959 85.2114 65.9673C85.1291 65.9386 85.0324 65.9243 84.9214 65.9243C84.8032 65.9243 84.7012 65.9404 84.6152 65.9727C84.5293 66.0049 84.4577 66.0479 84.4004 66.1016C84.3431 66.1589 84.2983 66.2251 84.2661 66.3003C84.2339 66.3719 84.2124 66.4525 84.2017 66.542C84.2017 66.5599 84.2017 66.5778 84.2017 66.5957C84.2017 66.61 84.2017 66.6279 84.2017 66.6494V71H83.2563V66.644C83.2563 66.5223 83.242 66.4149 83.2134 66.3218C83.1883 66.2287 83.1471 66.1517 83.0898 66.0908C83.0361 66.0335 82.9681 65.9924 82.8857 65.9673C82.807 65.9386 82.7139 65.9243 82.6064 65.9243C82.4883 65.9243 82.3844 65.9386 82.2949 65.9673C82.209 65.9924 82.1356 66.0299 82.0747 66.0801C82.0282 66.1195 81.987 66.1642 81.9512 66.2144C81.9189 66.2645 81.8921 66.3182 81.8706 66.3755V71H80.9253V65.1885H81.8169ZM91.7856 71C91.7463 70.9248 91.714 70.8317 91.689 70.7207C91.6675 70.6061 91.6514 70.488 91.6406 70.3662C91.5404 70.4665 91.4276 70.5614 91.3022 70.6509C91.1805 70.7404 91.0462 70.8192 90.8994 70.8872C90.749 70.9552 90.5897 71.009 90.4214 71.0483C90.2531 71.0877 90.0741 71.1074 89.8843 71.1074C89.5763 71.1074 89.297 71.0627 89.0464 70.9731C88.7993 70.8836 88.5898 70.7619 88.418 70.6079C88.2425 70.4575 88.1064 70.2785 88.0098 70.0708C87.9167 69.8595 87.8701 69.6322 87.8701 69.3887C87.8701 69.07 87.9328 68.7907 88.0581 68.5508C88.187 68.3109 88.3678 68.1104 88.6006 67.9492C88.8333 67.7917 89.1126 67.6735 89.4385 67.5947C89.7679 67.516 90.1349 67.4766 90.5396 67.4766H91.6245V67.02C91.6245 66.8446 91.5923 66.687 91.5278 66.5474C91.4634 66.4077 91.3721 66.2878 91.2539 66.1875C91.1357 66.0908 90.9907 66.0156 90.8188 65.9619C90.6506 65.9082 90.4608 65.8813 90.2495 65.8813C90.0526 65.8813 89.8753 65.9064 89.7178 65.9565C89.5638 66.0067 89.4331 66.0729 89.3257 66.1553C89.2183 66.2376 89.1341 66.3361 89.0732 66.4507C89.016 66.5617 88.9873 66.6781 88.9873 66.7998H87.9883C87.9919 66.5885 88.0456 66.3809 88.1494 66.1768C88.2568 65.9727 88.4108 65.7882 88.6113 65.6235C88.8083 65.4624 89.0482 65.3317 89.3311 65.2314C89.6175 65.1312 89.9416 65.0811 90.3032 65.0811C90.6326 65.0811 90.9388 65.1222 91.2217 65.2046C91.5046 65.2834 91.7498 65.4033 91.9575 65.5645C92.1616 65.7292 92.3228 65.9333 92.4409 66.1768C92.5591 66.4202 92.6182 66.7049 92.6182 67.0308V69.7324C92.6182 69.9258 92.6361 70.1317 92.6719 70.3501C92.7077 70.5649 92.7578 70.7529 92.8223 70.9141V71H91.7856ZM90.0293 70.2427C90.2227 70.2427 90.4035 70.2176 90.5718 70.1675C90.7401 70.1174 90.894 70.0511 91.0337 69.9688C91.1698 69.8864 91.2879 69.7933 91.3882 69.6895C91.4884 69.582 91.5672 69.471 91.6245 69.3564V68.1802H90.7007C90.3569 68.1802 90.0562 68.2106 89.7983 68.2715C89.5441 68.3288 89.3418 68.4183 89.1914 68.54C89.084 68.626 89.0016 68.728 88.9443 68.8462C88.8906 68.9644 88.8638 69.0986 88.8638 69.249C88.8638 69.3923 88.887 69.5247 88.9336 69.6465C88.9837 69.7682 89.0571 69.8721 89.1538 69.958C89.2505 70.0475 89.3722 70.1174 89.519 70.1675C89.6659 70.2176 89.8359 70.2427 90.0293 70.2427ZM94.729 65.1885H97.6992V70.1406H99.5952V71H94.729V70.1406H96.7056V66.0532H94.729V65.1885ZM96.5767 63.6631C96.5767 63.5771 96.5892 63.4966 96.6143 63.4214C96.6429 63.3462 96.6859 63.2817 96.7432 63.228C96.7897 63.1815 96.8488 63.1457 96.9204 63.1206C96.9956 63.092 97.0798 63.0776 97.1729 63.0776C97.266 63.0776 97.3483 63.092 97.4199 63.1206C97.4915 63.1457 97.5506 63.1815 97.5972 63.228C97.6545 63.2782 97.6974 63.3408 97.7261 63.416C97.7547 63.4912 97.769 63.5736 97.769 63.6631C97.769 63.8242 97.7189 63.9585 97.6187 64.0659C97.5184 64.1733 97.3698 64.2271 97.1729 64.2271C96.9723 64.2271 96.8219 64.1733 96.7217 64.0659C96.625 63.9585 96.5767 63.8242 96.5767 63.6631ZM101.18 71V65.1885H102.071L102.141 66.0479C102.227 65.9261 102.32 65.8151 102.42 65.7148C102.524 65.611 102.633 65.5215 102.748 65.4463C102.92 65.3317 103.106 65.244 103.307 65.1831C103.511 65.1187 103.726 65.0846 103.951 65.0811C104.256 65.0811 104.531 65.124 104.778 65.21C105.029 65.2959 105.242 65.4302 105.417 65.6128C105.593 65.7954 105.727 66.0282 105.82 66.311C105.917 66.5903 105.965 66.9233 105.965 67.3101V71H104.972V67.3315C104.972 67.0737 104.943 66.8553 104.886 66.6763C104.828 66.4972 104.744 66.3522 104.633 66.2412C104.519 66.1302 104.379 66.0496 104.214 65.9995C104.053 65.9494 103.867 65.9243 103.656 65.9243C103.473 65.9243 103.303 65.9512 103.146 66.0049C102.988 66.055 102.843 66.1248 102.71 66.2144C102.603 66.2931 102.503 66.3844 102.41 66.4883C102.32 66.5921 102.241 66.7067 102.173 66.832V71H101.18Z" fill="#374151"/>
<path d="M115.75 70.5L118.25 68L115.75 65.5" stroke="#374151" stroke-linecap="round" stroke-linejoin="round"/>
<mask id="path-16-inside-1_7622_61079" fill="white">
<path d="M17 87H363V154H17V87Z"/>
</mask>
<path d="M17 87H363V154H17V87Z" fill="white"/>
<path d="M363 153H17V155H363V153Z" fill="#DBE2F0" mask="url(#path-16-inside-1_7622_61079)"/>
<mask id="path-18-inside-2_7622_61079" fill="white">
<path d="M17 87H363V154H17V87Z"/>
</mask>
<path d="M17 87H363V154H17V87Z" fill="white"/>
<path d="M363 153H17V155H363V153Z" fill="#E6EBF2" mask="url(#path-18-inside-2_7622_61079)"/>
<rect opacity="0.3" x="28" y="98" width="30" height="8" rx="4" fill="url(#paint0_linear_7622_61079)"/>
<rect opacity="0.3" x="110" y="116" width="40" height="8" rx="4" fill="url(#paint1_linear_7622_61079)"/>
<rect opacity="0.3" x="86" y="98" width="77" height="8" rx="4" fill="url(#paint2_linear_7622_61079)"/>
<g opacity="0.3">
<rect x="191" y="116" width="68" height="8" rx="4" fill="#E4E9F4"/>
<rect x="191" y="116" width="68" height="8" rx="4" fill="url(#paint3_linear_7622_61079)"/>
</g>
<rect opacity="0.3" x="110" y="134" width="76" height="8" rx="4" fill="url(#paint4_linear_7622_61079)"/>
<rect opacity="0.3" x="228" y="134" width="62" height="8" rx="4" fill="url(#paint5_linear_7622_61079)"/>
<rect opacity="0.3" x="28" y="116" width="30" height="8" rx="4" fill="url(#paint6_linear_7622_61079)"/>
<rect opacity="0.3" x="28" y="134" width="30" height="8" rx="4" fill="url(#paint7_linear_7622_61079)"/>
<rect x="152" y="114" width="37" height="12" fill="#FFDB45"/>
<path d="M155.074 115.75H158.044V123.141H159.94V124H155.074V123.141H157.051V116.615H155.074V115.75ZM161.246 121.041C161.246 120.622 161.306 120.233 161.428 119.875C161.55 119.513 161.725 119.2 161.955 118.935C162.18 118.67 162.456 118.462 162.782 118.312C163.108 118.158 163.475 118.081 163.883 118.081C164.295 118.081 164.663 118.158 164.989 118.312C165.319 118.462 165.598 118.67 165.827 118.935C166.053 119.2 166.226 119.513 166.348 119.875C166.47 120.233 166.531 120.622 166.531 121.041V121.159C166.531 121.578 166.47 121.966 166.348 122.324C166.226 122.682 166.053 122.994 165.827 123.259C165.598 123.524 165.32 123.731 164.995 123.882C164.669 124.032 164.302 124.107 163.894 124.107C163.482 124.107 163.111 124.032 162.782 123.882C162.456 123.731 162.18 123.524 161.955 123.259C161.725 122.994 161.55 122.682 161.428 122.324C161.306 121.966 161.246 121.578 161.246 121.159V121.041ZM162.239 121.159C162.239 121.445 162.273 121.719 162.341 121.98C162.409 122.238 162.513 122.466 162.653 122.663C162.789 122.86 162.961 123.015 163.168 123.13C163.376 123.244 163.618 123.302 163.894 123.302C164.166 123.302 164.404 123.244 164.608 123.13C164.816 123.015 164.989 122.86 165.129 122.663C165.265 122.466 165.367 122.238 165.435 121.98C165.503 121.719 165.537 121.445 165.537 121.159V121.041C165.537 120.758 165.501 120.487 165.43 120.229C165.362 119.968 165.26 119.739 165.124 119.542C164.984 119.345 164.81 119.189 164.603 119.075C164.398 118.957 164.159 118.897 163.883 118.897C163.607 118.897 163.367 118.957 163.163 119.075C162.959 119.189 162.789 119.345 162.653 119.542C162.513 119.739 162.409 119.968 162.341 120.229C162.273 120.487 162.239 120.758 162.239 121.041V121.159ZM167.949 121.046C167.949 120.613 168.001 120.215 168.104 119.854C168.212 119.488 168.366 119.175 168.566 118.914C168.767 118.652 169.01 118.448 169.297 118.301C169.583 118.154 169.907 118.081 170.269 118.081C170.502 118.081 170.715 118.108 170.908 118.162C171.105 118.215 171.282 118.294 171.44 118.398C171.526 118.452 171.606 118.514 171.682 118.586C171.76 118.658 171.834 118.736 171.902 118.822L171.95 118.188H172.853V123.876C172.853 124.26 172.792 124.6 172.67 124.897C172.552 125.194 172.385 125.447 172.17 125.654C171.952 125.862 171.692 126.02 171.392 126.127C171.091 126.234 170.758 126.288 170.393 126.288C170.242 126.288 170.07 126.27 169.877 126.234C169.684 126.202 169.488 126.147 169.292 126.068C169.091 125.993 168.898 125.891 168.711 125.762C168.529 125.633 168.371 125.473 168.239 125.284L168.754 124.688C168.876 124.834 169.001 124.958 169.13 125.058C169.259 125.162 169.39 125.244 169.522 125.305C169.655 125.366 169.787 125.409 169.92 125.434C170.052 125.463 170.185 125.477 170.317 125.477C170.554 125.477 170.767 125.443 170.957 125.375C171.146 125.307 171.309 125.207 171.445 125.074C171.578 124.945 171.68 124.784 171.751 124.591C171.823 124.397 171.859 124.175 171.859 123.925V123.425C171.784 123.511 171.703 123.59 171.617 123.662C171.535 123.733 171.445 123.796 171.349 123.85C171.198 123.932 171.032 123.995 170.849 124.038C170.667 124.084 170.47 124.107 170.258 124.107C169.904 124.107 169.583 124.032 169.297 123.882C169.01 123.731 168.769 123.524 168.572 123.259C168.371 122.994 168.217 122.682 168.11 122.324C168.002 121.963 167.949 121.574 167.949 121.159V121.046ZM168.942 121.159C168.942 121.442 168.971 121.71 169.028 121.964C169.089 122.219 169.184 122.442 169.313 122.636C169.438 122.829 169.599 122.983 169.796 123.098C169.993 123.209 170.23 123.264 170.505 123.264C170.677 123.264 170.831 123.244 170.967 123.205C171.107 123.162 171.232 123.103 171.343 123.028C171.451 122.953 171.547 122.863 171.633 122.759C171.719 122.655 171.794 122.541 171.859 122.416V119.751C171.794 119.63 171.719 119.519 171.633 119.418C171.547 119.318 171.449 119.23 171.338 119.155C171.227 119.084 171.103 119.028 170.967 118.989C170.831 118.946 170.681 118.924 170.516 118.924C170.237 118.924 169.997 118.982 169.796 119.096C169.599 119.211 169.438 119.365 169.313 119.558C169.184 119.755 169.089 119.982 169.028 120.24C168.971 120.494 168.942 120.763 168.942 121.046V121.159ZM178.766 121.374H179.856V122.185H178.766V124H177.772V122.185H174.206V121.599L177.708 116.18H178.766V121.374ZM175.307 121.374H177.772V117.501L177.611 117.802L175.307 121.374ZM182.016 118.188H184.948V124.038C184.948 124.41 184.896 124.739 184.792 125.026C184.692 125.312 184.545 125.552 184.352 125.746C184.155 125.943 183.915 126.091 183.632 126.191C183.353 126.295 183.034 126.347 182.676 126.347C182.565 126.347 182.458 126.345 182.354 126.342C182.25 126.338 182.148 126.333 182.048 126.326C181.965 126.319 181.883 126.308 181.801 126.293C181.718 126.283 181.632 126.27 181.543 126.256L181.613 125.439C181.674 125.45 181.751 125.459 181.844 125.466C181.937 125.477 182.032 125.484 182.128 125.488C182.222 125.495 182.311 125.499 182.397 125.499C182.486 125.502 182.556 125.504 182.606 125.504C182.793 125.504 182.968 125.479 183.133 125.429C183.298 125.382 183.441 125.302 183.562 125.187C183.684 125.072 183.779 124.92 183.847 124.73C183.919 124.544 183.955 124.313 183.955 124.038V119.053H182.016V118.188ZM183.815 116.658C183.815 116.497 183.863 116.361 183.96 116.25C184.057 116.135 184.205 116.078 184.406 116.078C184.606 116.078 184.757 116.135 184.857 116.25C184.957 116.361 185.007 116.497 185.007 116.658C185.007 116.819 184.957 116.955 184.857 117.066C184.757 117.173 184.606 117.227 184.406 117.227C184.205 117.227 184.057 117.173 183.96 117.066C183.863 116.955 183.815 116.819 183.815 116.658Z" fill="#374151"/>
<rect x="188" y="132" width="37" height="12" fill="#FFDB45"/>
<path d="M191.074 133.75H194.044V141.141H195.94V142H191.074V141.141H193.051V134.615H191.074V133.75ZM197.246 139.041C197.246 138.622 197.306 138.233 197.428 137.875C197.55 137.513 197.725 137.2 197.955 136.935C198.18 136.67 198.456 136.462 198.782 136.312C199.108 136.158 199.475 136.081 199.883 136.081C200.295 136.081 200.663 136.158 200.989 136.312C201.319 136.462 201.598 136.67 201.827 136.935C202.053 137.2 202.226 137.513 202.348 137.875C202.47 138.233 202.531 138.622 202.531 139.041V139.159C202.531 139.578 202.47 139.966 202.348 140.324C202.226 140.682 202.053 140.994 201.827 141.259C201.598 141.524 201.32 141.731 200.995 141.882C200.669 142.032 200.302 142.107 199.894 142.107C199.482 142.107 199.111 142.032 198.782 141.882C198.456 141.731 198.18 141.524 197.955 141.259C197.725 140.994 197.55 140.682 197.428 140.324C197.306 139.966 197.246 139.578 197.246 139.159V139.041ZM198.239 139.159C198.239 139.445 198.273 139.719 198.341 139.98C198.409 140.238 198.513 140.466 198.653 140.663C198.789 140.86 198.961 141.015 199.168 141.13C199.376 141.244 199.618 141.302 199.894 141.302C200.166 141.302 200.404 141.244 200.608 141.13C200.816 141.015 200.989 140.86 201.129 140.663C201.265 140.466 201.367 140.238 201.435 139.98C201.503 139.719 201.537 139.445 201.537 139.159V139.041C201.537 138.758 201.501 138.487 201.43 138.229C201.362 137.968 201.26 137.739 201.124 137.542C200.984 137.345 200.81 137.189 200.603 137.075C200.398 136.957 200.159 136.897 199.883 136.897C199.607 136.897 199.367 136.957 199.163 137.075C198.959 137.189 198.789 137.345 198.653 137.542C198.513 137.739 198.409 137.968 198.341 138.229C198.273 138.487 198.239 138.758 198.239 139.041V139.159ZM203.949 139.046C203.949 138.613 204.001 138.215 204.104 137.854C204.212 137.488 204.366 137.175 204.566 136.914C204.767 136.652 205.01 136.448 205.297 136.301C205.583 136.154 205.907 136.081 206.269 136.081C206.502 136.081 206.715 136.108 206.908 136.162C207.105 136.215 207.282 136.294 207.44 136.398C207.526 136.452 207.606 136.514 207.682 136.586C207.76 136.658 207.834 136.736 207.902 136.822L207.95 136.188H208.853V141.876C208.853 142.26 208.792 142.6 208.67 142.897C208.552 143.194 208.385 143.447 208.17 143.654C207.952 143.862 207.692 144.02 207.392 144.127C207.091 144.234 206.758 144.288 206.393 144.288C206.242 144.288 206.07 144.27 205.877 144.234C205.684 144.202 205.488 144.147 205.292 144.068C205.091 143.993 204.898 143.891 204.711 143.762C204.529 143.633 204.371 143.473 204.239 143.284L204.754 142.688C204.876 142.834 205.001 142.958 205.13 143.058C205.259 143.162 205.39 143.244 205.522 143.305C205.655 143.366 205.787 143.409 205.92 143.434C206.052 143.463 206.185 143.477 206.317 143.477C206.554 143.477 206.767 143.443 206.957 143.375C207.146 143.307 207.309 143.207 207.445 143.074C207.578 142.945 207.68 142.784 207.751 142.591C207.823 142.397 207.859 142.175 207.859 141.925V141.425C207.784 141.511 207.703 141.59 207.617 141.662C207.535 141.733 207.445 141.796 207.349 141.85C207.198 141.932 207.032 141.995 206.849 142.038C206.667 142.084 206.47 142.107 206.258 142.107C205.904 142.107 205.583 142.032 205.297 141.882C205.01 141.731 204.769 141.524 204.572 141.259C204.371 140.994 204.217 140.682 204.11 140.324C204.002 139.963 203.949 139.574 203.949 139.159V139.046ZM204.942 139.159C204.942 139.442 204.971 139.71 205.028 139.964C205.089 140.219 205.184 140.442 205.313 140.636C205.438 140.829 205.599 140.983 205.796 141.098C205.993 141.209 206.23 141.264 206.505 141.264C206.677 141.264 206.831 141.244 206.967 141.205C207.107 141.162 207.232 141.103 207.343 141.028C207.451 140.953 207.547 140.863 207.633 140.759C207.719 140.655 207.794 140.541 207.859 140.416V137.751C207.794 137.63 207.719 137.519 207.633 137.418C207.547 137.318 207.449 137.23 207.338 137.155C207.227 137.084 207.103 137.028 206.967 136.989C206.831 136.946 206.681 136.924 206.516 136.924C206.237 136.924 205.997 136.982 205.796 137.096C205.599 137.211 205.438 137.365 205.313 137.558C205.184 137.755 205.089 137.982 205.028 138.24C204.971 138.494 204.942 138.763 204.942 139.046V139.159ZM214.766 139.374H215.856V140.185H214.766V142H213.772V140.185H210.206V139.599L213.708 134.18H214.766V139.374ZM211.307 139.374H213.772V135.501L213.611 135.802L211.307 139.374ZM218.016 136.188H220.948V142.038C220.948 142.41 220.896 142.739 220.792 143.026C220.692 143.312 220.545 143.552 220.352 143.746C220.155 143.943 219.915 144.091 219.632 144.191C219.353 144.295 219.034 144.347 218.676 144.347C218.565 144.347 218.458 144.345 218.354 144.342C218.25 144.338 218.148 144.333 218.048 144.326C217.965 144.319 217.883 144.308 217.801 144.293C217.718 144.283 217.632 144.27 217.543 144.256L217.613 143.439C217.674 143.45 217.751 143.459 217.844 143.466C217.937 143.477 218.032 143.484 218.128 143.488C218.222 143.495 218.311 143.499 218.397 143.499C218.486 143.502 218.556 143.504 218.606 143.504C218.793 143.504 218.968 143.479 219.133 143.429C219.298 143.382 219.441 143.302 219.562 143.187C219.684 143.072 219.779 142.92 219.847 142.73C219.919 142.544 219.955 142.313 219.955 142.038V137.053H218.016V136.188ZM219.815 134.658C219.815 134.497 219.863 134.361 219.96 134.25C220.057 134.135 220.205 134.078 220.406 134.078C220.606 134.078 220.757 134.135 220.857 134.25C220.957 134.361 221.007 134.497 221.007 134.658C221.007 134.819 220.957 134.955 220.857 135.066C220.757 135.173 220.606 135.227 220.406 135.227C220.205 135.227 220.057 135.173 219.96 135.066C219.863 134.955 219.815 134.819 219.815 134.658Z" fill="#374151"/>
<rect width="346" height="106" transform="translate(17 164)" fill="#F9FAFB"/>
<path d="M42.6664 183.86L40.4464 177.193C40.4269 177.145 40.3946 177.104 40.3531 177.073C40.3136 177.033 40.2621 177.007 40.2064 177C40.1516 176.999 40.098 177.015 40.0531 177.046C40.0115 177.077 39.9792 177.118 39.9597 177.166L38.4531 181.613H33.5464L32.0664 177.173C32.0545 177.128 32.0316 177.087 31.9997 177.053C31.9505 177.014 31.8888 176.995 31.8264 177C31.7716 176.999 31.718 177.015 31.6731 177.046C31.6315 177.077 31.5992 177.118 31.5797 177.166L29.3331 183.86C29.3005 183.959 29.3004 184.066 29.3328 184.166C29.3651 184.265 29.4283 184.352 29.5131 184.413L35.9997 189L42.4597 184.413C42.5518 184.358 42.6224 184.273 42.66 184.172C42.6975 184.072 42.6998 183.962 42.6664 183.86Z" fill="#5E6E8C"/>
<rect x="123" y="175" width="43" height="12" fill="#FFDB45"/>
<path d="M126.61 187.234V179.188H127.518L127.566 179.822C127.645 179.722 127.731 179.632 127.824 179.554C127.917 179.471 128.017 179.402 128.125 179.344C128.275 179.258 128.441 179.194 128.624 179.151C128.81 179.104 129.009 179.081 129.22 179.081C129.593 179.081 129.922 179.154 130.208 179.301C130.495 179.448 130.735 179.652 130.928 179.914C131.122 180.175 131.268 180.488 131.369 180.854C131.469 181.215 131.519 181.613 131.519 182.046V182.159C131.519 182.574 131.469 182.963 131.369 183.324C131.268 183.682 131.122 183.994 130.928 184.259C130.735 184.524 130.495 184.731 130.208 184.882C129.926 185.032 129.602 185.107 129.236 185.107C129.014 185.107 128.807 185.084 128.613 185.038C128.424 184.991 128.252 184.925 128.098 184.839C128.005 184.785 127.917 184.726 127.834 184.662C127.752 184.594 127.675 184.52 127.604 184.441V187.234H126.61ZM130.525 182.046C130.525 181.763 130.493 181.494 130.429 181.24C130.368 180.982 130.273 180.755 130.144 180.558C130.012 180.365 129.845 180.211 129.645 180.096C129.444 179.982 129.204 179.924 128.925 179.924C128.771 179.924 128.628 179.942 128.495 179.978C128.366 180.014 128.25 180.066 128.146 180.134C128.031 180.202 127.929 180.286 127.84 180.386C127.75 180.486 127.672 180.597 127.604 180.719V183.518C127.664 183.625 127.734 183.725 127.813 183.818C127.892 183.911 127.981 183.99 128.082 184.055C128.196 184.13 128.323 184.189 128.463 184.232C128.606 184.275 128.764 184.296 128.936 184.296C129.211 184.296 129.449 184.239 129.65 184.125C129.85 184.006 130.015 183.849 130.144 183.652C130.273 183.455 130.368 183.228 130.429 182.97C130.493 182.712 130.525 182.442 130.525 182.159V182.046ZM132.942 182.041C132.942 181.622 133.003 181.233 133.125 180.875C133.247 180.513 133.422 180.2 133.651 179.935C133.877 179.67 134.153 179.462 134.479 179.312C134.804 179.158 135.171 179.081 135.58 179.081C135.991 179.081 136.36 179.158 136.686 179.312C137.015 179.462 137.295 179.67 137.524 179.935C137.75 180.2 137.923 180.513 138.045 180.875C138.167 181.233 138.228 181.622 138.228 182.041V182.159C138.228 182.578 138.167 182.966 138.045 183.324C137.923 183.682 137.75 183.994 137.524 184.259C137.295 184.524 137.017 184.731 136.691 184.882C136.366 185.032 135.999 185.107 135.59 185.107C135.179 185.107 134.808 185.032 134.479 184.882C134.153 184.731 133.877 184.524 133.651 184.259C133.422 183.994 133.247 183.682 133.125 183.324C133.003 182.966 132.942 182.578 132.942 182.159V182.041ZM133.936 182.159C133.936 182.445 133.97 182.719 134.038 182.98C134.106 183.238 134.21 183.466 134.35 183.663C134.486 183.86 134.658 184.015 134.865 184.13C135.073 184.244 135.315 184.302 135.59 184.302C135.862 184.302 136.101 184.244 136.305 184.13C136.512 184.015 136.686 183.86 136.826 183.663C136.962 183.466 137.064 183.238 137.132 182.98C137.2 182.719 137.234 182.445 137.234 182.159V182.041C137.234 181.758 137.198 181.487 137.126 181.229C137.058 180.968 136.956 180.739 136.82 180.542C136.681 180.345 136.507 180.189 136.299 180.075C136.095 179.957 135.855 179.897 135.58 179.897C135.304 179.897 135.064 179.957 134.86 180.075C134.656 180.189 134.486 180.345 134.35 180.542C134.21 180.739 134.106 180.968 134.038 181.229C133.97 181.487 133.936 181.758 133.936 182.041V182.159ZM140.285 179.188L140.312 179.736C140.43 179.532 140.584 179.373 140.773 179.258C140.967 179.144 141.2 179.085 141.472 179.081C141.626 179.081 141.764 179.099 141.885 179.135C142.011 179.167 142.12 179.215 142.213 179.28C142.281 179.33 142.342 179.391 142.396 179.462C142.453 179.534 142.501 179.615 142.541 179.704C142.591 179.622 142.65 179.545 142.718 179.473C142.786 179.402 142.859 179.339 142.938 179.285C143.038 179.224 143.149 179.176 143.271 179.14C143.396 179.104 143.532 179.085 143.679 179.081C143.88 179.081 144.061 179.111 144.222 179.172C144.383 179.23 144.519 179.316 144.63 179.43C144.752 179.559 144.845 179.727 144.909 179.935C144.974 180.139 145.006 180.381 145.006 180.66V185H144.061V180.649C144.061 180.528 144.046 180.42 144.018 180.327C143.989 180.234 143.948 180.157 143.894 180.096C143.837 180.039 143.765 179.996 143.679 179.967C143.597 179.939 143.5 179.924 143.389 179.924C143.271 179.924 143.169 179.94 143.083 179.973C142.997 180.005 142.925 180.048 142.868 180.102C142.811 180.159 142.766 180.225 142.734 180.3C142.702 180.372 142.68 180.452 142.669 180.542C142.669 180.56 142.669 180.578 142.669 180.596C142.669 180.61 142.669 180.628 142.669 180.649V185H141.724V180.644C141.724 180.522 141.71 180.415 141.681 180.322C141.656 180.229 141.615 180.152 141.558 180.091C141.504 180.034 141.436 179.992 141.354 179.967C141.275 179.939 141.182 179.924 141.074 179.924C140.956 179.924 140.852 179.939 140.763 179.967C140.677 179.992 140.603 180.03 140.542 180.08C140.496 180.119 140.455 180.164 140.419 180.214C140.387 180.264 140.36 180.318 140.338 180.375V185H139.393V179.188H140.285ZM148.164 184.355C148.164 184.144 148.229 183.963 148.357 183.813C148.486 183.663 148.681 183.587 148.943 183.587C149.201 183.587 149.396 183.663 149.528 183.813C149.664 183.96 149.732 184.141 149.732 184.355C149.732 184.567 149.664 184.744 149.528 184.887C149.392 185.03 149.197 185.102 148.943 185.102C148.685 185.102 148.49 185.03 148.357 184.887C148.229 184.74 148.164 184.563 148.164 184.355ZM155.442 181.342L156.994 179.188H158.16L155.995 182.062L158.219 185H157.069L155.463 182.787L153.857 185H152.697L154.921 182.062L152.756 179.188H153.906L155.442 181.342ZM159.803 176.75H162.773V184.141H164.669V185H159.803V184.141H161.78V177.615H159.803V176.75Z" fill="#374151"/>
<path d="M58.7642 185L58.7051 184.2C58.5117 184.486 58.27 184.71 57.98 184.871C57.6899 185.029 57.3551 185.107 56.9756 185.107C56.6712 185.107 56.3955 185.061 56.1484 184.968C55.9014 184.871 55.6901 184.722 55.5146 184.522C55.3392 184.321 55.2031 184.067 55.1064 183.759C55.0133 183.448 54.9668 183.075 54.9668 182.642V179.188H55.9604V182.653C55.9604 182.968 55.9855 183.229 56.0356 183.437C56.0858 183.645 56.161 183.809 56.2612 183.931C56.3615 184.056 56.4832 184.144 56.6265 184.194C56.7733 184.244 56.9416 184.27 57.1313 184.27C57.3534 184.27 57.5521 184.244 57.7275 184.194C57.903 184.141 58.0552 184.067 58.1841 183.974C58.2915 183.899 58.3846 183.809 58.4634 183.706C58.5457 183.598 58.6138 183.482 58.6675 183.356V179.188H59.6665V185H58.7642ZM63.2812 182.288L62.5508 182.991V185H61.5518V176.75H62.5508V181.799L63.2007 181.101L65.1074 179.188H66.3159L63.9634 181.611L66.6758 185H65.4136L63.2812 182.288ZM67.8682 182.041C67.8682 181.622 67.929 181.233 68.0508 180.875C68.1725 180.513 68.348 180.2 68.5771 179.935C68.8027 179.67 69.0785 179.462 69.4043 179.312C69.7301 179.158 70.0972 179.081 70.5054 179.081C70.9172 179.081 71.286 179.158 71.6118 179.312C71.9412 179.462 72.2205 179.67 72.4497 179.935C72.6753 180.2 72.849 180.513 72.9707 180.875C73.0924 181.233 73.1533 181.622 73.1533 182.041V182.159C73.1533 182.578 73.0924 182.966 72.9707 183.324C72.849 183.682 72.6753 183.994 72.4497 184.259C72.2205 184.524 71.943 184.731 71.6172 184.882C71.2913 185.032 70.9243 185.107 70.5161 185.107C70.1043 185.107 69.7337 185.032 69.4043 184.882C69.0785 184.731 68.8027 184.524 68.5771 184.259C68.348 183.994 68.1725 183.682 68.0508 183.324C67.929 182.966 67.8682 182.578 67.8682 182.159V182.041ZM68.8618 182.159C68.8618 182.445 68.8958 182.719 68.9639 182.98C69.0319 183.238 69.1357 183.466 69.2754 183.663C69.4115 183.86 69.5833 184.015 69.791 184.13C69.9987 184.244 70.2404 184.302 70.5161 184.302C70.7882 184.302 71.0264 184.244 71.2305 184.13C71.4382 184.015 71.6118 183.86 71.7515 183.663C71.8875 183.466 71.9896 183.238 72.0576 182.98C72.1257 182.719 72.1597 182.445 72.1597 182.159V182.041C72.1597 181.758 72.1239 181.487 72.0522 181.229C71.9842 180.968 71.8822 180.739 71.7461 180.542C71.6064 180.345 71.4328 180.189 71.2251 180.075C71.021 179.957 70.7811 179.897 70.5054 179.897C70.2297 179.897 69.9897 179.957 69.7856 180.075C69.5815 180.189 69.4115 180.345 69.2754 180.542C69.1357 180.739 69.0319 180.968 68.9639 181.229C68.8958 181.487 68.8618 181.758 68.8618 182.041V182.159ZM76.0645 185.671H75.1729L78.4385 177.18H79.3247L76.0645 185.671ZM81.3604 185V179.188H82.252L82.3218 180.048C82.4077 179.926 82.5008 179.815 82.6011 179.715C82.7049 179.611 82.8141 179.521 82.9287 179.446C83.1006 179.332 83.2868 179.244 83.4873 179.183C83.6914 179.119 83.9062 179.085 84.1318 179.081C84.4362 179.081 84.7119 179.124 84.959 179.21C85.2096 179.296 85.4227 179.43 85.5981 179.613C85.7736 179.795 85.9079 180.028 86.001 180.311C86.0977 180.59 86.146 180.923 86.146 181.31V185H85.1523V181.332C85.1523 181.074 85.1237 180.855 85.0664 180.676C85.0091 180.497 84.925 180.352 84.814 180.241C84.6994 180.13 84.5597 180.05 84.395 180C84.2339 179.949 84.0477 179.924 83.8364 179.924C83.6538 179.924 83.4837 179.951 83.3262 180.005C83.1686 180.055 83.0236 180.125 82.8911 180.214C82.7837 180.293 82.6834 180.384 82.5903 180.488C82.5008 180.592 82.422 180.707 82.354 180.832V185H81.3604ZM90.5342 185.107C90.126 185.107 89.75 185.038 89.4062 184.898C89.0661 184.758 88.7743 184.563 88.5308 184.312C88.2873 184.062 88.0975 183.765 87.9614 183.421C87.8254 183.077 87.7573 182.703 87.7573 182.298V182.073C87.7573 181.604 87.8325 181.185 87.9829 180.816C88.1333 180.444 88.3338 180.128 88.5845 179.871C88.8315 179.616 89.1126 179.421 89.4277 179.285C89.7464 179.149 90.0723 179.081 90.4053 179.081C90.8242 179.081 91.1895 179.154 91.501 179.301C91.8161 179.444 92.0775 179.643 92.2852 179.897C92.4928 180.155 92.6468 180.458 92.7471 180.805C92.8509 181.153 92.9028 181.528 92.9028 181.933V182.379H88.751V182.417C88.776 182.699 88.8315 182.948 88.9175 183.163C89.007 183.378 89.1287 183.568 89.2827 183.732C89.4403 183.908 89.63 184.046 89.8521 184.146C90.0741 184.246 90.3193 184.296 90.5879 184.296C90.9424 184.296 91.2575 184.225 91.5332 184.082C91.8089 183.938 92.0381 183.749 92.2207 183.512L92.8276 183.985C92.6343 184.278 92.3442 184.54 91.9575 184.769C91.5744 184.995 91.0999 185.107 90.5342 185.107ZM90.4053 179.897C90.2048 179.897 90.015 179.935 89.8359 180.01C89.6569 180.082 89.4958 180.188 89.3525 180.327C89.2093 180.47 89.0876 180.646 88.9873 180.854C88.8906 181.058 88.8226 181.294 88.7832 181.562H91.9092V181.514C91.9092 181.335 91.8752 181.144 91.8071 180.939C91.7391 180.732 91.6442 180.553 91.5225 180.402C91.4007 180.252 91.2467 180.13 91.0605 180.037C90.8779 179.944 90.6595 179.897 90.4053 179.897ZM98.4351 183.458C98.4351 183.34 98.4118 183.235 98.3652 183.142C98.3187 183.045 98.2399 182.957 98.1289 182.878C98.0179 182.8 97.8711 182.728 97.6885 182.664C97.5059 182.596 97.2785 182.535 97.0063 182.481C96.6733 182.413 96.369 182.331 96.0933 182.234C95.8211 182.137 95.5884 182.021 95.395 181.885C95.1981 181.752 95.0459 181.597 94.9385 181.417C94.8311 181.235 94.7773 181.024 94.7773 180.784C94.7773 180.547 94.8328 180.327 94.9438 180.123C95.0549 179.915 95.2106 179.735 95.4111 179.581C95.6117 179.427 95.8498 179.305 96.1255 179.215C96.4048 179.126 96.7109 179.081 97.0439 179.081C97.402 179.081 97.7243 179.128 98.0107 179.221C98.2972 179.314 98.5407 179.443 98.7412 179.607C98.9417 179.772 99.0957 179.965 99.2031 180.188C99.3141 180.406 99.3696 180.642 99.3696 180.896H98.376C98.376 180.771 98.3438 180.649 98.2793 180.531C98.2148 180.41 98.1253 180.302 98.0107 180.209C97.8962 180.116 97.7565 180.041 97.5918 179.983C97.4307 179.926 97.248 179.897 97.0439 179.897C96.8327 179.897 96.6465 179.921 96.4854 179.967C96.3278 180.014 96.1971 180.076 96.0933 180.155C95.9858 180.234 95.9053 180.325 95.8516 180.429C95.7979 180.533 95.771 180.64 95.771 180.751C95.771 180.866 95.7925 180.968 95.8354 181.058C95.8784 181.147 95.9536 181.228 96.061 181.299C96.1649 181.371 96.3045 181.435 96.48 181.493C96.659 181.55 96.8846 181.605 97.1567 181.659C97.5148 181.734 97.8353 181.822 98.1182 181.922C98.401 182.019 98.6392 182.135 98.8325 182.271C99.0259 182.411 99.1727 182.572 99.2729 182.755C99.3768 182.938 99.4287 183.149 99.4287 183.389C99.4287 183.646 99.3696 183.881 99.2515 184.092C99.1369 184.304 98.9757 184.484 98.7681 184.635C98.5604 184.785 98.3115 184.902 98.0215 184.984C97.7314 185.066 97.4146 185.107 97.0708 185.107C96.6769 185.107 96.326 185.056 96.0181 184.952C95.7101 184.844 95.4505 184.703 95.2393 184.527C95.0244 184.355 94.8597 184.155 94.7451 183.926C94.6341 183.697 94.5786 183.458 94.5786 183.211H95.5723C95.5866 183.416 95.6403 183.587 95.7334 183.727C95.8301 183.867 95.95 183.979 96.0933 184.065C96.2329 184.151 96.3887 184.212 96.5605 184.248C96.7324 184.284 96.9025 184.302 97.0708 184.302C97.3358 184.302 97.5667 184.271 97.7637 184.21C97.9606 184.146 98.1146 184.058 98.2256 183.947C98.2936 183.879 98.3455 183.804 98.3813 183.722C98.4172 183.639 98.4351 183.552 98.4351 183.458ZM103.532 177.781V179.188H105.745V179.957H103.532V183.115C103.532 183.34 103.561 183.527 103.618 183.673C103.675 183.82 103.754 183.937 103.854 184.022C103.955 184.112 104.069 184.175 104.198 184.21C104.331 184.246 104.47 184.264 104.617 184.264C104.725 184.264 104.836 184.259 104.95 184.248C105.065 184.234 105.178 184.218 105.289 184.2C105.396 184.182 105.496 184.164 105.589 184.146C105.686 184.125 105.765 184.107 105.826 184.092L105.965 184.796C105.883 184.846 105.783 184.891 105.665 184.93C105.546 184.966 105.417 184.996 105.278 185.021C105.138 185.05 104.99 185.072 104.832 185.086C104.678 185.1 104.524 185.107 104.37 185.107C104.112 185.107 103.871 185.072 103.645 185C103.423 184.925 103.23 184.807 103.065 184.646C102.9 184.488 102.77 184.284 102.673 184.033C102.58 183.779 102.533 183.473 102.533 183.115V179.957H101.008V179.188H102.533V177.781H103.532Z" fill="#374151"/>
<path d="M114.75 184.5L117.25 182L114.75 179.5" stroke="#374151" stroke-linecap="round" stroke-linejoin="round"/>
<mask id="path-37-inside-3_7622_61079" fill="white">
<path d="M17 203H363V270H17V203Z"/>
</mask>
<path d="M17 203H363V270H17V203Z" fill="white"/>
<path d="M363 269H17V271H363V269Z" fill="#DBE2F0" mask="url(#path-37-inside-3_7622_61079)"/>
<mask id="path-39-inside-4_7622_61079" fill="white">
<path d="M17 203H363V270H17V203Z"/>
</mask>
<path d="M17 203H363V270H17V203Z" fill="white"/>
<path d="M363 269H17V271H363V269Z" fill="#E6EBF2" mask="url(#path-39-inside-4_7622_61079)"/>
<rect opacity="0.3" x="28" y="214" width="30" height="8" rx="4" fill="url(#paint8_linear_7622_61079)"/>
<rect opacity="0.3" x="110" y="232" width="40" height="8" rx="4" fill="url(#paint9_linear_7622_61079)"/>
<rect x="155.23" y="232" width="30" height="8" rx="4" fill="#FFDB45"/>
<rect x="189.23" y="250" width="30" height="8" rx="4" fill="#FFDB45"/>
<rect opacity="0.3" x="86" y="214" width="77" height="8" rx="4" fill="url(#paint10_linear_7622_61079)"/>
<rect opacity="0.3" x="191" y="232" width="68" height="8" rx="4" fill="url(#paint11_linear_7622_61079)"/>
<rect opacity="0.3" x="110" y="250" width="76" height="8" rx="4" fill="url(#paint12_linear_7622_61079)"/>
<rect opacity="0.3" x="225.23" y="250" width="65" height="8" rx="4" fill="url(#paint13_linear_7622_61079)"/>
<rect opacity="0.3" x="28" y="232" width="30" height="8" rx="4" fill="url(#paint14_linear_7622_61079)"/>
<rect opacity="0.3" x="28" y="250" width="30" height="8" rx="4" fill="url(#paint15_linear_7622_61079)"/>
</g>
<rect x="9.5" y="0.5" width="361" height="267" rx="7.5" stroke="#E4E9F4"/>
<rect y="191" width="376" height="81" fill="url(#paint16_linear_7622_61079)"/>
<g filter="url(#filter0_d_7622_61079)">
<path d="M330 70C330 60.1711 330 55.2566 331.735 51.4284C333.683 47.1282 337.128 43.6829 341.428 41.7345C345.257 40 350.171 40 360 40C369.829 40 374.743 40 378.572 41.7345C382.872 43.6829 386.317 47.1282 388.265 51.4284C390 55.2566 390 60.1711 390 70C390 79.8289 390 84.7434 388.265 88.5716C386.317 92.8718 382.872 96.3171 378.572 98.2655C374.743 100 369.829 100 360 100C350.171 100 345.257 100 341.428 98.2655C337.128 96.3171 333.683 92.8718 331.735 88.5716C330 84.7434 330 79.8289 330 70Z" fill="white"/>
<path d="M330 70C330 60.1711 330 55.2566 331.735 51.4284C333.683 47.1282 337.128 43.6829 341.428 41.7345C345.257 40 350.171 40 360 40C369.829 40 374.743 40 378.572 41.7345C382.872 43.6829 386.317 47.1282 388.265 51.4284C390 55.2566 390 60.1711 390 70C390 79.8289 390 84.7434 388.265 88.5716C386.317 92.8718 382.872 96.3171 378.572 98.2655C374.743 100 369.829 100 360 100C350.171 100 345.257 100 341.428 98.2655C337.128 96.3171 333.683 92.8718 331.735 88.5716C330 84.7434 330 79.8289 330 70Z" fill="url(#paint17_radial_7622_61079)" fill-opacity="0.2"/>
</g>
<g filter="url(#filter1_d_7622_61079)">
<path fill-rule="evenodd" clip-rule="evenodd" d="M348.605 97.8684C351.454 98.0788 355.057 98.08 360 98.08C364.943 98.08 368.546 98.0788 371.395 97.8684C374.224 97.6594 376.157 97.2518 377.779 96.5166C381.655 94.7604 384.76 91.6551 386.517 87.7792C387.252 86.1566 387.659 84.224 387.868 81.3946C388.079 78.546 388.08 74.943 388.08 70C388.08 65.057 388.079 61.454 387.868 58.6054C387.659 55.776 387.252 53.8434 386.517 52.2208C384.76 48.3449 381.655 45.2396 377.779 43.4834C376.157 42.7482 374.224 42.3406 371.395 42.1316C368.546 41.9212 364.943 41.92 360 41.92C355.057 41.92 351.454 41.9212 348.605 42.1316C345.776 42.3406 343.843 42.7482 342.221 43.4834C338.345 45.2396 335.24 48.3449 333.483 52.2208C332.748 53.8434 332.341 55.776 332.132 58.6054C331.921 61.454 331.92 65.057 331.92 70C331.92 74.943 331.921 78.546 332.132 81.3946C332.341 84.224 332.748 86.1566 333.483 87.7792C335.24 91.6551 338.345 94.7604 342.221 96.5166C343.843 97.2518 345.776 97.6594 348.605 97.8684ZM331.735 51.4284C330 55.2566 330 60.1711 330 70C330 79.8289 330 84.7434 331.735 88.5716C333.683 92.8718 337.128 96.3171 341.428 98.2655C345.257 100 350.171 100 360 100C369.829 100 374.743 100 378.572 98.2655C382.872 96.3171 386.317 92.8718 388.265 88.5716C390 84.7434 390 79.8289 390 70C390 60.1711 390 55.2566 388.265 51.4284C386.317 47.1282 382.872 43.6829 378.572 41.7345C374.743 40 369.829 40 360 40C350.171 40 345.257 40 341.428 41.7345C337.128 43.6829 333.683 47.1282 331.735 51.4284Z" fill="#E4E9F4"/>
</g>
<g clip-path="url(#clip2_7622_61079)">
<path d="M372.733 85.6004C373.162 85.5713 373.579 85.4024 373.902 85.0905C374.618 84.3985 374.63 83.2816 373.902 82.5896L369.509 78.3892C372.15 75.8398 373.791 72.3313 373.791 68.4586C373.791 60.7132 367.227 54.4004 359.096 54.4004C350.965 54.4004 344.4 60.7011 344.4 68.4586C344.4 76.2161 350.965 82.5289 359.096 82.5047C360.132 82.5047 360.959 81.7156 360.959 80.7444C360.959 79.7731 360.12 78.984 359.096 78.984C353.05 78.984 348.114 74.2858 348.114 68.4586C348.114 62.6314 353.05 57.9332 359.096 57.9332C365.142 57.9332 370.102 62.6435 370.102 68.4707C370.102 71.9185 368.374 74.9778 365.697 76.8959C365.277 77.2116 365.006 77.6729 364.969 78.1828C364.932 78.6927 365.117 79.1904 365.499 79.5546L371.274 85.0905C371.605 85.3999 372.031 85.571 372.464 85.6004H372.733Z" fill="url(#paint18_linear_7622_61079)"/>
</g>
<defs>
<filter id="filter0_d_7622_61079" x="326.8" y="40" width="66.4" height="66.4" filterUnits="userSpaceOnUse" color-interpolation-filters="sRGB">
<feFlood flood-opacity="0" result="BackgroundImageFix"/>
<feColorMatrix in="SourceAlpha" type="matrix" values="0 0 0 0 0 0 0 0 0 0 0 0 0 0 0 0 0 0 127 0" result="hardAlpha"/>
<feOffset dy="3.2"/>
<feGaussianBlur stdDeviation="1.6"/>
<feComposite in2="hardAlpha" operator="out"/>
<feColorMatrix type="matrix" values="0 0 0 0 0 0 0 0 0 0 0 0 0 0 0 0 0 0 0.05 0"/>
<feBlend mode="normal" in2="BackgroundImageFix" result="effect1_dropShadow_7622_61079"/>
<feBlend mode="normal" in="SourceGraphic" in2="effect1_dropShadow_7622_61079" result="shape"/>
</filter>
<filter id="filter1_d_7622_61079" x="326.8" y="40" width="66.4" height="66.4" filterUnits="userSpaceOnUse" color-interpolation-filters="sRGB">
<feFlood flood-opacity="0" result="BackgroundImageFix"/>
<feColorMatrix in="SourceAlpha" type="matrix" values="0 0 0 0 0 0 0 0 0 0 0 0 0 0 0 0 0 0 127 0" result="hardAlpha"/>
<feOffset dy="3.2"/>
<feGaussianBlur stdDeviation="1.6"/>
<feComposite in2="hardAlpha" operator="out"/>
<feColorMatrix type="matrix" values="0 0 0 0 0 0 0 0 0 0 0 0 0 0 0 0 0 0 0.05 0"/>
<feBlend mode="normal" in2="BackgroundImageFix" result="effect1_dropShadow_7622_61079"/>
<feBlend mode="normal" in="SourceGraphic" in2="effect1_dropShadow_7622_61079" result="shape"/>
</filter>
<linearGradient id="paint0_linear_7622_61079" x1="28" y1="102.235" x2="83" y2="102" gradientUnits="userSpaceOnUse">
<stop offset="0.0172879" stop-color="#5E6E8C"/>
<stop offset="0.855112" stop-color="#F1F4F9"/>
<stop offset="0.955" stop-color="white"/>
</linearGradient>
<linearGradient id="paint1_linear_7622_61079" x1="110" y1="120.235" x2="170" y2="120" gradientUnits="userSpaceOnUse">
<stop offset="0.0172879" stop-color="#5E6E8C"/>
<stop offset="0.855112" stop-color="#F1F4F9"/>
<stop offset="0.955" stop-color="white"/>
</linearGradient>
<linearGradient id="paint2_linear_7622_61079" x1="86" y1="102.235" x2="196.5" y2="102" gradientUnits="userSpaceOnUse">
<stop offset="0.0172879" stop-color="#5E6E8C"/>
<stop offset="0.855112" stop-color="#F1F4F9"/>
<stop offset="0.955" stop-color="white"/>
</linearGradient>
<linearGradient id="paint3_linear_7622_61079" x1="191" y1="120.235" x2="262.169" y2="120.235" gradientUnits="userSpaceOnUse">
<stop offset="0.0172879" stop-color="#5E6E8C"/>
<stop offset="0.855112" stop-color="#F1F4F9"/>
<stop offset="0.955" stop-color="white"/>
</linearGradient>
<linearGradient id="paint4_linear_7622_61079" x1="110" y1="138.235" x2="209.5" y2="138" gradientUnits="userSpaceOnUse">
<stop offset="0.0172879" stop-color="#5E6E8C"/>
<stop offset="0.855112" stop-color="#F1F4F9"/>
<stop offset="0.955" stop-color="white"/>
</linearGradient>
<linearGradient id="paint5_linear_7622_61079" x1="228" y1="138.235" x2="292.89" y2="138.235" gradientUnits="userSpaceOnUse">
<stop offset="0.0172879" stop-color="#5E6E8C"/>
<stop offset="0.855112" stop-color="#F1F4F9"/>
<stop offset="0.955" stop-color="white"/>
</linearGradient>
<linearGradient id="paint6_linear_7622_61079" x1="28" y1="120.235" x2="73" y2="122" gradientUnits="userSpaceOnUse">
<stop offset="0.0172879" stop-color="#5E6E8C"/>
<stop offset="0.855112" stop-color="#F1F4F9"/>
<stop offset="0.955" stop-color="white"/>
</linearGradient>
<linearGradient id="paint7_linear_7622_61079" x1="28" y1="138.235" x2="86" y2="138" gradientUnits="userSpaceOnUse">
<stop offset="0.0172879" stop-color="#5E6E8C"/>
<stop offset="0.855112" stop-color="#F1F4F9"/>
<stop offset="0.955" stop-color="white"/>
</linearGradient>
<linearGradient id="paint8_linear_7622_61079" x1="28" y1="218.235" x2="86" y2="218" gradientUnits="userSpaceOnUse">
<stop offset="0.0172879" stop-color="#5E6E8C"/>
<stop offset="0.855112" stop-color="#F1F4F9"/>
<stop offset="0.955" stop-color="white"/>
</linearGradient>
<linearGradient id="paint9_linear_7622_61079" x1="110" y1="236.235" x2="187.332" y2="235.817" gradientUnits="userSpaceOnUse">
<stop offset="0.0172879" stop-color="#5E6E8C"/>
<stop offset="0.855112" stop-color="#F1F4F9"/>
<stop offset="0.955" stop-color="white"/>
</linearGradient>
<linearGradient id="paint10_linear_7622_61079" x1="86" y1="218.235" x2="234.853" y2="216.686" gradientUnits="userSpaceOnUse">
<stop offset="0.0172879" stop-color="#5E6E8C"/>
<stop offset="0.855112" stop-color="#F1F4F9"/>
<stop offset="0.955" stop-color="white"/>
</linearGradient>
<linearGradient id="paint11_linear_7622_61079" x1="191" y1="236.235" x2="322.458" y2="235.027" gradientUnits="userSpaceOnUse">
<stop offset="0.0172879" stop-color="#5E6E8C"/>
<stop offset="0.855112" stop-color="#F1F4F9"/>
<stop offset="0.955" stop-color="white"/>
</linearGradient>
<linearGradient id="paint12_linear_7622_61079" x1="110" y1="254.235" x2="256.92" y2="252.726" gradientUnits="userSpaceOnUse">
<stop offset="0.0172879" stop-color="#5E6E8C"/>
<stop offset="0.855112" stop-color="#F1F4F9"/>
<stop offset="0.955" stop-color="white"/>
</linearGradient>
<linearGradient id="paint13_linear_7622_61079" x1="225.23" y1="254.235" x2="350.889" y2="253.131" gradientUnits="userSpaceOnUse">
<stop offset="0.0172879" stop-color="#5E6E8C"/>
<stop offset="0.855112" stop-color="#F1F4F9"/>
<stop offset="0.955" stop-color="white"/>
</linearGradient>
<linearGradient id="paint14_linear_7622_61079" x1="28" y1="236.235" x2="86" y2="236" gradientUnits="userSpaceOnUse">
<stop offset="0.0172879" stop-color="#5E6E8C"/>
<stop offset="0.855112" stop-color="#F1F4F9"/>
<stop offset="0.955" stop-color="white"/>
</linearGradient>
<linearGradient id="paint15_linear_7622_61079" x1="28" y1="254.235" x2="86" y2="254" gradientUnits="userSpaceOnUse">
<stop offset="0.0172879" stop-color="#5E6E8C"/>
<stop offset="0.855112" stop-color="#F1F4F9"/>
<stop offset="0.955" stop-color="white"/>
</linearGradient>
<linearGradient id="paint16_linear_7622_61079" x1="188" y1="191" x2="188" y2="272" gradientUnits="userSpaceOnUse">
<stop stop-color="white" stop-opacity="0"/>
<stop offset="1" stop-color="#F9FAFB"/>
</linearGradient>
<radialGradient id="paint17_radial_7622_61079" cx="0" cy="0" r="1" gradientUnits="userSpaceOnUse" gradientTransform="translate(353.423 -4.48734) rotate(77.074) scale(58.2161)">
<stop stop-color="#00DBFF"/>
<stop offset="1" stop-color="#00DBFF" stop-opacity="0"/>
</radialGradient>
<linearGradient id="paint18_linear_7622_61079" x1="337.2" y1="92.8" x2="369.56" y2="96.1829" gradientUnits="userSpaceOnUse">
<stop stop-color="#7048E8"/>
<stop offset="0.035" stop-color="#607CE8"/>
<stop offset="0.185" stop-color="#4AC1E8"/>
<stop offset="0.35" stop-color="#59A3EC"/>
<stop offset="0.626149" stop-color="#A112FF"/>
<stop offset="1" stop-color="#FF5543"/>
</linearGradient>
<clipPath id="clip0_7622_61079">
<rect x="9" width="362" height="268" rx="8" fill="white"/>
</clipPath>
<clipPath id="clip1_7622_61079">
<rect width="263" height="18" fill="white" transform="translate(22 14)"/>
</clipPath>
<clipPath id="clip2_7622_61079">
<rect width="30.0444" height="31.2" fill="white" transform="translate(344.4 54.4004)"/>
</clipPath>
</defs>
</svg>
