<?xml version="1.0" encoding="UTF-8"?>
<svg xmlns="http://www.w3.org/2000/svg" xmlns:xlink="http://www.w3.org/1999/xlink" version="1.1" viewBox="0 0 505 562">
  <defs>
    <style>
      .cls-1, .cls-2 {
        fill: none;
      }

      .cls-3 {
        mask: url(#mask);
      }

      .cls-4, .cls-5, .cls-6, .cls-7 {
        fill: #a6b6d9;
      }

      .cls-5, .cls-6, .cls-8, .cls-7, .cls-2 {
        stroke: #a6b6d9;
      }

      .cls-5, .cls-2 {
        stroke-linecap: round;
        stroke-linejoin: round;
        stroke-width: 1.8px;
      }

      .cls-6 {
        stroke-width: .2px;
      }

      .cls-9 {
        clip-path: url(#clippath-17);
      }

      .cls-10 {
        clip-path: url(#clippath-19);
      }

      .cls-11 {
        clip-path: url(#clippath-11);
      }

      .cls-12 {
        clip-path: url(#clippath-16);
      }

      .cls-13 {
        clip-path: url(#clippath-18);
      }

      .cls-14 {
        clip-path: url(#clippath-10);
      }

      .cls-15 {
        clip-path: url(#clippath-15);
      }

      .cls-16 {
        clip-path: url(#clippath-13);
      }

      .cls-17 {
        clip-path: url(#clippath-14);
      }

      .cls-18 {
        clip-path: url(#clippath-12);
      }

      .cls-19 {
        clip-path: url(#clippath-27);
      }

      .cls-20 {
        clip-path: url(#clippath-26);
      }

      .cls-21 {
        clip-path: url(#clippath-28);
      }

      .cls-22 {
        clip-path: url(#clippath-20);
      }

      .cls-23 {
        clip-path: url(#clippath-21);
      }

      .cls-24 {
        clip-path: url(#clippath-22);
      }

      .cls-25 {
        clip-path: url(#clippath-23);
      }

      .cls-26 {
        clip-path: url(#clippath-24);
      }

      .cls-27 {
        clip-path: url(#clippath-25);
      }

      .cls-28 {
        clip-path: url(#clippath-1);
      }

      .cls-29 {
        clip-path: url(#clippath-3);
      }

      .cls-30 {
        clip-path: url(#clippath-4);
      }

      .cls-31 {
        clip-path: url(#clippath-2);
      }

      .cls-32 {
        clip-path: url(#clippath-7);
      }

      .cls-33 {
        clip-path: url(#clippath-6);
      }

      .cls-34 {
        clip-path: url(#clippath-9);
      }

      .cls-35 {
        clip-path: url(#clippath-8);
      }

      .cls-36 {
        clip-path: url(#clippath-5);
      }

      .cls-37 {
        fill: #fff;
      }

      .cls-8 {
        fill: #f9fafb;
        stroke-linejoin: bevel;
      }

      .cls-38 {
        opacity: .8;
      }

      .cls-39 {
        opacity: .7;
      }

      .cls-40 {
        opacity: .4;
      }

      .cls-41 {
        opacity: .6;
      }

      .cls-42 {
        opacity: .5;
      }

      .cls-43 {
        opacity: .2;
      }

      .cls-44 {
        opacity: .3;
      }

      .cls-45 {
        opacity: .1;
      }

      .cls-46 {
        clip-path: url(#clippath);
      }
    </style>
    <clipPath id="clippath">
      <polygon class="cls-1" points="410.7 305.2 431.8 291.4 452.8 305.3 431.7 319 410.7 305.2"/>
    </clipPath>
    <clipPath id="clippath-1">
      <polygon class="cls-1" points="346.7 170.6 367.8 156.6 388.8 170.7 367.7 184.8 346.7 170.6"/>
    </clipPath>
    <clipPath id="clippath-2">
      <polygon class="cls-1" points="285.5 243.2 306.3 229.4 327 243.3 306.2 257 285.5 243.2"/>
    </clipPath>
    <clipPath id="clippath-3">
      <polygon class="cls-1" points="285.5 234.6 306.3 220.6 327 234.7 306.2 248.8 285.5 234.6"/>
    </clipPath>
    <clipPath id="clippath-4">
      <polygon class="cls-1" points="284.5 206.6 305.3 192.6 326 206.7 305.2 220.8 284.5 206.6"/>
    </clipPath>
    <clipPath id="clippath-5">
      <polygon class="cls-1" points="250.5 137.6 271.3 123.6 292 137.7 271.2 151.8 250.5 137.6"/>
    </clipPath>
    <clipPath id="clippath-6">
      <polygon class="cls-1" points="312.7 322.6 333.8 308.6 354.8 322.7 333.7 336.8 312.7 322.6"/>
    </clipPath>
    <clipPath id="clippath-7">
      <polygon class="cls-1" points="443.7 392.6 464.8 378.6 485.8 392.7 464.7 406.8 443.7 392.6"/>
    </clipPath>
    <clipPath id="clippath-8">
      <polygon class="cls-1" points="129.7 158.2 150.8 144.4 171.8 158.3 150.7 172 129.7 158.2"/>
    </clipPath>
    <clipPath id="clippath-9">
      <polygon class="cls-1" points="129.7 149.6 150.8 135.6 171.8 149.7 150.7 163.8 129.7 149.6"/>
    </clipPath>
    <clipPath id="clippath-10">
      <polygon class="cls-1" points="165.7 79.6 186.8 65.6 207.8 79.7 186.7 93.8 165.7 79.6"/>
    </clipPath>
    <clipPath id="clippath-11">
      <polygon class="cls-1" points="14.7 153.6 35.8 139.6 56.8 153.7 35.7 167.8 14.7 153.6"/>
    </clipPath>
    <clipPath id="clippath-12">
      <polygon class="cls-1" points="66.7 98.6 87.8 84.6 108.8 98.7 87.7 112.8 66.7 98.6"/>
    </clipPath>
    <clipPath id="clippath-13">
      <polygon class="cls-1" points="358.7 253.6 379.8 239.6 400.8 253.7 379.7 267.8 358.7 253.6"/>
    </clipPath>
    <clipPath id="clippath-14">
      <polygon class="cls-1" points="447.7 228.6 468.8 214.6 489.8 228.7 468.7 242.8 447.7 228.6"/>
    </clipPath>
    <clipPath id="clippath-15">
      <polygon class="cls-1" points="305.7 374.6 326.8 360.6 347.8 374.7 326.7 388.8 305.7 374.6"/>
    </clipPath>
    <clipPath id="clippath-16">
      <polygon class="cls-1" points="233.7 301.6 254.8 287.6 275.8 301.7 254.7 315.8 233.7 301.6"/>
    </clipPath>
    <clipPath id="clippath-17">
      <polygon class="cls-1" points="278.7 467.6 299.8 453.6 320.8 467.7 299.7 481.8 278.7 467.6"/>
    </clipPath>
    <clipPath id="clippath-18">
      <polygon class="cls-1" points="183.7 230.6 204.8 216.6 225.8 230.7 204.7 244.8 183.7 230.6"/>
    </clipPath>
    <clipPath id="clippath-19">
      <polygon class="cls-1" points="97.7 20.6 118.8 6.6 139.8 20.7 118.7 34.8 97.7 20.6"/>
    </clipPath>
    <clipPath id="clippath-20">
      <polygon class="cls-1" points="249.7 68.6 270.8 54.6 291.8 68.7 270.7 82.8 249.7 68.6"/>
    </clipPath>
    <clipPath id="clippath-21">
      <polygon class="cls-1" points="103.7 286.6 124.8 272.6 145.8 286.7 124.7 300.8 103.7 286.6"/>
    </clipPath>
    <clipPath id="clippath-22">
      <polygon class="cls-1" points="103.7 279.2 124.8 265.4 145.8 279.3 124.7 293 103.7 279.2"/>
    </clipPath>
    <clipPath id="clippath-23">
      <polygon class="cls-1" points="103.7 258.2 124.8 244.4 145.8 258.3 124.7 272 103.7 258.2"/>
    </clipPath>
    <clipPath id="clippath-24">
      <polygon class="cls-1" points="54.7 374.2 75.8 360.4 96.8 374.3 75.7 388 54.7 374.2"/>
    </clipPath>
    <clipPath id="clippath-25">
      <polygon class="cls-1" points="55.5 203.4 76.5 189.3 97.5 203.5 76.5 217.5 55.5 203.4"/>
    </clipPath>
    <clipPath id="clippath-26">
      <polygon class="cls-1" points="229.7 378.6 250.8 364.6 271.8 378.7 250.7 392.8 229.7 378.6"/>
    </clipPath>
    <clipPath id="clippath-27">
      <polygon class="cls-1" points="172.7 533.6 193.8 519.6 214.8 533.7 193.7 547.8 172.7 533.6"/>
    </clipPath>
    <clipPath id="clippath-28">
      <polygon class="cls-1" points="148.7 453.6 169.8 439.6 190.8 453.7 169.7 467.8 148.7 453.6"/>
    </clipPath>
    <mask id="mask" x="152.5" y="442.1" width="34.5" height="23.1" maskUnits="userSpaceOnUse">
      <g id="path-104-inside-1_7622_61293">
        <path class="cls-37" d="M161.9,462.2c-.2-.1-.1-.3.2-.3h15.3c.3,0,.4.3.2.4-4.8,2-10.9,2-15.7,0ZM158.6,460.3c0,0,.1,0,.2,0h21.9c0,0,.2,0,.2,0,.5-.4.9-.7,1.3-1.1.1-.1,0-.3-.2-.3h-24.4c-.2,0-.4.1-.2.3.4.4.8.8,1.3,1.1ZM155.8,457.2c0,0,.2.1.3.1h27.2c.1,0,.2,0,.3,0,.2-.4.4-.7.5-1.1,0-.1,0-.2-.3-.2h-28.3c-.2,0-.3,0-.3.2.1.4.3.7.5,1.1ZM155.2,454.4c-.2,0-.3,0-.3-.2-.2-2.7,1.2-5.5,4.3-7.6,5.8-3.9,15.2-3.9,21,0,3.1,2.1,4.6,4.9,4.3,7.6,0,.1-.1.2-.3.2h-29.1Z"/>
      </g>
    </mask>
  </defs>
  <!-- Generator: Adobe Illustrator 28.7.1, SVG Export Plug-In . SVG Version: 1.2.0 Build 142)  -->
  <g>
    <g id="Layer_1">
      <g class="cls-44">
        <path class="cls-8" d="M405.5,319.1c-2.7-1.5-4-3.6-3.9-5.6.1-1.9,0-9.1,0-9.1l19.6-5.3c.9-.2,1.7-.6,2.5-1,4.9-2.2,11.8-2.2,16.7,0,.7.3,1.4.6,2.2.9l19.9,6.2s-.1,6.4,0,8.3c.1,2-1.2,4.1-3.9,5.6l-17.1,10.5c-5.2,3-13.7,3-18.9,0l-17.1-10.5Z"/>
        <path class="cls-8" d="M405.3,310.7c-5.1-2.9-5.1-7.7,0-10.6l17.4-10.7c5.1-2.9,13.5-2.9,18.6,0l17.4,10.7c5.1,2.9,5.1,7.7,0,10.6l-17.4,10.7c-5.1,2.9-13.5,2.9-18.6,0l-17.4-10.7Z"/>
        <g class="cls-46">
          <path class="cls-2" d="M424.7,298.3l3.5,2.3c.5.3,1.1.5,1.8.5.7,0,1.3-.2,1.8-.5l3.5-2.3M425.6,297.7l-7.9,5.2c-.5.3-.7.7-.7,1.1,0,.4.3.8.7,1.2l14,9.2c.5.3,1.1.5,1.8.5.7,0,1.3-.2,1.8-.5l10.5-6.9c.5-.3.7-.7.7-1.1,0-.4-.3-.8-.7-1.2l-11.4-7.5h-8.8Z"/>
        </g>
      </g>
      <g class="cls-40">
        <path class="cls-8" d="M341.5,184.8c-2.7-1.6-4-3.7-3.9-5.8.1-1.9,0-9.3,0-9.3l19.6-5.5c.9-.2,1.7-.6,2.5-1,4.9-2.2,11.8-2.2,16.7,0,.7.3,1.4.7,2.2.9l19.9,6.3s-.1,6.6,0,8.5c.1,2.1-1.2,4.2-3.9,5.7l-17.1,10.7c-5.2,3-13.7,3-18.9,0l-17.1-10.7Z"/>
        <path class="cls-8" d="M341.3,176.3c-5.1-3-5.1-7.8,0-10.8l17.4-10.9c5.1-3,13.5-3,18.6,0l17.4,10.9c5.1,3,5.1,7.8,0,10.8l-17.4,10.9c-5.1,3-13.5,3-18.6,0l-17.4-10.9Z"/>
        <g class="cls-28">
          <path class="cls-4" d="M357.7,173.6c-.2-.3-.4-.7-.6-1.1-.4,0-1.2,0-1.2,0-.5-3.6,1.8-6.3,5.1-7.8.7-.3,1.4-.6,2.1-.9,5.5-1.7,12,0,14.4,3.6.2.4.4.7.6,1.1.4,0,1.3-.1,1.3,0,.5,3.9-2.4,6.8-6.2,8.3-.4.1-.7.3-1.1.4-5.5,1.7-12,0-14.4-3.6ZM364.6,159.9c0,.7,0,1.5,0,1.9-.8.1-1.5.3-2.2.5-6.3,1.9-9.1,6.4-8.2,10.6.7,2.3,2.4,4.5,5.1,6.1,0,0,4.9,3.3,12.2,2.2-.1-.6-.3-1.3-.4-1.8.8-.1,1.6-.3,2.3-.6,7.1-2.2,10.4-7.6,7.3-12.2,0,0-1.6-2.9-5.4-4.8,0,0-4.8-2.7-10.7-1.9Z"/>
        </g>
      </g>
      <g class="cls-41">
        <path class="cls-8" d="M280.3,257.1c-2.7-1.5-4-3.6-3.9-5.6.1-1.9,0-9.1,0-9.1l19.4-5.3c.9-.2,1.7-.6,2.5-1,4.8-2.2,11.7-2.2,16.5,0,.7.3,1.4.6,2.1.9l19.6,6.2s-.1,6.4,0,8.3c.1,2-1.2,4.1-3.9,5.6l-16.8,10.5c-5.2,3-13.5,3-18.7,0l-16.8-10.5Z"/>
        <path class="cls-8" d="M280.2,248.7c-5.1-2.9-5.1-7.7,0-10.6l17.1-10.7c5.1-2.9,13.3-2.9,18.4,0l17.1,10.7c5.1,2.9,5.1,7.7,0,10.6l-17.1,10.7c-5.1,2.9-13.3,2.9-18.4,0l-17.1-10.7Z"/>
        <g class="cls-31">
          <path class="cls-2" d="M299.3,236.3l3.4,2.3c.5.3,1.1.5,1.7.5.6,0,1.3-.2,1.7-.5l3.5-2.3M300.2,235.7l-7.8,5.2c-.5.3-.7.7-.7,1.1,0,.4.3.8.7,1.2l13.8,9.2c.5.3,1.1.5,1.7.5.6,0,1.3-.2,1.7-.5l10.4-6.9c.5-.3.7-.7.7-1.1,0-.4-.3-.8-.7-1.2l-11.2-7.5h-8.6Z"/>
        </g>
        <path class="cls-8" d="M280.3,248.8c-2.7-1.6-4-3.7-3.9-5.8.1-1.9,0-9.3,0-9.3l19.4-5.5c.9-.2,1.7-.6,2.5-1,4.8-2.2,11.7-2.2,16.5,0,.7.3,1.4.7,2.1.9l19.6,6.3s-.1,6.6,0,8.5c.1,2.1-1.2,4.2-3.9,5.7l-16.8,10.7c-5.2,3-13.5,3-18.7,0l-16.8-10.7Z"/>
        <path class="cls-8" d="M280.2,240.3c-5.1-3-5.1-7.8,0-10.8l17.1-10.9c5.1-3,13.3-3,18.4,0l17.1,10.9c5.1,3,5.1,7.8,0,10.8l-17.1,10.9c-5.1,3-13.3,3-18.4,0l-17.1-10.9Z"/>
        <g class="cls-29">
          <g>
            <path class="cls-6" d="M292,235.4h0c-.3-.1-.3-.4,0-.6h0l14.6-9.9h0c.3-.2.7-.2.9,0h0l10.8,10.3c.2.2.1.4,0,.5l-10.2,6.9c-.3.2-.8.2-1.1,0h0s-14.9-7.3-14.9-7.3ZM310.1,235.1h0s0,0,0,0l-3.8-3.7h0c0,0,0,0,0,0l-4.9,3.3h0c0,0,.1.1.1.1l5.4,2.5h0s0,0,0,0l3.2-2.2Z"/>
            <path class="cls-4" d="M310.9,228.2l-4.7,3.2,3.8,3.7-3.2,2.2.7,5.7s.3,0,.6-.2l10.2-6.9c.2-.2.3-.4,0-.6l-7.4-7Z"/>
          </g>
        </g>
        <path class="cls-8" d="M279.3,220.8c-2.7-1.6-4-3.7-3.9-5.8.1-1.9,0-9.3,0-9.3l19.4-5.5c.9-.2,1.7-.6,2.5-1,4.8-2.2,11.7-2.2,16.5,0,.7.3,1.4.7,2.1.9l19.6,6.3s-.1,6.6,0,8.5c.1,2.1-1.2,4.2-3.9,5.7l-16.8,10.7c-5.2,3-13.5,3-18.7,0l-16.8-10.7Z"/>
        <path class="cls-8" d="M279.2,212.3c-5.1-3-5.1-7.8,0-10.8l17.1-10.9c5.1-3,13.3-3,18.4,0l17.1,10.9c5.1,3,5.1,7.8,0,10.8l-17.1,10.9c-5.1,3-13.3,3-18.4,0l-17.1-10.9Z"/>
        <g class="cls-30">
          <g>
            <path class="cls-6" d="M291,207.4h0c-.3-.1-.3-.4,0-.6h0l14.6-9.9h0c.3-.2.7-.2.9,0h0l10.8,10.3c.2.2.1.4,0,.5l-10.2,6.9c-.3.2-.8.2-1.1,0h0s-14.9-7.3-14.9-7.3ZM309.1,207.1h0s0,0,0,0l-3.8-3.7h0c0,0,0,0,0,0l-4.9,3.3h0c0,0,.1.1.1.1l5.4,2.5h0s0,0,0,0l3.2-2.2Z"/>
            <path class="cls-4" d="M309.9,200.2l-4.7,3.2,3.8,3.7-3.2,2.2.7,5.7s.3,0,.6-.2l10.2-6.9c.2-.2.3-.4,0-.6l-7.4-7Z"/>
          </g>
        </g>
      </g>
      <g class="cls-41">
        <path class="cls-8" d="M245.3,151.8c-2.7-1.6-4-3.7-3.9-5.8.1-1.9,0-9.3,0-9.3l19.4-5.5c.9-.2,1.7-.6,2.5-1,4.8-2.2,11.7-2.2,16.5,0,.7.3,1.4.7,2.1.9l19.6,6.3s-.1,6.6,0,8.5c.1,2.1-1.2,4.2-3.9,5.7l-16.8,10.7c-5.2,3-13.5,3-18.7,0l-16.8-10.7Z"/>
        <path class="cls-8" d="M245.2,143.3c-5.1-3-5.1-7.8,0-10.8l17.1-10.9c5.1-3,13.3-3,18.4,0l17.1,10.9c5.1,3,5.1,7.8,0,10.8l-17.1,10.9c-5.1,3-13.3,3-18.4,0l-17.1-10.9Z"/>
        <g class="cls-36">
          <g>
            <path class="cls-4" d="M259.1,133.7l5.6-3.8,11.4,15.8c.1.2.2.3.1.5,0,.2-.2.3-.4.5l-4.4,3c-.1,0-.3.2-.5.2-.2,0-.4,0-.6,0-.2,0-.4,0-.5-.2-.2,0-.3-.2-.4-.3l-10.6-14.7c-.1-.2-.2-.3-.1-.5,0-.2.2-.3.4-.5Z"/>
            <path class="cls-4" d="M278.9,136.1l-8.9,6.1c0,0-.1.1-.2.2s0,.2,0,.2c0,0,.1.1.2.2,0,0,.2,0,.3,0l11.1-.2c.3,0,.6,0,.9-.3l5.1-3.4-8.5-2.8Z"/>
            <path class="cls-4" d="M259.1,133.7c-.2.1-.3.3-.4.5,0,.2,0,.4.1.5l10.6,14.7c0,.1.2.2.4.3.2,0,.4.1.6.2.2,0,.4,0,.6,0,.2,0,.4-.1.5-.2l4.5-3c.1-.1.2-.3.2-.5,0-.2,0-.3-.1-.5l-2.1-2.9,7.5-.2c.3,0,.6-.1.8-.2l5-3.4-8.5-2.8-6.4,4.4-7.6-10.6-5.6,3.8Z"/>
            <path class="cls-4" d="M266.9,129.3c-.2,0-.5-.1-.8,0-.3,0-.5.1-.7.2l-6.3,4.3c.2-.1.4-.2.7-.2.3,0,.5,0,.8,0l21.5,7.3c.2,0,.3.2.5.3.1.1.2.2.2.4,0,.1,0,.3,0,.4,0,.1-.2.2-.3.3l6.3-4.3c.1,0,.2-.2.3-.3,0-.1,0-.3,0-.4,0-.1-.1-.3-.2-.4-.1-.1-.3-.2-.5-.3l-21.5-7.3Z"/>
          </g>
        </g>
      </g>
      <g class="cls-42">
        <path class="cls-8" d="M307.5,336.8c-2.7-1.6-4-3.7-3.9-5.8.1-1.9,0-9.3,0-9.3l19.6-5.5c.9-.2,1.7-.6,2.5-1,4.9-2.2,11.8-2.2,16.7,0,.7.3,1.4.7,2.2.9l19.9,6.3s-.1,6.6,0,8.5c.1,2.1-1.2,4.2-3.9,5.7l-17.1,10.7c-5.2,3-13.7,3-18.9,0l-17.1-10.7Z"/>
        <path class="cls-8" d="M307.3,328.3c-5.1-3-5.1-7.8,0-10.8l17.4-10.9c5.1-3,13.5-3,18.6,0l17.4,10.9c5.1,3,5.1,7.8,0,10.8l-17.4,10.9c-5.1,3-13.5,3-18.6,0l-17.4-10.9Z"/>
        <g class="cls-33">
          <g>
            <path class="cls-4" d="M330.4,328.6c1.2.8,1.2,2.1,0,3-1.2.8-3.2.8-4.4,0-1.2-.8-1.2-2.2,0-3l2.2-1.5,2.2,1.5Z"/>
            <path class="cls-4" d="M331.5,327.9c-1.2-.8-1.2-2.1,0-3,1.2-.8,3.2-.8,4.4,0l5.5,3.7c1.2.8,1.2,2.1,0,3-1.2.8-3.2.8-4.4,0l-5.5-3.7Z"/>
            <path class="cls-4" d="M324.9,320.4c-1.2.8-3.2.8-4.4,0-1.2-.8-1.2-2.1,0-3,1.2-.8,3.2-.8,4.4,0l2.2,1.5-2.2,1.5Z"/>
            <path class="cls-4" d="M326,321.2c1.2-.8,3.2-.8,4.4,0,1.2.8,1.2,2.1,0,3l-5.5,3.7c-1.2.8-3.2.8-4.4,0-1.2-.8-1.2-2.1,0-3l5.5-3.7Z"/>
            <path class="cls-4" d="M337.1,316.7c-1.2-.8-1.2-2.1,0-3,1.2-.8,3.2-.8,4.4,0,1.2.8,1.2,2.1,0,3l-2.2,1.5-2.2-1.5Z"/>
            <path class="cls-4" d="M336,317.5c1.2.8,1.2,2.2,0,3-1.2.8-3.2.8-4.4,0l-5.5-3.7c-1.2-.8-1.2-2.2,0-3,1.2-.8,3.2-.8,4.4,0l5.5,3.7Z"/>
            <path class="cls-4" d="M342.6,324.9c1.2-.8,3.2-.8,4.4,0,1.2.8,1.2,2.1,0,3-1.2.8-3.2.8-4.4,0l-2.2-1.5,2.2-1.5Z"/>
            <path class="cls-4" d="M341.5,324.2c-1.2.8-3.2.8-4.4,0-1.2-.8-1.2-2.1,0-3l5.5-3.7c1.2-.8,3.2-.8,4.4,0,1.2.8,1.2,2.2,0,3l-5.5,3.7Z"/>
          </g>
        </g>
      </g>
      <g class="cls-45">
        <path class="cls-8" d="M438.5,406.8c-2.7-1.6-4-3.7-3.9-5.8.1-1.9,0-9.3,0-9.3l19.6-5.5c.9-.2,1.7-.6,2.5-1,4.9-2.2,11.8-2.2,16.7,0,.7.3,1.4.7,2.2.9l19.9,6.3s-.1,6.6,0,8.5c.1,2.1-1.2,4.2-3.9,5.7l-17.1,10.7c-5.2,3-13.7,3-18.9,0l-17.1-10.7Z"/>
        <path class="cls-8" d="M438.3,398.3c-5.1-3-5.1-7.8,0-10.8l17.4-10.9c5.1-3,13.5-3,18.6,0l17.4,10.9c5.1,3,5.1,7.8,0,10.8l-17.4,10.9c-5.1,3-13.5,3-18.6,0l-17.4-10.9Z"/>
        <g class="cls-32">
          <path class="cls-2" d="M457.7,385.6l3.5,2.4c.5.3,1.1.5,1.8.5.7,0,1.3-.2,1.8-.5l3.5-2.3M458.6,385l-7.9,5.3c-.5.3-.7.7-.7,1.2,0,.4.3.9.7,1.2l14,9.4c.5.3,1.1.5,1.8.5.7,0,1.3-.2,1.8-.5l10.5-7c.5-.3.7-.7.7-1.2,0-.4-.3-.9-.7-1.2l-11.4-7.7h-8.8Z"/>
        </g>
      </g>
      <g class="cls-41">
        <path class="cls-8" d="M124.5,172.1c-2.7-1.5-4-3.6-3.9-5.6.1-1.9,0-9.1,0-9.1l19.6-5.3c.9-.2,1.7-.6,2.5-1,4.9-2.2,11.8-2.2,16.7,0,.7.3,1.4.6,2.2.9l19.9,6.2s-.1,6.4,0,8.3c.1,2-1.2,4.1-3.9,5.6l-17.1,10.5c-5.2,3-13.7,3-18.9,0l-17.1-10.5Z"/>
        <path class="cls-8" d="M124.3,163.7c-5.1-2.9-5.1-7.7,0-10.6l17.4-10.7c5.1-2.9,13.5-2.9,18.6,0l17.4,10.7c5.2,2.9,5.2,7.7,0,10.6l-17.4,10.7c-5.1,2.9-13.5,2.9-18.6,0l-17.4-10.7Z"/>
        <g class="cls-35">
          <path class="cls-2" d="M143.7,151.3l3.5,2.3c.5.3,1.1.5,1.8.5.7,0,1.3-.2,1.8-.5l3.5-2.3M144.6,150.7l-7.9,5.2c-.5.3-.7.7-.7,1.1,0,.4.3.8.7,1.2l14,9.2c.5.3,1.1.5,1.8.5.7,0,1.3-.2,1.8-.5l10.5-6.9c.5-.3.7-.7.7-1.1,0-.4-.3-.8-.7-1.2l-11.4-7.5h-8.8Z"/>
        </g>
        <path class="cls-8" d="M124.5,163.8c-2.7-1.6-4-3.7-3.9-5.8.1-1.9,0-9.3,0-9.3l19.6-5.5c.9-.2,1.7-.6,2.5-1,4.9-2.2,11.8-2.2,16.7,0,.7.3,1.4.7,2.2.9l19.9,6.3s-.1,6.6,0,8.5c.1,2.1-1.2,4.2-3.9,5.7l-17.1,10.7c-5.2,3-13.7,3-18.9,0l-17.1-10.7Z"/>
        <path class="cls-8" d="M124.3,155.3c-5.1-3-5.1-7.8,0-10.8l17.4-10.9c5.1-3,13.5-3,18.6,0l17.4,10.9c5.2,3,5.2,7.8,0,10.8l-17.4,10.9c-5.1,3-13.5,3-18.6,0l-17.4-10.9Z"/>
        <g class="cls-34">
          <path class="cls-5" d="M160.6,144.6l-11.7-3.9c0,0-.2,0-.3,0-.1,0-.2,0-.3,0,0,0-.1.1-.1.2,0,0,0,.1,0,.2l3.9,5.3-6.5,4.3-7.8-2.6c0,0-.2,0-.2,0-.1,0-.2,0-.3.1,0,0-.1.1-.1.2,0,0,0,.1,0,.2l5.8,7.9c0,.1.2.2.4.3.2,0,.4,0,.6,0l14.5-1.6,2.5-9.7c0-.1,0-.3,0-.4,0-.1-.2-.2-.4-.3Z"/>
        </g>
      </g>
      <g class="cls-42">
        <path class="cls-8" d="M160.5,93.8c-2.7-1.6-4-3.7-3.9-5.8.1-1.9,0-9.3,0-9.3l19.6-5.5c.9-.2,1.7-.6,2.5-1,4.9-2.2,11.8-2.2,16.7,0,.7.3,1.4.7,2.2.9l19.9,6.3s-.1,6.6,0,8.5c.1,2.1-1.2,4.2-3.9,5.7l-17.1,10.7c-5.2,3-13.7,3-18.9,0l-17.1-10.7Z"/>
        <path class="cls-8" d="M160.3,85.3c-5.1-3-5.2-7.8,0-10.8l17.4-10.9c5.1-3,13.5-3,18.6,0l17.4,10.9c5.2,3,5.2,7.8,0,10.8l-17.4,10.9c-5.1,3-13.5,3-18.6,0l-17.4-10.9Z"/>
        <g class="cls-14">
          <path class="cls-2" d="M179.7,72.6l3.5,2.4c.5.3,1.1.5,1.8.5.7,0,1.3-.2,1.8-.5l3.5-2.3M180.6,72l-7.9,5.3c-.5.3-.7.7-.7,1.2,0,.4.3.9.7,1.2l14,9.4c.5.3,1.1.5,1.8.5.7,0,1.3-.2,1.8-.5l10.5-7c.5-.3.7-.7.7-1.2,0-.4-.3-.9-.7-1.2l-11.4-7.7h-8.8Z"/>
        </g>
      </g>
      <g class="cls-42">
        <path class="cls-8" d="M9.5,167.8c-2.7-1.6-4-3.7-3.9-5.8.1-1.9,0-9.3,0-9.3l19.6-5.5c.9-.2,1.7-.6,2.5-1,4.9-2.2,11.8-2.2,16.7,0,.7.3,1.4.7,2.2.9l19.9,6.3s-.1,6.6,0,8.5c.1,2.1-1.2,4.2-3.9,5.7l-17.1,10.7c-5.2,3-13.7,3-18.9,0l-17.1-10.7Z"/>
        <path class="cls-8" d="M9.3,159.3c-5.1-3-5.1-7.8,0-10.8l17.4-10.9c5.1-3,13.5-3,18.6,0l17.4,10.9c5.1,3,5.1,7.8,0,10.8l-17.4,10.9c-5.1,3-13.5,3-18.6,0l-17.4-10.9Z"/>
        <g class="cls-11">
          <path class="cls-2" d="M28.7,146.6l3.5,2.4c.5.3,1.1.5,1.8.5.7,0,1.3-.2,1.8-.5l3.5-2.3M29.6,146l-7.9,5.3c-.5.3-.7.7-.7,1.2,0,.4.3.9.7,1.2l14,9.4c.5.3,1.1.5,1.8.5.7,0,1.3-.2,1.8-.5l10.5-7c.5-.3.7-.7.7-1.2,0-.4-.3-.9-.7-1.2l-11.4-7.7h-8.8Z"/>
        </g>
      </g>
      <g class="cls-39">
        <path class="cls-8" d="M61.5,112.8c-2.7-1.6-4-3.7-3.9-5.8.1-1.9,0-9.3,0-9.3l19.6-5.5c.9-.2,1.7-.6,2.5-1,4.9-2.2,11.8-2.2,16.7,0,.7.3,1.4.7,2.2.9l19.9,6.3s-.1,6.6,0,8.5c.1,2.1-1.2,4.2-3.9,5.7l-17.1,10.7c-5.2,3-13.7,3-18.9,0l-17.1-10.7Z"/>
        <path class="cls-8" d="M61.3,104.3c-5.1-3-5.1-7.8,0-10.8l17.4-10.9c5.1-3,13.5-3,18.6,0l17.4,10.9c5.1,3,5.1,7.8,0,10.8l-17.4,10.9c-5.1,3-13.5,3-18.6,0l-17.4-10.9Z"/>
        <g class="cls-18">
          <path class="cls-2" d="M80.7,91.6l3.5,2.4c.5.3,1.1.5,1.8.5.7,0,1.3-.2,1.8-.5l3.5-2.3M81.6,91l-7.9,5.3c-.5.3-.7.7-.7,1.2,0,.4.3.9.7,1.2l14,9.4c.5.3,1.1.5,1.8.5.7,0,1.3-.2,1.8-.5l10.5-7c.5-.3.7-.7.7-1.2,0-.4-.3-.9-.7-1.2l-11.4-7.7h-8.8Z"/>
        </g>
      </g>
      <g class="cls-44">
        <path class="cls-8" d="M353.5,267.8c-2.7-1.6-4-3.7-3.9-5.8.1-1.9,0-9.3,0-9.3l19.6-5.5c.9-.2,1.7-.6,2.5-1,4.9-2.2,11.8-2.2,16.7,0,.7.3,1.4.7,2.2.9l19.9,6.3s-.1,6.6,0,8.5c.1,2.1-1.2,4.2-3.9,5.7l-17.1,10.7c-5.2,3-13.7,3-18.9,0l-17.1-10.7Z"/>
        <path class="cls-8" d="M353.3,259.3c-5.1-3-5.1-7.8,0-10.8l17.4-10.9c5.1-3,13.5-3,18.6,0l17.4,10.9c5.1,3,5.1,7.8,0,10.8l-17.4,10.9c-5.1,3-13.5,3-18.6,0l-17.4-10.9Z"/>
        <g class="cls-16">
          <path class="cls-2" d="M372.7,246.6l3.5,2.4c.5.3,1.1.5,1.8.5.7,0,1.3-.2,1.8-.5l3.5-2.3M373.6,246l-7.9,5.3c-.5.3-.7.7-.7,1.2,0,.4.3.9.7,1.2l14,9.4c.5.3,1.1.5,1.8.5.7,0,1.3-.2,1.8-.5l10.5-7c.5-.3.7-.7.7-1.2,0-.4-.3-.9-.7-1.2l-11.4-7.7h-8.8Z"/>
        </g>
      </g>
      <g class="cls-43">
        <path class="cls-8" d="M442.5,242.8c-2.7-1.6-4-3.7-3.9-5.8.1-1.9,0-9.3,0-9.3l19.6-5.5c.9-.2,1.7-.6,2.5-1,4.9-2.2,11.8-2.2,16.7,0,.7.3,1.4.7,2.2.9l19.9,6.3s-.1,6.6,0,8.5c.1,2.1-1.2,4.2-3.9,5.7l-17.1,10.7c-5.2,3-13.7,3-18.9,0l-17.1-10.7Z"/>
        <path class="cls-8" d="M442.3,234.3c-5.1-3-5.1-7.8,0-10.8l17.4-10.9c5.1-3,13.5-3,18.6,0l17.4,10.9c5.1,3,5.1,7.8,0,10.8l-17.4,10.9c-5.1,3-13.5,3-18.6,0l-17.4-10.9Z"/>
        <g class="cls-17">
          <path class="cls-2" d="M461.7,221.6l3.5,2.4c.5.3,1.1.5,1.8.5.7,0,1.3-.2,1.8-.5l3.5-2.3M462.6,221l-7.9,5.3c-.5.3-.7.7-.7,1.2,0,.4.3.9.7,1.2l14,9.4c.5.3,1.1.5,1.8.5.7,0,1.3-.2,1.8-.5l10.5-7c.5-.3.7-.7.7-1.2,0-.4-.3-.9-.7-1.2l-11.4-7.7h-8.8Z"/>
        </g>
      </g>
      <g class="cls-44">
        <path class="cls-8" d="M300.5,388.8c-2.7-1.6-4-3.7-3.9-5.8.1-1.9,0-9.3,0-9.3l19.6-5.5c.9-.2,1.7-.6,2.5-1,4.9-2.2,11.8-2.2,16.7,0,.7.3,1.4.7,2.2.9l19.9,6.3s-.1,6.6,0,8.5c.1,2.1-1.2,4.2-3.9,5.7l-17.1,10.7c-5.2,3-13.7,3-18.9,0l-17.1-10.7Z"/>
        <path class="cls-8" d="M300.3,380.3c-5.1-3-5.1-7.8,0-10.8l17.4-10.9c5.1-3,13.5-3,18.6,0l17.4,10.9c5.1,3,5.1,7.8,0,10.8l-17.4,10.9c-5.1,3-13.5,3-18.6,0l-17.4-10.9Z"/>
        <g class="cls-15">
          <path class="cls-2" d="M319.7,367.6l3.5,2.4c.5.3,1.1.5,1.8.5.7,0,1.3-.2,1.8-.5l3.5-2.3M320.6,367l-7.9,5.3c-.5.3-.7.7-.7,1.2,0,.4.3.9.7,1.2l14,9.4c.5.3,1.1.5,1.8.5.7,0,1.3-.2,1.8-.5l10.5-7c.5-.3.7-.7.7-1.2,0-.4-.3-.9-.7-1.2l-11.4-7.7h-8.8Z"/>
        </g>
      </g>
      <g class="cls-44">
        <path class="cls-8" d="M228.5,315.8c-2.7-1.6-4-3.7-3.9-5.8.1-1.9,0-9.3,0-9.3l19.6-5.5c.9-.2,1.7-.6,2.5-1,4.9-2.2,11.8-2.2,16.7,0,.7.3,1.4.7,2.2.9l19.9,6.3s-.1,6.6,0,8.5c.1,2.1-1.2,4.2-3.9,5.7l-17.1,10.7c-5.2,3-13.7,3-18.9,0l-17.1-10.7Z"/>
        <path class="cls-8" d="M228.3,307.3c-5.1-3-5.2-7.8,0-10.8l17.4-10.9c5.1-3,13.5-3,18.6,0l17.4,10.9c5.1,3,5.1,7.8,0,10.8l-17.4,10.9c-5.1,3-13.5,3-18.6,0l-17.4-10.9Z"/>
        <g class="cls-12">
          <path class="cls-2" d="M247.7,294.6l3.5,2.4c.5.3,1.1.5,1.8.5.7,0,1.3-.2,1.8-.5l3.5-2.3M248.6,294l-7.9,5.3c-.5.3-.7.7-.7,1.2,0,.4.3.9.7,1.2l14,9.4c.5.3,1.1.5,1.8.5.7,0,1.3-.2,1.8-.5l10.5-7c.5-.3.7-.7.7-1.2,0-.4-.3-.9-.7-1.2l-11.4-7.7h-8.8Z"/>
        </g>
      </g>
      <g class="cls-44">
        <path class="cls-8" d="M143.5,376.8c-2.7-1.6-4-3.7-3.9-5.8.1-1.9,0-9.3,0-9.3l19.6-5.5c.9-.2,1.7-.6,2.5-1,4.9-2.2,11.8-2.2,16.7,0,.7.3,1.4.7,2.2.9l19.9,6.3s-.1,6.6,0,8.5c.1,2.1-1.2,4.2-3.9,5.7l-17.1,10.7c-5.2,3-13.7,3-18.9,0l-17.1-10.7Z"/>
        <path class="cls-8" d="M143.3,368.3c-5.1-3-5.2-7.8,0-10.8l17.4-10.9c5.1-3,13.5-3,18.6,0l17.4,10.9c5.2,3,5.2,7.8,0,10.8l-17.4,10.9c-5.1,3-13.5,3-18.6,0l-17.4-10.9Z"/>
        <path class="cls-4" d="M169.5,349.9l-9.6,6.4c2.3,1.6,6.1,1.5,8.5,0l1.8-1.2,1.6,1.1c2.3,1.6,6.1,1.5,8.5,0l-9.2-6.2c-.5-.3-1.2-.3-1.6,0Z"/>
        <path class="cls-4" d="M169.4,356.2l-9.6,6.4c2.3,1.6,6.1,1.5,8.5,0l1.8-1.2,1.7,1.1c2.3,1.6,6.1,1.5,8.5,0l-9.2-6.2c-.4-.3-1.2-.3-1.6,0Z"/>
        <path class="cls-4" d="M169.3,362.5l-9.6,6.4c2.3,1.6,6.1,1.5,8.5,0l1.8-1.2,1.6,1.1c2.3,1.6,6.1,1.5,8.5,0l-9.2-6.2c-.5-.3-1.2-.3-1.6,0Z"/>
      </g>
      <g class="cls-44">
        <path class="cls-8" d="M273.5,481.8c-2.7-1.6-4-3.7-3.9-5.8.1-1.9,0-9.3,0-9.3l19.6-5.5c.9-.2,1.7-.6,2.5-1,4.9-2.2,11.8-2.2,16.7,0,.7.3,1.4.7,2.2.9l19.9,6.3s-.1,6.6,0,8.5c.1,2.1-1.2,4.2-3.9,5.7l-17.1,10.7c-5.2,3-13.7,3-18.9,0l-17.1-10.7Z"/>
        <path class="cls-8" d="M273.3,473.3c-5.1-3-5.1-7.8,0-10.8l17.4-10.9c5.1-3,13.5-3,18.6,0l17.4,10.9c5.1,3,5.1,7.8,0,10.8l-17.4,10.9c-5.1,3-13.5,3-18.6,0l-17.4-10.9Z"/>
        <g class="cls-9">
          <path class="cls-2" d="M292.7,460.6l3.5,2.4c.5.3,1.1.5,1.8.5.7,0,1.3-.2,1.8-.5l3.5-2.3M293.6,460l-7.9,5.3c-.5.3-.7.7-.7,1.2,0,.4.3.9.7,1.2l14,9.4c.5.3,1.1.5,1.8.5.7,0,1.3-.2,1.8-.5l10.5-7c.5-.3.7-.7.7-1.2,0-.4-.3-.9-.7-1.2l-11.4-7.7h-8.8Z"/>
        </g>
      </g>
      <g class="cls-39">
        <path class="cls-8" d="M178.5,244.8c-2.7-1.6-4-3.7-3.9-5.8.1-1.9,0-9.3,0-9.3l19.6-5.5c.9-.2,1.7-.6,2.5-1,4.9-2.2,11.8-2.2,16.7,0,.7.3,1.4.7,2.2.9l19.9,6.3s-.1,6.6,0,8.5c.1,2.1-1.2,4.2-3.9,5.7l-17.1,10.7c-5.2,3-13.7,3-18.9,0l-17.1-10.7Z"/>
        <path class="cls-8" d="M178.3,236.3c-5.1-3-5.2-7.8,0-10.8l17.4-10.9c5.1-3,13.5-3,18.6,0l17.4,10.9c5.2,3,5.2,7.8,0,10.8l-17.4,10.9c-5.1,3-13.5,3-18.6,0l-17.4-10.9Z"/>
        <g class="cls-13">
          <path class="cls-7" d="M207.8,236.2l1,.7-5-.4,9.9-5.6.5-.3-.4-.3-8.2-5.5.4-.4,1.8-1.6,8.9,6-.7,4.4-8,2.5-.8.2.6.4ZM196.9,226.4l6.6-1.1-7.3,7.4-.3.3.3.2,5.2,3.5-2,.5-4.1-2.8-.4-2.1,3.6-4.4.2-.3-.3-.2-1.5-1Z"/>
        </g>
      </g>
      <g class="cls-42">
        <path class="cls-8" d="M92.5,34.8c-2.7-1.6-4-3.7-3.9-5.8.1-1.9,0-9.3,0-9.3l19.6-5.5c.9-.2,1.7-.6,2.5-1,4.9-2.2,11.8-2.2,16.7,0,.7.3,1.4.7,2.2.9l19.9,6.3s-.1,6.6,0,8.5c.1,2.1-1.2,4.2-3.9,5.7l-17.1,10.7c-5.2,3-13.7,3-18.9,0l-17.1-10.7Z"/>
        <path class="cls-8" d="M92.3,26.3c-5.1-3-5.1-7.8,0-10.8l17.4-10.9c5.1-3,13.5-3,18.6,0l17.4,10.9c5.2,3,5.2,7.8,0,10.8l-17.4,10.9c-5.1,3-13.5,3-18.6,0l-17.4-10.9Z"/>
        <g class="cls-10">
          <path class="cls-2" d="M111.7,13.6l3.5,2.4c.5.3,1.1.5,1.8.5.7,0,1.3-.2,1.8-.5l3.5-2.3M112.6,13l-7.9,5.3c-.5.3-.7.7-.7,1.2,0,.4.3.9.7,1.2l14,9.4c.5.3,1.1.5,1.8.5.7,0,1.3-.2,1.8-.5l10.5-7c.5-.3.7-.7.7-1.2,0-.4-.3-.9-.7-1.2l-11.4-7.7h-8.8Z"/>
        </g>
      </g>
      <g class="cls-44">
        <path class="cls-8" d="M244.5,82.8c-2.7-1.6-4-3.7-3.9-5.8.1-1.9,0-9.3,0-9.3l19.6-5.5c.9-.2,1.7-.6,2.5-1,4.9-2.2,11.8-2.2,16.7,0,.7.3,1.4.7,2.2.9l19.9,6.3s-.1,6.6,0,8.5c.1,2.1-1.2,4.2-3.9,5.7l-17.1,10.7c-5.2,3-13.7,3-18.9,0l-17.1-10.7Z"/>
        <path class="cls-8" d="M244.3,74.3c-5.1-3-5.2-7.8,0-10.8l17.4-10.9c5.1-3,13.5-3,18.6,0l17.4,10.9c5.1,3,5.1,7.8,0,10.8l-17.4,10.9c-5.1,3-13.5,3-18.6,0l-17.4-10.9Z"/>
        <g class="cls-22">
          <path class="cls-2" d="M263.7,61.6l3.5,2.4c.5.3,1.1.5,1.8.5.7,0,1.3-.2,1.8-.5l3.5-2.3M264.6,61l-7.9,5.3c-.5.3-.7.7-.7,1.2,0,.4.3.9.7,1.2l14,9.4c.5.3,1.1.5,1.8.5.7,0,1.3-.2,1.8-.5l10.5-7c.5-.3.7-.7.7-1.2,0-.4-.3-.9-.7-1.2l-11.4-7.7h-8.8Z"/>
        </g>
      </g>
      <g class="cls-39">
        <path class="cls-8" d="M98.5,300.8c-2.7-1.6-4-3.7-3.9-5.8.1-1.9,0-9.3,0-9.3l19.6-5.5c.9-.2,1.7-.6,2.5-1,4.9-2.2,11.8-2.2,16.7,0,.7.3,1.4.7,2.2.9l19.9,6.3s-.1,6.6,0,8.5c.1,2.1-1.2,4.2-3.9,5.7l-17.1,10.7c-5.2,3-13.7,3-18.9,0l-17.1-10.7Z"/>
        <path class="cls-8" d="M98.3,292.3c-5.1-3-5.1-7.8,0-10.8l17.4-10.9c5.1-3,13.5-3,18.6,0l17.4,10.9c5.2,3,5.2,7.8,0,10.8l-17.4,10.9c-5.1,3-13.5,3-18.6,0l-17.4-10.9Z"/>
        <g class="cls-23">
          <path class="cls-2" d="M117.7,279.6l3.5,2.4c.5.3,1.1.5,1.8.5.7,0,1.3-.2,1.8-.5l3.5-2.3M118.6,279l-7.9,5.3c-.5.3-.7.7-.7,1.2,0,.4.3.9.7,1.2l14,9.4c.5.3,1.1.5,1.8.5.7,0,1.3-.2,1.8-.5l10.5-7c.5-.3.7-.7.7-1.2,0-.4-.3-.9-.7-1.2l-11.4-7.7h-8.8Z"/>
        </g>
        <path class="cls-8" d="M98.5,293.1c-2.7-1.5-4-3.6-3.9-5.6.1-1.9,0-9.1,0-9.1l19.6-5.3c.9-.2,1.7-.6,2.5-1,4.9-2.2,11.8-2.2,16.7,0,.7.3,1.4.6,2.2.9l19.9,6.2s-.1,6.4,0,8.3c.1,2-1.2,4.1-3.9,5.6l-17.1,10.5c-5.2,3-13.7,3-18.9,0l-17.1-10.5Z"/>
        <path class="cls-8" d="M98.3,284.7c-5.1-2.9-5.1-7.7,0-10.6l17.4-10.7c5.1-2.9,13.5-2.9,18.6,0l17.4,10.7c5.2,2.9,5.2,7.7,0,10.6l-17.4,10.7c-5.1,2.9-13.5,2.9-18.6,0l-17.4-10.7Z"/>
        <g class="cls-24">
          <path class="cls-2" d="M117.7,272.3l3.5,2.3c.5.3,1.1.5,1.8.5.7,0,1.3-.2,1.8-.5l3.5-2.3M118.6,271.7l-7.9,5.2c-.5.3-.7.7-.7,1.1,0,.4.3.8.7,1.2l14,9.2c.5.3,1.1.5,1.8.5.7,0,1.3-.2,1.8-.5l10.5-6.9c.5-.3.7-.7.7-1.1,0-.4-.3-.8-.7-1.2l-11.4-7.5h-8.8Z"/>
        </g>
        <path class="cls-8" d="M98.5,272.1c-2.7-1.5-4-3.6-3.9-5.6.1-1.9,0-9.1,0-9.1l19.6-5.3c.9-.2,1.7-.6,2.5-1,4.9-2.2,11.8-2.2,16.7,0,.7.3,1.4.6,2.2.9l19.9,6.2s-.1,6.4,0,8.3c.1,2-1.2,4.1-3.9,5.6l-17.1,10.5c-5.2,3-13.7,3-18.9,0l-17.1-10.5Z"/>
        <path class="cls-8" d="M98.3,263.7c-5.1-2.9-5.1-7.7,0-10.6l17.4-10.7c5.1-2.9,13.5-2.9,18.6,0l17.4,10.7c5.2,2.9,5.2,7.7,0,10.6l-17.4,10.7c-5.1,2.9-13.5,2.9-18.6,0l-17.4-10.7Z"/>
        <g class="cls-25">
          <path class="cls-2" d="M136.1,262.3l-3.5-2.3c-1-.8-2.4-1.3-3.9-1.4,2.6-1.7,3.5-4.6.4-6.6-1-.8-2.4-1.3-3.9-1.4-.8-.8-1.8-1.5-3.1-2,0,0-.9.6-1.3,2.6-2.8,1.2-5.1,2.8-7,4.6-3.1.3-3.9.9-3.9.9.7.8,1.8,1.5,3.1,2,.2,1,1,1.9,2.2,2.6,3.1,2,7.4,1.5,10.1-.3,0,.5.3,1,.7,1.4.4.4.9.8,1.5,1.2M127.4,263.4l3.5,2.3M127.4,263.4c-2.2,3.7-6.1,1.7-7.9,2.9"/>
        </g>
        <path class="cls-8" d="M49.5,388.1c-2.7-1.5-4-3.6-3.9-5.6.1-1.9,0-9.1,0-9.1l19.6-5.3c.9-.2,1.7-.6,2.5-1,4.9-2.2,11.8-2.2,16.7,0,.7.3,1.4.6,2.2.9l19.9,6.2s-.1,6.4,0,8.3c.1,2-1.2,4.1-3.9,5.6l-17.1,10.5c-5.2,3-13.7,3-18.9,0l-17.1-10.5Z"/>
        <path class="cls-8" d="M49.3,379.7c-5.1-2.9-5.1-7.7,0-10.6l17.4-10.7c5.1-2.9,13.5-2.9,18.6,0l17.4,10.7c5.1,2.9,5.1,7.7,0,10.6l-17.4,10.7c-5.1,2.9-13.5,2.9-18.6,0l-17.4-10.7Z"/>
        <g class="cls-26">
          <path class="cls-2" d="M87.1,378.3l-3.5-2.3c-1-.8-2.4-1.3-3.9-1.4,2.6-1.7,3.5-4.6.4-6.6-1-.8-2.4-1.3-3.9-1.4-.8-.8-1.8-1.5-3.1-2,0,0-.9.6-1.3,2.6-2.8,1.2-5.1,2.8-7,4.6-3.1.3-3.9.9-3.9.9.7.8,1.8,1.5,3.1,2,.3,1,1,1.9,2.2,2.6,3.1,2,7.4,1.5,10.1-.3,0,.5.3,1,.7,1.4.4.4.9.8,1.5,1.2M78.4,379.4l3.5,2.3M78.4,379.4c-2.2,3.7-6.1,1.7-7.9,2.9"/>
        </g>
      </g>
      <g class="cls-39">
        <path class="cls-8" d="M50.3,217.1c-2.7-1.5-4-3.6-3.9-5.6.1-1.9,0-9.1,0-9.1l19.4-5.3c.9-.2,1.7-.6,2.5-1,4.8-2.2,11.7-2.2,16.5,0,.7.3,1.4.6,2.1.9l19.6,6.2s-.1,6.4,0,8.3c.1,2-1.2,4.1-3.9,5.6l-16.8,10.5c-5.2,3-13.5,3-18.7,0l-16.8-10.5Z"/>
        <path class="cls-8" d="M50.2,208.7c-5.1-2.9-5.1-7.7,0-10.6l17.1-10.7c5.1-2.9,13.3-2.9,18.4,0l17.1,10.7c5.1,2.9,5.1,7.7,0,10.6l-17.1,10.7c-5.1,2.9-13.3,2.9-18.4,0l-17.1-10.7Z"/>
        <g class="cls-27">
          <path class="cls-4" d="M66.4,206.4c-.2-.3-.4-.7-.6-1.1-.4,0-1.2,0-1.2,0-.5-3.6,1.8-6.3,5.1-7.8.7-.3,1.4-.6,2.1-.9,5.5-1.7,12,0,14.4,3.6.2.4.4.7.6,1.1.4,0,1.3-.1,1.3,0,.5,3.9-2.4,6.8-6.2,8.3-.4.1-.7.3-1.1.4-5.5,1.7-12,0-14.4-3.6ZM73.3,192.6c0,.7,0,1.5,0,1.9-.8.1-1.5.3-2.2.5-6.3,1.9-9.1,6.4-8.2,10.6.7,2.3,2.4,4.5,5.1,6.1,0,0,4.9,3.3,12.2,2.2-.1-.6-.3-1.3-.4-1.8.8-.1,1.6-.3,2.3-.6,7.1-2.2,10.4-7.6,7.3-12.2,0,0-1.6-2.9-5.4-4.8,0,0-4.8-2.7-10.7-1.9Z"/>
        </g>
      </g>
      <g class="cls-38">
        <path class="cls-8" d="M224.5,392.8c-2.7-1.6-4-3.7-3.9-5.8.1-1.9,0-9.3,0-9.3l19.6-5.5c.9-.2,1.7-.6,2.5-1,4.9-2.2,11.8-2.2,16.7,0,.7.3,1.4.7,2.2.9l19.9,6.3s-.1,6.6,0,8.5c.1,2.1-1.2,4.2-3.9,5.7l-17.1,10.7c-5.2,3-13.7,3-18.9,0l-17.1-10.7Z"/>
        <path class="cls-8" d="M224.3,384.3c-5.1-3-5.2-7.8,0-10.8l17.4-10.9c5.1-3,13.5-3,18.6,0l17.4,10.9c5.1,3,5.1,7.8,0,10.8l-17.4,10.9c-5.1,3-13.5,3-18.6,0l-17.4-10.9Z"/>
        <g class="cls-20">
          <path class="cls-5" d="M260.6,373.6l-11.7-3.9c0,0-.2,0-.3,0-.1,0-.2,0-.3,0,0,0-.1.1-.1.2,0,0,0,.1,0,.2l3.9,5.3-6.5,4.3-7.8-2.6c0,0-.2,0-.2,0-.1,0-.2,0-.3.1,0,0-.1.1-.1.2,0,0,0,.1,0,.2l5.8,7.9c0,.1.2.2.4.3.2,0,.4,0,.6,0l14.5-1.6,2.5-9.7c0-.1,0-.3,0-.4,0-.1-.2-.2-.4-.3Z"/>
        </g>
      </g>
      <g class="cls-40">
        <path class="cls-8" d="M167.5,547.8c-2.7-1.6-4-3.7-3.9-5.8.1-1.9,0-9.3,0-9.3l19.6-5.5c.9-.2,1.7-.6,2.5-1,4.9-2.2,11.8-2.2,16.7,0,.7.3,1.4.7,2.2.9l19.9,6.3s-.1,6.6,0,8.5c.1,2.1-1.2,4.2-3.9,5.7l-17.1,10.7c-5.2,3-13.7,3-18.9,0l-17.1-10.7Z"/>
        <path class="cls-8" d="M167.3,539.3c-5.1-3-5.2-7.8,0-10.8l17.4-10.9c5.1-3,13.5-3,18.6,0l17.4,10.9c5.2,3,5.2,7.8,0,10.8l-17.4,10.9c-5.1,3-13.5,3-18.6,0l-17.4-10.9Z"/>
        <g class="cls-19">
          <path class="cls-5" d="M203.6,528.6l-11.7-3.9c0,0-.2,0-.3,0-.1,0-.2,0-.3,0,0,0-.1.1-.1.2,0,0,0,.1,0,.2l3.9,5.3-6.5,4.3-7.8-2.6c0,0-.2,0-.2,0-.1,0-.2,0-.3.1,0,0-.1.1-.1.2,0,0,0,.1,0,.2l5.8,7.9c0,.1.2.2.4.3.2,0,.4,0,.6,0l14.5-1.7,2.5-9.7c0-.1,0-.3,0-.4,0-.1-.2-.2-.4-.3Z"/>
        </g>
      </g>
      <g class="cls-40">
        <path class="cls-8" d="M143.5,467.8c-2.7-1.6-4-3.7-3.9-5.8.1-1.9,0-9.3,0-9.3l19.6-5.5c.9-.2,1.7-.6,2.5-1,4.9-2.2,11.8-2.2,16.7,0,.7.3,1.4.7,2.2.9l19.9,6.3s-.1,6.6,0,8.5c.1,2.1-1.2,4.2-3.9,5.7l-17.1,10.7c-5.2,3-13.7,3-18.9,0l-17.1-10.7Z"/>
        <path class="cls-8" d="M143.3,459.3c-5.1-3-5.2-7.8,0-10.8l17.4-10.9c5.1-3,13.5-3,18.6,0l17.4,10.9c5.2,3,5.2,7.8,0,10.8l-17.4,10.9c-5.1,3-13.5,3-18.6,0l-17.4-10.9Z"/>
        <g class="cls-21">
          <g>
            <path class="cls-4" d="M161.9,462.2c-.2-.1-.1-.3.2-.3h15.3c.3,0,.4.3.2.4-4.8,2-10.9,2-15.7,0ZM158.6,460.3c0,0,.1,0,.2,0h21.9c0,0,.2,0,.2,0,.5-.4.9-.7,1.3-1.1.1-.1,0-.3-.2-.3h-24.4c-.2,0-.4.1-.2.3.4.4.8.8,1.3,1.1ZM155.8,457.2c0,0,.2.1.3.1h27.2c.1,0,.2,0,.3,0,.2-.4.4-.7.5-1.1,0-.1,0-.2-.3-.2h-28.3c-.2,0-.3,0-.3.2.1.4.3.7.5,1.1ZM155.2,454.4c-.2,0-.3,0-.3-.2-.2-2.7,1.2-5.5,4.3-7.6,5.8-3.9,15.2-3.9,21,0,3.1,2.1,4.6,4.9,4.3,7.6,0,.1-.1.2-.3.2h-29.1Z"/>
            <g class="cls-3">
              <path class="cls-4" d="M161.9,462.2l-1.2,1.3h0l1.2-1.3ZM162,461.8v1.6h0v-1.6ZM177.4,461.8v-1.6h0v1.6ZM177.6,462.2l1.2,1.3h0l-1.2-1.3ZM158.6,460.3l-1.8,1h0l1.8-1ZM158.8,460.3v1.6h0v-1.6ZM180.7,460.4v-1.6h0v1.6ZM180.9,460.3l-1.8-1h0s1.8,1,1.8,1ZM182.2,459.2l-2-.9h0l2,.9ZM181.9,458.9v1.6h0v-1.6ZM157.5,458.9v1.6h0v-1.6ZM157.3,459.2l2-.9h0l-2,.9ZM155.8,457.2l-2.2.6h0l2.2-.6ZM156.1,457.4v1.6s0,0,0,0v-1.6ZM183.3,457.4v-1.6h0v1.6ZM183.6,457.3l2.2.6h0l-2.2-.6ZM184.1,456.2l-2.3-.4h0l2.3.4ZM183.9,455.9v1.6s0,0,0,0v-1.6ZM155.6,455.9v1.6h0v-1.6ZM155.3,456.1l2.3-.4h0l-2.3.4ZM155.2,454.4v-1.6h0v1.6ZM154.9,454.2h-2.3c0,0,2.3,0,2.3,0ZM184.6,454.3h-2.3c0,0,2.3,0,2.3,0ZM184.3,454.5v1.6h0v-1.6ZM163.1,460.8c.9.4,1.1,1,.9,1.6-.2.5-1,1-2,1v-3.2c-2.4,0-3.8,2.2-1.4,3.3l2.5-2.7ZM162,463.4h15.3s0-3.1,0-3.1h-15.3s0,3.1,0,3.1ZM177.4,463.4c-1,0-1.7-.4-2-1-.3-.6,0-1.2.9-1.6l2.5,2.7c2.4-1,1.1-3.3-1.4-3.3v3.2ZM176.3,460.9c-4,1.7-9.2,1.7-13.2,0l-2.5,2.7c5.5,2.3,12.6,2.3,18.1,0l-2.5-2.7ZM156.8,461.3c.5.4,1.2.6,2,.6v-3.2c.6,0,1.1.2,1.5.5l-3.5,2.1ZM158.8,461.9h21.9s0-3.1,0-3.1h-21.9s0,3.1,0,3.1ZM180.7,462c.7,0,1.5-.2,2-.6l-3.5-2.1c.4-.3,1-.5,1.5-.5v3.2ZM182.6,461.4c.5-.4,1-.8,1.5-1.3l-3.9-1.7c-.3.3-.7.6-1.1.9l3.5,2.1ZM184.1,460.1c1.2-1.2-.2-2.7-2.2-2.7v3.2c-1.6,0-2.7-1.2-1.7-2.1l3.9,1.7ZM181.9,457.3h-24.4s0,3.1,0,3.1h24.4s0-3.1,0-3.1ZM157.5,457.3c-2,0-3.4,1.5-2.2,2.7l3.9-1.7c.9,1-.2,2.1-1.7,2.1v-3.2ZM155.3,460c.4.4.9.9,1.5,1.3l3.5-2.1c-.4-.3-.7-.6-1.1-.9l-3.9,1.7ZM153.6,457.8c.4.7,1.4,1.1,2.5,1.1v-3.2c.8,0,1.6.3,1.9.9l-4.4,1.1ZM156.1,459h27.2s0-3.1,0-3.1h-27.2s0,3.1,0,3.1ZM183.3,459c1.1,0,2.1-.4,2.5-1.1l-4.4-1.1c.3-.5,1.1-.9,1.9-.9v3.2ZM185.8,457.9c.2-.4.4-.9.6-1.3l-4.6-.8c-.1.3-.3.6-.4.9l4.4,1.1ZM186.4,456.6c.4-1.1-.9-2.2-2.6-2.2v3.2c-1.3,0-2.3-.8-2-1.7l4.6.8ZM183.9,454.4h-28.3s0,3.1,0,3.1h28.3s0-3.1,0-3.1ZM155.6,454.3c-1.7,0-3,1.1-2.6,2.2l4.6-.8c.3.9-.7,1.7-2,1.7v-3.2ZM153,456.5c.2.4.4.9.6,1.3l4.4-1.1c-.2-.3-.3-.6-.4-.9l-4.6.8ZM155.2,452.8c1.1,0,2,.6,2,1.3l-4.7.2c0,1,1.3,1.7,2.6,1.7v-3.2ZM157.2,454.1c-.2-2.3,1-4.7,3.7-6.4l-3.3-2.2c-3.6,2.4-5.3,5.6-5,8.8l4.7-.2ZM160.9,447.7c4.9-3.3,12.8-3.3,17.7,0l3.3-2.2c-6.7-4.5-17.6-4.5-24.4,0l3.3,2.2ZM178.6,447.8c2.6,1.8,3.8,4.1,3.6,6.4l4.7.2c.3-3.2-1.4-6.4-5-8.8l-3.3,2.2ZM182.2,454.2c0-.7,1-1.3,2.1-1.3v3.2c1.4,0,2.6-.7,2.6-1.7l-4.7-.2ZM184.3,452.9h-29.1c0,0,0,3.1,0,3.1h29.1s0-3.1,0-3.1Z"/>
            </g>
          </g>
        </g>
      </g>
    </g>
  </g>
</svg>