<svg width="111" height="146" viewBox="0 0 111 146" fill="none" xmlns="http://www.w3.org/2000/svg">
<g filter="url(#filter0_d_7622_61738)">
<path d="M2 5.68244C2 3.0964 4.0964 1 6.68245 1H104.496C107.082 1 109.179 3.0964 109.179 5.68245V27.4961C109.179 30.0822 107.082 32.1786 104.496 32.1786H6.68246C4.09641 32.1786 2 30.0822 2 27.4961V5.68244Z" fill="white" shape-rendering="crispEdges"/>
<path d="M6.68245 1.37946H104.496C106.873 1.37946 108.799 3.30598 108.799 5.68245V27.4961C108.799 29.8726 106.873 31.7991 104.496 31.7991H6.68246C4.30598 31.7991 2.37946 29.8726 2.37946 27.4961V5.68244C2.37946 3.30597 4.30597 1.37946 6.68245 1.37946Z" stroke="#E4E9F4" stroke-width="0.758929" shape-rendering="crispEdges"/>
<path d="M19.5894 21.6485H25.2814M21.4867 12.1619L23.3841 14.0593M22.4354 11.2133C22.687 10.9617 23.0283 10.8203 23.3841 10.8203C23.5603 10.8203 23.7347 10.855 23.8975 10.9224C24.0603 10.9899 24.2081 11.0887 24.3327 11.2133C24.4573 11.3378 24.5561 11.4857 24.6236 11.6485C24.691 11.8113 24.7257 11.9857 24.7257 12.1619C24.7257 12.3381 24.691 12.5126 24.6236 12.6753C24.5561 12.8381 24.4573 12.986 24.3327 13.1106L16.4272 21.0161L13.8975 21.6485L14.5299 19.1188L22.4354 11.2133Z" stroke="#5E6E8C" stroke-width="1.13839" stroke-linecap="round" stroke-linejoin="round"/>
<path d="M40.1455 20.5889V11.8584H45.6416V13.0068H41.4814V15.6084H45.3428V16.751H41.4814V19.4404H45.6768V20.5889H40.1455ZM49.7256 20.7178C49.1943 20.7178 48.7217 20.583 48.3076 20.3135C47.8936 20.04 47.5693 19.6514 47.335 19.1475C47.1006 18.6396 46.9834 18.0342 46.9834 17.3311C46.9834 16.6201 47.1025 16.0127 47.3408 15.5088C47.5791 15.0049 47.9053 14.6201 48.3193 14.3545C48.7334 14.0889 49.2021 13.9561 49.7256 13.9561C50.1318 13.9561 50.458 14.0244 50.7041 14.1611C50.9541 14.2939 51.1494 14.4502 51.29 14.6299C51.4307 14.8096 51.5381 14.9678 51.6123 15.1045H51.6826V11.8584H52.9717V20.5889H51.7178V19.5635H51.6123C51.5381 19.7041 51.4287 19.8643 51.2842 20.0439C51.1396 20.2236 50.9424 20.3818 50.6924 20.5186C50.4424 20.6514 50.1201 20.7178 49.7256 20.7178ZM50.0068 19.6221C50.374 19.6221 50.6826 19.5244 50.9326 19.3291C51.1865 19.1338 51.3779 18.8643 51.5068 18.5205C51.6396 18.1729 51.7061 17.7725 51.7061 17.3193C51.7061 16.8623 51.6416 16.4658 51.5127 16.1299C51.3838 15.79 51.1924 15.5264 50.9385 15.3389C50.6885 15.1475 50.3779 15.0518 50.0068 15.0518C49.6279 15.0518 49.3115 15.1514 49.0576 15.3506C48.8076 15.5498 48.6182 15.8213 48.4893 16.165C48.3643 16.5049 48.3018 16.8896 48.3018 17.3193C48.3018 17.7529 48.3662 18.1436 48.4951 18.4912C48.624 18.8389 48.8154 19.1143 49.0693 19.3174C49.3232 19.5205 49.6357 19.6221 50.0068 19.6221ZM54.7061 20.5889V14.0381H55.9951V20.5889H54.7061ZM55.3564 13.0361C55.1338 13.0361 54.9424 12.9619 54.7822 12.8135C54.626 12.665 54.5479 12.4854 54.5479 12.2744C54.5479 12.0596 54.626 11.8779 54.7822 11.7295C54.9424 11.5811 55.1338 11.5068 55.3564 11.5068C55.5791 11.5068 55.7705 11.5811 55.9307 11.7295C56.0908 11.8779 56.1709 12.0596 56.1709 12.2744C56.1709 12.4854 56.0908 12.665 55.9307 12.8135C55.7705 12.9619 55.5791 13.0361 55.3564 13.0361ZM60.5303 14.0381V15.0869H56.9795V14.0381H60.5303ZM57.9346 12.4795H59.2236V18.8193C59.2236 19.0811 59.2783 19.2744 59.3877 19.3994C59.501 19.5205 59.6846 19.5811 59.9385 19.5811C60.0049 19.5811 60.0928 19.5732 60.2021 19.5576C60.3115 19.542 60.4053 19.5264 60.4834 19.5107L60.7119 20.542C60.5752 20.5889 60.4287 20.6221 60.2725 20.6416C60.1162 20.665 59.9619 20.6768 59.8096 20.6768C59.2158 20.6768 58.7549 20.5244 58.4268 20.2197C58.0986 19.9111 57.9346 19.4795 57.9346 18.9248V12.4795Z" fill="#5E6E8C"/>
</g>
<g filter="url(#filter1_d_7622_61738)">
<path d="M2 42.8612C2 40.2751 4.0964 38.1787 6.68245 38.1787H104.496C107.082 38.1787 109.179 40.2751 109.179 42.8612V64.6748C109.179 67.2609 107.082 69.3573 104.496 69.3573H6.68246C4.09641 69.3573 2 67.2609 2 64.6748V42.8612Z" fill="white" shape-rendering="crispEdges"/>
<path d="M6.68245 38.5582H104.496C106.873 38.5582 108.799 40.4847 108.799 42.8612V64.6748C108.799 67.0513 106.873 68.9778 104.496 68.9778H6.68246C4.30598 68.9778 2.37946 67.0513 2.37946 64.6748V42.8612C2.37946 40.4847 4.30597 38.5582 6.68245 38.5582Z" stroke="#E4E9F4" stroke-width="0.758929" shape-rendering="crispEdges"/>
<g clip-path="url(#clip0_7622_61738)">
<path d="M19.5888 56.93H19.5951M17.7548 51.8704C17.9066 51.4521 18.2005 51.1005 18.5853 50.877C18.97 50.6535 19.4211 50.5723 19.8596 50.6476C20.2982 50.723 20.6963 50.9501 20.9844 51.2892C21.2724 51.6283 21.4322 52.0579 21.4356 52.5028C21.4356 53.7677 19.5383 54.4002 19.5383 54.4002M21.4861 47.4434H15.7942C15.4587 47.4434 15.137 47.5766 14.8998 47.8138C14.6626 48.051 14.5293 48.3728 14.5293 48.7082V58.8273C14.5293 59.1628 14.6626 59.4845 14.8998 59.7217C15.137 59.9589 15.4587 60.0922 15.7942 60.0922H23.3835C23.7189 60.0922 24.0407 59.9589 24.2779 59.7217C24.5151 59.4845 24.6483 59.1628 24.6483 58.8273V50.6056L21.4861 47.4434Z" stroke="#5E6E8C" stroke-width="1.13839" stroke-linecap="round" stroke-linejoin="round"/>
</g>
<path d="M40.1455 57.7676V49.0371H45.6416V50.1855H41.4814V52.7871H45.3428V53.9297H41.4814V56.6191H45.6768V57.7676H40.1455ZM46.7549 57.7676L49.3271 53.9062L49.3213 54.9023L46.8896 51.2168H48.3428L49.0811 52.4121C49.2842 52.7402 49.4619 53.0547 49.6143 53.3555C49.7705 53.6562 49.9287 53.9473 50.0889 54.2285H49.4971C49.665 53.9473 49.8193 53.6562 49.96 53.3555C50.1006 53.0547 50.2764 52.7402 50.4873 52.4121L51.2432 51.2168H52.6729L50.2178 54.9375V53.9707L52.7725 57.7676H51.3252L50.4463 56.373C50.2432 56.0488 50.0654 55.7402 49.9131 55.4473C49.7607 55.1543 49.6045 54.8711 49.4443 54.5977H50.042C49.8857 54.8711 49.7373 55.1543 49.5967 55.4473C49.4561 55.7402 49.2842 56.0488 49.0811 56.373L48.1904 57.7676H46.7549ZM53.9795 60.2168V51.2168H55.2334V52.2832H55.3389C55.417 52.1465 55.5244 51.9883 55.6611 51.8086C55.8018 51.6289 55.9951 51.4727 56.2412 51.3398C56.4912 51.2031 56.8213 51.1348 57.2314 51.1348C57.7549 51.1348 58.2217 51.2676 58.6318 51.5332C59.0459 51.7988 59.3721 52.1836 59.6104 52.6875C59.8486 53.1914 59.9678 53.7988 59.9678 54.5098C59.9678 55.2129 59.8506 55.8184 59.6162 56.3262C59.3818 56.8301 59.0576 57.2188 58.6436 57.4922C58.2334 57.7617 57.7627 57.8965 57.2314 57.8965C56.8369 57.8965 56.5127 57.8301 56.2588 57.6973C56.0088 57.5605 55.8115 57.4023 55.667 57.2227C55.5264 57.043 55.417 56.8828 55.3389 56.7422H55.2686V60.2168H53.9795ZM56.9443 56.8008C57.3193 56.8008 57.6338 56.6992 57.8877 56.4961C58.1416 56.293 58.3311 56.0176 58.4561 55.6699C58.585 55.3223 58.6494 54.9316 58.6494 54.498C58.6494 54.0684 58.585 53.6836 58.4561 53.3438C58.3311 53 58.1416 52.7285 57.8877 52.5293C57.6377 52.3301 57.3232 52.2305 56.9443 52.2305C56.5771 52.2305 56.2666 52.3262 56.0127 52.5176C55.7588 52.7051 55.5674 52.9688 55.4385 53.3086C55.3096 53.6445 55.2451 54.041 55.2451 54.498C55.2451 54.9512 55.3096 55.3516 55.4385 55.6992C55.5713 56.043 55.7646 56.3125 56.0186 56.5078C56.2725 56.7031 56.5811 56.8008 56.9443 56.8008ZM62.6865 49.0371V57.7676H61.3975V49.0371H62.6865ZM66.2549 57.9141C65.8408 57.9141 65.4658 57.8379 65.1299 57.6855C64.7939 57.5293 64.5283 57.3027 64.333 57.0059C64.1377 56.709 64.04 56.3457 64.04 55.916C64.04 55.5449 64.1104 55.2402 64.251 55.002C64.3955 54.7637 64.5889 54.5742 64.8311 54.4336C65.0771 54.293 65.3486 54.1875 65.6455 54.1172C65.9463 54.0469 66.251 53.9941 66.5596 53.959C66.9463 53.9121 67.2607 53.875 67.5029 53.8477C67.7451 53.8164 67.9229 53.7676 68.0361 53.7012C68.1533 53.6309 68.2119 53.5195 68.2119 53.3672V53.332C68.2119 53.0859 68.165 52.8789 68.0713 52.7109C67.9775 52.543 67.8369 52.4141 67.6494 52.3242C67.4658 52.2305 67.2354 52.1836 66.958 52.1836C66.6729 52.1836 66.4268 52.2285 66.2197 52.3184C66.0166 52.4043 65.8506 52.5156 65.7217 52.6523C65.5967 52.7891 65.5029 52.9316 65.4404 53.0801L64.2275 52.7637C64.376 52.373 64.5889 52.0586 64.8662 51.8203C65.1436 51.582 65.4619 51.4082 65.8213 51.2988C66.1807 51.1895 66.5518 51.1348 66.9346 51.1348C67.2002 51.1348 67.4814 51.166 67.7783 51.2285C68.0752 51.291 68.3545 51.4043 68.6162 51.5684C68.8779 51.7324 69.0908 51.9629 69.2549 52.2598C69.4189 52.5566 69.501 52.9434 69.501 53.4199V57.7676H68.2529V56.8711H68.1885C68.1025 57.0391 67.9756 57.2031 67.8076 57.3633C67.6396 57.5234 67.4268 57.6562 67.1689 57.7617C66.915 57.8633 66.6104 57.9141 66.2549 57.9141ZM66.542 56.877C66.8936 56.877 67.1943 56.8086 67.4443 56.6719C67.6943 56.5352 67.8857 56.3535 68.0186 56.127C68.1514 55.9004 68.2178 55.6602 68.2178 55.4062V54.5684C68.1709 54.6152 68.0811 54.6582 67.9482 54.6973C67.8193 54.7324 67.6709 54.7656 67.5029 54.7969C67.335 54.8242 67.1729 54.8477 67.0166 54.8672C66.8604 54.8867 66.7314 54.9023 66.6299 54.9141C66.3877 54.9453 66.165 54.998 65.9619 55.0723C65.7627 55.1465 65.6025 55.252 65.4814 55.3887C65.3643 55.5254 65.3057 55.707 65.3057 55.9336C65.3057 56.1406 65.3584 56.3145 65.4639 56.4551C65.5732 56.5957 65.7197 56.7012 65.9033 56.7715C66.0869 56.8418 66.2998 56.877 66.542 56.877ZM71.2412 57.7676V51.2168H72.5303V57.7676H71.2412ZM71.8916 50.2148C71.6689 50.2148 71.4775 50.1406 71.3174 49.9922C71.1611 49.8438 71.083 49.6641 71.083 49.4531C71.083 49.2383 71.1611 49.0566 71.3174 48.9082C71.4775 48.7598 71.6689 48.6855 71.8916 48.6855C72.1143 48.6855 72.3057 48.7598 72.4658 48.9082C72.626 49.0566 72.7061 49.2383 72.7061 49.4531C72.7061 49.6641 72.626 49.8438 72.4658 49.9922C72.3057 50.1406 72.1143 50.2148 71.8916 50.2148ZM75.5537 53.8887V57.7676H74.2646V51.2168H75.4951L75.5068 52.8223H75.3721C75.5635 52.2363 75.8408 51.8086 76.2041 51.5391C76.5674 51.2695 77.0068 51.1348 77.5225 51.1348C77.9678 51.1348 78.3564 51.2285 78.6885 51.416C79.0205 51.6035 79.2803 51.8809 79.4678 52.248C79.6553 52.6113 79.749 53.0645 79.749 53.6074V57.7676H78.46V53.7656C78.46 53.293 78.3369 52.9238 78.0908 52.6582C77.8447 52.3926 77.5068 52.2598 77.0771 52.2598C76.7881 52.2598 76.5283 52.3242 76.2979 52.4531C76.0674 52.5781 75.8857 52.7617 75.7529 53.0039C75.6201 53.2461 75.5537 53.541 75.5537 53.8887Z" fill="#5E6E8C"/>
</g>
<g filter="url(#filter2_d_7622_61738)">
<path d="M2 80.0399C2 77.4538 4.0964 75.3574 6.68245 75.3574H104.496C107.082 75.3574 109.179 77.4538 109.179 80.0399V101.854C109.179 104.44 107.082 106.536 104.496 106.536H6.68246C4.09641 106.536 2 104.44 2 101.854V80.0399Z" fill="white" shape-rendering="crispEdges"/>
<path d="M6.68245 75.7369H104.496C106.873 75.7369 108.799 77.6634 108.799 80.0399V101.854C108.799 104.23 106.873 106.157 104.496 106.157H6.68246C4.30598 106.157 2.37946 104.23 2.37946 101.854V80.0399C2.37946 77.6634 4.30597 75.7369 6.68245 75.7369Z" stroke="#E4E9F4" stroke-width="0.758929" shape-rendering="crispEdges"/>
<path d="M19.5891 87.7846C19.5891 87.1137 19.3225 86.4703 18.8481 85.9958C18.3737 85.5214 17.7302 85.2549 17.0593 85.2549H13.2646V94.7415H17.6917C18.1949 94.7415 18.6775 94.9414 19.0333 95.2972C19.3892 95.653 19.5891 96.1356 19.5891 96.6388M19.5891 87.7846V96.6388M19.5891 87.7846C19.5891 87.1137 19.8556 86.4703 20.33 85.9958C20.8044 85.5214 21.4479 85.2549 22.1188 85.2549H25.9135V94.7415H21.4864C20.9832 94.7415 20.5006 94.9414 20.1448 95.2972C19.7889 95.653 19.5891 96.1356 19.5891 96.6388" stroke="#5E6E8C" stroke-width="1.13839" stroke-linecap="round" stroke-linejoin="round"/>
<path d="M42.9814 94.9463H40.8252V93.7744H42.9111C43.5713 93.7744 44.1201 93.6514 44.5576 93.4053C44.9951 93.1592 45.3232 92.7979 45.542 92.3213C45.7607 91.8408 45.8701 91.2568 45.8701 90.5693C45.8701 89.8857 45.7607 89.3076 45.542 88.835C45.3271 88.3623 45.0049 88.0029 44.5752 87.7568C44.1494 87.5107 43.6182 87.3877 42.9814 87.3877H40.7783V86.2158H43.0693C43.9287 86.2158 44.665 86.3896 45.2783 86.7373C45.8916 87.085 46.3623 87.585 46.6904 88.2373C47.0186 88.8857 47.1826 89.6631 47.1826 90.5693C47.1826 91.4795 47.0166 92.2607 46.6846 92.9131C46.3564 93.5654 45.8779 94.0674 45.249 94.4189C44.624 94.7705 43.8682 94.9463 42.9814 94.9463ZM41.4814 86.2158V94.9463H40.1455V86.2158H41.4814ZM51.46 95.0811C50.8467 95.0811 50.3096 94.9404 49.8486 94.6592C49.3916 94.3779 49.0361 93.9834 48.7822 93.4756C48.5283 92.9678 48.4014 92.3779 48.4014 91.7061C48.4014 91.0264 48.5283 90.4326 48.7822 89.9248C49.0361 89.4131 49.3916 89.0166 49.8486 88.7354C50.3096 88.4541 50.8467 88.3135 51.46 88.3135C52.0771 88.3135 52.6143 88.4541 53.0713 88.7354C53.5322 89.0166 53.8896 89.4131 54.1436 89.9248C54.3975 90.4326 54.5244 91.0264 54.5244 91.7061C54.5244 92.3779 54.3975 92.9678 54.1436 93.4756C53.8896 93.9834 53.5322 94.3779 53.0713 94.6592C52.6143 94.9404 52.0771 95.0811 51.46 95.0811ZM51.46 93.9912C51.8584 93.9912 52.1865 93.8877 52.4443 93.6807C52.7061 93.4697 52.8994 93.1924 53.0244 92.8486C53.1533 92.501 53.2178 92.1201 53.2178 91.7061C53.2178 91.2881 53.1533 90.9053 53.0244 90.5576C52.8994 90.2061 52.7061 89.9268 52.4443 89.7197C52.1865 89.5088 51.8584 89.4033 51.46 89.4033C51.0654 89.4033 50.7393 89.5088 50.4814 89.7197C50.2236 89.9268 50.0303 90.2041 49.9014 90.5518C49.7764 90.8994 49.7139 91.2842 49.7139 91.7061C49.7139 92.1201 49.7764 92.501 49.9014 92.8486C50.0303 93.1924 50.2236 93.4697 50.4814 93.6807C50.7393 93.8877 51.0654 93.9912 51.46 93.9912ZM58.7139 95.0811C58.0967 95.0811 57.5596 94.9404 57.1025 94.6592C56.6455 94.3779 56.29 93.9834 56.0361 93.4756C55.7822 92.9678 55.6553 92.3779 55.6553 91.7061C55.6553 91.0264 55.7822 90.4326 56.0361 89.9248C56.29 89.4131 56.6455 89.0166 57.1025 88.7354C57.5596 88.4541 58.0967 88.3135 58.7139 88.3135C59.0537 88.3135 59.3721 88.3584 59.6689 88.4482C59.9658 88.5342 60.2334 88.6611 60.4717 88.8291C60.7139 88.9932 60.917 89.1963 61.0811 89.4385C61.249 89.6768 61.374 89.9463 61.4561 90.2471L60.2314 90.54C60.1885 90.3721 60.1221 90.2197 60.0322 90.083C59.9424 89.9424 59.833 89.8213 59.7041 89.7197C59.5791 89.6182 59.4326 89.54 59.2646 89.4854C59.1006 89.4307 58.9189 89.4033 58.7197 89.4033C58.3252 89.4033 57.9971 89.5088 57.7354 89.7197C57.4775 89.9268 57.2842 90.2041 57.1553 90.5518C57.0303 90.8994 56.9678 91.2842 56.9678 91.7061C56.9678 92.124 57.0303 92.5068 57.1553 92.8545C57.2842 93.1982 57.4775 93.4736 57.7354 93.6807C57.9971 93.8877 58.3252 93.9912 58.7197 93.9912C58.9229 93.9912 59.1084 93.9639 59.2764 93.9092C59.4443 93.8506 59.5947 93.7705 59.7275 93.6689C59.8604 93.5635 59.9717 93.4385 60.0615 93.2939C60.1514 93.1455 60.2158 92.9834 60.2549 92.8076L61.4736 93.1006C61.3955 93.4092 61.2725 93.6865 61.1045 93.9326C60.9365 94.1748 60.7314 94.3818 60.4893 94.5537C60.251 94.7256 59.9814 94.8564 59.6807 94.9463C59.3799 95.0361 59.0576 95.0811 58.7139 95.0811ZM65.1182 95.0283C64.6729 95.0283 64.2822 94.9346 63.9463 94.7471C63.6104 94.5596 63.3486 94.2822 63.1611 93.915C62.9775 93.5479 62.8857 93.0947 62.8857 92.5557V88.3955H64.1748V92.3975C64.1748 92.8701 64.2979 93.2393 64.5439 93.5049C64.7939 93.7705 65.1318 93.9033 65.5576 93.9033C65.8506 93.9033 66.1104 93.8408 66.3369 93.7158C66.5674 93.5869 66.749 93.4014 66.8818 93.1592C67.0146 92.9131 67.0811 92.6182 67.0811 92.2744V88.3955H68.3701V94.9463H67.1396L67.1338 93.3408H67.2568C67.0654 93.9346 66.7861 94.3643 66.4189 94.6299C66.0518 94.8955 65.6182 95.0283 65.1182 95.0283ZM70.1045 94.9463V88.3955H71.3291L71.3643 89.9131H71.2646C71.3584 89.542 71.5029 89.2373 71.6982 88.999C71.8936 88.7607 72.1221 88.583 72.3838 88.4658C72.6455 88.3447 72.9189 88.2842 73.2041 88.2842C73.6807 88.2842 74.0654 88.4326 74.3584 88.7295C74.6514 89.0225 74.8486 89.4326 74.9502 89.96H74.7861C74.8721 89.6006 75.0205 89.2959 75.2314 89.0459C75.4424 88.7959 75.6963 88.6064 75.9932 88.4775C76.2939 88.3486 76.6143 88.2842 76.9541 88.2842C77.3408 88.2842 77.6904 88.3682 78.0029 88.5361C78.3193 88.7041 78.5693 88.9541 78.7529 89.2861C78.9365 89.6182 79.0283 90.0322 79.0283 90.5283V94.9463H77.7334V90.6572C77.7334 90.2197 77.6123 89.9033 77.3701 89.708C77.1279 89.5127 76.8408 89.415 76.5088 89.415C76.2393 89.415 76.0068 89.4717 75.8115 89.585C75.6162 89.6982 75.4658 89.8564 75.3604 90.0596C75.2549 90.2588 75.2021 90.4893 75.2021 90.751V94.9463H73.9307V90.5752C73.9307 90.2236 73.8174 89.9424 73.5908 89.7314C73.3682 89.5205 73.083 89.415 72.7354 89.415C72.4971 89.415 72.2744 89.4717 72.0674 89.585C71.8643 89.6943 71.7002 89.8584 71.5752 90.0771C71.4541 90.292 71.3936 90.5576 71.3936 90.874V94.9463H70.1045ZM83.5928 95.0811C82.9482 95.0811 82.3916 94.9424 81.9229 94.665C81.4541 94.3877 81.0928 93.9971 80.8389 93.4932C80.5889 92.9893 80.4639 92.3975 80.4639 91.7178C80.4639 91.0459 80.5869 90.4541 80.833 89.9424C81.083 89.4307 81.4346 89.0322 81.8877 88.7471C82.3408 88.458 82.8721 88.3135 83.4814 88.3135C83.8564 88.3135 84.2178 88.376 84.5654 88.501C84.9131 88.6221 85.2256 88.8135 85.5029 89.0752C85.7803 89.3369 85.999 89.6768 86.1592 90.0947C86.3232 90.5088 86.4053 91.0127 86.4053 91.6064V92.0635H81.1846V91.1025H85.7432L85.1396 91.4189C85.1396 91.0166 85.0771 90.6631 84.9521 90.3584C84.8271 90.0498 84.6416 89.8096 84.3955 89.6377C84.1533 89.4658 83.8486 89.3799 83.4814 89.3799C83.1182 89.3799 82.8076 89.4678 82.5498 89.6436C82.292 89.8193 82.0947 90.0518 81.958 90.3408C81.8252 90.626 81.7588 90.9385 81.7588 91.2783V91.9346C81.7588 92.3838 81.835 92.7646 81.9873 93.0771C82.1436 93.3857 82.3604 93.6201 82.6377 93.7803C82.915 93.9365 83.2373 94.0146 83.6045 94.0146C83.8467 94.0146 84.0654 93.9814 84.2607 93.915C84.4561 93.8447 84.624 93.7412 84.7646 93.6045C84.9092 93.4639 85.0186 93.292 85.0928 93.0889L86.3057 93.376C86.2002 93.7119 86.0225 94.0088 85.7725 94.2666C85.5264 94.5244 85.2178 94.7256 84.8467 94.8701C84.4795 95.0107 84.0615 95.0811 83.5928 95.0811ZM89.1123 91.0674V94.9463H87.8232V88.3955H89.0537L89.0654 90.001H88.9307C89.1221 89.415 89.3994 88.9873 89.7627 88.7178C90.126 88.4482 90.5654 88.3135 91.0811 88.3135C91.5264 88.3135 91.915 88.4072 92.2471 88.5947C92.5791 88.7822 92.8389 89.0596 93.0264 89.4268C93.2139 89.79 93.3076 90.2432 93.3076 90.7861V94.9463H92.0186V90.9443C92.0186 90.4717 91.8955 90.1025 91.6494 89.8369C91.4033 89.5713 91.0654 89.4385 90.6357 89.4385C90.3467 89.4385 90.0869 89.5029 89.8564 89.6318C89.626 89.7568 89.4443 89.9404 89.3115 90.1826C89.1787 90.4248 89.1123 90.7197 89.1123 91.0674ZM97.8428 88.3955V89.4443H94.292V88.3955H97.8428ZM95.2471 86.8369H96.5361V93.1768C96.5361 93.4385 96.5908 93.6318 96.7002 93.7568C96.8135 93.8779 96.9971 93.9385 97.251 93.9385C97.3174 93.9385 97.4053 93.9307 97.5146 93.915C97.624 93.8994 97.7178 93.8838 97.7959 93.8682L98.0244 94.8994C97.8877 94.9463 97.7412 94.9795 97.585 94.999C97.4287 95.0225 97.2744 95.0342 97.1221 95.0342C96.5283 95.0342 96.0674 94.8818 95.7393 94.5771C95.4111 94.2686 95.2471 93.8369 95.2471 93.2822V86.8369Z" fill="#5E6E8C"/>
</g>
<g filter="url(#filter3_d_7622_61738)">
<path d="M2 117.219C2 114.633 4.0964 112.536 6.68245 112.536H104.496C107.082 112.536 109.179 114.633 109.179 117.219V139.032C109.179 141.618 107.082 143.715 104.496 143.715H6.68246C4.09641 143.715 2 141.618 2 139.032V117.219Z" fill="white" shape-rendering="crispEdges"/>
<path d="M6.68245 112.916H104.496C106.873 112.916 108.799 114.842 108.799 117.219V139.032C108.799 141.409 106.873 143.335 104.496 143.335H6.68246C4.30598 143.335 2.37946 141.409 2.37946 139.032V117.219C2.37946 114.842 4.30597 112.916 6.68245 112.916Z" stroke="#E4E9F4" stroke-width="0.758929" shape-rendering="crispEdges"/>
<path d="M21.4871 128.125L16.1916 133.421C15.94 133.673 15.5988 133.814 15.243 133.814C14.8872 133.814 14.5459 133.673 14.2943 133.421C14.0427 133.169 13.9014 132.828 13.9014 132.472C13.9014 132.116 14.0427 131.775 14.2943 131.524L19.5897 126.228M23.3844 130.023L25.9142 127.493M25.598 127.809L24.3875 126.599C24.1502 126.362 24.0169 126.04 24.0169 125.704V124.963L22.5875 123.534C21.8821 122.829 20.9274 122.43 19.93 122.423L17.6925 122.408L18.2743 122.927C18.6876 123.293 19.0185 123.743 19.2452 124.247C19.472 124.75 19.5894 125.296 19.5898 125.849V126.861L20.8547 128.125H21.5959C21.9313 128.126 22.253 128.259 22.4902 128.496L23.7006 129.707" stroke="#5E6E8C" stroke-width="1.13839" stroke-linecap="round" stroke-linejoin="round"/>
<path d="M39.7061 124.543V123.395H46.4854V124.543H43.7725V132.125H42.4307V124.543H39.7061ZM49.7725 132.26C49.1279 132.26 48.5713 132.121 48.1025 131.844C47.6338 131.566 47.2725 131.176 47.0186 130.672C46.7686 130.168 46.6436 129.576 46.6436 128.896C46.6436 128.225 46.7666 127.633 47.0127 127.121C47.2627 126.609 47.6143 126.211 48.0674 125.926C48.5205 125.637 49.0518 125.492 49.6611 125.492C50.0361 125.492 50.3975 125.555 50.7451 125.68C51.0928 125.801 51.4053 125.992 51.6826 126.254C51.96 126.516 52.1787 126.855 52.3389 127.273C52.5029 127.688 52.585 128.191 52.585 128.785V129.242H47.3643V128.281H51.9229L51.3193 128.598C51.3193 128.195 51.2568 127.842 51.1318 127.537C51.0068 127.229 50.8213 126.988 50.5752 126.816C50.333 126.645 50.0283 126.559 49.6611 126.559C49.2979 126.559 48.9873 126.646 48.7295 126.822C48.4717 126.998 48.2744 127.23 48.1377 127.52C48.0049 127.805 47.9385 128.117 47.9385 128.457V129.113C47.9385 129.562 48.0146 129.943 48.167 130.256C48.3232 130.564 48.54 130.799 48.8174 130.959C49.0947 131.115 49.417 131.193 49.7842 131.193C50.0264 131.193 50.2451 131.16 50.4404 131.094C50.6357 131.023 50.8037 130.92 50.9443 130.783C51.0889 130.643 51.1982 130.471 51.2725 130.268L52.4854 130.555C52.3799 130.891 52.2021 131.188 51.9521 131.445C51.7061 131.703 51.3975 131.904 51.0264 132.049C50.6592 132.189 50.2412 132.26 49.7725 132.26ZM56.3525 132.26C55.8799 132.26 55.458 132.191 55.0869 132.055C54.7197 131.918 54.417 131.717 54.1787 131.451C53.9443 131.182 53.7881 130.854 53.71 130.467L54.9229 130.215C55.0127 130.555 55.1807 130.807 55.4268 130.971C55.6729 131.135 55.9854 131.217 56.3643 131.217C56.7783 131.217 57.1084 131.131 57.3545 130.959C57.6006 130.783 57.7236 130.574 57.7236 130.332C57.7236 130.121 57.6475 129.947 57.4951 129.811C57.3467 129.674 57.1162 129.572 56.8037 129.506L55.7021 129.254C55.0928 129.117 54.6396 128.898 54.3428 128.598C54.0459 128.297 53.8975 127.912 53.8975 127.443C53.8975 127.053 54.0068 126.711 54.2256 126.418C54.4443 126.125 54.7432 125.898 55.1221 125.738C55.501 125.574 55.9385 125.492 56.4346 125.492C56.9072 125.492 57.3115 125.561 57.6475 125.697C57.9834 125.834 58.2549 126.025 58.4619 126.271C58.6729 126.518 58.8232 126.803 58.9131 127.127L57.7588 127.379C57.6768 127.148 57.5342 126.947 57.3311 126.775C57.1279 126.6 56.833 126.512 56.4463 126.512C56.0908 126.512 55.7939 126.592 55.5557 126.752C55.3174 126.912 55.1982 127.115 55.1982 127.361C55.1982 127.58 55.2764 127.758 55.4326 127.895C55.5928 128.027 55.8525 128.135 56.2119 128.217L57.2666 128.451C57.8721 128.588 58.3213 128.803 58.6143 129.096C58.9072 129.389 59.0537 129.764 59.0537 130.221C59.0537 130.619 58.9385 130.973 58.708 131.281C58.4814 131.586 58.165 131.826 57.7588 132.002C57.3564 132.174 56.8877 132.26 56.3525 132.26ZM63.2725 125.574V126.623H59.7217V125.574H63.2725ZM60.6768 124.016H61.9658V130.355C61.9658 130.617 62.0205 130.811 62.1299 130.936C62.2432 131.057 62.4268 131.117 62.6807 131.117C62.7471 131.117 62.835 131.109 62.9443 131.094C63.0537 131.078 63.1475 131.062 63.2256 131.047L63.4541 132.078C63.3174 132.125 63.1709 132.158 63.0146 132.178C62.8584 132.201 62.7041 132.213 62.5518 132.213C61.958 132.213 61.4971 132.061 61.1689 131.756C60.8408 131.447 60.6768 131.016 60.6768 130.461V124.016Z" fill="#5E6E8C"/>
</g>
<defs>
<filter id="filter0_d_7622_61738" x="0.482143" y="0.241071" width="110.214" height="34.2144" filterUnits="userSpaceOnUse" color-interpolation-filters="sRGB">
<feFlood flood-opacity="0" result="BackgroundImageFix"/>
<feColorMatrix in="SourceAlpha" type="matrix" values="0 0 0 0 0 0 0 0 0 0 0 0 0 0 0 0 0 0 127 0" result="hardAlpha"/>
<feOffset dy="0.758929"/>
<feGaussianBlur stdDeviation="0.758929"/>
<feComposite in2="hardAlpha" operator="out"/>
<feColorMatrix type="matrix" values="0 0 0 0 0.0588235 0 0 0 0 0.0666667 0 0 0 0 0.101961 0 0 0 0.05 0"/>
<feBlend mode="normal" in2="BackgroundImageFix" result="effect1_dropShadow_7622_61738"/>
<feBlend mode="normal" in="SourceGraphic" in2="effect1_dropShadow_7622_61738" result="shape"/>
</filter>
<filter id="filter1_d_7622_61738" x="0.482143" y="37.4198" width="110.214" height="34.2144" filterUnits="userSpaceOnUse" color-interpolation-filters="sRGB">
<feFlood flood-opacity="0" result="BackgroundImageFix"/>
<feColorMatrix in="SourceAlpha" type="matrix" values="0 0 0 0 0 0 0 0 0 0 0 0 0 0 0 0 0 0 127 0" result="hardAlpha"/>
<feOffset dy="0.758929"/>
<feGaussianBlur stdDeviation="0.758929"/>
<feComposite in2="hardAlpha" operator="out"/>
<feColorMatrix type="matrix" values="0 0 0 0 0.0588235 0 0 0 0 0.0666667 0 0 0 0 0.101961 0 0 0 0.05 0"/>
<feBlend mode="normal" in2="BackgroundImageFix" result="effect1_dropShadow_7622_61738"/>
<feBlend mode="normal" in="SourceGraphic" in2="effect1_dropShadow_7622_61738" result="shape"/>
</filter>
<filter id="filter2_d_7622_61738" x="0.482143" y="74.5985" width="110.214" height="34.2144" filterUnits="userSpaceOnUse" color-interpolation-filters="sRGB">
<feFlood flood-opacity="0" result="BackgroundImageFix"/>
<feColorMatrix in="SourceAlpha" type="matrix" values="0 0 0 0 0 0 0 0 0 0 0 0 0 0 0 0 0 0 127 0" result="hardAlpha"/>
<feOffset dy="0.758929"/>
<feGaussianBlur stdDeviation="0.758929"/>
<feComposite in2="hardAlpha" operator="out"/>
<feColorMatrix type="matrix" values="0 0 0 0 0.0588235 0 0 0 0 0.0666667 0 0 0 0 0.101961 0 0 0 0.05 0"/>
<feBlend mode="normal" in2="BackgroundImageFix" result="effect1_dropShadow_7622_61738"/>
<feBlend mode="normal" in="SourceGraphic" in2="effect1_dropShadow_7622_61738" result="shape"/>
</filter>
<filter id="filter3_d_7622_61738" x="0.482143" y="111.777" width="110.214" height="34.2144" filterUnits="userSpaceOnUse" color-interpolation-filters="sRGB">
<feFlood flood-opacity="0" result="BackgroundImageFix"/>
<feColorMatrix in="SourceAlpha" type="matrix" values="0 0 0 0 0 0 0 0 0 0 0 0 0 0 0 0 0 0 127 0" result="hardAlpha"/>
<feOffset dy="0.758929"/>
<feGaussianBlur stdDeviation="0.758929"/>
<feComposite in2="hardAlpha" operator="out"/>
<feColorMatrix type="matrix" values="0 0 0 0 0.0588235 0 0 0 0 0.0666667 0 0 0 0 0.101961 0 0 0 0.05 0"/>
<feBlend mode="normal" in2="BackgroundImageFix" result="effect1_dropShadow_7622_61738"/>
<feBlend mode="normal" in="SourceGraphic" in2="effect1_dropShadow_7622_61738" result="shape"/>
</filter>
<clipPath id="clip0_7622_61738">
<rect width="15.1786" height="15.1786" fill="white" transform="translate(12 46.1787)"/>
</clipPath>
</defs>
</svg>
