<?xml version="1.0" encoding="UTF-8"?>
<svg xmlns="http://www.w3.org/2000/svg" xmlns:xlink="http://www.w3.org/1999/xlink" version="1.1" viewBox="0 0 505 477">
  <defs>
    <style>
      .cls-1, .cls-2 {
        fill: none;
      }

      .cls-3 {
        mask: url(#mask);
      }

      .cls-4, .cls-5, .cls-6 {
        fill: #a6b6d9;
      }

      .cls-5, .cls-6, .cls-7, .cls-2 {
        stroke: #a6b6d9;
      }

      .cls-5, .cls-2 {
        stroke-linecap: round;
        stroke-linejoin: round;
        stroke-width: 1.8px;
      }

      .cls-6 {
        stroke-width: .2px;
      }

      .cls-8 {
        clip-path: url(#clippath-17);
      }

      .cls-9 {
        clip-path: url(#clippath-19);
      }

      .cls-10 {
        clip-path: url(#clippath-11);
      }

      .cls-11 {
        clip-path: url(#clippath-16);
      }

      .cls-12 {
        clip-path: url(#clippath-18);
      }

      .cls-13 {
        clip-path: url(#clippath-10);
      }

      .cls-14 {
        clip-path: url(#clippath-15);
      }

      .cls-15 {
        clip-path: url(#clippath-13);
      }

      .cls-16 {
        clip-path: url(#clippath-14);
      }

      .cls-17 {
        clip-path: url(#clippath-12);
      }

      .cls-18 {
        clip-path: url(#clippath-27);
      }

      .cls-19 {
        clip-path: url(#clippath-26);
      }

      .cls-20 {
        clip-path: url(#clippath-20);
      }

      .cls-21 {
        clip-path: url(#clippath-21);
      }

      .cls-22 {
        clip-path: url(#clippath-22);
      }

      .cls-23 {
        clip-path: url(#clippath-23);
      }

      .cls-24 {
        clip-path: url(#clippath-24);
      }

      .cls-25 {
        clip-path: url(#clippath-25);
      }

      .cls-26 {
        clip-path: url(#clippath-1);
      }

      .cls-27 {
        clip-path: url(#clippath-3);
      }

      .cls-28 {
        clip-path: url(#clippath-4);
      }

      .cls-29 {
        clip-path: url(#clippath-2);
      }

      .cls-30 {
        clip-path: url(#clippath-7);
      }

      .cls-31 {
        clip-path: url(#clippath-6);
      }

      .cls-32 {
        clip-path: url(#clippath-9);
      }

      .cls-33 {
        clip-path: url(#clippath-8);
      }

      .cls-34 {
        clip-path: url(#clippath-5);
      }

      .cls-35 {
        fill: #fff;
      }

      .cls-7 {
        fill: #f9fafb;
        stroke-linejoin: bevel;
      }

      .cls-36 {
        opacity: .8;
      }

      .cls-37 {
        opacity: .7;
      }

      .cls-38 {
        opacity: .7;
      }

      .cls-39 {
        opacity: .4;
      }

      .cls-40 {
        opacity: .6;
      }

      .cls-41 {
        opacity: .5;
      }

      .cls-42 {
        opacity: .2;
      }

      .cls-43 {
        opacity: .3;
      }

      .cls-44 {
        opacity: .1;
      }

      .cls-45 {
        clip-path: url(#clippath);
      }
    </style>
    <clipPath id="clippath">
      <polygon class="cls-1" points="94.3 305.2 73.2 291.4 52.2 305.3 73.3 319 94.3 305.2"/>
    </clipPath>
    <clipPath id="clippath-1">
      <polygon class="cls-1" points="158.3 170.6 137.2 156.6 116.2 170.7 137.3 184.8 158.3 170.6"/>
    </clipPath>
    <clipPath id="clippath-2">
      <polygon class="cls-1" points="219.5 243.2 198.7 229.4 178 243.3 198.8 257 219.5 243.2"/>
    </clipPath>
    <clipPath id="clippath-3">
      <polygon class="cls-1" points="219.5 234.6 198.7 220.6 178 234.7 198.8 248.8 219.5 234.6"/>
    </clipPath>
    <clipPath id="clippath-4">
      <polygon class="cls-1" points="254.5 137.6 233.7 123.6 213 137.7 233.8 151.8 254.5 137.6"/>
    </clipPath>
    <clipPath id="clippath-5">
      <polygon class="cls-1" points="192.3 322.6 171.2 308.6 150.2 322.7 171.3 336.8 192.3 322.6"/>
    </clipPath>
    <clipPath id="clippath-6">
      <polygon class="cls-1" points="61.3 392.6 40.2 378.6 19.2 392.7 40.3 406.8 61.3 392.6"/>
    </clipPath>
    <clipPath id="clippath-7">
      <polygon class="cls-1" points="375.3 158.2 354.2 144.4 333.2 158.3 354.3 172 375.3 158.2"/>
    </clipPath>
    <clipPath id="clippath-8">
      <polygon class="cls-1" points="375.3 149.6 354.2 135.6 333.2 149.7 354.3 163.8 375.3 149.6"/>
    </clipPath>
    <clipPath id="clippath-9">
      <polygon class="cls-1" points="339.3 79.6 318.2 65.6 297.2 79.7 318.3 93.8 339.3 79.6"/>
    </clipPath>
    <clipPath id="clippath-10">
      <polygon class="cls-1" points="490.3 153.6 469.2 139.6 448.2 153.7 469.3 167.8 490.3 153.6"/>
    </clipPath>
    <clipPath id="clippath-11">
      <polygon class="cls-1" points="438.3 98.6 417.2 84.6 396.2 98.7 417.3 112.8 438.3 98.6"/>
    </clipPath>
    <clipPath id="clippath-12">
      <polygon class="cls-1" points="146.3 253.6 125.2 239.6 104.2 253.7 125.3 267.8 146.3 253.6"/>
    </clipPath>
    <clipPath id="clippath-13">
      <polygon class="cls-1" points="57.3 228.6 36.2 214.6 15.2 228.7 36.3 242.8 57.3 228.6"/>
    </clipPath>
    <clipPath id="clippath-14">
      <polygon class="cls-1" points="199.3 374.6 178.2 360.6 157.2 374.7 178.3 388.8 199.3 374.6"/>
    </clipPath>
    <clipPath id="clippath-15">
      <polygon class="cls-1" points="271.3 301.6 250.2 287.6 229.2 301.7 250.3 315.8 271.3 301.6"/>
    </clipPath>
    <clipPath id="clippath-16">
      <polygon class="cls-1" points="356.3 362.6 335.2 348.6 314.2 362.7 335.3 376.8 356.3 362.6"/>
    </clipPath>
    <clipPath id="clippath-17">
      <polygon class="cls-1" points="343.3 448.6 322.2 434.6 301.2 448.7 322.3 462.8 343.3 448.6"/>
    </clipPath>
    <clipPath id="clippath-18">
      <polygon class="cls-1" points="321.3 230.6 300.2 216.6 279.2 230.7 300.3 244.8 321.3 230.6"/>
    </clipPath>
    <clipPath id="clippath-19">
      <polygon class="cls-1" points="407.3 20.6 386.2 6.6 365.2 20.7 386.3 34.8 407.3 20.6"/>
    </clipPath>
    <clipPath id="clippath-20">
      <polygon class="cls-1" points="255.3 68.6 234.2 54.6 213.2 68.7 234.3 82.8 255.3 68.6"/>
    </clipPath>
    <clipPath id="clippath-21">
      <polygon class="cls-1" points="401.3 286.6 380.2 272.6 359.2 286.7 380.3 300.8 401.3 286.6"/>
    </clipPath>
    <clipPath id="clippath-22">
      <polygon class="cls-1" points="401.3 279.2 380.2 265.4 359.2 279.3 380.3 293 401.3 279.2"/>
    </clipPath>
    <clipPath id="clippath-23">
      <polygon class="cls-1" points="401.3 258.2 380.2 244.4 359.2 258.3 380.3 272 401.3 258.2"/>
    </clipPath>
    <clipPath id="clippath-24">
      <polygon class="cls-1" points="450.3 374.2 429.2 360.4 408.2 374.3 429.3 388 450.3 374.2"/>
    </clipPath>
    <clipPath id="clippath-25">
      <polygon class="cls-1" points="449.5 203.5 428.5 217.5 407.5 203.4 428.5 189.3 449.5 203.5"/>
    </clipPath>
    <clipPath id="clippath-26">
      <polygon class="cls-1" points="220.5 206.9 199.5 221 178.5 206.8 199.5 192.8 220.5 206.9"/>
    </clipPath>
    <clipPath id="clippath-27">
      <polygon class="cls-1" points="275.3 378.6 254.2 364.6 233.2 378.7 254.3 392.8 275.3 378.6"/>
    </clipPath>
    <mask id="mask" x="235.1" y="370.8" width="33.4" height="14.5" maskUnits="userSpaceOnUse">
      <g id="path-89-inside-1_7622_61328">
        <path class="cls-35" d="M261.9,372.8h.4s0-.3,0-.5c0-.2.1-.5.1-.5h-.4s-.1.3-.1.5c0,.2,0,.5,0,.5ZM251.2,378.1s.3,0,.5,0c.2,0,.4.1.5.1l.3-.5,1.2.3-.5.7c.1.1.6.5,1,1.1.5.8.6,1.6.6,1.6v.2s-.6-.4-.6-.4h0s-.2-.8-.4-1.1c0,0-.1-.2-.2-.3,0,.2.2.4.2.5,0,.2.2.6.2.6v.2c0,0-.6-.4-.6-.4h0s-.5-1.1-.9-1.5h-.1c0-.2-.2-.3-.3-.4-.1,0-.3-.2-.7-.4-.4-.2-.7-.3-.7-.3h-.3c0,0,.7-.2.7-.2h0s0,0,0,0ZM265.5,379.1h0s0,1.1,0,1.1h0c-.1,0-.2.2-.4.2-.1,0-.3,0-.5,0-.3,0-.6,0-.9-.2h0c-.2-.2-.4-.4-.4-.6,0-.2.1-.4.3-.6.2-.2.5-.3.9-.3.3,0,.6,0,.9.2ZM263.9,380.2h0c.1,0,.2.1.4.2,0,0-.1,0-.2-.1,0,0,0-.1,0-.2,0,0,0-.1,0-.2,0,0,.1-.1.2-.2.1,0,.3,0,.5,0,.2,0,.3,0,.4.1.1,0,.2.2.1.3,0,.1,0,.2-.2.3.1,0,.2,0,.3-.1v-1c-.5-.2-1.1-.2-1.5,0-.4.3-.4.7,0,1h0ZM259,372.5h.4c0,0,.1.5.1.5h.6c0,0,.1.3.1.3h-.6c0,0,.1.3.1.3h-.4c0,0-.1-.5-.1-.5h-.6c0,0-.1-.3-.1-.3h.6M237.2,376.1c.4,0,.7,0,1.1,0,.8,0,1.7,0,2.5,0,1,0,2,0,3-.2.4,0,.9,0,1.3-.1.6,0,1.1-.2,1.6-.3.6-.1,1.1-.3,1.7-.5-.4,0-.8,0-1.2,0,.2-.1.3-.3.5-.4l.3-.2s0,0,0,0c0,0,0,0,.1,0,.2,0,.5,0,.7,0,.3,0,.7,0,1,0h.3s0,0,.1,0c0,0,.1,0,.2,0l.6-.2c-.8-.2-1.6-.2-2.4-.2.3-.2.6-.4.9-.6,0,0,0,0,.1,0,0,0,0,0,0,0,.2,0,.4,0,.6,0,.3,0,.5,0,.8,0,.2,0,.5,0,.7,0,0,0,0,0,.1,0h0c0-.1,0-.1,0-.1h-.2c-.5-.2-1-.3-1.5-.4.5-.2,1-.3,1.6-.5,1-.2,2.1-.3,3.1-.4.7,0,1.4,0,2.1,0,.4,0,.7,0,1.1,0,.2,0,.3,0,.5,0,0,0,.1,0,.2,0,.3,0,.6,0,.9,0-.3,0-.6-.1-.9-.2.3,0,.6,0,.9,0,.4,0,.8.2,1.2.3,0-.1,0-.3,0-.4,0-.1,0-.3,0-.4,0-.2,0-.3,0-.5l1.6.2h.7c-.1.3-.2.5-.2.8,0,.2,0,.4,0,.7,0,.2,0,.4,0,.6,0,0,0,.1,0,.2,0,0,0,0,.1,0h.2c.3.3.5.5.7.7,0,0,0,0,.1.1h.2c.1.2.3.2.4.3.3.2.5.3.7.5.2.2.4.3.5.5.2.2.3.4.3.6,0,.2,0,.4,0,.6,0,.2-.2.4-.4.5.1,0,.2.2.3.2.3.3.6.5.9.8.3.4.5.8.5,1.2,0,.2,0,.4,0,.7,0,0,0,0,0,0,0,0,0,0,0,0,0,0,0,0,0,0v.2c-.2.3-.3.5-.5.8h0c0,0,0,0,0,0,0,0-.1,0-.2.1h0c0,0,0,0,0,0h0c0,.1.2.2.3.3,0,0,.1.2.2.3,0,.1,0,.2,0,.3,0,.4-.1.7-.4,1.1-.2.3-.5.5-.9.7,0,0-.2,0-.3,0-.1,0-.3,0-.4-.1,0,0-.1-.2-.2-.3v-.3c-.3-.4-.6-.8-.9-1.2,0,0-.1,0-.2,0,0,0-.1,0-.2,0-.2,0-.3,0-.5,0-.3,0-.6-.2-.9-.3-.5-.2-1-.5-1.5-.8-.2-.1-.4-.2-.5-.4-.2-.1-.4-.3-.5-.4-.2-.1-.5-.3-.7-.4-.3-.1-.5-.3-.8-.4-.5-.3-1.1-.5-1.6-.7,0,.2-.1.3-.2.5,0,0,0,0,0,0,0,0,0,0,.1,0,0,0,.1,0,.2.1.2.1.3.3.4.5.3.4.4.8.4,1.3,0,.2,0,.5,0,.7,0,0,0,.1,0,.2l-.2-.2s0,0-.1-.1c0,0,0,0,0,0,0-.2,0-.5-.1-.7,0-.1,0-.2-.1-.3,0-.1-.2-.3-.3-.4.1.3.3.6.3.9,0,.2,0,.4,0,.5l-.5-.4s0,0,0,0v-.2c-.1-.1-.2-.2-.2-.3-.1-.2-.2-.4-.3-.6-.1-.2-.3-.4-.4-.6-.2-.2-.3-.3-.6-.4-.4-.2-.8-.3-1.2-.3,0,0,0,0,0,0,0,0,0-.1,0-.1h.4c0,0,0-.1.1-.1h.2c.2,0,.5.1.7.1,0,0,.1,0,.1,0,0,0,0,0,0,0,0,0,0-.1.1-.2,0,0,0-.1,0-.2,0,0,0,0,0,0h-.1c-.3-.1-.6-.2-.8-.3-.3-.1-.6-.2-.9-.4h0c0,0,.2,0,.2,0,0,0,0,0,.1,0h.1c0,0,.2.1.2.2.3.1.6.2.9.3.4.1.9.3,1.3.5.5.2,1,.5,1.5.7.3.1.5.2.8.4.2.1.5.2.7.4.5.3.9.7,1.3,1,.3.2.7.4,1.1.6h0c-.1-.2-.3-.4-.4-.6-.1-.2-.2-.4-.4-.6l-.2-.3c0,0-.1-.2-.1-.3-.1-.4,0-.8.1-1.2,0-.4,0-.8,0-1.1,0-.1-.1-.2-.2-.3.6,0,1.3-.2,1.8-.5h-.1s0,0-.1,0h-.1c-.1.1-.2.1-.3.2-.2,0-.5.1-.7.2-.5.1-1.1.2-1.7.2-1.1,0-2.1,0-3.2.1-.3,0-.5,0-.8,0-.3,0-.6,0-.9,0-.2,0-.5,0-.7,0h-.2s0,0,0,0c-.8-.2-1.6-.4-2.4-.5-.6-.1-1.1-.3-1.7-.4-.3,0-.6-.1-.9-.2,0,0,0,0-.1,0,0,0,0,0,0,0h0c0,0-.2,0-.3.1-.2,0-.3.1-.5.2-1.1.3-2.2.7-3.3.9-.9.2-1.8.3-2.7.5-1.7.3-3.4.6-5.1.8-.3,0-.7.1-1,.1h-.1s.3-1.1.3-1.1v-.3c0,0,0,0,.1-.1h.3c.6-.1,1.3-.2,1.9-.3l1.8-.3h.2s-1.3,0-1.3,0h-2.2c-.2.2-.5.2-.7.2.2-.4.3-.7.5-1.1,0-.1.1-.3.2-.4M263,372.7c0-.3,0-.7.1-1l-1.7-.3h-.3c0,.3,0,.6,0,.9,0,0,0,0,0,.1,0,0,0,0,0,0h0c0,0,0,0,0,0,.5.2,1,.4,1.4.6.2.1.4.2.6.3,0-.3,0-.6-.1-.9ZM263.3,374.5c-.1-.2-.3-.4-.5-.5-.4-.3-.8-.6-1.3-.9-.3-.2-.7-.3-1.1-.5v.2s.3,0,.3,0c.1,0,.3.1.4.2.2.1.5.3.7.4.4.3.8.6,1.1.9.2.2.4.5.5.7.1.3.2.5.2.8,0,.3,0,.6-.3.8h0c0,0,0,0,0,0h0s0,0,0,0c.4-.6.5-1.2.2-1.8,0-.2-.2-.4-.3-.5M266.4,377c0-.4,0-.8-.3-1.1-.4-.4-.8-.7-1.2-1,.3.4.6.8.7,1.3.4.4.5.8.4,1.3h0c0,0,.2-.1.3-.2,0,0,0-.1.1-.2M265.6,376.5c0,.2,0,.3,0,.5,0,0,0,.1,0,.2,0,0,.2.1.3.1,0-.3,0-.6-.2-.9ZM267.5,381.2c0-.1.1-.3.2-.4,0,0,0,0,0,0,0,0,0,0,0-.1,0-.3-.2-.6-.2-.9,0-.2-.1-.3-.2-.5,0-.2-.2-.3-.3-.5-.2-.3-.5-.5-.7-.8-.1-.1-.3-.2-.5-.3.1.3.2.6.4.9.1.3.3.6.4.9.1.3.3.6.4.9.1.3.2.6.3,1v.2c.1-.1.2-.2.3-.3ZM263.9,382.4s0,.1.1.1c0,0,.2.1.2.2.2.2.4.3.5.5.3.4.5.8.7,1.2,0,0,0,.2.1.3,0,0,0,0,0,0,0,0,0,0,.1,0,0,0,.2,0,.2,0,.1,0,.2-.1.4-.2.3-.2.5-.4.7-.7,0-.2.2-.4.2-.6,0-.2,0-.4,0-.6-.2-.3-.5-.6-.8-.8,0,0-.1,0-.2-.1,0,0-.2-.1-.3-.2,0,0-.2,0-.3,0-.1,0-.3,0-.4.1-.3.1-.6.2-.8.4-.1,0-.2.1-.3.2,0,0-.1.1-.2.2M263.2,379.6c.1.4.4.7.7,1,0,0,.2.1.2.2,0,0,.2,0,.3.1.2,0,.5.1.7.2,0,0,.2,0,.3,0,0,0,.1,0,.2,0,.2-.1.3-.3.4-.5.1-.3.1-.6,0-.9-.4-.7-1.6-1.1-2.7-1.2h-.1c0,.2,0,.4,0,.5,0,.2,0,.5,0,.7M263,377.1c.6.2,1.2.3,1.8.4-.6-.2-1.1-.4-1.6-.6-.3-.1-.5-.3-.8-.4-.3-.2-.5-.3-.7-.5-.4-.4-.7-.8-.9-1.2-.2-.4-.4-.9-.5-1.3,0-.2-.1-.4-.1-.7,0,0,0-.2,0-.2h0s-.8,0-.8,0c-.5,0-1,0-1.5-.1.5.7,1.1,1.4,1.6,2.1.3.4.6.8,1,1.2.3.3.6.6.9.9.4.3,1,.5,1.6.7M251.8,374.3c0,0-.2,0-.2,0h-.1s0,0,0,0h0c-.2,0-.3.1-.5.2h.7s.1,0,.1,0c0,0,0,0,0,0h0M251.1,375.5h0c0,0,0-.1,0-.1,0,0,0,0,0,0-.2,0-.3,0-.5-.1-.3,0-.6-.1-.9-.2-.2,0-.3,0-.5,0h-.2s-.1,0-.1,0c0,0,0,0-.1,0-.3.1-.7.2-1,.3-.2,0-.5.1-.7.2.6,0,1.2,0,1.8,0,.6,0,1.2,0,1.8,0h.5M242.2,377.1h0c0,.1,0,.1,0,.1h-.1s-.6.1-.6.1l-2,.3-2.1.3h-.7c0,.1-.2.1-.2.1,0,0,0,0,0,0l-.3,1.1s0,0,0,.1c.5,0,1.1-.2,1.6-.2.9-.1,1.8-.3,2.7-.4,1-.2,2-.3,3-.5.9-.2,1.8-.4,2.7-.6.9-.2,1.7-.5,2.6-.8-.6-.2-1.2-.4-1.8-.6-.2,0-.3-.1-.5-.2h0s0,0,0,0c0,0,0,0,.1-.1,0,0,.2-.2.3-.3-.6.1-1.1.2-1.7.3-.5,0-.9.1-1.4.1-1,0-2.1.1-3.1.2-.8,0-1.7,0-2.5,0h-.7s0,0,0,0h0s-.1.3-.1.3l-.4,1h1.1c0,0,2.2-.2,2.2-.2.6,0,1.2,0,1.8-.1h.4"/>
      </g>
    </mask>
  </defs>
  <!-- Generator: Adobe Illustrator 28.7.1, SVG Export Plug-In . SVG Version: 1.2.0 Build 142)  -->
  <g>
    <g id="Layer_1">
      <g class="cls-43">
        <path class="cls-7" d="M99.5,319.1c2.7-1.5,4-3.6,3.9-5.6-.1-1.9,0-9.1,0-9.1l-19.6-5.3c-.9-.2-1.7-.6-2.5-1-4.9-2.2-11.8-2.2-16.7,0-.7.3-1.4.6-2.2.9l-19.9,6.2s.1,6.4,0,8.3c-.1,2,1.2,4.1,3.9,5.6l17.1,10.5c5.2,3,13.7,3,18.9,0l17.1-10.5Z"/>
        <path class="cls-7" d="M99.7,310.7c5.1-2.9,5.2-7.7,0-10.6l-17.4-10.7c-5.1-2.9-13.5-2.9-18.6,0l-17.4,10.7c-5.1,2.9-5.1,7.7,0,10.6l17.4,10.7c5.1,2.9,13.5,2.9,18.6,0l17.4-10.7Z"/>
        <g class="cls-45">
          <path class="cls-2" d="M80.3,298.3l-3.5,2.3c-.5.3-1.1.5-1.8.5-.7,0-1.3-.2-1.8-.5l-3.5-2.3M79.4,297.7l7.9,5.2c.5.3.7.7.7,1.1,0,.4-.3.8-.7,1.2l-14,9.2c-.5.3-1.1.5-1.8.5-.7,0-1.3-.2-1.8-.5l-10.5-6.9c-.5-.3-.7-.7-.7-1.1,0-.4.3-.8.7-1.2l11.4-7.5h8.8Z"/>
        </g>
      </g>
      <g class="cls-39">
        <path class="cls-7" d="M163.5,184.8c2.7-1.6,4-3.7,3.9-5.8-.1-1.9,0-9.3,0-9.3l-19.6-5.5c-.9-.2-1.7-.6-2.5-1-4.9-2.2-11.8-2.2-16.7,0-.7.3-1.4.7-2.2.9l-19.9,6.3s.1,6.6,0,8.5c-.1,2.1,1.2,4.2,3.9,5.7l17.1,10.7c5.2,3,13.7,3,18.9,0l17.1-10.7Z"/>
        <path class="cls-7" d="M163.7,176.3c5.1-3,5.2-7.8,0-10.8l-17.4-10.9c-5.1-3-13.5-3-18.6,0l-17.4,10.9c-5.1,3-5.1,7.8,0,10.8l17.4,10.9c5.1,3,13.5,3,18.6,0l17.4-10.9Z"/>
        <g class="cls-26">
          <path class="cls-2" d="M144.3,163.6l-3.5,2.4c-.5.3-1.1.5-1.8.5-.7,0-1.3-.2-1.8-.5l-3.5-2.3M143.4,163l7.9,5.3c.5.3.7.7.7,1.2,0,.4-.3.9-.7,1.2l-14,9.4c-.5.3-1.1.5-1.8.5-.7,0-1.3-.2-1.8-.5l-10.5-7c-.5-.3-.7-.7-.7-1.2,0-.4.3-.9.7-1.2l11.4-7.7h8.8Z"/>
        </g>
      </g>
      <g class="cls-40">
        <path class="cls-7" d="M224.7,257.1c2.7-1.5,4-3.6,3.9-5.6-.1-1.9,0-9.1,0-9.1l-19.4-5.3c-.9-.2-1.7-.6-2.5-1-4.8-2.2-11.7-2.2-16.5,0-.7.3-1.4.6-2.1.9l-19.6,6.2s.1,6.4,0,8.3c-.1,2,1.2,4.1,3.9,5.6l16.8,10.5c5.2,3,13.5,3,18.7,0l16.8-10.5Z"/>
        <path class="cls-7" d="M224.8,248.7c5.1-2.9,5.1-7.7,0-10.6l-17.1-10.7c-5.1-2.9-13.3-2.9-18.4,0l-17.1,10.7c-5.1,2.9-5.1,7.7,0,10.6l17.1,10.7c5.1,2.9,13.3,2.9,18.4,0l17.1-10.7Z"/>
        <g class="cls-29">
          <path class="cls-2" d="M205.7,236.3l-3.4,2.3c-.5.3-1.1.5-1.7.5-.6,0-1.3-.2-1.7-.5l-3.5-2.3M204.8,235.7l7.8,5.2c.5.3.7.7.7,1.1,0,.4-.3.8-.7,1.2l-13.8,9.2c-.5.3-1.1.5-1.7.5-.6,0-1.3-.2-1.7-.5l-10.4-6.9c-.5-.3-.7-.7-.7-1.1,0-.4.3-.8.7-1.2l11.2-7.5h8.6Z"/>
        </g>
        <path class="cls-7" d="M224.7,248.8c2.7-1.6,4-3.7,3.9-5.8-.1-1.9,0-9.3,0-9.3l-19.4-5.5c-.9-.2-1.7-.6-2.5-1-4.8-2.2-11.7-2.2-16.5,0-.7.3-1.4.7-2.1.9l-19.6,6.3s.1,6.6,0,8.5c-.1,2.1,1.2,4.2,3.9,5.7l16.8,10.7c5.2,3,13.5,3,18.7,0l16.8-10.7Z"/>
        <path class="cls-7" d="M224.8,240.3c5.1-3,5.1-7.8,0-10.8l-17.1-10.9c-5.1-3-13.3-3-18.4,0l-17.1,10.9c-5.1,3-5.1,7.8,0,10.8l17.1,10.9c5.1,3,13.3,3,18.4,0l17.1-10.9Z"/>
        <g class="cls-27">
          <g>
            <path class="cls-6" d="M213,235.4h0c.3-.1.3-.4,0-.6h0l-14.6-9.9h0c-.3-.2-.7-.2-.9,0h0l-10.8,10.3c-.2.2-.1.4,0,.5l10.2,6.9c.3.2.8.2,1.1,0h0s14.9-7.3,14.9-7.3ZM194.9,235.1h0s0,0,0,0l3.8-3.7h0c0,0,0,0,0,0l4.9,3.3h0c0,0-.1.1-.1.1l-5.4,2.5h0s0,0,0,0l-3.2-2.2Z"/>
            <path class="cls-4" d="M194.1,228.2l4.7,3.2-3.8,3.7,3.2,2.2-.7,5.7s-.3,0-.6-.2l-10.2-6.9c-.2-.2-.3-.4,0-.6l7.4-7Z"/>
          </g>
        </g>
        <path class="cls-7" d="M225.7,220.8c2.7-1.6,4-3.7,3.9-5.8-.1-1.9,0-9.3,0-9.3l-19.4-5.5c-.9-.2-1.7-.6-2.5-1-4.8-2.2-11.7-2.2-16.5,0-.7.3-1.4.7-2.1.9l-19.6,6.3s.1,6.6,0,8.5c-.1,2.1,1.2,4.2,3.9,5.7l16.8,10.7c5.2,3,13.5,3,18.7,0l16.8-10.7Z"/>
        <path class="cls-7" d="M225.8,212.3c5.1-3,5.1-7.8,0-10.8l-17.1-10.9c-5.1-3-13.3-3-18.4,0l-17.1,10.9c-5.1,3-5.1,7.8,0,10.8l17.1,10.9c5.1,3,13.3,3,18.4,0l17.1-10.9Z"/>
      </g>
      <g class="cls-40">
        <path class="cls-7" d="M259.7,151.8c2.7-1.6,4-3.7,3.9-5.8-.1-1.9,0-9.3,0-9.3l-19.4-5.5c-.9-.2-1.7-.6-2.5-1-4.8-2.2-11.7-2.2-16.5,0-.7.3-1.4.7-2.1.9l-19.6,6.3s.1,6.6,0,8.5c-.1,2.1,1.2,4.2,3.9,5.7l16.8,10.7c5.2,3,13.5,3,18.7,0l16.8-10.7Z"/>
        <path class="cls-7" d="M259.8,143.3c5.1-3,5.1-7.8,0-10.8l-17.1-10.9c-5.1-3-13.3-3-18.4,0l-17.1,10.9c-5.1,3-5.1,7.8,0,10.8l17.1,10.9c5.1,3,13.3,3,18.4,0l17.1-10.9Z"/>
        <g class="cls-28">
          <g>
            <path class="cls-4" d="M245.9,133.7l-5.6-3.8-11.4,15.8c-.1.2-.2.3-.1.5,0,.2.2.3.4.5l4.4,3c.1,0,.3.2.5.2.2,0,.4,0,.6,0,.2,0,.4,0,.5-.2.2,0,.3-.2.4-.3l10.6-14.7c.1-.2.2-.3.1-.5,0-.2-.2-.3-.4-.5Z"/>
            <path class="cls-4" d="M226.1,136.1l8.9,6.1c0,0,.1.1.2.2,0,0,0,.2,0,.2,0,0-.1.1-.2.2,0,0-.2,0-.3,0l-11.1-.2c-.3,0-.6,0-.9-.3l-5.1-3.4,8.5-2.8Z"/>
            <path class="cls-4" d="M245.9,133.7c.2.1.3.3.4.5,0,.2,0,.4-.1.5l-10.6,14.7c0,.1-.2.2-.4.3-.2,0-.4.1-.6.2-.2,0-.4,0-.6,0-.2,0-.4-.1-.5-.2l-4.5-3c-.1-.1-.2-.3-.2-.5,0-.2,0-.3.1-.5l2.1-2.9-7.5-.2c-.3,0-.6-.1-.8-.2l-5-3.4,8.5-2.8,6.4,4.4,7.6-10.6,5.6,3.8Z"/>
            <path class="cls-4" d="M238.1,129.3c.2,0,.5-.1.8,0,.3,0,.5.1.7.2l6.3,4.3c-.2-.1-.4-.2-.7-.2-.3,0-.5,0-.8,0l-21.5,7.3c-.2,0-.3.2-.5.3-.1.1-.2.2-.2.4,0,.1,0,.3,0,.4,0,.1.2.2.3.3l-6.3-4.3c-.1,0-.2-.2-.3-.3,0-.1,0-.3,0-.4s.1-.3.2-.4c.1-.1.3-.2.5-.3l21.5-7.3Z"/>
          </g>
        </g>
      </g>
      <g class="cls-37">
        <path class="cls-7" d="M197.5,336.8c2.7-1.6,4-3.7,3.9-5.8-.1-1.9,0-9.3,0-9.3l-19.6-5.5c-.9-.2-1.7-.6-2.5-1-4.9-2.2-11.8-2.2-16.7,0-.7.3-1.4.7-2.2.9l-19.9,6.3s.1,6.6,0,8.5c-.1,2.1,1.2,4.2,3.9,5.7l17.1,10.7c5.2,3,13.7,3,18.9,0l17.1-10.7Z"/>
        <path class="cls-7" d="M197.7,328.3c5.1-3,5.2-7.8,0-10.8l-17.4-10.9c-5.1-3-13.5-3-18.6,0l-17.4,10.9c-5.2,3-5.2,7.8,0,10.8l17.4,10.9c5.1,3,13.5,3,18.6,0l17.4-10.9Z"/>
        <g class="cls-34">
          <g>
            <path class="cls-4" d="M174.9,330c0,.3-.2.6-.3.9,0,.3-.5.4-.9.4l-5.3-.8c-.4,0-.6-.3-.5-.6,0-.2.2-.5.3-.9.8-2.3-.7-3-4.2-3.8l-4.8-1.1c-.4,0-.5-.4-.4-.6l1.9-3.4c.1-.2.5-.4.9-.3,1,.3,3,.7,4.8,1.1,6.5,1.5,10.1,4.1,8.3,9.2Z"/>
            <path class="cls-4" d="M168.3,314.9c0-.3.2-.6.3-.9,0-.3.5-.4.9-.4l5.3.8c.4,0,.6.3.5.6,0,.2-.2.5-.3.9-.8,2.3.7,3,4.2,3.8l4.8,1.1c.4,0,.5.4.4.6l-1.9,3.4c-.1.2-.5.4-.9.3-1-.3-3-.7-4.8-1.1-6.5-1.5-10.1-4.1-8.3-9.2Z"/>
          </g>
        </g>
      </g>
      <g class="cls-44">
        <path class="cls-7" d="M66.5,406.8c2.7-1.6,4-3.7,3.9-5.8-.1-1.9,0-9.3,0-9.3l-19.6-5.5c-.9-.2-1.7-.6-2.5-1-4.9-2.2-11.8-2.2-16.7,0-.7.3-1.4.7-2.2.9l-19.9,6.3s.1,6.6,0,8.5c-.1,2.1,1.2,4.2,3.9,5.7l17.1,10.7c5.2,3,13.7,3,18.9,0l17.1-10.7Z"/>
        <path class="cls-7" d="M66.7,398.3c5.1-3,5.1-7.8,0-10.8l-17.4-10.9c-5.1-3-13.5-3-18.6,0l-17.4,10.9c-5.1,3-5.1,7.8,0,10.8l17.4,10.9c5.1,3,13.5,3,18.6,0l17.4-10.9Z"/>
        <g class="cls-31">
          <path class="cls-2" d="M47.3,385.6l-3.5,2.4c-.5.3-1.1.5-1.8.5-.7,0-1.3-.2-1.8-.5l-3.5-2.3M46.4,385l7.9,5.3c.5.3.7.7.7,1.2,0,.4-.3.9-.7,1.2l-14,9.4c-.5.3-1.1.5-1.8.5-.7,0-1.3-.2-1.8-.5l-10.5-7c-.5-.3-.7-.7-.7-1.2,0-.4.3-.9.7-1.2l11.4-7.7h8.8Z"/>
        </g>
      </g>
      <g class="cls-40">
        <path class="cls-7" d="M380.5,172.1c2.7-1.5,4-3.6,3.9-5.6-.1-1.9,0-9.1,0-9.1l-19.6-5.3c-.9-.2-1.7-.6-2.5-1-4.9-2.2-11.8-2.2-16.7,0-.7.3-1.4.6-2.2.9l-19.9,6.2s.1,6.4,0,8.3c-.1,2,1.2,4.1,3.9,5.6l17.1,10.5c5.2,3,13.7,3,18.9,0l17.1-10.5Z"/>
        <path class="cls-7" d="M380.7,163.7c5.1-2.9,5.1-7.7,0-10.6l-17.4-10.7c-5.1-2.9-13.5-2.9-18.6,0l-17.4,10.7c-5.1,2.9-5.1,7.7,0,10.6l17.4,10.7c5.1,2.9,13.5,2.9,18.6,0l17.4-10.7Z"/>
        <g class="cls-30">
          <path class="cls-2" d="M361.3,151.3l-3.5,2.3c-.5.3-1.1.5-1.8.5-.7,0-1.3-.2-1.8-.5l-3.5-2.3M360.4,150.7l7.9,5.2c.5.3.7.7.7,1.1,0,.4-.3.8-.7,1.2l-14,9.2c-.5.3-1.1.5-1.8.5-.7,0-1.3-.2-1.8-.5l-10.5-6.9c-.5-.3-.7-.7-.7-1.1,0-.4.3-.8.7-1.2l11.4-7.5h8.8Z"/>
        </g>
        <path class="cls-7" d="M380.5,163.8c2.7-1.6,4-3.7,3.9-5.8-.1-1.9,0-9.3,0-9.3l-19.6-5.5c-.9-.2-1.7-.6-2.5-1-4.9-2.2-11.8-2.2-16.7,0-.7.3-1.4.7-2.2.9l-19.9,6.3s.1,6.6,0,8.5c-.1,2.1,1.2,4.2,3.9,5.7l17.1,10.7c5.2,3,13.7,3,18.9,0l17.1-10.7Z"/>
        <path class="cls-7" d="M380.7,155.3c5.1-3,5.1-7.8,0-10.8l-17.4-10.9c-5.1-3-13.5-3-18.6,0l-17.4,10.9c-5.1,3-5.1,7.8,0,10.8l17.4,10.9c5.1,3,13.5,3,18.6,0l17.4-10.9Z"/>
        <g class="cls-33">
          <path class="cls-5" d="M344.4,144.6l11.7-3.9c0,0,.2,0,.3,0,.1,0,.2,0,.3,0,0,0,.1.1.1.2,0,0,0,.1,0,.2l-3.9,5.3,6.5,4.3,7.8-2.6c0,0,.2,0,.2,0,.1,0,.2,0,.3.1,0,0,.1.1.1.2,0,0,0,.1,0,.2l-5.8,7.9c0,.1-.2.2-.4.3-.2,0-.4,0-.6,0l-14.5-1.6-2.5-9.7c0-.1,0-.3,0-.4,0-.1.2-.2.4-.3Z"/>
        </g>
      </g>
      <g class="cls-41">
        <path class="cls-7" d="M344.5,93.8c2.7-1.6,4-3.7,3.9-5.8-.1-1.9,0-9.3,0-9.3l-19.6-5.5c-.9-.2-1.7-.6-2.5-1-4.9-2.2-11.8-2.2-16.7,0-.7.3-1.4.7-2.2.9l-19.9,6.3s.1,6.6,0,8.5c-.1,2.1,1.2,4.2,3.9,5.7l17.1,10.7c5.2,3,13.7,3,18.9,0l17.1-10.7Z"/>
        <path class="cls-7" d="M344.7,85.3c5.1-3,5.1-7.8,0-10.8l-17.4-10.9c-5.1-3-13.5-3-18.6,0l-17.4,10.9c-5.1,3-5.1,7.8,0,10.8l17.4,10.9c5.1,3,13.5,3,18.6,0l17.4-10.9Z"/>
        <g class="cls-32">
          <path class="cls-2" d="M325.3,72.6l-3.5,2.4c-.5.3-1.1.5-1.8.5-.7,0-1.3-.2-1.8-.5l-3.5-2.3M324.4,72l7.9,5.3c.5.3.7.7.7,1.2,0,.4-.3.9-.7,1.2l-14,9.4c-.5.3-1.1.5-1.8.5-.7,0-1.3-.2-1.8-.5l-10.5-7c-.5-.3-.7-.7-.7-1.2,0-.4.3-.9.7-1.2l11.4-7.7h8.8Z"/>
        </g>
      </g>
      <g class="cls-41">
        <path class="cls-7" d="M495.5,167.8c2.7-1.6,4-3.7,3.9-5.8-.1-1.9,0-9.3,0-9.3l-19.6-5.5c-.9-.2-1.7-.6-2.5-1-4.9-2.2-11.8-2.2-16.7,0-.7.3-1.4.7-2.2.9l-19.9,6.3s.1,6.6,0,8.5c-.1,2.1,1.2,4.2,3.9,5.7l17.1,10.7c5.2,3,13.7,3,18.9,0l17.1-10.7Z"/>
        <path class="cls-7" d="M495.7,159.3c5.1-3,5.1-7.8,0-10.8l-17.4-10.9c-5.1-3-13.5-3-18.6,0l-17.4,10.9c-5.1,3-5.1,7.8,0,10.8l17.4,10.9c5.1,3,13.5,3,18.6,0l17.4-10.9Z"/>
        <g class="cls-13">
          <path class="cls-2" d="M476.3,146.6l-3.5,2.4c-.5.3-1.1.5-1.8.5-.7,0-1.3-.2-1.8-.5l-3.5-2.3M475.4,146l7.9,5.3c.5.3.7.7.7,1.2,0,.4-.3.9-.7,1.2l-14,9.4c-.5.3-1.1.5-1.8.5-.7,0-1.3-.2-1.8-.5l-10.5-7c-.5-.3-.7-.7-.7-1.2,0-.4.3-.9.7-1.2l11.4-7.7h8.8Z"/>
        </g>
      </g>
      <g class="cls-37">
        <path class="cls-7" d="M443.5,112.8c2.7-1.6,4-3.7,3.9-5.8-.1-1.9,0-9.3,0-9.3l-19.6-5.5c-.9-.2-1.7-.6-2.5-1-4.9-2.2-11.8-2.2-16.7,0-.7.3-1.4.7-2.2.9l-19.9,6.3s.1,6.6,0,8.5c-.1,2.1,1.2,4.2,3.9,5.7l17.1,10.7c5.2,3,13.7,3,18.9,0l17.1-10.7Z"/>
        <path class="cls-7" d="M443.7,104.3c5.1-3,5.1-7.8,0-10.8l-17.4-10.9c-5.1-3-13.5-3-18.6,0l-17.4,10.9c-5.1,3-5.1,7.8,0,10.8l17.4,10.9c5.1,3,13.5,3,18.6,0l17.4-10.9Z"/>
        <g class="cls-10">
          <path class="cls-2" d="M424.3,91.6l-3.5,2.4c-.5.3-1.1.5-1.8.5-.7,0-1.3-.2-1.8-.5l-3.5-2.3M423.4,91l7.9,5.3c.5.3.7.7.7,1.2,0,.4-.3.9-.7,1.2l-14,9.4c-.5.3-1.1.5-1.8.5-.7,0-1.3-.2-1.8-.5l-10.5-7c-.5-.3-.7-.7-.7-1.2,0-.4.3-.9.7-1.2l11.4-7.7h8.8Z"/>
        </g>
      </g>
      <g class="cls-43">
        <path class="cls-7" d="M151.5,267.8c2.7-1.6,4-3.7,3.9-5.8-.1-1.9,0-9.3,0-9.3l-19.6-5.5c-.9-.2-1.7-.6-2.5-1-4.9-2.2-11.8-2.2-16.7,0-.7.3-1.4.7-2.2.9l-19.9,6.3s.1,6.6,0,8.5c-.1,2.1,1.2,4.2,3.9,5.7l17.1,10.7c5.2,3,13.7,3,18.9,0l17.1-10.7Z"/>
        <path class="cls-7" d="M151.7,259.3c5.1-3,5.2-7.8,0-10.8l-17.4-10.9c-5.1-3-13.5-3-18.6,0l-17.4,10.9c-5.1,3-5.1,7.8,0,10.8l17.4,10.9c5.1,3,13.5,3,18.6,0l17.4-10.9Z"/>
        <g class="cls-17">
          <path class="cls-2" d="M132.3,246.6l-3.5,2.4c-.5.3-1.1.5-1.8.5-.7,0-1.3-.2-1.8-.5l-3.5-2.3M131.4,246l7.9,5.3c.5.3.7.7.7,1.2,0,.4-.3.9-.7,1.2l-14,9.4c-.5.3-1.1.5-1.8.5-.7,0-1.3-.2-1.8-.5l-10.5-7c-.5-.3-.7-.7-.7-1.2,0-.4.3-.9.7-1.2l11.4-7.7h8.8Z"/>
        </g>
      </g>
      <g class="cls-42">
        <path class="cls-7" d="M62.5,242.8c2.7-1.6,4-3.7,3.9-5.8-.1-1.9,0-9.3,0-9.3l-19.6-5.5c-.9-.2-1.7-.6-2.5-1-4.9-2.2-11.8-2.2-16.7,0-.7.3-1.4.7-2.2.9l-19.9,6.3s.1,6.6,0,8.5c-.1,2.1,1.2,4.2,3.9,5.7l17.1,10.7c5.2,3,13.7,3,18.9,0l17.1-10.7Z"/>
        <path class="cls-7" d="M62.7,234.3c5.1-3,5.1-7.8,0-10.8l-17.4-10.9c-5.1-3-13.5-3-18.6,0l-17.4,10.9c-5.1,3-5.1,7.8,0,10.8l17.4,10.9c5.1,3,13.5,3,18.6,0l17.4-10.9Z"/>
        <g class="cls-15">
          <path class="cls-2" d="M43.3,221.6l-3.5,2.4c-.5.3-1.1.5-1.8.5-.7,0-1.3-.2-1.8-.5l-3.5-2.3M42.4,221l7.9,5.3c.5.3.7.7.7,1.2,0,.4-.3.9-.7,1.2l-14,9.4c-.5.3-1.1.5-1.8.5-.7,0-1.3-.2-1.8-.5l-10.5-7c-.5-.3-.7-.7-.7-1.2,0-.4.3-.9.7-1.2l11.4-7.7h8.8Z"/>
        </g>
      </g>
      <g class="cls-43">
        <path class="cls-7" d="M204.5,388.8c2.7-1.6,4-3.7,3.9-5.8-.1-1.9,0-9.3,0-9.3l-19.6-5.5c-.9-.2-1.7-.6-2.5-1-4.9-2.2-11.8-2.2-16.7,0-.7.3-1.4.7-2.2.9l-19.9,6.3s.1,6.6,0,8.5c-.1,2.1,1.2,4.2,3.9,5.7l17.1,10.7c5.2,3,13.7,3,18.9,0l17.1-10.7Z"/>
        <path class="cls-7" d="M204.7,380.3c5.1-3,5.2-7.8,0-10.8l-17.4-10.9c-5.1-3-13.5-3-18.6,0l-17.4,10.9c-5.2,3-5.2,7.8,0,10.8l17.4,10.9c5.1,3,13.5,3,18.6,0l17.4-10.9Z"/>
        <g class="cls-16">
          <path class="cls-2" d="M185.3,367.6l-3.5,2.4c-.5.3-1.1.5-1.8.5-.7,0-1.3-.2-1.8-.5l-3.5-2.3M184.4,367l7.9,5.3c.5.3.7.7.7,1.2,0,.4-.3.9-.7,1.2l-14,9.4c-.5.3-1.1.5-1.8.5-.7,0-1.3-.2-1.8-.5l-10.5-7c-.5-.3-.7-.7-.7-1.2,0-.4.3-.9.7-1.2l11.4-7.7h8.8Z"/>
        </g>
      </g>
      <g class="cls-43">
        <path class="cls-7" d="M276.5,315.8c2.7-1.6,4-3.7,3.9-5.8-.1-1.9,0-9.3,0-9.3l-19.6-5.5c-.9-.2-1.7-.6-2.5-1-4.9-2.2-11.8-2.2-16.7,0-.7.3-1.4.7-2.2.9l-19.9,6.3s.1,6.6,0,8.5c-.1,2.1,1.2,4.2,3.9,5.7l17.1,10.7c5.2,3,13.7,3,18.9,0l17.1-10.7Z"/>
        <path class="cls-7" d="M276.7,307.3c5.1-3,5.1-7.8,0-10.8l-17.4-10.9c-5.1-3-13.5-3-18.6,0l-17.4,10.9c-5.2,3-5.2,7.8,0,10.8l17.4,10.9c5.1,3,13.5,3,18.6,0l17.4-10.9Z"/>
        <g class="cls-14">
          <path class="cls-2" d="M257.3,294.6l-3.5,2.4c-.5.3-1.1.5-1.8.5-.7,0-1.3-.2-1.8-.5l-3.5-2.3M256.4,294l7.9,5.3c.5.3.7.7.7,1.2,0,.4-.3.9-.7,1.2l-14,9.4c-.5.3-1.1.5-1.8.5-.7,0-1.3-.2-1.8-.5l-10.5-7c-.5-.3-.7-.7-.7-1.2,0-.4.3-.9.7-1.2l11.4-7.7h8.8Z"/>
        </g>
      </g>
      <g class="cls-43">
        <path class="cls-7" d="M361.5,376.8c2.7-1.6,4-3.7,3.9-5.8-.1-1.9,0-9.3,0-9.3l-19.6-5.5c-.9-.2-1.7-.6-2.5-1-4.9-2.2-11.8-2.2-16.7,0-.7.3-1.4.7-2.2.9l-19.9,6.3s.1,6.6,0,8.5c-.1,2.1,1.2,4.2,3.9,5.7l17.1,10.7c5.2,3,13.7,3,18.9,0l17.1-10.7Z"/>
        <path class="cls-7" d="M361.7,368.3c5.1-3,5.1-7.8,0-10.8l-17.4-10.9c-5.1-3-13.5-3-18.6,0l-17.4,10.9c-5.1,3-5.1,7.8,0,10.8l17.4,10.9c5.1,3,13.5,3,18.6,0l17.4-10.9Z"/>
        <g class="cls-11">
          <path class="cls-2" d="M342.3,355.6l-3.5,2.4c-.5.3-1.1.5-1.8.5-.7,0-1.3-.2-1.8-.5l-3.5-2.3M341.4,355l7.9,5.3c.5.3.7.7.7,1.2,0,.4-.3.9-.7,1.2l-14,9.4c-.5.3-1.1.5-1.8.5-.7,0-1.3-.2-1.8-.5l-10.5-7c-.5-.3-.7-.7-.7-1.2,0-.4.3-.9.7-1.2l11.4-7.7h8.8Z"/>
        </g>
      </g>
      <g class="cls-43">
        <path class="cls-7" d="M348.5,462.8c2.7-1.6,4-3.7,3.9-5.8-.1-1.9,0-9.3,0-9.3l-19.6-5.5c-.9-.2-1.7-.6-2.5-1-4.9-2.2-11.8-2.2-16.7,0-.7.3-1.4.7-2.2.9l-19.9,6.3s.1,6.6,0,8.5c-.1,2.1,1.2,4.2,3.9,5.7l17.1,10.7c5.2,3,13.7,3,18.9,0l17.1-10.7Z"/>
        <path class="cls-7" d="M348.7,454.3c5.1-3,5.1-7.8,0-10.8l-17.4-10.9c-5.1-3-13.5-3-18.6,0l-17.4,10.9c-5.1,3-5.1,7.8,0,10.8l17.4,10.9c5.1,3,13.5,3,18.6,0l17.4-10.9Z"/>
        <g class="cls-8">
          <path class="cls-2" d="M329.3,441.6l-3.5,2.4c-.5.3-1.1.5-1.8.5-.7,0-1.3-.2-1.8-.5l-3.5-2.3M328.4,441l7.9,5.3c.5.3.7.7.7,1.2,0,.4-.3.9-.7,1.2l-14,9.4c-.5.3-1.1.5-1.8.5-.7,0-1.3-.2-1.8-.5l-10.5-7c-.5-.3-.7-.7-.7-1.2,0-.4.3-.9.7-1.2l11.4-7.7h8.8Z"/>
        </g>
      </g>
      <g class="cls-37">
        <path class="cls-7" d="M326.5,244.8c2.7-1.6,4-3.7,3.9-5.8-.1-1.9,0-9.3,0-9.3l-19.6-5.5c-.9-.2-1.7-.6-2.5-1-4.9-2.2-11.8-2.2-16.7,0-.7.3-1.4.7-2.2.9l-19.9,6.3s.1,6.6,0,8.5c-.1,2.1,1.2,4.2,3.9,5.7l17.1,10.7c5.2,3,13.7,3,18.9,0l17.1-10.7Z"/>
        <path class="cls-7" d="M326.7,236.3c5.1-3,5.1-7.8,0-10.8l-17.4-10.9c-5.1-3-13.5-3-18.6,0l-17.4,10.9c-5.1,3-5.1,7.8,0,10.8l17.4,10.9c5.1,3,13.5,3,18.6,0l17.4-10.9Z"/>
        <g class="cls-12">
          <path class="cls-2" d="M307.3,223.6l-3.5,2.4c-.5.3-1.1.5-1.8.5-.7,0-1.3-.2-1.8-.5l-3.5-2.3M306.4,223l7.9,5.3c.5.3.7.7.7,1.2,0,.4-.3.9-.7,1.2l-14,9.4c-.5.3-1.1.5-1.8.5-.7,0-1.3-.2-1.8-.5l-10.5-7c-.5-.3-.7-.7-.7-1.2,0-.4.3-.9.7-1.2l11.4-7.7h8.8Z"/>
        </g>
      </g>
      <g class="cls-41">
        <path class="cls-7" d="M412.5,34.8c2.7-1.6,4-3.7,3.9-5.8-.1-1.9,0-9.3,0-9.3l-19.6-5.5c-.9-.2-1.7-.6-2.5-1-4.9-2.2-11.8-2.2-16.7,0-.7.3-1.4.7-2.2.9l-19.9,6.3s.1,6.6,0,8.5c-.1,2.1,1.2,4.2,3.9,5.7l17.1,10.7c5.2,3,13.7,3,18.9,0l17.1-10.7Z"/>
        <path class="cls-7" d="M412.7,26.3c5.1-3,5.1-7.8,0-10.8l-17.4-10.9c-5.1-3-13.5-3-18.6,0l-17.4,10.9c-5.1,3-5.1,7.8,0,10.8l17.4,10.9c5.1,3,13.5,3,18.6,0l17.4-10.9Z"/>
        <g class="cls-9">
          <path class="cls-2" d="M393.3,13.6l-3.5,2.4c-.5.3-1.1.5-1.8.5-.7,0-1.3-.2-1.8-.5l-3.5-2.3M392.4,13l7.9,5.3c.5.3.7.7.7,1.2,0,.4-.3.9-.7,1.2l-14,9.4c-.5.3-1.1.5-1.8.5-.7,0-1.3-.2-1.8-.5l-10.5-7c-.5-.3-.7-.7-.7-1.2,0-.4.3-.9.7-1.2l11.4-7.7h8.8Z"/>
        </g>
      </g>
      <g class="cls-43">
        <path class="cls-7" d="M260.5,82.8c2.7-1.6,4-3.7,3.9-5.8-.1-1.9,0-9.3,0-9.3l-19.6-5.5c-.9-.2-1.7-.6-2.5-1-4.9-2.2-11.8-2.2-16.7,0-.7.3-1.4.7-2.2.9l-19.9,6.3s.1,6.6,0,8.5c-.1,2.1,1.2,4.2,3.9,5.7l17.1,10.7c5.2,3,13.7,3,18.9,0l17.1-10.7Z"/>
        <path class="cls-7" d="M260.7,74.3c5.1-3,5.1-7.8,0-10.8l-17.4-10.9c-5.1-3-13.5-3-18.6,0l-17.4,10.9c-5.2,3-5.2,7.8,0,10.8l17.4,10.9c5.1,3,13.5,3,18.6,0l17.4-10.9Z"/>
        <g class="cls-20">
          <path class="cls-2" d="M241.3,61.6l-3.5,2.4c-.5.3-1.1.5-1.8.5-.7,0-1.3-.2-1.8-.5l-3.5-2.3M240.4,61l7.9,5.3c.5.3.7.7.7,1.2,0,.4-.3.9-.7,1.2l-14,9.4c-.5.3-1.1.5-1.8.5-.7,0-1.3-.2-1.8-.5l-10.5-7c-.5-.3-.7-.7-.7-1.2,0-.4.3-.9.7-1.2l11.4-7.7h8.8Z"/>
        </g>
      </g>
      <g class="cls-37">
        <path class="cls-7" d="M406.5,300.8c2.7-1.6,4-3.7,3.9-5.8-.1-1.9,0-9.3,0-9.3l-19.6-5.5c-.9-.2-1.7-.6-2.5-1-4.9-2.2-11.8-2.2-16.7,0-.7.3-1.4.7-2.2.9l-19.9,6.3s.1,6.6,0,8.5c-.1,2.1,1.2,4.2,3.9,5.7l17.1,10.7c5.2,3,13.7,3,18.9,0l17.1-10.7Z"/>
        <path class="cls-7" d="M406.7,292.3c5.1-3,5.1-7.8,0-10.8l-17.4-10.9c-5.1-3-13.5-3-18.6,0l-17.4,10.9c-5.1,3-5.1,7.8,0,10.8l17.4,10.9c5.1,3,13.5,3,18.6,0l17.4-10.9Z"/>
        <g class="cls-21">
          <path class="cls-2" d="M387.3,279.6l-3.5,2.4c-.5.3-1.1.5-1.8.5-.7,0-1.3-.2-1.8-.5l-3.5-2.3M386.4,279l7.9,5.3c.5.3.7.7.7,1.2,0,.4-.3.9-.7,1.2l-14,9.4c-.5.3-1.1.5-1.8.5-.7,0-1.3-.2-1.8-.5l-10.5-7c-.5-.3-.7-.7-.7-1.2,0-.4.3-.9.7-1.2l11.4-7.7h8.8Z"/>
        </g>
        <path class="cls-7" d="M406.5,293.1c2.7-1.5,4-3.6,3.9-5.6-.1-1.9,0-9.1,0-9.1l-19.6-5.3c-.9-.2-1.7-.6-2.5-1-4.9-2.2-11.8-2.2-16.7,0-.7.3-1.4.6-2.2.9l-19.9,6.2s.1,6.4,0,8.3c-.1,2,1.2,4.1,3.9,5.6l17.1,10.5c5.2,3,13.7,3,18.9,0l17.1-10.5Z"/>
        <path class="cls-7" d="M406.7,284.7c5.1-2.9,5.1-7.7,0-10.6l-17.4-10.7c-5.1-2.9-13.5-2.9-18.6,0l-17.4,10.7c-5.1,2.9-5.1,7.7,0,10.6l17.4,10.7c5.1,2.9,13.5,2.9,18.6,0l17.4-10.7Z"/>
        <g class="cls-22">
          <path class="cls-2" d="M387.3,272.3l-3.5,2.3c-.5.3-1.1.5-1.8.5-.7,0-1.3-.2-1.8-.5l-3.5-2.3M386.4,271.7l7.9,5.2c.5.3.7.7.7,1.1,0,.4-.3.8-.7,1.2l-14,9.2c-.5.3-1.1.5-1.8.5-.7,0-1.3-.2-1.8-.5l-10.5-6.9c-.5-.3-.7-.7-.7-1.1,0-.4.3-.8.7-1.2l11.4-7.5h8.8Z"/>
        </g>
        <path class="cls-7" d="M406.5,272.1c2.7-1.5,4-3.6,3.9-5.6-.1-1.9,0-9.1,0-9.1l-19.6-5.3c-.9-.2-1.7-.6-2.5-1-4.9-2.2-11.8-2.2-16.7,0-.7.3-1.4.6-2.2.9l-19.9,6.2s.1,6.4,0,8.3c-.1,2,1.2,4.1,3.9,5.6l17.1,10.5c5.2,3,13.7,3,18.9,0l17.1-10.5Z"/>
        <path class="cls-7" d="M406.7,263.7c5.1-2.9,5.1-7.7,0-10.6l-17.4-10.7c-5.1-2.9-13.5-2.9-18.6,0l-17.4,10.7c-5.1,2.9-5.1,7.7,0,10.6l17.4,10.7c5.1,2.9,13.5,2.9,18.6,0l17.4-10.7Z"/>
        <g class="cls-23">
          <path class="cls-2" d="M368.9,262.3l3.5-2.3c1-.8,2.4-1.3,3.9-1.4-2.6-1.7-3.5-4.6-.4-6.6,1-.8,2.4-1.3,3.9-1.4.8-.8,1.8-1.5,3.1-2,0,0,.9.6,1.3,2.6,2.8,1.2,5.1,2.8,7,4.6,3.1.3,3.9.9,3.9.9-.7.8-1.8,1.5-3.1,2-.2,1-1,1.9-2.2,2.6-3.1,2-7.4,1.5-10.1-.3,0,.5-.3,1-.7,1.4-.4.4-.9.8-1.5,1.2M377.6,263.4l-3.5,2.3M377.6,263.4c2.2,3.7,6.1,1.7,7.9,2.9"/>
        </g>
        <path class="cls-7" d="M455.5,388.1c2.7-1.5,4-3.6,3.9-5.6-.1-1.9,0-9.1,0-9.1l-19.6-5.3c-.9-.2-1.7-.6-2.5-1-4.9-2.2-11.8-2.2-16.7,0-.7.3-1.4.6-2.2.9l-19.9,6.2s.1,6.4,0,8.3c-.1,2,1.2,4.1,3.9,5.6l17.1,10.5c5.2,3,13.7,3,18.9,0l17.1-10.5Z"/>
        <path class="cls-7" d="M455.7,379.7c5.1-2.9,5.1-7.7,0-10.6l-17.4-10.7c-5.1-2.9-13.5-2.9-18.6,0l-17.4,10.7c-5.1,2.9-5.1,7.7,0,10.6l17.4,10.7c5.1,2.9,13.5,2.9,18.6,0l17.4-10.7Z"/>
        <g class="cls-24">
          <path class="cls-2" d="M417.9,378.3l3.5-2.3c1-.8,2.4-1.3,3.9-1.4-2.6-1.7-3.5-4.6-.4-6.6,1-.8,2.4-1.3,3.9-1.4.8-.8,1.8-1.5,3.1-2,0,0,.9.6,1.3,2.6,2.8,1.2,5.1,2.8,7,4.6,3.1.3,3.9.9,3.9.9-.7.8-1.8,1.5-3.1,2-.2,1-1,1.9-2.2,2.6-3.1,2-7.4,1.5-10.1-.3,0,.5-.3,1-.7,1.4-.4.4-.9.8-1.5,1.2M426.6,379.4l-3.5,2.3M426.6,379.4c2.2,3.7,6.1,1.7,7.9,2.9"/>
        </g>
      </g>
      <g class="cls-37">
        <path class="cls-7" d="M454.7,217.1c2.7-1.5,4-3.6,3.9-5.6-.1-1.9,0-9.1,0-9.1l-19.4-5.3c-.9-.2-1.7-.6-2.5-1-4.8-2.2-11.7-2.2-16.5,0-.7.3-1.4.6-2.1.9l-19.6,6.2s.1,6.4,0,8.3c-.1,2,1.2,4.1,3.9,5.6l16.8,10.5c5.2,3,13.5,3,18.7,0l16.8-10.5Z"/>
        <path class="cls-7" d="M454.8,208.7c5.1-2.9,5.1-7.7,0-10.6l-17.1-10.7c-5.1-2.9-13.3-2.9-18.4,0l-17.1,10.7c-5.1,2.9-5.1,7.7,0,10.6l17.1,10.7c5.1,2.9,13.3,2.9,18.4,0l17.1-10.7Z"/>
        <g class="cls-25">
          <path class="cls-4" d="M438.6,200.5c.2.3.4.7.6,1.1.4,0,1.2,0,1.2,0,.5,3.6-1.8,6.3-5.1,7.8-.7.3-1.4.6-2.1.9-5.5,1.7-12,0-14.4-3.6-.2-.4-.4-.7-.6-1.1-.4,0-1.3.1-1.3,0-.5-3.9,2.4-6.8,6.2-8.3.4-.1.7-.3,1.1-.4,5.5-1.7,12,0,14.4,3.6ZM431.7,214.3c0-.7,0-1.5,0-1.9.8-.1,1.5-.3,2.2-.5,6.3-1.9,9.1-6.4,8.2-10.6-.7-2.3-2.4-4.5-5.1-6.1,0,0-4.9-3.3-12.2-2.2.1.6.3,1.3.4,1.8-.8.1-1.6.3-2.3.6-7.1,2.2-10.4,7.6-7.3,12.2,0,0,1.6,2.9,5.4,4.8,0,0,4.8,2.7,10.7,1.9Z"/>
        </g>
        <g class="cls-38">
          <g class="cls-19">
            <path class="cls-4" d="M209.6,204c.2.3.4.7.6,1.1.4,0,1.2,0,1.2,0,.5,3.6-1.8,6.3-5.1,7.8-.7.3-1.4.6-2.1.9-5.5,1.7-12,0-14.4-3.6-.2-.4-.4-.7-.6-1.1-.4,0-1.3.1-1.3,0-.5-3.9,2.4-6.8,6.2-8.3.4-.1.7-.3,1.1-.4,5.5-1.7,12,0,14.4,3.6ZM202.7,217.7c0-.7,0-1.5,0-1.9.8-.1,1.5-.3,2.2-.5,6.3-1.9,9.1-6.4,8.2-10.6-.7-2.3-2.4-4.5-5.1-6.1,0,0-4.9-3.3-12.2-2.2.1.6.3,1.3.4,1.8-.8.1-1.6.3-2.3.6-7.1,2.2-10.4,7.6-7.3,12.2,0,0,1.6,2.9,5.4,4.8,0,0,4.8,2.7,10.7,1.9Z"/>
          </g>
        </g>
      </g>
      <g class="cls-36">
        <path class="cls-7" d="M280.5,392.8c2.7-1.6,4-3.7,3.9-5.8-.1-1.9,0-9.3,0-9.3l-19.6-5.5c-.9-.2-1.7-.6-2.5-1-4.9-2.2-11.8-2.2-16.7,0-.7.3-1.4.7-2.2.9l-19.9,6.3s.1,6.6,0,8.5c-.1,2.1,1.2,4.2,3.9,5.7l17.1,10.7c5.2,3,13.7,3,18.9,0l17.1-10.7Z"/>
        <path class="cls-7" d="M280.7,384.3c5.1-3,5.1-7.8,0-10.8l-17.4-10.9c-5.1-3-13.5-3-18.6,0l-17.4,10.9c-5.2,3-5.2,7.8,0,10.8l17.4,10.9c5.1,3,13.5,3,18.6,0l17.4-10.9Z"/>
        <g class="cls-18">
          <g>
            <path class="cls-4" d="M261.9,372.8h.4s0-.3,0-.5c0-.2.1-.5.1-.5h-.4s-.1.3-.1.5c0,.2,0,.5,0,.5ZM251.2,378.1s.3,0,.5,0c.2,0,.4.1.5.1l.3-.5,1.2.3-.5.7c.1.1.6.5,1,1.1.5.8.6,1.6.6,1.6v.2s-.6-.4-.6-.4h0s-.2-.8-.4-1.1c0,0-.1-.2-.2-.3,0,.2.2.4.2.5,0,.2.2.6.2.6v.2c0,0-.6-.4-.6-.4h0s-.5-1.1-.9-1.5h-.1c0-.2-.2-.3-.3-.4-.1,0-.3-.2-.7-.4-.4-.2-.7-.3-.7-.3h-.3c0,0,.7-.2.7-.2h0s0,0,0,0ZM265.5,379.1h0s0,1.1,0,1.1h0c-.1,0-.2.2-.4.2-.1,0-.3,0-.5,0-.3,0-.6,0-.9-.2h0c-.2-.2-.4-.4-.4-.6,0-.2.1-.4.3-.6.2-.2.5-.3.9-.3.3,0,.6,0,.9.2ZM263.9,380.2h0c.1,0,.2.1.4.2,0,0-.1,0-.2-.1,0,0,0-.1,0-.2,0,0,0-.1,0-.2,0,0,.1-.1.2-.2.1,0,.3,0,.5,0,.2,0,.3,0,.4.1.1,0,.2.2.1.3,0,.1,0,.2-.2.3.1,0,.2,0,.3-.1v-1c-.5-.2-1.1-.2-1.5,0-.4.3-.4.7,0,1h0ZM259,372.5h.4c0,0,.1.5.1.5h.6c0,0,.1.3.1.3h-.6c0,0,.1.3.1.3h-.4c0,0-.1-.5-.1-.5h-.6c0,0-.1-.3-.1-.3h.6M237.2,376.1c.4,0,.7,0,1.1,0,.8,0,1.7,0,2.5,0,1,0,2,0,3-.2.4,0,.9,0,1.3-.1.6,0,1.1-.2,1.6-.3.6-.1,1.1-.3,1.7-.5-.4,0-.8,0-1.2,0,.2-.1.3-.3.5-.4l.3-.2s0,0,0,0c0,0,0,0,.1,0,.2,0,.5,0,.7,0,.3,0,.7,0,1,0h.3s0,0,.1,0c0,0,.1,0,.2,0l.6-.2c-.8-.2-1.6-.2-2.4-.2.3-.2.6-.4.9-.6,0,0,0,0,.1,0,0,0,0,0,0,0,.2,0,.4,0,.6,0,.3,0,.5,0,.8,0,.2,0,.5,0,.7,0,0,0,0,0,.1,0h0c0-.1,0-.1,0-.1h-.2c-.5-.2-1-.3-1.5-.4.5-.2,1-.3,1.6-.5,1-.2,2.1-.3,3.1-.4.7,0,1.4,0,2.1,0,.4,0,.7,0,1.1,0,.2,0,.3,0,.5,0,0,0,.1,0,.2,0,.3,0,.6,0,.9,0-.3,0-.6-.1-.9-.2.3,0,.6,0,.9,0,.4,0,.8.2,1.2.3,0-.1,0-.3,0-.4,0-.1,0-.3,0-.4,0-.2,0-.3,0-.5l1.6.2h.7c-.1.3-.2.5-.2.8,0,.2,0,.4,0,.7,0,.2,0,.4,0,.6,0,0,0,.1,0,.2,0,0,0,0,.1,0h.2c.3.3.5.5.7.7,0,0,0,0,.1.1h.2c.1.2.3.2.4.3.3.2.5.3.7.5.2.2.4.3.5.5.2.2.3.4.3.6,0,.2,0,.4,0,.6,0,.2-.2.4-.4.5.1,0,.2.2.3.2.3.3.6.5.9.8.3.4.5.8.5,1.2,0,.2,0,.4,0,.7,0,0,0,0,0,0,0,0,0,0,0,0,0,0,0,0,0,0v.2c-.2.3-.3.5-.5.8h0c0,0,0,0,0,0,0,0-.1,0-.2.1h0c0,0,0,0,0,0h0c0,.1.2.2.3.3,0,0,.1.2.2.3,0,.1,0,.2,0,.3,0,.4-.1.7-.4,1.1-.2.3-.5.5-.9.7,0,0-.2,0-.3,0-.1,0-.3,0-.4-.1,0,0-.1-.2-.2-.3v-.3c-.3-.4-.6-.8-.9-1.2,0,0-.1,0-.2,0,0,0-.1,0-.2,0-.2,0-.3,0-.5,0-.3,0-.6-.2-.9-.3-.5-.2-1-.5-1.5-.8-.2-.1-.4-.2-.5-.4-.2-.1-.4-.3-.5-.4-.2-.1-.5-.3-.7-.4-.3-.1-.5-.3-.8-.4-.5-.3-1.1-.5-1.6-.7,0,.2-.1.3-.2.5,0,0,0,0,0,0,0,0,0,0,.1,0,0,0,.1,0,.2.1.2.1.3.3.4.5.3.4.4.8.4,1.3,0,.2,0,.5,0,.7,0,0,0,.1,0,.2l-.2-.2s0,0-.1-.1c0,0,0,0,0,0,0-.2,0-.5-.1-.7,0-.1,0-.2-.1-.3,0-.1-.2-.3-.3-.4.1.3.3.6.3.9,0,.2,0,.4,0,.5l-.5-.4s0,0,0,0v-.2c-.1-.1-.2-.2-.2-.3-.1-.2-.2-.4-.3-.6-.1-.2-.3-.4-.4-.6-.2-.2-.3-.3-.6-.4-.4-.2-.8-.3-1.2-.3,0,0,0,0,0,0,0,0,0-.1,0-.1h.4c0,0,0-.1.1-.1h.2c.2,0,.5.1.7.1,0,0,.1,0,.1,0,0,0,0,0,0,0,0,0,0-.1.1-.2,0,0,0-.1,0-.2,0,0,0,0,0,0h-.1c-.3-.1-.6-.2-.8-.3-.3-.1-.6-.2-.9-.4h0c0,0,.2,0,.2,0,0,0,0,0,.1,0h.1c0,0,.2.1.2.2.3.1.6.2.9.3.4.1.9.3,1.3.5.5.2,1,.5,1.5.7.3.1.5.2.8.4.2.1.5.2.7.4.5.3.9.7,1.3,1,.3.2.7.4,1.1.6h0c-.1-.2-.3-.4-.4-.6-.1-.2-.2-.4-.4-.6l-.2-.3c0,0-.1-.2-.1-.3-.1-.4,0-.8.1-1.2,0-.4,0-.8,0-1.1,0-.1-.1-.2-.2-.3.6,0,1.3-.2,1.8-.5h-.1s0,0-.1,0h-.1c-.1.1-.2.1-.3.2-.2,0-.5.1-.7.2-.5.1-1.1.2-1.7.2-1.1,0-2.1,0-3.2.1-.3,0-.5,0-.8,0-.3,0-.6,0-.9,0-.2,0-.5,0-.7,0h-.2s0,0,0,0c-.8-.2-1.6-.4-2.4-.5-.6-.1-1.1-.3-1.7-.4-.3,0-.6-.1-.9-.2,0,0,0,0-.1,0,0,0,0,0,0,0h0c0,0-.2,0-.3.1-.2,0-.3.1-.5.2-1.1.3-2.2.7-3.3.9-.9.2-1.8.3-2.7.5-1.7.3-3.4.6-5.1.8-.3,0-.7.1-1,.1h-.1s.3-1.1.3-1.1v-.3c0,0,0,0,.1-.1h.3c.6-.1,1.3-.2,1.9-.3l1.8-.3h.2s-1.3,0-1.3,0h-2.2c-.2.2-.5.2-.7.2.2-.4.3-.7.5-1.1,0-.1.1-.3.2-.4M263,372.7c0-.3,0-.7.1-1l-1.7-.3h-.3c0,.3,0,.6,0,.9,0,0,0,0,0,.1,0,0,0,0,0,0h0c0,0,0,0,0,0,.5.2,1,.4,1.4.6.2.1.4.2.6.3,0-.3,0-.6-.1-.9ZM263.3,374.5c-.1-.2-.3-.4-.5-.5-.4-.3-.8-.6-1.3-.9-.3-.2-.7-.3-1.1-.5v.2s.3,0,.3,0c.1,0,.3.1.4.2.2.1.5.3.7.4.4.3.8.6,1.1.9.2.2.4.5.5.7.1.3.2.5.2.8,0,.3,0,.6-.3.8h0c0,0,0,0,0,0h0s0,0,0,0c.4-.6.5-1.2.2-1.8,0-.2-.2-.4-.3-.5M266.4,377c0-.4,0-.8-.3-1.1-.4-.4-.8-.7-1.2-1,.3.4.6.8.7,1.3.4.4.5.8.4,1.3h0c0,0,.2-.1.3-.2,0,0,0-.1.1-.2M265.6,376.5c0,.2,0,.3,0,.5,0,0,0,.1,0,.2,0,0,.2.1.3.1,0-.3,0-.6-.2-.9ZM267.5,381.2c0-.1.1-.3.2-.4,0,0,0,0,0,0,0,0,0,0,0-.1,0-.3-.2-.6-.2-.9,0-.2-.1-.3-.2-.5,0-.2-.2-.3-.3-.5-.2-.3-.5-.5-.7-.8-.1-.1-.3-.2-.5-.3.1.3.2.6.4.9.1.3.3.6.4.9.1.3.3.6.4.9.1.3.2.6.3,1v.2c.1-.1.2-.2.3-.3ZM263.9,382.4s0,.1.1.1c0,0,.2.1.2.2.2.2.4.3.5.5.3.4.5.8.7,1.2,0,0,0,.2.1.3,0,0,0,0,0,0,0,0,0,0,.1,0,0,0,.2,0,.2,0,.1,0,.2-.1.4-.2.3-.2.5-.4.7-.7,0-.2.2-.4.2-.6,0-.2,0-.4,0-.6-.2-.3-.5-.6-.8-.8,0,0-.1,0-.2-.1,0,0-.2-.1-.3-.2,0,0-.2,0-.3,0-.1,0-.3,0-.4.1-.3.1-.6.2-.8.4-.1,0-.2.1-.3.2,0,0-.1.1-.2.2M263.2,379.6c.1.4.4.7.7,1,0,0,.2.1.2.2,0,0,.2,0,.3.1.2,0,.5.1.7.2,0,0,.2,0,.3,0,0,0,.1,0,.2,0,.2-.1.3-.3.4-.5.1-.3.1-.6,0-.9-.4-.7-1.6-1.1-2.7-1.2h-.1c0,.2,0,.4,0,.5,0,.2,0,.5,0,.7M263,377.1c.6.2,1.2.3,1.8.4-.6-.2-1.1-.4-1.6-.6-.3-.1-.5-.3-.8-.4-.3-.2-.5-.3-.7-.5-.4-.4-.7-.8-.9-1.2-.2-.4-.4-.9-.5-1.3,0-.2-.1-.4-.1-.7,0,0,0-.2,0-.2h0s-.8,0-.8,0c-.5,0-1,0-1.5-.1.5.7,1.1,1.4,1.6,2.1.3.4.6.8,1,1.2.3.3.6.6.9.9.4.3,1,.5,1.6.7M251.8,374.3c0,0-.2,0-.2,0h-.1s0,0,0,0h0c-.2,0-.3.1-.5.2h.7s.1,0,.1,0c0,0,0,0,0,0h0M251.1,375.5h0c0,0,0-.1,0-.1,0,0,0,0,0,0-.2,0-.3,0-.5-.1-.3,0-.6-.1-.9-.2-.2,0-.3,0-.5,0h-.2s-.1,0-.1,0c0,0,0,0-.1,0-.3.1-.7.2-1,.3-.2,0-.5.1-.7.2.6,0,1.2,0,1.8,0,.6,0,1.2,0,1.8,0h.5M242.2,377.1h0c0,.1,0,.1,0,.1h-.1s-.6.1-.6.1l-2,.3-2.1.3h-.7c0,.1-.2.1-.2.1,0,0,0,0,0,0l-.3,1.1s0,0,0,.1c.5,0,1.1-.2,1.6-.2.9-.1,1.8-.3,2.7-.4,1-.2,2-.3,3-.5.9-.2,1.8-.4,2.7-.6.9-.2,1.7-.5,2.6-.8-.6-.2-1.2-.4-1.8-.6-.2,0-.3-.1-.5-.2h0s0,0,0,0c0,0,0,0,.1-.1,0,0,.2-.2.3-.3-.6.1-1.1.2-1.7.3-.5,0-.9.1-1.4.1-1,0-2.1.1-3.1.2-.8,0-1.7,0-2.5,0h-.7s0,0,0,0h0s-.1.3-.1.3l-.4,1h1.1c0,0,2.2-.2,2.2-.2.6,0,1.2,0,1.8-.1h.4"/>
            <g class="cls-3">
              <path class="cls-4" d="M261.9,372.8v.4s-.6,0-.6,0v-.4s.6,0,.6,0ZM262.3,372.8h.6s0,.4,0,.4h-.6s0-.4,0-.4ZM262.3,372.3h-.6s0,0,0,0h.6ZM262.4,371.8v-.4c.1,0,.4,0,.4,0v.2c.1,0-.4.1-.4.1ZM262,371.8h-.6s0-.5,0-.5h.7c0,0-.1.5-.1.5ZM261.9,372.3h.6s0,0,0,0h-.6ZM251.2,378.1h-.6c0,0-.2-.7-.2-.7l1.1.4-.3.4ZM251.7,378.2l.2-.4h0s-.2.4-.2.4ZM252.2,378.3l.5.2-.2.3h-.5c0-.1.2-.5.2-.5ZM252.6,377.9l-.5-.2.2-.3h.5c0,.1-.2.5-.2.5ZM253.8,378.1l.2-.4h.6c0,.1-.3.5-.3.5l-.5-.2ZM253.3,378.8l-.4.3-.3-.2.2-.2.5.2ZM254.2,379.9l-.5.2h0s.5-.2.5-.2ZM254.8,381.5h.6c0-.1,0,0,0,0h0s-.6,0-.6,0ZM254.8,381.7h.6s.1,1,.1,1l-1.1-.7.4-.3ZM254.3,381.3l-.4.3h-.2c0,0,0-.2,0-.2h.6ZM254.3,381.3h-.6s0,0,0,0h0s.6,0,.6,0ZM253.9,380.2l.5-.2h0s-.5.2-.5.2ZM253.7,380h-.6c0,.1,1.1-.2,1.1-.2l-.5.2ZM253.9,380.5h.6c0-.1,0,0,0,0h-.6ZM254.1,381.1h-.6c0,0,0,0,0,0h0s.6,0,.6,0ZM254.2,381.3h.6c0,0,.3,1.1.3,1.1l-1.3-.8.4-.3ZM253.6,380.9l-.4.3h-.1c0,0,0-.2,0-.2h.6ZM253.5,380.9h-.6c0,.1,0,0,0,0h0s.6,0,.6,0ZM252.6,379.4l-.5.2h0s.5-.2.5-.2ZM252.5,379.2l-.5.2h0s.5-.2.5-.2ZM251.5,378.6l-.3.3h0s.3-.3.3-.3ZM250.8,378.3l-.2.4h0s0,0,0,0l.2-.4ZM250.5,378.2l-.2.4-1.9-.5,2-.2v.4ZM251.2,378.1v-.4c0,0,0,0,0,0h.1s-.1.4-.1.4ZM251.2,378.1h.6c0,0,.2.5.2.5h-.9c0-.1.1-.5.1-.5ZM265.5,379.1l.4-.3h0s0,0,0,0l-.4.3ZM265.5,379.1l.4-.3h.2c0,.1,0,.3,0,.3h-.6ZM265.6,380.2h.6s0,.2,0,.2h-.2c0,.1-.4-.2-.4-.2ZM265.5,380.3l-.4-.3h0s0,0,0,0l.4.3ZM264.7,380.5v-.4h0v.4ZM263.8,380.3l-.4.3h0s0,0,0,0l.4-.3ZM263.8,380.3l.4-.3h0s-.4.3-.4.3ZM263.7,379.1l-.4-.3h0s.4.3.4.3ZM263.9,380.2l-.4.3h0s0,0,0,0l.4-.3ZM264.3,380.4l.3-.3-.5.7.2-.4ZM264.3,379.7l-.4-.3h0s.3.3.3.3ZM265.1,380.3l.3.4-.7-.6.4.3ZM265.4,380.2h.6s0,.2,0,.2h-.2c0,.1-.4-.2-.4-.2ZM265.3,379.2l.4-.3h.2c0,.1,0,.3,0,.3h-.6ZM259.4,372.6v-.4c.1,0,.5,0,.5,0v.3c0,0-.5,0-.5,0ZM259.5,373v.4c0,0-.5,0-.5,0v-.3c0,0,.5,0,.5,0ZM260.1,373v-.4c0,0,.5,0,.5,0v.3c0,0-.5,0-.5,0ZM260.2,373.3h.6c0,0,.2.5.2.5h-.9c0,0,0-.5,0-.5ZM259.6,373.3h-.6c0,0-.2-.5-.2-.5h.8c0,0,0,.5,0,.5ZM259.8,373.7h.6c0,0,.2.5.2.5h-.9c0-.1.1-.5.1-.5ZM259.3,373.6v.4c-.1,0-.5,0-.5,0v-.2c0,0,.5,0,.5,0ZM259.2,373.2v-.4c0,0,.5,0,.5,0v.3c0,0-.5,0-.5,0ZM258.6,373.2v.4c0,0-.5,0-.5,0v-.2c-.1,0,.5-.1.5-.1ZM258.5,372.9h-.6c0,.1-.3-.5-.3-.5h.9c0,0,0,.5,0,.5ZM238.3,376.1v.4s0,0,0,0v-.4ZM240.8,376v-.4s0,0,0,0v.4ZM243.8,375.9v-.4c0,0,0,0,0,0v.4ZM245.1,375.7v.4c.1,0,.1,0,.1,0v-.4ZM246.8,375.4l-.2-.4h0s.2.4.2.4ZM248.5,374.9v-.4s.2.8.2.8l-.2-.4ZM247.3,375v.4c0,0-1.4.1-1.4.1l.9-.7.5.2ZM247.8,374.5l-.4-.3h0s.4.3.4.3ZM248.1,374.3l-.4-.3h0s0,0,0,0l.4.3ZM248.2,374.3l.2.4h0s0,0,0,0v-.4ZM248.3,374.3v.4s0,0,0,0v-.4ZM249,374.3v.4h0v-.4ZM250,374.3v-.4h0v.4ZM250.3,374.3v.4h0s0-.4,0-.4ZM250.4,374.3v.4h0s0-.4,0-.4ZM250.6,374.3l.3.4h0s-.3-.4-.3-.4ZM251.1,374.1l.2-.4,1.3.3-1.2.4-.3-.4ZM248.7,373.9v.4s-1.4,0-1.4,0l1-.7.4.3ZM249.6,373.3l.4.3h0s0,0,0,0l-.4-.3ZM249.7,373.2v.4c.1,0,.1,0,.1,0h0s0-.4,0-.4ZM249.8,373.2v-.4c-.1,0,0,0,0,0h0s0,.4,0,.4ZM250.4,373.2v.4c0,0,0,0,0,0h0s0-.4,0-.4ZM251.2,373.3v.4c0,0,0,0,0,0v-.4ZM251.9,373.4v.4s0,0,0,0h0s0-.4,0-.4ZM252,373.4h-.6c0-.1,0-.1,0-.1h0s.6.1.6.1ZM252,373.3h.6c0,.1,0,.1,0,.1h0s-.6-.1-.6-.1ZM252,373.3l-.2.4h0s0,0,0,0l.3-.4ZM251.8,373.2l.2-.4h0s0,0,0,0l-.3.4ZM250.3,372.9v.4c-.1,0-1.7-.2-1.7-.2l1.4-.5.3.3ZM251.9,372.4l.2.4h0s-.2-.4-.2-.4ZM255,372.1v.4s0,0,0,0v-.4ZM257.1,372.1v.4h0v-.4ZM258.2,372.2v-.4c.1,0,.1,0,.1,0v.4ZM258.7,372.2v.4c-.1,0-.1,0-.1,0h0s.2-.4.2-.4ZM258.9,372.3v-.4s0,0,0,0v.4ZM259.8,372.3l.2-.4-.3.8v-.4ZM258.9,372.1l-.2.4v-.8s.2.4.2.4ZM259.7,372.2l.2-.4h0s-.2.4-.2.4ZM260.9,372.5h.6s0,.7,0,.7l-.8-.3.3-.3ZM260.9,372.1h.6s-.6,0-.6,0ZM260.9,371.7h.6s-.6,0-.6,0ZM261,371.2h-.6s0-.5,0-.5h.6c0,0-.1.5-.1.5ZM262.7,371.5v.4h-.1v-.4ZM263.3,371.6v-.4c.1,0,.8,0,.8,0l-.2.4h-.6ZM263.1,372.3h.6s-.6,0-.6,0ZM263.2,372.9h.6s0,0,0,0h-.6ZM263.3,373.5h.6s0,0,0,0h-.6ZM263.3,373.7h.6c0,0,0,0,0,0h0s-.6,0-.6,0ZM263.6,373.9l.4-.3h0s-.4.3-.4.3ZM264.3,374.5l.5-.2h0s-.5.2-.5.2ZM264.5,374.6l-.4.3h0s.4-.3.4-.3ZM264.7,374.7l-.4.3h0l.4-.3ZM265,374.9l-.4.3h0s.4-.3.4-.3ZM265.8,375.4l-.4.3h0s.4-.3.4-.3ZM266.3,375.9l.5-.2h0s-.5.2-.5.2ZM266.6,376.5h-.6c0,0,0,0,0,0h.6ZM266.2,377.6l-.5.3-.3-.2.3-.2.5.2ZM266.5,377.9l-.4.3h0l.4-.3ZM267.4,378.7l-.5.2h0s.5-.2.5-.2ZM267.9,379.9h.6s0,0,0,0h-.6ZM267.9,380.6h-.6s0,0,0,0h.6ZM267.8,380.7h.6c0,0,0,0,0,0h0s-.6,0-.6,0ZM267.9,380.7h-.6c0,0,0-.1,0-.1h0s.6.1.6.1ZM267.8,380.8h.6c0,0,0,0,0,0h0s-.6,0-.6,0ZM267.8,381h.6c0,0,0,0,0,0h0s-.6,0-.6,0ZM267.3,381.8l-.5-.2h0s.5.2.5.2ZM267.2,381.9l.5.2-.7,1.1-.4-1.1h.6ZM267.2,381.8l-.5-.2.8-.7.3.9h-.6ZM267.1,382l.5.3h0s-.4-.3-.4-.3ZM267,382l.4.3h0s0,0,0,0l-.4-.3ZM266.9,382.1l-.5.2-.3-.3.3-.2.4.3ZM267,382.1l-.5.2h0s.5-.2.5-.2ZM267.2,382.4l.5-.2h0s-.5.2-.5.2ZM267.4,382.7h.6c0,0,0,0,0,0h-.6ZM267.5,383h.6s0,0,0,0h-.6ZM267.1,384.1l-.5-.2h0s.5.2.5.2ZM266.2,384.7l-.3-.3h0l.3.3ZM265.8,384.8v.4c.1,0,0,0,0,0h0s0-.4,0-.4ZM265.5,384.7l-.5.2h0s.5-.2.5-.2ZM265.3,384.4h.6c0-.1,0-.1,0-.1h-.6ZM265.2,384.1h.6c0-.1,0-.1,0-.1h-.6ZM264.4,382.9l.5-.2h0s-.5.2-.5.2ZM264.2,382.9v.4h0v-.4ZM264,382.9v.4c-.1,0-.1,0-.1,0v-.4ZM263.5,382.8l-.2.4h0s.2-.4.2-.4ZM262.6,382.5l.3-.3h0s-.3.3-.3.3ZM261.1,381.7l.4-.3h0s-.4.3-.4.3ZM260.6,381.3l-.4.3h0s.4-.3.4-.3ZM260,380.9l-.4.3h0s.4-.3.4-.3ZM259.3,380.5l.4-.3h0s-.4.3-.4.3ZM258.6,380.1l.3-.3h0s-.3.3-.3.3ZM257,379.3h-.6c0,0,.2-.6.2-.6l.7.3-.3.3ZM256.8,379.9h-.6c0,0,0,0,0,0h.6ZM256.9,379.9l-.4.3h0s0,0,0,0l.4-.3ZM257,380l-.4.3h0s0,0,0,0l.4-.3ZM257.2,380.1l-.5.2h0s.5-.2.5-.2ZM257.6,380.6l.5-.2h0s-.5.2-.5.2ZM258,381.8h-.6s0,0,0,0h.6ZM258,382.6h.6c0,0,0,0,0,0h-.6ZM257.9,382.8h.6c0,0-.3,1.1-.3,1.1l-.8-.8.5-.2ZM257.7,382.5l-.5.2h0s0,0,0,0l.5-.2ZM257.6,382.4l-.5.2h0s0,0,0,0l.5-.2ZM257.6,382.4h-.6c0,.1,0,0,0,0h0s.6,0,.6,0ZM257.4,381.6h-.6c0,0,0,0,0,0h.6ZM257.3,381.3h.5c0-.1,0-.1,0-.1h0s-.6.1-.6.1ZM257,380.9h-.6c0,.1,1.1-.2,1.1-.2l-.5.2ZM257.4,381.8h.6s0,0,0,0h-.6ZM257.4,382.4h.6s0,1.3,0,1.3l-1.2-1.1.5-.2ZM256.9,381.9l.4-.3h0s0,0,0,0l-.5.2ZM256.9,381.9h.6c0-.1,0,0,0,0h0s-.6,0-.6,0ZM256.8,381.7h-.6c0,.1,0,.1,0,.1h.6ZM256.7,381.4h.6c0-.1,0-.1,0-.1h-.6ZM256.4,380.8l.5-.2h0l-.5.2ZM255.9,380.2l-.5.2h0s.5-.2.5-.2ZM255.3,379.9l-.3.3h0s.3-.3.3-.3ZM254.1,379.5v-.4c.1,0,.1,0,.1,0h0s-.1.4-.1.4ZM254.1,379.5h.6s0,0,0,0h0s-.6,0-.6,0ZM254.1,379.4l-.2-.4h0s0,0,0,0l.2.4ZM254.5,379.3l-.2-.4h0s.2.4.2.4ZM254.6,379.3v-.4c.1,0,.1,0,.1,0v.4ZM254.8,379.3v-.4c.1,0,.2,0,.2,0l-.2.4ZM255.5,379.4v-.4c0,0,.1,0,.1,0h0s-.1.4-.1.4ZM255.7,379.4l-.4-.3h0s.4.3.4.3ZM255.8,379.3l.5.2h0s-.5-.2-.5-.2ZM255.9,379.1h-.6c0,0,0,0,0,0h0s.6,0,.6,0ZM255.9,378.9h.6s0,0,0,0h0s-.6,0-.6,0ZM255.9,378.9l-.3.4h0s0,0,0,0l.3-.3ZM255.8,378.9l.3-.4h0s0,0,0,0l-.3.3ZM255,378.6l-.3.3h0l.3-.3ZM254.1,378.2l.3-.3h0s-.3.3-.3.3ZM254,378.2l-.3.3.5-.7-.2.4ZM254.3,378.2v.4c0,0,0,0,0,0h0s0-.4,0-.4ZM254.4,378.2l.3-.3h0s0,0,0,0l-.3.3ZM254.5,378.2l-.3.3h0s.3-.3.3-.3ZM254.7,378.3l.3-.3h0s0,0,0,0l-.3.3ZM255.6,378.7l-.3.4h0l.3-.4ZM256.9,379.2l.3-.3h0s-.3.3-.3.3ZM258.4,379.9l-.3.3h0l.3-.3ZM259.2,380.2l.4-.3h0l-.4.3ZM259.9,380.6l.4-.3h0s-.4.3-.4.3ZM261.3,381.6l.4-.3h0l-.4.3ZM262.3,382.2l.4-.3h0s-.4.3-.4.3ZM262.4,382.2l.5-.2-.9.5.4-.3ZM262,381.6l-.5.2h0s.5-.2.5-.2ZM261.6,381l-.5.2h0s.5-.2.5-.2ZM261.4,380.7h-.5c0,.1,0,.1,0,.1h.5ZM261.3,380.4h-.6c0,0,0,0,0,0h.6ZM261.4,379.2h-.6s0,0,0,0h.6ZM261.3,378.1h.6c0-.1,0-.1,0-.1h-.6ZM261.1,377.8l-.5.2-.4-.5h.8c0-.1.1.3.1.3ZM262.9,377.3l.2-.4.9.3-.8.4-.4-.3ZM262.8,377.2l-.2.4h0s0,0,0,0l.3-.4ZM262.7,377.2l-.3-.3h0s0,0,0,0l.3.3ZM262.6,377.3l.3.3h0s0,0,0,0l-.3-.3ZM262.3,377.4l.2.4h0s-.2-.4-.2-.4ZM261.5,377.6l-.2-.4h0s.2.4.2.4ZM259.9,377.8v-.4c0,0,0,0,0,0v.4ZM256.7,377.9v-.4s0,0,0,0v.4ZM255.9,377.9v.4h0v-.4ZM255,378v.4c0,0,0,0,0,0v-.4ZM254.3,378.1v-.4c0,0,0,0,0,0v.4ZM254.1,378.1v.4c0,0,0,0,0,0h0s0-.4,0-.4ZM254,378l.2-.4h0s0,0,0,0l-.2.4ZM251.7,377.5l-.2.4h0s.2-.4.2-.4ZM250,377.1l.2-.4h0l-.2.4ZM249.1,376.9l.2-.4h0s0,0,0,0l-.2.4ZM248.9,376.8v-.4c.1,0,.2,0,.2,0h0s-.3.4-.3.4ZM248.9,376.8l-.3-.4h.2c0,0,.3,0,.3,0l-.2.4ZM248.8,376.9l.3.4h0s0,0,0,0l-.2-.4ZM248.6,376.9l.3.4h0s-.3-.4-.3-.4ZM248.1,377.1l-.2-.4h0s.2.4.2.4ZM244.7,378l.2.4h0s-.2-.4-.2-.4ZM242.1,378.5v.4c.1,0,.1,0,.1,0v-.4ZM236.9,379.3v.4c.1,0,.1,0,.1,0v-.4ZM236,379.5v.4c.1,0,.1,0,.1,0v-.4ZM235.8,379.5v.4c.1,0-.7.1-.7.1l.2-.6h.6ZM236.1,378.4h-.6c0,0,0,0,0,0h.6ZM236.2,378.1h.6s0,0,0,0h0s-.6,0-.6,0ZM236.2,378h-.6c0-.1.1-.3.1-.3h.3s.1.3.1.3ZM236.6,377.9v.4c.1,0,.1,0,.1,0v-.4ZM238.5,377.6v-.4c-.1,0-.1,0-.1,0v.4ZM240.4,377.4v.4c.1,0,.1,0,.1,0v-.4ZM240.6,377.3v-.4c0,0,.1.8.1.8v-.4ZM239.3,377.4v.4c0,0,0,0,0,0v-.4ZM237.2,377.6v.4c0,0,0,0,0,0v-.4ZM236.5,377.6v.4c0,0-.8,0-.8,0l.2-.6h.6ZM237,376.5h-.6c0-.1,0-.1,0-.1h.6ZM263,372.7h.6s0,0,0,0h-.6ZM263.1,371.7v-.4c.1,0,.7,0,.7,0l-.2.4h-.6ZM261.4,371.4v.4h-.1v-.4ZM261.2,371.4h-.6s0-.5,0-.5h.7c0,0-.1.5-.1.5ZM261.1,372.4h.6s0,0,0,0h-.6ZM261.1,372.5h.6s0,0,0,0h-.6ZM261.1,372.6h.6s0,0,0,0h-.6ZM261.1,372.6l-.3.4h-.4c0-.1,0-.4,0-.4h.6ZM261.2,372.6l-.3.3h0s0,0,0,0l.3-.3ZM262.5,373.3l.4-.3h0s-.4.3-.4.3ZM263.1,373.6h.6s.1.9.1.9l-1.1-.6.4-.3ZM262.8,374l.5-.2h0l-.5.2ZM261.6,373.1l-.4.3h0s.4-.3.4-.3ZM260.5,372.6h-.6s-.1-.7-.1-.7l1,.3-.3.3ZM260.5,372.7l-.3.3h-.3c0-.1,0-.3,0-.3h.6ZM260.7,372.8l.3-.3h0s0,0,0,0l-.3.3ZM261.2,373l.3-.3h0s-.3.3-.3.3ZM261.9,373.4l.4-.3h0l-.4.3ZM263,374.3l-.5.2h0s.5-.2.5-.2ZM263.4,375h.6c0-.1,0-.1,0-.1h-.6ZM263.6,375.8h-.6s.6,0,.6,0ZM263.4,376.7l.5.2h0s-.5-.2-.5-.2ZM263.3,376.7l.5.2h0s0,0,0,0l-.5-.2ZM263.3,376.8l-.3.3-.4-.2.2-.3.5.2ZM263.4,376.8l.3-.3h0s-.4.3-.4.3ZM263.4,376.8l.5.2-.3.4-.6-.3.4-.3ZM263.6,375h-.6c0,.1,0,.1,0,.1h.6ZM266.1,375.9l.5-.2h0s-.5.2-.5.2ZM264.8,375l-.5.2.9-.5-.4.3ZM265.6,376.2l-.5.2h0c0,0,0-.1,0-.1h.6ZM266,377.5l-.4.3h-.2c0-.1,0-.3,0-.3h.6ZM266.1,377.5l.5.2-.4.4-.5-.3.4-.3ZM266.3,377.2l-.5-.2h0s0,0,0,0l.5.2ZM265.6,376.5h-.6s1.1-.2,1.1-.2l-.5.2ZM265.5,377h.6c0,0,0,0,0,0h0s-.6,0-.6,0ZM265.5,377.3h-.6c0,.1,0,.1,0,.1h.6ZM265.8,377.4h.6s0,.6,0,.6l-.8-.3.3-.3ZM267.5,381.2h-.6c0-.1,0-.1,0-.1h.6ZM267.7,380.7h-.6c0,0,0,0,0,0h.6ZM267.7,380.7h.6c0,0,0,0,0,0h0s-.6,0-.6,0ZM267.6,380.5h.6c0,0,0,0,0,0h0s-.6,0-.6,0ZM267.4,379.6h.6c0,0,0,0,0,0h-.6ZM267.2,379.1h-.6c0,.1,0,.1,0,.1h.6ZM266.9,378.6l.5-.2h0s-.5.2-.5.2ZM266.2,377.8l.5-.2h0s-.5.2-.5.2ZM265.7,377.5h-.6c0,.1-.4-.8-.4-.8l1.3.5-.3.3ZM266.1,378.4h.6c0-.1,0-.1,0-.1h-.6ZM266.5,379.4h.6c0-.1,0-.1,0-.1h-.6ZM266.9,380.3h-.6c0,0,0,0,0,0h.6ZM267.2,381.2h.6c0,0,0,0,0,0h-.6ZM267.3,381.5l.5.2-.7,1.1-.4-1.1h.6ZM264.1,382.5l-.4.3h0s.4-.3.4-.3ZM264.3,382.7l.4-.3h0s-.4.3-.4.3ZM264.9,383.2l-.5.2h0l.5-.2ZM265.5,384.4h.6c0-.1,0-.1,0-.1h-.6ZM265.7,384.6l.5-.2h0s-.5.2-.5.2ZM265.9,384.7l.2.4h0s0,0,0,0v-.4ZM266.1,384.6l-.4-.3h0s0,0,0,0l.3.3ZM266.4,384.4l-.4-.3h0s.4.3.4.3ZM267.1,383.7h-.6c0-.1,0-.1,0-.1h.6ZM267.3,383.2h-.6s0,0,0,0h.6ZM267.2,382.6h.5c0-.1,0-.1,0-.1h-.6ZM266.4,381.8l-.4.3h0s.4-.3.4-.3ZM265.9,381.5l-.2.4h0s.2-.4.2-.4ZM265.6,381.5l.2.4h0s-.2-.4-.2-.4ZM265.2,381.6l.3.3h0l-.3-.3ZM264.4,382l.4.3h0l-.4-.3ZM264.1,382.2l-.5-.2h0s.5.2.5.2ZM263.9,380.6l-.5.2h0s0,0,0,0l.5-.2ZM264.1,380.8l-.4.3h0s.4-.3.4-.3ZM264.4,380.9l.3-.3h0s-.3.3-.3.3ZM265.1,381.1l.2-.4h0s-.2.4-.2.4ZM265.4,381.1l.2.4h0s0,0,0,0v-.4ZM265.6,381l-.5-.2h0s0,0,0,0l.4.3ZM266,380.5h.6c0,.1,0,.1,0,.1h-.6ZM265.9,379.6h-.5c0,.1,0,.1,0,.1h.5ZM263.2,378.3v-.4c0,0,0,0,0,0h0s-.1.4-.1.4ZM263.1,378.3h-.6s0-.4,0-.4h.6c0,0,0,.4,0,.4ZM263.1,378.9h.6s0,0,0,0h-.6ZM264.8,377.5l.2-.4-.3.8v-.4ZM263.2,376.9l-.4.3h0l.4-.3ZM262.5,376.5l-.4.3h0s.4-.3.4-.3ZM261.8,376l-.5.2h0s.5-.2.5-.2ZM260.9,374.7h.6c0-.1,0-.1,0-.1h-.6ZM260.4,373.4h.6c0,0,0,0,0,0h-.6ZM260.3,372.7h.6c0,0,0,0,0,0h0s-.6,0-.6,0ZM260.3,372.5v-.4c0,0,0,0,0,0h0s-.1.4-.1.4ZM260.2,372.5v-.4c0,0,0,0,0,0v.4ZM259.4,372.4v-.4h0v.4ZM257.9,372.3l-.5.2-.5-.7h1.1c0,0,0,.5,0,.5ZM259.5,374.5l.5-.2h0s-.5.2-.5.2ZM260.5,375.6l.5-.2h0s-.5.2-.5.2ZM261.4,376.5l-.4.3h0s.4-.3.4-.3ZM251.5,374.2l.3-.4h0s0,0,0,0l-.3.4ZM251.4,374.2l.2-.4h0s0,0,0,0l-.3.4ZM251.4,374.1l-.3-.4h.2c0,0,.2,0,.2,0l-.2.4ZM251.3,374.2l-.3-.3h0s0,0,0,0l.3.4ZM250.8,374.3v.4c0,0-2.1-.1-2.1-.1l1.9-.6.3.4ZM251.5,374.4v-.4h0v.4ZM251.7,374.4v-.4c0,0,0,0,0,0h0s0,.4,0,.4ZM251.7,374.4h-.6c0,0,0-.1,0-.1h0s.6.1.6.1ZM251.1,375.5h.6c0,0,0,.1,0,.1h-.6ZM251.1,375.4h.6c0,0,0,0,0,0h0s-.6,0-.6,0ZM251.1,375.4l-.2.4h0s0,0,0,0l.2-.4ZM250.6,375.3l-.2.4h0s.2-.4.2-.4ZM249.7,375.1v-.4c.1,0,.1,0,.1,0v.4ZM249.2,375v-.4c.1,0,.1,0,.1,0v.4ZM249,375v-.4c0,0,0,0,0,0h0s-.1.4-.1.4ZM248.9,375v-.4c0,0,0,0,0,0h0v.4ZM248.8,375l-.2-.4h0s0,0,0,0l.2.4ZM247.7,375.3l-.2-.4h0s.2.4.2.4ZM247,375.5v.4c0,0-.2-.8-.2-.8l.2.4ZM248.8,375.4v.4h0v-.4ZM250.6,375.5v-.4h0v.4ZM242.2,377.2h.6c0,0,0,.3,0,.3h-.5c0,.1-.2-.3-.2-.3ZM242.2,377.2l.2.4h0s0,0,0,0v-.4ZM242.1,377.3v-.4c-.1,0-.1,0-.1,0v.4ZM241.4,377.3v-.4c-.1,0-.1,0-.1,0v.4ZM239.4,377.6v.4h.1v-.4ZM237.3,377.9v-.4h-.1v.4ZM236.7,378v-.4c-.1,0-.1,0-.1,0v.4ZM236.5,378.1v.4c.1,0,.1,0,.1,0h0s0-.4,0-.4ZM236.4,378.1h-.6c0,0,0-.3,0-.3h.3c0,0,.2.3.2.3ZM236.1,379.2h-.6c0,0,0,0,0,0h.6ZM236,379.3v.4c.1,0-.8.1-.8.1l.2-.6h.6ZM237.7,379.1v.4c.1,0,.1,0,.1,0v-.4ZM240.4,378.7v-.4c-.1,0-.1,0-.1,0v.4ZM243.3,378.1l-.2-.4h0s.1.4.1.4ZM246.1,377.5l.2.4h0s-.2-.4-.2-.4ZM248.7,376.8l.2-.4,1.2.3-1.1.4-.3-.4ZM246.9,376.2l.3-.4h0s-.3.4-.3.4ZM246.4,376l.3-.3h0s-.3.3-.3.3ZM246.3,376l-.3.3h0s0,0,0,0l.4-.3ZM246.4,376l-.5-.2h0s0,0,0,0l.5.2ZM246.5,375.8l.5.2h0s0,0,0,0l-.5-.2ZM246.8,375.5l-.2-.4,1.7-.4-1,1-.5-.2ZM245.1,375.9v.4c.1,0,.1,0,.1,0v-.4ZM243.7,376v-.4c0,0,0,0,0,0v.4ZM240.6,376.2v.4s0,0,0,0v-.4ZM238,376.2v.4s0,0,0,0v-.4ZM237.4,376.2v-.4s0,.4,0,.4ZM237.3,376.2h-.6c0,0,0-.2,0-.2h0c0,0,.5.2.5.2ZM237.3,376.2h.6c0,0,0,.1,0,.1h0s-.6-.1-.6-.1ZM237.2,376.5h-.6c0-.1,0-.1,0-.1h.6ZM236.8,377.5v.4c0,0-.8,0-.8,0l.2-.6h.6ZM237.8,377.4v-.4c0,0,0,0,0,0v.4ZM240,377.3v.4c0,0,0,0,0,0v-.4ZM241.8,377.1v-.4c0,0,0,0,0,0v.4ZM261.8,372.4h.4s0,.8,0,.8h-.4s0-.8,0-.8ZM261.7,372.8s0,0,0,0c0,0,0,0,0-.1,0-.1,0-.2,0-.3h1.2c0,.1,0,.2,0,.3,0,0,0,0,0,.1,0,0,0,0,0,0,0,0,0,0,0,0h-1.2ZM261.7,372.3c0,0,0-.2,0-.3,0,0,0-.1,0-.1s0,0,0,0c0,0,0,0,0,0,0,0,0,0,0,0,0,0,0,0,0,0,0,0,0,0,0,0,0,0,0,0,0,0,0,0,0,0,0,0,0,0,0,0,0,0l1.1-.3c0,0,0,.1,0,.1,0,0,0,0,0,0,0,0,0,0,0,0,0,0,0,0,0,0,0,0,0,0,0,0,0,0,0,0,0,0,0,0,0,0,0,.1,0,.1,0,.2,0,.3h-1.2ZM262.3,372.2h-.4c0,0,.2-.8.2-.8h.4c0,0-.2.8-.2.8ZM262.6,371.8s0,0,0,0c0,0,0,0,0,0,0,0,0,0,0,0,0,0,0,0,0,0,0,0,0,0,0,.1,0,.1,0,.2,0,.3h-1.2c0-.2,0-.3,0-.4,0,0,0-.1,0-.1,0,0,0,0,0,0,0,0,0,0,0,0h0s0,0,0,0c0,0,0,0,0,0,0,0,0,0,0,0h1.2ZM262.4,372.3c0,0,0,.2,0,.3,0,0,0,0,0,.1,0,0,0,0,0,0,0,0,0,0,0,0h-1.2s0,0,0,0c0,0,0,0,0,0,0,0,0,0,0-.1,0-.1,0-.3,0-.4h1.2ZM251.5,377.8s0,0,0,0c0,0,0,0,0,0,0,0,0,0,0,0,0,0,0,0,0,0,0,0,0,0,.1,0,.1,0,.2,0,.4,0l-.3.8c0,0-.2,0-.3,0,0,0,0,0-.1,0,0,0,0,0,0,0,0,0,0,0,0,0,0,0,0,0,0,0,0,0,0,0,0,0l.5-.7ZM251.9,377.8c.2,0,.5.1.6.1l-.4.7c-.1,0-.4,0-.5-.1l.4-.7ZM251.7,378.2l.3-.5,1.1.3-.3.5-1.1-.3ZM252.8,377.5l1.2.3-.4.7-1.2-.3.4-.7ZM254.3,378.3l-.5.7-1-.4.5-.7,1,.4ZM253.7,378.5c.2.1.7.5,1.1,1.2l-1.1.3c-.4-.6-.8-.9-.9-1l.8-.5ZM254.8,379.8c.3.4.4.9.5,1.2,0,.2,0,.3,0,.4,0,0,0,0,0,.1s0,0,0,0h0s0,0,0,0h0s0,0,0,0,0,0,0,0c0,0,0,0,0,0,0,0,0,0,0,0l-1.1.2s0,0,0,0c0,0,0,0,0,0,0,0,0,0,0,0,0,0,0,0,0,0,0,0,0,0,0,0,0,0,0,0,0,0,0,0,0,0,0,0,0,0,0-.2,0-.3,0-.3-.2-.7-.4-1l1.1-.3ZM255.4,381.5v.2s-1.2,0-1.2,0v-.2s1.2,0,1.2,0ZM254.5,382l-.6-.4.8-.6.6.4-.8.6ZM253.7,381.4h0s1.2-.1,1.2-.1h0s-1.2.1-1.2.1ZM253.7,381.3s0,0,0,0c0,0,0,0,0,0,0,0,0,0,0,0,0,0,0,0,0,0h0s0,0,0,0c0,0,0,0,0,0,0,0,0-.2,0-.3,0-.2-.1-.5-.2-.6l1.1-.3c.1.2.2.5.3.7,0,.1,0,.2,0,.3,0,0,0,0,0,0,0,0,0,0,0,0,0,0,0,0,0,0,0,0,0,0,0,0,0,0,0,0,0,0,0,0,0,0,0,0,0,0,0,0,0,0h-1.2ZM253.4,380.4c0,0,0-.1-.2-.2l1-.4c0,0,.2.2.2.3l-1.1.3ZM254.3,379.8c0,.2.2.4.3.6l-1.1.2c0-.2-.2-.3-.2-.5l1.1-.3ZM254.5,380.4c0,.2.2.6.2.6h-1.2c0,.1,0,0,0,0,0-.1,0-.2-.1-.3l1.1-.2ZM254.7,381v.2c0,0-1.1.1-1.1.1v-.2c0,0,1.1-.1,1.1-.1ZM253.8,381.5l-.6-.4.8-.6.6.4-.8.6ZM253,381h0s1.1-.2,1.1-.2h0s-1.1.2-1.1.2ZM253,380.9s0,0,0,0c0,0,0,0,0,0,0,0,0,0,0-.1,0-.1-.1-.2-.2-.4-.2-.3-.4-.7-.6-.8l1-.4c.3.3.5.7.7,1,0,.2.2.3.2.4,0,0,0,.1,0,.1,0,0,0,0,0,0,0,0,0,0,0,0,0,0,0,0,0,0,0,0,0,0,0,0,0,0,0,0,0,0l-1.2.2ZM252.1,379.6h-.1c0-.1,1-.6,1-.6h.1c0,.1-1,.6-1,.6ZM252,379.4c0-.1-.1-.1-.2-.2l.8-.6c.2.1.3.3.4.4l-1,.4ZM251.8,379.2c-.1,0-.3-.2-.6-.3l.7-.6c.3.2.6.3.7.4l-.8.6ZM251.2,378.9c-.2,0-.3-.2-.4-.2,0,0,0,0-.1,0,0,0,0,0,0,0,0,0,0,0,0,0,0,0,0,0,0,0,0,0,0,0,0,0,0,0,0,0,0,0,0,0,0,0,0,0l.4-.7s0,0,0,0c0,0,0,0,0,0,0,0,0,0,0,0,0,0,0,0,0,0,0,0,0,0,0,0,0,0,0,0,0,0,0,0,.1,0,.2,0,.1,0,.3.1.6.2l-.7.6ZM250.6,378.6h-.3c0,0,.5-.8.5-.8h.3c0,0-.5.8-.5.8ZM250.4,377.8h.7c0,0,.2.7.2.7h-.7c0,0-.2-.7-.2-.7ZM251.3,377.7h0s-.2.8-.2.8h0s.2-.8.2-.8ZM250.6,378.2h0s1.2-.2,1.2-.2h0s-1.2.2-1.2.2ZM265.9,378.8h0s-.8.6-.8.6h0s.8-.6.8-.6ZM266.1,379.1v1.1c0,0-1.1,0-1.1,0v-1.1c0,0,1.1,0,1.1,0ZM266,380.5h0s-.8-.5-.8-.5h0s.8.5.8.5ZM266,380.5c-.2.1-.4.2-.6.3l-.5-.7c0,0,.1,0,.2,0l.9.5ZM265.4,380.8c-.2,0-.5.1-.7.1v-.8s.1,0,.2,0l.5.7ZM264.7,380.9c-.5,0-.9,0-1.3-.3l.8-.6c.1,0,.3.1.5.1v.8ZM263.4,380.6h0s.8-.6.8-.6h0s-.8.6-.8.6ZM263.4,380.6c-.3-.2-.5-.5-.5-.8h1.2c0,0,0,.2.2.3l-.8.6ZM262.8,379.7c0-.3.2-.6.5-.9l.9.5c-.1,0-.2.2-.2.3h-1.2ZM263.3,378.9c.3-.2.8-.4,1.3-.4v.8c-.1,0-.3,0-.4.1l-.9-.5ZM264.5,378.5c.5,0,.9,0,1.3.3l-.8.6c-.1,0-.3-.1-.5-.1v-.8ZM264.3,379.9h0s-.8.6-.8.6h0s.8-.6.8-.6ZM264.3,379.9s0,0,.1,0l-.4.7c-.2,0-.4-.1-.6-.2l.8-.6ZM264,380.7c-.2,0-.3-.2-.4-.3l1-.4s0,0,0,0l-.7.6ZM263.6,380.4c0-.1-.1-.2-.1-.4h1.2s0,0,0,0l-1,.4ZM263.4,380c0-.1,0-.3.1-.4l1.1.3s0,0,0,0h-1.2ZM263.6,379.7c0-.1.2-.2.4-.3l.7.6s0,0,0,0l-1.1-.3ZM263.9,379.4c.3-.1.6-.2.9-.2v.8c-.2,0-.2,0-.2,0l-.7-.6ZM264.8,379.2c.3,0,.6.1.8.3l-.9.5s0,0,0,0v-.8ZM265.6,379.5c.2.2.3.4.3.6h-1.2s0,0,0,0l.9-.5ZM265.9,380.1c0,.2-.2.4-.4.5l-.8-.6s0,0,0,0h1.2ZM264.8,380s0,0,.1,0l.8.6c-.1,0-.3.2-.4.2l-.5-.7ZM264.8,380.2v-1c0,0,1.1,0,1.1,0v1c0,0-1.1,0-1.1,0ZM264.9,379.5c-.2-.1-.5,0-.6,0l-.9-.5c.6-.4,1.6-.5,2.3-.1l-.7.6ZM264.3,379.5c-.2.1-.2.3,0,.4l-.8.6c-.6-.4-.6-1.1,0-1.5l.9.5ZM263.5,380.5h0s.8-.6.8-.6h0s-.8.6-.8.6ZM259.1,372.1h.4c0,0-.2.8-.2.8h-.4c0,0,.2-.8.2-.8ZM260,372.5v.4c.1,0-1,.2-1,.2v-.4c-.1,0,1-.2,1-.2ZM259.6,372.6h.6c0,0-.2.8-.2.8h-.6c0,0,.2-.8.2-.8ZM260.7,372.9v.3c.1,0-1,.2-1,.2v-.3c-.1,0,1-.2,1-.2ZM260.1,373.7h-.6c0,0,.2-.8.2-.8h.6c0,0-.2.8-.2.8ZM260.2,373.2v.4c.1,0-1,.2-1,.2v-.4c-.1,0,1-.2,1-.2ZM259.6,374h-.4c0,0,.3-.8.3-.8h.4c0,0-.3.8-.3.8ZM258.8,373.7v-.4c-.1,0,1-.2,1-.2v.4c.1,0-1,.2-1,.2ZM259.1,373.6h-.6c0,0,.2-.8.2-.8h.6c0,0-.2.8-.2.8ZM258.1,373.3v-.3c-.1,0,1-.2,1-.2v.3c.1,0-1,.2-1,.2ZM258.6,372.5h.6c0,0-.2.8-.2.8h-.6c0,0,.2-.8.2-.8ZM237.2,375.7c.4,0,.7,0,1.1,0v.8c-.4,0-.7,0-1.1,0v-.8ZM238.3,375.7c.8,0,1.7,0,2.5,0v.8c-.8,0-1.7,0-2.5,0v-.8ZM240.8,375.6c1,0,2,0,3-.2v.8c-.9,0-1.9.1-2.9.2v-.8ZM243.7,375.5c.4,0,.9,0,1.3-.1l.2.8c-.5,0-.9.1-1.4.1v-.8ZM245,375.3c.5,0,1.1-.2,1.6-.3l.4.7c-.6.1-1.1.3-1.7.3l-.2-.8ZM246.6,375c.6-.1,1.1-.3,1.7-.5l.5.7c-.6.2-1.1.3-1.7.5l-.4-.7ZM248.4,375.3c-.4,0-.7,0-1.1,0v-.8c.3,0,.7,0,1.2,0v.8ZM246.8,374.7c.2-.1.3-.3.5-.4l.9.5c-.2.1-.3.3-.5.4l-.9-.5ZM247.4,374.3l.3-.2.9.5-.3.2-.9-.5ZM247.7,374.1s0,0,0,0c0,0,0,0,0,0,0,0,.2-.1.4-.1l.2.8c0,0,.1,0,.2,0,0,0,0,0,0,0,0,0,0,0,0,0,0,0,0,0,0,0l-.8-.6ZM248,373.9c0,0,.1,0,.2,0v.8c0,0,0,0,0,0l-.3-.8ZM248.2,373.9c.3,0,.5,0,.8,0v.8c-.3,0-.5,0-.7,0v-.8ZM249,373.9c.3,0,.7,0,1,0v.8c-.4,0-.7,0-1,0v-.8ZM250,373.9h.3s0,.8,0,.8h-.3s0-.8,0-.8ZM250.3,373.9c0,0,.1,0,.2,0l-.2.8s0,0,0,0v-.8ZM250.4,373.9s0,0,0,0c0,0,0,0,0,0,0,0,0,0,0,0,0,0,0,0,0,0,0,0,0,0,0,0,0,0,0,0,0,0,0,0,0,0,0,0s0,0,0,0l.5.7s0,0,0,0c0,0,0,0,0,0,0,0,0,0-.1,0,0,0-.1,0-.2,0v-.8ZM250.3,373.9l.6-.2.5.7-.6.2-.5-.7ZM250.9,374.5c-.7-.2-1.4-.2-2.2-.2v-.8c.8,0,1.8,0,2.6.2l-.4.7ZM248.3,373.6c.3-.2.6-.4.9-.6l.8.6c-.3.2-.6.4-.9.6l-.8-.5ZM249.1,373s0,0,0,0c0,0,0,0,0,0,0,0,0,0,0,0,0,0,0,0,.1,0,0,0,.1,0,.3,0v.8c.2,0,.2,0,.3,0,0,0,0,0,0,0,0,0,0,0,0,0t0,0s0,0,0,0c0,0,0,0,0,0l-.8-.6ZM249.5,372.8s0,0,0,0c0,0,0,0,0,0,0,0,0,0,0,0,0,0,0,0,0,0l.3.8s0,0,0,0c0,0,0,0,0,0,0,0,0,0,0,0s0,0,0,0l-.3-.8ZM249.8,372.8c.2,0,.5,0,.7,0l-.2.8c-.2,0-.3,0-.5,0v-.8ZM250.4,372.8c.3,0,.6,0,.9,0l-.2.8c-.3,0-.5,0-.8,0v-.8ZM251.3,372.9c.2,0,.5,0,.7,0l-.2.8c-.2,0-.5,0-.7,0l.2-.8ZM251.9,373c0,0,.1,0,.1,0,0,0,0,0,0,0,0,0,0,0,0,0,0,0,0,0-.1,0,0,0-.1,0-.2,0-.1,0-.2.1-.2.2l1.1.2c0,0-.1.2-.2.2-.1,0-.2,0-.3,0-.1,0-.2,0-.2,0,0,0,0,0,0,0,0,0,0,0,0,0,0,0,0,0,0,0,0,0,0,0,0,0v-.8ZM251.4,373.3h0c0,0,1.1.2,1.1.2h0c0,0-1.1-.2-1.1-.2ZM251.5,373.2s0,0,0,0c0,0,0,0,0,0,0,0,0,0,0,.1,0,0,0,.1,0,.2,0,0,.1,0,.1.1,0,0,0,0,0,0,0,0,0,0,0,0l.5-.7s0,0,.1,0c0,0,0,0,.2.1,0,0,0,.1,0,.2,0,0,0,.1,0,.1,0,0,0,0,0,0,0,0,0,0,0,0l-1.1-.2ZM251.8,373.6h-.2c0,0,.5-.8.5-.8h.2c0,0-.5.8-.5.8ZM251.6,373.6c-.4-.1-.9-.2-1.4-.3l.2-.8c.6,0,1.1.2,1.7.3l-.5.7ZM250,372.5c.5-.2,1.1-.4,1.7-.5l.3.8c-.5.1-1,.2-1.5.4l-.6-.7ZM251.7,372.1c1.1-.2,2.2-.4,3.3-.4v.8c-1,0-2,.2-2.9.4l-.4-.8ZM255,371.7c.7,0,1.5,0,2.2,0v.8c-.8,0-1.4,0-2.1,0v-.8ZM257.2,371.7c.4,0,.8,0,1.1.1l-.2.8c-.3,0-.7,0-1,0v-.8ZM258.3,371.8c.2,0,.3,0,.5,0l-.3.8c-.1,0-.3,0-.5,0l.2-.8ZM258.8,371.9s0,0,0,0c0,0,0,0,0,0,0,0,0,0,0,0v.8c-.2,0-.3,0-.3,0,0,0,0,0,0,0l.3-.8ZM259,371.9c.3,0,.6,0,.9,0v.8c-.4,0-.7,0-1,0v-.8ZM259.5,372.7c-.3,0-.5-.1-.8-.2l.3-.8c.3,0,.7.1,1,.2l-.5.7ZM258.7,371.7c.4,0,.9,0,1.2,0l-.4.8c-.3,0-.4,0-.6,0l-.2-.8ZM259.9,371.8c.4,0,.9.2,1.3.4l-.6.7c-.3-.1-.7-.2-1.1-.3l.4-.7ZM260.3,372.5c0,0,0-.1,0-.2,0,0,0-.1,0-.2h1.2c0,0,0,.1,0,.2,0,0,0,.1,0,.2h-1.2ZM260.3,372.1c0-.1,0-.3,0-.4h1.2c0,.2,0,.3,0,.5h-1.2ZM260.3,371.7c0-.2,0-.3,0-.5h1.2c0,.2,0,.4,0,.6h-1.2ZM261.1,370.8l1.6.2-.3.8-1.6-.2.3-.8ZM262.8,371.1h.7c0,.1-.3.9-.3.9h-.7c0-.1.3-.9.3-.9ZM263.9,371.7c0,.2-.1.4-.2.6h-1.2c0-.3,0-.6.2-.8l1.1.3ZM263.7,372.3c0,.2,0,.4,0,.6h-1.2c0-.1,0-.4,0-.6h1.2ZM263.8,372.9c0,.2,0,.4,0,.6h-1.2c0-.1,0-.3,0-.5h1.2ZM263.9,373.5s0,0,0,0c0,0,0,0,0,0,0,0,0,0,0,0l-1.1.2c0,0,0-.2,0-.2h1.2ZM263.9,373.7c0,0,0,0,0-.1,0,0,0,0,0,0,0,0,0,0,0,0,0,0,0,0,0,0,0,0,0,0,0,0,0,0,0,0,0,0,0,0,0,0,0,0l-.8.6s0,0,0,0c0,0,0,0,0,0,0,0,0,0-.1,0,0,0-.1-.1-.1-.2h1.2ZM263.8,373.5h.2c0,.1-.8.7-.8.7h-.2c0-.1.8-.7.8-.7ZM264,373.6c.3.2.5.4.8.6l-.9.5c-.2-.2-.4-.4-.7-.5l.8-.5ZM264.8,374.2s0,0,0,0l-.8.6c0,0-.2-.1-.2-.2l.9-.5ZM264.9,374.3h.2c0,0-.8.7-.8.7h-.2c0,0,.8-.7.8-.7ZM265,374.4c.1,0,.3.2.4.2l-.8.6c-.1,0-.2-.1-.3-.2l.8-.6ZM265.4,374.6c.3.2.5.4.8.6l-.9.5c-.2-.2-.5-.3-.7-.5l.8-.6ZM266.2,375.2c.2.2.4.4.6.5l-1,.4c-.1-.2-.3-.3-.5-.4l.9-.5ZM266.8,375.7c.2.2.3.5.4.7h-1.2s-.1-.2-.2-.3l1-.4ZM267.2,376.4c0,.2,0,.5,0,.8l-1.1-.2c0-.1,0-.3,0-.4h1.2ZM267.2,377.2c-.1.3-.3.5-.5.6l-1-.4c.2-.2.3-.3.3-.4l1.1.2ZM266.6,377.4c0,0,.2.1.3.2l-.9.5c0,0-.2-.2-.4-.3l.9-.5ZM266.9,377.6c.4.3.7.6,1,.9l-1,.4c-.2-.3-.5-.5-.8-.8l.9-.5ZM267.9,378.5c.3.4.5.9.6,1.4h-1.2c0-.3-.2-.7-.4-1l1-.4ZM268.5,379.9c0,.2,0,.5,0,.7h-1.2c0-.3,0-.5,0-.7h1.2ZM268.4,380.6s0,0,0,0c0,0,0,0,0,0,0,0,0,0,0,0l-1.1.2c0,0,0-.1,0-.1,0,0,0,0,0,0,0,0,0,0,0,0h1.2ZM268.4,380.7s0,0,0,0c0,0,0,0,0,0,0,0,0,0,0,0,0,0,0,0,0,0,0,0,0,0,0,.1l-1.1-.2c0,0,0,0,0,.1,0,0,0,0,0,0,0,0,0,0,0,0s0,0,0,0c0,0,0,0,0,0h1.2ZM268.4,380.8s0,0,0,0h-1.2c0-.2,0-.2,0-.2l1.1.2ZM268.4,380.9v.2c0,0-1.2-.2-1.2-.2v-.2c0,0,1.2.2,1.2.2ZM268.3,381.1c-.1.3-.3.6-.5.8l-1.1-.3c.2-.3.3-.5.4-.7l1.1.2ZM267.8,381.9h0c0,0-1.1-.2-1.1-.2h0c0,0,1.1.2,1.1.2ZM266.7,381.9h0s1.1-.2,1.1-.2h0s-1.1.2-1.1.2ZM267.7,382.1c0,0-.1.1-.2.2l-.9-.5s0,0,.1-.1l1,.5ZM267.5,382.2h0c0,0-.9-.4-.9-.4h0c0,0,.9.4.9.4ZM267.4,382.3h0s-.8-.5-.8-.5h0s.8.5.8.5ZM267.4,381.8h0s-1,.5-1,.5h0s1-.5,1-.5ZM267.5,381.9c.1.1.2.2.3.3l-1,.4c0,0-.1-.2-.2-.3l1-.4ZM267.8,382.2c0,.1.2.2.2.4l-1.1.2c0,0,0-.1-.1-.2l1-.4ZM268,382.6c0,.1,0,.3,0,.4h-1.2c0,0,0-.2,0-.2l1.1-.2ZM268,383c0,.4-.1.9-.5,1.3l-1-.4c.2-.3.3-.6.3-.9h1.2ZM267.6,384.2c-.3.3-.6.6-1.1.8l-.7-.6c.3-.1.5-.3.7-.5l1,.4ZM266.5,385.1c-.2,0-.3.1-.5.2l-.2-.8s0,0,.1,0l.7.6ZM265.9,385.2c-.4,0-.7-.1-.9-.3l1-.4s-.1,0-.2,0v.8ZM265,384.9c0,0-.1-.2-.1-.2,0,0,0-.1,0-.2l1.1-.2c0,0,0,.2,0,.2,0,0,0,0,0,0l-1,.4ZM264.8,384.5v-.3c-.1,0,1-.3,1-.3v.3c.1,0-1,.3-1,.3ZM264.6,384.2c-.2-.4-.4-.8-.7-1l.9-.5c.4.4.7.9.9,1.3l-1.1.3ZM263.9,383.2c0,0,.1,0,.2.1,0,0,0,0,.1,0,0,0,0,0,0,0,0,0,0,0,0,0,0,0,0,0,0,0,0,0,0,0,0,0v-.8c.1,0,.1,0,.1,0,0,0,0,0,0,0,0,0,0,0,.2,0,0,0,0,0,.1,0,0,0,.1,0,.2.1l-.9.5ZM264.1,383.3c0,0-.2,0-.3,0l.2-.8c0,0,.1,0,.2,0l-.2.8ZM263.8,383.3c-.2,0-.4,0-.5-.1l.4-.7c.1,0,.2,0,.4,0l-.3.8ZM263.3,383.2c-.4-.1-.7-.3-1-.4l.6-.7c.3.1.5.2.8.3l-.4.7ZM262.3,382.8c-.6-.2-1.1-.5-1.6-.8l.8-.6c.4.3.9.5,1.4.7l-.6.7ZM260.7,382c-.2-.1-.4-.3-.6-.4l.9-.5c.2.1.3.2.5.3l-.8.6ZM260.1,381.5c-.2-.2-.3-.3-.5-.4l.8-.6c.2.1.4.3.6.5l-.9.5ZM259.6,381.1c-.2-.1-.4-.2-.6-.4l.7-.6c.2.1.5.3.8.4l-.8.5ZM259,380.8c-.2-.1-.5-.3-.8-.4l.7-.6c.3.1.5.3.8.4l-.7.6ZM258.2,380.4c-.5-.3-1-.5-1.6-.7l.6-.7c.6.2,1.1.5,1.6.8l-.7.6ZM257.5,379.4c0,.2-.1.4-.2.5l-1.1-.2c0-.2.1-.3.2-.5l1.1.2ZM257.4,379.9c0-.1,0-.2,0-.3,0,0,0,0,0,0,0,0,0,0,0,0s0,0,0,0c0,0,0,0,0,0,0,0,0,0,0,0,0,0,0,0,0,0l-.8.6s0,0,0,0c0,0,0,0,0,0,0,0,0,0,0,0,0,0,0,0,0,0,0,0,0-.1,0-.3l1.1.2ZM257.2,379.6c0,0,.1,0,.2.1l-.9.5s0,0,0,0l.8-.6ZM257.4,379.7c0,0,.2.1.2.2l-1,.5s0,0-.1,0l.8-.6ZM257.6,379.9c.2.2.3.3.5.5l-1.1.3c0-.1-.2-.3-.3-.4l.9-.5ZM258.1,380.4c.3.5.4.9.5,1.4h-1.2c0-.4-.1-.7-.4-1.1l1.1-.3ZM258.6,381.8c0,.3,0,.5,0,.8h-1.2c0-.3,0-.5,0-.8h1.2ZM258.5,382.6c0,0,0,.1,0,.2h-1.2c0-.2,0-.3,0-.3h1.2ZM257.4,383l-.2-.2,1-.4.2.2-1,.4ZM257.2,382.8s0,0,0-.1l1-.4s0,0,.1.1l-1,.4ZM257,382.6s0,0,0,0c0,0,0,0,0,0,0,0,0,0,0,0t0,0h0s0,0,0,0l1.1-.2s0,0,0,0c0,0,0,0,0,0,0,0,0,0,0,0,0,0,0,0,0,0,0,0,0,0,0,0l-1.1.3ZM257,382.4c0-.2,0-.5-.1-.7h1.2c0,.1.1.4.1.7h-1.2ZM256.9,381.7c0,0,0-.2,0-.3l1.1-.2c0,.1.1.3.1.4h-1.2ZM256.8,381.4c0-.1-.2-.2-.3-.3l1-.4c.2.2.3.3.4.5l-1.1.3ZM257.6,380.8c.1.3.3.6.4,1h-1.2c0-.2-.2-.4-.3-.8l1.1-.2ZM257.9,381.8c0,.2,0,.4,0,.6h-1.2c0-.2,0-.3,0-.5h1.2ZM256.9,382.6l-.5-.4.9-.5.5.4-.9.5ZM256.5,382.2s0,0,0,0c0,0,0,0,0,0,0,0,0,0,0,0,0,0,0,0,0,0h0s0,0,0,0l1.2-.2s0,0,0,0c0,0,0,0,0,0,0,0,0,0,0,0,0,0,0,0,0,0,0,0,0,0,0,0l-.8.6ZM256.3,382v-.2c0,0,1.1-.2,1.1-.2v.2c0,0-1.1.2-1.1.2ZM256.3,381.8c0,0,0-.2-.1-.3l1.1-.2c0,.1.1.2.1.3l-1.1.2ZM256.1,381.5c-.1-.2-.2-.4-.3-.6l1.1-.3c.1.2.3.4.4.7l-1.1.2ZM255.8,381c-.1-.2-.2-.3-.4-.5l1-.4c.2.2.4.4.5.6l-1.1.3ZM255.4,380.4c-.1-.1-.2-.2-.4-.3l.6-.7c.3.1.6.3.8.5l-1,.4ZM255,380.2c-.3-.1-.6-.2-1-.3l.3-.8c.5,0,1,.2,1.4.4l-.6.7ZM254,379.9s0,0,0,0c0,0,0,0-.1,0,0,0-.2,0-.3-.1,0,0-.1-.2-.1-.2h1.2c0,0,0-.2-.1-.2,0,0-.2-.1-.3-.1,0,0,0,0,0,0,0,0,0,0,0,0,0,0,0,0,0,0l-.2.8ZM253.5,379.5s0,0,0,0c0,0,0,0,0,0,0,0,0,0,0,0,0,0,0,0,0-.1,0,0,.1-.2.3-.2l.4.7c.2,0,.3-.2.3-.2,0,0,0,0,0,0,0,0,0,0,0,0,0,0,0,0,0,0,0,0,0,0,0,0,0,0,0,0,0,0,0,0,0,0,0,0h-1.2ZM253.9,379h.5c0,0,.3.7.3.7h-.4c0,0-.3-.7-.3-.7ZM254.4,378.9h0s0,0,0,0c0,0,0,0,0,0,0,0,0,0,0,0,0,0,.2,0,.3,0l-.3.8s0,0,.1,0,0,0,0,0c0,0,0,0,0,0t0,0s0,0,0,0l-.3-.8ZM254.8,378.9h.2s-.3.8-.3.8h-.2s.3-.8.3-.8ZM255,378.9c.2,0,.4,0,.7,0l-.2.8c-.3,0-.5,0-.8-.1l.3-.8ZM255.7,379s0,0,0,0c0,0,0,0,0,0h0,0s0,0,0,0c0,0,0,0,0,0,0,0,0,0-.2,0,0,0-.1,0-.2,0l.8.6c0,0-.2,0-.3,0,0,0-.2,0-.2,0,0,0-.1,0-.1,0,0,0,0,0,0,0t0,0l.3-.8ZM255.3,379.1s0,0,0,0c0,0,0,0,0,0,0,0,0,0,0,0,0,0,0,0,0,0,0,0,0,0,0,0,0,0,0,0,0,0l1.1.3s0,.1-.2.2l-.8-.6ZM255.3,379.2s0,0,0-.1l1.1.2c0,0,0,.2-.1.3l-1.1-.3ZM255.3,379s0,0,0-.1h1.2c0,.2,0,.3,0,.3l-1.1-.2ZM255.4,378.9s0,0,0,0c0,0,0,0,0,0,0,0,0,0,0,.1,0,.1.2.2.2.2,0,0,0,0,0,0,0,0,0,0,0,0,0,0,0,0,0,0h0l.5-.7s0,0,0,0c0,0,0,0,0,0,0,0,.2.1.2.2,0,0,0,0,0,.1,0,0,0,0,0,0,0,0,0,0,0,0h-1.2ZM255.6,379.3h-.1c0,0,.6-.7.6-.7h.1s-.6.7-.6.7ZM255.5,379.2c-.3,0-.6-.2-.9-.3l.6-.7c.2,0,.5.2.8.3l-.5.7ZM254.7,378.9c-.3-.1-.6-.3-.9-.4l.7-.7c.3.1.6.3.8.4l-.6.7ZM253.8,378.5h0s.6-.7.6-.7h0s-.6.7-.6.7ZM254.2,377.8s0,0,0,0c0,0,0,0,0,0s0,0,0,0c0,0,0,0,0,0,0,0,0,0,0,0,0,0,0,0,0,0v.8c0,0,0,0,0,0,0,0,0,0,0,0,0,0-.2,0-.3,0l.3-.8ZM254.2,377.8s0,0,0,0c0,0,0,0,0,0,0,0,0,0,.1,0,.1,0,.2,0,.3,0l-.6.7s0,0,.1,0c0,0,0,0,.1,0,0,0,0,0,0,0s0,0,0,0,0,0,0,0l-.2-.8ZM254.7,377.9h.1s-.7.7-.7.7h-.1c0,0,.7-.7.7-.7ZM254.8,377.9c0,0,.1,0,.2,0l-.6.7c0,0-.2,0-.3-.1l.6-.7ZM255.1,378c.3.1.5.2.8.3l-.5.7c-.3-.1-.6-.2-.9-.4l.7-.7ZM255.9,378.3c.5.2.9.3,1.3.5l-.6.7c-.4-.2-.8-.3-1.2-.5l.5-.7ZM257.2,378.8c.5.2,1,.5,1.5.7l-.7.6c-.5-.2-1-.5-1.5-.7l.6-.7ZM258.8,379.5c.3.1.5.3.8.4l-.7.6c-.3-.1-.5-.3-.7-.4l.7-.6ZM259.5,379.9c.2.1.5.3.8.4l-.8.6c-.2-.1-.4-.2-.7-.4l.7-.6ZM260.3,380.3c.3.2.5.4.7.5.2.2.4.3.6.5l-.8.6c-.3-.2-.5-.4-.7-.5-.2-.2-.4-.3-.6-.4l.8-.6ZM261.7,381.3c.3.2.6.4,1,.5l-.7.6c-.4-.2-.8-.4-1.1-.6l.8-.6ZM262.7,381.9h0s-.7.7-.7.7h0s.7-.7.7-.7ZM261.8,382.4c-.1-.2-.3-.4-.4-.6l1.1-.3c.1.2.3.4.4.6l-1.1.3ZM261.4,381.8c-.1-.2-.2-.4-.4-.6l1.1-.3c.1.2.2.4.4.6l-1.1.3ZM261.1,381.2l-.2-.3,1.1-.3.2.3-1.1.3ZM260.9,380.9c0,0-.1-.2-.2-.4h1.2c0,0,0,0,.1,0l-1.1.3ZM260.7,380.5c0-.3,0-.5,0-.7,0-.1,0-.2,0-.3,0-.1,0-.2,0-.3h1.2c0,.2,0,.3,0,.4,0,.1,0,.2,0,.3,0,.2,0,.4,0,.5h-1.2ZM260.8,379.2c0-.4,0-.7,0-.9l1.1-.2c.2.4.2.9,0,1.3h-1.2ZM260.8,378.2c0,0-.1-.2-.2-.3l1-.4c.1.1.2.3.3.4l-1.1.2ZM261,377.4c.6,0,1.2-.2,1.6-.4l.7.6c-.6.3-1.4.5-2,.6l-.2-.8ZM262.7,377.6h-.1s.5-.8.5-.8h.1s-.5.8-.5.8ZM262.5,377.6s0,0,0,0c0,0,0,0,0,0,0,0,0,0,0,0,0,0,0,0,.2,0,0,0,.2,0,.2,0l-.6-.7c0,0,.2,0,.3,0,.1,0,.2,0,.2,0,0,0,0,0,.1,0,0,0,0,0,0,0t0,0l-.5.7ZM263,377.6h-.1c0,0-.6-.6-.6-.6h.1c0,0,.6.6.6.6ZM262.8,377.6c-.1,0-.2,0-.4.1l-.5-.7c0,0,.2,0,.3,0l.6.7ZM262.5,377.7c-.3,0-.5.1-.8.2l-.3-.8c.2,0,.4,0,.6-.2l.5.7ZM261.7,377.9c-.6.1-1.2.2-1.7.2v-.8c.4,0,.9-.1,1.4-.2l.3.8ZM260,378.2c-1.1,0-2.2.1-3.3.1v-.8c1.1,0,2.1,0,3.1-.1v.8ZM256.7,378.3c-.2,0-.5,0-.8,0v-.8c.1,0,.4,0,.7,0v.8ZM255.9,378.3c-.3,0-.6,0-.9,0v-.8c.2,0,.5,0,.8,0v.8ZM255,378.4c-.1,0-.2,0-.3,0-.1,0-.2,0-.4,0v-.8s.1,0,.2,0c.1,0,.2,0,.4,0v.8ZM254.4,378.4h-.2s-.1-.8-.1-.8h.2s.1.8.1.8ZM254.2,378.5c-.1,0-.2,0-.2,0,0,0,0,0,0,0l.4-.7s0,0,0,0c0,0,0,0,0,0,0,0,0,0,0,0,0,0,0,0-.2,0v.8ZM253.9,378.4c-.8-.2-1.6-.4-2.4-.5l.4-.7c.8.2,1.6.4,2.4.5l-.4.7ZM251.5,377.9c-.6-.1-1.1-.3-1.7-.4l.4-.7c.6.1,1.1.3,1.7.4l-.4.7ZM249.8,377.5c-.3,0-.6-.1-.9-.2l.4-.7c.3,0,.6.1.9.2l-.4.7ZM248.9,377.2c0,0-.1,0-.2,0l.5-.7s0,0,0,0l-.4.7ZM248.8,377.2c0,0-.1,0-.2,0l.5-.7s0,0,0,0c0,0,0,0,0,0l-.3.8ZM249.1,377.2h0s-.5-.7-.5-.7h0s.5.7.5.7ZM249.1,377.2c0,0-.2,0-.2,0l-.5-.7c0,0,.2,0,.3,0l.5.7ZM248.8,377.3c-.2,0-.3.1-.5.2l-.5-.7c.2,0,.3-.1.5-.2l.5.7ZM248.3,377.4c-1.1.3-2.2.7-3.4.9l-.4-.8c1.1-.2,2.2-.5,3.3-.9l.5.7ZM244.9,378.4c-.9.2-1.8.4-2.7.5l-.3-.8c.9-.2,1.8-.3,2.6-.5l.3.8ZM242.2,378.9c-1.7.3-3.4.6-5.2.8l-.3-.8c1.7-.3,3.4-.5,5.1-.8l.3.8ZM237.1,379.7c-.3,0-.7.1-1,.1l-.2-.8c.3,0,.6,0,1-.1l.2.8ZM236.1,379.9h-.1s-.2-.8-.2-.8h.1s.2.8.2.8ZM235.2,379.4l.3-1.1h1.2c0,.1-.3,1.3-.3,1.3h-1.2ZM235.6,378.3v-.3c0,0,1.2.1,1.2.1v.3c0,0-1.2-.1-1.2-.1ZM235.6,378.1c0,0,0-.1,0-.2l1.1.2s0,0,0,0h-1.2ZM236.1,377.6h.3s.2.7.2.7h-.3c0,0-.2-.7-.2-.7ZM236.5,377.5c.7,0,1.3-.2,1.9-.3l.3.8c-.6,0-1.3.2-1.9.3l-.2-.8ZM238.4,377.3l1.8-.3.2.8-1.8.3-.2-.8ZM240.3,377h.2s.3.7.3.7h-.2s-.3-.7-.3-.7ZM240.7,377.7h-1.3c0,0-.1-.7-.1-.7h1.3c0,0,.1.7.1.7ZM239.4,377.8h-2.2c0,.1-.1-.6-.1-.6h2.2c0-.1.1.6.1.6ZM237.2,378c-.2,0-.4,0-.7,0v-.8c0,0,.3,0,.6,0v.8ZM235.9,377.5c.2-.4.3-.7.5-1.1l1.1.2c-.2.4-.3.7-.5,1.1l-1.1-.2ZM236.4,376.4c0-.1.1-.3.2-.4l1.1.2c0,.2-.1.3-.2.5l-1.1-.2ZM262.4,372.7c0-.4,0-.8.1-1.1l1.1.2c-.1.3-.2.6-.1.8h-1.2ZM263,372.1l-1.7-.3.3-.8,1.7.3-.3.8ZM261.3,371.8h-.3s.3-.8.3-.8h.3s-.3.8-.3.8ZM261.7,371.4c0,.3,0,.6,0,.9h-1.2c0-.3,0-.7,0-1h1.2ZM261.7,372.3s0,0,0,.1h-1.2c0,0,0,0,0-.1h1.2ZM261.7,372.5s0,0,0,0h-1.2s0,0,0-.1h1.2ZM261.7,372.6h0s-1.2,0-1.2,0h0s1.2,0,1.2,0ZM261.3,372.3s0,0,.1,0l-.6.7s0,0,0,0l.5-.7ZM261.4,372.3c.5.2,1,.4,1.5.7l-.7.6c-.4-.2-.9-.4-1.3-.6l.6-.7ZM262.9,372.9c.2.1.4.2.6.3l-.7.6c-.2-.1-.4-.2-.5-.3l.7-.6ZM262.5,373.6c0-.3,0-.6-.1-.9h1.2c0,.2,0,.5.1.8h-1.2ZM262.8,374.6c0-.2-.2-.3-.4-.5l1-.5c.2.2.4.4.5.6l-1.1.3ZM262.4,374.2c-.3-.3-.7-.6-1.2-.8l.7-.6c.5.3,1,.6,1.4,1l-1,.5ZM261.2,373.4c-.3-.2-.7-.3-1-.4l.6-.7c.4.2.8.3,1.2.5l-.7.6ZM261.1,372.5h0c0,.1-1.2.2-1.2.2v-.2s1.1,0,1.1,0ZM260.8,372.4h.3c0,0-.6.8-.6.8h-.3c0,0,.6-.8.6-.8ZM261.1,372.5c.1,0,.3.1.5.2l-.7.6c-.1,0-.3-.1-.4-.2l.6-.7ZM261.5,372.7c.3.1.5.3.8.4l-.8.6c-.2-.1-.4-.3-.7-.4l.7-.6ZM262.3,373.1c.5.3.8.6,1.2,1l-1,.4c-.3-.3-.6-.6-1-.8l.8-.6ZM263.5,374.1c.2.2.4.5.5.8l-1.1.2c-.1-.2-.2-.4-.4-.6l1-.4ZM264,374.9c.1.3.2.6.2.9h-1.2c0-.2,0-.5-.1-.7l1.1-.2ZM264.2,375.8c0,.3-.1.7-.3,1l-1.1-.3c.1-.2.2-.5.2-.7h1.2ZM263.9,376.8h0c0,0-1.1-.3-1.1-.3h0c0,0,1.1.3,1.1.3ZM263.8,376.9h0s-1-.3-1-.3h0s1,.3,1,.3ZM263.6,376.4h0s-.7.7-.7.7h0s.7-.7.7-.7ZM263.7,376.5h0s-.7.7-.7.7h0s.7-.7.7-.7ZM262.9,376.7c.3-.5.4-1,.2-1.5l1.1-.2c.3.7.3,1.4-.2,2.1l-1-.4ZM263.1,375.1c0-.2-.2-.3-.3-.5l1-.4c.2.2.3.4.4.6l-1.1.2ZM265.9,377c0-.3,0-.6-.3-.8l1-.4c.4.4.6.9.4,1.4h-1.2ZM265.6,376.1c-.3-.3-.7-.6-1.2-.9l.8-.6c.5.3.9.6,1.3,1l-1,.4ZM265.3,374.7c.4.4.7.9.8,1.4h-1.2c0-.3-.3-.6-.7-1l1-.4ZM266.1,376c.4.5.6,1,.5,1.5h-1.2c0-.5,0-.8-.3-1.1l1-.4ZM266.4,377.2h0s-.8.6-.8.6h0s.8-.6.8-.6ZM265.6,377.3c0,0,.2-.2.2-.2l1,.4c0,.1-.2.2-.3.3l-1-.5ZM265.8,377.1s0,0,0-.1l1.1.2c0,.1,0,.2-.2.3l-1-.4ZM266.2,376.5c0,.2,0,.4,0,.6h-1.2c0-.3,0-.4,0-.6h1.2ZM266.1,377.1s0,0,0,0c0,0,0,0,0,0,0,0,0,0,0,0,0,0,0,0,0,0s0,0,0,0l-1.1.3c0-.1,0-.2,0-.3,0,0,0-.1,0-.1h1.2ZM266.1,377.1s0,0,0,0c0,0,0,0,0,0,0,0,0,0,0,0,0,0,0,0,0,0,0,0,0,0,0,0,0,0,0,0,0,0s0,0,0,0l-.6.7s-.1,0-.2,0c0,0-.3-.1-.3-.3l1.1-.3ZM265.2,377.4c0-.2,0-.5-.2-.7l1.1-.3c.2.3.3.7.2,1.1h-1.2ZM266.9,381c0-.1,0-.2.2-.4l1.1.2c0,.1-.1.3-.2.5l-1.1-.2ZM267.1,380.6s0,0,0,0c0,0,0,0,0,0,0,0,0,0,0,0,0,0,0,0,0,0,0,0,0,0,0,0h1.2c0,0,0-.1,0,0,0,0,0,0,0,0,0,0,0,0,0,0,0,0,0,0,0,.1l-1.1-.2ZM267.1,380.7c0,0,0-.1,0-.2h1.2s0,0,0,0h-1.2ZM267,380.6c0-.3-.2-.6-.2-.9l1.2-.2c0,.3.2.6.3,1h-1.2ZM266.8,379.7c0-.2,0-.3-.2-.4l1.1-.2c0,.2.1.3.2.5l-1.1.2ZM266.6,379.2c0-.1-.1-.3-.2-.4l1-.4c.1.2.2.4.3.5l-1.1.2ZM266.4,378.8c-.2-.3-.4-.5-.7-.7l.9-.5c.3.3.5.5.8.8l-1,.4ZM265.7,378.1c-.2-.1-.2-.2-.3-.2l.6-.7c.3.1.5.3.6.4l-.9.5ZM266.3,377.4c.1.3.2.6.4.9l-1.1.2c-.1-.3-.3-.6-.4-.9l1.1-.2ZM266.7,378.3c.1.3.3.6.4.9l-1.1.2c-.1-.3-.3-.6-.4-.9l1.1-.2ZM267.1,379.3c.1.3.3.6.4.9l-1.1.2c-.1-.3-.2-.6-.3-.9l1.1-.2ZM267.5,380.2c.1.3.2.6.3,1l-1.1.2c-.1-.3-.2-.6-.3-1l1.1-.2ZM267.8,381.2v.2c0,0-1.1.2-1.1.2v-.2c0,0,1.1-.2,1.1-.2ZM266.8,381.3c0-.1.1-.2.2-.3l1.1.2c0,.1-.2.3-.2.4l-1.1-.3ZM264.5,382.5c0,0,0-.2,0-.2,0,0,0,0,0,0,0,0,0,0,0,0,0,0,0,0,0,0,0,0,0,0,0,0l-.8.6s0,0,0,0c0,0,0,0,0,0,0,0,0,0,0,0,0,0,0,0-.1-.1,0,0,0-.2,0-.3l1.1.2ZM264.5,382.2c0,0,.2.1.3.2l-.9.5c0,0-.1-.1-.2-.2l.8-.6ZM264.7,382.4c.2.2.5.4.6.6l-1,.4c-.1-.2-.3-.3-.5-.4l.9-.5ZM265.4,383c.3.4.5.8.7,1.2l-1.1.2c-.2-.4-.4-.8-.6-1.1l1-.4ZM266.1,384.2s0,0,0,0c0,0,0,0,0,0,0,0,0,0,0,0l-1,.4c0,0-.1-.2-.1-.2,0,0,0,0,0,0,0,0,0,0,0,0l1.1-.2ZM266.2,384.4s-.1,0-.2-.1l-.5.7c-.1,0-.3-.1-.3-.2l1-.4ZM266,384.3c0,0-.2,0-.2,0l.2.8c-.2,0-.3,0-.5,0l.5-.7ZM265.7,384.3s0,0,0,0l.7.6c-.1,0-.3.1-.4.1l-.3-.8ZM265.8,384.3c0,0,.2,0,.2-.1l.9.5c-.1,0-.3.2-.5.3l-.6-.7ZM266,384.1c.2-.2.4-.3.5-.5l1.1.3c-.2.3-.4.6-.8.8l-.8-.6ZM266.5,383.6c0-.1.1-.3.1-.4h1.2c0,.3,0,.5-.2.7l-1.1-.3ZM266.7,383.1c0-.2,0-.3,0-.4l1.1-.3c.1.3.1.5.1.7h-1.2ZM266.6,382.7c-.1-.2-.4-.5-.7-.7l.9-.5c.3.2.7.6.9.9l-1.1.3ZM265.9,382c0,0-.1,0-.2-.1l.8-.6c0,0,.1,0,.2.1l-.9.5ZM265.8,381.9s0,0,0,0c0,0,0,0,0,0,0,0,0,0,0,0,0,0,0,0,0,0l.5-.7c.1,0,.3.1.3.2,0,0,0,0,0,0,0,0,0,0,0,0l-.8.6ZM265.7,381.8c0,0,.2,0,.2,0,0,0,0,0,0,0l-.4-.7c.1,0,.4-.1.8,0l-.5.7ZM265.8,381.9c0,0-.2,0-.3.1l-.6-.7c.1,0,.3-.1.5-.2l.4.7ZM265.5,382c-.3.1-.5.2-.7.3l-.8-.6c.3-.2.6-.3.9-.4l.6.7ZM264.8,382.3c-.1,0-.2.1-.2.2l-.9-.5c.1-.1.3-.2.4-.3l.8.6ZM264.6,382.5s0,0,0,0c0,0,0,0,0,0,0,0,0,0,0,0,0,0,0,0,0,0,0,0,0,0,0,0l-1.1-.2c0-.2.2-.3.3-.3l.9.5ZM263.8,379.5c.1.3.3.6.6.9l-1,.5c-.4-.4-.6-.7-.8-1.2l1.1-.2ZM264.4,380.3c0,0,.1,0,.2.1l-.8.6c-.1,0-.2-.1-.3-.2l.9-.5ZM264.5,380.5s0,0,0,0c0,0,0,0,0,0,0,0,0,0,0,0,0,0,0,0,0,0l-.5.7c0,0-.3,0-.4-.2l.8-.6ZM264.7,380.6c.2,0,.4.1.6.2l-.3.8c-.3,0-.6-.1-.8-.2l.6-.7ZM265.3,380.7s0,0,0,0l.2.8c-.2,0-.4,0-.6,0l.4-.8ZM265.2,380.7s0,0,0,0l1,.5c-.1.1-.3.2-.4.2l-.4-.7ZM265.2,380.8c.1,0,.2-.2.3-.4l1.1.2c0,.2-.3.5-.5.7l-.9-.5ZM265.4,380.4c0-.2,0-.5,0-.7l1.1-.3c.2.4.2.8,0,1.2l-1.1-.2ZM265.4,379.7c-.3-.5-1.2-.9-2.3-1l.2-.8c1.2.1,2.6.5,3.2,1.5l-1.1.3ZM263.2,378.7h-.1s.2-.8.2-.8h.1s-.2.8-.2.8ZM263.7,378.3c0,.2,0,.4,0,.5h-1.2c0-.2,0-.4,0-.6h1.2ZM263.7,378.9c0,.2,0,.4,0,.6h-1.2c0-.1-.1-.4-.1-.6h1.2ZM263.2,376.8c.6.1,1.1.3,1.7.3l-.2.8c-.7,0-1.3-.2-1.9-.4l.4-.7ZM264.6,377.9c-.6-.2-1.2-.4-1.7-.7l.7-.6c.5.2.9.4,1.4.6l-.4.7ZM262.9,377.2c-.3-.1-.5-.3-.8-.4l.8-.6c.2.1.4.3.7.4l-.7.6ZM262.1,376.8c-.3-.2-.5-.4-.8-.6l1-.4c.2.2.4.3.6.5l-.8.6ZM261.3,376.2c-.4-.4-.7-.9-1-1.3l1.1-.2c.2.4.5.8.8,1.1l-1,.4ZM260.4,374.8c-.2-.5-.4-.9-.5-1.4h1.2c.1.3.3.7.5,1.1l-1.1.3ZM259.9,373.4c0-.2-.1-.5-.1-.7h1.2c0,.1,0,.3.1.6h-1.2ZM259.7,372.8s0,0,0,0c0,0,0,0,0,0,0,0,0,0,0,0,0,0,0,0,0,0,0,0,0,0,0,0,0,0,0,0,0,0,0,0,0,0,0,0,0,0,.2.1.4.1l.2-.8c.2,0,.3.1.4.1,0,0,0,0,0,0,0,0,0,0,0,0,0,0,0,0,0,0,0,0,0,0,0,0,0,0,0,0,0,0,0,0,0,0,0,0h-1.2ZM260.2,372.9h0s.2-.8.2-.8h0s-.2.8-.2.8ZM260.2,372.9h-.8c0,0,.1-.9.1-.9h.8c0,0-.1.9-.1.9ZM259.3,372.8c-.5,0-1,0-1.5-.1l.2-.8c.5,0,1,0,1.5.1v.8ZM258.4,372.1c.5.7,1,1.4,1.6,2.1l-1,.4c-.6-.7-1.1-1.4-1.6-2.2l1.1-.3ZM260,374.3c.3.4.6.8,1,1.1l-1,.4c-.4-.4-.7-.8-1-1.2l1-.4ZM261,375.4c.3.3.5.6.9.8l-.9.5c-.4-.3-.7-.6-1-.9l1-.4ZM261.8,376.2c.3.2.8.4,1.4.6l-.4.7c-.6-.2-1.3-.4-1.8-.8l.9-.5ZM251.5,374.6c0,0-.1,0-.2,0l.5-.7c0,0,.2,0,.3,0l-.6.7ZM251.3,374.6h-.1s.5-.7.5-.7h.1s-.5.7-.5.7ZM251.2,374.5h0s.4-.8.4-.8h0s-.4.8-.4.8ZM251.6,374.5h0s-.5-.7-.5-.7h0s.5.7.5.7ZM251.6,374.5c-.2,0-.3.1-.5.2l-.5-.7c.2,0,.3-.1.5-.2l.6.7ZM250.8,374h.7s0,.8,0,.8h-.7s.1-.8.1-.8ZM251.6,374h.1s-.1.8-.1.8h-.1s.1-.8.1-.8ZM251.7,374s0,0,0,0c0,0,0,0,0,0,0,0,0,0,0,0h0s0,0-.1,0c0,0-.2,0-.4,0-.1,0-.2.2-.2.2l1.1.2s0,.1-.2.2c-.2,0-.3.1-.4,0,0,0,0,0,0,0,0,0,0,0,0,0,0,0,0,0,0,0l.2-.8ZM251.2,374.3h0c0-.1,1.1.1,1.1.1h0c0,.1-1.1-.1-1.1-.1ZM250.5,375.4h0c0,0,1.1.2,1.1.2h0c0,0-1.1-.2-1.1-.2ZM250.6,375.4h0s1.1.2,1.1.2h0s-1.1-.2-1.1-.2ZM250.6,375.4s0,0,0,0c0,0,0,0,0,0,0,0,0,0,0,.1,0,.2.2.2.3.3,0,0,0,0,0,0,0,0,0,0,0,0,0,0,0,0,0,0l.4-.7s0,0,0,0c0,0,0,0,0,0,0,0,.2.1.3.3,0,0,0,.1,0,.1,0,0,0,0,0,0,0,0,0,0,0,0l-1.2-.2ZM250.9,375.8c-.2,0-.3,0-.5-.1l.4-.7c.2,0,.3,0,.5.1l-.4.7ZM250.4,375.6c-.3,0-.6-.1-.9-.2l.3-.8c.3,0,.7.1,1,.2l-.4.7ZM249.6,375.5c-.1,0-.3,0-.4,0l.2-.8c.2,0,.3,0,.5,0l-.3.8ZM249.1,375.4h-.2s.2-.8.2-.8h.2s-.2.8-.2.8ZM248.9,375.4h-.1s.1-.8.1-.8h.1s-.2.8-.2.8ZM248.8,375.4s0,0,.1,0c0,0,0,0,0,0,0,0,0,0,0,0,0,0,0,0,0,0l-.5-.7h0s0,0,0,0c0,0,0,0,0,0,0,0,.2,0,.3,0v.8ZM249,375.4c-.3.1-.7.2-1.1.3l-.4-.7c.3,0,.7-.2,1-.3l.5.7ZM248,375.7c-.2,0-.5.1-.7.2l-.4-.7c.2,0,.5-.1.7-.2l.4.7ZM247,375.1c.6,0,1.2,0,1.8,0v.8c-.6,0-1.1,0-1.7,0v-.8ZM248.8,375c.6,0,1.2,0,1.9,0v.8c-.7,0-1.3,0-1.9,0v-.8ZM250.6,375.1h.5s-.1.8-.1.8h-.5s.1-.8.1-.8ZM242.8,377.1h0c0,.1-1.2.2-1.2.2h0c0-.1,1.2-.2,1.2-.2ZM242.4,377.6h0s-.4-.7-.4-.7h0s.4.7.4.7ZM242.3,377.6h-.1s-.2-.8-.2-.8h.1s.2.8.2.8ZM242.2,377.6h-.6c0,0-.2-.7-.2-.7h.6c0,0,.2.7.2.7ZM241.6,377.7l-2,.3-.2-.8,2-.3.2.8ZM239.6,378l-2.1.3-.2-.8,2.1-.3.2.8ZM237.5,378.3h-.7c0,.1-.2-.7-.2-.7h.7c0-.1.2.7.2.7ZM236.8,378.4h-.2s-.3-.7-.3-.7h.2s.3.7.3.7ZM236.5,378.5s0,0,0,0l-.4-.8c0,0,.1,0,.2,0v.8ZM237,378.2l-.3,1.1h-1.2c0-.1.3-1.3.3-1.3h1.2ZM236.7,379.3s0,0,0,.1l-1.1-.2s0,0,0,0h1.2ZM235.9,378.9c.5,0,1.1-.2,1.6-.2l.3.8c-.5,0-1.1.2-1.6.2l-.2-.8ZM237.5,378.7c.9-.1,1.8-.3,2.7-.4l.3.8c-.9.1-1.8.3-2.7.4l-.3-.8ZM240.2,378.3c1-.2,2-.3,3-.5l.3.8c-1,.2-2,.4-3,.5l-.3-.8ZM243.2,377.8c.9-.2,1.8-.4,2.7-.6l.4.7c-.9.2-1.9.4-2.8.6l-.3-.8ZM245.9,377.2c.9-.2,1.7-.5,2.5-.8l.5.7c-.9.3-1.7.5-2.6.8l-.4-.7ZM248.4,377.1c-.6-.2-1.2-.4-1.8-.6l.5-.7c.6.2,1.1.4,1.7.5l-.5.7ZM246.6,376.6c-.2,0-.4-.1-.5-.2l.6-.7c.2,0,.3.1.5.2l-.5.7ZM246.1,376.4h0s.6-.7.6-.7h0s-.6.7-.6.7ZM245.9,376.3c-.2-.1-.2-.3-.2-.3,0,0,0,0,0-.1,0,0,0,0,0,0,0,0,0,0,0,0,0,0,0,0,0,0,0,0,0,0,0,0,0,0,0,0,0,0l1.1.3s0,0,0,0c0,0,0,0,0,0,0,0,0,0,0,0,0,0,0,0,0,0,0,0,0,0,0,0,0,0,0,0,0-.1,0,0,0-.2-.2-.3l-.8.6ZM245.9,375.8c0,0,0-.1.2-.2l1,.4s0,0-.1.1l-1-.4ZM246,375.6c0-.1.2-.2.3-.3l1,.4c-.1.1-.2.2-.2.2l-1-.4ZM247,375.9c-.6.1-1.2.3-1.8.3l-.2-.8c.5,0,1.1-.2,1.6-.3l.4.7ZM245.2,376.3c-.5,0-1,.1-1.5.1v-.8c.3,0,.8,0,1.2-.1l.2.8ZM243.7,376.4c-1,0-2.1.1-3.1.2v-.8c1,0,2,0,3-.2v.8ZM240.6,376.6c-.8,0-1.7,0-2.5,0v-.8c.8,0,1.7,0,2.5,0v.8ZM238,376.6h-.7s0-.8,0-.8h.7s0,.8,0,.8ZM237.4,376.6s0,0,0,0h0s0,0,0,0,0,0,0,0c0,0,0,0,.1,0,0,0,.2,0,.3-.1l-1-.4c0,0,.2-.1.3-.2,0,0,.1,0,.1,0,0,0,.1,0,.1,0s0,0,0,0c0,0,0,0,0,0v.8ZM237.9,376.3h0s-1.1-.1-1.1-.1h0s1.1.1,1.1.1ZM237.8,376.4v.2c-.1,0-1.2-.2-1.2-.2v-.2c.1,0,1.2.2,1.2.2ZM237.7,376.6l-.4,1-1.1-.2.4-1,1.1.2ZM236.7,377.1h1.1c0,0,.1.7.1.7h-1c0,0-.1-.7-.1-.7ZM237.7,377h2.2c0-.1.1.6.1.6h-2.2c0,.1-.1-.6-.1-.6ZM239.9,376.9c.6,0,1.3,0,1.9-.1v.8c-.5,0-1.1,0-1.7.1v-.8ZM241.8,376.7h.4s.1.8.1.8h-.4s-.1-.8-.1-.8Z"/>
            </g>
          </g>
        </g>
      </g>
    </g>
  </g>
</svg>