<svg width="103" height="48" viewBox="0 0 103 48" fill="none" xmlns="http://www.w3.org/2000/svg">
<g id="cloudflare">
<g id="Vector">
<path d="M85.5281 20.7045C85.8328 19.6896 85.7318 18.6747 85.2234 18.0658C84.7159 17.4568 84.0047 17.0508 83.0907 16.9493L65.416 16.7463C65.3144 16.7463 65.2128 16.6448 65.1112 16.6448C65.0096 16.5434 65.0096 16.4418 65.1112 16.3403C65.2128 16.1374 65.3144 16.0358 65.5175 16.0358L83.2935 15.8329C85.4263 15.7314 87.6617 14.006 88.4739 11.9762L89.4898 9.33732C89.4898 9.23584 89.5916 9.13437 89.4898 9.0329C88.3721 3.85672 83.7 0 78.215 0C73.1358 0 68.768 3.24777 67.2443 7.81491C66.2285 7.10453 65.0096 6.69856 63.5876 6.80003C61.1496 7.00298 59.2197 9.0329 58.915 11.4687C58.8134 12.0776 58.915 12.6866 59.0165 13.2955C55.055 13.3971 51.8045 16.6448 51.8045 20.7045C51.8045 21.1105 51.8045 21.415 51.9061 21.8209C51.9061 22.024 52.1093 22.1254 52.2108 22.1254H84.8169C85.0206 22.1254 85.2234 22.024 85.2234 21.8209L85.5281 20.7045Z" fill="#F48120"/>
<path d="M91.115 9.33716H90.6075C90.5057 9.33716 90.4038 9.43863 90.3028 9.54018L89.5916 11.976C89.2869 12.9909 89.388 14.0058 89.8963 14.6148C90.4038 15.2237 91.115 15.6297 92.0291 15.7312L95.7879 15.9342C95.8889 15.9342 95.9907 16.0357 96.0925 16.0357C96.1936 16.1371 96.1936 16.2387 96.0925 16.3402C95.9907 16.5431 95.8889 16.6447 95.686 16.6447L91.8262 16.8476C89.6926 16.9492 87.458 18.6745 86.6458 20.7044L86.4422 21.6178C86.3411 21.7193 86.4422 21.9223 86.6458 21.9223H100.054C100.257 21.9223 100.359 21.8208 100.359 21.6178C100.562 20.8058 100.765 19.8924 100.765 18.979C100.765 13.7013 96.3972 9.33716 91.115 9.33716Z" fill="#FAAD3F"/>
<path d="M102.085 27.6059C101.578 27.6059 101.171 27.1999 101.171 26.6925C101.171 26.185 101.578 25.7791 102.085 25.7791C102.593 25.7791 103 26.185 103 26.6925C103 27.1999 102.593 27.6059 102.085 27.6059ZM102.085 25.982C101.679 25.982 101.375 26.2865 101.375 26.6925C101.375 27.0985 101.679 27.403 102.085 27.403C102.492 27.403 102.796 27.0985 102.796 26.6925C102.796 26.2865 102.492 25.982 102.085 25.982ZM102.492 27.1999H102.289L102.085 26.8954H101.882V27.1999H101.679V26.2865H102.187C102.39 26.2865 102.492 26.388 102.492 26.591C102.492 26.6925 102.39 26.794 102.289 26.8954L102.492 27.1999ZM102.187 26.6925C102.289 26.6925 102.289 26.6925 102.289 26.591C102.289 26.4895 102.187 26.4895 102.187 26.4895H101.882V26.794L102.187 26.6925ZM11.0719 25.7791H13.3067V31.8686H17.1666V33.797H11.0719V25.7791ZM19.5028 29.7373C19.5028 27.403 21.3313 25.5761 23.8707 25.5761C26.4101 25.5761 28.1369 27.403 28.1369 29.7373C28.1369 32.0716 26.3085 33.8984 23.7691 33.8984C21.3313 33.8984 19.5028 32.0716 19.5028 29.7373ZM25.9023 29.7373C25.9023 28.5194 25.0897 27.5044 23.8707 27.5044C22.6518 27.5044 21.8392 28.5194 21.8392 29.6357C21.8392 30.7522 22.6518 31.7671 23.8707 31.7671C25.0897 31.9701 25.9023 30.9552 25.9023 29.7373ZM30.8796 30.2447V25.7791H33.1142V30.2447C33.1142 31.3612 33.7238 31.9701 34.638 31.9701C35.5522 31.9701 36.1616 31.4626 36.1616 30.3462V25.7791H38.3963V30.2447C38.3963 32.8836 36.8726 34 34.638 34C32.3016 33.8984 30.8796 32.782 30.8796 30.2447ZM41.7483 25.7791H44.8973C47.7414 25.7791 49.4682 27.403 49.4682 29.7373C49.4682 32.0716 47.7414 33.797 44.8973 33.797H41.8499L41.7483 25.7791ZM44.8973 31.7671C46.2178 31.7671 47.132 31.0567 47.132 29.7373C47.132 28.4178 46.2178 27.7074 44.8973 27.7074H43.9831V31.7671H44.8973ZM52.6172 25.7791H59.0165V27.7074H54.8519V29.0268H58.6103V30.8537H54.8519V33.797H52.6172V25.7791ZM62.1654 25.7791H64.4002V31.8686H68.2601V33.797H62.1654V25.7791ZM74.05 25.6775H76.2848L79.7384 33.797H77.3001L76.691 32.376H73.5421L72.9327 33.797H70.5964L74.05 25.6775ZM76.0816 30.6507L75.1674 28.4178L74.2532 30.6507H76.0816ZM82.5823 25.7791H86.3411C87.5599 25.7791 88.3721 26.0835 88.9823 26.6925C89.4898 27.1999 89.6926 27.8089 89.6926 28.5194C89.6926 29.7373 89.0833 30.5492 88.0674 30.9552L89.9973 33.797H87.458L85.8328 31.3612H84.8169V33.797H82.5823V25.7791ZM86.2393 29.6357C86.9505 29.6357 87.458 29.2298 87.458 28.7223C87.458 28.1134 86.9505 27.8089 86.2393 27.8089H84.8169V29.7373H86.2393V29.6357ZM92.8421 25.7791H99.343V27.6059H95.0767V28.8238H98.9365V30.6507H95.0767V31.8686H99.444V33.797H92.8421V25.7791ZM6.19622 30.7522C5.89146 31.4626 5.18043 31.9701 4.36781 31.9701C3.1489 31.9701 2.33629 30.9552 2.33629 29.8388C2.33629 28.7223 3.1489 27.7074 4.36781 27.7074C5.28202 27.7074 5.99305 28.3164 6.29781 29.0268H8.63407C8.2278 27.0985 6.60257 25.6775 4.36781 25.6775C1.92997 25.6775 0 27.5044 0 29.8388C0 32.1731 1.8284 34 4.26623 34C6.39939 34 8.02463 32.5791 8.53248 30.7522H6.19622Z" fill="#111928"/>
</g>
</g>
</svg>
