<svg width="106" height="48" viewBox="0 0 106 48" fill="none" xmlns="http://www.w3.org/2000/svg">
<path fill-rule="evenodd" clip-rule="evenodd" d="M105.439 10.8354C105.065 10.4155 104.561 10.2091 103.893 10.2091C103.224 10.2091 102.699 10.4297 102.332 10.8923C101.972 11.3407 101.785 12.0096 101.785 12.8707V19.1903C100.951 18.3007 100.088 17.6673 99.203 17.2403C98.6563 16.977 98.009 16.7849 97.2825 16.6924C96.8582 16.6426 96.4338 16.6141 95.9591 16.6141C93.7582 16.6141 91.9744 17.3613 90.6078 18.8701C89.2556 20.3645 88.5795 22.4497 88.5795 25.1185C88.5795 26.3781 88.7521 27.5595 89.0973 28.6412C89.4426 29.7158 89.9317 30.6623 90.5934 31.4736C91.2551 32.2707 92.0535 32.8898 92.9526 33.3382C93.8517 33.7723 94.8371 33.9929 95.9087 33.9929C96.3979 33.9929 96.8654 33.9502 97.2897 33.8719C97.5846 33.8292 97.8436 33.7509 98.1241 33.6726C98.8002 33.452 99.4331 33.1318 100.009 32.7261C100.606 32.3062 101.188 31.7725 101.785 31.1106V31.5305C101.785 32.3205 101.987 32.9183 102.382 33.3524C102.792 33.7723 103.296 33.9929 103.893 33.9929C104.518 33.9929 105.022 33.7865 105.403 33.388C105.784 32.9681 106 32.3632 106 31.5376V12.643C105.978 11.8602 105.799 11.241 105.439 10.8354ZM100.958 28.2782C100.577 29.0753 100.045 29.6802 99.4187 30.0716C98.7714 30.463 98.0665 30.6481 97.2825 30.6481H97.2682C96.4842 30.6481 95.7865 30.4417 95.132 30.0432C94.4846 29.6233 93.9667 29.0184 93.5927 28.2071C93.2187 27.3958 93.0389 26.3994 93.0389 25.2466C93.0389 24.1435 93.2115 23.1756 93.5711 22.3643C93.9164 21.5388 94.4199 20.8983 95.0528 20.4499C95.7002 19.9945 96.4194 19.781 97.2394 19.781H97.2825C98.0522 19.781 98.7498 20.0016 99.4044 20.4357C100.052 20.8698 100.57 21.4961 100.951 22.3074C101.332 23.1187 101.519 24.115 101.519 25.2466C101.533 26.4564 101.346 27.4669 100.958 28.2782ZM86.9755 28.4633C86.695 28.2284 86.3282 28.1074 85.8607 28.1074C85.4363 28.1074 85.1342 28.2142 84.8969 28.385C84.343 28.8831 83.8899 29.2888 83.5446 29.5806C83.1994 29.8581 82.8182 30.1286 82.3938 30.3919C81.9982 30.641 81.5595 30.8402 81.1207 30.9399C80.6676 31.0608 80.1929 31.1249 79.6606 31.1249C79.5384 31.1249 79.4377 31.1249 79.3298 31.1106C78.668 31.0679 78.0423 30.89 77.4884 30.5627C76.8267 30.1855 76.3089 29.6304 75.8989 28.9116C75.5177 28.1644 75.3019 27.2961 75.2875 26.3283H83.9906C85.1558 26.3283 86.0549 26.1575 86.695 25.8586C87.3423 25.5312 87.6588 24.8338 87.6588 23.7592C87.6588 22.5921 87.3423 21.4534 86.7166 20.3361C86.0908 19.2188 85.1774 18.3078 83.9187 17.6104C82.6743 16.9059 81.1926 16.5643 79.452 16.5643H79.3226C78.0351 16.5785 76.8555 16.7849 75.8126 17.1834C74.7121 17.6033 73.7986 18.194 73.029 18.9555C72.3026 19.7312 71.72 20.6563 71.3316 21.7452C70.9432 22.834 70.7346 24.0154 70.7346 25.2679C70.7346 27.958 71.533 30.0645 73.1081 31.6373C74.6042 33.1175 76.6685 33.9075 79.3082 33.9858C79.452 34 79.6103 34 79.7685 34C80.9985 34 82.1133 33.8434 83.0771 33.5303C84.0409 33.2172 84.8393 32.8258 85.4723 32.3489C86.1052 31.865 86.5871 31.3668 86.8892 30.8545C87.2057 30.3421 87.3639 29.8866 87.3639 29.5023C87.4071 29.0397 87.2632 28.691 86.9755 28.4633ZM76.611 20.6279C77.3158 19.8949 78.2293 19.5248 79.337 19.5248H79.3513C80.5022 19.5248 81.4444 19.8806 82.1493 20.5994C82.8541 21.3182 83.2785 22.4213 83.3648 23.8873H75.3091C75.4601 22.4497 75.8845 21.3609 76.611 20.6279ZM68.0733 28.1003C67.6346 28.1003 67.3325 28.2071 67.0951 28.3779C66.5485 28.876 66.0881 29.2817 65.7429 29.5735C65.3977 29.851 65.0308 30.1214 64.6065 30.3848C64.1965 30.6338 63.7721 30.8331 63.319 30.9327C62.8802 31.0537 62.3911 31.1178 61.8589 31.1178C61.7366 31.1178 61.6359 31.1178 61.528 31.1035C60.8663 31.0608 60.2405 30.8829 59.6867 30.5556C59.0394 30.1784 58.5071 29.6233 58.1259 28.9045C57.7159 28.1573 57.5145 27.289 57.5002 26.3212H66.1888C67.3397 26.3212 68.2387 26.1504 68.8933 25.8515C69.5262 25.5241 69.8499 24.8267 69.8499 23.7521C69.8499 22.5849 69.5478 21.4463 68.922 20.329C68.2963 19.2117 67.3756 18.3007 66.1241 17.6033C64.8798 16.8988 63.3837 16.5572 61.6575 16.5572H61.5136C60.2262 16.5714 59.061 16.7778 58.0036 17.1763C56.9032 17.5962 55.9897 18.1869 55.2345 18.9483C54.4936 19.7241 53.911 20.6492 53.5226 21.7381C53.127 22.8269 52.9256 24.0083 52.9256 25.2608C52.9256 27.9509 53.7312 30.0574 55.3136 31.6302C56.8097 33.1104 58.8668 33.9004 61.4993 33.9787C61.6575 33.9929 61.8013 33.9929 61.9596 33.9929C63.2039 33.9929 64.3044 33.8363 65.2682 33.5232C66.232 33.2101 67.0304 32.8186 67.6561 32.3418C68.3035 31.8579 68.771 31.3597 69.0875 30.8473C69.4039 30.3349 69.5622 29.8795 69.5622 29.4952C69.5622 29.0611 69.4183 28.7195 69.1378 28.4846C68.8933 28.2142 68.5049 28.1003 68.0733 28.1003ZM58.7948 20.6279C59.4997 19.8949 60.4132 19.5248 61.5208 19.5248H61.5352C62.686 19.5248 63.6283 19.8806 64.3331 20.5994C65.0452 21.3182 65.4624 22.4213 65.5631 23.8873H57.5002C57.6584 22.4497 58.0971 21.3609 58.7948 20.6279ZM9.25206 31.1249V20.9125C9.55415 20.941 9.84905 20.9552 10.1368 20.9552C11.5825 20.9552 12.9347 20.578 14.0855 19.9233V31.132C14.0855 32.0856 13.8625 32.7973 13.4094 33.267C12.9563 33.7367 12.3737 33.9715 11.6472 33.9715C10.9423 33.9715 10.3741 33.7367 9.92817 33.2528C9.49661 32.7617 9.25206 32.0714 9.25206 31.1249ZM51.0915 10.8354C50.7175 10.4155 50.2068 10.2091 49.5523 10.2091C48.8762 10.2091 48.3583 10.4297 47.9915 10.8923C47.6175 11.3407 47.4449 12.0096 47.4449 12.8707V19.1903C46.6105 18.3007 45.7474 17.6673 44.8627 17.2403C44.3089 16.977 43.6688 16.7849 42.9567 16.6924C42.5467 16.6426 42.1079 16.6141 41.6332 16.6141C39.4323 16.6141 37.6341 17.3613 36.2819 18.8701C34.9297 20.3645 34.2536 22.4497 34.2536 25.1185C34.2536 26.3781 34.4262 27.5595 34.7571 28.6412C35.1023 29.7158 35.6058 30.6623 36.2675 31.4736C36.9293 32.2707 37.7276 32.8898 38.6267 33.3382C39.5402 33.7723 40.5112 33.9929 41.5829 33.9929C42.0576 33.9929 42.5251 33.9502 42.9639 33.8719C43.2588 33.8292 43.5177 33.7509 43.7982 33.6726C44.4743 33.452 45.1073 33.1318 45.6827 32.7261C46.2797 32.3062 46.8479 31.7725 47.4593 31.1106V31.5305C47.4593 32.3205 47.6607 32.9183 48.0562 33.3524C48.4375 33.7723 48.9697 33.9929 49.5667 33.9929C50.1637 33.9929 50.6816 33.7865 51.0628 33.388C51.444 32.9681 51.631 32.3632 51.631 31.5376V12.643C51.6166 11.8602 51.444 11.241 51.0915 10.8354ZM46.6249 28.2782C46.2437 29.0753 45.7115 29.6802 45.0785 30.0716C44.4456 30.463 43.7263 30.6481 42.9567 30.6481H42.9423C42.1583 30.6481 41.4606 30.4417 40.8061 30.0432C40.1444 29.6233 39.6409 29.0184 39.2669 28.2071C38.8928 27.3958 38.713 26.3994 38.713 25.2466C38.713 24.1435 38.8857 23.1756 39.2309 22.3643C39.5905 21.5388 40.0796 20.8983 40.727 20.4499C41.3599 19.9945 42.0936 19.781 42.8991 19.781H42.9495C43.7191 19.781 44.4168 20.0016 45.0569 20.4357C45.7186 20.8698 46.2365 21.4961 46.6177 22.3074C46.9917 23.1187 47.1859 24.115 47.1859 25.2466C47.1931 26.4564 46.9917 27.4669 46.6249 28.2782ZM21.1918 18.9341V19.4607C21.9902 18.4644 22.8317 17.7456 23.7452 17.2688C24.6874 16.8134 25.7447 16.5714 26.9531 16.5714C28.1183 16.5714 29.1684 16.8205 30.0891 17.3044C31.0169 17.7883 31.693 18.4858 32.139 19.3896C32.4411 19.9162 32.6281 20.4926 32.7072 21.0904C32.7863 21.6811 32.8367 22.464 32.8367 23.4105V31.3526C32.8367 32.2208 32.6281 32.8613 32.2109 33.2955C31.8153 33.7438 31.2687 33.9644 30.6213 33.9644C29.9596 33.9644 29.4274 33.7438 29.003 33.2812C28.5786 32.8329 28.3772 32.1924 28.3772 31.3526V24.236C28.3772 22.8198 28.1758 21.7452 27.7659 20.9979C27.3703 20.2507 26.5503 19.8735 25.3276 19.8735C24.5292 19.8735 23.8171 20.1083 23.1698 20.5567C22.5224 21.0122 22.0333 21.6313 21.7241 22.4426C21.5155 23.0831 21.4076 24.2645 21.4076 26.0223V31.3597C21.4076 32.2351 21.199 32.8685 20.7746 33.3097C20.3503 33.7438 19.818 33.9644 19.1563 33.9644C18.509 33.9644 17.9911 33.7438 17.5667 33.2812C17.1424 32.8329 16.941 32.1924 16.941 31.3526V19.0053C16.941 18.194 17.128 17.5748 17.4948 17.1834C17.8544 16.7778 18.3579 16.5643 19.0053 16.5643C19.3865 16.5643 19.7317 16.6426 20.0482 16.8276C20.3647 17.0126 20.6164 17.2759 20.8178 17.6246C21.1127 18.0089 21.1918 18.4359 21.1918 18.9341ZM9.28084 6.65793C12.273 5.6189 15.6967 5.67584 18.25 7.81082C18.7247 8.24494 19.2714 8.77868 19.48 9.4263C19.7461 10.2234 18.5809 9.34801 18.4083 9.22703C17.5739 8.7004 16.7396 8.25917 15.7973 7.95316C10.7625 6.45867 5.99381 9.15587 3.03045 13.3689C1.8149 15.2192 1.00213 17.1692 0.340409 19.3184C0.275675 19.5533 0.210942 19.8593 0.0742818 20.0657C-0.0551854 20.3005 0.0239334 19.4394 0.0239334 19.3967C0.131823 18.5071 0.318831 17.6531 0.541802 16.792C1.91559 12.2231 4.93649 8.40862 9.28084 6.65793ZM15.0853 14.8847C15.0853 16.8276 13.4957 18.4075 11.5321 18.4075C9.56854 18.4075 7.97897 16.8347 7.97897 14.8847C7.97897 12.9348 9.56854 11.362 11.5321 11.362C13.4957 11.362 15.0853 12.9348 15.0853 14.8847Z" fill="#003B9D"/>
</svg>
