<svg xmlns="http://www.w3.org/2000/svg" width="114" height="27" viewBox="0 0 114 27" fill="none">
<path d="M36.8105 6.05708L41.2314 5.02978V26.6446H36.8105V6.05708Z" fill="#901588"/>
<path d="M57.4098 24.1628C55.9946 25.9692 53.6656 27 51.3641 27C46.9398 27 43.4051 24.0456 43.4051 19.4572C43.4051 14.8688 46.9432 11.9144 51.3641 11.9144C55.4965 11.9144 58.09 14.8688 58.09 19.4572V20.8499H47.826C48.1833 22.5391 49.4508 23.6319 51.1615 23.6319C52.6042 23.6319 53.5797 22.8907 54.3148 21.8841L57.4098 24.1663V24.1628ZM53.6656 17.8301C53.6965 16.3546 52.5458 15.1101 50.9519 15.1101C49.0111 15.1101 47.9462 16.4408 47.8295 17.8301H53.6691H53.6656Z" fill="#901588"/>
<path d="M82.6126 26.6444H78.5421V24.7484H78.4837C77.807 25.7894 76.0929 26.996 74.0902 26.996C69.8445 26.996 67.0449 23.9175 67.0449 19.567C67.0449 15.575 69.5216 11.907 73.5921 11.907C75.4127 11.907 77.1303 12.4069 78.1299 13.7996H78.1883V6.05001L82.6126 5.02271V26.6375V26.6444ZM75.0074 15.8163C72.7918 15.8163 71.4658 17.2952 71.4658 19.4532C71.4658 21.6113 72.7918 23.0902 75.0074 23.0902C77.223 23.0902 78.5421 21.6113 78.5421 19.4532C78.5421 17.2952 77.2161 15.8163 75.0074 15.8163Z" fill="#901588"/>
<path d="M92.4268 11.9146C96.8443 11.9146 100.386 14.8689 100.386 19.4573C100.386 24.0457 96.8443 27.0001 92.4268 27.0001C88.0094 27.0001 84.4609 24.0457 84.4609 19.4573C84.4609 14.8689 88.0025 11.9146 92.4268 11.9146ZM92.4268 23.0943C94.6321 23.0943 95.9649 21.6153 95.9649 19.4573C95.9649 17.2993 94.6356 15.8204 92.4268 15.8204C90.2181 15.8204 88.8853 17.2993 88.8853 19.4573C88.8853 21.6153 90.2112 23.0943 92.4268 23.0943Z" fill="#901588"/>
<path d="M110.351 16.4994C109.702 15.6962 108.85 15.2859 107.785 15.2859C107.05 15.2859 106.168 15.61 106.168 16.4684C106.168 18.5954 113.625 16.7924 113.625 22.2668C113.625 25.9347 110.087 26.9965 107.019 26.9965C105.017 26.9965 102.808 26.4967 101.389 25.0453L104.072 22.0565C104.897 23.0597 105.869 23.6285 107.198 23.6285C108.201 23.6285 109.204 23.363 109.204 22.5943C109.204 20.2846 101.747 22.2392 101.747 16.7614C101.747 13.3899 104.752 11.9144 107.761 11.9144C109.651 11.9144 111.739 12.3867 113.069 13.807L110.355 16.4994H110.351Z" fill="#901588"/>
<path d="M64.8988 12.2695H60.4779V26.6483H64.8988V12.2695Z" fill="#901588"/>
<path d="M64.8988 6.07787H60.4779V9.75618H64.8988V6.07787Z" fill="#901588"/>
<path d="M15.355 16.189L30.4693 6.92256L11.1505 13.2243L15.355 16.189Z" fill="#901588"/>
<path d="M7.60175 0L6.05598 4.67459H29.7304L7.60175 0Z" fill="#901588"/>
<path d="M2.52843 15.3095L9.62526 12.9928L4.49328 9.37659L2.52843 15.3095Z" fill="#901588"/>
<path d="M0 5.36384L4.13238 8.27684L5.10106 5.36384H0Z" fill="#901588"/>
<path d="M33.004 5.36384L5.82581 5.36729L4.71973 8.69396L10.4425 12.7273L33.004 5.36384Z" fill="#901588"/>
</svg>