<svg width="96" height="48" viewBox="0 0 96 48" fill="none" xmlns="http://www.w3.org/2000/svg">
<path d="M16.3121 32.4892C16.3163 34.3733 14.7639 35.9304 12.8365 35.8629C11.1228 35.8038 9.58713 34.3965 9.60808 32.4385C9.62903 30.6029 11.106 29.0901 13.0062 29.1133C14.8729 29.1366 16.3121 30.6578 16.3121 32.4892Z" fill="black"/>
<path d="M12.9685 20.0598C14.7576 20.0345 16.3163 21.5283 16.3121 23.4378C16.308 25.2818 14.8373 26.8326 12.9161 26.8094C11.0746 26.7883 9.59551 25.286 9.60808 23.404C9.62274 21.4587 11.2171 20.024 12.9685 20.0577V20.0598Z" fill="black"/>
<path d="M6.70438 32.4807C6.7358 34.3142 5.21063 35.9029 3.28111 35.8629C1.49616 35.8249 -0.0122583 34.3543 0.000311844 32.4596C0.012882 30.6325 1.48778 29.0901 3.39215 29.1133C5.31748 29.1344 6.72952 30.7316 6.70228 32.4807H6.70438Z" fill="black"/>
<path d="M12.9413 17.7516C11.1144 17.7516 9.56827 16.2452 9.60808 14.3041C9.64579 12.4917 11.0788 10.9937 12.9706 11C14.9022 11.0063 16.3163 12.5761 16.3121 14.3843C16.3059 16.2621 14.81 17.7559 12.9413 17.7516Z" fill="black"/>
<path d="M6.70438 23.4314C6.73371 25.1974 5.3091 26.784 3.40263 26.8072C1.47311 26.8326 -0.0248284 25.2628 0.000311844 23.385C0.0254521 21.4946 1.59672 20.0261 3.4131 20.0577C5.19806 20.0894 6.72742 21.5811 6.70228 23.4314H6.70438Z" fill="black"/>
<path d="M3.34826 17.7516C1.52349 17.7559 0.031837 16.2726 0.00460174 14.4307C-0.0247285 12.5803 1.43131 11 3.35454 11C5.30081 11 6.76314 12.6246 6.70448 14.4855C6.65001 16.2367 5.21701 17.7601 3.34616 17.7495L3.34826 17.7516Z" fill="black"/>
<path d="M22.5763 20.0598C24.3172 20.0345 25.9199 21.4671 25.9157 23.4399C25.9115 25.343 24.3989 26.8136 22.5595 26.8115C20.6907 26.8094 19.2117 25.2966 19.2117 23.4314C19.2117 21.5093 20.785 20.024 22.5763 20.0598Z" fill="black"/>
<path d="M22.57 17.7516C20.741 17.7643 19.2158 16.2726 19.2117 14.3864C19.2075 12.5529 20.6446 11 22.5658 11C24.4408 11 25.9157 12.4917 25.9157 14.3737C25.9157 16.3211 24.3528 17.7601 22.57 17.7516Z" fill="black"/>
<path d="M19.2117 32.4828C19.2158 30.624 20.7033 29.0817 22.6224 29.1133C24.4366 29.1429 25.9136 30.5945 25.9157 32.4849C25.9178 34.4408 24.3235 35.9262 22.4443 35.8607C20.6824 35.7996 19.2158 34.3522 19.2117 32.4828Z" fill="black"/>
<path d="M55.114 17.3592C56.8577 17.3592 58.2712 15.9356 58.2712 14.1796C58.2712 12.4236 56.8577 11 55.114 11C53.3704 11 51.9568 12.4236 51.9568 14.1796C51.9568 15.9356 53.3704 17.3592 55.114 17.3592Z" fill="black"/>
<path d="M60.3327 33.4217V34.1032C60.3327 34.1771 60.3327 34.2488 60.339 34.3205C60.3725 34.9535 60.5883 35.5485 61.1582 35.7046C61.1645 35.7046 61.1728 35.7067 61.1791 35.7067H64.3552L66.3182 35.7046H66.3915C66.4439 35.7046 66.4774 35.6519 66.4586 35.6033C66.3685 35.3755 66.3266 35.0463 66.3182 34.6687V34.2847C66.3182 34.023 66.3182 33.7298 66.3182 33.4639V25.7903C66.3182 25.3092 66.3894 24.8387 66.4984 24.5898L66.5026 24.5792L66.5068 24.5666C66.6555 24.1488 67.2652 22.7837 68.8825 22.7837C70.4999 22.7837 71.2373 23.9252 71.2373 26.1764C71.2373 26.1764 71.2331 32.1769 71.231 33.7424C71.231 33.945 71.231 34.0758 71.231 34.1053L71.2373 34.3437C71.275 34.9683 71.4929 35.5485 72.0544 35.7046C72.0607 35.7046 72.069 35.7067 72.0753 35.7067H77.2919C77.3443 35.7067 77.3778 35.654 77.359 35.6055C77.271 35.386 77.2291 35.0738 77.2186 34.7109V25.5076C77.2186 20.6675 74.8072 17.7791 70.768 17.7791C68.4153 17.7791 66.6492 18.8994 65.6352 20.1042C65.3796 19.0619 64.6694 18.3593 63.6785 18.1715C62.5074 17.95 60.2385 18.1715 60.2385 18.1715L60.0541 18.1947C60.0059 18.201 59.964 18.2348 59.9745 18.2791C60.2678 19.4269 60.3348 21.8701 60.3348 24.1783C60.3348 24.1783 60.3327 30.97 60.3348 33.4217H60.3327Z" fill="black"/>
<path d="M52.1286 18.431C52.1286 18.431 52.1244 32.1748 52.1223 33.7424C52.1223 33.945 52.1223 34.0758 52.1223 34.1053L52.1286 34.3437C52.1663 34.9683 52.3842 35.5485 52.9457 35.7046C52.952 35.7046 52.9604 35.7067 52.9666 35.7067H58.1832C58.2356 35.7067 58.2691 35.654 58.2503 35.6055C58.1623 35.386 58.1204 35.0738 58.1099 34.7109V18.431H52.1265H52.1286Z" fill="black"/>
<path d="M90.4822 24.786H83.7048C83.7572 24.6404 83.8221 24.4801 83.8996 24.307C84.0337 24.0095 84.2411 23.7184 84.5156 23.442C84.7879 23.1677 85.142 22.9335 85.5652 22.7499C85.9842 22.5664 86.4995 22.4736 87.0945 22.4736C87.6895 22.4736 88.2028 22.5664 88.6239 22.7521C89.0471 22.9377 89.3991 23.1698 89.6714 23.4441C89.9459 23.7205 90.1533 24.0117 90.2873 24.3091C90.3649 24.4822 90.4298 24.6425 90.4822 24.7881M95.9984 27.1111C95.9984 26.9929 95.9984 26.8748 95.9984 26.7566C95.9984 26.035 95.8769 25.2691 95.8706 25.2354V25.2248C95.7574 24.613 95.5877 24.0138 95.3615 23.4441C94.9173 22.3111 94.2888 21.311 93.4948 20.4692C92.7008 19.6294 91.7434 18.9606 90.6456 18.4795C89.5457 17.9985 88.3411 17.7537 87.0631 17.7537C85.7851 17.7537 84.5805 18.0133 83.489 18.526C82.4038 19.0366 81.4526 19.7202 80.6607 20.5578C79.8688 21.3975 79.2445 22.3807 78.8087 23.4863C78.6118 23.9821 78.4882 24.3851 78.3792 24.8746C78.3751 24.8851 78.373 24.8999 78.3688 24.9168V24.9231C78.308 25.1299 77.9875 26.4043 78.2787 28.4572L78.2661 28.4635L78.3457 28.8454C78.4651 29.4214 78.6432 29.9784 78.8716 30.4995C79.3492 31.5925 80.0071 32.563 80.8283 33.3795C81.6517 34.1982 82.6133 34.8459 83.6901 35.3059C84.767 35.7658 85.9318 36 87.1511 36C88.8313 36 90.3711 35.5422 91.7308 34.6412C91.8209 34.5822 91.911 34.5189 91.9969 34.4577C92.3824 34.1897 92.7574 33.8817 93.1114 33.542C93.4068 33.2572 93.6897 32.9491 93.9536 32.6263C94.4774 31.9807 94.9362 31.2296 95.3154 30.3962L95.6213 29.7252H92.9522C92.5227 29.7252 91.228 29.7252 91.029 29.7252C90.1847 29.7252 89.8579 29.9679 89.5478 30.2632L89.4954 30.3139C89.4849 30.3244 89.4703 30.3392 89.4556 30.354L89.4263 30.3835C89.2063 30.6071 89.0974 30.6958 88.8208 30.8772C88.4102 31.1473 87.8487 31.2823 87.1532 31.2823C86.2439 31.2823 85.4416 31.0228 84.7691 30.5122C84.1804 30.0649 83.7907 29.4467 83.6084 28.6682H95.9502L95.9795 28.223C96.0047 27.8474 96.0005 27.4719 95.9984 27.109" fill="black"/>
<path d="M28.7859 35.7067V11.114H32.3202C33.6045 11.114 34.8091 11.73 35.5675 12.7744L43.9413 24.3113V11.114H49.9121V35.7067H46.8555C45.5796 35.7067 44.3791 35.097 43.6208 34.0631L34.7567 21.9819V35.7067H28.7859Z" fill="black"/>
</svg>
