<svg width="177" height="68" viewBox="0 0 177 68" fill="none" xmlns="http://www.w3.org/2000/svg">
<g id="nutanix">
<g id="Vector">
<path d="M173.543 47.4646C173.506 46.6528 173.516 45.841 173.543 45.0292C173.543 44.8668 173.699 44.7045 173.782 44.5466C173.948 44.6323 174.164 44.6819 174.265 44.8172C174.596 45.2682 174.885 45.7192 175.23 46.265C175.557 45.7688 175.86 45.3314 176.15 44.8849C176.439 44.4384 176.66 44.3978 177 44.7721V47.7488L176.494 47.9517C176.422 47.798 176.369 47.6358 176.338 47.4691C176.347 46.9504 176.302 46.4321 176.205 45.9222C176.058 46.1206 175.911 46.3191 175.768 46.522C175.308 47.2166 175.175 47.2121 174.683 46.522C174.55 46.3067 174.367 46.1246 174.15 45.9898C174.15 46.4905 174.173 46.9956 174.15 47.4962C174.15 47.6676 173.975 47.8345 173.883 48.0013C173.745 47.8074 173.548 47.6631 173.543 47.4646Z" fill="black"/>
<path d="M170.436 45.1149C170.298 45.0833 170.188 44.93 170.068 44.8308C170.178 44.7406 170.289 44.5737 170.404 44.5692C171.125 44.5692 171.852 44.5421 172.578 44.5692C172.688 44.5692 172.794 44.7766 172.9 44.8894C172.785 44.9706 172.679 45.0968 172.555 45.1194C172.299 45.1374 172.043 45.1374 171.787 45.1194V47.3023C171.787 47.5278 171.608 47.9382 171.511 47.9382C171.052 47.9382 171.19 47.5368 171.18 47.2707V45.1194C170.933 45.1465 170.683 45.1465 170.436 45.1194V45.1149Z" fill="black"/>
<path d="M159.091 35.6482C158.15 34.8364 157.205 34.0306 156.255 33.2308C156.121 33.1553 156.023 33.0308 155.982 32.8845C155.942 32.7383 155.962 32.5822 156.039 32.4506C156.091 32.363 156.165 32.2901 156.255 32.2386C158.144 30.624 160.029 29.0049 161.932 27.4083C162.163 27.2257 162.449 27.1214 162.745 27.1107C164.625 27.1107 166.505 27.1107 168.386 27.1107C168.749 27.1107 169.089 27.1107 169.153 27.679C169.073 27.8282 168.972 27.9663 168.854 28.0894C165.906 30.615 162.954 33.1421 159.996 35.6708C159.886 35.7855 159.733 35.8526 159.572 35.8577C159.411 35.8628 159.255 35.8053 159.137 35.6979L159.091 35.6482Z" fill="black"/>
<path d="M165.526 47.9878C164.84 47.9517 164.153 47.9517 163.467 47.9878C163.079 48.0256 162.687 47.9753 162.322 47.8408C161.957 47.7063 161.628 47.4911 161.362 47.2121C159.721 45.7418 158.024 44.3346 156.351 42.9004C155.818 42.4494 155.823 42.2104 156.351 41.7549C157.234 40.9972 158.126 40.2575 158.994 39.4998C159.054 39.4283 159.128 39.3692 159.211 39.3257C159.295 39.2822 159.386 39.2553 159.48 39.2465C159.574 39.2377 159.669 39.2472 159.759 39.2744C159.849 39.3016 159.933 39.3461 160.006 39.4051C160.041 39.4332 160.074 39.465 160.102 39.4998C162.989 41.9804 165.894 44.4609 168.772 46.9324C168.96 47.0903 168.992 47.424 169.098 47.6721C168.875 47.8032 168.631 47.8977 168.376 47.9517C167.429 48.0058 166.478 47.9878 165.526 47.9878Z" fill="black"/>
<path d="M145.884 27.3678C149.644 30.5609 153.398 33.76 157.146 36.9652C157.647 37.4162 157.652 37.6507 157.146 38.0747C153.38 41.2949 149.612 44.509 145.843 47.7172C145.641 47.8689 145.394 47.9527 145.14 47.9562C144.17 47.9833 143.2 47.9562 142.23 47.9562H139.439C139.184 47.9024 138.94 47.8063 138.718 47.6721C138.824 47.4195 138.865 47.0948 139.053 46.9324C141.687 44.6504 144.344 42.3908 146.997 40.1222C147.778 39.4593 148.555 38.8008 149.332 38.1333C149.966 37.5876 149.966 37.4658 149.332 36.9381L139.09 28.1886C138.887 28.0364 138.742 27.8222 138.676 27.5797C138.635 27.2144 138.934 27.0836 139.279 27.0836H145.222C145.469 27.1021 145.703 27.2022 145.884 27.3678Z" fill="black"/>
<path d="M132.218 47.9923C131.726 47.9923 131.51 47.7894 131.496 47.3293V28.2292C131.496 27.1468 131.593 27.0566 132.71 27.0566H136.029C136.81 27.0566 136.948 27.2009 136.948 27.9586V47.1219C136.948 47.9337 136.907 47.9788 136.107 47.9833C134.788 47.9833 133.496 47.9833 132.2 47.9833L132.218 47.9923Z" fill="black"/>
<path d="M129.795 45.5569C129.694 47.5323 128.646 48.3847 126.66 48.087C125.736 47.9567 124.872 47.5631 124.174 46.955C119.635 43.0673 115.092 39.1887 110.544 35.319C110.34 35.1774 110.123 35.0551 109.896 34.9537C109.808 35.2019 109.749 35.4591 109.721 35.7204V46.7295C109.721 47.7984 109.533 47.9878 108.462 47.9878H105.294C104.559 47.9878 104.288 47.7397 104.288 47.0407V29.6679C104.288 28.1751 104.807 27.4399 106.126 26.9213H107.22C108.94 27.1738 110.103 28.3149 111.33 29.3657C115.375 32.8385 119.431 36.2962 123.498 39.7389C123.718 39.8791 123.956 39.9899 124.206 40.0681C124.294 39.837 124.352 39.5961 124.38 39.351V28.2698C124.38 27.2685 124.573 27.0746 125.571 27.0701C126.568 27.0656 127.676 27.0701 128.724 27.0701C129.543 27.0701 129.795 27.3587 129.795 28.1074V45.5569Z" fill="black"/>
<path d="M102.242 46.9099C98.105 41.0197 93.9311 35.1431 89.8078 29.2394C89.0171 28.1119 88.1805 27.1332 86.7141 26.9167H86.351C85.8352 26.9968 85.3411 27.1777 84.8981 27.4489C84.4551 27.7201 84.0722 28.0759 83.7722 28.4953C79.4512 34.659 75.1195 40.8063 70.777 46.937C70.6952 47.0494 70.6371 47.1767 70.6063 47.3115C70.5755 47.4463 70.5726 47.5858 70.5977 47.7217C70.6483 47.8751 71.0574 47.9698 71.3056 47.9743C72.7215 47.9968 74.1373 47.9743 75.5531 47.9968C75.742 48.0104 75.9309 47.971 76.0978 47.8831C76.2646 47.7953 76.4026 47.6626 76.4954 47.5007C77.5251 46.0079 78.587 44.5376 79.6213 43.0448C79.7056 42.9009 79.8288 42.7827 79.9772 42.7032C80.1256 42.6236 80.2935 42.5857 80.4625 42.5938H92.5383C92.7193 42.5763 92.9016 42.6094 93.0642 42.6892C93.2269 42.769 93.3633 42.8923 93.4576 43.0448C94.4965 44.5481 95.5553 46.0515 96.634 47.5548C96.7881 47.7706 97.0227 47.918 97.2868 47.9653C98.8466 47.9983 100.403 47.9983 101.957 47.9653C102.075 47.9523 102.188 47.9109 102.286 47.8448C102.384 47.7787 102.463 47.69 102.518 47.5864C102.512 47.3356 102.414 47.0953 102.242 46.9099ZM89.0585 37.9213H84.0848C83.4642 37.9213 83.3585 37.7454 83.694 37.2674C84.5077 36.0902 85.3443 34.9266 86.1671 33.754C86.4108 33.4022 86.6268 33.4293 86.852 33.754C87.6841 34.9447 88.5345 36.1263 89.3573 37.317C89.6377 37.768 89.5458 37.9078 89.0447 37.9213H89.0585Z" fill="black"/>
<path d="M76.523 27.0926C77.5573 27.0926 77.755 27.2911 77.755 28.3194V30.7007C77.755 31.4945 77.4792 31.7741 76.6655 31.7741H69.7703C68.851 31.7741 68.7958 31.8237 68.7958 32.7077V46.8648C68.7958 47.7668 68.5751 47.9788 67.6558 47.9833H64.5024C63.629 47.9833 63.3945 47.7578 63.3945 46.8828V32.7798C63.3945 31.8102 63.3486 31.7696 62.3786 31.7696H55.5524C54.633 31.7696 54.3848 31.517 54.3802 30.6466C54.3756 29.7761 54.3802 28.9824 54.3802 28.148C54.3802 27.3136 54.6652 27.0926 55.4834 27.0926H76.523Z" fill="black"/>
<path d="M33.7222 42.7877C34.5806 43.0725 35.4743 43.2424 36.3791 43.2928C39.0453 43.3334 41.7114 43.2928 44.3776 43.2161C44.9413 43.1793 45.496 43.0591 46.0232 42.8599C46.9426 42.5396 47.2552 42.0706 47.2552 41.1099V28.3825C47.2552 27.246 47.4161 27.0926 48.5974 27.0926H51.5716C52.4082 27.0926 52.6748 27.3407 52.6748 28.1435V41.7684C52.6748 44.8668 50.6568 47.0497 47.3149 47.5999C46.1017 47.8206 44.8713 47.9383 43.6375 47.9517C40.2266 47.9517 36.8158 47.8751 33.405 47.7217C31.6417 47.6723 29.9684 46.9469 28.7438 45.7012C28.2568 45.223 27.8727 44.6535 27.6145 44.0267C27.3562 43.3999 27.2291 42.7285 27.2407 42.0526V28.13C27.2407 27.3272 27.4659 27.0972 28.275 27.0926H31.5479C32.3707 27.0926 32.6419 27.3407 32.6511 28.157V41.1866C32.6043 41.5352 32.6867 41.8886 32.8833 42.1825C33.0799 42.4764 33.3776 42.6912 33.7222 42.7877Z" fill="black"/>
<path d="M25.5031 28.0713V45.6245C25.3146 47.6992 24.2068 48.4929 22.1244 48.0464C21.2722 47.8656 20.4812 47.4744 19.826 46.9099C15.3855 43.1004 10.9419 39.2924 6.49529 35.4859C6.40884 35.4017 6.31669 35.3233 6.21948 35.2514C6.01722 35.1386 5.81036 35.0439 5.60351 34.9402C5.52116 35.1491 5.46557 35.3672 5.43802 35.5896V46.7746C5.43802 47.7533 5.22197 47.9743 4.24285 47.9743C3.26373 47.9743 2.22026 47.9472 1.21356 47.9743C0.986972 48.0024 0.756823 47.9737 0.544604 47.8909C0.332385 47.8081 0.145018 47.6738 0 47.5007V29.059C0.285002 28.0849 0.712505 27.2234 1.83872 26.9167H2.873C4.57842 27.1423 5.74141 28.2698 6.95497 29.2981C11.0431 32.8219 15.148 36.3248 19.2698 39.8065C19.4647 39.9281 19.6729 40.0279 19.8904 40.1042C19.9876 39.882 20.0556 39.6487 20.0926 39.4096V28.2698C20.0926 27.2911 20.3041 27.0881 21.3016 27.0836H24.5194C25.2457 27.1062 25.4985 27.3678 25.5031 28.0713Z" fill="black"/>
</g>
</g>
</svg>
