<svg width="480" height="408" viewBox="0 0 480 408" fill="none" xmlns="http://www.w3.org/2000/svg">
<g clip-path="url(#clip0_46_3576)">
<path d="M-102.077 -413.645L-911.319 128.912M-63.0941 -387.703L-872.337 154.854M-24.1108 -361.76L-833.354 180.797M15.208 -335.594L-794.035 206.963M54.1904 -309.652L-755.053 232.905M93.1736 -283.709L-716.069 258.847M132.157 -257.766L-677.086 284.79M171.139 -231.824L-638.104 310.732M210.458 -205.658L-598.785 336.898M249.441 -179.716L-559.802 362.841M288.424 -153.773L-520.819 388.783M327.407 -127.831L-481.836 414.726M366.726 -101.665L-442.517 440.892M405.709 -75.7221L-403.534 466.834M444.691 -49.7799L-364.552 492.777M483.675 -23.8372L-325.568 518.719M522.657 2.10488L-286.586 544.661M561.977 28.2714L-247.267 570.827M600.957 54.2119L-208.286 596.768M639.946 80.1585L-169.297 622.715M-916.698 80.0275L-96.715 625.712M-877.641 53.842L-57.6591 599.527M-838.587 27.6581L-18.6041 573.343M-799.533 1.47428L20.45 547.159M-760.479 -24.7095L59.5042 520.975M-721.425 -50.8934L98.5583 494.791M-682.37 -77.0772L137.612 468.607M-643.316 -103.261L176.667 442.424M-604.262 -129.445L215.721 416.24M-565.208 -155.629L254.775 390.056M-526.154 -181.813L293.829 363.872M-487.1 -207.996L332.883 337.688M-448.045 -234.18L371.937 311.504M-408.991 -260.364L410.992 285.321M-369.937 -286.548L450.046 259.137M-330.883 -312.732L489.1 232.953M-291.829 -338.916L528.154 206.769M-252.775 -365.099L567.208 180.585M-213.721 -391.283L606.262 154.401M-174.666 -417.467L645.316 128.218" stroke="url(#paint0_radial_46_3576)" stroke-opacity="0.8"/>
<path d="M-102.077 -413.645L-911.319 128.912M-63.0941 -387.703L-872.337 154.854M-24.1108 -361.76L-833.354 180.797M15.208 -335.594L-794.035 206.963M54.1904 -309.652L-755.053 232.905M93.1736 -283.709L-716.069 258.847M132.157 -257.766L-677.086 284.79M171.139 -231.824L-638.104 310.732M210.458 -205.658L-598.785 336.898M249.441 -179.716L-559.802 362.841M288.424 -153.773L-520.819 388.783M327.407 -127.831L-481.836 414.726M366.726 -101.665L-442.517 440.892M405.709 -75.7221L-403.534 466.834M444.691 -49.7799L-364.552 492.777M483.675 -23.8372L-325.568 518.719M522.657 2.10488L-286.586 544.661M561.977 28.2714L-247.267 570.827M600.957 54.2119L-208.286 596.768M639.946 80.1585L-169.297 622.715M-916.698 80.0275L-96.715 625.712M-877.641 53.842L-57.6591 599.527M-838.587 27.6581L-18.6041 573.343M-799.533 1.47428L20.45 547.159M-760.479 -24.7095L59.5042 520.975M-721.425 -50.8934L98.5583 494.791M-682.37 -77.0772L137.612 468.607M-643.316 -103.261L176.667 442.424M-604.262 -129.445L215.721 416.24M-565.208 -155.629L254.775 390.056M-526.154 -181.813L293.829 363.872M-487.1 -207.996L332.883 337.688M-448.045 -234.18L371.937 311.504M-408.991 -260.364L410.992 285.321M-369.937 -286.548L450.046 259.137M-330.883 -312.732L489.1 232.953M-291.829 -338.916L528.154 206.769M-252.775 -365.099L567.208 180.585M-213.721 -391.283L606.262 154.401M-174.666 -417.467L645.316 128.218" stroke="url(#paint1_radial_46_3576)" stroke-opacity="0.7"/>
<path d="M132.171 148.135C135.383 145.982 140.597 145.973 143.816 148.115L225.041 202.169C228.26 204.311 228.266 207.794 225.054 209.948L144.016 264.279C140.804 266.433 135.59 266.442 132.37 264.299L51.1458 210.246C47.9263 208.104 47.9203 204.621 51.1325 202.467L132.171 148.135Z" fill="#F9FAFB" stroke="#C9C9C9" stroke-width="2"/>
<path d="M132.171 116.442C135.384 114.289 140.597 114.28 143.817 116.422L225.041 170.476C228.261 172.618 228.267 176.101 225.055 178.255L144.017 232.587C140.804 234.74 135.59 234.749 132.371 232.607L51.1466 178.553C47.927 176.411 47.921 172.928 51.1332 170.774L132.171 116.442Z" fill="#F9FAFB"/>
<path d="M132.171 116.442C135.384 114.289 140.597 114.28 143.817 116.422L225.041 170.476C228.261 172.618 228.267 176.101 225.055 178.255L144.017 232.587C140.804 234.74 135.59 234.749 132.371 232.607L51.1466 178.553C47.927 176.411 47.921 172.928 51.1332 170.774L132.171 116.442Z" fill="url(#paint2_linear_46_3576)" fill-opacity="0.7"/>
<path d="M132.171 116.442C135.384 114.289 140.597 114.28 143.817 116.422L225.041 170.476C228.261 172.618 228.267 176.101 225.055 178.255L144.017 232.587C140.804 234.74 135.59 234.749 132.371 232.607L51.1466 178.553C47.927 176.411 47.921 172.928 51.1332 170.774L132.171 116.442Z" fill="url(#paint3_radial_46_3576)"/>
<path d="M132.171 116.442C135.384 114.289 140.597 114.28 143.817 116.422L225.041 170.476C228.261 172.618 228.267 176.101 225.055 178.255L144.017 232.587C140.804 234.74 135.59 234.749 132.371 232.607L51.1466 178.553C47.927 176.411 47.921 172.928 51.1332 170.774L132.171 116.442Z" stroke="#C9C9C9" stroke-width="2"/>
<path d="M342.533 258.283C343.909 257.358 346.142 257.354 347.52 258.274L412.771 301.81C414.15 302.73 414.152 304.225 412.777 305.15L347.675 348.91C346.3 349.835 344.067 349.839 342.688 348.919L277.438 305.383C276.059 304.463 276.056 302.968 277.432 302.043L342.533 258.283Z" fill="#F9FAFB" stroke="url(#paint4_linear_46_3576)" stroke-width="2"/>
<path d="M342.689 231.198C343.29 230.794 344.133 230.561 345.026 230.56C345.919 230.558 346.762 230.788 347.365 231.19L413.477 275.3C414.071 275.697 414.234 276.116 414.234 276.406C414.235 276.697 414.073 277.117 413.481 277.515L347.52 321.853C346.919 322.257 346.076 322.49 345.183 322.491C344.29 322.493 343.446 322.263 342.844 321.861L276.732 277.751C276.138 277.354 275.975 276.935 275.975 276.645C275.974 276.354 276.135 275.934 276.728 275.536L342.689 231.198Z" fill="#F9FAFB" stroke="url(#paint5_linear_46_3576)" stroke-width="2"/>
<path d="M319.533 30.2828C320.909 29.3582 323.142 29.3543 324.52 30.2742L389.771 73.8102C391.15 74.73 391.152 76.2253 389.777 77.15L324.675 120.91C323.3 121.835 321.067 121.839 319.688 120.919L254.438 77.383C253.059 76.4631 253.056 74.9678 254.432 74.0432L319.533 30.2828Z" fill="#F9FAFB" stroke="url(#paint6_linear_46_3576)" stroke-width="2"/>
<path d="M319.689 3.19766C320.29 2.79361 321.133 2.56136 322.026 2.55982C322.919 2.55829 323.762 2.78764 324.365 3.18962L390.477 47.3002C391.071 47.6967 391.234 48.1161 391.234 48.4065C391.235 48.6968 391.073 49.1169 390.481 49.5154L324.52 93.8534C323.919 94.2574 323.076 94.4897 322.183 94.4912C321.29 94.4927 320.446 94.2634 319.844 93.8614L253.732 49.7508C253.138 49.3544 252.975 48.9349 252.975 48.6445C252.974 48.3542 253.135 47.9341 253.728 47.5357L319.689 3.19766Z" fill="#F9FAFB" stroke="url(#paint7_linear_46_3576)" stroke-width="2"/>
<path d="M155.898 155.974L155.679 155.907L133.957 149.412C133.527 149.287 133.048 149.257 132.59 149.326C132.246 149.377 131.924 149.48 131.65 149.628C131.377 149.777 131.159 149.966 131.013 150.181C130.868 150.395 130.8 150.63 130.815 150.865C130.83 151.1 130.926 151.33 131.097 151.535L139.432 162.597L122.899 173.618L106.399 168C106.093 167.886 105.751 167.82 105.399 167.81C105.048 167.8 104.698 167.845 104.377 167.941C104.056 168.037 103.773 168.182 103.55 168.364C103.327 168.547 103.17 168.761 103.093 168.991C102.988 169.297 103.031 169.618 103.217 169.906L112.848 184.465L112.941 184.612C114.331 186.71 116.703 188.447 119.701 189.561C122.698 190.675 126.159 191.105 129.56 190.788L129.6 190.784L129.691 190.776L145.742 189.243L153.734 188.502L158.59 188.052C159.16 187.999 159.688 187.824 160.096 187.552C160.504 187.28 160.769 186.927 160.85 186.546L161.54 183.298L162.678 177.953L165.054 167.148L165.059 167.118C165.547 164.843 164.918 162.526 163.265 160.516C161.613 158.506 159.027 156.912 155.898 155.974Z" fill="#E24329"/>
<path d="M155.898 155.974L155.679 155.908C153.333 158.276 151.797 160.96 151.182 163.769L147.878 179.323L162.683 177.95L165.059 167.145L165.065 167.114C165.551 164.84 164.92 162.524 163.266 160.514C161.613 158.505 159.027 156.912 155.898 155.974Z" fill="#FC6D26"/>
<path d="M145.743 189.243L153.734 188.502L158.59 188.052C159.16 187.999 159.689 187.824 160.096 187.552C160.504 187.28 160.769 186.927 160.85 186.546L161.54 183.298L162.678 177.953L147.873 179.327L145.743 189.243Z" fill="#FCA326"/>
<path d="M124.607 181.485C120.409 181.886 116.393 182.904 112.848 184.465L112.941 184.612C114.33 186.71 116.703 188.447 119.701 189.561C122.698 190.675 126.159 191.105 129.56 190.787L129.6 190.784L129.691 190.776L145.742 189.243L147.855 179.338L124.607 181.485Z" fill="#FC6D26"/>
</g>
<defs>
<radialGradient id="paint0_radial_46_3576" cx="0" cy="0" r="1" gradientUnits="userSpaceOnUse" gradientTransform="translate(-353.389 202.71) rotate(-168.068) scale(233.418 176.005)">
<stop stop-color="#CAD1DF"/>
<stop offset="1" stop-color="#DBE2F0" stop-opacity="0"/>
</radialGradient>
<radialGradient id="paint1_radial_46_3576" cx="0" cy="0" r="1" gradientUnits="userSpaceOnUse" gradientTransform="translate(190.688 244.364) rotate(-58.9283) scale(287.759 216.98)">
<stop stop-color="#BEC4D1"/>
<stop offset="1" stop-color="#DBE2F0" stop-opacity="0"/>
</radialGradient>
<linearGradient id="paint2_linear_46_3576" x1="75.1048" y1="153.59" x2="136.117" y2="244.591" gradientUnits="userSpaceOnUse">
<stop stop-color="#7048E8"/>
<stop offset="0.308435" stop-color="#4AC1E8"/>
<stop offset="0.626149" stop-color="#A112FF"/>
<stop offset="1" stop-color="#FF5543"/>
</linearGradient>
<radialGradient id="paint3_radial_46_3576" cx="0" cy="0" r="1" gradientUnits="userSpaceOnUse" gradientTransform="translate(142.076 171) rotate(135.634) scale(95.8188 88.5549)">
<stop offset="0.300294" stop-color="#F9FAFB"/>
<stop offset="0.813568" stop-color="#F9FAFB" stop-opacity="0.818127"/>
<stop offset="1" stop-color="#F9FAFB" stop-opacity="0.6"/>
</radialGradient>
<linearGradient id="paint4_linear_46_3576" x1="392.213" y1="297.662" x2="307.754" y2="322.725" gradientUnits="userSpaceOnUse">
<stop stop-color="#C9C9C9" stop-opacity="0"/>
<stop offset="1" stop-color="#C9C9C9"/>
</linearGradient>
<linearGradient id="paint5_linear_46_3576" x1="408.076" y1="336" x2="285.576" y2="277" gradientUnits="userSpaceOnUse">
<stop stop-color="#C9C9C9" stop-opacity="0"/>
<stop offset="1" stop-color="#C9C9C9"/>
</linearGradient>
<linearGradient id="paint6_linear_46_3576" x1="369.213" y1="69.6619" x2="284.754" y2="94.7247" gradientUnits="userSpaceOnUse">
<stop stop-color="#C9C9C9" stop-opacity="0"/>
<stop offset="1" stop-color="#C9C9C9"/>
</linearGradient>
<linearGradient id="paint7_linear_46_3576" x1="359.576" y1="12" x2="322.104" y2="95.4912" gradientUnits="userSpaceOnUse">
<stop stop-color="#C9C9C9" stop-opacity="0"/>
<stop offset="1" stop-color="#C9C9C9"/>
</linearGradient>
<clipPath id="clip0_46_3576">
<rect width="480" height="408" fill="white"/>
</clipPath>
</defs>
</svg>
