<svg xmlns="http://www.w3.org/2000/svg" width="172" height="56" viewBox="0 0 172 56" fill="none">
    <path
        d="M56.7046 34.9911C55.6522 34.9911 55.4185 34.1697 55.4185 32.8791V19.5036C55.4185 14.9276 52.8464 12.2291 48.5204 12.2291C43.3761 12.2291 41.0377 16.2183 41.0377 20.0901V20.2075H44.5452V20.0901C44.5452 18.7995 45.0129 17.5089 45.8313 16.4529C46.5329 15.749 47.4682 15.3969 48.4034 15.3969C50.508 15.3969 51.6772 17.0396 51.6772 19.7382V21.0287L47.5851 23.0234C42.9084 25.2526 39.8685 27.0126 39.8685 31.5884C39.8685 35.5776 42.4408 38.3936 46.182 38.3936C48.5204 38.2762 50.625 37.2202 51.911 35.343C52.3786 37.2202 54.0154 38.3936 55.8861 38.3936C56.5876 38.3936 57.2892 38.2762 57.9907 37.9243H58.1075V34.639L57.8737 34.7564C57.5229 34.8737 57.1722 34.9911 56.7046 34.9911ZM51.6772 24.314V32.1751C50.7418 33.9351 48.988 34.9911 47.0005 35.2257C45.2467 35.343 43.7269 33.9351 43.6099 32.1751C43.6099 32.0578 43.6099 31.823 43.6099 31.7058C43.6099 28.6552 46.299 27.0126 48.6373 25.8393L51.6772 24.314Z"
        fill="white" />
    <path
        d="M72.2544 4.72018L72.1376 12.6986H68.8638V16.1012H72.1376V32.5273C72.1376 36.1645 73.8913 38.2765 77.048 38.2765C78.3341 38.2765 79.6202 37.9244 80.7894 37.2205H80.9062V33.8179L80.6725 34.0526C79.9709 34.6391 79.0356 35.1086 78.1003 35.1086C76.4634 35.1086 76.1127 33.7005 76.1127 32.5273V16.1012H81.4908V12.6986H76.1127V4.72018H72.2544Z"
        fill="white" />
    <path
        d="M32.1521 31.9407C30.7491 34.0526 29.1122 35.1086 27.5924 35.1086C25.6047 35.1086 24.7864 33.114 24.7864 31.2367V12.6986H21.045V31.4714C21.045 35.8125 23.0326 38.3939 26.4232 38.3939C28.7615 38.3939 30.866 37.2205 32.1521 35.3432L32.2689 37.9245H35.8934V12.6986H32.1521V31.9407Z"
        fill="white" />
    <path
        d="M12.8608 15.045C11.9255 13.285 10.0548 12.2291 7.95033 12.3464C5.72892 12.3464 3.74134 13.5197 2.45525 15.2797C0.818416 17.5088 0 20.9115 0 25.2526C0 34.8737 3.85824 38.2762 7.48266 38.2762C9.47024 38.2762 11.224 37.4549 12.3932 35.9295V55.8756H16.1345V12.6984H12.8608V15.045ZM12.5101 18.4476V32.1751C11.4578 34.0523 10.1717 34.9909 8.53492 34.9909C5.49508 34.9909 3.85824 31.7058 3.85824 25.2526C3.85824 19.0341 5.612 15.5143 8.65182 15.5143C10.4056 15.5143 11.9255 16.8049 12.5101 18.4476Z"
        fill="white" />
    <path d="M64.8888 0.965576H61.1474V37.807H64.8888V0.965576Z" fill="white" />
    <path d="M102.77 12.6986H99.0284V37.8072H102.77V12.6986Z" fill="white" />
    <path d="M102.887 4.72018H99.1452V9.06138H102.887V4.72018Z" fill="white" />
    <path
        d="M88.7397 15.6316L88.5058 12.6984H84.9983V37.9243H88.7397V19.7382C90.3765 16.3357 92.5979 15.8662 94.7024 15.8662L95.6378 15.9836V12.2291H94.5856C91.8964 12.2291 90.4935 13.0504 88.7397 15.6316Z"
        fill="white" />
    <path
        d="M133.401 22.9061C131.064 21.7327 129.427 20.6768 129.427 18.5648C129.427 16.9222 130.713 15.5143 132.349 15.5143C132.467 15.5143 132.584 15.5143 132.7 15.5143C133.636 15.5143 134.571 15.8662 135.156 16.5702C135.974 17.5089 136.324 18.7995 136.091 20.0901V20.3248H139.598V20.2075C139.833 18.0955 139.131 15.9836 137.727 14.3411C136.442 13.0504 134.571 12.2291 132.817 12.3464C128.842 12.3464 125.919 15.045 125.919 18.9169C125.919 23.1408 129.31 24.9007 131.648 26.1912C133.987 27.4819 136.324 28.7726 136.324 31.3537C136.442 33.3484 134.804 35.1083 132.817 35.1083C132.7 35.1083 132.7 35.1083 132.584 35.1083C130.245 35.1083 128.491 33.1137 128.374 30.1805V30.0632H124.867V30.1805C124.984 35.2256 127.907 38.3936 132.584 38.3936C136.442 38.6282 139.715 35.695 139.949 31.9404C139.949 31.7058 139.949 31.3537 139.949 31.1191C139.833 26.3086 136.442 24.5487 133.401 22.9061Z"
        fill="white" />
    <path
        d="M118.787 29.9461C118.787 31.4714 118.32 32.8793 117.384 34.0526C116.8 34.6393 115.981 34.9913 115.163 34.9913C112.24 34.9913 110.72 31.5887 110.72 25.2529C110.72 18.9171 112.24 15.3972 115.163 15.3972C115.981 15.3972 116.683 15.7492 117.267 16.2186C118.086 17.2746 118.553 18.6825 118.553 20.0904H122.061C122.178 17.8611 121.476 15.6319 119.956 13.9893C118.67 12.6987 117.034 12.112 115.28 12.112C109.902 12.112 106.979 16.6879 106.979 25.1356C106.979 33.5833 109.785 38.1592 115.046 38.1592C119.255 38.1592 121.827 35.1086 122.178 29.8288L118.787 29.9461Z"
        fill="white" />
    <path
        d="M145.093 35.8125C145.21 35.6953 145.21 35.4606 145.21 35.3432C145.21 35.1086 145.093 34.8739 144.977 34.7567C144.742 34.6393 144.509 34.522 144.276 34.522H142.989V37.2206H143.69V36.1646H144.158L144.626 37.1032H145.328L144.742 36.0472C144.86 36.0472 144.977 35.9299 145.093 35.8125ZM144.509 35.5779C144.392 35.5779 144.276 35.6953 144.158 35.6953H143.69V34.9913H144.158C144.276 34.9913 144.392 34.9913 144.509 35.1086C144.626 35.226 144.626 35.226 144.626 35.3432C144.626 35.4606 144.509 35.5779 144.509 35.5779Z"
        fill="white" />
    <path
        d="M146.263 34.8739C146.145 34.6393 146.029 34.2872 145.796 34.17C145.561 33.9353 145.328 33.8179 145.093 33.7007C144.509 33.466 143.808 33.466 143.222 33.7007C142.989 33.8179 142.638 33.9353 142.521 34.17C142.287 34.4046 142.17 34.6393 142.054 34.8739C141.82 35.4605 141.82 36.1646 142.054 36.8685C142.17 37.1032 142.287 37.4551 142.521 37.5725C142.755 37.8072 142.989 37.9244 143.222 38.0418C143.808 38.2765 144.509 38.2765 145.093 38.0418C145.328 37.9244 145.678 37.8072 145.796 37.5725C146.029 37.3378 146.145 37.1032 146.263 36.8685C146.496 36.1646 146.496 35.4605 146.263 34.8739ZM145.796 36.6339C145.678 36.8685 145.561 37.1032 145.444 37.2205C145.328 37.3379 145.093 37.5725 144.86 37.5725C144.392 37.8072 143.808 37.8072 143.34 37.5725C143.106 37.4551 142.872 37.3379 142.755 37.2205C142.638 36.9858 142.405 36.8685 142.405 36.6339C142.17 36.1646 142.17 35.5779 142.405 35.1086C142.521 34.8739 142.638 34.6393 142.755 34.5219C142.872 34.4046 143.106 34.17 143.34 34.17C143.808 33.9353 144.392 33.9353 144.86 34.17C145.093 34.2872 145.328 34.4046 145.444 34.5219C145.561 34.7565 145.796 34.8739 145.796 35.1086C146.029 35.5779 146.029 36.1646 145.796 36.6339Z"
        fill="white" />
    <path
        d="M167.028 4.57336L163.754 16.0717L160.247 4.57336H152.531L149.958 9.26654L147.153 4.57336H143.294L147.854 11.9651L142.827 20.1782H146.451L149.608 14.781L152.881 20.1782H158.727V9.38384C158.844 9.85316 158.844 10.2052 158.962 10.5571C159.078 10.9091 159.078 11.1438 159.195 11.4958C159.311 11.7304 159.311 12.0824 159.429 12.3171C159.546 12.5517 159.546 12.7864 159.662 13.1384L162.001 20.2954H165.041L167.379 13.1384C167.496 12.5518 167.729 11.9651 167.847 11.4958C167.964 10.9091 168.08 10.3225 168.197 9.73582V20.4128H171.471V4.80796L167.028 4.57336ZM151.712 11.9651L155.804 5.16001V18.5355L151.712 11.9651Z"
        fill="white" />
</svg>