<svg xmlns="http://www.w3.org/2000/svg" width="24" height="25" viewBox="0 0 24 25" fill="none">
    <path fill-rule="evenodd" clip-rule="evenodd"
        d="M14.71 14.9656H15.5L20.49 19.9656L19 21.4556L14 16.4656V15.6756L13.73 15.3956C12.59 16.3756 11.11 16.9656 9.5 16.9656C5.91 16.9656 3 14.0556 3 10.4656C3 6.87558 5.91 3.96558 9.5 3.96558C13.09 3.96558 16 6.87558 16 10.4656C16 12.0756 15.41 13.5556 14.43 14.6956L14.71 14.9656ZM5 10.4656C5 12.9556 7.01 14.9656 9.5 14.9656C11.99 14.9656 14 12.9556 14 10.4656C14 7.97558 11.99 5.96558 9.5 5.96558C7.01 5.96558 5 7.97558 5 10.4656Z"
        fill="#0F111A" />
</svg>