<?xml version="1.0" encoding="UTF-8" standalone="no"?>
<!-- Created with Inkscape (http://www.inkscape.org/) -->

<svg
   xmlns:dc="http://purl.org/dc/elements/1.1/"
   xmlns:cc="http://creativecommons.org/ns#"
   xmlns:rdf="http://www.w3.org/1999/02/22-rdf-syntax-ns#"
   xmlns:svg="http://www.w3.org/2000/svg"
   xmlns="http://www.w3.org/2000/svg"
   xmlns:sodipodi="http://sodipodi.sourceforge.net/DTD/sodipodi-0.dtd"
   xmlns:inkscape="http://www.inkscape.org/namespaces/inkscape"
   id="svg2985"
   version="1.1"
   inkscape:version="0.48.4 r9939"
   width="306.108"
   height="74.211189"
   xml:space="preserve"
   sodipodi:docname="Leidos_Transition_logo_Generic.svg"><metadata
     id="metadata2991"><rdf:RDF><cc:Work
         rdf:about=""><dc:format>image/svg+xml</dc:format><dc:type
           rdf:resource="http://purl.org/dc/dcmitype/StillImage" /></cc:Work></rdf:RDF></metadata><defs
     id="defs2989"><clipPath
       clipPathUnits="userSpaceOnUse"
       id="clipPath2999"><path
         d="m 0,88.889 170.833,0 L 170.833,0 0,0 0,88.889 z"
         id="path3001"
         inkscape:connector-curvature="0" /></clipPath><clipPath
       clipPathUnits="userSpaceOnUse"
       id="clipPath5210"><rect
         style="fill:#0000ff;fill-rule:evenodd;stroke:#000000;stroke-width:0.80000001px;stroke-linecap:butt;stroke-linejoin:miter;stroke-opacity:1"
         id="rect5212"
         width="118.4"
         height="33.200001"
         x="-12.1302"
         y="-7.629097"
         transform="scale(1,-1)" /></clipPath><clipPath
       clipPathUnits="userSpaceOnUse"
       id="clipPath5214"><rect
         style="fill:#0000ff;fill-rule:evenodd;stroke:#000000;stroke-width:0.80000001px;stroke-linecap:butt;stroke-linejoin:miter;stroke-opacity:1"
         id="rect5216"
         width="118.4"
         height="33.200001"
         x="-8.7341995"
         y="-17.035797"
         transform="scale(1,-1)" /></clipPath><clipPath
       clipPathUnits="userSpaceOnUse"
       id="clipPath5218"><rect
         style="fill:#0000ff;fill-rule:evenodd;stroke:#000000;stroke-width:0.80000001px;stroke-linecap:butt;stroke-linejoin:miter;stroke-opacity:1"
         id="rect5220"
         width="118.4"
         height="33.200001"
         x="-6.5516"
         y="-7.4894972"
         transform="scale(1,-1)" /></clipPath><clipPath
       clipPathUnits="userSpaceOnUse"
       id="clipPath5222"><rect
         style="fill:#0000ff;fill-rule:evenodd;stroke:#000000;stroke-width:0.80000001px;stroke-linecap:butt;stroke-linejoin:miter;stroke-opacity:1"
         id="rect5224"
         width="118.4"
         height="33.200001"
         x="34.799999"
         y="-70.799995"
         transform="scale(1,-1)" /></clipPath></defs><sodipodi:namedview
     pagecolor="#ffffff"
     bordercolor="#666666"
     borderopacity="1"
     objecttolerance="10"
     gridtolerance="10"
     guidetolerance="10"
     inkscape:pageopacity="0"
     inkscape:pageshadow="2"
     inkscape:window-width="1258"
     inkscape:window-height="790"
     id="namedview2987"
     showgrid="false"
     inkscape:zoom="2"
     inkscape:cx="102.61112"
     inkscape:cy="9.3435159"
     inkscape:window-x="0"
     inkscape:window-y="0"
     inkscape:window-maximized="0"
     inkscape:current-layer="g2993"
     inkscape:snap-page="true"
     fit-margin-top="0"
     fit-margin-left="0"
     fit-margin-right="0"
     fit-margin-bottom="0" /><g
     id="g2993"
     inkscape:groupmode="layer"
     inkscape:label="Leidos_Transition_logo_Generic"
     transform="matrix(1.25,0,0,-1.25,-4.1595,120.42322)"><path
       d="m 103.512,61.834 -4.235,0 0,-3.513 4.235,0 0,3.513 z m -4.236,-5.907 4.235,0 0,-13.725 -4.235,0 0,13.725 z m 47.776,-4.04 c -0.617,0.766 -1.436,1.16 -2.453,1.16 -0.707,0 -1.552,-0.313 -1.552,-1.13 0,-2.031 7.143,-0.309 7.143,-5.533 0,-3.505 -3.385,-4.523 -6.329,-4.523 -1.919,0 -4.035,0.479 -5.392,1.866 l 2.568,2.853 c 0.791,-0.959 1.725,-1.496 2.994,-1.496 0.961,0 1.921,0.252 1.921,0.984 0,2.206 -7.143,0.339 -7.143,5.567 0,3.219 2.878,4.631 5.757,4.631 1.813,0 3.815,-0.453 5.091,-1.807 l -2.605,-2.572 z m -17.168,-6.295 c 2.114,0 3.388,1.411 3.388,3.473 0,2.062 -1.274,3.477 -3.388,3.477 -2.119,0 -3.393,-1.415 -3.393,-3.477 0,-2.062 1.274,-3.473 3.393,-3.473 m 0,10.674 c 4.236,0 7.623,-2.823 7.623,-7.201 0,-4.377 -3.387,-7.204 -7.623,-7.204 -4.24,0 -7.627,2.827 -7.627,7.204 0,4.378 3.387,7.201 7.627,7.201 m -16.69,-3.724 c -2.117,0 -3.386,-1.415 -3.386,-3.477 0,-2.062 1.269,-3.473 3.386,-3.473 2.119,0 3.391,1.411 3.391,3.473 0,2.062 -1.272,3.477 -3.391,3.477 m 7.287,-10.34 -3.896,0 0,1.808 -0.057,0 c -0.649,-0.991 -2.293,-2.149 -4.212,-2.149 -4.063,0 -6.747,2.942 -6.747,7.092 0,3.812 2.372,7.313 6.27,7.313 1.747,0 3.387,-0.48 4.349,-1.807 l 0.059,0 0,7.397 4.234,0.978 0,-20.632 z m -27.733,8.414 c 0.031,1.412 -1.068,2.599 -2.597,2.599 -1.863,0 -2.88,-1.274 -2.994,-2.599 l 5.591,0 z m 3.589,-6.044 c -1.356,-1.721 -3.589,-2.711 -5.79,-2.711 -4.236,0 -7.627,2.827 -7.627,7.204 0,4.378 3.391,7.201 7.627,7.201 3.958,0 6.44,-2.823 6.44,-7.201 l 0,-1.327 -9.83,0 c 0.343,-1.612 1.556,-2.654 3.192,-2.654 1.383,0 2.316,0.704 3.023,1.663 l 2.965,-2.175 z m -19.736,17.284 4.241,0.978 0,-20.632 -4.241,0 0,19.654 z"
       style="fill:#151641;fill-opacity:1;fill-rule:nonzero;stroke:none"
       id="path3521"
       inkscape:connector-curvature="0"
       clip-path="url(#clipPath5222)"
       transform="matrix(2.25,0,0,2.25,-89.7135,-57.217625)" /><g
       id="g3523"
       transform="matrix(2.25,0,0,2.25,3.3276,85.231)"
       clip-path="url(#clipPath5218)"><path
         d="M 0,0 4.441,-3.291 5.579,-0.14 0,0 z M 14.446,-10.7 9.827,-7.274 31.605,-0.798 14.446,-10.7 z"
         style="fill:#d7d4d4;fill-opacity:1;fill-rule:nonzero;stroke:none"
         id="path3525"
         inkscape:connector-curvature="0" /></g><g
       id="g3527"
       transform="matrix(2.25,0,0,2.25,8.23845,63.751825)"
       clip-path="url(#clipPath5214)"><path
         d="M 0,0 7.645,2.272 2.259,6.256 0,0 z M 5.228,14.483 3.396,9.407 29.422,8.748 5.228,14.483 z"
         style="fill:#151641;fill-opacity:1;fill-rule:nonzero;stroke:none"
         id="path3529"
         inkscape:connector-curvature="0" /></g><g
       id="g3531"
       transform="matrix(2.25,0,0,2.25,15.87945,84.9169)"
       clip-path="url(#clipPath5210)"><path
         d="M 0,0 -1.137,-3.151 4.249,-7.135 26.026,-0.659 0,0 z"
         style="fill:#89188b;fill-opacity:1;fill-rule:nonzero;stroke:none"
         id="path3533"
         inkscape:connector-curvature="0" /></g></g></svg>