<svg data-name="Layer 1" xmlns="http://www.w3.org/2000/svg" viewBox="0 0 57.82 44"><path d="m18 2.12 7.39 4.81L16.8 20a10.4 10.4 0 0 1 6.1 3.61 10.51 10.51 0 0 1 2.49 7.05A11.41 11.41 0 0 1 22 38.91a11.19 11.19 0 0 1-8.34 3.44 11.83 11.83 0 0 1-8.34-3.61A11.63 11.63 0 0 1 2 30.31a15.81 15.81 0 0 1 .86-5 18.8 18.8 0 0 1 2.75-5.16Zm30.26 0 7.39 4.81L47.05 20a10.4 10.4 0 0 1 6.11 3.61 10.51 10.51 0 0 1 2.49 7.05 11.41 11.41 0 0 1-3.35 8.25 11.2 11.2 0 0 1-8.3 3.44 11.81 11.81 0 0 1-8.34-3.61 11.63 11.63 0 0 1-3.35-8.43 15.53 15.53 0 0 1 .86-5 18.8 18.8 0 0 1 2.75-5.16Z" style="fill:#ccc"/></svg>