<svg width="88" height="87" viewBox="0 0 88 87" fill="none" xmlns="http://www.w3.org/2000/svg">
<path d="M40.2481 7.23184C40.2481 7.23184 41.4308 9.76027 39.7587 12.5606C38.9159 13.9471 17.5873 18.4875 9.26795 30.0421C4.17029 38.0217 -3.64612 61.1311 21.3256 76.424C32.5404 82.2014 37.2983 82.0247 37.2983 82.0247C37.2983 82.0247 29.8217 76.7639 34.5795 73.1887C39.3373 69.6136 46.2973 67.9279 48.1733 62.9934C50.3755 64.6926 53.9506 68.2542 57.349 67.9143C57.0092 65.7122 56.1664 64.8557 58.8715 64.5159C61.5767 64.1761 62.9497 64.1761 62.9497 64.1761C62.9497 64.1761 60.4076 62.137 57.5122 61.9739C54.6167 61.8107 49.1928 56.1965 49.3559 53.8176C52.9175 51.7786 57.5122 48.3801 60.2309 49.3997C62.9497 50.4192 65.6684 52.1184 66.1714 53.6409C66.1714 54.6604 65.6684 56.3596 67.8706 55.0003C70.0728 53.6409 69.5698 52.7981 70.4126 50.9221C71.2554 49.0462 71.4322 48.72 69.5698 47.1839C67.7075 45.6478 63.2895 42.0862 59.7144 43.1057C56.1392 44.1253 48.6762 47.0072 44.9379 43.4456C46.4604 40.0472 48.8394 34.6096 47.6567 30.8714C49.8589 29.1721 52.4145 27.3098 52.7544 24.2512C55.2964 23.9114 60.7339 22.3889 59.7144 19.6701C58.6948 16.9514 51.4629 4.89371 40.4112 7.27262" fill="white"/>
<path d="M75.5239 34.9904C77.3863 30.0694 80.4449 21.7365 77.563 21.3966C74.6811 21.0568 71.4458 28.8732 70.603 30.9122C69.7602 32.9513 66.3618 43.1466 68.2241 44.506C70.0864 45.8654 75.5239 34.9904 75.5239 34.9904Z" fill="white"/>
<path d="M59.7144 21.7364C60.2445 20.9071 60.6931 21.6276 58.4094 21.7907C56.1256 21.9539 53.3797 22.6607 52.9175 23.6667C52.0475 25.529 51.7484 30.1373 48.4315 31.1568C48.2684 32.3395 48.4315 35.0582 53.0942 35.5748C57.7569 36.0914 57.9336 33.0328 60.6523 33.1143C63.3711 33.1959 63.1128 32.19 62.1748 31.4151C61.2369 30.6403 58.0151 25.4746 58.0151 23.7754C58.0151 22.0762 59.1162 22.6743 59.7144 21.7364ZM17.9951 72.9712C17.9951 72.9712 16.5542 69.1514 20.7955 67.1123C25.0367 65.0732 28.8565 66.6909 29.6314 68.1318C30.4062 69.5728 28.3672 75.3501 21.0537 75.4317C19.2729 73.9907 17.9951 72.9712 17.9951 72.9712Z" fill="#DA687D"/>
<g opacity="0.7">
<path d="M76.0682 24.1629C76.1362 24.4178 76.1022 24.6897 76.1022 24.9785C76.1022 25.2504 76.0852 25.5393 76.0002 25.8112C76.0172 25.8621 76.0002 25.9471 76.0002 26.0151C75.9323 26.1 75.9833 26.168 75.9663 26.236C76.0682 26.3379 76.2211 26.4569 76.1532 26.5928C76.1192 26.6778 76.0172 26.7117 75.9153 26.7457C75.8643 26.9836 75.7963 27.2555 75.7454 27.5274C75.7454 27.5953 75.7454 27.6973 75.7284 27.7653C75.6774 27.9352 75.6264 28.0881 75.5754 28.275C75.5415 28.428 75.5754 28.7168 75.4055 28.7508C75.3375 28.9207 75.3036 29.0567 75.2186 29.2266C75.1846 29.2436 75.1506 29.2096 75.1167 29.2266C75.0657 29.2776 75.0827 29.3625 75.0317 29.4135C74.9977 29.4475 74.9467 29.4305 74.9297 29.4645C74.8788 29.5494 74.8958 29.6684 74.8448 29.7873C74.7679 29.854 74.7044 29.9347 74.6579 30.0252C74.5729 30.2121 74.5559 30.467 74.403 30.6199C74.369 30.6539 74.284 30.6709 74.2331 30.7219C74.1991 30.7559 74.1651 30.8239 74.1311 30.8748C74.0801 30.9428 74.0292 31.0448 73.9782 31.1297C73.8083 31.4186 73.5874 31.7584 73.4174 32.0813C73.4004 32.1322 73.3834 32.2172 73.3665 32.2682C73.3155 32.4041 73.2135 32.5231 73.1626 32.659C73.0776 32.8629 72.9417 33.2198 72.7377 33.4067C72.7208 33.4237 72.6698 33.4407 72.6358 33.4746C72.6188 33.5086 72.6188 33.5596 72.5848 33.6106C72.5848 33.6276 72.5168 33.6276 72.4999 33.6615C72.4659 33.6955 72.4489 33.7295 72.4319 33.7635C72.3639 33.8145 72.262 33.8485 72.211 33.9164C72.177 33.9674 72.16 34.0354 72.109 34.1033C72.0581 34.1713 71.9901 34.2223 71.9391 34.3073C71.7862 34.5112 71.7182 34.783 71.4803 34.868C71.4293 34.885 71.3444 34.885 71.2764 34.902C71.2254 34.851 71.2764 34.766 71.2594 34.7151C71.2594 34.6811 71.2254 34.6641 71.2085 34.6301C71.1915 34.5621 71.1575 34.4092 71.1575 34.3242C71.1575 34.2393 71.2085 34.1713 71.2085 34.0524C71.2085 33.9674 71.1915 33.8485 71.1915 33.7465C71.1915 33.6955 71.1915 33.6446 71.1915 33.5936C71.1915 33.5086 71.1915 33.4576 71.1915 33.3557C71.1915 33.2367 71.1915 33.1178 71.1745 32.9989C71.2254 32.71 71.2594 32.4891 71.3444 32.1662C71.3784 32.0303 71.4633 31.7754 71.5313 31.6055C71.6672 31.2996 71.8032 30.9428 71.9731 30.603C72.0241 30.501 72.109 30.416 72.16 30.2971C72.177 30.2461 72.194 30.1612 72.211 30.0932C72.4829 29.5324 72.8567 29.0397 73.1456 28.4449C73.3834 27.9692 73.6213 27.5274 73.9442 27.0006C74.0801 26.7627 74.1991 26.5078 74.352 26.3209C74.454 26.185 74.6239 25.9131 74.7428 25.6582C74.7768 25.5733 74.7768 25.4883 74.9127 25.4713C75.0317 25.3184 75.1336 25.1315 75.2696 24.9955C75.3036 24.9615 75.3545 24.9446 75.3885 24.9276C75.4225 24.8936 75.4395 24.8426 75.4905 24.8086C75.5754 24.7406 75.7284 24.6727 75.8303 24.5367C75.8473 24.5028 75.8643 24.4688 75.8983 24.4348C75.9663 24.3498 76.0852 24.1289 76.2042 24.0949C76.2042 24.0949 76.2381 24.0949 76.2551 24.0949" fill="#DA687D"/>
</g>
<g opacity="0.7">
<path d="M74.9807 27.6293C75.0826 27.9521 75.0996 28.3259 75.1336 28.6828C75.1336 29.0396 75.1166 29.4474 75.0147 29.8553C75.0147 29.9232 74.9977 30.0422 74.9977 30.1271C74.9127 30.2461 74.9637 30.331 74.9297 30.433C75.0486 30.5689 75.2016 30.7049 75.1166 30.9088C75.0656 31.0447 74.9297 31.0787 74.8107 31.1467C74.7088 31.4695 74.6068 31.8603 74.5049 32.2172C74.4879 32.3191 74.4709 32.4381 74.4369 32.54C74.352 32.7609 74.25 32.9818 74.182 33.2367C74.1141 33.4406 74.1311 33.8144 73.9102 33.8484C73.8082 34.0693 73.7572 34.2392 73.6383 34.4601C73.5873 34.4941 73.5533 34.4431 73.5023 34.4601C73.4514 34.5281 73.4344 34.6301 73.3834 34.698C73.3494 34.732 73.2984 34.732 73.2645 34.783C73.1965 34.8849 73.2135 35.0379 73.1455 35.1908C73.0738 35.2559 73.0109 35.3302 72.9586 35.4117L72.9416 35.4457C72.8397 35.7176 72.8057 36.0574 72.6357 36.2783C72.5848 36.3463 72.4998 36.3633 72.4488 36.4312C72.4148 36.4822 72.3809 36.5842 72.3299 36.6521C72.2789 36.7541 72.2109 36.89 72.16 37.009C71.99 37.4168 71.7352 37.8926 71.5652 38.3683C71.5483 38.4533 71.5313 38.5552 71.5143 38.6402C71.4463 38.8271 71.3443 39.014 71.2934 39.201C71.1914 39.4898 71.0555 39.9996 70.7836 40.2715C70.7666 40.3054 70.6986 40.3394 70.6647 40.3734C70.6307 40.4244 70.6477 40.4924 70.5967 40.5603C70.5797 40.5773 70.5287 40.5943 70.4947 40.6283C70.4607 40.6793 70.4438 40.7302 70.4098 40.7812C70.3248 40.8662 70.2059 40.9172 70.1209 41.0191C70.0699 41.0871 70.0359 41.189 69.968 41.274C69.9 41.359 69.815 41.4609 69.7301 41.5459L69.4242 41.9877C69.3393 42.1236 69.2203 42.2426 69.0844 42.2935C69.0164 42.3275 68.9145 42.3105 68.8295 42.3275C68.7785 42.2595 68.8295 42.1576 68.8295 42.0726C68.8295 42.0386 68.7955 41.9877 68.7955 41.9537C68.7955 41.8517 68.7785 41.6648 68.7955 41.5629C68.7955 41.4609 68.8805 41.376 68.9145 41.223C68.9315 41.1041 68.9145 40.9681 68.9145 40.8322C68.9145 40.7812 68.9315 40.7133 68.9315 40.6283C68.9315 40.5263 68.9315 40.4754 68.9484 40.3394C68.9654 40.1865 68.9484 40.0336 68.9315 39.8806C68.9994 39.5238 69.0334 39.2349 69.1354 38.8101C69.1693 38.6232 69.2543 38.2834 69.3393 38.0625C69.4072 37.8416 69.4922 37.6207 69.5602 37.3828C69.6281 37.1449 69.7131 36.907 69.7981 36.6691C69.849 36.5162 69.934 36.3802 70.002 36.2103C70.0359 36.1254 70.0359 36.0234 70.0699 35.9215C70.1379 35.7176 70.2229 35.4967 70.3248 35.3097C70.4187 35.1216 70.515 34.9347 70.6137 34.749L70.7666 34.4431C70.8176 34.3582 70.8686 34.2562 70.9195 34.1543C71.0269 33.9531 71.1289 33.7491 71.2254 33.5426C71.3929 33.2154 71.5685 32.8924 71.7522 32.574C71.9528 32.2434 72.1567 31.9149 72.3639 31.5885C72.5508 31.2826 72.7377 30.9427 72.9246 30.6879C73.0606 30.501 73.2815 30.1611 73.4344 29.8213C73.4854 29.7023 73.4854 29.6004 73.6213 29.5834C73.7742 29.3795 73.8932 29.1416 74.0291 28.9547C74.0631 28.9207 74.1141 28.8867 74.165 28.8357C74.199 28.7847 74.233 28.7168 74.267 28.6658C74.352 28.5638 74.5389 28.4619 74.6408 28.241C74.6578 28.19 74.6578 28.139 74.6918 28.0711C74.7428 27.9351 74.8617 27.6123 74.9807 27.5443C74.9807 27.5443 75.0147 27.5443 75.0316 27.5443" fill="#DA687D"/>
</g>
<path d="M71.2963 31.4287C71.2963 31.4287 69.9369 36.6351 70.5078 40.9443L71.2963 31.4287ZM72.9003 27.9079C72.8052 27.5545 72.1255 38.0081 72.3294 38.3751C72.5197 38.7286 73.5392 30.1237 72.9003 27.9079Z" fill="white"/>
<path d="M40.4657 7.87073C40.4657 7.87073 41.2541 12.3839 33.8999 14.7628C26.5457 17.1417 16.3911 19.1671 8.91458 28.1254C1.43802 37.0701 0.0786469 51.9009 5.1763 61.6476C10.274 71.3807 22.7258 83.5064 45.1555 83.5064C67.5852 83.5064 85.4066 66.2967 85.4066 54.4021C85.4066 48.1762 81.9946 49.5628 80.8119 55.3945C79.7516 60.6689 69.869 80.3526 45.0604 80.3526C20.2518 80.3526 7.5688 65.2907 5.97833 52.3767C4.40146 39.4626 7.99021 28.3429 21.0266 21.6548C34.0494 14.9803 42.3144 17.6446 40.5065 7.89791" fill="#2D2B2C"/>
<path d="M34.2805 42.7523C34.2805 42.7523 32.8124 49.5492 25.6757 52.8253C18.5389 56.1014 15.4803 57.923 14.4608 63.5779C17.1796 59.0512 25.1047 58.1404 29.5227 53.7225C33.9407 49.3045 34.2805 42.7387 34.2805 42.7387M36.1972 26.9972C36.1972 26.9972 42.3144 34.9223 49.5599 31.0753C56.8053 27.2283 53.0671 18.2836 52.9583 17.7126C52.8496 17.1553 53.7467 27.6769 48.3228 29.4848C42.8853 31.2928 36.2108 26.9972 36.2108 26.9972M20.2382 74.3578C20.2382 74.3578 24.0852 74.5753 26.9127 71.4215C29.7402 68.2542 28.1497 63.2653 32.7988 61.4573C37.4343 59.6494 40.6152 60.7776 40.6152 60.7776C40.6152 60.7776 32.3502 61.9059 31.6705 66.6637C30.9908 71.4215 29.8625 73.5694 28.0546 75.0375C26.2466 76.5056 23.8677 76.7367 23.8677 76.7367L20.2518 74.3578H20.2382Z" fill="#2D2B2C"/>
<path d="M37.7061 49.6988C37.7061 49.6988 44.5845 48.5569 47.7246 41.5425C50.2939 35.806 48.5675 30.8442 48.5675 30.8442L45.0875 31.3472C45.0875 31.3472 46.5284 35.5069 45.4273 39.2452C44.3262 42.9835 41.7842 47.3063 37.7061 49.6852M74.7626 33.7805C72.3157 39.9113 68.6862 44.3156 68.2648 44.0845C67.5036 43.6631 68.2104 38.3072 70.6573 32.1628C73.1042 26.0321 76.1628 21.3558 77.2911 21.8044C78.4193 22.2394 77.2095 27.6361 74.7626 33.7805ZM78.3242 21.4645C75.5375 19.9556 72.0982 25.6106 69.2843 32.2172C66.4704 38.8238 66.1442 44.1389 68.3192 45.0905C71.2146 46.3547 73.947 41.3114 76.7609 34.7049C79.5748 28.0983 80.839 22.8103 78.3242 21.451" fill="#2D2B2C"/>
<path d="M27.606 54.7692C27.606 54.7692 29.3596 60.0299 38.1411 58.956C46.4061 57.9365 49.9541 54.7556 55.011 51.6018C58.6269 49.3453 58.4094 50.3648 58.858 50.4735C59.3066 50.5823 61.3456 51.8329 63.4935 51.6018C63.6022 52.7301 62.4875 51.8193 62.0253 52.8389C61.8078 53.5185 63.7381 56.7131 66.5521 56.2373C71.1875 55.4488 69.8825 53.5185 70.7933 51.3707C71.6905 49.2229 72.3158 48.0946 67.8027 45.036C64.2955 41.8687 62.3652 42.6707 60.666 42.6707C58.9667 42.6707 54.5488 45.036 51.4902 44.4787C48.4316 43.9214 46.5149 42.7795 46.5149 42.7795L44.4894 45.036C44.4894 45.036 48.2141 47.8635 52.5233 46.844C56.8189 45.8245 59.9999 42.5484 63.7382 44.2476C67.4764 45.9468 68.1969 47.0751 69.3388 47.9179C70.6302 48.8695 70.7525 49.889 69.8417 50.7998C68.9446 51.697 69.8417 52.3767 69.2844 53.3962C68.7271 54.4157 65.886 54.8643 65.886 54.8643C65.886 54.8643 68.9853 50.8813 65.2063 50.5687C62.4875 50.3512 60.7883 46.7217 56.9413 48.652C51.4222 51.4115 43.5786 56.1285 38.1411 56.6859C32.8531 57.2296 30.8956 55.5576 29.5363 52.3903C27.9594 53.7496 27.6196 54.7692 27.6196 54.7692" fill="#2D2B2C"/>
<path d="M47.0858 55.8975C47.0858 55.8975 50.9328 57.9366 49.8046 62.3546C48.6763 66.7725 43.5786 69.8311 40.2889 71.2992C37.0128 72.7674 34.566 74.7113 37.0128 75.9347C39.0519 76.9542 40.1802 74.3578 43.13 73.8956C46.0663 73.4471 48.6763 74.5753 48.9074 76.2746C47.6703 75.5949 46.7596 75.5949 46.7596 75.5949C46.7596 75.5949 47.7791 76.2746 47.8878 77.4028C47.9966 78.5311 47.7791 77.9602 47.0994 77.9602C45.4002 77.9602 45.1827 76.4921 43.701 76.7232C39.9627 77.063 39.7452 78.6399 37.7061 78.871C35.6671 79.0885 32.2686 77.9738 32.7308 75.3638C33.1794 72.7674 36.6866 70.9458 39.9763 69.5864C43.2524 68.2271 48.2413 63.9314 47.5616 60.0708C46.8819 56.2238 43.9456 57.0122 43.9456 57.0122L47.113 55.8839L47.0858 55.8975ZM56.7374 23.8299C56.7374 23.8299 58.3414 24.6319 59.361 28.71C60.0406 30.1782 60.9378 31.3608 61.7399 31.7007C62.5283 32.0405 61.4 32.3803 60.8427 32.258C60.2853 32.1492 59.0891 31.6463 58.3006 32.3124C57.5122 32.9785 55.5819 34.8 52.8631 34.3514C50.1444 33.9028 47.8335 32.1764 47.8335 32.1764C47.8335 32.1764 48.853 36.676 54.9022 36.3905C59.1027 36.2002 58.1783 34.0116 61.0194 33.563C63.8469 33.1144 63.5478 31.6871 62.9361 30.5044C61.9846 28.6421 58.9803 28.1935 58.6405 22.7288C58.3006 22.1714 56.18 22.7967 56.751 23.8163M66.4297 52.2408C66.6744 52.4855 64.4314 57.5832 64.4314 57.5832C64.4314 57.5832 63.9828 58.8202 62.773 58.3852C61.536 57.9366 61.8622 57.0394 61.8622 57.0394L64.7441 51.8058C64.7441 51.8058 66.321 52.1185 66.4433 52.2408M69.6242 44.9953L69.0669 46.6946L67.2181 45.2808L67.7075 44.2069L69.6242 44.9953Z" fill="#2D2B2C"/>
<path d="M48.8937 54.8779C48.5539 56.115 52.8495 63.374 55.7993 62.9118C58.7356 62.4632 59.1842 63.3604 58.287 63.9314C57.3898 64.4887 55.7993 64.7198 56.0304 65.5082C56.2479 66.2967 56.8732 67.0851 55.4187 66.8676C53.9506 66.6501 50.9464 65.0597 49.1384 62.0011C48.5811 63.809 48.35 64.38 48.35 64.38C48.35 64.38 54.1273 70.3748 60.0134 67.8871C58.9939 67.0987 56.1664 67.3298 58.5453 65.9704C60.9242 64.6111 62.7321 64.1625 63.8604 66.3103C64.4178 66.2015 64.4178 61.2126 56.9548 61.5525C54.3584 61.2126 50.8376 56.115 50.8376 53.5186C50.1579 54.1982 49.2607 53.6273 48.9209 54.8779M71.9487 29.8246C71.9487 29.8246 70.467 34.2834 71.0923 37.9809L71.9487 29.8246ZM73.4712 27.1875C73.4032 26.9156 72.7915 34.9631 72.9275 35.235C73.0634 35.5068 73.9198 28.9003 73.4712 27.1875ZM53.6787 22.7287C53.6787 22.7287 60.0678 22.1714 58.9395 19.6157C55.5275 11.9353 49.0296 7.44934 37.0264 7.89793C43.8232 5.17918 49.6006 5.51903 55.1468 10.2768C57.92 12.6557 59.1978 15.5512 60.1901 17.767C61.767 21.3014 61.3048 21.6276 59.5648 22.62C57.4306 23.8162 53.7603 23.055 53.6787 22.7287Z" fill="#2D2B2C"/>
<path d="M54.3041 23.6803C54.3041 23.6803 56.0577 24.8902 57.4442 23.8978C58.0695 23.2453 58.4909 22.8919 56.7102 22.9734L54.5216 22.8919C53.0127 22.5928 53.0398 23.0414 54.3177 23.6803H54.3041Z" fill="#2D2B2C"/>
</svg>
