<svg width="125" height="91" viewBox="0 0 125 91" fill="none" xmlns="http://www.w3.org/2000/svg">
<path d="M67.1906 16.6602V9.33009L2 2V89L67.1906 81.6699V74.3398" stroke="#242521" stroke-width="3"/>
<path d="M9.71338 51.5954L9.47718 46.7356L12.9759 45.7827V27.5307C12.9759 26.7049 12.9119 26.1576 12.7839 25.8888C12.656 25.62 12.3214 25.3733 11.7801 25.1485L9.38123 23.7704L9.52147 19.4823H35.577C35.7985 22.8199 35.9092 26.0769 35.9092 29.2533L32.3588 29.4879L28.9487 25.2951L21.7078 25.1045V33.5854L31.9307 32.6838V40.0212L21.7078 38.9217V43.8768C21.7078 44.6392 21.7644 45.1303 21.8776 45.3502C21.9907 45.575 22.286 45.7973 22.7633 46.0172L25.642 47.7325L25.4943 51.5954H9.71338ZM53.6166 52.2625C48.3071 52.2625 44.3483 50.9284 41.7403 48.2602C39.1323 45.5921 37.8283 41.541 37.8283 36.1069C37.8283 32.5836 38.4852 29.527 39.7991 26.937C41.108 24.347 42.9779 22.3533 45.4088 20.9557C47.8396 19.5581 50.7331 18.8593 54.089 18.8593C64.777 18.8593 70.121 24.2762 70.121 35.1101C70.121 38.6676 69.464 41.7316 68.1502 44.302C66.8413 46.8773 64.9468 48.8466 62.4667 50.21C59.9866 51.5783 57.0366 52.2625 53.6166 52.2625ZM54.6205 45.6874C56.4461 45.6874 58.1881 45.2256 59.8464 44.302C60.2007 43.3198 60.4738 42.0907 60.6657 40.615C60.8576 39.1392 60.9535 37.6854 60.9535 36.2535C60.9535 32.7302 60.2892 30.0621 58.9606 28.2491C57.6369 26.441 55.6957 25.537 53.1369 25.537C51.3113 25.537 49.5521 25.8693 47.8593 26.5339C47.505 27.1398 47.2319 28.1318 47.04 29.5099C46.8481 30.8928 46.7521 32.4737 46.7521 34.2524C46.7521 37.937 47.4238 40.764 48.7672 42.7333C50.1106 44.7027 52.0617 45.6874 54.6205 45.6874ZM83.5473 52.1672C80.0339 52.1672 76.4688 51.6272 72.852 50.5472C73.0095 47.4002 73.2654 44.4779 73.6197 41.7804L77.3102 41.0621L79.7091 45.1156C81.6282 45.7802 83.3234 46.1125 84.7948 46.1125C85.3065 46.1125 86.394 45.9708 88.0572 45.6874C88.1212 45.0521 88.1532 44.6245 88.1532 44.4046C88.1532 43.6374 88.0253 43.0559 87.7694 42.66C87.5135 42.2642 86.955 41.8195 86.0938 41.326C85.2278 40.8324 83.6753 40.0945 81.4363 39.1123C78.6856 37.7782 76.7025 36.3415 75.4871 34.8022C74.2717 33.258 73.6639 31.4377 73.6639 29.3413C73.6639 26.0721 74.7834 23.5163 77.0224 21.674C79.2663 19.8317 82.3368 18.9106 86.2341 18.9106C88.1237 18.9106 90.0034 19.0938 91.8733 19.4603C93.7432 19.8268 95.3843 20.3253 96.7966 20.9557C96.7277 22.7344 96.5825 24.9432 96.3611 27.5821L96.2208 29.6345L92.7148 30.1549L89.0685 25.537C87.917 25.1851 86.4777 25.0092 84.7505 25.0092C83.663 25.0092 82.8461 25.1045 82.2999 25.2951C82.1424 25.9303 82.0637 26.4215 82.0637 26.7684C82.0637 27.4672 82.2384 28.0805 82.5878 28.6083C82.9421 29.1311 83.567 29.6711 84.4626 30.2282C85.3582 30.7804 86.6868 31.4719 88.4484 32.3026C91.0023 33.5048 92.9362 34.5676 94.25 35.4912C95.5639 36.4099 96.4841 37.3702 97.0106 38.3719C97.5371 39.3737 97.8004 40.5881 97.8004 42.015C97.8004 45.162 96.5358 47.6396 94.0065 49.4477C91.4821 51.2607 87.9957 52.1672 83.5473 52.1672ZM110.754 52.1672C107.236 52.1672 103.668 51.6272 100.052 50.5472C100.214 47.4002 100.47 44.4779 100.819 41.7804L104.517 41.0621L106.916 45.1156C108.835 45.7802 110.53 46.1125 112.002 46.1125C112.514 46.1125 113.601 45.9708 115.264 45.6874C115.328 45.0521 115.36 44.6245 115.36 44.4046C115.36 43.6374 115.232 43.0559 114.976 42.66C114.721 42.2642 114.16 41.8195 113.293 41.326C112.432 40.8324 110.882 40.0945 108.643 39.1123C105.893 37.7782 103.91 36.3415 102.694 34.8022C101.479 33.258 100.871 31.4377 100.871 29.3413C100.871 26.0721 101.99 23.5163 104.229 21.674C106.468 19.8317 109.539 18.9106 113.441 18.9106C115.326 18.9106 117.206 19.0938 119.08 19.4603C120.95 19.8268 122.589 20.3253 123.996 20.9557C123.932 22.7344 123.787 24.9432 123.561 27.5821L123.42 29.6345L119.914 30.1549L116.268 25.537C115.117 25.1851 113.677 25.0092 111.95 25.0092C110.863 25.0092 110.048 25.1045 109.507 25.2951C109.345 25.9303 109.263 26.4215 109.263 26.7684C109.263 27.4672 109.441 28.0805 109.795 28.6083C110.144 29.1311 110.767 29.6711 111.662 30.2282C112.558 30.7804 113.886 31.4719 115.648 32.3026C118.207 33.5048 120.141 34.5676 121.45 35.4912C122.764 36.4099 123.684 37.3702 124.21 38.3719C124.737 39.3737 125 40.5881 125 42.015C125 45.162 123.738 47.6396 121.213 49.4477C118.684 51.2607 115.198 52.1672 110.754 52.1672Z" fill="#242521"/>
<path d="M9.55669 71.422L9.4324 68.9026L11.2529 68.4089V58.9339C11.2529 58.508 11.2188 58.2248 11.1505 58.0844C11.0823 57.9441 10.9068 57.8158 10.6241 57.6996L9.38123 56.9808L9.45434 54.7591H22.9726C23.0896 56.4871 23.1481 58.1764 23.1481 59.827L21.3057 59.9504L19.5364 57.7722L15.7785 57.6778V62.0777L21.0864 61.6058V65.4176L15.7785 64.844V67.4142C15.7785 67.8111 15.8077 68.0676 15.8662 68.1838C15.9247 68.3 16.0782 68.4162 16.3268 68.5323L17.8183 69.4181L17.7452 71.422H9.55669ZM32.9596 71.7415C30.5177 71.7415 28.7289 71.1025 27.5933 69.8247C26.4576 68.5468 25.8898 66.5405 25.8898 63.8057V58.9339C25.8898 58.508 25.8605 58.2248 25.802 58.0844C25.7435 57.9441 25.5803 57.8158 25.3122 57.6996L24.5153 57.2277L24.5957 54.7591H32.3601L32.4844 57.2059L30.4154 57.7722V62.8401C30.4154 64.5584 30.6664 65.9113 31.1684 66.8987C31.6656 67.8861 32.5185 68.3798 33.7273 68.3798C34.127 68.3798 34.5145 68.3218 34.8898 68.2056C35.2602 68.0894 35.5795 67.9345 35.8475 67.7409C36.0132 67.3585 36.1278 66.8503 36.1912 66.2162C36.2594 65.5821 36.2935 64.7302 36.2935 63.6605V58.9339C36.2935 58.508 36.2594 58.2248 36.1912 58.0844C36.1278 57.9441 35.9548 57.8158 35.6721 57.6996L34.4511 57.0099L34.5754 54.7591H41.9669L42.0985 57.431L40.7972 57.7722V63.3628C40.7972 66.0153 40.1148 68.0749 38.7501 69.5415C37.3804 71.0082 35.4503 71.7415 32.9596 71.7415ZM56.4357 72.1408L47.7427 60.887L48.1668 67.3706C48.1863 67.7482 48.2277 67.995 48.2911 68.1112C48.3593 68.2274 48.5104 68.3508 48.7444 68.4815L50.0384 69.3455L49.9361 71.422H43.4657L43.3414 68.7284L44.6867 68.4089L44.7817 58.6653C44.7817 58.3506 44.7574 58.1353 44.7086 58.0191C44.6599 57.9078 44.5429 57.7771 44.3577 57.627L43.4365 56.9373L43.612 54.7591H48.7663L56.2822 64.3285L55.9385 58.8105C55.919 58.4184 55.8776 58.1643 55.8142 58.0481C55.746 57.932 55.5949 57.8085 55.3609 57.6778L54.0669 56.8356L54.1473 54.7591H60.5665L60.6688 57.2785L59.3967 57.823L59.2943 71.1969L56.4357 72.1408ZM67.0149 71.4946C65.2212 71.4946 63.5689 71.422 62.0579 71.2768L61.9337 68.9026L63.7541 68.4089V58.9847C63.7541 58.5588 63.72 58.2756 63.6518 58.1353C63.5884 57.9949 63.4154 57.8666 63.1327 57.7504L61.8386 57.0317L61.9848 54.9842C63.7103 54.8487 65.1627 54.7446 66.3423 54.672C67.5218 54.5994 68.4674 54.5631 69.179 54.5631C71.4698 54.5631 73.3098 54.8269 74.6989 55.3545C76.0831 55.8821 77.0945 56.7146 77.733 57.8521C78.3715 58.9896 78.6908 60.4973 78.6908 62.3754C78.6908 64.7472 78.1424 66.6664 77.0458 68.133C76.0661 69.4012 74.7671 70.2797 73.1489 70.7686C71.5307 71.2526 69.4861 71.4946 67.0149 71.4946ZM70.1514 67.9587C71.5454 67.9587 72.6493 67.7942 73.4633 67.465C73.6144 67.0536 73.7509 66.4122 73.8727 65.541C73.9995 64.6649 74.0628 63.8469 74.0628 63.0869C74.0628 61.2282 73.6753 59.8536 72.9004 58.963C72.1303 58.0723 70.958 57.627 69.3837 57.627C69.1644 57.627 68.9645 57.6343 68.7842 57.6488C68.599 57.6682 68.4235 57.6851 68.2578 57.6996V67.8353C68.9255 67.9176 69.5567 67.9587 70.1514 67.9587ZM79.8606 71.422L79.7363 68.9026L81.5567 68.4089V58.9339C81.5567 58.508 81.5226 58.2248 81.4544 58.0844C81.3861 57.9441 81.2131 57.8158 80.9353 57.6996L79.6851 56.9808L79.7655 54.7591H93.2838C93.3959 56.4871 93.452 58.1764 93.452 59.827L91.6096 59.9504L89.8476 57.7722L86.0823 57.6778V61.7074L91.3902 61.2573V65.0691L86.0823 64.5027V68.4815L90.2204 68.4089L92.1359 66.2307L93.9784 66.3542C93.9101 68.0822 93.7858 69.7715 93.6055 71.422H79.8606ZM95.6234 71.422L95.4991 68.9026L97.3122 68.4089V58.9847C97.3122 58.5588 97.2805 58.2756 97.2172 58.1353C97.1489 57.9949 96.9735 57.8666 96.6908 57.7504L95.3967 57.0317L95.5429 55.006C98.0336 54.6429 100.432 54.4614 102.737 54.4614C104.531 54.4614 105.976 54.6381 107.073 54.9914C108.169 55.3448 108.971 55.8966 109.478 56.6468C109.98 57.3971 110.231 58.3918 110.231 59.6309C110.231 60.6522 109.965 61.5453 109.434 62.3101C108.903 63.0797 108.15 63.6702 107.175 64.0816L111.152 70.4564L111.13 71.422H106.597L102.913 64.8222L101.816 64.7932V67.5667C101.816 67.9636 101.845 68.2153 101.904 68.3218C101.962 68.4283 102.108 68.5468 102.342 68.6775L103.41 69.2947L103.315 71.422H95.6234ZM103.41 62.0269C104.292 62.0269 104.94 61.9446 105.354 61.78C105.52 61.1847 105.603 60.4756 105.603 59.6527C105.603 58.8298 105.425 58.2442 105.069 57.8957C104.714 57.552 104.119 57.3802 103.285 57.3802C102.822 57.3802 102.35 57.4044 101.867 57.4528V61.8817C102.301 61.9785 102.815 62.0269 103.41 62.0269ZM117.601 71.7197C115.778 71.7197 113.928 71.4389 112.051 70.8775C112.134 69.2463 112.266 67.7312 112.446 66.3324L114.369 65.9548L115.612 68.0604C116.606 68.4041 117.486 68.5759 118.251 68.5759C118.515 68.5759 119.077 68.5033 119.94 68.3581C119.974 68.0289 119.991 67.8063 119.991 67.6901C119.991 67.2932 119.926 66.9931 119.794 66.7898C119.662 66.5817 119.372 66.3493 118.924 66.0928C118.476 65.8362 117.671 65.4539 116.511 64.9456C115.083 64.2535 114.052 63.508 113.419 62.7094C112.79 61.9107 112.476 60.9669 112.476 59.8778C112.476 58.1788 113.056 56.8526 114.216 55.899C115.38 54.9406 116.974 54.4614 118.997 54.4614C119.977 54.4614 120.952 54.5558 121.922 54.7446C122.891 54.9334 123.742 55.1923 124.473 55.5215C124.439 56.446 124.366 57.5931 124.254 58.963L124.173 60.023L122.36 60.2989L120.467 57.8957C119.867 57.7166 119.119 57.627 118.222 57.627C117.662 57.627 117.24 57.6754 116.957 57.7722C116.874 58.1014 116.833 58.3579 116.833 58.5418C116.833 58.9049 116.923 59.2219 117.103 59.493C117.289 59.764 117.613 60.0448 118.076 60.3352C118.539 60.6208 119.229 60.979 120.145 61.4097C121.471 62.0342 122.475 62.586 123.157 63.0651C123.835 63.5443 124.31 64.0429 124.583 64.5608C124.861 65.0787 124.999 65.7104 124.999 66.4558C124.999 68.087 124.344 69.3721 123.033 70.3111C121.722 71.2502 119.911 71.7197 117.601 71.7197Z" fill="#242521"/>
</svg>
