<svg width="589" height="350" viewBox="0 0 589 350" fill="none" xmlns="http://www.w3.org/2000/svg">
<path d="M360.657 287.199L364.797 290.101L362.289 291.287L317.974 312.386C317.376 311.815 316.736 311.289 316.061 310.811C315.607 310.495 315.131 310.193 314.634 309.905L313.856 309.485L358.171 288.386L360.657 287.199Z" fill="black"/>
<path d="M317.931 312.386C323.335 317.596 321.444 324.446 313.11 328.405C304.463 332.515 291.914 332.072 284.121 327.585C283.624 327.294 283.138 326.992 282.684 326.668C275.118 321.35 276.393 313.454 285.58 309.086C293.946 305.105 305.998 305.407 313.813 309.485L314.591 309.905C315.088 310.193 315.564 310.495 316.018 310.811C316.693 311.289 317.332 311.815 317.931 312.386ZM308.992 325.503C312.105 324.025 314.029 321.922 314.396 319.603C314.764 317.284 313.575 315.008 311.002 313.195C310.678 312.969 310.343 312.753 309.986 312.548C307.149 311.021 303.999 310.161 300.777 310.035C296.981 309.766 293.176 310.433 289.699 311.976C286.586 313.465 284.662 315.558 284.294 317.888C283.927 320.218 285.127 322.483 287.699 324.295C288.023 324.511 288.358 324.726 288.704 324.931C291.547 326.465 294.705 327.325 297.935 327.445C301.732 327.722 305.538 327.055 309.014 325.503" fill="black"/>
<path d="M241.644 114.416C249.21 119.745 247.934 127.63 238.736 132.009C230.316 136.011 218.2 135.687 210.331 131.502L209.747 131.189C208.491 130.459 207.327 129.583 206.278 128.579C201.057 123.38 202.949 116.606 211.207 112.679C219.853 108.58 232.435 109.022 240.217 113.51C240.707 113.79 241.182 114.092 241.644 114.416ZM234.607 129.107C237.72 127.619 239.655 125.526 240.012 123.196C240.368 120.866 239.19 118.601 236.618 116.8C236.269 116.562 235.908 116.342 235.537 116.142C232.701 114.61 229.55 113.754 226.328 113.639C222.534 113.366 218.732 114.033 215.26 115.581C212.136 117.059 210.212 119.162 209.855 121.492C209.499 123.822 210.677 126.087 213.249 127.889C213.572 128.119 213.908 128.332 214.255 128.525C217.096 130.064 220.255 130.928 223.485 131.049C227.278 131.316 231.079 130.649 234.553 129.107" fill="black"/>
<path d="M452.617 287.404L450.347 285.818L445.354 288.202L447.602 289.777L395.277 314.436L362.289 291.244L364.797 290.058L360.657 287.156L358.161 288.343L203.727 180.043L215.162 188.058L220.156 185.684L203.359 173.894L396.12 309.172L548.792 237.202C549.374 237.769 550.003 238.285 550.673 238.745C551.138 239.081 551.621 239.391 552.121 239.672C552.381 239.823 552.651 239.964 552.921 240.104L452.617 287.404Z" fill="black"/>
<path d="M450.347 285.851L452.617 287.436L508.681 326.776C507.758 327.085 506.852 327.445 505.968 327.855C505.175 328.23 504.406 328.656 503.666 329.128L447.602 289.788L445.354 288.213L450.347 285.851Z" fill="black"/>
<path d="M541.259 338.706C540.707 342.029 538.016 345.027 533.498 347.141C524.851 351.251 512.302 350.809 504.52 346.332C504.012 346.041 503.537 345.728 503.072 345.416C499.397 342.827 497.667 339.58 498.219 336.258C498.662 333.55 500.564 331.069 503.623 329.095C504.363 328.623 505.132 328.198 505.925 327.822C506.809 327.413 507.715 327.053 508.638 326.744C517.047 323.874 527.932 324.586 534.925 328.664C535.422 328.955 535.908 329.257 536.362 329.581C540.08 332.159 541.81 335.405 541.259 338.706ZM529.369 344.24C532.482 342.762 534.406 340.669 534.773 338.34C535.141 336.01 533.963 333.744 531.38 331.932C531.055 331.706 530.72 331.49 530.363 331.285C527.527 329.756 524.376 328.9 521.155 328.782C517.361 328.514 513.56 329.18 510.087 330.724C506.963 332.202 505.039 334.305 504.682 336.624C504.326 338.943 505.504 341.23 508.076 343.032C508.403 343.263 508.742 343.475 509.092 343.668C511.933 345.207 515.092 346.071 518.323 346.192C522.117 346.46 525.919 345.789 529.391 344.24" fill="black"/>
<path d="M206.278 128.579C206.903 129.2 207.583 129.763 208.31 130.262C208.771 130.598 209.251 130.908 209.747 131.189L210.331 131.502L170.22 150.606L203.413 173.894L220.21 185.684L215.216 188.057L203.727 180.043L202.581 179.234L198.452 176.332L161.033 150.088L206.278 128.579Z" fill="black"/>
<path d="M37.0039 256.435L198.463 176.332L202.592 179.234L41.1436 259.315C40.5569 258.768 39.932 258.264 39.2737 257.805C38.8197 257.481 38.3442 257.179 37.8362 256.888C37.566 256.726 37.2741 256.575 37.0039 256.435Z" fill="black"/>
<path d="M584.05 222.899C591.616 228.217 590.341 236.113 581.153 240.492C572.809 244.451 560.79 244.181 552.964 240.104C552.694 239.964 552.424 239.823 552.165 239.672C551.665 239.391 551.181 239.081 550.716 238.745C550.047 238.285 549.418 237.769 548.836 237.202C543.431 231.992 545.28 225.132 553.613 221.162C562.26 217.052 574.852 217.505 582.613 221.982C583.11 222.273 583.596 222.575 584.05 222.899ZM577.025 237.58C580.137 236.102 582.061 234.009 582.429 231.679C582.796 229.349 581.597 227.084 579.024 225.283C578.698 225.045 578.359 224.825 578.008 224.625C575.171 223.097 572.021 222.238 568.799 222.111C565.002 221.847 561.197 222.517 557.72 224.064C554.607 225.542 552.683 227.634 552.316 229.964C551.949 232.294 553.137 234.57 555.71 236.372C556.034 236.598 556.369 236.803 556.715 237.008C559.562 238.542 562.723 239.405 565.956 239.532C569.751 239.8 573.552 239.129 577.025 237.58Z" fill="black"/>
<path d="M44.1267 266.952C43.5862 270.275 40.83 273.273 36.3876 275.388C27.7408 279.497 15.1703 279.055 7.3881 274.579C6.88009 274.287 6.40456 273.974 5.9506 273.662C2.26486 271.084 0.546296 267.826 1.09754 264.504C1.64878 261.181 4.39415 258.183 8.8473 256.068C17.1807 252.11 29.1891 252.39 36.9497 256.435C37.2307 256.575 37.5117 256.726 37.7819 256.888C38.2899 257.179 38.7655 257.481 39.2195 257.805C39.8778 258.264 40.5027 258.768 41.0894 259.315C43.5214 261.602 44.5806 264.277 44.1267 266.952ZM32.2372 272.486C35.3609 271.008 37.274 268.915 37.6415 266.585C38.009 264.256 36.82 261.979 34.2476 260.178C33.9233 259.952 33.5774 259.736 33.1667 259.531C30.3347 258.001 27.1868 257.144 23.9686 257.028C20.1715 256.75 16.3646 257.417 12.8897 258.97C9.77683 260.448 7.84209 262.54 7.4854 264.87C7.12872 267.2 8.30689 269.476 10.8901 271.278C11.2144 271.504 11.5495 271.72 11.9062 271.925C14.7431 273.454 17.8933 274.314 21.1151 274.438C24.9093 274.708 28.7115 274.037 32.1831 272.486" fill="black"/>
<path d="M227.02 244.149L235.753 254.321C236.823 255.635 237.525 257.208 237.789 258.881C238.053 260.554 237.869 262.267 237.255 263.846C237.242 263.882 237.219 263.914 237.19 263.939C237.16 263.964 237.125 263.981 237.087 263.988C237.049 263.996 237.01 263.994 236.973 263.982C236.937 263.97 236.903 263.949 236.877 263.921L228.63 254.321C228.556 254.235 228.506 254.13 228.485 254.019C228.464 253.907 228.473 253.792 228.511 253.684C229.128 252.105 229.315 250.391 229.053 248.716C228.791 247.041 228.09 245.465 227.02 244.149Z" fill="#BFBFFF" stroke="black" stroke-width="3" stroke-miterlimit="10"/>
<path d="M234.25 242.79C244.4 245.098 249.491 255.227 245.826 265.582C245.77 265.738 245.659 265.867 245.514 265.947C245.368 266.026 245.199 266.05 245.037 266.014L237.352 264.266C237.323 264.259 237.296 264.246 237.272 264.227C237.249 264.209 237.229 264.186 237.215 264.159C237.201 264.133 237.192 264.104 237.19 264.074C237.187 264.044 237.191 264.014 237.201 263.986C239.255 258.312 236.477 252.735 230.921 251.462C225.366 250.19 219.313 253.62 216.935 259.013C216.872 259.154 216.762 259.269 216.625 259.34C216.487 259.41 216.33 259.432 216.178 259.401L208.612 257.665C208.57 257.655 208.531 257.637 208.497 257.611C208.463 257.585 208.434 257.552 208.414 257.514C208.393 257.476 208.381 257.435 208.378 257.392C208.375 257.349 208.381 257.306 208.396 257.266C212.514 246.943 224.036 240.46 234.25 242.79Z" fill="#BFBFFF" stroke="black" stroke-width="3" stroke-miterlimit="10"/>
<path d="M234.38 237.849C232.07 235.195 228.96 233.359 225.517 232.618C215.314 230.299 203.824 236.749 199.641 247.083C199.596 247.198 199.584 247.323 199.605 247.445C199.626 247.566 199.679 247.68 199.76 247.773L207.921 257.266C207.953 257.302 207.994 257.33 208.04 257.347C208.086 257.364 208.136 257.369 208.185 257.361C208.233 257.353 208.279 257.334 208.318 257.304C208.357 257.274 208.387 257.235 208.407 257.19C212.601 246.889 224.079 240.471 234.25 242.79C237.696 243.526 240.807 245.363 243.113 248.021L234.38 237.849Z" fill="#BFBFFF" stroke="black" stroke-width="3" stroke-miterlimit="10"/>
<path d="M195.696 188.662C201.306 190.348 206.409 193.399 210.547 197.539C218.329 205.381 221.463 216.362 219.907 230.223C219.709 231.86 220.136 233.51 221.104 234.846C222.072 236.182 223.508 237.104 225.128 237.429L227.689 237.925C228.42 238.08 229.176 238.082 229.908 237.931C230.64 237.78 231.332 237.479 231.942 237.047C232.551 236.615 233.065 236.062 233.449 235.422C233.833 234.782 234.08 234.07 234.174 233.33C240.13 187.896 204.451 176.16 199.587 174.725L199.057 174.585C195.274 176.483 192.064 183.959 195.696 188.662Z" fill="#B3B3B3" stroke="black" stroke-width="3" stroke-miterlimit="10"/>
<path d="M503.417 252.919L515.502 259.887C517.026 260.818 518.272 262.14 519.112 263.714C519.952 265.288 520.355 267.058 520.279 268.84C520.277 268.868 520.267 268.895 520.252 268.919C520.237 268.942 520.216 268.962 520.192 268.976C520.167 268.989 520.14 268.997 520.112 268.998C520.083 268.999 520.056 268.993 520.03 268.98L508.53 262.335C508.436 262.278 508.359 262.197 508.306 262.1C508.253 262.004 508.226 261.895 508.227 261.785C508.284 260.015 507.869 258.261 507.024 256.703C506.179 255.145 504.934 253.839 503.417 252.919Z" fill="#C4FFE8" stroke="black" stroke-width="3" stroke-miterlimit="10"/>
<path d="M510.043 249.089C520.852 247.86 529.315 256.058 529.282 267.513C529.281 267.671 529.222 267.822 529.116 267.939C529.011 268.056 528.866 268.131 528.71 268.15L520.862 269.045C520.788 269.053 520.714 269.044 520.643 269.021C520.572 268.998 520.508 268.96 520.452 268.911C520.397 268.861 520.353 268.8 520.324 268.732C520.294 268.664 520.278 268.591 520.279 268.516C520.149 262.422 515.555 258.096 509.784 258.808C504.012 259.52 499.116 264.924 498.683 271.116C498.673 271.263 498.612 271.401 498.512 271.509C498.412 271.617 498.278 271.688 498.132 271.709L490.771 272.551C490.632 272.57 490.491 272.558 490.357 272.517C490.223 272.475 490.099 272.404 489.996 272.309C489.893 272.214 489.812 272.098 489.759 271.968C489.706 271.838 489.683 271.698 489.69 271.558C490.555 260.211 499.461 250.308 510.043 249.089Z" fill="#C4FFE8" stroke="black" stroke-width="3" stroke-miterlimit="10"/>
<path d="M508.465 244.203C505.278 242.401 501.593 241.675 497.959 242.132C487.15 243.372 478.093 253.674 477.585 265.27C477.581 265.387 477.609 265.503 477.666 265.606C477.723 265.708 477.807 265.793 477.909 265.852L488.35 271.86C488.485 271.939 488.637 271.982 488.793 271.987C488.949 271.991 489.104 271.956 489.243 271.885C489.382 271.814 489.5 271.71 489.588 271.581C489.676 271.452 489.73 271.303 489.745 271.148C490.75 260.006 499.57 250.298 510.043 249.089C513.679 248.63 517.365 249.361 520.549 251.171L508.465 244.203Z" fill="#C4FFE8" stroke="black" stroke-width="3" stroke-miterlimit="10"/>
<path d="M154.072 239.079C141.442 239.124 129.171 234.893 119.263 227.078C109.354 219.262 102.395 208.324 99.5209 196.05C98.5257 191.807 98.0252 187.464 98.0293 183.106C98.0465 168.288 103.96 154.083 114.469 143.615C124.979 133.147 139.224 127.273 154.072 127.284C155.51 127.284 156.936 127.284 158.395 127.446C172.461 128.559 185.593 134.911 195.183 145.241C204.772 155.571 210.118 169.122 210.158 183.203C210.161 190.548 208.714 197.821 205.899 204.608C203.084 211.394 198.957 217.56 193.754 222.754C188.55 227.948 182.372 232.068 175.573 234.878C168.773 237.689 161.486 239.134 154.126 239.133L154.072 239.079Z" fill="#A112FF"/>
<path d="M154.072 129.237C155.445 129.237 156.817 129.291 158.179 129.399C172.226 130.49 185.283 137.037 194.545 147.633C203.806 158.229 208.532 172.028 207.708 186.065C206.883 200.102 200.573 213.255 190.135 222.699C179.696 232.142 165.962 237.122 151.884 236.567C137.805 236.013 124.507 229.968 114.847 219.733C105.187 209.497 99.9354 195.889 100.222 181.831C100.509 167.773 106.31 154.388 116.38 144.554C126.449 134.719 139.983 129.219 154.072 129.237ZM154.072 125.213C138.821 125.194 124.17 131.147 113.271 141.793C102.371 152.439 96.0916 166.928 95.7829 182.146C95.4742 197.363 101.161 212.094 111.62 223.172C122.079 234.25 136.476 240.789 151.715 241.386C166.955 241.982 181.821 236.588 193.117 226.361C204.413 216.135 211.238 201.894 212.125 186.699C213.011 171.504 207.888 156.569 197.857 145.103C187.826 133.638 173.688 126.558 158.482 125.386C157.044 125.267 155.553 125.213 154.072 125.213Z" fill="black"/>
<path d="M105.606 197.766C104.125 197.766 102.688 197.712 101.283 197.593L99.8234 197.474L99.4883 196.05C97.5518 187.837 97.5019 179.292 99.3423 171.057C101.183 162.821 104.866 155.107 110.116 148.493C115.366 141.879 122.047 136.536 129.659 132.863C137.271 129.19 145.617 127.283 154.072 127.284C155.542 127.284 156.979 127.284 158.395 127.446L159.854 127.565L160.2 128.989C162.137 137.202 162.188 145.746 160.351 153.983C158.514 162.219 154.836 169.935 149.592 176.553C144.347 183.172 137.672 188.522 130.065 192.204C122.458 195.887 114.115 197.806 105.66 197.819L105.606 197.766Z" fill="#6B59ED"/>
<path d="M154.072 129.248C155.455 129.248 156.828 129.248 158.179 129.399C160.056 137.317 160.113 145.557 158.347 153.5C156.58 161.444 153.036 168.885 147.978 175.268C142.921 181.65 136.482 186.808 129.144 190.355C121.806 193.902 113.759 195.746 105.606 195.748C104.223 195.748 102.85 195.694 101.488 195.587C99.6128 187.668 99.5571 179.429 101.325 171.486C103.093 163.543 106.639 156.102 111.697 149.721C116.756 143.339 123.195 138.183 130.533 134.637C137.872 131.092 145.919 129.249 154.072 129.248ZM154.072 125.213C145.31 125.217 136.662 127.198 128.776 131.009C120.89 134.82 113.97 140.363 108.535 147.221C103.099 154.08 99.2888 162.077 97.389 170.613C95.4893 179.15 95.5493 188.004 97.5645 196.514L98.2454 199.362L101.164 199.61C102.58 199.718 104.071 199.783 105.606 199.783C114.368 199.776 123.014 197.792 130.899 193.979C138.784 190.166 145.702 184.622 151.136 177.763C156.57 170.904 160.379 162.907 162.278 154.371C164.178 145.835 164.118 136.981 162.103 128.471L161.433 125.623L158.503 125.386C157.098 125.267 155.596 125.213 154.072 125.213Z" fill="black"/>
<path d="M131.352 180.636C133.024 180.636 134.379 179.284 134.379 177.616C134.379 175.948 133.024 174.595 131.352 174.595C129.681 174.595 128.326 175.948 128.326 177.616C128.326 179.284 129.681 180.636 131.352 180.636Z" fill="black"/>
<path d="M113.096 190.279C114.768 190.279 116.123 188.927 116.123 187.259C116.123 185.591 114.768 184.239 113.096 184.239C111.425 184.239 110.07 185.591 110.07 187.259C110.07 188.927 111.425 190.279 113.096 190.279Z" fill="black"/>
<path d="M144.485 165.513C146.156 165.513 147.511 164.161 147.511 162.493C147.511 160.825 146.156 159.472 144.485 159.472C142.813 159.472 141.458 160.825 141.458 162.493C141.458 164.161 142.813 165.513 144.485 165.513Z" fill="black"/>
<path d="M150.538 146.366C152.209 146.366 153.564 145.014 153.564 143.346C153.564 141.678 152.209 140.326 150.538 140.326C148.866 140.326 147.511 141.678 147.511 143.346C147.511 145.014 148.866 146.366 150.538 146.366Z" fill="black"/>
<g style="mix-blend-mode:color-dodge" opacity="0.4">
<g style="mix-blend-mode:color-dodge">
<path d="M196.161 216.945C200.207 208.473 202.124 199.145 201.746 189.768C201.369 180.391 198.708 171.246 193.994 163.126C189.28 155.005 182.655 148.153 174.691 143.162C166.728 138.171 157.666 135.191 148.289 134.479C146.83 134.361 145.36 134.307 143.88 134.307C137.746 134.3 131.652 135.276 125.829 137.198C134.324 131.979 144.107 129.223 154.083 129.237C155.456 129.237 156.828 129.291 158.19 129.399C167.995 130.155 177.408 133.567 185.413 139.268C193.419 144.968 199.714 152.741 203.621 161.748C207.527 170.755 208.897 180.655 207.583 190.382C206.268 200.108 202.319 209.292 196.161 216.945Z" fill="#FFD1F2"/>
</g>
</g>
<path d="M146.03 191.412C150.764 194.163 191.167 207.927 201.987 176.235" stroke="black" stroke-width="4" stroke-miterlimit="10" stroke-linecap="round"/>
<path d="M175.127 177.087L172.555 176.375C174.623 176.924 176.815 176.776 178.791 175.955L181.364 176.667C179.389 177.494 177.195 177.642 175.127 177.087Z" fill="black"/>
<path d="M180.38 148.308L182.953 149.02C186.714 150.099 189.697 153.518 190.519 158.48C191.794 166.031 187.687 174.142 181.342 176.667L178.77 175.955C185.114 173.43 189.222 165.276 187.946 157.768C187.125 152.806 184.141 149.354 180.38 148.308Z" fill="black"/>
<path d="M174.154 148.729C176.125 147.901 178.316 147.753 180.38 148.308L182.953 149.02C180.887 148.474 178.699 148.622 176.727 149.441L174.154 148.729Z" fill="#FFF2CF"/>
<path d="M172.554 176.375C170.123 175.652 168.06 174.032 166.783 171.845L169.355 172.568C170.632 174.752 172.697 176.369 175.127 177.087L172.554 176.375Z" fill="#FFF2CF"/>
<path d="M181.234 145.191L183.806 145.903C181.297 145.234 178.637 145.412 176.24 146.41L173.668 145.698C176.065 144.7 178.725 144.522 181.234 145.191Z" fill="black"/>
<path d="M164.978 166.915C163.692 159.364 167.799 151.253 174.154 148.729L176.727 149.441C170.371 151.975 166.264 160.109 167.55 167.627C167.823 169.382 168.437 171.068 169.355 172.589L166.783 171.866C165.862 170.35 165.249 168.668 164.978 166.915Z" fill="#FFF2CF"/>
<path d="M190.087 166.104C192.253 158.357 189.059 150.699 182.952 148.999C176.846 147.299 170.14 152.2 167.974 159.947C165.808 167.693 169.003 175.351 175.109 177.052C181.215 178.752 187.921 173.851 190.087 166.104Z" fill="#FFF2CF"/>
<path d="M174.273 180.194L171.701 179.482C167.107 178.198 163.443 173.981 162.416 167.929C160.849 158.75 165.886 148.783 173.635 145.698L176.208 146.41C168.458 149.495 163.421 159.472 164.989 168.641C166.015 174.747 169.68 178.921 174.273 180.194Z" fill="black"/>
<path d="M176.208 146.41C183.958 143.335 191.524 148.297 193.091 157.466C194.658 166.635 189.622 176.613 181.872 179.687C174.122 182.761 166.545 177.81 164.989 168.641C163.432 159.472 168.458 149.495 176.208 146.41ZM181.364 176.613C187.709 174.089 191.816 165.944 190.54 158.426C189.265 150.908 183.072 146.863 176.727 149.387C170.382 151.911 166.264 160.055 167.551 167.573C168.837 175.092 175.008 179.137 181.364 176.613Z" fill="black"/>
<path d="M179.299 156.053C183.709 154.208 188.043 156.981 189.027 162.255C189.1 162.656 189.041 163.07 188.86 163.435C188.679 163.8 188.385 164.098 188.022 164.283C187.857 164.357 187.677 164.389 187.497 164.375C187.317 164.361 187.144 164.303 186.993 164.206C186.841 164.108 186.716 163.974 186.63 163.816C186.544 163.659 186.498 163.482 186.498 163.302C186.393 162.514 186.125 161.757 185.71 161.079C185.295 160.401 184.742 159.817 184.087 159.364C183.466 158.971 182.757 158.738 182.023 158.685C181.29 158.633 180.554 158.762 179.883 159.062C178.322 159.777 177.071 161.029 176.359 162.59C175.545 164.221 175.266 166.066 175.559 167.864C175.634 168.266 175.577 168.68 175.398 169.047C175.219 169.414 174.927 169.714 174.565 169.903C174.401 169.977 174.22 170.009 174.04 169.995C173.861 169.981 173.687 169.923 173.536 169.826C173.384 169.728 173.26 169.594 173.173 169.436C173.087 169.278 173.041 169.101 173.041 168.922C172.057 163.658 174.878 157.897 179.299 156.053Z" fill="black"/>
<path d="M145.059 121.715C167.838 119.325 185.484 109.598 184.471 99.988C183.459 90.3781 164.173 84.5247 141.393 86.914C118.614 89.3034 100.968 99.0307 101.98 108.641C102.993 118.251 122.279 124.104 145.059 121.715Z" fill="#FFF2CF" stroke="black" stroke-width="1.94" stroke-miterlimit="10" stroke-linecap="round"/>
<path d="M143.75 132.095L143.263 118.375C143.318 117.727 143.627 117.126 144.123 116.704C144.619 116.282 145.261 116.072 145.911 116.12C146.475 116.074 147.038 116.205 147.523 116.495C148.008 116.786 148.389 117.22 148.613 117.738L153.034 130.995C153.715 133.023 152.224 135.116 149.705 135.666C147.187 136.216 144.593 135.008 143.912 132.98C143.817 132.694 143.762 132.396 143.75 132.095Z" fill="black"/>
<path d="M184.444 99.3898C185.082 102.842 183.244 106.337 179.58 109.529C174.868 113.618 167.118 117.21 157.66 119.507C153.958 120.408 150.204 121.082 146.419 121.524C126.369 123.897 108.589 119.874 103.455 112.345C102.776 111.376 102.315 110.272 102.104 109.109C101.542 105.991 102.98 102.842 105.974 99.9076C112.124 93.867 124.845 88.7864 140.14 86.9634C143.849 86.5242 147.581 86.2973 151.316 86.2838C161.141 86.2838 169.788 87.8371 175.797 90.5985C180.661 92.8638 183.807 95.8517 184.444 99.3898Z" fill="#BFBFFF"/>
<path d="M175.268 91.2565L170.296 96.9627C169.599 97.534 168.722 97.8398 167.82 97.8257L161.789 98.1277C161.289 98.1477 160.794 98.2385 160.319 98.3973L145.814 103.338L143.501 104.125H143.415V103.834L143.35 103.165L142.744 96.9088C142.669 96.1537 144.506 95.4526 146.16 95.6252C147.684 95.7762 149.403 95.1937 149.565 94.471L151.078 87.5135C151.218 86.8555 152.678 86.2945 154.126 86.3377C162.319 86.575 169.561 87.9557 174.911 90.2102C175.462 90.4798 175.624 90.8789 175.268 91.2565Z" fill="white"/>
<path d="M143.912 104.751H143.793L128.661 109.314C127.05 109.799 125.148 109.476 125.116 108.71C125.116 108.008 123.451 107.631 121.873 108.03L106.006 111.73C104.623 112.054 103.109 111.827 102.763 111.245C102.42 110.564 102.18 109.837 102.05 109.087C101.52 106.196 102.731 103.273 105.293 100.522C105.906 100.027 106.666 99.7466 107.454 99.7242L122.327 98.1601C122.742 98.0735 123.17 98.0709 123.586 98.1524C124.002 98.2339 124.397 98.398 124.748 98.6347L126.769 100.889C127.024 101.123 127.345 101.274 127.688 101.321L143.75 104.665L143.912 104.751Z" fill="white"/>
<path d="M174.328 113.262C167.639 116.85 160.412 119.331 152.926 120.607C152.117 120.782 151.274 120.726 150.495 120.446L140.237 115.861C139.567 115.57 139.524 115.063 140.129 114.642L143.545 112.215C143.664 112.152 143.765 112.059 143.839 111.946C143.913 111.833 143.956 111.703 143.966 111.568L143.599 104.902V104.826V104.211V103.931V103.23H143.815L146.16 103.543L158.806 105.215C160.406 105.43 160.601 106.358 159.152 106.941C157.823 107.48 157.855 108.332 159.217 108.623L173.982 111.741C175.063 112.01 175.289 112.711 174.328 113.262Z" fill="white"/>
<path d="M147.025 103.823C147.176 104.686 145.63 105.592 143.566 105.84C141.501 106.088 139.696 105.581 139.534 104.762C139.372 103.942 140.615 101.116 142.647 100.868C144.679 100.619 146.862 102.96 147.025 103.823Z" fill="black"/>
<path d="M184.444 99.3898C185.082 102.842 183.244 106.336 179.58 109.529C174.868 113.618 167.118 117.21 157.66 119.507C153.958 120.408 150.204 121.082 146.419 121.524C126.369 123.897 108.589 119.874 103.455 112.345C102.776 111.376 102.315 110.272 102.104 109.109C101.542 105.991 102.98 102.842 105.974 99.9076C112.124 93.867 124.845 88.7864 140.14 86.9634C143.849 86.5242 147.581 86.2973 151.316 86.2838C161.141 86.2838 169.788 87.8371 175.797 90.5985C180.661 92.8638 183.807 95.8517 184.444 99.3898Z" stroke="black" stroke-width="2.7" stroke-miterlimit="10" stroke-linecap="round"/>
<path d="M128.067 127.101C117.593 126.195 108.546 123.865 102.223 120.435" stroke="black" stroke-width="1.8" stroke-miterlimit="10" stroke-linecap="round"/>
<path d="M183.245 87.5243C189.222 90.2534 193.08 93.9209 193.87 98.3111C194.659 102.701 192.389 106.854 187.882 110.77" stroke="black" stroke-width="1.8" stroke-miterlimit="10" stroke-linecap="round"/>
<path d="M92.679 110.263C91.9872 106.433 93.7598 102.55 97.4347 98.9474C105.001 91.5261 120.63 85.2806 139.415 83.0585" stroke="black" stroke-width="1.8" stroke-miterlimit="10" stroke-linecap="round"/>
<path d="M418.494 240.611C428.222 236.296 435.172 241.377 434.058 251.851C432.945 262.325 424.158 274.277 414.441 278.548C404.724 282.82 397.774 277.782 398.887 267.298C400 256.813 408.788 244.861 418.494 240.611Z" fill="black"/>
<path d="M417.737 247.644C423.844 244.969 428.222 248.129 427.465 254.72C426.709 261.311 421.239 268.818 415.133 271.504C409.026 274.19 404.648 271.019 405.405 264.428C406.161 257.837 411.641 250.33 417.737 247.644Z" fill="#FFF2CF"/>
<path d="M417.208 252.692C420.732 251.15 423.261 252.973 422.85 256.77C422.52 258.834 421.704 260.791 420.467 262.479C419.231 264.167 417.61 265.538 415.738 266.478C412.214 268.02 409.685 266.197 410.096 262.4C410.427 260.336 411.245 258.38 412.481 256.692C413.718 255.004 415.338 253.633 417.208 252.692Z" fill="black"/>
<path d="M402.605 278.408L395.277 273.014C392.499 270.976 391.062 267.114 391.613 261.904C392.694 251.43 401.514 239.478 411.22 235.218L418.548 240.611C408.82 244.926 400.065 256.791 398.941 267.298C398.336 272.508 399.773 276.369 402.605 278.408Z" fill="black"/>
<path d="M415.413 263.997C415.047 263.945 414.696 263.818 414.382 263.623C414.067 263.429 413.797 263.171 413.588 262.867C413.378 262.563 413.235 262.218 413.166 261.856C413.097 261.493 413.104 261.12 413.187 260.761L415.089 242.93C415.259 241.846 415.686 240.819 416.335 239.933C416.984 239.047 417.835 238.329 418.818 237.839C419.37 237.579 419.983 237.471 420.591 237.526C420.957 237.578 421.308 237.705 421.623 237.899C421.937 238.094 422.207 238.351 422.417 238.656C422.626 238.96 422.77 239.304 422.839 239.667C422.908 240.029 422.9 240.402 422.817 240.762L420.915 258.592C420.745 259.676 420.318 260.704 419.669 261.59C419.021 262.475 418.169 263.193 417.186 263.684C416.633 263.943 416.022 264.051 415.413 263.997Z" fill="#808080"/>
<path d="M420.461 238.658C421.315 238.745 421.834 239.489 421.704 240.643L419.802 258.474C419.655 259.363 419.301 260.205 418.768 260.932C418.235 261.659 417.537 262.251 416.732 262.659C416.359 262.839 415.945 262.918 415.532 262.886C414.679 262.799 414.171 262.055 414.289 260.901L416.192 243.07C416.34 242.18 416.696 241.338 417.232 240.611C417.767 239.884 418.466 239.292 419.272 238.885C419.641 238.704 420.052 238.626 420.461 238.658ZM420.71 236.436C419.909 236.364 419.103 236.505 418.375 236.846C417.209 237.411 416.198 238.251 415.431 239.295C414.664 240.338 414.165 241.553 413.976 242.833L412.074 260.664C411.978 261.17 411.987 261.69 412.101 262.192C412.214 262.694 412.429 263.168 412.733 263.585C413.037 264.001 413.423 264.351 413.867 264.613C414.311 264.875 414.804 265.043 415.316 265.108C416.121 265.179 416.93 265.038 417.662 264.698C418.828 264.133 419.839 263.293 420.606 262.249C421.372 261.206 421.872 259.991 422.061 258.711L423.963 240.881C424.059 240.375 424.049 239.854 423.936 239.352C423.823 238.85 423.607 238.376 423.304 237.96C423 237.543 422.614 237.193 422.17 236.931C421.726 236.669 421.232 236.501 420.721 236.436H420.71Z" fill="black"/>
<path d="M417.003 258.646C417.792 258.301 418.354 258.646 418.267 259.552C418.191 260.012 418.008 260.446 417.732 260.821C417.455 261.196 417.095 261.5 416.678 261.71C415.889 262.055 415.327 261.645 415.425 260.804C415.498 260.345 415.679 259.911 415.953 259.536C416.228 259.16 416.587 258.856 417.003 258.646Z" fill="black"/>
<path d="M406.637 167.616C406.335 167.994 376.438 204.626 330.782 171.187L339.699 159.052C353.967 169.547 367.542 172.643 379.907 168.274C385.644 166.213 390.779 162.767 394.856 158.243L406.637 167.616Z" fill="#B3B3B3"/>
<path d="M408.842 167.368L407.869 168.598C407.567 168.986 376.762 206.805 329.842 172.449L328.577 171.521L339.386 156.862L340.661 157.79C354.529 167.951 367.564 170.982 379.399 166.797C384.863 164.822 389.761 161.545 393.667 157.25L394.65 156.053L408.842 167.368ZM332.987 170.831C371.898 198.348 398.822 173.668 404.324 167.811L395.039 160.389C390.933 164.561 385.944 167.764 380.437 169.763C367.931 174.175 354.356 171.316 340.067 161.241L332.987 170.831Z" fill="black"/>
<path d="M436.869 171.608L438.198 257.266L376.881 212.403L395.807 141.577L436.869 171.608Z" fill="#8FEDCF"/>
<path d="M477.595 159.958C476.624 156.452 474.514 153.367 471.597 151.188L446.023 132.085C442.842 129.759 439.107 128.303 435.188 127.862C431.269 127.421 427.302 128.01 423.682 129.571L395.807 141.577L434.048 169.547C434.924 170.186 435.64 171.02 436.139 171.982C436.638 172.944 436.906 174.009 436.923 175.092L438.198 257.266L491.16 233.815C492.861 233.056 494.233 231.714 495.027 230.031C495.82 228.349 495.982 226.438 495.484 224.646L477.595 159.958Z" fill="#00CBEC"/>
<path d="M435.107 127.856C439.055 128.285 442.82 129.743 446.024 132.085L470.581 150.422C474.166 153.101 476.752 156.897 477.931 161.209L494.662 221.615C495.399 224.267 495.156 227.094 493.977 229.581C492.798 232.068 490.763 234.05 488.242 235.163L438.198 257.32L376.881 212.457L394.175 147.736C394.684 145.828 395.621 144.059 396.915 142.564C398.209 141.07 399.825 139.887 401.643 139.107L423.682 129.614C427.277 128.065 431.214 127.474 435.107 127.899V127.856ZM435.561 123.736C430.965 123.224 426.314 123.908 422.061 125.72L400.022 135.213C397.616 136.241 395.477 137.804 393.767 139.781C392.057 141.759 390.821 144.1 390.154 146.625L372.86 211.346L372.125 214.118L374.438 215.812L435.755 260.664L437.723 262.098L439.884 261.117L489.939 238.96C493.365 237.423 496.129 234.717 497.736 231.328C499.342 227.94 499.686 224.09 498.705 220.472L481.962 160.066C480.512 154.891 477.389 150.34 473.078 147.121L448.52 128.784C444.716 125.995 440.242 124.258 435.55 123.746L435.561 123.736Z" fill="black"/>
<path d="M452.131 211.228C458.192 210.663 464.3 211.6 469.911 213.957C480.493 218.466 487.832 227.807 491.788 241.765C492.239 243.416 493.298 244.836 494.752 245.742C496.207 246.648 497.951 246.973 499.635 246.652L502.304 246.134C503.061 245.986 503.779 245.685 504.415 245.251C505.052 244.816 505.592 244.257 506.004 243.606C506.416 242.956 506.69 242.229 506.811 241.469C506.931 240.709 506.894 239.932 506.704 239.187C494.576 193.084 455.568 195.738 450.369 196.32L449.796 196.396C446.921 199.675 446.781 208.121 452.131 211.228Z" fill="#B3B3B3" stroke="black" stroke-width="3.12" stroke-miterlimit="10"/>
<path d="M96.0403 259.639L89.8362 271.504C89.0927 273.027 88.7651 274.719 88.8865 276.408C89.008 278.098 89.5742 279.725 90.528 281.126C90.5481 281.16 90.5767 281.187 90.6107 281.207C90.6448 281.226 90.6833 281.236 90.7225 281.236C90.7617 281.236 90.8002 281.226 90.8343 281.207C90.8683 281.187 90.8969 281.16 90.9171 281.126L96.7753 269.919C96.8312 269.82 96.8605 269.709 96.8605 269.595C96.8605 269.482 96.8312 269.37 96.7753 269.271C95.8127 267.873 95.2378 266.246 95.1087 264.554C94.9796 262.862 95.301 261.167 96.0403 259.639Z" fill="#BFBFFF" stroke="black" stroke-width="3" stroke-miterlimit="10"/>
<path d="M88.6797 259.962C79.3194 264.504 76.6605 275.506 82.5836 284.772C82.6741 284.907 82.8099 285.005 82.9665 285.048C83.1231 285.092 83.2902 285.078 83.4375 285.009L90.528 281.569C90.5562 281.556 90.581 281.536 90.6007 281.512C90.6204 281.488 90.6345 281.46 90.6418 281.43C90.649 281.4 90.6494 281.369 90.6427 281.339C90.6361 281.308 90.6228 281.28 90.6036 281.256C87.361 276.197 88.7662 270.134 93.8462 267.653C98.9263 265.173 105.638 267.114 109.184 271.882C109.273 272.009 109.405 272.1 109.555 272.139C109.705 272.179 109.865 272.164 110.005 272.098L117.031 268.689C117.069 268.669 117.102 268.641 117.129 268.608C117.156 268.574 117.175 268.535 117.187 268.494C117.198 268.452 117.2 268.409 117.194 268.366C117.188 268.324 117.172 268.283 117.15 268.247C110.773 259.089 98.1048 255.378 88.6797 259.962Z" fill="#BFBFFF" stroke="black" stroke-width="3" stroke-miterlimit="10"/>
<path d="M87.4368 255.162C89.085 252.054 91.7031 249.566 94.8948 248.075C104.298 243.512 116.955 247.202 123.375 256.327C123.436 256.432 123.468 256.551 123.468 256.672C123.468 256.794 123.436 256.913 123.375 257.018L117.571 268.117C117.547 268.16 117.511 268.195 117.468 268.22C117.426 268.244 117.377 268.257 117.328 268.257C117.279 268.257 117.23 268.244 117.188 268.22C117.145 268.195 117.11 268.16 117.085 268.117C110.6 259.035 98.0293 255.378 88.6366 259.93C85.4521 261.427 82.8393 263.914 81.1895 267.017L87.4368 255.162Z" fill="#BFBFFF" stroke="black" stroke-width="3" stroke-miterlimit="10"/>
<path d="M106.255 197.399C101.494 200.808 97.6568 205.345 95.0893 210.602C90.2686 220.536 90.8739 231.938 96.8511 244.548C97.5716 246.03 97.7047 247.729 97.2237 249.305C96.7427 250.882 95.6831 252.218 94.257 253.048L91.998 254.353C91.3582 254.726 90.6484 254.963 89.9128 255.05C89.1773 255.137 88.4316 255.073 87.7221 254.86C87.0126 254.648 86.3544 254.292 85.7884 253.815C85.2224 253.338 84.7607 252.75 84.432 252.088C64.0253 211.044 93.9544 188.338 98.0941 185.469L98.5481 185.156C102.688 185.771 108.157 191.8 106.255 197.399Z" fill="#B3B3B3" stroke="black" stroke-width="3" stroke-miterlimit="10"/>
<path d="M404.324 168.943L405.848 168.274C403.827 169.17 402.389 171.381 402.011 174.746C401.254 181.434 405.091 190.139 410.571 194.163L409.004 194.853C403.535 190.851 399.698 182.146 400.444 175.437C400.865 172.05 402.303 169.838 404.324 168.943Z" fill="black"/>
<path d="M418.073 195.64L416.505 196.331C414.452 197.237 411.804 196.795 409.047 194.778L410.615 194.087C413.414 196.104 416.019 196.547 418.073 195.64Z" fill="black"/>
<path d="M405.848 168.274C407.891 167.368 410.55 167.811 413.306 169.828L411.739 170.518C408.983 168.501 406.334 168.059 404.281 168.965L405.848 168.274Z" fill="#FFF2CF"/>
<path d="M421.899 189.212C421.531 192.534 420.094 194.745 418.073 195.684L416.505 196.374C418.527 195.479 419.964 193.267 420.342 189.902C420.622 186.224 419.952 182.536 418.397 179.191L419.964 178.5C421.516 181.847 422.182 185.535 421.899 189.212Z" fill="#FFF2CF"/>
<path d="M413.349 169.806C416.26 172.095 418.536 175.088 419.964 178.5L418.397 179.191C416.966 175.78 414.69 172.788 411.782 170.496L413.349 169.806Z" fill="#FFF2CF"/>
<path d="M411.782 170.496C417.251 174.498 421.088 183.203 420.342 189.913C419.596 196.622 414.495 198.79 409.09 194.778C403.686 190.765 399.784 182.071 400.53 175.361C401.276 168.652 406.302 166.494 411.782 170.496Z" fill="#FFF2CF"/>
<path d="M413.727 166.408C410.204 163.83 406.81 163.258 404.194 164.423L402.627 165.114C405.253 163.949 408.637 164.521 412.16 167.099C419.164 172.222 424.05 183.365 423.109 191.908C422.634 196.223 420.796 198.995 418.202 200.149L419.769 199.448C422.353 198.305 424.201 195.468 424.676 191.218C425.638 182.664 420.731 171.51 413.727 166.408Z" fill="black"/>
<path d="M412.16 167.099C419.164 172.222 424.05 183.365 423.109 191.908C422.169 200.451 415.673 203.278 408.669 198.154C401.665 193.03 396.78 181.898 397.72 173.344C398.66 164.79 405.156 161.975 412.16 167.099ZM409.091 194.778C414.571 198.79 419.629 196.59 420.386 189.902C421.142 183.214 417.294 174.498 411.825 170.486C406.356 166.473 401.287 168.673 400.53 175.372C399.774 182.071 403.621 190.765 409.091 194.788" fill="black"/>
<path d="M441.132 114.587L439.102 114.365C437.808 114.224 436.645 115.156 436.503 116.447L433.735 141.71C433.594 143.001 434.528 144.162 435.821 144.303L437.852 144.525C439.146 144.666 440.309 143.734 440.451 142.443L443.219 117.18C443.36 115.889 442.426 114.728 441.132 114.587Z" fill="#B3B3B3"/>
<path d="M437.647 146.054L435.604 145.838C434.589 145.721 433.66 145.209 433.021 144.414C432.381 143.618 432.082 142.602 432.189 141.588L434.956 116.314C435.07 115.299 435.582 114.37 436.379 113.729C437.177 113.089 438.196 112.789 439.214 112.895L441.257 113.121C442.272 113.238 443.201 113.75 443.84 114.546C444.48 115.341 444.779 116.357 444.672 117.371L441.905 142.645C441.85 143.148 441.696 143.635 441.452 144.079C441.209 144.522 440.879 144.913 440.484 145.23C440.088 145.546 439.634 145.782 439.148 145.923C438.661 146.065 438.151 146.109 437.647 146.054ZM438.89 115.85C438.667 115.826 438.443 115.891 438.267 116.03C438.091 116.169 437.977 116.372 437.95 116.595L435.183 141.868C435.171 141.979 435.181 142.091 435.212 142.197C435.244 142.304 435.297 142.403 435.367 142.49C435.437 142.576 435.524 142.647 435.622 142.7C435.721 142.752 435.828 142.785 435.939 142.796L437.971 143.022C438.194 143.047 438.418 142.982 438.594 142.843C438.771 142.704 438.884 142.501 438.912 142.278L441.679 117.005C441.7 116.781 441.633 116.557 441.491 116.382C441.35 116.207 441.146 116.093 440.922 116.066L438.89 115.85Z" fill="black"/>
<path d="M440.306 118.709C443.786 118.709 446.607 115.893 446.607 112.42C446.607 108.947 443.786 106.131 440.306 106.131C436.826 106.131 434.004 108.947 434.004 112.42C434.004 115.893 436.826 118.709 440.306 118.709Z" fill="#B3B3B3"/>
<path d="M439.452 120.165C437.92 119.99 436.475 119.366 435.298 118.372C434.122 117.378 433.267 116.058 432.841 114.579C432.415 113.101 432.437 111.529 432.905 110.063C433.373 108.598 434.266 107.303 435.471 106.343C436.675 105.383 438.138 104.8 439.674 104.668C441.21 104.537 442.75 104.862 444.101 105.603C445.452 106.345 446.553 107.469 447.264 108.834C447.975 110.198 448.266 111.743 448.099 113.272C447.986 114.292 447.672 115.28 447.176 116.178C446.68 117.077 446.012 117.869 445.208 118.51C444.405 119.15 443.483 119.626 442.495 119.91C441.508 120.194 440.473 120.281 439.452 120.165ZM440.825 107.674C439.883 107.571 438.932 107.749 438.091 108.185C437.251 108.621 436.559 109.297 436.103 110.126C435.647 110.954 435.448 111.9 435.531 112.841C435.614 113.783 435.975 114.679 436.568 115.417C437.161 116.154 437.96 116.699 438.864 116.982C439.768 117.266 440.736 117.276 441.645 117.011C442.554 116.745 443.364 116.217 443.972 115.492C444.581 114.767 444.96 113.878 445.062 112.938C445.198 111.68 444.828 110.418 444.034 109.431C443.24 108.445 442.085 107.813 440.825 107.674Z" fill="black"/>
<path d="M305.101 168.738L315.704 173.592C315.742 173.613 315.772 173.645 315.79 173.684C315.807 173.723 315.811 173.766 315.802 173.808L313.067 182.772C313.059 182.796 313.045 182.818 313.028 182.837C313.011 182.855 312.99 182.87 312.966 182.88C312.943 182.891 312.918 182.896 312.892 182.896C312.867 182.896 312.842 182.89 312.818 182.88L302.226 178.015C302.185 177.998 302.152 177.966 302.134 177.926C302.116 177.886 302.114 177.841 302.129 177.799L304.863 168.846C304.87 168.822 304.882 168.8 304.899 168.782C304.915 168.763 304.935 168.748 304.957 168.738C304.98 168.728 305.004 168.723 305.029 168.723C305.054 168.723 305.078 168.728 305.101 168.738Z" fill="#C4FFE8" stroke="black" stroke-width="3" stroke-miterlimit="10"/>
<path d="M314.148 144.457L325.076 149.462C327.823 150.791 329.995 153.069 331.187 155.873C332.38 158.678 332.513 161.82 331.561 164.715C330.627 167.956 328.461 170.706 325.526 172.378C322.591 174.05 319.117 174.513 315.845 173.668L304.917 168.663C308.191 169.511 311.667 169.05 314.605 167.378C317.543 165.705 319.71 162.954 320.644 159.71C321.593 156.813 321.457 153.672 320.263 150.867C319.068 148.063 316.896 145.786 314.148 144.457Z" fill="#C4FFE8"/>
<path d="M325.075 149.462L314.148 144.457C316.891 145.787 319.06 148.063 320.252 150.865C321.444 153.667 321.579 156.805 320.633 159.699C320.019 161.716 318.942 163.563 317.488 165.092C316.873 165.737 316.196 166.318 315.466 166.829C314.813 167.279 314.122 167.672 313.402 168.005C312.664 168.338 311.897 168.601 311.11 168.792C309.065 169.284 306.927 169.235 304.906 168.652L315.823 173.668C317.838 174.24 319.968 174.285 322.006 173.797C322.797 173.61 323.568 173.346 324.308 173.01C325.84 172.303 327.226 171.315 328.393 170.097C329.846 168.569 330.92 166.721 331.528 164.704C332.479 161.814 332.35 158.678 331.163 155.876C329.977 153.074 327.814 150.796 325.075 149.462Z" fill="#C4FFE8" stroke="black" stroke-width="3" stroke-miterlimit="10"/>
<path d="M314.148 144.457L325.076 149.462C327.823 150.791 329.995 153.069 331.187 155.873C332.38 158.678 332.513 161.82 331.561 164.715C330.627 167.956 328.461 170.706 325.526 172.378C322.591 174.05 319.117 174.513 315.845 173.668L304.917 168.663C308.191 169.511 311.667 169.05 314.605 167.378C317.543 165.705 319.71 162.954 320.644 159.71C321.593 156.813 321.457 153.672 320.263 150.867C319.068 148.063 316.896 145.786 314.148 144.457V144.457Z" stroke="black" stroke-width="3" stroke-miterlimit="10"/>
<path d="M340.521 167.304C336.857 179.299 324.546 186.31 313.002 182.966L315.845 173.657C319.115 174.503 322.587 174.042 325.523 172.372C328.458 170.702 330.624 167.954 331.56 164.715C332.084 163.14 332.288 161.477 332.16 159.823C332.033 158.169 331.576 156.557 330.817 155.081C330.059 153.605 329.013 152.294 327.741 151.226C326.47 150.157 324.997 149.353 323.411 148.858L326.243 139.56C337.754 142.893 344.174 155.33 340.521 167.304Z" fill="#C4FFE8" stroke="black" stroke-width="3" stroke-miterlimit="10"/>
<path d="M318.233 135.623L329.15 140.628C328.209 140.196 327.237 139.835 326.242 139.549L315.326 134.533C316.32 134.827 317.291 135.191 318.233 135.623Z" fill="#C4FFE8"/>
<path d="M318.233 135.623L329.15 140.628C328.209 140.196 327.237 139.835 326.242 139.549L315.326 134.533C316.319 134.823 317.291 135.184 318.233 135.612" fill="#C4FFE8"/>
<path d="M318.233 135.623L329.15 140.628C328.209 140.196 327.237 139.835 326.242 139.549L315.326 134.533C316.319 134.823 317.291 135.184 318.233 135.612" stroke="black" stroke-width="3" stroke-miterlimit="10"/>
<path d="M318.233 135.623L329.15 140.628C328.209 140.196 327.237 139.835 326.242 139.549L315.326 134.533C316.32 134.827 317.291 135.191 318.233 135.623V135.623Z" stroke="black" stroke-width="3" stroke-miterlimit="10"/>
<path d="M315.51 134.62L326.102 139.484C326.143 139.501 326.176 139.533 326.194 139.573C326.212 139.613 326.214 139.659 326.199 139.7L323.465 148.653C323.458 148.677 323.446 148.699 323.43 148.717C323.413 148.736 323.393 148.751 323.371 148.761C323.348 148.771 323.324 148.777 323.299 148.777C323.274 148.777 323.25 148.771 323.227 148.761L312.624 143.907C312.585 143.888 312.555 143.856 312.539 143.816C312.523 143.776 312.522 143.732 312.537 143.691L315.261 134.727C315.269 134.703 315.283 134.681 315.3 134.663C315.317 134.644 315.338 134.629 315.362 134.619C315.385 134.609 315.41 134.604 315.436 134.604C315.461 134.604 315.486 134.609 315.51 134.62Z" fill="#C4FFE8" stroke="black" stroke-width="3" stroke-miterlimit="10"/>
<path d="M409.912 176.472C412.268 176.979 414.452 180.011 414.787 183.257C415.122 186.504 413.49 188.705 411.134 188.208C408.777 187.712 406.605 184.66 406.27 181.424C405.935 178.188 407.567 175.976 409.912 176.472Z" fill="black"/>
<path d="M401.038 206.363C401.935 206.557 403.481 210.677 406.151 212.436C406.789 212.841 407.496 213.126 408.237 213.277C408.932 213.407 409.637 213.483 410.344 213.504C410.927 213.509 411.509 213.56 412.084 213.655C413.079 213.87 413.641 214.453 413.371 216.297C412.841 219.868 410.528 221.691 407.793 221.108C407.022 220.939 406.289 220.628 405.632 220.191C402.032 217.862 399.644 212.349 400.314 207.873C400.508 206.708 400.735 206.298 401.038 206.363Z" fill="black"/>
<path d="M377.076 50.698C377.076 23.8928 346.347 2.15735 308.441 2.15735C270.535 2.15735 239.806 23.8928 239.806 50.698C239.806 77.5033 270.535 99.2387 308.441 99.2387C318.933 99.2851 329.356 97.5376 339.256 94.0719L357.75 112.528V84.4824C369.704 75.7127 377.076 63.8148 377.076 50.698Z" fill="white" stroke="black" stroke-width="4" stroke-miterlimit="10"/>
<path d="M314.266 79.8224C312.697 80.1123 311.076 79.7683 309.761 78.8662C308.446 77.9641 307.543 76.5776 307.252 75.0115L298.313 26.4708C298.026 24.8973 298.378 23.2747 299.29 21.9598C300.202 20.6449 301.6 19.7454 303.177 19.4594C304.753 19.1733 306.379 19.524 307.697 20.4343C309.014 21.3446 309.916 22.74 310.202 24.3134L319.152 72.8541C319.439 74.4203 319.091 76.0362 318.185 77.3468C317.28 78.6574 315.889 79.5556 314.32 79.844" fill="#FF5543"/>
<path d="M290.974 71.6029C289.67 71.8431 288.323 71.6469 287.142 71.0449C285.962 70.4429 285.013 69.4688 284.444 68.2737C283.875 67.0786 283.717 65.7294 283.994 64.4355C284.272 63.1417 284.97 61.9755 285.98 61.1181L323.627 29.1244C324.847 28.1331 326.408 27.658 327.975 27.801C329.542 27.9439 330.991 28.6935 332.011 29.8893C333.031 31.085 333.542 32.6319 333.433 34.1986C333.325 35.7653 332.606 37.2273 331.43 38.2716L293.784 70.2654C292.983 70.952 292.013 71.4137 290.974 71.6029Z" fill="#A112FF"/>
<path d="M333.084 63.8687C332.047 64.0656 330.975 63.9798 329.982 63.6206L283.386 47.0844C282.624 46.8336 281.919 46.4331 281.314 45.9066C280.709 45.38 280.216 44.738 279.863 44.0183C279.51 43.2986 279.305 42.5158 279.26 41.7158C279.215 40.9159 279.331 40.1151 279.6 39.3604C279.87 38.6058 280.288 37.9125 280.83 37.3215C281.372 36.7305 282.027 36.2537 282.756 35.919C283.486 35.5844 284.275 35.3987 285.077 35.373C285.88 35.3472 286.679 35.4818 287.429 35.769L334.014 52.3052C335.259 52.7504 336.323 53.5929 337.041 54.7022C337.759 55.8114 338.091 57.1259 337.985 58.4421C337.879 59.7584 337.342 61.0032 336.456 61.9841C335.57 62.965 334.385 63.6274 333.084 63.8687Z" fill="#00CBEC"/>
</svg>
