<svg width="589" height="350" fill="none" xmlns="http://www.w3.org/2000/svg"><path d="m360.657 287.199 4.14 2.902-2.508 1.186-44.315 21.099a16.974 16.974 0 0 0-1.913-1.575c-.454-.316-.93-.618-1.427-.906l-.778-.42 44.315-21.099 2.486-1.187Z" fill="#000"/><path d="M317.931 312.386c5.404 5.21 3.513 12.06-4.821 16.019-8.647 4.11-21.196 3.667-28.989-.82a19.02 19.02 0 0 1-1.437-.917c-7.566-5.318-6.291-13.214 2.896-17.582 8.366-3.981 20.418-3.679 28.233.399l.778.42c.497.288.973.59 1.427.906a17.064 17.064 0 0 1 1.913 1.575Zm-8.939 13.117c3.113-1.478 5.037-3.581 5.404-5.9.368-2.319-.821-4.595-3.394-6.408a13.652 13.652 0 0 0-1.016-.647 21.177 21.177 0 0 0-9.209-2.513 23.261 23.261 0 0 0-11.078 1.941c-3.113 1.489-5.037 3.582-5.405 5.912-.367 2.33.833 4.595 3.405 6.407.324.216.659.431 1.005.636a21.087 21.087 0 0 0 9.231 2.514c3.797.277 7.603-.39 11.079-1.942M241.644 114.416c7.566 5.329 6.29 13.214-2.908 17.593-8.42 4.002-20.536 3.678-28.405-.507l-.584-.313a18.358 18.358 0 0 1-3.469-2.61c-5.221-5.199-3.329-11.973 4.929-15.9 8.646-4.099 21.228-3.657 29.01.831.49.28.965.582 1.427.906Zm-7.037 14.691c3.113-1.488 5.048-3.581 5.405-5.911.356-2.33-.822-4.595-3.394-6.396a12.17 12.17 0 0 0-1.081-.658 20.946 20.946 0 0 0-9.209-2.503 23.108 23.108 0 0 0-11.068 1.942c-3.124 1.478-5.048 3.581-5.405 5.911-.356 2.33.822 4.595 3.394 6.397.323.23.659.443 1.006.636 2.841 1.539 6 2.403 9.23 2.524 3.793.267 7.594-.4 11.068-1.942M452.617 287.404l-2.27-1.586-4.993 2.384 2.248 1.575-52.325 24.659-32.988-23.192 2.508-1.186-4.14-2.902-2.496 1.187-154.434-108.3 11.435 8.015 4.994-2.374-16.797-11.79L396.12 309.172l152.672-71.97a14.268 14.268 0 0 0 1.881 1.543c.465.336.948.646 1.448.927.26.151.53.292.8.432l-100.304 47.3Z" fill="#000"/><path d="m450.347 285.851 2.27 1.585 56.064 39.34c-.923.309-1.829.669-2.713 1.079-.793.375-1.562.801-2.302 1.273l-56.064-39.34-2.248-1.575 4.993-2.362Z" fill="#000"/><path d="M541.259 338.706c-.552 3.323-3.243 6.321-7.761 8.435-8.647 4.11-21.196 3.668-28.978-.809a24.028 24.028 0 0 1-1.448-.916c-3.675-2.589-5.405-5.836-4.853-9.158.443-2.708 2.345-5.189 5.404-7.163.74-.472 1.509-.897 2.302-1.273.884-.409 1.79-.769 2.713-1.078 8.409-2.87 19.294-2.158 26.287 1.92.497.291.983.593 1.437.917 3.718 2.578 5.448 5.824 4.897 9.125Zm-11.89 5.534c3.113-1.478 5.037-3.571 5.404-5.9.368-2.33-.81-4.596-3.393-6.408-.325-.226-.66-.442-1.017-.647a21.026 21.026 0 0 0-9.208-2.503 23.218 23.218 0 0 0-11.068 1.942c-3.124 1.478-5.048 3.581-5.405 5.9-.356 2.319.822 4.606 3.394 6.408.327.231.666.443 1.016.636 2.841 1.539 6 2.403 9.231 2.524a23.163 23.163 0 0 0 11.068-1.952M206.278 128.579a14.622 14.622 0 0 0 2.032 1.683c.461.336.941.646 1.437.927l.584.313-40.111 19.104 33.193 23.288 16.797 11.79-4.994 2.373-11.489-8.014-1.146-.809-4.129-2.902-37.419-26.244 45.245-21.509Z" fill="#000"/><path d="m37.004 256.435 161.459-80.103 4.129 2.902-161.448 80.081a16.994 16.994 0 0 0-1.87-1.51 17.05 17.05 0 0 0-1.438-.917c-.27-.162-.562-.313-.832-.453ZM584.05 222.899c7.566 5.318 6.291 13.214-2.897 17.593-8.344 3.959-20.363 3.689-28.189-.388-.27-.14-.54-.281-.799-.432-.5-.281-.984-.591-1.449-.927a14.324 14.324 0 0 1-1.88-1.543c-5.405-5.21-3.556-12.07 4.777-16.04 8.647-4.11 21.239-3.657 29 .82.497.291.983.593 1.437.917Zm-7.025 14.681c3.112-1.478 5.036-3.571 5.404-5.901.367-2.33-.832-4.595-3.405-6.396a10.746 10.746 0 0 0-1.016-.658 21.179 21.179 0 0 0-9.209-2.514 23.284 23.284 0 0 0-11.079 1.953c-3.113 1.478-5.037 3.57-5.404 5.9-.367 2.33.821 4.606 3.394 6.408.324.226.659.431 1.005.636a21.24 21.24 0 0 0 9.241 2.524 23.167 23.167 0 0 0 11.069-1.952Z" fill="#000"/><path d="M44.127 266.952c-.54 3.323-3.297 6.321-7.74 8.436-8.646 4.109-21.217 3.667-28.999-.809a21.103 21.103 0 0 1-1.437-.917c-3.686-2.578-5.405-5.836-4.853-9.158.55-3.323 3.296-6.321 7.75-8.436 8.333-3.958 20.341-3.678 28.102.367.28.14.562.291.832.453.508.291.984.593 1.438.917.658.459 1.283.963 1.87 1.51 2.431 2.287 3.49 4.962 3.037 7.637Zm-11.89 5.534c3.124-1.478 5.037-3.571 5.404-5.901.368-2.329-.821-4.606-3.393-6.407a8.478 8.478 0 0 0-1.081-.647 20.94 20.94 0 0 0-9.198-2.503 23.032 23.032 0 0 0-11.08 1.942c-3.112 1.478-5.047 3.57-5.404 5.9-.356 2.33.822 4.606 3.405 6.408.324.226.66.442 1.016.647a21.123 21.123 0 0 0 9.21 2.513c3.793.27 7.596-.401 11.067-1.952" fill="#000"/><path d="m227.02 244.149 8.733 10.172a9.587 9.587 0 0 1 1.502 9.525.225.225 0 0 1-.282.136.232.232 0 0 1-.096-.061l-8.247-9.6a.65.65 0 0 1-.119-.637 9.58 9.58 0 0 0-1.491-9.535Z" fill="#BFBFFF" stroke="#000" stroke-width="3" stroke-miterlimit="10"/><path d="M234.25 242.79c10.15 2.308 15.241 12.437 11.576 22.792a.679.679 0 0 1-.789.432l-7.685-1.748a.21.21 0 0 1-.137-.107.21.21 0 0 1-.025-.085.202.202 0 0 1 .011-.088c2.054-5.674-.724-11.251-6.28-12.524-5.555-1.272-11.608 2.158-13.986 7.551a.683.683 0 0 1-.757.388l-7.566-1.736a.304.304 0 0 1-.216-.399c4.118-10.323 15.64-16.806 25.854-14.476Z" fill="#BFBFFF" stroke="#000" stroke-width="3" stroke-miterlimit="10"/><path d="M234.38 237.849a16.296 16.296 0 0 0-8.863-5.231c-10.203-2.319-21.693 4.131-25.876 14.465a.677.677 0 0 0 .119.69l8.161 9.493a.297.297 0 0 0 .264.095.293.293 0 0 0 .222-.171c4.194-10.301 15.672-16.719 25.843-14.4a16.218 16.218 0 0 1 8.863 5.231l-8.733-10.172Z" fill="#BFBFFF" stroke="#000" stroke-width="3" stroke-miterlimit="10"/><path d="M195.696 188.662a35.406 35.406 0 0 1 14.851 8.877c7.782 7.842 10.916 18.823 9.36 32.684a6.538 6.538 0 0 0 1.197 4.623 6.56 6.56 0 0 0 4.024 2.583l2.561.496a5.421 5.421 0 0 0 4.253-.878 5.4 5.4 0 0 0 2.232-3.717c5.956-45.434-29.723-57.17-34.587-58.605l-.53-.14c-3.783 1.898-6.993 9.374-3.361 14.077Z" fill="#B3B3B3" stroke="#000" stroke-width="3" stroke-miterlimit="10"/><path d="m503.417 252.919 12.085 6.968a10.004 10.004 0 0 1 4.777 8.953.173.173 0 0 1-.249.14l-11.5-6.645a.64.64 0 0 1-.303-.55 9.985 9.985 0 0 0-4.81-8.866Z" fill="#C4FFE8" stroke="#000" stroke-width="3" stroke-miterlimit="10"/><path d="M510.043 249.089c10.809-1.229 19.272 6.969 19.239 18.424a.652.652 0 0 1-.572.637l-7.848.895a.525.525 0 0 1-.41-.134.516.516 0 0 1-.128-.179.517.517 0 0 1-.045-.216c-.13-6.094-4.724-10.42-10.495-9.708-5.772.712-10.668 6.116-11.101 12.308a.643.643 0 0 1-.551.593l-7.361.842a.954.954 0 0 1-1.081-.993c.865-11.347 9.771-21.25 20.353-22.469Z" fill="#C4FFE8" stroke="#000" stroke-width="3" stroke-miterlimit="10"/><path d="M508.465 244.203a17.03 17.03 0 0 0-10.506-2.071c-10.809 1.24-19.866 11.542-20.374 23.138a.648.648 0 0 0 .324.582l10.441 6.008a.935.935 0 0 0 .893.025.927.927 0 0 0 .502-.737c1.005-11.142 9.825-20.85 20.298-22.059a16.961 16.961 0 0 1 10.506 2.082l-12.084-6.968Z" fill="#C4FFE8" stroke="#000" stroke-width="3" stroke-miterlimit="10"/><path d="M154.072 239.079a55.887 55.887 0 0 1-34.809-12.001 55.693 55.693 0 0 1-19.742-31.028 56.448 56.448 0 0 1-1.492-12.944 55.831 55.831 0 0 1 16.44-39.491 56.062 56.062 0 0 1 39.603-16.331c1.438 0 2.864 0 4.323.162a56.25 56.25 0 0 1 36.788 17.795 56.033 56.033 0 0 1 14.975 37.962 55.807 55.807 0 0 1-4.259 21.405 55.913 55.913 0 0 1-12.145 18.146 56.033 56.033 0 0 1-18.181 12.124 56.117 56.117 0 0 1-21.447 4.255l-.054-.054Z" fill="#A112FF"/><path d="M154.072 129.237a53.835 53.835 0 0 1 40.473 18.396 53.622 53.622 0 0 1 13.163 38.432 53.649 53.649 0 0 1-17.573 36.634 53.86 53.86 0 0 1-38.251 13.868 53.839 53.839 0 0 1-37.037-16.834 53.628 53.628 0 0 1-14.625-37.902 53.633 53.633 0 0 1 16.158-37.277 53.846 53.846 0 0 1 37.692-15.317Zm0-4.024a58.289 58.289 0 0 0-40.801 16.58 58.052 58.052 0 0 0-17.488 40.353 58.045 58.045 0 0 0 15.837 41.026 58.278 58.278 0 0 0 40.095 18.214 58.294 58.294 0 0 0 41.402-15.025 58.065 58.065 0 0 0 19.008-39.662 58.039 58.039 0 0 0-14.268-41.596 58.266 58.266 0 0 0-39.375-19.717 53.86 53.86 0 0 0-4.41-.173Z" fill="#000"/><path d="M105.606 197.766c-1.481 0-2.918-.054-4.323-.173l-1.46-.119-.335-1.424a55.838 55.838 0 0 1-.146-24.993 55.907 55.907 0 0 1 10.774-22.564 56.046 56.046 0 0 1 19.543-15.63 56.163 56.163 0 0 1 24.413-5.579c1.47 0 2.907 0 4.323.162l1.459.119.346 1.424a55.884 55.884 0 0 1 .151 24.994 55.958 55.958 0 0 1-10.759 22.57 56.094 56.094 0 0 1-19.527 15.651 56.204 56.204 0 0 1-24.405 5.615l-.054-.053Z" fill="#6B59ED"/><path d="M154.072 129.248c1.383 0 2.756 0 4.107.151a53.833 53.833 0 0 1 .168 24.101 53.886 53.886 0 0 1-10.369 21.768 54.029 54.029 0 0 1-18.834 15.087 54.118 54.118 0 0 1-23.538 5.393c-1.383 0-2.756-.054-4.118-.161a53.831 53.831 0 0 1-.163-24.101 53.886 53.886 0 0 1 10.372-21.765 54.034 54.034 0 0 1 18.836-15.084 54.136 54.136 0 0 1 23.539-5.389Zm0-4.035a58.2 58.2 0 0 0-25.296 5.796 58.06 58.06 0 0 0-20.241 16.212 57.92 57.92 0 0 0-11.146 23.392 57.856 57.856 0 0 0 .175 25.901l.681 2.848 2.919.248c1.416.108 2.907.173 4.442.173a58.205 58.205 0 0 0 25.293-5.804 58.07 58.07 0 0 0 20.237-16.216 57.927 57.927 0 0 0 11.142-23.392 57.85 57.85 0 0 0-.175-25.9l-.67-2.848-2.93-.237a53.054 53.054 0 0 0-4.431-.173Z" fill="#000"/><path d="M131.352 180.636a3.023 3.023 0 0 0 3.027-3.02 3.024 3.024 0 0 0-3.027-3.021 3.024 3.024 0 0 0-3.026 3.021 3.023 3.023 0 0 0 3.026 3.02ZM113.096 190.279a3.023 3.023 0 0 0 3.027-3.02 3.023 3.023 0 0 0-3.027-3.02 3.023 3.023 0 0 0-3.026 3.02 3.023 3.023 0 0 0 3.026 3.02ZM144.485 165.513a3.023 3.023 0 0 0 3.026-3.02 3.024 3.024 0 0 0-3.026-3.021 3.024 3.024 0 0 0-3.027 3.021 3.023 3.023 0 0 0 3.027 3.02ZM150.538 146.366a3.023 3.023 0 0 0 3.026-3.02 3.023 3.023 0 0 0-3.026-3.02 3.023 3.023 0 0 0-3.027 3.02 3.023 3.023 0 0 0 3.027 3.02Z" fill="#000"/><path d="M196.161 216.945a57.67 57.67 0 0 0-2.167-53.819 57.816 57.816 0 0 0-19.303-19.964 57.98 57.98 0 0 0-26.402-8.683 54.681 54.681 0 0 0-4.409-.172 57.38 57.38 0 0 0-18.051 2.891 53.832 53.832 0 0 1 32.361-7.799 54.099 54.099 0 0 1 27.223 9.869 53.955 53.955 0 0 1 18.208 22.48 53.847 53.847 0 0 1-7.46 55.197Z" fill="#FFD1F2" style="mix-blend-mode:color-dodge" opacity=".4"/><path d="M146.03 191.412c4.734 2.751 45.137 16.515 55.957-15.177" stroke="#000" stroke-width="4" stroke-miterlimit="10" stroke-linecap="round"/><path d="m175.127 177.087-2.572-.712a9.74 9.74 0 0 0 6.236-.42l2.573.712a9.664 9.664 0 0 1-6.237.42Z" fill="#000"/><path d="m180.38 148.308 2.573.712c3.761 1.079 6.744 4.498 7.566 9.46 1.275 7.551-2.832 15.662-9.177 18.187l-2.572-.712c6.344-2.525 10.452-10.679 9.176-18.187-.821-4.962-3.805-8.414-7.566-9.46Z" fill="#000"/><path d="M174.154 148.729a9.624 9.624 0 0 1 6.226-.421l2.573.712a9.743 9.743 0 0 0-6.226.421l-2.573-.712ZM172.554 176.375a9.974 9.974 0 0 1-5.771-4.53l2.572.723a9.954 9.954 0 0 0 5.772 4.519l-2.573-.712Z" fill="#FFF2CF"/><path d="m181.234 145.191 2.572.712a11.785 11.785 0 0 0-7.566.507l-2.572-.712a11.785 11.785 0 0 1 7.566-.507Z" fill="#000"/><path d="M164.978 166.915c-1.286-7.551 2.821-15.662 9.176-18.186l2.573.712c-6.356 2.534-10.463 10.668-9.177 18.186a13.673 13.673 0 0 0 1.805 4.962l-2.572-.723a13.51 13.51 0 0 1-1.805-4.951Z" fill="#FFF2CF"/><path d="M190.087 166.104c2.166-7.747-1.028-15.405-7.135-17.105-6.106-1.7-12.812 3.201-14.978 10.948-2.166 7.746 1.029 15.404 7.135 17.105 6.106 1.7 12.812-3.201 14.978-10.948Z" fill="#FFF2CF"/><path d="m174.273 180.194-2.572-.712c-4.594-1.284-8.258-5.501-9.285-11.553-1.567-9.179 3.47-19.146 11.219-22.231l2.573.712c-7.75 3.085-12.787 13.062-11.219 22.231 1.026 6.106 4.691 10.28 9.284 11.553Z" fill="#000"/><path d="M176.208 146.41c7.75-3.075 15.316 1.887 16.883 11.056 1.567 9.169-3.469 19.147-11.219 22.221-7.75 3.074-15.327-1.877-16.883-11.046-1.557-9.169 3.469-19.146 11.219-22.231Zm5.156 30.203c6.345-2.524 10.452-10.669 9.176-18.187-1.275-7.518-7.468-11.563-13.813-9.039-6.345 2.524-10.463 10.668-9.176 18.186 1.286 7.519 7.457 11.564 13.813 9.04Z" fill="#000"/><path d="M179.299 156.053c4.41-1.845 8.744.928 9.728 6.202a1.894 1.894 0 0 1-1.005 2.028 1.078 1.078 0 0 1-1.029-.077 1.078 1.078 0 0 1-.495-.904 5.699 5.699 0 0 0-2.411-3.938 4.46 4.46 0 0 0-4.204-.302 7.14 7.14 0 0 0-3.524 3.528 8.682 8.682 0 0 0-.8 5.274 1.91 1.91 0 0 1-.994 2.039 1.076 1.076 0 0 1-1.029-.077 1.086 1.086 0 0 1-.495-.904c-.984-5.264 1.837-11.025 6.258-12.869Z" fill="#000"/><path d="M145.059 121.715c22.779-2.39 40.425-12.117 39.412-21.727-1.012-9.61-20.298-15.463-43.078-13.074-22.779 2.39-40.425 12.117-39.413 21.727 1.013 9.61 20.299 15.463 43.079 13.074Z" fill="#FFF2CF" stroke="#000" stroke-width="1.94" stroke-miterlimit="10" stroke-linecap="round"/><path d="m143.75 132.095-.487-13.72a2.477 2.477 0 0 1 2.648-2.255 2.699 2.699 0 0 1 2.702 1.618l4.421 13.257c.681 2.028-.81 4.121-3.329 4.671-2.518.55-5.112-.658-5.793-2.686a3.215 3.215 0 0 1-.162-.885Z" fill="#000"/><path d="M184.444 99.39c.638 3.452-1.2 6.947-4.864 10.139-4.712 4.089-12.462 7.681-21.92 9.978a93.295 93.295 0 0 1-11.241 2.017c-20.05 2.373-37.83-1.65-42.964-9.179a8.186 8.186 0 0 1-1.351-3.236c-.562-3.118.876-6.267 3.87-9.201 6.15-6.041 18.871-11.122 34.166-12.945a98.061 98.061 0 0 1 11.176-.68c9.825 0 18.472 1.554 24.481 4.316 4.864 2.265 8.01 5.253 8.647 8.79Z" fill="#BFBFFF"/><path d="m175.268 91.257-4.972 5.706a3.811 3.811 0 0 1-2.476.863l-6.031.302c-.5.02-.995.11-1.47.27l-14.505 4.94-2.313.787h-.086v-.291l-.065-.669-.606-6.256c-.075-.755 1.762-1.456 3.416-1.284 1.524.151 3.243-.431 3.405-1.154l1.513-6.958c.14-.657 1.6-1.219 3.048-1.175 8.193.237 15.435 1.618 20.785 3.872.551.27.713.669.357 1.047ZM143.912 104.751h-.119l-15.132 4.563c-1.611.485-3.513.162-3.545-.604 0-.702-1.665-1.079-3.243-.68l-15.867 3.7c-1.383.324-2.897.097-3.243-.485a7.732 7.732 0 0 1-.713-2.158c-.53-2.891.681-5.814 3.243-8.565a3.604 3.604 0 0 1 2.161-.798l14.873-1.564a3.175 3.175 0 0 1 2.421.475l2.021 2.254c.255.234.576.385.919.432l16.062 3.344.162.086Z" fill="#fff"/><path d="M174.328 113.262a70.245 70.245 0 0 1-21.402 7.345 4.425 4.425 0 0 1-2.431-.161l-10.258-4.585c-.67-.291-.713-.798-.108-1.219l3.416-2.427a.8.8 0 0 0 .421-.647l-.367-6.666v-1.672h.216l2.345.313 12.646 1.672c1.6.215 1.795 1.143.346 1.726-1.329.539-1.297 1.391.065 1.682l14.765 3.118c1.081.269 1.307.97.346 1.521Z" fill="#fff"/><path d="M147.025 103.823c.151.863-1.395 1.769-3.459 2.017-2.065.248-3.87-.259-4.032-1.078-.162-.82 1.081-3.646 3.113-3.894 2.032-.249 4.215 2.092 4.378 2.955Z" fill="#000"/><path d="M184.444 99.39c.638 3.452-1.2 6.946-4.864 10.139-4.712 4.089-12.462 7.681-21.92 9.978a93.295 93.295 0 0 1-11.241 2.017c-20.05 2.373-37.83-1.65-42.964-9.179a8.186 8.186 0 0 1-1.351-3.236c-.562-3.118.876-6.267 3.87-9.201 6.15-6.041 18.871-11.122 34.166-12.945a98.061 98.061 0 0 1 11.176-.68c9.825 0 18.472 1.554 24.481 4.316 4.864 2.265 8.01 5.253 8.647 8.79Z" stroke="#000" stroke-width="2.7" stroke-miterlimit="10" stroke-linecap="round"/><path d="M128.067 127.101c-10.474-.906-19.521-3.236-25.844-6.666M183.245 87.524c5.977 2.73 9.835 6.397 10.625 10.787.789 4.39-1.481 8.543-5.988 12.459M92.679 110.263c-.692-3.83 1.08-7.713 4.756-11.316 7.566-7.42 23.195-13.666 41.98-15.889" stroke="#000" stroke-width="1.8" stroke-miterlimit="10" stroke-linecap="round"/><path d="M418.494 240.611c9.728-4.315 16.678.766 15.564 11.24-1.113 10.474-9.9 22.426-19.617 26.697-9.717 4.272-16.667-.766-15.554-11.25 1.113-10.485 9.901-22.437 19.607-26.687Z" fill="#000"/><path d="M417.737 247.644c6.107-2.675 10.485.485 9.728 7.076-.756 6.591-6.226 14.098-12.332 16.784-6.107 2.686-10.485-.485-9.728-7.076.756-6.591 6.236-14.098 12.332-16.784Z" fill="#FFF2CF"/><path d="M417.208 252.692c3.524-1.542 6.053.281 5.642 4.078a13.206 13.206 0 0 1-7.112 9.708c-3.524 1.542-6.053-.281-5.642-4.078a13.2 13.2 0 0 1 2.385-5.708 13.238 13.238 0 0 1 4.727-4ZM402.605 278.408l-7.328-5.394c-2.778-2.038-4.215-5.9-3.664-11.11 1.081-10.474 9.901-22.426 19.607-26.686l7.328 5.393c-9.728 4.315-18.483 16.18-19.607 26.687-.605 5.21.832 9.071 3.664 11.11Z" fill="#000"/><path d="M415.413 263.997a2.664 2.664 0 0 1-1.825-1.13 2.653 2.653 0 0 1-.401-2.106l1.902-17.831a6.886 6.886 0 0 1 3.729-5.091 3.437 3.437 0 0 1 1.773-.313 2.678 2.678 0 0 1 2.248 2.141c.069.362.061.735-.022 1.095l-1.902 17.83a6.876 6.876 0 0 1-3.729 5.092 3.458 3.458 0 0 1-1.773.313Z" fill="gray"/><path d="M420.461 238.658c.854.087 1.373.831 1.243 1.985l-1.902 17.831a5.74 5.74 0 0 1-3.07 4.185c-.373.18-.787.259-1.2.227-.853-.087-1.361-.831-1.243-1.985l1.903-17.831a5.755 5.755 0 0 1 3.08-4.185c.369-.181.78-.259 1.189-.227Zm.249-2.222a4.546 4.546 0 0 0-2.335.41 7.958 7.958 0 0 0-2.944 2.449 7.926 7.926 0 0 0-1.455 3.538l-1.902 17.831a3.77 3.77 0 0 0 1.793 3.949c.444.262.937.43 1.449.495a4.607 4.607 0 0 0 2.346-.41 7.937 7.937 0 0 0 4.399-5.987l1.902-17.83a3.768 3.768 0 0 0-1.793-3.95 3.795 3.795 0 0 0-1.449-.495h-.011Z" fill="#000"/><path d="M417.003 258.646c.789-.345 1.351 0 1.264.906a2.95 2.95 0 0 1-1.589 2.158c-.789.345-1.351-.065-1.253-.906a2.928 2.928 0 0 1 1.578-2.158Z" fill="#000"/><path d="M406.637 167.616c-.302.378-30.199 37.01-75.855 3.571l8.917-12.135c14.268 10.495 27.843 13.591 40.208 9.222a36.929 36.929 0 0 0 14.949-10.031l11.781 9.373Z" fill="#B3B3B3"/><path d="m408.842 167.368-.973 1.23c-.302.388-31.107 38.207-78.027 3.851l-1.265-.928 10.809-14.659 1.275.928c13.868 10.161 26.903 13.192 38.738 9.007a35.678 35.678 0 0 0 14.268-9.547l.983-1.197 14.192 11.315Zm-75.855 3.463c38.911 27.517 65.835 2.837 71.337-3.02l-9.285-7.422a39.303 39.303 0 0 1-14.602 9.374c-12.506 4.412-26.081 1.553-40.37-8.522l-7.08 9.59Z" fill="#000"/><path d="m436.869 171.608 1.329 85.658-61.317-44.863 18.926-70.826 41.062 30.031Z" fill="#8FEDCF"/><path d="M477.595 159.958a16.418 16.418 0 0 0-5.998-8.77l-25.574-19.103a22.661 22.661 0 0 0-22.341-2.514l-27.875 12.006 38.241 27.97a6.993 6.993 0 0 1 2.875 5.545l1.275 82.174 52.962-23.451a7.757 7.757 0 0 0 4.324-9.169l-17.889-64.688Z" fill="#00CBEC"/><path d="M435.107 127.856a22.644 22.644 0 0 1 10.917 4.229l24.557 18.337a20.077 20.077 0 0 1 7.35 10.787l16.731 60.406a11.441 11.441 0 0 1-.685 7.966 11.476 11.476 0 0 1-5.735 5.582l-50.044 22.157-61.317-44.863 17.294-64.721a13.04 13.04 0 0 1 2.74-5.172 13.077 13.077 0 0 1 4.728-3.457l22.039-9.493a22.66 22.66 0 0 1 11.425-1.715v-.043Zm.454-4.12a26.86 26.86 0 0 0-13.5 1.984l-22.039 9.493a17.213 17.213 0 0 0-6.255 4.568 17.173 17.173 0 0 0-3.613 6.844l-17.294 64.721-.735 2.772 2.313 1.694 61.317 44.852 1.968 1.434 2.161-.981 50.055-22.157a15.773 15.773 0 0 0 7.797-7.632 15.733 15.733 0 0 0 .969-10.856l-16.743-60.406a24.358 24.358 0 0 0-8.884-12.945l-24.558-18.337a26.863 26.863 0 0 0-12.97-5.038l.011-.01Z" fill="#000"/><path d="M452.131 211.228a37.037 37.037 0 0 1 17.78 2.729c10.582 4.509 17.921 13.85 21.877 27.808a6.798 6.798 0 0 0 2.964 3.977 6.823 6.823 0 0 0 4.883.91l2.669-.518a5.679 5.679 0 0 0 3.7-2.528 5.65 5.65 0 0 0 .7-4.419c-12.128-46.103-51.136-43.449-56.335-42.867l-.573.076c-2.875 3.279-3.015 11.725 2.335 14.832Z" fill="#B3B3B3" stroke="#000" stroke-width="3.12" stroke-miterlimit="10"/><path d="m96.04 259.639-6.204 11.865a9.609 9.609 0 0 0 .692 9.622.23.23 0 0 0 .083.081.23.23 0 0 0 .223 0 .231.231 0 0 0 .083-.081l5.858-11.207a.657.657 0 0 0 0-.648 9.605 9.605 0 0 1-.735-9.632Z" fill="#BFBFFF" stroke="#000" stroke-width="3" stroke-miterlimit="10"/><path d="M88.68 259.962c-9.36 4.542-12.02 15.544-6.096 24.81a.678.678 0 0 0 .854.237l7.09-3.44a.207.207 0 0 0 .076-.313c-3.243-5.059-1.838-11.122 3.242-13.603 5.08-2.48 11.792-.539 15.338 4.229a.66.66 0 0 0 .821.216l7.026-3.409a.32.32 0 0 0 .156-.195.317.317 0 0 0-.037-.247c-6.377-9.158-19.045-12.869-28.47-8.285Z" fill="#BFBFFF" stroke="#000" stroke-width="3" stroke-miterlimit="10"/><path d="M87.437 255.162a16.203 16.203 0 0 1 7.458-7.087c9.403-4.563 22.06-.873 28.48 8.252a.687.687 0 0 1 0 .691l-5.804 11.099a.275.275 0 0 1-.243.14.283.283 0 0 1-.243-.14c-6.485-9.082-19.056-12.739-28.448-8.187a16.275 16.275 0 0 0-7.448 7.087l6.248-11.855Z" fill="#BFBFFF" stroke="#000" stroke-width="3" stroke-miterlimit="10"/><path d="M106.255 197.399a35.286 35.286 0 0 0-11.166 13.203c-4.82 9.934-4.215 21.336 1.762 33.946a6.523 6.523 0 0 1 .373 4.757 6.538 6.538 0 0 1-2.967 3.743l-2.259 1.305a5.399 5.399 0 0 1-4.276.507 5.4 5.4 0 0 1-3.29-2.772c-20.407-41.044 9.522-63.75 13.662-66.619l.454-.313c4.14.615 9.609 6.644 7.707 12.243Z" fill="#B3B3B3" stroke="#000" stroke-width="3" stroke-miterlimit="10"/><path d="m404.324 168.943 1.524-.669c-2.021.896-3.459 3.107-3.837 6.472-.757 6.688 3.08 15.393 8.56 19.417l-1.567.69c-5.469-4.002-9.306-12.707-8.56-19.416.421-3.387 1.859-5.599 3.88-6.494Z" fill="#000"/><path d="m418.073 195.64-1.568.691c-2.053.906-4.701.464-7.458-1.553l1.568-.691c2.799 2.017 5.404 2.46 7.458 1.553Z" fill="#000"/><path d="M405.848 168.274c2.043-.906 4.702-.463 7.458 1.554l-1.567.69c-2.756-2.017-5.405-2.459-7.458-1.553l1.567-.691ZM421.899 189.212c-.368 3.322-1.805 5.533-3.826 6.472l-1.568.69c2.022-.895 3.459-3.107 3.837-6.472.28-3.678-.39-7.366-1.945-10.711l1.567-.691a21.534 21.534 0 0 1 1.935 10.712Z" fill="#FFF2CF"/><path d="M413.349 169.806a21.734 21.734 0 0 1 6.615 8.694l-1.567.691a21.819 21.819 0 0 0-6.615-8.695l1.567-.69Z" fill="#FFF2CF"/><path d="M411.782 170.496c5.469 4.002 9.306 12.707 8.56 19.417-.746 6.709-5.847 8.877-11.252 4.865-5.404-4.013-9.306-12.707-8.56-19.417.746-6.709 5.772-8.867 11.252-4.865Z" fill="#FFF2CF"/><path d="M413.727 166.408c-3.523-2.578-6.917-3.15-9.533-1.985l-1.567.691c2.626-1.165 6.01-.593 9.533 1.985 7.004 5.123 11.89 16.266 10.949 24.809-.475 4.315-2.313 7.087-4.907 8.241l1.567-.701c2.584-1.143 4.432-3.98 4.907-8.23.962-8.554-3.945-19.708-10.949-24.81Z" fill="#000"/><path d="M412.16 167.099c7.004 5.123 11.89 16.266 10.949 24.809-.94 8.543-7.436 11.37-14.44 6.246-7.004-5.124-11.889-16.256-10.949-24.81.94-8.554 7.436-11.369 14.44-6.245Zm-3.069 27.679c5.48 4.012 10.538 1.812 11.295-4.876.756-6.688-3.092-15.404-8.561-19.416-5.469-4.013-10.538-1.813-11.295 4.886-.756 6.699 3.091 15.393 8.561 19.416" fill="#000"/><path d="m441.132 114.587-2.03-.222a2.356 2.356 0 0 0-2.599 2.082l-2.768 25.263a2.353 2.353 0 0 0 2.086 2.593l2.031.222a2.356 2.356 0 0 0 2.599-2.082l2.768-25.263a2.353 2.353 0 0 0-2.087-2.593Z" fill="#B3B3B3"/><path d="m437.647 146.054-2.043-.216a3.886 3.886 0 0 1-2.583-1.424 3.863 3.863 0 0 1-.832-2.826l2.767-25.274a3.873 3.873 0 0 1 4.258-3.419l2.043.226a3.883 3.883 0 0 1 2.583 1.425 3.86 3.86 0 0 1 .832 2.825l-2.767 25.274a3.845 3.845 0 0 1-2.757 3.278 3.864 3.864 0 0 1-1.501.131Zm1.243-30.204a.858.858 0 0 0-.94.745l-2.767 25.273a.848.848 0 0 0 .184.622.849.849 0 0 0 .572.306l2.032.226a.853.853 0 0 0 .941-.744l2.767-25.273a.861.861 0 0 0-.757-.939l-2.032-.216Z" fill="#000"/><path d="M440.306 118.709c3.48 0 6.301-2.816 6.301-6.289s-2.821-6.289-6.301-6.289-6.302 2.816-6.302 6.289 2.822 6.289 6.302 6.289Z" fill="#B3B3B3"/><path d="M439.452 120.165a7.79 7.79 0 0 1-6.547-10.102 7.787 7.787 0 0 1 2.566-3.72 7.816 7.816 0 0 1 8.63-.74 7.797 7.797 0 0 1 3.163 3.231 7.777 7.777 0 0 1 .835 4.438 7.8 7.8 0 0 1-5.604 6.638 7.818 7.818 0 0 1-3.043.255Zm1.373-12.491a4.786 4.786 0 0 0-4.722 2.452 4.763 4.763 0 0 0-.572 2.715 4.782 4.782 0 0 0 3.333 4.141 4.793 4.793 0 0 0 5.108-1.49 4.77 4.77 0 0 0 .062-6.061 4.796 4.796 0 0 0-3.209-1.757Z" fill="#000"/><path d="m305.101 168.738 10.603 4.854a.202.202 0 0 1 .086.092.203.203 0 0 1 .012.124l-2.735 8.964a.182.182 0 0 1-.101.108.17.17 0 0 1-.074.016.193.193 0 0 1-.074-.016l-10.592-4.865a.174.174 0 0 1-.092-.089.17.17 0 0 1-.005-.127l2.734-8.953a.156.156 0 0 1 .036-.064.166.166 0 0 1 .13-.059c.025 0 .049.005.072.015Z" fill="#C4FFE8" stroke="#000" stroke-width="3" stroke-miterlimit="10"/><path d="m314.148 144.457 10.928 5.005a12.602 12.602 0 0 1 6.111 6.411 12.563 12.563 0 0 1 .374 8.842 12.949 12.949 0 0 1-6.035 7.663 12.997 12.997 0 0 1-9.681 1.29l-10.928-5.005a13 13 0 0 0 9.688-1.285 12.948 12.948 0 0 0 6.039-7.668 12.577 12.577 0 0 0-.381-8.843 12.616 12.616 0 0 0-6.115-6.41Z" fill="#C4FFE8"/><path d="m325.075 149.462-10.927-5.005a12.61 12.61 0 0 1 6.104 6.408 12.58 12.58 0 0 1 .381 8.834 13.556 13.556 0 0 1-3.145 5.393 13.446 13.446 0 0 1-2.022 1.737c-.653.45-1.344.843-2.064 1.176a13.06 13.06 0 0 1-2.292.787 12.14 12.14 0 0 1-6.204-.14l10.917 5.016c2.015.572 4.145.617 6.183.129a12.557 12.557 0 0 0 2.302-.787 13.48 13.48 0 0 0 4.085-2.913 13.469 13.469 0 0 0 3.135-5.393c.951-2.89.822-6.026-.365-8.828a12.599 12.599 0 0 0-6.088-6.414Z" fill="#C4FFE8" stroke="#000" stroke-width="3" stroke-miterlimit="10"/><path d="m314.148 144.457 10.928 5.005a12.602 12.602 0 0 1 6.111 6.411 12.563 12.563 0 0 1 .374 8.842 12.949 12.949 0 0 1-6.035 7.663 12.997 12.997 0 0 1-9.681 1.29l-10.928-5.005a13 13 0 0 0 9.688-1.285 12.948 12.948 0 0 0 6.039-7.668 12.577 12.577 0 0 0-.381-8.843 12.616 12.616 0 0 0-6.115-6.41Z" stroke="#000" stroke-width="3" stroke-miterlimit="10"/><path d="M340.521 167.304c-3.664 11.995-15.975 19.006-27.519 15.662l2.843-9.309c3.27.846 6.742.385 9.678-1.285a12.948 12.948 0 0 0 6.037-7.657 12.452 12.452 0 0 0-.743-9.634 12.523 12.523 0 0 0-7.406-6.223l2.832-9.298c11.511 3.333 17.931 15.77 14.278 27.744Z" fill="#C4FFE8" stroke="#000" stroke-width="3" stroke-miterlimit="10"/><path d="m318.233 135.623 10.917 5.005a20.63 20.63 0 0 0-2.908-1.079l-10.916-5.016c.994.294 1.965.658 2.907 1.09Z" fill="#C4FFE8"/><path d="m318.233 135.623 10.917 5.005a20.63 20.63 0 0 0-2.908-1.079l-10.916-5.016c.993.29 1.965.651 2.907 1.079" fill="#C4FFE8"/><path d="m318.233 135.623 10.917 5.005a20.63 20.63 0 0 0-2.908-1.079l-10.916-5.016c.993.29 1.965.651 2.907 1.079" stroke="#000" stroke-width="3" stroke-miterlimit="10"/><path d="m318.233 135.623 10.917 5.005a20.63 20.63 0 0 0-2.908-1.079l-10.916-5.016c.994.294 1.965.658 2.907 1.09Z" stroke="#000" stroke-width="3" stroke-miterlimit="10"/><path d="m315.51 134.62 10.592 4.864a.174.174 0 0 1 .092.089.17.17 0 0 1 .005.127l-2.734 8.953a.167.167 0 0 1-.035.064.179.179 0 0 1-.131.06.18.18 0 0 1-.072-.016l-10.603-4.854a.174.174 0 0 1-.087-.216l2.724-8.964a.175.175 0 0 1 .039-.064.185.185 0 0 1 .21-.043Z" fill="#C4FFE8" stroke="#000" stroke-width="3" stroke-miterlimit="10"/><path d="M409.912 176.472c2.356.507 4.54 3.539 4.875 6.785.335 3.247-1.297 5.448-3.653 4.951-2.357-.496-4.529-3.548-4.864-6.784-.335-3.236 1.297-5.448 3.642-4.952ZM401.038 206.363c.897.194 2.443 4.314 5.113 6.073.638.405 1.345.69 2.086.841.695.13 1.4.206 2.107.227a11.27 11.27 0 0 1 1.74.151c.995.215 1.557.798 1.287 2.642-.53 3.571-2.843 5.394-5.578 4.811a6.362 6.362 0 0 1-2.161-.917c-3.6-2.329-5.988-7.842-5.318-12.318.194-1.165.421-1.575.724-1.51Z" fill="#000"/><path d="M377.076 50.698c0-26.805-30.729-48.54-68.635-48.54-37.906 0-68.635 21.735-68.635 48.54s30.729 48.54 68.635 48.54a92.036 92.036 0 0 0 30.815-5.166l18.494 18.456V84.482c11.954-8.77 19.326-20.667 19.326-33.784Z" fill="#fff" stroke="#000" stroke-width="4" stroke-miterlimit="10"/><path d="M314.266 79.822a6.03 6.03 0 0 1-4.505-.956 6.006 6.006 0 0 1-2.509-3.855l-8.939-48.54a6.02 6.02 0 0 1 .977-4.511 6.053 6.053 0 0 1 8.407-1.526 6.028 6.028 0 0 1 2.505 3.88l8.95 48.54a5.999 5.999 0 0 1-.967 4.493 6.019 6.019 0 0 1-3.865 2.497" fill="#FF5543"/><path d="M290.974 71.603a6.032 6.032 0 0 1-3.832-.558 6.004 6.004 0 0 1-3.148-6.61 6.007 6.007 0 0 1 1.986-3.317l37.647-31.994a6.027 6.027 0 0 1 8.384.765 5.999 5.999 0 0 1-.581 8.383l-37.646 31.993a5.958 5.958 0 0 1-2.81 1.338Z" fill="#A112FF"/><path d="M333.084 63.869a5.891 5.891 0 0 1-3.102-.248l-46.596-16.537a6.028 6.028 0 0 1-3.523-3.066 5.992 5.992 0 0 1 .967-6.697 6.023 6.023 0 0 1 6.599-1.552l46.585 16.536a6.02 6.02 0 0 1 3.027 2.397 5.997 5.997 0 0 1-.585 7.282 6.024 6.024 0 0 1-3.372 1.885Z" fill="#00CBEC"/></svg>