<svg width="252" height="59" viewBox="0 0 252 59" fill="none" xmlns="http://www.w3.org/2000/svg">
<g clip-path="url(#clip0_215_11426)">
<path fill-rule="evenodd" clip-rule="evenodd" d="M46.4657 29.332C46.4657 32.973 45.4277 36.4634 43.6499 39.3461L50.9185 46.7838C54.4789 41.9299 56.7029 35.8606 56.7029 29.3369C56.7029 22.8131 54.4789 16.7463 50.9185 11.8899L43.6499 19.3276C45.5118 22.3217 46.49 25.7976 46.4681 29.3417L46.4657 29.332Z" fill="#B8D3F4"/>
<path fill-rule="evenodd" clip-rule="evenodd" d="M28.38 47.8387C18.4435 47.8387 10.2848 39.4944 10.2848 29.3295C10.2848 19.1647 18.4411 10.8204 28.38 10.8204C32.0883 10.8204 35.348 11.8826 38.1686 13.8538L45.4372 6.41612C40.6885 2.77506 34.7586 0.5 28.38 0.5C12.8071 0.5 0.0547485 13.3968 0.0547485 29.4778C0.0547485 45.5588 12.8095 58.3049 28.38 58.3049C34.9065 58.3049 40.8364 56.0299 45.5613 52.3888L38.2927 44.9511C35.4768 46.7741 32.0883 47.8338 28.3561 47.8338L28.38 47.8387Z" fill="#3385FF"/>
<path d="M244.836 34.1276C244.183 34.1329 243.536 33.996 242.939 33.726C242.343 33.4561 241.809 33.0593 241.376 32.5623C241.328 32.4651 241.328 32.3678 241.423 32.3192L249.496 28.8434L251.851 27.8153C251.947 27.7667 251.947 27.7181 251.947 27.6695C251.568 25.9926 250.626 24.503 249.285 23.4576C247.943 22.4121 246.285 21.8765 244.597 21.9429C240.851 22.0888 237.724 25.1757 237.581 28.9917C237.533 29.9975 237.686 31.0029 238.031 31.9465C238.377 32.8901 238.907 33.7521 239.59 34.4799C240.274 35.2078 241.095 35.7862 242.005 36.1798C242.915 36.5735 243.895 36.7742 244.883 36.7697C247.909 36.7697 250.505 34.8617 251.613 32.171C251.66 32.0737 251.613 31.9765 251.517 31.9765L249.162 31.539C249.114 31.539 249.019 31.539 249.019 31.6362C248.155 33.1043 246.616 34.1325 244.838 34.1325L244.836 34.1276ZM244.836 24.6336C246.229 24.6336 247.477 25.2704 248.296 26.2476C248.343 26.3448 248.343 26.442 248.248 26.4906L240.368 29.8935C240.35 29.9015 240.329 29.9052 240.309 29.9046C240.289 29.9039 240.268 29.8988 240.25 29.8896C240.232 29.8803 240.216 29.8673 240.203 29.8512C240.19 29.8351 240.18 29.8163 240.175 29.7963V29.4049C240.127 26.7142 242.242 24.6093 244.836 24.6093V24.6336ZM237.242 22.186H234.937C234.89 22.186 234.842 22.2346 234.794 22.2832L231.048 33.4641C230.952 33.7071 230.666 33.7071 230.57 33.4641L226.824 22.2832C226.824 22.2346 226.776 22.186 226.681 22.186H224.376C224.28 22.186 224.232 22.2832 224.232 22.3804L228.988 36.4732C228.988 36.5218 229.036 36.5704 229.131 36.5704H232.401C232.448 36.5704 232.496 36.5218 232.544 36.4732L237.3 22.3804C237.395 22.2832 237.347 22.186 237.252 22.186H237.242ZM222.066 22.186H219.71C219.615 22.186 219.567 22.2346 219.567 22.3318V36.4245C219.567 36.5218 219.615 36.5704 219.71 36.5704H222.066C222.161 36.5704 222.209 36.5218 222.209 36.4245V22.3561C222.209 22.3075 222.161 22.2103 222.066 22.2103V22.186ZM222.066 17.5873H219.71C219.615 17.5873 219.567 17.6359 219.567 17.7331V20.1321C219.567 20.2293 219.615 20.278 219.71 20.278H222.066C222.161 20.278 222.209 20.2293 222.209 20.1321V17.7331C222.209 17.6359 222.161 17.5873 222.066 17.5873ZM217.21 22.186H214.568C214.52 22.186 214.472 22.1374 214.472 22.0888V15.9709C214.472 15.8737 214.425 15.8251 214.329 15.8251H211.995C211.9 15.8251 211.852 15.8737 211.852 15.9709V22.1131C211.852 22.1617 211.805 22.2103 211.757 22.2103H209.163C209.068 22.2103 209.02 22.2589 209.02 22.3561V24.7552C209.02 24.8524 209.068 24.901 209.163 24.901H211.757C211.805 24.901 211.852 24.9496 211.852 24.9982V36.4221C211.852 36.5193 211.9 36.5679 211.995 36.5679H214.351C214.446 36.5679 214.494 36.5193 214.494 36.4221V24.9982C214.494 24.9496 214.542 24.901 214.589 24.901H217.231C217.326 24.901 217.374 24.8524 217.374 24.7552V22.3561C217.374 22.3075 217.279 22.2103 217.231 22.2103L217.21 22.186Z" fill="#7A7B82"/>
<path d="M201.787 34.1276C201.096 34.1265 200.415 33.9705 199.79 33.6707C199.165 33.3708 198.613 32.9345 198.173 32.3927C197.732 31.8509 197.415 31.2169 197.242 30.5358C197.069 29.8547 197.046 29.1433 197.174 28.4521C197.461 26.7871 199.095 25.0735 200.754 24.7332C201.567 24.543 202.415 24.579 203.21 24.8373C204.004 25.0955 204.716 25.5667 205.271 26.2013C205.319 26.2499 205.414 26.2499 205.462 26.2013L207.144 24.4877C207.192 24.4391 207.192 24.3419 207.144 24.2933C205.751 22.728 203.684 21.797 201.427 21.8943C197.728 22.0887 194.65 25.1756 194.459 28.9431C194.268 33.2015 197.585 36.721 201.761 36.721C203.875 36.721 205.794 35.7901 207.142 34.322C207.19 34.2734 207.19 34.2248 207.142 34.1762L205.459 32.4626C205.412 32.414 205.316 32.414 205.269 32.4626C204.452 33.5393 203.202 34.1276 201.808 34.1276H201.787Z" fill="#7A7B82"/>
<path d="M186.076 34.1276C185.423 34.1329 184.776 33.996 184.179 33.726C183.583 33.4561 183.049 33.0593 182.615 32.5623C182.568 32.4651 182.568 32.3678 182.663 32.3192L190.736 28.8434L193.091 27.8153C193.187 27.7667 193.187 27.7181 193.187 27.6695C192.808 25.9926 191.866 24.503 190.525 23.4576C189.183 22.4121 187.525 21.8765 185.837 21.9429C182.09 22.0888 178.964 25.1757 178.821 28.9917C178.773 29.9975 178.926 31.0029 179.271 31.9465C179.617 32.8901 180.147 33.7521 180.83 34.4799C181.514 35.2078 182.335 35.7862 183.245 36.1798C184.155 36.5735 185.135 36.7742 186.123 36.7697C189.149 36.7697 191.745 34.8617 192.853 32.171C192.9 32.0737 192.853 31.9765 192.757 31.9765L190.402 31.539C190.354 31.539 190.259 31.539 190.259 31.6362C189.395 33.1043 187.808 34.1325 186.078 34.1325L186.076 34.1276ZM186.076 24.6336C187.469 24.6336 188.717 25.2704 189.536 26.2476C189.583 26.3448 189.583 26.442 189.488 26.4906L181.608 29.8935C181.59 29.9015 181.569 29.9052 181.549 29.9046C181.528 29.9039 181.508 29.8988 181.49 29.8896C181.472 29.8803 181.456 29.8673 181.443 29.8512C181.43 29.8351 181.42 29.8163 181.415 29.7963V29.4049C181.367 26.7142 183.482 24.6093 186.076 24.6093V24.6336ZM176.802 15.8251H174.447C174.352 15.8251 174.304 15.8737 174.304 15.9709V36.427C174.304 36.5242 174.352 36.5728 174.447 36.5728H176.802C176.898 36.5728 176.946 36.5242 176.946 36.427V15.9709C176.946 15.8737 176.85 15.8251 176.802 15.8251ZM171.66 15.8251H169.281C169.185 15.8251 169.138 15.8737 169.138 15.9709V36.427C169.138 36.5242 169.185 36.5728 169.281 36.5728H171.636C171.732 36.5728 171.779 36.5242 171.779 36.427V15.9709C171.732 15.8737 171.684 15.8251 171.636 15.8251H171.66ZM160.129 24.6336C162.723 24.6336 164.79 26.7871 164.79 29.3806C164.779 30.6363 164.285 31.8374 163.413 32.7253C162.541 33.6132 161.362 34.1168 160.129 34.1276C158.897 34.1168 157.717 33.6132 156.846 32.7253C155.974 31.8374 155.48 30.6363 155.469 29.3806C155.469 26.7871 157.536 24.6336 160.129 24.6336ZM160.129 21.9429C159.171 21.9429 158.221 22.1353 157.335 22.5091C156.449 22.8829 155.644 23.4307 154.966 24.1214C154.288 24.812 153.75 25.632 153.383 26.5343C153.016 27.4367 152.827 28.4039 152.827 29.3806C152.827 30.3573 153.016 31.3245 153.383 32.2269C153.75 33.1293 154.288 33.9492 154.966 34.6399C155.644 35.3305 156.449 35.8784 157.335 36.2521C158.221 36.6259 159.171 36.8183 160.129 36.8183C161.088 36.8183 162.038 36.6259 162.924 36.2521C163.81 35.8784 164.615 35.3305 165.293 34.6399C165.971 33.9492 166.509 33.1293 166.876 32.2269C167.243 31.3245 167.431 30.3573 167.431 29.3806C167.431 28.4039 167.243 27.4367 166.876 26.5343C166.509 25.632 165.971 24.812 165.293 24.1214C164.615 23.4307 163.81 22.8829 162.924 22.5091C162.038 22.1353 161.088 21.9429 160.129 21.9429Z" fill="#7A7B82"/>
<path d="M146.723 34.1276C146.033 34.1265 145.351 33.9705 144.726 33.6707C144.102 33.3708 143.549 32.9345 143.109 32.3927C142.669 31.8509 142.351 31.2169 142.178 30.5358C142.006 29.8547 141.983 29.1433 142.111 28.4521C142.397 26.7871 144.032 25.0735 145.69 24.7332C146.503 24.543 147.351 24.579 148.146 24.8373C148.941 25.0955 149.653 25.5667 150.207 26.2013C150.255 26.2499 150.351 26.2499 150.398 26.2013L152.081 24.4877C152.128 24.4391 152.128 24.3419 152.081 24.2933C150.687 22.728 148.62 21.797 146.363 21.8943C142.664 22.0887 139.586 25.1756 139.395 28.9431C139.204 33.2015 142.521 36.721 146.697 36.721C148.811 36.721 150.73 35.7901 152.078 34.322C152.126 34.2734 152.126 34.2248 152.078 34.1762L150.396 32.4626C150.348 32.414 150.253 32.414 150.205 32.4626C149.389 33.5393 148.138 34.1276 146.745 34.1276H146.723Z" fill="#7A7B82"/>
<path d="M122.844 21.9429C122.043 21.9773 121.259 22.1875 120.546 22.5592C119.833 22.9309 119.206 23.4553 118.711 24.0964C118.663 24.1936 118.472 24.145 118.472 24.0478V22.3342C118.472 22.2856 118.424 22.1883 118.329 22.1883H115.974C115.926 22.1883 115.83 22.237 115.83 22.3342V36.4755C115.83 36.5241 115.878 36.6213 115.974 36.6213H118.329C118.377 36.6213 118.472 36.5727 118.472 36.4755V29.4048C118.472 26.7142 120.25 24.8061 122.796 24.8061C126.137 24.8061 127.168 27.0569 127.168 29.6989V36.4561C127.168 36.5047 127.215 36.6019 127.311 36.6019H129.666C129.714 36.6019 129.809 36.5533 129.809 36.4561V29.7233C129.857 25.5912 127.936 21.9453 122.841 21.9453L122.844 21.9429ZM107.326 34.1275C106.673 34.1328 106.026 33.9959 105.429 33.7259C104.833 33.456 104.299 33.0592 103.865 32.5622C103.818 32.465 103.818 32.3678 103.913 32.3192L111.986 28.8434L114.341 27.8152C114.437 27.7666 114.437 27.718 114.437 27.6694C114.058 25.9925 113.116 24.5029 111.775 23.4575C110.433 22.4121 108.775 21.8764 107.087 21.9429C103.34 22.0887 100.214 25.1756 100.071 28.9916C100.023 29.9975 100.176 31.0028 100.521 31.9464C100.867 32.89 101.397 33.752 102.08 34.4798C102.764 35.2077 103.585 35.7861 104.495 36.1798C105.405 36.5734 106.385 36.7741 107.373 36.7696C110.399 36.7696 112.995 34.8616 114.103 32.1709C114.15 32.0737 114.103 31.9764 114.007 31.9764L111.652 31.5389C111.604 31.5389 111.509 31.5389 111.509 31.6361C110.645 33.1042 109.106 34.1324 107.328 34.1324L107.326 34.1275ZM107.326 24.6335C108.719 24.6335 109.967 25.2704 110.786 26.2475C110.833 26.3447 110.833 26.4419 110.738 26.4905L102.858 29.8934C102.84 29.9014 102.819 29.9052 102.799 29.9045C102.778 29.9038 102.758 29.8987 102.74 29.8895C102.722 29.8803 102.706 29.8672 102.693 29.8511C102.68 29.835 102.67 29.8163 102.665 29.7962V29.4048C102.661 28.778 102.778 28.1565 103.011 27.576C103.243 26.9954 103.585 26.4673 104.018 26.0218C104.451 25.5763 104.966 25.2222 105.534 24.9798C106.101 24.7374 106.71 24.6115 107.326 24.6092V24.6335ZM91.3732 21.797C89.5477 21.8456 88.104 22.5797 87.097 23.8023C87.0016 23.8995 86.8584 23.8509 86.8584 23.7051V22.3342C86.8584 22.237 86.8106 22.1883 86.7152 22.1883H84.3599C84.2645 22.1883 84.2168 22.237 84.2168 22.3342V42.8389C84.2168 42.9361 84.2645 42.9847 84.3599 42.9847H86.6651C86.7605 42.9847 86.8083 42.9361 86.8083 42.8389V34.7644C86.8083 34.6185 86.9514 34.5699 87.0469 34.6671C88.0563 35.8897 89.5453 36.6724 91.4663 36.6724C95.9358 36.6724 99.489 32.5403 98.6252 27.8638C98.0477 24.2908 94.8811 21.746 91.3732 21.797ZM92.2872 33.9331C91.5531 34.0574 90.8004 34.0016 90.0917 33.7701C89.3831 33.5387 88.7389 33.1383 88.2126 32.6023C87.6864 32.0663 87.2933 31.4101 87.0661 30.6883C86.8389 29.9664 86.784 29.1998 86.9061 28.452C87.2402 26.4954 88.7793 24.879 90.7242 24.5631C91.4583 24.4387 92.211 24.4946 92.9196 24.726C93.6283 24.9575 94.2725 25.3578 94.7987 25.8939C95.325 26.4299 95.718 27.086 95.9453 27.8079C96.1725 28.5297 96.2274 29.2963 96.1053 30.0441C95.8189 32.0007 94.232 33.5685 92.2872 33.9331ZM75.5665 21.9429C74.6075 21.9429 73.658 22.1352 72.7721 22.509C71.8862 22.8828 71.0812 23.4306 70.4031 24.1213C69.7251 24.812 69.1872 25.6319 68.8202 26.5343C68.4533 27.4366 68.2644 28.4038 68.2644 29.3805C68.2644 30.3573 68.4533 31.3244 68.8202 32.2268C69.1872 33.1292 69.7251 33.9491 70.4031 34.6398C71.0812 35.3304 71.8862 35.8783 72.7721 36.2521C73.658 36.6258 74.6075 36.8182 75.5665 36.8182C77.5031 36.8182 79.3604 36.0346 80.7298 34.6398C82.0992 33.2449 82.8685 31.3531 82.8685 29.3805C82.8685 27.4079 82.0992 25.5161 80.7298 24.1213C79.3604 22.7265 77.5031 21.9429 75.5665 21.9429ZM75.5665 24.6335C78.1604 24.6335 80.2269 26.7871 80.2269 29.3805C80.2163 30.6362 79.7219 31.8373 78.8502 32.7252C77.9785 33.6131 76.7992 34.1167 75.5665 34.1275C74.3337 34.1167 73.1545 33.6131 72.2827 32.7252C71.411 31.8373 70.9166 30.6362 70.906 29.3805C70.9166 28.1249 71.411 26.9237 72.2827 26.0358C73.1545 25.1479 74.3337 24.6443 75.5665 24.6335Z" fill="#7A7B82"/>
</g>
<defs>
<clipPath id="clip0_215_11426">
<rect width="252" height="58" fill="white" transform="translate(0 0.5)"/>
</clipPath>
</defs>
</svg>
