<svg width="224" height="31" viewBox="0 0 224 31" fill="none" xmlns="http://www.w3.org/2000/svg">
<g clip-path="url(#clip0_215_11423)">
<path d="M47.9571 14.8992H36.335V11.2946H30.7661V0H53.7682V11.2946H47.9571V14.8992ZM36.335 31H47.9571V28.3566H36.335V31ZM47.9571 18.7442V15.3798H36.335V18.7442H47.9571ZM47.9571 19.4651H36.335V22.5891H47.9571V19.4651ZM36.335 23.7907V26.6744H47.9571V23.7907H36.335ZM1.22642 31H23.018C25.2891 31 27.4513 30.0484 28.829 28.3566H1.22642V31ZM19.6282 11.2946H29.0712V0H7.76388C4.65738 0 2.03271 1.90566 0.984294 4.8062C-0.0641208 7.70915 0.763957 11.0182 3.16345 12.9767L5.58473 14.8992H23.9865L19.6282 11.2946ZM30.0397 26.1938C30.369 25.4609 30.5167 24.5909 30.5239 23.7907H1.22642V26.6744H29.7975C29.8823 26.4894 29.9694 26.386 30.0397 26.1938ZM29.0712 19.4651H11.3958H1.22642V22.5891H30.2818C30.1099 21.5029 29.708 20.3783 29.0712 19.4651ZM27.6184 18.0233L24.4707 15.3798H6.31111L10.1852 18.7442H28.3448C28.1414 18.5303 27.8508 18.2131 27.6184 18.0233ZM191.297 31H207.762C211.05 31 214.197 30.0796 216.72 28.3566H191.297V31ZM202.919 18.7442V15.3798H191.297V18.7442H202.919ZM191.297 26.6744H218.657C219.59 25.7949 220.386 24.8745 221.079 23.7907H191.297V26.6744ZM202.919 11.2946H207.762C209.832 11.2946 211.609 12.9143 211.878 14.8992H223.5C223.212 6.57248 216.219 0 207.762 0H191.297V14.8992H202.919V11.2946ZM211.878 15.3798C211.878 16.6703 211.372 17.9992 210.425 18.7442H223.258C223.473 17.7157 223.5 16.4709 223.5 15.3798H211.878ZM207.762 19.4651H202.919H191.297V22.5891H221.805C222.304 21.6279 222.725 20.5273 223.016 19.4651H207.762ZM146.503 19.4651V22.5891H176.285V19.4651H146.503ZM146.503 23.7907V26.6744H176.285V23.7907H146.503ZM146.503 31H158.125V28.3566H146.503V31ZM176.285 18.7442V15.3798H164.663V16.8217H158.125V15.3798H146.503V18.7442H176.285ZM164.663 31H176.285V28.3566H164.663V31ZM158.125 13.2171C158.125 12.2702 158.866 11.2946 159.82 11.2946H164.663V14.8992H176.285V0H159.82C152.479 0 146.503 5.93085 146.503 13.2171V14.8992H158.125V13.2171ZM177.98 31H189.602V28.3566H177.98V31ZM189.602 18.7442V15.3798H177.98V18.7442H189.602ZM189.602 0H177.98V14.8992H189.602V0ZM177.98 22.5891H189.602V19.4651H177.98V22.5891ZM177.98 23.7907V26.6744H189.602V23.7907H177.98ZM54.4946 31H66.1168V28.3566H54.4946V31ZM54.4946 23.7907V26.6744H84.0342V23.7907H54.4946ZM72.4121 31H84.0342V28.3566H72.4121V31ZM54.4946 19.4651V22.5891H84.0342V19.4651H54.4946ZM84.0342 18.7442V15.3798H72.4121V16.8217H66.1168V15.3798H54.4946V18.7442H84.0342ZM66.1168 13.2171C66.1168 12.2702 66.8577 11.2946 67.8117 11.2946H72.4121V14.8992H84.0342V0H67.8117C60.4703 0 54.4946 5.93085 54.4946 13.2171V14.8992H66.1168V13.2171ZM85.487 18.7442H98.3198C97.3707 17.9992 96.6249 16.6703 96.6249 15.3798H85.0028C85.0028 16.4733 85.2691 17.7157 85.487 18.7442ZM100.741 19.4651C100.719 19.4267 100.746 19.4651 100.741 19.4651H85.7291C86.0197 20.5273 86.441 21.6303 86.9398 22.5891H112.847V19.4651H100.741ZM87.424 23.7907C88.0148 24.9057 89.1553 25.7949 90.0874 26.6744H112.847V23.7907H87.424ZM100.741 31H112.847V28.3566H91.7823C94.3053 30.082 97.453 31 100.741 31ZM100.741 11.2946H112.847V0H100.741C92.2811 0 85.2909 6.57248 85.0028 14.8992H96.6249C96.8937 12.9167 98.6709 11.2946 100.741 11.2946ZM133.186 31H144.808V28.3566H133.186V31ZM114.542 31H126.165V28.3566H114.542V31ZM143.113 18.5039C142.433 17.235 142.002 16.3483 141.176 15.3798H114.542V18.5039H143.113ZM114.542 19.4651V22.5891H144.566C144.363 21.5342 144.007 20.4336 143.598 19.4651H114.542ZM114.542 23.7907V26.6744H126.165V23.7907H114.542ZM137.302 12.2558L147.472 0H132.46L126.165 7.68992V0H114.542V14.8992H140.692C139.726 13.8683 138.515 12.9984 137.302 12.2558ZM144.808 23.7907H131.976C132.77 24.5309 133.186 25.5089 133.186 26.6744H144.808V25.4729C144.808 24.8913 144.871 24.3554 144.808 23.7907Z" fill="url(#paint0_linear_215_11423)"/>
</g>
<defs>
<linearGradient id="paint0_linear_215_11423" x1="119.951" y1="30.8378" x2="119.951" y2="1.03934" gradientUnits="userSpaceOnUse">
<stop stop-color="#FEC005"/>
<stop offset="0.298" stop-color="#E95715"/>
<stop offset="0.659" stop-color="#CB024B"/>
<stop offset="1" stop-color="#7B177C"/>
</linearGradient>
<clipPath id="clip0_215_11423">
<rect width="223" height="31" fill="white" transform="translate(0.5)"/>
</clipPath>
</defs>
</svg>
