<svg width="40" height="40" viewBox="0 0 40 40" fill="none" xmlns="http://www.w3.org/2000/svg">
<g clip-path="url(#clip0_7838_50359)">
<rect width="40" height="40" rx="20" fill="url(#paint0_linear_7838_50359)"/>
</g>
<path d="M10.4062 26V14.3594H11.8906V18.3438L11.8672 20.4844C12.5156 19.6484 13.1641 18.8828 13.875 18.1172L17.3516 14.3594H19.2969L14.5938 19.3984L19.3047 26H17.5469L13.5703 20.4062L11.8906 22.1797V26H10.4062ZM25.0703 26.1562C22.0859 26.1562 19.9062 23.875 19.9062 20.1875C19.9062 16.4922 22.0859 14.2031 25.0703 14.2031C27.4297 14.2031 29.3516 15.625 29.7656 18.0234H28.2812C27.9531 16.4297 26.5859 15.5781 25.0703 15.5781C22.9766 15.5781 21.3516 17.2031 21.3516 20.1875C21.3516 23.1641 22.9844 24.7812 25.0703 24.7812C26.5938 24.7812 27.9531 23.9219 28.2812 22.3359H29.7656C29.3594 24.7031 27.4531 26.1562 25.0703 26.1562Z" fill="white"/>
<defs>
<linearGradient id="paint0_linear_7838_50359" x1="2.3059e-05" y1="26.6641" x2="40.1346" y2="24.5052" gradientUnits="userSpaceOnUse">
<stop stop-color="#270741"/>
<stop offset="0.260186" stop-color="#59136D"/>
<stop offset="0.525" stop-color="#462390"/>
<stop offset="0.985" stop-color="#270741"/>
</linearGradient>
<clipPath id="clip0_7838_50359">
<rect width="40" height="40" rx="20" fill="white"/>
</clipPath>
</defs>
</svg>
