<svg width="40" height="40" viewBox="0 0 40 40" fill="none" xmlns="http://www.w3.org/2000/svg">
<g clip-path="url(#clip0_7838_50360)">
<rect width="40" height="40" rx="20" fill="url(#paint0_linear_7838_50360)"/>
</g>
<path d="M13.6875 26L9.40625 14.3594H10.9688L13.4297 21.2656C13.6875 21.9844 14.0625 23.1328 14.5469 24.7969C15.0391 23.0938 15.4062 21.9844 15.6562 21.2656L18.0547 14.3594H19.6328L15.3984 26H13.6875ZM21.2031 26V14.3594H25.3281C27.7578 14.3594 28.9062 15.7422 28.9062 17.4453C28.9062 18.9375 28.0156 19.6172 27 19.8906V20C28.0859 20.0703 29.3594 21.0703 29.3594 22.8984C29.3594 24.6562 28.2031 26 25.4609 26H21.2031ZM22.6875 24.6875H25.4219C27.2344 24.6875 27.9297 23.8906 27.9297 22.8828C27.9297 21.7188 26.9922 20.7188 25.5 20.7188H22.6875V24.6875ZM22.6875 19.4688H25.25C26.5 19.4688 27.4844 18.6797 27.4844 17.4766C27.4844 16.4688 26.8047 15.6719 25.2969 15.6719H22.6875V19.4688Z" fill="white"/>
<defs>
<linearGradient id="paint0_linear_7838_50360" x1="2.3059e-05" y1="26.6641" x2="40.1346" y2="24.5052" gradientUnits="userSpaceOnUse">
<stop stop-color="#270741"/>
<stop offset="0.260186" stop-color="#59136D"/>
<stop offset="0.525" stop-color="#462390"/>
<stop offset="0.985" stop-color="#270741"/>
</linearGradient>
<clipPath id="clip0_7838_50360">
<rect width="40" height="40" rx="20" fill="white"/>
</clipPath>
</defs>
</svg>
