<svg width="298" height="311" fill="none" xmlns="http://www.w3.org/2000/svg"><path d="M52.333 0h20a3.334 3.334 0 0 1 3.334 3.333V30a3.333 3.333 0 0 1-3.334 3.333h-20A3.333 3.333 0 0 1 49 30V3.333A3.333 3.333 0 0 1 52.333 0Zm11.25 19.167c4.584 0 5.817-3.384 6.134-5.167a3.758 3.758 0 0 0 2.616-3.583 3.734 3.734 0 0 0-3.75-3.75 3.734 3.734 0 0 0-3.75 3.75c0 1.566.95 2.916 2.317 3.466-.367 1.117-1.483 2.784-4.817 2.784-2.3 0-3.9.583-5 1.4V11.45c1.45-.517 2.5-1.9 2.5-3.533a3.734 3.734 0 0 0-3.75-3.75 3.734 3.734 0 0 0-3.75 3.75 3.757 3.757 0 0 0 2.5 3.533v10.433c-1.45.517-2.5 1.9-2.5 3.534a3.734 3.734 0 0 0 3.75 3.75 3.734 3.734 0 0 0 3.75-3.75c0-1.55-.933-2.917-2.283-3.45.467-1.134 1.833-2.8 6.033-2.8Zm-7.5 5a1.25 1.25 0 1 1 0 2.5 1.25 1.25 0 0 1 0-2.5Zm0-17.5a1.25 1.25 0 1 1 0 2.5 1.25 1.25 0 0 1 0-2.5Zm12.5 2.5a1.25 1.25 0 1 1 0 2.5 1.25 1.25 0 0 1 0-2.5ZM239.333 0h20a3.333 3.333 0 0 1 3.334 3.333V30a3.334 3.334 0 0 1-3.334 3.333h-20A3.333 3.333 0 0 1 236 30V3.333A3.334 3.334 0 0 1 239.333 0Zm11.25 19.167c4.584 0 5.817-3.384 6.134-5.167a3.758 3.758 0 0 0 2.616-3.583 3.734 3.734 0 0 0-3.75-3.75 3.735 3.735 0 0 0-3.75 3.75c0 1.566.95 2.916 2.317 3.466-.367 1.117-1.483 2.784-4.817 2.784-2.3 0-3.9.583-5 1.4V11.45c1.45-.517 2.5-1.9 2.5-3.533a3.734 3.734 0 0 0-3.75-3.75 3.735 3.735 0 0 0-3.75 3.75 3.757 3.757 0 0 0 2.5 3.533v10.433c-1.45.517-2.5 1.9-2.5 3.534a3.735 3.735 0 0 0 3.75 3.75 3.734 3.734 0 0 0 3.75-3.75c0-1.55-.933-2.917-2.283-3.45.467-1.134 1.833-2.8 6.033-2.8Zm-7.5 5a1.249 1.249 0 1 1 0 2.5 1.252 1.252 0 0 1-1.25-1.25 1.252 1.252 0 0 1 1.25-1.25Zm0-17.5a1.249 1.249 0 0 1 .884 2.134 1.249 1.249 0 0 1-2.134-.884 1.252 1.252 0 0 1 1.25-1.25Zm12.5 2.5a1.249 1.249 0 0 1 .884 2.133 1.248 1.248 0 0 1-2.134-.883 1.252 1.252 0 0 1 1.25-1.25ZM52.333 56h20a3.334 3.334 0 0 1 3.334 3.333V86a3.333 3.333 0 0 1-3.334 3.333h-20A3.333 3.333 0 0 1 49 86V59.333A3.333 3.333 0 0 1 52.333 56Zm11.25 19.167c4.584 0 5.817-3.384 6.134-5.167a3.758 3.758 0 0 0 2.616-3.583 3.734 3.734 0 0 0-3.75-3.75 3.734 3.734 0 0 0-3.75 3.75c0 1.566.95 2.916 2.317 3.466-.367 1.117-1.483 2.784-4.817 2.784-2.3 0-3.9.583-5 1.4V67.45c1.45-.517 2.5-1.9 2.5-3.533a3.734 3.734 0 0 0-3.75-3.75 3.734 3.734 0 0 0-3.75 3.75 3.757 3.757 0 0 0 2.5 3.533v10.433c-1.45.517-2.5 1.9-2.5 3.534a3.734 3.734 0 0 0 3.75 3.75 3.734 3.734 0 0 0 3.75-3.75c0-1.55-.933-2.917-2.283-3.45.467-1.134 1.833-2.8 6.033-2.8Zm-7.5 5a1.25 1.25 0 1 1 0 2.5 1.25 1.25 0 0 1 0-2.5Zm0-17.5a1.25 1.25 0 1 1 0 2.5 1.25 1.25 0 0 1 0-2.5Zm12.5 2.5a1.25 1.25 0 1 1 0 2.5 1.25 1.25 0 0 1 0-2.5ZM239.333 56h20a3.333 3.333 0 0 1 3.334 3.333V86a3.334 3.334 0 0 1-3.334 3.333h-20A3.333 3.333 0 0 1 236 86V59.333A3.334 3.334 0 0 1 239.333 56Zm11.25 19.167c4.584 0 5.817-3.384 6.134-5.167a3.758 3.758 0 0 0 2.616-3.583 3.734 3.734 0 0 0-3.75-3.75 3.735 3.735 0 0 0-3.75 3.75c0 1.566.95 2.916 2.317 3.466-.367 1.117-1.483 2.784-4.817 2.784-2.3 0-3.9.583-5 1.4V67.45c1.45-.517 2.5-1.9 2.5-3.533a3.734 3.734 0 0 0-3.75-3.75 3.735 3.735 0 0 0-3.75 3.75 3.757 3.757 0 0 0 2.5 3.533v10.433c-1.45.517-2.5 1.9-2.5 3.534a3.735 3.735 0 0 0 3.75 3.75 3.734 3.734 0 0 0 3.75-3.75c0-1.55-.933-2.917-2.283-3.45.467-1.134 1.833-2.8 6.033-2.8Zm-7.5 5a1.249 1.249 0 1 1 0 2.5 1.252 1.252 0 0 1-1.25-1.25 1.252 1.252 0 0 1 1.25-1.25Zm0-17.5a1.249 1.249 0 1 1 0 2.5 1.252 1.252 0 0 1-1.25-1.25 1.252 1.252 0 0 1 1.25-1.25Zm12.5 2.5a1.249 1.249 0 1 1 0 2.5 1.252 1.252 0 0 1-1.25-1.25 1.252 1.252 0 0 1 1.25-1.25ZM52.333 111h20a3.334 3.334 0 0 1 3.334 3.333V141a3.333 3.333 0 0 1-3.334 3.333h-20A3.334 3.334 0 0 1 49 141v-26.667A3.333 3.333 0 0 1 52.333 111Zm11.25 19.167c4.584 0 5.817-3.384 6.134-5.167a3.757 3.757 0 0 0 2.616-3.583 3.734 3.734 0 0 0-3.75-3.75 3.734 3.734 0 0 0-3.75 3.75c0 1.566.95 2.916 2.317 3.466-.367 1.117-1.483 2.784-4.817 2.784-2.3 0-3.9.583-5 1.4v-6.617c1.45-.517 2.5-1.9 2.5-3.533a3.734 3.734 0 0 0-3.75-3.75 3.734 3.734 0 0 0-3.75 3.75 3.758 3.758 0 0 0 2.5 3.533v10.433c-1.45.517-2.5 1.9-2.5 3.534a3.735 3.735 0 0 0 3.75 3.75 3.735 3.735 0 0 0 3.75-3.75c0-1.55-.933-2.917-2.283-3.45.467-1.134 1.833-2.8 6.033-2.8Zm-7.5 5a1.247 1.247 0 0 1 1.25 1.25 1.252 1.252 0 0 1-1.25 1.25 1.252 1.252 0 0 1-1.25-1.25 1.249 1.249 0 0 1 1.25-1.25Zm0-17.5a1.247 1.247 0 0 1 1.25 1.25 1.252 1.252 0 0 1-1.25 1.25 1.252 1.252 0 0 1-1.25-1.25 1.249 1.249 0 0 1 1.25-1.25Zm12.5 2.5a1.247 1.247 0 0 1 1.25 1.25 1.252 1.252 0 0 1-1.25 1.25 1.252 1.252 0 0 1-1.25-1.25 1.249 1.249 0 0 1 1.25-1.25ZM239.333 111h20a3.333 3.333 0 0 1 3.334 3.333V141a3.334 3.334 0 0 1-3.334 3.333h-20A3.333 3.333 0 0 1 236 141v-26.667a3.333 3.333 0 0 1 3.333-3.333Zm11.25 19.167c4.584 0 5.817-3.384 6.134-5.167a3.757 3.757 0 0 0 2.616-3.583 3.734 3.734 0 0 0-3.75-3.75 3.734 3.734 0 0 0-3.75 3.75c0 1.566.95 2.916 2.317 3.466-.367 1.117-1.483 2.784-4.817 2.784-2.3 0-3.9.583-5 1.4v-6.617c1.45-.517 2.5-1.9 2.5-3.533a3.734 3.734 0 0 0-3.75-3.75 3.734 3.734 0 0 0-3.75 3.75 3.758 3.758 0 0 0 2.5 3.533v10.433c-1.45.517-2.5 1.9-2.5 3.534a3.735 3.735 0 0 0 3.75 3.75 3.734 3.734 0 0 0 3.75-3.75c0-1.55-.933-2.917-2.283-3.45.467-1.134 1.833-2.8 6.033-2.8Zm-7.5 5a1.246 1.246 0 0 1 1.25 1.25 1.25 1.25 0 1 1-1.25-1.25Zm0-17.5a1.246 1.246 0 0 1 1.25 1.25 1.25 1.25 0 1 1-1.25-1.25Zm12.5 2.5a1.246 1.246 0 0 1 1.25 1.25 1.25 1.25 0 1 1-1.25-1.25ZM52.333 166h20a3.334 3.334 0 0 1 3.334 3.333V196a3.333 3.333 0 0 1-3.334 3.333h-20A3.334 3.334 0 0 1 49 196v-26.667A3.333 3.333 0 0 1 52.333 166Zm11.25 19.167c4.584 0 5.817-3.384 6.134-5.167a3.757 3.757 0 0 0 2.616-3.583 3.734 3.734 0 0 0-3.75-3.75 3.734 3.734 0 0 0-3.75 3.75c0 1.566.95 2.916 2.317 3.466-.367 1.117-1.483 2.784-4.817 2.784-2.3 0-3.9.583-5 1.4v-6.617c1.45-.517 2.5-1.9 2.5-3.533a3.734 3.734 0 0 0-3.75-3.75 3.734 3.734 0 0 0-3.75 3.75 3.758 3.758 0 0 0 2.5 3.533v10.433c-1.45.517-2.5 1.9-2.5 3.534a3.735 3.735 0 0 0 3.75 3.75 3.735 3.735 0 0 0 3.75-3.75c0-1.55-.933-2.917-2.283-3.45.467-1.134 1.833-2.8 6.033-2.8Zm-7.5 5a1.247 1.247 0 0 1 1.25 1.25 1.252 1.252 0 0 1-1.25 1.25 1.252 1.252 0 0 1-1.25-1.25 1.249 1.249 0 0 1 1.25-1.25Zm0-17.5a1.247 1.247 0 0 1 1.25 1.25 1.252 1.252 0 0 1-1.25 1.25 1.252 1.252 0 0 1-1.25-1.25 1.249 1.249 0 0 1 1.25-1.25Zm12.5 2.5a1.247 1.247 0 0 1 1.25 1.25 1.252 1.252 0 0 1-1.25 1.25 1.252 1.252 0 0 1-1.25-1.25 1.249 1.249 0 0 1 1.25-1.25ZM239.333 166h20a3.333 3.333 0 0 1 3.334 3.333V196a3.334 3.334 0 0 1-3.334 3.333h-20A3.333 3.333 0 0 1 236 196v-26.667a3.333 3.333 0 0 1 3.333-3.333Zm11.25 19.167c4.584 0 5.817-3.384 6.134-5.167a3.757 3.757 0 0 0 2.616-3.583 3.734 3.734 0 0 0-3.75-3.75 3.734 3.734 0 0 0-3.75 3.75c0 1.566.95 2.916 2.317 3.466-.367 1.117-1.483 2.784-4.817 2.784-2.3 0-3.9.583-5 1.4v-6.617c1.45-.517 2.5-1.9 2.5-3.533a3.734 3.734 0 0 0-3.75-3.75 3.734 3.734 0 0 0-3.75 3.75 3.758 3.758 0 0 0 2.5 3.533v10.433c-1.45.517-2.5 1.9-2.5 3.534a3.735 3.735 0 0 0 3.75 3.75 3.734 3.734 0 0 0 3.75-3.75c0-1.55-.933-2.917-2.283-3.45.467-1.134 1.833-2.8 6.033-2.8Zm-7.5 5a1.246 1.246 0 0 1 1.25 1.25 1.25 1.25 0 1 1-1.25-1.25Zm0-17.5a1.246 1.246 0 0 1 1.25 1.25 1.25 1.25 0 1 1-1.25-1.25Zm12.5 2.5a1.246 1.246 0 0 1 1.25 1.25 1.25 1.25 0 1 1-1.25-1.25ZM52.333 222h20a3.334 3.334 0 0 1 3.334 3.333V252a3.333 3.333 0 0 1-3.334 3.333h-20A3.334 3.334 0 0 1 49 252v-26.667A3.333 3.333 0 0 1 52.333 222Zm11.25 19.167c4.584 0 5.817-3.384 6.134-5.167a3.757 3.757 0 0 0 2.616-3.583 3.734 3.734 0 0 0-3.75-3.75 3.734 3.734 0 0 0-3.75 3.75c0 1.566.95 2.916 2.317 3.466-.367 1.117-1.483 2.784-4.817 2.784-2.3 0-3.9.583-5 1.4v-6.617c1.45-.517 2.5-1.9 2.5-3.533a3.734 3.734 0 0 0-3.75-3.75 3.734 3.734 0 0 0-3.75 3.75 3.758 3.758 0 0 0 2.5 3.533v10.433c-1.45.517-2.5 1.9-2.5 3.534a3.735 3.735 0 0 0 3.75 3.75 3.735 3.735 0 0 0 3.75-3.75c0-1.55-.933-2.917-2.283-3.45.467-1.134 1.833-2.8 6.033-2.8Zm-7.5 5a1.247 1.247 0 0 1 1.25 1.25 1.252 1.252 0 0 1-1.25 1.25 1.252 1.252 0 0 1-1.25-1.25 1.249 1.249 0 0 1 1.25-1.25Zm0-17.5a1.247 1.247 0 0 1 1.25 1.25 1.252 1.252 0 0 1-1.25 1.25 1.252 1.252 0 0 1-1.25-1.25 1.249 1.249 0 0 1 1.25-1.25Zm12.5 2.5a1.247 1.247 0 0 1 1.25 1.25 1.252 1.252 0 0 1-1.25 1.25 1.252 1.252 0 0 1-1.25-1.25 1.249 1.249 0 0 1 1.25-1.25ZM239.333 222h20a3.333 3.333 0 0 1 3.334 3.333V252a3.334 3.334 0 0 1-3.334 3.333h-20A3.333 3.333 0 0 1 236 252v-26.667a3.333 3.333 0 0 1 3.333-3.333Zm11.25 19.167c4.584 0 5.817-3.384 6.134-5.167a3.757 3.757 0 0 0 2.616-3.583 3.734 3.734 0 0 0-3.75-3.75 3.734 3.734 0 0 0-3.75 3.75c0 1.566.95 2.916 2.317 3.466-.367 1.117-1.483 2.784-4.817 2.784-2.3 0-3.9.583-5 1.4v-6.617c1.45-.517 2.5-1.9 2.5-3.533a3.734 3.734 0 0 0-3.75-3.75 3.734 3.734 0 0 0-3.75 3.75 3.758 3.758 0 0 0 2.5 3.533v10.433c-1.45.517-2.5 1.9-2.5 3.534a3.735 3.735 0 0 0 3.75 3.75 3.734 3.734 0 0 0 3.75-3.75c0-1.55-.933-2.917-2.283-3.45.467-1.134 1.833-2.8 6.033-2.8Zm-7.5 5a1.246 1.246 0 0 1 1.25 1.25 1.25 1.25 0 1 1-1.25-1.25Zm0-17.5a1.246 1.246 0 0 1 1.25 1.25 1.25 1.25 0 1 1-1.25-1.25Zm12.5 2.5a1.246 1.246 0 0 1 1.25 1.25 1.25 1.25 0 1 1-1.25-1.25Z" fill="#1D2535"/><path d="M52.333 277h20a3.334 3.334 0 0 1 3.334 3.333V307a3.333 3.333 0 0 1-3.334 3.333h-20A3.334 3.334 0 0 1 49 307v-26.667A3.333 3.333 0 0 1 52.333 277Zm11.25 19.167c4.584 0 5.817-3.384 6.134-5.167a3.757 3.757 0 0 0 2.616-3.583 3.734 3.734 0 0 0-3.75-3.75 3.734 3.734 0 0 0-3.75 3.75c0 1.566.95 2.916 2.317 3.466-.367 1.117-1.483 2.784-4.817 2.784-2.3 0-3.9.583-5 1.4v-6.617c1.45-.517 2.5-1.9 2.5-3.533a3.734 3.734 0 0 0-3.75-3.75 3.734 3.734 0 0 0-3.75 3.75 3.758 3.758 0 0 0 2.5 3.533v10.433c-1.45.517-2.5 1.9-2.5 3.534a3.735 3.735 0 0 0 3.75 3.75 3.735 3.735 0 0 0 3.75-3.75c0-1.55-.933-2.917-2.283-3.45.467-1.134 1.833-2.8 6.033-2.8Zm-7.5 5a1.247 1.247 0 0 1 1.25 1.25 1.252 1.252 0 0 1-1.25 1.25 1.252 1.252 0 0 1-1.25-1.25 1.249 1.249 0 0 1 1.25-1.25Zm0-17.5a1.247 1.247 0 0 1 1.25 1.25 1.252 1.252 0 0 1-1.25 1.25 1.252 1.252 0 0 1-1.25-1.25 1.249 1.249 0 0 1 1.25-1.25Zm12.5 2.5a1.247 1.247 0 0 1 1.25 1.25 1.252 1.252 0 0 1-1.25 1.25 1.252 1.252 0 0 1-1.25-1.25 1.249 1.249 0 0 1 1.25-1.25ZM239.333 277h20a3.333 3.333 0 0 1 3.334 3.333V307a3.334 3.334 0 0 1-3.334 3.333h-20A3.333 3.333 0 0 1 236 307v-26.667a3.333 3.333 0 0 1 3.333-3.333Zm11.25 19.167c4.584 0 5.817-3.384 6.134-5.167a3.757 3.757 0 0 0 2.616-3.583 3.734 3.734 0 0 0-3.75-3.75 3.734 3.734 0 0 0-3.75 3.75c0 1.566.95 2.916 2.317 3.466-.367 1.117-1.483 2.784-4.817 2.784-2.3 0-3.9.583-5 1.4v-6.617c1.45-.517 2.5-1.9 2.5-3.533a3.734 3.734 0 0 0-3.75-3.75 3.734 3.734 0 0 0-3.75 3.75 3.758 3.758 0 0 0 2.5 3.533v10.433c-1.45.517-2.5 1.9-2.5 3.534a3.735 3.735 0 0 0 3.75 3.75 3.734 3.734 0 0 0 3.75-3.75c0-1.55-.933-2.917-2.283-3.45.467-1.134 1.833-2.8 6.033-2.8Zm-7.5 5a1.246 1.246 0 0 1 1.25 1.25 1.25 1.25 0 1 1-1.25-1.25Zm0-17.5a1.246 1.246 0 0 1 1.25 1.25 1.25 1.25 0 1 1-1.25-1.25Zm12.5 2.5a1.246 1.246 0 0 1 1.25 1.25 1.25 1.25 0 1 1-1.25-1.25Z" fill="#ADB5BD"/><path d="M87.333 0h20a3.333 3.333 0 0 1 3.334 3.333V30a3.334 3.334 0 0 1-3.334 3.333h-20A3.333 3.333 0 0 1 84 30V3.333A3.333 3.333 0 0 1 87.333 0Zm11.25 19.167c4.584 0 5.817-3.384 6.134-5.167a3.758 3.758 0 0 0 2.616-3.583 3.734 3.734 0 0 0-3.75-3.75 3.734 3.734 0 0 0-3.75 3.75c0 1.566.95 2.916 2.317 3.466-.367 1.117-1.483 2.784-4.817 2.784-2.3 0-3.9.583-5 1.4V11.45c1.45-.517 2.5-1.9 2.5-3.533a3.734 3.734 0 0 0-3.75-3.75 3.734 3.734 0 0 0-3.75 3.75 3.757 3.757 0 0 0 2.5 3.533v10.433c-1.45.517-2.5 1.9-2.5 3.534a3.734 3.734 0 0 0 3.75 3.75 3.734 3.734 0 0 0 3.75-3.75c0-1.55-.933-2.917-2.283-3.45.467-1.134 1.833-2.8 6.033-2.8Zm-7.5 5a1.25 1.25 0 1 1 0 2.5 1.25 1.25 0 0 1 0-2.5Zm0-17.5a1.25 1.25 0 1 1 0 2.5 1.25 1.25 0 0 1 0-2.5Zm12.5 2.5a1.249 1.249 0 0 1 .884 2.133 1.248 1.248 0 0 1-2.134-.883 1.252 1.252 0 0 1 1.25-1.25ZM274.333 0h20a3.333 3.333 0 0 1 3.334 3.333V30a3.334 3.334 0 0 1-3.334 3.333h-20A3.333 3.333 0 0 1 271 30V3.333A3.334 3.334 0 0 1 274.333 0Zm11.25 19.167c4.584 0 5.817-3.384 6.134-5.167a3.758 3.758 0 0 0 2.616-3.583 3.734 3.734 0 0 0-3.75-3.75 3.735 3.735 0 0 0-3.75 3.75c0 1.566.95 2.916 2.317 3.466-.367 1.117-1.483 2.784-4.817 2.784-2.3 0-3.9.583-5 1.4V11.45c1.45-.517 2.5-1.9 2.5-3.533a3.734 3.734 0 0 0-3.75-3.75 3.735 3.735 0 0 0-3.75 3.75 3.757 3.757 0 0 0 2.5 3.533v10.433c-1.45.517-2.5 1.9-2.5 3.534a3.735 3.735 0 0 0 3.75 3.75 3.734 3.734 0 0 0 3.75-3.75c0-1.55-.933-2.917-2.283-3.45.467-1.134 1.833-2.8 6.033-2.8Zm-7.5 5a1.249 1.249 0 1 1 0 2.5 1.252 1.252 0 0 1-1.25-1.25 1.252 1.252 0 0 1 1.25-1.25Zm0-17.5a1.249 1.249 0 0 1 .884 2.134 1.249 1.249 0 0 1-2.134-.884 1.252 1.252 0 0 1 1.25-1.25Zm12.5 2.5a1.249 1.249 0 0 1 .884 2.133 1.248 1.248 0 0 1-2.134-.883 1.252 1.252 0 0 1 1.25-1.25ZM87.333 56h20a3.333 3.333 0 0 1 3.334 3.333V86a3.334 3.334 0 0 1-3.334 3.333h-20A3.333 3.333 0 0 1 84 86V59.333A3.333 3.333 0 0 1 87.333 56Zm11.25 19.167c4.584 0 5.817-3.384 6.134-5.167a3.758 3.758 0 0 0 2.616-3.583 3.734 3.734 0 0 0-3.75-3.75 3.734 3.734 0 0 0-3.75 3.75c0 1.566.95 2.916 2.317 3.466-.367 1.117-1.483 2.784-4.817 2.784-2.3 0-3.9.583-5 1.4V67.45c1.45-.517 2.5-1.9 2.5-3.533a3.734 3.734 0 0 0-3.75-3.75 3.734 3.734 0 0 0-3.75 3.75 3.757 3.757 0 0 0 2.5 3.533v10.433c-1.45.517-2.5 1.9-2.5 3.534a3.734 3.734 0 0 0 3.75 3.75 3.734 3.734 0 0 0 3.75-3.75c0-1.55-.933-2.917-2.283-3.45.467-1.134 1.833-2.8 6.033-2.8Zm-7.5 5a1.25 1.25 0 1 1 0 2.5 1.25 1.25 0 0 1 0-2.5Zm0-17.5a1.25 1.25 0 1 1 0 2.5 1.25 1.25 0 0 1 0-2.5Zm12.5 2.5a1.249 1.249 0 1 1 0 2.5 1.252 1.252 0 0 1-1.25-1.25 1.252 1.252 0 0 1 1.25-1.25ZM274.333 56h20a3.333 3.333 0 0 1 3.334 3.333V86a3.334 3.334 0 0 1-3.334 3.333h-20A3.333 3.333 0 0 1 271 86V59.333A3.334 3.334 0 0 1 274.333 56Zm11.25 19.167c4.584 0 5.817-3.384 6.134-5.167a3.758 3.758 0 0 0 2.616-3.583 3.734 3.734 0 0 0-3.75-3.75 3.735 3.735 0 0 0-3.75 3.75c0 1.566.95 2.916 2.317 3.466-.367 1.117-1.483 2.784-4.817 2.784-2.3 0-3.9.583-5 1.4V67.45c1.45-.517 2.5-1.9 2.5-3.533a3.734 3.734 0 0 0-3.75-3.75 3.735 3.735 0 0 0-3.75 3.75 3.757 3.757 0 0 0 2.5 3.533v10.433c-1.45.517-2.5 1.9-2.5 3.534a3.735 3.735 0 0 0 3.75 3.75 3.734 3.734 0 0 0 3.75-3.75c0-1.55-.933-2.917-2.283-3.45.467-1.134 1.833-2.8 6.033-2.8Zm-7.5 5a1.249 1.249 0 1 1 0 2.5 1.252 1.252 0 0 1-1.25-1.25 1.252 1.252 0 0 1 1.25-1.25Zm0-17.5a1.249 1.249 0 1 1 0 2.5 1.252 1.252 0 0 1-1.25-1.25 1.252 1.252 0 0 1 1.25-1.25Zm12.5 2.5a1.249 1.249 0 1 1 0 2.5 1.252 1.252 0 0 1-1.25-1.25 1.252 1.252 0 0 1 1.25-1.25ZM87.333 111h20a3.333 3.333 0 0 1 3.334 3.333V141a3.334 3.334 0 0 1-3.334 3.333h-20A3.334 3.334 0 0 1 84 141v-26.667A3.333 3.333 0 0 1 87.333 111Zm11.25 19.167c4.584 0 5.817-3.384 6.134-5.167a3.757 3.757 0 0 0 2.616-3.583 3.734 3.734 0 0 0-3.75-3.75 3.734 3.734 0 0 0-3.75 3.75c0 1.566.95 2.916 2.317 3.466-.367 1.117-1.483 2.784-4.817 2.784-2.3 0-3.9.583-5 1.4v-6.617c1.45-.517 2.5-1.9 2.5-3.533a3.734 3.734 0 0 0-3.75-3.75 3.734 3.734 0 0 0-3.75 3.75 3.758 3.758 0 0 0 2.5 3.533v10.433c-1.45.517-2.5 1.9-2.5 3.534a3.735 3.735 0 0 0 3.75 3.75 3.735 3.735 0 0 0 3.75-3.75c0-1.55-.933-2.917-2.283-3.45.467-1.134 1.833-2.8 6.033-2.8Zm-7.5 5a1.247 1.247 0 0 1 1.25 1.25 1.252 1.252 0 0 1-1.25 1.25 1.252 1.252 0 0 1-1.25-1.25 1.249 1.249 0 0 1 1.25-1.25Zm0-17.5a1.247 1.247 0 0 1 1.25 1.25 1.252 1.252 0 0 1-1.25 1.25 1.252 1.252 0 0 1-1.25-1.25 1.249 1.249 0 0 1 1.25-1.25Zm12.5 2.5a1.246 1.246 0 0 1 1.25 1.25 1.25 1.25 0 1 1-1.25-1.25ZM274.333 111h20a3.333 3.333 0 0 1 3.334 3.333V141a3.334 3.334 0 0 1-3.334 3.333h-20A3.333 3.333 0 0 1 271 141v-26.667a3.333 3.333 0 0 1 3.333-3.333Zm11.25 19.167c4.584 0 5.817-3.384 6.134-5.167a3.757 3.757 0 0 0 2.616-3.583 3.734 3.734 0 0 0-3.75-3.75 3.734 3.734 0 0 0-3.75 3.75c0 1.566.95 2.916 2.317 3.466-.367 1.117-1.483 2.784-4.817 2.784-2.3 0-3.9.583-5 1.4v-6.617c1.45-.517 2.5-1.9 2.5-3.533a3.734 3.734 0 0 0-3.75-3.75 3.734 3.734 0 0 0-3.75 3.75 3.758 3.758 0 0 0 2.5 3.533v10.433c-1.45.517-2.5 1.9-2.5 3.534a3.735 3.735 0 0 0 3.75 3.75 3.734 3.734 0 0 0 3.75-3.75c0-1.55-.933-2.917-2.283-3.45.467-1.134 1.833-2.8 6.033-2.8Zm-7.5 5a1.246 1.246 0 0 1 1.25 1.25 1.25 1.25 0 1 1-1.25-1.25Zm0-17.5a1.246 1.246 0 0 1 1.25 1.25 1.25 1.25 0 1 1-1.25-1.25Zm12.5 2.5a1.246 1.246 0 0 1 1.25 1.25 1.25 1.25 0 1 1-1.25-1.25ZM87.333 166h20a3.333 3.333 0 0 1 3.334 3.333V196a3.334 3.334 0 0 1-3.334 3.333h-20A3.334 3.334 0 0 1 84 196v-26.667A3.333 3.333 0 0 1 87.333 166Zm11.25 19.167c4.584 0 5.817-3.384 6.134-5.167a3.757 3.757 0 0 0 2.616-3.583 3.734 3.734 0 0 0-3.75-3.75 3.734 3.734 0 0 0-3.75 3.75c0 1.566.95 2.916 2.317 3.466-.367 1.117-1.483 2.784-4.817 2.784-2.3 0-3.9.583-5 1.4v-6.617c1.45-.517 2.5-1.9 2.5-3.533a3.734 3.734 0 0 0-3.75-3.75 3.734 3.734 0 0 0-3.75 3.75 3.758 3.758 0 0 0 2.5 3.533v10.433c-1.45.517-2.5 1.9-2.5 3.534a3.735 3.735 0 0 0 3.75 3.75 3.735 3.735 0 0 0 3.75-3.75c0-1.55-.933-2.917-2.283-3.45.467-1.134 1.833-2.8 6.033-2.8Zm-7.5 5a1.247 1.247 0 0 1 1.25 1.25 1.252 1.252 0 0 1-1.25 1.25 1.252 1.252 0 0 1-1.25-1.25 1.249 1.249 0 0 1 1.25-1.25Zm0-17.5a1.247 1.247 0 0 1 1.25 1.25 1.252 1.252 0 0 1-1.25 1.25 1.252 1.252 0 0 1-1.25-1.25 1.249 1.249 0 0 1 1.25-1.25Zm12.5 2.5a1.246 1.246 0 0 1 1.25 1.25 1.25 1.25 0 1 1-1.25-1.25ZM274.333 166h20a3.333 3.333 0 0 1 3.334 3.333V196a3.334 3.334 0 0 1-3.334 3.333h-20A3.333 3.333 0 0 1 271 196v-26.667a3.333 3.333 0 0 1 3.333-3.333Zm11.25 19.167c4.584 0 5.817-3.384 6.134-5.167a3.757 3.757 0 0 0 2.616-3.583 3.734 3.734 0 0 0-3.75-3.75 3.734 3.734 0 0 0-3.75 3.75c0 1.566.95 2.916 2.317 3.466-.367 1.117-1.483 2.784-4.817 2.784-2.3 0-3.9.583-5 1.4v-6.617c1.45-.517 2.5-1.9 2.5-3.533a3.734 3.734 0 0 0-3.75-3.75 3.734 3.734 0 0 0-3.75 3.75 3.758 3.758 0 0 0 2.5 3.533v10.433c-1.45.517-2.5 1.9-2.5 3.534a3.735 3.735 0 0 0 3.75 3.75 3.734 3.734 0 0 0 3.75-3.75c0-1.55-.933-2.917-2.283-3.45.467-1.134 1.833-2.8 6.033-2.8Zm-7.5 5a1.246 1.246 0 0 1 1.25 1.25 1.25 1.25 0 1 1-1.25-1.25Zm0-17.5a1.246 1.246 0 0 1 1.25 1.25 1.25 1.25 0 1 1-1.25-1.25Zm12.5 2.5a1.246 1.246 0 0 1 1.25 1.25 1.25 1.25 0 1 1-1.25-1.25ZM87.333 222h20a3.333 3.333 0 0 1 3.334 3.333V252a3.334 3.334 0 0 1-3.334 3.333h-20A3.334 3.334 0 0 1 84 252v-26.667A3.333 3.333 0 0 1 87.333 222Zm11.25 19.167c4.584 0 5.817-3.384 6.134-5.167a3.757 3.757 0 0 0 2.616-3.583 3.734 3.734 0 0 0-3.75-3.75 3.734 3.734 0 0 0-3.75 3.75c0 1.566.95 2.916 2.317 3.466-.367 1.117-1.483 2.784-4.817 2.784-2.3 0-3.9.583-5 1.4v-6.617c1.45-.517 2.5-1.9 2.5-3.533a3.734 3.734 0 0 0-3.75-3.75 3.734 3.734 0 0 0-3.75 3.75 3.758 3.758 0 0 0 2.5 3.533v10.433c-1.45.517-2.5 1.9-2.5 3.534a3.735 3.735 0 0 0 3.75 3.75 3.735 3.735 0 0 0 3.75-3.75c0-1.55-.933-2.917-2.283-3.45.467-1.134 1.833-2.8 6.033-2.8Zm-7.5 5a1.247 1.247 0 0 1 1.25 1.25 1.252 1.252 0 0 1-1.25 1.25 1.252 1.252 0 0 1-1.25-1.25 1.249 1.249 0 0 1 1.25-1.25Zm0-17.5a1.247 1.247 0 0 1 1.25 1.25 1.252 1.252 0 0 1-1.25 1.25 1.252 1.252 0 0 1-1.25-1.25 1.249 1.249 0 0 1 1.25-1.25Zm12.5 2.5a1.246 1.246 0 0 1 1.25 1.25 1.25 1.25 0 1 1-1.25-1.25ZM274.333 222h20a3.333 3.333 0 0 1 3.334 3.333V252a3.334 3.334 0 0 1-3.334 3.333h-20A3.333 3.333 0 0 1 271 252v-26.667a3.333 3.333 0 0 1 3.333-3.333Zm11.25 19.167c4.584 0 5.817-3.384 6.134-5.167a3.757 3.757 0 0 0 2.616-3.583 3.734 3.734 0 0 0-3.75-3.75 3.734 3.734 0 0 0-3.75 3.75c0 1.566.95 2.916 2.317 3.466-.367 1.117-1.483 2.784-4.817 2.784-2.3 0-3.9.583-5 1.4v-6.617c1.45-.517 2.5-1.9 2.5-3.533a3.734 3.734 0 0 0-3.75-3.75 3.734 3.734 0 0 0-3.75 3.75 3.758 3.758 0 0 0 2.5 3.533v10.433c-1.45.517-2.5 1.9-2.5 3.534a3.735 3.735 0 0 0 3.75 3.75 3.734 3.734 0 0 0 3.75-3.75c0-1.55-.933-2.917-2.283-3.45.467-1.134 1.833-2.8 6.033-2.8Zm-7.5 5a1.246 1.246 0 0 1 1.25 1.25 1.25 1.25 0 1 1-1.25-1.25Zm0-17.5a1.246 1.246 0 0 1 1.25 1.25 1.25 1.25 0 1 1-1.25-1.25Zm12.5 2.5a1.246 1.246 0 0 1 1.25 1.25 1.25 1.25 0 1 1-1.25-1.25Z" fill="#1D2535"/><path d="M87.333 277h20a3.333 3.333 0 0 1 3.334 3.333V307a3.334 3.334 0 0 1-3.334 3.333h-20A3.334 3.334 0 0 1 84 307v-26.667A3.333 3.333 0 0 1 87.333 277Zm11.25 19.167c4.584 0 5.817-3.384 6.134-5.167a3.757 3.757 0 0 0 2.616-3.583 3.734 3.734 0 0 0-3.75-3.75 3.734 3.734 0 0 0-3.75 3.75c0 1.566.95 2.916 2.317 3.466-.367 1.117-1.483 2.784-4.817 2.784-2.3 0-3.9.583-5 1.4v-6.617c1.45-.517 2.5-1.9 2.5-3.533a3.734 3.734 0 0 0-3.75-3.75 3.734 3.734 0 0 0-3.75 3.75 3.758 3.758 0 0 0 2.5 3.533v10.433c-1.45.517-2.5 1.9-2.5 3.534a3.735 3.735 0 0 0 3.75 3.75 3.735 3.735 0 0 0 3.75-3.75c0-1.55-.933-2.917-2.283-3.45.467-1.134 1.833-2.8 6.033-2.8Zm-7.5 5a1.247 1.247 0 0 1 1.25 1.25 1.252 1.252 0 0 1-1.25 1.25 1.252 1.252 0 0 1-1.25-1.25 1.249 1.249 0 0 1 1.25-1.25Zm0-17.5a1.247 1.247 0 0 1 1.25 1.25 1.252 1.252 0 0 1-1.25 1.25 1.252 1.252 0 0 1-1.25-1.25 1.249 1.249 0 0 1 1.25-1.25Zm12.5 2.5a1.246 1.246 0 0 1 1.25 1.25 1.25 1.25 0 1 1-1.25-1.25Z" fill="#ADB5BD"/><path d="M122.333 0h20a3.333 3.333 0 0 1 3.334 3.333V30a3.334 3.334 0 0 1-3.334 3.333h-20A3.333 3.333 0 0 1 119 30V3.333A3.334 3.334 0 0 1 122.333 0Zm11.25 19.167c4.584 0 5.817-3.384 6.134-5.167a3.758 3.758 0 0 0 2.616-3.583 3.734 3.734 0 0 0-3.75-3.75 3.735 3.735 0 0 0-3.75 3.75c0 1.566.95 2.916 2.317 3.466-.367 1.117-1.483 2.784-4.817 2.784-2.3 0-3.9.583-5 1.4V11.45c1.45-.517 2.5-1.9 2.5-3.533a3.734 3.734 0 0 0-3.75-3.75 3.735 3.735 0 0 0-3.75 3.75 3.757 3.757 0 0 0 2.5 3.533v10.433c-1.45.517-2.5 1.9-2.5 3.534a3.735 3.735 0 0 0 3.75 3.75 3.734 3.734 0 0 0 3.75-3.75c0-1.55-.933-2.917-2.283-3.45.467-1.134 1.833-2.8 6.033-2.8Zm-7.5 5a1.249 1.249 0 1 1 0 2.5 1.252 1.252 0 0 1-1.25-1.25 1.252 1.252 0 0 1 1.25-1.25Zm0-17.5a1.249 1.249 0 0 1 .884 2.134 1.249 1.249 0 0 1-2.134-.884 1.252 1.252 0 0 1 1.25-1.25Zm12.5 2.5a1.249 1.249 0 0 1 .884 2.133 1.248 1.248 0 0 1-2.134-.883 1.252 1.252 0 0 1 1.25-1.25ZM122.333 56h20a3.333 3.333 0 0 1 3.334 3.333V86a3.334 3.334 0 0 1-3.334 3.333h-20A3.333 3.333 0 0 1 119 86V59.333A3.334 3.334 0 0 1 122.333 56Zm11.25 19.167c4.584 0 5.817-3.384 6.134-5.167a3.758 3.758 0 0 0 2.616-3.583 3.734 3.734 0 0 0-3.75-3.75 3.735 3.735 0 0 0-3.75 3.75c0 1.566.95 2.916 2.317 3.466-.367 1.117-1.483 2.784-4.817 2.784-2.3 0-3.9.583-5 1.4V67.45c1.45-.517 2.5-1.9 2.5-3.533a3.734 3.734 0 0 0-3.75-3.75 3.735 3.735 0 0 0-3.75 3.75 3.757 3.757 0 0 0 2.5 3.533v10.433c-1.45.517-2.5 1.9-2.5 3.534a3.735 3.735 0 0 0 3.75 3.75 3.734 3.734 0 0 0 3.75-3.75c0-1.55-.933-2.917-2.283-3.45.467-1.134 1.833-2.8 6.033-2.8Zm-7.5 5a1.249 1.249 0 1 1 0 2.5 1.252 1.252 0 0 1-1.25-1.25 1.252 1.252 0 0 1 1.25-1.25Zm0-17.5a1.249 1.249 0 1 1 0 2.5 1.252 1.252 0 0 1-1.25-1.25 1.252 1.252 0 0 1 1.25-1.25Zm12.5 2.5a1.249 1.249 0 1 1 0 2.5 1.252 1.252 0 0 1-1.25-1.25 1.252 1.252 0 0 1 1.25-1.25ZM122.333 111h20a3.333 3.333 0 0 1 3.334 3.333V141a3.334 3.334 0 0 1-3.334 3.333h-20A3.333 3.333 0 0 1 119 141v-26.667a3.333 3.333 0 0 1 3.333-3.333Zm11.25 19.167c4.584 0 5.817-3.384 6.134-5.167a3.757 3.757 0 0 0 2.616-3.583 3.734 3.734 0 0 0-3.75-3.75 3.734 3.734 0 0 0-3.75 3.75c0 1.566.95 2.916 2.317 3.466-.367 1.117-1.483 2.784-4.817 2.784-2.3 0-3.9.583-5 1.4v-6.617c1.45-.517 2.5-1.9 2.5-3.533a3.734 3.734 0 0 0-3.75-3.75 3.734 3.734 0 0 0-3.75 3.75 3.758 3.758 0 0 0 2.5 3.533v10.433c-1.45.517-2.5 1.9-2.5 3.534a3.735 3.735 0 0 0 3.75 3.75 3.734 3.734 0 0 0 3.75-3.75c0-1.55-.933-2.917-2.283-3.45.467-1.134 1.833-2.8 6.033-2.8Zm-7.5 5a1.246 1.246 0 0 1 1.25 1.25 1.25 1.25 0 1 1-1.25-1.25Zm0-17.5a1.246 1.246 0 0 1 1.25 1.25 1.25 1.25 0 1 1-1.25-1.25Zm12.5 2.5a1.246 1.246 0 0 1 1.25 1.25 1.25 1.25 0 1 1-1.25-1.25Z" fill="#1D2535"/><path d="M13.333 279a6.664 6.664 0 0 0-6.666 6.667 6.668 6.668 0 0 0 11.38 4.714A6.668 6.668 0 0 0 13.333 279Zm12.5 15a7.469 7.469 0 0 0-7.5 7.5c0 4.167 3.334 7.5 7.5 7.5 4.167 0 7.5-3.333 7.5-7.5S30 294 25.833 294Zm-12.5 1.667C5.967 295.667 0 298.65 0 302.333v3.334h15.833A10.839 10.839 0 0 1 15 301.5a10.833 10.833 0 0 1 1.583-5.6c-1.05-.133-2.116-.233-3.25-.233Zm12.5.833c2.767 0 5 2.233 5 5 0 .933-.25 1.8-.7 2.5l-6.8-6.8c.7-.45 1.567-.7 2.5-.7Zm-4.3 2.5 6.8 6.8c-.7.45-1.566.7-2.5.7-2.766 0-5-2.233-5-5 0-.933.25-1.8.7-2.5ZM200.333 279a6.665 6.665 0 0 0-4.714 11.381A6.668 6.668 0 0 0 207 285.667a6.664 6.664 0 0 0-1.953-4.714 6.664 6.664 0 0 0-4.714-1.953Zm12.5 15a7.469 7.469 0 0 0-7.5 7.5c0 4.167 3.334 7.5 7.5 7.5 4.167 0 7.5-3.333 7.5-7.5s-3.333-7.5-7.5-7.5Zm-12.5 1.667c-7.366 0-13.333 2.983-13.333 6.666v3.334h15.833A10.84 10.84 0 0 1 202 301.5a10.837 10.837 0 0 1 1.583-5.6c-1.05-.133-2.116-.233-3.25-.233Zm12.5.833c2.767 0 5 2.233 5 5 0 .933-.25 1.8-.7 2.5l-6.8-6.8c.7-.45 1.567-.7 2.5-.7Zm-4.3 2.5 6.8 6.8c-.7.45-1.566.7-2.5.7-2.766 0-5-2.233-5-5 0-.933.25-1.8.7-2.5Z" fill="#F03E3E"/><path d="M13.333 3a6.667 6.667 0 1 1 0 13.334 6.667 6.667 0 0 1 0-13.334Zm0 16.667c7.367 0 13.334 2.983 13.334 6.666v3.334H0v-3.334c0-3.683 5.967-6.666 13.333-6.666ZM200.333 3a6.666 6.666 0 1 1 0 13.333 6.666 6.666 0 0 1 0-13.333Zm0 16.667c7.367 0 13.334 2.983 13.334 6.666v3.334H187v-3.334c0-3.683 5.967-6.666 13.333-6.666ZM13.333 59a6.667 6.667 0 1 1 0 13.334 6.667 6.667 0 0 1 0-13.334Zm0 16.667c7.367 0 13.334 2.983 13.334 6.666v3.334H0v-3.334c0-3.683 5.967-6.666 13.333-6.666ZM200.333 59a6.666 6.666 0 1 1 0 13.333 6.666 6.666 0 0 1 0-13.333Zm0 16.667c7.367 0 13.334 2.983 13.334 6.666v3.334H187v-3.334c0-3.683 5.967-6.666 13.333-6.666ZM13.333 114A6.664 6.664 0 0 1 20 120.667a6.668 6.668 0 0 1-11.38 4.714A6.668 6.668 0 0 1 13.332 114Zm0 16.667c7.367 0 13.334 2.983 13.334 6.666v3.334H0v-3.334c0-3.683 5.967-6.666 13.333-6.666ZM200.333 114c1.768 0 3.464.702 4.714 1.953a6.664 6.664 0 0 1 0 9.428A6.667 6.667 0 1 1 200.333 114Zm0 16.667c7.367 0 13.334 2.983 13.334 6.666v3.334H187v-3.334c0-3.683 5.967-6.666 13.333-6.666ZM13.333 169A6.664 6.664 0 0 1 20 175.667a6.668 6.668 0 0 1-11.38 4.714A6.668 6.668 0 0 1 13.332 169Zm0 16.667c7.367 0 13.334 2.983 13.334 6.666v3.334H0v-3.334c0-3.683 5.967-6.666 13.333-6.666ZM200.333 169c1.768 0 3.464.702 4.714 1.953a6.664 6.664 0 0 1 0 9.428A6.667 6.667 0 1 1 200.333 169Zm0 16.667c7.367 0 13.334 2.983 13.334 6.666v3.334H187v-3.334c0-3.683 5.967-6.666 13.333-6.666ZM13.333 225A6.664 6.664 0 0 1 20 231.667a6.668 6.668 0 0 1-11.38 4.714A6.668 6.668 0 0 1 13.332 225Zm0 16.667c7.367 0 13.334 2.983 13.334 6.666v3.334H0v-3.334c0-3.683 5.967-6.666 13.333-6.666ZM200.333 225c1.768 0 3.464.702 4.714 1.953a6.664 6.664 0 0 1 0 9.428A6.667 6.667 0 1 1 200.333 225Zm0 16.667c7.367 0 13.334 2.983 13.334 6.666v3.334H187v-3.334c0-3.683 5.967-6.666 13.333-6.666Z" fill="#00CBEC"/></svg>