<svg width="845" height="566" fill="none" xmlns="http://www.w3.org/2000/svg"><g opacity=".2" clip-path="url(#a)"><path d="m455.709 24.797-738.051 495.706M491.176 48.441l-738.051 495.706m773.518-472.06-738.05 495.706M562.417 95.935l-738.051 495.706M597.884 119.58l-738.051 495.706m773.518-472.061L-104.7 638.931M668.819 166.87l-738.05 495.706m773.517-472.061-738.05 495.706m773.823-471.857L2.009 710.07m773.518-472.061L37.476 733.715m773.518-472.061L72.943 757.359m773.519-472.06L108.411 781.005m773.824-471.858L144.184 804.853m773.518-472.06L179.651 828.498m773.518-472.061L215.118 852.143m773.519-472.061L250.586 875.788M1024.1 403.727 286.053 899.433m773.827-471.857L321.826 923.282m773.514-472.063L357.292 946.925m773.528-472.057L392.765 970.574m-679.926-494.677 746.037 497.358M-251.54 451.973l746.036 497.359M-215.922 428.05l746.038 497.358m-710.419-521.281 746.037 497.358m-710.419-521.28 746.037 497.358m-710.418-521.281L636.971 853.64M-73.448 332.359 672.59 829.717M-37.83 308.436l746.038 497.358M-2.212 284.513l746.038 497.358M33.407 260.591l746.037 497.358M69.026 236.668l746.037 497.358M104.644 212.745l746.037 497.358M140.263 188.822 886.3 686.18M175.881 164.899l746.037 497.358M211.499 140.976l746.038 497.359M247.118 117.054l746.037 497.358M282.736 93.131l746.034 497.358M318.355 69.208l746.035 497.358M353.973 45.286l746.037 497.357M389.591 21.363 1135.63 518.72" stroke="url(#b)"/></g><circle cx="403.974" cy="334.178" r="175.848" fill="url(#c)"/><path d="m234.99 358.997 46.999-31.684" stroke="#A6B6D9" stroke-dasharray="7 7"/><path d="M181.588 155.407c-3.338-1.926-4.935-4.477-4.792-7.001.131-2.317 0-11.323 0-11.323l24.032-6.651c1.074-.298 2.095-.753 3.111-1.212 5.988-2.71 14.49-2.676 20.414.102.862.404 1.728.806 2.635 1.094l24.286 7.696s-.13 7.976 0 10.294c.142 2.523-1.455 5.073-4.791 6.999l-20.859 13.043c-6.4 3.695-16.777 3.695-23.177.001l-20.859-13.042z" fill="#fff" stroke="#A6B6D9" stroke-linejoin="bevel"/><path d="M181.406 145.008c-6.299-3.636-6.299-9.532 0-13.169l21.225-13.254c6.299-3.637 16.512-3.637 22.811-.001l21.226 13.253c6.299 3.637 6.299 9.532 0 13.169l-21.225 13.255c-6.299 3.636-16.512 3.637-22.811 0l-21.226-13.253z" fill="#fff" stroke="#A6B6D9" stroke-linejoin="bevel"/><g clip-path="url(#d)"><path d="m223.034 146.267 7.125-9.562a.298.298 0 0 0 .043-.23.314.314 0 0 0-.118-.236.724.724 0 0 0-.322-.114.953.953 0 0 0-.342.029l-9.556 3.176-7.889-5.259 4.743-6.37a.327.327 0 0 0 .085-.201c-.017-.094-.086-.181-.193-.243a.712.712 0 0 0-.322-.114.91.91 0 0 0-.342.029l-14.35 4.803a1.028 1.028 0 0 0-.491.33.535.535 0 0 0-.107.459l3.072 11.895 17.744 1.983c.237.039.487.023.708-.045a1 1 0 0 0 .512-.33z" stroke="#374151" stroke-width="1.75" stroke-linecap="round" stroke-linejoin="round"/></g><ellipse opacity=".8" cx="398" cy="261" rx="242" ry="157" fill="url(#e)"/><path d="m235.998 157.5 43.878 27.234" stroke="#A6B6D9" stroke-dasharray="7 7"/><path d="M371.691 148.723c8.766-4.537 21.118-4.236 29.347.716L784.997 380.49c4.825 2.904 7.58 7.042 7.58 11.388l.001 25.139c0 4.004-2.341 7.852-6.521 10.721L625.922 537.635c-8.952 6.143-23.682 6.189-32.693.102L208.406 277.765c-4.244-2.868-6.624-6.741-6.624-10.779v-22.775c0-4.751 3.291-9.238 8.911-12.147l160.998-83.341z" fill="#fff" stroke="#A6B6D9"/><rect x=".001" y=".556" width="500.667" height="233.463" rx="19.5" transform="matrix(.83205 .5547 -.83014 .55756 386.261 113.161)" fill="#fff" stroke="#A6B6D9"/><g opacity=".7" clip-path="url(#f)"><path d="M371.905 173.085c1.381.92 2.158 2.171 2.16 3.476.002 1.305-.77 2.558-2.148 3.483-2.233 1.5-5.543 1.842-8.266 1-7.72 6.439-1.573 12.761 1.76 15.423a10.64 10.64 0 0 1 4.365-.387c1.48.174 2.843.648 3.904 1.359 1.381.92 2.158 2.171 2.16 3.476.003 1.305-.77 2.558-2.148 3.483-1.377.925-3.247 1.447-5.197 1.45-1.951.004-3.822-.512-5.203-1.432-2.273-1.516-2.762-3.788-1.465-5.611-7.029-5.15-6.793-8.722-6.175-12.481l-3.082 2.069c1.321 1.831.839 4.082-1.429 5.605-1.377.925-3.247 1.447-5.197 1.45-1.951.004-3.822-.512-5.203-1.432-1.381-.921-2.158-2.171-2.16-3.476-.002-1.305.771-2.558 2.148-3.483 2.268-1.524 5.63-1.854 8.37-.977l10.977-7.373c-.661-.917-.878-1.949-.622-2.953.256-1.005.973-1.931 2.051-2.651 1.378-.926 3.247-1.447 5.198-1.451 1.95-.003 3.822.512 5.202 1.433zm-3.462 2.325c-.461-.306-1.084-.478-1.735-.477-.65.001-1.273.175-1.732.483-.459.309-.717.727-.716 1.162.001.435.26.851.72 1.158.46.307 1.084.479 1.734.478.65-.001 1.273-.175 1.733-.484.459-.308.716-.726.716-1.161-.001-.435-.26-.852-.72-1.159zm-20.777 13.955c-.46-.307-1.084-.479-1.734-.478-.65.001-1.273.175-1.732.484-.459.308-.717.726-.716 1.161.001.435.26.851.72 1.158.46.307 1.084.479 1.734.478.65-.001 1.273-.175 1.732-.484.46-.308.717-.726.716-1.161 0-.435-.259-.852-.72-1.158zm22.552 10.4c-.461-.307-1.084-.479-1.734-.478-.651.001-1.274.175-1.733.484-.459.308-.717.726-.716 1.161.001.435.26.852.72 1.158.46.307 1.084.479 1.734.478.65-.001 1.274-.175 1.733-.484.459-.308.716-.726.716-1.161-.001-.435-.26-.852-.72-1.158z" fill="#5E6E8C"/></g><mask id="g" style="mask-type:luminance" maskUnits="userSpaceOnUse" x="649" y="394" width="54" height="36"><path d="m702.158 424.377-45.142-30.095-7.509 5.042 45.143 30.096 7.508-5.043z" fill="#fff"/></mask><g mask="url(#g)"><path d="m664.539 399.298-7.523-5.016-7.509 5.043 7.524 5.016 7.508-5.043z" fill="#37B24D"/><path d="m702.159 424.377-7.524-5.016-7.508 5.043 7.523 5.016 7.509-5.043zM692.754 418.108l-7.524-5.016-7.508 5.043 7.524 5.016 7.508-5.043z" fill="#C92A2A"/><path d="m683.348 411.838-7.524-5.016-7.508 5.043 7.524 5.015 7.508-5.042zM673.944 405.568l-7.524-5.016-7.508 5.043 7.524 5.016 7.508-5.043z" fill="#37B24D"/></g><path d="m497.3 283.547-99.984-66.657c-3.856-2.57-10.099-2.56-13.943.022-3.846 2.582-3.836 6.759.02 9.33l99.984 66.656c3.857 2.571 10.098 2.561 13.943-.021 3.844-2.582 3.837-6.759-.02-9.33z" fill="#E4E9F4"/><path d="m504.463 301.988 1.311-.003-.003-2.852 7.527 5.018.929-.624-7.527-5.018 4.267-.006-.006-.88-6.507.01.009 4.355z" fill="#5E6E8C"/><path d="m641.041 379.375-106.819-71.213c-3.856-2.57-10.099-2.561-13.943.021-3.845 2.583-3.836 6.76.02 9.33l106.819 71.213c3.857 2.571 10.098 2.562 13.943-.021 3.845-2.582 3.837-6.759-.02-9.33z" fill="#E4E9F4"/><path d="m500.018 251.543-1.772 1.191 3.191 2.127-17.452.03.003 1.675 17.452-.03-3.184 2.138 1.777 1.185 6.206-4.169-6.221-4.147zm-9.741 12.49-12.442-8.294 12.413-8.337 6.221 4.147 1.773-1.191-6.221-4.147c-.471-.313-1.109-.49-1.776-.487-.667 0-1.304.178-1.774.493l-12.412 8.337c-.47.316-.734.743-.732 1.189 0 .447.265.873.736 1.187l12.441 8.294c.471.313 1.109.49 1.776.488.667-.001 1.304-.179 1.774-.494l6.206-4.169-1.777-1.184-6.206 4.168z" fill="#00A1C7"/><path d="m550.582 287.032-33.01-22.007c-4.222-2.814-10.75-3.01-14.581-.437-3.83 2.573-3.514 6.94.708 9.755l33.01 22.006c4.222 2.815 10.749 3.011 14.58.438 3.831-2.573 3.514-6.941-.707-9.755z" fill="#E4E9F4"/><path d="m475.814 237.187-53.774-35.849c-4.29-2.861-10.874-3.094-14.705-.521-3.831 2.573-3.458 6.978.833 9.838l53.773 35.849c4.291 2.861 10.875 3.094 14.705.521 3.831-2.573 3.459-6.978-.832-9.838z" fill="#00A1C7"/><mask id="h" style="mask-type:luminance" maskUnits="userSpaceOnUse" x="582" y="445" width="54" height="36"><path d="m635.109 475.759-45.142-30.095-7.508 5.043 45.142 30.095 7.508-5.043z" fill="#fff"/></mask><g mask="url(#h)"><path d="m597.491 450.68-7.524-5.016-7.508 5.043 7.523 5.016 7.509-5.043z" fill="#37B24D"/><path d="m635.108 475.759-7.524-5.016-7.508 5.043 7.524 5.016 7.508-5.043z" fill="#C92A2A"/><path d="m625.703 469.49-7.523-5.016-7.509 5.043 7.524 5.016 7.508-5.043z" fill="#F93"/><path d="m616.299 463.219-7.524-5.016-7.508 5.043 7.524 5.016 7.508-5.043zM606.895 456.95l-7.524-5.016-7.508 5.043 7.524 5.016 7.508-5.043z" fill="#37B24D"/></g><path d="m430.253 334.929-99.984-66.656c-3.856-2.57-10.099-2.561-13.943.021-3.846 2.583-3.836 6.76.02 9.33l99.984 66.657c3.857 2.571 10.098 2.561 13.943-.022 3.845-2.582 3.837-6.759-.02-9.33z" fill="#E4E9F4"/><path d="m437.416 353.37 1.311-.002-.002-2.852 7.526 5.018.929-.624-7.527-5.018 4.267-.006-.006-.88-6.507.01.009 4.354z" fill="#A6B6D9"/><path d="m573.996 430.758-106.819-71.213c-3.856-2.571-10.099-2.561-13.943.021-3.845 2.583-3.836 6.76.02 9.33l106.819 71.213c3.857 2.571 10.098 2.561 13.943-.021 3.845-2.582 3.837-6.759-.02-9.33z" fill="#E4E9F4"/><path d="m432.97 302.926-1.773 1.191 3.191 2.127-17.452.03.003 1.675 17.452-.03-3.184 2.139 1.777 1.184 6.206-4.168-6.22-4.148zm-9.742 12.491-12.441-8.295 12.412-8.337 6.221 4.148 1.773-1.191-6.221-4.147c-.47-.314-1.108-.49-1.775-.488-.667 0-1.305.179-1.774.494l-12.413 8.337c-.47.315-.734.742-.732 1.189 0 .446.265.872.736 1.186l12.441 8.294c.471.314 1.109.49 1.776.488.667 0 1.304-.179 1.774-.494l6.206-4.168-1.777-1.185-6.206 4.169z" fill="#00A1C7"/><path d="m483.533 338.415-33.01-22.006c-4.222-2.815-10.75-3.011-14.58-.438-3.831 2.573-3.514 6.941.707 9.755l33.01 22.006c4.222 2.815 10.75 3.011 14.58.438 3.831-2.573 3.514-6.941-.707-9.755z" fill="#E4E9F4"/><path d="m408.765 288.57-53.774-35.849c-4.29-2.861-10.874-3.094-14.705-.521-3.831 2.573-3.458 6.978.833 9.838l53.774 35.85c4.29 2.86 10.874 3.093 14.705.52 3.83-2.573 3.458-6.978-.833-9.838z" fill="#00A1C7"/><path d="M306.804 222.623c1.38.92 2.157 2.171 2.159 3.476.003 1.305-.77 2.558-2.147 3.483-2.269 1.523-5.631 1.854-8.371.977l-10.977 7.373c1.321 1.83.839 4.081-1.429 5.604-1.377.925-3.247 1.447-5.197 1.45-1.951.004-3.822-.512-5.203-1.432-1.38-.92-2.157-2.171-2.16-3.476-.002-1.305.771-2.558 2.148-3.483 2.268-1.524 5.631-1.854 8.371-.977l10.976-7.373c-.66-.917-.878-1.949-.622-2.953.256-1.005.973-1.931 2.052-2.651 1.377-.926 3.247-1.447 5.197-1.451 1.95-.003 3.822.512 5.203 1.433zm-3.463 2.326c-.46-.307-1.084-.479-1.734-.478-.65.001-1.274.175-1.733.483-.459.309-.717.727-.716 1.162.001.435.26.851.72 1.158.46.307 1.084.479 1.734.478.65-.001 1.274-.175 1.733-.484.459-.308.717-.726.716-1.161-.001-.435-.26-.852-.72-1.158zm-20.776 13.954c-.46-.307-1.084-.479-1.734-.478-.651.001-1.274.175-1.733.484-.459.308-.717.726-.716 1.161.001.435.26.851.72 1.158.46.307 1.084.479 1.734.478.65-.001 1.274-.175 1.733-.484.459-.308.716-.726.716-1.161-.001-.435-.26-.852-.72-1.158zm24.298 18.516c-1.377.925-3.247 1.447-5.197 1.45-1.951.003-3.822-.512-5.203-1.432-1.38-.921-2.157-2.171-2.16-3.476-.002-1.305.771-2.558 2.148-3.484 2.268-1.523 5.631-1.853 8.371-.977l14.145-9.5-3.471-2.314-5.627 3.779-.017-9.858 14.734-.026-5.627 3.779 3.47 2.314c.921.614 1.439 1.447 1.44 2.318.002.87-.513 1.705-1.432 2.322l-14.145 9.5c1.321 1.83.839 4.081-1.429 5.605zm-3.474-4.634c-.461-.307-1.084-.478-1.734-.477-.651.001-1.274.175-1.733.483-.459.309-.717.726-.716 1.161.001.435.26.852.72 1.159.46.307 1.084.478 1.734.477.65-.001 1.273-.175 1.733-.483.459-.308.716-.726.716-1.161-.001-.435-.26-.852-.72-1.159z" fill="#5E6E8C" opacity=".7"/><path d="M184.588 385.407c-3.338-1.926-4.935-4.477-4.792-7.001.131-2.317 0-11.323 0-11.323l24.032-6.651c1.074-.298 2.095-.753 3.111-1.212 5.988-2.71 14.49-2.676 20.414.102.862.404 1.728.806 2.635 1.094l24.286 7.696s-.13 7.976 0 10.294c.142 2.523-1.455 5.073-4.791 6.999l-20.859 13.043c-6.4 3.695-16.777 3.695-23.177.001l-20.859-13.042z" fill="#fff" stroke="#A6B6D9" stroke-linejoin="bevel"/><path d="M184.406 375.008c-6.299-3.636-6.299-9.532 0-13.169l21.225-13.254c6.299-3.637 16.512-3.637 22.811-.001l21.226 13.253c6.299 3.637 6.299 9.532 0 13.169l-21.225 13.255c-6.299 3.636-16.512 3.637-22.811 0l-21.226-13.253z" fill="#fff" stroke="#A6B6D9" stroke-linejoin="bevel"/><g clip-path="url(#i)"><path d="m209.218 377.521 4.278-2.873c1.488-.8 2.448-1.96 2.671-3.229 3.215 2.144 8.57 2.852 12.313.338 1.423-.841 2.363-1.975 2.671-3.229 1.53-.626 2.814-1.488 3.743-2.514 0 0-1.072-.715-4.82-1.066-2.295-2.246-5.21-4.19-8.575-5.717-.539-2.507-1.611-3.221-1.611-3.221-1.552.611-2.835 1.473-3.743 2.514-1.867.209-3.569.845-4.815 1.799-3.743 2.514-2.667 6.094.549 8.238a9.783 9.783 0 0 0-2.676.578c-.823.309-1.551.726-2.139 1.221m0 0-4.278 2.874m4.278-2.874c-6.973-1.786-3.22-5.009-5.364-6.438" stroke="#374151" stroke-width="1.75" stroke-linecap="round" stroke-linejoin="round"/></g><path d="M642.588 222.407c-3.338-1.926-4.935-4.477-4.792-7.001.131-2.317 0-11.323 0-11.323l24.032-6.651c1.074-.298 2.095-.753 3.111-1.212 5.988-2.71 14.49-2.676 20.414.102.862.404 1.728.806 2.635 1.094l24.286 7.696s-.13 7.976 0 10.294c.142 2.523-1.455 5.073-4.791 6.999l-20.859 13.043c-6.4 3.695-16.777 3.695-23.177.001l-20.859-13.042z" fill="#fff" stroke="#A6B6D9" stroke-linejoin="bevel"/><path d="M642.406 212.008c-6.299-3.636-6.299-9.532 0-13.169l21.225-13.254c6.299-3.637 16.512-3.637 22.811-.001l21.226 13.253c6.299 3.637 6.299 9.532 0 13.169l-21.225 13.255c-6.299 3.636-16.512 3.637-22.811 0l-21.226-13.253z" fill="#fff" stroke="#A6B6D9" stroke-linejoin="bevel"/><g clip-path="url(#j)" fill="#374151"><path d="M674.491 193.25c-.386-.257-1.027-.212-1.316.067l-13.296 12.413c-.353.323-.288.752.13 1.03l12.593 8.396c.29.193.772.214 1.124.063l18.694-9.029c.448-.216.48-.624.094-.881l-18.023-12.059zm-.424 15.075-4.015-2.677 4.612-4.517 6.073 4.048-6.67 3.146z"/><path d="m686.487 209.013-5.782-3.855-6.638 3.167-4.015-2.677-10.332.619s.032.279.353.493l12.594 8.396c.289.193.771.214 1.124.063l12.696-6.206z"/></g><path d="m654.28 222.227-52.807 35.38" stroke="#A6B6D9" stroke-dasharray="7 7"/><g filter="url(#k)"><path d="M315.814 130.769c-9.738-5.623-14.399-13.068-13.982-20.435.384-6.761 0-33.046 0-33.046l70.126-19.412c3.135-.868 6.115-2.196 9.078-3.537 17.474-7.91 42.282-7.81 59.571.298 2.515 1.18 5.041 2.353 7.689 3.193l70.867 22.462s-.381 23.279 0 30.042c.415 7.365-4.246 14.807-13.981 20.429l-60.866 38.067c-18.676 10.784-48.956 10.785-67.633.002l-60.869-38.063z" fill="#fff" stroke="#A6B6D9" stroke-linejoin="bevel"/><path d="M315.282 100.418c-18.381-10.612-18.381-27.82-.001-38.433L377.218 23.3c18.38-10.614 48.181-10.615 66.562-.002l61.939 38.68c18.381 10.613 18.382 27.82.001 38.434l-61.937 38.685c-18.38 10.614-48.181 10.615-66.561.002l-61.94-38.681z" fill="#fff" stroke="#A6B6D9" stroke-linejoin="bevel"/><g clip-path="url(#l)"><path d="M424.857 55.075c-4.252 2.855-11.153 2.867-15.415.026m15.415-.026c4.252-2.856 4.244-7.474-.018-10.315-4.261-2.841-11.163-2.83-15.414.026-4.252 2.856-4.244 7.474.017 10.315m15.415-.026 11.574 7.716m-26.989-7.69-11.547 7.756m0 0c-4.234 2.844-4.226 7.485.018 10.315l11.574 7.716m-11.592-18.031L370.95 80.954c-4.234 2.844-4.226 7.485.018 10.315l11.574 7.716m77.02-31.077 7.716 5.144c2.13 1.42 2.134 3.73.009 5.158l-7.699 5.17c-2.126 1.428-5.576 1.434-7.707.014l-7.716-5.145c-2.131-1.42-2.135-3.73-.009-5.157l7.698-5.17c2.126-1.428 5.577-1.434 7.708-.014zm-26.945 18.097 7.716 5.144c2.131 1.42 2.135 3.73.009 5.158l-7.698 5.17c-2.126 1.428-5.577 1.434-7.707.013l-7.716-5.144c-2.131-1.42-2.135-3.73-.009-5.157l7.698-5.17c2.126-1.428 5.577-1.434 7.707-.014zm-26.944 18.097 7.716 5.144c2.131 1.421 2.135 3.73.009 5.158l-7.698 5.17c-2.126 1.428-5.577 1.434-7.708.013l-7.716-5.144c-2.131-1.42-2.135-3.729-.009-5.157l7.699-5.171c2.126-1.427 5.576-1.433 7.707-.013z" stroke="url(#m)" stroke-width="6" stroke-linecap="round" stroke-linejoin="round"/></g></g><defs><clipPath id="a"><path fill="#fff" transform="matrix(.83205 .5547 -.83014 .55756 419.961 .965)" d="M0 0h510.116v505.892H0z"/></clipPath><clipPath id="l"><path fill="#fff" transform="matrix(.83205 .5547 -.83014 .55756 409.381 19)" d="M0 0h111.283v111.283H0z"/></clipPath><clipPath id="j"><path fill="#fff" transform="matrix(.83205 .5547 -.83014 .55756 674.666 188)" d="M0 0h30.918v30.918H0z"/></clipPath><clipPath id="i"><path fill="#fff" transform="matrix(.83205 .5547 -.83014 .55756 216.666 351)" d="M0 0h30.918v30.918H0z"/></clipPath><clipPath id="f"><path fill="#fff" transform="matrix(.83205 .5547 -.83014 .55756 364.951 161.498)" d="M0 0h50.054v50.054H0z"/></clipPath><clipPath id="d"><path fill="#fff" transform="matrix(.83205 .5547 -.83014 .55756 213.666 121)" d="M0 0h30.918v30.918H0z"/></clipPath><radialGradient id="e" cx="0" cy="0" r="1" gradientUnits="userSpaceOnUse" gradientTransform="matrix(0 157 -242 0 398 261)"><stop stop-color="#A112FF" stop-opacity=".16"/><stop offset="1" stop-color="#A112FF" stop-opacity="0"/></radialGradient><radialGradient id="c" cx="0" cy="0" r="1" gradientUnits="userSpaceOnUse" gradientTransform="rotate(90 34.898 369.076) scale(175.848)"><stop stop-color="#00CBEC" stop-opacity=".2"/><stop offset="1" stop-color="#00CBEC" stop-opacity="0"/></radialGradient><linearGradient id="b" x1="438.5" y1="244" x2="369.914" y2="575.801" gradientUnits="userSpaceOnUse"><stop stop-color="#E4E9F4"/><stop offset="1" stop-color="#586073" stop-opacity="0"/></linearGradient><linearGradient id="m" x1="404.526" y1="48.077" x2="410.351" y2="109.275" gradientUnits="userSpaceOnUse"><stop stop-color="#00CBEC"/><stop offset=".5" stop-color="#A112FF"/><stop offset="1" stop-color="#FF5543"/></linearGradient><filter id="k" x="238" y="-1" width="345" height="258.419" filterUnits="userSpaceOnUse" color-interpolation-filters="sRGB"><feFlood flood-opacity="0" result="BackgroundImageFix"/><feColorMatrix in="SourceAlpha" values="0 0 0 0 0 0 0 0 0 0 0 0 0 0 0 0 0 0 127 0" result="hardAlpha"/><feOffset dy="36"/><feGaussianBlur stdDeviation="22"/><feComposite in2="hardAlpha" operator="out"/><feColorMatrix values="0 0 0 0 0.152941 0 0 0 0 0.027451 0 0 0 0 0.254902 0 0 0 0.07 0"/><feBlend in2="BackgroundImageFix" result="effect1_dropShadow_14824_27288"/><feBlend in="SourceGraphic" in2="effect1_dropShadow_14824_27288" result="shape"/></filter></defs></svg>