<svg xmlns="http://www.w3.org/2000/svg" preserveAspectRatio="xMidyMid slice"><rect x="0%" y="0%" width="100%" height="100%" fill="#fff"/><rect x="0%" y="0%" width="100%" height="100%" fill="url(#a)"/><rect x="0%" y="0%" width="100%" height="100%" fill="url(#b)"/><rect x="0%" y="0%" width="100%" height="100%" fill="url(#c)"/><rect fill="url(#d)" x="0%" y="0%" width="100%" height="100%" mask="url(#e)"/><mask id="e" mask-type="alpha" maskUnits="userSpaceOnUse" x="0" y="0" width="2056" height="710"><path d="M0 710h2047V0H0v710Z" fill="url(#f)"/><path d="M0 0v710h2056V0H0Z" fill="url(#g)"/></mask><defs><linearGradient id="a" x1="100%" y1="50%" x2="0%" y2="50%" gradientUnits="userSpaceOnUse"><stop stop-color="#00CBEC"/><stop offset="1" stop-color="#9CE5FE"/></linearGradient><linearGradient id="b" x1="100%" y1="50%" x2="0%" y2="50%" gradientUnits="userSpaceOnUse"><stop stop-color="#B200F8" stop-opacity=".35"/><stop offset=".358" stop-color="#fff" stop-opacity="0"/><stop offset="1" stop-color="#fff" stop-opacity="0"/></linearGradient><linearGradient id="c" x1="15%" y1="10%" x2="15%" y2="80%" gradientUnits="userSpaceOnUse"><stop stop-color="#FBF0FF" stop-opacity=".85"/><stop offset="1" stop-color="#fff" stop-opacity="0"/></linearGradient><linearGradient id="f" x1="50%" y1="100%" x2="50%" y2="0%" gradientUnits="userSpaceOnUse"><stop offset=".306" stop-color="#fff" stop-opacity="0"/><stop offset=".697" stop-color="#fff" stop-opacity="0"/><stop offset="1"/></linearGradient><linearGradient id="g" x1="0%" y1="50%" x2="100%" y2="50%" gradientUnits="userSpaceOnUse"><stop/><stop offset=".306" stop-color="#fff" stop-opacity="0"/><stop offset=".697" stop-color="#fff" stop-opacity="0"/><stop offset="1"/></linearGradient><pattern id="d" patternUnits="userSpaceOnUse" width="32" height="32"><path d="M0 0h32L0 32V0Z" fill="#B200F8" fill-opacity=".025"/></pattern></defs></svg>