<svg width="570" height="682" fill="none" xmlns="http://www.w3.org/2000/svg"><g opacity=".5"><path d="M421 178h46v44h-39a7 7 0 0 1-7-7v-37Z" fill="url(#a)"/><rect x="421" y="133" width="89" height="89" rx="7" fill="url(#b)"/><path d="M421 140a7 7 0 0 1 7-7h75a7 7 0 0 1 7 7v75a7 7 0 0 1-7 7h-75a7 7 0 0 1-7-7v-75Z" fill="url(#c)"/><path d="M421 293h46v44h-39a7 7 0 0 1-7-7v-37Z" fill="url(#d)"/><rect x="421" y="248" width="89" height="89" rx="7" fill="url(#e)"/><path d="M421 255a7 7 0 0 1 7-7h75a7 7 0 0 1 7 7v75a7 7 0 0 1-7 7h-75a7 7 0 0 1-7-7v-75Z" fill="url(#f)"/><path d="M421 408h46v44h-39a7 7 0 0 1-7-7v-37Z" fill="url(#g)"/><rect x="421" y="363" width="89" height="89" rx="7" fill="url(#h)"/><path d="M421 370a7 7 0 0 1 7-7h75a7 7 0 0 1 7 7v75a7 7 0 0 1-7 7h-75a7 7 0 0 1-7-7v-75Z" fill="url(#i)"/><path d="M421 523h46v44h-39a7 7 0 0 1-7-7v-37Z" fill="url(#j)"/><rect x="421" y="478" width="89" height="89" rx="7" fill="url(#k)"/><path d="M421 485a7 7 0 0 1 7-7h75a7 7 0 0 1 7 7v75a7 7 0 0 1-7 7h-75a7 7 0 0 1-7-7v-75Z" fill="url(#l)"/><path d="M421 638h46v44h-39a7 7 0 0 1-7-7v-37Z" fill="url(#m)"/><rect x="421" y="593" width="89" height="89" rx="7" fill="url(#n)"/><path d="M421 600a7 7 0 0 1 7-7h75a7 7 0 0 1 7 7v75a7 7 0 0 1-7 7h-75a7 7 0 0 1-7-7v-75Z" fill="url(#o)"/></g><circle cx="83" cy="83" r="83" fill="url(#p)"/><rect opacity=".5" x="450" y="293" width="50" height="5" rx="2.5" fill="#fff"/><rect opacity=".5" x="466" y="307" width="74" height="5" rx="2.5" fill="#fff"/><rect opacity=".5" x="466" y="321" width="50" height="5" rx="2.5" fill="#fff"/><rect opacity=".5" x="520" y="321" width="50" height="5" rx="2.5" fill="#fff"/><rect opacity=".5" x="466" y="333" width="60" height="5" rx="2.5" fill="#fff"/><rect opacity=".5" x="450" y="349" width="74" height="5" rx="2.5" fill="#fff"/><rect opacity=".5" x="450" y="177" width="50" height="5" rx="2.5" fill="#fff"/><rect opacity=".5" x="466" y="191" width="74" height="5" rx="2.5" fill="#fff"/><rect opacity=".5" x="466" y="205" width="50" height="5" rx="2.5" fill="#fff"/><rect opacity=".5" x="520" y="205" width="50" height="5" rx="2.5" fill="#fff"/><rect opacity=".5" x="466" y="217" width="60" height="5" rx="2.5" fill="#fff"/><rect opacity=".5" x="450" y="233" width="74" height="5" rx="2.5" fill="#fff"/><rect x="56" y="86" width="72.131" height="7.213" rx="3.607" fill="#fff"/><rect x="79.082" y="106.197" width="106.754" height="7.213" rx="3.607" fill="#fff"/><rect x="79.082" y="126.393" width="72.131" height="7.213" rx="3.607" fill="#fff"/><rect x="156.984" y="126.393" width="72.131" height="7.213" rx="3.607" fill="#fff"/><rect x="79.082" y="143.705" width="86.557" height="7.213" rx="3.607" fill="#fff"/><rect x="56" y="166.787" width="106.754" height="7.213" rx="3.607" fill="#fff"/><rect opacity=".5" x="450" y="401" width="50" height="5" rx="2.5" fill="#fff"/><rect opacity=".5" x="466" y="415" width="74" height="5" rx="2.5" fill="#fff"/><rect opacity=".5" x="466" y="429" width="50" height="5" rx="2.5" fill="#fff"/><rect opacity=".5" x="520" y="429" width="50" height="5" rx="2.5" fill="#fff"/><rect opacity=".5" x="466" y="441" width="60" height="5" rx="2.5" fill="#fff"/><rect opacity=".5" x="450" y="457" width="74" height="5" rx="2.5" fill="#fff"/><rect opacity=".5" x="450" y="523" width="50" height="5" rx="2.5" fill="#fff"/><rect opacity=".5" x="466" y="537" width="74" height="5" rx="2.5" fill="#fff"/><rect opacity=".5" x="466" y="551" width="50" height="5" rx="2.5" fill="#fff"/><rect opacity=".5" x="520" y="551" width="50" height="5" rx="2.5" fill="#fff"/><rect opacity=".5" x="466" y="563" width="60" height="5" rx="2.5" fill="#fff"/><rect opacity=".5" x="450" y="579" width="74" height="5" rx="2.5" fill="#fff"/><path d="M95.002 106C94.55 174.33 199.5 353 413 291.772" stroke="url(#q)" stroke-width="4" stroke-linecap="round" stroke-linejoin="round"/><path d="M95.002 106C94.552 174.33 244 290.5 413 186.5" stroke="url(#r)" stroke-width="4" stroke-linecap="round" stroke-linejoin="round"/><path d="M95.002 106C94.552 262.026 157.52 565.302 413 530.197" stroke="url(#s)" stroke-width="4" stroke-linecap="round" stroke-linejoin="round"/><path d="M95.002 106C94.552 262.026 157.52 565.302 413 530.197" stroke="url(#t)" stroke-width="4" stroke-linecap="round" stroke-linejoin="round"/><path d="M95.002 106C94.552 216.351 157.52 430.846 413 406.017" stroke="url(#u)" stroke-width="4" stroke-linecap="round" stroke-linejoin="round"/><path d="M95.002 106C94.552 262.026 157.52 565.302 413 530.197" stroke="url(#v)" stroke-width="4" stroke-linecap="round" stroke-linejoin="round"/><path d="M95.002 106C94.552 308.432 157.52 701.91 413 656.363" stroke="url(#w)" stroke-width="4" stroke-linecap="round" stroke-linejoin="round"/><defs><linearGradient id="a" x1="444" y1="178" x2="444" y2="222" gradientUnits="userSpaceOnUse"><stop stop-color="#fff" stop-opacity="0"/><stop offset="1" stop-color="#fff"/></linearGradient><linearGradient id="b" x1="465.5" y1="133" x2="465.5" y2="222" gradientUnits="userSpaceOnUse"><stop stop-color="#fff" stop-opacity=".2"/><stop offset="1" stop-color="#fff" stop-opacity=".1"/></linearGradient><linearGradient id="c" x1="465.5" y1="133" x2="465.5" y2="222" gradientUnits="userSpaceOnUse"><stop stop-color="#fff" stop-opacity=".3"/><stop offset=".506" stop-color="#fff" stop-opacity=".5"/><stop offset="1" stop-color="#fff" stop-opacity=".1"/></linearGradient><linearGradient id="d" x1="444" y1="293" x2="444" y2="337" gradientUnits="userSpaceOnUse"><stop stop-color="#fff" stop-opacity="0"/><stop offset="1" stop-color="#fff"/></linearGradient><linearGradient id="e" x1="465.5" y1="248" x2="465.5" y2="337" gradientUnits="userSpaceOnUse"><stop stop-color="#fff" stop-opacity=".2"/><stop offset="1" stop-color="#fff" stop-opacity=".1"/></linearGradient><linearGradient id="f" x1="465.5" y1="248" x2="465.5" y2="337" gradientUnits="userSpaceOnUse"><stop stop-color="#fff" stop-opacity=".3"/><stop offset=".506" stop-color="#fff" stop-opacity=".5"/><stop offset="1" stop-color="#fff" stop-opacity=".1"/></linearGradient><linearGradient id="g" x1="444" y1="408" x2="444" y2="452" gradientUnits="userSpaceOnUse"><stop stop-color="#fff" stop-opacity="0"/><stop offset="1" stop-color="#fff"/></linearGradient><linearGradient id="h" x1="465.5" y1="363" x2="465.5" y2="452" gradientUnits="userSpaceOnUse"><stop stop-color="#fff" stop-opacity=".2"/><stop offset="1" stop-color="#fff" stop-opacity=".1"/></linearGradient><linearGradient id="i" x1="465.5" y1="363" x2="465.5" y2="452" gradientUnits="userSpaceOnUse"><stop stop-color="#fff" stop-opacity=".3"/><stop offset=".506" stop-color="#fff" stop-opacity=".5"/><stop offset="1" stop-color="#fff" stop-opacity=".1"/></linearGradient><linearGradient id="j" x1="444" y1="523" x2="444" y2="567" gradientUnits="userSpaceOnUse"><stop stop-color="#fff" stop-opacity="0"/><stop offset="1" stop-color="#fff"/></linearGradient><linearGradient id="k" x1="465.5" y1="478" x2="465.5" y2="567" gradientUnits="userSpaceOnUse"><stop stop-color="#fff" stop-opacity=".2"/><stop offset="1" stop-color="#fff" stop-opacity=".1"/></linearGradient><linearGradient id="l" x1="465.5" y1="478" x2="465.5" y2="567" gradientUnits="userSpaceOnUse"><stop stop-color="#fff" stop-opacity=".3"/><stop offset=".506" stop-color="#fff" stop-opacity=".5"/><stop offset="1" stop-color="#fff" stop-opacity=".1"/></linearGradient><linearGradient id="m" x1="444" y1="638" x2="444" y2="682" gradientUnits="userSpaceOnUse"><stop stop-color="#fff" stop-opacity="0"/><stop offset="1" stop-color="#fff"/></linearGradient><linearGradient id="n" x1="465.5" y1="593" x2="465.5" y2="682" gradientUnits="userSpaceOnUse"><stop stop-color="#fff" stop-opacity=".2"/><stop offset="1" stop-color="#fff" stop-opacity=".1"/></linearGradient><linearGradient id="o" x1="465.5" y1="593" x2="465.5" y2="682" gradientUnits="userSpaceOnUse"><stop stop-color="#fff" stop-opacity=".3"/><stop offset=".506" stop-color="#fff" stop-opacity=".5"/><stop offset="1" stop-color="#fff" stop-opacity=".1"/></linearGradient><linearGradient id="p" x1="83" y1="0" x2="83" y2="166" gradientUnits="userSpaceOnUse"><stop stop-color="#fff" stop-opacity=".4"/><stop offset="1" stop-color="#fff" stop-opacity=".2"/></linearGradient><linearGradient id="q" x1="417.961" y1="291.28" x2="85.659" y2="151.935" gradientUnits="userSpaceOnUse"><stop stop-color="#fff"/><stop offset="1" stop-color="#fff" stop-opacity="0"/></linearGradient><linearGradient id="r" x1="417.962" y1="291.28" x2="85.659" y2="151.935" gradientUnits="userSpaceOnUse"><stop stop-color="#fff"/><stop offset="1" stop-color="#fff" stop-opacity="0"/></linearGradient><linearGradient id="s" x1="417.962" y1="529.071" x2="39.975" y2="459.657" gradientUnits="userSpaceOnUse"><stop stop-color="#fff"/><stop offset="1" stop-color="#fff" stop-opacity="0"/></linearGradient><linearGradient id="t" x1="417.962" y1="529.071" x2="39.975" y2="459.657" gradientUnits="userSpaceOnUse"><stop stop-color="#fff"/><stop offset="1" stop-color="#fff" stop-opacity="0"/></linearGradient><linearGradient id="u" x1="417.962" y1="405.221" x2="51.907" y2="310.175" gradientUnits="userSpaceOnUse"><stop stop-color="#fff"/><stop offset="1" stop-color="#fff" stop-opacity="0"/></linearGradient><linearGradient id="v" x1="417.962" y1="529.071" x2="39.975" y2="459.657" gradientUnits="userSpaceOnUse"><stop stop-color="#fff"/><stop offset="1" stop-color="#fff" stop-opacity="0"/></linearGradient><linearGradient id="w" x1="417.962" y1="654.903" x2="34.902" y2="600.683" gradientUnits="userSpaceOnUse"><stop stop-color="#fff"/><stop offset="1" stop-color="#fff" stop-opacity="0"/></linearGradient></defs></svg>