<svg width="215" height="311" fill="none" xmlns="http://www.w3.org/2000/svg"><path d="M13.333 142A6.664 6.664 0 0 1 20 148.667a6.668 6.668 0 0 1-11.38 4.714A6.668 6.668 0 0 1 13.332 142Zm0 16.667c7.367 0 13.334 2.983 13.334 6.666v3.334H0v-3.334c0-3.683 5.967-6.666 13.333-6.666Z" fill="#00CBEC"/><path d="M51.333 0h20a3.334 3.334 0 0 1 3.334 3.333V30a3.333 3.333 0 0 1-3.334 3.333h-20A3.333 3.333 0 0 1 48 30V3.333A3.333 3.333 0 0 1 51.333 0Zm11.25 19.167c4.584 0 5.817-3.384 6.134-5.167a3.758 3.758 0 0 0 2.616-3.583 3.734 3.734 0 0 0-3.75-3.75 3.734 3.734 0 0 0-3.75 3.75c0 1.566.95 2.916 2.317 3.466-.367 1.117-1.483 2.784-4.817 2.784-2.3 0-3.9.583-5 1.4V11.45c1.45-.517 2.5-1.9 2.5-3.533a3.734 3.734 0 0 0-3.75-3.75 3.734 3.734 0 0 0-3.75 3.75 3.757 3.757 0 0 0 2.5 3.533v10.433c-1.45.517-2.5 1.9-2.5 3.534a3.734 3.734 0 0 0 3.75 3.75 3.734 3.734 0 0 0 3.75-3.75c0-1.55-.933-2.917-2.283-3.45.467-1.134 1.833-2.8 6.033-2.8Zm-7.5 5a1.25 1.25 0 1 1 0 2.5 1.25 1.25 0 0 1 0-2.5Zm0-17.5a1.25 1.25 0 1 1 0 2.5 1.25 1.25 0 0 1 0-2.5Zm12.5 2.5a1.25 1.25 0 1 1 0 2.5 1.25 1.25 0 0 1 0-2.5ZM51.333 56h20a3.334 3.334 0 0 1 3.334 3.333V86a3.333 3.333 0 0 1-3.334 3.333h-20A3.333 3.333 0 0 1 48 86V59.333A3.333 3.333 0 0 1 51.333 56Zm11.25 19.167c4.584 0 5.817-3.384 6.134-5.167a3.758 3.758 0 0 0 2.616-3.583 3.734 3.734 0 0 0-3.75-3.75 3.734 3.734 0 0 0-3.75 3.75c0 1.566.95 2.916 2.317 3.466-.367 1.117-1.483 2.784-4.817 2.784-2.3 0-3.9.583-5 1.4V67.45c1.45-.517 2.5-1.9 2.5-3.533a3.734 3.734 0 0 0-3.75-3.75 3.734 3.734 0 0 0-3.75 3.75 3.757 3.757 0 0 0 2.5 3.533v10.433c-1.45.517-2.5 1.9-2.5 3.534a3.734 3.734 0 0 0 3.75 3.75 3.734 3.734 0 0 0 3.75-3.75c0-1.55-.933-2.917-2.283-3.45.467-1.134 1.833-2.8 6.033-2.8Zm-7.5 5a1.25 1.25 0 1 1 0 2.5 1.25 1.25 0 0 1 0-2.5Zm0-17.5a1.25 1.25 0 1 1 0 2.5 1.25 1.25 0 0 1 0-2.5Zm12.5 2.5a1.25 1.25 0 1 1 0 2.5 1.25 1.25 0 0 1 0-2.5ZM51.333 111h20a3.334 3.334 0 0 1 3.334 3.333V141a3.333 3.333 0 0 1-3.334 3.333h-20A3.334 3.334 0 0 1 48 141v-26.667A3.333 3.333 0 0 1 51.333 111Zm11.25 19.167c4.584 0 5.817-3.384 6.134-5.167a3.757 3.757 0 0 0 2.616-3.583 3.734 3.734 0 0 0-3.75-3.75 3.734 3.734 0 0 0-3.75 3.75c0 1.566.95 2.916 2.317 3.466-.367 1.117-1.483 2.784-4.817 2.784-2.3 0-3.9.583-5 1.4v-6.617c1.45-.517 2.5-1.9 2.5-3.533a3.734 3.734 0 0 0-3.75-3.75 3.734 3.734 0 0 0-3.75 3.75 3.758 3.758 0 0 0 2.5 3.533v10.433c-1.45.517-2.5 1.9-2.5 3.534a3.735 3.735 0 0 0 3.75 3.75 3.735 3.735 0 0 0 3.75-3.75c0-1.55-.933-2.917-2.283-3.45.467-1.134 1.833-2.8 6.033-2.8Zm-7.5 5a1.247 1.247 0 0 1 1.25 1.25 1.252 1.252 0 0 1-1.25 1.25 1.252 1.252 0 0 1-1.25-1.25 1.249 1.249 0 0 1 1.25-1.25Zm0-17.5a1.247 1.247 0 0 1 1.25 1.25 1.252 1.252 0 0 1-1.25 1.25 1.252 1.252 0 0 1-1.25-1.25 1.249 1.249 0 0 1 1.25-1.25Zm12.5 2.5a1.247 1.247 0 0 1 1.25 1.25 1.252 1.252 0 0 1-1.25 1.25 1.252 1.252 0 0 1-1.25-1.25 1.249 1.249 0 0 1 1.25-1.25ZM51.333 166h20a3.334 3.334 0 0 1 3.334 3.333V196a3.333 3.333 0 0 1-3.334 3.333h-20A3.334 3.334 0 0 1 48 196v-26.667A3.333 3.333 0 0 1 51.333 166Zm11.25 19.167c4.584 0 5.817-3.384 6.134-5.167a3.757 3.757 0 0 0 2.616-3.583 3.734 3.734 0 0 0-3.75-3.75 3.734 3.734 0 0 0-3.75 3.75c0 1.566.95 2.916 2.317 3.466-.367 1.117-1.483 2.784-4.817 2.784-2.3 0-3.9.583-5 1.4v-6.617c1.45-.517 2.5-1.9 2.5-3.533a3.734 3.734 0 0 0-3.75-3.75 3.734 3.734 0 0 0-3.75 3.75 3.758 3.758 0 0 0 2.5 3.533v10.433c-1.45.517-2.5 1.9-2.5 3.534a3.735 3.735 0 0 0 3.75 3.75 3.735 3.735 0 0 0 3.75-3.75c0-1.55-.933-2.917-2.283-3.45.467-1.134 1.833-2.8 6.033-2.8Zm-7.5 5a1.247 1.247 0 0 1 1.25 1.25 1.252 1.252 0 0 1-1.25 1.25 1.252 1.252 0 0 1-1.25-1.25 1.249 1.249 0 0 1 1.25-1.25Zm0-17.5a1.247 1.247 0 0 1 1.25 1.25 1.252 1.252 0 0 1-1.25 1.25 1.252 1.252 0 0 1-1.25-1.25 1.249 1.249 0 0 1 1.25-1.25Zm12.5 2.5a1.247 1.247 0 0 1 1.25 1.25 1.252 1.252 0 0 1-1.25 1.25 1.252 1.252 0 0 1-1.25-1.25 1.249 1.249 0 0 1 1.25-1.25ZM51.333 222h20a3.334 3.334 0 0 1 3.334 3.333V252a3.333 3.333 0 0 1-3.334 3.333h-20A3.334 3.334 0 0 1 48 252v-26.667A3.333 3.333 0 0 1 51.333 222Zm11.25 19.167c4.584 0 5.817-3.384 6.134-5.167a3.757 3.757 0 0 0 2.616-3.583 3.734 3.734 0 0 0-3.75-3.75 3.734 3.734 0 0 0-3.75 3.75c0 1.566.95 2.916 2.317 3.466-.367 1.117-1.483 2.784-4.817 2.784-2.3 0-3.9.583-5 1.4v-6.617c1.45-.517 2.5-1.9 2.5-3.533a3.734 3.734 0 0 0-3.75-3.75 3.734 3.734 0 0 0-3.75 3.75 3.758 3.758 0 0 0 2.5 3.533v10.433c-1.45.517-2.5 1.9-2.5 3.534a3.735 3.735 0 0 0 3.75 3.75 3.735 3.735 0 0 0 3.75-3.75c0-1.55-.933-2.917-2.283-3.45.467-1.134 1.833-2.8 6.033-2.8Zm-7.5 5a1.247 1.247 0 0 1 1.25 1.25 1.252 1.252 0 0 1-1.25 1.25 1.252 1.252 0 0 1-1.25-1.25 1.249 1.249 0 0 1 1.25-1.25Zm0-17.5a1.247 1.247 0 0 1 1.25 1.25 1.252 1.252 0 0 1-1.25 1.25 1.252 1.252 0 0 1-1.25-1.25 1.249 1.249 0 0 1 1.25-1.25Zm12.5 2.5a1.247 1.247 0 0 1 1.25 1.25 1.252 1.252 0 0 1-1.25 1.25 1.252 1.252 0 0 1-1.25-1.25 1.249 1.249 0 0 1 1.25-1.25ZM86.333 0h20a3.333 3.333 0 0 1 3.334 3.333V30a3.334 3.334 0 0 1-3.334 3.333h-20A3.333 3.333 0 0 1 83 30V3.333A3.333 3.333 0 0 1 86.333 0Zm11.25 19.167c4.584 0 5.817-3.384 6.134-5.167a3.758 3.758 0 0 0 2.616-3.583 3.734 3.734 0 0 0-3.75-3.75 3.734 3.734 0 0 0-3.75 3.75c0 1.566.95 2.916 2.317 3.466-.367 1.117-1.483 2.784-4.817 2.784-2.3 0-3.9.583-5 1.4V11.45c1.45-.517 2.5-1.9 2.5-3.533a3.734 3.734 0 0 0-3.75-3.75 3.734 3.734 0 0 0-3.75 3.75 3.757 3.757 0 0 0 2.5 3.533v10.433c-1.45.517-2.5 1.9-2.5 3.534a3.734 3.734 0 0 0 3.75 3.75 3.734 3.734 0 0 0 3.75-3.75c0-1.55-.933-2.917-2.283-3.45.467-1.134 1.833-2.8 6.033-2.8Zm-7.5 5a1.25 1.25 0 1 1 0 2.5 1.25 1.25 0 0 1 0-2.5Zm0-17.5a1.25 1.25 0 1 1 0 2.5 1.25 1.25 0 0 1 0-2.5Zm12.5 2.5a1.249 1.249 0 0 1 .884 2.133 1.248 1.248 0 0 1-2.134-.883 1.252 1.252 0 0 1 1.25-1.25ZM86.333 56h20a3.333 3.333 0 0 1 3.334 3.333V86a3.334 3.334 0 0 1-3.334 3.333h-20A3.333 3.333 0 0 1 83 86V59.333A3.333 3.333 0 0 1 86.333 56Zm11.25 19.167c4.584 0 5.817-3.384 6.134-5.167a3.758 3.758 0 0 0 2.616-3.583 3.734 3.734 0 0 0-3.75-3.75 3.734 3.734 0 0 0-3.75 3.75c0 1.566.95 2.916 2.317 3.466-.367 1.117-1.483 2.784-4.817 2.784-2.3 0-3.9.583-5 1.4V67.45c1.45-.517 2.5-1.9 2.5-3.533a3.734 3.734 0 0 0-3.75-3.75 3.734 3.734 0 0 0-3.75 3.75 3.757 3.757 0 0 0 2.5 3.533v10.433c-1.45.517-2.5 1.9-2.5 3.534a3.734 3.734 0 0 0 3.75 3.75 3.734 3.734 0 0 0 3.75-3.75c0-1.55-.933-2.917-2.283-3.45.467-1.134 1.833-2.8 6.033-2.8Zm-7.5 5a1.25 1.25 0 1 1 0 2.5 1.25 1.25 0 0 1 0-2.5Zm0-17.5a1.25 1.25 0 1 1 0 2.5 1.25 1.25 0 0 1 0-2.5Zm12.5 2.5a1.249 1.249 0 1 1 0 2.5 1.252 1.252 0 0 1-1.25-1.25 1.252 1.252 0 0 1 1.25-1.25ZM86.333 111h20a3.333 3.333 0 0 1 3.334 3.333V141a3.334 3.334 0 0 1-3.334 3.333h-20A3.334 3.334 0 0 1 83 141v-26.667A3.333 3.333 0 0 1 86.333 111Zm11.25 19.167c4.584 0 5.817-3.384 6.134-5.167a3.757 3.757 0 0 0 2.616-3.583 3.734 3.734 0 0 0-3.75-3.75 3.734 3.734 0 0 0-3.75 3.75c0 1.566.95 2.916 2.317 3.466-.367 1.117-1.483 2.784-4.817 2.784-2.3 0-3.9.583-5 1.4v-6.617c1.45-.517 2.5-1.9 2.5-3.533a3.734 3.734 0 0 0-3.75-3.75 3.734 3.734 0 0 0-3.75 3.75 3.758 3.758 0 0 0 2.5 3.533v10.433c-1.45.517-2.5 1.9-2.5 3.534a3.735 3.735 0 0 0 3.75 3.75 3.735 3.735 0 0 0 3.75-3.75c0-1.55-.933-2.917-2.283-3.45.467-1.134 1.833-2.8 6.033-2.8Zm-7.5 5a1.247 1.247 0 0 1 1.25 1.25 1.252 1.252 0 0 1-1.25 1.25 1.252 1.252 0 0 1-1.25-1.25 1.249 1.249 0 0 1 1.25-1.25Zm0-17.5a1.247 1.247 0 0 1 1.25 1.25 1.252 1.252 0 0 1-1.25 1.25 1.252 1.252 0 0 1-1.25-1.25 1.249 1.249 0 0 1 1.25-1.25Zm12.5 2.5a1.246 1.246 0 0 1 1.25 1.25 1.25 1.25 0 1 1-1.25-1.25ZM86.333 166h20a3.333 3.333 0 0 1 3.334 3.333V196a3.334 3.334 0 0 1-3.334 3.333h-20A3.334 3.334 0 0 1 83 196v-26.667A3.333 3.333 0 0 1 86.333 166Zm11.25 19.167c4.584 0 5.817-3.384 6.134-5.167a3.757 3.757 0 0 0 2.616-3.583 3.734 3.734 0 0 0-3.75-3.75 3.734 3.734 0 0 0-3.75 3.75c0 1.566.95 2.916 2.317 3.466-.367 1.117-1.483 2.784-4.817 2.784-2.3 0-3.9.583-5 1.4v-6.617c1.45-.517 2.5-1.9 2.5-3.533a3.734 3.734 0 0 0-3.75-3.75 3.734 3.734 0 0 0-3.75 3.75 3.758 3.758 0 0 0 2.5 3.533v10.433c-1.45.517-2.5 1.9-2.5 3.534a3.735 3.735 0 0 0 3.75 3.75 3.735 3.735 0 0 0 3.75-3.75c0-1.55-.933-2.917-2.283-3.45.467-1.134 1.833-2.8 6.033-2.8Zm-7.5 5a1.247 1.247 0 0 1 1.25 1.25 1.252 1.252 0 0 1-1.25 1.25 1.252 1.252 0 0 1-1.25-1.25 1.249 1.249 0 0 1 1.25-1.25Zm0-17.5a1.247 1.247 0 0 1 1.25 1.25 1.252 1.252 0 0 1-1.25 1.25 1.252 1.252 0 0 1-1.25-1.25 1.249 1.249 0 0 1 1.25-1.25Zm12.5 2.5a1.246 1.246 0 0 1 1.25 1.25 1.25 1.25 0 1 1-1.25-1.25ZM86.333 222h20a3.333 3.333 0 0 1 3.334 3.333V252a3.334 3.334 0 0 1-3.334 3.333h-20A3.334 3.334 0 0 1 83 252v-26.667A3.333 3.333 0 0 1 86.333 222Zm11.25 19.167c4.584 0 5.817-3.384 6.134-5.167a3.757 3.757 0 0 0 2.616-3.583 3.734 3.734 0 0 0-3.75-3.75 3.734 3.734 0 0 0-3.75 3.75c0 1.566.95 2.916 2.317 3.466-.367 1.117-1.483 2.784-4.817 2.784-2.3 0-3.9.583-5 1.4v-6.617c1.45-.517 2.5-1.9 2.5-3.533a3.734 3.734 0 0 0-3.75-3.75 3.734 3.734 0 0 0-3.75 3.75 3.758 3.758 0 0 0 2.5 3.533v10.433c-1.45.517-2.5 1.9-2.5 3.534a3.735 3.735 0 0 0 3.75 3.75 3.735 3.735 0 0 0 3.75-3.75c0-1.55-.933-2.917-2.283-3.45.467-1.134 1.833-2.8 6.033-2.8Zm-7.5 5a1.247 1.247 0 0 1 1.25 1.25 1.252 1.252 0 0 1-1.25 1.25 1.252 1.252 0 0 1-1.25-1.25 1.249 1.249 0 0 1 1.25-1.25Zm0-17.5a1.247 1.247 0 0 1 1.25 1.25 1.252 1.252 0 0 1-1.25 1.25 1.252 1.252 0 0 1-1.25-1.25 1.249 1.249 0 0 1 1.25-1.25Zm12.5 2.5a1.246 1.246 0 0 1 1.25 1.25 1.25 1.25 0 1 1-1.25-1.25ZM121.333 0h20a3.333 3.333 0 0 1 3.334 3.333V30a3.334 3.334 0 0 1-3.334 3.333h-20A3.333 3.333 0 0 1 118 30V3.333A3.334 3.334 0 0 1 121.333 0Zm11.25 19.167c4.584 0 5.817-3.384 6.134-5.167a3.758 3.758 0 0 0 2.616-3.583 3.734 3.734 0 0 0-3.75-3.75 3.735 3.735 0 0 0-3.75 3.75c0 1.566.95 2.916 2.317 3.466-.367 1.117-1.483 2.784-4.817 2.784-2.3 0-3.9.583-5 1.4V11.45c1.45-.517 2.5-1.9 2.5-3.533a3.734 3.734 0 0 0-3.75-3.75 3.735 3.735 0 0 0-3.75 3.75 3.757 3.757 0 0 0 2.5 3.533v10.433c-1.45.517-2.5 1.9-2.5 3.534a3.735 3.735 0 0 0 3.75 3.75 3.734 3.734 0 0 0 3.75-3.75c0-1.55-.933-2.917-2.283-3.45.467-1.134 1.833-2.8 6.033-2.8Zm-7.5 5a1.249 1.249 0 1 1 0 2.5 1.252 1.252 0 0 1-1.25-1.25 1.252 1.252 0 0 1 1.25-1.25Zm0-17.5a1.249 1.249 0 0 1 .884 2.134 1.249 1.249 0 0 1-2.134-.884 1.252 1.252 0 0 1 1.25-1.25Zm12.5 2.5a1.249 1.249 0 0 1 .884 2.133 1.248 1.248 0 0 1-2.134-.883 1.252 1.252 0 0 1 1.25-1.25ZM121.333 56h20a3.333 3.333 0 0 1 3.334 3.333V86a3.334 3.334 0 0 1-3.334 3.333h-20A3.333 3.333 0 0 1 118 86V59.333A3.334 3.334 0 0 1 121.333 56Zm11.25 19.167c4.584 0 5.817-3.384 6.134-5.167a3.758 3.758 0 0 0 2.616-3.583 3.734 3.734 0 0 0-3.75-3.75 3.735 3.735 0 0 0-3.75 3.75c0 1.566.95 2.916 2.317 3.466-.367 1.117-1.483 2.784-4.817 2.784-2.3 0-3.9.583-5 1.4V67.45c1.45-.517 2.5-1.9 2.5-3.533a3.734 3.734 0 0 0-3.75-3.75 3.735 3.735 0 0 0-3.75 3.75 3.757 3.757 0 0 0 2.5 3.533v10.433c-1.45.517-2.5 1.9-2.5 3.534a3.735 3.735 0 0 0 3.75 3.75 3.734 3.734 0 0 0 3.75-3.75c0-1.55-.933-2.917-2.283-3.45.467-1.134 1.833-2.8 6.033-2.8Zm-7.5 5a1.249 1.249 0 1 1 0 2.5 1.252 1.252 0 0 1-1.25-1.25 1.252 1.252 0 0 1 1.25-1.25Zm0-17.5a1.249 1.249 0 1 1 0 2.5 1.252 1.252 0 0 1-1.25-1.25 1.252 1.252 0 0 1 1.25-1.25Zm12.5 2.5a1.249 1.249 0 1 1 0 2.5 1.252 1.252 0 0 1-1.25-1.25 1.252 1.252 0 0 1 1.25-1.25ZM121.333 111h20a3.333 3.333 0 0 1 3.334 3.333V141a3.334 3.334 0 0 1-3.334 3.333h-20A3.333 3.333 0 0 1 118 141v-26.667a3.333 3.333 0 0 1 3.333-3.333Zm11.25 19.167c4.584 0 5.817-3.384 6.134-5.167a3.757 3.757 0 0 0 2.616-3.583 3.734 3.734 0 0 0-3.75-3.75 3.734 3.734 0 0 0-3.75 3.75c0 1.566.95 2.916 2.317 3.466-.367 1.117-1.483 2.784-4.817 2.784-2.3 0-3.9.583-5 1.4v-6.617c1.45-.517 2.5-1.9 2.5-3.533a3.734 3.734 0 0 0-3.75-3.75 3.734 3.734 0 0 0-3.75 3.75 3.758 3.758 0 0 0 2.5 3.533v10.433c-1.45.517-2.5 1.9-2.5 3.534a3.735 3.735 0 0 0 3.75 3.75 3.734 3.734 0 0 0 3.75-3.75c0-1.55-.933-2.917-2.283-3.45.467-1.134 1.833-2.8 6.033-2.8Zm-7.5 5a1.246 1.246 0 0 1 1.25 1.25 1.25 1.25 0 1 1-1.25-1.25Zm0-17.5a1.246 1.246 0 0 1 1.25 1.25 1.25 1.25 0 1 1-1.25-1.25Zm12.5 2.5a1.246 1.246 0 0 1 1.25 1.25 1.25 1.25 0 1 1-1.25-1.25ZM121.333 166h20a3.333 3.333 0 0 1 3.334 3.333V196a3.334 3.334 0 0 1-3.334 3.333h-20A3.333 3.333 0 0 1 118 196v-26.667a3.333 3.333 0 0 1 3.333-3.333Zm11.25 19.167c4.584 0 5.817-3.384 6.134-5.167a3.757 3.757 0 0 0 2.616-3.583 3.734 3.734 0 0 0-3.75-3.75 3.734 3.734 0 0 0-3.75 3.75c0 1.566.95 2.916 2.317 3.466-.367 1.117-1.483 2.784-4.817 2.784-2.3 0-3.9.583-5 1.4v-6.617c1.45-.517 2.5-1.9 2.5-3.533a3.734 3.734 0 0 0-3.75-3.75 3.734 3.734 0 0 0-3.75 3.75 3.758 3.758 0 0 0 2.5 3.533v10.433c-1.45.517-2.5 1.9-2.5 3.534a3.735 3.735 0 0 0 3.75 3.75 3.734 3.734 0 0 0 3.75-3.75c0-1.55-.933-2.917-2.283-3.45.467-1.134 1.833-2.8 6.033-2.8Zm-7.5 5a1.246 1.246 0 0 1 1.25 1.25 1.25 1.25 0 1 1-1.25-1.25Zm0-17.5a1.246 1.246 0 0 1 1.25 1.25 1.25 1.25 0 1 1-1.25-1.25Zm12.5 2.5a1.246 1.246 0 0 1 1.25 1.25 1.25 1.25 0 1 1-1.25-1.25ZM121.333 222h20a3.333 3.333 0 0 1 3.334 3.333V252a3.334 3.334 0 0 1-3.334 3.333h-20A3.333 3.333 0 0 1 118 252v-26.667a3.333 3.333 0 0 1 3.333-3.333Zm11.25 19.167c4.584 0 5.817-3.384 6.134-5.167a3.757 3.757 0 0 0 2.616-3.583 3.734 3.734 0 0 0-3.75-3.75 3.734 3.734 0 0 0-3.75 3.75c0 1.566.95 2.916 2.317 3.466-.367 1.117-1.483 2.784-4.817 2.784-2.3 0-3.9.583-5 1.4v-6.617c1.45-.517 2.5-1.9 2.5-3.533a3.734 3.734 0 0 0-3.75-3.75 3.734 3.734 0 0 0-3.75 3.75 3.758 3.758 0 0 0 2.5 3.533v10.433c-1.45.517-2.5 1.9-2.5 3.534a3.735 3.735 0 0 0 3.75 3.75 3.734 3.734 0 0 0 3.75-3.75c0-1.55-.933-2.917-2.283-3.45.467-1.134 1.833-2.8 6.033-2.8Zm-7.5 5a1.246 1.246 0 0 1 1.25 1.25 1.25 1.25 0 1 1-1.25-1.25Zm0-17.5a1.246 1.246 0 0 1 1.25 1.25 1.25 1.25 0 1 1-1.25-1.25Zm12.5 2.5a1.246 1.246 0 0 1 1.25 1.25 1.25 1.25 0 1 1-1.25-1.25ZM156.333 0h20a3.333 3.333 0 0 1 3.334 3.333V30a3.334 3.334 0 0 1-3.334 3.333h-20A3.333 3.333 0 0 1 153 30V3.333A3.334 3.334 0 0 1 156.333 0Zm11.25 19.167c4.584 0 5.817-3.384 6.134-5.167a3.758 3.758 0 0 0 2.616-3.583 3.734 3.734 0 0 0-3.75-3.75 3.735 3.735 0 0 0-3.75 3.75c0 1.566.95 2.916 2.317 3.466-.367 1.117-1.483 2.784-4.817 2.784-2.3 0-3.9.583-5 1.4V11.45c1.45-.517 2.5-1.9 2.5-3.533a3.734 3.734 0 0 0-3.75-3.75 3.735 3.735 0 0 0-3.75 3.75 3.757 3.757 0 0 0 2.5 3.533v10.433c-1.45.517-2.5 1.9-2.5 3.534a3.735 3.735 0 0 0 3.75 3.75 3.734 3.734 0 0 0 3.75-3.75c0-1.55-.933-2.917-2.283-3.45.467-1.134 1.833-2.8 6.033-2.8Zm-7.5 5a1.249 1.249 0 1 1 0 2.5 1.252 1.252 0 0 1-1.25-1.25 1.252 1.252 0 0 1 1.25-1.25Zm0-17.5a1.249 1.249 0 0 1 .884 2.134 1.249 1.249 0 0 1-2.134-.884 1.252 1.252 0 0 1 1.25-1.25Zm12.5 2.5a1.249 1.249 0 0 1 .884 2.133 1.248 1.248 0 0 1-2.134-.883 1.252 1.252 0 0 1 1.25-1.25ZM156.333 56h20a3.333 3.333 0 0 1 3.334 3.333V86a3.334 3.334 0 0 1-3.334 3.333h-20A3.333 3.333 0 0 1 153 86V59.333A3.334 3.334 0 0 1 156.333 56Zm11.25 19.167c4.584 0 5.817-3.384 6.134-5.167a3.758 3.758 0 0 0 2.616-3.583 3.734 3.734 0 0 0-3.75-3.75 3.735 3.735 0 0 0-3.75 3.75c0 1.566.95 2.916 2.317 3.466-.367 1.117-1.483 2.784-4.817 2.784-2.3 0-3.9.583-5 1.4V67.45c1.45-.517 2.5-1.9 2.5-3.533a3.734 3.734 0 0 0-3.75-3.75 3.735 3.735 0 0 0-3.75 3.75 3.757 3.757 0 0 0 2.5 3.533v10.433c-1.45.517-2.5 1.9-2.5 3.534a3.735 3.735 0 0 0 3.75 3.75 3.734 3.734 0 0 0 3.75-3.75c0-1.55-.933-2.917-2.283-3.45.467-1.134 1.833-2.8 6.033-2.8Zm-7.5 5a1.249 1.249 0 1 1 0 2.5 1.252 1.252 0 0 1-1.25-1.25 1.252 1.252 0 0 1 1.25-1.25Zm0-17.5a1.249 1.249 0 1 1 0 2.5 1.252 1.252 0 0 1-1.25-1.25 1.252 1.252 0 0 1 1.25-1.25Zm12.5 2.5a1.249 1.249 0 1 1 0 2.5 1.252 1.252 0 0 1-1.25-1.25 1.252 1.252 0 0 1 1.25-1.25ZM156.333 111h20a3.333 3.333 0 0 1 3.334 3.333V141a3.334 3.334 0 0 1-3.334 3.333h-20A3.333 3.333 0 0 1 153 141v-26.667a3.333 3.333 0 0 1 3.333-3.333Zm11.25 19.167c4.584 0 5.817-3.384 6.134-5.167a3.757 3.757 0 0 0 2.616-3.583 3.734 3.734 0 0 0-3.75-3.75 3.734 3.734 0 0 0-3.75 3.75c0 1.566.95 2.916 2.317 3.466-.367 1.117-1.483 2.784-4.817 2.784-2.3 0-3.9.583-5 1.4v-6.617c1.45-.517 2.5-1.9 2.5-3.533a3.734 3.734 0 0 0-3.75-3.75 3.734 3.734 0 0 0-3.75 3.75 3.758 3.758 0 0 0 2.5 3.533v10.433c-1.45.517-2.5 1.9-2.5 3.534a3.735 3.735 0 0 0 3.75 3.75 3.734 3.734 0 0 0 3.75-3.75c0-1.55-.933-2.917-2.283-3.45.467-1.134 1.833-2.8 6.033-2.8Zm-7.5 5a1.246 1.246 0 0 1 1.25 1.25 1.25 1.25 0 1 1-1.25-1.25Zm0-17.5a1.246 1.246 0 0 1 1.25 1.25 1.25 1.25 0 1 1-1.25-1.25Zm12.5 2.5a1.246 1.246 0 0 1 1.25 1.25 1.25 1.25 0 1 1-1.25-1.25ZM156.333 166h20a3.333 3.333 0 0 1 3.334 3.333V196a3.334 3.334 0 0 1-3.334 3.333h-20A3.333 3.333 0 0 1 153 196v-26.667a3.333 3.333 0 0 1 3.333-3.333Zm11.25 19.167c4.584 0 5.817-3.384 6.134-5.167a3.757 3.757 0 0 0 2.616-3.583 3.734 3.734 0 0 0-3.75-3.75 3.734 3.734 0 0 0-3.75 3.75c0 1.566.95 2.916 2.317 3.466-.367 1.117-1.483 2.784-4.817 2.784-2.3 0-3.9.583-5 1.4v-6.617c1.45-.517 2.5-1.9 2.5-3.533a3.734 3.734 0 0 0-3.75-3.75 3.734 3.734 0 0 0-3.75 3.75 3.758 3.758 0 0 0 2.5 3.533v10.433c-1.45.517-2.5 1.9-2.5 3.534a3.735 3.735 0 0 0 3.75 3.75 3.734 3.734 0 0 0 3.75-3.75c0-1.55-.933-2.917-2.283-3.45.467-1.134 1.833-2.8 6.033-2.8Zm-7.5 5a1.246 1.246 0 0 1 1.25 1.25 1.25 1.25 0 1 1-1.25-1.25Zm0-17.5a1.246 1.246 0 0 1 1.25 1.25 1.25 1.25 0 1 1-1.25-1.25Zm12.5 2.5a1.246 1.246 0 0 1 1.25 1.25 1.25 1.25 0 1 1-1.25-1.25ZM156.333 222h20a3.333 3.333 0 0 1 3.334 3.333V252a3.334 3.334 0 0 1-3.334 3.333h-20A3.333 3.333 0 0 1 153 252v-26.667a3.333 3.333 0 0 1 3.333-3.333Zm11.25 19.167c4.584 0 5.817-3.384 6.134-5.167a3.757 3.757 0 0 0 2.616-3.583 3.734 3.734 0 0 0-3.75-3.75 3.734 3.734 0 0 0-3.75 3.75c0 1.566.95 2.916 2.317 3.466-.367 1.117-1.483 2.784-4.817 2.784-2.3 0-3.9.583-5 1.4v-6.617c1.45-.517 2.5-1.9 2.5-3.533a3.734 3.734 0 0 0-3.75-3.75 3.734 3.734 0 0 0-3.75 3.75 3.758 3.758 0 0 0 2.5 3.533v10.433c-1.45.517-2.5 1.9-2.5 3.534a3.735 3.735 0 0 0 3.75 3.75 3.734 3.734 0 0 0 3.75-3.75c0-1.55-.933-2.917-2.283-3.45.467-1.134 1.833-2.8 6.033-2.8Zm-7.5 5a1.246 1.246 0 0 1 1.25 1.25 1.25 1.25 0 1 1-1.25-1.25Zm0-17.5a1.246 1.246 0 0 1 1.25 1.25 1.25 1.25 0 1 1-1.25-1.25Zm12.5 2.5a1.246 1.246 0 0 1 1.25 1.25 1.25 1.25 0 1 1-1.25-1.25ZM191.333 0h20a3.333 3.333 0 0 1 3.334 3.333V30a3.334 3.334 0 0 1-3.334 3.333h-20A3.333 3.333 0 0 1 188 30V3.333A3.334 3.334 0 0 1 191.333 0Zm11.25 19.167c4.584 0 5.817-3.384 6.134-5.167a3.758 3.758 0 0 0 2.616-3.583 3.734 3.734 0 0 0-3.75-3.75 3.735 3.735 0 0 0-3.75 3.75c0 1.566.95 2.916 2.317 3.466-.367 1.117-1.483 2.784-4.817 2.784-2.3 0-3.9.583-5 1.4V11.45c1.45-.517 2.5-1.9 2.5-3.533a3.734 3.734 0 0 0-3.75-3.75 3.735 3.735 0 0 0-3.75 3.75 3.757 3.757 0 0 0 2.5 3.533v10.433c-1.45.517-2.5 1.9-2.5 3.534a3.735 3.735 0 0 0 3.75 3.75 3.734 3.734 0 0 0 3.75-3.75c0-1.55-.933-2.917-2.283-3.45.467-1.134 1.833-2.8 6.033-2.8Zm-7.5 5a1.249 1.249 0 1 1 0 2.5 1.252 1.252 0 0 1-1.25-1.25 1.252 1.252 0 0 1 1.25-1.25Zm0-17.5a1.249 1.249 0 0 1 .884 2.134 1.249 1.249 0 0 1-2.134-.884 1.252 1.252 0 0 1 1.25-1.25Zm12.5 2.5a1.249 1.249 0 0 1 .884 2.133 1.248 1.248 0 0 1-2.134-.883 1.252 1.252 0 0 1 1.25-1.25ZM191.333 56h20a3.333 3.333 0 0 1 3.334 3.333V86a3.334 3.334 0 0 1-3.334 3.333h-20A3.333 3.333 0 0 1 188 86V59.333A3.334 3.334 0 0 1 191.333 56Zm11.25 19.167c4.584 0 5.817-3.384 6.134-5.167a3.758 3.758 0 0 0 2.616-3.583 3.734 3.734 0 0 0-3.75-3.75 3.735 3.735 0 0 0-3.75 3.75c0 1.566.95 2.916 2.317 3.466-.367 1.117-1.483 2.784-4.817 2.784-2.3 0-3.9.583-5 1.4V67.45c1.45-.517 2.5-1.9 2.5-3.533a3.734 3.734 0 0 0-3.75-3.75 3.735 3.735 0 0 0-3.75 3.75 3.757 3.757 0 0 0 2.5 3.533v10.433c-1.45.517-2.5 1.9-2.5 3.534a3.735 3.735 0 0 0 3.75 3.75 3.734 3.734 0 0 0 3.75-3.75c0-1.55-.933-2.917-2.283-3.45.467-1.134 1.833-2.8 6.033-2.8Zm-7.5 5a1.249 1.249 0 1 1 0 2.5 1.252 1.252 0 0 1-1.25-1.25 1.252 1.252 0 0 1 1.25-1.25Zm0-17.5a1.249 1.249 0 1 1 0 2.5 1.252 1.252 0 0 1-1.25-1.25 1.252 1.252 0 0 1 1.25-1.25Zm12.5 2.5a1.249 1.249 0 1 1 0 2.5 1.252 1.252 0 0 1-1.25-1.25 1.252 1.252 0 0 1 1.25-1.25ZM191.333 111h20a3.333 3.333 0 0 1 3.334 3.333V141a3.334 3.334 0 0 1-3.334 3.333h-20A3.333 3.333 0 0 1 188 141v-26.667a3.333 3.333 0 0 1 3.333-3.333Zm11.25 19.167c4.584 0 5.817-3.384 6.134-5.167a3.757 3.757 0 0 0 2.616-3.583 3.734 3.734 0 0 0-3.75-3.75 3.734 3.734 0 0 0-3.75 3.75c0 1.566.95 2.916 2.317 3.466-.367 1.117-1.483 2.784-4.817 2.784-2.3 0-3.9.583-5 1.4v-6.617c1.45-.517 2.5-1.9 2.5-3.533a3.734 3.734 0 0 0-3.75-3.75 3.734 3.734 0 0 0-3.75 3.75 3.758 3.758 0 0 0 2.5 3.533v10.433c-1.45.517-2.5 1.9-2.5 3.534a3.735 3.735 0 0 0 3.75 3.75 3.734 3.734 0 0 0 3.75-3.75c0-1.55-.933-2.917-2.283-3.45.467-1.134 1.833-2.8 6.033-2.8Zm-7.5 5a1.246 1.246 0 0 1 1.25 1.25 1.25 1.25 0 1 1-1.25-1.25Zm0-17.5a1.246 1.246 0 0 1 1.25 1.25 1.25 1.25 0 1 1-1.25-1.25Zm12.5 2.5a1.246 1.246 0 0 1 1.25 1.25 1.25 1.25 0 1 1-1.25-1.25ZM191.333 166h20a3.333 3.333 0 0 1 3.334 3.333V196a3.334 3.334 0 0 1-3.334 3.333h-20A3.333 3.333 0 0 1 188 196v-26.667a3.333 3.333 0 0 1 3.333-3.333Zm11.25 19.167c4.584 0 5.817-3.384 6.134-5.167a3.757 3.757 0 0 0 2.616-3.583 3.734 3.734 0 0 0-3.75-3.75 3.734 3.734 0 0 0-3.75 3.75c0 1.566.95 2.916 2.317 3.466-.367 1.117-1.483 2.784-4.817 2.784-2.3 0-3.9.583-5 1.4v-6.617c1.45-.517 2.5-1.9 2.5-3.533a3.734 3.734 0 0 0-3.75-3.75 3.734 3.734 0 0 0-3.75 3.75 3.758 3.758 0 0 0 2.5 3.533v10.433c-1.45.517-2.5 1.9-2.5 3.534a3.735 3.735 0 0 0 3.75 3.75 3.734 3.734 0 0 0 3.75-3.75c0-1.55-.933-2.917-2.283-3.45.467-1.134 1.833-2.8 6.033-2.8Zm-7.5 5a1.246 1.246 0 0 1 1.25 1.25 1.25 1.25 0 1 1-1.25-1.25Zm0-17.5a1.246 1.246 0 0 1 1.25 1.25 1.25 1.25 0 1 1-1.25-1.25Zm12.5 2.5a1.246 1.246 0 0 1 1.25 1.25 1.25 1.25 0 1 1-1.25-1.25ZM191.333 222h20a3.333 3.333 0 0 1 3.334 3.333V252a3.334 3.334 0 0 1-3.334 3.333h-20A3.333 3.333 0 0 1 188 252v-26.667a3.333 3.333 0 0 1 3.333-3.333Zm11.25 19.167c4.584 0 5.817-3.384 6.134-5.167a3.757 3.757 0 0 0 2.616-3.583 3.734 3.734 0 0 0-3.75-3.75 3.734 3.734 0 0 0-3.75 3.75c0 1.566.95 2.916 2.317 3.466-.367 1.117-1.483 2.784-4.817 2.784-2.3 0-3.9.583-5 1.4v-6.617c1.45-.517 2.5-1.9 2.5-3.533a3.734 3.734 0 0 0-3.75-3.75 3.734 3.734 0 0 0-3.75 3.75 3.758 3.758 0 0 0 2.5 3.533v10.433c-1.45.517-2.5 1.9-2.5 3.534a3.735 3.735 0 0 0 3.75 3.75 3.734 3.734 0 0 0 3.75-3.75c0-1.55-.933-2.917-2.283-3.45.467-1.134 1.833-2.8 6.033-2.8Zm-7.5 5a1.246 1.246 0 0 1 1.25 1.25 1.25 1.25 0 1 1-1.25-1.25Zm0-17.5a1.246 1.246 0 0 1 1.25 1.25 1.25 1.25 0 1 1-1.25-1.25Zm12.5 2.5a1.246 1.246 0 0 1 1.25 1.25 1.25 1.25 0 1 1-1.25-1.25ZM51.333 277h20a3.334 3.334 0 0 1 3.334 3.333V307a3.333 3.333 0 0 1-3.334 3.333h-20A3.334 3.334 0 0 1 48 307v-26.667A3.333 3.333 0 0 1 51.333 277Zm11.25 19.167c4.584 0 5.817-3.384 6.134-5.167a3.757 3.757 0 0 0 2.616-3.583 3.734 3.734 0 0 0-3.75-3.75 3.734 3.734 0 0 0-3.75 3.75c0 1.566.95 2.916 2.317 3.466-.367 1.117-1.483 2.784-4.817 2.784-2.3 0-3.9.583-5 1.4v-6.617c1.45-.517 2.5-1.9 2.5-3.533a3.734 3.734 0 0 0-3.75-3.75 3.734 3.734 0 0 0-3.75 3.75 3.758 3.758 0 0 0 2.5 3.533v10.433c-1.45.517-2.5 1.9-2.5 3.534a3.735 3.735 0 0 0 3.75 3.75 3.735 3.735 0 0 0 3.75-3.75c0-1.55-.933-2.917-2.283-3.45.467-1.134 1.833-2.8 6.033-2.8Zm-7.5 5a1.247 1.247 0 0 1 1.25 1.25 1.252 1.252 0 0 1-1.25 1.25 1.252 1.252 0 0 1-1.25-1.25 1.249 1.249 0 0 1 1.25-1.25Zm0-17.5a1.247 1.247 0 0 1 1.25 1.25 1.252 1.252 0 0 1-1.25 1.25 1.252 1.252 0 0 1-1.25-1.25 1.249 1.249 0 0 1 1.25-1.25Zm12.5 2.5a1.247 1.247 0 0 1 1.25 1.25 1.252 1.252 0 0 1-1.25 1.25 1.252 1.252 0 0 1-1.25-1.25 1.249 1.249 0 0 1 1.25-1.25ZM86.333 277h20a3.333 3.333 0 0 1 3.334 3.333V307a3.334 3.334 0 0 1-3.334 3.333h-20A3.334 3.334 0 0 1 83 307v-26.667A3.333 3.333 0 0 1 86.333 277Zm11.25 19.167c4.584 0 5.817-3.384 6.134-5.167a3.757 3.757 0 0 0 2.616-3.583 3.734 3.734 0 0 0-3.75-3.75 3.734 3.734 0 0 0-3.75 3.75c0 1.566.95 2.916 2.317 3.466-.367 1.117-1.483 2.784-4.817 2.784-2.3 0-3.9.583-5 1.4v-6.617c1.45-.517 2.5-1.9 2.5-3.533a3.734 3.734 0 0 0-3.75-3.75 3.734 3.734 0 0 0-3.75 3.75 3.758 3.758 0 0 0 2.5 3.533v10.433c-1.45.517-2.5 1.9-2.5 3.534a3.735 3.735 0 0 0 3.75 3.75 3.735 3.735 0 0 0 3.75-3.75c0-1.55-.933-2.917-2.283-3.45.467-1.134 1.833-2.8 6.033-2.8Zm-7.5 5a1.247 1.247 0 0 1 1.25 1.25 1.252 1.252 0 0 1-1.25 1.25 1.252 1.252 0 0 1-1.25-1.25 1.249 1.249 0 0 1 1.25-1.25Zm0-17.5a1.247 1.247 0 0 1 1.25 1.25 1.252 1.252 0 0 1-1.25 1.25 1.252 1.252 0 0 1-1.25-1.25 1.249 1.249 0 0 1 1.25-1.25Zm12.5 2.5a1.246 1.246 0 0 1 1.25 1.25 1.25 1.25 0 1 1-1.25-1.25ZM121.333 277h20a3.333 3.333 0 0 1 3.334 3.333V307a3.334 3.334 0 0 1-3.334 3.333h-20A3.333 3.333 0 0 1 118 307v-26.667a3.333 3.333 0 0 1 3.333-3.333Zm11.25 19.167c4.584 0 5.817-3.384 6.134-5.167a3.757 3.757 0 0 0 2.616-3.583 3.734 3.734 0 0 0-3.75-3.75 3.734 3.734 0 0 0-3.75 3.75c0 1.566.95 2.916 2.317 3.466-.367 1.117-1.483 2.784-4.817 2.784-2.3 0-3.9.583-5 1.4v-6.617c1.45-.517 2.5-1.9 2.5-3.533a3.734 3.734 0 0 0-3.75-3.75 3.734 3.734 0 0 0-3.75 3.75 3.758 3.758 0 0 0 2.5 3.533v10.433c-1.45.517-2.5 1.9-2.5 3.534a3.735 3.735 0 0 0 3.75 3.75 3.734 3.734 0 0 0 3.75-3.75c0-1.55-.933-2.917-2.283-3.45.467-1.134 1.833-2.8 6.033-2.8Zm-7.5 5a1.246 1.246 0 0 1 1.25 1.25 1.25 1.25 0 1 1-1.25-1.25Zm0-17.5a1.246 1.246 0 0 1 1.25 1.25 1.25 1.25 0 1 1-1.25-1.25Zm12.5 2.5a1.246 1.246 0 0 1 1.25 1.25 1.25 1.25 0 1 1-1.25-1.25ZM156.333 277h20a3.333 3.333 0 0 1 3.334 3.333V307a3.334 3.334 0 0 1-3.334 3.333h-20A3.333 3.333 0 0 1 153 307v-26.667a3.333 3.333 0 0 1 3.333-3.333Zm11.25 19.167c4.584 0 5.817-3.384 6.134-5.167a3.757 3.757 0 0 0 2.616-3.583 3.734 3.734 0 0 0-3.75-3.75 3.734 3.734 0 0 0-3.75 3.75c0 1.566.95 2.916 2.317 3.466-.367 1.117-1.483 2.784-4.817 2.784-2.3 0-3.9.583-5 1.4v-6.617c1.45-.517 2.5-1.9 2.5-3.533a3.734 3.734 0 0 0-3.75-3.75 3.734 3.734 0 0 0-3.75 3.75 3.758 3.758 0 0 0 2.5 3.533v10.433c-1.45.517-2.5 1.9-2.5 3.534a3.735 3.735 0 0 0 3.75 3.75 3.734 3.734 0 0 0 3.75-3.75c0-1.55-.933-2.917-2.283-3.45.467-1.134 1.833-2.8 6.033-2.8Zm-7.5 5a1.246 1.246 0 0 1 1.25 1.25 1.25 1.25 0 1 1-1.25-1.25Zm0-17.5a1.246 1.246 0 0 1 1.25 1.25 1.25 1.25 0 1 1-1.25-1.25Zm12.5 2.5a1.246 1.246 0 0 1 1.25 1.25 1.25 1.25 0 1 1-1.25-1.25ZM191.333 277h20a3.333 3.333 0 0 1 3.334 3.333V307a3.334 3.334 0 0 1-3.334 3.333h-20A3.333 3.333 0 0 1 188 307v-26.667a3.333 3.333 0 0 1 3.333-3.333Zm11.25 19.167c4.584 0 5.817-3.384 6.134-5.167a3.757 3.757 0 0 0 2.616-3.583 3.734 3.734 0 0 0-3.75-3.75 3.734 3.734 0 0 0-3.75 3.75c0 1.566.95 2.916 2.317 3.466-.367 1.117-1.483 2.784-4.817 2.784-2.3 0-3.9.583-5 1.4v-6.617c1.45-.517 2.5-1.9 2.5-3.533a3.734 3.734 0 0 0-3.75-3.75 3.734 3.734 0 0 0-3.75 3.75 3.758 3.758 0 0 0 2.5 3.533v10.433c-1.45.517-2.5 1.9-2.5 3.534a3.735 3.735 0 0 0 3.75 3.75 3.734 3.734 0 0 0 3.75-3.75c0-1.55-.933-2.917-2.283-3.45.467-1.134 1.833-2.8 6.033-2.8Zm-7.5 5a1.246 1.246 0 0 1 1.25 1.25 1.25 1.25 0 1 1-1.25-1.25Zm0-17.5a1.246 1.246 0 0 1 1.25 1.25 1.25 1.25 0 1 1-1.25-1.25Zm12.5 2.5a1.246 1.246 0 0 1 1.25 1.25 1.25 1.25 0 1 1-1.25-1.25Z" fill="#1D2535"/></svg>