<?xml version="1.0" encoding="utf-8"?>
<!-- Generator: Adobe Illustrator 21.1.0, SVG Export Plug-In . SVG Version: 6.00 Build 0)  -->
<svg version="1.1" id="blend-logo" xmlns="http://www.w3.org/2000/svg" xmlns:xlink="http://www.w3.org/1999/xlink" x="0px" y="0px"
	 viewBox="0 0 896 326" style="enable-background:new 0 0 896 326;" xml:space="preserve">
<style type="text/css">
	.st0{fill:#75C9D1;}
	.st1{fill:#04385C;}
	.st2{clip-path:url(#SVGID_3_);}
</style>
<desc>
	<h1  class="site-title">Blend</h1>
</desc>
<g>
	<g id="blend-logo-b">
		<path id="blend-logo-b-top" class="st0" d="M101.3,109.9c-7.4-0.8-41.8-2-69.3,16.1V10.1c0-1.8-1.2-3.4-3-3.9l-24-6
			C2.9-0.3,0.7,1,0.1,3.1C0,3.5,0,3.8,0,4.1v193c0,1.1,0.9,2,2,2c0.5,0,1-0.2,1.4-0.6l36.4-36.9c17.3-17.3,26.6-24.5,39.6-24.5
			c11.7,0,46.6,13.2,63.8,19.8c1,0.4,2.2-0.1,2.6-1.2c0.3-0.7,0.1-1.6-0.5-2.1c-13.4-13.4-39.1-39.3-43-43.2
			C102.1,110.2,101.8,110,101.3,109.9z"/>
		<path id="blend-logo-b-left" class="st1" d="M0.6,212.4c4.1-4.1,29-29.2,41.3-41.5c0.8-0.8,2.1-0.8,2.8,0c0.5,0.5,0.7,1.3,0.5,2
			C34.8,203.6,29,225.7,29,246c0,23.6,35.6,55.2,59,76.4c0.8,0.7,0.9,2,0.1,2.8c-0.4,0.5-1,0.7-1.6,0.7
			c-21.8-1.4-46.8-10.7-63.9-30.8C9.9,280.2,0.1,267.1,0,213.8C0,213.3,0.2,212.8,0.6,212.4L0.6,212.4z"/>
		<path id="blend-logo-b-right" class="st1" d="M200.8,226.5c-4.1,3.9-29,28.2-41.5,40.2c-0.8,0.8-2.1,0.7-2.8-0.1
			c-0.5-0.5-0.7-1.3-0.4-2c10.5-30.5,16.7-52,17.1-68.4c0.5-16.7-4.8-29.4-18.7-43.4l-38.9-39.1c-0.8-0.8-0.8-2,0-2.8
			c0.4-0.4,1-0.6,1.6-0.6c20.7,1.6,45.6,12,62.7,32c12.7,14.8,26.9,41.7,21.5,83.1C201.3,225.8,201.1,226.2,200.8,226.5L200.8,226.5
			z"/>
		<path id="blend-logo-b-bottom" class="st0" d="M103.4,325.4c-4.3-4.1-29.8-28.6-43.4-41.6c-0.8-0.8-0.8-2-0.1-2.8
			c0.6-0.6,1.4-0.8,2.2-0.5c16.7,6.4,49.3,18.7,60.9,18.7c13,0,22.4-7.2,39.6-24.5l35.8-36.2c0.8-0.8,2-0.8,2.8,0
			c0.4,0.4,0.6,0.9,0.6,1.5c-2.1,72.2-50.4,85.9-97.1,86C104.3,326,103.8,325.8,103.4,325.4L103.4,325.4z"/>
	</g>
	<path id="blend-logo-l" class="st1" d="M262,0.2l-24,6c-1.8,0.5-3,2.1-3,3.9V322c0,2.2,1.8,4,4,4h24c2.2,0,4-1.8,4-4V4.1
		c0-2.2-1.8-4-4-4C262.7,0.1,262.3,0.2,262,0.2z"/>
	<path id="blend-logo-e" class="st1" d="M480,198c0-80-33-96-89-96s-87,16-87,96v32c0,80,40,96,96,96h50.9c2.2,0,4-1.8,4-4
		c0-0.3,0-0.7-0.1-1l-6-24c-0.5-1.8-2.1-3-3.9-3H400c-43.9,0-63.5-5.4-64-62c0-1.1,0.9-2,2-2h138c2.2,0,4-1.8,4-4V198z M338,198
		c-1.1,0-2-0.9-2-2c0.2-56.6,11.1-62,55-62s56.7,5.4,57,62c0,1.1-0.9,2-2,2H338z"/>
	<path id="blend-logo-n" class="st1" d="M593,102h-76c-2.2,0-4,1.8-4,4v216c0,2.2,1.8,4,4,4h24c2.2,0,4-1.8,4-4V136c0-1.1,0.9-2,2-2
		h46c44.4,0,64,13.5,64,72v116c0,2.2,1.8,4,4,4h24c2.2,0,4-1.8,4-4V206C689,126,649,102,593,102z"/>
	<path id="blend-logo-d" class="st1" d="M864,10.1V100c0,1.1-0.9,2-2,2h-46c-56,0-96,24-96,104v16c0,80,40,104,96,104h76
		c2.2,0,4-1.8,4-4V4.1c0-2.2-1.8-4-4-4c-0.3,0-0.7,0-1,0.1l-24,6C865.2,6.7,864,8.3,864,10.1z M864,292c0,1.1-0.9,2-2,2h-46
		c-44.4,0-64-13.5-64-72v-16c0-58.5,19.6-72,64-72h46c1.1,0,2,0.9,2,2V292z"/>
</g>
<g>
	<defs>
		<polygon id="SVGID_1_" points="1,1 2,1 1,2 		"/>
	</defs>
	<defs>
		<polygon id="SVGID_2_" points="-1,-1 -2,-1 -1,-2 		"/>
	</defs>
	<clipPath id="SVGID_3_">
		<use xlink:href="#SVGID_1_"  style="overflow:visible;"/>
	</clipPath>
	<clipPath id="SVGID_4_" class="st2">
		<use xlink:href="#SVGID_2_"  style="overflow:visible;"/>
	</clipPath>
</g>
</svg>
