<?xml version="1.0" encoding="utf-8"?>
<!-- Generator: Adobe Illustrator 21.1.0, SVG Export Plug-In . SVG Version: 6.00 Build 0)  -->
<svg version="1.1" id="Layer_1" xmlns="http://www.w3.org/2000/svg" xmlns:xlink="http://www.w3.org/1999/xlink" x="0px" y="0px"
	 viewBox="0 0 187.1 98.8" style="enable-background:new 0 0 187.1 98.8;" xml:space="preserve">
<style type="text/css">
	.st0{fill-rule:evenodd;clip-rule:evenodd;fill:#ED1C24;}
	.st1{fill-rule:evenodd;clip-rule:evenodd;}
</style>
<g>
	<path class="st0" d="M36.6,46.7c2.6-2.9,5.3-5.2,8.6-7.9l0.1-2.1c-4.2,3.3-7.9,6.7-11.1,10.1L36.6,46.7L36.6,46.7z M27.3,59.3
		c-4,7.3-5.6,14.6-2.7,20.2c8.9,17.4,50.1,17.2,89.7,0.6c10-4.2,19-9,26.8-14.2c23.2-15.6,32.2-33.1,25.6-46.2
		c-8.9-17.4-44.9-19.3-84.5-2.7c-4.3,1.8-8.3,3.7-12.2,5.7h-3.3c5.7-3.1,12-6.3,18.3-9c45-18.8,89.8-18.1,99.8,1.7
		c7.6,14.8-4,35.6-30.5,53.4c-8.8,5.9-19.9,11.9-31.1,16.6C78.2,104.1,33,103,23,83.2c-3.5-7-2.9-15.3,1.8-23.9H27.3L27.3,59.3z"/>
	<path class="st1" d="M40,45.5c-3.2,12.3-13.2,17.1-23.2,17.1C2.7,62.7-2,54.1,0.7,41.4c2.3-12.5,11.6-21,25.1-21
		c10.2,0,17.9,4.1,15.3,17.9H26.5c1-6.6-0.5-7.4-2.5-7.4c-4.1,0-5.4,4.2-6.8,10.6c-1.3,6.1-1.9,10.6,2.1,10.6c2.1,0,3.7-1.2,5.7-6.6
		H40L40,45.5z"/>
	<path class="st1" d="M38.7,61.6h19.8c12.4,0,21.9-7.5,24.5-19.7c2.5-11.9-0.8-20.6-16.9-20.5H47.2L38.7,61.6L38.7,61.6z M60.9,30.6
		h1.5c2.6,0,3.9,0.9,4.6,2.5c0.7,1.7,0.4,4.5-0.4,8.4c-0.8,3.9-1.8,6.7-3.2,8.4c-1.3,1.6-3,2.6-5.6,2.6h-1.5L60.9,30.6L60.9,30.6z"
		/>
	<polygon class="st1" points="86.5,21.5 100.8,21.5 98.8,46.7 98.9,46.7 108,21.5 124.5,21.5 122.9,46.7 123,46.7 131.8,21.5 
		146,21.5 128.8,61.6 111.5,61.6 113.3,35.5 113.2,35.5 103.9,61.6 86.7,61.6 86.5,21.5 	"/>
	<polygon class="st1" points="148.5,21.3 152.3,21.3 152.3,22 150.8,22 150.8,26 149.9,26 149.9,22 148.5,22 148.5,21.3 	"/>
	<polygon class="st1" points="152.7,21.3 153.8,21.3 155.2,25 156.4,21.3 157.6,21.3 157.6,26 156.8,26 156.8,22.4 155.5,26 
		154.8,26 153.5,22.4 153.5,26 152.7,26 152.7,21.3 	"/>
</g>
</svg>
