<?xml version="1.0" encoding="utf-8"?>
<!-- Generator: Adobe Illustrator 23.0.1, SVG Export Plug-In . SVG Version: 6.00 Build 0)  -->
<svg version="1.1" id="Layer_1" xmlns="http://www.w3.org/2000/svg" xmlns:xlink="http://www.w3.org/1999/xlink" x="0px" y="0px"
	 viewBox="0 0 142.8 50" style="enable-background:new 0 0 142.8 50;" xml:space="preserve">
<g>
	<path d="M25,4.2v4.2c9.2,0,16.7,7.5,16.7,16.7c0,9.2-7.5,16.7-16.7,16.7v4.2c11.5,0,20.8-9.3,20.8-20.8C45.8,13.5,36.5,4.2,25,4.2z
		"/>
	<path d="M25,4.2V0C11.2,0,0,11.2,0,25c0,13.8,11.2,25,25,25v-4.2C13.5,45.8,4.2,36.5,4.2,25C4.2,13.5,13.5,4.2,25,4.2z"/>
	<path d="M25,8.3L25,8.3C15.8,8.3,8.3,15.8,8.3,25S15.8,41.7,25,41.7v-4.2c-6.9,0-12.5-5.6-12.5-12.5S18.1,12.5,25,12.5V8.3z"/>
</g>
<title>alternative_black</title>
<g>
	<path d="M70.6,10.5L69,12.4c-0.9-1-2.2-1.6-3.6-1.6c-2.5,0-4.2,1.9-4.2,4.9s1.6,4.9,4.1,4.9c1.5,0,2.4-0.6,3.9-1.8l1.6,1.9
		c-1.4,1.5-3.4,2.4-5.5,2.4c-4.4,0-7-3.2-7-7.4s2.5-7.3,7-7.3C67.4,8.4,69.3,9.1,70.6,10.5"/>
	<path d="M73.8,17.8c0,2,1.1,3.2,2.6,3.2s2.7-1.3,2.7-3.2s-1.1-3.2-2.7-3.2S73.8,15.8,73.8,17.8 M81.7,17.8c0,2.9-2.4,5.3-5.3,5.3
		s-5.3-2.4-5.3-5.3s2.4-5.3,5.3-5.3S81.7,14.9,81.7,17.8"/>
	<rect x="83" y="8.7" width="2.6" height="14.1"/>
	<rect x="87.4" y="8.7" width="2.6" height="14.1"/>
	<path d="M93.8,16.6h4.7c0-1.2-0.9-2.2-2.1-2.2c-0.1,0-0.2,0-0.2,0C95,14.3,93.9,15.3,93.8,16.6 M99.6,19.6l1.4,1.6
		c-1.1,1.3-2.8,2-4.5,2c-2.8,0.2-5.1-1.9-5.3-4.7c0-0.2,0-0.4,0-0.7c0-3.2,1.9-5.5,5.1-5.5s4.7,1.9,4.7,5.1v1h-7.3
		c0,0.7,0.4,1.4,0.9,1.9c0.6,0.5,1.3,0.7,2,0.7C97.9,20.9,98.5,20.5,99.6,19.6"/>
	<path d="M107.1,14.5c-1.7,0-2.6,1.4-2.6,3.2c0,1.8,0.9,3.2,2.6,3.2c1,0,1.7-0.4,2.8-1.6l1.7,1.4c-1,1.5-2.7,2.4-4.5,2.4
		c-3.1,0-5.2-2-5.2-5.4c-0.2-2.8,1.8-5.2,4.6-5.4c0.2,0,0.5,0,0.7,0c1.6,0,3.2,0.7,4.2,1.9l-1.6,1.6C109.1,15,108.1,14.5,107.1,14.5
		"/>
	<path d="M118.6,22.7c-0.7,0.3-1.5,0.4-2.3,0.4c-2.1,0-2.9-1-2.9-2.9v-5.5h-1.8v-1.9h1.8V9.6h2.5v3.1h2.4v1.9H116v5.2
		c0,0.7,0.3,0.9,1,0.9c0.4,0,0.9-0.1,1.3-0.2L118.6,22.7z"/>
	<rect x="119.7" y="12.7" width="2.6" height="10.1"/>
	<path d="M133,12.7l-3.5,10.1h-3.1L123,12.7h2.7l1,3.3c0.5,1.8,1,3.2,1.3,4.6c0.3-1.4,0.8-2.8,1.3-4.6l1-3.3L133,12.7z"/>
	<path d="M135.5,16.6h4.7c0-1.2-0.9-2.2-2.1-2.2c-0.1,0-0.1,0-0.2,0C136.7,14.4,135.7,15.3,135.5,16.6 M141.3,19.6l1.4,1.6
		c-1.1,1.3-2.8,2-4.5,2c-2.8,0.2-5.1-2-5.3-4.7c0-0.2,0-0.4,0-0.6c0-3.2,1.9-5.4,5.1-5.4s4.8,1.9,4.8,5v1h-7.3
		c0.1,1.5,1.3,2.6,2.8,2.5c0,0,0,0,0,0C139.6,20.9,140.2,20.5,141.3,19.6"/>
	<polygon points="70.9,41.3 68.1,41.3 68.1,35 61.9,35 61.9,41.3 59.1,41.3 59.1,27.2 61.9,27.2 61.9,32.7 68.1,32.7 68.1,27.2 
		70.9,27.2 	"/>
	<path d="M74.8,35h4.8c0-1.2-0.9-2.2-2.1-2.2c-0.1,0-0.1,0-0.2,0C76,32.8,74.9,33.8,74.8,35 M80.6,38l1.4,1.6c-1.1,1.3-2.8,2-4.5,2
		c-2.8,0.2-5.1-1.9-5.3-4.7c0-0.2,0-0.4,0-0.7c0-3.2,1.9-5.5,5.1-5.5s4.8,1.9,4.8,5v1h-7.2c0,0.7,0.4,1.4,0.9,1.9
		c0.5,0.5,1.2,0.7,1.9,0.7C78.8,39.4,79.4,39,80.6,38"/>
	<path d="M89.5,37.1v-0.6l-1.7,0.3c-1.5,0.3-2.5,0.7-2.5,1.6c0,0.6,0.6,1,1.6,1c1.3,0.2,2.5-0.8,2.7-2.1
		C89.5,37.3,89.5,37.2,89.5,37.1 M92,34.4v6.8h-2.3v-1c-0.8,1-2,1.5-3.3,1.4c-1.9,0-3.6-0.8-3.6-2.9c0-2.3,2.1-3.1,4.4-3.6l2.4-0.4
		v-0.2c0-1-0.7-1.5-1.9-1.5c-1.4,0-2.1,0.6-3.2,1.6l-1.6-1.5c1.1-1.5,2.9-2.3,4.7-2.3C90.6,30.9,92.1,32.3,92,34.4"/>
	<path d="M93.8,16.6h4.7c0-1.2-0.9-2.2-2.1-2.2c-0.1,0-0.2,0-0.2,0C95,14.3,93.9,15.3,93.8,16.6 M99.6,19.6l1.4,1.6
		c-1.1,1.3-2.8,2-4.5,2c-2.8,0.2-5.1-1.9-5.3-4.7c0-0.2,0-0.4,0-0.7c0-3.2,1.9-5.5,5.1-5.5s4.7,1.9,4.7,5.1v1h-7.3
		c0,0.7,0.4,1.4,0.9,1.9c0.6,0.5,1.3,0.7,2,0.7C97.9,20.9,98.5,20.5,99.6,19.6"/>
	<rect x="93.7" y="27.2" width="2.6" height="14.1"/>
	<path d="M104.3,41.1c-0.7,0.3-1.5,0.4-2.3,0.4c-2.1,0-2.9-1-2.9-2.8v-5.5h-1.8v-2h1.8V28h2.5v3.1h2.4v2h-2.4v5.2
		c0,0.7,0.3,0.9,1,0.9c0.4,0,0.9-0.1,1.3-0.2L104.3,41.1z"/>
	<path d="M114.3,34.3v6.9h-2.5v-6.1c0-1.3-0.7-2.1-1.9-2.1c-0.6,0-1.1,0.2-1.5,0.6c-0.4,0.4-0.6,0.9-0.6,1.5v6.1h-2.5v-14h2.5v4.9
		c0.7-0.8,1.8-1.3,2.9-1.3c1-0.1,1.9,0.3,2.6,1C114.1,32.5,114.4,33.4,114.3,34.3"/>
	<path d="M122.4,10c0,0.6-0.4,1.2-0.9,1.4c-0.8,0.3-1.6-0.1-1.9-0.9c-0.3-0.8,0.1-1.6,0.9-1.9c0.2-0.1,0.3-0.1,0.5-0.1
		c0.4,0,0.8,0.1,1.1,0.4C122.4,9.2,122.5,9.6,122.4,10"/>
</g>
</svg>
