<?xml version="1.0" encoding="UTF-8"?>
<svg width="333px" height="48px" viewBox="0 0 333 48" version="1.1" xmlns="http://www.w3.org/2000/svg" xmlns:xlink="http://www.w3.org/1999/xlink">
    <!-- Generator: Sketch 50.2 (55047) - http://www.bohemiancoding.com/sketch -->
    <title>phabricator-logo</title>
    <desc>Created with Sketch.</desc>
    <defs></defs>
    <g id="Page-1" stroke="none" stroke-width="1" fill="none" fill-rule="evenodd">
        <g id="phabricator-logo" transform="translate(0.000000, -1.000000)" fill="#212529" fill-rule="nonzero">
            <g id="a" transform="translate(20.312500, 7.812500)">
                <g id="b">
                    <g id="c" transform="translate(15.625000, 0.000000)">
                        <g id="e">
                            <g id="path0_fill-link" transform="translate(0.125000, 0.281250)">
                                <polyline id="path0_fill" points="3.62214062 5.2229375 3.3210625 0 0.310125 0 3.08589062e-09 5.2229375"></polyline>
                            </g>
                        </g>
                        <g id="e-link" transform="translate(0.000000, 26.562500)">
                            <g id="e">
                                <g id="path0_fill-link" transform="translate(2.468750, 4.406250) scale(-1, 1) rotate(-180.000000) translate(-2.468750, -4.406250) translate(0.125000, 1.281250)">
                                    <polyline id="path0_fill" points="3.62214062 5.2229375 3.3210625 0 0.310125 0 3.08589062e-09 5.2229375"></polyline>
                                </g>
                            </g>
                        </g>
                    </g>
                    <g id="c-link" transform="translate(0.000000, 14.062500)">
                        <g id="c">
                            <g id="e" transform="translate(28.125000, 0.000000)">
                                <g id="path1_fill-link" transform="translate(3.218750, 3.656250) rotate(90.000000) translate(-3.218750, -3.656250) translate(0.875000, 0.531250)">
                                    <polyline id="path1_fill" points="3.62214063 5.2229375 3.3210625 -2.44966e-21 0.310125 -2.44966e-21 3.08589062e-09 5.2229375"></polyline>
                                </g>
                            </g>
                            <g id="e-link">
                                <g id="e">
                                    <g id="path0_fill-link" transform="translate(3.781250, 3.656250) scale(-1, 1) rotate(90.000000) translate(-3.781250, -3.656250) translate(1.437500, 0.531250)">
                                        <polyline id="path0_fill" points="3.62214063 5.2229375 3.3210625 0 0.310125 0 3.08589062e-09 5.2229375"></polyline>
                                    </g>
                                </g>
                            </g>
                        </g>
                    </g>
                </g>
                <g id="b-link" transform="translate(3.125000, 3.125000)">
                    <g id="b">
                        <g id="c">
                            <g id="e" transform="translate(20.312500, 0.000000)">
                                <g id="path2_fill-link" transform="translate(4.244448, 4.679491) rotate(45.000000) translate(-4.244448, -4.679491) translate(1.900697, 1.554490)">
                                    <polyline id="path2_fill" points="3.62214175 5.22293912 3.32106353 -2.66899083e-22 0.310125096 -2.66899083e-22 3.08589158e-09 5.22293912"></polyline>
                                </g>
                            </g>
                            <g id="e-link" transform="translate(0.000000, 20.312500)">
                                <g id="e">
                                    <g id="path3_fill-link" transform="translate(5.070116, 3.869448) scale(-1, 1) rotate(135.000000) translate(-5.070116, -3.869448) translate(2.726366, 0.744447)">
                                        <polyline id="path3_fill" points="3.62214175 5.22293912 3.32106353 3.67933114e-22 0.310125096 3.67933114e-22 3.08589158e-09 5.22293912"></polyline>
                                    </g>
                                </g>
                            </g>
                        </g>
                        <g id="c-link">
                            <g id="c">
                                <g id="e" transform="translate(18.750000, 20.312500)">
                                    <g id="path4_fill-link" transform="translate(5.070509, 3.869448) rotate(135.000000) translate(-5.070509, -3.869448) translate(2.726758, 0.744447)">
                                        <polyline id="path4_fill" points="3.62214175 5.22293912 3.32106353 -2.64036082e-21 0.310125096 -2.64036082e-21 3.08589158e-09 5.22293912"></polyline>
                                    </g>
                                </g>
                                <g id="e-link">
                                    <g id="e">
                                        <g id="path5_fill-link" transform="translate(4.318052, 4.679491) scale(-1, 1) rotate(45.000000) translate(-4.318052, -4.679491) translate(1.974302, 1.554490)">
                                            <polyline id="path5_fill" points="3.62214175 5.22293912 3.32106353 2.35043073e-23 0.310125096 2.35043073e-23 3.08589158e-09 5.22293912"></polyline>
                                        </g>
                                    </g>
                                </g>
                            </g>
                        </g>
                    </g>
                </g>
            </g>
            <g id="a-link" transform="translate(20.312500, 7.812500)">
                <g id="a">
                    <g id="b">
                        <g id="c" transform="translate(9.375000, 0.000000)">
                            <g id="e" transform="translate(9.375000, 0.000000)">
                                <g id="path6_fill-link" transform="translate(4.578834, 4.659038) rotate(22.499967) translate(-4.578834, -4.659038) translate(2.235084, 1.534037)">
                                    <polyline id="path6_fill" points="3.62214159 5.22293889 3.32106338 2.58634069e-21 0.310125083 2.58634069e-21 3.08589145e-09 5.22293889"></polyline>
                                </g>
                            </g>
                            <g id="e-link" transform="translate(0.000000, 25.000000)">
                                <g id="e">
                                    <g id="path7_fill-link" transform="translate(3.392478, 5.134788) scale(-1, 1) rotate(157.500033) translate(-3.392478, -5.134788) translate(1.048728, 2.009787)">
                                        <polyline id="path7_fill" points="3.62214159 5.22293889 3.32106338 -2.2543306e-22 0.310125083 -2.2543306e-22 3.08589145e-09 5.22293889"></polyline>
                                    </g>
                                </g>
                            </g>
                        </g>
                        <g id="c-link" transform="translate(0.000000, 7.812500)">
                            <g id="c">
                                <g id="e" transform="translate(25.000000, 10.937500)">
                                    <g id="path8_fill-link" transform="translate(5.106587, 4.203834) rotate(112.499967) translate(-5.106587, -4.203834) translate(2.762836, 1.078834)">
                                        <polyline id="path8_fill" points="3.62214159 5.22293889 3.32106338 2.34484062e-22 0.310125083 2.34484062e-22 3.08589145e-09 5.22293889"></polyline>
                                    </g>
                                </g>
                                <g id="e-link">
                                    <g id="e">
                                        <g id="path9_fill-link" transform="translate(4.630837, 4.579978) scale(-1, 1) rotate(67.500033) translate(-4.630837, -4.579978) translate(2.287086, 1.454977)">
                                            <polyline id="path9_fill" points="3.62214159 5.22293889 3.32106338 -3.65070097e-21 0.310125083 -3.65070097e-21 3.08589145e-09 5.22293889"></polyline>
                                        </g>
                                    </g>
                                </g>
                            </g>
                        </g>
                    </g>
                    <g id="b-link">
                        <g id="b">
                            <g id="c" transform="translate(0.000000, 7.812500)">
                                <g id="e" transform="translate(26.562500, 0.000000)">
                                    <g id="path10_fill-link" transform="translate(3.947288, 4.579978) rotate(67.500033) translate(-3.947288, -4.579978) translate(1.603538, 1.454977)">
                                        <polyline id="path10_fill" points="3.62214159 5.22293889 3.32106338 -2.03823054e-22 0.310125083 -2.03823054e-22 3.08589145e-09 5.22293889"></polyline>
                                    </g>
                                </g>
                                <g id="e-link" transform="translate(0.000000, 10.937500)">
                                    <g id="e">
                                        <g id="path11_fill-link" transform="translate(5.034038, 4.203834) scale(-1, 1) rotate(112.499967) translate(-5.034038, -4.203834) translate(2.690288, 1.078834)">
                                            <polyline id="path11_fill" points="3.62214159 5.22293889 3.32106338 6.67247178e-22 0.310125083 6.67247178e-22 3.08589145e-09 5.22293889"></polyline>
                                        </g>
                                    </g>
                                </g>
                            </g>
                            <g id="c-link" transform="translate(7.812500, 0.000000)">
                                <g id="c">
                                    <g id="e" transform="translate(10.937500, 25.000000)">
                                        <g id="path12_fill-link" transform="translate(3.607522, 5.134788) rotate(157.500033) translate(-3.607522, -5.134788) translate(1.263771, 2.009787)">
                                            <polyline id="path12_fill" points="3.62214159 5.22293889 3.32106338 9.34146249e-22 0.310125083 9.34146249e-22 3.08589145e-09 5.22293889"></polyline>
                                        </g>
                                    </g>
                                    <g id="e-link">
                                        <g id="e">
                                            <g id="path13_fill-link" transform="translate(3.983666, 4.659038) scale(-1, 1) rotate(22.499967) translate(-3.983666, -4.659038) translate(1.639915, 1.534037)">
                                                <polyline id="path13_fill" points="3.62214159 5.22293889 3.32106338 1.60462043e-22 0.310125083 1.60462043e-22 3.08589145e-09 5.22293889"></polyline>
                                            </g>
                                        </g>
                                    </g>
                                </g>
                            </g>
                        </g>
                    </g>
                </g>
            </g>
            <g id="Phabricator" transform="translate(84.375000, 7.812500)">
                <g id="path14_fill-link">
                    <path d="M5.58493952,23.2427778 L5.58493952,35.377474 L0,35.377474 L0,1.91355608 L10.2508468,1.91355608 C14.13125,1.91355608 17.1396976,2.80809635 19.2762903,4.59720486 C21.4129032,6.38631337 22.4810484,8.90657031 22.4810484,12.1580755 C22.4810484,15.4095807 21.3657258,18.0698542 19.1348992,20.1389757 C16.9040524,22.2081771 13.8877419,23.2427778 10.0858871,23.2427778 L5.58493952,23.2427778 Z M5.58493952,6.48741753 L5.58493952,18.7155113 L9.21397177,18.7155113 C11.617621,18.7155113 13.4478427,18.1632318 14.7046573,17.0586528 C15.9614718,15.9540738 16.5898589,14.3983394 16.5898589,12.3914297 C16.5898589,8.45541493 14.280504,6.48741753 9.66171371,6.48741753 L5.58493952,6.48741753 Z M49.0391129,35.377474 L43.5719758,35.377474 L43.5719758,22.3092014 C43.5719758,17.5797865 41.9774194,15.215099 38.7883065,15.215099 C37.1858871,15.215099 35.8346774,15.8996085 34.7350806,17.2686675 C33.6352823,18.6377266 33.0854839,20.3879427 33.0854839,22.5192361 L33.0854839,35.377474 L27.5947581,35.377474 L27.5947581,0 L33.0854839,0 L33.0854839,15.4484531 L33.1796371,15.4484531 C35.0020161,12.430322 37.609879,10.9212665 41.0034274,10.9212665 C46.3604839,10.9212665 49.0391129,14.1649453 49.0391129,20.6524826 L49.0391129,35.377474 Z M74.2066532,35.377474 L68.9044355,35.377474 L68.9044355,31.6437674 L68.8102823,31.6437674 C67.1449597,34.5061892 64.7020161,35.9375 61.4814516,35.9375 C59.1092742,35.9375 57.2516129,35.2996094 55.9082661,34.0240278 C54.565121,32.7482465 53.8935484,31.0601823 53.8935484,28.9600347 C53.8935484,24.4482813 56.5171371,21.8192535 61.7643145,21.0723524 L68.9280242,20.0688976 C68.9280242,16.6619227 67.2941532,14.9584054 64.0264113,14.9584054 C61.1516129,14.9584054 58.5594758,15.9385009 56.25,17.8987517 L56.25,13.1615304 C58.7949597,11.6680078 61.7328629,10.9212665 65.0633065,10.9212665 C71.158871,10.9212665 74.2066532,13.8926988 74.2066532,19.8356233 L74.2066532,35.377474 Z M68.9280242,23.6394878 L63.8614919,24.3394705 C62.2905242,24.5417188 61.1082661,24.9190625 60.3149194,25.4713021 C59.5215726,26.0235417 59.125,26.9920573 59.125,28.3766493 C59.125,29.3878906 59.490121,30.21625 60.2207661,30.8619271 C60.9512097,31.5076042 61.9292339,31.8304427 63.1546371,31.8304427 C64.8199597,31.8304427 66.1983871,31.2508507 67.2903226,30.0918663 C68.3820565,28.9328819 68.9280242,27.4742188 68.9280242,25.716276 L68.9280242,23.6394878 Z M86.4368952,31.9236806 L86.3427419,31.9236806 L86.3427419,35.377474 L80.8756048,35.377474 L80.8756048,0 L86.3427419,0 L86.3427419,15.6818273 L86.4368952,15.6818273 C88.3064516,12.5081068 91.0399194,10.9212665 94.6377016,10.9212665 C97.6854839,10.9212665 100.069355,11.9908264 101.789718,14.1299661 C103.509879,16.2691259 104.36996,19.1355408 104.36996,22.7292708 C104.36996,26.7275174 103.403831,29.9285503 101.471573,32.3321701 C99.5391129,34.7357899 96.8997984,35.9375 93.553629,35.9375 C90.4114919,35.9375 88.0393145,34.5996267 86.4368952,31.9236806 Z M86.2955645,22.4259983 L86.2955645,25.3896441 C86.2955645,27.1320139 86.8572581,28.6100434 87.9804435,29.823533 C89.1038306,31.0370226 90.5294355,31.6437674 92.2574597,31.6437674 C94.2840726,31.6437674 95.8747984,30.8619271 97.0294355,29.2984462 C98.1842742,27.7349653 98.7614919,25.5529601 98.7614919,22.7526302 C98.7614919,20.4035156 98.2233871,18.5638351 97.147379,17.2336684 C96.0711694,15.9035017 94.6141129,15.2384384 92.7760081,15.2384384 C90.8278226,15.2384384 89.2608871,15.9229479 88.0747984,17.2920069 C86.8887097,18.661066 86.2955645,20.3723698 86.2955645,22.4259983 Z M123.952621,16.6386033 C123.292742,16.1251962 122.342339,15.8685026 121.10121,15.8685026 C119.483065,15.8685026 118.132056,16.5919245 117.047984,18.0387483 C115.964113,19.485592 115.422177,21.4534896 115.422177,23.9427604 L115.422177,35.377474 L109.95504,35.377474 L109.95504,11.4813325 L115.422177,11.4813325 L115.422177,16.4052292 L115.516331,16.4052292 C116.050403,14.7250313 116.871371,13.4143307 117.978831,12.4731076 C119.086492,11.5318845 120.323589,11.061283 121.690323,11.061283 C122.680242,11.061283 123.434274,11.209066 123.952621,11.5046719 L123.952621,16.6386033 Z M130.574395,6.46407813 C129.679032,6.46407813 128.913105,6.17627865 128.276815,5.60063976 C127.640524,5.02502083 127.322379,4.29383247 127.322379,3.40705469 C127.322379,2.52029688 127.640524,1.78132005 128.276815,1.19013819 C128.913105,0.598956337 129.679032,0.303368403 130.574395,0.303368403 C131.501411,0.303368403 132.286895,0.598956337 132.931048,1.19013819 C133.575,1.78132005 133.897177,2.52029688 133.897177,3.40705469 C133.897177,4.24715365 133.575,4.96668229 132.931048,5.56564063 C132.286895,6.16459896 131.501411,6.46407813 130.574395,6.46407813 Z M133.284476,35.377474 L127.817339,35.377474 L127.817339,11.4813325 L133.284476,11.4813325 L133.284476,35.377474 Z M157.697984,34.2805816 C155.765524,35.3852604 153.479839,35.9375 150.840524,35.9375 C147.258669,35.9375 144.367944,34.8290278 142.168548,32.6120833 C139.969153,30.3951389 138.869355,27.5209375 138.869355,23.9894792 C138.869355,20.0533247 140.051613,16.8914236 142.415927,14.5033568 C144.780242,12.1152899 147.941935,10.9212665 151.901008,10.9212665 C154.100403,10.9212665 156.040524,11.3024236 157.721573,12.0647378 L157.721573,17.1053116 C156.040524,15.8607161 154.249597,15.2384384 152.348589,15.2384384 C150.039315,15.2384384 148.146169,16.0124123 146.669556,17.5603602 C145.192742,19.1083281 144.454435,21.1346441 144.454435,23.6394878 C144.454435,26.1129861 145.149597,28.0653906 146.539919,29.4967014 C147.930242,30.9280122 149.795766,31.6437674 152.136492,31.6437674 C154.100403,31.6437674 155.954032,30.9513715 157.697984,29.5667795 L157.697984,34.2805816 Z M181.640121,35.377474 L176.337903,35.377474 L176.337903,31.6437674 L176.24375,31.6437674 C174.578427,34.5061892 172.135484,35.9375 168.914919,35.9375 C166.542742,35.9375 164.685081,35.2996094 163.341734,34.0240278 C161.998589,32.7482465 161.327016,31.0601823 161.327016,28.9600347 C161.327016,24.4482813 163.950605,21.8192535 169.197782,21.0723524 L176.361492,20.0688976 C176.361492,16.6619227 174.727621,14.9584054 171.460081,14.9584054 C168.585081,14.9584054 165.992944,15.9385009 163.683468,17.8987517 L163.683468,13.1615304 C166.228629,11.6680078 169.166331,10.9212665 172.496774,10.9212665 C178.592339,10.9212665 181.640121,13.8926988 181.640121,19.8356233 L181.640121,35.377474 Z M176.361492,23.6394878 L171.29496,24.3394705 C169.723992,24.5417188 168.541935,24.9190625 167.748387,25.4713021 C166.95504,26.0235417 166.558468,26.9920573 166.558468,28.3766493 C166.558468,29.3878906 166.92379,30.21625 167.654234,30.8619271 C168.384677,31.5076042 169.362702,31.8304427 170.588105,31.8304427 C172.253427,31.8304427 173.631855,31.2508507 174.72379,30.0918663 C175.815524,28.9328819 176.361492,27.4742188 176.361492,25.716276 L176.361492,23.6394878 Z M201.034274,35.1207205 C199.965927,35.6496007 198.559879,35.9141406 196.816129,35.9141406 C192.134476,35.9141406 189.79375,33.6894097 189.79375,29.2401476 L189.79375,15.7284861 L185.764113,15.7284861 L185.764113,11.4813325 L189.79375,11.4813325 L189.79375,5.95069097 L195.260887,4.41050955 L195.260887,11.4813325 L201.034274,11.4813325 L201.034274,15.7284861 L195.260887,15.7284861 L195.260887,27.676467 C195.260887,29.0922049 195.51996,30.1034462 196.038508,30.710191 C196.556855,31.3169358 197.420968,31.620408 198.630645,31.620408 C199.55746,31.620408 200.358669,31.3558681 201.034274,30.8269878 L201.034274,35.1207205 Z M216.445565,35.9375 C212.721774,35.9375 209.75,34.8212413 207.52621,32.588724 C205.304435,30.3562066 204.191532,27.3965538 204.191532,23.7093663 C204.191532,19.6956068 205.350806,16.5608186 207.667339,14.3050017 C209.985887,12.0491649 213.106855,10.9212665 217.034274,10.9212665 C220.804435,10.9212665 223.743952,12.0180391 225.84879,14.2116441 C227.953629,16.4052491 229.006048,19.4466797 229.006048,23.3360156 C229.006048,27.1475868 227.870968,30.2006771 225.600806,32.4954861 C223.330645,34.7900955 220.278226,35.9375 216.445565,35.9375 Z M216.705645,15.2384384 C214.568548,15.2384384 212.879032,15.9773932 211.639113,17.4553628 C210.397177,18.9333125 209.77621,20.9713281 209.77621,23.5694097 C209.77621,26.0740538 210.405242,28.0460243 211.66129,29.4851215 C212.919355,30.9242188 214.600806,31.6437674 216.705645,31.6437674 C218.856855,31.6437674 220.510081,30.9357986 221.665323,29.5200608 C222.820565,28.1043229 223.397177,26.0896267 223.397177,23.4759722 C223.397177,20.8469444 222.820565,18.8166354 221.665323,17.3853446 C220.510081,15.9540738 218.856855,15.2384384 216.705645,15.2384384 Z M248.564516,16.6386033 C247.905242,16.1251962 246.955645,15.8685026 245.71371,15.8685026 C244.094758,15.8685026 242.743952,16.5919245 241.66129,18.0387483 C240.576613,19.485592 240.034274,21.4534896 240.034274,23.9427604 L240.034274,35.377474 L234.566532,35.377474 L234.566532,11.4813325 L240.034274,11.4813325 L240.034274,16.4052292 L240.129032,16.4052292 C240.663306,14.7250313 241.483871,13.4143307 242.590726,12.4731076 C243.699597,11.5318845 244.935484,11.061283 246.302419,11.061283 C247.292339,11.061283 248.046371,11.209066 248.564516,11.5046719 L248.564516,16.6386033 Z" id="path14_fill"></path>
                </g>
            </g>
            <g id="Oval" transform="translate(31.250000, 18.750000)">
                <g id="path15_fill-link" transform="translate(0.859375, 0.531250)">
                    <path d="M5.77095312,11.4407344 C8.95815625,11.4407344 11.5418906,8.879625 11.5418906,5.72035937 C11.5418906,2.56109375 8.95815625,0 5.77095312,0 C2.58373437,0 0,2.56109375 0,5.72035937 C0,8.879625 2.58373437,11.4407344 5.77095312,11.4407344 Z" id="path15_fill"></path>
                </g>
            </g>
            <g id="Shape">
                <g id="path16_stroke-link">
                    <path d="M3.125,24.7629688 L1.41125,23.6365625 L0.670890625,24.7629688 L1.41125,25.889375 L3.125,24.7629688 Z M72.6273437,24.7629688 L74.3410937,25.889375 L75.0814062,24.7629688 L74.3410937,23.6365625 L72.6273437,24.7629688 Z M37.8760937,44.35 C22.3854687,44.35 10.1249219,31.6790625 4.83875,23.6365625 L1.41125,25.889375 C6.91425,34.2617188 20.2465625,48.4515625 37.8760937,48.4515625 L37.8760937,44.35 Z M4.83875,25.889375 C10.1249219,17.84675 22.3854687,5.17578125 37.8760937,5.17578125 L37.8760937,1.07421875 C20.2465625,1.07421875 6.91425,15.2640781 1.41125,23.6365625 L4.83875,25.889375 Z M37.8760937,5.17578125 C53.3667187,5.17578125 65.6273437,17.84675 70.9135937,25.889375 L74.3410937,23.6365625 C68.8379687,15.2640781 55.5057812,1.07421875 37.8760937,1.07421875 L37.8760937,5.17578125 Z M70.9135937,23.6365625 C65.6273437,31.6790625 53.3667187,44.35 37.8760937,44.35 L37.8760937,48.4515625 C55.5057812,48.4515625 68.8379687,34.2617188 74.3410937,25.889375 L70.9135937,23.6365625 Z" id="path16_stroke"></path>
                </g>
            </g>
            <g id="Oval" transform="translate(21.875000, 9.375000)">
                <g id="path17_stroke-link" transform="translate(0.953125, 0.687500)">
                    <path d="M24.1782812,14.9387969 C24.1782812,19.903125 20.1115625,23.969375 15.0432656,23.969375 L15.0432656,29.5357812 C23.1395312,29.5357812 29.7446875,23.0235937 29.7446875,14.9387969 L24.1782812,14.9387969 Z M15.0432656,23.969375 C9.97495313,23.969375 5.90820312,19.903125 5.90820312,14.9387969 L0.341796875,14.9387969 C0.341796875,23.0235937 6.94701562,29.5357812 15.0432656,29.5357812 L15.0432656,23.969375 Z M5.90820312,14.9387969 C5.90820312,9.97439062 9.97495313,5.90820312 15.0432656,5.90820312 L15.0432656,0.341796875 C6.94701562,0.341796875 0.341796875,6.85404687 0.341796875,14.9387969 L5.90820312,14.9387969 Z M15.0432656,5.90820312 C20.1115625,5.90820312 24.1782812,9.97439062 24.1782812,14.9387969 L29.7446875,14.9387969 C29.7446875,6.85404687 23.1395312,0.341796875 15.0432656,0.341796875 L15.0432656,5.90820312 Z" id="path17_stroke"></path>
                </g>
            </g>
        </g>
    </g>
</svg>