<?xml version="1.0" encoding="utf-8"?>
<!-- Generator: Adobe Illustrator 21.1.0, SVG Export Plug-In . SVG Version: 6.00 Build 0)  -->
<svg version="1.1" id="Layer_1" xmlns="http://www.w3.org/2000/svg" xmlns:xlink="http://www.w3.org/1999/xlink" x="0px" y="0px"
	 viewBox="0 0 122 24" style="enable-background:new 0 0 122 24;" xml:space="preserve">
<style type="text/css">
	.st0{fill:#A2B0CD;}
</style>
<title>logo</title>
<path class="st0" d="M13.9,17.5l4,3.7C16,22.9,13.4,24,10.5,24C4.7,24,0,19.7,0,14.3C0,9,4.7,4.6,10.5,4.6c2.9,0,5.5,1.1,7.4,2.8
	l-4,3.7c-0.9-0.9-2.1-1.4-3.4-1.4c-0.9,0-1.6,0.2-2.3,0.6C8.7,10.5,9,11,9,11.5c0,0.8-0.6,1.4-1.4,1.4c-0.5,0-1-0.3-1.3-0.8
	c-0.4,0.7-0.6,1.4-0.6,2.2c0,2.5,2.1,4.6,4.8,4.6C11.8,18.9,13,18.4,13.9,17.5z M31.1,9.7V5.1h2.4V2.3L39.1,0v5.1h4.7v4.6h-4.7v7.4
	c0,1.3,0.7,1.8,1.9,1.8c0.8,0,1.4-0.5,1.4-0.5l1.9,4.2c-1,0.8-2.3,1.4-4.7,1.4c-3,0-6.1-1.7-6.1-6.9V9.7H31.1L31.1,9.7z M49,24V5.4
	h5.4V24H49z M21.8,24V5.4h5.4V24H21.8z M68.4,10.1H60V5.4h17.7l-9.3,13.9h8.4V24H59.1L68.4,10.1z M90.3,19.5c2.3,0,3.7-0.9,4.7-1.8
	l3.2,3.2c-1.6,1.8-4,3.1-7.8,3.1C84.1,24,80,19.9,80,14.3s4.3-9.7,9.8-9.7c6.4,0,10,5.1,9.6,11.5H85.6
	C86.1,18.2,87.6,19.5,90.3,19.5L90.3,19.5z M94,12.4c-0.4-1.8-1.8-3.1-4.1-3.1c-2.3,0-3.9,1.1-4.4,3.1H94z M103.4,5.1h5.6v2.3
	c0,0,1.6-2.7,5.6-2.7c4.7,0,7.5,2.4,7.5,7.3v11.3h-5.6v-10c0-2.1-1-4.1-3.3-4.1s-4.2,1.3-4.2,4.1v10h-5.6
	C103.4,23.2,103.4,5.1,103.4,5.1z"/>
</svg>
