<?xml version="1.0" encoding="utf-8"?>
<!-- Generator: Adobe Illustrator 21.1.0, SVG Export Plug-In . SVG Version: 6.00 Build 0)  -->
<svg version="1.1" id="Layer_1" xmlns="http://www.w3.org/2000/svg" xmlns:xlink="http://www.w3.org/1999/xlink" x="0px" y="0px"
	 viewBox="0 0 946.7 162" style="enable-background:new 0 0 946.7 162;" xml:space="preserve">
<style type="text/css">
	.st0{fill:#A2B0CD;}
</style>
<g>
	<rect x="190.7" y="37" class="st0" width="18" height="88"/>
	<polygon class="st0" points="833.7,37 815.7,37 815.7,125 872.7,125 872.7,107 833.7,107 	"/>
	<polygon class="st0" points="946.7,55 946.7,37 889.7,37 889.7,125 946.7,125 946.7,107 907.7,107 907.7,90.2 940.2,90.2 
		940.2,72.2 907.7,72.2 907.7,55 	"/>
	<polygon class="st0" points="269.2,77.1 249.9,37.2 230.7,37.2 230.7,124.8 248.7,124.8 248.7,76 263.3,106.3 275.1,106.3 
		289.7,76 289.7,124.8 307.7,124.8 307.7,37.2 288.4,37.2 	"/>
	<path class="st0" d="M368.3,37h-37.1v88h18V90h19.1c14.6,0,26.5-11.9,26.5-26.5S382.9,37,368.3,37z M368.3,72h-19.1V55h19.1
		c4.7,0,8.5,3.8,8.5,8.5S372.9,72,368.3,72z"/>
	<path class="st0" d="M609.5,36.9h-37.8v88.3h37.8c14.6,0,26.5-11.9,26.5-26.5c0-6.8-2.6-13-6.7-17.6c4.2-4.7,6.7-10.9,6.7-17.6
		C636,48.7,624.1,36.9,609.5,36.9z M609.5,107.1h-19.8V90l19.8,0.2c4.7,0,8.5,3.8,8.5,8.5S614.2,107.1,609.5,107.1z M609.5,71.9
		l-19.8,0v-17h19.8c4.7,0,8.5,3.8,8.5,8.5S614.2,71.9,609.5,71.9z"/>
	<path class="st0" d="M770.5,36.9h-37.8v88.3h37.8c14.6,0,26.5-11.9,26.5-26.5c0-6.8-2.6-13-6.7-17.6c4.2-4.7,6.7-10.9,6.7-17.6
		C797,48.7,785.1,36.9,770.5,36.9z M770.5,107.1h-19.8V90l19.8,0.2c4.7,0,8.5,3.8,8.5,8.5S775.2,107.1,770.5,107.1z M770.5,71.9
		l-19.8,0v-17h19.8c4.7,0,8.5,3.8,8.5,8.5S775.2,71.9,770.5,71.9z"/>
	<path class="st0" d="M521.5,36.9c-9.6,0-18.4,3.9-24.8,11c-5.6,6.3-8.9,14.5-8.9,22.5v21.3c0,16.5,12.6,33.5,33.7,33.5
		c9.6,0,18.4-3.9,24.8-11c5.6-6.3,8.9-14.5,8.9-22.5V70.4C555.2,53.9,542.6,36.9,521.5,36.9z M537.2,91.6c0,6.5-5.4,15.5-15.7,15.5
		c-10.2,0-15.7-8-15.7-15.5V70.4c0-6.5,5.4-15.5,15.7-15.5c10.2,0,15.7,8,15.7,15.5V91.6z"/>
	<path class="st0" d="M473.2,63.5c0-14.6-11.9-26.5-26.5-26.5h-37.1v88h18V90h11l18.1,35.1h20.2l-19.3-37.4
		C466.8,83.5,473.2,74.2,473.2,63.5z M446.7,72h-19.1V55h19.1c4.7,0,8.5,3.8,8.5,8.5S451.4,72,446.7,72z"/>
	<path class="st0" d="M677.3,37l-33.4,88h19.3l5.3-14h30.5l5.3,14h19.3L690,37C690,37,677.3,37,677.3,37z M675.2,93l8.4-22.1L692,93
		H675.2z"/>
	<path class="st0" d="M0,162h162V0H0V162z M18,18h126v126H18V18z"/>
	<rect x="72" y="48" class="st0" width="18" height="64.3"/>
	<path class="st0" d="M126.7,23.9c-6.1,0-11.1,5-11.1,11.1s5,11.1,11.1,11.1s11.1-5,11.1-11.1S132.8,23.9,126.7,23.9z M126.7,40.2
		c-2.9,0-5.2-2.3-5.2-5.2s2.3-5.2,5.2-5.2s5.2,2.3,5.2,5.2S129.6,40.2,126.7,40.2z"/>
</g>
</svg>
