<?xml version="1.0" encoding="utf-8"?>
<!-- Generator: Adobe Illustrator 21.0.2, SVG Export Plug-In . SVG Version: 6.00 Build 0)  -->
<svg version="1.1" id="Layer_1" xmlns="http://www.w3.org/2000/svg" xmlns:xlink="http://www.w3.org/1999/xlink" x="0px" y="0px"
	 viewBox="0 0 154.3 41.1" style="enable-background:new 0 0 154.3 41.1;" xml:space="preserve">
<style type="text/css">
	.st0{fill:#00A9CE;}
</style>
<g>
	<path class="st0" d="M45,11.4c-8.2,0-14.9,6.7-14.9,14.9S36.8,41.1,45,41.1s14.9-6.7,14.9-14.9S53.2,11.4,45,11.4z M52.2,26.1
		c0,4.1-3.2,7.4-7.1,7.4s-7.1-3.3-7.1-7.4s3.2-7.4,7.1-7.4S52.2,22,52.2,26.1z M97,12c-0.2-0.2-0.4-0.2-0.6-0.2h-5.9
		c-0.4,0-0.7,0.4-0.7,0.7v27c0,0.2,0,0.4,0.2,0.6c0.2,0.2,0.4,0.2,0.6,0.2h5.9c0.4,0,0.7-0.4,0.7-0.7v-27C97.2,12.3,97.2,12.1,97,12
		z M93.5,8.2c2.2,0,4.1-1.9,4.1-4.1c0.2-2.2-1.9-4.1-4.1-4.1s-4.1,1.9-4.1,4.1C89.4,6.6,91.3,8.2,93.5,8.2z M85.5,0.6H63.8
		C63.4,0.6,63,1,63,1.4v38.1c0,0.2,0,0.4,0.2,0.6c0.2,0.2,0.4,0.2,0.6,0.2h5.9c0.4,0,0.7-0.4,0.7-0.7V24h13.4c0.2,0,0.4,0,0.6-0.2
		c0.2-0.2,0.2-0.4,0.2-0.6v-5.6c0-0.4-0.4-0.7-0.7-0.7H70.4V7.7h15.1c0.2,0,0.4,0,0.6-0.2c0.2-0.2,0.2-0.4,0.2-0.6V1.4
		C86.2,1,85.9,0.6,85.5,0.6z M16.2,17.2c-5.9-2.6-7.8-3.7-7.8-5.9c0-3,2.8-3.9,5.4-3.9c2.8,0,5.8,1.5,5.8,5.6c0,0.4,0.2,0.6,0.6,0.6
		h6.5c0.2-0.2,0.4-0.4,0.4-0.6c0-7.4-5.4-12.8-13.2-12.8C5.9,0.1,0.9,4.5,0.9,11.2c0,8,5.9,10.4,11.7,12.6L13,24
		c5.4,2,7.2,3,7.2,5.6c0,3.5-3.7,4.1-5.8,4.1c-3.9,0-6.9-2.8-6.9-6.5v-0.4c0-0.4-0.2-0.6-0.6-0.6H0.6c-0.2,0-0.6,0.2-0.6,0.6v0.6
		c0,8.2,5.9,13.8,14.3,13.8c8,0,13.4-4.6,13.4-11.3C27.9,22.9,24.3,20.5,16.2,17.2z M154.3,39.1c0,1.1-0.7,1.9-1.9,1.9
		c-1.1,0-1.9-0.7-1.9-1.9c0-1.1,0.7-1.9,1.9-1.9C153.5,37.2,154.3,38,154.3,39.1z M150.9,39.1c0,0.9,0.6,1.5,1.5,1.5
		c0.9,0,1.5-0.6,1.5-1.5c0-0.9-0.6-1.5-1.5-1.5C151.5,37.6,150.9,38.2,150.9,39.1z M153.2,38.7c0,0.2-0.2,0.4-0.4,0.6l0.4,0.7h-0.6
		l-0.4-0.7H152V40h-0.4v-1.9h0.7C152.8,38.2,153.2,38.4,153.2,38.7z M152.2,38.5v0.6h0.2c0.2,0,0.4-0.2,0.4-0.2
		c0-0.2-0.2-0.2-0.4-0.2h-0.2V38.5z M144.6,1.7c2.6,0,4.6,2,4.6,4.6s-2,4.6-4.6,4.6S140,9,140,6.4S142,1.7,144.6,1.7 M144.6,0.1
		c-3.5,0-6.5,3-6.5,6.5s3,6.5,6.5,6.5c3.5,0,6.5-3,6.5-6.5S148.1,0.1,144.6,0.1z"/>
	<ellipse transform="matrix(0.8785 -0.4777 0.4777 0.8785 7.7778 71.5714)" class="st0" cx="144.6" cy="20.5" rx="6.5" ry="6.5"/>
	<ellipse transform="matrix(0.8785 -0.4777 0.4777 0.8785 1.1164 73.2608)" class="st0" cx="144.6" cy="34.4" rx="6.5" ry="6.5"/>
	<path class="st0" d="M130.7,15.9c1.3,0,2.4,0.6,3.3,1.3c0.9,0.9,1.3,2,1.3,3.3c0,2.6-2,4.6-4.6,4.6c-1.3,0-2.4-0.6-3.3-1.3
		c-0.9-0.9-1.3-2-1.3-3.3C125.8,17.9,128.1,15.9,130.7,15.9 M130.7,14c-3.5,0-6.5,3-6.5,6.5s3,6.5,6.5,6.5c3.5,0,6.5-3,6.5-6.5
		S134.2,14,130.7,14z"/>
	<ellipse transform="matrix(0.405 -0.9143 0.9143 0.405 50.7242 118.8623)" class="st0" cx="116.7" cy="20.5" rx="6.5" ry="6.5"/>
	<ellipse transform="matrix(0.405 -0.9143 0.9143 0.405 71.7766 123.3428)" class="st0" cx="130.7" cy="6.5" rx="6.5" ry="6.5"/>
	<ellipse transform="matrix(0.405 -0.9143 0.9143 0.405 63.4907 110.5764)" class="st0" cx="116.7" cy="6.5" rx="6.5" ry="6.5"/>
	<ellipse transform="matrix(0.405 -0.9143 0.9143 0.405 46.2437 139.9147)" class="st0" cx="130.6" cy="34.4" rx="6.5" ry="6.5"/>
	<path class="st0" d="M116.7,29.8c1.3,0,2.4,0.6,3.3,1.3c0.9,0.9,1.3,2,1.3,3.3c0,2.6-2,4.6-4.6,4.6s-4.6-2-4.6-4.6
		C111.9,31.8,114.1,29.8,116.7,29.8 M116.7,27.9c-3.5,0-6.5,3-6.5,6.5s3,6.5,6.5,6.5c3.5,0,6.5-3,6.5-6.5S120.3,27.9,116.7,27.9z"/>
</g>
</svg>
