<svg width="653" height="464" viewBox="0 0 653 464" fill="none" xmlns="http://www.w3.org/2000/svg">
<g clip-path="url(#clip0_5428_36387)">
<g opacity="0.2" clip-path="url(#clip1_5428_36387)">
<path d="M439.847 -89.964L-458.766 513.987M483.03 -61.1562L-415.583 542.795M526.213 -32.3477L-372.399 571.604M569.769 -3.29123L-328.844 600.66M612.952 25.5167L-285.661 629.468M656.135 54.3251L-242.478 658.277M699.319 83.1336L-199.294 687.085M742.502 111.941L-156.111 715.893M786.057 140.998L-112.556 744.949M829.241 169.806L-69.3719 773.758M872.424 198.614L-26.1891 802.566M915.608 227.423L16.9946 831.374M959.163 256.479L60.5501 860.431M1002.35 285.288L103.734 889.239M1045.53 314.096L146.917 918.047M1088.71 342.904L190.1 946.856M1131.9 371.712L233.283 975.663M1175.45 400.769L276.839 1004.72M1218.63 429.575L320.019 1033.53M1261.82 458.388L363.21 1062.34M-464.633 459.642L443.704 1065.61M-421.263 430.493L487.073 1036.46M-377.896 401.346L530.441 1007.31M-334.528 372.2L573.808 978.164M-291.161 343.053L617.175 949.017M-247.794 313.906L660.542 919.871M-204.427 284.759L703.91 890.724M-161.06 255.613L747.277 861.577M-117.693 226.466L790.644 832.43M-74.3256 197.319L834.011 803.284M-30.9584 168.172L877.378 774.137M12.4087 139.026L920.745 744.99M55.7759 109.879L964.113 715.843M99.143 80.7321L1007.48 686.697M142.51 51.5853L1050.85 657.55M185.877 22.4386L1094.21 628.403M229.245 -6.70821L1137.58 599.256M272.612 -35.855L1180.95 570.11M315.979 -65.0017L1224.32 540.963M359.346 -94.1485L1267.68 511.816" stroke="url(#paint0_linear_5428_36387)"/>
</g>
<path d="M233.076 282.228L265.05 260.658" stroke="#A6B6D9" stroke-dasharray="7 7"/>
<ellipse opacity="0.8" cx="369" cy="289" rx="233" ry="139" fill="url(#paint1_radial_5428_36387)"/>
<ellipse opacity="0.8" cx="305.5" cy="220" rx="256.5" ry="166" fill="url(#paint2_radial_5428_36387)"/>
<path d="M688 207L307.5 463" stroke="url(#paint3_linear_5428_36387)" stroke-dasharray="5 5"/>
<path d="M447.5 20L67 276" stroke="url(#paint4_linear_5428_36387)" stroke-dasharray="5 5"/>
<g filter="url(#filter0_d_5428_36387)">
<path d="M294.897 86.2889C302.871 81.4168 315.103 81.5127 322.883 86.5083L572.738 246.936C573.602 247.49 574.061 248.271 573.993 249.072L572.098 271.648C571.825 274.898 569.84 277.978 566.497 280.342L396.673 396.404C388.652 402.074 375.212 402.136 367.099 396.54L124.129 232.94C117.633 228.459 114 222.456 114 216.203L114 202.898C114 199.029 116.433 195.338 120.701 192.73L294.897 86.2889Z" fill="white"/>
<path d="M396.391 395.991L396.384 395.995C392.475 398.759 387.216 400.173 381.918 400.197C376.62 400.221 371.338 398.857 367.383 396.128L367.378 396.125L124.413 232.528C124.412 232.528 124.411 232.527 124.41 232.526C118.011 228.112 114.5 222.247 114.5 216.203L114.5 202.898C114.5 199.255 116.793 195.704 120.962 193.157L295.158 86.7155C299.051 84.3368 304.007 83.1594 308.959 83.1982C313.911 83.237 318.817 84.4919 322.613 86.9291L572.468 247.356C573.227 247.843 573.543 248.467 573.495 249.03L571.599 271.606C571.342 274.671 569.466 277.63 566.212 279.931C566.211 279.932 566.21 279.933 566.208 279.934L396.391 395.991Z" stroke="#A6B6D9"/>
</g>
<path d="M401.167 373.063L401.163 373.065C396.275 376.434 389.776 378.157 383.232 378.197C376.689 378.236 370.151 376.59 365.186 373.28L365.184 373.278L122.723 213.609C122.722 213.608 122.722 213.608 122.721 213.608C117.187 209.917 114.493 205.122 114.5 200.391C114.507 195.659 117.217 190.86 122.763 187.166L272.058 87.7335C280.488 82.1187 291.522 79.2595 302.608 79.1983C313.695 79.137 324.786 81.8739 333.332 87.3957L565.901 237.673C570.906 240.907 573.401 245.147 573.497 249.346C573.593 253.543 571.298 257.831 566.45 261.172C566.449 261.173 566.448 261.173 566.447 261.174L401.167 373.063Z" fill="white" stroke="#A6B6D9"/>
<g filter="url(#filter1_d_5428_36387)">
<path d="M512.178 -45.7913C521.285 -51.5698 535.553 -51.5507 544.6 -45.7477L758.324 91.3272C759.314 91.9625 759.84 92.8564 759.763 93.7741L758.251 111.757C757.938 115.473 755.669 118.997 751.846 121.702L609.522 222.418C600.451 228.837 585.281 229.01 575.915 222.802L374.172 89.0689C366.382 83.9049 362 76.8681 362 69.5228L362 56.2749C362 51.9503 364.658 47.8137 369.349 44.8369L512.178 -45.7913Z" fill="#F9FAFB"/>
<path d="M512.582 -45.5059C521.461 -51.14 535.372 -51.1213 544.194 -45.4634L757.917 91.6115C758.784 92.1674 759.244 92.9495 759.176 93.7525L757.664 111.735C757.36 115.358 755.147 118.794 751.42 121.432L609.095 222.148C600.251 228.406 585.46 228.575 576.329 222.522L374.586 88.7891C366.907 83.6988 362.588 76.7626 362.588 69.5223L362.588 56.2744C362.588 52.0578 365.179 48.0247 369.753 45.1223L512.582 -45.5059Z" stroke="url(#paint5_linear_5428_36387)"/>
</g>
<path d="M487.968 -40.3938C507.141 -53.3098 538.197 -53.6031 557.853 -41.0539L746.88 79.6287C758.454 87.0183 758.794 99.3188 747.636 107.011L613.424 199.538C602.293 207.212 583.974 207.364 572.594 199.877L372.502 68.2388C359.728 59.8349 359.621 46.066 372.264 37.5495L487.968 -40.3938Z" fill="#F9FAFB" stroke="url(#paint6_linear_5428_36387)"/>
<g filter="url(#filter2_d_5428_36387)">
<path d="M8.77977 -95.6703C17.9635 -101.498 32.3761 -101.422 41.3979 -95.4996L252.097 42.819C253.063 43.453 253.573 44.3355 253.497 45.2404L251.981 63.2714C251.67 66.9717 249.418 70.4817 245.624 73.1829L106.636 172.12C97.4514 178.657 81.987 178.748 72.6597 172.319L-129.599 32.9101C-137.045 27.7784 -141.209 20.9041 -141.208 13.7445L-141.208 6.275C-141.208 1.95043 -138.55 -2.18606 -133.859 -5.16276L8.77977 -95.6703Z" fill="#F9FAFB"/>
<path d="M9.18359 -95.3849C18.1377 -101.067 32.19 -100.993 40.9862 -95.2185L251.685 43.1001C252.53 43.6549 252.977 44.427 252.91 45.2189L251.394 63.2498C251.091 66.8576 248.896 70.2798 245.196 72.9135L106.208 171.85C97.2533 178.225 82.1755 178.313 73.0814 172.045L-129.178 32.6358C-136.517 27.5774 -140.621 20.8013 -140.621 13.7439L-140.621 6.27445C-140.621 2.05799 -138.029 -1.97508 -133.455 -4.87737L9.18359 -95.3849Z" stroke="url(#paint7_linear_5428_36387)"/>
</g>
<path d="M-15.2392 -90.955C3.99834 -103.604 34.7304 -103.769 54.2162 -91.3289L243.675 29.6294C255.249 37.019 255.589 49.3195 244.43 57.012L110.363 149.439C99.1767 157.151 80.7478 157.261 69.3902 149.684L-131.154 15.8984C-143.887 7.40427 -143.797 -6.42629 -130.955 -14.8704L-15.2392 -90.955Z" fill="#F9FAFB" stroke="url(#paint8_linear_5428_36387)"/>
<path d="M-27.0039 -69.3955L178.757 67.8708" stroke="url(#paint9_linear_5428_36387)" stroke-opacity="0.3"/>
<path d="M17.2109 -99.1123L222.972 38.1541" stroke="url(#paint10_linear_5428_36387)" stroke-opacity="0.3"/>
<path d="M-71.2188 -39.6797L134.543 97.5866" stroke="url(#paint11_linear_5428_36387)" stroke-opacity="0.3"/>
<path d="M-115.434 -9.96289L90.3277 127.303" stroke="url(#paint12_linear_5428_36387)" stroke-opacity="0.3"/>
<path d="M-100.005 0.000698278L108 -28.0002L135.4 16.5172L173.921 19.7634L165 57.4993" stroke="#A6B6D9" stroke-width="3"/>
<path d="M176.721 21.7561C175.075 22.8628 172.404 22.8676 170.756 21.7681C169.108 20.6689 169.105 18.8805 170.752 17.7738C172.398 16.6671 175.069 16.6623 176.717 17.7616C178.365 18.861 178.368 20.6494 176.721 21.7561Z" fill="white" stroke="#A6B6D9" stroke-width="3"/>
<path d="M138.385 18.385C136.739 19.4918 134.068 19.4964 132.42 18.3969C130.772 17.2977 130.769 15.5094 132.416 14.4026C134.062 13.2961 136.733 13.2912 138.381 14.3905C140.029 15.4899 140.032 17.2785 138.385 18.385Z" fill="white" stroke="#A6B6D9" stroke-width="3"/>
<path d="M11.6175 74.4478C9.9711 75.5543 7.30008 75.5591 5.65195 74.4596C4.00423 73.3604 4.00157 71.5719 5.64795 70.4654C7.29473 69.3586 9.96574 69.3537 11.6135 70.453C13.2616 71.5524 13.2643 73.341 11.6175 74.4478Z" fill="white" stroke="#A6B6D9" stroke-width="3"/>
<path d="M167.95 59.9856C166.303 61.0923 163.632 61.0971 161.984 59.9976C160.336 58.8984 160.334 57.11 161.98 56.0033C163.627 54.8966 166.298 54.8918 167.945 55.991C169.594 57.0905 169.596 58.879 167.95 59.9856Z" fill="white" stroke="#A6B6D9" stroke-width="3"/>
<path d="M10.4998 73.2828L54.4998 103.5L98.3228 73.2828L119.341 87.3046" stroke="#A6B6D9" stroke-width="3"/>
<path d="M29.3929 6.94037C27.7461 8.04716 25.0751 8.05202 23.4273 6.95281C21.7792 5.85332 21.777 4.06507 23.4237 2.95828C25.0701 1.85177 27.7407 1.84663 29.3889 2.94612C31.0366 4.04534 31.0392 5.83385 29.3929 6.94037Z" fill="white" stroke="#A6B6D9" stroke-width="3"/>
<path d="M50.7811 21.7023C49.1348 22.8089 46.4638 22.8137 44.816 21.7145C43.1679 20.615 43.1656 18.8268 44.812 17.7203C46.4588 16.6135 49.1294 16.6083 50.7775 17.7078C52.4252 18.8071 52.4279 20.5956 50.7811 21.7023Z" fill="white" stroke="#A6B6D9" stroke-width="3"/>
<path d="M69.2194 38.4445C67.5727 39.5513 64.9021 39.5559 63.2539 38.4564C61.6062 37.3572 61.6031 35.569 63.2499 34.4622C64.8963 33.3557 67.5673 33.3508 69.215 34.45C70.8631 35.5495 70.8658 37.338 69.2194 38.4445Z" fill="white" stroke="#A6B6D9" stroke-width="3"/>
<path d="M101.311 75.1496C99.6645 76.2564 96.9939 76.261 95.3457 75.1615C93.698 74.0623 93.6949 72.2741 95.3417 71.1673C96.9885 70.0605 99.6591 70.0559 101.307 71.1551C102.955 72.2546 102.958 74.0428 101.311 75.1496Z" fill="white" stroke="#A6B6D9" stroke-width="3"/>
<path d="M123.067 89.6633C121.42 90.7701 118.75 90.7747 117.102 89.6752C115.454 88.576 115.451 86.7877 117.098 85.6809C118.744 84.5742 121.415 84.5696 123.063 85.6688C124.711 86.7683 124.714 88.5565 123.067 89.6633Z" fill="white" stroke="#A6B6D9" stroke-width="3"/>
<path d="M-79.7312 -9.06536L-48.3954 -0.743045L-35.8502 20.2083L-18.1474 37.1992L3.60867 51.713L22.2326 68.3319L32.567 90.7694L54.3231 105.283L75.3417 119.305" stroke="#A6B6D9" stroke-width="3"/>
<path d="M35.5534 92.635C33.9066 93.7418 31.236 93.7464 29.5879 92.6469C27.9402 91.5476 27.9371 89.7594 29.5839 88.6526C31.2307 87.5458 33.9013 87.5412 35.549 88.6405C37.1971 89.7399 37.2002 91.5282 35.5534 92.635Z" fill="white" stroke="#A6B6D9" stroke-width="3"/>
<path d="M6.78114 53.7023C5.13477 54.8089 2.46375 54.8137 0.816032 53.7145C-0.832095 52.615 -0.83435 50.8268 0.812024 49.7203C2.45881 48.6135 5.1294 48.6083 6.77752 49.7078C8.42524 50.8071 8.42792 52.5956 6.78114 53.7023Z" fill="white" stroke="#A6B6D9" stroke-width="3"/>
<path d="M25.2194 70.4445C23.5727 71.5513 20.9021 71.5559 19.2539 70.4564C17.6062 69.3572 17.6031 67.569 19.2499 66.4622C20.8963 65.3557 23.5673 65.3508 25.215 66.45C26.8631 67.5495 26.8658 69.338 25.2194 70.4445Z" fill="white" stroke="#A6B6D9" stroke-width="3"/>
<path d="M57.3112 107.15C55.6645 108.256 52.9939 108.261 51.3457 107.162C49.698 106.062 49.6949 104.274 51.3417 103.167C52.9885 102.06 55.6591 102.056 57.3068 103.155C58.955 104.255 58.958 106.043 57.3112 107.15Z" fill="white" stroke="#A6B6D9" stroke-width="3"/>
<path d="M79.0671 121.663C77.4203 122.77 74.7497 122.775 73.1016 121.675C71.4539 120.576 71.4508 118.788 73.0976 117.681C74.7444 116.574 77.415 116.57 79.0627 117.669C80.7108 118.768 80.7139 120.557 79.0671 121.663Z" fill="white" stroke="#A6B6D9" stroke-width="3"/>
<path d="M-5.8738 93.0362L-5.21972 92.5966L-3.66204 93.6358C-3.29901 93.878 -2.95203 94.0125 -2.6203 94.039C-2.28897 94.0656 -1.9851 93.9858 -1.70907 93.8003L-1.70175 93.7954C-1.51842 93.6722 -1.40754 93.5403 -1.36953 93.3997C-1.32948 93.2576 -1.36392 93.1083 -1.47408 92.9521C-1.57935 92.7959 -1.7587 92.6332 -2.01172 92.4644L-3.52294 91.4562L-2.91195 91.0456L-1.56207 91.9461C-1.20597 92.1837 -0.872018 92.3188 -0.559401 92.3515C-0.247189 92.3845 0.0343278 92.317 0.284333 92.149L0.291652 92.144C0.531901 91.9826 0.636596 91.802 0.605323 91.6026C0.576082 91.4012 0.413768 91.202 0.117553 91.0044L-1.37208 90.0107L-0.71801 89.5711L0.957826 90.689C1.28256 90.9057 1.5084 91.1266 1.63495 91.3514C1.76191 91.5766 1.79077 91.7951 1.72195 92.0078C1.65557 92.2183 1.49149 92.412 1.22929 92.5883L1.22238 92.5929C1.04148 92.7145 0.831626 92.801 0.593224 92.8526C0.354822 92.9043 0.113916 92.9205 -0.129491 92.9018C-0.370459 92.8815 -0.591133 92.8236 -0.791531 92.728L-0.852109 92.7687C-0.64181 92.9411 -0.505573 93.1229 -0.443384 93.3141C-0.381193 93.5059 -0.390236 93.6942 -0.471314 93.8797C-0.549546 94.0632 -0.700233 94.2305 -0.924221 94.381L-0.93154 94.386C-1.23155 94.5876 -1.56302 94.7143 -1.92555 94.7659C-2.28279 94.8178 -2.65155 94.795 -3.03062 94.6983C-3.41009 94.6014 -3.78359 94.4306 -4.15111 94.1855L-5.8738 93.0362ZM-6.27473 92.7688L-1.11894 89.3036L-0.31709 89.8385L-5.47288 93.3037L-6.27473 92.7688ZM-1.47784 95.9688L3.67795 92.5037L6.95831 94.6921L6.26521 95.1579L3.78711 93.5047L2.28262 94.5159L4.62829 96.0807L3.96405 96.5271L1.61837 94.9623L0.017521 96.0382L2.49562 97.6914L1.80252 98.1572L-1.47784 95.9688ZM2.8464 98.8536L8.00218 95.3884L8.92995 96.0074L6.46456 99.8655L6.52202 99.9038L12.278 98.2409L13.2057 98.8598L8.04993 102.325L7.31571 101.835L11.0959 99.2945L10.7019 99.0317L12.7689 98.76L5.74377 100.786L5.1493 100.39L8.15287 95.6806L7.75112 97.0632L7.36078 96.8028L3.58062 99.3434L2.8464 98.8536ZM13.1001 105.861C12.6201 105.541 12.3143 105.19 12.1822 104.809C12.0529 104.429 12.0954 104.041 12.3092 103.645C12.5254 103.247 12.9102 102.862 13.4626 102.491L13.47 102.486C14.0273 102.111 14.6015 101.852 15.1926 101.707C15.7837 101.562 16.3632 101.532 16.9307 101.617C17.4986 101.703 18.0231 101.906 18.5055 102.228C18.8853 102.482 19.1527 102.76 19.3083 103.065C19.4683 103.37 19.5157 103.676 19.4495 103.982C19.3853 104.29 19.2047 104.573 18.9072 104.831L18.886 104.845L18.0911 104.315L18.098 104.301C18.2597 104.125 18.3546 103.943 18.3832 103.754C18.4138 103.567 18.3801 103.384 18.2821 103.203C18.1841 103.023 18.0215 102.857 17.7945 102.706C17.4865 102.501 17.1383 102.377 16.7496 102.334C16.3608 102.292 15.9555 102.329 15.5333 102.446C15.1163 102.564 14.7032 102.76 14.2934 103.035L14.2861 103.04C13.8812 103.312 13.5907 103.589 13.415 103.87C13.2413 104.153 13.1872 104.425 13.2515 104.685C13.3167 104.945 13.5043 105.179 13.8148 105.386C14.0413 105.537 14.2845 105.648 14.5451 105.72C14.8097 105.791 15.0743 105.821 15.3388 105.81C15.6062 105.796 15.8601 105.741 16.1008 105.643L16.126 105.636L16.9242 106.168L16.9027 106.183C16.5192 106.371 16.1072 106.483 15.6656 106.52C15.225 106.558 14.7833 106.522 14.342 106.412C13.9006 106.303 13.4868 106.119 13.1001 105.861ZM17.9296 109.083C17.5401 108.823 17.2629 108.555 17.098 108.279C16.9327 108.004 16.8753 107.737 16.9249 107.48C16.9769 107.221 17.136 106.986 17.4031 106.775L17.4425 106.744L18.2338 107.272L18.2016 107.298C18.061 107.415 17.986 107.547 17.9769 107.694C17.9702 107.842 18.0238 107.998 18.1388 108.16C18.258 108.323 18.4336 108.482 18.6651 108.636C18.8851 108.783 19.1116 108.889 19.3453 108.956C19.5839 109.023 19.8122 109.047 20.0287 109.029C20.248 109.013 20.4364 108.952 20.5937 108.846L20.5974 108.843C20.7974 108.709 20.8866 108.549 20.8647 108.362C20.8453 108.173 20.702 107.94 20.4342 107.663L19.9861 107.206C19.578 106.781 19.3759 106.407 19.3802 106.084C19.3842 105.762 19.5757 105.473 19.9546 105.218L19.9579 105.216C20.2583 105.018 20.5999 104.895 20.9841 104.848C21.3702 104.802 21.7671 104.831 22.1754 104.935C22.5854 105.036 22.9732 105.209 23.3382 105.452C23.7037 105.696 23.9594 105.951 24.1055 106.217C24.2561 106.484 24.303 106.741 24.2464 106.991C24.1915 107.241 24.0393 107.464 23.7893 107.657L23.743 107.694L22.9586 107.17L22.9981 107.134C23.1196 107.024 23.1861 106.901 23.1977 106.765C23.2141 106.629 23.1748 106.488 23.0789 106.341C22.9879 106.195 22.8379 106.053 22.6276 105.916C22.4272 105.782 22.217 105.683 21.9975 105.62C21.7805 105.555 21.568 105.529 21.3609 105.544C21.1578 105.559 20.9756 105.621 20.8138 105.73L20.8102 105.732C20.6171 105.862 20.5294 106.018 20.5464 106.202C20.5679 106.385 20.7103 106.611 20.9733 106.879L21.4136 107.341C21.6982 107.632 21.8895 107.895 21.9876 108.13C22.0857 108.364 22.0934 108.578 22.0103 108.772C21.9316 108.965 21.7639 109.148 21.5066 109.321L21.5029 109.323C21.1765 109.543 20.812 109.679 20.4092 109.733C20.0109 109.786 19.5986 109.758 19.1715 109.648C18.7468 109.54 18.333 109.352 17.9296 109.083ZM22.5904 112.192C22.2013 111.933 21.9241 111.665 21.7592 111.389C21.5939 111.113 21.536 110.846 21.5857 110.589C21.6377 110.331 21.7973 110.096 22.0639 109.884L22.1033 109.853L22.895 110.381L22.8624 110.407C22.7218 110.524 22.6472 110.656 22.6381 110.803C22.631 110.951 22.685 111.107 22.7996 111.27C22.9192 111.433 23.0948 111.591 23.3263 111.746C23.5459 111.892 23.7728 111.999 24.0065 112.066C24.2451 112.132 24.473 112.156 24.6895 112.138C24.9092 112.122 25.0976 112.061 25.2549 111.955L25.2586 111.953C25.4586 111.819 25.5474 111.658 25.5255 111.471C25.5065 111.283 25.3628 111.05 25.095 110.772L24.6473 110.316C24.2392 109.89 24.0367 109.516 24.041 109.193C24.045 108.871 24.2366 108.582 24.6154 108.328L24.6187 108.326C24.9191 108.127 25.2607 108.004 25.6448 107.957C26.0314 107.912 26.4283 107.941 26.8362 108.044C27.2462 108.145 27.634 108.318 27.9995 108.562C28.3645 108.805 28.6206 109.06 28.7663 109.326C28.9169 109.593 28.9642 109.851 28.9072 110.1C28.8527 110.351 28.7005 110.573 28.4501 110.767L28.4038 110.803L27.6194 110.28L27.6593 110.243C27.7804 110.133 27.8473 110.01 27.8585 109.874C27.8753 109.739 27.8356 109.597 27.7397 109.451C27.6491 109.304 27.4987 109.162 27.2884 109.025C27.088 108.891 26.8782 108.793 26.6583 108.729C26.4413 108.664 26.2292 108.639 26.0217 108.653C25.819 108.669 25.6364 108.73 25.4746 108.839L25.471 108.841C25.2779 108.971 25.1902 109.128 25.2072 109.311C25.2291 109.495 25.3715 109.721 25.6341 109.988L26.0748 110.45C26.359 110.741 26.5503 111.005 26.6484 111.239C26.7469 111.474 26.7542 111.688 26.6711 111.881C26.5928 112.074 26.4251 112.258 26.1678 112.431L26.1641 112.433C25.8377 112.652 25.4733 112.789 25.07 112.842C24.6721 112.896 24.2594 112.867 23.8323 112.758C23.408 112.65 22.9938 112.461 22.5904 112.192Z" fill="black"/>
<g filter="url(#filter3_d_5428_36387)">
<path d="M221.78 -232.67C230.964 -238.498 245.376 -238.422 254.398 -232.5L465.097 -94.181C466.063 -93.547 466.573 -92.6645 466.497 -91.7596L464.981 -73.7286C464.67 -70.0283 462.418 -66.5183 458.624 -63.8171L319.636 35.1195C310.451 41.6574 294.987 41.7484 285.66 35.3195L83.4006 -104.09C75.9553 -109.222 71.7914 -116.096 71.7916 -123.256L71.7918 -130.725C71.7919 -135.05 74.4497 -139.186 79.141 -142.163L221.78 -232.67Z" fill="#F9FAFB"/>
<path d="M222.184 -232.385C231.138 -238.067 245.19 -237.993 253.986 -232.219L464.685 -93.8999C465.53 -93.3451 465.977 -92.573 465.91 -91.7811L464.394 -73.7502C464.091 -70.1424 461.896 -66.7202 458.196 -64.0865L319.208 34.8502C310.253 41.2246 295.176 41.3133 286.081 35.0451L83.8223 -104.364C76.4834 -109.423 72.379 -116.199 72.3792 -123.256L72.3793 -130.726C72.3794 -134.942 74.9708 -138.975 79.5448 -141.877L222.184 -232.385Z" stroke="url(#paint13_linear_5428_36387)"/>
</g>
<path d="M197.761 -227.955C216.998 -240.604 247.73 -240.769 267.216 -228.329L456.675 -107.371C468.249 -99.981 468.589 -87.6805 457.43 -79.988L323.363 12.4393C312.177 20.151 293.748 20.2612 282.39 12.6844L81.846 -121.102C69.1134 -129.596 69.203 -143.426 82.0454 -151.87L197.761 -227.955Z" fill="#F9FAFB" stroke="url(#paint14_linear_5428_36387)"/>
<path d="M260.996 131.604L466.757 268.871" stroke="url(#paint15_linear_5428_36387)" stroke-opacity="0.3"/>
<path d="M305.211 101.888L510.972 239.154" stroke="url(#paint16_linear_5428_36387)" stroke-opacity="0.3"/>
<path d="M216.781 161.32L422.543 298.587" stroke="url(#paint17_linear_5428_36387)" stroke-opacity="0.3"/>
<path d="M172.566 191.037L378.328 328.303" stroke="url(#paint18_linear_5428_36387)" stroke-opacity="0.3"/>
<path d="M464.721 222.756C463.075 223.863 460.404 223.868 458.756 222.768C457.108 221.669 457.105 219.88 458.752 218.774C460.398 217.667 463.069 217.662 464.717 218.762C466.365 219.861 466.368 221.649 464.721 222.756Z" fill="white" stroke="#A6B6D9" stroke-width="3"/>
<path d="M187.994 201.001L296.711 273.528L423.399 217.518L461.919 220.764L493.992 228.098" stroke="#00A1C7" stroke-width="3"/>
<path d="M190.995 202.982C189.348 204.089 186.677 204.094 185.029 202.995C183.381 201.896 183.379 200.107 185.025 199C186.672 197.894 189.343 197.889 190.991 198.988C192.638 200.088 192.641 201.876 190.995 202.982Z" fill="white" stroke="#00A1C7" stroke-width="3"/>
<path d="M212.594 217.394C210.947 218.5 208.277 218.505 206.629 217.406C204.981 216.307 204.978 214.518 206.625 213.412C208.271 212.305 210.942 212.3 212.59 213.399C214.238 214.499 214.241 216.287 212.594 217.394Z" fill="white" stroke="#00A1C7" stroke-width="3"/>
<path d="M234.349 231.906C232.703 233.013 230.032 233.018 228.384 231.919C226.736 230.819 226.734 229.031 228.38 227.924C230.027 226.818 232.698 226.812 234.346 227.912C235.994 229.011 235.996 230.8 234.349 231.906Z" fill="white" stroke="#00A1C7" stroke-width="3"/>
<path d="M426.385 219.385C424.739 220.492 422.068 220.496 420.42 219.397C418.772 218.298 418.769 216.509 420.416 215.403C422.062 214.296 424.733 214.291 426.381 215.39C428.029 216.49 428.032 218.278 426.385 219.385Z" fill="white" stroke="#00A1C7" stroke-width="3"/>
<path d="M256.105 246.42C254.459 247.527 251.788 247.532 250.14 246.432C248.492 245.333 248.49 243.545 250.136 242.438C251.783 241.331 254.454 241.326 256.102 242.426C257.749 243.525 257.752 245.313 256.105 246.42Z" fill="white" stroke="#00A1C7" stroke-width="3"/>
<path d="M277.863 260.934C276.217 262.04 273.546 262.045 271.898 260.946C270.25 259.846 270.248 258.058 271.894 256.952C273.541 255.845 276.211 255.84 277.86 256.939C279.507 258.038 279.51 259.827 277.863 260.934Z" fill="white" stroke="#00A1C7" stroke-width="3"/>
<path d="M299.617 275.448C297.971 276.554 295.3 276.559 293.652 275.46C292.004 274.36 292.002 272.572 293.648 271.465C295.295 270.359 297.966 270.354 299.613 271.453C301.262 272.552 301.264 274.341 299.617 275.448Z" fill="white" stroke="#00A1C7" stroke-width="3"/>
<path d="M497.163 230.087C495.516 231.194 492.845 231.199 491.197 230.099C489.549 229 489.547 227.212 491.193 226.105C492.84 224.998 495.511 224.993 497.158 226.093C498.807 227.192 498.809 228.981 497.163 230.087Z" fill="white" stroke="#00A1C7" stroke-width="3"/>
<path d="M213.089 183.556L244.425 191.878L256.97 212.829L274.673 229.82L296.429 244.334L315.053 260.953L325.387 283.391L347.143 297.904L368.162 311.926" stroke="#17AB52" stroke-width="3"/>
<path d="M216.262 185.791C214.615 186.898 211.945 186.903 210.297 185.803C208.649 184.704 208.646 182.916 210.293 181.809C211.94 180.702 214.61 180.697 216.258 181.797C217.906 182.896 217.909 184.684 216.262 185.791Z" fill="white" stroke="#17AB52" stroke-width="3"/>
<path d="M247.231 194.114C245.584 195.221 242.913 195.226 241.265 194.127C239.617 193.027 239.615 191.239 241.262 190.132C242.908 189.026 245.579 189.021 247.227 190.12C248.875 191.219 248.877 193.008 247.231 194.114Z" fill="white" stroke="#17AB52" stroke-width="3"/>
<path d="M259.774 214.818C258.127 215.925 255.456 215.93 253.809 214.83C252.16 213.731 252.158 211.943 253.805 210.836C255.451 209.729 258.122 209.725 259.77 210.824C261.417 211.923 261.42 213.712 259.774 214.818Z" fill="white" stroke="#17AB52" stroke-width="3"/>
<path d="M328.374 285.256C326.727 286.363 324.056 286.367 322.408 285.268C320.76 284.169 320.757 282.381 322.404 281.274C324.051 280.167 326.722 280.162 328.369 281.262C330.017 282.361 330.021 284.149 328.374 285.256Z" fill="white" stroke="#17AB52" stroke-width="3"/>
<path d="M278.213 231.561C276.566 232.668 273.895 232.673 272.248 231.574C270.6 230.474 270.597 228.686 272.244 227.579C273.89 226.473 276.561 226.468 278.209 227.567C279.857 228.666 279.86 230.455 278.213 231.561Z" fill="white" stroke="#17AB52" stroke-width="3"/>
<path d="M299.601 246.323C297.955 247.43 295.284 247.435 293.636 246.336C291.988 245.236 291.986 243.448 293.632 242.341C295.279 241.235 297.95 241.229 299.598 242.329C301.246 243.428 301.248 245.217 299.601 246.323Z" fill="white" stroke="#17AB52" stroke-width="3"/>
<path d="M318.04 263.066C316.393 264.172 313.722 264.177 312.074 263.078C310.427 261.978 310.423 260.19 312.07 259.083C313.717 257.977 316.388 257.972 318.035 259.071C319.683 260.171 319.686 261.959 318.04 263.066Z" fill="white" stroke="#17AB52" stroke-width="3"/>
<path d="M350.132 299.771C348.485 300.878 345.814 300.882 344.166 299.783C342.518 298.683 342.515 296.895 344.162 295.788C345.809 294.682 348.479 294.677 350.127 295.776C351.775 296.876 351.778 298.664 350.132 299.771Z" fill="white" stroke="#17AB52" stroke-width="3"/>
<path d="M371.887 314.284C370.241 315.391 367.57 315.396 365.922 314.296C364.274 313.197 364.271 311.409 365.918 310.302C367.565 309.195 370.235 309.191 371.883 310.29C373.531 311.389 373.534 313.178 371.887 314.284Z" fill="white" stroke="#17AB52" stroke-width="3"/>
<path d="M216.138 250.015L220.6 247.015L218.978 245.933L219.671 245.467L223.718 248.167L223.025 248.633L221.406 247.553L216.944 250.552L216.138 250.015ZM219.61 252.417C219.364 252.253 219.19 252.075 219.087 251.882C218.989 251.689 218.971 251.496 219.032 251.304C219.097 251.114 219.245 250.941 219.479 250.784L219.486 250.779C219.717 250.624 219.971 250.529 220.247 250.493C220.526 250.456 220.82 250.478 221.127 250.559C221.44 250.639 221.758 250.777 222.083 250.971L223.604 251.872L223.058 252.239L221.644 251.41C221.362 251.241 221.109 251.148 220.885 251.129C220.663 251.112 220.466 251.161 220.295 251.276L220.288 251.281C220.109 251.401 220.037 251.539 220.07 251.695C220.106 251.853 220.229 252.003 220.439 252.143C220.633 252.272 220.843 252.361 221.07 252.41C221.298 252.457 221.521 252.466 221.738 252.435C221.958 252.403 222.151 252.331 222.318 252.219L223.532 251.402C223.747 251.258 223.843 251.104 223.821 250.94C223.804 250.775 223.666 250.606 223.405 250.432C223.188 250.287 222.973 250.195 222.761 250.155C222.549 250.116 222.35 250.127 222.164 250.188L222.146 250.195L221.397 249.696L221.43 249.679C221.673 249.557 221.943 249.489 222.241 249.474C222.539 249.459 222.846 249.498 223.161 249.59C223.478 249.68 223.785 249.824 224.081 250.022C224.408 250.24 224.633 250.46 224.754 250.682C224.881 250.903 224.906 251.119 224.827 251.328C224.754 251.537 224.581 251.733 224.309 251.916L221.658 253.698L220.885 253.182L221.439 252.81L221.381 252.771C221.174 252.808 220.966 252.82 220.759 252.806C220.554 252.793 220.353 252.754 220.158 252.687C219.965 252.622 219.782 252.532 219.61 252.417ZM222.649 254.358L226.525 251.753L227.306 252.274L223.429 254.879L222.649 254.358ZM227.605 251.555C227.472 251.465 227.404 251.357 227.404 251.229C227.404 251.102 227.469 250.993 227.6 250.906C227.734 250.816 227.895 250.772 228.083 250.773C228.274 250.772 228.436 250.817 228.57 250.906C228.704 250.995 228.771 251.104 228.77 251.232C228.774 251.358 228.708 251.466 228.574 251.555C228.444 251.643 228.283 251.688 228.092 251.688C227.901 251.688 227.739 251.644 227.605 251.555ZM224.477 255.578L229.868 251.954L230.646 252.473L225.254 256.096L224.477 255.578ZM227.039 257.287L229.849 253.97L230.629 254.491L228.33 256.967L228.388 257.005L232.18 255.525L232.921 256.02L230.73 258.567L230.787 258.606L234.476 257.057L235.249 257.573L230.302 259.464L229.5 258.929L231.585 256.448L231.527 256.41L227.838 257.82L227.039 257.287ZM232.062 260.638L235.938 258.033L236.719 258.554L232.843 261.159L232.062 260.638ZM237.019 257.834C236.885 257.745 236.818 257.637 236.817 257.509C236.818 257.381 236.883 257.273 237.014 257.186C237.147 257.096 237.308 257.051 237.496 257.053C237.688 257.052 237.85 257.097 237.983 257.186C238.117 257.275 238.184 257.384 238.184 257.512C238.187 257.638 238.121 257.746 237.988 257.835C237.857 257.923 237.696 257.967 237.505 257.968C237.315 257.968 237.152 257.924 237.019 257.834ZM233.855 261.834L237.731 259.229L238.508 259.747L237.919 260.143L237.976 260.182C238.279 260.106 238.582 260.091 238.885 260.137C239.192 260.183 239.487 260.299 239.769 260.487C240.206 260.779 240.415 261.086 240.396 261.408C240.378 261.731 240.138 262.048 239.675 262.358L237.167 264.044L236.387 263.523L238.716 261.957C239.035 261.743 239.206 261.537 239.226 261.341C239.253 261.145 239.122 260.951 238.836 260.76C238.647 260.634 238.442 260.553 238.22 260.516C238.003 260.48 237.781 260.487 237.555 260.537C237.331 260.588 237.114 260.684 236.904 260.825L234.632 262.352L233.855 261.834ZM239.486 265.682C239.159 265.464 238.957 265.219 238.881 264.947C238.804 264.676 238.849 264.395 239.015 264.104C239.184 263.815 239.471 263.534 239.876 263.262L239.883 263.257C240.292 262.982 240.712 262.788 241.141 262.675C241.572 262.561 241.99 262.53 242.393 262.582C242.798 262.633 243.166 262.768 243.495 262.988C243.672 263.106 243.809 263.235 243.907 263.377C244.008 263.518 244.066 263.662 244.083 263.811C244.105 263.959 244.079 264.103 244.005 264.242L244.063 264.28L246.196 262.846L246.976 263.367L241.585 266.991L240.804 266.47L241.419 266.057L241.361 266.019C241.144 266.065 240.926 266.084 240.707 266.075C240.49 266.064 240.278 266.026 240.07 265.961C239.863 265.896 239.668 265.803 239.486 265.682ZM240.373 265.378C240.588 265.522 240.827 265.609 241.089 265.641C241.353 265.674 241.628 265.651 241.911 265.572C242.197 265.495 242.477 265.365 242.751 265.181L242.759 265.176C243.035 264.99 243.229 264.802 243.341 264.612C243.457 264.421 243.49 264.238 243.44 264.061C243.394 263.884 243.264 263.723 243.049 263.58C242.834 263.437 242.596 263.349 242.333 263.318C242.071 263.286 241.798 263.31 241.514 263.389C241.235 263.467 240.956 263.6 240.678 263.787L240.671 263.792C240.397 263.977 240.2 264.163 240.081 264.351C239.965 264.542 239.931 264.725 239.979 264.9C240.027 265.076 240.158 265.235 240.373 265.378ZM246.581 270.491C246.101 270.171 245.795 269.821 245.663 269.439C245.534 269.059 245.577 268.671 245.79 268.275C246.007 267.877 246.391 267.492 246.943 267.121L246.951 267.116C247.508 266.741 248.083 266.482 248.674 266.337C249.265 266.192 249.844 266.162 250.412 266.248C250.98 266.333 251.504 266.536 251.987 266.858C252.366 267.112 252.634 267.39 252.789 267.695C252.95 268 252.996 268.306 252.931 268.612C252.866 268.921 252.686 269.203 252.388 269.461L252.367 269.475L251.572 268.945L251.579 268.931C251.741 268.755 251.836 268.573 251.864 268.384C251.895 268.197 251.861 268.014 251.763 267.833C251.665 267.653 251.503 267.488 251.276 267.336C250.968 267.131 250.619 267.007 250.231 266.964C249.842 266.922 249.437 266.959 249.014 267.077C248.597 267.194 248.184 267.39 247.775 267.665L247.767 267.67C247.362 267.942 247.072 268.219 246.896 268.5C246.722 268.783 246.668 269.055 246.733 269.315C246.798 269.575 246.985 269.809 247.296 270.016C247.522 270.167 247.766 270.279 248.026 270.35C248.29 270.421 248.555 270.451 248.82 270.44C249.087 270.426 249.341 270.371 249.582 270.273L249.607 270.266L250.405 270.798L250.384 270.813C250 271 249.588 271.113 249.147 271.15C248.706 271.188 248.264 271.152 247.823 271.043C247.382 270.933 246.968 270.749 246.581 270.491ZM251.41 273.713C251.021 273.453 250.744 273.186 250.579 272.909C250.414 272.634 250.356 272.367 250.406 272.11C250.458 271.851 250.617 271.616 250.884 271.405L250.924 271.374L251.715 271.902L251.683 271.928C251.542 272.045 251.467 272.177 251.458 272.324C251.451 272.472 251.505 272.628 251.62 272.791C251.739 272.953 251.915 273.112 252.146 273.266C252.366 273.413 252.593 273.519 252.826 273.586C253.065 273.653 253.293 273.677 253.51 273.659C253.729 273.643 253.918 273.582 254.075 273.476L254.079 273.474C254.279 273.339 254.368 273.179 254.345 272.992C254.326 272.803 254.183 272.571 253.915 272.293L253.467 271.837C253.059 271.411 252.857 271.037 252.861 270.714C252.865 270.392 253.057 270.103 253.436 269.849L253.439 269.846C253.739 269.647 254.081 269.525 254.465 269.478C254.851 269.432 255.248 269.462 255.656 269.564C256.067 269.666 256.454 269.839 256.819 270.082C257.185 270.326 257.44 270.581 257.587 270.847C257.737 271.114 257.784 271.372 257.728 271.621C257.673 271.872 257.52 272.094 257.27 272.288L257.224 272.324L256.44 271.8L256.479 271.764C256.601 271.654 256.667 271.531 256.679 271.395C256.695 271.259 256.656 271.118 256.56 270.971C256.469 270.825 256.319 270.683 256.109 270.546C255.908 270.412 255.698 270.313 255.478 270.25C255.262 270.185 255.049 270.159 254.842 270.174C254.639 270.189 254.457 270.251 254.295 270.36L254.291 270.362C254.098 270.492 254.01 270.648 254.028 270.832C254.049 271.016 254.191 271.241 254.454 271.509L254.895 271.971C255.179 272.262 255.371 272.525 255.468 272.76C255.567 272.994 255.575 273.209 255.491 273.402C255.413 273.595 255.245 273.778 254.988 273.951L254.984 273.954C254.658 274.173 254.293 274.309 253.89 274.363C253.492 274.416 253.079 274.388 252.653 274.279C252.228 274.171 251.814 273.982 251.41 273.713ZM256.072 276.822C255.682 276.563 255.405 276.295 255.24 276.019C255.075 275.743 255.017 275.477 255.067 275.22C255.119 274.961 255.278 274.726 255.545 274.515L255.584 274.483L256.376 275.011L256.344 275.037C256.203 275.154 256.128 275.286 256.119 275.433C256.112 275.582 256.166 275.737 256.281 275.9C256.4 276.063 256.576 276.221 256.807 276.376C257.027 276.522 257.253 276.629 257.488 276.696C257.726 276.762 257.954 276.786 258.171 276.769C258.39 276.752 258.579 276.691 258.736 276.586L258.74 276.583C258.94 276.449 259.029 276.288 259.007 276.101C258.988 275.913 258.844 275.68 258.576 275.403L258.128 274.946C257.72 274.52 257.518 274.146 257.522 273.824C257.526 273.501 257.718 273.213 258.097 272.958L258.1 272.956C258.4 272.757 258.742 272.634 259.126 272.587C259.512 272.542 259.909 272.571 260.317 272.674C260.727 272.775 261.115 272.948 261.481 273.192C261.846 273.435 262.101 273.69 262.247 273.957C262.398 274.223 262.445 274.481 262.388 274.73C262.334 274.981 262.181 275.203 261.931 275.397L261.885 275.433L261.101 274.91L261.14 274.874C261.262 274.763 261.328 274.64 261.34 274.505C261.356 274.369 261.317 274.227 261.221 274.081C261.13 273.934 260.98 273.792 260.77 273.655C260.569 273.521 260.359 273.423 260.139 273.359C259.922 273.294 259.71 273.269 259.503 273.284C259.3 273.298 259.118 273.36 258.956 273.469L258.952 273.471C258.759 273.601 258.671 273.758 258.688 273.941C258.71 274.125 258.852 274.35 259.115 274.618L259.556 275.08C259.84 275.372 260.031 275.635 260.13 275.869C260.228 276.104 260.235 276.318 260.152 276.511C260.074 276.705 259.906 276.888 259.649 277.061L259.645 277.063C259.319 277.282 258.954 277.419 258.551 277.472C258.153 277.525 257.741 277.498 257.313 277.388C256.889 277.28 256.475 277.091 256.072 276.822Z" fill="black"/>
<path d="M211.696 243.527C210.49 244.338 208.534 244.341 207.328 243.537C206.121 242.732 206.119 241.422 207.325 240.611C208.531 239.801 210.487 239.798 211.693 240.603C212.9 241.407 212.902 242.717 211.696 243.527Z" fill="#00A1C7" stroke="#00A1C7" stroke-width="3"/>
<path d="M282.126 294.036L282.78 293.597L284.338 294.636C284.701 294.878 285.048 295.013 285.38 295.039C285.711 295.066 286.015 294.986 286.291 294.8L286.298 294.795C286.482 294.672 286.592 294.54 286.63 294.4C286.671 294.258 286.636 294.108 286.526 293.952C286.421 293.796 286.241 293.633 285.988 293.464L284.477 292.456L285.088 292.046L286.438 292.946C286.794 293.184 287.128 293.319 287.441 293.352C287.753 293.385 288.034 293.317 288.284 293.149L288.292 293.144C288.532 292.983 288.637 292.802 288.605 292.603C288.576 292.401 288.414 292.202 288.118 292.004L286.628 291.011L287.282 290.571L288.958 291.689C289.283 291.906 289.508 292.127 289.635 292.351C289.762 292.577 289.791 292.795 289.722 293.008C289.656 293.218 289.491 293.412 289.229 293.588L289.222 293.593C289.041 293.714 288.832 293.801 288.593 293.853C288.355 293.904 288.114 293.92 287.871 293.902C287.63 293.882 287.409 293.824 287.208 293.728L287.148 293.769C287.358 293.941 287.494 294.123 287.557 294.314C287.619 294.506 287.61 294.694 287.529 294.88C287.45 295.063 287.3 295.231 287.076 295.381L287.068 295.386C286.768 295.588 286.437 295.714 286.074 295.766C285.717 295.818 285.348 295.795 284.969 295.698C284.59 295.601 284.216 295.431 283.849 295.185L282.126 294.036ZM281.725 293.769L286.881 290.304L287.683 290.839L282.527 294.304L281.725 293.769ZM286.522 296.969L291.678 293.504L294.958 295.692L294.265 296.158L291.787 294.505L290.283 295.516L292.628 297.081L291.964 297.527L289.618 295.962L288.018 297.038L290.496 298.691L289.803 299.157L286.522 296.969ZM290.846 299.854L296.002 296.388L296.93 297.007L294.465 300.866L294.522 300.904L300.278 299.241L301.206 299.86L296.05 303.325L295.316 302.835L299.096 300.295L298.702 300.032L300.769 299.76L293.744 301.786L293.149 301.39L296.153 296.681L295.751 298.063L295.361 297.803L291.581 300.343L290.846 299.854ZM301.1 306.861C300.62 306.541 300.314 306.19 300.182 305.809C300.053 305.429 300.095 305.041 300.309 304.645C300.525 304.247 300.91 303.862 301.463 303.491L301.47 303.486C302.027 303.111 302.602 302.852 303.193 302.707C303.784 302.562 304.363 302.532 304.931 302.617C305.499 302.703 306.023 302.906 306.506 303.228C306.885 303.482 307.153 303.76 307.308 304.065C307.468 304.37 307.516 304.676 307.449 304.982C307.385 305.29 307.205 305.573 306.907 305.831L306.886 305.845L306.091 305.315L306.098 305.301C306.26 305.125 306.355 304.943 306.383 304.754C306.414 304.567 306.38 304.384 306.282 304.203C306.184 304.023 306.021 303.857 305.795 303.706C305.486 303.501 305.138 303.377 304.75 303.334C304.361 303.292 303.956 303.329 303.533 303.446C303.116 303.564 302.703 303.76 302.293 304.035L302.286 304.04C301.881 304.312 301.591 304.589 301.415 304.87C301.241 305.153 301.187 305.425 301.252 305.685C301.317 305.945 301.504 306.179 301.815 306.386C302.041 306.537 302.284 306.648 302.545 306.72C302.81 306.791 303.074 306.821 303.339 306.81C303.606 306.796 303.86 306.741 304.101 306.643L304.126 306.636L304.924 307.168L304.903 307.183C304.519 307.371 304.107 307.483 303.666 307.52C303.225 307.558 302.783 307.522 302.342 307.412C301.901 307.303 301.487 307.119 301.1 306.861ZM305.93 310.083C305.54 309.823 305.263 309.555 305.098 309.279C304.933 309.004 304.875 308.737 304.925 308.48C304.977 308.221 305.136 307.986 305.403 307.775L305.443 307.744L306.234 308.272L306.202 308.298C306.061 308.415 305.986 308.547 305.977 308.694C305.97 308.842 306.024 308.998 306.139 309.16C306.258 309.323 306.434 309.482 306.665 309.636C306.885 309.783 307.112 309.889 307.345 309.956C307.584 310.023 307.812 310.047 308.029 310.029C308.248 310.013 308.436 309.952 308.594 309.846L308.597 309.843C308.797 309.709 308.887 309.549 308.865 309.362C308.845 309.173 308.702 308.94 308.434 308.663L307.986 308.206C307.578 307.781 307.376 307.407 307.38 307.084C307.384 306.762 307.576 306.473 307.955 306.218L307.958 306.216C308.258 306.018 308.6 305.895 308.984 305.848C309.37 305.802 309.767 305.831 310.175 305.935C310.585 306.036 310.973 306.209 311.338 306.452C311.704 306.696 311.959 306.951 312.106 307.217C312.256 307.484 312.303 307.741 312.246 307.991C312.192 308.241 312.039 308.464 311.789 308.657L311.743 308.694L310.959 308.17L310.998 308.134C311.12 308.024 311.186 307.901 311.198 307.765C311.214 307.629 311.175 307.488 311.079 307.341C310.988 307.195 310.838 307.053 310.628 306.916C310.427 306.782 310.217 306.683 309.998 306.62C309.781 306.555 309.568 306.529 309.361 306.544C309.158 306.559 308.976 306.621 308.814 306.73L308.81 306.732C308.617 306.862 308.529 307.018 308.546 307.202C308.568 307.385 308.71 307.611 308.973 307.879L309.414 308.341C309.698 308.632 309.89 308.895 309.988 309.13C310.086 309.364 310.093 309.578 310.01 309.772C309.932 309.965 309.764 310.148 309.507 310.321L309.503 310.323C309.176 310.543 308.812 310.679 308.409 310.733C308.011 310.786 307.599 310.758 307.171 310.648C306.747 310.54 306.333 310.352 305.93 310.083ZM310.59 313.192C310.201 312.933 309.924 312.665 309.759 312.389C309.594 312.113 309.536 311.846 309.586 311.589C309.638 311.331 309.797 311.096 310.064 310.884L310.103 310.853L310.895 311.381L310.862 311.407C310.722 311.524 310.647 311.656 310.638 311.803C310.631 311.951 310.685 312.107 310.8 312.27C310.919 312.433 311.095 312.591 311.326 312.746C311.546 312.892 311.773 312.999 312.006 313.066C312.245 313.132 312.473 313.156 312.69 313.138C312.909 313.122 313.098 313.061 313.255 312.955L313.259 312.953C313.459 312.819 313.547 312.658 313.526 312.471C313.506 312.283 313.363 312.05 313.095 311.772L312.647 311.316C312.239 310.89 312.037 310.516 312.041 310.193C312.045 309.871 312.237 309.582 312.615 309.328L312.619 309.326C312.919 309.127 313.261 309.004 313.645 308.957C314.031 308.912 314.428 308.941 314.836 309.044C315.246 309.145 315.634 309.318 315.999 309.562C316.365 309.805 316.621 310.06 316.766 310.326C316.917 310.593 316.964 310.851 316.907 311.1C316.853 311.351 316.7 311.573 316.45 311.767L316.404 311.803L315.619 311.28L315.659 311.243C315.78 311.133 315.847 311.01 315.858 310.874C315.875 310.739 315.836 310.597 315.74 310.451C315.649 310.304 315.499 310.162 315.288 310.025C315.088 309.891 314.878 309.793 314.658 309.729C314.441 309.664 314.229 309.639 314.022 309.653C313.819 309.669 313.636 309.73 313.475 309.839L313.471 309.841C313.278 309.971 313.19 310.128 313.207 310.311C313.229 310.495 313.372 310.721 313.634 310.988L314.075 311.45C314.359 311.741 314.55 312.005 314.648 312.239C314.747 312.474 314.754 312.688 314.671 312.881C314.593 313.074 314.425 313.258 314.168 313.431L314.164 313.433C313.838 313.652 313.473 313.789 313.07 313.842C312.672 313.896 312.259 313.867 311.832 313.758C311.408 313.65 310.994 313.461 310.59 313.192Z" fill="black"/>
<path d="M278.591 288.154C277.385 288.965 275.429 288.969 274.222 288.164C273.016 287.359 273.014 286.049 274.22 285.238C275.426 284.428 277.381 284.425 278.588 285.23C279.795 286.035 279.797 287.344 278.591 288.154Z" fill="#17AB52" stroke="#17AB52" stroke-width="3"/>
<g filter="url(#filter4_d_5428_36387)">
<mask id="mask0_5428_36387" style="mask-type:luminance" maskUnits="userSpaceOnUse" x="421" y="206" width="139" height="93">
<path d="M557.942 270.999L463.006 207.666C461.333 206.549 458.623 206.554 456.954 207.676L422.694 230.702C421.025 231.824 421.028 233.638 422.701 234.755L517.637 298.087C519.31 299.204 522.02 299.199 523.689 298.077L557.949 275.051C559.618 273.929 559.615 272.115 557.942 270.999Z" fill="white"/>
</mask>
<g mask="url(#mask0_5428_36387)">
<path d="M560.972 273.02L459.977 205.645L439.824 219.189L540.819 286.564L560.972 273.02Z" fill="white"/>
<path d="M550.882 271.687L462.006 212.396C460.891 211.652 459.084 211.655 457.971 212.403L449.91 217.821C448.797 218.569 448.799 219.779 449.915 220.523L538.79 279.813C539.906 280.557 541.713 280.554 542.826 279.806L550.887 274.389C552 273.64 551.997 272.431 550.882 271.687Z" fill="#F5F7FB"/>
<path d="M456.722 220.004C457.977 220.841 460.01 220.838 461.262 219.996C462.514 219.155 462.512 217.794 461.257 216.956C460.002 216.119 457.969 216.123 456.717 216.964C455.465 217.806 455.467 219.167 456.722 220.004Z" fill="#00A1C7" stroke="#00A1C7" stroke-width="3"/>
<path d="M466.48 226.852L470.892 223.887L469.287 222.816L469.845 222.441L473.676 224.997L473.118 225.372L471.514 224.301L467.102 227.267L466.48 226.852ZM469.822 229.169C469.587 229.012 469.42 228.841 469.321 228.655C469.224 228.47 469.203 228.285 469.258 228.101C469.315 227.918 469.456 227.75 469.681 227.599L469.688 227.594C469.908 227.446 470.15 227.355 470.412 227.321C470.676 227.285 470.954 227.305 471.246 227.379C471.538 227.454 471.836 227.582 472.14 227.763L473.59 228.62L473.111 228.942L471.734 228.134C471.435 227.956 471.169 227.857 470.937 227.837C470.707 227.819 470.5 227.872 470.316 227.995L470.309 228C470.121 228.126 470.045 228.272 470.083 228.439C470.122 228.604 470.25 228.758 470.466 228.902C470.671 229.039 470.893 229.133 471.132 229.185C471.374 229.235 471.609 229.243 471.839 229.209C472.071 229.177 472.275 229.101 472.452 228.982L473.609 228.204C473.839 228.05 473.943 227.886 473.922 227.712C473.906 227.538 473.759 227.358 473.48 227.172C473.257 227.024 473.034 226.929 472.811 226.887C472.59 226.844 472.383 226.856 472.19 226.921L472.177 226.925L471.576 226.524L471.6 226.513C471.827 226.403 472.078 226.343 472.351 226.332C472.629 226.32 472.912 226.357 473.2 226.441C473.49 226.524 473.767 226.653 474.031 226.83C474.335 227.033 474.542 227.237 474.653 227.443C474.766 227.651 474.783 227.853 474.706 228.05C474.632 228.247 474.468 228.432 474.21 228.605L471.669 230.313L471.068 229.912L471.615 229.544L471.56 229.508C471.351 229.543 471.144 229.555 470.939 229.541C470.737 229.529 470.542 229.492 470.353 229.431C470.167 229.368 469.99 229.281 469.822 229.169ZM472.78 231.055L476.493 228.559L477.093 228.96L473.381 231.455L472.78 231.055ZM477.513 228.28C477.4 228.205 477.342 228.113 477.34 228.004C477.342 227.895 477.399 227.802 477.512 227.726C477.627 227.649 477.765 227.611 477.925 227.61C478.088 227.611 478.227 227.65 478.339 227.725C478.454 227.802 478.512 227.894 478.512 228.002C478.513 228.11 478.455 228.202 478.341 228.279C478.228 228.355 478.09 228.394 477.927 228.395C477.766 228.396 477.628 228.357 477.513 228.28ZM474.548 232.234L479.734 228.748L480.335 229.148L475.148 232.634L474.548 232.234ZM477.019 233.882L479.689 230.692L480.29 231.092L478.053 233.576L478.108 233.613L481.909 232.172L482.478 232.552L480.342 235.103L480.397 235.14L484.097 233.632L484.695 234.031L479.94 235.831L479.335 235.428L481.376 232.942L481.32 232.905L477.62 234.283L477.019 233.882ZM481.79 237.065L485.503 234.57L486.103 234.971L482.39 237.466L481.79 237.065ZM486.522 234.291C486.41 234.216 486.352 234.124 486.35 234.014C486.352 233.905 486.409 233.813 486.522 233.737C486.636 233.66 486.774 233.621 486.935 233.621C487.098 233.622 487.236 233.66 487.349 233.735C487.464 233.812 487.522 233.905 487.522 234.012C487.522 234.12 487.465 234.213 487.35 234.29C487.238 234.365 487.1 234.404 486.936 234.406C486.776 234.406 486.638 234.368 486.522 234.291ZM483.522 238.221L487.235 235.726L487.836 236.127L487.278 236.502L487.333 236.538C487.625 236.469 487.914 236.457 488.199 236.502C488.486 236.547 488.767 236.66 489.041 236.843C489.459 237.122 489.661 237.417 489.646 237.726C489.634 238.035 489.409 238.338 488.968 238.634L486.564 240.25L485.963 239.849L488.222 238.331C488.558 238.105 488.734 237.891 488.752 237.688C488.775 237.485 488.638 237.284 488.341 237.086C488.143 236.954 487.929 236.868 487.699 236.829C487.469 236.789 487.236 236.795 486.999 236.846C486.765 236.899 486.539 236.999 486.321 237.145L484.123 238.622L483.522 238.221ZM488.96 241.936C488.647 241.727 488.452 241.491 488.376 241.228C488.299 240.965 488.34 240.694 488.499 240.415C488.659 240.135 488.932 239.865 489.318 239.606L489.325 239.601C489.713 239.34 490.115 239.157 490.531 239.05C490.946 238.943 491.35 238.914 491.741 238.962C492.134 239.012 492.488 239.142 492.803 239.353C492.973 239.466 493.106 239.592 493.2 239.728C493.3 239.865 493.359 240.005 493.38 240.148C493.401 240.291 493.379 240.43 493.312 240.564L493.367 240.601L495.427 239.217L496.027 239.617L490.841 243.103L490.24 242.703L490.833 242.304L490.778 242.268C490.563 242.309 490.35 242.325 490.136 242.315C489.924 242.303 489.719 242.266 489.519 242.203C489.318 242.14 489.132 242.051 488.96 241.936ZM489.628 241.672C489.854 241.822 490.104 241.914 490.381 241.948C490.656 241.981 490.941 241.957 491.235 241.877C491.532 241.795 491.822 241.658 492.107 241.466L492.114 241.462C492.401 241.269 492.604 241.074 492.723 240.877C492.842 240.679 492.876 240.489 492.826 240.304C492.775 240.119 492.637 239.952 492.411 239.801C492.186 239.651 491.935 239.559 491.659 239.526C491.387 239.492 491.105 239.516 490.811 239.596C490.519 239.678 490.228 239.817 489.939 240.011L489.932 240.016C489.645 240.209 489.44 240.404 489.316 240.601C489.197 240.798 489.161 240.988 489.21 241.171C489.263 241.355 489.403 241.521 489.628 241.672ZM495.946 246.666C495.496 246.365 495.211 246.034 495.093 245.673C494.975 245.311 495.021 244.94 495.229 244.559C495.44 244.18 495.812 243.812 496.345 243.454L496.351 243.449C496.886 243.09 497.436 242.839 498.002 242.696C498.569 242.555 499.122 242.523 499.66 242.599C500.2 242.676 500.696 242.865 501.147 243.166C501.497 243.4 501.746 243.658 501.893 243.941C502.045 244.224 502.093 244.509 502.036 244.797C501.981 245.083 501.82 245.349 501.551 245.595L501.541 245.597L500.916 245.18L500.92 245.173C501.078 244.993 501.168 244.807 501.191 244.616C501.216 244.424 501.176 244.236 501.073 244.053C500.971 243.872 500.805 243.704 500.575 243.55C500.258 243.339 499.899 243.21 499.499 243.165C499.101 243.121 498.687 243.158 498.258 243.277C497.828 243.397 497.405 243.596 496.99 243.875L496.983 243.88C496.57 244.158 496.275 244.441 496.098 244.729C495.922 245.017 495.867 245.294 495.934 245.56C496.004 245.828 496.198 246.069 496.518 246.282C496.751 246.437 496.998 246.553 497.26 246.629C497.525 246.704 497.79 246.738 498.057 246.732C498.326 246.724 498.581 246.673 498.822 246.578L498.836 246.578L499.464 246.997L499.457 247.002C499.099 247.169 498.715 247.266 498.306 247.295C497.899 247.322 497.493 247.282 497.085 247.177C496.681 247.073 496.301 246.903 495.946 246.666ZM500.634 249.793C500.271 249.551 500.012 249.3 499.857 249.04C499.708 248.78 499.657 248.528 499.704 248.283C499.757 248.038 499.904 247.817 500.148 247.619L500.182 247.592L500.804 248.006L500.769 248.034C500.62 248.156 500.54 248.295 500.529 248.45C500.522 248.605 500.578 248.768 500.698 248.937C500.82 249.107 501.001 249.273 501.241 249.432C501.466 249.583 501.702 249.692 501.948 249.761C502.199 249.83 502.439 249.855 502.669 249.836C502.899 249.817 503.097 249.751 503.265 249.639L503.268 249.637C503.475 249.498 503.573 249.331 503.561 249.135C503.551 248.938 503.413 248.7 503.145 248.42L502.714 247.971C502.325 247.564 502.131 247.207 502.133 246.9C502.139 246.594 502.322 246.32 502.683 246.077L502.686 246.075C502.964 245.891 503.282 245.778 503.641 245.734C504.002 245.692 504.373 245.718 504.755 245.813C505.139 245.909 505.502 246.072 505.845 246.301C506.176 246.522 506.41 246.757 506.546 247.008C506.685 247.257 506.729 247.499 506.678 247.733C506.631 247.968 506.491 248.175 506.259 248.352L506.214 248.387L505.593 247.973L505.631 247.938C505.755 247.824 505.825 247.697 505.841 247.557C505.858 247.415 505.82 247.268 505.726 247.116C505.631 246.964 505.475 246.816 505.256 246.673C505.049 246.535 504.831 246.433 504.601 246.365C504.37 246.298 504.145 246.272 503.924 246.288C503.709 246.303 503.513 246.37 503.339 246.487L503.335 246.489C503.138 246.622 503.045 246.783 503.057 246.973C503.069 247.162 503.207 247.394 503.472 247.669L503.9 248.121C504.172 248.404 504.353 248.657 504.443 248.88C504.533 249.103 504.538 249.306 504.458 249.489C504.382 249.672 504.225 249.844 503.986 250.005L503.983 250.007C503.673 250.215 503.33 250.345 502.953 250.395C502.576 250.444 502.187 250.419 501.787 250.318C501.389 250.215 501.005 250.041 500.634 249.793ZM505.143 252.801C504.779 252.558 504.52 252.307 504.365 252.047C504.216 251.787 504.164 251.535 504.213 251.29C504.265 251.046 504.413 250.824 504.656 250.627L504.691 250.599L505.312 251.014L505.277 251.041C505.128 251.163 505.048 251.302 505.037 251.457C505.03 251.613 505.087 251.775 505.207 251.944C505.329 252.115 505.51 252.28 505.749 252.44C505.974 252.59 506.21 252.7 506.456 252.769C506.707 252.838 506.947 252.863 507.177 252.844C507.407 252.825 507.606 252.759 507.773 252.646L507.777 252.644C507.983 252.505 508.081 252.338 508.069 252.143C508.059 251.946 507.921 251.707 507.654 251.428L507.222 250.978C506.833 250.571 506.639 250.214 506.641 249.908C506.648 249.602 506.831 249.327 507.191 249.085L507.195 249.083C507.473 248.899 507.791 248.785 508.149 248.742C508.51 248.7 508.882 248.726 509.263 248.82C509.647 248.917 510.011 249.079 510.354 249.308C510.685 249.529 510.919 249.765 511.055 250.016C511.193 250.265 511.237 250.506 511.187 250.74C511.139 250.976 510.999 251.182 510.767 251.36L510.723 251.395L510.101 250.98L510.139 250.945C510.263 250.831 510.333 250.704 510.349 250.564C510.367 250.422 510.329 250.276 510.234 250.123C510.14 249.971 509.983 249.824 509.765 249.681C509.558 249.543 509.339 249.44 509.109 249.373C508.879 249.305 508.654 249.279 508.433 249.295C508.217 249.311 508.022 249.378 507.847 249.495L507.844 249.497C507.646 249.63 507.553 249.791 507.565 249.98C507.577 250.169 507.715 250.402 507.98 250.677L508.409 251.129C508.68 251.411 508.861 251.664 508.951 251.887C509.041 252.11 509.046 252.313 508.966 252.497C508.891 252.68 508.733 252.852 508.495 253.012L508.491 253.015C508.181 253.223 507.837 253.352 507.461 253.402C507.084 253.452 506.695 253.426 506.295 253.325C505.897 253.223 505.513 253.048 505.143 252.801Z" fill="#343A4D"/>
<path d="M522.881 264.478L527.162 261.601L527.107 261.564L524.924 261.335L525.579 260.895L527.855 261.14L528.472 261.552L523.503 264.893L522.881 264.478ZM525.228 266.09C525.107 266.009 525.044 265.909 525.042 265.791C525.044 265.672 525.106 265.572 525.228 265.49C525.352 265.407 525.501 265.365 525.676 265.365C525.853 265.366 526.002 265.407 526.124 265.488C526.249 265.571 526.311 265.671 526.311 265.788C526.311 265.905 526.249 266.005 526.125 266.089C526.003 266.17 525.854 266.212 525.677 266.214C525.502 266.214 525.353 266.173 525.228 266.09ZM527.88 267.813L532.161 264.935L532.106 264.899L529.922 264.669L530.577 264.229L532.853 264.475L533.471 264.887L528.501 268.227L527.88 267.813ZM531.491 270.379C531.123 270.133 530.913 269.851 530.862 269.535C530.813 269.219 530.912 268.884 531.16 268.53C531.41 268.174 531.801 267.817 532.334 267.459L532.341 267.454C532.873 267.096 533.404 266.833 533.932 266.666C534.461 266.499 534.961 266.431 535.432 266.463C535.905 266.496 536.327 266.635 536.695 266.881C537.063 267.127 537.272 267.408 537.324 267.725C537.375 268.042 537.276 268.377 537.029 268.732C536.784 269.088 536.395 269.445 535.862 269.803L535.855 269.808C535.322 270.166 534.79 270.428 534.256 270.595C533.728 270.762 533.227 270.83 532.753 270.797C532.28 270.763 531.859 270.624 531.491 270.379ZM532.031 270.015C532.271 270.175 532.558 270.254 532.894 270.254C533.232 270.255 533.6 270.182 533.997 270.035C534.397 269.89 534.808 269.675 535.23 269.391L535.237 269.386C535.66 269.102 535.978 268.827 536.191 268.56C536.409 268.294 536.515 268.048 536.51 267.823C536.51 267.598 536.39 267.406 536.151 267.247C535.914 267.089 535.626 267.009 535.288 267.008C534.955 267.007 534.589 267.08 534.192 267.227C533.797 267.372 533.388 267.587 532.966 267.871L532.959 267.876C532.536 268.16 532.216 268.435 531.998 268.701C531.78 268.968 531.671 269.214 531.672 269.439C531.674 269.665 531.795 269.857 532.031 270.015ZM536.013 273.349C535.66 273.114 535.41 272.865 535.26 272.602C535.11 272.339 535.064 272.084 535.121 271.836C535.182 271.588 535.352 271.371 535.63 271.184L535.637 271.18C535.841 271.042 536.075 270.945 536.339 270.887C536.604 270.83 536.877 270.814 537.16 270.84C537.445 270.864 537.717 270.93 537.978 271.039L537.992 271.03C537.805 270.792 537.729 270.553 537.763 270.315C537.797 270.076 537.945 269.869 538.206 269.693L538.213 269.688C538.463 269.52 538.756 269.417 539.092 269.38C539.43 269.34 539.778 269.365 540.137 269.454C540.498 269.541 540.835 269.689 541.148 269.898C541.463 270.108 541.685 270.333 541.815 270.573C541.948 270.813 541.986 271.046 541.929 271.272C541.875 271.497 541.722 271.694 541.472 271.862L541.465 271.867C541.203 272.043 540.894 272.143 540.538 272.166C540.184 272.191 539.828 272.141 539.469 272.016L539.455 272.025C539.621 272.2 539.721 272.382 539.756 272.572C539.795 272.761 539.773 272.944 539.688 273.121C539.603 273.298 539.459 273.456 539.254 273.593L539.248 273.598C538.97 273.784 538.646 273.899 538.276 273.941C537.908 273.981 537.526 273.951 537.131 273.85C536.737 273.751 536.365 273.584 536.013 273.349ZM536.554 272.986C536.783 273.139 537.025 273.248 537.278 273.312C537.536 273.377 537.784 273.396 538.023 273.371C538.264 273.344 538.475 273.271 538.654 273.151L538.661 273.146C538.842 273.024 538.952 272.882 538.991 272.721C539.032 272.56 539.004 272.394 538.907 272.222C538.811 272.05 538.647 271.887 538.417 271.734C538.187 271.58 537.943 271.471 537.685 271.407C537.428 271.343 537.178 271.324 536.937 271.351C536.698 271.379 536.488 271.454 536.306 271.576L536.3 271.58C536.12 271.701 536.011 271.841 535.972 272.003C535.936 272.163 535.966 272.33 536.063 272.502C536.162 272.672 536.325 272.834 536.554 272.986ZM538.961 271.368C539.161 271.501 539.372 271.596 539.593 271.651C539.815 271.704 540.031 271.718 540.241 271.691C540.45 271.664 540.635 271.597 540.796 271.489L540.803 271.485C540.963 271.377 541.063 271.252 541.102 271.112C541.14 270.972 541.118 270.828 541.036 270.681C540.955 270.532 540.814 270.39 540.614 270.257C540.414 270.123 540.202 270.03 539.979 269.976C539.758 269.921 539.543 269.907 539.334 269.933C539.125 269.96 538.94 270.027 538.78 270.135L538.773 270.14C538.612 270.248 538.512 270.372 538.473 270.512C538.434 270.652 538.455 270.797 538.536 270.946C538.619 271.094 538.761 271.234 538.961 271.368ZM538.947 275.196L544.133 271.71L544.734 272.111L539.548 275.597L538.947 275.196ZM541.291 276.759L541.656 274.568L542.48 274.606L542.047 277.264L541.291 276.759ZM540.808 274.648L541.534 274.122L541.693 274.228L544.924 274.211L545.652 274.697L542.184 274.661L541.897 274.66L540.808 274.648Z" fill="#343A4D"/>
<path d="M540.819 286.564L439.824 219.188L419.672 232.733L520.667 300.108L540.819 286.564Z" fill="white"/>
<path d="M436.57 233.55C437.825 234.387 439.858 234.384 441.11 233.542C442.362 232.7 442.359 231.34 441.104 230.502C439.849 229.665 437.817 229.669 436.565 230.51C435.313 231.352 435.315 232.713 436.57 233.55Z" fill="#17AB52" stroke="#17AB52" stroke-width="3"/>
<path d="M446.548 240.7C446.184 240.458 445.925 240.207 445.77 239.947C445.62 239.687 445.57 239.434 445.618 239.19C445.67 238.945 445.818 238.724 446.061 238.526L446.096 238.499L446.717 238.913L446.682 238.941C446.533 239.063 446.453 239.202 446.442 239.357C446.435 239.513 446.492 239.675 446.612 239.844C446.734 240.015 446.915 240.18 447.154 240.34C447.379 240.49 447.615 240.6 447.861 240.668C448.112 240.737 448.353 240.762 448.582 240.743C448.812 240.725 449.011 240.659 449.178 240.546L449.181 240.544C449.389 240.405 449.486 240.238 449.474 240.042C449.464 239.845 449.326 239.607 449.059 239.327L448.627 238.878C448.238 238.47 448.044 238.114 448.046 237.807C448.052 237.501 448.236 237.227 448.596 236.984L448.6 236.982C448.877 236.799 449.196 236.685 449.555 236.641C449.915 236.599 450.286 236.625 450.668 236.72C451.052 236.816 451.416 236.979 451.759 237.208C452.09 237.429 452.323 237.665 452.46 237.915C452.598 238.164 452.642 238.406 452.592 238.64C452.544 238.876 452.404 239.082 452.172 239.259L452.127 239.294L451.506 238.88L451.544 238.845C451.668 238.731 451.738 238.604 451.753 238.464C451.772 238.322 451.734 238.175 451.64 238.023C451.545 237.871 451.388 237.723 451.17 237.58C450.963 237.442 450.744 237.339 450.514 237.272C450.284 237.205 450.058 237.179 449.838 237.195C449.622 237.211 449.427 237.277 449.252 237.394L449.249 237.397C449.051 237.529 448.959 237.69 448.971 237.88C448.982 238.069 449.121 238.301 449.385 238.576L449.814 239.028C450.085 239.311 450.266 239.564 450.356 239.787C450.446 240.01 450.451 240.213 450.371 240.396C450.296 240.579 450.139 240.751 449.9 240.912L449.896 240.914C449.586 241.123 449.243 241.251 448.866 241.302C448.489 241.352 448.1 241.326 447.7 241.225C447.302 241.123 446.918 240.948 446.548 240.7ZM451.429 243.957C450.978 243.656 450.693 243.325 450.575 242.963C450.458 242.602 450.503 242.231 450.712 241.85C450.922 241.471 451.294 241.103 451.827 240.745L451.834 240.74C452.368 240.381 452.918 240.129 453.484 239.987C454.052 239.846 454.604 239.813 455.142 239.889C455.683 239.967 456.178 240.156 456.629 240.457C456.979 240.69 457.228 240.948 457.376 241.231C457.528 241.514 457.575 241.8 457.518 242.088C457.463 242.374 457.302 242.64 457.033 242.885L457.023 242.887L456.398 242.47L456.402 242.464C456.56 242.283 456.651 242.098 456.673 241.907C456.698 241.714 456.658 241.527 456.555 241.344C456.454 241.162 456.288 240.995 456.057 240.841C455.74 240.629 455.381 240.501 454.981 240.455C454.583 240.411 454.17 240.449 453.74 240.568C453.311 240.687 452.887 240.887 452.472 241.166L452.465 241.17C452.052 241.448 451.757 241.731 451.58 242.019C451.404 242.307 451.349 242.585 451.417 242.851C451.486 243.119 451.681 243.359 452 243.573C452.233 243.728 452.48 243.844 452.742 243.92C453.007 243.995 453.272 244.029 453.539 244.023C453.808 244.014 454.063 243.963 454.304 243.869L454.318 243.869L454.947 244.288L454.94 244.293C454.581 244.459 454.197 244.557 453.788 244.585C453.381 244.612 452.974 244.573 452.568 244.467C452.163 244.363 451.783 244.193 451.429 243.957ZM456.117 247.084C455.753 246.841 455.494 246.59 455.339 246.331C455.19 246.071 455.139 245.818 455.186 245.573C455.239 245.328 455.387 245.107 455.63 244.91L455.664 244.882L456.286 245.297L456.252 245.325C456.103 245.446 456.022 245.585 456.011 245.741C456.004 245.896 456.061 246.058 456.181 246.227C456.302 246.398 456.483 246.563 456.723 246.723C456.948 246.873 457.184 246.983 457.43 247.052C457.681 247.121 457.921 247.146 458.151 247.127C458.381 247.108 458.579 247.042 458.747 246.929L458.75 246.927C458.957 246.788 459.055 246.621 459.043 246.426C459.033 246.229 458.895 245.99 458.628 245.711L458.196 245.262C457.807 244.854 457.613 244.498 457.615 244.191C457.621 243.885 457.804 243.61 458.165 243.368L458.169 243.365C458.446 243.182 458.765 243.068 459.123 243.025C459.484 242.983 459.855 243.009 460.237 243.104C460.621 243.2 460.985 243.362 461.327 243.591C461.659 243.812 461.892 244.048 462.028 244.299C462.167 244.548 462.211 244.79 462.161 245.023C462.113 245.259 461.973 245.466 461.741 245.643L461.696 245.678L461.075 245.263L461.113 245.228C461.237 245.114 461.307 244.987 461.323 244.847C461.341 244.706 461.302 244.559 461.208 244.406C461.114 244.254 460.957 244.107 460.738 243.964C460.531 243.826 460.313 243.723 460.083 243.655C459.853 243.588 459.627 243.563 459.407 243.578C459.191 243.594 458.995 243.661 458.821 243.778L458.817 243.78C458.62 243.913 458.527 244.074 458.539 244.263C458.551 244.452 458.689 244.684 458.954 244.96L459.383 245.411C459.654 245.694 459.835 245.947 459.925 246.17C460.015 246.393 460.02 246.597 459.94 246.78C459.864 246.963 459.707 247.135 459.469 247.295L459.465 247.298C459.155 247.506 458.812 247.635 458.435 247.685C458.058 247.735 457.669 247.709 457.269 247.608C456.871 247.506 456.487 247.331 456.117 247.084ZM460.625 250.091C460.261 249.849 460.002 249.598 459.847 249.338C459.698 249.078 459.647 248.826 459.695 248.581C459.747 248.336 459.895 248.115 460.139 247.918L460.173 247.89L460.794 248.305L460.76 248.332C460.611 248.454 460.531 248.593 460.519 248.748C460.512 248.904 460.569 249.066 460.689 249.235C460.811 249.406 460.992 249.571 461.231 249.731C461.456 249.881 461.693 249.991 461.938 250.059C462.189 250.128 462.43 250.153 462.659 250.134C462.889 250.116 463.088 250.05 463.256 249.937L463.259 249.935C463.466 249.796 463.563 249.629 463.551 249.433C463.541 249.236 463.403 248.998 463.136 248.718L462.704 248.269C462.315 247.861 462.121 247.505 462.123 247.198C462.129 246.892 462.313 246.618 462.673 246.375L462.677 246.373C462.955 246.19 463.273 246.076 463.632 246.032C463.992 245.99 464.364 246.017 464.745 246.111C465.129 246.207 465.493 246.37 465.836 246.599C466.167 246.82 466.401 247.056 466.537 247.306C466.675 247.555 466.719 247.797 466.669 248.031C466.621 248.267 466.481 248.473 466.25 248.65L466.205 248.685L465.584 248.271L465.621 248.236C465.745 248.122 465.815 247.995 465.831 247.855C465.849 247.713 465.811 247.566 465.717 247.414C465.622 247.262 465.465 247.114 465.247 246.972C465.04 246.833 464.821 246.73 464.591 246.663C464.361 246.596 464.136 246.57 463.915 246.586C463.699 246.602 463.504 246.668 463.329 246.785L463.326 246.788C463.128 246.92 463.036 247.081 463.047 247.271C463.059 247.46 463.198 247.692 463.463 247.967L463.891 248.419C464.162 248.702 464.343 248.955 464.434 249.178C464.523 249.401 464.528 249.604 464.448 249.787C464.373 249.971 464.216 250.142 463.977 250.303L463.973 250.305C463.663 250.514 463.32 250.642 462.943 250.693C462.566 250.743 462.178 250.717 461.777 250.616C461.379 250.514 460.996 250.339 460.625 250.091ZM465.606 253.258L470.575 249.918L471.297 250.399L468.856 254.323L468.911 254.36L474.763 252.711L475.484 253.192L470.515 256.532L469.934 256.145L473.73 253.595L473.426 253.392L475.16 253.161L468.323 255.07L467.798 254.72L470.628 250.137L470.285 251.296L469.981 251.094L466.185 253.644L465.606 253.258ZM473.172 258.393C472.82 258.158 472.593 257.903 472.489 257.628C472.389 257.353 472.413 257.072 472.559 256.785C472.709 256.5 472.981 256.225 473.376 255.959L473.382 255.955C473.78 255.688 474.191 255.504 474.616 255.403C475.043 255.304 475.462 255.288 475.871 255.355C476.282 255.424 476.664 255.575 477.016 255.81C477.371 256.047 477.598 256.302 477.7 256.576C477.802 256.849 477.778 257.129 477.63 257.414C477.483 257.7 477.211 257.977 476.813 258.244L476.807 258.249C476.412 258.514 476.001 258.696 475.573 258.796C475.148 258.896 474.73 258.914 474.318 258.849C473.909 258.781 473.527 258.63 473.172 258.393ZM473.703 258.037C473.938 258.193 474.192 258.289 474.466 258.324C474.739 258.359 475.022 258.336 475.313 258.253C475.607 258.173 475.901 258.035 476.192 257.839L476.199 257.834C476.493 257.636 476.699 257.439 476.819 257.242C476.941 257.046 476.973 256.857 476.918 256.676C476.864 256.493 476.72 256.323 476.486 256.167C476.251 256.01 475.997 255.914 475.723 255.879C475.452 255.843 475.17 255.865 474.876 255.945C474.583 256.028 474.291 256.167 473.997 256.365L473.99 256.369C473.698 256.566 473.491 256.761 473.37 256.957C473.251 257.154 473.218 257.344 473.271 257.527C473.324 257.71 473.468 257.88 473.703 258.037ZM477.194 261.076C476.881 260.867 476.686 260.632 476.61 260.368C476.534 260.105 476.575 259.834 476.733 259.555C476.893 259.275 477.166 259.005 477.552 258.746L477.559 258.741C477.947 258.48 478.349 258.297 478.765 258.19C479.181 258.083 479.584 258.054 479.975 258.102C480.368 258.152 480.723 258.283 481.038 258.493C481.208 258.606 481.34 258.732 481.435 258.868C481.534 259.005 481.594 259.145 481.615 259.288C481.636 259.432 481.613 259.57 481.547 259.704L481.602 259.741L483.661 258.357L484.262 258.758L479.075 262.244L478.475 261.843L479.067 261.444L479.012 261.408C478.798 261.45 478.584 261.465 478.371 261.455C478.159 261.443 477.953 261.406 477.753 261.343C477.554 261.28 477.367 261.191 477.194 261.076ZM477.863 260.812C478.088 260.962 478.339 261.054 478.615 261.088C478.89 261.121 479.176 261.097 479.47 261.017C479.766 260.935 480.057 260.798 480.342 260.607L480.348 260.602C480.635 260.409 480.838 260.214 480.958 260.017C481.077 259.82 481.111 259.629 481.06 259.444C481.009 259.259 480.871 259.092 480.646 258.942C480.42 258.791 480.169 258.699 479.893 258.666C479.622 258.632 479.339 258.656 479.045 258.736C478.753 258.818 478.463 258.957 478.173 259.151L478.167 259.156C477.88 259.349 477.674 259.544 477.55 259.741C477.431 259.938 477.396 260.128 477.444 260.311C477.498 260.495 477.637 260.661 477.863 260.812ZM481.409 263.888C481.128 263.701 480.945 263.508 480.86 263.309C480.777 263.109 480.789 262.908 480.897 262.707C481.009 262.505 481.211 262.306 481.503 262.11L483.907 260.495L484.507 260.895L482.248 262.413C481.915 262.637 481.732 262.847 481.697 263.043C481.666 263.239 481.798 263.437 482.095 263.635C482.258 263.744 482.426 263.824 482.598 263.875C482.774 263.927 482.948 263.951 483.123 263.947C483.3 263.942 483.474 263.911 483.644 263.852C483.818 263.793 483.987 263.709 484.15 263.599L486.347 262.123L486.948 262.523L483.235 265.018L482.635 264.618L483.189 264.245L483.134 264.208C482.943 264.256 482.749 264.277 482.551 264.271C482.356 264.264 482.161 264.229 481.968 264.164C481.777 264.101 481.591 264.009 481.409 263.888ZM484.391 265.79L489.578 262.304L490.179 262.705L484.992 266.191L484.391 265.79ZM487.599 268.017C487.244 267.781 487.017 267.525 486.918 267.249C486.821 266.976 486.845 266.697 486.992 266.414C487.143 266.13 487.413 265.858 487.801 265.597L487.805 265.595C488.188 265.337 488.592 265.156 489.017 265.052C489.444 264.95 489.866 264.928 490.279 264.985C490.693 265.043 491.068 265.184 491.404 265.408C491.742 265.634 491.954 265.88 492.04 266.146C492.127 266.414 492.096 266.685 491.945 266.959C491.798 267.233 491.54 267.495 491.17 267.743L490.936 267.9L487.954 265.911L488.432 265.589L491.108 267.374L490.373 267.47L490.611 267.31C490.902 267.114 491.098 266.924 491.199 266.739C491.3 266.554 491.32 266.379 491.257 266.214C491.197 266.048 491.067 265.899 490.867 265.765C490.666 265.631 490.438 265.545 490.18 265.505C489.927 265.466 489.659 265.479 489.377 265.546C489.095 265.613 488.814 265.739 488.536 265.926L488.298 266.085C488.034 266.263 487.853 266.445 487.755 266.631C487.659 266.816 487.643 266.998 487.708 267.176C487.774 267.353 487.921 267.517 488.146 267.667C488.314 267.78 488.483 267.862 488.653 267.914C488.824 267.965 488.985 267.995 489.136 268.001C489.288 268.006 489.417 267.995 489.523 267.968L489.567 267.956L490.168 268.357L490.134 268.37C489.975 268.434 489.795 268.478 489.592 268.503C489.395 268.528 489.183 268.53 488.958 268.509C488.735 268.486 488.506 268.435 488.272 268.355C488.041 268.275 487.817 268.163 487.599 268.017ZM491.395 270.55C491.119 270.366 490.917 270.175 490.788 269.979C490.661 269.78 490.609 269.587 490.631 269.399C490.657 269.213 490.759 269.044 490.941 268.891L491.556 269.301C491.453 269.438 491.427 269.588 491.481 269.749C491.534 269.91 491.679 270.07 491.915 270.228C492.084 270.341 492.255 270.423 492.43 270.474C492.609 270.526 492.779 270.548 492.937 270.541C493.098 270.531 493.235 270.489 493.347 270.413L493.354 270.408C493.48 270.324 493.536 270.218 493.522 270.092C493.51 269.964 493.417 269.805 493.242 269.614L492.803 269.137C492.626 268.945 492.506 268.77 492.444 268.611C492.384 268.451 492.382 268.304 492.44 268.17C492.499 268.035 492.618 267.908 492.794 267.789L492.798 267.786C493.005 267.647 493.249 267.563 493.531 267.533C493.817 267.505 494.111 267.529 494.415 267.606C494.718 267.682 495.001 267.808 495.263 267.983C495.523 268.157 495.712 268.338 495.83 268.527C495.952 268.716 496 268.901 495.972 269.083C495.947 269.266 495.847 269.435 495.673 269.589L495.082 269.196C495.191 269.071 495.22 268.931 495.171 268.775C495.123 268.62 494.986 268.467 494.761 268.316C494.614 268.218 494.458 268.147 494.295 268.103C494.134 268.057 493.979 268.039 493.829 268.05C493.68 268.061 493.55 268.104 493.44 268.178L493.433 268.182C493.35 268.238 493.299 268.302 493.278 268.374C493.257 268.447 493.269 268.53 493.313 268.624C493.356 268.718 493.433 268.825 493.541 268.947L493.977 269.421C494.241 269.712 494.38 269.967 494.391 270.187C494.405 270.409 494.279 270.609 494.013 270.788L494.006 270.793C493.785 270.941 493.525 271.028 493.224 271.055C492.925 271.08 492.616 271.049 492.296 270.962C491.979 270.876 491.679 270.739 491.395 270.55Z" fill="#343A4D"/>
<path d="M524.89 285.994C525.117 286.146 525.298 286.325 525.432 286.531C525.568 286.739 525.628 286.968 525.612 287.219C525.599 287.471 525.486 287.742 525.272 288.03C525.062 288.316 524.722 288.617 524.253 288.932L524.247 288.936C523.682 289.316 523.122 289.591 522.569 289.759C522.017 289.926 521.492 289.987 520.993 289.94C520.497 289.891 520.047 289.733 519.644 289.464C519.366 289.278 519.165 289.076 519.04 288.858C518.92 288.64 518.877 288.419 518.911 288.196C518.945 287.972 519.055 287.76 519.241 287.558L519.275 287.521L519.9 287.937L519.876 287.972C519.789 288.098 519.741 288.226 519.732 288.356C519.725 288.486 519.76 288.614 519.836 288.739C519.915 288.865 520.037 288.984 520.206 289.096C520.507 289.297 520.839 289.402 521.203 289.411C521.569 289.418 521.943 289.354 522.326 289.219C522.71 289.085 523.08 288.906 523.436 288.682C523.47 288.662 523.502 288.642 523.532 288.622C523.564 288.6 523.595 288.579 523.625 288.559L524.303 287.904C524.521 287.758 524.668 287.592 524.744 287.405C524.822 287.22 524.827 287.036 524.76 286.853C524.698 286.67 524.561 286.508 524.349 286.367C524.142 286.229 523.901 286.137 523.628 286.093C523.356 286.047 523.083 286.05 522.807 286.099C522.534 286.148 522.289 286.244 522.073 286.389L522.066 286.394C521.846 286.542 521.698 286.706 521.622 286.886C521.549 287.065 521.547 287.244 521.617 287.422C521.688 287.599 521.831 287.759 522.045 287.901C522.261 288.046 522.503 288.142 522.769 288.191C523.036 288.24 523.303 288.241 523.569 288.195C523.841 288.148 524.084 288.052 524.3 287.907L524.303 287.904L524.507 288.04L523.612 288.642L523.49 288.562C523.295 288.613 523.077 288.636 522.836 288.632C522.597 288.629 522.353 288.593 522.105 288.522C521.858 288.454 521.623 288.344 521.397 288.193C521.086 287.986 520.88 287.752 520.778 287.49C520.677 287.229 520.68 286.966 520.788 286.703C520.898 286.438 521.111 286.199 521.428 285.986L521.435 285.982C521.765 285.76 522.134 285.612 522.54 285.539C522.952 285.466 523.362 285.467 523.772 285.544C524.183 285.621 524.556 285.771 524.89 285.994Z" fill="#343A4D"/>
</g>
<path d="M557.689 271.168L462.754 207.835C461.22 206.812 458.736 206.816 457.206 207.845L422.946 230.87C421.416 231.899 421.419 233.562 422.953 234.585L517.888 297.918C519.422 298.942 521.906 298.937 523.436 297.909L557.696 274.883C559.226 273.855 559.223 272.191 557.689 271.168Z" stroke="#DBE2F0"/>
<path d="M433.373 219.27L433.38 223.858L436.803 221.558L440.225 219.258L433.373 219.27Z" fill="white" stroke="#DBE2F0"/>
<path d="M434.078 219.741L434.084 223.384L436.801 221.558L439.518 219.732L434.078 219.741Z" stroke="white"/>
</g>
<g opacity="0.4">
<path d="M484.217 -21.3955L689.978 115.871" stroke="url(#paint19_linear_5428_36387)" stroke-opacity="0.3"/>
<path d="M528.432 -51.1123L734.193 86.1541" stroke="url(#paint20_linear_5428_36387)" stroke-opacity="0.3"/>
<path d="M440.002 8.32031L645.763 145.587" stroke="url(#paint21_linear_5428_36387)" stroke-opacity="0.3"/>
<path d="M395.787 38.0371L601.548 175.303" stroke="url(#paint22_linear_5428_36387)" stroke-opacity="0.3"/>
<path fill-rule="evenodd" clip-rule="evenodd" d="M670.226 91.1481L706.808 118.208L704.193 119.794L667.773 92.8532L615.742 63.6164L558.841 57.7077L453.195 78.8369L409.945 48.8222L412.484 47.1821L454.246 76.1644L558.6 55.2936L617.258 61.3849L670.226 91.1481Z" fill="url(#paint23_linear_5428_36387)"/>
<path d="M414.215 49.9829C412.569 51.0897 409.898 51.0946 408.25 49.9953C406.602 48.8959 406.599 47.1075 408.246 46.0007C409.892 44.8942 412.563 44.8892 414.211 45.9886C415.859 47.0879 415.862 48.8764 414.215 49.9829Z" fill="url(#paint24_linear_5428_36387)"/>
<path fill-rule="evenodd" clip-rule="evenodd" d="M412.967 46.8252C412.009 46.1861 410.454 46.188 409.494 46.833C408.533 47.4784 408.537 48.5197 409.495 49.1587C410.452 49.7977 412.007 49.796 412.968 49.1506C413.928 48.5055 413.924 47.4643 412.967 46.8252ZM406.998 45.1684C409.331 43.6004 413.118 43.5924 415.456 45.152C417.794 46.7116 417.796 49.2473 415.463 50.8152C413.13 52.3834 409.343 52.3916 407.005 50.8319C404.667 49.2722 404.665 46.7365 406.998 45.1684Z" fill="url(#paint25_linear_5428_36387)"/>
<path d="M435.816 64.3938C434.17 65.5004 431.499 65.5053 429.851 64.406C428.203 63.3066 428.2 61.5182 429.847 60.4117C431.493 59.3049 434.164 59.2999 435.812 60.3993C437.46 61.4986 437.463 63.2871 435.816 64.3938Z" fill="url(#paint26_linear_5428_36387)"/>
<path fill-rule="evenodd" clip-rule="evenodd" d="M434.567 61.2359C433.61 60.5969 432.055 60.5986 431.094 61.244C430.134 61.8891 430.138 62.9303 431.095 63.5693C432.053 64.2084 433.608 64.2066 434.568 63.5615C435.529 62.9161 435.525 61.8749 434.567 61.2359ZM428.599 59.5793C430.932 58.0112 434.719 58.0029 437.057 59.5627C439.395 61.1224 439.397 63.658 437.064 65.2262C434.731 66.7941 430.944 66.8022 428.606 65.2426C426.268 63.6829 426.266 61.1473 428.599 59.5793Z" fill="url(#paint27_linear_5428_36387)"/>
<path d="M457.572 78.9066C455.925 80.0132 453.254 80.018 451.606 78.9188C449.958 77.8193 449.956 76.0311 451.602 74.9246C453.249 73.8178 455.92 73.8126 457.568 74.9121C459.216 76.0113 459.218 77.7998 457.572 78.9066Z" fill="url(#paint28_linear_5428_36387)"/>
<path fill-rule="evenodd" clip-rule="evenodd" d="M456.323 75.7487C455.365 75.1097 453.81 75.1114 452.85 75.7569C451.89 76.402 451.893 77.443 452.851 78.0822C453.809 78.7211 455.364 78.7194 456.324 78.0743C457.284 77.4289 457.281 76.3876 456.323 75.7487ZM450.355 74.0922C452.688 72.5241 456.474 72.5156 458.813 74.0755C461.15 75.6351 461.152 78.1708 458.819 79.739C456.486 81.3069 452.699 81.3149 450.362 79.7554C448.023 78.1956 448.022 75.6601 450.355 74.0922Z" fill="url(#paint29_linear_5428_36387)"/>
<path d="M618.951 63.986C617.304 65.0928 614.634 65.0974 612.985 63.9979C611.338 62.8987 611.335 61.1105 612.981 60.0037C614.628 58.8972 617.299 58.8923 618.947 59.9915C620.595 61.091 620.597 62.8795 618.951 63.986Z" fill="url(#paint30_linear_5428_36387)"/>
<path fill-rule="evenodd" clip-rule="evenodd" d="M617.702 60.8281C616.744 60.1892 615.189 60.1909 614.229 60.836C613.269 61.4813 613.272 62.5223 614.23 63.1613C615.189 63.8007 616.743 63.7989 617.703 63.1537C618.663 62.5087 618.66 61.4674 617.702 60.8281ZM611.734 59.1714C614.067 57.6034 617.854 57.5954 620.191 59.1549C622.529 60.7146 622.532 63.2503 620.199 64.8184C617.865 66.3868 614.078 66.3942 611.741 64.8345C609.403 63.2751 609.4 60.7397 611.734 59.1714Z" fill="url(#paint31_linear_5428_36387)"/>
<path d="M561.172 57.9863C559.525 59.0928 556.854 59.0977 555.206 57.9982C553.558 56.899 553.556 55.1105 555.202 54.0039C556.849 52.8971 559.52 52.8923 561.168 53.9915C562.816 55.091 562.818 56.8795 561.172 57.9863Z" fill="url(#paint32_linear_5428_36387)"/>
<path fill-rule="evenodd" clip-rule="evenodd" d="M559.923 54.8281C558.965 54.1892 557.41 54.1908 556.45 54.8363C555.49 55.4813 555.493 56.5226 556.451 57.1616C557.409 57.8009 558.964 57.7989 559.924 57.154C560.884 56.5086 560.881 55.4673 559.923 54.8281ZM553.954 53.1716C556.288 51.6034 560.075 51.5953 562.412 53.1549C564.75 54.7146 564.753 57.2504 562.419 58.8186C560.086 60.3867 556.299 60.3945 553.961 58.8348C551.624 57.2753 551.621 54.7396 553.954 53.1716Z" fill="url(#paint33_linear_5428_36387)"/>
<path d="M670.951 92.9861C669.304 94.0928 666.634 94.0975 664.985 92.998C663.338 91.8988 663.335 90.1104 664.982 89.0037C666.628 87.897 669.299 87.8923 670.947 88.9915C672.595 90.091 672.598 91.8794 670.951 92.9861Z" fill="url(#paint34_linear_5428_36387)"/>
<path fill-rule="evenodd" clip-rule="evenodd" d="M669.702 89.8281C668.744 89.1892 667.189 89.1908 666.229 89.8361C665.269 90.4813 665.272 91.5225 666.23 92.1614C667.189 92.8007 668.743 92.7989 669.703 92.1538C670.663 91.5086 670.66 90.4674 669.702 89.8281ZM663.734 88.1714C666.067 86.6032 669.854 86.5954 672.192 88.1549C674.529 89.7146 674.532 92.2502 672.199 93.8184C669.865 95.3866 666.079 95.3943 663.741 93.8347C661.403 92.2752 661.401 89.7396 663.734 88.1714Z" fill="url(#paint35_linear_5428_36387)"/>
<path fill-rule="evenodd" clip-rule="evenodd" d="M491.384 29.3752L482.071 59.5687L499.25 76.0573L520.985 90.5567L539.868 107.407L550.164 129.76L592.628 158.089L590.139 159.762L547.054 131.02L536.68 108.498L518.316 92.1104L496.538 77.5821L478.312 60.089L487.058 31.7354L436.308 31.7353L436.313 29.375L491.384 29.3752Z" fill="#A6B6D9"/>
<path d="M439.483 32.7911C437.836 33.8979 435.166 33.9025 433.518 32.8032C431.87 31.7038 431.867 29.9157 433.514 28.8089C435.16 27.7021 437.831 27.6974 439.479 28.7968C441.127 29.8961 441.13 31.6843 439.483 32.7911Z" fill="white"/>
<path fill-rule="evenodd" clip-rule="evenodd" d="M438.233 29.6334C437.275 28.9942 435.72 28.9959 434.76 29.6412C433.8 30.2865 433.803 31.3274 434.761 31.9666C435.72 32.6057 437.274 32.604 438.234 31.9588C439.194 31.3135 439.191 30.2725 438.233 29.6334ZM432.265 27.9765C434.598 26.4082 438.385 26.4006 440.723 27.9601C443.06 29.5197 443.063 32.0551 440.73 33.6234C438.396 35.1917 434.61 35.1993 432.272 33.6398C429.934 32.0802 429.931 29.5448 432.265 27.9765Z" fill="#A6B6D9"/>
<path d="M492.17 32.9854C490.524 34.0922 487.853 34.0971 486.205 32.9978C484.557 31.8984 484.554 30.11 486.201 29.0032C487.847 27.8967 490.518 27.8917 492.166 28.9911C493.814 30.0905 493.817 31.8789 492.17 32.9854Z" fill="white"/>
<path fill-rule="evenodd" clip-rule="evenodd" d="M490.922 29.8277C489.964 29.1886 488.409 29.1905 487.45 29.8355C486.489 30.481 486.493 31.5222 487.45 32.1612C488.408 32.8002 489.963 32.7985 490.924 32.1531C491.883 31.508 491.88 30.4668 490.922 29.8277ZM484.954 28.1709C487.287 26.6029 491.074 26.5948 493.412 28.1545C495.75 29.7141 495.752 32.2498 493.419 33.8177C491.086 35.3859 487.299 35.3941 484.961 33.8344C482.623 32.2747 482.621 29.739 484.954 28.1709Z" fill="#A6B6D9"/>
<path d="M482.994 61.8183C481.348 62.9251 478.677 62.9297 477.029 61.8305C475.381 60.731 475.379 58.943 477.025 57.8362C478.672 56.7294 481.342 56.7246 482.99 57.824C484.638 58.9233 484.641 60.7115 482.994 61.8183Z" fill="white"/>
<path fill-rule="evenodd" clip-rule="evenodd" d="M481.745 58.6607C480.786 58.0215 479.232 58.0232 478.272 58.6685C477.312 59.3139 477.315 60.3546 478.273 60.9938C479.231 61.6329 480.786 61.6312 481.746 60.986C482.706 60.3407 482.702 59.2997 481.745 58.6607ZM475.777 57.0039C478.11 55.4356 481.896 55.4277 484.234 56.9874C486.572 58.5469 486.575 61.0823 484.241 62.6506C481.908 64.2189 478.121 64.2265 475.783 62.6671C473.445 61.1073 473.443 58.5721 475.777 57.0039Z" fill="#A6B6D9"/>
<path d="M551.594 132.256C549.948 133.363 547.277 133.367 545.629 132.268C543.981 131.169 543.978 129.381 545.625 128.274C547.272 127.167 549.942 127.162 551.59 128.262C553.238 129.361 553.241 131.149 551.594 132.256Z" fill="white"/>
<path fill-rule="evenodd" clip-rule="evenodd" d="M550.346 129.098C549.388 128.459 547.834 128.461 546.873 129.106C545.913 129.751 545.917 130.792 546.875 131.431C547.833 132.071 549.388 132.069 550.348 131.424C551.308 130.779 551.305 129.738 550.346 129.098ZM544.378 127.441C546.712 125.873 550.498 125.866 552.836 127.425C555.174 128.985 555.177 131.52 552.843 133.088C550.509 134.657 546.723 134.664 544.385 133.105C542.047 131.545 542.045 129.01 544.378 127.441Z" fill="#A6B6D9"/>
<path d="M501.434 78.5615C499.787 79.6682 497.116 79.6731 495.468 78.5739C493.82 77.4744 493.818 75.6862 495.465 74.5794C497.111 73.4729 499.782 73.4677 501.43 74.5672C503.078 75.6664 503.08 77.4549 501.434 78.5615Z" fill="white"/>
<path fill-rule="evenodd" clip-rule="evenodd" d="M500.186 75.4038C499.228 74.7647 497.673 74.7666 496.713 75.4117C495.753 76.0572 495.756 77.0982 496.714 77.7373C497.672 78.3761 499.227 78.3745 500.187 77.7291C501.147 77.0841 501.144 76.0428 500.186 75.4038ZM494.218 73.747C496.551 72.1792 500.337 72.1708 502.676 73.7306C505.013 75.2901 505.015 77.8258 502.682 79.3938C500.349 80.962 496.562 80.9701 494.224 79.4105C491.886 77.8506 491.885 75.3151 494.218 73.747Z" fill="#A6B6D9"/>
<path d="M522.822 93.3234C521.176 94.43 518.505 94.4348 516.857 93.3356C515.209 92.2361 515.207 90.4479 516.853 89.3414C518.5 88.2346 521.17 88.2294 522.819 89.3289C524.466 90.4281 524.469 92.2167 522.822 93.3234Z" fill="white"/>
<path fill-rule="evenodd" clip-rule="evenodd" d="M521.575 90.1655C520.617 89.5265 519.062 89.5282 518.102 90.1737C517.142 90.8188 517.145 91.8599 518.103 92.499C519.061 93.1379 520.616 93.1362 521.575 92.4911C522.536 91.8457 522.532 90.8044 521.575 90.1655ZM515.606 88.509C517.939 86.9409 521.726 86.9324 524.064 88.4923C526.402 90.0519 526.404 92.5876 524.071 94.1558C521.738 95.7237 517.951 95.7317 515.613 94.1722C513.275 92.6124 513.273 90.0769 515.606 88.509Z" fill="#A6B6D9"/>
<path d="M541.26 110.066C539.614 111.172 536.943 111.177 535.295 110.078C533.647 108.978 533.644 107.19 535.291 106.083C536.937 104.977 539.608 104.972 541.256 106.071C542.904 107.171 542.907 108.959 541.26 110.066Z" fill="white"/>
<path fill-rule="evenodd" clip-rule="evenodd" d="M540.012 106.908C539.054 106.269 537.499 106.271 536.54 106.916C535.579 107.561 535.583 108.602 536.541 109.241C537.499 109.88 539.054 109.878 540.014 109.233C540.973 108.588 540.97 107.547 540.012 106.908ZM534.044 105.251C536.377 103.683 540.164 103.675 542.502 105.235C544.84 106.794 544.842 109.33 542.509 110.898C540.175 112.466 536.389 112.474 534.051 110.914C531.714 109.355 531.711 106.819 534.044 105.251Z" fill="#A6B6D9"/>
<path d="M573.352 146.77C571.705 147.877 569.035 147.881 567.387 146.782C565.739 145.682 565.736 143.894 567.383 142.787C569.03 141.681 571.7 141.676 573.348 142.775C574.996 143.875 574.999 145.663 573.352 146.77Z" fill="white"/>
<path fill-rule="evenodd" clip-rule="evenodd" d="M572.104 143.612C571.146 142.973 569.591 142.974 568.631 143.62C567.671 144.265 567.675 145.306 568.632 145.945C569.591 146.584 571.146 146.583 572.106 145.937C573.065 145.292 573.062 144.251 572.104 143.612ZM566.136 141.955C568.469 140.387 572.256 140.379 574.594 141.939C576.931 143.498 576.934 146.034 574.601 147.602C572.267 149.17 568.481 149.178 566.143 147.618C563.805 146.059 563.803 143.523 566.136 141.955Z" fill="#A6B6D9"/>
<path d="M595.108 161.283C593.461 162.39 590.791 162.395 589.143 161.295C587.495 160.196 587.492 158.408 589.139 157.301C590.785 156.194 593.456 156.19 595.104 157.289C596.752 158.388 596.755 160.177 595.108 161.283Z" fill="white"/>
<path fill-rule="evenodd" clip-rule="evenodd" d="M593.86 158.126C592.902 157.486 591.347 157.488 590.387 158.133C589.427 158.779 589.43 159.82 590.388 160.459C591.347 161.098 592.901 161.096 593.861 160.451C594.821 159.806 594.818 158.765 593.86 158.126ZM587.892 156.469C590.225 154.9 594.012 154.893 596.349 156.452C598.687 158.012 598.69 160.547 596.357 162.116C594.023 163.684 590.237 163.692 587.899 162.132C585.561 160.573 585.558 158.037 587.892 156.469Z" fill="#A6B6D9"/>
</g>
<rect width="658" height="463" fill="url(#paint36_radial_5428_36387)"/>
</g>
<defs>
<filter id="filter0_d_5428_36387" x="97" y="74.6973" width="494" height="352" filterUnits="userSpaceOnUse" color-interpolation-filters="sRGB">
<feFlood flood-opacity="0" result="BackgroundImageFix"/>
<feColorMatrix in="SourceAlpha" type="matrix" values="0 0 0 0 0 0 0 0 0 0 0 0 0 0 0 0 0 0 127 0" result="hardAlpha"/>
<feOffset dy="9"/>
<feGaussianBlur stdDeviation="8.5"/>
<feColorMatrix type="matrix" values="0 0 0 0 0 0 0 0 0 0 0 0 0 0 0 0 0 0 0.1 0"/>
<feBlend mode="normal" in2="BackgroundImageFix" result="effect1_dropShadow_5428_36387"/>
<feBlend mode="normal" in="SourceGraphic" in2="effect1_dropShadow_5428_36387" result="shape"/>
</filter>
<filter id="filter1_d_5428_36387" x="345" y="-58.1123" width="431.77" height="311.46" filterUnits="userSpaceOnUse" color-interpolation-filters="sRGB">
<feFlood flood-opacity="0" result="BackgroundImageFix"/>
<feColorMatrix in="SourceAlpha" type="matrix" values="0 0 0 0 0 0 0 0 0 0 0 0 0 0 0 0 0 0 127 0" result="hardAlpha"/>
<feOffset dy="9"/>
<feGaussianBlur stdDeviation="8.5"/>
<feColorMatrix type="matrix" values="0 0 0 0 0 0 0 0 0 0 0 0 0 0 0 0 0 0 0.1 0"/>
<feBlend mode="normal" in2="BackgroundImageFix" result="effect1_dropShadow_5428_36387"/>
<feBlend mode="normal" in="SourceGraphic" in2="effect1_dropShadow_5428_36387" result="shape"/>
</filter>
<filter id="filter2_d_5428_36387" x="-154.209" y="-112.991" width="428.713" height="311.074" filterUnits="userSpaceOnUse" color-interpolation-filters="sRGB">
<feFlood flood-opacity="0" result="BackgroundImageFix"/>
<feColorMatrix in="SourceAlpha" type="matrix" values="0 0 0 0 0 0 0 0 0 0 0 0 0 0 0 0 0 0 127 0" result="hardAlpha"/>
<feOffset dx="4" dy="4"/>
<feGaussianBlur stdDeviation="8.5"/>
<feColorMatrix type="matrix" values="0 0 0 0 0 0 0 0 0 0 0 0 0 0 0 0 0 0 0.07 0"/>
<feBlend mode="normal" in2="BackgroundImageFix" result="effect1_dropShadow_5428_36387"/>
<feBlend mode="normal" in="SourceGraphic" in2="effect1_dropShadow_5428_36387" result="shape"/>
</filter>
<filter id="filter3_d_5428_36387" x="58.791" y="-249.992" width="428.713" height="311.075" filterUnits="userSpaceOnUse" color-interpolation-filters="sRGB">
<feFlood flood-opacity="0" result="BackgroundImageFix"/>
<feColorMatrix in="SourceAlpha" type="matrix" values="0 0 0 0 0 0 0 0 0 0 0 0 0 0 0 0 0 0 127 0" result="hardAlpha"/>
<feOffset dx="4" dy="4"/>
<feGaussianBlur stdDeviation="8.5"/>
<feColorMatrix type="matrix" values="0 0 0 0 0 0 0 0 0 0 0 0 0 0 0 0 0 0 0.07 0"/>
<feBlend mode="normal" in2="BackgroundImageFix" result="effect1_dropShadow_5428_36387"/>
<feBlend mode="normal" in="SourceGraphic" in2="effect1_dropShadow_5428_36387" result="shape"/>
</filter>
<filter id="filter4_d_5428_36387" x="404.213" y="198.677" width="172.217" height="126.399" filterUnits="userSpaceOnUse" color-interpolation-filters="sRGB">
<feFlood flood-opacity="0" result="BackgroundImageFix"/>
<feColorMatrix in="SourceAlpha" type="matrix" values="0 0 0 0 0 0 0 0 0 0 0 0 0 0 0 0 0 0 127 0" result="hardAlpha"/>
<feOffset dy="9"/>
<feGaussianBlur stdDeviation="8.5"/>
<feColorMatrix type="matrix" values="0 0 0 0 0 0 0 0 0 0 0 0 0 0 0 0 0 0 0.1 0"/>
<feBlend mode="normal" in2="BackgroundImageFix" result="effect1_dropShadow_5428_36387"/>
<feBlend mode="normal" in="SourceGraphic" in2="effect1_dropShadow_5428_36387" result="shape"/>
</filter>
<linearGradient id="paint0_linear_5428_36387" x1="351.5" y1="266" x2="447.5" y2="484.5" gradientUnits="userSpaceOnUse">
<stop stop-color="#E4E9F4"/>
<stop offset="0.895568" stop-color="#586073" stop-opacity="0"/>
</linearGradient>
<radialGradient id="paint1_radial_5428_36387" cx="0" cy="0" r="1" gradientUnits="userSpaceOnUse" gradientTransform="translate(369 289) rotate(90) scale(139 233)">
<stop stop-color="#A112FF" stop-opacity="0.16"/>
<stop offset="1" stop-color="#A112FF" stop-opacity="0"/>
</radialGradient>
<radialGradient id="paint2_radial_5428_36387" cx="0" cy="0" r="1" gradientUnits="userSpaceOnUse" gradientTransform="translate(305.5 220) rotate(90) scale(166 256.5)">
<stop stop-color="#00CBEC" stop-opacity="0.4"/>
<stop offset="1" stop-color="#C7FFFF" stop-opacity="0"/>
</radialGradient>
<linearGradient id="paint3_linear_5428_36387" x1="689" y1="208" x2="309" y2="472.5" gradientUnits="userSpaceOnUse">
<stop stop-color="#A6B6D9" stop-opacity="0"/>
<stop offset="0.482052" stop-color="#A6B6D9"/>
<stop offset="1" stop-color="#A6B6D9" stop-opacity="0"/>
</linearGradient>
<linearGradient id="paint4_linear_5428_36387" x1="448.5" y1="21" x2="68.5001" y2="285.5" gradientUnits="userSpaceOnUse">
<stop stop-color="#A6B6D9" stop-opacity="0"/>
<stop offset="0.482052" stop-color="#A6B6D9"/>
<stop offset="1" stop-color="#A6B6D9" stop-opacity="0"/>
</linearGradient>
<linearGradient id="paint5_linear_5428_36387" x1="471" y1="234" x2="517.711" y2="127.511" gradientUnits="userSpaceOnUse">
<stop stop-color="#A6B6D9" stop-opacity="0.8"/>
<stop offset="1" stop-color="#586073" stop-opacity="0"/>
</linearGradient>
<linearGradient id="paint6_linear_5428_36387" x1="599.5" y1="37.5" x2="606.439" y2="276.234" gradientUnits="userSpaceOnUse">
<stop offset="0.0633145" stop-color="#F9FAFB"/>
<stop offset="0.510596" stop-color="#A6B6D9" stop-opacity="0.6"/>
<stop offset="0.920989" stop-color="#DCE1EA" stop-opacity="0.891522"/>
</linearGradient>
<linearGradient id="paint7_linear_5428_36387" x1="-32.2071" y1="184" x2="14.5041" y2="77.5114" gradientUnits="userSpaceOnUse">
<stop stop-color="#A6B6D9" stop-opacity="0.8"/>
<stop offset="1" stop-color="#586073" stop-opacity="0"/>
</linearGradient>
<linearGradient id="paint8_linear_5428_36387" x1="126" y1="65.5" x2="160.824" y2="189.176" gradientUnits="userSpaceOnUse">
<stop offset="0.0633145" stop-color="#F9FAFB"/>
<stop offset="0.510596" stop-color="#A6B6D9" stop-opacity="0.6"/>
<stop offset="0.920989" stop-color="#DCE1EA" stop-opacity="0.891522"/>
</linearGradient>
<linearGradient id="paint9_linear_5428_36387" x1="170.044" y1="73.7271" x2="42.885" y2="-116.176" gradientUnits="userSpaceOnUse">
<stop stop-opacity="0"/>
<stop offset="0.114873" stop-opacity="0.532418"/>
<stop offset="0.264833" stop-opacity="0.6"/>
<stop offset="0.487901" stop-opacity="0.53"/>
<stop offset="0.831232" stop-opacity="0.38"/>
<stop offset="1" stop-opacity="0"/>
</linearGradient>
<linearGradient id="paint10_linear_5428_36387" x1="214.259" y1="44.0103" x2="87.0999" y2="-145.892" gradientUnits="userSpaceOnUse">
<stop stop-opacity="0"/>
<stop offset="0.114873" stop-opacity="0.532418"/>
<stop offset="0.264833" stop-opacity="0.6"/>
<stop offset="0.487901" stop-opacity="0.53"/>
<stop offset="0.831232" stop-opacity="0.38"/>
<stop offset="1" stop-opacity="0"/>
</linearGradient>
<linearGradient id="paint11_linear_5428_36387" x1="125.829" y1="103.443" x2="-1.32984" y2="-86.4598" gradientUnits="userSpaceOnUse">
<stop stop-opacity="0"/>
<stop offset="0.114873" stop-opacity="0.532418"/>
<stop offset="0.264833" stop-opacity="0.6"/>
<stop offset="0.487901" stop-opacity="0.53"/>
<stop offset="0.831232" stop-opacity="0.38"/>
<stop offset="1" stop-opacity="0"/>
</linearGradient>
<linearGradient id="paint12_linear_5428_36387" x1="81.6142" y1="133.16" x2="-45.5447" y2="-56.743" gradientUnits="userSpaceOnUse">
<stop stop-opacity="0"/>
<stop offset="0.114873" stop-opacity="0.532418"/>
<stop offset="0.264833" stop-opacity="0.6"/>
<stop offset="0.487901" stop-opacity="0.53"/>
<stop offset="0.831232" stop-opacity="0.38"/>
<stop offset="1" stop-opacity="0"/>
</linearGradient>
<linearGradient id="paint13_linear_5428_36387" x1="180.793" y1="47" x2="227.504" y2="-59.4886" gradientUnits="userSpaceOnUse">
<stop stop-color="#A6B6D9" stop-opacity="0.8"/>
<stop offset="1" stop-color="#586073" stop-opacity="0"/>
</linearGradient>
<linearGradient id="paint14_linear_5428_36387" x1="339" y1="-71.5" x2="373.824" y2="52.1758" gradientUnits="userSpaceOnUse">
<stop offset="0.0633145" stop-color="#F9FAFB"/>
<stop offset="0.510596" stop-color="#A6B6D9" stop-opacity="0.6"/>
<stop offset="0.920989" stop-color="#DCE1EA" stop-opacity="0.891522"/>
</linearGradient>
<linearGradient id="paint15_linear_5428_36387" x1="458.044" y1="274.727" x2="330.885" y2="84.8244" gradientUnits="userSpaceOnUse">
<stop stop-opacity="0"/>
<stop offset="0.114873" stop-opacity="0.532418"/>
<stop offset="0.264833" stop-opacity="0.6"/>
<stop offset="0.487901" stop-opacity="0.53"/>
<stop offset="0.831232" stop-opacity="0.38"/>
<stop offset="1" stop-opacity="0"/>
</linearGradient>
<linearGradient id="paint16_linear_5428_36387" x1="502.259" y1="245.01" x2="375.1" y2="55.1076" gradientUnits="userSpaceOnUse">
<stop stop-opacity="0"/>
<stop offset="0.114873" stop-opacity="0.532418"/>
<stop offset="0.264833" stop-opacity="0.6"/>
<stop offset="0.487901" stop-opacity="0.53"/>
<stop offset="0.831232" stop-opacity="0.38"/>
<stop offset="1" stop-opacity="0"/>
</linearGradient>
<linearGradient id="paint17_linear_5428_36387" x1="413.829" y1="304.443" x2="286.67" y2="114.54" gradientUnits="userSpaceOnUse">
<stop stop-opacity="0"/>
<stop offset="0.114873" stop-opacity="0.532418"/>
<stop offset="0.264833" stop-opacity="0.6"/>
<stop offset="0.487901" stop-opacity="0.53"/>
<stop offset="0.831232" stop-opacity="0.38"/>
<stop offset="1" stop-opacity="0"/>
</linearGradient>
<linearGradient id="paint18_linear_5428_36387" x1="369.614" y1="334.16" x2="242.455" y2="144.257" gradientUnits="userSpaceOnUse">
<stop stop-opacity="0"/>
<stop offset="0.114873" stop-opacity="0.532418"/>
<stop offset="0.264833" stop-opacity="0.6"/>
<stop offset="0.487901" stop-opacity="0.53"/>
<stop offset="0.831232" stop-opacity="0.38"/>
<stop offset="1" stop-opacity="0"/>
</linearGradient>
<linearGradient id="paint19_linear_5428_36387" x1="681.267" y1="121.726" x2="593.323" y2="-8.63543" gradientUnits="userSpaceOnUse">
<stop stop-opacity="0"/>
<stop offset="0.114873" stop-opacity="0.532418"/>
<stop offset="0.264833" stop-opacity="0.6"/>
<stop offset="0.431601" stop-opacity="0.53"/>
<stop offset="0.668918" stop-opacity="0.38"/>
<stop offset="1" stop-opacity="0"/>
</linearGradient>
<linearGradient id="paint20_linear_5428_36387" x1="725.479" y1="92.011" x2="664.862" y2="8.43919" gradientUnits="userSpaceOnUse">
<stop stop-opacity="0"/>
<stop offset="0.114873" stop-opacity="0.532418"/>
<stop offset="0.264833" stop-opacity="0.6"/>
<stop offset="0.487901" stop-opacity="0.53"/>
<stop offset="0.831232" stop-opacity="0.38"/>
<stop offset="1" stop-opacity="0"/>
</linearGradient>
<linearGradient id="paint21_linear_5428_36387" x1="637.048" y1="151.444" x2="529.523" y2="-6.56695" gradientUnits="userSpaceOnUse">
<stop stop-opacity="0"/>
<stop offset="0.114873" stop-opacity="0.532418"/>
<stop offset="0.264833" stop-opacity="0.6"/>
<stop offset="0.487901" stop-opacity="0.53"/>
<stop offset="0.831232" stop-opacity="0.38"/>
<stop offset="1" stop-opacity="0"/>
</linearGradient>
<linearGradient id="paint22_linear_5428_36387" x1="592.835" y1="181.16" x2="465.676" y2="-8.74296" gradientUnits="userSpaceOnUse">
<stop stop-opacity="0"/>
<stop offset="0.114873" stop-opacity="0.532418"/>
<stop offset="0.264833" stop-opacity="0.6"/>
<stop offset="0.487901" stop-opacity="0.53"/>
<stop offset="0.831232" stop-opacity="0.38"/>
<stop offset="1" stop-opacity="0"/>
</linearGradient>
<linearGradient id="paint23_linear_5428_36387" x1="526" y1="16.5" x2="509.5" y2="148" gradientUnits="userSpaceOnUse">
<stop stop-color="white"/>
<stop offset="1" stop-color="#A6B6D9"/>
</linearGradient>
<linearGradient id="paint24_linear_5428_36387" x1="526" y1="16.5" x2="509.5" y2="148" gradientUnits="userSpaceOnUse">
<stop stop-color="white"/>
<stop offset="1" stop-color="#A6B6D9"/>
</linearGradient>
<linearGradient id="paint25_linear_5428_36387" x1="526" y1="16.5" x2="509.5" y2="148" gradientUnits="userSpaceOnUse">
<stop stop-color="white"/>
<stop offset="1" stop-color="#A6B6D9"/>
</linearGradient>
<linearGradient id="paint26_linear_5428_36387" x1="526" y1="16.5" x2="509.5" y2="148" gradientUnits="userSpaceOnUse">
<stop stop-color="white"/>
<stop offset="1" stop-color="#A6B6D9"/>
</linearGradient>
<linearGradient id="paint27_linear_5428_36387" x1="526" y1="16.5" x2="509.5" y2="148" gradientUnits="userSpaceOnUse">
<stop stop-color="white"/>
<stop offset="1" stop-color="#A6B6D9"/>
</linearGradient>
<linearGradient id="paint28_linear_5428_36387" x1="526" y1="16.5" x2="509.5" y2="148" gradientUnits="userSpaceOnUse">
<stop stop-color="white"/>
<stop offset="1" stop-color="#A6B6D9"/>
</linearGradient>
<linearGradient id="paint29_linear_5428_36387" x1="526" y1="16.5" x2="509.5" y2="148" gradientUnits="userSpaceOnUse">
<stop stop-color="white"/>
<stop offset="1" stop-color="#A6B6D9"/>
</linearGradient>
<linearGradient id="paint30_linear_5428_36387" x1="526" y1="16.5" x2="509.5" y2="148" gradientUnits="userSpaceOnUse">
<stop stop-color="white"/>
<stop offset="1" stop-color="#A6B6D9"/>
</linearGradient>
<linearGradient id="paint31_linear_5428_36387" x1="526" y1="16.5" x2="509.5" y2="148" gradientUnits="userSpaceOnUse">
<stop stop-color="white"/>
<stop offset="1" stop-color="#A6B6D9"/>
</linearGradient>
<linearGradient id="paint32_linear_5428_36387" x1="526" y1="16.5" x2="509.5" y2="148" gradientUnits="userSpaceOnUse">
<stop stop-color="white"/>
<stop offset="1" stop-color="#A6B6D9"/>
</linearGradient>
<linearGradient id="paint33_linear_5428_36387" x1="526" y1="16.5" x2="509.5" y2="148" gradientUnits="userSpaceOnUse">
<stop stop-color="white"/>
<stop offset="1" stop-color="#A6B6D9"/>
</linearGradient>
<linearGradient id="paint34_linear_5428_36387" x1="526" y1="16.5" x2="509.5" y2="148" gradientUnits="userSpaceOnUse">
<stop stop-color="white"/>
<stop offset="1" stop-color="#A6B6D9"/>
</linearGradient>
<linearGradient id="paint35_linear_5428_36387" x1="526" y1="16.5" x2="509.5" y2="148" gradientUnits="userSpaceOnUse">
<stop stop-color="white"/>
<stop offset="1" stop-color="#A6B6D9"/>
</linearGradient>
<radialGradient id="paint36_radial_5428_36387" cx="0" cy="0" r="1" gradientUnits="userSpaceOnUse" gradientTransform="translate(343 290) rotate(-30.6507) scale(376.617 373.808)">
<stop stop-color="#F9FAFB" stop-opacity="0"/>
<stop offset="0.309353" stop-color="#F9FAFB" stop-opacity="0.0765553"/>
<stop offset="0.981894" stop-color="#F9FAFB"/>
</radialGradient>
<clipPath id="clip0_5428_36387">
<rect width="703" height="464" fill="white"/>
</clipPath>
<clipPath id="clip1_5428_36387">
<rect width="621.22" height="616.077" fill="white" transform="matrix(0.831878 0.554958 -0.829966 0.557814 396.322 -119)"/>
</clipPath>
</defs>
</svg>
