<svg width="16" height="16" viewBox="0 0 16 16" fill="none" xmlns="http://www.w3.org/2000/svg">
<path d="M14.4857 16C14.7047 15.9851 14.9183 15.8985 15.0832 15.7385C15.4491 15.3837 15.4554 14.8109 15.0832 14.456L12.8374 12.3019C14.1874 10.9946 15.0265 9.19533 15.0265 7.20934C15.0265 3.23735 11.6704 0 7.51322 0C3.35602 0 0 3.23113 0 7.20934C0 11.1875 3.35602 14.4249 7.51322 14.4125C8.04312 14.4125 8.46578 14.0078 8.46578 13.5097C8.46578 13.0117 8.03681 12.607 7.51322 12.607C4.42214 12.607 1.8988 10.1977 1.8988 7.20934C1.8988 4.22101 4.42214 1.81167 7.51322 1.81167C10.6043 1.81167 13.1403 4.22724 13.1403 7.21556C13.1403 8.98366 12.2571 10.5525 10.8882 11.5362C10.6737 11.6981 10.5349 11.9346 10.516 12.1961C10.4971 12.4576 10.5917 12.7128 10.7873 12.8996L13.7395 15.7385C13.9089 15.8972 14.1267 15.9849 14.3481 16H14.4857Z" fill="url(#paint0_linear_14599_161)"/>
<defs>
<linearGradient id="paint0_linear_14599_161" x1="-3.68111" y1="19.6921" x2="12.8646" y2="21.4166" gradientUnits="userSpaceOnUse">
<stop stop-color="#7048E8"/>
<stop offset="0.035" stop-color="#607CE8"/>
<stop offset="0.185" stop-color="#4AC1E8"/>
<stop offset="0.35" stop-color="#59A3EC"/>
<stop offset="0.626149" stop-color="#A112FF"/>
<stop offset="1" stop-color="#FF5543"/>
</linearGradient>
</defs>
</svg>
