<svg width="16" height="16" viewBox="0 0 16 16" fill="none" xmlns="http://www.w3.org/2000/svg">
<path fill-rule="evenodd" clip-rule="evenodd" d="M11.5733 0.639893C12.3094 0.639893 12.9067 1.26751 12.9067 2.03947V5.24031C12.9067 6.01228 12.3094 6.63989 11.5733 6.63989C10.8373 6.63989 10.24 6.01228 10.24 5.24031V2.03947C10.24 1.26751 10.8373 0.639893 11.5733 0.639893Z" fill="url(#paint0_radial_14599_135)"/>
<path fill-rule="evenodd" clip-rule="evenodd" d="M1.28003 4.53328C1.28003 3.79786 1.90727 3.19995 2.68024 3.19995H5.87982C6.65279 3.19995 7.28003 3.79786 7.28003 4.53328C7.28003 5.26871 6.65279 5.86662 5.87982 5.86662H2.68024C1.90727 5.86662 1.28003 5.26871 1.28003 4.53328Z" fill="url(#paint1_linear_14599_135)"/>
<path fill-rule="evenodd" clip-rule="evenodd" d="M2.64939 10.1791C2.16258 9.54687 1.24231 9.42429 0.588781 9.90171C-0.0647464 10.3791 -0.191451 11.2824 0.295361 11.9146C0.295361 11.9146 0.302029 11.9275 0.308698 11.934C0.315367 11.9469 0.328704 11.9598 0.342041 11.9727C0.368716 12.005 0.402059 12.0501 0.44874 12.1017C0.542101 12.205 0.668805 12.3469 0.835521 12.5082C1.16895 12.8308 1.6491 13.2566 2.28929 13.676C3.56967 14.5211 5.48357 15.3599 7.99765 15.3599C10.5117 15.3599 12.4256 14.5211 13.706 13.676C14.3462 13.2566 14.8263 12.8308 15.1598 12.5082C15.3265 12.3469 15.4532 12.205 15.5466 12.1017C15.5932 12.0501 15.6266 12.005 15.6533 11.9727C15.6666 11.9534 15.6933 11.9211 15.7066 11.9082C15.7066 11.9082 15.7066 11.9082 15.7066 11.9146V11.9082C16.1934 11.2695 16.06 10.3662 15.4132 9.88881C14.7663 9.41139 13.8461 9.54042 13.3526 10.1662C13.3459 10.1727 13.3326 10.192 13.3059 10.2178C13.2592 10.2695 13.1792 10.3598 13.0725 10.463C12.8524 10.6759 12.5123 10.9727 12.0589 11.2759C11.1586 11.8695 9.80485 12.4695 7.99765 12.4695C6.19045 12.4695 4.84338 11.8695 3.93644 11.2759C3.48297 10.9791 3.14287 10.6824 2.92281 10.463C2.81611 10.3533 2.73609 10.2695 2.68941 10.2178C2.66273 10.192 2.64939 10.1727 2.64272 10.1662L2.64939 10.1791Z" fill="url(#paint2_linear_14599_135)"/>
<defs>
<radialGradient id="paint0_radial_14599_135" cx="0" cy="0" r="1" gradientUnits="userSpaceOnUse" gradientTransform="translate(7.17131 7.04137) rotate(-10.1658) scale(6.41846 8.10872)">
<stop offset="0.5" stop-color="#FF291F"/>
<stop offset="0.88" stop-color="#FF5543"/>
</radialGradient>
<linearGradient id="paint1_linear_14599_135" x1="1.98587" y1="5.29517" x2="8.177" y2="2.17219" gradientUnits="userSpaceOnUse">
<stop stop-color="#A112FF"/>
<stop offset="0.21" stop-color="#A213FB"/>
<stop offset="0.36" stop-color="#A716F2"/>
<stop offset="0.5" stop-color="#AF1CE2"/>
<stop offset="0.62" stop-color="#BA24CB"/>
<stop offset="0.74" stop-color="#C92FAD"/>
<stop offset="0.85" stop-color="#DB3C89"/>
<stop offset="0.96" stop-color="#F14B5F"/>
<stop offset="1" stop-color="#FA524E"/>
</linearGradient>
<linearGradient id="paint2_linear_14599_135" x1="0.283318" y1="13.0876" x2="16.2875" y2="12.9606" gradientUnits="userSpaceOnUse">
<stop offset="0.15" stop-color="#00CBEC"/>
<stop offset="0.98" stop-color="#7048E8"/>
</linearGradient>
</defs>
</svg>
