<svg width="48" height="48" viewBox="0 0 48 48" version="1.1" xmlns="http://www.w3.org/2000/svg" xmlns:xlink="http://www.w3.org/1999/xlink">
<title>Group</title>
<desc>Created using Figma</desc>
<g id="Canvas" transform="translate(1172 -13302)">
<g id="Group">
<g id="Rectangle 37">
<use xlink:href="#path0_fill" transform="translate(-1172 13302)" fill="#C0EB75"/>
</g>
<g id="icon/child">
<g id="Vector">
<use xlink:href="#path1_fill" transform="translate(-1157.01 13314)" fill="#74B816"/>
</g>
</g>
</g>
</g>
<defs>
<path id="path0_fill" d="M 0 4C 0 1.79086 1.79086 0 4 0L 44 0C 46.2091 0 48 1.79086 48 4L 48 44C 48 46.2091 46.2091 48 44 48L 4 48C 1.79086 48 0 46.2091 0 44L 0 4Z"/>
<path id="path1_fill" d="M 7.26436 8C 6.76436 8 6.31436 7.8 5.91436 7.5L 1.76436 3.7C 1.46436 3.45 1.01436 3.45 0.714363 3.75L 0.214362 4.25C -0.0356375 4.5 -0.0856372 4.95 0.164363 5.25L 5.01436 11L 5.36436 13.15C 5.46436 13.7 5.51436 14.3 5.46436 14.85L 4.96436 23.2C 4.96436 23.6 5.26436 23.95 5.66436 24C 5.66436 24 5.66436 24 5.71436 24L 6.71436 24C 7.11436 24 7.46436 23.7 7.56436 23.3L 9.01436 16.5L 10.4144 23.25C 10.5144 23.65 10.8644 23.95 11.2644 23.95L 12.2644 23.95C 12.6644 23.95 13.0144 23.6 13.0144 23.2C 13.0144 23.2 13.0144 23.2 13.0144 23.15L 12.5144 14.8C 12.4644 14.25 12.5144 13.65 12.6144 13.1L 13.0144 11L 17.8644 5.25C 18.1144 4.95 18.1144 4.5 17.8144 4.25L 17.3144 3.75C 17.0144 3.45 16.5644 3.45 16.2644 3.7L 12.0644 7.5C 11.7144 7.85 11.2144 8 10.7144 8L 7.26436 8ZM 9.01436 7C 10.9644 7 12.5144 5.45 12.5144 3.5C 12.5144 1.55 10.9644 0 9.01436 0C 7.06436 0 5.51436 1.55 5.51436 3.5C 5.51436 5.45 7.06436 7 9.01436 7Z"/>
</defs>
</svg>
