<svg width="48" height="48" viewBox="0 0 48 48" version="1.1" xmlns="http://www.w3.org/2000/svg" xmlns:xlink="http://www.w3.org/1999/xlink">
<title>icon1</title>
<desc>Created using Figma</desc>
<g id="Canvas" transform="translate(3896 -13370)">
<g id="icon1">
<g id="Rectangle 8">
<use xlink:href="#path0_fill" transform="translate(-3896 13370)" fill="#66D9E8"/>
</g>
<g id="Group">
<g id="Vector">
<use xlink:href="#path1_fill" transform="translate(-3884 13382)" fill="#1098AD"/>
</g>
</g>
</g>
</g>
<defs>
<path id="path0_fill" d="M 0 4C 0 1.79086 1.79086 0 4 0L 44 0C 46.2091 0 48 1.79086 48 4L 48 44C 48 46.2091 46.2091 48 44 48L 4 48C 1.79086 48 0 46.2091 0 44L 0 4Z"/>
<path id="path1_fill" d="M 23 15.5L 15.5 15.5L 15.5 23C 15.5 23.55 15.05 24 14.5 24L 9.5 24C 8.95 24 8.5 23.55 8.5 23L 8.5 15.5L 1 15.5C 0.45 15.5 0 15.05 0 14.5L 0 9.5C 0 8.95 0.45 8.5 1 8.5L 8.5 8.5L 8.5 1C 8.5 0.45 8.95 0 9.5 0L 14.5 0C 15.05 0 15.5 0.45 15.5 1L 15.5 8.5L 23 8.5C 23.55 8.5 24 8.95 24 9.5L 24 14.5C 24 15.05 23.55 15.5 23 15.5Z"/>
</defs>
</svg>
