<svg width="48" height="48" viewBox="0 0 48 48" version="1.1" xmlns="http://www.w3.org/2000/svg" xmlns:xlink="http://www.w3.org/1999/xlink">
<title>icon3</title>
<desc>Created using Figma</desc>
<g id="Canvas" transform="translate(3256 -13370)">
<g id="icon3">
<g id="Rectangle 8">
<use xlink:href="#path0_fill" transform="translate(-3256 13370)" fill="#8CE99A"/>
</g>
<g id="Group">
<g id="Vector">
<use xlink:href="#path1_fill" transform="translate(-3241.56 13380)" fill="#37B24D"/>
</g>
</g>
</g>
</g>
<defs>
<path id="path0_fill" d="M 0 4C 0 1.79086 1.79086 0 4 0L 44 0C 46.2091 0 48 1.79086 48 4L 48 44C 48 46.2091 46.2091 48 44 48L 4 48C 1.79086 48 0 46.2091 0 44L 0 4Z"/>
<path id="path1_fill" d="M 18.3594 5.4C 18.9094 6.2 19.2594 7.7 19.0094 7.95C 18.7594 8.2 16.6594 7 16.0594 7C 15.3094 7.25 14.6094 7.6 13.9594 8.05C 15.0094 8.6 16.7094 10.05 17.0094 11.3C 17.3094 12.6 16.7594 15 16.0594 15C 15.5594 15 14.9094 13.2 14.5594 12.75C 14.2094 12.3 10.7594 10.5 9.55937 10.5C 8.35938 10.5 4.95937 12.25 4.55937 12.75C 4.15937 13.25 3.50938 15 3.05938 15C 2.35938 15 1.85938 12.6 2.10938 11.3C 2.40938 10 4.10938 8.6 5.15938 8.05C 4.50938 7.6 3.80938 7.25 3.05938 7C 2.40938 7 0.409375 8.2 0.109375 7.95C -0.190625 7.7 0.159375 6.2 0.759375 5.4C 1.70937 4.25 3.05937 3.55 4.55937 3.5C 5.40937 3.5 6.60938 4.1 7.60938 4.7C 8.05937 3.2 8.65937 1.45 9.00937 1C 9.45937 0.35 10.2094 0 11.0094 0C 11.7594 0 14.5094 0.4 14.5094 1C 14.5094 1.6 12.7594 2.2 12.5094 2.5C 12.2594 3.1 12.1094 3.75 12.0094 4.35C 12.7594 3.85 13.6094 3.6 14.5094 3.5C 16.0094 3.55 17.4094 4.25 18.3594 5.4ZM 7.55937 12.1C 8.15938 11.75 8.85938 11.55 9.55937 11.5C 10.2594 11.6 10.9594 11.8 11.5594 12.1C 11.8594 12.5 12.0094 13 12.0594 13.5C 12.0094 14 11.8594 14.45 11.5594 14.9C 11.4594 15 11.3594 15.05 11.2094 15.1C 11.1094 15.15 11.0594 15.25 11.0594 15.35L 11.0594 21C 11.0594 22.5 11.2094 23.95 11.5594 25.4C 11.6094 25.65 11.4594 25.95 11.2094 26C 11.1594 26 11.1594 26 11.1094 26L 8.00937 26C 7.75937 26 7.50937 25.75 7.55937 25.5C 7.55937 25.45 7.55937 25.45 7.55937 25.4C 7.90937 23.95 8.05937 22.5 8.05937 21L 8.05937 15.3C 8.05937 15.2 8.00938 15.1 7.90938 15.05C 7.80938 15 7.65937 14.95 7.55937 14.85C 7.25937 14.45 7.10938 13.95 7.05937 13.45C 7.10938 13 7.25937 12.55 7.55937 12.1Z"/>
</defs>
</svg>
