<svg width="48" height="48" viewBox="0 0 48 48" version="1.1" xmlns="http://www.w3.org/2000/svg" xmlns:xlink="http://www.w3.org/1999/xlink">
<title>icon2</title>
<desc>Created using Figma</desc>
<g id="Canvas" transform="translate(3576 -13370)">
<g id="icon2">
<g id="Rectangle 8">
<use xlink:href="#path0_fill" transform="translate(-3576 13370)" fill="#63E6BE"/>
</g>
<g id="Group">
<g id="Vector">
<use xlink:href="#path1_fill" transform="translate(-3564 13382)" fill="#0CA678"/>
</g>
</g>
</g>
</g>
<defs>
<path id="path0_fill" d="M 0 4C 0 1.79086 1.79086 0 4 0L 44 0C 46.2091 0 48 1.79086 48 4L 48 44C 48 46.2091 46.2091 48 44 48L 4 48C 1.79086 48 0 46.2091 0 44L 0 4Z"/>
<path id="path1_fill" d="M 12 24C 5.4 24 0 18.65 0 12C 0 5.35 5.4 0 12 0C 18.6 0 24 5.35 24 12C 24 18.65 18.65 24 12 24ZM 8 8C 6.65 8 6 9.55 6 11C 6 11.65 6.1 12 6.4 12C 7 12 7.25 11.5 8 11.5C 8.75 11.5 9.05 12 9.6 12C 9.9 12 10 11.65 10 11C 10 9.55 9.35 8 8 8ZM 16 8C 14.65 8 14 9.55 14 11C 14 11.65 14.1 12 14.4 12C 15 12 15.25 11.5 16 11.5C 16.75 11.5 17.05 12 17.6 12C 17.9 12 18 11.65 18 11C 18 9.55 17.35 8 16 8ZM 17.65 15C 16.95 15 15.6 17 12.05 17C 8.5 17 7.1 15 6.45 15C 6.25 15 6.1 15.15 6.05 15.3L 6.05 15.35C 6.05 16 8.3 18.95 12.05 18.95C 15.8 18.95 18.05 15.95 18.05 15.35C 18.05 15.15 17.9 15 17.75 14.95C 17.65 15 17.65 15 17.65 15Z"/>
</defs>
</svg>
