<svg version="1.1" id="Layer_1" xmlns="http://www.w3.org/2000/svg" x="0" y="0" viewBox="0 0 458 320" style="enable-background:new 0 0 458 320" xml:space="preserve"><style>.st0{fill:#131112}.st1{fill:#ff5543}.st2{fill:#6b59e9}</style><path class="st0" d="M153.57 158.49c-1.06-2.28-2.65-4.3-3.38-6.77-.18-.6-.82-1.05-1.19-1.61s-.69-1.16-.96-1.77c-.13-.3-.12-.66-.16-.97.42-1.54 2.03-1.68 3.41-3 .37-.7 1.15-1.83 1.61-3.08 1.12-3.04 2.67-5.84 4.59-8.76.34-2.11 1.13-4.3 2.43-6.34 1.27-1.99 2.5-4 3.31-6.28.5-1.4 1.47-2.65 2.32-3.91 1.89-2.82 3.52-5.78 4.68-8.6 1.44-1.82 3.36-2.21 4.94-3.17 1.51-.07 3.07.07 4.51-.27 1.63-.38 3.15-1.2 4.33-1.68 2.88-.58 5.46-.81 7.81-1.67 2.28-.83 4.56-1.19 6.91-1.25.97-.47 1.88-.92 3.17-1.55 1.81-.02 4.06-.24 5.96-1.36 1.42-.84 3.05-.37 4.39-1.12 1.23-.68 2.56-.76 3.91-.92 1.32-.16 2.66-.56 3.89-1.08 1.59-.67 3.23-1.19 4.91-1.21 2.08-.02 4.04-.55 5.98-1.06 2.3-.6 4.62-1.11 6.95-1.36 1.74-.18 3.28-.75 4.95-1.4h4.12c1.8-.51 3.64-1.4 5.76-1.33 1.31.04 2.66-.46 3.96-.84 1.87-.54 3.67-.47 5.41.33 1.96 1.91 3.88 3.8 5.82 5.67.73.7 1.51 1.33 2.26 2.01 1 .91 1.99 1.82 2.96 2.75.85.82 1.57 1.81 2.52 2.48 1.64 1.16 3.47 1.97 4.94 3.48 1.38 1.43 3.22 2.42 4.87 3.58 2.49 1.74 4.45 4.15 6.95 5.45 1.04 1.23 2 2.21 2.76 3.32.65.96 1.08 2.07 1.68 3.27 3.13 1.46 6.47 2.91 7.49 7.15-.3 2.36-2.48 4.07-3.31 6.46-.82 2.39-1.75 4.75-3.09 6.92-1.29.1-2.25.77-2.88 1.84-.86 1.45-1.76 2.9-2.38 4.46-.62 1.55-.92 3.23-1.32 4.7-1.15 1.45-2.2 2.76-3.15 3.94-.12.71-.17 1.22-.29 1.71-.15.65-.34 1.29-.58 2.19-2.93 1.91-4.2 5.39-6.29 7.84-.89.33-1.48.55-2.05.77.24.97.92 1.65.47 3.02-2.2 2.82-4.1 6.43-7.07 9.23-1.9 1.8-3.03 4.03-3.47 6.28-1.75 2.23-3.15 4.37-4.9 6.16-1.78 1.83-2.55 4.38-4.6 5.96-.98 2.38-3 4.06-4.17 6.03-.23.85-.4 1.5-.57 2.13-1.74 1.19-3.4 2.32-5.07 3.46-.25.98-.5 1.95-.77 2.98l-4.41 4.11c-.43.79-.69 1.66-1.26 2.24-2.27 2.34-3.32 5.47-5.3 8-.59.75-.68 1.89-1.09 2.8-.47 1.06-1.05 2.07-1.57 3.09-1.42.45-2.7.85-3.97 1.28-.14.05-.24.24-.35.36-.22.79-.44 1.58-.64 2.33-.68.09-1.18.15-1.8.24-1.55-1.18-2.89-2.71-4.67-3.72-.99-.56-1.8-1.55-2.52-2.47-1.68-2.14-3.7-3.91-5.73-5.7-3.54-3.12-7.05-6.28-10.53-9.48-.86-.79-1.36-2.08-2.32-2.61-2.01-1.1-3.28-2.9-4.82-4.43-4.54-4.53-9.39-8.77-13.38-13.85-2.02-1.27-2.86-3.79-5.17-4.78-.56-.24-1-.92-1.33-1.49-.52-.9-1.16-1.63-2.06-2.18-.56-.34-1.14-.78-1.5-1.31-1.81-2.69-4.16-4.89-6.37-7.21a25.99 25.99 0 0 1-2.83-3.54c-2.26-3.36-4.47-6.76-7.27-9.72-.71-.75-1.19-1.61-1.54-2.59-.44-1.34-1.45-2.2-2.85-2.58zm139.39-31.07c-.44.09-.89.29-1.32.25-1.05-.08-1.8.29-2.33 1.18-4.12 1.48-8.58 1.95-12.45 4.18-.28.16-.64.22-.97.27-4.23.69-8.02 2.64-11.86 4.35-2.18.97-4.38 1.72-6.74 2.15l-2.76 2.79c-.62 2.81.46 5.69-1.16 7.71-.18 2.93-.34 5.46-.48 7.7-.61 1-1.04 1.72-1.51 2.51-.19 2.62-.37 5.3-.55 7.72-.48 1.17-1.48 1.77-1.45 2.9.29 1.14.58 2.27.88 3.42-.71 1.59-1.4 3.13-2.09 4.66-.47 3.7-.94 7.38-1.48 11.64-.4 1.02-1.33 2.55-1.56 4.17-.27 1.85-1.23 3.48-1.25 5.4-.02 1.62-1.31 3.16-.39 4.88.31-.02.62-.05 1-.08.43-1.04.87-2.12 1.23-2.99 1.17-1.08 2.16-1.99 3.15-2.9.29-2.34 1.51-4.15 3.09-5.69.62-.6 1.12-1.2 1.56-1.92.88-1.42 1.86-2.79 2.73-4.07.22-.93.34-1.78.63-2.56.47-1.27 1.11-2.45 2.04-3.39.68-.25 1.3-.48 2.09-.78.93-4.09 3.67-7.41 5.26-11.25.62-.39 1.19-.74 1.95-1.22.61-.96 1.69-2.02 1.97-3.26.48-2.11 1.9-3.56 2.97-5.23 1.27-1.99 2.78-3.83 4.18-5.73.21-.99.42-1.97.65-3.03l3.98-4.27c1.81-5.32 2-5.69 3.35-6.72.56.36 1.11.74 1.68 1.07.12.07.33-.03.62-.06.15-.39.37-.81.48-1.27.74-3.08 1.03-6.26 2.19-9.24.67.05 1.33.1 1.74-.59.51-.86-.07-2.03.82-2.79.09-.07.18-.15.28-.22l-.17.31zm-100.07-14.93c1.2-1.51 1.43-3.42 2.07-5.16.08-.22-.2-.58-.34-.95-.96-.14-1.96-.29-2.98-.45-1.62.41-3.33.63-4.86 1.29-1.63.7-3.5.01-4.93.94-1.49.98-3.36.5-4.95 1.62-1.23 2.19-3.06 4.18-3.9 6.86-.54 1.73-1.83 3.22-2.76 4.83-2.11 3.65-3.2 7.85-6.01 11.13-.31.36-.37.94-.59 1.4-.44.91-.74 1.96-1.4 2.69-1.85 2.06-2.52 4.73-4 6.89.8 1.37 1.78.81 2.71.51 1.96.76 4.01.35 5.97.5 1.32-.54 2.56-1.05 3.86-1.59 4.69-.03 9.42-.05 14.06-.79.29-.25.54-.47.94-.82.5-1.96.49-4.2 1.51-6.2 1.93-3.8 2.59-7.96 3.27-12.05.52-.92 1.02-1.8 1.42-2.5.22-1.89.24-3.56.94-5.18.34-.83 0-1.97-.03-2.97zm52.07-10.23c.26.79.57 1.58.76 2.39.23.97.36 1.97.5 2.8 2.55 3.01 2.73 7.07 5.26 9.9.3.34.31.94.45 1.43.05.16.05.34.1.5 1.41 4.12 3.16 8.14 3.77 12.5.09.66.34 1.31.61 1.93.12.28.46.46.83.79.33.03.82.07 1.3.11.86-.61 1.68-1.19 2.59-1.84 1.52-.38 3.09-.8 4.61-1.63 2.8-1.51 5.74-2.89 8.96-2.69.93-.71 1.73-1.33 2.21-1.69 2.89-1.05 5.42-1.96 7.94-2.87.66-.08 1.39-.02 1.97-.27 1.83-.8 3.81-1.34 5.28-2.54.2-.97-.23-1.47-.75-1.89-1.04-.86-2.19-1.6-3.15-2.53-1.08-1.05-2.01-2.26-2.72-3.07-4.15-2.42-7.32-5.5-10.75-7.72-1.14-1.42-2.08-2.61-2.96-3.7-2.46-.77-4.33-2.22-5.77-4.1-.79-1.03-2.13-1.02-2.71-1.84-.78-1.32-1.46-2.47-2.19-3.7-1.61-.01-3.12.03-4.62-.04-1.67-.08-3.33-.25-5.11-.38-2.94 1.8-6.94.51-9.96 3.05.84 2.04 1.64 4.05 2.52 6.03.21.4.68.71 1.03 1.07zm-45.41 8.51c-.59 1.74-1.52 3.39-1.39 5.34.03.48-.19.98-.34 1.46-1.31 4.17-3.01 8.21-3.98 12.49-1.07 1.32-.46 2.95-.87 4.55-.48.92-1.05 1.96-1.56 3.02-.45.96-.52 1.94.18 3.11.36.25.91.62 1.47 1.01 1.38-.08 2.77-.4 4.06-.17 2.4.42 4.71.09 7.01-.29 1.26-.55 2.48-1.09 3.65-1.6 1.46.24 2.78.46 4.27.71 1.74-1.43 4.19-.2 5.88-1.04.36-.46.55-.59.55-.73.16-3.37.3-6.74.46-10.49.14-.4.42-1.18.68-1.89-.65-.75-1.18-1.37-1.6-1.86-.36-1.05.22-1.81.3-2.93-.76-1.49-.46-3.37-.56-5.21-.11-2.02-1.41-3.8-1.08-5.94.12-.78-.28-1.64-.44-2.46.05-1.51.19-3.03.13-4.54-.04-1.04-.57-1.93-1.52-2.44-1.21-.48-2.36-.29-3.48.16-1.72.7-3.45 1.43-5.32 1.52-1.95.1-3.59.83-5.14 1.96-.73 1.1-1.46 2.21-2.27 3.44.3.9.61 1.86.91 2.82zm38.98-7.28c.47-.99.44-2.03-.05-2.95-.86-1.63-1.64-3.33-2.99-4.67-.6 0-1.11-.08-1.58.02-1.32.28-2.62.68-3.93.96-1.98.42-3.98.78-5.97 1.18-1.01.2-1.98.51-2.58 1.7.19 1.69.37 3.53.63 5.37.04.27.4.5.62.74-.4 2.73.01 5.36.88 7.41.3 4.54-.24 8.6.86 12.59.25.92-.04 2-.18 3-.11.83-.35 1.63-.54 2.44.45 1.33.8 2.63 1.33 3.86.91 2.07 2.73 2.97 4.97 2.5 1.64-.35 3.24-.84 4.96-.88 4.04-.1 8.07-.34 12.54-.54.92-.4 2.63-.35 3.35-1.99-.15-1.71-.91-3.22-1.35-4.81-.44-1.6-.41-3.32-.54-4.6-.95-1.63-1.81-2.89-2.46-4.25-.95-1.97-1.55-4.13-2.68-5.97-1.53-2.48-2.5-5.1-3.15-7.91-.22-.96-.8-1.85-1.29-2.73-.14-.24-.56-.32-.85-.47zm-31.84 78.63c.89 1.8 1.97 3.24 2.3 4.83.45 2.21 1.53 4.1 2.31 6.14.78 2.05 1.42 4.15 2.22 6.19 2.26 5.83 4.65 11.61 6.83 17.48.97 2.6 2.57 4.7 4.05 6.81h1.31c.35-2.21.55-4.49-.05-6.55-.73-2.52-.71-5.01-.78-7.54-.05-1.86.21-3.82-.28-5.57-.84-2.99-.7-6-.9-9.01-.03-.51.05-1.05-.1-1.52-1.15-3.46-.91-7.03-.91-10.58 0-1.01.09-2.13-.29-3.01-1.04-2.41-.4-5.07-1.28-7.49-.16-.45-.12-1.03-.01-1.51.76-3.4-.36-6.71-.47-10.07-.75-1.58-.75-3.27-.75-4.98 0-2.7-.06-5.4-.1-8.38-.53-.56-1.19-1.28-1.69-1.81h-9.66c-1.09.39-1.87.74-2.69.95-2.3.57-4.73.21-7.03.94-.75.23-1.67-.14-2.52-.14-.64 0-1.36.01-1.55.89.6 2.65 1.48 5.18 3.37 7.09.15 1.35.28 2.53.34 3.15.82 2.08 1.39 3.67 2.08 5.21 1.8 4.01 2.61 8.4 4.68 12.32.45.85.41 1.95.54 2.62-.36.94-.59 1.53-.81 2.1.64.52 1.17.93 1.84 1.44zm-47.61-32.55c-.12.48-.35.85-.25 1.07.47 1.08 1.04 2.07 1.9 2.96 2.23 2.3 4.33 4.73 6.46 7.12.22.24.41.57.48.88.29 1.24 1.26 1.98 2.04 2.85.79.88 1.73 1.66 2.39 2.63 1.8 2.66 3.99 4.99 6.06 7.41 1.98 2.31 4.14 4.47 6.11 6.78 2.08 2.45 4.85 4.16 6.88 6.66.72.89 1.86 1.44 2.66 2.04.71 1.17 1.32 2.18 1.69 2.8 2.98 2.69 5.71 4.96 7.63 8.03.71 1.13 1.77 2.03 2.69 3.03.45.49 1.11.89 1.36 1.47 1.01 2.28 3.01 3.57 4.76 5.22.17-.45.45-.8.37-1.02-.6-1.57-1.3-3.1-1.93-4.66-1.82-4.54-4.25-8.81-6.05-13.36-2.13-3.08-3.55-6.5-4.9-9.97-.49-1.26-.95-2.55-1.63-3.71-1.89-3.25-3.07-6.78-4-10.37-.97-3.76-1.99-7.48-3.41-11.09-.68-1.75-1.21-3.5-1.08-5.42.06-.87-.28-1.65-1.13-2.24-.4-.08-.89-.28-1.39-.27-3.53.11-7.1-.43-10.56.77-.62.21-1.34.16-2.01.19-3.04.11-6.08.34-9.13.19-2.01-.1-4.04 0-6.01.01zm65.86 11.5c1.11 2.78 1.69 5.74 1.59 8.84-.04 1.17.08 2.4.44 3.5.55 1.66.55 3.32.62 5.01.06 1.35-.07 2.8.38 4.02.73 1.98.71 3.98.78 6 .05 1.35-.16 2.82.29 4.03.97 2.65.78 5.33.81 8.03.01.85-.18 1.75.05 2.53.95 3.13.67 6.38 1.13 9.55.04.25.3.47.46.7.31-.16.72-.24.85-.48.32-.58.68-1.22.72-1.85.17-2.55.43-5.05 1.55-7.39.21-.44.25-.98.3-1.48.34-3.55 1.42-6.93 2.46-10.31.79-2.59 1.53-5.19 1.54-7.91 0-2.07.49-4 1.22-5.93 1.14-2.98 2.03-6.05 2.36-9.27.54-.82 1.1-1.65 1.52-2.28v-6.69c1.03-1.06 1.35-2.72 1.58-4.4.24-1.7 1.5-2.98 1.76-4.73.35-2.32 1.11-4.57 1.62-6.87.14-.63.17-1.36-.61-1.96-1.31-.57-2.89-.53-4.3-.12-1.83.53-3.66.6-5.51.76-1.68.14-3.42.12-5.03.56-1.85.51-3.67.51-5.53.49-.68-.01-1.36-.03-2.03.03-.89.08-1.61.46-2.03 1.73 1.1 4.99.75 10.41 1.01 15.89z"/><path class="st1" d="M153.57 158.49c1.41.38 2.42 1.24 2.89 2.6.35.98.82 1.84 1.54 2.59 2.8 2.96 5.01 6.36 7.27 9.72.86 1.27 1.78 2.44 2.83 3.54 2.21 2.32 4.57 4.52 6.37 7.21.36.53.94.97 1.5 1.31.9.55 1.54 1.27 2.06 2.18.33.57.77 1.25 1.33 1.49 2.31.99 3.16 3.51 5.17 4.78 3.98 5.07 8.83 9.32 13.38 13.85 1.54 1.53 2.81 3.33 4.82 4.43.96.53 1.46 1.82 2.32 2.61 3.48 3.2 6.99 6.36 10.53 9.48 2.03 1.79 4.05 3.56 5.73 5.7.73.92 1.53 1.91 2.52 2.47 1.78 1.01 3.13 2.54 4.67 3.72.62-.08 1.12-.15 1.8-.24.21-.76.43-1.54.64-2.33.12-.12.21-.31.35-.36 1.27-.42 2.54-.82 3.97-1.28.52-1.02 1.1-2.03 1.57-3.09.41-.92.5-2.05 1.09-2.8 1.98-2.53 3.03-5.66 5.3-8 .56-.58.83-1.46 1.26-2.24 1.44-1.35 2.93-2.73 4.41-4.11.26-1.02.51-1.99.77-2.98l5.07-3.46c.17-.63.34-1.28.57-2.13 1.18-1.97 3.19-3.64 4.17-6.03 2.05-1.58 2.82-4.14 4.6-5.96 1.75-1.79 3.15-3.93 4.9-6.16.44-2.26 1.56-4.49 3.47-6.28 2.97-2.81 4.87-6.42 7.07-9.23.45-1.38-.23-2.06-.47-3.02.57-.21 1.16-.43 2.05-.77 2.09-2.45 3.36-5.93 6.29-7.84.24-.9.43-1.54.58-2.19.11-.49.17-1 .29-1.71.94-1.18 1.99-2.5 3.15-3.94.4-1.47.7-3.15 1.32-4.7.62-1.56 1.53-3.01 2.38-4.46.63-1.07 1.59-1.74 2.88-1.84.95.7 1.89 1.41 2.57 1.91 1.13 1.71.6 3.25.57 4.73-.73 1.9-1.45 3.79-2.38 6.2-.38.32-1.15.98-2.02 1.73-1.15 3.44-4.18 6.01-5.1 9.95-1.22 1.34-2.87 2.67-2.88 4.56-1.78 2.48-3.39 4.63-4.89 6.85-1.41 2.08-2.94 4.11-3.81 6.52-.36 1-1.27 1.56-1.85 2.37-.58.8-.81 1.84-1.31 2.71-.5.88-1.13 1.68-1.25 2.74-.04.32-.17.71-.4.91-2.1 1.81-2.91 4.53-4.72 6.54-.56.62-1 1.37-1.59 1.96-.47.47-1.08.8-1.63 1.19-.21.67-.41 1.31-.63 2-.52 1.37-2.3 1.97-2.35 3.74-.01.45-.35 1.01-.71 1.31-1.99 1.66-3.02 4.03-4.52 6.04-1.42 1.89-2.53 4-3.88 5.95-.77 1.11-1.74 2.07-2.62 3.1-.99 1.15-2.22 2.18-2.91 3.49-.79 1.5-1.78 2.86-2.64 4.3-1.49.61-2.17 2.05-3.18 3.15-.23.25-.37.6-.64.79-3.73 2.65-6.66 6.2-10.21 9.04-.24.19-.63.21-1.12.36-2.81-1.21-5.75-2.47-8.67-3.76-.61-.27-1.19-.64-1.73-1.03-1.78-1.28-3.6-2.52-5.28-3.93-1.16-.97-2.1-2.19-3.61-3.8-.88-.45-2.37-1.23-3.9-2.02-.73-.91-1.41-1.88-2.23-2.73-.94-.97-1.87-2.07-3.03-2.66-3.23-1.65-5.65-4.21-8.2-6.67-1.2-1.15-2.14-2.66-3.79-2.83-.31-.97-.51-1.6-.71-2.24-.25-.21-.48-.52-.77-.6-1.73-.45-3.01-1.45-3.92-2.98-.34-.57-.7-1.24-1.23-1.57-1.75-1.1-3.24-2.41-4.27-4.23-.23-.42-.68-.82-1.12-1-2.32-.97-3.64-2.99-5.1-4.82-.84-1.07-1.52-2.21-2.82-2.82-.42-.2-.71-.7-1.03-1.08-1.07-1.3-2.12-2.62-3.32-4.11-.18-.58-.43-1.38-.67-2.17-1.15-1-2.3-1.99-3.39-2.93-.83-1.75-1.63-3.42-2.47-5.17-1.85-1.88-3.75-3.81-5.71-5.81-.97-3.23-3.09-5.83-5.26-8.13.2-2.8.2-2.8 3.37-3.67.5-.55.34-1.29.55-1.91z"/><path class="st2" d="M210.59 48.24c.89-2.99 1.65-5.56 2.65-8.92.17-.17.88-.87 1.16-1.15 1.41-.34 2.08-.13 2.43.48.68 1.14 1.23 2.36 1.86 3.58v14.91c-.97 2.08-2.47 3.09-4.25 3.85h-2.63c-.29-.32-.63-.69-.98-1.07-.77-4.08-.22-8.11-.24-11.68zM172.92 249.63c-.44.2-1.35.63-2 .93-2 .27-3.26-.37-4.05-1.85-.92-2.24.81-3.86 1.28-5.83 1.63-.64 2.63-2.02 3.47-3.45 1.23-2.09 3-3.64 4.71-5.26.76-.72 1.73-1.04 2.96-.84 1.01.63 2.15 1.33 3.54 2.19l.83 2.12c-.25.48-.4.99-.73 1.36-3.02 3.38-5.44 7.32-10.01 10.63zM150.76 68.67c-.36-1.21-.7-2.32-.99-3.28.16-1.02.83-1.18 1.49-1.24s1.34-.01 1.68-.01c.63.3.97.39 1.22.59 2.1 1.69 3.93 3.61 5.51 5.83 1.84 2.6 3.91 5.03 5.94 7.5.87 1.06 1.57 2.16 1.75 3.53-.05.16-.06.33-.14.46-.48.73-1.18 1.17-1.72 1.41-1.14.26-1.93.01-2.64-.47-1.24-.85-2.45-1.75-3.84-2.75-1.21-2.15-2.43-4.49-4.46-6.39-1.55-1.45-2.58-3.48-3.8-5.18z"/><path class="st0" d="M243.94 59.05c-1.31-.53-1.67-1.44-1.88-2.86.36-.95.82-2.2 1.3-3.46 1.37-3.64 2.93-7.2 3.93-10.98.2-.77.84-1.42 1.26-2.09 1.14-.2 2.14-.39 3.14-.53.32-.04.66.05 1.52.13.06.06.4.4.7.69-.28 1.46-.64 2.6-.69 3.74-.05 1.27-.76 2.22-1.16 3.32-.63 1.74-1.23 3.5-1.7 5.29-.72 2.76-2.19 4.93-4.71 6.29-.55.31-1.26.35-1.71.46zM176.11 56.84c-.1-.83-.4-2.16-.41-3.49-.02-1.81.78-3.22 2.66-3.91.41.26.95.44 1.21.81.77 1.1 1.53 2.22 2.1 3.42 1.29 2.72 2.44 5.51 3.69 8.26.48 1.07 1.06 2.09 1.68 3.28-.27 1.22-.55 2.51-.85 3.84l-1.84 1.09c-.95-.37-1.88-.72-2.75-1.06-.34-.5-.72-.87-.88-1.33-1-2.83-1.93-5.69-2.95-8.52-.22-.57-.73-1.05-1.66-2.39zM251.76 254.69c.49.06.98.13 1.63.21l2.48 2.91c.43 1.94.82 3.74 1.26 5.76.85 1.15 1.97 2.45 1.48 4.34-.23.87.19 1.62.52 2.41.55 1.32.48 2.62-.6 4.06-1.16.75-2.77 1.17-4.29 1.78-.13.05-.33-.05-.66-.11-1.51-2.58-1.97-5.58-2.34-8.55-.37-3.01-.62-6.02-1.68-8.66.36-1.77.98-3.09 2.2-4.15zM309.93 235.15c.07.73.12 1.39.19 2.16-.48.65-.98 1.31-1.53 2.07-.83.11-1.64.22-2.35.32-3.63-2.45-7.38-4.38-10.57-7.19-.85-.75-2.11-1.01-3.15-1.55-.76-.39-1.38-.96-1.54-1.88.35-2.56.67-2.62 2.18-4.03.61-.17 1.41-.4 2.07-.59.49.14.9.13 1.12.33 3.34 3.07 7.37 5.33 10.3 8.72 1.15.57 2.19 1.09 3.28 1.64z"/><path class="st2" d="M286.7 254.48c.26.95.63 2.24 1.05 3.74l-.92 1.94c-1.59 1.1-3.08.54-4.44.35-2.95-1.83-3.98-5.1-6.18-7.19-.57-1.57-1.09-2.99-1.67-4.57.44-.96.92-2.02 1.27-2.79 1.16-1.01 2.13-.79 3.33-.34.99.84 2.14 1.81 2.82 2.39 1.76 2.4 3.15 4.3 4.74 6.47zM278.15 65.15c-.8.26-1.28.41-1.89.61-.87-.2-1.85-.41-2.67-.6-1.1-.67-1.39-1.62-1.6-2.61.47-1.67 1.19-3.22 2.52-4.31.9-.73.95-1.74 1.2-2.27 1.97-2.57 3.72-4.83 5.63-7.32.37-.15.98-.39 1.42-.56 1.39.46 2.31 1.12 2.85 2.38 0 .25.11.63-.02.9-1.35 2.86-2.1 6.04-4.45 8.37-.43 2.04-1.78 3.58-2.99 5.41z"/><path class="st0" d="M203.73 252.05c.78.73 1.11 1.66 1.21 2.72-.92 4.29-2.8 8.23-5 12-.92 1.57-2.27 2.9-3.47 4.3-.18.21-.61.2-1.02.32-1.84-.97-2.3-2.68-2.35-4.7.28-1.08.49-2.24.89-3.34.39-1.07.57-2.3 1.71-2.95 1.32-2.72 2.65-5.43 4.05-8.3 2.06-.72 2.06-.72 3.98-.05z"/><path class="st2" d="M232.1 270.97c.21.77.31 1.1.34 1.22-.67 2.6-1.29 5.02-2.03 7.9-.52.47-1.37 1.25-2.03 1.86-1.31.21-1.85-.4-2.42-1.39-.3-2.61-.62-5.45.51-8.21.74-1.8-.01-3.7.77-6.5.05-.12.47-1.22 1-2.26.3-.58.8-1.07 1.16-1.54 1.69-.24 1.71-.27 3.32 1.22.33 2.46.66 5.09-.62 7.7z"/><path class="st1" d="M290.31 130.69c-1.16 2.98-1.45 6.16-2.19 9.24-.11.45-.33.88-.48 1.27-.29.03-.5.13-.62.06-.58-.33-1.13-.71-1.68-1.07-1.34 1.03-1.53 1.4-3.35 6.72l-3.98 4.27c-.23 1.06-.44 2.04-.65 3.03-1.41 1.91-2.91 3.75-4.18 5.73-1.08 1.68-2.49 3.13-2.97 5.23-.28 1.24-1.36 2.3-1.97 3.26-.76.48-1.33.83-1.95 1.22-1.58 3.85-4.32 7.17-5.26 11.25-.79.29-1.41.52-2.09.78-.93.94-1.57 2.13-2.04 3.39-.29.78-.41 1.63-.63 2.56-.87 1.28-1.85 2.65-2.73 4.07-.45.72-.95 1.32-1.56 1.92-1.58 1.54-2.81 3.35-3.09 5.69-.99.91-1.98 1.82-3.15 2.9-.36.87-.8 1.95-1.23 2.99-.39.03-.69.05-1 .08-.92-1.72.37-3.26.39-4.88.03-1.92.99-3.55 1.25-5.4.23-1.63 1.16-3.15 1.56-4.17.54-4.26 1.01-7.94 1.48-11.64.68-1.53 1.37-3.07 2.09-4.66-.29-1.15-.59-2.28-.88-3.42-.03-1.13.97-1.73 1.45-2.9.17-2.42.36-5.1.55-7.72.47-.78.91-1.5 1.51-2.51.14-2.24.3-4.76.48-7.7 1.62-2.02.55-4.9 1.16-7.71l2.76-2.79c2.36-.44 4.56-1.18 6.74-2.15 3.84-1.71 7.63-3.66 11.86-4.35.33-.05.69-.11.97-.27 3.87-2.23 8.33-2.7 12.45-4.18.59.48.89 1.11.98 1.86zM206.69 182.12l-1.87-1.42c.22-.57.45-1.16.81-2.1-.13-.67-.09-1.77-.54-2.62-2.07-3.92-2.87-8.31-4.68-12.32-.69-1.54-1.26-3.14-2.08-5.21-.07-.63-.2-1.8-.34-3.15-1.88-1.91-2.77-4.44-3.37-7.09.19-.88.91-.9 1.55-.89.84 0 1.77.38 2.52.14 2.31-.72 4.73-.36 7.03-.94.82-.2 1.6-.56 2.69-.95h9.66c.5.54 1.17 1.25 1.69 1.81.04 2.98.11 5.68.1 8.38 0 1.7 0 3.39.75 4.98.11 3.36 1.23 6.66.47 10.07-.11.48-.15 1.06.01 1.51.88 2.42.24 5.07 1.28 7.49.38.88.29 2 .29 3.01 0 3.55-.24 7.12.91 10.58.15.47.07 1.01.1 1.52.2 3.01.06 6.02.9 9.01.49 1.74.23 3.71.28 5.57.07 2.53.05 5.02.78 7.54.6 2.06.4 4.34.05 6.55h-1.31c-1.47-2.11-3.08-4.21-4.05-6.81-2.18-5.86-4.56-11.65-6.83-17.48-.79-2.04-1.43-4.15-2.22-6.19-.78-2.04-1.86-3.93-2.31-6.14-.29-1.61-1.38-3.05-2.27-4.85zM159.08 149.57c1.97-.01 4-.11 6.02-.01 3.05.15 6.09-.07 9.13-.19.67-.03 1.39.03 2.01-.19 3.46-1.2 7.03-.66 10.56-.77.49-.02.99.19 1.39.27.85.59 1.18 1.37 1.13 2.24-.13 1.91.4 3.67 1.08 5.42 1.41 3.61 2.44 7.34 3.41 11.09.93 3.59 2.11 7.12 4 10.37.68 1.16 1.14 2.45 1.63 3.71 1.35 3.46 2.77 6.89 4.9 9.97 1.8 4.55 4.24 8.81 6.05 13.36.62 1.56 1.32 3.09 1.93 4.66.08.21-.2.57-.37 1.02-1.75-1.65-3.75-2.94-4.76-5.22-.26-.58-.91-.97-1.36-1.47-.91-1-1.98-1.9-2.69-3.03-1.92-3.07-4.65-5.34-7.63-8.03-.37-.62-.98-1.63-1.69-2.8-.8-.6-1.93-1.15-2.66-2.04-2.03-2.5-4.8-4.22-6.88-6.66-1.97-2.32-4.13-4.47-6.11-6.78-2.07-2.42-4.26-4.75-6.06-7.41-.66-.97-1.6-1.74-2.39-2.63-.78-.87-1.75-1.61-2.04-2.85-.07-.32-.26-.64-.48-.88-2.13-2.39-4.23-4.82-6.46-7.12-.86-.89-1.43-1.88-1.9-2.96-.11-.23.12-.59.24-1.07zM224.94 161.07c-.26-5.48.09-10.9-1.02-15.89.42-1.26 1.14-1.65 2.03-1.73.67-.06 1.35-.04 2.03-.03 1.86.03 3.68.03 5.53-.49 1.61-.44 3.35-.42 5.03-.56 1.85-.16 3.68-.23 5.51-.76 1.41-.41 2.99-.45 4.3.12.78.6.75 1.34.61 1.96-.51 2.3-1.28 4.55-1.62 6.87-.26 1.75-1.52 3.03-1.76 4.73-.23 1.68-.55 3.34-1.58 4.4v6.69l-1.52 2.28c-.33 3.22-1.22 6.29-2.36 9.27-.73 1.92-1.22 3.86-1.22 5.93 0 2.73-.74 5.32-1.54 7.91-1.04 3.38-2.12 6.76-2.46 10.31-.05.5-.09 1.04-.3 1.48-1.13 2.34-1.39 4.85-1.55 7.39-.04.63-.4 1.27-.72 1.85-.13.24-.54.32-.85.48-.16-.23-.43-.45-.46-.7-.46-3.17-.18-6.42-1.13-9.55-.24-.78-.04-1.68-.05-2.53-.03-2.7.16-5.38-.81-8.03-.45-1.22-.24-2.68-.29-4.03-.07-2.02-.05-4.02-.78-6-.45-1.22-.32-2.67-.38-4.02-.07-1.69-.07-3.36-.62-5.01-.37-1.1-.48-2.33-.44-3.5.11-3.1-.47-6.06-1.58-8.84zM238.53 103.49c.29.15.72.23.85.47.49.88 1.07 1.77 1.29 2.73.65 2.81 1.62 5.43 3.15 7.91 1.13 1.84 1.73 4.01 2.68 5.97.66 1.36 1.51 2.62 2.46 4.25.14 1.28.1 3.01.54 4.6.44 1.59 1.2 3.1 1.35 4.81-.72 1.64-2.43 1.6-3.35 1.99-4.47.2-8.51.44-12.54.54-1.72.04-3.31.53-4.96.88-2.24.47-4.06-.43-4.97-2.5-.54-1.22-.88-2.53-1.33-3.86.18-.81.43-1.62.54-2.44.13-1 .43-2.08.18-3-1.1-3.98-.56-8.05-.86-12.59-.88-2.05-1.29-4.68-.88-7.41 2.12-.4 4.34-.15 6.36-1.24.84-.45 1.96-.46 2.96-.56 2.17-.22 4.35-.37 6.53-.55zM216.24 107.84c.16.82.56 1.68.44 2.46-.33 2.14.97 3.92 1.08 5.94.1 1.84-.2 3.72.56 5.21-.07 1.12-.66 1.88-.3 2.93.42.49.96 1.11 1.6 1.86-.25.71-.53 1.49-.68 1.89-.16 3.75-.3 7.12-.46 10.49-.01.14-.19.27-.55.73-1.69.84-4.13-.39-5.88 1.04-1.49-.25-2.81-.47-4.27-.71-1.17.51-2.4 1.05-3.65 1.6-2.31.38-4.61.72-7.01.29-1.29-.23-2.67.1-4.06.17-.56-.38-1.11-.76-1.47-1.01-.7-1.17-.63-2.15-.18-3.11.51-1.07 1.08-2.1 1.56-3.02.41-1.59-.2-3.23.87-4.55.97-4.28 2.67-8.32 3.98-12.49.15-.48.37-.98.34-1.46-.12-1.95.8-3.6 1.39-5.34.46.16.92.32 1.44.49 1.25-.76 2.63-1.2 4.12-1.37 1.31-.15 2.7-.17 3.89-.65 2.35-.93 4.78-1.16 7.24-1.39zM284.86 123.87c-2.52.91-5.05 1.82-7.94 2.87-.48.37-1.28.98-2.21 1.69-3.22-.2-6.16 1.18-8.96 2.69-1.52.82-3.09 1.24-4.61 1.63-.91.65-1.73 1.23-2.59 1.84-.48-.04-.97-.08-1.3-.11-.36-.34-.71-.52-.83-.79-.27-.62-.51-1.27-.61-1.93-.61-4.36-2.37-8.38-3.77-12.5-.05-.16-.06-.33-.1-.5-.14-.48-.15-1.09-.45-1.43-2.53-2.83-2.72-6.89-5.26-9.9-.14-.83-.27-1.83-.5-2.8-.19-.81-.5-1.59-.76-2.39 2.57-.8 5.36-.59 7.85-1.73l3.99.15c1.06.99 2.03 1.9 3 2.8.79.27 1.58.54 2.33.8.89 1.14 1.71 2.2 2.53 3.26.7.46 1.44.86 2.08 1.39 3.09 2.59 6.03 5.36 9.53 7.43 2.22 2.26 5.16 3.77 6.48 6.22.98.64 1.54.98 2.1 1.31zM192.89 112.49c.03 1 .38 2.14.02 2.97-.7 1.62-.72 3.29-.94 5.18-.4.71-.9 1.58-1.42 2.5-.68 4.09-1.34 8.25-3.27 12.05-1.01 2-1.01 4.24-1.51 6.2-.4.35-.65.57-.94.82-4.65.75-9.37.76-14.06.79-1.3.53-2.54 1.05-3.86 1.59-1.97-.14-4.01.27-5.97-.5 1.55-2.77 3.58-5.29 4.43-8.44.17-.62.57-1.29 1.06-1.69 1.27-1.05 1.12-2.81 2.25-3.85.71-.72 1.41-1.44 1.97-2 .34-1.01.61-1.8.8-2.38.79-.73 1.4-1.29 1.91-1.77.25-.97.46-1.77.58-2.23 1.94-2.73 3.67-5.18 5.22-7.36 1.93-1.23 3.09.45 5 .62 1.18-.36 2.84-.72 4.37-1.39 1.4-.6 2.86-.87 4.36-1.11z"/></svg>