<?xml version="1.0" encoding="utf-8"?>
<!-- Generator: Adobe Illustrator 26.0.1, SVG Export Plug-In . SVG Version: 6.00 Build 0)  -->
<svg version="1.1" id="Layer_1" xmlns="http://www.w3.org/2000/svg" xmlns:xlink="http://www.w3.org/1999/xlink" x="0px" y="0px"
	 viewBox="0 0 458 320" style="enable-background:new 0 0 458 320;" xml:space="preserve">
<style type="text/css">
	.st0{fill:#131112;}
	.st1{fill:#FF5543;}
	.st2{fill:#6B59E9;}
</style>
<g>
	<path class="st0" d="M153.57,158.49c-1.06-2.28-2.65-4.3-3.38-6.77c-0.18-0.6-0.82-1.05-1.19-1.61s-0.69-1.16-0.96-1.77
		c-0.13-0.3-0.12-0.66-0.16-0.97c0.42-1.54,2.03-1.68,3.41-3c0.37-0.7,1.15-1.83,1.61-3.08c1.12-3.04,2.67-5.84,4.59-8.76
		c0.34-2.11,1.13-4.3,2.43-6.34c1.27-1.99,2.5-4,3.31-6.28c0.5-1.4,1.47-2.65,2.32-3.91c1.89-2.82,3.52-5.78,4.68-8.6
		c1.44-1.82,3.36-2.21,4.94-3.17c1.51-0.07,3.07,0.07,4.51-0.27c1.63-0.38,3.15-1.2,4.33-1.68c2.88-0.58,5.46-0.81,7.81-1.67
		c2.28-0.83,4.56-1.19,6.91-1.25c0.97-0.47,1.88-0.92,3.17-1.55c1.81-0.02,4.06-0.24,5.96-1.36c1.42-0.84,3.05-0.37,4.39-1.12
		c1.23-0.68,2.56-0.76,3.91-0.92c1.32-0.16,2.66-0.56,3.89-1.08c1.59-0.67,3.23-1.19,4.91-1.21c2.08-0.02,4.04-0.55,5.98-1.06
		c2.3-0.6,4.62-1.11,6.95-1.36c1.74-0.18,3.28-0.75,4.95-1.4c1.26,0,2.61,0,4.12,0c1.8-0.51,3.64-1.4,5.76-1.33
		c1.31,0.04,2.66-0.46,3.96-0.84c1.87-0.54,3.67-0.47,5.41,0.33c1.96,1.91,3.88,3.8,5.82,5.67c0.73,0.7,1.51,1.33,2.26,2.01
		c1,0.91,1.99,1.82,2.96,2.75c0.85,0.82,1.57,1.81,2.52,2.48c1.64,1.16,3.47,1.97,4.94,3.48c1.38,1.43,3.22,2.42,4.87,3.58
		c2.49,1.74,4.45,4.15,6.95,5.45c1.04,1.23,2,2.21,2.76,3.32c0.65,0.96,1.08,2.07,1.68,3.27c3.13,1.46,6.47,2.91,7.49,7.15
		c-0.3,2.36-2.48,4.07-3.31,6.46c-0.82,2.39-1.75,4.75-3.09,6.92c-1.29,0.1-2.25,0.77-2.88,1.84c-0.86,1.45-1.76,2.9-2.38,4.46
		c-0.62,1.55-0.92,3.23-1.32,4.7c-1.15,1.45-2.2,2.76-3.15,3.94c-0.12,0.71-0.17,1.22-0.29,1.71c-0.15,0.65-0.34,1.29-0.58,2.19
		c-2.93,1.91-4.2,5.39-6.29,7.84c-0.89,0.33-1.48,0.55-2.05,0.77c0.24,0.97,0.92,1.65,0.47,3.02c-2.2,2.82-4.1,6.43-7.07,9.23
		c-1.9,1.8-3.03,4.03-3.47,6.28c-1.75,2.23-3.15,4.37-4.9,6.16c-1.78,1.83-2.55,4.38-4.6,5.96c-0.98,2.38-3,4.06-4.17,6.03
		c-0.23,0.85-0.4,1.5-0.57,2.13c-1.74,1.19-3.4,2.32-5.07,3.46c-0.25,0.98-0.5,1.95-0.77,2.98c-1.48,1.38-2.96,2.76-4.41,4.11
		c-0.43,0.79-0.69,1.66-1.26,2.24c-2.27,2.34-3.32,5.47-5.3,8c-0.59,0.75-0.68,1.89-1.09,2.8c-0.47,1.06-1.05,2.07-1.57,3.09
		c-1.42,0.45-2.7,0.85-3.97,1.28c-0.14,0.05-0.24,0.24-0.35,0.36c-0.22,0.79-0.44,1.58-0.64,2.33c-0.68,0.09-1.18,0.15-1.8,0.24
		c-1.55-1.18-2.89-2.71-4.67-3.72c-0.99-0.56-1.8-1.55-2.52-2.47c-1.68-2.14-3.7-3.91-5.73-5.7c-3.54-3.12-7.05-6.28-10.53-9.48
		c-0.86-0.79-1.36-2.08-2.32-2.61c-2.01-1.1-3.28-2.9-4.82-4.43c-4.54-4.53-9.39-8.77-13.38-13.85c-2.02-1.27-2.86-3.79-5.17-4.78
		c-0.56-0.24-1-0.92-1.33-1.49c-0.52-0.9-1.16-1.63-2.06-2.18c-0.56-0.34-1.14-0.78-1.5-1.31c-1.81-2.69-4.16-4.89-6.37-7.21
		c-1.06-1.11-1.98-2.27-2.83-3.54c-2.26-3.36-4.47-6.76-7.27-9.72c-0.71-0.75-1.19-1.61-1.54-2.59
		C155.98,159.73,154.97,158.87,153.57,158.49z M292.96,127.42c-0.44,0.09-0.89,0.29-1.32,0.25c-1.05-0.08-1.8,0.29-2.33,1.18
		c-4.12,1.48-8.58,1.95-12.45,4.18c-0.28,0.16-0.64,0.22-0.97,0.27c-4.23,0.69-8.02,2.64-11.86,4.35c-2.18,0.97-4.38,1.72-6.74,2.15
		c-0.97,0.98-1.91,1.93-2.76,2.79c-0.62,2.81,0.46,5.69-1.16,7.71c-0.18,2.93-0.34,5.46-0.48,7.7c-0.61,1-1.04,1.72-1.51,2.51
		c-0.19,2.62-0.37,5.3-0.55,7.72c-0.48,1.17-1.48,1.77-1.45,2.9c0.29,1.14,0.58,2.27,0.88,3.42c-0.71,1.59-1.4,3.13-2.09,4.66
		c-0.47,3.7-0.94,7.38-1.48,11.64c-0.4,1.02-1.33,2.55-1.56,4.17c-0.27,1.85-1.23,3.48-1.25,5.4c-0.02,1.62-1.31,3.16-0.39,4.88
		c0.31-0.02,0.62-0.05,1-0.08c0.43-1.04,0.87-2.12,1.23-2.99c1.17-1.08,2.16-1.99,3.15-2.9c0.29-2.34,1.51-4.15,3.09-5.69
		c0.62-0.6,1.12-1.2,1.56-1.92c0.88-1.42,1.86-2.79,2.73-4.07c0.22-0.93,0.34-1.78,0.63-2.56c0.47-1.27,1.11-2.45,2.04-3.39
		c0.68-0.25,1.3-0.48,2.09-0.78c0.93-4.09,3.67-7.41,5.26-11.25c0.62-0.39,1.19-0.74,1.95-1.22c0.61-0.96,1.69-2.02,1.97-3.26
		c0.48-2.11,1.9-3.56,2.97-5.23c1.27-1.99,2.78-3.83,4.18-5.73c0.21-0.99,0.42-1.97,0.65-3.03c1.36-1.46,2.74-2.94,3.98-4.27
		c1.81-5.32,2-5.69,3.35-6.72c0.56,0.36,1.11,0.74,1.68,1.07c0.12,0.07,0.33-0.03,0.62-0.06c0.15-0.39,0.37-0.81,0.48-1.27
		c0.74-3.08,1.03-6.26,2.19-9.24c0.67,0.05,1.33,0.1,1.74-0.59c0.51-0.86-0.07-2.03,0.82-2.79c0.09-0.07,0.18-0.15,0.28-0.22
		C293.08,127.2,293.02,127.31,292.96,127.42z M192.89,112.49c1.2-1.51,1.43-3.42,2.07-5.16c0.08-0.22-0.2-0.58-0.34-0.95
		c-0.96-0.14-1.96-0.29-2.98-0.45c-1.62,0.41-3.33,0.63-4.86,1.29c-1.63,0.7-3.5,0.01-4.93,0.94c-1.49,0.98-3.36,0.5-4.95,1.62
		c-1.23,2.19-3.06,4.18-3.9,6.86c-0.54,1.73-1.83,3.22-2.76,4.83c-2.11,3.65-3.2,7.85-6.01,11.13c-0.31,0.36-0.37,0.94-0.59,1.4
		c-0.44,0.91-0.74,1.96-1.4,2.69c-1.85,2.06-2.52,4.73-4,6.89c0.8,1.37,1.78,0.81,2.71,0.51c1.96,0.76,4.01,0.35,5.97,0.5
		c1.32-0.54,2.56-1.05,3.86-1.59c4.69-0.03,9.42-0.05,14.06-0.79c0.29-0.25,0.54-0.47,0.94-0.82c0.5-1.96,0.49-4.2,1.51-6.2
		c1.93-3.8,2.59-7.96,3.27-12.05c0.52-0.92,1.02-1.8,1.42-2.5c0.22-1.89,0.24-3.56,0.94-5.18
		C193.26,114.63,192.92,113.49,192.89,112.49z M244.96,102.26c0.26,0.79,0.57,1.58,0.76,2.39c0.23,0.97,0.36,1.97,0.5,2.8
		c2.55,3.01,2.73,7.07,5.26,9.9c0.3,0.34,0.31,0.94,0.45,1.43c0.05,0.16,0.05,0.34,0.1,0.5c1.41,4.12,3.16,8.14,3.77,12.5
		c0.09,0.66,0.34,1.31,0.61,1.93c0.12,0.28,0.46,0.46,0.83,0.79c0.33,0.03,0.82,0.07,1.3,0.11c0.86-0.61,1.68-1.19,2.59-1.84
		c1.52-0.38,3.09-0.8,4.61-1.63c2.8-1.51,5.74-2.89,8.96-2.69c0.93-0.71,1.73-1.33,2.21-1.69c2.89-1.05,5.42-1.96,7.94-2.87
		c0.66-0.08,1.39-0.02,1.97-0.27c1.83-0.8,3.81-1.34,5.28-2.54c0.2-0.97-0.23-1.47-0.75-1.89c-1.04-0.86-2.19-1.6-3.15-2.53
		c-1.08-1.05-2.01-2.26-2.72-3.07c-4.15-2.42-7.32-5.5-10.75-7.72c-1.14-1.42-2.08-2.61-2.96-3.7c-2.46-0.77-4.33-2.22-5.77-4.1
		c-0.79-1.03-2.13-1.02-2.71-1.84c-0.78-1.32-1.46-2.47-2.19-3.7c-1.61-0.01-3.12,0.03-4.62-0.04c-1.67-0.08-3.33-0.25-5.11-0.38
		c-2.94,1.8-6.94,0.51-9.96,3.05c0.84,2.04,1.64,4.05,2.52,6.03C244.14,101.59,244.61,101.9,244.96,102.26z M199.55,110.77
		c-0.59,1.74-1.52,3.39-1.39,5.34c0.03,0.48-0.19,0.98-0.34,1.46c-1.31,4.17-3.01,8.21-3.98,12.49c-1.07,1.32-0.46,2.95-0.87,4.55
		c-0.48,0.92-1.05,1.96-1.56,3.02c-0.45,0.96-0.52,1.94,0.18,3.11c0.36,0.25,0.91,0.62,1.47,1.01c1.38-0.08,2.77-0.4,4.06-0.17
		c2.4,0.42,4.71,0.09,7.01-0.29c1.26-0.55,2.48-1.09,3.65-1.6c1.46,0.24,2.78,0.46,4.27,0.71c1.74-1.43,4.19-0.2,5.88-1.04
		c0.36-0.46,0.55-0.59,0.55-0.73c0.16-3.37,0.3-6.74,0.46-10.49c0.14-0.4,0.42-1.18,0.68-1.89c-0.65-0.75-1.18-1.37-1.6-1.86
		c-0.36-1.05,0.22-1.81,0.3-2.93c-0.76-1.49-0.46-3.37-0.56-5.21c-0.11-2.02-1.41-3.8-1.08-5.94c0.12-0.78-0.28-1.64-0.44-2.46
		c0.05-1.51,0.19-3.03,0.13-4.54c-0.04-1.04-0.57-1.93-1.52-2.44c-1.21-0.48-2.36-0.29-3.48,0.16c-1.72,0.7-3.45,1.43-5.32,1.52
		c-1.95,0.1-3.59,0.83-5.14,1.96c-0.73,1.1-1.46,2.21-2.27,3.44C198.94,108.85,199.25,109.81,199.55,110.77z M238.53,103.49
		c0.47-0.99,0.44-2.03-0.05-2.95c-0.86-1.63-1.64-3.33-2.99-4.67c-0.6,0-1.11-0.08-1.58,0.02c-1.32,0.28-2.62,0.68-3.93,0.96
		c-1.98,0.42-3.98,0.78-5.97,1.18c-1.01,0.2-1.98,0.51-2.58,1.7c0.19,1.69,0.37,3.53,0.63,5.37c0.04,0.27,0.4,0.5,0.62,0.74
		c-0.4,2.73,0.01,5.36,0.88,7.41c0.3,4.54-0.24,8.6,0.86,12.59c0.25,0.92-0.04,2-0.18,3c-0.11,0.83-0.35,1.63-0.54,2.44
		c0.45,1.33,0.8,2.63,1.33,3.86c0.91,2.07,2.73,2.97,4.97,2.5c1.64-0.35,3.24-0.84,4.96-0.88c4.04-0.1,8.07-0.34,12.54-0.54
		c0.92-0.4,2.63-0.35,3.35-1.99c-0.15-1.71-0.91-3.22-1.35-4.81c-0.44-1.6-0.41-3.32-0.54-4.6c-0.95-1.63-1.81-2.89-2.46-4.25
		c-0.95-1.97-1.55-4.13-2.68-5.97c-1.53-2.48-2.5-5.1-3.15-7.91c-0.22-0.96-0.8-1.85-1.29-2.73
		C239.24,103.72,238.82,103.64,238.53,103.49z M206.69,182.12c0.89,1.8,1.97,3.24,2.3,4.83c0.45,2.21,1.53,4.1,2.31,6.14
		c0.78,2.05,1.42,4.15,2.22,6.19c2.26,5.83,4.65,11.61,6.83,17.48c0.97,2.6,2.57,4.7,4.05,6.81c0.54,0,0.86,0,1.31,0
		c0.35-2.21,0.55-4.49-0.05-6.55c-0.73-2.52-0.71-5.01-0.78-7.54c-0.05-1.86,0.21-3.82-0.28-5.57c-0.84-2.99-0.7-6-0.9-9.01
		c-0.03-0.51,0.05-1.05-0.1-1.52c-1.15-3.46-0.91-7.03-0.91-10.58c0-1.01,0.09-2.13-0.29-3.01c-1.04-2.41-0.4-5.07-1.28-7.49
		c-0.16-0.45-0.12-1.03-0.01-1.51c0.76-3.4-0.36-6.71-0.47-10.07c-0.75-1.58-0.75-3.27-0.75-4.98c0-2.7-0.06-5.4-0.1-8.38
		c-0.53-0.56-1.19-1.28-1.69-1.81c-3.52,0-6.74,0-9.66,0c-1.09,0.39-1.87,0.74-2.69,0.95c-2.3,0.57-4.73,0.21-7.03,0.94
		c-0.75,0.23-1.67-0.14-2.52-0.14c-0.64,0-1.36,0.01-1.55,0.89c0.6,2.65,1.48,5.18,3.37,7.09c0.15,1.35,0.28,2.53,0.34,3.15
		c0.82,2.08,1.39,3.67,2.08,5.21c1.8,4.01,2.61,8.4,4.68,12.32c0.45,0.85,0.41,1.95,0.54,2.62c-0.36,0.94-0.59,1.53-0.81,2.1
		C205.49,181.2,206.02,181.61,206.69,182.12z M159.08,149.57c-0.12,0.48-0.35,0.85-0.25,1.07c0.47,1.08,1.04,2.07,1.9,2.96
		c2.23,2.3,4.33,4.73,6.46,7.12c0.22,0.24,0.41,0.57,0.48,0.88c0.29,1.24,1.26,1.98,2.04,2.85c0.79,0.88,1.73,1.66,2.39,2.63
		c1.8,2.66,3.99,4.99,6.06,7.41c1.98,2.31,4.14,4.47,6.11,6.78c2.08,2.45,4.85,4.16,6.88,6.66c0.72,0.89,1.86,1.44,2.66,2.04
		c0.71,1.17,1.32,2.18,1.69,2.8c2.98,2.69,5.71,4.96,7.63,8.03c0.71,1.13,1.77,2.03,2.69,3.03c0.45,0.49,1.11,0.89,1.36,1.47
		c1.01,2.28,3.01,3.57,4.76,5.22c0.17-0.45,0.45-0.8,0.37-1.02c-0.6-1.57-1.3-3.1-1.93-4.66c-1.82-4.54-4.25-8.81-6.05-13.36
		c-2.13-3.08-3.55-6.5-4.9-9.97c-0.49-1.26-0.95-2.55-1.63-3.71c-1.89-3.25-3.07-6.78-4-10.37c-0.97-3.76-1.99-7.48-3.41-11.09
		c-0.68-1.75-1.21-3.5-1.08-5.42c0.06-0.87-0.28-1.65-1.13-2.24c-0.4-0.08-0.89-0.28-1.39-0.27c-3.53,0.11-7.1-0.43-10.56,0.77
		c-0.62,0.21-1.34,0.16-2.01,0.19c-3.04,0.11-6.08,0.34-9.13,0.19C163.08,149.46,161.05,149.56,159.08,149.57z M224.94,161.07
		c1.11,2.78,1.69,5.74,1.59,8.84c-0.04,1.17,0.08,2.4,0.44,3.5c0.55,1.66,0.55,3.32,0.62,5.01c0.06,1.35-0.07,2.8,0.38,4.02
		c0.73,1.98,0.71,3.98,0.78,6c0.05,1.35-0.16,2.82,0.29,4.03c0.97,2.65,0.78,5.33,0.81,8.03c0.01,0.85-0.18,1.75,0.05,2.53
		c0.95,3.13,0.67,6.38,1.13,9.55c0.04,0.25,0.3,0.47,0.46,0.7c0.31-0.16,0.72-0.24,0.85-0.48c0.32-0.58,0.68-1.22,0.72-1.85
		c0.17-2.55,0.43-5.05,1.55-7.39c0.21-0.44,0.25-0.98,0.3-1.48c0.34-3.55,1.42-6.93,2.46-10.31c0.79-2.59,1.53-5.19,1.54-7.91
		c0-2.07,0.49-4,1.22-5.93c1.14-2.98,2.03-6.05,2.36-9.27c0.54-0.82,1.1-1.65,1.52-2.28c0-2.28,0-4.31,0-6.69
		c1.03-1.06,1.35-2.72,1.58-4.4c0.24-1.7,1.5-2.98,1.76-4.73c0.35-2.32,1.11-4.57,1.62-6.87c0.14-0.63,0.17-1.36-0.61-1.96
		c-1.31-0.57-2.89-0.53-4.3-0.12c-1.83,0.53-3.66,0.6-5.51,0.76c-1.68,0.14-3.42,0.12-5.03,0.56c-1.85,0.51-3.67,0.51-5.53,0.49
		c-0.68-0.01-1.36-0.03-2.03,0.03c-0.89,0.08-1.61,0.46-2.03,1.73C225.03,150.17,224.68,155.59,224.94,161.07z"/>
	<path class="st1" d="M153.57,158.49c1.41,0.38,2.42,1.24,2.89,2.6c0.35,0.98,0.82,1.84,1.54,2.59c2.8,2.96,5.01,6.36,7.27,9.72
		c0.86,1.27,1.78,2.44,2.83,3.54c2.21,2.32,4.57,4.52,6.37,7.21c0.36,0.53,0.94,0.97,1.5,1.31c0.9,0.55,1.54,1.27,2.06,2.18
		c0.33,0.57,0.77,1.25,1.33,1.49c2.31,0.99,3.16,3.51,5.17,4.78c3.98,5.07,8.83,9.32,13.38,13.85c1.54,1.53,2.81,3.33,4.82,4.43
		c0.96,0.53,1.46,1.82,2.32,2.61c3.48,3.2,6.99,6.36,10.53,9.48c2.03,1.79,4.05,3.56,5.73,5.7c0.73,0.92,1.53,1.91,2.52,2.47
		c1.78,1.01,3.13,2.54,4.67,3.72c0.62-0.08,1.12-0.15,1.8-0.24c0.21-0.76,0.43-1.54,0.64-2.33c0.12-0.12,0.21-0.31,0.35-0.36
		c1.27-0.42,2.54-0.82,3.97-1.28c0.52-1.02,1.1-2.03,1.57-3.09c0.41-0.92,0.5-2.05,1.09-2.8c1.98-2.53,3.03-5.66,5.3-8
		c0.56-0.58,0.83-1.46,1.26-2.24c1.44-1.35,2.93-2.73,4.41-4.11c0.26-1.02,0.51-1.99,0.77-2.98c1.67-1.14,3.34-2.28,5.07-3.46
		c0.17-0.63,0.34-1.28,0.57-2.13c1.18-1.97,3.19-3.64,4.17-6.03c2.05-1.58,2.82-4.14,4.6-5.96c1.75-1.79,3.15-3.93,4.9-6.16
		c0.44-2.26,1.56-4.49,3.47-6.28c2.97-2.81,4.87-6.42,7.07-9.23c0.45-1.38-0.23-2.06-0.47-3.02c0.57-0.21,1.16-0.43,2.05-0.77
		c2.09-2.45,3.36-5.93,6.29-7.84c0.24-0.9,0.43-1.54,0.58-2.19c0.11-0.49,0.17-1,0.29-1.71c0.94-1.18,1.99-2.5,3.15-3.94
		c0.4-1.47,0.7-3.15,1.32-4.7c0.62-1.56,1.53-3.01,2.38-4.46c0.63-1.07,1.59-1.74,2.88-1.84c0.95,0.7,1.89,1.41,2.57,1.91
		c1.13,1.71,0.6,3.25,0.57,4.73c-0.73,1.9-1.45,3.79-2.38,6.2c-0.38,0.32-1.15,0.98-2.02,1.73c-1.15,3.44-4.18,6.01-5.1,9.95
		c-1.22,1.34-2.87,2.67-2.88,4.56c-1.78,2.48-3.39,4.63-4.89,6.85c-1.41,2.08-2.94,4.11-3.81,6.52c-0.36,1-1.27,1.56-1.85,2.37
		c-0.58,0.8-0.81,1.84-1.31,2.71c-0.5,0.88-1.13,1.68-1.25,2.74c-0.04,0.32-0.17,0.71-0.4,0.91c-2.1,1.81-2.91,4.53-4.72,6.54
		c-0.56,0.62-1,1.37-1.59,1.96c-0.47,0.47-1.08,0.8-1.63,1.19c-0.21,0.67-0.41,1.31-0.63,2c-0.52,1.37-2.3,1.97-2.35,3.74
		c-0.01,0.45-0.35,1.01-0.71,1.31c-1.99,1.66-3.02,4.03-4.52,6.04c-1.42,1.89-2.53,4-3.88,5.95c-0.77,1.11-1.74,2.07-2.62,3.1
		c-0.99,1.15-2.22,2.18-2.91,3.49c-0.79,1.5-1.78,2.86-2.64,4.3c-1.49,0.61-2.17,2.05-3.18,3.15c-0.23,0.25-0.37,0.6-0.64,0.79
		c-3.73,2.65-6.66,6.2-10.21,9.04c-0.24,0.19-0.63,0.21-1.12,0.36c-2.81-1.21-5.75-2.47-8.67-3.76c-0.61-0.27-1.19-0.64-1.73-1.03
		c-1.78-1.28-3.6-2.52-5.28-3.93c-1.16-0.97-2.1-2.19-3.61-3.8c-0.88-0.45-2.37-1.23-3.9-2.02c-0.73-0.91-1.41-1.88-2.23-2.73
		c-0.94-0.97-1.87-2.07-3.03-2.66c-3.23-1.65-5.65-4.21-8.2-6.67c-1.2-1.15-2.14-2.66-3.79-2.83c-0.31-0.97-0.51-1.6-0.71-2.24
		c-0.25-0.21-0.48-0.52-0.77-0.6c-1.73-0.45-3.01-1.45-3.92-2.98c-0.34-0.57-0.7-1.24-1.23-1.57c-1.75-1.1-3.24-2.41-4.27-4.23
		c-0.23-0.42-0.68-0.82-1.12-1c-2.32-0.97-3.64-2.99-5.1-4.82c-0.84-1.07-1.52-2.21-2.82-2.82c-0.42-0.2-0.71-0.7-1.03-1.08
		c-1.07-1.3-2.12-2.62-3.32-4.11c-0.18-0.58-0.43-1.38-0.67-2.17c-1.15-1-2.3-1.99-3.39-2.93c-0.83-1.75-1.63-3.42-2.47-5.17
		c-1.85-1.88-3.75-3.81-5.71-5.81c-0.97-3.23-3.09-5.83-5.26-8.13c0.2-2.8,0.2-2.8,3.37-3.67
		C153.52,159.85,153.36,159.11,153.57,158.49z"/>
	<path class="st2" d="M210.59,48.24c0.89-2.99,1.65-5.56,2.65-8.92c0.17-0.17,0.88-0.87,1.16-1.15c1.41-0.34,2.08-0.13,2.43,0.48
		c0.68,1.14,1.23,2.36,1.86,3.58c0,3.9,0,7.77,0,11.65c0,1.17,0,2.35,0,3.26c-0.97,2.08-2.47,3.09-4.25,3.85c-0.79,0-1.61,0-2.63,0
		c-0.29-0.32-0.63-0.69-0.98-1.07C210.06,55.84,210.61,51.81,210.59,48.24z"/>
	<path class="st2" d="M172.92,249.63c-0.44,0.2-1.35,0.63-2,0.93c-2,0.27-3.26-0.37-4.05-1.85c-0.92-2.24,0.81-3.86,1.28-5.83
		c1.63-0.64,2.63-2.02,3.47-3.45c1.23-2.09,3-3.64,4.71-5.26c0.76-0.72,1.73-1.04,2.96-0.84c1.01,0.63,2.15,1.33,3.54,2.19
		c0.22,0.56,0.52,1.33,0.83,2.12c-0.25,0.48-0.4,0.99-0.73,1.36C179.91,242.38,177.49,246.32,172.92,249.63z"/>
	<path class="st2" d="M150.76,68.67c-0.36-1.21-0.7-2.32-0.99-3.28c0.16-1.02,0.83-1.18,1.49-1.24s1.34-0.01,1.68-0.01
		c0.63,0.3,0.97,0.39,1.22,0.59c2.1,1.69,3.93,3.61,5.51,5.83c1.84,2.6,3.91,5.03,5.94,7.5c0.87,1.06,1.57,2.16,1.75,3.53
		c-0.05,0.16-0.06,0.33-0.14,0.46c-0.48,0.73-1.18,1.17-1.72,1.41c-1.14,0.26-1.93,0.01-2.64-0.47c-1.24-0.85-2.45-1.75-3.84-2.75
		c-1.21-2.15-2.43-4.49-4.46-6.39C153.01,72.4,151.98,70.37,150.76,68.67z"/>
	<path class="st0" d="M243.94,59.05c-1.31-0.53-1.67-1.44-1.88-2.86c0.36-0.95,0.82-2.2,1.3-3.46c1.37-3.64,2.93-7.2,3.93-10.98
		c0.2-0.77,0.84-1.42,1.26-2.09c1.14-0.2,2.14-0.39,3.14-0.53c0.32-0.04,0.66,0.05,1.52,0.13c0.06,0.06,0.4,0.4,0.7,0.69
		c-0.28,1.46-0.64,2.6-0.69,3.74c-0.05,1.27-0.76,2.22-1.16,3.32c-0.63,1.74-1.23,3.5-1.7,5.29c-0.72,2.76-2.19,4.93-4.71,6.29
		C245.1,58.9,244.39,58.94,243.94,59.05z"/>
	<path class="st0" d="M176.11,56.84c-0.1-0.83-0.4-2.16-0.41-3.49c-0.02-1.81,0.78-3.22,2.66-3.91c0.41,0.26,0.95,0.44,1.21,0.81
		c0.77,1.1,1.53,2.22,2.1,3.42c1.29,2.72,2.44,5.51,3.69,8.26c0.48,1.07,1.06,2.09,1.68,3.28c-0.27,1.22-0.55,2.51-0.85,3.84
		c-0.64,0.38-1.2,0.71-1.84,1.09c-0.95-0.37-1.88-0.72-2.75-1.06c-0.34-0.5-0.72-0.87-0.88-1.33c-1-2.83-1.93-5.69-2.95-8.52
		C177.55,58.66,177.04,58.18,176.11,56.84z"/>
	<path class="st0" d="M251.76,254.69c0.49,0.06,0.98,0.13,1.63,0.21c0.81,0.95,1.68,1.97,2.48,2.91c0.43,1.94,0.82,3.74,1.26,5.76
		c0.85,1.15,1.97,2.45,1.48,4.34c-0.23,0.87,0.19,1.62,0.52,2.41c0.55,1.32,0.48,2.62-0.6,4.06c-1.16,0.75-2.77,1.17-4.29,1.78
		c-0.13,0.05-0.33-0.05-0.66-0.11c-1.51-2.58-1.97-5.58-2.34-8.55c-0.37-3.01-0.62-6.02-1.68-8.66
		C249.92,257.07,250.54,255.75,251.76,254.69z"/>
	<path class="st0" d="M309.93,235.15c0.07,0.73,0.12,1.39,0.19,2.16c-0.48,0.65-0.98,1.31-1.53,2.07c-0.83,0.11-1.64,0.22-2.35,0.32
		c-3.63-2.45-7.38-4.38-10.57-7.19c-0.85-0.75-2.11-1.01-3.15-1.55c-0.76-0.39-1.38-0.96-1.54-1.88c0.35-2.56,0.67-2.62,2.18-4.03
		c0.61-0.17,1.41-0.4,2.07-0.59c0.49,0.14,0.9,0.13,1.12,0.33c3.34,3.07,7.37,5.33,10.3,8.72
		C307.8,234.08,308.84,234.6,309.93,235.15z"/>
	<path class="st2" d="M286.7,254.48c0.26,0.95,0.63,2.24,1.05,3.74c-0.29,0.61-0.64,1.35-0.92,1.94c-1.59,1.1-3.08,0.54-4.44,0.35
		c-2.95-1.83-3.98-5.1-6.18-7.19c-0.57-1.57-1.09-2.99-1.67-4.57c0.44-0.96,0.92-2.02,1.27-2.79c1.16-1.01,2.13-0.79,3.33-0.34
		c0.99,0.84,2.14,1.81,2.82,2.39C283.72,250.41,285.11,252.31,286.7,254.48z"/>
	<path class="st2" d="M278.15,65.15c-0.8,0.26-1.28,0.41-1.89,0.61c-0.87-0.2-1.85-0.41-2.67-0.6c-1.1-0.67-1.39-1.62-1.6-2.61
		c0.47-1.67,1.19-3.22,2.52-4.31c0.9-0.73,0.95-1.74,1.2-2.27c1.97-2.57,3.72-4.83,5.63-7.32c0.37-0.15,0.98-0.39,1.42-0.56
		c1.39,0.46,2.31,1.12,2.85,2.38c0,0.25,0.11,0.63-0.02,0.9c-1.35,2.86-2.1,6.04-4.45,8.37C280.71,61.78,279.36,63.32,278.15,65.15z
		"/>
	<path class="st0" d="M203.73,252.05c0.78,0.73,1.11,1.66,1.21,2.72c-0.92,4.29-2.8,8.23-5,12c-0.92,1.57-2.27,2.9-3.47,4.3
		c-0.18,0.21-0.61,0.2-1.02,0.32c-1.84-0.97-2.3-2.68-2.35-4.7c0.28-1.08,0.49-2.24,0.89-3.34c0.39-1.07,0.57-2.3,1.71-2.95
		c1.32-2.72,2.65-5.43,4.05-8.3C201.81,251.38,201.81,251.38,203.73,252.05z"/>
	<path class="st2" d="M232.1,270.97c0.21,0.77,0.31,1.1,0.34,1.22c-0.67,2.6-1.29,5.02-2.03,7.9c-0.52,0.47-1.37,1.25-2.03,1.86
		c-1.31,0.21-1.85-0.4-2.42-1.39c-0.3-2.61-0.62-5.45,0.51-8.21c0.74-1.8-0.01-3.7,0.77-6.5c0.05-0.12,0.47-1.22,1-2.26
		c0.3-0.58,0.8-1.07,1.16-1.54c1.69-0.24,1.71-0.27,3.32,1.22C233.05,265.73,233.38,268.36,232.1,270.97z"/>
	<path class="st1" d="M290.31,130.69c-1.16,2.98-1.45,6.16-2.19,9.24c-0.11,0.45-0.33,0.88-0.48,1.27c-0.29,0.03-0.5,0.13-0.62,0.06
		c-0.58-0.33-1.13-0.71-1.68-1.07c-1.34,1.03-1.53,1.4-3.35,6.72c-1.24,1.33-2.62,2.81-3.98,4.27c-0.23,1.06-0.44,2.04-0.65,3.03
		c-1.41,1.91-2.91,3.75-4.18,5.73c-1.08,1.68-2.49,3.13-2.97,5.23c-0.28,1.24-1.36,2.3-1.97,3.26c-0.76,0.48-1.33,0.83-1.95,1.22
		c-1.58,3.85-4.32,7.17-5.26,11.25c-0.79,0.29-1.41,0.52-2.09,0.78c-0.93,0.94-1.57,2.13-2.04,3.39c-0.29,0.78-0.41,1.63-0.63,2.56
		c-0.87,1.28-1.85,2.65-2.73,4.07c-0.45,0.72-0.95,1.32-1.56,1.92c-1.58,1.54-2.81,3.35-3.09,5.69c-0.99,0.91-1.98,1.82-3.15,2.9
		c-0.36,0.87-0.8,1.95-1.23,2.99c-0.39,0.03-0.69,0.05-1,0.08c-0.92-1.72,0.37-3.26,0.39-4.88c0.03-1.92,0.99-3.55,1.25-5.4
		c0.23-1.63,1.16-3.15,1.56-4.17c0.54-4.26,1.01-7.94,1.48-11.64c0.68-1.53,1.37-3.07,2.09-4.66c-0.29-1.15-0.59-2.28-0.88-3.42
		c-0.03-1.13,0.97-1.73,1.45-2.9c0.17-2.42,0.36-5.1,0.55-7.72c0.47-0.78,0.91-1.5,1.51-2.51c0.14-2.24,0.3-4.76,0.48-7.7
		c1.62-2.02,0.55-4.9,1.16-7.71c0.84-0.85,1.79-1.81,2.76-2.79c2.36-0.44,4.56-1.18,6.74-2.15c3.84-1.71,7.63-3.66,11.86-4.35
		c0.33-0.05,0.69-0.11,0.97-0.27c3.87-2.23,8.33-2.7,12.45-4.18C289.92,129.31,290.22,129.94,290.31,130.69z"/>
	<path class="st1" d="M206.69,182.12c-0.67-0.51-1.2-0.91-1.87-1.42c0.22-0.57,0.45-1.16,0.81-2.1c-0.13-0.67-0.09-1.77-0.54-2.62
		c-2.07-3.92-2.87-8.31-4.68-12.32c-0.69-1.54-1.26-3.14-2.08-5.21c-0.07-0.63-0.2-1.8-0.34-3.15c-1.88-1.91-2.77-4.44-3.37-7.09
		c0.19-0.88,0.91-0.9,1.55-0.89c0.84,0,1.77,0.38,2.52,0.14c2.31-0.72,4.73-0.36,7.03-0.94c0.82-0.2,1.6-0.56,2.69-0.95
		c2.92,0,6.14,0,9.66,0c0.5,0.54,1.17,1.25,1.69,1.81c0.04,2.98,0.11,5.68,0.1,8.38c0,1.7,0,3.39,0.75,4.98
		c0.11,3.36,1.23,6.66,0.47,10.07c-0.11,0.48-0.15,1.06,0.01,1.51c0.88,2.42,0.24,5.07,1.28,7.49c0.38,0.88,0.29,2,0.29,3.01
		c0,3.55-0.24,7.12,0.91,10.58c0.15,0.47,0.07,1.01,0.1,1.52c0.2,3.01,0.06,6.02,0.9,9.01c0.49,1.74,0.23,3.71,0.28,5.57
		c0.07,2.53,0.05,5.02,0.78,7.54c0.6,2.06,0.4,4.34,0.05,6.55c-0.45,0-0.77,0-1.31,0c-1.47-2.11-3.08-4.21-4.05-6.81
		c-2.18-5.86-4.56-11.65-6.83-17.48c-0.79-2.04-1.43-4.15-2.22-6.19c-0.78-2.04-1.86-3.93-2.31-6.14
		C208.67,185.36,207.58,183.92,206.69,182.12z"/>
	<path class="st1" d="M159.08,149.57c1.97-0.01,4-0.11,6.02-0.01c3.05,0.15,6.09-0.07,9.13-0.19c0.67-0.03,1.39,0.03,2.01-0.19
		c3.46-1.2,7.03-0.66,10.56-0.77c0.49-0.02,0.99,0.19,1.39,0.27c0.85,0.59,1.18,1.37,1.13,2.24c-0.13,1.91,0.4,3.67,1.08,5.42
		c1.41,3.61,2.44,7.34,3.41,11.09c0.93,3.59,2.11,7.12,4,10.37c0.68,1.16,1.14,2.45,1.63,3.71c1.35,3.46,2.77,6.89,4.9,9.97
		c1.8,4.55,4.24,8.81,6.05,13.36c0.62,1.56,1.32,3.09,1.93,4.66c0.08,0.21-0.2,0.57-0.37,1.02c-1.75-1.65-3.75-2.94-4.76-5.22
		c-0.26-0.58-0.91-0.97-1.36-1.47c-0.91-1-1.98-1.9-2.69-3.03c-1.92-3.07-4.65-5.34-7.63-8.03c-0.37-0.62-0.98-1.63-1.69-2.8
		c-0.8-0.6-1.93-1.15-2.66-2.04c-2.03-2.5-4.8-4.22-6.88-6.66c-1.97-2.32-4.13-4.47-6.11-6.78c-2.07-2.42-4.26-4.75-6.06-7.41
		c-0.66-0.97-1.6-1.74-2.39-2.63c-0.78-0.87-1.75-1.61-2.04-2.85c-0.07-0.32-0.26-0.64-0.48-0.88c-2.13-2.39-4.23-4.82-6.46-7.12
		c-0.86-0.89-1.43-1.88-1.9-2.96C158.73,150.41,158.96,150.05,159.08,149.57z"/>
	<path class="st1" d="M224.94,161.07c-0.26-5.48,0.09-10.9-1.02-15.89c0.42-1.26,1.14-1.65,2.03-1.73c0.67-0.06,1.35-0.04,2.03-0.03
		c1.86,0.03,3.68,0.03,5.53-0.49c1.61-0.44,3.35-0.42,5.03-0.56c1.85-0.16,3.68-0.23,5.51-0.76c1.41-0.41,2.99-0.45,4.3,0.12
		c0.78,0.6,0.75,1.34,0.61,1.96c-0.51,2.3-1.28,4.55-1.62,6.87c-0.26,1.75-1.52,3.03-1.76,4.73c-0.23,1.68-0.55,3.34-1.58,4.4
		c0,2.39,0,4.41,0,6.69c-0.42,0.63-0.98,1.47-1.52,2.28c-0.33,3.22-1.22,6.29-2.36,9.27c-0.73,1.92-1.22,3.86-1.22,5.93
		c0,2.73-0.74,5.32-1.54,7.91c-1.04,3.38-2.12,6.76-2.46,10.31c-0.05,0.5-0.09,1.04-0.3,1.48c-1.13,2.34-1.39,4.85-1.55,7.39
		c-0.04,0.63-0.4,1.27-0.72,1.85c-0.13,0.24-0.54,0.32-0.85,0.48c-0.16-0.23-0.43-0.45-0.46-0.7c-0.46-3.17-0.18-6.42-1.13-9.55
		c-0.24-0.78-0.04-1.68-0.05-2.53c-0.03-2.7,0.16-5.38-0.81-8.03c-0.45-1.22-0.24-2.68-0.29-4.03c-0.07-2.02-0.05-4.02-0.78-6
		c-0.45-1.22-0.32-2.67-0.38-4.02c-0.07-1.69-0.07-3.36-0.62-5.01c-0.37-1.1-0.48-2.33-0.44-3.5
		C226.63,166.81,226.05,163.85,224.94,161.07z"/>
	<path class="st1" d="M238.53,103.49c0.29,0.15,0.72,0.23,0.85,0.47c0.49,0.88,1.07,1.77,1.29,2.73c0.65,2.81,1.62,5.43,3.15,7.91
		c1.13,1.84,1.73,4.01,2.68,5.97c0.66,1.36,1.51,2.62,2.46,4.25c0.14,1.28,0.1,3.01,0.54,4.6c0.44,1.59,1.2,3.1,1.35,4.81
		c-0.72,1.64-2.43,1.6-3.35,1.99c-4.47,0.2-8.51,0.44-12.54,0.54c-1.72,0.04-3.31,0.53-4.96,0.88c-2.24,0.47-4.06-0.43-4.97-2.5
		c-0.54-1.22-0.88-2.53-1.33-3.86c0.18-0.81,0.43-1.62,0.54-2.44c0.13-1,0.43-2.08,0.18-3c-1.1-3.98-0.56-8.05-0.86-12.59
		c-0.88-2.05-1.29-4.68-0.88-7.41c2.12-0.4,4.34-0.15,6.36-1.24c0.84-0.45,1.96-0.46,2.96-0.56
		C234.17,103.82,236.35,103.67,238.53,103.49z"/>
	<path class="st1" d="M216.24,107.84c0.16,0.82,0.56,1.68,0.44,2.46c-0.33,2.14,0.97,3.92,1.08,5.94c0.1,1.84-0.2,3.72,0.56,5.21
		c-0.07,1.12-0.66,1.88-0.3,2.93c0.42,0.49,0.96,1.11,1.6,1.86c-0.25,0.71-0.53,1.49-0.68,1.89c-0.16,3.75-0.3,7.12-0.46,10.49
		c-0.01,0.14-0.19,0.27-0.55,0.73c-1.69,0.84-4.13-0.39-5.88,1.04c-1.49-0.25-2.81-0.47-4.27-0.71c-1.17,0.51-2.4,1.05-3.65,1.6
		c-2.31,0.38-4.61,0.72-7.01,0.29c-1.29-0.23-2.67,0.1-4.06,0.17c-0.56-0.38-1.11-0.76-1.47-1.01c-0.7-1.17-0.63-2.15-0.18-3.11
		c0.51-1.07,1.08-2.1,1.56-3.02c0.41-1.59-0.2-3.23,0.87-4.55c0.97-4.28,2.67-8.32,3.98-12.49c0.15-0.48,0.37-0.98,0.34-1.46
		c-0.12-1.95,0.8-3.6,1.39-5.34c0.46,0.16,0.92,0.32,1.44,0.49c1.25-0.76,2.63-1.2,4.12-1.37c1.31-0.15,2.7-0.17,3.89-0.65
		C211.35,108.3,213.78,108.07,216.24,107.84z"/>
	<path class="st1" d="M284.86,123.87c-2.52,0.91-5.05,1.82-7.94,2.87c-0.48,0.37-1.28,0.98-2.21,1.69c-3.22-0.2-6.16,1.18-8.96,2.69
		c-1.52,0.82-3.09,1.24-4.61,1.63c-0.91,0.65-1.73,1.23-2.59,1.84c-0.48-0.04-0.97-0.08-1.3-0.11c-0.36-0.34-0.71-0.52-0.83-0.79
		c-0.27-0.62-0.51-1.27-0.61-1.93c-0.61-4.36-2.37-8.38-3.77-12.5c-0.05-0.16-0.06-0.33-0.1-0.5c-0.14-0.48-0.15-1.09-0.45-1.43
		c-2.53-2.83-2.72-6.89-5.26-9.9c-0.14-0.83-0.27-1.83-0.5-2.8c-0.19-0.81-0.5-1.59-0.76-2.39c2.57-0.8,5.36-0.59,7.85-1.73
		c1.33,0.05,2.66,0.1,3.99,0.15c1.06,0.99,2.03,1.9,3,2.8c0.79,0.27,1.58,0.54,2.33,0.8c0.89,1.14,1.71,2.2,2.53,3.26
		c0.7,0.46,1.44,0.86,2.08,1.39c3.09,2.59,6.03,5.36,9.53,7.43c2.22,2.26,5.16,3.77,6.48,6.22
		C283.74,123.2,284.3,123.54,284.86,123.87z"/>
	<path class="st1" d="M192.89,112.49c0.03,1,0.38,2.14,0.02,2.97c-0.7,1.62-0.72,3.29-0.94,5.18c-0.4,0.71-0.9,1.58-1.42,2.5
		c-0.68,4.09-1.34,8.25-3.27,12.05c-1.01,2-1.01,4.24-1.51,6.2c-0.4,0.35-0.65,0.57-0.94,0.82c-4.65,0.75-9.37,0.76-14.06,0.79
		c-1.3,0.53-2.54,1.05-3.86,1.59c-1.97-0.14-4.01,0.27-5.97-0.5c1.55-2.77,3.58-5.29,4.43-8.44c0.17-0.62,0.57-1.29,1.06-1.69
		c1.27-1.05,1.12-2.81,2.25-3.85c0.71-0.72,1.41-1.44,1.97-2c0.34-1.01,0.61-1.8,0.8-2.38c0.79-0.73,1.4-1.29,1.91-1.77
		c0.25-0.97,0.46-1.77,0.58-2.23c1.94-2.73,3.67-5.18,5.22-7.36c1.93-1.23,3.09,0.45,5,0.62c1.18-0.36,2.84-0.72,4.37-1.39
		C189.93,113,191.39,112.73,192.89,112.49z"/>
</g>
</svg>
