<?xml version="1.0" encoding="utf-8"?>
<!-- Generator: Adobe Illustrator 26.0.1, SVG Export Plug-In . SVG Version: 6.00 Build 0)  -->
<svg version="1.1" id="Layer_1" xmlns="http://www.w3.org/2000/svg" xmlns:xlink="http://www.w3.org/1999/xlink" x="0px" y="0px"
	 viewBox="0 0 458 320" style="enable-background:new 0 0 458 320;" xml:space="preserve">
<style type="text/css">
	.st0{fill:#FF5543;}
	.st1{fill:#6B59E9;}
	.st2{fill:#131112;}
</style>
<g>
	<path class="st0" d="M80.17,204.9c-1.09-1.9-0.98-4.14-1.72-6.16c-0.4-1.09-0.1-2.43-0.12-3.65c-0.04-2.75-0.07-5.51-0.12-8.26
		c-0.01-0.46-0.03-0.93-0.13-1.37c-1-4.07-0.91-8.18-0.52-12.3c0.09-0.93,0.1-1.81-0.05-2.72c-0.23-1.38-0.1-2.73,0.54-4.03
		c-1.36-2.69-1.8-5.52-1.46-8.48c1.08-2.07,0.46-4.57,1.68-6.61c0.01-1.56,1.28-2.81,1.05-4.43c0.45-0.78,0.9-1.56,1.4-2.42
		c0.69,0.04,1.27,0.08,2.27,0.14c1.47-0.48,3.35-1.09,5.08-1.66c0.92,0.33,1.62,0.59,2.44,0.88c3.84-2.56,8.32-2.58,12.91-2.8
		c1.7-0.69,3.51-1.57,5.55-1.24c1.25-0.76,2.43-1.48,3.77-2.29c0.15-0.22,0.39-0.6,0.68-0.95c0.88-1.06,1.72-2.16,2.67-3.16
		c3.17-3.33,5.65-7.19,8.44-10.82c1.96-2.54,3.71-5.24,5.47-7.92c0.83-1.26,1.47-2.65,2.5-4.54c0.95-0.9,2.51-2.06,3.51-3.88
		c0.79-1.43,2.19-2.53,3.61-3.47c0.88-0.58,1.78-1.15,2.62-1.7c1.15,0,2.21,0,3.28,0c1.06,2.26,1.24,4.68,1.12,7.11
		c-0.11,1.99,0,3.95,0.44,5.89c0.1,0.43,0.35,0.83,0.58,1.37c0.77,0.58,1.62,1.21,1.92,1.44c2.33,0.85,4.03,1.46,5.73,2.08
		c-0.04,0.59-0.08,1.18-0.12,1.8c0.79,0.65,1.49,1.23,2.18,1.8c2.35,0.16,4.65,0.57,6.89,0.39c2-0.16,3.98-0.14,5.95-0.09
		c3.05,0.07,6.1,0,9.14,0.49c0.99,0.16,2.1-0.5,3.12-0.4c2.17,0.21,4.26-0.15,6.34-0.56c0.79-0.16,1.51-0.2,2.24,0.07
		c1.57,0.58,2.99-0.1,4.3-0.54c2.49,0.72,2.77,0.77,4.15,0.44c0.73-0.17,1.44-0.43,1.73-0.52c2.02,0.07,3.33,1.19,4.92,1.03
		c0.13,0.74,0.27,1.49,0.4,2.24c-0.38,0.74-0.64,1.48-1.09,2.08c-0.54,0.72-1.24,1.33-1.87,1.98c-1.81,1.86-3.83,3.58-4.45,6.5
		c0.25,2.42,1.6,4.4,3.64,5.92c1.35,1.01,2.85,1.79,4.5,2.25c1.17,0.33,2.31,0.77,3.16,1.05c1.64,1.41,1.89,3.08,2.26,4.84
		c-0.36,0.72-0.77,1.54-1.01,2.01c-2.78,2.76-5.28,5.25-7.57,7.53c-0.51,1.46-0.91,2.61-1.27,3.64c0.85,2.88,2.5,5.03,4.88,6.62
		c0.89,0.59,1.73,1.27,2.66,1.79c1.22,0.68,2.34,1.46,3.26,2.52c0.51,0.58,1,1.17,0.85,2.22c-2.4,3.5-4.92,7.14-7.01,10.93
		c0,1.81,0,3.48,0,4.95c0.66,1.13,1.21,2.05,1.73,2.99c0.59,1.07,1.17,2.15,1.72,3.25c0.48,0.95,1.77,1.3,1.83,2.76
		c-0.6,1.84-1.26,3.87-1.9,5.81c-0.87,1.17-1.69,2.27-2.63,3.53c-0.65,0.34-1.5,0.71-2.28,1.18c-0.89,0.54-1.73,1.18-2.63,1.8
		c-0.57-0.21-1.11-0.53-1.68-0.61c-0.75-0.09-1.56-0.12-2.29,0.06c-1.33,0.34-2.54,0.7-4,0.29c-0.94-0.27-2.08,0.31-3.14,0.35
		c-2.91,0.11-5.82,0.16-8.73,0.19c-1.25,0.02-2.44,0.23-3.55,0.81c-0.68,0.35-1.37,0.67-1.99,0.98c-2.08,0.11-4.11-0.04-5.94,0.95
		c-3.8,0.53-7.33,2.1-11,2.82c-0.75,0.42-1.38,0.88-2.1,1.15c-2.29,0.85-4.6,1.62-7.08,2.48c-0.75-0.08-1.65-0.18-2.49-0.27
		c-0.97,0.18-1.92,0.22-2.76,0.54c-2.1,0.8-4.24,0.24-6.36,0.28c-1.18,0.02-2.37-0.48-3.55-0.79c-1.47-0.39-2.94-0.81-4.39-1.26
		c-0.27-0.08-0.47-0.37-0.7-0.56c-0.3-1.17-1-1.79-2.27-1.65c-0.29,0.03-0.6-0.03-0.89-0.05c-0.72,0.43-1.47,0.15-2.22,0.11
		c-0.88-0.05-1.76-0.01-2.5-0.01c-1.69-1.9-3.73-2.87-5.78-3.83c-1.1-0.51-2.16-1.09-3.25-1.62c-1.22-0.6-2.41-1.34-3.7-1.75
		c-2.29-0.73-4.64-1.25-6.92-1.85c-0.46,0.17-0.89,0.33-1.31,0.48c-0.56-0.5-1.1-0.99-1.7-1.53c-0.88,0-1.81,0.11-2.7-0.03
		c-1.04-0.16-2.04-0.53-3.09-0.81c-4.05-0.13-8.14,0.09-12.09-0.35C81.9,205.73,81.9,205.73,80.17,204.9z"/>
	<path class="st1" d="M292.12,94.71c1.64-1.37,3.01-3,4.45-4.86c1.02-0.21,2.2-0.46,3.36-0.7c1.7,0.22,3.37,0.44,4.95,0.65
		c1.88,0.98,3.42,2.18,4.72,3.75c1.37,1.64,2.88,3.17,4.32,4.73c0.18,0.61,0.36,1.2,0.6,2c0.5,0.51,1.1,1.21,1.8,1.79
		c1.66,1.37,3.18,2.85,4.42,4.63c0.6,0.87,1.47,1.55,2.18,2.34c0.61,0.68,1.17,1.41,1.9,2.3c1.66,1.19,3.53,2.51,5.27,3.76
		c1.95,0.8,3.76,1.64,5.63,2.28c1.73,0.59,3.53,0.97,5.29,1.49c1.91,0.55,4.01-0.25,5.84,0.87c3.31-0.82,6.69-0.14,10.03-0.45
		c3.05-0.28,6.1-0.31,9.18-0.11c1.61,0.11,3.4,0.35,5.01-0.82c1.99,0.5,4.08,1.07,6.19,0.12c0.27-0.12,0.59-0.18,0.89-0.19
		c2.44-0.01,4.88-0.01,7.65-0.01c0.29,0.25,0.74,0.65,1.01,0.88c0.48,4.7,0.33,8.98,0.2,13.26c-0.02,0.59-0.3,1.17-0.44,1.76
		s-0.42,1.2-0.38,1.78c0.2,2.8-1,5.4-1.11,8.16c-0.03,0.87-0.59,1.71-0.78,2.22c0,2.65,0.01,4.95-0.01,7.24
		c0,0.61,0.07,1.27-0.13,1.83c-1,2.84-0.57,5.78-0.71,8.67c-0.1,2.14-0.06,4.28-0.09,6.26c-0.49,0.44-0.8,0.72-1.1,0.99
		c0.33,0.31,0.65,0.61,1.1,1.03c-0.26,1.74-0.73,3.53-0.76,5.34c-0.03,1.72-1.37,3.13-0.91,5.15c0.37,0.36,0.9,0.87,1.44,1.4
		c0.78,2.1-0.37,4.21,0.01,6.36c-0.69,0.59-1.37,1.18-2,1.72c-1.04,1.42-1.11,3.29-2.57,4.5c-1.93,0.37-3.92-0.06-5.9,0.13
		c-0.87-0.32-1.72-0.63-2.61-0.96c-0.71,0.23-1.43,0.46-2.28,0.74c-0.78-0.17-1.67-0.36-2.53-0.54c-1.07,0.25-2.1,0.59-3.14,0.71
		c-1.06,0.12-2.14,0.03-2.68,0.03c-2.45,0.66-4.36,1.19-6.28,1.68c-1.91,0.48-3.83,0.91-5.96,1.41c-1.9,0.77-4.06,1.54-6.15,2.5
		c-2.78,1.28-5.6,2.44-8.41,3.63c-1.3,0.55-2.62,0.77-3.9,1.09c-1.26,0.61-2.15,1.89-3.74,1.71c-0.28-0.03-0.64,0.07-0.87,0.24
		c-1.91,1.34-4.11,1.95-6.3,2.64c-1.29,0.41-2.61,0.98-3.2,2.4c-1.83,0.16-3.52,0.52-4.85,1.57c-1.26,1-2.74,1.37-4.16,1.87
		c-1.85,0.66-3.8,1.08-5.74,1.46c-0.9,0.17-1.79,0.29-2.69,0.53c-1.91,0.51-3.75,1.41-5.8,1.21c-1.7,0.77-3.53,1-5.35,1.05
		c-1.39,0.03-2.71,0.11-4.07,0.52c-1,0.3-2.13,0.32-3.19,0.24c-2.74-0.19-5.53,0.2-8.22-0.68c-0.42-0.14-0.92-0.12-1.37-0.09
		c-2.8,0.21-5.46-0.7-8.16-1.16c-1.9-0.32-3.67-1.42-5.82-2.31c-0.69-0.09-1.75-0.22-2.97-0.38c-1.13-1.14-2.78-1.6-4.22-2.42
		c-3.18-1.81-6.26-3.81-9.3-5.85c-1-0.67-1.79-1.66-2.63-2.54c-0.62-0.65-1.18-1.37-1.78-2.07c-0.07-1.01-0.67-2.1,0.39-2.97
		c2.61,1.35,4.86,3.17,6.64,4.88c2.01,1.09,3.6,2.04,5.26,2.81c2.35,1.1,4.58,2.53,7.12,3.18c2.51,0.63,5.02,1.27,7.51,2
		c1.6,0.47,3.32,0.51,4.98,0.79c1.94,0.33,4-0.04,5.84,0.9c3.19,0.26,6.41-0.23,9.6,0.26c0.6,0.09,1.23,0.05,1.84,0
		s1.21-0.17,1.82-0.27c2.11-0.35,4.35-0.38,6.3-1.14c2.21-0.86,4.53-0.69,6.72-1.38c0.58-0.18,1.19-0.31,1.75-0.54
		c1.68-0.68,3.21-1.85,5.17-1.65c1.07-0.57,2.15-1.14,3.59-1.9c0.34-0.07,1.11-0.16,1.84-0.38c0.73-0.22,1.42-0.57,2.12-0.86
		c3.38-1.43,6.83-2.73,10.13-4.33c3.87-1.87,7.86-3.42,11.9-4.85c2.33-0.83,4.61-1.7,6.45-3.46c1.71-0.24,3.24-0.92,4.73-1.73
		c1.07-0.58,2.2-1.12,3.37-1.44c2.64-0.71,5.2-1.69,7.92-2.09c0.73-0.11,1.41-0.56,1.94-0.78c2.46-0.22,4.75-0.47,7.04-0.61
		c2.45-0.15,4.92-0.07,7.35-0.32c2.25-0.23,4.52,0.46,6.69-0.13c0.11-0.47,0.27-0.77,0.24-1.06c-0.05-0.44-0.22-0.87-0.31-1.19
		c-1.04-1.23-2.37-1.59-3.8-1.95c-1.91,0-3.94,0.23-5.9-0.05c-4.21-0.61-8.13,1.33-12.27,1.15c-0.14-0.01-0.3,0.09-0.42,0.17
		c-1.23,0.88-2.68,0.47-4.03,0.66c-0.78,0.46-1.56,0.93-2.28,1.36c-0.69-0.12-1.29-0.22-1.64-0.28c-0.95,0.33-1.71,0.49-2.37,0.85
		c-0.65,0.35-1.19,0.9-1.68,1.28c-3.15,0.64-5.86,2.05-8.58,3.43c-1.76,0.89-3.53,1.78-5.33,2.58c-0.83,0.37-1.75,0.49-2.63,0.76
		c-0.87,0.27-1.74,0.58-2.6,0.87c-1.91,0.64-3.4,2.05-5.2,2.85c-1.95,0.87-4.13,1.28-6,2.27c-2.58,1.37-5.36,2.18-8.06,3.21
		c-2.13,0.82-4.42,1.21-6.37,2.51c-0.37,0.24-0.84,0.33-1.27,0.47c-1.6,0.49-3.2,0.97-5.21,1.57c-0.16-0.01-0.77-0.04-1.55-0.08
		c-1.11,0.88-2.52,1.42-4.12,1.62c-3.92-1.12-7.81,0.52-11.88,0.42c-0.77-0.25-1.64-0.53-2.44-0.79c-0.81,0.21-1.54,0.4-1.8,0.46
		c-3-0.52-5.53-0.99-8.07-1.38c-2.57-0.39-5.05-1.32-7.14-1.12c-2.26-0.78-4-1.34-5.72-1.98c-0.7-0.26-1.35-0.68-2.03-1
		c-2.07-0.97-3.75-2.64-5.7-3.08c-1.68-1.42-3.08-2.6-4.6-3.88c-0.29-0.82-1.42-1.47-1.16-2.71c-0.01-0.92,0.09-1.86,0.74-2.53
		c1.01-1.04,1.22-2.33,1.56-3.64c0.34-1.28,1.46-2.24,1.65-3.66c0.14-1.02,0.65-1.99,0.82-3.01c0.15-0.87,0.19-1.82-0.77-2.39
		c-0.15-1.48-0.29-2.96-0.46-4.69c-1.04-1.66-2.22-3.56-3.39-5.46c-0.54-0.87-1.74-1.24-1.84-2.44c0.27-0.52,0.46-1.12,0.83-1.55
		c1.55-1.82,3.28-3.45,5.35-4.55c0.33-0.98,0.61-1.8,0.91-2.7c-0.61-0.62-1.13-1.14-1.65-1.67c0.06-1.34,0.11-2.69,0.18-4.03
		c0.06-1.24-0.24-2.38-0.87-3.44c-0.38-0.64-0.71-1.35-1.22-1.88c-1.02-1.08-2.15-2.05-3.35-3.18c-0.02-0.95-0.04-1.99-0.06-3.03
		c1.69-1.33,3.24-2.74,3.54-5.06c0.03-0.22,0.41-0.39,0.63-0.58c-0.15-1.04-0.58-2.01-0.53-3.12c0.06-1.51-0.13-3.04-0.19-4.23
		c-1.23-3.23-4.23-4.85-5.37-8.31c-0.24-1.15-0.66-2.79,0.2-4.41c1.89,0.3,3.04-1.25,4.4-1.82c1.49-0.33,2.86-0.52,4.16-0.94
		c1.31-0.43,2.58-0.84,3.99-0.87c1.36-0.03,2.71-0.32,4.07-0.5c1.5-0.19,3-0.38,4.33-0.55c1.78,0.42,3.4,0.8,4.39,1.03
		c2.24,1.01,3.9,1.75,5.23,2.35c1.42-0.21,2.46-0.37,3.51-0.5c1.06-0.13,2.13-0.15,3.17-0.34c2.39-0.44,4.74-1.15,7.14-1.41
		c2.57-0.27,5.18-0.14,7.77-0.19c0.24,1.51,0.56,2.98,1.06,4.44c0.48,1.41,0.16,3.01,0.98,4.44c0.43,0.75,0.37,1.8-0.52,2.84
		c-0.86,0.33-1.97,1.08-3.12,1.15c-2.31,0.14-4.44,1.16-6.76,1.2c-0.9,0.02-1.8,0.27-2.71,0.39c-3.04,0.4-6.05,0.83-9.1-0.09
		c-1.75-0.53-3.59-0.79-5.32-0.63c-1.02,0.48-1.63,1.09-1.59,2.16c1.21,1.29,1.21,1.29,5.58,2.71c0.97,0,2.36-0.07,3.73,0.02
		c1.36,0.09,2.71,0.36,4.06,0.55c2.81-0.99,5.81-0.27,8.66-0.94c0.96-0.45,1.94-0.9,2.88-1.33c1.12-0.07,2.18-0.2,3.25-0.2
		c1.2,0,2.01-1.42,3.3-0.92c1.13,1.69-0.35,2.92-0.61,4.17c0,2.47,0,4.76,0,6.88c-0.43,1.32-0.81,2.48-1.19,3.66
		c-1.25,1.5-2.51,3.03-3.6,4.34c-1.46,0.49-2.68,0.4-3.83,1.02c-1.18,0.63-2.61,0.81-3.94,1.14c-1.18,0.29-2.37,0.52-3.49,0.76
		c-0.96-0.27-1.84-0.51-2.62-0.74c-1.01,0.28-1.89,0.52-2.45,0.68c-3.21-0.37-6.07-0.05-8.7,0.2c-0.9,0.59-1.4,1.13-1.28,2.16
		c0.32,0.36,0.72,0.81,1.12,1.26c1.53,0.36,3.02,0.71,4.17,0.98c2.17-0.08,3.99-0.15,5.99-0.23c0.37-0.19,0.91-0.47,1.74-0.9
		c2.16,0.79,4.59,0.49,7.03,0.13c3.07-1.42,6.4-1.93,9.54-2.95c1.3,1.16,2,2.55,2.5,3.97c0.5,1.42,0.89,2.93,1.02,4.42
		c0.17,1.97,0.04,3.98,0.04,5.94c-0.81,1.2-1.57,2.34-2.39,3.55c-0.96,0.62-1.99,1.29-3.04,1.97c-1.04,0.13-2.11,0.26-3,0.37
		c-1.55,0.72-2.93,1.37-4.27,2c-2.2-0.54-4.28-0.75-6.41,0.06c-0.96,0.37-2.11,0.35-3.17,0.33c-3.21-0.06-6.41-0.22-9.62-0.33
		c-0.6-0.02-1.2,0.03-1.85,0.05c-0.4,0.5-0.75,0.94-1.07,1.34c0.72,1.3,1.75,1.92,3.33,2.56c2.62-0.28,5.61,0.73,8.68,0.16
		c0.72-0.13,1.51,0.11,2.27,0.17c0.6,0.05,1.25,0.25,1.78,0.08c1.21-0.37,2.43-0.33,3.65-0.32c2.17,0.02,4.27-0.31,6.3-1.08
		c0.71-0.27,1.47-0.71,2.18-0.67c1.95,0.12,3.55-0.79,5.26-1.51c0.41,0.22,0.79,0.43,1.21,0.66c0.43,1.88-0.1,3.72,0.14,5.11
		c-0.5,2.36-0.92,4.29-1.33,6.21c-2.27,3.38-3.22,4.45-6.26,7.28c-0.89,0.83-1.69,1.77-2.59,2.72c-0.9,0.42-1.87,0.87-2.46,1.15
		c-3.89,0.53-7.4,0.87-10.84,1.52c-2.16,0.41-4.22,0.59-6.13-0.18c-1.13,0.46-1.63,1.23-1.78,2.17c-0.09,0.56,0.13,1.17,0.22,1.81
		c1.31,0.61,2.14,1.9,3.83,1.82c1.01-0.43,2.14-0.92,2.79-1.2c3.38-0.41,6.27-0.75,9.15-1.12c0.3-0.04,0.58-0.19,0.87-0.29
		c2.87-1.05,5.85-1.73,8.82-2.43c3.37-0.79,6.17-2.65,8.84-4.72c0.58-0.45,1-1.15,1.42-1.78c0.93-1.41,1.75-2.89,2.72-4.26
		c0.98-1.37,1.32-3.07,2.49-4.36c0.58-0.64,0.78-1.65,1.09-2.51c0.36-1.01,0.59-2.06,1.01-3.05c0.83-1.96,1.49-4.07,2.69-5.78
		c2.18-3.12,4.5-6.17,7.54-8.57c2.05-1.62,4.05-3.26,6.45-4.34c1.67-0.76,3.29-1.65,4.94-2.45c1.52-0.73,3.07-1.32,4.77-1.62
		c2.26-0.39,4.46-1.09,6.69-1.64c1.63-0.4,3.26-0.79,5.3-1.28c0.51-0.59,2-0.59,2.56-2.07c-0.19-0.9-0.4-1.93-0.61-2.97
		c-0.71-0.46-1.34-0.86-1.99-1.28c-0.92,0.45-1.73,0.84-2.44,1.18c-2.15,0.36-3.85-1.35-5.93-0.96c-0.39,0.07-0.85-0.3-1.29-0.42
		c-1.03-0.28-2.06-0.53-3.09-0.8c-1.83-0.47-3.44-1.5-4.74-2.72c-1.99-1.87-4.35-3.39-5.9-5.73c-2.62-3.97-4.45-8.38-6.99-12.4
		c-0.32-0.5-0.43-1.14-0.64-1.71c-0.52-1.44-1.05-2.87-1.54-4.32c-0.49-1.44-0.75-2.99-1.43-4.33c-0.81-1.6-0.33-3.34-0.84-4.95
		c-0.99-1.39-2-2.71-3.75-3.16c-0.86,0.22-1.31,0.86-1.37,1.64c-0.06,0.9-0.1,1.9,0.24,2.69c0.51,1.19,0.43,2.39,0.59,3.59
		c0.16,1.2,0.8,2.36,0.8,3.54c0.01,2.03,0.51,3.9,0.99,5.84c0.84,3.4,1.21,6.9,2.63,10.16c0.29,0.66,0.16,1.5,0.23,2.36
		c-0.55,0.52-1.09,1.04-1.61,1.53c-0.72,0-1.36,0.12-1.94-0.02c-1.33-0.32-2.64-0.76-3.64-1.06c-2.08-1.55-2.38-3.9-3.91-5.35
		c-0.11-1.48-0.2-2.85-0.29-4.02c-0.81-1.88-1.53-3.57-2.09-4.89c-0.88-1.15-1.53-2-2.17-2.84c-0.09-1.13,0.03-2.26-0.3-3.25
		c-0.94-2.83-0.68-5.75-0.9-8.64c-0.12-1.51,0.09-3.06-0.57-4.53c-0.24-0.53-0.13-1.2-0.18-1.81
		C291.02,99.78,291.56,97.24,292.12,94.71z"/>
	<path class="st2" d="M292.12,94.71c-0.56,2.54-1.1,5.08-0.88,7.71c0.05,0.61-0.05,1.29,0.18,1.81c0.66,1.47,0.46,3.02,0.57,4.53
		c0.22,2.89-0.03,5.81,0.9,8.64c0.33,0.99,0.21,2.12,0.3,3.25c0.64,0.84,1.29,1.69,2.17,2.84c0.57,1.32,1.29,3.01,2.09,4.89
		c0.08,1.17,0.18,2.54,0.29,4.02c1.53,1.45,1.83,3.8,3.91,5.35c1,0.3,2.3,0.74,3.64,1.06c0.58,0.14,1.22,0.02,1.94,0.02
		c0.52-0.49,1.06-1.01,1.61-1.53c-0.07-0.86,0.06-1.7-0.23-2.36c-1.42-3.26-1.79-6.76-2.63-10.16c-0.48-1.93-0.98-3.81-0.99-5.84
		c-0.01-1.18-0.64-2.34-0.8-3.54c-0.16-1.2-0.08-2.4-0.59-3.59c-0.34-0.79-0.3-1.8-0.24-2.69c0.05-0.77,0.51-1.42,1.37-1.64
		c1.75,0.45,2.76,1.77,3.75,3.16c0.51,1.61,0.03,3.35,0.84,4.95c0.68,1.34,0.94,2.89,1.43,4.33c0.49,1.45,1.02,2.88,1.54,4.32
		c0.21,0.57,0.32,1.21,0.64,1.71c2.54,4.02,4.37,8.43,6.99,12.4c1.54,2.34,3.9,3.86,5.9,5.73c1.3,1.22,2.9,2.26,4.74,2.72
		c1.03,0.26,2.07,0.52,3.09,0.8c0.44,0.12,0.9,0.5,1.29,0.42c2.07-0.39,3.77,1.32,5.93,0.96c0.71-0.35,1.52-0.73,2.44-1.18
		c0.65,0.42,1.28,0.83,1.99,1.28c0.21,1.04,0.42,2.06,0.61,2.97c-0.55,1.48-2.04,1.48-2.56,2.07c-2.04,0.49-3.67,0.88-5.3,1.28
		c-2.23,0.55-4.43,1.25-6.69,1.64c-1.7,0.29-3.25,0.88-4.77,1.62c-1.66,0.8-3.27,1.69-4.94,2.45c-2.4,1.09-4.4,2.73-6.45,4.34
		c-3.05,2.41-5.36,5.46-7.54,8.57c-1.2,1.72-1.86,3.82-2.69,5.78c-0.42,0.98-0.64,2.04-1.01,3.05c-0.31,0.86-0.51,1.87-1.09,2.51
		c-1.17,1.29-1.52,2.98-2.49,4.36c-0.98,1.37-1.8,2.85-2.72,4.26c-0.42,0.63-0.84,1.33-1.42,1.78c-2.67,2.07-5.47,3.92-8.84,4.72
		c-2.97,0.7-5.95,1.38-8.82,2.43c-0.29,0.11-0.57,0.26-0.87,0.29c-2.88,0.36-5.76,0.71-9.15,1.12c-0.66,0.28-1.78,0.76-2.79,1.2
		c-1.69,0.07-2.52-1.21-3.83-1.82c-0.09-0.64-0.31-1.25-0.22-1.81c0.14-0.94,0.65-1.71,1.78-2.17c1.91,0.77,3.97,0.59,6.13,0.18
		c3.45-0.66,6.96-1,10.84-1.52c0.59-0.28,1.56-0.73,2.46-1.15c0.9-0.95,1.7-1.89,2.59-2.72c3.04-2.83,3.99-3.9,6.26-7.28
		c0.41-1.92,0.83-3.86,1.33-6.21c-0.24-1.39,0.29-3.23-0.14-5.11c-0.42-0.23-0.8-0.43-1.21-0.66c-1.7,0.72-3.31,1.63-5.26,1.51
		c-0.71-0.04-1.46,0.39-2.18,0.67c-2.03,0.77-4.13,1.1-6.3,1.08c-1.22-0.01-2.44-0.05-3.65,0.32c-0.54,0.16-1.18-0.04-1.78-0.08
		c-0.76-0.06-1.55-0.3-2.27-0.17c-3.07,0.57-6.06-0.44-8.68-0.16c-1.58-0.65-2.61-1.27-3.33-2.56c0.32-0.4,0.67-0.84,1.07-1.34
		c0.65-0.02,1.25-0.07,1.85-0.05c3.21,0.11,6.41,0.26,9.62,0.33c1.06,0.02,2.21,0.04,3.17-0.33c2.13-0.81,4.21-0.6,6.41-0.06
		c1.34-0.63,2.72-1.27,4.27-2c0.89-0.11,1.95-0.24,3-0.37c1.05-0.68,2.08-1.35,3.04-1.97c0.81-1.21,1.58-2.35,2.39-3.55
		c0-1.96,0.13-3.96-0.04-5.94c-0.13-1.5-0.51-3-1.02-4.42c-0.51-1.43-1.2-2.81-2.5-3.97c-3.14,1.01-6.47,1.53-9.54,2.95
		c-2.43,0.36-4.87,0.66-7.03-0.13c-0.83,0.43-1.37,0.71-1.74,0.9c-2,0.08-3.83,0.14-5.99,0.23c-1.15-0.27-2.64-0.62-4.17-0.98
		c-0.4-0.45-0.8-0.9-1.12-1.26c-0.13-1.03,0.37-1.57,1.28-2.16c2.63-0.25,5.49-0.57,8.7-0.2c0.57-0.16,1.45-0.4,2.45-0.68
		c0.79,0.22,1.67,0.47,2.62,0.74c1.12-0.24,2.31-0.47,3.49-0.76c1.33-0.33,2.76-0.51,3.94-1.14c1.15-0.61,2.38-0.53,3.83-1.02
		c1.09-1.31,2.35-2.83,3.6-4.34c0.39-1.18,0.76-2.34,1.19-3.66c0-2.12,0-4.41,0-6.88c0.25-1.25,1.73-2.48,0.61-4.17
		c-1.29-0.51-2.1,0.92-3.3,0.92c-1.07,0-2.14,0.12-3.25,0.2c-0.95,0.44-1.92,0.89-2.88,1.33c-2.85,0.67-5.85-0.04-8.66,0.94
		c-1.35-0.19-2.7-0.45-4.06-0.55c-1.37-0.09-2.76-0.02-3.73-0.02c-4.37-1.42-4.37-1.42-5.58-2.71c-0.04-1.07,0.57-1.68,1.59-2.16
		c1.74-0.17,3.57,0.1,5.32,0.63c3.05,0.91,6.07,0.49,9.1,0.09c0.9-0.12,1.8-0.37,2.71-0.39c2.32-0.04,4.44-1.05,6.76-1.2
		c1.15-0.07,2.26-0.81,3.12-1.15c0.89-1.05,0.95-2.1,0.52-2.84c-0.82-1.43-0.5-3.03-0.98-4.44c-0.5-1.46-0.82-2.93-1.06-4.44
		c0.05-1.37,0.14-2.75,0.12-4.12c-0.01-0.39-0.35-0.77-0.52-1.12c-2.23,0.03-2.23,0.05-3.52,0.95c-0.37,0.26-0.76,0.51-1.07,0.72
		c-1.28,0.28-2.48,0.54-4.07,0.89c-1.34-1.08-3.24-0.55-5.04-0.8c-1.8-0.25-3.47-1.03-5.36-1.05c-1.96-0.02-3.92-0.47-5.89-0.71
		c-1.81-0.22-3.63-0.41-5.7-0.64c-2.14,0.78-4.54-0.03-7.05-0.16c-1.38,1.06-3.18,0.6-4.87,1.01c-2.04,1.26-4.12,2.54-6.11,3.77
		c-0.54,0.72-0.99,1.35-1.47,1.94c-0.56,0.69-1.16,1.35-1.6,1.86c0,0.57,0,0.87,0,1.18c-0.86,1.62-0.44,3.27-0.2,4.41
		c1.14,3.47,4.14,5.08,5.37,8.31c0.06,1.19,0.26,2.72,0.19,4.23c-0.05,1.11,0.38,2.08,0.53,3.12c-0.18-0.18-0.37-0.37-0.63-0.64
		c-1.68,1.32-3.07,2.9-4.34,4.29c-0.22,1.06-0.2,1.77,0.81,1.98c0.02,1.04,0.04,2.08,0.06,3.03c1.2,1.12,2.33,2.1,3.35,3.18
		c0.51,0.53,0.83,1.24,1.22,1.88c0.63,1.06,0.93,2.2,0.87,3.44c-0.06,1.34-0.12,2.69-0.18,4.03c-0.39,0.22-0.97,0.35-1.13,0.68
		c-0.7,1.44-1.99,2.24-3.2,3.12c-0.72,0.52-1.51,0.97-2.2,1.41c-0.49,1.07-0.92,2.02-1.42,3.1c0.35,0.61,0.71,1.25,1.03,1.81
		c0.6,0.14,1.04,0.25,1.47,0.36c0.1,1.2,1.3,1.57,1.84,2.44c1.18,1.9,2.36,3.79,3.39,5.46c0.17,1.73,0.31,3.21,0.46,4.69
		c-0.99,1.12-1.69,2.45-2.67,3.6c-1.45,1.7-2.56,3.68-3.66,5.3c-0.37,2.32-0.2,4.22,1.05,5.94c0.41,0.13,0.85,0.26,1.28,0.4
		c-0.26,1.24,0.87,1.89,1.16,2.71c1.52,1.28,2.92,2.46,4.6,3.88c1.95,0.44,3.63,2.11,5.7,3.08c0.68,0.32,1.33,0.74,2.03,1
		c1.72,0.64,3.46,1.2,5.72,1.98c2.09-0.2,4.58,0.73,7.14,1.12c2.54,0.39,5.07,0.87,8.07,1.38c0.26-0.07,0.99-0.26,1.8-0.46
		c0.8,0.26,1.67,0.54,2.44,0.79c4.06,0.1,7.95-1.54,11.88-0.42c1.6-0.2,3.01-0.74,4.12-1.62c0.78,0.04,1.39,0.07,1.55,0.08
		c2.01-0.6,3.61-1.08,5.21-1.57c0.43-0.13,0.91-0.22,1.27-0.47c1.95-1.3,4.24-1.7,6.37-2.51c2.7-1.03,5.47-1.84,8.06-3.21
		c1.87-1,4.05-1.4,6-2.27c1.8-0.8,3.29-2.21,5.2-2.85c0.87-0.29,1.73-0.6,2.6-0.87s1.8-0.4,2.63-0.76c1.8-0.8,3.57-1.69,5.33-2.58
		c2.72-1.38,5.43-2.79,8.58-3.43c0.49-0.38,1.03-0.93,1.68-1.28c0.66-0.36,1.42-0.52,2.37-0.85c0.35,0.06,0.95,0.16,1.64,0.28
		c0.72-0.43,1.5-0.89,2.28-1.36c1.36-0.19,2.8,0.22,4.03-0.66c0.12-0.09,0.28-0.18,0.42-0.17c4.14,0.18,8.06-1.76,12.27-1.15
		c1.95,0.28,3.98,0.05,5.9,0.05c1.43,0.37,2.76,0.73,3.8,1.95c0.09,0.32,0.26,0.75,0.31,1.19c0.03,0.28-0.13,0.59-0.24,1.06
		c-2.17,0.59-4.45-0.1-6.69,0.13c-2.44,0.25-4.9,0.17-7.35,0.32c-2.29,0.14-4.58,0.39-7.04,0.61c-0.53,0.22-1.21,0.67-1.94,0.78
		c-2.72,0.4-5.29,1.38-7.92,2.09c-1.17,0.31-2.3,0.86-3.37,1.44c-1.49,0.81-3.02,1.49-4.73,1.73c-1.84,1.76-4.12,2.64-6.45,3.46
		c-4.04,1.43-8.03,2.98-11.9,4.85c-3.3,1.6-6.75,2.9-10.13,4.33c-0.7,0.3-1.39,0.64-2.12,0.86c-0.73,0.22-1.5,0.31-1.84,0.38
		c-1.44,0.76-2.52,1.33-3.59,1.9c-1.96-0.2-3.49,0.97-5.17,1.65c-0.56,0.23-1.17,0.36-1.75,0.54c-2.18,0.69-4.51,0.52-6.72,1.38
		c-1.95,0.76-4.19,0.79-6.3,1.14c-0.6,0.1-1.21,0.22-1.82,0.27c-0.61,0.05-1.24,0.09-1.84,0c-3.19-0.49-6.4,0-9.6-0.26
		c-1.85-0.95-3.9-0.57-5.84-0.9c-1.66-0.28-3.38-0.32-4.98-0.79c-2.49-0.73-5-1.37-7.51-2c-2.54-0.64-4.76-2.08-7.12-3.18
		c-1.66-0.78-3.24-1.73-5.26-2.81c-1.78-1.71-4.04-3.53-6.64-4.88c-0.09-0.45-0.09-0.95-0.3-1.33c-0.43-0.8-0.98-1.53-1.63-2.53
		c-0.38-1.82-0.81-3.91-1.19-5.75c0.36-1.88,0.67-3.51,1.01-5.28c1.6-2.41,3.9-4.46,5.6-7.1c-1.42-4.29-4.91-6.95-7.67-10.26
		c-0.21-0.96-0.44-2-0.65-2.98c0.27-2.43,1.98-4.13,2.89-6.23c0.62-0.42,1.41-0.73,1.82-1.31c0.54-0.75,1.06-1.45,1.85-1.93
		c0.64-0.39,1.38-0.71,1.59-1.84c-0.56-0.97-1.07-2.29-1.96-3.26c-1.69-1.84-2.66-4.05-3.79-6.4c-0.15-0.88-0.34-1.93-0.52-2.99
		c0.2-1.2,0.41-2.39,0.6-3.55c0.67-0.91,1.27-1.8,1.95-2.62c0.38-0.46,0.9-0.81,1.35-1.21c0-0.47,0-0.92,0-1.37
		c0.42-1.02,0.53-2.05,0.15-2.97c-1.82-2.56-3.56-5.01-5.3-7.46c-0.05-1.38-0.01-2.77-0.18-4.14c-0.26-2.08,0.19-3.96,1.28-5.8
		c1.76-1.99,3.57-4.05,5.39-6.1c1.91-0.11,3.15-1.73,4.96-2.14c1.63-0.37,3.19-1.07,4.87-1.66c3.42-0.07,6.94-0.14,11.09-0.22
		c0.71,0.19,2.04,0.53,3.27,0.86c0.56-0.08,1.01-0.15,1.53-0.23c0.64,0.29,1.33,0.59,2.11,0.94c1.28,0,2.72-0.29,3.98,0.06
		c2.37,0.66,4.98-0.25,7.14,1.45c0.93-0.46,1.74-0.86,2.92-1.44c1.54-0.28,3.49-0.59,5.42-1c0.73-0.15,1.4-0.54,2.21-0.86
		c0.13-1.57-0.03-3.18,0.47-4.56c0.51-1.4,0.2-2.71,0.32-4.05c0.09-0.91,0.22-1.84,0.53-2.69c0.32-0.87,0.55-1.73,0.66-2.66
		c0.26-2.15,0.8-4.18,2.19-5.97c0.53-0.67,0.59-1.7,0.95-2.81c0.37-0.38,0.81-1.14,1.45-1.43c2.21-0.99,4.28-2.37,6.79-2.6
		c2.47,0.77,4.25,3,6.96,3.34c0.58,0.71,1.16,1.41,1.78,2.17c2.75,1.05,4.9,2.98,6.93,5.1c1.15,1.21,2.44,2.28,4.26,3.95
		c2.15,2.92,4.79,6.49,7.23,9.8c1.25,0.69,2.18,1.2,3.18,1.75c0.63,1.17,1.27,2.36,1.96,3.65c1.14,0.06,2.2,0.14,3.25,0.18
		c1.22,0.05,2.52-0.18,3.65,0.15c1.43,0.42,2.7-0.32,4.06-0.16c1.21,0.15,2.45,0.22,3.67,0.18c2.75-0.09,5.48-0.24,8.25,0.07
		c1.46,0.16,3-0.42,4.66-0.69c0.95,0.63,1.96,1.29,2.96,1.95c0.91,0.04,1.23-0.81,2.05-1.35c1.59-0.37,3.44-0.18,5.26-0.17
		c2.61,0.02,5.21,0.01,7.83-0.75c0.98,0.25,2,0.61,3.04,0.76c0.9,0.13,1.84,0.01,2.76,0.02c1.2,0.02,1.2,0.03,3.11,1.01
		c0.09,0.48,0.2,1.06,0.32,1.68c-0.51,0.62-0.99,1.2-1.41,1.72c-0.58,0.12-1.04,0.34-1.47,0.3c-1.67-0.16-3.38-0.24-5-0.64
		c-1.84-0.46-3.6-0.5-5.44-0.08c-0.71,0.16-1.5-0.05-2.51-0.11c-0.62,0.18-1.49,0.43-2.4,0.69c-0.57-0.22-1.14-0.43-1.7-0.65
		c-1.03,0.18-2.07,0.53-3.1,0.5c-0.87-0.03-1.72-0.51-2.66-0.81c-2.39,0.88-5.02,0.8-7.58,0.86c-5.19,0.13-10.4-0.02-15.59,0.06
		c-2.49,0.04-4.9-0.13-7.12-1.28c-3.8-3.13-7.78-6.05-9.87-10.45c-2.15-2.26-4.14-4.37-6.16-6.46c-1.28-1.32-2.58-2.62-3.91-3.9
		c-1.21-1.16-2.44-2.25-3.96-3.09c-1.58-0.88-2.88-2.25-4.48-3.55c-1.42-0.32-3.05-0.7-4.37-1c-1.31,0.19-2.06,0.73-2.57,1.52
		c-0.74,1.16-1.47,2.31-2.48,3.13c-0.53,2.46-1.04,4.84-1.6,7.45C291.82,93.85,291.97,94.28,292.12,94.71z"/>
	<path class="st2" d="M155.31,118.97c-1.7-0.62-3.41-1.24-5.73-2.08c-0.31-0.23-1.15-0.86-1.92-1.44c-0.23-0.54-0.48-0.94-0.58-1.37
		c-0.44-1.94-0.54-3.89-0.44-5.89c0.13-2.43-0.06-4.85-1.12-7.11c-0.46-2.32-2.16-4.02-2.91-5.82c-1.76-1.48-3.28-2.75-4.95-4.15
		c-0.43-0.05-1.03-0.11-1.75-0.19c-3.61,2.29-6.1,5.85-9.16,8.43c-0.62,1.15-1.13,2.08-1.67,3.09c-0.67,0.27-1.37,0.56-2.17,0.88
		c-1.45,3.61-3.92,6.79-5.26,10.55c-1.35,1.14-1.74,2.84-2.56,4.3c-2.78,4.94-8.65,11.13-15.14,12.56
		c-0.87,0.19-1.71,0.64-2.51,1.08c-1.89,1.05-3.87,1.84-5.96,2.36c-0.59,0.15-1.2,0.26-1.75,0.51c-1.68,0.77-3.41,1.25-5.21,1.68
		c-1.8,0.43-3.58,0.79-5.4,0.95c-2.28,0.2-4.55,0.38-6.83,0.5c-0.4,0.02-0.82-0.31-1.16-0.45c-0.49-1.05-0.34-1.87,0.78-2.7
		c0.78-0.08,1.84-0.19,3-0.31c1.16-0.51,2.42-1.07,3.9-1.72c3.84,0.14,7.61-0.97,11.4-2.32c3.62-1.29,6.97-3.17,10.61-4.38
		c1.13-0.37,2.17-1.14,3.12-1.9c1.32-1.04,2.51-2.24,3.75-3.37c0.56-0.51,1.19-0.97,1.63-1.56c0.34-0.47,0.37-1.16,0.67-1.67
		c0.71-1.18,1.7-2.23,2.2-3.48c0.56-1.43,1.85-2.38,2.17-4c0.26-1.29,1.13-2.46,1.74-3.67c0.34-0.68,0.65-1.39,1.1-1.99
		c1.65-2.19,3.38-4.32,5.01-6.52c0.65-0.87,1.88-0.93,2.38-2.08c0.41-0.95,1.2-1.77,1.93-2.55c0.71-0.76,1.59-1.35,2.32-2.09
		c0.75-0.75,1.41-1.59,2.18-2.48c1.54-0.69,3.19-1.42,4.84-2.16c1.17,0.35,2.33,0.7,3.54,1.06c3.16,1.87,5.67,4.54,8.21,7.14
		c0.04,0.69,0.07,1.29,0.1,1.89c1.7,2.42,2.92,4.99,2.61,8.06c-0.16,1.57,0.19,3.05,0.74,4.5c0.38,1,0.76,2,1.26,3.3
		c0.59,0.47,1.41,1.14,2.1,1.69c1.41,0.23,2.62,0.45,3.83,0.62c1.96,0.28,3.92-0.16,5.88,0.06c1.99,0.22,3.96,0.2,5.92-0.37
		c0.72-0.21,1.51-0.24,2.28-0.28c1.68-0.1,3.37-0.23,5.05-0.19c1.51,0.03,3.01,0.28,4.48,0.43c0.44-0.24,0.85-0.46,1.55-0.83
		c0.91,0,2.13,0.05,3.33-0.01c1.05-0.06,2.1-0.24,3.39-0.4c0.97,0.18,2.17,0.5,3.38,0.6c3.23,0.27,6.29,1.17,9.36,2.12
		c1.93,0.6,3.41,1.98,5.28,2.66c0.66,0.24,1.13,1.01,1.65,1.51c0.54,1.66,1.05,3.26,1.57,4.86c-0.93,1.88-1.85,3.77-2.65,5.4
		c-1.65,1.72-3.12,3.22-4.53,4.77c-0.27,0.3-0.32,0.81-0.48,1.25c1.22,2.13,2.91,3.43,5.4,3.52c0.22,0.18,0.42,0.48,0.66,0.53
		c2.19,0.45,4.01,1.65,5.89,2.75c0.05,0.46-0.01,0.96,0.16,1.37c1.08,2.53,1.05,5.05,0.12,7.62c-0.26,0.71-0.38,1.48-0.61,2.42
		c-1.45,1.36-3.03,2.81-4.57,4.3c-1.32,1.28-2.64,2.58-2.99,4.58c0.17,0.55,0.34,1.13,0.56,1.85c1.48,0.95,2.98,2.02,4.57,2.92
		c1.62,0.91,3,2.12,4.37,3.33c1.17,1.03,2.01,2.32,1.94,4.08c-0.14,0.36-0.32,0.78-0.48,1.2c-1.23,3.16-2.6,6.19-5.35,8.42
		c-1.05,0.85-1.78,2.1-2.13,3.35c-0.19,1.41,0.21,2.52,0.88,3.61c0.56,0.9,0.86,1.99,1.51,2.8c0.75,0.94,1.76,1.68,2.69,2.54
		c0.39,1.26,0.79,2.56,1.14,3.71c-1.21,4.32-3.37,8.01-5.13,11.84c-0.99,0.48-1.96,0.9-2.89,1.41c-0.94,0.52-1.83,1.12-2.61,1.61
		c-9.84,1.79-9.61,1.13-14.53,1.09c-2.68,1.24-5.78,0.82-8.55,0.9c-1.29,0.38-2.32,0.68-3.34,0.98c-2.05,0.6-4.22,0.75-6.22,1.4
		c-3.81,1.23-7.68,2.01-11.48,2.38c-3.45,2.25-7.86,3.98-11.14,4.29c-1.83,0.17-3.67,0.25-5.51,0.25c-1.99,0-3.98-0.14-5.97-0.22
		c-1.68-1.04-3.6-0.49-5.39-0.81c-0.15-0.03-0.31-0.05-0.44-0.11c-2.27-0.98-4.71-1.27-7.09-1.78c-0.59-0.13-1.2-0.3-1.71-0.61
		c-3.53-2.13-7.6-3.19-10.96-5.66c-0.48-0.36-1.09-0.66-1.68-0.73c-1.74-0.22-3.04-1.63-4.67-1.83c-1.94-0.24-3.27-1.65-5.11-2.07
		c-1.34,0.03-2.73,0.04-3.87-0.91c-0.73,0.26-1.44,0.52-2,0.72c-0.9-0.34-1.61-0.61-1.77-0.67c-4.24-0.09-7.92-0.16-11.59-0.24
		l0.07,0.03c-0.2-0.63-0.58-0.73-1.11-0.37c-1.61-0.18-3.1-0.92-4.83-0.72c-0.95,0.11-1.99-0.51-2.96-0.79
		c-0.5-0.86-0.94-1.63-1.32-2.29c0.07-1.31,0.64-2.13,1.72-2.75c1.53-0.18,3.16-0.38,4.79-0.58c1.73,0.83,1.73,0.83,2.99,2.86
		c3.94,0.45,8.04,0.22,12.09,0.35c1.05,0.29,2.06,0.65,3.09,0.81c0.89,0.13,1.82,0.03,2.7,0.03c0.6,0.54,1.14,1.03,1.7,1.53
		c0.43-0.16,0.85-0.31,1.31-0.48c2.28,0.6,4.64,1.12,6.92,1.85c1.29,0.41,2.47,1.15,3.7,1.75c1.09,0.53,2.15,1.11,3.25,1.62
		c2.05,0.96,4.09,1.93,5.78,3.83c0.74,0,1.62-0.04,2.5,0.01c0.75,0.04,1.5,0.32,2.22-0.11c0.98,1.83,1.1,1.9,3.16,1.7
		c0.23,0.19,0.43,0.48,0.7,0.56c1.46,0.45,2.92,0.87,4.39,1.26c1.18,0.31,2.37,0.81,3.55,0.79c2.11-0.04,4.25,0.52,6.36-0.28
		c0.84-0.32,1.8-0.36,2.76-0.54c0.84,0.09,1.74,0.19,2.49,0.27c2.47-0.86,4.79-1.63,7.08-2.48c0.71-0.26,1.35-0.73,2.1-1.15
		c3.67-0.71,7.2-2.29,11-2.82c1.84-0.99,3.86-0.84,5.94-0.95c0.62-0.3,1.31-0.62,1.99-0.98c1.12-0.58,2.3-0.79,3.55-0.81
		c2.91-0.04,5.82-0.08,8.73-0.19c1.06-0.04,2.21-0.61,3.14-0.35c1.45,0.41,2.67,0.05,4-0.29c0.72-0.19,1.53-0.15,2.29-0.06
		c0.57,0.07,1.12,0.39,1.68,0.61c0.9-0.62,1.73-1.25,2.63-1.8c0.78-0.48,1.62-0.85,2.28-1.18c0.94-1.26,1.76-2.36,2.63-3.53
		c0.64-1.95,1.3-3.97,1.9-5.81c-0.06-1.46-1.35-1.81-1.83-2.76c-0.55-1.09-1.13-2.17-1.72-3.25c-0.52-0.94-1.08-1.86-1.73-2.99
		c0-1.47,0-3.15,0-4.95c2.09-3.8,4.61-7.44,7.01-10.93c0.15-1.06-0.34-1.64-0.85-2.22c-0.92-1.05-2.04-1.84-3.26-2.52
		c-0.93-0.52-1.77-1.2-2.66-1.79c-2.39-1.59-4.03-3.74-4.88-6.62c0.36-1.03,0.76-2.18,1.27-3.64c2.3-2.29,4.79-4.77,7.57-7.53
		c0.24-0.47,0.65-1.29,1.01-2.01c-0.37-1.76-0.62-3.44-2.26-4.84c-0.85-0.28-1.99-0.72-3.16-1.05c-1.65-0.47-3.15-1.25-4.5-2.25
		c-2.04-1.52-3.39-3.5-3.64-5.92c0.63-2.92,2.64-4.64,4.45-6.5c0.64-0.65,1.33-1.26,1.87-1.98c0.45-0.6,0.71-1.34,1.09-2.08
		c-0.13-0.75-0.27-1.49-0.4-2.24c-0.42-0.62-0.84-1.24-1.26-1.87c-0.92-0.34-1.8-0.61-2.63-0.98c-0.97-0.43-1.91-0.94-2.67-1.33
		c-0.85,0-1.46,0-2.01,0c-0.91-0.35-1.76-0.67-2.4-0.91c-2.7,0-5.17,0.15-7.61-0.04c-2.45-0.19-4.83,0.94-7.27,0.22
		c-2.99,0.68-6.03,0.7-9.07,0.69c-3.33-0.01-6.63,0.61-10,0.1C159.32,118.45,157.29,118.87,155.31,118.97z"/>
	<path class="st0" d="M83.82,212.36c3.67,0.07,7.35,0.15,11.59,0.24c0.16,0.06,0.87,0.33,1.77,0.67c0.56-0.2,1.26-0.46,2-0.72
		c1.14,0.95,2.53,0.94,3.87,0.91c1.84,0.41,3.18,1.82,5.11,2.07c1.63,0.2,2.93,1.61,4.67,1.83c0.58,0.08,1.19,0.38,1.68,0.73
		c3.35,2.47,7.43,3.54,10.96,5.66c0.51,0.31,1.12,0.48,1.71,0.61c2.39,0.51,4.82,0.8,7.09,1.78c0.14,0.06,0.29,0.08,0.44,0.11
		c1.79,0.33,3.71-0.23,5.39,0.81c1.99,0.08,3.98,0.22,5.97,0.22c1.84,0,3.68-0.08,5.51-0.25c3.28-0.31,7.69-2.05,11.14-4.29
		c3.81-0.37,7.68-1.15,11.48-2.38c2-0.65,4.17-0.8,6.22-1.4c1.02-0.3,2.05-0.6,3.34-0.98c2.77-0.07,5.87,0.34,8.55-0.9
		c4.92,0.04,4.69,0.7,14.53-1.09c0.78-0.49,1.67-1.09,2.61-1.61c0.93-0.51,1.91-0.93,2.89-1.41c1.76-3.83,3.92-7.52,5.13-11.84
		c-0.35-1.15-0.76-2.45-1.14-3.71c-0.93-0.86-1.94-1.6-2.69-2.54c-0.65-0.82-0.95-1.9-1.51-2.8c-0.67-1.08-1.07-2.2-0.88-3.61
		c0.35-1.25,1.08-2.49,2.13-3.35c2.74-2.24,4.12-5.27,5.35-8.42c0.17-0.42,0.34-0.85,0.48-1.2c0.06-1.77-0.77-3.05-1.94-4.08
		c-1.37-1.21-2.75-2.42-4.37-3.33c-1.6-0.9-3.1-1.97-4.57-2.92c-0.22-0.71-0.39-1.3-0.56-1.85c0.34-2,1.67-3.3,2.99-4.58
		c1.54-1.49,3.12-2.94,4.57-4.3c0.23-0.94,0.35-1.7,0.61-2.42c0.94-2.56,0.96-5.08-0.12-7.62c-0.17-0.4-0.11-0.91-0.16-1.37
		c0.44,0.12,0.94,0.15,1.31,0.39c1.02,0.66,1.99,1.41,2.89,2.07c0.42,0.81,0.77,1.48,1.21,2.34c0.04,0.89,0.1,1.96,0.16,3.11
		c-0.33,0.94-0.69,1.95-1.14,3.24c-2.13,2.28-3.87,5.15-5.23,8.53c0,0.84,0,1.9,0,2.94c1.51,2.61,3.9,4.35,5.98,6.51
		c0.64,1.26,1.34,2.62,2.07,4.06c0,1.49,0,3.02,0,4.93c-0.31,0.93-0.74,2.24-1.22,3.71c-1.17,1.23-2.43,2.57-3.9,4.12
		c-0.32,1.21-0.7,2.67-1,3.79c0.42,2.64,2.55,3.86,3.44,6.58c0.05,0.53,0.16,1.74,0.26,2.96c0.04,0.45-0.11,0.97,0.06,1.36
		c0.95,2.22,0.67,4.51,0.55,6.61c-0.44,2.24-2.29,3.46-2.8,4.98c-1.32,1.17-2.39,2.03-3.35,3.01c-1.1,1.13-2.37,1.9-3.89,2.32
		c-0.72,0.2-1.41,0.52-2.11,0.8c-2.86,1.13-5.83,1.72-8.88,2.11c-1.96,0.25-4.01-0.49-5.88,0.59c-1.83-0.19-3.62,0.23-5.43,0.35
		c-1.99,0.14-3.99,0.03-5.97,0.21c-1.35,0.12-2.71,0.45-4.01,0.83c-2.18,0.64-4.52,0.77-6.49,2.05c-0.25,0.17-0.54,0.36-0.83,0.39
		c-2.92,0.35-5.28,2.47-8.35,2.6c-0.51-0.08-1.11-0.17-1.71-0.27c-0.29,0.08-0.6,0.13-0.87,0.25c-2.21,1.05-4.41,2.14-6.63,3.18
		c-1.99,0.94-3.93,1.47-6.16,0.38c-1.37-0.67-3.01-0.32-4.49,0.26c-0.9-0.17-1.8-0.48-2.7-0.48c-2.05-0.01-3.96-0.66-5.73-1.48
		c-2.52-1.17-5.15-1.9-7.28-2.49c-2.59-1.46-4.74-2.63-6.85-3.86c-1.33-0.78-2.64-1.58-4.26-1.49c-2.28-0.89-4.55-1.77-6.75-2.63
		c-2.02-0.33-3.95-0.72-5.91-0.94c-1.98-0.22-3.97-0.28-6.03-0.41c-1.43-0.74-2.92-1.52-4.35-2.26c-1.45-0.11-2.82-0.21-4.2-0.32
		C87.03,216.4,85.18,214.62,83.82,212.36z"/>
	<path class="st2" d="M249.97,75.04c-0.46,0.96-0.91,1.93-1.44,3.04c-1.6,0.65-2.63,2.21-3.93,3.4c-0.59-0.47-0.94-0.74-1.24-0.98
		c-0.42-1.48-0.01-2.81,0.23-4.18c1.45-1.29,3.22-2.29,3.94-4.31c0.24-0.66,0.98-1.14,1.47-1.71c0.59-0.7,1.26-1.36,1.72-2.13
		c1.26-2.1,2.88-3.9,4.56-5.68c0.07-0.44,0.14-0.89,0.19-1.2c0.89-1.19,1.66-2.3,2.52-3.35c0.77-0.95,1.74-1.76,2.42-2.77
		c0.94-1.38,1.69-2.89,2.61-4.52c0.59-0.13,1.32-0.29,1.88-0.41c1.1,0.4,1.77,0.97,2.04,1.8c0,0.42,0.08,0.75-0.02,1.01
		c-0.26,0.71-0.43,1.58-0.94,2.07c-3.19,3.13-5.1,7.25-8.19,10.45c-0.85,2.76-3.46,4.21-4.88,6.57
		C252.23,73.27,250.98,74.07,249.97,75.04z"/>
	<path class="st2" d="M252.92,234.67c0.38,0,0.84,0,1.29,0c1.03,0.31,1,1.46,1.64,2.09c0.65,0.65,1.25,1.34,1.92,2.06
		c0.16,2.06,1.5,3.61,2.61,5.21c1.32,1.89,2.5,3.84,3.54,6.16c1.95,2.25,4.29,4.53,4.78,7.83c2.19,2.32,5.36,3.73,5.99,7.38
		c-0.7,0.81-1.39,1.6-2.06,2.38c-0.55,0-0.98,0-1.33,0c-1.9-2.34-3.73-4.59-5.77-7.11c-0.06-0.22-0.09-0.9-0.41-1.38
		c-1.18-1.77-2.45-3.48-3.95-5.59c0-0.67,0-1.8,0-2.92c-0.29,0.12-0.57,0.28-0.86,0.33c-0.29,0.05-0.6-0.03-1.1-0.06
		c-0.27-0.6-0.66-1.25-0.85-1.97c-0.53-1.95-1.51-3.69-2.77-5.2c-1.45-1.73-2.2-3.62-2.29-5.73c-0.49-0.7-0.92-1.33-1.26-1.81
		C251.87,235.45,252.35,235.09,252.92,234.67z"/>
	<path class="st2" d="M228.59,252.93c-0.34,0.89-0.66,1.74-0.99,2.6c0.23,1.07,0.45,2.1,0.66,3.13c-0.28,0.76-0.54,1.47-0.8,2.19
		c-0.1,1.67,1.11,2.77,1.87,4.23c0.08,2.28-0.92,4.29-2.13,6.13c-1.37,1-2.62,0.94-3.82,0c-0.13-0.32-0.33-0.59-0.34-0.87
		c-0.05-2.9,0.07-5.78,0.61-8.66c0.33-1.77,0.21-3.64,0.3-5.46c0.05-0.91,0.14-1.82,0.2-2.66c0.43-0.37,0.77-0.67,1.16-1
		c-0.34-0.19-0.69-0.39-1.08-0.62c-0.7-1.48,0.18-2.92,0.24-4.4c-0.13-0.59-0.26-1.19-0.33-1.54c0.25-1.58,0.52-2.93,0.65-4.28
		c0.12-1.2,0.08-2.42,0.11-3.41c0.56-1,1.33-1.07,2.09-1.18c0.86,0.49,1.29,1.28,1.43,2.22c0.11,0.75,0.16,1.52,0.14,2.29
		c-0.05,1.52-0.34,3.06-0.19,4.56c0.15,1.54,0.15,3-0.14,4.52C228.11,251.42,228.46,252.21,228.59,252.93z"/>
	<path class="st2" d="M184.79,69c-0.69-1.53-1.38-3.04-2.16-4.77c-0.09-0.67-0.21-1.57-0.34-2.55c0.35-0.21,0.7-0.5,1.1-0.66
		c0.79-0.32,1.47,0.02,2.11,0.47c2.42,3.68,4.83,7.36,7.25,11.04c1.18,3.18,3.42,5.72,5.22,8.53c0.08,0.13,0.19,0.24,0.33,0.41
		c0.6,0.34,1.26,0.71,2.04,1.14c0.84,1.47,2.09,2.92,1.25,4.91c-1.52,0.86-1.52,0.86-3.83,0.09c-0.29-0.64-0.6-1.31-0.95-2.07
		c-0.51-0.22-1.05-0.46-1.66-0.73c-1.24-2.14-2.15-4.59-4.05-6.07c-0.59-1.52-1.08-2.79-1.62-4.16
		C186.91,73.83,186.93,70.77,184.79,69z"/>
	<path class="st2" d="M201.22,233.64c1.09-0.02,1.79,0.2,2.25,0.97c0.57,1.29-0.14,2.32-0.89,3.52c-0.37,0.22-0.88,0.52-1.5,0.9
		c-0.11,0.48-0.24,1.06-0.45,1.96c-2.01,2.47-4.16,5.22-6.44,7.86c-1.51,1.75-2.86,3.53-3.47,5.82c-0.23,0.85-0.84,1.6-1.31,2.45
		c-1.08,0.55-2.15,1.09-3.26,1.65c-0.76-0.03-1.52-0.07-2.35-0.11c-0.35-0.5-0.69-0.99-1.02-1.46c0.24-0.97,0.46-1.86,0.64-2.59
		c0.61-0.93,1.43-1.3,2.46-1.86c0.52-1,1.14-2.2,1.98-3.82c0.84-0.66,2.26-1.42,3.16-2.58c0.86-1.12,1.77-2.05,2.9-2.67
		c0.69-1.32,1.3-2.54,1.95-3.74c0.29-0.53,0.53-1.17,0.98-1.52C198.53,237.1,199.52,235.19,201.22,233.64z"/>
	<path class="st2" d="M224.32,48.91c0.28-0.26,0.6-0.56,0.9-0.84c0.36,0.02,0.67,0.03,0.97,0.05c0.76,0.59,1.24,1.35,1.35,2.31
		c0.05,0.46,0.14,0.93,0.07,1.37c-0.32,2.13-0.01,4.23,0.14,6.35c0.15,1.98,0.15,3.97,0.18,5.96c0.02,1.52,0.02,3.05-0.04,4.57
		c-0.09,2.28-0.23,4.57-0.36,7.05c-0.36,0.28-0.82,0.64-1.16,0.9c-1.39,0.12-2.25-0.4-2.88-1.48c-0.42-1.08,0.65-2.34-0.31-3.54
		c1-3.06,1.05-6.21,0.29-9.43c-0.3-1.3-0.14-2.73-0.04-4.09C223.67,55.2,223.99,52.31,224.32,48.91z"/>
	<path class="st0" d="M209.09,139.77c-2.49-0.1-4.19-1.39-5.4-3.52c0.16-0.45,0.21-0.95,0.48-1.25c1.41-1.55,2.88-3.05,4.53-4.77
		c0.8-1.63,1.73-3.52,2.65-5.4c2.15,0.99,2.15,0.99,3.36,3.29c-0.05,0.29-0.02,0.64-0.16,0.88c-1.7,2.85-3.43,5.69-5.22,8.65
		C209.26,138.28,209.18,139.02,209.09,139.77z"/>
	<path class="st1" d="M230.54,123.83c1.74,2.45,3.48,4.9,5.3,7.46c0.38,0.92,0.27,1.95-0.15,2.97c-0.29-0.07-0.59-0.14-0.9-0.22
		c-1.01-0.5-1.35-1.6-2.06-2.37c-0.61-0.66-1.33-1.22-2.03-1.86c-0.33-1.27-0.68-2.59-1.09-4.14
		C229.86,125.17,230.2,124.5,230.54,123.83z"/>
	<path class="st0" d="M82.77,212.02c0.53-0.36,0.91-0.26,1.11,0.37C83.38,212.67,83.03,212.48,82.77,212.02z"/>
</g>
</svg>
