<svg version="1.1" id="Layer_1" xmlns="http://www.w3.org/2000/svg" x="0" y="0" viewBox="0 0 458 320" style="enable-background:new 0 0 458 320" xml:space="preserve"><style>.st0{fill:#ff5543}.st1{fill:#6b59e9}.st2{fill:#131112}</style><path class="st0" d="M80.17 204.9c-1.09-1.9-.98-4.14-1.72-6.16-.4-1.09-.1-2.43-.12-3.65-.04-2.75-.07-5.51-.12-8.26-.01-.46-.03-.93-.13-1.37-1-4.07-.91-8.18-.52-12.3.09-.93.1-1.81-.05-2.72-.23-1.38-.1-2.73.54-4.03-1.36-2.69-1.8-5.52-1.46-8.48 1.08-2.07.46-4.57 1.68-6.61.01-1.56 1.28-2.81 1.05-4.43.45-.78.9-1.56 1.4-2.42.69.04 1.27.08 2.27.14 1.47-.48 3.35-1.09 5.08-1.66.92.33 1.62.59 2.44.88 3.84-2.56 8.32-2.58 12.91-2.8 1.7-.69 3.51-1.57 5.55-1.24 1.25-.76 2.43-1.48 3.77-2.29.15-.22.39-.6.68-.95.88-1.06 1.72-2.16 2.67-3.16 3.17-3.33 5.65-7.19 8.44-10.82 1.96-2.54 3.71-5.24 5.47-7.92.83-1.26 1.47-2.65 2.5-4.54.95-.9 2.51-2.06 3.51-3.88.79-1.43 2.19-2.53 3.61-3.47.88-.58 1.78-1.15 2.62-1.7h3.28c1.06 2.26 1.24 4.68 1.12 7.11-.11 1.99 0 3.95.44 5.89.1.43.35.83.58 1.37.77.58 1.62 1.21 1.92 1.44 2.33.85 4.03 1.46 5.73 2.08-.04.59-.08 1.18-.12 1.8.79.65 1.49 1.23 2.18 1.8 2.35.16 4.65.57 6.89.39 2-.16 3.98-.14 5.95-.09 3.05.07 6.1 0 9.14.49.99.16 2.1-.5 3.12-.4 2.17.21 4.26-.15 6.34-.56.79-.16 1.51-.2 2.24.07 1.57.58 2.99-.1 4.3-.54 2.49.72 2.77.77 4.15.44.73-.17 1.44-.43 1.73-.52 2.02.07 3.33 1.19 4.92 1.03.13.74.27 1.49.4 2.24-.38.74-.64 1.48-1.09 2.08-.54.72-1.24 1.33-1.87 1.98-1.81 1.86-3.83 3.58-4.45 6.5.25 2.42 1.6 4.4 3.64 5.92 1.35 1.01 2.85 1.79 4.5 2.25 1.17.33 2.31.77 3.16 1.05 1.64 1.41 1.89 3.08 2.26 4.84-.36.72-.77 1.54-1.01 2.01-2.78 2.76-5.28 5.25-7.57 7.53l-1.27 3.64c.85 2.88 2.5 5.03 4.88 6.62.89.59 1.73 1.27 2.66 1.79 1.22.68 2.34 1.46 3.26 2.52.51.58 1 1.17.85 2.22-2.4 3.5-4.92 7.14-7.01 10.93v4.95c.66 1.13 1.21 2.05 1.73 2.99.59 1.07 1.17 2.15 1.72 3.25.48.95 1.77 1.3 1.83 2.76-.6 1.84-1.26 3.87-1.9 5.81-.87 1.17-1.69 2.27-2.63 3.53-.65.34-1.5.71-2.28 1.18-.89.54-1.73 1.18-2.63 1.8-.57-.21-1.11-.53-1.68-.61-.75-.09-1.56-.12-2.29.06-1.33.34-2.54.7-4 .29-.94-.27-2.08.31-3.14.35-2.91.11-5.82.16-8.73.19-1.25.02-2.44.23-3.55.81-.68.35-1.37.67-1.99.98-2.08.11-4.11-.04-5.94.95-3.8.53-7.33 2.1-11 2.82-.75.42-1.38.88-2.1 1.15-2.29.85-4.6 1.62-7.08 2.48-.75-.08-1.65-.18-2.49-.27-.97.18-1.92.22-2.76.54-2.1.8-4.24.24-6.36.28-1.18.02-2.37-.48-3.55-.79-1.47-.39-2.94-.81-4.39-1.26-.27-.08-.47-.37-.7-.56-.3-1.17-1-1.79-2.27-1.65-.29.03-.6-.03-.89-.05-.72.43-1.47.15-2.22.11-.88-.05-1.76-.01-2.5-.01-1.69-1.9-3.73-2.87-5.78-3.83-1.1-.51-2.16-1.09-3.25-1.62-1.22-.6-2.41-1.34-3.7-1.75-2.29-.73-4.64-1.25-6.92-1.85-.46.17-.89.33-1.31.48-.56-.5-1.1-.99-1.7-1.53-.88 0-1.81.11-2.7-.03-1.04-.16-2.04-.53-3.09-.81-4.05-.13-8.14.09-12.09-.35-1.26-2.04-1.26-2.04-2.99-2.87z"/><path class="st1" d="M292.12 94.71c1.64-1.37 3.01-3 4.45-4.86 1.02-.21 2.2-.46 3.36-.7 1.7.22 3.37.44 4.95.65 1.88.98 3.42 2.18 4.72 3.75 1.37 1.64 2.88 3.17 4.32 4.73.18.61.36 1.2.6 2 .5.51 1.1 1.21 1.8 1.79 1.66 1.37 3.18 2.85 4.42 4.63.6.87 1.47 1.55 2.18 2.34.61.68 1.17 1.41 1.9 2.3 1.66 1.19 3.53 2.51 5.27 3.76 1.95.8 3.76 1.64 5.63 2.28 1.73.59 3.53.97 5.29 1.49 1.91.55 4.01-.25 5.84.87 3.31-.82 6.69-.14 10.03-.45 3.05-.28 6.1-.31 9.18-.11 1.61.11 3.4.35 5.01-.82 1.99.5 4.08 1.07 6.19.12.27-.12.59-.18.89-.19 2.44-.01 4.88-.01 7.65-.01.29.25.74.65 1.01.88.48 4.7.33 8.98.2 13.26-.02.59-.3 1.17-.44 1.76s-.42 1.2-.38 1.78c.2 2.8-1 5.4-1.11 8.16-.03.87-.59 1.71-.78 2.22 0 2.65.01 4.95-.01 7.24 0 .61.07 1.27-.13 1.83-1 2.84-.57 5.78-.71 8.67-.1 2.14-.06 4.28-.09 6.26l-1.1.99 1.1 1.03c-.26 1.74-.73 3.53-.76 5.34-.03 1.72-1.37 3.13-.91 5.15.37.36.9.87 1.44 1.4.78 2.1-.37 4.21.01 6.36-.69.59-1.37 1.18-2 1.72-1.04 1.42-1.11 3.29-2.57 4.5-1.93.37-3.92-.06-5.9.13-.87-.32-1.72-.63-2.61-.96-.71.23-1.43.46-2.28.74-.78-.17-1.67-.36-2.53-.54-1.07.25-2.1.59-3.14.71-1.06.12-2.14.03-2.68.03-2.45.66-4.36 1.19-6.28 1.68-1.91.48-3.83.91-5.96 1.41-1.9.77-4.06 1.54-6.15 2.5-2.78 1.28-5.6 2.44-8.41 3.63-1.3.55-2.62.77-3.9 1.09-1.26.61-2.15 1.89-3.74 1.71-.28-.03-.64.07-.87.24-1.91 1.34-4.11 1.95-6.3 2.64-1.29.41-2.61.98-3.2 2.4-1.83.16-3.52.52-4.85 1.57-1.26 1-2.74 1.37-4.16 1.87-1.85.66-3.8 1.08-5.74 1.46-.9.17-1.79.29-2.69.53-1.91.51-3.75 1.41-5.8 1.21-1.7.77-3.53 1-5.35 1.05-1.39.03-2.71.11-4.07.52-1 .3-2.13.32-3.19.24-2.74-.19-5.53.2-8.22-.68-.42-.14-.92-.12-1.37-.09-2.8.21-5.46-.7-8.16-1.16-1.9-.32-3.67-1.42-5.82-2.31-.69-.09-1.75-.22-2.97-.38-1.13-1.14-2.78-1.6-4.22-2.42-3.18-1.81-6.26-3.81-9.3-5.85-1-.67-1.79-1.66-2.63-2.54-.62-.65-1.18-1.37-1.78-2.07-.07-1.01-.67-2.1.39-2.97 2.61 1.35 4.86 3.17 6.64 4.88 2.01 1.09 3.6 2.04 5.26 2.81 2.35 1.1 4.58 2.53 7.12 3.18 2.51.63 5.02 1.27 7.51 2 1.6.47 3.32.51 4.98.79 1.94.33 4-.04 5.84.9 3.19.26 6.41-.23 9.6.26.6.09 1.23.05 1.84 0s1.21-.17 1.82-.27c2.11-.35 4.35-.38 6.3-1.14 2.21-.86 4.53-.69 6.72-1.38.58-.18 1.19-.31 1.75-.54 1.68-.68 3.21-1.85 5.17-1.65 1.07-.57 2.15-1.14 3.59-1.9.34-.07 1.11-.16 1.84-.38s1.42-.57 2.12-.86c3.38-1.43 6.83-2.73 10.13-4.33 3.87-1.87 7.86-3.42 11.9-4.85 2.33-.83 4.61-1.7 6.45-3.46 1.71-.24 3.24-.92 4.73-1.73 1.07-.58 2.2-1.12 3.37-1.44 2.64-.71 5.2-1.69 7.92-2.09.73-.11 1.41-.56 1.94-.78 2.46-.22 4.75-.47 7.04-.61 2.45-.15 4.92-.07 7.35-.32 2.25-.23 4.52.46 6.69-.13.11-.47.27-.77.24-1.06-.05-.44-.22-.87-.31-1.19-1.04-1.23-2.37-1.59-3.8-1.95-1.91 0-3.94.23-5.9-.05-4.21-.61-8.13 1.33-12.27 1.15-.14-.01-.3.09-.42.17-1.23.88-2.68.47-4.03.66-.78.46-1.56.93-2.28 1.36-.69-.12-1.29-.22-1.64-.28-.95.33-1.71.49-2.37.85-.65.35-1.19.9-1.68 1.28-3.15.64-5.86 2.05-8.58 3.43-1.76.89-3.53 1.78-5.33 2.58-.83.37-1.75.49-2.63.76-.87.27-1.74.58-2.6.87-1.91.64-3.4 2.05-5.2 2.85-1.95.87-4.13 1.28-6 2.27-2.58 1.37-5.36 2.18-8.06 3.21-2.13.82-4.42 1.21-6.37 2.51-.37.24-.84.33-1.27.47-1.6.49-3.2.97-5.21 1.57-.16-.01-.77-.04-1.55-.08-1.11.88-2.52 1.42-4.12 1.62-3.92-1.12-7.81.52-11.88.42l-2.44-.79c-.81.21-1.54.4-1.8.46-3-.52-5.53-.99-8.07-1.38-2.57-.39-5.05-1.32-7.14-1.12-2.26-.78-4-1.34-5.72-1.98-.7-.26-1.35-.68-2.03-1-2.07-.97-3.75-2.64-5.7-3.08-1.68-1.42-3.08-2.6-4.6-3.88-.29-.82-1.42-1.47-1.16-2.71-.01-.92.09-1.86.74-2.53 1.01-1.04 1.22-2.33 1.56-3.64.34-1.28 1.46-2.24 1.65-3.66.14-1.02.65-1.99.82-3.01.15-.87.19-1.82-.77-2.39-.15-1.48-.29-2.96-.46-4.69-1.04-1.66-2.22-3.56-3.39-5.46-.54-.87-1.74-1.24-1.84-2.44.27-.52.46-1.12.83-1.55 1.55-1.82 3.28-3.45 5.35-4.55.33-.98.61-1.8.91-2.7-.61-.62-1.13-1.14-1.65-1.67.06-1.34.11-2.69.18-4.03.06-1.24-.24-2.38-.87-3.44-.38-.64-.71-1.35-1.22-1.88-1.02-1.08-2.15-2.05-3.35-3.18-.02-.95-.04-1.99-.06-3.03 1.69-1.33 3.24-2.74 3.54-5.06.03-.22.41-.39.63-.58-.15-1.04-.58-2.01-.53-3.12.06-1.51-.13-3.04-.19-4.23-1.23-3.23-4.23-4.85-5.37-8.31-.24-1.15-.66-2.79.2-4.41 1.89.3 3.04-1.25 4.4-1.82 1.49-.33 2.86-.52 4.16-.94 1.31-.43 2.58-.84 3.99-.87 1.36-.03 2.71-.32 4.07-.5 1.5-.19 3-.38 4.33-.55 1.78.42 3.4.8 4.39 1.03 2.24 1.01 3.9 1.75 5.23 2.35 1.42-.21 2.46-.37 3.51-.5 1.06-.13 2.13-.15 3.17-.34 2.39-.44 4.74-1.15 7.14-1.41 2.57-.27 5.18-.14 7.77-.19.24 1.51.56 2.98 1.06 4.44.48 1.41.16 3.01.98 4.44.43.75.37 1.8-.52 2.84-.86.33-1.97 1.08-3.12 1.15-2.31.14-4.44 1.16-6.76 1.2-.9.02-1.8.27-2.71.39-3.04.4-6.05.83-9.1-.09-1.75-.53-3.59-.79-5.32-.63-1.02.48-1.63 1.09-1.59 2.16 1.21 1.29 1.21 1.29 5.58 2.71.97 0 2.36-.07 3.73.02 1.36.09 2.71.36 4.06.55 2.81-.99 5.81-.27 8.66-.94.96-.45 1.94-.9 2.88-1.33 1.12-.07 2.18-.2 3.25-.2 1.2 0 2.01-1.42 3.3-.92 1.13 1.69-.35 2.92-.61 4.17v6.88c-.43 1.32-.81 2.48-1.19 3.66-1.25 1.5-2.51 3.03-3.6 4.34-1.46.49-2.68.4-3.83 1.02-1.18.63-2.61.81-3.94 1.14-1.18.29-2.37.52-3.49.76-.96-.27-1.84-.51-2.62-.74-1.01.28-1.89.52-2.45.68-3.21-.37-6.07-.05-8.7.2-.9.59-1.4 1.13-1.28 2.16l1.12 1.26 4.17.98c2.17-.08 3.99-.15 5.99-.23.37-.19.91-.47 1.74-.9 2.16.79 4.59.49 7.03.13 3.07-1.42 6.4-1.93 9.54-2.95 1.3 1.16 2 2.55 2.5 3.97.5 1.42.89 2.93 1.02 4.42.17 1.97.04 3.98.04 5.94-.81 1.2-1.57 2.34-2.39 3.55-.96.62-1.99 1.29-3.04 1.97-1.04.13-2.11.26-3 .37-1.55.72-2.93 1.37-4.27 2-2.2-.54-4.28-.75-6.41.06-.96.37-2.11.35-3.17.33-3.21-.06-6.41-.22-9.62-.33-.6-.02-1.2.03-1.85.05l-1.07 1.34c.72 1.3 1.75 1.92 3.33 2.56 2.62-.28 5.61.73 8.68.16.72-.13 1.51.11 2.27.17.6.05 1.25.25 1.78.08 1.21-.37 2.43-.33 3.65-.32 2.17.02 4.27-.31 6.3-1.08.71-.27 1.47-.71 2.18-.67 1.95.12 3.55-.79 5.26-1.51.41.22.79.43 1.21.66.43 1.88-.1 3.72.14 5.11-.5 2.36-.92 4.29-1.33 6.21-2.27 3.38-3.22 4.45-6.26 7.28-.89.83-1.69 1.77-2.59 2.72-.9.42-1.87.87-2.46 1.15-3.89.53-7.4.87-10.84 1.52-2.16.41-4.22.59-6.13-.18-1.13.46-1.63 1.23-1.78 2.17-.09.56.13 1.17.22 1.81 1.31.61 2.14 1.9 3.83 1.82 1.01-.43 2.14-.92 2.79-1.2 3.38-.41 6.27-.75 9.15-1.12.3-.04.58-.19.87-.29 2.87-1.05 5.85-1.73 8.82-2.43 3.37-.79 6.17-2.65 8.84-4.72.58-.45 1-1.15 1.42-1.78.93-1.41 1.75-2.89 2.72-4.26.98-1.37 1.32-3.07 2.49-4.36.58-.64.78-1.65 1.09-2.51.36-1.01.59-2.06 1.01-3.05.83-1.96 1.49-4.07 2.69-5.78 2.18-3.12 4.5-6.17 7.54-8.57 2.05-1.62 4.05-3.26 6.45-4.34 1.67-.76 3.29-1.65 4.94-2.45 1.52-.73 3.07-1.32 4.77-1.62 2.26-.39 4.46-1.09 6.69-1.64 1.63-.4 3.26-.79 5.3-1.28.51-.59 2-.59 2.56-2.07-.19-.9-.4-1.93-.61-2.97-.71-.46-1.34-.86-1.99-1.28-.92.45-1.73.84-2.44 1.18-2.15.36-3.85-1.35-5.93-.96-.39.07-.85-.3-1.29-.42-1.03-.28-2.06-.53-3.09-.8-1.83-.47-3.44-1.5-4.74-2.72-1.99-1.87-4.35-3.39-5.9-5.73-2.62-3.97-4.45-8.38-6.99-12.4-.32-.5-.43-1.14-.64-1.71-.52-1.44-1.05-2.87-1.54-4.32-.49-1.44-.75-2.99-1.43-4.33-.81-1.6-.33-3.34-.84-4.95-.99-1.39-2-2.71-3.75-3.16-.86.22-1.31.86-1.37 1.64-.06.9-.1 1.9.24 2.69.51 1.19.43 2.39.59 3.59.16 1.2.8 2.36.8 3.54.01 2.03.51 3.9.99 5.84.84 3.4 1.21 6.9 2.63 10.16.29.66.16 1.5.23 2.36-.55.52-1.09 1.04-1.61 1.53-.72 0-1.36.12-1.94-.02-1.33-.32-2.64-.76-3.64-1.06-2.08-1.55-2.38-3.9-3.91-5.35-.11-1.48-.2-2.85-.29-4.02-.81-1.88-1.53-3.57-2.09-4.89-.88-1.15-1.53-2-2.17-2.84-.09-1.13.03-2.26-.3-3.25-.94-2.83-.68-5.75-.9-8.64-.12-1.51.09-3.06-.57-4.53-.24-.53-.13-1.2-.18-1.81-.17-2.62.37-5.16.93-7.69z"/><path class="st2" d="M292.12 94.71c-.56 2.54-1.1 5.08-.88 7.71.05.61-.05 1.29.18 1.81.66 1.47.46 3.02.57 4.53.22 2.89-.03 5.81.9 8.64.33.99.21 2.12.3 3.25.64.84 1.29 1.69 2.17 2.84.57 1.32 1.29 3.01 2.09 4.89.08 1.17.18 2.54.29 4.02 1.53 1.45 1.83 3.8 3.91 5.35 1 .3 2.3.74 3.64 1.06.58.14 1.22.02 1.94.02.52-.49 1.06-1.01 1.61-1.53-.07-.86.06-1.7-.23-2.36-1.42-3.26-1.79-6.76-2.63-10.16-.48-1.93-.98-3.81-.99-5.84-.01-1.18-.64-2.34-.8-3.54-.16-1.2-.08-2.4-.59-3.59-.34-.79-.3-1.8-.24-2.69.05-.77.51-1.42 1.37-1.64 1.75.45 2.76 1.77 3.75 3.16.51 1.61.03 3.35.84 4.95.68 1.34.94 2.89 1.43 4.33.49 1.45 1.02 2.88 1.54 4.32.21.57.32 1.21.64 1.71 2.54 4.02 4.37 8.43 6.99 12.4 1.54 2.34 3.9 3.86 5.9 5.73 1.3 1.22 2.9 2.26 4.74 2.72 1.03.26 2.07.52 3.09.8.44.12.9.5 1.29.42 2.07-.39 3.77 1.32 5.93.96.71-.35 1.52-.73 2.44-1.18.65.42 1.28.83 1.99 1.28.21 1.04.42 2.06.61 2.97-.55 1.48-2.04 1.48-2.56 2.07-2.04.49-3.67.88-5.3 1.28-2.23.55-4.43 1.25-6.69 1.64-1.7.29-3.25.88-4.77 1.62-1.66.8-3.27 1.69-4.94 2.45-2.4 1.09-4.4 2.73-6.45 4.34-3.05 2.41-5.36 5.46-7.54 8.57-1.2 1.72-1.86 3.82-2.69 5.78-.42.98-.64 2.04-1.01 3.05-.31.86-.51 1.87-1.09 2.51-1.17 1.29-1.52 2.98-2.49 4.36-.98 1.37-1.8 2.85-2.72 4.26-.42.63-.84 1.33-1.42 1.78-2.67 2.07-5.47 3.92-8.84 4.72-2.97.7-5.95 1.38-8.82 2.43-.29.11-.57.26-.87.29-2.88.36-5.76.71-9.15 1.12-.66.28-1.78.76-2.79 1.2-1.69.07-2.52-1.21-3.83-1.82-.09-.64-.31-1.25-.22-1.81.14-.94.65-1.71 1.78-2.17 1.91.77 3.97.59 6.13.18 3.45-.66 6.96-1 10.84-1.52.59-.28 1.56-.73 2.46-1.15.9-.95 1.7-1.89 2.59-2.72 3.04-2.83 3.99-3.9 6.26-7.28.41-1.92.83-3.86 1.33-6.21-.24-1.39.29-3.23-.14-5.11-.42-.23-.8-.43-1.21-.66-1.7.72-3.31 1.63-5.26 1.51-.71-.04-1.46.39-2.18.67-2.03.77-4.13 1.1-6.3 1.08-1.22-.01-2.44-.05-3.65.32-.54.16-1.18-.04-1.78-.08-.76-.06-1.55-.3-2.27-.17-3.07.57-6.06-.44-8.68-.16-1.58-.65-2.61-1.27-3.33-2.56l1.07-1.34c.65-.02 1.25-.07 1.85-.05 3.21.11 6.41.26 9.62.33 1.06.02 2.21.04 3.17-.33 2.13-.81 4.21-.6 6.41-.06 1.34-.63 2.72-1.27 4.27-2l3-.37c1.05-.68 2.08-1.35 3.04-1.97.81-1.21 1.58-2.35 2.39-3.55 0-1.96.13-3.96-.04-5.94-.13-1.5-.51-3-1.02-4.42-.51-1.43-1.2-2.81-2.5-3.97-3.14 1.01-6.47 1.53-9.54 2.95-2.43.36-4.87.66-7.03-.13-.83.43-1.37.71-1.74.9-2 .08-3.83.14-5.99.23l-4.17-.98-1.12-1.26c-.13-1.03.37-1.57 1.28-2.16 2.63-.25 5.49-.57 8.7-.2.57-.16 1.45-.4 2.45-.68.79.22 1.67.47 2.62.74 1.12-.24 2.31-.47 3.49-.76 1.33-.33 2.76-.51 3.94-1.14 1.15-.61 2.38-.53 3.83-1.02 1.09-1.31 2.35-2.83 3.6-4.34.39-1.18.76-2.34 1.19-3.66v-6.88c.25-1.25 1.73-2.48.61-4.17-1.29-.51-2.1.92-3.3.92-1.07 0-2.14.12-3.25.2-.95.44-1.92.89-2.88 1.33-2.85.67-5.85-.04-8.66.94-1.35-.19-2.7-.45-4.06-.55-1.37-.09-2.76-.02-3.73-.02-4.37-1.42-4.37-1.42-5.58-2.71-.04-1.07.57-1.68 1.59-2.16 1.74-.17 3.57.1 5.32.63 3.05.91 6.07.49 9.1.09.9-.12 1.8-.37 2.71-.39 2.32-.04 4.44-1.05 6.76-1.2 1.15-.07 2.26-.81 3.12-1.15.89-1.05.95-2.1.52-2.84-.82-1.43-.5-3.03-.98-4.44-.5-1.46-.82-2.93-1.06-4.44.05-1.37.14-2.75.12-4.12-.01-.39-.35-.77-.52-1.12-2.23.03-2.23.05-3.52.95-.37.26-.76.51-1.07.72-1.28.28-2.48.54-4.07.89-1.34-1.08-3.24-.55-5.04-.8-1.8-.25-3.47-1.03-5.36-1.05-1.96-.02-3.92-.47-5.89-.71-1.81-.22-3.63-.41-5.7-.64-2.14.78-4.54-.03-7.05-.16-1.38 1.06-3.18.6-4.87 1.01-2.04 1.26-4.12 2.54-6.11 3.77-.54.72-.99 1.35-1.47 1.94-.56.69-1.16 1.35-1.6 1.86v1.18c-.86 1.62-.44 3.27-.2 4.41 1.14 3.47 4.14 5.08 5.37 8.31.06 1.19.26 2.72.19 4.23-.05 1.11.38 2.08.53 3.12-.18-.18-.37-.37-.63-.64-1.68 1.32-3.07 2.9-4.34 4.29-.22 1.06-.2 1.77.81 1.98.02 1.04.04 2.08.06 3.03 1.2 1.12 2.33 2.1 3.35 3.18.51.53.83 1.24 1.22 1.88.63 1.06.93 2.2.87 3.44l-.18 4.03c-.39.22-.97.35-1.13.68-.7 1.44-1.99 2.24-3.2 3.12-.72.52-1.51.97-2.2 1.41-.49 1.07-.92 2.02-1.42 3.1.35.61.71 1.25 1.03 1.81.6.14 1.04.25 1.47.36.1 1.2 1.3 1.57 1.84 2.44 1.18 1.9 2.36 3.79 3.39 5.46.17 1.73.31 3.21.46 4.69-.99 1.12-1.69 2.45-2.67 3.6-1.45 1.7-2.56 3.68-3.66 5.3-.37 2.32-.2 4.22 1.05 5.94.41.13.85.26 1.28.4-.26 1.24.87 1.89 1.16 2.71 1.52 1.28 2.92 2.46 4.6 3.88 1.95.44 3.63 2.11 5.7 3.08.68.32 1.33.74 2.03 1 1.72.64 3.46 1.2 5.72 1.98 2.09-.2 4.58.73 7.14 1.12 2.54.39 5.07.87 8.07 1.38.26-.07.99-.26 1.8-.46l2.44.79c4.06.1 7.95-1.54 11.88-.42 1.6-.2 3.01-.74 4.12-1.62.78.04 1.39.07 1.55.08 2.01-.6 3.61-1.08 5.21-1.57.43-.13.91-.22 1.27-.47 1.95-1.3 4.24-1.7 6.37-2.51 2.7-1.03 5.47-1.84 8.06-3.21 1.87-1 4.05-1.4 6-2.27 1.8-.8 3.29-2.21 5.2-2.85.87-.29 1.73-.6 2.6-.87s1.8-.4 2.63-.76c1.8-.8 3.57-1.69 5.33-2.58 2.72-1.38 5.43-2.79 8.58-3.43.49-.38 1.03-.93 1.68-1.28.66-.36 1.42-.52 2.37-.85.35.06.95.16 1.64.28.72-.43 1.5-.89 2.28-1.36 1.36-.19 2.8.22 4.03-.66.12-.09.28-.18.42-.17 4.14.18 8.06-1.76 12.27-1.15 1.95.28 3.98.05 5.9.05 1.43.37 2.76.73 3.8 1.95.09.32.26.75.31 1.19.03.28-.13.59-.24 1.06-2.17.59-4.45-.1-6.69.13-2.44.25-4.9.17-7.35.32-2.29.14-4.58.39-7.04.61-.53.22-1.21.67-1.94.78-2.72.4-5.29 1.38-7.92 2.09-1.17.31-2.3.86-3.37 1.44-1.49.81-3.02 1.49-4.73 1.73-1.84 1.76-4.12 2.64-6.45 3.46-4.04 1.43-8.03 2.98-11.9 4.85-3.3 1.6-6.75 2.9-10.13 4.33-.7.3-1.39.64-2.12.86-.73.22-1.5.31-1.84.38-1.44.76-2.52 1.33-3.59 1.9-1.96-.2-3.49.97-5.17 1.65-.56.23-1.17.36-1.75.54-2.18.69-4.51.52-6.72 1.38-1.95.76-4.19.79-6.3 1.14-.6.1-1.21.22-1.82.27-.61.05-1.24.09-1.84 0-3.19-.49-6.4 0-9.6-.26-1.85-.95-3.9-.57-5.84-.9-1.66-.28-3.38-.32-4.98-.79-2.49-.73-5-1.37-7.51-2-2.54-.64-4.76-2.08-7.12-3.18-1.66-.78-3.24-1.73-5.26-2.81-1.78-1.71-4.04-3.53-6.64-4.88-.09-.45-.09-.95-.3-1.33-.43-.8-.98-1.53-1.63-2.53-.38-1.82-.81-3.91-1.19-5.75.36-1.88.67-3.51 1.01-5.28 1.6-2.41 3.9-4.46 5.6-7.1-1.42-4.29-4.91-6.95-7.67-10.26-.21-.96-.44-2-.65-2.98.27-2.43 1.98-4.13 2.89-6.23.62-.42 1.41-.73 1.82-1.31.54-.75 1.06-1.45 1.85-1.93.64-.39 1.38-.71 1.59-1.84-.56-.97-1.07-2.29-1.96-3.26-1.69-1.84-2.66-4.05-3.79-6.4-.15-.88-.34-1.93-.52-2.99.2-1.2.41-2.39.6-3.55.67-.91 1.27-1.8 1.95-2.62.38-.46.9-.81 1.35-1.21v-1.37c.42-1.02.53-2.05.15-2.97-1.82-2.56-3.56-5.01-5.3-7.46-.05-1.38-.01-2.77-.18-4.14-.26-2.08.19-3.96 1.28-5.8 1.76-1.99 3.57-4.05 5.39-6.1 1.91-.11 3.15-1.73 4.96-2.14 1.63-.37 3.19-1.07 4.87-1.66 3.42-.07 6.94-.14 11.09-.22.71.19 2.04.53 3.27.86.56-.08 1.01-.15 1.53-.23.64.29 1.33.59 2.11.94 1.28 0 2.72-.29 3.98.06 2.37.66 4.98-.25 7.14 1.45.93-.46 1.74-.86 2.92-1.44 1.54-.28 3.49-.59 5.42-1 .73-.15 1.4-.54 2.21-.86.13-1.57-.03-3.18.47-4.56.51-1.4.2-2.71.32-4.05.09-.91.22-1.84.53-2.69.32-.87.55-1.73.66-2.66.26-2.15.8-4.18 2.19-5.97.53-.67.59-1.7.95-2.81.37-.38.81-1.14 1.45-1.43 2.21-.99 4.28-2.37 6.79-2.6 2.47.77 4.25 3 6.96 3.34.58.71 1.16 1.41 1.78 2.17 2.75 1.05 4.9 2.98 6.93 5.1 1.15 1.21 2.44 2.28 4.26 3.95 2.15 2.92 4.79 6.49 7.23 9.8 1.25.69 2.18 1.2 3.18 1.75.63 1.17 1.27 2.36 1.96 3.65 1.14.06 2.2.14 3.25.18 1.22.05 2.52-.18 3.65.15 1.43.42 2.7-.32 4.06-.16 1.21.15 2.45.22 3.67.18 2.75-.09 5.48-.24 8.25.07 1.46.16 3-.42 4.66-.69.95.63 1.96 1.29 2.96 1.95.91.04 1.23-.81 2.05-1.35 1.59-.37 3.44-.18 5.26-.17 2.61.02 5.21.01 7.83-.75.98.25 2 .61 3.04.76.9.13 1.84.01 2.76.02 1.2.02 1.2.03 3.11 1.01.09.48.2 1.06.32 1.68-.51.62-.99 1.2-1.41 1.72-.58.12-1.04.34-1.47.3-1.67-.16-3.38-.24-5-.64-1.84-.46-3.6-.5-5.44-.08-.71.16-1.5-.05-2.51-.11-.62.18-1.49.43-2.4.69-.57-.22-1.14-.43-1.7-.65-1.03.18-2.07.53-3.1.5-.87-.03-1.72-.51-2.66-.81-2.39.88-5.02.8-7.58.86-5.19.13-10.4-.02-15.59.06-2.49.04-4.9-.13-7.12-1.28-3.8-3.13-7.78-6.05-9.87-10.45-2.15-2.26-4.14-4.37-6.16-6.46-1.28-1.32-2.58-2.62-3.91-3.9-1.21-1.16-2.44-2.25-3.96-3.09-1.58-.88-2.88-2.25-4.48-3.55-1.42-.32-3.05-.7-4.37-1-1.31.19-2.06.73-2.57 1.52-.74 1.16-1.47 2.31-2.48 3.13-.53 2.46-1.04 4.84-1.6 7.45.13.19.28.62.43 1.05zM155.31 118.97c-1.7-.62-3.41-1.24-5.73-2.08-.31-.23-1.15-.86-1.92-1.44-.23-.54-.48-.94-.58-1.37-.44-1.94-.54-3.89-.44-5.89.13-2.43-.06-4.85-1.12-7.11-.46-2.32-2.16-4.02-2.91-5.82-1.76-1.48-3.28-2.75-4.95-4.15-.43-.05-1.03-.11-1.75-.19-3.61 2.29-6.1 5.85-9.16 8.43-.62 1.15-1.13 2.08-1.67 3.09-.67.27-1.37.56-2.17.88-1.45 3.61-3.92 6.79-5.26 10.55-1.35 1.14-1.74 2.84-2.56 4.3-2.78 4.94-8.65 11.13-15.14 12.56-.87.19-1.71.64-2.51 1.08a24.289 24.289 0 0 1-5.96 2.36c-.59.15-1.2.26-1.75.51-1.68.77-3.41 1.25-5.21 1.68-1.8.43-3.58.79-5.4.95-2.28.2-4.55.38-6.83.5-.4.02-.82-.31-1.16-.45-.49-1.05-.34-1.87.78-2.7l3-.31c1.16-.51 2.42-1.07 3.9-1.72 3.84.14 7.61-.97 11.4-2.32 3.62-1.29 6.97-3.17 10.61-4.38 1.13-.37 2.17-1.14 3.12-1.9 1.32-1.04 2.51-2.24 3.75-3.37.56-.51 1.19-.97 1.63-1.56.34-.47.37-1.16.67-1.67.71-1.18 1.7-2.23 2.2-3.48.56-1.43 1.85-2.38 2.17-4 .26-1.29 1.13-2.46 1.74-3.67.34-.68.65-1.39 1.1-1.99 1.65-2.19 3.38-4.32 5.01-6.52.65-.87 1.88-.93 2.38-2.08.41-.95 1.2-1.77 1.93-2.55.71-.76 1.59-1.35 2.32-2.09.75-.75 1.41-1.59 2.18-2.48 1.54-.69 3.19-1.42 4.84-2.16 1.17.35 2.33.7 3.54 1.06 3.16 1.87 5.67 4.54 8.21 7.14.04.69.07 1.29.1 1.89 1.7 2.42 2.92 4.99 2.61 8.06-.16 1.57.19 3.05.74 4.5.38 1 .76 2 1.26 3.3.59.47 1.41 1.14 2.1 1.69 1.41.23 2.62.45 3.83.62 1.96.28 3.92-.16 5.88.06 1.99.22 3.96.2 5.92-.37.72-.21 1.51-.24 2.28-.28 1.68-.1 3.37-.23 5.05-.19 1.51.03 3.01.28 4.48.43.44-.24.85-.46 1.55-.83.91 0 2.13.05 3.33-.01 1.05-.06 2.1-.24 3.39-.4.97.18 2.17.5 3.38.6 3.23.27 6.29 1.17 9.36 2.12 1.93.6 3.41 1.98 5.28 2.66.66.24 1.13 1.01 1.65 1.51.54 1.66 1.05 3.26 1.57 4.86-.93 1.88-1.85 3.77-2.65 5.4-1.65 1.72-3.12 3.22-4.53 4.77-.27.3-.32.81-.48 1.25 1.22 2.13 2.91 3.43 5.4 3.52.22.18.42.48.66.53 2.19.45 4.01 1.65 5.89 2.75.05.46-.01.96.16 1.37 1.08 2.53 1.05 5.05.12 7.62-.26.71-.38 1.48-.61 2.42-1.45 1.36-3.03 2.81-4.57 4.3-1.32 1.28-2.64 2.58-2.99 4.58.17.55.34 1.13.56 1.85 1.48.95 2.98 2.02 4.57 2.92 1.62.91 3 2.12 4.37 3.33 1.17 1.03 2.01 2.32 1.94 4.08-.14.36-.32.78-.48 1.2-1.23 3.16-2.6 6.19-5.35 8.42-1.05.85-1.78 2.1-2.13 3.35-.19 1.41.21 2.52.88 3.61.56.9.86 1.99 1.51 2.8.75.94 1.76 1.68 2.69 2.54.39 1.26.79 2.56 1.14 3.71-1.21 4.32-3.37 8.01-5.13 11.84-.99.48-1.96.9-2.89 1.41-.94.52-1.83 1.12-2.61 1.61-9.84 1.79-9.61 1.13-14.53 1.09-2.68 1.24-5.78.82-8.55.9-1.29.38-2.32.68-3.34.98-2.05.6-4.22.75-6.22 1.4a54.691 54.691 0 0 1-11.48 2.38c-3.45 2.25-7.86 3.98-11.14 4.29-1.83.17-3.67.25-5.51.25-1.99 0-3.98-.14-5.97-.22-1.68-1.04-3.6-.49-5.39-.81-.15-.03-.31-.05-.44-.11-2.27-.98-4.71-1.27-7.09-1.78-.59-.13-1.2-.3-1.71-.61-3.53-2.13-7.6-3.19-10.96-5.66-.48-.36-1.09-.66-1.68-.73-1.74-.22-3.04-1.63-4.67-1.83-1.94-.24-3.27-1.65-5.11-2.07-1.34.03-2.73.04-3.87-.91-.73.26-1.44.52-2 .72l-1.77-.67c-4.24-.09-7.92-.16-11.59-.24l.07.03c-.2-.63-.58-.73-1.11-.37-1.61-.18-3.1-.92-4.83-.72-.95.11-1.99-.51-2.96-.79-.5-.86-.94-1.63-1.32-2.29.07-1.31.64-2.13 1.72-2.75 1.53-.18 3.16-.38 4.79-.58 1.73.83 1.73.83 2.99 2.86 3.94.45 8.04.22 12.09.35 1.05.29 2.06.65 3.09.81.89.13 1.82.03 2.7.03.6.54 1.14 1.03 1.7 1.53.43-.16.85-.31 1.31-.48 2.28.6 4.64 1.12 6.92 1.85 1.29.41 2.47 1.15 3.7 1.75 1.09.53 2.15 1.11 3.25 1.62 2.05.96 4.09 1.93 5.78 3.83.74 0 1.62-.04 2.5.01.75.04 1.5.32 2.22-.11.98 1.83 1.1 1.9 3.16 1.7.23.19.43.48.7.56 1.46.45 2.92.87 4.39 1.26 1.18.31 2.37.81 3.55.79 2.11-.04 4.25.52 6.36-.28.84-.32 1.8-.36 2.76-.54.84.09 1.74.19 2.49.27 2.47-.86 4.79-1.63 7.08-2.48.71-.26 1.35-.73 2.1-1.15 3.67-.71 7.2-2.29 11-2.82 1.84-.99 3.86-.84 5.94-.95.62-.3 1.31-.62 1.99-.98 1.12-.58 2.3-.79 3.55-.81 2.91-.04 5.82-.08 8.73-.19 1.06-.04 2.21-.61 3.14-.35 1.45.41 2.67.05 4-.29.72-.19 1.53-.15 2.29-.06.57.07 1.12.39 1.68.61.9-.62 1.73-1.25 2.63-1.8.78-.48 1.62-.85 2.28-1.18.94-1.26 1.76-2.36 2.63-3.53.64-1.95 1.3-3.97 1.9-5.81-.06-1.46-1.35-1.81-1.83-2.76-.55-1.09-1.13-2.17-1.72-3.25-.52-.94-1.08-1.86-1.73-2.99v-4.95c2.09-3.8 4.61-7.44 7.01-10.93.15-1.06-.34-1.64-.85-2.22-.92-1.05-2.04-1.84-3.26-2.52-.93-.52-1.77-1.2-2.66-1.79-2.39-1.59-4.03-3.74-4.88-6.62l1.27-3.64c2.3-2.29 4.79-4.77 7.57-7.53.24-.47.65-1.29 1.01-2.01-.37-1.76-.62-3.44-2.26-4.84-.85-.28-1.99-.72-3.16-1.05-1.65-.47-3.15-1.25-4.5-2.25-2.04-1.52-3.39-3.5-3.64-5.92.63-2.92 2.64-4.64 4.45-6.5.64-.65 1.33-1.26 1.87-1.98.45-.6.71-1.34 1.09-2.08-.13-.75-.27-1.49-.4-2.24-.42-.62-.84-1.24-1.26-1.87-.92-.34-1.8-.61-2.63-.98-.97-.43-1.91-.94-2.67-1.33h-2.01c-.91-.35-1.76-.67-2.4-.91-2.7 0-5.17.15-7.61-.04-2.45-.19-4.83.94-7.27.22-2.99.68-6.03.7-9.07.69-3.33-.01-6.63.61-10 .1-1.92-.29-3.95.13-5.93.23z"/><path class="st0" d="M83.82 212.36c3.67.07 7.35.15 11.59.24l1.77.67c.56-.2 1.26-.46 2-.72 1.14.95 2.53.94 3.87.91 1.84.41 3.18 1.82 5.11 2.07 1.63.2 2.93 1.61 4.67 1.83.58.08 1.19.38 1.68.73 3.35 2.47 7.43 3.54 10.96 5.66.51.31 1.12.48 1.71.61 2.39.51 4.82.8 7.09 1.78.14.06.29.08.44.11 1.79.33 3.71-.23 5.39.81 1.99.08 3.98.22 5.97.22 1.84 0 3.68-.08 5.51-.25 3.28-.31 7.69-2.05 11.14-4.29 3.81-.37 7.68-1.15 11.48-2.38 2-.65 4.17-.8 6.22-1.4 1.02-.3 2.05-.6 3.34-.98 2.77-.07 5.87.34 8.55-.9 4.92.04 4.69.7 14.53-1.09.78-.49 1.67-1.09 2.61-1.61.93-.51 1.91-.93 2.89-1.41 1.76-3.83 3.92-7.52 5.13-11.84-.35-1.15-.76-2.45-1.14-3.71-.93-.86-1.94-1.6-2.69-2.54-.65-.82-.95-1.9-1.51-2.8-.67-1.08-1.07-2.2-.88-3.61.35-1.25 1.08-2.49 2.13-3.35 2.74-2.24 4.12-5.27 5.35-8.42.17-.42.34-.85.48-1.2.06-1.77-.77-3.05-1.94-4.08-1.37-1.21-2.75-2.42-4.37-3.33-1.6-.9-3.1-1.97-4.57-2.92-.22-.71-.39-1.3-.56-1.85.34-2 1.67-3.3 2.99-4.58 1.54-1.49 3.12-2.94 4.57-4.3.23-.94.35-1.7.61-2.42.94-2.56.96-5.08-.12-7.62-.17-.4-.11-.91-.16-1.37.44.12.94.15 1.31.39 1.02.66 1.99 1.41 2.89 2.07.42.81.77 1.48 1.21 2.34.04.89.1 1.96.16 3.11-.33.94-.69 1.95-1.14 3.24-2.13 2.28-3.87 5.15-5.23 8.53v2.94c1.51 2.61 3.9 4.35 5.98 6.51.64 1.26 1.34 2.62 2.07 4.06v4.93c-.31.93-.74 2.24-1.22 3.71-1.17 1.23-2.43 2.57-3.9 4.12-.32 1.21-.7 2.67-1 3.79.42 2.64 2.55 3.86 3.44 6.58.05.53.16 1.74.26 2.96.04.45-.11.97.06 1.36.95 2.22.67 4.51.55 6.61-.44 2.24-2.29 3.46-2.8 4.98-1.32 1.17-2.39 2.03-3.35 3.01-1.1 1.13-2.37 1.9-3.89 2.32-.72.2-1.41.52-2.11.8-2.86 1.13-5.83 1.72-8.88 2.11-1.96.25-4.01-.49-5.88.59-1.83-.19-3.62.23-5.43.35-1.99.14-3.99.03-5.97.21-1.35.12-2.71.45-4.01.83-2.18.64-4.52.77-6.49 2.05-.25.17-.54.36-.83.39-2.92.35-5.28 2.47-8.35 2.6-.51-.08-1.11-.17-1.71-.27-.29.08-.6.13-.87.25-2.21 1.05-4.41 2.14-6.63 3.18-1.99.94-3.93 1.47-6.16.38-1.37-.67-3.01-.32-4.49.26-.9-.17-1.8-.48-2.7-.48-2.05-.01-3.96-.66-5.73-1.48-2.52-1.17-5.15-1.9-7.28-2.49-2.59-1.46-4.74-2.63-6.85-3.86-1.33-.78-2.64-1.58-4.26-1.49-2.28-.89-4.55-1.77-6.75-2.63-2.02-.33-3.95-.72-5.91-.94-1.98-.22-3.97-.28-6.03-.41-1.43-.74-2.92-1.52-4.35-2.26-1.45-.11-2.82-.21-4.2-.32-2.16-1.56-4.01-3.34-5.37-5.6z"/><path class="st2" d="M249.97 75.04c-.46.96-.91 1.93-1.44 3.04-1.6.65-2.63 2.21-3.93 3.4-.59-.47-.94-.74-1.24-.98-.42-1.48-.01-2.81.23-4.18 1.45-1.29 3.22-2.29 3.94-4.31.24-.66.98-1.14 1.47-1.71.59-.7 1.26-1.36 1.72-2.13 1.26-2.1 2.88-3.9 4.56-5.68l.19-1.2c.89-1.19 1.66-2.3 2.52-3.35.77-.95 1.74-1.76 2.42-2.77.94-1.38 1.69-2.89 2.61-4.52.59-.13 1.32-.29 1.88-.41 1.1.4 1.77.97 2.04 1.8 0 .42.08.75-.02 1.01-.26.71-.43 1.58-.94 2.07-3.19 3.13-5.1 7.25-8.19 10.45-.85 2.76-3.46 4.21-4.88 6.57-.68 1.13-1.93 1.93-2.94 2.9zM252.92 234.67h1.29c1.03.31 1 1.46 1.64 2.09.65.65 1.25 1.34 1.92 2.06.16 2.06 1.5 3.61 2.61 5.21 1.32 1.89 2.5 3.84 3.54 6.16 1.95 2.25 4.29 4.53 4.78 7.83 2.19 2.32 5.36 3.73 5.99 7.38-.7.81-1.39 1.6-2.06 2.38h-1.33c-1.9-2.34-3.73-4.59-5.77-7.11-.06-.22-.09-.9-.41-1.38-1.18-1.77-2.45-3.48-3.95-5.59v-2.92c-.29.12-.57.28-.86.33-.29.05-.6-.03-1.1-.06-.27-.6-.66-1.25-.85-1.97-.53-1.95-1.51-3.69-2.77-5.2-1.45-1.73-2.2-3.62-2.29-5.73-.49-.7-.92-1.33-1.26-1.81-.17-.89.31-1.25.88-1.67zM228.59 252.93c-.34.89-.66 1.74-.99 2.6.23 1.07.45 2.1.66 3.13-.28.76-.54 1.47-.8 2.19-.1 1.67 1.11 2.77 1.87 4.23.08 2.28-.92 4.29-2.13 6.13-1.37 1-2.62.94-3.82 0-.13-.32-.33-.59-.34-.87-.05-2.9.07-5.78.61-8.66.33-1.77.21-3.64.3-5.46.05-.91.14-1.82.2-2.66.43-.37.77-.67 1.16-1-.34-.19-.69-.39-1.08-.62-.7-1.48.18-2.92.24-4.4-.13-.59-.26-1.19-.33-1.54.25-1.58.52-2.93.65-4.28.12-1.2.08-2.42.11-3.41.56-1 1.33-1.07 2.09-1.18.86.49 1.29 1.28 1.43 2.22.11.75.16 1.52.14 2.29-.05 1.52-.34 3.06-.19 4.56.15 1.54.15 3-.14 4.52-.12.7.23 1.49.36 2.21zM184.79 69c-.69-1.53-1.38-3.04-2.16-4.77l-.34-2.55c.35-.21.7-.5 1.1-.66.79-.32 1.47.02 2.11.47 2.42 3.68 4.83 7.36 7.25 11.04 1.18 3.18 3.42 5.72 5.22 8.53.08.13.19.24.33.41.6.34 1.26.71 2.04 1.14.84 1.47 2.09 2.92 1.25 4.91-1.52.86-1.52.86-3.83.09-.29-.64-.6-1.31-.95-2.07-.51-.22-1.05-.46-1.66-.73-1.24-2.14-2.15-4.59-4.05-6.07-.59-1.52-1.08-2.79-1.62-4.16-2.57-.75-2.55-3.81-4.69-5.58zM201.22 233.64c1.09-.02 1.79.2 2.25.97.57 1.29-.14 2.32-.89 3.52-.37.22-.88.52-1.5.9-.11.48-.24 1.06-.45 1.96-2.01 2.47-4.16 5.22-6.44 7.86-1.51 1.75-2.86 3.53-3.47 5.82-.23.85-.84 1.6-1.31 2.45-1.08.55-2.15 1.09-3.26 1.65-.76-.03-1.52-.07-2.35-.11-.35-.5-.69-.99-1.02-1.46l.64-2.59c.61-.93 1.43-1.3 2.46-1.86.52-1 1.14-2.2 1.98-3.82.84-.66 2.26-1.42 3.16-2.58.86-1.12 1.77-2.05 2.9-2.67.69-1.32 1.3-2.54 1.95-3.74.29-.53.53-1.17.98-1.52 1.68-1.32 2.67-3.23 4.37-4.78zM224.32 48.91l.9-.84c.36.02.67.03.97.05.76.59 1.24 1.35 1.35 2.31.05.46.14.93.07 1.37-.32 2.13-.01 4.23.14 6.35.15 1.98.15 3.97.18 5.96.02 1.52.02 3.05-.04 4.57-.09 2.28-.23 4.57-.36 7.05-.36.28-.82.64-1.16.9-1.39.12-2.25-.4-2.88-1.48-.42-1.08.65-2.34-.31-3.54 1-3.06 1.05-6.21.29-9.43-.3-1.3-.14-2.73-.04-4.09.24-2.89.56-5.78.89-9.18z"/><path class="st0" d="M209.09 139.77c-2.49-.1-4.19-1.39-5.4-3.52.16-.45.21-.95.48-1.25 1.41-1.55 2.88-3.05 4.53-4.77.8-1.63 1.73-3.52 2.65-5.4 2.15.99 2.15.99 3.36 3.29-.05.29-.02.64-.16.88-1.7 2.85-3.43 5.69-5.22 8.65-.07.63-.15 1.37-.24 2.12z"/><path class="st1" d="M230.54 123.83c1.74 2.45 3.48 4.9 5.3 7.46.38.92.27 1.95-.15 2.97-.29-.07-.59-.14-.9-.22-1.01-.5-1.35-1.6-2.06-2.37-.61-.66-1.33-1.22-2.03-1.86-.33-1.27-.68-2.59-1.09-4.14.25-.5.59-1.17.93-1.84z"/><path class="st0" d="M82.77 212.02c.53-.36.91-.26 1.11.37-.5.28-.85.09-1.11-.37z"/></svg>