<svg version="1.1" id="Layer_1" xmlns="http://www.w3.org/2000/svg" x="0" y="0" viewBox="0 0 458 320" style="enable-background:new 0 0 458 320" xml:space="preserve"><style>.st0{fill:#6b59e9}.st1{fill:#131112}.st2{fill:#ff5543}</style><path class="st0" d="M129.35 246.6c-3.5.33-6.9 1.22-10.35 1.82-1.88.32-3.63.23-5.37-.33-.63.15-1.22.29-1.68.39-2.2-.49-4.26-1.19-6.36-1.34-2.03-.14-3.78-1.24-5.79-1.3-.42-.01-.92-.26-1.22-.56-1.34-1.33-3.48-1.23-4.71-2.71-1.13-.39-2.25-.61-3-1.83-.52-.85-1.72-1.24-2.5-1.96-1.01-.93-1.86-2.01-1.86-3.47-.83-.15-1.41-.26-2.19-.4-1.77-1.21-3.55-2.62-4.4-4.81-.96-.64-1.84-1.23-2.53-1.69-.82-1.9-1.54-3.58-2.35-5.46.11-.55.26-1.29.41-2.01-.02-.73-.74-.91-1.06-1.37-.35-1.34-.69-2.65-1.04-3.97-.51-2.51.27-5.19-1.1-7.64.29-.75.56-1.46.83-2.17.41-.82 1.79-.73 1.72-2.44-.14-.88-1.89-.87-2.31-2.06-.38-.92-.21-1.83-.08-2.81.33-.41.69-.87 1.06-1.34-1.02-3.4-.13-6.65.86-9.87.11-.37.62-.62 1.09-1.06.19-1.35.39-2.85.6-4.33.52-.8 1.03-1.57 1.53-2.34.99-1.54 1.99-3.07 2.61-4.82.83-2.35 2.18-4.38 4.39-5.94.56-.22 1.27-.5 1.94-.77 2.18-3.1 3.12-3.81 8.25-6.34 2.89-2.58 5.53-4.09 9.2-5.88 2.77-1.35 5.71-2.11 8.6-3.08.56-.19 1.21-.22 1.79-.13.64.09 1.18-.06 1.77-.25 3.96-1.28 7.99-1.85 12.17-1.42 1.82.19 3.67.03 5.46.03 3.37 1.44 6.8 2.1 10.37 2.02-.07.44.02 1.07-.24 1.28-1.43 1.18-1.95 2.99-3.07 4.39-1.19 1.49-1.81 3.44-2.66 5.16-1 .76-1.74 1.69-2.37 2.75-.85 1.43-1.78 2.81-3.21 3.74-1.06-.06-2.2.11-3.17-.22-1.34-.46-2.66-.63-4.05-.6-2.45.04-4.9.01-7.08.01-1.87.64-3.46 1.18-5.18 1.78-1.77 1.92-4.16 2.83-6.54 3.05-3.65 2.31-6.34 5.28-9.13 7.68-1.05 1.67-1.94 3.1-2.51 4.01-.92 2.57-1.64 4.57-2.44 6.8.11 1.29.44 2.81.3 4.29-.12 1.24-.08 2.39.08 3.62.15 1.17-.2 2.39-.27 3.6-.03.45.01.94.16 1.36.91 2.45.82 5.13 1.91 7.83.47.63 1.1 1.49 1.75 2.34 1.61 2.09 3.5 3.83 5.88 5.05 1.21.62 2.23 1.58 3.44 2.46 1.17.46 2.5.86 3.72 1.48 3.06 1.54 6.44 1.96 9.71 2.57 3.52.66 6.91-.45 10.15-1.88.6.04 1.2.08 1.92.12 1.7-2.14 3.71-4 5.88-5.68 1.58-1.22 2.95-2.65 4.15-4.27.9-1.23 1.9-2.42 2.98-3.5 1.59-1.59 2.57-3.4 2.74-5.65.03-.43.33-.84.49-1.23.66-.46 1.27-.9 1.82-1.29.42-.89.81-1.71 1.14-2.39.07-3.8.14-7.46.21-10.91-.24-.5-.39-.77-.5-1.06-.81-1.97-1.46-4.03-2.47-5.9-1.08-2-2.49-3.83-3.76-5.73-2.2-1.61-3.76-4.02-6.36-5.14-.04-.79.23-1.44.69-2.1 2.94-4.22 6.02-8.36 8.46-13.06.69-.44 1.45-.93 2.21-1.41 1.43.09 2.68.77 3.7 1.61 1.99 1.65 4.25 2.91 6.27 4.5 1.17.92 2.5 1.76 2.93 3.35-1.43.2-2.71.61-3.13 2.37.11.48.24 1.07.33 1.44.85 1.34 2.41 1.82 2.66 3.42-.27.78-.56 1.63-.86 2.49.53 1 1.02 1.95 1.51 2.86.25 2.46.32 4.93.79 7.31.6 3.03.44 6.07.54 9.11.07 2.2-.87 4.16-1.05 6.29-.16 1.82-.42 3.69-1.06 5.38-1.29 3.42-2.43 6.9-3.73 10.31-.61 1.6-1.69 2.87-2.44 4.35-2.28 4.49-3.52 6.25-7.13 9.94-.74.75-1.26 1.71-1.74 2.38-.94.65-1.74 1.11-2.42 1.71-2.31 2.01-4.86 3.67-7.51 5.19-.39.23-.76.59-1.18.67-2.62.51-4.18 2.39-5.77 4.17-.11.54-.18.99-.24 1.44z"/><path class="st1" d="M132.54 170.3c1.44-.93 2.37-2.31 3.21-3.74.62-1.05 1.36-1.99 2.37-2.75.86-1.73 1.48-3.67 2.66-5.16 1.12-1.41 1.64-3.21 3.07-4.39.26-.21.17-.84.24-1.28.4-.23.79-.46 1.31-.77.97-1.94 2.22-3.88 2.83-6.37 3.14-3.08 4.81-7.59 8.03-10.18 1.04-1.78 1.61-3.27 2.62-4.37 1.55-1.69 2.06-4.14 3.95-5.42 1-.02 1.6.4 2.1 1.14.23 1.17-.34 2.3-.54 3.54-.85 1.21-1.73 2.46-2.57 3.66-.16.66-.3 1.25-.44 1.79-.21.29-.36.56-.57.78-1.22 1.37-2.5 2.63-3.36 4.33-.59 1.16-1.87 1.97-2.76 3.01-.2.23-.03.78-.03 1.16.4.09.71.26.97.2 1.63-.44 3.33-.51 4.95-.89 1.64-.39 3.31-.58 4.93-.96 3.27-.76 6.61-1.1 9.84-2.17 3.31-1.09 6.83-1.56 10.28-2.2 3.75-.69 7.52-1.25 11.28-1.9.59-.1 1.15-.4 1.74-.53 2.37-.55 4.64-1.45 7.15-1.57 1.63-.07 3.34-.34 4.88-1.16.66-.35 1.45-.54 2.2-.63 1.86-.21 3.57-.84 5.1-1.63 3.43.09 6.31-1.69 9.45-2.02.61-1.15.66-2.47 1.73-3.27.23-.17.44-.49.48-.76.33-2.54 2.02-4.42 3.26-6.86-.17-2.84 2.13-5.33 2.26-8.4-.25-.09-.54-.32-.75-.26-2.35.67-4.67 1.49-7.17 1.37-1.88.87-3.86.82-5.87.79-.59-.01-1.22.18-1.76.42-1.39.61-2.7.28-4.02-.19-.15-1.19-.29-2.38-.42-3.43 1.55-2.67 4.57-2.72 6.39-4.47h2.73c1.08-.56 1.74-1.43 2.87-1.71 1.17-.29 2.3-.86 3.33-1.5 2.73-1.69 5.52-3.23 8.43-4.59 1.21-.57 2.62-.95 3.5-2.16.25-.35.7-.72 1.1-.78 1.64-.22 2.7-1.43 3.96-2.26.89-.59 1.7-1.25 2.7-1.71 1.08-.49 2.01-1.31 2.74-1.81h1.74c1.01 1.17 1.9 2.35 2.01 4.01.05.72.52 1.42.7 1.87v6.49c-1.13 1.78-2.59 2.88-4.04 3.9-1.91.75-3.7 1.73-5.61 2.13-1.79.38-3.56.75-5.02 1.18-2.03 1.29-2.95 3.03-3.66 4.92-.85 2.28-1.69 4.57-2.69 7.27-.03.3-.12 1.06-.19 1.67-1.09 2.33-2.58 4.33-3.04 6.78l.03-.05c-.44.18-.65.55-.33.88.38.38.65-.03.84-.36.35.05.56-.08.65-.41.42-.17.84-.48 1.26-.49 2.32-.05 4.52-.68 6.67-1.44 2.74-.97 5.67-1.12 8.39-2.11 2.79.28 5.39-.85 8.14-1.06 2.23-.17 4.49-.54 6.72-.89 2.11-.33 4.14-1.01 6.21-1.54 1.89-.49 3.8-.89 5.89-1.61.98-1.82 2.61-3.5 3.01-5.84 1.77-2.66 2.98-5.66 5.04-8.15.56-.68 1.06-1.44 1.28-2.17-.69-1.16-1.65-.99-2.77-1.08-.8.29-1.8.65-3.02 1.09-4.19-.02-8.61.48-13.02-.22-.35-.36-.65-.69-.96-1.02.44-1.01 1.11-1.83 2.13-2.29 1.1-.5 2.23-.95 3.34-1.43.97-.42 2.05-.7 2.89-1.3 1.41-1 2.99-1.57 4.59-1.97 2.39-.6 4.5-1.74 6.27-2.71 1.73-.27 3.17-.24 4.41-.72 3.95-1.54 8.09-2.58 11.94-4.4 2.22-1.05 4.55-1.71 7.04-1.62.31.53.61 1.05 1.04 1.78.08 5.35-2.13 9.58-6.88 12.48-1.89.08-3.15 1.78-5 2.01-1.82.22-3.65.39-5.58.6-.15.1-.5.2-.64.43-1.17 1.97-2.33 3.93-3.94 5.6-.63.65-1.18 1.46-1.48 2.31-.38 1.05-1.03 1.86-1.72 2.68-.39.46-.84 1-.94 1.56-.51 2.76-2.17 5.04-3.17 7.54 1.65 1.92 3.3 3.71 4.2 6.03.62.48 1.23.95 1.83 1.41 1.6 3.4 3.81 6.43 5.92 9.52.68.99 1.18 2.14 2.02 2.96.97.94 1.35 2.35 2.57 3.06.04.3 0 .66.15.9 2.08 3.38 4.09 6.8 7.07 9.52.67.61 1.33 1.3 1.78 2.09.92 1.62 1.99 3.09 3.42 4.29.86.72 1.25 1.72 1.73 2.68.13.26.15.58.23.87-.25.71-.44 1.46-1.22 1.82-3.14-.07-5.78 1.67-8.58 2.39-.58-.08-1.03-.15-1.31-.19-2.8.81-5.41 1.83-8.11 2.26-2.75.44-5.34 1.25-7.94 2.11-.45-.03-.93-.19-1.33-.08-1.87.53-3.74 1.09-5.58 1.72-1.73.59-3.49.9-5.3.97-1.05.04-2.09.09-2.94.13-.85.46-1.54.78-1.77 1.59-.72-.19-1.45-.55-2.17-.53-1.04.03-2.07.34-3.22.55-.3-.15-.7-.35-1.06-.54-1.94.77-3.9 1.54-6.05 2.39-3.47-.04-7.01.68-10.48 1.79-.42.14-.9.11-1.35.16-1.08-.19-2.17-.15-3.13.36-1.19.63-2.4.06-3.32.19-1.25.47-2.23 1.11-3.24 1.16-3.07.16-5.96 1.17-8.91 1.61-2.14-.97-4.16-2.03-6.29-2.81-2.33-.85-3.95-2.81-6.23-3.69-.14-.05-.3-.05-.45-.07-.78-.46-1.51-1.11-2.35-1.35-4.28-1.2-8.07-3.55-12.21-5.07-2.03-1.39-4.46-1.85-6.62-2.95-.15-.25-.31-.5-.46-.76-.13-.09-.24-.2-.38-.26-1.83-.74-3.66-1.49-5.5-2.19-.41-.15-.93-.04-1.3-.24-.5-.28-.89-.74-1.38-1.18-1.12-.22-2.3-.45-3.53-.68-.28-.33-.56-.66-1.03-1.21-.96-.19-2.14-.42-3.6-.7-.11-.12-.37-.46-.69-.75-.8-.73-1.74-1.22-2.81-1.45-1.03-.22-2.07-.44-2.94-.62-.31-.59-.52-.98-.7-1.33-4.14-1.04-11.38-4.08-15.51-6.52-.27.09-.65.11-.78.29-.86 1.24-1.89 2.43-1.73 4.1-.76.49-1.52.97-2.21 1.41-2.44 4.7-5.51 8.84-8.46 13.06-.46.66-.73 1.31-.69 2.1-1.55 1.07-2.52 2.62-3.54 4.14-2.64 3.92-5.22 7.89-7.96 11.73-2.83 3.96-5.68 7.91-8.24 12.05-.16.26-.35.5-.54.74-.5.61-1.11 1.03-1.95 1.12-1.18-.03-1.93-.7-2.49-1.96.13-.4.17-1.11.54-1.49.64-.67 1.26-1.26 1.44-2.24.07-.41.41-.8.69-1.15.93-1.21 1.92-2.37 2.8-3.61.98-1.36 2.12-2.67 2.73-4.19.58-1.46 1.94-2.25 2.48-3.76.6-1.69 1.81-3.17 3.34-4.27.4-2.05 2.06-3.36 2.98-5.1.13-.25.48-.37.69-.59 1.03-1.12 1.77-2.44 2.06-3.98zm161.76-20.67c-.07-.43-.02-.95-.24-1.29-.48-.75-1.15-1.38-1.65-2.12-.84-1.25-1.43-2.7-2.44-3.78-1.49-1.58-2.46-3.37-3.33-5.32-.73-1.64-1.78-3.15-3.42-4.1.04-1.11-1.24-1.35-1.49-2.14-.74-2.28-2.63-3.72-3.66-5.61-.99-.44-1.83-.81-2.66-1.18-.8.21-1.55.37-2.28.59-1.76.53-3.53 1.04-5.26 1.65-2.23.79-4.48.65-7.04.36-2.93 1.04-6.29 1.4-9.53 2.33-3.36.96-6.83 1.54-10.22 2.46-3.18.86-6.55 1.07-9.85 2.16-1.09 3 .03 6.36-1.1 9.33.15.81.59 1.66.38 2.3-.76 2.41 0 4.85-.34 7.22-.27 1.84-.27 3.66-.27 5.5-.01 3.06-.06 6.13-.15 9.19-.03.91-.26 1.82-.37 2.73-.09.75-.13 1.51-.19 2.27-.61 1.76.05 3.57-.2 5.35-.03.22.25.49.39.73.85.43 1.75.23 2.63.21 1.05-.03 2.1-.12 3.11-.19 1.8-.84 3.53-1.79 5.56-1.77 1.48-.15 2.94-.59 4.32-.23.51-.33.86-.65 1.28-.8a7.55 7.55 0 0 1 1.75-.41c2.72-.3 5.39-.86 8.02-1.6 1.16-.33 2.25-.87 3.42-1.14 1.32-.31 2.69-.41 4.04-.63.59-.09 1.17-.23 1.45-.29l1.65-1.29c.64.4 1.23.91 2.15.8.55-.37 1.17-.78 1.65-1.1 1.79-.27 3.48-.36 5.06-.81 1.63-.47 3.34-.36 4.9-.83 1.79-.54 3.59-.43 5.37-.71 1.32-.32 2.69-.52 3.96-.99 1.63-.6 3.26-.69 4.92-.53.71-.33 1.4-.64 2.1-.97 1.98-.1 3.95-.16 5.92-.32.74-.06 1.48-.34 2.18-.6.2-.08.27-.47.46-.83-1.91-2.28-3.85-4.61-5.84-6.98-.11-.37-.15-.86-.39-1.23-.32-.49-.78-.89-1.19-1.32-1.23-1.29-2.01-3.02-3.56-4.07zm-69.92 22.15c.25-.87.66-1.74.72-2.62.13-1.68.19-3.38.05-5.06-.12-1.44.58-2.66.76-3.97-.72-1.64-.99-3.3-.48-4.97.23-.76.06-1.44.05-2.17-.03-1.98-.09-4.02.36-5.92.4-1.68.36-3.34.34-4.98-.03-1.99.05-3.97.24-5.94.05-.56-.27-.82-.53-1.11-.94-.06-1.85-.11-2.83-.17-1.82.52-3.5 1.83-5.62 1.59-2.25.92-4.84.82-6.64 2.21-2.1.19-3.93.35-5.45.49-3.85 1.64-7.52 2.66-11.26 2.68-.69.35-1.24.62-1.55.78-3.43.44-6.6.85-9.65 1.24-1.09.46-2.08.86-2.93 1.22-.92-.09-1.68-.17-2.52-.25-1.9.76-3.67 2.15-5.94 2.06-.6-.09-1.2-.18-1.68-.26-2.43.86-4.72 1.6-7.2 1.77-1.79.12-3.55.64-5.33.98.1.38.08.83.25.92 2.69 1.43 5.33 3.02 8.14 4.17 3.54 1.44 7.23 2.5 11.05 3.79.16.14.49.45.85.77 1.85.62 3.73 1.24 5.6 1.88 2.01.68 3.85 1.77 5.74 2.69 3.58 1.73 7.15 3.49 10.76 5.18 1.37.64 2.66 1.49 4.27 2.4 1.51.1 3.23.78 4.88 1.56 2.35 1.1 4.63 2.35 6.94 3.53 1.53.94 3.06 1.89 4.6 2.8.77.45 1.57.87 2.39 1.23.59.25 1.17.08 1.76-.39.12-.32.42-.75.4-1.15-.1-1.93-.16-3.86.04-5.8.05-.38-.37-.79-.58-1.18z"/><path class="st0" d="M297.96 145.53c-1.22-.7-1.59-2.12-2.57-3.06-.84-.81-1.35-1.97-2.02-2.96-2.11-3.09-4.32-6.12-5.92-9.52 2.33-1.92 5.08-2.75 8.01-3.01 2.12-.19 4.23-.53 6.39-.42 1.49.07 2.94-.6 4.49-.55 1.38.04 2.72.04 4.06.52 2.3.82 4.79.84 7.1 1.65-.03.61-.06 1.21-.1 1.94.56.48 1.05 1.1 1.7 1.44 1.63.85 3.19 1.71 4.58 2.98 1.68 1.53 3.62 2.76 5.26 3.98.78 1.23 1.44 2.26 2.1 3.29.32.51.87 1 .93 1.54.21 2.12 1.69 3.54 2.49 4.86 1.09 3.43 1.92 6.54 3.08 9.51.69 1.75 1.21 3.51 1.12 5.33-.08 1.61.61 2.97.81 3.81 0 2.78-.02 4.93 0 7.07.02 2.17-1.03 4.13-1.04 6.15-1.81 2.21-2.59 4.67-2.89 6.89-1.13 1.57-2.26 2.71-2.87 4.08-1.4 3.1-3.49 5.71-5.37 8.45-1.1.88-2.3 1.62-3.2 2.63-1.57 1.77-3.5 3.1-5.61 3.85-2.18.77-4.1 2.03-6.42 2.83-.6.7-1.31 1.5-1.97 2.33-.18.23-.24.56-.36.84-1.02.27-2.04.53-3.3.86-.49-.28-1.13-.65-1.89-1.09-.48.15-1.05.32-1.75.54-3.24-.35-6.33-1.52-9.3-3.14-1.46-.8-3.07-1.33-4.8-2.06-1.74-1.87-3.95-3.47-6.19-5.02-1.78-1.24-3.31-2.69-4.34-4.72-1.48-.92-3.13-1.81-3.35-3.94-.04-.42-.35-.83-.61-1.2-1.05-1.5-2.02-3.02-2.35-4.89-.1-.58-.41-1.2-.81-1.63-1.64-1.75-1.72-4.17-2.74-6.19-.12-.25-.03-.6-.04-.9.23-.81.92-1.13 1.77-1.59.85-.04 1.89-.09 2.94-.13 1.82-.06 3.58-.38 5.3-.97 1.84-.63 3.71-1.19 5.58-1.72.4-.11.89.05 1.33.08-.02.79.41 1.45.63 2.16.27.86.28 1.8.39 2.57 2.03 3 4 5.9 6.09 9 .82.74 2 1.53 2.82 2.59.79 1.01 1.75 1.71 2.8 2.33 1.32.77 2.69 1.45 3.94 2.12h6.57c.81.36 1.64.73 2.32 1.04 3.41-.19 3.85-.32 7.99-2.28 2.85-2.42 4.73-5.6 6.82-8.6.5-.73.7-1.67 1.02-2.52.27-.71.47-1.45.78-2.14.89-1.95 1.82-3.88 2.41-5.14.45-2.37.82-4.02 1.07-5.68.38-2.6.42-5.19-.8-7.64-.82-1.65-1.44-3.36-1.67-5.21-.07-.59-.37-1.15-.59-1.72-.55-1.42-1.12-2.83-1.8-4.56-1.9-1.79-4.02-3.78-5.89-5.55-2.58-1.43-4.92-2.54-7.49-3.18h-6.41c-2.03.69-4.05 1.39-6.01 2.06-.6.8-1.21 1.49-2.22 1.61z"/><path class="st1" d="M309.73 211.98c.12-.28.18-.61.36-.84.66-.83 1.37-1.63 1.97-2.33 2.31-.8 4.24-2.06 6.42-2.83 2.11-.75 4.04-2.09 5.61-3.85.9-1.01 2.11-1.75 3.2-2.63 1.87-2.73 3.97-5.35 5.37-8.45.61-1.37 1.74-2.5 2.87-4.08.29-2.22 1.08-4.68 2.89-6.89.01-2.02 1.06-3.98 1.04-6.15-.02-2.14 0-4.29 0-7.07-.19-.84-.89-2.19-.81-3.81.09-1.82-.43-3.57-1.12-5.33-1.17-2.97-1.99-6.08-3.08-9.51-.8-1.33-2.28-2.74-2.49-4.86-.05-.54-.6-1.03-.93-1.54-.66-1.03-1.31-2.06-2.1-3.29-1.64-1.22-3.58-2.46-5.26-3.98-1.39-1.27-2.95-2.13-4.58-2.98-.64-.33-1.14-.95-1.7-1.44.04-.73.07-1.34.1-1.94.71-.3 1.41-.59 2.28-.95.62.23 1.33.47 2.03.75.85.33 1.66.88 2.54 1 2.63.36 4.87 1.76 7.18 2.37 3.43 2.91 6.97 5.39 9.1 9.34.55.43 1.15.9 1.77 1.39.13.41.27.85.43 1.36.49.21 1.04.45 1.63.7.4.61.75 1.3 1.24 1.87 2.76 3.16 4.55 6.84 5.92 10.76.4 1.15 1.06 2.2 1.66 3.42.02 1.44.03 2.97.06 4.5.01.61-.12 1.32.14 1.82 1.11 2.18.73 4.49.8 6.77.04 1.53.02 3.03-.72 4.47-.33.64-.23 1.49-.31 2.09-.84 1.29-1.58 2.45-2.39 3.7.1.87.2 1.77.31 2.66-1.15 3.09-2.91 5.93-3.74 9.33 1.53-.2 2.91-.64 4.22-.49 1.43.16 2.72-.03 4.04-.4 2.66.7 5.43-.35 8.12.6 1.11.39 2.43.15 3.66.22.91.06 1.87.02 2.73.29 2.1.65 4.24.56 6.48.62 1.24.37 2.54.84 3.88 1.14 1.91.43 3.36 1.43 4.37 3.09.31.51.61 1.04.83 1.41-.07 1.6-.94 2.49-2.08 3.02-1.81.82-3.69 1.47-5.4 2.14h-2.62c-1.07.53-2.31 1.13-3.47 1.7-4.6.64-9.14 1.13-13.63 1.97-1.94.36-3.94.36-5.92.49-.45.03-.96-.24-1.36-.11-3.11.99-6.31.92-9.51.83-.45-.01-.97-.03-1.36.17-1.98 1-4.24.3-6.27 1.13-.59.24-1.46-.21-2.46-.4-.96.24-2.14.53-3.34.83-5.64-.14-11.3.28-17.12-.2-.46-.49-.97-1.05-1.48-1.6zM129.35 246.6c.06-.45.13-.9.21-1.45 1.59-1.78 3.16-3.66 5.77-4.17.42-.08.78-.44 1.18-.67 2.65-1.52 5.2-3.18 7.51-5.19.68-.59 1.48-1.05 2.42-1.71.48-.66 1-1.62 1.74-2.38 3.6-3.69 4.85-5.45 7.13-9.94.75-1.48 1.83-2.74 2.44-4.35 1.3-3.42 2.44-6.89 3.73-10.31.64-1.69.9-3.57 1.06-5.38.19-2.13 1.12-4.09 1.05-6.29-.1-3.04.06-6.07-.54-9.11-.47-2.38-.54-4.85-.79-7.31-.48-.92-.98-1.86-1.51-2.86.3-.86.59-1.71.86-2.49-.25-1.6-1.81-2.08-2.66-3.42-.08-.37-.22-.96-.33-1.44.43-1.76 1.71-2.17 3.13-2.37l5.14 5.86c.14.67.14 1.32.4 1.84 1.75 3.63 2.09 7.64 3.08 11.46.49 1.89.43 3.94.51 5.92.09 2.29-.13 4.6.53 6.85.08.28.15.64.06.9-.75 2.09-.24 4.25-.41 6.37-.12 1.5 0 3.08-.78 4.5-.2.37-.22.9-.16 1.33.29 2.25-.67 4.23-1.43 6.2-1.09 2.82-2.46 5.54-3.76 8.43 2-.21 3.92-.3 5.89 0 1.62.25 3.37.3 4.99-.35 3.02.36 6.13.25 9.09 1.6.27.22.65.49.98.81.77.75 1.51 1.52 2.07 2.09.51 1.01.4 1.74.01 2.45-4.5 3.63-4.96 3.87-9.29 4.83-1.92 1.96-4.9 2.23-6.7 3.9-3.32.8-6.37 1.15-9.2 2.38-.56.24-1.16.45-1.76.51-3.65.33-7.12 1.75-10.82 1.8-.59.01-1.17.33-1.77.46-.75.16-1.53.45-2.26.37-1.69-.18-3.26.08-4.91.5-1.61.41-3.35.22-5.03.41-1.66.18-3.3.5-5.04.77-.62-.46-1.22-.91-1.83-1.35z"/><path class="st0" d="M142.12 103.33c4.38.49 8.38.34 12.32.79 3.78.43 7.6.46 11.47 1.01.17 1 .32 1.88.49 2.89 1.03-.45 1.07-1.73 2.52-2.45 2.53-.64 5.05 1.16 7.85 1.95.5.94 1 1.87 1.43 2.69v3.63c-.2.47-.28.78-.44 1.03-1.23 1.94-2.54 3.83-3.71 5.8-.8 1.35-1.7 2.55-3.32 3.45-.52-.03-1.31.06-2-.15-.88-.27-1.74-.52-2.68-.57-2.32-.14-4.04-1.26-5.18-3.33.22-.72.45-1.43.71-2.25-.31-.26-.61-.75-.95-.77-1.53-.11-3.06-.07-4.59-.1-2.14-.04-4.29-.08-6.59-.12-.28.1-.71.25-1.19.41-1.56-.9-3.26-.21-4.91-.26-1.68-.06-3.37-.01-5.13-.01-.45.42-.87.82-1.4 1.32.39.9.76 1.72 1.1 2.5 1.3 1.16 2.69 2.14 3.6 3.6.58.08 1.19.06 1.73.25.79.29.87 1.19 1.32 1.92.84.07 1.73.15 2.52.22 1.06.47 1.17 1.48 1.67 2.23.5.74 1.15 1.39 1.74 2.08-.25.54-.33 1.09-.65 1.32-1.72 1.26-3.49 2.45-5.26 3.67-5.05.13-9.85-.23-13.67-4.16-.53-.15-1.12-.31-1.71-.48-.12-.09-.31-.16-.34-.28-.49-1.54-2.09-2.2-2.79-3.55-.91-1.75-2.2-3.31-2.47-5.38-.09-.67-.78-1.27-1.36-2.14-.24-1.66-.51-3.62-.79-5.59.3-1.15.62-2.33.95-3.56 1.78-1.6 3.6-3.23 5.38-4.83 2.5-.91 5.19-.85 7.57-2 .51-.24 1.2-.06 1.81-.13 1.6-.22 3.27-.44 4.95-.65z"/><path class="st2" d="M212.35 179.16c.15.02.31.02.45.07 2.28.88 3.9 2.84 6.23 3.69 2.13.77 4.15 1.84 6.29 2.81 2.94-.44 5.84-1.45 8.91-1.61 1.01-.05 1.99-.7 3.24-1.16.92-.13 2.13.44 3.32-.19.96-.51 2.05-.55 3.13-.36.05.44.09.87.13 1.26.46.26.86.48 1.46.82.44.73 1 1.63 1.5 2.46.4 2.04.78 3.97 1.2 6.12-.23.68-.52 1.53-.83 2.44.12.54.25 1.14.4 1.82-.32.77-.67 1.6-1.02 2.44-.6-.08-1.31.01-1.79-.28-1.12-.67-2.34-.63-3.67-.84-1.9-1.05-3.91-2.16-6.09-3.36l-2.07-.11c-.35.43-.66.76-.92 1.13-.41.57-1 .64-1.62.68.26-.69.52-1.39.78-2.08-.64-1.54-2.11-1.51-3.26-1.91-.77.25-1.59.22-2.12 1.15.15 1.71 1.09 2.85 2.76 3.26l1.93-.5 1.17 1.89c3.72 1.3 7.17 3.09 10.95 4.02.38.09.67.55 1 .84-2.67 3.52-6.23 5.77-10.38 7.19h-8.09c-3.03-1.5-6.2-2.08-9.5-3.41-.88-1.02-1.98-2.28-3.07-3.54-.4-.46-.73-1-1.19-1.39-2.43-2.05-3.79-4.75-4.83-7.88v-5.78c.82-1.78.8-3.92 2.35-5.39.38-1.43 1.49-2.26 2.56-3.14.33-.26.47-.76.69-1.16zM309.74 85.57c-2.49-.09-4.83.57-7.04 1.62-3.85 1.83-7.98 2.86-11.94 4.4-1.24.48-2.68.46-4.41.72-1.77.97-3.88 2.11-6.27 2.71-1.6.4-3.18.97-4.59 1.97-.85.6-1.92.88-2.89 1.3-1.11.48-2.24.93-3.34 1.43-1.02.46-1.68 1.28-2.13 2.29-.92-.49-1.83-.98-3.13-1.68-.17-.28-.57-.92-.92-1.47.54-3.27 2.1-5.79 4.43-7.92 1.57-1.44 3.04-2.98 4.65-4.56.89-.36 1.87-.75 3.14-1.26 1.91-1.52 4.11-3.15 6.65-4.24.55-.24 1.1-.55 1.54-.95 3.3-3.03 7.21-5.04 11.28-6.79.7-.3 1.33-.75 2.05-1.16.99-.17 2.04-.36 3.32-.59 1.12.18 2.47.41 3.95.65 1.15 1.13 2.34 2.31 3.55 3.51.74 2.12 1.49 4.26 2.4 6.86-.07.75-.19 1.95-.3 3.16zM254.63 88.25h-1.74c-.72.49-1.65 1.32-2.74 1.81-1 .45-1.81 1.12-2.7 1.71-1.26.83-2.31 2.04-3.96 2.26-.4.05-.85.43-1.1.78-.88 1.21-2.28 1.58-3.5 2.16-2.91 1.37-5.7 2.91-8.43 4.59-1.03.64-2.17 1.21-3.33 1.5-1.13.28-1.79 1.15-2.87 1.71h-2.73c-1.82 1.75-4.84 1.8-6.39 4.47.13 1.04.28 2.23.42 3.43-.91-.16-1.81-.32-2.81-.5-.93-.62-1.93-1.29-2.93-1.97-.2-1.32-.39-2.53-.57-3.73.14-.46.25-.91.42-1.33.39-.99.8-1.97 1.38-3.4.17-.22.69-.79 1.07-1.45.95-1.64 2.3-2.92 3.9-3.83 1.63-.93 2.99-2.17 4.33-3.39 1.95-1.77 4.07-3.24 6.43-4.79.58-.06 1.33-.14 2.08-.23 1.14-1 2.27-2 3.31-2.92 3.15-1.1 6.36-1.66 8.96-3.7 1.09-.13 2.15-.32 3.22-.36 1.53-.06 3.07-.02 4.76-.02 1.03.71 2.15 1.49 3.4 2.35.6 1.09 1.3 2.28 1.91 3.51.19.38.14.89.21 1.34z"/><path class="st1" d="M230.61 196.99c.62-.03 1.21-.1 1.62-.68.26-.36.56-.7.92-1.13l2.07.11c2.17 1.2 4.18 2.31 6.09 3.36 1.32.21 2.55.17 3.67.84.48.29 1.19.2 1.79.28 2.89 1.79 6.1 2.86 9.27 4.06 1.49-.37 2.95-.98 4.44-1.04 1.35-.06 2.64-.53 4.06-.26 1.49.28 3.05.19 4.76.28 1.26.51 2.67 1.09 3.91 1.6 1.59 1.41 2.48 2.97 2.65 5.03-.46 1.91-1.66 3.45-3.16 4.74-2.39.23-3.97 2.18-6.34 2.49-2.39.31-4.68 1.39-7.07 1.83-2.24.41-4.54.43-7.04.65-1.13-.28-2.47-.62-3.7-.93-1.64-1.36-3.13-2.68-3.91-4.72-.28-1.77-.2-3.57.97-5.51.99-.67 2.22-1.5 3.5-2.38-1.86-.68-3.58-1.31-5.29-1.94-.33-.29-.62-.75-1-.84-3.78-.94-7.23-2.72-10.95-4.02-.39-.64-.78-1.26-1.17-1.89l-.09.07zm22.95 18.07c1.33-.28 2.24-.69 3.11-.6 2.53.27 4.75-.8 7.08-1.38 1.18-.29 2.32-.75 3.47-1.15.28-.1.56-.23.76-.32 1.03-.78 1.99-1.51 2.92-2.22-.03-.35-.06-.64-.1-1.08-1.36-.83-2.98-1.26-4.42-1.91-1.34.28-2.51.68-3.71.76-3.07.2-5.93 1.23-8.86 1.99-1.7.44-3.05 1.31-4.46 2.48-.04.5-.09 1.07-.14 1.62.52.33.87.64 1.27.8 1.01.36 2.03.66 3.08 1.01z"/><path class="st0" d="m233.12 128.43-.03.05 1.19.06c-.09.32-.3.46-.65.41-.17-.17-.34-.34-.51-.52zM266.62 170.13c.02-1.84.03-3.67.05-5.51.01-.92.1-1.8.37-2.71.39-1.3.53-2.67.89-4.61.71-1.67 2.04-3.76 2.46-6.21.05-.29.15-.61.31-.85 2.61-3.75 4.32-8.05 7.07-11.73 1.57-2.1 3.29-4.01 5.46-5.49 1.64.95 2.69 2.46 3.42 4.1.87 1.95 1.84 3.74 3.33 5.32 1.01 1.07 1.6 2.53 2.44 3.78.5.74 1.17 1.37 1.65 2.12.22.34.17.85.24 1.29-.42.17-.83.34-1.12.45-.97 1.32-1.71 2.68-2.77 3.71-1.57 1.52-2.51 3.34-3.33 5.33-.11 1.01.04 2.17-.38 3.08-.79 1.72-.7 3.52-.94 5.29-1.78.28-3.58.17-5.37.71-1.56.47-3.27.37-4.9.83-1.58.45-3.27.54-5.06.81-.48.32-1.1.73-1.65 1.1-.94.1-1.53-.42-2.17-.81z"/><path class="st2" d="M229.19 172.17h3.8c1.91.62 3.09 1.91 4.8 2.28 1.12.24 2.32.83 2.9 2.06-2.03-.02-3.75.93-5.56 1.77-1.02.06-2.06.16-3.11.19-.88.02-1.78.21-2.63-.21-.14-.25-.42-.51-.39-.73.24-1.78-.42-3.59.19-5.36zM215.78 176.26c1.17-.94 2.34-1.88 3.69-2.97 1.5-.46 3.21-.98 4.92-1.51.21.39.63.8.59 1.17-.19 1.94-.14 3.86-.04 5.8.02.41-.28.83-.4 1.15-.59.47-1.17.65-1.76.39-.82-.36-1.62-.78-2.39-1.23-1.56-.92-3.08-1.87-4.61-2.8z"/><path class="st0" d="M233.63 128.95c-.2.33-.46.74-.84.36-.32-.33-.11-.7.33-.88.17.18.34.35.51.52z"/><path class="st1" d="M232.59 199.06c-.58.15-3.05-1.85-3.82-1.65-1.66-.41-2.6-1.55-2.76-3.26.53-.93 1.35-.9 2.12-1.15 1.16.41 7.44 2.16 8.08 3.7-.26.69-1.65 1.72-1.91 2.41 0-.01-1.71-.05-1.71-.05z"/></svg>