<svg version="1.1" id="Layer_1" xmlns="http://www.w3.org/2000/svg" x="0" y="0" viewBox="0 0 458 320" style="enable-background:new 0 0 458 320" xml:space="preserve"><style>.st0{fill:#131112}.st1{fill:#ff5543}.st2{fill:#6b59e9}</style><path class="st0" d="M121.98 83.18c.63-1.49-.23-3.04.13-4.45 1.45-2.09 4.46-1.49 5.73-3.66 1.05-.14 2.12-.19 3.14-.46 1.03-.27 2-.77 2.98-1.16.47.21.87.39 1.18.53.87-.62 1.73-1.23 2.55-1.82 1.93-.15 3.75-.25 5.24-.01 1.09.5 1.47 1.2 1.75 1.9 1.23 3.05 3.17 5.52 5.61 7.33 2 1.15 4.1.95 5.89 1.55 1.59-.35 3.08-.67 4.52-.98 2.54-1.78 2.63-4.76 3.75-7.08-.14-.91-.26-1.67-.4-2.58.21-.42.47-.96.68-1.41.41-.18.69-.43.96-.41 2.76.15 5.48.1 8.1-.91.42-.16.91-.34 1.34-.28 1.9.25 3.62-.39 5.37-.96.42-.14.9-.2 1.34-.18 2.75.12 5.36-1.39 8.55-.58.41.33 1.12.89 1.83 1.46.65 2.39 1.43 4.68 2.83 6.9 1.9 1.04 3.9 2.13 6.04 3.3 1.84-.85 4.13.02 6.39-1.25.91-.78 2.07-1.78 3.35-2.88.98-1.74 2.03-3.6 3.26-5.78.07-.87.16-2.08.26-3.45.68-.52 1.4-1.07 1.96-1.5.52-.07.83-.2 1.11-.15 4.57.82 9.16.62 13.74.26 1.95-.15 3.85-.9 6.21-1.48 1.12-.02 2.59.27 4 1.71.18.56.65 1.41.67 2.28.02 1.1.15 2.09.61 3.09.33.73.13 1.49-.43 2.11 1.12.49 2.28.86 3.3 1.48.88.55 1.58 1.38 2.41 2.12 1.58-.4 3.05-.77 4.68-1.19.74-.56 1.6-1.2 2.51-1.88.43-.92.87-1.89 1.37-2.96.16-2.01.9-4.1.1-6.39.41-1.02.86-2.12 1.32-3.24 4.5.5 8.88.99 13.26 1.48.66.37 1.33.73 2.05 1.13.74-.2 1.48-.39 2.44-.65.53.18 1.24.42 1.98.68 1.18.03 2.35-.35 3.6-.17 1.19.18 2.43.04 3.91.04.7.4 1.62.91 2.49 1.4.29 1.35.55 2.53.83 3.84-.11.62-.25 1.37-.42 2.3.69 1.9.93 4.01.9 6.18-.02 1.37-.07 2.72.52 4.06.35.8.26 1.8.35 2.72.08.76-.06 1.63.27 2.25.78 1.47.61 2.97.5 4.39.67 2.44 1.35 4.77 1.93 7.13.14.56-.05 1.21-.1 1.93-.88.8-1.78 1.62-2.72 2.48-.58.1-1.18.2-2 .35-1.07.78-2.3 1.68-3.45 2.53-1.42 2.35-2.26 4.77-2.75 7.35-.48 2.55.53 4.81 1.08 7.2.91 1.21 1.95 2.32 3.44 3.18 2.3.17 4.72.34 6.93.5 1.75.86 2.41 2.19 2.57 3.8.14 1.37.27 2.75.28 4.12.02 2 .11 3.94.83 5.87.42 1.11.36 2.41.48 3.63.12 1.21.13 2.38.63 3.57.59 1.4.63 2.99-.34 4.66-.32.19-.83.51-1.33.81-.8-.06-1.55-.12-2.47-.18-.96.52-2.04 1.1-3.07 1.66-.13.16-.28.26-.31.39-.4 1.79-1.46 3.36-1.85 5.13-.33 1.48-.35 3.02-.51 4.54.5 1 .97 1.94 1.44 2.89 1.19.56 2.28 1.12 3.41 1.57.71.28 1.48.39 2.29.59l2.13 1.66 1.77.52c.24.56.48 1.12.72 1.7-.11.62-.21 1.22-.33 1.87.02.25-.04.57.07.84.41 1.01.59 2.04.57 3.14-.04 2.15-.01 4.3-.01 6.52.26.65.54 1.36.89 2.26-.19.56-.43 1.28-.56 1.66.35 2.57.75 4.82.94 7.1.11 1.31-.43 2.41-1.92 2.71-3.51-.86-3.51-.86-6.12.29-1.33 1.37-1.64 3.22-2.25 4.9.16.61.32 1.2.46 1.74.36.11.69.34.91.27 1.71-.59 3.26-1.64 5.25-1.28.69.12 1.48-.31 2.22-.51.59-.16 1.18-.54 1.75-.51 2.94.16 5.76-.72 8.65-.92 1.53-.11 3.04-.16 4.52-.67.7-.24 1.51-.23 2.27-.25 3.06-.05 6.13-.13 9.19-.06 2 .04 4.03.11 5.93-.43 2.15-.61 4.23.2 6.34-.1.55-.08 1.16.32 1.84.52.5-.17 1.08-.36 1.88-.62 2.78.82 5.85.46 8.89.57 2.9.89 5.66 2.23 8.71 2.65.93.13 1.74.65 2.31 1.4.84 1.09 1.61 2.22 2.21 3.07.87 3.8-1.53 6.45-2.01 9.33-2.66 3.23-5.64 5.54-9.2 7.1-2.52 1.11-4.93 2.53-7.53 3.38-5.21 1.68-10.17 4.06-15.51 5.33-.44.11-.97.15-1.3.41-2.22 1.82-5.15 1.88-7.59 3.15-3.46.72-6.71 2.12-10.07 3.16-2.18.67-4.21 1.85-6.51 1.55-.48.72-.81 1.22-1.02 1.52-.39 1.61.6 2.96-.06 4.31-.27.52-.27.52-1.81 1.3-1.37 0-2.77.18-4.1-.05-1.24-.22-2.41.53-3.61.04-1.4.24-2.7-.22-3.9-.63-2.6.86-5.22.74-7.82.77-.41.01-.83-.28-1.16-.4-.8-1.18-.94-2.33-.67-3.6.18-.87.14-1.8.23-3.02-3.07-2.33-5.59-5.46-9.79-6.91h-6.83c-1.25.75-2.29 1.38-3.32 2-.78 1.73-1.8 3.26-2.35 5.08.68 1.4 1.54 2.69 1.73 4.24-.29 1.07-.82 1.96-1.88 2.45-1.36.23-2.71.49-4.06.69-1.52.22-3.15.1-4.53.64-1.38.54-2.66-.22-4 .25-1.12.39-2.42.38-3.64.37-1.55-.01-3.03.11-4.54.52-1.76.47-3.59.69-5.63 1.06-.93-.68-2.54-.39-3.52-1.84-.09-.9-.2-1.95-.32-3.1-1.92-1.95-3.93-3.84-5.75-5.9-1.12-1.27-3.01-1.59-3.77-3.24-.85-.3-1.78-.48-2.54-.94-2.07-1.23-4.3-1.42-6.72-1.44-.73.82-1.45 1.59-2.13 2.4-.67.81-1.31 1.65-1.9 2.41v5.04c1.55 2.07 3.01 4.02 4.3 5.75.17 1.36-.34 2.07-1.25 2.67-.35.06-.8.16-1.25.21-4.56.49-9.2-.45-13.71.83-1.36-.66-2.67.13-4.01.15-1.53.02-3.05.09-4.58.09-.76 0-1.55 0-2.28-.18-.88-.22-1.76-.56-2.08-1.69.18-.65.38-1.37.62-2.28-.64-1.23-1.33-2.58-1.96-3.8-1.8-2.08-3.54-4.02-5.66-5.56-2.09-1.52-4.5-2.5-6.73-3.98-.98-.06-2.04-.13-2.95-.19-1.59 1.91-3.04 3.67-4.38 5.29-.43 1.31-.82 2.47-1.19 3.62-.41 1.29.72 2.3.69 3.68-.34.35-.75.78-1.07 1.1-1.38.29-2.57.54-3.65.76-1.92-.69-3.73-.58-5.56-.16-1.04.24-2.1.46-3.16.5-1.98.08-3.98.02-5.65.02-1.43.62-2.55 1.1-3.37 1.45-1.09 0-1.91-.2-2.57.04-1.66.59-3.3.56-4.97.27-.28-.05-.52-.29-.82-.46-.78-.87-.16-2.06-.63-3.16l-1.48-2.7c.27-1.21.54-2.39.75-3.34-.3-1.29-.71-2.32-.75-3.36-.08-2.29.02-4.58-.78-6.8-.2-.55-.18-1.24-.06-1.82.23-1.09-.07-2.13-.05-3.19.04-2.02-.69-3.9-.94-5.55.19-1.51.94-2.22 2.01-2.65.9-.05 1.8-.11 2.38-.14 1.03-.41 1.17-1.45 2.1-1.46.56.13 1.13.26 1.94.44.84-.85 1.7-1.71 2.35-2.37.52-2.35.56-4.33.2-6.31-.17-.94-.6-1.77-1.29-2.39-1.24-1.12-2.56-2.17-3.84-3.23-1.4.18-2.74.35-3.76.48-1.59-.54-2.44-1.35-2.99-3.08-.02-1.22-.06-2.9-.07-4.59-.01-1.23.12-2.47-.02-3.68-.16-1.35-.56-2.67-.9-4.19.29-1.02.62-2.19.97-3.43-.76-1.99-1.18-4.07-.82-6.17.38-.98 1.15-1.49 1.91-1.99 5.68-1.11 7.82-1.74 8.88-2.75.28-.61.67-1.43.96-2.05.52-3.61-.58-6.59-2.19-9.39-1.51-1.77-3.33-2.74-5.67-2.61-.58.03-1.18-.2-1.78-.32-.42-.53-.8-1-1.25-1.57-.14-1.93-.02-3.93-.09-5.91-.04-1.37.1-2.86-.37-4.09-.94-2.48-.45-4.8.24-6.96-1.24-2.7-.79-5.26-.52-7.61 1.05-1.81 2.65-2.55 4.28-2.84 2.33-.42 4.33-1.47 6.3-2.45 1.22-1.29 2.35-2.54 2.88-4.01 0-1.38.27-2.68-.05-3.81-.8-2.77-1.59-5.56-3.18-8.28-.87-.75-2.05-1.44-3.33-1.98-.84-.35-1.68-.75-2.44-1.26-.87-.59-2.14-.53-2.83-2.02-.08-3.15-.16-6.66-.26-10.65-.78-1.57-.78-3.71-.69-5.87.12-2.34-.01-4.63-1-6.78zm177.04 149.59c.82.09 1.62.81 2.54-.05-.07-.31-.16-.67-.26-1.11h-2.24c-.14-3.83-.37-7.66.73-11.18-.23-.98-.41-1.71-.53-2.22.22-1.45.46-2.65.57-3.87.04-.41-.27-.84-.42-1.25-.46-.23-.86-.44-1.24-.63-1.68.54-3.35.57-4.98.11-1.72-.49-3.76-.23-4.69-1.62-.91-1.95-1.62-3.47-2.43-5.22.07-1.16.09-2.54.24-3.91.16-1.5.45-2.99.68-4.49 1.09-1.02.68-2.65 1.58-3.88.72-.38 1.54-.78 2.33-1.24.92-.55 1.76-1.23 2.71-1.73.77-.41 1.64-.62 2.54-.95.01-1.64.2-3.19-.28-4.67-.44-1.35-.43-2.72-.45-4.1-.05-3.21-.04-6.42-.09-9.64-.01-.45-.15-.9-.22-1.28-1.35-1.71-3.3-.37-4.66-1.05-2.17-.64-3.3-2.38-4.76-3.71-1.04-.95-1.66-2.16-2.09-3.44.26-.93.39-1.76.12-2.72-.18-.64.39-1.45.44-2.2.06-.91-.07-1.83-.12-2.77.9-1.94 1.81-3.88 2.67-5.73 1.31-.98 2.52-1.89 3.76-2.81.92-.36 2.17-.01 2.84-1.2.28-1.17.29-2.42-.22-3.55-.46-1.02-.59-2.04-.6-3.13-.01-.61.03-1.27-.19-1.82-.75-1.91-.79-3.88-.81-5.88-.01-1.06-.13-2.16-.91-3.01-2.38-.52-4.75-1.05-6.83-1.51-1.28-.86-2.3-1.54-3.35-2.25-.78-1.08-1.58-2.2-2.26-3.15-.35-1.21-.65-2.24-1-3.44.06-.4.15-.99.25-1.59-.18-.58-.36-1.15-.52-1.67.74-4.66 1.89-9.06 4.78-12.68 1.9-1.27 3.67-2.45 5.33-3.56.13-.48.29-.79.27-1.07-.08-.92-.1-1.87-.38-2.73-.93-2.82-1.05-5.7-.81-8.46-.63-1.74-1.2-3.32-1.82-5.05v-7.67c-.22-.69-.45-1.42-.59-1.86.03-1.05.66-1.7.39-2.46-.08-.18-.1-.38-.2-.44-.39-.22-.8-.54-1.22-.57-1.22-.08-2.45 0-3.68-.06-2.45-.12-4.91-.12-7.32-.5-1.2-.19-2.39-.42-3.61-.45-1.07-.03-2.16.07-3.22-.08-1.02-.14-2.01-.52-3.09-.82-.92 1.68.01 3.46-.35 4.43-1.25 2.49-2.22 4.41-3.23 6.42-1.51 1.1-2.7 2.8-4.87 3.6-.69.05-1.61.12-2.52.2-1.06.08-2.12.17-2.86.23-1.88-.68-3.46-1.24-5.27-1.89-1.31-1.4-2.77-2.96-4.11-4.4-.39-2.15-.13-4.3-2.28-5.97-1.62.44-3.52.96-5.5 1.1-2.11.15-4.19.73-6.59.69-1.78-1.14-3.79-1.3-5.87.26-.06.51-.14 1.11-.24 1.88-1.25 1.7-2 3.92-3.66 5.56-1.01 2.41-3.5 3.34-4.77 4.98-2.64 1.17-4.97 1.66-7.48.9-.51-.16-1.16.16-1.63.23-.52-.35-.89-.81-1.29-.83-2.52-.15-4.67-1.25-6.95-2.61-1.38-2.32-3.51-4.41-4.05-7.43-.61-.22-1.18-.43-1.67-.61-1.59.38-3.06.76-4.55 1.06-1.5.3-3.01.49-4.51.78-1.49.29-3.06.43-4.44 1.02-1.47.63-3.07-.14-4.39.55-.35 1-.69 1.84-.92 2.71-.27 1.02-.44 2.07-.66 3.15-.55.66-1.3 1.28-1.66 2.07-.86 1.88-2.59 2.51-4.26 3.1-3.23 1.14-6.53 1.6-9.81.07-1.53.25-2.45-1.06-3.73-1.45-1.4-.43-2.26-1.54-3.3-2.55-.37-.76-.63-1.7-1.19-2.39-.62-.77-.65-1.71-1.06-2.5-.25-.49-.82-.82-1.03-1.01-1.18.24-2.06.42-2.95.59-.6.11-1.29.05-1.78.33-2.57 1.48-5.43 1.99-8.25 2.65-.57.13-1.08.49-1.72.79l.6 2.31c-.29 1.99-.26 3.9.35 5.88.44 1.42.25 3.04.37 4.56.13 1.67.29 3.34.49 5.58-.3 1.34-.92 3.27-.22 5.35 1.27 1.4 3.25 1.5 4.83 2.36 2.41 1.33 3.77 3.53 4.9 5.92.8 1.69.8 3.58 1.34 5.3.79 2.52 1.01 5.08 1.38 7.59-.82 1.21-1.53 2.39-2.38 3.45-1.25 1.55-2.69 2.91-4.38 4.02-2.03 1.33-4.15 1.91-6.67 1.2-.11.59-.33 1.16-.31 1.73.07 2.14.21 4.27.34 6.75-.73 3.76-.09 7.88-.15 11.98.57.48 1.03.86 1.43 1.19 1.31.17 2.52.32 3.69.47 1.23 1.3 2.39 2.52 3.44 3.63 1.08 2.05 2.08 3.94 3.08 5.85.09 2.01.18 4 .24 5.49-.59 2.83-2.05 4.63-3.46 6.42-.64.81-1.67 1.3-2.3 1.78-2.23.47-4.21.63-6.09 1.43-.08.5-.22.94-.21 1.38.02 3.22.05 6.45.14 9.67.02.59.29 1.17.43 1.68-.19.83-.35 1.57-.48 2.15.46 1 .38 2.03 1.29 2.67 1.96.63 4.07 1.12 5.44 2.07 2.92 2.43 4.81 4.99 5.91 7.95.23 1.65.45 3.16.66 4.64-.23 1.23-.46 2.44-.7 3.64-.03.14-.16.26-.25.38-4.4 3.39-4.4 3.39-7.95 4.55-.9.89-2.21 1.55-2.54 3.1-.07 1.2.9 2.15.84 3.48-.12 2.45.25 4.89.62 7.32.27 1.81.24 3.67.31 5.51.04 1.07-.05 2.16.08 3.22.12 1.04.29 2.14 1.48 2.96 1.77-.1 3.77.21 5.62-.8 2.43-.23 4.75-1.34 7.22-1.02 2.04.27 3.96 0 5.64-.74.95.25 1.67.44 2.3.6.22-.21.39-.29.42-.41.56-1.89.93-3.86 1.7-5.67.85-1.98 2.74-3.26 4.01-4.97.18-.25.29-.55.47-.79 1.13-1.47 2.46-2.72 4.18-3.5 2.3.26 4.24 1.66 6.53 2.01 1.14.18 1.65 1.28 2.36 2.07 4.31 2.23 5.03 2.8 10.04 7.87.52.94 1.08 1.86 1.54 2.82.51 1.07.91 2.2 1.4 3.38 3.25.29 6.46-.71 9.59.18 2.06-1.06 4.19-1.13 6.36-1.03.2.01.42-.33.72-.58-.49-1.08-.99-2.18-1.42-3.14-.14-1.4-.09-2.59.27-3.81.39-1.31.54-2.69.82-4.2 1.22-1.94 2.63-3.93 4.47-5.72.8-.27 1.66-.57 2.33-.8.98.17 1.74.41 2.49.4 2.82-.02 5.47.74 8.02 1.83 2.56 1.1 4.35 3.33 6.73 4.71 1.89 2.2 4.23 4 5.66 6.62.42.77 1.22 1.32 1.61 1.73 2.98.51 5.51-.18 7.87-.68 1.21.34 2.23.63 3.27.93 3.32-1.22 6.79-1.64 10.32-2.32.7-2.56-.06-5.24.78-7.87.67-.49 1.4-1.02 2.12-1.55.65-2.09 2.6-2.92 3.88-4.16 3.66-.97 7.16-.76 10.39-.57 1.34.68 2.01 1.99 3.45 1.79 2.05 1.31 4.39 2.15 6.15 3.92.86.86 1.8 1.65 1.95 1.79 2.09 2.5 1.53 4.88 2.49 6.91 1.45-.26 2.79-.58 4.14-.73 1.52-.16 3.06-.17 4.59-.25 1.46.26 2.91.53 4.37.79.5-1.48.59-2.92.37-4.46-.23-1.57-.45-3.23-.09-4.88z"/><path class="st1" d="M121.98 83.18c.99 2.15 1.12 4.44 1.02 6.76-.09 2.16-.09 4.3.69 5.87.1 3.99.18 7.5.26 10.65.69 1.5 1.96 1.44 2.83 2.02.76.51 1.6.91 2.44 1.26 1.29.54 2.46 1.23 3.33 1.98 1.59 2.72 2.38 5.52 3.18 8.28.32 1.13.05 2.43.05 3.81-.53 1.47-1.66 2.72-2.88 4.01-1.97.98-3.97 2.03-6.3 2.45-1.64.29-3.23 1.03-4.28 2.84-.27 2.35-.72 4.92.52 7.61-.69 2.17-1.18 4.48-.24 6.96.47 1.23.32 2.72.37 4.09.06 1.99-.05 3.98.09 5.91.45.57.83 1.04 1.25 1.57.6.11 1.2.35 1.78.32 2.34-.12 4.16.85 5.67 2.61 1.6 2.81 2.71 5.78 2.19 9.39-.29.62-.68 1.44-.96 2.05-1.06 1-3.2 1.64-8.88 2.75-.76.5-1.53 1.01-1.91 1.99-.36 2.11.07 4.18.82 6.17-.35 1.24-.68 2.41-.97 3.43.34 1.52.74 2.84.9 4.19.14 1.21.01 2.45.02 3.68.02 1.68.05 3.37.07 4.59.55 1.72 1.4 2.54 2.99 3.08 1.01-.13 2.35-.3 3.76-.48 1.28 1.07 2.59 2.11 3.84 3.23.69.62 1.12 1.45 1.29 2.39.36 1.99.31 3.96-.2 6.31-.65.66-1.51 1.52-2.35 2.37-.81-.18-1.37-.31-1.94-.44-.93.01-1.07 1.05-2.1 1.46-.58.04-1.48.09-2.38.14-1.07.43-1.81 1.14-2.01 2.65.24 1.65.98 3.53.94 5.55-.02 1.06.28 2.1.05 3.19-.12.58-.14 1.27.06 1.82.81 2.22.7 4.51.78 6.8.04 1.04.45 2.07.75 3.36-.21.95-.48 2.13-.75 3.34.52.95 1.03 1.89 1.48 2.7.47 1.1-.15 2.29.63 3.16.3.18.55.42.82.46 1.67.29 3.32.31 4.97-.27.66-.24 1.48-.04 2.57-.04.81-.35 1.93-.83 3.37-1.45 1.68 0 3.67.06 5.65-.02 1.06-.04 2.12-.26 3.16-.5 1.83-.42 3.64-.52 5.56.16 1.08-.23 2.28-.48 3.65-.76l1.07-1.1c.02-1.39-1.1-2.39-.69-3.68.37-1.16.76-2.31 1.19-3.62 1.34-1.62 2.8-3.38 4.38-5.29.92.06 1.97.13 2.95.19 2.24 1.48 4.64 2.47 6.73 3.98 2.12 1.54 3.86 3.47 5.66 5.56.63 1.21 1.32 2.56 1.96 3.8-.25.91-.45 1.63-.62 2.28.32 1.13 1.2 1.48 2.08 1.69.73.18 1.52.18 2.28.18 1.53 0 3.05-.08 4.58-.09 1.34-.02 2.65-.81 4.01-.15 4.51-1.28 9.15-.34 13.71-.83.45-.05.9-.15 1.25-.21.91-.6 1.41-1.31 1.25-2.67-1.29-1.72-2.75-3.68-4.3-5.75v-5.04c.6-.76 1.23-1.6 1.9-2.41.68-.81 1.4-1.59 2.13-2.4 2.42.02 4.65.2 6.72 1.44.76.45 1.69.63 2.54.94.76 1.65 2.64 1.97 3.77 3.24 1.82 2.06 3.83 3.95 5.75 5.9.12 1.15.23 2.2.32 3.1.98 1.45 2.59 1.16 3.52 1.84 2.05-.37 3.87-.59 5.63-1.06 1.51-.41 3-.53 4.54-.52 1.22.01 2.51.02 3.64-.37 1.35-.47 2.62.29 4-.25s3.01-.42 4.53-.64c1.36-.19 2.7-.45 4.06-.69 1.06-.48 1.59-1.37 1.88-2.45-.19-1.56-1.06-2.85-1.73-4.24.54-1.82 1.57-3.35 2.35-5.08 1.03-.62 2.07-1.25 3.32-2h6.83c4.2 1.45 6.72 4.58 9.79 6.91-.08 1.22-.04 2.14-.23 3.02-.27 1.27-.13 2.42.67 3.6.32.12.74.41 1.16.4 2.6-.03 5.22.09 7.82-.77 1.21.41 2.5.87 3.9.63.13.28.33.54.38.83.12.75.23 1.52.22 2.27-.01.44-.17.95-.44 1.28-.57.7-1.26 1.29-1.72 1.75-2.22.48-4.15.9-6.56 1.43-.89-.21-2.21-.61-3.55-.82-1.2-.18-2.44-.15-3.76-.22-.43-.38-.88-.78-1.34-1.18.16-.67.29-1.25.47-2.03-.31-1.14-.66-2.46-1.01-3.77-.84-1.48-1.67-2.94-2.61-4.61-.96-.69-2.07-1.48-3.07-2.2h-2.72c-1.44.72-1.52 2.08-2.11 3.22.08.53.18 1.13.27 1.74-.15.41-.3.84-.5 1.42.24.73.51 1.59.82 2.54-.28.49-.58 1.02-.94 1.66-3.1 1.17-6.41 1.78-9.65 2.59-2.71.68-5.46.76-8.09.74-1.35.17-2.33 1.07-3.64.99-1.05-.06-2.12.16-3.34.28-1.29-.5-2.76-.93-4.18.18-2.28.17-4.33 1.47-6.69 1.37-.73-.03-1.48.3-2.24.47-1.03-.32-2.04-.63-3.04-.94-1.36-2.09-2.69-4.14-3.98-6.13-.83-.55-1.63-1-2.33-1.58-.71-.58-1.3-1.3-1.98-1.93-.81-.75-1.73-1.25-3.04-1.09-.07.36-.35.86-.2 1.14.49.94.81 1.98 1.69 2.7.96.78 1.7 1.76 2.17 3.26-.11 1.23-.24 2.72-.36 3.97-.62.94-1.46 1.02-1.96 1.38-3.93.99-7.77.24-11.58.33-.58.01-1.16-.34-1.6-.48-1.65.19-3.16.47-4.67.51-2.3.07-4.6-.09-6.89 0-1.82.07-3.67.05-5.42.81-.53.23-1.2.14-1.93.21-.82-.57-1.68-1.16-2.43-1.69-1.12-.07-1.18 1.02-1.86 1.34-.69.33-1.37.68-2.06 1.02h-3.36c-.47-.52-.97-1.07-1.41-1.55v-3.83c-1.5-2.86-1.5-2.86-4.3-5.31h-1.42c-.45.76-.9 1.54-1.3 2.22-.4 2.41.21 4.74-.33 6.97-.25.24-.48.45-.75.71-3.09.54-6.38-.36-9.56.99-.37-.47-.73-.92-1.18-1.49-.55.46-1.09.91-1.76 1.48-2.31.22-4.76.19-7.21.17-1.23-.01-2.43-.02-3.63.44-.68.27-1.51.34-2.25.26-2.44-.25-4.91.04-7.33-.54-.88-.21-1.83-.12-2.75-.14-1.38-.02-2.76-.01-3.82-.01-1.6-.57-2.3-1.62-2.55-2.84-.45-2.13-1.41-4.05-2.19-6.18.21-2.15-.92-4.46.52-6.62-.78-1.6-1.51-3.1-2.35-4.83-.26-2.32-.11-4.96-1-7.45-.15-.42-.18-.92-.15-1.37.24-3.08-.24-6.1-.72-9.13-.02-.15.03-.3.08-.74.34-.55.81-1.32 1.33-2.15 2.39-.74 4.42-2.08 6.46-3.75.38-.64.85-1.43 1.16-1.94.16-1.17-.2-1.82-.73-2.41-.84-.93-1.83-1.63-3.16-2.15-1.05-.09-2.26-.19-3.52-.3-.78-.76-1.54-1.49-2.23-2.16-.1-2.31.83-4.4.29-6.54-.53-2.07 1.05-4.23-.37-6.15.2-.71.36-1.29.6-2.13-.17-.65-.52-1.51-.62-2.4-.14-1.37-.1-2.76-.14-4.14l-.27-8.73c-.02-.61 0-1.22 0-1.49.41-1.15 1.1-1.53 1.84-1.72 2.21-.56 4.26-1.83 6.54-1.3.97-.92 1.74-1.65 2.6-2.46-.2-.42-.32-.85-.58-1.14-.5-.56-1.08-1.04-1.82-1.72-2.22-.74-4.68-1.57-7.28-2.45-.34-.79-.69-1.63-1.19-2.8 0-4.44.02-9.2-.01-13.95-.01-1.84.06-3.72-.3-5.5-.71-3.49-.31-7.03-.75-10.52-.05-.42.21-.88.32-1.3 1.16-1.64 3.03-1.94 4.64-2.76 1.62-.83 3.11-1.86 4.74-1.8.31-.45.46-.57.47-.69.08-1.83.14-3.67.19-5.22-.84-1.86-2.3-2.34-3.75-2.86-1.45-.51-2.66.53-3.98.55-1.3-.5-2-1.43-2.36-2.96.21-.68.48-1.54.78-2.5-.32-8.73-.17-14.47.44-17.68l-1.14-5.53c.17-.92.73-1.63 1.6-2.06 1.23-.61 2.52-1.11 3.74-1.73.88-.41 1.79-.27 2.7-.27z"/><path class="st1" d="M294.36 241.36c-1.53.08-3.07.08-4.59.25-1.35.15-2.69.46-4.14.73-.97-2.03-.41-4.41-2.49-6.91-.16-.14-1.09-.93-1.95-1.79-1.76-1.77-4.11-2.61-6.15-3.92-1.44.19-2.11-1.11-3.45-1.79-3.22-.19-6.72-.4-10.39.57-1.29 1.24-3.23 2.07-3.88 4.16-.73.53-1.46 1.06-2.12 1.55-.84 2.63-.08 5.31-.78 7.87-3.52.68-6.99 1.1-10.32 2.32-1.04-.29-2.07-.58-3.27-.93-2.37.51-4.9 1.19-7.87.68-.39-.4-1.19-.96-1.61-1.73-1.42-2.62-3.76-4.42-5.66-6.62-2.38-1.37-4.18-3.61-6.73-4.71-2.55-1.09-5.19-1.85-8.02-1.83-.75 0-1.51-.23-2.49-.4-.67.23-1.53.52-2.33.8-1.84 1.8-3.25 3.79-4.47 5.72-.29 1.51-.44 2.89-.82 4.2-.36 1.22-.4 2.41-.27 3.81.43.96.94 2.06 1.42 3.14-.3.25-.52.59-.72.58-2.17-.1-4.3-.02-6.36 1.03-3.13-.89-6.34.11-9.59-.18-.49-1.19-.89-2.31-1.4-3.38-.46-.97-1.02-1.88-1.54-2.82-5-5.07-5.72-5.63-10.04-7.87-.7-.79-1.22-1.89-2.36-2.07-2.28-.35-4.23-1.75-6.53-2.01-1.73.78-3.05 2.03-4.18 3.5-.19.24-.29.54-.47.79-1.27 1.72-3.16 2.99-4.01 4.97-.77 1.8-1.14 3.77-1.7 5.67-.04.12-.2.2-.42.41-.63-.16-1.36-.36-2.3-.6-1.68.74-3.6 1.01-5.64.74-2.47-.32-4.8.79-7.22 1.02-1.85 1-3.85.7-5.62.8-1.19-.82-1.36-1.92-1.48-2.96-.13-1.06-.03-2.15-.08-3.22-.08-1.84-.04-3.7-.31-5.51-.36-2.43-.73-4.87-.62-7.32.06-1.32-.91-2.28-.84-3.48.33-1.56 1.64-2.21 2.54-3.1 3.55-1.16 3.55-1.16 7.95-4.55.08-.13.22-.24.25-.38.24-1.2.46-2.41.7-3.64-.21-1.48-.42-2.99-.66-4.64-1.1-2.96-2.99-5.52-5.91-7.95-1.37-.95-3.47-1.44-5.44-2.07-.91-.64-.84-1.66-1.29-2.67.13-.58.29-1.32.48-2.15-.14-.5-.41-1.09-.43-1.68-.08-3.22-.11-6.45-.14-9.67 0-.44.13-.88.21-1.38 1.87-.8 3.86-.96 6.09-1.43.63-.47 1.66-.97 2.3-1.78 1.41-1.79 2.87-3.59 3.46-6.42-.07-1.49-.15-3.48-.24-5.49-1.01-1.91-2.01-3.81-3.08-5.85-1.05-1.11-2.21-2.33-3.44-3.63-1.17-.15-2.38-.3-3.69-.47-.4-.33-.86-.72-1.43-1.19.05-4.1-.58-8.22.15-11.98-.13-2.48-.27-4.62-.34-6.75-.02-.57.2-1.15.31-1.73 2.52.71 4.64.13 6.67-1.2 1.69-1.11 3.13-2.47 4.38-4.02.86-1.06 1.56-2.25 2.38-3.45-.38-2.51-.59-5.08-1.38-7.59-.54-1.72-.53-3.6-1.34-5.3-1.14-2.4-2.49-4.59-4.9-5.92-1.58-.87-3.56-.96-4.83-2.36-.7-2.08-.08-4 .22-5.35-.2-2.25-.36-3.91-.49-5.58-.12-1.53.07-3.14-.37-4.56-.61-1.98-.64-3.9-.35-5.88.6-.04 1.26.06 1.79-.15 1.42-.56 2.78-1.26 4.04-1.84h3.3c1.08.72 2.1 1.39 2.98 1.97.6.93 1.09 1.71 1.56 2.43.99.82 1.94 1.6 2.74 2.25 1.44.57 2.71 1.08 3.23 1.29 2.57.43 4.37.72 5.96.99 1.54-.19 2.92-.28 4.26-.53 1.49-.27 2.96-.7 4.44-1.03.29-.07.62.02.91-.05.28-.06.54-.23.81-.36.28-.36.55-.72.84-1.1.69-.24 1.4-.48 1.84-.63 1.03-1.45 1.92-2.68 2.79-3.94.86-1.24 1.69-2.5 2.6-3.85 1.63-.17 3.2-.87 4.9-.39.67-.38 1.34-.75 2.06-1.16 1.47.13 2.96.51 4.5.31.92-.12 1.8.31 2.66 1.17.53 1 1.17 2.21 1.75 3.28 1.25.92 2.28 1.88 3.49 2.53 1.6.86 3.34 1.48 5.02 2.2 2.64.56 5.14-.76 7.75-.61 2.66-1.11 5.59-1.39 8.22-2.55.83-.7 1.61-1.44 2.47-2.07.34-.25.86-.25 1.21-.34.65.27 1.19.49 2.05.85.25-1.18 1.9-1.25 1.96-2.71-.38-.66-1.2-1.01-1.34-2.13.16-1.15 1.05-1.94 2.36-2.12 1.04-.15 2.13-.03 3.01-.03.74-.32 1.35-.85 1.84-.75 2.02.39 3.92-.45 5.89-.38.45.01.89.18 1.14.24 1.24.62 1.45 1.77 2.07 2.72 1.86 1.16 4.12 2.06 4.37 4.76-.15.43-.31.83-.42 1.23-.01.05.22.16.33.25.69-.31 1.37-.61 2.06-.92 1.71.47 3.33.89 4.94 1.37.72.22 1.41.55 1.9.75.34.56.55.9.81 1.32 1.97-1.05 3.77-2.17 5.79-2.9 2-.72 3.61-2.36 5.72-2.45 1.48-1.32 2.85-2.52 4.02-3.56.33-1 .57-1.72.76-2.3 1.17-.78 2.19-1.46 3.05-2.04 2.64-.62 5.09-.11 7.55-.14.86.3 1.71.65 2.59.88 1.03.27 2.16.29 2.81 1.41-.12.54-.25 1.11-.41 1.78.98 1.49 1.79 3.13 1.61 5.06-.11 1.16.72 1.99 1.06 3.27-.15 1.89-.08 4 .64 6.09.33.97.16 2.11.2 2.92-.68 1.91-1.62 3.28-3.09 4.25-2.03 1.33-3.19 3.28-3.93 5.5-.72 2.18-1.39 4.38-1.96 6.6-.22.87-.24 1.83-.16 2.73.1 1.07.33 2.11.11 3.19-.09.42.06.9.16 1.34.83 3.48 2.5 6.52 4.63 9.14 3.35 1.6 6.54 3.05 9.65 4.64.88.45 1.48 1.04 1.96 2.44-.06 2.88-.14 6.23-.21 9.29-.71 1.12-1.51 1.5-2.4 1.82-1.15.41-2.25.93-3.18 1.33-1.1 1.18-2.05 2.18-2.91 3.1-.45.94-.84 1.77-1.28 2.7-.01 2.34-.47 4.76-.4 7.2.07 2.45.22 4.9.34 7.28.73 2.24 2.22 3.71 4.16 4.79.94.52 1.86 1.06 2.91 1.66.77.13 1.7.2 2.57.46.86.26 1.65.73 2.25 1 .91 1.33 1.06 2.56.67 3.76-.49 1.51-.58 2.97-.17 4.51.19.73.17 1.51.21 2.27.02.3-.05.6-.09 1.03-.79.95-1.66 1.99-2.54 3.05h-3.83c-1.38 1.24-2.74 2.47-4.18 3.77-.74 1.79-1.49 3.63-2.19 5.33.08 3.7-.04 7.22.31 10.68 1 .91 1.88 1.76 2.82 2.54s1.42 2.09 2.68 2.45c1.3.37 1.67 1.72 2.68 2.34 1.73.03 3.45.06 4.58 2.18.01 1.67-.02 3.65.03 5.64.06 2.29-.02 4.6.35 6.84.22 1.37.42 2.71.42 4.09 0 2.42.02 4.87.02 7.32zm-88.42-26.71c1.98-.81 3.97-.41 5.92-.24 3.09.27 6.1-.01 8.68-.89 2.04-.01 3.74.14 5.4-.07 3.52-.46 7.04-.42 10.56-.45 2.92-.03 5.84.01 8.43-1.12 1.12.07 2.04.2 2.95.17 1.07-.04 2.13-.22 3.2-.33.61-.06 1.25-.25 1.83-.12 1.88.42 3.63-.44 5.46-.43 1.84.02 3.69.01 5.52-.13 1.05-.08 2.08-.43 3.17-.67.67.08 1.33.78 2.33.03.26-.42.66-1.06.93-1.48v-8.41c-.32-1.19-.6-2.21-.84-3.09.18-.79.32-1.38.4-1.74-.13-1.6-.33-2.96-.33-4.32-.01-3.08-.11-6.13-.77-9.15-.16-.74-.16-1.52-.17-2.29-.03-2.15 0-4.29-.03-6.44-.03-2.76-.19-5.52-.13-8.28.06-2.9-.26-5.81.13-8.7.06-.45.02-.92.02-1.38-.01-4.91-.01-9.82-.03-14.74 0-1.07.15-2.22-.17-3.2-.63-1.94-.11-3.92-.48-5.88-.4-2.08-.2-4.28-.23-6.43-.03-2 .03-3.99-.02-5.99-.03-1.22.02-2.52-.38-3.64-.47-1.36-.45-2.71-.51-4.08-.1-2.15.07-4.34-.3-6.43-.38-2.11-.6-4.23-.9-6.35-.16-1.18-.73-2.32-1.23-3.42-.14-.32-.68-.46-1.01-.67-.78.66-1.47 1.25-2.15 1.82-2.06.11-4.07-.32-6.02.3-2.26-.68-4.58-.41-6.87-.33-1.73.06-3.33-.35-4.61-.73-1.09.22-1.84.48-2.59.5-3.06.07-6.13.15-9.2.05-1.34-.04-2.68-.5-4.03-.76-.71.28-1.42.55-2.22.86-.79-.29-1.64-.6-2.48-.91-3.39-.1-6.77.31-10.13-.26-.44-.07-.91.06-1.37.08-1.53.06-3.06.15-4.6.15-3.99.02-7.97-.02-11.96-.01-2.12.01-4.21.23-6.36.07-3.51-.25-7.06-.07-10.59-.06-.61 0-1.33-.1-1.81.17-1.31.73-2.71.42-4.06.51-2.6.18-5.21.22-7.82.28-2.15.05-4.31-.11-6.45.09-2.12.2-4.21.72-6.28 1.09-.97.59-1.79 1.26-1.78 2.48.27 1.12 1.77 1.11 2.01 2.23-1.09.53-1.63 1.39-1.79 2.83 1.06 1.91.52 4.26.49 6.52-.03 2.28 1.12 4.5.36 6.26.24 2.03.7 3.57.55 5.05-.28 2.77-.15 5.54.02 8.27.18 2.88-.68 5.86.64 8.65.06.12.01.3.01.38-.2.96-.39 1.86-.56 2.64.23.87.73 1.67.57 2.33-.41 1.72.33 3.33.23 5.01-.11 1.68.03 3.37.08 5.06.02.61-.1 1.29.13 1.83.86 2.06.52 4.24.78 6.38.25.7.5 1.42.73 2.07-.12.83-.47 1.65-.28 2.32.51 1.82.4 3.66.42 5.49.04 2.76-.02 5.52.73 8.23.2.73.17 1.52.2 2.29.16 3.51.35 7.03.43 10.54.03 1.38.06 2.73.36 4.1.22 1.02.04 2.12.04 3.49.44 2.08.94 4.48 1.51 7.15 0 .44-.67 1.1-.09 2.22.42.37 1.09.97 1.68 1.5 3.8-1.03 3.98-1.14 7.85-.94 2.91.15 5.8.57 8.69.9 2.59.29 5.17.82 7.76.88 2.78.07 5.51.23 8.03 1.08.9-.19 1.64-.34 2.33-.49 3.82.96 6.04.89 10.42-.19.41.24.82.45 1.65.89z"/><path class="st2" d="M299.02 232.77c-.22-.39-.23-.78.04-1.15h2.24c.1.44.19.8.26 1.11-.92.85-1.73.14-2.54.04z"/><path class="st0" d="M205.94 214.65c-.83-.44-1.23-.65-1.62-.86-4.38 1.08-6.6 1.15-10.42.19-.69.14-1.43.3-2.33.49-2.52-.85-5.25-1.01-8.03-1.08-2.59-.07-5.17-.59-7.76-.88-2.9-.33-5.79-.74-8.69-.9-3.88-.2-4.06-.09-7.85.94-.59-.53-1.26-1.13-1.68-1.5-.58-1.12.09-1.78.09-2.22-.56-2.68-1.07-5.07-1.51-7.15 0-1.37.18-2.47-.04-3.49-.29-1.37-.33-2.72-.36-4.1-.09-3.52-.27-7.03-.43-10.54-.03-.77 0-1.56-.2-2.29-.75-2.71-.69-5.47-.73-8.23-.03-1.83.09-3.67-.42-5.49-.19-.67.16-1.49.28-2.32-.23-.65-.48-1.37-.73-2.07-.25-2.14.09-4.32-.78-6.38-.22-.53-.11-1.21-.13-1.83-.04-1.69-.18-3.38-.08-5.06.11-1.68-.63-3.29-.23-5.01.15-.65-.34-1.46-.57-2.33.16-.78.35-1.67.56-2.64 0-.08.05-.26-.01-.38-1.32-2.8-.46-5.77-.64-8.65-.17-2.74-.3-5.5-.02-8.27.15-1.48-.3-3.02-.55-5.05.75-1.76-.39-3.98-.36-6.26.03-2.26.57-4.61-.49-6.52.16-1.44.7-2.31 1.79-2.83-.25-1.12-1.74-1.11-2.01-2.23-.01-1.21.81-1.88 1.78-2.48 2.07-.37 4.16-.9 6.28-1.09 2.13-.2 4.3-.04 6.45-.09 2.61-.06 5.22-.1 7.82-.28 1.35-.09 2.75.22 4.06-.51.49-.27 1.2-.16 1.81-.17 3.53-.02 7.08-.2 10.59.06 2.14.15 4.24-.06 6.36-.07 3.99-.02 7.97.02 11.96.01 1.53-.01 3.06-.1 4.6-.15.46-.02.93-.15 1.37-.08 3.36.57 6.74.16 10.13.26.84.31 1.69.62 2.48.91.8-.31 1.51-.59 2.22-.86 1.35.27 2.68.72 4.03.76 3.06.1 6.13.02 9.2-.05.75-.02 1.5-.28 2.59-.5 1.29.38 2.89.79 4.61.73 2.28-.08 4.61-.35 6.87.33 1.95-.62 3.97-.19 6.02-.3.68-.57 1.37-1.16 2.15-1.82.33.21.86.35 1.01.67.5 1.1 1.06 2.24 1.23 3.42.3 2.12.52 4.24.9 6.35.38 2.09.2 4.28.3 6.43.06 1.37.04 2.71.51 4.08.39 1.12.34 2.42.38 3.64.05 1.99-.01 3.99.02 5.99.03 2.15-.16 4.34.23 6.43.37 1.96-.15 3.94.48 5.88.32.98.17 2.13.17 3.2.02 4.91.02 9.82.03 14.74 0 .46.04.93-.02 1.38-.4 2.9-.07 5.8-.13 8.7-.06 2.76.09 5.52.13 8.28.03 2.15 0 4.29.03 6.44.01.76.01 1.55.17 2.29.65 3.02.76 6.08.77 9.15 0 1.36.2 2.73.33 4.32-.08.36-.22.95-.4 1.74.24.87.52 1.9.84 3.09v8.41c-.27.42-.67 1.06-.93 1.48-1 .75-1.66.05-2.33-.03-1.09.24-2.12.59-3.17.67-1.83.14-3.68.14-5.52.13-1.83-.02-3.58.84-5.46.43-.57-.13-1.22.06-1.83.12-1.07.11-2.13.29-3.2.33-.91.03-1.84-.1-2.95-.17-2.59 1.13-5.51 1.09-8.43 1.12-3.52.04-7.05-.01-10.56.45-1.65.22-3.35.06-5.4.07-2.58.88-5.59 1.15-8.68.89-1.99-.2-3.98-.6-5.95.21zm-45.31-23.62c.01 5.72-.1 10.59 1.13 15.32.51.3.87.69 1.28.74 2.73.33 5.47.5 7.54-.22 2.68.55 4.74 1.15 6.84 1.36 1.98.2 3.92.48 5.88.85 1.93.37 3.98.12 5.96.3 1.67.15 3.31.54 5.05.83 3.26-.25 6.62-.52 9.97-.76.76-.06 1.56-.17 2.29-.01 2.43.54 4.86.16 7.27.02 4.87-.27 9.8.2 14.62-.97.44-.11.92-.02 1.38-.03 2.45-.01 4.9-.02 7.35-.05 1.07-.01 2.21.11 3.2-.19 1.65-.5 3.26-.41 4.94-.45 3.66-.08 7.3-.87 10.99-.47.3.03.65.02.91-.11 2.07-.99 4.18-.62 6.23-.1.77-.42 1.43-.78 2.07-1.16.11-.07.16-.26.23-.39.26-5.68.12-8.22-.61-13.24-.18-1.21-.18-2.45-.2-3.67-.05-2.61-.04-5.22-.08-7.82-.01-.76.09-1.61-.2-2.27-.78-1.78-.58-3.62-.63-5.45-.06-2.45-.04-4.91-.05-7.36-.01-2.3-.23-4.63.06-6.9.31-2.47-.15-4.89-.04-7.33.01-.15.04-.31.03-.46-.01-3.53-.06-7.06-.02-10.59.02-1.37-.56-2.55-.92-3.46.37-.99.9-1.71.84-2.38-.28-2.89.35-5.83-.39-8.69-.25-.96.24-1.84.03-2.73-.24-1.04-.61-2.03-.57-3.14.06-1.99-.1-3.99.06-5.96.15-1.89-.17-3.66-.75-5.42-.09-.28-.04-.6-.06-.91.18-.58.37-1.16.5-1.58-.27-1.66-.47-3.17-.77-4.67-.08-.41-.41-.78-.64-1.2-2.34.04-4.63.2-6.91.09-2.27-.11-4.58.59-6.66-.25l-.92-1.15c-.92-.34-1.48.38-1.72.44-3.07.18-5.66.34-8.71.52-1.63-.34-3.74-.54-5.91-.4-2.75.17-5.52.11-8.26.05-3.65-.08-7.38.38-10.77-1.02-.88.37-1.58.66-2.14.89-1.21 0-2.29.01-3.36 0-2.75-.03-5.52-.33-8.24-.06-3.69.36-7.36-.01-11.03.27-1.87.15-3.63-.37-4.76-.8-2.42.3-4.22.64-6.04.73-1.68.08-3.35.17-5.03.42-1.32.2-2.72-.09-3.68-.14-1.59.2-2.79.45-4 .48-2.14.04-4.27.16-6.42-.08-1.03-.11-2.18.13-2.7 1.71.22 1.97.48 4.21.73 6.49-.75.61-1.45 1.19-2.14 1.75.05.31.1.58.15.86.61.42 1.58.12 2.1 1.26.03.15.2.58.22 1.03.05 1.07.01 2.15.06 3.22.18 4.58-.54 9.2.7 13.73.04.14.01.31.02.46.06 3.52.1 7.05.19 10.57.02.91.16 1.82.27 2.73.12 1.06.33 2.11.38 3.18.12 2.6.17 5.2.27 7.81.03.92.02 1.86.22 2.75.66 2.86.72 5.77.73 8.68 0 1.07-.18 2.24.16 3.2.85 2.4.68 4.82.66 7.27-.02 1.82.09 3.61.75 5.41.51 1.38.62 3.05.42 4.52-.21 1.65.34 3.03.65 4.1z"/><path class="st2" d="M160.63 191.03c-.31-1.08-.85-2.45-.63-4.09.2-1.47.09-3.14-.42-4.52-.67-1.8-.77-3.59-.75-5.41.03-2.45.2-4.87-.66-7.27-.34-.96-.16-2.13-.16-3.2-.01-2.91-.07-5.81-.73-8.68-.2-.89-.19-1.83-.22-2.75-.1-2.6-.14-5.21-.27-7.81-.05-1.06-.26-2.12-.38-3.18-.1-.91-.25-1.82-.27-2.73-.08-3.52-.13-7.05-.19-10.57 0-.15.02-.31-.02-.46-1.24-4.53-.52-9.15-.7-13.73-.04-1.07 0-2.15-.06-3.22-.02-.45-.19-.88-.22-1.03-.52-1.15-1.49-.84-2.1-1.26-.05-.28-.09-.55-.15-.86.69-.56 1.39-1.14 2.14-1.75-.26-2.27-.51-4.52-.73-6.49.52-1.58 1.67-1.82 2.7-1.71 2.15.24 4.28.12 6.42.08 1.21-.02 2.42-.28 4-.48.96.05 2.36.33 3.68.14 1.68-.25 3.34-.34 5.03-.42 1.82-.09 3.63-.42 6.04-.73 1.13.43 2.88.95 4.76.8 3.67-.29 7.35.09 11.03-.27 2.72-.27 5.49.03 8.24.06 1.07.01 2.14 0 3.36 0 .56-.23 1.26-.52 2.14-.89 3.39 1.4 7.12.94 10.77 1.02 2.74.06 5.51.12 8.26-.05 2.16-.13 4.27.06 5.91.4 3.05-.18 5.64-.34 8.71-.52.24-.06.8-.78 1.72-.44.24.3.53.65.92 1.15 2.08.84 4.39.14 6.66.25 2.28.11 4.57-.05 6.91-.09.23.42.56.78.64 1.2.29 1.5.5 3.01.77 4.67-.13.42-.32 1-.5 1.58.02.3-.03.63.06.91.58 1.76.9 3.53.75 5.42-.16 1.98 0 3.98-.06 5.96-.03 1.11.33 2.1.57 3.14.21.89-.28 1.77-.03 2.73.74 2.85.11 5.79.39 8.69.07.67-.47 1.39-.84 2.38.35.91.93 2.09.92 3.46-.04 3.53.01 7.06.02 10.59 0 .15-.03.31-.03.46-.12 2.44.35 4.85.04 7.33-.29 2.26-.07 4.6-.06 6.9.01 2.45-.01 4.91.05 7.36.05 1.83-.16 3.67.63 5.45.29.66.19 1.51.2 2.27.04 2.61.03 5.22.08 7.82.02 1.23.02 2.46.2 3.67.73 5.03.87 7.56.61 13.24-.08.13-.12.32-.23.39-.64.38-1.31.74-2.07 1.16-2.05-.52-4.16-.9-6.23.1-.26.13-.61.14-.91.11-3.69-.39-7.33.39-10.99.47-1.68.04-3.29-.05-4.94.45-1 .3-2.13.17-3.2.19-2.45.03-4.9.03-7.35.05-.46 0-.94-.08-1.38.03-4.82 1.17-9.74.7-14.62.97-2.41.13-4.84.51-7.27-.02-.73-.16-1.53-.04-2.29.01-3.35.24-6.71.51-9.97.76-1.73-.29-3.38-.68-5.05-.83-1.98-.18-4.02.07-5.96-.3-1.96-.37-3.9-.65-5.88-.85-2.1-.21-4.16-.81-6.84-1.36-2.07.72-4.81.55-7.54.22-.41-.05-.78-.44-1.28-.74-1.26-4.73-1.15-9.61-1.15-15.33zm49.85-71.18.07-.07c-.61-.09-1.17-.04-1.72.93-.14 1.24-.11 2.85 0 4.41.52.44.96.82 1.34 1.14.53 1.29 1.03 2.51 1.52 3.72-1.54.43-3.09.85-4.58 1.27-.51 1.88-.97 3.58-1.43 5.29-.84.58-.46 1.65-.94 2.35-.49.71-1.06 1.35-1.53 1.94v1.93c-1.17.11-2.36.56-3.4-.06-.51-1.21-.5-2.32-.14-3.29 1.13-3.03.48-6.02.05-9.19.13-.57.43-1.32.44-2.06.11-5.97.16-11.93.21-17.9 0-.6-.15-1.19-.23-1.8-.5-.44-.95-.84-1.38-1.22-1.9-.25-3.69-.36-5.47.4-.67.29-1.5.36-2.25.33-2.28-.11-4.59.06-6.61-.82-1.08.21-1.97.43-2.87.55-.89.12-1.8.15-2.76.22-2.29 2.33-4.51 4.63-6.78 6.89-2.38 2.37-4.81 4.71-7.31 7.15-.26.9-.56 1.93-.78 2.68.31 1.43.57 2.6.82 3.78.43.63.86 1.26 1.37 2v2.18c-.94.57-1.64 1.33-1.95 2.57.28 1.89 1.89 2.43 3.4 3.02 1.52-.4 2.97-.78 4.32-1.13 1.24-.76 1.84-2.16 3.22-2.55.93.5 1.29 1.28 1.28 2.27-.23.56-.47 1.12-.7 1.67.68 2.96.68 2.96.11 5.4.81 1.3.65 2.81.48 4.32-1.36.15-2.75.15-4.06.48-1.45.37-2.9.67-4.4.71l-1.21 1.43c-.19 1.4-.37 2.74-.55 4.09-.98.52-1.65 1.33-2.11 2.4 1.03 2.11.23 4.47.64 6.54.63 1.25 1.18 2.36 2.73 2.91 3.52-.65 7.35-.07 11.06-.37.97-.31 1.83-.59 2.64-.85.96.32 1.82.6 2.76.92 1.27-.43 2.56-.86 3.72-1.25.76.16 1.35.29 1.67.36 1.78-.26 3.32-.81 4.77-.64 4.45.52 8.83-.2 13.05-.36 1.62-.98 2.14-2.39 2.5-3.9.88-.17 1.77-.32 2.65-.51.78-.17 1.37-.58 1.71-1.59-.09-.52-.24-1.25-.34-1.98-.42-2.83-.52-5.65.3-8.44 1.32-.28 2.64-.64 3.98-.81 1.33-.16 2.68-.13 3.67-.17 1.14-.46 2.01-.71 2.77-1.16.75-.45 1.36-1.1 1.95-1.59.88-.09 1.62-.17 2.32-.24.8-1.64 1.52-3.13 2.19-4.5v-2.42c.09-1.81.19-3.62.27-5.05.34-1.21.59-2.06.84-2.94-.71-1.26-1.42-2.42-2.03-3.62-.35-.7-.4-1.45.46-2.09.61-.17 1.33-.38 2.06-.58.2.96.39 1.92.6 2.91.39.12.8.24 1.2.36.43.96.84 1.92 2.02 2.23.23.06.38.43.56.65-.08 1.06-.17 2.13-.27 3.4.5 1.87 1.12 3.93.78 6.04-.31.76-.59 1.46-.66 1.64v5.98l1.21 1.07h3.89l1.78-.73c2.28.3 4.55.12 6.95.05.42-.63.85-1.25 1.25-1.88.41-.64.79-1.29 1.19-1.95-.31-2.46.19-4.92-.55-7.31-.04-.14-.02-.3-.01-.05.36-1.72.63-3.06.95-4.39.06-.26.35-.47.55-.72 1.03-.19 2.07-.37 3.16-.57 1.08-.81 2.16-1.62 3.26-2.43.05-1.96.11-3.78.13-5.61s0-3.66 0-5.25c-1.61-3.16-1.61-3.16-3.93-4.7h-17.3c-.78 0-1.51.19-2.11.86-.57 1.49-1.17 3.05-1.76 4.61-.67.16-1.34.32-2.01.49-1.05-1.05-.89-2.52-1.31-3.78-.23-.7-.25-1.5-1.09-1.9-3.1-.3-6.23-.63-9.28.55-.12.05-.29-.05-.44-.08-.23-.17-.55-.53-.69-.47-2.69 1.12-5.74 1.35-8.11 3.25-.22.18-.35.48-.52.73-.08.44-.15.89-.23 1.33.16.24.12.43-.12.58-.85.42-.95 1.17-.9 1.99zm-1.74 78.23c.71 1.26.84 2.47 2.14 2.72.29-.11.57-.21 1.08-.4 1.21-1.88 2.81-3.72 3.07-6.35.12-1.16.85-2.26 1.75-3.34 1.39.19 2.93-.05 4.17.61 1.65 1.84-.28 3.3-.2 4.63.14 1.37.42 2.38 1.4 3.03 1.95.26 1.99.33 2.65-.09.49-.31.85-.83 1.33-1.31-.37-3.55.11-7.05.06-10.1-.31-1.34-1.12-2.02-.9-3.23.14-.38.34-.96.55-1.54-.75-1.88-.67-3.9-.73-5.87-.08-2.8-.81-5.37-2.02-7.78-1.6.02-1.58.04-1.88.28-2.14 1.65-3.26 3.95-4.22 6.39-1.62 4.12-2.47 8.5-4.27 12.56-.24.54-.18 1.21-.36 1.79-.64 2.03-1.14 4.11-2.53 5.84-.45.56-.68 1.32-1.09 2.16zm28.8 1.47c2.72-.35 4.05-2.81 5.92-4.56.3-1.18.59-2.36.9-3.59-.43-4.15-2.25-7.49-5.81-9.86-1.58-1.05-2.55-2.61-3.18-4.59.52-1.13 1.09-2.37 1.68-3.64.7-.38 1.36-.76 2.05-1.07.26-.12.6-.07 1.14-.11l4.19 1.97c.89-.14 1.21-.62 1.42-1.23-1.1-3.06-1.1-3.06-3.94-4.93h-4.42c-1.18.78-2.33 1.54-3.34 2.21-1.7 2.39-2.95 4.79-3.34 7.71.39.74.85 1.53 1.25 2.36.4.82.74 1.67 1.17 2.65 1.54 1.32 3.17 2.7 4.92 4.2.93 1.4 1.75 3.02 1.85 4.85-1.47 2.06-1.47 2.06-3.03 2.58-1.5-.75-2.34-2.45-4.34-2.92-.34.13-.88.33-1.29.48-.58 1.4-.6 2.57-.09 3.76 1.99 1.1 3.08 3.55 6.29 3.73zm-53.62 1.03c2.11-1.02 3.31-2.96 4.4-4.99.08-1.06.5-2.15-.63-3.14-.77.15-1.65.33-2.34.47-1.05 1.22-1.95 2.25-2.88 3.32-.41.16-.82.37-1.26.48-.59.15-1.19.25-1.79.35-.45.07-.92.05-1.36.16-.57.14-1.07.61-1.81.32-1.59-1.54-3.08-3.26-4.22-5.27-.32-1.5-.64-2.99-.96-4.45.32-1.51.63-3 .96-4.59 1.17-1.51 2.39-3.09 3.45-4.46 1.89-.91 3.54-1.7 5.14-2.48.79-.11 1.56-.18 2.3-.35.26-.06.46-.36.69-.55.11-.78.11-1.53-.64-2.09-1.15-.26-2.34-.53-3.23-.73-4.41.46-7.16 3.12-9.55 5.45-2.37 3.37-3 6.83-3.32 8.89.08 4.84 1.73 7.81 2.85 10.61 2.29 2.82 5.31 3.47 8.1 4.27 2.14-.42 4.07-.81 6.1-1.22zm71.64-27.83c.72-.12 1.48-.2 2.21-.37.7-.16.97-1.27 1.98-.84.54.4 1.14.84 1.75 1.29.12-.35.39-.72.29-.87-.64-1.02-1.35-2-1.97-2.9-1.26-.47-2.39-.9-3.54-1.29-.27-.09-.6-.01-.96-.01-.88.51-1.8 1.06-2.78 1.63-.65.79-1.32 1.61-2.03 2.48-.16.56-.31 1.16-.51 1.73-.25.71-.54 1.41-.85 2.2.32 1.17.84 2.32.92 3.5.11 1.8.79 3.28 1.98 4.51 1.63 1.69 2.58 3.77 3.55 5.71v4.24c-.49.65-.95 1.25-1.31 1.74-1.29.26-2.32.22-3.13-.73-.65-1.32-.43-3.07-1.89-4.02-.99-.35-1.79-.1-2.41.75-1.16 2.41.46 4.4.92 6.63 1.08.64 2.13 1.26 3.02 1.78h4.3c1.33-.88 2.6-1.71 3.67-2.42 1.73-4.06 1.73-4.06 1.07-9.15-1.47-3.53-4.12-6.35-6.13-9.71-.1-1.94-.05-3.9 1.85-5.88zm-58.87 21.29c0-1.17-.01-2.38 0-3.6.02-2.13-.08-4.23.66-6.33.38-1.1.38-2.46.13-3.62-.44-2.06-.68-4.18-1.38-6.18-.2-.57-.32-1.17-.54-1.74-.1-.27-.33-.49-.49-.74-.28-.08-.56-.17-.92-.27-.31.25-.65.53-1.08.88-.03 1.34-.09 2.71-.08 4.08 0 2.29.04 4.58.07 6.87.02 2.13-.11 4.25-.89 6.13.69 2.86.71 2.86.16 5.46-.29 1.37-.29 2.72-.01 4.31.35.42.83.98 1.25 1.47 1.09.07 2 .13 2.73.18 1.32-.48 2.48-.85 3.6-1.32 1.11-.47 2.33-.78 3.04-1.88.24-1.69.26-1.69-.41-2.75-1.72-1.07-2.99.51-4.56.48-.38-.43-.78-.87-1.28-1.43z"/><path class="st0" d="M232.28 122.93c-.73.21-1.45.41-2.06.58-.85.64-.81 1.39-.46 2.09.61 1.21 1.31 2.36 2.03 3.62-.25.88-.5 1.73-.84 2.94-.08 1.43-.17 3.24-.27 5.05-3.9 4.47-3.9 4.47-8.79 7.51-.12.08-.28.11-.6.22-.72-.09-1.6-.21-2.54-.33-.94.29-1.94.6-2.84.88-.51-.31-.9-.55-1.32-.8-.34.25-.7.52-1.03.77-.19 1.37-.19 1.37.27 2.64-.82 2.79-.72 5.61-.3 8.44.11.73.25 1.45.34 1.98-.34 1.01-.93 1.42-1.71 1.59-.88.19-1.77.34-2.65.51-2.44-.06-4.87-.11-7.7-.17-2.85 1.26-6.29.3-9.28.89-.88-.26-1.46-.44-1.95-.58-1.14.26-2.14.8-3.24.45-1.25-.4-2.41.23-3.62.27-1.07.03-2.14.07-3.22.09-1.22.02-2.43 0-3.43 0-.76.32-1.31.55-1.77.74-1.4-.65-2.62-1.28-3.9-1.77-.54-.21-1.2-.12-1.64-.16-.82.46-1.48.83-2.04 1.15-.43-.14-.72-.23-1.14-.37-.57-2.02-.01-4.2-.5-6.29.18-1.35.36-2.7.55-4.09l1.21-1.43c1.5-.04 2.95-.34 4.4-.71 1.31-.33 2.7-.33 4.06-.48 1.2.28 2.37.34 3.2-.47-.1-1.66-.28-3.16-.28-4.66.01-4.57.11-9.14-.11-13.7-.01-.24-.23-.47-.36-.72-1.02.35-2.02.69-2.24.77-2.84 1.84-5 3.24-6.77 4.39-1.86.58-2.77-.21-3.61-1.17v-2.18c-.51-.74-.94-1.37-1.37-2-.26-1.18-.51-2.35-.82-3.78.22-.75.51-1.77.78-2.68 2.5-2.44 4.93-4.78 7.31-7.15 2.27-2.26 4.49-4.56 6.78-6.89.96-.07 1.86-.1 2.76-.22s1.79-.34 2.87-.55c2.02.88 4.33.71 6.61.82.75.04 1.57-.04 2.25-.33 1.78-.76 3.57-.65 5.47-.4.43.38.88.78 1.38 1.22.08.61.23 1.21.23 1.8-.05 5.97-.11 11.93-.21 17.9-.01.75-.31 1.49-.44 2.06.42 3.17 1.08 6.16-.05 9.19-.36.97-.37 2.09.14 3.29 1.04.63 2.23.17 3.4.06 1.02.16 2.06.43 2.92-.51-.15-1.9-.29-3.81-.44-5.71.46-1.71.92-3.42 1.43-5.29 1.49-.41 3.04-.84 4.58-1.27 1.22 1.11 2.87.83 4.1 1.4 1.17-.4 2.36-.1 3.2-1.07-.25-.35-.5-.71-.73-1.04-.98-.18-1.87-.35-2.67-.5-1.94-1.45-3.71-2.88-5.04-4.82v-4.18l-.07.07c.86-.41.89-1.19.9-1.99.24-.15.28-.34.12-.58.52-.31 1.1-.53 1.53-.93 1.81-1.68 4.39-1.89 6.3-3.38.44-.35 1.14-.37 1.71-.54.15.03.32.13.44.08 3.05-1.18 6.19-.85 9.28-.55.83.4.85 1.2 1.09 1.9.42 1.27.26 2.74 1.31 3.78-.16.72-.34 1.44-.46 2.17-.18 1.06-.3 2.1-.44 3.13zm-61.95 35.38c4.34-.56 8.27-1.26 11.96-.62l4.29-1.16c1.77.52 3.58-.4 5.37.2.7.23 1.67.39 2.25.08 1.49-.8 2.99-.35 4.42-.25 1.86.13 3.65.11 5.33-.42.84.15 1.59.29 2.22.4.85-.32 1.57-.59 2.42-.92.02-.75.19-1.53.04-2.24-.3-1.37-.33-2.72-.2-4.1.04-.37-.32-.78-.47-1.11-2.07-.11-3.92.84-5.96.25-1.88-.54-3.94-.36-5.78-.9-.38-.42-.72-.74-.99-1.11-.36-.49-.66-1.01-.97-1.48.08-1.77.15-3.45.22-5.13 1.01-1.98.82-4.14.86-6.24.09-5.2.11-10.41.12-15.61.01-1.68-.08-3.37-.14-5.05 0-.13-.13-.27-.27-.55-1.09.02-2.26.05-3.43.06-1.23.01-2.48.17-3.67-.03-1.27-.21-2.34.54-3.59.38-1.2-.16-2.43-.03-3.87-.03-.82.92-1.93 1.83-2.56 2.99-.76 1.4-1.88 2.42-2.96 3.47-1.21 1.16-2.58 2.16-3.9 3.2-.84.66-1.77 1.21-2.19 2.28.17.56.34 1.11.5 1.68.18.63-.54 1.48.56 1.99 3.2-1.99 6.42-3.99 9.65-5.99.13-.08.28-.11.43-.15.15-.03.3-.04.55-.06.31.2.68.44.99.63 1.18 3.73 1.96 7.41 1.21 10.96.33.99 1.11 1.48.89 2.53-.18.55-.41 1.27-.65 2.01.25.71.6 1.4.72 2.14.12.74.13 1.55-.03 2.28-.24 1.08-.17 2.09-.01 3.17.15 1.04-.07 2.13-.12 3.05-.44 1.33-1 2.39-2.33 3.29-.64.02-1.58-.08-2.45.11-1.79.4-3.56.87-5.42.54-1.23.53-2.81.14-3.85 1.48.67 1.1.84 2.38.81 3.98zm53.69-28.02c-1.24 2.17-2.29 4.01-3.36 5.89-.97.1-1.88.29-2.78.25-2.14-.07-4.27-.26-6.4-.37-.28-.01-.57.18-.85.28-1.09 1.73-1.09 1.73-.2 3.27 3.01.87 6.21.88 9.29 1.22 2.34-.78 3.94-2.46 5.65-3.87.52-1.02 1-1.96 1.4-2.77-.07-1.71-.14-3.23-.2-4.7-.74-1.03-1.46-2.01-2.15-3-.78-1.11-1.54-2.24-2.3-3.33v-1.91c2.13-1.63 4.53-2.52 7.11-2.99.07-.01.16.1.24.16-.1-.11-.23-.2-.3-.33-.58-.97-.52-2.45-1.85-2.57-2.89.73-5.54 1.39-7.88 1.98-1.55 1-2.82 1.83-4.04 2.61-.38.75-1.05 1.25-.96 2.1.18.24.32.54.55.72.73.55 1.49 1.06 2.31 1.64 1.73.28 3.55.53 5.27 2.02.39.96.88 2.23 1.45 3.7zM235.17 117.16c.6-1.56 1.19-3.12 1.76-4.61.6-.67 1.33-.86 2.11-.86 5.8-.01 11.6 0 17.3 0 2.32 1.54 2.32 1.54 3.93 4.7 0 1.59.02 3.42 0 5.25s-.08 3.65-.13 5.61c-1.09.82-2.18 1.63-3.26 2.43-1.09.2-2.13.38-3.16.57-.2.25-.49.46-.55.72-.32 1.33-.58 2.67-.95 4.39-.02-.25-.04-.09.01.05.74 2.39.24 4.85.55 7.31-.4.66-.79 1.31-1.19 1.95-.4.63-.82 1.24-1.25 1.88-2.4.07-4.67.25-6.95-.05-.55-1-1.54-.75-2.41-.86-.28-.03-.56-.17-1.04-.32-.3-.5-.67-1.14-1.07-1.82.19-1.85.1-3.74.62-5.45.7-2.31.5-4.48-.14-6.55.09-1.02.89-1.81.3-2.76-1.08-.64-2.02.01-2.99.35-.18-.23-.33-.59-.56-.65-1.18-.31-1.59-1.27-2.02-2.23-.15-.42-.3-.84-.49-1.36 1.29-1.18.69-3.13 1.73-4.39-.05-1.17-.1-2.23-.15-3.3zm13.54 10.7c.89-1.54 2.01-2.53 3.55-3.01.98-.3 2.02 1.1 3.07-.23.53-1.13.45-2.5.58-3.72-.29-1.51-.84-2.73-1.74-3.68-.24-.1-.38-.21-.52-.21-4.28-.06-8.55-.11-12.95-.16-.52.88-1.06 1.78-1.55 2.6.16 1.62-.4 3.17.43 4.5 1.55.2 2.63-1.1 3.99-.87.99.53 1.22 1.39 1.29 2.6-.3.76-.68 1.74-1.1 2.81 0 .53-.08 1.16.01 1.76.41 2.56.3 5.09-.04 7.65-.18 1.33-.03 2.69-.03 3.92.28.21.4.37.51.37.6-.02 1.2-.07 1.66-.11 1.1-.92 1.79-1.9 2.12-3.33-.11-1.19-.43-2.57-.31-3.91.2-2.39.69-4.77 1.03-6.98zM208.74 198.08c.41-.83.64-1.6 1.11-2.17 1.39-1.72 1.89-3.81 2.53-5.84.18-.58.12-1.25.36-1.79 1.8-4.06 2.65-8.44 4.27-12.56.96-2.44 2.08-4.74 4.22-6.39.3-.23.28-.26 1.88-.28 1.21 2.41 1.94 4.98 2.02 7.78.06 1.97-.02 3.99.73 5.87-.21.59-.42 1.16-.55 1.54-.22 1.21.59 1.9.9 3.23.05 3.05-.43 6.55-.06 10.1-.48.49-.84 1-1.33 1.31-.65.42-.7.35-2.65.09-.99-.65-1.27-1.67-1.4-3.03-.08-1.32 1.84-2.79.2-4.63-1.24-.66-2.78-.42-4.17-.61-.9 1.08-1.64 2.18-1.75 3.34-.26 2.63-1.86 4.46-3.07 6.35-.5.19-.78.29-1.08.4-1.32-.24-1.45-1.45-2.16-2.71zm9.4-11.31c1.23.85 2.2.23 3.13-.6.3-2.02.44-3.99-.05-5.96-.29-.1-.55-.19-1.28-.45.07 2.43-1.72 4.17-1.93 6.51-.01.14.07.28.13.5zM237.54 199.55c-3.22-.18-4.3-2.63-6.28-3.73-.51-1.19-.49-2.37.09-3.76.41-.15.95-.35 1.29-.48 2 .46 2.84 2.17 4.34 2.92 1.56-.51 1.56-.51 3.03-2.58-.1-1.83-.92-3.45-1.85-4.85-1.76-1.5-3.38-2.89-4.92-4.2-.43-.98-.77-1.83-1.17-2.65s-.85-1.62-1.25-2.36c.39-2.92 1.64-5.32 3.34-7.71 1.01-.67 2.16-1.43 3.34-2.21h4.42c2.84 1.87 2.84 1.87 3.94 4.93-.2.61-.53 1.09-1.42 1.23l-4.19-1.97c-.55.05-.88-.01-1.14.11-.69.31-1.34.7-2.05 1.07-.59 1.28-1.16 2.52-1.68 3.64.63 1.98 1.6 3.54 3.18 4.59 3.57 2.37 5.38 5.71 5.81 9.86-.31 1.23-.61 2.41-.9 3.59-1.88 1.75-3.21 4.21-5.93 4.56zM183.92 200.58c-2.03.41-3.97.8-6.07 1.23-2.79-.8-5.8-1.46-8.1-4.27-1.13-2.8-2.77-5.76-2.85-10.61.32-2.07.95-5.52 3.32-8.89 2.38-2.33 5.14-4.99 9.55-5.45.89.2 2.08.47 3.23.73.75.56.75 1.31.64 2.09-.23.19-.43.49-.69.55-.74.17-1.51.24-2.3.35-1.61.77-3.25 1.57-5.14 2.48-1.06 1.37-2.28 2.94-3.45 4.46-.33 1.59-.65 3.07-.96 4.59.31 1.46.63 2.95.96 4.45 1.14 2 2.63 3.72 4.22 5.27.74.28 1.24-.18 1.81-.32.44-.11.91-.09 1.36-.16.6-.09 1.2-.19 1.79-.35.44-.12.85-.32 1.26-.48.92-1.06 1.82-2.1 2.88-3.32.7-.14 1.57-.32 2.34-.47 1.14.99.71 2.08.63 3.14-1.12 2.02-2.32 3.97-4.43 4.98zM255.56 172.75c-1.9 1.98-1.94 3.95-1.86 5.85 2.02 3.36 4.66 6.18 6.13 9.71.66 5.1.66 5.1-1.07 9.15-1.08.71-2.35 1.55-3.67 2.42h-4.3c-.89-.53-1.94-1.15-3.02-1.78-.46-2.23-2.08-4.21-.92-6.63.62-.84 1.42-1.09 2.41-.75 1.47.95 1.24 2.7 1.89 4.02.81.95 1.84.99 3.13.73.36-.48.82-1.08 1.31-1.74v-4.24c-.97-1.94-1.92-4.01-3.55-5.71-1.19-1.23-1.87-2.71-1.98-4.51-.07-1.18-.6-2.34-.92-3.5.31-.78.6-1.48.85-2.2.2-.57.35-1.17.51-1.73.71-.86 1.39-1.69 2.03-2.48.98-.57 1.9-1.11 2.78-1.63.36 0 .69-.08.96.01 1.15.39 2.28.82 3.54 1.29.63.9 1.34 1.88 1.97 2.9.09.15-.17.52-.29.87-.61-.45-1.2-.89-1.75-1.29-1.01-.42-1.29.69-1.98.84-.73.2-1.48.28-2.2.4zM196.69 194.04c.5.56.9 1 1.28 1.43 1.58.02 2.85-1.56 4.56-.48.67 1.06.65 1.06.41 2.75-.71 1.1-1.94 1.41-3.04 1.88-1.12.47-2.28.84-3.6 1.32-.74-.05-1.65-.11-2.73-.18-.42-.49-.9-1.06-1.25-1.47-.28-1.59-.29-2.94.01-4.31.56-2.6.54-2.6-.16-5.46.78-1.88.91-3.99.89-6.13-.02-2.29-.06-4.58-.07-6.87 0-1.37.05-2.73.08-4.08.43-.35.77-.62 1.08-.88.35.11.64.19.92.27.17.25.39.47.49.74.21.57.34 1.17.54 1.74.7 2.01.95 4.12 1.38 6.18.24 1.16.25 2.52-.13 3.62-.74 2.09-.64 4.2-.66 6.33v3.6z"/><path class="st2" d="M218.14 186.77c-.06-.22-.13-.36-.12-.5.21-2.34 2-4.07 1.93-6.51.73.26.99.35 1.28.45.49 1.96.35 3.94.05 5.96-.94.83-1.92 1.45-3.14.6z"/></svg>