<?xml version="1.0" encoding="utf-8"?>
<!-- Generator: Adobe Illustrator 26.0.1, SVG Export Plug-In . SVG Version: 6.00 Build 0)  -->
<svg version="1.1" id="Layer_1" xmlns="http://www.w3.org/2000/svg" xmlns:xlink="http://www.w3.org/1999/xlink" x="0px" y="0px"
	 viewBox="0 0 458 320" style="enable-background:new 0 0 458 320;" xml:space="preserve">
<style type="text/css">
	.st0{fill:#131112;}
	.st1{fill:#FF5543;}
	.st2{fill:#6B59E9;}
</style>
<g>
	<path class="st0" d="M121.98,83.18c0.63-1.49-0.23-3.04,0.13-4.45c1.45-2.09,4.46-1.49,5.73-3.66c1.05-0.14,2.12-0.19,3.14-0.46
		c1.03-0.27,2-0.77,2.98-1.16c0.47,0.21,0.87,0.39,1.18,0.53c0.87-0.62,1.73-1.23,2.55-1.82c1.93-0.15,3.75-0.25,5.24-0.01
		c1.09,0.5,1.47,1.2,1.75,1.9c1.23,3.05,3.17,5.52,5.61,7.33c2,1.15,4.1,0.95,5.89,1.55c1.59-0.35,3.08-0.67,4.52-0.98
		c2.54-1.78,2.63-4.76,3.75-7.08c-0.14-0.91-0.26-1.67-0.4-2.58c0.21-0.42,0.47-0.96,0.68-1.41c0.41-0.18,0.69-0.43,0.96-0.41
		c2.76,0.15,5.48,0.1,8.1-0.91c0.42-0.16,0.91-0.34,1.34-0.28c1.9,0.25,3.62-0.39,5.37-0.96c0.42-0.14,0.9-0.2,1.34-0.18
		c2.75,0.12,5.36-1.39,8.55-0.58c0.41,0.33,1.12,0.89,1.83,1.46c0.65,2.39,1.43,4.68,2.83,6.9c1.9,1.04,3.9,2.13,6.04,3.3
		c1.84-0.85,4.13,0.02,6.39-1.25c0.91-0.78,2.07-1.78,3.35-2.88c0.98-1.74,2.03-3.6,3.26-5.78c0.07-0.87,0.16-2.08,0.26-3.45
		c0.68-0.52,1.4-1.07,1.96-1.5c0.52-0.07,0.83-0.2,1.11-0.15c4.57,0.82,9.16,0.62,13.74,0.26c1.95-0.15,3.85-0.9,6.21-1.48
		c1.12-0.02,2.59,0.27,4,1.71c0.18,0.56,0.65,1.41,0.67,2.28c0.02,1.1,0.15,2.09,0.61,3.09c0.33,0.73,0.13,1.49-0.43,2.11
		c1.12,0.49,2.28,0.86,3.3,1.48c0.88,0.55,1.58,1.38,2.41,2.12c1.58-0.4,3.05-0.77,4.68-1.19c0.74-0.56,1.6-1.2,2.51-1.88
		c0.43-0.92,0.87-1.89,1.37-2.96c0.16-2.01,0.9-4.1,0.1-6.39c0.41-1.02,0.86-2.12,1.32-3.24c4.5,0.5,8.88,0.99,13.26,1.48
		c0.66,0.37,1.33,0.73,2.05,1.13c0.74-0.2,1.48-0.39,2.44-0.65c0.53,0.18,1.24,0.42,1.98,0.68c1.18,0.03,2.35-0.35,3.6-0.17
		c1.19,0.18,2.43,0.04,3.91,0.04c0.7,0.4,1.62,0.91,2.49,1.4c0.29,1.35,0.55,2.53,0.83,3.84c-0.11,0.62-0.25,1.37-0.42,2.3
		c0.69,1.9,0.93,4.01,0.9,6.18c-0.02,1.37-0.07,2.72,0.52,4.06c0.35,0.8,0.26,1.8,0.35,2.72c0.08,0.76-0.06,1.63,0.27,2.25
		c0.78,1.47,0.61,2.97,0.5,4.39c0.67,2.44,1.35,4.77,1.93,7.13c0.14,0.56-0.05,1.21-0.1,1.93c-0.88,0.8-1.78,1.62-2.72,2.48
		c-0.58,0.1-1.18,0.2-2,0.35c-1.07,0.78-2.3,1.68-3.45,2.53c-1.42,2.35-2.26,4.77-2.75,7.35c-0.48,2.55,0.53,4.81,1.08,7.2
		c0.91,1.21,1.95,2.32,3.44,3.18c2.3,0.17,4.72,0.34,6.93,0.5c1.75,0.86,2.41,2.19,2.57,3.8c0.14,1.37,0.27,2.75,0.28,4.12
		c0.02,2,0.11,3.94,0.83,5.87c0.42,1.11,0.36,2.41,0.48,3.63c0.12,1.21,0.13,2.38,0.63,3.57c0.59,1.4,0.63,2.99-0.34,4.66
		c-0.32,0.19-0.83,0.51-1.33,0.81c-0.8-0.06-1.55-0.12-2.47-0.18c-0.96,0.52-2.04,1.1-3.07,1.66c-0.13,0.16-0.28,0.26-0.31,0.39
		c-0.4,1.79-1.46,3.36-1.85,5.13c-0.33,1.48-0.35,3.02-0.51,4.54c0.5,1,0.97,1.94,1.44,2.89c1.19,0.56,2.28,1.12,3.41,1.57
		c0.71,0.28,1.48,0.39,2.29,0.59c0.68,0.53,1.4,1.09,2.13,1.66c0.58,0.17,1.16,0.34,1.77,0.52c0.24,0.56,0.48,1.12,0.72,1.7
		c-0.11,0.62-0.21,1.22-0.33,1.87c0.02,0.25-0.04,0.57,0.07,0.84c0.41,1.01,0.59,2.04,0.57,3.14c-0.04,2.15-0.01,4.3-0.01,6.52
		c0.26,0.65,0.54,1.36,0.89,2.26c-0.19,0.56-0.43,1.28-0.56,1.66c0.35,2.57,0.75,4.82,0.94,7.1c0.11,1.31-0.43,2.41-1.92,2.71
		c-3.51-0.86-3.51-0.86-6.12,0.29c-1.33,1.37-1.64,3.22-2.25,4.9c0.16,0.61,0.32,1.2,0.46,1.74c0.36,0.11,0.69,0.34,0.91,0.27
		c1.71-0.59,3.26-1.64,5.25-1.28c0.69,0.12,1.48-0.31,2.22-0.51c0.59-0.16,1.18-0.54,1.75-0.51c2.94,0.16,5.76-0.72,8.65-0.92
		c1.53-0.11,3.04-0.16,4.52-0.67c0.7-0.24,1.51-0.23,2.27-0.25c3.06-0.05,6.13-0.13,9.19-0.06c2,0.04,4.03,0.11,5.93-0.43
		c2.15-0.61,4.23,0.2,6.34-0.1c0.55-0.08,1.16,0.32,1.84,0.52c0.5-0.17,1.08-0.36,1.88-0.62c2.78,0.82,5.85,0.46,8.89,0.57
		c2.9,0.89,5.66,2.23,8.71,2.65c0.93,0.13,1.74,0.65,2.31,1.4c0.84,1.09,1.61,2.22,2.21,3.07c0.87,3.8-1.53,6.45-2.01,9.33
		c-2.66,3.23-5.64,5.54-9.2,7.1c-2.52,1.11-4.93,2.53-7.53,3.38c-5.21,1.68-10.17,4.06-15.51,5.33c-0.44,0.11-0.97,0.15-1.3,0.41
		c-2.22,1.82-5.15,1.88-7.59,3.15c-3.46,0.72-6.71,2.12-10.07,3.16c-2.18,0.67-4.21,1.85-6.51,1.55c-0.48,0.72-0.81,1.22-1.02,1.52
		c-0.39,1.61,0.6,2.96-0.06,4.31c-0.27,0.52-0.27,0.52-1.81,1.3c-1.37,0-2.77,0.18-4.1-0.05c-1.24-0.22-2.41,0.53-3.61,0.04
		c-1.4,0.24-2.7-0.22-3.9-0.63c-2.6,0.86-5.22,0.74-7.82,0.77c-0.41,0.01-0.83-0.28-1.16-0.4c-0.8-1.18-0.94-2.33-0.67-3.6
		c0.18-0.87,0.14-1.8,0.23-3.02c-3.07-2.33-5.59-5.46-9.79-6.91c-2.13,0-4.57,0-6.83,0c-1.25,0.75-2.29,1.38-3.32,2
		c-0.78,1.73-1.8,3.26-2.35,5.08c0.68,1.4,1.54,2.69,1.73,4.24c-0.29,1.07-0.82,1.96-1.88,2.45c-1.36,0.23-2.71,0.49-4.06,0.69
		c-1.52,0.22-3.15,0.1-4.53,0.64c-1.38,0.54-2.66-0.22-4,0.25c-1.12,0.39-2.42,0.38-3.64,0.37c-1.55-0.01-3.03,0.11-4.54,0.52
		c-1.76,0.47-3.59,0.69-5.63,1.06c-0.93-0.68-2.54-0.39-3.52-1.84c-0.09-0.9-0.2-1.95-0.32-3.1c-1.92-1.95-3.93-3.84-5.75-5.9
		c-1.12-1.27-3.01-1.59-3.77-3.24c-0.85-0.3-1.78-0.48-2.54-0.94c-2.07-1.23-4.3-1.42-6.72-1.44c-0.73,0.82-1.45,1.59-2.13,2.4
		c-0.67,0.81-1.31,1.65-1.9,2.41c0,1.79,0,3.47,0,5.04c1.55,2.07,3.01,4.02,4.3,5.75c0.17,1.36-0.34,2.07-1.25,2.67
		c-0.35,0.06-0.8,0.16-1.25,0.21c-4.56,0.49-9.2-0.45-13.71,0.83c-1.36-0.66-2.67,0.13-4.01,0.15c-1.53,0.02-3.05,0.09-4.58,0.09
		c-0.76,0-1.55,0-2.28-0.18c-0.88-0.22-1.76-0.56-2.08-1.69c0.18-0.65,0.38-1.37,0.62-2.28c-0.64-1.23-1.33-2.58-1.96-3.8
		c-1.8-2.08-3.54-4.02-5.66-5.56c-2.09-1.52-4.5-2.5-6.73-3.98c-0.98-0.06-2.04-0.13-2.95-0.19c-1.59,1.91-3.04,3.67-4.38,5.29
		c-0.43,1.31-0.82,2.47-1.19,3.62c-0.41,1.29,0.72,2.3,0.69,3.68c-0.34,0.35-0.75,0.78-1.07,1.1c-1.38,0.29-2.57,0.54-3.65,0.76
		c-1.92-0.69-3.73-0.58-5.56-0.16c-1.04,0.24-2.1,0.46-3.16,0.5c-1.98,0.08-3.98,0.02-5.65,0.02c-1.43,0.62-2.55,1.1-3.37,1.45
		c-1.09,0-1.91-0.2-2.57,0.04c-1.66,0.59-3.3,0.56-4.97,0.27c-0.28-0.05-0.52-0.29-0.82-0.46c-0.78-0.87-0.16-2.06-0.63-3.16
		c-0.45-0.82-0.96-1.75-1.48-2.7c0.27-1.21,0.54-2.39,0.75-3.34c-0.3-1.29-0.71-2.32-0.75-3.36c-0.08-2.29,0.02-4.58-0.78-6.8
		c-0.2-0.55-0.18-1.24-0.06-1.82c0.23-1.09-0.07-2.13-0.05-3.19c0.04-2.02-0.69-3.9-0.94-5.55c0.19-1.51,0.94-2.22,2.01-2.65
		c0.9-0.05,1.8-0.11,2.38-0.14c1.03-0.41,1.17-1.45,2.1-1.46c0.56,0.13,1.13,0.26,1.94,0.44c0.84-0.85,1.7-1.71,2.35-2.37
		c0.52-2.35,0.56-4.33,0.2-6.31c-0.17-0.94-0.6-1.77-1.29-2.39c-1.24-1.12-2.56-2.17-3.84-3.23c-1.4,0.18-2.74,0.35-3.76,0.48
		c-1.59-0.54-2.44-1.35-2.99-3.08c-0.02-1.22-0.06-2.9-0.07-4.59c-0.01-1.23,0.12-2.47-0.02-3.68c-0.16-1.35-0.56-2.67-0.9-4.19
		c0.29-1.02,0.62-2.19,0.97-3.43c-0.76-1.99-1.18-4.07-0.82-6.17c0.38-0.98,1.15-1.49,1.91-1.99c5.68-1.11,7.82-1.74,8.88-2.75
		c0.28-0.61,0.67-1.43,0.96-2.05c0.52-3.61-0.58-6.59-2.19-9.39c-1.51-1.77-3.33-2.74-5.67-2.61c-0.58,0.03-1.18-0.2-1.78-0.32
		c-0.42-0.53-0.8-1-1.25-1.57c-0.14-1.93-0.02-3.93-0.09-5.91c-0.04-1.37,0.1-2.86-0.37-4.09c-0.94-2.48-0.45-4.8,0.24-6.96
		c-1.24-2.7-0.79-5.26-0.52-7.61c1.05-1.81,2.65-2.55,4.28-2.84c2.33-0.42,4.33-1.47,6.3-2.45c1.22-1.29,2.35-2.54,2.88-4.01
		c0-1.38,0.27-2.68-0.05-3.81c-0.8-2.77-1.59-5.56-3.18-8.28c-0.87-0.75-2.05-1.44-3.33-1.98c-0.84-0.35-1.68-0.75-2.44-1.26
		c-0.87-0.59-2.14-0.53-2.83-2.02c-0.08-3.15-0.16-6.66-0.26-10.65c-0.78-1.57-0.78-3.71-0.69-5.87
		C123.1,87.62,122.97,85.33,121.98,83.18z M299.02,232.77c0.82,0.09,1.62,0.81,2.54-0.05c-0.07-0.31-0.16-0.67-0.26-1.11
		c-0.81,0-1.53,0-2.24,0c-0.14-3.83-0.37-7.66,0.73-11.18c-0.23-0.98-0.41-1.71-0.53-2.22c0.22-1.45,0.46-2.65,0.57-3.87
		c0.04-0.41-0.27-0.84-0.42-1.25c-0.46-0.23-0.86-0.44-1.24-0.63c-1.68,0.54-3.35,0.57-4.98,0.11c-1.72-0.49-3.76-0.23-4.69-1.62
		c-0.91-1.95-1.62-3.47-2.43-5.22c0.07-1.16,0.09-2.54,0.24-3.91c0.16-1.5,0.45-2.99,0.68-4.49c1.09-1.02,0.68-2.65,1.58-3.88
		c0.72-0.38,1.54-0.78,2.33-1.24c0.92-0.55,1.76-1.23,2.71-1.73c0.77-0.41,1.64-0.62,2.54-0.95c0.01-1.64,0.2-3.19-0.28-4.67
		c-0.44-1.35-0.43-2.72-0.45-4.1c-0.05-3.21-0.04-6.42-0.09-9.64c-0.01-0.45-0.15-0.9-0.22-1.28c-1.35-1.71-3.3-0.37-4.66-1.05
		c-2.17-0.64-3.3-2.38-4.76-3.71c-1.04-0.95-1.66-2.16-2.09-3.44c0.26-0.93,0.39-1.76,0.12-2.72c-0.18-0.64,0.39-1.45,0.44-2.2
		c0.06-0.91-0.07-1.83-0.12-2.77c0.9-1.94,1.81-3.88,2.67-5.73c1.31-0.98,2.52-1.89,3.76-2.81c0.92-0.36,2.17-0.01,2.84-1.2
		c0.28-1.17,0.29-2.42-0.22-3.55c-0.46-1.02-0.59-2.04-0.6-3.13c-0.01-0.61,0.03-1.27-0.19-1.82c-0.75-1.91-0.79-3.88-0.81-5.88
		c-0.01-1.06-0.13-2.16-0.91-3.01c-2.38-0.52-4.75-1.05-6.83-1.51c-1.28-0.86-2.3-1.54-3.35-2.25c-0.78-1.08-1.58-2.2-2.26-3.15
		c-0.35-1.21-0.65-2.24-1-3.44c0.06-0.4,0.15-0.99,0.25-1.59c-0.18-0.58-0.36-1.15-0.52-1.67c0.74-4.66,1.89-9.06,4.78-12.68
		c1.9-1.27,3.67-2.45,5.33-3.56c0.13-0.48,0.29-0.79,0.27-1.07c-0.08-0.92-0.1-1.87-0.38-2.73c-0.93-2.82-1.05-5.7-0.81-8.46
		c-0.63-1.74-1.2-3.32-1.82-5.05c0-1.1,0-2.33,0-3.55c0-1.36,0-2.73,0-4.12c-0.22-0.69-0.45-1.42-0.59-1.86
		c0.03-1.05,0.66-1.7,0.39-2.46c-0.08-0.18-0.1-0.38-0.2-0.44c-0.39-0.22-0.8-0.54-1.22-0.57c-1.22-0.08-2.45,0-3.68-0.06
		c-2.45-0.12-4.91-0.12-7.32-0.5c-1.2-0.19-2.39-0.42-3.61-0.45c-1.07-0.03-2.16,0.07-3.22-0.08c-1.02-0.14-2.01-0.52-3.09-0.82
		c-0.92,1.68,0.01,3.46-0.35,4.43c-1.25,2.49-2.22,4.41-3.23,6.42c-1.51,1.1-2.7,2.8-4.87,3.6c-0.69,0.05-1.61,0.12-2.52,0.2
		c-1.06,0.08-2.12,0.17-2.86,0.23c-1.88-0.68-3.46-1.24-5.27-1.89c-1.31-1.4-2.77-2.96-4.11-4.4c-0.39-2.15-0.13-4.3-2.28-5.97
		c-1.62,0.44-3.52,0.96-5.5,1.1c-2.11,0.15-4.19,0.73-6.59,0.69c-1.78-1.14-3.79-1.3-5.87,0.26c-0.06,0.51-0.14,1.11-0.24,1.88
		c-1.25,1.7-2,3.92-3.66,5.56c-1.01,2.41-3.5,3.34-4.77,4.98c-2.64,1.17-4.97,1.66-7.48,0.9c-0.51-0.16-1.16,0.16-1.63,0.23
		c-0.52-0.35-0.89-0.81-1.29-0.83c-2.52-0.15-4.67-1.25-6.95-2.61c-1.38-2.32-3.51-4.41-4.05-7.43c-0.61-0.22-1.18-0.43-1.67-0.61
		c-1.59,0.38-3.06,0.76-4.55,1.06c-1.5,0.3-3.01,0.49-4.51,0.78c-1.49,0.29-3.06,0.43-4.44,1.02c-1.47,0.63-3.07-0.14-4.39,0.55
		c-0.35,1-0.69,1.84-0.92,2.71c-0.27,1.02-0.44,2.07-0.66,3.15c-0.55,0.66-1.3,1.28-1.66,2.07c-0.86,1.88-2.59,2.51-4.26,3.1
		c-3.23,1.14-6.53,1.6-9.81,0.07c-1.53,0.25-2.45-1.06-3.73-1.45c-1.4-0.43-2.26-1.54-3.3-2.55c-0.37-0.76-0.63-1.7-1.19-2.39
		c-0.62-0.77-0.65-1.71-1.06-2.5c-0.25-0.49-0.82-0.82-1.03-1.01c-1.18,0.24-2.06,0.42-2.95,0.59c-0.6,0.11-1.29,0.05-1.78,0.33
		c-2.57,1.48-5.43,1.99-8.25,2.65c-0.57,0.13-1.08,0.49-1.72,0.79c0.22,0.85,0.41,1.58,0.6,2.31c-0.29,1.99-0.26,3.9,0.35,5.88
		c0.44,1.42,0.25,3.04,0.37,4.56c0.13,1.67,0.29,3.34,0.49,5.58c-0.3,1.34-0.92,3.27-0.22,5.35c1.27,1.4,3.25,1.5,4.83,2.36
		c2.41,1.33,3.77,3.53,4.9,5.92c0.8,1.69,0.8,3.58,1.34,5.3c0.79,2.52,1.01,5.08,1.38,7.59c-0.82,1.21-1.53,2.39-2.38,3.45
		c-1.25,1.55-2.69,2.91-4.38,4.02c-2.03,1.33-4.15,1.91-6.67,1.2c-0.11,0.59-0.33,1.16-0.31,1.73c0.07,2.14,0.21,4.27,0.34,6.75
		c-0.73,3.76-0.09,7.88-0.15,11.98c0.57,0.48,1.03,0.86,1.43,1.19c1.31,0.17,2.52,0.32,3.69,0.47c1.23,1.3,2.39,2.52,3.44,3.63
		c1.08,2.05,2.08,3.94,3.08,5.85c0.09,2.01,0.18,4,0.24,5.49c-0.59,2.83-2.05,4.63-3.46,6.42c-0.64,0.81-1.67,1.3-2.3,1.78
		c-2.23,0.47-4.21,0.63-6.09,1.43c-0.08,0.5-0.22,0.94-0.21,1.38c0.02,3.22,0.05,6.45,0.14,9.67c0.02,0.59,0.29,1.17,0.43,1.68
		c-0.19,0.83-0.35,1.57-0.48,2.15c0.46,1,0.38,2.03,1.29,2.67c1.96,0.63,4.07,1.12,5.44,2.07c2.92,2.43,4.81,4.99,5.91,7.95
		c0.23,1.65,0.45,3.16,0.66,4.64c-0.23,1.23-0.46,2.44-0.7,3.64c-0.03,0.14-0.16,0.26-0.25,0.38c-4.4,3.39-4.4,3.39-7.95,4.55
		c-0.9,0.89-2.21,1.55-2.54,3.1c-0.07,1.2,0.9,2.15,0.84,3.48c-0.12,2.45,0.25,4.89,0.62,7.32c0.27,1.81,0.24,3.67,0.31,5.51
		c0.04,1.07-0.05,2.16,0.08,3.22c0.12,1.04,0.29,2.14,1.48,2.96c1.77-0.1,3.77,0.21,5.62-0.8c2.43-0.23,4.75-1.34,7.22-1.02
		c2.04,0.27,3.96,0,5.64-0.74c0.95,0.25,1.67,0.44,2.3,0.6c0.22-0.21,0.39-0.29,0.42-0.41c0.56-1.89,0.93-3.86,1.7-5.67
		c0.85-1.98,2.74-3.26,4.01-4.97c0.18-0.25,0.29-0.55,0.47-0.79c1.13-1.47,2.46-2.72,4.18-3.5c2.3,0.26,4.24,1.66,6.53,2.01
		c1.14,0.18,1.65,1.28,2.36,2.07c4.31,2.23,5.03,2.8,10.04,7.87c0.52,0.94,1.08,1.86,1.54,2.82c0.51,1.07,0.91,2.2,1.4,3.38
		c3.25,0.29,6.46-0.71,9.59,0.18c2.06-1.06,4.19-1.13,6.36-1.03c0.2,0.01,0.42-0.33,0.72-0.58c-0.49-1.08-0.99-2.18-1.42-3.14
		c-0.14-1.4-0.09-2.59,0.27-3.81c0.39-1.31,0.54-2.69,0.82-4.2c1.22-1.94,2.63-3.93,4.47-5.72c0.8-0.27,1.66-0.57,2.33-0.8
		c0.98,0.17,1.74,0.41,2.49,0.4c2.82-0.02,5.47,0.74,8.02,1.83c2.56,1.1,4.35,3.33,6.73,4.71c1.89,2.2,4.23,4,5.66,6.62
		c0.42,0.77,1.22,1.32,1.61,1.73c2.98,0.51,5.51-0.18,7.87-0.68c1.21,0.34,2.23,0.63,3.27,0.93c3.32-1.22,6.79-1.64,10.32-2.32
		c0.7-2.56-0.06-5.24,0.78-7.87c0.67-0.49,1.4-1.02,2.12-1.55c0.65-2.09,2.6-2.92,3.88-4.16c3.66-0.97,7.16-0.76,10.39-0.57
		c1.34,0.68,2.01,1.99,3.45,1.79c2.05,1.31,4.39,2.15,6.15,3.92c0.86,0.86,1.8,1.65,1.95,1.79c2.09,2.5,1.53,4.88,2.49,6.91
		c1.45-0.26,2.79-0.58,4.14-0.73c1.52-0.16,3.06-0.17,4.59-0.25c1.46,0.26,2.91,0.53,4.37,0.79c0.5-1.48,0.59-2.92,0.37-4.46
		C298.88,236.08,298.66,234.42,299.02,232.77z"/>
	<path class="st1" d="M121.98,83.18c0.99,2.15,1.12,4.44,1.02,6.76c-0.09,2.16-0.09,4.3,0.69,5.87c0.1,3.99,0.18,7.5,0.26,10.65
		c0.69,1.5,1.96,1.44,2.83,2.02c0.76,0.51,1.6,0.91,2.44,1.26c1.29,0.54,2.46,1.23,3.33,1.98c1.59,2.72,2.38,5.52,3.18,8.28
		c0.32,1.13,0.05,2.43,0.05,3.81c-0.53,1.47-1.66,2.72-2.88,4.01c-1.97,0.98-3.97,2.03-6.3,2.45c-1.64,0.29-3.23,1.03-4.28,2.84
		c-0.27,2.35-0.72,4.92,0.52,7.61c-0.69,2.17-1.18,4.48-0.24,6.96c0.47,1.23,0.32,2.72,0.37,4.09c0.06,1.99-0.05,3.98,0.09,5.91
		c0.45,0.57,0.83,1.04,1.25,1.57c0.6,0.11,1.2,0.35,1.78,0.32c2.34-0.12,4.16,0.85,5.67,2.61c1.6,2.81,2.71,5.78,2.19,9.39
		c-0.29,0.62-0.68,1.44-0.96,2.05c-1.06,1-3.2,1.64-8.88,2.75c-0.76,0.5-1.53,1.01-1.91,1.99c-0.36,2.11,0.07,4.18,0.82,6.17
		c-0.35,1.24-0.68,2.41-0.97,3.43c0.34,1.52,0.74,2.84,0.9,4.19c0.14,1.21,0.01,2.45,0.02,3.68c0.02,1.68,0.05,3.37,0.07,4.59
		c0.55,1.72,1.4,2.54,2.99,3.08c1.01-0.13,2.35-0.3,3.76-0.48c1.28,1.07,2.59,2.11,3.84,3.23c0.69,0.62,1.12,1.45,1.29,2.39
		c0.36,1.99,0.31,3.96-0.2,6.31c-0.65,0.66-1.51,1.52-2.35,2.37c-0.81-0.18-1.37-0.31-1.94-0.44c-0.93,0.01-1.07,1.05-2.1,1.46
		c-0.58,0.04-1.48,0.09-2.38,0.14c-1.07,0.43-1.81,1.14-2.01,2.65c0.24,1.65,0.98,3.53,0.94,5.55c-0.02,1.06,0.28,2.1,0.05,3.19
		c-0.12,0.58-0.14,1.27,0.06,1.82c0.81,2.22,0.7,4.51,0.78,6.8c0.04,1.04,0.45,2.07,0.75,3.36c-0.21,0.95-0.48,2.13-0.75,3.34
		c0.52,0.95,1.03,1.89,1.48,2.7c0.47,1.1-0.15,2.29,0.63,3.16c0.3,0.18,0.55,0.42,0.82,0.46c1.67,0.29,3.32,0.31,4.97-0.27
		c0.66-0.24,1.48-0.04,2.57-0.04c0.81-0.35,1.93-0.83,3.37-1.45c1.68,0,3.67,0.06,5.65-0.02c1.06-0.04,2.12-0.26,3.16-0.5
		c1.83-0.42,3.64-0.52,5.56,0.16c1.08-0.23,2.28-0.48,3.65-0.76c0.31-0.32,0.73-0.75,1.07-1.1c0.02-1.39-1.1-2.39-0.69-3.68
		c0.37-1.16,0.76-2.31,1.19-3.62c1.34-1.62,2.8-3.38,4.38-5.29c0.92,0.06,1.97,0.13,2.95,0.19c2.24,1.48,4.64,2.47,6.73,3.98
		c2.12,1.54,3.86,3.47,5.66,5.56c0.63,1.21,1.32,2.56,1.96,3.8c-0.25,0.91-0.45,1.63-0.62,2.28c0.32,1.13,1.2,1.48,2.08,1.69
		c0.73,0.18,1.52,0.18,2.28,0.18c1.53,0,3.05-0.08,4.58-0.09c1.34-0.02,2.65-0.81,4.01-0.15c4.51-1.28,9.15-0.34,13.71-0.83
		c0.45-0.05,0.9-0.15,1.25-0.21c0.91-0.6,1.41-1.31,1.25-2.67c-1.29-1.72-2.75-3.68-4.3-5.75c0-1.57,0-3.25,0-5.04
		c0.6-0.76,1.23-1.6,1.9-2.41c0.68-0.81,1.4-1.59,2.13-2.4c2.42,0.02,4.65,0.2,6.72,1.44c0.76,0.45,1.69,0.63,2.54,0.94
		c0.76,1.65,2.64,1.97,3.77,3.24c1.82,2.06,3.83,3.95,5.75,5.9c0.12,1.15,0.23,2.2,0.32,3.1c0.98,1.45,2.59,1.16,3.52,1.84
		c2.05-0.37,3.87-0.59,5.63-1.06c1.51-0.41,3-0.53,4.54-0.52c1.22,0.01,2.51,0.02,3.64-0.37c1.35-0.47,2.62,0.29,4-0.25
		s3.01-0.42,4.53-0.64c1.36-0.19,2.7-0.45,4.06-0.69c1.06-0.48,1.59-1.37,1.88-2.45c-0.19-1.56-1.06-2.85-1.73-4.24
		c0.54-1.82,1.57-3.35,2.35-5.08c1.03-0.62,2.07-1.25,3.32-2c2.26,0,4.7,0,6.83,0c4.2,1.45,6.72,4.58,9.79,6.91
		c-0.08,1.22-0.04,2.14-0.23,3.02c-0.27,1.27-0.13,2.42,0.67,3.6c0.32,0.12,0.74,0.41,1.16,0.4c2.6-0.03,5.22,0.09,7.82-0.77
		c1.21,0.41,2.5,0.87,3.9,0.63c0.13,0.28,0.33,0.54,0.38,0.83c0.12,0.75,0.23,1.52,0.22,2.27c-0.01,0.44-0.17,0.95-0.44,1.28
		c-0.57,0.7-1.26,1.29-1.72,1.75c-2.22,0.48-4.15,0.9-6.56,1.43c-0.89-0.21-2.21-0.61-3.55-0.82c-1.2-0.18-2.44-0.15-3.76-0.22
		c-0.43-0.38-0.88-0.78-1.34-1.18c0.16-0.67,0.29-1.25,0.47-2.03c-0.31-1.14-0.66-2.46-1.01-3.77c-0.84-1.48-1.67-2.94-2.61-4.61
		c-0.96-0.69-2.07-1.48-3.07-2.2c-1.1,0-2,0-2.72,0c-1.44,0.72-1.52,2.08-2.11,3.22c0.08,0.53,0.18,1.13,0.27,1.74
		c-0.15,0.41-0.3,0.84-0.5,1.42c0.24,0.73,0.51,1.59,0.82,2.54c-0.28,0.49-0.58,1.02-0.94,1.66c-3.1,1.17-6.41,1.78-9.65,2.59
		c-2.71,0.68-5.46,0.76-8.09,0.74c-1.35,0.17-2.33,1.07-3.64,0.99c-1.05-0.06-2.12,0.16-3.34,0.28c-1.29-0.5-2.76-0.93-4.18,0.18
		c-2.28,0.17-4.33,1.47-6.69,1.37c-0.73-0.03-1.48,0.3-2.24,0.47c-1.03-0.32-2.04-0.63-3.04-0.94c-1.36-2.09-2.69-4.14-3.98-6.13
		c-0.83-0.55-1.63-1-2.33-1.58c-0.71-0.58-1.3-1.3-1.98-1.93c-0.81-0.75-1.73-1.25-3.04-1.09c-0.07,0.36-0.35,0.86-0.2,1.14
		c0.49,0.94,0.81,1.98,1.69,2.7c0.96,0.78,1.7,1.76,2.17,3.26c-0.11,1.23-0.24,2.72-0.36,3.97c-0.62,0.94-1.46,1.02-1.96,1.38
		c-3.93,0.99-7.77,0.24-11.58,0.33c-0.58,0.01-1.16-0.34-1.6-0.48c-1.65,0.19-3.16,0.47-4.67,0.51c-2.3,0.07-4.6-0.09-6.89,0
		c-1.82,0.07-3.67,0.05-5.42,0.81c-0.53,0.23-1.2,0.14-1.93,0.21c-0.82-0.57-1.68-1.16-2.43-1.69c-1.12-0.07-1.18,1.02-1.86,1.34
		c-0.69,0.33-1.37,0.68-2.06,1.02c-1.09,0-2.15,0-3.36,0c-0.47-0.52-0.97-1.07-1.41-1.55c0-1.38,0-2.6,0-3.83
		c-1.5-2.86-1.5-2.86-4.3-5.31c-0.39,0-0.83,0-1.42,0c-0.45,0.76-0.9,1.54-1.3,2.22c-0.4,2.41,0.21,4.74-0.33,6.97
		c-0.25,0.24-0.48,0.45-0.75,0.71c-3.09,0.54-6.38-0.36-9.56,0.99c-0.37-0.47-0.73-0.92-1.18-1.49c-0.55,0.46-1.09,0.91-1.76,1.48
		c-2.31,0.22-4.76,0.19-7.21,0.17c-1.23-0.01-2.43-0.02-3.63,0.44c-0.68,0.27-1.51,0.34-2.25,0.26c-2.44-0.25-4.91,0.04-7.33-0.54
		c-0.88-0.21-1.83-0.12-2.75-0.14c-1.38-0.02-2.76-0.01-3.82-0.01c-1.6-0.57-2.3-1.62-2.55-2.84c-0.45-2.13-1.41-4.05-2.19-6.18
		c0.21-2.15-0.92-4.46,0.52-6.62c-0.78-1.6-1.51-3.1-2.35-4.83c-0.26-2.32-0.11-4.96-1-7.45c-0.15-0.42-0.18-0.92-0.15-1.37
		c0.24-3.08-0.24-6.1-0.72-9.13c-0.02-0.15,0.03-0.3,0.08-0.74c0.34-0.55,0.81-1.32,1.33-2.15c2.39-0.74,4.42-2.08,6.46-3.75
		c0.38-0.64,0.85-1.43,1.16-1.94c0.16-1.17-0.2-1.82-0.73-2.41c-0.84-0.93-1.83-1.63-3.16-2.15c-1.05-0.09-2.26-0.19-3.52-0.3
		c-0.78-0.76-1.54-1.49-2.23-2.16c-0.1-2.31,0.83-4.4,0.29-6.54c-0.53-2.07,1.05-4.23-0.37-6.15c0.2-0.71,0.36-1.29,0.6-2.13
		c-0.17-0.65-0.52-1.51-0.62-2.4c-0.14-1.37-0.1-2.76-0.14-4.14c-0.09-2.91-0.18-5.82-0.27-8.73c-0.02-0.61,0-1.22,0-1.49
		c0.41-1.15,1.1-1.53,1.84-1.72c2.21-0.56,4.26-1.83,6.54-1.3c0.97-0.92,1.74-1.65,2.6-2.46c-0.2-0.42-0.32-0.85-0.58-1.14
		c-0.5-0.56-1.08-1.04-1.82-1.72c-2.22-0.74-4.68-1.57-7.28-2.45c-0.34-0.79-0.69-1.63-1.19-2.8c0-4.44,0.02-9.2-0.01-13.95
		c-0.01-1.84,0.06-3.72-0.3-5.5c-0.71-3.49-0.31-7.03-0.75-10.52c-0.05-0.42,0.21-0.88,0.32-1.3c1.16-1.64,3.03-1.94,4.64-2.76
		c1.62-0.83,3.11-1.86,4.74-1.8c0.31-0.45,0.46-0.57,0.47-0.69c0.08-1.83,0.14-3.67,0.19-5.22c-0.84-1.86-2.3-2.34-3.75-2.86
		c-1.45-0.51-2.66,0.53-3.98,0.55c-1.3-0.5-2-1.43-2.36-2.96c0.21-0.68,0.48-1.54,0.78-2.5c-0.32-8.73-0.17-14.47,0.44-17.68
		c-0.39-1.89-0.76-3.69-1.14-5.53c0.17-0.92,0.73-1.63,1.6-2.06c1.23-0.61,2.52-1.11,3.74-1.73
		C120.16,83.04,121.07,83.18,121.98,83.18z"/>
	<path class="st1" d="M294.36,241.36c-1.53,0.08-3.07,0.08-4.59,0.25c-1.35,0.15-2.69,0.46-4.14,0.73
		c-0.97-2.03-0.41-4.41-2.49-6.91c-0.16-0.14-1.09-0.93-1.95-1.79c-1.76-1.77-4.11-2.61-6.15-3.92c-1.44,0.19-2.11-1.11-3.45-1.79
		c-3.22-0.19-6.72-0.4-10.39,0.57c-1.29,1.24-3.23,2.07-3.88,4.16c-0.73,0.53-1.46,1.06-2.12,1.55c-0.84,2.63-0.08,5.31-0.78,7.87
		c-3.52,0.68-6.99,1.1-10.32,2.32c-1.04-0.29-2.07-0.58-3.27-0.93c-2.37,0.51-4.9,1.19-7.87,0.68c-0.39-0.4-1.19-0.96-1.61-1.73
		c-1.42-2.62-3.76-4.42-5.66-6.62c-2.38-1.37-4.18-3.61-6.73-4.71c-2.55-1.09-5.19-1.85-8.02-1.83c-0.75,0-1.51-0.23-2.49-0.4
		c-0.67,0.23-1.53,0.52-2.33,0.8c-1.84,1.8-3.25,3.79-4.47,5.72c-0.29,1.51-0.44,2.89-0.82,4.2c-0.36,1.22-0.4,2.41-0.27,3.81
		c0.43,0.96,0.94,2.06,1.42,3.14c-0.3,0.25-0.52,0.59-0.72,0.58c-2.17-0.1-4.3-0.02-6.36,1.03c-3.13-0.89-6.34,0.11-9.59-0.18
		c-0.49-1.19-0.89-2.31-1.4-3.38c-0.46-0.97-1.02-1.88-1.54-2.82c-5-5.07-5.72-5.63-10.04-7.87c-0.7-0.79-1.22-1.89-2.36-2.07
		c-2.28-0.35-4.23-1.75-6.53-2.01c-1.73,0.78-3.05,2.03-4.18,3.5c-0.19,0.24-0.29,0.54-0.47,0.79c-1.27,1.72-3.16,2.99-4.01,4.97
		c-0.77,1.8-1.14,3.77-1.7,5.67c-0.04,0.12-0.2,0.2-0.42,0.41c-0.63-0.16-1.36-0.36-2.3-0.6c-1.68,0.74-3.6,1.01-5.64,0.74
		c-2.47-0.32-4.8,0.79-7.22,1.02c-1.85,1-3.85,0.7-5.62,0.8c-1.19-0.82-1.36-1.92-1.48-2.96c-0.13-1.06-0.03-2.15-0.08-3.22
		c-0.08-1.84-0.04-3.7-0.31-5.51c-0.36-2.43-0.73-4.87-0.62-7.32c0.06-1.32-0.91-2.28-0.84-3.48c0.33-1.56,1.64-2.21,2.54-3.1
		c3.55-1.16,3.55-1.16,7.95-4.55c0.08-0.13,0.22-0.24,0.25-0.38c0.24-1.2,0.46-2.41,0.7-3.64c-0.21-1.48-0.42-2.99-0.66-4.64
		c-1.1-2.96-2.99-5.52-5.91-7.95c-1.37-0.95-3.47-1.44-5.44-2.07c-0.91-0.64-0.84-1.66-1.29-2.67c0.13-0.58,0.29-1.32,0.48-2.15
		c-0.14-0.5-0.41-1.09-0.43-1.68c-0.08-3.22-0.11-6.45-0.14-9.67c0-0.44,0.13-0.88,0.21-1.38c1.87-0.8,3.86-0.96,6.09-1.43
		c0.63-0.47,1.66-0.97,2.3-1.78c1.41-1.79,2.87-3.59,3.46-6.42c-0.07-1.49-0.15-3.48-0.24-5.49c-1.01-1.91-2.01-3.81-3.08-5.85
		c-1.05-1.11-2.21-2.33-3.44-3.63c-1.17-0.15-2.38-0.3-3.69-0.47c-0.4-0.33-0.86-0.72-1.43-1.19c0.05-4.1-0.58-8.22,0.15-11.98
		c-0.13-2.48-0.27-4.62-0.34-6.75c-0.02-0.57,0.2-1.15,0.31-1.73c2.52,0.71,4.64,0.13,6.67-1.2c1.69-1.11,3.13-2.47,4.38-4.02
		c0.86-1.06,1.56-2.25,2.38-3.45c-0.38-2.51-0.59-5.08-1.38-7.59c-0.54-1.72-0.53-3.6-1.34-5.3c-1.14-2.4-2.49-4.59-4.9-5.92
		c-1.58-0.87-3.56-0.96-4.83-2.36c-0.7-2.08-0.08-4,0.22-5.35c-0.2-2.25-0.36-3.91-0.49-5.58c-0.12-1.53,0.07-3.14-0.37-4.56
		c-0.61-1.98-0.64-3.9-0.35-5.88c0.6-0.04,1.26,0.06,1.79-0.15c1.42-0.56,2.78-1.26,4.04-1.84c1.21,0,2.27,0,3.3,0
		c1.08,0.72,2.1,1.39,2.98,1.97c0.6,0.93,1.09,1.71,1.56,2.43c0.99,0.82,1.94,1.6,2.74,2.25c1.44,0.57,2.71,1.08,3.23,1.29
		c2.57,0.43,4.37,0.72,5.96,0.99c1.54-0.19,2.92-0.28,4.26-0.53c1.49-0.27,2.96-0.7,4.44-1.03c0.29-0.07,0.62,0.02,0.91-0.05
		c0.28-0.06,0.54-0.23,0.81-0.36c0.28-0.36,0.55-0.72,0.84-1.1c0.69-0.24,1.4-0.48,1.84-0.63c1.03-1.45,1.92-2.68,2.79-3.94
		c0.86-1.24,1.69-2.5,2.6-3.85c1.63-0.17,3.2-0.87,4.9-0.39c0.67-0.38,1.34-0.75,2.06-1.16c1.47,0.13,2.96,0.51,4.5,0.31
		c0.92-0.12,1.8,0.31,2.66,1.17c0.53,1,1.17,2.21,1.75,3.28c1.25,0.92,2.28,1.88,3.49,2.53c1.6,0.86,3.34,1.48,5.02,2.2
		c2.64,0.56,5.14-0.76,7.75-0.61c2.66-1.11,5.59-1.39,8.22-2.55c0.83-0.7,1.61-1.44,2.47-2.07c0.34-0.25,0.86-0.25,1.21-0.34
		c0.65,0.27,1.19,0.49,2.05,0.85c0.25-1.18,1.9-1.25,1.96-2.71c-0.38-0.66-1.2-1.01-1.34-2.13c0.16-1.15,1.05-1.94,2.36-2.12
		c1.04-0.15,2.13-0.03,3.01-0.03c0.74-0.32,1.35-0.85,1.84-0.75c2.02,0.39,3.92-0.45,5.89-0.38c0.45,0.01,0.89,0.18,1.14,0.24
		c1.24,0.62,1.45,1.77,2.07,2.72c1.86,1.16,4.12,2.06,4.37,4.76c-0.15,0.43-0.31,0.83-0.42,1.23c-0.01,0.05,0.22,0.16,0.33,0.25
		c0.69-0.31,1.37-0.61,2.06-0.92c1.71,0.47,3.33,0.89,4.94,1.37c0.72,0.22,1.41,0.55,1.9,0.75c0.34,0.56,0.55,0.9,0.81,1.32
		c1.97-1.05,3.77-2.17,5.79-2.9c2-0.72,3.61-2.36,5.72-2.45c1.48-1.32,2.85-2.52,4.02-3.56c0.33-1,0.57-1.72,0.76-2.3
		c1.17-0.78,2.19-1.46,3.05-2.04c2.64-0.62,5.09-0.11,7.55-0.14c0.86,0.3,1.71,0.65,2.59,0.88c1.03,0.27,2.16,0.29,2.81,1.41
		c-0.12,0.54-0.25,1.11-0.41,1.78c0.98,1.49,1.79,3.13,1.61,5.06c-0.11,1.16,0.72,1.99,1.06,3.27c-0.15,1.89-0.08,4,0.64,6.09
		c0.33,0.97,0.16,2.11,0.2,2.92c-0.68,1.91-1.62,3.28-3.09,4.25c-2.03,1.33-3.19,3.28-3.93,5.5c-0.72,2.18-1.39,4.38-1.96,6.6
		c-0.22,0.87-0.24,1.83-0.16,2.73c0.1,1.07,0.33,2.11,0.11,3.19c-0.09,0.42,0.06,0.9,0.16,1.34c0.83,3.48,2.5,6.52,4.63,9.14
		c3.35,1.6,6.54,3.05,9.65,4.64c0.88,0.45,1.48,1.04,1.96,2.44c-0.06,2.88-0.14,6.23-0.21,9.29c-0.71,1.12-1.51,1.5-2.4,1.82
		c-1.15,0.41-2.25,0.93-3.18,1.33c-1.1,1.18-2.05,2.18-2.91,3.1c-0.45,0.94-0.84,1.77-1.28,2.7c-0.01,2.34-0.47,4.76-0.4,7.2
		c0.07,2.45,0.22,4.9,0.34,7.28c0.73,2.24,2.22,3.71,4.16,4.79c0.94,0.52,1.86,1.06,2.91,1.66c0.77,0.13,1.7,0.2,2.57,0.46
		c0.86,0.26,1.65,0.73,2.25,1c0.91,1.33,1.06,2.56,0.67,3.76c-0.49,1.51-0.58,2.97-0.17,4.51c0.19,0.73,0.17,1.51,0.21,2.27
		c0.02,0.3-0.05,0.6-0.09,1.03c-0.79,0.95-1.66,1.99-2.54,3.05c-1.31,0-2.53,0-3.83,0c-1.38,1.24-2.74,2.47-4.18,3.77
		c-0.74,1.79-1.49,3.63-2.19,5.33c0.08,3.7-0.04,7.22,0.31,10.68c1,0.91,1.88,1.76,2.82,2.54c0.94,0.78,1.42,2.09,2.68,2.45
		c1.3,0.37,1.67,1.72,2.68,2.34c1.73,0.03,3.45,0.06,4.58,2.18c0.01,1.67-0.02,3.65,0.03,5.64c0.06,2.29-0.02,4.6,0.35,6.84
		c0.22,1.37,0.42,2.71,0.42,4.09C294.34,236.46,294.36,238.91,294.36,241.36z M205.94,214.65c1.98-0.81,3.97-0.41,5.92-0.24
		c3.09,0.27,6.1-0.01,8.68-0.89c2.04-0.01,3.74,0.14,5.4-0.07c3.52-0.46,7.04-0.42,10.56-0.45c2.92-0.03,5.84,0.01,8.43-1.12
		c1.12,0.07,2.04,0.2,2.95,0.17c1.07-0.04,2.13-0.22,3.2-0.33c0.61-0.06,1.25-0.25,1.83-0.12c1.88,0.42,3.63-0.44,5.46-0.43
		c1.84,0.02,3.69,0.01,5.52-0.13c1.05-0.08,2.08-0.43,3.17-0.67c0.67,0.08,1.33,0.78,2.33,0.03c0.26-0.42,0.66-1.06,0.93-1.48
		c0-3.06,0-5.81,0-8.41c-0.32-1.19-0.6-2.21-0.84-3.09c0.18-0.79,0.32-1.38,0.4-1.74c-0.13-1.6-0.33-2.96-0.33-4.32
		c-0.01-3.08-0.11-6.13-0.77-9.15c-0.16-0.74-0.16-1.52-0.17-2.29c-0.03-2.15,0-4.29-0.03-6.44c-0.03-2.76-0.19-5.52-0.13-8.28
		c0.06-2.9-0.26-5.81,0.13-8.7c0.06-0.45,0.02-0.92,0.02-1.38c-0.01-4.91-0.01-9.82-0.03-14.74c0-1.07,0.15-2.22-0.17-3.2
		c-0.63-1.94-0.11-3.92-0.48-5.88c-0.4-2.08-0.2-4.28-0.23-6.43c-0.03-2,0.03-3.99-0.02-5.99c-0.03-1.22,0.02-2.52-0.38-3.64
		c-0.47-1.36-0.45-2.71-0.51-4.08c-0.1-2.15,0.07-4.34-0.3-6.43c-0.38-2.11-0.6-4.23-0.9-6.35c-0.16-1.18-0.73-2.32-1.23-3.42
		c-0.14-0.32-0.68-0.46-1.01-0.67c-0.78,0.66-1.47,1.25-2.15,1.82c-2.06,0.11-4.07-0.32-6.02,0.3c-2.26-0.68-4.58-0.41-6.87-0.33
		c-1.73,0.06-3.33-0.35-4.61-0.73c-1.09,0.22-1.84,0.48-2.59,0.5c-3.06,0.07-6.13,0.15-9.2,0.05c-1.34-0.04-2.68-0.5-4.03-0.76
		c-0.71,0.28-1.42,0.55-2.22,0.86c-0.79-0.29-1.64-0.6-2.48-0.91c-3.39-0.1-6.77,0.31-10.13-0.26c-0.44-0.07-0.91,0.06-1.37,0.08
		c-1.53,0.06-3.06,0.15-4.6,0.15c-3.99,0.02-7.97-0.02-11.96-0.01c-2.12,0.01-4.21,0.23-6.36,0.07c-3.51-0.25-7.06-0.07-10.59-0.06
		c-0.61,0-1.33-0.1-1.81,0.17c-1.31,0.73-2.71,0.42-4.06,0.51c-2.6,0.18-5.21,0.22-7.82,0.28c-2.15,0.05-4.31-0.11-6.45,0.09
		c-2.12,0.2-4.21,0.72-6.28,1.09c-0.97,0.59-1.79,1.26-1.78,2.48c0.27,1.12,1.77,1.11,2.01,2.23c-1.09,0.53-1.63,1.39-1.79,2.83
		c1.06,1.91,0.52,4.26,0.49,6.52c-0.03,2.28,1.12,4.5,0.36,6.26c0.24,2.03,0.7,3.57,0.55,5.05c-0.28,2.77-0.15,5.54,0.02,8.27
		c0.18,2.88-0.68,5.86,0.64,8.65c0.06,0.12,0.01,0.3,0.01,0.38c-0.2,0.96-0.39,1.86-0.56,2.64c0.23,0.87,0.73,1.67,0.57,2.33
		c-0.41,1.72,0.33,3.33,0.23,5.01c-0.11,1.68,0.03,3.37,0.08,5.06c0.02,0.61-0.1,1.29,0.13,1.83c0.86,2.06,0.52,4.24,0.78,6.38
		c0.25,0.7,0.5,1.42,0.73,2.07c-0.12,0.83-0.47,1.65-0.28,2.32c0.51,1.82,0.4,3.66,0.42,5.49c0.04,2.76-0.02,5.52,0.73,8.23
		c0.2,0.73,0.17,1.52,0.2,2.29c0.16,3.51,0.35,7.03,0.43,10.54c0.03,1.38,0.06,2.73,0.36,4.1c0.22,1.02,0.04,2.12,0.04,3.49
		c0.44,2.08,0.94,4.48,1.51,7.15c0,0.44-0.67,1.1-0.09,2.22c0.42,0.37,1.09,0.97,1.68,1.5c3.8-1.03,3.98-1.14,7.85-0.94
		c2.91,0.15,5.8,0.57,8.69,0.9c2.59,0.29,5.17,0.82,7.76,0.88c2.78,0.07,5.51,0.23,8.03,1.08c0.9-0.19,1.64-0.34,2.33-0.49
		c3.82,0.96,6.04,0.89,10.42-0.19C204.7,214,205.11,214.21,205.94,214.65z"/>
	<path class="st2" d="M299.02,232.77c-0.22-0.39-0.23-0.78,0.04-1.15c0.71,0,1.42,0,2.24,0c0.1,0.44,0.19,0.8,0.26,1.11
		C300.64,233.58,299.83,232.87,299.02,232.77z"/>
	<path class="st0" d="M205.94,214.65c-0.83-0.44-1.23-0.65-1.62-0.86c-4.38,1.08-6.6,1.15-10.42,0.19c-0.69,0.14-1.43,0.3-2.33,0.49
		c-2.52-0.85-5.25-1.01-8.03-1.08c-2.59-0.07-5.17-0.59-7.76-0.88c-2.9-0.33-5.79-0.74-8.69-0.9c-3.88-0.2-4.06-0.09-7.85,0.94
		c-0.59-0.53-1.26-1.13-1.68-1.5c-0.58-1.12,0.09-1.78,0.09-2.22c-0.56-2.68-1.07-5.07-1.51-7.15c0-1.37,0.18-2.47-0.04-3.49
		c-0.29-1.37-0.33-2.72-0.36-4.1c-0.09-3.52-0.27-7.03-0.43-10.54c-0.03-0.77,0-1.56-0.2-2.29c-0.75-2.71-0.69-5.47-0.73-8.23
		c-0.03-1.83,0.09-3.67-0.42-5.49c-0.19-0.67,0.16-1.49,0.28-2.32c-0.23-0.65-0.48-1.37-0.73-2.07c-0.25-2.14,0.09-4.32-0.78-6.38
		c-0.22-0.53-0.11-1.21-0.13-1.83c-0.04-1.69-0.18-3.38-0.08-5.06c0.11-1.68-0.63-3.29-0.23-5.01c0.15-0.65-0.34-1.46-0.57-2.33
		c0.16-0.78,0.35-1.67,0.56-2.64c0-0.08,0.05-0.26-0.01-0.38c-1.32-2.8-0.46-5.77-0.64-8.65c-0.17-2.74-0.3-5.5-0.02-8.27
		c0.15-1.48-0.3-3.02-0.55-5.05c0.75-1.76-0.39-3.98-0.36-6.26c0.03-2.26,0.57-4.61-0.49-6.52c0.16-1.44,0.7-2.31,1.79-2.83
		c-0.25-1.12-1.74-1.11-2.01-2.23c-0.01-1.21,0.81-1.88,1.78-2.48c2.07-0.37,4.16-0.9,6.28-1.09c2.13-0.2,4.3-0.04,6.45-0.09
		c2.61-0.06,5.22-0.1,7.82-0.28c1.35-0.09,2.75,0.22,4.06-0.51c0.49-0.27,1.2-0.16,1.81-0.17c3.53-0.02,7.08-0.2,10.59,0.06
		c2.14,0.15,4.24-0.06,6.36-0.07c3.99-0.02,7.97,0.02,11.96,0.01c1.53-0.01,3.06-0.1,4.6-0.15c0.46-0.02,0.93-0.15,1.37-0.08
		c3.36,0.57,6.74,0.16,10.13,0.26c0.84,0.31,1.69,0.62,2.48,0.91c0.8-0.31,1.51-0.59,2.22-0.86c1.35,0.27,2.68,0.72,4.03,0.76
		c3.06,0.1,6.13,0.02,9.2-0.05c0.75-0.02,1.5-0.28,2.59-0.5c1.29,0.38,2.89,0.79,4.61,0.73c2.28-0.08,4.61-0.35,6.87,0.33
		c1.95-0.62,3.97-0.19,6.02-0.3c0.68-0.57,1.37-1.16,2.15-1.82c0.33,0.21,0.86,0.35,1.01,0.67c0.5,1.1,1.06,2.24,1.23,3.42
		c0.3,2.12,0.52,4.24,0.9,6.35c0.38,2.09,0.2,4.28,0.3,6.43c0.06,1.37,0.04,2.71,0.51,4.08c0.39,1.12,0.34,2.42,0.38,3.64
		c0.05,1.99-0.01,3.99,0.02,5.99c0.03,2.15-0.16,4.34,0.23,6.43c0.37,1.96-0.15,3.94,0.48,5.88c0.32,0.98,0.17,2.13,0.17,3.2
		c0.02,4.91,0.02,9.82,0.03,14.74c0,0.46,0.04,0.93-0.02,1.38c-0.4,2.9-0.07,5.8-0.13,8.7c-0.06,2.76,0.09,5.52,0.13,8.28
		c0.03,2.15,0,4.29,0.03,6.44c0.01,0.76,0.01,1.55,0.17,2.29c0.65,3.02,0.76,6.08,0.77,9.15c0,1.36,0.2,2.73,0.33,4.32
		c-0.08,0.36-0.22,0.95-0.4,1.74c0.24,0.87,0.52,1.9,0.84,3.09c0,2.6,0,5.36,0,8.41c-0.27,0.42-0.67,1.06-0.93,1.48
		c-1,0.75-1.66,0.05-2.33-0.03c-1.09,0.24-2.12,0.59-3.17,0.67c-1.83,0.14-3.68,0.14-5.52,0.13c-1.83-0.02-3.58,0.84-5.46,0.43
		c-0.57-0.13-1.22,0.06-1.83,0.12c-1.07,0.11-2.13,0.29-3.2,0.33c-0.91,0.03-1.84-0.1-2.95-0.17c-2.59,1.13-5.51,1.09-8.43,1.12
		c-3.52,0.04-7.05-0.01-10.56,0.45c-1.65,0.22-3.35,0.06-5.4,0.07c-2.58,0.88-5.59,1.15-8.68,0.89
		C209.9,214.24,207.91,213.84,205.94,214.65z M160.63,191.03c0.01,5.72-0.1,10.59,1.13,15.32c0.51,0.3,0.87,0.69,1.28,0.74
		c2.73,0.33,5.47,0.5,7.54-0.22c2.68,0.55,4.74,1.15,6.84,1.36c1.98,0.2,3.92,0.48,5.88,0.85c1.93,0.37,3.98,0.12,5.96,0.3
		c1.67,0.15,3.31,0.54,5.05,0.83c3.26-0.25,6.62-0.52,9.97-0.76c0.76-0.06,1.56-0.17,2.29-0.01c2.43,0.54,4.86,0.16,7.27,0.02
		c4.87-0.27,9.8,0.2,14.62-0.97c0.44-0.11,0.92-0.02,1.38-0.03c2.45-0.01,4.9-0.02,7.35-0.05c1.07-0.01,2.21,0.11,3.2-0.19
		c1.65-0.5,3.26-0.41,4.94-0.45c3.66-0.08,7.3-0.87,10.99-0.47c0.3,0.03,0.65,0.02,0.91-0.11c2.07-0.99,4.18-0.62,6.23-0.1
		c0.77-0.42,1.43-0.78,2.07-1.16c0.11-0.07,0.16-0.26,0.23-0.39c0.26-5.68,0.12-8.22-0.61-13.24c-0.18-1.21-0.18-2.45-0.2-3.67
		c-0.05-2.61-0.04-5.22-0.08-7.82c-0.01-0.76,0.09-1.61-0.2-2.27c-0.78-1.78-0.58-3.62-0.63-5.45c-0.06-2.45-0.04-4.91-0.05-7.36
		c-0.01-2.3-0.23-4.63,0.06-6.9c0.31-2.47-0.15-4.89-0.04-7.33c0.01-0.15,0.04-0.31,0.03-0.46c-0.01-3.53-0.06-7.06-0.02-10.59
		c0.02-1.37-0.56-2.55-0.92-3.46c0.37-0.99,0.9-1.71,0.84-2.38c-0.28-2.89,0.35-5.83-0.39-8.69c-0.25-0.96,0.24-1.84,0.03-2.73
		c-0.24-1.04-0.61-2.03-0.57-3.14c0.06-1.99-0.1-3.99,0.06-5.96c0.15-1.89-0.17-3.66-0.75-5.42c-0.09-0.28-0.04-0.6-0.06-0.91
		c0.18-0.58,0.37-1.16,0.5-1.58c-0.27-1.66-0.47-3.17-0.77-4.67c-0.08-0.41-0.41-0.78-0.64-1.2c-2.34,0.04-4.63,0.2-6.91,0.09
		c-2.27-0.11-4.58,0.59-6.66-0.25c-0.4-0.5-0.68-0.85-0.92-1.15c-0.92-0.34-1.48,0.38-1.72,0.44c-3.07,0.18-5.66,0.34-8.71,0.52
		c-1.63-0.34-3.74-0.54-5.91-0.4c-2.75,0.17-5.52,0.11-8.26,0.05c-3.65-0.08-7.38,0.38-10.77-1.02c-0.88,0.37-1.58,0.66-2.14,0.89
		c-1.21,0-2.29,0.01-3.36,0c-2.75-0.03-5.52-0.33-8.24-0.06c-3.69,0.36-7.36-0.01-11.03,0.27c-1.87,0.15-3.63-0.37-4.76-0.8
		c-2.42,0.3-4.22,0.64-6.04,0.73c-1.68,0.08-3.35,0.17-5.03,0.42c-1.32,0.2-2.72-0.09-3.68-0.14c-1.59,0.2-2.79,0.45-4,0.48
		c-2.14,0.04-4.27,0.16-6.42-0.08c-1.03-0.11-2.18,0.13-2.7,1.71c0.22,1.97,0.48,4.21,0.73,6.49c-0.75,0.61-1.45,1.19-2.14,1.75
		c0.05,0.31,0.1,0.58,0.15,0.86c0.61,0.42,1.58,0.12,2.1,1.26c0.03,0.15,0.2,0.58,0.22,1.03c0.05,1.07,0.01,2.15,0.06,3.22
		c0.18,4.58-0.54,9.2,0.7,13.73c0.04,0.14,0.01,0.31,0.02,0.46c0.06,3.52,0.1,7.05,0.19,10.57c0.02,0.91,0.16,1.82,0.27,2.73
		c0.12,1.06,0.33,2.11,0.38,3.18c0.12,2.6,0.17,5.2,0.27,7.81c0.03,0.92,0.02,1.86,0.22,2.75c0.66,2.86,0.72,5.77,0.73,8.68
		c0,1.07-0.18,2.24,0.16,3.2c0.85,2.4,0.68,4.82,0.66,7.27c-0.02,1.82,0.09,3.61,0.75,5.41c0.51,1.38,0.62,3.05,0.42,4.52
		C159.77,188.58,160.32,189.96,160.63,191.03z"/>
	<path class="st2" d="M160.63,191.03c-0.31-1.08-0.85-2.45-0.63-4.09c0.2-1.47,0.09-3.14-0.42-4.52c-0.67-1.8-0.77-3.59-0.75-5.41
		c0.03-2.45,0.2-4.87-0.66-7.27c-0.34-0.96-0.16-2.13-0.16-3.2c-0.01-2.91-0.07-5.81-0.73-8.68c-0.2-0.89-0.19-1.83-0.22-2.75
		c-0.1-2.6-0.14-5.21-0.27-7.81c-0.05-1.06-0.26-2.12-0.38-3.18c-0.1-0.91-0.25-1.82-0.27-2.73c-0.08-3.52-0.13-7.05-0.19-10.57
		c0-0.15,0.02-0.31-0.02-0.46c-1.24-4.53-0.52-9.15-0.7-13.73c-0.04-1.07,0-2.15-0.06-3.22c-0.02-0.45-0.19-0.88-0.22-1.03
		c-0.52-1.15-1.49-0.84-2.1-1.26c-0.05-0.28-0.09-0.55-0.15-0.86c0.69-0.56,1.39-1.14,2.14-1.75c-0.26-2.27-0.51-4.52-0.73-6.49
		c0.52-1.58,1.67-1.82,2.7-1.71c2.15,0.24,4.28,0.12,6.42,0.08c1.21-0.02,2.42-0.28,4-0.48c0.96,0.05,2.36,0.33,3.68,0.14
		c1.68-0.25,3.34-0.34,5.03-0.42c1.82-0.09,3.63-0.42,6.04-0.73c1.13,0.43,2.88,0.95,4.76,0.8c3.67-0.29,7.35,0.09,11.03-0.27
		c2.72-0.27,5.49,0.03,8.24,0.06c1.07,0.01,2.14,0,3.36,0c0.56-0.23,1.26-0.52,2.14-0.89c3.39,1.4,7.12,0.94,10.77,1.02
		c2.74,0.06,5.51,0.12,8.26-0.05c2.16-0.13,4.27,0.06,5.91,0.4c3.05-0.18,5.64-0.34,8.71-0.52c0.24-0.06,0.8-0.78,1.72-0.44
		c0.24,0.3,0.53,0.65,0.92,1.15c2.08,0.84,4.39,0.14,6.66,0.25c2.28,0.11,4.57-0.05,6.91-0.09c0.23,0.42,0.56,0.78,0.64,1.2
		c0.29,1.5,0.5,3.01,0.77,4.67c-0.13,0.42-0.32,1-0.5,1.58c0.02,0.3-0.03,0.63,0.06,0.91c0.58,1.76,0.9,3.53,0.75,5.42
		c-0.16,1.98,0,3.98-0.06,5.96c-0.03,1.11,0.33,2.1,0.57,3.14c0.21,0.89-0.28,1.77-0.03,2.73c0.74,2.85,0.11,5.79,0.39,8.69
		c0.07,0.67-0.47,1.39-0.84,2.38c0.35,0.91,0.93,2.09,0.92,3.46c-0.04,3.53,0.01,7.06,0.02,10.59c0,0.15-0.03,0.31-0.03,0.46
		c-0.12,2.44,0.35,4.85,0.04,7.33c-0.29,2.26-0.07,4.6-0.06,6.9c0.01,2.45-0.01,4.91,0.05,7.36c0.05,1.83-0.16,3.67,0.63,5.45
		c0.29,0.66,0.19,1.51,0.2,2.27c0.04,2.61,0.03,5.22,0.08,7.82c0.02,1.23,0.02,2.46,0.2,3.67c0.73,5.03,0.87,7.56,0.61,13.24
		c-0.08,0.13-0.12,0.32-0.23,0.39c-0.64,0.38-1.31,0.74-2.07,1.16c-2.05-0.52-4.16-0.9-6.23,0.1c-0.26,0.13-0.61,0.14-0.91,0.11
		c-3.69-0.39-7.33,0.39-10.99,0.47c-1.68,0.04-3.29-0.05-4.94,0.45c-1,0.3-2.13,0.17-3.2,0.19c-2.45,0.03-4.9,0.03-7.35,0.05
		c-0.46,0-0.94-0.08-1.38,0.03c-4.82,1.17-9.74,0.7-14.62,0.97c-2.41,0.13-4.84,0.51-7.27-0.02c-0.73-0.16-1.53-0.04-2.29,0.01
		c-3.35,0.24-6.71,0.51-9.97,0.76c-1.73-0.29-3.38-0.68-5.05-0.83c-1.98-0.18-4.02,0.07-5.96-0.3c-1.96-0.37-3.9-0.65-5.88-0.85
		c-2.1-0.21-4.16-0.81-6.84-1.36c-2.07,0.72-4.81,0.55-7.54,0.22c-0.41-0.05-0.78-0.44-1.28-0.74
		C160.52,201.63,160.63,196.75,160.63,191.03z M210.48,119.85l0.07-0.07c-0.61-0.09-1.17-0.04-1.72,0.93
		c-0.14,1.24-0.11,2.85,0,4.41c0.52,0.44,0.96,0.82,1.34,1.14c0.53,1.29,1.03,2.51,1.52,3.72c-1.54,0.43-3.09,0.85-4.58,1.27
		c-0.51,1.88-0.97,3.58-1.43,5.29c-0.84,0.58-0.46,1.65-0.94,2.35c-0.49,0.71-1.06,1.35-1.53,1.94c0,0.76,0,1.35,0,1.93
		c-1.17,0.11-2.36,0.56-3.4-0.06c-0.51-1.21-0.5-2.32-0.14-3.29c1.13-3.03,0.48-6.02,0.05-9.19c0.13-0.57,0.43-1.32,0.44-2.06
		c0.11-5.97,0.16-11.93,0.21-17.9c0-0.6-0.15-1.19-0.23-1.8c-0.5-0.44-0.95-0.84-1.38-1.22c-1.9-0.25-3.69-0.36-5.47,0.4
		c-0.67,0.29-1.5,0.36-2.25,0.33c-2.28-0.11-4.59,0.06-6.61-0.82c-1.08,0.21-1.97,0.43-2.87,0.55c-0.89,0.12-1.8,0.15-2.76,0.22
		c-2.29,2.33-4.51,4.63-6.78,6.89c-2.38,2.37-4.81,4.71-7.31,7.15c-0.26,0.9-0.56,1.93-0.78,2.68c0.31,1.43,0.57,2.6,0.82,3.78
		c0.43,0.63,0.86,1.26,1.37,2c0,0.67,0,1.42,0,2.18c-0.94,0.57-1.64,1.33-1.95,2.57c0.28,1.89,1.89,2.43,3.4,3.02
		c1.52-0.4,2.97-0.78,4.32-1.13c1.24-0.76,1.84-2.16,3.22-2.55c0.93,0.5,1.29,1.28,1.28,2.27c-0.23,0.56-0.47,1.12-0.7,1.67
		c0.68,2.96,0.68,2.96,0.11,5.4c0.81,1.3,0.65,2.81,0.48,4.32c-1.36,0.15-2.75,0.15-4.06,0.48c-1.45,0.37-2.9,0.67-4.4,0.71
		c-0.44,0.52-0.82,0.97-1.21,1.43c-0.19,1.4-0.37,2.74-0.55,4.09c-0.98,0.52-1.65,1.33-2.11,2.4c1.03,2.11,0.23,4.47,0.64,6.54
		c0.63,1.25,1.18,2.36,2.73,2.91c3.52-0.65,7.35-0.07,11.06-0.37c0.97-0.31,1.83-0.59,2.64-0.85c0.96,0.32,1.82,0.6,2.76,0.92
		c1.27-0.43,2.56-0.86,3.72-1.25c0.76,0.16,1.35,0.29,1.67,0.36c1.78-0.26,3.32-0.81,4.77-0.64c4.45,0.52,8.83-0.2,13.05-0.36
		c1.62-0.98,2.14-2.39,2.5-3.9c0.88-0.17,1.77-0.32,2.65-0.51c0.78-0.17,1.37-0.58,1.71-1.59c-0.09-0.52-0.24-1.25-0.34-1.98
		c-0.42-2.83-0.52-5.65,0.3-8.44c1.32-0.28,2.64-0.64,3.98-0.81c1.33-0.16,2.68-0.13,3.67-0.17c1.14-0.46,2.01-0.71,2.77-1.16
		c0.75-0.45,1.36-1.1,1.95-1.59c0.88-0.09,1.62-0.17,2.32-0.24c0.8-1.64,1.52-3.13,2.19-4.5c0-0.91,0-1.67,0-2.42
		c0.09-1.81,0.19-3.62,0.27-5.05c0.34-1.21,0.59-2.06,0.84-2.94c-0.71-1.26-1.42-2.42-2.03-3.62c-0.35-0.7-0.4-1.45,0.46-2.09
		c0.61-0.17,1.33-0.38,2.06-0.58c0.2,0.96,0.39,1.92,0.6,2.91c0.39,0.12,0.8,0.24,1.2,0.36c0.43,0.96,0.84,1.92,2.02,2.23
		c0.23,0.06,0.38,0.43,0.56,0.65c-0.08,1.06-0.17,2.13-0.27,3.4c0.5,1.87,1.12,3.93,0.78,6.04c-0.31,0.76-0.59,1.46-0.66,1.64
		c0,2.39,0,4.21,0,5.98c0.44,0.39,0.77,0.68,1.21,1.07c1.29,0,2.64,0,3.89,0c0.66-0.27,1.22-0.5,1.78-0.73
		c2.28,0.3,4.55,0.12,6.95,0.05c0.42-0.63,0.85-1.25,1.25-1.88c0.41-0.64,0.79-1.29,1.19-1.95c-0.31-2.46,0.19-4.92-0.55-7.31
		c-0.04-0.14-0.02-0.3-0.01-0.05c0.36-1.72,0.63-3.06,0.95-4.39c0.06-0.26,0.35-0.47,0.55-0.72c1.03-0.19,2.07-0.37,3.16-0.57
		c1.08-0.81,2.16-1.62,3.26-2.43c0.05-1.96,0.11-3.78,0.13-5.61s0-3.66,0-5.25c-1.61-3.16-1.61-3.16-3.93-4.7c-5.7,0-11.5,0-17.3,0
		c-0.78,0-1.51,0.19-2.11,0.86c-0.57,1.49-1.17,3.05-1.76,4.61c-0.67,0.16-1.34,0.32-2.01,0.49c-1.05-1.05-0.89-2.52-1.31-3.78
		c-0.23-0.7-0.25-1.5-1.09-1.9c-3.1-0.3-6.23-0.63-9.28,0.55c-0.12,0.05-0.29-0.05-0.44-0.08c-0.23-0.17-0.55-0.53-0.69-0.47
		c-2.69,1.12-5.74,1.35-8.11,3.25c-0.22,0.18-0.35,0.48-0.52,0.73c-0.08,0.44-0.15,0.89-0.23,1.33c0.16,0.24,0.12,0.43-0.12,0.58
		C210.53,118.28,210.43,119.03,210.48,119.85z M208.74,198.08c0.71,1.26,0.84,2.47,2.14,2.72c0.29-0.11,0.57-0.21,1.08-0.4
		c1.21-1.88,2.81-3.72,3.07-6.35c0.12-1.16,0.85-2.26,1.75-3.34c1.39,0.19,2.93-0.05,4.17,0.61c1.65,1.84-0.28,3.3-0.2,4.63
		c0.14,1.37,0.42,2.38,1.4,3.03c1.95,0.26,1.99,0.33,2.65-0.09c0.49-0.31,0.85-0.83,1.33-1.31c-0.37-3.55,0.11-7.05,0.06-10.1
		c-0.31-1.34-1.12-2.02-0.9-3.23c0.14-0.38,0.34-0.96,0.55-1.54c-0.75-1.88-0.67-3.9-0.73-5.87c-0.08-2.8-0.81-5.37-2.02-7.78
		c-1.6,0.02-1.58,0.04-1.88,0.28c-2.14,1.65-3.26,3.95-4.22,6.39c-1.62,4.12-2.47,8.5-4.27,12.56c-0.24,0.54-0.18,1.21-0.36,1.79
		c-0.64,2.03-1.14,4.11-2.53,5.84C209.38,196.48,209.15,197.24,208.74,198.08z M237.54,199.55c2.72-0.35,4.05-2.81,5.92-4.56
		c0.3-1.18,0.59-2.36,0.9-3.59c-0.43-4.15-2.25-7.49-5.81-9.86c-1.58-1.05-2.55-2.61-3.18-4.59c0.52-1.13,1.09-2.37,1.68-3.64
		c0.7-0.38,1.36-0.76,2.05-1.07c0.26-0.12,0.6-0.07,1.14-0.11c1.32,0.62,2.83,1.33,4.19,1.97c0.89-0.14,1.21-0.62,1.42-1.23
		c-1.1-3.06-1.1-3.06-3.94-4.93c-1.36,0-2.88,0-4.42,0c-1.18,0.78-2.33,1.54-3.34,2.21c-1.7,2.39-2.95,4.79-3.34,7.71
		c0.39,0.74,0.85,1.53,1.25,2.36c0.4,0.82,0.74,1.67,1.17,2.65c1.54,1.32,3.17,2.7,4.92,4.2c0.93,1.4,1.75,3.02,1.85,4.85
		c-1.47,2.06-1.47,2.06-3.03,2.58c-1.5-0.75-2.34-2.45-4.34-2.92c-0.34,0.13-0.88,0.33-1.29,0.48c-0.58,1.4-0.6,2.57-0.09,3.76
		C233.24,196.92,234.33,199.37,237.54,199.55z M183.92,200.58c2.11-1.02,3.31-2.96,4.4-4.99c0.08-1.06,0.5-2.15-0.63-3.14
		c-0.77,0.15-1.65,0.33-2.34,0.47c-1.05,1.22-1.95,2.25-2.88,3.32c-0.41,0.16-0.82,0.37-1.26,0.48c-0.59,0.15-1.19,0.25-1.79,0.35
		c-0.45,0.07-0.92,0.05-1.36,0.16c-0.57,0.14-1.07,0.61-1.81,0.32c-1.59-1.54-3.08-3.26-4.22-5.27c-0.32-1.5-0.64-2.99-0.96-4.45
		c0.32-1.51,0.63-3,0.96-4.59c1.17-1.51,2.39-3.09,3.45-4.46c1.89-0.91,3.54-1.7,5.14-2.48c0.79-0.11,1.56-0.18,2.3-0.35
		c0.26-0.06,0.46-0.36,0.69-0.55c0.11-0.78,0.11-1.53-0.64-2.09c-1.15-0.26-2.34-0.53-3.23-0.73c-4.41,0.46-7.16,3.12-9.55,5.45
		c-2.37,3.37-3,6.83-3.32,8.89c0.08,4.84,1.73,7.81,2.85,10.61c2.29,2.82,5.31,3.47,8.1,4.27
		C179.96,201.38,181.89,200.99,183.92,200.58z M255.56,172.75c0.72-0.12,1.48-0.2,2.21-0.37c0.7-0.16,0.97-1.27,1.98-0.84
		c0.54,0.4,1.14,0.84,1.75,1.29c0.12-0.35,0.39-0.72,0.29-0.87c-0.64-1.02-1.35-2-1.97-2.9c-1.26-0.47-2.39-0.9-3.54-1.29
		c-0.27-0.09-0.6-0.01-0.96-0.01c-0.88,0.51-1.8,1.06-2.78,1.63c-0.65,0.79-1.32,1.61-2.03,2.48c-0.16,0.56-0.31,1.16-0.51,1.73
		c-0.25,0.71-0.54,1.41-0.85,2.2c0.32,1.17,0.84,2.32,0.92,3.5c0.11,1.8,0.79,3.28,1.98,4.51c1.63,1.69,2.58,3.77,3.55,5.71
		c0,1.5,0,2.87,0,4.24c-0.49,0.65-0.95,1.25-1.31,1.74c-1.29,0.26-2.32,0.22-3.13-0.73c-0.65-1.32-0.43-3.07-1.89-4.02
		c-0.99-0.35-1.79-0.1-2.41,0.75c-1.16,2.41,0.46,4.4,0.92,6.63c1.08,0.64,2.13,1.26,3.02,1.78c1.57,0,2.94,0,4.3,0
		c1.33-0.88,2.6-1.71,3.67-2.42c1.73-4.06,1.73-4.06,1.07-9.15c-1.47-3.53-4.12-6.35-6.13-9.71
		C253.61,176.69,253.66,174.73,255.56,172.75z M196.69,194.04c0-1.17-0.01-2.38,0-3.6c0.02-2.13-0.08-4.23,0.66-6.33
		c0.38-1.1,0.38-2.46,0.13-3.62c-0.44-2.06-0.68-4.18-1.38-6.18c-0.2-0.57-0.32-1.17-0.54-1.74c-0.1-0.27-0.33-0.49-0.49-0.74
		c-0.28-0.08-0.56-0.17-0.92-0.27c-0.31,0.25-0.65,0.53-1.08,0.88c-0.03,1.34-0.09,2.71-0.08,4.08c0,2.29,0.04,4.58,0.07,6.87
		c0.02,2.13-0.11,4.25-0.89,6.13c0.69,2.86,0.71,2.86,0.16,5.46c-0.29,1.37-0.29,2.72-0.01,4.31c0.35,0.42,0.83,0.98,1.25,1.47
		c1.09,0.07,2,0.13,2.73,0.18c1.32-0.48,2.48-0.85,3.6-1.32c1.11-0.47,2.33-0.78,3.04-1.88c0.24-1.69,0.26-1.69-0.41-2.75
		c-1.72-1.07-2.99,0.51-4.56,0.48C197.59,195.04,197.19,194.6,196.69,194.04z"/>
	<path class="st0" d="M232.28,122.93c-0.73,0.21-1.45,0.41-2.06,0.58c-0.85,0.64-0.81,1.39-0.46,2.09c0.61,1.21,1.31,2.36,2.03,3.62
		c-0.25,0.88-0.5,1.73-0.84,2.94c-0.08,1.43-0.17,3.24-0.27,5.05c-3.9,4.47-3.9,4.47-8.79,7.51c-0.12,0.08-0.28,0.11-0.6,0.22
		c-0.72-0.09-1.6-0.21-2.54-0.33c-0.94,0.29-1.94,0.6-2.84,0.88c-0.51-0.31-0.9-0.55-1.32-0.8c-0.34,0.25-0.7,0.52-1.03,0.77
		c-0.19,1.37-0.19,1.37,0.27,2.64c-0.82,2.79-0.72,5.61-0.3,8.44c0.11,0.73,0.25,1.45,0.34,1.98c-0.34,1.01-0.93,1.42-1.71,1.59
		c-0.88,0.19-1.77,0.34-2.65,0.51c-2.44-0.06-4.87-0.11-7.7-0.17c-2.85,1.26-6.29,0.3-9.28,0.89c-0.88-0.26-1.46-0.44-1.95-0.58
		c-1.14,0.26-2.14,0.8-3.24,0.45c-1.25-0.4-2.41,0.23-3.62,0.27c-1.07,0.03-2.14,0.07-3.22,0.09c-1.22,0.02-2.43,0-3.43,0
		c-0.76,0.32-1.31,0.55-1.77,0.74c-1.4-0.65-2.62-1.28-3.9-1.77c-0.54-0.21-1.2-0.12-1.64-0.16c-0.82,0.46-1.48,0.83-2.04,1.15
		c-0.43-0.14-0.72-0.23-1.14-0.37c-0.57-2.02-0.01-4.2-0.5-6.29c0.18-1.35,0.36-2.7,0.55-4.09c0.38-0.45,0.77-0.91,1.21-1.43
		c1.5-0.04,2.95-0.34,4.4-0.71c1.31-0.33,2.7-0.33,4.06-0.48c1.2,0.28,2.37,0.34,3.2-0.47c-0.1-1.66-0.28-3.16-0.28-4.66
		c0.01-4.57,0.11-9.14-0.11-13.7c-0.01-0.24-0.23-0.47-0.36-0.72c-1.02,0.35-2.02,0.69-2.24,0.77c-2.84,1.84-5,3.24-6.77,4.39
		c-1.86,0.58-2.77-0.21-3.61-1.17c0-0.76,0-1.51,0-2.18c-0.51-0.74-0.94-1.37-1.37-2c-0.26-1.18-0.51-2.35-0.82-3.78
		c0.22-0.75,0.51-1.77,0.78-2.68c2.5-2.44,4.93-4.78,7.31-7.15c2.27-2.26,4.49-4.56,6.78-6.89c0.96-0.07,1.86-0.1,2.76-0.22
		s1.79-0.34,2.87-0.55c2.02,0.88,4.33,0.71,6.61,0.82c0.75,0.04,1.57-0.04,2.25-0.33c1.78-0.76,3.57-0.65,5.47-0.4
		c0.43,0.38,0.88,0.78,1.38,1.22c0.08,0.61,0.23,1.21,0.23,1.8c-0.05,5.97-0.11,11.93-0.21,17.9c-0.01,0.75-0.31,1.49-0.44,2.06
		c0.42,3.17,1.08,6.16-0.05,9.19c-0.36,0.97-0.37,2.09,0.14,3.29c1.04,0.63,2.23,0.17,3.4,0.06c1.02,0.16,2.06,0.43,2.92-0.51
		c-0.15-1.9-0.29-3.81-0.44-5.71c0.46-1.71,0.92-3.42,1.43-5.29c1.49-0.41,3.04-0.84,4.58-1.27c1.22,1.11,2.87,0.83,4.1,1.4
		c1.17-0.4,2.36-0.1,3.2-1.07c-0.25-0.35-0.5-0.71-0.73-1.04c-0.98-0.18-1.87-0.35-2.67-0.5c-1.94-1.45-3.71-2.88-5.04-4.82
		c0-1.43,0-2.8,0-4.18l-0.07,0.07c0.86-0.41,0.89-1.19,0.9-1.99c0.24-0.15,0.28-0.34,0.12-0.58c0.52-0.31,1.1-0.53,1.53-0.93
		c1.81-1.68,4.39-1.89,6.3-3.38c0.44-0.35,1.14-0.37,1.71-0.54c0.15,0.03,0.32,0.13,0.44,0.08c3.05-1.18,6.19-0.85,9.28-0.55
		c0.83,0.4,0.85,1.2,1.09,1.9c0.42,1.27,0.26,2.74,1.31,3.78c-0.16,0.72-0.34,1.44-0.46,2.17
		C232.54,120.86,232.42,121.9,232.28,122.93z M170.33,158.31c4.34-0.56,8.27-1.26,11.96-0.62c1.63-0.44,2.96-0.8,4.29-1.16
		c1.77,0.52,3.58-0.4,5.37,0.2c0.7,0.23,1.67,0.39,2.25,0.08c1.49-0.8,2.99-0.35,4.42-0.25c1.86,0.13,3.65,0.11,5.33-0.42
		c0.84,0.15,1.59,0.29,2.22,0.4c0.85-0.32,1.57-0.59,2.42-0.92c0.02-0.75,0.19-1.53,0.04-2.24c-0.3-1.37-0.33-2.72-0.2-4.1
		c0.04-0.37-0.32-0.78-0.47-1.11c-2.07-0.11-3.92,0.84-5.96,0.25c-1.88-0.54-3.94-0.36-5.78-0.9c-0.38-0.42-0.72-0.74-0.99-1.11
		c-0.36-0.49-0.66-1.01-0.97-1.48c0.08-1.77,0.15-3.45,0.22-5.13c1.01-1.98,0.82-4.14,0.86-6.24c0.09-5.2,0.11-10.41,0.12-15.61
		c0.01-1.68-0.08-3.37-0.14-5.05c0-0.13-0.13-0.27-0.27-0.55c-1.09,0.02-2.26,0.05-3.43,0.06c-1.23,0.01-2.48,0.17-3.67-0.03
		c-1.27-0.21-2.34,0.54-3.59,0.38c-1.2-0.16-2.43-0.03-3.87-0.03c-0.82,0.92-1.93,1.83-2.56,2.99c-0.76,1.4-1.88,2.42-2.96,3.47
		c-1.21,1.16-2.58,2.16-3.9,3.2c-0.84,0.66-1.77,1.21-2.19,2.28c0.17,0.56,0.34,1.11,0.5,1.68c0.18,0.63-0.54,1.48,0.56,1.99
		c3.2-1.99,6.42-3.99,9.65-5.99c0.13-0.08,0.28-0.11,0.43-0.15c0.15-0.03,0.3-0.04,0.55-0.06c0.31,0.2,0.68,0.44,0.99,0.63
		c1.18,3.73,1.96,7.41,1.21,10.96c0.33,0.99,1.11,1.48,0.89,2.53c-0.18,0.55-0.41,1.27-0.65,2.01c0.25,0.71,0.6,1.4,0.72,2.14
		c0.12,0.74,0.13,1.55-0.03,2.28c-0.24,1.08-0.17,2.09-0.01,3.17c0.15,1.04-0.07,2.13-0.12,3.05c-0.44,1.33-1,2.39-2.33,3.29
		c-0.64,0.02-1.58-0.08-2.45,0.11c-1.79,0.4-3.56,0.87-5.42,0.54c-1.23,0.53-2.81,0.14-3.85,1.48
		C170.19,155.43,170.36,156.71,170.33,158.31z M224.02,130.29c-1.24,2.17-2.29,4.01-3.36,5.89c-0.97,0.1-1.88,0.29-2.78,0.25
		c-2.14-0.07-4.27-0.26-6.4-0.37c-0.28-0.01-0.57,0.18-0.85,0.28c-1.09,1.73-1.09,1.73-0.2,3.27c3.01,0.87,6.21,0.88,9.29,1.22
		c2.34-0.78,3.94-2.46,5.65-3.87c0.52-1.02,1-1.96,1.4-2.77c-0.07-1.71-0.14-3.23-0.2-4.7c-0.74-1.03-1.46-2.01-2.15-3
		c-0.78-1.11-1.54-2.24-2.3-3.33c0-0.67,0-1.28,0-1.91c2.13-1.63,4.53-2.52,7.11-2.99c0.07-0.01,0.16,0.1,0.24,0.16
		c-0.1-0.11-0.23-0.2-0.3-0.33c-0.58-0.97-0.52-2.45-1.85-2.57c-2.89,0.73-5.54,1.39-7.88,1.98c-1.55,1-2.82,1.83-4.04,2.61
		c-0.38,0.75-1.05,1.25-0.96,2.1c0.18,0.24,0.32,0.54,0.55,0.72c0.73,0.55,1.49,1.06,2.31,1.64c1.73,0.28,3.55,0.53,5.27,2.02
		C222.96,127.55,223.45,128.82,224.02,130.29z"/>
	<path class="st0" d="M235.17,117.16c0.6-1.56,1.19-3.12,1.76-4.61c0.6-0.67,1.33-0.86,2.11-0.86c5.8-0.01,11.6,0,17.3,0
		c2.32,1.54,2.32,1.54,3.93,4.7c0,1.59,0.02,3.42,0,5.25s-0.08,3.65-0.13,5.61c-1.09,0.82-2.18,1.63-3.26,2.43
		c-1.09,0.2-2.13,0.38-3.16,0.57c-0.2,0.25-0.49,0.46-0.55,0.72c-0.32,1.33-0.58,2.67-0.95,4.39c-0.02-0.25-0.04-0.09,0.01,0.05
		c0.74,2.39,0.24,4.85,0.55,7.31c-0.4,0.66-0.79,1.31-1.19,1.95c-0.4,0.63-0.82,1.24-1.25,1.88c-2.4,0.07-4.67,0.25-6.95-0.05
		c-0.55-1-1.54-0.75-2.41-0.86c-0.28-0.03-0.56-0.17-1.04-0.32c-0.3-0.5-0.67-1.14-1.07-1.82c0.19-1.85,0.1-3.74,0.62-5.45
		c0.7-2.31,0.5-4.48-0.14-6.55c0.09-1.02,0.89-1.81,0.3-2.76c-1.08-0.64-2.02,0.01-2.99,0.35c-0.18-0.23-0.33-0.59-0.56-0.65
		c-1.18-0.31-1.59-1.27-2.02-2.23c-0.15-0.42-0.3-0.84-0.49-1.36c1.29-1.18,0.69-3.13,1.73-4.39
		C235.27,119.29,235.22,118.23,235.17,117.16z M248.71,127.86c0.89-1.54,2.01-2.53,3.55-3.01c0.98-0.3,2.02,1.1,3.07-0.23
		c0.53-1.13,0.45-2.5,0.58-3.72c-0.29-1.51-0.84-2.73-1.74-3.68c-0.24-0.1-0.38-0.21-0.52-0.21c-4.28-0.06-8.55-0.11-12.95-0.16
		c-0.52,0.88-1.06,1.78-1.55,2.6c0.16,1.62-0.4,3.17,0.43,4.5c1.55,0.2,2.63-1.1,3.99-0.87c0.99,0.53,1.22,1.39,1.29,2.6
		c-0.3,0.76-0.68,1.74-1.1,2.81c0,0.53-0.08,1.16,0.01,1.76c0.41,2.56,0.3,5.09-0.04,7.65c-0.18,1.33-0.03,2.69-0.03,3.92
		c0.28,0.21,0.4,0.37,0.51,0.37c0.6-0.02,1.2-0.07,1.66-0.11c1.1-0.92,1.79-1.9,2.12-3.33c-0.11-1.19-0.43-2.57-0.31-3.91
		C247.88,132.45,248.37,130.07,248.71,127.86z"/>
	<path class="st0" d="M208.74,198.08c0.41-0.83,0.64-1.6,1.11-2.17c1.39-1.72,1.89-3.81,2.53-5.84c0.18-0.58,0.12-1.25,0.36-1.79
		c1.8-4.06,2.65-8.44,4.27-12.56c0.96-2.44,2.08-4.74,4.22-6.39c0.3-0.23,0.28-0.26,1.88-0.28c1.21,2.41,1.94,4.98,2.02,7.78
		c0.06,1.97-0.02,3.99,0.73,5.87c-0.21,0.59-0.42,1.16-0.55,1.54c-0.22,1.21,0.59,1.9,0.9,3.23c0.05,3.05-0.43,6.55-0.06,10.1
		c-0.48,0.49-0.84,1-1.33,1.31c-0.65,0.42-0.7,0.35-2.65,0.09c-0.99-0.65-1.27-1.67-1.4-3.03c-0.08-1.32,1.84-2.79,0.2-4.63
		c-1.24-0.66-2.78-0.42-4.17-0.61c-0.9,1.08-1.64,2.18-1.75,3.34c-0.26,2.63-1.86,4.46-3.07,6.35c-0.5,0.19-0.78,0.29-1.08,0.4
		C209.58,200.55,209.45,199.34,208.74,198.08z M218.14,186.77c1.23,0.85,2.2,0.23,3.13-0.6c0.3-2.02,0.44-3.99-0.05-5.96
		c-0.29-0.1-0.55-0.19-1.28-0.45c0.07,2.43-1.72,4.17-1.93,6.51C218,186.41,218.08,186.55,218.14,186.77z"/>
	<path class="st0" d="M237.54,199.55c-3.22-0.18-4.3-2.63-6.28-3.73c-0.51-1.19-0.49-2.37,0.09-3.76c0.41-0.15,0.95-0.35,1.29-0.48
		c2,0.46,2.84,2.17,4.34,2.92c1.56-0.51,1.56-0.51,3.03-2.58c-0.1-1.83-0.92-3.45-1.85-4.85c-1.76-1.5-3.38-2.89-4.92-4.2
		c-0.43-0.98-0.77-1.83-1.17-2.65s-0.85-1.62-1.25-2.36c0.39-2.92,1.64-5.32,3.34-7.71c1.01-0.67,2.16-1.43,3.34-2.21
		c1.55,0,3.07,0,4.42,0c2.84,1.87,2.84,1.87,3.94,4.93c-0.2,0.61-0.53,1.09-1.42,1.23c-1.36-0.64-2.87-1.35-4.19-1.97
		c-0.55,0.05-0.88-0.01-1.14,0.11c-0.69,0.31-1.34,0.7-2.05,1.07c-0.59,1.28-1.16,2.52-1.68,3.64c0.63,1.98,1.6,3.54,3.18,4.59
		c3.57,2.37,5.38,5.71,5.81,9.86c-0.31,1.23-0.61,2.41-0.9,3.59C241.59,196.74,240.26,199.2,237.54,199.55z"/>
	<path class="st0" d="M183.92,200.58c-2.03,0.41-3.97,0.8-6.07,1.23c-2.79-0.8-5.8-1.46-8.1-4.27c-1.13-2.8-2.77-5.76-2.85-10.61
		c0.32-2.07,0.95-5.52,3.32-8.89c2.38-2.33,5.14-4.99,9.55-5.45c0.89,0.2,2.08,0.47,3.23,0.73c0.75,0.56,0.75,1.31,0.64,2.09
		c-0.23,0.19-0.43,0.49-0.69,0.55c-0.74,0.17-1.51,0.24-2.3,0.35c-1.61,0.77-3.25,1.57-5.14,2.48c-1.06,1.37-2.28,2.94-3.45,4.46
		c-0.33,1.59-0.65,3.07-0.96,4.59c0.31,1.46,0.63,2.95,0.96,4.45c1.14,2,2.63,3.72,4.22,5.27c0.74,0.28,1.24-0.18,1.81-0.32
		c0.44-0.11,0.91-0.09,1.36-0.16c0.6-0.09,1.2-0.19,1.79-0.35c0.44-0.12,0.85-0.32,1.26-0.48c0.92-1.06,1.82-2.1,2.88-3.32
		c0.7-0.14,1.57-0.32,2.34-0.47c1.14,0.99,0.71,2.08,0.63,3.14C187.23,197.62,186.03,199.57,183.92,200.58z"/>
	<path class="st0" d="M255.56,172.75c-1.9,1.98-1.94,3.95-1.86,5.85c2.02,3.36,4.66,6.18,6.13,9.71c0.66,5.1,0.66,5.1-1.07,9.15
		c-1.08,0.71-2.35,1.55-3.67,2.42c-1.36,0-2.73,0-4.3,0c-0.89-0.53-1.94-1.15-3.02-1.78c-0.46-2.23-2.08-4.21-0.92-6.63
		c0.62-0.84,1.42-1.09,2.41-0.75c1.47,0.95,1.24,2.7,1.89,4.02c0.81,0.95,1.84,0.99,3.13,0.73c0.36-0.48,0.82-1.08,1.31-1.74
		c0-1.37,0-2.74,0-4.24c-0.97-1.94-1.92-4.01-3.55-5.71c-1.19-1.23-1.87-2.71-1.98-4.51c-0.07-1.18-0.6-2.34-0.92-3.5
		c0.31-0.78,0.6-1.48,0.85-2.2c0.2-0.57,0.35-1.17,0.51-1.73c0.71-0.86,1.39-1.69,2.03-2.48c0.98-0.57,1.9-1.11,2.78-1.63
		c0.36,0,0.69-0.08,0.96,0.01c1.15,0.39,2.28,0.82,3.54,1.29c0.63,0.9,1.34,1.88,1.97,2.9c0.09,0.15-0.17,0.52-0.29,0.87
		c-0.61-0.45-1.2-0.89-1.75-1.29c-1.01-0.42-1.29,0.69-1.98,0.84C257.03,172.55,256.28,172.63,255.56,172.75z"/>
	<path class="st0" d="M196.69,194.04c0.5,0.56,0.9,1,1.28,1.43c1.58,0.02,2.85-1.56,4.56-0.48c0.67,1.06,0.65,1.06,0.41,2.75
		c-0.71,1.1-1.94,1.41-3.04,1.88c-1.12,0.47-2.28,0.84-3.6,1.32c-0.74-0.05-1.65-0.11-2.73-0.18c-0.42-0.49-0.9-1.06-1.25-1.47
		c-0.28-1.59-0.29-2.94,0.01-4.31c0.56-2.6,0.54-2.6-0.16-5.46c0.78-1.88,0.91-3.99,0.89-6.13c-0.02-2.29-0.06-4.58-0.07-6.87
		c0-1.37,0.05-2.73,0.08-4.08c0.43-0.35,0.77-0.62,1.08-0.88c0.35,0.11,0.64,0.19,0.92,0.27c0.17,0.25,0.39,0.47,0.49,0.74
		c0.21,0.57,0.34,1.17,0.54,1.74c0.7,2.01,0.95,4.12,1.38,6.18c0.24,1.16,0.25,2.52-0.13,3.62c-0.74,2.09-0.64,4.2-0.66,6.33
		C196.69,191.66,196.69,192.87,196.69,194.04z"/>
	<path class="st2" d="M218.14,186.77c-0.06-0.22-0.13-0.36-0.12-0.5c0.21-2.34,2-4.07,1.93-6.51c0.73,0.26,0.99,0.35,1.28,0.45
		c0.49,1.96,0.35,3.94,0.05,5.96C220.34,187,219.36,187.62,218.14,186.77z"/>
</g>
</svg>
