<svg version="1.1" id="Layer_1" xmlns="http://www.w3.org/2000/svg" x="0" y="0" viewBox="0 0 458 320" style="enable-background:new 0 0 458 320" xml:space="preserve"><style>.st1{fill:#131112}</style><path d="M197.63 105.63c.84-1.61 1.5-2.99 2.26-4.32.75-1.31 1.6-2.58 2.65-4.26.55-.48 1.51-1.25 2.38-2.1 1.66-1.62 3.63-2.79 5.61-3.95 3.36-1.96 6.98-2.09 10.7-1.62.6.08 1.26.16 1.77.46 2.25 1.3 4.97 1.55 7.09 3.17.46.35 1.13.43 1.7.63.79.78 1.56 1.52 2.32 2.28 1.08 1.06 1.58 2.58 2.82 3.55.41.32.47 1.08.65 1.53.94.5 1.6.2 2.2-.34.23-.2.47-.43.6-.69.83-1.74 2.25-2.86 3.89-3.78.8-.45 1.55-.98 2.4-1.51h2.21c1.32-.51 2.6-1.01 3.91-1.52.42.12.85.25 1.5.45 2.31-.77 4.91-.49 7.47-.36 2.15.11 4.2.91 6.03 2.09 1.93 1.24 3.83 2.55 5.63 3.97 1.94 1.54 3.61 3.35 4.28 5.84.4 1.48.87 2.97.98 4.48.16 2.14 1.04 4.16.88 6.35-.14 1.82-.85 6.5-1.49 8.54-.27.87-.5 1.76-.73 2.6-.65.7-1.45 1.27-1.87 2.05-1.16 2.16-2.3 4.31-4.1 6.03-.49 1.57-2.04 2.26-2.89 3.52-1.15 1.59-1.55 3.71-3.3 4.76-1.1.49-1.84-.34-2.7-.46-1.4.16-2.14 1.12-2.77 2.14.15.47.29.9.45 1.43-.95 1.35-2.19 2.4-3.47 3.15-.33.74-.58 1.3-.81 1.81-1.27 1.2-2.35 2.6-3.76 3.45-1.59.97-2.84 2.23-4.14 3.5-.66.64-1.39 1.2-2.09 1.79-.46.39-1.11.68-1.36 1.17-.89 1.77-3.03 2.07-4.06 3.62-1.37.69-2.53 1.73-3.84 2.47-1.44.82-3.11 1.22-5.27 2.03.04-.03-.43.35-.92.74-1.29.43-2.58.86-3.94 1.31-.87-.1-1.77-.2-2.4-.27-.53-.31-.83-.43-1.04-.63-1.97-1.93-3.95-3.85-5.86-5.83-.63-.65-1.29-1.4-1.59-2.23-.72-1.96-2.24-3.34-3.58-4.73-1.72-1.79-3.02-3.83-4.51-5.77-1.3-1.69-1.96-3.81-3.64-5.24-.33-.28-.56-.76-.68-1.19-.55-1.93-1.66-3.61-2.42-5.45-.76-1.82-1.01-3.86-2.28-5.47-.6-2.53-1.22-5.05-1.78-7.59-.16-.74-.15-1.52-.17-2.29-.1-3.21-.34-6.43-.22-9.64.1-2.57-.02-5.21.96-7.7.26-.7.26-1.5.34-1.97zm9.28 20.29c.91 2.1 1.79 4.05 2.61 6.03.87 2.11 2.12 4.05 2.78 6.25.09.29.28.54.41.82.82 1.64 1.45 3.43 2.52 4.89 1.09 1.49 1.99 3.06 2.93 4.63 1.19 1.97 2.84 3.55 4.77 4.98.61-.24 1.15-.46 1.53-.6.65-1.04.64-1.93.27-3.04-.47-.55-1.04-1.26-1.66-1.94-1.56-1.71-2.92-3.61-3.82-5.7-1.02-2.38-2.43-4.56-3.27-7.03-.44-1.29-1.2-2.47-1.84-3.68-1.36-2.58-2.43-5.24-2.91-8.15-.47-2.85-1.16-5.67-1.69-8.2.21-1.2.55-2.12.47-2.99-.11-1.09-.05-2.1.18-3.16.23-1.03.24-2.12.3-2.77.69-1.97 1.92-3.25 2.26-5.01-.46-.23-.84-.42-1.35-.68-.92.48-1.9.92-2.79 1.49-.5.32-.95.8-1.26 1.31-1.51 2.55-1.57 5.52-2.37 8.28.31 2.87 1.31 5.66.93 8.61-.04.28.08.62.23.87.91 1.38.56 2.97.77 4.79zm10.07-17.45c-.17 3.83-.51 7.52.76 11.08.1.28.04.61.07.91.34 3.26 2.35 9.79 3.93 12.57 1.58 2.79 3.22 5.54 4.84 8.32.84.63 1.49 1.58 2.91 1.47.32-.31.75-.71 1.16-1.1v-2.56c-2.44-3.56-3.71-7.88-6.27-11.54-.07-.44-.12-.9-.21-1.35-.1-.45-.22-.89-.38-1.32-2.38-6.13-3.05-12.42-1.85-18.9.14-.74.14-1.52-.31-2.24-1.22.02-2.36.33-3.52 1-.35 1.09-1.06 2.22-1.13 3.66z" style="fill:#ff5543"/><path class="st1" d="M201.73 226.07c-.58-.07-1.33-.18-2.08-.25-.76-.07-1.62.11-2.26-.19-1.75-.82-3.6-.68-5.43-.81-1.52-.1-3.01-.26-4.52-.66-1.9-.51-3.94-.51-6.87-.84-1.31-.28-3.29-1.53-5.55-2.08-1.17-.29-2.27-.75-3.51-.91-1.33-.17-2.59-.86-3.93-1.34h-2.42c-1.65-.69-3.35-1.81-5.39-2.05-.43-.05-.85-.33-1.25-.57-.66-.39-1.25-.9-1.93-1.23-.68-.32-1.44-.48-1.97-.64-1.15-.96-2-1.92-1.75-3.27.24-1.31-.55-2.38-.56-3.45.31-1.33.69-2.5.83-3.7.14-1.21.03-2.45.03-3.04 1.15-3.98 2.7-7.13 3.58-10.56.83-3.23 1.73-6.5 3.17-9.56.39-.83.85-1.68.99-2.56.21-1.26.72-2.31 1.41-3.34.42-.63.67-1.38 1.05-2.2-.23-.66-.48-1.37-.74-2.12-.15-1.21 1.27-2.12.66-3.64-.72-.21-1.57-.46-2.45-.72-.69-.56-1.4-1.14-2.23-1.82-1.36-.32-2.84-.68-4.32-1.03-.17-.24-.33-.49-.6-.88-1.63-.49-3.39-1.01-5.23-1.56-1.14-2.08-2.23-4.23-2.71-6.72.34-.79.63-1.67 1.09-2.46.46-.78 1.11-1.45 1.67-2.17.9-2.61 1.65-5.25 3.05-7.68.82-1.42.94-3.16 2.07-4.53.94-1.14.59-3.02 1.91-4.07-.11-2.23 1.94-3.37 2.63-5.22.69-1.86 1.58-3.68 2.63-5.36 1.15-1.84 2-3.78 2.8-5.78.8-1.99 1.62-3.97 3.05-5.64.49-.57.78-1.3 1.13-1.98 1.44-2.82 4.31-7.22 6.7-9.81 1.05-1.13 1.28-2.83 2.69-3.66 1.68-2.77 4.36-4.73 6.01-7.52 3.32-2.53 5.41-6.25 8.61-8.89 1.53-1.27 3.1-2.5 4.68-3.71.72-.56 1.59-.91 2.07-1.77.39-.7 1.04-1.1 1.81-1.33.29-.09.61-.18.84-.36 1.07-.86 2.06-1.83 3.18-2.6 1.12-.78 2.37-1.39 3.57-2.07 3.32-1.89 6.44-4.12 10.03-5.55 1.26-.5 2.4-1.31 3.89-2.15.56-.08 1.46-.22 2.31-.35.81-.56 1.57-1.08 2.46-1.69 1.25-.06 2.62-.12 4.07-.18 2.22-.75 4.53-1.53 7.19-2.44 2.83.05 6.04-.07 9.17-.9.15-.04.3-.07.45-.07 7.06-.13 14.15-.53 21.07 1.2 2.23.56 4.45 1.06 7 1.49 2.07 1.36 4.46 2.7 6.97 3.89 2.47 1.17 4.7 2.86 7.03 4.34.52.33.96.79 1.51 1.05 2.16 1.07 3.77 2.63 4.36 4.76.8.47 1.33.77 2.01 1.17.34.49.69 1.21 1.24 1.71 1.62 1.49 2.72 3.33 3.65 5.26 1.47 3.04 3.33 5.86 4.89 8.85.92 1.77 1.62 3.57 2.1 5.54.51 2.07 1.28 4.1 1.48 6.23.45 4.73.96 9.45.82 14.22-.06 1.84-.04 3.69.05 5.52.04.75.35 1.48.55 2.29-.88 2.14-.87 4.44-.82 6.74.02.93-.14 1.8-.29 2.7-.45 2.72-.67 5.47-1.07 8.2-.38 2.56-.68 5.17-1.34 7.65-.82 3.08-1.59 6.2-2.86 9.17-.55 1.29-1.41 2.36-2 3.59-2.53 5.25-5.8 10.06-8.85 14.99-.24.39-.46.83-.8 1.12-2.28 1.9-3.33 4.77-5.38 6.84-.53.54-1.19.95-1.8 1.43-2.76 5.12-5.71 10.14-7.82 15.59-.61 1.57-1.27 3.1-1.62 4.77-.31 1.48-1.71 2.45-1.82 4.15-.09 1.3-.93 2.56-1.44 3.84-.06.14-.1.29-.19.57.07.62.14 1.37.24 2.25-.32.57-.69 1.24-1.12 2.02-.03.49-.08 1.1-.11 1.71-.06 1.37.15 2.76-.59 4.05-.21.36-.25.89-.2 1.32.32 2.54-.78 4.81-1.31 7.19-.08.34-.6.59-.9.86.19.13.48.32.92.62.03.48.2 1.11.07 1.66-.33 1.33-.82 2.62-1.22 3.94-.48 1.61-1.09 3.2-1.35 4.84-.24 1.5-.18 3.05-.94 4.43-.02 2.95-1.21 5.64-1.79 8.47-.18.89-.17 1.81-.24 2.69-.44.54-.82 1-1.09 1.33-1.13.4-1.99.27-3.01-.48-.21-.46-.52-1.15-.87-1.9 1.19-3.02 1.38-6.21 1.44-9.41.02-.93.13-1.82.56-2.67.2-.39.24-.88.27-1.34.13-1.66-.13-3.32.56-4.98.57-1.37.16-3.07 1.12-4.4-.11-2.15 1.06-4.1.92-6.28-.07-1.03.31-2.11.55-3.15.28-1.18.47-2.43.99-3.5.57-1.19.1-2.51.56-3.58 1.02-2.38.87-5.16 2.63-7.08v-2.21c.46-2.25 1.69-3.92 1.91-5.94.21-1.97 1.4-3.73 1.11-5.55 1.45-3.49 2.79-6.74 4.15-9.98.36-.85.63-1.81 1.22-2.46 1.71-1.87 2.2-4.31 3.46-6.58 2.39-2.91 4.91-5.97 7.42-9.04.39-.47.66-1.04 1.07-1.48 3.56-3.87 6.38-8.18 8.41-13.06 1.36-3.24 3.04-6.36 4.08-9.73 1.9-6.16 3.38-12.4 2.95-18.94-.12-1.83-.02-3.68-.02-6.37-.24-.77-.74-2.37-1.31-4.21.27-.78.62-1.79.86-2.47.67-.63 1.1-1.04 1.36-1.28.43-1.59-.55-2.6-.66-3.27-.2-3.28-.52-6.03-.49-8.78.02-1.45-.26-2.78-.82-4-.9-1.98-1.4-4.05-1.84-6.06-.74-1.28-1.39-2.5-2.13-3.66s-1.57-2.26-2.48-3.55c-.2-.69-.46-1.57-.61-2.11-1.6-2.09-2.99-3.91-4.83-6.32-.35-.31-1.35-1.04-2.18-1.92-1.6-1.69-3.31-3.2-5.43-4.2-.41-.19-.8-.47-1.14-.77-3.04-2.71-6.89-3.94-10.43-5.73-2.19-.21-4-1.53-6.42-2.21-3.01-.04-6.44.26-9.75-.22-3.2-.46-6.42.13-9.7-.65-.46.14-1.03.44-1.61.47-1.38.07-2.75.06-4.04.69-.39.19-.89.24-1.34.24-3.27.04-6.28 1.24-9.38 2.05-1.48.39-2.95.87-4.37 1.42-1.42.55-2.77 1.29-4.18 1.88-1.69.72-3.41 1.38-5.38 2.17-.49.4-1.2.99-2.05 1.69-.7.23-1.57.52-2.49.83-.34.24-.74.47-1.09.76-1.89 1.58-3.9 2.94-6.09 4.09-1.89.99-3.62 2.24-5.19 3.75-2.53 2.45-5.18 4.8-8.12 6.6-4.06 4.3-7.21 9.25-11.41 13.01-.54 1.19-.86 2.24-1.46 3.1-.69 1-1.69 1.78-2.46 2.73-.76.95-1.36 2.03-2.1 2.99-.37.48-.9.83-1.33 1.23-.33.88-.55 1.78-.98 2.57-.87 1.61-1.89 3.15-2.77 4.75-.51.93-.99 1.91-1.31 2.92-.8 2.5-2.59 4.52-3.27 7.07-.11.41-.54.73-.84 1.09-1.49 1.81-2.56 3.81-2.96 6.15-.05.28-.29.53-.6 1.07-.51.36-1.26.87-2.04 1.41-.44.67-.02 1.45-.18 2.28-1.86 3.27-3.29 6.79-4.01 10.83-1.18 1.84-3.01 3.6-3.46 6.03.51 1.02 1.4 1.35 2.29 1.51 2.27.42 4.5.94 6.65 1.8.42.17.89.27 1.34.3 3.57.21 6.79 1.68 10.15 2.63.99 1.67 1.02 3.43.2 4.91-1.18 2.13-1.78 4.59-3.52 6.42-1.26 1.32-1.58 2.93-1.39 4.69-.59 1.05-1.45 2.05-1.71 3.18-.28 1.21-.95 2.27-1.16 3.46-.77 4.42-2.58 8.46-4.38 12.7-.22 2.12-.52 4.37-1.33 6.57-.79 2.14-1.38 4.41-.68 6.9 1.14 1.13 2.72 1.72 4.48 2.48.84-.29 1.83-.63 2.78-.96 2.57.53 5.1 1.06 7.21 1.5 1.96.98 2.86 2.46 4 3.6 2.95 1.07 5.81 2.2 8.91 1.73.88.48 1.69.91 2.54 1.37 1.94-.45 3.9-.73 5.74.44 1.97.25 3.96.46 5.92.76 1.05.16 2.07.47 3.58.82.57-.04 1.64-.12 2.79-.21.78.39 1.6.79 2.68 1.32 2.32.05 4.9.11 7.87.18l5.91 1.45c1.06.83 1.13 1.99.77 3.25-.21.23-.36.55-.61.67-2.77 1.34-5.31 3.03-7.78 4.87-1.95 1.45-4.24 2.4-5.88 4.31-.44.51-1.37.6-2.15.91-1.19 1.53-2.29 3.24-4.2 3.85-.74 2.01-1.43 3.87-2.25 6.08.01.24.05.84.11 1.87-.06.18-.28.75-.43 1.33-.44 1.77-1.33 3.38-1.64 5.23-.3 1.77-1.33 3.4-1.91 5.14a7.615 7.615 0 0 1-1.59 2.76c-.67.75-1.48 1.05-2.44.91-1-.39-1.54-1.15-1.37-2.15.28-1.66.61-3.33 1.12-4.92.89-2.77 1.95-5.49 2.91-8.15.19-1.76.37-3.44.56-5.16.54-.73 1.09-1.45 1.68-2.23.06-.85.12-1.76.19-2.77.8-1.72 1.85-3.4 2.11-5.46.15-1.16.97-2.23 1.49-3.33.44-.24.83-.45 1.29-.7.11-.18.44-.47.4-.67-.25-1.34.26-2.84-1-4.11z"/><path class="st1" d="M206.91 125.92c-.21-1.82.14-3.41-.75-4.81-.16-.25-.27-.59-.23-.87.37-2.95-.62-5.74-.93-8.61.8-2.76.86-5.73 2.37-8.28.3-.51.76-.99 1.26-1.31.9-.57 1.88-1.01 2.79-1.49.51.25.89.44 1.35.68-.34 1.76-1.57 3.04-2.26 5.01-.06.65-.07 1.74-.3 2.77a9.576 9.576 0 0 0-.18 3.16c.09.87-.26 1.78-.47 2.99.53 2.53 1.22 5.35 1.69 8.2.48 2.91 1.55 5.57 2.91 8.15.64 1.22 1.4 2.4 1.84 3.68.84 2.47 2.25 4.65 3.27 7.03.9 2.1 2.26 3.99 3.82 5.7.62.68 1.19 1.39 1.66 1.94.37 1.12.38 2-.27 3.04-.37.15-.92.36-1.53.6-1.93-1.42-3.58-3-4.77-4.98-.95-1.57-1.85-3.14-2.93-4.63-1.07-1.46-1.7-3.25-2.52-4.89-.14-.27-.33-.53-.41-.82-.67-2.2-1.91-4.14-2.78-6.25-.84-1.96-1.72-3.91-2.63-6.01zM216.98 108.47c.06-1.44.77-2.57 1.12-3.65 1.16-.67 2.3-.98 3.52-1 .45.71.45 1.5.31 2.24-1.2 6.48-.53 12.77 1.85 18.9.17.42.28.87.38 1.32s.15.9.21 1.35c2.56 3.66 3.83 7.98 6.27 11.54v2.56c-.41.39-.84.79-1.16 1.1-1.41.12-2.07-.84-2.91-1.47-1.61-2.77-3.25-5.53-4.84-8.32-1.58-2.79-3.6-9.32-3.93-12.57-.03-.3.02-.63-.07-.91-1.25-3.57-.92-7.26-.75-11.09z"/></svg>