<?xml version="1.0" encoding="utf-8"?>
<!-- Generator: Adobe Illustrator 26.0.1, SVG Export Plug-In . SVG Version: 6.00 Build 0)  -->
<svg version="1.1" id="Layer_1" xmlns="http://www.w3.org/2000/svg" xmlns:xlink="http://www.w3.org/1999/xlink" x="0px" y="0px"
	 viewBox="0 0 458 320" style="enable-background:new 0 0 458 320;" xml:space="preserve">
<style type="text/css">
	.st0{fill:#FF5543;}
	.st1{fill:#131112;}
</style>
<g>
	<path class="st0" d="M197.63,105.63c0.84-1.61,1.5-2.99,2.26-4.32c0.75-1.31,1.6-2.58,2.65-4.26c0.55-0.48,1.51-1.25,2.38-2.1
		c1.66-1.62,3.63-2.79,5.61-3.95c3.36-1.96,6.98-2.09,10.7-1.62c0.6,0.08,1.26,0.16,1.77,0.46c2.25,1.3,4.97,1.55,7.09,3.17
		c0.46,0.35,1.13,0.43,1.7,0.63c0.79,0.78,1.56,1.52,2.32,2.28c1.08,1.06,1.58,2.58,2.82,3.55c0.41,0.32,0.47,1.08,0.65,1.53
		c0.94,0.5,1.6,0.2,2.2-0.34c0.23-0.2,0.47-0.43,0.6-0.69c0.83-1.74,2.25-2.86,3.89-3.78c0.8-0.45,1.55-0.98,2.4-1.51
		c0.72,0,1.48,0,2.21,0c1.32-0.51,2.6-1.01,3.91-1.52c0.42,0.12,0.85,0.25,1.5,0.45c2.31-0.77,4.91-0.49,7.47-0.36
		c2.15,0.11,4.2,0.91,6.03,2.09c1.93,1.24,3.83,2.55,5.63,3.97c1.94,1.54,3.61,3.35,4.28,5.84c0.4,1.48,0.87,2.97,0.98,4.48
		c0.16,2.14,1.04,4.16,0.88,6.35c-0.14,1.82-0.85,6.5-1.49,8.54c-0.27,0.87-0.5,1.76-0.73,2.6c-0.65,0.7-1.45,1.27-1.87,2.05
		c-1.16,2.16-2.3,4.31-4.1,6.03c-0.49,1.57-2.04,2.26-2.89,3.52c-1.15,1.59-1.55,3.71-3.3,4.76c-1.1,0.49-1.84-0.34-2.7-0.46
		c-1.4,0.16-2.14,1.12-2.77,2.14c0.15,0.47,0.29,0.9,0.45,1.43c-0.95,1.35-2.19,2.4-3.47,3.15c-0.33,0.74-0.58,1.3-0.81,1.81
		c-1.27,1.2-2.35,2.6-3.76,3.45c-1.59,0.97-2.84,2.23-4.14,3.5c-0.66,0.64-1.39,1.2-2.09,1.79c-0.46,0.39-1.11,0.68-1.36,1.17
		c-0.89,1.77-3.03,2.07-4.06,3.62c-1.37,0.69-2.53,1.73-3.84,2.47c-1.44,0.82-3.11,1.22-5.27,2.03c0.04-0.03-0.43,0.35-0.92,0.74
		c-1.29,0.43-2.58,0.86-3.94,1.31c-0.87-0.1-1.77-0.2-2.4-0.27c-0.53-0.31-0.83-0.43-1.04-0.63c-1.97-1.93-3.95-3.85-5.86-5.83
		c-0.63-0.65-1.29-1.4-1.59-2.23c-0.72-1.96-2.24-3.34-3.58-4.73c-1.72-1.79-3.02-3.83-4.51-5.77c-1.3-1.69-1.96-3.81-3.64-5.24
		c-0.33-0.28-0.56-0.76-0.68-1.19c-0.55-1.93-1.66-3.61-2.42-5.45c-0.76-1.82-1.01-3.86-2.28-5.47c-0.6-2.53-1.22-5.05-1.78-7.59
		c-0.16-0.74-0.15-1.52-0.17-2.29c-0.1-3.21-0.34-6.43-0.22-9.64c0.1-2.57-0.02-5.21,0.96-7.7
		C197.55,106.9,197.55,106.1,197.63,105.63z M206.91,125.92c0.91,2.1,1.79,4.05,2.61,6.03c0.87,2.11,2.12,4.05,2.78,6.25
		c0.09,0.29,0.28,0.54,0.41,0.82c0.82,1.64,1.45,3.43,2.52,4.89c1.09,1.49,1.99,3.06,2.93,4.63c1.19,1.97,2.84,3.55,4.77,4.98
		c0.61-0.24,1.15-0.46,1.53-0.6c0.65-1.04,0.64-1.93,0.27-3.04c-0.47-0.55-1.04-1.26-1.66-1.94c-1.56-1.71-2.92-3.61-3.82-5.7
		c-1.02-2.38-2.43-4.56-3.27-7.03c-0.44-1.29-1.2-2.47-1.84-3.68c-1.36-2.58-2.43-5.24-2.91-8.15c-0.47-2.85-1.16-5.67-1.69-8.2
		c0.21-1.2,0.55-2.12,0.47-2.99c-0.11-1.09-0.05-2.1,0.18-3.16c0.23-1.03,0.24-2.12,0.3-2.77c0.69-1.97,1.92-3.25,2.26-5.01
		c-0.46-0.23-0.84-0.42-1.35-0.68c-0.92,0.48-1.9,0.92-2.79,1.49c-0.5,0.32-0.95,0.8-1.26,1.31c-1.51,2.55-1.57,5.52-2.37,8.28
		c0.31,2.87,1.31,5.66,0.93,8.61c-0.04,0.28,0.08,0.62,0.23,0.87C207.05,122.51,206.7,124.1,206.91,125.92z M216.98,108.47
		c-0.17,3.83-0.51,7.52,0.76,11.08c0.1,0.28,0.04,0.61,0.07,0.91c0.34,3.26,2.35,9.79,3.93,12.57c1.58,2.79,3.22,5.54,4.84,8.32
		c0.84,0.63,1.49,1.58,2.91,1.47c0.32-0.31,0.75-0.71,1.16-1.1c0-0.88,0-1.63,0-2.56c-2.44-3.56-3.71-7.88-6.27-11.54
		c-0.07-0.44-0.12-0.9-0.21-1.35c-0.1-0.45-0.22-0.89-0.38-1.32c-2.38-6.13-3.05-12.42-1.85-18.9c0.14-0.74,0.14-1.52-0.31-2.24
		c-1.22,0.02-2.36,0.33-3.52,1C217.76,105.9,217.05,107.03,216.98,108.47z"/>
	<path class="st1" d="M201.73,226.07c-0.58-0.07-1.33-0.18-2.08-0.25c-0.76-0.07-1.62,0.11-2.26-0.19c-1.75-0.82-3.6-0.68-5.43-0.81
		c-1.52-0.1-3.01-0.26-4.52-0.66c-1.9-0.51-3.94-0.51-6.87-0.84c-1.31-0.28-3.29-1.53-5.55-2.08c-1.17-0.29-2.27-0.75-3.51-0.91
		c-1.33-0.17-2.59-0.86-3.93-1.34c-0.71,0-1.47,0-2.42,0c-1.65-0.69-3.35-1.81-5.39-2.05c-0.43-0.05-0.85-0.33-1.25-0.57
		c-0.66-0.39-1.25-0.9-1.93-1.23c-0.68-0.32-1.44-0.48-1.97-0.64c-1.15-0.96-2-1.92-1.75-3.27c0.24-1.31-0.55-2.38-0.56-3.45
		c0.31-1.33,0.69-2.5,0.83-3.7c0.14-1.21,0.03-2.45,0.03-3.04c1.15-3.98,2.7-7.13,3.58-10.56c0.83-3.23,1.73-6.5,3.17-9.56
		c0.39-0.83,0.85-1.68,0.99-2.56c0.21-1.26,0.72-2.31,1.41-3.34c0.42-0.63,0.67-1.38,1.05-2.2c-0.23-0.66-0.48-1.37-0.74-2.12
		c-0.15-1.21,1.27-2.12,0.66-3.64c-0.72-0.21-1.57-0.46-2.45-0.72c-0.69-0.56-1.4-1.14-2.23-1.82c-1.36-0.32-2.84-0.68-4.32-1.03
		c-0.17-0.24-0.33-0.49-0.6-0.88c-1.63-0.49-3.39-1.01-5.23-1.56c-1.14-2.08-2.23-4.23-2.71-6.72c0.34-0.79,0.63-1.67,1.09-2.46
		c0.46-0.78,1.11-1.45,1.67-2.17c0.9-2.61,1.65-5.25,3.05-7.68c0.82-1.42,0.94-3.16,2.07-4.53c0.94-1.14,0.59-3.02,1.91-4.07
		c-0.11-2.23,1.94-3.37,2.63-5.22c0.69-1.86,1.58-3.68,2.63-5.36c1.15-1.84,2-3.78,2.8-5.78c0.8-1.99,1.62-3.97,3.05-5.64
		c0.49-0.57,0.78-1.3,1.13-1.98c1.44-2.82,4.31-7.22,6.7-9.81c1.05-1.13,1.28-2.83,2.69-3.66c1.68-2.77,4.36-4.73,6.01-7.52
		c3.32-2.53,5.41-6.25,8.61-8.89c1.53-1.27,3.1-2.5,4.68-3.71c0.72-0.56,1.59-0.91,2.07-1.77c0.39-0.7,1.04-1.1,1.81-1.33
		c0.29-0.09,0.61-0.18,0.84-0.36c1.07-0.86,2.06-1.83,3.18-2.6c1.12-0.78,2.37-1.39,3.57-2.07c3.32-1.89,6.44-4.12,10.03-5.55
		c1.26-0.5,2.4-1.31,3.89-2.15c0.56-0.08,1.46-0.22,2.31-0.35c0.81-0.56,1.57-1.08,2.46-1.69c1.25-0.06,2.62-0.12,4.07-0.18
		c2.22-0.75,4.53-1.53,7.19-2.44c2.83,0.05,6.04-0.07,9.17-0.9c0.15-0.04,0.3-0.07,0.45-0.07c7.06-0.13,14.15-0.53,21.07,1.2
		c2.23,0.56,4.45,1.06,7,1.49c2.07,1.36,4.46,2.7,6.97,3.89c2.47,1.17,4.7,2.86,7.03,4.34c0.52,0.33,0.96,0.79,1.51,1.05
		c2.16,1.07,3.77,2.63,4.36,4.76c0.8,0.47,1.33,0.77,2.01,1.17c0.34,0.49,0.69,1.21,1.24,1.71c1.62,1.49,2.72,3.33,3.65,5.26
		c1.47,3.04,3.33,5.86,4.89,8.85c0.92,1.77,1.62,3.57,2.1,5.54c0.51,2.07,1.28,4.1,1.48,6.23c0.45,4.73,0.96,9.45,0.82,14.22
		c-0.06,1.84-0.04,3.69,0.05,5.52c0.04,0.75,0.35,1.48,0.55,2.29c-0.88,2.14-0.87,4.44-0.82,6.74c0.02,0.93-0.14,1.8-0.29,2.7
		c-0.45,2.72-0.67,5.47-1.07,8.2c-0.38,2.56-0.68,5.17-1.34,7.65c-0.82,3.08-1.59,6.2-2.86,9.17c-0.55,1.29-1.41,2.36-2,3.59
		c-2.53,5.25-5.8,10.06-8.85,14.99c-0.24,0.39-0.46,0.83-0.8,1.12c-2.28,1.9-3.33,4.77-5.38,6.84c-0.53,0.54-1.19,0.95-1.8,1.43
		c-2.76,5.12-5.71,10.14-7.82,15.59c-0.61,1.57-1.27,3.1-1.62,4.77c-0.31,1.48-1.71,2.45-1.82,4.15c-0.09,1.3-0.93,2.56-1.44,3.84
		c-0.06,0.14-0.1,0.29-0.19,0.57c0.07,0.62,0.14,1.37,0.24,2.25c-0.32,0.57-0.69,1.24-1.12,2.02c-0.03,0.49-0.08,1.1-0.11,1.71
		c-0.06,1.37,0.15,2.76-0.59,4.05c-0.21,0.36-0.25,0.89-0.2,1.32c0.32,2.54-0.78,4.81-1.31,7.19c-0.08,0.34-0.6,0.59-0.9,0.86
		c0.19,0.13,0.48,0.32,0.92,0.62c0.03,0.48,0.2,1.11,0.07,1.66c-0.33,1.33-0.82,2.62-1.22,3.94c-0.48,1.61-1.09,3.2-1.35,4.84
		c-0.24,1.5-0.18,3.05-0.94,4.43c-0.02,2.95-1.21,5.64-1.79,8.47c-0.18,0.89-0.17,1.81-0.24,2.69c-0.44,0.54-0.82,1-1.09,1.33
		c-1.13,0.4-1.99,0.27-3.01-0.48c-0.21-0.46-0.52-1.15-0.87-1.9c1.19-3.02,1.38-6.21,1.44-9.41c0.02-0.93,0.13-1.82,0.56-2.67
		c0.2-0.39,0.24-0.88,0.27-1.34c0.13-1.66-0.13-3.32,0.56-4.98c0.57-1.37,0.16-3.07,1.12-4.4c-0.11-2.15,1.06-4.1,0.92-6.28
		c-0.07-1.03,0.31-2.11,0.55-3.15c0.28-1.18,0.47-2.43,0.99-3.5c0.57-1.19,0.1-2.51,0.56-3.58c1.02-2.38,0.87-5.16,2.63-7.08
		c0-0.98,0-1.74,0-2.21c0.46-2.25,1.69-3.92,1.91-5.94c0.21-1.97,1.4-3.73,1.11-5.55c1.45-3.49,2.79-6.74,4.15-9.98
		c0.36-0.85,0.63-1.81,1.22-2.46c1.71-1.87,2.2-4.31,3.46-6.58c2.39-2.91,4.91-5.97,7.42-9.04c0.39-0.47,0.66-1.04,1.07-1.48
		c3.56-3.87,6.38-8.18,8.41-13.06c1.36-3.24,3.04-6.36,4.08-9.73c1.9-6.16,3.38-12.4,2.95-18.94c-0.12-1.83-0.02-3.68-0.02-6.37
		c-0.24-0.77-0.74-2.37-1.31-4.21c0.27-0.78,0.62-1.79,0.86-2.47c0.67-0.63,1.1-1.04,1.36-1.28c0.43-1.59-0.55-2.6-0.66-3.27
		c-0.2-3.28-0.52-6.03-0.49-8.78c0.02-1.45-0.26-2.78-0.82-4c-0.9-1.98-1.4-4.05-1.84-6.06c-0.74-1.28-1.39-2.5-2.13-3.66
		s-1.57-2.26-2.48-3.55c-0.2-0.69-0.46-1.57-0.61-2.11c-1.6-2.09-2.99-3.91-4.83-6.32c-0.35-0.31-1.35-1.04-2.18-1.92
		c-1.6-1.69-3.31-3.2-5.43-4.2c-0.41-0.19-0.8-0.47-1.14-0.77c-3.04-2.71-6.89-3.94-10.43-5.73c-2.19-0.21-4-1.53-6.42-2.21
		c-3.01-0.04-6.44,0.26-9.75-0.22c-3.2-0.46-6.42,0.13-9.7-0.65c-0.46,0.14-1.03,0.44-1.61,0.47c-1.38,0.07-2.75,0.06-4.04,0.69
		c-0.39,0.19-0.89,0.24-1.34,0.24c-3.27,0.04-6.28,1.24-9.38,2.05c-1.48,0.39-2.95,0.87-4.37,1.42c-1.42,0.55-2.77,1.29-4.18,1.88
		c-1.69,0.72-3.41,1.38-5.38,2.17c-0.49,0.4-1.2,0.99-2.05,1.69c-0.7,0.23-1.57,0.52-2.49,0.83c-0.34,0.24-0.74,0.47-1.09,0.76
		c-1.89,1.58-3.9,2.94-6.09,4.09c-1.89,0.99-3.62,2.24-5.19,3.75c-2.53,2.45-5.18,4.8-8.12,6.6c-4.06,4.3-7.21,9.25-11.41,13.01
		c-0.54,1.19-0.86,2.24-1.46,3.1c-0.69,1-1.69,1.78-2.46,2.73c-0.76,0.95-1.36,2.03-2.1,2.99c-0.37,0.48-0.9,0.83-1.33,1.23
		c-0.33,0.88-0.55,1.78-0.98,2.57c-0.87,1.61-1.89,3.15-2.77,4.75c-0.51,0.93-0.99,1.91-1.31,2.92c-0.8,2.5-2.59,4.52-3.27,7.07
		c-0.11,0.41-0.54,0.73-0.84,1.09c-1.49,1.81-2.56,3.81-2.96,6.15c-0.05,0.28-0.29,0.53-0.6,1.07c-0.51,0.36-1.26,0.87-2.04,1.41
		c-0.44,0.67-0.02,1.45-0.18,2.28c-1.86,3.27-3.29,6.79-4.01,10.83c-1.18,1.84-3.01,3.6-3.46,6.03c0.51,1.02,1.4,1.35,2.29,1.51
		c2.27,0.42,4.5,0.94,6.65,1.8c0.42,0.17,0.89,0.27,1.34,0.3c3.57,0.21,6.79,1.68,10.15,2.63c0.99,1.67,1.02,3.43,0.2,4.91
		c-1.18,2.13-1.78,4.59-3.52,6.42c-1.26,1.32-1.58,2.93-1.39,4.69c-0.59,1.05-1.45,2.05-1.71,3.18c-0.28,1.21-0.95,2.27-1.16,3.46
		c-0.77,4.42-2.58,8.46-4.38,12.7c-0.22,2.12-0.52,4.37-1.33,6.57c-0.79,2.14-1.38,4.41-0.68,6.9c1.14,1.13,2.72,1.72,4.48,2.48
		c0.84-0.29,1.83-0.63,2.78-0.96c2.57,0.53,5.1,1.06,7.21,1.5c1.96,0.98,2.86,2.46,4,3.6c2.95,1.07,5.81,2.2,8.91,1.73
		c0.88,0.48,1.69,0.91,2.54,1.37c1.94-0.45,3.9-0.73,5.74,0.44c1.97,0.25,3.96,0.46,5.92,0.76c1.05,0.16,2.07,0.47,3.58,0.82
		c0.57-0.04,1.64-0.12,2.79-0.21c0.78,0.39,1.6,0.79,2.68,1.32c2.32,0.05,4.9,0.11,7.87,0.18c1.67,0.41,3.75,0.92,5.91,1.45
		c1.06,0.83,1.13,1.99,0.77,3.25c-0.21,0.23-0.36,0.55-0.61,0.67c-2.77,1.34-5.31,3.03-7.78,4.87c-1.95,1.45-4.24,2.4-5.88,4.31
		c-0.44,0.51-1.37,0.6-2.15,0.91c-1.19,1.53-2.29,3.24-4.2,3.85c-0.74,2.01-1.43,3.87-2.25,6.08c0.01,0.24,0.05,0.84,0.11,1.87
		c-0.06,0.18-0.28,0.75-0.43,1.33c-0.44,1.77-1.33,3.38-1.64,5.23c-0.3,1.77-1.33,3.4-1.91,5.14c-0.35,1.05-0.86,1.95-1.59,2.76
		c-0.67,0.75-1.48,1.05-2.44,0.91c-1-0.39-1.54-1.15-1.37-2.15c0.28-1.66,0.61-3.33,1.12-4.92c0.89-2.77,1.95-5.49,2.91-8.15
		c0.19-1.76,0.37-3.44,0.56-5.16c0.54-0.73,1.09-1.45,1.68-2.23c0.06-0.85,0.12-1.76,0.19-2.77c0.8-1.72,1.85-3.4,2.11-5.46
		c0.15-1.16,0.97-2.23,1.49-3.33c0.44-0.24,0.83-0.45,1.29-0.7c0.11-0.18,0.44-0.47,0.4-0.67
		C202.48,228.84,202.99,227.34,201.73,226.07z"/>
	<path class="st1" d="M206.91,125.92c-0.21-1.82,0.14-3.41-0.75-4.81c-0.16-0.25-0.27-0.59-0.23-0.87c0.37-2.95-0.62-5.74-0.93-8.61
		c0.8-2.76,0.86-5.73,2.37-8.28c0.3-0.51,0.76-0.99,1.26-1.31c0.9-0.57,1.88-1.01,2.79-1.49c0.51,0.25,0.89,0.44,1.35,0.68
		c-0.34,1.76-1.57,3.04-2.26,5.01c-0.06,0.65-0.07,1.74-0.3,2.77c-0.24,1.06-0.29,2.07-0.18,3.16c0.09,0.87-0.26,1.78-0.47,2.99
		c0.53,2.53,1.22,5.35,1.69,8.2c0.48,2.91,1.55,5.57,2.91,8.15c0.64,1.22,1.4,2.4,1.84,3.68c0.84,2.47,2.25,4.65,3.27,7.03
		c0.9,2.1,2.26,3.99,3.82,5.7c0.62,0.68,1.19,1.39,1.66,1.94c0.37,1.12,0.38,2-0.27,3.04c-0.37,0.15-0.92,0.36-1.53,0.6
		c-1.93-1.42-3.58-3-4.77-4.98c-0.95-1.57-1.85-3.14-2.93-4.63c-1.07-1.46-1.7-3.25-2.52-4.89c-0.14-0.27-0.33-0.53-0.41-0.82
		c-0.67-2.2-1.91-4.14-2.78-6.25C208.7,129.97,207.82,128.02,206.91,125.92z"/>
	<path class="st1" d="M216.98,108.47c0.06-1.44,0.77-2.57,1.12-3.65c1.16-0.67,2.3-0.98,3.52-1c0.45,0.71,0.45,1.5,0.31,2.24
		c-1.2,6.48-0.53,12.77,1.85,18.9c0.17,0.42,0.28,0.87,0.38,1.32s0.15,0.9,0.21,1.35c2.56,3.66,3.83,7.98,6.27,11.54
		c0,0.93,0,1.68,0,2.56c-0.41,0.39-0.84,0.79-1.16,1.1c-1.41,0.12-2.07-0.84-2.91-1.47c-1.61-2.77-3.25-5.53-4.84-8.32
		c-1.58-2.79-3.6-9.32-3.93-12.57c-0.03-0.3,0.02-0.63-0.07-0.91C216.48,115.99,216.81,112.3,216.98,108.47z"/>
</g>
</svg>
