<svg version="1.1" id="Layer_1" xmlns="http://www.w3.org/2000/svg" x="0" y="0" viewBox="0 0 458 320" style="enable-background:new 0 0 458 320" xml:space="preserve"><style>.st0{fill:#131112}.st1{fill:#6b59e9}.st2{fill:#ff5543}</style><path class="st0" d="M164.44 132.74c-.75.5-1.5 1.01-2.22 1.49.03.36.05.65.08 1.05 3.14.42 6.31.44 9.48.09.76-.08 1.54-.25 2.28-.15 1.52.19 3 .19 4.52-.09 1.2-.22 2.44-.16 3.64.2 1.21.36 2.42.34 3.61-.31 1.63.41 3.17 1.08 4.95.62 1.13-.29 2.44.24 3.62.07 1.22-.17 2.4-.43 3.63-.12.28.07.64.05.9-.07 1.16-.54 2.39-.48 3.61-.45 1.21.03 2.43.15 3.85.25.96-.32 2.12-.71 3.4-1.13 1.71.51 3.48-.45 5.31-.23 1.57-.7 3.34-.11 4.91-.79 1.86.51 3.62.05 5.37-.51 2.43.6 4.79-.34 7.19-.36 2.29-.02 4.59-.28 6.87.14 3.96-.62 7.93.09 11.91-.18 4.27-.29 8.55-.18 12.79.79 2.37.55 4.84.66 7.27 1.01 1.05.15 2.09.38 3.22.6.48-.15 1.06-.34 1.61-.51 3.16.63 6.3 1.29 9.54 1 .45-.04.96-.05 1.36.11 1.77.74 3.61.52 5.44.56 1.99.05 3.97.19 5.96.15 1.82-.04 3.64-.35 5.47-.38.89-.01 1.79.33 3.14.61 1.65-.41 3.75-.64 5.88.04.86.28 1.81.3 2.72.41 1.82.22 3.64.42 5.94.69.26-.1.96-.38 1.87-.74.65-1.18 1.38-2.51 2.32-4.21.81-.73 1.95-1.74 3.44-3.07.62-1.37 1.35-3.27 3.5-3.93.23-.07.36-.48.55-.72.76-.93 1.52-1.85 2.28-2.78 1.38-.25 1.83-1.53 2.67-2.39.86-.87 1.66-1.81 2.58-2.62.82-.72 1.31-1.68 2.03-2.45.62-.66 1.39-1.17 2.08-1.72.65-1.79 1.47-3.4 3.65-3.96 1.09-1.51 2.14-3.21 3.42-4.72 2.77-3.25 5.7-6.37 8.9-9.2.45-.39 1.12-.55 1.51-.97 1.42-1.56 2.76-3.18 4-4.63 1.47-.77 2.83-1.41 4.12-2.17 2.13-1.24 4.28-2.37 6.7-2.54.96.18 1.85.36 2.73.52.75.13 1.5.23 2.27.34 2.05 1.91 4.13 3.71 6.45 4.51 2.24 1.72 3.44 3.94 5.6 5.55.43 1.08.95 2.34 1.46 3.61-.15 2.75 1.76 5.3.5 8.85-1.39 2.49-4.13 4.62-7.18 6.41-.13.07-.3.07-.45.1-.11-.11-.19-.29-.32-.32-1.59-.47-3.16-1.14-4.78-1.32-1.6-.18-2.95-.73-4.44-1.73-1.02-.58-1.03-2.37-2.48-2.9-.29.1-.71.11-.81.3-.42.79-.59 1.74-1.13 2.41-.54.69-1.44 1.08-2.11 1.69-.45.4-.75.97-1.15 1.43s-.78.97-1.27 1.31c-2.8 1.92-4.94 4.54-7.41 6.82-.67.62-1.28 1.35-1.76 2.12-1.38 2.23-3.13 4.14-4.86 6.08-1.43 1.6-2.86 3.18-4.29 4.77-.58 1.88-2.19 2.89-3.54 4.18-.99 2.56-3.04 4.52-4.29 6.95-1.32 2.56-3.26 4.82-3.85 7.52-1.18 1.45-2.25 2.75-3.31 4.05-1.16 1.42-2.3 2.85-3.51 4.34-.29 1.15-.48 2.35.79 3.21-.31.89-.23 1.78-.13 2.69.09.89.02 1.79.02 2.51-1.79 2.44-4.38 2.95-6.93 3.73-.28.5-.57 1.01-.86 1.52-.58.47-1.16.94-1.45 1.18-.29 1.26-.54 2.13-.67 3.01-.16 1.05-.22 2.12-.29 2.78-.7 1.28-1.47 2.17-1.65 3.17-.25 1.42-.91 2.57-1.59 3.77-.91 1.59-1.67 3.27-2.5 4.91-.28.54-.59 1.07-.94 1.71-.6.54-1.28 1.16-1.93 1.75-1.23 2.51-2.63 4.84-4.82 6.63-.71.58-1.32 1.3-1.85 2.04-2.14 2.94-5.28 4.54-8.31 6.29-.5.29-1.17.3-1.58.4-1.12.89-2.07 1.66-2.83 2.27-1.26.39-2.35.21-3.37.74-.92.47-2.03.57-3.02.82-.49.43-.95.83-1.41 1.24-3.36.45-6.38 2.09-9.87 2.5-1.82-.2-3.79-.42-5.81-.64-.6-.75-1.18-1.45-1.73-2.17-.05-.07.02-.24.04-.39 2.05-1.36 4.32-1.29 6.44-.91.64-.16 1.08-.31 1.53-.38 3.35-.48 6.33-2.27 9.69-2.7 2.36-1.51 5.07-2.08 7.16-2.68 1.2-.83 1.96-1.33 2.69-1.86 2.11-1.51 4.48-2.67 6.25-4.65.91-1.02 1.91-1.97 2.86-2.96 1.05-1.09 1.76-2.5 3.08-3.34 1.28-2.04 2.67-4.01 4.15-5.91.17-.22.15-.58.25-.87.26-.71.51-1.43.83-2.11 1.58-3.31 3.18-6.6 4.64-9.64.03-3.31.93-6.01 2.62-8.48.75-.32 1.45-.62 2.14-.92.89-.22 1.79-.4 2.67-.66.74-.22 1.39-.62 1.86-1.68-.07-1.07.12-2.53-.3-3.79-.69-2.09-.51-4.21-.82-5.89.27-.96.83-1.41.56-2.01-.42-.74-1.09-1.38-1.13-2.06-.12-2.3-1.43-4.35-1.25-6.7.04-.57-.25-1.16-.34-1.56.19-1.22.84-2.19.4-3.29-.05-.13-.2-.23-.37-.41h-1.77c-1.33.2-2.19 1.69-3.93 1.46-.72-.74-1.55-1.6-2.48-2.57-1.7-.24-3.51-.58-5.33-.72-1.67-.13-3.34.06-4.96-.66-.62-.27-1.48-.03-2.22.03-1.36.1-2.71.3-4.07.35-1.37.05-2.75-.06-4.13-.08-.92-.01-1.84.02-2.76 0-.6-.01-1.26.08-1.8-.12-1.94-.71-3.94-.09-5.89-.4-2.45.82-4.78-.17-7.16-.48-.91-.12-1.8-.43-2.71-.49-1.68-.11-3.38-.26-5.04-.08-1.91.2-3.56-.88-5.38-.79-1.76.08-3.29-.58-4.88-1.04-5.36-.49-10.71.02-16.06 0-5.34-.02-10.68-.26-15.9.14-.49-.23-.87-.4-1.22-.56-.37.33-.7.63-1.03.93-2.08-.08-4.24 1.19-6.18-.35-.95.18-1.75.55-2.7.56-1.02.02-2.03.53-3.05.83-.74-.14-1.48-.29-2.17-.43-.94.28-1.8.71-2.69.79-3.03.27-6 .95-9.09.83-2.43-.1-4.9-.14-7.32.38-.42.09-.91-.11-1.36-.18-2.14-.48-3.93-.5-7.19-.09-1.96-.01-3.94.15-5.87-.07-2.27-.26-4.47-.07-6.67.36-1.78-.5-3.59-.32-5.4-.29-1.05-.45-2.1-.4-3.15.02-1.37.07-2.74.27-4.1.18s-2.71-.33-4.08-.22c-1.82.15-3.63.29-5.45.42-3.33.24-6.67.12-9.99.51-.57.07-1.18-.28-1.78-.33-.59-.05-1.19.08-1.78.05-1.5-.06-2.98.17-4.46.21-4.26.09-8.53.03-12.8.01-1.37-.01-2.71-.09-4.07-.44-1.26-.33-2.62-.23-3.74-.31-1.08 1.03-1.06 2.07-.79 3.15-.61.94-.72 2-.72 3.09v5.34c.53 1.18.96 2.15 1.37 3.05 1.15.74 2.27 1.29 3.19 2.08 1.62 1.4 3.29 2.8 4.6 4.47s2.74 3.26 4 4.98c.18.25.42.49.49.78.52 2.15 1.97 3.77 3.07 5.59 1.1 1.84 1.92 3.81 2.82 5.74.19.41.4.85.71 1.17 1.65 1.68 2.52 3.85 3.6 5.86.74 1.39 1.58 2.61 2.74 3.63 2.08 1.81 4.22 3.55 6.27 5.39 1.83 1.64 3.76 3.12 5.87 4.38.26.15.48.37.72.55.24.4.49.79.78 1.26 2.83 1.33 5.7 2.75 8.07 5.07 2.03.2 3.79 1.12 5.47 2.21.63.41 1.26.97 2.08.84 1.51-.25 2.52 1.1 3.92 1.2h4.56l3.8 1.24c3.78-.24 6.95-.66 10.06-1.44 3.32-.83 6.11-2.8 9.31-4.07.45-1.88 2.1-2.5 3.39-3.12.8-.87 1.43-1.55 2.04-2.23 3.45-3.85 3.45-3.85 5.61-8.29 1-2.06 2.08-4.09 2.97-6.2 1.74-4.12 2.74-8.42 2.91-12.87 1.64-4.31 2.93-8.77 6.17-12.01 4.16-2.05 4.16-2.05 7.19-1.97.31.21.76.4 1.05.74 1.81 2.08 3.31 4.3 4.2 7 1.32 4 1.78 8.01 1.39 12.02-.52.4-.87.68-1.31 1.02.36.33.65.65 1 .9.36.27.76.48 1.24.77.76 1.78 1.44 3.66 2.35 5.42 1 1.94 1.55 3.97 1.62 5.85 1.86 2.98 3.43 5.81 5.3 8.42 1.86 2.6 4.01 5 6.14 7.6 1.02.67 2.17 1.43 3.22 2.12.67.79 1.26 1.49 1.86 2.2 1.71.31 3.27.87 4.63 1.95.59.47 1.31.81 2.03 1.07.85.31 1.76.46 2.53.65.93.74 1.76 1.4 2.6 2.06.03.48.05.94.08 1.47-.41.15-.81.3-1.13.42-.66-.3-1.21-.55-1.9-.86-2.26.78-4.28-.92-6.39-.87-1.21-.76-2.24-1.43-3.29-2.06-2.77-1.66-5.39-3.5-7.41-6.06-1.59-.81-1.98-2.67-3.28-3.76-2.65-2.21-4.1-5.31-5.92-8.14-.17-1.47-1.22-2.44-2-3.57-.26-.38-.51-.76-.74-1.11-.08-.66-.16-1.27-.2-1.62-.85-1.9-1.73-3.53-2.3-5.26-.53-1.58-1.28-3.09-1.41-4.82-.13-1.82-.71-3.61-.8-5.43-.06-1.26-.46-2.38-.75-3.49.13-.66.25-1.25.37-1.8-.99-2.17-1.68-4.34-1.81-6.51-.81-.95-1.29-1.95-2.46-2.31-1.21.47-2.45.95-3.59 1.39-.14.47-.23.76-.32 1.05-2.22 2.48-3.48 5.35-3.49 8.72-.8 2.61-.26 5.51-1.7 7.98-.1 3.19-1.61 5.83-3.19 8.47-1.1 1.84-1.76 3.89-2.74 5.8-1.92 3.77-4.6 6.86-7.72 9.61-1.83 1.62-3.83 3.05-5.75 4.56-1.55-.02-1.55-.02-1.92 1.12l.05-.02c-1.12-.4-2.14-.01-3.06.52-2.69 1.55-5.71 2.12-8.62 3.03-.57.18-1.23.25-1.81.17-1.37-.19-2.71-.33-4.09-.06-.58.11-1.29.07-1.81-.18-1.68-.79-3.61-.53-5.3-1.41-.74-.38-1.79-.16-2.7-.22-.46-.03-.91-.09-1.32-.13-.83-.5-1.62-.97-2.35-1.4-1.14-.15-2.21-.29-3.31-.43-1.05-.59-2.08-1.27-3.19-1.77-2.5-1.13-5.19-1.94-6.95-4.27-.09-.11-.26-.16-.39-.24-.74-.18-1.47-.35-1.97-.47-2.17-1.6-3.84-3.44-6.13-4.43-.54-.24-1.05-.67-1.45-1.11-1.22-1.36-2.63-2.46-4.09-3.56-3.21-2.42-5.37-5.85-7.9-8.92-.38-.46-.53-1.1-.83-1.64-.59-1.07-1.21-2.13-1.82-3.19-.61-1.06-1.03-2.3-1.87-3.12-.98-.97-.72-2.36-1.53-3.27-1.24-1.4-1.95-3.11-2.83-4.72-.87-1.61-1.68-3.25-2.4-4.66-1.42-.9-2.49-1.81-3.17-3.02-1.39-2.44-3.56-3.67-6.18-4.33-.29-.07-.53-.29-.86-.47-.9-.96-1.82-1.98-2.23-3.3.31-1.09.25-2.1.01-3.18-.27-1.18-.16-2.44-.23-3.66-.06-1.07-.14-2.14-.21-3.21.33-.84.65-1.69 1-2.59-.71-1.07-1.37-2.07-2.02-3.06.32-.48.55-.87.82-1.23.64-.85 1.84-1.14 2.24-2.23.38-1.03 1.63-.61 2.22-1.37.65-.84 1.41-1.59 2.15-2.35.64-.66 1.24-1.39 1.97-1.93 3.2-2.38 6.26-4.91 9.02-7.79 1.95-.99 3.37-2.65 4.84-4.15 1.38-1.41 2.91-2.66 4.35-3.98 1.25-1.14 2.48-2.22 3.12-3.81.56-.1.98-.18 1.71-.32 2.68-1.76 5.6-3.67 7.95-6.32h.88c2.87-2.1 5.67-4.23 8.56-6.22.98-.68 2.2-1.02 3.55-1.62.16-.26.47-.78.87-1.44 1.13-.49 2.56-.82 3.6-1.64 2.07-1.65 4.65-2.36 6.72-3.95.49-.37.96-.77 1.4-1.12 1.62-.56 3.2-1.11 4.82-1.67.31-.48.65-.99 1.08-1.65 2.04-1.01 4.23-2.1 6.28-3.12 1.99-2.49 4.72-3.45 7.58-4.61.89-1.23 2.3-2.14 3.79-2.95 1.32-.72 2.27-2.07 3.95-2.2.57-.04 1.14-.43 1.66-.76 3.62-2.26 7.41-4.2 11.26-6.31.49.05 1.09.11 1.76.18.5-.22 1.06-.46 1.6-.69 1.46-.18 2.66.57 3.88 1.09.81-.07 1.57-.14 2.59-.23 2.06.82 4.33 1.72 6.39 2.54 2.89 2.41 5.71 4.56 6.66 9.13v6.11c-.35.74-.73 1.57-1.08 2.32-.19.17-.28.3-.41.36-1.52.69-3.05 1.36-4.82 2.15-.09.13-.36.49-.63.86-1.68-.05-3.36-.19-5.04-.13-1.58.05-3.04-.24-4.47-1.02h-4.63c-1.23.43-2.53.89-4.15 1.46-1.75 1.44-3.75 3.09-5.83 4.8-.35.1-.79.22-1.36.38-.3.37-.58.99-1.06 1.26-1.51.83-2.59 2.14-3.84 3.26-1.47 1.33-2.96 2.66-4.46 3.97-.46.4-.98.73-1.42 1.15-1.77 1.69-3.53 3.39-5.27 5.11-1.73 1.71-3.32 3.56-5.17 5.15-.23.2-.48.42-.6.68-.79 1.74-2.29 2.89-3.65 4.08-1.39 1.22-2.62 2.56-3.6 4.07-1.67 2.58-3.75 4.77-5.93 6.89-.66.64-1.4 1.22-1.97 1.93-.38.49-.5 1.13-.73 1.68zm224.17-35.91c.47-1.08-.32-1.46-1.05-1.87l.05.05c-.22-.39-.36-.88-.69-1.14-1.31-1.04-2.74-1.92-4.11-2.85-2.01-1.37-4.31-2.31-6.92-2.13-1.06.61-2.09 1.26-3.17 1.82-2.06 1.07-3.92 2.41-5.44 4.16-1.11 1.29-2.46 2.29-3.78 3.32-1.08.85-2.14 1.72-3.18 2.55-.52 1.39-1.36 2.43-2.36 3.41-3.82 3.75-7.05 8.02-10.43 12.06-.72.37-1.38.71-1.91.98-.52 1.14-.42 2.24-.99 3.22-.34.58-.14 1.48-.19 2.24-1.19 2.83-2 5.78-2.31 8.52-.59 1.1-1.02 1.91-1.42 2.65-.09 1.01-.17 1.93-.25 2.84-.69 1.35-1.91 2.47-1.78 4.15-1.41 3.37-1.49 7.16-3.24 10.43-.04.07.12.25.19.4.13 0 .31.06.38-.01 1.22-1.15 2.09-2.49 2.83-4.04 1.3-2.69 2.43-5.59 5.12-7.19.08-.59.14-1.05.21-1.57 1.39-1.76 2.88-3.51 4.22-5.37 1.33-1.86 2.71-3.69 4.04-5.55 1.31-1.84 3.12-3.33 4.42-4.68.4-.95.64-1.51.85-2.01 2.17-.96 3.11-3.06 4.72-4.45 1.74-1.51 3.02-3.52 4.84-4.83 1.78-1.29 2.74-3.3 5.24-4.76 1.73-.65 3.88-2.34 6.86-2.05.57.54 1.3 1.1 1.86 1.8.73.89 1.72 1.4 2.72 1.63 1.92.46 3.9.82 5.96.29.45-.81.9-1.6 1.35-2.39.32-.28.64-.56.86-.76.56-2.75-.53-5.07-1.28-7.71-.37-.35-.91-.86-1.41-1.34-.34.03-.62.06-.89.08l.08.1zM227.44 72.91c-.84-.87-1.69-1.74-2.64-2.72-1.92.16-3.51-.58-4.62-2.24-1.09.24-2.05-.21-3.1-.52-1.57.43-3.31.62-4.77 1.36-2.31 1.18-4.71 2.15-7 3.35-.93.49-1.73 1.24-2.55 1.84h-1.65c-.81.73-1.4 1.48-2.16 1.91-1.58.89-2.84 2.32-4.65 2.83-3.08 2.52-6.67 4.24-9.99 6.38-2.05 1.32-4.21 2.46-6.33 3.66-1.86 1.06-3.86 1.91-5.54 3.19-1.71 1.31-3.53 2.32-5.43 3.28-1.21.61-2.46 1.18-3.59 1.92-1.27.84-2.51 1.68-3.99 2.17-.53.18-.95.7-1.71 1.3 1.18 1.08.28 2.61 1.12 3.8-.38 1.94-.71 3.89-1.16 5.81-.46 1.95-.59 3.91-.67 5.89-.02.46-.04.92-.15 1.36-.61 2.52-1.12 5.06-1.89 7.53-.72 2.27-.83 4.51-.23 6.76.22.82-.02 1.49-.04 2.23 0 .22.28.44.57.87 2.65-2.32 5.23-4.68 7.69-7.15 1.29-1.29 2.27-2.89 3.54-4.2 1.28-1.32 2.69-2.53 3.6-4.14.93-1.63 2.59-2.52 3.71-3.97 2.53-3.25 5.14-6.44 8.2-9.26 1.12-1.03 2.44-1.86 3.4-3.03 1.77-2.16 3.98-3.78 6.21-5.39.49-.36 1.11-.61 1.47-1.07 1.55-1.92 3.62-3.29 5.09-4.99 1.14-.59 2.09-1.09 3.19-1.65.98-2.05 3.21-3.01 4.76-4.68 1.74-1.87 4.34-2.14 6.6-2.94 2.89.49 5.75.98 8.85 1.51 2.47-1.04 5.57-.57 8.28-2.3.23-.37.54-.89.81-1.32v-3.94c-.64-.93-1.29-1.96-2.05-2.91-.22-.29-.77-.36-1.18-.53zm-109.38 63.17c.02-.85-.37-1.38-1.26-1.54-.95.06-1.64.46-1.75 1.54.67.71 1.47.86 2.38.58.21-.2.42-.39.63-.58zm75.48 1.58c-.09.1-.28.24-.26.31.14.44.35.44.51.01.03-.07-.16-.21-.25-.32z"/><path class="st1" d="M223.35 165.04c.09-.29.17-.58.32-1.05 1.13-.44 2.38-.92 3.59-1.39 1.17.36 1.65 1.36 2.46 2.31.13 2.18.82 4.34 1.81 6.51-.11.55-.23 1.14-.37 1.8.29 1.11.69 2.23.75 3.49.09 1.82.66 3.61.8 5.43.13 1.73.88 3.24 1.41 4.82.58 1.73 1.46 3.36 2.3 5.26.04.35.12.96.2 1.62.23.34.48.73.74 1.11.77 1.13 1.83 2.1 2 3.57 1.82 2.82 3.27 5.93 5.92 8.14 1.3 1.09 1.69 2.94 3.28 3.76 2.03 2.56 4.64 4.4 7.41 6.06 1.05.63 2.08 1.3 3.29 2.06 2.11-.05 4.14 1.65 6.39.87.69.32 1.25.57 1.9.86.33-.12.73-.27 1.13-.42-.03-.53-.05-.99-.08-1.47-.84-.66-1.67-1.32-2.6-2.06-.77-.19-1.68-.35-2.53-.65-.71-.26-1.44-.6-2.03-1.07-1.36-1.08-2.92-1.64-4.63-1.95-.6-.72-1.19-1.41-1.86-2.2-1.05-.69-2.2-1.45-3.22-2.12-2.12-2.61-4.28-5-6.14-7.6-1.87-2.61-3.44-5.44-5.3-8.42-.07-1.89-.62-3.91-1.62-5.85-.91-1.76-1.59-3.64-2.35-5.42-.48-.29-.88-.5-1.24-.77-.34-.26-.64-.58-1-.9.45-.35.8-.62 1.31-1.02.39-4.01-.07-8.02-1.39-12.02-.89-2.71-2.39-4.92-4.2-7-.29-.33-.74-.52-1.05-.74-3.03-.08-3.03-.08-7.19 1.97-3.24 3.24-4.53 7.7-6.17 12.01-.17 4.45-1.17 8.76-2.91 12.87-.89 2.11-1.96 4.14-2.97 6.2-2.16 4.44-2.16 4.43-5.61 8.29-.61.69-1.24 1.36-2.04 2.23-1.29.62-2.93 1.24-3.39 3.12-3.2 1.27-5.99 3.24-9.31 4.07-3.11.78-6.28 1.2-10.06 1.44l-3.8-1.24h-4.56c-1.4-.1-2.41-1.45-3.92-1.2-.82.13-1.45-.43-2.08-.84-1.69-1.09-3.44-2.01-5.47-2.21-2.37-2.32-5.24-3.74-8.07-5.07-.29-.47-.53-.86-.78-1.26-.24-.18-.46-.39-.72-.55-2.11-1.26-4.04-2.74-5.87-4.38-2.05-1.84-4.19-3.58-6.27-5.39-1.16-1.01-2-2.24-2.74-3.63-1.08-2.01-1.95-4.18-3.6-5.86-.31-.32-.52-.76-.71-1.17-.91-1.93-1.72-3.91-2.82-5.74-1.1-1.82-2.55-3.45-3.07-5.59-.07-.28-.3-.53-.49-.78-1.26-1.72-2.68-3.3-4-4.98-1.31-1.67-2.99-3.07-4.6-4.47-.92-.79-2.04-1.34-3.19-2.08-.41-.91-.84-1.88-1.37-3.05v-5.34c0-1.08.1-2.14.72-3.09.91.06 1.83.2 2.74.17 4.42-.14 8.83-.55 13.27-.36 1.23.05 2.43.14 3.63.38 1.22.25 2.36-.35 3.63-.24 1.95.17 3.95-.14 5.92-.22.92-.04 1.85.04 2.76-.04 1.05-.09 2.1-.31 3.02-.45 1.57.65 3 1.22 4.68.69.66-.47 1.39-1 1.99-1.43 4.6-.7 9.07.32 13.48-.45.29-.05.61.05.92.07 4.73.37 9.46.35 14.17-.04.88.29 1.73.56 2.57.83.44-.29.82-.55 1.23-.82.04-.45.09-.89.13-1.34 3.26-.41 5.05-.39 7.19.09.14.4.28.8.37 1.07.3.17.43.29.56.3 4.27.26 8.54-.15 12.8.06.43.02.88-.22 1.32-.34.43-.12.87-.24 1.19-.33 1.33.22 2.54.42 3.77.63 1.03-.13 2.12-.17 3.15-.42 1.17-.29 2.3-.79 3.39-1.17.94.29 1.81.56 2.7.84 1.05-.29 2.06-.68 3.11-.82 1.21-.16 2.45-.12 3.67-.12 4.9-.01 9.79 0 14.39 0 1.12.53 1.95.92 2.87 1.35 2.83 0 5.74-.07 8.64.02s5.78.4 8.68.49c2.6.09 5.2.02 7.96.02.62.37 1.4.84 2.15 1.28h3.16c.73-.48 1.35-.89 1.84-1.21 1.54.41 2.87.77 3.65.98 1.45-.06 2.39-.28 3.25-.09 2.86.64 5.74.93 8.65.94 1.59.59 3.16 1.18 4.69 1.75 2.48.12 4.95-.38 6.98.55 1.36-.21 2.4-.36 3.18-.48 1.08.54 1.89.95 2.45 1.23h5.19c.95-.47 1.75-.86 2.42-1.19.33.16.53.2.58.3 1.7 4.04 2.34 5.88 3.65 14.01.44.58.9 1.19 1.22 1.62.91 2.5 1.18 4.88 1.11 6.73-.35 1.28-.55 2-.75 2.72-.7.3-1.39.6-2.14.92-1.69 2.47-2.59 5.17-2.62 8.48-1.46 3.04-3.06 6.33-4.64 9.64-.32.68-.57 1.4-.83 2.11-.1.28-.08.65-.25.87-1.48 1.9-2.87 3.87-4.15 5.91-1.32.85-2.03 2.25-3.08 3.34-.95.99-1.95 1.94-2.86 2.96-1.77 1.98-4.14 3.14-6.25 4.65-.73.53-1.49 1.03-2.69 1.86-2.09.6-4.8 1.17-7.16 2.68-3.36.43-6.34 2.22-9.69 2.7-.45.07-.89.22-1.53.38-2.12-.38-4.39-.45-6.44.91-.02.15-.09.32-.04.39.55.72 1.13 1.42 1.73 2.17 2.01.22 3.98.44 5.81.64 3.49-.41 6.52-2.05 9.87-2.5.46-.41.92-.81 1.41-1.24.98-.25 2.1-.34 3.02-.82 1.02-.53 2.11-.35 3.37-.74.76-.61 1.72-1.37 2.83-2.27.41-.1 1.08-.11 1.58-.4 3.02-1.75 6.17-3.35 8.31-6.29.54-.74 1.15-1.47 1.85-2.04 2.19-1.78 3.59-4.11 4.82-6.63.65-.59 1.33-1.21 1.93-1.75.35-.63.67-1.16.94-1.71.83-1.64 1.59-3.31 2.5-4.91.69-1.2 1.34-2.35 1.59-3.77.18-.99.95-1.88 1.65-3.17.07-.66.13-1.73.29-2.78.14-.89.39-1.75.67-3.01.29-.24.87-.71 1.45-1.18.32.53.63 1.05 1.04 1.74.06.76.13 1.66.19 2.49-.25.66-.46 1.23-.68 1.82l.54 1.73c-.06.29-.08.6-.2.87-2.03 4.85-4.92 9.15-8.37 13.1-.9 1.03-1.72 2.15-2.52 3.27-2.43 3.36-5.2 6.44-8 9.49-3.67 3.98-7.85 7.29-12.94 9.31-.42.17-.86.36-1.22.63-2.37 1.78-5.08 2.82-8.44 3.88-.96 0-2.49-.03-4.02.01-1.98.04-3.93.03-5.88.71-1.39.49-3.02.28-4.45.38-1.39-.62-2.65-1.18-4.03-1.79h-2.97c-1.29-.39-2.47-.7-3.62-1.11-3.03-1.1-6.07-2.14-8.57-4.31-.8-.7-1.79-1.17-2.69-1.76-1.66-1.09-1.67-1.1-3.29-3.63-2.02-1.74-4.15-3.28-5.92-5.16-2.61-2.78-5.24-5.56-7.37-9.08-.22-2.19-.45-4.65-2.01-6.47-.37-1.38.24-2.66-.46-3.81-.23-.38-.4-.88-.37-1.31.21-2.36-1.04-4.46-1.12-6.76-.87-1.7-.7-3.58-.9-5.58-.53-1.71-1.72-3.36-1.94-5.41-.11-1.01-.76-2-1.33-2.89-.24-.56-.88-.81-1.37-1.15zm26.02 24.94-.06-.09c.11.88.22 1.76.32 2.51 2.25 2.29 4.24 4.56 7.13 5.73.27-.11.54-.23.81-.34 1.7.12 2.31 1.96 3.71 2.4.54.08.98.15 1.43.22 1.24 1.11 2.49 2.23 3.8 3.4.94-.09 1.83-.18 2.88-.28 2.36 1.42 5.09 1.36 7.82 1.05.53-.3 1.02-.59 1.41-.82.87.41 1.54.73 2.28 1.08 2.58-1.33 5.38-.91 7.93-1.11 3.3-1.69 6.35-3.43 9.27-5.41 1.43-.97 2.64-2.12 3.48-3.6 1.28-2.26 2.46-4.57 3.78-7.04.18-.15.6-.39.85-.75.43-.62.87-1.28 1.11-1.99.99-2.88 1.92-5.79 2.86-8.69.37-1.16.74-2.3.98-3.52.69-3.57 1.62-7.09 2.48-10.73-1.4-2.06-.39-4.44-.78-6.72-.33-.98-.66-1.99-1-3-.26-.77-.75-1.31-1.74-1.73-.82-.05-1.89-.15-2.95-.15-1.99 0-3.98.08-5.98.11-2.15.03-4.33-.19-6.43.12-2.01.29-3.91-.29-5.89-.14-2.75.21-5.54.31-8.25-.31-2.86-.66-5.82-.18-8.67-.83-.29-.07-.61-.01-.99-.01-.96.19-2.01.4-2.93.58-2.83-1.01-5.57-.38-8.31-.37-2.59.01-5.18-.24-7.78-.22-2.75.02-5.49.22-8.38.35-.65.49-1.38 1.05-2.15 1.63-.42 1.29-.84 2.6-1.29 3.99v5.63c1.15 2.34.84 5.23 1.92 7.79.27.65-.22 1.67.12 2.23.95 1.54.49 3.31 1.11 4.9.61 1.56.91 3.23 1.37 4.85.16.57.38 1.12.53 1.55.85.39 1.51.69 1.94.88.37 1.39.7 2.56.99 3.75.14.58.18 1.18.27 1.77.2.55.23 1.21 1 1.33zm-92.16 6.36c.37 1.01 1.05 1.62 2.15 1.71 1.29-.31 2.44.16 3.49.79 2.26 1.35 4.75 2.14 7.22 2.95 2.31.76 4.71 1.24 7.24 1.88 1.15-.49 2.4-1.02 3.63-1.54.62.13 1.21.25 1.74.37.48-.23.89-.44 1.36-.67 1.16.11 2.37.22 3.51.33 1.81-.68 3.53-1.33 5.19-1.95 3.67-2.49 6.47-5.63 8.41-9.57 1.08-2.18 2.18-4.41 3.63-6.34 1.15-1.54 1.83-3.12 2.21-4.94.37-1.79.66-3.62 1.2-5.34.48-1.53.53-2.98.43-4.41.35-.79.66-1.48 1.01-2.25 0-1.78.01-3.62 0-5.45-.02-3.07-.06-6.13-.1-9.2 0-.3-.14-.59-.26-1.09l-1.78-2.62c-1.27-.64-2.32-.69-3.41-.6-1.98.15-3.98.4-5.95.3-2.13-.1-4.25-.11-6.37-.19-4.27-.15-8.52-.9-12.82-.79-.6.02-1.21-.2-1.82-.25s-1.24-.15-1.82-.03c-1.56.33-3.05.01-4.55-.27-.45-.08-.9-.14-1.27-.2-1.13.27-2.17.52-3.26.79-1.18-.23-2.37-.46-3.47-.68-.85.13-1.6.27-2.36.36-3.36.38-6.73.29-10.1.38-1.52.04-3.03.26-4.86.43-.97-.59-2.37-.4-3.74-.43-1.38-.02-2.76-.09-4.14-.08-1.53.01-3.06.1-4.59.15-1.23.99-2.65.04-3.97.4-1.31.35-2.68.46-4.05.67-.38.59-.75 1.07-1.01 1.61-.33.68-.56 1.4-.77 1.93.63 2.77 1.57 5.18 2.85 7.45.38.67.69 1.33.92 2.07.5 1.6 1.08 3.19 1.82 4.69 1.02 2.05 2.02 4.17 3.42 5.95 1.6 2.04 2.95 4.22 4.39 6.35.16.24.46.38.71.58.66.35 1.55.09 2.1.77.97.64.26 1.76.7 2.49 3.39 3.62 7.91 5.81 11.19 9.43.61.22 1.31.29 1.72.67 1.31 1.25 2.9 2.16 4.23 3.39z"/><path class="st2" d="M61.33 214.94c-.33-1.68.3-2.62 1.71-3.46 3.88-.09 8.01-.2 12.14-.27 1.89-.03 5.97-.76 8.01-1.51.29-.11.6-.12.89-.21.29-.09.56-.22.96-.38-.16-.37-.23-.83-.49-1.1-1.61-1.63-3.5-3-4.59-5-.3-1.3.23-2.23 1.15-2.87.87-.61 1.87-1.02 2.87-1.55 2.12.43 4.18.59 6.36.13 2.06-.44 4.26-.24 6.4-.25 7.37-.03 14.73-.02 22.1-.02.3 0 .6.08.93.13 1.12.6 1.9 1.46 2 2.99-.32.37-.66.9-1.12 1.27-.85.69-4.9 2.55-6.13 2.95-.73.24-1.42.56-2.14.82-1.58.56-3.17 1.14-4.77 1.65-1.44.46-2.91.86-4.43 1.3-.17.4-.34.8-.58 1.36 1.65 3.03 3.32 6.11 5.03 9.25l-.44 3.26c-.63.2-1.18.53-1.74.54-1.52.02-3.03-.01-4.55-.45-3.08-.89-6.33-1.06-9.35-2.22-.42-.16-.91-.26-1.36-.21-3.55.34-7-.83-10.53-.74-.31.01-.64.04-.92-.06-3.04-1.07-6.35-.92-9.38-2.1-1.69-.65-3.52-.94-5.3-1.34-1.1-.26-1.94-.87-2.73-1.91z"/><path class="st1" d="M106.3 144.63c.07 1.07.15 2.14.21 3.21.07 1.22-.04 2.48.23 3.66.25 1.08.3 2.09-.01 3.18.41 1.32 1.33 2.34 2.23 3.3.32.18.57.4.86.47 2.62.65 4.79 1.88 6.18 4.33.69 1.21 1.75 2.11 3.17 3.02.72 1.41 1.53 3.05 2.4 4.66s1.58 3.31 2.83 4.72c.81.91.55 2.31 1.53 3.27.84.82 1.26 2.07 1.87 3.12.61 1.06 1.23 2.12 1.82 3.19.3.54.45 1.18.83 1.64 2.53 3.07 4.69 6.49 7.9 8.92 1.46 1.1 2.87 2.2 4.09 3.56.4.45.91.88 1.45 1.11 2.29 1 3.96 2.83 6.13 4.43.5.12 1.24.3 1.97.47.13.08.31.12.39.24 1.77 2.33 4.45 3.14 6.95 4.27 1.11.5 2.15 1.18 3.19 1.77 1.1.14 2.16.28 3.31.43.73.43 1.52.9 2.35 1.4.41.04.87.1 1.32.13.91.06 1.96-.16 2.7.22 1.69.87 3.62.62 5.3 1.41.52.24 1.23.29 1.81.18 1.38-.27 2.72-.13 4.09.06.59.08 1.24 0 1.81-.17 2.9-.91 5.93-1.48 8.62-3.03.93-.53 1.95-.92 3.06-.52v.98c-.31 1-1.53.75-2.18 1.38-.66.64-1.35 1.24-2.15 1.97-.77.15-1.66.33-2.21.43-2.83 1.56-5.36 2.96-7.71 4.26-2.36.08-4.48.15-6.94.23-.68.24-1.68.59-2.75.97-2.9-.77-5.74-1.84-9.44-2.26-.76-.36-2.15-1-3.52-1.67-4.12-2.01-8.21-4.03-11.89-6.82-.84-.64-1.87-1.03-2.53-1.38-1.45-1.38-2.67-2.54-3.74-3.56-1.08-.33-1.95-.6-2.69-.83-3.11-2.69-6.11-5.27-9.63-8.31-1.14-1.7-3.21-3.55-4.63-5.93-.7-1.17-1.73-2.12-2.02-3.54-.09-.41-.5-.75-.73-1.14-1.05-1.83-2.65-3.33-3.05-5.56-.12-.67-.88-1.22-1.34-1.82-.2-.9-.31-1.82-.64-2.66-.33-.85-.89-1.6-1.29-2.3-.13-.88-.24-1.63-.36-2.42-.43-.42-1.01-.76-1.28-1.27-1.06-1.99-2.76-3.2-4.67-4.24-1.76-.95-3.44-2.02-4.85-4.1-.48-1.13-1.13-2.68-1.82-4.3-.05-1.45-.34-3.02-.11-4.5.25-1.62-1.13-2.88-.65-4.46.6-.84 1.53-1.37 1.97-2.4.4-.84 1.26-1.33 2.26-1.4z"/><path class="st2" d="M326.36 213.76c1.56.07 2.05-.79 2.49-1.55.53-.91.84-1.95 1.33-2.89s1.09-1.81 1.66-2.73c.27-.03.56-.06.85-.09.82 1.09 1.61 2.22 2.5 3.26.38.45.99.7 1.52 1.05 1.7 2.74 2.47 5.91 3.75 8.84 1.21 2.77 1.72 5.88 3.15 8.57 1.52 2.87 1.56 6.26 3.41 8.78v6.58c-1.26.4-1.26.4-2.2-1.94-2.28-2.45-4.58-4.88-6.34-7.78-1.07-1.74-2.82-2.78-4.82-3.53-.66-1.14-1.34-2.33-2-3.48-.34-.08-.63-.14-.92-.2-.27.13-.63.2-.8.41-.66.84-1.29 1.7-1.86 2.6-.4.64-.6 1.41-1.02 2.03-.59.88-1.3 1.68-1.97 2.53h-1.57c-.34-.36-.98-.74-1.11-1.25-.56-2.27-1.94-4.1-3.15-6-.83-1.3-1.62-2.53-2.06-4.06-.46-1.62-1.65-2.91-2.85-4.1-.54-.54-1.14-1.03-1.28-1.87.7-1.11 1.42-2.24 2.4-3.77l1.91-1.41c.2-.97.42-2.01.67-3.23.47-.38 1.05-.85 1.66-1.34.83.19 1.56.36 2.12.48 2.17 1.66 3.14 3.97 4.53 6.09zM119.3 247.13c.09-.45.17-.9.25-1.34.47-.4.94-.79 1.39-1.17.19-.6.38-1.18.56-1.77 1.27-1.69 3.02-3 4.16-4.78-.24-.3-.4-.69-.59-.7-1.53-.11-3.06-.1-4.59-.22s-3.07-.3-4.29-1.4c-.42-1.31-.42-1.31-.22-2.65 1.53-1.44 3.13-2.83 5.01-3.92 1.32-.76 2.46-1.82 3.72-2.7 1.13-.79 2.35-1.45 3.44-2.29 3.62-2.8 7.93-4.65 11.06-8.14.91-1.01 2.06-1.83 3.2-2.59.59-.39 1.41-.44 1.96-.6.91.49 1.53.91 1.61 1.94-.12.3-.22.77-.47 1.12-2.33 3.24-4.93 6.19-8.24 8.53-1.47 1.04-2.55 2.61-3.78 3.91.1.36.09.7.26.87.2.19.56.3.84.28.61-.06 1.23-.4 1.8-.31 2.72.46 5.5.15 8.46.75l1.02 1.02c.02.47.12.79.04 1.08-.34 1.33-.73 2.64-1.02 3.67-1.2 1.85-2.79 2.83-4.3 3.87-3.28 2.26-6.78 4.19-10.01 6.54-1.35.99-2.93 1.67-4.4 2.49-.4.22-.89.37-1.17.7-1.64 1.95-4 2.76-6.1 3.99-1.98 1.16-3.93 2.29-5.93 3.02-1.48-.08-1.99-.99-2.39-2.09.18-1.26 1.21-2.04 1.86-3.03 1.09-1.08 2.7-1.39 3.64-2.77.7-1.03 1.98-1.4 3.27-1.39.05.12.08.25.16.34.04.05.16.04.25.05-.14-.09-.3-.2-.46-.31zM239.92 212.32c.09.69.14 1.14.22 1.77-.49.64-1.05 1.35-1.59 2.07-.36.48-.81.94-1.02 1.48-.95 2.45-2.34 4.59-4.23 6.42-.21.2-.28.53-.42.8.1.26.19.52.32.87 1.41.26 3.07-.4 4.28.82 1.98-.49 3.89-.8 5.9.16.16.55.32 1.12.48 1.67-.41.91-.78 1.74-1.21 2.71-3.53 2.73-6.41 6.41-10.48 8.58-.57.82-1.06 1.59-1.62 2.31-.47.6-.9 1.36-1.53 1.69-2.24 1.14-3.54 3.33-5.52 4.75-.37.26-.63.74-1.02.91-3.26 1.4-5.57 4.23-8.59 5.73-1.58.18-1.92-.86-2.41-1.98.28-.67.43-1.47.88-2.03 1.89-2.38 3-5.34 5.2-7.16 1.11-1.94 2.17-3.63 3.06-5.41.81-1.62 2.71-2.55 2.86-4.57-1.29-1.72-3.35-1.12-4.98-1.65-1.46-1.29-1.46-1.29-1.27-3.7 2.7-2.29 5.7-4.46 8.2-7.09 2.75-2.89 5.97-5.23 8.65-8.17.51-.56 1.16-1 1.79-1.43 1.09-.75 2.14-.64 4.05.45z"/><path class="st1" d="M164.44 132.74c.23-.55.35-1.19.71-1.64.57-.71 1.31-1.29 1.97-1.93 2.19-2.12 4.26-4.31 5.93-6.89.98-1.51 2.21-2.85 3.6-4.07 1.36-1.2 2.86-2.34 3.65-4.08.12-.27.37-.49.6-.68 1.85-1.59 3.44-3.45 5.17-5.15 1.74-1.72 3.5-3.42 5.27-5.11.44-.42.97-.75 1.42-1.15 1.49-1.31 2.98-2.63 4.46-3.97 1.24-1.13 2.32-2.43 3.84-3.26.48-.26.77-.89 1.06-1.26.57-.16 1.01-.28 1.36-.38 2.08-1.71 4.08-3.36 5.83-4.8 1.63-.57 2.93-1.03 4.15-1.46h4.63c1.43.78 2.89 1.08 4.47 1.02 1.68-.06 3.36.08 5.04.13-.35.66-.71 1.32-1.07 2.01-1.93.72-3.79 1.41-5.95 2.21l-8.71.27c-1.53.78-3.3 1.68-5.02 2.55-1.74 2.63-3.86 4.85-6.19 6.81-1.45 1.22-2.55 2.62-3.5 4.11-1.22 1.03-2.42 1.98-3.54 3.02-2.25 2.09-4.66 4.05-6.61 6.38-1.97 2.35-4.48 4.2-6.15 6.81-.32.5-.83.96-1.37 1.21-1.16.54-1.91 1.48-2.78 2.35-.96.95-2.14 1.69-3.52 2.74-.43 1.64-1.2 3.46-3.75 4.39-1.35.21-3.18.27-5-.18zM334.2 165.32c-1.26-.87-1.07-2.06-.79-3.21 1.2-1.49 2.35-2.92 3.51-4.34 1.06-1.31 2.13-2.61 3.31-4.05.59-2.7 2.53-4.96 3.85-7.52 1.25-2.43 3.31-4.39 4.29-6.95 1.35-1.29 2.97-2.3 3.54-4.18 1.43-1.59 2.87-3.18 4.29-4.77 1.73-1.94 3.49-3.85 4.86-6.08a9.98 9.98 0 0 1 1.76-2.12c2.47-2.27 4.61-4.9 7.41-6.82.49-.34.87-.85 1.27-1.31s.7-1.02 1.15-1.43c.67-.6 1.57-1 2.11-1.69.53-.68.71-1.63 1.13-2.41.1-.19.53-.2.81-.3 1.44.52 1.46 2.32 2.48 2.9 1.49 1.01 2.84 1.56 4.44 1.73 1.62.18 3.19.85 4.78 1.32.13.04.21.21.32.32-.51 1.13-1.73 1.15-2.88 1.84-1.56.08-3.4.16-5 .24-1.36-.48-2.49-.88-3.66-1.29-1.15 1.21-2.13 2.38-3.26 3.39-1.02.91-2.29 1.55-3.27 2.5-2.08 2.02-4.3 3.91-5.94 6.38-1.1 1.65-2.38 3.25-3.85 4.56-2.21 1.96-3.79 4.41-5.62 6.65-1.24 1.52-2.2 3.29-3.41 4.87-1.11 1.44-1.91 3.08-3.14 4.49-1.09 1.24-1.99 2.68-3.03 3.99-1.81 2.27-3.42 4.72-5.02 7.15-1.44 2.18-3.16 4.08-5.14 5.86-.4.1-.85.19-1.3.28zM196.85 211.29c.37-1.14.37-1.14 1.92-1.12-.31.94-.84 1.51-1.92 1.12z"/><path class="st1" d="M227.44 72.91c.41.18.96.24 1.21.55.76.95 1.41 1.98 2.05 2.91v3.94c-.27.44-.58.95-.81 1.32-2.7 1.74-5.81 1.26-8.28 2.3-3.1-.53-5.96-1.01-8.85-1.51-2.26.81-4.86 1.07-6.6 2.94-1.56 1.68-3.79 2.63-4.76 4.68-1.09.57-2.04 1.06-3.19 1.65-1.47 1.7-3.54 3.07-5.09 4.99-.37.46-.98.71-1.47 1.07-2.23 1.61-4.44 3.23-6.21 5.39-.96 1.17-2.28 2-3.4 3.03-3.06 2.81-5.67 6-8.2 9.26-1.13 1.45-2.79 2.34-3.71 3.97-.92 1.61-2.33 2.82-3.6 4.14-1.27 1.31-2.25 2.91-3.54 4.2-2.47 2.47-5.05 4.83-7.69 7.15-.29-.43-.57-.65-.57-.87.01-.74.26-1.42.04-2.23-.6-2.25-.49-4.49.23-6.76.78-2.46 1.29-5.01 1.89-7.53.11-.44.13-.91.15-1.36.08-1.98.21-3.95.67-5.89.45-1.92.78-3.88 1.16-5.81 1.23-.26 2.23-.95 3.24-1.66 1.99-1.41 4.05-2.73 6.05-4.13.62-.43 1.14-.98 1.69-1.46.77-.18 1.51-.36 2.09-.49.67-.68 1.14-1.31 1.76-1.74 1.37-.97 2.82-1.84 4.23-2.75.88-1.63 2.74-1.86 4.09-2.83 1.49-1.07 2.97-2.15 4.51-3.14 1.4-.91 3.05-1.53 4.26-2.63 1.43-1.31 3.31-1.53 4.85-2.54 1.65-1.09 3.49-1.9 5.2-2.92 1.31-.78 2.85-1.13 4.09-1.93 2.95-1.9 6.09-3.42 8.99-4.91h6.06c.6.47 1.08.85 1.7 1.34 1.81.07 3.79.16 5.76.26zM391.26 106.47c-.45.79-.89 1.58-1.35 2.39-2.06.53-4.04.17-5.96-.29-1-.24-1.99-.74-2.72-1.63-.57-.7-1.3-1.27-1.86-1.8-2.98-.29-5.12 1.41-6.86 2.05-2.5 1.46-3.47 3.47-5.24 4.76-1.82 1.32-3.1 3.33-4.84 4.83-1.61 1.39-2.55 3.49-4.72 4.45-.21.5-.44 1.05-.85 2.01-1.3 1.34-3.11 2.83-4.42 4.68-1.33 1.86-2.7 3.69-4.04 5.55-1.34 1.86-2.83 3.61-4.22 5.37l-.21 1.57c-2.69 1.59-3.82 4.49-5.12 7.19-.74 1.55-1.62 2.88-2.83 4.04-.07.07-.26.01-.38.01-.07-.14-.23-.32-.19-.4 1.75-3.27 1.83-7.06 3.24-10.43-.12-1.68 1.09-2.81 1.78-4.15.08-.92.16-1.83.25-2.84.39-.74.83-1.54 1.42-2.65.3-2.74 1.11-5.68 2.31-8.52 2.27-2.03 4.42-4.2 6.48-6.45 1.85-2.02 4.22-3.5 5.83-5.78.25-.35.78-.48 1.12-.78.56-.51 1.13-1.03 1.58-1.63 1.27-1.72 2.48-3.48 3.23-4.55 1.48-1.14 2.29-1.83 3.16-2.41.84-.56 1.97-.47 2.64-1.58.51-.85 1.65-1.31 2.51-1.95s1.74-1.25 2.57-1.94c.82-.68 1.58-1.44 2.25-2.05 1.19-.4 2.19-.73 3.2-1.07 1.16.54 2.32.84 3.38 1.54 1.55 1.04 3.31 1.57 5.22 1.01l-.05-.05c-.17 1.39-.17 1.39 1.05 1.87l-.08-.1c-.02.15-.08.31-.05.44.63 2.42 1.18 4.87 2.21 7.17.29.66.37 1.41.56 2.12zM118.06 136.08c-.21.19-.42.39-.63.58-.91.28-1.71.14-2.38-.58.11-1.08.8-1.48 1.75-1.54.9.16 1.28.69 1.26 1.54zM167.92 139.59c-1.09.94-2.05.95-3.15.02 1.04-.43 2.1-.47 3.15-.02zM193.54 137.66c.09.11.27.25.25.32-.16.43-.37.43-.51-.01-.02-.07.17-.2.26-.31z"/><path class="st0" d="M157.21 196.34c-1.33-1.23-2.92-2.14-4.26-3.38-.41-.38-1.12-.45-1.72-.67-3.28-3.62-7.8-5.82-11.19-9.43-.43-.74.27-1.85-.7-2.49-.54-.69-1.44-.42-2.1-.77-.25-.2-.55-.34-.71-.58-1.44-2.13-2.79-4.31-4.39-6.35-1.4-1.78-2.4-3.91-3.42-5.95-.75-1.49-1.32-3.09-1.82-4.69-.23-.74-.54-1.4-.92-2.07-1.28-2.27-2.22-4.68-2.85-7.45.21-.53.44-1.25.77-1.93.26-.54.63-1.02 1.01-1.61 1.37-.22 2.75-.32 4.05-.67 1.32-.35 2.74.59 3.97-.4 1.53-.05 3.06-.14 4.59-.15 1.38-.01 2.76.05 4.14.08 1.38.02 2.78-.16 3.74.43 1.84-.17 3.35-.39 4.86-.43 3.37-.09 6.74 0 10.1-.38.76-.08 1.5-.23 2.36-.36 1.1.21 2.29.45 3.47.68 1.1-.26 2.13-.51 3.26-.79.37.06.82.11 1.27.2 1.51.28 3 .6 4.55.27.58-.12 1.22-.03 1.82.03.61.05 1.22.27 1.82.25 4.3-.12 8.55.64 12.82.79 2.12.08 4.24.08 6.37.19 1.97.1 3.97-.15 5.95-.3 1.09-.08 2.14-.03 3.41.6.53.78 1.21 1.79 1.78 2.62.12.5.26.8.26 1.09.05 3.07.08 6.13.1 9.2.01 1.83 0 3.67 0 5.45-.35.77-.66 1.46-1.01 2.25.1 1.43.05 2.88-.43 4.41-.54 1.71-.82 3.55-1.2 5.34-.38 1.82-1.06 3.4-2.21 4.94-1.45 1.94-2.55 4.16-3.63 6.34-1.94 3.94-4.74 7.08-8.41 9.57-1.66.62-3.38 1.27-5.19 1.95-1.14-.11-2.35-.22-3.51-.33-.47.23-.89.43-1.36.67-.53-.11-1.12-.24-1.74-.37-1.23.52-2.48 1.06-3.63 1.54-2.53-.64-4.93-1.12-7.24-1.88-2.47-.81-4.96-1.59-7.22-2.95-1.06-.63-2.2-1.1-3.49-.79-.29-1.08-.85-1.84-2.12-1.72zm-21.05-25.67v1.62c.95.79 1.82 1.5 2.69 2.22.65.8 1.35 1.58 1.94 2.42.6.85 1.09 1.77 1.6 2.6.75.37 1.42.69 2.14 1.05.58.62 1.22 1.25 1.79 1.94.55.67 1.02 1.4 1.4 1.93.56.15.84.23 1.13.31 1.45 2.05 3.46 3.54 5.11 5.15.95.11 1.68.2 2.41.29.92.33 1.57 1.02 2.29 1.63.6 1.19 1.74 1.09 2.8 1.18l.28-.24-.26.27c.14.42.28.84.37 1.13 1.46.84 2.78 1.59 4.05 2.32.84.04 1.62 0 2.37.15.74.15 1.44.5 2.16.76.71.26 1.42.53 2.13.8 1.87-.05 3.49 1.07 5.24 1.18 2.37-.3 4.5-1.41 6.86-1.21 1.55-.58 3.32-.58 4.65-1.75 1.41-.26 1.41-.26 1.51-1.41l.31-.29c1.4.18 2.36-.67 3.15-1.58.99-1.15 1.84-2.43 2.61-3.74.92-1.58 1.66-3.26 2.95-4.63.4-.43.57-1.07.87-1.6.81-1.46 1.64-2.91 2.64-4.69-.3-2.09 1.42-4.29.92-6.8.52-2.55 1.02-5.08.9-7.72-.11-2.44-.02-4.89-.02-6.96.24-1.1.88-1.71.46-2.96a93.9 93.9 0 0 0-.91-1.43c-2.31-.65-4.44-.31-6.55-.03-.92.12-1.76.28-2.68-.07-.55-.21-1.19-.19-1.8-.19-2.9-.03-5.81-.09-8.71-.03-3.06.06-6.1.01-9.08-.82-.43-.12-.91-.02-1.37-.02-2.91-.01-5.81-.02-8.72-.02-.46 0-.96-.06-1.36.1-2.11.82-4.18.59-6.28-.03-.57-.17-1.21-.1-2.11-.17-.95.76-2.29.98-3.69.92-1.22-.05-2.44-.04-3.66-.07-2.59-.06-5.18-.19-7.76-.15-1.23.02-2.38-.05-3.6-.33-1.75-.4-3.62-.71-5.4.1-.88.4-1.78.28-2.7.3-.4.01-.79.33-1.1.47-.3.83.04 1.27.61 1.62.06.74.01 1.52.19 2.23.26 1.02.62 2.02 1.06 2.97.37.81.91 1.55 1.31 2.2.1.9.19 1.64.23 2.03 1.41 2.7 2.83 5.01 4.63 7.05zM248.38 188.66c-.09-.59-.13-1.19-.27-1.77-.28-1.19-.62-2.36-.99-3.75-.43-.2-1.09-.5-1.94-.88-.15-.43-.37-.98-.53-1.55-.46-1.62-.76-3.29-1.37-4.85-.62-1.59-.16-3.36-1.11-4.9-.34-.55.15-1.58-.12-2.23-1.08-2.56-.77-5.45-1.92-7.79v-5.63c.45-1.39.87-2.7 1.29-3.99.77-.59 1.5-1.14 2.15-1.63 2.89-.13 5.64-.33 8.38-.35 2.59-.02 5.18.23 7.78.22 2.73-.01 5.48-.64 8.31.37.92-.18 1.97-.39 2.93-.58.38 0 .7-.06.99.01 2.85.65 5.8.17 8.67.83 2.71.62 5.5.53 8.25.31 1.98-.15 3.88.43 5.89.14 2.11-.31 4.29-.09 6.43-.12 1.99-.03 3.98-.1 5.98-.11 1.07 0 2.13.11 2.95.15.99.41 1.49.96 1.74 1.73.34 1.01.67 2.02 1 3 .39 2.27-.62 4.66.78 6.72-.86 3.64-1.79 7.16-2.48 10.73-.24 1.22-.6 2.36-.98 3.52-.94 2.9-1.86 5.81-2.86 8.69-.24.71-.68 1.37-1.11 1.99-.25.36-.68.6-.85.75-1.32 2.47-2.51 4.79-3.78 7.04-.84 1.48-2.05 2.63-3.48 3.6-2.92 1.98-5.96 3.72-9.27 5.41-2.55.2-5.36-.21-7.93 1.11-.73-.35-1.41-.67-2.28-1.08-.39.23-.89.51-1.41.82-2.73.31-5.46.37-7.82-1.05-1.05.1-1.94.19-2.88.28-1.31-1.18-2.56-2.29-3.8-3.4-.45-.07-.89-.14-1.43-.22-1.4-.45-2.01-2.28-3.71-2.4-1.13-1.19-2.55-2.21-3.33-3.59-1.18-2.08-2.86-3.36-4.93-4.31l.06.09c-.11-.62-.51-1.01-1-1.33zm8.3 1.38-.09-.08.36 1.17c1.5 1.62 3.01 3.24 5.16 5.56-.19-.14-1.08.88-.04 1.19.56-.21 1.11-.42 1.67-.64.69.27 1.36.54 2.04.81 1.8.78 3.61 1.56 5.06 2.2 7.46.25 12.11-.13 17.52-1.39 2.02-1.26 4.16-2.44 5.72-4.38 1.94.11 1.94.11 2.61-1.6l.25-.24c.27-.13.62-.18.79-.39 1.07-1.3 2.1-2.63 3.15-3.97.35-.97.39-2.07 1.21-2.9.87-.89 1.34-2 1.53-3.27.34-2.31 1.52-4.27 2.79-6.1.03-1.92-.04-3.76.85-5.46.2-.38.15-.9.19-1.35.21-2.43.84-4.78 1.41-7.14.18-.75.35-1.47.31-2.24-.05-1.06-.01-2.13-.01-3.06-.37-1-.7-1.86-1.77-2.44-3.03-.44-6.16.59-9.37.63-.55-.19-1.12-.38-1.62-.55-4.34.71-8.58.74-12.77-.14-.77.18-1.51.36-2.26.54a9.609 9.609 0 0 0-4.04-.67c-2.6.11-5.21.04-7.81.06-1.41.02-2.71-.36-3.83-.9-3.97-.06-7.78-.18-11.59-.15-2.89.02-5.79.22-8.68.35-.13.01-.25.17-.5.36v3.06c-.83 2.09-.49 4.04.7 5.88l1.23 7.76c-.45 1.36.84 2.52.4 3.94-.13.43.48 1.06.69 1.62.63 1.7 1.24 3.42 1.92 5.31.92 1.52 1.97 3.21 2.98 4.91.48.82 1.16 1.39 1.98 1.84l-.07-.08c.09.56.32.99.98 1.02l-.07-.08c.04.65.36 1 1.02 1.01z"/><path class="st1" d="M179.99 156.9c-2.94-.15-5.86-.58-8.82-.06-1.44.25-2.96.11-4.44.15l-.44-.12c-3.91-1.15-3.91-1.15-7.98.01-1.15-.12-2.36-.07-3.45-.41-1.44-.46-2.87-.39-4.32-.42-.24-.35-.49-.7-.8-1.14-1.53.13-3.02.26-4.52.39-1-.36-2-.71-2.67-.95-2.71-.48-5.22.31-7.47-.93-2.1.56-4.22.75-6.35.75-.57-.35-.9-.79-.61-1.62.31-.14.7-.46 1.1-.47.91-.01 1.82.1 2.7-.3 1.78-.81 3.65-.5 5.4-.1 1.22.28 2.37.35 3.6.33 2.59-.04 5.17.09 7.76.15 1.22.03 2.44.02 3.66.07 1.4.05 2.74-.16 3.69-.92.9.06 1.54 0 2.11.17 2.1.63 4.17.86 6.28.03.41-.16.91-.1 1.36-.1 2.91 0 5.81.01 8.72.02.46 0 .95-.1 1.37.02 2.98.83 6.02.87 9.08.82 2.9-.05 5.81 0 8.71.03.6.01 1.25-.01 1.8.19.92.35 1.75.19 2.68.07 2.11-.28 4.24-.62 6.55.03.34.54.74 1.17.91 1.43.42 1.25-.22 1.86-.46 2.96 0 2.07-.09 4.52.02 6.96.12 2.64-.38 5.17-.9 7.72.5 2.51-1.22 4.71-.92 6.8-1 1.78-1.83 3.23-2.64 4.69-.3.53-.47 1.17-.87 1.6-1.28 1.36-2.02 3.04-2.95 4.63-.76 1.31-1.62 2.59-2.61 3.74-.78.91-1.75 1.75-3.15 1.58.08-1.07.17-2.11.73-3.09 1.29-2.25 2.51-4.54 3.62-6.56 1-2.39 1.39-4.63 1.54-6.93.43-.14.86-.29 1.4-.47.11-1.35.21-2.7.31-3.85l1.47-2.29c.04-3.51.09-7.17.14-10.83.05-.6.11-1.2.14-1.79.05-1.28-.29-2.37-1.66-3-.35.05-.79.12-1.23.19-1.8-.09-3.61-.39-5.39.14-1.66-.39-3.32-.21-4.98-.02-1.88-.07-3.76-.15-5.35-.21-.83.4-1.35.66-1.87.91z"/><path class="st2" d="M179.99 156.9c.52-.25 1.04-.51 1.88-.91 1.58.06 3.46.13 5.35.21.25.72.54 1.41 1.14 1.94 1.76 1.55 2.88 3.53 3.76 5.84.04.61-.08 1.44.19 2.11.58 1.43.92 2.87.94 4.42 0 .44.18.9.37 1.31.48 1.01.46 2.08.42 3.14-.05 1.37-.14 2.73-.2 3.75-.86 2.16-1.6 4-2.44 6.11-2.04 2.85-4.42 5.8-7.04 8.41-.58.15-1.02.26-1.48.38-.91.75-1.82 1.55-2.78 2.27-1.39 1.05-2.93 1.61-4.71 1.34-.76-.11-1.52-.13-2.23.29-.19.22-.38.45-.58.68-.71-.27-1.42-.53-2.13-.8-.72-.26-1.42-.61-2.16-.76s-1.52-.11-2.37-.15c-1.27-.73-2.59-1.48-4.05-2.32-.09-.28-.23-.7-.37-1.13.76-.08 1.52-.23 2.27-.22 1.84.04 3.67.15 5.66.24.73.22 1.6.48 2.56.77.98-.36 1.98-.74 2.95-1.1h1.8c1.94-.98 3.83-1.94 5.6-2.83.6-.92 1.02-1.76 1.61-2.44.6-.68 1.37-1.21 2.24-1.96.58-1.86 1.1-3.99 3.15-5.08.05-1.45.03-2.67.16-3.88.14-1.4.07-2.75-.46-4.06-.17-.42-.36-.89-.32-1.32.15-1.73-.22-3.32-.95-4.89-.31-.66-.24-1.5-.33-2.21-.83-1.35-1.63-2.65-2.3-3.73-1.87-1.22-3.51-2.32-5.15-3.42zM148.85 184.77c.04-1.78-1.23-3.1-1.78-5.26 0-.67-.02-1.9.01-3.12.03-1.07-.18-2.28.25-3.16.58-1.18.51-2.38.77-3.58 1.61-2.57 3.23-5.16 4.79-7.63 1.87-1.76 3.65-3.45 5.42-5.13 4.07-1.17 4.07-1.17 7.98-.01l.44.12c-1.02.65-1.97 1.45-3.07 1.93-1.81.8-3.53 1.71-4.52 2.5-1.45 1.67-2.4 2.85-3.43 3.96-1.7 1.83-2.85 3.94-3.28 6.39-.26 1.49-.91 2.89-.82 4.46.08 1.37.07 2.71.59 4.03.33.83.37 1.77.58 2.92.67 1.08 1.53 2.33 2.26 3.66.58 1.05 1.32 2.07 1.32 3.36-.73-.09-1.46-.17-2.41-.29-1.63-1.62-3.64-3.1-5.1-5.15zM136.16 170.67c1.03-1.81 1.29-3.93 2.23-5.77.95-1.86 2.05-3.64 3.05-5.48.28-.51.42-1.11.53-1.43 1.01-1.26 2.72-1.25 3.24-2.69 1.5-.13 2.99-.26 4.52-.39.31.44.55.79.8 1.14-.27.37-.49.81-.83 1.09-2.26 1.84-3.93 4.23-5.91 6.19-1.29 3.5-3.58 6.56-3.16 9.97-.56 1.1-1.2 1.1-1.78 1.22-.87-.72-1.74-1.44-2.69-2.22v-1.63zM158.66 191.83c.74-.25 1.46-.08 2.1.22.31.15.47.63.7.96-1.06-.08-2.2.02-2.8-1.18z"/><path class="st1" d="M189.31 196.41c.06-.94.68-1.28 1.51-1.41-.1 1.15-.1 1.15-1.51 1.41z"/><path class="st2" d="M265.78 198.05c-.68-.27-1.35-.54-2.04-.81-.57.21-1.11.42-1.67.64-1.04-.32-.15-1.33.04-1.19-2.15-2.31-3.65-3.94-5.16-5.56.58-.87.56-.93-.36-1.17l.09.08c-.03-.65-.21-1.13-1.01-1l.07.08c.01-1.01.01-1.01-.98-1.02l.07.08c.5-2.72-1.17-4.95-1.77-8.16 0-.5-.03-1.72.01-2.94.04-1.06-.08-2.22.32-3.15.5-1.17.37-2.4.73-3.52.91-1.44 1.77-2.87 2.68-4.26.92-1.41 1.88-2.79 2.37-3.52l5.22-4.95c1.83 0 3.66-.01 5.49 0 .8 0 1.48.31 2.01.91-.23.2-.43.52-.69.59-2.42.67-4.37 2.14-6.43 3.62-.74.86-1.49 1.84-2.35 2.7-2.36 2.35-3.6 5.18-4.33 8.42-1.01 4.43-.36 8.47 1.98 12.3.88 1.43 1.74 2.87 2.53 4.19 1.7 1.05 3.25 2.01 4.68 2.9 3.59.81 7.08 1.09 10.58 1.31 1.07-.58 2.1-1.28 3.24-1.7 1.07-.4 1.29-1.6 2.38-2.03 1.05-.42 2.11-1 2.86-2.1.64-.94 1.8-1.52 2.59-2.15.12-.78.21-1.37.31-2.01 2.56-2.18 5.57-4.02 5.82-7.82.88-2.03-.64-3.85-.43-5.85.22-2.22-1.29-4.06-1.26-5.98-.94-1.53-1.73-2.84-2.41-3.94-1.43-1.03-3.11-1.21-4.04-2.57 1.11-.42 2.25-.69 3.46-.64 1.18.04 2.36-.02 3.54-.03.15.43.18.99.47 1.27 1.72 1.62 2.74 3.67 3.7 5.73.21 1.38-.05 2.79.7 4.07.29.49.31 1.18.32 1.79.04 2 .05 3.99-.01 5.99-.02.75-.25 1.5-.44 2.23-.22.88-.51 1.74-.69 2.35-2.07 2.77-3.99 5.35-6.04 8.08-1.39.65-2.67 1.71-3.54 3.22-2.95 2.44-5.99 4.75-10.03 6-.92 0-2.14-.01-3.37 0-4.18.06-4.18.06-8.18-1.19-.3.2-.66.45-1.03.71z"/><path class="st1" d="M293.93 157.78c-1.18.01-2.36.08-3.54.03-1.21-.05-2.35.22-3.46.64-4.18-.13-8.31-.87-12.64-.78-.7.27-1.54.59-2.37.91-.54-.6-1.21-.91-2.01-.91-1.83-.01-3.66 0-5.49 0-2.88-.05-5.76-.09-8.63-.14-.22-.19-.43-.38-.78-.68-.6.21-1.27.52-1.98.65-.73.13-1.49.04-2.24.1s-1.49.17-2.23.26c-1.1-.7-2.3-1.04-3.61-.97v-3.06c.25-.19.37-.35.5-.36 2.89-.13 5.79-.33 8.68-.35 3.81-.02 7.63.09 11.59.15 1.12.54 2.42.91 3.83.9 2.6-.03 5.21.05 7.81-.06 1.41-.06 2.73.15 4.04.67.75-.18 1.49-.35 2.26-.54 4.19.87 8.43.84 12.77.14.49.17 1.07.36 1.62.55 3.21-.04 6.34-1.07 9.37-.63 1.07.58 1.4 1.44 1.77 2.44 0 .93-.04 2 .01 3.06.04.78-.13 1.49-.31 2.24-.58 2.35-1.21 4.71-1.41 7.14-.04.46.01.97-.19 1.35-.89 1.71-.82 3.55-.85 5.46-1.27 1.83-2.46 3.79-2.79 6.1-.19 1.27-.66 2.38-1.53 3.27-.82.84-.86 1.93-1.21 2.9-1.05 1.34-2.08 2.67-3.15 3.97-.17.21-.52.26-.79.39.26-1.08-.56-1.59-1.32-2.33.66-1.1.8-2.46 1.69-3.56.96-1.19 1.37-2.66 1.87-4.1 1.11-3.13 1.96-6.32 2.93-9.48.4-1.32.59-2.65.9-3.97.16-.24.44-.46.47-.71.11-.9.14-1.81.19-2.63.58-.99 1.1-1.9 1.61-2.77-.06-1.45-.12-2.8-.18-4.07-.45-.4-.78-.7-1.18-1.07-1.31-.07-2.67-.15-4.02-.22l.05.04c-.1-.41-.15-.84-.3-1.24-.17-.43-.86-.48-1.04-.07-.16.37-.18.81-.26 1.22-.89-.01-1.79-.04-2.68-.03-.6.03-1.19.1-1.77.15z"/><path class="st2" d="M255.77 157.55c-.45.61-.85 1.27-1.37 1.82-1.56 1.68-3.17 3.31-4.56 4.75-.6 1.42-.94 2.62-1.58 3.64-.58.9-.39 2.14-1.39 2.8l-1.23-7.76c.9-.6 1.43-1.49 1.85-2.46.35-.82.71-1.64 1.06-2.46.74-.09 1.48-.21 2.23-.26.74-.06 1.51.03 2.24-.1.7-.12 1.37-.44 1.98-.65.34.3.55.49.77.68z"/><path class="st1" d="M294.1 194.47c.48-1.92.61-2.01 2.61-1.6-.68 1.71-.68 1.71-2.61 1.6z"/><path class="st2" d="M170.03 189.71c-1.28-.26-2.47-.5-3.86-.78-.61-.38-1.35-.92-2.16-1.32-.67-.33-1.43-.47-1.97-.64-1.73-1.65-2.98-3.41-3.55-5.5-.59-2.19-.89-4.46-1.28-6.46.78-3.43 3.68-5.56 4.01-8.86 1.13-.72 2.15-1.37 3.15-2 .66-.05 1.26-.1 2.06-.16 2.63-2.14 5.78-2.95 9.54-2.24 1.45.9 3.13 1.94 4.5 2.8.94.86.61 1.97 1.57 2.55.73.44 1.17 1.35 1.64 1.94l.85 4.92c-.61 2.44-1.21 5.09-2.95 7.59-1.13.88-2.38 1.99-3.59 3.14-2.29 2.19-4.81 4.23-7.96 5.02zm6.32-23.26c-2.62-1-5.04-.75-7.39.02-2.06.68-3.47 2.39-5.3 3.46-.66 1.25-1.29 2.45-1.77 3.37 0 1.41-.12 2.5.02 3.55.58 4.37.18 4.13 3.48 6.98.23.2.51.33.82.53 2.18.34 4.33 1.32 6.81.78.69-.37 1.49-.81 1.76-.96 2.99-2.91 4.86-5.81 5.42-9.6.03-1.52.16-3.2-.44-5.07-1.09-.97-2.33-2.08-3.41-3.06zM197.01 178.12c.74-3.26 1.22-6.48.07-9.79-.43-1.24-.26-2.69-.38-4.26-.35-1.58-1.84-2.87-2.12-4.75-.09-.62-.86-1.2-1.42-1.66-.49-.41-.85-.83-.98-1.45 1.78-.53 3.59-.22 5.39-.14.41.81.84 1.6 1.21 2.42.38.83.72 1.67 1.54 2.19-.05 3.66-.09 7.33-.14 10.83-.52.81-.93 1.44-1.47 2.29-.09 1.14-.2 2.5-.31 3.85-.53.19-.96.33-1.39.47zM303.03 169.2c-.08-1.2-.17-2.39-.27-3.84-.8-1.83-1.68-3.88-2.62-5.91-.27-.58-.35-1.13-.22-1.73 1.36.07 2.71.15 4.02.22.41.37.73.66 1.18 1.07.06 1.27.12 2.62.18 4.07-.51.87-1.04 1.78-1.61 2.77-.05.82-.08 1.73-.19 2.63-.03.26-.31.48-.47.72z"/><path class="st2" d="M299.97 157.77c-.53-.03-1.07-.06-1.6-.08.08-.41.1-.85.26-1.22.18-.41.87-.36 1.04.07.15.38.21.81.3 1.23zM283.04 188.77c-2.8.75-5.15 1.39-7.45 2.01-2.76-.58-5.09-2.12-7.86-3.11-.67-.78-1.47-1.7-2.43-2.82-.86-2.99-2.09-6.12-2.11-9.46 1.12-2.96 3.5-5.18 4.01-8.31.83-.53 1.57-1.07 2.37-1.51 1.45-.8 3.36-.48 4.57-1.88 1.46-.46 2.92-.91 4.43-1.38.9.07 1.81.13 2.59.19 2.29.54 3.85 2.11 5.78 3.13.85 1.38 1.72 2.8 2.55 4.14 1.36 3.51 1.44 6.94-.13 11.04-.03.03-.7.56-.94 1.24-1.03 2.88-3.44 4.57-5.38 6.72zm-8.46-21.51c-1.8 1.36-3.61 2.73-5.25 3.96-.57 1.21-1.02 2.17-1.44 3.08-.41 2.86.48 5.48 1.02 8.24l2.97 2.73c2.35.23 4.52 1.16 7.07.74.63-.27 1.47-.63 2.07-.88 1.5-1.89 2.82-3.55 4-5.05.71-3.33 2.08-6.37.47-9.87-.9-.82-2.02-1.84-2.99-2.72-2.74-1.14-5.3-.52-7.92-.23zM171.99 171.47c.48.42.93.81 1.33 1.17.33 1.59.78 3.05.3 4.66-.89 1.36-2.15 1.97-4.05 1.56-1.16-.95-2.34-2.1-3.24-3.42.18-2.05.19-2.04 1.25-3.58 1.38-.12 2.87-.25 4.41-.39z"/><path class="st2" d="M272.39 176.5c-.2-1.53-.05-2.7 1.23-3.74 1.29-.1 2.8-.23 4.33-.35.52.39.99.75 1.46 1.1.23 1.59.57 3.08.22 4.6-.86 1.57-2.14 2.12-4.01 1.71-1.33-.84-2.29-2.21-3.23-3.32z"/></svg>