<?xml version="1.0" encoding="utf-8"?>
<!-- Generator: Adobe Illustrator 26.0.1, SVG Export Plug-In . SVG Version: 6.00 Build 0)  -->
<svg version="1.1" id="Layer_1" xmlns="http://www.w3.org/2000/svg" xmlns:xlink="http://www.w3.org/1999/xlink" x="0px" y="0px"
	 viewBox="0 0 458 320" style="enable-background:new 0 0 458 320;" xml:space="preserve">
<style type="text/css">
	.st0{fill:#131112;}
	.st1{fill:#6B59E9;}
	.st2{fill:#FF5543;}
</style>
<g>
	<path class="st0" d="M164.44,132.74c-0.75,0.5-1.5,1.01-2.22,1.49c0.03,0.36,0.05,0.65,0.08,1.05c3.14,0.42,6.31,0.44,9.48,0.09
		c0.76-0.08,1.54-0.25,2.28-0.15c1.52,0.19,3,0.19,4.52-0.09c1.2-0.22,2.44-0.16,3.64,0.2c1.21,0.36,2.42,0.34,3.61-0.31
		c1.63,0.41,3.17,1.08,4.95,0.62c1.13-0.29,2.44,0.24,3.62,0.07c1.22-0.17,2.4-0.43,3.63-0.12c0.28,0.07,0.64,0.05,0.9-0.07
		c1.16-0.54,2.39-0.48,3.61-0.45c1.21,0.03,2.43,0.15,3.85,0.25c0.96-0.32,2.12-0.71,3.4-1.13c1.71,0.51,3.48-0.45,5.31-0.23
		c1.57-0.7,3.34-0.11,4.91-0.79c1.86,0.51,3.62,0.05,5.37-0.51c2.43,0.6,4.79-0.34,7.19-0.36c2.29-0.02,4.59-0.28,6.87,0.14
		c3.96-0.62,7.93,0.09,11.91-0.18c4.27-0.29,8.55-0.18,12.79,0.79c2.37,0.55,4.84,0.66,7.27,1.01c1.05,0.15,2.09,0.38,3.22,0.6
		c0.48-0.15,1.06-0.34,1.61-0.51c3.16,0.63,6.3,1.29,9.54,1c0.45-0.04,0.96-0.05,1.36,0.11c1.77,0.74,3.61,0.52,5.44,0.56
		c1.99,0.05,3.97,0.19,5.96,0.15c1.82-0.04,3.64-0.35,5.47-0.38c0.89-0.01,1.79,0.33,3.14,0.61c1.65-0.41,3.75-0.64,5.88,0.04
		c0.86,0.28,1.81,0.3,2.72,0.41c1.82,0.22,3.64,0.42,5.94,0.69c0.26-0.1,0.96-0.38,1.87-0.74c0.65-1.18,1.38-2.51,2.32-4.21
		c0.81-0.73,1.95-1.74,3.44-3.07c0.62-1.37,1.35-3.27,3.5-3.93c0.23-0.07,0.36-0.48,0.55-0.72c0.76-0.93,1.52-1.85,2.28-2.78
		c1.38-0.25,1.83-1.53,2.67-2.39c0.86-0.87,1.66-1.81,2.58-2.62c0.82-0.72,1.31-1.68,2.03-2.45c0.62-0.66,1.39-1.17,2.08-1.72
		c0.65-1.79,1.47-3.4,3.65-3.96c1.09-1.51,2.14-3.21,3.42-4.72c2.77-3.25,5.7-6.37,8.9-9.2c0.45-0.39,1.12-0.55,1.51-0.97
		c1.42-1.56,2.76-3.18,4-4.63c1.47-0.77,2.83-1.41,4.12-2.17c2.13-1.24,4.28-2.37,6.7-2.54c0.96,0.18,1.85,0.36,2.73,0.52
		c0.75,0.13,1.5,0.23,2.27,0.34c2.05,1.91,4.13,3.71,6.45,4.51c2.24,1.72,3.44,3.94,5.6,5.55c0.43,1.08,0.95,2.34,1.46,3.61
		c-0.15,2.75,1.76,5.3,0.5,8.85c-1.39,2.49-4.13,4.62-7.18,6.41c-0.13,0.07-0.3,0.07-0.45,0.1c-0.11-0.11-0.19-0.29-0.32-0.32
		c-1.59-0.47-3.16-1.14-4.78-1.32c-1.6-0.18-2.95-0.73-4.44-1.73c-1.02-0.58-1.03-2.37-2.48-2.9c-0.29,0.1-0.71,0.11-0.81,0.3
		c-0.42,0.79-0.59,1.74-1.13,2.41c-0.54,0.69-1.44,1.08-2.11,1.69c-0.45,0.4-0.75,0.97-1.15,1.43s-0.78,0.97-1.27,1.31
		c-2.8,1.92-4.94,4.54-7.41,6.82c-0.67,0.62-1.28,1.35-1.76,2.12c-1.38,2.23-3.13,4.14-4.86,6.08c-1.43,1.6-2.86,3.18-4.29,4.77
		c-0.58,1.88-2.19,2.89-3.54,4.18c-0.99,2.56-3.04,4.52-4.29,6.95c-1.32,2.56-3.26,4.82-3.85,7.52c-1.18,1.45-2.25,2.75-3.31,4.05
		c-1.16,1.42-2.3,2.85-3.51,4.34c-0.29,1.15-0.48,2.35,0.79,3.21c-0.31,0.89-0.23,1.78-0.13,2.69c0.09,0.89,0.02,1.79,0.02,2.51
		c-1.79,2.44-4.38,2.95-6.93,3.73c-0.28,0.5-0.57,1.01-0.86,1.52c-0.58,0.47-1.16,0.94-1.45,1.18c-0.29,1.26-0.54,2.13-0.67,3.01
		c-0.16,1.05-0.22,2.12-0.29,2.78c-0.7,1.28-1.47,2.17-1.65,3.17c-0.25,1.42-0.91,2.57-1.59,3.77c-0.91,1.59-1.67,3.27-2.5,4.91
		c-0.28,0.54-0.59,1.07-0.94,1.71c-0.6,0.54-1.28,1.16-1.93,1.75c-1.23,2.51-2.63,4.84-4.82,6.63c-0.71,0.58-1.32,1.3-1.85,2.04
		c-2.14,2.94-5.28,4.54-8.31,6.29c-0.5,0.29-1.17,0.3-1.58,0.4c-1.12,0.89-2.07,1.66-2.83,2.27c-1.26,0.39-2.35,0.21-3.37,0.74
		c-0.92,0.47-2.03,0.57-3.02,0.82c-0.49,0.43-0.95,0.83-1.41,1.24c-3.36,0.45-6.38,2.09-9.87,2.5c-1.82-0.2-3.79-0.42-5.81-0.64
		c-0.6-0.75-1.18-1.45-1.73-2.17c-0.05-0.07,0.02-0.24,0.04-0.39c2.05-1.36,4.32-1.29,6.44-0.91c0.64-0.16,1.08-0.31,1.53-0.38
		c3.35-0.48,6.33-2.27,9.69-2.7c2.36-1.51,5.07-2.08,7.16-2.68c1.2-0.83,1.96-1.33,2.69-1.86c2.11-1.51,4.48-2.67,6.25-4.65
		c0.91-1.02,1.91-1.97,2.86-2.96c1.05-1.09,1.76-2.5,3.08-3.34c1.28-2.04,2.67-4.01,4.15-5.91c0.17-0.22,0.15-0.58,0.25-0.87
		c0.26-0.71,0.51-1.43,0.83-2.11c1.58-3.31,3.18-6.6,4.64-9.64c0.03-3.31,0.93-6.01,2.62-8.48c0.75-0.32,1.45-0.62,2.14-0.92
		c0.89-0.22,1.79-0.4,2.67-0.66c0.74-0.22,1.39-0.62,1.86-1.68c-0.07-1.07,0.12-2.53-0.3-3.79c-0.69-2.09-0.51-4.21-0.82-5.89
		c0.27-0.96,0.83-1.41,0.56-2.01c-0.42-0.74-1.09-1.38-1.13-2.06c-0.12-2.3-1.43-4.35-1.25-6.7c0.04-0.57-0.25-1.16-0.34-1.56
		c0.19-1.22,0.84-2.19,0.4-3.29c-0.05-0.13-0.2-0.23-0.37-0.41c-0.54,0-1.14,0-1.77,0c-1.33,0.2-2.19,1.69-3.93,1.46
		c-0.72-0.74-1.55-1.6-2.48-2.57c-1.7-0.24-3.51-0.58-5.33-0.72c-1.67-0.13-3.34,0.06-4.96-0.66c-0.62-0.27-1.48-0.03-2.22,0.03
		c-1.36,0.1-2.71,0.3-4.07,0.35c-1.37,0.05-2.75-0.06-4.13-0.08c-0.92-0.01-1.84,0.02-2.76,0c-0.6-0.01-1.26,0.08-1.8-0.12
		c-1.94-0.71-3.94-0.09-5.89-0.4c-2.45,0.82-4.78-0.17-7.16-0.48c-0.91-0.12-1.8-0.43-2.71-0.49c-1.68-0.11-3.38-0.26-5.04-0.08
		c-1.91,0.2-3.56-0.88-5.38-0.79c-1.76,0.08-3.29-0.58-4.88-1.04c-5.36-0.49-10.71,0.02-16.06,0c-5.34-0.02-10.68-0.26-15.9,0.14
		c-0.49-0.23-0.87-0.4-1.22-0.56c-0.37,0.33-0.7,0.63-1.03,0.93c-2.08-0.08-4.24,1.19-6.18-0.35c-0.95,0.18-1.75,0.55-2.7,0.56
		c-1.02,0.02-2.03,0.53-3.05,0.83c-0.74-0.14-1.48-0.29-2.17-0.43c-0.94,0.28-1.8,0.71-2.69,0.79c-3.03,0.27-6,0.95-9.09,0.83
		c-2.43-0.1-4.9-0.14-7.32,0.38c-0.42,0.09-0.91-0.11-1.36-0.18c-2.14-0.48-3.93-0.5-7.19-0.09c-1.96-0.01-3.94,0.15-5.87-0.07
		c-2.27-0.26-4.47-0.07-6.67,0.36c-1.78-0.5-3.59-0.32-5.4-0.29c-1.05-0.45-2.1-0.4-3.15,0.02c-1.37,0.07-2.74,0.27-4.1,0.18
		s-2.71-0.33-4.08-0.22c-1.82,0.15-3.63,0.29-5.45,0.42c-3.33,0.24-6.67,0.12-9.99,0.51c-0.57,0.07-1.18-0.28-1.78-0.33
		c-0.59-0.05-1.19,0.08-1.78,0.05c-1.5-0.06-2.98,0.17-4.46,0.21c-4.26,0.09-8.53,0.03-12.8,0.01c-1.37-0.01-2.71-0.09-4.07-0.44
		c-1.26-0.33-2.62-0.23-3.74-0.31c-1.08,1.03-1.06,2.07-0.79,3.15c-0.61,0.94-0.72,2-0.72,3.09c0,1.84,0,3.68,0,5.34
		c0.53,1.18,0.96,2.15,1.37,3.05c1.15,0.74,2.27,1.29,3.19,2.08c1.62,1.4,3.29,2.8,4.6,4.47s2.74,3.26,4,4.98
		c0.18,0.25,0.42,0.49,0.49,0.78c0.52,2.15,1.97,3.77,3.07,5.59c1.1,1.84,1.92,3.81,2.82,5.74c0.19,0.41,0.4,0.85,0.71,1.17
		c1.65,1.68,2.52,3.85,3.6,5.86c0.74,1.39,1.58,2.61,2.74,3.63c2.08,1.81,4.22,3.55,6.27,5.39c1.83,1.64,3.76,3.12,5.87,4.38
		c0.26,0.15,0.48,0.37,0.72,0.55c0.24,0.4,0.49,0.79,0.78,1.26c2.83,1.33,5.7,2.75,8.07,5.07c2.03,0.2,3.79,1.12,5.47,2.21
		c0.63,0.41,1.26,0.97,2.08,0.84c1.51-0.25,2.52,1.1,3.92,1.2c1.53,0,3.07,0,4.56,0c1.5,0.49,2.94,0.96,3.8,1.24
		c3.78-0.24,6.95-0.66,10.06-1.44c3.32-0.83,6.11-2.8,9.31-4.07c0.45-1.88,2.1-2.5,3.39-3.12c0.8-0.87,1.43-1.55,2.04-2.23
		c3.45-3.85,3.45-3.85,5.61-8.29c1-2.06,2.08-4.09,2.97-6.2c1.74-4.12,2.74-8.42,2.91-12.87c1.64-4.31,2.93-8.77,6.17-12.01
		c4.16-2.05,4.16-2.05,7.19-1.97c0.31,0.21,0.76,0.4,1.05,0.74c1.81,2.08,3.31,4.3,4.2,7c1.32,4,1.78,8.01,1.39,12.02
		c-0.52,0.4-0.87,0.68-1.31,1.02c0.36,0.33,0.65,0.65,1,0.9c0.36,0.27,0.76,0.48,1.24,0.77c0.76,1.78,1.44,3.66,2.35,5.42
		c1,1.94,1.55,3.97,1.62,5.85c1.86,2.98,3.43,5.81,5.3,8.42c1.86,2.6,4.01,5,6.14,7.6c1.02,0.67,2.17,1.43,3.22,2.12
		c0.67,0.79,1.26,1.49,1.86,2.2c1.71,0.31,3.27,0.87,4.63,1.95c0.59,0.47,1.31,0.81,2.03,1.07c0.85,0.31,1.76,0.46,2.53,0.65
		c0.93,0.74,1.76,1.4,2.6,2.06c0.03,0.48,0.05,0.94,0.08,1.47c-0.41,0.15-0.81,0.3-1.13,0.42c-0.66-0.3-1.21-0.55-1.9-0.86
		c-2.26,0.78-4.28-0.92-6.39-0.87c-1.21-0.76-2.24-1.43-3.29-2.06c-2.77-1.66-5.39-3.5-7.41-6.06c-1.59-0.81-1.98-2.67-3.28-3.76
		c-2.65-2.21-4.1-5.31-5.92-8.14c-0.17-1.47-1.22-2.44-2-3.57c-0.26-0.38-0.51-0.76-0.74-1.11c-0.08-0.66-0.16-1.27-0.2-1.62
		c-0.85-1.9-1.73-3.53-2.3-5.26c-0.53-1.58-1.28-3.09-1.41-4.82c-0.13-1.82-0.71-3.61-0.8-5.43c-0.06-1.26-0.46-2.38-0.75-3.49
		c0.13-0.66,0.25-1.25,0.37-1.8c-0.99-2.17-1.68-4.34-1.81-6.51c-0.81-0.95-1.29-1.95-2.46-2.31c-1.21,0.47-2.45,0.95-3.59,1.39
		c-0.14,0.47-0.23,0.76-0.32,1.05c-2.22,2.48-3.48,5.35-3.49,8.72c-0.8,2.61-0.26,5.51-1.7,7.98c-0.1,3.19-1.61,5.83-3.19,8.47
		c-1.1,1.84-1.76,3.89-2.74,5.8c-1.92,3.77-4.6,6.86-7.72,9.61c-1.83,1.62-3.83,3.05-5.75,4.56c-1.55-0.02-1.55-0.02-1.92,1.12
		l0.05-0.02c-1.12-0.4-2.14-0.01-3.06,0.52c-2.69,1.55-5.71,2.12-8.62,3.03c-0.57,0.18-1.23,0.25-1.81,0.17
		c-1.37-0.19-2.71-0.33-4.09-0.06c-0.58,0.11-1.29,0.07-1.81-0.18c-1.68-0.79-3.61-0.53-5.3-1.41c-0.74-0.38-1.79-0.16-2.7-0.22
		c-0.46-0.03-0.91-0.09-1.32-0.13c-0.83-0.5-1.62-0.97-2.35-1.4c-1.14-0.15-2.21-0.29-3.31-0.43c-1.05-0.59-2.08-1.27-3.19-1.77
		c-2.5-1.13-5.19-1.94-6.95-4.27c-0.09-0.11-0.26-0.16-0.39-0.24c-0.74-0.18-1.47-0.35-1.97-0.47c-2.17-1.6-3.84-3.44-6.13-4.43
		c-0.54-0.24-1.05-0.67-1.45-1.11c-1.22-1.36-2.63-2.46-4.09-3.56c-3.21-2.42-5.37-5.85-7.9-8.92c-0.38-0.46-0.53-1.1-0.83-1.64
		c-0.59-1.07-1.21-2.13-1.82-3.19c-0.61-1.06-1.03-2.3-1.87-3.12c-0.98-0.97-0.72-2.36-1.53-3.27c-1.24-1.4-1.95-3.11-2.83-4.72
		c-0.87-1.61-1.68-3.25-2.4-4.66c-1.42-0.9-2.49-1.81-3.17-3.02c-1.39-2.44-3.56-3.67-6.18-4.33c-0.29-0.07-0.53-0.29-0.86-0.47
		c-0.9-0.96-1.82-1.98-2.23-3.3c0.31-1.09,0.25-2.1,0.01-3.18c-0.27-1.18-0.16-2.44-0.23-3.66c-0.06-1.07-0.14-2.14-0.21-3.21
		c0.33-0.84,0.65-1.69,1-2.59c-0.71-1.07-1.37-2.07-2.02-3.06c0.32-0.48,0.55-0.87,0.82-1.23c0.64-0.85,1.84-1.14,2.24-2.23
		c0.38-1.03,1.63-0.61,2.22-1.37c0.65-0.84,1.41-1.59,2.15-2.35c0.64-0.66,1.24-1.39,1.97-1.93c3.2-2.38,6.26-4.91,9.02-7.79
		c1.95-0.99,3.37-2.65,4.84-4.15c1.38-1.41,2.91-2.66,4.35-3.98c1.25-1.14,2.48-2.22,3.12-3.81c0.56-0.1,0.98-0.18,1.71-0.32
		c2.68-1.76,5.6-3.67,7.95-6.32c0.33,0,0.62,0,0.88,0c2.87-2.1,5.67-4.23,8.56-6.22c0.98-0.68,2.2-1.02,3.55-1.62
		c0.16-0.26,0.47-0.78,0.87-1.44c1.13-0.49,2.56-0.82,3.6-1.64c2.07-1.65,4.65-2.36,6.72-3.95c0.49-0.37,0.96-0.77,1.4-1.12
		c1.62-0.56,3.2-1.11,4.82-1.67c0.31-0.48,0.65-0.99,1.08-1.65c2.04-1.01,4.23-2.1,6.28-3.12c1.99-2.49,4.72-3.45,7.58-4.61
		c0.89-1.23,2.3-2.14,3.79-2.95c1.32-0.72,2.27-2.07,3.95-2.2c0.57-0.04,1.14-0.43,1.66-0.76c3.62-2.26,7.41-4.2,11.26-6.31
		c0.49,0.05,1.09,0.11,1.76,0.18c0.5-0.22,1.06-0.46,1.6-0.69c1.46-0.18,2.66,0.57,3.88,1.09c0.81-0.07,1.57-0.14,2.59-0.23
		c2.06,0.82,4.33,1.72,6.39,2.54c2.89,2.41,5.71,4.56,6.66,9.13c0,1.42,0,3.71,0,6.11c-0.35,0.74-0.73,1.57-1.08,2.32
		c-0.19,0.17-0.28,0.3-0.41,0.36c-1.52,0.69-3.05,1.36-4.82,2.15c-0.09,0.13-0.36,0.49-0.63,0.86c-1.68-0.05-3.36-0.19-5.04-0.13
		c-1.58,0.05-3.04-0.24-4.47-1.02c-1.48,0-3.02,0-4.63,0c-1.23,0.43-2.53,0.89-4.15,1.46c-1.75,1.44-3.75,3.09-5.83,4.8
		c-0.35,0.1-0.79,0.22-1.36,0.38c-0.3,0.37-0.58,0.99-1.06,1.26c-1.51,0.83-2.59,2.14-3.84,3.26c-1.47,1.33-2.96,2.66-4.46,3.97
		c-0.46,0.4-0.98,0.73-1.42,1.15c-1.77,1.69-3.53,3.39-5.27,5.11c-1.73,1.71-3.32,3.56-5.17,5.15c-0.23,0.2-0.48,0.42-0.6,0.68
		c-0.79,1.74-2.29,2.89-3.65,4.08c-1.39,1.22-2.62,2.56-3.6,4.07c-1.67,2.58-3.75,4.77-5.93,6.89c-0.66,0.64-1.4,1.22-1.97,1.93
		C164.79,131.55,164.67,132.19,164.44,132.74z M388.61,96.83c0.47-1.08-0.32-1.46-1.05-1.87l0.05,0.05
		c-0.22-0.39-0.36-0.88-0.69-1.14c-1.31-1.04-2.74-1.92-4.11-2.85c-2.01-1.37-4.31-2.31-6.92-2.13c-1.06,0.61-2.09,1.26-3.17,1.82
		c-2.06,1.07-3.92,2.41-5.44,4.16c-1.11,1.29-2.46,2.29-3.78,3.32c-1.08,0.85-2.14,1.72-3.18,2.55c-0.52,1.39-1.36,2.43-2.36,3.41
		c-3.82,3.75-7.05,8.02-10.43,12.06c-0.72,0.37-1.38,0.71-1.91,0.98c-0.52,1.14-0.42,2.24-0.99,3.22c-0.34,0.58-0.14,1.48-0.19,2.24
		c-1.19,2.83-2,5.78-2.31,8.52c-0.59,1.1-1.02,1.91-1.42,2.65c-0.09,1.01-0.17,1.93-0.25,2.84c-0.69,1.35-1.91,2.47-1.78,4.15
		c-1.41,3.37-1.49,7.16-3.24,10.43c-0.04,0.07,0.12,0.25,0.19,0.4c0.13,0,0.31,0.06,0.38-0.01c1.22-1.15,2.09-2.49,2.83-4.04
		c1.3-2.69,2.43-5.59,5.12-7.19c0.08-0.59,0.14-1.05,0.21-1.57c1.39-1.76,2.88-3.51,4.22-5.37c1.33-1.86,2.71-3.69,4.04-5.55
		c1.31-1.84,3.12-3.33,4.42-4.68c0.4-0.95,0.64-1.51,0.85-2.01c2.17-0.96,3.11-3.06,4.72-4.45c1.74-1.51,3.02-3.52,4.84-4.83
		c1.78-1.29,2.74-3.3,5.24-4.76c1.73-0.65,3.88-2.34,6.86-2.05c0.57,0.54,1.3,1.1,1.86,1.8c0.73,0.89,1.72,1.4,2.72,1.63
		c1.92,0.46,3.9,0.82,5.96,0.29c0.45-0.81,0.9-1.6,1.35-2.39c0.32-0.28,0.64-0.56,0.86-0.76c0.56-2.75-0.53-5.07-1.28-7.71
		c-0.37-0.35-0.91-0.86-1.41-1.34c-0.34,0.03-0.62,0.06-0.89,0.08L388.61,96.83z M227.44,72.91c-0.84-0.87-1.69-1.74-2.64-2.72
		c-1.92,0.16-3.51-0.58-4.62-2.24c-1.09,0.24-2.05-0.21-3.1-0.52c-1.57,0.43-3.31,0.62-4.77,1.36c-2.31,1.18-4.71,2.15-7,3.35
		c-0.93,0.49-1.73,1.24-2.55,1.84c-0.66,0-1.24,0-1.65,0c-0.81,0.73-1.4,1.48-2.16,1.91c-1.58,0.89-2.84,2.32-4.65,2.83
		c-3.08,2.52-6.67,4.24-9.99,6.38c-2.05,1.32-4.21,2.46-6.33,3.66c-1.86,1.06-3.86,1.91-5.54,3.19c-1.71,1.31-3.53,2.32-5.43,3.28
		c-1.21,0.61-2.46,1.18-3.59,1.92c-1.27,0.84-2.51,1.68-3.99,2.17c-0.53,0.18-0.95,0.7-1.71,1.3c1.18,1.08,0.28,2.61,1.12,3.8
		c-0.38,1.94-0.71,3.89-1.16,5.81c-0.46,1.95-0.59,3.91-0.67,5.89c-0.02,0.46-0.04,0.92-0.15,1.36c-0.61,2.52-1.12,5.06-1.89,7.53
		c-0.72,2.27-0.83,4.51-0.23,6.76c0.22,0.82-0.02,1.49-0.04,2.23c0,0.22,0.28,0.44,0.57,0.87c2.65-2.32,5.23-4.68,7.69-7.15
		c1.29-1.29,2.27-2.89,3.54-4.2c1.28-1.32,2.69-2.53,3.6-4.14c0.93-1.63,2.59-2.52,3.71-3.97c2.53-3.25,5.14-6.44,8.2-9.26
		c1.12-1.03,2.44-1.86,3.4-3.03c1.77-2.16,3.98-3.78,6.21-5.39c0.49-0.36,1.11-0.61,1.47-1.07c1.55-1.92,3.62-3.29,5.09-4.99
		c1.14-0.59,2.09-1.09,3.19-1.65c0.98-2.05,3.21-3.01,4.76-4.68c1.74-1.87,4.34-2.14,6.6-2.94c2.89,0.49,5.75,0.98,8.85,1.51
		c2.47-1.04,5.57-0.57,8.28-2.3c0.23-0.37,0.54-0.89,0.81-1.32c0-1.34,0-2.56,0-3.94c-0.64-0.93-1.29-1.96-2.05-2.91
		C228.4,73.15,227.85,73.08,227.44,72.91z M118.06,136.08c0.02-0.85-0.37-1.38-1.26-1.54c-0.95,0.06-1.64,0.46-1.75,1.54
		c0.67,0.71,1.47,0.86,2.38,0.58C117.64,136.46,117.85,136.27,118.06,136.08z M193.54,137.66c-0.09,0.1-0.28,0.24-0.26,0.31
		c0.14,0.44,0.35,0.44,0.51,0.01C193.82,137.91,193.63,137.77,193.54,137.66z"/>
	<path class="st1" d="M223.35,165.04c0.09-0.29,0.17-0.58,0.32-1.05c1.13-0.44,2.38-0.92,3.59-1.39c1.17,0.36,1.65,1.36,2.46,2.31
		c0.13,2.18,0.82,4.34,1.81,6.51c-0.11,0.55-0.23,1.14-0.37,1.8c0.29,1.11,0.69,2.23,0.75,3.49c0.09,1.82,0.66,3.61,0.8,5.43
		c0.13,1.73,0.88,3.24,1.41,4.82c0.58,1.73,1.46,3.36,2.3,5.26c0.04,0.35,0.12,0.96,0.2,1.62c0.23,0.34,0.48,0.73,0.74,1.11
		c0.77,1.13,1.83,2.1,2,3.57c1.82,2.82,3.27,5.93,5.92,8.14c1.3,1.09,1.69,2.94,3.28,3.76c2.03,2.56,4.64,4.4,7.41,6.06
		c1.05,0.63,2.08,1.3,3.29,2.06c2.11-0.05,4.14,1.65,6.39,0.87c0.69,0.32,1.25,0.57,1.9,0.86c0.33-0.12,0.73-0.27,1.13-0.42
		c-0.03-0.53-0.05-0.99-0.08-1.47c-0.84-0.66-1.67-1.32-2.6-2.06c-0.77-0.19-1.68-0.35-2.53-0.65c-0.71-0.26-1.44-0.6-2.03-1.07
		c-1.36-1.08-2.92-1.64-4.63-1.95c-0.6-0.72-1.19-1.41-1.86-2.2c-1.05-0.69-2.2-1.45-3.22-2.12c-2.12-2.61-4.28-5-6.14-7.6
		c-1.87-2.61-3.44-5.44-5.3-8.42c-0.07-1.89-0.62-3.91-1.62-5.85c-0.91-1.76-1.59-3.64-2.35-5.42c-0.48-0.29-0.88-0.5-1.24-0.77
		c-0.34-0.26-0.64-0.58-1-0.9c0.45-0.35,0.8-0.62,1.31-1.02c0.39-4.01-0.07-8.02-1.39-12.02c-0.89-2.71-2.39-4.92-4.2-7
		c-0.29-0.33-0.74-0.52-1.05-0.74c-3.03-0.08-3.03-0.08-7.19,1.97c-3.24,3.24-4.53,7.7-6.17,12.01c-0.17,4.45-1.17,8.76-2.91,12.87
		c-0.89,2.11-1.96,4.14-2.97,6.2c-2.16,4.44-2.16,4.43-5.61,8.29c-0.61,0.69-1.24,1.36-2.04,2.23c-1.29,0.62-2.93,1.24-3.39,3.12
		c-3.2,1.27-5.99,3.24-9.31,4.07c-3.11,0.78-6.28,1.2-10.06,1.44c-0.86-0.28-2.3-0.75-3.8-1.24c-1.49,0-3.02,0-4.56,0
		c-1.4-0.1-2.41-1.45-3.92-1.2c-0.82,0.13-1.45-0.43-2.08-0.84c-1.69-1.09-3.44-2.01-5.47-2.21c-2.37-2.32-5.24-3.74-8.07-5.07
		c-0.29-0.47-0.53-0.86-0.78-1.26c-0.24-0.18-0.46-0.39-0.72-0.55c-2.11-1.26-4.04-2.74-5.87-4.38c-2.05-1.84-4.19-3.58-6.27-5.39
		c-1.16-1.01-2-2.24-2.74-3.63c-1.08-2.01-1.95-4.18-3.6-5.86c-0.31-0.32-0.52-0.76-0.71-1.17c-0.91-1.93-1.72-3.91-2.82-5.74
		c-1.1-1.82-2.55-3.45-3.07-5.59c-0.07-0.28-0.3-0.53-0.49-0.78c-1.26-1.72-2.68-3.3-4-4.98c-1.31-1.67-2.99-3.07-4.6-4.47
		c-0.92-0.79-2.04-1.34-3.19-2.08c-0.41-0.91-0.84-1.88-1.37-3.05c0-1.66,0-3.5,0-5.34c0-1.08,0.1-2.14,0.72-3.09
		c0.91,0.06,1.83,0.2,2.74,0.17c4.42-0.14,8.83-0.55,13.27-0.36c1.23,0.05,2.43,0.14,3.63,0.38c1.22,0.25,2.36-0.35,3.63-0.24
		c1.95,0.17,3.95-0.14,5.92-0.22c0.92-0.04,1.85,0.04,2.76-0.04c1.05-0.09,2.1-0.31,3.02-0.45c1.57,0.65,3,1.22,4.68,0.69
		c0.66-0.47,1.39-1,1.99-1.43c4.6-0.7,9.07,0.32,13.48-0.45c0.29-0.05,0.61,0.05,0.92,0.07c4.73,0.37,9.46,0.35,14.17-0.04
		c0.88,0.29,1.73,0.56,2.57,0.83c0.44-0.29,0.82-0.55,1.23-0.82c0.04-0.45,0.09-0.89,0.13-1.34c3.26-0.41,5.05-0.39,7.19,0.09
		c0.14,0.4,0.28,0.8,0.37,1.07c0.3,0.17,0.43,0.29,0.56,0.3c4.27,0.26,8.54-0.15,12.8,0.06c0.43,0.02,0.88-0.22,1.32-0.34
		c0.43-0.12,0.87-0.24,1.19-0.33c1.33,0.22,2.54,0.42,3.77,0.63c1.03-0.13,2.12-0.17,3.15-0.42c1.17-0.29,2.3-0.79,3.39-1.17
		c0.94,0.29,1.81,0.56,2.7,0.84c1.05-0.29,2.06-0.68,3.11-0.82c1.21-0.16,2.45-0.12,3.67-0.12c4.9-0.01,9.79,0,14.39,0
		c1.12,0.53,1.95,0.92,2.87,1.35c2.83,0,5.74-0.07,8.64,0.02s5.78,0.4,8.68,0.49c2.6,0.09,5.2,0.02,7.96,0.02
		c0.62,0.37,1.4,0.84,2.15,1.28c1.14,0,2.2,0,3.16,0c0.73-0.48,1.35-0.89,1.84-1.21c1.54,0.41,2.87,0.77,3.65,0.98
		c1.45-0.06,2.39-0.28,3.25-0.09c2.86,0.64,5.74,0.93,8.65,0.94c1.59,0.59,3.16,1.18,4.69,1.75c2.48,0.12,4.95-0.38,6.98,0.55
		c1.36-0.21,2.4-0.36,3.18-0.48c1.08,0.54,1.89,0.95,2.45,1.23c1.98,0,3.66,0,5.19,0c0.95-0.47,1.75-0.86,2.42-1.19
		c0.33,0.16,0.53,0.2,0.58,0.3c1.7,4.04,2.34,5.88,3.65,14.01c0.44,0.58,0.9,1.19,1.22,1.62c0.91,2.5,1.18,4.88,1.11,6.73
		c-0.35,1.28-0.55,2-0.75,2.72c-0.7,0.3-1.39,0.6-2.14,0.92c-1.69,2.47-2.59,5.17-2.62,8.48c-1.46,3.04-3.06,6.33-4.64,9.64
		c-0.32,0.68-0.57,1.4-0.83,2.11c-0.1,0.28-0.08,0.65-0.25,0.87c-1.48,1.9-2.87,3.87-4.15,5.91c-1.32,0.85-2.03,2.25-3.08,3.34
		c-0.95,0.99-1.95,1.94-2.86,2.96c-1.77,1.98-4.14,3.14-6.25,4.65c-0.73,0.53-1.49,1.03-2.69,1.86c-2.09,0.6-4.8,1.17-7.16,2.68
		c-3.36,0.43-6.34,2.22-9.69,2.7c-0.45,0.07-0.89,0.22-1.53,0.38c-2.12-0.38-4.39-0.45-6.44,0.91c-0.02,0.15-0.09,0.32-0.04,0.39
		c0.55,0.72,1.13,1.42,1.73,2.17c2.01,0.22,3.98,0.44,5.81,0.64c3.49-0.41,6.52-2.05,9.87-2.5c0.46-0.41,0.92-0.81,1.41-1.24
		c0.98-0.25,2.1-0.34,3.02-0.82c1.02-0.53,2.11-0.35,3.37-0.74c0.76-0.61,1.72-1.37,2.83-2.27c0.41-0.1,1.08-0.11,1.58-0.4
		c3.02-1.75,6.17-3.35,8.31-6.29c0.54-0.74,1.15-1.47,1.85-2.04c2.19-1.78,3.59-4.11,4.82-6.63c0.65-0.59,1.33-1.21,1.93-1.75
		c0.35-0.63,0.67-1.16,0.94-1.71c0.83-1.64,1.59-3.31,2.5-4.91c0.69-1.2,1.34-2.35,1.59-3.77c0.18-0.99,0.95-1.88,1.65-3.17
		c0.07-0.66,0.13-1.73,0.29-2.78c0.14-0.89,0.39-1.75,0.67-3.01c0.29-0.24,0.87-0.71,1.45-1.18c0.32,0.53,0.63,1.05,1.04,1.74
		c0.06,0.76,0.13,1.66,0.19,2.49c-0.25,0.66-0.46,1.23-0.68,1.82c0.18,0.58,0.36,1.15,0.54,1.73c-0.06,0.29-0.08,0.6-0.2,0.87
		c-2.03,4.85-4.92,9.15-8.37,13.1c-0.9,1.03-1.72,2.15-2.52,3.27c-2.43,3.36-5.2,6.44-8,9.49c-3.67,3.98-7.85,7.29-12.94,9.31
		c-0.42,0.17-0.86,0.36-1.22,0.63c-2.37,1.78-5.08,2.82-8.44,3.88c-0.96,0-2.49-0.03-4.02,0.01c-1.98,0.04-3.93,0.03-5.88,0.71
		c-1.39,0.49-3.02,0.28-4.45,0.38c-1.39-0.62-2.65-1.18-4.03-1.79c-0.95,0-2.02,0-2.97,0c-1.29-0.39-2.47-0.7-3.62-1.11
		c-3.03-1.1-6.07-2.14-8.57-4.31c-0.8-0.7-1.79-1.17-2.69-1.76c-1.66-1.09-1.67-1.1-3.29-3.63c-2.02-1.74-4.15-3.28-5.92-5.16
		c-2.61-2.78-5.24-5.56-7.37-9.08c-0.22-2.19-0.45-4.65-2.01-6.47c-0.37-1.38,0.24-2.66-0.46-3.81c-0.23-0.38-0.4-0.88-0.37-1.31
		c0.21-2.36-1.04-4.46-1.12-6.76c-0.87-1.7-0.7-3.58-0.9-5.58c-0.53-1.71-1.72-3.36-1.94-5.41c-0.11-1.01-0.76-2-1.33-2.89
		C224.48,165.63,223.84,165.38,223.35,165.04z M249.37,189.98l-0.06-0.09c0.11,0.88,0.22,1.76,0.32,2.51
		c2.25,2.29,4.24,4.56,7.13,5.73c0.27-0.11,0.54-0.23,0.81-0.34c1.7,0.12,2.31,1.96,3.71,2.4c0.54,0.08,0.98,0.15,1.43,0.22
		c1.24,1.11,2.49,2.23,3.8,3.4c0.94-0.09,1.83-0.18,2.88-0.28c2.36,1.42,5.09,1.36,7.82,1.05c0.53-0.3,1.02-0.59,1.41-0.82
		c0.87,0.41,1.54,0.73,2.28,1.08c2.58-1.33,5.38-0.91,7.93-1.11c3.3-1.69,6.35-3.43,9.27-5.41c1.43-0.97,2.64-2.12,3.48-3.6
		c1.28-2.26,2.46-4.57,3.78-7.04c0.18-0.15,0.6-0.39,0.85-0.75c0.43-0.62,0.87-1.28,1.11-1.99c0.99-2.88,1.92-5.79,2.86-8.69
		c0.37-1.16,0.74-2.3,0.98-3.52c0.69-3.57,1.62-7.09,2.48-10.73c-1.4-2.06-0.39-4.44-0.78-6.72c-0.33-0.98-0.66-1.99-1-3
		c-0.26-0.77-0.75-1.31-1.74-1.73c-0.82-0.05-1.89-0.15-2.95-0.15c-1.99,0-3.98,0.08-5.98,0.11c-2.15,0.03-4.33-0.19-6.43,0.12
		c-2.01,0.29-3.91-0.29-5.89-0.14c-2.75,0.21-5.54,0.31-8.25-0.31c-2.86-0.66-5.82-0.18-8.67-0.83c-0.29-0.07-0.61-0.01-0.99-0.01
		c-0.96,0.19-2.01,0.4-2.93,0.58c-2.83-1.01-5.57-0.38-8.31-0.37c-2.59,0.01-5.18-0.24-7.78-0.22c-2.75,0.02-5.49,0.22-8.38,0.35
		c-0.65,0.49-1.38,1.05-2.15,1.63c-0.42,1.29-0.84,2.6-1.29,3.99c0,1.77,0,3.61,0,5.63c1.15,2.34,0.84,5.23,1.92,7.79
		c0.27,0.65-0.22,1.67,0.12,2.23c0.95,1.54,0.49,3.31,1.11,4.9c0.61,1.56,0.91,3.23,1.37,4.85c0.16,0.57,0.38,1.12,0.53,1.55
		c0.85,0.39,1.51,0.69,1.94,0.88c0.37,1.39,0.7,2.56,0.99,3.75c0.14,0.58,0.18,1.18,0.27,1.77
		C248.57,189.2,248.6,189.86,249.37,189.98z M157.21,196.34c0.37,1.01,1.05,1.62,2.15,1.71c1.29-0.31,2.44,0.16,3.49,0.79
		c2.26,1.35,4.75,2.14,7.22,2.95c2.31,0.76,4.71,1.24,7.24,1.88c1.15-0.49,2.4-1.02,3.63-1.54c0.62,0.13,1.21,0.25,1.74,0.37
		c0.48-0.23,0.89-0.44,1.36-0.67c1.16,0.11,2.37,0.22,3.51,0.33c1.81-0.68,3.53-1.33,5.19-1.95c3.67-2.49,6.47-5.63,8.41-9.57
		c1.08-2.18,2.18-4.41,3.63-6.34c1.15-1.54,1.83-3.12,2.21-4.94c0.37-1.79,0.66-3.62,1.2-5.34c0.48-1.53,0.53-2.98,0.43-4.41
		c0.35-0.79,0.66-1.48,1.01-2.25c0-1.78,0.01-3.62,0-5.45c-0.02-3.07-0.06-6.13-0.1-9.2c0-0.3-0.14-0.59-0.26-1.09
		c-0.57-0.84-1.25-1.84-1.78-2.62c-1.27-0.64-2.32-0.69-3.41-0.6c-1.98,0.15-3.98,0.4-5.95,0.3c-2.13-0.1-4.25-0.11-6.37-0.19
		c-4.27-0.15-8.52-0.9-12.82-0.79c-0.6,0.02-1.21-0.2-1.82-0.25s-1.24-0.15-1.82-0.03c-1.56,0.33-3.05,0.01-4.55-0.27
		c-0.45-0.08-0.9-0.14-1.27-0.2c-1.13,0.27-2.17,0.52-3.26,0.79c-1.18-0.23-2.37-0.46-3.47-0.68c-0.85,0.13-1.6,0.27-2.36,0.36
		c-3.36,0.38-6.73,0.29-10.1,0.38c-1.52,0.04-3.03,0.26-4.86,0.43c-0.97-0.59-2.37-0.4-3.74-0.43c-1.38-0.02-2.76-0.09-4.14-0.08
		c-1.53,0.01-3.06,0.1-4.59,0.15c-1.23,0.99-2.65,0.04-3.97,0.4c-1.31,0.35-2.68,0.46-4.05,0.67c-0.38,0.59-0.75,1.07-1.01,1.61
		c-0.33,0.68-0.56,1.4-0.77,1.93c0.63,2.77,1.57,5.18,2.85,7.45c0.38,0.67,0.69,1.33,0.92,2.07c0.5,1.6,1.08,3.19,1.82,4.69
		c1.02,2.05,2.02,4.17,3.42,5.95c1.6,2.04,2.95,4.22,4.39,6.35c0.16,0.24,0.46,0.38,0.71,0.58c0.66,0.35,1.55,0.09,2.1,0.77
		c0.97,0.64,0.26,1.76,0.7,2.49c3.39,3.62,7.91,5.81,11.19,9.43c0.61,0.22,1.31,0.29,1.72,0.67
		C154.29,194.2,155.88,195.11,157.21,196.34z"/>
	<path class="st2" d="M61.33,214.94c-0.33-1.68,0.3-2.62,1.71-3.46c3.88-0.09,8.01-0.2,12.14-0.27c1.89-0.03,5.97-0.76,8.01-1.51
		c0.29-0.11,0.6-0.12,0.89-0.21c0.29-0.09,0.56-0.22,0.96-0.38c-0.16-0.37-0.23-0.83-0.49-1.1c-1.61-1.63-3.5-3-4.59-5
		c-0.3-1.3,0.23-2.23,1.15-2.87c0.87-0.61,1.87-1.02,2.87-1.55c2.12,0.43,4.18,0.59,6.36,0.13c2.06-0.44,4.26-0.24,6.4-0.25
		c7.37-0.03,14.73-0.02,22.1-0.02c0.3,0,0.6,0.08,0.93,0.13c1.12,0.6,1.9,1.46,2,2.99c-0.32,0.37-0.66,0.9-1.12,1.27
		c-0.85,0.69-4.9,2.55-6.13,2.95c-0.73,0.24-1.42,0.56-2.14,0.82c-1.58,0.56-3.17,1.14-4.77,1.65c-1.44,0.46-2.91,0.86-4.43,1.3
		c-0.17,0.4-0.34,0.8-0.58,1.36c1.65,3.03,3.32,6.11,5.03,9.25c-0.14,1.04-0.28,2.08-0.44,3.26c-0.63,0.2-1.18,0.53-1.74,0.54
		c-1.52,0.02-3.03-0.01-4.55-0.45c-3.08-0.89-6.33-1.06-9.35-2.22c-0.42-0.16-0.91-0.26-1.36-0.21c-3.55,0.34-7-0.83-10.53-0.74
		c-0.31,0.01-0.64,0.04-0.92-0.06c-3.04-1.07-6.35-0.92-9.38-2.1c-1.69-0.65-3.52-0.94-5.3-1.34
		C62.96,216.59,62.12,215.98,61.33,214.94z"/>
	<path class="st1" d="M106.3,144.63c0.07,1.07,0.15,2.14,0.21,3.21c0.07,1.22-0.04,2.48,0.23,3.66c0.25,1.08,0.3,2.09-0.01,3.18
		c0.41,1.32,1.33,2.34,2.23,3.3c0.32,0.18,0.57,0.4,0.86,0.47c2.62,0.65,4.79,1.88,6.18,4.33c0.69,1.21,1.75,2.11,3.17,3.02
		c0.72,1.41,1.53,3.05,2.4,4.66s1.58,3.31,2.83,4.72c0.81,0.91,0.55,2.31,1.53,3.27c0.84,0.82,1.26,2.07,1.87,3.12
		c0.61,1.06,1.23,2.12,1.82,3.19c0.3,0.54,0.45,1.18,0.83,1.64c2.53,3.07,4.69,6.49,7.9,8.92c1.46,1.1,2.87,2.2,4.09,3.56
		c0.4,0.45,0.91,0.88,1.45,1.11c2.29,1,3.96,2.83,6.13,4.43c0.5,0.12,1.24,0.3,1.97,0.47c0.13,0.08,0.31,0.12,0.39,0.24
		c1.77,2.33,4.45,3.14,6.95,4.27c1.11,0.5,2.15,1.18,3.19,1.77c1.1,0.14,2.16,0.28,3.31,0.43c0.73,0.43,1.52,0.9,2.35,1.4
		c0.41,0.04,0.87,0.1,1.32,0.13c0.91,0.06,1.96-0.16,2.7,0.22c1.69,0.87,3.62,0.62,5.3,1.41c0.52,0.24,1.23,0.29,1.81,0.18
		c1.38-0.27,2.72-0.13,4.09,0.06c0.59,0.08,1.24,0,1.81-0.17c2.9-0.91,5.93-1.48,8.62-3.03c0.93-0.53,1.95-0.92,3.06-0.52
		c0,0.3,0,0.59,0,0.98c-0.31,1-1.53,0.75-2.18,1.38c-0.66,0.64-1.35,1.24-2.15,1.97c-0.77,0.15-1.66,0.33-2.21,0.43
		c-2.83,1.56-5.36,2.96-7.71,4.26c-2.36,0.08-4.48,0.15-6.94,0.23c-0.68,0.24-1.68,0.59-2.75,0.97c-2.9-0.77-5.74-1.84-9.44-2.26
		c-0.76-0.36-2.15-1-3.52-1.67c-4.12-2.01-8.21-4.03-11.89-6.82c-0.84-0.64-1.87-1.03-2.53-1.38c-1.45-1.38-2.67-2.54-3.74-3.56
		c-1.08-0.33-1.95-0.6-2.69-0.83c-3.11-2.69-6.11-5.27-9.63-8.31c-1.14-1.7-3.21-3.55-4.63-5.93c-0.7-1.17-1.73-2.12-2.02-3.54
		c-0.09-0.41-0.5-0.75-0.73-1.14c-1.05-1.83-2.65-3.33-3.05-5.56c-0.12-0.67-0.88-1.22-1.34-1.82c-0.2-0.9-0.31-1.82-0.64-2.66
		c-0.33-0.85-0.89-1.6-1.29-2.3c-0.13-0.88-0.24-1.63-0.36-2.42c-0.43-0.42-1.01-0.76-1.28-1.27c-1.06-1.99-2.76-3.2-4.67-4.24
		c-1.76-0.95-3.44-2.02-4.85-4.1c-0.48-1.13-1.13-2.68-1.82-4.3c-0.05-1.45-0.34-3.02-0.11-4.5c0.25-1.62-1.13-2.88-0.65-4.46
		c0.6-0.84,1.53-1.37,1.97-2.4C104.44,145.19,105.3,144.7,106.3,144.63z"/>
	<path class="st2" d="M326.36,213.76c1.56,0.07,2.05-0.79,2.49-1.55c0.53-0.91,0.84-1.95,1.33-2.89s1.09-1.81,1.66-2.73
		c0.27-0.03,0.56-0.06,0.85-0.09c0.82,1.09,1.61,2.22,2.5,3.26c0.38,0.45,0.99,0.7,1.52,1.05c1.7,2.74,2.47,5.91,3.75,8.84
		c1.21,2.77,1.72,5.88,3.15,8.57c1.52,2.87,1.56,6.26,3.41,8.78c0,1.29,0,2.36,0,3.43c0,1.05,0,2.1,0,3.15
		c-1.26,0.4-1.26,0.4-2.2-1.94c-2.28-2.45-4.58-4.88-6.34-7.78c-1.07-1.74-2.82-2.78-4.82-3.53c-0.66-1.14-1.34-2.33-2-3.48
		c-0.34-0.08-0.63-0.14-0.92-0.2c-0.27,0.13-0.63,0.2-0.8,0.41c-0.66,0.84-1.29,1.7-1.86,2.6c-0.4,0.64-0.6,1.41-1.02,2.03
		c-0.59,0.88-1.3,1.68-1.97,2.53c-0.51,0-0.96,0-1.57,0c-0.34-0.36-0.98-0.74-1.11-1.25c-0.56-2.27-1.94-4.1-3.15-6
		c-0.83-1.3-1.62-2.53-2.06-4.06c-0.46-1.62-1.65-2.91-2.85-4.1c-0.54-0.54-1.14-1.03-1.28-1.87c0.7-1.11,1.42-2.24,2.4-3.77
		c0.34-0.25,1.07-0.79,1.91-1.41c0.2-0.97,0.42-2.01,0.67-3.23c0.47-0.38,1.05-0.85,1.66-1.34c0.83,0.19,1.56,0.36,2.12,0.48
		C324,209.33,324.97,211.64,326.36,213.76z"/>
	<path class="st2" d="M119.3,247.13c0.09-0.45,0.17-0.9,0.25-1.34c0.47-0.4,0.94-0.79,1.39-1.17c0.19-0.6,0.38-1.18,0.56-1.77
		c1.27-1.69,3.02-3,4.16-4.78c-0.24-0.3-0.4-0.69-0.59-0.7c-1.53-0.11-3.06-0.1-4.59-0.22s-3.07-0.3-4.29-1.4
		c-0.42-1.31-0.42-1.31-0.22-2.65c1.53-1.44,3.13-2.83,5.01-3.92c1.32-0.76,2.46-1.82,3.72-2.7c1.13-0.79,2.35-1.45,3.44-2.29
		c3.62-2.8,7.93-4.65,11.06-8.14c0.91-1.01,2.06-1.83,3.2-2.59c0.59-0.39,1.41-0.44,1.96-0.6c0.91,0.49,1.53,0.91,1.61,1.94
		c-0.12,0.3-0.22,0.77-0.47,1.12c-2.33,3.24-4.93,6.19-8.24,8.53c-1.47,1.04-2.55,2.61-3.78,3.91c0.1,0.36,0.09,0.7,0.26,0.87
		c0.2,0.19,0.56,0.3,0.84,0.28c0.61-0.06,1.23-0.4,1.8-0.31c2.72,0.46,5.5,0.15,8.46,0.75c0.27,0.27,0.69,0.69,1.02,1.02
		c0.02,0.47,0.12,0.79,0.04,1.08c-0.34,1.33-0.73,2.64-1.02,3.67c-1.2,1.85-2.79,2.83-4.3,3.87c-3.28,2.26-6.78,4.19-10.01,6.54
		c-1.35,0.99-2.93,1.67-4.4,2.49c-0.4,0.22-0.89,0.37-1.17,0.7c-1.64,1.95-4,2.76-6.1,3.99c-1.98,1.16-3.93,2.29-5.93,3.02
		c-1.48-0.08-1.99-0.99-2.39-2.09c0.18-1.26,1.21-2.04,1.86-3.03c1.09-1.08,2.7-1.39,3.64-2.77c0.7-1.03,1.98-1.4,3.27-1.39
		c0.05,0.12,0.08,0.25,0.16,0.34c0.04,0.05,0.16,0.04,0.25,0.05C119.62,247.35,119.46,247.24,119.3,247.13z"/>
	<path class="st2" d="M239.92,212.32c0.09,0.69,0.14,1.14,0.22,1.77c-0.49,0.64-1.05,1.35-1.59,2.07c-0.36,0.48-0.81,0.94-1.02,1.48
		c-0.95,2.45-2.34,4.59-4.23,6.42c-0.21,0.2-0.28,0.53-0.42,0.8c0.1,0.26,0.19,0.52,0.32,0.87c1.41,0.26,3.07-0.4,4.28,0.82
		c1.98-0.49,3.89-0.8,5.9,0.16c0.16,0.55,0.32,1.12,0.48,1.67c-0.41,0.91-0.78,1.74-1.21,2.71c-3.53,2.73-6.41,6.41-10.48,8.58
		c-0.57,0.82-1.06,1.59-1.62,2.31c-0.47,0.6-0.9,1.36-1.53,1.69c-2.24,1.14-3.54,3.33-5.52,4.75c-0.37,0.26-0.63,0.74-1.02,0.91
		c-3.26,1.4-5.57,4.23-8.59,5.73c-1.58,0.18-1.92-0.86-2.41-1.98c0.28-0.67,0.43-1.47,0.88-2.03c1.89-2.38,3-5.34,5.2-7.16
		c1.11-1.94,2.17-3.63,3.06-5.41c0.81-1.62,2.71-2.55,2.86-4.57c-1.29-1.72-3.35-1.12-4.98-1.65c-1.46-1.29-1.46-1.29-1.27-3.7
		c2.7-2.29,5.7-4.46,8.2-7.09c2.75-2.89,5.97-5.23,8.65-8.17c0.51-0.56,1.16-1,1.79-1.43C236.96,211.12,238.01,211.23,239.92,212.32
		z"/>
	<path class="st1" d="M164.44,132.74c0.23-0.55,0.35-1.19,0.71-1.64c0.57-0.71,1.31-1.29,1.97-1.93c2.19-2.12,4.26-4.31,5.93-6.89
		c0.98-1.51,2.21-2.85,3.6-4.07c1.36-1.2,2.86-2.34,3.65-4.08c0.12-0.27,0.37-0.49,0.6-0.68c1.85-1.59,3.44-3.45,5.17-5.15
		c1.74-1.72,3.5-3.42,5.27-5.11c0.44-0.42,0.97-0.75,1.42-1.15c1.49-1.31,2.98-2.63,4.46-3.97c1.24-1.13,2.32-2.43,3.84-3.26
		c0.48-0.26,0.77-0.89,1.06-1.26c0.57-0.16,1.01-0.28,1.36-0.38c2.08-1.71,4.08-3.36,5.83-4.8c1.63-0.57,2.93-1.03,4.15-1.46
		c1.61,0,3.15,0,4.63,0c1.43,0.78,2.89,1.08,4.47,1.02c1.68-0.06,3.36,0.08,5.04,0.13c-0.35,0.66-0.71,1.32-1.07,2.01
		c-1.93,0.72-3.79,1.41-5.95,2.21c-2.59,0.08-5.5,0.17-8.71,0.27c-1.53,0.78-3.3,1.68-5.02,2.55c-1.74,2.63-3.86,4.85-6.19,6.81
		c-1.45,1.22-2.55,2.62-3.5,4.11c-1.22,1.03-2.42,1.98-3.54,3.02c-2.25,2.09-4.66,4.05-6.61,6.38c-1.97,2.35-4.48,4.2-6.15,6.81
		c-0.32,0.5-0.83,0.96-1.37,1.21c-1.16,0.54-1.91,1.48-2.78,2.35c-0.96,0.95-2.14,1.69-3.52,2.74c-0.43,1.64-1.2,3.46-3.75,4.39
		C168.09,133.13,166.26,133.19,164.44,132.74z"/>
	<path class="st1" d="M334.2,165.32c-1.26-0.87-1.07-2.06-0.79-3.21c1.2-1.49,2.35-2.92,3.51-4.34c1.06-1.31,2.13-2.61,3.31-4.05
		c0.59-2.7,2.53-4.96,3.85-7.52c1.25-2.43,3.31-4.39,4.29-6.95c1.35-1.29,2.97-2.3,3.54-4.18c1.43-1.59,2.87-3.18,4.29-4.77
		c1.73-1.94,3.49-3.85,4.86-6.08c0.48-0.78,1.09-1.51,1.76-2.12c2.47-2.27,4.61-4.9,7.41-6.82c0.49-0.34,0.87-0.85,1.27-1.31
		s0.7-1.02,1.15-1.43c0.67-0.6,1.57-1,2.11-1.69c0.53-0.68,0.71-1.63,1.13-2.41c0.1-0.19,0.53-0.2,0.81-0.3
		c1.44,0.52,1.46,2.32,2.48,2.9c1.49,1.01,2.84,1.56,4.44,1.73c1.62,0.18,3.19,0.85,4.78,1.32c0.13,0.04,0.21,0.21,0.32,0.32
		c-0.51,1.13-1.73,1.15-2.88,1.84c-1.56,0.08-3.4,0.16-5,0.24c-1.36-0.48-2.49-0.88-3.66-1.29c-1.15,1.21-2.13,2.38-3.26,3.39
		c-1.02,0.91-2.29,1.55-3.27,2.5c-2.08,2.02-4.3,3.91-5.94,6.38c-1.1,1.65-2.38,3.25-3.85,4.56c-2.21,1.96-3.79,4.41-5.62,6.65
		c-1.24,1.52-2.2,3.29-3.41,4.87c-1.11,1.44-1.91,3.08-3.14,4.49c-1.09,1.24-1.99,2.68-3.03,3.99c-1.81,2.27-3.42,4.72-5.02,7.15
		c-1.44,2.18-3.16,4.08-5.14,5.86C335.1,165.14,334.65,165.23,334.2,165.32z"/>
	<path class="st1" d="M196.85,211.29c0.37-1.14,0.37-1.14,1.92-1.12C198.46,211.11,197.93,211.68,196.85,211.29z"/>
	<path class="st1" d="M227.44,72.91c0.41,0.18,0.96,0.24,1.21,0.55c0.76,0.95,1.41,1.98,2.05,2.91c0,1.38,0,2.6,0,3.94
		c-0.27,0.44-0.58,0.95-0.81,1.32c-2.7,1.74-5.81,1.26-8.28,2.3c-3.1-0.53-5.96-1.01-8.85-1.51c-2.26,0.81-4.86,1.07-6.6,2.94
		c-1.56,1.68-3.79,2.63-4.76,4.68c-1.09,0.57-2.04,1.06-3.19,1.65c-1.47,1.7-3.54,3.07-5.09,4.99c-0.37,0.46-0.98,0.71-1.47,1.07
		c-2.23,1.61-4.44,3.23-6.21,5.39c-0.96,1.17-2.28,2-3.4,3.03c-3.06,2.81-5.67,6-8.2,9.26c-1.13,1.45-2.79,2.34-3.71,3.97
		c-0.92,1.61-2.33,2.82-3.6,4.14c-1.27,1.31-2.25,2.91-3.54,4.2c-2.47,2.47-5.05,4.83-7.69,7.15c-0.29-0.43-0.57-0.65-0.57-0.87
		c0.01-0.74,0.26-1.42,0.04-2.23c-0.6-2.25-0.49-4.49,0.23-6.76c0.78-2.46,1.29-5.01,1.89-7.53c0.11-0.44,0.13-0.91,0.15-1.36
		c0.08-1.98,0.21-3.95,0.67-5.89c0.45-1.92,0.78-3.88,1.16-5.81c1.23-0.26,2.23-0.95,3.24-1.66c1.99-1.41,4.05-2.73,6.05-4.13
		c0.62-0.43,1.14-0.98,1.69-1.46c0.77-0.18,1.51-0.36,2.09-0.49c0.67-0.68,1.14-1.31,1.76-1.74c1.37-0.97,2.82-1.84,4.23-2.75
		c0.88-1.63,2.74-1.86,4.09-2.83c1.49-1.07,2.97-2.15,4.51-3.14c1.4-0.91,3.05-1.53,4.26-2.63c1.43-1.31,3.31-1.53,4.85-2.54
		c1.65-1.09,3.49-1.9,5.2-2.92c1.31-0.78,2.85-1.13,4.09-1.93c2.95-1.9,6.09-3.42,8.99-4.91c2.23,0,4.21,0,6.06,0
		c0.6,0.47,1.08,0.85,1.7,1.34C223.49,72.72,225.47,72.81,227.44,72.91z"/>
	<path class="st1" d="M391.26,106.47c-0.45,0.79-0.89,1.58-1.35,2.39c-2.06,0.53-4.04,0.17-5.96-0.29c-1-0.24-1.99-0.74-2.72-1.63
		c-0.57-0.7-1.3-1.27-1.86-1.8c-2.98-0.29-5.12,1.41-6.86,2.05c-2.5,1.46-3.47,3.47-5.24,4.76c-1.82,1.32-3.1,3.33-4.84,4.83
		c-1.61,1.39-2.55,3.49-4.72,4.45c-0.21,0.5-0.44,1.05-0.85,2.01c-1.3,1.34-3.11,2.83-4.42,4.68c-1.33,1.86-2.7,3.69-4.04,5.55
		c-1.34,1.86-2.83,3.61-4.22,5.37c-0.07,0.52-0.13,0.97-0.21,1.57c-2.69,1.59-3.82,4.49-5.12,7.19c-0.74,1.55-1.62,2.88-2.83,4.04
		c-0.07,0.07-0.26,0.01-0.38,0.01c-0.07-0.14-0.23-0.32-0.19-0.4c1.75-3.27,1.83-7.06,3.24-10.43c-0.12-1.68,1.09-2.81,1.78-4.15
		c0.08-0.92,0.16-1.83,0.25-2.84c0.39-0.74,0.83-1.54,1.42-2.65c0.3-2.74,1.11-5.68,2.31-8.52c2.27-2.03,4.42-4.2,6.48-6.45
		c1.85-2.02,4.22-3.5,5.83-5.78c0.25-0.35,0.78-0.48,1.12-0.78c0.56-0.51,1.13-1.03,1.58-1.63c1.27-1.72,2.48-3.48,3.23-4.55
		c1.48-1.14,2.29-1.83,3.16-2.41c0.84-0.56,1.97-0.47,2.64-1.58c0.51-0.85,1.65-1.31,2.51-1.95s1.74-1.25,2.57-1.94
		c0.82-0.68,1.58-1.44,2.25-2.05c1.19-0.4,2.19-0.73,3.2-1.07c1.16,0.54,2.32,0.84,3.38,1.54c1.55,1.04,3.31,1.57,5.22,1.01
		l-0.05-0.05c-0.17,1.39-0.17,1.39,1.05,1.87l-0.08-0.1c-0.02,0.15-0.08,0.31-0.05,0.44c0.63,2.42,1.18,4.87,2.21,7.17
		C390.99,105.01,391.07,105.76,391.26,106.47z"/>
	<path class="st1" d="M118.06,136.08c-0.21,0.19-0.42,0.39-0.63,0.58c-0.91,0.28-1.71,0.14-2.38-0.58c0.11-1.08,0.8-1.48,1.75-1.54
		C117.7,134.7,118.08,135.23,118.06,136.08z"/>
	<path class="st1" d="M167.92,139.59c-1.09,0.94-2.05,0.95-3.15,0.02C165.81,139.18,166.87,139.14,167.92,139.59z"/>
	<path class="st1" d="M193.54,137.66c0.09,0.11,0.27,0.25,0.25,0.32c-0.16,0.43-0.37,0.43-0.51-0.01
		C193.26,137.9,193.45,137.77,193.54,137.66z"/>
	<path class="st0" d="M157.21,196.34c-1.33-1.23-2.92-2.14-4.26-3.38c-0.41-0.38-1.12-0.45-1.72-0.67
		c-3.28-3.62-7.8-5.82-11.19-9.43c-0.43-0.74,0.27-1.85-0.7-2.49c-0.54-0.69-1.44-0.42-2.1-0.77c-0.25-0.2-0.55-0.34-0.71-0.58
		c-1.44-2.13-2.79-4.31-4.39-6.35c-1.4-1.78-2.4-3.91-3.42-5.95c-0.75-1.49-1.32-3.09-1.82-4.69c-0.23-0.74-0.54-1.4-0.92-2.07
		c-1.28-2.27-2.22-4.68-2.85-7.45c0.21-0.53,0.44-1.25,0.77-1.93c0.26-0.54,0.63-1.02,1.01-1.61c1.37-0.22,2.75-0.32,4.05-0.67
		c1.32-0.35,2.74,0.59,3.97-0.4c1.53-0.05,3.06-0.14,4.59-0.15c1.38-0.01,2.76,0.05,4.14,0.08c1.38,0.02,2.78-0.16,3.74,0.43
		c1.84-0.17,3.35-0.39,4.86-0.43c3.37-0.09,6.74,0,10.1-0.38c0.76-0.08,1.5-0.23,2.36-0.36c1.1,0.21,2.29,0.45,3.47,0.68
		c1.1-0.26,2.13-0.51,3.26-0.79c0.37,0.06,0.82,0.11,1.27,0.2c1.51,0.28,3,0.6,4.55,0.27c0.58-0.12,1.22-0.03,1.82,0.03
		c0.61,0.05,1.22,0.27,1.82,0.25c4.3-0.12,8.55,0.64,12.82,0.79c2.12,0.08,4.24,0.08,6.37,0.19c1.97,0.1,3.97-0.15,5.95-0.3
		c1.09-0.08,2.14-0.03,3.41,0.6c0.53,0.78,1.21,1.79,1.78,2.62c0.12,0.5,0.26,0.8,0.26,1.09c0.05,3.07,0.08,6.13,0.1,9.2
		c0.01,1.83,0,3.67,0,5.45c-0.35,0.77-0.66,1.46-1.01,2.25c0.1,1.43,0.05,2.88-0.43,4.41c-0.54,1.71-0.82,3.55-1.2,5.34
		c-0.38,1.82-1.06,3.4-2.21,4.94c-1.45,1.94-2.55,4.16-3.63,6.34c-1.94,3.94-4.74,7.08-8.41,9.57c-1.66,0.62-3.38,1.27-5.19,1.95
		c-1.14-0.11-2.35-0.22-3.51-0.33c-0.47,0.23-0.89,0.43-1.36,0.67c-0.53-0.11-1.12-0.24-1.74-0.37c-1.23,0.52-2.48,1.06-3.63,1.54
		c-2.53-0.64-4.93-1.12-7.24-1.88c-2.47-0.81-4.96-1.59-7.22-2.95c-1.06-0.63-2.2-1.1-3.49-0.79
		C159.04,196.98,158.48,196.22,157.21,196.34z M136.16,170.67c0,0.55,0,1.1,0,1.62c0.95,0.79,1.82,1.5,2.69,2.22
		c0.65,0.8,1.35,1.58,1.94,2.42c0.6,0.85,1.09,1.77,1.6,2.6c0.75,0.37,1.42,0.69,2.14,1.05c0.58,0.62,1.22,1.25,1.79,1.94
		c0.55,0.67,1.02,1.4,1.4,1.93c0.56,0.15,0.84,0.23,1.13,0.31c1.45,2.05,3.46,3.54,5.11,5.15c0.95,0.11,1.68,0.2,2.41,0.29
		c0.92,0.33,1.57,1.02,2.29,1.63c0.6,1.19,1.74,1.09,2.8,1.18l0.28-0.24l-0.26,0.27c0.14,0.42,0.28,0.84,0.37,1.13
		c1.46,0.84,2.78,1.59,4.05,2.32c0.84,0.04,1.62,0,2.37,0.15c0.74,0.15,1.44,0.5,2.16,0.76c0.71,0.26,1.42,0.53,2.13,0.8
		c1.87-0.05,3.49,1.07,5.24,1.18c2.37-0.3,4.5-1.41,6.86-1.21c1.55-0.58,3.32-0.58,4.65-1.75c1.41-0.26,1.41-0.26,1.51-1.41
		l0.31-0.29c1.4,0.18,2.36-0.67,3.15-1.58c0.99-1.15,1.84-2.43,2.61-3.74c0.92-1.58,1.66-3.26,2.95-4.63
		c0.4-0.43,0.57-1.07,0.87-1.6c0.81-1.46,1.64-2.91,2.64-4.69c-0.3-2.09,1.42-4.29,0.92-6.8c0.52-2.55,1.02-5.08,0.9-7.72
		c-0.11-2.44-0.02-4.89-0.02-6.96c0.24-1.1,0.88-1.71,0.46-2.96c-0.16-0.26-0.56-0.89-0.91-1.43c-2.31-0.65-4.44-0.31-6.55-0.03
		c-0.92,0.12-1.76,0.28-2.68-0.07c-0.55-0.21-1.19-0.19-1.8-0.19c-2.9-0.03-5.81-0.09-8.71-0.03c-3.06,0.06-6.1,0.01-9.08-0.82
		c-0.43-0.12-0.91-0.02-1.37-0.02c-2.91-0.01-5.81-0.02-8.72-0.02c-0.46,0-0.96-0.06-1.36,0.1c-2.11,0.82-4.18,0.59-6.28-0.03
		c-0.57-0.17-1.21-0.1-2.11-0.17c-0.95,0.76-2.29,0.98-3.69,0.92c-1.22-0.05-2.44-0.04-3.66-0.07c-2.59-0.06-5.18-0.19-7.76-0.15
		c-1.23,0.02-2.38-0.05-3.6-0.33c-1.75-0.4-3.62-0.71-5.4,0.1c-0.88,0.4-1.78,0.28-2.7,0.3c-0.4,0.01-0.79,0.33-1.1,0.47
		c-0.3,0.83,0.04,1.27,0.61,1.62c0.06,0.74,0.01,1.52,0.19,2.23c0.26,1.02,0.62,2.02,1.06,2.97c0.37,0.81,0.91,1.55,1.31,2.2
		c0.1,0.9,0.19,1.64,0.23,2.03C132.94,166.32,134.36,168.63,136.16,170.67z"/>
	<path class="st0" d="M248.38,188.66c-0.09-0.59-0.13-1.19-0.27-1.77c-0.28-1.19-0.62-2.36-0.99-3.75c-0.43-0.2-1.09-0.5-1.94-0.88
		c-0.15-0.43-0.37-0.98-0.53-1.55c-0.46-1.62-0.76-3.29-1.37-4.85c-0.62-1.59-0.16-3.36-1.11-4.9c-0.34-0.55,0.15-1.58-0.12-2.23
		c-1.08-2.56-0.77-5.45-1.92-7.79c0-2.02,0-3.86,0-5.63c0.45-1.39,0.87-2.7,1.29-3.99c0.77-0.59,1.5-1.14,2.15-1.63
		c2.89-0.13,5.64-0.33,8.38-0.35c2.59-0.02,5.18,0.23,7.78,0.22c2.73-0.01,5.48-0.64,8.31,0.37c0.92-0.18,1.97-0.39,2.93-0.58
		c0.38,0,0.7-0.06,0.99,0.01c2.85,0.65,5.8,0.17,8.67,0.83c2.71,0.62,5.5,0.53,8.25,0.31c1.98-0.15,3.88,0.43,5.89,0.14
		c2.11-0.31,4.29-0.09,6.43-0.12c1.99-0.03,3.98-0.1,5.98-0.11c1.07,0,2.13,0.11,2.95,0.15c0.99,0.41,1.49,0.96,1.74,1.73
		c0.34,1.01,0.67,2.02,1,3c0.39,2.27-0.62,4.66,0.78,6.72c-0.86,3.64-1.79,7.16-2.48,10.73c-0.24,1.22-0.6,2.36-0.98,3.52
		c-0.94,2.9-1.86,5.81-2.86,8.69c-0.24,0.71-0.68,1.37-1.11,1.99c-0.25,0.36-0.68,0.6-0.85,0.75c-1.32,2.47-2.51,4.79-3.78,7.04
		c-0.84,1.48-2.05,2.63-3.48,3.6c-2.92,1.98-5.96,3.72-9.27,5.41c-2.55,0.2-5.36-0.21-7.93,1.11c-0.73-0.35-1.41-0.67-2.28-1.08
		c-0.39,0.23-0.89,0.51-1.41,0.82c-2.73,0.31-5.46,0.37-7.82-1.05c-1.05,0.1-1.94,0.19-2.88,0.28c-1.31-1.18-2.56-2.29-3.8-3.4
		c-0.45-0.07-0.89-0.14-1.43-0.22c-1.4-0.45-2.01-2.28-3.71-2.4c-1.13-1.19-2.55-2.21-3.33-3.59c-1.18-2.08-2.86-3.36-4.93-4.31
		l0.06,0.09C249.27,189.37,248.87,188.98,248.38,188.66z M256.68,190.04l-0.09-0.08c0.12,0.39,0.24,0.78,0.36,1.17
		c1.5,1.62,3.01,3.24,5.16,5.56c-0.19-0.14-1.08,0.88-0.04,1.19c0.56-0.21,1.11-0.42,1.67-0.64c0.69,0.27,1.36,0.54,2.04,0.81
		c1.8,0.78,3.61,1.56,5.06,2.2c7.46,0.25,12.11-0.13,17.52-1.39c2.02-1.26,4.16-2.44,5.72-4.38c1.94,0.11,1.94,0.11,2.61-1.6
		l0.25-0.24c0.27-0.13,0.62-0.18,0.79-0.39c1.07-1.3,2.1-2.63,3.15-3.97c0.35-0.97,0.39-2.07,1.21-2.9c0.87-0.89,1.34-2,1.53-3.27
		c0.34-2.31,1.52-4.27,2.79-6.1c0.03-1.92-0.04-3.76,0.85-5.46c0.2-0.38,0.15-0.9,0.19-1.35c0.21-2.43,0.84-4.78,1.41-7.14
		c0.18-0.75,0.35-1.47,0.31-2.24c-0.05-1.06-0.01-2.13-0.01-3.06c-0.37-1-0.7-1.86-1.77-2.44c-3.03-0.44-6.16,0.59-9.37,0.63
		c-0.55-0.19-1.12-0.38-1.62-0.55c-4.34,0.71-8.58,0.74-12.77-0.14c-0.77,0.18-1.51,0.36-2.26,0.54c-1.31-0.52-2.63-0.73-4.04-0.67
		c-2.6,0.11-5.21,0.04-7.81,0.06c-1.41,0.02-2.71-0.36-3.83-0.9c-3.97-0.06-7.78-0.18-11.59-0.15c-2.89,0.02-5.79,0.22-8.68,0.35
		c-0.13,0.01-0.25,0.17-0.5,0.36c0,0.95,0,2.01,0,3.06c-0.83,2.09-0.49,4.04,0.7,5.88c0.41,2.59,0.82,5.17,1.23,7.76
		c-0.45,1.36,0.84,2.52,0.4,3.94c-0.13,0.43,0.48,1.06,0.69,1.62c0.63,1.7,1.24,3.42,1.92,5.31c0.92,1.52,1.97,3.21,2.98,4.91
		c0.48,0.82,1.16,1.39,1.98,1.84l-0.07-0.08c0.09,0.56,0.32,0.99,0.98,1.02l-0.07-0.08C255.7,189.68,256.02,190.03,256.68,190.04z"
		/>
	<path class="st1" d="M179.99,156.9c-2.94-0.15-5.86-0.58-8.82-0.06c-1.44,0.25-2.96,0.11-4.44,0.15c-0.15-0.04-0.29-0.08-0.44-0.12
		c-3.91-1.15-3.91-1.15-7.98,0.01c-1.15-0.12-2.36-0.07-3.45-0.41c-1.44-0.46-2.87-0.39-4.32-0.42c-0.24-0.35-0.49-0.7-0.8-1.14
		c-1.53,0.13-3.02,0.26-4.52,0.39c-1-0.36-2-0.71-2.67-0.95c-2.71-0.48-5.22,0.31-7.47-0.93c-2.1,0.56-4.22,0.75-6.35,0.75
		c-0.57-0.35-0.9-0.79-0.61-1.62c0.31-0.14,0.7-0.46,1.1-0.47c0.91-0.01,1.82,0.1,2.7-0.3c1.78-0.81,3.65-0.5,5.4-0.1
		c1.22,0.28,2.37,0.35,3.6,0.33c2.59-0.04,5.17,0.09,7.76,0.15c1.22,0.03,2.44,0.02,3.66,0.07c1.4,0.05,2.74-0.16,3.69-0.92
		c0.9,0.06,1.54,0,2.11,0.17c2.1,0.63,4.17,0.86,6.28,0.03c0.41-0.16,0.91-0.1,1.36-0.1c2.91,0,5.81,0.01,8.72,0.02
		c0.46,0,0.95-0.1,1.37,0.02c2.98,0.83,6.02,0.87,9.08,0.82c2.9-0.05,5.81,0,8.71,0.03c0.6,0.01,1.25-0.01,1.8,0.19
		c0.92,0.35,1.75,0.19,2.68,0.07c2.11-0.28,4.24-0.62,6.55,0.03c0.34,0.54,0.74,1.17,0.91,1.43c0.42,1.25-0.22,1.86-0.46,2.96
		c0,2.07-0.09,4.52,0.02,6.96c0.12,2.64-0.38,5.17-0.9,7.72c0.5,2.51-1.22,4.71-0.92,6.8c-1,1.78-1.83,3.23-2.64,4.69
		c-0.3,0.53-0.47,1.17-0.87,1.6c-1.28,1.36-2.02,3.04-2.95,4.63c-0.76,1.31-1.62,2.59-2.61,3.74c-0.78,0.91-1.75,1.75-3.15,1.58
		c0.08-1.07,0.17-2.11,0.73-3.09c1.29-2.25,2.51-4.54,3.62-6.56c1-2.39,1.39-4.63,1.54-6.93c0.43-0.14,0.86-0.29,1.4-0.47
		c0.11-1.35,0.21-2.7,0.31-3.85c0.54-0.84,0.95-1.48,1.47-2.29c0.04-3.51,0.09-7.17,0.14-10.83c0.05-0.6,0.11-1.2,0.14-1.79
		c0.05-1.28-0.29-2.37-1.66-3c-0.35,0.05-0.79,0.12-1.23,0.19c-1.8-0.09-3.61-0.39-5.39,0.14c-1.66-0.39-3.32-0.21-4.98-0.02
		c-1.88-0.07-3.76-0.15-5.35-0.21C181.03,156.39,180.51,156.65,179.99,156.9z"/>
	<path class="st2" d="M179.99,156.9c0.52-0.25,1.04-0.51,1.88-0.91c1.58,0.06,3.46,0.13,5.35,0.21c0.25,0.72,0.54,1.41,1.14,1.94
		c1.76,1.55,2.88,3.53,3.76,5.84c0.04,0.61-0.08,1.44,0.19,2.11c0.58,1.43,0.92,2.87,0.94,4.42c0,0.44,0.18,0.9,0.37,1.31
		c0.48,1.01,0.46,2.08,0.42,3.14c-0.05,1.37-0.14,2.73-0.2,3.75c-0.86,2.16-1.6,4-2.44,6.11c-2.04,2.85-4.42,5.8-7.04,8.41
		c-0.58,0.15-1.02,0.26-1.48,0.38c-0.91,0.75-1.82,1.55-2.78,2.27c-1.39,1.05-2.93,1.61-4.71,1.34c-0.76-0.11-1.52-0.13-2.23,0.29
		c-0.19,0.22-0.38,0.45-0.58,0.68c-0.71-0.27-1.42-0.53-2.13-0.8c-0.72-0.26-1.42-0.61-2.16-0.76s-1.52-0.11-2.37-0.15
		c-1.27-0.73-2.59-1.48-4.05-2.32c-0.09-0.28-0.23-0.7-0.37-1.13c0.76-0.08,1.52-0.23,2.27-0.22c1.84,0.04,3.67,0.15,5.66,0.24
		c0.73,0.22,1.6,0.48,2.56,0.77c0.98-0.36,1.98-0.74,2.95-1.1c0.63,0,1.24,0,1.8,0c1.94-0.98,3.83-1.94,5.6-2.83
		c0.6-0.92,1.02-1.76,1.61-2.44c0.6-0.68,1.37-1.21,2.24-1.96c0.58-1.86,1.1-3.99,3.15-5.08c0.05-1.45,0.03-2.67,0.16-3.88
		c0.14-1.4,0.07-2.75-0.46-4.06c-0.17-0.42-0.36-0.89-0.32-1.32c0.15-1.73-0.22-3.32-0.95-4.89c-0.31-0.66-0.24-1.5-0.33-2.21
		c-0.83-1.35-1.63-2.65-2.3-3.73C183.27,159.1,181.63,158,179.99,156.9z"/>
	<path class="st2" d="M148.85,184.77c0.04-1.78-1.23-3.1-1.78-5.26c0-0.67-0.02-1.9,0.01-3.12c0.03-1.07-0.18-2.28,0.25-3.16
		c0.58-1.18,0.51-2.38,0.77-3.58c1.61-2.57,3.23-5.16,4.79-7.63c1.87-1.76,3.65-3.45,5.42-5.13c4.07-1.17,4.07-1.17,7.98-0.01
		c0.15,0.04,0.29,0.08,0.44,0.12c-1.02,0.65-1.97,1.45-3.07,1.93c-1.81,0.8-3.53,1.71-4.52,2.5c-1.45,1.67-2.4,2.85-3.43,3.96
		c-1.7,1.83-2.85,3.94-3.28,6.39c-0.26,1.49-0.91,2.89-0.82,4.46c0.08,1.37,0.07,2.71,0.59,4.03c0.33,0.83,0.37,1.77,0.58,2.92
		c0.67,1.08,1.53,2.33,2.26,3.66c0.58,1.05,1.32,2.07,1.32,3.36c-0.73-0.09-1.46-0.17-2.41-0.29
		C152.32,188.3,150.31,186.82,148.85,184.77z"/>
	<path class="st2" d="M136.16,170.67c1.03-1.81,1.29-3.93,2.23-5.77c0.95-1.86,2.05-3.64,3.05-5.48c0.28-0.51,0.42-1.11,0.53-1.43
		c1.01-1.26,2.72-1.25,3.24-2.69c1.5-0.13,2.99-0.26,4.52-0.39c0.31,0.44,0.55,0.79,0.8,1.14c-0.27,0.37-0.49,0.81-0.83,1.09
		c-2.26,1.84-3.93,4.23-5.91,6.19c-1.29,3.5-3.58,6.56-3.16,9.97c-0.56,1.1-1.2,1.1-1.78,1.22c-0.87-0.72-1.74-1.44-2.69-2.22
		C136.16,171.77,136.16,171.22,136.16,170.67z"/>
	<path class="st2" d="M158.66,191.83c0.74-0.25,1.46-0.08,2.1,0.22c0.31,0.15,0.47,0.63,0.7,0.96
		C160.4,192.93,159.26,193.03,158.66,191.83z"/>
	<path class="st1" d="M189.31,196.41c0.06-0.94,0.68-1.28,1.51-1.41C190.72,196.15,190.72,196.15,189.31,196.41z"/>
	<path class="st2" d="M265.78,198.05c-0.68-0.27-1.35-0.54-2.04-0.81c-0.57,0.21-1.11,0.42-1.67,0.64
		c-1.04-0.32-0.15-1.33,0.04-1.19c-2.15-2.31-3.65-3.94-5.16-5.56c0.58-0.87,0.56-0.93-0.36-1.17l0.09,0.08
		c-0.03-0.65-0.21-1.13-1.01-1l0.07,0.08c0.01-1.01,0.01-1.01-0.98-1.02l0.07,0.08c0.5-2.72-1.17-4.95-1.77-8.16
		c0-0.5-0.03-1.72,0.01-2.94c0.04-1.06-0.08-2.22,0.32-3.15c0.5-1.17,0.37-2.4,0.73-3.52c0.91-1.44,1.77-2.87,2.68-4.26
		c0.92-1.41,1.88-2.79,2.37-3.52c2.12-2.01,3.67-3.48,5.22-4.95c1.83,0,3.66-0.01,5.49,0c0.8,0,1.48,0.31,2.01,0.91
		c-0.23,0.2-0.43,0.52-0.69,0.59c-2.42,0.67-4.37,2.14-6.43,3.62c-0.74,0.86-1.49,1.84-2.35,2.7c-2.36,2.35-3.6,5.18-4.33,8.42
		c-1.01,4.43-0.36,8.47,1.98,12.3c0.88,1.43,1.74,2.87,2.53,4.19c1.7,1.05,3.25,2.01,4.68,2.9c3.59,0.81,7.08,1.09,10.58,1.31
		c1.07-0.58,2.1-1.28,3.24-1.7c1.07-0.4,1.29-1.6,2.38-2.03c1.05-0.42,2.11-1,2.86-2.1c0.64-0.94,1.8-1.52,2.59-2.15
		c0.12-0.78,0.21-1.37,0.31-2.01c2.56-2.18,5.57-4.02,5.82-7.82c0.88-2.03-0.64-3.85-0.43-5.85c0.22-2.22-1.29-4.06-1.26-5.98
		c-0.94-1.53-1.73-2.84-2.41-3.94c-1.43-1.03-3.11-1.21-4.04-2.57c1.11-0.42,2.25-0.69,3.46-0.64c1.18,0.04,2.36-0.02,3.54-0.03
		c0.15,0.43,0.18,0.99,0.47,1.27c1.72,1.62,2.74,3.67,3.7,5.73c0.21,1.38-0.05,2.79,0.7,4.07c0.29,0.49,0.31,1.18,0.32,1.79
		c0.04,2,0.05,3.99-0.01,5.99c-0.02,0.75-0.25,1.5-0.44,2.23c-0.22,0.88-0.51,1.74-0.69,2.35c-2.07,2.77-3.99,5.35-6.04,8.08
		c-1.39,0.65-2.67,1.71-3.54,3.22c-2.95,2.44-5.99,4.75-10.03,6c-0.92,0-2.14-0.01-3.37,0c-4.18,0.06-4.18,0.06-8.18-1.19
		C266.51,197.54,266.15,197.79,265.78,198.05z"/>
	<path class="st1" d="M293.93,157.78c-1.18,0.01-2.36,0.08-3.54,0.03c-1.21-0.05-2.35,0.22-3.46,0.64
		c-4.18-0.13-8.31-0.87-12.64-0.78c-0.7,0.27-1.54,0.59-2.37,0.91c-0.54-0.6-1.21-0.91-2.01-0.91c-1.83-0.01-3.66,0-5.49,0
		c-2.88-0.05-5.76-0.09-8.63-0.14c-0.22-0.19-0.43-0.38-0.78-0.68c-0.6,0.21-1.27,0.52-1.98,0.65c-0.73,0.13-1.49,0.04-2.24,0.1
		s-1.49,0.17-2.23,0.26c-1.1-0.7-2.3-1.04-3.61-0.97c0-1.05,0-2.1,0-3.06c0.25-0.19,0.37-0.35,0.5-0.36
		c2.89-0.13,5.79-0.33,8.68-0.35c3.81-0.02,7.63,0.09,11.59,0.15c1.12,0.54,2.42,0.91,3.83,0.9c2.6-0.03,5.21,0.05,7.81-0.06
		c1.41-0.06,2.73,0.15,4.04,0.67c0.75-0.18,1.49-0.35,2.26-0.54c4.19,0.87,8.43,0.84,12.77,0.14c0.49,0.17,1.07,0.36,1.62,0.55
		c3.21-0.04,6.34-1.07,9.37-0.63c1.07,0.58,1.4,1.44,1.77,2.44c0,0.93-0.04,2,0.01,3.06c0.04,0.78-0.13,1.49-0.31,2.24
		c-0.58,2.35-1.21,4.71-1.41,7.14c-0.04,0.46,0.01,0.97-0.19,1.35c-0.89,1.71-0.82,3.55-0.85,5.46c-1.27,1.83-2.46,3.79-2.79,6.1
		c-0.19,1.27-0.66,2.38-1.53,3.27c-0.82,0.84-0.86,1.93-1.21,2.9c-1.05,1.34-2.08,2.67-3.15,3.97c-0.17,0.21-0.52,0.26-0.79,0.39
		c0.26-1.08-0.56-1.59-1.32-2.33c0.66-1.1,0.8-2.46,1.69-3.56c0.96-1.19,1.37-2.66,1.87-4.1c1.11-3.13,1.96-6.32,2.93-9.48
		c0.4-1.32,0.59-2.65,0.9-3.97c0.16-0.24,0.44-0.46,0.47-0.71c0.11-0.9,0.14-1.81,0.19-2.63c0.58-0.99,1.1-1.9,1.61-2.77
		c-0.06-1.45-0.12-2.8-0.18-4.07c-0.45-0.4-0.78-0.7-1.18-1.07c-1.31-0.07-2.67-0.15-4.02-0.22l0.05,0.04
		c-0.1-0.41-0.15-0.84-0.3-1.24c-0.17-0.43-0.86-0.48-1.04-0.07c-0.16,0.37-0.18,0.81-0.26,1.22c-0.89-0.01-1.79-0.04-2.68-0.03
		C295.1,157.66,294.51,157.73,293.93,157.78z"/>
	<path class="st2" d="M255.77,157.55c-0.45,0.61-0.85,1.27-1.37,1.82c-1.56,1.68-3.17,3.31-4.56,4.75c-0.6,1.42-0.94,2.62-1.58,3.64
		c-0.58,0.9-0.39,2.14-1.39,2.8c-0.41-2.59-0.82-5.17-1.23-7.76c0.9-0.6,1.43-1.49,1.85-2.46c0.35-0.82,0.71-1.64,1.06-2.46
		c0.74-0.09,1.48-0.21,2.23-0.26c0.74-0.06,1.51,0.03,2.24-0.1c0.7-0.12,1.37-0.44,1.98-0.65
		C255.34,157.17,255.55,157.36,255.77,157.55z"/>
	<path class="st1" d="M294.1,194.47c0.48-1.92,0.61-2.01,2.61-1.6C296.03,194.58,296.03,194.58,294.1,194.47z"/>
	<path class="st2" d="M170.03,189.71c-1.28-0.26-2.47-0.5-3.86-0.78c-0.61-0.38-1.35-0.92-2.16-1.32c-0.67-0.33-1.43-0.47-1.97-0.64
		c-1.73-1.65-2.98-3.41-3.55-5.5c-0.59-2.19-0.89-4.46-1.28-6.46c0.78-3.43,3.68-5.56,4.01-8.86c1.13-0.72,2.15-1.37,3.15-2
		c0.66-0.05,1.26-0.1,2.06-0.16c2.63-2.14,5.78-2.95,9.54-2.24c1.45,0.9,3.13,1.94,4.5,2.8c0.94,0.86,0.61,1.97,1.57,2.55
		c0.73,0.44,1.17,1.35,1.64,1.94c0.29,1.68,0.55,3.18,0.85,4.92c-0.61,2.44-1.21,5.09-2.95,7.59c-1.13,0.88-2.38,1.99-3.59,3.14
		C175.7,186.88,173.18,188.92,170.03,189.71z M176.35,166.45c-2.62-1-5.04-0.75-7.39,0.02c-2.06,0.68-3.47,2.39-5.3,3.46
		c-0.66,1.25-1.29,2.45-1.77,3.37c0,1.41-0.12,2.5,0.02,3.55c0.58,4.37,0.18,4.13,3.48,6.98c0.23,0.2,0.51,0.33,0.82,0.53
		c2.18,0.34,4.33,1.32,6.81,0.78c0.69-0.37,1.49-0.81,1.76-0.96c2.99-2.91,4.86-5.81,5.42-9.6c0.03-1.52,0.16-3.2-0.44-5.07
		C178.67,168.54,177.43,167.43,176.35,166.45z"/>
	<path class="st2" d="M197.01,178.12c0.74-3.26,1.22-6.48,0.07-9.79c-0.43-1.24-0.26-2.69-0.38-4.26c-0.35-1.58-1.84-2.87-2.12-4.75
		c-0.09-0.62-0.86-1.2-1.42-1.66c-0.49-0.41-0.85-0.83-0.98-1.45c1.78-0.53,3.59-0.22,5.39-0.14c0.41,0.81,0.84,1.6,1.21,2.42
		c0.38,0.83,0.72,1.67,1.54,2.19c-0.05,3.66-0.09,7.33-0.14,10.83c-0.52,0.81-0.93,1.44-1.47,2.29c-0.09,1.14-0.2,2.5-0.31,3.85
		C197.87,177.84,197.44,177.98,197.01,178.12z"/>
	<path class="st2" d="M303.03,169.2c-0.08-1.2-0.17-2.39-0.27-3.84c-0.8-1.83-1.68-3.88-2.62-5.91c-0.27-0.58-0.35-1.13-0.22-1.73
		c1.36,0.07,2.71,0.15,4.02,0.22c0.41,0.37,0.73,0.66,1.18,1.07c0.06,1.27,0.12,2.62,0.18,4.07c-0.51,0.87-1.04,1.78-1.61,2.77
		c-0.05,0.82-0.08,1.73-0.19,2.63C303.47,168.74,303.19,168.96,303.03,169.2z"/>
	<path class="st2" d="M299.97,157.77c-0.53-0.03-1.07-0.06-1.6-0.08c0.08-0.41,0.1-0.85,0.26-1.22c0.18-0.41,0.87-0.36,1.04,0.07
		C299.82,156.92,299.88,157.35,299.97,157.77z"/>
	<path class="st2" d="M283.04,188.77c-2.8,0.75-5.15,1.39-7.45,2.01c-2.76-0.58-5.09-2.12-7.86-3.11c-0.67-0.78-1.47-1.7-2.43-2.82
		c-0.86-2.99-2.09-6.12-2.11-9.46c1.12-2.96,3.5-5.18,4.01-8.31c0.83-0.53,1.57-1.07,2.37-1.51c1.45-0.8,3.36-0.48,4.57-1.88
		c1.46-0.46,2.92-0.91,4.43-1.38c0.9,0.07,1.81,0.13,2.59,0.19c2.29,0.54,3.85,2.11,5.78,3.13c0.85,1.38,1.72,2.8,2.55,4.14
		c1.36,3.51,1.44,6.94-0.13,11.04c-0.03,0.03-0.7,0.56-0.94,1.24C287.39,184.93,284.98,186.62,283.04,188.77z M274.58,167.26
		c-1.8,1.36-3.61,2.73-5.25,3.96c-0.57,1.21-1.02,2.17-1.44,3.08c-0.41,2.86,0.48,5.48,1.02,8.24c0.99,0.91,1.99,1.83,2.97,2.73
		c2.35,0.23,4.52,1.16,7.07,0.74c0.63-0.27,1.47-0.63,2.07-0.88c1.5-1.89,2.82-3.55,4-5.05c0.71-3.33,2.08-6.37,0.47-9.87
		c-0.9-0.82-2.02-1.84-2.99-2.72C279.76,166.35,277.2,166.97,274.58,167.26z"/>
	<path class="st2" d="M171.99,171.47c0.48,0.42,0.93,0.81,1.33,1.17c0.33,1.59,0.78,3.05,0.3,4.66c-0.89,1.36-2.15,1.97-4.05,1.56
		c-1.16-0.95-2.34-2.1-3.24-3.42c0.18-2.05,0.19-2.04,1.25-3.58C168.96,171.74,170.45,171.61,171.99,171.47z"/>
	<path class="st2" d="M272.39,176.5c-0.2-1.53-0.05-2.7,1.23-3.74c1.29-0.1,2.8-0.23,4.33-0.35c0.52,0.39,0.99,0.75,1.46,1.1
		c0.23,1.59,0.57,3.08,0.22,4.6c-0.86,1.57-2.14,2.12-4.01,1.71C274.29,178.98,273.33,177.61,272.39,176.5z"/>
</g>
</svg>
