<svg version="1.1" id="Layer_1" xmlns="http://www.w3.org/2000/svg" x="0" y="0" viewBox="0 0 458 320" style="enable-background:new 0 0 458 320" xml:space="preserve"><style>.st0{fill:#6b59e9}.st1{fill:#131112}.st2{fill:#ff5543}</style><path class="st0" d="M338.23 261.9c-2.45-.82-4.91-1.63-7.69-2.56-.05-.07-.33-.42-.78-.99-.57-.24-1.54-.41-2.18-.97-2.29-2-4.61-4-6.61-6.27-1.18-1.34-1.81-3.17-2.64-4.71-.1-2.28-.19-4.41-.26-6.15.53-1.55.85-2.73 1.34-3.83.43-.96 1.05-1.84 1.61-2.8-.4-.35-.7-.85-1.08-.91-2.28-.38-3.85-1.78-5.28-3.44-.2-.23-.41-.46-.61-.69-1.76-3.08-2.81-6.43-3.91-9.77-.42-2.64.35-5.18.85-7.7.31-1.6 1.41-3.03 2.09-4.57.24-.54.34-1.15.47-1.73.03-.13-.09-.29-.15-.46-.98-.95-2.31-.5-3.46-.79-1.03-.26-2.04-.63-3.12-.98-.74-1.08-1.52-2.22-2.33-3.41V196c.31-.85.79-2.14 1.25-3.4 1.17-1.62 2.67-2.93 3.67-4.72.95-1.7 2.55-2.98 3.67-4.65 1.08-1.62 2.71-2.89 4.18-4.24 1.24-1.13 2.58-2.15 4.05-3.36.93-1.3 1.99-2.79 3.06-4.28 2.75-1.94 5.29-4.08 7.32-7.03.36-.15.92-.38 1.59-.66 1.02-2.05 3.29-2.93 4.91-4.52 1.62-1.59 3.6-2.81 5.6-4.32h2.32c2.18.75 3.13 2.75 4.75 3.51.58 1 .9 1.93 1.52 2.56 2.79 2.83 5.29 5.91 8.1 8.72 2.15 2.15 4.45 4.17 6.16 6.78 1.08 1.64 2.65 2.95 4.02 4.43.15.59.3 1.18.47 1.82.16.17.32.46.57.59 2.3 1.2 3.37 3.51 4.84 5.43.73.96 1.12 2.17 1.75 3.21.39.65.93 1.2 1.58 2.01.28 1.56.42 3.37.25 5.1-1.08 3.25-3.22 5.29-6.48 6.45-.7-.2-1.55-.52-2.44-.67-.34-.06-.74.24-1.18.41l1.37 2.8c1.24 1.26 2.67 2.63 3.63 4.43.57 1.07 1.21 2.05 1.61 3.24.63 1.86 1.69 3.57 2.46 5.14v2.95c-.6 2.03-1.95 3.54-2.97 5.24-4.93 3.04-7.02 3.83-12.22 4.66.28 1.45.28 1.45 4.58 6.02 1.54 2.46 2.52 5.27 4.58 7.4.57 1.56 1.64 2.93 1.69 4.71.03.89.33 1.78.51 2.68-1.4 4.37-4.81 6.53-9.78 8.19-1.66.09-4.26.23-7.14.39-.42.16-1.13.41-1.61.59-1.33-.22-2.22-.98-3.35-.87-.03-.15-.07-.3-.08-.45-.31-3.49-.16-7.03-1.11-10.47-.2-.72-.14-1.52-.11-2.28.06-1.88-.47-3.63-1.19-5.32-.54-1.26-1.22-2.45-1.81-3.63-1.55-.55-2.98-1.06-4.65-1.66-1.72.26-3.72-.28-5.52.25-2.54 1.87-1.93 4.06-1.13 5.98 0 1.85-.03 3.37.01 4.9.03 1.07-.02 2.17.25 3.19.73 2.89.63 5.76.19 8.65z"/><path class="st1" d="M287.53 204.67c.21-2.06-.26-3.88-1.76-5.42-.83-.86-1.49-1.88-2.39-3.05-1.1-.28-2.42-.6-3.73-.93-.12-.5-.47-.79-.95-.82-.75-.04-1.51-.01-2.12-.01-1.2-1.01-2.25-1.89-3.36-2.83h-4.26c-.89-.4-1.44-.65-2-.91-.5-.27-.3-1.25-1.19-1.16-.68.92-1.38 1.88-1.95 2.64-.55.18-.84.33-1.13.37-3.04.34-6.04.83-8.9 2.02-.83.34-1.78.4-2.67.58-.6.12-1.3.08-1.77.39-1.38.91-2.98.56-3.88.78-1.85.99-3.18 1.74-4.54 2.42-.98.49-1.86 1.06-2.29 2.13-.6-.13-1.19-.27-1.81-.41-1.69.12-3.37.37-4.79 1.36-1.2.84-2.58.9-3.94 1.17-2.69 1.43-5.13 3.27-7.6 5.08-1.47.26-2.75.05-3.51-1.57-.04-.35-.21-.83-.12-1.24.34-1.47.62-2.99 1.19-4.37.64-1.53 1.58-2.93 2.26-4.15.29-2.5.56-4.76.88-7.43-.22-1.37-.33-3.22-.83-4.96-.51-1.8.03-3.78-.72-5.4-.8-1.74-.53-3.62-1.24-5.3.06-.59.33-1.26.15-1.76-.53-1.45-.53-2.96-.78-4.44-.88-5.39-.9-10.82-1.07-16.36-.32-.89-.68-1.89-1.03-2.88 0-2.24.28-4.51-.7-6.66-.12-.26-.14-.59-.12-.89.14-2.61-.64-5.06-1.22-7.55-.41-1.77-.74-3.53-.53-5.36.1-.91.05-1.81-.36-2.65.19-.74.38-1.47.6-2.35-1.22-2.31-1.4-4.87-1.12-7.63-.99-1.83-1.19-3.95-1.03-6.09.1-1.39.19-2.76-.32-4.07-.69-1.76-.75-3.58-.59-5.42.25-2.8-.17-5.46-1.43-7.99.53-.79.72-1.7.64-2.6-.14-1.5-.44-2.98-.68-4.47-.12-.74-.45-1.5-.37-2.21.28-2.32-.41-4.49-.89-6.69.42-2.47-.28-4.87-.49-7.5.2-.85.45-1.89.73-3.06-.27-1.09-.57-2.27-.95-3.79.12-2.56-.06-5.45.73-8.32.32-1.16.02-2.45-1.37-3.43-1.72-.02-3.63-.38-5.64.03-1.3.27-2.73-.08-4.35-.16-.21.05-.65.18-1.1.27-2.1.38-4.22.7-6.3 1.14-1.93.41-3.71 1.41-5.75 1.45-.59.01-1.18.3-1.75.53-3.82 1.56-7.67 3.07-11.31 5.06-1.6.87-3.25 1.65-4.89 2.48.18 1.91 1.81 2.54 2.63 3.71 1.24.36 2.5.51 3.55 1.07 1.91 1.03 4.04 1.32 6.03 2.05 1.82.67 3.91.6 5.87.91.75.12 1.47.4 2.48.68 1.8-.61 3.93-.56 5.93-.47 1.61-.45 3.08-.86 4.81-1.34 1.95.62 4.32-.58 6.4.64.16.39.28.67.43 1.01-.27 1.48-.96 2.83-1.73 4.16-.61 1.06-1.15 2.13-1.44 3.36-.2.85-.79 1.63-1.3 2.38-1.12 1.67-2.02 3.42-2.32 5.45-.9 1.06-1.79 2.1-2.74 3.21-.09.54-.23 1.14-.27 1.74-.1 1.53-.24 3.03-.8 4.5-.43 1.13-.62 2.37-.79 3.58-.08.58.12 1.19.19 1.79-.07.9.08 1.9-.26 2.69-.75 1.74-.74 3.55-.92 5.36-.07.75.06 1.59-.23 2.25-.57 1.33-.47 2.68-.48 4.04-.04 4.56-.24 9.11-.09 13.67-.83.58-.97 1.47-1.09 2.65l1.13 5.56c-.96 3.04-1.15 6.18-1.01 9.37.06 1.51.01 2.96-.46 4.46-.53 1.71-.68 3.58.5 5.21-.3.85-.61 1.7-.89 2.5.19 2.34.37 4.59.58 7.21-.15.5-.4 1.37-.69 2.32.13.97.4 2.02.36 3.06-.04 1.03-.39 2.05-.63 3.23.83 2.31.13 4.63-.63 6.79.1 1.21.11 2.27.31 3.3.14.72.52 1.4.8 2.1-.44 1.81-.41 3.65-.37 5.49.03 1.84.03 3.68.06 5.51.01.61 0 1.23.1 1.83.42 2.57.87 5.13 1.3 7.57-.36 4.25-.79 8.38.46 12.44.28 4.21 1.77 8.01 4.46 11.94.72.54 1.81 1.58 3.26 2.2 1.41.61 2.44 1.8 3.42 3.07v4.49c-1.01 2.5-2.1 4.89-2.01 7.61-.9 1.61-1.97 3.14-2.64 4.82-.68 1.73-1.52 3.34-2.48 4.71-.64 1.73-1.13 3.35-1.83 4.87-.72 1.54-1 3.2-1.54 4.77-.54 1.57-1.57 2.97-2.28 4.49-1.09 2.34-1.93 4.8-3.25 7.05-1.01 1.72-1.46 3.67-1.48 5.76-.75.58-1.45 1.12-2.08 1.61-.63-.12-1.07-.21-1.71-.33-.49-.99-1.02-2.07-1.53-3.1 1.02-4.72 3.41-8.62 5.98-12.41.47-2.1.76-4.25 1.46-6.26.8-2.3 1.83-4.54 2.99-6.69 1.02-1.89 2-3.78 2.88-5.74.75-1.65 1.09-3.53 2.53-4.84.3-.28.35-.83.51-1.25.76-1.98 1.51-3.96 2.27-5.94-.12-.28-.18-.63-.39-.82-1.49-1.3-2.92-2.7-4.55-3.79-1.73-1.15-3.07-2.57-3.78-4.47-.44-1.19-1.26-2.07-1.81-2.81-.51-2.53-.95-4.78-1.4-7.02-.38-2.1-.33-4.23-.62-6.37-.26-1.93.13-3.94.24-6.18-.94-1.91-1.09-4.18-1.04-6.5.04-1.68.04-3.37-.09-5.05-.1-1.36-.42-2.7-.66-4.12.14-.69.29-1.43.48-2.39-.23-.7-.53-1.56-.82-2.42.65-.61 1.3-1.22 1.99-1.88-.54-1.71-1.08-3.43-1.72-5.48.18-1.64.4-3.59.62-5.61-.16-.82-.33-1.71-.53-2.72.71-1.47.94-3.08.83-4.79-.12-1.81-.02-3.64-.04-5.46-.04-2.73-.12-5.45-.18-8.18.37-2.1.59-4.22.28-6.35-.21-1.43.21-2.7.98-4.08 0-5.18.02-10.51-.02-15.83-.01-1.06-.22-2.11-.34-3.17.64-2.78.14-5.72 1.1-8.46.14-.41.06-.9.07-1.35.04-1.8.02-3.61.14-5.41.11-1.78.36-3.56.55-5.33.22-.73.57-1.44.62-2.18.1-1.53.03-3.06.03-4.8.32-.82.7-1.82 1.15-2.97.08-1.51-.04-3.21.74-4.8.25-.51.2-1.19.22-1.79.09-2.31.45-4.56 1.21-6.73v-4.43c-.43-.71-.96-1.06-1.59-1.06-4.32.06-8.52-.79-13.04-1.46-3.8-2.12-8.47-2.65-12.54-4.65-.83-1.38-1.62-2.69-2.56-4.25-.27-1.68-.59-3.63-.93-5.68.53-.44.95-.86 1.44-1.18 1.41-.9 2.98-1.6 4.24-2.68 1.33-1.14 2.87-1.75 4.42-2.39 1.55-.65 3.15-1.19 4.74-1.76 2.01-.72 4.03-1.43 6.06-2.13 1.86-.65 3.6-1.71 5.48-1.28.29-.68.41-.95.53-1.22-.61-1.55-1.63-2.95-1.81-4.83.87-1.94 2.31-3.02 4.43-2.89 2.46 1.8 1.86 4.95 3.64 6.89.29-.03.57-.07 1-.11.22-1.91.63-3.83.68-5.82.03-1.08.55-2.09 1.78-2.46 1.14-.02 2.05.41 2.83 1.74.09 1.66.2 3.62.31 5.49.38.25.65.59.87.56 3.06-.43 6.01 1.01 8.87.66 1.76-1.06 3.33-2 5.37-3.22 2.67-3.79 7.12-5.74 12.11-7.3.91.46 1.98 1 2.98 1.51.71 1.83-.26 3.48-.01 5.13-.95 3.69-1.3 7.55-3.22 11.24-1.61 1.49-3.4 3.16-5.18 4.81-1.42.68-2.81 1.33-4.31 2.04h-3.75c-.69.63-.78 1.25-.74 1.85.21 2.89-.08 5.8.68 8.67.34 1.29.06 2.74.06 4.12-.25.35-.49.7-.76 1.09.37 1.05.71 2.05 1.06 3.04-.24.91-.48 1.78-.7 2.63 1.26 2.18.71 4.51.77 6.74.31 1.05.71 2.05.9 3.09.19 1.04.18 2.11.24 2.93.39.42.59.64.8.86.01 3.68.34 7.34.86 10.96.44 3.05.74 6.08.46 9.15.7 2.36 1.7 4.66 1.01 6.94.55 1.41 1 2.55 1.44 3.69-.09 1.04-.18 2.08-.28 3.12-.25 2.7-.23 5.37.6 8.01.3.97.17 2.08.25 3.12.05.74.12 1.47.16 2.05.39.34.61.53.83.72v4.13c.25.71.67 1.87 1.12 3.14-.07.49-.34 1.15-.2 1.69.56 2.1.25 4.24.44 6.35.18 1.98.01 4.04.46 5.95.75 3.24.86 6.66 2.47 9.69-.4.68-.71 1.47-.39 2.17.91 2.02.85 4.15.82 6.27-.02 1.39.16 2.71.57 4.03.4 1.3.92 2.63.95 3.95.07 2.4.67 4.82-.13 7.24-.23.69.11 1.49.58 2.12 1.18.17 1.18.17 1.58-.74 2.1-.57 4.31-.77 6.31-1.7.38-.18.69-.5 1.03-.75 1.21-.65 2.8-.4 3.82-1.41 1.21-1.21 2.9-.88 4.22-1.58 1.45-.77 2.95-.68 4.47-.71.29-.01.58-.13.94-.21.55-.44 1.14-.92 1.78-1.43 4.72-.93 9.49-1.87 14.27-2.82 1.34.07 2.71.14 4.2.22 3.88 1.49 7.97 2.64 12.14 3.57.22.21.4.52.66.63 2.43.95 4.5 2.56 6.86 3.64.83.38 1.68.83 2.33 1.46 3.4 3.29 7.15 6.23 9.96 10.08.81 1.11 1.55 2.29 2.41 3.57.13.75.3 1.65.49 2.73.7.99 1.49 2.12 2.4 3.43.18.83.29 1.92.67 2.9.62 1.61.87 3.24.9 4.95.01.75.09 1.56.37 2.25.66 1.62.75 3.32.57 4.98-.2 1.87.11 3.66.46 5.71.53.85 1.15 1.91 1.85 2.91.61.87 1.32 1.68 2.04 2.58.1 1.04.15 2.11.32 3.17.14.9.41 1.79.61 2.67-.28 1.99-.56 3.95-.85 6.03-.53.64-1.12 1.34-1.82 2.19-.25.7-.56 1.56-.89 2.5-.88 1-2.18 1.51-3.3 2.23-.34-.02-.67.04-.94-.06-1.5-.52-2.66-1.47-3.55-2.79-1.98-2.92-3.89-5.87-4.8-9.58v-3.7c.72-1.09.95-2.59.95-4.23.46-.73.95-1.51 1.32-2.08 1.2-1.47 3.34-1.53 3.91-3.66-.14-.83-.36-1.87-.46-2.93-.09-.91 0-1.84-.04-2.76-.06-1.69-.29-3.34-.93-4.94-.61-1.55-1.2-3.11-1.2-4.87-.01-1.59-1.08-2.81-2.26-3.79-.18-.98-.34-1.87-.5-2.72-1.82-2.07-2.45-5-5.01-6.42-.27.09-.55.18-.91.29-.1.56-.2 1.15-.31 1.82.46.95.92 1.91 1.24 2.58.91 3.24.65 6.4 1.97 9.3v4.79c-.41 1.53-.76 2.84-1.19 4.47-1.1.85-2.42 1.87-4.06 3.15-.63.8-.72 2.2-1.08 3.53-.32 1.16-.94 2.25-1.42 3.36.04.61.08 1.22.13 1.85-.49.96-.92 1.95-1.49 2.85-.58.92-1.09 1.86-1.16 2.96-.11 1.64-1.76 2.54-1.98 4.09s-.66 2.99-1.42 4.34c-.53.93-1.09 1.85-1.68 2.82-.21.97-.44 2-.63 2.9.23.42.32.75.52.96 2.15 2.22 3.75 4.83 5.39 7.42.98 1.54 1.87 3.14 3 4.62 1.1 1.43 2.09 3 2.67 4.8.36 1.12 1.21 2.09 1.92 3.26.18 1.64.99 3.47-.64 5.32-2.21 1.23-4.69 2.33-7.56 2.23-1.71-1.2-3.07-2.53-4.11-4.33-2.06-3.57-4.37-7-6.57-10.48-.31.09-.73.1-.82.27-.41.81-.57 1.8-1.11 2.49-.99 1.27-1.28 2.74-1.57 4.13-.96 1.15-1.84 2.21-2.73 3.28-.27 2.36-1.44 4.34-2.46 6.29-.62.63-1.23 1.07-2.07 1.04-1.16-.89-1.18-.89-1.7-3.12.45-1.5.92-3.1 1.44-4.86.8-.46 1.69-.97 2.54-1.46-.28-.39-.54-.76-.89-1.26.15-.51.22-1.13.51-1.64 1.36-2.42 2.49-4.93 2.97-7.66 1.24-2.14 2.73-4.09 3.15-6.62.25-1.48 1.4-2.67 1.88-4.16.85-2.6 2.13-5.06 3.14-7.62.62-1.56 1.38-3.05 1.73-4.74.3-1.47 1.09-2.84 1.67-4.25.58-1.41 1.17-2.82 1.98-4.76.01-.18.05-.94.1-1.72.7-1.16 1.41-2.35 2.15-3.57.18-1.81.35-3.63.53-5.46.34-.28.77-.49 1-.84.97-1.46.75-3.24 1.24-4.81.8-2.53.89-5.08.84-7.67-.03-1.37-.05-2.75.07-4.11.14-1.58-.71-2.95-.83-4.46-.03-1.02.24-2.12-.41-3.08zM223.97 46.86c.79-2.39.07-4.78.1-7.24-1.61.37-3.07.7-4.25.98-1.06.97-1.94 1.78-2.83 2.59-.21.56-.43 1.13-.61 1.61-1.01.83-1.96 1.6-2.75 2.25-1.12 1.95-1.65 3.83-1.25 5.87.07.38.44.71.63 1 2.39-.03 4.26-.99 5.9-2.42 1.7-1.51 3.36-3.08 5.06-4.64zm69.89 174.84c-.06.52-.18 1.11-.19 1.7s.09 1.18.15 1.8c.37.23.71.44 1.02.63.31-.22.55-.39.95-.67 0-.91.02-1.94-.02-2.97-.01-.26-.24-.51-.36-.76-.25-.1-.51-.21-.76-.31-.24.17-.48.34-.79.58z"/><path class="st2" d="M108.37 268.41c-.15.43-.29.86-.42 1.22-.84.72-1.78.6-2.8.63-.42-.45-.9-.95-1.35-1.43-.99.13-1.14.95-1.44 1.64-.27.11-.59.37-.81.31-3.29-.87-6.68-.63-10.02-.86-.45-.03-.9-.06-1.26-.09-.5-.26-.9-.48-1.5-.79-2.49.35-4.9-.54-7.31-1.58-.64-.27-1.48-.08-2.25-.1-.52-.9-.97-1.69-1.39-2.42v-3.37c.26-.65.54-1.36.85-2.13v-4.06c.51-1.14 1.01-2.26 1.57-3.48.3-1.53.25-3.2.8-4.84.52-1.55.43-3.31.66-5.47.27-.84.77-2.13 1.11-3.46.57-2.21 1.31-4.39 1.18-6.75-.1-1.71.39-3.3 1.04-4.89.69-1.69 1.19-3.46 1.65-5.23.49-1.91.81-3.87 1.26-5.79.17-.74.48-1.44.75-2.15.28-.71.83-1.4.85-2.11.08-2.87 1.62-5.21 2.6-7.6-.15-.61-.26-1.05-.34-1.41.53-1.97 1.71-3.65 1.73-5.73.01-.56.43-1.12.67-1.68.3-.7.89-1.4.87-2.1-.06-2.6 1.53-4.62 2.28-6.92.52-1.58 1.48-3 1.59-4.74.03-.43.28-.87.5-1.27 1.03-1.89 1.51-3.99 2.2-6 .2-.57.25-1.24.58-1.71 1.08-1.51 1.69-3.26 2.55-4.87.73-1.35 1.65-2.59 1.55-4.23 1.32-3.41 2.47-6.9 4.3-10.08.36-.63 1.03-1.07 1.62-1.67 1.4.44 2.69.85 3.97 1.26 1.9 1.63 3.42 3.48 4.76 5.58 1.91 2.99 3.39 6.1 4.26 9.53.26 1.03.71 2 1.08 3 .52 1.43 1.14 2.83 1.24 4.4.02.36.49.7.76 1.05.31 1.83.51 3.74-.1 5.46-.64 1.79-.7 3.58-.8 5.4-.03.6-.12 1.23-.34 1.78-.4 1.03-.46 2.08-.46 3.16 0 5.36-.05 10.71.02 16.07.04 2.72-.34 5.51.81 8.14.17.39.03.91.07 1.36.06.76.02 1.55.23 2.27.84 2.77.79 5.76 2.19 8.39.27.51.23 1.19.31 1.79.34 2.58 1.02 5.05 2.33 7.33.61 1.05 1.09 2.17 1.45 2.91 1.66 1.89 3.07 3.49 4.48 5.09v2c1.53 3.35 2.75 6.46 2.91 10.07 1.78 3.19 2.24 6.76 1.58 10.53-.42 1.08-1.41 1.58-2.36 2.04-.96.46-1.99.76-2.98 1.12-.84.14-1.43-.51-2.76-.73-5.53.28-11.67-.6-17.87.52-.5-.14-1.08-.31-1.67-.47-.23-2.12-.47-4.24-.73-6.61.55-2.47.76-5.16.18-7.94-.44-2.07-.38-4.23.08-6.34 1.72-1.42 3.42-2.74 4.36-4.76.19-.4.53-.76.86-1.07 2.35-2.23 3.98-5.04 6.01-7.2.37-1.32.49-2.37.01-3.38-.63-.75-1.41-1.16-2.58-1.26-1.02.63-2.18 1.34-2.89 1.78-2.2 2.61-3.48 5.3-5.75 7.1-.42-.13-.71-.22-1.02-.32-.19-1.5-.59-3.02-.53-4.53.07-1.72-.42-3.33-.56-4.99-.18-2.14-.1-4.3-.23-6.44-.16-2.59.1-5.21-.71-7.75-.09-.28-.01-.61-.01-.95.76-1.28.23-2.63.06-4 .48-1.28.75-2.61.71-4.02-.09-2.76-.1-5.52-.13-8.28-.01-1.07.06-2.14-.41-3.16-.53-1.16-.44-2.41-.27-3.63.18-1.36.33-2.69.04-4.08-.25-1.19-.22-2.44.33-3.61.12-.26.07-.6.03-.16-.34-2.84-.59-4.97-.83-6.99-.66-1.11-1.16-2.27-2.7-2.2-.95 2.89-.02 5.97-1.38 8.25-.05 4.37-.11 8.36-.14 12.34-.03 3.99.01 7.98-.02 11.97-.03 3.98.2 7.96-.2 11.99-.52.07-.94.13-1.38.19-1.3-1.79-2.55-3.51-3.8-5.22-1.62-.01-3.2-.54-4.3 1-.42.91-.48 1.8-.02 3.11.87.95 2.17 2.08 3.09 3.46 2.25 3.38 5.05 6.15 8.54 8.35-.47 1.21-.91 2.34-1.28 3.27.35 3.54.67 6.88 1.03 10.52-.07.28-.23.87-.39 1.49.52 1.27 1.03 2.53 1.57 3.84-1.46 2.09-.34 4.52-1 6.94-3.49-1.28-5.52-3.83-6.87-6.66-.9-.58-1.54-.99-2.04-1.32-.5-.97-.92-1.78-1.18-2.27-1.44-.96-2.57-1.72-3.75-2.5-.88-.03-1.81-.19-2.85.59-.13.3-.36.84-.38.88.09 1.99 1.57 2.32 2.4 3.52.47 1.21 1.01 2.62 2.17 3.73 1.55 1.48 2.88 3.14 4.11 4.93 1.19 1.75 2.88 3.16 4.34 4.73.63.67 1.26 1.35 1.84 2.06.89 1.1 1.48 2.33 1.59 3.76z"/><path class="st0" d="M138.52 245.17c-1.41-1.6-2.82-3.2-4.48-5.09-.36-.73-.85-1.86-1.45-2.91-1.32-2.28-1.99-4.75-2.33-7.33-.08-.6-.04-1.28-.31-1.79-1.4-2.63-1.35-5.62-2.19-8.39-.22-.71-.18-1.51-.23-2.27-.03-.46.1-.97-.07-1.36-1.15-2.63-.78-5.41-.81-8.14-.07-5.36-.02-10.71-.02-16.07 0-1.07.06-2.13.46-3.16.22-.56.31-1.18.34-1.78.09-1.83.16-3.61.8-5.4.61-1.72.41-3.63.1-5.46.15-1.36-.06-2.78.71-4.03.98-4.78 2.29-9.46 4-14.04.16-.43.19-.9.28-1.36.48-.55 1.25-1.03 1.41-1.67.79-3.04 2.28-5.64 4.44-7.89.63-.66 1.16-1.42 1.66-2.04 3.48-2.04 7.2-1.6 10.96-1.61 1.64.61 3.32 1.42 5.08 1.25 2.24 1.24 3.48 3.09 4.59 5.34-.74.19-.27 1.89.68 1.95.28.3.69.58.89.97 1.54 3.15 3.59 6.05 4.22 9.63.17.99.98 1.88 1.69 3.16.45 1.2.07 2.94.81 4.55.62 1.35.81 2.94.99 4.44.2 1.67.17 3.37.97 4.84-.2.7-.36 1.28-.53 1.85.21.88.48 1.75.63 2.65.15.9 0 1.89.33 2.71.59 1.49.62 2.98.52 4.52-.11 1.71.1 3.36 1.06 4.96 0 2.85.02 5.76-.02 8.68-.01.77-.01 1.5.25 2.25.24.71.38 1.49.36 2.23-.01.58-.32 1.16-.48 1.69 1.31 3.38.53 6.7.01 9.92.19.68.36 1.26.42 1.45-.29 2.49-.54 4.61-.79 6.68.27.64.5 1.2.82 1.97-.18.69-.46 1.55-.62 2.43-.14.75-.05 1.54-.21 2.29-.31 1.48-.76 2.93-1.09 4.41-.67 3.02-1.71 5.86-3.92 8.46a10.474 10.474 0 0 1-5.58 2.36c-.63-1.6-.62-3.3-.68-4.98-.02-.61.19-1.28 0-1.83-.85-2.54-.65-5.16-.7-7.75-.03-1.55-.29-3.02-.73-4.36.15-.59.27-1.03.44-1.69-1.24-2.27-.6-4.93-.85-7.56-.32-.97-.66-1.98-.96-2.85-1.44-1.18-2.74-2.23-4.27-3.49-1.83 1.01-3.78-.57-5.7.18-.94.52-1.44 1.29-1.48 2.26-.11 2.45-.14 4.89-.22 7.34-.03.91.05 1.87-.22 2.71-.49 1.5-.53 3.01-.53 4.54 0 2.61.02 5.21-.02 7.82-.04 3.06-.14 6.12-.21 9.19-.15.01-.31.06-.45.03-1.31-.32-2.62-.65-3.97-1-1.14-1.61-1.98-3.45-3.8-4.41z"/><path class="st1" d="M193.76 286.58c-.64-.14-1.06-.22-1.59-.34.21-3.33 1.34-6.27 2.85-9.07.5-.39.98-.77 1.4-1.1.5-1.68.88-3.32 1.49-4.87.5-1.27 1.13-2.53 1.93-3.64 2.8-3.91 3.06-4.28 5.1-9.06.06-.14.05-.34.15-.43 2.22-2.18 2.76-5.43 4.9-7.67.58-.13 1.18-.26 1.78-.38.08-.11.26-.24.24-.33-.11-.72-.25-1.44-.44-2.48.55-.51 1.23-1.13 2.18-2 .36-2.73 1.84-5.37 3.81-7.79.96-.76 2.07-1.25 3.34-1.32 2.3-.13 4.58-.36 6.81-.98 1.79-.5 3.65.09 5.47-.48 1.59-.5 3.29-.75 4.96-.93 1.36-.15 2.75-.03 4.13.1 1.78-.3 3.47-1.21 5.37-.92 3.47-.61 6.94-1.17 10.39-1.86 2.13-.43 4.25-.53 6.23-.49 1.96 1 1.96.99 3.09 2.64.8 1.86-.32 3.35-.59 4.97s-1.26 2.76-1.99 3.94c-.1 1.21-.11 2.29-.3 3.34-.25 1.36-.28 2.69-.28 4.08 0 2.92-.85 5.75-1.78 8.51-.88 2.61-1.06 5.41-2.32 7.9-.19.38-.17.91-.14 1.36.08 1.27-.42 2.39-.8 3.56-.6 1.88-1.76 3.61-1.53 5.71-1 2.73-1.65 5.54-2.23 8.39-.33 1.61-1.31 3.08-1.87 4.34-.94 1-1.77 1.12-2.67.66-.65-.61-.73-1.37-.58-2.14.41-2.1.88-4.19 1.33-6.29.16-.75.39-1.48.54-2.23.29-1.5.18-3.03.76-4.51.56-1.4.88-2.91 1.19-4.4.37-1.79.61-3.61.99-5.98.24-.45.74-1.39 1.4-2.64.08-.74.18-1.8.28-2.76-2.05-3.76-4.55-7.01-7.53-9.66-.13-.97-.23-1.72-.33-2.49-.63-.4-1.27-.8-2-1.26-.31-.78-.65-1.63-1.01-2.54-.62-.59-1.32-1.18-1.92-1.87-.49-.56-.87-1.24-1.29-1.86-.7-.13-1.34-.45-1.88-.33-2.7.6-5.49.1-8.19.85-1.61.45-3.32.59-4.99.71-1.52.12-3.06.02-4.55.02-.87.51-1.66.97-2.42 1.42-.79 1.75-1.5 3.44-2.31 5.09-.73 1.48-.84 3.28-2.33 4 .28 2.04 1.74 2.9 2.53 4.18.65 2.71 1.95 5.16 3.37 7.51 1.35 2.25 2.4 4.61 3.46 6.99 1.75 3.92 3.62 7.78 5.54 11.62.61 1.21 1.53 2.26 2.41 3.53.01 2.34-1.51 3.36-3.51 3.81-2.26-.23-4.39-.45-6.69-.69-1.12-.57-1.75-1.86-2.74-2.83-.18-.57-.36-1.16-.53-1.72-.96-1.4-1.89-2.79-2.85-4.17-1.04-1.5-1.88-3.11-3.11-4.52-1.18-1.36-1.89-3.14-2.75-4.76s-1.65-3.28-2.84-4.6c-.43.02-.72.03-1.03.05-1.72 2.34-2.66 5.18-4.62 7.38-1.01 3.45-3.56 6.03-5.21 9.11-.92 1.66-2.13 3.05-3.68 4.62zM146.73 250.56c.07-3.06.16-6.12.21-9.19.04-2.61.01-5.21.02-7.82 0-1.53.04-3.04.53-4.54.28-.84.19-1.8.22-2.71.08-2.45.12-4.89.22-7.34.04-.97.54-1.74 1.48-2.26 1.92-.75 3.86.83 5.7-.18 1.54 1.25 2.83 2.31 4.27 3.49.29.87.63 1.89.96 2.85.25 2.62-.4 5.29.85 7.56-.17.65-.29 1.1-.44 1.69.43 1.33.7 2.81.73 4.36.05 2.59-.15 5.21.7 7.75.18.55-.02 1.21 0 1.83.05 1.68.04 3.37.68 4.98-.63 1.52-.1 3.06.12 4.52.31 1.97.51 3.93.56 5.92.04 1.52.32 3.02.5 4.58-.13.7-.28 1.45-.41 2.15.04.36.02.68.11.97 1.07 3.41 1.01 6.94 1.08 10.44.03 1.38.04 2.73.33 4.07.43 1.96.53 3.95.37 5.94-.12 1.52-.39 3.05-1.67 4.27-1.36.91-3.13.83-4.45 1.38-2.39-.18-4.52-.35-6.93-.53-.8-.75-1.79-1.67-2.74-2.56-.23-2.84-.37-5.58-.71-8.29-.14-1.08-.25-2.09-.02-3.16.12-.59.23-1.28.03-1.81-1.1-3.08-.48-6.38-1.33-9.29.24-.94.42-1.68.61-2.44-.3-.68-.91-1.4-.85-2.06.21-2.45-.8-4.79-.56-7.23.09-.91.04-1.83.02-2.74-.06-1.55-.13-3.08-.19-4.6zm11.75 39.3c.74.32 1.28.32 1.76-.21.49-1-.02-1.69-.8-2.24-.21-.15-.55-.11-.83-.16-.72.7-.89 1.48-.13 2.61zM108.37 268.41c-.11-1.43-.71-2.66-1.59-3.76-.58-.71-1.21-1.39-1.84-2.06-1.46-1.57-3.14-2.98-4.34-4.73-1.22-1.79-2.55-3.45-4.11-4.93-1.16-1.11-1.7-2.52-2.17-3.73-.82-1.2-2.31-1.52-2.4-3.52.02-.05.25-.58.38-.88 1.05-.78 1.97-.62 2.85-.59 1.17.78 2.3 1.54 3.75 2.5.25.49.67 1.3 1.18 2.27.5.33 1.14.74 2.04 1.32 1.34 2.84 3.38 5.38 6.87 6.66.66-2.42-.47-4.85 1-6.94-.53-1.31-1.05-2.57-1.57-3.84.16-.62.32-1.21.39-1.49-.36-3.64-.68-6.98-1.03-10.52.37-.94.81-2.06 1.28-3.27-3.5-2.21-6.3-4.97-8.54-8.35-.92-1.38-2.23-2.51-3.09-3.46-.47-1.31-.4-2.2.02-3.11 1.1-1.54 2.68-1.01 4.3-1 1.25 1.72 2.5 3.43 3.8 5.22.43-.06.85-.12 1.38-.19.4-4.03.17-8.01.2-11.99.03-3.99 0-7.98.02-11.97.03-3.99.09-7.97.14-12.34 1.36-2.29.43-5.37 1.38-8.25 1.54-.08 2.04 1.08 2.7 2.2.24 2.02.49 4.14.83 6.99.04-.44.09-.09-.03.16-.55 1.17-.58 2.43-.33 3.61.29 1.39.15 2.71-.04 4.08-.16 1.22-.26 2.47.27 3.63.47 1.03.4 2.09.41 3.16.03 2.76.04 5.52.13 8.28.05 1.41-.22 2.74-.71 4.02.17 1.37.7 2.72-.06 4 0 .35-.08.68.01.95.81 2.53.55 5.16.71 7.75.13 2.14.05 4.3.23 6.44.14 1.66.63 3.27.56 4.99-.06 1.51.34 3.03.53 4.53.31.1.6.18 1.02.32 2.27-1.8 3.54-4.49 5.75-7.1.71-.44 1.87-1.15 2.89-1.78 1.17.1 1.95.51 2.58 1.26.48 1.02.36 2.06-.01 3.38-2.03 2.16-3.66 4.98-6.01 7.2-.33.31-.67.67-.86 1.07-.94 2.02-2.64 3.34-4.36 4.76-.46 2.11-.52 4.27-.08 6.34.59 2.79.37 5.48-.18 7.94.26 2.36.49 4.48.73 6.61-.15.26-.42.53-.41.78.04 1.52-.14 3.13.3 4.53.66 2.11.65 4.21.67 6.34.03 2.89-.35 5.78-.01 8.68.18 1.51.19 3.04.3 4.56.07 1.07.13 2.13-.4 3.08-1.84 1.16-1.93 1.14-4.03-.63-.67-5.01-1.06-10.15-.17-15.24-.34-1.26-.65-2.42-.97-3.62.39-.37.69-.66 1.01-.96-1.72-2.51-1.77-5.47-1.62-8.13-.48-.89-1.03-1.11-1.65-1.23zM338.23 261.9c.44-2.89.54-5.76-.2-8.63-.26-1.02-.22-2.12-.25-3.19-.04-1.52-.01-3.05-.01-4.9-.79-1.91-1.41-4.11 1.13-5.98 1.8-.53 3.8.01 5.52-.25l4.65 1.66c.59 1.17 1.27 2.37 1.81 3.63.72 1.69 1.25 3.44 1.19 5.32-.03.76-.08 1.56.11 2.28.95 3.43.8 6.97 1.11 10.47.01.15.05.3.08.45-.66 1.39.17 2.7.24 4.13-.14.68-.29 1.43-.41 2 .47 4.89.91 9.6 1.4 14.66-.13.37-.38 1.09-.69 1.99-.81.71-1.73 1.51-2.56 2.23-1.66.26-3.17.49-4.71.73-1.62-.2-3.28-.41-5.14-.64-.34-.26-.83-.61-1.31-.99-.48-.37-.94-.76-1.45-1.19-.25-1.02-.5-2.05-.68-2.77.18-1.85.36-3.37.46-4.89.1-1.52-.09-3.09.96-4.45-1.06-1.99-.89-4.19-1.45-6.27.17-1.02.43-2.07.49-3.13.03-.75-.19-1.51-.29-2.27zm5.03 20.85c1.06-.21 1.43-.63 1.55-1.27-.09-.68-.44-1.12-1.11-1.28-.68.12-1.04.54-1.14 1.33.17.29.38.67.7 1.22z"/><path class="st2" d="M238.64 200.87c.43-1.07 1.31-1.64 2.29-2.13 1.36-.68 2.69-1.43 4.54-2.42.9-.22 2.5.13 3.88-.78.47-.31 1.17-.27 1.77-.39.9-.18 1.85-.24 2.67-.58 2.86-1.19 5.86-1.68 8.9-2.02.3-.03.58-.18 1.13-.37.57-.77 1.27-1.72 1.95-2.64.9-.09.69.89 1.19 1.16.56.25 1.11.5 2 .91h4.26c1.11.94 2.16 1.82 3.36 2.83.61 0 1.36-.03 2.12.01.48.03.83.32.95.82-.49 3.17-2.44 5.6-4.36 7.94-3 3.67-6.49 6.86-10.22 9.72-1.37.47-2.66.92-3.37 1.17-2.91.7-5.13-.19-7.4-.29-2.36-.11-4.26-1.64-6.19-1.95-4-1.97-6.16-5.38-8.89-8.52-.15-.7-.37-1.58-.58-2.47zM218.42 173.64c.71 1.69.43 3.56 1.24 5.3.75 1.62.21 3.6.72 5.4.49 1.74.61 3.59.83 4.96-.32 2.68-.58 4.93-.88 7.43-.68 1.22-1.62 2.62-2.26 4.15-.58 1.38-.86 2.9-1.19 4.37-.1.42.08.9.12 1.24.76 1.62 2.04 1.83 3.51 1.57-.2.4-.29.93-.61 1.18-.84.66-1.77 1.19-2.62 1.74-1.28.2-2.49.38-4.17.65-1.92-.46-4.29-1.03-6.63-1.59-1.11-1.37-2.16-2.67-3.23-4 0-2.02-.02-4 .01-5.98.01-.45.15-.9.27-1.34.68-2.5 1.37-5 2.06-7.49.2-.74.33-1.52.67-2.19.82-1.62 1.62-3.28 2.67-4.75 1.67-2.36 3.14-4.83 4.67-7.32 1.43-1.29 2.82-2.75 4.82-3.33zM190.08 126.72c-.15-4.56.05-9.11.09-13.67.01-1.36-.1-2.71.48-4.04.28-.66.15-1.49.23-2.25.18-1.8.17-3.62.92-5.36.34-.79.19-1.79.26-2.69h3.96l3.63 1.8c2.35 2.53 2.65 5.76 4.08 7.8.92 4.43-.13 8.14-.9 11.94-.92 1.14-1.87 2.32-3.07 3.81-.96.64-2.17 1.58-3.51 2.3-1.97 1.07-4.05 1.36-6.17.36z"/><path class="st2" d="M282.08 190.07c-4.16-.93-8.26-2.09-12.14-3.57-1.49-.08-2.86-.15-4.2-.22-4.79.95-9.56 1.89-14.27 2.82-.64.52-1.23.99-1.78 1.43-.35.08-.64.21-.94.21-1.52.03-3.03-.06-4.47.71-1.32.7-3.01.37-4.22 1.58-1.01 1.01-2.61.76-3.82 1.41-.49-1.28-1.2-2.51-.86-3.95v-.01c.2-.78 1.03-1.21 1.81-1.02.19.05.37.09.57.14 2.07-1.24 4.28-2.22 6.63-2.94 2.18-.67 4.28-1.62 6.44-2.34 2.74-.9 5.51-1.69 8.26-2.53 2.19.27 4.17-.72 6.26-1.04 1.04-.16 2.04-.59 3.2-.94h8.13c1.37.65 2.74 1.31 3.96 1.88 1.39 1.33 1.95 2.91 2.51 4.31.2 1.62-.42 2.85-1.07 4.07zM188.36 184.47c-.27-.7-.66-1.38-.8-2.1-.19-1.03-.2-2.09-.31-3.3.76-2.15 1.47-4.47.63-6.79.24-1.18.59-2.2.63-3.23.04-1.04-.23-2.09-.36-3.06.28-.95.54-1.82.69-2.32-.21-2.62-.39-4.87-.58-7.21.28-.8.59-1.65.89-2.5.57.16 1.19.23 1.7.51.52.29 1.06.7 1.37 1.19 1.07 1.69 2.99 2.48 4.15 4.08 1.08 1.49 2.02 2.94 2.25 4.87.18 1.48.98 2.88.64 5.01-.83 3.5-3.12 6.91-5.35 10.3-1.32 2.02-3.08 3.8-5.55 4.55zM287.53 204.67c.64.96.38 2.06.46 3.11.12 1.51.97 2.88.83 4.46-.12 1.36-.1 2.74-.07 4.11.05 2.6-.04 5.14-.84 7.67-.49 1.57-.28 3.36-1.24 4.81-.23.35-.66.56-1 .84-1.31-.77-2.62-1.54-3.46-2.03-2.74-2.94-3.78-6.18-5.2-9.13-.91-5.06 1.68-8.54 5.59-12.07 1.15-.65 2.86-1.67 4.93-1.77zM183.4 152.1c.06 2.73.13 5.45.18 8.18.03 1.82-.08 3.65.04 5.46.12 1.71-.12 3.32-.83 4.79.2 1.01.37 1.9.53 2.72-.22 2.02-.44 3.97-.62 5.61.64 2.05 1.18 3.77 1.72 5.48-.7.65-1.34 1.26-1.99 1.88-.28-.11-.66-.14-.81-.34-1.12-1.44-2.31-2.79-2.72-4.7-.32-1.47-1.03-2.86-1.51-4.1 0-1.72-.03-3.24.01-4.77.02-.6.19-1.19.28-1.79.07-.44.19-.89.17-1.33-.02-.45-.19-.89-.32-1.41.48-1.54.98-3.14 1.54-4.96-.38-3.16-.08-6.46 1.47-9.63.72-.89 1.78-1.01 2.86-1.09zM212.75 125.09c.4.85.46 1.74.36 2.65-.21 1.83.12 3.58.53 5.36.58 2.48 1.37 4.94 1.22 7.55-.02.3 0 .63.12.89.98 2.15.7 4.42.7 6.66-1.06.09-2.12.19-3.11.28-2.03-.67-3.66-1.7-4.83-3.81-.14-3.24-.28-6.73.09-10.3.46-.4.91-.8 1.52-1.32-.16-.61-.35-1.32-.54-2.03.09-1.39 1.11-2.1 2.1-2.82.83-.93.67-2.41 1.84-3.11zM215.29 93.13c-.2-.22-.41-.44-.8-.86-.06-.82-.05-1.89-.24-2.93s-.58-2.04-.9-3.09c-.07-2.23.48-4.56-.77-6.74.23-.85.46-1.72.7-2.63-.34-.99-.69-1.99-1.06-3.04.27-.39.52-.74.76-1.09 1.01.35 2.06.61 3.01 1.07.81.4 1.5 1.04 2.24 1.57.38.7.74 1.37 1.16 2.15-.14.5-.3 1.05-.51 1.76.48.82 1.01 1.72 1.67 2.84-.06 1.93-.12 4.06-.18 6.33-.6.92-1.26 1.93-2.1 3.24-.81.39-1.89.91-2.98 1.42z"/><path class="st0" d="M175.44 29.5v-2.11c.68-1.88 2.01-2.86 3.6-3.56 1.52-.36 3.03-.42 4.61.12 1.46.79 2.5 2.1 3.65 3.44v4.17c-2.17 3.02-2.17 3.02-4.97 3.64-1.31-.46-2.74-.96-3.95-1.38-1.62-1.19-2.32-2.72-2.94-4.32zM194.11 30.28c-.44-1.3-.78-2.3-1.14-3.35.57-1.77 1.32-3.41 2.07-4.74 1.19-1.16 2.45-1.07 3.82-1.21 1.12.46 2.37.98 3.72 1.54.4.59.83 1.21 1.32 1.92v3.32c-.6 1.7-1.44 3.47-3.61 4.55h-3.11c-.87-.58-1.88-1.24-3.07-2.03z"/><path class="st2" d="M228.9 196.89c-.4.91-.4.91-1.58.74-.48-.63-.81-1.43-.58-2.12.8-2.41.2-4.83.13-7.24-.04-1.33-.55-2.66-.95-3.95a12.8 12.8 0 0 1-.57-4.03c.03-2.12.09-4.25-.82-6.27-.32-.7 0-1.49.39-2.17.55.25 1.14.45 1.65.77.38.23.67.61.91.83.48 1.25.92 2.37 1.33 3.51.74 2.04.91 4.17.99 6.31.04 1.07 0 2.13.03 3.2.11 3.21.19 6.41-.87 9.52-.09.27-.04.6-.06.9zM207.55 75.58c.49 2.2 1.17 4.37.89 6.69-.08.71.25 1.47.37 2.21.24 1.49.54 2.97.68 4.47.09.9-.1 1.81-.64 2.6-1.91-1.04-3.12-2.79-4.56-4.41-.61-1.95-1.58-3.9-.95-6.47.45-.88 1.02-2.12 1.72-3.28.56-.92 1.35-1.65 2.49-1.81zM220.63 140.91c-.22-.19-.44-.39-.83-.72-.05-.58-.11-1.31-.16-2.05-.07-1.05.05-2.15-.25-3.12-.83-2.64-.85-5.31-.6-8.01.1-1.04.19-2.08.28-3.12 1.03.29 2.07.57 3.29.91.54.51 1.19 1.13 1.89 1.8-.02 3.28-1.36 6.36-.96 9.4-.4 1.22-.74 2.23-1.08 3.27-.53.53-1.05 1.08-1.58 1.64zM186.16 102.11c-.19 1.78-.44 3.55-.55 5.33-.12 1.8-.1 3.61-.14 5.41-.01.45.08.94-.07 1.35-.97 2.75-.46 5.68-1.1 8.46-1.82-1.78-2.4-4.18-3.35-6.61.9-2.2 1.05-4.62.96-6.86.94-2.01 1.77-3.81 2.63-5.6.33-.69.79-1.29 1.62-1.48z"/><path class="st1" d="M195.09 59.67c-1.38.56-2.86.46-4.29.13-1.2-1.24-1.22-1.23-1.65-2.65.96-2.7 1.44-3.04 4.47-2.87.72.66 1.6 1.46 2.29 2.1.39 1.43-.08 2.34-.82 3.29zM293.86 221.7c.31-.23.55-.41.79-.58.25.1.51.21.76.31.13.25.35.5.36.76.04 1.03.02 2.06.02 2.97-.41.29-.64.46-.95.67-.31-.19-.65-.4-1.02-.63-.06-.62-.16-1.21-.15-1.8 0-.6.12-1.18.19-1.7zM158.48 289.86c-.76-1.13-.59-1.9.13-2.61.28.05.62.01.83.16.77.55 1.29 1.24.8 2.24-.48.53-1.03.53-1.76.21zM343.26 282.75c-.32-.56-.53-.93-.7-1.22.1-.79.46-1.21 1.14-1.33.66.16 1.02.59 1.11 1.28-.12.64-.49 1.06-1.55 1.27z"/></svg>