<?xml version="1.0" encoding="utf-8"?>
<!-- Generator: Adobe Illustrator 26.0.1, SVG Export Plug-In . SVG Version: 6.00 Build 0)  -->
<svg version="1.1" id="Layer_1" xmlns="http://www.w3.org/2000/svg" xmlns:xlink="http://www.w3.org/1999/xlink" x="0px" y="0px"
	 viewBox="0 0 458 320" style="enable-background:new 0 0 458 320;" xml:space="preserve">
<style type="text/css">
	.st0{fill:#6B59E9;}
	.st1{fill:#131112;}
	.st2{fill:#FF5543;}
</style>
<g>
	<path class="st0" d="M338.23,261.9c-2.45-0.82-4.91-1.63-7.69-2.56c-0.05-0.07-0.33-0.42-0.78-0.99c-0.57-0.24-1.54-0.41-2.18-0.97
		c-2.29-2-4.61-4-6.61-6.27c-1.18-1.34-1.81-3.17-2.64-4.71c-0.1-2.28-0.19-4.41-0.26-6.15c0.53-1.55,0.85-2.73,1.34-3.83
		c0.43-0.96,1.05-1.84,1.61-2.8c-0.4-0.35-0.7-0.85-1.08-0.91c-2.28-0.38-3.85-1.78-5.28-3.44c-0.2-0.23-0.41-0.46-0.61-0.69
		c-1.76-3.08-2.81-6.43-3.91-9.77c-0.42-2.64,0.35-5.18,0.85-7.7c0.31-1.6,1.41-3.03,2.09-4.57c0.24-0.54,0.34-1.15,0.47-1.73
		c0.03-0.13-0.09-0.29-0.15-0.46c-0.98-0.95-2.31-0.5-3.46-0.79c-1.03-0.26-2.04-0.63-3.12-0.98c-0.74-1.08-1.52-2.22-2.33-3.41
		c0-0.88,0-1.8,0-3.17c0.31-0.85,0.79-2.14,1.25-3.4c1.17-1.62,2.67-2.93,3.67-4.72c0.95-1.7,2.55-2.98,3.67-4.65
		c1.08-1.62,2.71-2.89,4.18-4.24c1.24-1.13,2.58-2.15,4.05-3.36c0.93-1.3,1.99-2.79,3.06-4.28c2.75-1.94,5.29-4.08,7.32-7.03
		c0.36-0.15,0.92-0.38,1.59-0.66c1.02-2.05,3.29-2.93,4.91-4.52c1.62-1.59,3.6-2.81,5.6-4.32c0.72,0,1.62,0,2.32,0
		c2.18,0.75,3.13,2.75,4.75,3.51c0.58,1,0.9,1.93,1.52,2.56c2.79,2.83,5.29,5.91,8.1,8.72c2.15,2.15,4.45,4.17,6.16,6.78
		c1.08,1.64,2.65,2.95,4.02,4.43c0.15,0.59,0.3,1.18,0.47,1.82c0.16,0.17,0.32,0.46,0.57,0.59c2.3,1.2,3.37,3.51,4.84,5.43
		c0.73,0.96,1.12,2.17,1.75,3.21c0.39,0.65,0.93,1.2,1.58,2.01c0.28,1.56,0.42,3.37,0.25,5.1c-1.08,3.25-3.22,5.29-6.48,6.45
		c-0.7-0.2-1.55-0.52-2.44-0.67c-0.34-0.06-0.74,0.24-1.18,0.41c0.47,0.96,0.87,1.78,1.37,2.8c1.24,1.26,2.67,2.63,3.63,4.43
		c0.57,1.07,1.21,2.05,1.61,3.24c0.63,1.86,1.69,3.57,2.46,5.14c0,1.18,0,2.1,0,2.95c-0.6,2.03-1.95,3.54-2.97,5.24
		c-4.93,3.04-7.02,3.83-12.22,4.66c0.28,1.45,0.28,1.45,4.58,6.02c1.54,2.46,2.52,5.27,4.58,7.4c0.57,1.56,1.64,2.93,1.69,4.71
		c0.03,0.89,0.33,1.78,0.51,2.68c-1.4,4.37-4.81,6.53-9.78,8.19c-1.66,0.09-4.26,0.23-7.14,0.39c-0.42,0.16-1.13,0.41-1.61,0.59
		c-1.33-0.22-2.22-0.98-3.35-0.87c-0.03-0.15-0.07-0.3-0.08-0.45c-0.31-3.49-0.16-7.03-1.11-10.47c-0.2-0.72-0.14-1.52-0.11-2.28
		c0.06-1.88-0.47-3.63-1.19-5.32c-0.54-1.26-1.22-2.45-1.81-3.63c-1.55-0.55-2.98-1.06-4.65-1.66c-1.72,0.26-3.72-0.28-5.52,0.25
		c-2.54,1.87-1.93,4.06-1.13,5.98c0,1.85-0.03,3.37,0.01,4.9c0.03,1.07-0.02,2.17,0.25,3.19
		C338.77,256.14,338.67,259.01,338.23,261.9z"/>
	<path class="st1" d="M287.53,204.67c0.21-2.06-0.26-3.88-1.76-5.42c-0.83-0.86-1.49-1.88-2.39-3.05c-1.1-0.28-2.42-0.6-3.73-0.93
		c-0.12-0.5-0.47-0.79-0.95-0.82c-0.75-0.04-1.51-0.01-2.12-0.01c-1.2-1.01-2.25-1.89-3.36-2.83c-1.54,0-3.07,0-4.26,0
		c-0.89-0.4-1.44-0.65-2-0.91c-0.5-0.27-0.3-1.25-1.19-1.16c-0.68,0.92-1.38,1.88-1.95,2.64c-0.55,0.18-0.84,0.33-1.13,0.37
		c-3.04,0.34-6.04,0.83-8.9,2.02c-0.83,0.34-1.78,0.4-2.67,0.58c-0.6,0.12-1.3,0.08-1.77,0.39c-1.38,0.91-2.98,0.56-3.88,0.78
		c-1.85,0.99-3.18,1.74-4.54,2.42c-0.98,0.49-1.86,1.06-2.29,2.13c-0.6-0.13-1.19-0.27-1.81-0.41c-1.69,0.12-3.37,0.37-4.79,1.36
		c-1.2,0.84-2.58,0.9-3.94,1.17c-2.69,1.43-5.13,3.27-7.6,5.08c-1.47,0.26-2.75,0.05-3.51-1.57c-0.04-0.35-0.21-0.83-0.12-1.24
		c0.34-1.47,0.62-2.99,1.19-4.37c0.64-1.53,1.58-2.93,2.26-4.15c0.29-2.5,0.56-4.76,0.88-7.43c-0.22-1.37-0.33-3.22-0.83-4.96
		c-0.51-1.8,0.03-3.78-0.72-5.4c-0.8-1.74-0.53-3.62-1.24-5.3c0.06-0.59,0.33-1.26,0.15-1.76c-0.53-1.45-0.53-2.96-0.78-4.44
		c-0.88-5.39-0.9-10.82-1.07-16.36c-0.32-0.89-0.68-1.89-1.03-2.88c0-2.24,0.28-4.51-0.7-6.66c-0.12-0.26-0.14-0.59-0.12-0.89
		c0.14-2.61-0.64-5.06-1.22-7.55c-0.41-1.77-0.74-3.53-0.53-5.36c0.1-0.91,0.05-1.81-0.36-2.65c0.19-0.74,0.38-1.47,0.6-2.35
		c-1.22-2.31-1.4-4.87-1.12-7.63c-0.99-1.83-1.19-3.95-1.03-6.09c0.1-1.39,0.19-2.76-0.32-4.07c-0.69-1.76-0.75-3.58-0.59-5.42
		c0.25-2.8-0.17-5.46-1.43-7.99c0.53-0.79,0.72-1.7,0.64-2.6c-0.14-1.5-0.44-2.98-0.68-4.47c-0.12-0.74-0.45-1.5-0.37-2.21
		c0.28-2.32-0.41-4.49-0.89-6.69c0.42-2.47-0.28-4.87-0.49-7.5c0.2-0.85,0.45-1.89,0.73-3.06c-0.27-1.09-0.57-2.27-0.95-3.79
		c0.12-2.56-0.06-5.45,0.73-8.32c0.32-1.16,0.02-2.45-1.37-3.43c-1.72-0.02-3.63-0.38-5.64,0.03c-1.3,0.27-2.73-0.08-4.35-0.16
		c-0.21,0.05-0.65,0.18-1.1,0.27c-2.1,0.38-4.22,0.7-6.3,1.14c-1.93,0.41-3.71,1.41-5.75,1.45c-0.59,0.01-1.18,0.3-1.75,0.53
		c-3.82,1.56-7.67,3.07-11.31,5.06c-1.6,0.87-3.25,1.65-4.89,2.48c0.18,1.91,1.81,2.54,2.63,3.71c1.24,0.36,2.5,0.51,3.55,1.07
		c1.91,1.03,4.04,1.32,6.03,2.05c1.82,0.67,3.91,0.6,5.87,0.91c0.75,0.12,1.47,0.4,2.48,0.68c1.8-0.61,3.93-0.56,5.93-0.47
		c1.61-0.45,3.08-0.86,4.81-1.34c1.95,0.62,4.32-0.58,6.4,0.64c0.16,0.39,0.28,0.67,0.43,1.01c-0.27,1.48-0.96,2.83-1.73,4.16
		c-0.61,1.06-1.15,2.13-1.44,3.36c-0.2,0.85-0.79,1.63-1.3,2.38c-1.12,1.67-2.02,3.42-2.32,5.45c-0.9,1.06-1.79,2.1-2.74,3.21
		c-0.09,0.54-0.23,1.14-0.27,1.74c-0.1,1.53-0.24,3.03-0.8,4.5c-0.43,1.13-0.62,2.37-0.79,3.58c-0.08,0.58,0.12,1.19,0.19,1.79
		c-0.07,0.9,0.08,1.9-0.26,2.69c-0.75,1.74-0.74,3.55-0.92,5.36c-0.07,0.75,0.06,1.59-0.23,2.25c-0.57,1.33-0.47,2.68-0.48,4.04
		c-0.04,4.56-0.24,9.11-0.09,13.67c-0.83,0.58-0.97,1.47-1.09,2.65c0.34,1.67,0.73,3.59,1.13,5.56c-0.96,3.04-1.15,6.18-1.01,9.37
		c0.06,1.51,0.01,2.96-0.46,4.46c-0.53,1.71-0.68,3.58,0.5,5.21c-0.3,0.85-0.61,1.7-0.89,2.5c0.19,2.34,0.37,4.59,0.58,7.21
		c-0.15,0.5-0.4,1.37-0.69,2.32c0.13,0.97,0.4,2.02,0.36,3.06c-0.04,1.03-0.39,2.05-0.63,3.23c0.83,2.31,0.13,4.63-0.63,6.79
		c0.1,1.21,0.11,2.27,0.31,3.3c0.14,0.72,0.52,1.4,0.8,2.1c-0.44,1.81-0.41,3.65-0.37,5.49c0.03,1.84,0.03,3.68,0.06,5.51
		c0.01,0.61,0,1.23,0.1,1.83c0.42,2.57,0.87,5.13,1.3,7.57c-0.36,4.25-0.79,8.38,0.46,12.44c0.28,4.21,1.77,8.01,4.46,11.94
		c0.72,0.54,1.81,1.58,3.26,2.2c1.41,0.61,2.44,1.8,3.42,3.07c0,1.5,0,3.02,0,4.49c-1.01,2.5-2.1,4.89-2.01,7.61
		c-0.9,1.61-1.97,3.14-2.64,4.82c-0.68,1.73-1.52,3.34-2.48,4.71c-0.64,1.73-1.13,3.35-1.83,4.87c-0.72,1.54-1,3.2-1.54,4.77
		c-0.54,1.57-1.57,2.97-2.28,4.49c-1.09,2.34-1.93,4.8-3.25,7.05c-1.01,1.72-1.46,3.67-1.48,5.76c-0.75,0.58-1.45,1.12-2.08,1.61
		c-0.63-0.12-1.07-0.21-1.71-0.33c-0.49-0.99-1.02-2.07-1.53-3.1c1.02-4.72,3.41-8.62,5.98-12.41c0.47-2.1,0.76-4.25,1.46-6.26
		c0.8-2.3,1.83-4.54,2.99-6.69c1.02-1.89,2-3.78,2.88-5.74c0.75-1.65,1.09-3.53,2.53-4.84c0.3-0.28,0.35-0.83,0.51-1.25
		c0.76-1.98,1.51-3.96,2.27-5.94c-0.12-0.28-0.18-0.63-0.39-0.82c-1.49-1.3-2.92-2.7-4.55-3.79c-1.73-1.15-3.07-2.57-3.78-4.47
		c-0.44-1.19-1.26-2.07-1.81-2.81c-0.51-2.53-0.95-4.78-1.4-7.02c-0.38-2.1-0.33-4.23-0.62-6.37c-0.26-1.93,0.13-3.94,0.24-6.18
		c-0.94-1.91-1.09-4.18-1.04-6.5c0.04-1.68,0.04-3.37-0.09-5.05c-0.1-1.36-0.42-2.7-0.66-4.12c0.14-0.69,0.29-1.43,0.48-2.39
		c-0.23-0.7-0.53-1.56-0.82-2.42c0.65-0.61,1.3-1.22,1.99-1.88c-0.54-1.71-1.08-3.43-1.72-5.48c0.18-1.64,0.4-3.59,0.62-5.61
		c-0.16-0.82-0.33-1.71-0.53-2.72c0.71-1.47,0.94-3.08,0.83-4.79c-0.12-1.81-0.02-3.64-0.04-5.46c-0.04-2.73-0.12-5.45-0.18-8.18
		c0.37-2.1,0.59-4.22,0.28-6.35c-0.21-1.43,0.21-2.7,0.98-4.08c0-5.18,0.02-10.51-0.02-15.83c-0.01-1.06-0.22-2.11-0.34-3.17
		c0.64-2.78,0.14-5.72,1.1-8.46c0.14-0.41,0.06-0.9,0.07-1.35c0.04-1.8,0.02-3.61,0.14-5.41c0.11-1.78,0.36-3.56,0.55-5.33
		c0.22-0.73,0.57-1.44,0.62-2.18c0.1-1.53,0.03-3.06,0.03-4.8c0.32-0.82,0.7-1.82,1.15-2.97c0.08-1.51-0.04-3.21,0.74-4.8
		c0.25-0.51,0.2-1.19,0.22-1.79c0.09-2.31,0.45-4.56,1.21-6.73c0-1.54,0-3.06,0-4.43c-0.43-0.71-0.96-1.06-1.59-1.06
		c-4.32,0.06-8.52-0.79-13.04-1.46c-3.8-2.12-8.47-2.65-12.54-4.65c-0.83-1.38-1.62-2.69-2.56-4.25c-0.27-1.68-0.59-3.63-0.93-5.68
		c0.53-0.44,0.95-0.86,1.44-1.18c1.41-0.9,2.98-1.6,4.24-2.68c1.33-1.14,2.87-1.75,4.42-2.39c1.55-0.65,3.15-1.19,4.74-1.76
		c2.01-0.72,4.03-1.43,6.06-2.13c1.86-0.65,3.6-1.71,5.48-1.28c0.29-0.68,0.41-0.95,0.53-1.22c-0.61-1.55-1.63-2.95-1.81-4.83
		c0.87-1.94,2.31-3.02,4.43-2.89c2.46,1.8,1.86,4.95,3.64,6.89c0.29-0.03,0.57-0.07,1-0.11c0.22-1.91,0.63-3.83,0.68-5.82
		c0.03-1.08,0.55-2.09,1.78-2.46c1.14-0.02,2.05,0.41,2.83,1.74c0.09,1.66,0.2,3.62,0.31,5.49c0.38,0.25,0.65,0.59,0.87,0.56
		c3.06-0.43,6.01,1.01,8.87,0.66c1.76-1.06,3.33-2,5.37-3.22c2.67-3.79,7.12-5.74,12.11-7.3c0.91,0.46,1.98,1,2.98,1.51
		c0.71,1.83-0.26,3.48-0.01,5.13c-0.95,3.69-1.3,7.55-3.22,11.24c-1.61,1.49-3.4,3.16-5.18,4.81c-1.42,0.68-2.81,1.33-4.31,2.04
		c-0.66,0-1.42,0-2.18,0c-0.59,0-1.18,0-1.57,0c-0.69,0.63-0.78,1.25-0.74,1.85c0.21,2.89-0.08,5.8,0.68,8.67
		c0.34,1.29,0.06,2.74,0.06,4.12c-0.25,0.35-0.49,0.7-0.76,1.09c0.37,1.05,0.71,2.05,1.06,3.04c-0.24,0.91-0.48,1.78-0.7,2.63
		c1.26,2.18,0.71,4.51,0.77,6.74c0.31,1.05,0.71,2.05,0.9,3.09c0.19,1.04,0.18,2.11,0.24,2.93c0.39,0.42,0.59,0.64,0.8,0.86
		c0.01,3.68,0.34,7.34,0.86,10.96c0.44,3.05,0.74,6.08,0.46,9.15c0.7,2.36,1.7,4.66,1.01,6.94c0.55,1.41,1,2.55,1.44,3.69
		c-0.09,1.04-0.18,2.08-0.28,3.12c-0.25,2.7-0.23,5.37,0.6,8.01c0.3,0.97,0.17,2.08,0.25,3.12c0.05,0.74,0.12,1.47,0.16,2.05
		c0.39,0.34,0.61,0.53,0.83,0.72c0,1.22,0,2.44,0,4.13c0.25,0.71,0.67,1.87,1.12,3.14c-0.07,0.49-0.34,1.15-0.2,1.69
		c0.56,2.1,0.25,4.24,0.44,6.35c0.18,1.98,0.01,4.04,0.46,5.95c0.75,3.24,0.86,6.66,2.47,9.69c-0.4,0.68-0.71,1.47-0.39,2.17
		c0.91,2.02,0.85,4.15,0.82,6.27c-0.02,1.39,0.16,2.71,0.57,4.03c0.4,1.3,0.92,2.63,0.95,3.95c0.07,2.4,0.67,4.82-0.13,7.24
		c-0.23,0.69,0.11,1.49,0.58,2.12c1.18,0.17,1.18,0.17,1.58-0.74c2.1-0.57,4.31-0.77,6.31-1.7c0.38-0.18,0.69-0.5,1.03-0.75
		c1.21-0.65,2.8-0.4,3.82-1.41c1.21-1.21,2.9-0.88,4.22-1.58c1.45-0.77,2.95-0.68,4.47-0.71c0.29-0.01,0.58-0.13,0.94-0.21
		c0.55-0.44,1.14-0.92,1.78-1.43c4.72-0.93,9.49-1.87,14.27-2.82c1.34,0.07,2.71,0.14,4.2,0.22c3.88,1.49,7.97,2.64,12.14,3.57
		c0.22,0.21,0.4,0.52,0.66,0.63c2.43,0.95,4.5,2.56,6.86,3.64c0.83,0.38,1.68,0.83,2.33,1.46c3.4,3.29,7.15,6.23,9.96,10.08
		c0.81,1.11,1.55,2.29,2.41,3.57c0.13,0.75,0.3,1.65,0.49,2.73c0.7,0.99,1.49,2.12,2.4,3.43c0.18,0.83,0.29,1.92,0.67,2.9
		c0.62,1.61,0.87,3.24,0.9,4.95c0.01,0.75,0.09,1.56,0.37,2.25c0.66,1.62,0.75,3.32,0.57,4.98c-0.2,1.87,0.11,3.66,0.46,5.71
		c0.53,0.85,1.15,1.91,1.85,2.91c0.61,0.87,1.32,1.68,2.04,2.58c0.1,1.04,0.15,2.11,0.32,3.17c0.14,0.9,0.41,1.79,0.61,2.67
		c-0.28,1.99-0.56,3.95-0.85,6.03c-0.53,0.64-1.12,1.34-1.82,2.19c-0.25,0.7-0.56,1.56-0.89,2.5c-0.88,1-2.18,1.51-3.3,2.23
		c-0.34-0.02-0.67,0.04-0.94-0.06c-1.5-0.52-2.66-1.47-3.55-2.79c-1.98-2.92-3.89-5.87-4.8-9.58c0-0.99,0-2.21,0-3.7
		c0.72-1.09,0.95-2.59,0.95-4.23c0.46-0.73,0.95-1.51,1.32-2.08c1.2-1.47,3.34-1.53,3.91-3.66c-0.14-0.83-0.36-1.87-0.46-2.93
		c-0.09-0.91,0-1.84-0.04-2.76c-0.06-1.69-0.29-3.34-0.93-4.94c-0.61-1.55-1.2-3.11-1.2-4.87c-0.01-1.59-1.08-2.81-2.26-3.79
		c-0.18-0.98-0.34-1.87-0.5-2.72c-1.82-2.07-2.45-5-5.01-6.42c-0.27,0.09-0.55,0.18-0.91,0.29c-0.1,0.56-0.2,1.15-0.31,1.82
		c0.46,0.95,0.92,1.91,1.24,2.58c0.91,3.24,0.65,6.4,1.97,9.3c0,1.64,0,3.32,0,4.79c-0.41,1.53-0.76,2.84-1.19,4.47
		c-1.1,0.85-2.42,1.87-4.06,3.15c-0.63,0.8-0.72,2.2-1.08,3.53c-0.32,1.16-0.94,2.25-1.42,3.36c0.04,0.61,0.08,1.22,0.13,1.85
		c-0.49,0.96-0.92,1.95-1.49,2.85c-0.58,0.92-1.09,1.86-1.16,2.96c-0.11,1.64-1.76,2.54-1.98,4.09s-0.66,2.99-1.42,4.34
		c-0.53,0.93-1.09,1.85-1.68,2.82c-0.21,0.97-0.44,2-0.63,2.9c0.23,0.42,0.32,0.75,0.52,0.96c2.15,2.22,3.75,4.83,5.39,7.42
		c0.98,1.54,1.87,3.14,3,4.62c1.1,1.43,2.09,3,2.67,4.8c0.36,1.12,1.21,2.09,1.92,3.26c0.18,1.64,0.99,3.47-0.64,5.32
		c-2.21,1.23-4.69,2.33-7.56,2.23c-1.71-1.2-3.07-2.53-4.11-4.33c-2.06-3.57-4.37-7-6.57-10.48c-0.31,0.09-0.73,0.1-0.82,0.27
		c-0.41,0.81-0.57,1.8-1.11,2.49c-0.99,1.27-1.28,2.74-1.57,4.13c-0.96,1.15-1.84,2.21-2.73,3.28c-0.27,2.36-1.44,4.34-2.46,6.29
		c-0.62,0.63-1.23,1.07-2.07,1.04c-1.16-0.89-1.18-0.89-1.7-3.12c0.45-1.5,0.92-3.1,1.44-4.86c0.8-0.46,1.69-0.97,2.54-1.46
		c-0.28-0.39-0.54-0.76-0.89-1.26c0.15-0.51,0.22-1.13,0.51-1.64c1.36-2.42,2.49-4.93,2.97-7.66c1.24-2.14,2.73-4.09,3.15-6.62
		c0.25-1.48,1.4-2.67,1.88-4.16c0.85-2.6,2.13-5.06,3.14-7.62c0.62-1.56,1.38-3.05,1.73-4.74c0.3-1.47,1.09-2.84,1.67-4.25
		c0.58-1.41,1.17-2.82,1.98-4.76c0.01-0.18,0.05-0.94,0.1-1.72c0.7-1.16,1.41-2.35,2.15-3.57c0.18-1.81,0.35-3.63,0.53-5.46
		c0.34-0.28,0.77-0.49,1-0.84c0.97-1.46,0.75-3.24,1.24-4.81c0.8-2.53,0.89-5.08,0.84-7.67c-0.03-1.37-0.05-2.75,0.07-4.11
		c0.14-1.58-0.71-2.95-0.83-4.46C287.91,206.73,288.18,205.63,287.53,204.67z M223.97,46.86c0.79-2.39,0.07-4.78,0.1-7.24
		c-1.61,0.37-3.07,0.7-4.25,0.98c-1.06,0.97-1.94,1.78-2.83,2.59c-0.21,0.56-0.43,1.13-0.61,1.61c-1.01,0.83-1.96,1.6-2.75,2.25
		c-1.12,1.95-1.65,3.83-1.25,5.87c0.07,0.38,0.44,0.71,0.63,1c2.39-0.03,4.26-0.99,5.9-2.42C220.61,49.99,222.27,48.42,223.97,46.86
		z M293.86,221.7c-0.06,0.52-0.18,1.11-0.19,1.7s0.09,1.18,0.15,1.8c0.37,0.23,0.71,0.44,1.02,0.63c0.31-0.22,0.55-0.39,0.95-0.67
		c0-0.91,0.02-1.94-0.02-2.97c-0.01-0.26-0.24-0.51-0.36-0.76c-0.25-0.1-0.51-0.21-0.76-0.31
		C294.41,221.29,294.17,221.46,293.86,221.7z"/>
	<path class="st2" d="M108.37,268.41c-0.15,0.43-0.29,0.86-0.42,1.22c-0.84,0.72-1.78,0.6-2.8,0.63c-0.42-0.45-0.9-0.95-1.35-1.43
		c-0.99,0.13-1.14,0.95-1.44,1.64c-0.27,0.11-0.59,0.37-0.81,0.31c-3.29-0.87-6.68-0.63-10.02-0.86c-0.45-0.03-0.9-0.06-1.26-0.09
		c-0.5-0.26-0.9-0.48-1.5-0.79c-2.49,0.35-4.9-0.54-7.31-1.58c-0.64-0.27-1.48-0.08-2.25-0.1c-0.52-0.9-0.97-1.69-1.39-2.42
		c0-1.17,0-2.24,0-3.37c0.26-0.65,0.54-1.36,0.85-2.13c0-1.31,0-2.69,0-4.06c0.51-1.14,1.01-2.26,1.57-3.48
		c0.3-1.53,0.25-3.2,0.8-4.84c0.52-1.55,0.43-3.31,0.66-5.47c0.27-0.84,0.77-2.13,1.11-3.46c0.57-2.21,1.31-4.39,1.18-6.75
		c-0.1-1.71,0.39-3.3,1.04-4.89c0.69-1.69,1.19-3.46,1.65-5.23c0.49-1.91,0.81-3.87,1.26-5.79c0.17-0.74,0.48-1.44,0.75-2.15
		c0.28-0.71,0.83-1.4,0.85-2.11c0.08-2.87,1.62-5.21,2.6-7.6c-0.15-0.61-0.26-1.05-0.34-1.41c0.53-1.97,1.71-3.65,1.73-5.73
		c0.01-0.56,0.43-1.12,0.67-1.68c0.3-0.7,0.89-1.4,0.87-2.1c-0.06-2.6,1.53-4.62,2.28-6.92c0.52-1.58,1.48-3,1.59-4.74
		c0.03-0.43,0.28-0.87,0.5-1.27c1.03-1.89,1.51-3.99,2.2-6c0.2-0.57,0.25-1.24,0.58-1.71c1.08-1.51,1.69-3.26,2.55-4.87
		c0.73-1.35,1.65-2.59,1.55-4.23c1.32-3.41,2.47-6.9,4.3-10.08c0.36-0.63,1.03-1.07,1.62-1.67c1.4,0.44,2.69,0.85,3.97,1.26
		c1.9,1.63,3.42,3.48,4.76,5.58c1.91,2.99,3.39,6.1,4.26,9.53c0.26,1.03,0.71,2,1.08,3c0.52,1.43,1.14,2.83,1.24,4.4
		c0.02,0.36,0.49,0.7,0.76,1.05c0.31,1.83,0.51,3.74-0.1,5.46c-0.64,1.79-0.7,3.58-0.8,5.4c-0.03,0.6-0.12,1.23-0.34,1.78
		c-0.4,1.03-0.46,2.08-0.46,3.16c0,5.36-0.05,10.71,0.02,16.07c0.04,2.72-0.34,5.51,0.81,8.14c0.17,0.39,0.03,0.91,0.07,1.36
		c0.06,0.76,0.02,1.55,0.23,2.27c0.84,2.77,0.79,5.76,2.19,8.39c0.27,0.51,0.23,1.19,0.31,1.79c0.34,2.58,1.02,5.05,2.33,7.33
		c0.61,1.05,1.09,2.17,1.45,2.91c1.66,1.89,3.07,3.49,4.48,5.09c0,0.76,0,1.53,0,2c1.53,3.35,2.75,6.46,2.91,10.07
		c1.78,3.19,2.24,6.76,1.58,10.53c-0.42,1.08-1.41,1.58-2.36,2.04c-0.96,0.46-1.99,0.76-2.98,1.12c-0.84,0.14-1.43-0.51-2.76-0.73
		c-5.53,0.28-11.67-0.6-17.87,0.52c-0.5-0.14-1.08-0.31-1.67-0.47c-0.23-2.12-0.47-4.24-0.73-6.61c0.55-2.47,0.76-5.16,0.18-7.94
		c-0.44-2.07-0.38-4.23,0.08-6.34c1.72-1.42,3.42-2.74,4.36-4.76c0.19-0.4,0.53-0.76,0.86-1.07c2.35-2.23,3.98-5.04,6.01-7.2
		c0.37-1.32,0.49-2.37,0.01-3.38c-0.63-0.75-1.41-1.16-2.58-1.26c-1.02,0.63-2.18,1.34-2.89,1.78c-2.2,2.61-3.48,5.3-5.75,7.1
		c-0.42-0.13-0.71-0.22-1.02-0.32c-0.19-1.5-0.59-3.02-0.53-4.53c0.07-1.72-0.42-3.33-0.56-4.99c-0.18-2.14-0.1-4.3-0.23-6.44
		c-0.16-2.59,0.1-5.21-0.71-7.75c-0.09-0.28-0.01-0.61-0.01-0.95c0.76-1.28,0.23-2.63,0.06-4c0.48-1.28,0.75-2.61,0.71-4.02
		c-0.09-2.76-0.1-5.52-0.13-8.28c-0.01-1.07,0.06-2.14-0.41-3.16c-0.53-1.16-0.44-2.41-0.27-3.63c0.18-1.36,0.33-2.69,0.04-4.08
		c-0.25-1.19-0.22-2.44,0.33-3.61c0.12-0.26,0.07-0.6,0.03-0.16c-0.34-2.84-0.59-4.97-0.83-6.99c-0.66-1.11-1.16-2.27-2.7-2.2
		c-0.95,2.89-0.02,5.97-1.38,8.25c-0.05,4.37-0.11,8.36-0.14,12.34c-0.03,3.99,0.01,7.98-0.02,11.97c-0.03,3.98,0.2,7.96-0.2,11.99
		c-0.52,0.07-0.94,0.13-1.38,0.19c-1.3-1.79-2.55-3.51-3.8-5.22c-1.62-0.01-3.2-0.54-4.3,1c-0.42,0.91-0.48,1.8-0.02,3.11
		c0.87,0.95,2.17,2.08,3.09,3.46c2.25,3.38,5.05,6.15,8.54,8.35c-0.47,1.21-0.91,2.34-1.28,3.27c0.35,3.54,0.67,6.88,1.03,10.52
		c-0.07,0.28-0.23,0.87-0.39,1.49c0.52,1.27,1.03,2.53,1.57,3.84c-1.46,2.09-0.34,4.52-1,6.94c-3.49-1.28-5.52-3.83-6.87-6.66
		c-0.9-0.58-1.54-0.99-2.04-1.32c-0.5-0.97-0.92-1.78-1.18-2.27c-1.44-0.96-2.57-1.72-3.75-2.5c-0.88-0.03-1.81-0.19-2.85,0.59
		c-0.13,0.3-0.36,0.84-0.38,0.88c0.09,1.99,1.57,2.32,2.4,3.52c0.47,1.21,1.01,2.62,2.17,3.73c1.55,1.48,2.88,3.14,4.11,4.93
		c1.19,1.75,2.88,3.16,4.34,4.73c0.63,0.67,1.26,1.35,1.84,2.06C107.67,265.75,108.26,266.98,108.37,268.41z"/>
	<path class="st0" d="M138.52,245.17c-1.41-1.6-2.82-3.2-4.48-5.09c-0.36-0.73-0.85-1.86-1.45-2.91c-1.32-2.28-1.99-4.75-2.33-7.33
		c-0.08-0.6-0.04-1.28-0.31-1.79c-1.4-2.63-1.35-5.62-2.19-8.39c-0.22-0.71-0.18-1.51-0.23-2.27c-0.03-0.46,0.1-0.97-0.07-1.36
		c-1.15-2.63-0.78-5.41-0.81-8.14c-0.07-5.36-0.02-10.71-0.02-16.07c0-1.07,0.06-2.13,0.46-3.16c0.22-0.56,0.31-1.18,0.34-1.78
		c0.09-1.83,0.16-3.61,0.8-5.4c0.61-1.72,0.41-3.63,0.1-5.46c0.15-1.36-0.06-2.78,0.71-4.03c0.98-4.78,2.29-9.46,4-14.04
		c0.16-0.43,0.19-0.9,0.28-1.36c0.48-0.55,1.25-1.03,1.41-1.67c0.79-3.04,2.28-5.64,4.44-7.89c0.63-0.66,1.16-1.42,1.66-2.04
		c3.48-2.04,7.2-1.6,10.96-1.61c1.64,0.61,3.32,1.42,5.08,1.25c2.24,1.24,3.48,3.09,4.59,5.34c-0.74,0.19-0.27,1.89,0.68,1.95
		c0.28,0.3,0.69,0.58,0.89,0.97c1.54,3.15,3.59,6.05,4.22,9.63c0.17,0.99,0.98,1.88,1.69,3.16c0.45,1.2,0.07,2.94,0.81,4.55
		c0.62,1.35,0.81,2.94,0.99,4.44c0.2,1.67,0.17,3.37,0.97,4.84c-0.2,0.7-0.36,1.28-0.53,1.85c0.21,0.88,0.48,1.75,0.63,2.65
		c0.15,0.9,0,1.89,0.33,2.71c0.59,1.49,0.62,2.98,0.52,4.52c-0.11,1.71,0.1,3.36,1.06,4.96c0,2.85,0.02,5.76-0.02,8.68
		c-0.01,0.77-0.01,1.5,0.25,2.25c0.24,0.71,0.38,1.49,0.36,2.23c-0.01,0.58-0.32,1.16-0.48,1.69c1.31,3.38,0.53,6.7,0.01,9.92
		c0.19,0.68,0.36,1.26,0.42,1.45c-0.29,2.49-0.54,4.61-0.79,6.68c0.27,0.64,0.5,1.2,0.82,1.97c-0.18,0.69-0.46,1.55-0.62,2.43
		c-0.14,0.75-0.05,1.54-0.21,2.29c-0.31,1.48-0.76,2.93-1.09,4.41c-0.67,3.02-1.71,5.86-3.92,8.46c-1.48,1.22-3.38,2.13-5.58,2.36
		c-0.63-1.6-0.62-3.3-0.68-4.98c-0.02-0.61,0.19-1.28,0-1.83c-0.85-2.54-0.65-5.16-0.7-7.75c-0.03-1.55-0.29-3.02-0.73-4.36
		c0.15-0.59,0.27-1.03,0.44-1.69c-1.24-2.27-0.6-4.93-0.85-7.56c-0.32-0.97-0.66-1.98-0.96-2.85c-1.44-1.18-2.74-2.23-4.27-3.49
		c-1.83,1.01-3.78-0.57-5.7,0.18c-0.94,0.52-1.44,1.29-1.48,2.26c-0.11,2.45-0.14,4.89-0.22,7.34c-0.03,0.91,0.05,1.87-0.22,2.71
		c-0.49,1.5-0.53,3.01-0.53,4.54c0,2.61,0.02,5.21-0.02,7.82c-0.04,3.06-0.14,6.12-0.21,9.19c-0.15,0.01-0.31,0.06-0.45,0.03
		c-1.31-0.32-2.62-0.65-3.97-1C141.18,247.97,140.34,246.13,138.52,245.17z"/>
	<path class="st1" d="M193.76,286.58c-0.64-0.14-1.06-0.22-1.59-0.34c0.21-3.33,1.34-6.27,2.85-9.07c0.5-0.39,0.98-0.77,1.4-1.1
		c0.5-1.68,0.88-3.32,1.49-4.87c0.5-1.27,1.13-2.53,1.93-3.64c2.8-3.91,3.06-4.28,5.1-9.06c0.06-0.14,0.05-0.34,0.15-0.43
		c2.22-2.18,2.76-5.43,4.9-7.67c0.58-0.13,1.18-0.26,1.78-0.38c0.08-0.11,0.26-0.24,0.24-0.33c-0.11-0.72-0.25-1.44-0.44-2.48
		c0.55-0.51,1.23-1.13,2.18-2c0.36-2.73,1.84-5.37,3.81-7.79c0.96-0.76,2.07-1.25,3.34-1.32c2.3-0.13,4.58-0.36,6.81-0.98
		c1.79-0.5,3.65,0.09,5.47-0.48c1.59-0.5,3.29-0.75,4.96-0.93c1.36-0.15,2.75-0.03,4.13,0.1c1.78-0.3,3.47-1.21,5.37-0.92
		c3.47-0.61,6.94-1.17,10.39-1.86c2.13-0.43,4.25-0.53,6.23-0.49c1.96,1,1.96,0.99,3.09,2.64c0.8,1.86-0.32,3.35-0.59,4.97
		s-1.26,2.76-1.99,3.94c-0.1,1.21-0.11,2.29-0.3,3.34c-0.25,1.36-0.28,2.69-0.28,4.08c0,2.92-0.85,5.75-1.78,8.51
		c-0.88,2.61-1.06,5.41-2.32,7.9c-0.19,0.38-0.17,0.91-0.14,1.36c0.08,1.27-0.42,2.39-0.8,3.56c-0.6,1.88-1.76,3.61-1.53,5.71
		c-1,2.73-1.65,5.54-2.23,8.39c-0.33,1.61-1.31,3.08-1.87,4.34c-0.94,1-1.77,1.12-2.67,0.66c-0.65-0.61-0.73-1.37-0.58-2.14
		c0.41-2.1,0.88-4.19,1.33-6.29c0.16-0.75,0.39-1.48,0.54-2.23c0.29-1.5,0.18-3.03,0.76-4.51c0.56-1.4,0.88-2.91,1.19-4.4
		c0.37-1.79,0.61-3.61,0.99-5.98c0.24-0.45,0.74-1.39,1.4-2.64c0.08-0.74,0.18-1.8,0.28-2.76c-2.05-3.76-4.55-7.01-7.53-9.66
		c-0.13-0.97-0.23-1.72-0.33-2.49c-0.63-0.4-1.27-0.8-2-1.26c-0.31-0.78-0.65-1.63-1.01-2.54c-0.62-0.59-1.32-1.18-1.92-1.87
		c-0.49-0.56-0.87-1.24-1.29-1.86c-0.7-0.13-1.34-0.45-1.88-0.33c-2.7,0.6-5.49,0.1-8.19,0.85c-1.61,0.45-3.32,0.59-4.99,0.71
		c-1.52,0.12-3.06,0.02-4.55,0.02c-0.87,0.51-1.66,0.97-2.42,1.42c-0.79,1.75-1.5,3.44-2.31,5.09c-0.73,1.48-0.84,3.28-2.33,4
		c0.28,2.04,1.74,2.9,2.53,4.18c0.65,2.71,1.95,5.16,3.37,7.51c1.35,2.25,2.4,4.61,3.46,6.99c1.75,3.92,3.62,7.78,5.54,11.62
		c0.61,1.21,1.53,2.26,2.41,3.53c0.01,2.34-1.51,3.36-3.51,3.81c-2.26-0.23-4.39-0.45-6.69-0.69c-1.12-0.57-1.75-1.86-2.74-2.83
		c-0.18-0.57-0.36-1.16-0.53-1.72c-0.96-1.4-1.89-2.79-2.85-4.17c-1.04-1.5-1.88-3.11-3.11-4.52c-1.18-1.36-1.89-3.14-2.75-4.76
		s-1.65-3.28-2.84-4.6c-0.43,0.02-0.72,0.03-1.03,0.05c-1.72,2.34-2.66,5.18-4.62,7.38c-1.01,3.45-3.56,6.03-5.21,9.11
		C196.52,283.62,195.31,285.01,193.76,286.58z"/>
	<path class="st1" d="M146.73,250.56c0.07-3.06,0.16-6.12,0.21-9.19c0.04-2.61,0.01-5.21,0.02-7.82c0-1.53,0.04-3.04,0.53-4.54
		c0.28-0.84,0.19-1.8,0.22-2.71c0.08-2.45,0.12-4.89,0.22-7.34c0.04-0.97,0.54-1.74,1.48-2.26c1.92-0.75,3.86,0.83,5.7-0.18
		c1.54,1.25,2.83,2.31,4.27,3.49c0.29,0.87,0.63,1.89,0.96,2.85c0.25,2.62-0.4,5.29,0.85,7.56c-0.17,0.65-0.29,1.1-0.44,1.69
		c0.43,1.33,0.7,2.81,0.73,4.36c0.05,2.59-0.15,5.21,0.7,7.75c0.18,0.55-0.02,1.21,0,1.83c0.05,1.68,0.04,3.37,0.68,4.98
		c-0.63,1.52-0.1,3.06,0.12,4.52c0.31,1.97,0.51,3.93,0.56,5.92c0.04,1.52,0.32,3.02,0.5,4.58c-0.13,0.7-0.28,1.45-0.41,2.15
		c0.04,0.36,0.02,0.68,0.11,0.97c1.07,3.41,1.01,6.94,1.08,10.44c0.03,1.38,0.04,2.73,0.33,4.07c0.43,1.96,0.53,3.95,0.37,5.94
		c-0.12,1.52-0.39,3.05-1.67,4.27c-1.36,0.91-3.13,0.83-4.45,1.38c-2.39-0.18-4.52-0.35-6.93-0.53c-0.8-0.75-1.79-1.67-2.74-2.56
		c-0.23-2.84-0.37-5.58-0.71-8.29c-0.14-1.08-0.25-2.09-0.02-3.16c0.12-0.59,0.23-1.28,0.03-1.81c-1.1-3.08-0.48-6.38-1.33-9.29
		c0.24-0.94,0.42-1.68,0.61-2.44c-0.3-0.68-0.91-1.4-0.85-2.06c0.21-2.45-0.8-4.79-0.56-7.23c0.09-0.91,0.04-1.83,0.02-2.74
		C146.86,253.61,146.79,252.08,146.73,250.56z M158.48,289.86c0.74,0.32,1.28,0.32,1.76-0.21c0.49-1-0.02-1.69-0.8-2.24
		c-0.21-0.15-0.55-0.11-0.83-0.16C157.89,287.95,157.72,288.73,158.48,289.86z"/>
	<path class="st1" d="M108.37,268.41c-0.11-1.43-0.71-2.66-1.59-3.76c-0.58-0.71-1.21-1.39-1.84-2.06
		c-1.46-1.57-3.14-2.98-4.34-4.73c-1.22-1.79-2.55-3.45-4.11-4.93c-1.16-1.11-1.7-2.52-2.17-3.73c-0.82-1.2-2.31-1.52-2.4-3.52
		c0.02-0.05,0.25-0.58,0.38-0.88c1.05-0.78,1.97-0.62,2.85-0.59c1.17,0.78,2.3,1.54,3.75,2.5c0.25,0.49,0.67,1.3,1.18,2.27
		c0.5,0.33,1.14,0.74,2.04,1.32c1.34,2.84,3.38,5.38,6.87,6.66c0.66-2.42-0.47-4.85,1-6.94c-0.53-1.31-1.05-2.57-1.57-3.84
		c0.16-0.62,0.32-1.21,0.39-1.49c-0.36-3.64-0.68-6.98-1.03-10.52c0.37-0.94,0.81-2.06,1.28-3.27c-3.5-2.21-6.3-4.97-8.54-8.35
		c-0.92-1.38-2.23-2.51-3.09-3.46c-0.47-1.31-0.4-2.2,0.02-3.11c1.1-1.54,2.68-1.01,4.3-1c1.25,1.72,2.5,3.43,3.8,5.22
		c0.43-0.06,0.85-0.12,1.38-0.19c0.4-4.03,0.17-8.01,0.2-11.99c0.03-3.99,0-7.98,0.02-11.97c0.03-3.99,0.09-7.97,0.14-12.34
		c1.36-2.29,0.43-5.37,1.38-8.25c1.54-0.08,2.04,1.08,2.7,2.2c0.24,2.02,0.49,4.14,0.83,6.99c0.04-0.44,0.09-0.09-0.03,0.16
		c-0.55,1.17-0.58,2.43-0.33,3.61c0.29,1.39,0.15,2.71-0.04,4.08c-0.16,1.22-0.26,2.47,0.27,3.63c0.47,1.03,0.4,2.09,0.41,3.16
		c0.03,2.76,0.04,5.52,0.13,8.28c0.05,1.41-0.22,2.74-0.71,4.02c0.17,1.37,0.7,2.72-0.06,4c0,0.35-0.08,0.68,0.01,0.95
		c0.81,2.53,0.55,5.16,0.71,7.75c0.13,2.14,0.05,4.3,0.23,6.44c0.14,1.66,0.63,3.27,0.56,4.99c-0.06,1.51,0.34,3.03,0.53,4.53
		c0.31,0.1,0.6,0.18,1.02,0.32c2.27-1.8,3.54-4.49,5.75-7.1c0.71-0.44,1.87-1.15,2.89-1.78c1.17,0.1,1.95,0.51,2.58,1.26
		c0.48,1.02,0.36,2.06-0.01,3.38c-2.03,2.16-3.66,4.98-6.01,7.2c-0.33,0.31-0.67,0.67-0.86,1.07c-0.94,2.02-2.64,3.34-4.36,4.76
		c-0.46,2.11-0.52,4.27-0.08,6.34c0.59,2.79,0.37,5.48-0.18,7.94c0.26,2.36,0.49,4.48,0.73,6.61c-0.15,0.26-0.42,0.53-0.41,0.78
		c0.04,1.52-0.14,3.13,0.3,4.53c0.66,2.11,0.65,4.21,0.67,6.34c0.03,2.89-0.35,5.78-0.01,8.68c0.18,1.51,0.19,3.04,0.3,4.56
		c0.07,1.07,0.13,2.13-0.4,3.08c-1.84,1.16-1.93,1.14-4.03-0.63c-0.67-5.01-1.06-10.15-0.17-15.24c-0.34-1.26-0.65-2.42-0.97-3.62
		c0.39-0.37,0.69-0.66,1.01-0.96c-1.72-2.51-1.77-5.47-1.62-8.13C109.54,268.75,108.99,268.53,108.37,268.41z"/>
	<path class="st1" d="M338.23,261.9c0.44-2.89,0.54-5.76-0.2-8.63c-0.26-1.02-0.22-2.12-0.25-3.19c-0.04-1.52-0.01-3.05-0.01-4.9
		c-0.79-1.91-1.41-4.11,1.13-5.98c1.8-0.53,3.8,0.01,5.52-0.25c1.68,0.6,3.11,1.11,4.65,1.66c0.59,1.17,1.27,2.37,1.81,3.63
		c0.72,1.69,1.25,3.44,1.19,5.32c-0.03,0.76-0.08,1.56,0.11,2.28c0.95,3.43,0.8,6.97,1.11,10.47c0.01,0.15,0.05,0.3,0.08,0.45
		c-0.66,1.39,0.17,2.7,0.24,4.13c-0.14,0.68-0.29,1.43-0.41,2c0.47,4.89,0.91,9.6,1.4,14.66c-0.13,0.37-0.38,1.09-0.69,1.99
		c-0.81,0.71-1.73,1.51-2.56,2.23c-1.66,0.26-3.17,0.49-4.71,0.73c-1.62-0.2-3.28-0.41-5.14-0.64c-0.34-0.26-0.83-0.61-1.31-0.99
		c-0.48-0.37-0.94-0.76-1.45-1.19c-0.25-1.02-0.5-2.05-0.68-2.77c0.18-1.85,0.36-3.37,0.46-4.89c0.1-1.52-0.09-3.09,0.96-4.45
		c-1.06-1.99-0.89-4.19-1.45-6.27c0.17-1.02,0.43-2.07,0.49-3.13C338.55,263.42,338.33,262.66,338.23,261.9z M343.26,282.75
		c1.06-0.21,1.43-0.63,1.55-1.27c-0.09-0.68-0.44-1.12-1.11-1.28c-0.68,0.12-1.04,0.54-1.14,1.33
		C342.73,281.82,342.94,282.2,343.26,282.75z"/>
	<path class="st2" d="M238.64,200.87c0.43-1.07,1.31-1.64,2.29-2.13c1.36-0.68,2.69-1.43,4.54-2.42c0.9-0.22,2.5,0.13,3.88-0.78
		c0.47-0.31,1.17-0.27,1.77-0.39c0.9-0.18,1.85-0.24,2.67-0.58c2.86-1.19,5.86-1.68,8.9-2.02c0.3-0.03,0.58-0.18,1.13-0.37
		c0.57-0.77,1.27-1.72,1.95-2.64c0.9-0.09,0.69,0.89,1.19,1.16c0.56,0.25,1.11,0.5,2,0.91c1.2,0,2.72,0,4.26,0
		c1.11,0.94,2.16,1.82,3.36,2.83c0.61,0,1.36-0.03,2.12,0.01c0.48,0.03,0.83,0.32,0.95,0.82c-0.49,3.17-2.44,5.6-4.36,7.94
		c-3,3.67-6.49,6.86-10.22,9.72c-1.37,0.47-2.66,0.92-3.37,1.17c-2.91,0.7-5.13-0.19-7.4-0.29c-2.36-0.11-4.26-1.64-6.19-1.95
		c-4-1.97-6.16-5.38-8.89-8.52C239.07,202.64,238.85,201.76,238.64,200.87z"/>
	<path class="st2" d="M218.42,173.64c0.71,1.69,0.43,3.56,1.24,5.3c0.75,1.62,0.21,3.6,0.72,5.4c0.49,1.74,0.61,3.59,0.83,4.96
		c-0.32,2.68-0.58,4.93-0.88,7.43c-0.68,1.22-1.62,2.62-2.26,4.15c-0.58,1.38-0.86,2.9-1.19,4.37c-0.1,0.42,0.08,0.9,0.12,1.24
		c0.76,1.62,2.04,1.83,3.51,1.57c-0.2,0.4-0.29,0.93-0.61,1.18c-0.84,0.66-1.77,1.19-2.62,1.74c-1.28,0.2-2.49,0.38-4.17,0.65
		c-1.92-0.46-4.29-1.03-6.63-1.59c-1.11-1.37-2.16-2.67-3.23-4c0-2.02-0.02-4,0.01-5.98c0.01-0.45,0.15-0.9,0.27-1.34
		c0.68-2.5,1.37-5,2.06-7.49c0.2-0.74,0.33-1.52,0.67-2.19c0.82-1.62,1.62-3.28,2.67-4.75c1.67-2.36,3.14-4.83,4.67-7.32
		C215.03,175.68,216.42,174.22,218.42,173.64z"/>
	<path class="st2" d="M190.08,126.72c-0.15-4.56,0.05-9.11,0.09-13.67c0.01-1.36-0.1-2.71,0.48-4.04c0.28-0.66,0.15-1.49,0.23-2.25
		c0.18-1.8,0.17-3.62,0.92-5.36c0.34-0.79,0.19-1.79,0.26-2.69c1.37,0,2.74,0,3.96,0c1.41,0.7,2.64,1.31,3.63,1.8
		c2.35,2.53,2.65,5.76,4.08,7.8c0.92,4.43-0.13,8.14-0.9,11.94c-0.92,1.14-1.87,2.32-3.07,3.81c-0.96,0.64-2.17,1.58-3.51,2.3
		C194.28,127.43,192.2,127.72,190.08,126.72z"/>
	<path class="st2" d="M282.08,190.07c-4.16-0.93-8.26-2.09-12.14-3.57c-1.49-0.08-2.86-0.15-4.2-0.22
		c-4.79,0.95-9.56,1.89-14.27,2.82c-0.64,0.52-1.23,0.99-1.78,1.43c-0.35,0.08-0.64,0.21-0.94,0.21c-1.52,0.03-3.03-0.06-4.47,0.71
		c-1.32,0.7-3.01,0.37-4.22,1.58c-1.01,1.01-2.61,0.76-3.82,1.41c-0.49-1.28-1.2-2.51-0.86-3.95c0,0,0-0.01,0-0.01
		c0.2-0.78,1.03-1.21,1.81-1.02c0.19,0.05,0.37,0.09,0.57,0.14c2.07-1.24,4.28-2.22,6.63-2.94c2.18-0.67,4.28-1.62,6.44-2.34
		c2.74-0.9,5.51-1.69,8.26-2.53c2.19,0.27,4.17-0.72,6.26-1.04c1.04-0.16,2.04-0.59,3.2-0.94h8.13c1.37,0.65,2.74,1.31,3.96,1.88
		c1.39,1.33,1.95,2.91,2.51,4.31C283.35,187.62,282.73,188.85,282.08,190.07z"/>
	<path class="st2" d="M188.36,184.47c-0.27-0.7-0.66-1.38-0.8-2.1c-0.19-1.03-0.2-2.09-0.31-3.3c0.76-2.15,1.47-4.47,0.63-6.79
		c0.24-1.18,0.59-2.2,0.63-3.23c0.04-1.04-0.23-2.09-0.36-3.06c0.28-0.95,0.54-1.82,0.69-2.32c-0.21-2.62-0.39-4.87-0.58-7.21
		c0.28-0.8,0.59-1.65,0.89-2.5c0.57,0.16,1.19,0.23,1.7,0.51c0.52,0.29,1.06,0.7,1.37,1.19c1.07,1.69,2.99,2.48,4.15,4.08
		c1.08,1.49,2.02,2.94,2.25,4.87c0.18,1.48,0.98,2.88,0.64,5.01c-0.83,3.5-3.12,6.91-5.35,10.3
		C192.59,181.94,190.83,183.72,188.36,184.47z"/>
	<path class="st2" d="M287.53,204.67c0.64,0.96,0.38,2.06,0.46,3.11c0.12,1.51,0.97,2.88,0.83,4.46c-0.12,1.36-0.1,2.74-0.07,4.11
		c0.05,2.6-0.04,5.14-0.84,7.67c-0.49,1.57-0.28,3.36-1.24,4.81c-0.23,0.35-0.66,0.56-1,0.84c-1.31-0.77-2.62-1.54-3.46-2.03
		c-2.74-2.94-3.78-6.18-5.2-9.13c-0.91-5.06,1.68-8.54,5.59-12.07C283.75,205.79,285.46,204.77,287.53,204.67z"/>
	<path class="st2" d="M183.4,152.1c0.06,2.73,0.13,5.45,0.18,8.18c0.03,1.82-0.08,3.65,0.04,5.46c0.12,1.71-0.12,3.32-0.83,4.79
		c0.2,1.01,0.37,1.9,0.53,2.72c-0.22,2.02-0.44,3.97-0.62,5.61c0.64,2.05,1.18,3.77,1.72,5.48c-0.7,0.65-1.34,1.26-1.99,1.88
		c-0.28-0.11-0.66-0.14-0.81-0.34c-1.12-1.44-2.31-2.79-2.72-4.7c-0.32-1.47-1.03-2.86-1.51-4.1c0-1.72-0.03-3.24,0.01-4.77
		c0.02-0.6,0.19-1.19,0.28-1.79c0.07-0.44,0.19-0.89,0.17-1.33c-0.02-0.45-0.19-0.89-0.32-1.41c0.48-1.54,0.98-3.14,1.54-4.96
		c-0.38-3.16-0.08-6.46,1.47-9.63C181.26,152.3,182.32,152.18,183.4,152.1z"/>
	<path class="st2" d="M212.75,125.09c0.4,0.85,0.46,1.74,0.36,2.65c-0.21,1.83,0.12,3.58,0.53,5.36c0.58,2.48,1.37,4.94,1.22,7.55
		c-0.02,0.3,0,0.63,0.12,0.89c0.98,2.15,0.7,4.42,0.7,6.66c-1.06,0.09-2.12,0.19-3.11,0.28c-2.03-0.67-3.66-1.7-4.83-3.81
		c-0.14-3.24-0.28-6.73,0.09-10.3c0.46-0.4,0.91-0.8,1.52-1.32c-0.16-0.61-0.35-1.32-0.54-2.03c0.09-1.39,1.11-2.1,2.1-2.82
		C211.74,127.27,211.58,125.79,212.75,125.09z"/>
	<path class="st2" d="M215.29,93.13c-0.2-0.22-0.41-0.44-0.8-0.86c-0.06-0.82-0.05-1.89-0.24-2.93s-0.58-2.04-0.9-3.09
		c-0.07-2.23,0.48-4.56-0.77-6.74c0.23-0.85,0.46-1.72,0.7-2.63c-0.34-0.99-0.69-1.99-1.06-3.04c0.27-0.39,0.52-0.74,0.76-1.09
		c1.01,0.35,2.06,0.61,3.01,1.07c0.81,0.4,1.5,1.04,2.24,1.57c0.38,0.7,0.74,1.37,1.16,2.15c-0.14,0.5-0.3,1.05-0.51,1.76
		c0.48,0.82,1.01,1.72,1.67,2.84c-0.06,1.93-0.12,4.06-0.18,6.33c-0.6,0.92-1.26,1.93-2.1,3.24
		C217.46,92.1,216.38,92.62,215.29,93.13z"/>
	<path class="st0" d="M175.44,29.5c0-0.76,0-1.52,0-2.11c0.68-1.88,2.01-2.86,3.6-3.56c1.52-0.36,3.03-0.42,4.61,0.12
		c1.46,0.79,2.5,2.1,3.65,3.44c0,1.38,0,2.75,0,4.17c-2.17,3.02-2.17,3.02-4.97,3.64c-1.31-0.46-2.74-0.96-3.95-1.38
		C176.76,32.63,176.06,31.1,175.44,29.5z"/>
	<path class="st0" d="M194.11,30.28c-0.44-1.3-0.78-2.3-1.14-3.35c0.57-1.77,1.32-3.41,2.07-4.74c1.19-1.16,2.45-1.07,3.82-1.21
		c1.12,0.46,2.37,0.98,3.72,1.54c0.4,0.59,0.83,1.21,1.32,1.92c0,1.01,0,2.06,0,3.32c-0.6,1.7-1.44,3.47-3.61,4.55
		c-0.81,0-1.87,0-3.11,0C196.31,31.73,195.3,31.07,194.11,30.28z"/>
	<path class="st2" d="M228.9,196.89c-0.4,0.91-0.4,0.91-1.58,0.74c-0.48-0.63-0.81-1.43-0.58-2.12c0.8-2.41,0.2-4.83,0.13-7.24
		c-0.04-1.33-0.55-2.66-0.95-3.95c-0.41-1.32-0.59-2.65-0.57-4.03c0.03-2.12,0.09-4.25-0.82-6.27c-0.32-0.7,0-1.49,0.39-2.17
		c0.55,0.25,1.14,0.45,1.65,0.77c0.38,0.23,0.67,0.61,0.91,0.83c0.48,1.25,0.92,2.37,1.33,3.51c0.74,2.04,0.91,4.17,0.99,6.31
		c0.04,1.07,0,2.13,0.03,3.2c0.11,3.21,0.19,6.41-0.87,9.52C228.87,196.26,228.92,196.59,228.9,196.89z"/>
	<path class="st2" d="M207.55,75.58c0.49,2.2,1.17,4.37,0.89,6.69c-0.08,0.71,0.25,1.47,0.37,2.21c0.24,1.49,0.54,2.97,0.68,4.47
		c0.09,0.9-0.1,1.81-0.64,2.6c-1.91-1.04-3.12-2.79-4.56-4.41c-0.61-1.95-1.58-3.9-0.95-6.47c0.45-0.88,1.02-2.12,1.72-3.28
		C205.62,76.47,206.41,75.74,207.55,75.58z"/>
	<path class="st2" d="M220.63,140.91c-0.22-0.19-0.44-0.39-0.83-0.72c-0.05-0.58-0.11-1.31-0.16-2.05
		c-0.07-1.05,0.05-2.15-0.25-3.12c-0.83-2.64-0.85-5.31-0.6-8.01c0.1-1.04,0.19-2.08,0.28-3.12c1.03,0.29,2.07,0.57,3.29,0.91
		c0.54,0.51,1.19,1.13,1.89,1.8c-0.02,3.28-1.36,6.36-0.96,9.4c-0.4,1.22-0.74,2.23-1.08,3.27
		C221.68,139.8,221.16,140.35,220.63,140.91z"/>
	<path class="st2" d="M186.16,102.11c-0.19,1.78-0.44,3.55-0.55,5.33c-0.12,1.8-0.1,3.61-0.14,5.41c-0.01,0.45,0.08,0.94-0.07,1.35
		c-0.97,2.75-0.46,5.68-1.1,8.46c-1.82-1.78-2.4-4.18-3.35-6.61c0.9-2.2,1.05-4.62,0.96-6.86c0.94-2.01,1.77-3.81,2.63-5.6
		C184.87,102.9,185.33,102.3,186.16,102.11z"/>
	<path class="st1" d="M195.09,59.67c-1.38,0.56-2.86,0.46-4.29,0.13c-1.2-1.24-1.22-1.23-1.65-2.65c0.96-2.7,1.44-3.04,4.47-2.87
		c0.72,0.66,1.6,1.46,2.29,2.1C196.3,57.81,195.83,58.72,195.09,59.67z"/>
	<path class="st1" d="M293.86,221.7c0.31-0.23,0.55-0.41,0.79-0.58c0.25,0.1,0.51,0.21,0.76,0.31c0.13,0.25,0.35,0.5,0.36,0.76
		c0.04,1.03,0.02,2.06,0.02,2.97c-0.41,0.29-0.64,0.46-0.95,0.67c-0.31-0.19-0.65-0.4-1.02-0.63c-0.06-0.62-0.16-1.21-0.15-1.8
		C293.67,222.8,293.79,222.22,293.86,221.7z"/>
	<path class="st1" d="M158.48,289.86c-0.76-1.13-0.59-1.9,0.13-2.61c0.28,0.05,0.62,0.01,0.83,0.16c0.77,0.55,1.29,1.24,0.8,2.24
		C159.76,290.18,159.21,290.18,158.48,289.86z"/>
	<path class="st1" d="M343.26,282.75c-0.32-0.56-0.53-0.93-0.7-1.22c0.1-0.79,0.46-1.21,1.14-1.33c0.66,0.16,1.02,0.59,1.11,1.28
		C344.69,282.12,344.32,282.54,343.26,282.75z"/>
</g>
</svg>
