<svg width="337" height="379" viewBox="0 0 337 379" fill="none" xmlns="http://www.w3.org/2000/svg">
<path d="M248.84 240.2C248.84 190.68 208.7 150.54 159.18 150.54C109.66 150.54 69.52 190.68 69.52 240.2C69.52 289.72 109.66 329.86 159.18 329.86C159.94 329.86 160.7 329.82 161.46 329.8V329.86H248.85L259.25 320.15L248.85 242.47H248.79C248.81 241.71 248.85 240.96 248.85 240.19L248.84 240.2Z" fill="#270741" stroke="#270741" stroke-width="3.81" stroke-miterlimit="10"/>
<path d="M159.17 60.8699C158.41 60.8699 157.65 60.9099 156.89 60.9299V60.8699L79.19 50.1799L69.5 60.8699V148.26H69.56C69.54 149.02 69.5 149.77 69.5 150.54C69.5 200.06 109.64 240.2 159.16 240.2C208.68 240.2 248.82 200.06 248.82 150.54C248.82 101.02 208.68 60.8799 159.16 60.8799L159.17 60.8699Z" fill="#270741" stroke="#270741" stroke-width="3.81" stroke-miterlimit="10"/>
<path d="M259.71 229.32C259.71 179.8 219.57 139.66 170.05 139.66C120.53 139.66 80.3901 179.8 80.3901 229.32C80.3901 278.84 120.53 318.98 170.05 318.98C170.81 318.98 171.57 318.94 172.33 318.92V318.98H259.72V231.59H259.66C259.68 230.83 259.72 230.08 259.72 229.31L259.71 229.32Z" fill="white" stroke="#270741" stroke-width="3.81" stroke-miterlimit="10"/>
<path d="M170.05 50C169.29 50 168.53 50.04 167.77 50.06V50H80.3799V137.39H80.4399C80.4199 138.15 80.3799 138.9 80.3799 139.67C80.3799 189.19 120.52 229.33 170.04 229.33C219.56 229.33 259.7 189.19 259.7 139.67C259.7 90.15 219.57 50 170.05 50Z" fill="white" stroke="#270741" stroke-width="3.81" stroke-miterlimit="10"/>
<path opacity="0.65" d="M177.14 57.87C176.38 57.87 175.62 57.91 174.86 57.93V57.87H87.47V145.26H87.53C87.51 146.02 87.47 146.77 87.47 147.54C87.47 197.06 127.61 237.2 177.13 237.2C226.65 237.2 266.79 197.06 266.79 147.54C266.79 98.02 226.65 57.88 177.13 57.88L177.14 57.87Z" fill="#00CBEC"/>
<path opacity="0.65" d="M177.14 326.72C177.9 326.72 178.66 326.68 179.42 326.66V326.72H266.81V239.33H266.75C266.77 238.57 266.81 237.82 266.81 237.05C266.81 187.53 226.67 147.39 177.15 147.39C127.63 147.39 87.49 187.53 87.49 237.05C87.49 286.57 127.63 326.71 177.15 326.71L177.14 326.72Z" fill="#A112FF"/>
<path d="M170.05 50C169.29 50 168.53 50.04 167.77 50.06V50H80.3799V137.39H80.4399C80.4199 138.15 80.3799 138.9 80.3799 139.67C80.3799 189.19 120.52 229.33 170.04 229.33C219.56 229.33 259.7 189.19 259.7 139.67C259.7 90.15 219.57 50 170.05 50Z" stroke="#270741" stroke-width="3.81" stroke-miterlimit="10"/>
<path d="M169.99 280.12V245.61" stroke="#270741" stroke-width="3.81" stroke-miterlimit="10"/>
<path d="M210.96 233.75L227.17 262.12" stroke="#270741" stroke-width="3.81" stroke-miterlimit="10"/>
<path d="M129.03 233.75L112.82 262.12" stroke="#270741" stroke-width="3.81" stroke-miterlimit="10"/>
<path d="M169.99 86.23V120.74" stroke="#270741" stroke-width="3.81" stroke-miterlimit="10"/>
<path d="M210.96 132.61L227.17 104.24" stroke="#270741" stroke-width="3.81" stroke-miterlimit="10"/>
<path d="M129.03 132.61L112.82 104.24" stroke="#270741" stroke-width="3.81" stroke-miterlimit="10"/>
<path d="M259.71 229.32C259.71 179.8 219.57 139.66 170.05 139.66C120.53 139.66 80.3901 179.8 80.3901 229.32C80.3901 278.84 120.53 318.98 170.05 318.98C170.81 318.98 171.57 318.94 172.33 318.92V318.98H259.72V231.59H259.66C259.68 230.83 259.72 230.08 259.72 229.31L259.71 229.32Z" stroke="#270741" stroke-width="3.81" stroke-miterlimit="10"/>
<path d="M259.71 229.32C259.71 179.8 219.57 139.66 170.05 139.66C120.53 139.66 80.3901 179.8 80.3901 229.32C80.3901 278.84 120.53 318.98 170.05 318.98C170.81 318.98 171.57 318.94 172.33 318.92V318.98H259.72V231.59H259.66C259.68 230.83 259.72 230.08 259.72 229.31L259.71 229.32Z" stroke="#270741" stroke-width="3.81" stroke-miterlimit="10"/>
<path d="M169.99 215.18C186.939 215.18 200.68 201.44 200.68 184.49C200.68 167.54 186.939 153.8 169.99 153.8C153.04 153.8 139.3 167.54 139.3 184.49C139.3 201.44 153.04 215.18 169.99 215.18Z" fill="white" stroke="#270741" stroke-width="3.81" stroke-miterlimit="10"/>
<path d="M169.99 205.16C158.6 205.16 149.33 195.89 149.33 184.5C149.33 173.11 158.6 163.83 169.99 163.83C181.38 163.83 190.65 173.1 190.65 184.5C190.65 195.9 181.38 205.16 169.99 205.16Z" fill="white" stroke="#FF5543" stroke-width="3.81" stroke-miterlimit="10"/>
<path d="M169.99 195.49C176.065 195.49 180.99 190.565 180.99 184.49C180.99 178.415 176.065 173.49 169.99 173.49C163.915 173.49 158.99 178.415 158.99 184.49C158.99 190.565 163.915 195.49 169.99 195.49Z" fill="white" stroke="#270741" stroke-width="4.54" stroke-miterlimit="10"/>
<path d="M169.99 215.18C186.939 215.18 200.68 201.44 200.68 184.49C200.68 167.54 186.939 153.8 169.99 153.8C153.04 153.8 139.3 167.54 139.3 184.49C139.3 201.44 153.04 215.18 169.99 215.18Z" stroke="#270741" stroke-width="3.81" stroke-miterlimit="10"/>
</svg>
