<svg width="335" height="379" viewBox="0 0 335 379" fill="none" xmlns="http://www.w3.org/2000/svg">
<mask id="mask0_115_11467" style="mask-type:luminance" maskUnits="userSpaceOnUse" x="8" y="130" width="69" height="108">
<path d="M8.89189 180.733C6.7968 184.458 13.7032 186.93 15.4193 189.76C32.0537 204.963 46.593 222.964 64.575 236.463C72.271 240.24 79.6301 232.055 75.1241 224.974C64.0275 211.57 50.8148 199.861 39.2233 186.836C33.9803 181.186 33.2855 182.217 39.3813 175.946C49.4251 165.625 59.6373 155.462 69.8496 145.31C74.6925 141.217 71.8604 132.863 66.3437 131.012C62.2693 129.433 59.8689 130.307 56.6473 133.547C40.8236 149.371 24.8314 165.026 8.89189 180.744V180.733Z" fill="white"/>
</mask>
<g mask="url(#mask0_115_11467)">
<mask id="mask1_115_11467" style="mask-type:luminance" maskUnits="userSpaceOnUse" x="60" y="83" width="77" height="76">
<path d="M136.092 83.1309H60.29V158.882H136.092V83.1309Z" fill="white"/>
</mask>
<g mask="url(#mask1_115_11467)">
<path d="M60.0269 155.094H136.356" stroke="#270741" stroke-width="5.04"/>
<path d="M60.0269 139.944H136.356" stroke="#270741" stroke-width="5.04"/>
<path d="M60.0269 147.519H136.356" stroke="#270741" stroke-width="5.04"/>
<path d="M60.0269 132.369H136.356" stroke="#270741" stroke-width="5.04"/>
<path d="M-15.7754 155.094H60.5533" stroke="#270741" stroke-width="5.04"/>
<path d="M-15.7754 139.944H60.5533" stroke="#270741" stroke-width="5.04"/>
<path d="M-15.7754 147.519H60.5533" stroke="#270741" stroke-width="5.04"/>
<path d="M-15.7754 132.369H60.5533" stroke="#270741" stroke-width="5.04"/>
</g>
<mask id="mask2_115_11467" style="mask-type:luminance" maskUnits="userSpaceOnUse" x="60" y="158" width="77" height="77">
<path d="M136.092 158.882H60.29V234.632H136.092V158.882Z" fill="white"/>
</mask>
<g mask="url(#mask2_115_11467)">
<path d="M60.0269 230.845H136.356" stroke="#270741" stroke-width="5.04"/>
<path d="M60.0269 215.694H136.356" stroke="#270741" stroke-width="5.04"/>
<path d="M60.0269 200.544H136.356" stroke="#270741" stroke-width="5.04"/>
<path d="M60.0269 185.394H136.356" stroke="#270741" stroke-width="5.04"/>
<path d="M60.0269 170.244H136.356" stroke="#270741" stroke-width="5.04"/>
<path d="M60.0269 223.269H136.356" stroke="#270741" stroke-width="5.04"/>
<path d="M60.0269 208.119H136.356" stroke="#270741" stroke-width="5.04"/>
<path d="M60.0269 192.969H136.356" stroke="#270741" stroke-width="5.04"/>
<path d="M60.0269 177.819H136.356" stroke="#270741" stroke-width="5.04"/>
<path d="M60.0269 162.669H136.356" stroke="#270741" stroke-width="5.04"/>
<path d="M-15.7754 230.845H60.5533" stroke="#270741" stroke-width="5.04"/>
<path d="M-15.7754 215.694H60.5533" stroke="#270741" stroke-width="5.04"/>
<path d="M-15.7754 200.544H60.5533" stroke="#270741" stroke-width="5.04"/>
<path d="M-15.7754 185.394H60.5533" stroke="#270741" stroke-width="5.04"/>
<path d="M-15.7754 170.244H60.5533" stroke="#270741" stroke-width="5.04"/>
<path d="M-15.7754 223.269H60.5533" stroke="#270741" stroke-width="5.04"/>
<path d="M-15.7754 208.119H60.5533" stroke="#270741" stroke-width="5.04"/>
<path d="M-15.7754 192.969H60.5533" stroke="#270741" stroke-width="5.04"/>
<path d="M-15.7754 177.819H60.5533" stroke="#270741" stroke-width="5.04"/>
<path d="M-15.7754 162.669H60.5533" stroke="#270741" stroke-width="5.04"/>
</g>
<mask id="mask3_115_11467" style="mask-type:luminance" maskUnits="userSpaceOnUse" x="60" y="234" width="77" height="77">
<path d="M136.092 234.632H60.29V310.383H136.092V234.632Z" fill="white"/>
</mask>
<g mask="url(#mask3_115_11467)">
<path d="M60.0269 238.42H136.356" stroke="#270741" stroke-width="5.04"/>
<path d="M-15.7754 238.42H60.5533" stroke="#270741" stroke-width="5.04"/>
</g>
<mask id="mask4_115_11467" style="mask-type:luminance" maskUnits="userSpaceOnUse" x="-16" y="83" width="77" height="76">
<path d="M60.2901 83.1308H-15.5122V158.881H60.2901V83.1308Z" fill="white"/>
</mask>
<g mask="url(#mask4_115_11467)">
<path d="M60.0269 155.094H136.356" stroke="#270741" stroke-width="5.04"/>
<path d="M60.0269 139.944H136.356" stroke="#270741" stroke-width="5.04"/>
<path d="M60.0269 147.519H136.356" stroke="#270741" stroke-width="5.04"/>
<path d="M60.0269 132.369H136.356" stroke="#270741" stroke-width="5.04"/>
<path d="M-15.7754 155.094H60.5533" stroke="#270741" stroke-width="5.04"/>
<path d="M-15.7754 139.944H60.5533" stroke="#270741" stroke-width="5.04"/>
<path d="M-15.7754 147.519H60.5533" stroke="#270741" stroke-width="5.04"/>
<path d="M-15.7754 132.369H60.5533" stroke="#270741" stroke-width="5.04"/>
</g>
<mask id="mask5_115_11467" style="mask-type:luminance" maskUnits="userSpaceOnUse" x="-16" y="158" width="77" height="77">
<path d="M60.2901 158.882H-15.5122V234.632H60.2901V158.882Z" fill="white"/>
</mask>
<g mask="url(#mask5_115_11467)">
<path d="M60.0269 230.845H136.356" stroke="#270741" stroke-width="5.04"/>
<path d="M60.0269 215.694H136.356" stroke="#270741" stroke-width="5.04"/>
<path d="M60.0269 200.544H136.356" stroke="#270741" stroke-width="5.04"/>
<path d="M60.0269 185.394H136.356" stroke="#270741" stroke-width="5.04"/>
<path d="M60.0269 170.244H136.356" stroke="#270741" stroke-width="5.04"/>
<path d="M60.0269 223.269H136.356" stroke="#270741" stroke-width="5.04"/>
<path d="M60.0269 208.119H136.356" stroke="#270741" stroke-width="5.04"/>
<path d="M60.0269 192.969H136.356" stroke="#270741" stroke-width="5.04"/>
<path d="M60.0269 177.819H136.356" stroke="#270741" stroke-width="5.04"/>
<path d="M60.0269 162.669H136.356" stroke="#270741" stroke-width="5.04"/>
<path d="M-15.7754 230.845H60.5533" stroke="#270741" stroke-width="5.04"/>
<path d="M-15.7754 215.694H60.5533" stroke="#270741" stroke-width="5.04"/>
<path d="M-15.7754 200.544H60.5533" stroke="#270741" stroke-width="5.04"/>
<path d="M-15.7754 185.394H60.5533" stroke="#270741" stroke-width="5.04"/>
<path d="M-15.7754 170.244H60.5533" stroke="#270741" stroke-width="5.04"/>
<path d="M-15.7754 223.269H60.5533" stroke="#270741" stroke-width="5.04"/>
<path d="M-15.7754 208.119H60.5533" stroke="#270741" stroke-width="5.04"/>
<path d="M-15.7754 192.969H60.5533" stroke="#270741" stroke-width="5.04"/>
<path d="M-15.7754 177.819H60.5533" stroke="#270741" stroke-width="5.04"/>
<path d="M-15.7754 162.669H60.5533" stroke="#270741" stroke-width="5.04"/>
</g>
<mask id="mask6_115_11467" style="mask-type:luminance" maskUnits="userSpaceOnUse" x="-16" y="234" width="77" height="77">
<path d="M60.2901 234.632H-15.5122V310.383H60.2901V234.632Z" fill="white"/>
</mask>
<g mask="url(#mask6_115_11467)">
<path d="M60.0269 238.42H136.356" stroke="#270741" stroke-width="5.04"/>
<path d="M-15.7754 238.42H60.5533" stroke="#270741" stroke-width="5.04"/>
</g>
</g>
<path opacity="0.65" d="M255.718 164.242C253.818 161.214 252.028 157.917 249.378 155.548C239.968 147.164 228.448 143.087 215.608 142.217C211.048 141.907 206.658 142.877 202.228 143.786C182.978 147.724 172.738 162.424 171.668 164.262C170.548 166.181 167.628 166.391 166.148 164.262C164.928 162.503 163.008 154.359 135.588 143.786C131.388 142.167 126.768 141.917 122.208 142.217C109.358 143.077 97.8481 147.164 88.4381 155.548C85.7881 157.917 83.9981 161.214 82.0981 164.242C78.1081 170.588 74.2481 177.084 73.1481 184.508C71.6081 194.891 70.9481 205.174 73.4081 215.707C76.9981 231.077 83.5381 245.077 93.1881 257.729C99.2381 265.663 106.618 272.618 114.788 278.724C118.678 281.632 122.648 284.44 126.488 287.398C138.478 296.592 151.718 303.817 165.878 309.563C167.628 310.273 170.228 310.273 171.968 309.563C186.128 303.817 199.368 296.592 211.358 287.398C215.208 284.45 219.178 281.632 223.058 278.724C231.228 272.608 238.608 265.653 244.658 257.729C250.252 250.395 254.797 242.609 258.331 234.366C259.796 230.947 258.38 227.449 259.5 223.873C260.339 221.195 263.79 218.473 264.438 215.707C266.898 205.174 266.238 194.891 264.698 184.508C263.598 177.084 259.738 170.588 255.748 164.242H255.718Z" fill="#00CBEC"/>
<path opacity="0.65" d="M248.188 146.784C246.528 144.146 244.978 141.278 242.668 139.219C234.468 131.914 224.438 128.367 213.258 127.617C209.288 127.347 205.458 128.197 201.608 128.986C184.838 132.414 175.918 153.22 174.988 154.829C174.018 156.497 171.468 156.687 170.178 154.829C169.118 153.3 167.448 138.2 143.558 128.986C139.898 127.577 135.878 127.357 131.908 127.617C120.718 128.367 110.688 131.924 102.498 139.219C100.188 141.278 98.6282 144.156 96.9782 146.784C93.4982 152.31 90.1382 157.967 89.1782 164.432C87.8382 173.476 87.2582 182.44 89.3982 191.604C92.5282 204.985 98.2182 217.186 106.618 228.199C111.888 235.104 118.308 241.16 125.428 246.486C128.818 249.015 132.268 251.473 135.618 254.041C146.058 262.056 157.588 268.341 169.918 273.348C171.438 273.968 173.708 273.968 175.228 273.348C187.558 268.341 199.098 262.056 209.528 254.041C212.878 251.473 216.338 249.025 219.718 246.486C226.838 241.16 233.258 235.104 238.528 228.199C246.928 217.176 252.618 204.985 255.748 191.604C257.888 182.43 257.318 173.476 255.968 164.432C255.008 157.967 251.648 152.31 248.168 146.784H248.188ZM232.278 193.682C230.718 202.626 226.978 210.631 222.018 218.016C208.448 238.232 190.648 253.132 168.738 262.755C167.448 263.325 167 263.346 166 263.346C165 263.346 163.998 263.315 162.718 262.755C140.798 253.132 123.008 238.232 109.438 218.016C104.478 210.631 100.738 202.626 99.1782 193.682C98.8782 191.953 98.7282 190.205 98.5182 188.466C98.5882 188.466 98.6482 188.456 98.7182 188.446C98.7182 187.317 98.6582 186.187 98.7282 185.058C98.8182 183.619 99.6282 182.79 101.018 182.57C102.428 182.35 102.928 183.269 103.338 184.409C106.298 192.633 110.888 199.848 116.198 206.603C124.528 217.186 133.948 226.58 144.968 234.145C148.188 236.353 151.658 238.232 155.178 239.891C157.228 240.85 159.578 241.34 161.838 241.56C163.858 241.759 167.588 241.759 169.608 241.56C171.868 241.34 174.218 240.86 176.268 239.891C179.788 238.232 183.258 236.353 186.478 234.145C197.498 226.58 206.918 217.196 215.248 206.603C220.558 199.848 225.148 192.623 228.108 184.409C228.518 183.259 229.028 182.34 230.428 182.57C231.818 182.79 232.618 183.619 232.718 185.058C232.788 186.187 232.728 187.317 232.728 188.446L232.928 188.466C232.708 190.205 232.568 191.963 232.268 193.682H232.278Z" fill="#A112FF"/>
<mask id="mask7_115_11467" style="mask-type:luminance" maskUnits="userSpaceOnUse" x="257" y="130" width="69" height="108">
<path d="M325.108 180.733C327.203 184.458 320.297 186.93 318.581 189.76C301.946 204.963 287.407 222.964 269.425 236.463C261.729 240.24 254.37 232.055 258.876 224.974C269.972 211.57 283.185 199.861 294.777 186.836C300.02 181.186 300.715 182.217 294.619 175.946C284.575 165.625 274.363 155.462 264.15 145.31C259.308 141.217 262.14 132.863 267.656 131.012C271.731 129.433 274.131 130.307 277.353 133.547C293.176 149.371 309.169 165.026 325.108 180.744V180.733Z" fill="white"/>
</mask>
<g mask="url(#mask7_115_11467)">
<mask id="mask8_115_11467" style="mask-type:luminance" maskUnits="userSpaceOnUse" x="197" y="83" width="77" height="76">
<path d="M197.908 83.1309H273.71V158.882H197.908V83.1309Z" fill="white"/>
</mask>
<g mask="url(#mask8_115_11467)">
<path d="M273.973 155.094H197.644" stroke="#270741" stroke-width="5.04"/>
<path d="M273.973 139.944H197.644" stroke="#270741" stroke-width="5.04"/>
<path d="M273.973 147.519H197.644" stroke="#270741" stroke-width="5.04"/>
<path d="M273.973 132.369H197.644" stroke="#270741" stroke-width="5.04"/>
<path d="M349.775 155.094H273.447" stroke="#270741" stroke-width="5.04"/>
<path d="M349.775 139.944H273.447" stroke="#270741" stroke-width="5.04"/>
<path d="M349.775 147.519H273.447" stroke="#270741" stroke-width="5.04"/>
<path d="M349.775 132.369H273.447" stroke="#270741" stroke-width="5.04"/>
</g>
<mask id="mask9_115_11467" style="mask-type:luminance" maskUnits="userSpaceOnUse" x="197" y="158" width="77" height="77">
<path d="M197.908 158.882H273.71V234.632H197.908V158.882Z" fill="white"/>
</mask>
<g mask="url(#mask9_115_11467)">
<path d="M273.973 230.845H197.644" stroke="#270741" stroke-width="5.04"/>
<path d="M273.973 215.694H197.644" stroke="#270741" stroke-width="5.04"/>
<path d="M273.973 200.544H197.644" stroke="#270741" stroke-width="5.04"/>
<path d="M273.973 185.394H197.644" stroke="#270741" stroke-width="5.04"/>
<path d="M273.973 170.244H197.644" stroke="#270741" stroke-width="5.04"/>
<path d="M273.973 223.269H197.644" stroke="#270741" stroke-width="5.04"/>
<path d="M273.973 208.119H197.644" stroke="#270741" stroke-width="5.04"/>
<path d="M273.973 192.969H197.644" stroke="#270741" stroke-width="5.04"/>
<path d="M273.973 177.819H197.644" stroke="#270741" stroke-width="5.04"/>
<path d="M273.973 162.669H197.644" stroke="#270741" stroke-width="5.04"/>
<path d="M349.775 230.845H273.447" stroke="#270741" stroke-width="5.04"/>
<path d="M349.775 215.694H273.447" stroke="#270741" stroke-width="5.04"/>
<path d="M349.775 200.544H273.447" stroke="#270741" stroke-width="5.04"/>
<path d="M349.775 185.394H273.447" stroke="#270741" stroke-width="5.04"/>
<path d="M349.775 170.244H273.447" stroke="#270741" stroke-width="5.04"/>
<path d="M349.775 223.269H273.447" stroke="#270741" stroke-width="5.04"/>
<path d="M349.775 208.119H273.447" stroke="#270741" stroke-width="5.04"/>
<path d="M349.775 192.969H273.447" stroke="#270741" stroke-width="5.04"/>
<path d="M349.775 177.819H273.447" stroke="#270741" stroke-width="5.04"/>
<path d="M349.775 162.669H273.447" stroke="#270741" stroke-width="5.04"/>
</g>
<mask id="mask10_115_11467" style="mask-type:luminance" maskUnits="userSpaceOnUse" x="197" y="234" width="77" height="77">
<path d="M197.908 234.632H273.71V310.383H197.908V234.632Z" fill="white"/>
</mask>
<g mask="url(#mask10_115_11467)">
<path d="M273.973 238.42H197.644" stroke="#270741" stroke-width="5.04"/>
<path d="M349.775 238.42H273.447" stroke="#270741" stroke-width="5.04"/>
</g>
<mask id="mask11_115_11467" style="mask-type:luminance" maskUnits="userSpaceOnUse" x="273" y="83" width="77" height="76">
<path d="M273.71 83.1308H349.512V158.881H273.71V83.1308Z" fill="white"/>
</mask>
<g mask="url(#mask11_115_11467)">
<path d="M273.973 155.094H197.644" stroke="#270741" stroke-width="5.04"/>
<path d="M273.973 139.944H197.644" stroke="#270741" stroke-width="5.04"/>
<path d="M273.973 147.519H197.644" stroke="#270741" stroke-width="5.04"/>
<path d="M273.973 132.369H197.644" stroke="#270741" stroke-width="5.04"/>
<path d="M349.775 155.094H273.447" stroke="#270741" stroke-width="5.04"/>
<path d="M349.775 139.944H273.447" stroke="#270741" stroke-width="5.04"/>
<path d="M349.775 147.519H273.447" stroke="#270741" stroke-width="5.04"/>
<path d="M349.775 132.369H273.447" stroke="#270741" stroke-width="5.04"/>
</g>
<mask id="mask12_115_11467" style="mask-type:luminance" maskUnits="userSpaceOnUse" x="273" y="158" width="77" height="77">
<path d="M273.71 158.882H349.512V234.632H273.71V158.882Z" fill="white"/>
</mask>
<g mask="url(#mask12_115_11467)">
<path d="M273.973 230.845H197.644" stroke="#270741" stroke-width="5.04"/>
<path d="M273.973 215.694H197.644" stroke="#270741" stroke-width="5.04"/>
<path d="M273.973 200.544H197.644" stroke="#270741" stroke-width="5.04"/>
<path d="M273.973 185.394H197.644" stroke="#270741" stroke-width="5.04"/>
<path d="M273.973 170.244H197.644" stroke="#270741" stroke-width="5.04"/>
<path d="M273.973 223.269H197.644" stroke="#270741" stroke-width="5.04"/>
<path d="M273.973 208.119H197.644" stroke="#270741" stroke-width="5.04"/>
<path d="M273.973 192.969H197.644" stroke="#270741" stroke-width="5.04"/>
<path d="M273.973 177.819H197.644" stroke="#270741" stroke-width="5.04"/>
<path d="M273.973 162.669H197.644" stroke="#270741" stroke-width="5.04"/>
<path d="M349.775 230.845H273.447" stroke="#270741" stroke-width="5.04"/>
<path d="M349.775 215.694H273.447" stroke="#270741" stroke-width="5.04"/>
<path d="M349.775 200.544H273.447" stroke="#270741" stroke-width="5.04"/>
<path d="M349.775 185.394H273.447" stroke="#270741" stroke-width="5.04"/>
<path d="M349.775 170.244H273.447" stroke="#270741" stroke-width="5.04"/>
<path d="M349.775 223.269H273.447" stroke="#270741" stroke-width="5.04"/>
<path d="M349.775 208.119H273.447" stroke="#270741" stroke-width="5.04"/>
<path d="M349.775 192.969H273.447" stroke="#270741" stroke-width="5.04"/>
<path d="M349.775 177.819H273.447" stroke="#270741" stroke-width="5.04"/>
<path d="M349.775 162.669H273.447" stroke="#270741" stroke-width="5.04"/>
</g>
<mask id="mask13_115_11467" style="mask-type:luminance" maskUnits="userSpaceOnUse" x="273" y="234" width="77" height="77">
<path d="M273.71 234.632H349.512V310.383H273.71V234.632Z" fill="white"/>
</mask>
<g mask="url(#mask13_115_11467)">
<path d="M273.973 238.42H197.644" stroke="#270741" stroke-width="5.04"/>
<path d="M349.775 238.42H273.447" stroke="#270741" stroke-width="5.04"/>
</g>
</g>
<path d="M239.848 127.048C232.788 121.801 224.438 119.113 215.368 117.904C201.548 116.055 189.918 120.082 179.978 128.467C176.038 131.784 172.188 138.72 170.408 142.187C170.058 142.867 168.988 142.787 168.728 142.067C166.728 136.471 162.768 132.624 157.828 128.467C147.878 120.092 136.258 116.065 122.438 117.904C113.368 119.113 105.018 121.801 97.9582 127.048C87.3082 134.972 80.4082 145.255 77.9082 157.537C76.5082 164.392 75.8165 170.286 76.0482 178.503C76.473 193.571 81.0001 204.386 85.3482 215.967C89.6963 227.548 95.6882 234.085 100.208 239.661C105.478 246.166 112.108 251.483 118.298 257.169C129.288 267.272 142.438 274.677 156.398 280.883C159.398 282.212 162.818 282.812 166.098 283.551C167.938 283.971 169.868 283.971 171.708 283.551C174.988 282.802 178.408 282.212 181.408 280.883C195.368 274.677 208.518 267.272 219.508 257.169C225.698 251.483 232.328 246.156 237.598 239.661C242.118 234.085 249 223.873 252.458 215.967C257.374 204.729 261.5 190.895 261.758 178.503C261.758 171.408 261.298 164.392 259.898 157.537C257.398 145.255 250.498 134.962 239.848 127.048ZM254.968 186.367C251.728 199.748 245.838 211.95 237.148 222.962C231.698 229.868 225.048 235.924 217.688 241.25C214.188 243.778 210.608 246.236 207.138 248.805C196.338 256.819 184.408 263.105 171.648 268.112C170.078 268.731 167.728 268.731 166.158 268.112C153.398 263.105 141.468 256.819 130.668 248.805C127.198 246.236 123.628 243.788 120.118 241.25C112.758 235.924 106.108 229.868 100.658 222.962C91.9682 211.94 86.0782 199.748 82.8382 186.367C80.6182 177.193 81.2182 168.24 82.6082 159.196C83.5982 152.73 87.0782 147.074 90.6782 141.548C92.3882 138.91 93.9981 136.041 96.3881 133.983C104.868 126.678 115.248 123.13 126.818 122.381C130.928 122.111 135.098 122.341 138.878 123.75C163.588 132.954 165.318 148.053 166.418 149.592C167.748 151.451 170.388 151.261 171.388 149.592C172.348 147.993 181.578 127.178 198.928 123.75C202.918 122.96 206.878 122.121 210.988 122.381C222.568 123.13 232.938 126.688 241.418 133.983C243.808 136.041 245.418 138.92 247.128 141.548C250.728 147.074 254.208 152.73 255.198 159.196C256.588 168.24 257.188 177.203 254.968 186.367Z" fill="#270741"/>
<path d="M231.138 179.822C231.038 178.383 230.208 177.553 228.768 177.333C227.308 177.113 226.788 178.033 226.368 179.172C223.308 187.397 218.558 194.612 213.058 201.367C204.448 211.95 194.688 221.343 183.298 228.908C179.968 231.117 176.378 232.995 172.728 234.654C170.608 235.614 168.178 236.103 165.838 236.323C163.748 236.523 159.888 236.523 157.798 236.323C155.458 236.103 153.028 235.624 150.908 234.654C147.268 232.995 143.668 231.117 140.338 228.908C128.938 221.343 119.188 211.96 110.578 201.367C105.078 194.612 100.328 187.387 97.2681 179.172C96.8381 178.023 96.3181 177.103 94.8681 177.333C93.4281 177.553 92.598 178.383 92.498 179.822C92.418 180.951 92.4781 182.08 92.4781 183.209C92.4081 183.209 92.3381 183.219 92.2681 183.229C92.4881 184.968 92.6381 186.727 92.9581 188.446C94.5681 197.39 98.4381 205.394 103.568 212.779C117.608 232.995 136.018 247.895 158.688 257.519C160.018 258.088 161 258.349 162 258.349C162.5 258.349 163.598 258.078 164.928 257.519C187.598 247.895 206.008 232.995 220.048 212.779C225.178 205.394 229.048 197.39 230.658 188.446C230.968 186.717 231.118 184.968 231.348 183.229L231.138 183.209C231.138 182.08 231.198 180.951 231.118 179.822H231.138Z" fill="#270741"/>
<path d="M140.518 295.683C140.258 296.432 139.968 297.921 139.258 299.21C135.918 305.266 132.548 311.312 128.998 317.268C127.778 319.307 126.168 321.195 124.458 322.924C123.028 324.363 121.288 325.612 119.508 326.702C117.268 328.071 114.688 328.69 112.238 327.281C109.598 325.772 108.708 323.244 108.858 320.546C108.948 318.977 109.478 317.388 110.088 315.899C110.938 313.82 111.868 311.742 113.078 309.833C116.608 304.287 120.268 298.811 123.928 293.334C125.198 291.426 126.738 289.707 128.998 288.648C134.978 285.849 140.398 288.817 140.538 295.673L140.518 295.683ZM136.358 295.663C136.458 291.995 134.188 290.556 131.118 292.035C129.988 292.575 128.918 293.514 128.268 294.514C123.908 301.159 119.618 307.855 115.408 314.58C114.548 315.949 114.028 317.508 113.508 319.027C112.918 320.716 112.518 322.664 114.398 323.734C116.168 324.743 117.898 323.454 119.058 322.355C121.378 320.146 123.798 317.898 125.458 315.279C129.038 309.643 132.168 303.777 135.438 297.991C135.918 297.132 136.168 296.162 136.358 295.653V295.663Z" fill="#FF5543"/>
<path d="M108.288 275.976C107.608 277.545 107.318 279.414 106.168 280.623C99.6481 287.518 93.7481 294.993 85.6081 300.479C83.5781 301.848 81.208 302.908 78.838 303.727C76.228 304.637 73.378 304.797 71.278 302.688C69.068 300.47 69.0081 297.731 70.0981 295.043C70.6481 293.674 71.5181 292.385 72.4181 291.166C73.4781 289.737 74.5981 288.308 75.9281 287.099C81.5781 281.962 87.2981 276.886 93.0481 271.829C94.9481 270.16 97.238 269.181 99.958 269.041C105.018 268.791 107.898 271.229 108.288 275.976ZM103.778 276.736C103.838 273.618 102.788 272.748 100.098 272.858C98.1881 272.938 96.8381 273.818 95.5481 274.997C89.8381 280.243 84.048 285.42 78.388 290.706C76.988 292.015 75.868 293.584 74.758 295.123C74.258 295.823 73.9381 296.692 73.7881 297.521C73.4081 299.66 74.418 300.619 76.708 300.28C77.888 300.1 79.138 299.79 80.128 299.22C82.398 297.891 84.808 296.622 86.648 294.883C91.988 289.837 97.1181 284.6 102.238 279.364C103.078 278.504 103.468 277.265 103.758 276.756L103.778 276.736Z" fill="#FF5543"/>
<path d="M159.828 317.378C159.828 313.8 159.648 310.213 159.898 306.655C160.038 304.747 160.598 302.728 161.558 301.039C162.988 298.551 165.228 296.672 168.718 297.102C172.148 297.521 174.248 299.53 175.598 302.258C176.028 303.138 176.218 304.157 176.298 305.136C176.788 311.652 177.328 318.177 177.608 324.703C177.718 327.271 177.488 329.919 176.848 332.418C176.248 334.776 175.248 337.164 173.848 339.203C171.518 342.571 167.898 342.831 164.448 340.342C162.538 338.963 161.378 337.144 160.988 335.046C160.388 331.898 159.958 328.71 159.708 325.522C159.498 322.824 159.668 320.096 159.668 317.388C159.718 317.388 159.778 317.388 159.828 317.388V317.378ZM173.668 324.613C173.148 317.528 172.788 311.612 172.208 305.716C172.088 304.457 171.438 303.068 170.558 302.098C169.028 300.409 167.338 300.589 165.738 302.208C164.478 303.477 164.128 304.986 164.148 306.655C164.228 314.06 164.198 321.455 164.338 328.86C164.378 330.689 164.758 332.548 165.258 334.326C165.918 336.675 167.408 338.134 168.768 337.924C170.658 337.634 171.128 336.055 171.828 334.746C172.118 334.196 172.368 333.597 172.458 332.997C172.948 329.829 173.378 326.662 173.668 324.623V324.613Z" fill="#FF5543"/>
<path d="M193.698 295.683C193.958 296.432 194.248 297.921 194.958 299.21C198.298 305.266 201.668 311.312 205.218 317.268C206.438 319.307 208.048 321.195 209.758 322.924C211.188 324.363 212.928 325.612 214.708 326.702C216.948 328.071 219.528 328.69 221.978 327.281C224.618 325.772 225.508 323.244 225.358 320.546C225.268 318.977 224.738 317.388 224.128 315.899C223.278 313.82 222.348 311.742 221.138 309.833C217.608 304.287 213.948 298.811 210.288 293.334C209.018 291.426 207.478 289.707 205.218 288.648C199.238 285.849 193.818 288.817 193.678 295.673L193.698 295.683ZM197.858 295.663C197.758 291.995 200.028 290.556 203.098 292.035C204.228 292.575 205.298 293.514 205.948 294.514C210.308 301.159 214.598 307.855 218.808 314.58C219.668 315.949 220.188 317.508 220.708 319.027C221.298 320.716 221.698 322.664 219.818 323.734C218.048 324.743 216.318 323.454 215.158 322.355C212.838 320.146 210.418 317.898 208.758 315.279C205.178 309.643 202.048 303.777 198.778 297.991C198.298 297.132 198.048 296.162 197.858 295.653V295.663Z" fill="#FF5543"/>
<path d="M225.918 275.976C226.598 277.545 226.888 279.414 228.038 280.623C234.558 287.518 240.458 294.993 248.598 300.479C250.628 301.848 252.998 302.908 255.368 303.727C257.978 304.637 260.828 304.797 262.928 302.688C265.138 300.47 265.198 297.731 264.108 295.043C263.558 293.674 262.688 292.385 261.788 291.166C260.728 289.737 259.608 288.308 258.278 287.099C252.628 281.962 246.908 276.886 241.158 271.829C239.258 270.16 236.968 269.181 234.248 269.041C229.188 268.791 226.308 271.229 225.918 275.976ZM230.428 276.736C230.368 273.618 231.418 272.748 234.108 272.858C236.018 272.938 237.368 273.818 238.658 274.997C244.368 280.243 250.158 285.42 255.818 290.706C257.218 292.015 258.338 293.584 259.448 295.123C259.948 295.823 260.268 296.692 260.418 297.521C260.798 299.66 259.788 300.619 257.498 300.28C256.318 300.1 255.068 299.79 254.078 299.22C251.808 297.891 249.398 296.622 247.558 294.883C242.218 289.837 237.088 284.6 231.968 279.364C231.128 278.504 230.738 277.265 230.448 276.756L230.428 276.736Z" fill="#FF5543"/>
<path d="M139.358 83.2774C139.518 81.4687 139.288 79.57 138.628 77.8212C136.208 71.4955 131.598 64.3104 127.548 58.8141C124.158 54.2172 118.428 48.1614 112.238 51.709C108.588 53.7975 108.438 58.1346 109.368 61.8421C110.908 67.9879 114.778 73.1743 118.468 78.1809C121.238 81.9384 123.788 86.3453 127.598 89.2733C134.138 94.2999 138.838 89.2933 139.358 83.2774ZM135.908 83.3773C135.908 83.5772 135.908 83.7672 135.908 83.967C135.868 84.9464 135.548 85.9457 134.828 86.6052C132.768 88.4939 129.858 86.3953 128.418 84.7864C126.748 82.9177 125.658 80.6393 124.228 78.6007C121.428 74.6334 118.618 70.6461 116.338 66.349C115.248 64.2904 114.288 62.1719 113.518 59.9734C113.128 58.8441 112.728 57.455 113.328 56.3258C116.378 50.6597 123.988 61.4024 125.458 63.7108C128.028 67.758 131.318 71.5055 133.508 75.8425C134.648 78.091 135.838 80.7891 135.918 83.3773H135.908Z" fill="#FF5543"/>
<path d="M108.288 103.024C107.608 101.455 107.318 99.5862 106.168 98.3771C99.6481 91.4818 93.7481 84.0069 85.6081 78.5206C83.5781 77.1515 81.208 76.0922 78.838 75.2728C76.228 74.3634 73.378 74.2036 71.278 76.3121C69.068 78.5306 69.0081 81.2688 70.0981 83.957C70.6481 85.326 71.5181 86.6151 72.4181 87.8343C73.4781 89.2633 74.5981 90.6923 75.9281 91.9015C81.5781 97.038 87.2981 102.115 93.0481 107.171C94.9481 108.84 97.238 109.819 99.958 109.959C105.018 110.209 107.898 107.771 108.288 103.024ZM103.778 102.264C103.838 105.382 102.788 106.252 100.098 106.142C98.1881 106.062 96.8381 105.182 95.5481 104.003C89.8381 98.7568 84.048 93.5804 78.388 88.294C76.988 86.9849 75.868 85.4159 74.758 83.8769C74.258 83.1774 73.9381 82.3081 73.7881 81.4787C73.4081 79.3401 74.418 78.3808 76.708 78.7205C77.888 78.9004 79.138 79.2101 80.128 79.7797C82.398 81.1088 84.808 82.3779 86.648 84.1168C91.988 89.1633 97.1181 94.3998 102.238 99.6362C103.078 100.496 103.468 101.735 103.758 102.244L103.778 102.264Z" fill="#FF5543"/>
<path d="M159.828 61.6223C159.828 65.1998 159.648 68.7874 159.898 72.3449C160.038 74.2536 160.598 76.2722 161.558 77.9611C162.988 80.4494 165.228 82.3281 168.718 81.8984C172.148 81.4786 174.248 79.4701 175.598 76.742C176.028 75.8626 176.218 74.8432 176.298 73.8639C176.788 67.3484 177.328 60.8227 177.608 54.2972C177.718 51.7289 177.488 49.0807 176.848 46.5825C176.248 44.2241 175.248 41.8356 173.848 39.797C171.518 36.4293 167.898 36.1695 164.448 38.6578C162.538 40.0369 161.378 41.8557 160.988 43.9542C160.388 47.1021 159.958 50.29 159.708 53.4778C159.498 56.1759 159.668 58.9041 159.668 61.6122C159.718 61.6122 159.778 61.6122 159.828 61.6122V61.6223ZM173.668 54.3871C173.148 61.4722 172.788 67.3882 172.208 73.2842C172.088 74.5434 171.438 75.9324 170.558 76.9018C169.028 78.5906 167.338 78.4107 165.738 76.7918C164.478 75.5227 164.128 74.0138 164.148 72.3449C164.228 64.94 164.198 57.5449 164.338 50.14C164.378 48.3112 164.758 46.4525 165.258 44.6737C165.918 42.3253 167.408 40.8663 168.768 41.0762C170.658 41.366 171.128 42.945 171.828 44.2541C172.118 44.8037 172.368 45.4033 172.458 46.0029C172.948 49.1707 173.378 52.3386 173.668 54.3772V54.3871Z" fill="#FF5543"/>
<path d="M193.698 83.3174C193.958 82.568 194.248 81.0789 194.958 79.7898C198.298 73.7339 201.668 67.6881 205.218 61.7322C206.438 59.6936 208.048 57.8048 209.758 56.076C211.188 54.637 212.928 53.3878 214.708 52.2985C216.948 50.9295 219.528 50.3099 221.978 51.719C224.618 53.228 225.508 55.7562 225.358 58.4544C225.268 60.0233 224.738 61.6123 224.128 63.1012C223.278 65.1798 222.348 67.2584 221.138 69.1671C217.608 74.7133 213.948 80.1896 210.288 85.6658C209.018 87.5745 207.478 89.2934 205.218 90.3527C199.238 93.1508 193.818 90.1828 193.678 83.3274L193.698 83.3174ZM197.858 83.3375C197.758 87.005 200.028 88.444 203.098 86.965C204.228 86.4254 205.298 85.486 205.948 84.4867C210.308 77.8412 214.598 71.1457 218.808 64.4203C219.668 63.0512 220.188 61.4923 220.708 59.9734C221.298 58.2845 221.698 56.3358 219.818 55.2665C218.048 54.2572 216.318 55.5463 215.158 56.6456C212.838 58.8541 210.418 61.1026 208.758 63.7208C205.178 69.357 202.048 75.2229 198.778 81.009C198.298 81.8684 198.048 82.8378 197.858 83.3475V83.3375Z" fill="#FF5543"/>
<path d="M225.918 103.024C226.598 101.455 226.888 99.5862 228.038 98.3771C234.558 91.4818 240.458 84.0069 248.598 78.5206C250.628 77.1515 252.998 76.0922 255.368 75.2728C257.978 74.3634 260.828 74.2036 262.928 76.3121C265.138 78.5306 265.198 81.2688 264.108 83.957C263.558 85.326 262.688 86.6151 261.788 87.8343C260.728 89.2633 259.608 90.6923 258.278 91.9015C252.628 97.038 246.908 102.115 241.158 107.171C239.258 108.84 236.968 109.819 234.248 109.959C229.188 110.209 226.308 107.771 225.918 103.024ZM230.428 102.264C230.368 105.382 231.418 106.252 234.108 106.142C236.018 106.062 237.368 105.182 238.658 104.003C244.368 98.7568 250.158 93.5804 255.818 88.294C257.218 86.9849 258.338 85.4159 259.448 83.8769C259.948 83.1774 260.268 82.3081 260.418 81.4787C260.798 79.3401 259.788 78.3808 257.498 78.7205C256.318 78.9004 255.068 79.2101 254.078 79.7797C251.808 81.1088 249.398 82.3779 247.558 84.1168C242.218 89.1633 237.088 94.3998 231.968 99.6362C231.128 100.496 230.738 101.735 230.448 102.244L230.428 102.264Z" fill="#FF5543"/>
<path d="M44.9782 186.467C50.1982 191.853 55.3682 197.17 60.5182 202.506C65.4082 207.563 70.3781 212.559 75.1381 217.726C80.0681 223.072 82.3081 235.863 76.5081 242.909C69.3981 251.553 56.5282 252.802 48.5582 244.887C33.4882 229.908 18.8582 214.478 3.74816 199.538C0.298164 196.131 -0.101842 193.263 1.14816 188.816C2.71816 183.269 5.11816 178.732 9.33816 174.695C24.0082 160.635 38.3681 146.245 52.8881 132.024C56.8981 128.097 61.7881 127.537 66.6981 130.255C74.1281 134.363 76.2581 141.228 74.0681 150.552C72.9281 155.408 70.4382 159.575 66.9282 163.213C59.6482 170.748 52.5182 178.433 44.9582 186.447L44.9782 186.467ZM9.76815 180.601C8.99815 181.371 9.04816 182.64 9.83816 183.389C11.9082 185.318 13.9682 187.217 15.9682 189.175C29.5182 202.496 43.0082 215.857 56.5982 229.128C58.3682 230.857 60.4582 232.406 62.6582 233.535C65.8482 235.164 70.0181 234.355 71.8881 232.206C74.3181 229.408 74.6682 226.1 72.6782 222.623C71.8982 221.264 70.8182 220.044 69.7182 218.905C59.3382 208.072 48.7882 197.39 38.5782 186.387C33.5982 181.021 32.9382 181.99 38.7282 176.044C48.2682 166.241 57.9682 156.588 67.6682 146.944C68.9482 145.665 69.9282 144.466 69.9882 142.557C70.1282 138.33 68.1982 134.862 64.3382 133.373C60.4682 131.874 58.1881 132.704 55.1281 135.782C40.0981 150.811 24.9082 165.671 9.78817 180.601C9.78817 180.601 9.78816 180.601 9.77816 180.611L9.76815 180.601Z" fill="#270741"/>
<path d="M289.238 186.467C284.018 191.853 278.848 197.17 273.698 202.506C268.808 207.563 263.838 212.559 259.078 217.726C254.148 223.072 251.908 235.863 257.708 242.909C264.818 251.553 277.688 252.802 285.658 244.887C300.728 229.908 315.358 214.478 330.468 199.538C333.918 196.131 334.318 193.263 333.068 188.816C331.498 183.269 329.098 178.732 324.878 174.695C310.208 160.635 295.848 146.245 281.328 132.024C277.318 128.097 272.428 127.537 267.518 130.255C260.088 134.363 257.958 141.228 260.148 150.552C261.288 155.408 263.778 159.575 267.288 163.213C274.568 170.748 281.698 178.433 289.258 186.447L289.238 186.467ZM324.448 180.601C325.218 181.371 325.168 182.64 324.378 183.389C322.308 185.318 320.248 187.217 318.248 189.175C304.698 202.496 291.208 215.857 277.618 229.128C275.848 230.857 273.758 232.406 271.558 233.535C268.368 235.164 264.198 234.355 262.328 232.206C259.898 229.408 259.548 226.1 261.538 222.623C262.318 221.264 263.398 220.044 264.498 218.905C274.878 208.072 285.428 197.39 295.638 186.387C300.618 181.021 301.278 181.99 295.488 176.044C285.948 166.241 276.248 156.588 266.548 146.944C265.268 145.665 264.288 144.466 264.228 142.557C264.088 138.33 266.018 134.862 269.878 133.373C273.748 131.874 276.028 132.704 279.088 135.782C294.118 150.811 309.308 165.671 324.428 180.601C324.428 180.601 324.428 180.601 324.438 180.611L324.448 180.601Z" fill="#270741"/>
</svg>
