<svg width="49" height="48" viewBox="0 0 49 48" fill="none" xmlns="http://www.w3.org/2000/svg">
<rect x="0.5" width="48" height="48" rx="7" fill="#EEDFFF"/>
<path fill-rule="evenodd" clip-rule="evenodd" d="M39.0866 23.12C38.7533 21.1067 37.2732 19.4667 35.3399 18.8933C34.6332 17.4 33.6333 16.0933 32.4199 15.0133C30.3133 13.1333 27.5399 12 24.4999 12C21.4599 12 18.6866 13.1333 16.5799 15.0133C15.3533 16.0933 14.3533 17.4133 13.6599 18.8933C11.7266 19.4667 10.2466 21.0933 9.91325 23.12C9.85992 23.4 9.83325 23.6933 9.83325 24C9.83325 24.3067 9.85992 24.6 9.91325 24.88C10.2466 26.8933 11.7266 28.5333 13.6599 29.1067C14.3533 30.5867 15.3533 31.8933 16.5533 32.96C18.6599 34.8533 21.4466 36 24.4999 36C27.5533 36 30.3399 34.8533 32.4599 32.96C33.6599 31.8933 34.6599 30.5733 35.3533 29.1067C37.2732 28.5333 38.7533 26.9067 39.0866 24.88C39.1399 24.6 39.1666 24.3067 39.1666 24C39.1666 23.6933 39.1399 23.4 39.0866 23.12ZM21.1666 23.6667C22.0871 23.6667 22.8333 22.9205 22.8333 22C22.8333 21.0795 22.0871 20.3333 21.1666 20.3333C20.2461 20.3333 19.4999 21.0795 19.4999 22C19.4999 22.9205 20.2461 23.6667 21.1666 23.6667ZM27.8333 23.6667C28.7537 23.6667 29.4999 22.9205 29.4999 22C29.4999 21.0795 28.7537 20.3333 27.8333 20.3333C26.9128 20.3333 26.1666 21.0795 26.1666 22C26.1666 22.9205 26.9128 23.6667 27.8333 23.6667ZM30.4999 26.6667C29.4866 29.0267 27.1799 30.6667 24.4999 30.6667C21.8199 30.6667 19.5133 29.0267 18.4999 26.6667H30.4999ZM33.5819 26.6437C33.6649 26.6553 33.7463 26.6667 33.8333 26.6667C35.2999 26.6667 36.4999 25.4667 36.4999 24C36.4999 22.5333 35.2999 21.3333 33.8333 21.3333C33.7463 21.3333 33.6649 21.3447 33.5819 21.3563C33.5377 21.3625 33.4929 21.3687 33.4466 21.3733C33.1799 20.48 32.7933 19.6533 32.2999 18.8933C30.6333 16.3467 27.7666 14.6667 24.4999 14.6667C21.2333 14.6667 18.3666 16.3467 16.6999 18.8933C16.2066 19.6533 15.8199 20.48 15.5533 21.3733C15.5069 21.3687 15.4622 21.3625 15.418 21.3563C15.3349 21.3447 15.2536 21.3333 15.1666 21.3333C13.6999 21.3333 12.4999 22.5333 12.4999 24C12.4999 25.4667 13.6999 26.6667 15.1666 26.6667C15.2536 26.6667 15.3349 26.6553 15.418 26.6437C15.4622 26.6375 15.5069 26.6313 15.5533 26.6267C15.8199 27.52 16.2066 28.3467 16.6999 29.1067C18.3666 31.6533 21.2333 33.3333 24.4999 33.3333C27.7666 33.3333 30.6333 31.6533 32.2999 29.1067C32.7933 28.3467 33.1799 27.52 33.4466 26.6267C33.4929 26.6313 33.5376 26.6375 33.5819 26.6437Z" fill="#A112FF"/>
</svg>
