<svg width="45" height="45" fill="none" xmlns="http://www.w3.org/2000/svg"><circle cx="22.5" cy="22.5" r="22.5" fill="#BFBFFF" fill-opacity=".3"/><path d="M23 32a9 9 0 1 0 0-18 9 9 0 0 0 0 18Z" stroke="#6B59ED" stroke-width="1.5" stroke-linecap="round" stroke-linejoin="round"/><path d="M19.625 23.938a.937.937 0 1 0 0-1.875.937.937 0 0 0 0 1.875ZM26.375 23.938a.937.937 0 1 0 0-1.875.937.937 0 0 0 0 1.875Z" fill="#6B59ED"/><path d="M25.488 26.75a4.502 4.502 0 0 1-4.976 0M23 14c-1.5 1.875-1.5 3.75-1.5 3.75a1.5 1.5 0 1 0 3 0" stroke="#6B59ED" stroke-width="1.5" stroke-linecap="round" stroke-linejoin="round"/></svg>