<svg width="337" height="379" viewBox="0 0 337 379" fill="none" xmlns="http://www.w3.org/2000/svg">
<path opacity="0.65" d="M169.45 363.879C252.817 363.879 320.4 296.297 320.4 212.929C320.4 129.562 252.817 61.9792 169.45 61.9792C86.0826 61.9792 18.5 129.562 18.5 212.929C18.5 296.297 86.0826 363.879 169.45 363.879Z" fill="#A112FF"/>
<path opacity="0.54" d="M134.91 151.629C118.48 153.389 105.79 138.689 104.75 124.409C104.33 118.629 105.48 113.319 108.89 108.709C109.07 108.459 109.28 108.229 109.46 107.979C112.51 103.589 112.37 102.259 108.2 99.1592C99.2601 92.5092 93.3501 83.6392 91.3101 72.0892C89.8401 63.7392 90.4601 55.5692 94.2501 47.8992C100.49 35.2692 113.42 30.1692 125.72 35.4792C126.27 35.7192 126.8 36.0092 127.34 36.2592C131.07 37.9692 132.3 37.5492 133.81 33.4892C136.55 26.1392 140.91 20.2892 147.12 16.0492C155.8 10.1192 165.45 7.75924 175.54 8.01924C192.24 8.44924 207.23 14.3692 220.08 25.9492C229.56 34.4992 236.17 45.0192 238.03 58.5192C238.9 64.8492 238.08 70.8992 235.9 76.7892C235.52 77.8292 234.98 78.7992 234.63 79.8492C233.73 82.5592 234.1 83.8292 236.52 84.7092C242.84 87.0092 246.56 92.0792 248.59 98.4592C253.29 113.239 250.91 126.839 241.38 138.639C238.95 141.659 235.92 144.189 232.38 145.479C230.63 146.109 228.79 146.429 226.94 146.439C224.84 146.439 222.89 145.609 220.85 145.549C219.65 145.509 217.48 145.869 216.63 146.869C215.32 148.399 216.32 150.109 217.52 151.489C220.77 155.269 222.54 159.789 222.73 164.889C222.82 167.219 222.45 169.649 221.88 171.909C220.9 175.769 218.69 177.709 214.63 178.229C204.85 179.479 195.09 179.459 185.33 178.739C175.73 178.029 166.14 177.029 156.56 176.039C154.83 175.859 152.96 175.439 151.48 174.529C144.66 170.329 138.76 165.149 136.55 156.469C136.13 154.799 135.47 153.209 134.94 151.639L134.91 151.629Z" fill="#00CBEC"/>
<path d="M185.46 186.709C169.73 187.909 153.89 188.229 138.32 185.069C129 183.179 119.72 180.779 110.7 177.779C102.94 175.199 95.9998 170.809 90.8898 164.049C89.9498 162.809 83.0998 176.499 80.9098 184.689C76.9098 199.709 78.3798 210.989 78.6998 219.319C79.2598 234.119 82.1398 248.319 88.0598 261.979C93.4598 274.449 101.03 284.959 112.3 292.699C114.72 294.369 116.97 296.279 119.03 298.379C121.81 301.219 124.87 303.819 126.53 307.669C133.34 323.489 134.57 339.359 127.26 355.339C152.29 374.409 193 374.569 218.27 362.019C218.03 358.529 217.79 354.969 217.57 351.619C209.55 349.759 201.82 348.209 194.23 346.119C185.79 343.799 177.84 340.139 170.65 335.109C164.65 330.909 158.88 326.369 153.05 321.909C152.67 321.619 152.29 321.299 151.94 320.959C150.78 319.849 150.4 318.149 150.89 316.619C151.02 316.219 151.15 315.859 151.28 315.659C151.28 315.659 152.19 316.099 152.85 316.389C155.37 317.499 157.75 318.939 160.31 319.939C180.06 327.689 200.19 330.789 221.19 325.389C231.7 322.689 241.12 318.079 249.55 311.329C252.31 309.119 253.59 306.379 253.51 302.679C253.48 301.109 254.29 266.319 254.29 258.599C254.29 251.869 254.01 253.739 263.59 249.959C264.23 249.709 264.86 249.429 265.48 249.139C273.79 245.289 274.85 245.369 271.98 241.159C268.08 235.459 264.05 229.829 260.35 223.999C251.36 209.869 245.06 194.589 241.26 178.289C240.8 176.289 240.57 174.239 240.09 171.389C232.27 177.439 223.79 180.509 214.96 182.279C205.21 184.229 195.34 185.919 185.45 186.669L185.46 186.709Z" fill="white"/>
<path d="M96.9599 163.749C99.1199 166.179 101.85 168.259 104.66 169.929C112 174.279 120.14 176.619 128.41 178.429C151.08 183.389 173.98 184.009 196.97 181.549C206.61 180.519 216.22 178.939 225.24 175.209C229.28 173.539 233.22 171.329 236.7 168.699C240.58 165.769 240.42 162.409 237.18 158.709C229.6 150.059 219.77 147.659 208.59 148.309C209.2 150.609 210.31 151.649 212.72 152.289C217.37 153.529 221.95 155.229 226.3 157.279C231.29 159.629 231.31 163.369 226.47 166.159C223.13 168.079 219.61 169.789 216 171.119C207.09 174.399 197.79 176.099 188.33 175.869C176.58 175.589 164.81 175.049 153.11 173.959C144.73 173.189 136.46 171.279 128.13 169.999C121.24 168.939 114.76 166.499 108.28 164.109C104.71 162.789 102.32 159.359 107.26 156.209C109.75 154.619 112.28 153.099 115.62 151.029C112.64 150.669 110.31 149.719 108.45 150.289C104.93 151.379 101.53 153.109 98.3399 154.999C94.1799 157.459 93.6999 160.089 96.9599 163.759V163.749Z" fill="white"/>
<path d="M241.27 178.329C245.07 194.639 251.37 209.919 260.36 224.039C264.07 229.869 268.09 235.489 271.99 241.199C274.87 245.409 273.8 245.319 265.49 249.179C264.87 249.469 264.24 249.749 263.6 249.999C254.02 253.779 254.29 251.909 254.3 258.639C254.3 266.359 253.48 301.149 253.52 302.719C253.6 306.409 252.32 309.159 249.56 311.369C241.13 318.109 231.71 322.719 221.2 325.429C200.21 330.829 180.07 327.729 160.32 319.979C157.76 318.979 155.38 317.539 152.86 316.429C152.2 316.139 151.29 315.699 151.29 315.699C151.17 315.899 151.03 316.259 150.9 316.659C150.41 318.189 150.79 319.889 151.95 320.999C152.3 321.339 152.68 321.659 153.06 321.949C158.88 326.409 164.65 330.949 170.66 335.149C177.85 340.179 185.79 343.839 194.24 346.159C201.83 348.249 209.57 349.789 217.58 351.659C217.81 355.009 217.64 352.469 217.87 355.969C187 363.239 155 371.34 127 356C134.31 340.02 133.36 323.519 126.55 307.699C124.89 303.849 121.83 301.249 119.05 298.409C116.99 296.309 114.75 294.399 112.32 292.729C101.05 284.979 93.4798 274.469 88.0798 262.009C82.1598 248.339 79.2799 234.149 78.7199 219.349C78.3999 211.009 76.9298 199.739 80.9298 184.719C83.1098 176.529 89.9699 162.839 90.9099 164.079C96.0199 170.829 102.95 175.229 110.72 177.809C119.74 180.809 129.02 183.209 138.34 185.099C153.91 188.259 169.75 187.939 185.48 186.739C195.38 185.989 205.25 184.289 214.99 182.349C223.82 180.589 232.3 177.519 240.12 171.459C240.59 174.309 240.82 176.359 241.29 178.359L241.27 178.329ZM108.46 150.289C110.32 149.709 112.65 150.659 115.63 151.029C112.29 153.099 109.76 154.619 107.27 156.209C102.33 159.359 104.72 162.799 108.29 164.109C114.77 166.499 121.24 168.939 128.14 169.999C136.48 171.289 144.75 173.189 153.12 173.959C164.82 175.039 176.59 175.579 188.34 175.869C197.81 176.099 207.1 174.399 216.01 171.119C219.62 169.789 223.14 168.089 226.48 166.159C231.32 163.369 231.29 159.629 226.31 157.279C221.96 155.229 217.37 153.529 212.73 152.289C210.32 151.649 209.21 150.609 208.6 148.309C219.78 147.659 229.61 150.049 237.19 158.709C240.43 162.409 240.59 165.769 236.71 168.699C233.23 171.329 229.29 173.539 225.25 175.209C216.23 178.939 206.62 180.519 196.98 181.549C173.98 183.999 151.08 183.389 128.42 178.429C120.16 176.619 112.01 174.279 104.67 169.929C101.86 168.259 99.1299 166.179 96.9699 163.749C93.7199 160.089 94.1998 157.459 98.3498 154.989C101.54 153.099 104.94 151.369 108.46 150.279V150.289Z" fill="white"/>
<path d="M206.15 145.849C206.76 148.149 207.87 149.179 210.28 149.819C214.93 151.059 219.51 152.759 223.86 154.809C228.85 157.159 228.87 160.899 224.03 163.689C220.69 165.609 217.17 167.319 213.56 168.649C204.65 171.929 195.35 173.629 185.89 173.399C174.14 173.119 162.37 172.579 150.67 171.489C142.29 170.719 134.02 168.809 125.69 167.529C118.8 166.469 112.32 164.029 105.84 161.639C102.27 160.319 99.89 156.889 104.82 153.739C107.31 152.149 109.84 150.629 113.18 148.559C110.2 148.199 107.87 147.249 106.01 147.819C102.49 148.909 99.09 150.639 95.9 152.529C91.74 154.989 91.26 157.619 94.52 161.289C96.68 163.719 99.41 165.799 102.22 167.469C109.56 171.819 117.7 174.159 125.97 175.969C148.64 180.929 171.54 181.549 194.53 179.089C204.17 178.059 213.78 176.479 222.8 172.749C226.84 171.079 230.78 168.869 234.26 166.239C238.14 163.309 237.98 159.949 234.74 156.249C227.16 147.599 217.33 145.199 206.15 145.849Z" fill="white" stroke="#270741" stroke-width="4" stroke-miterlimit="10"/>
<path d="M82.6401 76.6392C81.2601 69.3892 81.8401 62.2992 85.3801 55.6392C91.2101 44.6792 103.28 40.2392 114.77 44.8592C115.28 45.0692 115.78 45.3192 116.29 45.5392C119.78 47.0192 120.92 46.6592 122.33 43.1392C124.89 36.7592 128.96 31.6792 134.76 27.9992C142.86 22.8492 151.87 20.7992 161.29 21.0292C176.88 21.3992 190.88 26.5392 202.87 36.5992C211.72 44.0192 217.89 53.1492 219.62 64.8792C219.91 66.8292 219.99 68.7492 219.89 70.6392C221.56 71.2292 223.22 71.8392 224.87 72.4892C224.94 71.7892 225 71.0992 225.02 70.3992C225.41 57.7592 220.23 47.1292 211.58 38.3592C194.08 20.6192 172.8 13.7492 148.28 18.3992C135.17 20.8792 124.62 27.5892 118.61 40.1292C118.51 40.3292 118.16 40.4092 117.74 40.6392C117.22 40.4892 116.57 40.2992 115.92 40.0992C98.93 35.0092 83.41 43.4092 78.86 60.5892C76 71.3992 77.48 81.0192 82.5 89.5192C83.74 88.6392 85.0001 87.7892 86.2701 86.9492C84.5801 83.8192 83.3601 80.3892 82.6401 76.6192V76.6392Z" fill="#270741"/>
<path d="M218.14 327.689C218.44 327.449 218.63 327.219 218.87 327.129C219.38 326.929 219.92 326.779 220.46 326.649C231.14 324.109 240.53 319.009 249.16 312.329C253.16 309.229 255.16 305.229 255.27 300.209C255.55 287.339 255.85 274.479 256.16 261.609C256.19 260.539 256.36 259.459 256.48 258.249C257.57 257.999 258.54 257.879 259.41 257.549C262.63 256.319 266.03 255.379 268.98 253.659C276.11 249.489 277.4 242.449 272.59 235.859C270.47 232.949 268.2 230.149 266.19 227.169C257.38 214.139 250.51 200.119 245.53 185.219C242.86 177.219 240.76 169.059 240.79 160.479C240.79 158.709 240.02 156.629 238.93 155.219C235.43 150.669 231.11 147.019 225.72 144.789C224.61 144.329 223.52 143.789 221.89 143.039C222.97 141.689 223.65 140.499 224.63 139.679C231.37 134.089 235.11 126.729 236.33 118.299C238.32 104.459 235.97 92.0092 223.11 83.6992C222.91 83.5692 222.85 83.2392 222.94 83.4092C223.58 79.5892 224.5 76.0392 224.86 72.5092C223.22 71.8592 221.55 71.2492 219.88 70.6592C219.71 74.0992 218.93 77.4592 217.62 80.7592C217.26 81.6592 216.76 82.4992 216.44 83.4092C215.6 85.7692 215.95 86.8592 218.21 87.6292C224.12 89.6292 227.58 94.0292 229.48 99.5692C233.87 112.399 231.64 124.209 222.75 134.459C219.83 137.819 216 140.429 211.53 141.069C209.35 141.379 208.12 141.01 206 140.5C204.31 140.1 200.93 140.199 199.64 141.599C198.42 142.919 199.35 144.409 200.47 145.619C203.51 148.899 205.15 152.829 205.33 157.249C205.41 159.269 205.07 161.379 204.54 163.349C203.63 166.699 201.56 168.379 197.77 168.829C188.64 169.909 179.53 169.899 170.41 169.269C161.44 168.649 152.49 167.789 143.55 166.929C141.93 166.769 140.19 166.409 138.81 165.619C132.44 161.969 126.93 157.479 124.87 149.939C124.47 148.489 123.86 147.109 123.36 145.739C108.02 147.259 96.1699 134.499 95.1999 122.109C94.8099 117.089 95.8799 112.489 99.0599 108.479C99.2299 108.259 99.4299 108.069 99.5899 107.839C102.44 104.029 102.3 102.879 98.4099 100.179C93.1899 96.5692 89.0799 92.2092 86.2699 86.9992C84.9999 87.8392 83.7399 88.6892 82.4999 89.5692C84.6999 93.2892 87.5599 96.8092 91.0499 100.119C92.7199 101.699 94.6399 103.019 96.4399 104.439C88.1799 115.489 87.7299 129.799 101.67 144.269C100.35 144.829 99.0799 145.319 97.8399 145.889C93.7999 147.759 89.7299 149.679 87.0099 153.349C81.5399 160.739 77.1499 168.679 74.8499 177.689C71.0899 192.439 69.8499 207.309 71.1999 222.549C72.5399 237.669 76.8799 251.979 82.8599 265.609C87.4499 276.069 94.4899 285.299 104.25 292.129C111.98 297.539 118.84 303.739 122.14 313.289C126.38 325.539 126.63 337.339 120.9 349.099C119.28 352.429 118.99 354.069 120.68 355.869C126.24 357.769 131.96 359.349 137.79 360.589C133.16 358.489 127.97 358.02 124 355C131.31 339.02 130.91 321.079 124.1 305.259C122.44 301.409 119.38 298.809 116.6 295.969C114.54 293.869 112.3 291.959 109.87 290.289C98.5999 282.539 91.0299 272.029 85.6299 259.569C79.7099 245.899 76.8299 231.709 76.2699 216.909C75.9499 208.569 74.4799 197.299 78.4799 182.279C80.6599 174.089 87.5199 160.399 88.4599 161.639C93.5699 168.389 100.5 172.789 108.27 175.369C117.29 178.369 126.57 180.769 135.89 182.659C151.46 185.819 167.3 185.499 183.03 184.299C192.93 183.549 202.8 181.849 212.54 179.909C221.37 178.149 229.85 175.079 237.67 169.019C238.14 171.869 238.37 173.919 238.84 175.919C242.64 192.229 248.94 207.509 257.93 221.629C261.64 227.459 265.66 233.079 269.56 238.789C272.44 242.999 271.37 242.909 263.06 246.769C262.44 247.059 261.81 247.339 261.17 247.589C251.59 251.369 251.86 249.499 251.87 256.229C251.87 263.949 251.05 298.739 251.09 300.309C251.17 303.999 249.89 306.749 247.13 308.959C238.7 315.699 229.28 320.309 218.77 323.019C197.78 328.419 177.64 325.319 157.89 317.569C155.33 316.569 152.95 315.129 150.43 314.019C149.77 313.729 148.86 313.289 148.86 313.289C148.74 313.489 148.6 313.849 148.47 314.249C147.98 315.779 148.36 317.479 149.52 318.589C149.87 318.929 150.25 319.249 150.63 319.539C156.45 323.999 162.22 328.539 168.22 332.739C175.41 337.769 183.35 341.429 191.8 343.749C199.39 345.839 207.13 347.379 215.14 349.249C215.3 351.679 215.48 354.209 215.65 356.749C216.94 356.329 218.23 355.899 219.5 355.449C219.47 354.059 219.43 352.659 219.36 351.269C218.98 343.409 218.55 335.559 218.15 327.759L218.14 327.689ZM234.26 166.219C230.78 168.849 226.84 171.059 222.8 172.729C213.78 176.459 204.17 178.039 194.53 179.069C171.53 181.519 148.63 180.909 125.97 175.949C117.71 174.139 109.56 171.799 102.22 167.449C99.4099 165.779 96.6799 163.699 94.5199 161.269C91.2699 157.609 91.7499 154.979 95.8999 152.509C99.0899 150.619 102.49 148.889 106.01 147.799C107.87 147.219 110.2 148.169 113.18 148.539C109.84 150.609 107.31 152.129 104.82 153.719C99.8799 156.869 102.27 160.309 105.84 161.619C112.32 164.009 118.79 166.449 125.69 167.509C134.03 168.799 142.3 170.699 150.67 171.469C162.37 172.549 174.14 173.089 185.89 173.379C195.36 173.609 204.65 171.909 213.56 168.629C217.17 167.299 220.69 165.599 224.03 163.669C228.87 160.879 228.84 157.139 223.86 154.789C219.51 152.739 214.92 151.039 210.28 149.799C207.87 149.159 208.61 148.8 208 146.5C213.35 145.681 227.16 147.559 234.74 156.219C237.98 159.919 238.14 163.279 234.26 166.209V166.219Z" fill="#270741"/>
<path d="M206.15 145.839C217.33 145.189 227.16 147.579 234.74 156.239C237.98 159.939 238.14 163.299 234.26 166.229C230.78 168.859 226.84 171.069 222.8 172.739C213.78 176.469 204.17 178.049 194.53 179.079C171.53 181.529 148.63 180.919 125.97 175.959C117.71 174.149 109.56 171.809 102.22 167.459C99.4099 165.789 96.6799 163.709 94.5199 161.279C91.2699 157.619 91.7499 154.989 95.8999 152.519C99.0899 150.629 102.49 148.899 106.01 147.809C107.87 147.229 110.2 148.179 113.18 148.549C109.84 150.619 107.31 152.139 104.82 153.729C99.8799 156.879 102.27 160.319 105.84 161.629C112.32 164.019 118.79 166.459 125.69 167.519C134.03 168.809 142.3 170.709 150.67 171.479C162.37 172.559 174.14 173.099 185.89 173.389C195.36 173.619 204.65 171.919 213.56 168.639C217.17 167.309 220.69 165.609 224.03 163.679C228.87 160.889 228.84 157.149 223.86 154.799C219.51 152.749 214.92 151.049 210.28 149.809C207.87 149.169 206.76 148.129 206.15 145.829V145.839Z" fill="white"/>
<path d="M115.09 249.039C115.2 238.059 119.08 227.359 130.87 226.959C134.72 226.829 138.5 227.979 141.78 229.989C148.84 234.329 153.06 241.339 156.82 248.379C156.85 248.429 156.87 248.479 156.9 248.529C158.2 251.019 154.85 253.349 152.98 251.249C151.11 249.149 149.45 246.689 147.86 244.299C145.17 240.269 142.34 236.139 138.21 233.599C134.09 231.059 128.29 230.569 124.65 233.759C122.56 235.579 121.48 238.299 120.78 240.979C118.17 250.959 119.97 262.009 125.63 270.629C128.76 275.389 133.27 279.559 138.82 280.819C144.37 282.079 150.96 279.669 153.24 274.449C153.4 274.089 153.56 273.689 153.74 273.299C154.59 271.399 157.49 272.379 157 274.399C156.46 276.649 155.39 278.779 153.89 280.539C148.97 286.289 139.95 287.339 133.04 284.239C126.13 281.139 121.22 274.649 118.36 267.639C116.46 262.999 115.03 255.969 115.1 249.049L115.09 249.039Z" fill="#270741"/>
<path d="M145.69 251.589C144.55 253.349 143.36 254.609 142.84 256.099C141.64 259.539 143.02 262.689 146.38 264.999C149.58 267.199 150.28 269.359 148.69 272.109C147.15 274.779 144.29 275.599 141.12 273.929C137.37 271.949 134.34 269.049 132.67 265.109C130.4 259.759 128.34 254.289 128.18 248.379C128.12 246.059 128.15 243.629 128.74 241.409C130.1 236.299 134.53 235.289 138.11 239.199C139.5 240.719 140.65 242.489 141.71 244.269C143.19 246.749 144.48 249.339 145.69 251.589Z" fill="#270741"/>
<path d="M203.09 209.849C203.59 209.939 204.08 210.029 204.57 210.139C213.01 212.059 221.08 210.929 228.69 206.959C231.09 205.699 233.16 203.779 235.31 202.069C236.47 201.149 237.52 199.449 239.08 201.079C240.49 202.549 239.26 203.929 238.17 204.999C236.89 206.249 235.59 207.539 234.09 208.479C226.13 213.469 217.53 216.039 208.08 214.489C205.93 214.129 203.56 213.919 201.86 212.479C200.7 211.499 201.6 209.609 203.09 209.869V209.849Z" fill="#270741"/>
<path d="M50.53 62.2992C54.12 68.8592 59.51 74.2492 66.07 77.8392C59.51 81.4292 54.12 86.8192 50.53 93.3792C46.94 86.8192 41.55 81.4292 34.99 77.8392C41.55 74.2492 46.94 68.8592 50.53 62.2992Z" fill="#FF5543" stroke="#270741" stroke-width="4" stroke-miterlimit="10"/>
<path d="M262.42 130.169C264.58 134.119 267.83 137.379 271.79 139.539C267.84 141.699 264.58 144.949 262.42 148.909C260.26 144.959 257.01 141.699 253.05 139.539C257 137.379 260.26 134.129 262.42 130.169Z" fill="#FF5543" stroke="#270741" stroke-width="4" stroke-miterlimit="10"/>
<path d="M72.8902 141.479C76.3199 141.479 79.1002 138.699 79.1002 135.269C79.1002 131.84 76.3199 129.059 72.8902 129.059C69.4605 129.059 66.6802 131.84 66.6802 135.269C66.6802 138.699 69.4605 141.479 72.8902 141.479Z" fill="white" stroke="#270741" stroke-width="4" stroke-miterlimit="10"/>
<path d="M262.42 57.9492C267.319 57.9492 271.29 53.978 271.29 49.0792C271.29 44.1805 267.319 40.2092 262.42 40.2092C257.521 40.2092 253.55 44.1805 253.55 49.0792C253.55 53.978 257.521 57.9492 262.42 57.9492Z" fill="white" stroke="#270741" stroke-width="4" stroke-miterlimit="10"/>
<path d="M270.55 85.7892C272.77 85.7892 274.57 83.9894 274.57 81.7692C274.57 79.549 272.77 77.7492 270.55 77.7492C268.33 77.7492 266.53 79.549 266.53 81.7692C266.53 83.9894 268.33 85.7892 270.55 85.7892Z" fill="white" stroke="#270741" stroke-width="4" stroke-miterlimit="10"/>
<path d="M222.32 71.4992C279.61 92.9292 320.4 148.169 320.4 212.929C320.4 296.299 252.82 363.879 169.45 363.879C86.08 363.879 18.5 296.299 18.5 212.929C18.5 161.099 44.63 115.359 84.43 88.1792" stroke="#270741" stroke-width="4" stroke-miterlimit="10"/>
<path d="M165.88 148.939C160.12 149.569 154.88 145.539 154.25 139.779L144.33 54.3992C143.72 47.6192 151.73 39.5592 157.49 38.9292C163.25 38.2992 164.49 46.1792 165.12 51.9292L174.84 137.299C175.67 143.069 171.44 148.299 165.89 148.939H165.88Z" fill="#270741" stroke="#270741" stroke-width="3.64" stroke-miterlimit="10"/>
<path d="M126.41 131.969C122.91 132.349 119.14 130.859 116.89 127.849C113.54 123.129 114.38 116.659 119.1 113.299L188.09 62.2592C192.81 58.9092 199.28 59.7492 202.64 64.4692C205.99 69.1892 205.15 75.6592 200.43 79.0192L131.46 129.859C129.95 130.979 128.07 131.669 126.42 131.969H126.41Z" fill="#270741" stroke="#270741" stroke-width="3.64" stroke-miterlimit="10"/>
<path d="M200.28 123.309C198.42 123.589 196.61 123.259 195.02 122.549L116.1 88.4092C110.75 86.0092 108.31 79.9192 110.71 74.5692C111.61 72.5692 116.88 67.4692 118.58 66.3792C121.42 64.5692 121.2 67.6792 124.54 69.1792L203.25 103.509C208.6 105.909 211.04 111.999 208.64 117.349C207.19 120.719 203.77 122.939 200.27 123.309H200.28Z" fill="#270741" stroke="#270741" stroke-width="3.64" stroke-miterlimit="10"/>
<path d="M170.79 144.629C165.03 145.259 159.79 141.229 159.16 135.469L149.24 50.0892C148.61 44.3292 152.64 39.0892 158.4 38.4592C164.16 37.8292 169.4 41.8592 170.03 47.6192L179.75 132.989C180.58 138.759 176.35 143.989 170.8 144.629H170.79Z" fill="#FF5543" stroke="#270741" stroke-width="3.39" stroke-miterlimit="10"/>
<path d="M131.32 127.659C127.82 128.039 124.05 126.549 121.8 123.539C118.45 118.819 119.29 112.349 124.01 108.989L193 57.9492C197.72 54.5992 204.19 55.4392 207.55 60.1592C210.9 64.8792 210.06 71.3492 205.34 74.7092L136.37 125.549C134.86 126.669 132.98 127.359 131.33 127.659H131.32Z" fill="#A112FF" stroke="#270741" stroke-width="3.39" stroke-miterlimit="10"/>
<path d="M205.19 118.999C203.33 119.279 201.52 118.949 199.93 118.239L121.01 84.0992C115.66 81.6992 113.22 75.6092 115.62 70.2592C118.02 64.9092 124.11 62.4692 129.46 64.8692L208.17 99.1992C213.52 101.599 215.96 107.689 213.56 113.039C212.11 116.409 208.69 118.629 205.19 118.999Z" fill="#00CBEC" stroke="#270741" stroke-width="3.39" stroke-miterlimit="10"/>
</svg>
