<svg width="49" height="48" viewBox="0 0 49 48" fill="none" xmlns="http://www.w3.org/2000/svg">
<rect x="0.5" width="48" height="48" rx="7" fill="#EEDFFF"/>
<path fill-rule="evenodd" clip-rule="evenodd" d="M23.1666 8.7334H25.8333V12.6667H23.1666V8.7334ZM17.5133 14.4534L15.1133 12.0667L13.2333 13.9467L15.6199 16.3334L17.5133 14.4534ZM13.8333 22.0001H9.83325V24.6667H13.8333V22.0001ZM35.7666 13.9467L33.8866 12.0667L31.4999 14.4534L33.3799 16.3334L35.7666 13.9467ZM33.8733 34.6134L31.4866 32.2134L33.3533 30.3467L35.7533 32.7334L33.8733 34.6134ZM39.1666 22.0001H35.1666V24.6667H39.1666V22.0001ZM16.4999 23.3334C16.4999 18.9201 20.0866 15.3334 24.4999 15.3334C28.9133 15.3334 32.4999 18.9201 32.4999 23.3334C32.4999 27.7467 28.9133 31.3334 24.4999 31.3334C20.0866 31.3334 16.4999 27.7467 16.4999 23.3334ZM25.8333 37.9334V34.0001H23.1666V37.9334H25.8333ZM15.1133 34.6001L13.2333 32.7201L15.6199 30.3201L17.4999 32.2001L15.1133 34.6001Z" fill="#A112FF"/>
</svg>
