<svg width="45" height="45" viewBox="0 0 45 45" fill="none" xmlns="http://www.w3.org/2000/svg">
<circle cx="22.5" cy="22.5" r="22.5" fill="#BFBFFF" fill-opacity="0.3"/>
<path d="M23 23.75C24.6569 23.75 26 22.4069 26 20.75C26 19.0931 24.6569 17.75 23 17.75C21.3431 17.75 20 19.0931 20 20.75C20 22.4069 21.3431 23.75 23 23.75Z" stroke="#6B59ED" stroke-width="1.5" stroke-linecap="round" stroke-linejoin="round"/>
<path d="M30.5 20.75C30.5 27.5 23 32.75 23 32.75C23 32.75 15.5 27.5 15.5 20.75C15.5 18.7609 16.2902 16.8532 17.6967 15.4467C19.1032 14.0402 21.0109 13.25 23 13.25C24.9891 13.25 26.8968 14.0402 28.3033 15.4467C29.7098 16.8532 30.5 18.7609 30.5 20.75V20.75Z" stroke="#6B59ED" stroke-width="1.5" stroke-linecap="round" stroke-linejoin="round"/>
</svg>
