<svg width="49" height="48" viewBox="0 0 49 48" fill="none" xmlns="http://www.w3.org/2000/svg">
<rect x="0.5" width="48" height="48" rx="7" fill="#EEDFFF"/>
<path d="M24.2334 22.5333C21.2068 21.7467 20.2334 20.9333 20.2334 19.6667C20.2334 18.2133 21.5801 17.2 23.8334 17.2C26.2068 17.2 27.0868 18.3333 27.1668 20H30.1134C30.0201 17.7067 28.6201 15.6 25.8334 14.92V12H21.8334V14.88C19.2468 15.44 17.1668 17.12 17.1668 19.6933C17.1668 22.7733 19.7134 24.3067 23.4334 25.2C26.7668 26 27.4334 27.1733 27.4334 28.4133C27.4334 29.3333 26.7801 30.8 23.8334 30.8C21.0868 30.8 20.0068 29.5733 19.8601 28H16.9268C17.0868 30.92 19.2734 32.56 21.8334 33.1067V36H25.8334V33.1333C28.4334 32.64 30.5001 31.1333 30.5001 28.4C30.5001 24.6133 27.2601 23.32 24.2334 22.5333Z" fill="#A112FF"/>
</svg>
