<svg width="45" height="45" fill="none" xmlns="http://www.w3.org/2000/svg"><circle cx="22.5" cy="22.5" r="22.5" fill="#BFBFFF" fill-opacity=".3"/><path d="M32.75 17h-19.5a.75.75 0 0 0-.75.75v10.5c0 .414.336.75.75.75h19.5a.75.75 0 0 0 .75-.75v-10.5a.75.75 0 0 0-.75-.75Z" stroke="#6B59ED" stroke-width="1.5" stroke-linecap="round" stroke-linejoin="round"/><path d="M23 26a3 3 0 1 0 0-6 3 3 0 0 0 0 6ZM27.5 17l6 5.25M27.5 29l6-5.25M18.5 17l-6 5.25M18.5 29l-6-5.25" stroke="#6B59ED" stroke-width="1.5" stroke-linecap="round" stroke-linejoin="round"/></svg>