<svg width="49" height="48" viewBox="0 0 49 48" fill="none" xmlns="http://www.w3.org/2000/svg">
<rect x="0.5" width="48" height="48" rx="7" fill="#EEDFFF"/>
<path fill-rule="evenodd" clip-rule="evenodd" d="M29.1533 12.6401C29.1533 14.1067 27.9533 15.3067 26.4866 15.3067C25.0199 15.3067 23.8199 14.1067 23.8199 12.6401C23.8199 11.1734 25.0199 9.97339 26.4866 9.97339C27.9533 9.97339 29.1533 11.1734 29.1533 12.6401ZM23.0199 27.9734L21.6866 33.8401L12.3533 31.9734L12.8866 29.3067L19.4199 30.6401L21.5533 19.8401L19.1533 20.7734V25.3067H16.4866V19.0401L23.4199 16.1067C23.6199 16.1067 23.7866 16.0734 23.9533 16.0401C24.1199 16.0067 24.2866 15.9734 24.4866 15.9734C25.4199 15.9734 26.2199 16.5067 26.7533 17.3067L28.0866 19.4401C29.1533 21.3067 31.2866 22.6401 33.8199 22.6401V25.3067C30.8866 25.3067 28.2199 23.9734 26.4866 21.9734L25.6866 25.9734L28.4866 28.6401V38.6401H25.8199V30.6401L23.0199 27.9734Z" fill="#A112FF"/>
</svg>
