<svg width="45" height="45" viewBox="0 0 45 45" fill="none" xmlns="http://www.w3.org/2000/svg">
<circle cx="22.5" cy="22.5" r="22.5" fill="#BFBFFF" fill-opacity="0.3"/>
<path d="M25.25 18.5C26.4926 18.5 27.5 17.4926 27.5 16.25C27.5 15.0074 26.4926 14 25.25 14C24.0074 14 23 15.0074 23 16.25C23 17.4926 24.0074 18.5 25.25 18.5Z" stroke="#6B59ED" stroke-width="1.5" stroke-linecap="round" stroke-linejoin="round"/>
<path d="M16.25 20.5203C16.25 20.5203 19.25 17.7499 23.75 21.2703C28.4814 24.9717 31.25 23.5203 31.25 23.5203" stroke="#6B59ED" stroke-width="1.5" stroke-linecap="round" stroke-linejoin="round"/>
<path d="M23.6633 21.2034C23.2562 23.1164 20.5211 30.4022 14 29.7501" stroke="#6B59ED" stroke-width="1.5" stroke-linecap="round" stroke-linejoin="round"/>
<path d="M21.373 26.1084C23.0441 26.4655 27.5001 27.8746 27.5001 32.7496" stroke="#6B59ED" stroke-width="1.5" stroke-linecap="round" stroke-linejoin="round"/>
</svg>
