<svg width="337" height="379" viewBox="0 0 337 379" fill="none" xmlns="http://www.w3.org/2000/svg">
<ellipse cx="40.1222" cy="309.477" rx="14.8347" ry="55.5" transform="rotate(-7.97677 40.1222 309.477)" fill="white"/>
<path opacity="0.65" d="M114.644 170.925C114.214 174.005 113.984 176.855 113.394 179.625C111.794 187.085 111.404 194.605 111.594 202.205C111.674 205.525 111.204 208.865 111.404 212.175C111.604 215.465 112.294 218.735 112.864 221.995C112.944 222.445 113.544 222.795 113.914 223.195C114.374 222.735 115.044 222.345 115.234 221.795C115.484 221.065 115.364 220.215 115.384 219.405C115.634 208.965 115.704 198.525 116.204 188.105C116.534 181.345 118.224 174.745 119.924 168.195C120.844 164.655 121.594 161.065 122.344 157.485C122.634 156.115 123.064 155.285 124.714 155.135C129.844 154.675 133.064 151.705 134.694 146.935C135.254 145.305 135.614 143.615 136.174 141.995C136.444 141.225 136.964 140.555 137.474 139.665C138.824 140.865 138.644 142.065 138.514 143.145C138.124 146.445 137.914 149.805 137.104 153.005C135.464 159.475 134.574 166.055 133.764 172.655C132.664 181.645 131.294 190.615 130.564 199.645C130.034 206.145 130.314 212.705 130.314 219.235C130.314 220.355 130.674 221.495 131.004 222.585C131.214 223.285 132.354 223.325 132.634 222.645C132.974 221.805 133.224 220.905 133.334 220.015C134.304 211.705 135.244 203.385 136.184 195.075C137.584 182.775 138.474 170.405 140.864 158.225C141.304 155.985 141.404 153.675 141.664 151.405C141.794 150.265 141.944 149.135 142.104 147.995C142.264 146.875 142.864 146.435 144.014 146.635C145.704 146.935 147.404 147.215 149.104 147.415C153.564 147.945 156.474 145.675 156.784 141.175C156.994 138.205 156.804 135.215 156.814 132.235C156.814 131.135 156.474 129.895 158.044 129.165C159.624 130.315 160.694 131.925 161.074 133.855C161.844 137.785 162.814 141.725 163.024 145.695C163.454 154.075 162.864 162.395 161.064 170.655C160.114 175.005 159.734 179.495 159.324 183.945C158.874 188.735 158.724 193.555 158.384 198.355C158.084 202.585 157.654 206.815 157.384 211.045C157.184 214.135 157.144 217.235 157.044 220.325C157.034 220.775 157.024 221.265 157.174 221.685C157.264 221.945 157.634 222.235 157.914 222.275C158.194 222.315 158.624 222.155 158.804 221.935C159.084 221.595 159.284 221.145 159.384 220.705C160.764 214.795 162.374 208.945 162.924 202.845C163.984 190.975 165.224 179.115 166.474 167.265C166.774 164.415 167.354 161.595 167.894 158.785C168.244 156.995 168.614 156.755 170.454 156.755C172.514 156.755 174.584 156.795 176.644 156.865C178.544 156.925 179.604 155.975 180.164 154.235C181.414 150.345 181.604 146.365 181.394 142.325C181.314 140.875 181.054 139.395 181.834 137.735C182.474 138.235 182.984 138.485 183.294 138.895C185.384 141.695 186.764 144.815 187.354 148.275C188.694 156.205 189.534 164.185 189.714 172.225C189.924 181.285 190.084 190.345 190.134 199.405C190.184 208.465 190.154 217.525 190.034 226.585C189.924 235.095 189.034 243.505 186.054 251.575C184.864 254.815 183.674 258.035 181.394 260.715C181.104 261.065 180.814 261.445 180.634 261.855C180.194 262.885 180.194 263.915 181.134 264.665C182.034 265.365 182.924 264.955 183.594 264.265C185.264 262.555 187.124 260.945 188.454 258.985C191.104 255.085 192.904 250.735 194.534 246.295C197.014 239.515 199.594 232.765 202.354 226.085C204.654 220.525 208.544 216.275 214.424 213.165C214.134 214.205 214.104 214.835 213.814 215.305C211.784 218.575 210.644 222.175 209.804 225.875C208.634 231.025 210.474 234.235 215.474 236.045C215.794 236.165 216.124 236.295 216.454 236.365C220.044 237.115 220.184 237.155 220.094 241.625C219.934 249.075 219.554 256.525 219.684 263.975C219.764 268.785 220.224 273.565 219.724 278.395C218.884 286.585 216.794 294.305 212.864 301.635C208.404 309.955 201.864 316.225 194.614 321.945C190.474 325.215 186.214 328.325 182.104 331.635C179.314 333.875 176.164 335.055 172.674 335.435C168.914 335.835 165.154 336.285 161.374 336.545C155.434 336.965 149.474 337.255 143.524 337.605C142.954 337.635 142.374 337.635 141.804 337.695C132.674 338.525 123.534 339.305 114.404 340.205C110.534 340.585 106.694 341.205 102.494 341.765C102.424 340.735 102.234 339.745 102.304 338.765C103.064 328.995 102.214 319.295 101.154 309.585C99.684 296.105 97.2539 282.815 93.6939 269.745C93.2139 267.975 93.464 266.795 94.894 265.535C97.994 262.785 100.704 259.665 102.524 255.875C102.964 254.955 103.514 253.955 103.524 252.985C103.574 248.635 103.474 244.285 103.384 239.935C103.364 239.135 103.084 238.345 103.094 237.545C103.224 229.505 102.454 221.505 102.204 213.495C101.904 204.105 102.024 194.685 102.474 185.305C102.674 181.255 103.964 177.215 105.134 173.275C105.874 170.795 106.384 170.805 108.944 170.945C110.634 171.035 112.344 170.965 114.624 170.965L114.644 170.925Z" fill="#A112FF"/>
<path opacity="0.65" d="M261.404 269.705C261.654 271.075 261.984 272.255 262.064 273.445C262.524 279.965 262.894 286.485 263.374 292.995C263.994 301.455 264.714 309.905 265.344 318.365C265.584 321.565 265.734 324.775 265.824 327.985C265.894 330.675 265.644 330.925 263.164 331.525C255.144 333.465 247.074 335.195 238.834 335.875C237.694 335.965 236.544 336.125 235.404 336.085C228.874 335.885 222.334 335.735 215.814 335.355C213.204 335.205 210.604 334.605 208.054 333.985C206.314 333.565 206.154 332.625 207.364 331.235C209.014 329.335 210.994 327.655 212.314 325.545C214.434 322.165 216.424 318.635 217.944 314.955C220.214 309.455 222.044 303.775 224.034 298.155C224.334 297.295 224.624 296.395 224.704 295.495C225.544 286.355 226.754 277.165 225.504 268.045C224.524 260.935 224.684 253.865 224.784 246.785C224.864 240.845 225.544 234.895 226.194 228.985C226.444 226.745 227.304 224.555 227.984 222.375C229.084 218.855 230.054 215.315 229.534 211.585C229.354 210.295 229.634 209.315 230.744 208.645C232.524 207.565 233.834 205.455 236.774 206.005C236.474 206.925 236.264 207.735 235.944 208.505C234.014 213.065 232.334 217.675 232.484 222.735C232.504 223.425 232.514 224.115 232.574 224.795C232.924 229.035 234.574 230.975 238.654 231.995C241.124 232.605 241.474 232.865 241.704 235.355C241.984 238.315 242.154 241.295 242.234 244.275C242.444 252.065 242.784 259.865 242.674 267.655C242.604 272.905 241.874 278.155 241.434 283.405C241.204 286.135 240.664 288.885 240.794 291.605C241.164 299.425 238.354 306.485 235.774 313.575C234.474 317.155 231.414 319.395 228.194 321.295C227.504 321.705 226.664 321.945 226.124 322.495C225.624 323.005 225.024 323.965 225.204 324.475C225.454 325.195 226.304 326.005 227.024 326.165C227.954 326.375 229.084 326.155 230.014 325.805C234.934 323.995 238.644 320.855 241.174 316.155C246.324 306.545 250.904 296.685 254.664 286.455C256.284 282.045 257.634 277.545 259.174 273.105C259.564 271.965 259.714 270.615 261.384 269.705H261.404Z" fill="#00CBEC"/>
<path opacity="0.65" d="M216.204 205.785C213.224 207.065 210.164 207.005 207.944 209.065C205.954 210.925 203.894 212.705 201.864 214.515C200.334 213.825 200.114 212.475 199.844 211.105C198.434 203.775 197.724 196.375 197.204 188.935C196.774 182.885 196.064 176.845 195.524 170.795C195.334 168.635 195.424 166.435 195.114 164.285C194.044 156.915 192.894 149.565 191.684 142.225C191.444 140.775 190.874 139.355 190.284 137.995C189.304 135.735 190.084 133.915 191.654 132.405C193.174 130.935 195.044 130.605 197.074 131.435C198.874 132.165 200.214 133.425 200.854 135.215C202.284 139.195 203.744 143.175 204.844 147.255C206.034 151.665 206.974 156.165 207.754 160.675C209.214 169.135 210.444 177.635 211.864 186.105C212.354 189.035 213.104 191.925 213.744 194.825C214.534 198.385 215.334 201.945 216.194 205.775L216.204 205.785Z" fill="#00CBEC"/>
<path opacity="0.65" d="M236.424 222.535C237.114 218.415 237.284 214.125 239.764 210.495C240.454 209.485 241.334 208.545 242.284 207.785C243.124 207.115 244.354 206.955 245.104 207.815C245.714 208.505 246.334 209.675 246.174 210.475C245.164 215.605 244.004 220.715 242.764 225.795C242.284 227.745 240.524 228.405 238.764 227.445C236.834 226.395 236.124 224.705 236.424 222.535Z" fill="#00CBEC"/>
<path opacity="0.65" d="M178.704 129.575C178.454 129.835 178.104 130.505 177.584 130.665C175.624 131.275 173.604 131.695 171.624 132.255C170.694 132.515 170.064 132.215 169.594 131.455C168.624 129.895 167.604 128.375 166.734 126.765C165.924 125.275 166.844 122.555 168.544 120.965C170.084 119.535 171.754 119.325 173.564 120.335C176.284 121.855 178.654 125.935 178.704 129.585V129.575Z" fill="#00CBEC"/>
<path opacity="0.65" d="M218.644 231.675C217.474 231.405 216.584 231.275 215.754 230.985C212.364 229.775 211.294 228.145 212.214 224.725C213.004 221.765 214.124 218.875 215.354 216.065C216.334 213.815 218.074 212.145 220.374 211.145C222.604 210.175 223.434 210.675 223.224 213.005C223.114 214.245 222.914 215.525 222.474 216.685C220.884 220.875 219.944 225.205 219.214 229.605C219.124 230.155 218.924 230.685 218.644 231.685V231.675Z" fill="#A112FF"/>
<path opacity="0.65" d="M177.204 142.125C176.914 143.925 176.794 145.765 176.294 147.505C175.594 149.905 173.774 150.715 170.784 150.285C168.254 149.925 167.124 148.745 167.154 146.155C167.194 143.265 167.844 140.465 169.154 137.885C169.554 137.105 170.224 136.375 170.954 135.885C174.124 133.755 176.054 134.585 176.684 138.325C176.894 139.565 176.904 140.835 177.004 142.085C177.074 142.095 177.134 142.115 177.204 142.125Z" fill="#A112FF"/>
<path opacity="0.65" d="M141.774 139.815C142.784 134.405 144.474 129.735 147.124 125.435C147.504 124.815 148.284 124.315 148.984 124.025C150.054 123.585 151.074 123.865 151.454 125.095C151.754 126.065 152.074 127.105 152.024 128.095C151.854 131.385 151.664 134.695 151.184 137.955C150.824 140.385 149.824 140.985 147.334 140.735C145.654 140.565 143.984 140.185 141.764 139.815H141.774Z" fill="#A112FF"/>
<path opacity="0.65" d="M122.474 146.285C123.004 141.895 124.404 138.365 127.924 136.015C128.884 135.375 129.934 134.715 131.074 135.585C132.074 136.355 131.864 137.475 131.474 138.425C130.574 140.645 129.684 142.885 128.534 144.985C127.954 146.035 126.924 146.945 125.894 147.615C125.234 148.045 124.124 148.215 123.404 147.965C122.884 147.785 122.684 146.705 122.464 146.285H122.474Z" fill="#A112FF"/>
<path opacity="0.65" d="M115.244 157.105C114.944 161.135 112.784 163.665 109.224 164.475C107.794 164.805 107.004 163.985 107.484 162.565C107.734 161.825 108.114 161.055 108.654 160.505C110.084 159.035 111.604 157.645 113.164 156.315C113.514 156.015 114.294 155.845 114.674 156.035C115.044 156.215 115.154 156.925 115.244 157.115V157.105Z" fill="#A112FF"/>
<path d="M186.644 26.5854C188.474 26.3854 190.134 27.6655 190.334 29.4955L193.484 56.5954C193.684 58.4254 192.404 60.0854 190.574 60.2854C188.744 60.4854 187.084 59.2054 186.884 57.3754L183.794 30.2754C183.534 28.4454 184.874 26.7854 186.634 26.5854H186.644Z" fill="#FF5543"/>
<path d="M199.174 31.9654C200.284 31.8454 201.484 32.3154 202.194 33.2754C203.254 34.7754 202.994 36.8254 201.494 37.8954L179.594 54.0954C178.094 55.1554 176.044 54.8954 174.974 53.3954C173.914 51.8954 174.174 49.8454 175.674 48.7754L197.564 32.6354C198.044 32.2754 198.644 32.0654 199.164 31.9654H199.174Z" fill="#FF5543"/>
<path d="M175.724 34.7154C176.314 34.6254 176.894 34.7254 177.394 34.9554L202.444 45.7954C204.144 46.5554 204.914 48.4854 204.154 50.1854C203.394 51.8854 201.464 52.6554 199.764 51.8954L174.784 40.9954C173.084 40.2354 172.314 38.3054 173.074 36.6054C173.534 35.5354 174.624 34.8354 175.734 34.7154H175.724Z" fill="#FF5543"/>
<path d="M97.9367 47.245L97.9287 47.2511C97.277 47.7444 97.1488 48.6727 97.6422 49.3244L123.031 82.8575C123.524 83.5091 124.452 83.6374 125.104 83.1441L125.112 83.138C125.764 82.6446 125.892 81.7164 125.399 81.0647L100.01 47.5316C99.5166 46.88 98.5884 46.7516 97.9367 47.245Z" fill="#270741"/>
<path d="M139.098 67.8811L139.088 67.8839C138.305 68.1179 137.86 68.9424 138.093 69.7256L144.169 90.0676C144.403 90.8508 145.228 91.2961 146.011 91.0621L146.021 91.0593C146.804 90.8254 147.249 90.0008 147.015 89.2176L140.939 68.8756C140.705 68.0924 139.881 67.6471 139.098 67.8811Z" fill="#270741"/>
<path d="M179.723 67.9326L179.713 67.9297C178.93 67.6958 178.105 68.141 177.871 68.9242L171.796 89.2662C171.562 90.0494 172.007 90.874 172.79 91.1079L172.8 91.1108C173.583 91.3447 174.407 90.8994 174.641 90.1162L180.717 69.7742C180.951 68.991 180.506 68.1665 179.723 67.9326Z" fill="#270741"/>
<path d="M224.168 45.977L224.16 45.971C223.508 45.4776 222.58 45.6059 222.087 46.2576L196.698 79.7907C196.205 80.4424 196.333 81.3706 196.985 81.864L196.993 81.87C197.645 82.3634 198.573 82.2352 199.066 81.5835L224.455 48.0504C224.948 47.3987 224.82 46.4704 224.168 45.977Z" fill="#270741"/>
<path d="M160.624 30.9655H160.614C159.797 30.9655 159.134 31.6281 159.134 32.4454V95.4055C159.134 96.2228 159.797 96.8854 160.614 96.8854H160.624C161.441 96.8854 162.104 96.2228 162.104 95.4055V32.4454C162.104 31.6281 161.441 30.9655 160.624 30.9655Z" fill="#270741"/>
<path d="M186.644 26.5854C188.474 26.3854 190.134 27.6655 190.334 29.4955L193.484 56.5954C193.684 58.4254 192.404 60.0854 190.574 60.2854C188.744 60.4854 187.084 59.2054 186.884 57.3754L183.794 30.2754C183.534 28.4454 184.874 26.7854 186.634 26.5854H186.644Z" fill="#FF5543"/>
<path d="M199.174 31.9654C200.284 31.8454 201.484 32.3154 202.194 33.2754C203.254 34.7754 202.994 36.8254 201.494 37.8954L179.594 54.0954C178.094 55.1554 176.044 54.8954 174.974 53.3954C173.914 51.8954 174.174 49.8454 175.674 48.7754L197.564 32.6354C198.044 32.2754 198.644 32.0654 199.164 31.9654H199.174Z" fill="#FF5543"/>
<path d="M175.724 34.7154C176.314 34.6254 176.894 34.7254 177.394 34.9554L202.444 45.7954C204.144 46.5554 204.914 48.4854 204.154 50.1854C203.394 51.8854 201.464 52.6554 199.764 51.8954L174.784 40.9954C173.084 40.2354 172.314 38.3054 173.074 36.6054C173.534 35.5354 174.624 34.8354 175.734 34.7154H175.724Z" fill="#FF5543"/>
<path d="M119.944 29.9354C121.414 28.8354 123.494 29.0854 124.604 30.5554L141.114 52.2854C142.214 53.7554 141.964 55.8354 140.494 56.9454C139.024 58.0454 136.944 57.7954 135.834 56.3254L119.384 34.5654C118.224 33.1254 118.534 31.0154 119.954 29.9354H119.944Z" fill="#FF5543"/>
<path d="M133.474 28.1954C134.364 27.5254 135.644 27.3254 136.744 27.7854C138.424 28.5354 139.234 30.4354 138.494 32.1154L127.894 57.2054C127.144 58.8854 125.244 59.6954 123.564 58.9554C121.884 58.2054 121.074 56.3054 121.814 54.6254L132.444 29.5954C132.674 29.0454 133.074 28.5554 133.484 28.2054L133.474 28.1954Z" fill="#FF5543"/>
<path d="M114.684 42.4955C115.144 42.1155 115.694 41.9154 116.244 41.8554L143.324 38.4355C145.174 38.2255 146.824 39.4954 147.034 41.3454C147.244 43.1954 145.974 44.8455 144.124 45.0555L117.074 48.3955C115.224 48.6055 113.574 47.3354 113.364 45.4854C113.214 44.3254 113.794 43.1754 114.684 42.5054V42.4955Z" fill="#FF5543"/>
<path d="M87.274 254.765C89.934 253.695 91.404 252.085 92.214 249.785C93.564 245.965 94.2141 242.015 94.3041 237.975C94.4141 233.045 94.5441 228.105 94.4241 223.175C94.2641 216.995 93.8641 210.815 93.5541 204.635C93.3941 201.425 93.2241 198.225 93.0541 195.025C92.6641 187.745 93.4541 180.595 95.4841 173.595C95.7041 172.825 95.954 172.055 96.094 171.265C97.444 163.715 101.794 157.845 106.754 152.335C108.444 150.465 110.314 148.715 112.804 147.925C114.044 147.535 114.674 146.715 114.984 145.515C115.274 144.405 115.684 143.325 115.934 142.215C116.784 138.505 118.904 135.625 121.504 132.905C124.884 129.365 128.974 128.015 133.644 128.525C135.764 128.755 136.874 128.145 137.704 126.345C138.234 125.205 138.974 124.165 139.604 123.075C141.364 119.975 144.184 118.305 147.484 117.415C150.284 116.655 152.944 116.965 155.194 119.065C155.764 119.595 156.484 119.945 157.274 120.485C157.764 119.685 158.204 119.035 158.564 118.345C159.704 116.155 161.374 114.455 163.344 113.005C166.244 110.875 171.364 110.865 174.314 112.955C176.324 114.385 177.934 116.155 178.764 118.505C179.484 120.555 180.094 122.645 180.734 124.735C181.094 125.915 181.414 127.105 181.904 128.855C182.794 127.705 183.344 127.035 183.834 126.335C186.634 122.355 190.274 121.315 194.614 123.415C199.634 125.845 202.974 129.865 204.584 135.125C205.754 138.955 206.544 142.915 207.244 146.855C209.744 160.845 212.024 174.885 215.614 188.655C216.684 192.755 217.854 196.826 219.144 200.855C219.894 203.195 220.924 203.495 222.984 202.215C224.344 201.365 225.594 200.335 226.934 199.465C231.764 196.355 237.004 196.586 242.184 198.105C245.454 199.065 247.284 202.965 246.794 206.835C246.174 211.725 245.414 216.595 244.854 221.495C243.914 229.725 243.904 237.975 244.464 246.235C244.564 247.785 244.654 249.335 244.744 250.885C244.984 250.925 245.224 250.965 245.464 251.005C246.074 249.235 246.684 247.465 247.304 245.695C248.644 241.875 250.504 238.375 253.064 235.195C254.544 233.355 256.304 232.355 258.614 232.205C259.184 232.165 259.754 232.085 260.334 232.075C271.574 231.945 282.804 231.115 294.044 231.835C295.414 231.925 296.784 232.215 298.154 232.205C303.014 232.185 306.094 235.065 308.224 238.865C309.944 241.935 311.204 245.315 312.214 248.705C314.524 256.425 315.624 264.385 316.374 272.395C318.354 293.485 317.934 314.565 315.914 335.615C315.364 341.325 314.504 346.995 313.914 352.695C313.684 354.965 312.714 356.545 310.804 357.715C309.634 358.435 308.584 359.335 307.444 360.115C305.614 361.365 295.944 363.065 295.944 363.065C295.944 363.065 281.984 365.605 274.894 366.135C272.494 366.315 270.084 366.465 267.674 366.515C263.654 366.605 258.344 363.995 256.244 360.595C254.874 358.375 253.704 355.955 252.934 353.465C251.754 349.635 251.004 345.675 250.074 341.775C249.884 340.995 249.724 340.205 249.554 339.425C249.254 338.065 248.464 337.535 247.064 337.735C245.474 337.965 243.874 338.115 242.274 338.235C232.074 338.955 221.864 338.905 211.694 337.785C204.014 336.935 196.554 335.165 189.714 331.355C188.024 330.415 186.314 329.915 184.534 331.085C177.794 335.465 170.064 335.945 162.424 336.605C152.604 337.445 142.754 337.945 132.934 338.805C127.454 339.285 122.024 340.235 116.554 340.865C112.224 341.365 107.884 341.705 103.544 342.125C102.634 342.215 101.714 342.266 100.804 342.415C98.7041 342.766 98.544 342.995 98.274 344.985C97.774 348.725 97.234 352.455 96.694 356.195C96.614 356.765 96.434 357.315 96.334 357.875C95.744 361.305 93.814 363.395 90.324 364.015C85.364 364.895 80.424 365.945 75.454 366.735C67.194 368.055 58.904 369.215 50.634 370.455C46.544 371.075 42.9941 369.475 39.4141 367.895C37.7541 367.155 37.144 365.715 36.674 364.145C34.684 357.435 32.5541 350.765 30.7641 344.005C26.1641 326.565 22.7741 308.885 20.9741 290.925C19.9541 280.755 19.4741 270.555 20.6341 260.355C21.2241 255.176 22.2841 250.186 25.7241 245.975C26.9041 244.535 28.2041 243.645 30.0041 243.445C31.2541 243.305 32.514 243.205 33.774 243.055C43.564 241.905 53.344 240.655 63.154 239.645C67.244 239.225 71.394 239.305 75.514 239.135C76.974 239.075 78.1541 239.625 79.2941 240.495C82.6841 243.105 85.1241 246.275 85.8741 250.615C86.1141 252.015 86.774 253.345 87.264 254.785L87.274 254.765ZM111.194 166.325C108.914 166.325 107.204 166.395 105.514 166.305C102.964 166.165 102.444 166.155 101.704 168.635C100.534 172.565 99.2341 176.615 99.0441 180.665C98.5941 190.045 98.474 199.476 98.774 208.855C99.024 216.876 99.7941 224.875 99.6641 232.905C99.6541 233.695 99.934 234.495 99.954 235.296C100.044 239.646 100.144 243.995 100.094 248.345C100.084 249.315 99.534 250.315 99.094 251.235C97.274 255.015 94.564 258.145 91.464 260.895C90.044 262.155 89.784 263.326 90.264 265.105C93.824 278.186 96.2541 291.475 97.7241 304.945C98.784 314.655 99.6341 324.345 98.8741 334.125C98.7941 335.095 98.994 336.095 99.064 337.125C103.254 336.565 107.104 335.945 110.974 335.565C120.104 334.665 129.244 333.885 138.374 333.055C138.944 333.005 139.524 333.005 140.094 332.965C146.044 332.625 151.994 332.335 157.944 331.905C161.714 331.635 165.484 331.195 169.244 330.796C172.734 330.426 175.884 329.245 178.674 326.995C182.784 323.695 187.044 320.575 191.184 317.305C198.434 311.585 204.974 305.315 209.434 296.995C213.364 289.665 215.454 281.945 216.294 273.755C216.794 268.935 216.344 264.145 216.254 259.335C216.124 251.895 216.504 244.435 216.664 236.985C216.754 232.515 216.614 232.485 213.024 231.725C212.694 231.655 212.364 231.525 212.044 231.405C207.044 229.595 205.204 226.385 206.374 221.235C207.214 217.535 208.364 213.935 210.384 210.665C210.674 210.195 210.714 209.565 210.994 208.525C205.114 211.645 201.224 215.885 198.924 221.445C196.164 228.115 193.594 234.875 191.104 241.655C189.474 246.095 187.674 250.445 185.024 254.345C183.694 256.305 181.834 257.915 180.164 259.625C179.494 260.315 178.594 260.725 177.704 260.025C176.754 259.285 176.764 258.245 177.204 257.215C177.384 256.805 177.674 256.425 177.964 256.075C180.244 253.395 181.434 250.175 182.624 246.935C185.604 238.865 186.484 230.455 186.604 221.945C186.724 212.885 186.764 203.825 186.704 194.765C186.654 185.705 186.494 176.645 186.284 167.585C186.094 159.545 185.264 151.565 183.924 143.635C183.334 140.175 181.954 137.055 179.864 134.255C179.554 133.845 179.044 133.595 178.404 133.095C177.624 134.755 177.884 136.235 177.964 137.685C178.174 141.725 177.984 145.705 176.734 149.595C176.174 151.345 175.114 152.295 173.214 152.225C171.154 152.155 169.084 152.115 167.024 152.115C165.174 152.115 164.804 152.345 164.464 154.145C163.914 156.955 163.344 159.785 163.044 162.625C161.794 174.475 160.544 186.335 159.494 198.205C158.954 204.305 157.344 210.155 155.954 216.065C155.854 216.495 155.654 216.946 155.374 217.296C155.194 217.516 154.764 217.685 154.484 217.635C154.204 217.595 153.834 217.306 153.744 217.046C153.594 216.626 153.604 216.145 153.614 215.685C153.714 212.595 153.754 209.495 153.954 206.405C154.224 202.175 154.654 197.945 154.954 193.715C155.294 188.915 155.444 184.095 155.894 179.305C156.304 174.855 156.694 170.365 157.634 166.015C159.424 157.765 160.024 149.435 159.594 141.055C159.384 137.085 158.424 133.135 157.644 129.215C157.264 127.285 156.194 125.675 154.614 124.525C153.044 125.255 153.394 126.495 153.384 127.595C153.384 130.575 153.564 133.575 153.354 136.535C153.044 141.035 150.134 143.305 145.674 142.775C143.974 142.575 142.274 142.305 140.584 141.995C139.434 141.785 138.824 142.235 138.674 143.355C138.514 144.486 138.374 145.625 138.234 146.765C137.964 149.035 137.874 151.345 137.434 153.585C135.044 165.765 134.154 178.135 132.754 190.435C131.804 198.745 130.874 207.065 129.904 215.375C129.804 216.265 129.544 217.175 129.204 218.005C128.934 218.685 127.784 218.645 127.574 217.945C127.244 216.855 126.884 215.715 126.884 214.595C126.884 208.065 126.604 201.495 127.134 195.005C127.874 185.985 129.234 177.015 130.334 168.015C131.144 161.415 132.024 154.835 133.674 148.365C134.484 145.165 134.694 141.805 135.084 138.505C135.214 137.425 135.404 136.225 134.044 135.025C133.534 135.915 133.014 136.595 132.744 137.355C132.184 138.976 131.814 140.676 131.264 142.296C129.634 147.066 126.414 150.035 121.284 150.495C119.634 150.645 119.204 151.475 118.914 152.845C118.164 156.425 117.414 160.015 116.494 163.555C114.794 170.115 113.104 176.705 112.774 183.465C112.274 193.885 112.204 204.335 111.954 214.765C111.934 215.565 112.054 216.425 111.804 217.155C111.614 217.705 110.944 218.095 110.484 218.555C110.124 218.155 109.514 217.805 109.434 217.355C108.864 214.095 108.174 210.825 107.974 207.535C107.774 204.225 108.244 200.885 108.164 197.565C107.984 189.965 108.364 182.445 109.964 174.985C110.554 172.215 110.784 169.365 111.214 166.285L111.194 166.325ZM258.114 266.255C256.444 267.165 256.304 268.515 255.904 269.655C254.364 274.095 253.014 278.595 251.394 283.005C247.634 293.235 243.054 303.095 237.904 312.705C235.384 317.415 231.664 320.546 226.744 322.355C225.814 322.695 224.684 322.915 223.754 322.715C223.024 322.555 222.174 321.735 221.934 321.025C221.754 320.515 222.354 319.555 222.854 319.046C223.394 318.495 224.234 318.255 224.924 317.845C228.134 315.945 231.194 313.705 232.504 310.125C235.084 303.035 237.894 295.975 237.524 288.155C237.394 285.435 237.934 282.685 238.164 279.955C238.604 274.705 239.334 269.455 239.404 264.205C239.504 256.415 239.174 248.615 238.964 240.825C238.884 237.845 238.724 234.865 238.434 231.905C238.194 229.415 237.854 229.166 235.384 228.546C231.304 227.535 229.654 225.585 229.304 221.345C229.244 220.665 229.234 219.975 229.214 219.285C229.074 214.225 230.744 209.605 232.674 205.055C232.994 204.285 233.204 203.475 233.504 202.555C230.564 202.005 229.254 204.115 227.474 205.195C226.364 205.865 226.084 206.845 226.264 208.135C226.784 211.865 225.814 215.405 224.714 218.925C224.034 221.105 223.174 223.295 222.924 225.535C222.274 231.455 221.594 237.395 221.514 243.335C221.414 250.415 221.254 257.485 222.234 264.595C223.484 273.715 222.274 282.906 221.434 292.046C221.354 292.945 221.064 293.845 220.764 294.705C218.774 300.325 216.944 306.005 214.674 311.505C213.154 315.185 211.164 318.715 209.044 322.095C207.724 324.195 205.734 325.875 204.094 327.785C202.884 329.185 203.054 330.115 204.784 330.535C207.334 331.155 209.934 331.755 212.544 331.905C219.064 332.295 225.604 332.435 232.134 332.635C233.274 332.665 234.424 332.515 235.564 332.425C243.814 331.745 251.874 330.015 259.894 328.075C262.374 327.475 262.634 327.225 262.554 324.535C262.464 321.325 262.314 318.115 262.074 314.915C261.444 306.455 260.724 298.006 260.104 289.546C259.624 283.036 259.264 276.505 258.794 269.995C258.714 268.805 258.384 267.635 258.134 266.255H258.114ZM44.4585 304C42.1877 288.564 37.814 271.475 36.084 264.935C35.554 262.945 34.8141 261.005 34.0641 259.095C33.5341 257.755 32.624 256.735 31.024 256.675C29.434 256.605 28.3841 257.545 27.7941 258.835C27.2341 260.055 26.874 261.395 26.654 262.725C25.924 270.215 26.954 280.685 27.994 288.065C29.394 297.935 31.0641 307.765 32.2341 317.655C33.6241 329.405 36.244 340.915 38.874 352.415C39.504 355.165 40.7441 357.815 42.0441 360.345C42.9641 362.155 44.7141 362.076 45.8841 360.415C46.3341 359.775 46.6941 358.995 46.8241 358.235C47.5841 353.815 47.914 349.375 47.704 344.885C47.384 338.135 46.7897 319.846 44.4585 304ZM212.914 202.325C212.054 198.495 211.254 194.935 210.464 191.375C209.824 188.475 209.074 185.585 208.584 182.655C207.174 174.185 205.944 165.685 204.474 157.225C203.694 152.715 202.754 148.225 201.564 143.805C200.464 139.725 198.994 135.745 197.574 131.765C196.934 129.975 195.594 128.715 193.794 127.985C191.774 127.165 189.894 127.485 188.374 128.955C186.804 130.475 186.024 132.296 187.004 134.546C187.594 135.906 188.164 137.325 188.404 138.775C189.614 146.115 190.764 153.475 191.834 160.835C192.144 162.975 192.054 165.175 192.244 167.345C192.784 173.395 193.494 179.425 193.924 185.485C194.444 192.925 195.154 200.325 196.564 207.655C196.824 209.015 197.044 210.375 198.584 211.065C200.614 209.255 202.664 207.465 204.664 205.615C206.874 203.555 209.934 203.615 212.924 202.335L212.914 202.325ZM74.884 338.125C71.014 337.955 68.424 339.175 67.154 342.055C66.154 344.315 65.4741 346.835 65.3041 349.285C65.0541 352.885 67.534 356.055 70.764 356.675C74.704 357.435 78.4241 356.615 81.1841 353.605C84.6941 349.755 84.714 346.415 82.524 342.635C80.624 339.365 77.644 338.365 74.884 338.115V338.125ZM283.484 343.465C283.664 344.205 283.804 345.595 284.324 346.825C285.554 349.715 289.044 351.625 291.854 351.135C294.804 350.625 297.424 347.845 297.594 344.665C297.674 343.105 297.404 341.455 296.944 339.955C296.054 337.065 292.744 334.865 289.804 334.955C287.214 335.035 284.454 337.685 283.794 340.785C283.654 341.455 283.624 342.145 283.474 343.475L283.484 343.465ZM216.654 229.675C216.934 228.675 217.134 228.145 217.224 227.595C217.954 223.195 218.894 218.865 220.484 214.675C220.924 213.515 221.114 212.235 221.234 210.995C221.444 208.655 220.614 208.155 218.384 209.135C216.084 210.145 214.334 211.805 213.364 214.055C212.144 216.865 211.024 219.765 210.224 222.715C209.304 226.135 210.374 227.765 213.764 228.975C214.594 229.275 215.484 229.396 216.654 229.665V229.675ZM233.134 219.075C232.834 221.245 233.544 222.935 235.474 223.985C237.234 224.945 239.004 224.285 239.474 222.335C240.714 217.255 241.884 212.145 242.884 207.015C243.044 206.215 242.424 205.046 241.814 204.355C241.064 203.495 239.834 203.655 238.994 204.325C238.034 205.085 237.164 206.025 236.474 207.035C233.994 210.655 233.824 214.955 233.134 219.075ZM175.214 140.115C175.144 140.105 175.084 140.085 175.014 140.075C174.914 138.825 174.904 137.555 174.694 136.315C174.074 132.585 172.134 131.745 168.964 133.875C168.234 134.365 167.564 135.095 167.164 135.875C165.844 138.455 165.204 141.255 165.164 144.145C165.124 146.735 166.264 147.915 168.794 148.275C171.784 148.705 173.604 147.895 174.304 145.495C174.814 143.765 174.924 141.915 175.214 140.115ZM139.784 137.815C142.004 138.195 143.674 138.565 145.354 138.735C147.834 138.985 148.844 138.385 149.204 135.955C149.684 132.695 149.874 129.385 150.044 126.095C150.094 125.105 149.774 124.065 149.474 123.095C149.094 121.865 148.074 121.595 147.004 122.025C146.304 122.315 145.524 122.805 145.144 123.435C142.494 127.735 140.794 132.405 139.794 137.815H139.784ZM262.464 335.245C260.304 335.575 258.514 335.765 256.764 336.135C254.684 336.575 254.334 337.065 254.794 339.275C255.544 342.965 256.404 346.635 257.304 350.285C257.684 351.835 258.194 353.355 258.814 354.825C259.074 355.425 259.784 355.835 260.624 356.655C262.944 349.415 262.494 342.525 262.474 335.245H262.464ZM175.414 126.115C175.354 122.475 172.994 118.385 170.274 116.865C168.464 115.855 166.784 116.065 165.254 117.495C163.554 119.085 162.634 121.806 163.444 123.296C164.314 124.906 165.334 126.425 166.304 127.985C166.774 128.745 167.404 129.045 168.334 128.785C170.314 128.235 172.334 127.815 174.294 127.195C174.804 127.035 175.164 126.365 175.414 126.105V126.115ZM120.484 144.275C120.694 144.695 120.904 145.775 121.424 145.955C122.144 146.205 123.254 146.035 123.914 145.605C124.934 144.936 125.974 144.025 126.554 142.975C127.704 140.885 128.604 138.635 129.494 136.415C129.884 135.455 130.094 134.335 129.094 133.575C127.954 132.705 126.904 133.355 125.944 134.005C122.424 136.365 121.024 139.885 120.494 144.275H120.484ZM113.244 155.095C113.154 154.905 113.044 154.195 112.674 154.015C112.294 153.835 111.514 153.996 111.164 154.296C109.604 155.626 108.094 157.025 106.654 158.485C106.114 159.035 105.744 159.806 105.484 160.546C105.004 161.965 105.794 162.785 107.224 162.455C110.774 161.645 112.944 159.115 113.244 155.085V155.095Z" fill="#270741"/>
<path d="M70.2739 0.00541915C73.0339 0.245419 76.0139 1.24544 77.9139 4.52544C80.1039 8.30544 80.0839 11.6454 76.5739 15.4954C73.8239 18.5154 70.0939 19.3254 66.1539 18.5654C62.9239 17.9454 60.4439 14.7654 60.6939 11.1754C60.8639 8.72543 61.5539 6.19542 62.5439 3.94542C63.8139 1.07542 66.4039 -0.154571 70.2739 0.0154289V0.00541915Z" fill="white"/>
<path d="M283.474 343.475C283.624 342.155 283.644 341.455 283.794 340.785C284.454 337.695 287.204 335.035 289.804 334.955C292.744 334.865 296.054 337.065 296.944 339.955C297.404 341.455 297.684 343.105 297.594 344.665C297.424 347.845 294.804 350.625 291.854 351.135C289.044 351.625 285.554 349.715 284.324 346.825C283.804 345.595 283.654 344.195 283.484 343.465L283.474 343.475Z" fill="white"/>
<path d="M262.454 335.255C262.474 342.535 262.924 349.425 260.604 356.665C259.764 355.835 259.044 355.435 258.794 354.835C258.174 353.375 257.664 351.845 257.284 350.295C256.384 346.635 255.534 342.965 254.774 339.285C254.324 337.075 254.664 336.585 256.744 336.145C258.494 335.775 260.284 335.585 262.444 335.255H262.454Z" fill="white"/>
<mask id="mask0_115_10883" style="mask-type:luminance" maskUnits="userSpaceOnUse" x="262" y="238" width="52" height="130">
<path d="M302.749 361.502C307.799 358.722 309.449 353.972 311.339 348.052C315.618 334.612 311.919 318.572 312.849 305.072C312.799 296.072 312.129 280.422 310.159 271.432C307.019 257.082 309.819 253.222 302.089 241.822C300.069 238.832 302.989 239.422 299.819 239.092C289.109 237.992 273.358 236.562 262.958 241.332C263.528 241.812 264.009 242.472 264.379 243.412C266.739 249.282 266.458 257.092 267.118 263.432C270.068 291.422 270.779 287.462 269.909 297.522C269.439 302.962 271.798 328.412 270.988 333.822C270.988 333.822 269.469 361.642 263.579 367.212C263.579 367.212 291.919 367.452 302.749 361.492V361.502Z" fill="white"/>
</mask>
<g mask="url(#mask0_115_10883)">
<mask id="mask1_115_10883" style="mask-type:luminance" maskUnits="userSpaceOnUse" x="303" y="208" width="93" height="111">
<path d="M318.919 208.594L303.143 305.569L379.637 318.013L395.413 221.038L318.919 208.594Z" fill="white"/>
</mask>
<g mask="url(#mask1_115_10883)">
<path d="M303.692 300.682L380.722 313.222" stroke="white" stroke-width="1.75"/>
<path d="M306.842 281.292L383.872 293.822" stroke="white" stroke-width="1.75"/>
<path d="M310.002 261.892L387.032 274.432" stroke="white" stroke-width="1.75"/>
<path d="M313.162 242.502L390.182 255.032" stroke="white" stroke-width="1.75"/>
<path d="M305.272 290.982L382.292 303.522" stroke="white" stroke-width="1.75"/>
<path d="M308.422 271.592L385.452 284.122" stroke="white" stroke-width="1.75"/>
<path d="M311.582 252.192L388.612 264.732" stroke="white" stroke-width="1.75"/>
<path d="M227.192 288.232L304.222 300.772" stroke="white" stroke-width="1.75"/>
<path d="M230.352 268.842L307.382 281.372" stroke="white" stroke-width="1.75"/>
<path d="M233.502 249.442L310.532 261.982" stroke="white" stroke-width="1.75"/>
<path d="M236.662 230.052L313.692 242.582" stroke="white" stroke-width="1.75"/>
<path d="M228.772 278.542L305.802 291.072" stroke="white" stroke-width="1.75"/>
<path d="M231.932 259.142L308.952 271.682" stroke="white" stroke-width="1.75"/>
<path d="M235.082 239.752L312.112 252.282" stroke="white" stroke-width="1.75"/>
</g>
<mask id="mask2_115_10883" style="mask-type:luminance" maskUnits="userSpaceOnUse" x="287" y="305" width="93" height="110">
<path d="M303.137 305.559L287.361 402.535L363.855 414.979L379.631 318.004L303.137 305.559Z" fill="white"/>
</mask>
<g mask="url(#mask2_115_10883)">
<path d="M294.222 358.872L371.252 371.402" stroke="white" stroke-width="1.75"/>
<path d="M297.382 339.472L374.402 352.012" stroke="white" stroke-width="1.75"/>
<path d="M300.532 320.082L377.562 332.612" stroke="white" stroke-width="1.75"/>
<path d="M295.802 349.172L372.832 361.702" stroke="white" stroke-width="1.75"/>
<path d="M298.952 329.772L375.982 342.312" stroke="white" stroke-width="1.75"/>
<path d="M302.112 310.382L379.142 322.912" stroke="white" stroke-width="1.75"/>
<path d="M214.572 365.812L291.592 378.352" stroke="white" stroke-width="1.75"/>
<path d="M217.722 346.422L294.752 358.952" stroke="white" stroke-width="1.75"/>
<path d="M220.882 327.022L297.912 339.562" stroke="white" stroke-width="1.75"/>
<path d="M224.042 307.632L301.062 320.162" stroke="white" stroke-width="1.75"/>
<path d="M216.152 356.122L293.172 368.652" stroke="white" stroke-width="1.75"/>
<path d="M219.302 336.722L296.332 349.262" stroke="white" stroke-width="1.75"/>
<path d="M222.462 317.332L299.492 329.862" stroke="white" stroke-width="1.75"/>
<path d="M225.612 297.932L302.642 310.472" stroke="white" stroke-width="1.75"/>
</g>
<mask id="mask3_115_10883" style="mask-type:luminance" maskUnits="userSpaceOnUse" x="226" y="196" width="93" height="110">
<path d="M242.427 196.152L226.651 293.127L303.145 305.571L318.921 208.596L242.427 196.152Z" fill="white"/>
</mask>
<g mask="url(#mask3_115_10883)">
<path d="M303.692 300.682L380.722 313.222" stroke="white" stroke-width="1.75"/>
<path d="M306.842 281.292L383.872 293.822" stroke="white" stroke-width="1.75"/>
<path d="M310.002 261.892L387.032 274.432" stroke="white" stroke-width="1.75"/>
<path d="M313.162 242.502L390.182 255.032" stroke="white" stroke-width="1.75"/>
<path d="M305.272 290.982L382.292 303.522" stroke="white" stroke-width="1.75"/>
<path d="M308.422 271.592L385.452 284.122" stroke="white" stroke-width="1.75"/>
<path d="M311.582 252.192L388.612 264.732" stroke="white" stroke-width="1.75"/>
<path d="M227.192 288.232L304.222 300.772" stroke="white" stroke-width="1.75"/>
<path d="M230.352 268.842L307.382 281.372" stroke="white" stroke-width="1.75"/>
<path d="M233.502 249.442L310.532 261.982" stroke="white" stroke-width="1.75"/>
<path d="M236.662 230.052L313.692 242.582" stroke="white" stroke-width="1.75"/>
<path d="M228.772 278.542L305.802 291.072" stroke="white" stroke-width="1.75"/>
<path d="M231.932 259.142L308.952 271.682" stroke="white" stroke-width="1.75"/>
<path d="M235.082 239.752L312.112 252.282" stroke="white" stroke-width="1.75"/>
</g>
<mask id="mask4_115_10883" style="mask-type:luminance" maskUnits="userSpaceOnUse" x="210" y="293" width="94" height="110">
<path d="M226.654 293.119L210.878 390.094L287.373 402.539L303.149 305.564L226.654 293.119Z" fill="white"/>
</mask>
<g mask="url(#mask4_115_10883)">
<path d="M294.222 358.872L371.252 371.402" stroke="white" stroke-width="1.75"/>
<path d="M297.382 339.472L374.402 352.012" stroke="white" stroke-width="1.75"/>
<path d="M300.532 320.082L377.562 332.612" stroke="white" stroke-width="1.75"/>
<path d="M295.802 349.172L372.832 361.702" stroke="white" stroke-width="1.75"/>
<path d="M298.952 329.772L375.982 342.312" stroke="white" stroke-width="1.75"/>
<path d="M302.112 310.382L379.142 322.912" stroke="white" stroke-width="1.75"/>
<path d="M214.572 365.812L291.592 378.352" stroke="white" stroke-width="1.75"/>
<path d="M217.722 346.422L294.752 358.952" stroke="white" stroke-width="1.75"/>
<path d="M220.882 327.022L297.912 339.562" stroke="white" stroke-width="1.75"/>
<path d="M224.042 307.632L301.062 320.162" stroke="white" stroke-width="1.75"/>
<path d="M216.152 356.122L293.172 368.652" stroke="white" stroke-width="1.75"/>
<path d="M219.302 336.722L296.332 349.262" stroke="white" stroke-width="1.75"/>
<path d="M222.462 317.332L299.492 329.862" stroke="white" stroke-width="1.75"/>
<path d="M225.612 297.932L302.642 310.472" stroke="white" stroke-width="1.75"/>
</g>
</g>
<mask id="mask5_115_10883" style="mask-type:luminance" maskUnits="userSpaceOnUse" x="34" y="243" width="60" height="128">
<path d="M74.5285 245.169C79.8985 247.279 82.1485 251.779 84.7785 257.409C90.7485 270.189 89.1385 286.569 91.7985 299.839C92.9085 308.769 94.2485 324.379 93.4585 333.549C92.1885 348.179 95.4585 351.649 89.2685 363.949C87.6485 367.179 90.4685 366.209 87.3685 366.949C76.8885 369.419 61.4585 372.859 50.5285 369.469C51.0285 368.919 51.4185 368.199 51.6685 367.229C53.2585 361.099 51.9685 353.399 51.8185 347.019C51.1385 318.879 52.3685 322.719 50.1985 312.849C49.0285 307.519 48.1085 281.969 46.5985 276.709C46.5985 276.709 41.5085 249.319 34.9585 244.549C34.9585 244.549 63.0285 240.669 74.5385 245.189L74.5285 245.169Z" fill="white"/>
</mask>
<g mask="url(#mask5_115_10883)">
<mask id="mask6_115_10883" style="mask-type:luminance" maskUnits="userSpaceOnUse" x="73" y="181" width="104" height="117">
<path d="M147.903 181.093L73.645 203.272L101.763 297.413L176.022 275.233L147.903 181.093Z" fill="white"/>
</mask>
<g mask="url(#mask6_115_10883)">
<path d="M86.0386 245.719L160.819 223.389" stroke="white" stroke-width="1.75"/>
<path d="M91.6584 264.549L166.438 242.219" stroke="white" stroke-width="1.75"/>
<path d="M88.8486 255.139L163.629 232.799" stroke="white" stroke-width="1.75"/>
<path d="M6.15845 249.069L80.9285 226.739" stroke="white" stroke-width="1.75"/>
<path d="M11.7786 267.899L86.5586 245.569" stroke="white" stroke-width="1.75"/>
<path d="M17.3984 286.729L92.1784 264.399" stroke="white" stroke-width="1.75"/>
<path d="M23.0286 305.559L97.7986 283.229" stroke="white" stroke-width="1.75"/>
<path d="M8.96851 258.489L83.7485 236.149" stroke="white" stroke-width="1.75"/>
<path d="M14.5886 277.309L89.3686 254.979" stroke="white" stroke-width="1.75"/>
<path d="M20.2085 296.139L94.9885 273.809" stroke="white" stroke-width="1.75"/>
<path d="M25.8386 314.969L100.609 292.639" stroke="white" stroke-width="1.75"/>
</g>
<mask id="mask7_115_10883" style="mask-type:luminance" maskUnits="userSpaceOnUse" x="27" y="297" width="103" height="117">
<path d="M101.763 297.412L27.5044 319.592L55.6226 413.732L129.881 391.553L101.763 297.412Z" fill="white"/>
</mask>
<g mask="url(#mask7_115_10883)">
<path d="M28.6484 324.379L103.428 302.049" stroke="white" stroke-width="1.75"/>
<path d="M34.2683 343.209L109.048 320.879" stroke="white" stroke-width="1.75"/>
<path d="M39.8884 362.039L114.668 339.709" stroke="white" stroke-width="1.75"/>
<path d="M45.5183 380.869L120.288 358.539" stroke="white" stroke-width="1.75"/>
<path d="M31.4585 333.799L106.238 311.469" stroke="white" stroke-width="1.75"/>
<path d="M37.0784 352.629L111.858 330.299" stroke="white" stroke-width="1.75"/>
<path d="M42.7085 371.459L117.479 349.119" stroke="white" stroke-width="1.75"/>
<path d="M48.3284 390.279L123.108 367.949" stroke="white" stroke-width="1.75"/>
<path d="M-39.9915 365.389L34.7885 343.059" stroke="white" stroke-width="1.75"/>
<path d="M-34.3716 384.219L40.4084 361.889" stroke="white" stroke-width="1.75"/>
<path d="M-37.1816 374.809L37.5984 352.469" stroke="white" stroke-width="1.75"/>
<path d="M-31.5615 393.629L43.2185 371.299" stroke="white" stroke-width="1.75"/>
</g>
<mask id="mask8_115_10883" style="mask-type:luminance" maskUnits="userSpaceOnUse" x="-1" y="203" width="103" height="117">
<path d="M73.6371 203.277L-0.621338 225.457L27.4968 319.598L101.755 297.418L73.6371 203.277Z" fill="white"/>
</mask>
<g mask="url(#mask8_115_10883)">
<path d="M86.0386 245.719L160.819 223.389" stroke="white" stroke-width="1.75"/>
<path d="M91.6584 264.549L166.438 242.219" stroke="white" stroke-width="1.75"/>
<path d="M88.8486 255.139L163.629 232.799" stroke="white" stroke-width="1.75"/>
<path d="M6.15845 249.069L80.9285 226.739" stroke="white" stroke-width="1.75"/>
<path d="M11.7786 267.899L86.5586 245.569" stroke="white" stroke-width="1.75"/>
<path d="M17.3984 286.729L92.1784 264.399" stroke="white" stroke-width="1.75"/>
<path d="M23.0286 305.559L97.7986 283.229" stroke="white" stroke-width="1.75"/>
<path d="M8.96851 258.489L83.7485 236.149" stroke="white" stroke-width="1.75"/>
<path d="M14.5886 277.309L89.3686 254.979" stroke="white" stroke-width="1.75"/>
<path d="M20.2085 296.139L94.9885 273.809" stroke="white" stroke-width="1.75"/>
<path d="M25.8386 314.969L100.609 292.639" stroke="white" stroke-width="1.75"/>
</g>
<mask id="mask9_115_10883" style="mask-type:luminance" maskUnits="userSpaceOnUse" x="-47" y="319" width="103" height="117">
<path d="M27.5067 319.597L-46.7517 341.777L-18.6335 435.917L55.6249 413.737L27.5067 319.597Z" fill="white"/>
</mask>
<g mask="url(#mask9_115_10883)">
<path d="M28.6487 324.379L103.429 302.049" stroke="white" stroke-width="1.75"/>
<path d="M34.2686 343.209L109.049 320.879" stroke="white" stroke-width="1.75"/>
<path d="M39.8887 362.039L114.669 339.709" stroke="white" stroke-width="1.75"/>
<path d="M45.5186 380.869L120.289 358.539" stroke="white" stroke-width="1.75"/>
<path d="M31.4587 333.799L106.239 311.469" stroke="white" stroke-width="1.75"/>
<path d="M37.0786 352.629L111.859 330.299" stroke="white" stroke-width="1.75"/>
<path d="M42.7087 371.459L117.479 349.119" stroke="white" stroke-width="1.75"/>
<path d="M48.3286 390.279L123.109 367.949" stroke="white" stroke-width="1.75"/>
<path d="M-39.9915 365.389L34.7885 343.059" stroke="white" stroke-width="1.75"/>
<path d="M-34.3713 384.219L40.4087 361.889" stroke="white" stroke-width="1.75"/>
<path d="M-37.1814 374.809L37.5986 352.469" stroke="white" stroke-width="1.75"/>
<path d="M-31.5613 393.629L43.2187 371.299" stroke="white" stroke-width="1.75"/>
</g>
</g>
</svg>
