<?xml version="1.0" encoding="UTF-8"?>
<svg width="1388px" height="2540px" viewBox="0 0 1388 2540" version="1.1" xmlns="http://www.w3.org/2000/svg" xmlns:xlink="http://www.w3.org/1999/xlink">
    <!-- Generator: Sketch 51.3 (57544) - http://www.bohemiancoding.com/sketch -->
    <title>BG Hero</title>
    <desc>Created with Sketch.</desc>
    <defs>
        <rect id="path-1" x="0" y="0" width="1440" height="2876.11847"></rect>
    </defs>
    <g id="Page-1" stroke="none" stroke-width="1" fill="none" fill-rule="evenodd">
        <g id="Desktop-HD-Pricing" transform="translate(0.000000, -332.000000)">
            <g id="BG-Hero" transform="translate(0.000000, -5.000000)">
                <mask id="mask-2" fill="white">
                    <use xlink:href="#path-1"></use>
                </mask>
                <g id="Mask" fill-rule="nonzero"></g>
                <g id="Group-2-5" opacity="0.504408482" mask="url(#mask-2)" stroke-linecap="round" stroke-width="29.4">
                    <g transform="translate(-1167.130315, 347.289057)" id="Shape">
                        <path d="M2517.09003,237.004262 L2456.90866,144.335269" stroke="#FF6B6B"></path>
                        <path d="M2511.19488,461.275585 L2462.75595,361.963076" stroke="#CC5DE8"></path>
                        <path d="M2444.14258,666.910715 L2530.01444,597.376641" stroke="#329AF0"></path>
                        <path d="M2518.53344,807.845722 L2456.74296,899.447033" stroke="#F06595"></path>
                        <path d="M2520.26406,1118.77541 L2453.76409,1030.53224" stroke="#845EF7"></path>
                        <path d="M2538.68963,1275.07243 L2436.24065,1316.46369" stroke="#FCC419"></path>
                        <path d="M2446.00576,1553.08721 L2528.1218,1479.14926" stroke="#FF6B6B"></path>
                        <path d="M2539.98575,1720.68849 L2434.89666,1754.83324" stroke="#FF922B"></path>
                        <path d="M2450.63793,1917.06959 L2524.57588,1999.18563" stroke="#FCC419"></path>
                        <path d="M2454.37901,2135.02084 L2520.8753,2223.26769" stroke="#FF6B6B"></path>
                        <path d="M2530.50049,2365.8965 L2444.62495,2435.43425" stroke="#22B8CF"></path>
                        <path d="M2242.55121,105.730013 L2287.49576,4.78755576" stroke="#94D82D"></path>
                        <path d="M2221.01789,309.347831 L2309.26474,242.850073" stroke="#329AF0"></path>
                        <path d="M2235.77234,544.044109 L2294.32618,450.339912" stroke="#FF922B"></path>
                        <path d="M2304.16862,757.724042 L2226.03668,679.592104" stroke="#FF6B6B"></path>
                        <path d="M2316.45602,960.427429 L2214.00336,919.036171" stroke="#F06595"></path>
                        <path d="M2294.97425,1113.71611 L2236.4204,1207.42362" stroke="#FCC419"></path>
                        <path d="M2245.93144,1329.64217 L2285.52948,1432.79812" stroke="#FF6B6B"></path>
                        <path d="M2219.24676,1571.93623 L2311.9159,1632.1176" stroke="#FF922B"></path>
                        <path d="M2274.39461,1768.83284 L2257.11051,1877.96496" stroke="#FF6B6B"></path>
                        <path d="M2216.41149,2069.92746 L2313.97424,2018.05307" stroke="#CC5DE8"></path>
                        <path d="M2234.96226,2311.44459 L2295.14363,2218.77545" stroke="#845EF7"></path>
                        <path d="M2315.2004,2462.4356 L2215.88494,2510.87453" stroke="#51CF66"></path>
                        <path d="M1768.11482,275.058003 L1878.59461,276.986354" stroke="#FF6B6B"></path>
                        <path d="M1849.79637,545.903604 L1796.22818,449.261036" stroke="#CC5DE8"></path>
                        <path d="M1856.90295,674.4923 L1790.40667,762.739156" stroke="#94D82D"></path>
                        <path d="M1803.00705,888.006535 L1844.40199,990.459197" stroke="#FF6B6B"></path>
                        <path d="M1828.74173,1215.35133 L1817.19076,1105.46069" stroke="#FF6B6B"></path>
                        <path d="M1860.0328,1422.67216 L1786.09485,1340.55612" stroke="#FF922B"></path>
                        <path d="M1874.35643,1581.11588 L1772.6402,1624.28931" stroke="#CC5DE8"></path>
                        <path d="M1773.43923,1799.64155 L1873.58318,1846.33881" stroke="#FF6B6B"></path>
                        <path d="M1769.88226,2058.25867 L1876.6136,2029.65926" stroke="#94D82D"></path>
                        <path d="M1803.19116,2316.76164 L1842.7892,2213.60568" stroke="#FCC419"></path>
                        <path d="M1861.30683,2446.16778 L1785.95124,2526.97665" stroke="#CC5DE8"></path>
                        <path d="M1394.12431,222.660006 L1369.26967,330.323305" stroke="#F06595"></path>
                        <path d="M1339.37414,533.351091 L1422.7679,460.860236" stroke="#FF922B"></path>
                        <path d="M1388.43904,663.596763 L1374.96967,773.270158" stroke="#F06595"></path>
                        <path d="M1338.63034,904.311178 L1424.5022,973.845252" stroke="#20C997"></path>
                        <path d="M1431.55723,1137.36668 L1331.41329,1184.06395" stroke="#FF6B6B"></path>
                        <path d="M1422.12352,1418.61073 L1340.00747,1344.67646" stroke="#FF922B"></path>
                        <path d="M1398.03109,1655.00964 L1363.88634,1549.92423" stroke="#FF6B6B"></path>
                        <path d="M1348.53906,1867.80954 L1413.48883,1778.41753" stroke="#FF6B6B"></path>
                        <path d="M1326.07783,2044.9108 L1436.55762,2042.98135" stroke="#CC5DE8"></path>
                        <path d="M1327.57647,2252.51884 L1435.24308,2277.37348" stroke="#FF6B6B"></path>
                        <path d="M1382.67276,2431.07825 L1380.74331,2541.55804" stroke="#94D82D"></path>
                        <path d="M2065.41312,114.827927 L2024.02186,217.277411" stroke="#FCC419"></path>
                        <path d="M2011.57613,431.370115 L2076.52591,341.977369" stroke="#845EF7"></path>
                        <path d="M2061.06816,660.551609 L2026.92341,555.466197" stroke="#CC5DE8"></path>
                        <path d="M1995.85327,855.33097 L2092.49547,801.759097" stroke="#FF6B6B"></path>
                        <path d="M1990.20114,1038.95336 L2098.66679,1060.03746" stroke="#5C7CFA"></path>
                        <path d="M2073.96312,1224.21431 L2015.40927,1317.91814" stroke="#51CF66"></path>
                        <path d="M2037.05306,1437.08785 L2052.42979,1546.50718" stroke="#FF6B6B"></path>
                        <path d="M2062.71041,1660.73173 L2026.73562,1765.20591" stroke="#5C7CFA"></path>
                        <path d="M2074.77319,1887.70798 L2014.59183,1980.37712" stroke="#51CF66"></path>
                        <path d="M1991.41258,2170.609 L2097.08345,2138.30533" stroke="#FF6B6B"></path>
                        <path d="M2092.96311,2402.08853 L1995.40036,2350.21414" stroke="#FF6B6B"></path>
                        <path d="M1571.92519,212.03474 L1632.10655,119.365552" stroke="#CC5DE8"></path>
                        <path d="M1609.45017,332.110629 L1595.98448,441.782552" stroke="#94D82D"></path>
                        <path d="M1581.28526,658.971959 L1622.67652,556.522979" stroke="#845EF7"></path>
                        <path d="M1548.59128,816.079051 L1656.25422,840.93369" stroke="#F06595"></path>
                        <path d="M1631.28911,1096.92542 L1572.73526,1003.22159" stroke="#FCC419"></path>
                        <path d="M1576.91084,1319.91388 L1627.07671,1221.46005" stroke="#CC5DE8"></path>
                        <path d="M1608.68796,1546.73547 L1595.22227,1437.06208" stroke="#22B8CF"></path>
                        <path d="M1655.55092,1697.98423 L1549.33508,1728.43945" stroke="#FF6B6B"></path>
                        <path d="M1631.28911,1980.88894 L1572.73158,1887.18511" stroke="#FF922B"></path>
                        <path d="M1624.45869,2205.44968 L1579.51414,2104.51039" stroke="#FF6B6B"></path>
                        <path d="M1567.26724,2418.50732 L1636.80868,2332.63547" stroke="#FF6B6B"></path>
                        <path d="M1215.31451,171.10633 L1105.23976,161.476354" stroke="#22B8CF"></path>
                        <path d="M1142.87521,439.324704 L1177.01996,334.23745" stroke="#CC5DE8"></path>
                        <path d="M1109.30487,629.1243 L1211.01742,585.950871" stroke="#5C7CFA"></path>
                        <path d="M1119.6444,866.278058 L1200.45696,790.922475" stroke="#94D82D"></path>
                        <path d="M1150.14749,995.566365 L1171.22791,1104.03201" stroke="#329AF0"></path>
                        <path d="M1186.75929,1319.36892 L1133.1911,1222.72672" stroke="#FCC419"></path>
                        <path d="M1115.27367,1459.85102 L1205.78874,1523.22851" stroke="#94D82D"></path>
                        <path d="M1105.80313,1703.82047 L1214.93893,1721.10457" stroke="#CC5DE8"></path>
                        <path d="M1185.05077,1983.23448 L1134.88858,1884.78065" stroke="#22B8CF"></path>
                        <path d="M1110.07813,2177.82605 L1210.22207,2131.12879" stroke="#FF922B"></path>
                        <path d="M1186.75929,2424.32147 L1133.1911,2327.67927" stroke="#FF6B6B"></path>
                    </g>
                </g>
            </g>
        </g>
    </g>
</svg>