<?xml version="1.0" encoding="utf-8"?>
<!-- Generator: Adobe Illustrator 25.4.1, SVG Export Plug-In . SVG Version: 6.00 Build 0)  -->
<svg version="1.1" id="Layer_1" xmlns="http://www.w3.org/2000/svg" xmlns:xlink="http://www.w3.org/1999/xlink" x="0px" y="0px"
	 viewBox="0 0 625 390" style="enable-background:new 0 0 625 390;" xml:space="preserve">
<style type="text/css">
	.st0{fill:#FFFFFF;}
	.st1{fill:none;stroke:#DAE2EA;}
	.st2{fill:#2B3750;}
	.st3{fill:#1C7CD6;}
	.st4{fill:#F2F4F8;}
	.st5{fill:#2A3A51;}
	.st6{fill:#2B3750;fill-opacity:0.2;}
	.st7{fill:#388CDB;}
	.st8{opacity:0.74;fill:#6078A9;fill-opacity:0.7;enable-background:new    ;}
	.st9{fill:#6078A9;}
	.st10{fill:#6078A9;fill-opacity:0.8;}
	.st11{fill:none;stroke:#DAE9F8;stroke-width:4;}
	.st12{fill:none;stroke:#1C7CD6;stroke-width:4;stroke-opacity:0.15;}
	.st13{fill:none;stroke:#1C7CD6;stroke-width:4;stroke-opacity:0.1;}
	.st14{fill:none;stroke:#1C7CD6;stroke-width:4;stroke-opacity:5.000000e-02;}
	.st15{fill:none;stroke:#1C7CD6;stroke-width:5;stroke-opacity:5.000000e-02;}
	.st16{fill:none;stroke:#1C7CD6;stroke-width:4;stroke-opacity:7.000000e-02;}
	.st17{clip-path:url(#SVGID_00000067922277246458284680000009692916088754756258_);}
	.st18{fill:#1C7CD6;fill-opacity:0.4;}
	.st19{clip-path:url(#SVGID_00000182523045538924991590000004737979632710285976_);}
	.st20{fill:#1C7CD6;fill-opacity:0.7;}
	.st21{fill-rule:evenodd;clip-rule:evenodd;fill:#1C7CD6;}
	.st22{opacity:0.8;}
	.st23{fill-rule:evenodd;clip-rule:evenodd;fill:#1C7CD6;fill-opacity:0.4;}
	.st24{clip-path:url(#SVGID_00000020387033895260872910000012202051207296774079_);}
	.st25{clip-path:url(#SVGID_00000117658714974227165610000009381669284906893440_);}
	.st26{clip-path:url(#SVGID_00000157305711289786287570000005200858320282053561_);}
	.st27{clip-path:url(#SVGID_00000036230194241393730060000005661424136237481870_);}
</style>
<g>
	<g>
		<path class="st0" d="M96.1,32.1h432c0.9,0,1.6,0.7,1.6,1.6v17.1c0,0.9-0.7,1.6-1.6,1.6h-432c-0.9,0-1.6-0.7-1.6-1.6V33.7
			C94.5,32.8,95.2,32.1,96.1,32.1z"/>
		<path class="st1" d="M96.1,31.7h432c1.1,0,2,0.9,2,2v17.1c0,1.1-0.9,2-2,2h-432c-1.1,0-2-0.9-2-2V33.7
			C94.1,32.6,95,31.7,96.1,31.7z"/>
	</g>
	<path class="st2" d="M482.5,37.3v10.5h3.5v-1.2h-2v-8h2v-1.2H482.5z M493.1,37.3h-3.5v1.2h2v8h-2v1.2h3.5V37.3z"/>
	<path class="st2" d="M466.2,46.3c0.4,0,0.6-0.3,0.6-0.6c0-0.4-0.3-0.6-0.6-0.6s-0.6,0.3-0.6,0.6C465.5,46,465.8,46.3,466.2,46.3z"
		/>
	<path class="st2" d="M470.5,42.1l0.3-0.6l-1.1-0.6l1.1-0.6l-0.3-0.5l-1,0.6l0-1.1h-0.7l0,1.1l-1-0.6l-0.3,0.5l1,0.6l-1.1,0.6
		l0.3,0.6l1-0.6l0,1.2h0.7l0-1.2L470.5,42.1z"/>
	<path class="st2" d="M447.1,46.2h1.1l-2.5-6.9h-1.2l-2.5,6.9h1.1l0.6-1.9h2.6L447.1,46.2z M445.1,40.4L445.1,40.4l1.1,3h-2.1
		L445.1,40.4z"/>
	<path class="st2" d="M450.3,46.3c0.7,0,1.3-0.4,1.6-0.9h0v0.8h1v-3.5c0-1-0.8-1.7-2-1.7c-1.2,0-2,0.7-2.1,1.6h1
		c0.1-0.5,0.5-0.7,1.1-0.7c0.6,0,1,0.3,1,0.9v0.4l-1.4,0.1c-1.2,0.1-1.9,0.6-1.9,1.5C448.6,45.7,449.3,46.3,450.3,46.3z M450.6,45.5
		c-0.6,0-0.9-0.3-0.9-0.7c0-0.4,0.4-0.7,1-0.7l1.2-0.1v0.4C451.9,45,451.3,45.5,450.6,45.5z"/>
	<path class="st3" d="M506.1,32.1h21.7c0.9,0,1.6,0.7,1.6,1.6v17.1c0,0.9-0.7,1.6-1.6,1.6h-21.7V32.1z"/>
	<path class="st4" d="M516.4,37.9c1.8,0,3.3,1.5,3.3,3.3c0,0.8-0.3,1.6-0.8,2.2l0.2,0.2h0.4l2.6,2.6l-0.8,0.8l-2.6-2.6v-0.4
		l-0.2-0.2c-0.6,0.5-1.3,0.8-2.2,0.8c-1.8,0-3.3-1.5-3.3-3.3C513,39.4,514.5,37.9,516.4,37.9z M516.4,39c-1.3,0-2.3,1-2.3,2.3
		c0,1.3,1,2.3,2.3,2.3c1.3,0,2.3-1,2.3-2.3C518.7,40,517.6,39,516.4,39z"/>
	<path class="st3" d="M109.4,42.2c-0.1-0.9-0.8-1.4-1.7-1.4c-1.2,0-1.9,0.7-1.9,2v0.6c0,1.2,0.7,2,1.9,2c1,0,1.6-0.5,1.7-1.4h-0.7
		c-0.1,0.5-0.5,0.8-1.1,0.8c-0.8,0-1.2-0.5-1.2-1.4v-0.4c0-0.9,0.4-1.4,1.2-1.4c0.6,0,1,0.3,1.1,0.8H109.4z M112.7,45.2
		c1.1,0,1.9-0.7,1.9-1.9v-0.7c0-1.2-0.7-1.9-1.9-1.9c-1.1,0-1.9,0.7-1.9,1.9v0.7C110.8,44.5,111.5,45.2,112.7,45.2z M112.7,41.3
		c0.7,0,1.2,0.5,1.2,1.4v0.5c0,0.9-0.5,1.4-1.2,1.4c-0.7,0-1.2-0.5-1.2-1.4v-0.5C111.5,41.9,111.9,41.3,112.7,41.3z M115.9,45.1h0.7
		v-2.5c0-0.7,0.5-1.2,1.2-1.2c0.7,0,1,0.4,1,1.1v2.6h0.7v-2.8c0-1-0.5-1.6-1.4-1.6c-0.7,0-1.2,0.3-1.4,0.8h-0.1v-0.8h-0.6V45.1z
		 M122,39.7v1.2h-1.1v0.6h1.1v2.4c0,0.9,0.5,1.3,1.6,1.3c0.2,0,0.7,0,0.8,0v-0.6c-0.1,0-0.5,0-0.8,0c-0.6,0-0.9-0.3-0.9-0.7v-2.4
		h1.7v-0.6h-1.8v-1.2H122z M128.9,44c-0.1,0.4-0.5,0.6-1.1,0.6c-0.7,0-1.2-0.5-1.2-1.3v-0.2h2.9v-0.4c0-1.2-0.7-2-1.8-2
		c-1.1,0-1.8,0.7-1.8,1.9v0.6c0,1.2,0.7,1.9,1.9,1.9c0.9,0,1.6-0.5,1.7-1.2H128.9z M127.8,41.3c0.7,0,1.1,0.5,1.1,1.3h-2.3
		C126.7,41.8,127.1,41.3,127.8,41.3z M132.8,43.5l1.1,1.7h0.8l-1.5-2.2l1.5-2.1h-0.8l-1.1,1.6h-0.1l-1.1-1.6h-0.8l1.5,2.2l-1.5,2.2
		h0.7L132.8,43.5L132.8,43.5z M137.1,39.7v1.2H136v0.6h1.2v2.4c0,0.9,0.5,1.3,1.6,1.3c0.2,0,0.7,0,0.8,0v-0.6c-0.1,0-0.5,0-0.8,0
		c-0.6,0-0.9-0.3-0.9-0.7v-2.4h1.7v-0.6h-1.8v-1.2H137.1z M142.9,42.1c0.4,0,0.7-0.3,0.7-0.7c0-0.4-0.3-0.7-0.7-0.7
		c-0.4,0-0.7,0.3-0.7,0.7C142.2,41.8,142.5,42.1,142.9,42.1z M142.9,45.1c0.4,0,0.7-0.3,0.7-0.7c0-0.4-0.3-0.7-0.7-0.7
		c-0.4,0-0.7,0.3-0.7,0.7C142.2,44.8,142.5,45.1,142.9,45.1z"/>
	<path class="st5" d="M147.8,46.7c1.2,0,1.9-0.6,1.9-1.6v-4.3H149v0.7h-0.1c-0.2-0.5-0.7-0.7-1.3-0.7c-1,0-1.7,0.7-1.7,1.8v0.8
		c0,1.1,0.7,1.8,1.7,1.8c0.6,0,1.1-0.3,1.3-0.7h0.1v0.7c0,0.7-0.4,1.1-1.2,1.1c-0.6,0-1-0.2-1.1-0.6H146
		C146.1,46.3,146.8,46.7,147.8,46.7z M146.6,43.2v-0.6c0-0.8,0.5-1.3,1.2-1.3c0.7,0,1.2,0.5,1.2,1.3v0.6c0,0.8-0.5,1.3-1.2,1.3
		C147.1,44.6,146.6,44,146.6,43.2z M154.9,45.1v-0.6h-1.4v-5.5h-2.1v0.6h1.5v4.9h-1.5v0.6H154.9z M158,45.2c1.1,0,1.9-0.7,1.9-1.9
		v-0.7c0-1.2-0.7-1.9-1.9-1.9c-1.1,0-1.9,0.7-1.9,1.9v0.7C156.1,44.5,156.9,45.2,158,45.2z M158,41.3c0.7,0,1.2,0.5,1.2,1.4v0.5
		c0,0.9-0.5,1.4-1.2,1.4c-0.7,0-1.2-0.5-1.2-1.4v-0.5C156.8,41.9,157.3,41.3,158,41.3z M163.3,45.2c1,0,1.7-0.7,1.7-1.8v-0.8
		c0-1.1-0.7-1.8-1.7-1.8c-0.6,0-1.1,0.3-1.3,0.7H162v-2.4h-0.7v6h0.7v-0.7h0.1C162.2,44.9,162.7,45.2,163.3,45.2z M163.1,44.6
		c-0.7,0-1.2-0.5-1.2-1.3v-0.6c0-0.8,0.5-1.3,1.2-1.3c0.7,0,1.2,0.5,1.2,1.3v0.6C164.3,44.1,163.8,44.6,163.1,44.6z M167.6,45.2
		c0.6,0,1.1-0.3,1.3-0.7h0.1v0.6h0.6v-3c0-0.9-0.6-1.4-1.6-1.4c-0.9,0-1.6,0.5-1.6,1.2h0.7c0.1-0.4,0.5-0.6,1-0.6
		c0.6,0,0.9,0.3,0.9,0.8v0.4l-1.2,0.1c-1,0.1-1.5,0.5-1.5,1.3C166.3,44.7,166.8,45.2,167.6,45.2z M167.8,44.6
		c-0.5,0-0.9-0.3-0.9-0.7c0-0.4,0.3-0.7,0.9-0.7l1.1-0.1v0.5C169,44.2,168.5,44.6,167.8,44.6z M175,45.1v-0.6h-1.4v-5.5h-2.1v0.6
		h1.5v4.9h-1.5v0.6H175z M251,40.7c-0.6,0-1.1,0.3-1.3,0.7h-0.1v-0.7h-0.7v5.8h0.7v-2.1h0.1c0.2,0.5,0.6,0.7,1.3,0.7
		c1,0,1.7-0.7,1.7-1.8v-0.8C252.6,41.5,252,40.7,251,40.7z M250.8,41.4c0.7,0,1.2,0.5,1.2,1.3v0.6c0,0.8-0.5,1.3-1.2,1.3
		c-0.7,0-1.2-0.5-1.2-1.3v-0.6C249.6,41.9,250.1,41.4,250.8,41.4z M257.5,40.8h-0.7v2.5c0,0.7-0.5,1.2-1.2,1.2c-0.7,0-1-0.4-1-1.1
		v-2.6H254v2.8c0,1,0.5,1.6,1.4,1.6c0.7,0,1.2-0.3,1.4-0.8h0.1v0.8h0.6V40.8z M261.1,45.2c1,0,1.7-0.7,1.7-1.8v-0.8
		c0-1.1-0.7-1.8-1.7-1.8c-0.6,0-1.1,0.3-1.3,0.7h-0.1v-2.4H259v6h0.7v-0.7h0.1C260,44.9,260.4,45.2,261.1,45.2z M260.9,44.6
		c-0.7,0-1.2-0.5-1.2-1.3v-0.6c0-0.8,0.5-1.3,1.2-1.3c0.7,0,1.2,0.5,1.2,1.3v0.6C262,44.1,261.6,44.6,260.9,44.6z M267.7,45.1v-0.6
		h-1.4v-5.5h-2.1v0.6h1.5v4.9h-1.5v0.6H267.7z M270.9,39.7c0.3,0,0.6-0.2,0.6-0.6c0-0.3-0.2-0.6-0.6-0.6c-0.3,0-0.6,0.2-0.6,0.6
		C270.4,39.5,270.6,39.7,270.9,39.7z M272.7,45.1v-0.6h-1.4v-3.8h-2.1v0.6h1.5v3.2h-1.5v0.6H272.7z M277.7,42.2
		c-0.1-0.9-0.8-1.4-1.7-1.4c-1.2,0-1.9,0.7-1.9,2v0.6c0,1.2,0.7,2,1.9,2c1,0,1.6-0.5,1.7-1.4H277c-0.1,0.5-0.5,0.8-1.1,0.8
		c-0.8,0-1.2-0.5-1.2-1.4v-0.4c0-0.9,0.4-1.4,1.2-1.4c0.6,0,1,0.3,1.1,0.8H277.7z M311,46.7c1.2,0,1.9-0.6,1.9-1.6v-4.3h-0.7v0.7
		h-0.1c-0.2-0.5-0.7-0.7-1.3-0.7c-1,0-1.7,0.7-1.7,1.8v0.8c0,1.1,0.7,1.8,1.7,1.8c0.6,0,1.1-0.3,1.3-0.7h0.1v0.7
		c0,0.7-0.4,1.1-1.2,1.1c-0.6,0-1-0.2-1.1-0.6h-0.7C309.4,46.3,310,46.7,311,46.7z M309.9,43.2v-0.6c0-0.8,0.5-1.3,1.2-1.3
		c0.7,0,1.2,0.5,1.2,1.3v0.6c0,0.8-0.5,1.3-1.2,1.3C310.3,44.6,309.9,44,309.9,43.2z M316.2,45.2c1.1,0,1.9-0.7,1.9-1.9v-0.7
		c0-1.2-0.7-1.9-1.9-1.9c-1.1,0-1.9,0.7-1.9,1.9v0.7C314.3,44.5,315.1,45.2,316.2,45.2z M316.2,41.3c0.7,0,1.2,0.5,1.2,1.4v0.5
		c0,0.9-0.5,1.4-1.2,1.4c-0.7,0-1.2-0.5-1.2-1.4v-0.5C315,41.9,315.5,41.3,316.2,41.3z M325.8,45.2c0.6,0,1.1-0.3,1.3-0.7h0.1v0.6
		h0.6v-3c0-0.9-0.6-1.4-1.6-1.4c-0.9,0-1.6,0.5-1.6,1.2h0.7c0.1-0.4,0.5-0.6,1-0.6c0.6,0,0.9,0.3,0.9,0.8v0.4l-1.2,0.1
		c-1,0.1-1.5,0.5-1.5,1.3C324.5,44.7,325,45.2,325.8,45.2z M326,44.6c-0.5,0-0.9-0.3-0.9-0.7c0-0.4,0.3-0.7,0.9-0.7l1.1-0.1v0.5
		C327.2,44.2,326.7,44.6,326,44.6z M333.3,44.5h-2.7v-5.1h-0.7v5.7h3.4V44.5z M336.4,45.2c1.1,0,1.9-0.7,1.9-1.9v-0.7
		c0-1.2-0.7-1.9-1.9-1.9c-1.1,0-1.9,0.7-1.9,1.9v0.7C334.5,44.5,335.2,45.2,336.4,45.2z M336.4,41.3c0.7,0,1.2,0.5,1.2,1.4v0.5
		c0,0.9-0.5,1.4-1.2,1.4c-0.7,0-1.2-0.5-1.2-1.4v-0.5C335.2,41.9,335.6,41.3,336.4,41.3z M339.6,45.1h0.7v-2.5
		c0-0.7,0.5-1.2,1.2-1.2c0.7,0,1,0.4,1,1.1v2.6h0.7v-2.8c0-1-0.5-1.6-1.4-1.6c-0.7,0-1.2,0.3-1.4,0.8h-0.1v-0.8h-0.6V45.1z
		 M346.3,46.7c1.2,0,1.9-0.6,1.9-1.6v-4.3h-0.7v0.7h-0.1c-0.2-0.5-0.7-0.7-1.3-0.7c-1,0-1.7,0.7-1.7,1.8v0.8c0,1.1,0.7,1.8,1.7,1.8
		c0.6,0,1.1-0.3,1.3-0.7h0.1v0.7c0,0.7-0.4,1.1-1.2,1.1c-0.6,0-1-0.2-1.1-0.6h-0.7C344.6,46.3,345.3,46.7,346.3,46.7z M345.1,43.2
		v-0.6c0-0.8,0.5-1.3,1.2-1.3c0.7,0,1.2,0.5,1.2,1.3v0.6c0,0.8-0.5,1.3-1.2,1.3C345.6,44.6,345.1,44,345.1,43.2z M351.8,45.1V40h1.7
		v-0.6h-4.2V40h1.7v5.1H351.8z M356.6,39.7c0.3,0,0.6-0.2,0.6-0.6c0-0.3-0.2-0.6-0.6-0.6c-0.3,0-0.6,0.2-0.6,0.6
		C356,39.5,356.3,39.7,356.6,39.7z M358.4,45.1v-0.6H357v-3.8h-2.1v0.6h1.5v3.2h-1.5v0.6H358.4z M363.6,41.9c0-0.8-0.3-1.2-0.9-1.2
		c-0.4,0-0.8,0.3-0.9,0.7h-0.1c-0.1-0.4-0.4-0.7-0.8-0.7c-0.4,0-0.7,0.3-0.8,0.7h-0.1v-0.6h-0.6v4.3h0.6v-2.9c0-0.5,0.2-0.9,0.6-0.9
		c0.4,0,0.6,0.3,0.6,0.8v3h0.6v-2.9c0-0.5,0.2-0.9,0.6-0.9c0.4,0,0.6,0.3,0.6,0.8v3h0.6V41.9z M367.8,44c-0.1,0.4-0.5,0.6-1.1,0.6
		c-0.7,0-1.2-0.5-1.2-1.3v-0.2h2.9v-0.4c0-1.2-0.7-2-1.8-2c-1.1,0-1.8,0.7-1.8,1.9v0.6c0,1.2,0.7,1.9,1.9,1.9c0.9,0,1.6-0.5,1.7-1.2
		H367.8z M366.6,41.3c0.7,0,1.1,0.5,1.1,1.3h-2.3C365.5,41.8,365.9,41.3,366.6,41.3z M373.1,45.1h0.7l-1.9-5.7h-0.7l-1.9,5.7h0.7
		l0.5-1.6h2L373.1,45.1z M371.6,40.2L371.6,40.2l0.8,2.7h-1.6L371.6,40.2z M376.5,46.7c1.2,0,1.9-0.6,1.9-1.6v-4.3h-0.7v0.7h-0.1
		c-0.2-0.5-0.7-0.7-1.3-0.7c-1,0-1.7,0.7-1.7,1.8v0.8c0,1.1,0.7,1.8,1.7,1.8c0.6,0,1.1-0.3,1.3-0.7h0.1v0.7c0,0.7-0.4,1.1-1.2,1.1
		c-0.6,0-1-0.2-1.1-0.6h-0.7C374.9,46.3,375.5,46.7,376.5,46.7z M375.4,43.2v-0.6c0-0.8,0.5-1.3,1.2-1.3c0.7,0,1.2,0.5,1.2,1.3v0.6
		c0,0.8-0.5,1.3-1.2,1.3C375.8,44.6,375.4,44,375.4,43.2z M381.7,45.2c1.1,0,1.9-0.7,1.9-1.9v-0.7c0-1.2-0.7-1.9-1.9-1.9
		s-1.9,0.7-1.9,1.9v0.7C379.8,44.5,380.6,45.2,381.7,45.2z M381.7,41.3c0.7,0,1.2,0.5,1.2,1.4v0.5c0,0.9-0.5,1.4-1.2,1.4
		s-1.2-0.5-1.2-1.4v-0.5C380.5,41.9,381,41.3,381.7,41.3z"/>
	<path class="st6" d="M184.6,47.8V36.3h-0.9v11.5H184.6z"/>
	<path class="st7" d="M193.3,40.8l1.6,4.3h0.7l1.6-4.3h-0.7l-1.2,3.6h-0.1l-1.2-3.6H193.3z M200.4,39.7c0.3,0,0.6-0.2,0.6-0.6
		c0-0.3-0.2-0.6-0.6-0.6c-0.3,0-0.6,0.2-0.6,0.6C199.8,39.5,200.1,39.7,200.4,39.7z M202.2,45.1v-0.6h-1.4v-3.8h-2.1v0.6h1.5v3.2
		h-1.5v0.6H202.2z M203.8,42c0,0.6,0.4,1,1.2,1.2l0.6,0.1c0.5,0.1,0.8,0.3,0.8,0.6c0,0.4-0.4,0.7-1,0.7c-0.6,0-0.9-0.2-1-0.6h-0.7
		c0.1,0.7,0.7,1.2,1.7,1.2c1,0,1.7-0.5,1.7-1.3c0-0.6-0.4-1-1.2-1.2l-0.6-0.1c-0.5-0.1-0.8-0.3-0.8-0.6c0-0.4,0.4-0.6,0.9-0.6
		c0.5,0,0.9,0.2,0.9,0.6h0.7c-0.1-0.7-0.7-1.2-1.6-1.2C204.4,40.7,203.8,41.2,203.8,42z M210.5,39.7c0.3,0,0.6-0.2,0.6-0.6
		c0-0.3-0.2-0.6-0.6-0.6s-0.6,0.2-0.6,0.6C209.9,39.5,210.2,39.7,210.5,39.7z M212.3,45.1v-0.6h-1.4v-3.8h-2.1v0.6h1.5v3.2h-1.5v0.6
		H212.3z M215.7,45.2c1,0,1.7-0.7,1.7-1.8v-0.8c0-1.1-0.7-1.8-1.7-1.8c-0.6,0-1.1,0.3-1.3,0.7h-0.1v-2.4h-0.7v6h0.7v-0.7h0.1
		C214.6,44.9,215.1,45.2,215.7,45.2z M215.5,44.6c-0.7,0-1.2-0.5-1.2-1.3v-0.6c0-0.8,0.5-1.3,1.2-1.3c0.7,0,1.2,0.5,1.2,1.3v0.6
		C216.7,44.1,216.2,44.6,215.5,44.6z M220.6,39.7c0.3,0,0.6-0.2,0.6-0.6c0-0.3-0.2-0.6-0.6-0.6c-0.3,0-0.6,0.2-0.6,0.6
		C220,39.5,220.2,39.7,220.6,39.7z M222.4,45.1v-0.6h-1.4v-3.8h-2.1v0.6h1.5v3.2h-1.5v0.6H222.4z M227.4,45.1v-0.6H226v-5.5h-2.1
		v0.6h1.5v4.9h-1.5v0.6H227.4z M230.6,39.7c0.3,0,0.6-0.2,0.6-0.6c0-0.3-0.2-0.6-0.6-0.6c-0.3,0-0.6,0.2-0.6,0.6
		C230.1,39.5,230.3,39.7,230.6,39.7z M232.4,45.1v-0.6H231v-3.8h-2.1v0.6h1.5v3.2h-1.5v0.6H232.4z M234.9,39.7v1.2h-1.1v0.6h1.1v2.4
		c0,0.9,0.5,1.3,1.6,1.3c0.2,0,0.7,0,0.8,0v-0.6c-0.1,0-0.5,0-0.8,0c-0.6,0-0.9-0.3-0.9-0.7v-2.4h1.7v-0.6h-1.8v-1.2H234.9z
		 M239.4,46.7c0.8,0,1.2-0.3,1.5-1.4l1.6-4.5h-0.7l-1.2,3.6h-0.1l-1.2-3.6h-0.7l1.6,4.3l-0.1,0.2c-0.2,0.5-0.4,0.7-0.8,0.7
		c-0.1,0-0.2,0-0.2,0v0.6C239.2,46.7,239.3,46.7,239.4,46.7z M245.7,42.1c0.4,0,0.7-0.3,0.7-0.7c0-0.4-0.3-0.7-0.7-0.7
		c-0.4,0-0.7,0.3-0.7,0.7C245,41.8,245.3,42.1,245.7,42.1z M245.7,45.1c0.4,0,0.7-0.3,0.7-0.7c0-0.4-0.3-0.7-0.7-0.7
		c-0.4,0-0.7,0.3-0.7,0.7C245,44.8,245.3,45.1,245.7,45.1z M287.9,45.1v-0.6h-1.4v-5.5h-2.1v0.6h1.5v4.9h-1.5v0.6H287.9z
		 M290.6,45.2c0.6,0,1.1-0.3,1.3-0.7h0.1v0.6h0.6v-3c0-0.9-0.6-1.4-1.6-1.4c-0.9,0-1.6,0.5-1.6,1.2h0.7c0.1-0.4,0.5-0.6,1-0.6
		c0.6,0,0.9,0.3,0.9,0.8v0.4l-1.2,0.1c-1,0.1-1.5,0.5-1.5,1.3C289.2,44.7,289.8,45.2,290.6,45.2z M290.8,44.6
		c-0.5,0-0.9-0.3-0.9-0.7c0-0.4,0.3-0.7,0.9-0.7l1.1-0.1v0.5C291.9,44.2,291.4,44.6,290.8,44.6z M294.3,45.1h0.7v-2.5
		c0-0.7,0.5-1.2,1.2-1.2c0.7,0,1,0.4,1,1.1v2.6h0.7v-2.8c0-1-0.5-1.6-1.4-1.6c-0.7,0-1.1,0.3-1.4,0.8h-0.1v-0.8h-0.6V45.1z
		 M301,46.7c1.2,0,1.9-0.6,1.9-1.6v-4.3h-0.7v0.7h-0.1c-0.2-0.5-0.7-0.7-1.3-0.7c-1,0-1.7,0.7-1.7,1.8v0.8c0,1.1,0.7,1.8,1.7,1.8
		c0.6,0,1.1-0.3,1.3-0.7h0.1v0.7c0,0.7-0.4,1.1-1.2,1.1c-0.6,0-1-0.2-1.1-0.6h-0.7C299.3,46.3,300,46.7,301,46.7z M299.8,43.2v-0.6
		c0-0.8,0.5-1.3,1.2-1.3c0.7,0,1.2,0.5,1.2,1.3v0.6c0,0.8-0.5,1.3-1.2,1.3C300.3,44.6,299.8,44,299.8,43.2z M306.1,42.1
		c0.4,0,0.7-0.3,0.7-0.7c0-0.4-0.3-0.7-0.7-0.7c-0.4,0-0.7,0.3-0.7,0.7C305.4,41.8,305.7,42.1,306.1,42.1z M306.1,45.1
		c0.4,0,0.7-0.3,0.7-0.7c0-0.4-0.3-0.7-0.7-0.7c-0.4,0-0.7,0.3-0.7,0.7C305.4,44.8,305.7,45.1,306.1,45.1z"/>
	<path class="st8" d="M81.2,295.6l1.4,3h1.8l-1.6-3.2c0.9-0.3,1.4-1.2,1.4-2.3c0-1.6-1.1-2.6-2.8-2.6h-2.9v8h1.6v-3H81.2z
		 M80.1,291.9h1.1c0.9,0,1.4,0.5,1.4,1.3c0,0.8-0.5,1.3-1.4,1.3h-1.1V291.9z M87.4,298.7c0.8,0,1.4-0.3,1.7-0.9h0.1v0.8h1.4v-4.2
		c0-1.3-0.9-2.1-2.5-2.1c-1.5,0-2.5,0.7-2.6,1.8h1.5c0.1-0.4,0.5-0.6,1.1-0.6c0.6,0,1,0.3,1,0.8v0.5l-1.4,0.1
		c-1.5,0.1-2.3,0.8-2.3,1.9C85.5,298,86.3,298.7,87.4,298.7z M88,297.5c-0.6,0-1-0.3-1-0.7c0-0.5,0.4-0.7,1.1-0.8l1.2-0.1v0.4
		C89.3,297,88.7,297.5,88,297.5z M95.4,291.2c0.6,0,1-0.4,1-1c0-0.6-0.4-1-1-1c-0.6,0-1,0.4-1,1C94.4,290.8,94.8,291.2,95.4,291.2z
		 M98,298.6v-1.2h-1.9v-4.9h-3.4v1.2h1.9v3.7h-2v1.2H98z M105.1,298.6v-1.2h-1.8v-7.3h-3.4v1.2h1.8v6.1h-1.9v1.2H105.1z
		 M106.9,294.2c0,0.9,0.6,1.5,1.7,1.8l0.9,0.2c0.6,0.1,0.9,0.3,0.9,0.7c0,0.4-0.4,0.7-1,0.7c-0.6,0-1-0.2-1.1-0.7h-1.5
		c0.1,1.2,1.1,1.8,2.6,1.8c1.6,0,2.6-0.8,2.6-2c0-0.9-0.6-1.5-1.8-1.7l-1-0.2c-0.6-0.1-0.9-0.3-0.9-0.7c0-0.4,0.4-0.7,1-0.7
		c0.6,0,1,0.3,1,0.7h1.4c-0.1-1.2-1-1.8-2.5-1.8C107.9,292.3,106.9,293.1,106.9,294.2z"/>
	<path class="st8" d="M327.5,289.7v8h2.6c2.3,0,3.4-1.4,3.4-4.1c0-2.6-1.2-4-3.4-4H327.5z M329.1,291.1h0.8c1.4,0,2,0.9,2,2.6
		c0,1.9-0.6,2.7-2,2.7h-0.8V291.1z M338.1,290.4c0.6,0,1-0.4,1-1c0-0.6-0.4-1-1-1c-0.6,0-1,0.4-1,1
		C337.1,290,337.5,290.4,338.1,290.4z M338.9,291.6h-4v1.2h2.5v4.7c0,0.6-0.3,0.9-1.1,0.9c-0.2,0-1.4,0-1.5,0v1.3c0.2,0,1.4,0,1.6,0
		c1.8,0,2.5-0.6,2.5-2.3V291.6z M343.6,297.9c0.8,0,1.4-0.3,1.7-0.9h0.1v0.8h1.4v-4.2c0-1.3-0.9-2.1-2.5-2.1c-1.5,0-2.5,0.7-2.6,1.8
		h1.5c0.1-0.4,0.5-0.6,1.1-0.6c0.6,0,1,0.3,1,0.8v0.5l-1.4,0.1c-1.5,0.1-2.3,0.8-2.3,1.9C341.7,297.1,342.5,297.9,343.6,297.9z
		 M344.1,296.7c-0.6,0-1-0.3-1-0.7c0-0.5,0.4-0.7,1.1-0.8l1.2-0.1v0.4C345.4,296.2,344.9,296.7,344.1,296.7z M348.8,297.8h1.5v-3.5
		c0-0.9,0.5-1.4,1.3-1.4c0.8,0,1.1,0.4,1.1,1.3v3.6h1.5v-4c0-1.5-0.7-2.3-2.1-2.3c-0.9,0-1.5,0.4-1.9,1.2h-0.1v-1h-1.5V297.8z
		 M358.4,300.1c1.8,0,2.9-0.9,2.9-2.3v-6.1h-1.5v1h-0.1c-0.2-0.7-0.9-1.1-1.8-1.1c-1.5,0-2.3,1-2.3,2.6v0.9c0,1.7,0.8,2.6,2.3,2.6
		c0.9,0,1.6-0.5,1.8-1.2h0.1v1.2c0,0.8-0.5,1.2-1.4,1.2c-0.7,0-1.2-0.3-1.3-0.6h-1.5C355.8,299.4,356.8,300.1,358.4,300.1z
		 M357.1,295.1v-0.9c0-0.8,0.5-1.4,1.3-1.4c0.8,0,1.3,0.5,1.3,1.4v0.9c0,0.8-0.5,1.4-1.3,1.4C357.6,296.4,357.1,295.9,357.1,295.1z
		 M365.6,297.9c1.7,0,2.8-1.1,2.8-2.7v-0.9c0-1.7-1.1-2.7-2.8-2.7c-1.7,0-2.8,1.1-2.8,2.7v0.9C362.8,296.9,363.9,297.9,365.6,297.9z
		 M365.6,292.8c0.8,0,1.3,0.6,1.3,1.5v0.8c0,0.9-0.5,1.5-1.3,1.5s-1.3-0.6-1.3-1.5v-0.8C364.3,293.3,364.8,292.8,365.6,292.8z"/>
	<path class="st8" d="M443.9,295.1l-0.2-3.2h0.1l1.2,4h1.1l1.2-4h0.1l-0.2,3.2v2.7h1.3v-8h-1.7l-1.3,4.6h-0.1l-1.3-4.6h-1.6v8h1.3
		V295.1z M450.8,300c1.5,0,2.2-0.6,2.8-2.1l2.1-6.2H454l-1.4,4.7h-0.1l-1.4-4.7h-1.7l2.2,6.2l-0.1,0.2c-0.1,0.5-0.5,0.7-1.1,0.7
		c-0.1,0-0.3,0-0.3,0v1.2C450.2,300,450.5,300,450.8,300z M456.6,295.5c0.1,1.5,1.2,2.4,3,2.4c1.9,0,3-1,3-2.5
		c0-1.2-0.7-1.9-2.2-2.3l-0.8-0.2c-0.9-0.2-1.2-0.5-1.2-1.1c0-0.6,0.5-1,1.3-1c0.8,0,1.3,0.4,1.4,1.1h1.5c-0.1-1.4-1.2-2.4-2.9-2.4
		c-1.7,0-2.8,1-2.8,2.5c0,1.2,0.7,2,2.2,2.3l0.8,0.2c0.9,0.2,1.3,0.5,1.3,1c0,0.7-0.6,1.1-1.4,1.1c-0.9,0-1.5-0.4-1.6-1.1H456.6z
		 M468.2,298.7h1.5l-0.9-1.5c0.6-0.6,1-1.6,1-2.8v-1.2c0-2.2-1.2-3.6-3.1-3.6c-1.9,0-3.1,1.3-3.1,3.6v1.2c0,2.2,1.2,3.6,3.1,3.6
		c0.4,0,0.7,0,1-0.1L468.2,298.7z M466.7,296.6c-1,0-1.5-0.8-1.5-2.2v-1.2c0-1.5,0.5-2.2,1.5-2.2c1,0,1.5,0.8,1.5,2.2v1.2
		c0,0.6-0.1,1-0.2,1.4l-0.3-0.5h-1.5l0.8,1.4C466.9,296.6,466.8,296.6,466.7,296.6z M476.6,296.4h-3.5v-6.6h-1.6v8h5.1V296.4z"/>
	<path class="st9" d="M35.9,190.2h1.7l-2.4-8h-1.9l-2.4,8h1.6l0.5-2h2.4L35.9,190.2z M34.1,183.7L34.1,183.7L35,187h-1.8L34.1,183.7
		z M38.5,190.2h1.5v-3.5c0-0.9,0.5-1.4,1.3-1.4c0.8,0,1.1,0.4,1.1,1.3v3.6H44v-4c0-1.5-0.7-2.3-2.1-2.3c-0.9,0-1.5,0.4-1.8,1.2H40
		v-1h-1.5V190.2z M47.7,190.3c0.9,0,1.5-0.4,1.7-1.2h0.1v1.1h1.6v-8.5h-1.6v3.4h-0.1c-0.2-0.7-0.8-1.1-1.7-1.1c-1.4,0-2.2,1-2.2,2.6
		v1.1C45.4,189.3,46.3,190.3,47.7,190.3z M48.2,189c-0.8,0-1.3-0.5-1.3-1.4v-1c0-0.8,0.5-1.4,1.3-1.4c0.8,0,1.3,0.5,1.3,1.4v1
		C49.5,188.5,49,189,48.2,189z M55.3,187.5c0-1.3,0.7-2,2.2-2c0.3,0,0.7,0.1,1,0.2V184c-0.2-0.1-0.5-0.1-0.9-0.1
		c-1.2,0-1.8,0.5-2.1,1.7h-0.2v-1.6h-2.8v1.1h1.3v3.9h-1.2v1.1h4.4v-1.1h-1.8V187.5z M62.4,190.3c1.7,0,2.8-1.1,2.8-2.7v-0.9
		c0-1.7-1.1-2.7-2.8-2.7c-1.7,0-2.8,1.1-2.8,2.7v0.9C59.6,189.3,60.7,190.3,62.4,190.3z M62.4,185.2c0.8,0,1.3,0.6,1.3,1.5v0.8
		c0,0.9-0.5,1.5-1.3,1.5c-0.8,0-1.3-0.6-1.3-1.5v-0.8C61.1,185.8,61.6,185.2,62.4,185.2z M69.6,182.8c0.6,0,1-0.4,1-1s-0.4-1-1-1
		c-0.6,0-1,0.4-1,1S69,182.8,69.6,182.8z M72.2,190.2V189h-1.9v-4.9H67v1.2h1.9v3.7h-2v1.2H72.2z M75.9,190.3c0.9,0,1.5-0.4,1.7-1.2
		h0.1v1.1h1.6v-8.5h-1.6v3.4h-0.1c-0.2-0.7-0.8-1.1-1.7-1.1c-1.4,0-2.2,1-2.2,2.6v1.1C73.6,189.3,74.5,190.3,75.9,190.3z M76.5,189
		c-0.8,0-1.3-0.5-1.3-1.4v-1c0-0.8,0.5-1.4,1.3-1.4c0.8,0,1.3,0.5,1.3,1.4v1C77.7,188.5,77.2,189,76.5,189z"/>
	<path class="st9" d="M214.5,188.8h-3.5v-6.6h-1.6v8h5.1V188.8z M218.8,182.8c0.6,0,1-0.4,1-1s-0.4-1-1-1c-0.6,0-1,0.4-1,1
		S218.1,182.8,218.8,182.8z M221.4,190.2V189h-1.9v-4.9h-3.4v1.2h1.9v3.7h-2v1.2H221.4z M223,190.2h1.5v-3.5c0-0.9,0.5-1.4,1.3-1.4
		c0.8,0,1.1,0.4,1.1,1.3v3.6h1.5v-4c0-1.5-0.7-2.3-2-2.3c-0.9,0-1.5,0.4-1.9,1.2h-0.1v-1H223V190.2z M235.5,184.1H234v3.6
		c0,0.8-0.5,1.4-1.3,1.4c-0.8,0-1.1-0.4-1.1-1.3v-3.6H230v4c0,1.5,0.7,2.3,2,2.3c0.9,0,1.5-0.4,1.9-1.2h0.1v1h1.5V184.1z
		 M239.8,188.1l1.2,2.1h1.7l-2-3.1l2-3h-1.7l-1.2,2.1h-0.1l-1.2-2.1h-1.8l2,3.1l-1.9,3h1.6L239.8,188.1L239.8,188.1z"/>
	<path class="st9" d="M407.5,182.2v8h1.6v-2.6h1.3c1.7,0,2.8-1.1,2.8-2.7c0-1.7-1.1-2.8-2.8-2.8H407.5z M409.1,183.5h1
		c1,0,1.6,0.5,1.6,1.4c0,1-0.5,1.4-1.6,1.4h-1V183.5z M415.5,192.4c1.5,0,2.2-0.6,2.8-2.1l2.1-6.2h-1.6l-1.4,4.7h-0.1l-1.4-4.7h-1.7
		l2.2,6.2l-0.1,0.2c-0.1,0.5-0.5,0.7-1.1,0.7c-0.1,0-0.3,0-0.3,0v1.2C414.9,192.4,415.2,192.4,415.5,192.4z M423.1,182.3v1.8h-1.6
		v1.2h1.6v2.9c0,1.4,0.6,2,2.3,2c0.1,0,1.3,0,1.4,0V189c-0.1,0-1.1,0-1.3,0c-0.6,0-0.9-0.3-0.9-0.7v-2.9h2.3v-1.2h-2.3v-1.8H423.1z
		 M428.6,190.2h1.5v-3.5c0-0.8,0.5-1.4,1.3-1.4c0.8,0,1.2,0.4,1.2,1.3v3.6h1.5v-4c0-1.5-0.7-2.3-2.1-2.3c-0.9,0-1.6,0.4-1.9,1.2
		h-0.1v-3.4h-1.5V190.2z M438.4,190.3c1.7,0,2.8-1.1,2.8-2.7v-0.9c0-1.7-1.1-2.7-2.8-2.7c-1.7,0-2.8,1.1-2.8,2.7v0.9
		C435.6,189.3,436.7,190.3,438.4,190.3z M438.4,185.2c0.8,0,1.3,0.6,1.3,1.5v0.8c0,0.9-0.5,1.5-1.3,1.5c-0.8,0-1.3-0.6-1.3-1.5v-0.8
		C437.1,185.8,437.6,185.2,438.4,185.2z M442.8,190.2h1.5v-3.5c0-0.9,0.5-1.4,1.3-1.4c0.8,0,1.1,0.4,1.1,1.3v3.6h1.5v-4
		c0-1.5-0.7-2.3-2-2.3c-0.9,0-1.5,0.4-1.9,1.2h-0.1v-1h-1.5V190.2z"/>
	<path class="st10" d="M477.3,229.6l1.4,3h1.8l-1.6-3.2c0.9-0.3,1.4-1.2,1.4-2.3c0-1.6-1.1-2.6-2.8-2.6h-2.9v8h1.6v-3H477.3z
		 M476.2,225.8h1.1c0.9,0,1.4,0.5,1.4,1.3c0,0.8-0.5,1.3-1.4,1.3h-1.1V225.8z M485.7,230.9c-0.1,0.4-0.6,0.7-1.2,0.7
		c-0.8,0-1.3-0.5-1.3-1.3v-0.3h4V229c0-1.6-1-2.7-2.7-2.7c-1.7,0-2.8,1.1-2.8,2.7v1c0,1.7,1,2.7,2.8,2.7c1.4,0,2.5-0.8,2.6-1.9
		H485.7z M484.4,227.5c0.8,0,1.2,0.5,1.2,1.4h-2.5C483.2,228,483.7,227.5,484.4,227.5z M490.6,232.7c0.8,0,1.4-0.3,1.7-0.9h0.1v0.8
		h1.4v-4.2c0-1.3-0.9-2.1-2.5-2.1c-1.5,0-2.5,0.7-2.6,1.8h1.5c0.1-0.4,0.5-0.6,1.1-0.6c0.6,0,1,0.3,1,0.8v0.5L491,229
		c-1.5,0.1-2.3,0.8-2.3,1.9C488.7,231.9,489.4,232.7,490.6,232.7z M491.1,231.5c-0.6,0-1-0.3-1-0.7c0-0.5,0.4-0.7,1.1-0.8l1.2-0.1
		v0.4C492.4,231,491.9,231.5,491.1,231.5z M501.3,228.6c-0.1-1.5-1.1-2.3-2.7-2.3c-1.8,0-2.8,1-2.8,2.9v0.6c0,1.9,1,2.9,2.8,2.9
		c1.6,0,2.5-0.8,2.7-2.2h-1.5c-0.1,0.7-0.5,1-1.2,1c-0.8,0-1.3-0.6-1.3-1.7v-0.4c0-1.1,0.5-1.7,1.3-1.7c0.7,0,1.1,0.3,1.2,1H501.3z
		 M504.3,224.7v1.8h-1.6v1.2h1.6v2.9c0,1.4,0.6,2,2.3,2c0.1,0,1.3,0,1.4,0v-1.2c-0.1,0-1.1,0-1.3,0c-0.6,0-0.9-0.3-0.9-0.7v-2.9h2.3
		v-1.2h-2.3v-1.8H504.3z"/>
	<path class="st10" d="M281.7,232.7v-2.4l0.7-0.9l2.2,3.3h1.8l-2.9-4.5l2.8-3.5h-1.7l-2.8,3.7h-0.1v-3.7h-1.5v8H281.7z M292.6,226.6
		h-1.5v3.6c0,0.8-0.5,1.4-1.3,1.4c-0.8,0-1.1-0.4-1.1-1.3v-3.6h-1.5v4c0,1.5,0.7,2.3,2,2.3c0.9,0,1.5-0.4,1.9-1.2h0.1v1h1.5V226.6z
		 M297.6,232.8c1.4,0,2.2-1,2.2-2.6v-1.1c0-1.7-0.8-2.6-2.2-2.6c-0.9,0-1.5,0.4-1.7,1.1h-0.1v-3.4h-1.6v8.5h1.6v-1.1h0.1
		C296.1,232.4,296.7,232.8,297.6,232.8z M297,231.5c-0.8,0-1.3-0.5-1.3-1.4v-1c0-0.8,0.5-1.4,1.3-1.4c0.8,0,1.3,0.5,1.3,1.4v1
		C298.3,231,297.8,231.5,297,231.5z M305.3,231c-0.1,0.4-0.6,0.7-1.2,0.7c-0.8,0-1.3-0.5-1.3-1.3V230h4v-0.8c0-1.6-1-2.7-2.7-2.7
		c-1.7,0-2.8,1.1-2.8,2.7v1c0,1.7,1,2.7,2.8,2.7c1.4,0,2.5-0.8,2.6-1.9H305.3z M304.1,227.6c0.8,0,1.2,0.5,1.2,1.4h-2.5
		C302.8,228.1,303.3,227.6,304.1,227.6z M310.9,230c0-1.3,0.7-2,2.2-2c0.3,0,0.7,0.1,1,0.2v-1.7c-0.2-0.1-0.5-0.1-0.9-0.1
		c-1.2,0-1.8,0.5-2.1,1.7h-0.2v-1.6h-2.8v1.1h1.3v3.9h-1.2v1.1h4.4v-1.1h-1.8V230z M315.4,232.7h1.5v-3.5c0-0.9,0.5-1.4,1.3-1.4
		c0.8,0,1.1,0.4,1.1,1.3v3.6h1.5v-4c0-1.5-0.7-2.3-2.1-2.3c-0.9,0-1.5,0.4-1.9,1.2h-0.1v-1h-1.5V232.7z M326.5,231
		c-0.1,0.4-0.6,0.7-1.2,0.7c-0.8,0-1.3-0.5-1.3-1.3V230h4v-0.8c0-1.6-1-2.7-2.7-2.7c-1.7,0-2.8,1.1-2.8,2.7v1c0,1.7,1,2.7,2.8,2.7
		c1.4,0,2.5-0.8,2.6-1.9H326.5z M325.2,227.6c0.8,0,1.2,0.5,1.2,1.4H324C324,228.1,324.4,227.6,325.2,227.6z M330.9,224.8v1.8h-1.6
		v1.2h1.6v2.9c0,1.4,0.6,2,2.3,2c0.1,0,1.3,0,1.4,0v-1.2c-0.1,0-1.1,0-1.3,0c-0.6,0-0.9-0.3-0.9-0.7v-2.9h2.3v-1.2h-2.3v-1.8H330.9z
		 M340.6,231c-0.1,0.4-0.6,0.7-1.2,0.7c-0.8,0-1.3-0.5-1.3-1.3V230h4v-0.8c0-1.6-1-2.7-2.7-2.7c-1.7,0-2.8,1.1-2.8,2.7v1
		c0,1.7,1,2.7,2.8,2.7c1.4,0,2.5-0.8,2.6-1.9H340.6z M339.3,227.6c0.8,0,1.2,0.5,1.2,1.4h-2.5C338.1,228.1,338.5,227.6,339.3,227.6z
		 M343.8,228.3c0,0.9,0.6,1.5,1.7,1.8l0.9,0.2c0.6,0.1,0.9,0.3,0.9,0.7c0,0.4-0.4,0.7-1,0.7c-0.6,0-1-0.2-1.1-0.7h-1.5
		c0.1,1.2,1.1,1.8,2.6,1.8c1.6,0,2.6-0.8,2.6-2c0-0.9-0.6-1.5-1.8-1.7l-1-0.2c-0.6-0.1-0.9-0.3-0.9-0.7c0-0.4,0.4-0.7,1-0.7
		c0.6,0,1,0.3,1,0.7h1.4c-0.1-1.2-1-1.8-2.5-1.8C344.8,226.4,343.8,227.2,343.8,228.3z"/>
	<path class="st9" d="M564.4,187.6c0,0.9-0.5,1.4-1.4,1.4c-1,0-1.5-0.7-1.5-1.9v-1.6c0-1.3,0.5-1.9,1.5-1.9c0.8,0,1.3,0.6,1.4,1.4
		h1.6c0-1.8-1.2-2.8-2.9-2.8c-2,0-3.1,1.2-3.1,3.4v1.6c0,2.1,1.2,3.4,3.1,3.4c1.8,0,2.9-1.1,2.9-2.8v-1.7h-3.1v1.2h1.5V187.6z
		 M569.9,190.3c1.7,0,2.8-1.1,2.8-2.7v-0.9c0-1.7-1.1-2.7-2.8-2.7c-1.7,0-2.8,1.1-2.8,2.7v0.9C567.1,189.3,568.2,190.3,569.9,190.3z
		 M569.9,185.2c0.8,0,1.3,0.6,1.3,1.5v0.8c0,0.9-0.5,1.5-1.3,1.5c-0.8,0-1.3-0.6-1.3-1.5v-0.8C568.6,185.8,569.1,185.2,569.9,185.2z
		"/>
	<path class="st10" d="M123.2,232.6v-5.4h0.1l2.8,5.4h1.4v-8h-1.4v5.3H126l-2.8-5.3h-1.4v8H123.2z M131.7,232.7
		c1.7,0,2.8-1.1,2.8-2.7V229c0-1.7-1.1-2.7-2.8-2.7c-1.7,0-2.8,1.1-2.8,2.7v0.9C128.9,231.7,130,232.7,131.7,232.7z M131.7,227.6
		c0.8,0,1.3,0.6,1.3,1.5v0.8c0,0.9-0.5,1.5-1.3,1.5c-0.8,0-1.3-0.6-1.3-1.5v-0.8C130.4,228.1,130.9,227.6,131.7,227.6z M138.1,232.7
		c0.9,0,1.5-0.4,1.7-1.2h0.1v1.1h1.6v-8.5h-1.6v3.4h-0.1c-0.2-0.7-0.8-1.1-1.7-1.1c-1.4,0-2.2,1-2.2,2.6v1.1
		C135.9,231.7,136.7,232.7,138.1,232.7z M138.7,231.4c-0.8,0-1.3-0.5-1.3-1.4v-1c0-0.8,0.5-1.4,1.3-1.4c0.8,0,1.3,0.5,1.3,1.4v1
		C140,230.8,139.5,231.4,138.7,231.4z M147.2,230.9c-0.1,0.4-0.6,0.7-1.2,0.7c-0.8,0-1.3-0.5-1.3-1.3v-0.3h4V229
		c0-1.6-1-2.7-2.7-2.7c-1.7,0-2.8,1.1-2.8,2.7v1c0,1.7,1,2.7,2.8,2.7c1.4,0,2.5-0.8,2.6-1.9H147.2z M145.9,227.5
		c0.8,0,1.2,0.5,1.2,1.4h-2.5C144.7,228,145.1,227.5,145.9,227.5z"/>
	<path class="st8" d="M151.6,349.2v8h1.6v-2.6h1.3c1.7,0,2.8-1.1,2.8-2.7c0-1.7-1.1-2.8-2.8-2.8H151.6z M153.2,350.5h1
		c1,0,1.6,0.5,1.6,1.4c0,1-0.5,1.4-1.6,1.4h-1V350.5z M164.2,357.3v-8h-1.6v3.3H160v-3.3h-1.6v8h1.6v-3.4h2.6v3.4H164.2z
		 M165.7,349.2v8h1.6v-2.6h1.3c1.7,0,2.8-1.1,2.8-2.7c0-1.7-1.1-2.8-2.8-2.8H165.7z M167.3,350.5h1c1,0,1.6,0.5,1.6,1.4
		c0,1-0.5,1.4-1.6,1.4h-1V350.5z"/>
	<path class="st8" d="M261.8,357.3v-5.4h0.1l2.8,5.4h1.4v-8h-1.4v5.3h-0.1l-2.8-5.3h-1.4v8H261.8z M271.6,355.6
		c-0.1,0.4-0.6,0.7-1.2,0.7c-0.8,0-1.3-0.5-1.3-1.3v-0.3h4v-0.8c0-1.6-1-2.7-2.7-2.7c-1.7,0-2.8,1.1-2.8,2.7v1c0,1.7,1,2.7,2.8,2.7
		c1.4,0,2.5-0.8,2.6-1.9H271.6z M270.4,352.2c0.8,0,1.2,0.5,1.2,1.4h-2.5C269.1,352.7,269.6,352.2,270.4,352.2z M277.4,355.2
		l1.2,2.1h1.7l-2-3.1l2-3h-1.7l-1.2,2.1h-0.1l-1.2-2.1h-1.8l2,3.1l-1.9,3h1.6L277.4,355.2L277.4,355.2z M283.1,349.4v1.8h-1.6v1.2
		h1.6v2.9c0,1.4,0.6,2,2.3,2c0.1,0,1.3,0,1.4,0v-1.2c-0.1,0-1.1,0-1.3,0c-0.6,0-0.9-0.3-0.9-0.7v-2.9h2.3v-1.2h-2.3v-1.8H283.1z
		 M291.5,357.4c0.7,0,1.2-0.6,1.2-1.3c0-0.7-0.6-1.3-1.2-1.3s-1.2,0.6-1.2,1.3C290.2,356.8,290.8,357.4,291.5,357.4z M299.2,349.9
		c0.6,0,1-0.4,1-1c0-0.6-0.4-1-1-1c-0.6,0-1,0.4-1,1C298.2,349.5,298.6,349.9,299.2,349.9z M300,351.1h-4v1.2h2.5v4.7
		c0,0.6-0.3,0.9-1.1,0.9c-0.2,0-1.4,0-1.5,0v1.3c0.2,0,1.4,0,1.6,0c1.8,0,2.5-0.6,2.5-2.3V351.1z M303.1,352.9
		c0,0.9,0.6,1.5,1.7,1.8l0.9,0.2c0.6,0.1,0.9,0.3,0.9,0.7c0,0.4-0.4,0.7-1,0.7c-0.6,0-1-0.2-1.1-0.7H303c0.1,1.2,1.1,1.8,2.6,1.8
		c1.6,0,2.6-0.8,2.6-2c0-0.9-0.6-1.5-1.8-1.7l-1-0.2c-0.6-0.1-0.9-0.3-0.9-0.7c0-0.4,0.4-0.7,1-0.7c0.6,0,1,0.3,1,0.7h1.4
		c-0.1-1.2-1-1.8-2.5-1.8C304,351,303.1,351.7,303.1,352.9z"/>
	<path class="st8" d="M385.1,355.9h-3.5v-6.6H380v8h5.1V355.9z M388.5,357.4c0.8,0,1.4-0.3,1.7-0.9h0.1v0.8h1.4v-4.2
		c0-1.3-0.9-2.1-2.5-2.1c-1.5,0-2.5,0.7-2.6,1.8h1.5c0.1-0.4,0.5-0.6,1.1-0.6c0.6,0,1,0.3,1,0.8v0.5l-1.4,0.1
		c-1.5,0.1-2.3,0.8-2.3,1.9C386.5,356.6,387.3,357.4,388.5,357.4z M389,356.2c-0.6,0-1-0.3-1-0.7c0-0.5,0.4-0.7,1.1-0.8l1.2-0.1v0.4
		C390.3,355.7,389.7,356.2,389,356.2z M396.2,354.6c0-1.3,0.7-2,2.2-2c0.3,0,0.7,0.1,1,0.2v-1.7c-0.2-0.1-0.5-0.1-0.9-0.1
		c-1.2,0-1.8,0.5-2.1,1.7h-0.2v-1.6h-2.8v1.1h1.3v3.9h-1.2v1.1h4.4v-1.1h-1.8V354.6z M402.6,357.4c0.8,0,1.4-0.3,1.7-0.9h0.1v0.8
		h1.4v-4.2c0-1.3-0.9-2.1-2.5-2.1c-1.5,0-2.5,0.7-2.6,1.8h1.5c0.1-0.4,0.5-0.6,1.1-0.6c0.6,0,1,0.3,1,0.8v0.5l-1.4,0.1
		c-1.5,0.1-2.3,0.8-2.3,1.9C400.6,356.6,401.4,357.4,402.6,357.4z M403.1,356.2c-0.6,0-1-0.3-1-0.7c0-0.5,0.4-0.7,1.1-0.8l1.2-0.1
		v0.4C404.4,355.7,403.9,356.2,403.1,356.2z M407.5,351.1l2.1,6.1h1.7l2.1-6.1h-1.6l-1.3,4.7h-0.1l-1.3-4.7H407.5z M418.8,355.6
		c-0.1,0.4-0.6,0.7-1.2,0.7c-0.8,0-1.3-0.5-1.3-1.3v-0.3h4v-0.8c0-1.6-1-2.7-2.7-2.7c-1.7,0-2.8,1.1-2.8,2.7v1c0,1.7,1,2.7,2.8,2.7
		c1.4,0,2.5-0.8,2.6-1.9H418.8z M417.6,352.2c0.8,0,1.2,0.5,1.2,1.4h-2.5C416.3,352.7,416.8,352.2,417.6,352.2z M427.3,357.3v-1.2
		h-1.8v-7.3h-3.4v1.2h1.9v6.1h-2v1.2H427.3z"/>
	<path class="st8" d="M507.2,357.3h1.7l-2.4-8h-1.9l-2.4,8h1.6l0.5-2h2.4L507.2,357.3z M505.5,350.8L505.5,350.8l0.9,3.3h-1.8
		L505.5,350.8z M513.3,351c-0.9,0-1.5,0.4-1.7,1.2h-0.1v-1.1h-1.6v8.2h1.6v-3.1h0.1c0.2,0.7,0.8,1.1,1.7,1.1c1.4,0,2.2-1,2.2-2.6
		v-1.1C515.6,352,514.7,351,513.3,351z M512.7,352.4c0.8,0,1.3,0.5,1.3,1.4v1c0,0.8-0.5,1.4-1.3,1.4c-0.8,0-1.3-0.5-1.3-1.4v-1
		C511.5,352.9,511.9,352.4,512.7,352.4z M518.9,357.4c0.8,0,1.4-0.3,1.7-0.9h0.1v0.8h1.4v-4.2c0-1.3-0.9-2.1-2.5-2.1
		c-1.5,0-2.5,0.7-2.6,1.8h1.5c0.1-0.4,0.5-0.6,1.1-0.6c0.6,0,1,0.3,1,0.8v0.5l-1.4,0.1c-1.5,0.1-2.3,0.8-2.3,1.9
		C516.9,356.6,517.7,357.4,518.9,357.4z M519.4,356.2c-0.6,0-1-0.3-1-0.7c0-0.5,0.4-0.7,1.1-0.8l1.2-0.1v0.4
		C520.7,355.7,520.1,356.2,519.4,356.2z M529.5,353.3c-0.1-1.5-1.1-2.3-2.7-2.3c-1.8,0-2.8,1-2.8,2.9v0.6c0,1.9,1,2.9,2.8,2.9
		c1.6,0,2.5-0.8,2.7-2.2H528c-0.1,0.7-0.5,1-1.2,1c-0.8,0-1.3-0.6-1.3-1.7V354c0-1.1,0.5-1.7,1.3-1.7c0.7,0,1.1,0.3,1.2,1H529.5z
		 M531,357.3h1.5v-3.5c0-0.8,0.5-1.4,1.3-1.4c0.8,0,1.2,0.4,1.2,1.3v3.6h1.5v-4c0-1.5-0.7-2.3-2.1-2.3c-0.9,0-1.6,0.4-1.9,1.2h-0.1
		v-3.4H531V357.3z M542.2,355.6c-0.1,0.4-0.6,0.7-1.2,0.7c-0.8,0-1.3-0.5-1.3-1.3v-0.3h4v-0.8c0-1.6-1-2.7-2.7-2.7
		c-1.7,0-2.8,1.1-2.8,2.7v1c0,1.7,1,2.7,2.8,2.7c1.4,0,2.5-0.8,2.6-1.9H542.2z M540.9,352.2c0.8,0,1.2,0.5,1.2,1.4h-2.5
		C539.7,352.7,540.1,352.2,540.9,352.2z"/>
	<path class="st8" d="M209.4,298.6v-5.4h0.1l2.8,5.4h1.4v-8h-1.4v5.3h-0.1l-2.8-5.3H208v8H209.4z M219.3,296c0,0.9-0.5,1.4-1.4,1.4
		c-1,0-1.5-0.7-1.5-1.9v-1.6c0-1.3,0.5-1.9,1.5-1.9c0.8,0,1.3,0.6,1.4,1.4h1.6c0-1.8-1.2-2.8-2.9-2.8c-2,0-3.1,1.2-3.1,3.4v1.6
		c0,2.1,1.2,3.4,3.1,3.4c1.8,0,2.9-1.1,2.9-2.8v-1.7h-3.1v1.2h1.5V296z M227.4,298.6v-1.4h-1.7v-5.3h1.7v-1.4h-4.9v1.4h1.7v5.3h-1.7
		v1.4H227.4z M230.5,298.6v-5.4h0.1l2.8,5.4h1.4v-8h-1.4v5.3h-0.1l-2.8-5.3h-1.4v8H230.5z M235.7,298.6h1.6l1.7-2.8h0.1l1.7,2.8h1.7
		l-2.4-4l2.5-4h-1.6l-1.6,2.9H239l-1.6-2.9h-1.7l2.4,4L235.7,298.6z"/>
	<path class="st11" d="M515.9,53.3v46.1H63.5v19.9"/>
	<path class="st12" d="M229,101.4v25.3"/>
	<path class="st13" d="M137.7,101.4v83.1"/>
	<path class="st13" d="M95.3,101.4v150"/>
	<path class="st14" d="M165.4,101.4v192.3"/>
	<path class="st14" d="M346.4,101.4V257"/>
	<path class="st14" d="M453.9,101.4v143.4"/>
	<path class="st14" d="M402.6,101.4v193.2"/>
	<path class="st14" d="M523.2,101.4v176.9"/>
	<path class="st14" d="M275.4,102.2v199.7"/>
	<path class="st15" d="M213.5,101.4v144.3"/>
	<path class="st12" d="M314.6,101.4v79.1"/>
	<path class="st16" d="M491.4,101.4v78.2"/>
	<path class="st12" d="M426.2,101.4v25.3"/>
	<path class="st11" d="M515.9,53.3v46.1h51.3v20.7"/>
	<g>
		<defs>
			<rect id="SVGID_1_" x="254.3" y="304.2" width="67.6" height="40.8"/>
		</defs>
		<clipPath id="SVGID_00000059285369943513993930000013567379901466253480_">
			<use xlink:href="#SVGID_1_"  style="overflow:visible;"/>
		</clipPath>
		<g style="clip-path:url(#SVGID_00000059285369943513993930000013567379901466253480_);">
			<path class="st18" d="M270.2,314.8H283v1h-11.6v7.6h10.9v1h-10.9v8.4h11.7v1h-12.9V314.8z M284.1,314.8h1.4l6,8.4l6.1-8.4
				l8.4-10.6l-13.7,19.9l7.1,9.8h-1.4l-6.4-8.9l-6.5,8.9h-1.4l7.1-9.8L284.1,314.8z M299.8,315.8v-1h14.5v1h-6.7v18h-1.2v-18H299.8z
				 M254.3,314.8h1.5l20.2,30.2l-8.3-11.1l-12.1-17.6l-0.1,17.6h-1.2V314.8z M314.2,332.5c-0.1,0-0.2,0-0.2-0.1
				c-0.1,0-0.1-0.1-0.2-0.2c0-0.1,0-0.2,0-0.2c0-0.1,0.1-0.2,0.1-0.2c0.1-0.1,0.1-0.1,0.2-0.1c0.1,0,0.2,0,0.2,0
				c0.1,0,0.1,0.1,0.2,0.2s0.1,0.2,0.1,0.2c0,0.1,0,0.1,0,0.2c0,0.1-0.1,0.1-0.1,0.1s-0.1,0.1-0.1,0.1
				C314.4,332.5,314.3,332.5,314.2,332.5z M315.4,331.4h0.6c0,0.3,0.3,0.6,0.6,0.6c0.4,0,0.6-0.2,0.6-0.7v-2.9h0.6v2.9
				c0,0.8-0.5,1.3-1.3,1.3C315.9,332.6,315.4,332.1,315.4,331.4z M318.8,331.4h0.6c0.1,0.4,0.4,0.6,1,0.6c0.5,0,0.9-0.3,0.9-0.6
				c0-0.3-0.2-0.5-0.8-0.6l-0.5-0.1c-0.7-0.2-1.1-0.5-1.1-1.1c0-0.7,0.6-1.2,1.5-1.2c0.8,0,1.4,0.5,1.5,1.2h-0.6
				c-0.1-0.4-0.4-0.6-0.9-0.6c-0.5,0-0.8,0.2-0.8,0.6c0,0.3,0.2,0.5,0.8,0.6l0.5,0.1c0.8,0.2,1.2,0.5,1.2,1.2c0,0.8-0.6,1.3-1.6,1.3
				C319.4,332.6,318.8,332.1,318.8,331.4z"/>
		</g>
	</g>
	<g>
		<defs>
			<rect id="SVGID_00000085218574604840009540000009804084313268463753_" x="108.6" y="183.7" width="55.8" height="34.2"/>
		</defs>
		<clipPath id="SVGID_00000063621157321835968640000004199008859556111550_">
			<use xlink:href="#SVGID_00000085218574604840009540000009804084313268463753_"  style="overflow:visible;"/>
		</clipPath>
		<g style="clip-path:url(#SVGID_00000063621157321835968640000004199008859556111550_);">
			<path class="st20" d="M141.8,207.2l-5-2.9c-0.2-0.1-0.3-0.1-0.5-0.1c-0.2,0-0.4,0-0.5,0.1l-5,2.9c-0.2,0.1-0.3,0.2-0.4,0.4
				c-0.1,0.2-0.1,0.3-0.1,0.5v5.8c0,0.2,0.1,0.4,0.1,0.5c0.1,0.2,0.2,0.3,0.4,0.4l1.3,0.8c0.3,0.2,0.7,0.3,1.1,0.3
				c0.2,0,0.4,0,0.6-0.1c0.2-0.1,0.4-0.2,0.5-0.3c0.1-0.1,0.3-0.3,0.3-0.5c0.1-0.2,0.1-0.4,0.1-0.6v-5.7c0,0,0-0.1,0-0.1
				c0,0-0.1,0-0.1,0h-0.6c0,0,0,0-0.1,0c0,0,0,0,0,0c0,0,0,0,0,0c0,0,0,0,0,0.1v5.8c0,0.4-0.5,0.9-1.2,0.5l-1.4-0.8c0,0,0,0-0.1-0.1
				c0,0,0-0.1,0-0.1v-5.8c0,0,0-0.1,0-0.1c0,0,0,0,0.1-0.1l5-2.9c0,0,0.1,0,0.1,0c0,0,0.1,0,0.1,0l5,2.9c0,0,0,0,0.1,0.1
				c0,0,0,0.1,0,0.1v5.8c0,0,0,0.1,0,0.1c0,0,0,0-0.1,0.1l-5,2.9c0,0-0.1,0-0.1,0c0,0-0.1,0-0.1,0l-1.3-0.8c0,0,0,0-0.1,0
				c0,0,0,0-0.1,0c-0.2,0.2-0.5,0.3-0.8,0.4c-0.1,0-0.2,0.1,0,0.2l1.7,1c0.2,0.1,0.3,0.1,0.5,0.1c0.2,0,0.4-0.1,0.5-0.1l5-2.9
				c0.2-0.1,0.3-0.2,0.4-0.4c0.1-0.2,0.1-0.3,0.1-0.5v-5.8c0-0.2,0-0.4-0.1-0.6C142,207.5,141.9,207.3,141.8,207.2z"/>
			<path class="st20" d="M137.7,213c-1.3,0-1.6-0.3-1.7-1c0-0.1-0.1-0.1-0.1-0.1h-0.6c-0.1,0-0.2,0.1-0.2,0.1c0,0.9,0.5,1.9,2.7,1.9
				c1.6,0,2.5-0.6,2.5-1.7c0-1.1-0.7-1.4-2.3-1.6c-1.5-0.2-1.7-0.3-1.7-0.7c0-0.4,0.1-0.7,1.3-0.7c1.2,0,1.4,0.2,1.6,0.9
				c0,0,0,0.1,0,0.1c0,0,0.1,0,0.1,0h0.7c0,0,0.1,0,0.1,0c0,0,0,0,0-0.1c0,0,0,0,0-0.1c-0.1-1.1-0.9-1.8-2.5-1.8
				c-1.6,0-2.3,0.6-2.3,1.6s0.9,1.4,2.3,1.5c1.7,0.2,1.8,0.4,1.8,0.7C139.3,212.8,138.8,213,137.7,213z"/>
			<path class="st20" d="M144.2,207.8c0.1,0,0.1,0,0.2-0.1c0,0,0.1-0.1,0.1-0.2c0-0.3-0.3-0.3-0.4-0.3h-0.4v1.1h0.2v-0.4h0.2
				c0.1,0,0.1,0,0.1,0.1c0,0.1,0,0.3,0,0.3h0.3c0-0.1-0.1-0.2-0.1-0.3C144.4,207.9,144.4,207.8,144.2,207.8z M144,207.7h-0.2v-0.3
				h0.2c0,0,0.2,0,0.2,0.2c0,0,0,0.1,0,0.1C144.1,207.7,144.1,207.7,144,207.7z"/>
			<path class="st20" d="M144,206.8c-0.2,0-0.4,0.1-0.5,0.2c-0.2,0.1-0.3,0.3-0.4,0.4c-0.1,0.2-0.1,0.4-0.1,0.6
				c0,0.2,0.1,0.4,0.3,0.5c0.1,0.1,0.3,0.2,0.5,0.3c0.2,0,0.4,0,0.6-0.1c0.2-0.1,0.3-0.2,0.4-0.4c0.1-0.2,0.2-0.4,0.2-0.5
				c0-0.3-0.1-0.5-0.3-0.7C144.5,206.9,144.3,206.8,144,206.8z M144,208.6c-0.2,0-0.3,0-0.4-0.1c-0.1-0.1-0.2-0.2-0.3-0.4
				c-0.1-0.1-0.1-0.3,0-0.5c0-0.2,0.1-0.3,0.2-0.4c0.1-0.1,0.3-0.2,0.4-0.2c0.2,0,0.3,0,0.5,0c0.1,0.1,0.3,0.2,0.4,0.3
				c0.1,0.1,0.1,0.3,0.1,0.4c0,0.2-0.1,0.4-0.2,0.6C144.4,208.5,144.2,208.6,144,208.6z"/>
			<path class="st20" d="M120.2,194.6l-5.3-3.1c-0.1,0-0.2-0.1-0.3-0.1h-0.1c-0.1,0-0.2,0-0.3,0.1l-5.3,3.1
				c-0.1,0.1-0.2,0.1-0.2,0.2c-0.1,0.1-0.1,0.2-0.1,0.3v8.3c0,0.1,0,0.1,0,0.2c0,0,0.1,0.1,0.1,0.1c0,0,0.1,0,0.2,0
				c0.1,0,0.1,0,0.2,0l3.2-1.8c0.1-0.1,0.2-0.1,0.2-0.2c0.1-0.1,0.1-0.2,0.1-0.3v-3.9c0-0.1,0-0.2,0.1-0.3c0.1-0.1,0.1-0.2,0.2-0.2
				l1.4-0.8c0.1-0.1,0.2-0.1,0.3-0.1c0.1,0,0.2,0,0.3,0.1l1.3,0.8c0.1,0.1,0.2,0.1,0.2,0.2c0.1,0.1,0.1,0.2,0.1,0.3v3.9
				c0,0.1,0,0.2,0.1,0.3c0.1,0.1,0.1,0.2,0.2,0.2l3.2,1.8c0,0,0.1,0,0.2,0c0.1,0,0.1,0,0.2,0c0,0,0.1-0.1,0.1-0.1c0,0,0-0.1,0-0.2
				v-8.3c0-0.1,0-0.2-0.1-0.3C120.4,194.7,120.3,194.6,120.2,194.6z"/>
			<path class="st20" d="M164.1,194.7l-5.3-3.1c-0.1-0.1-0.2-0.1-0.3-0.1s-0.2,0-0.3,0.1l-5.4,3.1c-0.1,0.1-0.2,0.1-0.2,0.2
				c-0.1,0.1-0.1,0.2-0.1,0.3v6.2c0,0.1,0,0.2,0.1,0.3c0.1,0.1,0.1,0.2,0.2,0.2l5.3,3c0.1,0.1,0.2,0.1,0.3,0.1c0.1,0,0.2,0,0.3-0.1
				l3.2-1.8c0.1,0,0.1-0.1,0.1-0.1c0,0,0-0.1,0-0.2c0-0.1,0-0.1,0-0.2c0,0-0.1-0.1-0.1-0.1l-5.4-3.1c-0.1,0-0.1-0.1-0.1-0.1
				c0,0,0-0.1,0-0.2v-1.9c0-0.1,0-0.1,0-0.2c0,0,0.1-0.1,0.1-0.1l1.7-1c0,0,0.1,0,0.2,0c0.1,0,0.1,0,0.2,0l1.7,1
				c0,0,0.1,0.1,0.1,0.1c0,0,0,0.1,0,0.2v1.5c0,0.1,0,0.1,0,0.2c0,0.1,0.1,0.1,0.1,0.1c0,0,0.1,0,0.2,0c0.1,0,0.1,0,0.2,0l3.2-1.9
				c0.1-0.1,0.2-0.1,0.2-0.2c0.1-0.1,0.1-0.2,0.1-0.3v-1.5c0-0.1,0-0.2-0.1-0.3C164.2,194.8,164.2,194.7,164.1,194.7z"/>
			<path class="st20" d="M149.4,185.5l-3.2-1.8c0,0-0.1-0.1-0.2-0.1s-0.1,0-0.2,0.1c0,0-0.1,0.1-0.1,0.1c0,0,0,0.1,0,0.2v8.2
				c0,0,0,0.1,0,0.1c0,0,0,0.1-0.1,0.1c0,0-0.1,0-0.1,0c0,0-0.1,0-0.1,0l-1.4-0.8c-0.1-0.1-0.2-0.1-0.3-0.1c-0.1,0-0.2,0-0.3,0.1
				l-5.4,3.1c-0.1,0.1-0.2,0.1-0.2,0.2c-0.1,0.1-0.1,0.2-0.1,0.3v6.2c0,0.1,0,0.2,0.1,0.3c0.1,0.1,0.1,0.2,0.2,0.2l5.4,3.1
				c0.1,0.1,0.2,0.1,0.3,0.1c0.1,0,0.2,0,0.3-0.1l5.4-3.1c0.1-0.1,0.2-0.1,0.2-0.2c0.1-0.1,0.1-0.2,0.1-0.3v-15.4
				c0-0.1,0-0.2-0.1-0.3C149.6,185.7,149.6,185.6,149.4,185.5z M145.8,199.4C145.8,199.5,145.8,199.5,145.8,199.4
				c0,0.1,0,0.1-0.1,0.1l-1.8,1c0,0-0.1,0-0.1,0c0,0-0.1,0-0.1,0l-1.8-1c0,0,0,0-0.1-0.1c0,0,0-0.1,0-0.1v-2.1c0,0,0-0.1,0-0.1
				c0,0,0,0,0.1-0.1l1.8-1.1c0,0,0.1,0,0.1,0c0,0,0.1,0,0.1,0l1.8,1.1c0,0,0,0,0.1,0.1c0,0,0,0.1,0,0.1V199.4z"/>
			<path class="st20" d="M158.5,197h-0.1l-1,0.6c0,0-0.1,0.1-0.1,0.1v1.1c0,0,0,0.1,0.1,0.1l1,0.6c0,0,0,0,0.1,0c0,0,0,0,0.1,0
				l1-0.6c0,0,0.1-0.1,0.1-0.1v-1.1c0,0,0-0.1-0.1-0.1L158.5,197z"/>
			<path class="st20" d="M135.1,201.4v-6.2c0-0.1,0-0.2-0.1-0.3c-0.1-0.1-0.1-0.2-0.2-0.2l-5.3-3.1c-0.1-0.1-0.2-0.1-0.3-0.1
				c-0.1,0-0.2,0-0.3,0.1l-5.3,3.1c-0.1,0.1-0.2,0.1-0.2,0.2c-0.1,0.1-0.1,0.2-0.1,0.3v6.2c0,0.1,0,0.2,0.1,0.3
				c0.1,0.1,0.1,0.2,0.2,0.2l5.3,3.1c0.1,0.1,0.2,0.1,0.3,0.1c0.1,0,0.2,0,0.3-0.1l5.3-3.1c0.1-0.1,0.2-0.1,0.2-0.2
				C135.1,201.6,135.1,201.5,135.1,201.4z"/>
		</g>
	</g>
	<path class="st3" d="M41.3,140.8c0,0.1,0,0.2,0,0.3v19.7c0,2.1,1.7,3.8,3.7,3.8h0.1v7.8c0,0.8,0.3,1.6,0.9,2.1
		c0.6,0.6,1.3,0.9,2.1,0.9c0.8,0,1.6-0.3,2.1-0.9c0.6-0.6,0.9-1.3,0.9-2.1v-7.8h7.6v7.8c0,0.8,0.3,1.6,0.9,2.1
		c0.6,0.6,1.3,0.9,2.1,0.9c0.8,0,1.6-0.3,2.1-0.9c0.6-0.6,0.9-1.3,0.9-2.1v-7.8H65c2.1,0,3.7-1.7,3.7-3.8v-19.7c0-0.1,0-0.2,0-0.3
		H41.3z"/>
	<path class="st3" d="M73.6,142.6c-0.8,0-1.6,0.3-2.1,0.9c-0.6,0.6-0.9,1.3-0.9,2.1v13c0,0.8,0.3,1.6,0.9,2.1
		c0.6,0.6,1.3,0.9,2.1,0.9c0.8,0,1.6-0.3,2.1-0.9c0.6-0.6,0.9-1.3,0.9-2.1v-13c0-0.8-0.3-1.6-0.9-2.1
		C75.1,142.9,74.4,142.6,73.6,142.6z"/>
	<path class="st3" d="M36.4,142.6c-0.8,0-1.6,0.3-2.1,0.9c-0.6,0.6-0.9,1.3-0.9,2.1v13c0,0.8,0.3,1.6,0.9,2.1
		c0.6,0.6,1.3,0.9,2.1,0.9c0.8,0,1.6-0.3,2.1-0.9c0.6-0.6,0.9-1.3,0.9-2.1v-13c0-0.8-0.3-1.6-0.9-2.1
		C38,142.9,37.2,142.6,36.4,142.6L36.4,142.6z"/>
	<path class="st3" d="M68.6,139.5c0-2.9-1.3-5.6-3.3-7.6l2.6-4.4c0-0.1,0-0.2,0-0.2c0-0.1-0.1-0.1-0.1-0.2c-0.1,0-0.2-0.1-0.2,0
		c-0.1,0-0.1,0.1-0.2,0.1l-2.5,4.3c-2.1-1.9-5-3.3-8.3-3.6h-3c-3.2,0.3-6.1,1.6-8.3,3.6l-2.5-4.3c0,0,0-0.1-0.1-0.1s-0.1,0-0.1-0.1
		c0,0-0.1,0-0.1,0c0,0-0.1,0-0.1,0c0,0-0.1,0-0.1,0.1c0,0,0,0.1-0.1,0.1c0,0,0,0.1,0,0.1c0,0,0,0.1,0,0.1l2.6,4.4
		c-2,2.1-3.3,4.7-3.3,7.6H68.6z M59.5,134.1c0-0.8,0.7-1.5,1.6-1.5c0.9,0,1.6,0.7,1.6,1.5v0c0,0.8-0.7,1.5-1.6,1.5
		C60.2,135.6,59.5,134.9,59.5,134.1L59.5,134.1z M47.8,134.1c0-0.8,0.7-1.5,1.6-1.5c0.9,0,1.6,0.7,1.6,1.5v0c0,0.8-0.7,1.5-1.6,1.5
		C48.5,135.6,47.8,134.9,47.8,134.1L47.8,134.1z"/>
	<path class="st21" d="M219,137.2c-0.2-5.5,2-8,6.5-8.1c4.5-0.1,7.3,2.3,7.8,5.4c0.6,3.1,0.2,7.2,1.4,9.3c1.1,2.1,1.9,3.8,3.8,6.2
		c2,2.4,3.2,4.9,3.7,8c0.6,3,0.9,4.4-0.6,6c-1.5,1.6-4.1,4.1-6,1.2c-1-1.4-1.1-3.2,0.6-3.6c1.1-0.2,1.8-0.2,2.6,0.2
		c0.8,0.4,1,0.2,0-0.5c-1-0.7-1.1-0.1-0.8-1.2c0.3-1.1,0.8-3.2-0.1-5.4c-0.4-1-1.8-3.9-3.1-4.6c-0.1-0.1-0.5-0.2-0.2,0.1
		c0.4,0.4,2.2,3.2,2.8,4.9c0.6,1.8,0.7,3.5,0.4,4.6c-0.3,1.1-0.8,1.5-1.4,1.5c-0.6,0-1.2,0.3-1.2-1.1c0-1.4,0.1-3.6-0.6-5.5
		c-0.8-1.8-1.7-3.1-1.9-3.9c-0.2-0.8-0.6-2.9-1.6-4c-0.9-1.2-1.3-2-0.9-3.3c0.5-1.3,0.1-1.7-0.9-2c-1-0.3-2.3-0.7-2.6-1.4
		c-0.3-0.7-0.1-2,0.6-2.3c0.7-0.3,2,0.1,2,1.1c0,0.9-0.4,1.4-0.3,1.6c0.1,0.2,0.8,0.5,1.1,0.2c0.3-0.4,0.4-1.5,0.1-2.6
		c-0.3-1.1-0.5-1.8-1.7-2c-1.2-0.2-1.7-0.2-2.3,0.6c-0.6,0.7-0.8,1.9-0.6,2.8c0.2,0.9-0.2,0.4-0.7,0.3c-0.6,0-0.4-0.1-1,0
		c-0.6,0-0.4-0.3-0.4-0.9c0-0.6-0.1-1.9-1-2.4c-0.9-0.5-2.3,0.1-2.3,2.1c0,2,0.7,3,1.1,2.3c0.4-0.7,0.2-0.4-0.2-0.7
		c-0.4-0.3-0.7-1.7-0.2-2.1c0.5-0.4,1-0.4,1.3-0.2c0.3,0.2,0.7,1.1,0.6,1.6c-0.1,0.5-0.1,0.6-0.6,0.9c-0.5,0.4-0.7,0.7-1.3,1.1
		c-0.6,0.4-0.9,1.4-0.4,1.6c0.5,0.2,0.5,0.2,0.9,0.8c0.4,0.6,1.1,0.9,2.8,0.6c1.7-0.3,2.4-0.7,3.7-1.1c0.9-0.3,0.6-0.3,0.9-0.7
		c0.3-0.4,0.9,0.2,0.4,0.5c-0.5,0.3-1.6,0.7-2.4,0.9c-0.8,0.3-1.7,1.1-3.5,1c-1.7-0.1-0.5,0-1.1-0.1c-0.5,0-0.8,0-0.2,0.4
		c0.6,0.4,0.5,0.5,1,0.7c0.5,0.2,1.1,0.2,1.9-0.1c0.8-0.3,2.7-1.1,3.3-1.6c0.6-0.4,1.1,0.1,0.5,0.5c-0.6,0.4-0.8,0.3-1.3,0.7
		c-0.6,0.4-1.6,1-2.3,1.6c-0.7,0.7-0.9,0.7-1.7,0.7c-0.9,0-1.4-0.9-1.7-1.3c-0.4-0.4-0.3-0.7-0.8-1.1c-0.4-0.5-0.5-0.4-0.6,0.2
		c-0.1,0.5-0.7,1.9-1.2,2.8c-0.5,0.9-0.6,2-0.5,2.8c0.1,0.8-0.1,0.9-0.7,1.8c-0.6,0.9-1.6,3.6-1.8,4.4c-0.2,0.9-0.4,2.6-0.3,3.6
		c0.1,1-0.2,1.2-0.9,0.5c-0.7-0.7-1-1.5-0.9-2.5c0-0.9,0.2-1.5,0.3-1.8c0.1-0.3,0-0.5-0.2-0.1c-0.5,0.9-0.5,2.4-0.4,2.9
		c0.1,0.5,0.2,1.5,1.5,2.7c1.3,1.3,3.3,3,4.9,4.2c1.6,1.2,2.2,2.7-0.2,3.7c1.5,2,2.3,3.1,1.7,4.4c1.3-0.8,0.8-2.6,0.2-3.1
		c-0.7-0.5-0.3-0.9,0.3-0.5c0.6,0.4,0.8,1.1,3,1.1c2.2,0,4.6-0.3,6-2.2c1.3-2,1.6-0.3,1.3,0.8c-0.3,1.1-1.1,3.7,0.1,3.5
		c0.2-1.5,0.5-2.8,0.5-4.4c0-1.6,0.2-2.4,0-4.8c-0.1-2.3,0.9-2.4,1.9-2.4c1,0,0.7,0.7,0,0.6c-0.7,0-1.3,0.2-1.4,1.9
		c0,1.7,0,1.5,0.3,3c0.3,1.5,0.3,2,0.1,3.6c-0.2,1.7-0.4,2.6,0.7,3.6c1.1,1,2.8,0.7,3.6,0.1c0.9-0.7,2.5-2.2,3.9-2.7
		c1.5-0.5,3-0.9,3.8-1.7c0.8-0.8,0.6-1.4-0.2-1.8c-0.9-0.5-1.7-0.2-2.3-1c-0.7-0.7-1-2.4-0.7-3.2c0.2-0.9,0.5-0.5,0.5,0.1
		c0,0.6,0,1.2,0.6,2c0.6,0.8,1.2,1.1,2.2,1.8c1,0.6,1.6,1.6,0.4,2.5c-1.2,0.9-1.9,1.3-2.9,1.8c-1,0.4-2.7,1.4-3.7,2.4
		c-1,1-1.6,1.9-3.6,1.9c-2,0-2.9-0.5-3.5-1.7c-0.4-0.8-0.6-0.7-1.5-0.7c-0.9,0-4.1-0.1-6.5,0c-2.4,0-3.3,0.4-4.4,1.3
		c-1.1,0.9-1.5,1.6-3.6,0.9c-2.1-0.7-3.2-1.5-6.3-2.1c-3.1-0.6-1.4-0.3-3.3-0.7c-1.9-0.4-1.7-1.3-1.5-2c0.2-0.7,0.9-1.9,0.3-3.4
		c-0.5-1.5-0.3-3.1,1.1-3.1c1.4,0,2.8,0.3,3.3-1.6c0.6-1.9,0.7-0.4,0.6,0.1c-0.2,0.5-0.2,1.8-1.5,2c-1.3,0.2-1.5-0.1-2.3-0.1
		c-0.8,0-1.1,0.5-0.7,1.4c0.4,0.9,0.9,1.8,0.8,2.6c-0.1,0.8-0.2,1.1-0.7,1.8c-0.6,0.7-0.5,1.1,0.5,1.3c1,0.2,2.8,0.7,4.6,1.1
		c1.7,0.4,1.8,0.4,4.8,1.2c3,0.8,3.8-0.6,4-2.3c0.2-1.7-0.9-3.3-2-4.9s-2.2-3.4-3.6-5.1c-1.4-1.7-2.2-1.8-2.9-1.4
		c-0.7,0.4-0.8,0.3-0.9-0.7c0-0.9-0.1-1.6,0.6-2.9c0.8-1.4,1.5-2.9,2.3-5.2c0.8-2.3,1.5-2.8,2.9-4.8c1.4-2,0.8-1.2,1.7-2.6
		c1-1.4,0.7-1.1,0.6-3.2C219.1,141.2,219,139.9,219,137.2L219,137.2z M215.1,153.8c0.2,0.3,0.5-0.3,0.8-0.6c0.1-0.1,0.2-0.3,0.3-0.4
		c0.1-0.2,0.1-0.4,0-0.5c0-0.2-0.3-0.1-0.4-0.1c-0.2,0.2-0.1,0.5-0.3,0.8C215.4,153.2,214.9,153.5,215.1,153.8z M232.6,145.2
		c0.4,0.4,0.7,0.7,1,0.1c0.2-0.6,0.2-0.8-0.3-1c-0.6-0.2-0.9-0.5-1.1-0.8c-0.3-0.3-0.4,0.2-0.1,0.7C232.2,145,232.3,145,232.6,145.2
		z M223.4,140.2c-0.3-0.1-0.7,0-0.9,0.2c-0.1,0.1,0,0.3,0.1,0.4c0.2,0.1,0.3-0.1,0.3-0.2c0-0.1,0-0.1,0.1-0.2c0.1,0,0.2,0,0.3,0
		C223.5,140.2,223.4,140.2,223.4,140.2L223.4,140.2z M224.8,140.2c0.1,0.2,0.3,0.2,0.5,0.3c0.1,0,0.3,0.1,0.4,0
		c0.1-0.5-0.5-0.3-0.8-0.3C224.9,140.1,224.8,140.1,224.8,140.2L224.8,140.2z M227.8,138.2c0.3,0,0.7,0.5,0.7,1.1
		c0,0.1,0.2,0.1,0.3,0c0.1-0.2,0-0.5,0-0.8c-0.1-0.2-0.3-0.5-0.5-0.6c-0.1-0.1-0.3-0.1-0.5-0.1C227.7,138,227.5,138.2,227.8,138.2z
		 M221.7,138.1c-0.3,0-0.2,0.2-0.1,0.4c0.4,0.2,0.4,0.6,0.5,1c0,0.1,0.2,0.1,0.2,0c0.2-0.3,0-0.6-0.1-0.9
		C222.1,138.4,222,138.2,221.7,138.1C221.8,138,221.8,138.1,221.7,138.1z M229.5,131.8c-0.3-0.2-0.6-0.3-0.8,0
		c-0.1,0.3-0.1,0.6-0.1,0.9c0,0.1-0.1,0.1-0.2,0.2c-0.1,0.1-0.1,0.3,0,0.3c0.2,0.2,0.7-0.2,1-0.4c0.2-0.1,0.6,0,0.8-0.1
		c0.1,0,0.1-0.2,0-0.3C230.1,132.2,229.8,132.1,229.5,131.8L229.5,131.8z"/>
	<path class="st3" d="M427,132.3c-10.8,0-10.1,4.7-10.1,4.7l0,4.8h10.3v1.5h-14.4c0,0-6.9-0.8-6.9,10.1c0,10.9,6,10.5,6,10.5h3.6v-5
		c0,0-0.2-6,5.9-6h10.2c0,0,5.7,0.1,5.7-5.5V138C437.4,138,438.3,132.3,427,132.3z M421.3,135.6c0.2,0,0.5,0,0.7,0.1
		c0.2,0.1,0.4,0.2,0.6,0.4c0.2,0.2,0.3,0.4,0.4,0.6c0.1,0.2,0.1,0.5,0.1,0.7l0,0c0,0.5-0.2,1-0.5,1.3c-0.3,0.3-0.8,0.5-1.3,0.5h0
		c-0.5,0-1-0.2-1.3-0.5c-0.3-0.3-0.5-0.8-0.5-1.3v0c0-0.2,0-0.5,0.1-0.7c0.1-0.2,0.2-0.4,0.4-0.6c0.2-0.2,0.4-0.3,0.6-0.4
		C420.8,135.6,421,135.6,421.3,135.6L421.3,135.6z"/>
	<path class="st3" d="M427.1,174.7c10.8,0,10.1-4.7,10.1-4.7l0-4.8h-10.3v-1.5h14.4c0,0,6.9,0.8,6.9-10.1c0-10.9-6-10.5-6-10.5h-3.6
		v5c0,0,0.2,6-5.9,6h-10.2c0,0-5.7-0.1-5.7,5.5v9.3C416.7,169.1,415.8,174.7,427.1,174.7L427.1,174.7z M432.8,171.5
		c-0.5,0-1-0.2-1.3-0.5c-0.3-0.3-0.5-0.8-0.5-1.3v0c0-0.2,0-0.5,0.1-0.7c0.1-0.2,0.2-0.4,0.4-0.6s0.4-0.3,0.6-0.4
		c0.2-0.1,0.5-0.1,0.7-0.1h0c0.2,0,0.5,0,0.7,0.1c0.2,0.1,0.4,0.2,0.6,0.4c0.2,0.2,0.3,0.4,0.4,0.6c0.1,0.2,0.1,0.5,0.1,0.7v0
		c0,0.2,0,0.5-0.1,0.7c-0.1,0.2-0.2,0.4-0.4,0.6c-0.2,0.2-0.4,0.3-0.6,0.4C433.3,171.4,433,171.5,432.8,171.5L432.8,171.5
		L432.8,171.5z"/>
	<path class="st3" d="M539.7,154.3l-0.3,0.9c0,0.1-0.1,0.1-0.1,0.2c-0.1,0-0.1,0.1-0.2,0l-16.5,0c-0.1,0-0.2-0.1-0.1-0.2l0.7-1
		c0-0.1,0.1-0.1,0.2-0.1c0.1,0,0.1,0,0.2,0h15.9C539.6,154.1,539.7,154.2,539.7,154.3z M538.7,157.4h-7c-0.1,0-0.1,0-0.2,0.1
		c-0.1,0-0.1,0.1-0.1,0.1l-0.5,0.9c-0.1,0.1,0,0.2,0.1,0.2l7.6,0c0.1,0,0.1,0,0.2-0.1c0,0,0.1-0.1,0.1-0.2l0.1-0.9
		C538.9,157.6,538.9,157.4,538.7,157.4z M541.3,150.8h-12.5c-0.1,0-0.1,0-0.2,0c-0.1,0-0.1,0.1-0.2,0.1l-0.7,1
		c-0.1,0.1,0,0.2,0.1,0.2l12.6,0c0.1,0,0.1,0,0.2-0.1c0.1,0,0.1-0.1,0.2-0.1l0.6-0.9C541.5,150.9,541.4,150.8,541.3,150.8
		L541.3,150.8z M590,166.5c-2.3,2.4-5.2,4-8.4,4.6c-0.9,0.2-1.9,0.2-2.8,0.3c-3.2-0.1-6.1-1-8.5-3.2c-1.7-1.5-2.9-3.4-3.5-5.6
		c-0.4,0.9-0.9,1.7-1.5,2.4c-2.5,3.4-5.8,5.6-9.9,6.2c-3.4,0.5-6.6-0.2-9.4-2.4c-1.2-0.9-2.3-2.1-3-3.5c-0.8-1.4-1.2-2.9-1.4-4.5
		c-0.5-3.9,0.7-7.5,3-10.6c2.4-3.3,5.9-5.5,9.8-6.2c3.3-0.6,6.4-0.2,9.3,1.8c1.8,1.2,3.2,3,4.1,5.1c0.2,0.3,0.1,0.5-0.4,0.6
		c-2.2,0.6-3.7,1-5.9,1.6c-0.5,0.1-0.6,0.2-1-0.4c-0.4-0.6-1-1-1.6-1.4c-2.2-1.1-4.3-0.8-6.3,0.5c-1.1,0.7-2.1,1.7-2.7,2.9
		s-0.9,2.6-0.9,3.9c0,2.9,2,5.3,4.7,5.7c2.4,0.3,4.4-0.5,5.9-2.4c0.3-0.4,0.6-0.8,0.9-1.3h-6.7c-0.7,0-0.9-0.5-0.7-1.1
		c0.5-1.1,1.3-3,1.8-3.9c0.1-0.2,0.2-0.3,0.4-0.4c0.2-0.1,0.3-0.2,0.5-0.1h11.2c0.5-1.7,1.4-3.3,2.4-4.7c2.5-3.5,5.6-5.3,9.8-6
		c3.6-0.6,6.9-0.3,10,1.8c2.8,2,4.5,4.6,4.9,8.1C594.6,159.1,593.2,163.1,590,166.5L590,166.5z M587.1,156.9c0-0.4,0-0.8-0.1-1.2
		c-0.6-3.6-3.8-5.6-7.1-4.8c-3.2,0.8-5.3,2.9-6.1,6.3c-0.3,1.3-0.2,2.8,0.4,4c0.6,1.2,1.6,2.2,2.8,2.8c0.9,0.4,1.9,0.6,2.9,0.6
		c1,0,2-0.3,2.8-0.8C585.4,162.3,586.9,160,587.1,156.9z"/>
	<g class="st22">
		<path class="st20" d="M510.2,200.2c0-2.5-3-4.8-7.7-6.2c1.1-4.8,0.6-8.6-1.5-9.9c-0.5-0.3-1.1-0.4-1.7-0.4v0c-2.1,0-4.7,1.5-7.5,4
			c-2.7-2.6-5.4-4-7.5-4v0c-0.6,0-1.2,0.1-1.7,0.4c-2.1,1.2-2.6,5-1.5,9.8c-4.6,1.5-7.7,3.8-7.7,6.2c0,2.4,3,4.8,7.7,6.2
			c-1.1,4.8-0.6,8.6,1.5,9.9c0.5,0.3,1.1,0.4,1.7,0.4c2.1,0,4.7-1.5,7.5-4c2.7,2.6,5.4,4,7.5,4c0.6,0,1.2-0.1,1.7-0.4
			c2.1-1.2,2.6-5,1.5-9.8C507.1,205,510.2,202.6,510.2,200.2z M499.3,185.4L499.3,185.4c0.3,0,0.6,0.1,0.9,0.2
			c1,0.6,1.5,2.8,1.1,5.7c-0.1,0.7-0.2,1.5-0.4,2.2c-1.6-0.4-3.1-0.7-4.7-0.8c-1-1.3-2-2.6-3.1-3.8
			C495.4,186.6,497.7,185.4,499.3,185.4z M495.2,206.1c-1.1,0.1-2.2,0.2-3.4,0.2c-1.1,0-2.3-0.1-3.4-0.1c-0.6-0.9-1.2-1.9-1.8-2.9
			c-0.6-1-1.1-2-1.6-3c0.5-1,1-2,1.5-3c0.6-1,1.2-2,1.8-2.9c1.1-0.1,2.2-0.2,3.4-0.2c1.1,0,2.3,0.1,3.4,0.1c0.6,0.9,1.2,1.9,1.8,2.9
			c0.6,1,1.1,2,1.6,3c-0.5,1-1,2-1.5,3C496.4,204.2,495.8,205.2,495.2,206.1L495.2,206.1z M485.2,204.1c0.4,0.6,0.7,1.2,1.1,1.8
			c-1.1-0.2-2.1-0.4-3.1-0.6c0.3-1,0.6-2,1-3C484.5,202.8,484.9,203.5,485.2,204.1L485.2,204.1z M483.2,195.2c1-0.2,2-0.4,3.1-0.6
			c-0.4,0.6-0.7,1.2-1.1,1.8c-0.3,0.6-0.7,1.2-1,1.8C483.8,197.1,483.5,196.1,483.2,195.2L483.2,195.2z M498.4,204
			c0.3-0.6,0.7-1.2,1-1.8c0.4,1,0.7,2,1,3c-1,0.2-2,0.4-3.1,0.6C497.7,205.2,498.1,204.6,498.4,204L498.4,204z M498.4,196.3
			c-0.3-0.6-0.7-1.2-1.1-1.8c1.1,0.2,2.1,0.4,3.1,0.6c-0.3,1-0.6,2-1,3C499.1,197.5,498.8,196.9,498.4,196.3L498.4,196.3z
			 M493.9,192.5c-0.7,0-1.4-0.1-2.1-0.1c-0.7,0-1.4,0-2.1,0.1c0.6-0.8,1.3-1.6,2.1-2.4C492.5,190.9,493.2,191.7,493.9,192.5
			L493.9,192.5z M483.5,185.6c0.3-0.1,0.6-0.2,0.9-0.2v0c1.5,0,3.8,1.2,6.3,3.5c-1.1,1.2-2.1,2.4-3.1,3.8c-1.6,0.2-3.2,0.4-4.8,0.8
			c-0.2-0.8-0.3-1.5-0.4-2.2C482,188.4,482.5,186.2,483.5,185.6L483.5,185.6z M481.6,204.8c-0.7-0.2-1.4-0.5-2.1-0.8
			c-2.6-1.1-4.4-2.6-4.4-3.8c0-1.2,1.7-2.7,4.4-3.8c0.6-0.3,1.3-0.5,2.1-0.8c0.5,1.6,1,3.1,1.7,4.6
			C482.6,201.7,482,203.2,481.6,204.8L481.6,204.8z M484.4,215c-0.3,0-0.6-0.1-0.8-0.2l0,0c-1-0.6-1.5-2.8-1.1-5.7
			c0.1-0.7,0.2-1.5,0.4-2.2c1.6,0.4,3.1,0.7,4.7,0.8c1,1.3,2,2.6,3.1,3.8C488.2,213.8,485.9,215,484.4,215L484.4,215z M491.8,210.3
			c-0.7-0.8-1.4-1.6-2.1-2.4c0.7,0,1.4,0.1,2.1,0.1c0.7,0,1.4,0,2.1-0.1C493.3,208.7,492.6,209.5,491.8,210.3L491.8,210.3z
			 M500.2,214.8c-0.3,0.1-0.6,0.2-0.9,0.2c-1.5,0-3.8-1.2-6.3-3.5c1.1-1.2,2.1-2.4,3.1-3.8c1.6-0.2,3.2-0.4,4.8-0.8
			c0.2,0.7,0.3,1.5,0.4,2.2C501.6,211.9,501.2,214.2,500.2,214.8L500.2,214.8z M504.1,204c-0.6,0.3-1.3,0.5-2.1,0.8
			c-0.5-1.6-1-3.1-1.7-4.6c0.7-1.5,1.2-3,1.7-4.6c0.7,0.2,1.4,0.5,2.1,0.8c2.6,1.1,4.4,2.6,4.4,3.8
			C508.5,201.4,506.8,202.9,504.1,204L504.1,204z"/>
		<path class="st20" d="M491.8,203.6c1.9,0,3.4-1.5,3.4-3.5c0-1.9-1.5-3.5-3.4-3.5c-1.9,0-3.4,1.5-3.4,3.5
			C488.4,202.1,489.9,203.6,491.8,203.6z"/>
	</g>
	<path class="st23" d="M152.8,321.2h-2.6l-1,6.1h2.4c1.8-0.2,3.5-0.8,3.7-4.3C155.3,321.8,154.3,321.2,152.8,321.2z"/>
	<path class="st23" d="M180.2,321.2h-2.6l-1,6.1h2.4c1.8-0.2,3.5-0.8,3.7-4.3C182.6,321.8,181.6,321.2,180.2,321.2z"/>
	<path class="st23" d="M165.1,310c-16.4,0-29.7,6.9-29.7,15.5c0,8.6,13.3,15.5,29.7,15.5s29.7-6.9,29.7-15.5
		C194.8,316.9,181.5,310,165.1,310z M152,330.4h-3.7l-0.8,4.3h-3.9l3.3-16.5h7.5c3.3,0.2,4.9,1.8,4.9,4.7
		C159.4,327.7,155.5,330.6,152,330.4L152,330.4z M167.4,321.2h-3.1l-1.8,9.2h-3.9l3.3-16.5h3.9l-0.8,4.3h3.7
		c3.3,0.2,4.5,1.8,4.1,3.9l-1.4,8.4h-4.1l1.4-7.5C168.8,321.8,168.8,321.2,167.4,321.2L167.4,321.2z M179.3,330.4h-3.7l-0.8,4.3H171
		l3.3-16.5h7.5c3.3,0.2,4.9,1.8,4.9,4.7C186.7,327.7,182.8,330.6,179.3,330.4L179.3,330.4z"/>
	<g>
		<defs>
			<rect id="SVGID_00000014595821912609000290000001162697895850737810_" x="189.2" y="263.4" width="66.6" height="14"/>
		</defs>
		<clipPath id="SVGID_00000031172135897030860580000003050553798726025091_">
			<use xlink:href="#SVGID_00000014595821912609000290000001162697895850737810_"  style="overflow:visible;"/>
		</clipPath>
		<g style="clip-path:url(#SVGID_00000031172135897030860580000003050553798726025091_);">
			<path class="st18" d="M201.6,277.4c-0.4,0-0.8-0.2-1-0.4l-8.6-8.6v7.5c0,0.2,0,0.4-0.1,0.6c-0.1,0.2-0.2,0.3-0.3,0.5
				c-0.1,0.1-0.3,0.3-0.5,0.3c-0.2,0.1-0.4,0.1-0.6,0.1c-0.2,0-0.4,0-0.6-0.1c-0.2-0.1-0.3-0.2-0.5-0.3c-0.1-0.1-0.2-0.3-0.3-0.5
				c-0.1-0.2-0.1-0.4-0.1-0.6v-11c0-0.3,0.1-0.6,0.2-0.8c0.2-0.2,0.4-0.4,0.6-0.5c0.3-0.1,0.6-0.1,0.8-0.1c0.3,0.1,0.5,0.2,0.7,0.4
				l8.6,8.6v-7.5c0-0.4,0.2-0.7,0.4-1c0.3-0.3,0.6-0.4,1-0.4c0.4,0,0.7,0.1,1,0.4c0.3,0.3,0.4,0.6,0.4,1v11c0,0.4-0.2,0.8-0.4,1
				C202.4,277.2,202,277.4,201.6,277.4L201.6,277.4z M208.4,263.5l-0.4,0.7l-3.1,5.6l-0.4,0.7l0.4,0.7l3.1,5.4l0.4,0.7h8.1l0.4-0.8
				l2.3-4.6l1-2.1h-2.3l-5.9,0c-0.2,0-0.4,0-0.6,0.1c-0.2,0.1-0.3,0.2-0.5,0.3c-0.1,0.1-0.3,0.3-0.3,0.5c-0.1,0.2-0.1,0.4-0.1,0.6
				c0,0.2,0,0.4,0.1,0.6c0.1,0.2,0.2,0.3,0.3,0.5c0.1,0.1,0.3,0.2,0.5,0.3c0.2,0.1,0.4,0.1,0.6,0.1l3.5,0l-0.9,1.8h-4.6l-2.3-4
				l2.3-4.1h4.9l1.1,2.3h2.9l-1.8-4.4l-0.4-0.8L208.4,263.5L208.4,263.5z M223,263.4c-0.4,0-0.7,0.2-1,0.5c-0.3,0.3-0.4,0.6-0.4,1
				v3.8h2.9v-3.8c0-0.4-0.2-0.8-0.4-1C223.8,263.6,223.4,263.4,223,263.4L223,263.4z M227.7,277.4c-0.4,0-0.8-0.2-1-0.4
				c-0.3-0.3-0.4-0.6-0.4-1v-11c0-0.2,0-0.4,0.1-0.6c0.1-0.2,0.2-0.3,0.3-0.5c0.1-0.1,0.3-0.3,0.5-0.3c0.2-0.1,0.4-0.1,0.6-0.1
				c0.2,0,0.4,0,0.6,0.1c0.2,0.1,0.3,0.2,0.5,0.3c0.1,0.1,0.2,0.3,0.3,0.5c0.1,0.2,0.1,0.4,0.1,0.6v7.5l8.6-8.6
				c0.2-0.2,0.5-0.3,0.7-0.4c0.3-0.1,0.6,0,0.8,0.1c0.3,0.1,0.5,0.3,0.7,0.5c0.2,0.2,0.2,0.5,0.2,0.8v11c0,0.4-0.2,0.7-0.4,1
				c-0.3,0.3-0.6,0.4-1,0.4c-0.4,0-0.7-0.1-1-0.4c-0.3-0.3-0.4-0.6-0.4-1v-7.5l-8.6,8.6C228.4,277.3,228,277.4,227.7,277.4
				L227.7,277.4z M250.9,270.4l4.5-4.5c0.3-0.3,0.4-0.6,0.4-1c0-0.4-0.2-0.8-0.4-1c-0.3-0.3-0.6-0.4-1-0.4c-0.4,0-0.8,0.2-1,0.4
				l-4.5,4.5l-4.5-4.5c-0.3-0.3-0.6-0.4-1-0.4c-0.4,0-0.8,0.2-1,0.4c-0.3,0.3-0.4,0.6-0.4,1s0.2,0.8,0.4,1l4.5,4.5l-4.5,4.5
				c-0.1,0.1-0.2,0.3-0.3,0.5c-0.1,0.2-0.1,0.4-0.1,0.6c0,0.2,0,0.4,0.1,0.6c0.1,0.2,0.2,0.3,0.3,0.5c0.1,0.1,0.3,0.2,0.5,0.3
				c0.2,0.1,0.4,0.1,0.6,0.1c0.2,0,0.4,0,0.6-0.1c0.2-0.1,0.3-0.2,0.5-0.3l4.5-4.5l4.5,4.5c0.1,0.1,0.3,0.2,0.5,0.3
				c0.2,0.1,0.4,0.1,0.6,0.1c0.2,0,0.4,0,0.6-0.1c0.2-0.1,0.3-0.2,0.5-0.3c0.1-0.1,0.2-0.3,0.3-0.5c0.1-0.2,0.1-0.4,0.1-0.6
				c0-0.2,0-0.4-0.1-0.6c-0.1-0.2-0.2-0.3-0.3-0.5L250.9,270.4L250.9,270.4z M223,277.4c-0.4,0-0.7-0.2-1-0.5
				c-0.3-0.3-0.4-0.6-0.4-1v-6.1h2.9v6.1c0,0.4-0.2,0.8-0.4,1C223.8,277.2,223.4,277.4,223,277.4"/>
		</g>
	</g>
	<path class="st18" d="M327.4,263.6h-3.3v5.1c-0.5-0.1-1-0.2-1.4-0.2c-3.4,0-5.7,2.2-5.7,5.6c0,3.5,2.1,5.3,6.1,5.3
		c1.4,0,2.6-0.1,4.3-0.5L327.4,263.6z M324.1,276.6c-0.4,0.1-0.8,0.1-1.1,0.1c-1.7,0-2.6-1-2.6-2.7c0-1.8,1-2.8,2.6-2.8
		c0.4,0,0.8,0,1.1,0.2V276.6z"/>
	<path class="st18" d="M365.8,271.3l1.1-2.4c-1.4-0.3-2.9-0.5-4.3-0.5c-4.8,0-7.5,2.1-7.5,5.9c0,3,1.8,4.9,4.7,4.9
		c0.9,0,1.5-0.1,2.1-0.5v0.1c0,2.1-0.9,3-3.1,3c-1.2,0-2.4-0.3-3.5-0.9l0,0v3.1c1.1,0.4,2.3,0.7,3.6,0.6c2.5,0,4.3-0.8,5.3-2.4
		c0.7-1.1,0.9-2.4,0.9-5.3v-0.9c0-0.5,0-0.9,0-1.4l0-1.8l0-1.4v-0.3C365.7,271.3,364.9,271.1,365.8,271.3z M361.9,276.4
		c-0.4,0.1-0.8,0.2-1.2,0.2c-1.5,0-2.3-0.9-2.3-2.6c0-1.2,0.4-2,1.2-2.4c0.6-0.3,1.2-0.5,1.9-0.5h0.3v0.3l0,1.1l0,1.5
		c0,0.5,0,0.9,0,1.3L361.9,276.4z"/>
	<path class="st18" d="M329.4,275.2c0,2.9-0.1,4-0.6,4.9c-0.5,0.9-1.2,1.5-2.6,2.2l3.1,1.5c1.5-0.7,2.2-1.4,2.7-2.5
		c0.6-1.1,0.8-2.4,0.8-5v-7.7h-3.3V275.2z"/>
	<path class="st18" d="M372,268.4c-3.4,0-5.5,2.2-5.5,5.7c0,3.4,2,5.4,5.3,5.4c3.3,0,5.4-2.2,5.4-5.6
		C377.3,270.5,375.3,268.4,372,268.4z M371.9,276.8c-1.3,0-2-1.1-2-2.9s0.7-2.9,2.1-2.9c1.3,0,2,1.1,2,2.9
		C374,275.8,373.2,276.8,371.9,276.8z"/>
	<path class="st18" d="M349.5,268.4c-1.6,0-3.2,0.2-5.2,0.8v10h3.3v-7.9c0.5-0.2,1-0.2,1.5-0.2c1.2,0,1.6,0.5,1.6,1.7v6.4h3.3v-6.5
		c0-1.7-0.2-2.4-0.9-3.1C352.4,268.8,351.2,268.4,349.5,268.4z"/>
	<path class="st18" d="M332.7,263.6h-3.3v3.4h3.3V263.6z"/>
	<path class="st18" d="M339,268.4c-1.5,0-3,0.3-4.4,1v2.6c1.3-0.7,2.7-1,3.9-1c0.8,0,1.1,0.2,1.1,0.8v0.7c-4,0.3-5.7,1.4-5.7,3.7
		c0,2.2,1.2,3.1,4,3.1c1.6,0,3.2-0.1,4.7-0.4v-6.7c0-1.4-0.1-2-0.4-2.5C341.8,268.9,340.7,268.4,339,268.4z M339.8,276.9
		c-0.5,0.1-1.1,0.1-1.6,0.1c-0.9,0-1.3-0.3-1.3-0.9c0-0.9,0.7-1.2,2.9-1.4L339.8,276.9z"/>
	<path class="st18" d="M477.1,285.4c-0.3-0.3-0.6-0.5-0.8-0.8c-0.8-1.1-1.8-2-2.9-2.8c-0.9-0.6-2.8-1.4-3.2-2.5l-0.1-0.1
		c0.7-0.1,1.3-0.2,1.9-0.4c0.9-0.2,1.8-0.2,2.8-0.4c0.4-0.1,0.9-0.2,1.3-0.4v-0.2c-0.5-0.5-0.9-1.2-1.4-1.6c-1.4-1.2-3-2.4-4.6-3.4
		c-0.9-0.6-2-0.9-2.9-1.4c-0.3-0.2-0.9-0.2-1.1-0.5c-0.5-0.6-0.8-1.4-1.1-2.1c-0.8-1.5-1.6-3.2-2.3-4.8c-0.5-1.1-0.8-2.2-1.4-3.2
		c-2.9-4.7-6-7.6-10.7-10.3c-1-0.6-2.2-0.8-3.5-1.1c-0.7,0-1.4-0.1-2.1-0.1c-0.4-0.2-0.9-0.7-1.3-1c-1.6-1-5.7-3.2-6.8-0.3
		c-0.7,1.8,1.1,3.6,1.7,4.5c0.5,0.6,1.1,1.4,1.4,2.1c0.2,0.5,0.3,1,0.4,1.5c0.4,1.2,0.9,2.6,1.4,3.7c0.3,0.6,0.6,1.2,1,1.7
		c0.2,0.3,0.6,0.4,0.7,0.9c-0.4,0.6-0.4,1.4-0.6,2.1c-1,3.1-0.6,7,0.8,9.3c0.4,0.7,1.5,2.2,2.9,1.6c1.2-0.5,1-2.1,1.3-3.5
		c0.1-0.3,0-0.6,0.2-0.8v0.1c0.4,0.8,0.8,1.5,1.1,2.3c0.9,1.4,2.4,2.8,3.6,3.7c0.7,0.5,1.2,1.4,2,1.6v-0.1H455
		c-0.2-0.2-0.4-0.4-0.6-0.6c-0.5-0.5-1-1.1-1.4-1.6c-1.2-1.6-2.2-3.3-3.1-5c-0.4-0.9-0.8-1.8-1.2-2.7c-0.2-0.3-0.2-0.8-0.4-1
		c-0.4,0.6-1,1.1-1.3,1.9c-0.5,1.2-0.6,2.7-0.8,4.2c-0.1,0-0.1,0-0.1,0.1c-0.9-0.2-1.2-1.1-1.5-1.9c-0.8-2-1-5.1-0.3-7.4
		c0.2-0.6,1-2.4,0.7-3c-0.2-0.5-0.7-0.8-1-1.2c-0.4-0.6-0.7-1.2-1-1.8c-0.7-1.5-1-3.3-1.7-4.8c-0.3-0.7-0.9-1.5-1.4-2.1
		c-0.5-0.7-1.1-1.3-1.5-2.2c-0.1-0.3-0.3-0.8-0.1-1.1c0-0.1,0.1-0.2,0.1-0.2c0.1-0.1,0.2-0.1,0.3-0.1c0.4-0.3,1.4,0.1,1.8,0.2
		c1,0.4,1.9,0.8,2.7,1.4c0.4,0.3,0.8,0.8,1.3,0.9h0.6c0.9,0.2,1.9,0.1,2.7,0.3c1.4,0.5,2.7,1.1,4,1.9c3.7,2.3,6.7,5.6,8.7,9.5
		c0.3,0.6,0.5,1.2,0.8,1.9c0.6,1.4,1.3,2.7,1.9,4.1c0.6,1.3,1.1,2.6,2,3.7c0.4,0.6,2.1,0.9,2.8,1.2c0.6,0.2,1.4,0.5,1.9,0.8
		c0.9,0.6,1.9,1.2,2.8,1.9c0.4,0.3,1.8,1,1.9,1.6c-2.2-0.1-3.9,0.2-5.4,0.8c-0.4,0.2-1.1,0.2-1.1,0.7c0.2,0.2,0.3,0.6,0.4,0.9
		c0.4,0.6,0.9,1.2,1.4,1.7c0.6,0.4,1.2,0.9,1.8,1.3c1.1,0.7,2.3,1.1,3.4,1.7c0.6,0.4,1.2,0.9,1.8,1.3c0.3,0.2,0.5,0.6,0.9,0.7v-0.1
		C477.4,286,477.3,285.7,477.1,285.4z"/>
	<path class="st18" d="M446,253.3c-0.4,0-0.8,0-1.1,0.1v0.1h0.1c0.2,0.4,0.6,0.7,0.9,1.1c0.2,0.4,0.4,0.9,0.6,1.3l0.1-0.1
		c0.4-0.3,0.6-0.7,0.6-1.4c-0.1-0.2-0.2-0.4-0.3-0.6C446.6,253.6,446.3,253.5,446,253.3z"/>
	<path class="st18" d="M536.9,290.1c0.6-3.2-0.6-4.7-0.6-4.7s-1.4-2.3-3.1-1.3c-0.8,0.5-2.2,1.8-3.8,3.8v0c-0.1,0.1-0.2,0.3-0.3,0.4
		c-0.4,0.5-0.9,1.1-1.3,1.7c-0.5,0.7-1,1.4-1.6,2.2c-0.5,0.7-1,1.5-1.5,2.2c-0.4,0.7-0.9,1.3-1.3,2c0,0,0,0.1-0.1,0.1l-0.1,0.2
		c-0.4,0.7-0.9,1.5-1.3,2.3c-0.4,0.8-0.9,1.6-1.3,2.4c-0.4,0.7-0.7,1.4-1.1,2.1c-0.1,0.1-0.1,0.3-0.2,0.4c-0.4,0.9-0.8,1.7-1.2,2.5
		c-0.4,0.9-0.7,1.8-1,2.6c-0.2,0.5-0.4,1.1-0.5,1.6c-0.1,0.4-0.3,0.9-0.4,1.3c-0.3,1-0.5,2-0.7,3c0,0,0,0.1,0,0.1
		c-0.2,1.2-0.4,2.4-0.5,3.7c0,0,0,0.1,0,0.1c-0.6-1-2.2-1.9-2.2-1.9c1.2,1.7,2.1,3.4,2.2,5c-0.6,0.1-1.5-0.1-2.5-0.4
		c1,0.9,1.8,1.2,2.1,1.3c-0.9,0.1-1.9,0.7-2.9,1.5c1.5-0.6,2.6-0.8,3.5-0.6c-1.3,3.8-2.7,7.9-4,12.4c0.2-0.1,0.4-0.2,0.5-0.3
		c0.1-0.1,0.2-0.3,0.3-0.5c0.2-0.8,1.8-6.1,4.3-13c0.1-0.2,0.1-0.4,0.2-0.6c0-0.1,0-0.1,0.1-0.2c0.3-0.7,0.5-1.5,0.8-2.2
		c0.1-0.2,0.1-0.3,0.2-0.5v0l0,0c0.3-0.7,0.5-1.4,0.8-2.1c0.1-0.2,0.2-0.4,0.2-0.6c0.3-0.9,0.7-1.8,1-2.7c0.3-0.9,0.7-1.7,1.1-2.6
		c0.4-0.9,0.7-1.7,1.1-2.6c0.4-0.9,0.8-1.8,1.2-2.6c0.4-0.9,0.8-1.7,1.2-2.6c0.1-0.3,0.3-0.6,0.4-0.9c0.3-0.5,0.5-1.1,0.8-1.6
		c0,0,0-0.1,0-0.1c0.4-0.8,0.8-1.6,1.3-2.4c0.5-0.8,0.9-1.7,1.4-2.5c0.5-0.8,1-1.6,1.5-2.4c0,0,0.1-0.1,0.1-0.1
		c0.5-0.8,1-1.5,1.5-2.2c1-1.4,2-2.7,3.2-4c0.1-0.1,0.1-0.1,0.1-0.1c0,0-0.1,0.1-0.1,0.1c-0.3,0.4-1.4,1.6-3,4l0,0h0
		c-0.4,0.7-0.9,1.4-1.4,2.3c0,0-0.1,0.1-0.1,0.1c-0.4,0.8-0.9,1.6-1.4,2.5c-0.4,0.8-0.9,1.6-1.3,2.5c-0.4,0.8-0.8,1.6-1.3,2.5h0
		c-0.1,0.1-0.1,0.3-0.2,0.4c-0.2,0.3-0.3,0.7-0.5,1.1c-0.2,0.4-0.4,0.8-0.6,1.2c-0.1,0.2-0.2,0.4-0.3,0.6c-0.3,0.6-0.6,1.3-0.9,2
		c-0.4,0.8-0.7,1.7-1.1,2.6c-0.4,0.9-0.7,1.7-1.1,2.6c-0.4,0.9-0.7,1.8-1.1,2.7c-0.3,0.8-0.7,1.7-1,2.5c0,0,0,0.1-0.1,0.1
		c-0.3,0.9-0.6,1.7-1,2.7c0,0,0,0.1,0,0.1h0h0c-0.1,0.1-0.1,0.2-0.2,0.4c-0.3,0.7-0.5,1.4-0.8,2.2c0,0,0,0,0,0
		c0,0.1-0.1,0.2-0.1,0.3c-0.2,0.5-0.3,0.9-0.7,2c0.6,0.3,1,0.9,1.5,1.7c0-0.4-0.1-0.8-0.3-1.2c-0.2-0.4-0.4-0.7-0.7-1
		c2.8,0.1,5.3-0.6,6.5-2.6c0.1-0.2,0.2-0.4,0.3-0.6c-0.6,0.7-1.3,1-2.6,1c2-0.9,2.9-1.7,3.8-3.1c0.2-0.3,0.4-0.7,0.6-1.1
		c-1.7,1.8-3.7,2.3-5.8,1.9c0,0,0-0.1-0.1-0.1c1.9-0.2,4.4-1.6,6-3.4c0.8-0.9,1.5-1.8,2-2.8c0.5-0.9,0.9-1.8,1.3-2.7
		c0.4-0.9,0.7-1.8,1-2.9c-0.5,0.2-1,0.4-1.5,0.5l-0.3,0.1c-0.1,0-0.2,0-0.3,0.1c1.8-0.7,2.9-2,3.7-3.6c-0.6,0.4-1.4,0.7-2.1,0.9
		c-0.1,0-0.2,0.1-0.4,0.1c0,0-0.1,0-0.1,0c0.6-0.2,1.1-0.5,1.6-0.9c0.1-0.1,0.2-0.1,0.3-0.2c0.1-0.1,0.3-0.2,0.4-0.4
		c0.1-0.1,0.2-0.2,0.2-0.3c0.2-0.2,0.3-0.4,0.5-0.7c0.1-0.1,0.1-0.2,0.1-0.2c0.1-0.1,0.1-0.2,0.2-0.3c0.2-0.5,0.4-0.9,0.6-1.3
		c0.1-0.2,0.1-0.4,0.2-0.5c0-0.1,0-0.1,0.1-0.2c0.1-0.2,0.1-0.3,0.2-0.5c0-0.2,0.1-0.3,0.1-0.5c-0.1,0.1-0.1,0.1-0.2,0.1
		c-0.5,0.3-1.4,0.6-2.2,0.7c-0.1,0-0.2,0-0.3,0.1h0l0,0c1.4-0.7,2.1-1.3,2.7-2.1c0.2-0.2,0.3-0.5,0.5-0.7c0.5-0.8,1-1.7,1.4-2.5
		c0.4-0.8,0.8-1.7,1.1-2.4c0.2-0.4,0.3-0.9,0.4-1.3C536.8,290.8,536.9,290.5,536.9,290.1L536.9,290.1L536.9,290.1z"/>
	<g class="st22">
		<g>
			<defs>
				<rect id="SVGID_00000032631375409286456440000007202818523855967632_" x="297.5" y="181.4" width="35.9" height="35.1"/>
			</defs>
			<clipPath id="SVGID_00000143618902821990705700000003343976788242349480_">
				<use xlink:href="#SVGID_00000032631375409286456440000007202818523855967632_"  style="overflow:visible;"/>
			</clipPath>
			<g style="clip-path:url(#SVGID_00000143618902821990705700000003343976788242349480_);">
				<path class="st20" d="M319,199c-0.2-0.3-0.2-0.7,0.1-0.9l2.9-2.6c0.9,1.5,1.3,3.2,1.1,4.9l-3.8-1.1
					C319.2,199.2,319.1,199.1,319,199z"/>
				<path class="st20" d="M317.2,196.4c-0.4,0-0.6-0.3-0.7-0.6l-0.2-4c0.3,0,0.5,0.1,0.8,0.1c1.4,0.3,2.7,1,3.7,2l-3.3,2.4
					C317.4,196.4,317.3,196.4,317.2,196.4z"/>
				<path class="st20" d="M318.7,201.5l3.9,0.7c-0.6,1.6-1.7,3-3.1,3.9l-1.5-3.7c0-0.1,0-0.2,0-0.4
					C318.1,201.7,318.4,201.5,318.7,201.5z"/>
				<path class="st20" d="M316.5,200.4l-1.1,0.5l-1.1-0.5h0l-0.2-1.2l0.7-0.9h1.2l0.7,0.9L316.5,200.4z"/>
				<path class="st20" d="M314.1,196.1c-0.2,0.3-0.6,0.3-0.9,0.1L310,194c1.2-1.2,2.8-2,4.4-2.2l-0.2,4.1
					C314.2,196,314.1,196.1,314.1,196.1z"/>
				<path class="st20" d="M297.5,202.7l3.1-13.5c0.1-0.7,0.6-1.3,1.3-1.6l12.5-6c0.3-0.1,0.7-0.2,1-0.2l0,0c0.3,0,0.7,0.1,1,0.2
					l12.5,6c0.6,0.3,1.1,0.9,1.3,1.6l3.1,13.5c0.1,0.4,0.1,0.7,0,1.1c-0.1,0.4-0.2,0.7-0.5,1l-8.6,10.8c-0.4,0.6-1.1,0.9-1.9,0.9
					h-13.8c-0.7,0-1.4-0.3-1.9-0.9l-8.6-10.8c-0.2-0.3-0.4-0.6-0.5-1C297.4,203.4,297.4,203.1,297.5,202.7L297.5,202.7z M302.9,203
					c0.1,0,0.1,0,0.2,0c0,0,0,0,0.1,0c0,0,0.1,0,0.1,0c0.2,0,0.3-0.1,0.4-0.2c0.1,0,0.1-0.1,0.2-0.1h0c0.5-0.2,0.9-0.3,1.3-0.4h0
					c0.1,0,0.2,0.1,0.3,0.1c0,0,0,0,0,0l0.3,0c0.2,0.8,0.6,1.5,1,2.2c0.8,1.3,1.9,2.4,3.3,3.2l-0.1,0.3c0,0,0,0,0,0
					c0,0.1,0.1,0.2,0,0.4c-0.1,0.4-0.4,0.7-0.6,1.2v0c0,0.1-0.1,0.1-0.1,0.2c-0.1,0.1-0.2,0.2-0.3,0.4c0,0,0,0.1-0.1,0.1
					c0,0,0,0,0,0c-0.1,0.2-0.1,0.4,0,0.6c0,0.2,0.2,0.3,0.4,0.4c0.1,0,0.2,0.1,0.3,0.1c0.3,0,0.6-0.2,0.7-0.5c0,0,0,0,0,0
					c0,0,0-0.1,0.1-0.1c0.1-0.1,0.1-0.3,0.1-0.4l0.1-0.2v0c0.2-0.5,0.3-0.9,0.5-1.2c0.1-0.1,0.2-0.2,0.3-0.2c0,0,0,0,0,0l0.1-0.3
					c0.4,0.1,0.8,0.3,1.3,0.4c0.7,0.2,1.4,0.2,2.1,0.2c1.2,0,2.4-0.2,3.5-0.6l0.2,0.3c0,0,0,0,0,0c0.1,0.1,0.2,0.1,0.3,0.2
					c0.2,0.3,0.3,0.7,0.5,1.2l0.1,0.2c0,0.1,0.1,0.3,0.1,0.4c0,0,0,0.1,0.1,0.1c0,0,0,0,0,0c0.1,0.3,0.4,0.5,0.7,0.5
					c0.1,0,0.2,0,0.3-0.1c0.4-0.2,0.5-0.6,0.3-1.1c0,0,0,0,0,0c0,0,0-0.1-0.1-0.1c-0.1-0.1-0.2-0.3-0.3-0.4c0-0.1-0.1-0.1-0.1-0.2v0
					c-0.3-0.4-0.5-0.8-0.6-1.2c0-0.2,0-0.3,0-0.4c0,0,0,0,0,0l-0.1-0.3c0.4-0.2,0.7-0.4,1.1-0.7c1.5-1.2,2.6-2.8,3.2-4.7l0.3,0.1
					c0,0,0,0,0,0c0.1,0,0.2-0.1,0.3-0.1h0c0.4,0,0.8,0.2,1.3,0.4h0c0.1,0,0.1,0.1,0.2,0.1c0.1,0.1,0.3,0.1,0.4,0.2c0,0,0.1,0,0.1,0
					c0,0,0,0,0,0c0.1,0,0.1,0,0.2,0c0.4,0,0.7-0.2,0.8-0.6c0.1-0.4-0.2-0.8-0.6-0.9c0,0,0,0-0.1,0c0,0-0.1,0-0.1,0
					c-0.2,0-0.3,0-0.5,0c-0.1,0-0.2,0-0.2,0h0c-0.5,0-1-0.1-1.3-0.2c-0.1-0.1-0.2-0.2-0.3-0.3c0,0,0,0,0,0l-0.3-0.1
					c0.3-2.3-0.1-4.6-1.4-6.6c0-0.1-0.1-0.1-0.1-0.2l0.2-0.2v0c0-0.1,0-0.2,0.1-0.4c0.3-0.3,0.7-0.5,1.1-0.8c0.1,0,0.1-0.1,0.2-0.1
					c0.1-0.1,0.3-0.2,0.4-0.2c0,0,0.1-0.1,0.1-0.1c0,0,0,0,0,0c0.3-0.3,0.4-0.8,0.2-1.1c-0.1-0.2-0.3-0.3-0.6-0.3
					c-0.2,0-0.4,0.1-0.5,0.2c0,0,0,0,0,0c0,0-0.1,0.1-0.1,0.1c-0.1,0.1-0.2,0.2-0.3,0.3c-0.1,0-0.1,0.1-0.2,0.2
					c-0.3,0.4-0.7,0.7-1,0.9c-0.1,0-0.1,0.1-0.2,0.1c0,0-0.1,0-0.1,0h0l-0.2,0.2c-1.3-1.4-3-2.4-4.9-2.8c-0.4-0.1-0.9-0.1-1.3-0.2
					l0-0.3l0,0c-0.1-0.1-0.2-0.1-0.2-0.3c0-0.4,0-0.8,0.1-1.3v0c0-0.1,0-0.2,0-0.2c0.1-0.2,0.1-0.3,0.1-0.5v-0.2
					c0-0.2-0.1-0.4-0.2-0.6c-0.1-0.1-0.3-0.2-0.5-0.2c-0.4,0-0.8,0.4-0.8,0.8v0.2c0,0.2,0,0.3,0.1,0.5c0,0.1,0,0.2,0,0.2v0
					c0,0.5,0.1,0.9,0.1,1.3c0,0.2-0.1,0.2-0.2,0.3l0,0l0,0.3c-1.9,0.2-3.7,0.9-5.2,2.1c-0.3,0.3-0.7,0.6-1,0.9l-0.3-0.2h0
					c0,0-0.1,0-0.1,0c-0.1,0-0.2,0-0.2-0.1c-0.3-0.2-0.6-0.5-1-0.9c-0.1,0-0.1-0.1-0.2-0.2c-0.1-0.1-0.2-0.2-0.3-0.3
					c0,0-0.1-0.1-0.1-0.1l0,0c-0.2-0.1-0.3-0.2-0.5-0.2c-0.2,0-0.4,0.1-0.6,0.3c-0.2,0.3-0.2,0.8,0.2,1.1c0,0,0,0,0,0
					c0,0,0.1,0.1,0.1,0.1c0.1,0.1,0.3,0.2,0.4,0.2c0.1,0,0.1,0.1,0.2,0.1c0.4,0.3,0.8,0.5,1.1,0.8c0.1,0.1,0.1,0.2,0.1,0.4v0
					l0.2,0.2c-0.6,1-1.1,2.1-1.4,3.3c-0.3,1.1-0.3,2.3-0.2,3.5l-0.3,0.1c0,0,0,0,0,0c0,0.1-0.1,0.2-0.3,0.3
					c-0.4,0.1-0.8,0.2-1.3,0.2h0c-0.1,0-0.2,0-0.2,0c-0.1,0-0.3,0-0.5,0c0,0-0.1,0-0.1,0c0,0,0,0,0,0h0c-0.4,0.1-0.7,0.5-0.7,0.8
					C302.3,202.8,302.6,203,302.9,203L302.9,203z"/>
				<path class="st20" d="M307.9,197.8c0.2-0.9,0.5-1.7,0.9-2.4l3,2.7c0.1,0.1,0.1,0.2,0.1,0.3c0.1,0.3-0.1,0.7-0.5,0.8l-3.8,1.1
					C307.6,199.5,307.7,198.7,307.9,197.8L307.9,197.8z"/>
				<path class="st20" d="M315.1,203.2c0.3-0.1,0.6,0,0.8,0.2l1.9,3.6c-0.8,0.2-1.6,0.4-2.5,0.4c-0.6,0-1.2-0.1-1.7-0.2
					c-0.2-0.1-0.5-0.1-0.7-0.2l1.9-3.5C314.9,203.4,315,203.3,315.1,203.2L315.1,203.2z"/>
				<path class="st20" d="M312.4,201.6c0.3,0.1,0.4,0.5,0.3,0.8l-1.6,3.8c-0.9-0.6-1.8-1.4-2.4-2.4c-0.3-0.5-0.6-1-0.7-1.5l3.9-0.7
					C312.2,201.5,312.3,201.5,312.4,201.6z"/>
			</g>
		</g>
	</g>
	<g>
		<defs>
			<rect id="SVGID_00000018948171346016724550000013502521118221671300_" x="51.3" y="254.6" width="76.5" height="26.9"/>
		</defs>
		<clipPath id="SVGID_00000154417378227239600600000004673689681991808897_">
			<use xlink:href="#SVGID_00000018948171346016724550000013502521118221671300_"  style="overflow:visible;"/>
		</clipPath>
		<g style="clip-path:url(#SVGID_00000154417378227239600600000004673689681991808897_);">
			<path class="st18" d="M96.6,267.8h-3.8c-2.7,0-3.6,2.4-3.6,3.6v10.1H93v-2.4h3.5v2.4h3.7v-10.1
				C100.2,268.5,97.5,267.8,96.6,267.8z M96.5,275.2H93v-3.3c0,0,0-0.8,1.2-0.8h1.3c1,0,1.1,0.8,1.1,0.8L96.5,275.2L96.5,275.2z"/>
			<path class="st18" d="M87.4,272.5c0-4.4-4.1-4.8-4.1-4.8h-7.4v13.8h3.7v-3.3l3.2,3.3h5.5l-4.3-4.3
				C84,277.1,87.4,276.8,87.4,272.5z M82.6,274.3h-3v-3.1h3c0,0,0.8,0.3,0.8,1.6S82.6,274.3,82.6,274.3L82.6,274.3z"/>
			<path class="st18" d="M124.2,272.9h-3.1v-1.6h6.2v-3.5h-6c-1.5,0-3.6,1.3-3.6,3.7v1.2c0,2.4,2,3.6,3.6,3.6l1.8,0
				c-0.2,0-1.1,0,1.2,0v1.7l-6.4,0v3.5h6.3c1.3,0,3.5-0.9,3.6-3.6v-1.4C127.8,274.3,126,272.9,124.2,272.9z"/>
			<path class="st18" d="M105.8,267.8h-3.9v13.7h3.9V267.8z"/>
			<path class="st18" d="M111.3,267.8h-3.9v13.7h9.2v-3.5h-5.3V267.8z"/>
			<path class="st18" d="M84.5,256.4c-0.2-0.1-0.7-0.3-1.9-0.7l-0.1,1.3c0.6,0.2,1.3,0.4,1.9,0.7L84.5,256.4z"/>
			<path class="st18" d="M94.5,266c0.3-0.3,0.7-0.5,0.7-0.5s-10-10-21.2-8.9c-5.6,0.5-12.6,5.6-16.6,12.4
				c-4.1,6.8-4.6,12.5-4.6,12.5h15.3c0,0-2.9-13.3,6.7-18.7C76.8,261.8,83.5,257.9,94.5,266z"/>
			<path class="st18" d="M60.3,263.5l-1.4-1.2c-0.5,0.5-1,1-1.4,1.4l1.5,1.3C59.4,264.5,59.9,264,60.3,263.5L60.3,263.5z"/>
			<path class="st18" d="M54.5,272.2l-2.2-0.8c-0.4,0.8-0.8,1.8-1,2.3l2.2,0.8C53.8,273.8,54.2,272.9,54.5,272.2z"/>
			<path class="st18" d="M67.6,257.8l-0.9-1.3c-0.5,0.3-1,0.5-1.5,0.8l0.9,1.4C66.7,258.3,67.1,258,67.6,257.8z"/>
			<path class="st18" d="M68.5,277.6c0,0.8,0.1,1.6,0.2,2.4l2.3,0.8c-0.2-0.8-0.3-1.6-0.5-2.5L68.5,277.6z"/>
			<path class="st18" d="M75.5,255.8h0.2l-0.4-1.2c-0.6,0-1.2,0-1.9,0.1l0.4,1.1C74.4,255.8,74.9,255.8,75.5,255.8L75.5,255.8z"/>
			<path class="st18" d="M84.5,263.2l0.1-1.2c-0.6-0.1-1.3-0.2-1.9-0.3l-0.1,1.2C83.2,263,83.8,263.1,84.5,263.2L84.5,263.2z"/>
			<path class="st18" d="M76.9,264.2c0.5-0.3,1.1-0.5,1.7-0.7l-0.4-1.3c-0.6,0.2-1.1,0.4-1.7,0.6L76.9,264.2z"/>
			<path class="st18" d="M71.6,266.5l0.9,1.4c0.3-0.5,0.7-0.9,1.1-1.4l-0.9-1.3C72.4,265.6,72,266,71.6,266.5L71.6,266.5z"/>
			<path class="st18" d="M70.8,271.7l-1.4-1.1c-0.3,0.7-0.4,1.4-0.6,2.1l1.6,1.2C70.4,273.2,70.6,272.4,70.8,271.7L70.8,271.7z"/>
		</g>
	</g>
	<g>
		<defs>
			<rect id="SVGID_00000126307307970229724350000011850161773448226953_" x="387.9" y="305.1" width="33.4" height="34.7"/>
		</defs>
		<clipPath id="SVGID_00000147919784712213666730000000834515608890313135_">
			<use xlink:href="#SVGID_00000126307307970229724350000011850161773448226953_"  style="overflow:visible;"/>
		</clipPath>
		<g style="clip-path:url(#SVGID_00000147919784712213666730000000834515608890313135_);">
			<path class="st18" d="M421.3,313c0,0,0,0.1,0,0.1v7.5c0,0.1,0,0.2-0.1,0.3c0,0.1-0.1,0.2-0.2,0.2l-6.2,3.6v7.1
				c0,0.1,0,0.2-0.1,0.3c0,0.1-0.1,0.2-0.2,0.2l-12.9,7.5c0,0-0.1,0-0.1,0c0,0,0,0,0,0c-0.1,0-0.2,0-0.3,0c0,0,0,0,0,0
				c0,0-0.1,0-0.1,0l-12.9-7.5c-0.1,0-0.2-0.1-0.2-0.2c0-0.1-0.1-0.2-0.1-0.3v-22.4c0,0,0-0.1,0-0.1c0,0,0,0,0,0c0,0,0-0.1,0-0.1
				c0,0,0,0,0,0c0,0,0,0,0-0.1c0,0,0,0,0.1,0c0,0,0,0,0.1,0l6.5-3.8c0.1,0,0.2-0.1,0.3-0.1c0.1,0,0.2,0,0.3,0.1l6.5,3.8h0
				c0,0,0.1,0.1,0.1,0.1c0,0,0,0,0,0.1c0,0,0,0,0,0c0,0,0,0.1,0,0.1c0,0,0,0,0,0c0,0,0,0.1,0,0.1v14l5.4-3.1v-7.1c0,0,0-0.1,0-0.1
				c0,0,0,0,0,0c0,0,0-0.1,0-0.1c0,0,0,0,0,0c0,0,0,0,0-0.1c0,0,0,0,0.1,0c0,0,0,0,0.1,0l6.5-3.8c0.1,0,0.2-0.1,0.3-0.1
				s0.2,0,0.3,0.1l6.5,3.8c0,0,0,0,0.1,0c0,0,0,0,0.1,0c0,0,0,0,0,0.1c0,0,0,0,0,0C421.3,312.9,421.3,312.9,421.3,313
				C421.3,312.9,421.3,313,421.3,313L421.3,313z M420.3,320.3v-6.2l-2.3,1.3l-3.1,1.8v6.2L420.3,320.3L420.3,320.3z M413.8,331.5
				v-6.2l-3.1,1.8l-8.8,5.1v6.3L413.8,331.5z M389,310.4v21.1l11.9,6.9v-6.3l-6.2-3.5l0,0l0,0c0,0-0.1-0.1-0.1-0.1l0,0
				c0,0,0,0,0-0.1c0,0,0,0,0-0.1v0c0,0,0,0,0-0.1c0,0,0,0,0-0.1c0,0,0-0.1,0-0.1c0,0,0,0,0-0.1v-14.6l-3.1-1.8L389,310.4L389,310.4z
				 M394.9,306.3l-5.4,3.1l5.4,3.1l5.4-3.1L394.9,306.3L394.9,306.3z M397.7,325.8l3.1-1.8v-13.7l-2.3,1.3l-3.1,1.8v13.7
				L397.7,325.8z M414.3,310l-5.4,3.1l5.4,3.1l5.4-3.1L414.3,310z M413.8,317.2l-3.1-1.8l-2.3-1.3v6.2l3.1,1.8l2.3,1.3V317.2z
				 M401.4,331.2l7.9-4.6l4-2.3l-5.4-3.1l-6.2,3.6l-5.6,3.3L401.4,331.2z"/>
		</g>
	</g>
</g>
</svg>
