<svg width="780" height="369" viewBox="0 0 780 369" fill="none" xmlns="http://www.w3.org/2000/svg">
<g filter="url(#filter0_d)">
<path d="M113.13 2C113.13 0.895428 114.026 0 115.13 0H644.497C645.601 0 646.497 0.89543 646.497 2V23.6499C646.497 24.7544 645.601 25.6499 644.497 25.6499H115.13C114.026 25.6499 113.13 24.7544 113.13 23.6499V2Z" fill="white"/>
<path d="M113.63 2C113.63 1.17157 114.302 0.5 115.13 0.5H644.497C645.325 0.5 645.997 1.17158 645.997 2V23.6499C645.997 24.4783 645.325 25.1499 644.497 25.1499H115.13C114.302 25.1499 113.63 24.4783 113.63 23.6499V2Z" stroke="#F1F3F5"/>
</g>
<path d="M589.07 6.40399V19.2761H593.404V17.7722H590.929V7.9079H593.356V6.40399H589.07ZM602.058 6.40399H597.779V7.9079H600.199V17.7722H597.724V19.2761H602.058V6.40399Z" fill="#2B3750"/>
<path d="M569.01 17.4163C569.44 17.4163 569.782 17.0745 569.782 16.6443C569.782 16.214 569.44 15.8722 569.01 15.8722C568.58 15.8722 568.238 16.214 568.238 16.6443C568.238 17.0745 568.58 17.4163 569.01 17.4163Z" fill="#2B3750"/>
<path d="M574.367 12.3418L574.762 11.664L573.46 10.9155L574.762 10.1552L574.373 9.48327L573.118 10.2554L573.159 8.84674H572.299L572.34 10.2495L571.079 9.48327L570.701 10.1552L571.986 10.9096L570.696 11.6581L571.073 12.3418L572.34 11.5697L572.293 12.9842H573.159L573.118 11.5697L574.367 12.3418Z" fill="#2B3750"/>
<path d="M545.596 17.3514H546.992L543.922 8.84662H542.495L539.425 17.3514H540.798L541.576 15.0528H544.818L545.596 17.3514ZM543.179 10.2611H543.215L544.482 13.9919H541.912L543.179 10.2611Z" fill="#2B3750"/>
<path d="M549.556 17.4575C550.37 17.4575 551.153 17.0213 551.513 16.3318H551.542V17.3514H552.763V13.0784C552.763 11.8348 551.802 11.0391 550.299 11.0391C548.766 11.0391 547.812 11.8643 547.741 12.9841H548.943C549.055 12.4301 549.515 12.0764 550.252 12.0764C551.03 12.0764 551.495 12.489 551.495 13.1786V13.656L549.798 13.7562C548.324 13.8387 547.493 14.5047 547.493 15.5891C547.493 16.7031 548.342 17.4575 549.556 17.4575ZM549.91 16.4496C549.226 16.4496 548.778 16.096 548.778 15.5538C548.778 15.0233 549.209 14.6874 549.969 14.6343L551.495 14.54V15.0292C551.495 15.8367 550.8 16.4496 549.91 16.4496Z" fill="#2B3750"/>
<path d="M617.829 0H644.497C645.601 0 646.497 0.89543 646.497 2V23.6499C646.497 24.7544 645.601 25.6499 644.497 25.6499H617.829V0Z" fill="#1C7CD6"/>
<path d="M630.591 7.16693C632.854 7.16693 634.678 8.99008 634.678 11.2533C634.678 12.2592 634.3 13.2022 633.672 13.8937L633.86 14.0823H634.363L637.507 17.2257L636.564 18.1687L633.42 15.0253V14.5224L633.232 14.3338C632.54 14.9625 631.597 15.3397 630.591 15.3397C628.328 15.3397 626.505 13.5165 626.505 11.2533C626.505 8.99008 628.328 7.16693 630.591 7.16693ZM630.591 8.42428C629.02 8.42428 627.762 9.68162 627.762 11.2533C627.762 12.825 629.02 14.0823 630.591 14.0823C632.163 14.0823 633.42 12.825 633.42 11.2533C633.42 9.68162 632.163 8.42428 630.591 8.42428Z" fill="#F2F4F8"/>
<path d="M630 26V82.6034H75.0002V124" stroke="#1C7CD6" stroke-opacity="0.15" stroke-width="4"/>
<path d="M266 85V124" stroke="#1C7CD6" stroke-opacity="0.15" stroke-width="4"/>
<path d="M174 85V220" stroke="#1C7CD6" stroke-opacity="0.15" stroke-width="4"/>
<path d="M199 85L199 322" stroke="#1C7CD6" stroke-opacity="0.05" stroke-width="4"/>
<path d="M259 85L259 322" stroke="#1C7CD6" stroke-opacity="0.05" stroke-width="4"/>
<path d="M353 85L353 322" stroke="#1C7CD6" stroke-opacity="0.05" stroke-width="4"/>
<path d="M449 85L449 322" stroke="#1C7CD6" stroke-opacity="0.05" stroke-width="4"/>
<path d="M412 85L412 322" stroke="#1C7CD6" stroke-opacity="0.05" stroke-width="4"/>
<path d="M497 85L497 322" stroke="#1C7CD6" stroke-opacity="0.05" stroke-width="4"/>
<path d="M553 85L553 322" stroke="#1C7CD6" stroke-opacity="0.05" stroke-width="4"/>
<path d="M604 85L604 322" stroke="#1C7CD6" stroke-opacity="0.05" stroke-width="4"/>
<path d="M519 85L519 350" stroke="#1C7CD6" stroke-opacity="0.03" stroke-width="4"/>
<path d="M440 85L440 350" stroke="#1C7CD6" stroke-opacity="0.03" stroke-width="4"/>
<path d="M302 85L302 350" stroke="#1C7CD6" stroke-opacity="0.03" stroke-width="4"/>
<path d="M363 85V220" stroke="#1C7CD6" stroke-opacity="0.15" stroke-width="4"/>
<path d="M583 85V220" stroke="#1C7CD6" stroke-opacity="0.15" stroke-width="4"/>
<path d="M466 85V124" stroke="#1C7CD6" stroke-opacity="0.15" stroke-width="4"/>
<path d="M636 26V82.6034H693V124" stroke="#1C7CD6" stroke-opacity="0.15" stroke-width="4"/>
<path fill-rule="evenodd" clip-rule="evenodd" d="M715.746 149.49L694.664 128.405C694.081 127.822 693.29 127.495 692.466 127.495C691.642 127.495 690.851 127.822 690.268 128.405L685.891 132.787L691.444 138.339C692.098 138.117 692.802 138.083 693.475 138.242C694.148 138.4 694.763 138.744 695.25 139.234C695.737 139.725 696.077 140.342 696.231 141.016C696.385 141.69 696.346 142.393 696.12 143.047L701.472 148.399C702.271 148.124 703.141 148.131 703.936 148.42C704.731 148.709 705.403 149.261 705.84 149.985C706.277 150.709 706.453 151.561 706.338 152.399C706.223 153.237 705.824 154.01 705.208 154.589C704.593 155.169 703.797 155.52 702.954 155.584C702.11 155.648 701.271 155.421 700.574 154.941C699.878 154.461 699.368 153.757 699.128 152.946C698.888 152.135 698.933 151.266 699.256 150.485L694.263 145.492V158.627C695.022 159.003 695.629 159.627 695.983 160.395C696.337 161.164 696.417 162.031 696.21 162.851C696.003 163.672 695.52 164.396 694.843 164.904C694.166 165.412 693.336 165.673 692.49 165.643C691.644 165.613 690.834 165.293 690.195 164.738C689.556 164.183 689.127 163.426 688.979 162.593C688.83 161.76 688.972 160.901 689.38 160.159C689.788 159.418 690.438 158.839 691.222 158.519V145.265C690.77 145.08 690.359 144.807 690.013 144.463C689.668 144.118 689.393 143.709 689.207 143.257C689.02 142.806 688.924 142.323 688.926 141.834C688.927 141.346 689.024 140.863 689.213 140.413L683.741 134.935L669.285 149.389C668.702 149.972 668.375 150.763 668.375 151.588C668.375 152.413 668.702 153.204 669.285 153.787L690.367 174.867C690.95 175.45 691.741 175.777 692.565 175.777C693.389 175.777 694.18 175.45 694.763 174.867L715.746 153.884C716.035 153.595 716.264 153.252 716.42 152.875C716.577 152.497 716.657 152.093 716.657 151.684C716.657 151.276 716.577 150.871 716.42 150.494C716.264 150.117 716.035 149.774 715.746 149.485" fill="#1C7CD6"/>
<path d="M84.029 159.488C81.9978 159.488 80.3513 161.771 80.3513 164.578C80.3513 167.39 81.9978 169.673 84.029 169.673C86.0603 169.673 87.7067 167.39 87.7067 164.578C87.7039 161.771 86.0603 159.488 84.029 159.488ZM96.8332 146.24C97.2547 145.207 97.2717 139.34 95.0368 133.719C95.0368 133.719 89.9134 134.282 82.1619 139.603C80.5352 139.15 77.7825 138.93 75.0355 138.93C72.2829 138.93 69.5331 139.15 67.9064 139.603C60.152 134.282 55.0286 133.719 55.0286 133.719C52.7965 139.34 52.8191 145.207 53.235 146.24C50.6097 149.092 49.0056 152.518 49.0056 157.191C49.0056 177.521 65.8751 177.846 70.13 177.846L75.0355 177.852L79.9354 177.846C84.1959 177.846 101.06 177.521 101.06 157.191C101.06 152.518 99.4585 149.092 96.8332 146.24ZM75.1119 175.348H74.9535C64.2852 175.348 55.9735 174.078 55.9735 163.706C55.9735 161.22 56.8505 158.917 58.9355 157.004C62.4067 153.816 68.2855 155.502 74.9535 155.502H75.1119C81.7799 155.502 87.6615 153.816 91.1355 157.004C93.2149 158.917 94.0919 161.22 94.0919 163.706C94.0919 174.078 85.783 175.348 75.1119 175.348ZM66.0392 159.488C64.008 159.488 62.3615 161.771 62.3615 164.578C62.3615 167.39 64.008 169.673 66.0392 169.673C68.0733 169.673 69.7198 167.39 69.7198 164.578C69.7198 161.771 68.0733 159.488 66.0392 159.488Z" fill="#1C7CD6"/>
<path d="M293.334 155.099L290.427 146.073L284.649 128.187C284.585 127.986 284.46 127.811 284.291 127.687C284.122 127.563 283.918 127.496 283.709 127.496C283.499 127.496 283.296 127.563 283.127 127.687C282.958 127.811 282.832 127.986 282.768 128.187L276.99 146.065H257.826L252.048 128.187C251.75 127.264 250.455 127.264 250.167 128.187L244.389 146.065L241.474 155.099C241.212 155.918 241.508 156.822 242.195 157.333L267.409 175.777L292.623 157.333C293.308 156.822 293.606 155.927 293.334 155.099Z" fill="#1C7CD6"/>
<path d="M490.448 127.52C490.357 127.506 490.265 127.498 490.172 127.495H441.481C440.549 127.482 439.803 128.237 439.79 129.193C439.786 129.294 439.794 129.395 439.815 129.494L446.896 173.816C446.985 174.352 447.252 174.844 447.656 175.211C448.055 175.575 448.578 175.777 449.12 175.777H483.079C483.486 175.778 483.878 175.631 484.184 175.365C484.491 175.099 484.689 174.731 484.742 174.331L488.959 147.613H473.32L471.318 159.683H460.309L457.519 143.733H489.573L491.824 129.507C491.962 128.564 491.349 127.671 490.448 127.52Z" fill="#1C7CD6"/>
<path d="M128.881 14.627C128.881 13.2793 129.574 12.4688 130.746 12.4688C131.034 12.4688 131.376 12.5273 131.62 12.6152V11.6826C131.444 11.6094 131.156 11.5654 130.854 11.5654C129.833 11.5654 129.174 12.0732 128.979 13.0547H128.871V11.7021H126.894V12.3662H128.07V16.3359H127.001V17H130.521V16.3359H128.881V14.627ZM136.703 15.6328C136.557 16.0967 136.063 16.3799 135.395 16.3799C134.491 16.3799 133.915 15.7549 133.915 14.7832V14.5684H137.523V14.0508C137.523 12.5176 136.713 11.6045 135.336 11.6045C133.988 11.6045 133.095 12.5225 133.095 13.9189V14.7148C133.095 16.2236 133.939 17.0977 135.395 17.0977C136.508 17.0977 137.348 16.5068 137.509 15.6328H136.703ZM135.331 12.3174C136.186 12.3174 136.703 12.9277 136.703 13.9385H133.915C133.915 12.9229 134.447 12.3174 135.331 12.3174ZM141.786 11.6143C141.029 11.6143 140.478 11.9268 140.199 12.5127H140.111V11.7021H139.291V18.7871H140.136V16.1797H140.229C140.458 16.7607 141.02 17.0879 141.786 17.0879C143.012 17.0879 143.812 16.2041 143.812 14.8467V13.8604C143.812 12.498 143.012 11.6143 141.786 11.6143ZM141.547 12.376C142.421 12.376 142.978 13.001 142.978 13.9775V14.7393C142.978 15.7158 142.421 16.3457 141.547 16.3457C140.673 16.3457 140.116 15.7207 140.116 14.7393V13.9775C140.116 13.001 140.673 12.376 141.547 12.376ZM147.636 17.0977C149.037 17.0977 149.931 16.1846 149.931 14.7539V13.9531C149.931 12.5225 149.037 11.6094 147.636 11.6094C146.234 11.6094 145.341 12.5225 145.341 13.9531V14.7539C145.341 16.1846 146.234 17.0977 147.636 17.0977ZM147.636 12.3418C148.544 12.3418 149.11 12.9863 149.11 14.0264V14.6758C149.11 15.7207 148.544 16.3604 147.636 16.3604C146.728 16.3604 146.161 15.7207 146.161 14.6758V14.0264C146.161 12.9863 146.728 12.3418 147.636 12.3418ZM153.817 13.2793C154.301 13.2793 154.701 12.8691 154.701 12.376C154.701 11.8828 154.301 11.4727 153.817 11.4727C153.334 11.4727 152.934 11.8828 152.934 12.376C152.934 12.8691 153.334 13.2793 153.817 13.2793ZM153.817 17.0293C154.301 17.0293 154.701 16.624 154.701 16.126C154.701 15.6328 154.301 15.2275 153.817 15.2275C153.334 15.2275 152.934 15.6328 152.934 16.126C152.934 16.624 153.334 17.0293 153.817 17.0293Z" fill="#1C7CD6"/>
<path d="M159.955 10.7744H160.038L161.156 13.5576H161.972L160.458 9.9541H159.54L158.021 13.5576H158.842L159.955 10.7744ZM164.252 13.1328C164.252 13.8848 164.726 14.3682 165.683 14.5879L166.469 14.7686C167.143 14.9199 167.401 15.1445 167.401 15.5645C167.401 16.0723 166.942 16.3994 166.22 16.3994C165.536 16.3994 165.067 16.1162 164.945 15.6279H164.101C164.193 16.5361 164.989 17.0977 166.19 17.0977C167.445 17.0977 168.261 16.4629 168.261 15.4863C168.261 14.7197 167.792 14.2705 166.762 14.0361L166.015 13.8652C165.351 13.7188 165.077 13.4893 165.077 13.084C165.077 12.6006 165.512 12.2881 166.186 12.2881C166.806 12.2881 167.25 12.5713 167.348 13.0352H168.148C168.051 12.1514 167.304 11.5996 166.2 11.5996C165.033 11.5996 164.252 12.2148 164.252 13.1328ZM172.362 17.0977C173.764 17.0977 174.657 16.1846 174.657 14.7539V13.9531C174.657 12.5225 173.764 11.6094 172.362 11.6094C170.961 11.6094 170.067 12.5225 170.067 13.9531V14.7539C170.067 16.1846 170.961 17.0977 172.362 17.0977ZM172.362 12.3418C173.271 12.3418 173.837 12.9863 173.837 14.0264V14.6758C173.837 15.7207 173.271 16.3604 172.362 16.3604C171.454 16.3604 170.888 15.7207 170.888 14.6758V14.0264C170.888 12.9863 171.454 12.3418 172.362 12.3418ZM180.712 11.7021H179.882V14.8223C179.882 15.7256 179.296 16.3359 178.422 16.3359C177.597 16.3359 177.206 15.8867 177.206 14.9297V11.7021H176.376V15.1396C176.376 16.4092 177.001 17.0977 178.153 17.0977C178.959 17.0977 179.564 16.7266 179.848 16.0674H179.916V17H180.712V11.7021ZM184.516 14.627C184.516 13.2793 185.209 12.4688 186.381 12.4688C186.669 12.4688 187.011 12.5273 187.255 12.6152V11.6826C187.079 11.6094 186.791 11.5654 186.488 11.5654C185.468 11.5654 184.809 12.0732 184.613 13.0547H184.506V11.7021H182.528V12.3662H183.705V16.3359H182.636V17H186.156V16.3359H184.516V14.627ZM193.114 13.3525C192.978 12.2637 192.177 11.5996 191.005 11.5996C189.564 11.5996 188.725 12.4834 188.725 14.002V14.6953C188.725 16.2139 189.564 17.0977 191.005 17.0977C192.177 17.0977 192.982 16.4385 193.114 15.3594H192.294C192.191 15.9648 191.674 16.3506 190.99 16.3506C190.067 16.3506 189.555 15.7256 189.555 14.5879V14.1094C189.555 12.9717 190.067 12.3418 190.99 12.3418C191.674 12.3418 192.191 12.7324 192.294 13.3525H193.114ZM198.52 15.6328C198.373 16.0967 197.88 16.3799 197.211 16.3799C196.308 16.3799 195.731 15.7549 195.731 14.7832V14.5684H199.34V14.0508C199.34 12.5176 198.529 11.6045 197.152 11.6045C195.805 11.6045 194.911 12.5225 194.911 13.9189V14.7148C194.911 16.2236 195.756 17.0977 197.211 17.0977C198.324 17.0977 199.164 16.5068 199.325 15.6328H198.52ZM197.147 12.3174C198.002 12.3174 198.52 12.9277 198.52 13.9385H195.731C195.731 12.9229 196.264 12.3174 197.147 12.3174ZM203.114 18.9873C204.55 18.9873 205.399 18.2451 205.399 17V11.7021H204.579V12.5225H204.486C204.257 11.9512 203.676 11.6143 202.909 11.6143C201.669 11.6143 200.858 12.4932 200.858 13.8555V14.8076C200.858 16.165 201.664 17.0488 202.89 17.0488C203.661 17.0488 204.247 16.7119 204.481 16.1553H204.569V16.9805C204.569 17.8301 204.057 18.2988 203.129 18.2988C202.421 18.2988 201.889 18.0107 201.781 17.5713H200.961C201.068 18.4502 201.889 18.9873 203.114 18.9873ZM201.693 14.6904V13.9629C201.693 12.9912 202.26 12.3613 203.139 12.3613C204.013 12.3613 204.574 12.9863 204.574 13.9629V14.6904C204.574 15.667 204.013 16.2969 203.139 16.2969C202.26 16.2969 201.693 15.6621 201.693 14.6904ZM209.242 14.627C209.242 13.2793 209.936 12.4688 211.107 12.4688C211.396 12.4688 211.737 12.5273 211.981 12.6152V11.6826C211.806 11.6094 211.518 11.5654 211.215 11.5654C210.194 11.5654 209.535 12.0732 209.34 13.0547H209.232V11.7021H207.255V12.3662H208.432V16.3359H207.362V17H210.883V16.3359H209.242V14.627ZM215.097 17.0928C215.868 17.0928 216.444 16.7754 216.698 16.209H216.781V17.0049H217.572V13.377C217.572 12.2734 216.859 11.6387 215.614 11.6387C214.53 11.6387 213.71 12.2197 213.612 13.0693H214.428C214.564 12.6152 214.994 12.3564 215.604 12.3564C216.342 12.3564 216.747 12.7227 216.747 13.3867V13.8652L215.292 13.9385C214.086 14.002 213.412 14.5586 213.412 15.4961C213.412 16.458 214.086 17.0928 215.097 17.0928ZM215.336 16.3652C214.667 16.3652 214.252 16.0234 214.252 15.4668C214.252 14.915 214.643 14.5977 215.385 14.5635L216.747 14.5V15.125C216.747 15.833 216.137 16.3652 215.336 16.3652ZM222.147 11.6143C221.391 11.6143 220.839 11.9268 220.561 12.5127H220.473V11.7021H219.652V18.7871H220.497V16.1797H220.59C220.819 16.7607 221.381 17.0879 222.147 17.0879C223.373 17.0879 224.174 16.2041 224.174 14.8467V13.8604C224.174 12.498 223.373 11.6143 222.147 11.6143ZM221.908 12.376C222.782 12.376 223.339 13.001 223.339 13.9775V14.7393C223.339 15.7158 222.782 16.3457 221.908 16.3457C221.034 16.3457 220.478 15.7207 220.478 14.7393V13.9775C220.478 13.001 221.034 12.376 221.908 12.376ZM225.824 17H226.654V13.8848C226.654 12.9814 227.245 12.3711 228.119 12.3711C228.949 12.3711 229.34 12.8252 229.34 13.7773V17H230.17V13.5674C230.17 12.3027 229.545 11.6094 228.393 11.6094C227.582 11.6094 226.972 11.9805 226.693 12.6396H226.625V9.62207H225.824V17ZM232.865 17.6689L236.303 9.28516H235.487L232.055 17.6689H232.865ZM238.432 13.1328C238.432 13.8848 238.905 14.3682 239.862 14.5879L240.648 14.7686C241.322 14.9199 241.581 15.1445 241.581 15.5645C241.581 16.0723 241.122 16.3994 240.399 16.3994C239.716 16.3994 239.247 16.1162 239.125 15.6279H238.28C238.373 16.5361 239.169 17.0977 240.37 17.0977C241.625 17.0977 242.44 16.4629 242.44 15.4863C242.44 14.7197 241.972 14.2705 240.941 14.0361L240.194 13.8652C239.53 13.7188 239.257 13.4893 239.257 13.084C239.257 12.6006 239.691 12.2881 240.365 12.2881C240.985 12.2881 241.43 12.5713 241.527 13.0352H242.328C242.23 12.1514 241.483 11.5996 240.38 11.5996C239.213 11.5996 238.432 12.2148 238.432 13.1328ZM246.542 17.0977C247.943 17.0977 248.837 16.1846 248.837 14.7539V13.9531C248.837 12.5225 247.943 11.6094 246.542 11.6094C245.141 11.6094 244.247 12.5225 244.247 13.9531V14.7539C244.247 16.1846 245.141 17.0977 246.542 17.0977ZM246.542 12.3418C247.45 12.3418 248.017 12.9863 248.017 14.0264V14.6758C248.017 15.7207 247.45 16.3604 246.542 16.3604C245.634 16.3604 245.067 15.7207 245.067 14.6758V14.0264C245.067 12.9863 245.634 12.3418 246.542 12.3418ZM254.892 11.7021H254.062V14.8223C254.062 15.7256 253.476 16.3359 252.602 16.3359C251.776 16.3359 251.386 15.8867 251.386 14.9297V11.7021H250.556V15.1396C250.556 16.4092 251.181 17.0977 252.333 17.0977C253.139 17.0977 253.744 16.7266 254.027 16.0674H254.096V17H254.892V11.7021ZM258.695 14.627C258.695 13.2793 259.389 12.4688 260.561 12.4688C260.849 12.4688 261.19 12.5273 261.435 12.6152V11.6826C261.259 11.6094 260.971 11.5654 260.668 11.5654C259.647 11.5654 258.988 12.0732 258.793 13.0547H258.686V11.7021H256.708V12.3662H257.885V16.3359H256.815V17H260.336V16.3359H258.695V14.627ZM267.294 13.3525C267.157 12.2637 266.356 11.5996 265.185 11.5996C263.744 11.5996 262.904 12.4834 262.904 14.002V14.6953C262.904 16.2139 263.744 17.0977 265.185 17.0977C266.356 17.0977 267.162 16.4385 267.294 15.3594H266.474C266.371 15.9648 265.854 16.3506 265.17 16.3506C264.247 16.3506 263.734 15.7256 263.734 14.5879V14.1094C263.734 12.9717 264.247 12.3418 265.17 12.3418C265.854 12.3418 266.371 12.7324 266.474 13.3525H267.294ZM272.699 15.6328C272.553 16.0967 272.06 16.3799 271.391 16.3799C270.487 16.3799 269.911 15.7549 269.911 14.7832V14.5684H273.52V14.0508C273.52 12.5176 272.709 11.6045 271.332 11.6045C269.984 11.6045 269.091 12.5225 269.091 13.9189V14.7148C269.091 16.2236 269.936 17.0977 271.391 17.0977C272.504 17.0977 273.344 16.5068 273.505 15.6328H272.699ZM271.327 12.3174C272.182 12.3174 272.699 12.9277 272.699 13.9385H269.911C269.911 12.9229 270.443 12.3174 271.327 12.3174ZM277.294 18.9873C278.729 18.9873 279.579 18.2451 279.579 17V11.7021H278.759V12.5225H278.666C278.437 11.9512 277.855 11.6143 277.089 11.6143C275.849 11.6143 275.038 12.4932 275.038 13.8555V14.8076C275.038 16.165 275.844 17.0488 277.069 17.0488C277.841 17.0488 278.427 16.7119 278.661 16.1553H278.749V16.9805C278.749 17.8301 278.236 18.2988 277.309 18.2988C276.601 18.2988 276.068 18.0107 275.961 17.5713H275.141C275.248 18.4502 276.068 18.9873 277.294 18.9873ZM275.873 14.6904V13.9629C275.873 12.9912 276.439 12.3613 277.318 12.3613C278.192 12.3613 278.754 12.9863 278.754 13.9629V14.6904C278.754 15.667 278.192 16.2969 277.318 16.2969C276.439 16.2969 275.873 15.6621 275.873 14.6904ZM283.422 14.627C283.422 13.2793 284.115 12.4688 285.287 12.4688C285.575 12.4688 285.917 12.5273 286.161 12.6152V11.6826C285.985 11.6094 285.697 11.5654 285.395 11.5654C284.374 11.5654 283.715 12.0732 283.52 13.0547H283.412V11.7021H281.435V12.3662H282.611V16.3359H281.542V17H285.062V16.3359H283.422V14.627ZM289.276 17.0928C290.048 17.0928 290.624 16.7754 290.878 16.209H290.961V17.0049H291.752V13.377C291.752 12.2734 291.039 11.6387 289.794 11.6387C288.71 11.6387 287.89 12.2197 287.792 13.0693H288.607C288.744 12.6152 289.174 12.3564 289.784 12.3564C290.521 12.3564 290.927 12.7227 290.927 13.3867V13.8652L289.472 13.9385C288.266 14.002 287.592 14.5586 287.592 15.4961C287.592 16.458 288.266 17.0928 289.276 17.0928ZM289.516 16.3652C288.847 16.3652 288.432 16.0234 288.432 15.4668C288.432 14.915 288.822 14.5977 289.564 14.5635L290.927 14.5V15.125C290.927 15.833 290.316 16.3652 289.516 16.3652ZM296.327 11.6143C295.57 11.6143 295.019 11.9268 294.74 12.5127H294.652V11.7021H293.832V18.7871H294.677V16.1797H294.77C294.999 16.7607 295.561 17.0879 296.327 17.0879C297.553 17.0879 298.354 16.2041 298.354 14.8467V13.8604C298.354 12.498 297.553 11.6143 296.327 11.6143ZM296.088 12.376C296.962 12.376 297.519 13.001 297.519 13.9775V14.7393C297.519 15.7158 296.962 16.3457 296.088 16.3457C295.214 16.3457 294.657 15.7207 294.657 14.7393V13.9775C294.657 13.001 295.214 12.376 296.088 12.376ZM300.004 17H300.834V13.8848C300.834 12.9814 301.425 12.3711 302.299 12.3711C303.129 12.3711 303.52 12.8252 303.52 13.7773V17H304.35V13.5674C304.35 12.3027 303.725 11.6094 302.572 11.6094C301.762 11.6094 301.151 11.9805 300.873 12.6396H300.805V9.62207H300.004V17ZM305.937 15.1396C306.01 16.2969 306.85 17.0488 308.144 17.1465V17.6885H308.725V17.1416C310.028 17.0391 310.858 16.2578 310.858 15.0957C310.858 14.0459 310.287 13.4648 308.886 13.1182L308.725 13.0742V10.54C309.418 10.6377 309.882 11.0723 309.965 11.7266H310.736C310.678 10.6523 309.892 9.91992 308.725 9.8125V9.26562H308.144V9.8125C306.903 9.91016 306.112 10.6572 306.112 11.7607C306.112 12.7764 306.713 13.3867 308.041 13.7139L308.144 13.7383V16.4141C307.343 16.3213 306.796 15.8428 306.718 15.1396H305.937ZM306.913 11.7363C306.913 11.0674 307.377 10.623 308.144 10.54V12.9277C307.26 12.6787 306.913 12.3418 306.913 11.7363ZM310.062 15.1348C310.062 15.8281 309.53 16.3213 308.725 16.4141V13.8848C309.667 14.1289 310.062 14.5 310.062 15.1348ZM357.655 18.9873C359.091 18.9873 359.94 18.2451 359.94 17V11.7021H359.12V12.5225H359.027C358.798 11.9512 358.217 11.6143 357.45 11.6143C356.21 11.6143 355.399 12.4932 355.399 13.8555V14.8076C355.399 16.165 356.205 17.0488 357.431 17.0488C358.202 17.0488 358.788 16.7119 359.022 16.1553H359.11V16.9805C359.11 17.8301 358.598 18.2988 357.67 18.2988C356.962 18.2988 356.43 18.0107 356.322 17.5713H355.502C355.609 18.4502 356.43 18.9873 357.655 18.9873ZM356.234 14.6904V13.9629C356.234 12.9912 356.801 12.3613 357.68 12.3613C358.554 12.3613 359.115 12.9863 359.115 13.9629V14.6904C359.115 15.667 358.554 16.2969 357.68 16.2969C356.801 16.2969 356.234 15.6621 356.234 14.6904ZM363.993 17.0977C365.395 17.0977 366.288 16.1846 366.288 14.7539V13.9531C366.288 12.5225 365.395 11.6094 363.993 11.6094C362.592 11.6094 361.698 12.5225 361.698 13.9531V14.7539C361.698 16.1846 362.592 17.0977 363.993 17.0977ZM363.993 12.3418C364.901 12.3418 365.468 12.9863 365.468 14.0264V14.6758C365.468 15.7207 364.901 16.3604 363.993 16.3604C363.085 16.3604 362.519 15.7207 362.519 14.6758V14.0264C362.519 12.9863 363.085 12.3418 363.993 12.3418ZM375.819 17.0928C376.591 17.0928 377.167 16.7754 377.421 16.209H377.504V17.0049H378.295V13.377C378.295 12.2734 377.582 11.6387 376.337 11.6387C375.253 11.6387 374.433 12.2197 374.335 13.0693H375.15C375.287 12.6152 375.717 12.3564 376.327 12.3564C377.064 12.3564 377.47 12.7227 377.47 13.3867V13.8652L376.015 13.9385C374.809 14.002 374.135 14.5586 374.135 15.4961C374.135 16.458 374.809 17.0928 375.819 17.0928ZM376.059 16.3652C375.39 16.3652 374.975 16.0234 374.975 15.4668C374.975 14.915 375.365 14.5977 376.107 14.5635L377.47 14.5V15.125C377.47 15.833 376.859 16.3652 376.059 16.3652ZM384.706 11.7021H383.876V14.8223C383.876 15.7256 383.29 16.3359 382.416 16.3359C381.591 16.3359 381.2 15.8867 381.2 14.9297V11.7021H380.37V15.1396C380.37 16.4092 380.995 17.0977 382.147 17.0977C382.953 17.0977 383.559 16.7266 383.842 16.0674H383.91V17H384.706V11.7021ZM387.816 10.2812V11.7168H386.405V12.4248H387.816V15.4229C387.816 16.5264 388.427 17.0244 389.74 17.0244C389.994 17.0244 390.639 17 390.771 16.9756V16.2725C390.629 16.2871 390.097 16.3018 389.799 16.3018C389.052 16.3018 388.646 15.9893 388.646 15.4131V12.4248H390.785V11.7168H388.637V10.2812H387.816ZM392.729 17H393.559V13.8848C393.559 12.9814 394.149 12.3711 395.023 12.3711C395.854 12.3711 396.244 12.8252 396.244 13.7773V17H397.074V13.5674C397.074 12.3027 396.449 11.6094 395.297 11.6094C394.486 11.6094 393.876 11.9805 393.598 12.6396H393.529V9.62207H392.729V17ZM400.019 13.4746C400.019 15.1348 400.517 16.5703 401.488 17.6738H402.313C401.303 16.2529 400.878 15.0078 400.878 13.4746C400.878 11.9414 401.303 10.6963 402.313 9.27539H401.488C400.517 10.3789 400.019 11.8193 400.019 13.4746ZM407.265 13.2793C407.748 13.2793 408.148 12.8691 408.148 12.376C408.148 11.8828 407.748 11.4727 407.265 11.4727C406.781 11.4727 406.381 11.8828 406.381 12.376C406.381 12.8691 406.781 13.2793 407.265 13.2793ZM407.265 17.0293C407.748 17.0293 408.148 16.624 408.148 16.126C408.148 15.6328 407.748 15.2275 407.265 15.2275C406.781 15.2275 406.381 15.6328 406.381 16.126C406.381 16.624 406.781 17.0293 407.265 17.0293ZM412.177 9.28516V17.6689H414.76V17H412.982V9.9541H414.75V9.28516H412.177ZM419.091 17.0928C419.862 17.0928 420.438 16.7754 420.692 16.209H420.775V17.0049H421.566V13.377C421.566 12.2734 420.854 11.6387 419.608 11.6387C418.524 11.6387 417.704 12.2197 417.606 13.0693H418.422C418.559 12.6152 418.988 12.3564 419.599 12.3564C420.336 12.3564 420.741 12.7227 420.741 13.3867V13.8652L419.286 13.9385C418.08 14.002 417.406 14.5586 417.406 15.4961C417.406 16.458 418.08 17.0928 419.091 17.0928ZM419.33 16.3652C418.661 16.3652 418.246 16.0234 418.246 15.4668C418.246 14.915 418.637 14.5977 419.379 14.5635L420.741 14.5V15.125C420.741 15.833 420.131 16.3652 419.33 16.3652ZM425.6 14.627C425.6 13.2793 426.293 12.4688 427.465 12.4688C427.753 12.4688 428.095 12.5273 428.339 12.6152V11.6826C428.163 11.6094 427.875 11.5654 427.572 11.5654C426.552 11.5654 425.893 12.0732 425.697 13.0547H425.59V11.7021H423.612V12.3662H424.789V16.3359H423.72V17H427.24V16.3359H425.6V14.627ZM431.835 18.9873C433.271 18.9873 434.12 18.2451 434.12 17V11.7021H433.3V12.5225H433.207C432.978 11.9512 432.396 11.6143 431.63 11.6143C430.39 11.6143 429.579 12.4932 429.579 13.8555V14.8076C429.579 16.165 430.385 17.0488 431.61 17.0488C432.382 17.0488 432.968 16.7119 433.202 16.1553H433.29V16.9805C433.29 17.8301 432.777 18.2988 431.85 18.2988C431.142 18.2988 430.609 18.0107 430.502 17.5713H429.682C429.789 18.4502 430.609 18.9873 431.835 18.9873ZM430.414 14.6904V13.9629C430.414 12.9912 430.98 12.3613 431.859 12.3613C432.733 12.3613 433.295 12.9863 433.295 13.9629V14.6904C433.295 15.667 432.733 16.2969 431.859 16.2969C430.98 16.2969 430.414 15.6621 430.414 14.6904ZM439.486 9.28516H436.913V9.9541H438.676V17H436.903V17.6689H439.486V9.28516ZM445.419 13.4746C445.419 11.8193 444.921 10.3789 443.949 9.27539H443.124C444.135 10.6963 444.56 11.9414 444.56 13.4746C444.56 15.0078 444.135 16.2529 443.124 17.6738H443.949C444.921 16.5703 445.419 15.1348 445.419 13.4746Z" fill="#2B3750"/>
<path d="M329.218 17V16.3115H327.47V9.62207H324.843V10.3105H326.64V16.3115H324.828V17H329.218ZM332.548 17.0928C333.319 17.0928 333.896 16.7754 334.149 16.209H334.232V17.0049H335.023V13.377C335.023 12.2734 334.311 11.6387 333.065 11.6387C331.981 11.6387 331.161 12.2197 331.063 13.0693H331.879C332.016 12.6152 332.445 12.3564 333.056 12.3564C333.793 12.3564 334.198 12.7227 334.198 13.3867V13.8652L332.743 13.9385C331.537 14.002 330.863 14.5586 330.863 15.4961C330.863 16.458 331.537 17.0928 332.548 17.0928ZM332.787 16.3652C332.118 16.3652 331.703 16.0234 331.703 15.4668C331.703 14.915 332.094 14.5977 332.836 14.5635L334.198 14.5V15.125C334.198 15.833 333.588 16.3652 332.787 16.3652ZM337.099 17H337.929V13.8799C337.929 12.9766 338.515 12.3662 339.389 12.3662C340.214 12.3662 340.604 12.8154 340.604 13.7725V17H341.435V13.5625C341.435 12.293 340.81 11.6045 339.657 11.6045C338.852 11.6045 338.246 11.9756 337.963 12.6348H337.895V11.7021H337.099V17ZM345.292 18.9873C346.728 18.9873 347.577 18.2451 347.577 17V11.7021H346.757V12.5225H346.664C346.435 11.9512 345.854 11.6143 345.087 11.6143C343.847 11.6143 343.036 12.4932 343.036 13.8555V14.8076C343.036 16.165 343.842 17.0488 345.067 17.0488C345.839 17.0488 346.425 16.7119 346.659 16.1553H346.747V16.9805C346.747 17.8301 346.234 18.2988 345.307 18.2988C344.599 18.2988 344.066 18.0107 343.959 17.5713H343.139C343.246 18.4502 344.066 18.9873 345.292 18.9873ZM343.871 14.6904V13.9629C343.871 12.9912 344.438 12.3613 345.316 12.3613C346.19 12.3613 346.752 12.9863 346.752 13.9629V14.6904C346.752 15.667 346.19 16.2969 345.316 16.2969C344.438 16.2969 343.871 15.6621 343.871 14.6904ZM351.63 13.2793C352.113 13.2793 352.514 12.8691 352.514 12.376C352.514 11.8828 352.113 11.4727 351.63 11.4727C351.146 11.4727 350.746 11.8828 350.746 12.376C350.746 12.8691 351.146 13.2793 351.63 13.2793ZM351.63 17.0293C352.113 17.0293 352.514 16.624 352.514 16.126C352.514 15.6328 352.113 15.2275 351.63 15.2275C351.146 15.2275 350.746 15.6328 350.746 16.126C350.746 16.624 351.146 17.0293 351.63 17.0293Z" fill="#388CDB"/>
<g clip-path="url(#clip0)">
<path d="M179.468 253.691L179.456 252.218C179.456 252.218 181.906 249.975 181.839 249.817L180.766 247.551C180.698 247.393 177.435 247.495 177.435 247.495L176.374 246.441C176.374 246.441 176.397 243.213 176.239 243.145L173.969 242.102C173.811 242.034 171.632 244.481 171.632 244.481L170.153 244.459C170.153 244.459 167.839 242.034 167.681 242.102L165.422 243.043C165.264 243.099 165.445 246.316 165.445 246.316L164.418 247.347C164.418 247.347 161.121 247.245 161.064 247.393L160.15 249.636C160.082 249.794 162.521 252.014 162.521 252.014L162.532 253.476C162.532 253.476 160.082 255.719 160.15 255.877L161.222 258.143C161.29 258.302 164.553 258.2 164.553 258.2L165.614 259.253C165.614 259.253 165.592 262.855 165.75 262.912L168.019 263.852C168.177 263.92 170.356 261.19 170.356 261.19L171.835 261.213C171.835 261.213 174.15 263.909 174.297 263.852L176.555 263.003C176.713 262.935 176.532 259.366 176.532 259.366L177.56 258.336C177.56 258.336 180.856 258.438 180.913 258.279L181.827 256.036C181.906 255.911 179.468 253.691 179.468 253.691ZM174.398 252.705C174.477 254.643 172.953 256.285 171 256.376C169.047 256.466 167.376 254.96 167.297 253.023C167.218 251.086 168.742 249.443 170.695 249.364C172.648 249.273 174.319 250.78 174.398 252.705ZM197.114 248.412L186.163 237.424L186.152 237.435C177.672 229.132 164.09 229.188 155.69 237.616C149.943 243.394 152.552 240.777 144.885 248.412C142.368 250.938 142.368 255.062 144.885 257.588C152.777 265.45 150.124 262.799 155.882 268.576L155.893 268.565C164.372 276.868 177.955 276.823 186.355 268.384C192.113 262.618 189.505 265.223 197.114 257.588C199.632 255.062 199.632 250.938 197.114 248.412ZM158.852 265.212C152.122 258.471 152.122 247.54 158.852 240.8C165.569 234.048 176.464 234.059 183.193 240.8C189.911 247.54 189.922 258.471 183.193 265.223C176.464 271.963 165.581 271.952 158.852 265.212Z" fill="#1C7CD6"/>
</g>
<path d="M351.215 255.579C351.215 256.247 351.294 256.784 351.417 257.179C351.557 257.573 351.743 258.005 351.989 258.471C352.072 258.593 352.118 258.737 352.121 258.885C352.121 259.069 352.006 259.246 351.778 259.43L350.644 260.177C350.51 260.279 350.347 260.338 350.178 260.344C349.995 260.344 349.817 260.257 349.642 260.089C349.396 259.832 349.179 259.549 348.992 259.246C348.79 258.904 348.605 258.552 348.439 258.191C347.033 259.843 345.275 260.67 343.157 260.67C341.645 260.67 340.442 260.24 339.562 259.377C338.683 258.507 338.236 257.364 338.236 255.923C338.236 254.403 338.773 253.154 339.871 252.222C340.97 251.291 342.419 250.825 344.274 250.825C344.88 250.825 345.513 250.877 346.172 250.965C346.841 251.053 347.526 251.203 348.238 251.36V250.051C348.238 248.689 347.956 247.73 347.394 247.177C346.822 246.623 345.857 246.35 344.468 246.35C343.844 246.35 343.194 246.421 342.526 246.578C341.868 246.738 341.221 246.944 340.592 247.194C340.381 247.29 340.17 247.361 339.959 247.432C339.867 247.459 339.773 247.476 339.677 247.484C339.422 247.484 339.299 247.3 339.299 246.922V246.043C339.299 245.761 339.335 245.542 339.422 245.418C339.554 245.251 339.727 245.121 339.924 245.04C340.642 244.682 341.4 244.41 342.183 244.232C343.098 243.996 344.041 243.881 344.986 243.889C347.131 243.889 348.687 244.372 349.698 245.349C350.681 246.316 351.183 247.784 351.183 249.762V255.58L351.215 255.579ZM343.928 258.313C344.517 258.313 345.133 258.206 345.774 257.987C346.433 257.764 347.022 257.37 347.478 256.844C347.769 256.502 347.988 256.124 348.094 255.694C348.201 255.263 348.27 254.735 348.27 254.129V253.373C347.726 253.239 347.174 253.137 346.618 253.066C346.058 252.995 345.495 252.959 344.93 252.96C343.725 252.96 342.848 253.198 342.259 253.68C341.662 254.163 341.38 254.85 341.38 255.746C341.38 256.59 341.591 257.214 342.04 257.644C342.47 258.093 343.103 258.313 343.93 258.313H343.928ZM358.351 260.255C358.025 260.255 357.806 260.203 357.666 260.071C357.526 259.965 357.394 259.71 357.288 259.377L353.069 245.491C352.987 245.258 352.933 245.016 352.911 244.77C352.911 244.48 353.051 244.321 353.332 244.321H355.099C355.442 244.321 355.671 244.374 355.793 244.497C355.943 244.603 356.048 244.858 356.154 245.201L359.178 257.092L361.981 245.201C362.069 244.84 362.175 244.603 362.315 244.497C362.531 244.365 362.783 244.304 363.036 244.321H364.468C364.811 244.321 365.049 244.374 365.189 244.497C365.329 244.603 365.46 244.858 365.531 245.201L368.37 257.233L371.473 245.201C371.588 244.84 371.711 244.603 371.834 244.497C372.044 244.365 372.291 244.304 372.538 244.321H374.208C374.499 244.321 374.657 244.462 374.657 244.77C374.657 244.858 374.64 244.946 374.622 245.061C374.593 245.213 374.552 245.363 374.499 245.509L370.165 259.387C370.059 259.749 369.937 259.985 369.787 260.091C369.587 260.223 369.349 260.284 369.111 260.267H367.563C367.221 260.267 366.991 260.214 366.843 260.091C366.702 259.968 366.579 259.73 366.508 259.371L363.722 247.786L360.953 259.352C360.865 259.713 360.759 259.949 360.611 260.073C360.471 260.196 360.216 260.248 359.89 260.248L358.351 260.255ZM381.423 260.739C380.491 260.739 379.56 260.624 378.663 260.413C377.767 260.203 377.064 259.965 376.598 259.693C376.308 259.534 376.115 259.359 376.044 259.192C375.971 259.035 375.932 258.864 375.93 258.691V257.776C375.93 257.398 376.08 257.214 376.343 257.214C376.449 257.214 376.563 257.231 376.669 257.266C376.775 257.31 376.941 257.381 377.118 257.45C377.734 257.722 378.392 257.933 379.095 258.075C379.816 258.225 380.511 258.294 381.232 258.294C382.366 258.294 383.245 258.091 383.851 257.697C384.448 257.335 384.809 256.686 384.791 255.992C384.798 255.527 384.625 255.076 384.308 254.735C383.982 254.401 383.368 254.094 382.489 253.804L379.887 252.995C378.577 252.582 377.602 251.976 377.013 251.168C376.433 250.42 376.115 249.503 376.109 248.557C376.109 247.801 376.276 247.141 376.601 246.562C376.927 245.99 377.357 245.491 377.894 245.094C378.451 244.67 379.083 244.354 379.757 244.163C380.478 243.943 381.234 243.856 382.025 243.856C382.42 243.856 382.833 243.873 383.23 243.927C383.643 243.979 384.021 244.05 384.399 244.129C384.75 244.217 385.093 244.305 385.419 244.411C385.744 244.517 385.999 244.63 386.175 244.737C386.385 244.844 386.568 244.997 386.711 245.185C386.831 245.361 386.89 245.571 386.878 245.783V246.627C386.878 247.005 386.728 247.199 386.465 247.199C386.225 247.174 385.992 247.102 385.78 246.988C384.696 246.506 383.52 246.266 382.334 246.284C381.306 246.284 380.496 246.443 379.943 246.785C379.381 247.128 379.099 247.646 379.099 248.385C379.099 248.886 379.274 249.316 379.635 249.659C379.997 250.002 380.663 250.344 381.613 250.653L384.161 251.453C385.454 251.866 386.394 252.447 386.947 253.184C387.501 253.913 387.774 254.757 387.774 255.699C387.774 256.463 387.607 257.167 387.309 257.781C386.985 258.393 386.539 258.931 385.999 259.364C385.437 259.813 384.777 260.128 384.004 260.366C383.17 260.62 382.302 260.748 381.429 260.744L381.423 260.739ZM384.823 269.465C378.908 273.834 370.329 276.144 362.946 276.144C352.602 276.144 343.277 272.32 336.236 265.959C335.683 265.457 336.184 264.772 336.852 265.176C344.463 269.588 353.859 272.268 363.57 272.268C370.126 272.268 377.325 270.896 383.961 268.102C384.944 267.644 385.788 268.743 384.821 269.464L384.823 269.465ZM387.285 266.662C386.529 265.695 382.283 266.197 380.368 266.434C379.796 266.505 379.7 265.996 380.228 265.618C383.603 263.254 389.148 263.93 389.799 264.722C390.441 265.538 389.615 271.085 386.46 273.74C385.977 274.153 385.501 273.942 385.721 273.397C386.441 271.622 388.041 267.622 387.285 266.664V266.662Z" fill="#1C7CD6"/>
<path d="M580.594 273.728C587.146 272.561 592.558 271.594 592.62 271.581L592.733 271.557L586.547 264.133C583.145 260.049 580.361 256.693 580.361 256.673C580.361 256.637 586.749 238.889 586.785 238.826C586.797 238.805 591.144 246.377 597.322 257.181C603.106 267.297 607.875 275.637 607.919 275.715L608 275.857L588.34 275.854L568.681 275.852L580.594 273.728ZM557 271.465C557 271.454 559.915 266.349 563.477 260.119L569.955 248.793L577.503 242.402C581.655 238.886 585.063 236.006 585.077 236C585.091 235.995 585.036 236.134 584.956 236.309C584.875 236.484 581.187 244.466 576.759 254.047L568.708 271.469L562.854 271.476C559.634 271.48 557 271.475 557 271.465V271.465Z" fill="#0089D6"/>
<path d="M131.569 289.344C130.469 289.344 129.724 289.85 129.457 290.759H129.313V289.46H127.393V299.509H129.341V295.722H129.478C129.73 296.624 130.482 297.13 131.569 297.13C133.299 297.13 134.317 295.94 134.317 293.883V292.584C134.317 290.533 133.299 289.344 131.569 289.344ZM130.852 290.971C131.815 290.971 132.41 291.606 132.41 292.639V293.89C132.41 294.922 131.815 295.558 130.852 295.558C129.881 295.558 129.293 294.929 129.293 293.89V292.639C129.293 291.6 129.881 290.971 130.852 290.971ZM135.999 297H137.865V292.666C137.865 291.627 138.501 290.957 139.485 290.957C140.436 290.957 140.9 291.497 140.9 292.598V297H142.773V292.14C142.773 290.321 141.871 289.323 140.237 289.323C139.137 289.323 138.296 289.843 137.934 290.745H137.824V286.589H135.999V297ZM147.019 297.123C148.003 297.123 148.796 296.706 149.165 295.995H149.329V297H151.106V291.887C151.106 290.239 150.02 289.316 148.085 289.316C146.294 289.316 145.057 290.198 144.92 291.565H146.738C146.896 291.094 147.381 290.807 148.03 290.807C148.803 290.807 149.254 291.189 149.254 291.846V292.447L147.49 292.557C145.631 292.687 144.64 293.486 144.64 294.847C144.64 296.207 145.597 297.123 147.019 297.123ZM147.661 295.626C146.937 295.626 146.485 295.271 146.485 294.71C146.485 294.129 146.93 293.794 147.805 293.739L149.254 293.65V294.197C149.254 295.038 148.591 295.626 147.661 295.626ZM157.525 297.116C159.255 297.116 160.273 295.927 160.273 293.876V292.577C160.273 290.526 159.255 289.337 157.525 289.337C156.445 289.337 155.693 289.843 155.44 290.745H155.297V286.589H153.349V297H155.276V295.701H155.413C155.68 296.617 156.425 297.116 157.525 297.116ZM156.808 295.496C155.844 295.496 155.249 294.86 155.249 293.821V292.577C155.249 291.538 155.844 290.909 156.808 290.909C157.778 290.909 158.366 291.538 158.366 292.577V293.821C158.366 294.86 157.778 295.496 156.808 295.496ZM165.202 293.657C165.202 292.037 166.07 291.23 167.848 291.23C168.271 291.23 168.764 291.319 169.105 291.449V289.419C168.839 289.316 168.456 289.262 168.032 289.262C166.61 289.262 165.838 289.897 165.51 291.395H165.216V289.46H161.839V290.841H163.411V295.626H161.976V297H167.39V295.626H165.202V293.657ZM174.109 287.922C174.875 287.922 175.395 287.45 175.395 286.739C175.395 286.028 174.875 285.557 174.109 285.557C173.344 285.557 172.831 286.028 172.831 286.739C172.831 287.45 173.344 287.922 174.109 287.922ZM177.329 297V295.51H175.053V289.46H170.938V290.957H173.234V295.51H170.814V297H177.329ZM186.065 292.092C185.888 290.246 184.753 289.275 182.805 289.275C180.583 289.275 179.353 290.533 179.353 292.823V293.616C179.353 295.906 180.583 297.164 182.805 297.164C184.753 297.164 185.901 296.207 186.065 294.409H184.233C184.104 295.216 183.611 295.605 182.791 295.605C181.786 295.605 181.232 294.854 181.232 293.473V292.967C181.232 291.586 181.786 290.834 182.791 290.834C183.604 290.834 184.11 291.244 184.233 292.092H186.065ZM190.29 297.123C191.274 297.123 192.067 296.706 192.437 295.995H192.601V297H194.378V291.887C194.378 290.239 193.291 289.316 191.356 289.316C189.565 289.316 188.328 290.198 188.191 291.565H190.01C190.167 291.094 190.652 290.807 191.302 290.807C192.074 290.807 192.525 291.189 192.525 291.846V292.447L190.762 292.557C188.902 292.687 187.911 293.486 187.911 294.847C187.911 296.207 188.868 297.123 190.29 297.123ZM190.933 295.626C190.208 295.626 189.757 295.271 189.757 294.71C189.757 294.129 190.201 293.794 191.076 293.739L192.525 293.65V294.197C192.525 295.038 191.862 295.626 190.933 295.626ZM198.404 287.307V289.535H196.442V291.032H198.404V294.614C198.404 296.364 199.19 297.014 201.241 297.014C201.392 297.014 202.882 297 202.957 296.986V295.51C202.875 295.517 201.569 295.523 201.392 295.523C200.674 295.523 200.271 295.202 200.271 294.635V291.032H203.046V289.535H200.236V287.307H198.404ZM208.617 297.164C210.743 297.164 212.083 295.872 212.083 293.814V292.652C212.083 290.595 210.743 289.303 208.617 289.303C206.491 289.303 205.151 290.595 205.151 292.652V293.814C205.151 295.872 206.491 297.164 208.617 297.164ZM208.617 290.834C209.622 290.834 210.244 291.559 210.244 292.728V293.739C210.244 294.901 209.622 295.633 208.617 295.633C207.612 295.633 206.99 294.901 206.99 293.739V292.728C206.99 291.559 207.612 290.834 208.617 290.834ZM217.128 293.657C217.128 292.037 217.996 291.23 219.773 291.23C220.197 291.23 220.689 291.319 221.031 291.449V289.419C220.765 289.316 220.382 289.262 219.958 289.262C218.536 289.262 217.764 289.897 217.436 291.395H217.142V289.46H213.765V290.841H215.337V295.626H213.901V297H219.315V295.626H217.128V293.657Z" fill="#6078A9"/>
<path d="M53.1523 206.837C55.3535 206.837 56.7139 205.75 56.7139 203.993V196.46H54.875V197.745H54.7383C54.4922 196.891 53.6514 196.337 52.5576 196.337C50.7529 196.337 49.6934 197.52 49.6934 199.577V200.719C49.6934 202.756 50.7324 203.959 52.4688 203.959C53.5898 203.959 54.4648 203.392 54.6973 202.544H54.8408V204.027C54.8408 204.971 54.2666 205.463 53.1797 205.463C52.3525 205.463 51.751 205.155 51.6211 204.67H49.7959C49.9189 206.01 51.1973 206.837 53.1523 206.837ZM51.6074 200.664V199.577C51.6074 198.559 52.2295 197.909 53.207 197.909C54.1914 197.909 54.8135 198.552 54.8135 199.577V200.664C54.8135 201.689 54.1914 202.332 53.207 202.332C52.2295 202.332 51.6074 201.689 51.6074 200.664ZM62.1279 194.922C62.8936 194.922 63.4131 194.45 63.4131 193.739C63.4131 193.028 62.8936 192.557 62.1279 192.557C61.3623 192.557 60.8496 193.028 60.8496 193.739C60.8496 194.45 61.3623 194.922 62.1279 194.922ZM65.3477 204V202.51H63.0713V196.46H58.9561V197.957H61.2529V202.51H58.833V204H65.3477ZM69.1143 194.307V196.535H67.1523V198.032H69.1143V201.614C69.1143 203.364 69.9004 204.014 71.9512 204.014C72.1016 204.014 73.5918 204 73.667 203.986V202.51C73.585 202.517 72.2793 202.523 72.1016 202.523C71.3838 202.523 70.9805 202.202 70.9805 201.635V198.032H73.7559V196.535H70.9463V194.307H69.1143ZM75.9434 204H77.8096V199.666C77.8096 198.627 78.4453 197.957 79.4297 197.957C80.3799 197.957 80.8447 198.497 80.8447 199.598V204H82.7178V199.14C82.7178 197.321 81.8154 196.323 80.1816 196.323C79.0811 196.323 78.2402 196.843 77.8779 197.745H77.7686V193.589H75.9434V204ZM91.3379 196.46H89.4717V200.821C89.4717 201.86 88.8496 202.523 87.8926 202.523C86.9424 202.523 86.498 201.997 86.498 200.89V196.46H84.625V201.341C84.625 203.18 85.5 204.164 87.1406 204.164C88.2275 204.164 89.041 203.645 89.4102 202.735H89.5264V204H91.3379V196.46ZM97.4697 204.116C99.1992 204.116 100.218 202.927 100.218 200.876V199.577C100.218 197.526 99.1992 196.337 97.4697 196.337C96.3896 196.337 95.6377 196.843 95.3848 197.745H95.2412V193.589H93.293V204H95.2207V202.701H95.3574C95.624 203.617 96.3691 204.116 97.4697 204.116ZM96.752 202.496C95.7881 202.496 95.1934 201.86 95.1934 200.821V199.577C95.1934 198.538 95.7881 197.909 96.752 197.909C97.7227 197.909 98.3105 198.538 98.3105 199.577V200.821C98.3105 201.86 97.7227 202.496 96.752 202.496Z" fill="#6078A9"/>
<path d="M243.152 206.837C245.354 206.837 246.714 205.75 246.714 203.993V196.46H244.875V197.745H244.738C244.492 196.891 243.651 196.337 242.558 196.337C240.753 196.337 239.693 197.52 239.693 199.577V200.719C239.693 202.756 240.732 203.959 242.469 203.959C243.59 203.959 244.465 203.392 244.697 202.544H244.841V204.027C244.841 204.971 244.267 205.463 243.18 205.463C242.353 205.463 241.751 205.155 241.621 204.67H239.796C239.919 206.01 241.197 206.837 243.152 206.837ZM241.607 200.664V199.577C241.607 198.559 242.229 197.909 243.207 197.909C244.191 197.909 244.813 198.552 244.813 199.577V200.664C244.813 201.689 244.191 202.332 243.207 202.332C242.229 202.332 241.607 201.689 241.607 200.664ZM252.128 194.922C252.894 194.922 253.413 194.45 253.413 193.739C253.413 193.028 252.894 192.557 252.128 192.557C251.362 192.557 250.85 193.028 250.85 193.739C250.85 194.45 251.362 194.922 252.128 194.922ZM255.348 204V202.51H253.071V196.46H248.956V197.957H251.253V202.51H248.833V204H255.348ZM259.114 194.307V196.535H257.152V198.032H259.114V201.614C259.114 203.364 259.9 204.014 261.951 204.014C262.102 204.014 263.592 204 263.667 203.986V202.51C263.585 202.517 262.279 202.523 262.102 202.523C261.384 202.523 260.98 202.202 260.98 201.635V198.032H263.756V196.535H260.946V194.307H259.114ZM272.656 204V202.51H270.407V193.589H266.265V195.079H268.534V202.51H266.142V204H272.656ZM276.963 204.123C277.947 204.123 278.74 203.706 279.109 202.995H279.273V204H281.051V198.887C281.051 197.239 279.964 196.316 278.029 196.316C276.238 196.316 275.001 197.198 274.864 198.565H276.683C276.84 198.094 277.325 197.807 277.975 197.807C278.747 197.807 279.198 198.189 279.198 198.846V199.447L277.435 199.557C275.575 199.687 274.584 200.486 274.584 201.847C274.584 203.207 275.541 204.123 276.963 204.123ZM277.605 202.626C276.881 202.626 276.43 202.271 276.43 201.71C276.43 201.129 276.874 200.794 277.749 200.739L279.198 200.65V201.197C279.198 202.038 278.535 202.626 277.605 202.626ZM287.47 204.116C289.199 204.116 290.218 202.927 290.218 200.876V199.577C290.218 197.526 289.199 196.337 287.47 196.337C286.39 196.337 285.638 196.843 285.385 197.745H285.241V193.589H283.293V204H285.221V202.701H285.357C285.624 203.617 286.369 204.116 287.47 204.116ZM286.752 202.496C285.788 202.496 285.193 201.86 285.193 200.821V199.577C285.193 198.538 285.788 197.909 286.752 197.909C287.723 197.909 288.311 198.538 288.311 199.577V200.821C288.311 201.86 287.723 202.496 286.752 202.496Z" fill="#6078A9"/>
<path d="M432.217 204.116C433.946 204.116 434.965 202.927 434.965 200.876V199.577C434.965 197.526 433.946 196.337 432.217 196.337C431.137 196.337 430.385 196.843 430.132 197.745H429.988V193.589H428.04V204H429.968V202.701H430.104C430.371 203.617 431.116 204.116 432.217 204.116ZM431.499 202.496C430.535 202.496 429.94 201.86 429.94 200.821V199.577C429.94 198.538 430.535 197.909 431.499 197.909C432.47 197.909 433.058 198.538 433.058 199.577V200.821C433.058 201.86 432.47 202.496 431.499 202.496ZM440.146 194.922C440.912 194.922 441.432 194.45 441.432 193.739C441.432 193.028 440.912 192.557 440.146 192.557C439.381 192.557 438.868 193.028 438.868 193.739C438.868 194.45 439.381 194.922 440.146 194.922ZM443.366 204V202.51H441.09V196.46H436.975V197.957H439.271V202.51H436.852V204H443.366ZM447.133 194.307V196.535H445.171V198.032H447.133V201.614C447.133 203.364 447.919 204.014 449.97 204.014C450.12 204.014 451.61 204 451.686 203.986V202.51C451.604 202.517 450.298 202.523 450.12 202.523C449.402 202.523 448.999 202.202 448.999 201.635V198.032H451.774V196.535H448.965V194.307H447.133ZM458.18 204.116C459.909 204.116 460.928 202.927 460.928 200.876V199.577C460.928 197.526 459.909 196.337 458.18 196.337C457.1 196.337 456.348 196.843 456.095 197.745H455.951V193.589H454.003V204H455.931V202.701H456.067C456.334 203.617 457.079 204.116 458.18 204.116ZM457.462 202.496C456.498 202.496 455.903 201.86 455.903 200.821V199.577C455.903 198.538 456.498 197.909 457.462 197.909C458.433 197.909 459.021 198.538 459.021 199.577V200.821C459.021 201.86 458.433 202.496 457.462 202.496ZM469.356 196.46H467.49V200.821C467.49 201.86 466.868 202.523 465.911 202.523C464.961 202.523 464.517 201.997 464.517 200.89V196.46H462.644V201.341C462.644 203.18 463.519 204.164 465.159 204.164C466.246 204.164 467.06 203.645 467.429 202.735H467.545V204H469.356V196.46ZM478.065 199.092C477.888 197.246 476.753 196.275 474.805 196.275C472.583 196.275 471.353 197.533 471.353 199.823V200.616C471.353 202.906 472.583 204.164 474.805 204.164C476.753 204.164 477.901 203.207 478.065 201.409H476.233C476.104 202.216 475.611 202.605 474.791 202.605C473.786 202.605 473.232 201.854 473.232 200.473V199.967C473.232 198.586 473.786 197.834 474.791 197.834C475.604 197.834 476.11 198.244 476.233 199.092H478.065ZM482.338 199.488H482.222V193.589H480.355V204H482.222V201.498L482.939 200.78L485.127 204H487.294L484.313 199.598L487.103 196.46H484.963L482.338 199.488ZM493.597 201.881C493.46 202.373 492.865 202.715 492.113 202.715C491.136 202.715 490.5 202.072 490.5 201.088V200.678H495.36V199.639C495.36 197.615 494.082 196.303 492.086 196.303C490.035 196.303 488.668 197.608 488.668 199.584V200.794C488.668 202.934 489.926 204.164 492.12 204.164C493.87 204.164 495.203 203.214 495.36 201.881H493.597ZM492.052 197.752C492.995 197.752 493.556 198.401 493.556 199.481H490.5C490.5 198.401 491.081 197.752 492.052 197.752ZM499.059 194.307V196.535H497.097V198.032H499.059V201.614C499.059 203.364 499.845 204.014 501.896 204.014C502.046 204.014 503.536 204 503.611 203.986V202.51C503.529 202.517 502.224 202.523 502.046 202.523C501.328 202.523 500.925 202.202 500.925 201.635V198.032H503.7V196.535H500.891V194.307H499.059Z" fill="#6078A9"/>
<path d="M663.712 204V202.51H661.463V193.589H657.32V195.079H659.59V202.51H657.197V204H663.712ZM669.037 204.164C671.163 204.164 672.503 202.872 672.503 200.814V199.652C672.503 197.595 671.163 196.303 669.037 196.303C666.911 196.303 665.571 197.595 665.571 199.652V200.814C665.571 202.872 666.911 204.164 669.037 204.164ZM669.037 197.834C670.042 197.834 670.664 198.559 670.664 199.728V200.739C670.664 201.901 670.042 202.633 669.037 202.633C668.032 202.633 667.41 201.901 667.41 200.739V199.728C667.41 198.559 668.032 197.834 669.037 197.834ZM681.103 199.092C680.925 197.246 679.79 196.275 677.842 196.275C675.62 196.275 674.39 197.533 674.39 199.823V200.616C674.39 202.906 675.62 204.164 677.842 204.164C679.79 204.164 680.938 203.207 681.103 201.409H679.271C679.141 202.216 678.648 202.605 677.828 202.605C676.823 202.605 676.27 201.854 676.27 200.473V199.967C676.27 198.586 676.823 197.834 677.828 197.834C678.642 197.834 679.147 198.244 679.271 199.092H681.103ZM685.327 204.123C686.312 204.123 687.104 203.706 687.474 202.995H687.638V204H689.415V198.887C689.415 197.239 688.328 196.316 686.394 196.316C684.603 196.316 683.365 197.198 683.229 198.565H685.047C685.204 198.094 685.689 197.807 686.339 197.807C687.111 197.807 687.562 198.189 687.562 198.846V199.447L685.799 199.557C683.939 199.687 682.948 200.486 682.948 201.847C682.948 203.207 683.905 204.123 685.327 204.123ZM685.97 202.626C685.245 202.626 684.794 202.271 684.794 201.71C684.794 201.129 685.238 200.794 686.113 200.739L687.562 200.65V201.197C687.562 202.038 686.899 202.626 685.97 202.626ZM698.329 204V202.51H696.08V193.589H691.938V195.079H694.207V202.51H691.814V204H698.329ZM700.271 204H702.137V199.666C702.137 198.627 702.772 197.957 703.757 197.957C704.707 197.957 705.172 198.497 705.172 199.598V204H707.045V199.14C707.045 197.321 706.143 196.323 704.509 196.323C703.408 196.323 702.567 196.843 702.205 197.745H702.096V193.589H700.271V204ZM712.309 204.164C714.435 204.164 715.774 202.872 715.774 200.814V199.652C715.774 197.595 714.435 196.303 712.309 196.303C710.183 196.303 708.843 197.595 708.843 199.652V200.814C708.843 202.872 710.183 204.164 712.309 204.164ZM712.309 197.834C713.313 197.834 713.936 198.559 713.936 199.728V200.739C713.936 201.901 713.313 202.633 712.309 202.633C711.304 202.633 710.682 201.901 710.682 200.739V199.728C710.682 198.559 711.304 197.834 712.309 197.834ZM717.914 198.661C717.914 199.823 718.632 200.562 720.047 200.869L721.175 201.108C721.968 201.279 722.255 201.484 722.255 201.908C722.255 202.4 721.763 202.722 720.997 202.722C720.218 202.722 719.712 202.435 719.596 201.915H717.75C717.853 203.33 719.042 204.157 720.97 204.157C722.932 204.157 724.176 203.193 724.176 201.669C724.176 200.521 723.499 199.871 721.975 199.557L720.806 199.317C720.074 199.167 719.76 198.921 719.76 198.511C719.76 198.032 720.231 197.711 720.942 197.711C721.64 197.711 722.132 198.019 722.221 198.518H723.984C723.896 197.103 722.781 196.282 720.956 196.282C719.09 196.282 717.914 197.198 717.914 198.661ZM728.059 194.307V196.535H726.097V198.032H728.059V201.614C728.059 203.364 728.845 204.014 730.896 204.014C731.046 204.014 732.536 204 732.611 203.986V202.51C732.529 202.517 731.224 202.523 731.046 202.523C730.328 202.523 729.925 202.202 729.925 201.635V198.032H732.7V196.535H729.891V194.307H728.059Z" fill="#6078A9"/>
<path d="M327.467 292.092C327.289 290.246 326.154 289.275 324.206 289.275C321.984 289.275 320.754 290.533 320.754 292.823V293.616C320.754 295.906 321.984 297.164 324.206 297.164C326.154 297.164 327.303 296.207 327.467 294.409H325.635C325.505 295.216 325.013 295.605 324.192 295.605C323.188 295.605 322.634 294.854 322.634 293.473V292.967C322.634 291.586 323.188 290.834 324.192 290.834C325.006 290.834 325.512 291.244 325.635 292.092H327.467ZM332.71 297.164C334.836 297.164 336.176 295.872 336.176 293.814V292.652C336.176 290.595 334.836 289.303 332.71 289.303C330.584 289.303 329.244 290.595 329.244 292.652V293.814C329.244 295.872 330.584 297.164 332.71 297.164ZM332.71 290.834C333.715 290.834 334.337 291.559 334.337 292.728V293.739C334.337 294.901 333.715 295.633 332.71 295.633C331.705 295.633 331.083 294.901 331.083 293.739V292.728C331.083 291.559 331.705 290.834 332.71 290.834ZM340.53 297.116C341.638 297.116 342.383 296.617 342.643 295.701H342.786V297H344.714V286.589H342.759V290.745H342.622C342.369 289.843 341.617 289.337 340.53 289.337C338.808 289.337 337.782 290.526 337.782 292.577V293.876C337.782 295.927 338.808 297.116 340.53 297.116ZM341.255 295.496C340.284 295.496 339.689 294.86 339.689 293.821V292.577C339.689 291.538 340.284 290.909 341.255 290.909C342.219 290.909 342.807 291.538 342.807 292.577V293.821C342.807 294.86 342.219 295.496 341.255 295.496ZM351.652 294.881C351.516 295.373 350.921 295.715 350.169 295.715C349.191 295.715 348.556 295.072 348.556 294.088V293.678H353.416V292.639C353.416 290.615 352.138 289.303 350.142 289.303C348.091 289.303 346.724 290.608 346.724 292.584V293.794C346.724 295.934 347.981 297.164 350.176 297.164C351.926 297.164 353.259 296.214 353.416 294.881H351.652ZM350.107 290.752C351.051 290.752 351.611 291.401 351.611 292.481H348.556C348.556 291.401 349.137 290.752 350.107 290.752ZM362.084 292.092C361.906 290.246 360.771 289.275 358.823 289.275C356.602 289.275 355.371 290.533 355.371 292.823V293.616C355.371 295.906 356.602 297.164 358.823 297.164C360.771 297.164 361.92 296.207 362.084 294.409H360.252C360.122 295.216 359.63 295.605 358.81 295.605C357.805 295.605 357.251 294.854 357.251 293.473V292.967C357.251 291.586 357.805 290.834 358.81 290.834C359.623 290.834 360.129 291.244 360.252 292.092H362.084ZM367.327 297.164C369.453 297.164 370.793 295.872 370.793 293.814V292.652C370.793 290.595 369.453 289.303 367.327 289.303C365.201 289.303 363.861 290.595 363.861 292.652V293.814C363.861 295.872 365.201 297.164 367.327 297.164ZM367.327 290.834C368.332 290.834 368.954 291.559 368.954 292.728V293.739C368.954 294.901 368.332 295.633 367.327 295.633C366.322 295.633 365.7 294.901 365.7 293.739V292.728C365.7 291.559 366.322 290.834 367.327 290.834ZM379.789 291.148C379.789 289.952 379.283 289.303 378.354 289.303C377.636 289.303 377.109 289.774 376.952 290.581H376.754C376.597 289.768 376.118 289.303 375.435 289.303C374.689 289.303 374.177 289.774 374.006 290.643H373.808V289.46H372.174V297H373.76V291.825C373.76 291.271 374.054 290.916 374.505 290.916C374.949 290.916 375.202 291.237 375.202 291.777V297H376.768V291.825C376.768 291.271 377.062 290.916 377.506 290.916C377.937 290.916 378.203 291.237 378.203 291.777V297H379.789V291.148ZM388.443 291.148C388.443 289.952 387.938 289.303 387.008 289.303C386.29 289.303 385.764 289.774 385.606 290.581H385.408C385.251 289.768 384.772 289.303 384.089 289.303C383.344 289.303 382.831 289.774 382.66 290.643H382.462V289.46H380.828V297H382.414V291.825C382.414 291.271 382.708 290.916 383.159 290.916C383.604 290.916 383.856 291.237 383.856 291.777V297H385.422V291.825C385.422 291.271 385.716 290.916 386.16 290.916C386.591 290.916 386.857 291.237 386.857 291.777V297H388.443V291.148ZM393.399 287.922C394.165 287.922 394.685 287.45 394.685 286.739C394.685 286.028 394.165 285.557 393.399 285.557C392.634 285.557 392.121 286.028 392.121 286.739C392.121 287.45 392.634 287.922 393.399 287.922ZM396.619 297V295.51H394.343V289.46H390.228V290.957H392.524V295.51H390.104V297H396.619ZM400.386 287.307V289.535H398.424V291.032H400.386V294.614C400.386 296.364 401.172 297.014 403.223 297.014C403.373 297.014 404.863 297 404.938 296.986V295.51C404.856 295.517 403.551 295.523 403.373 295.523C402.655 295.523 402.252 295.202 402.252 294.635V291.032H405.027V289.535H402.218V287.307H400.386Z" fill="#6078A9"/>
<path d="M564.673 297.123C565.657 297.123 566.45 296.706 566.819 295.995H566.983V297H568.761V291.887C568.761 290.239 567.674 289.316 565.739 289.316C563.948 289.316 562.711 290.198 562.574 291.565H564.393C564.55 291.094 565.035 290.807 565.685 290.807C566.457 290.807 566.908 291.189 566.908 291.846V292.447L565.145 292.557C563.285 292.687 562.294 293.486 562.294 294.847C562.294 296.207 563.251 297.123 564.673 297.123ZM565.315 295.626C564.591 295.626 564.14 295.271 564.14 294.71C564.14 294.129 564.584 293.794 565.459 293.739L566.908 293.65V294.197C566.908 295.038 566.245 295.626 565.315 295.626ZM571.222 297H577.47V295.489H573.683V295.373L577.388 290.718V289.46H571.283V290.971H575.146V291.087L571.222 295.886V297ZM586.356 289.46H584.49V293.821C584.49 294.86 583.868 295.523 582.911 295.523C581.961 295.523 581.517 294.997 581.517 293.89V289.46H579.644V294.341C579.644 296.18 580.519 297.164 582.159 297.164C583.246 297.164 584.06 296.645 584.429 295.735H584.545V297H586.356V289.46ZM591.511 293.657C591.511 292.037 592.379 291.23 594.156 291.23C594.58 291.23 595.072 291.319 595.414 291.449V289.419C595.147 289.316 594.765 289.262 594.341 289.262C592.919 289.262 592.146 289.897 591.818 291.395H591.524V289.46H588.147V290.841H589.72V295.626H588.284V297H593.698V295.626H591.511V293.657ZM601.942 294.881C601.806 295.373 601.211 295.715 600.459 295.715C599.481 295.715 598.846 295.072 598.846 294.088V293.678H603.706V292.639C603.706 290.615 602.428 289.303 600.432 289.303C598.381 289.303 597.014 290.608 597.014 292.584V293.794C597.014 295.934 598.271 297.164 600.466 297.164C602.216 297.164 603.549 296.214 603.706 294.881H601.942ZM600.397 290.752C601.341 290.752 601.901 291.401 601.901 292.481H598.846C598.846 291.401 599.427 290.752 600.397 290.752Z" fill="#6078A9"/>
<path d="M160.916 328.545V337H162.58V334.316H163.928C165.75 334.316 166.91 333.197 166.91 331.439C166.91 329.664 165.785 328.545 164.01 328.545H160.916ZM162.58 329.91H163.588C164.678 329.91 165.223 330.414 165.223 331.428C165.223 332.447 164.678 332.945 163.588 332.945H162.58V329.91ZM172.57 335.184C172.453 335.605 171.943 335.898 171.299 335.898C170.461 335.898 169.916 335.348 169.916 334.504V334.152H174.082V333.262C174.082 331.527 172.986 330.402 171.275 330.402C169.518 330.402 168.346 331.521 168.346 333.215V334.252C168.346 336.086 169.424 337.141 171.305 337.141C172.805 337.141 173.947 336.326 174.082 335.184H172.57ZM171.246 331.645C172.055 331.645 172.535 332.201 172.535 333.127H169.916C169.916 332.201 170.414 331.645 171.246 331.645ZM178.465 334.135C178.465 332.746 179.209 332.055 180.732 332.055C181.096 332.055 181.518 332.131 181.811 332.242V330.502C181.582 330.414 181.254 330.367 180.891 330.367C179.672 330.367 179.01 330.912 178.729 332.195H178.477V330.537H175.582V331.721H176.93V335.822H175.699V337H180.34V335.822H178.465V334.135ZM184.898 337H186.504V331.885H189.076V330.602H186.469V330.039C186.469 329.559 186.779 329.312 187.383 329.312C187.535 329.312 188.953 329.318 189.076 329.33V328.152C188.982 328.141 187.494 328.129 187.336 328.129C185.59 328.129 184.898 328.68 184.898 330.145V330.602H183.176V331.885H184.898V337ZM193.424 337.141C195.246 337.141 196.395 336.033 196.395 334.27V333.273C196.395 331.51 195.246 330.402 193.424 330.402C191.602 330.402 190.453 331.51 190.453 333.273V334.27C190.453 336.033 191.602 337.141 193.424 337.141ZM193.424 331.715C194.285 331.715 194.818 332.336 194.818 333.338V334.205C194.818 335.201 194.285 335.828 193.424 335.828C192.562 335.828 192.029 335.201 192.029 334.205V333.338C192.029 332.336 192.562 331.715 193.424 331.715ZM200.719 334.135C200.719 332.746 201.463 332.055 202.986 332.055C203.35 332.055 203.771 332.131 204.064 332.242V330.502C203.836 330.414 203.508 330.367 203.145 330.367C201.926 330.367 201.264 330.912 200.982 332.195H200.73V330.537H197.836V331.721H199.184V335.822H197.953V337H202.594V335.822H200.719V334.135ZM211.184 332.793C211.031 331.211 210.059 330.379 208.389 330.379C206.484 330.379 205.43 331.457 205.43 333.42V334.1C205.43 336.062 206.484 337.141 208.389 337.141C210.059 337.141 211.043 336.32 211.184 334.779H209.613C209.502 335.471 209.08 335.805 208.377 335.805C207.516 335.805 207.041 335.16 207.041 333.977V333.543C207.041 332.359 207.516 331.715 208.377 331.715C209.074 331.715 209.508 332.066 209.613 332.793H211.184ZM217.078 335.184C216.961 335.605 216.451 335.898 215.807 335.898C214.969 335.898 214.424 335.348 214.424 334.504V334.152H218.59V333.262C218.59 331.527 217.494 330.402 215.783 330.402C214.025 330.402 212.854 331.521 212.854 333.215V334.252C212.854 336.086 213.932 337.141 215.812 337.141C217.312 337.141 218.455 336.326 218.59 335.184H217.078ZM215.754 331.645C216.562 331.645 217.043 332.201 217.043 333.127H214.424C214.424 332.201 214.922 331.645 215.754 331.645ZM222.674 339.039L223.734 334.99H221.9L221.268 339.039H222.674ZM236.162 334.211L235.951 330.836H236.074L237.369 335.014H238.494L239.789 330.836H239.912L239.701 334.211V337H241.102V328.545H239.361L237.984 333.385H237.885L236.496 328.545H234.762V337H236.162V334.211ZM246.75 335.184C246.633 335.605 246.123 335.898 245.479 335.898C244.641 335.898 244.096 335.348 244.096 334.504V334.152H248.262V333.262C248.262 331.527 247.166 330.402 245.455 330.402C243.697 330.402 242.525 331.521 242.525 333.215V334.252C242.525 336.086 243.604 337.141 245.484 337.141C246.984 337.141 248.127 336.326 248.262 335.184H246.75ZM245.426 331.645C246.234 331.645 246.715 332.201 246.715 333.127H244.096C244.096 332.201 244.594 331.645 245.426 331.645ZM252.645 334.135C252.645 332.746 253.389 332.055 254.912 332.055C255.275 332.055 255.697 332.131 255.99 332.242V330.502C255.762 330.414 255.434 330.367 255.07 330.367C253.852 330.367 253.189 330.912 252.908 332.195H252.656V330.537H249.762V331.721H251.109V335.822H249.879V337H254.52V335.822H252.645V334.135ZM263.109 332.793C262.957 331.211 261.984 330.379 260.314 330.379C258.41 330.379 257.355 331.457 257.355 333.42V334.1C257.355 336.062 258.41 337.141 260.314 337.141C261.984 337.141 262.969 336.32 263.109 334.779H261.539C261.428 335.471 261.006 335.805 260.303 335.805C259.441 335.805 258.967 335.16 258.967 333.977V333.543C258.967 332.359 259.441 331.715 260.303 331.715C261 331.715 261.434 332.066 261.539 332.793H263.109ZM270.48 330.537H268.881V334.275C268.881 335.166 268.348 335.734 267.527 335.734C266.713 335.734 266.332 335.283 266.332 334.334V330.537H264.727V334.721C264.727 336.297 265.477 337.141 266.883 337.141C267.814 337.141 268.512 336.695 268.828 335.916H268.928V337H270.48V330.537ZM274.898 334.135C274.898 332.746 275.643 332.055 277.166 332.055C277.529 332.055 277.951 332.131 278.244 332.242V330.502C278.016 330.414 277.688 330.367 277.324 330.367C276.105 330.367 275.443 330.912 275.162 332.195H274.91V330.537H272.016V331.721H273.363V335.822H272.133V337H276.773V335.822H274.898V334.135ZM282.533 329.219C283.189 329.219 283.635 328.814 283.635 328.205C283.635 327.596 283.189 327.191 282.533 327.191C281.877 327.191 281.438 327.596 281.438 328.205C281.438 328.814 281.877 329.219 282.533 329.219ZM285.293 337V335.723H283.342V330.537H279.814V331.82H281.783V335.723H279.709V337H285.293ZM288.984 337.105C289.828 337.105 290.508 336.748 290.824 336.139H290.965V337H292.488V332.617C292.488 331.205 291.557 330.414 289.898 330.414C288.363 330.414 287.303 331.17 287.186 332.342H288.744C288.879 331.938 289.295 331.691 289.852 331.691C290.514 331.691 290.9 332.02 290.9 332.582V333.098L289.389 333.191C287.795 333.303 286.945 333.988 286.945 335.154C286.945 336.32 287.766 337.105 288.984 337.105ZM289.535 335.822C288.914 335.822 288.527 335.518 288.527 335.037C288.527 334.539 288.908 334.252 289.658 334.205L290.9 334.129V334.598C290.9 335.318 290.332 335.822 289.535 335.822ZM300.129 337V335.723H298.201V328.076H294.65V329.354H296.596V335.723H294.545V337H300.129ZM304.271 339.039L305.332 334.99H303.498L302.865 339.039H304.271ZM316.377 334.633C316.436 336.215 317.637 337.17 319.553 337.17C321.527 337.17 322.723 336.162 322.723 334.492C322.723 333.197 322.008 332.465 320.373 332.102L319.506 331.902C318.592 331.703 318.217 331.375 318.217 330.777C318.217 330.145 318.738 329.752 319.576 329.752C320.402 329.752 320.936 330.18 321 330.877H322.57C322.518 329.365 321.328 328.375 319.559 328.375C317.73 328.375 316.564 329.377 316.564 330.953C316.564 332.207 317.314 333.016 318.844 333.361L319.723 333.566C320.701 333.783 321.076 334.088 321.076 334.662C321.076 335.348 320.496 335.787 319.582 335.787C318.621 335.787 318.023 335.365 317.947 334.633H316.377ZM329.824 330.537H328.225V334.275C328.225 335.166 327.691 335.734 326.871 335.734C326.057 335.734 325.676 335.283 325.676 334.334V330.537H324.07V334.721C324.07 336.297 324.82 337.141 326.227 337.141C327.158 337.141 327.855 336.695 328.172 335.916H328.271V337H329.824V330.537ZM335.08 337.1C336.562 337.1 337.436 336.08 337.436 334.322V333.209C337.436 331.451 336.562 330.432 335.08 330.432C334.154 330.432 333.51 330.865 333.293 331.639H333.17V328.076H331.5V337H333.152V335.887H333.27C333.498 336.672 334.137 337.1 335.08 337.1ZM334.465 335.711C333.639 335.711 333.129 335.166 333.129 334.275V333.209C333.129 332.318 333.639 331.779 334.465 331.779C335.297 331.779 335.801 332.318 335.801 333.209V334.275C335.801 335.166 335.297 335.711 334.465 335.711ZM338.625 330.537L340.875 337H342.703L344.941 330.537H343.248L341.854 335.436H341.76L340.348 330.537H338.625ZM350.602 335.184C350.484 335.605 349.975 335.898 349.33 335.898C348.492 335.898 347.947 335.348 347.947 334.504V334.152H352.113V333.262C352.113 331.527 351.018 330.402 349.307 330.402C347.549 330.402 346.377 331.521 346.377 333.215V334.252C346.377 336.086 347.455 337.141 349.336 337.141C350.836 337.141 351.979 336.326 352.113 335.184H350.602ZM349.277 331.645C350.086 331.645 350.566 332.201 350.566 333.127H347.947C347.947 332.201 348.445 331.645 349.277 331.645ZM356.496 334.135C356.496 332.746 357.24 332.055 358.764 332.055C359.127 332.055 359.549 332.131 359.842 332.242V330.502C359.613 330.414 359.285 330.367 358.922 330.367C357.703 330.367 357.041 330.912 356.76 332.195H356.508V330.537H353.613V331.721H354.961V335.822H353.73V337H358.371V335.822H356.496V334.135ZM361.424 332.424C361.424 333.42 362.039 334.053 363.252 334.316L364.219 334.521C364.898 334.668 365.145 334.844 365.145 335.207C365.145 335.629 364.723 335.904 364.066 335.904C363.398 335.904 362.965 335.658 362.865 335.213H361.283C361.371 336.426 362.391 337.135 364.043 337.135C365.725 337.135 366.791 336.309 366.791 335.002C366.791 334.018 366.211 333.461 364.904 333.191L363.902 332.986C363.275 332.857 363.006 332.646 363.006 332.295C363.006 331.885 363.41 331.609 364.02 331.609C364.617 331.609 365.039 331.873 365.115 332.301H366.627C366.551 331.088 365.596 330.385 364.031 330.385C362.432 330.385 361.424 331.17 361.424 332.424ZM371.549 329.219C372.205 329.219 372.65 328.814 372.65 328.205C372.65 327.596 372.205 327.191 371.549 327.191C370.893 327.191 370.453 327.596 370.453 328.205C370.453 328.814 370.893 329.219 371.549 329.219ZM374.309 337V335.723H372.357V330.537H368.83V331.82H370.799V335.723H368.725V337H374.309ZM378.873 337.141C380.695 337.141 381.844 336.033 381.844 334.27V333.273C381.844 331.51 380.695 330.402 378.873 330.402C377.051 330.402 375.902 331.51 375.902 333.273V334.27C375.902 336.033 377.051 337.141 378.873 337.141ZM378.873 331.715C379.734 331.715 380.268 332.336 380.268 333.338V334.205C380.268 335.201 379.734 335.828 378.873 335.828C378.012 335.828 377.479 335.201 377.479 334.205V333.338C377.479 332.336 378.012 331.715 378.873 331.715ZM383.414 337H385.014V333.268C385.014 332.371 385.547 331.803 386.367 331.803C387.182 331.803 387.562 332.254 387.562 333.203V337H389.168V332.822C389.168 331.246 388.418 330.402 387.012 330.402C386.08 330.402 385.383 330.842 385.066 331.621H384.967V330.537H383.414V337ZM393.287 339.039L394.348 334.99H392.514L391.881 339.039H393.287ZM408.732 335.676C407.684 335.676 407.145 334.979 407.145 333.637V331.908C407.145 330.572 407.684 329.869 408.709 329.869C409.57 329.869 410.145 330.525 410.162 331.539H411.85C411.838 329.541 410.684 328.375 408.738 328.375C406.646 328.375 405.416 329.682 405.416 331.908V333.637C405.416 335.863 406.646 337.17 408.738 337.17C410.66 337.17 411.855 335.998 411.855 334.082H410.168C410.15 335.066 409.605 335.676 408.732 335.676ZM416.057 335.342H415.98L414.24 328.545H412.441L414.979 337H416.947L419.484 328.545H417.82L416.057 335.342ZM420.229 334.633C420.287 336.215 421.488 337.17 423.404 337.17C425.379 337.17 426.574 336.162 426.574 334.492C426.574 333.197 425.859 332.465 424.225 332.102L423.357 331.902C422.443 331.703 422.068 331.375 422.068 330.777C422.068 330.145 422.59 329.752 423.428 329.752C424.254 329.752 424.787 330.18 424.852 330.877H426.422C426.369 329.365 425.18 328.375 423.41 328.375C421.582 328.375 420.416 329.377 420.416 330.953C420.416 332.207 421.166 333.016 422.695 333.361L423.574 333.566C424.553 333.783 424.928 334.088 424.928 334.662C424.928 335.348 424.348 335.787 423.434 335.787C422.473 335.787 421.875 335.365 421.799 334.633H420.229ZM430.377 339.039L431.438 334.99H429.604L428.971 339.039H430.377ZM446.467 337V329.98H448.887V328.545H442.383V329.98H444.803V337H446.467ZM452.273 337V333.648H455.613V332.271H452.273V329.98H455.947V328.545H450.604V337H452.273ZM457.318 334.633C457.377 336.215 458.578 337.17 460.494 337.17C462.469 337.17 463.664 336.162 463.664 334.492C463.664 333.197 462.949 332.465 461.314 332.102L460.447 331.902C459.533 331.703 459.158 331.375 459.158 330.777C459.158 330.145 459.68 329.752 460.518 329.752C461.344 329.752 461.877 330.18 461.941 330.877H463.512C463.459 329.365 462.27 328.375 460.5 328.375C458.672 328.375 457.506 329.377 457.506 330.953C457.506 332.207 458.256 333.016 459.785 333.361L460.664 333.566C461.643 333.783 462.018 334.088 462.018 334.662C462.018 335.348 461.438 335.787 460.523 335.787C459.562 335.787 458.965 335.365 458.889 334.633H457.318ZM467.467 339.039L468.527 334.99H466.693L466.061 339.039H467.467ZM484.289 334.229C484.289 335.137 483.75 335.676 482.859 335.676C481.811 335.676 481.271 334.99 481.271 333.637V331.908C481.271 330.561 481.805 329.869 482.836 329.869C483.662 329.869 484.242 330.449 484.283 331.34H485.977C485.93 329.494 484.752 328.375 482.883 328.375C480.797 328.375 479.578 329.67 479.578 331.908V333.637C479.578 335.875 480.797 337.17 482.883 337.17C484.752 337.17 485.982 336.027 485.982 334.264V332.506H482.713V333.76H484.289V334.229ZM490.236 329.219C490.893 329.219 491.338 328.814 491.338 328.205C491.338 327.596 490.893 327.191 490.236 327.191C489.58 327.191 489.141 327.596 489.141 328.205C489.141 328.814 489.58 329.219 490.236 329.219ZM492.996 337V335.723H491.045V330.537H487.518V331.82H489.486V335.723H487.412V337H492.996ZM496.225 328.691V330.602H494.543V331.885H496.225V334.955C496.225 336.455 496.898 337.012 498.656 337.012C498.785 337.012 500.062 337 500.127 336.988V335.723C500.057 335.729 498.938 335.734 498.785 335.734C498.17 335.734 497.824 335.459 497.824 334.973V331.885H500.203V330.602H497.795V328.691H496.225ZM506.379 335.184C506.262 335.605 505.752 335.898 505.107 335.898C504.27 335.898 503.725 335.348 503.725 334.504V334.152H507.891V333.262C507.891 331.527 506.795 330.402 505.084 330.402C503.326 330.402 502.154 331.521 502.154 333.215V334.252C502.154 336.086 503.232 337.141 505.113 337.141C506.613 337.141 507.756 336.326 507.891 335.184H506.379ZM505.055 331.645C505.863 331.645 506.344 332.201 506.344 333.127H503.725C503.725 332.201 504.223 331.645 505.055 331.645ZM511.523 337.105C512.367 337.105 513.047 336.748 513.363 336.139H513.504V337H515.027V332.617C515.027 331.205 514.096 330.414 512.438 330.414C510.902 330.414 509.842 331.17 509.725 332.342H511.283C511.418 331.938 511.834 331.691 512.391 331.691C513.053 331.691 513.439 332.02 513.439 332.582V333.098L511.928 333.191C510.334 333.303 509.484 333.988 509.484 335.154C509.484 336.32 510.305 337.105 511.523 337.105ZM512.074 335.822C511.453 335.822 511.066 335.518 511.066 335.037C511.066 334.539 511.447 334.252 512.197 334.205L513.439 334.129V334.598C513.439 335.318 512.871 335.822 512.074 335.822ZM519.393 339.039L520.453 334.99H518.619L517.986 339.039H519.393ZM536.215 334.229C536.215 335.137 535.676 335.676 534.785 335.676C533.736 335.676 533.197 334.99 533.197 333.637V331.908C533.197 330.561 533.73 329.869 534.762 329.869C535.588 329.869 536.168 330.449 536.209 331.34H537.902C537.855 329.494 536.678 328.375 534.809 328.375C532.723 328.375 531.504 329.67 531.504 331.908V333.637C531.504 335.875 532.723 337.17 534.809 337.17C536.678 337.17 537.908 336.027 537.908 334.264V332.506H534.639V333.76H536.215V334.229ZM543.469 335.184C543.352 335.605 542.842 335.898 542.197 335.898C541.359 335.898 540.814 335.348 540.814 334.504V334.152H544.98V333.262C544.98 331.527 543.885 330.402 542.174 330.402C540.416 330.402 539.244 331.521 539.244 333.215V334.252C539.244 336.086 540.322 337.141 542.203 337.141C543.703 337.141 544.846 336.326 544.98 335.184H543.469ZM542.145 331.645C542.953 331.645 543.434 332.201 543.434 333.127H540.814C540.814 332.201 541.312 331.645 542.145 331.645ZM549.363 334.135C549.363 332.746 550.107 332.055 551.631 332.055C551.994 332.055 552.416 332.131 552.709 332.242V330.502C552.48 330.414 552.152 330.367 551.789 330.367C550.57 330.367 549.908 330.912 549.627 332.195H549.375V330.537H546.48V331.721H547.828V335.822H546.598V337H551.238V335.822H549.363V334.135ZM556.781 334.135C556.781 332.746 557.525 332.055 559.049 332.055C559.412 332.055 559.834 332.131 560.127 332.242V330.502C559.898 330.414 559.57 330.367 559.207 330.367C557.988 330.367 557.326 330.912 557.045 332.195H556.793V330.537H553.898V331.721H555.246V335.822H554.016V337H558.656V335.822H556.781V334.135ZM564.416 329.219C565.072 329.219 565.518 328.814 565.518 328.205C565.518 327.596 565.072 327.191 564.416 327.191C563.76 327.191 563.32 327.596 563.32 328.205C563.32 328.814 563.76 329.219 564.416 329.219ZM567.176 337V335.723H565.225V330.537H561.697V331.82H563.666V335.723H561.592V337H567.176ZM570.404 328.691V330.602H568.723V331.885H570.404V334.955C570.404 336.455 571.078 337.012 572.836 337.012C572.965 337.012 574.242 337 574.307 336.988V335.723C574.236 335.729 573.117 335.734 572.965 335.734C572.35 335.734 572.004 335.459 572.004 334.973V331.885H574.383V330.602H571.975V328.691H570.404ZM578.736 339.039L579.797 334.99H577.963L577.33 339.039H578.736ZM596.918 332.793C596.766 331.211 595.793 330.379 594.123 330.379C592.219 330.379 591.164 331.457 591.164 333.42V334.1C591.164 336.062 592.219 337.141 594.123 337.141C595.793 337.141 596.777 336.32 596.918 334.779H595.348C595.236 335.471 594.814 335.805 594.111 335.805C593.25 335.805 592.775 335.16 592.775 333.977V333.543C592.775 332.359 593.25 331.715 594.111 331.715C594.809 331.715 595.242 332.066 595.348 332.793H596.918ZM601.23 339.432C603.117 339.432 604.283 338.5 604.283 336.994V330.537H602.707V331.639H602.59C602.379 330.906 601.658 330.432 600.721 330.432C599.174 330.432 598.266 331.445 598.266 333.209V334.188C598.266 335.934 599.156 336.965 600.645 336.965C601.605 336.965 602.355 336.479 602.555 335.752H602.678V337.023C602.678 337.832 602.186 338.254 601.254 338.254C600.545 338.254 600.029 337.99 599.918 337.574H598.354C598.459 338.723 599.555 339.432 601.23 339.432ZM599.906 334.141V333.209C599.906 332.336 600.439 331.779 601.277 331.779C602.121 331.779 602.654 332.33 602.654 333.209V334.141C602.654 335.02 602.121 335.57 601.277 335.57C600.439 335.57 599.906 335.02 599.906 334.141ZM608.924 329.219C609.58 329.219 610.025 328.814 610.025 328.205C610.025 327.596 609.58 327.191 608.924 327.191C608.268 327.191 607.828 327.596 607.828 328.205C607.828 328.814 608.268 329.219 608.924 329.219ZM611.684 337V335.723H609.732V330.537H606.205V331.82H608.174V335.723H606.1V337H611.684ZM614.912 328.691V330.602H613.23V331.885H614.912V334.955C614.912 336.455 615.586 337.012 617.344 337.012C617.473 337.012 618.75 337 618.814 336.988V335.723C618.744 335.729 617.625 335.734 617.473 335.734C616.857 335.734 616.512 335.459 616.512 334.973V331.885H618.891V330.602H616.482V328.691H614.912ZM211.963 357.889L213.451 361H215.326L213.633 357.613C214.553 357.25 215.133 356.336 215.133 355.24C215.133 353.564 214.008 352.545 212.168 352.545H209.098V361H210.756V357.889H211.963ZM210.756 353.904H211.951C212.889 353.904 213.439 354.408 213.439 355.246C213.439 356.102 212.877 356.611 211.934 356.611H210.756V353.904ZM219.48 353.219C220.137 353.219 220.582 352.814 220.582 352.205C220.582 351.596 220.137 351.191 219.48 351.191C218.824 351.191 218.385 351.596 218.385 352.205C218.385 352.814 218.824 353.219 219.48 353.219ZM222.24 361V359.723H220.289V354.537H216.762V355.82H218.73V359.723H216.656V361H222.24ZM226.09 361.1C227.039 361.1 227.678 360.672 227.9 359.887H228.023V361H229.676V352.076H228V355.639H227.883C227.666 354.865 227.021 354.432 226.09 354.432C224.613 354.432 223.734 355.451 223.734 357.209V358.322C223.734 360.08 224.613 361.1 226.09 361.1ZM226.711 359.711C225.879 359.711 225.369 359.166 225.369 358.275V357.209C225.369 356.318 225.879 355.779 226.711 355.779C227.537 355.779 228.041 356.318 228.041 357.209V358.275C228.041 359.166 227.537 359.711 226.711 359.711ZM234.316 353.219C234.973 353.219 235.418 352.814 235.418 352.205C235.418 351.596 234.973 351.191 234.316 351.191C233.66 351.191 233.221 351.596 233.221 352.205C233.221 352.814 233.66 353.219 234.316 353.219ZM237.076 361V359.723H235.125V354.537H231.598V355.82H233.566V359.723H231.492V361H237.076ZM244.564 356.793C244.412 355.211 243.439 354.379 241.77 354.379C239.865 354.379 238.811 355.457 238.811 357.42V358.1C238.811 360.062 239.865 361.141 241.77 361.141C243.439 361.141 244.424 360.32 244.564 358.779H242.994C242.883 359.471 242.461 359.805 241.758 359.805C240.896 359.805 240.422 359.16 240.422 357.977V357.543C240.422 356.359 240.896 355.715 241.758 355.715C242.455 355.715 242.889 356.066 242.994 356.793H244.564ZM251.936 354.537H250.336V358.275C250.336 359.166 249.803 359.734 248.982 359.734C248.168 359.734 247.787 359.283 247.787 358.334V354.537H246.182V358.721C246.182 360.297 246.932 361.141 248.338 361.141C249.27 361.141 249.967 360.695 250.283 359.916H250.383V361H251.936V354.537ZM259.33 361V359.723H257.402V352.076H253.852V353.354H255.797V359.723H253.746V361H259.33ZM263.895 361.141C265.717 361.141 266.865 360.033 266.865 358.27V357.273C266.865 355.51 265.717 354.402 263.895 354.402C262.072 354.402 260.924 355.51 260.924 357.273V358.27C260.924 360.033 262.072 361.141 263.895 361.141ZM263.895 355.715C264.756 355.715 265.289 356.336 265.289 357.338V358.205C265.289 359.201 264.756 359.828 263.895 359.828C263.033 359.828 262.5 359.201 262.5 358.205V357.338C262.5 356.336 263.033 355.715 263.895 355.715ZM274.189 354.537H272.59V358.275C272.59 359.166 272.057 359.734 271.236 359.734C270.422 359.734 270.041 359.283 270.041 358.334V354.537H268.436V358.721C268.436 360.297 269.186 361.141 270.592 361.141C271.523 361.141 272.221 360.695 272.537 359.916H272.637V361H274.189V354.537ZM276.117 356.424C276.117 357.42 276.732 358.053 277.945 358.316L278.912 358.521C279.592 358.668 279.838 358.844 279.838 359.207C279.838 359.629 279.416 359.904 278.76 359.904C278.092 359.904 277.658 359.658 277.559 359.213H275.977C276.064 360.426 277.084 361.135 278.736 361.135C280.418 361.135 281.484 360.309 281.484 359.002C281.484 358.018 280.904 357.461 279.598 357.191L278.596 356.986C277.969 356.857 277.699 356.646 277.699 356.295C277.699 355.885 278.104 355.609 278.713 355.609C279.311 355.609 279.732 355.873 279.809 356.301H281.32C281.244 355.088 280.289 354.385 278.725 354.385C277.125 354.385 276.117 355.17 276.117 356.424ZM289.002 361V359.723H287.074V352.076H283.523V353.354H285.469V359.723H283.418V361H289.002ZM291.656 363.332C293.238 363.332 293.994 362.746 294.551 361.082L296.777 354.537H295.078L293.648 359.523H293.549L292.119 354.537H290.35L292.623 361.047L292.559 361.293C292.406 361.803 292.049 362.025 291.398 362.025C291.311 362.025 291.082 362.02 291.041 362.008V363.32C291.088 363.326 291.381 363.332 291.656 363.332ZM309.117 361.1C310.6 361.1 311.473 360.08 311.473 358.322V357.209C311.473 355.451 310.6 354.432 309.117 354.432C308.191 354.432 307.547 354.865 307.33 355.639H307.207V352.076H305.537V361H307.189V359.887H307.307C307.535 360.672 308.174 361.1 309.117 361.1ZM308.502 359.711C307.676 359.711 307.166 359.166 307.166 358.275V357.209C307.166 356.318 307.676 355.779 308.502 355.779C309.334 355.779 309.838 356.318 309.838 357.209V358.275C309.838 359.166 309.334 359.711 308.502 359.711ZM315.914 353.219C316.57 353.219 317.016 352.814 317.016 352.205C317.016 351.596 316.57 351.191 315.914 351.191C315.258 351.191 314.818 351.596 314.818 352.205C314.818 352.814 315.258 353.219 315.914 353.219ZM318.674 361V359.723H316.723V354.537H313.195V355.82H315.164V359.723H313.09V361H318.674ZM323.057 363.432C324.943 363.432 326.109 362.5 326.109 360.994V354.537H324.533V355.639H324.416C324.205 354.906 323.484 354.432 322.547 354.432C321 354.432 320.092 355.445 320.092 357.209V358.188C320.092 359.934 320.982 360.965 322.471 360.965C323.432 360.965 324.182 360.479 324.381 359.752H324.504V361.023C324.504 361.832 324.012 362.254 323.08 362.254C322.371 362.254 321.855 361.99 321.744 361.574H320.18C320.285 362.723 321.381 363.432 323.057 363.432ZM321.732 358.141V357.209C321.732 356.336 322.266 355.779 323.104 355.779C323.947 355.779 324.48 356.33 324.48 357.209V358.141C324.48 359.02 323.947 359.57 323.104 359.57C322.266 359.57 321.732 359.02 321.732 358.141ZM341.338 355.984C341.338 354.959 340.904 354.402 340.107 354.402C339.492 354.402 339.041 354.807 338.906 355.498H338.736C338.602 354.801 338.191 354.402 337.605 354.402C336.967 354.402 336.527 354.807 336.381 355.551H336.211V354.537H334.811V361H336.17V356.564C336.17 356.09 336.422 355.785 336.809 355.785C337.189 355.785 337.406 356.061 337.406 356.523V361H338.748V356.564C338.748 356.09 339 355.785 339.381 355.785C339.75 355.785 339.979 356.061 339.979 356.523V361H341.338V355.984ZM345.492 361.141C347.314 361.141 348.463 360.033 348.463 358.27V357.273C348.463 355.51 347.314 354.402 345.492 354.402C343.67 354.402 342.521 355.51 342.521 357.273V358.27C342.521 360.033 343.67 361.141 345.492 361.141ZM345.492 355.715C346.354 355.715 346.887 356.336 346.887 357.338V358.205C346.887 359.201 346.354 359.828 345.492 359.828C344.631 359.828 344.098 359.201 344.098 358.205V357.338C344.098 356.336 344.631 355.715 345.492 355.715ZM350.033 361H351.633V357.268C351.633 356.371 352.166 355.803 352.986 355.803C353.801 355.803 354.182 356.254 354.182 357.203V361H355.787V356.822C355.787 355.246 355.037 354.402 353.631 354.402C352.699 354.402 352.002 354.842 351.686 355.621H351.586V354.537H350.033V361ZM360.328 361.141C362.15 361.141 363.299 360.033 363.299 358.27V357.273C363.299 355.51 362.15 354.402 360.328 354.402C358.506 354.402 357.357 355.51 357.357 357.273V358.27C357.357 360.033 358.506 361.141 360.328 361.141ZM360.328 355.715C361.189 355.715 361.723 356.336 361.723 357.338V358.205C361.723 359.201 361.189 359.828 360.328 359.828C359.467 359.828 358.934 359.201 358.934 358.205V357.338C358.934 356.336 359.467 355.715 360.328 355.715ZM367.623 358.135C367.623 356.746 368.367 356.055 369.891 356.055C370.254 356.055 370.676 356.131 370.969 356.242V354.502C370.74 354.414 370.412 354.367 370.049 354.367C368.83 354.367 368.168 354.912 367.887 356.195H367.635V354.537H364.74V355.721H366.088V359.822H364.857V361H369.498V359.822H367.623V358.135ZM376.564 359.184C376.447 359.605 375.938 359.898 375.293 359.898C374.455 359.898 373.91 359.348 373.91 358.504V358.152H378.076V357.262C378.076 355.527 376.98 354.402 375.27 354.402C373.512 354.402 372.34 355.521 372.34 357.215V358.252C372.34 360.086 373.418 361.141 375.299 361.141C376.799 361.141 377.941 360.326 378.076 359.184H376.564ZM375.24 355.645C376.049 355.645 376.529 356.201 376.529 357.127H373.91C373.91 356.201 374.408 355.645 375.24 355.645ZM383.303 354.438C382.359 354.438 381.721 354.871 381.492 355.65H381.369V354.537H379.723V363.15H381.393V359.904H381.51C381.727 360.678 382.371 361.111 383.303 361.111C384.785 361.111 385.658 360.092 385.658 358.328V357.215C385.658 355.457 384.785 354.438 383.303 354.438ZM382.688 355.832C383.514 355.832 384.023 356.377 384.023 357.262V358.334C384.023 359.219 383.514 359.764 382.688 359.764C381.855 359.764 381.352 359.225 381.352 358.334V357.262C381.352 356.371 381.855 355.832 382.688 355.832ZM390 361.141C391.822 361.141 392.971 360.033 392.971 358.27V357.273C392.971 355.51 391.822 354.402 390 354.402C388.178 354.402 387.029 355.51 387.029 357.273V358.27C387.029 360.033 388.178 361.141 390 361.141ZM390 355.715C390.861 355.715 391.395 356.336 391.395 357.338V358.205C391.395 359.201 390.861 359.828 390 359.828C389.139 359.828 388.605 359.201 388.605 358.205V357.338C388.605 356.336 389.139 355.715 390 355.715ZM394.805 356.424C394.805 357.42 395.42 358.053 396.633 358.316L397.6 358.521C398.279 358.668 398.525 358.844 398.525 359.207C398.525 359.629 398.104 359.904 397.447 359.904C396.779 359.904 396.346 359.658 396.246 359.213H394.664C394.752 360.426 395.771 361.135 397.424 361.135C399.105 361.135 400.172 360.309 400.172 359.002C400.172 358.018 399.592 357.461 398.285 357.191L397.283 356.986C396.656 356.857 396.387 356.646 396.387 356.295C396.387 355.885 396.791 355.609 397.4 355.609C397.998 355.609 398.42 355.873 398.496 356.301H400.008C399.932 355.088 398.977 354.385 397.412 354.385C395.812 354.385 394.805 355.17 394.805 356.424ZM404.414 363.039L405.475 358.99H403.641L403.008 363.039H404.414ZM419.625 361.17C421.5 361.17 422.76 359.969 422.76 358.164C422.76 356.518 421.67 355.375 420.111 355.375C419.32 355.375 418.682 355.668 418.318 356.201H418.213L418.395 353.945H422.244V352.545H417.076L416.678 357.432H418.283C418.588 356.922 419.051 356.664 419.66 356.664C420.562 356.664 421.178 357.285 421.178 358.205C421.178 359.119 420.568 359.734 419.66 359.734C418.875 359.734 418.283 359.277 418.184 358.598H416.578C416.625 360.127 417.855 361.17 419.625 361.17ZM427.09 361.176C429.123 361.176 430.271 359.588 430.271 356.77C430.271 353.951 429.123 352.363 427.09 352.363C425.062 352.363 423.914 353.951 423.914 356.77C423.914 359.588 425.062 361.176 427.09 361.176ZM425.543 356.77C425.543 354.807 426.088 353.74 427.09 353.74C427.752 353.74 428.209 354.197 428.449 355.064L425.543 356.986C425.543 356.916 425.543 356.846 425.543 356.77ZM427.09 359.799C426.434 359.799 425.977 359.348 425.736 358.486L428.643 356.564C428.643 356.635 428.643 356.699 428.643 356.77C428.643 358.738 428.098 359.799 427.09 359.799ZM434.508 361.176C436.541 361.176 437.689 359.588 437.689 356.77C437.689 353.951 436.541 352.363 434.508 352.363C432.48 352.363 431.332 353.951 431.332 356.77C431.332 359.588 432.48 361.176 434.508 361.176ZM432.961 356.77C432.961 354.807 433.506 353.74 434.508 353.74C435.17 353.74 435.627 354.197 435.867 355.064L432.961 356.986C432.961 356.916 432.961 356.846 432.961 356.77ZM434.508 359.799C433.852 359.799 433.395 359.348 433.154 358.486L436.061 356.564C436.061 356.635 436.061 356.699 436.061 356.77C436.061 358.738 435.516 359.799 434.508 359.799ZM441.504 363.039L442.564 358.99H440.73L440.098 363.039H441.504ZM449.344 361.176C451.377 361.176 452.525 359.588 452.525 356.77C452.525 353.951 451.377 352.363 449.344 352.363C447.316 352.363 446.168 353.951 446.168 356.77C446.168 359.588 447.316 361.176 449.344 361.176ZM447.797 356.77C447.797 354.807 448.342 353.74 449.344 353.74C450.006 353.74 450.463 354.197 450.703 355.064L447.797 356.986C447.797 356.916 447.797 356.846 447.797 356.77ZM449.344 359.799C448.688 359.799 448.23 359.348 447.99 358.486L450.896 356.564C450.896 356.635 450.896 356.699 450.896 356.77C450.896 358.738 450.352 359.799 449.344 359.799ZM456.762 361.176C458.795 361.176 459.943 359.588 459.943 356.77C459.943 353.951 458.795 352.363 456.762 352.363C454.734 352.363 453.586 353.951 453.586 356.77C453.586 359.588 454.734 361.176 456.762 361.176ZM455.215 356.77C455.215 354.807 455.76 353.74 456.762 353.74C457.424 353.74 457.881 354.197 458.121 355.064L455.215 356.986C455.215 356.916 455.215 356.846 455.215 356.77ZM456.762 359.799C456.105 359.799 455.648 359.348 455.408 358.486L458.314 356.564C458.314 356.635 458.314 356.699 458.314 356.77C458.314 358.738 457.77 359.799 456.762 359.799ZM464.18 361.176C466.213 361.176 467.361 359.588 467.361 356.77C467.361 353.951 466.213 352.363 464.18 352.363C462.152 352.363 461.004 353.951 461.004 356.77C461.004 359.588 462.152 361.176 464.18 361.176ZM462.633 356.77C462.633 354.807 463.178 353.74 464.18 353.74C464.842 353.74 465.299 354.197 465.539 355.064L462.633 356.986C462.633 356.916 462.633 356.846 462.633 356.77ZM464.18 359.799C463.523 359.799 463.066 359.348 462.826 358.486L465.732 356.564C465.732 356.635 465.732 356.699 465.732 356.77C465.732 358.738 465.188 359.799 464.18 359.799ZM472.348 357.965H474.779V356.512H472.348V354.068H470.842V356.512H468.41V357.965H470.842V360.408H472.348V357.965ZM486.311 358.135C486.311 356.746 487.055 356.055 488.578 356.055C488.941 356.055 489.363 356.131 489.656 356.242V354.502C489.428 354.414 489.1 354.367 488.736 354.367C487.518 354.367 486.855 354.912 486.574 356.195H486.322V354.537H483.428V355.721H484.775V359.822H483.545V361H488.186V359.822H486.311V358.135ZM495.252 359.184C495.135 359.605 494.625 359.898 493.98 359.898C493.143 359.898 492.598 359.348 492.598 358.504V358.152H496.764V357.262C496.764 355.527 495.668 354.402 493.957 354.402C492.199 354.402 491.027 355.521 491.027 357.215V358.252C491.027 360.086 492.105 361.141 493.986 361.141C495.486 361.141 496.629 360.326 496.764 359.184H495.252ZM493.928 355.645C494.736 355.645 495.217 356.201 495.217 357.127H492.598C492.598 356.201 493.096 355.645 493.928 355.645ZM501.99 354.438C501.047 354.438 500.408 354.871 500.18 355.65H500.057V354.537H498.41V363.15H500.08V359.904H500.197C500.414 360.678 501.059 361.111 501.99 361.111C503.473 361.111 504.346 360.092 504.346 358.328V357.215C504.346 355.457 503.473 354.438 501.99 354.438ZM501.375 355.832C502.201 355.832 502.711 356.377 502.711 357.262V358.334C502.711 359.219 502.201 359.764 501.375 359.764C500.543 359.764 500.039 359.225 500.039 358.334V357.262C500.039 356.371 500.543 355.832 501.375 355.832ZM508.688 361.141C510.51 361.141 511.658 360.033 511.658 358.27V357.273C511.658 355.51 510.51 354.402 508.688 354.402C506.865 354.402 505.717 355.51 505.717 357.273V358.27C505.717 360.033 506.865 361.141 508.688 361.141ZM508.688 355.715C509.549 355.715 510.082 356.336 510.082 357.338V358.205C510.082 359.201 509.549 359.828 508.688 359.828C507.826 359.828 507.293 359.201 507.293 358.205V357.338C507.293 356.336 507.826 355.715 508.688 355.715ZM513.492 356.424C513.492 357.42 514.107 358.053 515.32 358.316L516.287 358.521C516.967 358.668 517.213 358.844 517.213 359.207C517.213 359.629 516.791 359.904 516.135 359.904C515.467 359.904 515.033 359.658 514.934 359.213H513.352C513.439 360.426 514.459 361.135 516.111 361.135C517.793 361.135 518.859 360.309 518.859 359.002C518.859 358.018 518.279 357.461 516.973 357.191L515.971 356.986C515.344 356.857 515.074 356.646 515.074 356.295C515.074 355.885 515.479 355.609 516.088 355.609C516.686 355.609 517.107 355.873 517.184 356.301H518.695C518.619 355.088 517.664 354.385 516.1 354.385C514.5 354.385 513.492 355.17 513.492 356.424ZM523.617 353.219C524.273 353.219 524.719 352.814 524.719 352.205C524.719 351.596 524.273 351.191 523.617 351.191C522.961 351.191 522.521 351.596 522.521 352.205C522.521 352.814 522.961 353.219 523.617 353.219ZM526.377 361V359.723H524.426V354.537H520.898V355.82H522.867V359.723H520.793V361H526.377ZM529.605 352.691V354.602H527.924V355.885H529.605V358.955C529.605 360.455 530.279 361.012 532.037 361.012C532.166 361.012 533.443 361 533.508 360.988V359.723C533.438 359.729 532.318 359.734 532.166 359.734C531.551 359.734 531.205 359.459 531.205 358.973V355.885H533.584V354.602H531.176V352.691H529.605ZM538.359 361.141C540.182 361.141 541.33 360.033 541.33 358.27V357.273C541.33 355.51 540.182 354.402 538.359 354.402C536.537 354.402 535.389 355.51 535.389 357.273V358.27C535.389 360.033 536.537 361.141 538.359 361.141ZM538.359 355.715C539.221 355.715 539.754 356.336 539.754 357.338V358.205C539.754 359.201 539.221 359.828 538.359 359.828C537.498 359.828 536.965 359.201 536.965 358.205V357.338C536.965 356.336 537.498 355.715 538.359 355.715ZM545.654 358.135C545.654 356.746 546.398 356.055 547.922 356.055C548.285 356.055 548.707 356.131 549 356.242V354.502C548.771 354.414 548.443 354.367 548.08 354.367C546.861 354.367 546.199 354.912 545.918 356.195H545.666V354.537H542.771V355.721H544.119V359.822H542.889V361H547.529V359.822H545.654V358.135ZM553.289 353.219C553.945 353.219 554.391 352.814 554.391 352.205C554.391 351.596 553.945 351.191 553.289 351.191C552.633 351.191 552.193 351.596 552.193 352.205C552.193 352.814 552.633 353.219 553.289 353.219ZM556.049 361V359.723H554.098V354.537H550.57V355.82H552.539V359.723H550.465V361H556.049ZM562.014 359.184C561.896 359.605 561.387 359.898 560.742 359.898C559.904 359.898 559.359 359.348 559.359 358.504V358.152H563.525V357.262C563.525 355.527 562.43 354.402 560.719 354.402C558.961 354.402 557.789 355.521 557.789 357.215V358.252C557.789 360.086 558.867 361.141 560.748 361.141C562.248 361.141 563.391 360.326 563.525 359.184H562.014ZM560.689 355.645C561.498 355.645 561.979 356.201 561.979 357.127H559.359C559.359 356.201 559.857 355.645 560.689 355.645ZM565.418 356.424C565.418 357.42 566.033 358.053 567.246 358.316L568.213 358.521C568.893 358.668 569.139 358.844 569.139 359.207C569.139 359.629 568.717 359.904 568.061 359.904C567.393 359.904 566.959 359.658 566.859 359.213H565.277C565.365 360.426 566.385 361.135 568.037 361.135C569.719 361.135 570.785 360.309 570.785 359.002C570.785 358.018 570.205 357.461 568.898 357.191L567.896 356.986C567.27 356.857 567 356.646 567 356.295C567 355.885 567.404 355.609 568.014 355.609C568.611 355.609 569.033 355.873 569.109 356.301H570.621C570.545 355.088 569.59 354.385 568.025 354.385C566.426 354.385 565.418 355.17 565.418 356.424Z" fill="#6078A9"/>
<defs>
<filter id="filter0_d" x="109.13" y="0" width="541.367" height="33.6499" filterUnits="userSpaceOnUse" color-interpolation-filters="sRGB">
<feFlood flood-opacity="0" result="BackgroundImageFix"/>
<feColorMatrix in="SourceAlpha" type="matrix" values="0 0 0 0 0 0 0 0 0 0 0 0 0 0 0 0 0 0 127 0"/>
<feOffset dy="4"/>
<feGaussianBlur stdDeviation="2"/>
<feColorMatrix type="matrix" values="0 0 0 0 0 0 0 0 0 0 0 0 0 0 0 0 0 0 0.25 0"/>
<feBlend mode="normal" in2="BackgroundImageFix" result="effect1_dropShadow"/>
<feBlend mode="normal" in="SourceGraphic" in2="effect1_dropShadow" result="shape"/>
</filter>
<clipPath id="clip0">
<rect width="56" height="58" fill="white" transform="translate(143 224)"/>
</clipPath>
</defs>
</svg>
