<svg xmlns="http://www.w3.org/2000/svg" xmlns:xlink="http://www.w3.org/1999/xlink" viewBox="0 0 481.94 83.7"><defs><style>.a{fill:none;}.b{clip-path:url(#a);}.c{fill:#f96216;}.c,.d,.e{fill-rule:evenodd;}.d{fill:#b200f8;}.e{fill:#00b4f2;}.f{fill:#fff;}</style><clipPath id="a" transform="translate(0 -0.15)"><rect class="a" width="486" height="84"/></clipPath></defs><g class="b"><path class="c" d="M24.32,10.81,43,77.64a8.64,8.64,0,0,0,10.58,5.91,8.42,8.42,0,0,0,6-10.36L40.93,6.35A8.63,8.63,0,0,0,30.35.45,8.42,8.42,0,0,0,24.32,10.81Z" transform="translate(0 -0.15)"/><path class="d" d="M58.91,10.35,12.14,62A8.32,8.32,0,0,0,12.88,74,8.73,8.73,0,0,0,25,73.23L71.8,21.53a8.31,8.31,0,0,0-.73-11.9A8.74,8.74,0,0,0,58.91,10.35Z" transform="translate(0 -0.15)"/><path class="e" d="M5.91,39.2l66.7,21.59a8.63,8.63,0,0,0,10.87-5.35A8.38,8.38,0,0,0,78,44.79L11.31,23.18A8.65,8.65,0,0,0,.44,28.54,8.39,8.39,0,0,0,5.91,39.2Z" transform="translate(0 -0.15)"/><path class="f" d="M127.06,52.46a4.64,4.64,0,0,0-1.72-3.74,17,17,0,0,0-4.25-2.59c-1.68-.82-3.53-1.63-5.55-2.45a32.92,32.92,0,0,1-5.54-3.1,16.85,16.85,0,0,1-4.25-4.6,13.39,13.39,0,0,1-1.65-7,15,15,0,0,1,1.22-6.33,12,12,0,0,1,3.46-4.54,15.17,15.17,0,0,1,5.4-2.66,25.46,25.46,0,0,1,6.91-.87,42,42,0,0,1,8.28.79,20.47,20.47,0,0,1,6.41,2.16l-3.1,8.28a16.87,16.87,0,0,0-4.75-1.8,26.15,26.15,0,0,0-6.84-.86,8.93,8.93,0,0,0-5.33,1.37A4.36,4.36,0,0,0,114,28.2a4.56,4.56,0,0,0,1.66,3.6,20.45,20.45,0,0,0,4.24,2.66q2.6,1.23,5.55,2.52A27.6,27.6,0,0,1,131,40.15a14.64,14.64,0,0,1,4.25,4.54,12.07,12.07,0,0,1,1.73,6.69,16.54,16.54,0,0,1-1.37,7,12.66,12.66,0,0,1-3.74,4.82A15.38,15.38,0,0,1,126,66.07a27.74,27.74,0,0,1-7.48.94A40.26,40.26,0,0,1,109,66a28.68,28.68,0,0,1-6-2l3.17-8.42a21.3,21.3,0,0,0,2,.94q1.29.49,2.88.93a32.16,32.16,0,0,0,3.31.72,23.4,23.4,0,0,0,3.67.29,12.75,12.75,0,0,0,6.7-1.44A5,5,0,0,0,127.06,52.46ZM141.56,48q0-9.15,4.46-14t12.53-5A18.86,18.86,0,0,1,166,30.36a13.78,13.78,0,0,1,5.25,3.89,15.7,15.7,0,0,1,3.1,6A26.55,26.55,0,0,1,175.47,48q0,9.15-4.47,14.11c-2.92,3.27-7.08,4.9-12.45,4.9a18.83,18.83,0,0,1-7.49-1.37,14.75,14.75,0,0,1-5.33-3.82,17.3,17.3,0,0,1-3.17-6A28.41,28.41,0,0,1,141.56,48Zm9.64,0a20.8,20.8,0,0,0,.44,4.39,12.15,12.15,0,0,0,1.29,3.53,6.73,6.73,0,0,0,2.23,2.38,7,7,0,0,0,3.39.79A6.14,6.14,0,0,0,164,56.42q1.8-2.66,1.8-8.42a16.53,16.53,0,0,0-1.66-8,5.83,5.83,0,0,0-5.61-3.1,6.37,6.37,0,0,0-5.4,2.59Q151.2,42.1,151.2,48ZM191,30V50.45q0,4.39,1,6.33t4.11,1.95a6.24,6.24,0,0,0,4.39-1.59,9.47,9.47,0,0,0,2.66-3.88V30h9.36V55.06c0,2,.1,3.91.29,5.83a35.45,35.45,0,0,0,.87,5.11h-7.06l-1.66-5.33h-.28A13.45,13.45,0,0,1,200,65.21a13.17,13.17,0,0,1-7,1.8,15.43,15.43,0,0,1-4.89-.72,8,8,0,0,1-3.6-2.38,11.31,11.31,0,0,1-2.23-4.46,29,29,0,0,1-.72-7.06V30Zm49.61,8.78a12.39,12.39,0,0,0-4-.79,6.65,6.65,0,0,0-4.25,1.37,6.29,6.29,0,0,0-2.23,3.38V66H220.7V30H228l1.08,4.75h.29a9.81,9.81,0,0,1,3.31-4.1,8.4,8.4,0,0,1,4.9-1.44,13.53,13.53,0,0,1,4.24.79Zm30.86,25a15.06,15.06,0,0,1-5.26,2.37,22.48,22.48,0,0,1-6.26.87,17.83,17.83,0,0,1-7.35-1.37,12.63,12.63,0,0,1-4.82-3.82,16.68,16.68,0,0,1-2.74-6,36.14,36.14,0,0,1-.79-7.78q0-9.15,4.11-14t11.95-5a24.93,24.93,0,0,1,6.33.65A20.87,20.87,0,0,1,271,31.3l-2.24,7.63a18.23,18.23,0,0,0-3.31-1.23,14.33,14.33,0,0,0-3.67-.43,7,7,0,0,0-5.9,2.59c-1.35,1.68-2,4.4-2,8.14a17.2,17.2,0,0,0,.5,4.25,10.35,10.35,0,0,0,1.52,3.38,7.49,7.49,0,0,0,2.59,2.31,8.82,8.82,0,0,0,3.81.79,12.24,12.24,0,0,0,4-.58,15.39,15.39,0,0,0,2.95-1.51Zm33.26-.87a18.64,18.64,0,0,1-5.9,3A26.32,26.32,0,0,1,290.94,67q-8.71,0-12.74-5t-4-14q0-9.51,4.53-14.26c3-3.16,7.27-4.75,12.75-4.75a19.73,19.73,0,0,1,5.32.72,12.28,12.28,0,0,1,4.61,2.38,11.64,11.64,0,0,1,3.24,4.46,17.43,17.43,0,0,1,1.23,7,27.27,27.27,0,0,1-.22,3.24,35.37,35.37,0,0,1-.51,3.6h-21.6q.23,4.53,2.31,6.84t6.91,2.3a15.07,15.07,0,0,0,5.26-.86,15.45,15.45,0,0,0,3.6-1.88ZM291.3,36.48a6.6,6.6,0,0,0-5.47,2.23,10.87,10.87,0,0,0-2.09,5.83h13.39q.3-3.88-1.22-6A5.21,5.21,0,0,0,291.3,36.48ZM342.56,66q0,7.84-4.25,11.52t-11.88,3.74a37.06,37.06,0,0,1-8.21-.72A20.65,20.65,0,0,1,313.76,79l1.94-7.41c1.11.43,2.38.86,3.82,1.29a19.94,19.94,0,0,0,5.47.65c3.27,0,5.47-.72,6.63-2.16a8.76,8.76,0,0,0,1.8-5.9V63.19h-.29q-2.52,3.39-8.93,3.39-7,0-10.44-4.32t-3.38-13.54q0-9.64,4.6-14.62t13.4-5a46.83,46.83,0,0,1,8.2.64,35,35,0,0,1,6,1.52Zm-15.84-6.91a6.28,6.28,0,0,0,4.18-1.23,7.61,7.61,0,0,0,2.3-3.67V38a14.48,14.48,0,0,0-5.54-.93A6.59,6.59,0,0,0,322,39.79c-1.34,1.78-2,4.63-2,8.57,0,3.5.58,6.17,1.73,8A5.53,5.53,0,0,0,326.72,59.09Zm43.86-20.31a12.39,12.39,0,0,0-4-.79,6.65,6.65,0,0,0-4.25,1.37,6.23,6.23,0,0,0-2.23,3.38V66h-9.36V30H358l1.08,4.75h.29a9.81,9.81,0,0,1,3.31-4.1,8.39,8.39,0,0,1,4.89-1.44,13.53,13.53,0,0,1,4.25.79Zm5.15-6.69a29.34,29.34,0,0,1,6.84-2,42,42,0,0,1,8.28-.79,18,18,0,0,1,6.27.94,8.86,8.86,0,0,1,4,2.52,9,9,0,0,1,2.08,4,18.78,18.78,0,0,1,.65,5.18q0,3.16-.21,6.41c-.15,2.11-.24,4.2-.29,6.26s.07,4.08.21,6.05a23.17,23.17,0,0,0,1.08,5.47H397l-1.51-5h-.36a13,13,0,0,1-4,3.89,12.13,12.13,0,0,1-6.55,1.59,13.43,13.43,0,0,1-4.54-.72,10.69,10.69,0,0,1-3.46-2.16,10.38,10.38,0,0,1-2.23-3.32,11.27,11.27,0,0,1-.79-4.32,10,10,0,0,1,1.44-5.54,10.56,10.56,0,0,1,4.25-3.67,20.34,20.34,0,0,1,6.62-2,45.84,45.84,0,0,1,8.64-.36q.51-4-.57-5.76T389.05,37a33.81,33.81,0,0,0-6,.58A21.81,21.81,0,0,0,378,39.07Zm11.88,26.78a7.43,7.43,0,0,0,4.47-1.22,9.16,9.16,0,0,0,2.44-2.74V50.23a26.11,26.11,0,0,0-4.32-.07,15.62,15.62,0,0,0-3.6.65,6.06,6.06,0,0,0-2.52,1.44,3.21,3.21,0,0,0-.93,2.37,4.27,4.27,0,0,0,1.15,3.17A4.83,4.83,0,0,0,387.61,58.87ZM411.67,30h6.84l1.08,4.32h.29a12,12,0,0,1,4.39-4,13.76,13.76,0,0,1,6.26-1.3q6.77,0,10.15,4.32t3.39,13.75A30.14,30.14,0,0,1,443,55.42a17.31,17.31,0,0,1-3.24,6.26,13.55,13.55,0,0,1-5.19,4,16.78,16.78,0,0,1-7,1.37,15.49,15.49,0,0,1-3.67-.36,11.39,11.39,0,0,1-2.88-1V80.4h-9.36Zm16.05,6.91a6.41,6.41,0,0,0-4.32,1.37,9,9,0,0,0-2.37,4.1v15a7.08,7.08,0,0,0,5.33,1.73,7,7,0,0,0,6-2.81q2-2.88,2-9.43a14.12,14.12,0,0,0-1.59-7.35A5.53,5.53,0,0,0,427.72,36.91ZM472.58,66V45.55q0-4.39-1.22-6.33t-4.47-1.95a6.76,6.76,0,0,0-4.39,1.66,7.51,7.51,0,0,0-2.59,4.1V66h-9.36V15.6h9.36V34h.29a13,13,0,0,1,4.25-3.67,13.31,13.31,0,0,1,6.4-1.37,14.79,14.79,0,0,1,4.83.72,7.55,7.55,0,0,1,3.45,2.38,10.15,10.15,0,0,1,2.09,4.53,28.71,28.71,0,0,1,.72,7V66Z" transform="translate(0 -0.15)"/></g></svg>