<svg width="486" height="84" viewBox="0 0 486 84" fill="none" xmlns="http://www.w3.org/2000/svg">
<g clip-path="url(#clip0)">
<path fill-rule="evenodd" clip-rule="evenodd" d="M24.3238 10.8076L42.999 77.6401C44.2565 82.1305 48.9911 84.7754 53.5778 83.5497C58.1647 82.3171 60.8634 77.679 59.6097 73.1886L40.9308 6.35258C39.6733 1.86232 34.9388 -0.782524 30.3519 0.446573C25.7687 1.67567 23.0663 6.31384 24.3238 10.8076Z" fill="#F96216"/>
<path fill-rule="evenodd" clip-rule="evenodd" d="M58.9119 10.3478L12.1428 62.0437C8.99003 65.5302 9.31792 70.8623 12.8778 73.9509C16.4378 77.0394 21.8785 76.7156 25.0313 73.2288L71.8004 21.5329C74.9531 18.0463 74.6253 12.7179 71.0652 9.62933C67.5053 6.54074 62.0683 6.86122 58.9119 10.3478Z" fill="#B200F8"/>
<path fill-rule="evenodd" clip-rule="evenodd" d="M5.90838 39.1993L72.6065 60.7948C77.1213 62.2597 81.9893 59.858 83.4845 55.4381C84.9798 51.015 82.5261 46.2464 78.0147 44.7884L11.3131 23.1823C6.79838 21.7243 1.9305 24.1191 0.438791 28.5425C-1.05652 32.9658 1.39363 37.7343 5.90838 39.1993Z" fill="#00B4F2"/>
<path d="M127.064 52.464C127.064 50.928 126.488 49.68 125.336 48.72C124.232 47.76 122.816 46.896 121.088 46.128C119.408 45.312 117.56 44.496 115.544 43.68C113.576 42.816 111.728 41.784 110 40.584C108.32 39.336 106.904 37.8 105.752 35.976C104.648 34.152 104.096 31.824 104.096 28.992C104.096 26.544 104.504 24.432 105.32 22.656C106.136 20.832 107.288 19.32 108.776 18.12C110.312 16.92 112.112 16.032 114.176 15.456C116.24 14.88 118.544 14.592 121.088 14.592C124.016 14.592 126.776 14.856 129.368 15.384C131.96 15.864 134.096 16.584 135.776 17.544L132.68 25.824C131.624 25.152 130.04 24.552 127.928 24.024C125.816 23.448 123.536 23.16 121.088 23.16C118.784 23.16 117.008 23.616 115.76 24.528C114.56 25.44 113.96 26.664 113.96 28.2C113.96 29.64 114.512 30.84 115.616 31.8C116.768 32.76 118.184 33.648 119.864 34.464C121.592 35.28 123.44 36.12 125.408 36.984C127.424 37.848 129.272 38.904 130.952 40.152C132.68 41.352 134.096 42.864 135.2 44.688C136.352 46.464 136.928 48.696 136.928 51.384C136.928 54.072 136.472 56.4 135.56 58.368C134.696 60.288 133.448 61.896 131.816 63.192C130.232 64.488 128.288 65.448 125.984 66.072C123.728 66.696 121.232 67.008 118.496 67.008C114.896 67.008 111.728 66.672 108.992 66C106.256 65.328 104.24 64.656 102.944 63.984L106.112 55.56C106.64 55.848 107.312 56.16 108.128 56.496C108.992 56.832 109.952 57.144 111.008 57.432C112.064 57.72 113.168 57.96 114.32 58.152C115.52 58.344 116.744 58.44 117.992 58.44C120.92 58.44 123.152 57.96 124.688 57C126.272 55.992 127.064 54.48 127.064 52.464ZM141.556 48C141.556 41.904 143.044 37.224 146.02 33.96C148.996 30.648 153.172 28.992 158.548 28.992C161.428 28.992 163.924 29.448 166.036 30.36C168.148 31.272 169.9 32.568 171.292 34.248C172.684 35.88 173.716 37.872 174.388 40.224C175.108 42.576 175.468 45.168 175.468 48C175.468 54.096 173.98 58.8 171.004 62.112C168.076 65.376 163.924 67.008 158.548 67.008C155.668 67.008 153.172 66.552 151.06 65.64C148.948 64.728 147.172 63.456 145.732 61.824C144.34 60.144 143.284 58.128 142.564 55.776C141.892 53.424 141.556 50.832 141.556 48ZM151.204 48C151.204 49.584 151.348 51.048 151.636 52.392C151.924 53.736 152.356 54.912 152.932 55.92C153.508 56.928 154.252 57.72 155.164 58.296C156.124 58.824 157.252 59.088 158.548 59.088C160.996 59.088 162.82 58.2 164.02 56.424C165.22 54.648 165.82 51.84 165.82 48C165.82 44.688 165.268 42.024 164.164 40.008C163.06 37.944 161.188 36.912 158.548 36.912C156.244 36.912 154.444 37.776 153.148 39.504C151.852 41.232 151.204 44.064 151.204 48ZM190.956 30V50.448C190.956 53.376 191.292 55.488 191.964 56.784C192.684 58.08 194.052 58.728 196.068 58.728C197.844 58.728 199.308 58.2 200.46 57.144C201.66 56.088 202.548 54.792 203.124 53.256V30H212.484V55.056C212.484 57.024 212.58 58.968 212.772 60.888C212.964 62.76 213.252 64.464 213.636 66H206.58L204.924 60.672H204.636C203.532 62.496 201.996 64.008 200.028 65.208C198.06 66.408 195.732 67.008 193.044 67.008C191.22 67.008 189.588 66.768 188.148 66.288C186.708 65.808 185.508 65.016 184.548 63.912C183.588 62.808 182.844 61.32 182.316 59.448C181.836 57.576 181.596 55.224 181.596 52.392V30H190.956ZM240.57 38.784C239.082 38.256 237.738 37.992 236.538 37.992C234.858 37.992 233.442 38.448 232.29 39.36C231.186 40.224 230.442 41.352 230.058 42.744V66H220.698V30H227.97L229.05 34.752H229.338C230.154 32.976 231.258 31.608 232.65 30.648C234.042 29.688 235.674 29.208 237.546 29.208C238.794 29.208 240.21 29.472 241.794 30L240.57 38.784ZM271.428 63.768C269.988 64.824 268.236 65.616 266.172 66.144C264.156 66.72 262.068 67.008 259.908 67.008C257.028 67.008 254.58 66.552 252.564 65.64C250.596 64.728 248.988 63.456 247.74 61.824C246.492 60.144 245.58 58.128 245.004 55.776C244.476 53.424 244.212 50.832 244.212 48C244.212 41.904 245.58 37.224 248.316 33.96C251.052 30.648 255.036 28.992 260.268 28.992C262.908 28.992 265.02 29.208 266.604 29.64C268.236 30.072 269.7 30.624 270.996 31.296L268.764 38.928C267.66 38.4 266.556 37.992 265.452 37.704C264.396 37.416 263.172 37.272 261.78 37.272C259.188 37.272 257.22 38.136 255.876 39.864C254.532 41.544 253.86 44.256 253.86 48C253.86 49.536 254.028 50.952 254.364 52.248C254.7 53.544 255.204 54.672 255.876 55.632C256.548 56.592 257.412 57.36 258.468 57.936C259.572 58.464 260.844 58.728 262.284 58.728C263.868 58.728 265.212 58.536 266.316 58.152C267.42 57.72 268.404 57.216 269.268 56.64L271.428 63.768ZM304.693 62.904C303.253 64.056 301.285 65.04 298.789 65.856C296.341 66.624 293.725 67.008 290.941 67.008C285.133 67.008 280.885 65.328 278.197 61.968C275.509 58.56 274.165 53.904 274.165 48C274.165 41.664 275.677 36.912 278.701 33.744C281.725 30.576 285.973 28.992 291.445 28.992C293.269 28.992 295.045 29.232 296.773 29.712C298.501 30.192 300.037 30.984 301.381 32.088C302.725 33.192 303.805 34.68 304.621 36.552C305.437 38.424 305.845 40.752 305.845 43.536C305.845 44.544 305.773 45.624 305.629 46.776C305.533 47.928 305.365 49.128 305.125 50.376H283.525C283.669 53.4 284.437 55.68 285.829 57.216C287.269 58.752 289.573 59.52 292.741 59.52C294.709 59.52 296.461 59.232 297.997 58.656C299.581 58.032 300.781 57.408 301.597 56.784L304.693 62.904ZM291.301 36.48C288.853 36.48 287.029 37.224 285.829 38.712C284.677 40.152 283.981 42.096 283.741 44.544H297.133C297.325 41.952 296.917 39.96 295.909 38.568C294.949 37.176 293.413 36.48 291.301 36.48ZM342.56 66C342.56 71.232 341.144 75.072 338.312 77.52C335.48 80.016 331.52 81.264 326.432 81.264C322.976 81.264 320.24 81.024 318.224 80.544C316.256 80.064 314.768 79.56 313.76 79.032L315.704 71.616C316.808 72.048 318.08 72.48 319.52 72.912C321.008 73.344 322.832 73.56 324.992 73.56C328.256 73.56 330.464 72.84 331.616 71.4C332.816 70.008 333.416 68.04 333.416 65.496V63.192H333.128C331.448 65.448 328.472 66.576 324.2 66.576C319.544 66.576 316.064 65.136 313.76 62.256C311.504 59.376 310.376 54.864 310.376 48.72C310.376 42.288 311.912 37.416 314.984 34.104C318.056 30.792 322.52 29.136 328.376 29.136C331.448 29.136 334.184 29.352 336.584 29.784C339.032 30.216 341.024 30.72 342.56 31.296V66ZM326.72 59.088C328.544 59.088 329.936 58.68 330.896 57.864C331.904 57.048 332.672 55.824 333.2 54.192V37.992C331.712 37.368 329.864 37.056 327.656 37.056C325.256 37.056 323.384 37.968 322.04 39.792C320.696 41.568 320.024 44.424 320.024 48.36C320.024 51.864 320.6 54.528 321.752 56.352C322.904 58.176 324.56 59.088 326.72 59.088ZM370.578 38.784C369.09 38.256 367.746 37.992 366.546 37.992C364.866 37.992 363.45 38.448 362.298 39.36C361.194 40.224 360.45 41.352 360.066 42.744V66H350.706V30H357.978L359.058 34.752H359.346C360.162 32.976 361.266 31.608 362.658 30.648C364.05 29.688 365.682 29.208 367.554 29.208C368.802 29.208 370.218 29.472 371.802 30L370.578 38.784ZM375.732 32.088C377.652 31.224 379.932 30.552 382.572 30.072C385.212 29.544 387.972 29.28 390.852 29.28C393.348 29.28 395.436 29.592 397.116 30.216C398.796 30.792 400.116 31.632 401.076 32.736C402.084 33.84 402.78 35.16 403.164 36.696C403.596 38.232 403.812 39.96 403.812 41.88C403.812 43.992 403.74 46.128 403.596 48.288C403.452 50.4 403.356 52.488 403.308 54.552C403.308 56.616 403.38 58.632 403.524 60.6C403.668 62.52 404.028 64.344 404.604 66.072H396.972L395.46 61.104H395.1C394.14 62.592 392.796 63.888 391.068 64.992C389.388 66.048 387.204 66.576 384.516 66.576C382.836 66.576 381.324 66.336 379.98 65.856C378.636 65.328 377.484 64.608 376.524 63.696C375.564 62.736 374.82 61.632 374.292 60.384C373.764 59.088 373.5 57.648 373.5 56.064C373.5 53.856 373.98 52.008 374.94 50.52C375.948 48.984 377.364 47.76 379.188 46.848C381.06 45.888 383.268 45.24 385.812 44.904C388.404 44.52 391.284 44.4 394.452 44.544C394.788 41.856 394.596 39.936 393.876 38.784C393.156 37.584 391.548 36.984 389.052 36.984C387.18 36.984 385.188 37.176 383.076 37.56C381.012 37.944 379.308 38.448 377.964 39.072L375.732 32.088ZM387.612 58.872C389.484 58.872 390.972 58.464 392.076 57.648C393.18 56.784 393.996 55.872 394.524 54.912V50.232C393.036 50.088 391.596 50.064 390.204 50.16C388.86 50.256 387.66 50.472 386.604 50.808C385.548 51.144 384.708 51.624 384.084 52.248C383.46 52.872 383.148 53.664 383.148 54.624C383.148 55.968 383.532 57.024 384.3 57.792C385.116 58.512 386.22 58.872 387.612 58.872ZM411.667 30H418.507L419.587 34.32H419.875C421.123 32.496 422.587 31.152 424.267 30.288C425.995 29.424 428.083 28.992 430.531 28.992C435.043 28.992 438.427 30.432 440.683 33.312C442.939 36.144 444.067 40.728 444.067 47.064C444.067 50.136 443.707 52.92 442.987 55.416C442.267 57.864 441.187 59.952 439.747 61.68C438.355 63.408 436.627 64.728 434.563 65.64C432.547 66.552 430.219 67.008 427.579 67.008C426.091 67.008 424.867 66.888 423.907 66.648C422.947 66.456 421.987 66.12 421.027 65.64V80.4H411.667V30ZM427.723 36.912C425.899 36.912 424.459 37.368 423.403 38.28C422.395 39.192 421.603 40.56 421.027 42.384V57.36C421.699 57.888 422.419 58.32 423.187 58.656C424.003 58.944 425.059 59.088 426.355 59.088C429.043 59.088 431.059 58.152 432.403 56.28C433.747 54.36 434.419 51.216 434.419 46.848C434.419 43.68 433.891 41.232 432.835 39.504C431.779 37.776 430.075 36.912 427.723 36.912ZM472.581 66V45.552C472.581 42.624 472.173 40.512 471.357 39.216C470.541 37.92 469.053 37.272 466.893 37.272C465.309 37.272 463.845 37.824 462.501 38.928C461.205 39.984 460.341 41.352 459.909 43.032V66H450.549V15.6H459.909V34.032H460.197C461.349 32.496 462.765 31.272 464.445 30.36C466.125 29.448 468.261 28.992 470.853 28.992C472.677 28.992 474.285 29.232 475.677 29.712C477.069 30.192 478.221 30.984 479.133 32.088C480.093 33.192 480.789 34.704 481.221 36.624C481.701 38.496 481.941 40.824 481.941 43.608V66H472.581Z" fill="black"/>
</g>
<defs>
<clipPath id="clip0">
<rect width="486" height="84" fill="white"/>
</clipPath>
</defs>
</svg>
