<svg width="1440" height="768" viewBox="0 0 1440 768" version="1.1" xmlns="http://www.w3.org/2000/svg" xmlns:xlink="http://www.w3.org/1999/xlink">
<title>sprinkles</title>
<desc>Created using Figma</desc>
<g id="Canvas" transform="translate(0 -1224)">
<g id="sprinkles">
<g id="Group">
<g id="Sprinkle Copy 6">
<g id="Rotate">
<g id="line (Stroke)">
<use xlink:href="#path0_fill" transform="matrix(0.700909 0.71325 -0.71325 0.700909 42.4653 1204.96)" fill="#E4E9F1" fill-opacity="0.5"/>
</g>
</g>
</g>
</g>
<g id="Group Copy 2">
<g id="Sprinkle Copy 5">
<g id="Rotate">
<g id="line (Stroke)">
<use xlink:href="#path0_fill" transform="matrix(0.165048 0.986286 -0.986286 0.165048 45.9738 1493.39)" fill="#E4E9F1" fill-opacity="0.5"/>
</g>
</g>
</g>
<g id="Sprinkle Copy 6">
<g id="Rotate">
<g id="line (Stroke)">
<use xlink:href="#path0_fill" transform="matrix(-0.986286 -0.165048 0.165048 -0.986286 206.057 1500.14)" fill="#E4E9F1" fill-opacity="0.5"/>
</g>
</g>
</g>
<g id="Sprinkle Copy 7">
<g id="Rotate">
<g id="line (Stroke)">
<use xlink:href="#path0_fill" transform="matrix(0.477159 0.878817 -0.878817 0.477159 276.669 1393.9)" fill="#E4E9F1" fill-opacity="0.5"/>
</g>
</g>
</g>
<g id="Sprinkle Copy 8">
<g id="Rotate">
<g id="line (Stroke)">
<use xlink:href="#path0_fill" transform="matrix(-0.948324 -0.317305 0.317305 -0.948324 447.708 1404.84)" fill="#E4E9F1" fill-opacity="0.5"/>
</g>
</g>
</g>
<g id="Sprinkle Copy 9">
<g id="Rotate">
<g id="line (Stroke)">
<use xlink:href="#path0_fill" transform="matrix(-0.953717 -0.300706 0.300706 -0.953717 570.331 1353.56)" fill="#E4E9F1" fill-opacity="0.5"/>
</g>
</g>
</g>
<g id="Sprinkle Copy 10">
<g id="Rotate">
<g id="line (Stroke)">
<use xlink:href="#path0_fill" transform="matrix(-0.182236 -0.983255 0.983255 -0.182236 654.882 1324.58)" fill="#E4E9F1" fill-opacity="0.5"/>
</g>
</g>
</g>
<g id="Sprinkle Copy 11">
<g id="Rotate">
<g id="line (Stroke)">
<use xlink:href="#path0_fill" transform="matrix(-0.887011 0.461749 -0.461749 -0.887011 818.57 1220.18)" fill="#E4E9F1" fill-opacity="0.5"/>
</g>
</g>
</g>
</g>
<g id="Group Copy 4">
<g id="Sprinkle Copy 4">
<g id="Rotate">
<g id="line (Stroke)">
<use xlink:href="#path0_fill" transform="matrix(0.861629 -0.507538 0.507538 0.861629 -16.5035 1844.41)" fill="#E4E9F1" fill-opacity="0.5"/>
</g>
</g>
</g>
<g id="Sprinkle Copy 5">
<g id="Rotate">
<g id="line (Stroke)">
<use xlink:href="#path0_fill" transform="matrix(-0.182236 0.983255 -0.983255 -0.182236 161.594 1740.99)" fill="#E4E9F1" fill-opacity="0.5"/>
</g>
</g>
</g>
<g id="Sprinkle Copy 6">
<g id="Rotate">
<g id="line (Stroke)">
<use xlink:href="#path0_fill" transform="matrix(0.461749 0.887011 -0.887011 0.461749 256.403 1688.85)" fill="#E4E9F1" fill-opacity="0.5"/>
</g>
</g>
</g>
<g id="Sprinkle Copy 7">
<g id="Rotate">
<g id="line (Stroke)">
<use xlink:href="#path0_fill" transform="matrix(-0.00872655 0.999962 -0.999962 -0.00872655 399.077 1637.54)" fill="#E4E9F1" fill-opacity="0.5"/>
</g>
</g>
</g>
<g id="Sprinkle Copy 8">
<g id="Rotate">
<g id="line (Stroke)">
<use xlink:href="#path0_fill" transform="matrix(0.953717 -0.300706 0.300706 0.953717 470.479 1632.51)" fill="#E4E9F1" fill-opacity="0.5"/>
</g>
</g>
</g>
<g id="Sprinkle Copy 9">
<g id="Rotate">
<g id="line (Stroke)">
<use xlink:href="#path0_fill" transform="matrix(-0.522499 -0.85264 0.85264 -0.522499 649.092 1617.24)" fill="#E4E9F1" fill-opacity="0.5"/>
</g>
</g>
</g>
<g id="Sprinkle Copy 10">
<g id="Rotate">
<g id="line (Stroke)">
<use xlink:href="#path0_fill" transform="matrix(-0.430511 0.902585 -0.902585 -0.430511 782.466 1493.23)" fill="#E4E9F1" fill-opacity="0.5"/>
</g>
</g>
</g>
<g id="Sprinkle Copy 11">
<g id="Rotate">
<g id="line (Stroke)">
<use xlink:href="#path0_fill" transform="matrix(-0.95882 -0.284015 0.284015 -0.95882 916.485 1496.15)" fill="#E4E9F1" fill-opacity="0.5"/>
</g>
</g>
</g>
<g id="Sprinkle Copy 12">
<g id="Rotate">
<g id="line (Stroke)">
<use xlink:href="#path0_fill" transform="matrix(-0.414693 0.909961 -0.909961 -0.414693 1026.39 1391.51)" fill="#E4E9F1" fill-opacity="0.5"/>
</g>
</g>
</g>
<g id="Sprinkle Copy 14">
<g id="Rotate">
<g id="line (Stroke)">
<use xlink:href="#path0_fill" transform="matrix(-0.317305 -0.948324 0.948324 -0.317305 1128.83 1416.89)" fill="#E4E9F1" fill-opacity="0.5"/>
</g>
</g>
</g>
<g id="Sprinkle Copy 15">
<g id="Rotate">
<g id="line (Stroke)">
<use xlink:href="#path0_fill" transform="matrix(0.284015 -0.95882 0.95882 0.284015 1226.13 1361.57)" fill="#E4E9F1" fill-opacity="0.5"/>
</g>
</g>
</g>
<g id="Sprinkle Copy 16">
<g id="Rotate">
<g id="line (Stroke)">
<use xlink:href="#path0_fill" transform="matrix(-0.446198 -0.894934 0.894934 -0.446198 1379.13 1314.49)" fill="#E4E9F1" fill-opacity="0.5"/>
</g>
</g>
</g>
</g>
<g id="Group Copy 6">
<g id="Sprinkle Copy 5">
<g id="Rotate">
<g id="line (Stroke)">
<use xlink:href="#path0_fill" transform="matrix(-0.382683 0.92388 -0.92388 -0.382683 270.665 1989.68)" fill="#E4E9F1" fill-opacity="0.5"/>
</g>
</g>
</g>
<g id="Sprinkle Copy 6">
<g id="Rotate">
<g id="line (Stroke)">
<use xlink:href="#path0_fill" transform="matrix(0.00872656 0.999962 -0.999962 0.00872656 377.383 1932.56)" fill="#E4E9F1" fill-opacity="0.5"/>
</g>
</g>
</g>
<g id="Sprinkle Copy 7">
<g id="Rotate">
<g id="line (Stroke)">
<use xlink:href="#path0_fill" transform="matrix(0.986286 0.165048 -0.165048 0.986286 452.117 1908.14)" fill="#E4E9F1" fill-opacity="0.5"/>
</g>
</g>
</g>
<g id="Sprinkle Copy 8">
<g id="Rotate">
<g id="line (Stroke)">
<use xlink:href="#path0_fill" transform="matrix(0.725374 -0.688355 0.688355 0.725374 577.912 1895.01)" fill="#E4E9F1" fill-opacity="0.5"/>
</g>
</g>
</g>
<g id="Sprinkle Copy 9">
<g id="Rotate">
<g id="line (Stroke)">
<use xlink:href="#path0_fill" transform="matrix(0.182236 -0.983255 0.983255 0.182236 720.124 1861.18)" fill="#E4E9F1" fill-opacity="0.5"/>
</g>
</g>
</g>
<g id="Sprinkle Copy 10">
<g id="Rotate">
<g id="line (Stroke)">
<use xlink:href="#path0_fill" transform="matrix(0.97237 -0.233445 0.233445 0.97237 816.081 1772.81)" fill="#E4E9F1" fill-opacity="0.5"/>
</g>
</g>
</g>
<g id="Sprinkle Copy 11">
<g id="Rotate">
<g id="line (Stroke)">
<use xlink:href="#path0_fill" transform="matrix(-0.771625 -0.636078 0.636078 -0.771625 1007.04 1753.64)" fill="#E4E9F1" fill-opacity="0.5"/>
</g>
</g>
</g>
<g id="Sprinkle Copy 12">
<g id="Rotate">
<g id="line (Stroke)">
<use xlink:href="#path0_fill" transform="matrix(-0.983255 -0.182236 0.182236 -0.983255 1141.9 1686.04)" fill="#E4E9F1" fill-opacity="0.5"/>
</g>
</g>
</g>
<g id="Sprinkle Copy 14">
<g id="Rotate">
<g id="line (Stroke)">
<use xlink:href="#path0_fill" transform="matrix(0.748956 0.66262 -0.66262 0.748956 1199.71 1585.73)" fill="#E4E9F1" fill-opacity="0.5"/>
</g>
</g>
</g>
<g id="Sprinkle Copy 15">
<g id="Rotate">
<g id="line (Stroke)">
<use xlink:href="#path0_fill" transform="matrix(-0.96363 -0.267238 0.267238 -0.96363 1384.89 1588.1)" fill="#E4E9F1" fill-opacity="0.5"/>
</g>
</g>
</g>
</g>
<g id="Group Copy 8">
<g id="Sprinkle Copy 10">
<g id="Rotate">
<g id="line (Stroke)">
<use xlink:href="#path0_fill" transform="matrix(0.0436194 -0.999048 0.999048 0.0436194 949.265 2056.89)" fill="#E4E9F1" fill-opacity="0.5"/>
</g>
</g>
</g>
<g id="Sprinkle Copy 11">
<g id="Rotate">
<g id="line (Stroke)">
<use xlink:href="#path0_fill" transform="matrix(-0.608761 -0.793353 0.793353 -0.608761 1100.25 2003.29)" fill="#E4E9F1" fill-opacity="0.5"/>
</g>
</g>
</g>
<g id="Sprinkle Copy 12">
<g id="Rotate">
<g id="line (Stroke)">
<use xlink:href="#path0_fill" transform="matrix(-0.999657 0.0261769 -0.0261769 -0.999657 1245.64 1922.08)" fill="#E4E9F1" fill-opacity="0.5"/>
</g>
</g>
</g>
<g id="Sprinkle Copy 14">
<g id="Rotate">
<g id="line (Stroke)">
<use xlink:href="#path0_fill" transform="matrix(0.936672 0.350207 -0.350207 0.936672 1290.58 1841.58)" fill="#E4E9F1" fill-opacity="0.5"/>
</g>
</g>
</g>
<g id="Sprinkle Copy 15">
<g id="Rotate">
<g id="line (Stroke)">
<use xlink:href="#path0_fill" transform="matrix(-0.993572 0.113203 -0.113203 -0.993572 1490.64 1817.15)" fill="#E4E9F1" fill-opacity="0.5"/>
</g>
</g>
</g>
</g>
<g id="Group Copy 10">
</g>
<g id="Group Copy">
<g id="Sprinkle Copy 6">
<g id="Rotate">
<g id="line (Stroke)">
<use xlink:href="#path0_fill" transform="matrix(-0.814115 0.580703 -0.580703 -0.814115 93.504 1370.9)" fill="#E4E9F1" fill-opacity="0.5"/>
</g>
</g>
</g>
<g id="Sprinkle Copy 7">
<g id="Rotate">
<g id="line (Stroke)">
<use xlink:href="#path0_fill" transform="matrix(0.983255 0.182236 -0.182236 0.983255 138.046 1321.46)" fill="#E4E9F1" fill-opacity="0.5"/>
</g>
</g>
</g>
<g id="Sprinkle Copy 8">
<g id="Rotate">
<g id="line (Stroke)">
<use xlink:href="#path0_fill" transform="matrix(0.725374 -0.688355 0.688355 0.725374 263.569 1309.01)" fill="#E4E9F1" fill-opacity="0.5"/>
</g>
</g>
</g>
<g id="Sprinkle Copy 9">
<g id="Rotate">
<g id="line (Stroke)">
<use xlink:href="#path0_fill" transform="matrix(0.398749 0.91706 -0.91706 0.398749 412.98 1194.76)" fill="#E4E9F1" fill-opacity="0.5"/>
</g>
</g>
</g>
</g>
<g id="Group">
</g>
<g id="Group Copy 3">
<g id="Sprinkle Copy 5">
<g id="Rotate">
<g id="line (Stroke)">
<use xlink:href="#path0_fill" transform="matrix(0.92388 -0.382683 0.382683 0.92388 -7.53012 1691.13)" fill="#E4E9F1" fill-opacity="0.5"/>
</g>
</g>
</g>
<g id="Sprinkle Copy 6">
<g id="Rotate">
<g id="line (Stroke)">
<use xlink:href="#path0_fill" transform="matrix(0.878817 0.477159 -0.477159 0.878817 123.9 1605.32)" fill="#E4E9F1" fill-opacity="0.5"/>
</g>
</g>
</g>
<g id="Sprinkle Copy 7">
<g id="Rotate">
<g id="line (Stroke)">
<use xlink:href="#path0_fill" transform="matrix(-0.979925 0.199368 -0.199368 -0.979925 320.664 1581.96)" fill="#E4E9F1" fill-opacity="0.5"/>
</g>
</g>
</g>
<g id="Sprinkle Copy 8">
<g id="Rotate">
<g id="line (Stroke)">
<use xlink:href="#path0_fill" transform="matrix(0.350207 -0.936672 0.936672 0.350207 378.258 1567)" fill="#E4E9F1" fill-opacity="0.5"/>
</g>
</g>
</g>
<g id="Sprinkle Copy 9">
<g id="Rotate">
<g id="line (Stroke)">
<use xlink:href="#path0_fill" transform="matrix(0.999657 -0.0261769 0.0261769 0.999657 481.398 1473.18)" fill="#E4E9F1" fill-opacity="0.5"/>
</g>
</g>
</g>
<g id="Sprinkle Copy 10">
<g id="Rotate">
<g id="line (Stroke)">
<use xlink:href="#path0_fill" transform="matrix(-0.350207 -0.936672 0.936672 -0.350207 651.738 1471.67)" fill="#E4E9F1" fill-opacity="0.5"/>
</g>
</g>
</g>
<g id="Sprinkle Copy 11">
<g id="Rotate">
<g id="line (Stroke)">
<use xlink:href="#path0_fill" transform="matrix(0.199368 -0.979925 0.979925 0.199368 750.902 1418.14)" fill="#E4E9F1" fill-opacity="0.5"/>
</g>
</g>
</g>
<g id="Sprinkle Copy 12">
<g id="Rotate">
<g id="line (Stroke)">
<use xlink:href="#path0_fill" transform="matrix(0.894934 0.446198 -0.446198 0.894934 856.519 1302.61)" fill="#E4E9F1" fill-opacity="0.5"/>
</g>
</g>
</g>
<g id="Sprinkle Copy 13">
<g id="Rotate">
<g id="line (Stroke)">
<use xlink:href="#path0_fill" transform="matrix(0.993572 -0.113203 0.113203 0.993572 969.942 1274.27)" fill="#E4E9F1" fill-opacity="0.5"/>
</g>
</g>
</g>
<g id="Sprinkle Copy 14">
<g id="Rotate">
<g id="line (Stroke)">
<use xlink:href="#path0_fill" transform="matrix(0.902585 0.430511 -0.430511 0.902585 1100.58 1201.92)" fill="#E4E9F1" fill-opacity="0.5"/>
</g>
</g>
</g>
</g>
<g id="Group Copy 5">
<g id="Sprinkle Copy 4">
<g id="Rotate">
<g id="line (Stroke)">
<use xlink:href="#path0_fill" transform="matrix(0.5373 -0.843391 0.843391 0.5373 -16.434 2008.64)" fill="#E4E9F1" fill-opacity="0.5"/>
</g>
</g>
</g>
<g id="Sprinkle Copy 5">
<g id="Rotate">
<g id="line (Stroke)">
<use xlink:href="#path0_fill" transform="matrix(0.760406 0.649448 -0.649448 0.760406 109.288 1894.36)" fill="#E4E9F1" fill-opacity="0.5"/>
</g>
</g>
</g>
<g id="Sprinkle Copy 6">
<g id="Rotate">
<g id="line (Stroke)">
<use xlink:href="#path0_fill" transform="matrix(0.986286 0.165048 -0.165048 0.986286 218.089 1861.83)" fill="#E4E9F1" fill-opacity="0.5"/>
</g>
</g>
</g>
<g id="Sprinkle Copy 7">
<g id="Rotate">
<g id="line (Stroke)">
<use xlink:href="#path0_fill" transform="matrix(0.622515 -0.782608 0.782608 0.622515 347.235 1853.52)" fill="#E4E9F1" fill-opacity="0.5"/>
</g>
</g>
</g>
<g id="Sprinkle Copy 19">
<g id="Rotate">
<g id="line (Stroke)">
<use xlink:href="#path0_fill" transform="matrix(0.622515 -0.782608 0.782608 0.622515 469.74 1802.77)" fill="#E4E9F1" fill-opacity="0.5"/>
</g>
</g>
</g>
<g id="Sprinkle Copy 9">
<g id="Rotate">
<g id="line (Stroke)">
<use xlink:href="#path0_fill" transform="matrix(0.21644 -0.976296 0.976296 0.21644 606.997 1763.65)" fill="#E4E9F1" fill-opacity="0.5"/>
</g>
</g>
</g>
<g id="Sprinkle Copy 10">
<g id="Rotate">
<g id="line (Stroke)">
<use xlink:href="#path0_fill" transform="matrix(-0.5373 -0.843391 0.843391 -0.5373 761.554 1713.92)" fill="#E4E9F1" fill-opacity="0.5"/>
</g>
</g>
</g>
<g id="Sprinkle Copy 11">
<g id="Rotate">
<g id="line (Stroke)">
<use xlink:href="#path0_fill" transform="matrix(0.999962 0.00872655 -0.00872655 0.999962 827.484 1614.98)" fill="#E4E9F1" fill-opacity="0.5"/>
</g>
</g>
</g>
<g id="Sprinkle Copy 12">
<g id="Rotate">
<g id="line (Stroke)">
<use xlink:href="#path0_fill" transform="matrix(-0.878817 0.477159 -0.477159 -0.878817 1031.42 1560.94)" fill="#E4E9F1" fill-opacity="0.5"/>
</g>
</g>
</g>
<g id="Sprinkle Copy 13">
<g id="Rotate">
<g id="line (Stroke)">
<use xlink:href="#path0_fill" transform="matrix(-0.0261769 0.999657 -0.999657 -0.0261769 1122.86 1481.44)" fill="#E4E9F1" fill-opacity="0.5"/>
</g>
</g>
</g>
<g id="Sprinkle Copy 14">
<g id="Rotate">
<g id="line (Stroke)">
<use xlink:href="#path0_fill" transform="matrix(0.999657 0.0261769 -0.0261769 0.999657 1194.42 1462.34)" fill="#E4E9F1" fill-opacity="0.5"/>
</g>
</g>
</g>
<g id="Sprinkle Copy 15">
<g id="Rotate">
<g id="line (Stroke)">
<use xlink:href="#path0_fill" transform="matrix(-0.113203 0.993572 -0.993572 -0.113203 1370.92 1381.15)" fill="#E4E9F1" fill-opacity="0.5"/>
</g>
</g>
</g>
</g>
<g id="Group Copy 7">
<g id="Sprinkle Copy 9">
<g id="Rotate">
<g id="line (Stroke)">
<use xlink:href="#path0_fill" transform="matrix(0.861629 -0.507538 0.507538 0.861629 685.585 1983.31)" fill="#E4E9F1" fill-opacity="0.5"/>
</g>
</g>
</g>
<g id="Sprinkle Copy 10">
<g id="Rotate">
<g id="line (Stroke)">
<use xlink:href="#path0_fill" transform="matrix(0.998135 -0.0610485 0.0610485 0.998135 805.993 1913.05)" fill="#E4E9F1" fill-opacity="0.5"/>
</g>
</g>
</g>
<g id="Sprinkle Copy 11">
<g id="Rotate">
<g id="line (Stroke)">
<use xlink:href="#path0_fill" transform="matrix(0.983255 0.182236 -0.182236 0.983255 930.935 1852.47)" fill="#E4E9F1" fill-opacity="0.5"/>
</g>
</g>
</g>
<g id="Sprinkle Copy 12">
<g id="Rotate">
<g id="line (Stroke)">
<use xlink:href="#path0_fill" transform="matrix(-0.636078 -0.771625 0.771625 -0.636078 1112.05 1855.04)" fill="#E4E9F1" fill-opacity="0.5"/>
</g>
</g>
</g>
<g id="Sprinkle Copy 13">
<g id="Rotate">
<g id="line (Stroke)">
<use xlink:href="#path0_fill" transform="matrix(-0.0958458 0.995396 -0.995396 -0.0958458 1226.99 1726.73)" fill="#E4E9F1" fill-opacity="0.5"/>
</g>
</g>
</g>
<g id="Sprinkle Copy 14">
<g id="Rotate">
<g id="line (Stroke)">
<use xlink:href="#path0_fill" transform="matrix(0.0436194 0.999048 -0.999048 0.0436194 1343.51 1674.76)" fill="#E4E9F1" fill-opacity="0.5"/>
</g>
</g>
</g>
<g id="Sprinkle Copy 15">
<g id="Rotate">
<g id="line (Stroke)">
<use xlink:href="#path0_fill" transform="matrix(-0.894934 0.446198 -0.446198 -0.894934 1499.88 1654.96)" fill="#E4E9F1" fill-opacity="0.5"/>
</g>
</g>
</g>
</g>
<g id="Group Copy 9">
<g id="Sprinkle Copy 14">
<g id="Rotate">
<g id="line (Stroke)">
<use xlink:href="#path0_fill" transform="matrix(-0.870356 -0.492424 0.492424 -0.870356 1469.91 1988.73)" fill="#E4E9F1" fill-opacity="0.5"/>
</g>
</g>
</g>
</g>
</g>
</g>
<defs>
<path id="path0_fill" fill-rule="evenodd" d="M 0 8.27092C 0 3.70302 3.70302 0 8.27092 0L 74.4365 0C 79.0044 0 82.7074 3.70302 82.7074 8.27092C 82.7074 12.8388 79.0044 16.5418 74.4365 16.5418L 8.27092 16.5418C 3.70302 16.5418 0 12.8388 0 8.27092Z"/>
</defs>
</svg>
