<svg width="48" height="48" xmlns="http://www.w3.org/2000/svg" xmlns:xlink="http://www.w3.org/1999/xlink"><use xlink:href="#a" fill="url(#b)"/><use xlink:href="#c" transform="translate(2 2.082)" fill="url(#d)"/><use xlink:href="#e" transform="translate(8.5 9.86)" fill="#F2F8F6"/><use xlink:href="#f" transform="translate(22.3 22.461)" fill="#F1F8F3"/><defs><path id="a" d="M24 48c13.255 0 24-10.745 24-24S37.255 0 24 0 0 10.745 0 24s10.745 24 24 24Z"/><path id="c" d="M21.944 43.889c12.12 0 21.945-9.825 21.945-21.945C43.889 9.824 34.064 0 21.944 0 9.824 0 0 9.825 0 21.944 0 34.064 9.825 43.89 21.944 43.89Z"/><path id="e" d="M10.31 10.779c-.255.395-.505.794-.748 1.198a30.9 30.9 0 0 1-.691-2.136c.7-.1 1.444-.18 2.229-.234-.27.386-.533.777-.79 1.172Zm19.36 1.403c-.775-.745-1.884-1.427-3.295-2.028-2.802-1.193-6.555-1.966-10.567-2.176-.471-.025-.942-.043-1.413-.052 3.063-3.657 6.022-5.603 7.745-5.668.365-.014.671.058.911.214.807.524 1.03 2.15.599 4.348a.801.801 0 0 0 1.571.309c.742-3.78-.296-5.35-1.297-6C23.401.789 22.78.63 22.08.657c-2.65.1-6.364 2.927-9.753 7.284a34.094 34.094 0 0 0-3.844.343c-.13-.591-.23-1.188-.305-1.788-.304-2.504.068-4.282.997-4.756.149-.076.312-.12.498-.133.83-.063 2 .495 3.293 1.569a.801.801 0 0 0 1.023-1.233C12.327.563 10.835-.087 9.552.01c-.397.03-.769.132-1.106.304-.862.44-1.452 1.282-1.751 2.503-.257 1.045-.294 2.349-.109 3.873.074.604.18 1.231.319 1.877-.947.2-1.823.442-2.609.726C.858 10.534.064 12.172.004 13.326c-.058 1.103.507 2.744 3.524 4.3a.801.801 0 0 0 .734-1.423c-1.735-.896-2.705-1.913-2.659-2.793.065-1.24 2.144-2.552 5.683-3.292A33.94 33.94 0 0 0 8.54 13.78c-1.272 2.389-2.2 4.742-2.682 6.836-.344 1.496-.444 2.795-.298 3.86.17 1.245.668 2.144 1.479 2.671.414.27.972.48 1.704.48 1.062 0 2.492-.443 4.382-1.791a.801.801 0 1 0-.923-1.31l-.007.006c-1.863 1.329-3.464 1.804-4.283 1.272-.873-.568-1.057-2.373-.493-4.83.375-1.628 1.043-3.434 1.95-5.295.198.425.403.846.616 1.264 1.824 3.583 4.056 6.7 6.287 8.777 1.123 1.046 2.197 1.783 3.193 2.19.604.246 1.17.37 1.698.37.487 0 .94-.106 1.354-.318.832-.424 1.41-1.223 1.719-2.377.265-.988.324-2.22.177-3.662-.29-2.837-1.362-6.296-3.018-9.74a.801.801 0 0 0-1.443.693c1.578 3.282 2.596 6.553 2.867 9.21.239 2.335-.146 4-1.03 4.45-.927.473-2.582-.27-4.426-1.988-2.096-1.953-4.21-4.912-5.951-8.332a39.42 39.42 0 0 1-1.098-2.343 40.053 40.053 0 0 1 2.82-4.349 39.653 39.653 0 0 1 2.591.054c3.829.2 7.389.929 10.022 2.05 2.317.987 3.667 2.197 3.613 3.239-.047.883-1.12 1.797-2.947 2.506a.801.801 0 0 0 .58 1.493c3.173-1.232 3.908-2.81 3.966-3.916.05-.967-.383-1.898-1.288-2.767Z"/><path id="f" d="M0 1.752a1.75 1.75 0 1 0 3.501.001A1.75 1.75 0 0 0 0 1.751"/><linearGradient id="b" x1="0" y1="0" x2="1" y2="0" gradientUnits="userSpaceOnUse" gradientTransform="matrix(0 46.0888 46.0888 0 .962 1.913)"><stop offset="0" stop-color="#FDFDFD"/><stop offset="1" stop-color="#CBCBCB"/></linearGradient><linearGradient id="d" x1="0" y1="0" x2="1" y2="0" gradientUnits="userSpaceOnUse" gradientTransform="matrix(0 42.1413 42.1413 0 .882 1.733)"><stop offset="0" stop-color="#B2E198"/><stop offset="1" stop-color="#04A171"/></linearGradient></defs></svg>