<svg width="48" height="48" xmlns="http://www.w3.org/2000/svg" xmlns:xlink="http://www.w3.org/1999/xlink"><use xlink:href="#a" transform="translate(.4 .467)" fill="#FFF"/><use xlink:href="#b" transform="translate(15.2 15.286)" fill="url(#c)"/><use xlink:href="#d" transform="translate(4.1)" fill="url(#e)"/><use xlink:href="#f" transform="translate(0 10.561)" fill="url(#g)"/><use xlink:href="#h" transform="translate(22.1 13.353)" fill="url(#i)"/><use xlink:href="#j" transform="translate(4.1 9.917)" fill="url(#k)"/><use xlink:href="#l" transform="translate(21.7 30.75)" fill="url(#m)"/><use xlink:href="#n" transform="translate(23.8 13.353)" fill="url(#o)"/><defs><path id="a" d="M23.624 47.248c13.047 0 23.624-10.577 23.624-23.624C47.248 10.577 36.671 0 23.624 0 10.577 0 0 10.577 0 23.624c0 13.047 10.577 23.624 23.624 23.624Z"/><path id="b" d="M8.805 17.61a8.805 8.805 0 1 0 0-17.61 8.805 8.805 0 0 0 0 17.61Z"/><path id="d" d="M41.45 13.353C35.536 1.457 21.1-3.393 9.203 2.52A24.05 24.05 0 0 0 0 10.561l9.664 16.752c-1.78-5.657 1.364-11.686 7.021-13.466.995-.313 2.03-.48 3.073-.494"/><path id="f" d="M4.076 0C-3.32 11.035-.372 25.976 10.662 33.373a24.054 24.054 0 0 0 11.454 3.996l10.095-17.18c-3.775 4.574-10.542 5.223-15.117 1.448a10.739 10.739 0 0 1-3.353-4.885"/><path id="h" d="M0 34.577c13.246 1.001 24.797-8.925 25.799-22.172A24.049 24.049 0 0 0 23.409 0H1.719a10.74 10.74 0 0 1 8.376 17.396"/><path id="j" d="m0 .644 9.664 16.752a10.738 10.738 0 0 1 .43-7.302L.429 0"/><path id="l" d="M.43 17.18 10.524 0a10.742 10.742 0 0 1-6.229 3.65L0 17.18"/><path id="n" d="M21.691 0H0a10.739 10.739 0 0 1 8.376 4.08L22.12.646"/><linearGradient id="c" x1="0" y1="0" x2="1" y2="0" gradientUnits="userSpaceOnUse" gradientTransform="matrix(0 17.5907 17.5907 0 .008 .03)"><stop offset="0" stop-color="#81B4E0"/><stop offset="1" stop-color="#0C5A94"/></linearGradient><linearGradient id="e" x1="0" y1="0" x2="1" y2="0" gradientUnits="userSpaceOnUse" gradientTransform="matrix(0 19.5441 19.5441 0 10.954 .037)"><stop offset="0" stop-color="#F06B59"/><stop offset="1" stop-color="#DF2227"/></linearGradient><linearGradient id="g" x1="0" y1="0" x2="1" y2="0" gradientUnits="userSpaceOnUse" gradientTransform="scale(19.07869 -19.07869) rotate(58.815 2.021 -.28)"><stop offset="0" stop-color="#388B41"/><stop offset="1" stop-color="#4CB749"/></linearGradient><linearGradient id="i" x1="0" y1="0" x2="1" y2="0" gradientUnits="userSpaceOnUse" gradientTransform="scale(-27.4402 27.4402) rotate(-67.449 .126 1.248)"><stop offset="0" stop-color="#E4B022"/><stop offset=".3" stop-color="#FCD209"/></linearGradient><linearGradient id="k" x1="0" y1="0" x2="1" y2="0" gradientUnits="userSpaceOnUse" gradientTransform="scale(17.181) rotate(-90 .884 .09)"><stop offset="0" stop-opacity=".15"/><stop offset=".3" stop-opacity=".06"/><stop offset="1" stop-opacity=".03"/></linearGradient><linearGradient id="m" x1="0" y1="0" x2="1" y2="0" gradientUnits="userSpaceOnUse" gradientTransform="scale(-16.8568 16.8568) rotate(45.516 .161 -.495)"><stop offset="0" stop-opacity=".15"/><stop offset=".3" stop-opacity=".06"/><stop offset="1" stop-opacity=".03"/></linearGradient><linearGradient id="o" x1="0" y1="0" x2="1" y2="0" gradientUnits="userSpaceOnUse" gradientTransform="scale(17.05238 -17.05238) rotate(84.217 1.26 -.118)"><stop offset="0" stop-opacity=".15"/><stop offset=".3" stop-opacity=".06"/><stop offset="1" stop-opacity=".03"/></linearGradient></defs></svg>