<svg width="47" height="48" xmlns="http://www.w3.org/2000/svg" xmlns:xlink="http://www.w3.org/1999/xlink"><use xlink:href="#a" transform="translate(36.8 4.466)" fill="url(#b)"/><use xlink:href="#c" transform="translate(1.7 4.028)" fill="url(#d)"/><use xlink:href="#e" transform="translate(2.3 1.984)" fill="url(#f)"/><use xlink:href="#g" transform="translate(33.9 33.009)" fill="url(#h)"/><use xlink:href="#i" transform="translate(41 21.285)" fill="url(#j)"/><use xlink:href="#k" transform="translate(24.3 40.441)" fill="url(#l)"/><use xlink:href="#m" transform="translate(0 .683)" fill="url(#n)"/><use xlink:href="#o" transform="translate(27.8)" fill="url(#p)"/><use xlink:href="#q" transform="translate(16.9 12.486)" fill="url(#r)"/><use xlink:href="#s" transform="translate(4 5.191)" fill="url(#t)"/><use xlink:href="#u" transform="translate(10 21.96)" fill="url(#v)"/><use xlink:href="#w" transform="translate(11.6 27.509)" fill="url(#x)"/><use xlink:href="#y" transform="translate(29.5 1.137)" fill="url(#z)"/><use xlink:href="#A" transform="translate(15.9 19.122)" fill="url(#B)"/><defs><path id="a" d="M1.203 0C.023 1.36-.527 4.421.67 7.525c1.197 3.103 3.032 2.429 4.175 5.593 1.51 4.176.807 9.785.807 9.785s1.815 5.2 3.08-.323C11.532 12.204 1.203 2.555 1.203 0Z"/><path id="c" d="M21.86 43.515c12.09 0 21.884-9.743 21.884-21.758C43.744 9.743 33.95 0 21.872 0S0 9.743 0 21.757c-.023 12.026 9.782 21.758 21.86 21.758Z"/><path id="e" d="M37.694 37.218c-.473.33-.969.626-1.485.887a34.275 34.275 0 0 0 1.889-3.071c.466-.511.893-1.008 1.241-1.544.17-.264.36-.59.563-.967 1.229-2.19 2.583-5.735 2.622-9.376v-.278a12.444 12.444 0 0 0-.281-2.72l.027.21-.031-.161c.018.099.032.195.048.291.25 2.109.072 4.165-.823 5.68-.014.023-.028.044-.043.065.464-2.304.62-4.848.103-7.395 0 0-.206-1.238-1.744-4.997-.885-2.163-2.456-3.937-3.845-5.23-1.217-1.49-2.323-2.49-2.932-3.124-1.273-1.327-1.806-2.32-2.026-2.97-.19-.094-2.62-2.429-2.812-2.518-1.06 1.627-4.396 6.716-2.81 11.47.72 2.155 2.538 4.392 4.441 5.646.084.095 1.132 1.222 1.631 3.764.515 2.626.244 4.676-.816 7.706-1.246 2.66-4.44 5.288-7.43 5.556-6.393.575-8.733-3.176-8.733-3.176 2.284.904 4.81.715 6.346-.222 1.548-.947 2.484-1.65 3.244-1.373.75.276 1.346-.524.81-1.354a3.858 3.858 0 0 0-1.7-1.426 3.908 3.908 0 0 0-2.214-.26c-1.55.248-2.969 1.463-5 .287a4.21 4.21 0 0 1-.38-.247c-.134-.087.435.132.302.033-.395-.212-1.094-.675-1.276-.84-.03-.027.307.107.277.08-1.899-1.548-1.662-2.592-1.602-3.248.047-.524.392-1.196.973-1.469.281.152.456.268.456.268l-.184-.37c.022-.01.044-.007.066-.017.23.11.739.395 1.007.57.348.243.46.46.46.46s.091-.05.023-.262c-.024-.088-.13-.364-.476-.643l.022.002c.207.117.402.251.585.402.097-.35.272-.716.234-1.37-.023-.46-.013-.58-.095-.757-.073-.152.041-.212.169-.054a1.588 1.588 0 0 0-.109-.36l.001-.012c.16-.549 3.365-1.974 3.598-2.14.383-.27.705-.615.943-1.015.178-.281.313-.676.345-1.274.018-.432-.185-.719-3.426-1.055-.887-.086-1.407-.722-1.702-1.308a8.521 8.521 0 0 0-.164-.355 2.804 2.804 0 0 1-.126-.412c.53-1.506 1.42-2.779 2.73-3.741.07-.064-.286.016-.215-.048.083-.075.627-.291.73-.34.125-.059-.537-.337-1.121-.27-.595.067-.722.137-1.04.27.133-.13.552-.3.453-.298-.641.097-1.438.466-2.12.884a.519.519 0 0 1 .042-.212c-.318.133-1.098.672-1.325 1.129.01-.088.014-.176.013-.264-.242.2-.46.426-.65.674l-.012.011c-1.842-.734-3.462-.782-4.834-.452-.3-.299-.447-.08-1.13-1.565-.046-.09.036.088 0 0-.112-.288.07.384 0 0C6.23 7.9 4.72 8.915 3.995 9.632c-.01.029.845-.239 0 0-.297.084-.277.258-.322 1.83-.01.118 0 .252-.01.36-.58.73-.974 1.348-1.123 1.668-.75 1.277-1.574 3.268-2.374 6.417.353-.854.778-1.676 1.271-2.459C.771 19.12.13 21.745 0 25.788c.16-.835.367-1.66.618-2.472-.157 3.354.427 6.7 1.713 9.808a23.844 23.844 0 0 0 2.515 4.654A22.346 22.346 0 0 0 21.01 44.65a22.356 22.356 0 0 0 16.685-7.433Z"/><path id="g" d="M1.128 9.27C9.158 8.35 12.71.162 8.147 0 4.024-.129-2.675 9.704 1.127 9.27Z"/><path id="i" d="M1.678 10.053C7.202 6.872 5.76 0 5.76 0S3.63 2.45 2.181 6.357c-1.43 3.868-3.825 5.617-.503 3.696Z"/><path id="k" d="M.78 5.903C8.48 8.335 15.1 2.332 11.02.327 7.31-1.481-2.876 4.753.78 5.903Z"/><path id="m" d="M43.228 33.572c.187-.261.44-1.099.664-1.473 1.36-2.172 1.37-3.904 1.37-3.943.821-4.06.746-5.718.241-8.783-.407-2.468-2.185-6.005-3.725-7.707-1.588-1.755-.47-1.183-2.006-2.465-1.347-1.477-2.654-2.94-3.365-3.53C31.267 1.42 31.382.517 31.48.363a6.711 6.711 0 0 0-.072.08C31.348.202 31.305 0 31.305 0s-2.81 2.78-3.402 7.415c-.386 3.025.759 6.179 2.416 8.195a18.713 18.713 0 0 0 2.909 2.829v-.001c1.252 1.78 1.94 3.975 1.94 6.337 0 5.914-4.847 10.709-10.828 10.709-.815 0-1.627-.09-2.422-.27-2.822-.532-4.451-1.94-5.264-2.896-.465-.548-.663-.948-.663-.948 2.528.896 5.323.709 7.023-.22 1.713-.94 2.75-1.636 3.59-1.362.83.274 1.49-.52.898-1.343-.58-.822-2.09-1.999-4.332-1.673-1.715.248-3.286 1.452-5.534.286a4.793 4.793 0 0 1-.421-.245c-.148-.087.481.131.334.033-.437-.21-1.211-.67-1.412-.833-.033-.027.34.105.306.078-2.101-1.534-1.839-2.57-1.773-3.22.053-.52.435-1.187 1.078-1.457.31.15.504.265.504.265l-.204-.366c.025-.01.049-.007.074-.017.254.109.817.392 1.113.564.386.242.51.457.51.457s.1-.05.025-.26c-.027-.086-.144-.36-.526-.637l.024.002c.227.114.443.248.647.399.108-.348.302-.71.26-1.36-.027-.455-.015-.574-.105-.75-.082-.151.045-.21.186-.053a1.457 1.457 0 0 0-.12-.358v-.012c.177-.543 3.725-1.957 3.983-2.122a3.45 3.45 0 0 0 1.044-1.007c.197-.278.346-.67.382-1.263.012-.267-.071-.479-1.011-.681-.564-.122-1.436-.24-2.782-.365-.981-.085-1.557-.716-1.884-1.297a7.977 7.977 0 0 0-.181-.353 2.575 2.575 0 0 1-.14-.407 7.747 7.747 0 0 1 3.021-3.71c.079-.065-.315.016-.237-.048.093-.075.694-.29.807-.338.14-.058-.593-.333-1.24-.266-.658.065-.798.135-1.15.267.146-.128.61-.297.501-.296-.71.096-1.592.462-2.346.877a.468.468 0 0 1 .045-.21c-.351.131-1.215.666-1.466 1.119.011-.087.016-.174.015-.261a4.35 4.35 0 0 0-.72.668l-.013.01c-2.038-.727-3.832-.775-5.35-.448-.332-.296-.866-.743-1.622-2.215-.051-.088-.079.183-.118.096-.294-.674-.471-1.778-.442-2.539 0 0-.607.274-1.11 1.418-.093.205-.153.319-.213.432-.027.033.063-.376.048-.353-.087.146-.313.35-.412.615-.069.196-.164.306-.225.55l-.015.023c-.005-.072.018-.296.002-.25-.236.47-.439.957-.607 1.455-.27.88-.586 2.079-.636 3.638-.012.118-.001.25-.012.357-.64.724-1.077 1.337-1.243 1.655-.828 1.267-1.741 3.24-2.626 6.364.394-.853.864-1.67 1.407-2.439C.854 19.622.142 22.225 0 26.234c.179-.83.407-1.648.684-2.45-.127 2.673.187 5.987 1.895 9.726 1.014 2.2 3.349 6.666 9.053 10.151 0 0 1.94 1.43 5.275 2.5.247.09.496.176.751.261a4.875 4.875 0 0 1-.232-.1c2.22.658 4.525.993 6.842.995 8.636.007 11.184-3.424 11.184-3.424l-.026.018c.122-.114.24-.232.352-.354-1.362 1.273-4.472 1.358-5.634 1.266 1.983-.576 3.287-1.064 5.825-2.026.297-.108.601-.233.912-.372l.1-.046c.062-.028.123-.055.185-.085a17.242 17.242 0 0 0 3.464-2.146c2.55-2.014 3.104-3.978 3.393-5.273-.04.124-.166.414-.254.601-.657 1.39-2.112 2.242-3.693 2.973a33.595 33.595 0 0 0 2.09-3.045c.516-.507.677-1.3 1.062-1.832Z"/><path id="o" d="M12.317 39.072c1.04-1.133 1.972-2.43 2.68-3.9 1.818-3.785 4.63-10.078 2.416-16.65-1.751-5.194-4.155-8.034-7.207-10.809C5.25 3.208 3.866 1.196 3.866 0c0 0-5.724 6.313-3.242 12.897C3.106 19.48 8.19 19.239 11.553 26.11 15.51 34.195 8.35 43.018 2.43 45.487c.363-.08 13.162-2.945 13.834-10.189-.015.133-.303 2.137-3.947 3.774Z"/><path id="q" d="M6.64 3.093c.02-.428-.205-.715-3.78-1.047C1.389 1.912.825.566.654 0 .13 1.345-.086 2.756.03 4.462.11 5.58.869 6.78 1.232 7.485c0 0 .08-.104.118-.142.683-.704 3.546-1.777 3.815-1.929.297-.185 1.425-1.001 1.475-2.321Z"/><path id="s" d="M3.758 2.442c-.051-.089-.079.183-.118.096C3.346 1.864 3.168.772 3.21 0c0 0-.607.274-1.11 1.418-.093.205-.153.319-.213.432-.027.033.063-.376.048-.353-.087.146-.313.35-.411.603-.082.207-.165.318-.228.575-.019.07.02-.309.003-.263C.13 4.648-.093 8.027.03 7.885c2.489-2.63 5.34-3.253 5.34-3.253-.303-.221-.962-.86-1.612-2.19Z"/><path id="u" d="M7.202 13.167C3.764 11.715-.143 9.667.004 5.014.204-1.114 5.78.097 5.78.097c-.21.05-.773.447-.972.87-.21.528-.595 1.72.57 2.97 1.828 1.96-3.757 4.652 4.864 9.735.217.117-2.021-.07-3.04-.505Z"/><path id="w" d="M4.407 4.564c2.437.84 5.277.693 6.977-.236 1.138-.627 2.598-1.631 3.496-1.384-.777-.304-1.367-.446-2.075-.48a4.16 4.16 0 0 1-.397-.016c-.26-.001-.519.013-.777.042-.438.04-.925.314-1.367.27-.024-.003.429-.184.392-.176-.234.048-.489.059-.758.092-.17.018-.318.04-.487.047C4.334 3.149.043 0 .043 0c-.365 1.217 1.635 3.624 4.364 4.564Z"/><path id="y" d="M10.634 37.968c5.136-4.989 7.734-11.053 6.635-17.855 0 0 .44 3.488-1.225 7.056.8-3.483.893-7.81-1.23-12.293-2.835-5.982-7.497-9.13-9.276-10.442C2.84 2.444 1.723.418 1.703 0c-.805 1.633-3.242 7.23-.261 12.049 2.792 4.515 7.19 5.855 10.27 9.997 5.673 7.63-1.078 15.922-1.078 15.922Z"/><path id="A" d="M23.457 7.002C21.663 3.334 19.423 1.734 17.304 0c.246.341.307.462.444.683 1.864 1.967 4.614 6.764 2.618 12.786C16.608 24.804 1.576 19.466 0 17.967c.638 6.56 11.735 9.7 18.96 5.445 4.112-3.851 7.438-10.398 4.497-16.41Z"/><radialGradient id="b" cx=".5" cy=".5" r=".5" gradientUnits="userSpaceOnUse" gradientTransform="matrix(33.875 1.49559 -2.22277 49.2663 -7.825 -17.838)"><stop offset=".045" stop-color="#FFEA00"/><stop offset=".12" stop-color="#FFDE00"/><stop offset=".254" stop-color="#FFBF00"/><stop offset=".429" stop-color="#FF8E00"/><stop offset=".769" stop-color="#FF272D"/><stop offset=".872" stop-color="#E0255A"/><stop offset=".953" stop-color="#CC2477"/><stop offset="1" stop-color="#C42482"/></radialGradient><radialGradient id="d" cx=".5" cy=".5" r=".5" gradientUnits="userSpaceOnUse" gradientTransform="matrix(95.5667 0 0 94.5615 -16.8 -41.888)"><stop offset="0" stop-color="#00CCDA"/><stop offset=".22" stop-color="#0083FF"/><stop offset=".261" stop-color="#007AF9"/><stop offset=".33" stop-color="#0060E8"/><stop offset=".333" stop-color="#005FE7"/><stop offset=".438" stop-color="#2639AD"/><stop offset=".522" stop-color="#401E84"/><stop offset=".566" stop-color="#4A1475"/></radialGradient><radialGradient id="h" cx=".5" cy=".5" r=".5" gradientUnits="userSpaceOnUse" gradientTransform="matrix(32.0773 3.20263 -3.23668 31.7399 .59 -19.482)"><stop offset=".003" stop-color="#FFEA00"/><stop offset=".497" stop-color="#FF272D"/><stop offset="1" stop-color="#C42482"/></radialGradient><radialGradient id="j" cx=".5" cy=".5" r=".5" gradientUnits="userSpaceOnUse" gradientTransform="matrix(53.5665 5.34813 -5.40499 53.0031 -16.016 -34.825)"><stop offset=".003" stop-color="#FFE900"/><stop offset=".157" stop-color="#FFAF0E"/><stop offset=".316" stop-color="#FF7A1B"/><stop offset=".472" stop-color="#FF4E26"/><stop offset=".621" stop-color="#FF2C2E"/><stop offset=".762" stop-color="#FF1434"/><stop offset=".892" stop-color="#FF0538"/><stop offset="1" stop-color="#FF0039"/></radialGradient><radialGradient id="l" cx=".5" cy=".5" r=".5" gradientUnits="userSpaceOnUse" gradientTransform="matrix(49.1531 4.90749 -4.95966 48.6361 3.89 -26.633)"><stop offset=".003" stop-color="#FF272D"/><stop offset=".497" stop-color="#C42482"/><stop offset=".986" stop-color="#620700"/></radialGradient><radialGradient id="n" cx=".5" cy=".5" r=".5" gradientUnits="userSpaceOnUse" gradientTransform="matrix(77.1214 0 0 76.3102 -3.303 -19.616)"><stop offset=".156" stop-color="#FFEA00"/><stop offset=".231" stop-color="#FFDE00"/><stop offset=".365" stop-color="#FFBF00"/><stop offset=".541" stop-color="#FF8E00"/><stop offset=".763" stop-color="#FF272D"/><stop offset=".796" stop-color="#F92433"/><stop offset=".841" stop-color="#E91C45"/><stop offset=".893" stop-color="#CF0E62"/><stop offset=".935" stop-color="#B5007F"/></radialGradient><radialGradient id="p" cx=".5" cy=".5" r=".5" gradientUnits="userSpaceOnUse" gradientTransform="matrix(91.0666 0 0 90.1088 -40.985 -44.992)"><stop offset=".279" stop-color="#FFEA00"/><stop offset=".402" stop-color="#FD0"/><stop offset=".63" stop-color="#FFBA00"/><stop offset=".856" stop-color="#FF9100"/><stop offset=".933" stop-color="#FF6711"/><stop offset=".994" stop-color="#FF4A1D"/></radialGradient><linearGradient id="f" x1="0" y1="0" x2="1" y2="0" gradientUnits="userSpaceOnUse" gradientTransform="matrix(-9.4377 -30.5477 30.8724 -9.33844 8.947 38.255)"><stop offset="0" stop-color="#000F43" stop-opacity=".4"/><stop offset=".485" stop-color="#001962" stop-opacity=".173"/><stop offset="1" stop-color="#002079" stop-opacity="0"/></linearGradient><linearGradient id="r" x1="0" y1="0" x2="1" y2="0" gradientUnits="userSpaceOnUse" gradientTransform="matrix(17.5283 -2.60398 2.63166 17.344 -9.391 -3.848)"><stop offset="0" stop-color="#C42482" stop-opacity=".5"/><stop offset=".474" stop-color="#FF272D" stop-opacity=".5"/><stop offset=".486" stop-color="#FF2C2C" stop-opacity=".513"/><stop offset=".675" stop-color="#FF7A1A" stop-opacity=".72"/><stop offset=".829" stop-color="#FFB20D" stop-opacity=".871"/><stop offset=".942" stop-color="#FFD605" stop-opacity=".964"/><stop offset="1" stop-color="#FFE302"/></linearGradient><linearGradient id="t" x1="0" y1="0" x2="1" y2="0" gradientUnits="userSpaceOnUse" gradientTransform="matrix(-1.98746 -7.0539 7.12888 -1.96656 -.53 8.47)"><stop offset="0" stop-color="#891551" stop-opacity=".6"/><stop offset="1" stop-color="#C42482" stop-opacity="0"/></linearGradient><linearGradient id="v" x1="0" y1="0" x2="1" y2="0" gradientUnits="userSpaceOnUse" gradientTransform="matrix(4.08929 5.64699 -5.70702 4.04628 3.678 -1.107)"><stop offset=".005" stop-color="#891551" stop-opacity=".5"/><stop offset=".484" stop-color="#FF272D" stop-opacity=".5"/><stop offset="1" stop-color="#FF272D" stop-opacity="0"/></linearGradient><linearGradient id="x" x1="0" y1="0" x2="1" y2="0" gradientUnits="userSpaceOnUse" gradientTransform="matrix(.37195 -3.62929 3.66787 .36804 5.236 5.07)"><stop offset="0" stop-color="#C42482"/><stop offset=".083" stop-color="#C42482" stop-opacity=".81"/><stop offset=".206" stop-color="#C42482" stop-opacity=".565"/><stop offset=".328" stop-color="#C42482" stop-opacity=".362"/><stop offset=".447" stop-color="#C42482" stop-opacity=".204"/><stop offset=".562" stop-color="#C42482" stop-opacity=".091"/><stop offset=".673" stop-color="#C42482" stop-opacity=".023"/><stop offset=".773" stop-color="#C42482" stop-opacity="0"/></linearGradient><linearGradient id="z" x1="0" y1="0" x2="1" y2="0" gradientUnits="userSpaceOnUse" gradientTransform="matrix(15.0685 33.3412 -33.6956 14.91 17.957 -6.83)"><stop offset="0" stop-color="#FFF14F"/><stop offset=".268" stop-color="#FFEE4C"/><stop offset=".452" stop-color="#FFE643"/><stop offset=".612" stop-color="#FFD834"/><stop offset=".757" stop-color="#FFC41E"/><stop offset=".892" stop-color="#FFAB02"/><stop offset=".902" stop-color="#FFA900"/><stop offset=".949" stop-color="#FFA000"/><stop offset="1" stop-color="#FF9100"/></linearGradient><linearGradient id="B" x1="0" y1="0" x2="1" y2="0" gradientUnits="userSpaceOnUse" gradientTransform="matrix(-7.13786 18.9634 -19.165 -7.06278 27.226 5.347)"><stop offset="0" stop-color="#FF8E00"/><stop offset=".04" stop-color="#FF8E00" stop-opacity=".858"/><stop offset=".084" stop-color="#FF8E00" stop-opacity=".729"/><stop offset=".13" stop-color="#FF8E00" stop-opacity=".628"/><stop offset=".178" stop-color="#FF8E00" stop-opacity=".557"/><stop offset=".227" stop-color="#FF8E00" stop-opacity=".514"/><stop offset=".282" stop-color="#FF8E00" stop-opacity=".5"/><stop offset=".389" stop-color="#FF8E00" stop-opacity=".478"/><stop offset=".524" stop-color="#FF8E00" stop-opacity=".416"/><stop offset=".676" stop-color="#FF8E00" stop-opacity=".314"/><stop offset=".838" stop-color="#FF8E00" stop-opacity=".172"/><stop offset="1" stop-color="#FF8E00" stop-opacity="0"/></linearGradient></defs></svg>