<svg width="48" height="48" xmlns="http://www.w3.org/2000/svg" xmlns:xlink="http://www.w3.org/1999/xlink"><use xlink:href="#a" transform="translate(6.2 17.396)" fill="#0E121B"/><use xlink:href="#b" transform="translate(6.2 20.291)" fill="#0E121B"/><use xlink:href="#c" transform="translate(13.6 17.518)" fill="#0E121B"/><use xlink:href="#d" transform="translate(21.1 18.167)" fill="#0E121B"/><use xlink:href="#e" fill="#0E121B"/><defs><path id="a" d="M2.403.692V.671C2.403.234 2.056 0 1.42 0H0v1.374h1.364c.659 0 1.039-.223 1.039-.682Z"/><path id="b" d="M1.654 0H0v1.441h1.676c.671 0 1.04-.257 1.04-.715V.704C2.716.279 2.38 0 1.654 0Z"/><path id="c" d="M1.43 0H0v1.889h1.441c.727 0 1.163-.357 1.163-.928V.94C2.604.313 2.146 0 1.431 0Z"/><path id="d" d="M0 2.213h1.754L.884 0 0 2.213Z"/><path id="e" d="M0 0v48h48V0H0Zm16.898 6h6.85v1.9h-2.346v5.924h-2.169V7.9h-2.335V6Zm-6.79 0H16.4v1.833h-4.147V9.03h3.756v1.71h-3.756v1.24h4.202v1.844h-6.348V6.001Zm-4.773 5.32c.38.459.737.727 1.23.727.536 0 .882-.369.882-1.095V6.001h2.157v4.962c0 .983-.246 1.677-.77 2.202-.515.514-1.253.794-2.146.794-1.364 0-2.191-.57-2.75-1.32l1.397-1.318Zm-1.196 4.332h4.012c.984 0 1.677.246 2.135.693.313.325.503.738.503 1.274v.023c0 .905-.514 1.442-1.208 1.744.95.312 1.555.848 1.555 1.91v.023c0 1.34-1.095 2.157-2.962 2.157H4.139v-7.824ZM22.14 42h-18v-3h18v3Zm1.892-18.524-.559-1.408h-3.028l-.559 1.408h-3.721l-1.576-2.37h-.962v2.37H11.46v-7.824h3.7c1.196 0 2.023.313 2.547.838.459.458.694 1.05.694 1.822v.023c0 1.207-.637 2-1.61 2.414l1.223 1.786 2.924-6.939h2.09l3.33 7.88h-2.325Zm4.75 0h-2.169v-7.823h2.169v7.823Zm7.924 0h-1.89l-3.352-4.292v4.292h-2.146v-7.823h2.022l3.22 4.135v-4.135h2.146v7.823Zm6.965-2.415c0 1.599-1.264 2.549-3.163 2.549-1.386 0-2.693-.436-3.666-1.297l1.207-1.442c.783.615 1.632.939 2.537.939.592 0 .905-.2.905-.536v-.023c0-.335-.257-.502-1.33-.76-1.665-.38-2.95-.849-2.95-2.447v-.022c0-1.453 1.151-2.504 3.029-2.504 1.33 0 2.369.358 3.218 1.04l-1.084 1.53c-.716-.513-1.497-.77-2.19-.77-.526 0-.782.212-.782.502v.023c0 .357.268.514 1.363.76 1.788.391 2.906.972 2.906 2.436v.022Z"/></defs></svg>