<svg width="50" height="51" xmlns="http://www.w3.org/2000/svg" xmlns:xlink="http://www.w3.org/1999/xlink"><g filter="url(#a)" transform="translate(-17620 259)"><use xlink:href="#b" transform="translate(17621 -258)" fill="url(#c)"/></g><use xlink:href="#d" transform="translate(2.8 2.8)" fill="url(#e)"/><use xlink:href="#f" transform="translate(24.8 3.756)" fill="#F3F3F3"/><use xlink:href="#g" transform="translate(24.7 3.738)" fill="#FFF"/><use xlink:href="#h" transform="translate(26.7 3.829)" fill="#F3F3F3"/><use xlink:href="#i" transform="translate(26.6 3.811)" fill="#FFF"/><use xlink:href="#j" transform="translate(28.1 4.16)" fill="#F3F3F3"/><use xlink:href="#k" transform="translate(28.1 4.143)" fill="#FFF"/><use xlink:href="#l" transform="translate(30.4 4.628)" fill="#F3F3F3"/><use xlink:href="#m" transform="translate(30.3 4.61)" fill="#FFF"/><use xlink:href="#n" transform="translate(31.3 5.358)" fill="#F3F3F3"/><use xlink:href="#o" transform="translate(31.3 5.347)" fill="#FFF"/><use xlink:href="#p" transform="translate(33.9 6.235)" fill="#F3F3F3"/><use xlink:href="#q" transform="translate(33.9 6.198)" fill="#FFF"/><use xlink:href="#r" transform="translate(34.3 7.331)" fill="#F3F3F3"/><use xlink:href="#s" transform="translate(34.3 7.304)" fill="#FFF"/><use xlink:href="#t" transform="translate(37 8.534)" fill="#F3F3F3"/><use xlink:href="#u" transform="translate(37 8.501)" fill="#FFF"/><use xlink:href="#v" transform="translate(36.9 9.979)" fill="#F3F3F3"/><use xlink:href="#w" transform="translate(36.8 9.953)" fill="#FFF"/><use xlink:href="#x" transform="translate(39.7 11.477)" fill="#F3F3F3"/><use xlink:href="#y" transform="translate(39.7 11.445)" fill="#FFF"/><use xlink:href="#z" transform="translate(39 13.148)" fill="#F3F3F3"/><use xlink:href="#A" transform="translate(38.9 13.099)" fill="#FFF"/><use xlink:href="#B" transform="translate(41.8 14.86)" fill="#F3F3F3"/><use xlink:href="#C" transform="translate(41.7 14.86)" fill="#FFF"/><use xlink:href="#D" transform="translate(40.5 16.75)" fill="#F3F3F3"/><use xlink:href="#E" transform="translate(40.5 16.731)" fill="#FFF"/><use xlink:href="#F" transform="translate(43.2 18.646)" fill="#F3F3F3"/><use xlink:href="#G" transform="translate(43.2 18.646)" fill="#FFF"/><use xlink:href="#H" transform="translate(41.5 20.718)" fill="#F3F3F3"/><use xlink:href="#I" transform="translate(41.5 20.68)" fill="#FFF"/><use xlink:href="#J" transform="translate(43.9 22.729)" fill="#F3F3F3"/><use xlink:href="#K" transform="translate(43.9 22.692)" fill="#FFF"/><use xlink:href="#L" transform="translate(41.8 24.775)" fill="#F3F3F3"/><use xlink:href="#M" transform="translate(41.8 24.756)" fill="#FFF"/><use xlink:href="#N" transform="translate(43.9 26.688)" fill="#F3F3F3"/><use xlink:href="#O" transform="translate(43.9 26.669)" fill="#FFF"/><use xlink:href="#P" transform="translate(41.5 28.091)" fill="#F3F3F3"/><use xlink:href="#Q" transform="translate(41.4 28.073)" fill="#FFF"/><use xlink:href="#R" transform="translate(43.1 30.354)" fill="#F3F3F3"/><use xlink:href="#S" transform="translate(43.1 30.348)" fill="#FFF"/><use xlink:href="#T" transform="translate(40.5 31.297)" fill="#F3F3F3"/><use xlink:href="#U" transform="translate(40.5 31.263)" fill="#FFF"/><use xlink:href="#V" transform="translate(41.7 33.847)" fill="#F3F3F3"/><use xlink:href="#W" transform="translate(41.7 33.817)" fill="#FFF"/><use xlink:href="#X" transform="translate(38.9 34.229)" fill="#F3F3F3"/><use xlink:href="#Y" transform="translate(38.9 34.206)" fill="#FFF"/><use xlink:href="#Z" transform="translate(39.6 36.966)" fill="#F3F3F3"/><use xlink:href="#aa" transform="translate(39.6 36.941)" fill="#FFF"/><use xlink:href="#ab" transform="translate(36.8 36.803)" fill="#F3F3F3"/><use xlink:href="#ac" transform="translate(36.8 36.784)" fill="#FFF"/><use xlink:href="#ad" transform="translate(36.9 39.613)" fill="#F3F3F3"/><use xlink:href="#ae" transform="translate(36.9 39.606)" fill="#FFF"/><use xlink:href="#af" transform="translate(34.2 38.917)" fill="#F3F3F3"/><use xlink:href="#ag" transform="translate(34.2 38.898)" fill="#FFF"/><use xlink:href="#ah" transform="translate(33.8 41.706)" fill="#F3F3F3"/><use xlink:href="#ai" transform="translate(33.8 41.687)" fill="#FFF"/><use xlink:href="#aj" transform="translate(31.3 40.485)" fill="#F3F3F3"/><use xlink:href="#ak" transform="translate(31.3 40.466)" fill="#FFF"/><use xlink:href="#al" transform="translate(30.3 43.15)" fill="#F3F3F3"/><use xlink:href="#am" transform="translate(30.3 43.131)" fill="#FFF"/><use xlink:href="#an" transform="translate(28.1 41.454)" fill="#F3F3F3"/><use xlink:href="#ao" transform="translate(28.1 41.436)" fill="#FFF"/><use xlink:href="#ap" transform="translate(26.6 43.898)" fill="#F3F3F3"/><use xlink:href="#aq" transform="translate(26.6 43.879)" fill="#FFF"/><use xlink:href="#ar" transform="translate(24.7 41.8)" fill="#F3F3F3"/><use xlink:href="#as" transform="translate(24.7 41.781)" fill="#FFF"/><use xlink:href="#at" transform="translate(22.7 43.898)" fill="#F3F3F3"/><use xlink:href="#au" transform="translate(22.6 43.879)" fill="#FFF"/><use xlink:href="#av" transform="translate(20.6 41.46)" fill="#F3F3F3"/><use xlink:href="#aw" transform="translate(20.6 41.441)" fill="#FFF"/><use xlink:href="#ax" transform="translate(18.6 43.14)" fill="#F3F3F3"/><use xlink:href="#ay" transform="translate(18.6 43.123)" fill="#FFF"/><use xlink:href="#az" transform="translate(16.6 40.476)" fill="#F3F3F3"/><use xlink:href="#aA" transform="translate(16.6 40.458)" fill="#FFF"/><use xlink:href="#aB" transform="translate(14.8 41.673)" fill="#F3F3F3"/><use xlink:href="#aC" transform="translate(14.8 41.654)" fill="#FFF"/><use xlink:href="#aD" transform="translate(13 38.879)" fill="#F3F3F3"/><use xlink:href="#aE" transform="translate(13 38.86)" fill="#FFF"/><use xlink:href="#aF" transform="translate(11.4 39.565)" fill="#F3F3F3"/><use xlink:href="#aG" transform="translate(11.3 39.532)" fill="#FFF"/><use xlink:href="#aH" transform="translate(9.8 36.728)" fill="#F3F3F3"/><use xlink:href="#aI" transform="translate(9.8 36.709)" fill="#FFF"/><use xlink:href="#aJ" transform="translate(8.5 36.865)" fill="#F3F3F3"/><use xlink:href="#aK" transform="translate(8.4 36.832)" fill="#FFF"/><use xlink:href="#aL" transform="translate(7.2 34.148)" fill="#F3F3F3"/><use xlink:href="#aM" transform="translate(7.2 34.118)" fill="#FFF"/><use xlink:href="#aN" transform="translate(6.2 33.723)" fill="#F3F3F3"/><use xlink:href="#aO" transform="translate(6.2 33.704)" fill="#FFF"/><use xlink:href="#aP" transform="translate(5.3 31.204)" fill="#F3F3F3"/><use xlink:href="#aQ" transform="translate(5.3 31.169)" fill="#FFF"/><use xlink:href="#aR" transform="translate(4.6 30.25)" fill="#F3F3F3"/><use xlink:href="#aS" transform="translate(4.6 30.222)" fill="#FFF"/><use xlink:href="#aT" transform="translate(4.1 27.979)" fill="#F3F3F3"/><use xlink:href="#aU" transform="translate(4.1 27.955)" fill="#FFF"/><use xlink:href="#aV" transform="translate(3.8 26.517)" fill="#F3F3F3"/><use xlink:href="#aW" transform="translate(3.8 26.498)" fill="#FFF"/><use xlink:href="#aX" transform="translate(3.8 24.663)" fill="#F3F3F3"/><use xlink:href="#aY" transform="translate(3.7 24.644)" fill="#FFF"/><use xlink:href="#aZ" transform="translate(3.8 22.619)" fill="#E2E2E2"/><use xlink:href="#ba" transform="translate(3.8 22.6)" fill="#FFF"/><use xlink:href="#bb" transform="translate(4.2 20.573)" fill="#F3F3F3"/><use xlink:href="#bc" transform="translate(4.1 20.554)" fill="#FFF"/><use xlink:href="#bd" transform="translate(4.6 18.617)" fill="#F3F3F3"/><use xlink:href="#be" transform="translate(4.6 18.592)" fill="#FFF"/><use xlink:href="#bf" transform="translate(5.3 16.654)" fill="#F3F3F3"/><use xlink:href="#bg" transform="translate(5.3 16.638)" fill="#FFF"/><use xlink:href="#bh" transform="translate(6.2 14.816)" fill="#F3F3F3"/><use xlink:href="#bi" transform="translate(6.2 14.804)" fill="#FFF"/><use xlink:href="#bj" transform="translate(7.3 13.06)" fill="#F3F3F3"/><use xlink:href="#bk" transform="translate(7.3 13.037)" fill="#FFF"/><use xlink:href="#bl" transform="translate(8.5 11.428)" fill="#F3F3F3"/><use xlink:href="#bm" transform="translate(8.5 11.404)" fill="#FFF"/><use xlink:href="#bn" transform="translate(9.9 9.897)" fill="#F3F3F3"/><use xlink:href="#bo" transform="translate(9.9 9.878)" fill="#FFF"/><use xlink:href="#bp" transform="translate(11.4 8.544)" fill="#F3F3F3"/><use xlink:href="#bq" transform="translate(11.4 8.499)" fill="#FFF"/><use xlink:href="#br" transform="translate(13.1 7.285)" fill="#F3F3F3"/><use xlink:href="#bs" transform="translate(13 7.267)" fill="#FFF"/><use xlink:href="#bt" transform="translate(14.8 6.231)" fill="#F3F3F3"/><use xlink:href="#bu" transform="translate(14.8 6.231)" fill="#FFF"/><use xlink:href="#bv" transform="translate(16.7 5.366)" fill="#F3F3F3"/><use xlink:href="#bw" transform="translate(16.6 5.347)" fill="#FFF"/><use xlink:href="#bx" transform="translate(18.6 4.664)" fill="#F3F3F3"/><use xlink:href="#by" transform="translate(18.6 4.638)" fill="#FFF"/><use xlink:href="#bz" transform="translate(20.6 4.16)" fill="#F3F3F3"/><use xlink:href="#bA" transform="translate(20.5 4.143)" fill="#FFF"/><use xlink:href="#bB" transform="translate(22.6 3.848)" fill="#F3F3F3"/><use xlink:href="#bC" transform="translate(22.5 3.829)" fill="#FFF"/><use xlink:href="#bD" transform="translate(2.9 2.781)" fill="url(#bE)" fill-opacity=".2"/><g filter="url(#bF)" transform="translate(-17620 259)"><use xlink:href="#bG" transform="translate(17631.4 -248.1)" fill-opacity=".05"/></g><use xlink:href="#bH" transform="translate(22.5 9.831)" fill="#CD151E"/><use xlink:href="#bI" transform="translate(22.5 9.831)" fill="#FA5153"/><use xlink:href="#bJ" transform="translate(10 22.375)" fill="#ACACAC"/><use xlink:href="#bK" transform="translate(10 22.375)" fill="#EEE"/><defs><path id="b" d="M24 48c13.255 0 24-10.745 24-24S37.255 0 24 0 0 10.745 0 24s10.745 24 24 24Z"/><path id="d" d="M22.2 44.4c12.26 0 22.2-9.94 22.2-22.2S34.46 0 22.2 0 0 9.94 0 22.2s9.94 22.2 22.2 22.2Z"/><path id="f" d="M.281 4.444C.131 4.444 0 4.33 0 4.18V.263C0 .113.131 0 .281 0c.15 0 .281.113.281.263V4.18c-.018.15-.13.263-.28.263Z"/><path id="g" d="M.3 4.481c-.169 0-.3-.131-.3-.281V.281C0 .131.131 0 .3 0c.169 0 .3.131.3.281V4.2c0 .15-.15.281-.3.281ZM.3.037C.169.037.038.15.038.281V4.2c0 .131.112.244.262.244.131 0 .263-.113.263-.244V.281C.543.15.43.037.3.037Z"/><path id="h" d="M.263 2.27C.113 2.253 0 2.14 0 1.99L.131.246a.273.273 0 0 1 .3-.244c.15.019.263.131.263.281L.563 2.027a.273.273 0 0 1-.3.244Z"/><path id="i" d="M.281 2.308a.304.304 0 0 1-.281-.3L.131.264C.15.114.281-.017.45.002c.169.019.281.15.281.3L.6 2.046c-.019.168-.15.28-.319.262ZM.45.039C.319.04.187.133.187.264l-.13 1.744c0 .131.093.244.243.263.131 0 .263-.094.263-.225L.693.302C.694.17.582.058.45.039Z"/><path id="j" d="M.227 4.377a.288.288 0 0 1-.225-.319L.772.215C.808.065.94-.03 1.09.008c.15.038.244.169.225.319L.546 4.171c-.019.131-.169.225-.319.206Z"/><path id="k" d="M.246 4.414a.306.306 0 0 1-.244-.338L.772.232a.302.302 0 0 1 .355-.225.306.306 0 0 1 .244.338L.602 4.189c-.037.15-.187.243-.356.225Zm.881-4.37a.269.269 0 0 0-.3.188L.06 4.076a.266.266 0 0 0 .206.3.269.269 0 0 0 .3-.187L1.334.345c.018-.15-.075-.263-.207-.3Z"/><path id="l" d="M.215 2.222a.28.28 0 0 1-.207-.337L.477.197C.515.047.665-.028.815.01a.28.28 0 0 1 .206.337L.552 2.035c-.037.15-.187.225-.337.187Z"/><path id="m" d="M.221 2.258c-.15-.037-.263-.206-.206-.356L.483.215A.3.3 0 0 1 .84.008c.15.038.262.207.206.357L.577 2.052c-.037.15-.187.244-.356.206ZM.84.065C.708.027.558.102.52.233L.052 1.921c-.037.131.038.262.188.3.131.037.281-.038.318-.169l.47-1.687a.269.269 0 0 0-.188-.3Z"/><path id="n" d="M.171 4.136a.268.268 0 0 1-.15-.356L1.521.16c.057-.131.225-.206.357-.131.15.056.206.225.15.356l-1.5 3.619c-.057.131-.225.206-.357.131Z"/><path id="o" d="M.187 4.165A.291.291 0 0 1 .02 3.79l1.5-3.619c.056-.15.225-.206.393-.15.15.057.225.225.17.375l-1.5 3.62c-.076.15-.245.224-.395.15ZM1.894.06a.254.254 0 0 0-.338.131L.056 3.81c-.056.131.019.262.15.319.131.056.281 0 .338-.132l1.5-3.618a.267.267 0 0 0-.15-.32Z"/><path id="p" d="M.153 2.059c-.131-.075-.188-.225-.131-.357L.809.146a.274.274 0 0 1 .375-.112c.131.075.188.225.131.356L.528 1.946a.274.274 0 0 1-.375.113Z"/><path id="q" d="M.164 2.114a.287.287 0 0 1-.13-.393L.82.164a.287.287 0 0 1 .393-.13c.15.074.207.243.132.393L.558 1.983a.287.287 0 0 1-.394.131ZM1.196.071C1.064.014.914.05.858.183L.071 1.74c-.057.113 0 .263.112.338.131.056.281.019.338-.113L1.308.408c.056-.112 0-.262-.112-.337Z"/><path id="r" d="M.127 3.738c-.131-.094-.169-.263-.075-.375L2.227.119c.075-.131.244-.15.375-.075.131.094.169.262.075.375L.502 3.663a.254.254 0 0 1-.375.075Z"/><path id="s" d="M.132 3.783a.324.324 0 0 1-.094-.412L2.213.127a.296.296 0 0 1 .413-.075.324.324 0 0 1 .093.413L.544 3.708a.3.3 0 0 1-.412.075ZM2.607.09c-.113-.075-.281-.057-.356.056L.076 3.39a.244.244 0 0 0 .075.337c.112.075.281.056.356-.056L2.682.446A.267.267 0 0 0 2.607.09Z"/><path id="t" d="M.11 1.841c-.113-.093-.15-.262-.057-.375L1.141.098A.267.267 0 0 1 1.516.06c.112.094.15.263.056.375L.484 1.804a.267.267 0 0 1-.375.037Z"/><path id="u" d="M.115 1.893c-.131-.094-.15-.282-.056-.413L1.146.111c.094-.13.281-.15.413-.037.13.094.15.281.056.412L.527 1.856c-.093.13-.28.15-.412.037ZM1.52.11C1.41.018 1.26.036 1.165.15L.077 1.518a.266.266 0 0 0 .057.356c.112.094.262.075.356-.038L1.577.468c.075-.113.057-.282-.056-.357Z"/><path id="v" d="M.084 3.209c-.112-.113-.112-.281 0-.375L2.86.078a.266.266 0 0 1 .375 0c.094.093.113.28 0 .375L.478 3.209a.272.272 0 0 1-.394 0Z"/><path id="w" d="M.084 3.253a.294.294 0 0 1 0-.412L2.86.084a.294.294 0 0 1 .413 0c.112.113.112.3 0 .413L.497 3.253a.294.294 0 0 1-.413 0Zm3.17-3.15a.26.26 0 0 0-.357 0L.122 2.86a.26.26 0 0 0 0 .357.26.26 0 0 0 .356 0L3.253.459c.094-.093.094-.243 0-.356Z"/><path id="x" d="M.068 1.56c-.094-.112-.094-.281.019-.375L1.418.06a.267.267 0 0 1 .375.038c.094.112.094.28-.019.375L.444 1.598a.267.267 0 0 1-.376-.038Z"/><path id="y" d="M.076 1.611c-.113-.13-.094-.318.018-.412L1.426.074c.112-.113.3-.094.412.037.113.132.094.32-.019.413L.49 1.649c-.113.112-.3.094-.413-.038ZM1.8.131C1.707.017 1.557.017 1.444.092L.114 1.218a.26.26 0 0 0-.02.356c.094.112.244.112.357.037L1.78.486c.113-.093.113-.243.02-.356Z"/><path id="z" d="M.052 2.589a.254.254 0 0 1 .075-.375L3.39.039c.13-.075.3-.037.375.075.093.131.056.3-.075.375L.427 2.664c-.112.075-.281.038-.375-.075Z"/><path id="A" d="M.052 2.639a.3.3 0 0 1 .075-.413L3.39.051a.288.288 0 0 1 .412.094.3.3 0 0 1-.075.412L.465 2.732a.288.288 0 0 1-.413-.093ZM3.765.182a.244.244 0 0 0-.338-.075L.165 2.282c-.113.075-.15.225-.057.357.075.112.225.15.338.075L3.708.539a.266.266 0 0 0 .057-.357Z"/><path id="B" d="M.038 1.271A.273.273 0 0 1 .132.896L1.651.034c.131-.075.3-.02.375.112.075.131.037.3-.094.375l-1.519.863c-.131.075-.3.018-.375-.113Z"/><path id="C" d="M.038 1.29C-.037 1.14.001.97.132.896L1.651.034c.131-.075.318-.02.393.112.075.15.038.319-.093.394l-1.519.862c-.131.075-.319.02-.394-.112ZM2.026.165C1.95.034 1.8-.004 1.688.07L.17.934a.27.27 0 0 0-.093.337c.075.131.225.169.337.094L1.932.502c.112-.056.15-.206.094-.337Z"/><path id="D" d="M.021 1.875c-.056-.15 0-.3.15-.356l3.62-1.5c.13-.056.3.019.355.15.057.15 0 .3-.15.356l-3.618 1.5c-.132.056-.3 0-.357-.15Z"/><path id="E" d="M.021 1.912a.31.31 0 0 1 .15-.393l3.62-1.5a.291.291 0 0 1 .374.168.31.31 0 0 1-.15.394l-3.619 1.5a.291.291 0 0 1-.375-.169ZM4.128.206a.267.267 0 0 0-.32-.15L.19 1.556a.254.254 0 0 0-.131.338.267.267 0 0 0 .319.15l3.618-1.5a.254.254 0 0 0 .132-.338Z"/><path id="F" d="M.019.917C-.038.767.037.617.187.56l1.65-.543c.132-.057.3.037.338.168.056.15-.019.3-.169.357l-1.65.543C.225 1.142.075 1.067.02.917Z"/><path id="G" d="M.018.935A.286.286 0 0 1 .206.56l1.65-.544c.15-.056.319.038.375.188a.286.286 0 0 1-.188.375l-1.65.544A.319.319 0 0 1 .018.935ZM2.193.223C2.156.092 2.006.016 1.875.054L.225.598C.093.635.037.785.075.917c.037.13.187.206.318.168l1.65-.543a.259.259 0 0 0 .15-.32Z"/><path id="H" d="M.008 1.076c-.037-.15.057-.3.207-.319l3.843-.75c.15-.037.282.075.319.225.038.15-.056.3-.206.319l-3.844.75c-.15.019-.3-.075-.319-.225Z"/><path id="I" d="M.007 1.113A.302.302 0 0 1 .232.757l3.844-.75c.15-.037.3.075.338.244a.302.302 0 0 1-.225.356l-3.844.75c-.15.038-.3-.075-.338-.244ZM4.376.27a.251.251 0 0 0-.281-.207L.25.813c-.131.02-.225.17-.187.3.018.132.15.225.28.207L4.19.57c.13-.038.225-.169.187-.3Z"/><path id="J" d="M.002.508c-.018-.15.075-.281.225-.3L1.952.002a.273.273 0 0 1 .3.244c.02.15-.075.281-.225.3L.302.752C.172.771.022.658.002.508Z"/><path id="K" d="M.002.546C-.017.377.096.227.246.208L1.97.002c.15-.019.3.094.319.263.018.168-.094.318-.244.337L.32.808A.292.292 0 0 1 .002.546ZM2.271.283C2.252.152 2.12.04 1.99.058L.265.265a.251.251 0 0 0-.207.28C.077.678.208.79.34.772L2.065.565A.251.251 0 0 0 2.27.283Z"/><path id="L" d="M0 .281C0 .131.113 0 .263 0H4.18c.15 0 .263.131.263.281 0 .15-.113.281-.263.281H.263C.113.563 0 .432 0 .282Z"/><path id="M" d="M0 .3C0 .131.131 0 .281 0H4.2c.15 0 .281.131.281.3 0 .169-.131.3-.281.3H.281C.131.6 0 .469 0 .3Zm4.444.019c0-.132-.113-.263-.244-.263H.281C.15.056.038.17.038.32.038.45.15.58.28.58H4.2c.131-.018.244-.131.244-.262Z"/><path id="N" d="M0 .262C.019.112.131 0 .281 0l1.744.131c.15.019.263.15.244.3-.019.15-.131.263-.282.263L.244.563C.112.542 0 .412 0 .263Z"/><path id="O" d="M0 .281A.304.304 0 0 1 .3 0l1.744.131c.15.019.281.15.262.319a.304.304 0 0 1-.3.281L.263.6C.112.581 0 .431 0 .281ZM2.288.45a.237.237 0 0 0-.225-.263L.319.057C.187.056.075.15.056.3a.237.237 0 0 0 .225.262l1.744.132c.131 0 .244-.113.263-.244Z"/><path id="P" d="M.002.227a.288.288 0 0 1 .32-.225l3.843.77c.15.037.244.168.206.318a.288.288 0 0 1-.319.225L.21.546C.077.527-.016.377.002.227Z"/><path id="Q" d="M.002.246A.306.306 0 0 1 .34.002l3.844.77c.15.037.262.187.225.355a.306.306 0 0 1-.338.244L.227.602C.077.565-.016.415.002.246Zm4.37.881a.269.269 0 0 0-.188-.3L.34.06a.266.266 0 0 0-.3.206.269.269 0 0 0 .187.3l3.844.769c.15.018.263-.075.3-.207Z"/><path id="R" d="M.01.215A.28.28 0 0 1 .347.008l1.688.469c.15.038.225.188.187.338a.28.28 0 0 1-.337.206L.197.552C.047.515-.028.365.01.215Z"/><path id="S" d="M.008.221C.046.071.215-.042.365.015l1.687.468a.3.3 0 0 1 .206.357c-.037.15-.206.262-.356.206L.215.577C.065.54-.03.39.008.221ZM2.202.84C2.24.708 2.165.558 2.033.52L.346.052C.215.015.083.09.046.24.008.37.083.52.215.558l1.687.47a.269.269 0 0 0 .3-.188Z"/><path id="T" d="M.021.171a.268.268 0 0 1 .357-.15l3.618 1.5c.132.057.207.225.15.357a.268.268 0 0 1-.356.15L.171.528A.268.268 0 0 1 .021.17Z"/><path id="U" d="M.021.187A.291.291 0 0 1 .396.02l3.62 1.5c.15.056.205.225.15.393a.291.291 0 0 1-.376.17L.171.581a.31.31 0 0 1-.15-.395Zm4.107 1.707a.254.254 0 0 0-.132-.338L.378.056C.246 0 .115.075.058.206A.254.254 0 0 0 .19.544l3.619 1.5c.131.037.281-.02.319-.15Z"/><path id="V" d="M.034.153C.109.022.259-.035.39.022l1.556.787c.131.056.188.225.113.375-.075.131-.225.188-.357.131L.146.528C.015.453-.04.284.034.153Z"/><path id="W" d="M.033.164a.287.287 0 0 1 .394-.13L1.983.82c.15.075.206.243.131.393a.287.287 0 0 1-.393.132L.164.558C.014.502-.042.314.034.164Zm2.025 1.032c.056-.132.019-.282-.112-.338L.389.071C.277.014.127.07.052.183-.004.314.033.464.164.521l1.557.787c.13.056.28.019.337-.112Z"/><path id="X" d="M.052.127C.146-.004.296-.042.427.052L3.69 2.227c.13.075.15.244.075.375-.094.131-.244.169-.375.075L.127.502C-.004.408-.042.24.052.127Z"/><path id="Y" d="M.057.132A.324.324 0 0 1 .47.038l3.262 2.175a.296.296 0 0 1 .075.413.324.324 0 0 1-.412.093L.132.544C-.018.451-.036.264.057.132Zm3.694 2.475c.075-.113.056-.281-.056-.356L.432.076A.244.244 0 0 0 .095.15C.02.263.039.432.15.507l3.263 2.175a.244.244 0 0 0 .337-.075Z"/><path id="Z" d="M.06.11C.154-.004.323-.04.435.052l1.369 1.069a.267.267 0 0 1 .037.375c-.093.112-.262.15-.375.056L.098.484A.267.267 0 0 1 .06.11Z"/><path id="aa" d="M.059.115c.093-.131.28-.15.412-.056L1.84 1.127c.131.094.15.282.056.413s-.281.15-.412.056L.114.527C-.015.434-.035.247.06.115Zm1.8 1.406c.093-.112.075-.262-.038-.356L.452.096a.266.266 0 0 0-.356.056C.002.265.021.415.134.51l1.368 1.068a.266.266 0 0 0 .357-.056Z"/><path id="ab" d="M.07.084c.113-.112.282-.112.375 0L3.22 2.841a.266.266 0 0 1 0 .375c-.112.112-.28.112-.375 0L.07.459a.285.285 0 0 1 0-.375Z"/><path id="ac" d="M.098.084a.294.294 0 0 1 .413 0l2.775 2.757c.112.112.112.3 0 .412a.294.294 0 0 1-.413 0L.098.497a.265.265 0 0 1 0-.413Zm3.15 3.132a.26.26 0 0 0 0-.357L.473.103a.26.26 0 0 0-.356 0 .26.26 0 0 0 0 .356l2.775 2.757c.094.112.244.112.356 0Z"/><path id="ad" d="M.098.068c.112-.094.28-.094.375.019l1.143 1.312a.267.267 0 0 1-.037.375c-.113.094-.281.094-.375-.018L.06.443C-.034.35-.015.181.098.068Z"/><path id="ae" d="M.104.076a.294.294 0 0 1 .412.018L1.66 1.407c.112.112.094.3-.038.412a.294.294 0 0 1-.412-.018L.066.488C-.028.357-.028.17.104.076Zm1.5 1.706c.112-.094.112-.244.037-.356L.497.113A.26.26 0 0 0 .141.094C.03.188.03.338.104.451l1.143 1.312c.094.113.244.113.357.019Z"/><path id="af" d="M.114.052a.254.254 0 0 1 .375.075l2.175 3.244c.075.131.038.3-.075.375a.254.254 0 0 1-.375-.075L.039.427C-.036.296.002.127.114.052Z"/><path id="ag" d="M.145.052a.3.3 0 0 1 .412.075l2.175 3.244a.288.288 0 0 1-.093.412.3.3 0 0 1-.413-.075L.051.465A.285.285 0 0 1 .145.052ZM2.62 3.746a.244.244 0 0 0 .075-.338L.52.165C.445.052.295.033.164.108a.244.244 0 0 0-.075.338L2.264 3.69c.075.093.243.13.356.056Z"/><path id="ah" d="M.138.038a.273.273 0 0 1 .375.094l.862 1.519c.075.131.02.3-.112.375a.273.273 0 0 1-.375-.094L.025.413C-.03.282.007.113.138.038Z"/><path id="ai" d="M.15.038C.3-.037.469.001.544.132l.862 1.519c.075.131.038.318-.112.393-.15.075-.319.038-.394-.093L.038.432C-.037.301 0 .132.15.038Zm1.125 1.988c.113-.075.169-.225.094-.338L.506.17A.27.27 0 0 0 .17.076C.056.15 0 .3.075.413l.862 1.519c.057.112.226.169.338.094Z"/><path id="aj" d="M.169.022c.15-.057.3 0 .356.131l1.519 3.619c.056.131-.019.3-.15.356-.131.056-.3 0-.356-.131L.018.378c-.055-.131.02-.3.15-.356Z"/><path id="ak" d="M.187.021a.31.31 0 0 1 .394.15L2.1 3.791a.291.291 0 0 1-.169.374.31.31 0 0 1-.394-.15L.02.396c-.057-.13.018-.3.168-.375Zm1.707 4.107c.13-.057.187-.207.13-.32L.507.19A.254.254 0 0 0 .17.06C.037.115-.02.265.037.378l1.52 3.618c.074.132.205.188.337.132Z"/><path id="al" d="M.187.019c.15-.057.3.018.357.168l.543 1.65c.057.132-.037.3-.168.338-.15.056-.3-.019-.357-.169L.02.356C-.038.225.037.075.187.02Z"/><path id="am" d="M.197.019a.291.291 0 0 1 .375.168l.544 1.65c.056.15-.038.32-.188.375a.291.291 0 0 1-.375-.168L.01.394A.319.319 0 0 1 .197.019Zm.731 2.156c.132-.038.207-.188.17-.319L.552.206C.516.075.366.02.235.056.103.094.028.244.065.375l.545 1.65a.237.237 0 0 0 .318.15Z"/><path id="an" d="M.227.008c.15-.037.3.057.32.207l.787 3.843c.037.15-.075.282-.225.319-.15.038-.3-.056-.32-.206L.003.327A.3.3 0 0 1 .227.008Z"/><path id="ao" d="M.233.007A.302.302 0 0 1 .59.232l.788 3.844c.037.15-.075.319-.225.338a.302.302 0 0 1-.356-.225L.008.345c-.037-.15.056-.3.225-.338Zm.881 4.369c.132-.019.225-.15.207-.3L.533.232C.514.101.364.007.233.045c-.131.019-.225.15-.206.3l.787 3.844a.269.269 0 0 0 .3.187Z"/><path id="ap" d="M.246.002a.288.288 0 0 1 .319.225L.79 1.952a.273.273 0 0 1-.244.3.288.288 0 0 1-.319-.225L.002.302a.273.273 0 0 1 .244-.3Z"/><path id="aq" d="M.265.002c.168-.019.318.094.337.244L.827 1.97c.019.15-.094.3-.262.319-.17.018-.32-.094-.338-.244L.002.32A.292.292 0 0 1 .265.002Zm.28 2.25c.132-.019.245-.15.226-.281L.546.246A.251.251 0 0 0 .265.04C.133.058.02.19.04.32l.225 1.726c.018.131.15.225.28.206Z"/><path id="ar" d="M.281 0c.15 0 .281.113.281.263V4.18c0 .15-.13.263-.28.263C.131 4.444 0 4.33 0 4.18V.263C.019.113.131 0 .281 0Z"/><path id="as" d="M.3 0c.169 0 .3.131.3.281V4.2c0 .15-.131.281-.3.281-.169 0-.3-.131-.3-.281V.281C0 .131.15 0 .3 0Zm0 4.444c.131 0 .263-.113.263-.244V.281C.563.15.45.038.3.038.169.038.037.15.037.28V4.2c.02.131.132.244.263.244Z"/><path id="at" d="M.431.002c.15.019.263.131.263.281L.563 2.027a.273.273 0 0 1-.3.244C.112 2.252 0 2.14 0 1.99L.131.246a.273.273 0 0 1 .3-.244Z"/><path id="au" d="M.45.002c.169.019.281.15.281.3L.6 2.046c-.019.15-.15.281-.319.262a.304.304 0 0 1-.281-.3L.131.265C.15.095.281-.017.45.002ZM.281 2.271c.131 0 .263-.094.263-.225L.675.302C.675.171.581.058.431.04.3.04.17.133.17.265L.038 2.008c0 .132.112.244.243.263Z"/><path id="av" d="M1.09.002c.15.038.244.17.225.32L.546 4.164c-.037.15-.169.244-.319.206a.288.288 0 0 1-.225-.319L.772.21C.79.077.94-.016 1.09.002Z"/><path id="aw" d="M1.127.002a.306.306 0 0 1 .244.338L.602 4.184a.302.302 0 0 1-.356.225.306.306 0 0 1-.244-.338L.772.227c.037-.15.187-.243.355-.225Zm-.88 4.37a.269.269 0 0 0 .3-.188L1.314.34a.266.266 0 0 0-.206-.3.269.269 0 0 0-.3.187l-.77 3.844c-.018.15.076.263.207.3Z"/><path id="ax" d="M.815.01a.28.28 0 0 1 .206.337L.552 2.035c-.037.15-.187.225-.337.187a.28.28 0 0 1-.207-.337L.477.197C.515.047.665-.028.815.01Z"/><path id="ay" d="M.84.008c.15.038.262.207.206.357L.577 2.052a.3.3 0 0 1-.356.206c-.15-.037-.263-.206-.206-.356L.483.215C.521.065.671-.03.84.008ZM.22 2.202c.131.038.281-.037.319-.169L1.008.346C1.046.215.971.083.821.046.69.008.54.083.502.215L.033 1.902a.269.269 0 0 0 .188.3Z"/><path id="az" d="M1.875.03c.15.056.206.225.15.356l-1.5 3.619C.47 4.136.3 4.21.17 4.136c-.131-.075-.206-.225-.15-.356L1.519.16c.056-.131.225-.206.356-.131Z"/><path id="aA" d="M1.912.03c.15.056.225.224.17.374l-1.5 3.62c-.057.15-.226.205-.395.15a.291.291 0 0 1-.168-.376L1.519.18c.075-.15.243-.225.393-.15ZM.206 4.135c.131.056.281 0 .338-.132l1.5-3.618c.056-.132-.02-.263-.15-.32a.254.254 0 0 0-.338.132l-1.5 3.619a.267.267 0 0 0 .15.319Z"/><path id="aB" d="M1.184.034c.131.075.188.225.131.356L.528 1.946a.274.274 0 0 1-.375.113c-.131-.075-.188-.225-.131-.357L.809.146a.274.274 0 0 1 .375-.112Z"/><path id="aC" d="M1.214.033c.15.075.207.244.132.394L.558 1.983a.287.287 0 0 1-.394.131.287.287 0 0 1-.13-.393L.82.164a.287.287 0 0 1 .393-.13ZM.184 2.077c.13.056.28.019.337-.113L1.308.408c.056-.112 0-.262-.112-.337C1.064.014.914.05.858.183L.071 1.74c-.057.113 0 .263.112.338Z"/><path id="aD" d="M2.602.052c.131.094.169.263.075.375L.502 3.671c-.075.131-.244.15-.375.075-.131-.094-.169-.263-.075-.375L2.227.127a.254.254 0 0 1 .375-.075Z"/><path id="aE" d="M2.626.052a.324.324 0 0 1 .093.413L.544 3.708a.296.296 0 0 1-.412.075.324.324 0 0 1-.094-.412L2.213.127a.3.3 0 0 1 .413-.075ZM.15 3.746c.112.075.281.056.356-.056L2.682.446a.244.244 0 0 0-.075-.338c-.113-.075-.281-.056-.356.057L.076 3.39a.267.267 0 0 0 .075.356Z"/><path id="aF" d="M1.516.06c.112.094.15.263.056.375L.484 1.804a.267.267 0 0 1-.375.037c-.112-.093-.15-.262-.056-.375L1.141.098A.267.267 0 0 1 1.516.06Z"/><path id="aG" d="M1.559.074c.13.094.15.281.056.412L.527 1.856c-.093.13-.28.15-.412.037-.131-.094-.15-.282-.056-.413L1.146.111c.094-.13.281-.15.413-.037ZM.152 1.855c.113.094.263.075.357-.037L1.596.448A.266.266 0 0 0 1.54.094c-.113-.094-.263-.075-.356.037L.096 1.5c-.075.112-.056.281.056.356Z"/><path id="aH" d="M3.228.084c.112.113.112.282 0 .375L.453 3.216a.266.266 0 0 1-.375 0c-.094-.094-.113-.282 0-.375L2.834.084a.272.272 0 0 1 .393 0Z"/><path id="aI" d="M3.272.084c.112.113.112.3 0 .413L.497 3.253a.294.294 0 0 1-.413 0 .294.294 0 0 1 0-.412L2.86.084a.294.294 0 0 1 .413 0ZM.103 3.234a.26.26 0 0 0 .356 0L3.234.478a.26.26 0 0 0 0-.356.26.26 0 0 0-.356 0L.103 2.878c-.094.094-.094.244 0 .356Z"/><path id="aJ" d="M1.793.098c.094.112.094.28-.019.375L.444 1.598a.267.267 0 0 1-.376-.038c-.094-.112-.094-.281.019-.375L1.418.06a.267.267 0 0 1 .375.038Z"/><path id="aK" d="M1.838.111c.113.132.094.32-.019.413L.49 1.649c-.113.112-.3.094-.413-.038-.113-.13-.094-.318.018-.412L1.426.074c.112-.113.3-.094.412.037ZM.113 1.593c.094.112.244.112.356.037L1.801.505A.26.26 0 0 0 1.819.15C1.726.036 1.576.036 1.463.11L.132 1.236c-.113.094-.113.244-.019.357Z"/><path id="aL" d="M3.765.114c.093.131.056.3-.075.375L.427 2.664c-.131.075-.3.038-.375-.075a.254.254 0 0 1 .075-.375L3.39.039c.112-.075.28-.037.375.075Z"/><path id="aM" d="M3.802.145a.3.3 0 0 1-.075.412L.465 2.732a.288.288 0 0 1-.413-.093.3.3 0 0 1 .075-.413L3.39.051a.288.288 0 0 1 .412.094ZM.09 2.6c.075.113.225.15.337.075L3.69.501c.112-.075.15-.225.056-.356A.244.244 0 0 0 3.408.07L.146 2.245A.266.266 0 0 0 .09 2.6Z"/><path id="aN" d="M2.026.146c.075.131.037.3-.094.375l-1.519.863c-.131.075-.3.018-.375-.113A.273.273 0 0 1 .132.896L1.651.034c.131-.075.3-.02.375.112Z"/><path id="aO" d="M2.044.146c.075.15.038.319-.093.394l-1.519.862c-.131.075-.319.02-.394-.112C-.037 1.14.001.97.132.896L1.651.034c.131-.075.318-.02.393.112ZM.057 1.271c.075.131.225.169.337.094l1.52-.863a.27.27 0 0 0 .093-.337C1.932.034 1.782-.004 1.669.07L.151.934C.038.99 0 1.14.057 1.27Z"/><path id="aP" d="M4.146.171c.057.15 0 .3-.15.357l-3.618 1.5c-.132.056-.3-.02-.357-.15-.056-.15 0-.3.15-.357l3.62-1.5c.13-.056.3 0 .355.15Z"/><path id="aQ" d="M4.165.187a.31.31 0 0 1-.15.394l-3.619 1.5a.291.291 0 0 1-.375-.169.31.31 0 0 1 .15-.393l3.62-1.5a.291.291 0 0 1 .374.168ZM.06 1.894a.267.267 0 0 0 .319.15l3.618-1.5a.254.254 0 0 0 .132-.338.267.267 0 0 0-.32-.15L.19 1.556a.254.254 0 0 0-.131.338Z"/><path id="aR" d="M2.175.187c.056.15-.019.3-.169.357l-1.65.543C.225 1.144.056 1.05.02.92c-.057-.15.018-.3.168-.357L1.837.02c.132-.057.282.018.338.168Z"/><path id="aS" d="M2.231.197a.286.286 0 0 1-.188.375l-1.65.544c-.15.056-.318-.038-.375-.188A.286.286 0 0 1 .206.553L1.856.01a.319.319 0 0 1 .375.187ZM.056.91c.037.13.187.206.319.168l1.65-.543c.131-.038.187-.188.15-.32-.038-.13-.188-.205-.319-.168L.206.591a.259.259 0 0 0-.15.319Z"/><path id="aT" d="M4.377.227c.038.15-.056.3-.206.32l-3.844.75c-.15.037-.281-.076-.319-.226-.037-.15.057-.3.207-.319l3.843-.75c.15-.018.3.075.319.225Z"/><path id="aU" d="M4.414.251a.302.302 0 0 1-.225.356l-3.844.75c-.15.038-.3-.075-.338-.244A.302.302 0 0 1 .232.757l3.844-.75c.15-.037.3.075.338.244Zm-4.37.844c.02.131.15.225.282.206L4.17.551c.131-.019.225-.169.187-.3a.251.251 0 0 0-.281-.206L.232.795c-.131.037-.225.168-.187.3Z"/><path id="aV" d="M2.252.246c.02.15-.075.281-.225.3L.302.752a.273.273 0 0 1-.3-.244c-.018-.15.075-.281.225-.3L1.952.002c.132-.019.282.094.3.244Z"/><path id="aW" d="M2.29.265c.018.168-.094.318-.244.337L.32.808A.292.292 0 0 1 .002.546C-.017.377.096.227.246.208L1.97.002c.15-.019.3.094.319.263ZM.02.527c.02.131.15.244.282.225L2.027.546a.251.251 0 0 0 .206-.281C2.215.133 2.083.02 1.952.04L.227.246a.251.251 0 0 0-.206.281Z"/><path id="aX" d="M4.444.281c0 .15-.113.281-.263.281H.263C.113.563 0 .432 0 .282 0 .131.113 0 .263 0H4.18c.15 0 .263.131.263.281Z"/><path id="aY" d="M4.481.3c0 .169-.131.3-.281.3H.281C.131.6 0 .469 0 .3 0 .131.131 0 .281 0H4.2c.15 0 .281.131.281.3ZM.037.281c0 .132.113.263.244.263H4.2c.131 0 .244-.113.244-.263C4.444.15 4.33.02 4.2.02H.281C.15.037.037.15.037.28Z"/><path id="aZ" d="M2.27.431c-.018.15-.13.263-.28.263L.246.563a.273.273 0 0 1-.244-.3C.021.113.133 0 .283 0l1.744.131c.131.019.244.15.244.3Z"/><path id="ba" d="M2.308.45a.304.304 0 0 1-.3.281L.264.6C.114.581-.017.45.002.281A.304.304 0 0 1 .302 0l1.744.131c.15.019.262.169.262.319ZM.021.281a.237.237 0 0 0 .225.263l1.743.131c.132 0 .244-.094.263-.244A.237.237 0 0 0 2.027.17L.283.037C.152.037.039.15.021.281Z"/><path id="bb" d="M4.377 1.109a.288.288 0 0 1-.319.225L.215.546C.065.51-.03.377.008.227A.288.288 0 0 1 .327.002l3.844.77c.131.037.225.187.206.337Z"/><path id="bc" d="M4.414 1.127a.306.306 0 0 1-.338.244L.232.602A.302.302 0 0 1 .007.246.306.306 0 0 1 .345.002l3.844.77c.15.037.243.187.225.355ZM.044.247a.269.269 0 0 0 .188.3l3.844.768a.266.266 0 0 0 .3-.206.269.269 0 0 0-.187-.3L.345.039C.195.022.082.116.045.247Z"/><path id="bd" d="M2.222.815a.28.28 0 0 1-.337.206L.197.552C.047.515-.028.365.01.215A.28.28 0 0 1 .347.008l1.688.469c.15.038.225.188.187.338Z"/><path id="be" d="M2.258.84c-.037.15-.206.262-.356.206L.215.577A.3.3 0 0 1 .008.221C.046.071.215-.042.365.015l1.687.468c.15.038.244.188.206.357ZM.065.22C.027.352.102.502.233.54l1.688.468c.131.038.262-.037.3-.187C2.258.69 2.183.54 2.052.502L.365.033a.269.269 0 0 0-.3.188Z"/><path id="bf" d="M4.144 1.878a.268.268 0 0 1-.356.15L.168.528C.039.47-.036.303.019.17a.268.268 0 0 1 .357-.15l3.619 1.5c.15.057.206.225.15.357Z"/><path id="bg" d="M4.165 1.912a.291.291 0 0 1-.375.17L.171.581C.021.524-.035.355.021.186A.291.291 0 0 1 .396.02l3.62 1.5a.31.31 0 0 1 .15.393ZM.06.206A.254.254 0 0 0 .19.544l3.619 1.5c.131.056.262-.02.319-.15a.254.254 0 0 0-.132-.338L.378.056C.246.02.096.075.058.206Z"/><path id="bh" d="M2.059 1.184c-.075.131-.225.188-.357.131L.146.528C.015.472-.04.303.034.153.109.022.259-.035.39.022l1.556.787c.131.075.188.244.113.375Z"/><path id="bi" d="M2.114 1.214a.287.287 0 0 1-.393.132L.164.558a.287.287 0 0 1-.13-.394.287.287 0 0 1 .393-.13L1.983.82c.15.056.206.243.131.393ZM.09.184C.033.313.071.463.202.52l1.556.787c.113.056.263 0 .338-.112.056-.132.018-.282-.113-.338L.408.071A.231.231 0 0 0 .09.183Z"/><path id="bj" d="M3.738 2.583c-.094.132-.244.17-.375.075L.119.502C-.012.427-.031.258.044.127A.254.254 0 0 1 .419.052L3.68 2.227c.113.075.15.244.057.356Z"/><path id="bk" d="M3.783 2.626a.324.324 0 0 1-.412.093L.127.544A.296.296 0 0 1 .052.132.324.324 0 0 1 .465.038l3.243 2.175c.15.094.17.281.075.413ZM.09.15C.015.263.033.432.146.507l3.262 2.175a.244.244 0 0 0 .338-.075c.075-.113.056-.281-.056-.356L.427.076A.244.244 0 0 0 .09.15Z"/><path id="bl" d="M1.841 1.497c-.093.112-.262.15-.375.056L.098.484A.267.267 0 0 1 .06.11C.154-.003.323-.04.435.053l1.369 1.069a.267.267 0 0 1 .037.375Z"/><path id="bm" d="M1.896 1.54c-.094.131-.281.15-.412.056L.114.527C-.015.434-.035.247.06.115c.093-.131.28-.15.412-.056L1.84 1.127c.131.094.15.282.056.413ZM.096.134C.002.246.021.396.134.49l1.368 1.069a.266.266 0 0 0 .357-.057c.093-.112.075-.262-.038-.356L.452.077a.266.266 0 0 0-.356.057Z"/><path id="bn" d="M3.246 3.216c-.112.112-.281.112-.375 0L.078.459a.266.266 0 0 1 0-.375c.112-.112.28-.112.375 0l2.774 2.757a.267.267 0 0 1 .02.375Z"/><path id="bo" d="M3.272 3.253a.294.294 0 0 1-.413 0L.084.497a.294.294 0 0 1 0-.413.294.294 0 0 1 .413 0l2.775 2.757c.131.112.131.3 0 .412ZM.122.122a.26.26 0 0 0 0 .356l2.775 2.756a.26.26 0 0 0 .356 0 .26.26 0 0 0 0-.356L.478.103C.384.01.234.01.122.122Z"/><path id="bp" d="M1.579 1.774c-.113.094-.281.094-.375-.018L.06.443A.267.267 0 0 1 .098.068c.112-.094.28-.094.375.019l1.143 1.312c.094.094.075.263-.037.375Z"/><path id="bq" d="M1.63 1.82a.294.294 0 0 1-.412-.02L.074.489C-.04.376-.02.188.11.076a.294.294 0 0 1 .413.018l1.144 1.313c.093.131.093.319-.038.412ZM.13.112C.018.207.018.357.093.47l1.143 1.313a.26.26 0 0 0 .357.019c.112-.094.112-.244.037-.357L.486.132C.393.019.243.019.13.113Z"/><path id="br" d="M2.608 3.746a.254.254 0 0 1-.375-.075L.039.427C-.036.296.002.127.114.052a.254.254 0 0 1 .375.075l2.175 3.244c.094.131.056.3-.056.375Z"/><path id="bs" d="M2.639 3.783a.3.3 0 0 1-.413-.075L.051.465A.288.288 0 0 1 .145.052a.3.3 0 0 1 .412.075l2.175 3.244a.285.285 0 0 1-.093.412ZM.164.09a.244.244 0 0 0-.075.337l2.175 3.244c.075.112.225.131.356.056a.244.244 0 0 0 .075-.337L.52.165A.267.267 0 0 0 .164.09Z"/><path id="bt" d="M1.271 2.026a.273.273 0 0 1-.375-.094L.034.413C-.041.282.014.113.146.038a.273.273 0 0 1 .375.094l.863 1.519c.056.131.018.3-.113.375Z"/><path id="bu" d="M1.294 2.044c-.15.075-.319.038-.394-.093L.037.432C-.038.301 0 .113.15.038.3-.037.469.001.544.132l.862 1.519c.075.131.038.3-.112.393ZM.169.057C.056.132 0 .282.075.394l.862 1.52a.27.27 0 0 0 .338.093c.113-.075.169-.225.094-.338L.506.151C.45.038.281-.018.17.057Z"/><path id="bv" d="M1.894 4.128c-.15.056-.3 0-.356-.131L.018.378c-.055-.131.02-.3.15-.356.15-.057.3 0 .357.131l1.519 3.619c.056.131-.019.3-.15.356Z"/><path id="bw" d="M1.931 4.165a.31.31 0 0 1-.394-.15L.02.396A.291.291 0 0 1 .187.021a.31.31 0 0 1 .394.15L2.1 3.791c.056.13-.019.3-.169.374ZM.225.06C.094.115.037.265.094.378l1.518 3.618a.254.254 0 0 0 .338.132c.131-.057.187-.207.131-.32L.562.19C.487.06.356.003.225.06Z"/><path id="bx" d="M.917 2.167C.767 2.224.617 2.15.56 2L.017.349C-.04.218.054.049.185.01c.132-.037.3.019.357.169l.543 1.65c.057.131-.018.281-.168.337Z"/><path id="by" d="M.935 2.212a.291.291 0 0 1-.375-.168L.016.394C-.04.244.054.074.204.019a.291.291 0 0 1 .375.168l.544 1.65a.319.319 0 0 1-.188.375ZM.204.056C.073.094-.002.244.035.375l.544 1.65c.038.131.187.187.319.15.131-.038.206-.188.168-.319L.523.206a.237.237 0 0 0-.319-.15Z"/><path id="bz" d="M1.114 4.377c-.15.038-.3-.056-.32-.206L.008.327C-.03.177.082.046.232.008c.15-.037.3.057.319.207l.788 3.843a.3.3 0 0 1-.225.319Z"/><path id="bA" d="M1.151 4.414a.302.302 0 0 1-.356-.225L.007.345C-.03.195.082.026.232.007A.302.302 0 0 1 .59.232l.787 3.844c.038.15-.056.3-.225.338ZM.27.044c-.131.02-.225.15-.206.3L.85 4.19c.019.13.169.225.3.187.131-.019.225-.15.206-.3L.57.232a.269.269 0 0 0-.3-.187Z"/><path id="bB" d="M.546 2.252a.288.288 0 0 1-.319-.225L.002.302a.273.273 0 0 1 .244-.3.288.288 0 0 1 .319.225L.79 1.952a.273.273 0 0 1-.244.3Z"/><path id="bC" d="M.565 2.29c-.17.018-.32-.094-.338-.244L.002.32A.292.292 0 0 1 .265.002c.168-.019.318.094.337.244L.827 1.97c.019.15-.094.3-.262.319ZM.283.04C.152.058.04.19.058.32l.225 1.726c.019.131.15.225.282.206.13-.019.243-.15.225-.281L.565.246A.251.251 0 0 0 .283.04Z"/><path id="bD" d="M22.2 44.4c12.26 0 22.2-9.94 22.2-22.2S34.46 0 22.2 0 0 9.94 0 22.2s9.94 22.2 22.2 22.2Z"/><path id="bG" d="M29.119 0 11.212 11.475h-.018v.019l-.019.018L0 29.944l16.425-13.219.019-.019v-.018L29.119 0Z"/><path id="bH" d="M17.7 0 0 12.581l5.25 5.213L17.7 0Z"/><path id="bI" d="m0 12.544 2.644 2.606L17.68 0 0 12.544Z"/><path id="bJ" d="m12.45 0 5.25 5.213L0 17.793 12.45 0Z"/><path id="bK" d="M0 17.794 15.094 2.606 12.45 0 0 17.794Z"/><linearGradient id="c" x1="0" y1="0" x2="1" y2="0" gradientUnits="userSpaceOnUse" gradientTransform="matrix(0 -48 48 0 0 48)"><stop offset=".25" stop-color="#DBDBDA"/><stop offset="1" stop-color="#FFF"/></linearGradient><linearGradient id="bE" x1="0" y1="0" x2="1" y2="0" gradientUnits="userSpaceOnUse" gradientTransform="rotate(119.135 9.359 19.644) scale(21.2824)"><stop offset="0" stop-opacity="0"/><stop offset="1"/></linearGradient><filter id="a" filterUnits="userSpaceOnUse" x="17620" y="-259" width="50" height="51" color-interpolation-filters="sRGB"><feFlood flood-opacity="0" result="BackgroundImageFix"/><feColorMatrix in="SourceAlpha" values="0 0 0 0 0 0 0 0 0 0 0 0 0 0 0 0 0 0 255 0"/><feOffset dy=".387"/><feGaussianBlur stdDeviation=".387"/><feColorMatrix values="0 0 0 0 0 0 0 0 0 0 0 0 0 0 0 0 0 0 0.266007 0"/><feBlend in2="BackgroundImageFix" result="effect1_dropShadow"/><feBlend in="SourceGraphic" in2="effect1_dropShadow" result="shape"/></filter><filter id="bF" filterUnits="userSpaceOnUse" x="17630" y="-249" width="32" height="32" color-interpolation-filters="sRGB"><feFlood flood-opacity="0" result="BackgroundImageFix"/><feColorMatrix in="SourceAlpha" values="0 0 0 0 0 0 0 0 0 0 0 0 0 0 0 0 0 0 255 0"/><feOffset dy=".194"/><feGaussianBlur stdDeviation=".387"/><feColorMatrix values="0 0 0 0 0 0 0 0 0 0 0 0 0 0 0 0 0 0 1 0"/><feBlend in2="BackgroundImageFix" result="effect1_dropShadow"/><feBlend in="SourceGraphic" in2="effect1_dropShadow" result="shape"/></filter><radialGradient id="e" cx=".5" cy=".5" r=".5" gradientUnits="userSpaceOnUse" gradientTransform="translate(-1.779 -9.775) scale(54.196)"><stop offset="0" stop-color="#2ABCE1"/><stop offset=".114" stop-color="#2ABBE1"/><stop offset="1" stop-color="#3375F8"/></radialGradient></defs></svg>