<svg width="37" height="48" xmlns="http://www.w3.org/2000/svg" xmlns:xlink="http://www.w3.org/1999/xlink"><use xlink:href="#a" transform="translate(0 23.375)" fill="url(#b)"/><use xlink:href="#c" transform="translate(0 11.638)" fill="#FF9800"/><use xlink:href="#d" fill="#FF9800"/><defs><path id="a" fill-rule="evenodd" d="M36.995.767c0-.562-.416-.887-.927-.726L.928 11.171c-.513.162-.928.75-.928 1.312v11.375c0 .563.415.888.927.726l35.14-11.129c.512-.162.928-.75.928-1.313V.767Z"/><path id="c" fill-rule="evenodd" d="M0 12.142c0 .562.415 1.15.927 1.313l35.146 11.13c.512.162.927-.163.927-.725V12.484c0-.561-.415-1.15-.927-1.312L.927.042C.415-.12 0 .204 0 .767V12.14Z"/><path id="d" fill-rule="evenodd" d="M36.995.767c0-.562-.416-.887-.927-.725L.928 11.17c-.513.163-.928.75-.928 1.313v11.375c0 .563.415.887.927.726l35.14-11.13c.512-.162.928-.75.928-1.312V.768Z"/><linearGradient id="b" x1="0" y1="0" x2="1" y2="0" gradientUnits="userSpaceOnUse" gradientTransform="matrix(3.1679 -10.5799 8.96612 3.66039 15.907 15.295)"><stop offset="0" stop-color="#FF9700"/><stop offset=".53" stop-color="#F48E00"/><stop offset="1" stop-color="#CE6E00"/></linearGradient></defs></svg>