<svg width="24" height="24" viewBox="0 0 24 24" fill="none" xmlns="http://www.w3.org/2000/svg">
<path d="M21.7285 24C22.057 23.9776 22.3775 23.8477 22.6248 23.6078C23.1737 23.0755 23.1831 22.2163 22.6248 21.684L19.2562 18.4529C21.2811 16.4918 22.5397 13.793 22.5397 10.814C22.5397 4.85603 17.5056 0 11.2698 0C5.03404 0 0 4.84669 0 10.814C0 16.7813 5.03404 21.6374 11.2698 21.6187C12.0647 21.6187 12.6987 21.0117 12.6987 20.2646C12.6987 19.5175 12.0552 18.9105 11.2698 18.9105C6.63322 18.9105 2.84819 15.2965 2.84819 10.814C2.84819 6.33152 6.63322 2.71751 11.2698 2.71751C15.9065 2.71751 19.7104 6.34086 19.7104 10.8233C19.7104 13.4755 18.3856 15.8288 16.3323 17.3043C16.0105 17.5471 15.8024 17.9019 15.774 18.2942C15.7456 18.6864 15.8875 19.0693 16.1809 19.3494L20.6093 23.6078C20.8634 23.8458 21.19 23.9774 21.5222 24H21.7285Z" fill="url(#paint0_linear_1209_410)"/>
<defs>
<linearGradient id="paint0_linear_1209_410" x1="-5.52167" y1="29.5381" x2="19.2969" y2="32.1249" gradientUnits="userSpaceOnUse">
<stop stop-color="#7048E8"/>
<stop offset="0.035" stop-color="#607CE8"/>
<stop offset="0.185" stop-color="#4AC1E8"/>
<stop offset="0.35" stop-color="#59A3EC"/>
<stop offset="0.626149" stop-color="#A112FF"/>
<stop offset="1" stop-color="#FF5543"/>
</linearGradient>
</defs>
</svg>
