<?xml version="1.0" encoding="utf-8"?>
<!-- Generator: Adobe Illustrator 21.1.0, SVG Export Plug-In . SVG Version: 6.00 Build 0)  -->
<svg version="1.1" id="Layer_1" xmlns="http://www.w3.org/2000/svg" xmlns:xlink="http://www.w3.org/1999/xlink" x="0px" y="0px"
	 viewBox="0 0 175.7 64" style="enable-background:new 0 0 175.7 64;" xml:space="preserve">
<style type="text/css">
	.st0{fill-rule:evenodd;clip-rule:evenodd;}
	.st1{fill-rule:evenodd;clip-rule:evenodd;fill:#F47937;}
</style>
<g>
	<path class="st0" d="M109.2,33.7c-0.4-0.1-0.8-0.3-1.1-0.6c-3.2-3.2,0.9-6.8,5.6-8.9v-6c1.1,0.6,1.7,0.7,1.8,0.8l3.7-3.7l-1.2-3.1
		c10.6-3.7,14.9-5.1,23.6-6.6L140,4.2l2.6-1.5c5.8,2,11.3,2.5,10.3,7.4c0.3-3.3-3.8-4.6-10.1-6.4l-1.2,0.8l2.3,1.9
		c-10.4,1.8-16.8,3.9-24.4,6.6l1.1,2.7l-3.8,3.8c0.6,0.1,7.3,2.5,14.2-2.5c0.1,0,0.1-0.1,0.1-0.1c-0.2-0.4-0.6-0.7-1.2-1.2
		c2,0.1,3.3,2,3,3.8h-0.9c0.1-0.6,0-1.3-0.3-1.7c-5.3,3.9-11.6,4.5-16.8,2.7V25c-2.5,0.9-7.2,3.7-7.1,6.5
		C107.8,32.8,108.5,33.3,109.2,33.7L109.2,33.7z"/>
	<path class="st1" d="M130.9,32.5c-5.8,3-11.3,5.3-19.7,5.6c-11-0.2-12.8-7.6-7.5-15.4c4.9-7.8,12.8-14.8,25.2-19.2
		c3.6-1.3,8.9-2.7,14-2.8c7.4-0.1,14.5,2.3,14.1,9.4c-0.3,5.4-8.1,13.1-12.2,18.7c-1.8,2.4-2,3.9,0.9,3.8
		c10.9-0.7,20.8-4.5,29.9-8.5c-6.2,4.2-38.3,20.3-38.4,9.3c0.1-1.3,0.7-2.8,1.7-4.4c1.1-1.6,2.5-3.2,3.9-4.9
		c2.2-2.5,7.6-8.5,9.4-12.2c3.1-6.8-3.8-7.2-9.7-9.3L140,4.2l1.6,1.5c-8.7,1.5-13,2.9-23.6,6.6l1.2,3.1l-3.7,3.7
		c-0.1-0.1-0.6-0.2-1.8-0.8v6c-4.7,2.1-8.9,5.8-5.6,8.9c0.4,0.3,0.8,0.5,1.1,0.6l0,0C115,37,130.9,32.5,130.9,32.5L130.9,32.5z"/>
	<path class="st1" d="M33.8,48.8v-3.6h5.3v3.6H33.8L33.8,48.8z M34,63.7V50.8h4.9v12.9H34L34,63.7z M92.2,56.9
		c0-1.2-0.3-2.1-0.9-2.8c-0.6-0.7-1.6-1.1-2.6-1.1c0,0,0,0-0.1,0c-1.1,0.1-2,0.4-2.6,1.1c-0.6,0.7-0.9,1.7-0.9,3
		c0,1.3,0.3,2.3,0.9,3c0.6,0.7,1.5,1,2.6,1c1.1,0,2-0.4,2.7-1.1C92,59.3,92.2,58.2,92.2,56.9L92.2,56.9z M88.6,50.7
		c0.6-0.1,1.3-0.2,2-0.2c2,0,3.7,0.6,4.9,1.8c1.1,1.2,1.8,2.8,1.8,4.9c0,2.2-0.6,3.9-1.8,5.1c-1.1,1.2-2.7,1.8-4.8,1.8
		c-0.7,0-1.4-0.1-2.1-0.3c-0.4-0.1-0.7-0.3-1.1-0.4c-0.9-0.5-1.8-1.1-2.5-2v0.4c0,0.4,0,0.6,0,1c0,0.4-0.1,0.7-0.1,1h-4.9
		c0.1-0.5,0.1-1,0.1-1.5c0-0.5,0.1-1,0.1-1.4V45.2h4.9v7.4c0.8-0.7,1.6-1.3,2.5-1.6C88,50.9,88.3,50.8,88.6,50.7L88.6,50.7z
		 M144.7,52.4c2.6,0,4.7,2.2,4.7,4.8c0,2.6-2.1,4.7-4.7,4.7s-4.8-2.1-4.8-4.7C140,54.5,142.1,52.4,144.7,52.4L144.7,52.4z
		 M144.7,64.1c3.8,0,6.9-3.1,6.9-6.9c0-3.9-3.1-7-6.9-7c-3.8,0-7,3.1-7,7C137.8,61,140.9,64.1,144.7,64.1L144.7,64.1z M119.4,61.7
		h2.2v2h-2.2V61.7L119.4,61.7z M136,62.1c-0.7,0.6-2.1,2-4.9,2c-3.5,0-6.9-2.7-6.9-6.9c0-4.2,3.4-7,6.9-7c2.6,0,4.2,1.4,4.9,2
		c-0.4,0.6-0.8,1.8-0.9,2.3c-1.3-1.8-3-2-3.9-2c-2.6,0-4.7,2.2-4.7,4.8c0,2.5,2.1,4.7,4.7,4.7c1.5,0,2.9-0.6,3.9-2
		C135.4,61,135.8,61.7,136,62.1L136,62.1z M154.7,63.7V50.8h2v1.8c0.4-0.6,1-1.1,1.6-1.6c0.7-0.4,1.5-0.6,2.3-0.6
		c0.9,0,1.7,0.2,2.3,0.6c0.6,0.4,1.1,1,1.3,1.7c1-1.5,2.3-2.3,3.9-2.3c1.3,0,2.3,0.4,3,1.1c0.7,0.7,1.1,1.8,1.1,3.3v8.8h-2.2v-8.1
		c0-0.9-0.1-1.5-0.2-1.9c-0.1-0.4-0.4-0.7-0.8-0.9c-0.4-0.2-0.8-0.4-1.3-0.4c-0.9,0-1.6,0.3-2.3,0.9c-0.6,0.6-0.9,1.6-0.9,2.9v7.5
		h-2.2v-8.4c0-1-0.1-1.7-0.5-2.2c-0.4-0.5-1-0.7-1.8-0.7c-0.6,0-1.2,0.1-1.7,0.5c-0.6,0.3-0.9,0.8-1.1,1.4c-0.3,0.6-0.4,1.6-0.4,2.7
		v6.7H154.7L154.7,63.7z M171.4,48v-2.5h-0.9v-0.3h2.3v0.3h-0.9V48H171.4L171.4,48z M173.1,48v-2.7h0.6l0.6,2
		c0.1,0.1,0.1,0.3,0.1,0.4c0-0.1,0.1-0.2,0.1-0.4l0.6-1.9h0.5V48h-0.4v-2.3l-0.8,2.3h-0.4l-0.8-2.3V48H173.1L173.1,48z M110.1,61.8
		c-0.5,0.8-1.3,1.3-2.3,1.7c-0.2,0.1-0.5,0.1-0.7,0.2c-0.8,0.2-1.8,0.4-3,0.4c-1.6,0-2.9-0.4-3.8-1.1c-0.8-0.6-1.3-1.6-1.3-2.9
		c0-0.8,0.2-1.5,0.6-2.1c0.4-0.6,0.8-1.1,1.5-1.5c0.5-0.4,1.3-0.6,2.2-0.7c0.8-0.1,2.1-0.2,3.9-0.2c0.1,0,0.4,0,0.6,0h2.4
		c0-0.1,0-0.1,0-0.2c0-0.1,0-0.1,0-0.1c0-0.7-0.2-1.3-0.6-1.6c-0.4-0.4-1-0.6-1.8-0.6c-0.2,0-0.4,0.1-0.6,0.1
		c-0.6,0-1.1,0.1-1.5,0.4c-0.4,0.2-0.7,0.6-0.8,1.2h-5c0.1-1.4,0.9-2.5,2.2-3.2c1.1-0.6,2.8-0.9,5.1-1c0.2,0,0.4,0,0.6,0
		c2.4,0,4.2,0.4,5.4,1.2c1.1,0.8,1.7,2,1.7,3.7V62c0,0.4,0.1,0.7,0.1,1c0.1,0.2,0.1,0.5,0.2,0.7h-4.6c-0.1-0.2-0.2-0.5-0.3-0.8
		c0-0.2-0.1-0.6-0.1-0.8V61.8L110.1,61.8z M107.1,61.2c0.8-0.1,1.6-0.4,2-0.8c0.6-0.5,0.9-1.3,0.9-2.2V58h-0.4c-1,0-1.8,0-2.5,0.1
		c-0.8,0.1-1.3,0.1-1.8,0.4c-0.8,0.2-1.2,0.7-1.2,1.4c0,0.4,0.2,0.8,0.6,1.1c0.4,0.2,1.1,0.4,1.8,0.4
		C106.8,61.2,107,61.2,107.1,61.2L107.1,61.2z M72.2,61.8c-0.6,0.8-1.3,1.3-2.4,1.7c-0.2,0.1-0.4,0.1-0.7,0.2
		c-0.8,0.2-1.8,0.4-3,0.4c-1.6,0-2.9-0.4-3.7-1.1c-0.9-0.6-1.3-1.6-1.3-2.9c0-0.8,0.1-1.5,0.5-2.1c0.4-0.6,0.8-1.1,1.5-1.5
		c0.6-0.4,1.3-0.6,2.2-0.7c0.8-0.1,2.1-0.2,3.9-0.2c0.2,0,0.4,0,0.6,0h2.4c0-0.1,0-0.1,0-0.2c0-0.1,0-0.1,0-0.1
		c0-0.7-0.2-1.3-0.6-1.6c-0.4-0.4-1-0.6-1.8-0.6c-0.2,0-0.4,0.1-0.6,0.1c-0.6,0-1.1,0.1-1.5,0.4c-0.4,0.2-0.6,0.6-0.8,1.2h-5
		c0.2-1.4,0.9-2.5,2.2-3.2c1.2-0.6,2.9-0.9,5.1-1c0.2,0,0.4,0,0.6,0c2.4,0,4.2,0.4,5.4,1.2c1.1,0.8,1.8,2,1.8,3.7V62
		c0,0.4,0,0.7,0,1c0.1,0.2,0.1,0.5,0.2,0.7h-4.6c-0.1-0.2-0.2-0.5-0.2-0.8c-0.1-0.2-0.1-0.6-0.1-0.8V61.8L72.2,61.8z M69.1,61.2
		c0.9-0.1,1.6-0.4,2-0.8c0.6-0.5,0.9-1.3,0.9-2.2V58h-0.4c-1,0-1.8,0-2.5,0.1c-0.7,0.1-1.3,0.1-1.7,0.4c-0.8,0.2-1.2,0.7-1.2,1.4
		c0,0.4,0.2,0.8,0.6,1.1c0.4,0.2,1.1,0.4,1.9,0.4C68.8,61.2,69,61.2,69.1,61.2L69.1,61.2z M54.3,56.9c0-1.2-0.3-2.1-0.9-2.8
		c-0.6-0.7-1.5-1.1-2.6-1.1c-1.2,0.1-2,0.4-2.7,1.1c-0.6,0.7-0.9,1.7-0.9,3c0,1.3,0.3,2.3,0.9,3c0.6,0.7,1.6,1,2.6,1h0.1
		c1.1,0,2-0.4,2.6-1.1C54,59.3,54.3,58.2,54.3,56.9L54.3,56.9z M50.7,50.7c0.6-0.1,1.3-0.2,2-0.2c2,0,3.7,0.6,4.9,1.8
		c1.2,1.2,1.8,2.8,1.8,4.9c0,2.2-0.6,3.9-1.7,5.1c-1.2,1.2-2.7,1.8-4.8,1.8c-0.8,0-1.5-0.1-2.1-0.3c-0.4-0.1-0.8-0.3-1.1-0.4
		c-1-0.5-1.8-1.1-2.5-2v0.4c0,0.4,0,0.6-0.1,1c0,0.4-0.1,0.7-0.1,1h-5c0.1-0.5,0.1-1,0.1-1.5c0.1-0.5,0.1-1,0.1-1.4V45.2h4.9v7.4
		c0.7-0.7,1.6-1.3,2.5-1.6C50,50.9,50.4,50.8,50.7,50.7L50.7,50.7z M12.3,45.2h3.6l9,18.5H19L17.4,60h-5.1h-5l-1.8,3.7H0l9.7-18.5
		H12.3L12.3,45.2z M12.3,56.4h3.4l-3.2-7.1l-0.2,0.4L9,56.4H12.3L12.3,56.4z M25.8,63.7V45.2h4.9v18.5H25.8L25.8,63.7z"/>
	<path class="st1" d="M13,18.3h-1.3v4.9H13h1.3v-4.9H13L13,18.3z M83.5,29.1h2.4c0.8,0,1.3-0.2,1.6-0.6c0.3-0.4,0.5-1.3,0.7-2.7
		c0.5,0.6,1.3,1.1,2.1,1.2c-0.5,1.8-1,2.9-1.4,3.2c-0.4,0.4-1.2,0.5-2.4,0.5h-3h-6.7h-1.3c-2,0-3-0.8-3-2.5V15.9
		c0-0.9-0.1-2-0.1-3.2h4.4h6.7h4.3c-0.1,1.3-0.1,3-0.1,5.1c0,2.1,0,3.8,0.1,5.1H86v-1.4h-2.5h-6.7h-2.5v5.7c0,1.3,0.7,1.9,2,1.9h0.5
		H83.5L83.5,29.1z M83.5,19.9H86v-5.6h-2.5H81v5.6H83.5L83.5,19.9z M76.8,19.9h2.5v-5.6h-2.5h-2.5v5.6H76.8L76.8,19.9z M60.6,29.1
		H63c0.8,0,1.3-0.2,1.6-0.6c0.3-0.4,0.5-1.3,0.7-2.7c0.6,0.6,1.3,1.1,2.1,1.2c-0.5,1.8-1,2.9-1.4,3.2c-0.4,0.4-1.2,0.5-2.4,0.5h-3
		h-6.7h-1.3c-2,0-3-0.8-3-2.5V15.9c0-0.9-0.1-2-0.1-3.2h4.4h6.7h4.3c-0.1,1.3-0.1,3-0.1,5.1c0,2.1,0,3.8,0.1,5.1h-1.8v-1.4h-2.5
		h-6.7h-2.5v5.7c0,1.3,0.7,1.9,2,1.9h0.5H60.6L60.6,29.1z M60.6,19.9h2.5v-5.6h-2.5h-2.5v5.6H60.6L60.6,19.9z M53.9,19.9h2.5v-5.6
		h-2.5h-2.5v5.6H53.9L53.9,19.9z M37.7,29.2h3.7c1-0.1,2-0.1,3.2-0.1v1.7c-1.2-0.1-2.3-0.2-3.2-0.2h-3.7H31h-3
		c-1.1,0-2.3,0.1-3.7,0.2v-1.7c1.4,0,2.6,0,3.7,0.1h3h2.4v-3H31h-1.6c-0.8,0-1.9,0-3.1,0.1v-1.6c1.2,0.1,2.3,0.1,3.1,0.2H31h2.4
		v-2.5H31h-4.3c0.1-1.2,0.1-2.7,0.1-4.4c0-1.6,0-3.5-0.1-5.5H31h6.7h4.4C42,13.7,42,15.4,42,17.4c0,2,0,3.7,0.1,4.9h-4.4h-2.6v2.5
		h2.6h1.7c0.8-0.1,1.9-0.1,3.2-0.2v1.6c-1.3-0.1-2.3-0.1-3.2-0.1h-1.7h-2.6v3H37.7L37.7,29.2z M37.7,21h2.6v-2.8h-2.6h-2.6V21H37.7
		L37.7,21z M37.7,16.9h2.6v-3.1h-2.6h-2.6v3.1H37.7L37.7,16.9z M31,21h2.4v-2.8H31h-2.4V21H31L31,21z M31,16.9h2.4v-3.1H31h-2.4v3.1
		H31L31,16.9z M13,24.8h-1.3V27h-1.7c0.1-0.9,0.1-2.6,0.1-5.1c0-2.5,0-4.2-0.1-5.1h3h3C16,18,16,19.5,16,21.5c0,2,0,3.5,0.1,4.7
		h-1.7v-1.3H13L13,24.8z M13,13.9h4.8v14c0,0.7-0.1,1.1-0.5,1.3c-0.3,0.1-1,0.1-2,0.1c0.4,0.6,0.6,1.3,0.8,2
		c1.3-0.1,2.1-0.4,2.7-0.6c0.6-0.3,0.8-1,0.8-2.2V13.9c0.6,0,1.4,0,2.5,0.1v-1.7c-1.1,0.1-1.9,0.1-2.3,0.1H13H12
		c-0.7,0-1.6,0-2.7-0.1V14c1.3-0.1,2.3-0.1,2.7-0.1H13L13,13.9z M5.1,19.3c1.2,1.8,1.9,3,2.1,3.9c0.2,0.9,0.1,1.5-0.2,1.7
		c-0.4,0.2-1.1,0.4-2,0.6c0.4,0.6,0.6,1.3,0.8,1.9c0.9-0.2,1.7-0.6,2.4-1.1c0.7-0.6,1.1-1.3,1-2.5c-0.1-1.1-0.8-2.6-2.3-4.7
		c0.7-2.3,1.3-4.6,2-6.8H2.5c0.1,1.2,0.1,4.2,0.1,8.9c0,4.8,0,8.1-0.1,10h1.8V13.9h2.4C6.1,16,5.6,17.8,5.1,19.3L5.1,19.3L5.1,19.3z
		"/>
</g>
</svg>
