<svg version="1.1" id="Layer_1" xmlns="http://www.w3.org/2000/svg" x="0" y="0" viewBox="0 0 175.7 64" style="enable-background:new 0 0 175.7 64" xml:space="preserve"><style>.st1{fill-rule:evenodd;clip-rule:evenodd;fill:#f47937}</style><path d="M109.2 33.7c-.4-.1-.8-.3-1.1-.6-3.2-3.2.9-6.8 5.6-8.9v-6c1.1.6 1.7.7 1.8.8l3.7-3.7-1.2-3.1c10.6-3.7 14.9-5.1 23.6-6.6L140 4.2l2.6-1.5c5.8 2 11.3 2.5 10.3 7.4.3-3.3-3.8-4.6-10.1-6.4l-1.2.8 2.3 1.9c-10.4 1.8-16.8 3.9-24.4 6.6l1.1 2.7-3.8 3.8c.6.1 7.3 2.5 14.2-2.5.1 0 .1-.1.1-.1-.2-.4-.6-.7-1.2-1.2 2 .1 3.3 2 3 3.8h-.9c.1-.6 0-1.3-.3-1.7-5.3 3.9-11.6 4.5-16.8 2.7V25c-2.5.9-7.2 3.7-7.1 6.5 0 1.3.7 1.8 1.4 2.2z" style="fill-rule:evenodd;clip-rule:evenodd"/><path class="st1" d="M130.9 32.5c-5.8 3-11.3 5.3-19.7 5.6-11-.2-12.8-7.6-7.5-15.4 4.9-7.8 12.8-14.8 25.2-19.2 3.6-1.3 8.9-2.7 14-2.8 7.4-.1 14.5 2.3 14.1 9.4-.3 5.4-8.1 13.1-12.2 18.7-1.8 2.4-2 3.9.9 3.8 10.9-.7 20.8-4.5 29.9-8.5-6.2 4.2-38.3 20.3-38.4 9.3.1-1.3.7-2.8 1.7-4.4 1.1-1.6 2.5-3.2 3.9-4.9 2.2-2.5 7.6-8.5 9.4-12.2 3.1-6.8-3.8-7.2-9.7-9.3L140 4.2l1.6 1.5c-8.7 1.5-13 2.9-23.6 6.6l1.2 3.1-3.7 3.7c-.1-.1-.6-.2-1.8-.8v6c-4.7 2.1-8.9 5.8-5.6 8.9.4.3.8.5 1.1.6 5.8 3.2 21.7-1.3 21.7-1.3zM33.8 48.8v-3.6h5.3v3.6h-5.3zm.2 14.9V50.8h4.9v12.9H34zm58.2-6.8c0-1.2-.3-2.1-.9-2.8-.6-.7-1.6-1.1-2.6-1.1h-.1c-1.1.1-2 .4-2.6 1.1-.6.7-.9 1.7-.9 3s.3 2.3.9 3c.6.7 1.5 1 2.6 1s2-.4 2.7-1.1c.7-.7.9-1.8.9-3.1zm-3.6-6.2c.6-.1 1.3-.2 2-.2 2 0 3.7.6 4.9 1.8 1.1 1.2 1.8 2.8 1.8 4.9 0 2.2-.6 3.9-1.8 5.1-1.1 1.2-2.7 1.8-4.8 1.8-.7 0-1.4-.1-2.1-.3-.4-.1-.7-.3-1.1-.4-.9-.5-1.8-1.1-2.5-2v1.4c0 .4-.1.7-.1 1H80c.1-.5.1-1 .1-1.5s.1-1 .1-1.4V45.2h4.9v7.4c.8-.7 1.6-1.3 2.5-1.6.4-.1.7-.2 1-.3zm56.1 1.7c2.6 0 4.7 2.2 4.7 4.8 0 2.6-2.1 4.7-4.7 4.7s-4.8-2.1-4.8-4.7c.1-2.7 2.2-4.8 4.8-4.8zm0 11.7c3.8 0 6.9-3.1 6.9-6.9 0-3.9-3.1-7-6.9-7-3.8 0-7 3.1-7 7 .1 3.8 3.2 6.9 7 6.9zm-25.3-2.4h2.2v2h-2.2v-2zm16.6.4c-.7.6-2.1 2-4.9 2-3.5 0-6.9-2.7-6.9-6.9s3.4-7 6.9-7c2.6 0 4.2 1.4 4.9 2-.4.6-.8 1.8-.9 2.3-1.3-1.8-3-2-3.9-2-2.6 0-4.7 2.2-4.7 4.8 0 2.5 2.1 4.7 4.7 4.7 1.5 0 2.9-.6 3.9-2 .3 1 .7 1.7.9 2.1zm18.7 1.6V50.8h2v1.8c.4-.6 1-1.1 1.6-1.6.7-.4 1.5-.6 2.3-.6.9 0 1.7.2 2.3.6.6.4 1.1 1 1.3 1.7 1-1.5 2.3-2.3 3.9-2.3 1.3 0 2.3.4 3 1.1.7.7 1.1 1.8 1.1 3.3v8.8H170v-8.1c0-.9-.1-1.5-.2-1.9-.1-.4-.4-.7-.8-.9-.4-.2-.8-.4-1.3-.4-.9 0-1.6.3-2.3.9-.6.6-.9 1.6-.9 2.9v7.5h-2.2v-8.4c0-1-.1-1.7-.5-2.2-.4-.5-1-.7-1.8-.7-.6 0-1.2.1-1.7.5-.6.3-.9.8-1.1 1.4-.3.6-.4 1.6-.4 2.7v6.7h-2.1v.1zM171.4 48v-2.5h-.9v-.3h2.3v.3h-.9V48h-.5zm1.7 0v-2.7h.6l.6 2c.1.1.1.3.1.4 0-.1.1-.2.1-.4l.6-1.9h.5V48h-.4v-2.3l-.8 2.3h-.4l-.8-2.3V48h-.1zm-63 13.8c-.5.8-1.3 1.3-2.3 1.7-.2.1-.5.1-.7.2-.8.2-1.8.4-3 .4-1.6 0-2.9-.4-3.8-1.1-.8-.6-1.3-1.6-1.3-2.9 0-.8.2-1.5.6-2.1.4-.6.8-1.1 1.5-1.5.5-.4 1.3-.6 2.2-.7.8-.1 2.1-.2 3.9-.2h3V55.3c0-.7-.2-1.3-.6-1.6-.4-.4-1-.6-1.8-.6-.2 0-.4.1-.6.1-.6 0-1.1.1-1.5.4-.4.2-.7.6-.8 1.2h-5c.1-1.4.9-2.5 2.2-3.2 1.1-.6 2.8-.9 5.1-1h.6c2.4 0 4.2.4 5.4 1.2 1.1.8 1.7 2 1.7 3.7V62c0 .4.1.7.1 1 .1.2.1.5.2.7h-4.6c-.1-.2-.2-.5-.3-.8 0-.2-.1-.6-.1-.8v-.3h-.1zm-3-.6c.8-.1 1.6-.4 2-.8.6-.5.9-1.3.9-2.2V58h-.4c-1 0-1.8 0-2.5.1-.8.1-1.3.1-1.8.4-.8.2-1.2.7-1.2 1.4 0 .4.2.8.6 1.1.4.2 1.1.4 1.8.4.3-.2.5-.2.6-.2zm-34.9.6c-.6.8-1.3 1.3-2.4 1.7-.2.1-.4.1-.7.2-.8.2-1.8.4-3 .4-1.6 0-2.9-.4-3.7-1.1-.9-.6-1.3-1.6-1.3-2.9 0-.8.1-1.5.5-2.1.4-.6.8-1.1 1.5-1.5.6-.4 1.3-.6 2.2-.7.8-.1 2.1-.2 3.9-.2h3V55.3c0-.7-.2-1.3-.6-1.6-.4-.4-1-.6-1.8-.6-.2 0-.4.1-.6.1-.6 0-1.1.1-1.5.4-.4.2-.6.6-.8 1.2h-5c.2-1.4.9-2.5 2.2-3.2 1.2-.6 2.9-.9 5.1-1h.6c2.4 0 4.2.4 5.4 1.2 1.1.8 1.8 2 1.8 3.7V63c.1.2.1.5.2.7h-4.6c-.1-.2-.2-.5-.2-.8-.1-.2-.1-.6-.1-.8v-.3h-.1zm-3.1-.6c.9-.1 1.6-.4 2-.8.6-.5.9-1.3.9-2.2V58h-.4c-1 0-1.8 0-2.5.1s-1.3.1-1.7.4c-.8.2-1.2.7-1.2 1.4 0 .4.2.8.6 1.1.4.2 1.1.4 1.9.4.1-.2.3-.2.4-.2zm-14.8-4.3c0-1.2-.3-2.1-.9-2.8-.6-.7-1.5-1.1-2.6-1.1-1.2.1-2 .4-2.7 1.1-.6.7-.9 1.7-.9 3s.3 2.3.9 3c.6.7 1.6 1 2.6 1h.1c1.1 0 2-.4 2.6-1.1.6-.7.9-1.8.9-3.1zm-3.6-6.2c.6-.1 1.3-.2 2-.2 2 0 3.7.6 4.9 1.8 1.2 1.2 1.8 2.8 1.8 4.9 0 2.2-.6 3.9-1.7 5.1-1.2 1.2-2.7 1.8-4.8 1.8-.8 0-1.5-.1-2.1-.3-.4-.1-.8-.3-1.1-.4-1-.5-1.8-1.1-2.5-2v.4c0 .4 0 .6-.1 1 0 .4-.1.7-.1 1h-5c.1-.5.1-1 .1-1.5.1-.5.1-1 .1-1.4V45.2h4.9v7.4c.7-.7 1.6-1.3 2.5-1.6.4-.1.8-.2 1.1-.3zm-38.4-5.5h3.6l9 18.5H19L17.4 60H7.3l-1.8 3.7H0l9.7-18.5h2.6zm0 11.2h3.4l-3.2-7.1-.2.4L9 56.4h3.3zm13.5 7.3V45.2h4.9v18.5h-4.9zM13 18.3h-1.3v4.9h2.6v-4.9H13zm70.5 10.8h2.4c.8 0 1.3-.2 1.6-.6.3-.4.5-1.3.7-2.7.5.6 1.3 1.1 2.1 1.2-.5 1.8-1 2.9-1.4 3.2-.4.4-1.2.5-2.4.5h-11c-2 0-3-.8-3-2.5V15.9c0-.9-.1-2-.1-3.2H87.8c-.1 1.3-.1 3-.1 5.1 0 2.1 0 3.8.1 5.1H86v-1.4H74.3v5.7c0 1.3.7 1.9 2 1.9h7.2zm0-9.2H86v-5.6h-5v5.6h2.5zm-6.7 0h2.5v-5.6h-5v5.6h2.5zm-16.2 9.2H63c.8 0 1.3-.2 1.6-.6.3-.4.5-1.3.7-2.7.6.6 1.3 1.1 2.1 1.2-.5 1.8-1 2.9-1.4 3.2-.4.4-1.2.5-2.4.5h-11c-2 0-3-.8-3-2.5V15.9c0-.9-.1-2-.1-3.2H64.9c-.1 1.3-.1 3-.1 5.1 0 2.1 0 3.8.1 5.1h-1.8v-1.4H51.4v5.7c0 1.3.7 1.9 2 1.9h7.2zm0-9.2h2.5v-5.6h-5v5.6h2.5zm-6.7 0h2.5v-5.6h-5v5.6h2.5zm-16.2 9.3h3.7c1-.1 2-.1 3.2-.1v1.7c-1.2-.1-2.3-.2-3.2-.2H28c-1.1 0-2.3.1-3.7.2v-1.7c1.4 0 2.6 0 3.7.1h5.4v-3h-4c-.8 0-1.9 0-3.1.1v-1.6c1.2.1 2.3.1 3.1.2h4v-2.5H26.7c.1-1.2.1-2.7.1-4.4 0-1.6 0-3.5-.1-5.5h15.4c-.1 1.2-.1 2.9-.1 4.9 0 2 0 3.7.1 4.9h-7v2.5h4.3c.8-.1 1.9-.1 3.2-.2v1.6c-1.3-.1-2.3-.1-3.2-.1h-4.3v3h2.6v.1zm0-8.2h2.6v-2.8h-5.2V21h2.6zm0-4.1h2.6v-3.1h-5.2v3.1h2.6zM31 21h2.4v-2.8h-4.8V21H31zm0-4.1h2.4v-3.1h-4.8v3.1H31zm-18 7.9h-1.3V27H10c.1-.9.1-2.6.1-5.1 0-2.5 0-4.2-.1-5.1h6v4.7c0 2 0 3.5.1 4.7h-1.7v-1.3H13v-.1zm0-10.9h4.8v14c0 .7-.1 1.1-.5 1.3-.3.1-1 .1-2 .1.4.6.6 1.3.8 2 1.3-.1 2.1-.4 2.7-.6.6-.3.8-1 .8-2.2V13.9c.6 0 1.4 0 2.5.1v-1.7c-1.1.1-1.9.1-2.3.1H12c-.7 0-1.6 0-2.7-.1V14c1.3-.1 2.3-.1 2.7-.1h1zm-7.9 5.4c1.2 1.8 1.9 3 2.1 3.9.2.9.1 1.5-.2 1.7-.4.2-1.1.4-2 .6.4.6.6 1.3.8 1.9.9-.2 1.7-.6 2.4-1.1.7-.6 1.1-1.3 1-2.5-.1-1.1-.8-2.6-2.3-4.7.7-2.3 1.3-4.6 2-6.8H2.5c.1 1.2.1 4.2.1 8.9 0 4.8 0 8.1-.1 10h1.8V13.9h2.4c-.6 2.1-1.1 3.9-1.6 5.4z"/></svg>