<svg width="113" height="34" fill="none" xmlns="http://www.w3.org/2000/svg"><g clip-path="url(#a)" fill-rule="evenodd" clip-rule="evenodd"><path d="M70.105 26.589C63.54 31.417 54.025 34 45.821 34 34.33 34 23.99 29.76 16.16 22.697c-.61-.553-.068-1.309.678-.88 8.441 4.907 18.894 7.851 29.674 7.851 7.277 0 15.277-1.5 22.634-4.625 1.118-.462 2.045.733.96 1.546Z" fill="#f90"/><path d="M72.829 23.464c-.837-1.072-5.549-.508-7.662-.26-.644.08-.746-.485-.158-.88 3.751-2.64 9.91-1.872 10.633-.992.723.89-.192 7.05-3.718 9.994-.542.452-1.062.215-.813-.383.79-1.974 2.565-6.396 1.718-7.48Z" fill="#f90"/><path d="M65.314 3.711v-2.56a.63.63 0 0 1 .644-.643H77.45c.373 0 .667.27.667.643v2.2c0 .372-.317.845-.87 1.612l-5.944 8.483c2.215-.056 4.554.271 6.554 1.4.452.259.576.631.61.992v2.73c0 .372-.418.812-.847.587-3.537-1.85-8.238-2.053-12.148.022-.395.214-.813-.214-.813-.587v-2.594c0-.417 0-1.128.418-1.76l6.904-9.882h-6c-.373 0-.667-.26-.667-.643ZM23.38 19.707h-3.492a.647.647 0 0 1-.622-.598V1.196c0-.361.306-.643.679-.643h3.265a.65.65 0 0 1 .633.598v2.346h.068C24.758 1.23 26.363.18 28.51.18c2.192 0 3.56 1.06 4.543 3.317C33.9 1.23 35.82.18 37.878.18c1.469 0 3.073.61 4.045 1.963 1.107 1.512.881 3.7.881 5.618v11.303c0 .361-.305.643-.678.643h-3.491c-.35-.022-.633-.304-.633-.643V9.566c0-.756.068-2.64-.102-3.362-.26-1.207-1.04-1.545-2.056-1.545-.848 0-1.73.564-2.09 1.466-.362.903-.329 2.414-.329 3.43v9.498c0 .361-.305.643-.678.643h-3.48c-.35-.023-.633-.305-.633-.643V9.555c0-1.997.328-4.941-2.158-4.941-2.509 0-2.418 2.865-2.418 4.94v9.499a.668.668 0 0 1-.678.654ZM88.027.17c5.187 0 8 4.444 8 10.107 0 5.46-3.107 9.803-8 9.803-5.096 0-7.865-4.445-7.865-9.995-.011-5.573 2.803-9.916 7.865-9.916Zm.023 3.665c-2.577 0-2.735 3.497-2.735 5.686 0 2.188-.034 6.87 2.712 6.87 2.712 0 2.836-3.768 2.836-6.07 0-1.51-.067-3.316-.52-4.748-.395-1.253-1.175-1.738-2.293-1.738ZM102.751 19.707h-3.48c-.35-.022-.633-.304-.633-.643V1.14a.666.666 0 0 1 .678-.586h3.243a.666.666 0 0 1 .621.496V3.79h.068c.983-2.448 2.35-3.62 4.769-3.62 1.57 0 3.096.563 4.079 2.109.915 1.432.915 3.846.915 5.572v11.281c-.034.316-.327.564-.678.564h-3.503c-.316-.023-.587-.26-.621-.564V9.408c0-1.963.226-4.828-2.192-4.828-.848 0-1.639.564-2.023 1.433-.497 1.094-.554 2.188-.554 3.395v9.645a.685.685 0 0 1-.689.654ZM56.15 11.145c0 1.365.034 2.493-.656 3.7-.553.982-1.446 1.591-2.418 1.591-1.345 0-2.124-1.027-2.124-2.527 0-2.978 2.666-3.52 5.209-3.52l-.011.756Zm3.525 8.506a.717.717 0 0 1-.825.079c-1.163-.959-1.367-1.41-2.011-2.324-1.921 1.952-3.277 2.538-5.763 2.538-2.95 0-5.232-1.816-5.232-5.437 0-2.832 1.537-4.76 3.73-5.708 1.898-.835 4.553-.981 6.576-1.218v-.452c0-.834.068-1.816-.43-2.526-.418-.643-1.243-.914-1.966-.914-1.333 0-2.52.688-2.814 2.098-.056.316-.293.62-.61.643l-3.39-.361c-.282-.068-.61-.293-.52-.733C47.211 1.24 50.93 0 54.251 0c1.707 0 3.921.451 5.266 1.737 1.706 1.59 1.537 3.7 1.537 6.002v5.437c0 1.636.678 2.357 1.322 3.237.226.316.271.689-.011.925-.712.61-1.978 1.715-2.69 2.313ZM10.306 11.145c0 1.365.034 2.493-.656 3.7-.553.982-1.435 1.591-2.418 1.591-1.345 0-2.124-1.027-2.124-2.527 0-2.978 2.666-3.52 5.198-3.52v.756Zm3.525 8.506a.717.717 0 0 1-.825.079c-1.164-.959-1.367-1.41-2.011-2.324-1.921 1.952-3.277 2.538-5.763 2.538C2.294 19.944 0 18.128 0 14.507c0-2.832 1.537-4.76 3.729-5.708 1.898-.835 4.554-.981 6.577-1.218v-.452c0-.834.067-1.816-.418-2.526-.43-.643-1.243-.914-1.967-.914-1.333 0-2.52.688-2.813 2.098-.057.316-.294.62-.61.643l-3.39-.361c-.283-.068-.6-.293-.52-.733C1.368 1.24 5.085 0 8.408 0c1.706 0 3.92.451 5.265 1.737 1.706 1.59 1.537 3.7 1.537 6.002v5.437c0 1.636.678 2.357 1.322 3.237.226.316.271.689-.011.925-.712.61-1.978 1.715-2.69 2.313Z" fill="#000"/></g><defs><clipPath id="a"><path fill="#fff" d="M0 0h113v34H0z"/></clipPath></defs></svg>