<svg width="184" height="42" fill="none" xmlns="http://www.w3.org/2000/svg"><path d="M13.982 22.92H5.073C2.227 22.92 0 25.15 0 28v8.92C0 39.77 2.227 42 5.073 42h8.91c2.845 0 5.073-2.23 5.073-5.08V28c0-2.85-2.351-5.08-5.074-5.08Zm1.98 13.877a1.956 1.956 0 0 1-1.98 1.982H5.073a1.956 1.956 0 0 1-1.98-1.983v-8.92c0-1.115.867-1.982 1.98-1.982h8.91c1.113 0 1.98.867 1.98 1.982v8.92Z" fill="#234999"/><path d="M36.874 15.735H26.233V5.08C26.109 2.23 23.882 0 21.036 0H5.073C2.227 0 0 2.23 0 5.08v8.672c0 2.85 2.227 5.08 5.073 5.08h17.942v17.965c0 2.849 2.228 5.08 5.074 5.08h8.662c2.846 0 5.073-2.231 5.073-5.08V20.814c0-2.726-2.227-4.956-4.95-5.08Zm-31.8 0a1.956 1.956 0 0 1-1.98-1.983V5.08c0-1.115.866-1.983 1.98-1.983h15.962c1.113 0 1.98.868 1.98 1.983v10.654H5.072Zm33.78 21.062a1.956 1.956 0 0 1-1.98 1.982h-8.662a1.956 1.956 0 0 1-1.98-1.983V18.833h10.642c1.114 0 1.98.867 1.98 1.982v15.983ZM103.941 22.92l-3.96-10.655h-4.33l6.186 14.868-3.34 7.681h4.083l9.404-22.549H107.9l-3.959 10.655ZM122.502 19.451c-.867-.371-1.856-.62-2.723-.867-.866-.248-1.608-.495-2.351-.867-.495-.248-.742-.62-.742-1.115 0-.496.247-.867.619-1.115 1.113-.62 2.351-.496 3.464.124.495.371.743.867.743 1.486h3.712c0-1.486-.743-2.85-1.856-3.717-1.238-.99-2.846-1.486-4.331-1.362-1.114 0-2.227.124-3.217.62-.866.37-1.609.866-2.104 1.61-.495.62-.742 1.487-.742 2.354s.247 1.734.742 2.478c.495.62 1.114 1.115 1.856 1.363.866.371 1.856.619 2.846.867.866.248 1.609.495 2.475.867.495.248.742.62.742 1.115 0 .496-.247.867-.618 1.115-.495.372-1.114.496-1.733.496-.618 0-1.361-.124-1.856-.62-.495-.372-.742-.867-.866-1.486h-3.836c0 .99.371 1.858.99 2.601.619.744 1.485 1.487 2.351 1.859 1.114.495 2.228.743 3.341.743 1.114 0 2.227-.124 3.217-.62.867-.371 1.609-.867 2.104-1.61.495-.744.742-1.487.742-2.354s-.247-1.735-.866-2.478c-.742-.867-1.361-1.239-2.103-1.487ZM134.628 15.363c.743 0 1.361.124 1.98.62.495.371.866.99 1.114 1.61h4.207a7.05 7.05 0 0 0-2.475-3.965c-1.361-.99-2.97-1.486-4.702-1.363-1.361 0-2.722.372-3.96.992a7.2 7.2 0 0 0-2.722 2.725 9.748 9.748 0 0 0 0 8.301c.619 1.115 1.485 2.106 2.722 2.726 1.238.62 2.599.991 3.96.991 1.732 0 3.341-.496 4.702-1.487a7.05 7.05 0 0 0 2.475-3.964h-4.084c-.371 1.363-1.732 2.23-3.093 2.106-.99 0-1.98-.372-2.599-1.24a6.72 6.72 0 0 1 0-6.813 2.513 2.513 0 0 1 2.475-1.24ZM155.416 13.257c0 .247-.247.495-.495.495-.123 0-.247 0-.247-.124-.371-.371-.743-.62-1.238-.867-.866-.495-1.979-.743-2.969-.743-1.238 0-2.475.371-3.589.99a5.855 5.855 0 0 0-2.474 2.727c-.619 1.239-.99 2.725-.99 4.088 0 1.487.247 2.85.99 4.212.494 1.115 1.361 2.107 2.474 2.85 1.114.62 2.228.991 3.465.991.99 0 2.104-.248 2.97-.743.866-.372 1.485-.991 2.103-1.735v2.23h3.836V12.265h-3.836v.992Zm-.495 9.044c-.371.62-.866 1.239-1.485 1.61-.618.372-1.361.496-1.979.496-.743 0-1.361-.248-1.98-.495-.619-.372-1.114-.992-1.485-1.611-.371-.743-.619-1.61-.619-2.354 0-.867.124-1.61.619-2.354 1.114-1.982 3.465-2.602 5.444-1.61h.124a3.761 3.761 0 0 1 1.485 1.61c.619 1.487.619 3.221-.124 4.708ZM73.377 13.257c0 .247-.247.495-.495.495-.123 0-.247 0-.247-.124-.371-.371-.743-.62-1.238-.867-.866-.495-1.98-.743-2.97-.743-1.237 0-2.474.371-3.588.99a5.857 5.857 0 0 0-2.474 2.727c-.62 1.239-.99 2.725-.99 4.088 0 1.487.247 2.85.99 4.212.494 1.115 1.36 2.107 2.474 2.85 1.114.62 2.228.991 3.465.991.99 0 2.103-.248 2.97-.743.866-.372 1.485-.991 2.103-1.735v2.23h3.836V12.265h-3.836v.992ZM72.76 22.3c-.372.62-.867 1.239-1.485 1.61-.619.372-1.361.496-1.98.496-.743 0-1.361-.248-1.98-.495-.619-.372-1.114-.992-1.485-1.611-.371-.743-.618-1.61-.618-2.354 0-.867.123-1.61.618-2.354 1.114-1.982 3.465-2.602 5.445-1.61h.123a3.764 3.764 0 0 1 1.485 1.61c.619 1.487.619 3.221-.123 4.708ZM166.305 7.186h-3.836v20.442h3.836V7.186ZM184 19.575c0-1.363-.247-2.725-.99-3.964-.619-1.115-1.485-2.107-2.722-2.602a8.9 8.9 0 0 0-7.919 0 7.196 7.196 0 0 0-2.723 2.726c-.742 1.362-.99 2.725-.99 4.212 0 1.487.248 2.85.99 4.088a7.196 7.196 0 0 0 2.723 2.726c1.237.62 2.598.991 3.959.991 1.609 0 3.217-.495 4.579-1.363 1.237-.867 2.103-2.23 2.474-3.592h-3.959c-.495 1.238-1.733 1.982-3.094 1.858-.866 0-1.856-.372-2.475-.991-.742-.62-1.113-1.61-1.113-2.602h11.136c.124-.496.124-.991.124-1.487Zm-11.26-1.115c.123-.991.495-1.858 1.237-2.478.743-.62 1.609-.867 2.475-.867.99 0 1.856.248 2.598.867a3.051 3.051 0 0 1 1.114 2.354l-7.424.124ZM88.845 12.018c-.867 0-1.856.247-2.599.62-.495.247-.99.495-1.361.866a.376.376 0 0 1-.495 0c-.124-.123-.124-.123-.124-.247v-.992H80.43v15.363h3.836v-8.425c-.123-.99.248-1.982.99-2.849.619-.62 1.609-.991 2.475-.991.866 0 1.856.372 2.475.991.618.743.99 1.735.866 2.85v8.424h3.836v-9.044c.124-1.734-.371-3.469-1.609-4.832-1.113-1.115-2.846-1.858-4.454-1.734Z" fill="#234999"/></svg>