<svg preserveAspectRatio="xMidYMid slice" width="220" height="220" xmlns="http://www.w3.org/2000/svg"><defs><clipPath id="clip-path"><path class="cls-1" d="M22.61 85.57H197.4v49.44H22.61z"/></clipPath><clipPath id="clip-path-2"><path class="cls-1" d="M22.61 85.57H197.4v49.14H22.61z"/></clipPath><style>.cls-1{fill:none}.cls-5{fill:#fff}</style></defs><g id="Layer_2" data-name="Layer 2"><g id="Layer_1-2" data-name="Layer 1"><path style="fill:#de1f26" d="M0 0h220v220H0z"/><g style="clip-path:url(#clip-path)"><g style="clip-path:url(#clip-path-2)"><path class="cls-5" d="M78.82 117.61h-5.91V86.35h6c6.58 0 7.36 3.5 7.36 14.74 0 12.41-.52 16.52-7.41 16.52m0-25.51h-1.14v19.8h1.06c2.5 0 2.59-4 2.59-10.46 0-7.27-.45-9.34-2.57-9.34ZM88.55 117.61V86.35h10.61v5.62H93.4v7.13h5v5.32h-5v7.57h5.76v5.62M110.11 117.61h-6.2l-4.08-31.26h5.06l2.39 23.61 2.83-23.61h4.76M116.43 117.61V86.35h10.61v5.62h-5.75v7.13h5v5.32h-5v7.57h5.75v5.62M129.13 117.61V86.35h4.85v25.51h5.24v5.75M146.93 118.39c-5.33 0-6.86-2.94-6.86-16.09 0-12.62 1.22-16.73 6.86-16.73s6.86 4.19 6.86 16.73c0 13.06-1.53 16.09-6.86 16.09m0-27.11c-2 0-2 2.76-2 11.07 0 7.26 0 10.33 2 10.33s2-3 2-10.38c0-8.3 0-11.02-2-11.02ZM163.42 106.11H161v11.5h-4.86V86.35h7c4.38 0 6.08 2.72 6.08 9.9 0 7.39-1.51 9.86-5.8 9.86m-1-14.1h-1.6v8.48h1.6c1.08 0 2-1.47 2-4.24s-.65-4.25-1.99-4.25ZM171.21 117.61V86.35h10.61v5.62h-5.76v7.13h5v5.32h-5v7.57h5.76v5.62M192.25 117.61c-.12-1.43-.17-2.38-.17-4.06 0-6.53-.07-8.13-2.24-8.13h-1.08v12.19h-4.86V86.35h7.17c3.11 0 5.92.91 5.92 8.43 0 4.32-.71 7-3.14 7.87 2.38.48 3.07 2 3.07 7 0 5.24 0 5.76.33 8M190 92h-1.34v8.21H190c1.53 0 2.19-1.55 2.19-3.89.03-3.48-.81-4.32-2.19-4.32ZM82.51 131.64v-9.14l-1.71 9.14h-3.56l-1.7-9.23v9.23h-2.67v-11.2h5.04l1.16 7.7 1.26-7.7h5.07v11.2M99.69 131.64l-.1-1.08a2.34 2.34 0 0 1-2.32 1.27c-1.64 0-2.65-.72-2.65-2.56 0-2.32 2.15-2.68 4.25-2.68h.57v-.46c0-.86-.14-1.15-.81-1.15-.47 0-.75.33-.75.9v.22h-3c0-2.16 2.5-2.45 3.77-2.45 2.26 0 3.78.48 3.78 2.82v3.17a12.31 12.31 0 0 0 .19 2m-3.18-3.83c-1.35 0-1.82.3-1.82 1.43 0 .68.25 1 .86 1s1-.53 1-1.55ZM119.24 125.24v6.57c0 2.29-1.94 2.9-3.9 2.9-1.6 0-3.85-.13-3.85-2.23v-.14h3.05v.1a.86.86 0 0 0 .87.93c.83 0 .86-.68.86-1.81v-1a2.25 2.25 0 0 1-2.28 1.05c-2.33 0-2.61-1.38-2.61-3.57 0-2.59.14-4.37 2.66-4.37 1.19 0 1.87.26 2.31 1.11v-.93h2.91m-4 1.31c-.82 0-.89.74-.89 2.63 0 1.52.09 2.31.93 2.31s1-.58 1-2.36-.12-2.6-1.04-2.6ZM133.37 131.64l-.11-1.08a2.34 2.34 0 0 1-2.32 1.27c-1.64 0-2.65-.72-2.65-2.56 0-2.32 2.15-2.68 4.25-2.68h.58v-.46c0-.86-.15-1.15-.82-1.15-.47 0-.75.33-.75.9v.22h-3c0-2.16 2.5-2.45 3.77-2.45 2.26 0 3.78.48 3.78 2.82v3.17a12.31 12.31 0 0 0 .19 2m-3.17-3.83c-1.36 0-1.83.3-1.83 1.43 0 .68.25 1 .86 1s1-.53 1-1.55ZM144.93 131.64v-1.61l3.15-4.65h-2.92v-1.55h6.3v1.54l-3.16 4.71h3.16v1.56M160.38 122.47v-2h3v2m-3 9.17v-7.81h3v7.81ZM177.46 131.64v-5.11c0-1-.13-1.39-.78-1.39s-.86.35-.86 1.47v5h-3V123.8h3v.86a2.77 2.77 0 0 1 2.38-1c1.54 0 2.31.62 2.31 2.31v5.68M192.5 128.11c0 1.49 0 2.32 1 2.32s.9-.73.9-1.41h3c0 1.95-1.4 2.81-3.81 2.81-2.94 0-4-1.15-4-4.09s1.29-4.09 4-4.09c3.09 0 3.85 1.41 3.85 4.23v.23m-3.98-3.11c-.83 0-.91.9-.91 1.6h1.75c0-.6.02-1.6-.84-1.6ZM30.49 110.17h3.34l-1.82-8.16-1.52 8.16zM47.67 106.21c-1.3 0-1.5 1.35-1.5 4.27 0 3.18.27 4.54 1.46 4.54 1.38 0 1.45-1.38 1.45-4.62 0-2.92-.08-4.19-1.41-4.19ZM61.91 106.21c-1.31 0-1.5 1.35-1.5 4.27 0 3.18.27 4.54 1.45 4.54 1.38 0 1.46-1.38 1.46-4.62 0-2.92-.1-4.19-1.41-4.19Z"/><path class="cls-5" d="M65.13 85.57H27.75c-3.41 0-5.14 1.68-5.14 5.14v37.15c0 3.52 1.73 5.37 5.25 5.37h37.08c3.41 0 5.34-1.76 5.34-5.37V90.71c0-3.37-1.73-5.14-5.15-5.14Zm-9.51 18.5h4.6v1.56a3.45 3.45 0 0 1 3.36-1.88c3.88 0 4.39 2.64 4.39 6.63 0 3.65-.2 7.14-4.68 7.14a3.25 3.25 0 0 1-3-1.56v6.31h-4.65v-16Zm-14.24 0H46v1.56a3.45 3.45 0 0 1 3.36-1.88c3.88 0 4.39 2.64 4.39 6.63 0 3.65-.2 7.14-4.68 7.14a3.25 3.25 0 0 1-3-1.56v6.31H41.4v-16Zm-.94 13.14h-5.23l-.78-3.7h-4.35l-.78 3.7h-5.08l4.45-18.85h7Z"/></g></g></g></g></svg>