<svg xmlns="http://www.w3.org/2000/svg" viewBox="0 0 279.65 50.34"><g data-name="Layer 2"><g data-name="Layer 1"><g data-name="Layer 1-2"><path d="m96.71 40.72-2.17-6.41H82.56c-.33.99-.68 2.07-1.04 3.23l-.99 3.18h-5.81l10.73-29.71h6.23l10.45 29.71Zm-8.18-23.25c-.72 2.02-1.42 3.97-2.08 5.87s-1.39 3.91-2.17 6.05h8.54ZM119.56 11.11h-10.93v29.68h5.05V30.68h5.88c5.99 0 8.9-2.52 8.9-7.71v-4.2c0-5.16-2.91-7.66-8.9-7.66Zm-5.88 4.67h5.76c3.42 0 3.97.9 3.97 3.04v4.16c0 2.1-.57 3.04-3.97 3.04h-5.76ZM145.23 11.11H134.3v29.68h5.05V30.68h5.88c5.99 0 8.9-2.52 8.9-7.71v-4.2c0-5.16-2.91-7.66-8.9-7.66Zm-5.88 4.67h5.76c3.42 0 3.97.9 3.97 3.04v4.16c0 2.1-.57 3.04-3.97 3.04h-5.76ZM169.07 37.82h13.71v2.97h-16.7V11.14h2.99v26.68ZM209.04 32.16c0 4.94-3.07 9-10.73 9s-10.73-4.05-10.73-9V19.6c0-4.94 3.07-9 10.73-9s10.73 4.05 10.73 9Zm-18.68.04c0 4.26 2.6 6.65 8.06 6.65s8.05-2.39 8.05-6.65V19.56c0-4.26-2.6-6.65-8.05-6.65s-8.06 2.39-8.06 6.65ZM213.59 11.14h2.97l9.59 26.68 9.61-26.68h3.04L228.14 40.8h-3.94ZM248 40.8h-2.99V11.14H248ZM262.33 14.71V40.8h-2.81V11.14h4.41l12.91 25.38V11.14h2.81V40.8h-3.57ZM52.32 36.88a6.73 6.73 0 1 0 6.73 6.73 6.739 6.739 0 0 0-6.73-6.73Zm3.98 6.74a3.98 3.98 0 1 1-3.98-3.98 3.984 3.984 0 0 1 3.98 3.98ZM6.73 36.88a6.73 6.73 0 1 0 6.73 6.73 6.739 6.739 0 0 0-6.73-6.73Zm3.98 6.74a3.98 3.98 0 1 1-3.98-3.98 3.984 3.984 0 0 1 3.98 3.98ZM29.52 0a6.73 6.73 0 1 0 6.73 6.73A6.739 6.739 0 0 0 29.52 0Zm3.98 6.74a3.98 3.98 0 1 1-3.98-3.98 3.984 3.984 0 0 1 3.98 3.98Z"/><path d="M49.83 37.63 34.96 10.86l-.14-.26-.19.23a6.091 6.091 0 0 1-1.85 1.54l-.18.1.1.18 13.16 23.7a76.381 76.381 0 0 0-16.15-1.59 76.1 76.1 0 0 0-16.62 1.58l13.16-23.69.1-.18-.18-.1a5.838 5.838 0 0 1-1.85-1.54l-.19-.23-.14.26L9.13 37.63l-.12.21.22.08c.73.25 1.4 1.16 1.99 1.68l.1.09.12-.06.05-.01a71.1 71.1 0 0 1 18.23-2.01 72.607 72.607 0 0 1 17.67 2l.1.19.19-.15.04-.03c.6-.53 1.27-1.44 2-1.69l.22-.08Z"/></g></g></g></svg>