<svg xmlns="http://www.w3.org/2000/svg" xmlns:v="http://vecta.io" xmlns:xlink="http://www.w3.org/1999/xlink" viewBox="0 0 74.375 85" stroke="#000" stroke-linecap="round" stroke-linejoin="round" fill="#fff" fill-rule="evenodd" font-family="Roboto" font-size="14" text-anchor="middle" width="300" height="300"><use xlink:href="#a" x="2.188" y="2.5"/><symbol id="a" overflow="visible" v:tags="aws, amazon, developer, tools, codecommit"><g class="Group.cls" v:size="74.375,85,2.1875,2.5"><path d="M9.754 56.088 0 51.454V4.604L9.754 0l13.442 28.81L9.754 56.088Z" fill="#4b612c" stroke="none" transform="translate(0 11.922)"/><path d="M32.219 8.205 0 0v56.088l32.219-8.517V8.205Z" fill="#759c3e" stroke="none" transform="translate(9.754 11.922)"/><path d="m0 28.507 7.498 2.39 4.728-15.443L7.498 0 0 1.024v27.483Z" fill="#4b612c" stroke="none" transform="translate(56.857 26.8)"/><path d="m11.907 15.22-7.498.897L0 15.24 7.694 0l4.213 15.22Z" fill="#3c4929" stroke="none" transform="translate(52.449 11.98)"/><path d="m0 15.278 7.694-.976V0L0 1.961v13.317Z" fill="#4b612c" stroke="none" transform="translate(52.449 11.941)"/><path d="M0 7.015 7.076 0l18.571 9.639-6.87 1.064L0 7.014Z" fill="#3c4929" stroke="none" transform="translate(27.924 15.054)"/><path d="M11.907.8 4.409 0 0 .78l7.694 15.337L11.907.8Z" fill="#b7ca9d" stroke="none" transform="translate(52.449 52)"/><path d="m0 0 7.694.976v14.36L0 13.318V0Z" fill="#4b612c" stroke="none" transform="translate(52.449 52.78)"/><path d="M18.571 24.693 0 20.41V0l18.571 8.849v15.844Z" fill="#759c3e" stroke="none" transform="translate(35)"/><path d="M9.857 4.683 0 0v14.303l9.857 2.234V4.683Z" fill="#759c3e" stroke="none" transform="translate(60.143 11.941)"/><path d="m0 3.688 7.076 13.375 18.571-16L18.777 0 0 3.688Z" fill="#b7ca9d" stroke="none" transform="translate(27.924 54.244)"/><path d="M18.571 0 0 4.283v20.41l18.571-8.771V0Z" fill="#759c3e" stroke="none" transform="translate(35 55.307)"/><path d="M9.857 11.951 0 16.595V2.235L9.857 0v11.951Z" fill="#759c3e" stroke="none" transform="translate(60.143 51.522)"/><path d="M0 71.132 18.674 80l8.59-39.854L18.675 0 0 8.82v62.312Z" fill="#4b612c" stroke="none" transform="translate(16.326)"/><path d="M10.465 74.751 0 79.707V0l10.465 4.956v69.795Z" fill="#759c3e" stroke="none" transform="translate(35 .293)"/><path d="m0 50.702 5.644-2.624V1.229L0 0v50.702Z" fill="#759c3e" stroke="none" transform="translate(64.356 15.395)"/></g></symbol></svg>