<svg version="1.1" id="Layer_1" xmlns="http://www.w3.org/2000/svg" x="0" y="0" viewBox="0 0 359.2 63.3" style="enable-background:new 0 0 359.2 63.3" xml:space="preserve"><style>.st0{fill:#253858}</style><g id="Layer_2"><g id="Blue"><path class="st0" d="M111.5 11.1c8.9 0 13.3 4.4 13.3 11.5 0 5.3-2.4 8.5-7.3 9.7 6.5 1.1 9.7 4.6 9.7 10.8 0 7-4.7 11.8-14.6 11.8H94.4V11.1h17.1zm-11.1 5.8V30h10.2c5.7 0 8-2.6 8-6.8s-2.5-6.3-8-6.3h-10.2zm0 18.4V49h12.3c5.7 0 8.3-2.1 8.3-6.5 0-4.7-2.5-7.2-8.5-7.2h-12.1zM136.9 8.8c2.1-.1 3.9 1.4 4 3.5v.5c0 2.2-1.8 4-4 4s-4-1.8-4-4c-.1-2.1 1.4-3.9 3.5-4h.5zM134 21.6h5.7V55H134V21.6zM161.6 49.4c1.2 0 2.4-.2 3.6-.5v5.5c-1.3.4-2.6.5-3.9.5-7.1 0-10.6-4.2-10.6-10.4V26.9h-5.4v-5.3h5.4v-7.1h5.6v7.1h8.9v5.3h-8.9v17.5c0 3 1.7 5 5.3 5zM188.9 55.6c-4.9 0-8.6-2.2-10.6-6.5V55h-5.7V7.6h5.8v20c2.1-4.4 6.1-6.7 11.3-6.7 8.9 0 13.4 7.5 13.4 17.4-.2 9.4-4.9 17.3-14.2 17.3zm-.9-29.3c-5.2 0-9.7 3.3-9.7 10.7v2.7c0 7.4 4.2 10.7 9.1 10.7 6.5 0 9.8-4.3 9.8-12 0-8.1-3.2-12.1-9.2-12.1zM208.9 21.6h5.7v20.2c0 6 2.4 8.7 7.9 8.7 5.3 0 9-3.5 9-10.3V21.6h5.7V55h-5.7v-5.5c-2.1 3.9-6.2 6.2-10.5 6.1-7.7 0-12.1-5.3-12.1-14.5V21.6zM269.5 54.1c-2 1.1-5.1 1.5-8.1 1.5-11.9 0-17.4-7.2-17.4-17.4 0-10.1 5.5-17.3 17.4-17.3 2.7-.1 5.5.5 8 1.6v5.3c-2.4-1.1-5-1.6-7.6-1.6-8.7 0-12.2 5.5-12.2 11.9S253.2 50 262 50c2.6.1 5.2-.3 7.6-1.2l-.1 5.3zM276.1 55V7.6h5.7v29.6l14.4-15.6h7.5L288 38l16.4 17h-7.8l-14.7-15.6V55h-5.8zM323.3 55.6c-12.5 0-18-7.2-18-17.4 0-10.1 5.6-17.3 15.8-17.3 10.3 0 14.4 7.1 14.4 17.3v2.6h-24.4c.8 5.7 4.5 9.3 12.4 9.3 3.5 0 6.9-.6 10.2-1.8v5.3c-2.7 1.5-7 2-10.4 2zm-12.2-19.7h18.6c-.3-6.2-3.1-9.7-8.9-9.7-6-.1-9.1 3.9-9.7 9.7zM355.6 49.4c1.2 0 2.4-.2 3.6-.5v5.5c-1.3.4-2.6.5-3.9.5-7.1 0-10.6-4.2-10.6-10.4V26.9h-5.4v-5.3h5.4v-7.1h5.6v7.1h8.9v5.3h-8.9v17.5c0 3 1.7 5 5.3 5z"/><path style="fill:none" d="M24.7 41.5h13.1l3.1-18.4H21.2z"/><path d="M2 4.3c-1.1 0-2 .9-2 2v.3l8.5 51.5c.2 1.3 1.3 2.3 2.7 2.3h40.7c1 0 1.8-.7 2-1.7l8.5-52.1c.2-1.1-.6-2.1-1.7-2.3H2zm35.8 37.2h-13l-3.5-18.4H41l-3.2 18.4z" style="fill:#2684ff"/><linearGradient id="SVGID_1_" gradientUnits="userSpaceOnUse" x1="64.018" y1="35.72" x2="32.998" y2="11.51" gradientTransform="matrix(1 0 0 -1 0 64)"><stop offset=".18" style="stop-color:#0052cc"/><stop offset="1" style="stop-color:#2684ff"/></linearGradient><path d="M59.7 23.1H40.9l-3.2 18.4h-13L9.4 59.7c.5.4 1.1.7 1.8.7h40.7c1 0 1.8-.7 2-1.7l5.8-35.6z" style="fill:url(#SVGID_1_)"/></g></g></svg>