<?xml version="1.0" encoding="utf-8"?>
<!-- Generator: Adobe Illustrator 21.1.0, SVG Export Plug-In . SVG Version: 6.00 Build 0)  -->
<svg version="1.1" id="Layer_1" xmlns="http://www.w3.org/2000/svg" xmlns:xlink="http://www.w3.org/1999/xlink" x="0px" y="0px"
	 viewBox="0 0 359.2 63.3" style="enable-background:new 0 0 359.2 63.3;" xml:space="preserve">
<style type="text/css">
	.st0{fill:#253858;}
	.st1{fill:none;}
	.st2{fill:#2684FF;}
	.st3{fill:url(#SVGID_1_);}
</style>
<title>Bitbucket-blue</title>
<g id="Layer_2">
	<g id="Blue">
		<path class="st0" d="M111.5,11.1c8.9,0,13.3,4.4,13.3,11.5c0,5.3-2.4,8.5-7.3,9.7c6.5,1.1,9.7,4.6,9.7,10.8
			c0,7-4.7,11.8-14.6,11.8H94.4V11.1H111.5z M100.4,16.9v13.1h10.2c5.7,0,8-2.6,8-6.8s-2.5-6.3-8-6.3L100.4,16.9z M100.4,35.3v13.7
			h12.3c5.7,0,8.3-2.1,8.3-6.5c0-4.7-2.5-7.2-8.5-7.2L100.4,35.3z"/>
		<path class="st0" d="M136.9,8.8c2.1-0.1,3.9,1.4,4,3.5c0,0.2,0,0.4,0,0.5c0,2.2-1.8,4-4,4c-2.2,0-4-1.8-4-4
			c-0.1-2.1,1.4-3.9,3.5-4C136.5,8.8,136.7,8.8,136.9,8.8z M134,21.6h5.7V55H134V21.6z"/>
		<path class="st0" d="M161.6,49.4c1.2,0,2.4-0.2,3.6-0.5v5.5c-1.3,0.4-2.6,0.5-3.9,0.5c-7.1,0-10.6-4.2-10.6-10.4V26.9h-5.4v-5.3
			h5.4v-7.1h5.6v7.1h8.9v5.3h-8.9v17.5C156.3,47.4,158,49.4,161.6,49.4z"/>
		<path class="st0" d="M188.9,55.6c-4.9,0-8.6-2.2-10.6-6.5V55h-5.7V7.6h5.8v20c2.1-4.4,6.1-6.7,11.3-6.7c8.9,0,13.4,7.5,13.4,17.4
			C202.9,47.7,198.2,55.6,188.9,55.6z M188,26.3c-5.2,0-9.7,3.3-9.7,10.7v2.7c0,7.4,4.2,10.7,9.1,10.7c6.5,0,9.8-4.3,9.8-12
			C197.2,30.3,194,26.3,188,26.3z"/>
		<path class="st0" d="M208.9,21.6h5.7v20.2c0,6,2.4,8.7,7.9,8.7c5.3,0,9-3.5,9-10.3V21.6h5.7V55h-5.7v-5.5
			c-2.1,3.9-6.2,6.2-10.5,6.1c-7.7,0-12.1-5.3-12.1-14.5L208.9,21.6z"/>
		<path class="st0" d="M269.5,54.1c-2,1.1-5.1,1.5-8.1,1.5c-11.9,0-17.4-7.2-17.4-17.4c0-10.1,5.5-17.3,17.4-17.3
			c2.7-0.1,5.5,0.5,8,1.6v5.3c-2.4-1.1-5-1.6-7.6-1.6c-8.7,0-12.2,5.5-12.2,11.9s3.6,11.9,12.4,11.9c2.6,0.1,5.2-0.3,7.6-1.2
			L269.5,54.1z"/>
		<path class="st0" d="M276.1,55V7.6h5.7v29.6l14.4-15.6h7.5L288,38l16.4,17h-7.8l-14.7-15.6V55H276.1z"/>
		<path class="st0" d="M323.3,55.6c-12.5,0-18-7.2-18-17.4c0-10.1,5.6-17.3,15.8-17.3c10.3,0,14.4,7.1,14.4,17.3v2.6h-24.4
			c0.8,5.7,4.5,9.3,12.4,9.3c3.5,0,6.9-0.6,10.2-1.8v5.3C331,55.1,326.7,55.6,323.3,55.6z M311.1,35.9h18.6
			c-0.3-6.2-3.1-9.7-8.9-9.7C314.8,26.1,311.7,30.1,311.1,35.9L311.1,35.9z"/>
		<path class="st0" d="M355.6,49.4c1.2,0,2.4-0.2,3.6-0.5v5.5c-1.3,0.4-2.6,0.5-3.9,0.5c-7.1,0-10.6-4.2-10.6-10.4V26.9h-5.4v-5.3
			h5.4v-7.1h5.6v7.1h8.9v5.3h-8.9v17.5C350.3,47.4,352,49.4,355.6,49.4z"/>
		<polygon class="st1" points="24.7,41.5 37.8,41.5 40.9,23.1 21.2,23.1 		"/>
		<path class="st2" d="M2,4.3c-1.1,0-2,0.9-2,2c0,0.1,0,0.2,0,0.3l8.5,51.5c0.2,1.3,1.3,2.3,2.7,2.3h40.7c1,0,1.8-0.7,2-1.7
			l8.5-52.1c0.2-1.1-0.6-2.1-1.7-2.3c-0.1,0-0.2,0-0.3,0L2,4.3z M37.8,41.5h-13l-3.5-18.4h19.7L37.8,41.5z"/>
		
			<linearGradient id="SVGID_1_" gradientUnits="userSpaceOnUse" x1="64.0176" y1="35.7202" x2="32.9977" y2="11.5102" gradientTransform="matrix(1 0 0 -1 0 64)">
			<stop  offset="0.18" style="stop-color:#0052CC"/>
			<stop  offset="1" style="stop-color:#2684FF"/>
		</linearGradient>
		<path class="st3" d="M59.7,23.1H40.9l-3.2,18.4h-13L9.4,59.7c0.5,0.4,1.1,0.7,1.8,0.7h40.7c1,0,1.8-0.7,2-1.7L59.7,23.1z"/>
	</g>
</g>
</svg>
