<svg version="1.1" id="blend-logo" xmlns="http://www.w3.org/2000/svg" xmlns:xlink="http://www.w3.org/1999/xlink" x="0" y="0" viewBox="0 0 896 326" style="enable-background:new 0 0 896 326" xml:space="preserve"><style>.st0{fill:#75c9d1}.st1{fill:#04385c}</style><g id="blend-logo-b"><path id="blend-logo-b-top" class="st0" d="M101.3 109.9c-7.4-.8-41.8-2-69.3 16.1V10.1c0-1.8-1.2-3.4-3-3.9L5 .2C2.9-.3.7 1 .1 3.1c-.1.4-.1.7-.1 1v193c0 1.1.9 2 2 2 .5 0 1-.2 1.4-.6l36.4-36.9c17.3-17.3 26.6-24.5 39.6-24.5 11.7 0 46.6 13.2 63.8 19.8 1 .4 2.2-.1 2.6-1.2.3-.7.1-1.6-.5-2.1-13.4-13.4-39.1-39.3-43-43.2-.2-.2-.5-.4-1-.5z"/><path id="blend-logo-b-left" class="st1" d="M.6 212.4c4.1-4.1 29-29.2 41.3-41.5.8-.8 2.1-.8 2.8 0 .5.5.7 1.3.5 2C34.8 203.6 29 225.7 29 246c0 23.6 35.6 55.2 59 76.4.8.7.9 2 .1 2.8-.4.5-1 .7-1.6.7-21.8-1.4-46.8-10.7-63.9-30.8C9.9 280.2.1 267.1 0 213.8c0-.5.2-1 .6-1.4z"/><path id="blend-logo-b-right" class="st1" d="M200.8 226.5c-4.1 3.9-29 28.2-41.5 40.2-.8.8-2.1.7-2.8-.1-.5-.5-.7-1.3-.4-2 10.5-30.5 16.7-52 17.1-68.4.5-16.7-4.8-29.4-18.7-43.4l-38.9-39.1c-.8-.8-.8-2 0-2.8.4-.4 1-.6 1.6-.6 20.7 1.6 45.6 12 62.7 32 12.7 14.8 26.9 41.7 21.5 83.1-.1.4-.3.8-.6 1.1z"/><path id="blend-logo-b-bottom" class="st0" d="M103.4 325.4c-4.3-4.1-29.8-28.6-43.4-41.6-.8-.8-.8-2-.1-2.8.6-.6 1.4-.8 2.2-.5 16.7 6.4 49.3 18.7 60.9 18.7 13 0 22.4-7.2 39.6-24.5l35.8-36.2c.8-.8 2-.8 2.8 0 .4.4.6.9.6 1.5-2.1 72.2-50.4 85.9-97.1 86-.4 0-.9-.2-1.3-.6z"/></g><path id="blend-logo-l" class="st1" d="m262 .2-24 6c-1.8.5-3 2.1-3 3.9V322c0 2.2 1.8 4 4 4h24c2.2 0 4-1.8 4-4V4.1c0-2.2-1.8-4-4-4-.3 0-.7.1-1 .1z"/><path id="blend-logo-e" class="st1" d="M480 198c0-80-33-96-89-96s-87 16-87 96v32c0 80 40 96 96 96h50.9c2.2 0 4-1.8 4-4 0-.3 0-.7-.1-1l-6-24c-.5-1.8-2.1-3-3.9-3H400c-43.9 0-63.5-5.4-64-62 0-1.1.9-2 2-2h138c2.2 0 4-1.8 4-4v-28zm-142 0c-1.1 0-2-.9-2-2 .2-56.6 11.1-62 55-62s56.7 5.4 57 62c0 1.1-.9 2-2 2H338z"/><path id="blend-logo-n" class="st1" d="M593 102h-76c-2.2 0-4 1.8-4 4v216c0 2.2 1.8 4 4 4h24c2.2 0 4-1.8 4-4V136c0-1.1.9-2 2-2h46c44.4 0 64 13.5 64 72v116c0 2.2 1.8 4 4 4h24c2.2 0 4-1.8 4-4V206c0-80-40-104-96-104z"/><path id="blend-logo-d" class="st1" d="M864 10.1V100c0 1.1-.9 2-2 2h-46c-56 0-96 24-96 104v16c0 80 40 104 96 104h76c2.2 0 4-1.8 4-4V4.1c0-2.2-1.8-4-4-4-.3 0-.7 0-1 .1l-24 6c-1.8.5-3 2.1-3 3.9zm0 281.9c0 1.1-.9 2-2 2h-46c-44.4 0-64-13.5-64-72v-16c0-58.5 19.6-72 64-72h46c1.1 0 2 .9 2 2v156z"/><defs><path id="SVGID_1_" d="M1 1h1L1 2z"/></defs><defs><path id="SVGID_2_" d="M-1-1h-1l1-1z"/></defs><clipPath id="SVGID_3_"><use xlink:href="#SVGID_1_" style="overflow:visible"/></clipPath><clipPath id="SVGID_4_" style="clip-path:url(#SVGID_3_)"><use xlink:href="#SVGID_2_" style="overflow:visible"/></clipPath></svg>