<?xml version="1.0" encoding="utf-8"?>
<!-- Generator: Adobe Illustrator 25.4.1, SVG Export Plug-In . SVG Version: 6.00 Build 0)  -->
<svg version="1.1" id="Layer_1" xmlns:serif="http://www.serif.com/"
	 xmlns="http://www.w3.org/2000/svg" xmlns:xlink="http://www.w3.org/1999/xlink" x="0px" y="0px" viewBox="0 0 1000 409.9"
	 style="enable-background:new 0 0 1000 409.9;" xml:space="preserve">
<style type="text/css">
	.st0{fill-rule:evenodd;clip-rule:evenodd;fill:#0F216B;}
</style>
<g transform="matrix(4.16667,0,0,4.16667,0,0)">
	<path class="st0" d="M91.7,51.1v12.1c1.7,2.7,4.7,4.4,8.6,4.4c5.8,0,9.8-4.3,9.8-10.4c0-5.9-4.3-10.2-10-10.2
		C96.5,47,93.5,48.6,91.7,51.1z M101.7,73.8c-4,0-7.4-1.2-10.1-3.6v2.9h-7.4V24.6h7.6v20.2c2.7-2.9,6.3-4.3,10.6-4.3
		c8.5,0,15.4,6.8,15.4,16.6C117.7,66.8,110.5,73.8,101.7,73.8z"/>
	<path class="st0" d="M130.4,24.6h-7.6v48.5h7.6V24.6z"/>
	<path class="st0" d="M143.1,53.3H159c-0.9-3.9-3.7-6.6-7.8-6.6C147.3,46.7,144.2,49.1,143.1,53.3z M153.2,73.8
		c-10.4,0-17.9-6.7-17.9-16.6c0-9.8,7.4-16.6,15.7-16.6c9.8,0,15.3,7,15.3,16.8v1.6h-23.6c0.7,5.3,4.5,8.6,10.9,8.6
		c4.2,0,9-1.7,11.8-3.9v6.5C162.9,72.2,158.2,73.8,153.2,73.8z"/>
	<path class="st0" d="M179.5,50.8v22.3h-7.6V41.2h7.4v3.5c2.3-2.6,5.8-4.3,10-4.3c7.8,0,12.2,5.3,12.2,12.9v19.7H194V54.3
		c0-4.1-2.5-7.1-6.7-7.1C183.7,47.2,181.1,48.6,179.5,50.8z"/>
	<path class="st0" d="M224,67.5c3.7,0,6.6-1.6,8.4-4.1V51.3c-1.7-2.7-4.7-4.4-8.6-4.4c-5.8,0-9.8,4.3-9.8,10.3
		C214,63.2,218.3,67.5,224,67.5z M232.6,69.5c-2.6,2.9-6.2,4.3-10.4,4.3c-8.6,0-15.7-6.7-15.7-16.5c0-9.6,7.2-16.8,16-16.8
		c3.9,0,7.4,1.1,10,3.5V24.6h7.6v48.5h-7.4V69.5z"/>
	<path class="st0" d="M38,38.4l3.3-2.5c7.1-5.2,6.8-11.4,5.5-15.2c-1.4-4.2-5.3-8.8-12.1-8.8H0V0h34.7c10.9,0,20.1,6.7,23.5,17.1
		c3.4,10.4-0.2,21.2-9,27.6l-1.3,1L38,38.4z M43.1,49.2l6.1,4.5c8.8,6.4,12.3,17.3,9,27.6c-3.4,10.4-12.6,17.1-23.5,17.1H0v-12h34.7
		c6.8,0,10.7-4.5,12.1-8.8c1.4-4.3,0.9-10.2-4.6-14.2l-9.3-6.8l-10.2-7.4L12,41.4V57l5.8-4.2L28,60.2L9.5,73.6
		c-1.8,1.3-4.2,1.5-6.2,0.5c-2-1-3.3-3.1-3.3-5.4V29.7c0-2.3,1.3-4.3,3.3-5.3c2-1,4.4-0.8,6.2,0.5l23.4,17L43.1,49.2z"/>
</g>
</svg>
