<svg version="1.1" id="Layer_1" xmlns="http://www.w3.org/2000/svg" x="0" y="0" viewBox="0 0 1000 409.9" style="enable-background:new 0 0 1000 409.9" xml:space="preserve"><style>.st0{fill-rule:evenodd;clip-rule:evenodd;fill:#0f216b}</style><path class="st0" d="M91.7 51.1v12.1c1.7 2.7 4.7 4.4 8.6 4.4 5.8 0 9.8-4.3 9.8-10.4 0-5.9-4.3-10.2-10-10.2-3.6 0-6.6 1.6-8.4 4.1zm10 22.7c-4 0-7.4-1.2-10.1-3.6v2.9h-7.4V24.6h7.6v20.2c2.7-2.9 6.3-4.3 10.6-4.3 8.5 0 15.4 6.8 15.4 16.6-.1 9.7-7.3 16.7-16.1 16.7zM130.4 24.6h-7.6v48.5h7.6V24.6zM143.1 53.3H159c-.9-3.9-3.7-6.6-7.8-6.6-3.9 0-7 2.4-8.1 6.6zm10.1 20.5c-10.4 0-17.9-6.7-17.9-16.6 0-9.8 7.4-16.6 15.7-16.6 9.8 0 15.3 7 15.3 16.8V59h-23.6c.7 5.3 4.5 8.6 10.9 8.6 4.2 0 9-1.7 11.8-3.9v6.5c-2.5 2-7.2 3.6-12.2 3.6zM179.5 50.8v22.3h-7.6V41.2h7.4v3.5c2.3-2.6 5.8-4.3 10-4.3 7.8 0 12.2 5.3 12.2 12.9V73H194V54.3c0-4.1-2.5-7.1-6.7-7.1-3.6 0-6.2 1.4-7.8 3.6zM224 67.5c3.7 0 6.6-1.6 8.4-4.1V51.3c-1.7-2.7-4.7-4.4-8.6-4.4-5.8 0-9.8 4.3-9.8 10.3 0 6 4.3 10.3 10 10.3zm8.6 2c-2.6 2.9-6.2 4.3-10.4 4.3-8.6 0-15.7-6.7-15.7-16.5 0-9.6 7.2-16.8 16-16.8 3.9 0 7.4 1.1 10 3.5V24.6h7.6v48.5h-7.4v-3.6zM38 38.4l3.3-2.5c7.1-5.2 6.8-11.4 5.5-15.2-1.4-4.2-5.3-8.8-12.1-8.8H0V0h34.7c10.9 0 20.1 6.7 23.5 17.1 3.4 10.4-.2 21.2-9 27.6l-1.3 1-9.9-7.3zm5.1 10.8 6.1 4.5c8.8 6.4 12.3 17.3 9 27.6-3.4 10.4-12.6 17.1-23.5 17.1H0v-12h34.7c6.8 0 10.7-4.5 12.1-8.8 1.4-4.3.9-10.2-4.6-14.2l-9.3-6.8-10.2-7.4L12 41.4V57l5.8-4.2L28 60.2 9.5 73.6a6.02 6.02 0 0 1-6.2.5c-2-1-3.3-3.1-3.3-5.4v-39c0-2.3 1.3-4.3 3.3-5.3 2-1 4.4-.8 6.2.5l23.4 17 10.2 7.3z" transform="scale(4.16667)"/></svg>