<svg xmlns="http://www.w3.org/2000/svg" viewBox="0 0 591.66 125"><defs><style>.a{fill:#323133}.c{fill:#c63639}.d{fill:#e0b438}</style></defs><path class="a" d="M80.62 118.71c3.42-1.81 7-3.54 10.19-5.06l4.57-2.21c24.77-12.27 30.12-20 30.12-43.75V31l.06-6.58v-6.93a64.6 64.6 0 0 1 .44-8.26l.06-.6-2.77.11c-5.64.24-9.91.37-12.35.37H45.17c-2.44 0-6.71-.13-12.36-.37l-2.76-.11.06.6a62.81 62.81 0 0 1 .39 8.25v6.93l.09 6.59v36.7c0 23.71 5.35 31.48 30.12 43.75l4.57 2.21c3.17 1.52 6.77 3.25 10.19 5.06l2.53 1.35Z"/><path d="M124.45 67.25V47.07H88.24V10.19H67.85v36.88H31.64v20.18h36.21v46.46c2.63 1.27 5.42 2.64 8.13 4.07l2.08 1.1 2.07-1.1c2.71-1.43 5.5-2.8 8.13-4.06V67.25Z" style="fill:#fff"/><path class="c" d="m88.18 67.15.06.29v46.28l2.11-1 4.56-2.21c24.56-12.17 29.53-19.37 29.53-42.8v-.44h-36.1Zm-56.54.1v.44c0 23.43 5 30.63 29.54 42.8l4.55 2.21 2.11 1V67.44l.06-.29-.16.1Zm0-20.18h36l.32.09-.07-.31V10.19H45.17c-2.46 0-6.74-.13-12.4-.37l-1.55-.06a65.24 65.24 0 0 1 .33 7.74v6.94l.09 6.56Zm91.68-37.28c-5.66.24-9.95.37-12.4.37H88.24v36.69l-.06.31.31-.09h36V31l.06-6.57v-6.94a65.24 65.24 0 0 1 .33-7.74l-1.55.06"/><path class="a" d="m60.14 28.24.12.48c.11.42.2.76.25 1 .4 1.8.74 2.27 1.61 2.27a1.05 1.05 0 0 0 1-.69l.19-.63a.29.29 0 0 1 .3-.23c.34 0 .5.35.51 1.14a13.72 13.72 0 0 0 .23 1.54 8.4 8.4 0 0 1 .12 1.38 2.17 2.17 0 0 1-.19 1 13.07 13.07 0 0 1 .19 1.93 4 4 0 0 1-.37 1.88 4 4 0 0 1 .15 1.19 6.38 6.38 0 0 1-.09 1.05 7.72 7.72 0 0 0-.16 1.06 1.55 1.55 0 0 0 .07.43 1.63 1.63 0 0 1 .1.38c0 .08 0 .15-.1.15l-.63-.25-.69-.38a3 3 0 0 1-.72-.56c-.62.55-.79.63-2.39 1.07a2.32 2.32 0 0 0-.7.28 1 1 0 0 1-.42.22c-.27 0-.4-.43-.4-1.33a7.4 7.4 0 0 1 .19-1.76 3.59 3.59 0 0 0-1.12-.28 3.89 3.89 0 0 0-.48.07h-.12c-.09 0-.17-.14-.17-.31a2.37 2.37 0 0 1 .19-.68l.32-.75a2.63 2.63 0 0 1 .75-.92 2.09 2.09 0 0 1 .82-.47l1.14-.22c.67-.13 1.07-.49 1.07-1s-.31-.77-1-1l-1.35-.48a6.38 6.38 0 0 1-1.23-.59c-.75-.45-.88-.51-1.06-.51s-.42.21-.42.56a.88.88 0 0 0 .88 1 .87.87 0 0 0 .31-.07 1.09 1.09 0 0 1 .33-.09c.14 0 .22.08.22.24v.13l-.06.54a4.5 4.5 0 0 1-1 1.89l-.29.38a4.35 4.35 0 0 1-1.69 2.49c-.21.13-.32.22-.35.24a3.7 3.7 0 0 0-.25.45 6 6 0 0 1-.63.75 6.5 6.5 0 0 1-.79.73 3 3 0 0 0-.63.56l-.31.54a.34.34 0 0 1-.26.16c-.27 0-.53-.3-.69-.79S50.26 43 50 43a2.72 2.72 0 0 0-.55.09l-.44.06h-1.12a5.08 5.08 0 0 0-1.73.32.83.83 0 0 1-.33.1c-.08 0-.12 0-.21-.2a.46.46 0 0 1-.06-.25 6 6 0 0 1 .95-2.52 3.18 3.18 0 0 1 .85-1 1.43 1.43 0 0 0-.88-1.07l-.54-.16a.18.18 0 0 1-.13-.16c0-.16.26-.38.73-.63a3.93 3.93 0 0 1 1.73-.5 2.56 2.56 0 0 1 1.61.66c.85.67 1.08.79 1.5.79a1.36 1.36 0 0 0 1.31-1.26 3 3 0 0 0-.83-1.67 3.88 3.88 0 0 1-1.14-2.6 3.22 3.22 0 0 1 .35-1.47l.32-.47a.54.54 0 0 0 .1-.31c0-.21-.24-.36-.57-.36a5.41 5.41 0 0 0-2.21.82c-.38.24-.63.51-.63.67a.24.24 0 0 0 .13.24l.34.23a.14.14 0 0 1 .07.13.47.47 0 0 1-.13.24l-.63.82A10.52 10.52 0 0 1 46.54 35a2.4 2.4 0 0 0-.32.31s-.08.17-.25.48a4.81 4.81 0 0 1-1.38 1.41 2.37 2.37 0 0 0-.44.35 1.89 1.89 0 0 0-.25.44 5.41 5.41 0 0 1-.42.66 7 7 0 0 1-.75 1l-.88.88a5.2 5.2 0 0 0-.85 1.88c-.23.69-.43 1.1-.54 1.1s-.15-.07-.25-.19c-.62-.71-1.16-1.14-1.44-1.14a.81.81 0 0 0-.35.17 2.49 2.49 0 0 1-.86.31l-1.16.22a2.5 2.5 0 0 0-1.73.94c-.12.14-.22.23-.27.23s-.17-.16-.17-.37v-.3l.16-.85a7 7 0 0 1 .63-2l.53-1a1 1 0 0 0 .16-.51A1.7 1.7 0 0 0 34 37.53c-.23 0-.32-.08-.32-.21s.26-.47.6-.74a4 4 0 0 1 2-.81 4.3 4.3 0 0 1 1.41.37l.7.29a2 2 0 0 0 .7.16c.73 0 1.44-.67 2.32-2.18A3.32 3.32 0 0 0 42 32.8c0-.8-.38-1.28-1-1.28a2 2 0 0 0-1.37.6 1.41 1.41 0 0 0-.48 1v.43c0 .29-.09.45-.27.45s-.73-.42-2-1.92a3.7 3.7 0 0 1-1.17-2.7c-1.07-1.37-1.33-2-1.33-2.91v-.65a3 3 0 0 1-.94-2.19 1.57 1.57 0 0 1 .22-.83 3.12 3.12 0 0 1-.6-1.23l-.06-.69a3.26 3.26 0 0 0-.5-1.17c-.29-.4-.32-.46-.32-.6 0-.37.26-.51 1.36-.78a6.46 6.46 0 0 1-.07-.7 4.26 4.26 0 0 1 .1-.75l.22-1.16a6.14 6.14 0 0 0 .13-1 3.12 3.12 0 0 0-.23-1 2.78 2.78 0 0 0-.28-.72 1.25 1.25 0 0 1-.19-.44c0-.1.08-.17.22-.17a5.22 5.22 0 0 1 2 1.21c1.8 1.49 2.17 2.09 2.42 3.9 0 .14 0 .35.1.63a2.82 2.82 0 0 1 1.32 2.23 4 4 0 0 1-.63 2l-.63 1a1.9 1.9 0 0 0-.29 1.05 3.72 3.72 0 0 0 .6 1.88c.48.85.89 1.2 1.4 1.2.83 0 1.56-1.45 1.56-3.09v-.79c0-.31 0-.63.07-1s.09-.8.1-.92v-1.25a.91.91 0 0 0-.32-.6l-.7-.76a4.91 4.91 0 0 1-1.55-2.89 1.6 1.6 0 0 1 1.61-1.67 2.36 2.36 0 0 1 .67.12v-.21c0-1.39.28-2.42.66-2.42L42 12l.57.5.69.45.19.18c0-.39 0-.43.41-.88.1-.11.24-.31.44-.59s.27-.39.32-.48l.16-.28c.08-.16.16-.24.26-.24s.15.12.27.46.12.27.66.76a1.66 1.66 0 0 1 .38.41 3.62 3.62 0 0 1 .25.62l.09.25a2.05 2.05 0 0 1 .63-.56l.48-.28a1 1 0 0 1 .35-.17s.1.08.15.2.13.26.25.47A2.32 2.32 0 0 1 49 14v.69a1.76 1.76 0 0 1 1.42 2 4.39 4.39 0 0 1-1.23 2.68c-.54.65-.6.78-.6 1.23 0 2.32 1.62 3.67 4.47 3.72h2.11a10.21 10.21 0 0 1 3.44.56 8.14 8.14 0 0 0 2.36.6.75.75 0 0 0 .41-.12.41.41 0 0 0 .18-.29c0-.44-.77-.79-3.3-1.51-5.19-1.47-7.4-3.56-7.4-7a4.83 4.83 0 0 1 5.07-4.71 11 11 0 0 1 3.15.54l1.28.47A1.94 1.94 0 0 0 61 13c.44 0 .67-.37.68-1.11 0-.4.1-.53.36-.53s.92.45 1.44 1.16a4.16 4.16 0 0 1 .85 2.07 1.81 1.81 0 0 1-1.11 1.65 3.08 3.08 0 0 1-2.74 1.57c-.91 0-2.2-.51-4.34-1.73a3.18 3.18 0 0 0-1.52-.57.83.83 0 0 0-.92.83c0 .45.35.74 1.28 1.06a4.52 4.52 0 0 1 2.23 1.23 6.37 6.37 0 0 1 3.31 1.32c2.76.88 4.47 2.76 4.47 4.92a3.38 3.38 0 0 1-3.39 3.61 5.89 5.89 0 0 1-1.49-.19M118.87 28.24l.13.48c.12.42.2.76.25 1 .4 1.8.73 2.27 1.61 2.27a1.05 1.05 0 0 0 1-.69l.18-.63a.31.31 0 0 1 .31-.23c.34 0 .52.38.55 1.14a13.84 13.84 0 0 0 .19 1.54 9.88 9.88 0 0 1 .12 1.46 2.14 2.14 0 0 1-.19.9l.07.38a6.82 6.82 0 0 1 .13 1.16 3.77 3.77 0 0 1-.39 2.27 4.07 4.07 0 0 1 .17 1.13 9.11 9.11 0 0 1-.1 1.11l-.13.94v.57a2 2 0 0 1 .13.38.14.14 0 0 1-.13.15l-.63-.25-.69-.38a3.21 3.21 0 0 1-.72-.56 2.5 2.5 0 0 1-1.42.78 6.12 6.12 0 0 0-1.64.57 1 1 0 0 1-.43.22c-.25 0-.42-.47-.42-1.17a5.25 5.25 0 0 1 .22-1.92 4.22 4.22 0 0 0-1.14-.28 2.5 2.5 0 0 0-.46.07h-.14c-.1 0-.15-.11-.15-.3a3.73 3.73 0 0 1 .51-1.44 2.79 2.79 0 0 1 1.54-1.39l1.13-.22c.68-.13 1.08-.49 1.08-1s-.3-.76-1-1l-1.33-.48a6.22 6.22 0 0 1-1.25-.59l-.7-.41a.63.63 0 0 0-.34-.1c-.28 0-.45.21-.45.54a1 1 0 0 0 .92 1 .82.82 0 0 0 .31-.07 1.14 1.14 0 0 1 .29-.09c.15 0 .25.14.25.33a4 4 0 0 1-.72 2l-.38.47-.29.38a4.22 4.22 0 0 1-1.7 2.49 1.93 1.93 0 0 0-.34.24 3.7 3.7 0 0 0-.25.45 7.17 7.17 0 0 1-.63.75 6.5 6.5 0 0 1-.79.73 3 3 0 0 0-.63.56l-.32.54a.26.26 0 0 1-.24.16c-.28 0-.54-.29-.7-.79s-.12-.41-.37-.41a2.62 2.62 0 0 0-.55.09l-.44.06h-1.1a5.17 5.17 0 0 0-1.76.32.87.87 0 0 1-.33.1c-.16 0-.24-.17-.24-.48a5.77 5.77 0 0 1 1.77-3.49 1.35 1.35 0 0 0-.86-1.07l-.56-.16a.16.16 0 0 1-.09-.15c0-.2.22-.4.72-.64a3.33 3.33 0 0 1 1.65-.5 2.54 2.54 0 0 1 1.65.66c.86.67 1.09.79 1.5.79a1.37 1.37 0 0 0 1.32-1.26 2.88 2.88 0 0 0-.84-1.67 4.09 4.09 0 0 1-1.13-2.68 3 3 0 0 1 .66-1.82.69.69 0 0 0 .13-.34c0-.17-.28-.33-.6-.33a3.37 3.37 0 0 0-1.32.38c-1 .44-1.51.84-1.51 1.09a.32.32 0 0 0 .15.26l.32.23a.17.17 0 0 1 .07.13.52.52 0 0 1-.13.24c-.06.08-.28.35-.63.82a7.09 7.09 0 0 1-1.32 1.42 1.33 1.33 0 0 0-.32.31l-.25.48a5.36 5.36 0 0 1-1.35 1.41 3 3 0 0 0-.44.35 2.71 2.71 0 0 0-.29.44 9.52 9.52 0 0 1-1.16 1.64l-.85.88a6.27 6.27 0 0 0-.92 1.95c-.25.76-.42 1.1-.54 1.1s-.14-.07-.24-.19c-.61-.7-1.16-1.13-1.43-1.13a.89.89 0 0 0-.37.16 2.71 2.71 0 0 1-.84.31l-1.14.22a2.43 2.43 0 0 0-1.76.94c-.11.14-.21.23-.25.23s-.2-.17-.2-.39v-.28s.06-.31.16-.85a7.2 7.2 0 0 1 .62-2l.57-1a1.08 1.08 0 0 0 .16-.51c0-.72-.68-1.31-1.7-1.47-.21 0-.32-.11-.32-.23s.25-.42.64-.72a3.59 3.59 0 0 1 1.94-.88 4.13 4.13 0 0 1 1.44.37l.69.29a2 2 0 0 0 .71.16c.73 0 1.44-.67 2.32-2.18a3.32 3.32 0 0 0 .56-1.62c0-.79-.37-1.27-1-1.27a1.84 1.84 0 0 0-1.34.6 1.5 1.5 0 0 0-.52 1v.49c0 .25-.08.36-.27.36s-.52-.23-1.06-.88l-.88-1a3.56 3.56 0 0 1-1.2-2.7c-1.07-1.37-1.33-2-1.33-2.91v-.65a2.79 2.79 0 0 1-.91-2.18 1.36 1.36 0 0 1 .19-.84 3.12 3.12 0 0 1-.6-1.23l-.16-.66a3.45 3.45 0 0 0-.5-1.17c-.28-.4-.32-.46-.32-.58 0-.33.32-.54 1.11-.74l.25-.06a4.62 4.62 0 0 1-.07-.7 3.47 3.47 0 0 1 .1-.75l.22-1.16a7 7 0 0 0 .13-1 3.38 3.38 0 0 0-.19-1 2.61 2.61 0 0 0-.32-.72.91.91 0 0 1-.19-.42c0-.11.11-.19.25-.19a.78.78 0 0 1 .32.1 12.23 12.23 0 0 1 3 2.43c.72.79.94 1.45 1.1 3.21A2.69 2.69 0 0 1 98 20.5a3.37 3.37 0 0 1-.63 1.86c-.39.59-.6.91-.63 1a2.1 2.1 0 0 0-.29 1.07 3.64 3.64 0 0 0 .6 1.86c.47.84.89 1.2 1.39 1.2.83 0 1.58-1.43 1.58-3V23.3l.09-.75.07-.92.06-.75v-.42c0-.32-.06-.4-1-1.44a4.64 4.64 0 0 1-1.57-3 1.6 1.6 0 0 1 1.6-1.56 2.25 2.25 0 0 1 .66.12v-1.03l.19-.82c.14-.66.21-.78.44-.78l.15.05.57.5.72.5.19.18a1.31 1.31 0 0 1 .41-.88 6.92 6.92 0 0 0 .44-.59l.32-.48.18-.28c.13-.19.18-.24.27-.24s.14.11.24.46a.89.89 0 0 0 .28.41l.41.35a2.22 2.22 0 0 1 .69 1.28 1.78 1.78 0 0 1 .63-.56l.51-.28a1.16 1.16 0 0 1 .33-.16s.09.07.14.19a4.23 4.23 0 0 0 .25.47c.41.65.44.75.44 1.19v.64a1.72 1.72 0 0 1 1.42 2 4.29 4.29 0 0 1-1.15 2.6c-.54.65-.63.85-.63 1.34 0 2.22 1.67 3.56 4.5 3.61h2.08a10.32 10.32 0 0 1 3.43.56 8.28 8.28 0 0 0 2.38.6c.31 0 .58-.18.58-.39 0-.46-.76-.81-3.3-1.53-5.19-1.46-7.4-3.56-7.4-7a4.84 4.84 0 0 1 5.09-4.71 10.75 10.75 0 0 1 3.12.54l1.3.47a1.85 1.85 0 0 0 .67.13c.45 0 .61-.28.68-1.11 0-.37.14-.53.38-.53s1 .52 1.44 1.16a4.16 4.16 0 0 1 .82 2.12 1.81 1.81 0 0 1-1.1 1.6 3.09 3.09 0 0 1-2.74 1.57 10.59 10.59 0 0 1-4.39-1.73 2.89 2.89 0 0 0-1.51-.57.82.82 0 0 0-.93.83c0 .45.34.73 1.27 1.06 1.49.53 1.81.71 2.24 1.23a6.37 6.37 0 0 1 3.31 1.32c2.87.92 4.47 2.7 4.47 5a3.34 3.34 0 0 1-3.35 3.56 6 6 0 0 1-1.54-.19M60.74 87.67a5 5 0 0 1 .4 1.49l.07 1.32q.07 2 1.32 2a1 1 0 0 0 .69-.22l.35-.35h.13c.23 0 .35.14.35.41v.51a7.41 7.41 0 0 0 .12 1.45 7.94 7.94 0 0 1 .1 1.27A3.42 3.42 0 0 1 64 97a6.25 6.25 0 0 1 .34 1.9 2.57 2.57 0 0 1-.37 1.53 4.49 4.49 0 0 1 .15 1.07 7.65 7.65 0 0 1-.12 1.2 6.13 6.13 0 0 0-.13 1.51v.08q0 .3-.18.3a.57.57 0 0 1-.39-.25c-.19-.25-.31-.34-.46-.34s-.28.12-.61 1.06a4.19 4.19 0 0 1-.75 1.17 2.58 2.58 0 0 0-.57.91 6.46 6.46 0 0 1-.19.66.24.24 0 0 1-.19.16c-.52 0-1.11-1.11-1.72-3.21-.17-.6-.39-.86-.71-.86a.63.63 0 0 0-.55.35l-.19.44a.19.19 0 0 1-.16.13c-.25 0-.64-.46-.88-1a4.11 4.11 0 0 1-.31-1.45c0-1 .73-1.72 2.93-3a2.43 2.43 0 0 0 1.32-2.45A2.37 2.37 0 0 0 59 94.76a2.47 2.47 0 0 0-1.41-.69.48.48 0 0 0-.53.45c0 .29.17.47.58.62s.7.34.7.56a3.09 3.09 0 0 1-.54 1.13 2.81 2.81 0 0 1-1 1 2.83 2.83 0 0 1-1.51 2 3.48 3.48 0 0 1-.63 1.17l-.66.84a2.73 2.73 0 0 0-.47 1c-.07.48-.12.57-.3.57s-.73-.41-1.23-1.04a1.59 1.59 0 0 1-.41-1 1.62 1.62 0 0 1-1.07.39 2.46 2.46 0 0 0-.84.21 2.4 2.4 0 0 1-.74.33c-.12 0-.17-.07-.18-.29v-.7a4.84 4.84 0 0 1 .95-2.8 3.17 3.17 0 0 0-1.55-.82c-.18 0-.23 0-.23-.11a1.22 1.22 0 0 1 .3-.58 4.4 4.4 0 0 1 .56-.63 3.14 3.14 0 0 1 1.83-.66 5.72 5.72 0 0 1 1.79.44 2.11 2.11 0 0 0 .75.16c.35 0 .55-.23.55-.62a8.67 8.67 0 0 0-.92-2.91 5.76 5.76 0 0 1-.63-2.08 3 3 0 0 1 1.16-2.55 1.3 1.3 0 0 0-.7-.18 1.84 1.84 0 0 0-1 .31c-.46.27-.72.51-.72.67s.1.16.25.28.29.23.29.46a3.59 3.59 0 0 1-1.54 2.49 2.78 2.78 0 0 1-1.7 2.24 3.1 3.1 0 0 1-.7 1.45A5.45 5.45 0 0 0 46.32 98c-.08.34-.16.48-.26.48s-.41-.21-.72-.55a5.36 5.36 0 0 1-.5-.59 2.81 2.81 0 0 1-.35-1 1.42 1.42 0 0 1-.45.08h-.77a3.88 3.88 0 0 0-1.8.39 1 1 0 0 1-.27.13c-.21 0-.37-.43-.37-1a5 5 0 0 1 1.05-3.1 5.39 5.39 0 0 1-.6-.57 1.07 1.07 0 0 0-.25-.22l-.35-.19c-.11-.06-.19-.14-.19-.21s.46-.6 1-1a2.82 2.82 0 0 1 1.51-.52c.51 0 .79.13 1.43.69.45.39.75.57 1 .57a.6.6 0 0 0 .45-.28.86.86 0 0 0 .16-.47 3.63 3.63 0 0 0-3.39-2.75 2.13 2.13 0 0 0-2 1.14l-.34.72c-.09.17-.19.26-.3.26s-.31-.09-1-.92l-.81-.94a2.36 2.36 0 0 1-.51-.82 1.82 1.82 0 0 0-.16-.41 1.5 1.5 0 0 0-.31-.25 4.11 4.11 0 0 1-1.35-2.62c0-.09 0-.23-.1-.4a5.23 5.23 0 0 1-1.23-3.14 1.37 1.37 0 0 1 .07-.42c-.45-.46-.5-.56-.85-1.77a4.3 4.3 0 0 0-.76-1.63.49.49 0 0 1-.12-.25c0-.17.26-.31.72-.38a3 3 0 0 1 .63-.07h.63v-.87a5.89 5.89 0 0 1 .14-1.39 3.78 3.78 0 0 0 .09-.66s0-.23-.06-.54a1.79 1.79 0 0 0-.1-.47 1 1 0 0 1-.06-.27c0-.1.06-.15.19-.15a1 1 0 0 1 .41.14 8 8 0 0 1 1.35.81 4.8 4.8 0 0 1 1.94 3v.25c0 .28-.06.43-.06.46a1 1 0 0 0 .22.51l.35.47a2.45 2.45 0 0 1 .5 1.24c0 .3-.06.42-.57 1.16a2.39 2.39 0 0 0-.53 1.4 4.35 4.35 0 0 0 .63 2c.37.65.8 1 1.21 1 .7 0 1-.63 1.12-2.3.06-.88.14-1.67.25-2.39v-.44c0-.19-.06-.31-.31-.61l-1-1.1c-.9-1-1.17-1.59-1.17-2.34a1.37 1.37 0 0 1 1.39-1.47h.38v-.23a3.24 3.24 0 0 1 .16-.86c.2-.67.44-1.19.57-1.19a.86.86 0 0 1 .31.15 3.77 3.77 0 0 0 .56.23 2.89 2.89 0 0 1 .63.31 2.69 2.69 0 0 1 .51-1.1c.41-.53.87-.95 1-.95s.28.14.51.38l.6.63a2.41 2.41 0 0 1 .35.6l.12.28.38-.22c.24-.14.41-.24.5-.28l.6-.28a.94.94 0 0 1 .32-.16c.11 0 .17.18.41 1.23a8.18 8.18 0 0 1 .3 1.38 1.57 1.57 0 0 1 1.47 1.8 4.71 4.71 0 0 1-1.57 3.17 1 1 0 0 0-.36.76c0 2.78 1 3.66 4.45 4a22.54 22.54 0 0 1 5.35 1.13 10.49 10.49 0 0 0 2.64.58c.59 0 .92-.22.92-.6 0-.58-.42-.77-2.93-1.3-5.83-1.23-8.12-3.22-8.12-7.06a4.68 4.68 0 0 1 4.79-4.81 7.66 7.66 0 0 1 4 1.36c1.58.92 1.9 1.07 2.27 1.07s.59-.27.59-1c0-.43.13-.65.41-.65a1.68 1.68 0 0 1 1 .66 2.55 2.55 0 0 1 .72 1.79 2.15 2.15 0 0 1-1.8 2.21l-.28.31a2.56 2.56 0 0 1-2.25 1 5.32 5.32 0 0 1-2.79-.91L56 75.84a2.81 2.81 0 0 0-1.58-.66 1 1 0 0 0-1 1 1.42 1.42 0 0 0 1.1 1.36l1.42.44a7.47 7.47 0 0 1 1.35.57 3.68 3.68 0 0 1 .71-.07 6 6 0 0 1 2.66.66 4.35 4.35 0 0 0 .57.26l.78.22a4.83 4.83 0 0 1 3.25 4.45 3.43 3.43 0 0 1-3.78 3.61ZM115.51 87.2a2.71 2.71 0 0 0 1.95 1.2 4 4 0 0 0 .85-.13 1.91 1.91 0 0 1 .42-.06c.15 0 .21.06.21.2a2 2 0 0 1-.16.59 3.34 3.34 0 0 0-.19.56l-.12.66-.32.57-.44.41-.13.13v.42a1.67 1.67 0 0 1-.85 1.62l-.22.16-.06.25a7.68 7.68 0 0 1-.31 1.1 5.68 5.68 0 0 1-.6.88 6.06 6.06 0 0 0-.79 1.29c-.13.32-.23.41-.43.41s-.62-.39-.67-.85a.89.89 0 0 1-.16.19l-.37.25-.6.42a3.38 3.38 0 0 0-.51.37l-.34.35a.3.3 0 0 1-.18.09c-.16 0-.33-.27-.49-.78l-.31-1a3.72 3.72 0 0 1-.13-1 2.21 2.21 0 0 1 .23-1.13 4 4 0 0 0-1.14.23 1.36 1.36 0 0 1-.27.06c-.11 0-.17-.07-.17-.2a2 2 0 0 1 .13-.46l.41-1.07a2.64 2.64 0 0 1 2.15-1.58 2.77 2.77 0 0 1 .81.16 1.57 1.57 0 0 0 .47.1.62.62 0 0 0 .66-.6.48.48 0 0 0-.25-.41s-.43-.14-1.14-.35a2.56 2.56 0 0 1-1.38-1c-.43-.49-.6-.64-.76-.64s-.19.08-.19.23v.61a5.93 5.93 0 0 1-.89 2.86l-.89 1.6a3.9 3.9 0 0 0-.6 1.92c0 .64.28 1.2.63 1.29l.48.13a.34.34 0 0 1 .15.09.27.27 0 0 1 .1.19.51.51 0 0 1-.16.28l-.57.73a2.72 2.72 0 0 1-1.54 1.17 3.06 3.06 0 0 1-2.11 1.82l-.12.22a2.57 2.57 0 0 1-1.74 1.26h-.12a2.44 2.44 0 0 1-1.1 1.61 7.55 7.55 0 0 0-.73.53 1.53 1.53 0 0 0-.15.28c-.15.32-.27.44-.45.44-.34 0-.62-.31-.81-.91l-.29.19-.59.41a6.72 6.72 0 0 1-1.11.31 3 3 0 0 0-1.6.79l-.28.47-.13.06c-.16 0-.34-.22-.41-.5a8 8 0 0 1-.29-1.77 3.83 3.83 0 0 1 1.52-3v-.27c0-1.74 1.33-2.92 3.28-2.92h.4l1.07.06h.1a2.58 2.58 0 0 0 1.69-.7c.77-.63 1-1 1-1.72a4.88 4.88 0 0 0-.3-1.27 5.34 5.34 0 0 1-.23-1.48 5.2 5.2 0 0 1 2.25-3.81c.33-.23.58-.53.58-.71s0-.13-.08-.13a.78.78 0 0 0-.41.24 3.49 3.49 0 0 1-.75.48l-.5.25-.57.22c-.18.07-.26.16-.26.28a.79.79 0 0 0 .07.29.7.7 0 0 1 .06.23.82.82 0 0 1-.16.36l-.44.73a2.61 2.61 0 0 1-1.29 1.25c-.35 1-.86 1.57-1.6 1.67-.6 1.2-1.12 1.62-2.18 1.74a3.74 3.74 0 0 1-.94 1.44 4.12 4.12 0 0 0-.41.51c-.24.44-.26.47-.38.47a1.49 1.49 0 0 1-.72-.47 2 2 0 0 1-.28-.38l-.32-.57c-.09-.16-.18-.23-.3-.23h-.2l-.69.09a2.2 2.2 0 0 0-1.26.72l-.38.57A.2.2 0 0 1 92 99c-.28 0-.46-.63-.46-1.66a3.27 3.27 0 0 1 .46-1.96l.89-1.22a.87.87 0 0 0 .18-.48.62.62 0 0 0-.15-.4 1 1 0 0 0-.51-.38l-.66-.1c-.12 0-.17 0-.17-.09a.41.41 0 0 1 .11-.22 3 3 0 0 1 .78-.69 3.46 3.46 0 0 1 1.82-.67 3.1 3.1 0 0 1 1.65.54l.91.6a.84.84 0 0 0 .44.13c.42 0 .74-.25 1-.82a3.06 3.06 0 0 0 .42-1.46 2 2 0 0 0-2-2 2.7 2.7 0 0 0-1.64.63 1.21 1.21 0 0 0-.32.35l-.25.57c-.06.13-.15.22-.22.22s-.52-.46-.82-1a8.64 8.64 0 0 1-.46-1.21 5.18 5.18 0 0 1-.27-1.58v-.85a3.15 3.15 0 0 1-.57-2 3.84 3.84 0 0 1 .22-1.1 2.39 2.39 0 0 1-.34-1.41v-.39l.09-.44.07-.38c-.31-.39-.4-.66-.7-2a4.15 4.15 0 0 0-.4-1.32.42.42 0 0 1-.1-.19c0-.19.44-.35.94-.35h.44a1.69 1.69 0 0 1-.13-.64 4 4 0 0 1 .23-1.26 2.25 2.25 0 0 0 .2-.77 2.78 2.78 0 0 0-.14-1l-.25-.63a1 1 0 0 1-.08-.32c0-.06 0-.09.16-.09a5.36 5.36 0 0 1 2.72 1.54 3.41 3.41 0 0 1 1.22 2.87v.69a2.8 2.8 0 0 1 1.23 2 1.66 1.66 0 0 1-.54 1.43 2.7 2.7 0 0 0-1 2.37c0 1.67.49 2.57 1.42 2.57s1.43-.88 1.54-2.17l.09-1.2a10.82 10.82 0 0 1 .16-1.13 6.12 6.12 0 0 0 .09-.82c0-.43-.27-.89-1.1-1.85a3.64 3.64 0 0 1-1.2-2.47 1.58 1.58 0 0 1 1.57-1.67 1.12 1.12 0 0 1 .62.17 2.86 2.86 0 0 1 .35-1.42c.24-.61.5-1 .62-1s.11 0 .19.13a4 4 0 0 0 .41.35l.32.22a2.39 2.39 0 0 1 .28.28 3 3 0 0 1 1-1.6c.45-.44.61-.57.7-.57a.35.35 0 0 1 .22.15l.38.51.53.6a1.61 1.61 0 0 1 .38 1l.32-.19.5-.28a2.67 2.67 0 0 0 .37-.25.38.38 0 0 1 .21-.1s.11.09.14.22l.19.73.41.82a1.58 1.58 0 0 1 .16.81v.19h.13c.62 0 1.15.73 1.15 1.58a4.52 4.52 0 0 1-2.06 3.33 2.78 2.78 0 0 0-.13.84c0 2.5.66 3 4.51 3.6a21.12 21.12 0 0 1 2.58.54c.12 0 1 .3 2.49.82a6.35 6.35 0 0 0 1.86.41c.47 0 .73-.14.73-.39 0-.42-.63-.81-2.56-1.57l-2.74-1.07c-2.78-1.08-4.1-2.78-4.1-5.29a5 5 0 0 1 5.11-5.1 10.48 10.48 0 0 1 3.71.79 9.23 9.23 0 0 0 2.31.76c.38 0 .59-.26.65-.82s.18-.66.44-.66.81.36 1.1.94a3.62 3.62 0 0 1 .41 1.64 1.8 1.8 0 0 1-1.54 1.92 3.06 3.06 0 0 1-2.53 1.3c-1.26 0-1.88-.24-4-1.58a2.7 2.7 0 0 0-1.65-.6 1.18 1.18 0 0 0-1.3 1.1c0 .57.46 1 1.51 1.23a1.63 1.63 0 0 1 1 .53 2 2 0 0 1 .53-.07 5.58 5.58 0 0 1 3.35 1.46 5.36 5.36 0 0 1 3.66 4.45 3.74 3.74 0 0 1-3.56 3.68 12.15 12.15 0 0 1-2.43-.39"/><path class="d" d="M63.25 42a3.65 3.65 0 0 1-.11-.76v-.25l.09-.5v-.41a1.54 1.54 0 0 0-.23-.94l-.37-.51a2.08 2.08 0 0 1-.32-.59.94.94 0 0 1-.06-.28.21.21 0 0 1 .22-.22c.09 0 .12 0 .41.18a.68.68 0 0 0 .31.11c.18 0 .29-.31.29-.84a1.89 1.89 0 0 0-.19-1.1l-.47-.53-.35-.36a.41.41 0 0 1-.17-.27.23.23 0 0 1 .26-.23 2.63 2.63 0 0 1 .69.16h.15c.13 0 .17-.08.17-.26v-.12l-.09-.66-.19-.62c-.07-.23-.1-.26-.24-.26H63l-.79.15h-.12a2.81 2.81 0 0 1-2.46-2l-.63-2A4.16 4.16 0 0 0 57.46 27a1.4 1.4 0 0 0-.63-.34l-.57-.06c-.1 0-.17-.08-.17-.16s.12-.19.39-.19l1 .09a7.85 7.85 0 0 1 1.7.45 6.81 6.81 0 0 0 2.12.46A2.21 2.21 0 0 0 63.85 25a4 4 0 0 0-1.29-2.78 2.8 2.8 0 0 0-1-.7.17.17 0 0 0-.16.17v.4c0 .16-.09.28-.22.28s-.34-.21-.54-.63a3 3 0 0 0-2.52-2c-.16 0-.28.07-.28.17a1.4 1.4 0 0 0 .16.45l.25.57a1.37 1.37 0 0 1 .1.29s-.06.07-.13.07a.9.9 0 0 1-.54-.3l-.47-.5-.41-.63a2.87 2.87 0 0 0-1.29-1.1l-.75-.41a.93.93 0 0 0-.4-.13c-.11 0-.16.06-.16.17a.71.71 0 0 0 .11.34 1.69 1.69 0 0 1 .33.63.18.18 0 0 1-.17.19c-.24 0-.75-.5-1.2-1.17a3.27 3.27 0 0 1-.56-1.77A2.27 2.27 0 0 1 55 14.27a4.9 4.9 0 0 1 2.37.78l1.48.92a3.86 3.86 0 0 0 1.72.56 4.69 4.69 0 0 0 .92-.15 1.45 1.45 0 0 0 .38-.16c.09 0 .15-.12.15-.18a.16.16 0 0 0-.02-.14l-.19-.06-.69-.13a3.8 3.8 0 0 1-.85-.31 13 13 0 0 1-1.57-.79 5.54 5.54 0 0 0-1-.59c-.26-.09-.42-.21-.42-.3a.13.13 0 0 1 .14-.14.67.67 0 0 1 .34.12 2.41 2.41 0 0 0 1.17.44l1.35.47a8.07 8.07 0 0 0 2.09.44 1 1 0 0 0 1-1 2.75 2.75 0 0 0-.55-1.38.32.32 0 0 0-.21-.16c-.13 0-.2.09-.2.25v.26l.05.37a.67.67 0 0 1-.62.73 1.83 1.83 0 0 1-.5-.09l-2-.67a10.65 10.65 0 0 0-3.37-.72 4 4 0 0 0-4.32 3.89c0 2.51 1.76 4.12 6.11 5.62s4.88 1.82 4.88 2.92a1.32 1.32 0 0 1-1.35 1.2 4.18 4.18 0 0 1-.76-.06l-2.14-.51a15.91 15.91 0 0 0-3.92-.44c-3.08 0-4.8.54-6.28 2a1 1 0 0 1-.92.41h-.77a1 1 0 0 0-.89.57l-.53.85a.45.45 0 0 1-.36.19c-.28 0-.45-.22-.77-1a2.66 2.66 0 0 0-.66-.94l-.63-.57a.41.41 0 0 1-.16-.24.54.54 0 0 1 .13-.29 2.75 2.75 0 0 0 .44-.82c.08-.42.09-.44.27-.44s.24.19.26.91a2.26 2.26 0 0 0 .25.85l.35.75a.3.3 0 0 0 .28.16c.33 0 .74-.76.85-1.57s.17-.88.31-.88a.16.16 0 0 1 .13.06s.13.24.29.57a1.28 1.28 0 0 0 .41.47 1.23 1.23 0 0 0 .37.22c.26 0 .34-.16.4-.76v-.31l-.06-.44v-.31c0-.2.07-.32.18-.32a.34.34 0 0 1 .24.13l.32.31a.88.88 0 0 0 .62.32c.26 0 .42-.11.42-.28s-.06-.3-.29-.74l-.22-.4c-.25-.47-.45-.67-.69-.67h-.32l-.37.16a1.09 1.09 0 0 1-.25.07c-.06 0-.1-.06-.1-.13a2.87 2.87 0 0 1 .53-1.28 6.12 6.12 0 0 0 .51-2.47c.1-1.65.32-2.71.55-2.71s.22.13.22.48v.74c0 .29.07.53.15.53.26 0 .58-.4.84-1.06a1.84 1.84 0 0 0 .16-.64v-.15L49 15.4l-.64-.19c-.11 0-.19-.08-.21-.14v-.77l-.07-.38-.08-.31-.16-.35a3.52 3.52 0 0 0-1.26 1c-.25.32-.39.45-.51.45a.17.17 0 0 1-.15-.17A2.93 2.93 0 0 1 46 14v-.19A2.18 2.18 0 0 0 44.93 12l-.19.25-.22.32-.37.44a1.84 1.84 0 0 0-.32.63 1.29 1.29 0 0 0-.06.36v.17c0 .25 0 .32-.14.32h-.08l-.22-.32-.33-.38-.53-.34-.29-.22c0 .12-.09.22-.12.28a1.66 1.66 0 0 0-.16.51V15.15c0 .27-.07.38-.23.38a1.11 1.11 0 0 1-.37-.16.94.94 0 0 0-.46-.13.78.78 0 0 0-.8.87 2.7 2.7 0 0 0 .51 1.65l.4.54c.11.14.32.26.33.19l.08-.67-.09-.53v-.24c0-.2.07-.33.19-.33s.28.2.39.73l.15 1.16.26 1.48a5.12 5.12 0 0 0 .38 1.26 5.86 5.86 0 0 0 .53 1.1c.35.45.39.51.39.61a.15.15 0 0 1-.14.15.79.79 0 0 1-.28-.1 1.88 1.88 0 0 0-.38-.13h-.25c-.5 0-.61.44-.61 2.54a12.78 12.78 0 0 0 .61 3.85l.66 1.63a2.05 2.05 0 0 1 .16.78c0 2.3-3 5.9-6.39 7.56a2.6 2.6 0 0 0-1.73 2.59v.41a3.9 3.9 0 0 1 1.07-.44c.93-.25 1.11-.37 1.25-.82l.13-.41c0-.16.13-.21.85-.6a1.28 1.28 0 0 0 .5-.41c.16-.26.29-.4.38-.4s.12 0 .12.09v.12l-.32.9v.22a1.72 1.72 0 0 0 1 1.56 2.83 2.83 0 0 1 .41-1.32l.57-.89a2.42 2.42 0 0 0 .29-1.34 5.54 5.54 0 0 0-.08-1v-.26a.22.22 0 0 1 .23-.25c.11 0 .19 0 .2.09l.13.6a.31.31 0 0 0 .31.22c.3 0 .69-.39 1.11-1.1a1.68 1.68 0 0 0 .23-.83l-.05-.43-.09-.47v-.09a.31.31 0 0 1 .28-.35c.07 0 .13 0 .14.06l.19.73a.48.48 0 0 0 .41.41c.21 0 .57-.37.78-.79a2.82 2.82 0 0 0 .29-1.29c0-.67.07-.86.31-.86.08 0 .15 0 .16.07l.13.41c0 .15.13.25.22.25s.48-.38.72-.79a.59.59 0 0 0 .1-.29c0-.13-.09-.27-.29-.43s-.35-.31-.35-.73a1.87 1.87 0 0 1 .35-1.09c.15-.27.29-.52.41-.76.4-.78.54-1 .69-1a.27.27 0 0 1 .23.28.68.68 0 0 1-.07.26 1.16 1.16 0 0 0-.13.37.23.23 0 0 0 .24.23 1.28 1.28 0 0 0 .55-.19c.09-.05.38-.16.88-.35l1-.37a1.7 1.7 0 0 1 .63-.1 2.69 2.69 0 0 1 .57.06 3.89 3.89 0 0 0 .72.13.55.55 0 0 0 .54-.53 2 2 0 0 0-.51-.95.63.63 0 0 1-.16-.28v-.13a.21.21 0 0 1 .17-.13c.21 0 .71.53 1.15 1.23 2.71 4.27 3.68 5.3 5.51 5.86s2.33 1 2.33 2.09a4.08 4.08 0 0 1-1 2.25c-1.37 1.92-1.7 2.69-1.7 4v.23l.35-.16a2.44 2.44 0 0 1 .5-.22l.79-.16a.67.67 0 0 0 .45-.64v-.08l-.1-.69v-.1a.92.92 0 0 1 .29-.66.27.27 0 0 1 .16-.06.31.31 0 0 1 .25.19l.5 1.07a1.86 1.86 0 0 0 1.1.94M37.88 19.21c-.23 0-.35.2-.38.63l-.06.6a6.09 6.09 0 0 0-.08.76c0 .45.14.78.32.78s.52-.38.68-.82a2.22 2.22 0 0 0 .13-.74 2.19 2.19 0 0 0-.13-.71c-.12-.32-.3-.5-.48-.5"/><path class="d" d="M35 14.3v.27a8.59 8.59 0 0 1-.41 2.06 2.53 2.53 0 0 0-.1.57 1.41 1.41 0 0 0 .25.72.88.88 0 0 0 .29.31l.38.19.06.44a2.19 2.19 0 0 0 .09.7 3.38 3.38 0 0 1 .13.94c0 .26 0 .37-.08.37s-.33-.33-.52-.81c-.3-.76-.57-1-1-1a2 2 0 0 0-1 .25l.19.25s.12.22.28.54l.44.85c.3.59.49.92.53 1a1.45 1.45 0 0 0 .45.44l.5.28c.15.08.26.2.26.29a.26.26 0 0 1-.27.25l-.41-.07h-.23c-.13 0-.18.11-.18.35a3.83 3.83 0 0 0 1.86 2.7.57.57 0 0 1 .25.33.22.22 0 0 1-.23.2 1.21 1.21 0 0 1-.4-.13.56.56 0 0 0-.22-.06c-.16 0-.26.13-.26.32a4.22 4.22 0 0 0 .57 1.41 2.24 2.24 0 0 0 1.07 1l1.42.6a.21.21 0 0 1 .13.19.23.23 0 0 1-.19.22h-1.01c-.19 0-.28 0-.28.14a3 3 0 0 0 .47 1c.34.56.63.88.81.88a.24.24 0 0 0 .2-.16l.34-.72a3.39 3.39 0 0 1 1.7-1l.57-.1a.25.25 0 0 0 .22-.29V30l-.09-.6-.07-.66-.06-.6-.06-.69c0-.18-.06-.26-.16-.26s-.2.1-.28.23c-.5.75-.84 1-1.37 1-1.68 0-3-2.95-3-6.85 0-.34 0-.78.07-1.3.08-1 .09-1.25.09-1.62a5 5 0 0 0-1.07-3.61l-.44-.44ZM39.05 37.31a3.55 3.55 0 0 1-.91-.22l-.6-.25a3.15 3.15 0 0 0-1.21-.32 1.92 1.92 0 0 0-1.31.54l.28.22.63.44.6.47a.85.85 0 0 0 .52.19 3 3 0 0 0 2-1.07M51.17 43a1.74 1.74 0 0 1 .63-.82c.88-.75 1.28-1.31 1.28-1.76v-.69c0-.41.07-.54.28-.54a.23.23 0 0 1 .2.09l.15.38a.29.29 0 0 0 .27.15c.12 0 .3-.15.46-.37l.31-.44a1 1 0 0 0 .23-.61.86.86 0 0 0-.07-.36c0-.07-.1-.24-.22-.51a1.56 1.56 0 0 1-.13-.49c0-.21.11-.33.28-.33a.29.29 0 0 1 .23.1l.25.31a.32.32 0 0 0 .24.11.45.45 0 0 0 .33-.26l.25-.51a.94.94 0 0 0 .1-.28c0-.1-.1-.2-.29-.29l-.41-.18a2.29 2.29 0 0 1-.95-2 1 1 0 0 1 .07-.35l.22-.53a1.36 1.36 0 0 0 .1-.51 1.78 1.78 0 0 0-.32-1c-.25-.39-.39-.61-.41-.66-.19-.5-.28-.64-.44-.64h-.16l-.22.13-.35.19-.4.5-.44.22a1.45 1.45 0 0 0-.52 1.16c0 .81.1 1 1.18 2.9a3.88 3.88 0 0 1 .63 1.8c0 1.29-1.15 2.21-3.47 2.77l-1.45.34a2.49 2.49 0 0 0-1.91 2.24 2.29 2.29 0 0 1 1.39-.26h.53c.43 0 .48 0 .75-.41a2.38 2.38 0 0 1 1-.87l.5-.23.41-.22h.13c.11 0 .17.05.17.13a1 1 0 0 1-.3.53 1.69 1.69 0 0 0-.5 1.22 1.15 1.15 0 0 0 .35.83"/><path class="d" d="M47.2 38.16a3.53 3.53 0 0 1 .94.85c.31.41.35.44.64.44a2.08 2.08 0 0 0 .46-.06l.29-.07c.52-.09.69-.17.69-.3a.36.36 0 0 0-.16-.26l-.34-.32-.35-.31a1.7 1.7 0 0 0-1-.35 2 2 0 0 0-1.14.38M57.4 39.86h.89a1.37 1.37 0 0 0 1.37-1.22c0-.22-.19-.34-.55-.34-.85 0-1.38.5-1.71 1.58M122 42a2 2 0 0 1-.1-.58v-.43a8.13 8.13 0 0 0 .1-1.22 1 1 0 0 0-.23-.63l-.38-.51a1.39 1.39 0 0 1-.34-.86c0-.18 0-.24.17-.24h.14l.29.16a.68.68 0 0 0 .31.11c.19 0 .29-.3.29-.89a1.7 1.7 0 0 0-.63-1.58l-.42-.33a.35.35 0 0 1-.12-.25.22.22 0 0 1 .23-.25 1.71 1.71 0 0 1 .37.06l.34.1h.14q.15 0 .15-.27v-.11l-.1-.66c-.1-.69-.21-.95-.41-.95h-.06l-.82.15h-.14a2.89 2.89 0 0 1-2.44-2l-.6-2a4.23 4.23 0 0 0-1.51-1.82 1.53 1.53 0 0 0-.66-.34l-.57-.06c-.1 0-.17-.08-.17-.16s.11-.19.34-.19a8.64 8.64 0 0 1 2.79.54 7.15 7.15 0 0 0 2.11.46c1.57 0 2.52-.83 2.52-2.19A4.2 4.2 0 0 0 122 23a5 5 0 0 0-1.48-1.38.48.48 0 0 0-.25-.1.16.16 0 0 0-.16.16v.41c0 .15-.1.28-.21.28s-.35-.21-.55-.63a3 3 0 0 0-2.48-2c-.21 0-.33.08-.33.21a.94.94 0 0 0 .16.41 3.37 3.37 0 0 1 .29.57.81.81 0 0 1 .07.27c0 .06 0 .09-.14.09a.91.91 0 0 1-.53-.3c-.32-.33-.47-.5-.47-.5l-.41-.63a3 3 0 0 0-1.26-1.1l-.79-.41a1 1 0 0 0-.4-.13c-.1 0-.15.05-.15.14a.71.71 0 0 0 .14.37 1.53 1.53 0 0 1 .29.62c0 .11-.07.2-.15.2s-.62-.4-1.17-1.17a3 3 0 0 1-.6-1.77 2.31 2.31 0 0 1 2.33-2.35 4.92 4.92 0 0 1 2.36.78l1.51.92a4 4 0 0 0 1.73.56 2.87 2.87 0 0 0 .88-.15 2.06 2.06 0 0 0 .41-.16.24.24 0 0 0 .12-.19c0-.12-.08-.17-.28-.19a8.69 8.69 0 0 1-3.11-1.23 7.4 7.4 0 0 0-1-.59c-.26-.09-.44-.23-.44-.34s.06-.07.14-.07h.19l1.37.5 1.32.47a8.29 8.29 0 0 0 2.11.44 1 1 0 0 0 1-1 2.1 2.1 0 0 0-.19-.88c-.2-.37-.45-.69-.55-.69s-.19.12-.19.34v.62c0 .43-.23.7-.59.7a1.83 1.83 0 0 1-.52-.09l-2-.67a10.24 10.24 0 0 0-3.35-.72 4 4 0 0 0-4.34 3.89c0 2.51 1.73 4.09 6.14 5.62s4.85 1.82 4.85 2.95a1.28 1.28 0 0 1-1.32 1.15 4 4 0 0 1-.74-.06l-2.14-.51a15.86 15.86 0 0 0-3.92-.44c-3.12 0-4.62.48-6.25 2a1.11 1.11 0 0 1-1 .41h-.71a1 1 0 0 0-.88.57l-.51.85a.41.41 0 0 1-.36.19c-.33 0-.5-.22-.8-1a2.5 2.5 0 0 0-.63-.94l-.67-.57a.35.35 0 0 1-.15-.23.62.62 0 0 1 .15-.3 3.18 3.18 0 0 0 .29-.45 1.53 1.53 0 0 0 .16-.37v-.28a.21.21 0 0 1 .22-.16c.21 0 .25.14.25.91a2.18 2.18 0 0 0 .25.85l.34.75a.31.31 0 0 0 .29.16c.33 0 .74-.76.85-1.57s.16-.88.3-.88.19.07.46.63a1.48 1.48 0 0 0 .37.47 1 1 0 0 0 .38.22c.27 0 .35-.16.41-.76v-.31l-.06-.44v-.31c0-.2.07-.32.18-.32a.34.34 0 0 1 .24.13l.31.31a.94.94 0 0 0 .64.32c.27 0 .43-.12.43-.31s0-.24-.31-.71c0 0-.1-.17-.22-.4-.28-.54-.41-.67-.66-.67h-.32l-.41.16a1.09 1.09 0 0 1-.25.07s-.09-.06-.09-.13a2.79 2.79 0 0 1 .53-1.28 7.15 7.15 0 0 0 .54-2.47l.15-1.48c.1-.91.2-1.23.38-1.23a.13.13 0 0 1 .13.06l.09.47v.38c0 .46.05.84.11.84s.33-.16.52-.43a2.08 2.08 0 0 0 .32-.63 3.05 3.05 0 0 0 .15-.82c0-.73-.3-1-1.28-1.32a.54.54 0 0 1-.2-.09v-.81l-.06-.38-.13-.31-.15-.35-.26.16a3.13 3.13 0 0 0-1 .79c-.29.36-.39.44-.51.44a.14.14 0 0 1-.15-.13l.12-.53v-.1A2.32 2.32 0 0 0 103.7 12l-.22.25-.22.32-.38.44a1.47 1.47 0 0 0-.35.93v.21c0 .25 0 .34-.15.34h-.07l-.25-.32-.32-.38-.57-.34-.28-.22a2.65 2.65 0 0 0-.31 1.57v.27c0 .28-.1.46-.25.46a1 1 0 0 1-.38-.16 1 1 0 0 0-.47-.13.84.84 0 0 0-.8.92 2.76 2.76 0 0 0 .51 1.6c.25.41.57.74.73.74a6 6 0 0 0 .09-.68l-.09-.53v-.24c0-.2.08-.33.19-.33s.29.2.4.73l.25 1.16.26 1.48a5.54 5.54 0 0 0 .37 1.26 6.35 6.35 0 0 0 .54 1.1c.34.45.38.51.38.61a.14.14 0 0 1-.13.15.73.73 0 0 1-.28-.1 1.88 1.88 0 0 0-.38-.13h-.23c-.52 0-.63.42-.63 2.51a12.58 12.58 0 0 0 .61 3.88l.66 1.67a2.27 2.27 0 0 1 .16.79c0 2.3-3.11 6-6.39 7.55-1.28.62-1.66 1.26-1.77 3a5.75 5.75 0 0 1 1.07-.47c.92-.27 1.12-.4 1.25-.82l.13-.41c0-.18.17-.27.82-.6a1.35 1.35 0 0 0 .5-.41c.17-.27.29-.4.37-.4a.14.14 0 0 1 .15.16l-.34.9v.22a1.73 1.73 0 0 0 1 1.56l.09-.38a3.11 3.11 0 0 1 .32-.94l.59-.89c.22-.32.26-.53.26-1.34V37.3c0-.16.08-.25.22-.25s.2 0 .21.09l.1.6a.29.29 0 0 0 .31.22c.3 0 .69-.38 1.11-1.1a1.47 1.47 0 0 0 .22-.75 7 7 0 0 0-.1-1V35a.23.23 0 0 1 .24-.25c.07 0 .14 0 .15.06l.22.73c.07.24.24.41.41.41.49 0 1-1 1-2.05 0-.66.11-.9.31-.9a.16.16 0 0 1 .16.08l.12.41c0 .15.14.25.23.25s.24-.14.44-.38a2.71 2.71 0 0 0 .28-.41.68.68 0 0 0 .09-.33c0-.15 0-.2-.28-.39a.8.8 0 0 1-.35-.66 4.12 4.12 0 0 1 .76-1.92c.51-.88.58-1 .7-1a.23.23 0 0 1 .21.26.71.71 0 0 1-.06.28 1.06 1.06 0 0 0-.13.37.24.24 0 0 0 .25.23 1.31 1.31 0 0 0 .57-.19 7.28 7.28 0 0 1 .85-.35l1.07-.37a2 2 0 0 1 .65-.1 2.64 2.64 0 0 1 .55.06 3.64 3.64 0 0 0 .72.13.5.5 0 0 0 .51-.5 1.46 1.46 0 0 0-.19-.54 3.35 3.35 0 0 0-.29-.44c-.14-.15-.19-.22-.19-.28v-.13a.21.21 0 0 1 .18-.13c.25 0 .74.51 1.18 1.23 2.47 4 3.66 5.31 5.48 5.86s2.33 1 2.33 2.1a4.08 4.08 0 0 1-1 2.24c-1.26 1.75-1.7 2.77-1.7 3.93v.26l.35-.16a2.22 2.22 0 0 1 .5-.22l.79-.16a.66.66 0 0 0 .44-.66v-.06l-.07-.69v-.11c0-.39.19-.71.43-.71a.31.31 0 0 1 .24.19l.5 1.07A1.86 1.86 0 0 0 122 42M96.18 20.44v.81c0 .51.08.73.27.73s.54-.39.68-.82a3.27 3.27 0 0 0 .17-.85 1.49 1.49 0 0 0-.17-.6c-.14-.34-.28-.5-.46-.5s-.4.34-.45 1.23"/><path class="d" d="M93.72 14.3v.27a6.12 6.12 0 0 1-.23 1.34c-.12.44-.18.68-.19.72a2.62 2.62 0 0 0-.06.57 1.18 1.18 0 0 0 .54 1l.34.19.06.44a2.24 2.24 0 0 0 .1.7 3.38 3.38 0 0 1 .13.94c0 .27 0 .37-.08.37s-.33-.33-.52-.81c-.3-.76-.58-1-1-1a2 2 0 0 0-1 .25 7.34 7.34 0 0 1 .91 1.64c.5 1.11.69 1.34 1.48 1.73.17.09.29.2.29.29a.26.26 0 0 1-.29.25 2.7 2.7 0 0 1-.44-.07h-.23c-.13 0-.18.11-.18.36a3.85 3.85 0 0 0 1.89 2.69c.15.11.25.23.25.31a.24.24 0 0 1-.1.16.27.27 0 0 1-.16.06 1 1 0 0 1-.37-.13.65.65 0 0 0-.23-.07c-.15 0-.25.15-.25.37a3.23 3.23 0 0 0 .62 1.34 2.62 2.62 0 0 0 1 1l1.42.6a.2.2 0 0 1 .12.18.25.25 0 0 1-.18.23H96.4c-.2 0-.28 0-.28.14a3.17 3.17 0 0 0 .47 1c.34.6.59.88.78.88a.23.23 0 0 0 .19-.16l.35-.72a3.28 3.28 0 0 1 .82-.64 2.42 2.42 0 0 1 .88-.34c.75-.1.82-.14.82-.45a3.2 3.2 0 0 0-.1-.62q0-.24-.09-.66l-.06-.6-.07-.69c0-.17 0-.26-.15-.26s-.17.09-.26.23a1.87 1.87 0 0 1-1.35 1c-1.76 0-3-2.8-3-6.92v-1.23l.1-1.48v-.53a4.92 4.92 0 0 0-1.08-3.22l-.37-.34ZM97.78 37.31a4.68 4.68 0 0 1-1.5-.47 2.9 2.9 0 0 0-1.19-.32 2 2 0 0 0-1.34.54l.29.22.63.44.6.47a.86.86 0 0 0 .53.19c.61 0 1.13-.28 2-1.07M109.9 43a1.88 1.88 0 0 1 .63-.82c.88-.75 1.29-1.31 1.29-1.76v-.69c0-.41.07-.54.28-.54a.24.24 0 0 1 .2.09l.15.38a.28.28 0 0 0 .27.14c.22 0 .39-.16.77-.8a1.13 1.13 0 0 0 .23-.62.87.87 0 0 0-.07-.35c0-.06-.1-.23-.22-.51a1.56 1.56 0 0 1-.13-.49c0-.21.1-.33.28-.33a.29.29 0 0 1 .23.1l.25.31c.06.07.07.11.17.11a.56.56 0 0 0 .4-.26l.24-.51a.7.7 0 0 0 .1-.29c0-.1-.1-.21-.25-.28l-.44-.18a2.24 2.24 0 0 1-1-2 1.56 1.56 0 0 1 .1-.41l.19-.53a1.64 1.64 0 0 0 .09-.53 1.74 1.74 0 0 0-.31-1 6.66 6.66 0 0 1-.38-.66c-.18-.47-.29-.62-.45-.62a.71.71 0 0 0-.4.15l-.31.19-.45.5-.44.22a1.51 1.51 0 0 0-.51 1.18c0 .68.15 1 1.17 2.88a4 4 0 0 1 .64 1.79c0 1.28-1.3 2.34-3.44 2.78-2.55.52-3.1.94-3.4 2.58a2.35 2.35 0 0 1 1.4-.26h.53c.42 0 .48 0 .75-.41a2.38 2.38 0 0 1 1-.87l.5-.23.41-.22h.13c.11 0 .17.05.17.13a1.07 1.07 0 0 1-.3.53 1.85 1.85 0 0 0-.48 1 1.54 1.54 0 0 0 .32 1"/><path class="d" d="M105.94 38.16a3.53 3.53 0 0 1 .94.85c.3.41.35.44.64.44a2.15 2.15 0 0 0 .46-.06l.29-.07c.53-.1.7-.17.7-.32a.32.32 0 0 0-.14-.24l-.37-.32-.35-.31a1.63 1.63 0 0 0-1-.35 2.14 2.14 0 0 0-1.18.38M116.14 39.86h.92a1 1 0 0 0 .62-.14 2.71 2.71 0 0 0 .6-.72.76.76 0 0 0 .12-.36c0-.21-.19-.34-.54-.34-.86 0-1.39.49-1.72 1.58M60.2 106.37l.19-.38.44-.47a2.34 2.34 0 0 0 .57-1.63 3.32 3.32 0 0 0-.16-1 2.64 2.64 0 0 1-.13-.56c0-.2.15-.39.3-.39a.41.41 0 0 1 .24.16l.47.53a1.07 1.07 0 0 0 .75.48v-.96a3.67 3.67 0 0 0-.7-2.13c-.25-.32-.36-.51-.36-.63s.08-.22.17-.22a.28.28 0 0 1 .13.07c.31.22.46.31.54.31s.3-.37.3-.79a3 3 0 0 0-.58-1.76l-.37-.48a.32.32 0 0 1-.06-.18.24.24 0 0 1 .27-.23.63.63 0 0 1 .39.16.51.51 0 0 0 .24.09c.25 0 .34-.34.34-1.28V94.13c0-.67-.1-.79-.38-.79h-.3c-1.54 0-2.25-1-2.65-3.59-.28-1.89-1-3.23-1.85-3.52-.52-.18-.71-.29-.71-.43s.15-.17.3-.17a2.35 2.35 0 0 1 .6.15 8.72 8.72 0 0 0 3.23.76 2.59 2.59 0 0 0 2.7-2.54 4.32 4.32 0 0 0-1.43-3 2 2 0 0 0-.79-.47h-.06l-.16.05.06.46.13.32v.13c0 .07-.06.12-.15.12a.28.28 0 0 1-.23-.13l-.49-.89a3 3 0 0 0-2.17-1.23c-.26 0-.42.11-.42.3a.7.7 0 0 0 .19.36 1 1 0 0 1 .29.51v.12c0 .08-.07.12-.12.13-.15 0-.23-.07-.92-.85a4 4 0 0 0-2.31-1.26.34.34 0 0 0-.24.09.22.22 0 0 0-.06.13.58.58 0 0 0 .22.35 1 1 0 0 1 .35.48c0 .06-.08.12-.17.12s-.59-.26-1.34-.85a3.57 3.57 0 0 1-1.7-2.81 2.06 2.06 0 0 1 2-2.17 3.86 3.86 0 0 1 2.11.76l1.54 1.16a4.12 4.12 0 0 0 2.48.82 1.19 1.19 0 0 0 .54-.12c.14-.07.23-.16.23-.22s-.12-.09-.29-.13a3.61 3.61 0 0 1-1.32-.57l-1.57-1.19a10.51 10.51 0 0 0-1.32-.85c-.84-.44-1-.54-1-.64s.08-.09.17-.09a.61.61 0 0 1 .28.07l.82.34a8.7 8.7 0 0 1 1.32.79c1.69 1.13 2.54 1.49 3.53 1.49a1.56 1.56 0 0 0 1.64-1.58 1.3 1.3 0 0 0-.13-.54l-.16-.32c0-.11-.16-.19-.19-.15l-.09.12-.09.66a2.12 2.12 0 0 1-.1.18 1.13 1.13 0 0 1-.22.32.71.71 0 0 1-.58.22c-.48 0-1-.26-2.5-1.2a7.8 7.8 0 0 0-3.91-1.44 4.08 4.08 0 0 0-4.12 4.1c0 3.15 1.92 4.58 8 5.89 2.3.5 3.31 1.17 3.31 2.2s-.76 1.52-1.95 1.52a4.65 4.65 0 0 1-.85-.06c-.21 0-1.29-.34-3.25-.89a16.49 16.49 0 0 0-4.2-.59c-2.37 0-4 .71-5 2.23-.13.18-.25.29-.34.29a.56.56 0 0 1-.26-.13l-.44-.35a2.15 2.15 0 0 0-1.13-.43.93.93 0 0 0-.66.28c-.16.14-.27.22-.32.22s-.5-.4-.75-.92a5.05 5.05 0 0 1-.54-2.14c0-.31.1-.54.24-.54s.19.09.23.26l.26.91c.14.51.42.91.64.91s.26-.13.46-.38a1.37 1.37 0 0 0 .25-.43c.2-.58.25-.67.4-.67s.28.12.4.7a2.33 2.33 0 0 0 .2.53 2.8 2.8 0 0 0 .39.57.45.45 0 0 0 .32.16c.28 0 .53-.46.53-1v-.72c0-.23 0-.29.16-.29s.13 0 .22.15a1.71 1.71 0 0 0 .54.44 1 1 0 0 0 .45.16.49.49 0 0 0 .3-.16.39.39 0 0 0 .13-.24c0-.1-.11-.24-.44-.58a3.81 3.81 0 0 1-.63-1.26c-.09-.24-.21-.41-.3-.41l-.21.07-.4.15-.29.13h-.11a.23.23 0 0 1-.24-.21c0-.13.29-.47.64-.75a1.18 1.18 0 0 0 .4-.85c0-.53.12-1 .22-1l.1-1.1a11 11 0 0 1 .47-2.17c0-.11.09-.19.12-.19s.17.23.17.5v.48c0 .4.06.6.19.6s.28-.19.42-.54l.28-.73a1.5 1.5 0 0 0 .13-.58 1 1 0 0 0-.87-1.06h-.23l-.23.06a.36.36 0 0 1-.3-.39v-1.09l-.3-.5v-.31l-.28.15-.35.29-.5.41-.41.34a.37.37 0 0 1-.23.1c-.24 0-.27-.07-.27-.56v-.12c0-.4-.17-.71-.82-1.46a1.59 1.59 0 0 0-.16-.19l-.12.22-.35.57-.35.88-.06.56c0 .17-.08.29-.14.29s-.17-.08-.3-.22a2.44 2.44 0 0 0-1.35-.92l-.06.22A6 6 0 0 0 42 73v1c0 .17-.06.27-.16.27s-.08-.05-.19-.15a.64.64 0 0 0-.38-.1c-.59 0-1 .32-1 .82s.13.66.71 1.55c.25.38.55.69.67.69s.14-.2.14-.45l-.06-.37a1.59 1.59 0 0 1-.09-.48c0-.18.06-.28.15-.28.28 0 .58.82.7 2l.12 1.16A4.13 4.13 0 0 0 43 79.9a3.13 3.13 0 0 0 .82 1.16c.3.22.49.42.49.54a.19.19 0 0 1-.17.19l-.63-.22h-.27c-.63 0-.84.37-.84 1.45a6 6 0 0 0 1.86 4l1.45 1.16a3.43 3.43 0 0 1 1.29 2.2c0 .92-1 1.83-2.74 2.46l-1 .37c-.8.3-1.13.82-1.44 2.33a2.73 2.73 0 0 1 .86-.16h.61a.66.66 0 0 0 .73-.61v-.27c0-.08.11-.2.28-.28l.44-.22.35-.28a.25.25 0 0 1 .17-.07.19.19 0 0 1 .18.19.93.93 0 0 1-.07.29 3.06 3.06 0 0 0-.17 1.08 2.66 2.66 0 0 0 .49 1.79 1.85 1.85 0 0 1 .09-.41 6.16 6.16 0 0 1 .54-.85 4.17 4.17 0 0 0 .83-1.91v-.14l-.1-.72a.48.48 0 0 1 .16-.35.35.35 0 0 1 .21-.09c.14 0 .22.08.33.31s.16.29.22.29.33-.29.47-.63a1.86 1.86 0 0 0 .15-.67 1.13 1.13 0 0 0-.09-.4 1.24 1.24 0 0 1-.1-.36c0-.08 0-.12.13-.21a.27.27 0 0 1 .16-.06.35.35 0 0 1 .19.06l.28.19a.45.45 0 0 0 .25.1.65.65 0 0 0 .44-.35 2.59 2.59 0 0 0 .45-.9c0-.08 0-.14-.22-.27a2.27 2.27 0 0 1-1-1.68 1.47 1.47 0 0 1 .1-.46l.31-.85c.16-.42.25-.65.26-.66h.09c.11 0 .17.09.17.24a1.34 1.34 0 0 1-.07.36 2 2 0 0 0-.14.6.3.3 0 0 0 .33.34 1.39 1.39 0 0 0 .53-.12 6.38 6.38 0 0 1 2.16-.63 1.71 1.71 0 0 1 1.14.41.63.63 0 0 0 .29.13.27.27 0 0 0 .19-.13.29.29 0 0 0 .06-.16.71.71 0 0 0-.19-.41.74.74 0 0 1-.31-.51.16.16 0 0 1 .17-.17c.49 0 1.27 1.57 2 4 .58 2 .75 2.16 2.61 3.21C60.4 94.08 61 95 61 96.4a18.29 18.29 0 0 1-1.2 5.6 5.28 5.28 0 0 0-.37 1.68 5.21 5.21 0 0 0 .31 1.5c.11.4.19.64.22.72a3.29 3.29 0 0 0 .25.47"/><path class="d" d="M52.9 102a4.78 4.78 0 0 1 .6-1.07 3.12 3.12 0 0 0 .69-1.55v-.5c0-.48.08-.69.27-.69a.2.2 0 0 1 .17.09l.15.25a.28.28 0 0 0 .23.13.62.62 0 0 0 .35-.26 2.22 2.22 0 0 0 .37-1.13v-.7c0-.19.08-.27.25-.27s.18 0 .28.28.17.25.24.25a.36.36 0 0 0 .27-.19l.25-.37.19-.29v-.15c0-.08-.07-.17-.23-.29a2.54 2.54 0 0 1-.88-2.23 10.63 10.63 0 0 0-.16-1.73c0-.06-.21-.51-.57-1.36a8.29 8.29 0 0 1-.37-1.16c-.07-.29-.16-.38-.39-.38a1.57 1.57 0 0 0-1.5 1.7 7.71 7.71 0 0 0 .67 2.55 7.51 7.51 0 0 1 .76 2.61c0 1.16-.46 1.66-2 2.24a3.91 3.91 0 0 0-3 3.24l.31-.12a2.49 2.49 0 0 1 .44-.16l.51-.13a1.14 1.14 0 0 0 .84-.6l.13-.44a.34.34 0 0 1 .19-.22l.28-.12.29-.13.06.13-.13.41a3 3 0 0 0-.06.73 2.24 2.24 0 0 0 .54 1.6M36 72.85a1.46 1.46 0 0 1 .07.35 5.76 5.76 0 0 1-.13.81l-.06.64a5 5 0 0 0 .28 1.66 2.47 2.47 0 0 1 .2.72v.13c0 .13-.08.23-.12.23a.71.71 0 0 1-.32-.2 1.78 1.78 0 0 0-1.16-.47 3.15 3.15 0 0 0-.54.06l.16.35.47 1.16.66 1 .69.47a.85.85 0 0 1 .19.19.48.48 0 0 1 .1.21c0 .06-.06.1-.13.11h-.63c-.1 0-.17.06-.17.13a5 5 0 0 0 .26.94l.32.91.54.51.56.4a.54.54 0 0 1 .27.37.17.17 0 0 1-.11.17h-.32c-.1 0-.16.1-.16.25a2.71 2.71 0 0 0 .64 1.23c.48.66.82.88 1.38.88h.47c.23 0 .37.11.37.29s-.1.23-.31.28c-.43.09-.56.18-.56.38a.63.63 0 0 0 .16.34l.25.35c.21.29.44.47.6.47a.78.78 0 0 0 .46-.28 1.93 1.93 0 0 1 1-.69c1.09-.28 1.32-.39 1.32-.65a.72.72 0 0 0-.13-.36 2.89 2.89 0 0 1-.47-1.54c0-.39-.1-.67-.24-.67s-.16.1-.26.25a1.39 1.39 0 0 1-1.11.67c-1.09 0-2.4-1.71-3.05-4a6.29 6.29 0 0 1-.23-1.7 9 9 0 0 1 .23-1.92c.21-.92.32-1.44.35-1.54v-.43A3.73 3.73 0 0 0 36 72.85"/><path class="d" d="M38.26 77.22a5.57 5.57 0 0 0-.45 2c0 .37.12.66.28.66s.12-.06.17-.16l.35-.63c.06-.1.11-.21.22-.38a1.24 1.24 0 0 0 .22-.47 1.41 1.41 0 0 0-.79-1.07M41.72 91.42l.16.16c.14.13.22.22.25.25.62.63.71.7 1 .7a3.43 3.43 0 0 0 1.17-.32c.14-.07.22-.16.22-.22s-.11-.17-.31-.35l-.35-.32a1.81 1.81 0 0 0-.83-.45 2.42 2.42 0 0 0-1.31.55M49 97.12a3.49 3.49 0 0 1 .62.31c.29.19.46.3.51.32a1.41 1.41 0 0 0 .5.06 1.12 1.12 0 0 0 .38-.06l.66-.26.63-.21c.17-.06.29-.16.29-.25s-.15-.11-.35-.16a4.38 4.38 0 0 1-.47-.16c-.78-.31-.89-.36-1.17-.36a2.09 2.09 0 0 0-1.6.77M57 103.44c.21-.5.36-.59 1.07-.62s1.58-1.5 1.58-2.48c0-.1 0-.18-.08-.18a.52.52 0 0 0-.21.11l-.47.28-.89.45a2.15 2.15 0 0 0-1.14 1.72 2.07 2.07 0 0 0 .17.76M114.37 95.92l.13-.35.13-.44a2.46 2.46 0 0 1 .34-.53 2.53 2.53 0 0 0 .48-1.57 1.35 1.35 0 0 0-.16-.6.7.7 0 0 1-.1-.29.23.23 0 0 1 .07-.15.21.21 0 0 1 .12-.1.57.57 0 0 1 .33.22c.13.16.25.25.32.25s.29-.23.37-.6c0-.18.06-.29.06-.31a2.83 2.83 0 0 0-.28-.88.78.78 0 0 1-.09-.32.18.18 0 0 1 .17-.2.78.78 0 0 1 .42.27.41.41 0 0 0 .24.13c.2 0 .34-.21.49-.7a2.57 2.57 0 0 0 .12-.49c0-.09 0-.15-.11-.15h-.48a2.65 2.65 0 0 1-1.77-.86l-.88-1.07c-.34-.41-.81-1-.79-1l-.72-.48a.33.33 0 0 1-.19-.26c0-.11.12-.19.3-.19a7.28 7.28 0 0 1 1.62.58 10 10 0 0 0 3.19.69 2.73 2.73 0 0 0 2.75-2.69 4 4 0 0 0-1.25-2.59 1.1 1.1 0 0 0-.58-.39.17.17 0 0 0-.17.18 1 1 0 0 0 .09.36.79.79 0 0 1 .06.29c0 .14-.05.22-.15.22s-.4-.32-.57-.89a2.55 2.55 0 0 0-1.57-1.6 3.5 3.5 0 0 0-1-.36.13.13 0 0 0-.11.14.75.75 0 0 0 .13.38 1.39 1.39 0 0 1 .25.59c0 .12-.06.19-.17.19s-.25-.05-.71-.75a3.57 3.57 0 0 0-1.42-1.07 1.42 1.42 0 0 0-.53-.13c-.12 0-.2 0-.2.12a1.23 1.23 0 0 0 .14.29v.18a.16.16 0 0 1-.14.17 3.37 3.37 0 0 1-1.24-1 3.16 3.16 0 0 1-.82-1.89A2.44 2.44 0 0 1 113 74a1.83 1.83 0 0 1 .8.16l1.1.57 1.3.85a5.1 5.1 0 0 0 2.38.85 3.56 3.56 0 0 0 1-.19c.3-.08.5-.21.5-.32l-.11-.06-.69-.06a6.09 6.09 0 0 1-2-.88l-1.45-1-1.29-.53c-.1 0-.16-.11-.16-.17a.14.14 0 0 1 .15-.12l.35.06 1.2.35a9.28 9.28 0 0 1 1.45.66 6.7 6.7 0 0 0 2.8 1 1.18 1.18 0 0 0 1.26-1.18 4.56 4.56 0 0 0-.12-.9 1.69 1.69 0 0 0-.19-.41c-.06-.08-.12-.12-.16-.12s-.14.09-.14.26v.39c0 .58-.23.79-.87.79a8.78 8.78 0 0 1-2.83-.85 9 9 0 0 0-3.37-.81 4.41 4.41 0 0 0-4.45 4.14c0 1.9 1.27 3.36 3.85 4.42l2.68 1.1c2.21.91 3 1.56 3 2.42s-.67 1.18-1.71 1.18a7 7 0 0 1-2-.45 18.54 18.54 0 0 0-5.57-1.13 6.76 6.76 0 0 0-5.32 2c-.18.19-.28.24-.44.24a1 1 0 0 1-.45-.17 1.4 1.4 0 0 0-.69-.23 1.18 1.18 0 0 0-.75.41l-.32.41a.4.4 0 0 1-.28.19c-.23 0-.63-.39-.88-.85a2.72 2.72 0 0 1-.32-.82 4.79 4.79 0 0 1-.07-.86v-.58l.09-.63c0-.31.08-.48.1-.54a.16.16 0 0 1 .15-.13c.16 0 .24.16.24.5v.34c0 .89.36 1.71.75 1.71s.57-.54.8-1.63c0-.22.13-.35.24-.35s.2.16.29.63a2.68 2.68 0 0 0 .48 1 .52.52 0 0 0 .36.25c.25 0 .42-.39.55-1.29 0-.35.16-.57.27-.57a.17.17 0 0 1 .14.07s.09.14.22.34a1 1 0 0 0 .71.44.46.46 0 0 0 .3-.12c.14-.13.21-.22.21-.26a.6.6 0 0 0-.18-.28 2.92 2.92 0 0 1-.57-1c-.13-.34-.23-.58-.28-.72a.41.41 0 0 0-.16-.22h-.28l-.66.19h-.21a.14.14 0 0 1-.15-.15c0-.09.12-.24.26-.35a4.62 4.62 0 0 0 1.45-3.25A3.34 3.34 0 0 1 106 76c.09-.11.15-.18.19-.18s.19.09.19.28a1.18 1.18 0 0 1-.1.44 1.23 1.23 0 0 0-.07.39V77l.06.19.35-.12.38-.44a2.38 2.38 0 0 0 .41-1.29 1.1 1.1 0 0 0-.25-.73c-.2-.23-.34-.33-.48-.33h-.44q-.3 0-.3-.18v-.59l-.19-.78-.16-.38-.09-.32-.22.16-.47.29a1.28 1.28 0 0 0-.38.34c-.45.54-.48.57-.65.57s-.18 0-.18-.12v-.14a3.56 3.56 0 0 0 .1-.65 2.93 2.93 0 0 0-.89-1.83 2.85 2.85 0 0 0-1 2v.38c0 .14 0 .22-.15.22a.4.4 0 0 1-.22-.16l-.38-.5a4 4 0 0 0-.5-.41l-.25-.22-.13.25a3.35 3.35 0 0 0-.44 1.51c0 .42 0 .54-.15.54a.4.4 0 0 1-.2-.07C99 74 98.93 74 98.72 74a.93.93 0 0 0-1 1 2.45 2.45 0 0 0 .39 1c.29.52.73 1 .91 1s.07 0 .07-.19V76.2l-.07-.4v-.06c0-.12 0-.18.14-.18.29 0 .53.84.75 2.5a4.9 4.9 0 0 0 1.22 3.06c.16.15.26.27.26.34a.12.12 0 0 1-.13.1 1 1 0 0 1-.41-.16.63.63 0 0 0-.34-.1.89.89 0 0 0-.73.76l-.28 1.79-.22 2.52a6.28 6.28 0 0 0 .19 1.89 8.37 8.37 0 0 1 .21 1.49 4.06 4.06 0 0 1-3.11 4l-2 .59a2.78 2.78 0 0 0-2 2.74 1.44 1.44 0 0 1 .91-.38l.6-.09a1.38 1.38 0 0 0 .53-.16 1.91 1.91 0 0 0 .35-.34l.54-.6c.2-.23.38-.36.49-.36s.14.09.14.19a1.17 1.17 0 0 1-.23.52 1.47 1.47 0 0 0-.22.81 1.91 1.91 0 0 0 .51 1.23 3 3 0 0 1 .12-.38 5.51 5.51 0 0 1 .48-.66 3.44 3.44 0 0 0 .75-1.41c0-.49 0-.65.18-.65s.12 0 .17.3a.37.37 0 0 0 .09.19.35.35 0 0 0 .19.13.72.72 0 0 0 .25-.13 2.61 2.61 0 0 0 .51-.44 2.39 2.39 0 0 0 .31-.57 1.79 1.79 0 0 0 .16-.59v-.41c0-.11 0-.19.1-.19s.23.16.34.34.11.16.2.16a.46.46 0 0 0 .28-.13 1.82 1.82 0 0 0 .63-1.18v-.58l-.13-.47a.17.17 0 0 1 .15-.17c.15 0 .3.2.51.66.11.22.2.32.29.32s.27-.11.56-.54l.29-.41a.57.57 0 0 0 .09-.32.56.56 0 0 0-.09-.31l-.25-.38a.52.52 0 0 1-.07-.32 3.1 3.1 0 0 1 .48-1.47c.23-.41.36-.68.41-.79s.1-.19.17-.19.11.08.11.16v.85c0 .12.12.16.27.16a.85.85 0 0 0 .33-.07l.78-.28a5 5 0 0 0 .73-.35 4.21 4.21 0 0 1 2.22-.82 3.88 3.88 0 0 1 1.49.44.75.75 0 0 0 .33.1.37.37 0 0 0 .27-.16.35.35 0 0 0 .09-.23.83.83 0 0 0-.12-.4 1.26 1.26 0 0 1-.19-.46.13.13 0 0 1 .14-.14.36.36 0 0 1 .24.16l.72 1.26a3.77 3.77 0 0 0 2 1.92l1.39.32c.43.09.54.26.54.8a2.73 2.73 0 0 1-1.26 2.34l-1.14.73a2.09 2.09 0 0 0-.75 1.59 8.27 8.27 0 0 0 .22 1.62l.22-.22.53-.32.48-.47.25-.69.25-.63c.12-.31.27-.51.36-.51s.18.18.18.48v.21a2.4 2.4 0 0 0 .41 1.33"/><path class="d" d="M95.77 105.46c.38-.36.45-.38 1.51-.6a1.62 1.62 0 0 0 1.45-1.42 1.23 1.23 0 0 1 .79-1.07 1.54 1.54 0 0 0 .4-.31c.07-.08.13-.13.16-.13a.13.13 0 0 1 .11.14 1.36 1.36 0 0 1-.2.53 1.11 1.11 0 0 0-.13.6 2 2 0 0 0 .38 1.25 1.76 1.76 0 0 1 .79-.88 2.43 2.43 0 0 0 1-2.08c0-.48.14-.73.27-.73a.15.15 0 0 1 .14.1l.22.47a.21.21 0 0 0 .2.11.84.84 0 0 0 .4-.23l.44-.41a2.27 2.27 0 0 0 .38-1.32c0-.26.11-.44.22-.44a.2.2 0 0 1 .16.15l.18.63c0 .15.14.26.23.26a.66.66 0 0 0 .25-.16 3.19 3.19 0 0 0 .44-.47 1.12 1.12 0 0 0 .22-.63v-.54a.54.54 0 0 1 .12-.34c.07-.08.12-.13.14-.13a.21.21 0 0 1 .18.16l.12.34a.34.34 0 0 0 .3.25c.17 0 .33-.14.59-.5l.18-.25a.76.76 0 0 0 .23-.4.62.62 0 0 0-.13-.23 3.44 3.44 0 0 1-.7-2.14c0-1 .41-1.93 1.61-3.56a4.91 4.91 0 0 0 1.11-2.48c0-.18-.09-.27-.25-.27a.72.72 0 0 0-.38.12.72.72 0 0 1-.24.09.29.29 0 0 1-.21-.13l-.21-.25-.16-.25a.33.33 0 0 0-.26-.16l-.25.07h-.28c-.33 0-.45.13-.45.44V89a1.58 1.58 0 0 1-.57 1l-.59.54a3.85 3.85 0 0 0-1.31 2.41 5.13 5.13 0 0 0 .27 1.36A6.94 6.94 0 0 1 105 96c0 1.51-2.31 3.5-6.58 5.67-2.17 1.1-2.72 1.76-2.72 3.25ZM93.69 72.44v.78a2.12 2.12 0 0 1-.07.51 3.76 3.76 0 0 0-.13.71 2.56 2.56 0 0 0 .45 1.56 2.33 2.33 0 0 1 .32 1c0 .13 0 .2-.13.2a.19.19 0 0 1-.15-.09l-.26-.35c-.2-.27-.39-.35-.9-.35h-.54a5.86 5.86 0 0 1 .37 1.1c.26 1 .3 1.1.85 1.6s.62.58.62.76a.24.24 0 0 1-.22.25H93.57c-.17 0-.33.31-.33.66a2.28 2.28 0 0 0 .2.8 1.65 1.65 0 0 0 .22.38l.32.31a.45.45 0 0 1 .12.32c0 .16-.08.29-.19.29a.79.79 0 0 1-.28-.1.4.4 0 0 0-.22-.07c-.14 0-.21.09-.21.26v.47l.19.81a1.36 1.36 0 0 0 .35.6 1.4 1.4 0 0 0 .47.38l.63.28a.32.32 0 0 1 .09.25.22.22 0 0 1-.2.23 1.71 1.71 0 0 1-.33-.07h-.32c-.32 0-.34 0-.34.27a2.18 2.18 0 0 0 .06.49l.13.5c.13.53.3.82.49.82a.62.62 0 0 0 .23-.13 3.85 3.85 0 0 1 1.94-.66 6.09 6.09 0 0 1 1.52.16 1.11 1.11 0 0 0 .31.07c.07 0 .1-.07.1-.35l.06-.57.13-1 .09-.72v-.4l-.25.22a1.82 1.82 0 0 1-1.42.66c-1.45 0-2.28-1.62-2.28-4.47a30.62 30.62 0 0 1 .49-4.72 5.43 5.43 0 0 0 .1-.87 3.44 3.44 0 0 0-1.8-2.78"/><path class="d" d="m95.83 79.49.29-.28.28-.21a1.46 1.46 0 0 0 .42-1 1 1 0 0 0-.11-.45c-.11-.24-.31-.45-.44-.45s-.21.26-.25.67l-.06.47-.1.47v.48ZM93.06 92.36c.32.12.39.18.73.57a1.34 1.34 0 0 0 1.25.63 1.63 1.63 0 0 0 .45-.06l.41-.13.31-.09c.15 0 .26-.11.26-.16s-.26-.28-.64-.54a7.31 7.31 0 0 0-.75-.44 1.65 1.65 0 0 0-.72-.19 2.4 2.4 0 0 0-1.3.41M97.34 101.59a12.07 12.07 0 0 0 1.39-.7l.91-.5c.58-.31.85-.53.85-.69s-.35-.33-1-.33a2.07 2.07 0 0 0-2.22 1.86ZM110.12 93.59c.45-.09.6-.21.82-.22h.57a1.87 1.87 0 0 0 .38-.25c.1-.07.24-.18.44-.31.63-.43.66-.46.66-.6s-.26-.26-.79-.26c-1 0-1.59.47-2.08 1.61"/><path class="a" d="m45.59 17.73-.16-.44v-.26c0-.25.13-.39.49-.53a2.74 2.74 0 0 0 1.08-.57l.34-.31c.09 0 .16.1.16.24a5.72 5.72 0 0 1-.88 1.89c-.33.55-.48.9-.61.9s-.31-.24-.34-.53ZM43.74 16.47l.53.28a.37.37 0 0 1 .23.31v.2a1.94 1.94 0 0 0 0 .67.54.54 0 0 1-.63.56c-.1 0-.05-.07-.29-.35l-.7-.79a3 3 0 0 1-.47-1.42v-.07c0-.17 0-.24.19-.24a.71.71 0 0 1 .35.16ZM104.44 17.83l-.27-.54v-.25c0-.27.12-.39.52-.54a3.47 3.47 0 0 0 1-.57l.34-.31c.08 0 .15.1.15.24a5.34 5.34 0 0 1-.88 1.78c-.33.56-.47 1-.6 1s-.31-.24-.34-.53ZM102.48 16.47l.53.28a.44.44 0 0 1 .24.37v.14l-.16.56-.09.64a.17.17 0 0 1-.17.13 1.66 1.66 0 0 1-.69-.43l-.54-.8a3.45 3.45 0 0 1-.34-.88 3.53 3.53 0 0 1-.13-.54v-.08c0-.16.06-.23.2-.23a.65.65 0 0 1 .34.16ZM43 75.3l-.16-.47v-.14s.06-.08.13-.08a.88.88 0 0 1 .38.19c.13.11.22.1.44.16.85.22 1 .38 1 .79v.53l-.12.47c-.06.2-.11.27-.2.27a1 1 0 0 1-.68-.49l-.32-.44ZM46.76 76.15l-.41.66a1.22 1.22 0 0 1-.16.18c-.17 0-.34-.38-.35-.77l-.06-.63c0-.26.2-.38.6-.44A1.88 1.88 0 0 0 47 75c.3-.22.47-.33.5-.35h.05a.14.14 0 0 1 .15.16l-.22.54ZM100.62 74.42l.44.29a4.1 4.1 0 0 0 .63.34c.48.2.66.34.66.53a1.13 1.13 0 0 1-.06.29 2.16 2.16 0 0 0-.1.44c0 .43-.3.53-.47.53s-.44-.32-.79-.94a7.68 7.68 0 0 1-.5-1.26v-.12c0-.08 0-.12.13-.12ZM104.87 75.59l-.73.66a2.91 2.91 0 0 0-.31.69.37.37 0 0 1-.22.09.32.32 0 0 1-.33-.32v-1.07a.32.32 0 0 1 .27-.35l.67-.19.69-.34a1.38 1.38 0 0 1 .3-.13.17.17 0 0 1 .15.18.43.43 0 0 1-.07.2ZM46.42 19.5l-.29-.07-.51.32h-1.19l-.38-.23a.92.92 0 0 0-.45-.12c-.28 0-.47.15-.47.39a4.49 4.49 0 0 0 .42 1.4l.41 1c.36.88.71 1.26 1.17 1.26s.47-.4.75-1.1c.63-1.58 1-1.82 1-2.38 0-.38-.08-.48-.43-.48m-.76 2-.07.69c0 .39-.22.6-.53.6s-.4-.14-.47-.5l-.13-.66-.16-.76.07-.16a.16.16 0 0 1 .15-.09h.41l.51-.1a.19.19 0 0 1 .15.07.23.23 0 0 1 .1.19s0 .26-.06.72M105.05 19.39h-.18l-.47.31h-1.23l-.38-.22a.91.91 0 0 0-.44-.12.44.44 0 0 0-.47.48 4.06 4.06 0 0 0 .41 1.31l.41 1c.34.88.7 1.26 1.18 1.26s.73-.33 1-1l.34-1.41c.17-.44.52-.63.52-.94a.74.74 0 0 0-.68-.71m-.65 2.15-.07.69a.6.6 0 0 1-.61.6c-.27 0-.33-.14-.4-.5l-.12-.66-.16-.76a.58.58 0 0 1 .1-.16.19.19 0 0 1 .15-.09h.38l.5-.1a.24.24 0 0 1 .16.07.26.26 0 0 1 .1.19s0 .26-.06.72M46.68 77.91a.64.64 0 0 0-.24.07l-.5.25a1.27 1.27 0 0 1-.55.13 1.45 1.45 0 0 1-.8-.25l-.29-.19a.59.59 0 0 0-.36-.1c-.33 0-.51.21-.51.61a2 2 0 0 0 .25.87c.62 1.2 1.26 1.92 1.71 1.92s.64-.51 1-1.26a3.89 3.89 0 0 0 .67-1.46c0-.34-.18-.59-.43-.59m-.8 1.36-.1.47c-.1.63-.25 1-.45 1a.28.28 0 0 1-.24-.13 3 3 0 0 1-.57-1.36c0-.23.1-.34.29-.34h.06l.35.07.37-.07h.08c.16 0 .21.07.21.26ZM104 77.66a.73.73 0 0 0-.25.07l-.41.19a2 2 0 0 1-.74.2.82.82 0 0 1-.42-.11l-.47-.28a.72.72 0 0 0-.37-.13c-.25 0-.42.23-.42.57a4 4 0 0 0 .57 1.67c.56 1.11.73 1.32 1.11 1.32s.41-.14.68-.54l.35-.72a3.36 3.36 0 0 0 .82-1.64c0-.33-.2-.6-.45-.6m-.78 1.77c-.12.67-.32 1.1-.61 1.1a.55.55 0 0 1-.46-.54v-.74c0-.4.08-.55.27-.55h.53c.3 0 .38.06.38.29a3.51 3.51 0 0 1-.07.44M72.37 13.6l.22.29.22.25.28.31a2.73 2.73 0 0 0 .28.25l-.15.13-.29.28-.28.25-.1.13v.27c0 2.54.85 4.75 2.08 5.43.19.1.27.18.27.27l-.25.07h-.28a5.7 5.7 0 0 1-1.45-.26l-.31 2.27h-.44l-.32-2.27a5.43 5.43 0 0 1-1.45.26h-.3c-.19 0-.27 0-.27-.11s.08-.18.27-.27c1.21-.63 2.08-2.9 2.08-5.43v-.27l-.1-.13-.28-.25-.28-.28-.16-.13a2.73 2.73 0 0 0 .28-.25l.29-.31.22-.25ZM83.73 13.6l.22.29.22.25.28.31c.07.06.16.15.29.25l-.16.13-.28.28-.29.25-.09.13v.27c0 2.54.85 4.75 2.08 5.43.19.1.27.18.27.27l-.25.07h-.29a5.55 5.55 0 0 1-1.44-.26L84 23.58h-.44l-.31-2.27a5.5 5.5 0 0 1-1.45.26h-.29c-.18 0-.26 0-.26-.11s.08-.18.26-.27c1.21-.63 2.08-2.9 2.08-5.43v-.27l-.09-.13-.29-.25-.28-.28-.16-.13a3.1 3.1 0 0 0 .29-.25l.28-.31.22-.25ZM72.37 33.32l.22.28.22.26.28.31.28.25-.15.13-.29.28-.28.25-.1.13v.27c0 2.54.85 4.75 2.08 5.43.19.1.27.18.27.27l-.25.07h-.28A5.7 5.7 0 0 1 72.9 41l-.31 2.27h-.44L71.83 41a5.43 5.43 0 0 1-1.45.26h-.28c-.19 0-.27 0-.27-.11s.08-.17.27-.27c1.21-.63 2.08-2.9 2.08-5.43v-.27l-.1-.13-.28-.25-.28-.28-.16-.13.28-.25.29-.31.22-.26ZM83.73 33.32l.22.28.22.26.28.31.29.25-.16.13-.28.28-.29.25-.09.13v.27c0 2.54.85 4.75 2.08 5.43.19.1.27.18.27.27l-.25.07h-.29a5.55 5.55 0 0 1-1.46-.25L84 43.3h-.44L83.2 41a5.5 5.5 0 0 1-1.45.26h-.29c-.18 0-.26 0-.26-.11s.08-.17.26-.27c1.21-.63 2.08-2.9 2.08-5.43v-.27l-.09-.13-.29-.25-.28-.28-.16-.13.29-.25.28-.31.22-.26ZM78.05 23.49l.22.28.22.25.28.32.29.25-.16.12-.29.29-.28.25-.09.13v.27c0 2.53.85 4.75 2.07 5.42.19.11.28.19.28.28l-.26.06H80a5.66 5.66 0 0 1-1.45-.25l-.31 2.27h-.44l-.32-2.27a5.81 5.81 0 0 1-1.45.25h-.28c-.18 0-.26 0-.26-.11s.08-.17.26-.27c1.21-.63 2.08-2.89 2.08-5.42v-.27l-.1-.13-.25-.21-.28-.29-.2-.12.29-.25.28-.32.22-.25ZM72.37 81.3l.22.28.22.25.28.32.28.25-.15.13-.29.28-.28.25-.1.13v.27c0 2.54.85 4.75 2.08 5.42.19.11.27.19.27.28l-.25.07h-.28A5.7 5.7 0 0 1 72.9 89l-.31 2.27h-.44L71.83 89a5.43 5.43 0 0 1-1.45.26h-.28c-.19 0-.27 0-.27-.11s.08-.18.27-.28c1.21-.62 2.08-2.89 2.08-5.42v-.27l-.1-.13-.28-.25-.28-.28-.16-.13.28-.25.29-.32.22-.25ZM83.73 81.3l.22.28.22.25.28.32.29.25-.16.13-.28.28-.29.25-.09.13v.27c0 2.54.85 4.75 2.08 5.42.19.11.27.19.27.28l-.25.07h-.29a5.55 5.55 0 0 1-1.46-.23L84 91.28h-.44L83.2 89a5.5 5.5 0 0 1-1.45.26h-.29c-.18 0-.26 0-.26-.11s.08-.18.26-.28c1.21-.62 2.08-2.89 2.08-5.42v-.27l-.09-.13-.29-.25-.28-.28-.16-.13.29-.25.28-.32.22-.25ZM72.37 102l.22.28.22.25.28.32.28.25-.15.13-.29.28-.28.25-.1.13v.27c0 2.54.85 4.75 2.08 5.42.19.11.27.19.27.28l-.25.07h-.28a5.7 5.7 0 0 1-1.45-.26l-.33 2.33h-.44l-.32-2.27a5.43 5.43 0 0 1-1.45.26h-.28c-.19 0-.27 0-.27-.11s.08-.18.27-.28c1.21-.62 2.08-2.89 2.08-5.42v-.27l-.1-.13-.28-.25-.28-.28-.16-.13.28-.25.29-.32.22-.25ZM83.73 102l.22.28.22.25.28.32.29.25-.16.13-.28.28-.29.25-.09.13v.27c0 2.54.85 4.75 2.08 5.42.19.11.27.19.27.28L86 110h-.29a5.55 5.55 0 0 1-1.44-.26L84 112h-.44l-.31-2.27a5.5 5.5 0 0 1-1.45.26h-.29c-.18 0-.26 0-.26-.11s.08-.18.26-.28c1.21-.62 2.08-2.89 2.08-5.42v-.27l-.09-.13-.29-.25-.28-.28-.16-.13.29-.25.28-.32.22-.25ZM78.05 91.56l.22.29.22.25.28.31.29.25-.16.13-.29.28-.28.25-.09.13v.27c0 2.54.85 4.75 2.07 5.43.19.1.28.19.28.27l-.26.06H80a6.13 6.13 0 0 1-1.45-.25l-.31 2.26h-.44l-.32-2.26a5.81 5.81 0 0 1-1.45.25h-.28c-.18 0-.26 0-.26-.11s.08-.17.26-.27c1.21-.63 2.08-2.9 2.08-5.43v-.27l-.1-.13-.28-.25-.28-.28-.17-.08.29-.25.28-.31.22-.25ZM78.05 71.12l.22.28.22.25.28.32.29.25-.16.13-.29.28-.28.25-.09.13v.27c0 2.54.85 4.75 2.07 5.42.19.11.28.19.28.28l-.26.07H80a5.7 5.7 0 0 1-1.45-.26l-.31 2.27h-.44l-.32-2.27a5.43 5.43 0 0 1-1.45.26h-.28c-.18 0-.26 0-.26-.11s.08-.18.26-.28c1.21-.62 2.08-2.89 2.08-5.42V73l-.1-.13-.28-.25-.28-.28-.17-.12.29-.25.28-.32.22-.25ZM37.16 48.86l.22.28.22.26.28.31.29.25-.16.13-.28.28-.28.25-.1.13V51c0 2.54.85 4.75 2.08 5.42.19.11.27.19.27.28l-.25.07h-.29a5.7 5.7 0 0 1-1.45-.26l-.31 2.27h-.44l-.31-2.27a5.5 5.5 0 0 1-1.45.26h-.3c-.19 0-.27 0-.27-.11s.08-.18.27-.28c1.2-.56 2.1-2.83 2.1-5.38v-.27l-.09-.13-.29-.25-.28-.28-.19-.07.29-.25.28-.31.22-.26ZM49.1 48.86l.22.28.22.26.28.31.29.25-.16.13-.28.28-.28.25-.1.13V51c0 2.54.85 4.75 2.08 5.42.19.11.27.19.27.28l-.25.07h-.29a5.7 5.7 0 0 1-1.45-.26l-.31 2.27h-.44l-.31-2.27a5.5 5.5 0 0 1-1.45.26h-.29c-.18 0-.26 0-.26-.11s.08-.18.26-.28c1.21-.62 2.08-2.89 2.08-5.42v-.27l-.09-.13-.29-.25-.28-.28-.18-.03.29-.25.28-.31.22-.26ZM61 48.86l.22.28.22.26.28.31.29.25-.16.13-.28.28-.29.25-.09.13V51c0 2.54.85 4.75 2.08 5.42.19.11.27.19.27.28l-.25.07H63a5.7 5.7 0 0 1-1.45-.26l-.31 2.27h-.44l-.31-2.27a5.5 5.5 0 0 1-1.45.26h-.29c-.18 0-.26 0-.26-.11s.08-.18.26-.28c1.21-.62 2.08-2.89 2.08-5.42v-.27l-.09-.13-.29-.25-.28-.28L60 50l.29-.25.28-.31.22-.26ZM55.07 55.8l.22.29.22.25c.15.17.24.28.28.31l.29.26-.16.12-.28.29-.28.25-.1.12V58c0 2.54.85 4.76 2.08 5.43.19.11.27.19.27.28l-.25.06h-.29a6.13 6.13 0 0 1-1.45-.25l-.31 2.26h-.44l-.31-2.26a5.89 5.89 0 0 1-1.45.25h-.31c-.18 0-.26 0-.26-.11s.08-.17.26-.27c1.2-.63 2.08-2.89 2.08-5.39v-.27l-.09-.12-.29-.25-.28-.36-.16-.12a2.92 2.92 0 0 0 .29-.26s.13-.14.28-.31l.22-.25ZM43.13 55.8l.22.29.22.25c.15.17.24.28.28.31l.29.26L44 57l-.28.29-.28.25-.1.12V58c0 2.54.85 4.76 2.08 5.43.19.11.27.19.27.28l-.25.06h-.28a6.12 6.12 0 0 1-1.46-.25l-.31 2.26h-.44l-.31-2.26a5.89 5.89 0 0 1-1.45.25h-.29c-.18 0-.26 0-.26-.11s.08-.17.26-.27c1.21-.63 2.08-2.89 2.08-5.43v-.27l-.09-.12-.29-.25-.32-.32-.16-.12a2.92 2.92 0 0 0 .29-.26s.13-.14.28-.31l.22-.25ZM95.13 48.86l.22.28.22.26.28.31.29.25-.16.13-.28.28-.28.25-.1.13V51c0 2.54.85 4.75 2.08 5.42.19.11.27.19.27.28l-.25.07h-.29a5.78 5.78 0 0 1-1.45-.26l-.31 2.27h-.44l-.31-2.27a5.5 5.5 0 0 1-1.45.26h-.28c-.19 0-.27 0-.27-.11s.08-.18.27-.28c1.2-.62 2.07-2.89 2.07-5.42v-.27l-.09-.13-.28-.25-.29-.28-.18-.03.29-.25a4.11 4.11 0 0 0 .28-.31l.22-.26ZM107.07 48.86l.22.28.22.26.28.31.29.25-.16.13-.28.28-.28.25-.1.13V51c0 2.54.85 4.75 2.08 5.42.19.11.27.19.27.28l-.25.07h-.29a5.7 5.7 0 0 1-1.45-.26l-.31 2.27h-.44l-.31-2.27a5.5 5.5 0 0 1-1.45.26h-.29c-.18 0-.26 0-.26-.11s.08-.18.26-.28c1.21-.62 2.08-2.89 2.08-5.42v-.27l-.09-.13-.29-.25-.28-.28-.16-.13.29-.25.28-.31.22-.26ZM119 48.86l.22.28.22.26.28.31.28.29-.16.13-.28.28-.28.25-.1.13V51c0 2.54.85 4.75 2.08 5.42.19.11.27.19.27.28l-.25.07H121a5.7 5.7 0 0 1-1.45-.26l-.31 2.27h-.44l-.31-2.27a5.5 5.5 0 0 1-1.45.26h-.29c-.18 0-.26 0-.26-.11s.08-.18.26-.28c1.21-.62 2.08-2.89 2.08-5.42v-.27l-.09-.13-.29-.25-.28-.28L118 50l.29-.25.28-.31.22-.26ZM113 55.8l.22.29.22.25c.15.17.24.28.28.31l.29.26-.16.12-.28.29-.29.25-.09.12V58c0 2.54.85 4.76 2.08 5.43.19.11.27.19.27.28l-.25.06H115a6.13 6.13 0 0 1-1.45-.25l-.31 2.26h-.44l-.31-2.26a5.89 5.89 0 0 1-1.45.25h-.29c-.18 0-.26 0-.26-.11s.08-.17.26-.27c1.21-.63 2.08-2.89 2.08-5.43v-.27l-.09-.12-.29-.25-.28-.29-.16-.12a2.92 2.92 0 0 0 .29-.26s.13-.14.28-.31l.22-.25ZM101.1 55.8l.22.29.22.25c.15.17.24.28.28.31l.29.26-.11.09-.28.29-.28.25-.1.12V58c0 2.54.85 4.76 2.08 5.43.19.11.27.19.27.28l-.25.06h-.28a6 6 0 0 1-1.45-.25l-.32 2.26h-.44l-.31-2.26a5.89 5.89 0 0 1-1.45.25h-.29c-.18 0-.26 0-.26-.11s.08-.17.26-.27c1.21-.63 2.09-2.89 2.09-5.43v-.27l-.09-.12-.29-.25-.28-.29-.16-.12a2.92 2.92 0 0 0 .29-.26s.13-.14.28-.31l.22-.25Z"/><path class="a" d="M66.78 48.89h3.33a1.72 1.72 0 0 1 1.69-1.14 1.83 1.83 0 0 1 1.74 1.14h2.73a1.91 1.91 0 0 1 1.79-1.14 1.84 1.84 0 0 1 1.7 1.14h2.54a1.9 1.9 0 0 1 1.7-1.14 2 2 0 0 1 1.7 1l.13.19h3.52v16.27h-3.11v6.25h-3.62v-6.25h-9.14v6.25h-3.62v-6.31h-3.08Z"/><path class="c" d="M68 50.74h20v-.57H68Zm0 13.15h20V51.7H68Z"/><path class="d" d="M70.15 53.37a1 1 0 1 0 .95 1 .95.95 0 0 0-.95-1M86 53.37a1 1 0 1 0 0 1.9 1 1 0 1 0 0-1.9M70.15 60.83a.94.94 0 0 0-1 1 1 1 0 0 0 1 1 1 1 0 0 0 0-1.91M86 60.83a1 1 0 1 0 1 1 1 1 0 0 0-1-1M73.13 57.94a6 6 0 0 0 4.93 2.41c1.87 0 3.15-.66 4.66-2.41a6.34 6.34 0 0 0-9.59 0M70.5 69.05h1.87v-2.41H70.5ZM70.5 70.35h1.87v-.76H70.5ZM83.26 69.05h1.87v-2.41h-1.87ZM83.26 70.35h1.87v-.76h-1.87ZM71.8 48.86a.86.86 0 0 0-.86.86V52a.86.86 0 1 0 1.71 0v-2.28a.86.86 0 0 0-.85-.86M78.06 48.86a.87.87 0 0 0-.86.86V52a.86.86 0 0 0 1.72 0v-2.28a.87.87 0 0 0-.86-.86M84 48.86a.86.86 0 0 0-.86.86V52a.86.86 0 0 0 1.72 0v-2.28a.87.87 0 0 0-.86-.86"/><path class="a" d="M84.6 61.78a1.35 1.35 0 1 0 1.4-1.34 1.35 1.35 0 0 0-1.35 1.34m.79 0a.56.56 0 0 1 1.12 0 .56.56 0 1 1-1.12 0M77.93 56.48a5.87 5.87 0 0 0-3.84 1.46 5.31 5.31 0 0 0 3.81 1.65A4.88 4.88 0 0 0 81.74 58a5.65 5.65 0 0 0-3.81-1.49m-.06 1.84a3.86 3.86 0 0 1-2.17-.7 4.72 4.72 0 0 1 2.21-.54 5.36 5.36 0 0 1 2.27.54 3.89 3.89 0 0 1-2.31.7M68.8 54.32A1.35 1.35 0 1 0 70.15 53a1.36 1.36 0 0 0-1.35 1.34m.79 0a.56.56 0 0 1 1.12 0 .56.56 0 1 1-1.12 0M68.8 61.78a1.37 1.37 0 0 0 1.38 1.35 1.35 1.35 0 1 0-1.38-1.35m.79 0a.56.56 0 1 1 .59.56.58.58 0 0 1-.59-.56M84.6 54.32A1.35 1.35 0 1 0 86 53a1.35 1.35 0 0 0-1.35 1.34m.79 0a.56.56 0 0 1 1.12 0 .56.56 0 1 1-1.12 0M199.51 14.12l2.42 12.29-3.25.66c-2-8.18-8.89-13.46-17.64-13.46-10.72 0-18.71 9.49-18.71 22.22 0 13.12 8.31 22.7 19.72 22.7 9 0 15.33-5.18 17.73-14.54l3.25.42-1.34 11.87c-8.32 4.35-14.36 6.06-21.36 6.06-16.78 0-28.19-10.91-28.19-26.95 0-15.45 11-25.75 27.62-25.75 6.58 0 10.57.86 18.38 3.94l1.37.54M263.85 18.45c1.52 3.26 2.08 4.44 4 8.23 1.66 3.36 2.73 5.51 3.19 6.48l2.63 5.46 2.57 5.19.89 1.85c1.5-2.87 2-3.93 3.55-7.31l2.84-6.23 3-6.54 2.4-5.58.69-1.58h14.83v2a9 9 0 0 0-2-.23c-4.09 0-4.82 1.39-4.82 9.22v15.5c0 7.5.89 9.26 4.67 9.26a13.77 13.77 0 0 0 2.37-.27v2h-21.23v-2a6.28 6.28 0 0 0 1.7.27c3.56 0 4.48-1.89 4.48-9.26V25.85c-.49.93-.84 1.64-1.08 2.12s-1.06 2.27-2.66 5.73l-2.95 6.41-3.25 7.34q-2.49 5.63-2.84 6.45l-.68 1.67h-2.45l-.84-1.85c-3.05-6.76-3.57-7.89-5.82-12.51L264 35c-1.56-3.22-2.57-5.27-3-6.15-.31-.6-.78-1.51-1.41-2.71v20.6c0 5.59 1.29 7.43 5.19 7.43a4.13 4.13 0 0 0 1.59-.27v2H250v-2a8.64 8.64 0 0 0 1.8.28c3.73 0 4.59-1.74 4.59-9.27v-17.3c0-6-.85-7.4-4.45-7.4a5 5 0 0 0-1.7.23v-2ZM420.58 53.9v2H396v-2a17.31 17.31 0 0 0 2.93.27c4.49 0 5.37-1.52 5.37-9.25V29.43c0-7.8-.84-9.23-5.41-9.23a8.87 8.87 0 0 0-2.38.25v-2h23.9v2a13 13 0 0 0-2.78-.25c-4.65 0-5.51 1.45-5.51 9.23v15.49c0 7.68.91 9.25 5.41 9.25a19.87 19.87 0 0 0 3.09-.27M511 19.34l1.88 9.55-2.81.51c-2.38-6.72-6.2-9.73-12.34-9.73-8.78 0-14.58 6.52-14.58 16.37 0 10.48 6.47 17.92 15.57 17.92a15.6 15.6 0 0 0 6-1.11V42.53c0-2.9-1-4-3.6-4-.3 0-.76 0-1.36.06h-.44v-2.15H518v2.21h-.6l-.77-.06h-.25c-3.38 0-4.09 1-4.09 5.61 0 2.71.09 6.62.22 9.83-2.22.41-4.6.89-6.51 1.31-5.57 1.23-7.87 1.55-11.13 1.55C483.08 56.85 475 49 475 37.47c0-12.18 8.23-19.83 21.33-19.83a47.66 47.66 0 0 1 7.21.6l3.26.5 2.92.39ZM553.71 18.45l1.43 8.08-2.24.47c-1-4.83-3.26-6.12-10.75-6.12a27.82 27.82 0 0 0-6.11.63v13.1h6.6c3.68 0 4.72-.8 4.72-3.65a9.78 9.78 0 0 0-.1-1.39h2.24v12.69h-2.24a15.7 15.7 0 0 0 .12-1.79c0-2.47-1.23-3.34-4.74-3.34H536v15.46h8.09c6.25 0 8.27-1.27 10.6-6.66l.41-1 2.39.83L554 55.9h-34v-2a17.22 17.22 0 0 0 3 .27c4.35 0 5.3-1.67 5.3-9.26V29.43c0-7.72-.89-9.22-5.47-9.22a8.88 8.88 0 0 0-2.31.23v-2ZM155.05 75.92v-1.28h13.39v1.28l-.32-.06-.54-.06-.57-.06h-.14c-1.74 0-2.74 1.24-2.78 3.47v10.11c0 5.57 2.16 8.06 7 8.06 4.14 0 7-2.72 7-6.71V80.58c0-3.62-.76-4.85-3-4.85h-.17l-.51.06-.68.06-.27.06v-1.27h11.37v1.28l-.3-.06-.6-.06-.59-.06h-.22c-2.33 0-3.07 1.16-3.07 4.85v8.74c0 7.09-3.24 10.27-10.48 10.27C163 99.59 159 96.37 159 91V79.21c-.1-2.3-1-3.47-2.71-3.47a6.72 6.72 0 0 0-1.2.18M196 74.64l.66.77 2.34 3.11 2.83 3.55 2.71 3.37c1 1.2 1.78 2.19 2.45 3 1.26 1.49 2 2.38 2.24 2.68s.4.51.71.93V80.58c0-3.52-.83-4.84-3.08-4.84l-.59.06-.5.06-.27.06v-1.28h10.86v1.28a6.3 6.3 0 0 0-1.39-.18c-2.29 0-3.14 1.32-3.14 4.84v18c-.44.27-.49.3-1.11.63s-.66.36-1.13.65l-.66-.8c-.33-.41-1.26-1.6-2.81-3.58-.91-1.18-1.75-2.24-2.53-3.19-1-1.21-1.62-2-1.91-2.39L201 89l-7.46-9.4V94.48c.05 2.23 1.05 3.35 3 3.35a4.14 4.14 0 0 0 1.22-.15V99H187v-1.32a6.9 6.9 0 0 0 1.57.15c2.27 0 3-1.19 3-4.81V80.58c0-3.59-.82-4.84-3.18-4.84h-.1l-.72.06-.59.06-.3.06v-1.28ZM234.84 97.68V99h-16v-1.32a11.41 11.41 0 0 0 2 .15c2.19 0 3.3-1.11 3.34-3.35V79.12c0-2.22-1.19-3.38-3.34-3.38l-.81.06-.56.06-.27.06v-1.28h15.5v1.28l-.36-.06-.69-.06c-.66 0-.8-.06-1-.06-2.56 0-3.37 1.16-3.37 4.84V93c0 3.72.77 4.81 3.4 4.81a13 13 0 0 0 2.12-.15M263.46 74.64v1.28l-.47-.09a4.73 4.73 0 0 0-.74-.09A3.23 3.23 0 0 0 259 78.1l-.69 1.73-.93 2.3-.77 2.06-.39 1-5.43 14.54h-1.61c-.57-1.42-.71-1.77-1.49-3.85-1-2.63-1.38-3.62-2.6-6.72l-1.67-4.23c-.59-1.49-1.1-2.76-1.55-3.82l-1.11-2.63c-.8-2-1.7-2.75-3.37-2.75a6.86 6.86 0 0 0-1.7.18v-1.27h13.49v1.28l-.42-.06-.54-.06-.38-.06h-.14c-1.11 0-1.84.54-1.84 1.36a2.46 2.46 0 0 0 .28 1.07l.26.75.21.56 4.78 12.6 5-13.43.15-.42.15-.48.12-.32v-.33c0-1-.6-1.35-2-1.35a3.24 3.24 0 0 0-.64.06l-.39.09h-.29v-1.26ZM286.17 74.64l.93 5.25-1.43.27c-.58-3.1-2.18-4-7.13-4a16.17 16.17 0 0 0-3.11.3l-.72.12v8.5h4.87c1.73 0 2.48-.69 2.48-2.31a5.85 5.85 0 0 0-.09-1h1.46v8.3H282a6.65 6.65 0 0 0 .12-1.15c0-1.38-.87-2.17-2.39-2.17h-5v10H280c4.21 0 5.67-1 7.13-5l1.55.57-2.3 6.68H264.3v-1.32a11.41 11.41 0 0 0 2 .15c2.56 0 3.37-1.16 3.37-4.81V80.58c0-3.6-.85-4.84-3.31-4.84l-.87.06-.57.06-.29.06v-1.28ZM339.8 75.15v6.24h-1.4c-.56-3.9-2.33-5.65-5.71-5.65-2.57 0-4.47 1.49-4.47 3.51 0 1.59 1 2.66 3.61 3.89l2.66 1.26c4.84 2.28 6.54 4.23 6.54 7.51 0 4.48-4.12 7.56-10.07 7.56a23.76 23.76 0 0 1-5.57-.78 12.29 12.29 0 0 0-1.59-.27l.21-7.1h1.52c.19 3.87 2.55 6.39 6 6.39a4.4 4.4 0 0 0 4.66-4.26c0-2.16-.9-3-5.94-5.59s-6.36-4-6.36-7c0-4 3.57-6.71 8.86-6.71a20.1 20.1 0 0 1 4.9.69 5.81 5.81 0 0 0 1.86.3ZM362 97.68V99h-16v-1.32a11.41 11.41 0 0 0 2 .15c2.59 0 3.37-1.11 3.37-4.81V80.58c0-3.68-.8-4.84-3.37-4.84l-.81.06-.57.06-.3.06v-1.28h15.55v1.28l-.36-.06-.71-.06-.94-.06c-2.14 0-3.28 1.16-3.33 3.38v15.36c0 2.25 1.15 3.35 3.36 3.35a12.84 12.84 0 0 0 2.1-.15M385.52 74.64l.62 6.62h-1.49l-.09-.65c-.44-3.27-1-4-3.07-4.12h-3.85V93c0 3.62.76 4.87 3 4.87a6.46 6.46 0 0 0 1.37-.15V99h-13.86v-1.32a6.83 6.83 0 0 0 1.44.15c1.8 0 2.81-1.22 2.86-3.47v-17.9h-3.55c-2.3 0-3 1-3.29 4.8h-1.55l.6-6.62ZM416 74.64v1.28a4.17 4.17 0 0 0-1.36-.18 3.48 3.48 0 0 0-3 1.44l-.74 1-.75 1-.45.72-5.25 8V94.28c0 2.23 1.08 3.47 2.89 3.47a7.13 7.13 0 0 0 1.5-.15V99H395v-1.32a6.91 6.91 0 0 0 1.47.15c1.83 0 2.87-1.24 2.91-3.47V88.16l-4.14-6-.63-.93-1.25-1.76-1.14-1.61c-1.16-1.65-2-2.15-3.66-2.15a8.93 8.93 0 0 0-1.26.12l-.42.06v-1.25h13.37v1.28l-.33-.06-.41-.06-.51-.06a1.29 1.29 0 0 0-1.44 1.15 1.7 1.7 0 0 0 .42 1.06l5.4 8 4.33-6.75.27-.5.42-.63a2.35 2.35 0 0 0 .47-1.22c0-.64-.66-1.11-1.59-1.11l-.55.06-.48.06-.3.06v-1.28ZM505.67 74.64l.89 5.25-1.46.27c-.42-3-2.15-4-7.11-4a16.18 16.18 0 0 0-3.13.3l-.68.12v8.5H499c1.69 0 2.48-.67 2.48-2.13V81.8h1.46v8.3h-1.46v-.42l.05-.66v-.18c0-1.28-.9-2.06-2.39-2.06h-5v10h5.25c4.07 0 5.38-.83 6.86-4.33l.27-.62 1.55.57-2.23 6.6h-22.08v-1.32a11.41 11.41 0 0 0 2 .15c2.14 0 3.3-1.16 3.34-3.35V79.11c0-2.14-1.24-3.37-3.26-3.37l-.89.06-.59.06-.27.06v-1.28ZM529.3 75.15v6.24h-1.38c-.54-3.87-2.34-5.65-5.74-5.65-2.54 0-4.43 1.48-4.43 3.47 0 1.62 1 2.72 3.58 3.93L524 84.4c4.93 2.32 6.54 4.17 6.54 7.49 0 4.53-4.06 7.58-10.09 7.58a24.92 24.92 0 0 1-5.55-.78 9.39 9.39 0 0 0-1.59-.27l.24-7.1H515c.35 4.07 2.54 6.39 6 6.39a4.44 4.44 0 0 0 4.68-4.25c0-2.14-1-3.11-5.94-5.6s-6.36-4-6.36-6.92c0-4.08 3.52-6.78 8.84-6.78a19.31 19.31 0 0 1 4.89.69 6.75 6.75 0 0 0 1.83.3ZM552.46 75.15v6.24h-1.41c-.56-3.93-2.3-5.65-5.73-5.65-2.52 0-4.44 1.51-4.44 3.5 0 1.6 1 2.64 3.61 3.9l2.63 1.26c5 2.4 6.56 4.15 6.56 7.49 0 4.51-4.07 7.58-10.06 7.58a23.9 23.9 0 0 1-5.58-.78 12.17 12.17 0 0 0-1.58-.27l.21-7.1h1.52c.19 3.85 2.56 6.39 6 6.39a4.41 4.41 0 0 0 4.68-4.31c0-2.14-.88-3-5.94-5.54s-6.33-4-6.33-7c0-4.06 3.5-6.74 8.81-6.74a19.59 19.59 0 0 1 4.92.69 6 6 0 0 0 1.88.3ZM227.23 16.18l6.81 17 .39 1c6.89 17.48 8.45 20 12.43 20a5.69 5.69 0 0 0 1.68-.3v2h-20.71v-2a6.57 6.57 0 0 0 2.06.27c2.11 0 3.14-.76 3.14-2.32a6.08 6.08 0 0 0-.45-1.89l-2.24-6H217.6l-1.77 4.57-.32.89-.39 1a4.79 4.79 0 0 0-.22 1.3c0 1.53 1.31 2.43 3.51 2.43a8.2 8.2 0 0 0 2.2-.3v2H204.2v-2a6.64 6.64 0 0 0 1.76.24c3 0 4.43-1.57 6.92-7.55l1-2.3.57-1.35 11.13-26.76ZM223.57 28l-5 13.19 10.19.14ZM309 20.45v-2h13.37c1.21 0 3.2-.06 6.51-.18q2.42-.09 3.69-.09c6.83 0 10.9 3 10.9 8 0 4.8-3.22 7.94-9.58 9.32C341.42 36 345 39 345 44.73c0 7.32-5.79 11.27-16.36 11.27-.77 0-2 0-3.58-.06l-3.64-.06h-13v-2a16.1 16.1 0 0 0 2.95.27c4.42 0 5.31-1.55 5.31-9.25V29.43c0-7.82-.83-9.22-5.44-9.22a8.53 8.53 0 0 0-2.26.24m15.16 14.23a18.5 18.5 0 0 0 2.92.39c5.08 0 8.84-3.66 8.84-8.4 0-3.72-3.21-6.49-7.52-6.49a11.72 11.72 0 0 0-4.24.86Zm0 18.32a19.41 19.41 0 0 0 4.5.54c4.86 0 8.27-3.71 8.27-9 0-4.83-3.49-7.57-9.66-7.57a14.75 14.75 0 0 0-3.11.34ZM351.17 20.45v-2h12.32l2.81-.09 2.87-.09c2.43-.08 3.27-.1 3.9-.1 8.46 0 12.63 3 12.63 9 0 5.55-3.32 8.8-9.73 9.53 3.74 2 5.1 3.45 7.82 8.5 3.63 6.74 5.66 8.81 8.63 8.81a13 13 0 0 0 1.69-.15v2h-5.25L387 56h-1.6c-3.67 0-5.26-1.18-7.65-5.67l-1.52-2.87c-4-7.45-5.69-9-10.09-9v6.51c0 7.74.87 9.25 5.33 9.25a12.66 12.66 0 0 0 2.55-.27v2h-23.45v-2a18.31 18.31 0 0 0 2.93.27c4.08 0 5.37-1.78 5.37-7.43V27.61c0-5.67-1.25-7.41-5.32-7.41a10.28 10.28 0 0 0-2.38.25m15 15.84a21.73 21.73 0 0 0 2.47.13c5.9 0 9.08-3 9.08-8.61 0-4.63-3-7.73-7.41-7.73a14.35 14.35 0 0 0-4.14.69ZM424.85 20.45v-2h13l2.69-.09 3.19-.09c2.21-.07 3.72-.1 4.55-.1 13.09 0 20 5.81 20 16.78 0 12.8-9.06 21.07-23.1 21.07l-4.14-.09h-16.61v-2a18.51 18.51 0 0 0 3 .27c4.49 0 5.41-1.57 5.41-9.25V29.43c0-7.78-.86-9.22-5.51-9.22a10.52 10.52 0 0 0-2.52.24m15.79 32.28a16.93 16.93 0 0 0 5.9 1.05c8.19 0 13.41-7 13.41-18.1 0-9.69-5-15.29-13.54-15.29a17.84 17.84 0 0 0-5.77.95ZM291.93 75.92v-1.28H301.78l1.85-.06c1 0 2-.06 2.5-.06 5.57 0 8.28 1.91 8.28 5.85 0 3.6-2.15 5.7-6.33 6.21 2.52 1.41 3.24 2.2 5.07 5.52 2.71 4.91 3.54 5.71 6 5.71a5.06 5.06 0 0 0 .73-.07V99H314.51c-2.69 0-3.65-.68-5.23-3.68-.43-.81-.76-1.44-1-1.88-2.47-4.75-3.63-5.79-6.57-5.88V93c0 3.68.8 4.81 3.4 4.81a8.23 8.23 0 0 0 1.73-.15V99h-15.27v-1.32a11.33 11.33 0 0 0 2 .15c2.58 0 3.4-1.16 3.4-4.81V80.58c0-3.56-.86-4.84-3.27-4.84l-.79.06-.66.06Zm9.76 10.3a15.15 15.15 0 0 0 1.76.09c3.69 0 5.73-2 5.73-5.54 0-3.14-1.85-5.09-4.85-5.09a8.92 8.92 0 0 0-2.64.45ZM438.4 87.83V94.36c.05 2.29 1.16 3.47 3.28 3.47a8.92 8.92 0 0 0 1.73-.15V99h-14.68v-1.32a7.38 7.38 0 0 0 1.67.14c2.47 0 3.32-1.23 3.32-4.86V80.64c0-3.59-.87-4.9-3.26-4.9-.15 0-.44 0-.86.06l-.6.06-.36.06v-1.28h9.52l2.06-.06c1.11 0 1.92-.06 2.41-.06 5.85 0 8.45 1.89 8.45 6.13 0 4.43-3.72 7.45-9.17 7.45h-.38l-1.46-.1a10.65 10.65 0 0 1-1.67-.15m0-1.67a13.11 13.11 0 0 0 2.13.18c3.39 0 5.42-2.08 5.42-5.55 0-3.08-1.89-5.05-4.85-5.05a7.8 7.8 0 0 0-2.7.54ZM454.6 75.92v-1.28h9.85l1.85-.06c1 0 1.94-.06 2.47-.06 5.64 0 8.28 1.87 8.28 5.88 0 3.6-2.15 5.69-6.33 6.18 2.37 1.25 3.33 2.28 5.1 5.52 2.68 4.87 3.55 5.71 6 5.71a5.06 5.06 0 0 0 .73-.07V99h-5.41c-2.69 0-3.65-.68-5.23-3.68-.43-.81-.75-1.44-1-1.88-2.47-4.75-3.63-5.79-6.57-5.88V93c0 3.69.79 4.81 3.4 4.81a9.17 9.17 0 0 0 1.74-.15V99h-15.26v-1.32a11.66 11.66 0 0 0 2 .15c2.55 0 3.38-1.18 3.38-4.81V80.58c0-3.55-.87-4.84-3.27-4.84l-.79.06-.66.06Zm9.76 10.3a14.38 14.38 0 0 0 1.71.09c3.74 0 5.78-2 5.78-5.55 0-3.12-1.87-5.08-4.85-5.08a8.41 8.41 0 0 0-2.64.45Z"/></svg>