<svg width="2000" height="642" fill="none" xmlns="http://www.w3.org/2000/svg"><path d="M1986.1 438.4c-3.4 0-6.5 2.2-8.1 6.8-20.5 58.5-48.2 93.3-71 93.3-13.1 0-18.4-14.6-18.4-37.5 0-57.3 34.3-178.8 51.6-234.2 2-6.7 3.3-12.7 3.3-17.8 0-16.1-8.8-24-30.6-24-23.5 0-48.8 9.2-73.4 52.3-8.5-38-34.2-54.6-70.1-54.6-41.5 0-81.6 26.7-114.6 70s-71.8 57.5-101 50.5c21-51.4 28.8-89.8 28.8-118.3 0-44.7-22.1-71.7-57.8-71.7-54.3 0-85.6 51.8-85.6 106.3 0 42.1 19.1 85.4 61.1 106.4-35.2 79.6-86.6 151.6-106.1 151.6-25.2 0-32.6-123.3-31.2-211.5.9-50.6 5.1-53.2 5.1-68.5 0-8.8-5.7-14.8-28.6-14.8-53.4 0-69.9 45.2-72.4 97.1-.8 19.7-3.9 39.3-9.2 58.3-22.3 79.6-68.3 140-98.3 140-13.9 0-17.7-13.9-17.7-32.1 0-57.3 32.1-128.9 32.1-190 0-44.9-19.7-73.3-56.8-73.3-43.7 0-101.5 52-156.2 149.4 18-74.6 25.4-146.8-27.9-146.8-11.6.2-22.9 3.1-33.1 8.6-7 3.3-11.3 10.5-10.8 18.2 5.1 79.4-64 282.8-129.5 282.8-11.9 0-17.7-12.9-17.7-33.7 0-57.4 34.2-178.6 51.4-234.1 2.2-7.2 3.4-13.4 3.4-18.8 0-15.2-9.4-23-30.7-23-23.4 0-48.8 8.9-73.3 52-8.6-38-34.3-54.6-70.2-54.6-58.9 0-124.7 62.3-153.6 143.5-38.7 108.4-116.7 213.1-221.7 213.1-95.3 0-145.6-79.3-145.6-204.6C101.7 193.8 234.5 46 333 46c47.1 0 69.6 30 69.6 76 0 55.7-31.1 81.6-31.1 102.8 0 6.5 5.4 12.9 16.1 12.9 42.8 0 93.2-50.3 93.2-118.9C480.8 50.2 425.1 0 326.6 0 163.8 0 0 163.8 0 373.7c0 167 82.4 267.7 224.9 267.7 97.2 0 182.1-75.6 227.9-163.8 5.2 73.1 38.4 111.3 89 111.3 45 0 81.4-26.8 109.2-73.9 10.7 49.3 39.1 73.4 76 73.4 42.3 0 77.7-26.8 111.4-76.6-.5 39.1 8.4 75.9 42.3 75.9 16 0 35.1-3.7 38.5-17.7 35.7-147.6 123.9-268.1 150.9-268.1 8 0 10.2 7.7 10.2 16.8 0 40.1-28.3 122.3-28.3 174.8 0 56.7 24.1 94.2 73.9 94.2 55.2 0 111.3-67.6 148.7-166.4 11.7 92.3 37 166.8 76.6 166.8 48.6 0 134.9-102.3 187.2-210.6 20.5 2.6 51.3 1.9 80.9-19-12.6 31.9-20 66.8-20 101.7 0 100.5 48 128.7 89.3 128.7 44.9 0 81.3-26.8 109.2-73.9 9.2 42.5 32.7 73.3 75.9 73.3 67.6 0 126.3-69.1 126.3-125.8 0-15-6.4-24.1-13.9-24.1ZM583 533.2c-27.3 0-38-27.5-38-68.5 0-71.2 48.7-190.1 100.2-190.1 22.5 0 31 26.5 31 58.9 0 72.3-46.3 199.7-93.2 199.7Zm935.1-212.5c-16.3-19.4-22.2-45.8-22.2-69.3 0-29 10.6-53.5 23.3-53.5 12.7 0 16.6 12.5 16.6 29.9 0 29.1-10.4 71.6-17.7 92.9Zm211.7 212.5c-27.3 0-38-31.6-38-68.5 0-68.7 48.7-190.1 100.6-190.1 22.5 0 30.5 26.3 30.5 58.9 0 72.3-45.5 199.7-93.1 199.7Z" fill="url(#a)"/><path d="M1986.1 438.4c-3.4 0-6.5 2.2-8.1 6.8-20.5 58.5-48.2 93.3-71 93.3-13.1 0-18.4-14.6-18.4-37.5 0-57.3 34.3-178.8 51.6-234.2 2-6.7 3.3-12.7 3.3-17.8 0-16.1-8.8-24-30.6-24-23.5 0-48.8 9.2-73.4 52.3-8.5-38-34.2-54.6-70.1-54.6-41.5 0-81.6 26.7-114.6 70s-71.8 57.5-101 50.5c21-51.4 28.8-89.8 28.8-118.3 0-44.7-22.1-71.7-57.8-71.7-54.3 0-85.6 51.8-85.6 106.3 0 42.1 19.1 85.4 61.1 106.4-35.2 79.6-86.6 151.6-106.1 151.6-25.2 0-32.6-123.3-31.2-211.5.9-50.6 5.1-53.2 5.1-68.5 0-8.8-5.7-14.8-28.6-14.8-53.4 0-69.9 45.2-72.4 97.1-.8 19.7-3.9 39.3-9.2 58.3-22.3 79.6-68.3 140-98.3 140-13.9 0-17.7-13.9-17.7-32.1 0-57.3 32.1-128.9 32.1-190 0-44.9-19.7-73.3-56.8-73.3-43.7 0-101.5 52-156.2 149.4 18-74.6 25.4-146.8-27.9-146.8-11.6.2-22.9 3.1-33.1 8.6-7 3.3-11.3 10.5-10.8 18.2 5.1 79.4-64 282.8-129.5 282.8-11.9 0-17.7-12.9-17.7-33.7 0-57.4 34.2-178.6 51.4-234.1 2.2-7.2 3.4-13.4 3.4-18.8 0-15.2-9.4-23-30.7-23-23.4 0-48.8 8.9-73.3 52-8.6-38-34.3-54.6-70.2-54.6-58.9 0-124.7 62.3-153.6 143.5-38.7 108.4-116.7 213.1-221.7 213.1-95.3 0-145.6-79.3-145.6-204.6C101.7 193.8 234.5 46 333 46c47.1 0 69.6 30 69.6 76 0 55.7-31.1 81.6-31.1 102.8 0 6.5 5.4 12.9 16.1 12.9 42.8 0 93.2-50.3 93.2-118.9C480.8 50.2 425.1 0 326.6 0 163.8 0 0 163.8 0 373.7c0 167 82.4 267.7 224.9 267.7 97.2 0 182.1-75.6 227.9-163.8 5.2 73.1 38.4 111.3 89 111.3 45 0 81.4-26.8 109.2-73.9 10.7 49.3 39.1 73.4 76 73.4 42.3 0 77.7-26.8 111.4-76.6-.5 39.1 8.4 75.9 42.3 75.9 16 0 35.1-3.7 38.5-17.7 35.7-147.6 123.9-268.1 150.9-268.1 8 0 10.2 7.7 10.2 16.8 0 40.1-28.3 122.3-28.3 174.8 0 56.7 24.1 94.2 73.9 94.2 55.2 0 111.3-67.6 148.7-166.4 11.7 92.3 37 166.8 76.6 166.8 48.6 0 134.9-102.3 187.2-210.6 20.5 2.6 51.3 1.9 80.9-19-12.6 31.9-20 66.8-20 101.7 0 100.5 48 128.7 89.3 128.7 44.9 0 81.3-26.8 109.2-73.9 9.2 42.5 32.7 73.3 75.9 73.3 67.6 0 126.3-69.1 126.3-125.8 0-15-6.4-24.1-13.9-24.1ZM583 533.2c-27.3 0-38-27.5-38-68.5 0-71.2 48.7-190.1 100.2-190.1 22.5 0 31 26.5 31 58.9 0 72.3-46.3 199.7-93.2 199.7Zm935.1-212.5c-16.3-19.4-22.2-45.8-22.2-69.3 0-29 10.6-53.5 23.3-53.5 12.7 0 16.6 12.5 16.6 29.9 0 29.1-10.4 71.6-17.7 92.9Zm211.7 212.5c-27.3 0-38-31.6-38-68.5 0-68.7 48.7-190.1 100.6-190.1 22.5 0 30.5 26.3 30.5 58.9 0 72.3-45.5 199.7-93.1 199.7Z" fill="url(#b)"/><path d="M1986.1 438.4c-3.4 0-6.5 2.2-8.1 6.8-20.5 58.5-48.2 93.3-71 93.3-13.1 0-18.4-14.6-18.4-37.5 0-57.3 34.3-178.8 51.6-234.2 2-6.7 3.3-12.7 3.3-17.8 0-16.1-8.8-24-30.6-24-23.5 0-48.8 9.2-73.4 52.3-8.5-38-34.2-54.6-70.1-54.6-41.5 0-81.6 26.7-114.6 70s-71.8 57.5-101 50.5c21-51.4 28.8-89.8 28.8-118.3 0-44.7-22.1-71.7-57.8-71.7-54.3 0-85.6 51.8-85.6 106.3 0 42.1 19.1 85.4 61.1 106.4-35.2 79.6-86.6 151.6-106.1 151.6-25.2 0-32.6-123.3-31.2-211.5.9-50.6 5.1-53.2 5.1-68.5 0-8.8-5.7-14.8-28.6-14.8-53.4 0-69.9 45.2-72.4 97.1-.8 19.7-3.9 39.3-9.2 58.3-22.3 79.6-68.3 140-98.3 140-13.9 0-17.7-13.9-17.7-32.1 0-57.3 32.1-128.9 32.1-190 0-44.9-19.7-73.3-56.8-73.3-43.7 0-101.5 52-156.2 149.4 18-74.6 25.4-146.8-27.9-146.8-11.6.2-22.9 3.1-33.1 8.6-7 3.3-11.3 10.5-10.8 18.2 5.1 79.4-64 282.8-129.5 282.8-11.9 0-17.7-12.9-17.7-33.7 0-57.4 34.2-178.6 51.4-234.1 2.2-7.2 3.4-13.4 3.4-18.8 0-15.2-9.4-23-30.7-23-23.4 0-48.8 8.9-73.3 52-8.6-38-34.3-54.6-70.2-54.6-58.9 0-124.7 62.3-153.6 143.5-38.7 108.4-116.7 213.1-221.7 213.1-95.3 0-145.6-79.3-145.6-204.6C101.7 193.8 234.5 46 333 46c47.1 0 69.6 30 69.6 76 0 55.7-31.1 81.6-31.1 102.8 0 6.5 5.4 12.9 16.1 12.9 42.8 0 93.2-50.3 93.2-118.9C480.8 50.2 425.1 0 326.6 0 163.8 0 0 163.8 0 373.7c0 167 82.4 267.7 224.9 267.7 97.2 0 182.1-75.6 227.9-163.8 5.2 73.1 38.4 111.3 89 111.3 45 0 81.4-26.8 109.2-73.9 10.7 49.3 39.1 73.4 76 73.4 42.3 0 77.7-26.8 111.4-76.6-.5 39.1 8.4 75.9 42.3 75.9 16 0 35.1-3.7 38.5-17.7 35.7-147.6 123.9-268.1 150.9-268.1 8 0 10.2 7.7 10.2 16.8 0 40.1-28.3 122.3-28.3 174.8 0 56.7 24.1 94.2 73.9 94.2 55.2 0 111.3-67.6 148.7-166.4 11.7 92.3 37 166.8 76.6 166.8 48.6 0 134.9-102.3 187.2-210.6 20.5 2.6 51.3 1.9 80.9-19-12.6 31.9-20 66.8-20 101.7 0 100.5 48 128.7 89.3 128.7 44.9 0 81.3-26.8 109.2-73.9 9.2 42.5 32.7 73.3 75.9 73.3 67.6 0 126.3-69.1 126.3-125.8 0-15-6.4-24.1-13.9-24.1ZM583 533.2c-27.3 0-38-27.5-38-68.5 0-71.2 48.7-190.1 100.2-190.1 22.5 0 31 26.5 31 58.9 0 72.3-46.3 199.7-93.2 199.7Zm935.1-212.5c-16.3-19.4-22.2-45.8-22.2-69.3 0-29 10.6-53.5 23.3-53.5 12.7 0 16.6 12.5 16.6 29.9 0 29.1-10.4 71.6-17.7 92.9Zm211.7 212.5c-27.3 0-38-31.6-38-68.5 0-68.7 48.7-190.1 100.6-190.1 22.5 0 30.5 26.3 30.5 58.9 0 72.3-45.5 199.7-93.1 199.7Z" fill="url(#c)"/><path d="M1986.1 438.4c-3.4 0-6.5 2.2-8.1 6.8-20.5 58.5-48.2 93.3-71 93.3-13.1 0-18.4-14.6-18.4-37.5 0-57.3 34.3-178.8 51.6-234.2 2-6.7 3.3-12.7 3.3-17.8 0-16.1-8.8-24-30.6-24-23.5 0-48.8 9.2-73.4 52.3-8.5-38-34.2-54.6-70.1-54.6-41.5 0-81.6 26.7-114.6 70s-71.8 57.5-101 50.5c21-51.4 28.8-89.8 28.8-118.3 0-44.7-22.1-71.7-57.8-71.7-54.3 0-85.6 51.8-85.6 106.3 0 42.1 19.1 85.4 61.1 106.4-35.2 79.6-86.6 151.6-106.1 151.6-25.2 0-32.6-123.3-31.2-211.5.9-50.6 5.1-53.2 5.1-68.5 0-8.8-5.7-14.8-28.6-14.8-53.4 0-69.9 45.2-72.4 97.1-.8 19.7-3.9 39.3-9.2 58.3-22.3 79.6-68.3 140-98.3 140-13.9 0-17.7-13.9-17.7-32.1 0-57.3 32.1-128.9 32.1-190 0-44.9-19.7-73.3-56.8-73.3-43.7 0-101.5 52-156.2 149.4 18-74.6 25.4-146.8-27.9-146.8-11.6.2-22.9 3.1-33.1 8.6-7 3.3-11.3 10.5-10.8 18.2 5.1 79.4-64 282.8-129.5 282.8-11.9 0-17.7-12.9-17.7-33.7 0-57.4 34.2-178.6 51.4-234.1 2.2-7.2 3.4-13.4 3.4-18.8 0-15.2-9.4-23-30.7-23-23.4 0-48.8 8.9-73.3 52-8.6-38-34.3-54.6-70.2-54.6-58.9 0-124.7 62.3-153.6 143.5-38.7 108.4-116.7 213.1-221.7 213.1-95.3 0-145.6-79.3-145.6-204.6C101.7 193.8 234.5 46 333 46c47.1 0 69.6 30 69.6 76 0 55.7-31.1 81.6-31.1 102.8 0 6.5 5.4 12.9 16.1 12.9 42.8 0 93.2-50.3 93.2-118.9C480.8 50.2 425.1 0 326.6 0 163.8 0 0 163.8 0 373.7c0 167 82.4 267.7 224.9 267.7 97.2 0 182.1-75.6 227.9-163.8 5.2 73.1 38.4 111.3 89 111.3 45 0 81.4-26.8 109.2-73.9 10.7 49.3 39.1 73.4 76 73.4 42.3 0 77.7-26.8 111.4-76.6-.5 39.1 8.4 75.9 42.3 75.9 16 0 35.1-3.7 38.5-17.7 35.7-147.6 123.9-268.1 150.9-268.1 8 0 10.2 7.7 10.2 16.8 0 40.1-28.3 122.3-28.3 174.8 0 56.7 24.1 94.2 73.9 94.2 55.2 0 111.3-67.6 148.7-166.4 11.7 92.3 37 166.8 76.6 166.8 48.6 0 134.9-102.3 187.2-210.6 20.5 2.6 51.3 1.9 80.9-19-12.6 31.9-20 66.8-20 101.7 0 100.5 48 128.7 89.3 128.7 44.9 0 81.3-26.8 109.2-73.9 9.2 42.5 32.7 73.3 75.9 73.3 67.6 0 126.3-69.1 126.3-125.8 0-15-6.4-24.1-13.9-24.1ZM583 533.2c-27.3 0-38-27.5-38-68.5 0-71.2 48.7-190.1 100.2-190.1 22.5 0 31 26.5 31 58.9 0 72.3-46.3 199.7-93.2 199.7Zm935.1-212.5c-16.3-19.4-22.2-45.8-22.2-69.3 0-29 10.6-53.5 23.3-53.5 12.7 0 16.6 12.5 16.6 29.9 0 29.1-10.4 71.6-17.7 92.9Zm211.7 212.5c-27.3 0-38-31.6-38-68.5 0-68.7 48.7-190.1 100.6-190.1 22.5 0 30.5 26.3 30.5 58.9 0 72.3-45.5 199.7-93.1 199.7Z" fill="url(#d)"/><path d="M1986.1 438.4c-3.4 0-6.5 2.2-8.1 6.8-20.5 58.5-48.2 93.3-71 93.3-13.1 0-18.4-14.6-18.4-37.5 0-57.3 34.3-178.8 51.6-234.2 2-6.7 3.3-12.7 3.3-17.8 0-16.1-8.8-24-30.6-24-23.5 0-48.8 9.2-73.4 52.3-8.5-38-34.2-54.6-70.1-54.6-41.5 0-81.6 26.7-114.6 70s-71.8 57.5-101 50.5c21-51.4 28.8-89.8 28.8-118.3 0-44.7-22.1-71.7-57.8-71.7-54.3 0-85.6 51.8-85.6 106.3 0 42.1 19.1 85.4 61.1 106.4-35.2 79.6-86.6 151.6-106.1 151.6-25.2 0-32.6-123.3-31.2-211.5.9-50.6 5.1-53.2 5.1-68.5 0-8.8-5.7-14.8-28.6-14.8-53.4 0-69.9 45.2-72.4 97.1-.8 19.7-3.9 39.3-9.2 58.3-22.3 79.6-68.3 140-98.3 140-13.9 0-17.7-13.9-17.7-32.1 0-57.3 32.1-128.9 32.1-190 0-44.9-19.7-73.3-56.8-73.3-43.7 0-101.5 52-156.2 149.4 18-74.6 25.4-146.8-27.9-146.8-11.6.2-22.9 3.1-33.1 8.6-7 3.3-11.3 10.5-10.8 18.2 5.1 79.4-64 282.8-129.5 282.8-11.9 0-17.7-12.9-17.7-33.7 0-57.4 34.2-178.6 51.4-234.1 2.2-7.2 3.4-13.4 3.4-18.8 0-15.2-9.4-23-30.7-23-23.4 0-48.8 8.9-73.3 52-8.6-38-34.3-54.6-70.2-54.6-58.9 0-124.7 62.3-153.6 143.5-38.7 108.4-116.7 213.1-221.7 213.1-95.3 0-145.6-79.3-145.6-204.6C101.7 193.8 234.5 46 333 46c47.1 0 69.6 30 69.6 76 0 55.7-31.1 81.6-31.1 102.8 0 6.5 5.4 12.9 16.1 12.9 42.8 0 93.2-50.3 93.2-118.9C480.8 50.2 425.1 0 326.6 0 163.8 0 0 163.8 0 373.7c0 167 82.4 267.7 224.9 267.7 97.2 0 182.1-75.6 227.9-163.8 5.2 73.1 38.4 111.3 89 111.3 45 0 81.4-26.8 109.2-73.9 10.7 49.3 39.1 73.4 76 73.4 42.3 0 77.7-26.8 111.4-76.6-.5 39.1 8.4 75.9 42.3 75.9 16 0 35.1-3.7 38.5-17.7 35.7-147.6 123.9-268.1 150.9-268.1 8 0 10.2 7.7 10.2 16.8 0 40.1-28.3 122.3-28.3 174.8 0 56.7 24.1 94.2 73.9 94.2 55.2 0 111.3-67.6 148.7-166.4 11.7 92.3 37 166.8 76.6 166.8 48.6 0 134.9-102.3 187.2-210.6 20.5 2.6 51.3 1.9 80.9-19-12.6 31.9-20 66.8-20 101.7 0 100.5 48 128.7 89.3 128.7 44.9 0 81.3-26.8 109.2-73.9 9.2 42.5 32.7 73.3 75.9 73.3 67.6 0 126.3-69.1 126.3-125.8 0-15-6.4-24.1-13.9-24.1ZM583 533.2c-27.3 0-38-27.5-38-68.5 0-71.2 48.7-190.1 100.2-190.1 22.5 0 31 26.5 31 58.9 0 72.3-46.3 199.7-93.2 199.7Zm935.1-212.5c-16.3-19.4-22.2-45.8-22.2-69.3 0-29 10.6-53.5 23.3-53.5 12.7 0 16.6 12.5 16.6 29.9 0 29.1-10.4 71.6-17.7 92.9Zm211.7 212.5c-27.3 0-38-31.6-38-68.5 0-68.7 48.7-190.1 100.6-190.1 22.5 0 30.5 26.3 30.5 58.9 0 72.3-45.5 199.7-93.1 199.7Z" fill="url(#e)"/><path d="M1986.1 438.4c-3.4 0-6.5 2.2-8.1 6.8-20.5 58.5-48.2 93.3-71 93.3-13.1 0-18.4-14.6-18.4-37.5 0-57.3 34.3-178.8 51.6-234.2 2-6.7 3.3-12.7 3.3-17.8 0-16.1-8.8-24-30.6-24-23.5 0-48.8 9.2-73.4 52.3-8.5-38-34.2-54.6-70.1-54.6-41.5 0-81.6 26.7-114.6 70s-71.8 57.5-101 50.5c21-51.4 28.8-89.8 28.8-118.3 0-44.7-22.1-71.7-57.8-71.7-54.3 0-85.6 51.8-85.6 106.3 0 42.1 19.1 85.4 61.1 106.4-35.2 79.6-86.6 151.6-106.1 151.6-25.2 0-32.6-123.3-31.2-211.5.9-50.6 5.1-53.2 5.1-68.5 0-8.8-5.7-14.8-28.6-14.8-53.4 0-69.9 45.2-72.4 97.1-.8 19.7-3.9 39.3-9.2 58.3-22.3 79.6-68.3 140-98.3 140-13.9 0-17.7-13.9-17.7-32.1 0-57.3 32.1-128.9 32.1-190 0-44.9-19.7-73.3-56.8-73.3-43.7 0-101.5 52-156.2 149.4 18-74.6 25.4-146.8-27.9-146.8-11.6.2-22.9 3.1-33.1 8.6-7 3.3-11.3 10.5-10.8 18.2 5.1 79.4-64 282.8-129.5 282.8-11.9 0-17.7-12.9-17.7-33.7 0-57.4 34.2-178.6 51.4-234.1 2.2-7.2 3.4-13.4 3.4-18.8 0-15.2-9.4-23-30.7-23-23.4 0-48.8 8.9-73.3 52-8.6-38-34.3-54.6-70.2-54.6-58.9 0-124.7 62.3-153.6 143.5-38.7 108.4-116.7 213.1-221.7 213.1-95.3 0-145.6-79.3-145.6-204.6C101.7 193.8 234.5 46 333 46c47.1 0 69.6 30 69.6 76 0 55.7-31.1 81.6-31.1 102.8 0 6.5 5.4 12.9 16.1 12.9 42.8 0 93.2-50.3 93.2-118.9C480.8 50.2 425.1 0 326.6 0 163.8 0 0 163.8 0 373.7c0 167 82.4 267.7 224.9 267.7 97.2 0 182.1-75.6 227.9-163.8 5.2 73.1 38.4 111.3 89 111.3 45 0 81.4-26.8 109.2-73.9 10.7 49.3 39.1 73.4 76 73.4 42.3 0 77.7-26.8 111.4-76.6-.5 39.1 8.4 75.9 42.3 75.9 16 0 35.1-3.7 38.5-17.7 35.7-147.6 123.9-268.1 150.9-268.1 8 0 10.2 7.7 10.2 16.8 0 40.1-28.3 122.3-28.3 174.8 0 56.7 24.1 94.2 73.9 94.2 55.2 0 111.3-67.6 148.7-166.4 11.7 92.3 37 166.8 76.6 166.8 48.6 0 134.9-102.3 187.2-210.6 20.5 2.6 51.3 1.9 80.9-19-12.6 31.9-20 66.8-20 101.7 0 100.5 48 128.7 89.3 128.7 44.9 0 81.3-26.8 109.2-73.9 9.2 42.5 32.7 73.3 75.9 73.3 67.6 0 126.3-69.1 126.3-125.8 0-15-6.4-24.1-13.9-24.1ZM583 533.2c-27.3 0-38-27.5-38-68.5 0-71.2 48.7-190.1 100.2-190.1 22.5 0 31 26.5 31 58.9 0 72.3-46.3 199.7-93.2 199.7Zm935.1-212.5c-16.3-19.4-22.2-45.8-22.2-69.3 0-29 10.6-53.5 23.3-53.5 12.7 0 16.6 12.5 16.6 29.9 0 29.1-10.4 71.6-17.7 92.9Zm211.7 212.5c-27.3 0-38-31.6-38-68.5 0-68.7 48.7-190.1 100.6-190.1 22.5 0 30.5 26.3 30.5 58.9 0 72.3-45.5 199.7-93.1 199.7Z" fill="url(#f)"/><defs><radialGradient id="b" cx="0" cy="0" r="1" gradientUnits="userSpaceOnUse" gradientTransform="matrix(420.00041 -431.99998 287.1004 279.12567 1024 711)"><stop stop-color="#6420FF"/><stop offset="1" stop-color="#6420FF" stop-opacity="0"/></radialGradient><radialGradient id="c" cx="0" cy="0" r="1" gradientUnits="userSpaceOnUse" gradientTransform="matrix(1167.999 103.9999 -82.89022 930.92097 48 427)"><stop offset=".25" stop-color="#00C4CC"/><stop offset="1" stop-color="#00C4CC" stop-opacity="0"/></radialGradient><radialGradient id="d" cx="0" cy="0" r="1" gradientUnits="userSpaceOnUse" gradientTransform="rotate(-38.849 1335.61 -889.66) scale(755.651 516.691)"><stop stop-color="#6420FF"/><stop offset="1" stop-color="#6420FF" stop-opacity="0"/></radialGradient><radialGradient id="e" cx="0" cy="0" r="1" gradientUnits="userSpaceOnUse" gradientTransform="matrix(728.00062 -495.99976 339.14911 497.78404 112 753)"><stop stop-color="#6420FF"/><stop offset="1" stop-color="#6420FF" stop-opacity="0"/></radialGradient><radialGradient id="f" cx="0" cy="0" r="1" gradientUnits="userSpaceOnUse" gradientTransform="rotate(12.472 -173.979 908.075) scale(1741.08 2135.37)"><stop stop-color="#00C4CC" stop-opacity=".726"/><stop stop-color="#00C4CC"/><stop offset="1" stop-color="#00C4CC" stop-opacity="0"/></radialGradient><linearGradient id="a" x1="2000" y1="561" x2="336" y2="165" gradientUnits="userSpaceOnUse"><stop stop-color="#7D2AE7"/><stop offset=".771" stop-color="#7D2AE7"/><stop offset="1" stop-color="#7D2AE7" stop-opacity="0"/></linearGradient></defs></svg>