<?xml version="1.0" encoding="utf-8"?>
<!-- Generator: Adobe Illustrator 25.4.1, SVG Export Plug-In . SVG Version: 6.00 Build 0)  -->
<svg version="1.1" id="Layer_1" xmlns="http://www.w3.org/2000/svg" xmlns:xlink="http://www.w3.org/1999/xlink" x="0px" y="0px"
	 viewBox="0 0 995.7 362.8" style="enable-background:new 0 0 995.7 362.8;" xml:space="preserve">
<style type="text/css">
	.st0{fill:#CF963C;}
	.st1{fill:#CF973D;}
	.st2{fill:#CF973E;}
</style>
<g>
	<path class="st0" d="M699.9,252.3c3.7-0.2,7.6,0.4,11.3,1.7c9.9,3.4,16.1,11.7,16.5,22.1c0.1,1.8-0.1,2-1.9,2.1c-0.5,0-1,0-1.4,0
		c-3.4,0-3.2,0.3-3.5-3.2c-0.5-7.7-6.1-13.7-14.4-15.6c-5.8-1.3-11.7-1-17.4,1c-3,1-5.5,2.7-7.7,5c-4.3,4.6-5.8,14.8,2.8,19.6
		c4.4,2.5,9.2,3.8,14.1,4.9c4.7,1.1,9.4,2,14,3.5c3.1,1,6.1,2.3,8.9,4c7,4.4,9.4,10.9,8.7,18.8c-0.9,9.4-6.2,15.5-14.8,18.9
		c-9.6,3.8-19.4,4.1-29,0.4c-10.7-4.1-16.3-12.1-16.9-23.6c-0.1-1.8,0-1.9,1.9-2c0.5,0,1,0,1.4,0c3.1,0,3.1,0,3.4,3.2
		c0.7,7.1,4.4,12.2,10.8,15.3c4.7,2.3,9.7,3,14.9,2.7c3.7-0.2,7.3-0.7,10.7-2c5.4-2.1,9.6-5.6,10.7-11.5c1.5-7.7-0.8-12.5-7.3-15.8
		c-5.1-2.6-10.7-3.8-16.2-4.9c-4.2-0.9-8.5-1.8-12.5-3.4c-1.5-0.6-3-1.2-4.5-2c-6.7-3.4-10.9-8.6-11.1-16.3
		c-0.2-7.9,3.1-14.2,9.9-18.4C687,253.4,693.1,252.1,699.9,252.3z"/>
	<path class="st0" d="M323.2,281.1c-0.3,0.1-0.7,0.2-1,0.2c-1.7,0-3.6,0.4-5.1-0.2c-1.5-0.6-1.6-2.7-2.4-4.1
		c-6.8-11.9-17-18.4-30.7-17.9c-13.3,0.5-23,7.5-29,19.4c-7.4,14.6-4.2,32.4,7.5,43.6c14,13.4,35.9,12.1,48.1-3
		c2.1-2.6,4-5.4,5.3-8.6c0.5-1.1,1.1-1.7,2.4-1.6c1.6,0.1,3.2,0,4.7,0c0.5,0.6,0.4,0.9,0.3,1.3c-5.7,16.2-21.5,28.5-39.6,27.7
		c-13.8-0.7-24.4-7.1-31.9-18.5c-11.7-17.7-8.9-42,6.5-56.2c21.2-19.6,54.8-11.3,64.8,16C323.1,279.7,323.5,280.3,323.2,281.1z"/>
	<path class="st0" d="M928.9,316c-1.8,8.5-9.6,18.8-22.6,21.3c-17.1,3.3-33.7-8.1-36.4-26.2c-2.8-18.1,8-32.2,21.7-36.4
		c16-4.9,33.1,4,37.4,20.7c-2,0.3-4,0.1-5.9,0.1c-1,0-1.2-0.8-1.5-1.5c-0.9-1.9-1.9-3.8-3.3-5.4c-8.5-10.4-24.1-11.4-33.9-2.2
		c-12,11.3-10.9,30.8,2.2,40.4c11,8.1,28.7,5,34.7-8.9c0.7-1.7,1.7-2.4,3.5-2.2C926.1,315.9,927.4,315.6,928.9,316z"/>
	<path class="st1" d="M560.9,292.8c0,13.3,0,26.6,0,39.8c0,0.6,0,1.2,0,1.7c-0.1,2.1-0.1,2.2-2,2.2c-5.4,0-4.7,0.6-4.7-4.5
		c0-26.7,0-53.3,0-80c0-4-0.1-3.6,3.6-3.6c3.4,0,3.2-0.2,3.2,3.1C560.9,265.3,560.9,279.1,560.9,292.8z"/>
	<path class="st2" d="M532.2,292.5c0-13.4,0-26.8,0-40.2c0-0.7,0-1.3,0-2c-0.1-1.3,0.5-1.9,1.9-1.9c5.9,0,4.8-0.4,4.8,4.4
		c0,26.8,0,53.5,0,80.3c0,3.7,0.4,3.4-3.4,3.4c-0.5,0-1,0-1.4,0c-1.4,0.1-1.9-0.6-1.8-1.9c0-0.7,0-1.3,0-2
		C532.2,319.3,532.2,305.9,532.2,292.5z"/>
	<path class="st0" d="M244.2,60.9c-0.1-7.4-1.4-14.5-4.1-21.4c-4.7-11.9-12.1-21.8-21.1-30.7c-3.2-3.1-6.4-6.1-10.4-8.8
		c-0.2,3.2-0.3,3.2,1.4,5.4c5.9,8,11.2,16.4,15.4,25.4c4.2,9,6.7,18.4,6.3,28.4c-0.3,8.8-0.1,17.7-0.1,26.6c0,0.8,0,1.5,0,2.3
		c-0.1,1.4-0.9,2.3-2.3,2.5c-1.3,0.2-2.5-0.1-3.2-1.3c-0.4-0.7-0.6-1.4-0.9-2.1c-1.5-3.8-3.1-7.5-5.8-10.6c-1.5-1.8-3.4-3.1-5.7-3.7
		c-2.7-0.7-5.4,0.4-5.2,4.1c0.2,4.4,0.1,8.9,0.1,13.3c0,3.7-0.3,4-3.8,5c-4.1,1.1-8.1,2.4-12.1,3.9c-10.4,3.9-19.9,9.1-27.8,17.1
		c-12.4,12.5-21.5,27.1-27.6,43.6c-1.5,4.1-2.9,8.1-5.1,11.9c-2.7,4.8-6.6,7.9-12,9.2c-2.2,0.5-4.3,0.8-6.6,0.8
		c-11.4,0-22.7,0-34.1,0c-3.4,0-6.7,0.2-10-0.9c-1.1-0.4-2.5-0.3-3.7-0.3c-9.1-0.2-18,1.6-26.8,3.8c-7.1,1.8-14.1,4-20.6,7.4
		c-2.2,1.1-4.4,2.4-6.2,4.2c-2.9,2.9-2.6,4.8,0.9,6.8c2.2,1.3,4.6,2,6.9,2.9c2.5,0.9,3,2.9,1.4,5c-0.3,0.5-0.7,0.9-1.1,1.4
		c-1.9,2.6-3.3,5.4-3.9,8.6c-1.1,5.6-0.1,10.9,1.9,16.1c0.8,2,1.1,4.1,1,6.2c-0.1,2.2-0.3,4.4-0.4,6.6c-0.2,4.4-2.2,7.7-6.1,9.8
		c-2.3,1.2-4.6,2.4-7,3.4c-1.9,0.8-2.8,2.2-3,4.2c-0.2,2.4-0.4,4.8-0.6,7.2c-0.9,13.2-2,26.5-2,39.8c0,6.5,0.3,12.9,0.9,19.3
		c0.3,3.3,1.1,4,4.4,4c3,0,6,0.1,9,0c3.1-0.1,4.3-2,3.1-4.8c-0.8-1.9-1.7-3.9-2.2-5.9c-2.9-11.7-2.6-23.4-0.1-35.2
		c0.8-3.7,2-7.2,4-10.5c1.6-2.6,3.7-4.2,6.9-4.5c5.7-0.5,11.5-0.9,17.2-2.1c14.3-2.9,26.3-9.6,35.6-20.9c0.9-1.1,1.8-2.1,2.8-3.3
		c1,2.4,1.1,2.5-0.5,4.6c-8.2,10.5-17.8,19.2-30.9,23.2c-2.2,0.7-3,2.3-2.3,4.5c0.2,0.7,0.6,1.4,0.9,2.1
		c5.1,12.2,10.2,24.3,15.3,36.5c1.9,4.5,3.8,9.1,5.7,13.6c0.6,1.4,1.3,2.7,3,2.7c4,0,8.1,0.1,12.1,0c2.5-0.1,3.5-2.6,2.2-4.7
		c-0.3-0.5-0.7-0.9-1.1-1.3c-3.8-4.6-7.2-9.5-10.2-14.7c-3.9-6.8-7.3-13.8-8.8-21.6c-0.7-3.5-0.8-7.1,0.6-10.5
		c0.6-1.6,1.7-2.5,3.4-2.6c10.7-0.7,19.1-5.8,26.3-13.4c4-4.2,7.2-9,9.8-14.2c0.7-1.5,1.6-2.6,3.5-2.5c5.1,0.1,10.2,0.1,15.3,0.3
		c1.9,0,3.8,0.3,5.8,0.4c2.5,0.1,4.1,1.3,4.8,3.7c0.9,2.9,1.4,5.8,1.1,8.8c-0.6,6.1-2.3,11.9-4.5,17.6c-1.4,3.6-2.9,7.2-4.1,10.8
		c-2.9,8.4-5.1,17-4.5,26c0.4,5.2,1.1,10.3,1.7,15.5c0.2,1.7,1.3,2.5,3.3,2.6c3.6,0.1,7.1,0.1,10.7,0c3.3,0,4.5-1.8,3.3-4.9
		c-1.2-2.8-2.3-5.5-3.1-8.4c-2.9-10.4-1.9-20.4,3.9-29.7c3.8-6.2,9.1-10.9,14.9-15.1c0.2-0.2,0.5-0.2,0.8,0.1
		c0.3,0.8,0.2,1.7,0.2,2.5c0,11.4,0.3,22.7,1.9,34c0.9,6.3,2.1,12.5,4.1,18.6c0.8,2.4,1.5,2.9,4,2.9c4.6,0,9.2,0,13.9,0
		c3.5,0,4.8-2.2,3-5.1c-6.5-11-10.1-22.9-11.5-35.4c-0.8-7.6-0.7-15.2,0.7-22.7c1.3-7.1,4.2-13.6,7.3-20c3.6-7.4,7.7-14.4,11.8-21.5
		c4.4-7.8,6.4-16.2,6.5-25.1c0.1-8-0.2-16-0.7-24c-0.3-5.3-1-10.5-1.4-15.8c-0.3-4.4-0.9-8.8-0.6-13.3c0.5-7.1,1.2-14.2,2.8-21.1
		c1-4.5,2.1-9,4.2-13.1c0.5-0.9,0.9-2.3,2.1-2.1c1.2,0.2,1,1.6,1.2,2.7c0.7,6,0.6,12.1,0.2,18.2c-0.3,6.2-0.6,12.3-0.9,18.5
		c-0.1,2.9,1.2,5.1,3.8,6.2c2.5,1.1,5.1,0.6,7.7,0.3c0.8-0.1,1.3-0.8,1.7-1.5c5.7-9.8,11.9-19.3,16.3-29.9
		c4.4-10.6,6.6-21.4,6.5-32.8C244.7,86.7,244.4,73.8,244.2,60.9z M224.5,116c-2,0-3.6-1.7-3.5-3.7c0.1-1.9,1.6-3.4,3.5-3.4
		c2.1-0.1,3.6,1.4,3.6,3.5C228.1,114.5,226.5,116,224.5,116z"/>
	<path class="st0" d="M797.2,287.7c-5.8-8.9-14.1-13.9-24.7-14.3c-8.7-0.3-16.1,3-22.2,9.3c-0.8,0.8-1.5,1.6-2.3,2.4
		c-0.2-0.1-0.3-0.2-0.5-0.3c0-2.5,0-5,0-7.5c0-2.5,0-2.5-2.5-2.5c-0.3,0-0.6,0-0.9,0c-3.6,0-3.3-0.3-3.3,3.2c0,26.9,0,53.7,0,80.6
		c0,4.7-0.8,4.1,4.4,4.2c2.2,0,2.3,0,2.3-2.2c0-0.6,0-1.2,0-1.7c0-10.1,0-20.2,0-30.3c0-0.8-0.2-1.7,0.4-2.5c1,1.1,1.8,2,2.7,2.9
		c10.3,10.4,25.9,11.9,38,3.7C803,322.8,806.9,302.6,797.2,287.7z M789.9,322.4c-10.5,12.9-30,11.4-38.7-3
		c-2.5-4.2-3.8-8.8-3.7-13.8c0.1-7.9,3-14.7,9-19.8c9.5-8.2,22.7-7.6,31.6,1.3C797.6,296.6,798.3,312.1,789.9,322.4z"/>
	<path class="st0" d="M448.5,283.3c-6.2-6.7-14-10.2-23.1-9.9c-8.8,0.3-16.1,4.1-21.8,10.9c-0.4,0.4-0.6,1.3-1.6,0.9
		c0-2.1,0-4.2,0-6.3c-0.1-4.6,0.6-3.9-4-4c-2.5,0-2.5,0-2.6,2.5c0,0.5,0,1,0,1.4c0,26.7,0,53.3,0,80c0,4.5-0.7,4,4,4
		c2.5,0,2.6,0,2.6-2.5c0-10.4,0-20.8,0-31.2c0-0.9,0-1.9,0-2.8c1.5,1.3,2.8,2.3,4.1,3.5c5.3,4.9,11.5,7.7,18.7,8.1
		c17,0.9,32.3-12.8,32.4-32.2C457.3,297.2,454.3,289.6,448.5,283.3z M437,328.6c-10.3,5.5-23,2.3-30-7.5
		c-7.6-10.6-6.2-25.3,3.1-34.3c10.3-9.9,26.4-8.5,35,3c3.6,4.8,5.3,10.2,5.4,17.1C450,315.8,446,323.7,437,328.6z"/>
	<path class="st0" d="M472.1,306.8c15.9,0,31.8,0,47.7,0c3,0,3.1,0,2.9-3.1c-0.5-6.5-2.6-12.4-6.5-17.7c-12.1-16.6-35.4-17-48.1-0.8
		c-5.7,7.3-7.9,15.7-6.7,24.9c1.4,10.8,6.8,18.9,16.4,24c8.9,4.8,18.3,5,27.6,1.2c8.6-3.5,13.6-10.4,16.3-19.6c-2,0-3.5,0.1-5,0
		c-1.4-0.1-2.1,0.5-2.6,1.7c-1,2.6-2.4,5.1-4.4,7.1c-6.4,6.6-14.4,7.9-22.9,5.9c-10.2-2.3-16.2-9.2-18.5-19.3
		C467.4,306.8,467.4,306.8,472.1,306.8z M486.7,280.7c12.4-2.9,24.8,5.1,28.3,17.8c0.4,1.3,0,1.8-1.3,1.7c-0.6,0-1.2,0-1.7,0
		c-13.4,0-26.8,0-40.2,0c-1,0-2.1,0.3-3.1-0.3C469.8,291.1,477.6,282.8,486.7,280.7z"/>
	<path class="st0" d="M943.1,306.8c8.4,0,16.8,0,25.1,0c8.4,0,16.8,0,25.1,0c2.2,0,2.3-0.1,2.3-2.2c0-5.7-1.8-11-4.7-15.9
		c-7.5-12.7-22.1-18.4-35.5-13.7c-15.5,5.4-24.7,22.2-20.1,39.8c4.2,15.9,19.5,25.3,35.7,22.7c11.7-1.9,19.2-8.6,23.1-19.6
		c0.7-1.8,0.5-2-1.3-2.1c-1.1,0-2.1,0.1-3.2,0c-1.2-0.1-1.9,0.4-2.4,1.6c-0.9,2.5-2.3,4.9-4.2,6.9c-6.5,7-14.6,8.2-23.3,6.3
		c-10.4-2.3-17-10.1-18.8-21.3C940.7,306.8,940.7,306.8,943.1,306.8z M942.1,297.7c2.9-10.4,12.7-17.8,23.4-17.6
		c10.5,0.2,19.4,7.6,22.5,18.1c0.5,1.7,0.3,2-1.6,2c-7.1,0-14.3,0-21.4,0c-7,0-14.1,0-21.1,0C941.7,300.2,941.5,299.9,942.1,297.7z"
		/>
	<path class="st0" d="M382.1,317.6c-0.1-8.1,0-16.2,0-24.3c0-11.9-6.6-16.7-14.2-18.7c-7.1-1.9-14.3-1.9-21.4,0.3
		c-7.5,2.4-12.5,7.4-14.8,14.9c-0.7,2.2-0.5,2.3,1.7,2.4c0.9,0,1.7-0.1,2.6,0c1.4,0.1,2-0.5,2.5-1.8c2-5.3,6-8.4,11.3-9.8
		c4.7-1.2,9.5-1.1,14.3-0.3c2.1,0.3,4.1,1,6,2.1c3.4,1.9,5,4.9,5.3,8.7c0.2,2.8-1,4.8-3.5,6.1c-1.6,0.9-3.4,1.3-5.2,1.7
		c-5.6,1.3-11.4,1.5-17.2,2.3c-4.8,0.7-9.5,1.8-13.7,4.3c-7.8,4.8-10.1,15.1-5.1,22.7c2.6,4,6.5,6.2,10.9,7.6
		c4.4,1.4,8.9,1.5,13.4,1.2c6.9-0.5,13.2-2.6,18.6-7c0.4-0.4,0.8-0.9,1.5-0.9c0.4,1.6,0.7,3.2,1.2,4.7c0.8,2.4,0.8,2.4,3.2,2.4
		c1.3,0,2.7,0.2,4.6-0.3C381.4,330.2,382.1,323.9,382.1,317.6z M375.3,315.1c-0.3,4.9-2.8,8.6-6.8,11.1c-7.6,4.7-15.7,5.9-24.4,3.6
		c-1.5-0.4-2.9-1.1-4.2-1.9c-6.5-3.9-6.1-14.1,0.7-17.3c4.3-2,8.9-2.9,13.6-3.4c4.4-0.5,8.8-0.8,13.1-1.7c2.6-0.6,5.1-1.5,7.9-2.8
		C375.3,307.2,375.5,311.2,375.3,315.1z"/>
	<path class="st0" d="M626.4,335.2c-1.4-3.9-1.8-7.8-1.8-11.9c0.1-10.5,0-21,0-31.5c0-7.6-3.6-13.1-10.7-15.9
		c-9-3.6-18.2-3.7-27.3,0.1c-7.1,3-11.2,8.4-12.8,16.3c1.8,0,3.1-0.1,4.4,0c1.6,0.1,2.4-0.4,3-2c1.5-4.2,4.5-7.2,8.7-8.7
		c6.9-2.5,14-2.5,20.9,0c4.2,1.5,6.5,4.6,7.2,9c0.4,3.1-0.6,5.3-3.3,6.7c-1.6,0.9-3.4,1.4-5.2,1.8c-5.6,1.2-11.4,1.5-17.1,2.3
		c-5.1,0.7-10.1,1.8-14.4,4.7c-5.7,3.8-7.8,9.4-6.9,16c0.9,6.8,5.4,10.8,11.4,13.3c4.8,2,9.9,2.2,15,1.8c7.1-0.5,13.6-2.5,19.1-7.2
		c0.4-0.3,0.7-0.7,1.3-0.6c0.4,1.8,0.7,3.7,1.4,5.5c0.3,0.8,0.7,1.6,1.8,1.6c1.8,0,3.6,0,5.2,0C626.7,335.9,626.5,335.5,626.4,335.2
		z M617.7,316.5c-0.6,3.7-2.4,6.8-5.4,8.8c-8.4,5.7-17.5,7.2-27.1,3.8c-3.6-1.2-6.3-3.6-7.1-7.7c-0.9-4.3,0.6-8.1,4.4-10.4
		c2.2-1.4,4.7-2.1,7.2-2.7c3.3-0.8,6.6-1.1,10-1.4c6.2-0.6,12.4-1.1,18.5-4.4C617.9,307.6,618.4,312.1,617.7,316.5z"/>
	<path class="st0" d="M860.4,319.7c0.1-8.9,0-17.7,0-26.6c0-1.5,0-3.1-0.3-4.6c-1.3-7.1-5.8-11.4-12.4-13.4c-7.6-2.4-15.4-2.5-23,0
		c-8.1,2.7-13.2,8.3-15.1,17.2c1.7,0,3-0.1,4.3,0c1.7,0.2,2.6-0.4,3.1-2.1c1.4-3.9,4.2-6.8,8-8.3c7.3-2.9,14.7-2.9,22-0.1
		c3.9,1.5,6.1,4.5,6.7,8.7c0.5,3.3-0.6,5.6-3.7,7.1c-1.6,0.8-3.2,1.2-4.9,1.6c-5.6,1.3-11.4,1.4-17.1,2.3c-4.5,0.7-8.9,1.7-12.9,3.9
		c-5.5,3-8.2,7.7-8.4,13.8c-0.2,7.4,4,13.3,11.5,16.3c5.5,2.2,11.3,2.3,17.1,1.7c6.4-0.7,12.4-2.8,17.3-7.2c0.3-0.3,0.7-0.7,1.3-0.4
		c0.3,1.9,0.6,3.8,1.3,5.6c0.3,0.7,0.6,1.5,1.6,1.5c1.9,0,3.8,0.2,5.9-0.2C860.3,330.8,860.4,325.2,860.4,319.7z M853.6,315.9
		c-0.5,4.2-2.5,7.5-6,9.8c-8.1,5.3-16.9,6.7-26.2,3.7c-3.3-1.1-6-3.1-7.2-6.5c-1.8-5.2,0.4-10.3,5.6-12.6c4.2-1.9,8.6-2.6,13.2-3
		c4.3-0.5,8.6-0.7,12.9-1.6c2.6-0.6,5.1-1.6,8.1-2.8C853.7,307.5,854.2,311.7,853.6,315.9z"/>
</g>
</svg>
