<svg version="1.1" id="Layer_1" xmlns="http://www.w3.org/2000/svg" x="0" y="0" viewBox="0 0 187.1 98.8" style="enable-background:new 0 0 187.1 98.8" xml:space="preserve"><style>.st1{fill-rule:evenodd;clip-rule:evenodd}</style><path d="M36.6 46.7c2.6-2.9 5.3-5.2 8.6-7.9l.1-2.1c-4.2 3.3-7.9 6.7-11.1 10.1l2.4-.1zm-9.3 12.6c-4 7.3-5.6 14.6-2.7 20.2 8.9 17.4 50.1 17.2 89.7.6 10-4.2 19-9 26.8-14.2 23.2-15.6 32.2-33.1 25.6-46.2C157.8 2.3 121.8.4 82.2 17c-4.3 1.8-8.3 3.7-12.2 5.7h-3.3c5.7-3.1 12-6.3 18.3-9 45-18.8 89.8-18.1 99.8 1.7 7.6 14.8-4 35.6-30.5 53.4-8.8 5.9-19.9 11.9-31.1 16.6C78.2 104.1 33 103 23 83.2c-3.5-7-2.9-15.3 1.8-23.9h2.5z" style="fill-rule:evenodd;clip-rule:evenodd;fill:#ed1c24"/><path class="st1" d="M40 45.5c-3.2 12.3-13.2 17.1-23.2 17.1C2.7 62.7-2 54.1.7 41.4c2.3-12.5 11.6-21 25.1-21 10.2 0 17.9 4.1 15.3 17.9H26.5c1-6.6-.5-7.4-2.5-7.4-4.1 0-5.4 4.2-6.8 10.6-1.3 6.1-1.9 10.6 2.1 10.6 2.1 0 3.7-1.2 5.7-6.6h15zM38.7 61.6h19.8c12.4 0 21.9-7.5 24.5-19.7 2.5-11.9-.8-20.6-16.9-20.5H47.2l-8.5 40.2zm22.2-31h1.5c2.6 0 3.9.9 4.6 2.5.7 1.7.4 4.5-.4 8.4-.8 3.9-1.8 6.7-3.2 8.4-1.3 1.6-3 2.6-5.6 2.6h-1.5l4.6-21.9zM86.5 21.5h14.3l-2 25.2h.1l9.1-25.2h16.5l-1.6 25.2h.1l8.8-25.2H146l-17.2 40.1h-17.3l1.8-26.1h-.1l-9.3 26.1H86.7l-.2-40.1zM148.5 21.3h3.8v.7h-1.5v4h-.9v-4h-1.4v-.7zM152.7 21.3h1.1l1.4 3.7 1.2-3.7h1.2V26h-.8v-3.6l-1.3 3.6h-.7l-1.3-3.6V26h-.8v-4.7z"/></svg>