<svg xmlns="http://www.w3.org/2000/svg" viewBox="0 0 77.54 33.39"><defs><style>.a{fill:#fff;}</style></defs><path class="a" d="M18.93,10.24a3.21,3.21,0,0,0-2.75,1.33,6.21,6.21,0,0,0-1,3.72q0,5,3.72,5a11.77,11.77,0,0,0,3.78-.78v2.64a10.58,10.58,0,0,1-4.07.76,6.24,6.24,0,0,1-5-2A8.29,8.29,0,0,1,12,15.27a9.21,9.21,0,0,1,.84-4,6.1,6.1,0,0,1,2.42-2.67,7.16,7.16,0,0,1,3.7-.93,9.92,9.92,0,0,1,4.34,1l-1,2.55q-.84-.39-1.68-.69A5.13,5.13,0,0,0,18.93,10.24Z"/><path class="a" d="M34.41,22.67H25.87V7.84h8.54v2.57H29v3.26h5v2.57H29v3.83h5.4Z"/><path class="a" d="M40.65,17v5.69H37.5V7.84h4.32a7.37,7.37,0,0,1,4.48,1.1,3.93,3.93,0,0,1,1.45,3.34A4,4,0,0,1,47,14.61a4.71,4.71,0,0,1-2,1.59c2.23,3.34,3.68,5.49,4.36,6.47H45.86L42.32,17Zm0-2.56h1a3.86,3.86,0,0,0,2.2-.5,1.75,1.75,0,0,0,.71-1.56,1.63,1.63,0,0,0-.72-1.5,4.41,4.41,0,0,0-2.25-.45h-1Z"/><path class="a" d="M64.37,22.67h-4L53.92,11.45h-.09c.13,2,.2,3.39.2,4.24v7H51.22V7.84h4l6.44,11.1h.07c-.1-1.92-.15-3.29-.15-4.09v-7h2.83Z"/></svg>