<svg xmlns="http://www.w3.org/2000/svg" viewBox="0 0 201.95 245.41"><defs><style>.a{fill:#fff}</style></defs><path class="a" d="M65.29 66.74a11 11 0 0 1-6.45 2c-6.29 0-10.58-4-10.58-10s4.55-10 10.73-10a19 19 0 0 1 6.69 1.4A11.27 11.27 0 0 0 65 52.3l-.17.06a7.65 7.65 0 0 0-5.92-2.46c-3.59 0-7.72 2.91-7.72 8.7s4.21 8.64 8 8.64c3.38 0 5-1.57 6.45-2.8l.11.11ZM80.87 67.3a8.6 8.6 0 0 1 .07-1.07c-1.91.18-7.15.34-9.19.36 0-.51-.08-6.56 0-7.49.82 0 5.14 0 7.06.25a6.45 6.45 0 0 1-.08-1 7.45 7.45 0 0 1 .08-1.06c-1.64.14-3.76.27-7.06.27 0-.69.06-5.79.09-7 3.63 0 6.92.22 8.76.36a7.28 7.28 0 0 1-.06-1 6.32 6.32 0 0 1 .06-1c-1 .07-4.09.14-5.77.14s-4.27-.06-6-.14c.12 2.38.23 4.81.23 7.21v4.81c0 2.41-.11 4.84-.23 7.27 1.71-.08 4.33-.14 6-.14h2.34c1.32 0 2.71.06 3.72.11a7.13 7.13 0 0 1-.02-.88ZM87.14 58.87v2.22c0 2.41.11 4.84.22 7.24a12.8 12.8 0 0 0-3 0c.12-2.4.23-4.83.23-7.24v-4.81c0-2.4-.11-4.83-.23-7.24 1.07.08 2.41.14 3.48.14S89.93 49 91 49c3.16 0 6.06.93 6.06 4.45 0 3.72-3.71 5.06-5.84 5.34 1.37 1.71 6.28 7.68 7.9 9.5a15.62 15.62 0 0 0-1.75-.09 15.41 15.41 0 0 0-1.75.09 80.81 80.81 0 0 0-7-9.46Zm1.87-1c2.31 0 5.34-.77 5.34-4 0-2.78-2.43-3.66-4.34-3.66a24.79 24.79 0 0 0-2.71.14c-.08 2-.16 3.92-.16 5.93v1.54c.27.04 1.58.03 1.86.02ZM118.73 49a6.84 6.84 0 0 1-1.23.1 7 7 0 0 1-1.19-.1c.12 2.29.33 6.53.33 9.31v4.95c-1-1.08-12.68-13.16-13.86-14.44h-.92c0 1.78.09 3.71.09 7.23 0 4.51-.06 9.31-.29 12.26a6.84 6.84 0 0 1 1.23-.1 7.15 7.15 0 0 1 1.19.1c-.13-2.29-.34-6.53-.34-9.31v-5.27c1 1.08 12.75 13.32 13.87 14.83h.92c0-1.78-.1-3.77-.1-7.3 0-4.48.07-9.26.3-12.26ZM67.83 99.4a46.5 46.5 0 0 1-7.27-23.51H58a49 49 0 0 0 5.71 21.56 15.15 15.15 0 0 0 4.12 1.95Z"/><path class="a" d="M170.44 12.72s-63.19-.5-83.33-.49c-3.15 0-5.27.23-6 .27-24.89 1.61-43.6 23.43-43.68 47.23 0 6.92 1.82 14.71 4.81 25.24 4 13.9 8.58 29.85 8.58 29.85h2.52l-9.28-31.48h.07c6.87 13.19 22.66 23.83 40.58 23.83a44.52 44.52 0 0 0 25.72-7.69h.07L69 143.7h3.24s29.15-31 39.06-41.53c7.6-8.07 11.54-13.27 13.19-16 1.9-3.09 7.92-12 7.69-25.14h.08l18.19 82.65h2.61s-15.26-67.65-18.22-81.8c-2.92-13.92-6.36-22.55-10.07-27.48a21.33 21.33 0 0 0-4.21-1.74A45.34 45.34 0 0 1 130 59.73a45 45 0 1 1-16-34.29 28.41 28.41 0 0 1 4.76 1.13 46.91 46.91 0 0 0-20.47-12v-.07l72.11.45Z"/><path class="a" d="M74.14 107.4a22 22 0 0 1-4.82-1.33 52.31 52.31 0 0 0 20.17 13.86l1.92-2a45.59 45.59 0 0 1-17.27-10.53M140.29 103.8a44.8 44.8 0 0 1-34.8 16.43 43.5 43.5 0 0 1-8.55-.85l-2 2.18a46.74 46.74 0 0 0 10.74 1.25A47.47 47.47 0 0 0 141 106.89l-.68-3.09M157 24l-4.33 44.72h-.08a48.76 48.76 0 0 0-10-24.9A47.41 47.41 0 0 0 70 42.23l2 1.58a44.79 44.79 0 0 1 70.92 4.69c6.7 10.25 8.92 23.38 7.37 33a45.27 45.27 0 0 1-6 16.73l.75 3.33c5.31-8.23 8-15.56 10.11-34.28 1.53-14.38 4.3-43.28 4.3-43.28ZM18.5 221.91a5.64 5.64 0 0 0 1.7 2.09 6.27 6.27 0 0 0 2.42 1 12.14 12.14 0 0 0 2.75.31 9.63 9.63 0 0 0 2.26-.28 7.64 7.64 0 0 0 2.16-.87 5.35 5.35 0 0 0 1.62-1.52 3.78 3.78 0 0 0 .64-2.21 3.62 3.62 0 0 0-.64-2.21 6.14 6.14 0 0 0-1.64-1.52 12.21 12.21 0 0 0-2.29-1.13c-.86-.33-1.72-.66-2.57-1s-1.72-.71-2.58-1.1a9.93 9.93 0 0 1-2.28-1.44 6.84 6.84 0 0 1-1.62-2 6.53 6.53 0 0 1 .3-6.12 7.66 7.66 0 0 1 2.37-2.23 10.85 10.85 0 0 1 3.19-1.29 14.79 14.79 0 0 1 3.34-.41 15 15 0 0 1 3.86.46 8 8 0 0 1 3 1.49 6.81 6.81 0 0 1 2 2.65 9.4 9.4 0 0 1 .64 3.94h-3.28a5.66 5.66 0 0 0-.36-2.63 4.66 4.66 0 0 0-1.31-1.8 5.23 5.23 0 0 0-2-1.05 9.36 9.36 0 0 0-2.52-.33 12.59 12.59 0 0 0-2.24.2 7.31 7.31 0 0 0-2.1.7 4.46 4.46 0 0 0-1.6 1.36 3.71 3.71 0 0 0-.64 2.26 3 3 0 0 0 .46 1.65 4.7 4.7 0 0 0 1.24 1.28 9.93 9.93 0 0 0 1.77 1q1 .47 2.13.93l2.91 1.15a13.86 13.86 0 0 1 2.78 1.47 8.14 8.14 0 0 1 2.11 2.11 5.35 5.35 0 0 1 .84 3.08 7.09 7.09 0 0 1-.95 3.81 7.41 7.41 0 0 1-2.49 2.49 10.93 10.93 0 0 1-3.45 1.37 18.19 18.19 0 0 1-3.8.41 13.91 13.91 0 0 1-3.78-.52 8.85 8.85 0 0 1-3.22-1.64 8.21 8.21 0 0 1-2.24-2.82 9.18 9.18 0 0 1-.72-4.29h3.19a7.22 7.22 0 0 0 .64 3.2ZM57.1 227.31l.92-4.84h-.1a12.65 12.65 0 0 1-4 4 10 10 0 0 1-5.48 1.6 12.52 12.52 0 0 1-3.22-.39 7.07 7.07 0 0 1-2.54-1.23A5.62 5.62 0 0 1 41 224.2a8.1 8.1 0 0 1-.59-3.27 16.86 16.86 0 0 1 .41-3.14l3.65-17h3.24L44 217.9a11.68 11.68 0 0 0-.26 1.31 9 9 0 0 0-.1 1.36 4.87 4.87 0 0 0 .46 2.21 4 4 0 0 0 1.23 1.49 5.3 5.3 0 0 0 1.78.83 8.4 8.4 0 0 0 2.08.25 7.78 7.78 0 0 0 3.42-.77 10.23 10.23 0 0 0 3-2.18A14.15 14.15 0 0 0 58 219a19.35 19.35 0 0 0 1.6-4.55l2.93-13.63h3.24l-5.71 26.54ZM75.4 200.77l-1 4.78h.1a13.61 13.61 0 0 1 3.93-4.08 10.25 10.25 0 0 1 5.72-1.47 11.41 11.41 0 0 1 4.45.8 8.67 8.67 0 0 1 3.13 2.2 9 9 0 0 1 1.88 3.42 15 15 0 0 1 .62 4.42 19.61 19.61 0 0 1-1 6.15 18 18 0 0 1-2.9 5.5 15.59 15.59 0 0 1-4.58 4 11.81 11.81 0 0 1-6 1.55 12.79 12.79 0 0 1-3-.34 8.08 8.08 0 0 1-2.57-1.05 6.42 6.42 0 0 1-1.9-1.88 6.76 6.76 0 0 1-1-2.75h-.1l-3.28 15.06h-3.19l7.76-36.31Zm3.5 3.37a12.54 12.54 0 0 0-3.62 3.6 17.2 17.2 0 0 0-2.28 4.83 18.08 18.08 0 0 0-.77 5.12 7.87 7.87 0 0 0 1.93 5.61 7.13 7.13 0 0 0 5.47 2 8.76 8.76 0 0 0 4.95-1.3 11.86 11.86 0 0 0 3.55-3.54 17 17 0 0 0 2.14-4.76 18.73 18.73 0 0 0 .72-5 9 9 0 0 0-1.75-5.7 6.4 6.4 0 0 0-5.4-2.26 8.84 8.84 0 0 0-4.94 1.4ZM104.92 200.77l-1 4.78h.08a13.61 13.61 0 0 1 3.93-4.08 10.24 10.24 0 0 1 5.73-1.47 11.34 11.34 0 0 1 4.45.8 8.71 8.71 0 0 1 3.14 2.21 9 9 0 0 1 1.88 3.42 15 15 0 0 1 .61 4.42 19.6 19.6 0 0 1-1 6.15 18.2 18.2 0 0 1-2.9 5.5 15.59 15.59 0 0 1-4.58 4 11.81 11.81 0 0 1-6 1.55 12.72 12.72 0 0 1-3-.34 8.08 8.08 0 0 1-2.57-1.05 6.31 6.31 0 0 1-1.9-1.88 6.76 6.76 0 0 1-1-2.75h-.11l-3.24 15.07h-3.21l7.77-36.33Zm3.5 3.37a12.7 12.7 0 0 0-3.63 3.6 17.46 17.46 0 0 0-2.23 4.83 18.08 18.08 0 0 0-.77 5.12 7.91 7.91 0 0 0 1.92 5.61 7.15 7.15 0 0 0 5.48 2 8.76 8.76 0 0 0 4.91-1.3 12 12 0 0 0 3.55-3.54 16.94 16.94 0 0 0 2.13-4.76 18.73 18.73 0 0 0 .72-5 9 9 0 0 0-1.74-5.65 6.4 6.4 0 0 0-5.4-2.26 8.82 8.82 0 0 0-4.94 1.35ZM136.65 190.59l-7.92 36.72h-3.19l7.87-36.72ZM144 200.77l-5.7 26.54h-3.19l5.65-26.54Zm2.21-10.18-1.21 5.19h-3.24l1.13-5.19ZM149 217a11.52 11.52 0 0 0 .47 3.34 7.25 7.25 0 0 0 1.41 2.65 6.68 6.68 0 0 0 2.42 1.75 8.42 8.42 0 0 0 3.42.64 8.52 8.52 0 0 0 5.5-1.82 9.77 9.77 0 0 0 3.19-4.76h3.24a13.27 13.27 0 0 1-4.32 6.89 12.12 12.12 0 0 1-7.73 2.31q-5.29 0-8-3c-1.84-2-2.76-4.73-2.76-8.22a20.23 20.23 0 0 1 1-6.2 16.56 16.56 0 0 1 2.8-5.37 14.21 14.21 0 0 1 4.52-3.81 12.63 12.63 0 0 1 6.07-1.44 11.3 11.3 0 0 1 4.27.75 9 9 0 0 1 3.16 2.1 8.76 8.76 0 0 1 2 3.27 12.54 12.54 0 0 1 .67 4.22v2.26c0 .75-.1 1.53-.21 2.31H149.2a13 13 0 0 0-.2 2.13Zm18-5.87v-1a7.46 7.46 0 0 0-1.93-5.4 7 7 0 0 0-5.32-2 8.47 8.47 0 0 0-3.68.79 10.91 10.91 0 0 0-3 2.11 12 12 0 0 0-2.18 3 14.12 14.12 0 0 0-1.29 3.55h17.33c.01-.37.07-.72.07-1.05ZM179.85 200.77l-1.34 6.12h.1a14.82 14.82 0 0 1 3.81-4.68 9.06 9.06 0 0 1 5.81-1.8h1.34a2 2 0 0 1 .41.05l-.72 3.24h-1.85a9.26 9.26 0 0 0-3.83.87 9.53 9.53 0 0 0-2.91 2.19 12.19 12.19 0 0 0-2 3.11 18.82 18.82 0 0 0-1.21 3.6l-3 13.89h-3.19l5.66-26.54ZM14.86 168.3h175.71v2H14.86z"/></svg>