<svg xmlns="http://www.w3.org/2000/svg" viewBox="0 0 46 17"><path d="M4.81,6.66A2.07,2.07,0,0,0,3,7.52a4.07,4.07,0,0,0-.63,2.42c0,2.15.81,3.23,2.42,3.23a7.59,7.59,0,0,0,2.46-.51v1.71a6.8,6.8,0,0,1-2.65.5A4.05,4.05,0,0,1,1.4,13.59,5.41,5.41,0,0,1,.29,9.93,6.07,6.07,0,0,1,.83,7.29,4,4,0,0,1,2.41,5.56,4.56,4.56,0,0,1,4.81,5a6.49,6.49,0,0,1,2.82.68L7,7.3a8.25,8.25,0,0,0-1.08-.45A3.24,3.24,0,0,0,4.81,6.66Z"/><path d="M14.88,14.74H9.32V5.09h5.56V6.77H11.37V8.89h3.26v1.67H11.37v2.49h3.51Z"/><path d="M18.93,11v3.7h-2V5.09H19.7a4.79,4.79,0,0,1,2.91.72A2.54,2.54,0,0,1,23.55,8a2.54,2.54,0,0,1-.47,1.52,3.07,3.07,0,0,1-1.32,1c1.45,2.17,2.4,3.57,2.83,4.21H22.33L20,11Zm0-1.67h.66A2.52,2.52,0,0,0,21,9.05a1.17,1.17,0,0,0,.46-1,1.06,1.06,0,0,0-.47-1,2.85,2.85,0,0,0-1.47-.29h-.62Z"/><path d="M34.37,14.74h-2.6l-4.2-7.3h-.06c.08,1.29.13,2.21.13,2.76v4.54H25.81V5.09h2.58l4.19,7.23h0c-.06-1.26-.1-2.14-.1-2.66V5.09h1.85Z"/></svg>