<svg width="137" height="51" fill="none" xmlns="http://www.w3.org/2000/svg"><path d="M110.731 30.222c.377-1.259.252-2.518-.377-3.274-.628-.755-1.508-1.259-2.639-1.385l-21.87-.252c-.126 0-.251-.126-.377-.126-.126-.126-.126-.252 0-.377.126-.252.251-.378.503-.378l21.995-.252c2.639-.126 5.405-2.267 6.41-4.785l1.257-3.274c0-.126.126-.252 0-.378-1.383-6.422-7.164-11.208-13.951-11.208-6.285 0-11.69 4.03-13.575 9.697-1.257-.882-2.765-1.385-4.524-1.26-3.017.252-5.405 2.77-5.782 5.793-.126.756 0 1.511.126 2.267-4.902.126-8.924 4.155-8.924 9.192 0 .504 0 .882.125 1.386 0 .251.252.377.377.377h40.346c.252 0 .503-.126.503-.377l.377-1.386Z" fill="#f48120"/><path d="M117.644 16.118h-.628c-.126 0-.252.126-.377.252l-.88 3.022c-.377 1.26-.252 2.519.377 3.275.628.755 1.508 1.259 2.639 1.385l4.651.252c.125 0 .251.126.377.126.125.125.125.251 0 .377-.126.252-.252.378-.503.378l-4.776.252c-2.64.126-5.405 2.267-6.41 4.785l-.252 1.133c-.125.126 0 .378.252.378h16.591c.251 0 .377-.126.377-.378.251-1.007.502-2.14.502-3.274 0-6.548-5.404-11.963-11.94-11.963Z" fill="#faad3f"/><path d="M131.218 38.785a1.128 1.128 0 0 1-1.131-1.133c0-.63.503-1.133 1.131-1.133.629 0 1.132.503 1.132 1.133s-.503 1.133-1.132 1.133Zm0-2.015a.86.86 0 0 0-.879.882.86.86 0 0 0 .879.881.86.86 0 0 0 .88-.881.86.86 0 0 0-.88-.882Zm.503 1.511h-.251l-.252-.377h-.251v.377h-.251v-1.133h.628c.251 0 .377.126.377.378 0 .126-.126.252-.251.378l.251.377Zm-.377-.63c.126 0 .126 0 .126-.125 0-.126-.126-.126-.126-.126h-.377v.378l.377-.126ZM18.602 36.519h2.765v7.556h4.776v2.393h-7.541v-9.948Zm10.432 4.912c0-2.897 2.262-5.163 5.404-5.163 3.143 0 5.28 2.266 5.28 5.163 0 2.896-2.263 5.163-5.405 5.163-3.017 0-5.28-2.267-5.28-5.163Zm7.918 0c0-1.511-1.005-2.77-2.514-2.77-1.508 0-2.513 1.259-2.513 2.644 0 1.385 1.005 2.644 2.513 2.644 1.509.252 2.514-1.007 2.514-2.518Zm6.159.63v-5.541h2.765v5.54c0 1.385.754 2.14 1.886 2.14 1.13 0 1.885-.629 1.885-2.014V36.52h2.765v5.54c0 3.274-1.885 4.66-4.65 4.66-2.891-.127-4.651-1.512-4.651-4.66Zm13.449-5.541h3.896c3.52 0 5.656 2.014 5.656 4.91 0 2.897-2.137 5.038-5.656 5.038h-3.77l-.126-9.948Zm3.896 7.43c1.634 0 2.765-.882 2.765-2.52 0-1.637-1.131-2.518-2.765-2.518h-1.131v5.037h1.131Zm9.552-7.43h7.919v2.392h-5.154v1.637h4.65v2.267h-4.65v3.652h-2.765v-9.948Zm11.815 0h2.765v7.555h4.776v2.393h-7.541v-9.948Zm14.705-.127h2.766l4.273 10.075h-3.017l-.754-1.763H95.9l-.754 1.763h-2.891l4.273-10.075Zm2.514 6.17-1.131-2.77-1.131 2.77h2.262Zm8.044-6.043h4.651c1.508 0 2.513.377 3.268 1.133.628.63.879 1.385.879 2.267 0 1.51-.754 2.518-2.011 3.022l2.388 3.526h-3.142l-2.011-3.023h-1.257v3.023h-2.765v-9.948Zm4.525 4.785c.88 0 1.508-.504 1.508-1.134 0-.755-.628-1.133-1.508-1.133h-1.76v2.393h1.76v-.126Zm8.17-4.785h8.044v2.266h-5.279v1.511h4.776v2.267h-4.776v1.511h5.404v2.393h-8.169v-9.948Zm-107.212 6.17c-.377.881-1.257 1.51-2.263 1.51-1.508 0-2.513-1.258-2.513-2.643 0-1.386 1.005-2.645 2.513-2.645 1.132 0 2.011.756 2.389 1.637h2.89c-.502-2.392-2.513-4.156-5.279-4.156-3.016 0-5.404 2.267-5.404 5.163 0 2.897 2.262 5.163 5.279 5.163 2.64 0 4.65-1.763 5.279-4.03h-2.891Z" fill="#000"/></svg>