<?xml version="1.0" encoding="UTF-8"?>
<svg width="200px" height="67px" viewBox="0 0 200 67" version="1.1" xmlns="http://www.w3.org/2000/svg" xmlns:xlink="http://www.w3.org/1999/xlink">
    <!-- Generator: Sketch 50.2 (55047) - http://www.bohemiancoding.com/sketch -->
    <title>cloudflare-logo</title>
    <desc>Created with Sketch.</desc>
    <defs></defs>
    <g id="Page-1" stroke="none" stroke-width="1" fill="none" fill-rule="evenodd">
        <g id="cloudflare-logo" fill="#A2B0CD" fill-rule="nonzero">
            <path d="M198.243386,53.968254 C197.301587,53.968254 196.550265,53.2169312 196.550265,52.2751323 C196.550265,51.3544974 197.301587,50.5820106 198.243386,50.5820106 C199.164021,50.5820106 199.936508,51.3333333 199.936508,52.2751323 C199.936508,53.1957672 199.164021,53.968254 198.243386,53.968254 Z M198.243386,50.9100529 C197.492063,50.9100529 196.878307,51.5238095 196.878307,52.2751323 C196.878307,53.026455 197.492063,53.6402116 198.243386,53.6402116 C198.994709,53.6402116 199.608466,53.026455 199.608466,52.2751323 C199.608466,51.5238095 198.994709,50.9100529 198.243386,50.9100529 Z M199.100529,53.1640212 L198.708995,53.1640212 L198.37037,52.5291005 L197.925926,52.5291005 L197.925926,53.1640212 L197.566138,53.1640212 L197.566138,51.3015873 L198.455026,51.3015873 C198.846561,51.3015873 199.089947,51.5555556 199.089947,51.9153439 C199.089947,52.1904762 198.920635,52.3915344 198.698413,52.4761905 L199.100529,53.1640212 Z M198.433862,52.1904762 C198.571429,52.1904762 198.708995,52.1058201 198.708995,51.9153439 C198.708995,51.6931217 198.592593,51.6402116 198.433862,51.6402116 L197.873016,51.6402116 L197.873016,52.2010582 L198.433862,52.2010582 L198.433862,52.1904762 Z M21.4497354,50.4126984 L25.7883598,50.4126984 L25.7883598,62.2328042 L33.3227513,62.2328042 L33.3227513,66.021164 L21.4497354,66.021164 L21.4497354,50.4126984 Z M37.8095238,58.2539683 L37.8095238,58.2010582 C37.8095238,53.7248677 41.4285714,50.0740741 46.2433862,50.0740741 C51.0582011,50.0740741 54.6137566,53.6613757 54.6137566,58.1375661 L54.6137566,58.1904762 C54.6137566,62.6666667 50.994709,66.3174603 46.1798942,66.3174603 C41.3650794,66.3174603 37.8095238,62.7301587 37.8095238,58.2539683 Z M50.2116402,58.2539683 L50.2116402,58.2010582 C50.2116402,55.9470899 48.6031746,54 46.2010582,54 C43.8412698,54 42.2539683,55.9153439 42.2539683,58.1693122 L42.2539683,58.2222222 C42.2539683,60.4761905 43.8624339,62.4232804 46.2328042,62.4232804 C48.6243386,62.4232804 50.2116402,60.5079365 50.2116402,58.2539683 Z M59.9259259,59.1746032 L59.9259259,50.4126984 L64.3174603,50.4126984 L64.3174603,59.0899471 C64.3174603,61.3439153 65.4603175,62.4021164 67.1851852,62.4021164 C68.9100529,62.4021164 70.0529101,61.3756614 70.0529101,59.2063492 L70.0529101,50.4126984 L74.4444444,50.4126984 L74.4444444,59.0687831 C74.4444444,64.1058201 71.5767196,66.3068783 67.1322751,66.3068783 C62.7089947,66.2962963 59.9259259,64.0634921 59.9259259,59.1746032 Z M81.0687831,50.4126984 L87.0793651,50.4126984 C92.6455026,50.4126984 95.8941799,53.6084656 95.8941799,58.1164021 L95.8941799,58.1693122 C95.8941799,62.6772487 92.6137566,66.010582 86.994709,66.010582 L81.0687831,66.010582 L81.0687831,50.4126984 Z M87.1534392,62.1798942 C89.7354497,62.1798942 91.4603175,60.7619048 91.4603175,58.2328042 L91.4603175,58.1798942 C91.4603175,55.6719577 89.7354497,54.2328042 87.1534392,54.2328042 L85.3968254,54.2328042 L85.3968254,62.1587302 L87.1534392,62.1587302 L87.1534392,62.1798942 Z M102.179894,50.4126984 L114.666667,50.4126984 L114.666667,54.2010582 L106.486772,54.2010582 L106.486772,56.8677249 L113.883598,56.8677249 L113.883598,60.4550265 L106.486772,60.4550265 L106.486772,66.021164 L102.179894,66.021164 L102.179894,50.4126984 Z M120.677249,50.4126984 L124.984127,50.4126984 L124.984127,62.2328042 L132.550265,62.2328042 L132.550265,66.021164 L120.666667,66.021164 L120.666667,50.4126984 L120.677249,50.4126984 Z M143.851852,50.2962963 L148.021164,50.2962963 L154.666667,66.010582 L150.021164,66.010582 L148.878307,63.2275132 L142.867725,63.2275132 L141.756614,66.010582 L137.216931,66.010582 L143.851852,50.2962963 Z M147.661376,59.8624339 L145.936508,55.4391534 L144.179894,59.8624339 L147.661376,59.8624339 Z M160.243386,50.4126984 L167.619048,50.4126984 C170.010582,50.4126984 171.650794,51.026455 172.708995,52.1058201 C173.62963,52.994709 174.095238,54.1904762 174.095238,55.7460317 L174.095238,55.7989418 C174.095238,58.1904762 172.814815,59.7777778 170.899471,60.5820106 L174.624339,66.031746 L169.619048,66.031746 L166.47619,61.3015873 L164.582011,61.3015873 L164.582011,66.031746 L160.243386,66.031746 L160.243386,50.4126984 Z M167.417989,57.8941799 C168.888889,57.8941799 169.724868,57.1746032 169.724868,56.0529101 L169.724868,56 C169.724868,54.7724868 168.835979,54.1587302 167.386243,54.1587302 L164.550265,54.1587302 L164.550265,57.8835979 L167.417989,57.8941799 Z M180.328042,50.4126984 L192.878307,50.4126984 L192.878307,54.0846561 L184.613757,54.0846561 L184.613757,56.4444444 L192.095238,56.4444444 L192.095238,59.8624339 L184.613757,59.8624339 L184.613757,62.3386243 L192.984127,62.3386243 L192.984127,66.010582 L180.328042,66.010582 L180.328042,50.4126984 Z M11.989418,60.0846561 C11.3756614,61.4497354 10.0952381,62.4232804 8.42328042,62.4232804 C6.06349206,62.4232804 4.44444444,60.4444444 4.44444444,58.2222222 L4.44444444,58.1693122 C4.44444444,55.9153439 6.03174603,54 8.39153439,54 C10.1693122,54 11.5343915,55.0899471 12.0952381,56.5820106 L16.6560847,56.5820106 C15.9365079,52.8571429 12.6455026,50.0952381 8.42328042,50.0952381 C3.61904762,50.1058201 0,53.7460317 0,58.2222222 L0,58.2751323 C0,62.7619048 3.56613757,66.3492063 8.37037037,66.3492063 C12.4867725,66.3492063 15.7142857,63.6825397 16.5502646,60.1164021 L11.989418,60.0846561 Z" id="Shape"></path>
            <polygon id="Shape" points="187.756614 25.5132275 175.820106 18.6666667 173.756614 17.7777778 124.931217 18.1164021 124.931217 42.8994709 187.746032 42.8994709"></polygon>
            <path d="M166.021164,40.6137566 C166.603175,38.6137566 166.380952,36.7724868 165.407407,35.4074074 C164.518519,34.1587302 163.015873,33.4285714 161.206349,33.3439153 L126.962963,32.8994709 C126.740741,32.8994709 126.550265,32.7830688 126.433862,32.6243386 C126.31746,32.4550265 126.296296,32.2328042 126.349206,32.010582 C126.465608,31.6719577 126.793651,31.4285714 127.153439,31.3968254 L161.703704,30.952381 C165.78836,30.7619048 170.243386,27.4497354 171.798942,23.3862434 L173.777778,18.2433862 C173.862434,18.021164 173.89418,17.7989418 173.830688,17.5767196 C171.619048,7.51322751 162.634921,0 151.89418,0 C141.989418,0 133.587302,6.4021164 130.582011,15.2698413 C128.634921,13.8201058 126.15873,13.047619 123.492063,13.2910053 C118.730159,13.7671958 114.920635,17.5767196 114.455026,22.3280423 C114.338624,23.5555556 114.42328,24.7513228 114.708995,25.8624339 C106.952381,26.0846561 100.740741,32.4232804 100.740741,40.2433862 C100.740741,40.9417989 100.793651,41.6296296 100.878307,42.3280423 C100.931217,42.6666667 101.216931,42.9100529 101.544974,42.9100529 L164.751323,42.9100529 C165.111111,42.9100529 165.449735,42.6560847 165.555556,42.2962963 L166.021164,40.6137566 Z" id="Shape"></path>
            <path d="M176.931217,18.6137566 C176.624339,18.6137566 176.296296,18.6137566 175.989418,18.6455026 C175.767196,18.6455026 175.57672,18.8148148 175.492063,19.037037 L174.15873,23.6825397 C173.57672,25.6825397 173.798942,27.5238095 174.772487,28.8888889 C175.661376,30.1375661 177.164021,30.8677249 178.973545,30.952381 L186.26455,31.3968254 C186.486772,31.3968254 186.677249,31.5132275 186.793651,31.6719577 C186.910053,31.8412698 186.931217,32.0846561 186.878307,32.2857143 C186.761905,32.6243386 186.433862,32.8677249 186.074074,32.8994709 L178.47619,33.3439153 C174.359788,33.5343915 169.936508,36.8465608 168.380952,40.9100529 L167.820106,42.3280423 C167.703704,42.6031746 167.904762,42.8888889 168.21164,42.8888889 L194.285714,42.8888889 C194.592593,42.8888889 194.867725,42.6984127 194.952381,42.3915344 C195.396825,40.7830688 195.650794,39.0793651 195.650794,37.3333333 C195.650794,27.015873 187.248677,18.6137566 176.931217,18.6137566" id="Shape"></path>
        </g>
    </g>
</svg>