<svg width="169" height="33" fill="none" xmlns="http://www.w3.org/2000/svg"><path d="M53.956 8.276c2.426 0 4.367.81 5.984 2.485l.108.108 2.156-2.107-.054-.108c-1.94-2.16-4.906-3.35-8.302-3.35-6.685 0-11.59 4.647-11.59 11.076 0 6.43 4.851 11.076 11.536 11.076 3.397 0 6.362-1.189 8.356-3.404l.054-.108-2.156-2.107-.108.108c-1.617 1.675-3.612 2.54-5.984 2.54-4.852 0-8.356-3.404-8.356-8.105 0-4.7 3.558-8.104 8.356-8.104Zm17.467 16.37c-3.18 0-5.391-2.323-5.391-5.564 0-3.296 2.21-5.565 5.39-5.565 3.181 0 5.392 2.269 5.392 5.565 0 3.295-2.21 5.564-5.391 5.564Zm0-13.939c-5.014 0-8.626 3.512-8.626 8.375 0 4.862 3.612 8.374 8.626 8.374 5.013 0 8.625-3.512 8.625-8.374 0-4.863-3.666-8.375-8.625-8.375Zm18.33 13.94c-3.181 0-5.446-2.324-5.446-5.62 0-3.295 2.21-5.618 5.445-5.618 3.18 0 5.391 2.323 5.391 5.619 0 3.295-2.21 5.619-5.39 5.619Zm5.39-11.67c-1.348-1.567-3.288-2.378-5.606-2.378-4.96 0-8.41 3.458-8.41 8.429 0 4.97 3.45 8.428 8.41 8.428 2.372 0 4.42-.918 5.714-2.54v2.324h3.073V4.224h-3.235l.054 8.752Zm13.532.432c2.641 0 4.636 1.783 5.013 4.376h-9.973c.323-2.593 2.264-4.376 4.96-4.376Zm0-2.702c-4.744 0-8.141 3.512-8.141 8.375 0 4.916 3.558 8.374 8.734 8.374 2.695 0 4.905-.918 6.415-2.647l.054-.054-1.779-2.053-.108.108c-1.132 1.242-2.642 1.89-4.528 1.89-3.019 0-5.23-1.728-5.661-4.484h12.938v-.108c.054-.27.054-.648.054-.918.054-5.025-3.288-8.483-7.978-8.483Zm22.75 11.67c-.971 1.46-2.48 2.27-4.367 2.27-3.289 0-5.499-2.27-5.499-5.565 0-3.296 2.264-5.565 5.499-5.565 1.887 0 3.396.756 4.367 2.269l.054.108 2.479-1.567-.053-.108c-1.294-2.215-3.774-3.512-6.793-3.512-5.068 0-8.787 3.512-8.787 8.375 0 4.862 3.719 8.374 8.787 8.374 3.019 0 5.499-1.297 6.793-3.566l.053-.108-2.479-1.513-.054.108Zm12.237 2.27c-3.18 0-5.391-2.324-5.391-5.565 0-3.296 2.211-5.565 5.391-5.565 3.181 0 5.391 2.269 5.391 5.565 0 3.295-2.21 5.564-5.391 5.564Zm0-13.94c-5.013 0-8.625 3.512-8.625 8.375 0 4.862 3.612 8.374 8.625 8.374 5.014 0 8.626-3.512 8.626-8.374 0-4.863-3.666-8.375-8.626-8.375Zm22.211 0-5.499 12.643-5.391-12.643h-3.288l7.062 16.155.054.054h3.127L169 10.707h-3.127ZM17.149 0C7.698 0 0 7.638 0 16.957v.076l2.896 1.68h.076c1.83-1.221 4.04-1.68 6.25-1.298 1.524.306 2.973.993 4.116 2.063l.533.458.305-.611c.305-.611.61-1.146.915-1.68.152-.23.305-.382.457-.612l.305-.382-.381-.305c-1.6-1.299-3.506-2.215-5.564-2.597-1.981-.382-3.963-.306-5.792.306C5.488 8.02 10.823 3.743 17.149 3.743c3.582 0 6.935 1.375 9.45 3.895a12.55 12.55 0 0 1 3.583 6.417c-1.143-.382-2.363-.535-3.582-.535h-.23c-.456 0-.914.076-1.447.076h-.076c-.153 0-.382.077-.534.077-.305.076-.534.076-.838.152l-.229.077-.686.229h-.076c-.534.153-.991.382-1.525.61-.228.077-.457.23-.685.383h-.077c-1.143.687-2.21 1.527-3.048 2.597l-.076.153c-.23.305-.382.534-.534.687-.152.153-.229.382-.381.611l-.076.153c-.153.23-.229.458-.305.611v.076a9.112 9.112 0 0 0-.61 1.528v.076a13.022 13.022 0 0 0-.61 3.896v1.451c0 .153.077.382.077.535.38 1.833 1.219 3.59 2.515 5.194l.076.076.076-.076c.534-.611 1.753-2.52 1.905-3.666a7.914 7.914 0 0 1-.914-3.667 8.12 8.12 0 0 1 7.698-8.096h.305c1.753-.077 3.506.458 4.954 1.45h.076l2.896-1.68v-.076c0-4.507-1.753-8.784-5.03-11.992C25.99 1.757 21.72 0 17.149 0Z" fill="#F07"/></svg>