<svg xmlns="http://www.w3.org/2000/svg" viewBox="0 0 142.8 50" style="enable-background:new 0 0 142.8 50" xml:space="preserve"><path d="M25 4.2v4.2c9.2 0 16.7 7.5 16.7 16.7S34.2 41.8 25 41.8V46c11.5 0 20.8-9.3 20.8-20.8 0-11.7-9.3-21-20.8-21z"/><path d="M25 4.2V0C11.2 0 0 11.2 0 25s11.2 25 25 25v-4.2C13.5 45.8 4.2 36.5 4.2 25S13.5 4.2 25 4.2z"/><path d="M25 8.3C15.8 8.3 8.3 15.8 8.3 25S15.8 41.7 25 41.7v-4.2c-6.9 0-12.5-5.6-12.5-12.5S18.1 12.5 25 12.5V8.3z"/><path d="M70.6 10.5 69 12.4c-.9-1-2.2-1.6-3.6-1.6-2.5 0-4.2 1.9-4.2 4.9s1.6 4.9 4.1 4.9c1.5 0 2.4-.6 3.9-1.8l1.6 1.9c-1.4 1.5-3.4 2.4-5.5 2.4-4.4 0-7-3.2-7-7.4s2.5-7.3 7-7.3c2.1 0 4 .7 5.3 2.1M73.8 17.8c0 2 1.1 3.2 2.6 3.2s2.7-1.3 2.7-3.2-1.1-3.2-2.7-3.2-2.6 1.2-2.6 3.2m7.9 0c0 2.9-2.4 5.3-5.3 5.3s-5.3-2.4-5.3-5.3 2.4-5.3 5.3-5.3 5.3 2.4 5.3 5.3M83 8.7h2.6v14.1H83zM87.4 8.7H90v14.1h-2.6zM93.8 16.6h4.7c0-1.2-.9-2.2-2.1-2.2h-.2c-1.2-.1-2.3.9-2.4 2.2m5.8 3 1.4 1.6c-1.1 1.3-2.8 2-4.5 2-2.8.2-5.1-1.9-5.3-4.7v-.7c0-3.2 1.9-5.5 5.1-5.5s4.7 1.9 4.7 5.1v1h-7.3c0 .7.4 1.4.9 1.9.6.5 1.3.7 2 .7 1.3-.1 1.9-.5 3-1.4M107.1 14.5c-1.7 0-2.6 1.4-2.6 3.2 0 1.8.9 3.2 2.6 3.2 1 0 1.7-.4 2.8-1.6l1.7 1.4c-1 1.5-2.7 2.4-4.5 2.4-3.1 0-5.2-2-5.2-5.4-.2-2.8 1.8-5.2 4.6-5.4h.7c1.6 0 3.2.7 4.2 1.9l-1.6 1.6c-.7-.8-1.7-1.3-2.7-1.3M118.6 22.7c-.7.3-1.5.4-2.3.4-2.1 0-2.9-1-2.9-2.9v-5.5h-1.8v-1.9h1.8V9.6h2.5v3.1h2.4v1.9H116v5.2c0 .7.3.9 1 .9.4 0 .9-.1 1.3-.2l.3 2.2zM119.7 12.7h2.6v10.1h-2.6zM133 12.7l-3.5 10.1h-3.1L123 12.7h2.7l1 3.3c.5 1.8 1 3.2 1.3 4.6.3-1.4.8-2.8 1.3-4.6l1-3.3h2.7zM135.5 16.6h4.7c0-1.2-.9-2.2-2.1-2.2h-.2c-1.2 0-2.2.9-2.4 2.2m5.8 3 1.4 1.6c-1.1 1.3-2.8 2-4.5 2-2.8.2-5.1-2-5.3-4.7v-.6c0-3.2 1.9-5.4 5.1-5.4s4.8 1.9 4.8 5v1h-7.3c.1 1.5 1.3 2.6 2.8 2.5 1.3-.1 1.9-.5 3-1.4M70.9 41.3h-2.8V35h-6.2v6.3h-2.8V27.2h2.8v5.5h6.2v-5.5h2.8zM74.8 35h4.8c0-1.2-.9-2.2-2.1-2.2h-.2c-1.3 0-2.4 1-2.5 2.2m5.8 3 1.4 1.6c-1.1 1.3-2.8 2-4.5 2-2.8.2-5.1-1.9-5.3-4.7v-.7c0-3.2 1.9-5.5 5.1-5.5s4.8 1.9 4.8 5v1h-7.2c0 .7.4 1.4.9 1.9s1.2.7 1.9.7c1.1.1 1.7-.3 2.9-1.3M89.5 37.1v-.6l-1.7.3c-1.5.3-2.5.7-2.5 1.6 0 .6.6 1 1.6 1 1.3.2 2.5-.8 2.7-2.1-.1 0-.1-.1-.1-.2m2.5-2.7v6.8h-2.3v-1c-.8 1-2 1.5-3.3 1.4-1.9 0-3.6-.8-3.6-2.9 0-2.3 2.1-3.1 4.4-3.6l2.4-.4v-.2c0-1-.7-1.5-1.9-1.5-1.4 0-2.1.6-3.2 1.6l-1.6-1.5c1.1-1.5 2.9-2.3 4.7-2.3 3 .1 4.5 1.5 4.4 3.6"/><path d="M93.8 16.6h4.7c0-1.2-.9-2.2-2.1-2.2h-.2c-1.2-.1-2.3.9-2.4 2.2m5.8 3 1.4 1.6c-1.1 1.3-2.8 2-4.5 2-2.8.2-5.1-1.9-5.3-4.7v-.7c0-3.2 1.9-5.5 5.1-5.5s4.7 1.9 4.7 5.1v1h-7.3c0 .7.4 1.4.9 1.9.6.5 1.3.7 2 .7 1.3-.1 1.9-.5 3-1.4M93.7 27.2h2.6v14.1h-2.6zM104.3 41.1c-.7.3-1.5.4-2.3.4-2.1 0-2.9-1-2.9-2.8v-5.5h-1.8v-2h1.8V28h2.5v3.1h2.4v2h-2.4v5.2c0 .7.3.9 1 .9.4 0 .9-.1 1.3-.2l.4 2.1zM114.3 34.3v6.9h-2.5v-6.1c0-1.3-.7-2.1-1.9-2.1-.6 0-1.1.2-1.5.6-.4.4-.6.9-.6 1.5v6.1h-2.5v-14h2.5v4.9c.7-.8 1.8-1.3 2.9-1.3 1-.1 1.9.3 2.6 1 .8.7 1.1 1.6 1 2.5M122.4 10c0 .6-.4 1.2-.9 1.4-.8.3-1.6-.1-1.9-.9-.3-.8.1-1.6.9-1.9.2-.1.3-.1.5-.1.4 0 .8.1 1.1.4.3.3.4.7.3 1.1"/></svg>