<svg width="240" height="35" xmlns="http://www.w3.org/2000/svg"><g fill="#FFF" fill-rule="evenodd"><path d="M27.247 8.645H13.113c-2.136 0-2.962 1.069-2.962 2.72V23.07c0 1.652.826 2.866 2.962 2.866h14.134l.097 7.868s-9.422.777-17.241.777C3.35 34.581 0 30.161 0 25.256V9.18C0 4.274 3.351 0 10.103 0c8.062 0 17.241.583 17.241.583l-.097 8.062M47.308 11.025v12.386c0 1.65.728 2.768 2.866 2.768h5.73c2.089 0 2.866-1.117 2.866-2.768V11.025c0-1.651-.777-2.67-2.866-2.67h-5.73c-2.138 0-2.866 1.019-2.866 2.67ZM37.206 25.207V9.374c0-4.905 3.4-9.131 10.15-9.131h11.317c6.75 0 10.2 4.226 10.2 9.13v15.834c0 4.858-3.45 9.132-10.2 9.132H47.356c-6.75 0-10.15-4.274-10.15-9.132ZM112.683 34.29h-8.062c-1.7 0-2.186-.243-3.109-1.603L90.925 17.29h-.34V34.29H80.481V.292h8.11c2.138 0 2.09.194 2.673 1.02.388.582 9.276 13.065 11.122 16.028h.242V.292h10.054V34.29M145.857.292h11.366s-7.918 29.286-8.79 32.541c-.39 1.408-.924 1.603-1.701 1.603h-14.183c-.777 0-1.262-.195-1.65-1.603-.924-3.255-8.84-32.541-8.84-32.541h11.365l5.925 24.138h.583L145.857.292M175.534 11.025v12.386c0 1.65.728 2.768 2.866 2.768h5.73c2.09 0 2.867-1.117 2.867-2.768V11.025c0-1.651-.778-2.67-2.866-2.67h-5.73c-2.139 0-2.867 1.019-2.867 2.67Zm-10.102 14.182V9.374c0-4.905 3.4-9.131 10.15-9.131H186.9c6.752 0 10.2 4.226 10.2 9.13v15.834c0 4.858-3.448 9.132-10.2 9.132h-11.317c-6.75 0-10.15-4.274-10.15-9.132ZM221.288 12.773 228.136.292h11.511l-13.26 24.09v9.908h-10.102v-9.763L202.93.292h11.51l6.849 12.481"/></g></svg>