<svg xmlns="http://www.w3.org/2000/svg" width="1312.859" height="351.76" viewBox="0 0 347.361 93.07"><g style="fill:#19305c;fill-opacity:1"><path style="fill:#19305c;fill-opacity:1;stroke-width:.26458332" class="st0" d="M647.979 560.32h-.132v-3.545h-9.42v33.522h10.028v-18.415c0-5.08 3.255-6.032 7.911-6.164V555.61c-5.794 0-7.54 3.095-8.387 4.71zM741.377 560.32h-.132v-3.545h-9.42v33.522h10.028v-18.415c0-5.08 3.255-6.032 7.911-6.164V555.61c-5.794 0-7.54 3.095-8.387 4.71zM686.608 558.521c-1.799-1.561-5.37-2.91-8.572-2.91-5.98 0-8.097 3.069-9.128 4.71h-.133v-3.546h-9.366v33.522h10.028v-18.23c0-2.063 0-7.01 5.741-7.01 5.265 0 5.265 4.603 5.265 6.958v18.309h10.028v-20.955c0-6.615-2.064-9.287-3.863-10.848zM908.011 573.893c0-10.213-7.487-18.309-17.7-18.309s-17.568 8.626-17.568 17.992c0 9.975 8.149 17.753 17.753 17.753 3.44 0 6.773-1.032 9.552-3.016 2.83-1.931 5.185-4.842 6.826-8.572h-10.266c-1.402 1.746-3.016 3.148-6.112 3.148-3.916 0-7.25-2.355-7.858-6.35h25.135c.133-.767.238-1.323.238-2.646zm-25.24-4.1c.423-1.985 2.407-5.742 7.62-5.742 5.212 0 7.196 3.757 7.62 5.741zM865.81 558.495c-1.825-1.562-5.37-2.91-8.599-2.91-5.98 0-8.096 3.095-9.128 4.709h-.132V556.8h-9.366v33.523h10.028v-18.256c0-2.064 0-7.012 5.741-7.012 5.265 0 5.265 4.604 5.265 6.959v18.335h10.028V569.37c.026-6.641-2.037-9.287-3.837-10.874z" transform="translate(-561.65 -536.751)"/><path transform="matrix(.26458 0 0 .26458 1 1)" style="fill:#19305c;fill-opacity:1" class="st0" d="M838.6 71.9h-18.7v28.7h18.7v98h37.9v-98h18.2V71.9h-18.2V39.1l-37.9 21.8z"/><path style="fill:#19305c;fill-opacity:1;stroke-width:.26458332" class="st0" d="M766.406 569.475c-2.645-.794-5.132-1.8-5.132-3.625 0-.9.714-2.223 2.83-2.223 2.964 0 3.07 1.8 3.123 2.54h9.816c-.847-8.81-8.44-10.556-12.833-10.556-6.932 0-12.964 4.392-12.964 11.033 0 4.524 3.625 7.355 7.964 8.731 6.376 2.46 8.863 2.778 8.863 5.371 0 1.614-1.799 2.593-3.492 2.593-.423 0-3.387 0-3.784-3.07h-9.948c.9 8.811 8.546 11.087 13.626 11.087 7.408 0 13.626-4.34 13.626-11.377 0-7.25-6.032-8.943-11.695-10.504zM817.498 555.637c-12.224 0-18.072 9.604-18.072 17.833 0 8.228 5.874 17.833 18.072 17.833 12.223 0 18.07-9.605 18.07-17.833 0-8.229-5.873-17.833-18.07-17.833zm0 26.3c-4.366 0-8.044-3.572-8.044-8.467 0-4.895 3.678-8.467 8.044-8.467 4.365 0 8.043 3.572 8.043 8.467 0 4.895-3.704 8.467-8.043 8.467zM728.783 573.893c0-10.213-7.488-18.309-17.7-18.309-10.214 0-17.57 8.626-17.57 17.992 0 9.975 8.15 17.753 17.754 17.753 3.44 0 6.774-1.032 9.552-3.016 2.83-1.931 5.186-4.842 6.826-8.572h-10.266c-1.402 1.746-3.016 3.148-6.112 3.148-3.916 0-7.25-2.355-7.858-6.35h25.136c.105-.767.238-1.323.238-2.646zm-25.242-4.1c.424-1.985 2.408-5.742 7.62-5.742 5.213 0 7.197 3.757 7.62 5.741zM617.367 555.69c-5.371 0-9.499 1.852-12.462 4.63v-22.569L562.65 562.2v42.518l24.844-14.367c-7.355-2.196-12.515-8.969-12.515-17.039 0-9.763 7.62-17.674 17.569-17.674 4.842 0 9.18 1.773 12.382 4.683a17.63 17.63 0 0 1 5.292 9.26H600.169c-1.138-2.275-3.122-4.683-7.25-4.683-4.736-.238-7.91 3.652-7.91 8.44 0 4.843 3.174 8.44 7.91 8.44 4.128 0 6.112-2.407 7.197-4.444h10.133a17.987 17.987 0 0 1-5.424 9.154c2.964 2.858 7.144 4.763 12.595 4.763 12.197 0 18.07-9.604 18.07-17.807-.052-8.149-5.926-17.753-18.123-17.753zm0 26.273c-4.34 0-8.044-3.572-8.044-8.467 0-4.894 3.678-8.466 8.044-8.466 4.339 0 8.043 3.572 8.043 8.466 0 4.895-3.678 8.467-8.043 8.467z" transform="translate(-561.65 -536.751)"/><path transform="matrix(.26458 0 0 .26458 1 1)" style="fill:#19305c;fill-opacity:1" class="st0" d="M684 300.2h30.2v-7.1h-20.4l18.9-27v-7.6H686v7.2h18.1L684 294.1z"/><path style="fill:#19305c;fill-opacity:1;stroke-width:.26458332" class="st0" d="M758.284 605.855c-3.096 0-5.662 2.487-5.662 5.794 0 3.122 2.487 5.821 5.609 5.821 1.72 0 4.233-.9 5.292-3.757h-2.064a3.541 3.541 0 0 1-3.149 1.852c-1.402 0-3.095-.873-3.625-3.016h9.155c.027-.132.053-.688.053-1.058 0-3.202-2.62-5.636-5.61-5.636zm-3.599 5.133c.106-1.614 1.561-3.228 3.572-3.228 1.985 0 3.466 1.614 3.572 3.228z" transform="translate(-561.65 -536.751)"/><path transform="matrix(.26458 0 0 .26458 1 1)" style="fill:#19305c;fill-opacity:1" class="st0" d="m783.7 258.5 16.6 40.9-6.1 14.8h8.1l23.1-55.7h-8.5l-12.5 32.4-12.3-32.4z"/><path style="fill:#19305c;fill-opacity:1;stroke-width:.26458332" class="st0" d="M714.125 605.855c-3.096 0-5.662 2.487-5.662 5.794 0 3.122 2.487 5.821 5.609 5.821 1.72 0 4.233-.9 5.292-3.757H717.3a3.541 3.541 0 0 1-3.149 1.852c-1.402 0-3.095-.873-3.625-3.016h9.155c.027-.132.053-.688.053-1.058 0-3.202-2.62-5.636-5.61-5.636zm-3.572 5.133c.106-1.614 1.561-3.228 3.572-3.228 2.01 0 3.466 1.614 3.572 3.228zM730.397 607.707h-.053c-.794-1.217-2.223-1.852-3.757-1.852-3.969 0-5.848 3.175-5.848 5.847 0 2.91 2.144 5.768 5.848 5.768 1.481 0 2.937-.635 3.757-1.984h.053v1.72h2.063v-11.034h-2.063zm-3.81 7.858c-2.196 0-3.757-1.905-3.757-3.89 0-1.745 1.243-3.942 3.783-3.942 2.143 0 3.837 1.588 3.837 3.943 0 2.116-1.694 3.89-3.863 3.89zM704.626 607.151h-.053v-1.005h-1.931v11.033h2.064v-6.032c0-1.561.555-2.408 1.217-2.779.502-.264 1.164-.396 1.481-.396v-2.144c-.476.053-1.878.08-2.778 1.323zM739.895 606.146h2.064v11.033h-2.064zM735.133 602.442h2.064v14.737h-2.064zM787.018 605.855c-3.44 0-5.954 2.725-5.954 5.741 0 2.779 2.25 5.874 5.954 5.874 3.757 0 5.953-3.148 5.953-5.847 0-3.149-2.62-5.768-5.953-5.768zm0 9.71c-2.302 0-3.89-1.931-3.89-3.916 0-1.984 1.561-3.916 3.89-3.916 2.328 0 3.889 1.932 3.889 3.89-.027 2.09-1.667 3.942-3.89 3.942zM801.649 612.073c0 2.407-1.164 3.519-2.884 3.519-1.535 0-2.752-.715-2.752-3.44v-5.98h-2.063v5.98c0 2.223.529 3.44 1.455 4.233.794.688 1.905 1.085 3.148 1.085 1.403 0 2.7-.529 3.255-1.482h.053v1.191h1.905v-11.033h-2.064v5.927zM807.39 607.151h-.052v-1.005h-1.932v11.033h2.064v-6.032c0-1.561.555-2.408 1.217-2.779.503-.264 1.164-.396 1.482-.396v-2.144c-.503.053-1.905.08-2.779 1.323zM866.154 615.645c-.688-.106-1.11-.292-1.349-.503-.238-.212-.45-.45-.582-.82-.74-2.09-.767-3.916-.847-4.578a6.48 6.48 0 0 0-.45-1.746c-.238-.53-.635-.952-1.243-1.243-.318-.133-.662-.053-1.005.238a4.967 4.967 0 0 0-.953 1.084c-.317.45-.609.98-.873 1.561-.265.583-.503 1.112-.74 1.64-.133.292-.24.583-.345.821 0-.08 0-.159.027-.238l.211-3.995c.027-.715.08-1.455.106-2.17v-.159h-.159c-.053 0-.132-.026-.29-.132a5.88 5.88 0 0 1-.424-.317.95.95 0 0 0-.476-.212.3.3 0 0 0-.212.08c-.08.079-.132.211-.132.423.026 1.508.026 3.28 0 5.318a80.668 80.668 0 0 1-.37 6.456v.053s-.08.502.555.529h.847l.026-.106c.026-.106.106-.37.265-.847.132-.45.344-1.005.582-1.64s.502-1.323.793-2.064c.291-.714.582-1.402.874-2.01.29-.61.608-1.112.873-1.509.317-.45.45-.635.661-.582 0 0 .132.053.265.609l.397 1.772c.132.688.317 1.403.502 2.17.185.767.424 1.429.741 1.984.318.582.74.953 1.217 1.138.662.238 1.958.026 1.905-.714 0-.239-.211-.265-.397-.291zM828.187 607.892a1.607 1.607 0 0 0-.424-.423c-.132-.08-.264-.159-.37-.238a2.447 2.447 0 0 0-1.667-.265c-.556.106-1.111.344-1.667.662a7.625 7.625 0 0 0-1.587 1.243c-.503.476-.953.98-1.376 1.508a10.02 10.02 0 0 0-.98 1.456c-.078.158-.158.29-.21.423-.054-1.535-.133-2.805-.16-3.757-.052-2.752-.555-3.334-1.217-3.281-.211.026-.661.053-.529 1.323.027.37.08.714.08 1.005l.053.794c.026.265.026.344 0 .397.052.661.079 1.587.052 2.752-.026 1.164-.052 2.487-.105 3.889a1598.15 1598.15 0 0 0-.16 4.313c-.052 1.481-.396 7.223-.422 7.673-.027.476-.053.793 0 .979.079.502.714.476.873.476.158 0 .423-.053.529-.37.08-.212.159-.61.211-1.165.053-.529.424-7.302.583-9.71.635.106 1.402.026 2.301-.265.98-.29 1.932-.82 2.858-1.508.926-.688 1.746-1.587 2.46-2.646.715-1.058 1.138-2.275 1.297-3.65.027-.398 0-.742-.08-1.006-.105-.212-.211-.424-.343-.609zm-1.297 1.958c-.053.582-.238 1.217-.582 1.958-.344.714-.9 1.455-1.614 2.17-.714.714-1.693 1.27-2.884 1.667a3.81 3.81 0 0 1-1.005.238c-.265.026-.767.053-.926-.291-.106-.291.238-.98.555-1.588.344-.635.741-1.27 1.191-1.878.45-.609.9-1.165 1.35-1.667.45-.503.82-.82 1.058-1.006.45-.344.873-.661 1.35-.873.422-.212.952-.132 1.322.238.132.185.212.503.185 1.032zM836.071 607.522a9.232 9.232 0 0 0-1.534-.767 13.15 13.15 0 0 0-1.72-.583c-.582-.158-1.27-.317-1.64-.344-.37-.026-1.244.53-1.085.741.08.133.793.635.846.741-.185.688-.37 1.826-.502 2.858a30.002 30.002 0 0 0-.212 3.677c0 .318.053.715.132 1.138.08.45.238.873.45 1.297.212.423.979 1.613 2.46 1.64.371 0 .742-.185 1.165-.556.423-.37.82-.846 1.217-1.428.37-.583.74-1.244 1.058-1.958a14.95 14.95 0 0 0 .768-2.143c.185-.688.264-1.35.264-1.958 0-.635-.185-1.112-.476-1.43a7.433 7.433 0 0 0-1.19-.925zm-4.286 4.948c.027-.662.132-1.43.291-2.25.159-.767.37-1.534.662-2.275.476.159.846.318 1.164.423.344.133 1.27.477 1.799.927.212.211.37.529.45.952.08.45.053.979-.08 1.561a7.378 7.378 0 0 1-.714 1.852 6.836 6.836 0 0 1-1.508 1.852c-.238.185-.424.318-.609.344-.185.027-.344.027-.502-.053-.16-.08-.318-.158-.424-.264-.106-.106-.423-.556-.476-1.323-.08-.476-.08-1.059-.053-1.746zM873.986 614.957c-.132-.027-.265.026-.423.158-.238.212-.477.424-.768.635-.264.212-.582.344-.873.45-.29.08-.661.106-.979 0-.317-.106-.661-.238-.9-.82a10.38 10.38 0 0 1-.37-2.117 23.672 23.672 0 0 1-.026-2.381c.026-.82.08-1.667.159-2.487.079-.794.105-1.588.132-2.355 1.085-.185 2.249-.29 3.44-.37 1.27-.08 1.613-.106 1.799-.344a.411.411 0 0 0 .053-.397c-.08-.318-.16-.556-.609-.582h-1.429c-.979 0-2.037-.027-3.122-.027.053-.344.08-.714.132-1.164.053-.529.08-1.032.106-1.534.027-.503.053-1.006.08-1.456.026-.476 0-.82-.08-1.084a.613.613 0 0 0-.37-.397 1.32 1.32 0 0 0-.556-.132c-.185 0-.37.026-.555.079-.265.08-.318.264-.344.397-.053.555-.08 1.005-.106 1.323-.027.344-.027.688-.027 1.032 0 .344-.026.767-.026 1.217-.027.45-.053 1.058-.08 1.799-.661.026-1.349.026-2.01-.027-.741-.053-1.323-.053-1.72.027-.291.026-.503.08-.609.185a.472.472 0 0 0-.238.318c-.106.767.291 1.137.37 1.19.106.08.265.106.556.106.238 0 .635-.027 1.164-.053a45.978 45.978 0 0 1 2.355-.053c0 .9-.026 1.905-.08 2.99a36.144 36.144 0 0 0 0 3.387c.054 1.084.186 2.063.398 2.91.238.873.688 1.35 1.296 1.667.873.45 2.117.238 2.514.08.344-.133.635-.265.9-.477.264-.185.475-.37.634-.53.159-.131.635-.581.424-.978 0-.08-.106-.159-.212-.185z" transform="translate(-561.65 -536.751)"/><path style="fill:#19305c;fill-opacity:1;stroke-width:.26458332" class="st0" d="M855.624 611.543c-.027-.105-.08-.132-.132-.158-.08-.027-.16-.027-.238.053l-.027.026c-.37.45-.714.847-1.032 1.164-.317.318-.74.715-1.296 1.19-.344.318-.767.662-1.323 1.086-.53.397-1.085.74-1.64.979-.53.238-1.059.317-1.562.238-.45-.053-.767-.37-1.005-.926 1.085-.794 2.037-1.614 2.831-2.487.82-.9 1.508-2.011 2.01-3.36.345-1.27.292-2.038-.131-2.567-.397-.476-1.165-1.032-2.779-.556-.37.106-1.349.503-2.09 1.456a6.875 6.875 0 0 0-1.085 1.931c-.502 1.402-.767 2.54-.793 3.44-.027.9.026 1.614.158 2.143 0 .053.027.132.053.185a8.338 8.338 0 0 1-.502.397 3.017 3.017 0 0 1-.9.503c-.29.079-.635.079-.952-.027-.318-.106-.741-.344-.9-.847a10.38 10.38 0 0 1-.37-2.116 23.643 23.643 0 0 1-.027-2.382c.027-.82.08-1.666.159-2.487.08-.793.106-1.587.132-2.354a77.263 77.263 0 0 1 3.493-.212c1.27-.08 2.328-.185 3.28-.291.186-.027.345-.08.424-.212a.411.411 0 0 0 .053-.397c-.08-.317-.265-.502-.609-.582h-3.386c-.98 0-2.038-.026-3.122-.026.052-.344.079-.715.132-1.164a99.4 99.4 0 0 0 .185-2.461c.027-.476 0-.82-.08-1.085a.613.613 0 0 0-.37-.397 1.32 1.32 0 0 0-.555-.132c-.186 0-.37.027-.556.08-.265.079-.318.264-.344.396-.053.556-.212 4.128-.238 4.869-.662.026-1.35.026-2.011-.027-.74-.053-1.323-.053-1.72.027-.29.026-.502.079-.608.185a.472.472 0 0 0-.238.317c-.106.768.29 1.138.37 1.19.106.08.265.107.556.107.238 0 .635-.027 1.164-.053a45.978 45.978 0 0 1 2.355-.053c0 .9-.027 1.905-.08 2.99a36.145 36.145 0 0 0 0 3.386c.053 1.085.185 2.064.397 2.91.238.874.794 1.403 1.138 1.588.688.344 1.587.53 2.487.318.661-.159 1.27-.635 1.693-1.111 0 .026.027.026.027.053.185.238.529.608.846.793 1.403.82 2.673.45 2.91.397.503-.106 1.244-.423 1.641-.714 2.884-2.223 4.34-4.683 4.207-5.213zm-8.123-.211c.238-.741.556-1.455.9-2.064.344-.608.74-1.085 1.164-1.402.714-.53 1.217-.159 1.217-.159s.688.344-.397 2.355a7.663 7.663 0 0 1-1.032 1.402c-.397.423-.82.794-1.27 1.111-.344.238-.661.45-.952.609.026-.582.159-1.19.37-1.852zM899.069 615.777a.375.375 0 0 0-.239-.212c-.105-.026-.238.027-.37.132-.212.212-.476.424-.767.662-.291.212-.582.37-.9.45a1.86 1.86 0 0 1-1.005-.027c-.344-.106-.794-.37-.98-.82-.264-.794-.343-1.376-.423-2.143a35.42 35.42 0 0 1-.079-2.408c.027-.82.053-1.667.106-2.513v-.186c.053-.9.317-5 .344-5.476l.08-1.562c.026-.502.026-1.005.052-1.455 0-.476-.026-.82-.08-1.085a.591.591 0 0 0-.343-.37 1.23 1.23 0 0 0-.556-.132c-.185 0-.37.026-.529.08-.238.079-.291.237-.291.37a48.314 48.314 0 0 1-.08 1.349c0 .317-.026.661 0 1.058v1.244c0 .423-.052 1.905-.052 1.958 0 0-.053 2.064-.08 3.28-.026.689-.053 1.297-.053 1.72-.026 1.191 0 2.329.053 3.414 0 .158.027.343.053.502-.688.794-1.296 1.403-1.825 1.8-.583.45-1.218.634-1.694.29-.159-.105-.264-.344-.344-.74a7.378 7.378 0 0 1-.106-1.614c0-.635.053-1.323.133-2.038.08-.714.158-1.428.264-2.063.106-.662.159-1.244.291-1.72.424-1.482-1.587-1.217-2.328-.98a7.1 7.1 0 0 0-2.17 1.218 11.692 11.692 0 0 0-1.931 2.01c-.609.768-1.19 1.641-1.72 2.594a7.819 7.819 0 0 0-.82 2.328c-.185.873-.185 1.667 0 2.381.238.741.794 1.085 1.376 1.085h.106c.608-.053 1.243-.344 1.958-.873.687-.53 1.375-1.244 2.09-2.17a21.248 21.248 0 0 0 1.481-2.196v.08c-.052.397-.079.82-.105 1.296-.027.476-.027.953 0 1.402.026.477.105.874.264 1.218.291.476.662.74 1.111.767.424.026.874-.053 1.35-.265a6.37 6.37 0 0 0 1.27-.794 5.72 5.72 0 0 0 .9-.873c.079-.079.634-.873.634-.873.08.476.186.82.291 1.244.239.873.688 1.402 1.297 1.64.45.159.9.265 1.323.265h.026c.424 0 .794-.053 1.138-.185.344-.133.661-.265.9-.477.264-.185.476-.37.635-.555.344-.503.476-.794.344-1.032zm-11.166-7.832c.53.053-.476 2.117-.952 3.122-.503 1.032-1.059 1.958-1.667 2.725-.609.768-1.217 1.403-1.773 1.826-.635.503-.873.609-1.085.556-.29-.08-.264-.556-.185-1.112.08-.635.318-1.349.688-2.143.37-.793.952-1.64 1.614-2.513.688-.9 1.164-1.429 2.143-2.064.873-.476 1.217-.397 1.217-.397zM878.643 610.538c.185-2.355.264-3.969 0-4.26-.212-.211-.9-.317-1.27 0-.238.212-.265.715-.265.715 0 .608-.026 1.481-.08 2.54-.026 1.058-.079 2.17-.132 3.28-.026.503-.026.847-.052 1.165-.027.37-.027.714-.053 1.243-.106 1.8.026 2.329.026 2.329.106.37 1.111.45 1.376.317.212-.106.265-.265.238-1.614 0-.53.08-4.022.159-5.212zM877.531 601.913c-.29.29-.608.582-.635.926-.052.502.133.74.239.793.132.053.264.106.476.053.317-.079.529-.185.688-.344.185-.158.397-.317.635-.608.159-.212.37-.45.344-.873-.027-.424-.265-.609-.556-.609-.53-.053-.926.37-1.19.662zM739.895 602.442h2.064v2.434h-2.064z" transform="translate(-561.65 -536.751)"/></g></svg>