<svg xmlns="http://www.w3.org/2000/svg" xmlns:xlink="http://www.w3.org/1999/xlink" version="1.1" id="Layer_1" x="0px" y="0px" style="enable-background:new 0 0 1500 629;" xml:space="preserve" viewBox="223.3 209.8 1053.5 209.3">
<style type="text/css">
	.st0{fill:#FE5000;}
</style>
<g id="Layer_2_1_">
	<g id="Layer_1-2">
		<path class="st0" d="M609.1,401.4l-35.8-53.2c-2.7-4.1-1.7-9.6,2.4-12.3c0,0,0,0,0.1,0c16.4-11,26.7-30.7,26.7-53.4    c0-38.9-32.5-69.6-72.6-69.6h-86.1c-3.3,0-5.9,2.6-5.9,5.9c0,0,0,0,0,0v37.7c0,1.6,1.2,2.8,2.8,2.9c29.1,1.6,52.6,26.7,52.6,55.4    c0,28.9-23.7,53.5-52.6,55.1c-1.5,0.1-2.8,1.4-2.8,2.9v36.6c0,3.3,2.6,5.9,5.9,5.9h50c3.3,0,5.9-2.6,5.9-5.9v0v-17.6    c0-12.5,10.8-15.6,19.1-5.8l21,26.3c1.9,1.9,4.5,3,7.1,3h54.8c4.9,0,8.9-3.9,8.9-8.8C610.7,404.6,610.1,402.9,609.1,401.4z"/>
		<path class="st0" d="M636.6,212.7H680c3.3,0,5.9,2.6,5.9,5.9v190.6c0,3.3-2.6,5.9-5.9,5.9l0,0h-43.4c-3.3,0-5.9-2.6-5.9-5.9V218.6    C630.7,215.4,633.3,212.7,636.6,212.7z"/>
		<path class="st0" d="M756.3,262.7h-45.7c-3.2,0-5.9-2.6-5.9-5.8v-38.2c0-3.3,2.6-5.9,5.9-5.9h151.4c3.3,0,5.9,2.6,5.9,5.9v38.2    c0,3.3-2.6,5.9-5.9,5.9l0,0h-44.6c-1.6,0-2.9,1.3-2.9,3v143.5c0,3.3-2.6,5.9-5.9,5.9l0,0h-43.4c-3.3,0-5.9-2.6-5.9-5.9V265.6    C759.2,264,757.9,262.7,756.3,262.7z"/>
		<path class="st0" d="M893.4,212.7h137.5c3.3,0,5.9,2.6,5.9,5.9v37.9c0,3.3-2.6,5.9-5.9,5.9l0,0h-85.2c-1.7,0-3,1.3-3,3v22    c0,1.6,1.3,2.9,2.9,2.9c0,0,0,0,0.1,0h79.1c3.3,0,5.9,2.6,5.9,5.9v33.5c0,3.3-2.6,5.9-5.9,5.9l0,0h-79.1c-1.6,0-3,1.3-3,2.9v24.9    c0,1.6,1.4,2.9,3,2.9h87.5c3.3,0,5.9,2.6,5.9,5.9v37c0,3.3-2.6,5.9-5.9,5.9l0,0H893.4c-3.3,0-5.9-2.6-5.9-5.9v0V218.6    C887.5,215.4,890.1,212.7,893.4,212.7C893.4,212.7,893.4,212.7,893.4,212.7z"/>
		<path class="st0" d="M1165,209.8c-61.8,0-111.5,47-111.5,104.8s49.7,104.5,111.5,104.5c62.1,0,111.8-46.8,111.8-104.5    C1276.7,256.9,1227.1,209.8,1165,209.8z M1165,369.8c-30.4,0.1-55.1-24.5-55.2-54.8c0-0.1,0-0.2,0-0.3c0-29.9,24.7-55.5,55.2-55.5    s55.5,25.8,55.5,55.5C1220.5,344.5,1195.3,369.8,1165,369.8L1165,369.8z"/>
		<path class="st0" d="M333.6,209.8c31.5,0,59.7,13.4,79.8,34.9c2.2,2.4,2.1,6.1-0.3,8.3c-0.1,0.1-0.1,0.1-0.2,0.2l-28.6,23.9    c-2.3,1.9-5.7,1.8-7.9-0.3c-11.4-11.2-26.8-17.5-42.8-17.6c-30.5,0-55.2,23.2-55.2,54.9s24.7,54.6,55.2,54.6    c16-0.1,31.3-6.4,42.8-17.6c2.2-2.1,5.6-2.3,7.9-0.4l28.6,24c2.5,2.1,2.8,5.8,0.8,8.3c-0.1,0.1-0.1,0.2-0.2,0.2    c-20.1,21.4-48.3,34.9-79.8,34.9c-61,0-110.4-43.8-110.4-103.9S272.6,209.8,333.6,209.8z"/>
	</g>
</g>
</svg>