<svg xmlns="http://www.w3.org/2000/svg" xmlns:xlink="http://www.w3.org/1999/xlink" viewBox="0 0 600.06 164.03"><defs><linearGradient id="a" x1="85.91" y1="103.3" x2="649.06" y2="103.3" gradientTransform="matrix(1 0 0 -1 0 133.89)" gradientUnits="userSpaceOnUse"><stop offset="0" stop-color="#f68c21"/><stop offset="1" stop-color="#f16324"/></linearGradient><linearGradient id="b" x1="85.91" y1="-35.51" x2="649.06" y2="-35.51" xlink:href="#a"/><linearGradient id="c" x1="85.91" y1="34.15" x2="649.06" y2="34.15" xlink:href="#a"/><style>.a{fill:#fff}</style></defs><path class="a" d="M121.26 162.9h-16.25V65.6h16.3v11.9c5.8-8.3 15.5-13 26.8-13a37.53 37.53 0 0 1 5.8.4l1.2.2v17.4l-1.7-.4a42.4 42.4 0 0 0-8.7-.9c-13.7 0-23.3 10.1-23.3 24.6ZM310.76 162.7c16.1 0 27.7-5 37.7-16.2l.9-1-10.35-10.8-1 1c-7.4 7.8-14.2 12.4-27.1 12.4-18.1 0-30-11.7-31.2-30.5h73.5l.1-1.3c.2-2.7.2-5.7.2-5.8 0-13.3-4.1-25.4-11.6-34.2-7.9-9.3-18.7-14.2-31.3-14.2-27.9 0-47.3 21.2-47.3 51.6v.7c-.15 28.9 18.95 48.3 47.45 48.3Zm-30.2-59.5c1.6-14.2 14.7-25.6 29.9-25.6 14.1 0 25.6 11.3 26.3 25.6ZM170.96 65.5h16.3v97.4h-16.3zM243.26 164.01c-5 0-12.4-.5-18.2-5-6.4-4.8-9.6-13.3-9.6-25.1v-91h16.3v22.5h21.25v15.4h-21.2v53.1c0 12.3 4.3 14.7 11.3 14.7a45.21 45.21 0 0 0 8.3-.5l1.6-.3v15l-1 .3a31.84 31.84 0 0 1-8.75.9ZM413.66 164.01a49.27 49.27 0 0 0 35.2-14.4 52.66 52.66 0 0 0 0-73 50.22 50.22 0 0 0-70.4 0 50.8 50.8 0 0 0-14.6 36.5 51.13 51.13 0 0 0 14.7 36.6 48.78 48.78 0 0 0 35.1 14.3Zm0-86.4a32.73 32.73 0 0 1 24 10.1c6.1 6.5 9.5 15.5 9.5 25.4s-3.4 18.9-9.5 25.4a33.59 33.59 0 0 1-47.4.6l-.6-.6c-6.1-6.5-9.5-15.5-9.5-25.4s3.4-18.9 9.5-25.4a32.7 32.7 0 0 1 24-10.11ZM50.16 164.01a50.13 50.13 0 0 1-35.5-14.4A50.74 50.74 0 0 1 .01 113.1a50.91 50.91 0 0 1 14.7-36.5 50 50 0 0 1 35.5-14.4c14.2 0 26.6 5 35.7 14.4l.9.9-10 11.9-1-1.1c-6.6-7-15.4-10.7-25.6-10.7a33.34 33.34 0 0 0-24.2 10.1c-6.2 6.5-9.6 15.5-9.6 25.4s3.4 18.9 9.6 25.4a32.93 32.93 0 0 0 24.2 10.1 34.42 34.42 0 0 0 25.45-10.59l1-1.1 10 11.8-.9.9c-9 9.49-21.3 14.4-35.6 14.4Z"/><path d="M189.05 43.19a12.6 12.6 0 1 1 12.5-12.7v.1a12.53 12.53 0 0 1-12.46 12.6Z" transform="translate(-9.99 -17.99)" style="fill:url(#a)"/><path d="M597.55 182a12.6 12.6 0 1 1 12.5-12.7v.1a12.53 12.53 0 0 1-12.46 12.6Z" transform="translate(-9.99 -17.99)" style="fill:url(#b)"/><path d="M562 163.49h-33.2a15.53 15.53 0 0 1-15.5-15.56V50.09a25.37 25.37 0 0 0-25.3-25.4H224.9V36h261.5a15.51 15.51 0 0 1 15.5 15.5v97.8a25.46 25.46 0 0 0 25.4 25.5h34.6v-11.3Z" transform="translate(-9.99 -17.99)" style="fill:url(#c)"/></svg>