<svg width="159" height="24" fill="none" xmlns="http://www.w3.org/2000/svg"><g clip-path="url(#a)"><path d="M22.993 17.765v-4.254l-.483-.26-10.98 6.032-10.424-5.727.002-2.467 10.423 5.663 11.462-6.235v-4.19l-.483-.26L11.53 12.1 1.536 6.607l9.996-5.459 8.071 4.407.605-.329v-.49L11.531 0 .07 6.256v.618l11.46 6.252 10.425-5.69V9.93L11.53 15.657.554 9.627l-.483.26v4.252l11.46 6.235 10.425-5.672v2.48L11.531 22.91.554 16.877l-.483.26v.628L11.531 24l11.462-6.235Z" fill="#FF3621"/><path fill-rule="evenodd" clip-rule="evenodd" d="M44.8 1.264v19.262h-3.067V19.09a.256.256 0 0 0-.174-.239.27.27 0 0 0-.291.076c-1.068 1.228-2.688 1.93-4.438 1.93-1.85 0-3.558-.715-4.813-2.016-1.256-1.306-1.95-3.091-1.95-5.025 0-3.946 2.97-7.039 6.763-7.039 1.784 0 3.401.675 4.44 1.852.071.08.19.11.292.073a.257.257 0 0 0 .17-.239v-7.2h3.069ZM33.165 13.82c0 2.439 1.913 4.35 4.356 4.35 2.442 0 4.356-1.911 4.356-4.35 0-2.439-1.914-4.351-4.356-4.351-2.443 0-4.356 1.912-4.356 4.351Zm28.019-6.71v13.41h-3.04v-1.456a.256.256 0 0 0-.175-.238.267.267 0 0 0-.291.077c-1.063 1.241-2.68 1.953-4.438 1.953-3.793 0-6.763-3.093-6.763-7.04 0-3.946 2.97-7.039 6.763-7.039 1.833 0 3.408.654 4.438 1.844a.269.269 0 0 0 .291.075.254.254 0 0 0 .174-.239V7.111h3.041Zm-11.608 6.707c0 2.44 1.913 4.351 4.356 4.351 2.443 0 4.356-1.912 4.356-4.35 0-2.44-1.913-4.351-4.356-4.351-2.443 0-4.356 1.912-4.356 4.35ZM87.182 7.11v13.41H84.14v-1.456a.255.255 0 0 0-.174-.238.27.27 0 0 0-.291.077c-1.064 1.241-2.681 1.953-4.439 1.953-3.793 0-6.763-3.093-6.763-7.04 0-3.946 2.97-7.039 6.763-7.039 1.834 0 3.409.654 4.439 1.844a.269.269 0 0 0 .291.075.253.253 0 0 0 .174-.239V7.111h3.04Zm-11.609 6.707c0 2.44 1.914 4.351 4.357 4.351 2.442 0 4.355-1.912 4.355-4.35 0-2.44-1.913-4.351-4.355-4.351-2.443 0-4.357 1.912-4.357 4.35Zm17.273 5.1a.263.263 0 0 0-.091.015.246.246 0 0 0-.17.235v1.352h-3.07l.007-19.26h3.068l-.007 7.283c0 .108.07.204.174.241a.27.27 0 0 0 .291-.075c1.068-1.228 2.688-1.932 4.439-1.932 1.849 0 3.557.717 4.812 2.018 1.259 1.305 1.951 3.09 1.951 5.024 0 3.947-2.97 7.04-6.763 7.04-1.784 0-3.402-.676-4.44-1.852a.269.269 0 0 0-.201-.089Zm3.949-9.45c-2.443 0-4.356 1.911-4.356 4.35 0 2.44 1.913 4.351 4.356 4.351 2.442 0 4.356-1.912 4.356-4.35 0-2.44-1.914-4.352-4.356-4.352Z" fill="#000"/><path d="M113.081 9.856c.287 0 .556.023.743.066V6.883a2.61 2.61 0 0 0-.512-.049c-1.591 0-3.061.787-3.838 2.054a.267.267 0 0 1-.296.116.257.257 0 0 1-.195-.245V7.11h-3.042v13.41h3.068v-5.897c.003-2.94 1.562-4.768 4.072-4.768Zm5.763-2.745h-3.099v13.41h3.099V7.111Zm-1.586-5.834c-1.037 0-1.879.815-1.879 1.818 0 1.002.842 1.817 1.879 1.817s1.88-.815 1.88-1.817c-.003-1.003-.845-1.818-1.88-1.818Zm10.689 5.5c-4.254 0-7.34 2.962-7.34 7.04 0 1.983.723 3.776 2.038 5.052 1.321 1.282 3.194 1.987 5.272 1.987 1.72 0 3.064-.33 5.589-2.123l-1.742-1.776c-1.241.798-2.398 1.185-3.53 1.185-2.566 0-4.501-1.858-4.501-4.323 0-2.465 1.935-4.323 4.501-4.323 1.223 0 2.357.387 3.471 1.185l1.946-1.783c-2.261-1.901-4.336-2.12-5.704-2.12Zm10.952 7.832a.27.27 0 0 1 .178-.067h.015a.28.28 0 0 1 .19.095l4.907 5.882 3.776.002-6.35-7.424a.25.25 0 0 1 .015-.342l5.838-5.644h-3.742l-5.027 4.883a.27.27 0 0 1-.287.056.253.253 0 0 1-.162-.235l.005-10.551h-3.074v19.26h3.069v-5.225c0-.07.031-.14.084-.187l.565-.503Z" fill="#000"/><path d="M152.968 20.858c2.516 0 5.063-1.471 5.063-4.282 0-1.835-1.187-3.1-3.631-3.87l-1.669-.529c-1.125-.36-1.669-.881-1.669-1.587 0-.806.75-1.37 1.822-1.37 1.02 0 1.929.643 2.503 1.766l2.465-1.282c-.9-1.804-2.799-2.923-4.968-2.923-2.75 0-4.748 1.708-4.748 4.06 0 1.859 1.15 3.117 3.515 3.842l1.703.53c1.205.367 1.697.827 1.697 1.589 0 1.135-1.091 1.537-2.023 1.537-1.246 0-2.344-.78-2.887-2.04l-2.486 1.253c.822 2.039 2.853 3.306 5.313 3.306Zm-83.281-.138c.968 0 1.847-.081 2.33-.156V18c-.406.052-1.1.097-1.54.097-1.246 0-2.198-.207-2.198-2.8V9.784c0-.14.118-.254.262-.254h2.988l-.002-2.42-2.988.003a.259.259 0 0 1-.263-.254V2.971l-3.05.002.003 3.886c0 .14-.118.254-.263.254h-2.138l.002 2.42 2.136-.003c.145 0 .263.114.263.254v6.246c.002 4.69 3.239 4.69 4.458 4.69Z" fill="#000"/></g><defs><clipPath id="a"><path fill="#fff" transform="translate(.071)" d="M0 0h158.857v24H0z"/></clipPath></defs></svg>