<svg width="154" height="30" fill="none" xmlns="http://www.w3.org/2000/svg"><g clip-path="url(#a)"><path d="m17.864 5.637-8.932 5.638 8.932 5.637-8.932 5.637L0 16.883l8.932-5.638L0 5.637 8.932 0l8.932 5.637ZM8.886 24.363l8.932-5.638 8.932 5.638L17.818 30l-8.932-5.637Zm8.978-7.481 8.932-5.638-8.932-5.607L26.75 0l8.932 5.637-8.932 5.638 8.932 5.637-8.932 5.637-8.886-5.667Z" fill="#0061FF"/><path d="M42.689 5.637h7.222c4.605 0 8.409 2.636 8.409 8.655v1.264c0 6.064-3.558 8.791-8.27 8.791h-7.361V5.637Zm4.035 3.398v11.9h3.095c2.618 0 4.374-1.692 4.374-5.455v-.99c0-3.764-1.848-5.455-4.513-5.455h-2.956Zm13.736.183h3.234l.524 3.52c.616-2.393 2.187-3.672 5.036-3.672h1v4.037h-1.662c-3.28 0-4.081 1.128-4.081 4.327v6.963h-3.989V9.218h-.062Zm10.596 7.892v-.426c0-5.074 3.28-7.847 7.746-7.847 4.558 0 7.746 2.773 7.746 7.847v.426c0 4.983-3.095 7.664-7.746 7.664-4.944-.046-7.746-2.666-7.746-7.664Zm11.411-.045v-.381c0-2.819-1.432-4.51-3.711-4.51-2.233 0-3.712 1.554-3.712 4.51v.38c0 2.728 1.432 4.282 3.712 4.282 2.279-.046 3.711-1.554 3.711-4.281Zm6.175-7.847h3.327l.385 2.864c.8-1.92 2.51-3.245 5.036-3.245 3.896 0 6.468 2.773 6.468 7.908v.426c0 4.982-2.849 7.618-6.468 7.618-2.418 0-4.081-1.082-4.898-2.818v7.663h-3.896l.046-20.416Zm11.165 7.847v-.336c0-3.016-1.57-4.51-3.665-4.51-2.233 0-3.711 1.692-3.711 4.51v.29c0 2.681 1.432 4.373 3.665 4.373 2.295-.046 3.711-1.494 3.711-4.327Zm9.949 4.525-.339 2.773h-3.419V4.144h3.896V11.9c.863-1.98 2.572-3.062 4.99-3.062 3.665.046 6.376 2.545 6.376 7.572v.473c0 5.028-2.572 7.907-6.468 7.907-2.572-.06-4.235-1.234-5.036-3.2Zm7.407-4.708V16.5c0-2.773-1.524-4.327-3.665-4.327-2.187 0-3.711 1.737-3.711 4.373v.335c0 2.818 1.478 4.464 3.665 4.464 2.341 0 3.711-1.448 3.711-4.464Zm5.806.228v-.426c0-5.074 3.28-7.847 7.746-7.847 4.559 0 7.746 2.773 7.746 7.847v.426c0 4.983-3.141 7.664-7.746 7.664-4.943-.046-7.746-2.666-7.746-7.664Zm11.442-.045v-.381c0-2.819-1.432-4.51-3.711-4.51-2.233 0-3.712 1.554-3.712 4.51v.38c0 2.728 1.433 4.282 3.712 4.282 2.294-.046 3.711-1.554 3.711-4.281Zm9.271-.564-5.375-7.283h4.605l3.095 4.556 3.142-4.556h4.558l-5.451 7.237L154 24.363h-4.512l-3.511-5.028-3.419 5.028h-4.713l5.837-7.862Z" fill="#000"/></g><defs><clipPath id="a"><path fill="#fff" d="M0 0h154v30H0z"/></clipPath></defs></svg>