<svg version="1.1" id="logoMain" xmlns="http://www.w3.org/2000/svg" x="0" y="0" viewBox="0 0 140 18" style="enable-background:new 0 0 140 18" xml:space="preserve"><style>.st0{fill:#1d364e}</style><path class="st0" d="M0 .5h15.3v2.9h-12v4h10.3v2.9H3.4v4.5h12.2v2.9H0V.5zM30.2 8.7l7.7 8.8h-4.3l-5.4-6.4-5.5 6.4h-4.3l7.7-8.8L19 .5h4.2l5 5.8 2 2.4zM41.4.5h9.5c2.9 0 7.6 0 7.6 5.2s-4.8 5.2-7.6 5.2h-6.2v6.6h-3.3V.5zM51.6 8c1.9 0 3.6-.2 3.6-2.4s-1.7-2.3-3.6-2.3h-6.9V8h6.9zM65.6.5h3.8l8.3 17h-3.5l-1.8-3.9h-9.8l-1.8 3.9h-3.5l8.3-17zm5.5 10.3-3.6-7.6-3.6 7.6h7.2zM80.5.5H84l11.4 12.3V.5h3.2v17h-3L83.7 4.8v12.8h-3.2V.5zM116.5 5.7c-.6-1.5-1.9-2.8-6-2.8-2.3 0-4.5.6-4.5 2.1 0 .7.4 1.5 3.8 1.9l4 .6c3.8.6 6.1 2.1 6.1 4.9 0 4-3.9 5.5-8.4 5.5-7.3 0-9.1-3.6-9.5-4.9l3.2-1c.6 1.2 1.9 3 6.4 3 2.7 0 5-.9 5-2.4 0-1.1-1.3-1.8-3.7-2.1l-4.1-.6c-3.9-.6-6.1-2.3-6.1-4.9 0-5.1 6.6-5.1 7.9-5.1 7.3 0 8.6 3.4 9 4.6l-3.1 1.2zM123.4.5h15.3v2.9h-12v4H137v2.9h-10.3v4.5h12.2v2.9h-15.6l.1-17.2z"/><circle cx="34.7" cy="3" r="3" style="fill:#f7706c"/></svg>