<?xml version="1.0" encoding="utf-8"?>
<!-- Generator: Adobe Illustrator 21.0.2, SVG Export Plug-In . SVG Version: 6.00 Build 0)  -->
<svg version="1.1" id="logoMain" xmlns="http://www.w3.org/2000/svg" xmlns:xlink="http://www.w3.org/1999/xlink" x="0px" y="0px"
	 viewBox="0 0 140 18" style="enable-background:new 0 0 140 18;" xml:space="preserve">
<style type="text/css">
	.st0{fill:#1D364E;}
	.st1{fill:#F7706C;}
</style>
<path class="st0" d="M0,0.5h15.3v2.9h-12v4h10.3v2.9H3.4v4.5h12.2v2.9H0V0.5L0,0.5z"/>
<path class="st0" d="M30.2,8.7l7.7,8.8h-4.3l-5.4-6.4l-5.5,6.4h-4.3l7.7-8.8L19,0.5h4.2l5,5.8L30.2,8.7z"/>
<path class="st0" d="M41.4,0.5h9.5c2.9,0,7.6,0,7.6,5.2s-4.8,5.2-7.6,5.2h-6.2v6.6h-3.3V0.5z M51.6,8c1.9,0,3.6-0.2,3.6-2.4
	s-1.7-2.3-3.6-2.3h-6.9V8H51.6z"/>
<path class="st0" d="M65.6,0.5h3.8l8.3,17h-3.5l-1.8-3.9h-9.8l-1.8,3.9h-3.5L65.6,0.5z M71.1,10.8l-3.6-7.6l-3.6,7.6H71.1z"/>
<path class="st0" d="M80.5,0.5H84l11.4,12.3V0.5h3.2v17h-3L83.7,4.8v12.8h-3.2V0.5z"/>
<path class="st0" d="M116.5,5.7c-0.6-1.5-1.9-2.8-6-2.8c-2.3,0-4.5,0.6-4.5,2.1c0,0.7,0.4,1.5,3.8,1.9l4,0.6
	c3.8,0.6,6.1,2.1,6.1,4.9c0,4-3.9,5.5-8.4,5.5c-7.3,0-9.1-3.6-9.5-4.9l3.2-1c0.6,1.2,1.9,3,6.4,3c2.7,0,5-0.9,5-2.4
	c0-1.1-1.3-1.8-3.7-2.1l-4.1-0.6c-3.9-0.6-6.1-2.3-6.1-4.9c0-5.1,6.6-5.1,7.9-5.1c7.3,0,8.6,3.4,9,4.6L116.5,5.7z"/>
<path class="st0" d="M123.4,0.5h15.3v2.9h-12v4H137v2.9h-10.3v4.5h12.2v2.9h-15.6L123.4,0.5L123.4,0.5z"/>
<circle class="st1" cx="34.7" cy="3" r="3"/>
</svg>
