<svg version="1.1" id="Layer_1" xmlns="http://www.w3.org/2000/svg" x="0" y="0" viewBox="0 0 183.2 35.4" style="enable-background:new 0 0 183.2 35.4" xml:space="preserve"><style>.st0{fill:#00aeef}</style><path class="st0" d="M93.4 7.4V32c0 1.9-1.5 3.5-3.4 3.5S86.5 34 86.5 32V7.4H69.7c-5.8-.1-10.5 4.5-10.5 10.3S63.9 28 69.7 28.2h6.4c1.9 0 3.4 1.5 3.4 3.4s-1.5 3.5-3.4 3.5h-6.4c-9.4-.2-17.1-7.9-17.1-17.4S60.2.6 69.6.5h30.9c2 0 3.4 1.5 3.4 3.5 0 1.9-1.5 3.5-3.4 3.5l-7.1-.1zM6.9 32c0 1.9-1.5 3.5-3.4 3.5C1.6 35.4 0 33.9 0 32V3.9C0 2 1.5.4 3.4.4h16.2c1.9 0 3.5 1.5 3.5 3.4s-1.6 3.5-3.5 3.5H6.9V32zm4.8-18.1c-1.8 0-3.1 1.3-3.1 3s1.4 3 3 3h7.7c1.7 0 3-1.3 3-3s-1.3-3-3-3h-7.6zM38.5 23.3c1.7 0 3.1 1.3 3.1 3s-1.4 3-3.1 3h-4.2c-1.7 0-3.1-1.3-3.1-3s1.4-3.1 3.1-3h4.2zm-8.4-15L19.4 30.4c-.8 1.7-.1 3.8 1.6 4.6s3.8.1 4.6-1.6l10.7-22.1L47 33.4c.8 1.7 2.9 2.4 4.6 1.6 1.7-.8 2.4-2.9 1.6-4.6L42.6 8.3l-3.3-6.7s-.7-1.6-3-1.6c-2.2 0-3 1.6-3 1.6l-3.2 6.7zM128.8 26.3c0 4.8-3.9 8.7-8.7 8.7H108c-1.9 0-3.5-1.6-3.5-3.5s1.6-3.3 3.5-3.5h11.5c1.1.1 2-.7 2-1.8 0-.7-.3-1.3-.8-1.6l-13.3-9c-.8-.7-2.9-2-2.9-6.1 0-5.1 4.1-9.2 9.2-9.2h10c1.9 0 3.5 1.5 3.5 3.5 0 1.9-1.6 3.5-3.5 3.4h-10.2c-1.1 0-2 1-2 2.1 0 .7.2.9.6 1.4l13.5 9.4c2 1.4 3.2 3.3 3.2 6.2zM151.4 13.8c1.7 0 3 1.3 3 3s-1.3 3-3 3h-7.7c-1.7 0-3-1.3-3-3s1.3-3 3.1-3h7.6zM132 3.9c0-1.9 1.5-3.5 3.4-3.4h44.3c2 0 3.4 1.5 3.4 3.5 0 1.9-1.5 3.5-3.4 3.5h-7.2V32c0 1.9-1.5 3.5-3.4 3.5s-3.5-1.5-3.5-3.5V7.4h-26.7v20.7h12.7c1.9 0 3.5 1.6 3.5 3.5s-1.6 3.5-3.5 3.5h-16.2c-1.9 0-3.5-1.6-3.5-3.5l.1-27.7zM179.8 35.5c-1.9 0-3.4-1.6-3.4-3.5s1.5-3.5 3.4-3.5 3.4 1.6 3.4 3.5-1.5 3.5-3.4 3.5zm0-6.6c-1.7 0-3 1.4-3 3.1s1.3 3 3 3 3-1.4 3-3-1.4-3.1-3-3.1zm.6 3.4.7 1.5h-.5l-.6-1.4h-.9v1.4h-.4v-3.7h1.3c.8 0 1.2.6 1.2 1.2-.1.4-.3.9-.8 1zm-.5-1.7h-.8V32h.8c.6 0 .8-.4.8-.7 0-.4-.2-.7-.8-.7z"/></svg>