<?xml version="1.0" encoding="utf-8"?>
<!-- Generator: Adobe Illustrator 20.1.0, SVG Export Plug-In . SVG Version: 6.00 Build 0)  -->
<svg version="1.1" id="Layer_1" xmlns="http://www.w3.org/2000/svg" xmlns:xlink="http://www.w3.org/1999/xlink" x="0px" y="0px"
	 viewBox="0 0 183.2 35.4" style="enable-background:new 0 0 183.2 35.4;" xml:space="preserve">
<style type="text/css">
	.st0{fill:#00AEEF;}
</style>
<g>
	<g>
		<path class="st0" d="M93.4,7.4V32c0,1.9-1.5,3.5-3.4,3.5S86.5,34,86.5,32V7.4H69.7c-5.8-0.1-10.5,4.5-10.5,10.3S63.9,28,69.7,28.2
			h6.4c1.9,0,3.4,1.5,3.4,3.4s-1.5,3.5-3.4,3.5h-6.4c-9.4-0.2-17.1-7.9-17.1-17.4s7.6-17.1,17-17.2h30.9c2,0,3.4,1.5,3.4,3.5
			c0,1.9-1.5,3.5-3.4,3.5L93.4,7.4L93.4,7.4z"/>
		<path class="st0" d="M6.9,32c0,1.9-1.5,3.5-3.4,3.5C1.6,35.4,0,33.9,0,32V3.9C0,2,1.5,0.4,3.4,0.4h16.2c1.9,0,3.5,1.5,3.5,3.4
			s-1.6,3.5-3.5,3.5H6.9V32z M11.7,13.9c-1.8,0-3.1,1.3-3.1,3s1.4,3,3,3h7.7c1.7,0,3-1.3,3-3s-1.3-3-3-3H11.7z"/>
		<path class="st0" d="M38.5,23.3c1.7,0,3.1,1.3,3.1,3s-1.4,3-3.1,3h-4.2c-1.7,0-3.1-1.3-3.1-3s1.4-3.1,3.1-3H38.5z M30.1,8.3
			L19.4,30.4c-0.8,1.7-0.1,3.8,1.6,4.6s3.8,0.1,4.6-1.6l10.7-22.1L47,33.4c0.8,1.7,2.9,2.4,4.6,1.6c1.7-0.8,2.4-2.9,1.6-4.6
			L42.6,8.3l-3.3-6.7c0,0-0.7-1.6-3-1.6c-2.2,0-3,1.6-3,1.6L30.1,8.3z"/>
		<path class="st0" d="M128.8,26.3c0,4.8-3.9,8.7-8.7,8.7H108c-1.9,0-3.5-1.6-3.5-3.5c0-1.9,1.6-3.3,3.5-3.5h11.5
			c1.1,0.1,2-0.7,2-1.8c0-0.7-0.3-1.3-0.8-1.6l-13.3-9c-0.8-0.7-2.9-2-2.9-6.1c0-5.1,4.1-9.2,9.2-9.2h10c1.9,0,3.5,1.5,3.5,3.5
			c0,1.9-1.6,3.5-3.5,3.4h-10.2c-1.1,0-2,1-2,2.1c0,0.7,0.2,0.9,0.6,1.4l13.5,9.4C127.6,21.5,128.8,23.4,128.8,26.3z"/>
		<path class="st0" d="M151.4,13.8c1.7,0,3,1.3,3,3c0,1.7-1.3,3-3,3h-7.7c-1.7,0-3-1.3-3-3s1.3-3,3.1-3
			C143.8,13.8,151.4,13.8,151.4,13.8z M132,3.9c0-1.9,1.5-3.5,3.4-3.4h44.3c2,0,3.4,1.5,3.4,3.5c0,1.9-1.5,3.5-3.4,3.5h-7.2V32
			c0,1.9-1.5,3.5-3.4,3.5s-3.5-1.5-3.5-3.5V7.4h-26.7v20.7h12.7c1.9,0,3.5,1.6,3.5,3.5s-1.6,3.5-3.5,3.5h-16.2
			c-1.9,0-3.5-1.6-3.5-3.5L132,3.9z"/>
	</g>
	<g>
		<path class="st0" d="M179.8,35.5c-1.9,0-3.4-1.6-3.4-3.5s1.5-3.5,3.4-3.5s3.4,1.6,3.4,3.5C183.2,33.9,181.7,35.5,179.8,35.5z
			 M179.8,28.9c-1.7,0-3,1.4-3,3.1s1.3,3,3,3s3-1.4,3-3S181.4,28.9,179.8,28.9z M180.4,32.3l0.7,1.5h-0.5l-0.6-1.4h-0.9v1.4h-0.4
			v-3.7h1.3c0.8,0,1.2,0.6,1.2,1.2C181.1,31.7,180.9,32.2,180.4,32.3z M179.9,30.6h-0.8V32h0.8c0.6,0,0.8-0.4,0.8-0.7
			C180.7,30.9,180.5,30.6,179.9,30.6z"/>
	</g>
</g>
</svg>
