<?xml version="1.0" encoding="utf-8"?>
<!-- Generator: Adobe Illustrator 24.2.1, SVG Export Plug-In . SVG Version: 6.00 Build 0)  -->
<svg version="1.1" id="Layer_1" xmlns="http://www.w3.org/2000/svg" xmlns:xlink="http://www.w3.org/1999/xlink" x="0px" y="0px"
	 viewBox="0 0 300 300" style="enable-background:new 0 0 300 300;" xml:space="preserve">
<path d="M47.8,132.7v34.4c0,8.1,6.5,14.6,14.6,14.6S77,175.2,77,167.2v-34.4c0-8.1-6.5-14.6-14.6-14.6S47.8,124.7,47.8,132.7
	 M58.3,167.2v-34.4c0-2.2,1.7-4,3.9-4c0.1,0,0.3,0,0.4,0c2.1-0.1,3.9,1.6,4,3.7c0,0.1,0,0.2,0,0.2v34.4c0,2.2-1.8,4-4,4
	C60.3,171.2,58.4,169.5,58.3,167.2C58.3,167.2,58.3,167.2,58.3,167.2 M161.2,118.9h-29.5v10.4h9.5v51.3h10.4v-51.3h9.5V118.9z
	 M191.9,118.9v48.2c0,2.2-1.8,4-4,4c-2.2,0-4-1.8-4-4c0,0,0,0,0,0v-48.2h-10.8v48.2c0,8.1,6.6,14.7,14.8,14.7
	c8.1,0,14.7-6.6,14.7-14.7v-48.2H191.9z M287.5,129.4v-10.4h-25.8v61.8h25.8v-10.4h-15.4v-16h9.8v-10.4h-9.8v-14.4H287.5z
	 M121.9,180.7h-11.1l-7.7-29.2c4-0.8,6.8-4.3,6.8-8.3v-9.5c0.1-2.3-1.8-4.3-4.1-4.3c-0.1,0-0.1,0-0.2,0h-4v51.3H91.2v-61.8h14.4
	c7.9-0.1,14.5,6.2,14.7,14.1v9.8c0.3,5.2-1.9,10.2-5.8,13.5L121.9,180.7z M238.3,118.9v33.8l-10.8-33.8h-10.8v61.8h10.8v-30.1
	l9.8,30.1h11.7v-61.8H238.3z M12.5,119.8v61.8h11.1v-26.4h10.1v-10.4H23.6v-14.4h16v-10.4H12.5z"/>
</svg>
