<svg xmlns="http://www.w3.org/2000/svg" viewBox="0 0 300 300" style="enable-background:new 0 0 300 300" xml:space="preserve"><path d="M47.8 132.7v34.4c0 8.1 6.5 14.6 14.6 14.6S77 175.2 77 167.2v-34.4c0-8.1-6.5-14.6-14.6-14.6s-14.6 6.5-14.6 14.5m10.5 34.5v-34.4c0-2.2 1.7-4 3.9-4h.4c2.1-.1 3.9 1.6 4 3.7v34.6c0 2.2-1.8 4-4 4-2.3.1-4.2-1.6-4.3-3.9m102.9-48.3h-29.5v10.4h9.5v51.3h10.4v-51.3h9.5v-10.4zm30.7 0v48.2c0 2.2-1.8 4-4 4s-4-1.8-4-4v-48.2h-10.8v48.2c0 8.1 6.6 14.7 14.8 14.7 8.1 0 14.7-6.6 14.7-14.7v-48.2h-10.7zm95.6 10.5V119h-25.8v61.8h25.8v-10.4h-15.4v-16h9.8V144h-9.8v-14.4h15.4zm-165.6 51.3h-11.1l-7.7-29.2c4-.8 6.8-4.3 6.8-8.3v-9.5c.1-2.3-1.8-4.3-4.1-4.3h-4.2v51.3H91.2v-61.8h14.4c7.9-.1 14.5 6.2 14.7 14.1v9.8c.3 5.2-1.9 10.2-5.8 13.5l7.4 24.4zm116.4-61.8v33.8l-10.8-33.8h-10.8v61.8h10.8v-30.1l9.8 30.1H249v-61.8h-10.7zm-225.8.9v61.8h11.1v-26.4h10.1v-10.4H23.6v-14.4h16V120H12.5z"/></svg>