<svg width="57" height="57" fill="none" xmlns="http://www.w3.org/2000/svg"><path d="M34.766 21.228c0-3.176 2.15-6.256 3.323-5.676 1.337.67-1.002 3.662-3.323 5.676Zm-14.621 1.157c0-2.554 2.52-7.405 4.058-6.892 1.82.606-1.507 5.5-4.058 6.892ZM17.59 40.648c-1.158.052-1.933-.689-1.933-1.926 0-3.323 4.611-6.498 8.094-8.202-.618 4.64-2.186 9.949-6.16 10.128Zm21.275-10.829c-2.63 0-4.64 1.935-4.64 4.255 0 1.934 1.163 3.481 2.705 3.481.546 0 1.087-.311 1.087-1.002 0-1.011-1.334-1.254-1.234-2.758.067-.991 1.002-1.655 1.93-1.655 1.855 0 2.723 1.798 2.723 3.653-.076 2.864-2.185 4.854-4.656 4.854-3.251 0-5.34-3.092-5.34-6.42 0-4.954 3.251-6.887 4.954-7.35.017 0 4.449.789 4.31-1.165-.063-.86-1.34-1.19-2.264-1.226-1.027-.04-2.065.33-2.065.33-.538-.274-.912-.809-1.143-1.424 3.172-2.401 5.416-4.72 5.416-7.351 0-1.392-.93-2.63-2.71-2.63-3.172 0-5.571 4.023-5.571 7.66 0 .616 0 1.238.16 1.778-2.014 1.468-3.51 2.384-6.216 4.008 0-.338.07-1.213.299-2.343.927-1.007 2.2-2.515 2.2-3.677 0-.54-.307-1.007-.931-1.007-1.545 0-2.703 2.324-3.013 3.948-.697.855-2.09 1.938-3.253 1.938-.927 0-1.238-.851-1.316-1.163 2.94-1.006 6.577-5.03 6.577-8.666 0-.772-.31-2.476-2.63-2.476-3.481 0-6.418 5.186-6.418 9.204-1.241 0-1.703-1.313-1.703-2.32s.386-2.01.386-2.32c0-.31-.155-.696-.62-.696-1.16 0-1.856 1.547-1.856 3.327.08 2.476 1.704 4.027 3.868 4.179.31 1.472 1.624 2.865 3.247 2.865 1.008 0 2.245-.31 3.096-1.082-.075.54-.15 1.006-.23 1.468-3.406 1.783-5.882 3.02-8.126 5.03-1.775 1.628-2.781 3.793-2.781 5.492 0 2.325 1.468 4.49 4.484 4.49 3.557 0 6.268-2.862 7.585-6.81.617-1.854.864-4.556 1.022-7.036 3.555-2.014 5.242-3.175 7.1-4.492.232.386.465.695.772.926-1.623.852-5.491 3.252-5.491 8.898 0 4.023 2.705 8.513 8.047 8.513 4.41 0 7.426-3.638 7.426-7.121-.001-3.17-1.78-6.107-5.187-6.107Zm13.303 6.646c-.012.024-.055.056-.143.028-.068-.024-.083-.056-.083-.1.003-.044.935-2.798.927-5.954-.008-3.41-1.392-5.5-3.167-5.5-1.087 0-1.86.776-1.86 1.939 0 2.088 2.552 2.244 2.552 6.808 0 1.855-.387 3.634-1.002 5.568-2.866 9.67-11.995 14.159-20.889 14.159-4.102 0-7.016-.844-7.883-1.233-.035-.02-.068-.088-.04-.156.02-.051.08-.091.116-.075.35.135 2.853.923 5.95.923 3.402 0 5.415-1.392 5.415-3.096a1.916 1.916 0 0 0-1.933-1.934c-2.09 0-2.248 2.63-6.734 2.63-1.933 0-3.637-.386-5.646-1.007C8.15 46.525 3.582 37.476 3.585 28.502c.004-4.373 1.23-7.855 1.25-7.887.016-.023.07-.048.138-.023.068.023.083.079.08.1-.11.362-.924 2.857-.924 5.953 0 3.407 1.392 5.416 3.172 5.416 1.003 0 1.854-.771 1.854-1.854 0-2.092-2.554-2.324-2.554-6.812 0-1.934.39-3.638 1.006-5.647 2.942-9.595 11.995-14.09 20.893-14.16 4.135-.032 7.752 1.206 7.891 1.316.024.02.048.073.024.136-.033.075-.08.083-.104.079-.043-.004-2.396-.988-5.957-.988-3.327-.003-5.416 1.39-5.416 3.172 0 1.003.776 1.855 1.933 1.855 2.09 0 2.245-2.552 6.734-2.552 1.929 0 3.633.382 5.643 1.004 9.674 2.94 14.076 12.069 14.159 20.891.045 4.518-1.228 7.936-1.24 7.964ZM28.502 1.887c-14.7 0-26.614 11.91-26.614 26.614 0 14.7 11.914 26.611 26.614 26.611 14.697 0 26.611-11.91 26.611-26.61 0-14.625-11.914-26.615-26.61-26.615Zm0 54.543C13.105 56.43.57 43.974.57 28.502.57 13.101 13.105.57 28.502.57 43.895.57 56.43 13.101 56.43 28.502c0 15.472-12.535 27.928-27.928 27.928Z" fill="#3B73B9"/></svg>