<svg version="1.1" id="Layer_1" xmlns="http://www.w3.org/2000/svg" x="0" y="0" viewBox="0 0 218.4 91.2" style="enable-background:new 0 0 218.4 91.2" xml:space="preserve"><style>.st0{fill:#413000}</style><path class="st0" d="M147.1 31.3c1.6 2 3.2 4.8 3.2 8.8 0 9.7-7.6 15.3-18.5 15.3-2.8 0-5.3-.3-6.9-.8l-2.9 4.6 8.5.5c15.1 1 23.9 1.4 23.9 13 0 10-8.8 15.7-23.9 15.7-15.8 0-21.8-4-21.8-10.9 0-3.9 1.7-6 4.8-8.9-2.9-1.2-3.8-3.4-3.8-5.7 0-1.9 1-3.7 2.5-5.3 1.6-1.7 3.3-3.3 5.4-5.2-4.3-2.1-7.5-6.6-7.5-13.1 0-10 6.6-16.9 19.9-16.9 3.7 0 6 .3 8 .9h17v7.4l-7.9.6zM121.3 71c-1.1 1.4-2.3 2.9-2.3 4.6 0 3.5 4.4 4.5 10.5 4.5 5 0 11.9-.4 11.9-5 0-2.8-3.3-3-7.5-3.2l-12.6-.9zm9.6-40c-4.8 0-8.4 2.4-8.4 8 0 4.3 2.4 7.2 8.1 7.2 4.9 0 8.2-2.9 8.2-7.4 0-5.1-3-7.8-7.9-7.8zM159.2 67.8v-6.9l4.4-.6c1.2-.2 1.4-.4 1.4-1.7V33c0-1-.3-1.6-1.1-1.8l-4.7-1.7 1-7h18v36.1c0 1.4.1 1.6 1.4 1.7l4.4.6v6.9h-24.8zm11.2-52.3c-5 0-7.8-2.9-7.8-7.8 0-5 2.9-7.7 7.8-7.7 5 0 7.9 2.7 7.9 7.7 0 4.9-2.9 7.8-7.9 7.8zM218.4 64.4c-3.7 1.8-9.2 3.5-14.2 3.5-10.4 0-14.3-4.2-14.3-14V31.1c0-.5 0-.9-.7-.9h-6.1v-7.7c7.7-.9 10.7-4.7 11.7-14.2h8.3v12.4c0 .6 0 .9.7.9H216v8.7h-13V51c0 5.1 1.2 7.1 5.9 7.1 2.4 0 5-.6 7-1.4l2.5 7.7z"/><path d="M89.4 41.6 49.6 1.8c-2.3-2.3-6-2.3-8.3 0L33 10.1l10.5 10.5c2.4-.8 5.2-.3 7.2 1.7s2.5 4.8 1.7 7.2l10.1 10.1c2.4-.8 5.3-.3 7.2 1.7 2.7 2.7 2.7 7.1 0 9.9-2.7 2.7-7.1 2.7-9.9 0-2.1-2.1-2.6-5.1-1.5-7.6L48.9 34v24.8c.7.3 1.3.8 1.8 1.3 2.7 2.7 2.7 7.1 0 9.9-2.7 2.7-7.2 2.7-9.9 0s-2.7-7.2 0-9.9c.7-.7 1.5-1.2 2.3-1.5v-25c-.8-.3-1.6-.8-2.3-1.5-2.1-2.1-2.6-5.1-1.5-7.6L29 14.1 1.7 41.4c-2.3 2.3-2.3 6 0 8.3l39.8 39.8c2.3 2.3 6 2.3 8.3 0l39.6-39.6c2.3-2.3 2.3-6 0-8.3z" style="fill:#f05133"/></svg>