<svg width="204" height="29" xmlns="http://www.w3.org/2000/svg"><path d="M99.7 12h-9.3v8.3h10.3v1.8H88.5v-21h12.2v1.8H90.5v7.4h9.3c-.1 0-.1 1.7-.1 1.7Zm12.3-.1c0-1.8-1-2.4-2.8-2.4-1.8 0-2.7.3-3.8.8V22h-2V8h1.1l.4 1.1c1.3-.9 2.7-1.4 4.2-1.4 3.3 0 4.7 1.5 4.7 4.2V22h-2l.2-10.1Zm12.5 10.3c-.4.1-.8.1-1.2.1-2.4 0-4.4-1-4.4-3.8V9.6H116v-.8l2.8-.8V4.1l2-.6v4.4h4.3v1.5h-4.3v8.8c0 1.7.9 2.4 2.6 2.4.4 0 .8 0 1.1-.1v1.7Zm8-14.4c4.7 0 5.3 3.2 5.3 7.3v.8h-9.3c.1 2.5.8 4.6 3.9 4.6 2 0 3.2-.2 4.6-.8v1.7c-1.6.7-3.2.9-4.6.9-4.7 0-5.9-3.2-5.9-7.3.2-4 1.3-7.2 6-7.2Zm-3.9 6.5h7.3c0-2.5-.1-4.8-3.4-4.8-3.2 0-3.9 2.4-3.9 4.8Zm19.8-4.6c-.4-.1-.9-.2-1.7-.2-1.9 0-3 .3-4.1.8V22h-2V8h1.1l.4 1.1c1.3-.9 2.9-1.4 4.5-1.4.7 0 1.1.1 1.7.1l.1 1.9Zm4.1 11.4v7.8h-2V8.1h1.1l.4 1.1c1.4-.9 2.8-1.4 4.3-1.4 4.5 0 5.8 3.2 5.8 7.3s-1.2 7.3-5.8 7.3c-1.1-.1-2.5-.4-3.8-1.3Zm7.7-6c0-2.7-.4-5.6-3.8-5.6-1.8 0-2.8.3-3.9.8v9.3c1.1.6 2.1.8 3.9.8 3.4.2 3.8-2.6 3.8-5.3Zm12.4-5.4c-.4-.1-.9-.2-1.7-.2-1.9 0-3 .3-4.1.8V22h-2V8h1.1l.4 1.1c1.3-.9 2.9-1.4 4.5-1.4.7 0 1.1.1 1.7.1l.1 1.9Zm3.4-7.3c.8 0 1.4.7 1.4 1.4s-.7 1.4-1.4 1.4-1.4-.7-1.4-1.4.7-1.4 1.4-1.4Zm-.9 16.8V8.1h1.9v11.4c0 .9.3 1.2 1.1 1.2v1.6c-2 0-3-.8-3-3.1Zm10.4-5.2c4 .4 4.9 1.7 4.9 4 0 2.2-1.4 4.3-5.7 4.3-1.3 0-3.3-.4-4.2-.7v-1.7c.8.3 2.2.7 4.2.7 2.9 0 3.7-1.2 3.7-2.6 0-1.3-.4-2.2-3.1-2.4-4.1-.4-4.9-1.8-4.9-3.7 0-2 1.3-4.2 5.2-4.2 1.3 0 2.8.2 4.1.7v1.7c-1.1-.4-2.2-.7-4.1-.7-2.7 0-3.4 1-3.4 2.4.1 1.3.6 2 3.3 2.2Zm13.2-6.2c4.7 0 5.3 3.2 5.3 7.3v.8h-9.3c.1 2.5.8 4.6 3.9 4.6 2 0 3.2-.2 4.6-.8v1.7c-1.6.7-3.2.9-4.6.9-4.7 0-5.9-3.2-5.9-7.3.2-4 1.3-7.2 6-7.2Zm-4 6.5h7.3c0-2.5-.1-4.8-3.4-4.8-3.2 0-3.8 2.4-3.9 4.8Zm-179-4.5H8.9c-.2 0-.4.1-.4.3v3.3c0 .2.2.3.3.3h2.6v4.2s-.6.2-2.3.2c-2 0-4.7-.8-4.7-6.7 0-6 2.8-6.8 5.5-6.8 2.3 0 3.3.4 4 .6.2.1.4-.1.4-.3l.7-3.3c0-.1 0-.2-.1-.3-.1-.1-1.7-1-5.6-1C4.7.3 0 2.3 0 11.7s5.4 10.8 9.9 10.8c3.8 0 6-1.6 6-1.6.1-.1.1-.2.1-.3V10.1c.1-.2-.1-.3-.3-.3Zm35.6-8.3c0-.2-.1-.3-.3-.3h-3.9c-.2 0-.3.2-.3.3V9h-6V1.5c0-.2-.2-.3-.3-.3h-3.9c-.2 0-.3.2-.3.3v20.2c0 .2.2.3.3.3h3.9c.2 0 .3-.2.3-.3v-8.6h6v8.6c0 .2.2.3.3.3H51c.2 0 .3-.2.3-.3V1.5ZM23.1 4.1c0-1.4-1.1-2.5-2.5-2.5s-2.5 1.1-2.5 2.5 1.1 2.5 2.5 2.5 2.5-1.1 2.5-2.5Zm-.2 13.3V8.1c0-.2-.2-.3-.3-.3h-3.9c-.2 0-.4.2-.4.4v13.3c0 .4.3.5.6.5h3.5c.4 0 .5-.2.5-.5v-4.1Zm43.4-9.6h-3.9c-.2 0-.3.2-.3.3V18s-.9.8-2.4.8c-1.4 0-1.7-.7-1.7-2V8.2c0-.2-.2-.3-.3-.3h-4c-.2 0-.3.2-.3.3v9.3c0 4.1 2.3 5 5.3 5 2.5 0 4.5-1.4 4.5-1.4s.1.8.1.9c0 .1.2.2.3.2h2.5c.2 0 .3-.2.3-.3V8.2c.2-.3.1-.4-.1-.4ZM77 7.3c-2.2 0-3.7.9-3.7.9V1.5c0-.2-.2-.3-.3-.3h-3.9c-.2 0-.3.2-.3.3v20.2c0 .2.2.3.3.3h2.6c.1 0 .2-.1.3-.2.1-.1.2-.9.2-.9s1.6 1.5 4.5 1.5c3.5 0 5.6-1.8 5.6-8 .1-6.2-3.2-7.1-5.3-7.1Zm-1.5 11.4c-1.3 0-2.3-.7-2.3-.7v-6.3s.8-.6 2-.7c1.4-.1 2.7.3 2.7 3.6 0 3.5-.6 4.2-2.4 4.1Zm-41.6-11H31V3.9c0-.2-.1-.2-.3-.2h-4c-.2 0-.2.1-.2.2v4s-2 .5-2.1.5c-.1 0-.2.2-.2.3v2.5c0 .2.2.3.3.3h2v6c0 4.4 3.1 4.9 5.2 4.9.9 0 2.1-.3 2.3-.4.1 0 .2-.2.2-.3V19c0-.2-.2-.3-.3-.3-.2 0-.6.1-1 .1-1.4 0-1.9-.7-1.9-1.5v-5.7h2.9c.2 0 .3-.2.3-.3V8.1c0-.2-.2-.4-.3-.4Z" fill="#212529" fill-rule="nonzero"/></svg>