<svg version="1.1" id="Layer_1" xmlns="http://www.w3.org/2000/svg" x="0" y="0" viewBox="0 0 140 44" style="enable-background:new 0 0 140 44" xml:space="preserve"><style>.st1{fill:#e24329}.st2{fill:#fc6d26}.st3{fill:#fca326}</style><path d="M93.6 11.6h-2.9v21h11.5V30h-8.6V11.6zm19.6 17.3c-.7.7-1.9 1.4-3.5 1.4-2.2 0-3-1.1-3-2.4 0-2 1.4-3.1 4.5-3.1.6 0 1.6.1 2 .1v4zm-3-12.8c-2.3 0-4.4.8-6 2.2l1 1.7c1.2-.7 2.6-1.3 4.5-1.3 2.3 0 3.3 1.2 3.3 3.2V23c-.5-.1-1.4-.1-1.9-.1-4.9 0-7.4 1.8-7.4 5.4 0 3.2 2 4.9 5 4.9 2 0 3.9-1 4.7-2.4l.5 2h2V22c0-3.6-1.5-5.9-5.7-5.9zM125 30.5c-1.1 0-2-.1-2.8-.5v-9.7c1-.8 2.2-1.4 3.7-1.4 2.8 0 3.8 1.9 3.8 5 .1 4.4-1.6 6.6-4.7 6.6m1.2-14.4c-2.5 0-3.9 1.7-3.9 1.7v-6.4h-2.8V32c1.4.6 3.2 1 5.4 1 5.3 0 7.8-3.3 7.8-9.2 0-4.6-2.3-7.7-6.5-7.7m-63.4-2.3c2.5 0 4.1.8 5.1 1.7l1.2-2.2c-1.7-1.4-3.8-2.3-6.2-2.3-6 0-10.2 3.7-10.2 11 0 7.8 4.5 10.8 9.7 10.8 2.6 0 4.8-.6 6.2-1.2V20.8h-7.8v2.6h4.9v6.3c-.6.4-1.8.6-3.2.6-4.2 0-6.9-2.6-6.9-8.1.1-5.7 3.1-8.4 7.2-8.4m20-2.2H80V27.4c0 3.3 1.4 5.7 5.7 5.7.6 0 1.2 0 1.7-.1v-2.6c-.4.1-.8.1-1.3.1-2.3 0-3.3-1.2-3.3-3.2v-8.4h4.7v-2.3h-4.7v-5zm-9.8 21h2.8V16.5H73v16.1zm0-18.3h2.8v-2.8H73v2.8z" style="fill:#495057"/><path class="st1" d="m21.1 41.3 7.7-23.8H13.4l7.7 23.8z"/><path class="st2" d="m21.1 41.3-7.7-23.8H2.5l18.6 23.8z"/><path class="st3" d="M2.5 17.5.1 24.7c-.2.7 0 1.4.6 1.8L21 41.3 2.5 17.5z"/><path class="st1" d="M2.5 17.5h10.8L8.7 3.2c-.2-.7-1.3-.7-1.5 0L2.5 17.5z"/><path class="st2" d="m21.1 41.3 7.7-23.8h10.8L21.1 41.3z"/><path class="st3" d="m39.7 17.5 2.4 7.2c.2.7 0 1.4-.6 1.8L21.1 41.3l18.6-23.8z"/><path class="st1" d="M39.7 17.5H28.8l4.7-14.3c.2-.7 1.3-.7 1.5 0l4.7 14.3z"/></svg>