<?xml version="1.0" encoding="utf-8"?>
<!-- Generator: Adobe Illustrator 21.1.0, SVG Export Plug-In . SVG Version: 6.00 Build 0)  -->
<svg version="1.1" id="Layer_1" xmlns="http://www.w3.org/2000/svg" xmlns:xlink="http://www.w3.org/1999/xlink" x="0px" y="0px"
	 viewBox="0 0 140 44" style="enable-background:new 0 0 140 44;" xml:space="preserve">
<style type="text/css">
	.st0{fill:#495057;}
	.st1{fill:#E24329;}
	.st2{fill:#FC6D26;}
	.st3{fill:#FCA326;}
</style>
<g>
	<g>
		<path class="st0" d="M93.6,11.6h-2.9v21h11.5V30h-8.6V11.6L93.6,11.6z M113.2,28.9c-0.7,0.7-1.9,1.4-3.5,1.4c-2.2,0-3-1.1-3-2.4
			c0-2,1.4-3.1,4.5-3.1c0.6,0,1.6,0.1,2,0.1L113.2,28.9L113.2,28.9z M110.2,16.1c-2.3,0-4.4,0.8-6,2.2l1,1.7
			c1.2-0.7,2.6-1.3,4.5-1.3c2.3,0,3.3,1.2,3.3,3.2v1.1c-0.5-0.1-1.4-0.1-1.9-0.1c-4.9,0-7.4,1.8-7.4,5.4c0,3.2,2,4.9,5,4.9
			c2,0,3.9-1,4.7-2.4l0.5,2h2V22C115.9,18.4,114.4,16.1,110.2,16.1L110.2,16.1z M125,30.5c-1.1,0-2-0.1-2.8-0.5v-9.7
			c1-0.8,2.2-1.4,3.7-1.4c2.8,0,3.8,1.9,3.8,5C129.8,28.3,128.1,30.5,125,30.5 M126.2,16.1c-2.5,0-3.9,1.7-3.9,1.7V15v-3.6h-2.8V32
			c1.4,0.6,3.2,1,5.4,1c5.3,0,7.8-3.3,7.8-9.2C132.7,19.2,130.4,16.1,126.2,16.1 M62.8,13.8c2.5,0,4.1,0.8,5.1,1.7l1.2-2.2
			c-1.7-1.4-3.8-2.3-6.2-2.3c-6,0-10.2,3.7-10.2,11c0,7.8,4.5,10.8,9.7,10.8c2.6,0,4.8-0.6,6.2-1.2v-8.2v-2.6h-7.8v2.6h4.9v6.3
			c-0.6,0.4-1.8,0.6-3.2,0.6c-4.2,0-6.9-2.6-6.9-8.1C55.7,16.5,58.7,13.8,62.8,13.8 M82.8,11.6h-2.8v3.6v12.2c0,3.3,1.4,5.7,5.7,5.7
			c0.6,0,1.2,0,1.7-0.1v-2.6c-0.4,0.1-0.8,0.1-1.3,0.1c-2.3,0-3.3-1.2-3.3-3.2v-8.4h4.7v-2.3h-4.7C82.8,16.5,82.8,11.6,82.8,11.6z
			 M73,32.6h2.8V16.5H73V32.6L73,32.6z M73,14.3h2.8v-2.8H73V14.3z"/>
	</g>
	<path class="st1" d="M21.1,41.3l7.7-23.8H13.4L21.1,41.3L21.1,41.3z"/>
	<path class="st2" d="M21.1,41.3l-7.7-23.8H2.5L21.1,41.3L21.1,41.3z"/>
	<path class="st3" d="M2.5,17.5l-2.4,7.2c-0.2,0.7,0,1.4,0.6,1.8L21,41.3L2.5,17.5L2.5,17.5z"/>
	<path class="st1" d="M2.5,17.5h10.8L8.7,3.2c-0.2-0.7-1.3-0.7-1.5,0L2.5,17.5L2.5,17.5z"/>
	<path class="st2" d="M21.1,41.3l7.7-23.8h10.8L21.1,41.3L21.1,41.3z"/>
	<path class="st3" d="M39.7,17.5l2.4,7.2c0.2,0.7,0,1.4-0.6,1.8L21.1,41.3L39.7,17.5L39.7,17.5z"/>
	<path class="st1" d="M39.7,17.5H28.8l4.7-14.3c0.2-0.7,1.3-0.7,1.5,0L39.7,17.5L39.7,17.5z"/>
</g>
</svg>
