<svg xmlns="http://www.w3.org/2000/svg" viewBox="0 0 300 300"><defs><style>.a{fill:#94070a}.b{fill:#005984}</style></defs><path class="a" d="m33.08 144.65 27 39H42.71l-19.08-28.94-7.94 8.12v20.79H2v-64.49h13.7v19.24c0 1.64 0 1.64-.1 8.12 3.69-4.55 3.87-4.74 5.29-6.29l19.46-21.07h17.47l-24.74 25.52Z"/><path class="a" d="M127.82 183.62h-13v-19.34c0-10.92.28-20.11.85-32.68-2 8-3.59 13.83-6.42 22.63l-9.83 29.39h-10.9l-10.1-28.82A234.51 234.51 0 0 1 72 131.89c.85 18.37.85 19.53.85 30.94v20.79h-13v-64.49h19.52l9.44 28A149 149 0 0 1 94 167.57 173.47 173.47 0 0 1 99.48 147l9-27.84h19.36v64.49Z"/><path class="b" d="M134.9 130c-1.33-7.48-2.08-7.86-8.49-9.37V119h13.82l9.23 51.85h.16L162.68 119h7l13.23 49.49h.16l9.06-49.49h4.41l-11.9 64.72H180l-15.13-56.49h-.17l-14.25 56.47h-6L134.9 130ZM210.62 179.88c9.48 0 10.15-11.92 10.15-19.11 0-7.77-1.34-19.59-10.32-19.59-9.82 0-10.23 11.82-10.23 19.59 0 7.1 1.5 19.11 10.4 19.11Zm-17.47-19.11c0-13.91 5.07-23.28 17.22-23.28 10.9 0 17.47 9 17.47 23.19s-5.66 22.89-17.31 22.89c-11.14 0-17.38-9.27-17.38-22.8Z"/><path class="b" d="M231.62 148.25c0-6-3.91-6.24-6.32-6.53v-1.61l12.7-2.27v11.26h.16c1.09-4 3.17-11.26 11.07-11.26a1.94 1.94 0 0 1 .75.1v7.85a9.84 9.84 0 0 0-2.75-.66c-8.07 0-9.23 9.27-9.23 15v22.71h-6.41v-34.59Z"/><path class="b" d="M254.41 126.58c0-5.87-4.15-6-6.49-6.24v-1.61l12.9-2.08v66.23h-6.41v-56.3ZM291.6 158.6c0-7-2-17.41-9.57-17.41-7.74 0-9.48 11.73-9.48 19.39 0 6.53 1.41 19.31 9.14 19.31s9.91-10.22 9.91-17.51v-3.78Zm0 17.69h-.17c-1.41 2.93-4.58 7.28-10.48 7.28-10.07 0-15.48-9.74-15.48-23 0-12.3 4.67-23.09 15.06-23.09 6.08 0 9.57 4.55 10.9 7.48h.17v-17c0-6.16-1.42-7.86-6.33-8v-1.6L298 116.3v66.24h-6.4v-6.25Z"/></svg>