<?xml version="1.0" encoding="utf-8"?>
<svg version="1.1" id="Layer_1" xmlns="http://www.w3.org/2000/svg" xmlns:xlink="http://www.w3.org/1999/xlink" x="0px" y="0px"
	 viewBox="0 0 612 90" style="enable-background:new 0 0 612 90;" xml:space="preserve">
<style type="text/css">
	.st0{display:none;fill:#423F41;}
	.st1{display:none;}
	.st2{display:inline;}
	.st3{display:inline;fill:#333333;}
	.st4{display:inline;fill:#FFFFFF;}
	.st5{display:inline;fill:#E5E5E5;}
	.st6{display:inline;fill:#4F69A8;}
	.st7{display:inline;fill:#798AB5;}
	.st8{display:inline;fill:#A8B2CC;}
	.st9{fill:#333333;}
	.st10{fill:#2D36FB;}
</style>
<rect x="143" y="93.5" class="st0" width="464" height="94"/>
<g id="bottom_dark_text" class="st1">
	<path class="st2" d="M59.5,222.9h12.9V220h-9.6v-15.4h-3.2v18.3L59.5,222.9L59.5,222.9z M75.9,204.5v18.3h3.2v-18.3H75.9
		L75.9,204.5z M100.4,220.3v-7.7h-7.8v2.8h4.7v3.4c-0.6,0.4-1.2,0.8-2,1c-0.8,0.3-1.6,0.4-2.5,0.4s-1.8-0.2-2.6-0.5
		c-0.8-0.3-1.4-0.8-2-1.4c-0.6-0.6-1-1.3-1.3-2.1s-0.4-1.7-0.4-2.6c0-0.9,0.2-1.7,0.5-2.5s0.7-1.5,1.3-2.1c0.5-0.6,1.2-1.1,1.9-1.4
		c0.7-0.3,1.5-0.5,2.3-0.5c0.6,0,1.1,0,1.6,0.1s0.9,0.2,1.3,0.4s0.8,0.4,1.2,0.6c0.4,0.2,0.7,0.5,1.1,0.8l2-2.4
		c-0.5-0.4-1-0.8-1.5-1.1s-1-0.6-1.6-0.8s-1.2-0.4-1.8-0.5c-0.7-0.1-1.4-0.2-2.2-0.2c-1.4,0-2.7,0.3-3.8,0.8c-1.2,0.5-2.2,1.2-3,2.1
		c-0.8,0.9-1.5,1.9-2,3c-0.5,1.2-0.7,2.4-0.7,3.7s0.2,2.6,0.7,3.7c0.5,1.2,1.1,2.2,1.9,3s1.8,1.5,3,2s2.5,0.7,3.9,0.7
		c0.8,0,1.6-0.1,2.3-0.2c0.7-0.1,1.4-0.4,2.1-0.6c0.6-0.3,1.2-0.6,1.8-0.9C99.4,221.1,99.9,220.7,100.4,220.3L100.4,220.3z
		 M116.5,215.1v7.7h3.2v-18.3h-3.2v7.6h-8.8v-7.6h-3.2v18.3h3.2v-7.7H116.5L116.5,215.1z M132.2,207.5h5.8v-3h-14.9v3h5.8v15.4h3.2
		v-15.4H132.2z"/>
	<path class="st3" d="M144.7,209.1c0-0.4,0.1-0.8,0.3-1.2s0.4-0.7,0.8-0.9c0.3-0.3,0.8-0.5,1.2-0.6c0.5-0.2,1-0.2,1.6-0.2
		c0.9,0,1.8,0.2,2.7,0.5s1.7,0.8,2.6,1.5l1.2-1.6c-0.9-0.8-1.9-1.3-2.9-1.7s-2.2-0.6-3.5-0.6c-0.9,0-1.7,0.1-2.4,0.4
		c-0.7,0.3-1.4,0.6-1.9,1s-1,1-1.3,1.6s-0.4,1.3-0.4,2c0,0.8,0.1,1.4,0.4,2c0.2,0.6,0.6,1,1.1,1.5c0.5,0.4,1.1,0.8,1.9,1.1
		c0.8,0.3,1.7,0.6,2.7,0.8s1.8,0.4,2.4,0.7c0.6,0.2,1.1,0.5,1.5,0.8c0.3,0.3,0.6,0.6,0.7,0.9c0.1,0.3,0.2,0.7,0.2,1.2
		c0,0.9-0.4,1.7-1.1,2.3c-0.7,0.6-1.7,0.9-3,0.9s-2.4-0.2-3.4-0.6c-1-0.4-1.9-1.1-2.9-2l-1.3,1.5c1.1,1,2.3,1.7,3.5,2.2
		s2.6,0.7,4,0.7c0.9,0,1.7-0.1,2.5-0.4c0.8-0.2,1.4-0.6,2-1c0.6-0.5,1-1,1.3-1.7c0.3-0.6,0.5-1.4,0.5-2.1c0-1.4-0.5-2.5-1.5-3.3
		s-2.5-1.4-4.5-1.9c-1-0.2-1.8-0.4-2.5-0.7c-0.6-0.2-1.2-0.5-1.5-0.8c-0.4-0.3-0.6-0.6-0.8-1C144.8,209.9,144.7,209.6,144.7,209.1
		L144.7,209.1z M166.4,206.4h6.2v-1.9h-14.4v1.9h6.2v16.4h2.1v-16.4H166.4z M189.7,204.5h-13.3v18.3h13.4V221h-11.3v-6.4h10v-1.9
		h-10v-6.3h11.2L189.7,204.5L189.7,204.5z M207.7,210.4c0-0.9-0.2-1.7-0.5-2.5c-0.3-0.7-0.8-1.3-1.4-1.8c-0.6-0.5-1.3-0.9-2.2-1.2
		c-0.8-0.3-1.8-0.4-2.8-0.4H194v18.3h2.1v-6.5h4.5c1,0,1.9-0.1,2.8-0.4c0.9-0.3,1.6-0.6,2.3-1.1s1.2-1.1,1.6-1.9
		C207.5,212.2,207.7,211.4,207.7,210.4L207.7,210.4z M205.6,210.5c0,0.6-0.1,1.2-0.4,1.7c-0.2,0.5-0.6,0.9-1,1.3
		c-0.4,0.4-1,0.6-1.6,0.8s-1.3,0.3-2.1,0.3H196v-8.1h4.6c1.5,0,2.7,0.3,3.6,1C205.2,208.1,205.6,209.1,205.6,210.5z"/>
</g>
<g id="right-side_light_text" class="st1">
	<path class="st4" d="M245.3,169.5h39.9v-9.1h-29.9v-47.8h-10L245.3,169.5L245.3,169.5z M296.2,112.6v56.9h10v-56.9H296.2
		L296.2,112.6z M372.1,161.6v-23.9h-24.2v8.7h14.6V157c-1.7,1.3-3.8,2.3-6.1,3.1c-2.4,0.8-4.9,1.2-7.6,1.2c-2.9,0-5.6-0.5-7.9-1.5
		c-2.4-1-4.4-2.5-6.1-4.3s-3-4-3.9-6.5s-1.4-5.2-1.4-8.1c0-2.8,0.5-5.4,1.4-7.8c0.9-2.4,2.2-4.6,3.9-6.4c1.7-1.8,3.6-3.3,5.9-4.3
		c2.2-1.1,4.7-1.6,7.3-1.6c1.8,0,3.4,0.1,4.9,0.4s2.9,0.7,4.1,1.2s2.4,1.2,3.6,1.9c1.1,0.8,2.2,1.6,3.3,2.5l6.3-7.6
		c-1.5-1.2-3-2.3-4.5-3.3c-1.5-0.9-3.2-1.7-4.9-2.4c-1.7-0.7-3.6-1.2-5.6-1.5c-2-0.4-4.3-0.5-6.8-0.5c-4.3,0-8.2,0.8-11.8,2.4
		c-3.6,1.6-6.7,3.7-9.3,6.4c-2.6,2.7-4.6,5.8-6.1,9.4c-1.4,3.6-2.2,7.4-2.2,11.4c0,4.2,0.7,8,2.1,11.6s3.4,6.7,6,9.3
		s5.7,4.7,9.3,6.2c3.6,1.5,7.7,2.2,12.1,2.2c2.5,0,4.9-0.2,7.2-0.7c2.3-0.5,4.4-1.1,6.4-1.9c2-0.8,3.8-1.8,5.5-2.8
		C369.2,164,370.7,162.8,372.1,161.6L372.1,161.6z M422.3,145.5v24h10v-56.9h-10v23.7h-27.1v-23.7h-10v56.9h10v-24H422.3
		L422.3,145.5z M471,121.9h18v-9.3h-46.2v9.3h18v47.6H471V121.9z"/>
	<path class="st5" d="M509.6,126.9c0-1.3,0.3-2.5,0.9-3.7c0.6-1.1,1.4-2.1,2.4-2.9c1.1-0.8,2.3-1.5,3.8-2s3.2-0.7,5-0.7
		c2.9,0,5.7,0.5,8.4,1.5s5.4,2.5,8,4.7l3.7-5c-2.9-2.3-5.9-4.1-9.1-5.2c-3.1-1.2-6.8-1.7-10.9-1.7c-2.7,0-5.2,0.4-7.5,1.2
		c-2.3,0.8-4.3,1.9-5.9,3.3c-1.7,1.4-3,3-3.9,4.9s-1.4,4-1.4,6.3c0,2.4,0.4,4.4,1.1,6.2c0.8,1.7,1.9,3.3,3.5,4.6s3.6,2.4,6,3.3
		c2.4,0.9,5.2,1.7,8.5,2.4c3,0.7,5.4,1.3,7.4,2c1.9,0.7,3.4,1.5,4.5,2.4s1.8,1.8,2.3,2.9c0.4,1.1,0.7,2.3,0.7,3.6
		c0,2.9-1.2,5.3-3.5,7.1s-5.4,2.7-9.2,2.7c-4,0-7.5-0.7-10.5-2s-6-3.3-9-6.1l-4,4.7c3.4,3.1,7,5.4,10.8,6.9s7.9,2.2,12.5,2.2
		c2.8,0,5.4-0.4,7.8-1.1c2.4-0.8,4.4-1.8,6.1-3.3c1.7-1.4,3-3.1,4-5.1s1.5-4.2,1.5-6.7c0-4.4-1.5-7.8-4.5-10.3s-7.7-4.4-14-5.9
		c-3.1-0.6-5.7-1.3-7.7-2.1c-2-0.7-3.6-1.5-4.7-2.4c-1.1-0.9-1.9-1.9-2.4-3C509.8,129.4,509.6,128.2,509.6,126.9L509.6,126.9z
		 M577,118.6h19.1v-5.9h-44.7v5.9h19.1v51h6.5L577,118.6L577,118.6z M649.2,112.6h-41.1v56.9h41.5v-5.9h-35.1v-19.9h31.1v-5.9h-31.1
		v-19.4h34.7L649.2,112.6L649.2,112.6z M705.1,130.8c0-2.8-0.5-5.4-1.5-7.6s-2.4-4.1-4.3-5.7c-1.9-1.5-4.1-2.7-6.7-3.6
		c-2.6-0.8-5.5-1.3-8.7-1.3h-21.3v56.9h6.4v-20.1h13.8c3,0,5.9-0.4,8.6-1.2c2.7-0.8,5.1-2,7.1-3.5c2-1.6,3.6-3.5,4.8-5.9
		C704.6,136.6,705.1,133.8,705.1,130.8L705.1,130.8z M698.6,131c0,1.9-0.4,3.6-1.1,5.2c-0.7,1.5-1.8,2.9-3.2,4s-3,2-5,2.6
		c-1.9,0.6-4.1,0.9-6.4,0.9H669v-25h14.4c4.6,0,8.3,1,11.1,3.1C697.3,123.8,698.6,126.9,698.6,131z"/>
</g>
<g id="light_logo" class="st1">
	<path class="st6" d="M70.8,193.2h52.3c15.6,0,27-9,35.4-21.2c5-7.3,10.2-13.8,19.9-13.8H210v-16.6h-43.8c-9.7,0-14.8,6.5-19.9,13.8
		c-8.4,12.2-19.7,21.2-35.4,21.2H70.8V193.2z"/>
	<path class="st7" d="M42.8,170.8h64.8c15.6,0,27-9,35.4-21.2c5-7.3,10.2-13.8,19.9-13.8h61.5V115h-61.5c-19.1,0-24.8,8.9-32.7,19.3
		c-5.8,7.7-12,15.7-22.6,15.7H42.8V170.8z"/>
	<path class="st8" d="M58.4,144.6h45.1c10.6,0,16.8-8.1,22.6-15.7c7.9-10.4,13.6-19.3,32.7-19.3h34.5v-18H150
		c-19.1,0-24.8,8.9-32.7,19.3c-5.8,7.7-12,15.7-22.6,15.7H58.4V144.6z"/>
</g>
<g>
	<g>
		<g id="right-side_light_text_1_">
			<path d="M184,71.1017h36.0992v-8.1746h-27.0518v-42.939H184V71.1017L184,71.1017z M230.0513,19.9881v51.1136h9.0474V19.9881
				H230.0513L230.0513,19.9881z M298.7212,64.0051V42.5356h-21.8947v7.8153h13.2092v9.522
				c-1.5381,1.1678-3.438,2.0661-5.5189,2.7848c-2.1714,0.7186-4.4332,1.078-6.876,1.078c-2.6237,0-5.0666-0.4492-7.1475-1.3475
				c-2.1714-0.8983-3.9809-2.2458-5.5189-3.8627c-1.5381-1.617-2.7142-3.5932-3.5285-5.839
				c-0.8142-2.2458-1.2666-4.6712-1.2666-7.2763c0-2.5153,0.4524-4.8508,1.2666-7.0068c0.8143-2.1559,1.9904-4.1322,3.5285-5.7492
				c1.5381-1.617,3.2571-2.9644,5.338-3.8627c1.9904-0.9881,4.2523-1.4373,6.6046-1.4373c1.6285,0,3.0761,0.0898,4.4332,0.3593
				s2.6237,0.6288,3.7094,1.078s2.1714,1.078,3.2571,1.7068c0.9952,0.7186,1.9904,1.4373,2.9856,2.2458l5.6999-6.8271
				c-1.3571-1.078-2.7142-2.0661-4.0714-2.9644c-1.3571-0.8085-2.8952-1.5271-4.4332-2.1559
				c-1.5381-0.6288-3.257-1.078-5.0665-1.3475C281.6215,19.0898,279.5406,19,277.2788,19c-3.8904,0-7.4189,0.7186-10.6759,2.1559
				c-3.2571,1.4373-6.0618,3.3237-8.4141,5.7492c-2.3523,2.4254-4.1618,5.2102-5.5189,8.4441
				c-1.2666,3.2339-1.9904,6.6474-1.9904,10.2407c0,3.7729,0.6333,7.1864,1.9,10.4203c1.2666,3.2339,3.0761,6.0186,5.4285,8.3542
				c2.3523,2.3356,5.157,4.222,8.4141,5.5695s6.9665,1.9763,10.9474,1.9763c2.2619,0,4.4332-0.1797,6.5142-0.6288
				c2.0809-0.4492,3.9808-0.9881,5.7903-1.7068c1.8095-0.7186,3.438-1.617,4.9761-2.5153
				C296.0974,66.161,297.4546,65.0831,298.7212,64.0051L298.7212,64.0051z M344.1392,49.5424v21.5593h9.0474V19.9881h-9.0474V41.278
				h-24.5185V19.9881h-9.0474v51.1135h9.0474V49.5424H344.1392L344.1392,49.5424z M388.2001,28.3424h16.2853v-8.3542h-41.7991
				v8.3542h16.2853v42.7593H388.2L388.2001,28.3424L388.2001,28.3424z"/>
			<path class="st9" d="M423.1231,32.8339c0-1.1678,0.2714-2.2458,0.8143-3.3237c0.5428-0.9881,1.2666-1.8864,2.1714-2.6051
				c0.9952-0.7186,2.0809-1.3475,3.438-1.7966c1.3571-0.4492,2.8952-0.6288,4.5237-0.6288c2.6238,0,5.157,0.4492,7.5999,1.3475
				c2.4428,0.8983,4.8856,2.2458,7.2379,4.222l3.3476-4.4915c-2.6238-2.0661-5.338-3.6831-8.2331-4.6712
				c-2.8047-1.078-6.1523-1.5271-9.8617-1.5271c-2.4428,0-4.7047,0.3593-6.7856,1.078c-2.0809,0.7186-3.8904,1.7068-5.338,2.9644
				c-1.5381,1.2576-2.7142,2.6949-3.5285,4.4017c-0.8142,1.7068-1.2666,3.5932-1.2666,5.6593c0,2.1559,0.3619,3.9525,0.9952,5.5695
				c0.7238,1.5271,1.719,2.9644,3.1666,4.1322c1.4476,1.1678,3.2571,2.1559,5.4284,2.9644
				c2.1714,0.8085,4.7047,1.5271,7.6903,2.1559c2.7142,0.6288,4.8856,1.1678,6.6951,1.7966
				c1.719,0.6288,3.0761,1.3475,4.0714,2.1559c0.9952,0.8085,1.6285,1.617,2.0809,2.6051c0.3619,0.9881,0.6333,2.0661,0.6333,3.2339
				c0,2.6051-1.0857,4.761-3.1666,6.378s-4.8856,2.4254-8.3236,2.4254c-3.619,0-6.7856-0.6288-9.4998-1.7966
				c-2.7142-1.1678-5.4285-2.9644-8.1427-5.4797l-3.619,4.222c3.0761,2.7848,6.3332,4.8508,9.7712,6.1983S432.1706,72,436.3324,72
				c2.5333,0,4.8856-0.3593,7.057-0.9881c2.1714-0.7186,3.9809-1.617,5.5189-2.9644c1.5381-1.2576,2.7142-2.7848,3.619-4.5814
				s1.3571-3.7729,1.3571-6.0186c0-3.9525-1.3571-7.0068-4.0713-9.2525c-2.7142-2.2458-6.9665-3.9525-12.6664-5.3
				c-2.8047-0.539-5.157-1.1678-6.9665-1.8864c-1.8095-0.6288-3.257-1.3475-4.2523-2.1559
				c-0.9952-0.8085-1.719-1.7068-2.1714-2.6949C423.304,35.0797,423.1231,34.0017,423.1231,32.8339L423.1231,32.8339z
				 M484.1027,25.378h17.2805v-5.3h-40.442v5.3h17.2805v45.8136h5.8808L484.1027,25.378L484.1027,25.378z M549.425,19.9881h-37.1848
				v51.1136h37.5468v-5.3h-31.7564V47.9254h28.1375v-5.3h-28.1375V25.1983h31.3945L549.425,19.9881L549.425,19.9881z M600,36.3373
				c0-2.5153-0.4524-4.8508-1.3571-6.8271s-2.1714-3.6831-3.8904-5.1203c-1.719-1.3475-3.7094-2.4254-6.0618-3.2339
				c-2.3523-0.7186-4.9761-1.1678-7.8713-1.1678h-19.2709v51.1135h5.7903V53.0458h12.4854c2.7142,0,5.338-0.3593,7.7808-1.078
				c2.4428-0.7186,4.6141-1.7966,6.4236-3.1441c1.8094-1.4373,3.257-3.1441,4.3427-5.3C599.5476,41.5475,600,39.0322,600,36.3373
				L600,36.3373z M594.1192,36.5169c0,1.7068-0.3619,3.2339-0.9952,4.6712c-0.6333,1.3475-1.6285,2.6051-2.8951,3.5932
				s-2.7142,1.7966-4.5237,2.3356c-1.719,0.539-3.7094,0.8085-5.7903,0.8085h-12.5759V25.4678h13.0283
				c4.1617,0,7.5093,0.8983,10.0426,2.7847C592.9431,30.0492,594.1192,32.8339,594.1192,36.5169z"/>
		</g>
		<g id="dark_logo">
			<path class="st10" d="M25.2863,90h47.2313c14.0881,0,24.3833-7.9724,31.9692-18.7795
				c4.5154-6.4665,9.2115-12.2244,17.9714-12.2244h28.5375V44.2913h-39.5551c-8.7599,0-13.3656,5.7579-17.9714,12.2244
				C85.8833,67.3228,75.6784,75.2953,61.5,75.2953H25.2863V90z"/>
			<path class="st10" d="M0,70.1575h58.5198c14.0881,0,24.3833-7.9724,31.9692-18.7795
				c4.5154-6.4665,9.2114-12.2244,17.9714-12.2244H164V20.8169h-55.5396c-17.2489,0-22.3965,7.8839-29.5308,17.0965
				c-5.2379,6.8209-10.837,13.9075-20.4097,13.9075H0V70.1575z"/>
			<path class="st10" d="M14.0881,46.9488h40.7291c9.5727,0,15.1718-7.1752,20.4097-13.9075
				c7.1344-9.2126,12.2819-17.0965,29.5308-17.0965h31.1564V0H96.8106C79.5617,0,74.4141,7.8839,67.2797,17.0965
				C62.0418,23.9174,56.4427,31.004,46.87,31.004H14.0881V46.9488z"/>
		</g>
	</g>
	<g>
		<path class="st9" d="M607.6038,28.9515c-2.5872,0-4.6038-1.98-4.6038-4.4941C603,21.9671,604.9919,20,607.5306,20
			C610.0081,20,612,21.9553,612,24.3971C612,26.9715,610.0932,28.9515,607.6038,28.9515z M607.5425,20.4975
			c-2.2471,0-3.9719,1.7496-3.9719,3.9719c0,2.1986,1.7733,3.9847,3.9966,3.9847c2.162,0,3.8621-1.7496,3.8621-3.9353
			C611.4293,22.2223,609.7777,20.4975,607.5425,20.4975z M608.8668,27.0447l-1.4459-2.1501h-0.8743v2.1501h-0.8139v-5.3199h1.6398
			c0.7773,0,1.081,0.0366,1.3975,0.1582c0.5222,0.1938,0.8377,0.716,0.8377,1.3718c0,0.8753-0.4253,1.3609-1.3362,1.5676
			l1.5547,2.2223C609.8262,27.0447,608.8668,27.0447,608.8668,27.0447z M607.5673,24.1538c0.8862,0,1.2264-0.2918,1.2264-0.899
			c0-0.5222-0.267-0.8258-1.2383-0.8258h-1.0088v1.7248H607.5673z"/>
	</g>
</g>
</svg>
