<svg width="84" height="60" fill="none" xmlns="http://www.w3.org/2000/svg"><path fill-rule="evenodd" clip-rule="evenodd" d="M0 .987h12.77v34.616c0 5.49 2.46 8.751 4.454 10.124-2.079 1.844-8.4 3.474-13.151-.472C1.273 42.938 0 39.078 0 35.475V.987ZM79.715 29.77v-3.647h3.903v-12.74h-4.285C77.68 5.705 70.933 0 62.873 0 53.582 0 46.03 7.635 46.03 17.03v29.726c2.63.386 5.812-.043 8.485-2.316 2.8-2.317 4.073-6.177 4.073-9.78v-1.116h6.363v-12.74h-6.363v-3.86c0-2.402 1.909-4.333 4.285-4.333 2.376 0 4.285 1.93 4.285 4.333v12.783c0 9.394 7.551 17.03 16.842 17.03V34.058a4.287 4.287 0 0 1-4.285-4.29ZM31.436 13.34v18.746c0 1.072-.89 1.93-1.951 1.93-1.06 0-1.952-.858-1.952-1.93V13.34h-12.6v22.005c0 3.946 1.316 8.965 7.382 10.595 6.067 1.63 9.546-1.759 9.546-1.759-.34 2.231-2.376 3.861-5.728 4.204-2.545.258-5.77-.6-7.381-1.287v11.668c4.115 1.244 8.442 1.63 12.727.772 7.721-1.501 12.6-8.022 12.6-16.73V13.256H31.436v.085Z" fill="#FF00BF"/></svg>