<?xml version="1.0" encoding="UTF-8"?>
<svg viewBox="15 0 71 50" version="1.1" xmlns="http://www.w3.org/2000/svg" xmlns:xlink="http://www.w3.org/1999/xlink">
    <!-- Generator: Sketch 50.2 (55047) - http://www.bohemiancoding.com/sketch -->
    <title>Lyft_logo</title>
    <desc>Created with Sketch.</desc>
    <defs></defs>
    <g id="Page-1" stroke="none" stroke-width="1" fill="none" fill-rule="evenodd">
        <g id="Lyft_logo" transform="translate(15.000000, 0.000000)" fill="#FF00BF" fill-rule="nonzero">
            <path d="M0.263996037,1.17711268 L10.9016916,1.17711268 L10.9016916,29.5834507 C10.9016916,34.0788732 12.9683629,36.7566901 14.6025904,37.9045775 C12.8724609,39.4348592 7.58546252,40.7739437 3.64427773,37.521831 C1.32068795,35.6049296 0.263996037,32.4528169 0.263996037,29.4876761 L0.263996037,1.17711268 Z M66.7453465,24.7735915 L66.7453465,21.7883803 L69.9897374,21.7883803 L69.9897374,11.315493 L66.4268526,11.315493 C65.0590983,5.0278169 59.4330809,0.316197183 52.7047208,0.316197183 C44.9536414,0.316197183 38.670465,6.56830986 38.670465,14.2802817 L38.670465,38.7376761 C40.8786892,39.0464789 43.5094487,38.6992958 45.7477528,36.8524648 C48.0709887,34.9352113 49.1276807,31.7834507 49.1276807,28.8183099 L49.1276807,27.9172535 L54.4405124,27.9172535 L54.4405124,17.4443662 L49.1276807,17.4443662 L49.1276807,14.2802817 L49.1404204,14.2802817 C49.1404204,12.321831 50.7360747,10.7341549 52.7047208,10.7341549 C54.673013,10.7341549 56.2750372,12.321831 56.2750372,14.2802817 L56.2750372,24.7735915 C56.2750372,32.4855634 62.5649374,38.7376761 70.3156628,38.7376761 L70.3156628,28.3197183 C68.3473707,28.3197183 66.7453465,26.7320423 66.7453465,24.7735915 Z M26.4565787,11.315493 L26.4565787,26.6855634 C26.4565787,27.5580986 25.7289971,28.265493 24.8311982,28.265493 C23.9333994,28.265493 23.2058178,27.5580986 23.2058178,26.6855634 L23.2058178,11.315493 L12.679949,11.315493 L12.679949,29.3922535 C12.679949,32.6440141 13.7883077,36.7566901 18.8321891,38.0957746 C23.8813787,39.4362676 26.8104608,36.6612676 26.8104608,36.6612676 C26.5436337,38.4894366 24.8131503,39.8285211 22.0256211,40.115493 C19.9164838,40.3323944 17.2191946,39.6373239 15.8737349,39.0633803 L15.8737349,48.640493 C19.3021445,49.6464789 22.9283743,49.9714789 26.4771038,49.2862676 C32.9174039,48.0429577 36.9820936,42.6869718 36.9820936,35.5612676 L36.9820936,11.315493 L26.4565787,11.315493 Z" id="logo_standard"></path>
        </g>
    </g>
</svg>


