<svg xmlns="http://www.w3.org/2000/svg" viewBox="0 0 300 300"><path d="M151.5 172.2c0 1 0 1.3.7 1.9l3.8 3.7v.2h-16.9v-7.2a11.8 11.8 0 0 1-11.2 7.8c-8.7 0-15-6.9-15-19.5s6.8-19.7 16.4-19.7a10 10 0 0 1 9.8 6.1v-15.9a2 2 0 0 0-.8-1.9l-3.6-3.5v-.2l16.8-2Zm-12.4-2.3v-23.7a6.5 6.5 0 0 0-5-2.4c-4.1 0-8.1 3.8-8.1 14.9s3.4 14.1 7.7 14.1a6.7 6.7 0 0 0 5.4-2.9Zm23.6 8.1v-32.1a2.3 2.3 0 0 0-.7-1.9l-3.8-3.9h16.9v32.5c0 1 0 1.2.7 1.8l3.7 3.6h-16.8Zm-.7-49.8a6.8 6.8 0 1 1 6.8 6.9 6.9 6.9 0 0 1-6.8-6.9Zm58.6 44c0 1 0 1.3.7 1.9l3.8 3.7v.2h-17v-8.2a12.1 12.1 0 0 1-11.6 8.8c-7.5 0-11.5-5.5-11.5-16 0-5.1 0-10.6.1-16.8a2 2 0 0 0-.6-1.9l-3.8-3.8h16.8V161c0 6.8 1 11.4 5.2 11.4a6.6 6.6 0 0 0 5.5-3.4v-23a2.5 2.5 0 0 0-.7-2l-3.7-3.9h16.8ZM278 178c0-1.2.3-17 .3-20.6 0-6.9-1.1-11.6-5.9-11.6a7.7 7.7 0 0 0-6 3.3 28.1 28.1 0 0 1 .7 6.5c0 4.8-.2 10.8-.2 16.9a2 2 0 0 0 .7 1.9l3.8 3.5h-17.1c0-1.1.3-16.9.3-20.6 0-6.9-1.1-11.6-5.8-11.6a6.8 6.8 0 0 0-5.6 3.4v23.4c0 1 0 1.2.7 1.8l3.7 3.6h-16.9v-32a2.1 2.1 0 0 0-.7-2l-3.7-4h16.9v8.1a11.9 11.9 0 0 1 12.1-8.7c5.6 0 9.4 3.1 11 9.1a13.1 13.1 0 0 1 12.7-9.1c7.5 0 11.7 5.6 11.7 16.2 0 5-.1 10.8-.2 16.9a1.8 1.8 0 0 0 .8 1.8l3.7 3.5v.2Zm-211.9-5 5 4.8v.2H45.8v-.2l5.1-4.8a1.7 1.7 0 0 0 .6-1.8v-30.9a24.8 24.8 0 0 1 .3-4.6l-17.2 42.9h-.2l-17.7-39.5a15.6 15.6 0 0 1-.7-1.7v25.9a8.3 8.3 0 0 0 .8 5.1l7.1 9.4v.2H5v-.2l7.1-9.5a8.6 8.6 0 0 0 .9-5v-28.6a5.5 5.5 0 0 0-1.2-3.9l-5.1-6.6v-.2h18.2L40 157.4 53.4 124h17.7v.2l-5 5.6a1.7 1.7 0 0 0-.7 1.9v39.5a1.6 1.6 0 0 0 .7 1.8ZM86 157.5v.2c0 9.8 5 13.7 10.9 13.7a12.2 12.2 0 0 0 11.5-7h.2c-2.1 9.6-8 14.2-16.9 14.2s-18.6-5.8-18.6-19.4 9.1-19.8 19.1-19.8c8 0 16.6 3.8 16.6 16.2v1.9Zm0-1.9h11.2v-2c0-10.1-2.1-12.8-5.2-12.8s-6.1 4-6.1 14.8Z" style="fill:#1c1b1a"/></svg>