<?xml version="1.0" encoding="utf-8"?>
<!-- Generator: Adobe Illustrator 25.4.1, SVG Export Plug-In . SVG Version: 6.00 Build 0)  -->
<svg version="1.1" id="Layer_1" xmlns="http://www.w3.org/2000/svg" xmlns:xlink="http://www.w3.org/1999/xlink" x="0px" y="0px"
	 viewBox="0 0 1000 219.2" style="enable-background:new 0 0 1000 219.2;" xml:space="preserve">
<style type="text/css">
	.st0{fill:#5356EE;}
	.st1{fill-rule:evenodd;clip-rule:evenodd;fill:#5356EE;}
</style>
<g id="Canvas">
	<g id="Mercari_Logo-01">
		<path id="Shape" class="st0" d="M286,217.1v-27.3h-69v-25.4h65.8v-26.9H217v-26.6h69V83.5h-98.4v133.6H286z"/>
		<path id="Shape_2" class="st1" d="M428.2,72c9.6,7.8,14.5,18.6,14.5,32.2c0.3,17.7-9.7,33.9-25.5,41.6l29.3,48.1h-33.5l-25.9-42.4
			h-21.1v42.4h-29.5V60.3h55.1C406.5,60.3,418.8,64.3,428.2,72z M386.9,87.7h-20.8v36.8h20.8c17.9,0,26.6-6.3,26.6-18.7
			C413.5,93.4,405,87.7,386.9,87.7z"/>
		<path id="Shape_3" class="st0" d="M586.5,173.3c-8.9,12-20.6,18.2-35,18.2c-10.5,0.3-20.6-3.7-28.2-11.1
			c-7.6-7.4-11.4-17.6-11.4-30.4s3.8-22.6,11.4-29.8c7-7.2,16.6-11.2,26.7-11.1c13.6-0.2,26.5,6.4,34.3,17.6l0.5,0.7l19.9-20.3
			l-0.4-0.5c-13.4-16.7-31.2-25.2-52.9-25.2c-19.8,0-36.5,6.3-49.7,19c-13.1,12.7-19.9,29.4-19.9,50.2c0,20.5,6.7,37.2,19.9,49.7
			c13.2,12.5,30.4,18.8,50.5,18.8c22.3,0,40.4-8.5,54-25.1l0.4-0.5L587,172.6L586.5,173.3z"/>
		<path id="Shape_4" class="st1" d="M685.3,60.3H713l0.1,0.5l51.8,133.1h-30.5l-9.7-23.9h-51.4l-9.5,23.9h-30.5l0.4-1L685.3,60.3z
			 M683.2,143.6h32l-16-42.3L683.2,143.6z"/>
		<path id="Shape_5" class="st1" d="M894.8,95.2c9.6,7.8,14.5,18.6,14.5,32.2c0.3,17.7-9.7,33.9-25.6,41.6l29.3,48.1h-33.5
			l-25.9-42.4h-21.1v42.4h-29.5V83.5h55.1C873.2,83.5,885.2,87.4,894.8,95.2z M853.5,110.8h-20.8v36.7h20.8
			c17.9,0,26.6-6.3,26.6-18.6C880.1,116.6,871.7,110.8,853.5,110.8z"/>
		<path id="Rectangle-path" class="st0" d="M957.2,71.9h29.3v122h-29.3V71.9z"/>
		<path id="Rectangle-path_2" class="st0" d="M954.2,32.1L967.8,0l32.2,13.6l-13.5,32.1L954.2,32.1z"/>
		<path id="Shape_6" class="st0" d="M67.7,132.7l37.7-72.3h30v133.6h-29.6v-76.3h-0.3l-28.5,51.6H57.7l-28.5-51.5h-0.4v76.1H-0.8
			V60.3h30L67,132.7H67.7z"/>
	</g>
</g>
</svg>
