<svg version="1.1" id="Layer_1" xmlns="http://www.w3.org/2000/svg" x="0" y="0" viewBox="0 0 1000 219.2" style="enable-background:new 0 0 1000 219.2" xml:space="preserve"><style>.st0,.st1{fill:#5356ee}.st1{fill-rule:evenodd;clip-rule:evenodd}</style><g id="Canvas"><g id="Mercari_Logo-01"><path id="Shape" class="st0" d="M286 217.1v-27.3h-69v-25.4h65.8v-26.9H217v-26.6h69V83.5h-98.4v133.6H286z"/><path id="Shape_2" class="st1" d="M428.2 72c9.6 7.8 14.5 18.6 14.5 32.2.3 17.7-9.7 33.9-25.5 41.6l29.3 48.1H413l-25.9-42.4H366v42.4h-29.5V60.3h55.1c14.9 0 27.2 4 36.6 11.7zm-41.3 15.7h-20.8v36.8h20.8c17.9 0 26.6-6.3 26.6-18.7 0-12.4-8.5-18.1-26.6-18.1z"/><path id="Shape_3" class="st0" d="M586.5 173.3c-8.9 12-20.6 18.2-35 18.2-10.5.3-20.6-3.7-28.2-11.1-7.6-7.4-11.4-17.6-11.4-30.4s3.8-22.6 11.4-29.8c7-7.2 16.6-11.2 26.7-11.1 13.6-.2 26.5 6.4 34.3 17.6l.5.7 19.9-20.3-.4-.5c-13.4-16.7-31.2-25.2-52.9-25.2-19.8 0-36.5 6.3-49.7 19-13.1 12.7-19.9 29.4-19.9 50.2 0 20.5 6.7 37.2 19.9 49.7s30.4 18.8 50.5 18.8c22.3 0 40.4-8.5 54-25.1l.4-.5-19.6-20.9-.5.7z"/><path id="Shape_4" class="st1" d="M685.3 60.3H713l.1.5 51.8 133.1h-30.5l-9.7-23.9h-51.4l-9.5 23.9h-30.5l.4-1 51.6-132.6zm-2.1 83.3h32l-16-42.3-16 42.3z"/><path id="Shape_5" class="st1" d="M894.8 95.2c9.6 7.8 14.5 18.6 14.5 32.2.3 17.7-9.7 33.9-25.6 41.6l29.3 48.1h-33.5l-25.9-42.4h-21.1v42.4H803V83.5h55.1c15.1 0 27.1 3.9 36.7 11.7zm-41.3 15.6h-20.8v36.7h20.8c17.9 0 26.6-6.3 26.6-18.6s-8.4-18.1-26.6-18.1z"/><path id="Rectangle-path" class="st0" d="M957.2 71.9h29.3v122h-29.3v-122z"/><path id="Rectangle-path_2" class="st0" d="M954.2 32.1 967.8 0l32.2 13.6-13.5 32.1-32.3-13.6z"/><path id="Shape_6" class="st0" d="m67.7 132.7 37.7-72.3h30V194h-29.6v-76.3h-.3L77 169.3H57.7l-28.5-51.5h-.4v76.1H-.8V60.3h30L67 132.7h.7z"/></g></g></svg>