<svg width="78" height="71" viewBox="0 0 78 71" fill="none" xmlns="http://www.w3.org/2000/svg">
<path d="M25.8773 52.1691C26.3983 51.6451 26.7072 51.071 26.8133 50.4968L23.7463 50.5502C23.6933 50.707 23.5373 50.8639 23.3813 50.9173C23.0162 51.231 22.4453 51.2843 21.8213 51.2843C21.1973 51.2843 20.7293 51.231 20.3143 50.9173C19.6373 50.5502 19.2223 49.7156 19.2223 48.7211H26.9131C26.9131 47.7798 26.9131 47.0488 26.8601 46.6315C26.7041 45.797 26.495 45.0628 26.0302 44.4353C25.5622 43.7545 24.9382 43.1804 24.2642 42.8666C23.5872 42.5529 22.7042 42.396 21.7714 42.396C20.2114 42.396 18.9665 42.8666 18.0305 43.9114C17.0945 44.9028 16.5235 46.3146 16.5235 48.1438C16.5235 50.0764 17.0446 51.5416 18.1865 52.3762C19.2785 53.2107 20.5265 53.7347 21.9274 53.7347C23.6434 53.7378 24.9943 53.2139 25.8773 52.1691ZM20.0054 45.3766C20.3705 45.0095 20.9414 44.7491 21.6684 44.7491C22.2924 44.7491 22.8634 44.9059 23.3314 45.273C23.7994 45.6401 24.0084 46.2142 24.0084 46.9453H19.2286C19.3814 46.3178 19.5905 45.7938 20.0054 45.3766Z" fill="#2D3277"/>
<path d="M39.078 34.4018C54.2006 34.4018 63.8134 26.7214 63.8134 17.2087V16.2675C63.8134 7.33211 52.7436 0.015625 39.078 0.015625C25.4124 0.015625 14.3426 7.33211 14.3426 16.2675V17.2087C14.3426 26.7214 24.0084 34.4018 39.078 34.4018ZM39.181 1.01019C52.2756 1.01019 62.9304 7.85606 62.9304 16.2675C62.9304 24.679 52.2787 31.5248 39.181 31.5248C26.0832 31.5248 15.4346 24.6821 15.4346 16.2706C15.4346 7.85919 26.0863 1.01019 39.181 1.01019Z" fill="#2D3277"/>
<path d="M18.4486 58.1271V70.9811H21.2035V56.3481H20.4766C19.3315 56.3513 18.4486 57.7098 18.4486 58.1271Z" fill="#2D3277"/>
<path d="M53.8886 43.13C52.9526 42.6594 51.9667 42.4492 50.7718 42.4492C49.0058 42.4492 47.7048 42.9198 46.9778 43.8611C46.5098 44.4885 46.3008 45.2196 46.1978 46.1075H48.8467C48.8998 45.7404 49.0558 45.4266 49.2118 45.1662C49.5238 44.8525 49.9918 44.6956 50.6158 44.6956C51.2398 44.6956 51.6017 44.749 51.9667 44.9058C52.2787 45.0627 52.4347 45.3764 52.4347 45.8471C52.4347 46.2141 52.2257 46.4745 51.8107 46.6314C51.6017 46.6848 51.1867 46.7883 50.7187 46.8416L49.7827 46.895C48.6907 47.0518 47.9107 47.262 47.3398 47.5758C46.3538 48.0997 45.8328 49.1445 45.8328 50.3963C45.8328 51.3878 46.1448 52.1721 46.7688 52.7463C47.3928 53.2702 48.1728 53.5306 49.1587 53.5808C55.2396 53.791 55.1866 50.3399 55.1866 49.6622V45.6902C55.2396 44.5387 54.8246 43.6007 53.8886 43.13ZM52.4846 49.2418C52.4846 50.183 52.1726 50.8105 51.7046 51.1744C51.1836 51.4882 50.6126 51.6984 50.0417 51.6984C49.6766 51.6984 49.3646 51.645 49.1057 51.3846C48.8467 51.1242 48.7406 50.8607 48.7406 50.3932C48.7406 49.8692 48.9497 49.452 49.3646 49.1916C49.5737 49.0347 50.0417 48.8778 50.6126 48.8245L51.2366 48.6676C51.5486 48.6143 51.7577 48.5107 52.0166 48.5107C52.1726 48.4574 52.3817 48.3539 52.5377 48.3005L52.4846 49.2418Z" fill="#2D3277"/>
<path d="M10.8607 42.3992C9.50976 42.3992 8.41776 42.9733 7.63776 43.9145C6.85776 42.9231 5.76576 42.3992 4.4148 42.3992C1.716 42.3992 0 44.4354 0 47.1022V53.4774H2.59896V47.0488C2.59896 45.9005 3.37896 45.1162 4.47096 45.1162C6.18696 45.1162 6.34296 46.4213 6.34296 47.0488V53.4774H8.94192V47.0488C8.94192 45.9005 9.77184 45.1162 10.8638 45.1162C12.5798 45.1162 12.7358 46.4213 12.7358 47.0488V53.4774H15.3348L15.2818 47.1022C15.2786 44.3318 13.6656 42.3992 10.8607 42.3992Z" fill="#2D3277"/>
<path d="M41.677 45.4801C41.886 45.7939 42.042 46.1609 42.042 46.5782H45.0029C44.8469 45.0628 44.3258 43.9647 43.4429 43.4439C42.613 42.8164 41.4149 42.6094 40.014 42.6094C38.351 42.6094 37.0531 43.08 36.1171 44.1248C35.1811 45.1695 34.7131 46.5814 34.7131 48.3571C34.7131 50.0294 35.0782 51.2844 35.9611 52.2758C36.791 53.2672 38.1451 53.7912 39.911 53.7912C41.677 53.7912 43.0279 53.1637 43.9639 52.0154C44.485 51.231 44.7938 50.4467 44.8999 49.5588H41.939C41.886 50.0827 41.73 50.5502 41.418 50.9173C41.106 51.231 40.638 51.4412 39.911 51.4412C38.975 51.4412 38.2481 50.9706 37.9891 50.0827C37.8331 49.6121 37.6771 48.9846 37.6771 48.2003C37.6771 47.4159 37.7302 46.6849 37.9891 46.2676C38.4571 45.3264 39.0811 44.8558 40.1201 44.8558C40.794 44.8526 41.3119 45.0628 41.677 45.4801Z" fill="#2D3277"/>
<path d="M26.9194 60.113H24.1644V70.9309H26.9194V60.113Z" fill="#2D3277"/>
<path d="M63.5014 41.0909V44.0683C63.1894 43.5977 62.8243 43.2338 62.2534 42.8667C61.7854 42.553 61.1614 42.4996 60.5374 42.4996C59.1334 42.4996 58.0445 43.0236 57.1584 44.0683C56.3285 45.0598 55.9104 46.5751 55.9104 48.4576C55.9104 50.0263 56.2754 51.3848 57.1584 52.2727C57.9883 53.2641 59.6513 53.6846 61.1083 53.6846C66.2532 53.6846 66.1502 49.2953 66.1502 49.2953L66.3062 39.1583C66.3062 39.1583 63.5014 38.8445 63.5014 41.0909ZM63.0864 50.5503C62.7214 51.0742 62.1005 51.3848 61.3205 51.3848C60.5405 51.3848 59.9165 51.0711 59.6045 50.5503C59.2394 49.9228 59.0834 49.1384 59.0834 48.0937C59.0834 47.1524 59.2394 46.4214 59.6045 45.8473C59.9695 45.2198 60.5405 44.906 61.3704 44.906C61.8914 44.906 62.3563 45.0629 62.7744 45.3767C63.3984 45.9006 63.7603 46.9454 63.7603 48.3039C63.6043 49.242 63.5014 50.0263 63.0864 50.5503Z" fill="#2D3277"/>
<path d="M58.0445 61.5752C57.6295 61.001 57.0586 60.5304 56.3815 60.1634C55.7045 59.7963 54.8746 59.6394 53.9916 59.6394C53.1586 59.6394 52.4316 59.7429 51.7577 60.0567C51.0806 60.3704 50.5097 60.7375 50.0417 61.2583C49.5737 61.7289 49.2118 62.3564 48.9497 63.0341C48.6907 63.7149 48.5347 64.4961 48.5347 65.2805C48.5347 66.1151 48.6377 66.8994 48.8998 67.5802C49.1587 68.2611 49.5238 68.8352 49.9918 69.356C50.4598 69.8266 51.0307 70.2439 51.7078 70.5043C52.3848 70.7647 53.1617 70.9216 53.9947 70.9216C55.2427 70.9216 56.2286 70.6612 57.1116 70.087C57.9946 69.5129 58.6186 68.625 59.0335 67.3167H56.4346C56.3316 67.6304 56.0695 67.9442 55.6546 68.2579C55.2396 68.5717 54.7186 68.7285 54.1476 68.7285C53.3177 68.7285 52.6937 68.5183 52.2257 68.1011C51.8107 67.6838 51.5486 67.003 51.4457 66.0115H59.1895C59.2426 65.177 59.1895 64.3393 58.9805 63.6083C58.7714 62.8302 58.4626 62.1493 58.0445 61.5752ZM51.4457 64.1887C51.4987 63.9785 51.4987 63.7181 51.6017 63.4577C51.7046 63.1973 51.8107 62.987 52.0166 62.7266C52.1726 62.5164 52.4316 62.3094 52.7436 62.1525C53.0556 61.9956 53.4706 61.8921 53.9386 61.8921C54.6655 61.8921 55.1866 62.1023 55.5485 62.4662C55.9135 62.8333 56.1725 63.4075 56.2255 64.1918H51.4457V64.1887Z" fill="#2D3277"/>
<path d="M76.596 44.0684C75.7661 42.9703 74.3621 42.3428 72.5431 42.3428C70.7772 42.3428 69.3202 42.8667 68.4903 44.0684C67.6603 45.1665 67.1393 46.525 67.1393 48.0403C67.1393 49.6091 67.6073 50.9676 68.4903 52.0123C69.3202 53.1104 70.7242 53.6846 72.5431 53.6846C74.3091 53.6846 75.7661 53.1606 76.596 52.0123C77.4259 50.9142 77.947 49.5557 77.947 48.0403C78 46.5783 77.532 45.2198 76.596 44.0684ZM74.4151 50.5503C73.9471 51.0742 73.3231 51.3848 72.5431 51.3848C71.7631 51.3848 71.1391 51.0711 70.6711 50.5503C70.2031 50.0263 70.0471 49.1384 70.0471 48.0937C70.0471 46.9956 70.2562 46.2112 70.6711 45.6904C71.1391 45.1665 71.7631 44.8559 72.5431 44.8559C73.3231 44.8559 73.9471 45.1696 74.4151 45.6904C74.8831 46.2144 75.0391 47.1023 75.0391 48.0937C75.0391 49.0851 74.8831 49.9228 74.4151 50.5503Z" fill="#2D3277"/>
<path d="M35.543 59.5892C34.1921 59.5892 33.1531 60.1633 32.4262 61.3147V56.3513H32.1142C30.7632 56.3513 30.0362 57.0823 29.6712 57.7098V66.0177C29.6712 69.3089 31.3872 70.9812 34.8161 70.9812C38.245 70.9278 39.9079 69.0485 39.9079 65.3903C39.911 61.5751 38.454 59.6958 35.543 59.5892ZM34.7131 68.5779C33.1531 68.5779 32.3762 67.4296 32.4262 65.2334C32.5291 63.0905 33.2561 62.0458 34.7662 62.0458C36.2762 62.0458 37.0001 63.0905 37.1062 65.2334C37.103 67.4798 36.2731 68.5779 34.7131 68.5779Z" fill="#2D3277"/>
<path d="M30.9722 53.5276V48.354C30.9722 47.5194 31.0253 46.8386 31.2842 46.4715C31.6493 45.7907 32.3762 45.3734 33.5182 45.3734H33.8302C33.9862 45.3734 34.1422 45.3734 34.2982 45.4268V42.6062H34.0891C34.0361 42.5027 34.0361 42.5027 33.9331 42.5027C27.7493 42.5027 28.1642 47.99 28.1642 47.99V53.5276H30.9722Z" fill="#2D3277"/>
<path d="M41.521 65.2333V70.9277H44.3258V65.18C44.3258 63.5611 45.0029 62.5665 46.5598 62.5665H47.8577V59.6926H47.0278C43.3399 59.6958 41.6239 61.6786 41.521 65.2333Z" fill="#2D3277"/>
<path d="M26.9194 56.3513H24.1644V58.8581H26.9194V56.3513Z" fill="#2D3277"/>
<path d="M52.3817 17.8896C50.0448 15.8503 44.6378 11.0971 43.1309 9.999C42.301 9.37151 41.7269 9.00757 41.209 8.9009C40.9999 8.84756 40.6879 8.74403 40.273 8.74403C39.9079 8.74403 39.493 8.79736 39.078 8.95424C38.142 9.26798 37.206 9.999 36.2731 10.73L36.2201 10.7834C35.3902 11.4642 34.5041 12.1419 33.8302 12.2987C33.5182 12.3521 33.2592 12.4023 32.9472 12.4023C32.2202 12.4023 31.5432 12.1921 31.2842 11.8783C31.2312 11.825 31.2842 11.7214 31.3872 11.6179L33.4651 9.37151C35.075 7.7526 36.582 6.23722 40.117 6.13055H40.273C42.457 6.13055 44.6378 7.12198 44.8968 7.22865C46.9747 8.22008 49.0526 8.74403 51.1836 8.74403C53.4175 8.74403 55.7045 8.16988 58.0944 7.07178C57.8354 6.86157 57.5234 6.60116 57.2645 6.39096C55.1335 7.33219 53.1586 7.74946 51.1836 7.74946C49.2086 7.74946 47.2337 7.27885 45.3118 6.33762C45.2088 6.28428 42.8189 5.13599 40.2698 5.13599H40.0608C37.0999 5.18932 35.437 6.23409 34.345 7.17531C33.253 7.17531 32.317 7.48906 31.487 7.69926C30.7601 7.90947 30.083 8.06634 29.459 8.06634H28.679C27.9521 8.06634 24.3142 7.17845 21.4562 6.02702C21.1442 6.23722 20.8853 6.44429 20.5733 6.6545C23.5872 7.90947 27.2782 8.8507 28.4201 8.95424C28.7321 8.95424 29.0971 9.00757 29.459 9.00757C30.239 9.00757 30.966 8.79736 31.746 8.59029C32.214 8.48676 32.682 8.32989 33.15 8.22322L32.735 8.64049L30.6571 10.9402C30.5011 11.0971 30.1361 11.5677 30.3451 12.0885C30.4481 12.2987 30.6571 12.5058 30.9161 12.716C31.4371 13.0298 32.3201 13.2902 33.15 13.2902C33.462 13.2902 33.774 13.2368 34.033 13.1866C34.9159 12.9764 35.8519 12.2454 36.7879 11.461C37.5679 10.8336 38.6599 10.0492 39.4898 9.78879C39.7488 9.73546 40.0109 9.68526 40.2698 9.68526H40.4789C41.0498 9.73859 41.5709 9.94566 42.5568 10.6767C44.2728 11.9819 51.9106 18.6708 51.9636 18.7242C51.9636 18.7242 52.4316 19.1415 52.4316 19.8725C52.4316 20.2396 52.1726 20.6035 51.8076 20.8639C51.4956 21.0741 51.1306 21.1777 50.8217 21.1777C50.3006 21.1777 49.9387 20.9172 49.9387 20.9172C49.9387 20.9172 47.2898 18.514 46.3538 17.6763C46.1978 17.5194 46.0418 17.4159 45.8858 17.4159C45.7829 17.4159 45.7298 17.4692 45.6768 17.5194C45.5208 17.7296 45.6768 17.99 45.8858 18.1469L48.9528 21.231C48.9528 21.231 49.3178 21.5981 49.3678 22.0655C49.3678 22.5895 49.1587 23.0068 48.6408 23.3205C48.2758 23.5809 47.9138 23.6876 47.5488 23.6876C47.0808 23.6876 46.7688 23.4774 46.6658 23.4272L46.1978 23.0099C45.4178 22.2256 44.5879 21.391 43.9639 20.9204C43.8079 20.8168 43.6519 20.66 43.4959 20.66C43.4429 20.66 43.3399 20.66 43.2869 20.7635C43.2338 20.8168 43.1839 20.9737 43.3399 21.2341C43.393 21.3377 43.4959 21.391 43.4959 21.391L45.7298 23.8978C45.7298 23.8978 46.1978 24.472 45.7829 24.9426L45.6799 25.0461L45.4709 25.2563C45.1058 25.5701 44.5879 25.6234 44.3789 25.6234H44.0669C43.8578 25.5701 43.7018 25.5199 43.5989 25.4132C43.4959 25.2563 42.3509 24.1582 41.4149 23.3739C41.3119 23.2703 41.1559 23.1636 40.9999 23.1636C40.9469 23.1636 40.8439 23.217 40.7909 23.2672C40.6349 23.4774 40.8938 23.7911 40.9999 23.8947L42.9218 25.9842C42.9218 25.9842 42.9218 26.0375 42.8688 26.1411C42.8158 26.2446 42.5568 26.4548 41.8829 26.5583H41.6239C40.897 26.5583 40.17 26.1913 39.7519 25.9842C39.9079 25.6171 40.0109 25.1998 40.0109 24.7826C40.0109 23.2138 38.7629 21.962 37.206 21.962H37.103C37.1561 21.231 37.05 19.8725 35.6491 19.2983C35.2342 19.1415 34.8691 19.0379 34.4542 19.0379C34.1422 19.0379 33.8832 19.0913 33.5712 19.1948C33.2592 18.6206 32.7912 18.2034 32.1672 17.9932C31.8022 17.8896 31.4902 17.8363 31.1282 17.8363C30.5573 17.8363 30.0362 17.9932 29.5682 18.3602C29.1096 17.7955 28.4232 17.4661 27.6962 17.4724C27.0722 17.4724 26.4482 17.7328 26.0333 18.1532C25.4623 17.6826 23.1223 16.2205 16.8355 14.7553C16.5235 14.702 15.8496 14.4949 15.4315 14.3381C15.3785 14.6518 15.3286 15.0189 15.2755 15.3828C15.2755 15.3828 16.4174 15.6432 16.6795 15.6966C23.0724 17.1084 25.2034 18.6238 25.5653 18.8842C25.4623 19.1979 25.4093 19.5117 25.4093 19.8254C25.4093 21.1839 26.5013 22.2287 27.7992 22.2287C27.9552 22.2287 28.1112 22.2287 28.2672 22.1754C28.4762 23.1668 29.0971 23.9009 30.0862 24.2649C30.3982 24.3684 30.6571 24.4218 30.9161 24.4218C31.0721 24.4218 31.2811 24.4218 31.487 24.3684C31.643 24.839 32.058 25.4132 32.994 25.7803C33.306 25.9371 33.618 25.9905 33.93 25.9905C34.189 25.9905 34.451 25.9371 34.657 25.8336C35.0719 26.8784 36.1109 27.6094 37.2559 27.6094C38.0359 27.6094 38.7629 27.2956 39.2839 26.7215C39.7519 26.9819 40.6879 27.4525 41.6738 27.4525H42.0389C43.0248 27.349 43.4429 26.9286 43.6488 26.6682C43.7018 26.6148 43.7018 26.5646 43.7518 26.5113C43.9608 26.5646 44.2198 26.6148 44.5318 26.6148C45.0528 26.6148 45.5707 26.4579 46.0918 26.0407C46.6128 25.6736 46.9747 25.1528 46.9747 24.6822C47.1307 24.7355 47.3398 24.7355 47.4958 24.7355C48.0168 24.7355 48.5878 24.5786 49.1057 24.2115C50.0916 23.5841 50.2476 22.6962 50.2476 22.1722C50.4036 22.2256 50.6126 22.2256 50.7686 22.2256C51.2897 22.2256 51.8076 22.0687 52.2756 21.7549C52.8996 21.3377 53.2615 20.7635 53.3146 20.0827C53.3676 19.6121 53.2116 19.1415 53.0026 18.7242C54.6655 17.9932 58.4064 16.6347 62.8774 15.5899C62.8774 15.2228 62.8243 14.9091 62.7214 14.5451C57.3706 15.6934 53.3676 17.419 52.3817 17.8896ZM37.362 26.618C36.323 26.618 35.49 25.7834 35.4401 24.7355C35.4401 24.632 35.4401 24.4218 35.231 24.4218C35.1281 24.4218 35.075 24.4751 34.9721 24.5253C34.763 24.7355 34.451 24.9426 34.0361 24.9426C33.827 24.9426 33.6211 24.8892 33.4121 24.7857C32.3201 24.3151 32.2702 23.5841 32.3201 23.2703C32.3201 23.1668 32.3201 23.1134 32.267 23.0601L32.214 23.0068H32.161C32.1079 23.0068 32.058 23.0068 31.9519 23.1103C31.6399 23.3205 31.3279 23.4241 31.0159 23.4241C30.8599 23.4241 30.6509 23.3707 30.4949 23.3205C29.041 22.7464 29.1439 21.3879 29.2469 20.9674C29.2469 20.8639 29.2469 20.8106 29.1938 20.7572L29.0909 20.6537L28.9879 20.7572C28.6759 21.0176 28.3109 21.1745 27.949 21.1745C27.119 21.1745 26.442 20.4937 26.442 19.6591C26.442 18.8246 27.119 18.1438 27.949 18.1438C28.6759 18.1438 29.353 18.7179 29.4559 19.4489L29.509 19.8662L29.718 19.4991C29.718 19.4458 30.342 18.5077 31.4839 18.5579C31.693 18.5579 31.8989 18.6112 32.161 18.6614C33.0439 18.9218 33.1999 19.7595 33.1999 20.0733C33.1999 20.2835 33.3559 20.2835 33.3559 20.2835C33.409 20.2835 33.5119 20.2302 33.5119 20.18C33.6679 20.0231 34.033 19.7093 34.6039 19.7093C34.8629 19.7093 35.125 19.7627 35.4338 19.9195C36.8378 20.547 36.2138 22.3228 36.2138 22.3762C36.1109 22.6899 36.0578 22.7934 36.2138 22.9001H36.3168C36.3698 22.9001 36.4728 22.9001 36.5758 22.8468C36.7848 22.7934 37.0438 22.6899 37.3027 22.6899C38.3417 22.6899 39.2246 23.5778 39.2246 24.6225C39.287 25.7803 38.4041 26.618 37.362 26.618Z" fill="#2D3277"/>
</svg>
