<svg width="103" height="42" fill="none" xmlns="http://www.w3.org/2000/svg"><g clip-path="url(#a)"><g clip-path="url(#b)" fill="#2D3277"><path d="M27.276 22.62h.939v18.584H24.66V24.876c0-.531 1.14-2.257 2.615-2.257Zm19.446 4.114c-1.743 0-3.084.73-4.023 2.19V22.62h-.402c-1.744 0-2.683.93-3.152 1.726v-.133 10.686c0 4.182 2.213 6.306 6.639 6.306 4.425-.066 6.571-2.456 6.571-7.102 0-4.845-1.877-7.235-5.633-7.368ZM45.65 38.151c-2.012 0-3.018-1.46-2.951-4.248.134-2.722 1.073-4.05 3.018-4.05 1.944 0 2.883 1.328 3.017 4.05 0 2.854-1.073 4.248-3.084 4.248Zm8.784-4.248c.134-4.514 2.347-7.036 7.108-7.036h1.073v3.65H60.94c-2.012 0-2.884 1.262-2.884 3.32v7.3h-3.62v-7.234Zm13.814 3.65c.603.531 1.408.797 2.481.797.738 0 1.408-.2 1.945-.598.536-.398.871-.796 1.005-1.194h3.353c-.536 1.66-1.34 2.788-2.48 3.518s-2.415 1.062-4.024 1.062a8.33 8.33 0 0 1-2.95-.531c-.873-.332-1.61-.863-2.214-1.46a7.145 7.145 0 0 1-1.408-2.257c-.335-.863-.47-1.859-.47-2.92 0-.996.202-1.992.537-2.855.336-.863.805-1.66 1.409-2.257.603-.663 1.34-1.128 2.212-1.526.872-.398 1.81-.531 2.884-.531 1.14 0 2.213.199 3.084.664.872.464 1.61 1.061 2.146 1.792.537.73.939 1.593 1.207 2.588.269.93.335 1.991.269 3.053h-9.992c.134 1.261.47 2.124 1.006 2.655Zm4.291-7.168c-.469-.465-1.14-.73-2.078-.73-.604 0-1.14.133-1.543.332-.402.199-.737.464-.938.73a3.319 3.319 0 0 0-.537.93c-.134.331-.134.663-.201.928h6.17c-.068-.995-.403-1.725-.873-2.19ZM35.591 22.62h-3.554v3.185h3.554V22.62Zm0 4.778h-3.554v13.74h3.554v-13.74Zm61.29-12.145a3.155 3.155 0 0 1-2.414 1.062 3.155 3.155 0 0 1-2.414-1.062c-.603-.664-.805-1.792-.805-3.12 0-1.394.268-2.39.805-3.053a3.155 3.155 0 0 1 2.414-1.062c1.006 0 1.81.398 2.414 1.062.604.664.805 1.792.805 3.053s-.201 2.323-.805 3.12Zm2.817-8.23c-1.073-1.395-2.884-2.191-5.23-2.191-2.28 0-4.159.664-5.231 2.19-1.073 1.394-1.744 3.12-1.744 5.045 0 1.991.604 3.717 1.744 5.044 1.073 1.394 2.883 2.124 5.23 2.124 2.28 0 4.158-.663 5.23-2.124 1.073-1.394 1.744-3.12 1.744-5.044.067-1.859-.536-3.584-1.743-5.045Zm-17.435 8.229c-.47.664-1.275 1.062-2.28 1.062-1.006 0-1.81-.398-2.213-1.062-.47-.796-.67-1.792-.67-3.12 0-1.194.2-2.123.67-2.854.47-.796 1.207-1.194 2.28-1.194.67 0 1.274.199 1.81.597.805.664 1.274 1.991 1.274 3.717-.2 1.195-.335 2.19-.871 2.854ZM86.42.782S82.8.385 82.8 3.239v3.784c-.403-.598-.873-1.062-1.61-1.527-.604-.398-1.409-.464-2.213-.464-1.81 0-3.219.663-4.359 1.99-1.073 1.262-1.61 3.187-1.61 5.576 0 1.991.47 3.717 1.61 4.845 1.073 1.262 3.219 1.793 5.097 1.793 6.638 0 6.504-5.576 6.504-5.576L86.42.783ZM68.583 13.594c0 1.194-.403 1.99-1.006 2.455-.67.399-1.408.664-2.146.664-.47 0-.872-.066-1.207-.398-.335-.332-.47-.664-.47-1.261 0-.664.269-1.195.805-1.527.269-.199.872-.398 1.61-.464l.804-.2c.403-.066.671-.199 1.006-.199.201-.066.47-.199.67-.265l-.066 1.195Zm1.81-7.766c-1.207-.598-2.48-.863-4.023-.863-2.28 0-3.957.597-4.895 1.792-.604.796-.872 1.726-1.006 2.854h3.42c.067-.465.268-.863.47-1.195.402-.398 1.005-.597 1.81-.597.804 0 1.274.066 1.743.265.402.2.604.598.604 1.195 0 .465-.269.797-.805.996-.268.066-.805.199-1.408.265l-1.207.067c-1.408.199-2.414.464-3.152.863C60.67 12.133 60 13.46 60 15.053c0 1.26.403 2.257 1.207 2.987.805.663 1.811.995 3.085 1.062 7.846.265 7.779-4.116 7.779-4.979V9.08c.067-1.46-.47-2.655-1.677-3.252Zm-17.77 2.19c.872 0 1.543.266 2.012.797.268.398.47.862.47 1.394h3.822c-.202-1.925-.872-3.32-2.012-3.983-1.073-.796-2.615-1.062-4.426-1.062-2.146 0-3.822.597-5.03 1.925-1.206 1.327-1.81 3.12-1.81 5.376 0 2.124.47 3.717 1.61 4.978 1.073 1.261 2.816 1.925 5.096 1.925 2.28 0 4.024-.796 5.23-2.257.671-.995 1.073-1.99 1.208-3.12H54.97c-.067.665-.268 1.262-.67 1.727-.403.398-1.006.663-1.945.663-1.207 0-2.146-.597-2.481-1.726a7.36 7.36 0 0 1-.402-2.389c0-.995.067-1.925.402-2.456.603-1.194 1.408-1.792 2.75-1.792Zm-7.979-2.987c-7.98 0-7.444 6.97-7.444 6.97v7.035h3.621v-6.57c0-1.063.068-1.926.403-2.39.47-.863 1.408-1.394 2.883-1.394h.403c.2 0 .402 0 .603.066V5.164h-.268c-.067-.133-.067-.133-.201-.133ZM26.672 8.682c.47-.465 1.207-.797 2.146-.797.805 0 1.543.2 2.146.664.604.465.872 1.195.872 2.124h-6.17c.202-.797.47-1.46 1.006-1.991Zm4.829 6.57a.806.806 0 0 1-.47.465c-.47.399-1.207.465-2.011.465-.805 0-1.409-.066-1.945-.464-.872-.465-1.408-1.527-1.408-2.788h9.924c0-1.195 0-2.124-.067-2.655-.201-1.062-.47-1.991-1.073-2.788-.603-.863-1.408-1.593-2.28-1.991-.872-.398-2.012-.598-3.219-.598-2.011 0-3.62.598-4.828 1.925-1.207 1.261-1.944 3.053-1.944 5.377 0 2.455.67 4.314 2.146 5.376 1.408 1.062 3.017 1.726 4.828 1.726 2.212 0 3.956-.664 5.096-1.992.67-.663 1.073-1.393 1.207-2.124l-3.956.067ZM20.637 18.97h-3.353v-8.164c0-.797-.2-2.456-2.414-2.456-1.408 0-2.48.996-2.48 2.456v8.164H9.035v-8.164c0-.797-.2-2.456-2.414-2.456-1.408 0-2.414.996-2.414 2.456v8.164H.855v-8.098c0-3.385 2.213-5.974 5.7-5.974 1.744 0 3.152.664 4.158 1.925 1.006-1.194 2.414-1.925 4.157-1.925 3.621 0 5.7 2.456 5.7 5.974l.067 8.098Z"/></g></g><defs><clipPath id="a"><path fill="#fff" transform="translate(.071)" d="M0 0h102v42H0z"/></clipPath><clipPath id="b"><path fill="#fff" transform="translate(.071)" d="M0 0h102v42H0z"/></clipPath></defs></svg>