<svg version="1.1" id="Layer_1" xmlns="http://www.w3.org/2000/svg" x="0" y="0" viewBox="0 0 1000 272.6" style="enable-background:new 0 0 1000 272.6" xml:space="preserve"><style>.st0{fill:#030404}.st1{fill:#fdb525}</style><path class="st0" d="M6.1 41.6H0v-4.5h17v4.5h-6v17.9H6V41.6zM18.3 37.1h4.8v8.2c.6-1.4 2.4-2.3 4.5-2.3 3.9 0 6 2.5 6 6.7v9.8h-4.8v-9.3c0-1.9-1-3.1-2.8-3.1-1.7 0-3 1.3-3 3.2v9.1h-4.8V37.1zM47.2 49.6c0-1.4-1.5-2.7-3.4-2.7-2 0-3.7 1.2-3.8 2.7h7.2zm-12 1.8c0-5.1 3.7-8.5 8.6-8.5 5 0 8.2 3.7 8.2 8.2 0 0 0 .8-.1 1.6H40c.1 1.9 1.7 3.2 4.3 3.2 3.1 0 4.8-.9 5.8-1.6v4.2c-1.5 1-3.2 1.5-6 1.5-5.2 0-8.8-3.3-8.8-8.4v-.2zM61.4 36.3l11.8 12.9L85 36.3v23.2h-4.8V48.2l-7.1 7.9-7.1-7.9v11.4h-4.8V36.3zM95.6 55.7c2.3 0 4.2-1.9 4.2-4.2 0-2.3-1.9-4.2-4.2-4.2-2.4 0-4.2 1.9-4.2 4.2 0 2.3 1.9 4.2 4.2 4.2zm0-12.9c5 0 9 3.8 9 8.6s-4 8.6-9 8.6-9-3.8-9-8.6 4-8.6 9-8.6zM107.3 47.7h-2.2v-4.3h2.2v-6.2h4.7v6.2h3.6v4.3H112v11.9h-4.7V47.7zM116.8 37.1h4.8v22.4h-4.8zM135.2 49.6c0-1.4-1.5-2.7-3.4-2.7-2 0-3.7 1.2-3.8 2.7h7.2zm-12 1.8c0-5.1 3.7-8.5 8.6-8.5 5 0 8.2 3.7 8.2 8.2 0 0 0 .8-.1 1.6H128c.1 1.9 1.7 3.2 4.3 3.2 3.1 0 4.8-.9 5.8-1.6v4.2c-1.5 1-3.2 1.5-6 1.5-5.2 0-8.8-3.3-8.8-8.4v-.2zM139.3 43.3h5l4.3 10.8 4.4-10.8h5l-9.6 22.4h-4.9l2.6-5.9-6.8-16.5zM166 37.1h14.8v4.5H171v4.6h8.9v4.4H171v8.9h-5V37.1zM190.5 55.7c2.3 0 4.2-1.9 4.2-4.2 0-2.3-1.9-4.2-4.2-4.2-2.4 0-4.2 1.9-4.2 4.2 0 2.3 1.8 4.2 4.2 4.2zm0-12.9c5 0 9 3.8 9 8.6s-4 8.6-9 8.6-9-3.8-9-8.6 4-8.6 9-8.6zM209.5 55.7c2.3 0 4.2-1.9 4.2-4.2 0-2.3-1.9-4.2-4.2-4.2-2.4 0-4.2 1.9-4.2 4.2 0 2.3 1.8 4.2 4.2 4.2zm0-12.9c5 0 9 3.8 9 8.6s-4 8.6-9 8.6-9-3.8-9-8.6 4-8.6 9-8.6zM220.2 37.1h4.8v22.4h-4.8z" transform="scale(4.16667)"/><path class="st1" d="M240 31.4c0 1.8-1.4 3.2-3.2 3.2-1.8 0-3.2-1.4-3.2-3.2 0-1.8 1.4-3.2 3.2-3.2 1.7 0 3.2 1.4 3.2 3.2z" transform="scale(4.16667)"/><path d="M217.3.3c9.4 0 17.3 10.5 19.5 24.8 0 .3-.1.5-.4.6-.2 0-.4-.1-.5-.3-2.2-5.5-6-9.1-10.4-9.1-6.2 0-11.7 7.6-12.3 18.1-.8 1.7-7.3 3.1-13.2 3.3v-25C203.7 5.1 211 .3 217.3.3z" style="fill:#704d9f" transform="scale(4.16667)"/><path class="st1" d="M160 31.4c0 1.8 1.4 3.2 3.2 3.2 1.8 0 3.2-1.4 3.2-3.2 0-1.8-1.4-3.2-3.2-3.2-1.7 0-3.2 1.4-3.2 3.2z" transform="scale(4.16667)"/><path d="M182.7.3c-9.4 0-17.3 10.5-19.5 24.8 0 .3.1.5.4.6.2 0 .4-.1.5-.3 2.2-5.5 6-9.1 10.4-9.1 6.2 0 11.7 7.6 12.3 18.1.8 1.7 7.3 3.1 13.2 3.3v-25C196.3 5.1 189 .3 182.7.3z" style="fill:#9b268f" transform="scale(4.16667)"/><path class="st0" d="M229.4 58.4c.1 0 .3-.1.3-.3 0-.1-.1-.3-.3-.3h-.3v.6h.3zm-.6-.9h.6c.3 0 .6.2.6.6 0 .2-.1.4-.3.5l.4.7h-.4l-.4-.7h-.2v.7h-.3v-1.8zm1.9 1c0-.8-.6-1.3-1.3-1.3-.7 0-1.3.5-1.3 1.3 0 .7.5 1.3 1.3 1.3.7-.1 1.3-.6 1.3-1.3zm-2.9 0c0-.9.7-1.6 1.6-1.6.9 0 1.6.6 1.6 1.6 0 .9-.7 1.6-1.6 1.6-.9-.1-1.6-.7-1.6-1.6z" transform="scale(4.16667)"/></svg>