<?xml version="1.0" encoding="utf-8"?>
<!-- Generator: Adobe Illustrator 25.4.1, SVG Export Plug-In . SVG Version: 6.00 Build 0)  -->
<svg version="1.1" id="Layer_1" xmlns:serif="http://www.serif.com/"
	 xmlns="http://www.w3.org/2000/svg" xmlns:xlink="http://www.w3.org/1999/xlink" x="0px" y="0px" viewBox="0 0 1000 272.6"
	 style="enable-background:new 0 0 1000 272.6;" xml:space="preserve">
<style type="text/css">
	.st0{fill:#030404;}
	.st1{fill:#FDB525;}
	.st2{fill:#704D9F;}
	.st3{fill:#9B268F;}
</style>
<g transform="matrix(4.16667,0,0,4.16667,0,0)">
	<path class="st0" d="M6.1,41.6H0v-4.5h17v4.5h-6v17.9h-5V41.6z"/>
	<path class="st0" d="M18.3,37.1h4.8v8.2c0.6-1.4,2.4-2.3,4.5-2.3c3.9,0,6,2.5,6,6.7v9.8h-4.8v-9.3c0-1.9-1-3.1-2.8-3.1
		c-1.7,0-3,1.3-3,3.2v9.1h-4.8V37.1z"/>
	<path class="st0" d="M47.2,49.6c0-1.4-1.5-2.7-3.4-2.7c-2,0-3.7,1.2-3.8,2.7H47.2z M35.2,51.4c0-5.1,3.7-8.5,8.6-8.5
		c5,0,8.2,3.7,8.2,8.2c0,0,0,0.8-0.1,1.6H40c0.1,1.9,1.7,3.2,4.3,3.2c3.1,0,4.8-0.9,5.8-1.6v4.2c-1.5,1-3.2,1.5-6,1.5
		c-5.2,0-8.8-3.3-8.8-8.4V51.4z"/>
	<path class="st0" d="M61.4,36.3l11.8,12.9l11.8-12.9v23.2h-4.8V48.2l-7.1,7.9l-7.1-7.9v11.4h-4.8V36.3z"/>
	<path class="st0" d="M95.6,55.7c2.3,0,4.2-1.9,4.2-4.2c0-2.3-1.9-4.2-4.2-4.2c-2.4,0-4.2,1.9-4.2,4.2
		C91.4,53.8,93.3,55.7,95.6,55.7z M95.6,42.8c5,0,9,3.8,9,8.6c0,4.8-4,8.6-9,8.6c-5,0-9-3.8-9-8.6C86.6,46.6,90.6,42.8,95.6,42.8z"
		/>
	<path class="st0" d="M107.3,47.7h-2.2v-4.3h2.2v-6.2h4.7v6.2h3.6v4.3h-3.6v11.9h-4.7V47.7z"/>
	<rect x="116.8" y="37.1" class="st0" width="4.8" height="22.4"/>
	<path class="st0" d="M135.2,49.6c0-1.4-1.5-2.7-3.4-2.7c-2,0-3.7,1.2-3.8,2.7H135.2z M123.2,51.4c0-5.1,3.7-8.5,8.6-8.5
		c5,0,8.2,3.7,8.2,8.2c0,0,0,0.8-0.1,1.6H128c0.1,1.9,1.7,3.2,4.3,3.2c3.1,0,4.8-0.9,5.8-1.6v4.2c-1.5,1-3.2,1.5-6,1.5
		c-5.2,0-8.8-3.3-8.8-8.4V51.4z"/>
	<path class="st0" d="M139.3,43.3h5l4.3,10.8l4.4-10.8h5l-9.6,22.4h-4.9l2.6-5.9L139.3,43.3z"/>
	<path class="st0" d="M166,37.1h14.8v4.5H171v4.6h8.9v4.4H171v8.9h-5V37.1z"/>
	<path class="st0" d="M190.5,55.7c2.3,0,4.2-1.9,4.2-4.2c0-2.3-1.9-4.2-4.2-4.2c-2.4,0-4.2,1.9-4.2,4.2
		C186.3,53.8,188.1,55.7,190.5,55.7z M190.5,42.8c5,0,9,3.8,9,8.6c0,4.8-4,8.6-9,8.6c-5,0-9-3.8-9-8.6
		C181.5,46.6,185.5,42.8,190.5,42.8z"/>
	<path class="st0" d="M209.5,55.7c2.3,0,4.2-1.9,4.2-4.2c0-2.3-1.9-4.2-4.2-4.2c-2.4,0-4.2,1.9-4.2,4.2
		C205.3,53.8,207.1,55.7,209.5,55.7z M209.5,42.8c5,0,9,3.8,9,8.6c0,4.8-4,8.6-9,8.6c-5,0-9-3.8-9-8.6
		C200.5,46.6,204.5,42.8,209.5,42.8z"/>
	<rect x="220.2" y="37.1" class="st0" width="4.8" height="22.4"/>
	<path class="st1" d="M240,31.4c0,1.8-1.4,3.2-3.2,3.2c-1.8,0-3.2-1.4-3.2-3.2c0-1.8,1.4-3.2,3.2-3.2C238.5,28.2,240,29.6,240,31.4z
		"/>
	<path class="st2" d="M217.3,0.3c9.4,0,17.3,10.5,19.5,24.8c0,0.3-0.1,0.5-0.4,0.6c-0.2,0-0.4-0.1-0.5-0.3c-2.2-5.5-6-9.1-10.4-9.1
		c-6.2,0-11.7,7.6-12.3,18.1c-0.8,1.7-7.3,3.1-13.2,3.3v-25C203.7,5.1,211,0.3,217.3,0.3z"/>
	<path class="st1" d="M160,31.4c0,1.8,1.4,3.2,3.2,3.2c1.8,0,3.2-1.4,3.2-3.2c0-1.8-1.4-3.2-3.2-3.2C161.5,28.2,160,29.6,160,31.4z"
		/>
	<path class="st3" d="M182.7,0.3c-9.4,0-17.3,10.5-19.5,24.8c0,0.3,0.1,0.5,0.4,0.6c0.2,0,0.4-0.1,0.5-0.3c2.2-5.5,6-9.1,10.4-9.1
		c6.2,0,11.7,7.6,12.3,18.1c0.8,1.7,7.3,3.1,13.2,3.3v-25C196.3,5.1,189,0.3,182.7,0.3z"/>
	<path class="st0" d="M229.4,58.4c0.1,0,0.3-0.1,0.3-0.3c0-0.1-0.1-0.3-0.3-0.3h-0.3v0.6H229.4z M228.8,57.5h0.6
		c0.3,0,0.6,0.2,0.6,0.6c0,0.2-0.1,0.4-0.3,0.5l0.4,0.7h-0.4l-0.4-0.7h-0.2v0.7h-0.3V57.5z M230.7,58.5c0-0.8-0.6-1.3-1.3-1.3
		c-0.7,0-1.3,0.5-1.3,1.3c0,0.7,0.5,1.3,1.3,1.3C230.1,59.7,230.7,59.2,230.7,58.5z M227.8,58.5c0-0.9,0.7-1.6,1.6-1.6
		c0.9,0,1.6,0.6,1.6,1.6c0,0.9-0.7,1.6-1.6,1.6C228.5,60,227.8,59.4,227.8,58.5z"/>
</g>
</svg>
