<svg width="81" height="25" viewBox="0 0 81 25" fill="none" xmlns="http://www.w3.org/2000/svg">
<g clip-path="url(#clip0_1_6)">
<path d="M0 5.74049C2.19127 4.9072 4.31239 4.24786 6.30163 3.30794C8.26842 2.37644 10.1006 1.16438 12.1235 0V3.69793C12.1965 3.72038 12.2694 3.74002 12.3423 3.76247C12.5079 3.61937 12.6706 3.47348 12.8418 3.33319C15.7738 0.917467 19.121 -0.0953946 22.889 0.502223C26.2138 1.0297 28.1778 3.24902 28.4023 6.75614C28.5173 8.56864 28.464 10.3896 28.4696 12.2077C28.478 14.5841 28.4696 16.9634 28.4724 19.3398C28.478 21.172 28.9803 21.8705 30.7591 22.3223C31.3735 22.4794 31.4549 22.8133 31.4184 23.3296C31.3764 23.8935 30.9751 23.8374 30.602 23.8374C27.1705 23.8374 23.7364 23.8234 20.305 23.8514C19.6092 23.857 19.4408 23.5933 19.4436 22.948C19.4633 18.4027 19.4689 13.8574 19.4436 9.31217C19.438 8.43397 19.3398 7.53897 19.1434 6.68321C18.8067 5.21864 17.9454 4.52562 16.5649 4.44426C15.1144 4.35728 13.8827 5.01382 13.5095 6.38299C13.1532 7.69049 12.9708 9.07929 12.9288 10.4373C12.8446 13.3019 12.8951 16.1693 12.9063 19.0368C12.9147 21.2028 13.3188 21.7555 15.4034 22.3672C16.0066 22.544 15.8944 22.9536 15.886 23.3576C15.8776 23.8205 15.5465 23.8402 15.1958 23.8374C10.6898 23.8374 6.1838 23.8374 1.67782 23.8374C1.30746 23.8374 0.953946 23.829 0.945527 23.3211C0.937109 22.9003 0.889413 22.5243 1.47861 22.3587C3.47909 21.8004 3.8775 21.2421 3.8775 19.1883C3.8775 16.4387 3.79053 13.6835 3.90276 10.9367C4.00095 8.55745 2.81414 7.14054 0.844522 6.15293C0.583587 6.02109 0.317046 5.89484 0.00280572 5.74049H0Z" fill="black"/>
<path d="M67.8842 24.8753C65.1462 24.8416 62.9516 24.5751 60.8815 23.6801C57.0658 22.0331 54.7815 19.1095 54.0494 15.0749C53.2104 10.4342 54.3804 6.36875 58.0391 3.21514C59.7592 1.73372 61.8408 0.970565 64.0712 0.60582C66.9217 0.14007 69.7446 0.215825 72.5277 1.03509C79.3429 3.03837 81.4022 9.2306 80.9087 13.9021C80.294 19.7155 76.2592 23.8568 70.4489 24.6284C69.4332 24.763 68.406 24.8276 67.8842 24.8781V24.8753ZM63.2663 12.5161C63.3277 12.5189 63.2044 12.5133 63.2663 12.5161C63.2663 13.9358 63.3446 15.3751 63.4766 16.7836C63.6087 18.2089 63.8467 19.6482 64.2652 21.0146C64.7169 22.4848 65.9679 23.0543 67.4495 23.0487C69.0125 23.0432 70.1179 22.2491 70.6255 20.7649C70.8669 20.0635 71.0995 19.3255 71.125 18.5961C71.2342 15.3386 71.3326 12.0784 71.2989 8.82098C71.2848 7.44054 71.0495 6.03206 70.7098 4.68814C70.275 2.97384 69.1272 2.19105 67.4495 2.17141C65.7016 2.15177 64.6272 2.91492 64.0462 4.61799C63.9033 5.03605 63.7625 5.46815 63.7288 5.90299C63.5549 8.10549 63.4174 10.3108 63.269 12.5161H63.2663Z" fill="black"/>
<path d="M42.8854 24.8697C35.7308 24.8164 30.7114 19.7492 30.658 13.1165C30.6356 10.3108 31.2052 7.6931 32.7932 5.36154C34.8695 2.31454 37.9192 0.925708 41.4713 0.471179C43.772 0.176579 46.053 0.243916 48.2107 1.18944C50.6292 2.25001 52.1891 4.00077 52.3351 6.75881C52.3996 7.96804 51.8889 8.92478 50.963 9.67957C49.4367 10.9197 47.5962 11.4808 45.7416 11.9522C43.9572 12.4067 42.1447 12.7546 40.335 13.0969C39.7205 13.212 39.6223 13.4308 39.8355 13.9863C41.721 18.9524 46.6395 21.4635 52.0236 18.7252C52.2396 18.6158 52.6998 18.5793 52.7867 18.6943C53.0421 19.0451 53.3844 19.4715 52.9298 19.9372C50.0343 22.9169 46.5833 24.707 42.8826 24.8697H42.8854ZM39.0191 8.9725C39.0584 9.64587 39.1005 10.3192 39.1397 10.9926C39.1594 11.3658 39.3249 11.5593 39.7205 11.478C41.1655 11.1862 42.5992 10.8552 43.8561 10.0387C45.8286 8.75647 46.4571 5.33629 45.071 3.4256C44.8943 3.18431 44.681 2.95704 44.4454 2.77187C42.905 1.57102 40.7699 2.1995 39.8552 4.12142C39.1257 5.65897 39.0135 7.3031 39.0191 8.96967V8.9725Z" fill="black"/>
</g>
<defs>
<clipPath id="clip0_1_6">
<rect width="80.9783" height="25" fill="white"/>
</clipPath>
</defs>
</svg>
