<svg xmlns="http://www.w3.org/2000/svg" viewBox="0 0 385.05 47.12" width="100"><defs><style>.a{fill:#174489}</style></defs><path class="a" d="M377.53 45.56c-.08-1.8-.06-3.6 0-5.4 0-.36.34-.72.52-1.07.36.19.83.3 1.05.6.72 1 1.35 2 2.1 3.21.71-1.1 1.37-2.07 2-3.06s1.11-1.08 1.85-.25v6.6l-1.1.45a4.45 4.45 0 0 1-.34-1.07 17.15 17.15 0 0 0-.29-3.43c-.32.44-.64.88-.95 1.33-1 1.54-1.29 1.53-2.36 0a3.63 3.63 0 0 0-1.16-1.18c0 1.11.05 2.23 0 3.34 0 .38-.38.75-.58 1.12-.3-.43-.73-.75-.74-1.19ZM370.77 40.35c-.3-.07-.54-.41-.8-.63.24-.2.48-.57.73-.58 1.57 0 3.15-.06 4.73 0 .24 0 .47.46.7.71-.25.18-.48.46-.75.51a11.64 11.64 0 0 1-1.67 0v4.84c0 .5-.39 1.41-.6 1.41-1 0-.7-.89-.72-1.48v-4.77a7.31 7.31 0 0 1-1.62 0ZM346.09 19.36q-3.07-2.7-6.17-5.36a1.27 1.27 0 0 1-.47-1.73 1.32 1.32 0 0 1 .47-.47c4.11-3.58 8.21-7.17 12.35-10.71a3 3 0 0 1 1.77-.66h12.27c.79 0 1.53 0 1.67 1.26a4.19 4.19 0 0 1-.65.91q-9.62 8.4-19.27 16.81a1.33 1.33 0 0 1-1.87.06ZM360.09 46.72a41.84 41.84 0 0 0-4.48 0 5.53 5.53 0 0 1-4.58-1.72c-3.57-3.26-7.26-6.38-10.9-9.56-1.16-1-1.15-1.53 0-2.54 1.92-1.68 3.86-3.32 5.75-5a1.56 1.56 0 0 1 2.2-.21 1.39 1.39 0 0 1 .21.21c6.28 5.5 12.6 11 18.86 16.48.41.35.48 1.09.71 1.64a5.2 5.2 0 0 1-1.57.62c-2.06.12-4.13.08-6.2.08Z"/><path d="M317.44 1q12.27 10.62 24.5 21.28c1.09 1 1.1 1.52 0 2.46q-12.29 10.71-24.59 21.38a2.58 2.58 0 0 1-1.53.53c-2.11.06-4.22 0-6.33 0h-6.07a5 5 0 0 1-1.57-.63c.23-.56.32-1.28.73-1.64 5.73-5.06 11.51-10.07 17.28-15.1 1.7-1.47 3.39-2.93 5.08-4.41 1.38-1.21 1.38-1.48 0-2.65l-22.28-19.4a2.5 2.5 0 0 1-.9-1.35c-.09-.81.56-1.1 1.31-1.1H316a2.38 2.38 0 0 1 1.44.63Z" transform="translate(-.08)" style="fill:#a8cb3b"/><path class="a" d="M287.63 46.73c-1.07 0-1.54-.45-1.57-1.47V2.91c0-2.4.21-2.6 2.64-2.6h7.22c1.7 0 2 .32 2 2V44.8c0 1.8-.09 1.9-1.83 1.91h-8.5ZM282.36 2.67v38.66c-.22 4.38-2.5 6.27-6.82 5.61a10.37 10.37 0 0 1-5.41-2.51q-14.81-12.93-29.65-25.8a8.58 8.58 0 0 0-1.41-.81 7.61 7.61 0 0 0-.38 1.7v24.41c0 2.37-.41 2.79-2.74 2.79h-6.89c-1.6 0-2.19-.55-2.19-2.1V6.1c0-3.31 1.13-4.94 4-6.09h2.38c3.74.56 6.27 3.09 8.94 5.42q13.2 11.55 26.47 23a6.39 6.39 0 0 0 1.54.73 6.7 6.7 0 0 0 .38-1.59V3c0-2.22.42-2.65 2.59-2.66s4.58 0 6.86 0c1.78 0 2.33.64 2.33 2.3ZM222.42 44.33c-9-13.06-18.08-26.09-27.05-39.18-1.72-2.5-3.54-4.67-6.73-5.15h-.79a8.47 8.47 0 0 0-5.61 3.5q-14.1 20.5-28.27 40.89a2.29 2.29 0 0 0-.39 1.74c.11.34 1 .55 1.54.56 3.08.05 6.16 0 9.24.05a2.17 2.17 0 0 0 2.05-1.1c2.24-3.31 4.55-6.57 6.8-9.88a2 2 0 0 1 1.83-1h26.27a2.1 2.1 0 0 1 2 1q3.39 5 6.91 10a2.22 2.22 0 0 0 1.42.91q5.09.11 10.16 0a1.57 1.57 0 0 0 1.22-.84 2.3 2.3 0 0 0-.6-1.5ZM193.74 24.4h-10.82c-1.35 0-1.58-.39-.85-1.45 1.77-2.61 3.59-5.19 5.38-7.79.53-.78 1-.72 1.49 0 1.81 2.64 3.66 5.26 5.45 7.9.61 1 .41 1.31-.68 1.34ZM166.47.39c2.25 0 2.68.44 2.68 2.72v5.28c0 1.76-.6 2.38-2.37 2.38h-15c-2 0-2.12.11-2.12 2.07v31.39c0 2-.48 2.47-2.48 2.48h-6.86c-1.9 0-2.41-.5-2.41-2.44V13c0-2.15-.1-2.24-2.21-2.24h-14.85c-2 0-2.54-.56-2.55-2.49s0-3.69 0-5.54.62-2.34 2.4-2.34ZM73.36 35.19a21.92 21.92 0 0 0 5.78 1.12c5.8.09 11.6 0 17.4-.17a12.22 12.22 0 0 0 3.58-.79c2-.71 2.68-1.75 2.68-3.88V3.25c0-2.52.35-2.86 2.92-2.86h6.47c1.82 0 2.4.55 2.4 2.33v30.21c0 6.87-4.39 11.71-11.66 12.93a46.73 46.73 0 0 1-8 .78q-11.13 0-22.26-.51a14.67 14.67 0 0 1-10.14-4.48 11.18 11.18 0 0 1-3.27-8.09V2.69c0-1.78.49-2.29 2.25-2.3h7.12c1.79 0 2.38.55 2.4 2.36v28.89a3.25 3.25 0 0 0 2.33 3.55ZM55.48 2.56v38.92c-.41 4.6-2.82 6.36-7.35 5.37a11.15 11.15 0 0 1-5-2.52Q28.64 31.66 14.13 19a5.88 5.88 0 0 0-.6-.52c-.44-.25-.89-.46-1.34-.69a6 6 0 0 0-.36 1.44v24.8c0 2.17-.47 2.66-2.6 2.66s-4.4-.06-6.59 0A2.94 2.94 0 0 1 0 45.64V4.75C.62 2.59 1.55.68 4 0h2.25c3.71.5 6.24 3 8.88 5.28Q28.47 17 41.92 28.58a6.75 6.75 0 0 0 1.35.66 6.31 6.31 0 0 0 .44-1.54V3c0-2.17.46-2.62 2.63-2.63h7c1.58.05 2.13.63 2.14 2.19Z"/></svg>