<?xml version="1.0" encoding="UTF-8"?>
<svg width="200px" height="100px" viewBox="0 0 200 100" version="1.1" xmlns="http://www.w3.org/2000/svg" xmlns:xlink="http://www.w3.org/1999/xlink">
    <!-- Generator: Sketch 50.2 (55047) - http://www.bohemiancoding.com/sketch -->
    <title>ocado</title>
    <desc>Created with Sketch.</desc>
    <defs></defs>
    <g id="Page-1" stroke="none" stroke-width="1" fill="none" fill-rule="evenodd">
        <g id="Group" fill-rule="nonzero">
            <g id="ocado" transform="translate(55.000000, 10.000000)">
                <path d="M25.2892562,0 C22.231405,0 19.6694215,2.47933884 19.6694215,5.61983471 L19.6694215,45.8677686 C19.6694215,48.9256198 22.1487603,51.4876033 25.2892562,51.4876033 L71.0743802,51.4876033 L71.0743802,5.61983471 C71.1570248,2.47933884 68.5950413,0 65.5371901,0 L25.2892562,0 Z" id="Shape" fill="#A2B0CD"></path>
                <path d="M45.6198347,43.2231405 C55.4545455,43.2231405 63.4710744,35.2892562 63.4710744,25.4545455 C63.4710744,23.1404959 62.7272727,20.0826446 62.7272727,20.8264463 C62.7272727,27.4380165 56.6115702,32.8099174 50.0826446,31.9008264 C45.1239669,31.2396694 39.5867769,26.6942149 40.5785124,19.5041322 C41.5702479,12.3966942 47.768595,9.58677686 52.231405,10.1652893 C59.4214876,11.1570248 60.9090909,16.6115702 58.7603306,19.1735537 C56.6115702,22.1487603 52.1487603,20.4132231 52.1487603,17.0247934 C52.1487603,15.1239669 53.3884298,14.2975207 53.553719,14.1322314 C49.9173554,13.0578512 46.1157025,15.9504132 45.6198347,19.7520661 C45.0413223,23.8842975 48.0991736,27.1900826 51.5702479,27.6033058 C57.9338843,28.5123967 61.5702479,23.3884298 61.5702479,18.8429752 C61.5702479,13.4710744 55.8677686,7.43801653 45.7024793,7.43801653 C35.8677686,7.43801653 27.8512397,15.3719008 27.8512397,25.1239669 C27.8512397,35.2066116 35.785124,43.2231405 45.6198347,43.2231405" id="Shape" fill="#FFFFFF"></path>
                <path d="M82.3966942,62.7272727 C77.6033058,62.7272727 73.8842975,66.3636364 73.8842975,71.1570248 C73.8842975,75.9504132 77.6033058,79.5867769 82.3966942,79.5867769 C87.1900826,79.5867769 90.9090909,75.9504132 90.9090909,71.1570248 C90.8264463,66.3636364 87.107438,62.7272727 82.3966942,62.7272727 Z M82.3966942,65.6198347 C85.4545455,65.6198347 87.8512397,68.0991736 87.8512397,71.1570248 C87.8512397,74.1322314 85.4545455,76.6942149 82.3966942,76.6942149 C79.338843,76.6942149 76.9421488,74.1322314 76.9421488,71.1570248 C76.9421488,68.0991736 79.338843,65.6198347 82.3966942,65.6198347 Z M43.0578512,76.6942149 C40,76.6942149 37.6033058,74.1322314 37.6033058,71.1570248 C37.6033058,68.0991736 40,65.6198347 43.0578512,65.6198347 C46.1157025,65.6198347 48.5123967,68.0991736 48.5123967,71.1570248 C48.5123967,74.1322314 46.1157025,76.6942149 43.0578512,76.6942149 Z M48.5123967,63.1404959 L48.5123967,64.9586777 L48.4297521,64.9586777 C47.107438,63.6363636 45.1239669,62.7272727 42.9752066,62.7272727 C38.1818182,62.7272727 34.4628099,66.3636364 34.4628099,71.1570248 C34.4628099,75.9504132 38.1818182,79.5867769 42.9752066,79.5867769 C45.0413223,79.5867769 47.107438,78.677686 48.3471074,77.2727273 L48.4297521,77.2727273 L48.4297521,79.0082645 L51.4876033,79.0082645 L51.4876033,63.1404959 L48.5123967,63.1404959 Z M62.7272727,76.6942149 C59.6694215,76.6942149 57.2727273,74.1322314 57.2727273,71.1570248 C57.2727273,68.0991736 59.6694215,65.6198347 62.7272727,65.6198347 C65.785124,65.6198347 68.1818182,68.0991736 68.1818182,71.1570248 C68.1818182,74.1322314 65.785124,76.6942149 62.7272727,76.6942149 Z M68.0991736,55.5371901 L68.0991736,64.9586777 L68.0165289,64.9586777 C66.7768595,63.553719 64.7933884,62.6446281 62.6446281,62.6446281 C57.8512397,62.6446281 54.1322314,66.2809917 54.1322314,71.0743802 C54.1322314,75.8677686 57.8512397,79.5041322 62.6446281,79.5041322 C64.7107438,79.5041322 66.7768595,78.5950413 68.0165289,77.1900826 L68.0991736,77.1900826 L68.0991736,78.9256198 L71.1570248,78.9256198 L71.1570248,55.5371901 L68.0991736,55.5371901 Z M31.7355372,74.9586777 C30.7438017,76.0330579 29.338843,76.6942149 27.768595,76.6942149 C24.7107438,76.6942149 22.3140496,74.1322314 22.3140496,71.1570248 C22.3140496,68.0991736 24.7107438,65.6198347 27.768595,65.6198347 C29.338843,65.6198347 30.7438017,66.2809917 31.7355372,67.3553719 L33.2231405,64.5454545 C31.7355372,63.3884298 29.9173554,62.6446281 27.768595,62.6446281 C22.9752066,62.6446281 19.2561983,66.2809917 19.2561983,71.0743802 C19.2561983,75.8677686 22.9752066,79.5041322 27.768595,79.5041322 C29.8347107,79.5041322 31.7355372,78.7603306 33.2231405,77.6033058 L31.7355372,74.9586777 Z M8.51239669,62.7272727 C3.71900826,62.7272727 0,66.3636364 0,71.1570248 C0,75.9504132 3.71900826,79.5867769 8.51239669,79.5867769 C13.3057851,79.5867769 17.0247934,75.9504132 17.0247934,71.1570248 C16.9421488,66.3636364 13.2231405,62.7272727 8.51239669,62.7272727 Z M8.51239669,65.6198347 C11.5702479,65.6198347 13.9669421,68.0991736 13.9669421,71.1570248 C13.9669421,74.1322314 11.5702479,76.6942149 8.51239669,76.6942149 C5.45454545,76.6942149 3.05785124,74.1322314 3.05785124,71.1570248 C3.05785124,68.0991736 5.45454545,65.6198347 8.51239669,65.6198347 Z" id="Shape" fill="#A2B0CD"></path>
            </g>
        </g>
    </g>
</svg>