<svg width="200" height="100" xmlns="http://www.w3.org/2000/svg"><g fill-rule="nonzero" fill="none"><path d="M80.29 10c-3.059 0-5.62 2.48-5.62 5.62v40.248c0 3.058 2.479 5.62 5.62 5.62h45.784V15.62c.083-3.14-2.479-5.62-5.537-5.62H80.29Z" fill="#A2B0CD"/><path d="M100.62 53.223c9.835 0 17.851-7.934 17.851-17.768 0-2.315-.744-5.372-.744-4.629 0 6.612-6.115 11.984-12.644 11.075-4.959-.661-10.496-5.207-9.504-12.397.991-7.107 7.19-9.917 11.652-9.339 7.19.992 8.678 6.447 6.53 9.009-2.15 2.975-6.612 1.24-6.612-2.15 0-1.9 1.24-2.726 1.405-2.892-3.637-1.074-7.438 1.818-7.934 5.62-.579 4.132 2.48 7.438 5.95 7.851 6.364.91 10-4.215 10-8.76 0-5.372-5.702-11.405-15.868-11.405-9.834 0-17.85 7.934-17.85 17.686 0 10.083 7.933 18.1 17.768 18.1" fill="#FFF"/><path d="M137.397 72.727c-4.794 0-8.513 3.637-8.513 8.43 0 4.793 3.72 8.43 8.513 8.43 4.793 0 8.512-3.637 8.512-8.43-.083-4.793-3.802-8.43-8.512-8.43Zm0 2.893c3.058 0 5.454 2.48 5.454 5.537 0 2.975-2.396 5.537-5.454 5.537s-5.455-2.562-5.455-5.537c0-3.058 2.397-5.537 5.455-5.537Zm-39.34 11.074c-3.057 0-5.454-2.562-5.454-5.537 0-3.058 2.397-5.537 5.455-5.537 3.058 0 5.454 2.48 5.454 5.537 0 2.975-2.396 5.537-5.454 5.537Zm5.455-13.554v1.819h-.082c-1.323-1.323-3.306-2.232-5.455-2.232-4.793 0-8.512 3.637-8.512 8.43 0 4.793 3.719 8.43 8.512 8.43 2.066 0 4.132-.91 5.372-2.314h.083v1.735h3.058V73.14h-2.976Zm14.215 13.554c-3.058 0-5.454-2.562-5.454-5.537 0-3.058 2.396-5.537 5.454-5.537s5.455 2.48 5.455 5.537c0 2.975-2.397 5.537-5.455 5.537Zm5.372-21.157v9.422h-.082c-1.24-1.405-3.224-2.314-5.372-2.314-4.794 0-8.513 3.636-8.513 8.43 0 4.793 3.72 8.43 8.513 8.43 2.066 0 4.132-.91 5.372-2.315h.082v1.736h3.058V65.537h-3.058ZM86.736 84.96a5.365 5.365 0 0 1-3.967 1.735c-3.058 0-5.455-2.562-5.455-5.537 0-3.058 2.397-5.537 5.455-5.537 1.57 0 2.975.661 3.967 1.735l1.487-2.81c-1.487-1.157-3.306-1.9-5.454-1.9-4.794 0-8.513 3.636-8.513 8.43 0 4.793 3.72 8.43 8.513 8.43 2.066 0 3.967-.745 5.454-1.902l-1.487-2.644ZM63.512 72.727c-4.793 0-8.512 3.637-8.512 8.43 0 4.793 3.719 8.43 8.512 8.43 4.794 0 8.513-3.637 8.513-8.43-.083-4.793-3.802-8.43-8.513-8.43Zm0 2.893c3.058 0 5.455 2.48 5.455 5.537 0 2.975-2.397 5.537-5.455 5.537-3.057 0-5.454-2.562-5.454-5.537 0-3.058 2.397-5.537 5.454-5.537Z" fill="#A2B0CD"/></g></svg>