<svg xmlns="http://www.w3.org/2000/svg" viewBox="0 0 150 29"><path d="M148.378 13.118c.88.926 1.32 2.18 1.32 3.765v8.354h-3.263v-7.404c0-.934-.266-1.671-.796-2.214-.532-.541-1.255-.812-2.168-.812-1.08.016-1.935.384-2.566 1.1-.631.717-.946 1.634-.946 2.751v6.579h-3.239V6.677h3.239v7.73c.913-1.752 2.516-2.643 4.807-2.677 1.528 0 2.732.463 3.612 1.388zm-18.85 1.489c-1.08 0-1.955.366-2.628 1.1-.672.734-1.009 1.685-1.009 2.852 0 1.2.337 2.167 1.01 2.901.672.734 1.548 1.1 2.628 1.1 1.594 0 2.79-.525 3.587-1.575l2.017 1.675a5.896 5.896 0 0 1-2.366 2.002c-.98.467-2.117.7-3.413.7-1.312 0-2.478-.283-3.5-.85a5.971 5.971 0 0 1-2.378-2.39c-.565-1.025-.848-2.204-.848-3.538 0-1.351.287-2.543.86-3.577a6.036 6.036 0 0 1 2.391-2.401c1.021-.567 2.196-.85 3.525-.85 1.212 0 2.296.212 3.251.637s1.731 1.03 2.33 1.813l-1.969 1.876c-.897-.983-2.059-1.475-3.487-1.475zm-8.961-2.752v13.382h-3.239v-2.126a4.882 4.882 0 0 1-1.856 1.689c-.756.392-1.623.587-2.603.587-1.262 0-2.37-.288-3.326-.863-.955-.575-1.698-1.384-2.23-2.426-.53-1.042-.796-2.239-.796-3.59 0-1.333.265-2.513.797-3.539.53-1.025 1.274-1.822 2.23-2.388.954-.567 2.054-.851 3.3-.851.98 0 1.852.196 2.616.588a4.86 4.86 0 0 1 1.868 1.688v-2.15h3.239zm-4.41 9.818c.681-.659 1.071-1.53 1.171-2.614v-.95c-.1-1.085-.49-1.956-1.17-2.614-.682-.66-1.545-.988-2.592-.988-1.112 0-2.017.379-2.715 1.138-.697.759-1.055 1.738-1.07 2.939.015 1.2.373 2.18 1.07 2.939.698.758 1.603 1.138 2.715 1.138 1.047 0 1.91-.33 2.591-.988zm-12.893-8.092c1.071 1.217 1.607 2.926 1.607 5.128 0 .434-.009.758-.025.975h-9.84c.216.951.66 1.697 1.333 2.239.672.542 1.499.813 2.479.813a5.04 5.04 0 0 0 1.955-.388 4.766 4.766 0 0 0 1.632-1.113l1.743 1.826a6.74 6.74 0 0 1-2.429 1.7c-.955.401-2.013.601-3.176.601-1.361 0-2.561-.283-3.599-.85a5.93 5.93 0 0 1-2.404-2.39c-.565-1.025-.847-2.204-.847-3.538s.286-2.518.86-3.552a6.098 6.098 0 0 1 2.403-2.414c1.03-.576 2.2-.863 3.512-.863 2.127 0 3.725.61 4.796 1.826zm-1.357 3.927c-.034-.984-.358-1.767-.972-2.351s-1.428-.876-2.441-.876c-.947 0-1.74.288-2.38.864-.639.575-1.033 1.362-1.182 2.363zm-13.733-5.065c.772-.459 1.673-.696 2.703-.713v3.152c-1.38-.084-2.479.237-3.301.963-.822.725-1.233 1.705-1.233 2.938v6.454h-3.238V11.855h3.238v2.576c.448-.866 1.059-1.53 1.83-1.988zM80.679 24.41c-1.063.65-2.176.976-3.338.976-1.146 0-2.085-.338-2.815-1.013-.731-.676-1.096-1.672-1.096-2.989V8.728l3.213-.384v4.061h3.811v2.377h-3.81v6.028c0 .617.115 1.055.348 1.313.233.259.58.388 1.046.388.498 0 1.13-.184 1.893-.551l.748 2.451zM67.43 11.855h3.213v7.501c0 4.378-3.044 6.006-6.132 6.006-3.089 0-6.132-1.628-6.132-6.006v-7.5h3.214v7.616c0 1.678 1.247 3.039 2.918 3.039s2.918-1.36 2.918-3.039v-7.617zM51.721 8.678a8.738 8.738 0 0 1 3.35 3.227c.815 1.367 1.221 2.885 1.221 4.553 0 1.667-.406 3.189-1.22 4.564a8.883 8.883 0 0 1-3.35 3.264c-1.42.8-2.994 1.2-4.721 1.2-1.728 0-3.3-.4-4.72-1.2a8.88 8.88 0 0 1-3.351-3.264c-.814-1.375-1.221-2.897-1.221-4.564 0-1.668.407-3.186 1.22-4.553a8.736 8.736 0 0 1 3.351-3.227c1.42-.783 2.993-1.175 4.72-1.175 1.728 0 3.301.392 4.721 1.175zm-7.635 2.615a5.84 5.84 0 0 0-2.167 2.15c-.532.91-.797 1.914-.797 3.015 0 1.1.27 2.11.81 3.026A6.026 6.026 0 0 0 44.1 21.66c.905.534 1.888.8 2.952.8a5.598 5.598 0 0 0 2.914-.8 5.875 5.875 0 0 0 2.13-2.176 6 6 0 0 0 .785-3.026c0-1.1-.262-2.105-.785-3.014a5.808 5.808 0 0 0-2.13-2.151 5.668 5.668 0 0 0-2.914-.789 5.847 5.847 0 0 0-2.965.789zM13.314 0c4.585 0 11.513 1.412 14.738 4.65.817.821 1.886 2.429 1.886 4.784 0 4.187-3.36 10.611-7.07 14.337-1.918 1.926-4.969 4.443-9.073 4.443-4.012 0-7.076-2.736-7.963-3.627C2.434 21.175 0 15.996 0 11.167 0 8.12.865 5.455 3.072 3.24 5.116 1.188 8.638 0 13.314 0zm5.675 16.698c1.548-1.555 1.965-3.47 1.965-4.524 0-.764-.2-1.885-1.152-2.84-1.46-1.466-3.077-1.88-4.836-1.88-2.228 0-3.725.707-4.722 1.709-.782.785-1.458 1.992-1.458 3.707 0 1.714.91 3.37 1.902 4.365.916.92 2.356 1.601 3.806 1.601s2.947-.583 4.495-2.138z" fill="currentColor" fill-rule="evenodd"/></svg>