<svg width="111" height="30" viewBox="0 0 111 30" fill="none" xmlns="http://www.w3.org/2000/svg">
<g clip-path="url(#clip0_437_1594)">
<path d="M13.3193 0.00261083H4.68559C4.09561 0.00261083 3.59255 0.437975 3.50037 1.02825L0.00791471 23.4775C-0.0605648 23.9209 0.276565 24.3188 0.719048 24.3188H4.84099C5.43096 24.3188 5.93403 23.8835 6.02621 23.2905L6.96912 17.2355C7.0613 16.6426 7.56436 16.2072 8.15434 16.2072H10.8883C16.5747 16.2072 19.8564 13.4161 20.7151 7.88723C21.1022 5.46735 20.7309 3.56564 19.6141 2.23552C18.3841 0.774512 16.2086 0.00261083 13.3193 0.00261083ZM14.3149 8.2024C13.8434 11.3434 11.4756 11.3434 9.1868 11.3434H7.88306L8.79963 5.47537C8.85494 5.12013 9.15783 4.85838 9.51076 4.85838H10.1086C11.6679 4.85838 13.1375 4.85838 13.8987 5.75849C14.3491 6.29802 14.4887 7.09663 14.3149 8.2024Z" fill="#283b82"/>
<path d="M39.1255 8.10085H34.9904C34.6375 8.10085 34.3346 8.3626 34.2793 8.71784L34.0975 9.89038L33.8078 9.4657C32.9123 8.14893 30.9159 7.70822 28.9247 7.70822C24.355 7.70822 20.4543 11.2178 19.6931 16.1404C19.298 18.595 19.8591 20.9427 21.2339 22.58C22.4929 24.0864 24.2971 24.7114 26.441 24.7114C30.1231 24.7114 32.1643 22.3103 32.1643 22.3103L31.9799 23.4748C31.9114 23.9208 32.2486 24.3188 32.6884 24.3188H36.4127C37.0053 24.3188 37.5057 23.8834 37.5979 23.2905L39.8314 8.94219C39.9051 8.50149 39.568 8.10085 39.1255 8.10085ZM33.3627 16.2606C32.965 18.6564 31.0897 20.2643 28.6982 20.2643C27.4971 20.2643 26.5384 19.8744 25.9221 19.1345C25.3111 18.4 25.0793 17.353 25.2742 16.1885C25.6456 13.814 27.5525 12.1527 29.9071 12.1527C31.0818 12.1527 32.0352 12.548 32.6647 13.2932C33.2942 14.0464 33.5444 15.0987 33.3627 16.2606Z" fill="#283b82"/>
<path d="M61.1443 8.10093H56.9908C56.5931 8.10093 56.2217 8.30125 55.9978 8.63512L50.2666 17.1928L47.8382 8.96898C47.6855 8.45349 47.2166 8.10093 46.6872 8.10093H42.6048C42.1096 8.10093 41.7646 8.59238 41.9226 9.06514L46.4976 22.6843L42.1939 28.8435C41.8568 29.3269 42.1966 29.9946 42.7813 29.9946H46.9295C47.322 29.9946 47.6907 29.7997 47.9146 29.4711L61.7317 9.24409C62.0662 8.76332 61.7264 8.10093 61.1443 8.10093Z" fill="#283b82"/>
<path d="M74.8981 0.00261083H66.2644C65.6745 0.00261083 65.1714 0.437975 65.0792 1.02825L61.5868 23.4775C61.5183 23.9209 61.8554 24.3188 62.2953 24.3188H66.7254C67.1362 24.3188 67.4892 24.0144 67.5524 23.6004L68.5427 17.2355C68.6323 16.6426 69.138 16.2072 69.7279 16.2072H72.4592C78.1483 16.2072 81.4274 13.4161 82.286 7.88723C82.6732 5.46735 82.3018 3.56564 81.1851 2.23552C79.963 0.774512 77.7874 0.00261083 74.8981 0.00261083ZM75.8937 8.2024C75.4223 11.3434 73.0571 11.3434 70.7657 11.3434H69.4645L70.3811 5.47537C70.4364 5.12013 70.7367 4.85838 71.0896 4.85838H71.6875C73.2441 4.85838 74.7164 4.85838 75.4776 5.75849C75.9306 6.29802 76.0676 7.09663 75.8937 8.2024Z" fill="#469bdb"/>
<path d="M100.704 8.10085H96.5719C96.2164 8.10085 95.9161 8.3626 95.8634 8.71784L95.6817 9.89038L95.392 9.4657C94.4965 8.14893 92.5027 7.70822 90.5115 7.70822C85.9418 7.70822 82.0411 11.2178 81.2826 16.1404C80.8901 18.595 81.4485 20.9427 82.8207 22.58C84.0823 24.0864 85.8839 24.7114 88.0278 24.7114C91.7099 24.7114 93.7511 22.3103 93.7511 22.3103L93.5667 23.4748C93.4982 23.9208 93.8354 24.3188 94.2779 24.3188H97.9995C98.5894 24.3188 99.0925 23.8834 99.1847 23.2905L101.421 8.94219C101.484 8.50149 101.147 8.10085 100.704 8.10085ZM94.9416 16.2606C94.5439 18.6564 92.6686 20.2643 90.2771 20.2643C89.0787 20.2643 88.1173 19.8744 87.501 19.1345C86.89 18.4 86.6608 17.353 86.8531 16.1885C87.2271 13.814 89.1314 12.1527 91.486 12.1527C92.6607 12.1527 93.6141 12.548 94.2436 13.2932C94.8731 14.0464 95.1233 15.0987 94.9416 16.2606Z" fill="#469bdb"/>
<path d="M105.577 0.61692L102.034 23.4775C101.966 23.9209 102.303 24.3188 102.743 24.3188H106.304C106.897 24.3188 107.4 23.8835 107.489 23.2905L110.984 0.84128C111.053 0.397904 110.716 -0.00273653 110.276 -0.00273653H106.285C105.935 0.00260535 105.632 0.264356 105.577 0.61692Z" fill="#469bdb"/>
</g>
<defs>
<clipPath id="clip0_437_1594">
<rect width="111" height="30" fill="white"/>
</clipPath>
</defs>
</svg>
