<svg width="333" height="48" xmlns="http://www.w3.org/2000/svg"><g fill="#212529" fill-rule="nonzero"><path d="m39.685 12.317-.301-5.223h-3.011l-.31 5.223M39.685 35.683l-.301 5.223h-3.011l-.31-5.223M49.558 25.81l5.223-.301v-3.011l-5.223-.31M26.192 25.81l-5.223-.301v-3.011l5.223-.31M47.415 17.004l3.48-3.906-2.129-2.129-3.912 3.474M30.895 33.54l-3.906 3.48-2.13-2.129 3.475-3.912M44.87 33.54l3.907 3.48 2.129-2.129-3.474-3.912M28.335 17.004l-3.48-3.906 2.129-2.129 3.912 3.474M44.02 13.899l1.72-4.94-2.782-1.153-2.285 4.707M35.064 35.498l-2.277 4.71-2.782-1.152 1.712-4.944M47.992 30.145l4.94 1.72 1.152-2.782-4.706-2.285M26.392 21.189l-4.71-2.277 1.152-2.782 4.944 1.712M49.373 21.189l4.71-2.277-1.152-2.782-4.944 1.712M27.774 30.145l-4.94 1.72-1.153-2.782 4.707-2.285M40.686 35.498l2.277 4.71 2.782-1.152-1.712-4.944M31.73 13.899l-1.72-4.94 2.782-1.153 2.285 4.707M89.96 30.055V42.19h-5.585V8.726h10.25c3.881 0 6.89.895 9.026 2.684 2.137 1.789 3.205 4.31 3.205 7.56 0 3.252-1.115 5.912-3.346 7.981-2.23 2.07-5.247 3.104-9.05 3.104h-4.5Zm0-16.755v12.228h3.629c2.404 0 4.234-.552 5.49-1.657 1.257-1.104 1.886-2.66 1.886-4.667 0-3.936-2.31-5.904-6.928-5.904H89.96Zm43.454 28.89h-5.467V29.122c0-4.73-1.595-7.094-4.784-7.094-1.602 0-2.953.684-4.053 2.053-1.1 1.37-1.65 3.12-1.65 5.25V42.19h-5.49V6.813h5.49V22.26h.095c1.822-3.018 4.43-4.527 7.823-4.527 5.357 0 8.036 3.243 8.036 9.731V42.19Zm25.168 0h-5.303v-3.734h-.094c-1.665 2.863-4.108 4.294-7.329 4.294-2.372 0-4.23-.638-5.573-1.913-1.343-1.276-2.014-2.964-2.014-5.064 0-4.512 2.623-7.141 7.87-7.888l7.164-1.004c0-3.407-1.634-5.11-4.902-5.11-2.874 0-5.467.98-7.776 2.94v-4.737c2.545-1.493 5.483-2.24 8.813-2.24 6.096 0 9.144 2.971 9.144 8.914V42.19Zm-5.279-11.738-5.067.7c-1.57.202-2.753.58-3.546 1.132-.793.552-1.19 1.52-1.19 2.905 0 1.011.365 1.84 1.096 2.485.73.646 1.708.969 2.934.969 1.665 0 3.043-.58 4.135-1.739 1.092-1.159 1.638-2.617 1.638-4.375v-2.077Zm17.509 8.284h-.094v3.454h-5.467V6.813h5.467v15.681h.094c1.87-3.173 4.603-4.76 8.2-4.76 3.048 0 5.432 1.07 7.153 3.208 1.72 2.14 2.58 5.006 2.58 8.6 0 3.998-.966 7.2-2.898 9.603-1.933 2.403-4.572 3.605-7.918 3.605-3.143 0-5.515-1.338-7.117-4.014Zm-.141-9.498v2.964c0 1.743.561 3.22 1.684 4.434 1.124 1.214 2.55 1.82 4.277 1.82 2.027 0 3.618-.782 4.772-2.345 1.155-1.564 1.732-3.746 1.732-6.546 0-2.349-.538-4.189-1.614-5.519s-2.533-1.995-4.371-1.995c-1.948 0-3.515.684-4.701 2.054-1.186 1.369-1.78 3.08-1.78 5.133Zm37.657-5.787c-.66-.513-1.61-.77-2.852-.77-1.618 0-2.969.723-4.053 2.17s-1.626 3.415-1.626 5.904V42.19h-5.467V18.294h5.467v4.924h.094c.534-1.68 1.355-2.991 2.463-3.932 1.107-.942 2.345-1.412 3.711-1.412.99 0 1.744.148 2.263.443v5.134Zm6.621-10.174c-.895 0-1.66-.288-2.297-.864-.636-.575-.955-1.307-.955-2.193 0-.887.319-1.626.955-2.217.636-.592 1.402-.887 2.297-.887.927 0 1.713.295 2.357.887.644.59.966 1.33.966 2.217 0 .84-.322 1.56-.966 2.158-.644.6-1.43.899-2.357.899Zm2.71 28.913h-5.467V18.294h5.467V42.19Zm24.414-1.097c-1.932 1.105-4.218 1.657-6.857 1.657-3.582 0-6.473-1.108-8.672-3.325-2.2-2.217-3.3-5.092-3.3-8.623 0-3.936 1.183-7.098 3.547-9.486 2.364-2.388 5.526-3.582 9.485-3.582 2.2 0 4.14.38 5.82 1.143v5.04c-1.68-1.244-3.471-1.866-5.372-1.866-2.31 0-4.203.774-5.68 2.322-1.476 1.548-2.215 3.574-2.215 6.079 0 2.473.696 4.426 2.086 5.857 1.39 1.432 3.256 2.147 5.596 2.147 1.964 0 3.818-.692 5.562-2.077v4.714Zm23.942 1.097h-5.302v-3.734h-.094c-1.666 2.863-4.109 4.294-7.33 4.294-2.371 0-4.229-.638-5.572-1.913-1.343-1.276-2.015-2.964-2.015-5.064 0-4.512 2.624-7.141 7.87-7.888l7.164-1.004c0-3.407-1.633-5.11-4.9-5.11-2.876 0-5.468.98-7.778 2.94v-4.737c2.546-1.493 5.483-2.24 8.814-2.24 6.095 0 9.143 2.971 9.143 8.914V42.19Zm-5.279-11.738-5.066.7c-1.571.202-2.753.58-3.547 1.132-.793.552-1.19 1.52-1.19 2.905 0 1.011.366 1.84 1.096 2.485.73.646 1.709.969 2.934.969 1.665 0 3.044-.58 4.136-1.739 1.092-1.159 1.637-2.617 1.637-4.375v-2.077Zm24.673 11.481c-1.068.53-2.474.794-4.218.794-4.682 0-7.022-2.225-7.022-6.674V22.54h-4.03v-4.247h4.03v-5.53l5.467-1.541v7.07h5.773v4.248h-5.773v11.948c0 1.416.259 2.427.778 3.034.518.606 1.382.91 2.592.91.926 0 1.728-.265 2.403-.794v4.294Zm15.412.817c-3.724 0-6.696-1.116-8.92-3.349-2.222-2.232-3.334-5.192-3.334-8.88 0-4.013 1.159-7.148 3.475-9.403 2.319-2.256 5.44-3.384 9.367-3.384 3.77 0 6.71 1.097 8.815 3.29 2.105 2.194 3.157 5.235 3.157 9.125 0 3.811-1.135 6.864-3.405 9.159-2.27 2.295-5.323 3.442-9.155 3.442Zm.26-20.7c-2.137 0-3.827.74-5.067 2.218-1.242 1.478-1.863 3.516-1.863 6.114 0 2.505.63 4.477 1.885 5.916 1.258 1.439 2.94 2.158 5.045 2.158 2.15 0 3.804-.708 4.96-2.123 1.155-1.416 1.731-3.43 1.731-6.045 0-2.629-.576-4.659-1.732-6.09-1.155-1.431-2.808-2.147-4.96-2.147Zm31.859 1.401c-.66-.513-1.61-.77-2.851-.77-1.62 0-2.97.723-4.053 2.17-1.084 1.447-1.627 3.415-1.627 5.904V42.19h-5.467V18.294h5.467v4.924h.095c.534-1.68 1.355-2.991 2.462-3.932 1.109-.942 2.344-1.412 3.711-1.412.99 0 1.744.148 2.263.443v5.134ZM37.88 29.722c3.188 0 5.771-2.561 5.771-5.72 0-3.16-2.583-5.72-5.77-5.72-3.188 0-5.772 2.56-5.772 5.72 0 3.159 2.584 5.72 5.771 5.72Z"/><path d="m3.125 23.763-1.714-1.126-.74 1.126.74 1.126 1.714-1.126Zm69.502 0 1.714 1.126.74-1.126-.74-1.126-1.714 1.126ZM37.877 43.35c-15.492 0-27.752-12.67-33.038-20.713L1.41 24.889c5.503 8.373 18.836 22.563 36.465 22.563V43.35ZM4.838 24.89c5.286-8.043 17.546-20.714 33.037-20.714V.074c-17.63 0-30.962 14.19-36.465 22.563l3.428 2.252ZM37.876 4.175c15.49 0 27.751 12.67 33.038 20.713l3.427-2.252C68.838 14.264 55.506.074 37.876.074v4.102Zm33.038 18.46C65.627 30.68 53.367 43.35 37.876 43.35v4.102c17.63 0 30.962-14.19 36.465-22.563l-3.427-2.252ZM47.006 24.001c0 4.965-4.066 9.03-9.135 9.03v5.567c8.097 0 14.702-6.512 14.702-14.597h-5.567Zm-9.135 9.03c-5.068 0-9.135-4.065-9.135-9.03H23.17c0 8.085 6.605 14.597 14.701 14.597v-5.566Zm-9.135-9.03c0-4.964 4.067-9.03 9.135-9.03V9.404c-8.096 0-14.701 6.513-14.701 14.597h5.566Zm9.135-9.03c5.069 0 9.135 4.066 9.135 9.03h5.567c0-8.084-6.605-14.597-14.702-14.597v5.567Z"/></g></svg>