<svg width="115" height="43" fill="none" xmlns="http://www.w3.org/2000/svg"><path d="M55.76 20.934h-1.657V17.2h1.494c1.8 0 2.721.633 2.721 1.877-.02 1.245-.859 1.857-2.557 1.857Zm4.584-6.142c-.961-.795-2.599-1.203-4.91-1.203h-5.24v15.955h3.91v-4.999h1.759c2.128 0 3.683-.47 4.686-1.387 1.125-1.04 1.678-2.408 1.678-4.142-.02-1.775-.634-3.183-1.883-4.224ZM68.918 13.589h-4.092v15.975h8.819v-3.631h-4.727V13.589ZM81.585 23.994l1.677-5.447 1.658 5.447h-3.335Zm.04-10.405-6.404 15.955h4.4l.838-2.326h5.566l.777 2.326h4.44L84.88 13.589h-3.254ZM97.34 13.589H93.27v15.955h4.072V13.589ZM106.672 25.933h-1.76V17.2h1.78c1.248 0 2.21.388 2.885 1.163.676.775 1.003 1.857 1.003 3.265 0 2.877-1.31 4.305-3.908 4.305Zm6.527-9.345c-.552-.775-1.187-1.387-1.944-1.836-1.227-.776-2.905-1.143-5.033-1.143h-5.382v15.955h6.282c2.271 0 4.092-.734 5.463-2.203 1.371-1.47 2.067-3.407 2.067-5.835 0-1.939-.491-3.591-1.453-4.938ZM24.003 35.563l4.44-4.366 5.566 5.651-6.957 1.796-3.05-3.081ZM8.697 36.644l5.668-5.55 4.379 4.428-3.11 3.04-6.937-1.918Zm22.406-8.039 4.44-4.366 3.05 3.081-1.924 6.917-5.566-5.632Zm-14.078-.122 4.44-4.366 4.38 4.427-4.441 4.366-4.38-4.427ZM4.277 27.055l3.09-3.04 4.379 4.427-5.669 5.55-1.8-6.937Zm19.848-5.55 4.44-4.366 4.38 4.427-4.44 4.367-4.38-4.428Zm-14.098-.102 4.44-4.366 4.38 4.427-4.441 4.367-4.38-4.428Zm7.1-6.978 4.44-4.366 4.38 4.427-4.44 4.367-4.38-4.428Zm14.099.122 5.668-5.55 1.8 6.938-3.089 3.04-4.379-4.428ZM4.359 15.65l1.923-6.916 5.566 5.651-4.44 4.367-3.05-3.102Zm19.869-8.181 3.09-3.04 6.936 1.917-5.668 5.55-4.358-4.427ZM8.942 6.14 15.9 4.346l3.05 3.08-4.441 4.367-5.566-5.652ZM17.066.184 3.847 3.61.205 16.731l4.563 4.61-4.625 4.55 3.438 13.181 13.157 3.632 4.625-4.55 4.563 4.611 13.219-3.427 3.642-13.14-4.563-4.57 4.625-4.55L39.41 3.897 26.254.265l-4.625 4.55L17.066.184Z" fill="#000"/></svg>