<svg xmlns="http://www.w3.org/2000/svg" viewBox="0 0 620 240"><defs><style>.a{fill:#1981ff}</style></defs><path class="a" d="M119 54.8c-17.1 0-34.1 6.7-45.7 18.9-12.2 12.2-19.5 28.6-18.9 45.7-.6 17.1 6.7 33.5 18.9 45.7s28.6 19.5 45.7 18.9a64.48 64.48 0 0 0 45.7-18.9c12.2-12.2 19.5-28.6 18.9-45.7 0-17.1-6.7-34.1-18.9-45.7-11.6-12.2-28-18.9-45.7-18.9Zm41.4 106.6a58 58 0 0 1-41.4 17.1c-15.8.6-30.5-6.1-41.4-17.1A53.48 53.48 0 0 1 60.5 120c-.6-15.8 6.1-30.5 17.1-41.4A53.48 53.48 0 0 1 119 61.5a57.81 57.81 0 0 1 41.4 17.1 58.4 58.4 0 0 1 17.1 41.4 53.34 53.34 0 0 1-17.1 41.4ZM119 68.2a51.9 51.9 0 0 0-52.4 52.4c0 14 5.5 27.4 15.2 36.5a52.57 52.57 0 0 0 37.2 15.2c14 0 27.4-5.5 36.5-15.2a52.16 52.16 0 0 0 15.2-36.5 52.92 52.92 0 0 0-15.2-37.2A47.87 47.87 0 0 0 119 68.2Zm45.7 54.2a42.23 42.23 0 0 1-14.6 31.7c-9.1 8.5-20.7 12.8-32.9 11.6A45 45 0 0 1 74 118.2v-.6a45 45 0 0 1 15.2-31.7c9.1-8.5 20.7-12.8 32.9-11.6a43.91 43.91 0 0 1 31.1 15.2 46.16 46.16 0 0 1 11.5 32.9Zm26.2-32.2a100.09 100.09 0 0 0-16.4-25 67.58 67.58 0 0 0-25-16.4 74.89 74.89 0 0 0-30.5-6.1 75.22 75.22 0 0 0-30.5 6.1 67.4 67.4 0 0 0-24.4 16.4 67.58 67.58 0 0 0-16.4 25 74.89 74.89 0 0 0-6.1 30.5 75.22 75.22 0 0 0 6.1 30.5 77.8 77.8 0 0 0 71.3 47.5 75.22 75.22 0 0 0 30.5-6.1c9.1-3.7 17.7-9.7 25-16.4a70.51 70.51 0 0 0 16.4-24.4 73 73 0 0 0 6.1-30.5c0-11.7-1.9-22-6.1-31.1Zm-6.1 57.8a71 71 0 0 1-15.2 22.5 69.39 69.39 0 0 1-22.5 15.2 72.81 72.81 0 0 1-55.4 0 73.57 73.57 0 0 1-23.1-15.2A69.39 69.39 0 0 1 53.4 148a72.81 72.81 0 0 1 0-55.4 71 71 0 0 1 15.2-22.5 69.39 69.39 0 0 1 22.5-15.2 70.2 70.2 0 0 1 27.4-5.5 68.09 68.09 0 0 1 27.4 5.5A73.57 73.57 0 0 1 169 70.1a69.39 69.39 0 0 1 15.2 22.5 65.47 65.47 0 0 1 .6 55.4Z"/><path class="a" d="M86.1 137.7c1.2 1.8 2.4 4.3 3.7 6.1V96.3a37.68 37.68 0 0 0-8.5 23.8 35.06 35.06 0 0 0 4.8 17.6Zm12.2 14c2.4 1.8 5.5 3 8.5 4.3V84.1c-3 1.2-6.1 2.4-8.5 4.3Zm17-69.5v75.5h8.5V82.2Zm17.1 73.7a48.51 48.51 0 0 0 8.5-4.3V88.2c-2.4-1.8-5.5-3-8.5-4.3Zm16.4-59v47.5l3.7-5.5a36.75 36.75 0 0 0 4.3-17.7c.6-9.7-2.5-18.3-8-24.3Zm-46.9-85.3a72.18 72.18 0 0 0-11 2.4L97 36.5l9.1-1.8c.1 0-4.2-23.1-4.2-23.1ZM47.1 73.1 27.6 60.3c-2.4 3-4.3 6.7-6.1 9.7l20.7 10.4c1.9-2.4 3.1-4.9 4.9-7.3M80 17.7c-3.7 1.2-6.7 3-10.4 4.9L80 43.3c3-1.8 5.5-2.4 8.5-3.7Zm-7.9 29.8L59.9 28a116.37 116.37 0 0 0-9.7 6.7L64.8 53l7.3-5.5m-14 11.6L41.7 42.7a107 107 0 0 0-7.3 8.5l18.3 14.6a46.44 46.44 0 0 1 5.4-6.7M173.2 53l14.6-17.7-9.1-7.3-12.8 19.5a38.46 38.46 0 0 1 7.3 5.5m-4.3-30.5c-3.7-1.8-6.7-3-10.4-4.9L150 39.5a86.42 86.42 0 0 1 8.5 3.7c.1 0 10.4-20.7 10.4-20.7Zm17.7 43.3 17.7-14.6a102.14 102.14 0 0 0-7.9-8.5L180 59.1l6.6 6.7m9.1 15.2 20.7-10.4a49.85 49.85 0 0 0-6.1-9.7l-19.5 12.8c1.9 1.8 3.1 4.3 4.9 7.3m6.1 16.5 22.5-6.1-3.7-11-21.9 8.5a61 61 0 0 1 3.1 8.6M147.6 14a72.18 72.18 0 0 0-11-2.4l-3.7 23.1 9.1 1.8c.1 0 5.6-22.5 5.6-22.5Zm-22.5-3.6h-11.6l1.2 23.8h9.1c.1-.1 1.3-23.8 1.3-23.8Zm-89 132.1-22.5 6.1 3.7 11 21.9-8.5c-1.2-3.1-2.4-6.1-3.1-8.6m168.2-9.1 23.1 3.7a76.07 76.07 0 0 0 1.2-11.6l-23.8-1.2a39.74 39.74 0 0 1-.5 9.1m-4.9 17.7 21.9 8.5 3.7-11-22.5-6.1c-.7 2.5-1.9 5.5-3.1 8.6m28-48.2-23.1 3.7c.6 3 .6 6.1 1.2 9.1l23.1-1.2c-.6-4.2-.6-7.9-1.2-11.6m-35.9 64 19.5 12.8c2.4-3 4.3-6.7 6.1-9.7l-20.7-10.4a62.11 62.11 0 0 1-4.9 7.3m-11 14 16.4 16.4a109.88 109.88 0 0 0 7.9-8.5l-18.3-14.6c-2.3 2.4-4.2 4.9-6 6.7m-14 11.6 12.8 19.5a88.14 88.14 0 0 0 9.1-6.7L173.8 187l-7.3 5.5M38.6 88.9l-21.9-8.5-3.7 11 22.5 6.1c1.3-3.1 2.5-5.5 3.1-8.6M52 174.2l-18.3 14.6a53.09 53.09 0 0 0 7.9 8.5l17.1-16.4-6.7-6.7M42.2 159l-20.7 10.4a49.85 49.85 0 0 0 6.1 9.7l19.5-12.8c-1.2-1.8-3-4.3-4.9-7.3m-9.1-34.7L10 126.1a68.54 68.54 0 0 0 1.2 11l23.1-3.7a47.32 47.32 0 0 1-1.2-9.1M64.8 187l-14.6 18.3a88.14 88.14 0 0 0 9.1 6.7l12.8-19.5-7.3-5.5m-30.5-80.4-23.1-3.7a68.88 68.88 0 0 0-1.2 11.6l23.1 1.2a47.32 47.32 0 0 1 1.2-9.1m115.8 93.8 8.5 21.9a49.71 49.71 0 0 0 10.4-4.9l-10.4-20.7c-3.1 1.3-5.5 2.5-8.5 3.7m-80.5 17.1c3.7 1.8 6.7 3 10.4 4.9l8.5-21.9a73.45 73.45 0 0 1-7.9-3.7Zm43.9 12.1h11.6l-1.2-23.8h-9.2Zm19.5-24.3 3.7 23.1a72.18 72.18 0 0 0 11-2.4l-6.1-22.5c-3.1.6-5.6 1.2-8.6 1.8M91 226a72.18 72.18 0 0 0 11 2.4l3.7-23.1c-3-.6-6.1-1.2-8.5-1.8-.1 0-6.2 22.5-6.2 22.5ZM272.5 175.4V67h43.9a35.69 35.69 0 0 1 34.7 35.9 34.79 34.79 0 0 1-34.1 35.9h-23.8v36.5h-20.7Zm21.3-54.8h22.5c7.9 0 13.4-6.7 13.4-17.7s-7.3-17.7-14.6-17.7h-21.3Zm117.6-8.5a30.64 30.64 0 0 0-27.4 16.4V176h-20.7V95h18.9v17.1c6.1-11 16.4-18.3 25-18.3h4.3c-.1 0-.1 18.3-.1 18.3Zm5.5 23.7a40.86 40.86 0 0 1 39.6-42h3c26.2 0 40.2 18.9 40.2 40.8a30 30 0 0 1-.6 7.3h-59.7a20.88 20.88 0 0 0 21.3 20.1 22.21 22.21 0 0 0 20.1-12.8l17.1 6.7c-7.3 13.4-21.9 21.9-37.2 20.7-28.6.7-43.8-18.2-43.8-40.8Zm63.3-6.7c-.6-11-9.7-20.1-20.7-20.1a20.74 20.74 0 0 0-20.7 20.1Zm106.6-55.4a11.6 11.6 0 1 1 11.6 11.6 11.24 11.24 0 0 1-11.6-11.6Zm1.2 101.7V95h20.7v80.4Zm-85.9 0 41.4-63.4h-37.2V95h67.6l-41.4 64h42v16.4Z"/></svg>