<svg width="131" height="42" fill="none" xmlns="http://www.w3.org/2000/svg"><defs><linearGradient id="a" x1=".133" y1=".008" x2=".949" y2="1.101" gradientUnits="objectBoundingBox"><stop offset=".042" stop-color="#21dbaa"/><stop offset=".358" stop-color="#00b4ef"/><stop offset=".433" stop-color="#01a7ec"/><stop offset=".568" stop-color="#0487e4"/><stop offset=".68" stop-color="#0768dd"/><stop offset=".965" stop-color="#5f1ae5"/></linearGradient></defs><path d="M43.28 25.97c-.803 0-.982-.627-.982-1.612V14.15c0-3.492-1.963-5.552-5.265-5.552-3.926 0-5.71 3.045-5.71 6v.09h2.676v-.09c0-.985.357-1.97.982-2.776a2.764 2.764 0 0 1 1.963-.806c1.606 0 2.499 1.254 2.499 3.313v.985l-3.123 1.523c-3.57 1.701-5.89 3.045-5.89 6.537 0 3.045 1.963 5.194 4.819 5.194 1.784-.09 3.39-.895 4.372-2.328.357 1.433 1.606 2.328 3.034 2.328.536 0 1.071-.09 1.607-.358h.089V25.7l-.179.09c-.267.09-.535.18-.892.18Zm-3.837-8.15v6c-.714 1.344-2.053 2.15-3.57 2.33-1.338.089-2.498-.986-2.588-2.33v-.357c0-2.329 2.053-3.582 3.838-4.478l2.32-1.164ZM57.915 2.866h-2.767l-.089 6.09h-2.498v2.596h2.498V24.09c0 2.776 1.339 4.388 3.748 4.388.982 0 1.963-.269 2.856-.806h.089v-2.597l-.178.179c-.536.447-1.25.806-1.964.806-1.249 0-1.517-1.075-1.517-1.97V11.552h4.105V8.955h-4.105v-6.09h-.178ZM24.54 23.642c-1.07 1.612-2.32 2.418-3.48 2.418-1.517 0-2.142-1.523-2.142-2.955V8.955h-2.855v14.329c0 3.313 1.517 5.283 4.105 5.283 1.784 0 3.39-.895 4.372-2.328l.09 1.97h2.766V8.955H24.54v14.687ZM9.816 10.746c-.714-1.343-2.142-2.15-3.748-2.06-1.695 0-3.212.896-4.194 2.24C.624 12.625 0 15.223 0 18.536c0 7.344 2.945 9.94 5.711 9.94 1.517 0 2.856-.626 3.748-1.79V41.91h2.856V8.955H9.816v1.791Zm-.268 2.597v10.478c-.803 1.433-1.784 2.149-3.034 2.149-2.32 0-3.57-2.507-3.57-7.433 0-4.746 1.34-7.433 3.66-7.433 1.338 0 2.498.985 2.944 2.24ZM49.527 0H46.67v28.12h2.856V0ZM78.44 8.955h-2.856V28.12h2.855V8.955ZM78.529 2.866h-2.856v3.313h2.856V2.866ZM67.73 11.194l-.178-2.239h-2.677V28.21h2.856v-13.88c1.25-2.598 2.945-2.956 4.551-2.956l.714.09V8.597h-.803c-2.053 0-3.123.627-4.462 2.597ZM101.819 16.746l-.089.09.089-.09c-1.784-.895-3.034-1.701-3.034-3.313 0-1.254.982-2.329 2.231-2.329h.268c.714 0 1.428.269 1.874.806.625.717.892 1.702.714 2.687v.179h2.677v-.09c.179-1.611-.357-3.223-1.428-4.477-.981-.985-2.409-1.612-3.748-1.523-3.034 0-5.265 2.06-5.265 5.015 0 3.224 2.588 4.568 4.373 5.553 1.785.985 3.569 1.97 3.569 3.94.09 1.522-1.16 2.866-2.677 2.866h-.178c-1.785 0-3.123-1.523-3.213-3.762v-.09h-2.677v.09c.09 3.851 2.32 6.27 5.89 6.27 2.945.178 5.443-2.06 5.622-4.926v-.627c-.089-3.672-2.677-5.015-4.998-6.269ZM90.665 22.12c0 1.164-.357 2.238-1.071 3.134a2.434 2.434 0 0 1-1.695.716c-2.231 0-3.392-2.597-3.392-7.433 0-4.835 1.16-7.522 3.391-7.522.625 0 1.16.269 1.607.627.624.806.981 1.88.981 2.955h2.677c.09-1.701-.446-3.403-1.606-4.657-.981-.985-2.23-1.432-3.57-1.432-4.104 0-6.335 3.492-6.335 9.94 0 6.448 2.142 9.94 6.157 9.94 3.213 0 5.176-2.328 5.444-6.358l-2.588.09ZM110.743 26.597c.089-.09.089-.269.089-.358a.686.686 0 0 0-.178-.448c-.179-.09-.357-.179-.535-.179h-.982v2.06h.535v-.806h.357l.357.716h.536l-.447-.806c.09 0 .179-.09.268-.179Zm-.446-.179c-.089 0-.178.09-.268.09h-.357v-.538h.357c.09 0 .179 0 .268.09.089.09.089.09.089.179 0 .09-.089.179-.089.179Z" fill="#000"/><path d="M111.636 25.88c-.09-.178-.179-.447-.357-.537a1.867 1.867 0 0 0-.536-.358 1.965 1.965 0 0 0-1.428 0c-.178.09-.446.18-.535.358-.179.18-.268.359-.357.538-.178.447-.178.985 0 1.522.089.18.178.448.357.537.178.18.357.269.535.359.447.179.982.179 1.428 0 .179-.09.446-.18.536-.359.178-.179.267-.358.357-.537.178-.537.178-1.075 0-1.522Zm-.357 1.344c-.09.18-.179.358-.268.448-.089.09-.268.268-.446.268a1.32 1.32 0 0 1-1.16 0c-.179-.09-.357-.179-.447-.268-.089-.18-.267-.269-.267-.448a1.33 1.33 0 0 1 0-1.164c.089-.18.178-.358.267-.448.09-.09.268-.269.447-.269a1.32 1.32 0 0 1 1.16 0c.178.09.357.18.446.269.089.18.268.269.268.448.178.358.178.806 0 1.164Z" fill="#000"/><path d="m127.485 2.754-2.499 8.776-2.677-8.776h-5.889l-1.964 3.582-2.141-3.582h-2.945l3.48 5.641-3.837 6.27h2.766l2.41-4.12 2.498 4.12h4.462v-8.24c.089.358.089.627.179.896.089.268.089.448.178.716.089.18.089.448.179.627.089.18.089.358.178.627l1.785 5.463h2.32l1.785-5.463c.089-.448.267-.896.357-1.254l.267-1.343v8.15h2.499V2.932l-3.391-.18Zm-11.69 5.641 3.123-5.194v10.21l-3.123-5.016Z" fill="url(#a)"/></svg>