<?xml version="1.0" encoding="UTF-8"?>
<!DOCTYPE svg PUBLIC "-//W3C//DTD SVG 1.1//EN" "http://www.w3.org/Graphics/SVG/1.1/DTD/svg11.dtd">
<!-- Creator: CorelDRAW 2017 -->
<svg xmlns="http://www.w3.org/2000/svg" xml:space="preserve" width="600px" height="108px" version="1.1" style="shape-rendering:geometricPrecision; text-rendering:geometricPrecision; image-rendering:optimizeQuality; fill-rule:evenodd; clip-rule:evenodd"
viewBox="0 0 600 108.09"
 xmlns:xlink="http://www.w3.org/1999/xlink">
 <defs>
  <style type="text/css">
   <![CDATA[
    .fil0 {fill:#A6A6A6;fill-rule:nonzero}
   ]]>
  </style>
 </defs>
 <g id="Layer_x0020_1">
  <metadata id="CorelCorpID_0Corel-Layer"/>
  <path class="fil0" d="M288.76 28.24c-7.68,0 -14.44,2.5 -20.14,10.65l-0.26 0 0 -8.81 -18.28 0 0 67.65 19.08 0 0 -38.43c0,-9.21 4.76,-15.8 12.45,-15.8 5.96,0 10.16,3.29 10.16,13.03l0 41.2 19.08 0 0 -45.94c0,-13.03 -5.66,-23.55 -22.09,-23.55zm-48.79 69.49l0 -8.42 0 -25.35 0 -13.87c0,-15.54 -14.04,-21.85 -30.86,-21.85 -23.85,0 -31.27,13.29 -31.93,23.69l18.28 0c0.4,-6.06 5.04,-10 12.85,-10 8.35,0 13.39,3.94 13.39,11.97l0 3.16 -17.63 1.05c-26.62,1.58 -29.01,13.56 -29.01,20.8 0,15.4 13.12,20.66 23.84,20.66 7.96,0 16.96,-2.37 23.32,-10.66l0.27 0 0 8.82 17.48 0zm-18.27 -23.3c0,8.16 -9.68,11.45 -15.64,11.45 -6.36,0 -11.92,-1.84 -11.92,-7.89 0,-4.88 2.91,-7.51 11.65,-8.3l15.91 -1.44 0 6.18zm295.73 -26.45c0,-4.09 5.03,-6.05 10.06,-6.05 7.29,0 11.4,3.42 11.66,9.07l19.08 -0.39c-1.06,-14.74 -12.59,-22.37 -30.08,-22.37 -20.13,0 -28.21,11.32 -28.21,21.71 0,27.91 40.8,17.64 40.8,28.96 0,5.53 -6.36,6.97 -11.26,6.97 -5.69,0 -11.52,-2.63 -11.79,-9.21l-19.07 0c1.59,20.01 20.66,22.9 30.2,22.9 28.09,0 31,-17.37 31,-22.64 0,-27.37 -42.39,-16.84 -42.39,-28.95zm-24.54 49.75l0 -8.42 0 -25.35 0 -13.87c0,-15.54 -14.04,-21.85 -30.86,-21.85 -23.85,0 -31.27,13.29 -31.93,23.69l18.28 0c0.4,-6.06 5.03,-10 12.85,-10 8.35,0 13.39,3.94 13.39,11.97l0 3.16 -17.63 1.05c-26.62,1.58 -29.01,13.56 -29.01,20.8 0,15.4 13.12,20.66 23.84,20.66 7.95,0 16.96,-2.37 23.32,-10.66l0.27 0 0 8.82 17.48 0zm-18.27 -23.3c0,8.16 -9.68,11.45 -15.64,11.45 -6.36,0 -11.93,-1.84 -11.93,-7.89 0,-4.88 2.92,-7.51 11.67,-8.3l15.9 -1.44 0 6.18zm-69.19 -0.47c-1.21,6.19 -4.9,10.35 -11.92,10.35 -9.94,0 -13.12,-10.01 -13.12,-18.96 0,-8.69 1.46,-21.06 13.25,-21.06 4.9,0 10.3,2.12 10.95,10.97l18.63 0 1.29 -0.04c-0.93,-14.35 -10.6,-26.99 -30.87,-26.99 -20.67,0 -33.12,14.62 -33.12,36.33 0,20.8 11.26,35.01 33.52,35.01 18.26,0 27.27,-10.77 30.19,-25.61l-18.8 0zm-88.9 -43.61l8.84 0 0 -19.7 19.3 0 0 19.7 10.19 0 0 14.64 -10.19 0 0 34.61c0,3.07 1.34,4.53 6.3,4.53 1.61,0 2.68,-0.13 3.89,-0.4l0 15.04c-3.09,0.4 -6.17,0.8 -9.25,0.8 -12.6,0 -20.24,-3.06 -20.24,-17.84l0 -36.74 -8.84 0 0 -14.64zm245.15 0l8.84 0 0 -19.7 19.29 0 0 19.7 10.19 0 0 14.64 -10.19 0 0 34.61c0,3.07 1.34,4.53 6.31,4.53 1.6,0 2.67,-0.13 3.88,-0.4l0 15.04c-3.08,0.4 -6.17,0.8 -9.25,0.8 -12.59,0 -20.23,-3.06 -20.23,-17.84l0 -36.74 -8.84 0 0 -14.64zm-413.12 38.16c0,9.21 -4.77,15.79 -12.45,15.79 -5.96,0 -10.17,-3.28 -10.17,-13.03l0 -41.19 -19.07 0 0 45.93c0,13.03 7.41,23.56 23.84,23.56 7.68,0 12.68,-2.5 18.38,-10.66l0.27 0 0 8.82 18.28 0 0 -67.65 -19.08 0 0 38.43zm-81.7 28.9l6.23 10.68 22.26 0 -11.82 -20.25c10.69,-9.64 16.18,-23.79 16.18,-37.85 0,-24.84 -17.12,-49.99 -49.85,-49.99 -32.74,0 -49.86,25.15 -49.86,49.99 0,24.84 17.12,49.99 49.86,49.99 6.24,0 11.9,-0.92 17,-2.57zm-45.15 -47.42c0,-16.09 8.7,-32.33 28.15,-32.33 19.44,0 28.14,16.24 28.14,32.33 0,6.98 -1.64,13.99 -5.08,19.69l-22.24 -0.02 6.83 11.71c-2.34,0.61 -4.88,0.96 -7.65,0.96 -19.45,0 -28.15,-16.24 -28.15,-32.34z"/>
 </g>
</svg>
