<svg xmlns="http://www.w3.org/2000/svg" xml:space="preserve" width="600" height="108" style="shape-rendering:geometricPrecision;text-rendering:geometricPrecision;image-rendering:optimizeQuality;fill-rule:evenodd;clip-rule:evenodd" viewBox="0 0 600 108.09"><path d="M288.76 28.24c-7.68 0-14.44 2.5-20.14 10.65h-.26v-8.81h-18.28v67.65h19.08V59.3c0-9.21 4.76-15.8 12.45-15.8 5.96 0 10.16 3.29 10.16 13.03v41.2h19.08V51.79c0-13.03-5.66-23.55-22.09-23.55zm-48.79 69.49V50.09c0-15.54-14.04-21.85-30.86-21.85-23.85 0-31.27 13.29-31.93 23.69h18.28c.4-6.06 5.04-10 12.85-10 8.35 0 13.39 3.94 13.39 11.97v3.16l-17.63 1.05c-26.62 1.58-29.01 13.56-29.01 20.8 0 15.4 13.12 20.66 23.84 20.66 7.96 0 16.96-2.37 23.32-10.66h.27v8.82h17.48zm-18.27-23.3c0 8.16-9.68 11.45-15.64 11.45-6.36 0-11.92-1.84-11.92-7.89 0-4.88 2.91-7.51 11.65-8.3l15.91-1.44v6.18zm295.73-26.45c0-4.09 5.03-6.05 10.06-6.05 7.29 0 11.4 3.42 11.66 9.07l19.08-.39c-1.06-14.74-12.59-22.37-30.08-22.37-20.13 0-28.21 11.32-28.21 21.71 0 27.91 40.8 17.64 40.8 28.96 0 5.53-6.36 6.97-11.26 6.97-5.69 0-11.52-2.63-11.79-9.21h-19.07c1.59 20.01 20.66 22.9 30.2 22.9 28.09 0 31-17.37 31-22.64 0-27.37-42.39-16.84-42.39-28.95zm-24.54 49.75V50.09c0-15.54-14.04-21.85-30.86-21.85-23.85 0-31.27 13.29-31.93 23.69h18.28c.4-6.06 5.03-10 12.85-10 8.35 0 13.39 3.94 13.39 11.97v3.16l-17.63 1.05c-26.62 1.58-29.01 13.56-29.01 20.8 0 15.4 13.12 20.66 23.84 20.66 7.95 0 16.96-2.37 23.32-10.66h.27v8.82h17.48zm-18.27-23.3c0 8.16-9.68 11.45-15.64 11.45-6.36 0-11.93-1.84-11.93-7.89 0-4.88 2.92-7.51 11.67-8.3l15.9-1.44v6.18zm-69.19-.47c-1.21 6.19-4.9 10.35-11.92 10.35-9.94 0-13.12-10.01-13.12-18.96 0-8.69 1.46-21.06 13.25-21.06 4.9 0 10.3 2.12 10.95 10.97h18.63l1.29-.04c-.93-14.35-10.6-26.99-30.87-26.99-20.67 0-33.12 14.62-33.12 36.33 0 20.8 11.26 35.01 33.52 35.01 18.26 0 27.27-10.77 30.19-25.61h-18.8zm-88.9-43.61h8.84v-19.7h19.3v19.7h10.19v14.64h-10.19V79.6c0 3.07 1.34 4.53 6.3 4.53 1.61 0 2.68-.13 3.89-.4v15.04c-3.09.4-6.17.8-9.25.8-12.6 0-20.24-3.06-20.24-17.84V44.99h-8.84V30.35zm245.15 0h8.84v-19.7h19.29v19.7H600v14.64h-10.19V79.6c0 3.07 1.34 4.53 6.31 4.53 1.6 0 2.67-.13 3.88-.4v15.04c-3.08.4-6.17.8-9.25.8-12.59 0-20.23-3.06-20.23-17.84V44.99h-8.84V30.35zM148.56 68.51c0 9.21-4.77 15.79-12.45 15.79-5.96 0-10.17-3.28-10.17-13.03V30.08h-19.07v45.93c0 13.03 7.41 23.56 23.84 23.56 7.68 0 12.68-2.5 18.38-10.66h.27v8.82h18.28V30.08h-19.08v38.43zm-81.7 28.9 6.23 10.68h22.26L83.53 87.84c10.69-9.64 16.18-23.79 16.18-37.85C99.71 25.15 82.59 0 49.86 0 17.12 0 0 25.15 0 49.99c0 24.84 17.12 49.99 49.86 49.99 6.24 0 11.9-.92 17-2.57zM21.71 49.99c0-16.09 8.7-32.33 28.15-32.33C69.3 17.66 78 33.9 78 49.99c0 6.98-1.64 13.99-5.08 19.69l-22.24-.02 6.83 11.71c-2.34.61-4.88.96-7.65.96-19.45 0-28.15-16.24-28.15-32.34z" style="fill:#fff;fill-rule:nonzero"/></svg>