<svg xmlns="http://www.w3.org/2000/svg" viewBox="0 0 620 164"><path d="M298.31 55.59c-7.78 0-14.71 2.57-20.49 10.92h-.28v-9H259v69.23h19.41V87.42c0-9.42 4.86-16.13 12.64-16.13 6.06 0 10.35 3.36 10.35 13.35v42.19h19.41v-47c-.02-13.46-5.81-24.24-22.5-24.24ZM248.7 126.75V78c0-15.91-14.28-22.34-31.41-22.34-24.27 0-31.76 13.63-32.47 24.27h18.55c.43-6.21 5.14-10.21 13.07-10.21 8.49 0 13.63 4.07 13.63 12.28v3.21l-17.92 1.07c-27.05 1.64-29.47 13.85-29.47 21.27 0 15.78 13.34 21.13 24.26 21.13 8.07 0 17.28-2.43 23.7-10.92h.29v9Zm-18.56-23.84c0 8.36-9.85 11.71-15.92 11.71-6.49 0-12.13-1.86-12.13-8.07 0-5 3-7.7 11.85-8.49l16.13-1.5.07 6.35ZM530.86 75.86c0-4.21 5.14-6.21 10.21-6.21 7.42 0 11.56 3.5 11.84 9.28l19.42-.43c-1.07-15.06-12.78-22.91-30.55-22.91-20.49 0-28.69 11.56-28.69 22.2 0 28.55 41.47 18.06 41.47 29.62 0 5.64-6.5 7.14-11.42 7.14-5.79 0-11.71-2.71-12-9.42h-19.41c1.64 20.48 21 23.41 30.69 23.41 28.55 0 31.55-17.77 31.55-23.2.03-27.91-43.11-17.13-43.11-29.48ZM505.88 126.75V78c0-15.91-14.28-22.34-31.41-22.34-24.27 0-31.76 13.63-32.48 24.27h18.56c.43-6.21 5.14-10.21 13.06-10.21 8.5 0 13.64 4.07 13.64 12.28v3.21l-17.92 1.07c-27.05 1.64-29.48 13.85-29.48 21.27 0 15.78 13.35 21.13 24.27 21.13 8.07 0 17.27-2.43 23.7-10.92h.28v9Zm-18.56-23.84c0 8.36-9.85 11.71-15.92 11.71-6.49 0-12.13-1.86-12.13-8.07 0-5 3-7.7 11.85-8.49l16.13-1.5v6.35ZM416.94 102.41c-1.21 6.36-5 10.57-12.14 10.57-10.13 0-13.34-10.21-13.34-19.42C391.46 84.64 393 72 405 72c5 0 10.49 2.14 11.13 11.2H435l1.28-.07c-.93-14.7-10.78-27.62-31.4-27.62-21 0-33.69 15-33.69 37.19 0 21.27 11.42 35.83 34.11 35.83 18.56 0 27.77-11 30.7-26.2l-19.06.07ZM326.57 57.8h9V37.6h19.63v20.2h10.35v15H355.2v35.4c0 3.14 1.35 4.64 6.42 4.64a16.05 16.05 0 0 0 3.93-.43v15.41a69.61 69.61 0 0 1-9.43.79c-12.77 0-20.55-3.14-20.55-18.27V72.72h-9ZM575.83 57.8h9V37.6h19.63v20.2h10.34v15h-10.35v35.4c0 3.14 1.36 4.64 6.42 4.64a15.94 15.94 0 0 0 3.93-.43v15.41a69.59 69.59 0 0 1-9.42.79c-12.78 0-20.56-3.14-20.56-18.27V72.72h-9ZM155.77 96.85c0 9.42-4.86 16.13-12.64 16.13-6.07 0-10.35-3.36-10.35-13.35V57.45h-19.41v47c0 13.35 7.56 24.13 24.27 24.13 7.78 0 12.91-2.57 18.7-10.92h.28v9h18.56V57.45h-19.41v39.4ZM72.68 126.4 79 137.32h22.63l-12-20.7c10.85-9.85 16.49-24.34 16.49-38.76 0-25.41-17.42-51.18-50.68-51.18S4.8 52.45 4.8 77.86 22.22 129 55.48 129a55.09 55.09 0 0 0 17.2-2.6Zm-46-48.54c0-16.49 8.85-33.12 28.63-33.12S84 61.37 84 77.86A39.29 39.29 0 0 1 78.82 98H56.19l6.93 12a29.9 29.9 0 0 1-7.78 1c-19.78 0-28.63-16.65-28.63-33.14Z"/></svg>