<svg xmlns="http://www.w3.org/2000/svg" viewBox="0 0 354.5 161.9" style="enable-background:new 0 0 354.5 161.9" xml:space="preserve"><style>.st0{fill:#3f484d}</style><g id="logo"><path class="st0" d="M134.5 96.7c-1.6 15.1 7.9 16.9 13.8 11.7 4.1-3.6 5.7-7.2 7.3-15.9 1.4-7.6 4.2-21.8 4.2-21.8-7.4-1.7-23 4.5-25.3 26M257.8 59.4c-4.5-2.6-7.6-4.7-9.8-6.6l-3.9 9.5c7 .9 11.3 7.5 8.6 14.7 0 0-9.7-3-13.3 4.8-2.9 6.3.8 13.4 9.1 13.6 19.4.6 28.5-24.5 9.3-36M69.4 33.3c-23.9 3.2-45.5 20.9-43.3 43C27.2 88.2 39.4 92 47.9 87.6c6.6-3.4 10.8-12 7.3-23.6 13-5 24.8 3.3 22.6 22.1 38.2-12.5 32.5-58.2-8.4-52.8"/><path class="st0" d="M306.7 67.3c2.5 11.9 20.9 10.4 30.1-3.2.4 2.5.6 4.7 1.2 7.5-4.8 11.8-22.7 18.7-33.8 14.6-16.8-6.4-19-25.7-12.1-42 7.5-17.7 28.4-26.5 40.4-21.1 18.1 8.1 5.9 40.5-26.4 41 .2 1 .4 2 .6 3.2m-57.3 34.8c-12.4 1.2-19.8-1.7-23.8-6.3-4.3 7.1-12.4 16.9-24.3 15.4-5.1-.6-8.7-4.1-10.6-7.6-5.7 16.8-24.6 18.2-32.3 6.8-6.9 16.5-23.6 18.6-33.3 10l-1.4-1.7C104.5 145 75 135.3 70 104.4c-1.9 11.5-3.2 17.5-6.2 35.7-2 .4-14.2 3-21.1 4.5 3.4-18.8 4.2-23.3 6.2-33.4-10.2 1.9-20.8-.1-28.1-7.9C9.7 91.2 11 62.2 26.7 43.7c14.1-16.6 30.9-26.8 55.1-29.6 46.8-5.4 66 50.7 6.1 82.1.5 2.7 1.3 5.5 2.3 8 8.5 19.6 22.2 18.6 29.4 9.4-2.9-5.5-4.1-12.7-2.3-21.4C123 64.8 154.5 60.5 162 59c4.4-.9 18.7-3.9 18.7-3.9s-4.6 23.1-7 38.9c-1 6.4.1 9 2 10.5 4.8 3.7 10-2.5 13.1-8.9-.4-3.2.6-7.5 1.2-10.6 1.4-7.5 6.2-33.1 6.2-33.1l18.7-3.9s-5.1 27.4-6.8 36.1c-2.4 12.8 6.3 18 13.8 4-1.9-5.1.1-14.1 3-18.2 2.4-3.4 6-5.9 10-6.9l6.6-17.6 16.7-11.7s3.7 6.3 10.5 10.5c32.6 20.5 13.7 54.6-19.3 57.9m-28-86.9c9.9 8-15.4 26.2-21.2 23.5-4.9-2.2 9.8-32.7 21.2-23.5m116.7-4.5C334 8.9 329.5 8 324.6 8 307 8 289 19.9 280.8 36.5c-1.6-1.2-3.3-2.4-5.1-3.6-3.5-2.2-5.8-5.6-6.1-6l-7.1-12.6-31.8 22.3.2-1c2.2-2.8 4-5.8 5-8.7 2.9-8.3.6-16.8-6-22.2-3.8-3.1-8.4-4.7-13.1-4.7-5.5 0-13.8 2.2-21.8 13-4.2 5.6-7.4 12.4-8.7 18.2-.6 2.9-.8 6.1-.2 9.1l-8.4 1.8c-.1 0-14.2 3-18.6 3.9-.4.1-.8.2-1.4.3-4 .8-11.2 2.1-19.2 5.2.4-5.2 0-10.3-1.2-15.2-2.6-10.5-8.7-19.5-17.5-26-8.9-6.5-19.9-9.9-32-9.9-2.5 0-5.2.2-7.8.5C53.9 3.7 33.7 14.6 16.4 35 7.2 45.9 1.4 60 .2 74.8-1 90 2.9 103.7 10.9 112.4c5.7 6.2 13.2 10.3 21.7 12-.8 4.4-1.8 9.8-3.2 17.7l-3.5 19.7 19.6-4.1c7-1.5 19.1-4.1 21.2-4.5l8.9-2 1.5-9c.1-.4.1-.7.2-1.1 6.2 4.1 13.3 6.3 20.7 6.3 9.9 0 19.4-3.8 27.6-11 3.9 1.6 8.2 2.5 12.5 2.5 8.8 0 17-3.5 23.4-9.6 3.4 1.3 7.1 2 10.9 2 8 0 15.4-3 21.2-8.2 1.9.7 4 1.2 6.1 1.5 1.3.2 2.6.2 3.9.2 9.2 0 17.9-4 25.3-11.4 4.1 1.4 9.1 2.3 15.2 2.3 2.1 0 4.4 0 6.7-.3 16.7-1.7 31.3-9.8 40-21.4 2.7 1.9 5.6 3.5 8.8 4.7 3.7 1.4 7.7 2.1 12 2.1 14.5 0 32.5-8.3 39-24.2l1.6-3.9-.9-4.1c-.3-1.3-.5-2.5-.7-3.9-.1-.9-.3-1.9-.4-2.8l-1.2-7c2.3-3.8 4-7.9 4.8-12.1 2.9-14-3.3-26.6-15.7-32.1"/><path class="st0" d="M309.5 44.2c-1.4 3.2-2.6 7-3.1 11.1 14.9-.4 25-12.2 20.8-19.5-2.7-4.5-13.4-1.5-17.7 8.4M348.1 95h1c.3 0 .5-.1.7-.2.2-.1.3-.3.3-.6s-.1-.5-.3-.7c-.2-.1-.5-.2-.9-.2h-.9V95zm0 .5v1.9h-.5v-4.6h1.4c.5 0 .9.1 1.2.3.3.2.4.6.4 1 0 .2-.1.5-.2.6-.1.2-.3.3-.6.4.2.1.4.2.5.4.1.2.2.4.2.7v.7c0 .1 0 .2.1.3v.1h-.6c0-.1-.1-.2-.1-.3v-.7c0-.3-.1-.5-.2-.7-.1-.1-.4-.2-.7-.2h-.9zm-2.5-.3c0 1 .3 1.9 1 2.6.7.7 1.5 1.1 2.4 1.1s1.7-.3 2.4-1.1c.7-.7 1-1.6 1-2.6s-.3-1.9-1-2.6c-.7-.7-1.5-1-2.4-1s-1.7.3-2.4 1-1 1.6-1 2.6m-.5 0c0-1.1.4-2.1 1.1-2.9.8-.8 1.7-1.2 2.7-1.2s2 .4 2.7 1.2c.8.8 1.1 1.8 1.1 2.9 0 1.1-.4 2.1-1.1 2.9-.8.8-1.7 1.2-2.7 1.2s-2-.4-2.7-1.2c-.7-.8-1.1-1.8-1.1-2.9"/></g></svg>