<?xml version="1.0" encoding="utf-8"?>
<!-- Generator: Adobe Illustrator 21.1.0, SVG Export Plug-In . SVG Version: 6.00 Build 0)  -->
<svg version="1.1" xmlns="http://www.w3.org/2000/svg" xmlns:xlink="http://www.w3.org/1999/xlink" x="0px" y="0px"
	 viewBox="0 0 354.5 161.9" style="enable-background:new 0 0 354.5 161.9;" xml:space="preserve">
<style type="text/css">
	.st0{fill:#3F484D;}
</style>
<g id="clear_space">
</g>
<g id="logo">
	<g>
		<g>
			<path class="st0" d="M134.5,96.7c-1.6,15.1,7.9,16.9,13.8,11.7c4.1-3.6,5.7-7.2,7.3-15.9c1.4-7.6,4.2-21.8,4.2-21.8
				C152.4,69,136.8,75.2,134.5,96.7"/>
			<path class="st0" d="M257.8,59.4c-4.5-2.6-7.6-4.7-9.8-6.6l-3.9,9.5c7,0.9,11.3,7.5,8.6,14.7c0,0-9.7-3-13.3,4.8
				c-2.9,6.3,0.8,13.4,9.1,13.6C267.9,96,277,70.9,257.8,59.4"/>
			<path class="st0" d="M69.4,33.3c-23.9,3.2-45.5,20.9-43.3,43c1.1,11.9,13.3,15.7,21.8,11.3c6.6-3.4,10.8-12,7.3-23.6
				c13-5,24.8,3.3,22.6,22.1C116,73.6,110.3,27.9,69.4,33.3"/>
			<path class="st0" d="M306.7,67.3c2.5,11.9,20.9,10.4,30.1-3.2c0.4,2.5,0.6,4.7,1.2,7.5c-4.8,11.8-22.7,18.7-33.8,14.6
				c-16.8-6.4-19-25.7-12.1-42c7.5-17.7,28.4-26.5,40.4-21.1c18.1,8.1,5.9,40.5-26.4,41C306.3,65.1,306.5,66.1,306.7,67.3
				 M249.4,102.1c-12.4,1.2-19.8-1.7-23.8-6.3c-4.3,7.1-12.4,16.9-24.3,15.4c-5.1-0.6-8.7-4.1-10.6-7.6
				c-5.7,16.8-24.6,18.2-32.3,6.8c-6.9,16.5-23.6,18.6-33.3,10l-1.4-1.7C104.5,145,75,135.3,70,104.4c-1.9,11.5-3.2,17.5-6.2,35.7
				c-2,0.4-14.2,3-21.1,4.5c3.4-18.8,4.2-23.3,6.2-33.4c-10.2,1.9-20.8-0.1-28.1-7.9C9.7,91.2,11,62.2,26.7,43.7
				c14.1-16.6,30.9-26.8,55.1-29.6c46.8-5.4,66,50.7,6.1,82.1c0.5,2.7,1.3,5.5,2.3,8c8.5,19.6,22.2,18.6,29.4,9.4
				c-2.9-5.5-4.1-12.7-2.3-21.4c5.7-27.4,37.2-31.7,44.7-33.2c4.4-0.9,18.7-3.9,18.7-3.9s-4.6,23.1-7,38.9c-1,6.4,0.1,9,2,10.5
				c4.8,3.7,10-2.5,13.1-8.9c-0.4-3.2,0.6-7.5,1.2-10.6c1.4-7.5,6.2-33.1,6.2-33.1l18.7-3.9c0,0-5.1,27.4-6.8,36.1
				c-2.4,12.8,6.3,18,13.8,4c-1.9-5.1,0.1-14.1,3-18.2c2.4-3.4,6-5.9,10-6.9l6.6-17.6l16.7-11.7c0,0,3.7,6.3,10.5,10.5
				C301.3,64.7,282.4,98.8,249.4,102.1 M221.4,15.2c9.9,8-15.4,26.2-21.2,23.5C195.3,36.5,210,6,221.4,15.2 M338.1,10.7
				c-4.1-1.8-8.6-2.7-13.5-2.7c-17.6,0-35.6,11.9-43.8,28.5c-1.6-1.2-3.3-2.4-5.1-3.6c-3.5-2.2-5.8-5.6-6.1-6l-7.1-12.6l-31.8,22.3
				l0.2-1c2.2-2.8,4-5.8,5-8.7c2.9-8.3,0.6-16.8-6-22.2c-3.8-3.1-8.4-4.7-13.1-4.7C211.3,0,203,2.2,195,13
				c-4.2,5.6-7.4,12.4-8.7,18.2c-0.6,2.9-0.8,6.1-0.2,9.1l-8.4,1.8c-0.1,0-14.2,3-18.6,3.9c-0.4,0.1-0.8,0.2-1.4,0.3
				c-4,0.8-11.2,2.1-19.2,5.2c0.4-5.2,0-10.3-1.2-15.2c-2.6-10.5-8.7-19.5-17.5-26c-8.9-6.5-19.9-9.9-32-9.9c-2.5,0-5.2,0.2-7.8,0.5
				C53.9,3.7,33.7,14.6,16.4,35C7.2,45.9,1.4,60,0.2,74.8c-1.2,15.2,2.7,28.9,10.7,37.6c5.7,6.2,13.2,10.3,21.7,12
				c-0.8,4.4-1.8,9.8-3.2,17.7l-3.5,19.7l19.6-4.1c7-1.5,19.1-4.1,21.2-4.5l8.9-2l1.5-9c0.1-0.4,0.1-0.7,0.2-1.1
				c6.2,4.1,13.3,6.3,20.7,6.3c9.9,0,19.4-3.8,27.6-11c3.9,1.6,8.2,2.5,12.5,2.5c8.8,0,17-3.5,23.4-9.6c3.4,1.3,7.1,2,10.9,2
				c8,0,15.4-3,21.2-8.2c1.9,0.7,4,1.2,6.1,1.5c1.3,0.2,2.6,0.2,3.9,0.2c9.2,0,17.9-4,25.3-11.4c4.1,1.4,9.1,2.3,15.2,2.3h0
				c2.1,0,4.4,0,6.7-0.3c16.7-1.7,31.3-9.8,40-21.4c2.7,1.9,5.6,3.5,8.8,4.7c3.7,1.4,7.7,2.1,12,2.1c14.5,0,32.5-8.3,39-24.2
				l1.6-3.9l-0.9-4.1c-0.3-1.3-0.5-2.5-0.7-3.9c-0.1-0.9-0.3-1.9-0.4-2.8l-1.2-7c2.3-3.8,4-7.9,4.8-12.1
				C356.7,28.8,350.5,16.2,338.1,10.7"/>
			<path class="st0" d="M309.5,44.2c-1.4,3.2-2.6,7-3.1,11.1c14.9-0.4,25-12.2,20.8-19.5C324.5,31.3,313.8,34.3,309.5,44.2"/>
			<path class="st0" d="M348.1,95h1c0.3,0,0.5-0.1,0.7-0.2c0.2-0.1,0.3-0.3,0.3-0.6c0-0.3-0.1-0.5-0.3-0.7c-0.2-0.1-0.5-0.2-0.9-0.2
				h-0.9V95z M348.1,95.5v1.9h-0.5v-4.6h1.4c0.5,0,0.9,0.1,1.2,0.3c0.3,0.2,0.4,0.6,0.4,1c0,0.2-0.1,0.5-0.2,0.6
				c-0.1,0.2-0.3,0.3-0.6,0.4c0.2,0.1,0.4,0.2,0.5,0.4c0.1,0.2,0.2,0.4,0.2,0.7v0.3c0,0.1,0,0.3,0,0.4c0,0.1,0,0.2,0.1,0.3v0.1h-0.6
				c0-0.1-0.1-0.2-0.1-0.3c0-0.1,0-0.3,0-0.4v-0.3c0-0.3-0.1-0.5-0.2-0.7c-0.1-0.1-0.4-0.2-0.7-0.2H348.1z M345.6,95.2
				c0,1,0.3,1.9,1,2.6c0.7,0.7,1.5,1.1,2.4,1.1s1.7-0.3,2.4-1.1c0.7-0.7,1-1.6,1-2.6c0-1-0.3-1.9-1-2.6c-0.7-0.7-1.5-1-2.4-1
				s-1.7,0.3-2.4,1C345.9,93.3,345.6,94.2,345.6,95.2 M345.1,95.2c0-1.1,0.4-2.1,1.1-2.9c0.8-0.8,1.7-1.2,2.7-1.2s2,0.4,2.7,1.2
				c0.8,0.8,1.1,1.8,1.1,2.9c0,1.1-0.4,2.1-1.1,2.9c-0.8,0.8-1.7,1.2-2.7,1.2s-2-0.4-2.7-1.2C345.5,97.3,345.1,96.3,345.1,95.2"/>
		</g>
	</g>
</g>
</svg>
