<svg width="122" height="42" fill="none" xmlns="http://www.w3.org/2000/svg"><path d="M107.234 14.869a2.59 2.59 0 0 1 2.604-2.597 2.59 2.59 0 0 1 2.605 2.597 2.59 2.59 0 0 1-2.605 2.597 2.59 2.59 0 0 1-2.604-2.597ZM72.07 26.124h-9.116c.434 2.309 2.026 4.04 4.051 4.04 1.737 0 2.75-.866 3.329-1.443.579-.433 1.302-.577 2.026-.144.723.577.868 1.587.29 2.309-1.303 1.443-3.04 2.308-5.5 2.308-3.907 0-7.09-3.607-7.09-7.936s3.183-7.936 7.09-7.936c3.328 0 6.078 2.597 6.946 5.916 0 .289.145.577.145 1.154-.145.722-.868 1.732-2.17 1.732Zm-9.116-2.597h7.959c-.58-1.876-2.171-3.32-3.907-3.32-1.882 0-3.329 1.3-4.052 3.32ZM59.915 18.765c0-.721-.579-1.299-1.302-1.443-2.026-.289-4.052.433-5.355 2.02v-.144c0-.866-.723-1.443-1.447-1.443-.868 0-1.447.721-1.447 1.443v12.265c0 .721.58 1.443 1.447 1.587.869 0 1.592-.577 1.592-1.443v-6.349c0-2.741 2.17-5.05 5.065-4.761h.29c.578-.29 1.157-1.01 1.157-1.732ZM111.43 20.352c-.144-.866-.868-1.443-1.592-1.298-.723 0-1.302.577-1.302 1.298V31.32c.145.866.868 1.443 1.592 1.298.723 0 1.302-.577 1.302-1.298V20.352ZM89.145 31.174c0 .866-.723 1.443-1.447 1.443-.723 0-1.302-.577-1.447-1.154-1.013 1.01-2.315 1.587-3.907 1.587-3.907 0-7.09-3.607-7.09-7.936s3.183-7.936 7.09-7.936c1.592 0 2.75.433 3.907 1.443v-6.638c.145-.866.869-1.443 1.592-1.299.724 0 1.302.578 1.302 1.3v19.19Zm-2.749-6.06c0-2.742-1.881-5.05-4.196-5.05-2.316 0-4.052 2.308-4.052 5.05s1.881 4.906 4.196 4.906c2.17.144 4.052-2.164 4.052-4.906ZM104.774 31.174c0 .866-.724 1.443-1.447 1.443-.724 0-1.303-.577-1.447-1.154-1.013 1.01-2.316 1.587-3.907 1.587-3.907 0-7.091-3.607-7.091-7.936s3.183-7.936 7.09-7.936c1.592 0 2.75.433 3.908 1.443v-6.638c.144-.866.868-1.443 1.591-1.299.724 0 1.303.578 1.303 1.3v19.19Zm-2.75-6.06c0-2.742-1.881-5.05-4.196-5.05-2.315 0-4.197 2.164-4.197 5.05 0 2.742 1.882 4.906 4.197 4.906 2.46.144 4.196-2.164 4.196-4.906ZM118.955 31.319V20.208h1.302c.724 0 1.303-.577 1.303-1.299 0-.721-.579-1.443-1.303-1.443H118.81v-2.164c0-.722-.579-1.443-1.447-1.587-.868 0-1.592.577-1.592 1.443v2.164h-1.302c-.723 0-1.302.577-1.302 1.299 0 .721.579 1.443 1.302 1.443h1.302v11.11c0 .866.724 1.443 1.447 1.443 1.158.145 1.737-.577 1.737-1.298Z" fill="#000"/><path fill-rule="evenodd" clip-rule="evenodd" d="M20.41.007C8.834.295-.283 9.819.007 21.362c.29 11.111 9.26 20.057 20.258 20.49 11.577.289 21.272-8.802 21.562-20.345v-1.155C41.537 8.81 31.987-.282 20.41.007ZM33.144 24.97v-.866c1.013-.433 1.882-1.443 1.447-2.742 0-.865-.289-1.587-.868-2.164-1.157-1.154-3.183-1.154-4.341 0-2.026-1.443-4.92-2.453-8.104-2.597l1.448-6.494 4.485 1.01c0 .866.434 1.588 1.158 1.876 1.013.577 2.315 0 2.894-1.01.579-1.01 0-2.309-1.013-2.886s-2.315 0-2.894 1.01l-5.065-1.154c-.144 0-.289 0-.434.144 0 0-.144.145-.144.289L20.12 16.6c-2.894 0-5.788 1.01-8.248 2.597-.58-.577-1.303-.866-2.171-.866-1.158-.144-2.315.577-2.75 1.732-.578 1.587 0 3.319 1.592 4.04v.866c0 4.762 5.5 8.513 12.3 8.513 6.801 0 12.3-3.751 12.3-8.513Zm-14.76-1.443c0 1.154-1.013 2.164-2.17 2.164-1.303 0-2.17-1.01-2.17-2.164 0-1.155 1.012-2.165 2.17-2.165 1.157 0 2.17 1.01 2.17 2.165Zm7.09 4.906c.146-.289.435-.289.724 0 .064.126.1.253.132.367.041.147.077.273.158.354-1.592 1.443-4.341 1.588-5.21 1.588-.868 0-3.762-.145-5.209-1.588-.29-.144-.29-.433 0-.721.145-.289.434-.289.724 0 .868 1.01 2.894 1.299 4.34 1.299 1.448 0 3.474-.29 4.342-1.3Zm.29-7.07c1.158 0 2.17 1.01 2.17 2.164 0 1.154-1.012 2.164-2.17 2.164-1.157 0-2.17-1.01-2.17-2.164 0-1.155 1.013-2.165 2.17-2.165Z" fill="#FF4500"/></svg>