<?xml version="1.0" encoding="utf-8"?>
<!-- Generator: Adobe Illustrator 21.1.0, SVG Export Plug-In . SVG Version: 6.00 Build 0)  -->
<svg version="1.1" id="Layer_1" xmlns="http://www.w3.org/2000/svg" xmlns:xlink="http://www.w3.org/1999/xlink" x="0px" y="0px"
	 viewBox="0 0 627 177.8" style="enable-background:new 0 0 627 177.8;" xml:space="preserve">
<style type="text/css">
	.st0{fill:#FFFFFF;}
	.st1{fill:#242424;}
	.st2{fill:#CA0000;}
</style>
<g>
	<path class="st0" d="M-6.4-30.9"/>
	<path class="st1" d="M195.7,153.8v-4.6h2c0.4,0,0.7,0,0.9,0.1c0.2,0.1,0.4,0.2,0.5,0.4c0.1,0.2,0.2,0.4,0.2,0.7
		c0,0.3-0.1,0.6-0.3,0.8c-0.2,0.2-0.5,0.4-1,0.4c0.2,0.1,0.3,0.2,0.4,0.2c0.2,0.2,0.3,0.4,0.5,0.6l0.8,1.2h-0.8l-0.6-1
		c-0.2-0.3-0.3-0.5-0.4-0.6c-0.1-0.1-0.2-0.2-0.3-0.3c-0.1-0.1-0.2-0.1-0.3-0.1c-0.1,0-0.2,0-0.3,0h-0.7v2H195.7z M196.3,151.2h1.3
		c0.3,0,0.5,0,0.6-0.1c0.2-0.1,0.3-0.1,0.4-0.3c0.1-0.1,0.1-0.3,0.1-0.4c0-0.2-0.1-0.4-0.2-0.5c-0.2-0.1-0.4-0.2-0.7-0.2h-1.4V151.2
		z M197.7,146.7c-2.6,0-4.8,2.2-4.8,4.8c0,2.6,2.1,4.8,4.8,4.8c2.6,0,4.7-2.1,4.7-4.8C202.4,148.9,200.3,146.7,197.7,146.7
		L197.7,146.7z M197.7,147.7c2.1,0,3.8,1.7,3.8,3.8c0,2.1-1.7,3.8-3.8,3.8c-2.1,0-3.8-1.7-3.8-3.8
		C193.9,149.4,195.6,147.7,197.7,147.7L197.7,147.7z M126,177.7c0-0.4,6.3-9.7,13.6-20.1c2.6-3.7,3.5-5.8,3.8-8.8
		c0.2-2.1,1.1-6.5,2-9.7c0.9-3.2,1.5-6,1.3-6.2c-0.2-0.2-2,0.1-3.8,0.8c-4.1,1.5-6.8,1.5-11.5,0.3c-3-0.8-4.1-0.7-7.1,0.4
		c-3.4,1.3-3.8,1.3-6.9,0c-3.1-1.3-3.8-1.3-11.4,0.1c-14.1,2.5-18.6,1.1-28-8.5c-5.8-5.9-8-7.3-9.1-5.5c-0.3,0.4-1.3,0.8-2.4,0.8
		c-1.4,0-2.6-1.1-4.4-4c-1.4-2.2-3.6-4.7-4.8-5.6c-6.7-4.8-14.4-1.3-14.4,6.6c0,3.2,6.5,13,9.8,14.7c4.3,2.2,1.9,5.6-3.6,4.9
		c-2.8-0.4-4.1-1.2-7.8-5.3c-4-4.4-4.8-4.9-7.6-4.8c-1.7,0-4.6,0.7-6.4,1.5c-4.6,2.1-10.7,3.3-17,3.3H4.6l-1.2-4.6
		C0.5,117.4,0,113.3,0,100.4c0-9.8,0.4-14.9,1.5-20C7.4,53.1,22.6,30.9,45.5,16C56.8,8.7,67.2,4.4,80.4,1.6c9.4-2,30.6-2.1,39.8-0.1
		c31.3,6.7,57.1,26.5,70.6,53.8c7.5,15.3,10.4,27.8,10.4,45.2c0,17-2.8,29.7-10,44.4c-5.2,10.7-4.5,10.2-12,9.2
		c-6.8-0.9-15.8-0.1-21.6,1.8c-2.6,0.8-3.3,1.5-3.6,3.4c-0.3,2-1.1,2.6-5.2,4.2c-3.4,1.3-6.2,3.3-10,7c-2.9,2.8-5.9,5.5-6.8,5.9
		C129.9,177.2,126,178.2,126,177.7L126,177.7z M145.2,125.7c17.8-2.7,30.2-10,35.3-20.8c4.4-9.3,2.5-17.8-5.4-23.8
		c-3.8-2.9-13.4-7-16.2-7c-0.8,0-2.1,1.5-3.2,3.4c-1.6,3-6,7-7.6,7c-0.3,0,0.5-2,1.9-4.5c1.4-2.7,2.4-5.7,2.4-7.4
		c0-7.7-8.3-30.4-15.1-40.9c-3.1-4.8-4.7-6.4-8.1-8.3c-6-3.3-13.2-3.7-22.6-1.3c-5.6,1.4-8.2,1.7-13.6,1.3
		c-21.8-1.6-20.9-1.6-24.5,0.3c-4.6,2.3-6,5.1-8.9,16.8c-3.1,12.7-3.1,16.7-0.4,20c2.8,3.4,12,7.6,21.1,9.7
		c10.9,2.5,18.4,4.7,20.4,6.1c1,0.6,2.2,2.3,2.8,3.7c2.3,6.1,3.5,8.6,4.9,9.9c0.8,0.7,1.5,1.8,1.5,2.3c0,5.8-41.3-7.1-52-16.2
		c-4.6-3.9-5.9-6.8-5.4-11.7l0.5-3.9l-10.6,0.3c-8.9,0.3-11.2,0.6-14.4,2.2c-11,5.3-10.5,14.2,1.5,25.7c17.6,16.7,53.6,33,82.2,37.2
		C121.8,127,136,127.1,145.2,125.7L145.2,125.7L145.2,125.7z M70.4,48.4c-2.9-2.9-3.9-4.6-3.9-6.3c0-4,2.9-6.1,5.2-3.8
		c3.5,3.4,4.8,3.8,12.7,3.2c8.3-0.5,13,0.4,13.9,2.7c0.8,2.1-0.6,2.7-7.7,3.5c-7.6,0.8-11.3,1.9-12.7,3.5
		C76.3,53.2,74.5,52.6,70.4,48.4L70.4,48.4z M115.4,35.8c-3.7-0.3-3.9-1.3-0.5-2.2c3.1-0.9,4.8-3.2,3.1-4.3
		c-1.8-1.1-7.9-1.8-10.6-1.2c-1.6,0.4-2.3,0.3-1.9-0.3c0.8-1.4,9.3-2.8,14.1-2.3c5,0.5,9.1,2.2,9.9,4.3
		C130.8,33.3,123.4,36.4,115.4,35.8L115.4,35.8z M112.6,153.2c-1.4-0.9-3.5-1.6-4.6-1.6c-2.3,0-3.4-1.9-1.9-3.6c1.2-1.5,5.4-1.5,8,0
		c2.8,1.6,5.1,1.5,6.8-0.4c1.9-2.2,2.8-2,2.8,0.5c0,2.6-4,6.7-6.5,6.7C116,154.8,114,154.1,112.6,153.2L112.6,153.2L112.6,153.2z
		 M112.6,153.2"/>
	<path class="st1" d="M620.2,155.1v-4.6h2c0.4,0,0.7,0,0.9,0.1c0.2,0.1,0.4,0.2,0.5,0.4c0.1,0.2,0.2,0.4,0.2,0.7
		c0,0.3-0.1,0.6-0.3,0.8c-0.2,0.2-0.5,0.4-1,0.4c0.2,0.1,0.3,0.2,0.4,0.2c0.2,0.2,0.3,0.4,0.5,0.6l0.8,1.2h-0.8l-0.6-1
		c-0.2-0.3-0.3-0.5-0.4-0.6c-0.1-0.1-0.2-0.2-0.3-0.3c-0.1-0.1-0.2-0.1-0.3-0.1c-0.1,0-0.2,0-0.3,0h-0.7v2H620.2L620.2,155.1z
		 M620.8,152.6h1.3c0.3,0,0.5,0,0.7-0.1c0.2-0.1,0.3-0.1,0.4-0.3c0.1-0.1,0.1-0.3,0.1-0.4c0-0.2-0.1-0.4-0.2-0.5
		c-0.2-0.1-0.4-0.2-0.7-0.2h-1.4V152.6L620.8,152.6z M622.2,148.1c-2.6,0-4.8,2.2-4.8,4.8s2.1,4.8,4.8,4.8c2.6,0,4.7-2.1,4.7-4.8
		S624.8,148.1,622.2,148.1L622.2,148.1z M622.2,149.1c2.1,0,3.8,1.7,3.8,3.8s-1.7,3.8-3.8,3.8c-2.1,0-3.8-1.7-3.8-3.8
		S620.1,149.1,622.2,149.1L622.2,149.1z M401.6,156.4c5.9-1.2,9.8-3.4,13.9-7.6l3.5-3.7l-0.1,10.8l16.2,0.2l-0.4-96.6L417.3,55
		l-0.6,37.7l-3.2-2.8c-1.9-1.6-5.1-3.3-7.9-4.1c-15.8-4.4-31,4.1-37,20.7c-2.4,6.6-2.6,21.9-0.4,28.4c3.8,11.2,11.9,19.2,21.9,21.5
		C394.3,157.5,396.8,157.5,401.6,156.4L401.6,156.4L401.6,156.4z M396.3,142c-4.1-1.4-6.4-3.5-8.8-8c-2-3.6-2.4-5.4-2.6-11.6
		c-0.4-8.6,0.9-13.5,4.7-18.1c7.3-8.9,20.4-7.5,25.6,2.7c2.2,4.4,2.3,21.9,0.1,26.8C411.9,140.9,403.6,144.6,396.3,142L396.3,142
		L396.3,142z M541.6,156.4c5.6-1.2,9.6-3.3,13.4-7.1l3.1-3.1l0.5,4.8l0.5,4.8h2.9h2.9l-0.2-23.8c-0.2-24.1-0.8-30.3-3.4-35.4
		c-1.9-3.6-6.1-7.6-9.6-9.1c-7-2.9-17.9-2.3-26.2,1.5c-4.4,2-4.6,2.3-3.4,5.5l0.8,2l4.6-2.1c6.1-2.8,14.8-3.4,19.8-1.5
		c6.5,2.5,10,8.3,10,16.7l0,3.8h-5.1c-11.5,0-24.5,4.2-29.9,9.6c-4.4,4.4-6.1,8.5-6.1,14.8c-0.1,10.2,5.3,16.7,15.9,19.1
		C535.1,157.4,537.3,157.4,541.6,156.4L541.6,156.4L541.6,156.4z M530.3,149.5c-4.4-2.4-5.9-5.1-6.3-11c-0.4-6.3,0.6-9,4.7-12.7
		c3.9-3.6,11.4-5.9,21.2-6.6l7.6-0.5v9.2c0,8.9-0.1,9.3-2.6,13.5c-3.7,6.2-8.4,8.9-16,9.4C534.2,151,532.5,150.7,530.3,149.5
		L530.3,149.5z M605.5,156.5c2.3-0.4,4.4-0.9,4.5-1.1c0.1-0.1,0-1.4-0.2-2.8l-0.5-2.5l-5,0.5c-6.1,0.6-9.3-0.8-11.2-4.8
		c-1.1-2.4-1.3-6.3-1.3-28V92.5h9.6h9.6v-2.8v-2.8h-9.6h-9.6v-7.2c0-4-0.2-7.2-0.5-7.2c-0.3,0-1.9,0.4-3.6,0.9l-3.1,0.9v6.2v6.2
		l-5.8,0.2l-5.8,0.2l-0.2,2.6l-0.3,2.6h6h6l0.2,26.6c0.2,25.4,0.3,26.7,2,29.8c2.3,4.2,4.2,5.9,8.4,7.2
		C599.5,157.5,600.3,157.5,605.5,156.5L605.5,156.5z M350.3,154.3l5.3-1.7l-1.2-5.8c-0.7-3.2-1.3-5.9-1.4-6.1
		c-0.1-0.2-2.5,0.3-5.3,1c-3,0.8-8.4,1.3-13.1,1.3c-7.1,0-8.5-0.2-12.3-2.2c-5-2.6-8.7-7.2-9.3-11.9l-0.4-3.1h23.1h23.1l-0.1-9.2
		c-0.1-7.5-0.4-10-1.8-13.5c-5.3-13-15.1-19.1-29.2-18.3c-14,0.8-24.1,8.2-29.2,21.3c-4.9,12.3-3,29.4,4.2,38.5
		c3.6,4.5,9.5,8.6,15.3,10.5C324.6,157.2,342.6,156.8,350.3,154.3L350.3,154.3L350.3,154.3z M312.7,111.9c0-2.6,3.7-9.4,6.3-11.6
		c7.4-6.3,17.4-4.3,21.8,4.2c0.9,1.7,1.6,4.3,1.6,5.9v2.8h-14.8C313.9,113.3,312.7,113.2,312.7,111.9L312.7,111.9z M270.3,133.7
		c0.4-23.5,0.5-24,5.3-28.6c3-2.9,5.9-3.9,11.1-3.9h4.3v-8.5v-8.5l-4.8,0.4c-7.5,0.7-14.4,5.5-17.3,12.2l-1,2.4l0-2.9
		c0-1.6-0.3-4.6-0.5-6.6l-0.5-3.7h-7.4h-7.4l0,70.3l17.8,0L270.3,133.7L270.3,133.7L270.3,133.7z M457.5,130.9
		c0.4-27.1,0.4-26.8,6.3-32.7c4-4,8.4-6,14.1-6.4c6.8-0.4,12.5,2.6,15.7,8.2c3.2,5.7,3.9,11.9,3.9,35.4l0,20.2h6.4v-24.3
		c0-22,0-24.9-1.6-29.4c-9-25.2-35.2-16.9-44.8-4.2L457,65.3l-6.8-1.7v92.2l6.9,0L457.5,130.9L457.5,130.9L457.5,130.9z
		 M457.5,130.9"/>
	<path class="st2" d="M117.7,20.5c-3.4,0-7,0.5-11.2,1.5c-5.6,1.4-8.3,1.7-13.6,1.3c-21.8-1.6-20.9-1.6-24.5,0.2
		c-4.6,2.3-6,5.1-8.9,16.8c-3.1,12.7-3.1,16.6-0.4,19.9c2.8,3.4,12,7.6,21.1,9.7c10.9,2.5,18.4,4.7,20.4,6.1c1,0.7,2.2,2.3,2.8,3.8
		c2.3,6.1,3.5,8.6,4.9,9.9c0.8,0.7,1.5,1.8,1.5,2.3c0,5.8-41.3-7.1-52-16.2c-4.6-3.9-5.9-6.9-5.4-11.7l0.5-4l-10.6,0.4
		c-8.9,0.3-11.2,0.6-14.4,2.2c-11,5.3-10.5,14.2,1.5,25.7c17.6,16.7,53.6,33,82.2,37.1c9.8,1.4,24.1,1.5,33.3,0.1
		c17.8-2.7,30.1-10,35.3-20.8c4.4-9.3,2.5-17.8-5.4-23.8c-3.8-2.9-13.4-7-16.2-7c-0.8,0-2.1,1.5-3.2,3.4c-1.6,3-6,7-7.6,7
		c-0.3,0,0.5-2,1.8-4.5c1.4-2.7,2.4-5.7,2.4-7.4c0-7.7-8.4-30.4-15.1-40.9c-3.1-4.8-4.6-6.4-8.1-8.3C125.8,21.5,122,20.5,117.7,20.5
		L117.7,20.5z M117.7,25.4c0.7,0,1.4,0,2,0.1c5,0.5,9.1,2.2,9.9,4.3c1.3,3.5-6.1,6.7-14.1,6.1c-3.7-0.3-3.9-1.3-0.5-2.2
		c3.1-0.9,4.8-3.2,3.1-4.2c-1.8-1.1-7.9-1.8-10.6-1.2c-1.6,0.4-2.3,0.2-1.9-0.3C106.2,26.6,112.8,25.4,117.7,25.4L117.7,25.4z
		 M69.5,37.3c0.7-0.1,1.5,0.2,2.2,0.9c3.5,3.4,4.8,3.8,12.7,3.2c8.3-0.5,13.1,0.4,13.9,2.7c0.8,2.1-0.6,2.7-7.7,3.5
		c-7.6,0.8-11.3,1.9-12.7,3.6c-1.6,2-3.4,1.3-7.5-2.9c-2.9-2.9-3.9-4.6-3.9-6.4C66.5,39.3,67.8,37.5,69.5,37.3L69.5,37.3z
		 M69.5,37.3"/>
</g>
</svg>
