<svg version="1.1" id="Layer_1" xmlns="http://www.w3.org/2000/svg" x="0" y="0" viewBox="0 0 627 177.8" style="enable-background:new 0 0 627 177.8" xml:space="preserve"><style>.st1{fill:#242424}</style><path class="st1" d="M195.7 153.8v-4.6h2c.4 0 .7 0 .9.1.2.1.4.2.5.4.1.2.2.4.2.7 0 .3-.1.6-.3.8-.2.2-.5.4-1 .4.2.1.3.2.4.2.2.2.3.4.5.6l.8 1.2h-.8l-.6-1c-.2-.3-.3-.5-.4-.6l-.3-.3c-.1-.1-.2-.1-.3-.1h-1v2h-.6zm.6-2.6h1.3c.3 0 .5 0 .6-.1.2-.1.3-.1.4-.3.1-.1.1-.3.1-.4 0-.2-.1-.4-.2-.5-.2-.1-.4-.2-.7-.2h-1.4v1.5zm1.4-4.5c-2.6 0-4.8 2.2-4.8 4.8 0 2.6 2.1 4.8 4.8 4.8 2.6 0 4.7-2.1 4.7-4.8 0-2.6-2.1-4.8-4.7-4.8zm0 1c2.1 0 3.8 1.7 3.8 3.8 0 2.1-1.7 3.8-3.8 3.8-2.1 0-3.8-1.7-3.8-3.8 0-2.1 1.7-3.8 3.8-3.8zm-71.7 30c0-.4 6.3-9.7 13.6-20.1 2.6-3.7 3.5-5.8 3.8-8.8.2-2.1 1.1-6.5 2-9.7.9-3.2 1.5-6 1.3-6.2-.2-.2-2 .1-3.8.8-4.1 1.5-6.8 1.5-11.5.3-3-.8-4.1-.7-7.1.4-3.4 1.3-3.8 1.3-6.9 0-3.1-1.3-3.8-1.3-11.4.1-14.1 2.5-18.6 1.1-28-8.5-5.8-5.9-8-7.3-9.1-5.5-.3.4-1.3.8-2.4.8-1.4 0-2.6-1.1-4.4-4-1.4-2.2-3.6-4.7-4.8-5.6-6.7-4.8-14.4-1.3-14.4 6.6 0 3.2 6.5 13 9.8 14.7 4.3 2.2 1.9 5.6-3.6 4.9-2.8-.4-4.1-1.2-7.8-5.3-4-4.4-4.8-4.9-7.6-4.8-1.7 0-4.6.7-6.4 1.5-4.6 2.1-10.7 3.3-17 3.3H4.6L3.4 128C.5 117.4 0 113.3 0 100.4c0-9.8.4-14.9 1.5-20 5.9-27.3 21.1-49.5 44-64.4C56.8 8.7 67.2 4.4 80.4 1.6c9.4-2 30.6-2.1 39.8-.1 31.3 6.7 57.1 26.5 70.6 53.8 7.5 15.3 10.4 27.8 10.4 45.2 0 17-2.8 29.7-10 44.4-5.2 10.7-4.5 10.2-12 9.2-6.8-.9-15.8-.1-21.6 1.8-2.6.8-3.3 1.5-3.6 3.4-.3 2-1.1 2.6-5.2 4.2-3.4 1.3-6.2 3.3-10 7-2.9 2.8-5.9 5.5-6.8 5.9-2.1.8-6 1.8-6 1.3zm19.2-52c17.8-2.7 30.2-10 35.3-20.8 4.4-9.3 2.5-17.8-5.4-23.8-3.8-2.9-13.4-7-16.2-7-.8 0-2.1 1.5-3.2 3.4-1.6 3-6 7-7.6 7-.3 0 .5-2 1.9-4.5 1.4-2.7 2.4-5.7 2.4-7.4 0-7.7-8.3-30.4-15.1-40.9-3.1-4.8-4.7-6.4-8.1-8.3-6-3.3-13.2-3.7-22.6-1.3-5.6 1.4-8.2 1.7-13.6 1.3-21.8-1.6-20.9-1.6-24.5.3-4.6 2.3-6 5.1-8.9 16.8-3.1 12.7-3.1 16.7-.4 20 2.8 3.4 12 7.6 21.1 9.7 10.9 2.5 18.4 4.7 20.4 6.1 1 .6 2.2 2.3 2.8 3.7 2.3 6.1 3.5 8.6 4.9 9.9.8.7 1.5 1.8 1.5 2.3 0 5.8-41.3-7.1-52-16.2-4.6-3.9-5.9-6.8-5.4-11.7l.5-3.9-10.6.3c-8.9.3-11.2.6-14.4 2.2-11 5.3-10.5 14.2 1.5 25.7 17.6 16.7 53.6 33 82.2 37.2 10.1 1.2 24.3 1.3 33.5-.1zM70.4 48.4c-2.9-2.9-3.9-4.6-3.9-6.3 0-4 2.9-6.1 5.2-3.8 3.5 3.4 4.8 3.8 12.7 3.2 8.3-.5 13 .4 13.9 2.7.8 2.1-.6 2.7-7.7 3.5-7.6.8-11.3 1.9-12.7 3.5-1.6 2-3.4 1.4-7.5-2.8zm45-12.6c-3.7-.3-3.9-1.3-.5-2.2 3.1-.9 4.8-3.2 3.1-4.3-1.8-1.1-7.9-1.8-10.6-1.2-1.6.4-2.3.3-1.9-.3.8-1.4 9.3-2.8 14.1-2.3 5 .5 9.1 2.2 9.9 4.3 1.3 3.5-6.1 6.6-14.1 6zm-2.8 117.4c-1.4-.9-3.5-1.6-4.6-1.6-2.3 0-3.4-1.9-1.9-3.6 1.2-1.5 5.4-1.5 8 0 2.8 1.6 5.1 1.5 6.8-.4 1.9-2.2 2.8-2 2.8.5 0 2.6-4 6.7-6.5 6.7-1.2 0-3.2-.7-4.6-1.6zM620.2 155.1v-4.6h2c.4 0 .7 0 .9.1.2.1.4.2.5.4.1.2.2.4.2.7 0 .3-.1.6-.3.8-.2.2-.5.4-1 .4.2.1.3.2.4.2.2.2.3.4.5.6l.8 1.2h-.8l-.6-1c-.2-.3-.3-.5-.4-.6l-.3-.3c-.1-.1-.2-.1-.3-.1h-1v2h-.6v.2zm.6-2.5h1.3c.3 0 .5 0 .7-.1.2-.1.3-.1.4-.3.1-.1.1-.3.1-.4 0-.2-.1-.4-.2-.5-.2-.1-.4-.2-.7-.2H621v1.5h-.2zm1.4-4.5c-2.6 0-4.8 2.2-4.8 4.8s2.1 4.8 4.8 4.8c2.6 0 4.7-2.1 4.7-4.8s-2.1-4.8-4.7-4.8zm0 1c2.1 0 3.8 1.7 3.8 3.8s-1.7 3.8-3.8 3.8c-2.1 0-3.8-1.7-3.8-3.8s1.7-3.8 3.8-3.8zm-220.6 7.3c5.9-1.2 9.8-3.4 13.9-7.6l3.5-3.7-.1 10.8 16.2.2-.4-96.6-17.4-4.5-.6 37.7-3.2-2.8c-1.9-1.6-5.1-3.3-7.9-4.1-15.8-4.4-31 4.1-37 20.7-2.4 6.6-2.6 21.9-.4 28.4 3.8 11.2 11.9 19.2 21.9 21.5 4.2 1.1 6.7 1.1 11.5 0zm-5.3-14.4c-4.1-1.4-6.4-3.5-8.8-8-2-3.6-2.4-5.4-2.6-11.6-.4-8.6.9-13.5 4.7-18.1 7.3-8.9 20.4-7.5 25.6 2.7 2.2 4.4 2.3 21.9.1 26.8-3.4 7.1-11.7 10.8-19 8.2zm145.3 14.4c5.6-1.2 9.6-3.3 13.4-7.1l3.1-3.1.5 4.8.5 4.8h5.8l-.2-23.8c-.2-24.1-.8-30.3-3.4-35.4-1.9-3.6-6.1-7.6-9.6-9.1-7-2.9-17.9-2.3-26.2 1.5-4.4 2-4.6 2.3-3.4 5.5l.8 2 4.6-2.1c6.1-2.8 14.8-3.4 19.8-1.5 6.5 2.5 10 8.3 10 16.7v3.8h-5.1c-11.5 0-24.5 4.2-29.9 9.6-4.4 4.4-6.1 8.5-6.1 14.8-.1 10.2 5.3 16.7 15.9 19.1 3 .5 5.2.5 9.5-.5zm-11.3-6.9c-4.4-2.4-5.9-5.1-6.3-11-.4-6.3.6-9 4.7-12.7 3.9-3.6 11.4-5.9 21.2-6.6l7.6-.5v9.2c0 8.9-.1 9.3-2.6 13.5-3.7 6.2-8.4 8.9-16 9.4-4.7.2-6.4-.1-8.6-1.3zm75.2 7c2.3-.4 4.4-.9 4.5-1.1.1-.1 0-1.4-.2-2.8l-.5-2.5-5 .5c-6.1.6-9.3-.8-11.2-4.8-1.1-2.4-1.3-6.3-1.3-28V92.5H611v-5.6h-19.2v-7.2c0-4-.2-7.2-.5-7.2s-1.9.4-3.6.9l-3.1.9v12.4l-5.8.2-5.8.2-.2 2.6-.3 2.6h12l.2 26.6c.2 25.4.3 26.7 2 29.8 2.3 4.2 4.2 5.9 8.4 7.2 4.4 1.6 5.2 1.6 10.4.6zm-255.2-2.2 5.3-1.7-1.2-5.8c-.7-3.2-1.3-5.9-1.4-6.1-.1-.2-2.5.3-5.3 1-3 .8-8.4 1.3-13.1 1.3-7.1 0-8.5-.2-12.3-2.2-5-2.6-8.7-7.2-9.3-11.9l-.4-3.1h46.2l-.1-9.2c-.1-7.5-.4-10-1.8-13.5-5.3-13-15.1-19.1-29.2-18.3-14 .8-24.1 8.2-29.2 21.3-4.9 12.3-3 29.4 4.2 38.5 3.6 4.5 9.5 8.6 15.3 10.5 6.6 2.1 24.6 1.7 32.3-.8zm-37.6-42.4c0-2.6 3.7-9.4 6.3-11.6 7.4-6.3 17.4-4.3 21.8 4.2.9 1.7 1.6 4.3 1.6 5.9v2.8h-14.8c-13.7.1-14.9 0-14.9-1.3zm-42.4 21.8c.4-23.5.5-24 5.3-28.6 3-2.9 5.9-3.9 11.1-3.9h4.3v-17l-4.8.4c-7.5.7-14.4 5.5-17.3 12.2l-1 2.4v-2.9c0-1.6-.3-4.6-.5-6.6l-.5-3.7h-14.8v70.3h17.8l.4-22.6zm187.2-2.8c.4-27.1.4-26.8 6.3-32.7 4-4 8.4-6 14.1-6.4 6.8-.4 12.5 2.6 15.7 8.2 3.2 5.7 3.9 11.9 3.9 35.4v20.2h6.4v-24.3c0-22 0-24.9-1.6-29.4-9-25.2-35.2-16.9-44.8-4.2l-.5-32.4-6.8-1.7v92.2h6.9l.4-24.9zm0 0"/><path d="M117.7 20.5c-3.4 0-7 .5-11.2 1.5-5.6 1.4-8.3 1.7-13.6 1.3-21.8-1.6-20.9-1.6-24.5.2-4.6 2.3-6 5.1-8.9 16.8-3.1 12.7-3.1 16.6-.4 19.9 2.8 3.4 12 7.6 21.1 9.7 10.9 2.5 18.4 4.7 20.4 6.1 1 .7 2.2 2.3 2.8 3.8 2.3 6.1 3.5 8.6 4.9 9.9.8.7 1.5 1.8 1.5 2.3 0 5.8-41.3-7.1-52-16.2-4.6-3.9-5.9-6.9-5.4-11.7l.5-4-10.6.4c-8.9.3-11.2.6-14.4 2.2-11 5.3-10.5 14.2 1.5 25.7 17.6 16.7 53.6 33 82.2 37.1 9.8 1.4 24.1 1.5 33.3.1 17.8-2.7 30.1-10 35.3-20.8 4.4-9.3 2.5-17.8-5.4-23.8-3.8-2.9-13.4-7-16.2-7-.8 0-2.1 1.5-3.2 3.4-1.6 3-6 7-7.6 7-.3 0 .5-2 1.8-4.5 1.4-2.7 2.4-5.7 2.4-7.4 0-7.7-8.4-30.4-15.1-40.9-3.1-4.8-4.6-6.4-8.1-8.3-3-1.8-6.8-2.8-11.1-2.8zm0 4.9c.7 0 1.4 0 2 .1 5 .5 9.1 2.2 9.9 4.3 1.3 3.5-6.1 6.7-14.1 6.1-3.7-.3-3.9-1.3-.5-2.2 3.1-.9 4.8-3.2 3.1-4.2-1.8-1.1-7.9-1.8-10.6-1.2-1.6.4-2.3.2-1.9-.3.6-1.4 7.2-2.6 12.1-2.6zM69.5 37.3c.7-.1 1.5.2 2.2.9 3.5 3.4 4.8 3.8 12.7 3.2 8.3-.5 13.1.4 13.9 2.7.8 2.1-.6 2.7-7.7 3.5-7.6.8-11.3 1.9-12.7 3.6-1.6 2-3.4 1.3-7.5-2.9-2.9-2.9-3.9-4.6-3.9-6.4 0-2.6 1.3-4.4 3-4.6zm0 0" style="fill:#ca0000"/></svg>