<svg xmlns="http://www.w3.org/2000/svg" width="2500" height="2500" viewBox="0 0 192.756 192.756"><g fill-rule="evenodd" clip-rule="evenodd"><path fill="#fff" d="M0 0h192.756v192.756H0V0z"/><path d="M13.188 93.56h2.455c2.104 10.405 5.729 15.667 9.704 15.667 2.689 0 4.676-2.338 4.676-6.08 0-4.793-2.922-8.535-7.365-14.029-2.923-3.858-5.612-6.664-7.131-9.587-1.637-3.156-2.455-6.547-2.455-9.937 0-7.6 4.092-13.328 9.002-13.328 2.806 0 4.793 2.338 6.079 2.338.936 0 1.753-.701 2.338-2.104h1.988v17.654h-2.456C28.27 64.1 25.464 59.072 21.839 59.072c-2.572 0-4.208 2.222-4.208 5.261 0 4.326 3.04 7.95 7.716 13.562 1.287 1.52 3.625 3.975 6.08 8.184A23.952 23.952 0 0 1 34.7 98.238c0 8.184-4.092 13.795-9.353 13.795-3.507 0-5.729-2.572-7.249-2.572-1.169 0-1.753.936-2.922 2.689h-1.987V93.56h-.001zm32.619 11.106V63.63c0-2.922.584-3.974 2.572-3.974 5.261 0 6.196 7.716 6.196 23.031 0 17.069-.351 25.721-6.43 25.721-2.104 0-2.338-.935-2.338-3.742zm-10.055 6.547h10.289c10.639 0 16.952-9.703 16.952-27.24 0-10.522-2.572-18.589-7.015-23.265-3.04-3.157-6.431-3.742-10.756-3.742h-9.47v2.572c1.987.234 2.572 1.286 2.572 3.741V104.9c0 2.572-.585 3.508-2.572 3.857v2.456zm57.754-34.838h-1.871c-1.286-10.289-3.507-16.018-6.313-16.953v44.309c0 3.508.468 4.795 3.04 5.027v2.455H74.8v-2.455c2.456-.232 3.04-1.52 3.04-5.027V59.422c-2.806.935-5.027 6.664-6.431 16.953h-1.87l.351-19.408h23.382l.234 19.408zm12.51 32.617v2.221H94.91v-2.221c1.753-.467 2.338-1.402 2.338-3.975V81.752c0-2.572-.468-3.625-2.338-3.858v-2.572c2.922-.117 5.961-.351 8.768-.585v30.281c0 2.455.467 3.507 2.338 3.974zm13.445 0v2.221h-10.99v-2.221c1.871-.467 2.223-1.402 2.223-3.975V81.752c0-2.572-.234-3.625-2.223-3.858v-2.572c2.807-.117 5.729-.351 8.535-.585l.117 5.261c1.986-3.624 3.74-5.378 6.195-5.378 2.689 0 4.326 1.871 5.027 5.612 2.105-3.741 3.975-5.612 6.547-5.612 4.209 0 5.379 3.858 5.379 11.926v18.472c0 2.689.35 3.74 2.221 3.975v2.221h-8.418V85.727c0-3.975-.467-5.846-2.221-5.846s-3.156 2.689-3.156 7.483v17.654c0 2.689.35 3.74 2.221 3.975v2.221H122.5V85.727c0-3.975-.467-5.846-2.104-5.846-1.988 0-3.156 2.806-3.156 8.184v16.953c0 2.455.35 3.507 2.221 3.974zm31.215-17.887v-.702c0-9.002 1.053-13.562 3.156-13.562 2.223 0 2.924 3.858 2.924 11.925v2.338h-6.08v.001zm10.873 7.95c-.701 5.963-2.807 9.236-5.846 9.236-3.273 0-5.027-4.326-5.027-12.744v-1.403h12.861v-.351c0-12.509-3.742-19.407-9.705-19.407-5.844 0-10.404 7.366-10.404 19.407 0 11.107 4.561 18.355 10.639 18.355 5.379 0 8.885-4.793 9.471-13.094h-1.989v.001zm6.664-2.221c1.17 8.301 4.209 12.742 7.6 12.742 1.986 0 3.508-1.869 3.508-4.441 0-1.988-1.053-4.092-3.041-5.729-4.209-3.391-7.365-5.846-8.885-9.12-.936-1.753-1.287-3.741-1.287-5.962 0-5.612 3.158-9.938 7.016-9.938 2.338 0 3.975 1.754 5.145 1.754.584 0 1.285-.584 1.637-1.637h1.871v13.328h-1.988c-1.637-7.249-3.975-10.873-6.781-10.873-1.637 0-3.039 1.753-3.039 3.858 0 3.04 1.986 4.56 5.145 7.015 5.377 4.326 8.301 7.716 8.301 13.446 0 6.078-3.625 10.871-7.951 10.871-2.805 0-4.443-1.986-5.611-1.986-.584 0-1.17.701-2.104 1.986h-1.639V96.834h2.103zm-64.535-32.969c0 2.571-1.754 4.559-3.857 4.559-2.105 0-3.859-1.987-3.859-4.559 0-2.456 1.753-4.56 3.859-4.56 2.103 0 3.857 2.104 3.857 4.56z" fill="#d0d1d3"/><path d="M10.28 91.994h2.456c2.104 10.404 5.729 15.666 9.704 15.666 2.689 0 4.677-2.338 4.677-6.08 0-4.793-2.923-8.534-7.366-14.029-2.923-3.858-5.612-6.664-7.132-9.587-1.637-3.156-2.455-6.547-2.455-9.938 0-7.599 4.091-13.328 9.002-13.328 2.806 0 4.793 2.338 6.079 2.338.936 0 1.754-.702 2.338-2.105h1.988v17.654h-2.455c-1.754-10.054-4.56-15.081-8.184-15.081-2.572 0-4.208 2.221-4.208 5.261 0 4.325 3.039 7.95 7.716 13.562 1.286 1.52 3.624 3.975 6.079 8.183a23.965 23.965 0 0 1 3.273 12.159c0 8.184-4.092 13.797-9.353 13.797-3.507 0-5.729-2.572-7.249-2.572-1.169 0-1.754.934-2.923 2.688H10.28V91.994zM42.898 103.1V62.065c0-2.923.584-3.976 2.572-3.976 5.261 0 6.196 7.716 6.196 23.032 0 17.07-.351 25.72-6.43 25.72-2.104.001-2.338-.935-2.338-3.741zm-10.054 6.548h10.288c10.639 0 16.952-9.705 16.952-27.241 0-10.522-2.572-18.589-7.015-23.266-3.04-3.156-6.43-3.741-10.756-3.741h-9.47v2.572c1.988.234 2.571 1.286 2.571 3.741v41.62c0 2.572-.583 3.508-2.571 3.857v2.458h.001zm57.754-34.84h-1.87c-1.287-10.288-3.508-16.017-6.313-16.952v44.31c0 3.506.467 4.793 3.04 5.025v2.457H71.892v-2.457c2.455-.232 3.04-1.52 3.04-5.025v-44.31c-2.806.935-5.027 6.664-6.43 16.952h-1.871l.351-19.407h23.382l.234 19.407zm12.509 32.618v2.223H92.001v-2.223c1.753-.467 2.338-1.402 2.338-3.975V80.186c0-2.572-.468-3.625-2.338-3.858v-2.573c2.923-.116 5.961-.351 8.768-.584v30.28c.001 2.455.467 3.508 2.338 3.975zm13.446 0v2.223h-10.99v-2.223c1.871-.467 2.223-1.402 2.223-3.975V80.186c0-2.572-.234-3.625-2.223-3.858v-2.573c2.807-.116 5.73-.351 8.535-.584l.117 5.261c1.986-3.624 3.74-5.378 6.195-5.378 2.689 0 4.326 1.871 5.027 5.612 2.105-3.741 3.975-5.612 6.547-5.612 4.209 0 5.379 3.858 5.379 11.925v18.472c0 2.689.35 3.74 2.221 3.975v2.223h-8.418V84.161c0-3.975-.467-5.846-2.221-5.846s-3.156 2.689-3.156 7.482v17.654c0 2.689.35 3.74 2.221 3.975v2.223h-8.418V84.161c0-3.975-.467-5.846-2.104-5.846-1.988 0-3.156 2.807-3.156 8.184v16.952c0 2.455.35 3.508 2.221 3.975zm31.215-17.887v-.702c0-9.002 1.053-13.562 3.156-13.562 2.223 0 2.924 3.857 2.924 11.925v2.338h-6.08v.001zm10.873 7.949c-.701 5.963-2.805 9.236-5.846 9.236-3.273 0-5.027-4.326-5.027-12.743v-1.403h12.861v-.351c0-12.509-3.742-19.407-9.705-19.407-5.846 0-10.404 7.366-10.404 19.407 0 11.106 4.559 18.354 10.639 18.354 5.379 0 8.885-4.793 9.471-13.094h-1.989v.001zm6.664-2.22c1.17 8.301 4.209 12.742 7.6 12.742 1.986 0 3.508-1.869 3.508-4.441 0-1.988-1.053-4.092-3.041-5.729-4.209-3.391-7.365-5.846-8.885-9.119-.936-1.754-1.285-3.742-1.285-5.963 0-5.612 3.156-9.938 7.014-9.938 2.338 0 3.975 1.754 5.145 1.754.584 0 1.285-.584 1.637-1.637h1.871v13.328h-1.988c-1.637-7.249-3.975-10.873-6.781-10.873-1.637 0-3.039 1.753-3.039 3.858 0 3.04 1.988 4.56 5.145 7.015 5.377 4.326 8.301 7.716 8.301 13.446 0 6.078-3.625 10.871-7.951 10.871-2.805 0-4.441-1.986-5.611-1.986-.584 0-1.168.701-2.104 1.986h-1.637V95.268h2.101z"/><path d="M100.77 62.298c0 2.572-1.754 4.56-3.858 4.56s-3.858-1.987-3.858-4.56c0-2.455 1.754-4.56 3.858-4.56 2.104.001 3.858 2.105 3.858 4.56zm5.144 3.859c-1.053 0-1.52-.818-1.637-1.988l1.168-.234c0 .936.234 1.169.469 1.169.232 0 .35-.233.35-.701 0-.701-.117-1.052-.818-1.754-.701-.701-1.168-1.403-1.168-2.221 0-1.052.584-1.871 1.52-1.871 1.053 0 1.402.701 1.637 1.754l-1.17.234c0-.702-.117-.936-.467-.936-.234 0-.352.234-.352.702s.234.818.701 1.403c.936.818 1.287 1.637 1.287 2.572 0 1.052-.584 1.871-1.52 1.871zm4.326-3.741c0 2.221-.117 2.688-.586 2.688-.35 0-.467-.584-.467-2.806 0-2.104.117-2.572.467-2.572.352.001.586.468.586 2.69zm1.168-.118c0-2.455-.467-3.741-1.754-3.741-1.285 0-1.637 1.286-1.637 3.858 0 2.455.352 3.741 1.637 3.741 1.287.001 1.754-1.285 1.754-3.858zm1.871-2.455v1.754h1.285v1.169h-1.285v3.274h-1.17v-7.366h2.807v1.169h-1.637zm4.326 0v6.197h-1.169v-6.197h-.936v-1.169h3.156v1.169h-1.051zm5.377 6.197h-.936l-.232-1.987c-.117-.701-.234-1.637-.352-2.338 0 .702-.117 1.637-.234 2.338l-.232 1.987h-1.053l-.818-7.365h1.053l.232 2.455c.117.584.117 1.403.234 2.104 0-.702.117-1.52.117-2.104l.234-2.455h.934l.234 2.455c.117.584.234 1.403.234 2.104 0-.702.117-1.52.117-2.104l.232-2.455h1.17l-.934 7.365zm3.041-2.689h-.701l.232-1.286c0-.585.117-1.169.117-1.754 0 .584.117 1.169.234 1.754l.118 1.286zm1.52 2.689-1.17-7.365h-1.285l-1.17 7.365h1.17l.234-1.637h.816l.234 1.637h1.171zm2.572-5.261c0 .818-.234 1.052-.586 1.052h-.232v-2.104h.232c.352 0 .586.233.586 1.052zm1.168 5.261-.701-3.507c.467-.351.701-.935.701-1.753 0-1.521-.818-2.104-1.637-2.104h-1.52v7.365h1.17v-3.273h.232l.586 3.273h1.169v-.001zm.819 0v-7.366h2.689v1.169h-1.52v1.754h1.168v1.169h-1.168v2.221h1.637v1.053h-2.806zm7.482-3.742c0 2.222-.234 2.689-.701 2.689h-.234v-5.261h.234c.467.001.701.468.701 2.572zm1.17 0c0-2.221-.352-3.624-1.754-3.624h-1.52v7.365h1.402c1.286.001 1.872-1.168 1.872-3.741zm.701 3.742v-7.366h2.69v1.169h-1.522v1.754h1.17v1.169h-1.17v2.221h1.637v1.053h-2.805zm5.494 0h-1.168l-1.17-7.365h1.17l.467 3.624c0 .585.117 1.403.117 1.871 0-.467.117-1.286.117-1.871l.467-3.624h1.17l-1.17 7.365zm1.754 0v-7.366h2.69v1.169h-1.52v1.754h1.168v1.169h-1.168v2.221h1.637v1.053h-2.807zm3.508 0v-7.366h1.17v6.313h1.402v1.053h-2.572zm5.262-3.624c0 2.221-.117 2.688-.469 2.688-.467 0-.584-.584-.584-2.806 0-2.104.117-2.572.584-2.572.351.001.469.468.469 2.69zm1.168-.118c0-2.455-.35-3.741-1.637-3.741-1.285 0-1.754 1.286-1.754 3.858 0 2.455.352 3.741 1.637 3.741 1.404.001 1.754-1.285 1.754-3.858zm2.806-1.402c0 .702-.234 1.052-.586 1.052h-.232v-2.221h.232c.469 0 .586.233.586 1.169zm1.168-.117c0-1.521-.701-2.104-1.637-2.104h-1.52v7.365h1.17V63h.232c.937 0 1.755-.702 1.755-2.221zm3.625 5.261v-1.987c0-.818 0-1.637.117-2.455a36.574 36.574 0 0 1-.584 2.455l-.469 2.221-.584-2.221c-.117-.701-.352-1.871-.469-2.455v4.442H163.2v-7.365h1.168l.469 2.221c.232.702.35 1.52.467 2.104 0-.584.234-1.403.352-2.104l.467-2.221h1.17v7.365h-1.053zm1.987 0v-7.366h2.689v1.169h-1.52v1.754h1.17v1.169h-1.17v2.221h1.637v1.053h-2.806zm5.847 0-.703-2.221a34.919 34.919 0 0 1-.584-2.338v4.56h-1.053v-7.365h1.053l.584 1.871c.117.584.469 1.52.586 2.104v-3.975h1.051v7.365h-.934v-.001zm3.74-6.197v6.197h-1.169v-6.197h-1.051v-1.169h3.156v1.169h-.936zM24.076 126.6h-2.923l-.935 4.209c-.234.818-.468 1.988-.585 2.455 0-.467-.351-1.637-.584-2.455l-1.052-4.209h-2.455l-1.052 4.209c-.234.818-.584 1.988-.584 2.455-.117-.467-.351-1.637-.584-2.455l-.936-4.209h-3.04l3.273 11.225h2.455l1.052-4.443c.234-.818.468-2.105.584-2.572.117.467.351 1.754.585 2.572l1.169 4.443h2.455l3.157-11.225zm15.432 0h-2.806l-1.052 4.209a31.35 31.35 0 0 1-.468 2.455c-.117-.467-.35-1.637-.584-2.455l-1.169-4.209H31.09l-1.169 4.209c-.234.818-.468 1.988-.585 2.455-.117-.467-.351-1.637-.584-2.455l-.935-4.209h-2.923l3.156 11.225h2.455l1.053-4.443c.233-.818.584-2.105.701-2.572 0 .467.351 1.754.585 2.572l1.052 4.443h2.456l3.156-11.225zm15.549 0h-2.923l-.935 4.209c-.234.818-.468 1.988-.585 2.455-.117-.467-.351-1.637-.584-2.455l-1.052-4.209h-2.455l-1.169 4.209c-.234.818-.467 1.988-.584 2.455 0-.467-.351-1.637-.467-2.455L43.25 126.6h-2.922l3.156 11.225h2.455l1.169-4.443c.234-.818.468-2.105.584-2.572.118.467.351 1.754.585 2.572l1.052 4.443h2.455l3.273-11.225zm3.391 9.47c0-1.17-.936-1.988-1.988-1.988s-1.987.818-1.987 1.988c0 1.051.935 1.986 1.987 1.986 1.052.001 1.988-.935 1.988-1.986zm10.873-1.521c0-2.221-1.754-2.922-3.741-3.623-1.988-.584-2.339-.818-2.339-1.287 0-.467.351-.701 1.521-.701.935 0 2.221.234 3.273.818l.935-2.221c-1.169-.701-2.688-1.17-4.092-1.17-2.688 0-4.442 1.053-4.442 3.391s1.637 3.041 4.326 3.742c1.286.467 1.637.701 1.637 1.168 0 .586-.351.818-1.403.818-1.52 0-2.689-.35-3.975-.936l-.935 2.223c1.169.701 2.923 1.285 4.677 1.285 2.57.001 4.558-.935 4.558-3.507zm11.106 3.275v-15.551l-2.923 1.521v3.506c-.468-.467-1.403-.936-2.339-.936-2.806 0-4.325 2.34-4.325 5.729 0 4.209 1.987 5.963 4.325 5.963 1.053 0 1.754-.467 2.339-.936v.703h2.923v.001zm-2.923-3.508c-.351.584-.818.936-1.754.936-1.169 0-1.987-.936-1.987-3.273 0-1.871.701-2.807 1.753-2.807.935 0 1.52.352 1.988.936v4.208zm12.159.118c-.701.584-1.052.818-1.636.818-.702 0-1.052-.352-1.052-1.404v-4.441h2.688V126.6h-2.688v-4.326l-2.923 1.521v2.805H82.18v2.807h1.871v5.26c0 1.988 1.169 3.391 2.923 3.391.936 0 1.871-.35 2.338-.701l.351-2.923zm5.729-10.407c0-.936-.702-1.637-1.637-1.637s-1.753.701-1.753 1.637.818 1.754 1.753 1.754 1.637-.818 1.637-1.754zm-.234 13.797V126.6h-2.923v11.225h2.923v-.001zm18.705 0v-6.314c0-3.156-1.168-5.145-3.975-5.145-1.871 0-2.807.703-3.625 1.52-.818-1.051-1.637-1.52-3.039-1.52-1.17 0-1.871.469-2.455 1.053v-.818h-2.922v11.225h2.922v-6.08c0-1.988.584-2.572 1.871-2.572 1.168 0 1.754.584 1.754 2.572v6.08h2.922v-6.08c0-1.988.584-2.572 1.754-2.572 1.285 0 1.871.584 1.871 2.572v6.08h2.922v-.001zm11.575-5.613c0-3.156-1.754-5.846-4.793-5.846-2.807 0-4.91 2.455-4.91 5.846 0 3.508 1.988 5.846 5.262 5.846 1.402 0 3.039-.701 3.975-1.871l-2.105-1.752c-.467.584-1.051.818-1.869.818-1.053 0-2.223-.586-2.34-2.105h6.666c-.002-.233.114-.467.114-.936zm-2.922-1.285h-3.859c.117-1.053.818-1.988 1.871-1.988 1.286 0 1.87 1.052 1.988 1.988zm13.56 3.623c0-2.221-1.754-2.922-3.74-3.623-1.988-.584-2.338-.818-2.338-1.287 0-.467.35-.701 1.52-.701.936 0 2.104.234 3.273.818l.936-2.221c-1.17-.701-2.807-1.17-4.209-1.17-2.572 0-4.443 1.053-4.443 3.391s1.754 3.041 4.443 3.742c1.168.467 1.637.701 1.637 1.168 0 .586-.352.818-1.52.818-1.404 0-2.689-.35-3.859-.936l-.934 2.223c1.168.701 2.922 1.285 4.676 1.285 2.455.001 4.558-.935 4.558-3.507zm5.496 1.521c0-1.17-.936-1.988-1.988-1.988-1.168 0-1.988.818-1.988 1.988 0 1.051.82 1.986 1.988 1.986 1.053.001 1.988-.935 1.988-1.986zm10.756-.468-1.871-1.871c-.818.936-1.52 1.521-2.689 1.521-1.402 0-2.338-1.287-2.338-3.041s.936-2.922 2.338-2.922c1.17 0 1.871.584 2.572 1.52l1.988-1.988c-.936-1.402-2.34-2.455-4.443-2.455-3.156 0-5.377 2.455-5.377 5.846s2.338 5.846 5.26 5.846c2.22-.001 3.39-1.054 4.56-2.456zm11.106-3.391c0-3.391-2.104-5.846-5.027-5.846-2.922 0-5.025 2.455-5.025 5.846s2.104 5.846 5.025 5.846c2.923 0 5.027-2.455 5.027-5.846zm-2.922 0c0 1.52-.701 3.041-2.105 3.041-1.402 0-2.104-1.287-2.104-3.041s.701-2.922 2.104-2.922c1.404 0 2.105 1.285 2.105 2.922zm20.927 5.613v-6.314c0-3.156-1.17-5.145-3.977-5.145-1.869 0-2.805.703-3.506 1.52-.936-1.051-1.754-1.52-3.158-1.52-1.168 0-1.869.469-2.455 1.053v-.818h-2.922v11.225h2.922v-6.08c0-1.988.586-2.572 1.871-2.572 1.17 0 1.754.584 1.754 2.572v6.08h2.922v-6.08c0-1.988.586-2.572 1.754-2.572 1.287 0 1.871.584 1.871 2.572v6.08h2.924v-.001z" fill="#b8404c"/></g></svg>