<svg xmlns="http://www.w3.org/2000/svg" viewBox="0 0 300 300"><defs><style>.a{fill:#3e3f42;fill-rule:evenodd}</style></defs><path class="a" d="M110.89 156.56a13.63 13.63 0 0 1 13.63-13.88 13.22 13.22 0 0 1 10.59 4.8l-2.52 2.77c-2-2.27-4.54-4-8.07-4a9.86 9.86 0 0 0-9.59 10.09c0 5.8 4.29 10.34 9.84 10.34a10.9 10.9 0 0 0 8.07-4l2.53 2.28c-2.78 3-5.81 5-10.85 5a13.21 13.21 0 0 1-13.63-13.4Zm49.71-1.51c-.51-4.8-3.28-9.09-8.58-9.09-4.54 0-8.08 3.79-8.58 9.09Zm-21.2 1.51c0-7.82 5.3-13.88 12.62-13.88 7.82 0 12.36 6.31 12.36 13.88v1.26h-20.94c.5 5.8 4.54 8.83 9.34 8.83a10.84 10.84 0 0 0 8.32-3.78l2.52 2.27c-2.77 3-5.8 5-10.84 5a13.21 13.21 0 0 1-13.38-13.58Zm32-13.37h4v4.54a10.19 10.19 0 0 1 9.08-5c6.31 0 10.1 4.29 10.1 10.6v16.4h-4v-15.44c0-4.79-2.78-8.07-7.32-8.07s-8.07 3.28-8.07 8.32v15.14h-3.79Zm33.06 19.42v-15.89h-3.79v-3.53h3.79v-7.82h4v8.07h8.33V147h-8.33v15.39c0 3.28 1.77 4.29 4.54 4.29a7.11 7.11 0 0 0 3.79-1v3.28a9 9 0 0 1-4.8 1c-4.21-.03-7.49-2.05-7.49-7.35Zm19.42-19.42h4V150c2-4.29 5.8-7.57 10.85-7.32V147h-.25c-5.81 0-10.6 4-10.6 12.11v10.6h-4ZM261 159.84v-2.52a30.8 30.8 0 0 0-7.82-1c-5.05 0-7.82 2-7.82 5.55 0 3.28 3 5.3 6.56 5.3 5.08-.27 9.08-3.04 9.08-7.33Zm-19.68 2c0-5.55 4.54-8.58 11.35-8.58a34.87 34.87 0 0 1 8.08 1v-.76c0-4.79-3-7.06-7.82-7.06a17.33 17.33 0 0 0-8.08 2L243.6 145a23.34 23.34 0 0 1 9.59-2.27c3.78 0 6.56 1 8.58 3 2 1.77 3 4.29 3 7.82v16.15H261v-4a12.08 12.08 0 0 1-9.59 4.54c-5.03-.06-10.08-2.83-10.08-8.38Zm32 7.82v-37.32h4v37.34ZM279.93 133.6a5.78 5.78 0 0 1 .51-2 2.06 2.06 0 0 1 1.26-1.26 4.77 4.77 0 0 1 2-.5 5.94 5.94 0 0 1 2 .5 2.1 2.1 0 0 1 1.27 1.26 4.8 4.8 0 0 1 .5 2 6 6 0 0 1-.5 2 3.08 3.08 0 0 1-1.27 1.26 4.24 4.24 0 0 1-4 0 3 3 0 0 1-1.26-1.26 4.66 4.66 0 0 1-.51-2Zm6.81 0a3.59 3.59 0 0 0-.5-1.51c-.25-.51-.76-.76-1-1.26a2.51 2.51 0 0 0-3 0c-.5.25-.76.75-1.26 1.26a3.59 3.59 0 0 0-.5 1.51 3.55 3.55 0 0 0 .5 1.51c.25.51.76.76 1.26 1.27a2.55 2.55 0 0 0 3 0c.5-.26.76-.76 1.26-1.27a3.19 3.19 0 0 0 .24-1.51Zm-3.78.51v1.76h-.76v-4.54h1.52a1.92 1.92 0 0 1 1.26.25 1.32 1.32 0 0 1 .5 1c0 .25-.25.76-.5.76.25 0 .25.25.5.5 0 .26.25.51.25.76v.76H285v-1c0-.25 0-.51-.26-.51s-.25-.25-.5-.25H283Zm0-.76h.76a.92.92 0 0 0 .75-.25c.25 0 .25-.26.25-.51s0-.5-.25-.5-.25-.26-.75-.26H283Z"/><path d="m12.5 165.39 3.53-5.3a15.93 15.93 0 0 0 9.08 3.53c2.28 0 3.54-.75 3.54-2.27 0-1.76-2.78-2.27-6.06-3.28-4-1.26-8.58-3-8.58-8.83 0-6.05 4.8-9.33 10.6-9.33a21 21 0 0 1 10.85 3.28L32.18 149a16.26 16.26 0 0 0-7.82-2.77c-2 0-3 .75-3 2 0 1.52 2.78 2.27 5.8 3.54 4 1.26 8.83 3.28 8.83 8.57 0 6.56-4.79 9.34-11.1 9.34a18.5 18.5 0 0 1-12.39-4.29Zm48.94-10.6c0-5-3.27-8.07-7.06-8.07s-7.06 3-7.06 8.07c0 4.8 3.28 8.08 7.06 8.08s7.06-3.28 7.06-8.08Zm-22.2 0c0-9.84 6.31-15.13 13.12-15.13a11.6 11.6 0 0 1 9.08 4.28v-14.12h8.08v39.61h-8.08v-4.29a10.63 10.63 0 0 1-9.08 4.79c-6.81 0-13.12-5.3-13.12-15.14Zm66.61-9.08a5.18 5.18 0 0 1-5.3 5.3 8.61 8.61 0 0 1-2.52-.25 8.85 8.85 0 0 0-2.27-1L94.5 151c-.51.76-1.27 1.51-2 2.52.75 2.78 1.26 4.8 1.51 6.06.51 1.26.76 2.27 1.26 3.53a4.87 4.87 0 0 0 1.26 2.27 4.11 4.11 0 0 0 2.78.76 4.83 4.83 0 0 0 1.77-.26 16.19 16.19 0 0 0 1.76-.5l-.5 2.52c-1.77.76-3.28 1.26-4.8 1.77a19.91 19.91 0 0 1-3.53.5 7 7 0 0 1-2.27-.25 15.86 15.86 0 0 1-2-.76 10.13 10.13 0 0 1-1.76-1.51 11.44 11.44 0 0 1-1.27-2.52 7.48 7.48 0 0 1-.5-2.27c-.25-.76-.25-1.52-.5-2.27-.51.75-1 1.26-1.27 1.76a5.15 5.15 0 0 1-1 1.52 31.24 31.24 0 0 1-3.78 4.79 5.13 5.13 0 0 1-3.78 1.51 3.8 3.8 0 0 1-2.78-1 4.14 4.14 0 0 1-1.26-3 4.76 4.76 0 0 1 1.51-3.79 5.13 5.13 0 0 1 3.79-1.51 8.67 8.67 0 0 1 2.52.25l2.27.76 1.26-1.26c.51-.76 1.26-1.52 1.77-2.27a32.13 32.13 0 0 0-1.52-5.55c-.5-1.27-.75-2.53-1.26-3.79a3.63 3.63 0 0 0-1.51-2.27 4.09 4.09 0 0 0-2.78-.76 4.15 4.15 0 0 0-1.76.26 16.45 16.45 0 0 0-1.77.5l.51-2.52c1.76-.76 3.28-1.26 4.79-1.77a26.51 26.51 0 0 1 3.78-.5 5.71 5.71 0 0 1 2.28.25c.75.25 1.26.5 2 .76a10.62 10.62 0 0 1 1.77 1.51 11.47 11.47 0 0 1 1.22 2.53 7.51 7.51 0 0 1 .51 2.27c.25.76.25 1.52.5 2 .76-.76 1-1.26 1.51-1.76a6.29 6.29 0 0 0 1-1.77 31.29 31.29 0 0 1 3.77-4.8 5.13 5.13 0 0 1 3.78-1.52 3.65 3.65 0 0 1 2.78 1.26 4.22 4.22 0 0 1 1.29 3.03Z" style="fill:#f15a29;fill-rule:evenodd"/></svg>