<svg version="1.1" id="Layer_1" xmlns="http://www.w3.org/2000/svg" x="0" y="0" viewBox="0 0 719.7 210.3" style="enable-background:new 0 0 719.7 210.3" xml:space="preserve"><style>.st0{fill:#a2b0cd}</style><path class="st0" d="M0 54.7h54.1c6.3 0 11.9.9 16.8 2.7 4.9 1.8 9.1 4.2 12.5 7.2 3.4 3 6 6.6 7.9 10.6 1.8 4 2.7 8.3 2.7 12.8 0 5.6-1.3 10.8-3.8 15.7-2.5 4.8-6.3 9.1-11.4 13 4.1 1.7 7.6 3.8 10.4 6.2 2.9 2.4 5.2 5 7 7.9 1.8 2.8 3.2 5.9 4 9 .9 3.2 1.3 6.4 1.3 9.8 0 5.4-1.1 10.4-3.4 15.1-2.3 4.7-5.4 8.8-9.2 12.3-3.9 3.5-8.3 6.2-13.4 8.3-5 2-10.3 3.1-15.7 3.1H0V54.7zm22.6 53.2h28.3c3.1 0 6-.5 8.7-1.5 2.6-1 4.9-2.3 6.8-4s3.4-3.7 4.5-5.9c1.1-2.3 1.6-4.6 1.6-7.1 0-2.3-.4-4.4-1.1-6.3-.8-1.9-1.9-3.5-3.5-4.9s-3.6-2.5-6-3.3-5.3-1.1-8.5-1.1H22.6v34.1zm0 61h31.6c2.9 0 5.8-.4 8.7-1.1 2.9-.8 5.5-2 7.9-3.6 2.3-1.6 4.2-3.7 5.7-6.2s2.2-5.6 2.2-9.1c0-2.9-.7-5.7-2-8.4s-3.3-5-5.8-7-5.6-3.6-9.2-4.7c-3.6-1.2-7.7-1.8-12.3-1.8H22.6v41.9zM204.1 188.3h-22.6v-11c-2.4 2.5-4.8 4.6-7.1 6.2-2.3 1.7-4.6 3-6.8 4s-4.5 1.7-6.8 2.1c-2.3.4-4.7.6-7.1.6-4.9 0-9.3-.7-13.2-2.2s-7.2-3.6-9.9-6.3-4.8-6-6.3-9.8c-1.4-3.8-2.2-8.1-2.2-12.8V90.8h22.6v66.7c0 2.5.3 4.6 1 6.4.7 1.8 1.6 3.2 2.8 4.3s2.6 1.9 4.2 2.3c1.6.5 3.3.7 5.2.7 2.9 0 5.8-.7 8.7-2.1 2.8-1.4 5.4-3.2 7.6-5.6 2.2-2.4 4-5.1 5.3-8.1s2-6.3 2-9.8V90.8h22.6v97.5zM255.2 64v26.8h17.9v18.5h-17.9v53.1c0 2.7.6 4.9 1.9 6.7 1.2 1.8 3 2.7 5.2 2.7.7 0 2.1-.1 4.2-.3s5-1.1 8.7-2.5v17.8c-4 1.5-7.7 2.5-11.3 2.9-3.5.4-6.5.6-8.8.6-3 0-5.9-.6-8.6-1.8-2.7-1.2-5.2-2.9-7.2-5.1-2.1-2.2-3.7-4.9-4.9-8s-1.8-6.6-1.8-10.4v-55.5h-13.9V90.8h13.9V64h22.6zM316.4 64v26.8h17.9v18.5h-17.9v53.1c0 2.7.6 4.9 1.9 6.7 1.2 1.8 3 2.7 5.2 2.7.7 0 2.1-.1 4.2-.3s5-1.1 8.7-2.5v17.8c-4 1.5-7.7 2.5-11.3 2.9-3.5.4-6.5.6-8.8.6-3 0-5.9-.6-8.6-1.8s-5.2-2.9-7.2-5.1c-2.1-2.2-3.7-4.9-4.9-8-1.2-3.1-1.8-6.6-1.8-10.4v-55.5h-13.9V90.8h13.9V64h22.6zM343.6 139.7c0-7 1-13.5 3.1-19.7 2-6.2 5-11.6 8.9-16.2s8.7-8.3 14.4-11c5.7-2.7 12.2-4 19.5-4s13.8 1.3 19.5 4 10.5 6.3 14.5 11c3.9 4.6 6.9 10 9 16.2s3.1 12.7 3.1 19.7c0 6.9-1 13.4-3.1 19.5-2 6.1-5 11.5-9 16.1-3.9 4.6-8.7 8.2-14.5 10.9-5.7 2.6-12.2 4-19.5 4s-13.8-1.3-19.5-4c-5.7-2.6-10.5-6.3-14.5-10.9-3.9-4.6-6.9-10-9-16.1-1.9-6.1-2.9-12.6-2.9-19.5zm22.6 0c0 4.3.5 8.4 1.6 12.3 1.1 3.8 2.6 7.2 4.6 10.1 2 2.9 4.5 5.1 7.3 6.8 2.9 1.7 6.1 2.5 9.7 2.5s6.8-.8 9.7-2.5c2.9-1.7 5.4-3.9 7.4-6.8s3.6-6.2 4.7-10.1c1.1-3.8 1.6-7.9 1.6-12.3 0-4.3-.5-8.4-1.6-12.3-1.1-3.9-2.7-7.2-4.7-10.1s-4.5-5.2-7.4-6.8c-2.9-1.7-6.1-2.5-9.7-2.5s-6.8.8-9.7 2.5c-2.9 1.7-5.3 4-7.3 6.8-2 2.9-3.6 6.2-4.6 10.1-1.1 3.9-1.6 8-1.6 12.3zM453.1 90.8h22.6v11.5c4.2-4.8 8.6-8.2 13.3-10.3 4.6-2.1 9.4-3.1 14.2-3.1 5 0 9.4.7 13.4 2.2s7.3 3.6 10 6.3c2.7 2.7 4.8 6 6.3 9.8s2.2 8 2.2 12.7v68.5h-22.6v-64.8c0-2.5-.4-4.7-1.1-6.6-.7-1.9-1.7-3.5-2.9-4.9s-2.6-2.3-4.3-3c-1.7-.7-3.4-1-5.3-1-3 0-5.9.6-8.7 1.9-2.8 1.2-5.3 2.9-7.4 5s-3.9 4.5-5.2 7.2c-1.3 2.7-2 5.5-2 8.5v57.8H453l.1-97.7zM631.9 210.3l-24.5-37c-17.1-5-32.5-15.3-43.8-29.4-12.6-15.6-19.5-35.4-19.5-55.5 0-48.7 39.4-88.4 87.8-88.4s87.8 39.6 87.8 88.4c0 20.1-6.9 39.9-19.5 55.5-11.3 14.1-26.7 24.4-43.8 29.4l-24.5 37zm0-185.3c-34.6 0-62.8 28.4-62.8 63.4 0 14.7 4.8 28.5 14 39.9 8.9 11.1 21.3 18.9 34.9 22l4.9 1.1 9 13.6 9-13.6 4.9-1.1c13.6-3.1 26-10.9 34.9-22 9.1-11.4 14-25.2 14-39.9-.1-35-28.2-63.4-62.8-63.4z"/><path class="st0" d="M643.3 56.3c-3.4 0-6.2 2.8-6.2 6.2v13.6c0 3.4 2.8 6.2 6.2 6.2H657c3.4 0 6.2-2.8 6.2-6.2V62.5c0-3.4-2.8-6.2-6.2-6.2h-13.7zM606.8 56.3c-3.4 0-6.2 2.8-6.2 6.2v13.6c0 3.4 2.8 6.2 6.2 6.2h13.6c3.4 0 6.2-2.8 6.2-6.2V62.5c0-3.4-2.8-6.2-6.2-6.2h-13.6zM643.3 92.8c-3.4 0-6.2 2.8-6.2 6.2v13.6c0 3.4 2.8 6.2 6.2 6.2H657c3.4 0 6.2-2.8 6.2-6.2V99c0-3.4-2.8-6.2-6.2-6.2h-13.7zM606.8 92.8c-3.4 0-6.2 2.8-6.2 6.2v13.6c0 3.4 2.8 6.2 6.2 6.2h13.6c3.4 0 6.2-2.8 6.2-6.2V99c0-3.4-2.8-6.2-6.2-6.2h-13.6z"/></svg>