<?xml version="1.0" encoding="utf-8"?>
<!-- Generator: Adobe Illustrator 21.1.0, SVG Export Plug-In . SVG Version: 6.00 Build 0)  -->
<svg version="1.1" id="Layer_1" xmlns="http://www.w3.org/2000/svg" xmlns:xlink="http://www.w3.org/1999/xlink" x="0px" y="0px"
	 viewBox="0 0 719.7 210.3" style="enable-background:new 0 0 719.7 210.3;" xml:space="preserve">
<style type="text/css">
	.st0{fill:#A2B0CD;}
</style>
<g>
	<g>
		<path class="st0" d="M0,54.7h54.1c6.3,0,11.9,0.9,16.8,2.7c4.9,1.8,9.1,4.2,12.5,7.2c3.4,3,6,6.6,7.9,10.6c1.8,4,2.7,8.3,2.7,12.8
			c0,5.6-1.3,10.8-3.8,15.7c-2.5,4.8-6.3,9.1-11.4,13c4.1,1.7,7.6,3.8,10.4,6.2c2.9,2.4,5.2,5,7,7.9c1.8,2.8,3.2,5.9,4,9
			c0.9,3.2,1.3,6.4,1.3,9.8c0,5.4-1.1,10.4-3.4,15.1c-2.3,4.7-5.4,8.8-9.2,12.3c-3.9,3.5-8.3,6.2-13.4,8.3c-5,2-10.3,3.1-15.7,3.1H0
			V54.7z M22.6,107.9h28.3c3.1,0,6-0.5,8.7-1.5c2.6-1,4.9-2.3,6.8-4s3.4-3.7,4.5-5.9c1.1-2.3,1.6-4.6,1.6-7.1c0-2.3-0.4-4.4-1.1-6.3
			c-0.8-1.9-1.9-3.5-3.5-4.9s-3.6-2.5-6-3.3s-5.3-1.1-8.5-1.1H22.6V107.9z M22.6,168.9h31.6c2.9,0,5.8-0.4,8.7-1.1
			c2.9-0.8,5.5-2,7.9-3.6c2.3-1.6,4.2-3.7,5.7-6.2s2.2-5.6,2.2-9.1c0-2.9-0.7-5.7-2-8.4s-3.3-5-5.8-7s-5.6-3.6-9.2-4.7
			c-3.6-1.2-7.7-1.8-12.3-1.8H22.6V168.9z"/>
		<path class="st0" d="M204.1,188.3h-22.6v-11c-2.4,2.5-4.8,4.6-7.1,6.2c-2.3,1.7-4.6,3-6.8,4s-4.5,1.7-6.8,2.1
			c-2.3,0.4-4.7,0.6-7.1,0.6c-4.9,0-9.3-0.7-13.2-2.2s-7.2-3.6-9.9-6.3s-4.8-6-6.3-9.8c-1.4-3.8-2.2-8.1-2.2-12.8V90.8h22.6v66.7
			c0,2.5,0.3,4.6,1,6.4c0.7,1.8,1.6,3.2,2.8,4.3s2.6,1.9,4.2,2.3c1.6,0.5,3.3,0.7,5.2,0.7c2.9,0,5.8-0.7,8.7-2.1
			c2.8-1.4,5.4-3.2,7.6-5.6c2.2-2.4,4-5.1,5.3-8.1s2-6.3,2-9.8V90.8h22.6V188.3z"/>
		<path class="st0" d="M255.2,64v26.8h17.9v18.5h-17.9v53.1c0,2.7,0.6,4.9,1.9,6.7c1.2,1.8,3,2.7,5.2,2.7c0.7,0,2.1-0.1,4.2-0.3
			s5-1.1,8.7-2.5v17.8c-4,1.5-7.7,2.5-11.3,2.9c-3.5,0.4-6.5,0.6-8.8,0.6c-3,0-5.9-0.6-8.6-1.8c-2.7-1.2-5.2-2.9-7.2-5.1
			c-2.1-2.2-3.7-4.9-4.9-8s-1.8-6.6-1.8-10.4v-55.5h-13.9V90.8h13.9V64H255.2z"/>
		<path class="st0" d="M316.4,64v26.8h17.9v18.5h-17.9v53.1c0,2.7,0.6,4.9,1.9,6.7c1.2,1.8,3,2.7,5.2,2.7c0.7,0,2.1-0.1,4.2-0.3
			s5-1.1,8.7-2.5v17.8c-4,1.5-7.7,2.5-11.3,2.9c-3.5,0.4-6.5,0.6-8.8,0.6c-3,0-5.9-0.6-8.6-1.8s-5.2-2.9-7.2-5.1
			c-2.1-2.2-3.7-4.9-4.9-8c-1.2-3.1-1.8-6.6-1.8-10.4v-55.5h-13.9V90.8h13.9V64H316.4z"/>
		<path class="st0" d="M343.6,139.7c0-7,1-13.5,3.1-19.7c2-6.2,5-11.6,8.9-16.2s8.7-8.3,14.4-11c5.7-2.7,12.2-4,19.5-4
			s13.8,1.3,19.5,4s10.5,6.3,14.5,11c3.9,4.6,6.9,10,9,16.2s3.1,12.7,3.1,19.7c0,6.9-1,13.4-3.1,19.5c-2,6.1-5,11.5-9,16.1
			c-3.9,4.6-8.7,8.2-14.5,10.9c-5.7,2.6-12.2,4-19.5,4s-13.8-1.3-19.5-4c-5.7-2.6-10.5-6.3-14.5-10.9c-3.9-4.6-6.9-10-9-16.1
			C344.6,153.1,343.6,146.6,343.6,139.7z M366.2,139.7c0,4.3,0.5,8.4,1.6,12.3c1.1,3.8,2.6,7.2,4.6,10.1c2,2.9,4.5,5.1,7.3,6.8
			c2.9,1.7,6.1,2.5,9.7,2.5s6.8-0.8,9.7-2.5c2.9-1.7,5.4-3.9,7.4-6.8s3.6-6.2,4.7-10.1c1.1-3.8,1.6-7.9,1.6-12.3
			c0-4.3-0.5-8.4-1.6-12.3c-1.1-3.9-2.7-7.2-4.7-10.1s-4.5-5.2-7.4-6.8c-2.9-1.7-6.1-2.5-9.7-2.5s-6.8,0.8-9.7,2.5
			c-2.9,1.7-5.3,4-7.3,6.8c-2,2.9-3.6,6.2-4.6,10.1C366.7,131.3,366.2,135.4,366.2,139.7z"/>
		<path class="st0" d="M453.1,90.8h22.6v11.5c4.2-4.8,8.6-8.2,13.3-10.3c4.6-2.1,9.4-3.1,14.2-3.1c5,0,9.4,0.7,13.4,2.2
			s7.3,3.6,10,6.3c2.7,2.7,4.8,6,6.3,9.8s2.2,8,2.2,12.7v68.5h-22.6v-64.8c0-2.5-0.4-4.7-1.1-6.6c-0.7-1.9-1.7-3.5-2.9-4.9
			s-2.6-2.3-4.3-3c-1.7-0.7-3.4-1-5.3-1c-3,0-5.9,0.6-8.7,1.9c-2.8,1.2-5.3,2.9-7.4,5s-3.9,4.5-5.2,7.2c-1.3,2.7-2,5.5-2,8.5v57.8
			H453L453.1,90.8L453.1,90.8z"/>
	</g>
	<path class="st0" d="M631.9,210.3l-24.5-37c-17.1-5-32.5-15.3-43.8-29.4c-12.6-15.6-19.5-35.4-19.5-55.5
		c0-48.7,39.4-88.4,87.8-88.4c48.4,0,87.8,39.6,87.8,88.4c0,20.1-6.9,39.9-19.5,55.5c-11.3,14.1-26.7,24.4-43.8,29.4L631.9,210.3z
		 M631.9,25c-34.6,0-62.8,28.4-62.8,63.4c0,14.7,4.8,28.5,14,39.9c8.9,11.1,21.3,18.9,34.9,22l4.9,1.1l9,13.6l9-13.6l4.9-1.1
		c13.6-3.1,26-10.9,34.9-22c9.1-11.4,14-25.2,14-39.9C694.6,53.4,666.5,25,631.9,25z"/>
	<path class="st0" d="M643.3,56.3c-3.4,0-6.2,2.8-6.2,6.2v13.6c0,3.4,2.8,6.2,6.2,6.2H657c3.4,0,6.2-2.8,6.2-6.2V62.5
		c0-3.4-2.8-6.2-6.2-6.2H643.3z"/>
	<path class="st0" d="M606.8,56.3c-3.4,0-6.2,2.8-6.2,6.2v13.6c0,3.4,2.8,6.2,6.2,6.2h13.6c3.4,0,6.2-2.8,6.2-6.2V62.5
		c0-3.4-2.8-6.2-6.2-6.2H606.8z"/>
	<path class="st0" d="M643.3,92.8c-3.4,0-6.2,2.8-6.2,6.2v13.6c0,3.4,2.8,6.2,6.2,6.2H657c3.4,0,6.2-2.8,6.2-6.2V99
		c0-3.4-2.8-6.2-6.2-6.2H643.3z"/>
	<path class="st0" d="M606.8,92.8c-3.4,0-6.2,2.8-6.2,6.2v13.6c0,3.4,2.8,6.2,6.2,6.2h13.6c3.4,0,6.2-2.8,6.2-6.2V99
		c0-3.4-2.8-6.2-6.2-6.2H606.8z"/>
</g>
</svg>
