<svg xmlns="http://www.w3.org/2000/svg" viewBox="0 0 122 24" style="enable-background:new 0 0 122 24" xml:space="preserve"><path d="m13.9 17.5 4 3.7C16 22.9 13.4 24 10.5 24 4.7 24 0 19.7 0 14.3 0 9 4.7 4.6 10.5 4.6c2.9 0 5.5 1.1 7.4 2.8l-4 3.7c-.9-.9-2.1-1.4-3.4-1.4-.9 0-1.6.2-2.3.6.5.2.8.7.8 1.2 0 .8-.6 1.4-1.4 1.4-.5 0-1-.3-1.3-.8-.4.7-.6 1.4-.6 2.2 0 2.5 2.1 4.6 4.8 4.6 1.3 0 2.5-.5 3.4-1.4zm17.2-7.8V5.1h2.4V2.3L39.1 0v5.1h4.7v4.6h-4.7v7.4c0 1.3.7 1.8 1.9 1.8.8 0 1.4-.5 1.4-.5l1.9 4.2c-1 .8-2.3 1.4-4.7 1.4-3 0-6.1-1.7-6.1-6.9V9.7h-2.4zM49 24V5.4h5.4V24H49zm-27.2 0V5.4h5.4V24h-5.4zm46.6-13.9H60V5.4h17.7l-9.3 13.9h8.4V24H59.1l9.3-13.9zm21.9 9.4c2.3 0 3.7-.9 4.7-1.8l3.2 3.2c-1.6 1.8-4 3.1-7.8 3.1-6.3 0-10.4-4.1-10.4-9.7s4.3-9.7 9.8-9.7c6.4 0 10 5.1 9.6 11.5H85.6c.5 2.1 2 3.4 4.7 3.4zm3.7-7.1c-.4-1.8-1.8-3.1-4.1-3.1s-3.9 1.1-4.4 3.1H94zm9.4-7.3h5.6v2.3s1.6-2.7 5.6-2.7c4.7 0 7.5 2.4 7.5 7.3v11.3h-5.6v-10c0-2.1-1-4.1-3.3-4.1s-4.2 1.3-4.2 4.1v10h-5.6V5.1z" style="fill:#a2b0cd"/></svg>