<svg version="1.1" id="Layer_1" xmlns="http://www.w3.org/2000/svg" x="0" y="0" viewBox="0 0 946.7 162" style="enable-background:new 0 0 946.7 162" xml:space="preserve"><style>.st0{fill:#a2b0cd}</style><path class="st0" d="M190.7 37h18v88h-18zM833.7 37h-18v88h57v-18h-39zM946.7 55V37h-57v88h57v-18h-39V90.2h32.5v-18h-32.5V55zM269.2 77.1l-19.3-39.9h-19.2v87.6h18V76l14.6 30.3h11.8L289.7 76v48.8h18V37.2h-19.3zM368.3 37h-37.1v88h18V90h19.1c14.6 0 26.5-11.9 26.5-26.5S382.9 37 368.3 37zm0 35h-19.1V55h19.1c4.7 0 8.5 3.8 8.5 8.5s-3.9 8.5-8.5 8.5zM609.5 36.9h-37.8v88.3h37.8c14.6 0 26.5-11.9 26.5-26.5 0-6.8-2.6-13-6.7-17.6 4.2-4.7 6.7-10.9 6.7-17.6 0-14.8-11.9-26.6-26.5-26.6zm0 70.2h-19.8V90l19.8.2c4.7 0 8.5 3.8 8.5 8.5s-3.8 8.4-8.5 8.4zm0-35.2h-19.8v-17h19.8c4.7 0 8.5 3.8 8.5 8.5s-3.8 8.5-8.5 8.5zM770.5 36.9h-37.8v88.3h37.8c14.6 0 26.5-11.9 26.5-26.5 0-6.8-2.6-13-6.7-17.6 4.2-4.7 6.7-10.9 6.7-17.6 0-14.8-11.9-26.6-26.5-26.6zm0 70.2h-19.8V90l19.8.2c4.7 0 8.5 3.8 8.5 8.5s-3.8 8.4-8.5 8.4zm0-35.2h-19.8v-17h19.8c4.7 0 8.5 3.8 8.5 8.5s-3.8 8.5-8.5 8.5zM521.5 36.9c-9.6 0-18.4 3.9-24.8 11-5.6 6.3-8.9 14.5-8.9 22.5v21.3c0 16.5 12.6 33.5 33.7 33.5 9.6 0 18.4-3.9 24.8-11 5.6-6.3 8.9-14.5 8.9-22.5V70.4c0-16.5-12.6-33.5-33.7-33.5zm15.7 54.7c0 6.5-5.4 15.5-15.7 15.5-10.2 0-15.7-8-15.7-15.5V70.4c0-6.5 5.4-15.5 15.7-15.5 10.2 0 15.7 8 15.7 15.5v21.2zM473.2 63.5c0-14.6-11.9-26.5-26.5-26.5h-37.1v88h18V90h11l18.1 35.1h20.2l-19.3-37.4c9.2-4.2 15.6-13.5 15.6-24.2zM446.7 72h-19.1V55h19.1c4.7 0 8.5 3.8 8.5 8.5s-3.8 8.5-8.5 8.5zM677.3 37l-33.4 88h19.3l5.3-14H699l5.3 14h19.3L690 37h-12.7zm-2.1 56 8.4-22.1L692 93h-16.8zM0 162h162V0H0v162zM18 18h126v126H18V18z"/><path class="st0" d="M72 48h18v64.3H72zM126.7 23.9c-6.1 0-11.1 5-11.1 11.1s5 11.1 11.1 11.1 11.1-5 11.1-11.1-5-11.1-11.1-11.1zm0 16.3c-2.9 0-5.2-2.3-5.2-5.2s2.3-5.2 5.2-5.2 5.2 2.3 5.2 5.2-2.3 5.2-5.2 5.2z"/></svg>