<svg width="200" height="31" xmlns="http://www.w3.org/2000/svg"><g fill="#A2B0CD" fill-rule="nonzero"><path d="M61.235 23.645h12.018v-2.741h-9.006V6.506h-3.012v17.139ZM76.566 6.506v17.139h3.012V6.506h-3.012Zm22.862 14.76v-7.2h-7.29v2.62h4.398v3.194c-.512.391-1.144.692-1.837.933a7.147 7.147 0 0 1-2.29.362c-.873 0-1.686-.15-2.379-.452a5.349 5.349 0 0 1-1.837-1.295 5.572 5.572 0 0 1-1.175-1.958 7.155 7.155 0 0 1-.422-2.44c0-.843.151-1.626.422-2.35a5.721 5.721 0 0 1 1.175-1.927c.512-.542 1.084-.994 1.777-1.295.663-.331 1.416-.482 2.199-.482.542 0 1.024.03 1.476.12.451.09.873.211 1.235.362.361.15.722.361 1.084.572.331.241.663.482.994.753l1.897-2.289A19.39 19.39 0 0 0 97.5 7.5a11.183 11.183 0 0 0-1.476-.723 7.295 7.295 0 0 0-1.687-.452c-.602-.12-1.295-.15-2.048-.15-1.295 0-2.47.24-3.554.723-1.084.482-2.018 1.114-2.801 1.927a9.003 9.003 0 0 0-1.838 2.832 9.412 9.412 0 0 0-.662 3.433c0 1.265.21 2.41.632 3.494a8.018 8.018 0 0 0 1.807 2.802 8.614 8.614 0 0 0 2.802 1.867c1.084.452 2.319.663 3.644.663.753 0 1.476-.06 2.169-.211.693-.15 1.325-.332 1.928-.572.602-.241 1.144-.543 1.656-.844.482-.301.934-.662 1.356-1.024Zm15.12-4.85v7.229h3.012V6.506h-3.012v7.139h-8.162V6.506h-3.013v17.139h3.013v-7.23h8.162Zm14.669-7.109h5.422V6.506h-13.916v2.801h5.422v14.338h3.072V9.307ZM140.843 10.813c0-.391.09-.753.271-1.114.181-.332.422-.633.723-.874a4.118 4.118 0 0 1 1.145-.602c.452-.15.964-.211 1.506-.211.873 0 1.717.15 2.53.452a8.012 8.012 0 0 1 2.41 1.416l1.114-1.507c-.873-.692-1.777-1.234-2.74-1.566-.935-.361-2.049-.512-3.284-.512-.813 0-1.566.12-2.259.362-.693.24-1.295.572-1.777.994a4.253 4.253 0 0 0-1.175 1.476 4.384 4.384 0 0 0-.421 1.897c0 .723.12 1.325.33 1.868.242.512.573.994 1.055 1.385.482.392 1.084.723 1.807.994.723.271 1.567.512 2.56.723.904.21 1.627.392 2.23.602.572.211 1.024.452 1.355.723.331.271.542.542.693.874.12.331.21.693.21 1.084 0 .874-.36 1.596-1.054 2.139-.692.542-1.626.813-2.77.813-1.206 0-2.26-.21-3.163-.602-.904-.392-1.808-.994-2.711-1.838l-1.205 1.416c1.024.934 2.108 1.626 3.253 2.078 1.144.452 2.38.663 3.765.663.843 0 1.626-.12 2.35-.332.722-.24 1.325-.542 1.837-.994a4.631 4.631 0 0 0 1.205-1.536c.3-.602.451-1.265.451-2.018 0-1.325-.451-2.35-1.355-3.102-.904-.753-2.32-1.325-4.217-1.777-.934-.181-1.717-.392-2.32-.633-.602-.21-1.084-.452-1.415-.723a2.526 2.526 0 0 1-.723-.903 2.821 2.821 0 0 1-.21-1.115Zm20.302-2.5h5.753V6.536h-13.464v1.777h5.753v15.362h1.958V8.313Zm21.747-1.807h-12.38v17.139h12.5v-1.778H172.44v-5.994h9.367v-1.777h-9.367V8.253h10.452V6.506Zm16.837 5.482c0-.843-.15-1.627-.452-2.29a4.8 4.8 0 0 0-1.295-1.716 6.796 6.796 0 0 0-2.018-1.084 8.865 8.865 0 0 0-2.62-.392h-6.416v17.139h1.927V17.59h4.157c.904 0 1.777-.12 2.59-.361a6.758 6.758 0 0 0 2.139-1.054 5.224 5.224 0 0 0 1.446-1.777c.391-.663.542-1.506.542-2.41Zm-1.958.06c0 .572-.12 1.085-.331 1.566-.211.452-.542.874-.964 1.205a4.46 4.46 0 0 1-1.506.783c-.572.181-1.235.271-1.928.271h-4.187v-7.53h4.338c1.385 0 2.5.302 3.343.934.844.603 1.235 1.536 1.235 2.771ZM8.675 30.633h15.753c4.699 0 8.132-2.711 10.662-6.386 1.506-2.199 3.073-4.157 5.994-4.157h9.518v-5H37.41c-2.922 0-4.458 1.958-5.994 4.157-2.53 3.675-5.934 6.386-10.663 6.386H8.675v5Z"/><path d="M.241 23.886h19.518c4.699 0 8.133-2.711 10.663-6.386 1.506-2.199 3.072-4.157 5.994-4.157H54.94V7.108H36.416c-5.753 0-7.47 2.681-9.85 5.814-1.747 2.319-3.614 4.729-6.807 4.729H.241v6.235Z"/><path d="M4.94 15.994h13.584c3.193 0 5.06-2.44 6.807-4.729 2.38-3.132 4.097-5.813 9.85-5.813h10.391V.03H32.53c-5.753 0-7.47 2.68-9.85 5.813-1.746 2.32-3.614 4.73-6.807 4.73H4.94v5.421Z"/></g></svg>