<svg version="1.1" id="Layer_1" xmlns="http://www.w3.org/2000/svg" x="0" y="0" viewBox="0 0 128.6 22" style="enable-background:new 0 0 128.6 22" xml:space="preserve"><style>.st0{fill:#a2b0cd}</style><g id="Layer_1_1_"><path class="st0" d="M15.3 21.7H0v-2.4l10.8-16H.3v-3H15v2.5l-10.8 16h11.1v2.9zM33.3 21.7H21.2V.3h12.1v3h-8.6v5.8h8.1V12h-8.1v6.7h8.6v3zM57.8 21.7h-4.3L43 4.7h-.1l.1 1c.1 1.8.2 3.5.2 5v11.1H40V.3h4.2l10.5 17h.1c0-.2-.1-1-.1-2.5-.1-1.4-.1-2.5-.1-3.3V.3h3.2v21.4zM72.1 10.1 77.2.3H81l-7.1 13.1v8.3h-3.5v-8.2L63.2.3H67l5.1 9.8zM98.3 15.9c0 1.9-.7 3.4-2.1 4.5S93 22 90.6 22s-4.4-.4-5.9-1.1v-3.3c1 .5 2 .8 3.1 1.1s2.1.4 3.1.4c1.4 0 2.4-.3 3.1-.8s1-1.2 1-2.1c0-.8-.3-1.5-.9-2s-1.9-1.2-3.8-2c-2-.8-3.3-1.7-4.1-2.7S85 7.3 85 5.8c0-1.8.6-3.2 1.9-4.2S89.9.1 92 .1c1.9-.1 4 .3 6 1.2l-1.1 2.9C95 3.4 93.3 3 91.8 3c-1.1 0-2 .2-2.6.7s-.9 1.1-.9 2c0 .6.1 1 .4 1.4.2.4.6.8 1.2 1.1.6.3 1.5.8 2.9 1.4 1.6.7 2.7 1.3 3.5 1.8s1.3 1.2 1.6 1.9.4 1.6.4 2.6zM104.7 21.7V.3h3.5v21.4h-3.5zM128.6 15.9c0 1.9-.7 3.4-2.1 4.5s-3.3 1.6-5.7 1.6-4.4-.4-5.9-1.1v-3.3c1 .5 2 .8 3.1 1.1 1.1.3 2.1.4 3.1.4 1.4 0 2.4-.3 3.1-.8s1-1.2 1-2.1c0-.8-.3-1.5-.9-2s-1.9-1.2-3.8-2c-2-.8-3.3-1.7-4.1-2.7s-1.2-2.2-1.2-3.7c0-1.8.6-3.2 1.9-4.2s3-1.5 5.1-1.5 4.1.4 6.1 1.3l-1.1 2.9c-2-.9-3.7-1.3-5.2-1.3-1.1 0-2 .2-2.6.7s-.9 1.1-.9 2c0 .6.1 1 .4 1.4.2.4.6.8 1.2 1.1.6.3 1.5.8 2.9 1.4 1.6.7 2.7 1.3 3.5 1.8s1.3 1.2 1.6 1.9.5 1.6.5 2.6z"/></g></svg>