<?xml version="1.0" encoding="utf-8"?>
<!-- Generator: Adobe Illustrator 21.1.0, SVG Export Plug-In . SVG Version: 6.00 Build 0)  -->
<svg version="1.1" id="Layer_1" xmlns="http://www.w3.org/2000/svg" xmlns:xlink="http://www.w3.org/1999/xlink" x="0px" y="0px"
	 viewBox="0 0 128.6 22" style="enable-background:new 0 0 128.6 22;" xml:space="preserve">
<style type="text/css">
	.st0{fill:#A2B0CD;}
</style>
<g id="Layer_1_1_">
	<g>
		<path class="st0" d="M15.3,21.7H0v-2.4l10.8-16H0.3v-3H15v2.5l-10.8,16h11.1V21.7z"/>
		<path class="st0" d="M33.3,21.7H21.2V0.3h12.1v3h-8.6v5.8h8.1V12h-8.1v6.7h8.6C33.3,18.7,33.3,21.7,33.3,21.7z"/>
		<path class="st0" d="M57.8,21.7h-4.3L43,4.7h-0.1l0.1,1c0.1,1.8,0.2,3.5,0.2,5v11.1H40V0.3h4.2l10.5,17h0.1c0-0.2-0.1-1-0.1-2.5
			c-0.1-1.4-0.1-2.5-0.1-3.3V0.3h3.2C57.8,0.3,57.8,21.7,57.8,21.7z"/>
		<path class="st0" d="M72.1,10.1l5.1-9.8H81l-7.1,13.1v8.3h-3.5v-8.2L63.2,0.3H67L72.1,10.1z"/>
		<path class="st0" d="M98.3,15.9c0,1.9-0.7,3.4-2.1,4.5S93,22,90.6,22s-4.4-0.4-5.9-1.1v-3.3c1,0.5,2,0.8,3.1,1.1s2.1,0.4,3.1,0.4
			c1.4,0,2.4-0.3,3.1-0.8s1-1.2,1-2.1c0-0.8-0.3-1.5-0.9-2s-1.9-1.2-3.8-2c-2-0.8-3.3-1.7-4.1-2.7S85,7.3,85,5.8
			c0-1.8,0.6-3.2,1.9-4.2s3-1.5,5.1-1.5c1.9-0.1,4,0.3,6,1.2l-1.1,2.9C95,3.4,93.3,3,91.8,3c-1.1,0-2,0.2-2.6,0.7s-0.9,1.1-0.9,2
			c0,0.6,0.1,1,0.4,1.4c0.2,0.4,0.6,0.8,1.2,1.1c0.6,0.3,1.5,0.8,2.9,1.4c1.6,0.7,2.7,1.3,3.5,1.8s1.3,1.2,1.6,1.9
			S98.3,14.9,98.3,15.9z"/>
		<path class="st0" d="M104.7,21.7V0.3h3.5v21.4C108.2,21.7,104.7,21.7,104.7,21.7z"/>
		<path class="st0" d="M128.6,15.9c0,1.9-0.7,3.4-2.1,4.5s-3.3,1.6-5.7,1.6s-4.4-0.4-5.9-1.1v-3.3c1,0.5,2,0.8,3.1,1.1
			c1.1,0.3,2.1,0.4,3.1,0.4c1.4,0,2.4-0.3,3.1-0.8s1-1.2,1-2.1c0-0.8-0.3-1.5-0.9-2s-1.9-1.2-3.8-2c-2-0.8-3.3-1.7-4.1-2.7
			s-1.2-2.2-1.2-3.7c0-1.8,0.6-3.2,1.9-4.2s3-1.5,5.1-1.5s4.1,0.4,6.1,1.3l-1.1,2.9c-2-0.9-3.7-1.3-5.2-1.3c-1.1,0-2,0.2-2.6,0.7
			s-0.9,1.1-0.9,2c0,0.6,0.1,1,0.4,1.4c0.2,0.4,0.6,0.8,1.2,1.1c0.6,0.3,1.5,0.8,2.9,1.4c1.6,0.7,2.7,1.3,3.5,1.8s1.3,1.2,1.6,1.9
			S128.6,14.9,128.6,15.9z"/>
	</g>
</g>
<g id="Layer_2">
</g>
</svg>
