<svg width="119" height="40" fill="none" xmlns="http://www.w3.org/2000/svg"><path d="M36.928 31.559v-8.904c0-1.113-.303-1.99-.941-2.664a3.244 3.244 0 0 0-2.455-1.012 3.39 3.39 0 0 0-2.522 1.012c-.639.674-.942 1.551-.942 2.664v8.904l-6.187.034V6.433h6.188V15.2c1.445-1.281 3.261-1.956 5.447-1.956 2.286 0 4.136.742 5.514 2.192 1.413 1.45 2.085 3.272 2.085 5.464V31.56h-6.187ZM51.017 10.986a3.564 3.564 0 0 1-3.867.775 3.567 3.567 0 0 1-2.185-3.271c0-.945.37-1.855 1.042-2.496a3.558 3.558 0 0 1 2.522-1.046c.941 0 1.85.371 2.522 1.046a3.501 3.501 0 0 1 1.042 2.496 3.747 3.747 0 0 1-1.076 2.496Zm.572 20.573h-6.187V13.785h6.187v17.774ZM11.675 5.893c1.783-.034 3.565.27 5.212.843 1.514.573 2.724 1.214 3.531 1.99.538.506 1.345 1.282 1.345 1.282l-4.237 4.35s-.84-.607-1.244-.91c-1.648-1.214-3.194-1.822-4.64-1.822a4.365 4.365 0 0 0-2.152.473c-.572.337-.874.742-.874 1.315 0 .877.638 1.45 1.95 1.754l4.573 1.045c4.775 1.08 7.162 3.61 7.162 7.589 0 2.192-.908 4.148-2.724 5.8-1.815 1.654-4.37 2.497-7.7 2.497-2.253 0-4.203-.338-5.918-.978-1.681-.641-3.06-1.484-4.102-2.462L.41 27.209l4.91-4.318s.94.81 1.31 1.18c1.413 1.45 3.363 2.227 5.38 2.227 1.01 0 1.783-.203 2.355-.574.571-.37.84-.843.84-1.349a1.61 1.61 0 0 0-.773-1.45c-.505-.337-1.345-.607-2.455-.843l-3.934-.877c-1.917-.405-3.464-1.248-4.64-2.496-1.177-1.248-1.783-2.833-1.783-4.755 0-2.361.942-4.284 2.825-5.801 1.917-1.484 4.338-2.26 7.23-2.26ZM88.039 29.063l-2.556-4.047c-.336.27-.672.506-1.042.708-.404.304-.908.473-1.446.506-.942 0-1.413-.54-1.413-1.652V18.91h5.65v-5.126h-5.65V8.557h-6.22V26.13c0 1.956.605 3.44 1.85 4.418 1.243.978 2.757 1.484 4.539 1.484 1.11 0 2.185-.168 3.228-.573a5.526 5.526 0 0 0 2.42-1.585c.337-.236.505-.506.64-.81ZM71.024 15.809a8.294 8.294 0 0 0-6.086-2.564c-2.018 0-3.632.607-4.775 1.822v-1.282H54.01v25.733h6.153v-16.83c0-.977.37-1.888 1.043-2.596a3.61 3.61 0 0 1 2.555-1.08 3.67 3.67 0 0 1 2.556 1.08c1.378 1.45 1.378 3.744 0 5.16a3.475 3.475 0 0 1-2.556 1.08c-.437 0-.874-.035-1.278-.068v5.565c.774.202 1.58.27 2.354.27a8.325 8.325 0 0 0 6.187-2.631c1.715-1.754 2.556-4.047 2.556-6.847-.034-2.833-.875-5.092-2.556-6.812Z" fill="#241239"/><path d="M106.095 33.043a27 27 0 0 1-9.92-1.889c-1.613-.64-2.622-2.293-2.521-4.013l.874-14.536 4.405.27-.874 14.266a22.382 22.382 0 0 0 16.006-.034c-.101-1.585-.673-10.017-1.009-14.941-4.405 2.226-8.138 2.395-10.861.472-1.715-1.214-2.724-3.238-2.724-5.329a6.79 6.79 0 0 1 2.825-5.598 6.478 6.478 0 0 1 5.481-1.012c2.084.573 3.934 2.158 4.909 4.317l-4.002 1.855c-.437-.944-1.21-1.653-2.017-1.889a2.007 2.007 0 0 0-1.782.371 2.545 2.545 0 0 0-.975 1.99c-.034.675.302 1.315.84 1.72 1.682 1.18 5.078.27 9.079-2.394.706-.473 1.614-.506 2.32-.102 1.009.574 1.076 1.417 1.177 2.564l1.244 17.942c.135 1.754-.874 3.407-2.522 4.047a26.66 26.66 0 0 1-9.953 1.923Z" fill="#23cc6b"/></svg>