<svg xmlns="http://www.w3.org/2000/svg" xmlns:xlink="http://www.w3.org/1999/xlink" viewBox="0 0 234.72 51.08"><defs><style>.a{fill:#fff;}.a,.b{fill-rule:evenodd;}.c{mask:url(#a);}.d{mask:url(#b);}</style><mask id="a" x="220.72" y="20.61" width="12.8" height="17.25" maskUnits="userSpaceOnUse"><polygon class="a" points="220.72 20.61 233.53 20.61 233.53 37.86 220.72 37.86 220.72 20.61"/></mask><mask id="b" x="1.53" y="4.09" width="36.05" height="41.62" maskUnits="userSpaceOnUse"><polygon class="a" points="1.53 4.09 37.57 4.09 37.57 45.71 1.53 45.71 1.53 4.09"/></mask></defs><path class="b" d="M128,27.86s0,0,0-.05a5.3,5.3,0,0,1,10.32,0s0,0,0,0Zm5.21-7.25h-.09a8.63,8.63,0,0,0,0,17.25h.76l.22,0,.11,0,.16,0,.15,0h0a8.31,8.31,0,0,0,5.88-4.34.13.13,0,0,0,0-.06.08.08,0,0,0,0,0L137.82,32a.06.06,0,0,0-.09,0A5.29,5.29,0,0,1,128,30.66a0,0,0,0,1,0-.06h13.26s.07,0,.07-.06a8.17,8.17,0,0,0,.1-1.31,8.49,8.49,0,0,0-8.22-8.62Z"/><path class="b" d="M204.69,29.25v0A5.35,5.35,0,1,1,210,34.73a5.43,5.43,0,0,1-5.35-5.51m-3.52-17.16V37.46a.08.08,0,0,0,.07.07h3.38a.07.07,0,0,0,.07-.07V35.82s0,0,0,0a8.06,8.06,0,0,0,5.32,2h.06a8.48,8.48,0,0,0,8.32-8.63,8.48,8.48,0,0,0-8.32-8.62H210a8,8,0,0,0-5.31,2h0s0,0,0,0V12.09a.07.07,0,0,0-.07-.07h-3.38a.08.08,0,0,0-.07.07"/><path class="b" d="M60.31,23.72l-3.08-.78c-3.08-.78-3.32-2.41-3.32-3.19,0-2.22,2.05-3.6,4.35-3.6,2.49,0,4.29,1.53,4.31,3.81a0,0,0,0,0,0,0h3.51a0,0,0,0,0,.05-.05c0-4.39-3.45-7.13-7.82-7.13s-8.1,2.72-8.1,7c0,2,.85,5.1,6.05,6.41l3.11.78c2,.53,3.93,1.55,3.93,3.71s-1.7,3.79-4.6,3.79-5-2-5-4.07c0,0,0,0-.05,0H50.13a0,0,0,0,0,0,.05c0,3.91,3.48,7.38,8.66,7.38,4.92,0,8.24-3.22,8.24-7.29,0-3.57-2.58-5.8-6.68-6.82"/><path class="b" d="M178.26,34.4h-9.82V12.08a.07.07,0,0,0-.07-.07H165a.07.07,0,0,0-.07.07V37.46a.07.07,0,0,0,.07.07h13.26a.07.07,0,0,0,.07-.07v-3a.07.07,0,0,0-.07-.07"/><path class="b" d="M109.33,12H106a.07.07,0,0,0-.07.07V37.46a.07.07,0,0,0,.07.07h3.37a.07.07,0,0,0,.07-.07V12.08a.07.07,0,0,0-.07-.07"/><path class="b" d="M122.32,21h-3.2V14.84a.07.07,0,0,0-.07-.07h-3.37a.07.07,0,0,0-.07.07V21h-3.2a.07.07,0,0,0-.07.07v3a.07.07,0,0,0,.07.07h3.2V37.46a.07.07,0,0,0,.07.07h3.37a.07.07,0,0,0,.07-.07V24.09h3.2a.07.07,0,0,0,.07-.07V21a.07.07,0,0,0-.07-.07"/><path class="b" d="M76.8,28.62l7.34-7.54a.08.08,0,0,0,0-.08.08.08,0,0,0-.07,0H80l0,0-5.53,5.68c-.14.14-.15,0-.15,0V12.08a.07.07,0,0,0-.07-.07H70.8a.07.07,0,0,0-.07.07V37.46a.07.07,0,0,0,.07.07h3.37a.07.07,0,0,0,.07-.07V31.29a.11.11,0,0,1,.11-.11.11.11,0,0,1,.07,0l6.26,6.3,0,0h4.58a.1.1,0,0,0,.07,0,.08.08,0,0,0,0-.08Z"/><path class="b" d="M155.79,21.11a7.76,7.76,0,0,0-7.27,1.81h0l0,0,0,0V21a.07.07,0,0,0-.07-.07H145A.07.07,0,0,0,145,21V37.46a.07.07,0,0,0,.07.07h3.37a.07.07,0,0,0,.07-.07v-8h0v0A5.43,5.43,0,0,1,153.82,24a5.16,5.16,0,0,1,1.51.22.06.06,0,0,0,.06,0l0-.05.43-3a.08.08,0,0,0-.06-.08"/><g class="c"><path class="b" d="M229.21,28l-2.51-.6c-1-.25-2-.82-2-1.84a2.18,2.18,0,0,1,2.44-2,2.3,2.3,0,0,1,2.47,2s0,.05.05.05h3.23a.05.05,0,0,0,.05-.05c0-3.44-3.05-4.91-5.87-4.91-3.43,0-5.87,2.16-5.87,4.85,0,2.44,1.41,4,4.49,4.85l2.23.53c1.24.29,2.12.85,2.12,1.95s-1.17,2.13-3.08,2.13-3-1.11-3-2.4a0,0,0,0,0,0-.05h-3.13a.05.05,0,0,0-.05.05c.1,3.41,3.23,5.34,6.3,5.34,3.39,0,6.51-1.85,6.51-5,0-1.77-.78-4-4.32-4.85"/></g><path class="b" d="M88.88,27.86s0,0,0-.05a5.31,5.31,0,0,1,10.33,0s0,0,0,0Zm5.21-7.25H94a8.63,8.63,0,0,0,0,17.25h.76l.22,0,.11,0,.16,0,.15,0h0a8.35,8.35,0,0,0,5.89-4.34.06.06,0,0,0,0-.06s0,0,0,0L98.71,32a.07.07,0,0,0-.1,0,5.29,5.29,0,0,1-9.77-1.35,0,0,0,0,1,0-.06h13.27a.07.07,0,0,0,.07-.06,9.5,9.5,0,0,0,.09-1.31,8.49,8.49,0,0,0-8.22-8.62Z"/><path class="b" d="M188.12,34.72a5.49,5.49,0,1,1,5.33-5.49,5.41,5.41,0,0,1-5.33,5.49m8.78-13.78h-3.38a.08.08,0,0,0-.07.07v1.43c0,.15-.12,0-.12,0h0a8,8,0,0,0-5.22-1.88A8.62,8.62,0,0,0,188,37.85h.12A8,8,0,0,0,193.32,36h0s.12-.1.12.05v1.43a.08.08,0,0,0,.07.07h3.38a.08.08,0,0,0,.07-.07V21a.08.08,0,0,0-.07-.07"/><path class="b" d="M204.69,29.23A5.33,5.33,0,1,1,210,34.72a5.41,5.41,0,0,1-5.33-5.49m-3.52-17.14V37.45a.08.08,0,0,0,.07.07h3.38a.08.08,0,0,0,.07-.07V36c0-.15.12-.05.12-.05h0A8,8,0,0,0,210,37.85h.12A8.62,8.62,0,0,0,210,20.61a8,8,0,0,0-5.22,1.88h0s-.12.1-.12,0V12.09a.07.07,0,0,0-.07-.07h-3.38a.08.08,0,0,0-.07.07"/><g class="d"><polygon class="b" points="37.57 23.94 19.55 13.54 11.37 18.26 11.37 22.09 24.41 29.62 19.55 32.43 4.84 23.94 4.84 16.41 19.55 7.92 35.91 17.37 37.57 16.41 37.57 14.49 19.55 4.09 1.53 14.49 1.53 25.86 19.55 36.26 27.73 31.54 27.73 27.71 14.69 20.18 19.55 17.37 34.25 25.86 34.26 33.39 19.55 41.88 3.19 32.43 1.53 33.39 1.53 35.3 19.55 45.71 37.57 35.31 37.57 23.94"/></g></svg>