<svg xmlns="http://www.w3.org/2000/svg" viewBox="0 0 234.72 51.08"><defs><mask id="a" x="220.72" y="20.61" width="12.8" height="17.25" maskUnits="userSpaceOnUse"><path class="a" d="M220.72 20.61h12.81v17.25h-12.81V20.61z"/></mask><mask id="b" x="1.53" y="4.09" width="36.05" height="41.62" maskUnits="userSpaceOnUse"><path class="a" d="M1.53 4.09h36.04v41.62H1.53V4.09z"/></mask><style>.a{fill:#fff}.a,.b{fill-rule:evenodd}</style></defs><path class="b" d="M128 27.86v-.05a5.3 5.3 0 0 1 10.32 0Zm5.21-7.25h-.09a8.63 8.63 0 0 0 0 17.25h1.4a8.31 8.31 0 0 0 5.88-4.34.13.13 0 0 0 0-.06L137.82 32a.06.06 0 0 0-.09 0 5.29 5.29 0 0 1-9.73-1.34v-.06h13.26s.07 0 .07-.06a8.17 8.17 0 0 0 .1-1.31 8.49 8.49 0 0 0-8.22-8.62ZM204.69 29.25a5.35 5.35 0 1 1 5.31 5.48 5.43 5.43 0 0 1-5.35-5.51m-3.52-17.16v25.4a.08.08 0 0 0 .07.07h3.38a.07.07 0 0 0 .07-.07v-1.64a8.06 8.06 0 0 0 5.32 2h.06a8.48 8.48 0 0 0 8.32-8.63 8.48 8.48 0 0 0-8.32-8.62H210a8 8 0 0 0-5.31 2V12.09a.07.07 0 0 0-.07-.07h-3.38a.08.08 0 0 0-.07.07M60.31 23.72l-3.08-.78c-3.08-.78-3.32-2.41-3.32-3.19 0-2.22 2.05-3.6 4.35-3.6 2.49 0 4.29 1.53 4.31 3.81h3.51l.05-.05c0-4.39-3.45-7.13-7.82-7.13s-8.1 2.72-8.1 7c0 2 .85 5.1 6.05 6.41l3.11.78c2 .53 3.93 1.55 3.93 3.71s-1.7 3.79-4.6 3.79-5-2-5-4.07h-3.57v.05c0 3.91 3.48 7.38 8.66 7.38 4.92 0 8.24-3.22 8.24-7.29 0-3.57-2.58-5.8-6.68-6.82M178.26 34.4h-9.82V12.08a.07.07 0 0 0-.07-.07H165a.07.07 0 0 0-.07.07v25.38a.07.07 0 0 0 .07.07h13.26a.07.07 0 0 0 .07-.07v-3a.07.07 0 0 0-.07-.07M109.33 12H106a.07.07 0 0 0-.07.07v25.39a.07.07 0 0 0 .07.07h3.37a.07.07 0 0 0 .07-.07V12.08a.07.07 0 0 0-.07-.07M122.32 21h-3.2v-6.16a.07.07 0 0 0-.07-.07h-3.37a.07.07 0 0 0-.07.07V21h-3.2a.07.07 0 0 0-.07.07v3a.07.07 0 0 0 .07.07h3.2v13.32a.07.07 0 0 0 .07.07h3.37a.07.07 0 0 0 .07-.07V24.09h3.2a.07.07 0 0 0 .07-.07V21a.07.07 0 0 0-.07-.07M76.8 28.62l7.34-7.54a.08.08 0 0 0 0-.08.08.08 0 0 0-.07 0H80l-5.53 5.68c-.14.14-.15 0-.15 0v-14.6a.07.07 0 0 0-.07-.07H70.8a.07.07 0 0 0-.07.07v25.38a.07.07 0 0 0 .07.07h3.37a.07.07 0 0 0 .07-.07v-6.17a.11.11 0 0 1 .11-.11.11.11 0 0 1 .07 0l6.26 6.3h4.58a.1.1 0 0 0 .07 0 .08.08 0 0 0 0-.08ZM155.79 21.11a7.76 7.76 0 0 0-7.27 1.81V21a.07.07 0 0 0-.07-.07H145a.07.07 0 0 0 0 .07v16.46a.07.07 0 0 0 .07.07h3.37a.07.07 0 0 0 .07-.07v-8a5.43 5.43 0 0 1 5.31-5.46 5.16 5.16 0 0 1 1.51.22.06.06 0 0 0 .06 0v-.05l.43-3a.08.08 0 0 0-.06-.08"/><path class="b" d="m229.21 28-2.51-.6c-1-.25-2-.82-2-1.84a2.18 2.18 0 0 1 2.44-2 2.3 2.3 0 0 1 2.47 2s0 .05.05.05h3.23a.05.05 0 0 0 .05-.05c0-3.44-3.05-4.91-5.87-4.91-3.43 0-5.87 2.16-5.87 4.85 0 2.44 1.41 4 4.49 4.85l2.23.53c1.24.29 2.12.85 2.12 1.95s-1.17 2.13-3.08 2.13-3-1.11-3-2.4v-.05h-3.13a.05.05 0 0 0-.05.05c.1 3.41 3.23 5.34 6.3 5.34 3.39 0 6.51-1.85 6.51-5 0-1.77-.78-4-4.32-4.85" style="mask:url(#a)"/><path class="b" d="M88.88 27.86v-.05a5.31 5.31 0 0 1 10.33 0Zm5.21-7.25H94a8.63 8.63 0 0 0 0 17.25h1.4a8.35 8.35 0 0 0 5.89-4.34.06.06 0 0 0 0-.06L98.71 32a.07.07 0 0 0-.1 0 5.29 5.29 0 0 1-9.77-1.35v-.06h13.27a.07.07 0 0 0 .07-.06 9.5 9.5 0 0 0 .09-1.31 8.49 8.49 0 0 0-8.22-8.62ZM188.12 34.72a5.49 5.49 0 1 1 5.33-5.49 5.41 5.41 0 0 1-5.33 5.49m8.78-13.78h-3.38a.08.08 0 0 0-.07.07v1.43c0 .15-.12 0-.12 0a8 8 0 0 0-5.22-1.88 8.62 8.62 0 0 0-.11 17.29h.12a8 8 0 0 0 5.2-1.85s.12-.1.12.05v1.43a.08.08 0 0 0 .07.07h3.38a.08.08 0 0 0 .07-.07V21a.08.08 0 0 0-.07-.07M204.69 29.23a5.33 5.33 0 1 1 5.31 5.49 5.41 5.41 0 0 1-5.33-5.49m-3.52-17.14v25.36a.08.08 0 0 0 .07.07h3.38a.08.08 0 0 0 .07-.07V36c0-.15.12-.05.12-.05a8 8 0 0 0 5.21 1.9h.12a8.62 8.62 0 0 0-.12-17.24 8 8 0 0 0-5.22 1.88s-.12.1-.12 0v-10.4a.07.07 0 0 0-.07-.07h-3.38a.08.08 0 0 0-.07.07"/><path class="b" d="m37.57 23.94-18.02-10.4-8.18 4.72v3.83l13.04 7.53-4.86 2.81-14.71-8.49v-7.53l14.71-8.49 16.36 9.45 1.66-.96v-1.92L19.55 4.09 1.53 14.49v11.37l18.02 10.4 8.18-4.72v-3.83l-13.04-7.53 4.86-2.81 14.7 8.49.01 7.53-14.71 8.49-16.36-9.45-1.66.96v1.91l18.02 10.41 18.02-10.4V23.94z" style="mask:url(#b)"/></svg>