<svg version="1.1" id="Layer_1" xmlns="http://www.w3.org/2000/svg" x="0" y="0" viewBox="0 0 154.3 41.1" style="enable-background:new 0 0 154.3 41.1" xml:space="preserve"><style>.st0{fill:#00a9ce}</style><path class="st0" d="M45 11.4c-8.2 0-14.9 6.7-14.9 14.9S36.8 41.1 45 41.1s14.9-6.7 14.9-14.9S53.2 11.4 45 11.4zm7.2 14.7c0 4.1-3.2 7.4-7.1 7.4S38 30.2 38 26.1s3.2-7.4 7.1-7.4 7.1 3.3 7.1 7.4zM97 12c-.2-.2-.4-.2-.6-.2h-5.9c-.4 0-.7.4-.7.7v27c0 .2 0 .4.2.6.2.2.4.2.6.2h5.9c.4 0 .7-.4.7-.7v-27c0-.3 0-.5-.2-.6zm-3.5-3.8c2.2 0 4.1-1.9 4.1-4.1.2-2.2-1.9-4.1-4.1-4.1s-4.1 1.9-4.1 4.1c0 2.5 1.9 4.1 4.1 4.1zm-8-7.6H63.8c-.4 0-.8.4-.8.8v38.1c0 .2 0 .4.2.6.2.2.4.2.6.2h5.9c.4 0 .7-.4.7-.7V24h13.4c.2 0 .4 0 .6-.2.2-.2.2-.4.2-.6v-5.6c0-.4-.4-.7-.7-.7H70.4V7.7h15.1c.2 0 .4 0 .6-.2.2-.2.2-.4.2-.6V1.4c-.1-.4-.4-.8-.8-.8zM16.2 17.2c-5.9-2.6-7.8-3.7-7.8-5.9 0-3 2.8-3.9 5.4-3.9 2.8 0 5.8 1.5 5.8 5.6 0 .4.2.6.6.6h6.5c.2-.2.4-.4.4-.6C27.1 5.6 21.7.2 13.9.2c-8-.1-13 4.3-13 11 0 8 5.9 10.4 11.7 12.6l.4.2c5.4 2 7.2 3 7.2 5.6 0 3.5-3.7 4.1-5.8 4.1-3.9 0-6.9-2.8-6.9-6.5v-.4c0-.4-.2-.6-.6-.6H.6c-.2 0-.6.2-.6.6v.6c0 8.2 5.9 13.8 14.3 13.8 8 0 13.4-4.6 13.4-11.3.2-7-3.4-9.4-11.5-12.7zm138.1 21.9c0 1.1-.7 1.9-1.9 1.9-1.1 0-1.9-.7-1.9-1.9 0-1.1.7-1.9 1.9-1.9 1.1 0 1.9.8 1.9 1.9zm-3.4 0c0 .9.6 1.5 1.5 1.5s1.5-.6 1.5-1.5-.6-1.5-1.5-1.5-1.5.6-1.5 1.5zm2.3-.4c0 .2-.2.4-.4.6l.4.7h-.6l-.4-.7h-.2v.7h-.4v-1.9h.7c.5.1.9.3.9.6zm-1-.2v.6h.2c.2 0 .4-.2.4-.2 0-.2-.2-.2-.4-.2h-.2v-.2zm-7.6-36.8c2.6 0 4.6 2 4.6 4.6s-2 4.6-4.6 4.6S140 9 140 6.4s2-4.7 4.6-4.7m0-1.6c-3.5 0-6.5 3-6.5 6.5s3 6.5 6.5 6.5 6.5-3 6.5-6.5-3-6.5-6.5-6.5z"/><circle transform="rotate(-28.538 144.611 20.5)" class="st0" cx="144.6" cy="20.5" r="6.5"/><circle transform="rotate(-28.538 144.602 34.441)" class="st0" cx="144.6" cy="34.4" r="6.5"/><path class="st0" d="M130.7 15.9c1.3 0 2.4.6 3.3 1.3.9.9 1.3 2 1.3 3.3 0 2.6-2 4.6-4.6 4.6-1.3 0-2.4-.6-3.3-1.3-.9-.9-1.3-2-1.3-3.3-.3-2.6 2-4.6 4.6-4.6m0-1.9c-3.5 0-6.5 3-6.5 6.5s3 6.5 6.5 6.5 6.5-3 6.5-6.5-3-6.5-6.5-6.5z"/><circle transform="rotate(-66.109 116.69 20.46)" class="st0" cx="116.7" cy="20.5" r="6.5"/><circle transform="rotate(-66.109 130.658 6.524)" class="st0" cx="130.7" cy="6.5" r="6.5"/><circle transform="rotate(-66.109 116.706 6.507)" class="st0" cx="116.7" cy="6.5" r="6.5"/><circle transform="rotate(-66.109 130.624 34.428)" class="st0" cx="130.6" cy="34.4" r="6.5"/><path class="st0" d="M116.7 29.8c1.3 0 2.4.6 3.3 1.3.9.9 1.3 2 1.3 3.3 0 2.6-2 4.6-4.6 4.6s-4.6-2-4.6-4.6c-.2-2.6 2-4.6 4.6-4.6m0-1.9c-3.5 0-6.5 3-6.5 6.5s3 6.5 6.5 6.5 6.5-3 6.5-6.5-2.9-6.5-6.5-6.5z"/></svg>