<svg xmlns="http://www.w3.org/2000/svg" width="2500" height="2500" viewBox="0 0 192.756 192.756"><g fill-rule="evenodd" clip-rule="evenodd"><path fill="#fff" d="M0 0h192.756v192.756H0V0z"/><path d="m53.712 66.778-1.095 5.767s6.57 4.38 10.146 12.263c4.234 9.489 4.964 18.76 4.964 18.76l1.679-4.744s-.438-7.812-4.087-16.717c-4.745-11.533-11.607-15.329-11.607-15.329z" fill="#272727"/><path d="m51.96 76.049-.949 4.963s5.986 3.504 10.074 12.409c3.503 7.883 4.379 16.424 4.379 16.424l1.533-4.088s-.876-8.322-4.526-16.424C57.873 79.115 51.96 76.049 51.96 76.049z" fill="#56749f"/><path d="M61.669 71.158s2.847-8.467 9.781-8.322c6.935.146 9.708 6.059 16.205 5.475 9.344-.876 15.767-12.92 15.767-12.92l-.949-4.453s-5.766 10.584-14.891 10.949c-6.131.219-8.249-4.745-14.672-5.183-8.759-.584-11.971 9.343-11.971 9.343l.73 5.111zm8.467 21.461s3.723-7.445 10.438-7.373c6.131.073 9.343 6.059 15.84 5.548 7.591-.584 12.263-11.314 12.263-11.314l-.877-3.942s-4.014 9.125-11.678 9.417c-6.059.219-7.957-4.818-14.38-5.255-7.373-.584-11.314 7.081-11.314 7.081l-.292 5.838z" fill="#272727"/><path d="m22.032 114.371-.146 4.525c-.219-.072-3.941-.145-6.351-.145-.365 4.816-.584 12.117-.657 15.984h-6.57c.511-4.891.876-9.854.876-15.984-2.044 0-4.161.072-6.351.145l.219-4.525h18.98z" fill="#56749f"/><path d="M23.565 125.029c.146-1.314 1.095-2.701 2.773-2.701 1.533 0 2.263.875 2.263 2.701h-5.036zm10.512 2.846c.219-.803.219-1.533.219-2.336 0-4.307-2.773-6.715-7.883-6.715-8.249 0-8.905 7.008-8.905 8.613 0 6.131 4.307 7.664 9.271 7.664 1.825 0 3.649-.219 5.401-.584l.73-4.379c-1.752.51-3.577 1.021-5.401 1.021-2.117 0-4.088-.875-4.088-3.285h10.656v.001zm14.599-3.869c-1.314-.438-2.628-.729-4.015-.729-2.336 0-3.869 1.387-3.869 3.795 0 2.336 1.241 3.576 3.577 3.576 1.314 0 2.627-.291 3.869-.729l-.803 4.598c-1.533.365-3.066.584-4.599.584-5.11 0-7.957-2.773-7.957-7.883 0-1.68.365-8.395 8.249-8.395 1.971 0 3.65.146 5.256.584l.292 4.599zm7.883-10.072c-.146 1.168-.438 5.182-.584 7.373l.073.072c1.387-2.043 2.993-2.555 5.985-2.555 3.066 0 5.694 1.168 5.694 4.963 0 .803-.438 7.008-.438 10.949h-6.132c.219-2.699.438-5.475.438-8.176 0-1.459-.438-2.918-2.263-2.918-1.533 0-2.628 1.094-3.066 2.555-.511 1.678-.657 5.182-.803 8.539h-6.132c.438-3.941 1.022-13.285 1.022-20.803h6.206v.001z" fill="#56749f"/><path d="M75.976 118.312c-.292 5.475-.438 10.949-.511 16.424h-6.497c.73-6.496 1.022-12.482 1.022-20.803h11.022c1.46 0 7.446.146 7.446 5.547 0 3.285-1.898 5.037-4.891 6.059 1.241 3.139 2.774 6.059 4.087 9.197H80.72c-1.095-3.941-2.555-7.811-4.015-11.678.511.145 1.022.145 1.533.145 1.825 0 3.941-.656 3.941-2.773s-2.043-2.117-3.503-2.117h-2.7v-.001z" fill="#272727"/><path d="M93.422 125.029c.146-1.314 1.095-2.701 2.773-2.701 1.461 0 2.189.875 2.189 2.701h-4.962zm10.512 2.846c.145-.803.219-1.533.219-2.336 0-4.307-2.773-6.715-7.884-6.715-8.322 0-8.979 7.008-8.979 8.613 0 6.131 4.307 7.664 9.271 7.664 1.824 0 3.65-.219 5.402-.584l.803-4.379c-1.752.51-3.65 1.021-5.475 1.021-2.044 0-4.088-.875-4.088-3.285h10.731v.001zm7.007-4.525c.803-.146 1.531-.291 2.262-.291 2.336 0 3.504 1.387 3.504 3.648 0 1.826-.875 4.162-3.066 4.162-2.115 0-2.992-2.045-2.992-3.869-.001-1.242.146-2.41.292-3.65zm-.802 18.468c0-2.848.145-5.768.291-8.688 1.533 1.314 3.432 1.971 5.475 1.971 4.525 0 6.715-4.16 6.715-8.176 0-4.232-2.117-8.102-8.467-8.102-3.504 0-6.277.291-9.051.803 0 7.373-.439 14.818-1.096 22.191h6.133v.001zm24.597-9.125h-.072c-1.314 1.824-3.211 2.408-5.475 2.408-4.307 0-5.547-2.117-5.547-4.744 0-1.021.584-8.104.584-11.168h6.059c-.146 2.773-.584 5.547-.584 8.248 0 1.533.51 2.773 2.262 2.773 1.533 0 2.408-1.24 2.773-2.627.365-1.752.439-5.33.512-8.395h6.059c-.512 5.182-.73 10.365-.875 15.547h-5.695v-2.042h-.001zm13.797-9.343c.73-.146 1.459-.291 2.264-.291 2.262 0 3.43 1.387 3.43 3.648 0 1.826-.875 4.162-3.066 4.162-2.115 0-2.992-2.045-2.992-3.869-.001-1.242.145-2.41.364-3.65zm-.803 9.416h.072c1.242 1.607 2.848 2.336 4.891 2.336 4.965 0 7.445-4.232 7.445-8.76 0-4.891-2.846-7.518-7.664-7.518-.584 0-1.24 0-1.824.072-.658.074-1.24.146-1.826.293.146-2.189.221-3.723.439-5.256h-6.205c-.072 6.934-.512 13.869-1.021 20.803h5.693v-1.97zm20.219-18.832c-.365 3.504-1.021 15.328-1.168 20.803h-6.203c.656-6.934.947-13.869 1.168-20.803h6.203zm.365 20.802c.512-4.744.73-9.342.803-15.547h6.277c-.584 5.182-.584 10.365-.584 15.547h-6.496zm.95-17.517.072-3.65h6.059l-.145 3.65h-5.986zm20.658 6.787c-1.314-.438-2.629-.729-3.941-.729-2.41 0-3.943 1.387-3.943 3.795 0 2.336 1.242 3.576 3.578 3.576 1.312 0 2.627-.291 3.869-.729l-.805 4.598a19.343 19.343 0 0 1-4.598.584c-5.109 0-7.957-2.773-7.957-7.883 0-1.68.365-8.395 8.248-8.395 2.045 0 3.65.146 5.256.584l.293 4.599z" fill="#272727"/></g></svg>