<svg id="Layer_1" data-name="Layer 1" xmlns="http://www.w3.org/2000/svg" viewBox="0 0 576 126.09"><defs><style>.cls-1{fill:#f87b5e}</style></defs><path class="cls-1" d="M207.94 2H191a2 2 0 0 0-2 2v47.84h-50.78V3.9a2 2 0 0 0-2-2h-16.9a2 2 0 0 0-2 2v118.29a2 2 0 0 0 2 1.95h16.9a2 2 0 0 0 2-1.95V72.05h50.88v50.14a2 2 0 0 0 2 1.95H208a2 2 0 0 0 2-1.95V3.9a2 2 0 0 0-2-2M456.4 112.29l-27.7-36.87A38.31 38.31 0 0 0 413.49 2h-47.41v120.19a2 2 0 0 0 2 2h16.9a2 2 0 0 0 2-2V78.58h18.18l34.7 46.2a2 2 0 0 0 2.73.39L456 115a2 2 0 0 0 .39-2.73m-42.9-53.9h-26.61V22.16h26.61c9.65 0 17.49 8.44 17.49 18.1s-7.85 18.1-17.49 18.1M288 0c-34.76 0-59.63 28.28-59.63 63s24.87 63 59.63 63 59.63-28.28 59.63-63S322.75 0 288 0m0 105.11c-23.2 0-38-18.87-38-42.07S264.79 21 288 21s38 18.85 38 42-14.8 42.07-38 42.07M576 3.9a2 2 0 0 0-2-2h-16.9a2 2 0 0 0-1.95 2v70.88L479.81.54v121.65a2 2 0 0 0 2 2h16.9a2 2 0 0 0 1.95-2V51.5L576 125.55ZM95.6 2H2a2 2 0 0 0-2 2v16.8a2 2 0 0 0 2 1.95h36v99.44a2 2 0 0 0 2 1.95h17.56a2 2 0 0 0 1.95-1.95V22.75H95.6a2 2 0 0 0 2-1.95V3.9a2 2 0 0 0-2-2"/></svg>