<?xml version="1.0" encoding="utf-8"?>
<!-- Generator: Adobe Illustrator 21.0.2, SVG Export Plug-In . SVG Version: 6.00 Build 0)  -->
<svg version="1.1" id="Layer_1" xmlns="http://www.w3.org/2000/svg" xmlns:xlink="http://www.w3.org/1999/xlink" x="0px" y="0px"
	 viewBox="0 0 609.6 73.1" style="enable-background:new 0 0 609.6 73.1;" xml:space="preserve">
<title>00_Lockup_Black</title>
<g id="Layer_2">
	<g id="Layer_2-2">
		<polygon points="0,0 0,8.2 17.4,8.2 17.4,57.4 26.9,57.4 26.9,8.2 44.4,8.2 44.4,0 		"/>
		<path d="M70.2,15.5c4.7,0,8.3,1.3,10.8,3.9c2.6,2.7,3.9,6.4,3.8,10.2v27.8h-8.9V32.3c0-3-0.7-5.2-2.2-6.8
			c-1.6-1.7-3.9-2.6-6.2-2.4c-2.5-0.1-4.8,0.9-6.5,2.7c-1.7,1.8-2.7,4.3-2.6,6.8v24.8h-8.9V0h8.9v20.9
			C60.9,17.3,64.9,15.5,70.2,15.5"/>
		<path d="M111.3,23.1c-3.3-0.1-6.4,1.3-8.5,3.8c-2.1,2.6-3.2,6-3.2,10.2c0,4.3,1.1,7.6,3.2,10.1c4.1,4.7,11.2,5.1,15.8,1.1
			c0.4-0.3,0.7-0.7,1.1-1.1c2.1-2.6,3.2-5.9,3.2-10.1c0-4.2-1-7.6-3.2-10.2C117.7,24.4,114.5,22.9,111.3,23.1 M111.3,15.5
			c6.1,0,11.1,2,14.9,6c3.8,4,5.7,9.2,5.7,15.6c0,6.4-1.9,11.5-5.7,15.5c-3.8,4-8.8,6-14.9,6c-6.1,0-11.1-2-14.9-6
			c-3.9-4-5.8-9.2-5.8-15.5c0-6.4,1.9-11.6,5.7-15.6C100.2,17.5,105.2,15.5,111.3,15.5"/>
		<path d="M163.6,16.8h8.9v40.6h-8.2v-4.6c-2.4,3.9-6.4,5.8-12.1,5.8c-4.9,0-8.5-1.2-10.9-3.6c-2.4-2.5-3.7-6-3.6-9.5V16.8h8.9v26.4
			c-0.1,2.1,0.5,4.1,1.9,5.7c1.5,1.4,3.5,2.2,5.6,2c2.5,0.1,4.9-0.8,6.8-2.5c1.7-1.6,2.6-4,2.6-7.1L163.6,16.8z"/>
		<path d="M198.4,49.2c3,0.1,5.9-1.3,7.8-3.6c2.1-2.7,3.2-6.1,3-9.5c0.1-3.4-0.9-6.7-3-9.3c-1.9-2.3-4.8-3.7-7.8-3.6
			c-3-0.1-5.9,1.2-7.8,3.6c-2,2.7-3,6-2.9,9.4c0,3.9,1,7.1,2.9,9.5C192.5,48,195.4,49.3,198.4,49.2 M209.4,16.8h8.2v39.1
			c0,5.4-1.8,9.7-5.3,12.7c-3.5,3-8.2,4.5-14,4.5c-6.8,0-13.3-2.1-18.9-5.9l4.4-6.5c2.4,1.5,5,2.8,7.6,3.8c2.2,0.8,4.5,1.2,6.8,1.2
			c2.8,0.1,5.5-0.8,7.7-2.6c1.9-1.7,2.9-4.4,2.9-8v-4.3c-2.7,3.9-6.9,5.8-12.4,5.8c-4.9,0.1-9.6-2-12.8-5.7c-3.3-3.8-5-8.8-5-14.9
			c0-6.1,1.7-11,5-14.8c3.2-3.7,7.9-5.9,12.8-5.7c5.8,0,10.1,2.2,12.9,6.5L209.4,16.8z"/>
		<path d="M246.7,15.5c4.7,0,8.3,1.3,10.8,3.9c2.6,2.7,3.9,6.4,3.8,10.2v27.8h-8.9V32.3c0-3-0.7-5.2-2.2-6.8
			c-1.6-1.7-3.9-2.5-6.2-2.4c-2.5-0.1-4.8,0.9-6.6,2.7c-1.7,1.8-2.7,4.3-2.6,6.8v24.8H226V0h8.9v20.9
			C237.5,17.3,241.5,15.5,246.7,15.5"/>
		<path d="M291.5,49.7l1.1,7c-2.8,1-5.8,1.5-8.7,1.5c-3.9,0-6.8-0.9-8.5-2.7s-2.6-4.5-2.6-8.2V23.5h-7.4v-6.7h7.4V3.7h8.9v13.1H292
			v6.7h-10.3v22.8c-0.1,1.2,0.3,2.4,1,3.3c0.9,0.7,2.1,1.1,3.3,1C287.9,50.6,289.7,50.3,291.5,49.7"/>
		<path d="M362.2,0h15v57.4h-9.4v-29c0-0.1,0.1-7.2,0.2-21.3c-1.1,3.7-3.4,10.8-6.9,21.3l-9.6,29h-8.3l-9.8-29
			c-3.9-11.3-6.2-18.4-7-21.1c0.1,4.7,0.2,11.7,0.2,21.2v28.9h-9.1V0h15.1l8.2,24.3c3,9,5.2,16,6.6,21.3c1.5-5.4,3.7-12.5,6.6-21.3
			L362.2,0z"/>
		<path d="M400.5,51.6c3,0.1,5.9-0.8,8.3-2.6c2.3-1.8,3.5-4.6,3.4-7.5v-3.7l-7,1.4c-3.1,0.5-6.1,1.5-8.9,2.8
			c-1.8,0.9-2.9,2.7-2.8,4.7c0,1.4,0.7,2.8,1.9,3.6C396.9,51.2,398.8,51.7,400.5,51.6 M403.6,15.5c5.5,0,9.7,1.3,12.7,3.8
			c3,2.6,4.6,6.4,4.5,10.3v27.7h-8v-4.6c-2.7,3.9-7.2,5.9-13.4,5.9c-3.7,0.1-7.3-0.8-10.4-2.8c-2.7-1.9-4.1-4.8-4.1-8.6
			c0-4.3,1.6-7.4,4.8-9.5s7.7-3.7,13.4-4.7l9.3-1.7v-1.5c0.1-2-0.7-3.9-2.3-5.1c-1.8-1.3-4-1.9-6.1-1.8c-2.3-0.1-4.6,0.5-6.6,1.5
			c-2.4,1.4-4.5,3.2-6.4,5.2l-5.6-5.2C390.2,18.5,396.3,15.5,403.6,15.5"/>
		<path d="M458.2,28.7c-1.6-1.8-3.6-3.3-5.7-4.5c-1.7-0.8-3.5-1.2-5.3-1.2c-3.3-0.2-6.5,1.4-8.4,4.1c-2.1,2.9-3.1,6.4-3,10
			c-0.1,3.5,0.9,7,3,9.9c1.9,2.7,5.1,4.2,8.4,4c2,0,4-0.5,5.7-1.4c2.2-1.4,4.2-3.1,5.9-5.1l5.8,4.9c-2.2,2.9-4.9,5.4-8.1,7.1
			c-2.9,1.4-6.1,2.1-9.4,2c-6.1,0-11-1.9-14.7-5.8c-3.7-3.9-5.6-9.1-5.6-15.7c0-6.6,1.9-11.8,5.7-15.7c3.8-3.9,8.7-5.9,14.8-5.9
			c3.1-0.1,6.2,0.5,9,1.7c3,1.4,5.6,3.5,7.7,6L458.2,28.7z"/>
		<path d="M489.7,15.5c4.7,0,8.3,1.3,10.8,3.9c2.6,2.7,3.9,6.4,3.8,10.2v27.8h-8.9V32.3c0-3-0.7-5.2-2.2-6.8
			c-1.6-1.7-3.9-2.5-6.2-2.4c-2.5-0.1-4.8,0.9-6.5,2.7c-1.7,1.8-2.7,4.3-2.6,6.8v24.8h-8.9V0h8.9v20.9
			C480.5,17.3,484.4,15.5,489.7,15.5"/>
		<path d="M521.3,57.4h-8.9V16.8h8.9V57.4z M521.3,9.8h-8.9V0.7h8.9V9.8z"/>
		<path d="M550.3,15.5c4.7,0,8.3,1.3,10.8,3.9c2.6,2.7,3.9,6.4,3.8,10.2v27.8H556V32.3c0-3-0.7-5.2-2.2-6.8
			c-1.6-1.7-3.9-2.5-6.2-2.4c-2.5-0.1-4.8,0.9-6.5,2.7c-1.7,1.8-2.7,4.3-2.6,6.8v24.8h-8.9V16.8h8.2v4.8
			C540.6,17.6,544.8,15.5,550.3,15.5"/>
		<path d="M590.6,22.6c-2.6-0.1-5.2,0.9-7.1,2.7c-2,2-3.2,4.6-3.6,7.4h21c0-2.7-1-5.4-2.9-7.4C596,23.4,593.3,22.4,590.6,22.6
			 M604.5,45l5.1,5.4c-2.4,2.6-5.3,4.8-8.6,6.3c-3,1.3-6.2,1.9-9.4,1.9c-6.4,0-11.4-1.9-15.2-5.8s-5.6-9-5.6-15.5
			c0-6.5,1.8-11.7,5.4-15.8c3.6-4,8.5-6.1,14.6-6.1c6,0,10.6,1.8,13.8,5.3c3.2,3.6,4.8,8.4,4.8,14.6c0,1.3-0.1,2.5-0.2,3.6h-29.8
			c0.2,3.2,1.4,6.3,3.6,8.6c2,2.2,4.9,3.3,8.7,3.3c2.1,0.1,4.3-0.4,6.2-1.3C600.4,48.5,602.6,46.9,604.5,45"/>
	</g>
</g>
</svg>
