<svg xmlns="http://www.w3.org/2000/svg" viewBox="0 0 609.6 73.1" style="enable-background:new 0 0 609.6 73.1" xml:space="preserve"><path d="M0 0v8.2h17.4v49.2h9.5V8.2h17.5V0zM70.2 15.5c4.7 0 8.3 1.3 10.8 3.9 2.6 2.7 3.9 6.4 3.8 10.2v27.8h-8.9V32.3c0-3-.7-5.2-2.2-6.8-1.6-1.7-3.9-2.6-6.2-2.4-2.5-.1-4.8.9-6.5 2.7-1.7 1.8-2.7 4.3-2.6 6.8v24.8h-8.9V0h8.9v20.9c2.5-3.6 6.5-5.4 11.8-5.4M111.3 23.1c-3.3-.1-6.4 1.3-8.5 3.8-2.1 2.6-3.2 6-3.2 10.2 0 4.3 1.1 7.6 3.2 10.1 4.1 4.7 11.2 5.1 15.8 1.1.4-.3.7-.7 1.1-1.1 2.1-2.6 3.2-5.9 3.2-10.1 0-4.2-1-7.6-3.2-10.2-2-2.5-5.2-4-8.4-3.8m0-7.6c6.1 0 11.1 2 14.9 6 3.8 4 5.7 9.2 5.7 15.6s-1.9 11.5-5.7 15.5c-3.8 4-8.8 6-14.9 6s-11.1-2-14.9-6c-3.9-4-5.8-9.2-5.8-15.5 0-6.4 1.9-11.6 5.7-15.6 3.9-4 8.9-6 15-6M163.6 16.8h8.9v40.6h-8.2v-4.6c-2.4 3.9-6.4 5.8-12.1 5.8-4.9 0-8.5-1.2-10.9-3.6-2.4-2.5-3.7-6-3.6-9.5V16.8h8.9v26.4c-.1 2.1.5 4.1 1.9 5.7 1.5 1.4 3.5 2.2 5.6 2 2.5.1 4.9-.8 6.8-2.5 1.7-1.6 2.6-4 2.6-7.1l.1-24.5zM198.4 49.2c3 .1 5.9-1.3 7.8-3.6 2.1-2.7 3.2-6.1 3-9.5.1-3.4-.9-6.7-3-9.3-1.9-2.3-4.8-3.7-7.8-3.6-3-.1-5.9 1.2-7.8 3.6-2 2.7-3 6-2.9 9.4 0 3.9 1 7.1 2.9 9.5 1.9 2.3 4.8 3.6 7.8 3.5m11-32.4h8.2v39.1c0 5.4-1.8 9.7-5.3 12.7s-8.2 4.5-14 4.5c-6.8 0-13.3-2.1-18.9-5.9l4.4-6.5c2.4 1.5 5 2.8 7.6 3.8 2.2.8 4.5 1.2 6.8 1.2 2.8.1 5.5-.8 7.7-2.6 1.9-1.7 2.9-4.4 2.9-8v-4.3c-2.7 3.9-6.9 5.8-12.4 5.8-4.9.1-9.6-2-12.8-5.7-3.3-3.8-5-8.8-5-14.9s1.7-11 5-14.8c3.2-3.7 7.9-5.9 12.8-5.7 5.8 0 10.1 2.2 12.9 6.5l.1-5.2zM246.7 15.5c4.7 0 8.3 1.3 10.8 3.9 2.6 2.7 3.9 6.4 3.8 10.2v27.8h-8.9V32.3c0-3-.7-5.2-2.2-6.8-1.6-1.7-3.9-2.5-6.2-2.4-2.5-.1-4.8.9-6.6 2.7-1.7 1.8-2.7 4.3-2.6 6.8v24.8H226V0h8.9v20.9c2.6-3.6 6.6-5.4 11.8-5.4M291.5 49.7l1.1 7c-2.8 1-5.8 1.5-8.7 1.5-3.9 0-6.8-.9-8.5-2.7s-2.6-4.5-2.6-8.2V23.5h-7.4v-6.7h7.4V3.7h8.9v13.1H292v6.7h-10.3v22.8c-.1 1.2.3 2.4 1 3.3.9.7 2.1 1.1 3.3 1 1.9 0 3.7-.3 5.5-.9M362.2 0h15v57.4h-9.4v-29c0-.1.1-7.2.2-21.3-1.1 3.7-3.4 10.8-6.9 21.3l-9.6 29h-8.3l-9.8-29c-3.9-11.3-6.2-18.4-7-21.1.1 4.7.2 11.7.2 21.2v28.9h-9.1V0h15.1l8.2 24.3c3 9 5.2 16 6.6 21.3 1.5-5.4 3.7-12.5 6.6-21.3L362.2 0zM400.5 51.6c3 .1 5.9-.8 8.3-2.6 2.3-1.8 3.5-4.6 3.4-7.5v-3.7l-7 1.4c-3.1.5-6.1 1.5-8.9 2.8-1.8.9-2.9 2.7-2.8 4.7 0 1.4.7 2.8 1.9 3.6 1.5.9 3.4 1.4 5.1 1.3m3.1-36.1c5.5 0 9.7 1.3 12.7 3.8 3 2.6 4.6 6.4 4.5 10.3v27.7h-8v-4.6c-2.7 3.9-7.2 5.9-13.4 5.9-3.7.1-7.3-.8-10.4-2.8-2.7-1.9-4.1-4.8-4.1-8.6 0-4.3 1.6-7.4 4.8-9.5s7.7-3.7 13.4-4.7l9.3-1.7v-1.5c.1-2-.7-3.9-2.3-5.1-1.8-1.3-4-1.9-6.1-1.8-2.3-.1-4.6.5-6.6 1.5-2.4 1.4-4.5 3.2-6.4 5.2l-5.6-5.2c4.8-5.9 10.9-8.9 18.2-8.9M458.2 28.7c-1.6-1.8-3.6-3.3-5.7-4.5-1.7-.8-3.5-1.2-5.3-1.2-3.3-.2-6.5 1.4-8.4 4.1-2.1 2.9-3.1 6.4-3 10-.1 3.5.9 7 3 9.9 1.9 2.7 5.1 4.2 8.4 4 2 0 4-.5 5.7-1.4 2.2-1.4 4.2-3.1 5.9-5.1l5.8 4.9c-2.2 2.9-4.9 5.4-8.1 7.1-2.9 1.4-6.1 2.1-9.4 2-6.1 0-11-1.9-14.7-5.8-3.7-3.9-5.6-9.1-5.6-15.7s1.9-11.8 5.7-15.7c3.8-3.9 8.7-5.9 14.8-5.9 3.1-.1 6.2.5 9 1.7 3 1.4 5.6 3.5 7.7 6l-5.8 5.6zM489.7 15.5c4.7 0 8.3 1.3 10.8 3.9 2.6 2.7 3.9 6.4 3.8 10.2v27.8h-8.9V32.3c0-3-.7-5.2-2.2-6.8-1.6-1.7-3.9-2.5-6.2-2.4-2.5-.1-4.8.9-6.5 2.7-1.7 1.8-2.7 4.3-2.6 6.8v24.8H469V0h8.9v20.9c2.6-3.6 6.5-5.4 11.8-5.4M521.3 57.4h-8.9V16.8h8.9v40.6zm0-47.6h-8.9V.7h8.9v9.1zM550.3 15.5c4.7 0 8.3 1.3 10.8 3.9 2.6 2.7 3.9 6.4 3.8 10.2v27.8H556V32.3c0-3-.7-5.2-2.2-6.8-1.6-1.7-3.9-2.5-6.2-2.4-2.5-.1-4.8.9-6.5 2.7-1.7 1.8-2.7 4.3-2.6 6.8v24.8h-8.9V16.8h8.2v4.8c2.8-4 7-6.1 12.5-6.1M590.6 22.6c-2.6-.1-5.2.9-7.1 2.7-2 2-3.2 4.6-3.6 7.4h21c0-2.7-1-5.4-2.9-7.4-2-1.9-4.7-2.9-7.4-2.7M604.5 45l5.1 5.4c-2.4 2.6-5.3 4.8-8.6 6.3-3 1.3-6.2 1.9-9.4 1.9-6.4 0-11.4-1.9-15.2-5.8s-5.6-9-5.6-15.5 1.8-11.7 5.4-15.8c3.6-4 8.5-6.1 14.6-6.1 6 0 10.6 1.8 13.8 5.3 3.2 3.6 4.8 8.4 4.8 14.6 0 1.3-.1 2.5-.2 3.6h-29.8c.2 3.2 1.4 6.3 3.6 8.6 2 2.2 4.9 3.3 8.7 3.3 2.1.1 4.3-.4 6.2-1.3 2.5-1 4.7-2.6 6.6-4.5"/></svg>