<svg xmlns="http://www.w3.org/2000/svg" viewBox="0 0 356.04 69.05"><path d="M99.62 25.41a5.32 5.32 0 0 0-5.44 5.18v.11a5.25 5.25 0 0 0 5.2 5.3h.24a5.32 5.32 0 0 0 5.44-5.18v-.11a5.37 5.37 0 0 0-5.44-5.3Z" transform="translate(-35.49 -25.41)" style="fill:#00b9f2"/><path style="fill:#f04923" d="M227.44 1.67h8.89v8.96h-8.89z"/><path d="M37.14 9.66V.8H0V9.66h13.8V52.82H23.34V9.66h13.8zM96.88 14.53c-5.29 0-9.16 1.89-11.82 5.79l-.59.86-.74-5.59v-.21h-7.7v53.67h9V47.73l.73 1c2.15 3.06 6.31 4.86 11.14 4.86 9.93 0 17.41-8.42 17.41-19.6s-7.5-19.46-17.43-19.46Zm-2 8.41c5.93 0 10.06 4.57 10.06 11.11s-4.23 11.19-10.06 11.19c-4.81 0-10-3.81-10.06-10.88v-.46c0-7.2 5-11 10-11ZM144.28.95l-.06-.15h-10.85l-.05.15-20 51.55-.13.32h10.39v-.15l4.32-11.55h21.61l4.32 11.55.06.15h10.38l-.12-.32Zm-13.34 31.92 6.46-17.07 1.36-4.07 1.36 4.09 6.46 17.05ZM303.63 14.53a10.85 10.85 0 0 0-10 5.6l-.56 1.06-.85-5.6v-.21h-7.63v37.44h8.92V33c0-7.2 3.72-9.76 7.2-9.76 3.76 0 5.83 2.58 5.83 7.27v22.31h9.09V28.39c-.02-8.8-4.39-13.86-12-13.86ZM336.16 30.37c-5.93-1-7-2.45-7-4.77 0-2.53 1.82-4.17 4.63-4.17s4.46 1.4 4.74 4.16v.22h8.98v-.22c-.6-6.58-6.06-11-13.59-11-10.12 0-13.71 6.49-13.71 12 0 6.07 3.78 9.54 11.89 10.93 6.12 1.12 7.28 2.68 7.28 5.15s-2 4-5.16 4c-3.4 0-5.54-1.63-5.86-4.47v-.21h-8.86v.26c.52 7.13 5.94 11.39 14.51 11.39 13.35 0 14.39-9.22 14.39-12-.12-6.54-3.63-9.8-12.24-11.27ZM260.45 14.53c-11.54 0-19.6 8-19.6 19.52s8.24 19.6 19.6 19.6 19.75-8.24 19.75-19.6-8.12-19.52-19.75-19.52Zm.11 31c-6 0-10.36-4.8-10.36-11.42s4.36-11.42 10.36-11.42 10.29 4.7 10.29 11.42-4.23 11.4-10.29 11.4ZM213.05 15.36l.08-9v-.24h-9.09v.24l-.07 8.64v8.91l-.15 17.81c0 4 .86 6.84 2.73 8.73s5.06 2.94 9.47 2.94a19 19 0 0 0 5.62-.66h.17v-7.8l-.29.07a14.2 14.2 0 0 1-3.31.33c-3.92 0-5.38-1.6-5.38-5.9l.15-15.84h8.83v-8.2ZM190.76 40.11h-.16l-.06.16a8.15 8.15 0 0 1-8 5.2c-5.74 0-9.91-4.77-9.91-11.34s4.07-11.49 9.68-11.49a8.3 8.3 0 0 1 8.2 5.28l.06.15h8.76l-.06-.28c-1.54-8.3-8-13.26-17.14-13.26-10.87 0-18.76 8.24-18.76 19.6s7.71 19.52 18.76 19.52c8.92 0 15.37-5 17.26-13.24l.07-.3h-8.65ZM59.87 15.36h-.24v37.46h9.01V15.36h-8.77zM227.44 15.36h9.01v37.46h-9.01z"/><path d="m44.51 21.22-.54 1.44-1-7.09v-.21h-7.76v37.46h9V33.75c.15-3.37 1.21-5.79 3.25-7.4A11.5 11.5 0 0 1 54.69 24h.24v-9h-.25c-6.86.22-9.3 3.99-10.17 6.22ZM356.04 17.96a3.35 3.35 0 1 1-3.33-3.37 3.24 3.24 0 0 1 3.33 3.17Zm-.66 0a2.69 2.69 0 1 0-2.67 2.81 2.63 2.63 0 0 0 2.68-2.56 2 2 0 0 0-.01-.25Zm-2 .33.81 1.48h-.76l-.72-1.37h-.48v1.37h-.72v-3.61h1.22a1.12 1.12 0 0 1 1.24 1 1 1 0 0 1 0 .17 1 1 0 0 1-.64 1Zm-1.15-.43h.53a.54.54 0 0 0 .61-.47v-.08a.54.54 0 0 0-.51-.56h-.63Z"/></svg>