<svg xmlns="http://www.w3.org/2000/svg" viewBox="0 0 80 22" width="100"><defs><style>.a{fill:#010202}</style></defs><path class="a" d="M12 15.71a5.61 5.61 0 0 0 1.11 1.83 4.79 4.79 0 0 0 1.69 1.15 5.4 5.4 0 0 0 2.11.41 5.24 5.24 0 0 0 2.09-.42 5.15 5.15 0 0 0 1.7-1.18 5.35 5.35 0 0 0 1.13-1.8 6.73 6.73 0 0 0 .4-2.35V0h3.24v21.63h-3.25v-2a7.43 7.43 0 0 1-2.55 1.76 8.14 8.14 0 0 1-3.17.61 8.63 8.63 0 0 1-3.23-.6 7.53 7.53 0 0 1-2.59-1.72A8 8 0 0 1 9 17a9 9 0 0 1-.64-3.48V0h3.25v13.35a6.6 6.6 0 0 0 .39 2.36ZM31 0v7.88a8.43 8.43 0 0 1 2.51-1.72 7.49 7.49 0 0 1 3.09-.63 8.25 8.25 0 0 1 8.28 8.25 8 8 0 0 1-.65 3.2 8.19 8.19 0 0 1-4.39 4.37 8.19 8.19 0 0 1-3.24.65 7.65 7.65 0 0 1-3.11-.63A8.35 8.35 0 0 1 31 19.65v2h-3.1V0Zm.36 15.91a5.27 5.27 0 0 0 1.16 1.73 5.48 5.48 0 0 0 1.73 1.18 5.23 5.23 0 0 0 2.13.43 5.16 5.16 0 0 0 2.1-.43 5.43 5.43 0 0 0 1.72-1.18 5.77 5.77 0 0 0 1.16-1.73 5.4 5.4 0 0 0 .43-2.13 5.54 5.54 0 0 0-.43-2.15 5.7 5.7 0 0 0-1.16-1.74 5.22 5.22 0 0 0-1.7-1.16 5.46 5.46 0 0 0-4.2 0 5.27 5.27 0 0 0-1.73 1.16 5.41 5.41 0 0 0-1.18 1.74 5.54 5.54 0 0 0-.39 2.15 5.4 5.4 0 0 0 .38 2.13ZM46.66 10.6a8.35 8.35 0 0 1 1.7-2.6 7.85 7.85 0 0 1 2.56-1.78 8.31 8.31 0 0 1 6.37 0 7.42 7.42 0 0 1 2.5 1.71 7.93 7.93 0 0 1 1.64 2.6 8.91 8.91 0 0 1 .57 3.22v1H49.19a5.32 5.32 0 0 0 3.35 4.14 5.09 5.09 0 0 0 1.87.34 5.41 5.41 0 0 0 4.59-2.3l2.25 1.67a8.24 8.24 0 0 1-6.84 3.4 8.75 8.75 0 0 1-3.29-.62A8.08 8.08 0 0 1 46.69 17a8.41 8.41 0 0 1 0-6.41ZM51 9.38a5.24 5.24 0 0 0-1.75 2.92h9.61a5.07 5.07 0 0 0-1.71-2.92 4.85 4.85 0 0 0-6.15 0ZM67.85 9.73a4.23 4.23 0 0 0-1 2.94v9h-3.1V5.87h3.09v2a4.42 4.42 0 0 1 1.52-1.57 4.35 4.35 0 0 1 2.24-.55h1.09v2.9h-1.3a3.3 3.3 0 0 0-2.54 1.08Z"/></svg>