<svg width="200" height="39" xmlns="http://www.w3.org/2000/svg"><g fill="none" fill-rule="evenodd"><path d="M67.54 3.141v24.52c0 5.403-4.738 9.512-10.995 9.512-6.258 0-10.995-4.109-10.995-9.512V8.903c0-3.171 2.549-5.762 5.72-5.762h.404v24.475c0 2.902 2.59 4.69 5.095 4.69 2.412 0 5.005-1.653 5.005-4.69V8.591c0-2.994 2.459-5.45 5.453-5.45h.312ZM79.275 11.518c8.384 0 9.73 4.712 9.73 7.54V36.65h-.268c-3.094 0-5.74-2.603-5.74-5.7v-11.8c0-1.661-.673-3.637-3.947-3.637-1.524 0-2.42.18-3.407.538v20.6h-6.01V13.358c2.556-1.122 6.683-1.84 9.642-1.84M97.123 11.762V31.05c0 3.065-2.428 5.6-5.46 5.6h-.26V11.761h5.72Zm-2.86-8.62c1.733 0 3.12 1.332 3.12 2.977 0 1.6-1.387 2.888-3.12 2.888-1.734 0-3.164-1.289-3.164-2.888 0-1.645 1.43-2.978 3.164-2.978ZM114.321 2.618c2.825 0 5.47.626 7.669 1.966v5.902c-1.345-1.744-3.275-2.952-6.369-2.952-6.099 0-9.866 5.991-9.866 12.205 0 5.857 3.947 12.248 9.866 12.248 2.601 0 4.979-.759 6.369-2.637v5.811c-1.75 1.297-4.484 2.012-7.715 2.012-9.685 0-14.799-8.85-14.799-17.389 0-8.405 5.114-17.166 14.845-17.166M132.22 11.519c.991 0 2.255.09 3.382.268v4.802c-2.076-1.48-4.827-.987-6.043-.359v14.765c0 3.095-2.57 5.654-5.682 5.654h-.317V13.448c2.346-1.123 4.735-1.93 8.66-1.93M150.927 20.81c-.176-4.912-3.206-5.442-4.83-5.442h-.22c-3.293.088-4.83 2.433-4.83 6.813l9.88-1.371Zm5.094 3.362-14.624 2.035c.483 4.026 2.503 6.15 6.192 6.15 4.084 0 6.148-1.327 7.64-2.389v4.91c-1.492.798-4.26 1.771-8.21 1.771-7.158 0-11.417-4.867-11.417-12.655 0-7.565 3.952-12.476 10.45-12.476 6.412 0 9.969 4.293 9.969 11.725v.929ZM171.745 16.63a7.1 7.1 0 0 0-2.016-.268c-4.822 0-5.83 4.733-5.83 8.664 0 5.493 1.798 8.217 5.436 8.217.612 0 1.972-.134 2.41-.224V16.63Zm5.742-13.489v33.361c-1.404.314-6.006.67-7.934.67h-.394c-7.144-.089-11.044-4.287-11.044-11.834 0-7.637 4.076-12.55 10.386-12.55 1.228 0 2.28.134 3.2.358V8.813c0-3.126 2.454-5.671 5.522-5.671h.264ZM186.127 11.762V31.05c0 3.065-2.426 5.6-5.459 5.6h-.26V11.761h5.719Zm-2.86-8.62c1.733 0 3.12 1.332 3.12 2.977 0 1.6-1.387 2.888-3.12 2.888s-3.162-1.289-3.162-2.888c0-1.645 1.43-2.978 3.161-2.978ZM196.261 3.142v8.663H200v4.78h-3.739V29.85c0 1.606.522 2.097 2.216 2.097.435 0 1.087-.134 1.523-.312v4.957c-.262.09-1.392.58-2.914.58-4.259 0-6.607-2.142-6.607-6.028v-14.56h-2.52v-4.779h2.52V8.768c0-3.081 2.434-5.627 5.435-5.627h.347Z" fill="#A2B0CD" fill-rule="nonzero"/><path d="M20.125 10.068c.333-.49.209-.815.01-.99l-3.126-1.942a.82.82 0 0 1-.359-.68c0-.449.266-.788.87-.956 1.927-.534 8.704-.814 11.007-.814.8 0 2.175-.003 3.41.03C28.507 1.757 24.124 0 19.333 0 8.655 0 0 8.725 0 19.49c0 4.733 1.672 9.071 4.455 12.447 2.428-3.52 8.423-12.2 9.738-13.973 1.514-2.043 4.966-6.588 5.55-7.358l.382-.538ZM7.762 34.695a18.992 18.992 0 0 0 11.736 4.048c10.63 0 19.245-8.74 19.245-19.524 0-3.264-.788-6.34-2.183-9.043l.001.002c.663-.648 1.427-1.674.924-2.958-.156-.382-.904-1.25-1.096-1.46l.026.073c.469 1.435-.458 2.333-1.124 2.945-.365.336-5.252 5.01-10.983 10.095-5.051 4.48-10.702 9.04-13.974 11.526-4.604 3.497-5.5 4.005-5.5 4.005-.121.067-.324.124-.474.124a.845.845 0 0 1-.68-.332l-.004-.009-.011.15c.493.81 1.312 1.751 1.788 1.751.15 0 .353-.057.475-.122 0 0 .36-.205 1.834-1.272" fill="#A2B0CD"/><path d="m20.42 9.067-3.105-1.925a.813.813 0 0 1-.357-.677c0-.443.264-.779.865-.947 1.916-.53 8.651-.806 10.94-.806 1.081 0 3.22-.008 4.63.086 1.579.104 2.78.433 3.076 1.202.584 1.507-.382 2.436-1.07 3.062-.364.334-5.244 4.962-10.965 9.994-5.045 4.436-10.687 8.951-13.955 11.413-4.597 3.46-5.49 3.963-5.49 3.963a1.14 1.14 0 0 1-.473.123.836.836 0 0 1-.851-.847c0-.182.055-.352.15-.49 0 0 9.054-13.119 10.7-15.337 1.647-2.218 5.602-7.407 5.602-7.407s.046-.06.33-.477c.296-.433.172-.757-.026-.93Z" fill="#FFF"/></g></svg>