<svg xmlns="http://www.w3.org/2000/svg" viewBox="0 0 126.97 31.72"><defs><style>.a{fill:#2d7af7;fill-rule:evenodd}</style></defs><path class="a" d="M0 5.34h10.48a9.56 9.56 0 0 1 3.23.51 7.55 7.55 0 0 1 2.42 1.36 5.82 5.82 0 0 1 1.52 2 5.89 5.89 0 0 1 .52 2.45 6.69 6.69 0 0 1-.8 3.2 7.25 7.25 0 0 1-2.42 2.61 9.29 9.29 0 0 1 2.2 1.17 6.8 6.8 0 0 1 1.48 1.51 5.7 5.7 0 0 1 .77 1.79 6.91 6.91 0 0 1 .26 1.93 6.6 6.6 0 0 1-.66 2.91 7.67 7.67 0 0 1-1.78 2.4 8.35 8.35 0 0 1-2.56 1.61 7.86 7.86 0 0 1-3 .6H0Zm4.1 10.6h5.78a4.92 4.92 0 0 0 1.77-.31 4.42 4.42 0 0 0 1.4-.84 3.94 3.94 0 0 0 .9-1.25 3.5 3.5 0 0 0 .33-1.5 3.83 3.83 0 0 0-.23-1.33 2.6 2.6 0 0 0-.72-1.07 3.35 3.35 0 0 0-1.22-.7 5.44 5.44 0 0 0-1.76-.26H4.1Zm0 12.14h6.42a6 6 0 0 0 1.77-.26 4.7 4.7 0 0 0 1.6-.79 4 4 0 0 0 1.61-3.29 3.94 3.94 0 0 0-.4-1.75 4.27 4.27 0 0 0-1.15-1.47 5.74 5.74 0 0 0-1.87-1 7.79 7.79 0 0 0-2.51-.37H4.1Zm33.28 3h-4v-1.69a10.19 10.19 0 0 1-2.72 1.46 8.64 8.64 0 0 1-2.91.52 7.44 7.44 0 0 1-2.54-.4 5.41 5.41 0 0 1-1.91-1.16 4.92 4.92 0 0 1-1.19-1.82 6.55 6.55 0 0 1-.42-2.41V12.33h4.05v12.92a4.55 4.55 0 0 0 .21 1.37 2.18 2.18 0 0 0 .5.9 2 2 0 0 0 .81.5 3.59 3.59 0 0 0 1.07.15 5 5 0 0 0 2-.39 5.71 5.71 0 0 0 1.61-1 5 5 0 0 0 1.01-1.53 4 4 0 0 0 .41-1.75V12.33h4Zm8.9-23.73v5.32h2.76v3.14h-2.76v11.13a1.83 1.83 0 0 0 .35 1.29 1.25 1.25 0 0 0 .92.35 4.3 4.3 0 0 0 .68-.07c.29 0 .71-.12 1.25-.24v3a14.55 14.55 0 0 1-1.54.32 9.17 9.17 0 0 1-1.42.12 6.25 6.25 0 0 1-1.64-.21 3.77 3.77 0 0 1-1.36-.67 3.31 3.31 0 0 1-.94-1.2 4.22 4.22 0 0 1-.35-1.8v-12h-2.78v-3.18h2.78V7.33Zm10.76 0v5.32h2.76v3.14h-2.76v11.13a1.83 1.83 0 0 0 .35 1.29 1.25 1.25 0 0 0 .92.35 4.19 4.19 0 0 0 .68-.07c.29 0 .71-.12 1.25-.24v3a14 14 0 0 1-1.54.32 9.07 9.07 0 0 1-1.42.12 6.25 6.25 0 0 1-1.64-.21 3.77 3.77 0 0 1-1.36-.67 3.42 3.42 0 0 1-.94-1.2 4.22 4.22 0 0 1-.39-1.79v-12h-2.73v-3.19h2.73V7.33Zm4.42 14.7a12.15 12.15 0 0 1 .57-3.77 9 9 0 0 1 1.7-3.08 7.92 7.92 0 0 1 2.75-2.08 8.75 8.75 0 0 1 3.75-.77 8.88 8.88 0 0 1 3.77.77 8.17 8.17 0 0 1 2.79 2.08 9.16 9.16 0 0 1 1.72 3.08 12.31 12.31 0 0 1 0 7.53 9.31 9.31 0 0 1-1.72 3.07A8 8 0 0 1 74 30.94a9 9 0 0 1-3.77.76 8.9 8.9 0 0 1-3.75-.76 7.78 7.78 0 0 1-2.75-2.07 9.1 9.1 0 0 1-1.7-3.07 12.13 12.13 0 0 1-.57-3.76Zm4 0a9.26 9.26 0 0 0 .33 2.5 6.83 6.83 0 0 0 .94 2.06 4.62 4.62 0 0 0 1.51 1.33 3.9 3.9 0 0 0 2 .5 4 4 0 0 0 2-.5 4.62 4.62 0 0 0 1.5-1.39 7.11 7.11 0 0 0 1-2.06 9.43 9.43 0 0 0 0-5 7 7 0 0 0-1-2.06 4.65 4.65 0 0 0-1.5-1.4 4 4 0 0 0-2-.52 3.91 3.91 0 0 0-2 .52 4.65 4.65 0 0 0-1.5 1.4 6.72 6.72 0 0 0-.94 2.06 9.25 9.25 0 0 0-.33 2.52Zm16.2-9.38h4v1.67a9.8 9.8 0 0 1 2.7-1.46 8.6 8.6 0 0 1 2.89-.53 7.51 7.51 0 0 1 2.56.41 5.13 5.13 0 0 1 1.95 1.18 4.93 4.93 0 0 1 1.19 1.76 6.73 6.73 0 0 1 .41 2.41v13.26h-4V18.44a3 3 0 0 0-.68-2.25 2.55 2.55 0 0 0-1.86-.66 5.09 5.09 0 0 0-2 .4 5.42 5.42 0 0 0-1.62 1 4.86 4.86 0 0 0-1.09 1.49 4.13 4.13 0 0 0-.39 1.75v11.2h-4Z"/><path d="m113.45 27.29 1.61-2.43.88-.2a11.33 11.33 0 1 0-5 0l.88.2.5.75ZM99.89 13.61a13.57 13.57 0 1 1 16.53 13.24l-3 4.49-3-4.49a13.58 13.58 0 0 1-10.53-13.24Z" transform="translate(-.05 -.06)" style="fill:#2d7af7"/><path class="a" d="M114.2 9.07a1.12 1.12 0 0 1 1.12-1.13h2.43a1.12 1.12 0 0 1 1.12 1.12v2.42a1.12 1.12 0 0 1-1.12 1.12h-2.43a1.13 1.13 0 0 1-1.12-1.12Zm-6.52 0a1.12 1.12 0 0 1 1.11-1.13h2.43a1.12 1.12 0 0 1 1.12 1.12v2.42a1.12 1.12 0 0 1-1.12 1.12h-2.43a1.12 1.12 0 0 1-1.11-1.12Zm6.52 6.52a1.12 1.12 0 0 1 1.12-1.12h2.43a1.12 1.12 0 0 1 1.12 1.12v2.42a1.12 1.12 0 0 1-1.12 1.11h-2.43a1.12 1.12 0 0 1-1.12-1.11Zm-6.52 0a1.12 1.12 0 0 1 1.11-1.12h2.43a1.12 1.12 0 0 1 1.12 1.12v2.42a1.12 1.12 0 0 1-1.12 1.11h-2.43a1.11 1.11 0 0 1-1.11-1.11Z"/></svg>