<svg xmlns="http://www.w3.org/2000/svg" viewBox="0 0 300 300"><path d="m36.7 185.3-24.6-63.7H18l16.5 43.3a130.7 130.7 0 0 1 4.9 14.5h.4c1.6-5.3 3.2-10.2 4.9-14.6l16.5-43.2h5.9l-24.6 63.7Z" style="fill:#72c02c"/><path d="m116.5 185.3-1.5-10.1h-.4c-3.3 4.1-6.5 7-9.9 8.7a26.5 26.5 0 0 1-12 2.5c-6.3 0-11.1-1.6-14.6-4.8s-5.2-7.6-5.2-13.3a16.2 16.2 0 0 1 7.8-14.4c5.1-3.5 12.6-5.3 22.4-5.5l12.2-.3v-4.3c0-6-1.3-10.6-3.7-13.7s-6.5-4.6-11.9-4.6a40 40 0 0 0-18.4 4.9l-2.1-5a48.2 48.2 0 0 1 20.7-4.9c7 0 12.2 1.8 15.7 5.4s5.2 9.3 5.2 17v42.4ZM93 181.2c6.8 0 12.2-2 16.1-5.9s5.9-9.2 5.9-16.2v-6.2l-11.1.4c-9 .5-15.3 1.9-19.1 4.2s-5.8 6.1-5.8 11.1a12 12 0 0 0 3.7 9.3c2.4 2.2 5.9 3.3 10.3 3.3ZM158.2 181.3a44.8 44.8 0 0 0 9.6-.9v4.6a28.7 28.7 0 0 1-9.7 1.4c-5.6 0-9.8-1.5-12.5-4.5s-4-7.7-4-14.1v-41.2h-9.4v-3.4l9.4-2.6 3-14.4h2.9v15.4h18.7v5h-18.7v40.3c0 4.9.9 8.5 2.6 10.9s4.4 3.5 8.1 3.5ZM234.3 153.3c0 10.4-2.6 18.5-7.6 24.4s-12 8.7-20.9 8.7a26.8 26.8 0 0 1-14.7-4 26.1 26.1 0 0 1-9.8-11.6 41.7 41.7 0 0 1-3.4-17.5c0-10.4 2.5-18.4 7.5-24.2s12-8.7 20.8-8.7 15.6 2.9 20.6 8.8 7.5 13.9 7.5 24.1Zm-50.3 0c0 8.8 1.9 15.6 5.8 20.5s9.2 7.4 16.3 7.4 12.4-2.5 16.3-7.4 5.8-11.7 5.8-20.5-2-15.6-5.9-20.4-9.3-7.3-16.3-7.3-12.5 2.4-16.3 7.3-5.7 11.6-5.7 20.4ZM277 120.4a43.7 43.7 0 0 1 8.6.8l-1.1 5.5a36.8 36.8 0 0 0-8.2-1c-5.5 0-9.9 2.3-13.4 7s-5.2 10.4-5.2 17.4v35.2h-5.8v-63.7h4.9l.6 11.5h.4q3.9-7 8.4-9.9a19.7 19.7 0 0 1 10.8-2.8Z"/></svg>