<svg viewBox="0 0 66 36" fill="#fff" fill-rule="evenodd" stroke="#000" stroke-linecap="round" stroke-linejoin="round" width="300" height="300" font-family="Roboto" font-size="14" text-anchor="middle" xmlns="http://www.w3.org/2000/svg" xmlns:xlink="http://www.w3.org/1999/xlink"><use xlink:href="#a" x=".5" y=".5"/><symbol id="a" overflow="visible"><g stroke="none" fill-rule="nonzero"><path d="M33.457.013V7.08h-1.414c-.707-.236-.942.236-.942.707-2.12 7.304-4.477 14.372-6.833 21.676-.47 1.65-.942 3.3-1.65 4.948 0 .236-.47.47-.707.47H11.074l-.236-.707-8.246-26.4c-.236-.707-.47-.707-1.178-.707H0V0h15.08v7.068h-3.063l4.948 19.556h.236l5.42-19.556h-3.063V0z" fill="#000"/><path d="M52.646.257c1.414.236 2.827.236 4.005.707 5.42 1.414 8.246 8 5.42 12.96-.707 1.178-1.65 1.885-2.827 2.592-.47.236-.942.47-1.65.942.236.236.47.236.707.236 3.77 1.178 5.42 4.005 5.655 7.54.47 5.183-2.827 8.953-8 9.424-1.65.236-3.3.236-4.712.236h-16.26v-7.057h3.063V7.097h-3.063V.03c6.126.236 11.78.236 17.67.236zM47.463 20.99v6.833a.51.51 0 0 0 .471.471h4.005c.942 0 1.885-.47 2.356-1.414 1.178-2.12 0-4.948-2.356-5.42-1.414-.47-2.827-.47-4.477-.47zm0-6.597c1.414 0 2.592 0 4.005-.236 1.65-.236 2.592-1.65 2.592-3.3s-.942-3.063-2.356-3.3-2.827-.236-4.24-.236z" fill="#ff0113"/></g></symbol></svg>