<svg width="126" height="64" data-name="Layer 1" xmlns="http://www.w3.org/2000/svg" viewBox="0 0 125.72 29.82"><path d="m28.35 0-7.57 23.1-3.19-10.71h-5.14l5.9 16.94h5.47L34.12 0zM8.81 23.1 5.19 12.39H0l5.89 17h6l2.37-7.24-2.6-7.55zM71.18 20l8.31-7.65h-6.92l-5.34 5V4.74h-4.89v24.59h4.94v-6.77l6.62 6.77h6.63zm-10.55-2.55a4.35 4.35 0 0 0-2.35-.45 3.58 3.58 0 0 0-2.72 1.28 6 6 0 0 0-.86 3.54v7.51h-5.13V12.4h5.14v2.42h.07A4.5 4.5 0 0 1 59 12.09a3.7 3.7 0 0 1 1.7.34zM38.55 29.82c-5.39 0-9.46-3.39-9.46-8.87s4.08-8.86 9.46-8.86S48 15.47 48 21s-4.06 8.82-9.45 8.82zm0-13.37c-2.42 0-3.87 1.9-3.87 4.42s1.42 4.43 3.87 4.43 3.87-1.91 3.87-4.43-1.42-4.45-3.87-4.45zm85 12.89h-5.25l-.1-1.73a6.4 6.4 0 0 1-4.84 2.17c-3 0-6.18-1.61-6.18-5.42s3.48-5.07 6.63-5.21l4.28-.17v-.38c0-1.8-1.28-2.74-3.49-2.74a11 11 0 0 0-5.22 1.53l-1.45-3.6a17.13 17.13 0 0 1 7.24-1.7c3.18 0 5 .73 6.35 2s2 2.91 2 5.78zm-5.49-7.43-2.73.17c-1.7.07-2.7.81-2.7 2.07s1.07 2.1 2.6 2.1a3.39 3.39 0 0 0 2.82-1.55zm-11-9.53-7 16.93H95l-6.95-16.93h5.73l3.85 10.72 3.81-10.73zM86.59 29.33h-5.51V12.4h5.51zM81.08 11V4.74h6.75zm43 1.39a1.68 1.68 0 1 1 1.68-1.68 1.68 1.68 0 0 1-1.76 1.63zm0-3.1a1.43 1.43 0 1 0 1.42 1.44 1.4 1.4 0 0 0-1.38-1.42zm.8 2.41h-.47l-.41-.8h-.2v.8h-.4v-2h.75c.43 0 .7.23.7.59a.53.53 0 0 1-.4.56zm-.88-1.61h-.23v.54h.23c.18 0 .35 0 .35-.26s-.13-.31-.33-.31z" fill="#fff"/></svg>