<?xml version="1.0" encoding="UTF-8"?>
<svg width="90px" height="46px" viewBox="43 59 248 98" version="1.1"  xmlns="http://www.w3.org/2000/svg" xmlns:xlink="http://www.w3.org/1999/xlink">
    <defs id="defs6" />
    <g transform="matrix(1.3333333,0,0,-1.3333333,0,213.33333)" id="g10">
        <g transform="scale(0.1)" id="g12">
            <g fillRule="nonzero" stroke="none" fillOpacity="1">
                <path
                    fill="#ffffff"
                    d="m 2152.1,634.496 c 12.27,25.715 12.86,55.481 1.61,81.672 -11.25,26.199 -33.26,46.281 -60.37,55.094 l -3.22,1.047 c 0,0 45.25,9.554 65.46,53.781 11.85,25.941 12.66,55.598 1.31,81.785 -19.3,44.551 -47.58,83.449 -84.04,115.615 -18.07,15.94 -41.29,24.62 -65.37,24.72 -0.16,0 -0.33,0 -0.48,0 -58.28,0 -83.56,-46.48 -83.56,-46.48 v 161.4 c 0,54.58 -43.57,98.69 -98.87,99 -0.2,0 -0.39,0 -0.58,0 -23.47,0 -66.74,-7.81 -95.43,-15.5 -28.9,-7.74 -57.16,-18.15 -83.98,-30.94 -24.79,-11.83 -43.69,-33.67 -51.84,-59.92 -8.17,-26.3 -4.95,-55.05 8.81,-78.9 l 80.69,-139.765 c 0,0 -19.39,11.524 -46.44,11.524 -42.58,0 -80.28,-27.082 -93.82,-67.379 -1,-2.965 -1.95,-5.941 -2.86,-8.922 -12.87,12.391 -28.44,23.516 -47.4,32.524 -25.81,12.257 -54.7,18.738 -83.56,18.738 -22.03,0 -43.58,-3.738 -63.62,-10.942 -14.91,7.86 -31.86,12.239 -49.69,12.239 -25.28,0 -48.51,-8.867 -66.79,-23.633 v 19.492 c 0,58.711 -47.77,106.474 -106.48,106.474 -58.71,0 -106.47,-47.763 -106.47,-106.474 V 861.98 c -40.122,42.02 -93.606,59.27 -141.887,59.27 -36.2,0 -84.336,-11.781 -124.825,-45.094 -13.57,18.965 -32.839,32.942 -55.503,39.953 -10.329,3.196 -21.028,4.817 -31.805,4.817 -47.399,0 -88.66,-30.434 -102.676,-75.731 l -4.527,-14.625 -14.633,29.985 c -14.668,32.023 -52.141,60.629 -96.383,60.633 -15.211,0 -31.219,-3.379 -47.379,-11.165 -25.875,-12.46 -45.168,-34.484 -54.508,-61.636 -9.343,-27.157 -7.55,-56.321 5.043,-82.125 L 447.941,557.441 c -30.183,-11.793 -52.617,-36.07 -62,-68.992 -9.023,-31.668 -3.308,-64.629 15.688,-90.429 14.914,-20.258 44.305,-44.7 99.605,-46.032 2.008,-0.047 3.985,-0.078 5.957,-0.078 77.582,0.012 134.344,38.371 155.735,105.25 8.801,27.52 19,59.899 29.461,93.36 1.91,-4.258 3.918,-8.45 6.062,-12.52 33.598,-63.68 94.957,-98.762 172.774,-98.762 73.343,0 124.808,24.762 156.627,56.973 18.02,-33.32 53.27,-56 93.73,-56 25.28,0 48.51,8.859 66.79,23.629 v -19.488 c 0,-58.723 47.77,-106.481 106.48,-106.481 57.78,0 104.96,46.258 106.44,103.688 0.07,0 1.75,-0.09 4.72,-0.09 18.4,0 86.61,3.5 133.77,53.781 5.65,6.02 15.7,16.422 25.97,33.75 13.04,-7.18 28.03,-11.27 43.97,-11.27 12.91,0 25.18,2.692 36.31,7.52 6.13,-7.82 13.45,-14.77 21.81,-20.512 39.45,-27.097 85.17,-45.597 132.22,-53.5 5.43,-0.91 10.97,-1.367 16.45,-1.367 53.6,0 97.04,41.969 98.91,95.551 l 0.12,3.418 1.81,-2.899 c 18.2,-29.14 49.6,-46.543 83.99,-46.543 22.92,0 45.3,8.051 63,22.661 36.79,30.363 67.14,69.242 87.76,112.437"
                />
                <path
                    fill="#cccccc"
                    d="m 2001.34,499.398 c -34.39,0 -65.79,17.403 -83.99,46.543 l -1.81,2.899 -0.12,-3.418 c -1.87,-53.582 -45.31,-95.551 -98.91,-95.551 -5.48,0 -11.02,0.457 -16.45,1.367 -47.05,7.903 -92.77,26.403 -132.22,53.5 -8.36,5.742 -15.68,12.692 -21.81,20.512 -11.13,-4.828 -23.4,-7.52 -36.31,-7.52 -15.94,0 -30.93,4.09 -43.97,11.27 -10.27,-17.328 -20.32,-27.73 -25.97,-33.75 -47.16,-50.281 -115.37,-53.781 -133.77,-53.781 -2.97,0 -4.65,0.09 -4.72,0.09 -1.48,-57.43 -48.66,-103.688 -106.44,-103.688 -58.71,0 -106.48,47.758 -106.48,106.481 v 19.488 c -18.28,-14.77 -41.51,-23.629 -66.79,-23.629 -40.46,0 -75.71,22.68 -93.73,56 C 996.031,464 944.566,439.238 871.223,439.238 c -77.817,0 -139.176,35.082 -172.774,98.762 -2.144,4.07 -4.152,8.262 -6.062,12.52 -10.461,-33.461 -20.66,-65.84 -29.461,-93.36 -21.391,-66.879 -78.153,-105.238 -155.735,-105.25 -1.972,0 -3.949,0.031 -5.957,0.078 -55.3,1.332 -84.691,25.774 -99.605,46.032 -18.996,25.8 -24.711,58.761 -15.688,90.429 9.383,32.922 31.817,57.199 62,68.992 L 346.027,766.262 c -12.593,25.804 -14.386,54.968 -5.043,82.125 9.34,27.152 28.633,49.176 54.508,61.636 16.16,7.786 32.168,11.165 47.379,11.165 44.242,-0.004 81.715,-28.61 96.383,-60.633 l 14.633,-29.985 4.527,14.625 c 14.016,45.297 55.277,75.731 102.676,75.731 10.777,0 21.476,-1.621 31.805,-4.817 22.664,-7.011 41.933,-20.988 55.503,-39.953 40.489,33.313 88.625,45.094 124.825,45.094 48.281,0 101.765,-17.25 141.887,-59.27 v 58.766 c 0,58.711 47.76,106.474 106.47,106.474 58.71,0 106.48,-47.763 106.48,-106.474 v -19.492 c 18.28,14.766 41.51,23.633 66.79,23.633 17.83,0 34.78,-4.379 49.69,-12.239 20.04,7.204 41.59,10.942 63.62,10.942 28.86,0 57.75,-6.481 83.56,-18.738 18.96,-9.008 34.53,-20.133 47.4,-32.524 0.91,2.981 1.86,5.957 2.86,8.922 13.54,40.297 51.24,67.379 93.82,67.379 27.05,0 46.44,-11.524 46.44,-11.524 l -80.69,139.765 c -13.76,23.85 -16.98,52.6 -8.81,78.9 8.15,26.25 27.05,48.09 51.84,59.92 26.82,12.79 55.08,23.2 83.98,30.94 28.69,7.69 71.96,15.5 95.43,15.5 0.19,0 0.38,0 0.58,0 55.3,-0.31 98.87,-44.42 98.87,-99 v -161.4 c 0,0 25.28,46.48 83.56,46.48 0.15,0 0.32,0 0.48,0 24.08,-0.1 47.3,-8.78 65.37,-24.72 36.46,-32.166 64.74,-71.064 84.04,-115.615 11.35,-26.187 10.54,-55.844 -1.31,-81.785 -20.21,-44.227 -65.46,-53.781 -65.46,-53.781 l 3.22,-1.047 c 27.11,-8.813 49.12,-28.895 60.37,-55.094 11.25,-26.191 10.66,-55.957 -1.61,-81.672 -20.62,-43.195 -50.97,-82.074 -87.76,-112.437 -17.7,-14.61 -40.08,-22.661 -63,-22.661 z m 104.06,272.645 c 15.79,6.582 40.81,21.348 54.79,51.937 12.59,27.547 13.08,58.86 1.36,85.911 -19.6,45.242 -48.32,84.742 -85.35,117.409 -18.87,16.65 -43.27,25.88 -68.7,25.99 h -0.5 c -40.73,0 -65.97,-21.29 -78.48,-35.86 v 145.7 c 0,27.8 -10.72,53.88 -30.18,73.43 -19.51,19.61 -45.7,30.49 -73.75,30.65 h -0.6 c -23.94,0 -67.99,-7.97 -96.74,-15.67 -29.2,-7.83 -57.75,-18.35 -84.86,-31.27 -26.06,-12.43 -45.93,-35.39 -54.5,-63 -8.58,-27.64 -5.21,-57.87 9.27,-82.93 l 72.98,-126.426 c -8.61,2.945 -20.5,5.789 -34.34,5.789 -44.76,0 -84.4,-28.465 -98.63,-70.836 -0.16,-0.469 -0.32,-0.941 -0.48,-1.418 -12.64,11.086 -27,20.485 -42.79,27.985 -26.49,12.582 -56.14,19.23 -85.74,19.23 -21.85,0 -43.11,-3.531 -63.24,-10.5 -15.43,7.727 -32.69,11.801 -50.07,11.801 -21.94,0 -43.5,-6.582 -61.71,-18.699 v 9.48 c 0,61.512 -50.05,111.554 -111.56,111.554 -61.51,0 -111.55,-50.042 -111.55,-111.554 v -46.68 c -36.296,33.348 -85.467,52.258 -136.807,52.258 -21.012,0 -74.321,-4.261 -123.91,-42.937 -14.075,17.836 -32.954,30.773 -54.918,37.57 -10.817,3.348 -22.024,5.047 -33.305,5.047 -49.637,0 -92.848,-31.871 -107.527,-79.309 l -0.739,-2.382 -9.011,18.468 c -13.973,30.516 -51.559,63.481 -100.942,63.485 -16.824,0 -33.508,-3.926 -49.582,-11.668 -26.973,-12.993 -47.254,-35.922 -57.105,-64.563 -9.786,-28.433 -7.911,-58.976 5.281,-86 l 99.558,-203.996 c -29.582,-13.23 -50.777,-37.961 -59.964,-70.199 -9.457,-33.192 -3.454,-67.75 16.48,-94.828 15.59,-21.18 46.215,-46.711 103.57,-48.102 2.047,-0.051 4.071,-0.07 6.082,-0.07 79.938,0 138.461,39.648 160.567,108.769 7.168,22.411 15.773,49.653 25.633,81.121 0.187,-0.371 0.379,-0.73 0.57,-1.089 34.516,-65.442 97.469,-101.481 177.262,-101.481 79.859,0 128.156,28.281 155.507,53.871 20.31,-32.793 56.07,-52.902 94.85,-52.902 21.94,0 43.5,6.582 61.71,18.703 v -9.48 c 0,-61.512 50.05,-111.563 111.56,-111.563 29.24,0 56.9,11.281 77.88,31.762 19.72,19.258 31.47,44.609 33.39,71.847 20.21,0.012 89.25,4.09 137.36,55.383 l 0.76,0.801 c 5.41,5.758 14.16,15.066 23.38,29.738 13.05,-6.34 27.51,-9.672 42.1,-9.672 11.99,0 23.67,2.184 34.75,6.473 6.01,-7.109 12.89,-13.34 20.5,-18.57 40.05,-27.512 86.47,-46.289 134.25,-54.321 5.71,-0.949 11.52,-1.441 17.29,-1.441 52.55,0 95.81,38.371 103,89.242 19.63,-25.051 49.47,-39.711 81.83,-39.711 24.1,0 47.62,8.461 66.23,23.821 37.36,30.828 68.18,70.308 89.11,114.168 12.9,27.035 13.52,58.328 1.7,85.859 -10.34,24.078 -29.32,43.242 -52.98,53.875"
                />
            </g>
            <path
                fillRule="evenodd"
                stroke="none"
                fillOpacity="1"
                fill="#050505"
                d="m 1159.17,546.68 c 0,-20.758 -16.83,-37.59 -37.59,-37.59 -20.76,0 -37.58,16.832 -37.58,37.59 v 374.066 c 0,20.762 16.82,37.59 37.58,37.59 20.76,0 37.59,-16.828 37.59,-37.59 V 546.68"
            />
            <g fillRule="nonzero" stroke="none" fillOpacity="1" fill="#050505">
                <path d="m 817.418,718.516 c 2.512,51.925 41.84,60.464 59.527,60.464 17.782,0 57.258,-8.648 59.36,-61.347 0,-2.789 -1.492,-4.434 -3.141,-4.434 H 820.688 c -1.817,0 -3.454,1.832 -3.27,5.317 z m 16.348,-67.184 135.035,-0.141 c 0.933,0 1.863,0.071 2.793,0.137 18.734,1.418 36.496,16.961 36.566,41.856 0,0.046 0.01,0.093 0.01,0.14 -0.02,0.656 -0.09,1.262 -0.13,1.906 -6.7,137.254 -94.841,157.129 -134.817,157.129 -41.567,0 -135.7,-24.535 -135.7,-177.152 0.715,-57.391 13.008,-167.078 133.7,-167.078 104.254,0 127.593,60.211 127.593,75.57 0,22.656 -18.871,41.875 -40.183,34.645 -17.297,-5.867 -41.016,-40.313 -79.238,-40.313 -54.688,0 -61.77,50.004 -61.77,60.653 0,8.789 4.586,12.211 16.141,12.648" />
                <path d="M 525.379,555.84 407.938,796.477 c -9.356,19.164 -1.403,42.285 17.765,51.636 19.164,9.36 42.285,1.403 51.637,-17.765 l 90.926,-186.317 55.957,180.797 c 6.304,20.371 27.918,31.781 48.304,25.473 20.371,-6.305 31.774,-27.934 25.469,-48.305 0,0 -62.891,-205.676 -100.687,-323.855 -12.504,-39.102 -45.274,-58.493 -94.387,-57.282 -48.578,1.172 -56.113,29.821 -50.731,48.711 5.922,20.77 23.262,27.051 40.235,26.961 43.887,-0.23 49.476,26.36 32.953,59.309" />
                <path d="m 1605.27,606.609 h 4.16 c 3.38,0 6.53,0.176 6.53,3.993 0,3.363 -2.87,3.765 -5.48,3.765 h -5.21 z m -3.39,10.793 h 8.9 c 5.79,0 8.53,-2.136 8.53,-6.98 0,-4.32 -2.78,-6.168 -6.41,-6.563 l 6.99,-10.711 h -3.66 l -6.62,10.438 h -4.34 v -10.438 h -3.39 z m 7.83,-29.843 c 9.84,0 17.72,7.722 17.72,17.972 0,10.043 -7.88,17.77 -17.72,17.77 -9.84,0 -17.72,-7.727 -17.72,-17.985 0,-10.035 7.88,-17.757 17.72,-17.757 z m 0,38.777 c 11.47,0 21.09,-8.992 21.09,-20.805 0,-12.019 -9.62,-21.019 -21.09,-21.019 -11.47,0 -21.07,9 -21.07,20.804 0,12.028 9.6,21.02 21.07,21.02" />
                <path d="m 1456.07,667.563 c 0,-29.711 0,-83.051 -54.02,-83.051 -54.18,0 -54.02,53.34 -54.02,83.051 v 27.14 c 0,29.711 0,83.051 54.02,83.051 54.17,0 54.02,-53.34 54.02,-83.051 z m 74.45,28.542 c 0,49.329 -6.06,116.926 -68.35,146.516 -35.14,16.688 -78.42,16.395 -111.7,-2.84 -6.67,-3.859 -13.28,-8.129 -19.13,-12.496 -4,16.469 -18.8,28.715 -36.49,28.715 -20.76,0 -37.59,-16.828 -37.59,-37.59 V 444.352 c 0,-20.762 16.83,-37.59 37.59,-37.59 20.76,0 37.59,16.828 37.59,37.59 v 98.168 c 0,0 25.25,-30.961 65.45,-32.008 142.76,-3.723 133.41,151.551 132.63,185.593" />
            </g>
            <g fillRule="evenodd" stroke="none" fillOpacity="1" fill="#d32323">
                <path d="m 1648.99,876.68 131.26,-64.012 c 25.25,-12.313 21.34,-49.445 -5.91,-56.238 l -141.69,-35.332 c -17.68,-4.407 -35.13,7.789 -37.21,25.882 -4.46,38.704 -0.06,76.93 11.84,112.317 5.77,17.187 25.41,25.332 41.71,17.383" />
                <path d="m 1701.54,606.473 97.7,108.511 c 18.79,20.879 53.41,6.895 52.43,-21.179 l -5.1,-145.985 c -0.63,-18.191 -17.15,-31.66 -35.1,-28.64 -37.75,6.34 -73.46,20.929 -104.63,42.34 -14.98,10.289 -17.46,31.441 -5.3,44.953" />
                <path d="m 1933.18,750.875 138.87,-45.129 c 17.28,-5.617 25.71,-25.176 17.88,-41.578 -16.29,-34.125 -39.92,-64.617 -69.44,-88.977 -14.04,-11.589 -35.07,-8.191 -44.72,7.25 l -77.41,123.875 c -14.88,23.825 8.1,53.243 34.82,44.559" />
                <path d="m 2074.4,839.465 -140.38,-40.25 c -27,-7.742 -48.94,22.461 -33.23,45.75 l 81.67,121.066 c 10.14,15.032 31.21,17.797 44.81,5.805 27.99,-24.699 50.92,-55.602 66.41,-91.352 7.24,-16.711 -1.77,-36 -19.28,-41.019" />
                <path d="m 1746.39,1180.09 c -25.26,-6.77 -49.36,-15.71 -72.15,-26.58 -15.82,-7.55 -21.79,-27.02 -13.03,-42.19 l 137.2,-237.64 c 15.39,-26.66 56.14,-15.742 56.14,15.043 v 274.397 c 0,17.52 -14.91,31.4 -32.38,30.03 -25.17,-1.99 -50.51,-6.29 -75.78,-13.06" />
            </g>
        </g>
    </g>
</svg>
