<svg width="90" height="46" viewBox="43 59 248 98" xmlns="http://www.w3.org/2000/svg"><path fill="#fff" d="M286.947 128.734a13.195 13.195 0 0 0 .214-10.89 13.204 13.204 0 0 0-8.049-7.346l-.43-.14s6.034-1.273 8.729-7.17c1.58-3.459 1.688-7.413.174-10.905a43.434 43.434 0 0 0-11.205-15.415 13.237 13.237 0 0 0-8.716-3.296h-.064c-7.77 0-11.141 6.197-11.141 6.197V58.25c0-7.277-5.81-13.158-13.183-13.2h-.077c-3.13 0-8.899 1.042-12.724 2.067a65.365 65.365 0 0 0-11.198 4.125 13.222 13.222 0 0 0-6.912 7.99 13.246 13.246 0 0 0 1.175 10.52l10.759 18.635s-2.586-1.537-6.192-1.537a13.18 13.18 0 0 0-12.51 8.984c-.133.396-.26.792-.381 1.19-1.716-1.652-3.792-3.136-6.32-4.337a26.127 26.127 0 0 0-11.141-2.498c-2.938 0-5.811.498-8.483 1.459a14.178 14.178 0 0 0-6.625-1.632c-3.371 0-6.468 1.182-8.906 3.151v-2.599c0-7.828-6.369-14.196-14.197-14.196-7.828 0-14.196 6.368-14.196 14.196v7.836c-5.35-5.603-12.48-7.903-18.918-7.903-4.827 0-11.245 1.57-16.644 6.013a14.219 14.219 0 0 0-7.4-5.328 14.332 14.332 0 0 0-4.24-.642 14.264 14.264 0 0 0-13.69 10.098l-.604 1.95-1.951-3.998c-1.956-4.27-6.953-8.084-12.852-8.085-2.028 0-4.162.45-6.317 1.489-3.45 1.661-6.022 4.598-7.267 8.218a14.24 14.24 0 0 0 .672 10.95l13.588 27.843c-4.024 1.572-7.015 4.81-8.266 9.199-1.203 4.222-.441 8.617 2.092 12.057 1.988 2.701 5.907 5.96 13.28 6.138.268.006.532.01.794.01 10.345-.002 17.913-5.116 20.765-14.033 1.174-3.67 2.533-7.987 3.928-12.448.255.567.523 1.126.809 1.669 4.48 8.49 12.66 13.168 23.036 13.168 9.78 0 16.641-3.301 20.884-7.596 2.402 4.443 7.102 7.467 12.497 7.467 3.37 0 6.468-1.182 8.905-3.151v2.598c0 7.83 6.37 14.198 14.198 14.198 7.704 0 13.994-6.168 14.192-13.825.009 0 .233.012.629.012 2.453 0 11.548-.467 17.836-7.171.753-.803 2.093-2.19 3.463-4.5a12.12 12.12 0 0 0 5.862 1.503c1.722 0 3.358-.36 4.842-1.003a13.175 13.175 0 0 0 2.908 2.735 44.317 44.317 0 0 0 17.629 7.133c.724.122 1.463.183 2.193.183a13.148 13.148 0 0 0 13.188-12.74l.016-.456.242.386a13.127 13.127 0 0 0 11.198 6.206c3.056 0 6.04-1.074 8.4-3.022a44.318 44.318 0 0 0 11.702-14.991"/><path fill="#ccc" d="M266.845 146.747c-4.585 0-8.772-2.32-11.198-6.206l-.242-.386-.016.455a13.148 13.148 0 0 1-13.188 12.74c-.73 0-1.469-.06-2.193-.182a44.317 44.317 0 0 1-17.63-7.133 13.175 13.175 0 0 1-2.907-2.735 12.133 12.133 0 0 1-4.842 1.003 12.12 12.12 0 0 1-5.862-1.503c-1.37 2.31-2.71 3.697-3.463 4.5-6.288 6.704-15.383 7.17-17.836 7.17-.396 0-.62-.011-.63-.011-.197 7.657-6.487 13.825-14.191 13.825-7.828 0-14.198-6.368-14.198-14.198v-2.598a14.123 14.123 0 0 1-8.905 3.15c-5.395 0-10.095-3.023-12.497-7.466-4.243 4.295-11.105 7.596-20.884 7.596-10.376 0-18.557-4.677-23.036-13.168a29.404 29.404 0 0 1-.809-1.67 2075.166 2075.166 0 0 1-3.928 12.449c-2.852 8.917-10.42 14.031-20.765 14.033-.262 0-.526-.004-.794-.01-7.373-.178-11.292-3.437-13.28-6.138-2.533-3.44-3.295-7.835-2.092-12.057 1.25-4.39 4.242-7.627 8.266-9.2l-13.588-27.842a14.24 14.24 0 0 1-.672-10.95c1.245-3.62 3.817-6.557 7.267-8.218 2.155-1.038 4.29-1.489 6.317-1.489 5.9 0 10.896 3.815 12.852 8.085l1.95 3.998.604-1.95a14.264 14.264 0 0 1 13.69-10.098c1.437 0 2.864.216 4.241.642a14.219 14.219 0 0 1 7.4 5.328c5.399-4.442 11.817-6.013 16.644-6.013 6.437 0 13.568 2.3 18.918 7.903v-7.836c0-7.828 6.368-14.196 14.196-14.196 7.828 0 14.197 6.368 14.197 14.196v2.6a14.126 14.126 0 0 1 8.906-3.152c2.377 0 4.637.584 6.625 1.632a25.088 25.088 0 0 1 8.483-1.459c3.848 0 7.7.864 11.141 2.498 2.528 1.201 4.604 2.685 6.32 4.337.121-.398.248-.794.381-1.19a13.18 13.18 0 0 1 12.51-8.984c3.606 0 6.192 1.537 6.192 1.537L213.54 69.751a13.246 13.246 0 0 1-1.175-10.52 13.222 13.222 0 0 1 6.912-7.99 65.365 65.365 0 0 1 11.198-4.125c3.825-1.025 9.594-2.067 12.724-2.067h.077c7.373.042 13.183 5.923 13.183 13.2v21.52s3.37-6.197 11.141-6.197h.064c3.21.013 6.307 1.17 8.716 3.296a43.434 43.434 0 0 1 11.205 15.415c1.514 3.492 1.406 7.446-.174 10.905-2.695 5.897-8.728 7.17-8.728 7.17l.429.14a13.204 13.204 0 0 1 8.05 7.346 13.195 13.195 0 0 1-.215 10.89 44.318 44.318 0 0 1-11.702 14.991 13.229 13.229 0 0 1-8.4 3.022zm13.875-36.353c2.105-.877 5.441-2.846 7.305-6.925 1.679-3.673 1.744-7.848.182-11.454a44.107 44.107 0 0 0-11.38-15.655 13.922 13.922 0 0 0-9.16-3.465h-.067c-5.43 0-8.796 2.838-10.464 4.781V58.249c0-3.706-1.43-7.184-4.024-9.79-2.601-2.615-6.093-4.066-9.833-4.087h-.08c-3.192 0-9.066 1.063-12.899 2.09a66.246 66.246 0 0 0-11.315 4.169 13.896 13.896 0 0 0-7.266 8.4 13.918 13.918 0 0 0 1.236 11.057l9.73 16.857a14.236 14.236 0 0 0-4.578-.772 13.855 13.855 0 0 0-13.215 9.634 24.704 24.704 0 0 0-5.705-3.732 26.807 26.807 0 0 0-11.432-2.564 25.7 25.7 0 0 0-8.432 1.4 14.96 14.96 0 0 0-6.676-1.573c-2.926 0-5.8.878-8.228 2.493v-1.264c0-8.201-6.674-14.874-14.875-14.874s-14.873 6.673-14.873 14.874v6.224c-4.84-4.446-11.396-6.968-18.241-6.968-2.802 0-9.91.569-16.522 5.725a14.845 14.845 0 0 0-7.322-5.009 15.006 15.006 0 0 0-4.44-.673c-6.619 0-12.38 4.25-14.338 10.575l-.098.317-1.202-2.462c-1.863-4.069-6.874-8.464-13.459-8.465-2.243 0-4.467.524-6.61 1.556-3.597 1.732-6.301 4.79-7.614 8.608a14.908 14.908 0 0 0 .704 11.467l13.274 27.2c-3.944 1.763-6.77 5.06-7.995 9.36-1.261 4.425-.46 9.033 2.197 12.643 2.079 2.824 6.162 6.228 13.81 6.414.272.006.542.009.81.009 10.659 0 18.462-5.286 21.41-14.503.955-2.988 2.102-6.62 3.417-10.816l.076.146c4.602 8.725 12.996 13.53 23.635 13.53 10.648 0 17.088-3.77 20.734-7.182a14.87 14.87 0 0 0 12.647 7.053c2.925 0 5.8-.877 8.228-2.494v1.264c0 8.202 6.673 14.875 14.875 14.875 3.898 0 7.586-1.504 10.384-4.234a14.79 14.79 0 0 0 4.452-9.58c2.694-.002 11.9-.545 18.314-7.384l.102-.107c.721-.768 1.888-2.01 3.117-3.965a12.875 12.875 0 0 0 10.247.426 13.847 13.847 0 0 0 2.733 2.476 45.004 45.004 0 0 0 17.9 7.243c.761.127 1.536.192 2.305.192a13.816 13.816 0 0 0 13.734-11.899c2.617 3.34 6.596 5.295 10.91 5.295 3.214 0 6.35-1.128 8.831-3.176a44.979 44.979 0 0 0 11.881-15.223 13.874 13.874 0 0 0-6.837-18.63"/><path fill="#050505" d="M154.556 140.443a5.012 5.012 0 0 1-10.023 0V90.567a5.01 5.01 0 1 1 10.023 0v49.876"/><g fill="#050505"><path d="M108.99 117.531c.334-6.923 5.578-8.062 7.936-8.062 2.37 0 7.634 1.153 7.915 8.18 0 .372-.2.591-.42.591h-14.996c-.242 0-.46-.244-.436-.709zm2.179 8.958 18.004.019c.125 0 .249-.01.373-.018 2.498-.19 4.866-2.262 4.875-5.581l.002-.019c-.003-.087-.012-.168-.018-.254-.893-18.3-12.645-20.95-17.975-20.95-5.543 0-18.094 3.27-18.094 23.62.096 7.652 1.735 22.277 17.827 22.277 13.9 0 17.012-8.028 17.012-10.076 0-3.021-2.516-5.584-5.357-4.62-2.307.783-5.47 5.376-10.565 5.376-7.292 0-8.236-6.668-8.236-8.088 0-1.171.611-1.628 2.152-1.686M70.05 139.221l-15.658-32.085a5.148 5.148 0 0 1 2.368-6.884 5.147 5.147 0 0 1 6.885 2.368l12.124 24.843 7.46-24.107a5.148 5.148 0 1 1 9.837 3.045s-8.385 27.423-13.425 43.18c-1.667 5.214-6.036 7.8-12.585 7.638-6.477-.156-7.481-3.976-6.764-6.495.79-2.77 3.102-3.607 5.365-3.595 5.851.03 6.597-3.514 4.394-7.908M214.036 132.452h.555c.45 0 .87-.023.87-.532 0-.449-.382-.502-.73-.502h-.695zm-.452-1.439h1.187c.772 0 1.137.285 1.137.93 0 .577-.37.823-.855.876l.932 1.428h-.488l-.882-1.392h-.579v1.392h-.452zm1.044 3.98c1.312 0 2.363-1.03 2.363-2.397 0-1.34-1.051-2.37-2.363-2.37s-2.363 1.03-2.363 2.399a2.341 2.341 0 0 0 2.363 2.367zm0-5.171c1.53 0 2.812 1.199 2.812 2.774 0 1.602-1.283 2.802-2.812 2.802-1.53 0-2.81-1.2-2.81-2.773 0-1.604 1.28-2.803 2.81-2.803M194.143 124.325c0 3.961 0 11.073-7.203 11.073-7.224 0-7.203-7.112-7.203-11.073v-3.619c0-3.961 0-11.073 7.203-11.073 7.223 0 7.203 7.112 7.203 11.073zm9.926-3.806c0-6.577-.808-15.59-9.113-19.535-4.685-2.225-10.456-2.186-14.893.379-.89.514-1.771 1.083-2.551 1.666a5.011 5.011 0 0 0-4.865-3.829 5.012 5.012 0 0 0-5.012 5.012v49.874a5.012 5.012 0 1 0 10.024 0v-13.089s3.366 4.128 8.726 4.268c19.035.496 17.788-20.207 17.684-24.746"/></g><g fill="#d32323"><path d="m219.865 96.443 17.502 8.535c3.366 1.641 2.845 6.592-.788 7.498l-18.892 4.71c-2.358.589-4.684-1.038-4.962-3.45a34.526 34.526 0 0 1 1.579-14.976c.77-2.291 3.388-3.377 5.561-2.317M226.872 132.47l13.027-14.468c2.505-2.784 7.121-.92 6.99 2.824l-.68 19.465a4.015 4.015 0 0 1-4.68 3.818 34.855 34.855 0 0 1-13.95-5.645 4.015 4.015 0 0 1-.707-5.994M257.757 113.217l18.516 6.017a4.015 4.015 0 0 1 2.384 5.544 34.854 34.854 0 0 1-9.258 11.863 4.016 4.016 0 0 1-5.963-.966l-10.321-16.517c-1.984-3.177 1.08-7.1 4.642-5.941M276.587 101.405l-18.718 5.366c-3.6 1.033-6.525-2.994-4.43-6.1l10.889-16.142c1.352-2.004 4.161-2.373 5.975-.774a34.545 34.545 0 0 1 8.854 12.18c.966 2.229-.236 4.8-2.57 5.47M232.852 55.988a56.007 56.007 0 0 0-9.62 3.544c-2.11 1.007-2.905 3.603-1.737 5.625l18.293 31.686c2.052 3.554 7.485 2.099 7.485-2.006V58.25c0-2.336-1.988-4.187-4.317-4.004a56.106 56.106 0 0 0-10.104 1.741"/></g></svg>