<?xml version="1.0" encoding="UTF-8"?>
<svg width="200px" height="90px" viewBox="0 0 200 90" version="1.1" xmlns="http://www.w3.org/2000/svg" xmlns:xlink="http://www.w3.org/1999/xlink">
    <!-- Generator: Sketch 50.2 (55047) - http://www.bohemiancoding.com/sketch -->
    <title>Yext-logo</title>
    <desc>Created with Sketch.</desc>
    <defs></defs>
    <g id="Page-1" stroke="none" stroke-width="1" fill="none" fill-rule="evenodd">
        <g id="Yext-logo" fill="#A2B0CD" fill-rule="nonzero">
            <g id="Group" transform="translate(99.861432, 44.803695) scale(-1, 1) rotate(-180.000000) translate(-99.861432, -44.803695) translate(0.092379, 0.230947)">
                <path d="M171.454965,88.3140878 C171.316397,87.9445727 171.270208,74.1801386 171.362587,57.6905312 C171.501155,27.8983834 171.501155,27.7136259 172.517321,25.1732102 C173.949192,21.6166282 175.935335,19.4457275 179.030023,17.9214781 C181.524249,16.7205543 182.032333,16.6281755 187.667436,16.6281755 C193.025404,16.6281755 193.949192,16.7667436 196.443418,17.7829099 L199.214781,18.9376443 L199.353349,23.7413395 C199.491917,29.8383372 199.445727,30.0692841 197.551963,29.0531178 C195.334873,27.9445727 189.376443,27.6212471 187.528868,28.591224 C184.711316,30.0230947 184.665127,30.4849885 184.665127,47.113164 L184.665127,62.1247113 L192.055427,62.1247113 L199.445727,62.1247113 L199.445727,67.6674365 L199.445727,73.2101617 L192.055427,73.2101617 L184.665127,73.2101617 L184.572748,80.9699769 L184.43418,88.6836028 L178.060046,88.8221709 C173.025404,88.9145497 171.685912,88.8221709 171.454965,88.3140878 Z" id="Shape"></path>
                <path d="M78.4295612,73.8568129 C73.4872979,72.7944573 68.960739,70.3002309 65.2655889,66.5588915 C59.9538106,61.1547344 57.2748268,54.8729792 56.8591224,46.6512702 C55.9815242,29.2378753 68.4526559,15.8891455 85.5427252,15.9353349 C93.5334873,15.9815242 100.277136,18.52194 105.588915,23.5103926 L108.591224,26.4203233 L106.558891,28.2678984 C105.450346,29.2840647 103.741339,30.8083141 102.771363,31.6397229 L101.062356,33.1177829 L98.6143187,31.2702079 C97.2748268,30.2078522 94.9191686,28.7759815 93.4411085,28.0831409 C90.9930716,26.9284065 90.1154734,26.7898383 86.0508083,26.7898383 C82.0323326,26.7898383 81.108545,26.9745958 78.8452656,27.9907621 C74.6420323,29.9769053 71.5473441,33.7644342 70.2078522,38.7066975 L69.7459584,40.4157044 L90.2078522,40.4157044 L110.715935,40.4157044 L111.039261,42.1247113 C111.547344,44.7575058 110.438799,52.6096998 109.006928,56.812933 C104.48037,69.8845266 92.0554273,76.812933 78.4295612,73.8568129 Z M90.3002309,62.3094688 C91.6397229,61.6628176 93.256351,60.5080831 93.9030023,59.7228637 C95.4734411,57.8752887 97.182448,54.5034642 97.5981524,52.4249423 C97.7367206,51.5473441 98.0138568,50.4387991 98.1062356,50.0230947 C98.3371824,49.2378753 97.4595843,49.1916859 83.9722864,49.1916859 L69.5612009,49.1916859 L69.8845266,50.7159353 C72.1939954,61.3856813 81.4318707,66.6512702 90.3002309,62.3094688 Z" id="Shape"></path>
                <path d="M0.0461893764,72.6558891 C0.138568129,72.3325635 5.40415704,59.7228637 11.6859122,44.665127 C24.1570439,14.7806005 23.556582,16.812933 20.8775982,13.6720554 C18.4295612,10.7621247 15.2886836,10.1616628 10.4849885,11.778291 C8.91454965,12.3325635 7.62124711,12.7020785 7.52886836,12.6096998 C6.78983834,11.7321016 3.55658199,3.78752887 3.74133949,3.3256351 C3.87990762,2.95612009 5.81986143,2.07852194 8.08314088,1.33949192 C11.3625866,0.277136259 12.9330254,0 16.3048499,0 C18.6143187,0 21.2933025,0.277136259 22.3556582,0.600461894 C26.6974596,1.89376443 30.669746,5.81986143 33.3487298,11.5011547 C34.4110855,13.7182448 56.5357968,70.6235566 57.0438799,72.4249423 C57.2748268,73.1639723 56.7667436,73.2101617 50.5773672,73.2101617 L43.8799076,73.2101617 L41.47806,66.4203233 C40.1847575,62.6327945 36.9976905,53.4872979 34.4110855,46.0969977 C31.8244804,38.6605081 29.5612009,32.5635104 29.3764434,32.5635104 C29.2378753,32.5635104 28.8683603,33.256351 28.591224,34.0877598 C28.3140878,34.8729792 24.8036952,44.0184758 20.8314088,54.4110855 L13.6258661,73.2101617 L6.74364896,73.2101617 C1.38568129,73.2101617 -0.138568129,73.0715935 0.0461893764,72.6558891 Z" id="Shape"></path>
                <path d="M111.039261,72.6558891 C111.224018,72.3325635 115.704388,66.0969977 121.016166,58.8452656 C126.281755,51.5935335 130.623557,45.4503464 130.623557,45.2655889 C130.623557,45.0808314 126.281755,38.9376443 121.016166,31.6859122 C115.704388,24.4341801 111.224018,18.1986143 111.039261,17.9214781 C110.762125,17.4595843 112.240185,17.3210162 117.78291,17.3210162 L124.849885,17.3672055 L134.7806,31.039261 C140.230947,38.5681293 144.711316,44.9422633 144.711316,45.2655889 C144.711316,45.5889145 140.230947,51.9630485 134.7806,59.4919169 L124.849885,73.1639723 L117.78291,73.2101617 C112.240185,73.2101617 110.762125,73.0715935 111.039261,72.6558891 Z" id="Shape"></path>
                <path d="M146.143187,66.2355658 L141.108545,59.26097 L142.494226,57.3672055 C146.743649,51.3163972 147.990762,49.6997691 148.17552,49.6997691 C148.406467,49.6997691 164.157044,71.2240185 164.942263,72.5635104 C165.265589,73.1177829 164.157044,73.2101617 158.244804,73.2101617 L151.177829,73.1639723 L146.143187,66.2355658 Z" id="Shape"></path>
                <path d="M145.91224,37.9676674 C144.757506,36.3972286 143.233256,34.2263279 142.494226,33.1639723 L141.108545,31.2702079 L146.143187,24.295612 L151.177829,17.3210162 L158.244804,17.3210162 C164.110855,17.3210162 165.265589,17.4133949 164.942263,17.9676674 C164.110855,19.3995381 148.406467,40.8775982 148.17552,40.8775982 C148.036952,40.8314088 147.020785,39.5381062 145.91224,37.9676674 Z" id="Shape"></path>
            </g>
        </g>
    </g>
</svg>