<svg width="200" height="90" xmlns="http://www.w3.org/2000/svg"><g fill="#A2B0CD" fill-rule="nonzero"><path d="M171.547 1.062c-.138.37-.184 14.134-.092 30.624.139 29.792.139 29.977 1.155 32.517 1.432 3.557 3.418 5.728 6.512 7.252 2.495 1.2 3.003 1.293 8.638 1.293 5.358 0 6.282-.138 8.776-1.154l2.771-1.155.139-4.804c.138-6.097.092-6.328-1.802-5.312-2.217 1.109-8.175 1.432-10.023.462-2.817-1.432-2.863-1.894-2.863-18.522V27.252h14.78V16.166h-14.78l-.093-7.76-.138-7.713-6.375-.139c-5.034-.092-6.374 0-6.605.508ZM78.522 15.52c-4.942 1.062-9.469 3.556-13.164 7.298-5.312 5.404-7.99 11.685-8.406 19.907-.878 17.414 11.593 30.762 28.683 30.716 7.99-.046 14.735-2.586 20.046-7.575l3.003-2.91-2.033-1.847a186.714 186.714 0 0 0-3.787-3.372l-1.71-1.478-2.447 1.847c-1.34 1.063-3.695 2.494-5.174 3.187-2.448 1.155-3.325 1.294-7.39 1.294-4.018 0-4.942-.185-7.205-1.201C74.734 59.4 71.64 55.612 70.3 50.67l-.462-1.71h40.97l.324-1.708c.508-2.633-.6-10.485-2.033-14.688-4.526-13.072-16.951-20-30.577-17.044Zm11.87 11.547c1.34.647 2.957 1.801 3.603 2.587 1.57 1.847 3.28 5.219 3.696 7.298.138.877.415 1.986.508 2.401.23.786-.647.832-14.134.832H69.654l.323-1.524c2.31-10.67 11.547-15.936 20.416-11.594ZM.139 16.72c.092.324 5.358 12.934 11.64 27.991 12.47 29.885 11.87 27.853 9.191 30.993-2.448 2.91-5.589 3.51-10.393 1.894-1.57-.554-2.863-.924-2.956-.831-.739.877-3.972 8.822-3.787 9.284.138.37 2.078 1.247 4.342 1.986 3.279 1.062 4.85 1.34 8.221 1.34 2.31 0 4.989-.278 6.051-.601 4.342-1.293 8.314-5.22 10.993-10.9 1.062-2.218 23.187-59.123 23.695-60.924.231-.74-.277-.786-6.466-.786h-6.698l-2.402 6.79c-1.293 3.788-4.48 12.933-7.067 20.323-2.586 7.437-4.85 13.534-5.034 13.534-.139 0-.508-.693-.785-1.524-.278-.786-3.788-9.931-7.76-20.324l-7.206-18.799H6.836c-5.358 0-6.882.139-6.697.555Z"/><path d="M111.132 16.72c.184.324 4.665 6.56 9.977 13.811 5.265 7.252 9.607 13.395 9.607 13.58 0 .185-4.342 6.328-9.607 13.58-5.312 7.251-9.793 13.487-9.977 13.764-.277.462 1.2.6 6.743.6l7.067-.046 9.931-13.672c5.45-7.529 9.93-13.903 9.93-14.226 0-.323-4.48-6.698-9.93-14.226l-9.93-13.673-7.068-.046c-5.542 0-7.02.139-6.743.555ZM146.236 23.14l-5.035 6.975 1.386 1.894c4.249 6.051 5.496 7.668 5.68 7.668.232 0 15.982-21.525 16.768-22.864.323-.554-.786-.647-6.698-.647l-7.067.046-5.034 6.929ZM146.005 51.409a260.624 260.624 0 0 0-3.418 4.803l-1.386 1.894 5.035 6.975 5.034 6.974h7.067c5.866 0 7.021-.092 6.698-.646-.832-1.432-16.536-22.91-16.767-22.91-.139.046-1.155 1.34-2.263 2.91Z"/></g></svg>