<svg xmlns="http://www.w3.org/2000/svg" viewBox="0 0 300 300"><path d="M0 0h300v300H0Z" style="fill-rule:evenodd;fill-opacity:0;fill:#fff" fill="none"/><path d="m67.41 245.94 128.89-63-63-128.88-128.89 63 63 128.88Z" style="fill:#cc2229;fill-rule:evenodd"/><path d="M172.2 162.49v-62h11.38l23.7 41.42v-41.45h10.87v62h-11.74L183.07 122v40.45Zm82.53-14.3 11.07 2a19.33 19.33 0 0 1-6.75 9.92 18.73 18.73 0 0 1-11.51 3.41q-10.95 0-16.2-7.65-4.14-6.14-4.15-15.49 0-11.18 5.46-17.5a17.4 17.4 0 0 1 13.78-6.33q9.38 0 14.78 6.63t5.18 20.29h-27.82c.08 3.53 1 6.27 2.69 8.22a8.13 8.13 0 0 0 6.4 3 6.5 6.5 0 0 0 4.34-1.59 9.49 9.49 0 0 0 2.69-4.91Zm.63-12c-.08-3.45-.9-6.06-2.48-7.85a7.64 7.64 0 0 0-11.77.16 11.42 11.42 0 0 0-2.34 7.69Zm39.31-18.61V127h-7.58v18.11a47.2 47.2 0 0 0 .22 6.42 2.68 2.68 0 0 0 1 1.5 3 3 0 0 0 1.88.59 13.81 13.81 0 0 0 4.47-1.14l.95 9.22a20.89 20.89 0 0 1-8.78 1.77 13.26 13.26 0 0 1-5.41-1.07 8 8 0 0 1-3.53-2.8 11.53 11.53 0 0 1-1.59-4.6 63 63 0 0 1-.35-8.37V127h-5.1v-9.47H276v-8.94l11.14-6.93v15.87Z" style="fill-rule:evenodd"/><path d="M118.49 145.07V115.5h7.89c17.27 0 17.44 12.72 17.44 16.2 0 3.2-.18 16.2-17.44 16.2h-5.56v14.95h8.94c22.34 0 32.05-14.42 32.05-31.15 0-14-6.42-31.16-32.05-31.16h-28.71v47.36H65.52l29.55-47.36h-49l-9.94 14.95h30.64l-31.64 47.36h69.74l13.62-17.78Z" style="fill-rule:evenodd;fill:#fff"/></svg>