<svg width="130" height="131" viewBox="0 0 130 131" fill="none" xmlns="http://www.w3.org/2000/svg">
<rect x="0.625" y="1.41016" width="128.562" height="128.562" rx="14.5" fill="#F5F7FB" stroke="#DBE2F0"/>
<g clip-path="url(#clip0_1185_4904)">
<path d="M72.0556 62.8755H94.6218C94.8091 62.8755 94.9495 62.9702 94.9963 63.1597C95.9327 65.4336 97.3372 66.9021 99.725 67.2811C103.424 67.8496 106.514 65.0546 106.467 61.2648C106.373 54.3959 97.1968 53.1168 94.9963 59.5594C94.9495 59.7489 94.8091 59.8437 94.575 59.8437H71.9152C71.8215 59.8437 71.7279 59.7489 71.7279 59.6542V53.9222C71.7279 53.78 71.8215 53.6853 71.962 53.6853H87.646C87.7864 53.6853 87.9269 53.5432 87.9269 53.4011V44.6846C87.9269 44.4477 88.0673 44.2109 88.3014 44.1161C91.1573 43.0266 92.515 40.9896 92.4214 38.0051C92.2341 32.8415 86.101 30.5677 82.496 34.0732C81.3255 35.2102 80.7169 36.5839 80.7169 38.1472C80.6701 40.8474 81.981 42.8371 84.6028 44.0687C84.7901 44.1635 84.9305 44.353 84.9305 44.5898V50.1798C84.9305 50.4166 84.7432 50.6061 84.5092 50.6061H72.0088C71.8683 50.6061 71.7747 50.5114 71.7747 50.3692C71.7747 45.9163 71.7747 41.0843 71.7747 35.8734C71.7747 34.4996 71.4002 33.4574 70.2297 32.7468C67.327 30.9467 64.5648 29.2886 61.943 27.7254C61.2875 27.299 60.4448 27.3464 59.7425 27.7254L42.4199 38.4788C41.9517 38.7631 41.6708 39.2842 41.6708 39.8526V50.6061C41.6708 50.7482 41.5772 50.8903 41.4367 50.9851L33.4777 55.6276C33.0564 55.8644 32.8223 56.2908 32.8223 56.7645V75.1922C32.8223 75.666 33.0564 76.0923 33.4777 76.3292L41.5304 81.019C41.6708 81.1138 41.7645 81.2559 41.7645 81.398V92.1989C41.7645 92.6726 41.9986 93.1463 42.4199 93.4305L60.1171 104.468C60.6321 104.8 61.2407 104.8 61.7557 104.468C64.752 102.668 67.5611 100.963 70.1361 99.352C71.2597 98.6415 71.8683 97.5993 71.8683 96.2729C71.8683 91.4409 71.8683 86.5616 71.8683 81.7296C71.8683 81.4927 71.962 81.398 72.1961 81.398H80.8574C81.0446 81.398 81.1851 81.4927 81.1851 81.7296V86.0878C81.1851 86.2773 81.0446 86.4195 80.9042 86.5142C76.4565 88.1249 75.3797 93.999 79.1251 96.9361C82.4024 99.5415 86.8032 98.073 88.2546 94.2359C89.4718 91.0145 87.6928 87.6038 84.5092 86.4668C84.3219 86.4194 84.2751 86.2773 84.2751 86.0878L84.3219 80.0716C84.3219 78.9347 83.7601 78.3662 82.6364 78.3662H72.1493C72.0088 78.3662 71.9152 78.2714 71.9152 78.1293V72.5394C71.9152 72.4447 72.0088 72.3499 72.1024 72.3499H87.5055C87.7396 72.3499 87.9737 72.4447 88.1141 72.6342L90.3146 75.3817C90.455 75.5239 90.455 75.7133 90.3614 75.9028C88.91 78.7925 89.7528 82.2033 92.4682 83.9087C95.09 85.5194 98.5077 84.8562 100.287 82.2981C102.721 78.7925 101.036 74.2448 97.0563 73.0131C95.6986 72.5868 94.3409 72.7289 92.9832 73.3921C92.7959 73.4869 92.6086 73.4395 92.515 73.2974L89.7528 69.7918C89.5187 69.4602 89.1441 69.3181 88.7696 69.3181H72.1493C72.0088 69.3181 71.9152 69.2234 71.9152 69.0812V63.2545C71.7747 63.0176 71.9152 62.8755 72.0556 62.8755ZM100.708 58.4225C102.3 58.4225 103.564 59.7016 103.564 61.3122C103.564 62.9229 102.3 64.2019 100.708 64.2019C99.1163 64.2019 97.8522 62.9229 97.8522 61.3122C97.8522 59.7016 99.1163 58.4225 100.708 58.4225ZM83.7601 38.3841C83.7601 36.7734 85.0242 35.4944 86.616 35.4944C88.2078 35.4944 89.4719 36.7734 89.4719 38.3841C89.4719 39.9947 88.2078 41.2738 86.616 41.2738C85.0242 41.2738 83.7601 39.9947 83.7601 38.3841ZM68.5911 96.6518L61.1002 101.2C61.0066 101.247 60.8662 101.247 60.7725 101.2L54.9203 97.5993C54.8735 97.5993 54.8735 97.5519 54.8735 97.5519C54.8266 97.4572 54.8735 97.315 54.9203 97.2677L61.1002 93.5726C61.2407 93.4779 61.2875 93.3358 61.1939 93.1937L59.883 90.8724C59.7893 90.7303 59.6957 90.6829 59.5084 90.7777L51.6899 95.4675C51.5494 95.5149 51.4089 95.5149 51.3153 95.4675L45.0885 91.5356C44.9013 91.3935 44.7608 91.1567 44.7608 90.9198V81.4454C44.7608 81.3033 44.8544 81.1611 44.9949 81.0664L52.158 76.7082C52.2985 76.6134 52.3453 76.5187 52.2517 76.3292L51.0344 74.1974C50.9408 74.0079 50.8003 74.0079 50.613 74.1027L43.4499 78.4609C43.3563 78.5083 43.2158 78.5083 43.0754 78.4609L35.9591 74.3396C35.8186 74.2448 35.6782 74.0553 35.725 73.8658V67.3285C35.725 67.0916 35.8186 66.9021 36.0059 66.8074L43.3095 62.4491C43.5436 62.307 43.5904 62.1175 43.4499 61.8807L42.3731 59.9384C42.2327 59.7016 42.0454 59.6542 41.8113 59.7963L36.0527 63.2545C36.0059 63.2545 35.9591 63.3018 35.9122 63.3018C35.7718 63.3018 35.6782 63.2071 35.6782 63.065V58.1383C35.6782 57.9488 35.7718 57.854 35.9122 57.7593L42.9349 53.6853C43.1222 53.5905 43.3563 53.5905 43.5436 53.6853L50.379 57.6172C50.613 57.7593 50.7535 58.0435 50.7535 58.3278V64.723C50.7535 64.9125 50.6599 65.102 50.4726 65.2441L45.4163 68.6549C45.2758 68.7496 45.229 68.8918 45.3226 69.0339L46.5399 71.1656C46.6335 71.3077 46.8676 71.3551 47.0081 71.2604L51.7835 67.9917C52.0176 67.8022 52.3453 67.8496 52.6262 68.0391L56.793 71.4025C56.9335 71.4972 57.0739 71.4972 57.1675 71.3551L58.8998 69.4602C58.9934 69.3655 58.9934 69.2707 58.853 69.176L53.9839 65.3388C53.7967 65.1967 53.703 65.0072 53.703 64.8177V58.0909C53.703 57.9014 53.7967 57.7593 53.9371 57.6646L61.8493 53.0695C62.4111 52.7378 62.6452 52.2641 62.6452 51.6483V43.1687C62.6452 43.0266 62.5984 42.9792 62.458 42.9792H59.883C59.7425 42.9792 59.6957 43.0266 59.6957 43.1687L59.7425 50.2745C59.7425 50.6061 59.5553 50.8903 59.2743 51.0798L52.3453 55.0591C52.2049 55.1065 52.1112 55.1065 51.9708 55.0591L44.9949 51.0325C44.8076 50.8903 44.6672 50.7008 44.6672 50.464V40.9896C44.6672 40.8001 44.7608 40.658 44.9013 40.5632L50.3321 37.1524C50.379 37.105 50.4258 37.105 50.4726 37.105C50.613 37.105 50.7535 37.2472 50.7535 37.3893L50.7067 45.4425C50.7067 45.7268 50.8471 45.9163 51.128 45.9163H53.3285C53.5626 45.9163 53.703 45.7741 53.703 45.5373V35.3523C53.703 35.1628 53.7967 35.0207 53.9371 34.9259L60.6321 30.7572C60.7725 30.6624 60.913 30.6624 61.0534 30.7572L68.2634 35.1628C68.4975 35.3049 68.6379 35.5891 68.6379 35.8734V73.25C68.6379 73.3921 68.5443 73.5816 68.4038 73.629L50.5194 84.3825C50.4258 84.4298 50.4258 84.5246 50.4726 84.5719L51.8771 86.9405C51.9239 87.0353 51.9708 87.0353 52.0644 86.9879L68.4038 77.1819C68.4506 77.1819 68.4506 77.1345 68.4975 77.1345C68.5911 77.1345 68.6847 77.2293 68.6847 77.324V96.1781C68.8252 96.415 68.7315 96.6045 68.5911 96.6518ZM82.6364 89.2618C84.2282 89.2618 85.4923 90.5408 85.4923 92.1515C85.4923 93.7621 84.2282 95.0412 82.6364 95.0412C81.0446 95.0412 79.7806 93.7621 79.7806 92.1515C79.7806 90.5408 81.0446 89.2618 82.6364 89.2618ZM95.4177 75.8555C97.0095 75.8555 98.2736 77.1345 98.2736 78.7452C98.2736 80.3558 97.0095 81.6349 95.4177 81.6349C93.8259 81.6349 92.5618 80.3558 92.5618 78.7452C92.515 77.1819 93.8259 75.8555 95.4177 75.8555Z" fill="black"/>
</g>
<defs>
<clipPath id="clip0_1185_4904">
<rect width="75.5906" height="77.6903" fill="white" transform="translate(31.8145 27.1569)"/>
</clipPath>
</defs>
</svg>
