<svg width="77" height="78" viewBox="0 0 77 78" fill="none" xmlns="http://www.w3.org/2000/svg">
<g id="Amazon Bedrock" clip-path="url(#clip0_1185_4906)">
<g id="Group">
<path id="Vector" d="M41.0556 35.8755H63.6218C63.8091 35.8755 63.9495 35.9702 63.9963 36.1597C64.9327 38.4336 66.3372 39.9021 68.725 40.2811C72.4236 40.8496 75.5135 38.0546 75.4667 34.2648C75.3731 27.3959 66.1968 26.1168 63.9963 32.5594C63.9495 32.7489 63.8091 32.8437 63.575 32.8437H40.9152C40.8215 32.8437 40.7279 32.7489 40.7279 32.6542V26.9222C40.7279 26.78 40.8215 26.6853 40.962 26.6853H56.646C56.7864 26.6853 56.9269 26.5432 56.9269 26.4011V17.6846C56.9269 17.4477 57.0673 17.2109 57.3014 17.1161C60.1573 16.0266 61.515 13.9896 61.4214 11.0051C61.2341 5.84155 55.101 3.56768 51.496 7.07322C50.3255 8.21015 49.7169 9.58395 49.7169 11.1472C49.6701 13.8474 50.981 15.8371 53.6028 17.0687C53.7901 17.1635 53.9305 17.353 53.9305 17.5898V23.1798C53.9305 23.4166 53.7432 23.6061 53.5092 23.6061H41.0088C40.8683 23.6061 40.7747 23.5114 40.7747 23.3692C40.7747 18.9163 40.7747 14.0843 40.7747 8.87337C40.7747 7.49957 40.4002 6.45739 39.2297 5.7468C36.327 3.94666 33.5648 2.28863 30.943 0.725354C30.2875 0.299005 29.4448 0.346377 28.7425 0.725354L11.4199 11.4788C10.9517 11.7631 10.6708 12.2842 10.6708 12.8526V23.6061C10.6708 23.7482 10.5772 23.8903 10.4367 23.9851L2.47772 28.6276C2.05636 28.8644 1.82227 29.2908 1.82227 29.7645V48.1922C1.82227 48.666 2.05636 49.0923 2.47772 49.3292L10.5304 54.019C10.6708 54.1138 10.7645 54.2559 10.7645 54.398V65.1989C10.7645 65.6726 10.9986 66.1463 11.4199 66.4305L29.1171 77.4682C29.6321 77.7998 30.2407 77.7998 30.7557 77.4682C33.752 75.6681 36.5611 73.9627 39.1361 72.352C40.2597 71.6415 40.8683 70.5993 40.8683 69.2729C40.8683 64.4409 40.8683 59.5616 40.8683 54.7296C40.8683 54.4927 40.962 54.398 41.1961 54.398H49.8574C50.0446 54.398 50.1851 54.4927 50.1851 54.7296V59.0878C50.1851 59.2773 50.0446 59.4195 49.9042 59.5142C45.4565 61.1249 44.3797 66.999 48.1251 69.9361C51.4024 72.5415 55.8032 71.073 57.2546 67.2359C58.4718 64.0145 56.6928 60.6038 53.5092 59.4668C53.3219 59.4194 53.2751 59.2773 53.2751 59.0878L53.3219 53.0716C53.3219 51.9347 52.7601 51.3662 51.6364 51.3662H41.1493C41.0088 51.3662 40.9152 51.2714 40.9152 51.1293V45.5394C40.9152 45.4447 41.0088 45.3499 41.1024 45.3499H56.5055C56.7396 45.3499 56.9737 45.4447 57.1141 45.6342L59.3146 48.3817C59.455 48.5239 59.455 48.7133 59.3614 48.9028C57.91 51.7925 58.7528 55.2033 61.4682 56.9087C64.09 58.5194 67.5077 57.8562 69.2868 55.2981C71.7213 51.7925 70.0359 47.2448 66.0563 46.0131C64.6986 45.5868 63.3409 45.7289 61.9832 46.3921C61.7959 46.4869 61.6086 46.4395 61.515 46.2974L58.7528 42.7918C58.5187 42.4602 58.1441 42.3181 57.7696 42.3181H41.1493C41.0088 42.3181 40.9152 42.2234 40.9152 42.0812V36.2545C40.7747 36.0176 40.9152 35.8755 41.0556 35.8755ZM69.7081 31.4225C71.2999 31.4225 72.564 32.7016 72.564 34.3122C72.564 35.9229 71.2999 37.2019 69.7081 37.2019C68.1163 37.2019 66.8522 35.9229 66.8522 34.3122C66.8522 32.7016 68.1163 31.4225 69.7081 31.4225ZM52.7601 11.3841C52.7601 9.77343 54.0242 8.49439 55.616 8.49439C57.2078 8.49439 58.4719 9.77343 58.4719 11.3841C58.4719 12.9947 57.2078 14.2738 55.616 14.2738C54.0242 14.2738 52.7601 12.9947 52.7601 11.3841ZM37.5911 69.6518L30.1002 74.1996C30.0066 74.2469 29.8662 74.2469 29.7725 74.1996L23.9203 70.5993C23.8735 70.5993 23.8735 70.5519 23.8735 70.5519C23.8266 70.4572 23.8735 70.315 23.9203 70.2677L30.1002 66.5726C30.2407 66.4779 30.2875 66.3358 30.1939 66.1937L28.883 63.8724C28.7893 63.7303 28.6957 63.6829 28.5084 63.7777L20.6899 68.4675C20.5494 68.5149 20.4089 68.5149 20.3153 68.4675L14.0885 64.5356C13.9013 64.3935 13.7608 64.1567 13.7608 63.9198V54.4454C13.7608 54.3033 13.8544 54.1611 13.9949 54.0664L21.158 49.7082C21.2985 49.6134 21.3453 49.5187 21.2517 49.3292L20.0344 47.1974C19.9408 47.0079 19.8003 47.0079 19.613 47.1027L12.4499 51.4609C12.3563 51.5083 12.2158 51.5083 12.0754 51.4609L4.95906 47.3396C4.81861 47.2448 4.67815 47.0553 4.72497 46.8658V40.3285C4.72497 40.0916 4.81861 39.9021 5.00588 39.8074L12.3095 35.4491C12.5436 35.307 12.5904 35.1175 12.4499 34.8807L11.3731 32.9384C11.2327 32.7016 11.0454 32.6542 10.8113 32.7963L5.0527 36.2545C5.00588 36.2545 4.95906 36.3018 4.91224 36.3018C4.77179 36.3018 4.67815 36.2071 4.67815 36.065V31.1383C4.67815 30.9488 4.77179 30.854 4.91224 30.7593L11.9349 26.6853C12.1222 26.5905 12.3563 26.5905 12.5436 26.6853L19.379 30.6172C19.613 30.7593 19.7535 31.0435 19.7535 31.3278V37.723C19.7535 37.9125 19.6599 38.102 19.4726 38.2441L14.4163 41.6549C14.2758 41.7496 14.229 41.8918 14.3226 42.0339L15.5399 44.1656C15.6335 44.3077 15.8676 44.3551 16.0081 44.2604L20.7835 40.9917C21.0176 40.8022 21.3453 40.8496 21.6262 41.0391L25.793 44.4025C25.9335 44.4972 26.0739 44.4972 26.1675 44.3551L27.8998 42.4602C27.9934 42.3655 27.9934 42.2707 27.853 42.176L22.9839 38.3388C22.7967 38.1967 22.703 38.0072 22.703 37.8177V31.0909C22.703 30.9014 22.7967 30.7593 22.9371 30.6646L30.8493 26.0695C31.4111 25.7378 31.6452 25.2641 31.6452 24.6483V16.1687C31.6452 16.0266 31.5984 15.9792 31.458 15.9792H28.883C28.7425 15.9792 28.6957 16.0266 28.6957 16.1687L28.7425 23.2745C28.7425 23.6061 28.5553 23.8903 28.2743 24.0798L21.3453 28.0591C21.2049 28.1065 21.1112 28.1065 20.9708 28.0591L13.9949 24.0325C13.8076 23.8903 13.6672 23.7008 13.6672 23.464V13.9896C13.6672 13.8001 13.7608 13.658 13.9013 13.5632L19.3321 10.1524C19.379 10.105 19.4258 10.105 19.4726 10.105C19.613 10.105 19.7535 10.2472 19.7535 10.3893L19.7067 18.4425C19.7067 18.7268 19.8471 18.9163 20.128 18.9163H22.3285C22.5626 18.9163 22.703 18.7741 22.703 18.5373V8.35227C22.703 8.16278 22.7967 8.02067 22.9371 7.92592L29.6321 3.75717C29.7725 3.66243 29.913 3.66243 30.0534 3.75717L37.2634 8.16278C37.4975 8.3049 37.6379 8.58913 37.6379 8.87337V46.25C37.6379 46.3921 37.5443 46.5816 37.4038 46.629L19.5194 57.3825C19.4258 57.4298 19.4258 57.5246 19.4726 57.5719L20.8771 59.9405C20.9239 60.0353 20.9708 60.0353 21.0644 59.9879L37.4038 50.1819C37.4506 50.1819 37.4506 50.1345 37.4975 50.1345C37.5911 50.1345 37.6847 50.2293 37.6847 50.324V69.1781C37.8252 69.415 37.7315 69.6045 37.5911 69.6518ZM51.6364 62.2618C53.2282 62.2618 54.4923 63.5408 54.4923 65.1515C54.4923 66.7621 53.2282 68.0412 51.6364 68.0412C50.0446 68.0412 48.7806 66.7621 48.7806 65.1515C48.7806 63.5408 50.0446 62.2618 51.6364 62.2618ZM64.4177 48.8555C66.0095 48.8555 67.2736 50.1345 67.2736 51.7452C67.2736 53.3558 66.0095 54.6349 64.4177 54.6349C62.8259 54.6349 61.5618 53.3558 61.5618 51.7452C61.515 50.1819 62.8259 48.8555 64.4177 48.8555Z" fill="black"/>
</g>
</g>
<defs>
<clipPath id="clip0_1185_4906">
<rect width="75.5906" height="77.6903" fill="white" transform="translate(0.814453 0.15686)"/>
</clipPath>
</defs>
</svg>
