<svg width="133" height="134" viewBox="0 0 133 134" fill="none" xmlns="http://www.w3.org/2000/svg">
<rect x="0.5" y="0.744263" width="131.954" height="131.954" rx="14.5" fill="white"/>
<rect x="0.5" y="0.744263" width="131.954" height="131.954" rx="14.5" fill="#F5F7FB"/>
<rect x="0.5" y="0.744263" width="131.954" height="131.954" rx="14.5" stroke="#DBE2F0"/>
<path d="M36.0745 38.7481C35.7767 38.7443 35.4817 38.8056 35.2102 38.9279C34.9387 39.0502 34.6972 39.2305 34.5028 39.456C34.3083 39.6816 34.1656 39.947 34.0847 40.2335C34.0037 40.5201 33.9865 40.8209 34.0341 41.1149L42.6953 93.694C42.8032 94.3375 43.1344 94.9223 43.6307 95.3458C44.1269 95.7693 44.7566 96.0044 45.4089 96.0098H86.9602C87.4492 96.0161 87.9242 95.8465 88.2987 95.5319C88.6732 95.2174 88.9223 94.7787 89.0005 94.2959L97.6617 41.1251C97.7093 40.8311 97.6921 40.5303 97.6111 40.2437C97.5302 39.9572 97.3875 39.6918 97.193 39.4662C96.9986 39.2407 96.7571 39.0604 96.4856 38.9381C96.2141 38.8158 95.9191 38.7545 95.6213 38.7583L36.0745 38.7481ZM72.5453 76.7491H59.2831L55.6922 57.9884H75.7588L72.5453 76.7491Z" fill="#2684FF"/>
<path d="M94.9066 57.9885H75.7582L72.5447 76.7493H59.2825L43.623 95.3367C44.1194 95.7659 44.7522 96.0045 45.4083 96.01H86.9698C87.4588 96.0163 87.9338 95.8467 88.3083 95.5321C88.6828 95.2175 88.9319 94.7789 89.0101 94.2961L94.9066 57.9885Z" fill="url(#paint0_linear_1185_4877)"/>
<defs>
<linearGradient id="paint0_linear_1185_4877" x1="99.3341" y1="63.2424" x2="67.6887" y2="87.9405" gradientUnits="userSpaceOnUse">
<stop offset="0.18" stop-color="#0052CC"/>
<stop offset="1" stop-color="#2684FF"/>
</linearGradient>
</defs>
</svg>
