<svg width="77" height="77" viewBox="0 0 77 77" fill="none" xmlns="http://www.w3.org/2000/svg">
<path d="M9.07445 9.74809C8.77669 9.74425 8.48169 9.80564 8.21018 9.92794C7.93866 10.0502 7.69721 10.2305 7.50278 10.456C7.30834 10.6816 7.16563 10.947 7.08467 11.2335C7.00371 11.5201 6.98645 11.8209 7.03413 12.1149L15.6953 64.694C15.8032 65.3375 16.1344 65.9223 16.6307 66.3458C17.1269 66.7693 17.7566 67.0044 18.4089 67.0098H59.9602C60.4492 67.0161 60.9242 66.8465 61.2987 66.5319C61.6732 66.2174 61.9223 65.7787 62.0005 65.2959L70.6617 12.1251C70.7093 11.8311 70.6921 11.5303 70.6111 11.2437C70.5302 10.9572 70.3875 10.6918 70.193 10.4662C69.9986 10.2407 69.7571 10.0604 69.4856 9.93814C69.2141 9.81584 68.9191 9.75446 68.6213 9.7583L9.07445 9.74809ZM45.5453 47.7491H32.2831L28.6922 28.9884H48.7588L45.5453 47.7491Z" fill="#2684FF"/>
<path d="M67.9066 28.9885H48.7582L45.5447 47.7493H32.2825L16.623 66.3367C17.1194 66.7659 17.7522 67.0045 18.4083 67.01H59.9698C60.4588 67.0163 60.9338 66.8467 61.3083 66.5321C61.6828 66.2175 61.9319 65.7789 62.0101 65.2961L67.9066 28.9885Z" fill="url(#paint0_linear_1185_4879)"/>
<defs>
<linearGradient id="paint0_linear_1185_4879" x1="72.3341" y1="34.2424" x2="40.6887" y2="58.9405" gradientUnits="userSpaceOnUse">
<stop offset="0.18" stop-color="#0052CC"/>
<stop offset="1" stop-color="#2684FF"/>
</linearGradient>
</defs>
</svg>
