<svg width="48" height="49" viewBox="0 0 48 49" fill="none" xmlns="http://www.w3.org/2000/svg">
<g id="code-graph-brand-icon">
<g id="Subtract">
<path d="M4.0625 6.64773C4.0625 5.81908 4.73219 5.14732 5.55829 5.14732L19.0204 5.14732C19.8465 5.14732 20.5162 5.81907 20.5162 6.64773C20.5162 7.47638 19.8465 8.14814 19.0204 8.14814L9.16946 8.14814L14.3305 13.3251C13.5681 13.973 12.87 14.6946 12.247 15.479L7.05409 10.27L7.05409 20.1514C7.05409 20.9801 6.3844 21.6518 5.5583 21.6518C4.73219 21.6518 4.0625 20.9801 4.0625 20.1514L4.0625 6.64773Z" fill="url(#paint0_linear_1185_4940)"/>
<path d="M12.3262 34.6344L7.27846 39.6977V29.8164C7.27846 28.9877 6.60877 28.316 5.78266 28.316C4.95656 28.316 4.28687 28.9877 4.28687 29.8164L4.28687 43.32C4.28687 44.1487 4.95656 44.8205 5.78266 44.8205H19.2448C20.0709 44.8205 20.7406 44.1487 20.7406 43.32C20.7406 42.4914 20.0709 41.8196 19.2448 41.8196H9.39383L14.4271 36.7709C13.6594 36.1292 12.9554 35.4134 12.3262 34.6344Z" fill="url(#paint1_linear_1185_4940)"/>
<path d="M33.6862 36.9842L38.6082 41.9215H28.7573C27.9312 41.9215 27.2615 42.5933 27.2615 43.4219C27.2615 44.2506 27.9312 44.9223 28.7573 44.9223H42.2194C43.0455 44.9223 43.7152 44.2506 43.7152 43.4219V29.9182C43.7152 29.0896 43.0455 28.4178 42.2194 28.4178C41.3933 28.4178 40.7236 29.0896 40.7236 29.9182V39.7996L35.8334 34.8943C35.1875 35.6591 34.4681 36.3594 33.6862 36.9842Z" fill="url(#paint2_linear_1185_4940)"/>
<path d="M35.9145 15.217L40.9478 10.1681V20.0495C40.9478 20.8782 41.6175 21.5499 42.4436 21.5499C43.2697 21.5499 43.9394 20.8782 43.9394 20.0495L43.9394 6.54582C43.9394 5.71717 43.2697 5.04541 42.4436 5.04541L28.9815 5.04541C28.1554 5.04541 27.4857 5.71717 27.4857 6.54582C27.4857 7.37447 28.1554 8.04623 28.9815 8.04623H38.8325L33.7846 13.1097C34.5612 13.7408 35.2748 14.4469 35.9145 15.217Z" fill="url(#paint3_linear_1185_4940)"/>
</g>
</g>
<defs>
<linearGradient id="paint0_linear_1185_4940" x1="3.45889" y1="5.55394" x2="35.4073" y2="50.0671" gradientUnits="userSpaceOnUse">
<stop offset="0.12479" stop-color="#7048E8"/>
<stop offset="0.308435" stop-color="#00CBEC"/>
<stop offset="0.642062" stop-color="#A112FF"/>
<stop offset="1" stop-color="#FF5543"/>
</linearGradient>
<linearGradient id="paint1_linear_1185_4940" x1="3.45889" y1="5.55394" x2="35.4073" y2="50.0671" gradientUnits="userSpaceOnUse">
<stop offset="0.12479" stop-color="#7048E8"/>
<stop offset="0.308435" stop-color="#00CBEC"/>
<stop offset="0.642062" stop-color="#A112FF"/>
<stop offset="1" stop-color="#FF5543"/>
</linearGradient>
<linearGradient id="paint2_linear_1185_4940" x1="3.45889" y1="5.55394" x2="35.4073" y2="50.0671" gradientUnits="userSpaceOnUse">
<stop offset="0.12479" stop-color="#7048E8"/>
<stop offset="0.308435" stop-color="#00CBEC"/>
<stop offset="0.642062" stop-color="#A112FF"/>
<stop offset="1" stop-color="#FF5543"/>
</linearGradient>
<linearGradient id="paint3_linear_1185_4940" x1="3.45889" y1="5.55394" x2="35.4073" y2="50.0671" gradientUnits="userSpaceOnUse">
<stop offset="0.12479" stop-color="#7048E8"/>
<stop offset="0.308435" stop-color="#00CBEC"/>
<stop offset="0.642062" stop-color="#A112FF"/>
<stop offset="1" stop-color="#FF5543"/>
</linearGradient>
</defs>
</svg>
