<svg width="536" height="255" viewBox="0 0 536 255" fill="none" xmlns="http://www.w3.org/2000/svg">
<g clip-path="url(#clip0_1185_4575)">
<path d="M-291.889 -402V761M-236.219 -402V761M-180.548 -402V761M-124.398 -402V761M-68.7279 -402V761M-13.0568 -402V761M42.6144 -402V761M98.2843 -402V761M154.435 -402V761M210.106 -402V761M265.776 -402V761M321.447 -402V761M377.597 -402V761M433.268 -402V761M488.938 -402V761M544.609 -402V761M600.279 -402V761M656.431 -402L656.43 761M712.097 -402V761M767.777 -402V761M-348 712.262H823M-348 656.132L823 656.134M-348 600.006H823M-348 543.879H823M-348 487.753H823M-348 431.626H823M-348 375.5H823M-348 319.373H823M-348 263.247H823M-348 207.12H823M-348 150.994H823M-348 94.8674H823M-348 38.7408H823M-348 -17.3856H823M-348 -73.5122H823M-348 -129.639H823M-348 -185.765H823M-348 -241.892H823M-348 -298.018H823M-348 -354.145H823" stroke="url(#paint0_radial_1185_4575)" stroke-opacity="0.5"/>
<path d="M277 128.113C277 106.78 277 96.1136 280.765 87.8046C284.994 78.4713 292.471 70.9936 301.805 66.7647C310.114 63 320.78 63 342.113 63C363.446 63 374.113 63 382.422 66.7647C391.755 70.9936 399.233 78.4713 403.462 87.8046C407.226 96.1136 407.226 106.78 407.226 128.113C407.226 149.446 407.226 160.113 403.462 168.422C399.233 177.755 391.755 185.233 382.422 189.462C374.113 193.226 363.446 193.226 342.113 193.226C320.78 193.226 310.114 193.226 301.805 189.462C292.471 185.233 284.994 177.755 280.765 168.422C277 160.113 277 149.446 277 128.113Z" fill="white"/>
<path d="M277 128.113C277 106.78 277 96.1136 280.765 87.8046C284.994 78.4713 292.471 70.9936 301.805 66.7647C310.114 63 320.78 63 342.113 63C363.446 63 374.113 63 382.422 66.7647C391.755 70.9936 399.233 78.4713 403.462 87.8046C407.226 96.1136 407.226 106.78 407.226 128.113C407.226 149.446 407.226 160.113 403.462 168.422C399.233 177.755 391.755 185.233 382.422 189.462C374.113 193.226 363.446 193.226 342.113 193.226C320.78 193.226 310.114 193.226 301.805 189.462C292.471 185.233 284.994 177.755 280.765 168.422C277 160.113 277 149.446 277 128.113Z" fill="url(#paint1_radial_1185_4575)" fill-opacity="0.2"/>
<path fill-rule="evenodd" clip-rule="evenodd" d="M317.363 188.86C323.557 189.317 331.389 189.32 342.113 189.32C352.838 189.32 360.669 189.317 366.864 188.86C373.019 188.405 377.248 187.517 380.809 185.903C389.279 182.065 396.065 175.279 399.903 166.809C401.517 163.248 402.405 159.019 402.86 152.864C403.317 146.669 403.32 138.838 403.32 128.113C403.32 117.389 403.317 109.557 402.86 103.363C402.405 97.2072 401.517 92.9783 399.903 89.417C396.065 80.947 389.279 74.161 380.809 70.3233C377.248 68.7096 373.019 67.8214 366.864 67.3668C360.669 66.9093 352.838 66.9068 342.113 66.9068C331.389 66.9068 323.557 66.9093 317.363 67.3668C311.207 67.8214 306.978 68.7096 303.417 70.3233C294.947 74.161 288.161 80.947 284.323 89.417C282.71 92.9783 281.821 97.2072 281.367 103.363C280.909 109.557 280.907 117.389 280.907 128.113C280.907 138.838 280.909 146.669 281.367 152.864C281.821 159.019 282.71 163.248 284.323 166.809C288.161 175.279 294.947 182.065 303.417 185.903C306.978 187.517 311.207 188.405 317.363 188.86ZM280.765 87.8046C277 96.1136 277 106.78 277 128.113C277 149.446 277 160.113 280.765 168.422C284.994 177.755 292.471 185.233 301.805 189.462C310.114 193.226 320.78 193.226 342.113 193.226C363.446 193.226 374.113 193.226 382.422 189.462C391.755 185.233 399.233 177.755 403.462 168.422C407.226 160.113 407.226 149.446 407.226 128.113C407.226 106.78 407.226 96.1136 403.462 87.8046C399.233 78.4713 391.755 70.9936 382.422 66.7647C374.113 63 363.446 63 342.113 63C320.78 63 310.114 63 301.805 66.7647C292.471 70.9936 284.994 78.4713 280.765 87.8046Z" fill="black" fill-opacity="0.05"/>
<g clip-path="url(#clip1_1185_4575)">
<path fill-rule="evenodd" clip-rule="evenodd" d="M360.526 96.8589C364.101 96.8589 367.002 99.8403 367.002 103.507V118.712C367.002 122.379 364.101 125.361 360.526 125.361C356.952 125.361 354.051 122.379 354.051 118.712V103.507C354.051 99.8403 356.952 96.8589 360.526 96.8589Z" fill="url(#paint2_radial_1185_4575)"/>
<path fill-rule="evenodd" clip-rule="evenodd" d="M312.414 113.972C312.414 110.305 315.315 107.323 318.89 107.323H333.687C337.261 107.323 340.162 110.305 340.162 113.972C340.162 117.639 337.261 120.62 333.687 120.62H318.89C315.315 120.62 312.414 117.639 312.414 113.972Z" fill="url(#paint3_linear_1185_4575)"/>
<path fill-rule="evenodd" clip-rule="evenodd" d="M319.887 137.972C317.748 135.05 313.705 134.484 310.833 136.69C307.962 138.896 307.405 143.07 309.544 145.992C309.544 145.992 309.573 146.051 309.602 146.081C309.632 146.141 309.69 146.201 309.749 146.26C309.866 146.409 310.013 146.618 310.218 146.856C310.628 147.333 311.185 147.989 311.917 148.735C313.382 150.225 315.492 152.193 318.305 154.131C323.931 158.037 332.34 161.912 343.386 161.912C354.433 161.912 362.842 158.037 368.468 154.131C371.281 152.193 373.391 150.225 374.856 148.735C375.588 147.989 376.145 147.333 376.555 146.856C376.76 146.618 376.907 146.409 377.024 146.26C377.082 146.171 377.2 146.022 377.258 145.962C377.258 145.962 377.258 145.962 377.258 145.992V145.962C379.397 143.01 378.811 138.837 375.969 136.63C373.127 134.424 369.083 135.02 366.915 137.912C366.886 137.942 366.827 138.032 366.71 138.151C366.505 138.389 366.153 138.807 365.684 139.284C364.717 140.268 363.223 141.639 361.231 143.04C357.275 145.783 351.327 148.556 343.386 148.556C335.446 148.556 329.527 145.783 325.542 143.04C323.55 141.669 322.055 140.297 321.088 139.284C320.62 138.777 320.268 138.389 320.063 138.151C319.946 138.032 319.887 137.942 319.858 137.912L319.887 137.972Z" fill="url(#paint4_linear_1185_4575)"/>
</g>
<path d="M119 128C119 106.704 119 96.056 122.758 87.7615C126.98 78.4444 134.444 70.9797 143.762 66.7582C152.056 63 162.704 63 184 63C205.296 63 215.944 63 224.238 66.7582C233.556 70.9797 241.02 78.4444 245.242 87.7615C249 96.056 249 106.704 249 128C249 149.296 249 159.944 245.242 168.238C241.02 177.556 233.556 185.02 224.238 189.242C215.944 193 205.296 193 184 193C162.704 193 152.056 193 143.762 189.242C134.444 185.02 126.98 177.556 122.758 168.238C119 159.944 119 149.296 119 128Z" fill="white"/>
<path d="M119 128C119 106.704 119 96.056 122.758 87.7615C126.98 78.4444 134.444 70.9797 143.762 66.7582C152.056 63 162.704 63 184 63C205.296 63 215.944 63 224.238 66.7582C233.556 70.9797 241.02 78.4444 245.242 87.7615C249 96.056 249 106.704 249 128C249 149.296 249 159.944 245.242 168.238C241.02 177.556 233.556 185.02 224.238 189.242C215.944 193 205.296 193 184 193C162.704 193 152.056 193 143.762 189.242C134.444 185.02 126.98 177.556 122.758 168.238C119 159.944 119 149.296 119 128Z" fill="url(#paint5_radial_1185_4575)" fill-opacity="0.2"/>
<path fill-rule="evenodd" clip-rule="evenodd" d="M159.312 188.382C165.484 188.837 173.29 188.84 184 188.84C194.71 188.84 202.516 188.837 208.688 188.382C214.819 187.929 219.006 187.046 222.522 185.453C230.919 181.648 237.648 174.919 241.453 166.522C243.046 163.006 243.929 158.819 244.382 152.688C244.837 146.516 244.84 138.71 244.84 128C244.84 117.29 244.837 109.484 244.382 103.312C243.929 97.1813 243.046 92.9941 241.453 89.4784C237.648 81.0806 230.919 74.3524 222.522 70.5474C219.006 68.9544 214.819 68.0712 208.688 67.6185C202.516 67.1626 194.71 67.16 184 67.16C173.29 67.16 165.484 67.1626 159.312 67.6185C153.181 68.0712 148.994 68.9544 145.478 70.5474C137.081 74.3524 130.352 81.0806 126.547 89.4784C124.954 92.9941 124.071 97.1813 123.618 103.312C123.163 109.484 123.16 117.29 123.16 128C123.16 138.71 123.163 146.516 123.618 152.688C124.071 158.819 124.954 163.006 126.547 166.522C130.352 174.919 137.081 181.648 145.478 185.453C148.994 187.046 153.181 187.929 159.312 188.382ZM122.758 87.7615C119 96.056 119 106.704 119 128C119 149.296 119 159.944 122.758 168.238C126.98 177.556 134.444 185.02 143.762 189.242C152.056 193 162.704 193 184 193C205.296 193 215.944 193 224.238 189.242C233.556 185.02 241.02 177.556 245.242 168.238C249 159.944 249 149.296 249 128C249 106.704 249 96.056 245.242 87.7615C241.02 78.4444 233.556 70.9797 224.238 66.7582C215.944 63 205.296 63 184 63C162.704 63 152.056 63 143.762 66.7582C134.444 70.9797 126.98 78.4444 122.758 87.7615Z" fill="black" fill-opacity="0.05"/>
<g clip-path="url(#clip2_1185_4575)">
<path d="M211.587 161.8C212.515 161.737 213.42 161.371 214.119 160.695C215.67 159.196 215.696 156.776 214.119 155.277L204.602 146.176C210.323 140.652 213.879 133.05 213.879 124.659C213.879 107.878 199.656 94.2 182.039 94.2C164.421 94.2 150.199 107.851 150.199 124.659C150.199 141.467 164.421 155.145 182.039 155.093C184.285 155.093 186.076 153.383 186.076 151.279C186.076 149.174 184.258 147.465 182.039 147.465C168.939 147.465 158.246 137.285 158.246 124.659C158.246 112.034 168.939 101.854 182.039 101.854C195.138 101.854 205.885 112.06 205.885 124.686C205.885 132.156 202.143 138.784 196.341 142.94C195.432 143.624 194.844 144.624 194.764 145.729C194.684 146.833 195.085 147.912 195.914 148.701L208.425 160.695C209.143 161.366 210.066 161.736 211.004 161.8H211.587Z" fill="url(#paint6_linear_1185_4575)"/>
</g>
</g>
<defs>
<radialGradient id="paint0_radial_1185_4575" cx="0" cy="0" r="1" gradientUnits="userSpaceOnUse" gradientTransform="translate(268.5 126.09) rotate(89.2898) scale(121.009 264.221)">
<stop stop-color="#231231" stop-opacity="0"/>
<stop offset="0.989583" stop-color="white"/>
</radialGradient>
<radialGradient id="paint1_radial_1185_4575" cx="0" cy="0" r="1" gradientUnits="userSpaceOnUse" gradientTransform="translate(327.839 -33.557) rotate(77.074) scale(126.355)">
<stop stop-color="#00DBFF"/>
<stop offset="1" stop-color="#00DBFF" stop-opacity="0"/>
</radialGradient>
<radialGradient id="paint2_radial_1185_4575" cx="0" cy="0" r="1" gradientUnits="userSpaceOnUse" gradientTransform="translate(339.147 127.268) rotate(-9.94777) scale(31.151 38.545)">
<stop offset="0.5" stop-color="#FF291F"/>
<stop offset="0.88" stop-color="#FF5543"/>
</radialGradient>
<linearGradient id="paint3_linear_1185_4575" x1="315.678" y1="117.771" x2="345.146" y2="103.985" gradientUnits="userSpaceOnUse">
<stop stop-color="#A112FF"/>
<stop offset="0.21" stop-color="#A213FB"/>
<stop offset="0.36" stop-color="#A716F2"/>
<stop offset="0.5" stop-color="#AF1CE2"/>
<stop offset="0.62" stop-color="#BA24CB"/>
<stop offset="0.74" stop-color="#C92FAD"/>
<stop offset="0.85" stop-color="#DB3C89"/>
<stop offset="0.96" stop-color="#F14B5F"/>
<stop offset="1" stop-color="#FA524E"/>
</linearGradient>
<linearGradient id="paint4_linear_1185_4575" x1="309.491" y1="151.412" x2="379.811" y2="150.881" gradientUnits="userSpaceOnUse">
<stop offset="0.15" stop-color="#00CBEC"/>
<stop offset="0.98" stop-color="#7048E8"/>
</linearGradient>
<radialGradient id="paint5_radial_1185_4575" cx="0" cy="0" r="1" gradientUnits="userSpaceOnUse" gradientTransform="translate(169.751 -33.3892) rotate(77.074) scale(126.135)">
<stop stop-color="#00DBFF"/>
<stop offset="1" stop-color="#00DBFF" stop-opacity="0"/>
</radialGradient>
<linearGradient id="paint6_linear_1185_4575" x1="134.599" y1="177.399" x2="204.713" y2="184.729" gradientUnits="userSpaceOnUse">
<stop stop-color="#7048E8"/>
<stop offset="0.035" stop-color="#607CE8"/>
<stop offset="0.185" stop-color="#4AC1E8"/>
<stop offset="0.35" stop-color="#59A3EC"/>
<stop offset="0.626149" stop-color="#A112FF"/>
<stop offset="1" stop-color="#FF5543"/>
</linearGradient>
<clipPath id="clip0_1185_4575">
<rect width="536" height="254" fill="white" transform="translate(0 0.910034)"/>
</clipPath>
<clipPath id="clip1_1185_4575">
<rect width="70.3222" height="65.1132" fill="white" transform="translate(308.254 96.8589)"/>
</clipPath>
<clipPath id="clip2_1185_4575">
<rect width="65.0963" height="67.6" fill="white" transform="translate(150.199 94.2)"/>
</clipPath>
</defs>
</svg>
