<svg width="24" height="25" viewBox="0 0 24 25" fill="none" xmlns="http://www.w3.org/2000/svg">
<g id="file-document-outline">
<path id="Vector" d="M5.59961 2.11035C5.06918 2.11035 4.56047 2.32107 4.1854 2.69614C3.81032 3.07121 3.59961 3.57992 3.59961 4.11035V20.1103C3.59961 20.6408 3.81032 21.1495 4.1854 21.5246C4.56047 21.8996 5.06918 22.1103 5.59961 22.1103H17.5996C18.13 22.1103 18.6387 21.8996 19.0138 21.5246C19.3889 21.1495 19.5996 20.6408 19.5996 20.1103V8.11035L13.5996 2.11035H5.59961ZM5.59961 4.11035H12.5996V9.11035H17.5996V20.1103H5.59961V4.11035ZM7.59961 12.1104V14.1103H15.5996V12.1104H7.59961ZM7.59961 16.1103V18.1103H12.5996V16.1103H7.59961Z" fill="url(#paint0_linear_1185_5105)"/>
</g>
<defs>
<linearGradient id="paint0_linear_1185_5105" x1="-9.81871" y1="2.10333" x2="19.3816" y2="19.9732" gradientUnits="userSpaceOnUse">
<stop stop-color="#7048E8"/>
<stop offset="0.308435" stop-color="#4AC1E8"/>
<stop offset="0.626149" stop-color="#A112FF"/>
<stop offset="1" stop-color="#FF5543"/>
</linearGradient>
</defs>
</svg>
