<svg width="133" height="124" viewBox="0 0 133 124" fill="none" xmlns="http://www.w3.org/2000/svg">
<rect x="0.505859" y="-8.58984" width="131.954" height="131.954" rx="14.5" fill="white"/>
<rect x="0.505859" y="-8.58984" width="131.954" height="131.954" rx="14.5" fill="#F5F7FB"/>
<rect x="0.505859" y="-8.58984" width="131.954" height="131.954" rx="14.5" stroke="#DBE2F0"/>
<path d="M80.5078 19.8701H33.5234C30.2798 19.8701 27.6504 22.4996 27.6504 25.7432V72.7276C27.6504 75.9711 30.2798 78.6006 33.5234 78.6006H80.5078C83.7514 78.6006 86.3809 75.9711 86.3809 72.7276V25.7432C86.3809 22.4996 83.7514 19.8701 80.5078 19.8701Z" fill="#FFAAAA"/>
<path d="M98.127 37.4893H51.1426C47.899 37.4893 45.2695 40.1187 45.2695 43.3623V90.3467C45.2695 93.5903 47.899 96.2197 51.1426 96.2197H98.127C101.371 96.2197 104 93.5903 104 90.3467V43.3623C104 40.1187 101.371 37.4893 98.127 37.4893Z" fill="#AAFFAA"/>
<path d="M54.0801 52.1719H71.6992V58.0449H54.0801V52.1719Z" fill="#FF0000"/>
<path d="M77.5723 52.1719H95.1914V58.0449H77.5723V52.1719Z" fill="#FF0000"/>
<path d="M54.0801 72.7275H59.9531V66.8545H65.8262V72.7275H71.6992V78.6006H65.8262V84.4736H59.9531V78.6006H54.0801V72.7275Z" fill="#008000"/>
<path d="M77.5723 72.7275H83.4453V66.8545H89.3184V72.7275H95.1914V78.6006H89.3184V84.4736H83.4453V78.6006H77.5723V72.7275Z" fill="#008000"/>
</svg>
