<svg width="77" height="78" viewBox="0 0 77 78" fill="none" xmlns="http://www.w3.org/2000/svg">
<path d="M53.5078 0.870117H6.52344C3.27984 0.870117 0.650391 3.49957 0.650391 6.74317V53.7276C0.650391 56.9711 3.27984 59.6006 6.52344 59.6006H53.5078C56.7514 59.6006 59.3809 56.9711 59.3809 53.7276V6.74317C59.3809 3.49957 56.7514 0.870117 53.5078 0.870117Z" fill="#FFAAAA"/>
<path d="M71.127 18.4893H24.1426C20.899 18.4893 18.2695 21.1187 18.2695 24.3623V71.3467C18.2695 74.5903 20.899 77.2197 24.1426 77.2197H71.127C74.3706 77.2197 77 74.5903 77 71.3467V24.3623C77 21.1187 74.3706 18.4893 71.127 18.4893Z" fill="#AAFFAA"/>
<path d="M27.0801 33.1719H44.6992V39.0449H27.0801V33.1719Z" fill="#FF0000"/>
<path d="M50.5723 33.1719H68.1914V39.0449H50.5723V33.1719Z" fill="#FF0000"/>
<path d="M27.0801 53.7275H32.9531V47.8545H38.8262V53.7275H44.6992V59.6006H38.8262V65.4736H32.9531V59.6006H27.0801V53.7275Z" fill="#008000"/>
<path d="M50.5723 53.7275H56.4453V47.8545H62.3184V53.7275H68.1914V59.6006H62.3184V65.4736H56.4453V59.6006H50.5723V53.7275Z" fill="#008000"/>
</svg>
