<svg width="133" height="134" viewBox="0 0 133 134" fill="none" xmlns="http://www.w3.org/2000/svg">
<rect x="0.5" y="0.577148" width="131.954" height="131.954" rx="14.5" fill="#F5F7FB" stroke="#DBE2F0"/>
<g clip-path="url(#clip0_1185_4871)">
<path fill-rule="evenodd" clip-rule="evenodd" d="M65.8195 30.6277C56.7569 30.6324 47.9914 33.8422 41.0905 39.6831C34.1896 45.5241 29.6032 53.6153 28.1514 62.51C26.6996 71.4047 28.4771 80.5229 33.166 88.2341C37.855 95.9452 45.1497 101.747 53.7456 104.601C55.6421 104.953 56.3564 103.777 56.3564 102.778C56.3564 101.779 56.3184 98.8811 56.3058 95.7133C45.6859 98.0074 43.4418 91.2318 43.4418 91.2318C41.7097 86.832 39.2065 85.6754 39.2065 85.6754C35.7424 83.3247 39.4657 83.3687 39.4657 83.3687C43.3027 83.639 45.3193 87.2845 45.3193 87.2845C48.7202 93.086 54.2513 91.4078 56.4259 90.4272C56.7673 87.9696 57.7597 86.2977 58.8533 85.3486C50.37 84.3932 41.4569 81.1374 41.4569 66.5929C41.4043 62.8209 42.812 59.1731 45.3888 56.4042C44.9969 55.4488 43.6883 51.5896 45.7617 46.3475C45.7617 46.3475 48.9667 45.3293 56.2616 50.2382C62.5187 48.5368 69.1203 48.5368 75.3774 50.2382C82.666 45.3293 85.8646 46.3475 85.8646 46.3475C87.9443 51.577 86.6358 55.4363 86.2439 56.4042C88.8288 59.1735 90.2395 62.8277 90.1821 66.6055C90.1821 81.1814 81.25 84.3932 72.754 85.3297C74.1195 86.5114 75.3395 88.8181 75.3395 92.3631C75.3395 97.4417 75.2952 101.527 75.2952 102.778C75.2952 103.79 75.9842 104.972 77.9186 104.601C86.5156 101.746 93.811 95.9439 98.4998 88.2314C103.189 80.5189 104.965 71.3993 103.512 62.5038C102.058 53.6083 97.4697 45.517 90.5665 39.677C83.6633 33.8371 74.8958 30.6294 65.8321 30.6277H65.8195Z" fill="#191717"/>
<path d="M42.1016 85.1287C42.0194 85.3173 41.716 85.3738 41.4694 85.2419C41.2229 85.1099 41.0396 84.8647 41.1281 84.6699C41.2166 84.475 41.5137 84.4247 41.7602 84.5567C42.0067 84.6887 42.1964 84.9402 42.1016 85.1287Z" fill="#191717"/>
<path d="M43.651 86.8446C43.5201 86.9102 43.3703 86.9285 43.2274 86.8964C43.0844 86.8643 42.957 86.7837 42.8672 86.6686C42.6206 86.4046 42.57 86.0401 42.7597 85.8766C42.9493 85.7132 43.2907 85.7886 43.5372 86.0526C43.7838 86.3166 43.8407 86.6812 43.651 86.8446Z" fill="#191717"/>
<path d="M45.1543 89.0256C44.9204 89.1891 44.5221 89.0256 44.3009 88.6988C44.2397 88.6402 44.191 88.5699 44.1578 88.4921C44.1246 88.4144 44.1074 88.3307 44.1074 88.2463C44.1074 88.1618 44.1246 88.0781 44.1578 88.0004C44.191 87.9226 44.2397 87.8523 44.3009 87.7937C44.5348 87.6366 44.933 87.7937 45.1543 88.1143C45.3755 88.4348 45.3819 88.8622 45.1543 89.0256Z" fill="#191717"/>
<path d="M47.1973 91.1375C46.9887 91.3701 46.5652 91.3072 46.2175 90.9929C45.8698 90.6787 45.7876 90.2513 45.9962 90.025C46.2048 89.7987 46.6284 89.8616 46.9887 90.1695C47.349 90.4775 47.4186 90.9112 47.1973 91.1375Z" fill="#191717"/>
<path d="M50.0598 92.3694C49.965 92.6648 49.5351 92.7968 49.1053 92.6711C48.6754 92.5454 48.3909 92.1934 48.4731 91.8917C48.5553 91.59 48.9915 91.4517 49.4277 91.59C49.8638 91.7283 50.142 92.0614 50.0598 92.3694Z" fill="#191717"/>
<path d="M53.1821 92.5831C53.1821 92.8911 52.8282 93.1551 52.373 93.1614C51.9179 93.1677 51.5449 92.9163 51.5449 92.6083C51.5449 92.3003 51.8989 92.0363 52.354 92.03C52.8092 92.0237 53.1821 92.2689 53.1821 92.5831Z" fill="#191717"/>
<path d="M56.09 92.0992C56.1469 92.4072 55.8308 92.7277 55.3757 92.8032C54.9205 92.8786 54.5223 92.6963 54.4654 92.3946C54.4085 92.0929 54.7372 91.7661 55.1797 91.6844C55.6222 91.6027 56.0331 91.7912 56.09 92.0992Z" fill="#191717"/>
</g>
<defs>
<clipPath id="clip0_1185_4871">
<rect x="27.6445" y="29.0371" width="76.3496" height="76.3496" rx="15" fill="white"/>
</clipPath>
</defs>
</svg>
