<svg width="77" height="77" viewBox="0 0 77 77" fill="none" xmlns="http://www.w3.org/2000/svg">
<g clip-path="url(#clip0_1185_4873)">
<path fill-rule="evenodd" clip-rule="evenodd" d="M38.8195 1.62769C29.7569 1.63239 20.9914 4.84219 14.0905 10.6831C7.18957 16.5241 2.60317 24.6153 1.15138 33.51C-0.300401 42.4047 1.47709 51.5229 6.16605 59.2341C10.855 66.9452 18.1497 72.7466 26.7456 75.6009C28.6421 75.9528 29.3564 74.7775 29.3564 73.7781C29.3564 72.7787 29.3184 69.8811 29.3058 66.7133C18.6859 69.0074 16.4418 62.2318 16.4418 62.2318C14.7097 57.832 12.2065 56.6754 12.2065 56.6754C8.74235 54.3247 12.4657 54.3687 12.4657 54.3687C16.3027 54.639 18.3193 58.2845 18.3193 58.2845C21.7202 64.086 27.2513 62.4078 29.4259 61.4272C29.7673 58.9696 30.7597 57.2977 31.8533 56.3486C23.37 55.3932 14.4569 52.1374 14.4569 37.5929C14.4043 33.8209 15.812 30.1731 18.3888 27.4042C17.9969 26.4488 16.6883 22.5896 18.7617 17.3475C18.7617 17.3475 21.9667 16.3293 29.2616 21.2382C35.5187 19.5368 42.1203 19.5368 48.3774 21.2382C55.666 16.3293 58.8646 17.3475 58.8646 17.3475C60.9443 22.577 59.6358 26.4363 59.2439 27.4042C61.8288 30.1735 63.2395 33.8277 63.1821 37.6055C63.1821 52.1814 54.25 55.3932 45.754 56.3297C47.1195 57.5114 48.3395 59.8181 48.3395 63.3631C48.3395 68.4417 48.2952 72.5273 48.2952 73.7781C48.2952 74.79 48.9842 75.9717 50.9186 75.6009C59.5156 72.7463 66.811 66.9439 71.4998 59.2314C76.1887 51.5189 77.9653 42.3993 76.5118 33.5038C75.0584 24.6083 70.4697 16.517 63.5665 10.677C56.6633 4.83709 47.8958 1.62941 38.8321 1.62769H38.8195Z" fill="#191717"/>
<path d="M15.1016 56.1287C15.0194 56.3173 14.716 56.3738 14.4694 56.2419C14.2229 56.1099 14.0396 55.8647 14.1281 55.6699C14.2166 55.475 14.5137 55.4247 14.7602 55.5567C15.0067 55.6887 15.1964 55.9402 15.1016 56.1287Z" fill="#191717"/>
<path d="M16.651 57.8446C16.5201 57.9102 16.3703 57.9285 16.2274 57.8964C16.0844 57.8643 15.957 57.7837 15.8672 57.6686C15.6206 57.4046 15.57 57.0401 15.7597 56.8766C15.9493 56.7132 16.2907 56.7886 16.5372 57.0526C16.7838 57.3166 16.8407 57.6812 16.651 57.8446Z" fill="#191717"/>
<path d="M18.1543 60.0256C17.9204 60.1891 17.5221 60.0256 17.3009 59.6988C17.2397 59.6402 17.191 59.5699 17.1578 59.4921C17.1246 59.4144 17.1074 59.3307 17.1074 59.2463C17.1074 59.1618 17.1246 59.0781 17.1578 59.0004C17.191 58.9226 17.2397 58.8523 17.3009 58.7937C17.5348 58.6366 17.933 58.7937 18.1543 59.1143C18.3755 59.4348 18.3819 59.8622 18.1543 60.0256Z" fill="#191717"/>
<path d="M20.1973 62.1375C19.9887 62.3701 19.5652 62.3072 19.2175 61.9929C18.8698 61.6787 18.7876 61.2513 18.9962 61.025C19.2048 60.7987 19.6284 60.8616 19.9887 61.1695C20.349 61.4775 20.4186 61.9112 20.1973 62.1375Z" fill="#191717"/>
<path d="M23.0598 63.3694C22.965 63.6648 22.5351 63.7968 22.1053 63.6711C21.6754 63.5454 21.3909 63.1934 21.4731 62.8917C21.5553 62.59 21.9915 62.4517 22.4277 62.59C22.8638 62.7283 23.142 63.0614 23.0598 63.3694Z" fill="#191717"/>
<path d="M26.1821 63.5831C26.1821 63.8911 25.8282 64.1551 25.373 64.1614C24.9179 64.1677 24.5449 63.9163 24.5449 63.6083C24.5449 63.3003 24.8989 63.0363 25.354 63.03C25.8092 63.0237 26.1821 63.2689 26.1821 63.5831Z" fill="#191717"/>
<path d="M29.09 63.0992C29.1469 63.4072 28.8308 63.7277 28.3757 63.8032C27.9205 63.8786 27.5223 63.6963 27.4654 63.3946C27.4085 63.0929 27.7372 62.7661 28.1797 62.6844C28.6222 62.6027 29.0331 62.7912 29.09 63.0992Z" fill="#191717"/>
</g>
<defs>
<clipPath id="clip0_1185_4873">
<rect x="0.644531" y="0.0371094" width="76.3496" height="76.3496" rx="15" fill="white"/>
</clipPath>
</defs>
</svg>
