<svg width="77" height="77" viewBox="0 0 77 77" fill="none" xmlns="http://www.w3.org/2000/svg">
<path d="M75.7266 30.2579L75.6237 29.9728L65.2324 1.82551C65.0221 1.27283 64.6479 0.803992 64.1639 0.486859C63.8028 0.246802 63.3925 0.0979371 62.966 0.0521926C62.5395 0.00644815 62.1086 0.0650988 61.7079 0.223443C61.3072 0.381786 60.9477 0.63542 60.6584 0.964013C60.369 1.29261 60.1578 1.68702 60.0417 2.11564L53.0276 24.4146H24.6233L17.6092 2.11564C17.4922 1.68766 17.2806 1.29399 16.9911 0.966024C16.7016 0.63806 16.3423 0.384877 15.9419 0.226662C15.5415 0.0684473 15.111 0.00957983 14.6848 0.0547556C14.2586 0.0999314 13.8484 0.247899 13.4871 0.486859C13.0031 0.803992 12.6288 1.27283 12.4185 1.82551L2.03219 29.9779L1.92436 30.2579C0.429032 34.3161 0.244813 38.7692 1.39947 42.9456C2.55413 47.1221 4.98508 50.7955 8.32576 53.412L8.36497 53.4425L8.45319 53.5138L24.2606 65.8161L32.103 71.9698L36.8673 75.711C37.4263 76.1494 38.1078 76.3867 38.8083 76.3867C39.5089 76.3867 40.1903 76.1494 40.7493 75.711L45.5136 71.9698L53.356 65.8161L69.2762 53.4425L69.3203 53.4069C72.6608 50.7914 75.092 47.1192 76.2476 42.9437C77.4031 38.7683 77.2202 34.316 75.7266 30.2579Z" fill="#E24329"/>
<path d="M75.7268 30.2579L75.6238 29.9729C70.561 31.0517 65.7906 33.2801 61.6545 36.4982L38.8379 54.4148L53.366 65.8162L69.2862 53.4426L69.3303 53.4069C72.6691 50.7901 75.0983 47.1173 76.2521 42.9419C77.4058 38.7666 77.2214 34.315 75.7268 30.2579Z" fill="#FC6D26"/>
<path d="M24.2617 65.8162L32.1042 71.97L36.8684 75.7111C37.4274 76.1496 38.1089 76.3868 38.8094 76.3868C39.51 76.3868 40.1914 76.1496 40.7504 75.7111L45.5147 71.97L53.3572 65.8162L38.8291 54.4148L24.2617 65.8162Z" fill="#FCA326"/>
<path d="M15.9966 36.498C11.862 33.2815 7.09319 31.0548 2.03219 29.9778L1.92436 30.2577C0.429032 34.316 0.244813 38.769 1.39947 42.9455C2.55413 47.1219 4.98508 50.7953 8.32576 53.4118L8.36497 53.4424L8.45319 53.5136L24.2606 65.816L38.7985 54.4145L15.9966 36.498Z" fill="#FC6D26"/>
</svg>
