<svg width="133" height="134" viewBox="0 0 133 134" fill="none" xmlns="http://www.w3.org/2000/svg">
<rect x="0.505859" y="0.577148" width="131.954" height="131.954" rx="14.5" fill="white"/>
<rect x="0.505859" y="0.577148" width="131.954" height="131.954" rx="14.5" fill="#F5F7FB"/>
<rect x="0.505859" y="0.577148" width="131.954" height="131.954" rx="14.5" stroke="#DBE2F0"/>
<path d="M102.727 59.2579L102.624 58.9728L92.2324 30.8255C92.0221 30.2728 91.6479 29.804 91.1639 29.4869C90.8028 29.2468 90.3925 29.0979 89.966 29.0522C89.5395 29.0064 89.1086 29.0651 88.7079 29.2234C88.3072 29.3818 87.9477 29.6354 87.6584 29.964C87.369 30.2926 87.1578 30.687 87.0417 31.1156L80.0276 53.4146H51.6233L44.6092 31.1156C44.4922 30.6877 44.2806 30.294 43.9911 29.966C43.7016 29.6381 43.3423 29.3849 42.9419 29.2267C42.5415 29.0684 42.111 29.0096 41.6848 29.0548C41.2586 29.0999 40.8484 29.2479 40.4871 29.4869C40.0031 29.804 39.6288 30.2728 39.4185 30.8255L29.0322 58.9779L28.9244 59.2579C27.429 63.3161 27.2448 67.7692 28.3995 71.9456C29.5541 76.1221 31.9851 79.7955 35.3258 82.412L35.365 82.4425L35.4532 82.5138L51.2606 94.8161L59.103 100.97L63.8673 104.711C64.4263 105.149 65.1078 105.387 65.8083 105.387C66.5089 105.387 67.1903 105.149 67.7493 104.711L72.5136 100.97L80.356 94.8161L96.2762 82.4425L96.3203 82.4069C99.6608 79.7914 102.092 76.1192 103.248 71.9437C104.403 67.7683 104.22 63.316 102.727 59.2579Z" fill="#E24329"/>
<path d="M102.727 59.2579L102.624 58.9729C97.561 60.0517 92.7906 62.2801 88.6545 65.4982L65.8379 83.4148L80.366 94.8162L96.2862 82.4426L96.3303 82.4069C99.6691 79.7901 102.098 76.1173 103.252 71.9419C104.406 67.7666 104.221 63.315 102.727 59.2579Z" fill="#FC6D26"/>
<path d="M51.2617 94.8162L59.1042 100.97L63.8684 104.711C64.4274 105.15 65.1089 105.387 65.8094 105.387C66.51 105.387 67.1914 105.15 67.7504 104.711L72.5147 100.97L80.3572 94.8162L65.8291 83.4148L51.2617 94.8162Z" fill="#FCA326"/>
<path d="M42.9966 65.498C38.862 62.2815 34.0932 60.0548 29.0322 58.9778L28.9244 59.2577C27.429 63.316 27.2448 67.769 28.3995 71.9455C29.5541 76.1219 31.9851 79.7953 35.3258 82.4118L35.365 82.4424L35.4532 82.5136L51.2606 94.816L65.7985 83.4145L42.9966 65.498Z" fill="#FC6D26"/>
</svg>
