<svg width="709" height="471" viewBox="0 0 709 471" fill="none" xmlns="http://www.w3.org/2000/svg">
<line y1="163.41" x2="558" y2="163.41" stroke="url(#paint0_linear_1185_4609)" stroke-opacity="0.3"/>
<line y1="43.41" x2="558" y2="43.41" stroke="url(#paint1_linear_1185_4609)" stroke-opacity="0.3"/>
<line y1="283.41" x2="558" y2="283.41" stroke="url(#paint2_linear_1185_4609)" stroke-opacity="0.3"/>
<line y1="403.41" x2="558" y2="403.41" stroke="url(#paint3_linear_1185_4609)" stroke-opacity="0.3"/>
<path d="M41.1738 402.698H336.001L395.001 117.91L454.001 72.41L512.501 43.91" stroke="#17AB52" stroke-width="3"/>
<path d="M49.4248 402.654C49.4248 407.207 45.7315 410.899 41.1733 410.899C36.6152 410.899 32.9219 407.207 32.9219 402.654C32.9219 398.102 36.6152 394.41 41.1733 394.41C45.7315 394.41 49.4248 398.102 49.4248 402.654Z" fill="white" stroke="#17AB52" stroke-width="3"/>
<path d="M108.003 402.655C108.003 407.207 104.31 410.899 99.7515 410.899C95.1933 410.899 91.5 407.207 91.5 402.655C91.5 398.102 95.1933 394.41 99.7515 394.41C104.31 394.41 108.003 398.102 108.003 402.655Z" fill="white" stroke="#17AB52" stroke-width="3"/>
<path d="M167.003 402.655C167.003 407.207 163.31 410.899 158.751 410.899C154.193 410.899 150.5 407.207 150.5 402.655C150.5 398.102 154.193 394.41 158.751 394.41C163.31 394.41 167.003 398.102 167.003 402.655Z" fill="white" stroke="#17AB52" stroke-width="3"/>
<path d="M403.003 117.655C403.003 122.207 399.31 125.899 394.751 125.899C390.193 125.899 386.5 122.207 386.5 117.655C386.5 113.102 390.193 109.41 394.751 109.41C399.31 109.41 403.003 113.102 403.003 117.655Z" fill="white" stroke="#17AB52" stroke-width="3"/>
<path d="M226.003 402.655C226.003 407.207 222.31 410.899 217.751 410.899C213.193 410.899 209.5 407.207 209.5 402.655C209.5 398.102 213.193 394.41 217.751 394.41C222.31 394.41 226.003 398.102 226.003 402.655Z" fill="white" stroke="#17AB52" stroke-width="3"/>
<path d="M285.003 402.655C285.003 407.207 281.31 410.899 276.751 410.899C272.193 410.899 268.5 407.207 268.5 402.655C268.5 398.102 272.193 394.41 276.751 394.41C281.31 394.41 285.003 398.102 285.003 402.655Z" fill="white" stroke="#17AB52" stroke-width="3"/>
<path d="M344.003 402.655C344.003 407.207 340.31 410.899 335.751 410.899C331.193 410.899 327.5 407.207 327.5 402.655C327.5 398.102 331.193 394.41 335.751 394.41C340.31 394.41 344.003 398.102 344.003 402.655Z" fill="white" stroke="#17AB52" stroke-width="3"/>
<path d="M462.003 72.6546C462.003 77.2069 458.31 80.8991 453.751 80.8991C449.193 80.8991 445.5 77.2069 445.5 72.6546C445.5 68.1022 449.193 64.41 453.751 64.41C458.31 64.41 462.003 68.1022 462.003 72.6546Z" fill="white" stroke="#17AB52" stroke-width="3"/>
<path d="M521.003 43.6546C521.003 48.2069 517.31 51.8991 512.751 51.8991C508.193 51.8991 504.5 48.2069 504.5 43.6546C504.5 39.1022 508.193 35.41 512.751 35.41C517.31 35.41 521.003 39.1022 521.003 43.6546Z" fill="white" stroke="#17AB52" stroke-width="3"/>
<path d="M40 333.41L99.5 307.91L159 333.41L217.5 343.91H276.5L335.5 352.41L395 383.91H454H511" stroke="#D62687" stroke-width="3"/>
<path d="M49.0029 333.655C49.0029 338.207 45.3096 341.899 40.7515 341.899C36.1933 341.899 32.5 338.207 32.5 333.655C32.5 329.102 36.1933 325.41 40.7515 325.41C45.3096 325.41 49.0029 329.102 49.0029 333.655Z" fill="white" stroke="#D62687" stroke-width="3"/>
<path d="M108.003 308.655C108.003 313.207 104.31 316.899 99.7515 316.899C95.1933 316.899 91.5 313.207 91.5 308.655C91.5 304.102 95.1933 300.41 99.7515 300.41C104.31 300.41 108.003 304.102 108.003 308.655Z" fill="white" stroke="#D62687" stroke-width="3"/>
<path d="M167.003 333.655C167.003 338.207 163.31 341.899 158.751 341.899C154.193 341.899 150.5 338.207 150.5 333.655C150.5 329.102 154.193 325.41 158.751 325.41C163.31 325.41 167.003 329.102 167.003 333.655Z" fill="white" stroke="#D62687" stroke-width="3"/>
<path d="M403.003 383.655C403.003 388.207 399.31 391.899 394.751 391.899C390.193 391.899 386.5 388.207 386.5 383.655C386.5 379.102 390.193 375.41 394.751 375.41C399.31 375.41 403.003 379.102 403.003 383.655Z" fill="white" stroke="#D62687" stroke-width="3"/>
<path d="M226.003 342.655C226.003 347.207 222.31 350.899 217.751 350.899C213.193 350.899 209.5 347.207 209.5 342.655C209.5 338.102 213.193 334.41 217.751 334.41C222.31 334.41 226.003 338.102 226.003 342.655Z" fill="white" stroke="#D62687" stroke-width="3"/>
<path d="M285.003 343.655C285.003 348.207 281.31 351.899 276.751 351.899C272.193 351.899 268.5 348.207 268.5 343.655C268.5 339.102 272.193 335.41 276.751 335.41C281.31 335.41 285.003 339.102 285.003 343.655Z" fill="white" stroke="#D62687" stroke-width="3"/>
<path d="M344.003 352.655C344.003 357.207 340.31 360.899 335.751 360.899C331.193 360.899 327.5 357.207 327.5 352.655C327.5 348.102 331.193 344.41 335.751 344.41C340.31 344.41 344.003 348.102 344.003 352.655Z" fill="white" stroke="#D62687" stroke-width="3"/>
<path d="M462.003 383.655C462.003 388.207 458.31 391.899 453.751 391.899C449.193 391.899 445.5 388.207 445.5 383.655C445.5 379.102 449.193 375.41 453.751 375.41C458.31 375.41 462.003 379.102 462.003 383.655Z" fill="white" stroke="#D62687" stroke-width="3"/>
<path d="M521.003 383.655C521.003 388.207 517.31 391.899 512.751 391.899C508.193 391.899 504.5 388.207 504.5 383.655C504.5 379.102 508.193 375.41 512.751 375.41C517.31 375.41 521.003 379.102 521.003 383.655Z" fill="white" stroke="#D62687" stroke-width="3"/>
<path d="M78.7812 461.91V450.932H74.7998V449.227H84.7314V450.932H80.7588V461.91H78.7812ZM87.4609 462.068C86.8574 462.068 86.3154 461.954 85.835 461.725C85.3604 461.491 84.9854 461.16 84.71 460.732C84.4404 460.305 84.3057 459.804 84.3057 459.229V459.212C84.3057 458.643 84.4434 458.157 84.7188 457.753C84.9941 457.343 85.3955 457.023 85.9229 456.795C86.4561 456.56 87.1006 456.423 87.8564 456.382L91.3809 456.171V457.516L88.1201 457.726C87.4639 457.762 86.9805 457.899 86.6699 458.14C86.3652 458.38 86.2129 458.711 86.2129 459.133V459.15C86.2129 459.59 86.377 459.932 86.7051 460.179C87.0391 460.425 87.4639 460.548 87.9795 460.548C88.4541 460.548 88.876 460.454 89.2451 460.266C89.6143 460.073 89.9043 459.815 90.1152 459.493C90.3262 459.165 90.4316 458.796 90.4316 458.386V455.397C90.4316 454.87 90.2676 454.469 89.9395 454.193C89.6172 453.912 89.1367 453.771 88.498 453.771C87.9648 453.771 87.5312 453.865 87.1973 454.053C86.8633 454.24 86.6377 454.504 86.5205 454.844L86.5117 454.879H84.6748L84.6836 454.808C84.7598 454.287 84.9678 453.83 85.3076 453.437C85.6475 453.045 86.0957 452.74 86.6523 452.523C87.209 452.301 87.8506 452.189 88.5771 452.189C89.3799 452.189 90.0596 452.318 90.6162 452.576C91.1787 452.828 91.6035 453.194 91.8906 453.675C92.1836 454.149 92.3301 454.721 92.3301 455.389V461.91H90.4316V460.548H90.291C90.1035 460.87 89.8691 461.145 89.5879 461.374C89.3125 461.602 88.9932 461.775 88.6299 461.892C88.2725 462.01 87.8828 462.068 87.4609 462.068ZM94.7607 461.91V452.374H96.6768V461.91H94.7607ZM95.7275 450.686C95.3994 450.686 95.1182 450.569 94.8838 450.335C94.6494 450.1 94.5322 449.822 94.5322 449.5C94.5322 449.172 94.6494 448.893 94.8838 448.665C95.1182 448.431 95.3994 448.313 95.7275 448.313C96.0557 448.313 96.3369 448.431 96.5713 448.665C96.8057 448.893 96.9229 449.172 96.9229 449.5C96.9229 449.822 96.8057 450.1 96.5713 450.335C96.3369 450.569 96.0557 450.686 95.7275 450.686ZM99.248 461.91V448.647H101.155V461.91H99.248ZM105.537 461.91L102.918 452.374H104.834L106.539 459.739H106.68L108.64 452.374H110.459L112.428 459.739H112.568L114.273 452.374H116.172L113.544 461.91H111.575L109.598 454.8H109.457L107.497 461.91H105.537ZM117.864 461.91V452.374H119.78V461.91H117.864ZM118.831 450.686C118.503 450.686 118.222 450.569 117.987 450.335C117.753 450.1 117.636 449.822 117.636 449.5C117.636 449.172 117.753 448.893 117.987 448.665C118.222 448.431 118.503 448.313 118.831 448.313C119.159 448.313 119.44 448.431 119.675 448.665C119.909 448.893 120.026 449.172 120.026 449.5C120.026 449.822 119.909 450.1 119.675 450.335C119.44 450.569 119.159 450.686 118.831 450.686ZM122.264 461.91V452.374H124.171V453.824H124.312C124.546 453.314 124.892 452.916 125.349 452.629C125.812 452.336 126.389 452.189 127.08 452.189C128.152 452.189 128.973 452.497 129.541 453.112C130.109 453.727 130.394 454.603 130.394 455.74V461.91H128.478V456.18C128.478 455.394 128.311 454.808 127.977 454.422C127.648 454.029 127.133 453.833 126.43 453.833C125.967 453.833 125.565 453.935 125.226 454.141C124.892 454.34 124.631 454.624 124.443 454.993C124.262 455.362 124.171 455.805 124.171 456.32V461.91H122.264ZM136.252 462.077C135.449 462.077 134.752 461.875 134.16 461.471C133.568 461.066 133.108 460.495 132.78 459.757C132.458 459.018 132.297 458.151 132.297 457.155V457.138C132.297 456.13 132.458 455.26 132.78 454.527C133.103 453.789 133.56 453.221 134.151 452.822C134.743 452.418 135.443 452.216 136.252 452.216C136.686 452.216 137.093 452.286 137.474 452.427C137.854 452.561 138.191 452.755 138.484 453.007C138.783 453.253 139.015 453.549 139.179 453.894H139.319V448.647H141.235V461.91H139.319V460.398H139.179C138.997 460.75 138.763 461.052 138.476 461.304C138.188 461.55 137.857 461.74 137.482 461.875C137.107 462.01 136.697 462.077 136.252 462.077ZM136.788 460.433C137.315 460.433 137.77 460.302 138.15 460.038C138.537 459.774 138.833 459.396 139.038 458.904C139.249 458.412 139.354 457.829 139.354 457.155V457.138C139.354 456.458 139.249 455.875 139.038 455.389C138.833 454.896 138.537 454.518 138.15 454.255C137.77 453.985 137.315 453.85 136.788 453.85C136.261 453.85 135.807 453.982 135.426 454.246C135.045 454.51 134.752 454.888 134.547 455.38C134.348 455.866 134.248 456.452 134.248 457.138V457.155C134.248 457.829 134.348 458.412 134.547 458.904C134.752 459.396 135.045 459.774 135.426 460.038C135.807 460.302 136.261 460.433 136.788 460.433ZM153.805 462.218C152.627 462.218 151.607 461.948 150.746 461.409C149.891 460.87 149.231 460.105 148.769 459.115C148.306 458.119 148.074 456.941 148.074 455.582V455.564C148.074 454.193 148.306 453.013 148.769 452.022C149.231 451.032 149.891 450.267 150.746 449.728C151.602 449.189 152.621 448.92 153.805 448.92C154.736 448.92 155.577 449.104 156.327 449.474C157.083 449.837 157.701 450.341 158.182 450.985C158.668 451.63 158.964 452.371 159.069 453.209V453.262H157.118L157.101 453.226C156.978 452.705 156.761 452.254 156.45 451.873C156.146 451.492 155.768 451.196 155.316 450.985C154.865 450.774 154.361 450.669 153.805 450.669C153.049 450.669 152.393 450.868 151.836 451.266C151.279 451.665 150.849 452.23 150.544 452.963C150.245 453.689 150.096 454.557 150.096 455.564V455.582C150.096 456.578 150.245 457.442 150.544 458.175C150.849 458.907 151.279 459.473 151.836 459.871C152.393 460.269 153.052 460.469 153.813 460.469C154.37 460.469 154.874 460.375 155.325 460.187C155.782 459.994 156.163 459.724 156.468 459.379C156.772 459.027 156.983 458.614 157.101 458.14L157.118 458.096H159.078V458.148C158.949 458.963 158.647 459.675 158.173 460.284C157.698 460.893 157.089 461.368 156.345 461.708C155.601 462.048 154.754 462.218 153.805 462.218ZM165.657 462.218C164.702 462.218 163.87 462.065 163.161 461.761C162.452 461.456 161.893 461.037 161.482 460.504C161.072 459.965 160.838 459.338 160.779 458.623L160.771 458.517H162.713L162.722 458.605C162.763 458.992 162.912 459.326 163.17 459.607C163.434 459.889 163.785 460.108 164.225 460.266C164.67 460.419 165.177 460.495 165.745 460.495C166.284 460.495 166.759 460.413 167.169 460.249C167.585 460.079 167.91 459.845 168.145 459.546C168.385 459.247 168.505 458.904 168.505 458.517V458.509C168.505 458.016 168.32 457.612 167.951 457.296C167.582 456.974 166.979 456.722 166.141 456.54L164.752 456.25C163.469 455.969 162.534 455.529 161.948 454.932C161.362 454.334 161.069 453.569 161.069 452.638V452.629C161.075 451.896 161.271 451.252 161.658 450.695C162.051 450.139 162.593 449.705 163.284 449.394C163.976 449.078 164.77 448.92 165.666 448.92C166.562 448.92 167.345 449.075 168.013 449.386C168.687 449.69 169.217 450.106 169.604 450.634C169.996 451.161 170.216 451.756 170.263 452.418L170.271 452.541H168.347L168.329 452.427C168.276 452.075 168.133 451.767 167.898 451.504C167.67 451.234 167.362 451.023 166.976 450.871C166.595 450.713 166.149 450.637 165.64 450.642C165.147 450.642 164.708 450.719 164.321 450.871C163.935 451.017 163.627 451.231 163.398 451.513C163.176 451.788 163.064 452.125 163.064 452.523V452.532C163.064 453.007 163.243 453.402 163.601 453.719C163.964 454.029 164.553 454.269 165.367 454.439L166.756 454.747C167.641 454.934 168.358 455.183 168.909 455.494C169.46 455.805 169.861 456.188 170.113 456.645C170.371 457.097 170.5 457.639 170.5 458.271V458.28C170.5 459.083 170.301 459.78 169.902 460.372C169.51 460.958 168.95 461.412 168.224 461.734C167.503 462.057 166.647 462.218 165.657 462.218ZM177.097 462.218C176.142 462.218 175.31 462.065 174.601 461.761C173.892 461.456 173.332 461.037 172.922 460.504C172.512 459.965 172.277 459.338 172.219 458.623L172.21 458.517H174.152L174.161 458.605C174.202 458.992 174.352 459.326 174.609 459.607C174.873 459.889 175.225 460.108 175.664 460.266C176.109 460.419 176.616 460.495 177.185 460.495C177.724 460.495 178.198 460.413 178.608 460.249C179.024 460.079 179.35 459.845 179.584 459.546C179.824 459.247 179.944 458.904 179.944 458.517V458.509C179.944 458.016 179.76 457.612 179.391 457.296C179.021 456.974 178.418 456.722 177.58 456.54L176.191 456.25C174.908 455.969 173.974 455.529 173.388 454.932C172.802 454.334 172.509 453.569 172.509 452.638V452.629C172.515 451.896 172.711 451.252 173.098 450.695C173.49 450.139 174.032 449.705 174.724 449.394C175.415 449.078 176.209 448.92 177.105 448.92C178.002 448.92 178.784 449.075 179.452 449.386C180.126 449.69 180.656 450.106 181.043 450.634C181.436 451.161 181.655 451.756 181.702 452.418L181.711 452.541H179.786L179.769 452.427C179.716 452.075 179.572 451.767 179.338 451.504C179.109 451.234 178.802 451.023 178.415 450.871C178.034 450.713 177.589 450.637 177.079 450.642C176.587 450.642 176.147 450.719 175.761 450.871C175.374 451.017 175.066 451.231 174.838 451.513C174.615 451.788 174.504 452.125 174.504 452.523V452.532C174.504 453.007 174.683 453.402 175.04 453.719C175.403 454.029 175.992 454.269 176.807 454.439L178.195 454.747C179.08 454.934 179.798 455.183 180.349 455.494C180.899 455.805 181.301 456.188 181.553 456.645C181.811 457.097 181.939 457.639 181.939 458.271V458.28C181.939 459.083 181.74 459.78 181.342 460.372C180.949 460.958 180.39 461.412 179.663 461.734C178.942 462.057 178.087 462.218 177.097 462.218Z" fill="black"/>
<path d="M60.2588 456.835C60.2588 460.191 57.5357 462.914 54.1743 462.914C50.8129 462.914 48.0898 460.191 48.0898 456.835C48.0898 453.478 50.8129 450.755 54.1743 450.755C57.5357 450.755 60.2588 453.478 60.2588 456.835Z" fill="#17AB52" stroke="#17AB52" stroke-width="3"/>
<path d="M257.968 461.91V460.302H261.791C262.682 460.302 263.355 460.123 263.812 459.766C264.27 459.408 264.498 458.89 264.498 458.21V458.192C264.498 457.741 264.393 457.363 264.182 457.058C263.971 456.748 263.654 456.516 263.232 456.364C262.816 456.206 262.298 456.127 261.677 456.127H257.968V454.624H261.281C262.154 454.624 262.813 454.463 263.259 454.141C263.704 453.818 263.927 453.349 263.927 452.734V452.717C263.927 452.125 263.725 451.665 263.32 451.337C262.916 451.003 262.351 450.836 261.624 450.836H257.968V449.227H262.081C262.878 449.227 263.561 449.356 264.129 449.614C264.697 449.872 265.134 450.238 265.438 450.713C265.743 451.182 265.896 451.738 265.896 452.383V452.4C265.896 452.846 265.796 453.262 265.597 453.648C265.397 454.035 265.131 454.36 264.797 454.624C264.463 454.882 264.085 455.046 263.663 455.116V455.266C264.237 455.324 264.738 455.491 265.166 455.766C265.594 456.042 265.928 456.399 266.168 456.839C266.408 457.272 266.528 457.765 266.528 458.315V458.333C266.528 459.071 266.353 459.71 266.001 460.249C265.655 460.782 265.16 461.192 264.516 461.479C263.871 461.766 263.098 461.91 262.195 461.91H257.968ZM256.983 461.91V449.227H258.952V461.91H256.983ZM268.757 461.91V449.227H276.808V450.932H270.726V454.633H276.482V456.267H270.726V460.205H276.808V461.91H268.757ZM279.37 461.91V449.227H281.646L285.681 459.335H285.821L289.864 449.227H292.141V461.91H290.339V452.611H289.372L291.42 449.579L286.48 461.91H285.021L280.091 449.579L282.13 452.611H281.172V461.91H279.37ZM304.842 462.218C303.664 462.218 302.645 461.948 301.783 461.409C300.928 460.87 300.269 460.105 299.806 459.115C299.343 458.119 299.111 456.941 299.111 455.582V455.564C299.111 454.193 299.343 453.013 299.806 452.022C300.269 451.032 300.928 450.267 301.783 449.728C302.639 449.189 303.658 448.92 304.842 448.92C305.773 448.92 306.614 449.104 307.364 449.474C308.12 449.837 308.738 450.341 309.219 450.985C309.705 451.63 310.001 452.371 310.106 453.209V453.262H308.155L308.138 453.226C308.015 452.705 307.798 452.254 307.487 451.873C307.183 451.492 306.805 451.196 306.354 450.985C305.902 450.774 305.398 450.669 304.842 450.669C304.086 450.669 303.43 450.868 302.873 451.266C302.316 451.665 301.886 452.23 301.581 452.963C301.282 453.689 301.133 454.557 301.133 455.564V455.582C301.133 456.578 301.282 457.442 301.581 458.175C301.886 458.907 302.316 459.473 302.873 459.871C303.43 460.269 304.089 460.469 304.851 460.469C305.407 460.469 305.911 460.375 306.362 460.187C306.819 459.994 307.2 459.724 307.505 459.379C307.81 459.027 308.021 458.614 308.138 458.14L308.155 458.096H310.115V458.148C309.986 458.963 309.685 459.675 309.21 460.284C308.735 460.893 308.126 461.368 307.382 461.708C306.638 462.048 305.791 462.218 304.842 462.218ZM316.694 462.218C315.739 462.218 314.907 462.065 314.198 461.761C313.489 461.456 312.93 461.037 312.52 460.504C312.109 459.965 311.875 459.338 311.816 458.623L311.808 458.517H313.75L313.759 458.605C313.8 458.992 313.949 459.326 314.207 459.607C314.471 459.889 314.822 460.108 315.262 460.266C315.707 460.419 316.214 460.495 316.782 460.495C317.321 460.495 317.796 460.413 318.206 460.249C318.622 460.079 318.947 459.845 319.182 459.546C319.422 459.247 319.542 458.904 319.542 458.517V458.509C319.542 458.016 319.357 457.612 318.988 457.296C318.619 456.974 318.016 456.722 317.178 456.54L315.789 456.25C314.506 455.969 313.571 455.529 312.985 454.932C312.399 454.334 312.106 453.569 312.106 452.638V452.629C312.112 451.896 312.309 451.252 312.695 450.695C313.088 450.139 313.63 449.705 314.321 449.394C315.013 449.078 315.807 448.92 316.703 448.92C317.6 448.92 318.382 449.075 319.05 449.386C319.724 449.69 320.254 450.106 320.641 450.634C321.033 451.161 321.253 451.756 321.3 452.418L321.309 452.541H319.384L319.366 452.427C319.313 452.075 319.17 451.767 318.936 451.504C318.707 451.234 318.399 451.023 318.013 450.871C317.632 450.713 317.187 450.637 316.677 450.642C316.185 450.642 315.745 450.719 315.358 450.871C314.972 451.017 314.664 451.231 314.436 451.513C314.213 451.788 314.102 452.125 314.102 452.523V452.532C314.102 453.007 314.28 453.402 314.638 453.719C315.001 454.029 315.59 454.269 316.404 454.439L317.793 454.747C318.678 454.934 319.396 455.183 319.946 455.494C320.497 455.805 320.898 456.188 321.15 456.645C321.408 457.097 321.537 457.639 321.537 458.271V458.28C321.537 459.083 321.338 459.78 320.939 460.372C320.547 460.958 319.987 461.412 319.261 461.734C318.54 462.057 317.685 462.218 316.694 462.218ZM328.134 462.218C327.179 462.218 326.347 462.065 325.638 461.761C324.929 461.456 324.369 461.037 323.959 460.504C323.549 459.965 323.314 459.338 323.256 458.623L323.247 458.517H325.189L325.198 458.605C325.239 458.992 325.389 459.326 325.646 459.607C325.91 459.889 326.262 460.108 326.701 460.266C327.146 460.419 327.653 460.495 328.222 460.495C328.761 460.495 329.235 460.413 329.646 460.249C330.062 460.079 330.387 459.845 330.621 459.546C330.861 459.247 330.981 458.904 330.981 458.517V458.509C330.981 458.016 330.797 457.612 330.428 457.296C330.059 456.974 329.455 456.722 328.617 456.54L327.229 456.25C325.945 455.969 325.011 455.529 324.425 454.932C323.839 454.334 323.546 453.569 323.546 452.638V452.629C323.552 451.896 323.748 451.252 324.135 450.695C324.527 450.139 325.069 449.705 325.761 449.394C326.452 449.078 327.246 448.92 328.143 448.92C329.039 448.92 329.821 449.075 330.489 449.386C331.163 449.69 331.693 450.106 332.08 450.634C332.473 451.161 332.692 451.756 332.739 452.418L332.748 452.541H330.823L330.806 452.427C330.753 452.075 330.609 451.767 330.375 451.504C330.146 451.234 329.839 451.023 329.452 450.871C329.071 450.713 328.626 450.637 328.116 450.642C327.624 450.642 327.185 450.719 326.798 450.871C326.411 451.017 326.104 451.231 325.875 451.513C325.652 451.788 325.541 452.125 325.541 452.523V452.532C325.541 453.007 325.72 453.402 326.077 453.719C326.44 454.029 327.029 454.269 327.844 454.439L329.232 454.747C330.117 454.934 330.835 455.183 331.386 455.494C331.937 455.805 332.338 456.188 332.59 456.645C332.848 457.097 332.977 457.639 332.977 458.271V458.28C332.977 459.083 332.777 459.78 332.379 460.372C331.986 460.958 331.427 461.412 330.7 461.734C329.979 462.057 329.124 462.218 328.134 462.218Z" fill="black"/>
<path d="M241.669 456.835C241.669 460.191 238.946 462.914 235.584 462.914C232.223 462.914 229.5 460.191 229.5 456.835C229.5 453.478 232.223 450.755 235.584 450.755C238.946 450.755 241.669 453.478 241.669 456.835Z" fill="#C4147D" stroke="#D62687" stroke-width="3"/>
<g filter="url(#filter0_dd_1185_4609)">
<g clip-path="url(#clip0_1185_4609)">
<rect width="200" height="40" transform="translate(462 25.91)" fill="white"/>
<rect x="470" y="33.91" width="184" height="24" rx="4" fill="#F5F7FB"/>
<circle cx="480" cy="45.91" r="4.5" fill="#17AB52" stroke="#17AB52" stroke-width="3"/>
<path d="M499.821 50.91V42.1532H496.643V41.0458H504.23V42.1532H501.052V50.91H499.821ZM506.568 51.0399C506.104 51.0399 505.684 50.951 505.311 50.7733C504.941 50.5956 504.647 50.3427 504.429 50.0145C504.215 49.6864 504.107 49.299 504.107 48.8524V48.8387C504.107 48.4012 504.212 48.0275 504.422 47.7177C504.632 47.4032 504.937 47.1571 505.338 46.9794C505.739 46.8016 506.224 46.6968 506.794 46.6649L509.501 46.5009V47.451L506.938 47.6151C506.377 47.647 505.967 47.7632 505.707 47.9637C505.452 48.1643 505.324 48.4468 505.324 48.8114V48.8251C505.324 49.1988 505.465 49.4904 505.748 49.7001C506.031 49.9052 506.386 50.0077 506.814 50.0077C507.22 50.0077 507.58 49.9279 507.895 49.7684C508.209 49.6044 508.455 49.3833 508.633 49.1053C508.815 48.8274 508.906 48.5129 508.906 48.162V45.8651C508.906 45.4094 508.767 45.063 508.489 44.826C508.216 44.5845 507.803 44.4637 507.252 44.4637C506.81 44.4637 506.448 44.5435 506.165 44.703C505.882 44.858 505.693 45.079 505.598 45.3661L505.591 45.3866H504.401L504.408 45.3456C504.472 44.9582 504.632 44.621 504.887 44.3339C505.146 44.0422 505.481 43.8166 505.892 43.6571C506.302 43.493 506.769 43.411 507.293 43.411C507.895 43.411 508.403 43.509 508.817 43.705C509.237 43.9009 509.553 44.1835 509.768 44.5526C509.986 44.9172 510.096 45.3547 510.096 45.8651V50.91H508.906V49.8231H508.797C508.642 50.0829 508.453 50.3039 508.229 50.4862C508.011 50.6685 507.762 50.8075 507.484 50.9032C507.206 50.9943 506.901 51.0399 506.568 51.0399ZM512.297 50.91V43.5409H513.486V50.91H512.297ZM512.898 42.119C512.675 42.119 512.481 42.0393 512.317 41.8798C512.158 41.7157 512.078 41.522 512.078 41.2987C512.078 41.0708 512.158 40.8772 512.317 40.7177C512.481 40.5581 512.675 40.4784 512.898 40.4784C513.126 40.4784 513.32 40.5581 513.479 40.7177C513.639 40.8772 513.719 41.0708 513.719 41.2987C513.719 41.522 513.639 41.7157 513.479 41.8798C513.32 42.0393 513.126 42.119 512.898 42.119ZM515.797 50.91V40.6151H516.986V50.91H515.797ZM520.691 50.91L518.627 43.5409H519.816L521.266 49.4335H521.375L523.022 43.5409H524.15L525.798 49.4335H525.907L527.356 43.5409H528.539L526.475 50.91H525.278L523.631 45.2089H523.521L521.881 50.91H520.691ZM530.139 50.91V43.5409H531.328V50.91H530.139ZM530.74 42.119C530.517 42.119 530.323 42.0393 530.159 41.8798C530 41.7157 529.92 41.522 529.92 41.2987C529.92 41.0708 530 40.8772 530.159 40.7177C530.323 40.5581 530.517 40.4784 530.74 40.4784C530.968 40.4784 531.162 40.5581 531.321 40.7177C531.481 40.8772 531.561 41.0708 531.561 41.2987C531.561 41.522 531.481 41.7157 531.321 41.8798C531.162 42.0393 530.968 42.119 530.74 42.119ZM533.57 50.91V43.5409H534.76V44.6483H534.869C535.056 44.2564 535.325 43.9533 535.676 43.7391C536.027 43.5204 536.473 43.411 537.016 43.411C537.845 43.411 538.481 43.648 538.923 44.1219C539.369 44.5913 539.593 45.2635 539.593 46.1385V50.91H538.403V46.4257C538.403 45.7603 538.262 45.2681 537.979 44.9491C537.701 44.6255 537.269 44.4637 536.681 44.4637C536.289 44.4637 535.949 44.5481 535.662 44.7167C535.375 44.8853 535.152 45.1246 534.992 45.4344C534.837 45.7443 534.76 46.1158 534.76 46.5487V50.91H533.57ZM544.467 51.0399C543.847 51.0399 543.305 50.8827 542.84 50.5682C542.375 50.2538 542.015 49.8117 541.76 49.2421C541.505 48.6678 541.377 47.9979 541.377 47.2323V47.2186C541.377 46.4484 541.505 45.7785 541.76 45.2089C542.015 44.6392 542.373 44.1971 542.833 43.8827C543.298 43.5682 543.842 43.411 544.467 43.411C544.804 43.411 545.121 43.4657 545.417 43.5751C545.718 43.6799 545.984 43.828 546.217 44.0194C546.449 44.2108 546.632 44.4387 546.764 44.703H546.873V40.6151H548.062V50.91H546.873V49.7343H546.764C546.613 50.0077 546.424 50.2424 546.196 50.4384C545.968 50.6298 545.709 50.7779 545.417 50.8827C545.125 50.9875 544.809 51.0399 544.467 51.0399ZM544.74 49.9872C545.187 49.9872 545.572 49.8755 545.896 49.6522C546.219 49.4289 546.467 49.1122 546.641 48.702C546.814 48.2873 546.9 47.7974 546.9 47.2323V47.2186C546.9 46.649 546.814 46.1591 546.641 45.7489C546.467 45.3387 546.219 45.022 545.896 44.7987C545.572 44.5754 545.187 44.4637 544.74 44.4637C544.294 44.4637 543.909 44.5754 543.585 44.7987C543.266 45.0175 543.02 45.3319 542.847 45.7421C542.678 46.1522 542.594 46.6444 542.594 47.2186V47.2323C542.594 47.802 542.678 48.2941 542.847 48.7089C543.02 49.119 543.266 49.4358 543.585 49.6591C543.909 49.8778 544.294 49.9872 544.74 49.9872ZM558.405 51.1425C557.512 51.1425 556.74 50.9328 556.088 50.5135C555.436 50.0943 554.933 49.4996 554.577 48.7294C554.226 47.9592 554.051 47.0455 554.051 45.9882V45.9745C554.051 44.9126 554.226 43.9966 554.577 43.2264C554.933 42.4563 555.434 41.8615 556.081 41.4423C556.733 41.023 557.505 40.8134 558.398 40.8134C559.091 40.8134 559.72 40.9501 560.285 41.2235C560.855 41.4924 561.324 41.8684 561.693 42.3514C562.062 42.83 562.295 43.3837 562.391 44.0126L562.384 44.0262H561.146L561.14 44.0126C561.03 43.5887 560.846 43.2242 560.586 42.9188C560.326 42.6089 560.009 42.3697 559.636 42.201C559.267 42.0324 558.854 41.9481 558.398 41.9481C557.77 41.9481 557.223 42.1122 556.758 42.4403C556.298 42.7684 555.942 43.2333 555.691 43.8348C555.441 44.4364 555.315 45.1496 555.315 45.9745V45.9882C555.315 46.8085 555.441 47.5194 555.691 48.121C555.942 48.7225 556.298 49.1874 556.758 49.5155C557.223 49.8436 557.772 50.0077 558.405 50.0077C558.866 50.0077 559.283 49.9348 559.656 49.7889C560.03 49.6385 560.344 49.4266 560.6 49.1532C560.855 48.8752 561.033 48.5471 561.133 48.1688L561.146 48.1552H562.391V48.1688C562.281 48.7704 562.044 49.2945 561.68 49.7411C561.315 50.1831 560.853 50.5272 560.292 50.7733C559.736 51.0194 559.107 51.1425 558.405 51.1425ZM567.688 51.1425C566.968 51.1425 566.34 51.0262 565.802 50.7938C565.269 50.5568 564.845 50.2333 564.53 49.8231C564.22 49.4084 564.04 48.9344 563.99 48.4012L563.983 48.326H565.214L565.221 48.4012C565.253 48.7294 565.378 49.0142 565.597 49.2557C565.82 49.4927 566.116 49.6773 566.485 49.8094C566.859 49.9416 567.283 50.0077 567.757 50.0077C568.203 50.0077 568.6 49.9371 568.946 49.7958C569.297 49.6499 569.573 49.4494 569.773 49.1942C569.974 48.939 570.074 48.6451 570.074 48.3124V48.3055C570.074 47.8954 569.924 47.5513 569.623 47.2733C569.322 46.9908 568.832 46.7743 568.153 46.6239L567.06 46.3846C566.071 46.1659 565.351 45.8287 564.899 45.3729C564.453 44.9126 564.229 44.3247 564.229 43.6093V43.6024C564.234 43.0555 564.382 42.5725 564.674 42.1532C564.97 41.7339 565.378 41.4058 565.897 41.1688C566.422 40.9318 567.023 40.8134 567.702 40.8134C568.358 40.8134 568.939 40.9318 569.445 41.1688C569.951 41.4012 570.352 41.7157 570.648 42.1122C570.949 42.5087 571.116 42.953 571.147 43.4452L571.154 43.5409H569.924L569.91 43.452C569.865 43.1604 569.746 42.9029 569.555 42.6796C569.363 42.4517 569.108 42.2717 568.789 42.1395C568.47 42.0074 568.096 41.9436 567.668 41.9481C567.258 41.9481 566.889 42.0119 566.561 42.1395C566.232 42.2671 565.97 42.4517 565.774 42.6932C565.583 42.9302 565.487 43.2219 565.487 43.5682V43.5751C565.487 43.967 565.633 44.2974 565.925 44.5663C566.216 44.8352 566.697 45.0425 567.367 45.1884L568.461 45.4344C569.149 45.5848 569.703 45.7808 570.122 46.0223C570.541 46.2639 570.847 46.5601 571.038 46.911C571.234 47.2574 571.332 47.6675 571.332 48.1415V48.1483C571.332 48.7635 571.182 49.2945 570.881 49.7411C570.58 50.1877 570.156 50.5341 569.609 50.7802C569.062 51.0217 568.422 51.1425 567.688 51.1425ZM576.616 51.1425C575.896 51.1425 575.267 51.0262 574.729 50.7938C574.196 50.5568 573.772 50.2333 573.458 49.8231C573.148 49.4084 572.968 48.9344 572.918 48.4012L572.911 48.326H574.142L574.148 48.4012C574.18 48.7294 574.306 49.0142 574.524 49.2557C574.748 49.4927 575.044 49.6773 575.413 49.8094C575.787 49.9416 576.211 50.0077 576.685 50.0077C577.131 50.0077 577.528 49.9371 577.874 49.7958C578.225 49.6499 578.501 49.4494 578.701 49.1942C578.902 48.939 579.002 48.6451 579.002 48.3124V48.3055C579.002 47.8954 578.852 47.5513 578.551 47.2733C578.25 46.9908 577.76 46.7743 577.081 46.6239L575.987 46.3846C574.998 46.1659 574.278 45.8287 573.827 45.3729C573.381 44.9126 573.157 44.3247 573.157 43.6093V43.6024C573.162 43.0555 573.31 42.5725 573.602 42.1532C573.898 41.7339 574.306 41.4058 574.825 41.1688C575.349 40.9318 575.951 40.8134 576.63 40.8134C577.286 40.8134 577.867 40.9318 578.373 41.1688C578.879 41.4012 579.28 41.7157 579.576 42.1122C579.877 42.5087 580.043 42.953 580.075 43.4452L580.082 43.5409H578.852L578.838 43.452C578.792 43.1604 578.674 42.9029 578.482 42.6796C578.291 42.4517 578.036 42.2717 577.717 42.1395C577.398 42.0074 577.024 41.9436 576.596 41.9481C576.186 41.9481 575.816 42.0119 575.488 42.1395C575.16 42.2671 574.898 42.4517 574.702 42.6932C574.511 42.9302 574.415 43.2219 574.415 43.5682V43.5751C574.415 43.967 574.561 44.2974 574.853 44.5663C575.144 44.8352 575.625 45.0425 576.295 45.1884L577.389 45.4344C578.077 45.5848 578.631 45.7808 579.05 46.0223C579.469 46.2639 579.774 46.5601 579.966 46.911C580.162 47.2574 580.26 47.6675 580.26 48.1415V48.1483C580.26 48.7635 580.109 49.2945 579.809 49.7411C579.508 50.1877 579.084 50.5341 578.537 50.7802C577.99 51.0217 577.35 51.1425 576.616 51.1425Z" fill="#343A4D"/>
<path d="M611.514 50.91V42.413H611.404L608.896 44.2313V42.9325L611.521 41.0458H612.744V50.91H611.514ZM616.23 50.9784C615.989 50.9784 615.779 50.8918 615.602 50.7186C615.428 50.5409 615.342 50.3313 615.342 50.0897C615.342 49.8436 615.428 49.634 615.602 49.4608C615.779 49.2876 615.989 49.201 616.23 49.201C616.477 49.201 616.686 49.2876 616.859 49.4608C617.033 49.634 617.119 49.8436 617.119 50.0897C617.119 50.3313 617.033 50.5409 616.859 50.7186C616.686 50.8918 616.477 50.9784 616.23 50.9784ZM621.412 50.91V42.413H621.303L618.794 44.2313V42.9325L621.419 41.0458H622.643V50.91H621.412ZM628.795 51.1425C628.066 51.1425 627.441 50.9328 626.922 50.5135C626.407 50.0943 626.01 49.4996 625.732 48.7294C625.454 47.9546 625.315 47.0386 625.315 45.9813V45.9677C625.315 44.9104 625.454 43.9966 625.732 43.2264C626.01 42.4563 626.407 41.8615 626.922 41.4423C627.441 41.023 628.066 40.8134 628.795 40.8134C629.524 40.8134 630.148 41.023 630.668 41.4423C631.188 41.8615 631.586 42.4563 631.864 43.2264C632.147 43.9966 632.288 44.9104 632.288 45.9677V45.9813C632.288 47.0386 632.147 47.9546 631.864 48.7294C631.586 49.4996 631.188 50.0943 630.668 50.5135C630.148 50.9328 629.524 51.1425 628.795 51.1425ZM628.795 50.0692C629.269 50.0692 629.672 49.9029 630.005 49.5702C630.342 49.2375 630.6 48.7658 630.777 48.1552C630.96 47.5445 631.051 46.8199 631.051 45.9813V45.9677C631.051 45.1291 630.96 44.4068 630.777 43.8007C630.6 43.19 630.342 42.7206 630.005 42.3925C629.672 42.0598 629.269 41.8934 628.795 41.8934C628.326 41.8934 627.922 42.0598 627.585 42.3925C627.252 42.7206 626.997 43.19 626.819 43.8007C626.642 44.4068 626.553 45.1291 626.553 45.9677V45.9813C626.553 46.8199 626.642 47.5445 626.819 48.1552C626.997 48.7658 627.252 49.2375 627.585 49.5702C627.922 49.9029 628.326 50.0692 628.795 50.0692ZM637.682 51.0741C636.984 51.0741 636.367 50.9533 635.829 50.7118C635.291 50.4703 634.868 50.1376 634.558 49.7137C634.252 49.2854 634.1 48.7955 634.1 48.244V48.2303C634.1 47.8247 634.188 47.4488 634.366 47.1024C634.544 46.7561 634.792 46.4621 635.111 46.2206C635.43 45.9745 635.799 45.8036 636.219 45.7079V45.6805C635.681 45.5119 635.253 45.2339 634.934 44.8466C634.615 44.4592 634.455 44.0057 634.455 43.4862V43.4725C634.455 42.9758 634.594 42.5337 634.872 42.1464C635.15 41.7544 635.533 41.4468 636.021 41.2235C636.508 40.9956 637.062 40.8817 637.682 40.8817C638.306 40.8817 638.86 40.9956 639.343 41.2235C639.83 41.4468 640.213 41.7544 640.491 42.1464C640.769 42.5337 640.908 42.9758 640.908 43.4725V43.4862C640.908 44.0057 640.749 44.4592 640.43 44.8466C640.115 45.2339 639.687 45.5119 639.145 45.6805V45.7079C639.568 45.8036 639.938 45.9745 640.252 46.2206C640.571 46.4621 640.819 46.7561 640.997 47.1024C641.175 47.4488 641.264 47.8247 641.264 48.2303V48.244C641.264 48.7955 641.111 49.2854 640.806 49.7137C640.5 50.1376 640.076 50.4703 639.534 50.7118C638.996 50.9533 638.379 51.0741 637.682 51.0741ZM637.682 50.0009C638.137 50.0009 638.538 49.9234 638.885 49.7684C639.236 49.6089 639.511 49.3925 639.712 49.119C639.912 48.841 640.013 48.5243 640.013 48.1688V48.1552C640.013 47.7951 639.912 47.4761 639.712 47.1981C639.516 46.9201 639.243 46.7014 638.892 46.5419C638.541 46.3824 638.137 46.3026 637.682 46.3026C637.226 46.3026 636.823 46.3824 636.472 46.5419C636.121 46.7014 635.845 46.9201 635.645 47.1981C635.449 47.4761 635.351 47.7951 635.351 48.1552V48.1688C635.351 48.5243 635.451 48.841 635.651 49.119C635.852 49.3925 636.128 49.6089 636.479 49.7684C636.829 49.9234 637.23 50.0009 637.682 50.0009ZM637.682 45.2225C638.078 45.2225 638.427 45.1542 638.728 45.0175C639.028 44.8762 639.263 44.6825 639.432 44.4364C639.6 44.1903 639.685 43.9078 639.685 43.5887V43.5751C639.685 43.2561 639.6 42.9735 639.432 42.7274C639.263 42.4813 639.028 42.2899 638.728 42.1532C638.427 42.0119 638.078 41.9413 637.682 41.9413C637.285 41.9413 636.937 42.0119 636.636 42.1532C636.335 42.2899 636.1 42.4813 635.932 42.7274C635.763 42.9735 635.679 43.2561 635.679 43.5751V43.5887C635.679 43.9078 635.763 44.1903 635.932 44.4364C636.1 44.6825 636.335 44.8762 636.636 45.0175C636.937 45.1542 637.285 45.2225 637.682 45.2225ZM643.328 50.91V40.6151H644.518V50.91H643.328ZM647.97 50.91L645.092 47.3007L645.967 46.5419L649.467 50.91H647.97ZM644.367 48.2577L644.312 46.7606H644.627L647.812 43.5409H649.255L645.755 46.9178L645.468 47.1981L644.367 48.2577Z" fill="#343A4D"/>
<rect width="200" height="40" transform="translate(462 65.91)" fill="white"/>
<circle cx="480" cy="85.91" r="4.5" fill="#17AB52" stroke="#17AB52" stroke-width="3"/>
<path d="M500.491 91.1425C499.771 91.1425 499.142 91.0262 498.604 90.7938C498.071 90.5568 497.647 90.2333 497.333 89.8231C497.023 89.4084 496.843 88.9344 496.793 88.4012L496.786 88.326H498.017L498.023 88.4012C498.055 88.7294 498.181 89.0142 498.399 89.2557C498.623 89.4927 498.919 89.6773 499.288 89.8094C499.662 89.9416 500.086 90.0077 500.56 90.0077C501.006 90.0077 501.403 89.9371 501.749 89.7958C502.1 89.6499 502.376 89.4494 502.576 89.1942C502.777 88.939 502.877 88.6451 502.877 88.3124V88.3055C502.877 87.8954 502.727 87.5513 502.426 87.2733C502.125 86.9908 501.635 86.7743 500.956 86.6239L499.862 86.3846C498.873 86.1659 498.153 85.8287 497.702 85.3729C497.256 84.9126 497.032 84.3247 497.032 83.6093V83.6024C497.037 83.0555 497.185 82.5725 497.477 82.1532C497.773 81.7339 498.181 81.4058 498.7 81.1688C499.224 80.9318 499.826 80.8134 500.505 80.8134C501.161 80.8134 501.742 80.9318 502.248 81.1688C502.754 81.4012 503.155 81.7157 503.451 82.1122C503.752 82.5087 503.918 82.953 503.95 83.4452L503.957 83.5409H502.727L502.713 83.452C502.667 83.1604 502.549 82.9029 502.357 82.6796C502.166 82.4517 501.911 82.2717 501.592 82.1395C501.273 82.0074 500.899 81.9436 500.471 81.9481C500.061 81.9481 499.691 82.0119 499.363 82.1395C499.035 82.2671 498.773 82.4517 498.577 82.6932C498.386 82.9302 498.29 83.2219 498.29 83.5682V83.5751C498.29 83.967 498.436 84.2974 498.728 84.5663C499.019 84.8352 499.5 85.0425 500.17 85.1884L501.264 85.4344C501.952 85.5848 502.506 85.7808 502.925 86.0223C503.344 86.2639 503.649 86.5601 503.841 86.911C504.037 87.2574 504.135 87.6675 504.135 88.1415V88.1483C504.135 88.7635 503.984 89.2945 503.684 89.7411C503.383 90.1877 502.959 90.5341 502.412 90.7802C501.865 91.0217 501.225 91.1425 500.491 91.1425ZM510.157 91.1425C509.264 91.1425 508.492 90.9328 507.84 90.5135C507.188 90.0943 506.685 89.4996 506.329 88.7294C505.978 87.9592 505.803 87.0455 505.803 85.9882V85.9745C505.803 84.9126 505.978 83.9966 506.329 83.2264C506.685 82.4563 507.186 81.8615 507.833 81.4423C508.485 81.023 509.257 80.8134 510.15 80.8134C510.843 80.8134 511.472 80.9501 512.037 81.2235C512.607 81.4924 513.076 81.8684 513.445 82.3514C513.814 82.83 514.047 83.3837 514.143 84.0126L514.136 84.0262H512.898L512.892 84.0126C512.782 83.5887 512.598 83.2242 512.338 82.9188C512.078 82.6089 511.761 82.3697 511.388 82.201C511.019 82.0324 510.606 81.9481 510.15 81.9481C509.521 81.9481 508.975 82.1122 508.51 82.4403C508.049 82.7684 507.694 83.2333 507.443 83.8348C507.193 84.4364 507.067 85.1496 507.067 85.9745V85.9882C507.067 86.8085 507.193 87.5194 507.443 88.121C507.694 88.7225 508.049 89.1874 508.51 89.5155C508.975 89.8436 509.524 90.0077 510.157 90.0077C510.618 90.0077 511.035 89.9348 511.408 89.7889C511.782 89.6385 512.096 89.4266 512.352 89.1532C512.607 88.8752 512.785 88.5471 512.885 88.1688L512.898 88.1552H514.143V88.1688C514.033 88.7704 513.796 89.2945 513.432 89.7411C513.067 90.1831 512.604 90.5272 512.044 90.7733C511.488 91.0194 510.859 91.1425 510.157 91.1425ZM519.44 91.1425C518.72 91.1425 518.091 91.0262 517.554 90.7938C517.021 90.5568 516.597 90.2333 516.282 89.8231C515.972 89.4084 515.792 88.9344 515.742 88.4012L515.735 88.326H516.966L516.973 88.4012C517.005 88.7294 517.13 89.0142 517.349 89.2557C517.572 89.4927 517.868 89.6773 518.237 89.8094C518.611 89.9416 519.035 90.0077 519.509 90.0077C519.955 90.0077 520.352 89.9371 520.698 89.7958C521.049 89.6499 521.325 89.4494 521.525 89.1942C521.726 88.939 521.826 88.6451 521.826 88.3124V88.3055C521.826 87.8954 521.676 87.5513 521.375 87.2733C521.074 86.9908 520.584 86.7743 519.905 86.6239L518.812 86.3846C517.823 86.1659 517.103 85.8287 516.651 85.3729C516.205 84.9126 515.981 84.3247 515.981 83.6093V83.6024C515.986 83.0555 516.134 82.5725 516.426 82.1532C516.722 81.7339 517.13 81.4058 517.649 81.1688C518.174 80.9318 518.775 80.8134 519.454 80.8134C520.11 80.8134 520.691 80.9318 521.197 81.1688C521.703 81.4012 522.104 81.7157 522.4 82.1122C522.701 82.5087 522.868 82.953 522.899 83.4452L522.906 83.5409H521.676L521.662 83.452C521.617 83.1604 521.498 82.9029 521.307 82.6796C521.115 82.4517 520.86 82.2717 520.541 82.1395C520.222 82.0074 519.848 81.9436 519.42 81.9481C519.01 81.9481 518.641 82.0119 518.312 82.1395C517.984 82.2671 517.722 82.4517 517.526 82.6932C517.335 82.9302 517.239 83.2219 517.239 83.5682V83.5751C517.239 83.967 517.385 84.2974 517.677 84.5663C517.968 84.8352 518.449 85.0425 519.119 85.1884L520.213 85.4344C520.901 85.5848 521.455 85.7808 521.874 86.0223C522.293 86.2639 522.599 86.5601 522.79 86.911C522.986 87.2574 523.084 87.6675 523.084 88.1415V88.1483C523.084 88.7635 522.934 89.2945 522.633 89.7411C522.332 90.1877 521.908 90.5341 521.361 90.7802C520.814 91.0217 520.174 91.1425 519.44 91.1425ZM528.368 91.1425C527.648 91.1425 527.019 91.0262 526.481 90.7938C525.948 90.5568 525.524 90.2333 525.21 89.8231C524.9 89.4084 524.72 88.9344 524.67 88.4012L524.663 88.326H525.894L525.9 88.4012C525.932 88.7294 526.058 89.0142 526.276 89.2557C526.5 89.4927 526.796 89.6773 527.165 89.8094C527.539 89.9416 527.963 90.0077 528.437 90.0077C528.883 90.0077 529.28 89.9371 529.626 89.7958C529.977 89.6499 530.253 89.4494 530.453 89.1942C530.654 88.939 530.754 88.6451 530.754 88.3124V88.3055C530.754 87.8954 530.604 87.5513 530.303 87.2733C530.002 86.9908 529.512 86.7743 528.833 86.6239L527.739 86.3846C526.75 86.1659 526.03 85.8287 525.579 85.3729C525.132 84.9126 524.909 84.3247 524.909 83.6093V83.6024C524.914 83.0555 525.062 82.5725 525.354 82.1532C525.65 81.7339 526.058 81.4058 526.577 81.1688C527.101 80.9318 527.703 80.8134 528.382 80.8134C529.038 80.8134 529.619 80.9318 530.125 81.1688C530.631 81.4012 531.032 81.7157 531.328 82.1122C531.629 82.5087 531.795 82.953 531.827 83.4452L531.834 83.5409H530.604L530.59 83.452C530.544 83.1604 530.426 82.9029 530.234 82.6796C530.043 82.4517 529.788 82.2717 529.469 82.1395C529.15 82.0074 528.776 81.9436 528.348 81.9481C527.938 81.9481 527.568 82.0119 527.24 82.1395C526.912 82.2671 526.65 82.4517 526.454 82.6932C526.263 82.9302 526.167 83.2219 526.167 83.5682V83.5751C526.167 83.967 526.313 84.2974 526.604 84.5663C526.896 84.8352 527.377 85.0425 528.047 85.1884L529.141 85.4344C529.829 85.5848 530.382 85.7808 530.802 86.0223C531.221 86.2639 531.526 86.5601 531.718 86.911C531.914 87.2574 532.012 87.6675 532.012 88.1415V88.1483C532.012 88.7635 531.861 89.2945 531.561 89.7411C531.26 90.1877 530.836 90.5341 530.289 90.7802C529.742 91.0217 529.102 91.1425 528.368 91.1425ZM538 90.91V81.0458H539.429L542.806 89.2762H542.915L546.292 81.0458H547.721V90.91H546.572V83.3768H545.971L547.352 81.3192L543.38 90.91H542.341L538.376 81.3192L539.75 83.3768H539.148V90.91H538ZM553.114 91.0399C552.417 91.0399 551.813 90.8872 551.303 90.5819C550.797 90.272 550.405 89.8322 550.127 89.2626C549.854 88.6929 549.717 88.0162 549.717 87.2323V87.2186C549.717 86.4302 549.854 85.7512 550.127 85.1815C550.405 84.6119 550.797 84.1744 551.303 83.869C551.813 83.5637 552.417 83.411 553.114 83.411C553.816 83.411 554.42 83.5637 554.926 83.869C555.432 84.1744 555.821 84.6119 556.095 85.1815C556.373 85.7512 556.512 86.4302 556.512 87.2186V87.2323C556.512 88.0162 556.373 88.6929 556.095 89.2626C555.821 89.8322 555.432 90.272 554.926 90.5819C554.42 90.8872 553.816 91.0399 553.114 91.0399ZM553.114 89.9872C553.579 89.9872 553.973 89.8778 554.297 89.6591C554.62 89.4403 554.867 89.1259 555.035 88.7157C555.208 88.3055 555.295 87.8111 555.295 87.2323V87.2186C555.295 86.6353 555.208 86.1385 555.035 85.7284C554.867 85.3182 554.62 85.0061 554.297 84.7919C553.973 84.5731 553.579 84.4637 553.114 84.4637C552.649 84.4637 552.255 84.5731 551.932 84.7919C551.608 85.0061 551.36 85.3182 551.187 85.7284C551.018 86.1385 550.934 86.6353 550.934 87.2186V87.2323C550.934 87.8111 551.018 88.3055 551.187 88.7157C551.36 89.1259 551.608 89.4403 551.932 89.6591C552.255 89.8778 552.649 89.9872 553.114 89.9872ZM561.078 91.0399C560.458 91.0399 559.916 90.8827 559.451 90.5682C558.986 90.2538 558.626 89.8117 558.371 89.2421C558.116 88.6678 557.988 87.9979 557.988 87.2323V87.2186C557.988 86.4484 558.116 85.7785 558.371 85.2089C558.626 84.6392 558.984 84.1971 559.444 83.8827C559.909 83.5682 560.454 83.411 561.078 83.411C561.415 83.411 561.732 83.4657 562.028 83.5751C562.329 83.6799 562.596 83.828 562.828 84.0194C563.061 84.2108 563.243 84.4387 563.375 84.703H563.484V80.6151H564.674V90.91H563.484V89.7343H563.375C563.225 90.0077 563.035 90.2424 562.808 90.4384C562.58 90.6298 562.32 90.7779 562.028 90.8827C561.737 90.9875 561.42 91.0399 561.078 91.0399ZM561.352 89.9872C561.798 89.9872 562.183 89.8755 562.507 89.6522C562.83 89.4289 563.079 89.1122 563.252 88.702C563.425 88.2873 563.512 87.7974 563.512 87.2323V87.2186C563.512 86.649 563.425 86.1591 563.252 85.7489C563.079 85.3387 562.83 85.022 562.507 84.7987C562.183 84.5754 561.798 84.4637 561.352 84.4637C560.905 84.4637 560.52 84.5754 560.196 84.7987C559.877 85.0175 559.631 85.3319 559.458 85.7421C559.289 86.1522 559.205 86.6444 559.205 87.2186V87.2323C559.205 87.802 559.289 88.2941 559.458 88.7089C559.631 89.119 559.877 89.4358 560.196 89.6591C560.52 89.8778 560.905 89.9872 561.352 89.9872ZM569.425 91.0399C568.869 91.0399 568.402 90.9351 568.023 90.7255C567.645 90.5113 567.36 90.2014 567.169 89.7958C566.982 89.3856 566.889 88.8912 566.889 88.3124V83.5409H568.078V88.0253C568.078 88.6861 568.206 89.1783 568.461 89.5018C568.721 89.8254 569.145 89.9872 569.732 89.9872C570.056 89.9872 570.341 89.9393 570.587 89.8436C570.838 89.7479 571.047 89.6112 571.216 89.4335C571.384 89.2512 571.51 89.0324 571.592 88.7772C571.678 88.5175 571.722 88.2258 571.722 87.9022V83.5409H572.911V90.91H571.722V89.8094H571.612C571.494 90.0692 571.332 90.2925 571.127 90.4794C570.922 90.6617 570.676 90.8007 570.389 90.8964C570.106 90.9921 569.785 91.0399 569.425 91.0399ZM575.201 90.91V80.6151H576.391V90.91H575.201ZM581.682 91.0399C580.98 91.0399 580.376 90.885 579.87 90.5751C579.369 90.2652 578.981 89.8277 578.708 89.2626C578.439 88.6929 578.305 88.023 578.305 87.2528V87.246C578.305 86.4849 578.439 85.8173 578.708 85.243C578.981 84.6688 579.367 84.2199 579.863 83.8964C580.36 83.5728 580.941 83.411 581.606 83.411C582.276 83.411 582.851 83.566 583.329 83.8759C583.812 84.1858 584.181 84.6187 584.437 85.1747C584.696 85.7261 584.826 86.3687 584.826 87.1024V87.5673H578.92V86.6171H584.218L583.63 87.4852V87.0135C583.63 86.4348 583.543 85.9585 583.37 85.5848C583.197 85.2111 582.958 84.9331 582.652 84.7509C582.347 84.564 581.996 84.4706 581.6 84.4706C581.203 84.4706 580.848 84.5686 580.533 84.7645C580.223 84.9559 579.977 85.2408 579.795 85.619C579.613 85.9973 579.521 86.4621 579.521 87.0135V87.4852C579.521 88.0093 579.61 88.4582 579.788 88.8319C579.966 89.201 580.219 89.4859 580.547 89.6864C580.875 89.8824 581.262 89.9803 581.709 89.9803C582.042 89.9803 582.331 89.9348 582.577 89.8436C582.823 89.7525 583.026 89.6363 583.186 89.495C583.345 89.3537 583.457 89.2102 583.521 89.0643L583.548 89.0028H584.737L584.724 89.0575C584.66 89.3081 584.546 89.552 584.382 89.7889C584.222 90.0214 584.015 90.2333 583.76 90.4247C583.505 90.6115 583.201 90.7619 582.851 90.8759C582.504 90.9852 582.115 91.0399 581.682 91.0399ZM589.201 91.0399C588.654 91.0399 588.171 90.9579 587.752 90.7938C587.333 90.6252 586.995 90.3905 586.74 90.0897C586.49 89.7889 586.341 89.4358 586.296 89.0302H587.513C587.613 89.3355 587.809 89.5816 588.101 89.7684C588.392 89.9553 588.773 90.0487 589.242 90.0487C589.575 90.0487 589.867 90.0009 590.117 89.9052C590.372 89.8049 590.573 89.6705 590.719 89.5018C590.865 89.3287 590.938 89.1304 590.938 88.9071V88.8934C590.938 88.6428 590.837 88.4309 590.637 88.2577C590.436 88.08 590.108 87.9364 589.652 87.827L588.511 87.5536C588.05 87.4442 587.672 87.3029 587.376 87.1298C587.08 86.952 586.861 86.7356 586.72 86.4803C586.578 86.2206 586.508 85.9152 586.508 85.5643V85.5575C586.508 85.1473 586.626 84.7805 586.863 84.4569C587.105 84.1333 587.433 83.8781 587.848 83.6913C588.262 83.5044 588.729 83.411 589.249 83.411C589.764 83.411 590.22 83.493 590.616 83.6571C591.017 83.8166 591.339 84.0445 591.58 84.3407C591.826 84.6369 591.977 84.9856 592.031 85.3866H590.862C590.785 85.0949 590.607 84.858 590.329 84.6757C590.051 84.4934 589.689 84.4022 589.242 84.4022C588.951 84.4022 588.691 84.4501 588.463 84.5458C588.235 84.6369 588.055 84.7645 587.923 84.9286C587.791 85.0927 587.725 85.2841 587.725 85.5028V85.5165C587.725 85.6805 587.768 85.8264 587.854 85.954C587.941 86.0816 588.076 86.1932 588.258 86.2889C588.44 86.3846 588.675 86.469 588.962 86.5419L590.097 86.8153C590.789 86.9839 591.304 87.2255 591.642 87.5399C591.983 87.8544 592.154 88.2759 592.154 88.8046V88.8182C592.154 89.2557 592.024 89.6431 591.765 89.9803C591.505 90.313 591.152 90.5728 590.705 90.7596C590.263 90.9465 589.762 91.0399 589.201 91.0399Z" fill="#343A4D"/>
<path d="M645.327 80.8134C645.778 80.8134 646.223 80.8999 646.66 81.0731C647.102 81.2463 647.501 81.5266 647.856 81.9139C648.216 82.3013 648.504 82.814 648.718 83.452C648.932 84.0855 649.039 84.8671 649.039 85.7968V85.8104C649.039 86.9315 648.889 87.8908 648.588 88.6884C648.287 89.4813 647.854 90.0897 647.289 90.5135C646.724 90.9328 646.043 91.1425 645.245 91.1425C644.694 91.1425 644.195 91.0422 643.748 90.8417C643.306 90.6366 642.937 90.3518 642.641 89.9872C642.344 89.6226 642.139 89.1988 642.025 88.7157L642.005 88.6268H643.242L643.27 88.702C643.37 88.9755 643.511 89.2124 643.693 89.413C643.88 89.6135 644.104 89.7684 644.363 89.8778C644.628 89.9872 644.926 90.0419 645.259 90.0419C645.856 90.0419 646.341 89.8687 646.715 89.5223C647.089 89.1714 647.367 88.7066 647.549 88.1278C647.731 87.549 647.834 86.9178 647.856 86.2343C647.861 86.1705 647.863 86.1089 647.863 86.0497C647.863 85.9859 647.863 85.9244 647.863 85.8651L647.569 84.2245C647.569 83.7915 647.469 83.3996 647.269 83.0487C647.073 82.6978 646.806 82.4198 646.469 82.2147C646.136 82.0051 645.76 81.9003 645.341 81.9003C644.931 81.9003 644.557 82.0028 644.22 82.2079C643.882 82.4084 643.614 82.6818 643.413 83.0282C643.213 83.37 643.112 83.7551 643.112 84.1835V84.1971C643.112 84.6346 643.208 85.0243 643.399 85.3661C643.591 85.7033 643.853 85.9699 644.186 86.1659C644.518 86.3573 644.896 86.453 645.32 86.453C645.749 86.453 646.132 86.3573 646.469 86.1659C646.806 85.9745 647.073 85.7124 647.269 85.3798C647.469 85.0425 647.569 84.6597 647.569 84.2313V84.2245H647.973V86.0018H647.733C647.615 86.2707 647.433 86.5214 647.187 86.7538C646.945 86.9862 646.649 87.1731 646.298 87.3143C645.951 87.4556 645.555 87.5262 645.108 87.5262C644.493 87.5262 643.942 87.3827 643.454 87.0956C642.966 86.8085 642.581 86.4165 642.299 85.9198C642.016 85.4185 641.875 84.8534 641.875 84.2245V84.2108C641.875 83.5546 642.023 82.9712 642.319 82.4608C642.62 81.9458 643.03 81.5425 643.55 81.2509C644.074 80.9592 644.666 80.8134 645.327 80.8134Z" fill="#343A4D"/>
</g>
<rect x="462.5" y="26.41" width="199" height="79" rx="5.5" stroke="#DBE2F0"/>
<path d="M455.707 72.41L462.5 79.2029V72.41V65.6171L455.707 72.41Z" fill="white" stroke="#DBE2F0"/>
<path d="M457.107 72.41L462.5 77.8029L462.5 72.41V67.0171L457.107 72.41Z" stroke="white"/>
</g>
<defs>
<filter id="filter0_dd_1185_4609" x="451" y="23.91" width="269" height="107" filterUnits="userSpaceOnUse" color-interpolation-filters="sRGB">
<feFlood flood-opacity="0" result="BackgroundImageFix"/>
<feColorMatrix in="SourceAlpha" type="matrix" values="0 0 0 0 0 0 0 0 0 0 0 0 0 0 0 0 0 0 127 0" result="hardAlpha"/>
<feMorphology radius="1" operator="erode" in="SourceAlpha" result="effect1_dropShadow_1185_4609"/>
<feOffset dy="1"/>
<feGaussianBlur stdDeviation="1"/>
<feColorMatrix type="matrix" values="0 0 0 0 0 0 0 0 0 0 0 0 0 0 0 0 0 0 0.1 0"/>
<feBlend mode="normal" in2="BackgroundImageFix" result="effect1_dropShadow_1185_4609"/>
<feColorMatrix in="SourceAlpha" type="matrix" values="0 0 0 0 0 0 0 0 0 0 0 0 0 0 0 0 0 0 127 0" result="hardAlpha"/>
<feOffset dy="1"/>
<feGaussianBlur stdDeviation="1.5"/>
<feColorMatrix type="matrix" values="0 0 0 0 0 0 0 0 0 0 0 0 0 0 0 0 0 0 0.1 0"/>
<feBlend mode="normal" in2="effect1_dropShadow_1185_4609" result="effect2_dropShadow_1185_4609"/>
<feBlend mode="normal" in="SourceGraphic" in2="effect2_dropShadow_1185_4609" result="shape"/>
</filter>
<linearGradient id="paint0_linear_1185_4609" x1="558" y1="174.41" x2="0.00141717" y2="172.068" gradientUnits="userSpaceOnUse">
<stop stop-opacity="0"/>
<stop offset="0.114873" stop-opacity="0.532418"/>
<stop offset="0.264833" stop-opacity="0.6"/>
<stop offset="0.487901" stop-opacity="0.53"/>
<stop offset="0.831232" stop-opacity="0.38"/>
<stop offset="1" stop-opacity="0"/>
</linearGradient>
<linearGradient id="paint1_linear_1185_4609" x1="558" y1="54.41" x2="0.00141717" y2="52.0682" gradientUnits="userSpaceOnUse">
<stop stop-opacity="0"/>
<stop offset="0.114873" stop-opacity="0.532418"/>
<stop offset="0.205612" stop-opacity="0.6"/>
<stop offset="0.301292" stop-opacity="0"/>
</linearGradient>
<linearGradient id="paint2_linear_1185_4609" x1="558" y1="294.41" x2="0.00141717" y2="292.068" gradientUnits="userSpaceOnUse">
<stop stop-opacity="0"/>
<stop offset="0.114873" stop-opacity="0.532418"/>
<stop offset="0.264833" stop-opacity="0.6"/>
<stop offset="0.487901" stop-opacity="0.53"/>
<stop offset="0.831232" stop-opacity="0.38"/>
<stop offset="1" stop-opacity="0"/>
</linearGradient>
<linearGradient id="paint3_linear_1185_4609" x1="558" y1="414.41" x2="0.00141717" y2="412.068" gradientUnits="userSpaceOnUse">
<stop stop-opacity="0"/>
<stop offset="0.114873" stop-opacity="0.532418"/>
<stop offset="0.264833" stop-opacity="0.6"/>
<stop offset="0.487901" stop-opacity="0.53"/>
<stop offset="0.831232" stop-opacity="0.38"/>
<stop offset="1" stop-opacity="0"/>
</linearGradient>
<clipPath id="clip0_1185_4609">
<rect x="462" y="25.91" width="200" height="80" rx="6" fill="white"/>
</clipPath>
</defs>
</svg>
