<svg width="709" height="448" viewBox="0 0 709 448" fill="none" xmlns="http://www.w3.org/2000/svg">
<line y1="140.41" x2="558" y2="140.41" stroke="url(#paint0_linear_0_1)" stroke-opacity="0.3"/>
<line y1="20.41" x2="558" y2="20.41" stroke="url(#paint1_linear_0_1)" stroke-opacity="0.3"/>
<line y1="260.41" x2="558" y2="260.41" stroke="url(#paint2_linear_0_1)" stroke-opacity="0.3"/>
<line y1="380.41" x2="558" y2="380.41" stroke="url(#paint3_linear_0_1)" stroke-opacity="0.3"/>
<path d="M41.1738 379.698H336.001L395.001 94.91L454.001 49.41L512.501 20.91" stroke="#17AB52" stroke-width="3"/>
<path d="M49.4248 379.654C49.4248 384.207 45.7315 387.899 41.1733 387.899C36.6152 387.899 32.9219 384.207 32.9219 379.654C32.9219 375.102 36.6152 371.41 41.1733 371.41C45.7315 371.41 49.4248 375.102 49.4248 379.654Z" fill="white" stroke="#17AB52" stroke-width="3"/>
<path d="M108.003 379.655C108.003 384.207 104.31 387.899 99.7515 387.899C95.1933 387.899 91.5 384.207 91.5 379.655C91.5 375.102 95.1933 371.41 99.7515 371.41C104.31 371.41 108.003 375.102 108.003 379.655Z" fill="white" stroke="#17AB52" stroke-width="3"/>
<path d="M167.003 379.655C167.003 384.207 163.31 387.899 158.751 387.899C154.193 387.899 150.5 384.207 150.5 379.655C150.5 375.102 154.193 371.41 158.751 371.41C163.31 371.41 167.003 375.102 167.003 379.655Z" fill="white" stroke="#17AB52" stroke-width="3"/>
<path d="M403.003 94.6546C403.003 99.2069 399.31 102.899 394.751 102.899C390.193 102.899 386.5 99.2069 386.5 94.6546C386.5 90.1022 390.193 86.41 394.751 86.41C399.31 86.41 403.003 90.1022 403.003 94.6546Z" fill="white" stroke="#17AB52" stroke-width="3"/>
<path d="M226.003 379.655C226.003 384.207 222.31 387.899 217.751 387.899C213.193 387.899 209.5 384.207 209.5 379.655C209.5 375.102 213.193 371.41 217.751 371.41C222.31 371.41 226.003 375.102 226.003 379.655Z" fill="white" stroke="#17AB52" stroke-width="3"/>
<path d="M285.003 379.655C285.003 384.207 281.31 387.899 276.751 387.899C272.193 387.899 268.5 384.207 268.5 379.655C268.5 375.102 272.193 371.41 276.751 371.41C281.31 371.41 285.003 375.102 285.003 379.655Z" fill="white" stroke="#17AB52" stroke-width="3"/>
<path d="M344.003 379.655C344.003 384.207 340.31 387.899 335.751 387.899C331.193 387.899 327.5 384.207 327.5 379.655C327.5 375.102 331.193 371.41 335.751 371.41C340.31 371.41 344.003 375.102 344.003 379.655Z" fill="white" stroke="#17AB52" stroke-width="3"/>
<path d="M462.003 49.6546C462.003 54.2069 458.31 57.8991 453.751 57.8991C449.193 57.8991 445.5 54.2069 445.5 49.6546C445.5 45.1022 449.193 41.41 453.751 41.41C458.31 41.41 462.003 45.1022 462.003 49.6546Z" fill="white" stroke="#17AB52" stroke-width="3"/>
<path d="M521.003 20.6546C521.003 25.2069 517.31 28.8991 512.751 28.8991C508.193 28.8991 504.5 25.2069 504.5 20.6546C504.5 16.1022 508.193 12.41 512.751 12.41C517.31 12.41 521.003 16.1022 521.003 20.6546Z" fill="white" stroke="#17AB52" stroke-width="3"/>
<path d="M40 310.41L99.5 284.91L159 310.41L217.5 320.91H276.5L335.5 329.41L395 360.91H454H511" stroke="#D62687" stroke-width="3"/>
<path d="M49.0029 310.655C49.0029 315.207 45.3096 318.899 40.7515 318.899C36.1933 318.899 32.5 315.207 32.5 310.655C32.5 306.102 36.1933 302.41 40.7515 302.41C45.3096 302.41 49.0029 306.102 49.0029 310.655Z" fill="white" stroke="#D62687" stroke-width="3"/>
<path d="M108.003 285.655C108.003 290.207 104.31 293.899 99.7515 293.899C95.1933 293.899 91.5 290.207 91.5 285.655C91.5 281.102 95.1933 277.41 99.7515 277.41C104.31 277.41 108.003 281.102 108.003 285.655Z" fill="white" stroke="#D62687" stroke-width="3"/>
<path d="M167.003 310.655C167.003 315.207 163.31 318.899 158.751 318.899C154.193 318.899 150.5 315.207 150.5 310.655C150.5 306.102 154.193 302.41 158.751 302.41C163.31 302.41 167.003 306.102 167.003 310.655Z" fill="white" stroke="#D62687" stroke-width="3"/>
<path d="M403.003 360.655C403.003 365.207 399.31 368.899 394.751 368.899C390.193 368.899 386.5 365.207 386.5 360.655C386.5 356.102 390.193 352.41 394.751 352.41C399.31 352.41 403.003 356.102 403.003 360.655Z" fill="white" stroke="#D62687" stroke-width="3"/>
<path d="M226.003 319.655C226.003 324.207 222.31 327.899 217.751 327.899C213.193 327.899 209.5 324.207 209.5 319.655C209.5 315.102 213.193 311.41 217.751 311.41C222.31 311.41 226.003 315.102 226.003 319.655Z" fill="white" stroke="#D62687" stroke-width="3"/>
<path d="M285.003 320.655C285.003 325.207 281.31 328.899 276.751 328.899C272.193 328.899 268.5 325.207 268.5 320.655C268.5 316.102 272.193 312.41 276.751 312.41C281.31 312.41 285.003 316.102 285.003 320.655Z" fill="white" stroke="#D62687" stroke-width="3"/>
<path d="M344.003 329.655C344.003 334.207 340.31 337.899 335.751 337.899C331.193 337.899 327.5 334.207 327.5 329.655C327.5 325.102 331.193 321.41 335.751 321.41C340.31 321.41 344.003 325.102 344.003 329.655Z" fill="white" stroke="#D62687" stroke-width="3"/>
<path d="M462.003 360.655C462.003 365.207 458.31 368.899 453.751 368.899C449.193 368.899 445.5 365.207 445.5 360.655C445.5 356.102 449.193 352.41 453.751 352.41C458.31 352.41 462.003 356.102 462.003 360.655Z" fill="white" stroke="#D62687" stroke-width="3"/>
<path d="M521.003 360.655C521.003 365.207 517.31 368.899 512.751 368.899C508.193 368.899 504.5 365.207 504.5 360.655C504.5 356.102 508.193 352.41 512.751 352.41C517.31 352.41 521.003 356.102 521.003 360.655Z" fill="white" stroke="#D62687" stroke-width="3"/>
<path d="M78.7812 438.91V427.932H74.7998V426.227H84.7314V427.932H80.7588V438.91H78.7812ZM87.4609 439.068C86.8574 439.068 86.3154 438.954 85.835 438.725C85.3604 438.491 84.9854 438.16 84.71 437.732C84.4404 437.305 84.3057 436.804 84.3057 436.229V436.212C84.3057 435.643 84.4434 435.157 84.7188 434.753C84.9941 434.343 85.3955 434.023 85.9229 433.795C86.4561 433.56 87.1006 433.423 87.8564 433.382L91.3809 433.171V434.516L88.1201 434.726C87.4639 434.762 86.9805 434.899 86.6699 435.14C86.3652 435.38 86.2129 435.711 86.2129 436.133V436.15C86.2129 436.59 86.377 436.932 86.7051 437.179C87.0391 437.425 87.4639 437.548 87.9795 437.548C88.4541 437.548 88.876 437.454 89.2451 437.266C89.6143 437.073 89.9043 436.815 90.1152 436.493C90.3262 436.165 90.4316 435.796 90.4316 435.386V432.397C90.4316 431.87 90.2676 431.469 89.9395 431.193C89.6172 430.912 89.1367 430.771 88.498 430.771C87.9648 430.771 87.5312 430.865 87.1973 431.053C86.8633 431.24 86.6377 431.504 86.5205 431.844L86.5117 431.879H84.6748L84.6836 431.808C84.7598 431.287 84.9678 430.83 85.3076 430.437C85.6475 430.045 86.0957 429.74 86.6523 429.523C87.209 429.301 87.8506 429.189 88.5771 429.189C89.3799 429.189 90.0596 429.318 90.6162 429.576C91.1787 429.828 91.6035 430.194 91.8906 430.675C92.1836 431.149 92.3301 431.721 92.3301 432.389V438.91H90.4316V437.548H90.291C90.1035 437.87 89.8691 438.145 89.5879 438.374C89.3125 438.602 88.9932 438.775 88.6299 438.892C88.2725 439.01 87.8828 439.068 87.4609 439.068ZM94.7607 438.91V429.374H96.6768V438.91H94.7607ZM95.7275 427.686C95.3994 427.686 95.1182 427.569 94.8838 427.335C94.6494 427.1 94.5322 426.822 94.5322 426.5C94.5322 426.172 94.6494 425.893 94.8838 425.665C95.1182 425.431 95.3994 425.313 95.7275 425.313C96.0557 425.313 96.3369 425.431 96.5713 425.665C96.8057 425.893 96.9229 426.172 96.9229 426.5C96.9229 426.822 96.8057 427.1 96.5713 427.335C96.3369 427.569 96.0557 427.686 95.7275 427.686ZM99.248 438.91V425.647H101.155V438.91H99.248ZM105.537 438.91L102.918 429.374H104.834L106.539 436.739H106.68L108.64 429.374H110.459L112.428 436.739H112.568L114.273 429.374H116.172L113.544 438.91H111.575L109.598 431.8H109.457L107.497 438.91H105.537ZM117.864 438.91V429.374H119.78V438.91H117.864ZM118.831 427.686C118.503 427.686 118.222 427.569 117.987 427.335C117.753 427.1 117.636 426.822 117.636 426.5C117.636 426.172 117.753 425.893 117.987 425.665C118.222 425.431 118.503 425.313 118.831 425.313C119.159 425.313 119.44 425.431 119.675 425.665C119.909 425.893 120.026 426.172 120.026 426.5C120.026 426.822 119.909 427.1 119.675 427.335C119.44 427.569 119.159 427.686 118.831 427.686ZM122.264 438.91V429.374H124.171V430.824H124.312C124.546 430.314 124.892 429.916 125.349 429.629C125.812 429.336 126.389 429.189 127.08 429.189C128.152 429.189 128.973 429.497 129.541 430.112C130.109 430.727 130.394 431.603 130.394 432.74V438.91H128.478V433.18C128.478 432.394 128.311 431.808 127.977 431.422C127.648 431.029 127.133 430.833 126.43 430.833C125.967 430.833 125.565 430.935 125.226 431.141C124.892 431.34 124.631 431.624 124.443 431.993C124.262 432.362 124.171 432.805 124.171 433.32V438.91H122.264ZM136.252 439.077C135.449 439.077 134.752 438.875 134.16 438.471C133.568 438.066 133.108 437.495 132.78 436.757C132.458 436.018 132.297 435.151 132.297 434.155V434.138C132.297 433.13 132.458 432.26 132.78 431.527C133.103 430.789 133.56 430.221 134.151 429.822C134.743 429.418 135.443 429.216 136.252 429.216C136.686 429.216 137.093 429.286 137.474 429.427C137.854 429.561 138.191 429.755 138.484 430.007C138.783 430.253 139.015 430.549 139.179 430.894H139.319V425.647H141.235V438.91H139.319V437.398H139.179C138.997 437.75 138.763 438.052 138.476 438.304C138.188 438.55 137.857 438.74 137.482 438.875C137.107 439.01 136.697 439.077 136.252 439.077ZM136.788 437.433C137.315 437.433 137.77 437.302 138.15 437.038C138.537 436.774 138.833 436.396 139.038 435.904C139.249 435.412 139.354 434.829 139.354 434.155V434.138C139.354 433.458 139.249 432.875 139.038 432.389C138.833 431.896 138.537 431.518 138.15 431.255C137.77 430.985 137.315 430.85 136.788 430.85C136.261 430.85 135.807 430.982 135.426 431.246C135.045 431.51 134.752 431.888 134.547 432.38C134.348 432.866 134.248 433.452 134.248 434.138V434.155C134.248 434.829 134.348 435.412 134.547 435.904C134.752 436.396 135.045 436.774 135.426 437.038C135.807 437.302 136.261 437.433 136.788 437.433ZM153.805 439.218C152.627 439.218 151.607 438.948 150.746 438.409C149.891 437.87 149.231 437.105 148.769 436.115C148.306 435.119 148.074 433.941 148.074 432.582V432.564C148.074 431.193 148.306 430.013 148.769 429.022C149.231 428.032 149.891 427.267 150.746 426.728C151.602 426.189 152.621 425.92 153.805 425.92C154.736 425.92 155.577 426.104 156.327 426.474C157.083 426.837 157.701 427.341 158.182 427.985C158.668 428.63 158.964 429.371 159.069 430.209V430.262H157.118L157.101 430.226C156.978 429.705 156.761 429.254 156.45 428.873C156.146 428.492 155.768 428.196 155.316 427.985C154.865 427.774 154.361 427.669 153.805 427.669C153.049 427.669 152.393 427.868 151.836 428.266C151.279 428.665 150.849 429.23 150.544 429.963C150.245 430.689 150.096 431.557 150.096 432.564V432.582C150.096 433.578 150.245 434.442 150.544 435.175C150.849 435.907 151.279 436.473 151.836 436.871C152.393 437.269 153.052 437.469 153.813 437.469C154.37 437.469 154.874 437.375 155.325 437.187C155.782 436.994 156.163 436.724 156.468 436.379C156.772 436.027 156.983 435.614 157.101 435.14L157.118 435.096H159.078V435.148C158.949 435.963 158.647 436.675 158.173 437.284C157.698 437.893 157.089 438.368 156.345 438.708C155.601 439.048 154.754 439.218 153.805 439.218ZM165.657 439.218C164.702 439.218 163.87 439.065 163.161 438.761C162.452 438.456 161.893 438.037 161.482 437.504C161.072 436.965 160.838 436.338 160.779 435.623L160.771 435.517H162.713L162.722 435.605C162.763 435.992 162.912 436.326 163.17 436.607C163.434 436.889 163.785 437.108 164.225 437.266C164.67 437.419 165.177 437.495 165.745 437.495C166.284 437.495 166.759 437.413 167.169 437.249C167.585 437.079 167.91 436.845 168.145 436.546C168.385 436.247 168.505 435.904 168.505 435.517V435.509C168.505 435.016 168.32 434.612 167.951 434.296C167.582 433.974 166.979 433.722 166.141 433.54L164.752 433.25C163.469 432.969 162.534 432.529 161.948 431.932C161.362 431.334 161.069 430.569 161.069 429.638V429.629C161.075 428.896 161.271 428.252 161.658 427.695C162.051 427.139 162.593 426.705 163.284 426.394C163.976 426.078 164.77 425.92 165.666 425.92C166.562 425.92 167.345 426.075 168.013 426.386C168.687 426.69 169.217 427.106 169.604 427.634C169.996 428.161 170.216 428.756 170.263 429.418L170.271 429.541H168.347L168.329 429.427C168.276 429.075 168.133 428.767 167.898 428.504C167.67 428.234 167.362 428.023 166.976 427.871C166.595 427.713 166.149 427.637 165.64 427.642C165.147 427.642 164.708 427.719 164.321 427.871C163.935 428.017 163.627 428.231 163.398 428.513C163.176 428.788 163.064 429.125 163.064 429.523V429.532C163.064 430.007 163.243 430.402 163.601 430.719C163.964 431.029 164.553 431.269 165.367 431.439L166.756 431.747C167.641 431.934 168.358 432.183 168.909 432.494C169.46 432.805 169.861 433.188 170.113 433.645C170.371 434.097 170.5 434.639 170.5 435.271V435.28C170.5 436.083 170.301 436.78 169.902 437.372C169.51 437.958 168.95 438.412 168.224 438.734C167.503 439.057 166.647 439.218 165.657 439.218ZM177.097 439.218C176.142 439.218 175.31 439.065 174.601 438.761C173.892 438.456 173.332 438.037 172.922 437.504C172.512 436.965 172.277 436.338 172.219 435.623L172.21 435.517H174.152L174.161 435.605C174.202 435.992 174.352 436.326 174.609 436.607C174.873 436.889 175.225 437.108 175.664 437.266C176.109 437.419 176.616 437.495 177.185 437.495C177.724 437.495 178.198 437.413 178.608 437.249C179.024 437.079 179.35 436.845 179.584 436.546C179.824 436.247 179.944 435.904 179.944 435.517V435.509C179.944 435.016 179.76 434.612 179.391 434.296C179.021 433.974 178.418 433.722 177.58 433.54L176.191 433.25C174.908 432.969 173.974 432.529 173.388 431.932C172.802 431.334 172.509 430.569 172.509 429.638V429.629C172.515 428.896 172.711 428.252 173.098 427.695C173.49 427.139 174.032 426.705 174.724 426.394C175.415 426.078 176.209 425.92 177.105 425.92C178.002 425.92 178.784 426.075 179.452 426.386C180.126 426.69 180.656 427.106 181.043 427.634C181.436 428.161 181.655 428.756 181.702 429.418L181.711 429.541H179.786L179.769 429.427C179.716 429.075 179.572 428.767 179.338 428.504C179.109 428.234 178.802 428.023 178.415 427.871C178.034 427.713 177.589 427.637 177.079 427.642C176.587 427.642 176.147 427.719 175.761 427.871C175.374 428.017 175.066 428.231 174.838 428.513C174.615 428.788 174.504 429.125 174.504 429.523V429.532C174.504 430.007 174.683 430.402 175.04 430.719C175.403 431.029 175.992 431.269 176.807 431.439L178.195 431.747C179.08 431.934 179.798 432.183 180.349 432.494C180.899 432.805 181.301 433.188 181.553 433.645C181.811 434.097 181.939 434.639 181.939 435.271V435.28C181.939 436.083 181.74 436.78 181.342 437.372C180.949 437.958 180.39 438.412 179.663 438.734C178.942 439.057 178.087 439.218 177.097 439.218Z" fill="black"/>
<path d="M60.2588 433.835C60.2588 437.191 57.5357 439.914 54.1743 439.914C50.8129 439.914 48.0898 437.191 48.0898 433.835C48.0898 430.478 50.8129 427.755 54.1743 427.755C57.5357 427.755 60.2588 430.478 60.2588 433.835Z" fill="#17AB52" stroke="#17AB52" stroke-width="3"/>
<path d="M257.968 438.91V437.302H261.791C262.682 437.302 263.355 437.123 263.812 436.766C264.27 436.408 264.498 435.89 264.498 435.21V435.192C264.498 434.741 264.393 434.363 264.182 434.058C263.971 433.748 263.654 433.516 263.232 433.364C262.816 433.206 262.298 433.127 261.677 433.127H257.968V431.624H261.281C262.154 431.624 262.813 431.463 263.259 431.141C263.704 430.818 263.927 430.349 263.927 429.734V429.717C263.927 429.125 263.725 428.665 263.32 428.337C262.916 428.003 262.351 427.836 261.624 427.836H257.968V426.227H262.081C262.878 426.227 263.561 426.356 264.129 426.614C264.697 426.872 265.134 427.238 265.438 427.713C265.743 428.182 265.896 428.738 265.896 429.383V429.4C265.896 429.846 265.796 430.262 265.597 430.648C265.397 431.035 265.131 431.36 264.797 431.624C264.463 431.882 264.085 432.046 263.663 432.116V432.266C264.237 432.324 264.738 432.491 265.166 432.766C265.594 433.042 265.928 433.399 266.168 433.839C266.408 434.272 266.528 434.765 266.528 435.315V435.333C266.528 436.071 266.353 436.71 266.001 437.249C265.655 437.782 265.16 438.192 264.516 438.479C263.871 438.766 263.098 438.91 262.195 438.91H257.968ZM256.983 438.91V426.227H258.952V438.91H256.983ZM268.757 438.91V426.227H276.808V427.932H270.726V431.633H276.482V433.267H270.726V437.205H276.808V438.91H268.757ZM279.37 438.91V426.227H281.646L285.681 436.335H285.821L289.864 426.227H292.141V438.91H290.339V429.611H289.372L291.42 426.579L286.48 438.91H285.021L280.091 426.579L282.13 429.611H281.172V438.91H279.37ZM304.842 439.218C303.664 439.218 302.645 438.948 301.783 438.409C300.928 437.87 300.269 437.105 299.806 436.115C299.343 435.119 299.111 433.941 299.111 432.582V432.564C299.111 431.193 299.343 430.013 299.806 429.022C300.269 428.032 300.928 427.267 301.783 426.728C302.639 426.189 303.658 425.92 304.842 425.92C305.773 425.92 306.614 426.104 307.364 426.474C308.12 426.837 308.738 427.341 309.219 427.985C309.705 428.63 310.001 429.371 310.106 430.209V430.262H308.155L308.138 430.226C308.015 429.705 307.798 429.254 307.487 428.873C307.183 428.492 306.805 428.196 306.354 427.985C305.902 427.774 305.398 427.669 304.842 427.669C304.086 427.669 303.43 427.868 302.873 428.266C302.316 428.665 301.886 429.23 301.581 429.963C301.282 430.689 301.133 431.557 301.133 432.564V432.582C301.133 433.578 301.282 434.442 301.581 435.175C301.886 435.907 302.316 436.473 302.873 436.871C303.43 437.269 304.089 437.469 304.851 437.469C305.407 437.469 305.911 437.375 306.362 437.187C306.819 436.994 307.2 436.724 307.505 436.379C307.81 436.027 308.021 435.614 308.138 435.14L308.155 435.096H310.115V435.148C309.986 435.963 309.685 436.675 309.21 437.284C308.735 437.893 308.126 438.368 307.382 438.708C306.638 439.048 305.791 439.218 304.842 439.218ZM316.694 439.218C315.739 439.218 314.907 439.065 314.198 438.761C313.489 438.456 312.93 438.037 312.52 437.504C312.109 436.965 311.875 436.338 311.816 435.623L311.808 435.517H313.75L313.759 435.605C313.8 435.992 313.949 436.326 314.207 436.607C314.471 436.889 314.822 437.108 315.262 437.266C315.707 437.419 316.214 437.495 316.782 437.495C317.321 437.495 317.796 437.413 318.206 437.249C318.622 437.079 318.947 436.845 319.182 436.546C319.422 436.247 319.542 435.904 319.542 435.517V435.509C319.542 435.016 319.357 434.612 318.988 434.296C318.619 433.974 318.016 433.722 317.178 433.54L315.789 433.25C314.506 432.969 313.571 432.529 312.985 431.932C312.399 431.334 312.106 430.569 312.106 429.638V429.629C312.112 428.896 312.309 428.252 312.695 427.695C313.088 427.139 313.63 426.705 314.321 426.394C315.013 426.078 315.807 425.92 316.703 425.92C317.6 425.92 318.382 426.075 319.05 426.386C319.724 426.69 320.254 427.106 320.641 427.634C321.033 428.161 321.253 428.756 321.3 429.418L321.309 429.541H319.384L319.366 429.427C319.313 429.075 319.17 428.767 318.936 428.504C318.707 428.234 318.399 428.023 318.013 427.871C317.632 427.713 317.187 427.637 316.677 427.642C316.185 427.642 315.745 427.719 315.358 427.871C314.972 428.017 314.664 428.231 314.436 428.513C314.213 428.788 314.102 429.125 314.102 429.523V429.532C314.102 430.007 314.28 430.402 314.638 430.719C315.001 431.029 315.59 431.269 316.404 431.439L317.793 431.747C318.678 431.934 319.396 432.183 319.946 432.494C320.497 432.805 320.898 433.188 321.15 433.645C321.408 434.097 321.537 434.639 321.537 435.271V435.28C321.537 436.083 321.338 436.78 320.939 437.372C320.547 437.958 319.987 438.412 319.261 438.734C318.54 439.057 317.685 439.218 316.694 439.218ZM328.134 439.218C327.179 439.218 326.347 439.065 325.638 438.761C324.929 438.456 324.369 438.037 323.959 437.504C323.549 436.965 323.314 436.338 323.256 435.623L323.247 435.517H325.189L325.198 435.605C325.239 435.992 325.389 436.326 325.646 436.607C325.91 436.889 326.262 437.108 326.701 437.266C327.146 437.419 327.653 437.495 328.222 437.495C328.761 437.495 329.235 437.413 329.646 437.249C330.062 437.079 330.387 436.845 330.621 436.546C330.861 436.247 330.981 435.904 330.981 435.517V435.509C330.981 435.016 330.797 434.612 330.428 434.296C330.059 433.974 329.455 433.722 328.617 433.54L327.229 433.25C325.945 432.969 325.011 432.529 324.425 431.932C323.839 431.334 323.546 430.569 323.546 429.638V429.629C323.552 428.896 323.748 428.252 324.135 427.695C324.527 427.139 325.069 426.705 325.761 426.394C326.452 426.078 327.246 425.92 328.143 425.92C329.039 425.92 329.821 426.075 330.489 426.386C331.163 426.69 331.693 427.106 332.08 427.634C332.473 428.161 332.692 428.756 332.739 429.418L332.748 429.541H330.823L330.806 429.427C330.753 429.075 330.609 428.767 330.375 428.504C330.146 428.234 329.839 428.023 329.452 427.871C329.071 427.713 328.626 427.637 328.116 427.642C327.624 427.642 327.185 427.719 326.798 427.871C326.411 428.017 326.104 428.231 325.875 428.513C325.652 428.788 325.541 429.125 325.541 429.523V429.532C325.541 430.007 325.72 430.402 326.077 430.719C326.44 431.029 327.029 431.269 327.844 431.439L329.232 431.747C330.117 431.934 330.835 432.183 331.386 432.494C331.937 432.805 332.338 433.188 332.59 433.645C332.848 434.097 332.977 434.639 332.977 435.271V435.28C332.977 436.083 332.777 436.78 332.379 437.372C331.986 437.958 331.427 438.412 330.7 438.734C329.979 439.057 329.124 439.218 328.134 439.218Z" fill="black"/>
<path d="M241.669 433.835C241.669 437.191 238.946 439.914 235.584 439.914C232.223 439.914 229.5 437.191 229.5 433.835C229.5 430.478 232.223 427.755 235.584 427.755C238.946 427.755 241.669 430.478 241.669 433.835Z" fill="#C4147D" stroke="#D62687" stroke-width="3"/>
<g filter="url(#filter0_dd_0_1)">
<g clip-path="url(#clip0_0_1)">
<rect width="200" height="40" transform="translate(462 2.91003)" fill="white"/>
<rect x="470" y="10.91" width="184" height="24" rx="4" fill="#F5F7FB"/>
<circle cx="480" cy="22.91" r="4.5" fill="#17AB52" stroke="#17AB52" stroke-width="3"/>
<path d="M499.821 27.91V19.1532H496.643V18.0458H504.23V19.1532H501.052V27.91H499.821ZM506.568 28.0399C506.104 28.0399 505.684 27.951 505.311 27.7733C504.941 27.5956 504.647 27.3427 504.429 27.0145C504.215 26.6864 504.107 26.299 504.107 25.8524V25.8387C504.107 25.4012 504.212 25.0275 504.422 24.7177C504.632 24.4032 504.937 24.1571 505.338 23.9794C505.739 23.8016 506.224 23.6968 506.794 23.6649L509.501 23.5009V24.451L506.938 24.6151C506.377 24.647 505.967 24.7632 505.707 24.9637C505.452 25.1643 505.324 25.4468 505.324 25.8114V25.8251C505.324 26.1988 505.465 26.4904 505.748 26.7001C506.031 26.9052 506.386 27.0077 506.814 27.0077C507.22 27.0077 507.58 26.9279 507.895 26.7684C508.209 26.6044 508.455 26.3833 508.633 26.1053C508.815 25.8274 508.906 25.5129 508.906 25.162V22.8651C508.906 22.4094 508.767 22.063 508.489 21.826C508.216 21.5845 507.803 21.4637 507.252 21.4637C506.81 21.4637 506.448 21.5435 506.165 21.703C505.882 21.858 505.693 22.079 505.598 22.3661L505.591 22.3866H504.401L504.408 22.3456C504.472 21.9582 504.632 21.621 504.887 21.3339C505.146 21.0422 505.481 20.8166 505.892 20.6571C506.302 20.493 506.769 20.411 507.293 20.411C507.895 20.411 508.403 20.509 508.817 20.705C509.237 20.9009 509.553 21.1835 509.768 21.5526C509.986 21.9172 510.096 22.3547 510.096 22.8651V27.91H508.906V26.8231H508.797C508.642 27.0829 508.453 27.3039 508.229 27.4862C508.011 27.6685 507.762 27.8075 507.484 27.9032C507.206 27.9943 506.901 28.0399 506.568 28.0399ZM512.297 27.91V20.5409H513.486V27.91H512.297ZM512.898 19.119C512.675 19.119 512.481 19.0393 512.317 18.8798C512.158 18.7157 512.078 18.522 512.078 18.2987C512.078 18.0708 512.158 17.8772 512.317 17.7177C512.481 17.5581 512.675 17.4784 512.898 17.4784C513.126 17.4784 513.32 17.5581 513.479 17.7177C513.639 17.8772 513.719 18.0708 513.719 18.2987C513.719 18.522 513.639 18.7157 513.479 18.8798C513.32 19.0393 513.126 19.119 512.898 19.119ZM515.797 27.91V17.6151H516.986V27.91H515.797ZM520.691 27.91L518.627 20.5409H519.816L521.266 26.4335H521.375L523.022 20.5409H524.15L525.798 26.4335H525.907L527.356 20.5409H528.539L526.475 27.91H525.278L523.631 22.2089H523.521L521.881 27.91H520.691ZM530.139 27.91V20.5409H531.328V27.91H530.139ZM530.74 19.119C530.517 19.119 530.323 19.0393 530.159 18.8798C530 18.7157 529.92 18.522 529.92 18.2987C529.92 18.0708 530 17.8772 530.159 17.7177C530.323 17.5581 530.517 17.4784 530.74 17.4784C530.968 17.4784 531.162 17.5581 531.321 17.7177C531.481 17.8772 531.561 18.0708 531.561 18.2987C531.561 18.522 531.481 18.7157 531.321 18.8798C531.162 19.0393 530.968 19.119 530.74 19.119ZM533.57 27.91V20.5409H534.76V21.6483H534.869C535.056 21.2564 535.325 20.9533 535.676 20.7391C536.027 20.5204 536.473 20.411 537.016 20.411C537.845 20.411 538.481 20.648 538.923 21.1219C539.369 21.5913 539.593 22.2635 539.593 23.1385V27.91H538.403V23.4257C538.403 22.7603 538.262 22.2681 537.979 21.9491C537.701 21.6255 537.269 21.4637 536.681 21.4637C536.289 21.4637 535.949 21.5481 535.662 21.7167C535.375 21.8853 535.152 22.1246 534.992 22.4344C534.837 22.7443 534.76 23.1158 534.76 23.5487V27.91H533.57ZM544.467 28.0399C543.847 28.0399 543.305 27.8827 542.84 27.5682C542.375 27.2538 542.015 26.8117 541.76 26.2421C541.505 25.6678 541.377 24.9979 541.377 24.2323V24.2186C541.377 23.4484 541.505 22.7785 541.76 22.2089C542.015 21.6392 542.373 21.1971 542.833 20.8827C543.298 20.5682 543.842 20.411 544.467 20.411C544.804 20.411 545.121 20.4657 545.417 20.5751C545.718 20.6799 545.984 20.828 546.217 21.0194C546.449 21.2108 546.632 21.4387 546.764 21.703H546.873V17.6151H548.062V27.91H546.873V26.7343H546.764C546.613 27.0077 546.424 27.2424 546.196 27.4384C545.968 27.6298 545.709 27.7779 545.417 27.8827C545.125 27.9875 544.809 28.0399 544.467 28.0399ZM544.74 26.9872C545.187 26.9872 545.572 26.8755 545.896 26.6522C546.219 26.4289 546.467 26.1122 546.641 25.702C546.814 25.2873 546.9 24.7974 546.9 24.2323V24.2186C546.9 23.649 546.814 23.1591 546.641 22.7489C546.467 22.3387 546.219 22.022 545.896 21.7987C545.572 21.5754 545.187 21.4637 544.74 21.4637C544.294 21.4637 543.909 21.5754 543.585 21.7987C543.266 22.0175 543.02 22.3319 542.847 22.7421C542.678 23.1522 542.594 23.6444 542.594 24.2186V24.2323C542.594 24.802 542.678 25.2941 542.847 25.7089C543.02 26.119 543.266 26.4358 543.585 26.6591C543.909 26.8778 544.294 26.9872 544.74 26.9872ZM558.405 28.1425C557.512 28.1425 556.74 27.9328 556.088 27.5135C555.436 27.0943 554.933 26.4996 554.577 25.7294C554.226 24.9592 554.051 24.0455 554.051 22.9882V22.9745C554.051 21.9126 554.226 20.9966 554.577 20.2264C554.933 19.4563 555.434 18.8615 556.081 18.4423C556.733 18.023 557.505 17.8134 558.398 17.8134C559.091 17.8134 559.72 17.9501 560.285 18.2235C560.855 18.4924 561.324 18.8684 561.693 19.3514C562.062 19.83 562.295 20.3837 562.391 21.0126L562.384 21.0262H561.146L561.14 21.0126C561.03 20.5887 560.846 20.2242 560.586 19.9188C560.326 19.6089 560.009 19.3697 559.636 19.201C559.267 19.0324 558.854 18.9481 558.398 18.9481C557.77 18.9481 557.223 19.1122 556.758 19.4403C556.298 19.7684 555.942 20.2333 555.691 20.8348C555.441 21.4364 555.315 22.1496 555.315 22.9745V22.9882C555.315 23.8085 555.441 24.5194 555.691 25.121C555.942 25.7225 556.298 26.1874 556.758 26.5155C557.223 26.8436 557.772 27.0077 558.405 27.0077C558.866 27.0077 559.283 26.9348 559.656 26.7889C560.03 26.6385 560.344 26.4266 560.6 26.1532C560.855 25.8752 561.033 25.5471 561.133 25.1688L561.146 25.1552H562.391V25.1688C562.281 25.7704 562.044 26.2945 561.68 26.7411C561.315 27.1831 560.853 27.5272 560.292 27.7733C559.736 28.0194 559.107 28.1425 558.405 28.1425ZM567.688 28.1425C566.968 28.1425 566.34 28.0262 565.802 27.7938C565.269 27.5568 564.845 27.2333 564.53 26.8231C564.22 26.4084 564.04 25.9344 563.99 25.4012L563.983 25.326H565.214L565.221 25.4012C565.253 25.7294 565.378 26.0142 565.597 26.2557C565.82 26.4927 566.116 26.6773 566.485 26.8094C566.859 26.9416 567.283 27.0077 567.757 27.0077C568.203 27.0077 568.6 26.9371 568.946 26.7958C569.297 26.6499 569.573 26.4494 569.773 26.1942C569.974 25.939 570.074 25.6451 570.074 25.3124V25.3055C570.074 24.8954 569.924 24.5513 569.623 24.2733C569.322 23.9908 568.832 23.7743 568.153 23.6239L567.06 23.3846C566.071 23.1659 565.351 22.8287 564.899 22.3729C564.453 21.9126 564.229 21.3247 564.229 20.6093V20.6024C564.234 20.0555 564.382 19.5725 564.674 19.1532C564.97 18.7339 565.378 18.4058 565.897 18.1688C566.422 17.9318 567.023 17.8134 567.702 17.8134C568.358 17.8134 568.939 17.9318 569.445 18.1688C569.951 18.4012 570.352 18.7157 570.648 19.1122C570.949 19.5087 571.116 19.953 571.147 20.4452L571.154 20.5409H569.924L569.91 20.452C569.865 20.1604 569.746 19.9029 569.555 19.6796C569.363 19.4517 569.108 19.2717 568.789 19.1395C568.47 19.0074 568.096 18.9436 567.668 18.9481C567.258 18.9481 566.889 19.0119 566.561 19.1395C566.232 19.2671 565.97 19.4517 565.774 19.6932C565.583 19.9302 565.487 20.2219 565.487 20.5682V20.5751C565.487 20.967 565.633 21.2974 565.925 21.5663C566.216 21.8352 566.697 22.0425 567.367 22.1884L568.461 22.4344C569.149 22.5848 569.703 22.7808 570.122 23.0223C570.541 23.2639 570.847 23.5601 571.038 23.911C571.234 24.2574 571.332 24.6675 571.332 25.1415V25.1483C571.332 25.7635 571.182 26.2945 570.881 26.7411C570.58 27.1877 570.156 27.5341 569.609 27.7802C569.062 28.0217 568.422 28.1425 567.688 28.1425ZM576.616 28.1425C575.896 28.1425 575.267 28.0262 574.729 27.7938C574.196 27.5568 573.772 27.2333 573.458 26.8231C573.148 26.4084 572.968 25.9344 572.918 25.4012L572.911 25.326H574.142L574.148 25.4012C574.18 25.7294 574.306 26.0142 574.524 26.2557C574.748 26.4927 575.044 26.6773 575.413 26.8094C575.787 26.9416 576.211 27.0077 576.685 27.0077C577.131 27.0077 577.528 26.9371 577.874 26.7958C578.225 26.6499 578.501 26.4494 578.701 26.1942C578.902 25.939 579.002 25.6451 579.002 25.3124V25.3055C579.002 24.8954 578.852 24.5513 578.551 24.2733C578.25 23.9908 577.76 23.7743 577.081 23.6239L575.987 23.3846C574.998 23.1659 574.278 22.8287 573.827 22.3729C573.381 21.9126 573.157 21.3247 573.157 20.6093V20.6024C573.162 20.0555 573.31 19.5725 573.602 19.1532C573.898 18.7339 574.306 18.4058 574.825 18.1688C575.349 17.9318 575.951 17.8134 576.63 17.8134C577.286 17.8134 577.867 17.9318 578.373 18.1688C578.879 18.4012 579.28 18.7157 579.576 19.1122C579.877 19.5087 580.043 19.953 580.075 20.4452L580.082 20.5409H578.852L578.838 20.452C578.792 20.1604 578.674 19.9029 578.482 19.6796C578.291 19.4517 578.036 19.2717 577.717 19.1395C577.398 19.0074 577.024 18.9436 576.596 18.9481C576.186 18.9481 575.816 19.0119 575.488 19.1395C575.16 19.2671 574.898 19.4517 574.702 19.6932C574.511 19.9302 574.415 20.2219 574.415 20.5682V20.5751C574.415 20.967 574.561 21.2974 574.853 21.5663C575.144 21.8352 575.625 22.0425 576.295 22.1884L577.389 22.4344C578.077 22.5848 578.631 22.7808 579.05 23.0223C579.469 23.2639 579.774 23.5601 579.966 23.911C580.162 24.2574 580.26 24.6675 580.26 25.1415V25.1483C580.26 25.7635 580.109 26.2945 579.809 26.7411C579.508 27.1877 579.084 27.5341 578.537 27.7802C577.99 28.0217 577.35 28.1425 576.616 28.1425Z" fill="#343A4D"/>
<path d="M611.514 27.91V19.413H611.404L608.896 21.2313V19.9325L611.521 18.0458H612.744V27.91H611.514ZM616.23 27.9784C615.989 27.9784 615.779 27.8918 615.602 27.7186C615.428 27.5409 615.342 27.3313 615.342 27.0897C615.342 26.8436 615.428 26.634 615.602 26.4608C615.779 26.2876 615.989 26.201 616.23 26.201C616.477 26.201 616.686 26.2876 616.859 26.4608C617.033 26.634 617.119 26.8436 617.119 27.0897C617.119 27.3313 617.033 27.5409 616.859 27.7186C616.686 27.8918 616.477 27.9784 616.23 27.9784ZM621.412 27.91V19.413H621.303L618.794 21.2313V19.9325L621.419 18.0458H622.643V27.91H621.412ZM628.795 28.1425C628.066 28.1425 627.441 27.9328 626.922 27.5135C626.407 27.0943 626.01 26.4996 625.732 25.7294C625.454 24.9546 625.315 24.0386 625.315 22.9813V22.9677C625.315 21.9104 625.454 20.9966 625.732 20.2264C626.01 19.4563 626.407 18.8615 626.922 18.4423C627.441 18.023 628.066 17.8134 628.795 17.8134C629.524 17.8134 630.148 18.023 630.668 18.4423C631.188 18.8615 631.586 19.4563 631.864 20.2264C632.147 20.9966 632.288 21.9104 632.288 22.9677V22.9813C632.288 24.0386 632.147 24.9546 631.864 25.7294C631.586 26.4996 631.188 27.0943 630.668 27.5135C630.148 27.9328 629.524 28.1425 628.795 28.1425ZM628.795 27.0692C629.269 27.0692 629.672 26.9029 630.005 26.5702C630.342 26.2375 630.6 25.7658 630.777 25.1552C630.96 24.5445 631.051 23.8199 631.051 22.9813V22.9677C631.051 22.1291 630.96 21.4068 630.777 20.8007C630.6 20.19 630.342 19.7206 630.005 19.3925C629.672 19.0598 629.269 18.8934 628.795 18.8934C628.326 18.8934 627.922 19.0598 627.585 19.3925C627.252 19.7206 626.997 20.19 626.819 20.8007C626.642 21.4068 626.553 22.1291 626.553 22.9677V22.9813C626.553 23.8199 626.642 24.5445 626.819 25.1552C626.997 25.7658 627.252 26.2375 627.585 26.5702C627.922 26.9029 628.326 27.0692 628.795 27.0692ZM637.682 28.0741C636.984 28.0741 636.367 27.9533 635.829 27.7118C635.291 27.4703 634.868 27.1376 634.558 26.7137C634.252 26.2854 634.1 25.7955 634.1 25.244V25.2303C634.1 24.8247 634.188 24.4488 634.366 24.1024C634.544 23.7561 634.792 23.4621 635.111 23.2206C635.43 22.9745 635.799 22.8036 636.219 22.7079V22.6805C635.681 22.5119 635.253 22.2339 634.934 21.8466C634.615 21.4592 634.455 21.0057 634.455 20.4862V20.4725C634.455 19.9758 634.594 19.5337 634.872 19.1464C635.15 18.7544 635.533 18.4468 636.021 18.2235C636.508 17.9956 637.062 17.8817 637.682 17.8817C638.306 17.8817 638.86 17.9956 639.343 18.2235C639.83 18.4468 640.213 18.7544 640.491 19.1464C640.769 19.5337 640.908 19.9758 640.908 20.4725V20.4862C640.908 21.0057 640.749 21.4592 640.43 21.8466C640.115 22.2339 639.687 22.5119 639.145 22.6805V22.7079C639.568 22.8036 639.938 22.9745 640.252 23.2206C640.571 23.4621 640.819 23.7561 640.997 24.1024C641.175 24.4488 641.264 24.8247 641.264 25.2303V25.244C641.264 25.7955 641.111 26.2854 640.806 26.7137C640.5 27.1376 640.076 27.4703 639.534 27.7118C638.996 27.9533 638.379 28.0741 637.682 28.0741ZM637.682 27.0009C638.137 27.0009 638.538 26.9234 638.885 26.7684C639.236 26.6089 639.511 26.3925 639.712 26.119C639.912 25.841 640.013 25.5243 640.013 25.1688V25.1552C640.013 24.7951 639.912 24.4761 639.712 24.1981C639.516 23.9201 639.243 23.7014 638.892 23.5419C638.541 23.3824 638.137 23.3026 637.682 23.3026C637.226 23.3026 636.823 23.3824 636.472 23.5419C636.121 23.7014 635.845 23.9201 635.645 24.1981C635.449 24.4761 635.351 24.7951 635.351 25.1552V25.1688C635.351 25.5243 635.451 25.841 635.651 26.119C635.852 26.3925 636.128 26.6089 636.479 26.7684C636.829 26.9234 637.23 27.0009 637.682 27.0009ZM637.682 22.2225C638.078 22.2225 638.427 22.1542 638.728 22.0175C639.028 21.8762 639.263 21.6825 639.432 21.4364C639.6 21.1903 639.685 20.9078 639.685 20.5887V20.5751C639.685 20.2561 639.6 19.9735 639.432 19.7274C639.263 19.4813 639.028 19.2899 638.728 19.1532C638.427 19.0119 638.078 18.9413 637.682 18.9413C637.285 18.9413 636.937 19.0119 636.636 19.1532C636.335 19.2899 636.1 19.4813 635.932 19.7274C635.763 19.9735 635.679 20.2561 635.679 20.5751V20.5887C635.679 20.9078 635.763 21.1903 635.932 21.4364C636.1 21.6825 636.335 21.8762 636.636 22.0175C636.937 22.1542 637.285 22.2225 637.682 22.2225ZM643.328 27.91V17.6151H644.518V27.91H643.328ZM647.97 27.91L645.092 24.3007L645.967 23.5419L649.467 27.91H647.97ZM644.367 25.2577L644.312 23.7606H644.627L647.812 20.5409H649.255L645.755 23.9178L645.468 24.1981L644.367 25.2577Z" fill="#343A4D"/>
<rect width="200" height="40" transform="translate(462 42.91)" fill="white"/>
<circle cx="480" cy="62.91" r="4.5" fill="#17AB52" stroke="#17AB52" stroke-width="3"/>
<path d="M500.491 68.1425C499.771 68.1425 499.142 68.0262 498.604 67.7938C498.071 67.5568 497.647 67.2333 497.333 66.8231C497.023 66.4084 496.843 65.9344 496.793 65.4012L496.786 65.326H498.017L498.023 65.4012C498.055 65.7294 498.181 66.0142 498.399 66.2557C498.623 66.4927 498.919 66.6773 499.288 66.8094C499.662 66.9416 500.086 67.0077 500.56 67.0077C501.006 67.0077 501.403 66.9371 501.749 66.7958C502.1 66.6499 502.376 66.4494 502.576 66.1942C502.777 65.939 502.877 65.6451 502.877 65.3124V65.3055C502.877 64.8954 502.727 64.5513 502.426 64.2733C502.125 63.9908 501.635 63.7743 500.956 63.6239L499.862 63.3846C498.873 63.1659 498.153 62.8287 497.702 62.3729C497.256 61.9126 497.032 61.3247 497.032 60.6093V60.6024C497.037 60.0555 497.185 59.5725 497.477 59.1532C497.773 58.7339 498.181 58.4058 498.7 58.1688C499.224 57.9318 499.826 57.8134 500.505 57.8134C501.161 57.8134 501.742 57.9318 502.248 58.1688C502.754 58.4012 503.155 58.7157 503.451 59.1122C503.752 59.5087 503.918 59.953 503.95 60.4452L503.957 60.5409H502.727L502.713 60.452C502.667 60.1604 502.549 59.9029 502.357 59.6796C502.166 59.4517 501.911 59.2717 501.592 59.1395C501.273 59.0074 500.899 58.9436 500.471 58.9481C500.061 58.9481 499.691 59.0119 499.363 59.1395C499.035 59.2671 498.773 59.4517 498.577 59.6932C498.386 59.9302 498.29 60.2219 498.29 60.5682V60.5751C498.29 60.967 498.436 61.2974 498.728 61.5663C499.019 61.8352 499.5 62.0425 500.17 62.1884L501.264 62.4344C501.952 62.5848 502.506 62.7808 502.925 63.0223C503.344 63.2639 503.649 63.5601 503.841 63.911C504.037 64.2574 504.135 64.6675 504.135 65.1415V65.1483C504.135 65.7635 503.984 66.2945 503.684 66.7411C503.383 67.1877 502.959 67.5341 502.412 67.7802C501.865 68.0217 501.225 68.1425 500.491 68.1425ZM510.157 68.1425C509.264 68.1425 508.492 67.9328 507.84 67.5135C507.188 67.0943 506.685 66.4996 506.329 65.7294C505.978 64.9592 505.803 64.0455 505.803 62.9882V62.9745C505.803 61.9126 505.978 60.9966 506.329 60.2264C506.685 59.4563 507.186 58.8615 507.833 58.4423C508.485 58.023 509.257 57.8134 510.15 57.8134C510.843 57.8134 511.472 57.9501 512.037 58.2235C512.607 58.4924 513.076 58.8684 513.445 59.3514C513.814 59.83 514.047 60.3837 514.143 61.0126L514.136 61.0262H512.898L512.892 61.0126C512.782 60.5887 512.598 60.2242 512.338 59.9188C512.078 59.6089 511.761 59.3697 511.388 59.201C511.019 59.0324 510.606 58.9481 510.15 58.9481C509.521 58.9481 508.975 59.1122 508.51 59.4403C508.049 59.7684 507.694 60.2333 507.443 60.8348C507.193 61.4364 507.067 62.1496 507.067 62.9745V62.9882C507.067 63.8085 507.193 64.5194 507.443 65.121C507.694 65.7225 508.049 66.1874 508.51 66.5155C508.975 66.8436 509.524 67.0077 510.157 67.0077C510.618 67.0077 511.035 66.9348 511.408 66.7889C511.782 66.6385 512.096 66.4266 512.352 66.1532C512.607 65.8752 512.785 65.5471 512.885 65.1688L512.898 65.1552H514.143V65.1688C514.033 65.7704 513.796 66.2945 513.432 66.7411C513.067 67.1831 512.604 67.5272 512.044 67.7733C511.488 68.0194 510.859 68.1425 510.157 68.1425ZM519.44 68.1425C518.72 68.1425 518.091 68.0262 517.554 67.7938C517.021 67.5568 516.597 67.2333 516.282 66.8231C515.972 66.4084 515.792 65.9344 515.742 65.4012L515.735 65.326H516.966L516.973 65.4012C517.005 65.7294 517.13 66.0142 517.349 66.2557C517.572 66.4927 517.868 66.6773 518.237 66.8094C518.611 66.9416 519.035 67.0077 519.509 67.0077C519.955 67.0077 520.352 66.9371 520.698 66.7958C521.049 66.6499 521.325 66.4494 521.525 66.1942C521.726 65.939 521.826 65.6451 521.826 65.3124V65.3055C521.826 64.8954 521.676 64.5513 521.375 64.2733C521.074 63.9908 520.584 63.7743 519.905 63.6239L518.812 63.3846C517.823 63.1659 517.103 62.8287 516.651 62.3729C516.205 61.9126 515.981 61.3247 515.981 60.6093V60.6024C515.986 60.0555 516.134 59.5725 516.426 59.1532C516.722 58.7339 517.13 58.4058 517.649 58.1688C518.174 57.9318 518.775 57.8134 519.454 57.8134C520.11 57.8134 520.691 57.9318 521.197 58.1688C521.703 58.4012 522.104 58.7157 522.4 59.1122C522.701 59.5087 522.868 59.953 522.899 60.4452L522.906 60.5409H521.676L521.662 60.452C521.617 60.1604 521.498 59.9029 521.307 59.6796C521.115 59.4517 520.86 59.2717 520.541 59.1395C520.222 59.0074 519.848 58.9436 519.42 58.9481C519.01 58.9481 518.641 59.0119 518.312 59.1395C517.984 59.2671 517.722 59.4517 517.526 59.6932C517.335 59.9302 517.239 60.2219 517.239 60.5682V60.5751C517.239 60.967 517.385 61.2974 517.677 61.5663C517.968 61.8352 518.449 62.0425 519.119 62.1884L520.213 62.4344C520.901 62.5848 521.455 62.7808 521.874 63.0223C522.293 63.2639 522.599 63.5601 522.79 63.911C522.986 64.2574 523.084 64.6675 523.084 65.1415V65.1483C523.084 65.7635 522.934 66.2945 522.633 66.7411C522.332 67.1877 521.908 67.5341 521.361 67.7802C520.814 68.0217 520.174 68.1425 519.44 68.1425ZM528.368 68.1425C527.648 68.1425 527.019 68.0262 526.481 67.7938C525.948 67.5568 525.524 67.2333 525.21 66.8231C524.9 66.4084 524.72 65.9344 524.67 65.4012L524.663 65.326H525.894L525.9 65.4012C525.932 65.7294 526.058 66.0142 526.276 66.2557C526.5 66.4927 526.796 66.6773 527.165 66.8094C527.539 66.9416 527.963 67.0077 528.437 67.0077C528.883 67.0077 529.28 66.9371 529.626 66.7958C529.977 66.6499 530.253 66.4494 530.453 66.1942C530.654 65.939 530.754 65.6451 530.754 65.3124V65.3055C530.754 64.8954 530.604 64.5513 530.303 64.2733C530.002 63.9908 529.512 63.7743 528.833 63.6239L527.739 63.3846C526.75 63.1659 526.03 62.8287 525.579 62.3729C525.132 61.9126 524.909 61.3247 524.909 60.6093V60.6024C524.914 60.0555 525.062 59.5725 525.354 59.1532C525.65 58.7339 526.058 58.4058 526.577 58.1688C527.101 57.9318 527.703 57.8134 528.382 57.8134C529.038 57.8134 529.619 57.9318 530.125 58.1688C530.631 58.4012 531.032 58.7157 531.328 59.1122C531.629 59.5087 531.795 59.953 531.827 60.4452L531.834 60.5409H530.604L530.59 60.452C530.544 60.1604 530.426 59.9029 530.234 59.6796C530.043 59.4517 529.788 59.2717 529.469 59.1395C529.15 59.0074 528.776 58.9436 528.348 58.9481C527.938 58.9481 527.568 59.0119 527.24 59.1395C526.912 59.2671 526.65 59.4517 526.454 59.6932C526.263 59.9302 526.167 60.2219 526.167 60.5682V60.5751C526.167 60.967 526.313 61.2974 526.604 61.5663C526.896 61.8352 527.377 62.0425 528.047 62.1884L529.141 62.4344C529.829 62.5848 530.382 62.7808 530.802 63.0223C531.221 63.2639 531.526 63.5601 531.718 63.911C531.914 64.2574 532.012 64.6675 532.012 65.1415V65.1483C532.012 65.7635 531.861 66.2945 531.561 66.7411C531.26 67.1877 530.836 67.5341 530.289 67.7802C529.742 68.0217 529.102 68.1425 528.368 68.1425ZM538 67.91V58.0458H539.429L542.806 66.2762H542.915L546.292 58.0458H547.721V67.91H546.572V60.3768H545.971L547.352 58.3192L543.38 67.91H542.341L538.376 58.3192L539.75 60.3768H539.148V67.91H538ZM553.114 68.0399C552.417 68.0399 551.813 67.8872 551.303 67.5819C550.797 67.272 550.405 66.8322 550.127 66.2626C549.854 65.6929 549.717 65.0162 549.717 64.2323V64.2186C549.717 63.4302 549.854 62.7512 550.127 62.1815C550.405 61.6119 550.797 61.1744 551.303 60.869C551.813 60.5637 552.417 60.411 553.114 60.411C553.816 60.411 554.42 60.5637 554.926 60.869C555.432 61.1744 555.821 61.6119 556.095 62.1815C556.373 62.7512 556.512 63.4302 556.512 64.2186V64.2323C556.512 65.0162 556.373 65.6929 556.095 66.2626C555.821 66.8322 555.432 67.272 554.926 67.5819C554.42 67.8872 553.816 68.0399 553.114 68.0399ZM553.114 66.9872C553.579 66.9872 553.973 66.8778 554.297 66.6591C554.62 66.4403 554.867 66.1259 555.035 65.7157C555.208 65.3055 555.295 64.8111 555.295 64.2323V64.2186C555.295 63.6353 555.208 63.1385 555.035 62.7284C554.867 62.3182 554.62 62.0061 554.297 61.7919C553.973 61.5731 553.579 61.4637 553.114 61.4637C552.649 61.4637 552.255 61.5731 551.932 61.7919C551.608 62.0061 551.36 62.3182 551.187 62.7284C551.018 63.1385 550.934 63.6353 550.934 64.2186V64.2323C550.934 64.8111 551.018 65.3055 551.187 65.7157C551.36 66.1259 551.608 66.4403 551.932 66.6591C552.255 66.8778 552.649 66.9872 553.114 66.9872ZM561.078 68.0399C560.458 68.0399 559.916 67.8827 559.451 67.5682C558.986 67.2538 558.626 66.8117 558.371 66.2421C558.116 65.6678 557.988 64.9979 557.988 64.2323V64.2186C557.988 63.4484 558.116 62.7785 558.371 62.2089C558.626 61.6392 558.984 61.1971 559.444 60.8827C559.909 60.5682 560.454 60.411 561.078 60.411C561.415 60.411 561.732 60.4657 562.028 60.5751C562.329 60.6799 562.596 60.828 562.828 61.0194C563.061 61.2108 563.243 61.4387 563.375 61.703H563.484V57.6151H564.674V67.91H563.484V66.7343H563.375C563.225 67.0077 563.035 67.2424 562.808 67.4384C562.58 67.6298 562.32 67.7779 562.028 67.8827C561.737 67.9875 561.42 68.0399 561.078 68.0399ZM561.352 66.9872C561.798 66.9872 562.183 66.8755 562.507 66.6522C562.83 66.4289 563.079 66.1122 563.252 65.702C563.425 65.2873 563.512 64.7974 563.512 64.2323V64.2186C563.512 63.649 563.425 63.1591 563.252 62.7489C563.079 62.3387 562.83 62.022 562.507 61.7987C562.183 61.5754 561.798 61.4637 561.352 61.4637C560.905 61.4637 560.52 61.5754 560.196 61.7987C559.877 62.0175 559.631 62.3319 559.458 62.7421C559.289 63.1522 559.205 63.6444 559.205 64.2186V64.2323C559.205 64.802 559.289 65.2941 559.458 65.7089C559.631 66.119 559.877 66.4358 560.196 66.6591C560.52 66.8778 560.905 66.9872 561.352 66.9872ZM569.425 68.0399C568.869 68.0399 568.402 67.9351 568.023 67.7255C567.645 67.5113 567.36 67.2014 567.169 66.7958C566.982 66.3856 566.889 65.8912 566.889 65.3124V60.5409H568.078V65.0253C568.078 65.6861 568.206 66.1783 568.461 66.5018C568.721 66.8254 569.145 66.9872 569.732 66.9872C570.056 66.9872 570.341 66.9393 570.587 66.8436C570.838 66.7479 571.047 66.6112 571.216 66.4335C571.384 66.2512 571.51 66.0324 571.592 65.7772C571.678 65.5175 571.722 65.2258 571.722 64.9022V60.5409H572.911V67.91H571.722V66.8094H571.612C571.494 67.0692 571.332 67.2925 571.127 67.4794C570.922 67.6617 570.676 67.8007 570.389 67.8964C570.106 67.9921 569.785 68.0399 569.425 68.0399ZM575.201 67.91V57.6151H576.391V67.91H575.201ZM581.682 68.0399C580.98 68.0399 580.376 67.885 579.87 67.5751C579.369 67.2652 578.981 66.8277 578.708 66.2626C578.439 65.6929 578.305 65.023 578.305 64.2528V64.246C578.305 63.4849 578.439 62.8173 578.708 62.243C578.981 61.6688 579.367 61.2199 579.863 60.8964C580.36 60.5728 580.941 60.411 581.606 60.411C582.276 60.411 582.851 60.566 583.329 60.8759C583.812 61.1858 584.181 61.6187 584.437 62.1747C584.696 62.7261 584.826 63.3687 584.826 64.1024V64.5673H578.92V63.6171H584.218L583.63 64.4852V64.0135C583.63 63.4348 583.543 62.9585 583.37 62.5848C583.197 62.2111 582.958 61.9331 582.652 61.7509C582.347 61.564 581.996 61.4706 581.6 61.4706C581.203 61.4706 580.848 61.5686 580.533 61.7645C580.223 61.9559 579.977 62.2408 579.795 62.619C579.613 62.9973 579.521 63.4621 579.521 64.0135V64.4852C579.521 65.0093 579.61 65.4582 579.788 65.8319C579.966 66.201 580.219 66.4859 580.547 66.6864C580.875 66.8824 581.262 66.9803 581.709 66.9803C582.042 66.9803 582.331 66.9348 582.577 66.8436C582.823 66.7525 583.026 66.6363 583.186 66.495C583.345 66.3537 583.457 66.2102 583.521 66.0643L583.548 66.0028H584.737L584.724 66.0575C584.66 66.3081 584.546 66.552 584.382 66.7889C584.222 67.0214 584.015 67.2333 583.76 67.4247C583.505 67.6115 583.201 67.7619 582.851 67.8759C582.504 67.9852 582.115 68.0399 581.682 68.0399ZM589.201 68.0399C588.654 68.0399 588.171 67.9579 587.752 67.7938C587.333 67.6252 586.995 67.3905 586.74 67.0897C586.49 66.7889 586.341 66.4358 586.296 66.0302H587.513C587.613 66.3355 587.809 66.5816 588.101 66.7684C588.392 66.9553 588.773 67.0487 589.242 67.0487C589.575 67.0487 589.867 67.0009 590.117 66.9052C590.372 66.8049 590.573 66.6705 590.719 66.5018C590.865 66.3287 590.938 66.1304 590.938 65.9071V65.8934C590.938 65.6428 590.837 65.4309 590.637 65.2577C590.436 65.08 590.108 64.9364 589.652 64.827L588.511 64.5536C588.05 64.4442 587.672 64.3029 587.376 64.1298C587.08 63.952 586.861 63.7356 586.72 63.4803C586.578 63.2206 586.508 62.9152 586.508 62.5643V62.5575C586.508 62.1473 586.626 61.7805 586.863 61.4569C587.105 61.1333 587.433 60.8781 587.848 60.6913C588.262 60.5044 588.729 60.411 589.249 60.411C589.764 60.411 590.22 60.493 590.616 60.6571C591.017 60.8166 591.339 61.0445 591.58 61.3407C591.826 61.6369 591.977 61.9856 592.031 62.3866H590.862C590.785 62.0949 590.607 61.858 590.329 61.6757C590.051 61.4934 589.689 61.4022 589.242 61.4022C588.951 61.4022 588.691 61.4501 588.463 61.5458C588.235 61.6369 588.055 61.7645 587.923 61.9286C587.791 62.0927 587.725 62.2841 587.725 62.5028V62.5165C587.725 62.6805 587.768 62.8264 587.854 62.954C587.941 63.0816 588.076 63.1932 588.258 63.2889C588.44 63.3846 588.675 63.469 588.962 63.5419L590.097 63.8153C590.789 63.9839 591.304 64.2255 591.642 64.5399C591.983 64.8544 592.154 65.2759 592.154 65.8046V65.8182C592.154 66.2557 592.024 66.6431 591.765 66.9803C591.505 67.313 591.152 67.5728 590.705 67.7596C590.263 67.9465 589.762 68.0399 589.201 68.0399Z" fill="#343A4D"/>
<path d="M645.327 57.8134C645.778 57.8134 646.223 57.8999 646.66 58.0731C647.102 58.2463 647.501 58.5266 647.856 58.9139C648.216 59.3013 648.504 59.814 648.718 60.452C648.932 61.0855 649.039 61.8671 649.039 62.7968V62.8104C649.039 63.9315 648.889 64.8908 648.588 65.6884C648.287 66.4813 647.854 67.0897 647.289 67.5135C646.724 67.9328 646.043 68.1425 645.245 68.1425C644.694 68.1425 644.195 68.0422 643.748 67.8417C643.306 67.6366 642.937 67.3518 642.641 66.9872C642.344 66.6226 642.139 66.1988 642.025 65.7157L642.005 65.6268H643.242L643.27 65.702C643.37 65.9755 643.511 66.2124 643.693 66.413C643.88 66.6135 644.104 66.7684 644.363 66.8778C644.628 66.9872 644.926 67.0419 645.259 67.0419C645.856 67.0419 646.341 66.8687 646.715 66.5223C647.089 66.1714 647.367 65.7066 647.549 65.1278C647.731 64.549 647.834 63.9178 647.856 63.2343C647.861 63.1705 647.863 63.1089 647.863 63.0497C647.863 62.9859 647.863 62.9244 647.863 62.8651L647.569 61.2245C647.569 60.7915 647.469 60.3996 647.269 60.0487C647.073 59.6978 646.806 59.4198 646.469 59.2147C646.136 59.0051 645.76 58.9003 645.341 58.9003C644.931 58.9003 644.557 59.0028 644.22 59.2079C643.882 59.4084 643.614 59.6818 643.413 60.0282C643.213 60.37 643.112 60.7551 643.112 61.1835V61.1971C643.112 61.6346 643.208 62.0243 643.399 62.3661C643.591 62.7033 643.853 62.9699 644.186 63.1659C644.518 63.3573 644.896 63.453 645.32 63.453C645.749 63.453 646.132 63.3573 646.469 63.1659C646.806 62.9745 647.073 62.7124 647.269 62.3798C647.469 62.0425 647.569 61.6597 647.569 61.2313V61.2245H647.973V63.0018H647.733C647.615 63.2707 647.433 63.5214 647.187 63.7538C646.945 63.9862 646.649 64.1731 646.298 64.3143C645.951 64.4556 645.555 64.5262 645.108 64.5262C644.493 64.5262 643.942 64.3827 643.454 64.0956C642.966 63.8085 642.581 63.4165 642.299 62.9198C642.016 62.4185 641.875 61.8534 641.875 61.2245V61.2108C641.875 60.5546 642.023 59.9712 642.319 59.4608C642.62 58.9458 643.03 58.5425 643.55 58.2509C644.074 57.9592 644.666 57.8134 645.327 57.8134Z" fill="#343A4D"/>
</g>
<rect x="462.5" y="3.41003" width="199" height="79" rx="5.5" stroke="#DBE2F0"/>
<path d="M455.707 49.41L462.5 56.2029V49.41V42.6171L455.707 49.41Z" fill="white" stroke="#DBE2F0"/>
<path d="M457.107 49.41L462.5 54.8029L462.5 49.41V44.0171L457.107 49.41Z" stroke="white"/>
</g>
<defs>
<filter id="filter0_dd_0_1" x="451" y="0.910034" width="269" height="107" filterUnits="userSpaceOnUse" color-interpolation-filters="sRGB">
<feFlood flood-opacity="0" result="BackgroundImageFix"/>
<feColorMatrix in="SourceAlpha" type="matrix" values="0 0 0 0 0 0 0 0 0 0 0 0 0 0 0 0 0 0 127 0" result="hardAlpha"/>
<feMorphology radius="1" operator="erode" in="SourceAlpha" result="effect1_dropShadow_0_1"/>
<feOffset dy="1"/>
<feGaussianBlur stdDeviation="1"/>
<feColorMatrix type="matrix" values="0 0 0 0 0 0 0 0 0 0 0 0 0 0 0 0 0 0 0.1 0"/>
<feBlend mode="normal" in2="BackgroundImageFix" result="effect1_dropShadow_0_1"/>
<feColorMatrix in="SourceAlpha" type="matrix" values="0 0 0 0 0 0 0 0 0 0 0 0 0 0 0 0 0 0 127 0" result="hardAlpha"/>
<feOffset dy="1"/>
<feGaussianBlur stdDeviation="1.5"/>
<feColorMatrix type="matrix" values="0 0 0 0 0 0 0 0 0 0 0 0 0 0 0 0 0 0 0.1 0"/>
<feBlend mode="normal" in2="effect1_dropShadow_0_1" result="effect2_dropShadow_0_1"/>
<feBlend mode="normal" in="SourceGraphic" in2="effect2_dropShadow_0_1" result="shape"/>
</filter>
<linearGradient id="paint0_linear_0_1" x1="558" y1="151.41" x2="0.00141717" y2="149.068" gradientUnits="userSpaceOnUse">
<stop stop-opacity="0"/>
<stop offset="0.114873" stop-opacity="0.532418"/>
<stop offset="0.264833" stop-opacity="0.6"/>
<stop offset="0.487901" stop-opacity="0.53"/>
<stop offset="0.831232" stop-opacity="0.38"/>
<stop offset="1" stop-opacity="0"/>
</linearGradient>
<linearGradient id="paint1_linear_0_1" x1="558" y1="31.41" x2="0.00141717" y2="29.0682" gradientUnits="userSpaceOnUse">
<stop stop-opacity="0"/>
<stop offset="0.114873" stop-opacity="0.532418"/>
<stop offset="0.205612" stop-opacity="0.6"/>
<stop offset="0.301292" stop-opacity="0"/>
</linearGradient>
<linearGradient id="paint2_linear_0_1" x1="558" y1="271.41" x2="0.00141717" y2="269.068" gradientUnits="userSpaceOnUse">
<stop stop-opacity="0"/>
<stop offset="0.114873" stop-opacity="0.532418"/>
<stop offset="0.264833" stop-opacity="0.6"/>
<stop offset="0.487901" stop-opacity="0.53"/>
<stop offset="0.831232" stop-opacity="0.38"/>
<stop offset="1" stop-opacity="0"/>
</linearGradient>
<linearGradient id="paint3_linear_0_1" x1="558" y1="391.41" x2="0.00141717" y2="389.068" gradientUnits="userSpaceOnUse">
<stop stop-opacity="0"/>
<stop offset="0.114873" stop-opacity="0.532418"/>
<stop offset="0.264833" stop-opacity="0.6"/>
<stop offset="0.487901" stop-opacity="0.53"/>
<stop offset="0.831232" stop-opacity="0.38"/>
<stop offset="1" stop-opacity="0"/>
</linearGradient>
<clipPath id="clip0_0_1">
<rect x="462" y="2.91003" width="200" height="80" rx="6" fill="white"/>
</clipPath>
</defs>
</svg>
