<svg width="870" height="534" viewBox="0 0 870 534" fill="none" xmlns="http://www.w3.org/2000/svg">
<path d="M-244.889 -107.09V1055.91M-189.219 -107.09V1055.91M-133.548 -107.09V1055.91M-77.3979 -107.09V1055.91M-21.7279 -107.09V1055.91M33.9432 -107.09V1055.91M89.6144 -107.09V1055.91M145.284 -107.09V1055.91M201.435 -107.09V1055.91M257.106 -107.09V1055.91M312.776 -107.09V1055.91M368.447 -107.09V1055.91M424.597 -107.09V1055.91M480.268 -107.09V1055.91M535.938 -107.09V1055.91M591.609 -107.09V1055.91M647.279 -107.09V1055.91M703.431 -107.09L703.43 1055.91M759.097 -107.09V1055.91M814.777 -107.09V1055.91M-301 1007.17H870M-301 951.042L870 951.044M-301 894.916H870M-301 838.789H870M-301 782.663H870M-301 726.536H870M-301 670.41H870M-301 614.283H870M-301 558.157H870M-301 502.03H870M-301 445.904H870M-301 389.777H870M-301 333.651H870M-301 277.524H870M-301 221.398H870M-301 165.271H870M-301 109.145H870M-301 53.0184H870M-301 -3.10811H870M-301 -59.2346H870" stroke="url(#paint0_radial_1185_4576)" stroke-opacity="0.5"/>
<defs>
<radialGradient id="paint0_radial_1185_4576" cx="0" cy="0" r="1" gradientUnits="userSpaceOnUse" gradientTransform="translate(315.5 421) rotate(89.2898) scale(121.009 264.221)">
<stop stop-color="#231231" stop-opacity="0"/>
<stop offset="0.989583" stop-color="white"/>
</radialGradient>
</defs>
</svg>
