<svg width="870" height="534" viewBox="0 0 870 534" fill="none" xmlns="http://www.w3.org/2000/svg">
<path d="M-244.889 -107.09V1055.91M-189.219 -107.09V1055.91M-133.548 -107.09V1055.91M-77.3979 -107.09V1055.91M-21.7279 -107.09V1055.91M33.9432 -107.09V1055.91M89.6144 -107.09V1055.91M145.284 -107.09V1055.91M201.435 -107.09V1055.91M257.106 -107.09V1055.91M312.776 -107.09V1055.91M368.447 -107.09V1055.91M424.597 -107.09V1055.91M480.268 -107.09V1055.91M535.938 -107.09V1055.91M591.609 -107.09V1055.91M647.279 -107.09V1055.91M703.431 -107.09L703.43 1055.91M759.097 -107.09V1055.91M814.777 -107.09V1055.91M-301 1007.17H870M-301 951.042L870 951.044M-301 894.916H870M-301 838.789H870M-301 782.663H870M-301 726.536H870M-301 670.41H870M-301 614.283H870M-301 558.157H870M-301 502.03H870M-301 445.904H870M-301 389.777H870M-301 333.651H870M-301 277.524H870M-301 221.398H870M-301 165.271H870M-301 109.145H870M-301 53.0184H870M-301 -3.10811H870M-301 -59.2346H870" stroke="url(#paint0_radial_1185_4575)" stroke-opacity="0.5"/>
<path d="M325 423.113C325 401.78 325 391.114 328.765 382.805C332.994 373.471 340.471 365.994 349.805 361.765C358.114 358 368.78 358 390.113 358C411.446 358 422.113 358 430.422 361.765C439.755 365.994 447.233 373.471 451.462 382.805C455.226 391.114 455.226 401.78 455.226 423.113C455.226 444.446 455.226 455.113 451.462 463.422C447.233 472.755 439.755 480.233 430.422 484.462C422.113 488.226 411.446 488.226 390.113 488.226C368.78 488.226 358.114 488.226 349.805 484.462C340.471 480.233 332.994 472.755 328.765 463.422C325 455.113 325 444.446 325 423.113Z" fill="white"/>
<path d="M325 423.113C325 401.78 325 391.114 328.765 382.805C332.994 373.471 340.471 365.994 349.805 361.765C358.114 358 368.78 358 390.113 358C411.446 358 422.113 358 430.422 361.765C439.755 365.994 447.233 373.471 451.462 382.805C455.226 391.114 455.226 401.78 455.226 423.113C455.226 444.446 455.226 455.113 451.462 463.422C447.233 472.755 439.755 480.233 430.422 484.462C422.113 488.226 411.446 488.226 390.113 488.226C368.78 488.226 358.114 488.226 349.805 484.462C340.471 480.233 332.994 472.755 328.765 463.422C325 455.113 325 444.446 325 423.113Z" fill="url(#paint1_radial_1185_4575)" fill-opacity="0.2"/>
<path fill-rule="evenodd" clip-rule="evenodd" d="M365.363 483.86C371.557 484.317 379.389 484.32 390.113 484.32C400.838 484.32 408.669 484.317 414.864 483.86C421.019 483.405 425.248 482.517 428.809 480.903C437.279 477.065 444.065 470.279 447.903 461.809C449.517 458.248 450.405 454.019 450.86 447.864C451.317 441.669 451.32 433.838 451.32 423.113C451.32 412.389 451.317 404.557 450.86 398.363C450.405 392.207 449.517 387.978 447.903 384.417C444.065 375.947 437.279 369.161 428.809 365.323C425.248 363.71 421.019 362.821 414.864 362.367C408.669 361.909 400.838 361.907 390.113 361.907C379.389 361.907 371.557 361.909 365.363 362.367C359.207 362.821 354.978 363.71 351.417 365.323C342.947 369.161 336.161 375.947 332.323 384.417C330.71 387.978 329.821 392.207 329.367 398.363C328.909 404.557 328.907 412.389 328.907 423.113C328.907 433.838 328.909 441.669 329.367 447.864C329.821 454.019 330.71 458.248 332.323 461.809C336.161 470.279 342.947 477.065 351.417 480.903C354.978 482.517 359.207 483.405 365.363 483.86ZM328.765 382.805C325 391.114 325 401.78 325 423.113C325 444.446 325 455.113 328.765 463.422C332.994 472.755 340.471 480.233 349.805 484.462C358.114 488.226 368.78 488.226 390.113 488.226C411.446 488.226 422.113 488.226 430.422 484.462C439.755 480.233 447.233 472.755 451.462 463.422C455.226 455.113 455.226 444.446 455.226 423.113C455.226 401.78 455.226 391.114 451.462 382.805C447.233 373.471 439.755 365.994 430.422 361.765C422.113 358 411.446 358 390.113 358C368.78 358 358.114 358 349.805 361.765C340.471 365.994 332.994 373.471 328.765 382.805Z" fill="black" fill-opacity="0.05"/>
<g clip-path="url(#clip0_1185_4575)">
<path fill-rule="evenodd" clip-rule="evenodd" d="M408.526 391.859C412.101 391.859 415.002 394.84 415.002 398.507V413.712C415.002 417.379 412.101 420.361 408.526 420.361C404.952 420.361 402.051 417.379 402.051 413.712V398.507C402.051 394.84 404.952 391.859 408.526 391.859Z" fill="url(#paint2_radial_1185_4575)"/>
<path fill-rule="evenodd" clip-rule="evenodd" d="M360.414 408.972C360.414 405.305 363.315 402.323 366.89 402.323H381.687C385.261 402.323 388.162 405.305 388.162 408.972C388.162 412.639 385.261 415.62 381.687 415.62H366.89C363.315 415.62 360.414 412.639 360.414 408.972Z" fill="url(#paint3_linear_1185_4575)"/>
<path fill-rule="evenodd" clip-rule="evenodd" d="M367.887 432.972C365.748 430.05 361.705 429.484 358.833 431.69C355.962 433.896 355.405 438.07 357.544 440.992C357.544 440.992 357.573 441.051 357.602 441.081C357.632 441.141 357.69 441.201 357.749 441.26C357.866 441.409 358.013 441.618 358.218 441.856C358.628 442.333 359.185 442.989 359.917 443.735C361.382 445.225 363.492 447.193 366.305 449.131C371.931 453.037 380.34 456.912 391.386 456.912C402.433 456.912 410.842 453.037 416.468 449.131C419.281 447.193 421.391 445.225 422.856 443.735C423.588 442.989 424.145 442.333 424.555 441.856C424.76 441.618 424.907 441.409 425.024 441.26C425.082 441.171 425.2 441.022 425.258 440.962C425.258 440.962 425.258 440.962 425.258 440.992V440.962C427.397 438.01 426.811 433.837 423.969 431.63C421.127 429.424 417.083 430.02 414.915 432.912C414.886 432.942 414.827 433.032 414.71 433.151C414.505 433.389 414.153 433.807 413.684 434.284C412.717 435.268 411.223 436.639 409.231 438.04C405.275 440.783 399.327 443.556 391.386 443.556C383.446 443.556 377.527 440.783 373.542 438.04C371.55 436.669 370.055 435.297 369.088 434.284C368.62 433.777 368.268 433.389 368.063 433.151C367.946 433.032 367.887 432.942 367.858 432.912L367.887 432.972Z" fill="url(#paint4_linear_1185_4575)"/>
</g>
<path d="M167 423C167 401.704 167 391.056 170.758 382.762C174.98 373.444 182.444 365.98 191.762 361.758C200.056 358 210.704 358 232 358C253.296 358 263.944 358 272.238 361.758C281.556 365.98 289.02 373.444 293.242 382.762C297 391.056 297 401.704 297 423C297 444.296 297 454.944 293.242 463.238C289.02 472.556 281.556 480.02 272.238 484.242C263.944 488 253.296 488 232 488C210.704 488 200.056 488 191.762 484.242C182.444 480.02 174.98 472.556 170.758 463.238C167 454.944 167 444.296 167 423Z" fill="white"/>
<path d="M167 423C167 401.704 167 391.056 170.758 382.762C174.98 373.444 182.444 365.98 191.762 361.758C200.056 358 210.704 358 232 358C253.296 358 263.944 358 272.238 361.758C281.556 365.98 289.02 373.444 293.242 382.762C297 391.056 297 401.704 297 423C297 444.296 297 454.944 293.242 463.238C289.02 472.556 281.556 480.02 272.238 484.242C263.944 488 253.296 488 232 488C210.704 488 200.056 488 191.762 484.242C182.444 480.02 174.98 472.556 170.758 463.238C167 454.944 167 444.296 167 423Z" fill="url(#paint5_radial_1185_4575)" fill-opacity="0.2"/>
<path fill-rule="evenodd" clip-rule="evenodd" d="M207.312 483.382C213.484 483.837 221.29 483.84 232 483.84C242.71 483.84 250.516 483.837 256.688 483.382C262.819 482.929 267.006 482.046 270.522 480.453C278.919 476.648 285.648 469.919 289.453 461.522C291.046 458.006 291.929 453.819 292.382 447.688C292.837 441.516 292.84 433.71 292.84 423C292.84 412.29 292.837 404.484 292.382 398.312C291.929 392.181 291.046 387.994 289.453 384.478C285.648 376.081 278.919 369.352 270.522 365.547C267.006 363.954 262.819 363.071 256.688 362.618C250.516 362.163 242.71 362.16 232 362.16C221.29 362.16 213.484 362.163 207.312 362.618C201.181 363.071 196.994 363.954 193.478 365.547C185.081 369.352 178.352 376.081 174.547 384.478C172.954 387.994 172.071 392.181 171.618 398.312C171.163 404.484 171.16 412.29 171.16 423C171.16 433.71 171.163 441.516 171.618 447.688C172.071 453.819 172.954 458.006 174.547 461.522C178.352 469.919 185.081 476.648 193.478 480.453C196.994 482.046 201.181 482.929 207.312 483.382ZM170.758 382.762C167 391.056 167 401.704 167 423C167 444.296 167 454.944 170.758 463.238C174.98 472.556 182.444 480.02 191.762 484.242C200.056 488 210.704 488 232 488C253.296 488 263.944 488 272.238 484.242C281.556 480.02 289.02 472.556 293.242 463.238C297 454.944 297 444.296 297 423C297 401.704 297 391.056 293.242 382.762C289.02 373.444 281.556 365.98 272.238 361.758C263.944 358 253.296 358 232 358C210.704 358 200.056 358 191.762 361.758C182.444 365.98 174.98 373.444 170.758 382.762Z" fill="black" fill-opacity="0.05"/>
<g clip-path="url(#clip1_1185_4575)">
<path d="M259.587 456.8C260.515 456.737 261.42 456.371 262.119 455.695C263.67 454.196 263.696 451.776 262.119 450.277L252.602 441.176C258.323 435.652 261.879 428.05 261.879 419.659C261.879 402.878 247.656 389.2 230.039 389.2C212.421 389.2 198.199 402.851 198.199 419.659C198.199 436.467 212.421 450.145 230.039 450.093C232.285 450.093 234.076 448.383 234.076 446.279C234.076 444.174 232.258 442.465 230.039 442.465C216.939 442.465 206.246 432.285 206.246 419.659C206.246 407.034 216.939 396.854 230.039 396.854C243.138 396.854 253.885 407.06 253.885 419.686C253.885 427.156 250.143 433.784 244.341 437.94C243.432 438.624 242.844 439.624 242.764 440.729C242.684 441.833 243.085 442.912 243.914 443.701L256.425 455.695C257.143 456.366 258.066 456.736 259.004 456.8H259.587Z" fill="url(#paint6_linear_1185_4575)"/>
</g>
<defs>
<radialGradient id="paint0_radial_1185_4575" cx="0" cy="0" r="1" gradientUnits="userSpaceOnUse" gradientTransform="translate(315.5 421) rotate(89.2898) scale(121.009 264.221)">
<stop stop-color="#231231" stop-opacity="0"/>
<stop offset="0.989583" stop-color="white"/>
</radialGradient>
<radialGradient id="paint1_radial_1185_4575" cx="0" cy="0" r="1" gradientUnits="userSpaceOnUse" gradientTransform="translate(375.839 261.443) rotate(77.074) scale(126.355)">
<stop stop-color="#00DBFF"/>
<stop offset="1" stop-color="#00DBFF" stop-opacity="0"/>
</radialGradient>
<radialGradient id="paint2_radial_1185_4575" cx="0" cy="0" r="1" gradientUnits="userSpaceOnUse" gradientTransform="translate(387.147 422.268) rotate(-9.94777) scale(31.151 38.545)">
<stop offset="0.5" stop-color="#FF291F"/>
<stop offset="0.88" stop-color="#FF5543"/>
</radialGradient>
<linearGradient id="paint3_linear_1185_4575" x1="363.678" y1="412.771" x2="393.146" y2="398.985" gradientUnits="userSpaceOnUse">
<stop stop-color="#A112FF"/>
<stop offset="0.21" stop-color="#A213FB"/>
<stop offset="0.36" stop-color="#A716F2"/>
<stop offset="0.5" stop-color="#AF1CE2"/>
<stop offset="0.62" stop-color="#BA24CB"/>
<stop offset="0.74" stop-color="#C92FAD"/>
<stop offset="0.85" stop-color="#DB3C89"/>
<stop offset="0.96" stop-color="#F14B5F"/>
<stop offset="1" stop-color="#FA524E"/>
</linearGradient>
<linearGradient id="paint4_linear_1185_4575" x1="357.491" y1="446.412" x2="427.811" y2="445.881" gradientUnits="userSpaceOnUse">
<stop offset="0.15" stop-color="#00CBEC"/>
<stop offset="0.98" stop-color="#7048E8"/>
</linearGradient>
<radialGradient id="paint5_radial_1185_4575" cx="0" cy="0" r="1" gradientUnits="userSpaceOnUse" gradientTransform="translate(217.751 261.611) rotate(77.074) scale(126.135)">
<stop stop-color="#00DBFF"/>
<stop offset="1" stop-color="#00DBFF" stop-opacity="0"/>
</radialGradient>
<linearGradient id="paint6_linear_1185_4575" x1="182.599" y1="472.399" x2="252.713" y2="479.729" gradientUnits="userSpaceOnUse">
<stop stop-color="#7048E8"/>
<stop offset="0.035" stop-color="#607CE8"/>
<stop offset="0.185" stop-color="#4AC1E8"/>
<stop offset="0.35" stop-color="#59A3EC"/>
<stop offset="0.626149" stop-color="#A112FF"/>
<stop offset="1" stop-color="#FF5543"/>
</linearGradient>
<clipPath id="clip0_1185_4575">
<rect width="70.3222" height="65.1132" fill="white" transform="translate(356.254 391.859)"/>
</clipPath>
<clipPath id="clip1_1185_4575">
<rect width="65.0963" height="67.6" fill="white" transform="translate(198.199 389.2)"/>
</clipPath>
</defs>
</svg>
