<svg width="48" height="44" viewBox="0 0 48 44" fill="none" xmlns="http://www.w3.org/2000/svg">
<path d="M9.752 43.0302C7.70408 43.0302 6.19252 42.539 5.21732 41.5567C4.24212 40.6071 3.75452 38.8389 3.75452 36.2521C3.75452 34.4839 3.81953 32.9613 3.94956 31.6843C4.11209 30.4073 4.19336 28.9665 4.19336 27.3621C4.19336 26.4452 3.9008 25.6103 3.31568 24.8571C2.73056 24.0713 1.62533 23.662 0 23.6292V20.1911C1.62533 20.1583 2.73056 19.7654 3.31568 19.0123C3.9008 18.2264 4.19336 17.3915 4.19336 16.5074C4.19336 14.8702 4.11209 13.413 3.94956 12.136C3.81953 10.859 3.75452 9.33639 3.75452 7.56821C3.75452 4.94867 4.24212 3.16411 5.21732 2.21453C6.19252 1.26495 7.70408 0.790161 9.752 0.790161H12.385V3.88448H11.2636C10.0933 3.88448 9.2969 4.17918 8.87432 4.76858C8.48424 5.32523 8.2892 6.3403 8.2892 7.81379C8.2892 9.22179 8.3217 10.597 8.38672 11.9396C8.48424 13.2493 8.533 14.6901 8.533 16.2618C8.533 17.9972 8.27294 19.2906 7.75284 20.142C7.23273 20.9606 6.40381 21.5172 5.26608 21.8119V22.0084C6.40381 22.3031 7.23273 22.8761 7.75284 23.7275C8.27294 24.5461 8.533 25.8231 8.533 27.5585C8.533 29.1303 8.48424 30.5874 8.38672 31.9299C8.3217 33.2396 8.2892 34.5985 8.2892 36.0065C8.2892 37.48 8.48424 38.4951 8.87432 39.0517C9.2969 39.6411 10.0933 39.9358 11.2636 39.9358H12.385V43.0302H9.752Z" fill="url(#paint0_linear_1185_4847)"/>
<path d="M35.615 43.0302V39.9358H36.7364C37.9067 39.9358 38.6868 39.6411 39.0769 39.0517C39.4995 38.4951 39.7108 37.48 39.7108 36.0065C39.7108 34.5985 39.662 33.2396 39.5645 31.9299C39.4995 30.5874 39.467 29.1303 39.467 27.5585C39.467 25.8231 39.7271 24.5461 40.2472 23.7275C40.7673 22.8761 41.5962 22.3031 42.7339 22.0084V21.8119C41.5962 21.5172 40.7673 20.9606 40.2472 20.142C39.7271 19.2906 39.467 17.9972 39.467 16.2618C39.467 14.6901 39.4995 13.2493 39.5645 11.9396C39.662 10.597 39.7108 9.22179 39.7108 7.81379C39.7108 6.3403 39.4995 5.32523 39.0769 4.76858C38.6868 4.17918 37.9067 3.88448 36.7364 3.88448H35.615V0.790161H38.248C40.2959 0.790161 41.8075 1.26495 42.7827 2.21453C43.7579 3.16411 44.2455 4.94867 44.2455 7.56821C44.2455 9.33639 44.1642 10.859 44.0017 12.136C43.8717 13.413 43.8066 14.8702 43.8066 16.5074C43.8066 17.3915 44.0992 18.2264 44.6843 19.0123C45.2694 19.7654 46.3747 20.1583 48 20.1911V23.6292C46.3747 23.662 45.2694 24.0713 44.6843 24.8571C44.0992 25.6103 43.8066 26.4452 43.8066 27.3621C43.8066 28.9665 43.8717 30.4073 44.0017 31.6843C44.1642 32.9613 44.2455 34.4839 44.2455 36.2521C44.2455 38.8389 43.7579 40.6071 42.7827 41.5567C41.8075 42.539 40.2959 43.0302 38.248 43.0302H35.615Z" fill="url(#paint1_linear_1185_4847)"/>
<defs>
<linearGradient id="paint0_linear_1185_4847" x1="-0.726562" y1="1.32882" x2="31.5281" y2="52.3969" gradientUnits="userSpaceOnUse">
<stop offset="0.12479" stop-color="#7048E8"/>
<stop offset="0.308435" stop-color="#00CBEC"/>
<stop offset="0.642062" stop-color="#A112FF"/>
<stop offset="1" stop-color="#FF5543"/>
</linearGradient>
<linearGradient id="paint1_linear_1185_4847" x1="-0.726562" y1="1.32882" x2="31.5281" y2="52.3969" gradientUnits="userSpaceOnUse">
<stop offset="0.12479" stop-color="#7048E8"/>
<stop offset="0.308435" stop-color="#00CBEC"/>
<stop offset="0.642062" stop-color="#A112FF"/>
<stop offset="1" stop-color="#FF5543"/>
</linearGradient>
</defs>
</svg>
