<svg width="225" height="54" viewBox="0 0 225 54" fill="none" xmlns="http://www.w3.org/2000/svg">
<g clip-path="url(#clip0_1185_4568)">
<path d="M73.0312 12.8448L81.7404 10.8282V53.2573H73.0312V12.8448Z" fill="#0F111A"/>
<path d="M113.612 48.3856C110.824 51.9315 106.236 53.9549 101.703 53.9549C92.9867 53.9549 86.0234 48.1556 86.0234 39.1487C86.0234 30.1418 92.9934 24.3425 101.703 24.3425C109.843 24.3425 114.952 30.1418 114.952 39.1487V41.8826H94.7326C95.4363 45.1984 97.9333 47.3435 101.303 47.3435C104.145 47.3435 106.067 45.8886 107.515 43.9127L113.612 48.3924V48.3856ZM106.236 35.9547C106.297 33.0584 104.03 30.6155 100.891 30.6155C97.0672 30.6155 94.9694 33.2276 94.7393 35.9547H106.243H106.236Z" fill="#0F111A"/>
<path d="M163.262 53.2571H155.243V49.5353H155.128C153.795 51.5789 150.418 53.9474 146.473 53.9474C138.109 53.9474 132.594 47.9044 132.594 39.3645C132.594 31.5283 137.473 24.3283 145.492 24.3283C149.078 24.3283 152.462 25.3095 154.431 28.0433H154.546V12.8311L163.262 10.8146V53.2436V53.2571ZM148.28 32.002C143.915 32.002 141.303 34.9051 141.303 39.1412C141.303 43.3773 143.915 46.2804 148.28 46.2804C152.644 46.2804 155.243 43.3773 155.243 39.1412C155.243 34.9051 152.631 32.002 148.28 32.002Z" fill="#0F111A"/>
<path d="M182.595 24.3425C191.297 24.3425 198.274 30.1418 198.274 39.1487C198.274 48.1556 191.297 53.9549 182.595 53.9549C173.893 53.9549 166.902 48.1556 166.902 39.1487C166.902 30.1418 173.879 24.3425 182.595 24.3425ZM182.595 46.2879C186.939 46.2879 189.565 43.3848 189.565 39.1487C189.565 34.9126 186.946 32.0095 182.595 32.0095C178.244 32.0095 175.618 34.9126 175.618 39.1487C175.618 43.3848 178.23 46.2879 182.595 46.2879Z" fill="#0F111A"/>
<path d="M217.905 33.3426C216.626 31.7659 214.948 30.9606 212.85 30.9606C211.402 30.9606 209.663 31.5967 209.663 33.2817C209.663 37.457 224.354 33.9178 224.354 44.6638C224.354 51.8639 217.384 53.9481 211.341 53.9481C207.396 53.9481 203.045 52.9669 200.25 50.118L205.535 44.251C207.159 46.2202 209.074 47.3368 211.693 47.3368C213.669 47.3368 215.645 46.8157 215.645 45.3067C215.645 40.7728 200.954 44.6097 200.954 33.8569C200.954 27.2388 206.875 24.3425 212.803 24.3425C216.525 24.3425 220.639 25.2696 223.258 28.0576L217.912 33.3426H217.905Z" fill="#0F111A"/>
<path d="M128.365 25.0393H119.656V53.2644H128.365V25.0393Z" fill="#0F111A"/>
<path d="M128.365 12.8854H119.656V20.1058H128.365V12.8854Z" fill="#0F111A"/>
<path d="M30.7652 32.7332L60.54 14.5436L22.4824 26.9136L30.7652 32.7332Z" fill="#0F111A"/>
<path d="M15.4905 0.954956L12.4453 10.131H59.0834L15.4905 0.954956Z" fill="#0F111A"/>
<path d="M5.49609 31.0071L19.4767 26.4597L9.36681 19.3611L5.49609 31.0071Z" fill="#0F111A"/>
<path d="M0.515625 11.4839L8.65632 17.202L10.5646 11.4839H0.515625Z" fill="#0F111A"/>
<path d="M65.5319 11.4839L11.9915 11.4907L9.8125 18.0208L21.0863 25.9382L65.5319 11.4839Z" fill="#0F111A"/>
</g>
<defs>
<clipPath id="clip0_1185_4568">
<rect width="223.839" height="53" fill="white" transform="translate(0.515625 0.954956)"/>
</clipPath>
</defs>
</svg>
