<svg width="121" height="51" viewBox="0 0 121 51" fill="none" xmlns="http://www.w3.org/2000/svg">
<g clip-path="url(#clip0_1185_4565)">
<g clip-path="url(#clip1_1185_4565)">
<path d="M32.5759 27.3826H33.6935V49.5073H29.4625V30.0692C29.4625 29.437 30.8196 27.3826 32.5759 27.3826Z" fill="#270741"/>
<path d="M55.7265 32.2817C53.651 32.2817 52.0544 33.1508 50.9368 34.8892V27.3826H50.4578C48.3822 27.3826 47.2646 28.4889 46.7058 29.4371V29.279V42.0007C46.7058 46.9788 49.3401 49.5073 54.6089 49.5073C59.8777 49.4283 62.4323 46.5837 62.4323 41.0525C62.4323 35.2843 60.197 32.4397 55.7265 32.2817ZM54.4493 45.8726C52.0544 45.8726 50.8569 44.1342 50.9368 40.8155C51.0964 37.5758 52.214 35.9954 54.5291 35.9954C56.8442 35.9954 57.9618 37.5758 58.1214 40.8155C58.1214 44.2132 56.8442 45.8726 54.4493 45.8726Z" fill="#270741"/>
<path d="M64.9069 40.8155C65.0665 35.4423 67.7009 32.4397 73.3688 32.4397H74.6461V36.7856H72.6504C70.2555 36.7856 69.2177 38.2869 69.2177 40.7365V49.4283H64.9069V40.8155Z" fill="#270741"/>
<path d="M81.3518 45.1613C82.0702 45.7934 83.0282 46.1095 84.3055 46.1095C85.1836 46.1095 85.982 45.8725 86.6206 45.3984C87.2592 44.9243 87.6584 44.4501 87.818 43.976H91.8095C91.1709 45.9515 90.2129 47.2948 88.8558 48.164C87.4987 49.0331 85.9819 49.4282 84.066 49.4282C82.7887 49.4282 81.5913 49.1912 80.5535 48.7961C79.5157 48.4011 78.6376 47.7689 77.9192 47.0577C77.2007 46.2675 76.6419 45.3983 76.2427 44.3711C75.8436 43.3439 75.6839 42.1587 75.6839 40.8944C75.6839 39.7092 75.9234 38.5239 76.3226 37.4967C76.7217 36.4695 77.2805 35.5212 77.999 34.8101C78.7174 34.0199 79.5956 33.4669 80.6334 32.9928C81.6712 32.5187 82.7887 32.3606 84.066 32.3606C85.4231 32.3606 86.7003 32.5976 87.7381 33.1507C88.7759 33.7039 89.6541 34.415 90.2927 35.2842C90.9314 36.1534 91.4103 37.1806 91.7296 38.3658C92.0489 39.4721 92.1288 40.7363 92.049 42.0006H80.1543C80.314 43.5019 80.7131 44.5291 81.3518 45.1613ZM86.4609 36.6275C85.9021 36.0744 85.1038 35.7583 83.9862 35.7583C83.2677 35.7583 82.629 35.9164 82.1501 36.1534C81.6711 36.3905 81.272 36.7065 81.0325 37.0226C80.7132 37.4177 80.5535 37.7338 80.3938 38.1289C80.2342 38.5239 80.2341 38.9189 80.1543 39.235H87.4987C87.4189 38.0498 87.0197 37.1806 86.4609 36.6275Z" fill="#270741"/>
<path d="M42.4748 27.3826H38.2438V31.1754H42.4748V27.3826Z" fill="#270741"/>
<path d="M42.4748 33.0719H38.2438V49.4283H42.4748V33.0719Z" fill="#270741"/>
<path d="M115.439 18.6116C114.721 19.4017 113.763 19.8758 112.565 19.8758C111.368 19.8758 110.41 19.4017 109.691 18.6116C108.973 17.8214 108.734 16.4782 108.734 14.8978C108.734 13.2385 109.053 12.0532 109.691 11.2631C110.41 10.4729 111.368 9.99871 112.565 9.99871C113.763 9.99871 114.721 10.4729 115.439 11.2631C116.158 12.0532 116.397 13.3965 116.397 14.8978C116.397 16.3991 116.158 17.6634 115.439 18.6116ZM118.792 8.81346C117.515 7.1541 115.359 6.20596 112.565 6.20596C109.851 6.20596 107.616 6.99607 106.339 8.81346C105.061 10.4728 104.263 12.5273 104.263 14.8188C104.263 17.1893 104.982 19.2438 106.339 20.8241C107.616 22.4834 109.771 23.3526 112.565 23.3526C115.28 23.3526 117.515 22.5625 118.792 20.8241C120.069 19.1647 120.868 17.1103 120.868 14.8188C120.947 12.6063 120.229 10.5518 118.792 8.81346Z" fill="#270741"/>
<path d="M98.0362 18.6117C97.4774 19.4019 96.5194 19.876 95.322 19.876C94.1245 19.876 93.1666 19.4019 92.6877 18.6117C92.1289 17.6635 91.8894 16.4783 91.8894 14.898C91.8894 13.4757 92.1289 12.3694 92.6877 11.5002C93.2465 10.552 94.1246 10.078 95.4019 10.078C96.2002 10.078 96.9186 10.3149 97.5573 10.789C98.5152 11.5792 99.074 13.1596 99.074 15.2141C98.8346 16.6364 98.6749 17.8216 98.0362 18.6117ZM102.986 1.3861C102.986 1.3861 98.6749 0.911959 98.6749 4.30969V8.81361C98.1959 8.10246 97.6371 7.5494 96.759 6.99628C96.0405 6.52218 95.0825 6.4431 94.1245 6.4431C91.9691 6.4431 90.2927 7.23327 88.9356 8.81361C87.6583 10.3149 87.0198 12.6064 87.0198 15.4511C87.0198 17.8216 87.5785 19.876 88.9356 21.2193C90.2129 22.7206 92.7675 23.3527 95.0028 23.3527C102.906 23.3527 102.746 16.7153 102.746 16.7153L102.986 1.3861Z" fill="#270741"/>
<path d="M81.751 16.6363C81.751 18.0586 81.2721 19.0068 80.5536 19.5599C79.7553 20.034 78.8772 20.3501 77.9991 20.3501C77.4403 20.3501 76.9613 20.271 76.5621 19.8759C76.163 19.4809 76.0033 19.0858 76.0033 18.3747C76.0033 17.5845 76.3226 16.9524 76.9613 16.5573C77.2806 16.3202 77.9991 16.0832 78.8772 16.0042L79.8352 15.7671C80.3142 15.6881 80.6335 15.53 81.0326 15.53C81.2721 15.451 81.5915 15.293 81.8309 15.214L81.751 16.6363ZM83.9065 7.39132C82.4696 6.68017 80.9528 6.36407 79.1167 6.36407C76.4025 6.36407 74.4067 7.07527 73.2891 8.49758C72.5706 9.44578 72.2513 10.552 72.0917 11.8952H76.163C76.2428 11.3421 76.4823 10.8681 76.7218 10.473C77.2008 9.9989 77.9192 9.76183 78.8772 9.76183C79.8351 9.76183 80.3939 9.84087 80.9527 10.0779C81.4317 10.315 81.6712 10.789 81.6712 11.5002C81.6712 12.0533 81.3519 12.4484 80.7133 12.6854C80.394 12.7644 79.7554 12.9225 79.0369 13.0015L77.5999 13.0805C75.9235 13.3176 74.7261 13.6337 73.848 14.1078C72.3312 14.8979 71.5329 16.4783 71.5329 18.3747C71.5329 19.876 72.0118 21.0613 72.9698 21.9305C73.9277 22.7206 75.1252 23.1157 76.642 23.1947C85.9821 23.5108 85.9022 18.2957 85.9022 17.2684V11.2632C85.9821 9.5248 85.3434 8.10248 83.9065 7.39132Z" fill="#270741"/>
<path d="M62.7516 9.99883C63.7894 9.99883 64.5877 10.315 65.1465 10.9471C65.4658 11.4212 65.7053 11.9743 65.7053 12.6064H70.2556C70.0161 10.3149 69.2178 8.65558 67.8607 7.86541C66.5834 6.91721 64.7473 6.60116 62.5919 6.60116C60.0373 6.60116 58.0416 7.31233 56.6046 8.89267C55.1677 10.473 54.4493 12.6064 54.4493 15.293C54.4493 17.8216 55.0081 19.718 56.3652 21.2193C57.6425 22.7206 59.718 23.5108 62.4323 23.5108C65.1465 23.5108 67.2221 22.5626 68.659 20.8242C69.4573 19.639 69.9362 18.4536 70.0959 17.1104H65.5456C65.4658 17.9005 65.2263 18.6118 64.7473 19.1649C64.2684 19.639 63.5499 19.955 62.4323 19.955C60.9953 19.955 59.8777 19.2438 59.4786 17.9005C59.2391 17.1894 58.9995 16.2412 58.9995 15.0559C58.9995 13.8707 59.0794 12.7645 59.4786 12.1323C60.1971 10.71 61.155 9.99883 62.7516 9.99883Z" fill="#270741"/>
<path d="M53.252 6.44306C43.7523 6.44306 44.391 14.7398 44.391 14.7398V23.1157H48.7018V15.293C48.7018 14.0287 48.7816 13.0015 49.1807 12.4484C49.7395 11.4212 50.8571 10.789 52.6134 10.789C52.6932 10.789 52.8529 10.789 53.0924 10.789C53.3319 10.789 53.5713 10.7891 53.8108 10.8681V6.60115C53.5713 6.60115 53.4916 6.60115 53.4916 6.60115C53.4117 6.44312 53.4117 6.44306 53.252 6.44306Z" fill="#270741"/>
<path d="M31.8575 10.789C32.4163 10.2359 33.2945 9.84083 34.4121 9.84083C35.3701 9.84083 36.2482 10.0779 36.9666 10.631C37.6851 11.1841 38.0045 12.0533 38.0045 13.1595H30.6601C30.8996 12.2113 31.2189 11.4211 31.8575 10.789ZM37.6053 18.6117C37.5255 18.8487 37.2859 19.0859 37.0465 19.1649C36.4876 19.639 35.6095 19.7179 34.6516 19.7179C33.6936 19.7179 32.9752 19.639 32.3366 19.1649C31.2988 18.6117 30.6601 17.3474 30.6601 15.8461H42.4749C42.4749 14.4238 42.4749 13.3176 42.3951 12.6854C42.1556 11.4212 41.8363 10.315 41.1178 9.36675C40.3994 8.33953 39.4414 7.47034 38.4036 6.99624C37.3658 6.52214 36.0087 6.28507 34.5718 6.28507C32.1769 6.28507 30.261 6.99624 28.8241 8.57658C27.3871 10.0779 26.509 12.2113 26.509 14.9769C26.509 17.9006 27.3072 20.113 29.0635 21.3773C30.7399 22.6416 32.6559 23.4317 34.8113 23.4317C37.4457 23.4317 39.5212 22.6415 40.8783 21.0612C41.6766 20.271 42.1556 19.4019 42.3153 18.5327L37.6053 18.6117Z" fill="#270741"/>
<path d="M24.6728 23.0366H20.6813V13.3176C20.6813 12.3694 20.4418 10.3939 17.8075 10.3939C16.131 10.3939 14.8538 11.5792 14.8538 13.3176V23.0366H10.8623V13.3176C10.8623 12.3694 10.6229 10.3939 7.98848 10.3939C6.31205 10.3939 5.11453 11.5792 5.11453 13.3176V23.0366H1.12305V13.3966C1.12305 9.36673 3.75743 6.28507 7.90857 6.28507C9.98414 6.28507 11.6606 7.07526 12.8581 8.57658C14.0555 7.15428 15.7319 6.28507 17.8075 6.28507C22.1183 6.28507 24.593 9.2087 24.593 13.3966L24.6728 23.0366Z" fill="#270741"/>
</g>
</g>
<defs>
<clipPath id="clip0_1185_4565">
<rect width="120" height="50" fill="white" transform="translate(0.904297 0.454956)"/>
</clipPath>
<clipPath id="clip1_1185_4565">
<rect width="120" height="50" fill="white" transform="translate(0.904297 0.454956)"/>
</clipPath>
</defs>
</svg>
