<svg width="131" height="131" viewBox="0 0 131 131" fill="none" xmlns="http://www.w3.org/2000/svg">
<rect x="1.18555" y="1.41016" width="128.562" height="128.562" rx="14.5" fill="#F5F7FB" stroke="#DBE2F0"/>
<path d="M56.1566 37.75H73.2419L55.5056 90.3006C55.3234 90.8406 54.9763 91.3098 54.5134 91.6422C54.0504 91.9746 53.4949 92.1535 52.9249 92.1536H39.6283C39.1965 92.1537 38.7709 92.0509 38.3867 91.8538C38.0025 91.6567 37.6707 91.371 37.4188 91.0202C37.1669 90.6695 37.0022 90.2638 36.9382 89.8367C36.8742 89.4097 36.9129 88.9735 37.0509 88.5644L53.5752 39.6031C53.7574 39.0628 54.1045 38.5934 54.5676 38.2609C55.0307 37.9283 55.5864 37.7501 56.1566 37.75Z" fill="url(#paint0_linear_1185_4897)"/>
<path d="M80.9833 72.9974H53.8901C53.6382 72.9972 53.3921 73.0727 53.1838 73.2143C52.9755 73.356 52.8146 73.557 52.7222 73.7913C52.6298 74.0256 52.6101 74.2824 52.6657 74.528C52.7212 74.7737 52.8495 74.997 53.0338 75.1687L70.4432 91.418C70.9501 91.8909 71.6175 92.1538 72.3107 92.1536H87.6519L80.9833 72.9974Z" fill="#0078D4"/>
<path d="M56.157 37.75C55.5806 37.7478 55.0187 37.9299 54.5532 38.2698C54.0877 38.6097 53.7431 39.0895 53.5697 39.6391L37.0717 88.5197C36.9244 88.9304 36.8781 89.3705 36.9368 89.8028C36.9956 90.2351 37.1576 90.6469 37.4091 91.0033C37.6606 91.3598 37.9943 91.6504 38.382 91.8506C38.7696 92.0508 39.1997 92.1548 39.636 92.1536H53.2758C53.7838 92.0628 54.2586 91.8388 54.6517 91.5045C55.0448 91.1702 55.3421 90.7375 55.5133 90.2507L58.8033 80.5545L70.5553 91.5158C71.0478 91.9231 71.6655 92.1484 72.3046 92.1536H87.5888L80.8853 72.9974L61.344 73.002L73.304 37.75H56.157Z" fill="url(#paint1_linear_1185_4897)"/>
<path d="M77.9782 39.6004C77.7962 39.061 77.4496 38.5924 76.9872 38.2604C76.5248 37.9285 75.9699 37.7499 75.4007 37.75H56.3594C56.9286 37.75 57.4834 37.9286 57.9458 38.2605C58.4082 38.5925 58.7548 39.0611 58.9368 39.6004L75.4617 88.5637C75.5999 88.9729 75.6386 89.4092 75.5747 89.8363C75.5108 90.2635 75.3461 90.6693 75.0942 91.0202C74.8423 91.3711 74.5105 91.6569 74.1262 91.8541C73.742 92.0513 73.3162 92.1542 72.8843 92.1542H91.9263C92.3582 92.1541 92.7838 92.0511 93.168 91.8539C93.5522 91.6567 93.8839 91.3708 94.1357 91.0199C94.3875 90.669 94.5522 90.2633 94.6161 89.8362C94.6799 89.409 94.6412 88.9729 94.5031 88.5637L77.9782 39.6004Z" fill="url(#paint2_linear_1185_4897)"/>
<defs>
<linearGradient id="paint0_linear_1185_4897" x1="62.3836" y1="41.7815" x2="44.6402" y2="94.2002" gradientUnits="userSpaceOnUse">
<stop stop-color="#114A8B"/>
<stop offset="1" stop-color="#0669BC"/>
</linearGradient>
<linearGradient id="paint1_linear_1185_4897" x1="67.9267" y1="66.21" x2="63.8223" y2="67.5978" gradientUnits="userSpaceOnUse">
<stop stop-opacity="0.3"/>
<stop offset="0.071" stop-opacity="0.2"/>
<stop offset="0.321" stop-opacity="0.1"/>
<stop offset="0.623" stop-opacity="0.05"/>
<stop offset="1" stop-opacity="0"/>
</linearGradient>
<linearGradient id="paint2_linear_1185_4897" x1="65.6684" y1="40.2526" x2="85.1455" y2="92.1431" gradientUnits="userSpaceOnUse">
<stop stop-color="#3CCBF4"/>
<stop offset="1" stop-color="#2892DF"/>
</linearGradient>
</defs>
</svg>
