<svg width="64" height="64" viewBox="0 0 64 64" fill="none" xmlns="http://www.w3.org/2000/svg">
<g id="Microsoft Azure ">
<path id="Vector" d="M22.1566 4.75005H39.2419L21.5056 57.3006C21.3234 57.8406 20.9763 58.3098 20.5134 58.6422C20.0504 58.9746 19.4949 59.1535 18.9249 59.1536H5.62834C5.19652 59.1537 4.77089 59.0509 4.38667 58.8538C4.00245 58.6567 3.67068 58.371 3.41881 58.0202C3.16693 57.6695 3.00219 57.2638 2.93822 56.8367C2.87424 56.4097 2.91287 55.9735 3.05091 55.5644L19.5752 6.60306C19.7574 6.06284 20.1045 5.5934 20.5676 5.26085C21.0307 4.92831 21.5864 4.75008 22.1566 4.75005Z" fill="url(#paint0_linear_1185_4899)"/>
<path id="Vector_2" d="M46.9833 39.9974H19.8901C19.6382 39.9972 19.3921 40.0727 19.1838 40.2143C18.9755 40.356 18.8146 40.557 18.7222 40.7913C18.6298 41.0256 18.6101 41.2824 18.6657 41.528C18.7212 41.7737 18.8495 41.997 19.0338 42.1687L36.4432 58.418C36.9501 58.8909 37.6175 59.1538 38.3107 59.1536H53.6519L46.9833 39.9974Z" fill="#0078D4"/>
<path id="Vector_3" d="M22.157 4.75002C21.5806 4.74781 21.0187 4.92994 20.5532 5.26981C20.0877 5.60968 19.7431 6.08948 19.5697 6.63913L3.07168 55.5197C2.92436 55.9304 2.87811 56.3705 2.93684 56.8028C2.99557 57.2351 3.15756 57.6469 3.4091 58.0033C3.66064 58.3598 3.99434 58.6504 4.38196 58.8506C4.76957 59.0508 5.19971 59.1548 5.63599 59.1536H19.2758C19.7838 59.0628 20.2586 58.8388 20.6517 58.5045C21.0448 58.1702 21.3421 57.7375 21.5133 57.2507L24.8033 47.5545L36.5553 58.5158C37.0478 58.9231 37.6655 59.1484 38.3046 59.1536H53.5888L46.8853 39.9974L27.344 40.002L39.304 4.75002H22.157Z" fill="url(#paint1_linear_1185_4899)"/>
<path id="Vector_4" d="M43.9782 6.60039C43.7962 6.06105 43.4496 5.59238 42.9872 5.26042C42.5248 4.92846 41.9699 4.74993 41.4007 4.75H22.3594C22.9286 4.75003 23.4834 4.92859 23.9458 5.26054C24.4082 5.59249 24.7548 6.0611 24.9368 6.60039L41.4617 55.5637C41.5999 55.9729 41.6386 56.4092 41.5747 56.8363C41.5108 57.2635 41.3461 57.6693 41.0942 58.0202C40.8423 58.3711 40.5105 58.6569 40.1262 58.8541C39.742 59.0513 39.3162 59.1542 38.8843 59.1542H57.9263C58.3582 59.1541 58.7838 59.0511 59.168 58.8539C59.5522 58.6567 59.8839 58.3708 60.1357 58.0199C60.3875 57.669 60.5522 57.2633 60.6161 56.8362C60.6799 56.409 60.6412 55.9729 60.5031 55.5637L43.9782 6.60039Z" fill="url(#paint2_linear_1185_4899)"/>
</g>
<defs>
<linearGradient id="paint0_linear_1185_4899" x1="28.3836" y1="8.78154" x2="10.6402" y2="61.2002" gradientUnits="userSpaceOnUse">
<stop stop-color="#114A8B"/>
<stop offset="1" stop-color="#0669BC"/>
</linearGradient>
<linearGradient id="paint1_linear_1185_4899" x1="33.9267" y1="33.21" x2="29.8223" y2="34.5978" gradientUnits="userSpaceOnUse">
<stop stop-opacity="0.3"/>
<stop offset="0.071" stop-opacity="0.2"/>
<stop offset="0.321" stop-opacity="0.1"/>
<stop offset="0.623" stop-opacity="0.05"/>
<stop offset="1" stop-opacity="0"/>
</linearGradient>
<linearGradient id="paint2_linear_1185_4899" x1="31.6684" y1="7.25263" x2="51.1455" y2="59.1431" gradientUnits="userSpaceOnUse">
<stop stop-color="#3CCBF4"/>
<stop offset="1" stop-color="#2892DF"/>
</linearGradient>
</defs>
</svg>
