<svg width="408" height="345" viewBox="0 0 408 345" fill="none" xmlns="http://www.w3.org/2000/svg">
<line y1="119.712" x2="408" y2="119.712" stroke="url(#paint0_linear_1185_5552)" stroke-opacity="0.3"/>
<line y1="31.8824" x2="408" y2="31.8824" stroke="url(#paint1_linear_1185_5552)" stroke-opacity="0.3"/>
<line y1="207.542" x2="408" y2="207.542" stroke="url(#paint2_linear_1185_5552)" stroke-opacity="0.3"/>
<line y1="295.372" x2="408" y2="295.372" stroke="url(#paint3_linear_1185_5552)" stroke-opacity="0.3"/>
<path d="M30.1055 294.985H245.678L288.818 86.5441L331.958 53.242L374.732 32.3824" stroke="#17AB52" stroke-width="3"/>
<path d="M35.7348 294.953C35.7348 298.064 33.2137 300.585 30.1047 300.585C26.9957 300.585 24.4746 298.064 24.4746 294.953C24.4746 291.842 26.9957 289.321 30.1047 289.321C33.2137 289.321 35.7348 291.842 35.7348 294.953Z" fill="white" stroke="#17AB52" stroke-width="3"/>
<path d="M78.5668 294.953C78.5668 298.064 76.0457 300.585 72.9367 300.585C69.8277 300.585 67.3066 298.064 67.3066 294.953C67.3066 291.842 69.8277 289.321 72.9367 289.321C76.0457 289.321 78.5668 291.842 78.5668 294.953Z" fill="white" stroke="#17AB52" stroke-width="3"/>
<path d="M121.706 294.953C121.706 298.064 119.184 300.585 116.075 300.585C112.966 300.585 110.445 298.064 110.445 294.953C110.445 291.842 112.966 289.321 116.075 289.321C119.184 289.321 121.706 291.842 121.706 294.953Z" fill="white" stroke="#17AB52" stroke-width="3"/>
<path d="M294.266 86.3573C294.266 89.4682 291.745 91.9894 288.636 91.9894C285.527 91.9894 283.006 89.4682 283.006 86.3573C283.006 83.2463 285.527 80.7251 288.636 80.7251C291.745 80.7251 294.266 83.2463 294.266 86.3573Z" fill="white" stroke="#17AB52" stroke-width="3"/>
<path d="M164.846 294.953C164.846 298.064 162.325 300.585 159.216 300.585C156.107 300.585 153.586 298.064 153.586 294.953C153.586 291.842 156.107 289.321 159.216 289.321C162.325 289.321 164.846 291.842 164.846 294.953Z" fill="white" stroke="#17AB52" stroke-width="3"/>
<path d="M207.987 294.953C207.987 298.064 205.466 300.585 202.357 300.585C199.248 300.585 196.727 298.064 196.727 294.953C196.727 291.842 199.248 289.321 202.357 289.321C205.466 289.321 207.987 291.842 207.987 294.953Z" fill="white" stroke="#17AB52" stroke-width="3"/>
<path d="M251.125 294.953C251.125 298.064 248.604 300.585 245.495 300.585C242.386 300.585 239.865 298.064 239.865 294.953C239.865 291.842 242.386 289.321 245.495 289.321C248.604 289.321 251.125 291.842 251.125 294.953Z" fill="white" stroke="#17AB52" stroke-width="3"/>
<path d="M337.405 53.4211C337.405 56.5321 334.884 59.0533 331.775 59.0533C328.666 59.0533 326.145 56.5321 326.145 53.4211C326.145 50.3101 328.666 47.7889 331.775 47.7889C334.884 47.7889 337.405 50.3101 337.405 53.4211Z" fill="white" stroke="#17AB52" stroke-width="3"/>
<path d="M380.545 32.1955C380.545 35.3065 378.024 37.8277 374.915 37.8277C371.806 37.8277 369.285 35.3065 369.285 32.1955C369.285 29.0846 371.806 26.5634 374.915 26.5634C378.024 26.5634 380.545 29.0846 380.545 32.1955Z" fill="white" stroke="#17AB52" stroke-width="3"/>
<path d="M29.2461 244.272L72.7515 225.608L116.257 244.272L159.031 251.957H202.171L245.311 258.178L288.816 281.234H331.956H373.633" stroke="#D62687" stroke-width="3"/>
<path d="M35.4262 244.451C35.4262 247.562 32.9051 250.083 29.7961 250.083C26.6871 250.083 24.166 247.562 24.166 244.451C24.166 241.34 26.6871 238.819 29.7961 238.819C32.9051 238.819 35.4262 241.34 35.4262 244.451Z" fill="white" stroke="#D62687" stroke-width="3"/>
<path d="M78.5668 226.153C78.5668 229.264 76.0457 231.785 72.9367 231.785C69.8277 231.785 67.3066 229.264 67.3066 226.153C67.3066 223.042 69.8277 220.521 72.9367 220.521C76.0457 220.521 78.5668 223.042 78.5668 226.153Z" fill="white" stroke="#D62687" stroke-width="3"/>
<path d="M121.706 244.451C121.706 247.562 119.184 250.083 116.075 250.083C112.966 250.083 110.445 247.562 110.445 244.451C110.445 241.34 112.966 238.819 116.075 238.819C119.184 238.819 121.706 241.34 121.706 244.451Z" fill="white" stroke="#D62687" stroke-width="3"/>
<path d="M294.264 281.046C294.264 284.157 291.743 286.679 288.634 286.679C285.525 286.679 283.004 284.157 283.004 281.046C283.004 277.936 285.525 275.414 288.634 275.414C291.743 275.414 294.264 277.936 294.264 281.046Z" fill="white" stroke="#D62687" stroke-width="3"/>
<path d="M164.846 251.038C164.846 254.149 162.325 256.67 159.216 256.67C156.107 256.67 153.586 254.149 153.586 251.038C153.586 247.927 156.107 245.406 159.216 245.406C162.325 245.406 164.846 247.927 164.846 251.038Z" fill="white" stroke="#D62687" stroke-width="3"/>
<path d="M207.985 251.77C207.985 254.881 205.464 257.402 202.355 257.402C199.246 257.402 196.725 254.881 196.725 251.77C196.725 248.659 199.246 246.138 202.355 246.138C205.464 246.138 207.985 248.659 207.985 251.77Z" fill="white" stroke="#D62687" stroke-width="3"/>
<path d="M251.125 258.357C251.125 261.468 248.604 263.989 245.495 263.989C242.386 263.989 239.865 261.468 239.865 258.357C239.865 255.246 242.386 252.725 245.495 252.725C248.604 252.725 251.125 255.246 251.125 258.357Z" fill="white" stroke="#D62687" stroke-width="3"/>
<path d="M337.405 281.046C337.405 284.157 334.884 286.679 331.775 286.679C328.666 286.679 326.145 284.157 326.145 281.046C326.145 277.936 328.666 275.414 331.775 275.414C334.884 275.414 337.405 277.936 337.405 281.046Z" fill="white" stroke="#D62687" stroke-width="3"/>
<path d="M380.545 281.046C380.545 284.157 378.024 286.679 374.915 286.679C371.806 286.679 369.285 284.157 369.285 281.046C369.285 277.936 371.806 275.414 374.915 275.414C378.024 275.414 380.545 277.936 380.545 281.046Z" fill="white" stroke="#D62687" stroke-width="3"/>
<path d="M58.7812 344V333.022H54.7998V331.317H64.7314V333.022H60.7588V344H58.7812ZM67.4609 344.158C66.8574 344.158 66.3154 344.044 65.835 343.815C65.3604 343.581 64.9854 343.25 64.71 342.822C64.4404 342.395 64.3057 341.894 64.3057 341.319V341.302C64.3057 340.733 64.4434 340.247 64.7188 339.843C64.9941 339.433 65.3955 339.113 65.9229 338.885C66.4561 338.65 67.1006 338.513 67.8564 338.472L71.3809 338.261V339.605L68.1201 339.816C67.4639 339.852 66.9805 339.989 66.6699 340.229C66.3652 340.47 66.2129 340.801 66.2129 341.223V341.24C66.2129 341.68 66.377 342.022 66.7051 342.269C67.0391 342.515 67.4639 342.638 67.9795 342.638C68.4541 342.638 68.876 342.544 69.2451 342.356C69.6143 342.163 69.9043 341.905 70.1152 341.583C70.3262 341.255 70.4316 340.886 70.4316 340.476V337.487C70.4316 336.96 70.2676 336.559 69.9395 336.283C69.6172 336.002 69.1367 335.861 68.498 335.861C67.9648 335.861 67.5312 335.955 67.1973 336.143C66.8633 336.33 66.6377 336.594 66.5205 336.934L66.5117 336.969H64.6748L64.6836 336.898C64.7598 336.377 64.9678 335.92 65.3076 335.527C65.6475 335.135 66.0957 334.83 66.6523 334.613C67.209 334.391 67.8506 334.279 68.5771 334.279C69.3799 334.279 70.0596 334.408 70.6162 334.666C71.1787 334.918 71.6035 335.284 71.8906 335.765C72.1836 336.239 72.3301 336.811 72.3301 337.479V344H70.4316V342.638H70.291C70.1035 342.96 69.8691 343.235 69.5879 343.464C69.3125 343.692 68.9932 343.865 68.6299 343.982C68.2725 344.1 67.8828 344.158 67.4609 344.158ZM74.7607 344V334.464H76.6768V344H74.7607ZM75.7275 332.776C75.3994 332.776 75.1182 332.659 74.8838 332.425C74.6494 332.19 74.5322 331.912 74.5322 331.59C74.5322 331.262 74.6494 330.983 74.8838 330.755C75.1182 330.521 75.3994 330.403 75.7275 330.403C76.0557 330.403 76.3369 330.521 76.5713 330.755C76.8057 330.983 76.9229 331.262 76.9229 331.59C76.9229 331.912 76.8057 332.19 76.5713 332.425C76.3369 332.659 76.0557 332.776 75.7275 332.776ZM79.248 344V330.737H81.1553V344H79.248ZM85.5371 344L82.918 334.464H84.834L86.5391 341.829H86.6797L88.6396 334.464H90.459L92.4277 341.829H92.5684L94.2734 334.464H96.1719L93.5439 344H91.5752L89.5977 336.89H89.457L87.4971 344H85.5371ZM97.8643 344V334.464H99.7803V344H97.8643ZM98.8311 332.776C98.5029 332.776 98.2217 332.659 97.9873 332.425C97.7529 332.19 97.6357 331.912 97.6357 331.59C97.6357 331.262 97.7529 330.983 97.9873 330.755C98.2217 330.521 98.5029 330.403 98.8311 330.403C99.1592 330.403 99.4404 330.521 99.6748 330.755C99.9092 330.983 100.026 331.262 100.026 331.59C100.026 331.912 99.9092 332.19 99.6748 332.425C99.4404 332.659 99.1592 332.776 98.8311 332.776ZM102.264 344V334.464H104.171V335.914H104.312C104.546 335.404 104.892 335.006 105.349 334.719C105.812 334.426 106.389 334.279 107.08 334.279C108.152 334.279 108.973 334.587 109.541 335.202C110.109 335.817 110.394 336.693 110.394 337.83V344H108.478V338.27C108.478 337.484 108.311 336.898 107.977 336.512C107.648 336.119 107.133 335.923 106.43 335.923C105.967 335.923 105.565 336.025 105.226 336.23C104.892 336.43 104.631 336.714 104.443 337.083C104.262 337.452 104.171 337.895 104.171 338.41V344H102.264ZM116.252 344.167C115.449 344.167 114.752 343.965 114.16 343.561C113.568 343.156 113.108 342.585 112.78 341.847C112.458 341.108 112.297 340.241 112.297 339.245V339.228C112.297 338.22 112.458 337.35 112.78 336.617C113.103 335.879 113.56 335.311 114.151 334.912C114.743 334.508 115.443 334.306 116.252 334.306C116.686 334.306 117.093 334.376 117.474 334.517C117.854 334.651 118.191 334.845 118.484 335.097C118.783 335.343 119.015 335.639 119.179 335.984H119.319V330.737H121.235V344H119.319V342.488H119.179C118.997 342.84 118.763 343.142 118.476 343.394C118.188 343.64 117.857 343.83 117.482 343.965C117.107 344.1 116.697 344.167 116.252 344.167ZM116.788 342.523C117.315 342.523 117.77 342.392 118.15 342.128C118.537 341.864 118.833 341.486 119.038 340.994C119.249 340.502 119.354 339.919 119.354 339.245V339.228C119.354 338.548 119.249 337.965 119.038 337.479C118.833 336.986 118.537 336.608 118.15 336.345C117.77 336.075 117.315 335.94 116.788 335.94C116.261 335.94 115.807 336.072 115.426 336.336C115.045 336.6 114.752 336.978 114.547 337.47C114.348 337.956 114.248 338.542 114.248 339.228V339.245C114.248 339.919 114.348 340.502 114.547 340.994C114.752 341.486 115.045 341.864 115.426 342.128C115.807 342.392 116.261 342.523 116.788 342.523ZM133.805 344.308C132.627 344.308 131.607 344.038 130.746 343.499C129.891 342.96 129.231 342.195 128.769 341.205C128.306 340.209 128.074 339.031 128.074 337.672V337.654C128.074 336.283 128.306 335.103 128.769 334.112C129.231 333.122 129.891 332.357 130.746 331.818C131.602 331.279 132.621 331.01 133.805 331.01C134.736 331.01 135.577 331.194 136.327 331.563C137.083 331.927 137.701 332.431 138.182 333.075C138.668 333.72 138.964 334.461 139.069 335.299V335.352H137.118L137.101 335.316C136.978 334.795 136.761 334.344 136.45 333.963C136.146 333.582 135.768 333.286 135.316 333.075C134.865 332.864 134.361 332.759 133.805 332.759C133.049 332.759 132.393 332.958 131.836 333.356C131.279 333.755 130.849 334.32 130.544 335.053C130.245 335.779 130.096 336.646 130.096 337.654V337.672C130.096 338.668 130.245 339.532 130.544 340.265C130.849 340.997 131.279 341.562 131.836 341.961C132.393 342.359 133.052 342.559 133.813 342.559C134.37 342.559 134.874 342.465 135.325 342.277C135.782 342.084 136.163 341.814 136.468 341.469C136.772 341.117 136.983 340.704 137.101 340.229L137.118 340.186H139.078V340.238C138.949 341.053 138.647 341.765 138.173 342.374C137.698 342.983 137.089 343.458 136.345 343.798C135.601 344.138 134.754 344.308 133.805 344.308ZM145.657 344.308C144.702 344.308 143.87 344.155 143.161 343.851C142.452 343.546 141.893 343.127 141.482 342.594C141.072 342.055 140.838 341.428 140.779 340.713L140.771 340.607H142.713L142.722 340.695C142.763 341.082 142.912 341.416 143.17 341.697C143.434 341.979 143.785 342.198 144.225 342.356C144.67 342.509 145.177 342.585 145.745 342.585C146.284 342.585 146.759 342.503 147.169 342.339C147.585 342.169 147.91 341.935 148.145 341.636C148.385 341.337 148.505 340.994 148.505 340.607V340.599C148.505 340.106 148.32 339.702 147.951 339.386C147.582 339.063 146.979 338.812 146.141 338.63L144.752 338.34C143.469 338.059 142.534 337.619 141.948 337.021C141.362 336.424 141.069 335.659 141.069 334.728V334.719C141.075 333.986 141.271 333.342 141.658 332.785C142.051 332.229 142.593 331.795 143.284 331.484C143.976 331.168 144.77 331.01 145.666 331.01C146.562 331.01 147.345 331.165 148.013 331.476C148.687 331.78 149.217 332.196 149.604 332.724C149.996 333.251 150.216 333.846 150.263 334.508L150.271 334.631H148.347L148.329 334.517C148.276 334.165 148.133 333.857 147.898 333.594C147.67 333.324 147.362 333.113 146.976 332.961C146.595 332.803 146.149 332.727 145.64 332.732C145.147 332.732 144.708 332.809 144.321 332.961C143.935 333.107 143.627 333.321 143.398 333.603C143.176 333.878 143.064 334.215 143.064 334.613V334.622C143.064 335.097 143.243 335.492 143.601 335.809C143.964 336.119 144.553 336.359 145.367 336.529L146.756 336.837C147.641 337.024 148.358 337.273 148.909 337.584C149.46 337.895 149.861 338.278 150.113 338.735C150.371 339.187 150.5 339.729 150.5 340.361V340.37C150.5 341.173 150.301 341.87 149.902 342.462C149.51 343.048 148.95 343.502 148.224 343.824C147.503 344.146 146.647 344.308 145.657 344.308ZM157.097 344.308C156.142 344.308 155.31 344.155 154.601 343.851C153.892 343.546 153.332 343.127 152.922 342.594C152.512 342.055 152.277 341.428 152.219 340.713L152.21 340.607H154.152L154.161 340.695C154.202 341.082 154.352 341.416 154.609 341.697C154.873 341.979 155.225 342.198 155.664 342.356C156.109 342.509 156.616 342.585 157.185 342.585C157.724 342.585 158.198 342.503 158.608 342.339C159.024 342.169 159.35 341.935 159.584 341.636C159.824 341.337 159.944 340.994 159.944 340.607V340.599C159.944 340.106 159.76 339.702 159.391 339.386C159.021 339.063 158.418 338.812 157.58 338.63L156.191 338.34C154.908 338.059 153.974 337.619 153.388 337.021C152.802 336.424 152.509 335.659 152.509 334.728V334.719C152.515 333.986 152.711 333.342 153.098 332.785C153.49 332.229 154.032 331.795 154.724 331.484C155.415 331.168 156.209 331.01 157.105 331.01C158.002 331.01 158.784 331.165 159.452 331.476C160.126 331.78 160.656 332.196 161.043 332.724C161.436 333.251 161.655 333.846 161.702 334.508L161.711 334.631H159.786L159.769 334.517C159.716 334.165 159.572 333.857 159.338 333.594C159.109 333.324 158.802 333.113 158.415 332.961C158.034 332.803 157.589 332.727 157.079 332.732C156.587 332.732 156.147 332.809 155.761 332.961C155.374 333.107 155.066 333.321 154.838 333.603C154.615 333.878 154.504 334.215 154.504 334.613V334.622C154.504 335.097 154.683 335.492 155.04 335.809C155.403 336.119 155.992 336.359 156.807 336.529L158.195 336.837C159.08 337.024 159.798 337.273 160.349 337.584C160.899 337.895 161.301 338.278 161.553 338.735C161.811 339.187 161.939 339.729 161.939 340.361V340.37C161.939 341.173 161.74 341.87 161.342 342.462C160.949 343.048 160.39 343.502 159.663 343.824C158.942 344.146 158.087 344.308 157.097 344.308Z" fill="black"/>
<path d="M43.6577 334.608C43.6577 336.844 41.846 338.655 39.612 338.655C37.3781 338.655 35.5664 336.844 35.5664 334.608C35.5664 332.372 37.3781 330.561 39.612 330.561C41.846 330.561 43.6577 332.372 43.6577 334.608Z" fill="#17AB52" stroke="#17AB52" stroke-width="3"/>
<path d="M219.308 343.685V342.076H223.131C224.021 342.076 224.695 341.897 225.152 341.54C225.609 341.183 225.838 340.664 225.838 339.984V339.967C225.838 339.516 225.732 339.138 225.521 338.833C225.311 338.522 224.994 338.291 224.572 338.139C224.156 337.98 223.638 337.901 223.017 337.901H219.308V336.398H222.621C223.494 336.398 224.153 336.237 224.599 335.915C225.044 335.593 225.267 335.124 225.267 334.509V334.491C225.267 333.899 225.064 333.439 224.66 333.111C224.256 332.777 223.69 332.61 222.964 332.61H219.308V331.002H223.421C224.218 331.002 224.9 331.131 225.469 331.389C226.037 331.646 226.474 332.013 226.778 332.487C227.083 332.956 227.235 333.513 227.235 334.157V334.175C227.235 334.62 227.136 335.036 226.937 335.423C226.737 335.81 226.471 336.135 226.137 336.398C225.803 336.656 225.425 336.82 225.003 336.891V337.04C225.577 337.099 226.078 337.266 226.506 337.541C226.934 337.816 227.268 338.174 227.508 338.613C227.748 339.047 227.868 339.539 227.868 340.09V340.107C227.868 340.846 227.692 341.484 227.341 342.023C226.995 342.557 226.5 342.967 225.855 343.254C225.211 343.541 224.438 343.685 223.535 343.685H219.308ZM218.323 343.685V331.002H220.292V343.685H218.323ZM230.097 343.685V331.002H238.147V332.707H232.065V336.407H237.822V338.042H232.065V341.979H238.147V343.685H230.097ZM240.71 343.685V331.002H242.986L247.021 341.109H247.161L251.204 331.002H253.48V343.685H251.679V334.386H250.712L252.76 331.354L247.82 343.685H246.361L241.431 331.354L243.47 334.386H242.512V343.685H240.71ZM266.182 343.992C265.004 343.992 263.984 343.723 263.123 343.184C262.268 342.645 261.608 341.88 261.146 340.89C260.683 339.894 260.451 338.716 260.451 337.356V337.339C260.451 335.968 260.683 334.787 261.146 333.797C261.608 332.807 262.268 332.042 263.123 331.503C263.979 330.964 264.998 330.694 266.182 330.694C267.113 330.694 267.954 330.879 268.704 331.248C269.46 331.611 270.078 332.115 270.559 332.76C271.045 333.404 271.341 334.146 271.446 334.983V335.036H269.495L269.478 335.001C269.354 334.479 269.138 334.028 268.827 333.647C268.522 333.267 268.145 332.971 267.693 332.76C267.242 332.549 266.738 332.443 266.182 332.443C265.426 332.443 264.77 332.643 264.213 333.041C263.656 333.439 263.226 334.005 262.921 334.737C262.622 335.464 262.473 336.331 262.473 337.339V337.356C262.473 338.353 262.622 339.217 262.921 339.949C263.226 340.682 263.656 341.247 264.213 341.646C264.77 342.044 265.429 342.243 266.19 342.243C266.747 342.243 267.251 342.149 267.702 341.962C268.159 341.769 268.54 341.499 268.845 341.153C269.149 340.802 269.36 340.389 269.478 339.914L269.495 339.87H271.455V339.923C271.326 340.737 271.024 341.449 270.55 342.059C270.075 342.668 269.466 343.143 268.722 343.482C267.978 343.822 267.131 343.992 266.182 343.992ZM278.034 343.992C277.079 343.992 276.247 343.84 275.538 343.535C274.829 343.23 274.27 342.812 273.859 342.278C273.449 341.739 273.215 341.112 273.156 340.397L273.147 340.292H275.09L275.099 340.38C275.14 340.767 275.289 341.101 275.547 341.382C275.811 341.663 276.162 341.883 276.602 342.041C277.047 342.193 277.554 342.27 278.122 342.27C278.661 342.27 279.136 342.188 279.546 342.023C279.962 341.854 280.287 341.619 280.521 341.32C280.762 341.021 280.882 340.679 280.882 340.292V340.283C280.882 339.791 280.697 339.387 280.328 339.07C279.959 338.748 279.355 338.496 278.518 338.314L277.129 338.024C275.846 337.743 274.911 337.304 274.325 336.706C273.739 336.108 273.446 335.344 273.446 334.412V334.403C273.452 333.671 273.648 333.026 274.035 332.47C274.428 331.913 274.97 331.479 275.661 331.169C276.353 330.853 277.146 330.694 278.043 330.694C278.939 330.694 279.722 330.85 280.39 331.16C281.063 331.465 281.594 331.881 281.98 332.408C282.373 332.936 282.593 333.53 282.64 334.192L282.648 334.315H280.724L280.706 334.201C280.653 333.85 280.51 333.542 280.275 333.278C280.047 333.009 279.739 332.798 279.353 332.646C278.972 332.487 278.526 332.411 278.017 332.417C277.524 332.417 277.085 332.493 276.698 332.646C276.312 332.792 276.004 333.006 275.775 333.287C275.553 333.562 275.441 333.899 275.441 334.298V334.307C275.441 334.781 275.62 335.177 275.978 335.493C276.341 335.804 276.93 336.044 277.744 336.214L279.133 336.521C280.018 336.709 280.735 336.958 281.286 337.269C281.837 337.579 282.238 337.963 282.49 338.42C282.748 338.871 282.877 339.413 282.877 340.046V340.055C282.877 340.857 282.678 341.555 282.279 342.146C281.887 342.732 281.327 343.187 280.601 343.509C279.88 343.831 279.024 343.992 278.034 343.992ZM289.474 343.992C288.519 343.992 287.687 343.84 286.978 343.535C286.269 343.23 285.709 342.812 285.299 342.278C284.889 341.739 284.654 341.112 284.596 340.397L284.587 340.292H286.529L286.538 340.38C286.579 340.767 286.729 341.101 286.986 341.382C287.25 341.663 287.602 341.883 288.041 342.041C288.486 342.193 288.993 342.27 289.562 342.27C290.101 342.27 290.575 342.188 290.985 342.023C291.401 341.854 291.727 341.619 291.961 341.32C292.201 341.021 292.321 340.679 292.321 340.292V340.283C292.321 339.791 292.137 339.387 291.768 339.07C291.398 338.748 290.795 338.496 289.957 338.314L288.568 338.024C287.285 337.743 286.351 337.304 285.765 336.706C285.179 336.108 284.886 335.344 284.886 334.412V334.403C284.892 333.671 285.088 333.026 285.475 332.47C285.867 331.913 286.409 331.479 287.101 331.169C287.792 330.853 288.586 330.694 289.482 330.694C290.379 330.694 291.161 330.85 291.829 331.16C292.503 331.465 293.033 331.881 293.42 332.408C293.812 332.936 294.032 333.53 294.079 334.192L294.088 334.315H292.163L292.146 334.201C292.093 333.85 291.949 333.542 291.715 333.278C291.486 333.009 291.179 332.798 290.792 332.646C290.411 332.487 289.966 332.411 289.456 332.417C288.964 332.417 288.524 332.493 288.138 332.646C287.751 332.792 287.443 333.006 287.215 333.287C286.992 333.562 286.881 333.899 286.881 334.298V334.307C286.881 334.781 287.06 335.177 287.417 335.493C287.78 335.804 288.369 336.044 289.184 336.214L290.572 336.521C291.457 336.709 292.175 336.958 292.726 337.269C293.276 337.579 293.678 337.963 293.93 338.42C294.188 338.871 294.316 339.413 294.316 340.046V340.055C294.316 340.857 294.117 341.555 293.719 342.146C293.326 342.732 292.767 343.187 292.04 343.509C291.319 343.831 290.464 343.992 289.474 343.992Z" fill="black"/>
<path d="M206.3 334.608C206.3 336.844 204.489 338.655 202.255 338.655C200.021 338.655 198.209 336.844 198.209 334.608C198.209 332.372 200.021 330.561 202.255 330.561C204.489 330.561 206.3 332.372 206.3 334.608Z" fill="#C4147D" stroke="#D62687" stroke-width="3"/>
<defs>
<linearGradient id="paint0_linear_1185_5552" x1="408" y1="130.712" x2="-0.00230783" y2="129.46" gradientUnits="userSpaceOnUse">
<stop stop-opacity="0"/>
<stop offset="0.114873" stop-opacity="0.532418"/>
<stop offset="0.264833" stop-opacity="0.6"/>
<stop offset="0.487901" stop-opacity="0.53"/>
<stop offset="0.831232" stop-opacity="0.38"/>
<stop offset="1" stop-opacity="0"/>
</linearGradient>
<linearGradient id="paint1_linear_1185_5552" x1="408" y1="42.8824" x2="-0.00230783" y2="41.6304" gradientUnits="userSpaceOnUse">
<stop stop-opacity="0"/>
<stop offset="0.114873" stop-opacity="0.532418"/>
<stop offset="0.205612" stop-opacity="0.6"/>
<stop offset="0.301292" stop-opacity="0"/>
</linearGradient>
<linearGradient id="paint2_linear_1185_5552" x1="408" y1="218.542" x2="-0.00230783" y2="217.29" gradientUnits="userSpaceOnUse">
<stop stop-opacity="0"/>
<stop offset="0.114873" stop-opacity="0.532418"/>
<stop offset="0.264833" stop-opacity="0.6"/>
<stop offset="0.487901" stop-opacity="0.53"/>
<stop offset="0.831232" stop-opacity="0.38"/>
<stop offset="1" stop-opacity="0"/>
</linearGradient>
<linearGradient id="paint3_linear_1185_5552" x1="408" y1="306.372" x2="-0.00230783" y2="305.12" gradientUnits="userSpaceOnUse">
<stop stop-opacity="0"/>
<stop offset="0.114873" stop-opacity="0.532418"/>
<stop offset="0.264833" stop-opacity="0.6"/>
<stop offset="0.487901" stop-opacity="0.53"/>
<stop offset="0.831232" stop-opacity="0.38"/>
<stop offset="1" stop-opacity="0"/>
</linearGradient>
</defs>
</svg>
