<svg width="136" height="136" viewBox="0 0 136 136" fill="none" xmlns="http://www.w3.org/2000/svg">
<rect x="0.578125" y="0.856445" width="133.954" height="133.954" rx="15.5" fill="white"/>
<rect x="0.578125" y="0.856445" width="133.954" height="133.954" rx="15.5" fill="#F5F7FB"/>
<rect x="0.578125" y="0.856445" width="133.954" height="133.954" rx="15.5" stroke="#DBE2F0"/>
<g clip-path="url(#clip0_1185_4874)">
<path fill-rule="evenodd" clip-rule="evenodd" d="M28.7344 46.8916L48.4529 30.6115V106.309L28.7344 90.2165V46.8916Z" fill="url(#paint0_linear_1185_4874)"/>
<path fill-rule="evenodd" clip-rule="evenodd" d="M104.925 47.0453L84.9369 30.6202L85.342 106.309L105.061 90.2165L104.925 47.0453Z" fill="url(#paint1_linear_1185_4874)"/>
<path fill-rule="evenodd" clip-rule="evenodd" d="M48.439 30.6244L99.705 94.5976L85.3593 106.329L34.0664 42.4971L48.439 30.6244Z" fill="url(#paint2_linear_1185_4874)"/>
<path fill-rule="evenodd" clip-rule="evenodd" d="M48.4575 60.2969L48.4302 62.8166L32.6016 43.7069L34.0672 42.486L48.4575 60.2969Z" fill="black" fill-opacity="0.13"/>
</g>
<defs>
<linearGradient id="paint0_linear_1185_4874" x1="1014.66" y1="30.6115" x2="1014.66" y2="7600.33" gradientUnits="userSpaceOnUse">
<stop stop-color="#16B0ED" stop-opacity="0.800236"/>
<stop offset="1" stop-color="#0F59B2" stop-opacity="0.837"/>
</linearGradient>
<linearGradient id="paint1_linear_1185_4874" x1="-901.123" y1="30.6202" x2="-901.123" y2="7599.46" gradientUnits="userSpaceOnUse">
<stop stop-color="#7DB643"/>
<stop offset="1" stop-color="#367533"/>
</linearGradient>
<linearGradient id="paint2_linear_1185_4874" x1="3316" y1="30.6244" x2="3316" y2="7601.05" gradientUnits="userSpaceOnUse">
<stop stop-color="#88C649" stop-opacity="0.8"/>
<stop offset="1" stop-color="#439240" stop-opacity="0.84"/>
</linearGradient>
<clipPath id="clip0_1185_4874">
<rect x="28.7227" y="30.3164" width="76.3496" height="76.3496" rx="15" fill="white"/>
</clipPath>
</defs>
</svg>
