<svg width="188" height="50" viewBox="0 0 188 50" fill="none" xmlns="http://www.w3.org/2000/svg">
<g id="Vector">
<path d="M31.9446 43.0325C31.9528 46.7257 28.9126 49.7778 25.1381 49.6455C21.7821 49.5297 18.7748 46.7712 18.8158 42.9332C18.8568 39.3352 21.7493 36.3698 25.4704 36.4153C29.126 36.4608 31.9446 39.4427 31.9446 43.0325Z" fill="white" fill-opacity="0.8"/>
<path d="M25.3966 18.669C28.9003 18.6193 31.9528 21.5474 31.9446 25.2903C31.9364 28.9049 29.0562 31.9446 25.294 31.8991C21.6877 31.8578 18.7912 28.9132 18.8158 25.2241C18.8445 21.411 21.9667 18.5987 25.3966 18.6648V18.669Z" fill="white" fill-opacity="0.8"/>
<path d="M13.1294 43.0159C13.1909 46.6099 10.2041 49.7241 6.42551 49.6455C2.92997 49.5711 -0.0240058 46.6885 0.000610693 42.9746C0.0252271 39.3931 2.91356 36.3698 6.64295 36.4153C10.4134 36.4567 13.1786 39.5874 13.1253 43.0159H13.1294Z" fill="white" fill-opacity="0.8"/>
<path d="M25.3433 14.1445C21.7657 14.1445 18.7378 11.1916 18.8158 7.38673C18.8896 3.83415 21.6959 0.897788 25.4007 0.910195C29.1834 0.922603 31.9528 3.99958 31.9446 7.54389C31.9323 11.2247 29.0029 14.1528 25.3433 14.1445Z" fill="white" fill-opacity="0.8"/>
<path d="M13.1294 25.2779C13.1868 28.7394 10.397 31.8495 6.66347 31.895C2.88484 31.9446 -0.0486222 28.8677 0.000610693 25.1869C0.0498436 21.4813 3.1269 18.6028 6.68398 18.6648C10.1795 18.7269 13.1745 21.6508 13.1253 25.2779H13.1294Z" fill="white" fill-opacity="0.8"/>
<path d="M6.55699 14.1445C2.9835 14.1528 0.0623474 11.2454 0.00901174 7.63487C-0.0484267 4.00785 2.80298 0.910195 6.5693 0.910195C10.3807 0.910195 13.2445 4.0947 13.1296 7.7424C13.0229 11.175 10.2166 14.161 6.55289 14.1404L6.55699 14.1445Z" fill="white" fill-opacity="0.8"/>
<path d="M44.2118 18.669C47.6212 18.6193 50.7597 21.4275 50.7515 25.2944C50.7433 29.0248 47.7812 31.9074 44.1789 31.9033C40.5193 31.8991 37.6228 28.9338 37.6228 25.2779C37.6228 21.5102 40.7039 18.5987 44.2118 18.669Z" fill="white" fill-opacity="0.8"/>
<path d="M44.1995 14.1445C40.6178 14.1693 37.631 11.2454 37.6228 7.54802C37.6146 3.95408 40.429 0.910195 44.1913 0.910195C47.8632 0.910195 50.7515 3.83415 50.7515 7.52321C50.7515 11.3405 47.6909 14.161 44.1995 14.1445Z" fill="white" fill-opacity="0.8"/>
<path d="M37.6228 43.0201C37.631 39.3765 40.5439 36.3533 44.302 36.4153C47.855 36.4732 50.7474 39.3186 50.7515 43.0242C50.7556 46.858 47.6335 49.7696 43.9533 49.6414C40.5029 49.5214 37.631 46.6843 37.6228 43.0201Z" fill="white" fill-opacity="0.8"/>
<path d="M107.931 13.3753C111.346 13.3753 114.114 10.5849 114.114 7.14272C114.114 3.70059 111.346 0.910195 107.931 0.910195C104.517 0.910195 101.749 3.70059 101.749 7.14272C101.749 10.5849 104.517 13.3753 107.931 13.3753Z" fill="white" fill-opacity="0.8"/>
<path d="M118.151 44.8605V46.1963C118.151 46.3411 118.151 46.4817 118.164 46.6223C118.229 47.863 118.652 49.0293 119.768 49.3353C119.78 49.3353 119.797 49.3395 119.809 49.3395H126.029L129.873 49.3353H130.017C130.119 49.3353 130.185 49.2319 130.148 49.1368C129.971 48.6902 129.889 48.045 129.873 47.3047V46.552C129.873 46.0392 129.873 45.4643 129.873 44.9432V29.9016C129.873 28.9586 130.012 28.0364 130.226 27.5484L130.234 27.5277L130.242 27.5029C130.533 26.684 131.727 24.0082 134.895 24.0082C138.062 24.0082 139.506 26.2456 139.506 30.6584C139.506 30.6584 139.498 42.4204 139.494 45.4891C139.494 45.8861 139.494 46.1426 139.494 46.2005L139.506 46.6678C139.58 47.892 140.007 49.0293 141.106 49.3353C141.119 49.3353 141.135 49.3395 141.147 49.3395H151.363C151.466 49.3395 151.531 49.2361 151.494 49.141C151.322 48.7108 151.24 48.0988 151.22 47.3874V29.3474C151.22 19.8601 146.497 14.1983 138.587 14.1983C133.98 14.1983 130.521 16.3943 128.535 18.7558C128.035 16.7128 126.644 15.3356 124.703 14.9675C122.41 14.5333 117.967 14.9675 117.967 14.9675L117.606 15.013C117.511 15.0254 117.429 15.0916 117.45 15.1784C118.024 17.4283 118.156 22.2174 118.156 26.7419C118.156 26.7419 118.151 40.0548 118.156 44.8605H118.151Z" fill="white" fill-opacity="0.8"/>
<path d="M102.085 15.4762C102.085 15.4762 102.077 42.4163 102.073 45.4891C102.073 45.8861 102.073 46.1426 102.073 46.2005L102.085 46.6678C102.159 47.892 102.586 49.0293 103.685 49.3353C103.697 49.3353 103.714 49.3395 103.726 49.3395H113.942C114.045 49.3395 114.11 49.2361 114.073 49.141C113.901 48.7108 113.819 48.0988 113.798 47.3874V15.4762H102.081H102.085Z" fill="white" fill-opacity="0.8"/>
<path d="M177.194 27.933H163.922C164.024 27.6476 164.151 27.3333 164.303 26.9942C164.566 26.411 164.972 25.8403 165.509 25.2985C166.043 24.7609 166.736 24.3018 167.565 23.942C168.385 23.5822 169.395 23.4002 170.56 23.4002C171.725 23.4002 172.73 23.5822 173.555 23.9462C174.384 24.3101 175.073 24.765 175.606 25.3027C176.144 25.8444 176.55 26.4152 176.812 26.9983C176.964 27.3374 177.091 27.6518 177.194 27.9371M187.997 32.4905C187.997 32.2589 187.997 32.0273 187.997 31.7957C187.997 30.3813 187.759 28.8801 187.746 28.8139V28.7932C187.525 27.5939 187.192 26.4193 186.749 25.3027C185.879 23.0818 184.649 21.1215 183.094 19.4713C181.539 17.8253 179.664 16.5143 177.514 15.5713C175.36 14.6284 173.001 14.1486 170.498 14.1486C167.996 14.1486 165.637 14.6573 163.499 15.6623C161.374 16.6631 159.511 18.0031 157.96 19.645C156.409 21.291 155.187 23.2183 154.333 25.3854C153.948 26.3573 153.706 27.1472 153.492 28.1067C153.484 28.1274 153.48 28.1563 153.472 28.1894V28.2018C153.353 28.6071 152.725 31.1051 153.296 35.1291L153.271 35.1415L153.427 35.8901C153.661 37.0192 154.009 38.111 154.457 39.1325C155.392 41.2748 156.68 43.1772 158.289 44.7778C159.901 46.3824 161.784 47.6521 163.893 48.5537C166.002 49.4553 168.283 49.9143 170.671 49.9143C173.961 49.9143 176.977 49.0169 179.639 47.2509C179.816 47.1351 179.992 47.0111 180.16 46.8911C180.915 46.3659 181.65 45.7621 182.343 45.0962C182.921 44.5379 183.475 43.9341 183.992 43.3013C185.018 42.0358 185.916 40.5635 186.659 38.9299L187.258 37.6147H182.031C181.19 37.6147 178.655 37.6147 178.265 37.6147C176.611 37.6147 175.971 38.0903 175.364 38.6693L175.262 38.7686C175.241 38.7892 175.212 38.8182 175.184 38.8471L175.126 38.905C174.695 39.3434 174.482 39.5171 173.94 39.8728C173.136 40.4022 172.037 40.6669 170.675 40.6669C168.894 40.6669 167.323 40.1582 166.006 39.1573C164.853 38.2806 164.09 37.0688 163.733 35.5427H187.902L187.96 34.6701C188.009 33.9339 188.001 33.1978 187.997 32.4864" fill="white" fill-opacity="0.8"/>
<path d="M56.3723 49.3395V1.13352H63.2936C65.8086 1.13352 68.1677 2.34115 69.6529 4.38833L86.0516 27.0024V1.13352H97.7444V49.3395H91.7585C89.2599 49.3395 86.909 48.1442 85.4238 46.1177L68.0651 22.4366V49.3395H56.3723Z" fill="white" fill-opacity="0.8"/>
</g>
</svg>
