<svg width="181" height="23" viewBox="0 0 181 23" fill="none" xmlns="http://www.w3.org/2000/svg">
<g id="Vector">
<path d="M177.368 22.1833C177.331 21.3428 177.34 20.5023 177.368 19.6619C177.368 19.4938 177.528 19.3257 177.613 19.1623C177.782 19.251 178.003 19.3023 178.106 19.4424C178.444 19.9093 178.74 20.3763 179.092 20.9412C179.426 20.4276 179.736 19.9747 180.032 19.5124C180.328 19.0502 180.554 19.0082 180.901 19.3957V22.4774L180.384 22.6875C180.31 22.5284 180.257 22.3605 180.225 22.1879C180.233 21.6509 180.188 21.1143 180.088 20.5864C179.938 20.7918 179.788 20.9973 179.642 21.2074C179.172 21.9264 179.036 21.9218 178.533 21.2074C178.397 20.9845 178.21 20.7959 177.988 20.6564C177.988 21.1747 178.012 21.6977 177.988 22.2159C177.988 22.3934 177.81 22.5661 177.716 22.7389C177.575 22.5381 177.373 22.3887 177.368 22.1833Z" fill="#174489"/>
<path d="M174.192 19.7506C174.051 19.7179 173.939 19.5591 173.816 19.4564C173.929 19.363 174.042 19.1903 174.159 19.1856C174.897 19.1856 175.639 19.1576 176.382 19.1856C176.494 19.1856 176.602 19.4004 176.711 19.5171C176.593 19.6012 176.485 19.7319 176.358 19.7553C176.097 19.7739 175.835 19.7739 175.574 19.7553V22.0152C175.574 22.2486 175.39 22.6735 175.292 22.6735C174.822 22.6735 174.963 22.258 174.953 21.9825V19.7553C174.701 19.7833 174.445 19.7833 174.192 19.7553V19.7506Z" fill="#174489"/>
<path d="M162.597 9.94982C161.636 9.10936 160.67 8.27512 159.699 7.44711C159.562 7.36888 159.462 7.23995 159.42 7.08855C159.379 6.93715 159.4 6.77561 159.478 6.63933C159.531 6.54865 159.607 6.47311 159.699 6.41987C161.63 4.74828 163.556 3.07202 165.501 1.4191C165.737 1.23006 166.029 1.12198 166.332 1.11093C168.254 1.11093 170.175 1.11093 172.097 1.11093C172.468 1.11093 172.816 1.11093 172.882 1.69926C172.799 1.85382 172.697 1.99672 172.576 2.12416C169.563 4.73894 166.545 7.35528 163.523 9.97317C163.41 10.0919 163.254 10.1614 163.089 10.1667C162.925 10.1719 162.765 10.1124 162.644 10.0012L162.597 9.94982Z" fill="#174489"/>
<path d="M169.175 22.7249C168.474 22.6875 167.771 22.6875 167.07 22.7249C166.673 22.764 166.273 22.712 165.9 22.5727C165.527 22.4334 165.191 22.2107 164.918 21.9218C163.241 20.3996 161.507 18.9428 159.797 17.458C159.252 16.9911 159.257 16.7436 159.797 16.272C160.699 15.4876 161.611 14.7218 162.499 13.9374C162.56 13.8633 162.635 13.8021 162.721 13.757C162.806 13.712 162.899 13.6842 162.995 13.6751C163.091 13.666 163.188 13.6758 163.28 13.704C163.372 13.7321 163.458 13.7781 163.532 13.8393C163.569 13.8684 163.602 13.9013 163.631 13.9374C166.581 16.5055 169.551 19.0735 172.492 21.6323C172.684 21.7957 172.717 22.1412 172.825 22.398C172.597 22.5338 172.348 22.6316 172.088 22.6875C171.12 22.7436 170.147 22.7249 169.175 22.7249Z" fill="#174489"/>
<path d="M149.1 1.37708C152.943 4.68291 156.78 7.99496 160.61 11.3132C161.122 11.7802 161.127 12.023 160.61 12.4619C156.761 15.7957 152.91 19.1233 149.057 22.4447C148.851 22.6018 148.599 22.6885 148.339 22.6922C147.347 22.7202 146.356 22.6922 145.365 22.6922H142.513C142.252 22.6365 142.003 22.537 141.775 22.398C141.883 22.1366 141.926 21.8004 142.118 21.6323C144.81 19.2696 147.526 16.9304 150.237 14.5817C151.035 13.8953 151.829 13.2136 152.623 12.5226C153.272 11.9576 153.272 11.8315 152.623 11.2852L142.156 2.22688C141.948 2.06933 141.8 1.84753 141.733 1.59654C141.691 1.21833 141.996 1.08292 142.348 1.08292H148.423C148.676 1.102 148.914 1.20571 149.1 1.37708Z" fill="#A8CB3B"/>
<path d="M135.132 22.7296C134.629 22.7296 134.409 22.5194 134.395 22.0432V2.26891C134.395 1.14829 134.493 1.0549 135.635 1.0549H139.027C139.826 1.0549 139.966 1.20432 139.966 1.98875V21.8284C139.966 22.6689 139.924 22.7156 139.107 22.7202C137.758 22.7202 136.438 22.7202 135.113 22.7202L135.132 22.7296Z" fill="#174489"/>
<path d="M132.656 20.2082C132.553 22.2533 131.482 23.1358 129.452 22.8276C128.508 22.6927 127.624 22.2852 126.91 21.6556C122.272 17.6307 117.628 13.6152 112.98 9.60897C112.772 9.46234 112.55 9.3357 112.318 9.23076C112.228 9.48769 112.168 9.75402 112.14 10.0245V21.4222C112.14 22.5288 111.947 22.7249 110.852 22.7249H107.615C106.864 22.7249 106.586 22.4681 106.586 21.7444V3.7584C106.586 2.21288 107.117 1.45179 108.466 0.914825H109.584C111.341 1.1763 112.529 2.35762 113.784 3.44556C117.918 7.04088 122.064 10.6206 126.22 14.1848C126.445 14.33 126.688 14.4447 126.943 14.5257C127.033 14.2864 127.093 14.0371 127.122 13.7833V2.31093C127.122 1.27436 127.319 1.07358 128.339 1.06891C129.358 1.06424 130.49 1.06891 131.562 1.06891C132.398 1.06891 132.656 1.36774 132.656 2.14284V20.2082Z" fill="#174489"/>
<path d="M104.496 21.6089C100.267 15.5109 96.0015 9.42687 91.7872 3.31482C90.9792 2.14751 90.1241 1.13428 88.6254 0.910156H88.2542C87.7271 0.992985 87.2221 1.18035 86.7693 1.4611C86.3166 1.74186 85.9252 2.11026 85.6186 2.54439C81.2024 8.9257 76.7752 15.2899 72.337 21.637C72.2533 21.7533 72.194 21.8852 72.1626 22.0247C72.1311 22.1643 72.1281 22.3087 72.1538 22.4494C72.2055 22.6082 72.6236 22.7062 72.8773 22.7109C74.3243 22.7342 75.7713 22.7109 77.2184 22.7342C77.4114 22.7483 77.6045 22.7075 77.775 22.6165C77.9456 22.5256 78.0866 22.3883 78.1815 22.2206C79.2339 20.6751 80.3191 19.1529 81.3762 17.6074C81.4624 17.4585 81.5883 17.3361 81.74 17.2537C81.8917 17.1714 82.0633 17.1322 82.2359 17.1405H94.5779C94.7629 17.1224 94.9492 17.1567 95.1155 17.2393C95.2817 17.3219 95.4211 17.4495 95.5175 17.6074C96.5793 19.1638 97.6615 20.7202 98.764 22.2766C98.9214 22.5 99.1611 22.6526 99.4311 22.7015C101.025 22.7358 102.616 22.7358 104.204 22.7015C104.325 22.6881 104.44 22.6453 104.54 22.5768C104.64 22.5084 104.722 22.4165 104.778 22.3093C104.772 22.0497 104.672 21.8008 104.496 21.6089ZM91.0214 12.3031H85.9381C85.3038 12.3031 85.1958 12.121 85.5387 11.6261C86.3703 10.4074 87.2254 9.20274 88.0663 7.98874C88.3153 7.62454 88.5361 7.65255 88.7663 7.98874C89.6167 9.22142 90.4859 10.4448 91.3268 11.6774C91.6134 12.1444 91.5194 12.2891 91.0073 12.3031H91.0214Z" fill="#174489"/>
<path d="M78.2097 1.09226C79.2667 1.09226 79.4688 1.2977 79.4688 2.36229V4.82766C79.4688 5.64945 79.1869 5.93894 78.3553 5.93894H71.3081C70.3685 5.93894 70.3121 5.9903 70.3121 6.90547V21.5622C70.3121 22.4961 70.0866 22.7156 69.147 22.7202H65.9241C65.0314 22.7202 64.7918 22.4868 64.7918 21.5809V6.98018C64.7918 5.97629 64.7448 5.93427 63.7535 5.93427H56.7768C55.8372 5.93427 55.5835 5.67279 55.5788 4.77163C55.5741 3.87046 55.5788 3.04867 55.5788 2.18486C55.5788 1.32105 55.8701 1.09226 56.7063 1.09226H78.2097Z" fill="#174489"/>
<path d="M34.4654 17.3412C35.3428 17.6361 36.2562 17.812 37.181 17.8642C39.9059 17.9062 42.6308 17.8642 45.3557 17.7848C45.9318 17.7466 46.4988 17.6223 47.0376 17.416C47.9772 17.0844 48.2967 16.5988 48.2967 15.6043V2.42766C48.2967 1.25101 48.4611 1.09226 49.6686 1.09226H52.7082C53.5633 1.09226 53.8358 1.34907 53.8358 2.18019V16.286C53.8358 19.4938 51.7733 21.7537 48.3578 22.3233C47.1178 22.5518 45.8603 22.6736 44.5993 22.6875C41.1133 22.6875 37.6273 22.6082 34.1413 22.4494C32.3391 22.3982 30.6289 21.6473 29.3774 20.3576C28.8796 19.8625 28.487 19.2729 28.2231 18.624C27.9592 17.9751 27.8293 17.28 27.8411 16.5802V2.16618C27.8411 1.33506 28.0713 1.09693 28.8982 1.09226H32.2432C33.0842 1.09226 33.3614 1.34907 33.3708 2.1942V15.6837C33.3229 16.0445 33.4071 16.4104 33.6081 16.7147C33.809 17.019 34.1133 17.2413 34.4654 17.3412Z" fill="#174489"/>
<path d="M26.0652 2.10548V20.2782C25.8726 22.4261 24.7403 23.2478 22.6121 22.7856C21.7411 22.5983 20.9326 22.1933 20.263 21.6089C15.7246 17.665 11.1831 13.7226 6.63845 9.78173C6.5501 9.69458 6.45592 9.61346 6.35656 9.53893C6.14984 9.4222 5.93843 9.32415 5.72701 9.21675C5.64285 9.43305 5.58604 9.65891 5.55788 9.88912V21.4689C5.55788 22.4821 5.33707 22.7109 4.33637 22.7109C3.33567 22.7109 2.26919 22.6829 1.2403 22.7109C1.00873 22.74 0.773504 22.7103 0.556608 22.6245C0.339711 22.5388 0.148214 22.3998 0 22.2206V3.12805C0.291284 2.11949 0.728209 1.22767 1.87925 0.910156H2.93633C4.67933 1.14362 5.86796 2.31093 7.10826 3.37552C11.2865 7.02376 15.4819 10.6502 19.6945 14.2549C19.8937 14.3807 20.1065 14.4841 20.3288 14.563C20.4281 14.3331 20.4976 14.0914 20.5355 13.844V2.31093C20.5355 1.2977 20.7516 1.08759 21.7711 1.08292H25.0598C25.8021 1.10626 26.0605 1.37708 26.0652 2.10548Z" fill="#174489"/>
</g>
</svg>
