<svg width="72" height="72" viewBox="0 0 72 72" fill="none" xmlns="http://www.w3.org/2000/svg">
<g id="Open AI logo" clip-path="url(#clip0_1185_4924)">
<path id="Vector" d="M66.3094 29.4755C67.917 24.6142 67.3634 19.2889 64.7925 14.8671C60.9263 8.085 53.154 4.59578 45.5633 6.23776C42.1864 2.40497 37.3348 0.225323 32.2485 0.256557C24.4894 0.238709 17.6051 5.27176 15.218 12.7098C10.2336 13.7383 5.93111 16.8817 3.41341 21.3369C-0.481606 28.1012 0.406342 36.6279 5.61003 42.4284C4.00242 47.2897 4.556 52.615 7.12685 57.0368C10.9931 63.8189 18.7654 67.3081 26.3561 65.6661C29.7308 69.4989 34.5846 71.6786 39.6709 71.6451C47.4344 71.6652 54.321 66.6277 56.708 59.183C61.6925 58.1545 65.9949 55.0111 68.5126 50.5558C72.4032 43.7915 71.5131 35.2715 66.3116 29.471L66.3094 29.4755ZM39.6754 66.9802C36.5686 66.9846 33.5594 65.8892 31.1745 63.8836C31.283 63.8256 31.4712 63.7207 31.593 63.6449L45.7028 55.4349C46.4246 55.0222 46.8675 54.2481 46.8631 53.4114V33.3707L52.8263 36.8399C52.8905 36.8711 52.9326 36.9336 52.9414 37.005V53.6011C52.9326 60.9811 47.0004 66.9645 39.6754 66.9802ZM11.1459 54.7032C9.58919 51.9948 9.02896 48.8201 9.56261 45.7392C9.66669 45.8016 9.85048 45.9154 9.98112 45.9913L24.0909 54.2012C24.8061 54.6229 25.6918 54.6229 26.4093 54.2012L43.6346 44.1797V51.118C43.639 51.1894 43.6058 51.2586 43.5504 51.3032L29.2879 59.6001C22.935 63.2857 14.8217 61.0949 11.1481 54.7032H11.1459ZM7.43243 23.6727C8.98246 20.9599 11.4293 18.8851 14.3434 17.8075C14.3434 17.9302 14.3367 18.1466 14.3367 18.2983V34.7205C14.3323 35.5548 14.7752 36.329 15.4948 36.7417L32.7201 46.761L26.7569 50.2301C26.6971 50.2703 26.6218 50.277 26.5554 50.2479L12.2907 41.9443C5.95104 38.2454 3.77656 30.0734 7.43021 23.675L7.43243 23.6727ZM56.4268 35.16L39.2015 25.1385L45.1647 21.6716C45.2245 21.6314 45.2998 21.6247 45.3662 21.6537L59.6309 29.9507C65.9816 33.6474 68.1583 41.8328 64.4892 48.2312C62.9369 50.9395 60.4923 53.0143 57.5805 54.0941V37.1812C57.5871 36.3468 57.1465 35.5749 56.429 35.16H56.4268ZM62.3612 26.1603C62.2571 26.0956 62.0733 25.984 61.9427 25.9082L47.833 17.6982C47.1177 17.2766 46.232 17.2766 45.5145 17.6982L28.2892 27.7197V20.7814C28.2848 20.71 28.318 20.6409 28.3734 20.5962L42.6359 12.306C48.9888 8.61374 57.111 10.8112 60.7735 17.2141C62.3214 19.918 62.8816 23.0838 62.3568 26.1603H62.3612ZM25.0475 38.5265L19.082 35.0573C19.0178 35.0261 18.9758 34.9636 18.9669 34.8922V18.2961C18.9713 10.9072 24.9212 4.91927 32.2551 4.92373C35.3574 4.92373 38.36 6.02136 40.7449 8.0203C40.6364 8.07831 40.4504 8.18316 40.3264 8.25902L26.2166 16.469C25.4948 16.8817 25.0519 17.6536 25.0563 18.4902L25.0475 38.522V38.5265ZM28.287 31.49L35.9597 27.0259L43.6324 31.4878V40.4139L35.9597 44.8758L28.287 40.4139V31.49Z" fill="black"/>
</g>
<defs>
<clipPath id="clip0_1185_4924">
<rect width="71.3911" height="71.3911" fill="white" transform="translate(0.53125 0.256592)"/>
</clipPath>
</defs>
</svg>
