<svg width="131" height="131" viewBox="0 0 131 131" fill="none" xmlns="http://www.w3.org/2000/svg">
<rect x="1.0625" y="1.41016" width="128.562" height="128.562" rx="14.5" fill="#F5F7FB" stroke="#DBE2F0"/>
<g clip-path="url(#clip0_1185_4922)">
<path d="M95.3094 58.4755C96.917 53.6142 96.3634 48.2889 93.7925 43.8671C89.9263 37.085 82.154 33.5958 74.5633 35.2378C71.1864 31.405 66.3348 29.2253 61.2485 29.2566C53.4894 29.2387 46.6051 34.2718 44.218 41.7098C39.2336 42.7383 34.9311 45.8817 32.4134 50.3369C28.5184 57.1012 29.4063 65.6279 34.61 71.4284C33.0024 76.2897 33.556 81.615 36.1268 86.0368C39.9931 92.8189 47.7654 96.3081 55.3561 94.6661C58.7308 98.4989 63.5846 100.679 68.6709 100.645C76.4344 100.665 83.321 95.6277 85.708 88.183C90.6925 87.1545 94.9949 84.0111 97.5126 79.5558C101.403 72.7915 100.513 64.2715 95.3116 58.471L95.3094 58.4755ZM68.6754 95.9802C65.5686 95.9846 62.5594 94.8892 60.1745 92.8836C60.283 92.8256 60.4712 92.7207 60.593 92.6449L74.7028 84.4349C75.4246 84.0222 75.8675 83.2481 75.8631 82.4114V62.3707L81.8263 65.8399C81.8905 65.8711 81.9326 65.9336 81.9414 66.005V82.6011C81.9326 89.9811 76.0004 95.9645 68.6754 95.9802ZM40.1459 83.7032C38.5892 80.9948 38.029 77.8201 38.5626 74.7392C38.6667 74.8016 38.8505 74.9154 38.9811 74.9913L53.0909 83.2012C53.8061 83.6229 54.6918 83.6229 55.4093 83.2012L72.6346 73.1797V80.118C72.639 80.1894 72.6058 80.2586 72.5504 80.3032L58.2879 88.6001C51.935 92.2857 43.8217 90.0949 40.1481 83.7032H40.1459ZM36.4324 52.6727C37.9825 49.9599 40.4293 47.8851 43.3434 46.8075C43.3434 46.9302 43.3367 47.1466 43.3367 47.2983V63.7205C43.3323 64.5548 43.7752 65.329 44.4948 65.7417L61.7201 75.761L55.7569 79.2301C55.6971 79.2703 55.6218 79.277 55.5554 79.2479L41.2907 70.9443C34.951 67.2454 32.7766 59.0734 36.4302 52.675L36.4324 52.6727ZM85.4268 64.16L68.2015 54.1385L74.1647 50.6716C74.2245 50.6314 74.2998 50.6247 74.3662 50.6537L88.6309 58.9507C94.9816 62.6474 97.1583 70.8328 93.4892 77.2312C91.9369 79.9395 89.4923 82.0143 86.5805 83.0941V66.1812C86.5871 65.3468 86.1465 64.5749 85.429 64.16H85.4268ZM91.3612 55.1603C91.2571 55.0956 91.0733 54.984 90.9427 54.9082L76.833 46.6982C76.1177 46.2766 75.232 46.2766 74.5145 46.6982L57.2892 56.7197V49.7814C57.2848 49.71 57.318 49.6409 57.3734 49.5962L71.6359 41.306C77.9888 37.6137 86.111 39.8112 89.7735 46.2141C91.3214 48.918 91.8816 52.0838 91.3568 55.1603H91.3612ZM54.0475 67.5265L48.082 64.0573C48.0178 64.0261 47.9758 63.9636 47.9669 63.8922V47.2961C47.9713 39.9072 53.9212 33.9193 61.2551 33.9237C64.3574 33.9237 67.36 35.0214 69.7449 37.0203C69.6364 37.0783 69.4504 37.1832 69.3264 37.259L55.2166 45.469C54.4948 45.8817 54.0519 46.6536 54.0563 47.4902L54.0475 67.522V67.5265ZM57.287 60.49L64.9597 56.0259L72.6324 60.4878V69.4139L64.9597 73.8758L57.287 69.4139V60.49Z" fill="black"/>
</g>
<defs>
<clipPath id="clip0_1185_4922">
<rect width="71.3911" height="71.3911" fill="white" transform="translate(29.5312 29.2566)"/>
</clipPath>
</defs>
</svg>
