<svg width="133" height="134" viewBox="0 0 133 134" fill="none" xmlns="http://www.w3.org/2000/svg">
<rect x="0.505859" y="0.744263" width="131.954" height="131.954" rx="14.5" fill="white"/>
<rect x="0.505859" y="0.744263" width="131.954" height="131.954" rx="14.5" fill="#F5F7FB"/>
<rect x="0.505859" y="0.744263" width="131.954" height="131.954" rx="14.5" stroke="#DBE2F0"/>
<g clip-path="url(#clip0_1185_4864)">
<path d="M39.5506 57.056C40.0723 55.704 40.6704 54.4028 41.3734 53.1781C40.6958 52.5545 39.0034 51.228 39.1084 51.123C47.9331 40.5549 59.4397 37.38 69.6164 39.2252C71.7001 39.5115 73.7838 40.0077 75.8389 40.7617C90.4185 46.1762 97.7831 62.235 92.3177 76.6588C91.7717 78.0692 91.1187 79.4358 90.3644 80.7466C91.1725 81.4465 92.9412 82.7508 92.8394 82.8558C83.0508 94.4387 70.0077 97.1205 59.1533 93.8947C58.0982 93.6298 57.0558 93.3167 56.0294 92.9562C41.4784 87.5418 34.0852 71.4797 39.5506 57.056ZM89.2733 32.3282C87.425 34.097 85.2108 36.2316 84.1197 37.1955C82.3595 36.1995 80.5223 35.3463 78.6257 34.6442C62.0674 28.5012 44.6278 35.4522 35.0205 48.3871C29.9973 55.8121 27.0292 64.9486 27.7577 74.346C27.7577 74.346 27.7864 92.0209 44.1093 102.436C45.4359 100.61 47.1251 98.2689 48.2449 96.7578C50.0942 97.8252 52.0273 98.7402 54.0252 99.4937C72.769 106.441 93.5425 97.5658 100.334 79.6809C100.334 79.6809 105.307 68.7757 103.668 56.8524C103.668 56.8524 102.393 40.7649 89.2733 32.3314V32.3282Z" fill="#404040"/>
</g>
<defs>
<clipPath id="clip0_1185_4864">
<rect x="27.6504" y="29.2042" width="76.3496" height="76.3496" rx="15" fill="white"/>
</clipPath>
</defs>
</svg>
