<svg width="77" height="77" viewBox="0 0 77 77" fill="none" xmlns="http://www.w3.org/2000/svg">
<g clip-path="url(#clip0_1185_4866)">
<path d="M12.5506 28.056C13.0723 26.704 13.6704 25.4028 14.3734 24.1781C13.6958 23.5545 12.0034 22.228 12.1084 22.123C20.9331 11.5549 32.4397 8.38005 42.6164 10.2252C44.7001 10.5115 46.7838 11.0077 48.8389 11.7617C63.4185 17.1762 70.7831 33.235 65.3177 47.6588C64.7717 49.0692 64.1187 50.4358 63.3644 51.7466C64.1725 52.4465 65.9412 53.7508 65.8394 53.8558C56.0508 65.4387 43.0077 68.1205 32.1533 64.8947C31.0982 64.6298 30.0558 64.3167 29.0294 63.9562C14.4784 58.5418 7.08521 42.4797 12.5506 28.056ZM62.2733 3.32825C60.425 5.09701 58.2108 7.23162 57.1197 8.19554C55.3595 7.19953 53.5223 6.34634 51.6257 5.64419C35.0674 -0.498778 17.6278 6.45222 8.0205 19.3871C2.99733 26.8121 0.029236 35.9486 0.757739 45.346C0.757739 45.346 0.786369 63.0209 17.1093 73.4363C18.4359 71.6103 20.1251 69.2689 21.2449 67.7578C23.0942 68.8252 25.0273 69.7402 27.0252 70.4937C45.769 77.4415 66.5425 68.5658 73.3344 50.6809C73.3344 50.6809 78.3067 39.7757 76.6684 27.8524C76.6684 27.8524 75.3927 11.7649 62.2733 3.33143V3.32825Z" fill="#404040"/>
</g>
<defs>
<clipPath id="clip0_1185_4866">
<rect x="0.650391" y="0.204224" width="76.3496" height="76.3496" rx="15" fill="white"/>
</clipPath>
</defs>
</svg>
