<svg width="172" height="55" viewBox="0 0 172 55" fill="none" xmlns="http://www.w3.org/2000/svg">
<g clip-path="url(#clip0_1185_4567)">
<path d="M56.7495 34.0255C55.6972 34.0255 55.4634 33.2041 55.4634 31.9135V18.538C55.4634 13.9621 52.8913 11.2635 48.5653 11.2635C43.421 11.2635 41.0826 15.2527 41.0826 19.1246V19.2419H44.5901V19.1246C44.5901 17.8339 45.0579 16.5434 45.8762 15.4874C46.5778 14.7834 47.5131 14.4314 48.4483 14.4314C50.5529 14.4314 51.7221 16.0741 51.7221 18.7726V20.0632L47.63 22.0578C42.9533 24.2871 39.9134 26.047 39.9134 30.6228C39.9134 34.612 42.4857 37.428 46.2269 37.428C48.5653 37.3106 50.6699 36.2546 51.9559 34.3774C52.4236 36.2546 54.0604 37.428 55.931 37.428C56.6325 37.428 57.3341 37.3106 58.0356 36.9587H58.1524V33.6734L57.9186 33.7908C57.5678 33.9081 57.2171 34.0255 56.7495 34.0255ZM51.7221 23.3484V31.2095C50.7867 32.9695 49.0329 34.0255 47.0454 34.2601C45.2916 34.3774 43.7718 32.9695 43.6548 31.2095C43.6548 31.0923 43.6548 30.8575 43.6548 30.7402C43.6548 27.6896 46.3439 26.047 48.6822 24.8738L51.7221 23.3484Z" fill="black"/>
<path d="M72.2994 3.75461L72.1825 11.733H68.9088V15.1356H72.1825V31.5617C72.1825 35.1989 73.9362 37.3109 77.0929 37.3109C78.379 37.3109 79.6651 36.9588 80.8343 36.2549H80.9511V32.8523L80.7174 33.087C80.0158 33.6736 79.0805 34.143 78.1453 34.143C76.5083 34.143 76.1576 32.735 76.1576 31.5617V15.1356H81.5358V11.733H76.1576V3.75461H72.2994Z" fill="black"/>
<path d="M32.197 30.9751C30.7941 33.087 29.1571 34.143 27.6373 34.143C25.6496 34.143 24.8313 32.1484 24.8313 30.2712V11.7331H21.0899V30.5058C21.0899 34.847 23.0775 37.4283 26.4681 37.4283C28.8064 37.4283 30.9109 36.2549 32.197 34.3777L32.3139 36.959H35.9383V11.7331H32.197V30.9751Z" fill="black"/>
<path d="M12.9058 14.0794C11.9704 12.3194 10.0998 11.2635 7.99525 11.3808C5.77384 11.3808 3.78626 12.5541 2.50017 14.3141C0.863338 16.5432 0.0449219 19.9459 0.0449219 24.2871C0.0449219 33.9081 3.90317 37.3106 7.52758 37.3106C9.51516 37.3106 11.2689 36.4893 12.4381 34.964V54.91H16.1794V11.7328H12.9058V14.0794ZM12.555 17.482V31.2095C11.5027 33.0867 10.2167 34.0254 8.57984 34.0254C5.54 34.0254 3.90317 30.7402 3.90317 24.2871C3.90317 18.0686 5.65692 14.5488 8.69675 14.5488C10.4505 14.5488 11.9704 15.8393 12.555 17.482Z" fill="black"/>
<path d="M64.9337 0H61.1923V36.8414H64.9337V0Z" fill="black"/>
<path d="M102.815 11.7331H99.0733V36.8416H102.815V11.7331Z" fill="black"/>
<path d="M102.932 3.75461H99.1902V8.09581H102.932V3.75461Z" fill="black"/>
<path d="M88.7846 14.666L88.5507 11.7328H85.0432V36.9587H88.7846V18.7726C90.4214 15.3701 92.6428 14.9007 94.7473 14.9007L95.6827 15.0181V11.2635H94.6305C91.9413 11.2635 90.5384 12.0848 88.7846 14.666Z" fill="black"/>
<path d="M133.446 21.9405C131.109 20.7671 129.472 19.7113 129.472 17.5992C129.472 15.9567 130.758 14.5488 132.394 14.5488C132.512 14.5488 132.629 14.5488 132.745 14.5488C133.681 14.5488 134.616 14.9007 135.2 15.6046C136.019 16.5434 136.369 17.8339 136.136 19.1246V19.3592H139.643V19.2419C139.878 17.1299 139.176 15.0181 137.772 13.3755C136.487 12.0848 134.616 11.2635 132.862 11.3808C128.887 11.3808 125.964 14.0794 125.964 17.9513C125.964 22.1752 129.355 23.9351 131.693 25.2257C134.032 26.5163 136.369 27.807 136.369 30.3882C136.487 32.3828 134.849 34.1427 132.862 34.1427C132.745 34.1427 132.745 34.1427 132.629 34.1427C130.29 34.1427 128.536 32.1481 128.419 29.2149V29.0976H124.912V29.2149C125.029 34.26 127.952 37.428 132.629 37.428C136.487 37.6627 139.76 34.7294 139.994 30.9749C139.994 30.7402 139.994 30.3882 139.994 30.1535C139.878 25.3431 136.487 23.5831 133.446 21.9405Z" fill="black"/>
<path d="M118.832 28.9805C118.832 30.5058 118.365 31.9137 117.429 33.087C116.845 33.6737 116.026 34.0257 115.208 34.0257C112.285 34.0257 110.765 30.6231 110.765 24.2873C110.765 17.9515 112.285 14.4316 115.208 14.4316C116.026 14.4316 116.728 14.7837 117.312 15.253C118.131 16.309 118.598 17.7169 118.598 19.1248H122.106C122.223 16.8955 121.521 14.6663 120.001 13.0237C118.715 11.7331 117.078 11.1464 115.325 11.1464C109.946 11.1464 107.024 15.7223 107.024 24.1701C107.024 32.6177 109.83 37.1936 115.091 37.1936C119.3 37.1936 121.872 34.143 122.223 28.8632L118.832 28.9805Z" fill="black"/>
<path d="M145.138 34.847C145.255 34.7297 145.255 34.495 145.255 34.3777C145.255 34.143 145.138 33.9084 145.022 33.7911C144.787 33.6737 144.554 33.5564 144.321 33.5564H143.034V36.255H143.735V35.199H144.203L144.67 36.1376H145.373L144.787 35.0816C144.905 35.0816 145.022 34.9644 145.138 34.847ZM144.554 34.6123C144.437 34.6123 144.321 34.7297 144.203 34.7297H143.735V34.0257H144.203C144.321 34.0257 144.437 34.0257 144.554 34.143C144.67 34.2604 144.67 34.2604 144.67 34.3777C144.67 34.495 144.554 34.6123 144.554 34.6123Z" fill="black"/>
<path d="M146.308 33.9084C146.19 33.6737 146.074 33.3217 145.84 33.2044C145.606 32.9697 145.373 32.8523 145.138 32.7351C144.554 32.5004 143.853 32.5004 143.267 32.7351C143.034 32.8523 142.683 32.9697 142.566 33.2044C142.332 33.439 142.215 33.6737 142.099 33.9084C141.865 34.4949 141.865 35.199 142.099 35.903C142.215 36.1376 142.332 36.4895 142.566 36.6069C142.799 36.8416 143.034 36.9588 143.267 37.0762C143.853 37.3109 144.554 37.3109 145.138 37.0762C145.373 36.9588 145.723 36.8416 145.84 36.6069C146.074 36.3723 146.19 36.1376 146.308 35.903C146.541 35.199 146.541 34.4949 146.308 33.9084ZM145.84 35.6683C145.723 35.903 145.606 36.1376 145.489 36.2549C145.373 36.3723 145.138 36.6069 144.905 36.6069C144.437 36.8416 143.853 36.8416 143.385 36.6069C143.151 36.4895 142.917 36.3723 142.799 36.2549C142.683 36.0202 142.45 35.903 142.45 35.6683C142.215 35.199 142.215 34.6123 142.45 34.143C142.566 33.9084 142.683 33.6737 142.799 33.5563C142.917 33.439 143.151 33.2044 143.385 33.2044C143.853 32.9697 144.437 32.9697 144.905 33.2044C145.138 33.3217 145.373 33.439 145.489 33.5563C145.606 33.791 145.84 33.9084 145.84 34.143C146.074 34.6123 146.074 35.199 145.84 35.6683Z" fill="black"/>
<path d="M167.073 3.60779L163.799 15.1061L160.292 3.60779H152.576L150.003 8.30097L147.198 3.60779H143.339L147.899 10.9995L142.872 19.2126H146.496L149.653 13.8154L152.926 19.2126H158.772V8.41827C158.889 8.88759 158.889 9.23958 159.006 9.59156C159.123 9.94355 159.123 10.1782 159.24 10.5302C159.356 10.7649 159.356 11.1168 159.474 11.3515C159.591 11.5862 159.591 11.8208 159.707 12.1728L162.046 19.3299H165.086L167.424 12.1728C167.541 11.5862 167.774 10.9995 167.892 10.5302C168.009 9.94354 168.125 9.35689 168.242 8.77025V19.4473H171.516V3.84239L167.073 3.60779ZM151.757 10.9995L155.849 4.19443V17.5699L151.757 10.9995Z" fill="black"/>
</g>
<defs>
<clipPath id="clip0_1185_4567">
<rect width="171.471" height="54.91" fill="white" transform="translate(0.0449219)"/>
</clipPath>
</defs>
</svg>
