<svg width="169" height="49" viewBox="0 0 169 49" fill="none" xmlns="http://www.w3.org/2000/svg">
<g clip-path="url(#clip0_1185_4566)">
<path d="M49.6366 14.5861C40.7762 14.5861 33.5267 21.7729 33.5267 30.5567C33.5267 39.3406 40.7762 46.5274 49.6366 46.5274C58.497 46.5274 65.7464 39.3406 65.7464 30.5567C65.7464 21.7729 58.497 14.5861 49.6366 14.5861ZM57.4901 30.3571C57.4901 34.749 54.0668 38.3424 49.8379 38.3424C45.6091 38.3424 42.1858 34.749 42.1858 30.3571C42.1858 25.9652 45.6091 22.3718 49.8379 22.3718C54.0668 22.3718 57.4901 25.9652 57.4901 30.3571ZM106.021 15.185C105.82 14.9853 105.618 14.9853 105.417 14.9853H98.973C98.5702 14.9853 98.1675 15.3846 98.1675 15.7839V44.7307C98.1675 44.9303 98.1675 45.13 98.3688 45.3296C98.5702 45.5292 98.7716 45.5292 98.973 45.5292H105.417C105.82 45.5292 106.222 45.13 106.222 44.7307V15.7839C106.222 15.5842 106.222 15.3846 106.021 15.185ZM102.195 11.1923C104.611 11.1923 106.625 9.19598 106.625 6.80038C106.826 4.40478 104.611 2.40845 102.195 2.40845C99.7784 2.40845 97.7647 4.40478 97.7647 6.80038C97.7647 9.39561 99.7784 11.1923 102.195 11.1923ZM93.5359 3.00735H69.9752C69.5725 3.00735 69.1697 3.40661 69.1697 3.80588V44.7307C69.1697 44.9303 69.1697 45.13 69.3711 45.3296C69.5725 45.5292 69.7739 45.5292 69.9752 45.5292H76.4192C76.8219 45.5292 77.2247 45.13 77.2247 44.7307V28.1611H91.7235C91.9249 28.1611 92.1263 28.1611 92.3276 27.9615C92.529 27.7619 92.529 27.5622 92.529 27.3626V21.3736C92.529 20.9743 92.1263 20.5751 91.7235 20.5751H77.2247V10.5934H93.5359C93.7373 10.5934 93.9386 10.5934 94.14 10.3938C94.3414 10.1941 94.3414 9.99451 94.3414 9.79488V3.80588C94.3414 3.40661 93.9386 3.00735 93.5359 3.00735ZM18.4237 20.7747C11.9798 17.9798 9.96608 16.782 9.96608 14.3864C9.96608 11.1923 12.9867 10.1941 15.8059 10.1941C18.8265 10.1941 22.0485 11.7912 22.0485 16.1831C22.0485 16.5824 22.2498 16.782 22.6526 16.782H29.7006C29.902 16.5824 30.1034 16.3828 30.1034 16.1831C30.1034 8.19781 24.2636 2.40845 15.8059 2.40845C7.34823 2.40845 1.91116 7.19965 1.91116 14.3864C1.91116 22.9707 8.3551 25.5659 14.5977 27.9615L15.0004 28.1611C20.8402 30.3571 22.854 31.3553 22.854 34.1501C22.854 37.9432 18.8265 38.5421 16.6114 38.5421C12.3826 38.5421 9.16059 35.5476 9.16059 31.5549V31.1556C9.16059 30.7564 8.95922 30.5567 8.55647 30.5567H1.50842C1.30704 30.5567 0.904297 30.7564 0.904297 31.1556V31.7545C0.904297 40.5384 7.34823 46.5274 16.41 46.5274C25.0691 46.5274 30.9089 41.5366 30.9089 34.3498C31.1102 26.9633 27.2842 24.3681 18.4237 20.7747ZM168.044 44.3314C168.044 45.5292 167.238 46.3278 166.03 46.3278C164.822 46.3278 164.016 45.5292 164.016 44.3314C164.016 43.1336 164.822 42.3351 166.03 42.3351C167.238 42.3351 168.044 43.1336 168.044 44.3314ZM164.419 44.3314C164.419 45.3296 165.023 45.9285 166.03 45.9285C167.037 45.9285 167.641 45.3296 167.641 44.3314C167.641 43.3333 167.037 42.7344 166.03 42.7344C165.023 42.7344 164.419 43.3333 164.419 44.3314ZM166.836 43.9322C166.836 44.1318 166.634 44.3314 166.433 44.5311L166.836 45.3296H166.232L165.829 44.5311H165.627V45.3296H165.225V43.3333H166.03C166.433 43.3333 166.836 43.5329 166.836 43.9322ZM165.829 43.7325V44.3314H166.03C166.232 44.3314 166.433 44.1318 166.433 44.1318C166.433 43.9322 166.232 43.9322 166.03 43.9322H165.829V43.7325ZM157.572 4.20515C160.392 4.20515 162.607 6.40111 162.607 9.19598C162.607 11.9908 160.392 14.1868 157.572 14.1868C154.753 14.1868 152.538 11.9908 152.538 9.19598C152.538 6.40111 154.753 4.20515 157.572 4.20515ZM157.572 2.40845C153.746 2.40845 150.524 5.60258 150.524 9.39561C150.524 13.1886 153.746 16.3828 157.572 16.3828C161.399 16.3828 164.621 13.1886 164.621 9.39561C164.621 5.60258 161.399 2.40845 157.572 2.40845Z" fill="black"/>
<path d="M160.928 30.4889C164.348 28.6454 165.612 24.4027 163.753 21.0126C161.893 17.6226 157.613 16.3689 154.194 18.2125C150.774 20.056 149.509 24.2987 151.369 27.6888C153.229 31.0788 157.508 32.3325 160.928 30.4889Z" fill="black"/>
<path d="M160.918 45.4618C164.338 43.6183 165.602 39.3756 163.743 35.9855C161.883 32.5955 157.604 31.3418 154.184 33.1854C150.764 35.0289 149.5 39.2716 151.359 42.6617C153.219 46.0517 157.499 47.3054 160.918 45.4618Z" fill="black"/>
<path d="M142.47 19.3772C143.88 19.3772 145.088 19.9761 146.095 20.7746C147.102 21.7728 147.504 22.9706 147.504 24.368C147.504 27.1629 145.289 29.3589 142.47 29.3589C141.06 29.3589 139.852 28.76 138.845 27.9614C137.838 26.9633 137.436 25.7655 137.436 24.368C137.234 21.5732 139.651 19.3772 142.47 19.3772ZM142.47 17.3809C138.644 17.3809 135.422 20.575 135.422 24.368C135.422 28.1611 138.644 31.3552 142.47 31.3552C146.296 31.3552 149.518 28.1611 149.518 24.368C149.518 20.575 146.296 17.3809 142.47 17.3809Z" fill="black"/>
<path d="M133.764 27.1423C135.341 23.614 133.733 19.4869 130.174 17.9241C126.615 16.3613 122.452 17.9546 120.876 21.4829C119.299 25.0112 120.907 29.1383 124.466 30.7011C128.025 32.2639 132.188 30.6706 133.764 27.1423Z" fill="black"/>
<path d="M148.897 12.1761C150.473 8.6478 148.866 4.52066 145.307 2.95787C141.748 1.39509 137.585 2.98844 136.009 6.51674C134.432 10.045 136.039 14.1722 139.599 15.735C143.158 17.2977 147.321 15.7044 148.897 12.1761Z" fill="black"/>
<path d="M133.782 12.1579C135.358 8.62961 133.751 4.50248 130.192 2.93969C126.633 1.37691 122.47 2.97025 120.893 6.49855C119.317 10.0268 120.924 14.154 124.483 15.7168C128.042 17.2795 132.205 15.6862 133.782 12.1579Z" fill="black"/>
<path d="M148.86 42.1448C150.436 38.6165 148.829 34.4894 145.27 32.9266C141.711 31.3638 137.548 32.9572 135.972 36.4855C134.395 40.0138 136.002 44.1409 139.561 45.7037C143.12 47.2665 147.284 45.6731 148.86 42.1448Z" fill="black"/>
<path d="M127.366 34.3497C128.776 34.3497 129.984 34.9486 130.991 35.7472C131.998 36.7453 132.401 37.9431 132.401 39.3406C132.401 42.1354 130.186 44.3314 127.366 44.3314C124.547 44.3314 122.332 42.1354 122.332 39.3406C122.131 36.5457 124.547 34.3497 127.366 34.3497ZM127.366 32.3534C123.54 32.3534 120.318 35.5475 120.318 39.3406C120.318 43.1336 123.54 46.3277 127.366 46.3277C131.193 46.3277 134.414 43.1336 134.414 39.3406C134.414 35.5475 131.193 32.3534 127.366 32.3534Z" fill="black"/>
</g>
<defs>
<clipPath id="clip0_1185_4566">
<rect width="167.14" height="48.69" fill="white" transform="translate(0.904297 0.109985)"/>
</clipPath>
</defs>
</svg>
